%TF.GenerationSoftware,KiCad,Pcbnew,10.99.0-3671-gbe90a7e200*%
%TF.CreationDate,2026-09-09T23:31:48+01:00*%
%TF.ProjectId,kicad_file,6b696361-645f-4666-996c-652e6b696361,rev?*%
%TF.SameCoordinates,Original*%
%TF.FileFunction,Soldermask,Top*%
%TF.FilePolarity,Negative*%
%FSLAX46Y46*%
G04 Gerber Fmt 4.6, Leading zero omitted, Abs format (unit mm)*
G04 Created by KiCad (PCBNEW 10.99.0-3671-gbe90a7e200) date 2026-09-09 23:31:48*
%MOMM*%
%LPD*%
G01*
G04 APERTURE LIST*
G04 Aperture macros list*
%AMRoundRect*
0 Rectangle with rounded corners*
0 $1 Rounding radius*
0 $2 $3 $4 $5 $6 $7 $8 $9 X,Y pos of 4 corners*
0 Add a 4 corners polygon primitive as box body*
4,1,4,$2,$3,$4,$5,$6,$7,$8,$9,$2,$3,0*
0 Add four circle primitives for the rounded corners*
1,1,$1+$1,$2,$3*
1,1,$1+$1,$4,$5*
1,1,$1+$1,$6,$7*
1,1,$1+$1,$8,$9*
0 Add four rect primitives between the rounded corners*
20,1,$1+$1,$2,$3,$4,$5,0*
20,1,$1+$1,$4,$5,$6,$7,0*
20,1,$1+$1,$6,$7,$8,$9,0*
20,1,$1+$1,$8,$9,$2,$3,0*%
G04 Aperture macros list end*
%ADD10C,0.000000*%
%ADD11C,0.500000*%
%ADD12RoundRect,0.050800X-0.584200X-0.800100X0.584200X-0.800100X0.584200X0.800100X-0.584200X0.800100X0*%
%ADD13RoundRect,0.050800X0.650000X0.750000X-0.650000X0.750000X-0.650000X-0.750000X0.650000X-0.750000X0*%
%ADD14RoundRect,0.050800X0.700000X-1.300000X0.700000X1.300000X-0.700000X1.300000X-0.700000X-1.300000X0*%
%ADD15C,3.308000*%
%ADD16C,1.778000*%
%ADD17RoundRect,0.050800X-0.317500X-0.101600X0.317500X-0.101600X0.317500X0.101600X-0.317500X0.101600X0*%
%ADD18RoundRect,0.050800X0.495300X-0.152400X0.495300X0.152400X-0.495300X0.152400X-0.495300X-0.152400X0*%
%ADD19RoundRect,0.050800X-0.965200X0.965200X-0.965200X-0.965200X0.965200X-0.965200X0.965200X0.965200X0*%
%ADD20C,2.032000*%
%ADD21RoundRect,0.050800X-0.500000X-0.800000X0.500000X-0.800000X0.500000X0.800000X-0.500000X0.800000X0*%
%ADD22RoundRect,0.050800X-2.700000X-3.100000X2.700000X-3.100000X2.700000X3.100000X-2.700000X3.100000X0*%
%ADD23RoundRect,0.050800X-0.650000X-0.750000X0.650000X-0.750000X0.650000X0.750000X-0.650000X0.750000X0*%
%ADD24C,2.286000*%
%ADD25RoundRect,0.050800X0.584200X0.800100X-0.584200X0.800100X-0.584200X-0.800100X0.584200X-0.800100X0*%
%ADD26RoundRect,0.050800X0.750000X-0.650000X0.750000X0.650000X-0.750000X0.650000X-0.750000X-0.650000X0*%
%ADD27RoundRect,0.550800X-0.000010X-0.000010X0.000010X-0.000010X0.000010X0.000010X-0.000010X0.000010X0*%
%ADD28RoundRect,0.050800X-0.600000X0.600000X-0.600000X-0.600000X0.600000X-0.600000X0.600000X0.600000X0*%
%ADD29RoundRect,0.050800X-1.100000X0.300000X-1.100000X-0.300000X1.100000X-0.300000X1.100000X0.300000X0*%
%ADD30RoundRect,0.050800X-0.200000X-0.625000X0.200000X-0.625000X0.200000X0.625000X-0.200000X0.625000X0*%
G04 APERTURE END LIST*
D10*
%TO.C,A2*%
G36*
X36398200Y22961600D02*
G01*
X36245800Y22961600D01*
X36245800Y24790400D01*
X36398200Y24790400D01*
X36398200Y22961600D01*
G37*
%TO.C,SJ1*%
G36*
X47244000Y23114000D02*
G01*
X44704000Y23114000D01*
X44704000Y24638000D01*
X47244000Y24638000D01*
X47244000Y23114000D01*
G37*
%TO.C,A4*%
G36*
X36398200Y28295600D02*
G01*
X36245800Y28295600D01*
X36245800Y30124400D01*
X36398200Y30124400D01*
X36398200Y28295600D01*
G37*
%TO.C,FID2*%
D11*
X57035000Y3175000D02*
G75*
G02*
X57785000Y3925000I750000J0D01*
G01*
X57785000Y3925000D02*
G75*
G02*
X58535000Y3175000I0J-750000D01*
G01*
X57785000Y2425000D02*
G75*
G02*
X57035000Y3175000I0J750000D01*
G01*
X58535000Y3175000D02*
G75*
G02*
X57785000Y2425000I-750000J0D01*
G01*
D10*
%TO.C,U$5*%
G36*
X3009900Y14338300D02*
G01*
X2578100Y14338300D01*
X2578100Y14363700D01*
X3009900Y14363700D01*
X3009900Y14338300D01*
G37*
G36*
X3035300Y14312900D02*
G01*
X2578100Y14312900D01*
X2578100Y14338300D01*
X3035300Y14338300D01*
X3035300Y14312900D01*
G37*
G36*
X3035300Y14287500D02*
G01*
X2578100Y14287500D01*
X2578100Y14312900D01*
X3035300Y14312900D01*
X3035300Y14287500D01*
G37*
G36*
X3009900Y14363700D02*
G01*
X2603500Y14363700D01*
X2603500Y14389100D01*
X3009900Y14389100D01*
X3009900Y14363700D01*
G37*
G36*
X2654300Y14516100D02*
G01*
X2628900Y14516100D01*
X2628900Y14541500D01*
X2654300Y14541500D01*
X2654300Y14516100D01*
G37*
G36*
X2984500Y14389100D02*
G01*
X2628900Y14389100D01*
X2628900Y14414500D01*
X2984500Y14414500D01*
X2984500Y14389100D01*
G37*
G36*
X2959100Y14414500D02*
G01*
X2654300Y14414500D01*
X2654300Y14439900D01*
X2959100Y14439900D01*
X2959100Y14414500D01*
G37*
G36*
X2705100Y14516100D02*
G01*
X2679700Y14516100D01*
X2679700Y14541500D01*
X2705100Y14541500D01*
X2705100Y14516100D01*
G37*
G36*
X2933700Y14439900D02*
G01*
X2679700Y14439900D01*
X2679700Y14465300D01*
X2933700Y14465300D01*
X2933700Y14439900D01*
G37*
G36*
X3035300Y14262100D02*
G01*
X2679700Y14262100D01*
X2679700Y14287500D01*
X3035300Y14287500D01*
X3035300Y14262100D01*
G37*
G36*
X3340100Y14541500D02*
G01*
X2730500Y14541500D01*
X2730500Y14566900D01*
X3340100Y14566900D01*
X3340100Y14541500D01*
G37*
G36*
X2882900Y14465300D02*
G01*
X2730500Y14465300D01*
X2730500Y14490700D01*
X2882900Y14490700D01*
X2882900Y14465300D01*
G37*
G36*
X3060700Y14236700D02*
G01*
X2806700Y14236700D01*
X2806700Y14262100D01*
X3060700Y14262100D01*
X3060700Y14236700D01*
G37*
G36*
X3060700Y14211300D02*
G01*
X2908300Y14211300D01*
X2908300Y14236700D01*
X3060700Y14236700D01*
X3060700Y14211300D01*
G37*
G36*
X3060700Y14185900D02*
G01*
X3009900Y14185900D01*
X3009900Y14211300D01*
X3060700Y14211300D01*
X3060700Y14185900D01*
G37*
G36*
X3340100Y14516100D02*
G01*
X3136900Y14516100D01*
X3136900Y14541500D01*
X3340100Y14541500D01*
X3340100Y14516100D01*
G37*
G36*
X3441700Y14262100D02*
G01*
X3136900Y14262100D01*
X3136900Y14287500D01*
X3441700Y14287500D01*
X3441700Y14262100D01*
G37*
G36*
X3467100Y14236700D02*
G01*
X3136900Y14236700D01*
X3136900Y14262100D01*
X3467100Y14262100D01*
X3467100Y14236700D01*
G37*
G36*
X3492500Y14211300D02*
G01*
X3136900Y14211300D01*
X3136900Y14236700D01*
X3492500Y14236700D01*
X3492500Y14211300D01*
G37*
G36*
X3517900Y14185900D02*
G01*
X3136900Y14185900D01*
X3136900Y14211300D01*
X3517900Y14211300D01*
X3517900Y14185900D01*
G37*
G36*
X3517900Y14160500D02*
G01*
X3136900Y14160500D01*
X3136900Y14185900D01*
X3517900Y14185900D01*
X3517900Y14160500D01*
G37*
G36*
X3441700Y14287500D02*
G01*
X3162300Y14287500D01*
X3162300Y14312900D01*
X3441700Y14312900D01*
X3441700Y14287500D01*
G37*
G36*
X3416300Y14338300D02*
G01*
X3187700Y14338300D01*
X3187700Y14363700D01*
X3416300Y14363700D01*
X3416300Y14338300D01*
G37*
G36*
X3441700Y14312900D02*
G01*
X3187700Y14312900D01*
X3187700Y14338300D01*
X3441700Y14338300D01*
X3441700Y14312900D01*
G37*
G36*
X3416300Y14363700D02*
G01*
X3213100Y14363700D01*
X3213100Y14389100D01*
X3416300Y14389100D01*
X3416300Y14363700D01*
G37*
G36*
X3543300Y14135100D02*
G01*
X3213100Y14135100D01*
X3213100Y14160500D01*
X3543300Y14160500D01*
X3543300Y14135100D01*
G37*
G36*
X3390900Y14389100D02*
G01*
X3238500Y14389100D01*
X3238500Y14414500D01*
X3390900Y14414500D01*
X3390900Y14389100D01*
G37*
G36*
X3390900Y14414500D02*
G01*
X3289300Y14414500D01*
X3289300Y14439900D01*
X3390900Y14439900D01*
X3390900Y14414500D01*
G37*
G36*
X3594100Y14109700D02*
G01*
X3314700Y14109700D01*
X3314700Y14135100D01*
X3594100Y14135100D01*
X3594100Y14109700D01*
G37*
G36*
X3390900Y14439900D02*
G01*
X3340100Y14439900D01*
X3340100Y14465300D01*
X3390900Y14465300D01*
X3390900Y14439900D01*
G37*
G36*
X3416300Y14643100D02*
G01*
X3390900Y14643100D01*
X3390900Y14668500D01*
X3416300Y14668500D01*
X3416300Y14643100D01*
G37*
G36*
X3695700Y14719300D02*
G01*
X3416300Y14719300D01*
X3416300Y14744700D01*
X3695700Y14744700D01*
X3695700Y14719300D01*
G37*
G36*
X3721100Y14693900D02*
G01*
X3416300Y14693900D01*
X3416300Y14719300D01*
X3721100Y14719300D01*
X3721100Y14693900D01*
G37*
G36*
X3771900Y14617700D02*
G01*
X3416300Y14617700D01*
X3416300Y14643100D01*
X3771900Y14643100D01*
X3771900Y14617700D01*
G37*
G36*
X3797300Y14592300D02*
G01*
X3416300Y14592300D01*
X3416300Y14617700D01*
X3797300Y14617700D01*
X3797300Y14592300D01*
G37*
G36*
X3848100Y14516100D02*
G01*
X3416300Y14516100D01*
X3416300Y14541500D01*
X3848100Y14541500D01*
X3848100Y14516100D01*
G37*
G36*
X3873500Y14490700D02*
G01*
X3416300Y14490700D01*
X3416300Y14516100D01*
X3873500Y14516100D01*
X3873500Y14490700D01*
G37*
G36*
X3644900Y14084300D02*
G01*
X3416300Y14084300D01*
X3416300Y14109700D01*
X3644900Y14109700D01*
X3644900Y14084300D01*
G37*
G36*
X3467100Y14846300D02*
G01*
X3441700Y14846300D01*
X3441700Y14871700D01*
X3467100Y14871700D01*
X3467100Y14846300D01*
G37*
G36*
X3949700Y14820900D02*
G01*
X3441700Y14820900D01*
X3441700Y14846300D01*
X3949700Y14846300D01*
X3949700Y14820900D01*
G37*
G36*
X4025900Y14795500D02*
G01*
X3441700Y14795500D01*
X3441700Y14820900D01*
X4025900Y14820900D01*
X4025900Y14795500D01*
G37*
G36*
X3746500Y14668500D02*
G01*
X3441700Y14668500D01*
X3441700Y14693900D01*
X3746500Y14693900D01*
X3746500Y14668500D01*
G37*
G36*
X3771900Y14643100D02*
G01*
X3441700Y14643100D01*
X3441700Y14668500D01*
X3771900Y14668500D01*
X3771900Y14643100D01*
G37*
G36*
X3822700Y14566900D02*
G01*
X3441700Y14566900D01*
X3441700Y14592300D01*
X3822700Y14592300D01*
X3822700Y14566900D01*
G37*
G36*
X3822700Y14541500D02*
G01*
X3441700Y14541500D01*
X3441700Y14566900D01*
X3822700Y14566900D01*
X3822700Y14541500D01*
G37*
G36*
X3898900Y14465300D02*
G01*
X3441700Y14465300D01*
X3441700Y14490700D01*
X3898900Y14490700D01*
X3898900Y14465300D01*
G37*
G36*
X3924300Y14389100D02*
G01*
X3441700Y14389100D01*
X3441700Y14414500D01*
X3924300Y14414500D01*
X3924300Y14389100D01*
G37*
G36*
X4025900Y14770100D02*
G01*
X3467100Y14770100D01*
X3467100Y14795500D01*
X4025900Y14795500D01*
X4025900Y14770100D01*
G37*
G36*
X3670300Y14744700D02*
G01*
X3467100Y14744700D01*
X3467100Y14770100D01*
X3670300Y14770100D01*
X3670300Y14744700D01*
G37*
G36*
X3898900Y14439900D02*
G01*
X3467100Y14439900D01*
X3467100Y14465300D01*
X3898900Y14465300D01*
X3898900Y14439900D01*
G37*
G36*
X3949700Y14363700D02*
G01*
X3467100Y14363700D01*
X3467100Y14389100D01*
X3949700Y14389100D01*
X3949700Y14363700D01*
G37*
G36*
X3594100Y14922500D02*
G01*
X3492500Y14922500D01*
X3492500Y14947900D01*
X3594100Y14947900D01*
X3594100Y14922500D01*
G37*
G36*
X3721100Y14897100D02*
G01*
X3492500Y14897100D01*
X3492500Y14922500D01*
X3721100Y14922500D01*
X3721100Y14897100D01*
G37*
G36*
X3822700Y14871700D02*
G01*
X3492500Y14871700D01*
X3492500Y14897100D01*
X3822700Y14897100D01*
X3822700Y14871700D01*
G37*
G36*
X3924300Y14846300D02*
G01*
X3492500Y14846300D01*
X3492500Y14871700D01*
X3924300Y14871700D01*
X3924300Y14846300D01*
G37*
G36*
X3924300Y14414500D02*
G01*
X3492500Y14414500D01*
X3492500Y14439900D01*
X3924300Y14439900D01*
X3924300Y14414500D01*
G37*
G36*
X3949700Y14338300D02*
G01*
X3492500Y14338300D01*
X3492500Y14363700D01*
X3949700Y14363700D01*
X3949700Y14338300D01*
G37*
G36*
X3543300Y14947900D02*
G01*
X3517900Y14947900D01*
X3517900Y14973300D01*
X3543300Y14973300D01*
X3543300Y14947900D01*
G37*
G36*
X3975100Y14312900D02*
G01*
X3517900Y14312900D01*
X3517900Y14338300D01*
X3975100Y14338300D01*
X3975100Y14312900D01*
G37*
G36*
X3975100Y14287500D02*
G01*
X3517900Y14287500D01*
X3517900Y14312900D01*
X3975100Y14312900D01*
X3975100Y14287500D01*
G37*
G36*
X4000500Y14262100D02*
G01*
X3517900Y14262100D01*
X3517900Y14287500D01*
X4000500Y14287500D01*
X4000500Y14262100D01*
G37*
G36*
X3695700Y14058900D02*
G01*
X3517900Y14058900D01*
X3517900Y14084300D01*
X3695700Y14084300D01*
X3695700Y14058900D01*
G37*
G36*
X4000500Y14236700D02*
G01*
X3543300Y14236700D01*
X3543300Y14262100D01*
X4000500Y14262100D01*
X4000500Y14236700D01*
G37*
G36*
X3644900Y14947900D02*
G01*
X3594100Y14947900D01*
X3594100Y14973300D01*
X3644900Y14973300D01*
X3644900Y14947900D01*
G37*
G36*
X4000500Y14211300D02*
G01*
X3594100Y14211300D01*
X3594100Y14236700D01*
X4000500Y14236700D01*
X4000500Y14211300D01*
G37*
G36*
X4000500Y14160500D02*
G01*
X3594100Y14160500D01*
X3594100Y14185900D01*
X4000500Y14185900D01*
X4000500Y14160500D01*
G37*
G36*
X3695700Y14922500D02*
G01*
X3619500Y14922500D01*
X3619500Y14947900D01*
X3695700Y14947900D01*
X3695700Y14922500D01*
G37*
G36*
X4025900Y14185900D02*
G01*
X3619500Y14185900D01*
X3619500Y14211300D01*
X4025900Y14211300D01*
X4025900Y14185900D01*
G37*
G36*
X3670300Y14033500D02*
G01*
X3619500Y14033500D01*
X3619500Y14058900D01*
X3670300Y14058900D01*
X3670300Y14033500D01*
G37*
G36*
X3975100Y14135100D02*
G01*
X3670300Y14135100D01*
X3670300Y14160500D01*
X3975100Y14160500D01*
X3975100Y14135100D01*
G37*
G36*
X4102100Y14744700D02*
G01*
X3695700Y14744700D01*
X3695700Y14770100D01*
X4102100Y14770100D01*
X4102100Y14744700D01*
G37*
G36*
X4102100Y14719300D02*
G01*
X3721100Y14719300D01*
X3721100Y14744700D01*
X4102100Y14744700D01*
X4102100Y14719300D01*
G37*
G36*
X3898900Y14109700D02*
G01*
X3721100Y14109700D01*
X3721100Y14135100D01*
X3898900Y14135100D01*
X3898900Y14109700D01*
G37*
G36*
X3797300Y14897100D02*
G01*
X3746500Y14897100D01*
X3746500Y14922500D01*
X3797300Y14922500D01*
X3797300Y14897100D01*
G37*
G36*
X4178300Y14693900D02*
G01*
X3746500Y14693900D01*
X3746500Y14719300D01*
X4178300Y14719300D01*
X4178300Y14693900D01*
G37*
G36*
X4178300Y14668500D02*
G01*
X3771900Y14668500D01*
X3771900Y14693900D01*
X4178300Y14693900D01*
X4178300Y14668500D01*
G37*
G36*
X4381500Y14033500D02*
G01*
X3771900Y14033500D01*
X3771900Y14058900D01*
X4381500Y14058900D01*
X4381500Y14033500D01*
G37*
G36*
X4178300Y14643100D02*
G01*
X3797300Y14643100D01*
X3797300Y14668500D01*
X4178300Y14668500D01*
X4178300Y14643100D01*
G37*
G36*
X4381500Y14008100D02*
G01*
X3797300Y14008100D01*
X3797300Y14033500D01*
X4381500Y14033500D01*
X4381500Y14008100D01*
G37*
G36*
X4203700Y14617700D02*
G01*
X3822700Y14617700D01*
X3822700Y14643100D01*
X4203700Y14643100D01*
X4203700Y14617700D01*
G37*
G36*
X4381500Y13982700D02*
G01*
X3822700Y13982700D01*
X3822700Y14008100D01*
X4381500Y14008100D01*
X4381500Y13982700D01*
G37*
G36*
X3898900Y14871700D02*
G01*
X3848100Y14871700D01*
X3848100Y14897100D01*
X3898900Y14897100D01*
X3898900Y14871700D01*
G37*
G36*
X4254500Y14592300D02*
G01*
X3848100Y14592300D01*
X3848100Y14617700D01*
X4254500Y14617700D01*
X4254500Y14592300D01*
G37*
G36*
X4254500Y14566900D02*
G01*
X3848100Y14566900D01*
X3848100Y14592300D01*
X4254500Y14592300D01*
X4254500Y14566900D01*
G37*
G36*
X4254500Y14541500D02*
G01*
X3873500Y14541500D01*
X3873500Y14566900D01*
X4254500Y14566900D01*
X4254500Y14541500D01*
G37*
G36*
X4279900Y14516100D02*
G01*
X3898900Y14516100D01*
X3898900Y14541500D01*
X4279900Y14541500D01*
X4279900Y14516100D01*
G37*
G36*
X4381500Y14058900D02*
G01*
X3898900Y14058900D01*
X3898900Y14084300D01*
X4381500Y14084300D01*
X4381500Y14058900D01*
G37*
G36*
X4279900Y14490700D02*
G01*
X3924300Y14490700D01*
X3924300Y14516100D01*
X4279900Y14516100D01*
X4279900Y14490700D01*
G37*
G36*
X4279900Y14465300D02*
G01*
X3924300Y14465300D01*
X3924300Y14490700D01*
X4279900Y14490700D01*
X4279900Y14465300D01*
G37*
G36*
X4356100Y13957300D02*
G01*
X3924300Y13957300D01*
X3924300Y13982700D01*
X4356100Y13982700D01*
X4356100Y13957300D01*
G37*
G36*
X3975100Y14846300D02*
G01*
X3949700Y14846300D01*
X3949700Y14871700D01*
X3975100Y14871700D01*
X3975100Y14846300D01*
G37*
G36*
X4279900Y14439900D02*
G01*
X3949700Y14439900D01*
X3949700Y14465300D01*
X4279900Y14465300D01*
X4279900Y14439900D01*
G37*
G36*
X4000500Y14820900D02*
G01*
X3975100Y14820900D01*
X3975100Y14846300D01*
X4000500Y14846300D01*
X4000500Y14820900D01*
G37*
G36*
X4279900Y14414500D02*
G01*
X3975100Y14414500D01*
X3975100Y14439900D01*
X4279900Y14439900D01*
X4279900Y14414500D01*
G37*
G36*
X4279900Y14389100D02*
G01*
X3975100Y14389100D01*
X3975100Y14414500D01*
X4279900Y14414500D01*
X4279900Y14389100D01*
G37*
G36*
X4381500Y14084300D02*
G01*
X3975100Y14084300D01*
X3975100Y14109700D01*
X4381500Y14109700D01*
X4381500Y14084300D01*
G37*
G36*
X4254500Y14363700D02*
G01*
X4000500Y14363700D01*
X4000500Y14389100D01*
X4254500Y14389100D01*
X4254500Y14363700D01*
G37*
G36*
X4254500Y14338300D02*
G01*
X4025900Y14338300D01*
X4025900Y14363700D01*
X4254500Y14363700D01*
X4254500Y14338300D01*
G37*
G36*
X4254500Y14312900D02*
G01*
X4025900Y14312900D01*
X4025900Y14338300D01*
X4254500Y14338300D01*
X4254500Y14312900D01*
G37*
G36*
X4381500Y14109700D02*
G01*
X4025900Y14109700D01*
X4025900Y14135100D01*
X4381500Y14135100D01*
X4381500Y14109700D01*
G37*
G36*
X4229100Y14287500D02*
G01*
X4051300Y14287500D01*
X4051300Y14312900D01*
X4229100Y14312900D01*
X4229100Y14287500D01*
G37*
G36*
X4203700Y14262100D02*
G01*
X4051300Y14262100D01*
X4051300Y14287500D01*
X4203700Y14287500D01*
X4203700Y14262100D01*
G37*
G36*
X4381500Y14160500D02*
G01*
X4051300Y14160500D01*
X4051300Y14185900D01*
X4381500Y14185900D01*
X4381500Y14160500D01*
G37*
G36*
X4381500Y14135100D02*
G01*
X4051300Y14135100D01*
X4051300Y14160500D01*
X4381500Y14160500D01*
X4381500Y14135100D01*
G37*
G36*
X4356100Y13931900D02*
G01*
X4051300Y13931900D01*
X4051300Y13957300D01*
X4356100Y13957300D01*
X4356100Y13931900D01*
G37*
G36*
X4102100Y14770100D02*
G01*
X4076700Y14770100D01*
X4076700Y14795500D01*
X4102100Y14795500D01*
X4102100Y14770100D01*
G37*
G36*
X4178300Y14236700D02*
G01*
X4076700Y14236700D01*
X4076700Y14262100D01*
X4178300Y14262100D01*
X4178300Y14236700D01*
G37*
G36*
X4178300Y14719300D02*
G01*
X4152900Y14719300D01*
X4152900Y14744700D01*
X4178300Y14744700D01*
X4178300Y14719300D01*
G37*
G36*
X4330700Y13906500D02*
G01*
X4152900Y13906500D01*
X4152900Y13931900D01*
X4330700Y13931900D01*
X4330700Y13906500D01*
G37*
G36*
X4356100Y14185900D02*
G01*
X4203700Y14185900D01*
X4203700Y14211300D01*
X4356100Y14211300D01*
X4356100Y14185900D01*
G37*
G36*
X4254500Y14617700D02*
G01*
X4229100Y14617700D01*
X4229100Y14643100D01*
X4254500Y14643100D01*
X4254500Y14617700D01*
G37*
G36*
X4356100Y14211300D02*
G01*
X4229100Y14211300D01*
X4229100Y14236700D01*
X4356100Y14236700D01*
X4356100Y14211300D01*
G37*
G36*
X4330700Y14236700D02*
G01*
X4254500Y14236700D01*
X4254500Y14262100D01*
X4330700Y14262100D01*
X4330700Y14236700D01*
G37*
G36*
X4305300Y13881100D02*
G01*
X4254500Y13881100D01*
X4254500Y13906500D01*
X4305300Y13906500D01*
X4305300Y13881100D01*
G37*
G36*
X4305300Y14262100D02*
G01*
X4279900Y14262100D01*
X4279900Y14287500D01*
X4305300Y14287500D01*
X4305300Y14262100D01*
G37*
G36*
X4381500Y14439900D02*
G01*
X4330700Y14439900D01*
X4330700Y14465300D01*
X4381500Y14465300D01*
X4381500Y14439900D01*
G37*
G36*
X4559300Y14414500D02*
G01*
X4330700Y14414500D01*
X4330700Y14439900D01*
X4559300Y14439900D01*
X4559300Y14414500D01*
G37*
G36*
X4737100Y14389100D02*
G01*
X4330700Y14389100D01*
X4330700Y14414500D01*
X4737100Y14414500D01*
X4737100Y14389100D01*
G37*
G36*
X5041900Y13957300D02*
G01*
X4432300Y13957300D01*
X4432300Y13982700D01*
X5041900Y13982700D01*
X5041900Y13957300D01*
G37*
G36*
X4940300Y14363700D02*
G01*
X4457700Y14363700D01*
X4457700Y14389100D01*
X4940300Y14389100D01*
X4940300Y14363700D01*
G37*
G36*
X5041900Y14058900D02*
G01*
X4457700Y14058900D01*
X4457700Y14084300D01*
X5041900Y14084300D01*
X5041900Y14058900D01*
G37*
G36*
X5041900Y14033500D02*
G01*
X4457700Y14033500D01*
X4457700Y14058900D01*
X5041900Y14058900D01*
X5041900Y14033500D01*
G37*
G36*
X5041900Y14008100D02*
G01*
X4457700Y14008100D01*
X4457700Y14033500D01*
X5041900Y14033500D01*
X5041900Y14008100D01*
G37*
G36*
X5041900Y13982700D02*
G01*
X4457700Y13982700D01*
X4457700Y14008100D01*
X5041900Y14008100D01*
X5041900Y13982700D01*
G37*
G36*
X5041900Y13931900D02*
G01*
X4457700Y13931900D01*
X4457700Y13957300D01*
X5041900Y13957300D01*
X5041900Y13931900D01*
G37*
G36*
X5041900Y13906500D02*
G01*
X4457700Y13906500D01*
X4457700Y13931900D01*
X5041900Y13931900D01*
X5041900Y13906500D01*
G37*
G36*
X5041900Y13881100D02*
G01*
X4457700Y13881100D01*
X4457700Y13906500D01*
X5041900Y13906500D01*
X5041900Y13881100D01*
G37*
G36*
X5041900Y13855700D02*
G01*
X4457700Y13855700D01*
X4457700Y13881100D01*
X5041900Y13881100D01*
X5041900Y13855700D01*
G37*
G36*
X5016500Y14109700D02*
G01*
X4483100Y14109700D01*
X4483100Y14135100D01*
X5016500Y14135100D01*
X5016500Y14109700D01*
G37*
G36*
X5016500Y14084300D02*
G01*
X4483100Y14084300D01*
X4483100Y14109700D01*
X5016500Y14109700D01*
X5016500Y14084300D01*
G37*
G36*
X5016500Y13830300D02*
G01*
X4483100Y13830300D01*
X4483100Y13855700D01*
X5016500Y13855700D01*
X5016500Y13830300D01*
G37*
G36*
X4991100Y14135100D02*
G01*
X4508500Y14135100D01*
X4508500Y14160500D01*
X4991100Y14160500D01*
X4991100Y14135100D01*
G37*
G36*
X4965700Y14160500D02*
G01*
X4533900Y14160500D01*
X4533900Y14185900D01*
X4965700Y14185900D01*
X4965700Y14160500D01*
G37*
G36*
X4940300Y14185900D02*
G01*
X4559300Y14185900D01*
X4559300Y14211300D01*
X4940300Y14211300D01*
X4940300Y14185900D01*
G37*
G36*
X4914900Y14211300D02*
G01*
X4584700Y14211300D01*
X4584700Y14236700D01*
X4914900Y14236700D01*
X4914900Y14211300D01*
G37*
G36*
X5016500Y13804900D02*
G01*
X4584700Y13804900D01*
X4584700Y13830300D01*
X5016500Y13830300D01*
X5016500Y13804900D01*
G37*
G36*
X4864100Y14236700D02*
G01*
X4635500Y14236700D01*
X4635500Y14262100D01*
X4864100Y14262100D01*
X4864100Y14236700D01*
G37*
G36*
X5168900Y14338300D02*
G01*
X4660900Y14338300D01*
X4660900Y14363700D01*
X5168900Y14363700D01*
X5168900Y14338300D01*
G37*
G36*
X4787900Y14262100D02*
G01*
X4711700Y14262100D01*
X4711700Y14287500D01*
X4787900Y14287500D01*
X4787900Y14262100D01*
G37*
G36*
X4991100Y13779500D02*
G01*
X4711700Y13779500D01*
X4711700Y13804900D01*
X4991100Y13804900D01*
X4991100Y13779500D01*
G37*
G36*
X4965700Y13754100D02*
G01*
X4813300Y13754100D01*
X4813300Y13779500D01*
X4965700Y13779500D01*
X4965700Y13754100D01*
G37*
G36*
X5448300Y14312900D02*
G01*
X4864100Y14312900D01*
X4864100Y14338300D01*
X5448300Y14338300D01*
X5448300Y14312900D01*
G37*
G36*
X5676900Y13931900D02*
G01*
X5118100Y13931900D01*
X5118100Y13957300D01*
X5676900Y13957300D01*
X5676900Y13931900D01*
G37*
G36*
X5676900Y13906500D02*
G01*
X5118100Y13906500D01*
X5118100Y13931900D01*
X5676900Y13931900D01*
X5676900Y13906500D01*
G37*
G36*
X5676900Y13881100D02*
G01*
X5118100Y13881100D01*
X5118100Y13906500D01*
X5676900Y13906500D01*
X5676900Y13881100D01*
G37*
G36*
X5651500Y14008100D02*
G01*
X5143500Y14008100D01*
X5143500Y14033500D01*
X5651500Y14033500D01*
X5651500Y14008100D01*
G37*
G36*
X5676900Y13982700D02*
G01*
X5143500Y13982700D01*
X5143500Y14008100D01*
X5676900Y14008100D01*
X5676900Y13982700D01*
G37*
G36*
X5676900Y13957300D02*
G01*
X5143500Y13957300D01*
X5143500Y13982700D01*
X5676900Y13982700D01*
X5676900Y13957300D01*
G37*
G36*
X5676900Y13855700D02*
G01*
X5143500Y13855700D01*
X5143500Y13881100D01*
X5676900Y13881100D01*
X5676900Y13855700D01*
G37*
G36*
X5676900Y13830300D02*
G01*
X5143500Y13830300D01*
X5143500Y13855700D01*
X5676900Y13855700D01*
X5676900Y13830300D01*
G37*
G36*
X5676900Y13804900D02*
G01*
X5143500Y13804900D01*
X5143500Y13830300D01*
X5676900Y13830300D01*
X5676900Y13804900D01*
G37*
G36*
X5651500Y13779500D02*
G01*
X5143500Y13779500D01*
X5143500Y13804900D01*
X5651500Y13804900D01*
X5651500Y13779500D01*
G37*
G36*
X5600700Y14287500D02*
G01*
X5168900Y14287500D01*
X5168900Y14312900D01*
X5600700Y14312900D01*
X5600700Y14287500D01*
G37*
G36*
X5626100Y14058900D02*
G01*
X5168900Y14058900D01*
X5168900Y14084300D01*
X5626100Y14084300D01*
X5626100Y14058900D01*
G37*
G36*
X5651500Y14033500D02*
G01*
X5168900Y14033500D01*
X5168900Y14058900D01*
X5651500Y14058900D01*
X5651500Y14033500D01*
G37*
G36*
X5651500Y13754100D02*
G01*
X5168900Y13754100D01*
X5168900Y13779500D01*
X5651500Y13779500D01*
X5651500Y13754100D01*
G37*
G36*
X5626100Y13728700D02*
G01*
X5168900Y13728700D01*
X5168900Y13754100D01*
X5626100Y13754100D01*
X5626100Y13728700D01*
G37*
G36*
X5626100Y14084300D02*
G01*
X5194300Y14084300D01*
X5194300Y14109700D01*
X5626100Y14109700D01*
X5626100Y14084300D01*
G37*
G36*
X5600700Y13703300D02*
G01*
X5194300Y13703300D01*
X5194300Y13728700D01*
X5600700Y13728700D01*
X5600700Y13703300D01*
G37*
G36*
X5600700Y14109700D02*
G01*
X5219700Y14109700D01*
X5219700Y14135100D01*
X5600700Y14135100D01*
X5600700Y14109700D01*
G37*
G36*
X5575300Y13677900D02*
G01*
X5219700Y13677900D01*
X5219700Y13703300D01*
X5575300Y13703300D01*
X5575300Y13677900D01*
G37*
G36*
X5575300Y14135100D02*
G01*
X5245100Y14135100D01*
X5245100Y14160500D01*
X5575300Y14160500D01*
X5575300Y14135100D01*
G37*
G36*
X5549900Y14160500D02*
G01*
X5270500Y14160500D01*
X5270500Y14185900D01*
X5549900Y14185900D01*
X5549900Y14160500D01*
G37*
G36*
X5499100Y14185900D02*
G01*
X5321300Y14185900D01*
X5321300Y14211300D01*
X5499100Y14211300D01*
X5499100Y14185900D01*
G37*
G36*
X5575300Y13652500D02*
G01*
X5346700Y13652500D01*
X5346700Y13677900D01*
X5575300Y13677900D01*
X5575300Y13652500D01*
G37*
G36*
X5524500Y13627100D02*
G01*
X5499100Y13627100D01*
X5499100Y13652500D01*
X5524500Y13652500D01*
X5524500Y13627100D01*
G37*
G36*
X5803900Y14287500D02*
G01*
X5753100Y14287500D01*
X5753100Y14312900D01*
X5803900Y14312900D01*
X5803900Y14287500D01*
G37*
G36*
X5956300Y14058900D02*
G01*
X5753100Y14058900D01*
X5753100Y14084300D01*
X5956300Y14084300D01*
X5956300Y14058900D01*
G37*
G36*
X5956300Y14033500D02*
G01*
X5753100Y14033500D01*
X5753100Y14058900D01*
X5956300Y14058900D01*
X5956300Y14033500D01*
G37*
G36*
X5956300Y14008100D02*
G01*
X5753100Y14008100D01*
X5753100Y14033500D01*
X5956300Y14033500D01*
X5956300Y14008100D01*
G37*
G36*
X5956300Y13982700D02*
G01*
X5753100Y13982700D01*
X5753100Y14008100D01*
X5956300Y14008100D01*
X5956300Y13982700D01*
G37*
G36*
X5956300Y13957300D02*
G01*
X5753100Y13957300D01*
X5753100Y13982700D01*
X5956300Y13982700D01*
X5956300Y13957300D01*
G37*
G36*
X5956300Y13931900D02*
G01*
X5753100Y13931900D01*
X5753100Y13957300D01*
X5956300Y13957300D01*
X5956300Y13931900D01*
G37*
G36*
X5956300Y13906500D02*
G01*
X5753100Y13906500D01*
X5753100Y13931900D01*
X5956300Y13931900D01*
X5956300Y13906500D01*
G37*
G36*
X5956300Y13881100D02*
G01*
X5753100Y13881100D01*
X5753100Y13906500D01*
X5956300Y13906500D01*
X5956300Y13881100D01*
G37*
G36*
X5956300Y13855700D02*
G01*
X5753100Y13855700D01*
X5753100Y13881100D01*
X5956300Y13881100D01*
X5956300Y13855700D01*
G37*
G36*
X5956300Y13830300D02*
G01*
X5753100Y13830300D01*
X5753100Y13855700D01*
X5956300Y13855700D01*
X5956300Y13830300D01*
G37*
G36*
X5956300Y14109700D02*
G01*
X5778500Y14109700D01*
X5778500Y14135100D01*
X5956300Y14135100D01*
X5956300Y14109700D01*
G37*
G36*
X5956300Y14084300D02*
G01*
X5778500Y14084300D01*
X5778500Y14109700D01*
X5956300Y14109700D01*
X5956300Y14084300D01*
G37*
G36*
X5956300Y13804900D02*
G01*
X5778500Y13804900D01*
X5778500Y13830300D01*
X5956300Y13830300D01*
X5956300Y13804900D01*
G37*
G36*
X5956300Y13779500D02*
G01*
X5778500Y13779500D01*
X5778500Y13804900D01*
X5956300Y13804900D01*
X5956300Y13779500D01*
G37*
G36*
X5956300Y14160500D02*
G01*
X5803900Y14160500D01*
X5803900Y14185900D01*
X5956300Y14185900D01*
X5956300Y14160500D01*
G37*
G36*
X5956300Y14135100D02*
G01*
X5803900Y14135100D01*
X5803900Y14160500D01*
X5956300Y14160500D01*
X5956300Y14135100D01*
G37*
G36*
X5956300Y13754100D02*
G01*
X5803900Y13754100D01*
X5803900Y13779500D01*
X5956300Y13779500D01*
X5956300Y13754100D01*
G37*
G36*
X5956300Y13728700D02*
G01*
X5803900Y13728700D01*
X5803900Y13754100D01*
X5956300Y13754100D01*
X5956300Y13728700D01*
G37*
G36*
X5956300Y14185900D02*
G01*
X5829300Y14185900D01*
X5829300Y14211300D01*
X5956300Y14211300D01*
X5956300Y14185900D01*
G37*
G36*
X5956300Y13703300D02*
G01*
X5829300Y13703300D01*
X5829300Y13728700D01*
X5956300Y13728700D01*
X5956300Y13703300D01*
G37*
G36*
X5905500Y14338300D02*
G01*
X5880100Y14338300D01*
X5880100Y14363700D01*
X5905500Y14363700D01*
X5905500Y14338300D01*
G37*
G36*
X5930900Y14211300D02*
G01*
X5880100Y14211300D01*
X5880100Y14236700D01*
X5930900Y14236700D01*
X5930900Y14211300D01*
G37*
G36*
X5930900Y13677900D02*
G01*
X5880100Y13677900D01*
X5880100Y13703300D01*
X5930900Y13703300D01*
X5930900Y13677900D01*
G37*
%TO.C,FID3*%
D11*
X7378000Y11176000D02*
G75*
G02*
X8128000Y11926000I750000J0D01*
G01*
X8128000Y11926000D02*
G75*
G02*
X8878000Y11176000I0J-750000D01*
G01*
X8128000Y10426000D02*
G75*
G02*
X7378000Y11176000I0J750000D01*
G01*
X8878000Y11176000D02*
G75*
G02*
X8128000Y10426000I-750000J0D01*
G01*
D10*
%TO.C,A0*%
G36*
X36398200Y17881600D02*
G01*
X36245800Y17881600D01*
X36245800Y19710400D01*
X36398200Y19710400D01*
X36398200Y17881600D01*
G37*
%TO.C,A1*%
G36*
X36398200Y20421600D02*
G01*
X36245800Y20421600D01*
X36245800Y22250400D01*
X36398200Y22250400D01*
X36398200Y20421600D01*
G37*
%TO.C,FID1*%
D11*
X901000Y39243000D02*
G75*
G02*
X1651000Y39993000I750000J0D01*
G01*
X1651000Y39993000D02*
G75*
G02*
X2401000Y39243000I0J-750000D01*
G01*
X1651000Y38493000D02*
G75*
G02*
X901000Y39243000I0J750000D01*
G01*
X2401000Y39243000D02*
G75*
G02*
X1651000Y38493000I-750000J0D01*
G01*
D10*
%TO.C,A3*%
G36*
X36398200Y25501600D02*
G01*
X36245800Y25501600D01*
X36245800Y27330400D01*
X36398200Y27330400D01*
X36398200Y25501600D01*
G37*
%TD*%
D12*
%TO.C,A2*%
X35560000Y23876000D03*
X37084000Y23876000D03*
%TD*%
D13*
%TO.C,R8*%
X41590000Y26416000D03*
X39690000Y26416000D03*
%TD*%
D14*
%TO.C,C5*%
X22860000Y14877000D03*
X22860000Y10777000D03*
%TD*%
D15*
%TO.C,RPI1*%
X3500000Y51230000D03*
X3500000Y2230000D03*
X61500000Y51230000D03*
X61500000Y2230000D03*
D16*
X8370000Y49960000D03*
X8370000Y52500000D03*
X10910000Y49960000D03*
X10910000Y52500000D03*
X13450000Y49960000D03*
X13450000Y52500000D03*
X15990000Y49960000D03*
X15990000Y52500000D03*
X18530000Y49960000D03*
X18530000Y52500000D03*
X21070000Y49960000D03*
X21070000Y52500000D03*
X23610000Y49960000D03*
X23610000Y52500000D03*
X26150000Y49960000D03*
X26150000Y52500000D03*
X28690000Y49960000D03*
X28690000Y52500000D03*
X31230000Y49960000D03*
X31230000Y52500000D03*
X33770000Y49960000D03*
X33770000Y52500000D03*
X36310000Y49960000D03*
X36310000Y52500000D03*
X38850000Y49960000D03*
X38850000Y52500000D03*
X41390000Y49960000D03*
X41390000Y52500000D03*
X43930000Y49960000D03*
X43930000Y52500000D03*
X46470000Y49960000D03*
X46470000Y52500000D03*
X49010000Y49960000D03*
X49010000Y52500000D03*
X51550000Y49960000D03*
X51550000Y52500000D03*
X54090000Y49960000D03*
X54090000Y52500000D03*
X56630000Y49960000D03*
X56630000Y52500000D03*
%TD*%
D12*
%TO.C,SJ1*%
X45212000Y23876000D03*
X46736000Y23876000D03*
D17*
X45974000Y23876000D03*
%TD*%
D18*
%TO.C,U2*%
X28317800Y18762000D03*
X28317800Y19412000D03*
X28317800Y20062000D03*
X28317800Y20712000D03*
X28317800Y21362000D03*
X28317800Y22012000D03*
X28317800Y22662000D03*
X28317800Y23312000D03*
X28317800Y23962000D03*
X28317800Y24612000D03*
X28317800Y25262000D03*
X28317800Y25912000D03*
X28317800Y26562000D03*
X28317800Y27212000D03*
X22482200Y27212000D03*
X22482200Y26562000D03*
X22482200Y25912000D03*
X22482200Y25262000D03*
X22482200Y24612000D03*
X22482200Y23962000D03*
X22482200Y23312000D03*
X22482200Y22662000D03*
X22482200Y22012000D03*
X22482200Y21362000D03*
X22482200Y20712000D03*
X22482200Y20062000D03*
X22482200Y19412000D03*
X22482200Y18762000D03*
%TD*%
D19*
%TO.C,JP1*%
X30480000Y30480000D03*
D20*
X27940000Y30480000D03*
X25400000Y30480000D03*
X22860000Y30480000D03*
%TD*%
D21*
%TO.C,Q1*%
X50806000Y7392000D03*
X55366000Y7392000D03*
D22*
X53086000Y14692000D03*
%TD*%
D23*
%TO.C,C3*%
X18481000Y22606000D03*
X20381000Y22606000D03*
%TD*%
D24*
%TO.C,MPOWER0*%
X54505000Y2413000D03*
X51005000Y2413000D03*
%TD*%
D25*
%TO.C,A4*%
X37084000Y29210000D03*
X35560000Y29210000D03*
%TD*%
D24*
%TO.C,J3*%
X41671000Y2413000D03*
X38171000Y2413000D03*
X34671000Y2413000D03*
X31171000Y2413000D03*
X27671000Y2413000D03*
%TD*%
D26*
%TO.C,R2*%
X52959000Y27498000D03*
X52959000Y29398000D03*
%TD*%
%TO.C,C10*%
X14732000Y18227000D03*
X14732000Y20127000D03*
%TD*%
D27*
%TO.C,FID2*%
X57785000Y3175000D03*
%TD*%
D13*
%TO.C,R5*%
X41590000Y21336000D03*
X39690000Y21336000D03*
%TD*%
D28*
%TO.C,LED1*%
X52036000Y20066000D03*
X54136000Y20066000D03*
%TD*%
D27*
%TO.C,FID3*%
X8128000Y11176000D03*
%TD*%
D26*
%TO.C,C6*%
X31369000Y18354000D03*
X31369000Y20254000D03*
%TD*%
D29*
%TO.C,U1*%
X44771000Y29591000D03*
X44771000Y28321000D03*
X44771000Y27051000D03*
X44771000Y25781000D03*
X49971000Y25781000D03*
X49971000Y27051000D03*
X49971000Y28321000D03*
X49971000Y29591000D03*
%TD*%
D16*
%TO.C,CONN1*%
X2540000Y45720000D03*
X5080000Y45720000D03*
X7620000Y45720000D03*
X10160000Y45720000D03*
X12700000Y45720000D03*
X15240000Y45720000D03*
X17780000Y45720000D03*
X20320000Y45720000D03*
X22860000Y45720000D03*
X25400000Y45720000D03*
X27940000Y45720000D03*
X30480000Y45720000D03*
X33020000Y45720000D03*
X35560000Y45720000D03*
X38100000Y45720000D03*
X40640000Y45720000D03*
X43180000Y45720000D03*
X45720000Y45720000D03*
X48260000Y45720000D03*
X50800000Y45720000D03*
X53340000Y45720000D03*
X55880000Y45720000D03*
X58420000Y45720000D03*
X60960000Y45720000D03*
X63500000Y45720000D03*
%TD*%
D26*
%TO.C,R1*%
X54991000Y26482000D03*
X54991000Y28382000D03*
%TD*%
D12*
%TO.C,A0*%
X35560000Y18796000D03*
X37084000Y18796000D03*
%TD*%
%TO.C,A1*%
X35560000Y21336000D03*
X37084000Y21336000D03*
%TD*%
D13*
%TO.C,R6*%
X41590000Y23876000D03*
X39690000Y23876000D03*
%TD*%
%TO.C,C1*%
X20508000Y18796000D03*
X18608000Y18796000D03*
%TD*%
%TO.C,R9*%
X41590000Y29210000D03*
X39690000Y29210000D03*
%TD*%
D27*
%TO.C,FID1*%
X1651000Y39243000D03*
%TD*%
D25*
%TO.C,A3*%
X37084000Y26416000D03*
X35560000Y26416000D03*
%TD*%
D14*
%TO.C,C4*%
X39497000Y14750000D03*
X39497000Y10650000D03*
%TD*%
D23*
%TO.C,R3*%
X48834000Y23876000D03*
X50734000Y23876000D03*
%TD*%
%TO.C,R7*%
X52136000Y21971000D03*
X54036000Y21971000D03*
%TD*%
D30*
%TO.C,IC1*%
X11411000Y9075000D03*
X12061000Y9075000D03*
X12711000Y9075000D03*
X13361000Y9075000D03*
X14011000Y9075000D03*
X14661000Y9075000D03*
X15311000Y9075000D03*
X15961000Y9075000D03*
X16611000Y9075000D03*
X17261000Y9075000D03*
X17911000Y9075000D03*
X18561000Y9075000D03*
X18561000Y16325000D03*
X17911000Y16325000D03*
X17261000Y16325000D03*
X16611000Y16325000D03*
X15961000Y16325000D03*
X15311000Y16325000D03*
X14661000Y16325000D03*
X14011000Y16325000D03*
X13361000Y16325000D03*
X12711000Y16325000D03*
X12061000Y16325000D03*
X11411000Y16325000D03*
%TD*%
%TO.C,IC3*%
X28175000Y9202000D03*
X28825000Y9202000D03*
X29475000Y9202000D03*
X30125000Y9202000D03*
X30775000Y9202000D03*
X31425000Y9202000D03*
X32075000Y9202000D03*
X32725000Y9202000D03*
X33375000Y9202000D03*
X34025000Y9202000D03*
X34675000Y9202000D03*
X35325000Y9202000D03*
X35325000Y16452000D03*
X34675000Y16452000D03*
X34025000Y16452000D03*
X33375000Y16452000D03*
X32725000Y16452000D03*
X32075000Y16452000D03*
X31425000Y16452000D03*
X30775000Y16452000D03*
X30125000Y16452000D03*
X29475000Y16452000D03*
X28825000Y16452000D03*
X28175000Y16452000D03*
%TD*%
D24*
%TO.C,J1*%
X23002000Y2413000D03*
X19502000Y2413000D03*
X16002000Y2413000D03*
X12502000Y2413000D03*
X9002000Y2413000D03*
%TD*%
D13*
%TO.C,R4*%
X41590000Y18796000D03*
X39690000Y18796000D03*
%TD*%
M02*
