ISO-10303-21;
HEADER;
FILE_DESCRIPTION(('KiCad electronic assembly'),'2;1');
FILE_NAME('model.step','1970-01-01T00:00:00',('Pcbnew'),('Kicad'),
  'Open CASCADE STEP processor 7.9','KiCad to STEP converter','Unknown'
  );
FILE_SCHEMA(('AUTOMOTIVE_DESIGN { 1 0 10303 214 1 1 1 1 }'));
ENDSEC;
DATA;
#1 = APPLICATION_PROTOCOL_DEFINITION('international standard',
  'automotive_design',2000,#2);
#2 = APPLICATION_CONTEXT(
  'core data for automotive mechanical design processes');
#3 = SHAPE_DEFINITION_REPRESENTATION(#4,#10);
#4 = PRODUCT_DEFINITION_SHAPE('','',#5);
#5 = PRODUCT_DEFINITION('design','',#6,#9);
#6 = PRODUCT_DEFINITION_FORMATION('','',#7);
#7 = PRODUCT('model 1','model 1','',(#8));
#8 = PRODUCT_CONTEXT('',#2,'mechanical');
#9 = PRODUCT_DEFINITION_CONTEXT('part definition',#2,'design');
#10 = SHAPE_REPRESENTATION('',(#11,#15,#19,#23),#27);
#11 = AXIS2_PLACEMENT_3D('',#12,#13,#14);
#12 = CARTESIAN_POINT('',(0.,0.,0.));
#13 = DIRECTION('',(0.,0.,1.));
#14 = DIRECTION('',(1.,0.,-0.));
#15 = AXIS2_PLACEMENT_3D('',#16,#17,#18);
#16 = CARTESIAN_POINT('',(0.,0.,1.595));
#17 = DIRECTION('',(0.,0.,1.));
#18 = DIRECTION('',(1.,0.,0.));
#19 = AXIS2_PLACEMENT_3D('',#20,#21,#22);
#20 = CARTESIAN_POINT('',(0.,0.,0.));
#21 = DIRECTION('',(0.,0.,1.));
#22 = DIRECTION('',(1.,0.,-0.));
#23 = AXIS2_PLACEMENT_3D('',#24,#25,#26);
#24 = CARTESIAN_POINT('',(0.,0.,0.));
#25 = DIRECTION('',(0.,0.,1.));
#26 = DIRECTION('',(1.,0.,-0.));
#27 = ( GEOMETRIC_REPRESENTATION_CONTEXT(3) 
GLOBAL_UNCERTAINTY_ASSIGNED_CONTEXT((#31)) GLOBAL_UNIT_ASSIGNED_CONTEXT(
(#28,#29,#30)) REPRESENTATION_CONTEXT('Context #1',
  '3D Context with UNIT and UNCERTAINTY') );
#28 = ( LENGTH_UNIT() NAMED_UNIT(*) SI_UNIT(.MILLI.,.METRE.) );
#29 = ( NAMED_UNIT(*) PLANE_ANGLE_UNIT() SI_UNIT($,.RADIAN.) );
#30 = ( NAMED_UNIT(*) SI_UNIT($,.STERADIAN.) SOLID_ANGLE_UNIT() );
#31 = UNCERTAINTY_MEASURE_WITH_UNIT(LENGTH_MEASURE(1.E-07),#28,
  'distance_accuracy_value','confusion accuracy');
#32 = PRODUCT_RELATED_PRODUCT_CATEGORY('part',$,(#7));
#33 = SHAPE_DEFINITION_REPRESENTATION(#34,#40);
#34 = PRODUCT_DEFINITION_SHAPE('','',#35);
#35 = PRODUCT_DEFINITION('design','',#36,#39);
#36 = PRODUCT_DEFINITION_FORMATION('','',#37);
#37 = PRODUCT('C_0603_1608Metric','C_0603_1608Metric','',(#38));
#38 = PRODUCT_CONTEXT('',#2,'mechanical');
#39 = PRODUCT_DEFINITION_CONTEXT('part definition',#2,'design');
#40 = SHAPE_REPRESENTATION('',(#11,#41),#45);
#41 = AXIS2_PLACEMENT_3D('',#42,#43,#44);
#42 = CARTESIAN_POINT('',(0.,0.,0.));
#43 = DIRECTION('',(0.,0.,1.));
#44 = DIRECTION('',(1.,0.,-0.));
#45 = ( GEOMETRIC_REPRESENTATION_CONTEXT(3) 
GLOBAL_UNCERTAINTY_ASSIGNED_CONTEXT((#49)) GLOBAL_UNIT_ASSIGNED_CONTEXT(
(#46,#47,#48)) REPRESENTATION_CONTEXT('Context #1',
  '3D Context with UNIT and UNCERTAINTY') );
#46 = ( LENGTH_UNIT() NAMED_UNIT(*) SI_UNIT(.MILLI.,.METRE.) );
#47 = ( NAMED_UNIT(*) PLANE_ANGLE_UNIT() SI_UNIT($,.RADIAN.) );
#48 = ( NAMED_UNIT(*) SI_UNIT($,.STERADIAN.) SOLID_ANGLE_UNIT() );
#49 = UNCERTAINTY_MEASURE_WITH_UNIT(LENGTH_MEASURE(1.E-07),#46,
  'distance_accuracy_value','confusion accuracy');
#50 = CONTEXT_DEPENDENT_SHAPE_REPRESENTATION(#51,#53);
#51 = ( REPRESENTATION_RELATIONSHIP('','',#40,#10) 
REPRESENTATION_RELATIONSHIP_WITH_TRANSFORMATION(#52) 
SHAPE_REPRESENTATION_RELATIONSHIP() );
#52 = ITEM_DEFINED_TRANSFORMATION('','',#11,#15);
#53 = PRODUCT_DEFINITION_SHAPE('Placement','Placement of an item',#54);
#54 = NEXT_ASSEMBLY_USAGE_OCCURRENCE('2','REF**','',#5,#35,$);
#55 = PRODUCT_RELATED_PRODUCT_CATEGORY('part',$,(#37));
#56 = SHAPE_DEFINITION_REPRESENTATION(#57,#63);
#57 = PRODUCT_DEFINITION_SHAPE('','',#58);
#58 = PRODUCT_DEFINITION('design','',#59,#62);
#59 = PRODUCT_DEFINITION_FORMATION('','',#60);
#60 = PRODUCT('C_0603_1608Metric','C_0603_1608Metric','',(#61));
#61 = PRODUCT_CONTEXT('',#2,'mechanical');
#62 = PRODUCT_DEFINITION_CONTEXT('part definition',#2,'design');
#63 = ADVANCED_BREP_SHAPE_REPRESENTATION('',(#11,#64),#918);
#64 = MANIFOLD_SOLID_BREP('',#65);
#65 = CLOSED_SHELL('',(#66,#142,#173,#198,#223,#247,#271,#296,#321,#338,
    #424,#456,#480,#505,#529,#554,#578,#603,#620,#706,#737,#762,#787,
    #811,#835,#860,#885,#902));
#66 = ADVANCED_FACE('',(#67),#137,.F.);
#67 = FACE_BOUND('',#68,.F.);
#68 = EDGE_LOOP('',(#69,#79,#88,#96,#105,#113,#122,#130));
#69 = ORIENTED_EDGE('',*,*,#70,.F.);
#70 = EDGE_CURVE('',#71,#73,#75,.T.);
#71 = VERTEX_POINT('',#72);
#72 = CARTESIAN_POINT('',(-0.8,-0.4,3.E-02));
#73 = VERTEX_POINT('',#74);
#74 = CARTESIAN_POINT('',(-0.8,-0.4,0.77));
#75 = LINE('',#76,#77);
#76 = CARTESIAN_POINT('',(-0.8,-0.4,0.));
#77 = VECTOR('',#78,1.);
#78 = DIRECTION('',(0.,0.,1.));
#79 = ORIENTED_EDGE('',*,*,#80,.T.);
#80 = EDGE_CURVE('',#71,#81,#83,.T.);
#81 = VERTEX_POINT('',#82);
#82 = CARTESIAN_POINT('',(-0.8,-0.37,0.));
#83 = CIRCLE('',#84,3.E-02);
#84 = AXIS2_PLACEMENT_3D('',#85,#86,#87);
#85 = CARTESIAN_POINT('',(-0.8,-0.37,3.E-02));
#86 = DIRECTION('',(1.,0.,-0.));
#87 = DIRECTION('',(0.,0.,1.));
#88 = ORIENTED_EDGE('',*,*,#89,.T.);
#89 = EDGE_CURVE('',#81,#90,#92,.T.);
#90 = VERTEX_POINT('',#91);
#91 = CARTESIAN_POINT('',(-0.8,0.37,0.));
#92 = LINE('',#93,#94);
#93 = CARTESIAN_POINT('',(-0.8,-0.4,0.));
#94 = VECTOR('',#95,1.);
#95 = DIRECTION('',(0.,1.,0.));
#96 = ORIENTED_EDGE('',*,*,#97,.F.);
#97 = EDGE_CURVE('',#98,#90,#100,.T.);
#98 = VERTEX_POINT('',#99);
#99 = CARTESIAN_POINT('',(-0.8,0.4,3.E-02));
#100 = CIRCLE('',#101,3.E-02);
#101 = AXIS2_PLACEMENT_3D('',#102,#103,#104);
#102 = CARTESIAN_POINT('',(-0.8,0.37,3.E-02));
#103 = DIRECTION('',(-1.,0.,0.));
#104 = DIRECTION('',(0.,0.,1.));
#105 = ORIENTED_EDGE('',*,*,#106,.T.);
#106 = EDGE_CURVE('',#98,#107,#109,.T.);
#107 = VERTEX_POINT('',#108);
#108 = CARTESIAN_POINT('',(-0.8,0.4,0.77));
#109 = LINE('',#110,#111);
#110 = CARTESIAN_POINT('',(-0.8,0.4,0.));
#111 = VECTOR('',#112,1.);
#112 = DIRECTION('',(0.,0.,1.));
#113 = ORIENTED_EDGE('',*,*,#114,.T.);
#114 = EDGE_CURVE('',#107,#115,#117,.T.);
#115 = VERTEX_POINT('',#116);
#116 = CARTESIAN_POINT('',(-0.8,0.37,0.8));
#117 = CIRCLE('',#118,3.E-02);
#118 = AXIS2_PLACEMENT_3D('',#119,#120,#121);
#119 = CARTESIAN_POINT('',(-0.8,0.37,0.77));
#120 = DIRECTION('',(1.,0.,-0.));
#121 = DIRECTION('',(0.,0.,1.));
#122 = ORIENTED_EDGE('',*,*,#123,.F.);
#123 = EDGE_CURVE('',#124,#115,#126,.T.);
#124 = VERTEX_POINT('',#125);
#125 = CARTESIAN_POINT('',(-0.8,-0.37,0.8));
#126 = LINE('',#127,#128);
#127 = CARTESIAN_POINT('',(-0.8,-0.4,0.8));
#128 = VECTOR('',#129,1.);
#129 = DIRECTION('',(0.,1.,0.));
#130 = ORIENTED_EDGE('',*,*,#131,.F.);
#131 = EDGE_CURVE('',#73,#124,#132,.T.);
#132 = CIRCLE('',#133,3.E-02);
#133 = AXIS2_PLACEMENT_3D('',#134,#135,#136);
#134 = CARTESIAN_POINT('',(-0.8,-0.37,0.77));
#135 = DIRECTION('',(-1.,0.,0.));
#136 = DIRECTION('',(0.,0.,1.));
#137 = PLANE('',#138);
#138 = AXIS2_PLACEMENT_3D('',#139,#140,#141);
#139 = CARTESIAN_POINT('',(-0.8,-0.4,0.));
#140 = DIRECTION('',(1.,0.,0.));
#141 = DIRECTION('',(0.,0.,1.));
#142 = ADVANCED_FACE('',(#143),#168,.F.);
#143 = FACE_BOUND('',#144,.F.);
#144 = EDGE_LOOP('',(#145,#155,#161,#162));
#145 = ORIENTED_EDGE('',*,*,#146,.F.);
#146 = EDGE_CURVE('',#147,#149,#151,.T.);
#147 = VERTEX_POINT('',#148);
#148 = CARTESIAN_POINT('',(-0.5,-0.4,3.E-02));
#149 = VERTEX_POINT('',#150);
#150 = CARTESIAN_POINT('',(-0.5,-0.4,0.77));
#151 = LINE('',#152,#153);
#152 = CARTESIAN_POINT('',(-0.5,-0.4,0.));
#153 = VECTOR('',#154,1.);
#154 = DIRECTION('',(0.,0.,1.));
#155 = ORIENTED_EDGE('',*,*,#156,.F.);
#156 = EDGE_CURVE('',#71,#147,#157,.T.);
#157 = LINE('',#158,#159);
#158 = CARTESIAN_POINT('',(-0.8,-0.4,3.E-02));
#159 = VECTOR('',#160,1.);
#160 = DIRECTION('',(1.,0.,0.));
#161 = ORIENTED_EDGE('',*,*,#70,.T.);
#162 = ORIENTED_EDGE('',*,*,#163,.T.);
#163 = EDGE_CURVE('',#73,#149,#164,.T.);
#164 = LINE('',#165,#166);
#165 = CARTESIAN_POINT('',(-0.8,-0.4,0.77));
#166 = VECTOR('',#167,1.);
#167 = DIRECTION('',(1.,0.,0.));
#168 = PLANE('',#169);
#169 = AXIS2_PLACEMENT_3D('',#170,#171,#172);
#170 = CARTESIAN_POINT('',(-0.8,-0.4,0.));
#171 = DIRECTION('',(0.,1.,0.));
#172 = DIRECTION('',(0.,-0.,1.));
#173 = ADVANCED_FACE('',(#174),#193,.T.);
#174 = FACE_BOUND('',#175,.T.);
#175 = EDGE_LOOP('',(#176,#177,#185,#192));
#176 = ORIENTED_EDGE('',*,*,#80,.T.);
#177 = ORIENTED_EDGE('',*,*,#178,.T.);
#178 = EDGE_CURVE('',#81,#179,#181,.T.);
#179 = VERTEX_POINT('',#180);
#180 = CARTESIAN_POINT('',(-0.5,-0.37,0.));
#181 = LINE('',#182,#183);
#182 = CARTESIAN_POINT('',(-0.8,-0.37,0.));
#183 = VECTOR('',#184,1.);
#184 = DIRECTION('',(1.,0.,0.));
#185 = ORIENTED_EDGE('',*,*,#186,.F.);
#186 = EDGE_CURVE('',#147,#179,#187,.T.);
#187 = CIRCLE('',#188,3.E-02);
#188 = AXIS2_PLACEMENT_3D('',#189,#190,#191);
#189 = CARTESIAN_POINT('',(-0.5,-0.37,3.E-02));
#190 = DIRECTION('',(1.,0.,-0.));
#191 = DIRECTION('',(0.,0.,1.));
#192 = ORIENTED_EDGE('',*,*,#156,.F.);
#193 = CYLINDRICAL_SURFACE('',#194,3.E-02);
#194 = AXIS2_PLACEMENT_3D('',#195,#196,#197);
#195 = CARTESIAN_POINT('',(-0.8,-0.37,3.E-02));
#196 = DIRECTION('',(1.,0.,0.));
#197 = DIRECTION('',(0.,-1.,0.));
#198 = ADVANCED_FACE('',(#199),#218,.T.);
#199 = FACE_BOUND('',#200,.T.);
#200 = EDGE_LOOP('',(#201,#202,#211,#217));
#201 = ORIENTED_EDGE('',*,*,#163,.T.);
#202 = ORIENTED_EDGE('',*,*,#203,.T.);
#203 = EDGE_CURVE('',#149,#204,#206,.T.);
#204 = VERTEX_POINT('',#205);
#205 = CARTESIAN_POINT('',(-0.5,-0.37,0.8));
#206 = CIRCLE('',#207,3.E-02);
#207 = AXIS2_PLACEMENT_3D('',#208,#209,#210);
#208 = CARTESIAN_POINT('',(-0.5,-0.37,0.77));
#209 = DIRECTION('',(-1.,0.,0.));
#210 = DIRECTION('',(0.,0.,1.));
#211 = ORIENTED_EDGE('',*,*,#212,.F.);
#212 = EDGE_CURVE('',#124,#204,#213,.T.);
#213 = LINE('',#214,#215);
#214 = CARTESIAN_POINT('',(-0.8,-0.37,0.8));
#215 = VECTOR('',#216,1.);
#216 = DIRECTION('',(1.,0.,0.));
#217 = ORIENTED_EDGE('',*,*,#131,.F.);
#218 = CYLINDRICAL_SURFACE('',#219,3.E-02);
#219 = AXIS2_PLACEMENT_3D('',#220,#221,#222);
#220 = CARTESIAN_POINT('',(-0.8,-0.37,0.77));
#221 = DIRECTION('',(1.,0.,0.));
#222 = DIRECTION('',(0.,-1.,0.));
#223 = ADVANCED_FACE('',(#224),#242,.F.);
#224 = FACE_BOUND('',#225,.F.);
#225 = EDGE_LOOP('',(#226,#227,#228,#236));
#226 = ORIENTED_EDGE('',*,*,#89,.F.);
#227 = ORIENTED_EDGE('',*,*,#178,.T.);
#228 = ORIENTED_EDGE('',*,*,#229,.T.);
#229 = EDGE_CURVE('',#179,#230,#232,.T.);
#230 = VERTEX_POINT('',#231);
#231 = CARTESIAN_POINT('',(-0.5,0.37,0.));
#232 = LINE('',#233,#234);
#233 = CARTESIAN_POINT('',(-0.5,-0.4,0.));
#234 = VECTOR('',#235,1.);
#235 = DIRECTION('',(0.,1.,0.));
#236 = ORIENTED_EDGE('',*,*,#237,.F.);
#237 = EDGE_CURVE('',#90,#230,#238,.T.);
#238 = LINE('',#239,#240);
#239 = CARTESIAN_POINT('',(-0.8,0.37,0.));
#240 = VECTOR('',#241,1.);
#241 = DIRECTION('',(1.,0.,0.));
#242 = PLANE('',#243);
#243 = AXIS2_PLACEMENT_3D('',#244,#245,#246);
#244 = CARTESIAN_POINT('',(-0.8,-0.4,0.));
#245 = DIRECTION('',(0.,0.,1.));
#246 = DIRECTION('',(1.,0.,-0.));
#247 = ADVANCED_FACE('',(#248),#266,.T.);
#248 = FACE_BOUND('',#249,.T.);
#249 = EDGE_LOOP('',(#250,#251,#252,#260));
#250 = ORIENTED_EDGE('',*,*,#123,.F.);
#251 = ORIENTED_EDGE('',*,*,#212,.T.);
#252 = ORIENTED_EDGE('',*,*,#253,.T.);
#253 = EDGE_CURVE('',#204,#254,#256,.T.);
#254 = VERTEX_POINT('',#255);
#255 = CARTESIAN_POINT('',(-0.5,0.37,0.8));
#256 = LINE('',#257,#258);
#257 = CARTESIAN_POINT('',(-0.5,-0.4,0.8));
#258 = VECTOR('',#259,1.);
#259 = DIRECTION('',(0.,1.,0.));
#260 = ORIENTED_EDGE('',*,*,#261,.F.);
#261 = EDGE_CURVE('',#115,#254,#262,.T.);
#262 = LINE('',#263,#264);
#263 = CARTESIAN_POINT('',(-0.8,0.37,0.8));
#264 = VECTOR('',#265,1.);
#265 = DIRECTION('',(1.,0.,0.));
#266 = PLANE('',#267);
#267 = AXIS2_PLACEMENT_3D('',#268,#269,#270);
#268 = CARTESIAN_POINT('',(-0.8,-0.4,0.8));
#269 = DIRECTION('',(0.,0.,1.));
#270 = DIRECTION('',(1.,0.,-0.));
#271 = ADVANCED_FACE('',(#272),#291,.T.);
#272 = FACE_BOUND('',#273,.T.);
#273 = EDGE_LOOP('',(#274,#282,#289,#290));
#274 = ORIENTED_EDGE('',*,*,#275,.T.);
#275 = EDGE_CURVE('',#98,#276,#278,.T.);
#276 = VERTEX_POINT('',#277);
#277 = CARTESIAN_POINT('',(-0.5,0.4,3.E-02));
#278 = LINE('',#279,#280);
#279 = CARTESIAN_POINT('',(-0.8,0.4,3.E-02));
#280 = VECTOR('',#281,1.);
#281 = DIRECTION('',(1.,0.,0.));
#282 = ORIENTED_EDGE('',*,*,#283,.T.);
#283 = EDGE_CURVE('',#276,#230,#284,.T.);
#284 = CIRCLE('',#285,3.E-02);
#285 = AXIS2_PLACEMENT_3D('',#286,#287,#288);
#286 = CARTESIAN_POINT('',(-0.5,0.37,3.E-02));
#287 = DIRECTION('',(-1.,0.,0.));
#288 = DIRECTION('',(0.,0.,1.));
#289 = ORIENTED_EDGE('',*,*,#237,.F.);
#290 = ORIENTED_EDGE('',*,*,#97,.F.);
#291 = CYLINDRICAL_SURFACE('',#292,3.E-02);
#292 = AXIS2_PLACEMENT_3D('',#293,#294,#295);
#293 = CARTESIAN_POINT('',(-0.8,0.37,3.E-02));
#294 = DIRECTION('',(1.,0.,0.));
#295 = DIRECTION('',(-0.,1.,0.));
#296 = ADVANCED_FACE('',(#297),#316,.T.);
#297 = FACE_BOUND('',#298,.T.);
#298 = EDGE_LOOP('',(#299,#300,#301,#310));
#299 = ORIENTED_EDGE('',*,*,#114,.T.);
#300 = ORIENTED_EDGE('',*,*,#261,.T.);
#301 = ORIENTED_EDGE('',*,*,#302,.F.);
#302 = EDGE_CURVE('',#303,#254,#305,.T.);
#303 = VERTEX_POINT('',#304);
#304 = CARTESIAN_POINT('',(-0.5,0.4,0.77));
#305 = CIRCLE('',#306,3.E-02);
#306 = AXIS2_PLACEMENT_3D('',#307,#308,#309);
#307 = CARTESIAN_POINT('',(-0.5,0.37,0.77));
#308 = DIRECTION('',(1.,0.,-0.));
#309 = DIRECTION('',(0.,0.,1.));
#310 = ORIENTED_EDGE('',*,*,#311,.F.);
#311 = EDGE_CURVE('',#107,#303,#312,.T.);
#312 = LINE('',#313,#314);
#313 = CARTESIAN_POINT('',(-0.8,0.4,0.77));
#314 = VECTOR('',#315,1.);
#315 = DIRECTION('',(1.,0.,0.));
#316 = CYLINDRICAL_SURFACE('',#317,3.E-02);
#317 = AXIS2_PLACEMENT_3D('',#318,#319,#320);
#318 = CARTESIAN_POINT('',(-0.8,0.37,0.77));
#319 = DIRECTION('',(1.,0.,0.));
#320 = DIRECTION('',(-0.,1.,0.));
#321 = ADVANCED_FACE('',(#322),#333,.T.);
#322 = FACE_BOUND('',#323,.T.);
#323 = EDGE_LOOP('',(#324,#330,#331,#332));
#324 = ORIENTED_EDGE('',*,*,#325,.F.);
#325 = EDGE_CURVE('',#276,#303,#326,.T.);
#326 = LINE('',#327,#328);
#327 = CARTESIAN_POINT('',(-0.5,0.4,0.));
#328 = VECTOR('',#329,1.);
#329 = DIRECTION('',(0.,0.,1.));
#330 = ORIENTED_EDGE('',*,*,#275,.F.);
#331 = ORIENTED_EDGE('',*,*,#106,.T.);
#332 = ORIENTED_EDGE('',*,*,#311,.T.);
#333 = PLANE('',#334);
#334 = AXIS2_PLACEMENT_3D('',#335,#336,#337);
#335 = CARTESIAN_POINT('',(-0.8,0.4,0.));
#336 = DIRECTION('',(0.,1.,0.));
#337 = DIRECTION('',(0.,-0.,1.));
#338 = ADVANCED_FACE('',(#339,#349),#419,.T.);
#339 = FACE_BOUND('',#340,.T.);
#340 = EDGE_LOOP('',(#341,#342,#343,#344,#345,#346,#347,#348));
#341 = ORIENTED_EDGE('',*,*,#146,.F.);
#342 = ORIENTED_EDGE('',*,*,#186,.T.);
#343 = ORIENTED_EDGE('',*,*,#229,.T.);
#344 = ORIENTED_EDGE('',*,*,#283,.F.);
#345 = ORIENTED_EDGE('',*,*,#325,.T.);
#346 = ORIENTED_EDGE('',*,*,#302,.T.);
#347 = ORIENTED_EDGE('',*,*,#253,.F.);
#348 = ORIENTED_EDGE('',*,*,#203,.F.);
#349 = FACE_BOUND('',#350,.T.);
#350 = EDGE_LOOP('',(#351,#362,#370,#379,#387,#396,#404,#413));
#351 = ORIENTED_EDGE('',*,*,#352,.F.);
#352 = EDGE_CURVE('',#353,#355,#357,.T.);
#353 = VERTEX_POINT('',#354);
#354 = CARTESIAN_POINT('',(-0.5,-0.37,6.E-02));
#355 = VERTEX_POINT('',#356);
#356 = CARTESIAN_POINT('',(-0.5,-0.34,3.E-02));
#357 = CIRCLE('',#358,3.E-02);
#358 = AXIS2_PLACEMENT_3D('',#359,#360,#361);
#359 = CARTESIAN_POINT('',(-0.5,-0.34,6.E-02));
#360 = DIRECTION('',(1.,0.,-0.));
#361 = DIRECTION('',(0.,0.,1.));
#362 = ORIENTED_EDGE('',*,*,#363,.T.);
#363 = EDGE_CURVE('',#353,#364,#366,.T.);
#364 = VERTEX_POINT('',#365);
#365 = CARTESIAN_POINT('',(-0.5,-0.37,0.74));
#366 = LINE('',#367,#368);
#367 = CARTESIAN_POINT('',(-0.5,-0.37,3.E-02));
#368 = VECTOR('',#369,1.);
#369 = DIRECTION('',(0.,0.,1.));
#370 = ORIENTED_EDGE('',*,*,#371,.T.);
#371 = EDGE_CURVE('',#364,#372,#374,.T.);
#372 = VERTEX_POINT('',#373);
#373 = CARTESIAN_POINT('',(-0.5,-0.34,0.77));
#374 = CIRCLE('',#375,3.E-02);
#375 = AXIS2_PLACEMENT_3D('',#376,#377,#378);
#376 = CARTESIAN_POINT('',(-0.5,-0.34,0.74));
#377 = DIRECTION('',(-1.,0.,0.));
#378 = DIRECTION('',(0.,0.,1.));
#379 = ORIENTED_EDGE('',*,*,#380,.T.);
#380 = EDGE_CURVE('',#372,#381,#383,.T.);
#381 = VERTEX_POINT('',#382);
#382 = CARTESIAN_POINT('',(-0.5,0.34,0.77));
#383 = LINE('',#384,#385);
#384 = CARTESIAN_POINT('',(-0.5,-0.37,0.77));
#385 = VECTOR('',#386,1.);
#386 = DIRECTION('',(0.,1.,0.));
#387 = ORIENTED_EDGE('',*,*,#388,.F.);
#388 = EDGE_CURVE('',#389,#381,#391,.T.);
#389 = VERTEX_POINT('',#390);
#390 = CARTESIAN_POINT('',(-0.5,0.37,0.74));
#391 = CIRCLE('',#392,3.E-02);
#392 = AXIS2_PLACEMENT_3D('',#393,#394,#395);
#393 = CARTESIAN_POINT('',(-0.5,0.34,0.74));
#394 = DIRECTION('',(1.,0.,-0.));
#395 = DIRECTION('',(0.,0.,1.));
#396 = ORIENTED_EDGE('',*,*,#397,.F.);
#397 = EDGE_CURVE('',#398,#389,#400,.T.);
#398 = VERTEX_POINT('',#399);
#399 = CARTESIAN_POINT('',(-0.5,0.37,6.E-02));
#400 = LINE('',#401,#402);
#401 = CARTESIAN_POINT('',(-0.5,0.37,3.E-02));
#402 = VECTOR('',#403,1.);
#403 = DIRECTION('',(0.,0.,1.));
#404 = ORIENTED_EDGE('',*,*,#405,.T.);
#405 = EDGE_CURVE('',#398,#406,#408,.T.);
#406 = VERTEX_POINT('',#407);
#407 = CARTESIAN_POINT('',(-0.5,0.34,3.E-02));
#408 = CIRCLE('',#409,3.E-02);
#409 = AXIS2_PLACEMENT_3D('',#410,#411,#412);
#410 = CARTESIAN_POINT('',(-0.5,0.34,6.E-02));
#411 = DIRECTION('',(-1.,0.,0.));
#412 = DIRECTION('',(0.,0.,1.));
#413 = ORIENTED_EDGE('',*,*,#414,.F.);
#414 = EDGE_CURVE('',#355,#406,#415,.T.);
#415 = LINE('',#416,#417);
#416 = CARTESIAN_POINT('',(-0.5,-0.37,3.E-02));
#417 = VECTOR('',#418,1.);
#418 = DIRECTION('',(0.,1.,0.));
#419 = PLANE('',#420);
#420 = AXIS2_PLACEMENT_3D('',#421,#422,#423);
#421 = CARTESIAN_POINT('',(-0.5,-0.4,0.));
#422 = DIRECTION('',(1.,0.,0.));
#423 = DIRECTION('',(0.,0.,1.));
#424 = ADVANCED_FACE('',(#425),#451,.T.);
#425 = FACE_BOUND('',#426,.T.);
#426 = EDGE_LOOP('',(#427,#428,#436,#445));
#427 = ORIENTED_EDGE('',*,*,#352,.T.);
#428 = ORIENTED_EDGE('',*,*,#429,.T.);
#429 = EDGE_CURVE('',#355,#430,#432,.T.);
#430 = VERTEX_POINT('',#431);
#431 = CARTESIAN_POINT('',(0.5,-0.34,3.E-02));
#432 = LINE('',#433,#434);
#433 = CARTESIAN_POINT('',(-0.5,-0.34,3.E-02));
#434 = VECTOR('',#435,1.);
#435 = DIRECTION('',(1.,0.,0.));
#436 = ORIENTED_EDGE('',*,*,#437,.F.);
#437 = EDGE_CURVE('',#438,#430,#440,.T.);
#438 = VERTEX_POINT('',#439);
#439 = CARTESIAN_POINT('',(0.5,-0.37,6.E-02));
#440 = CIRCLE('',#441,3.E-02);
#441 = AXIS2_PLACEMENT_3D('',#442,#443,#444);
#442 = CARTESIAN_POINT('',(0.5,-0.34,6.E-02));
#443 = DIRECTION('',(1.,0.,-0.));
#444 = DIRECTION('',(0.,0.,1.));
#445 = ORIENTED_EDGE('',*,*,#446,.F.);
#446 = EDGE_CURVE('',#353,#438,#447,.T.);
#447 = LINE('',#448,#449);
#448 = CARTESIAN_POINT('',(-0.5,-0.37,6.E-02));
#449 = VECTOR('',#450,1.);
#450 = DIRECTION('',(1.,0.,0.));
#451 = CYLINDRICAL_SURFACE('',#452,3.E-02);
#452 = AXIS2_PLACEMENT_3D('',#453,#454,#455);
#453 = CARTESIAN_POINT('',(-0.5,-0.34,6.E-02));
#454 = DIRECTION('',(1.,0.,0.));
#455 = DIRECTION('',(0.,-1.,0.));
#456 = ADVANCED_FACE('',(#457),#475,.F.);
#457 = FACE_BOUND('',#458,.F.);
#458 = EDGE_LOOP('',(#459,#460,#461,#469));
#459 = ORIENTED_EDGE('',*,*,#414,.F.);
#460 = ORIENTED_EDGE('',*,*,#429,.T.);
#461 = ORIENTED_EDGE('',*,*,#462,.T.);
#462 = EDGE_CURVE('',#430,#463,#465,.T.);
#463 = VERTEX_POINT('',#464);
#464 = CARTESIAN_POINT('',(0.5,0.34,3.E-02));
#465 = LINE('',#466,#467);
#466 = CARTESIAN_POINT('',(0.5,-0.37,3.E-02));
#467 = VECTOR('',#468,1.);
#468 = DIRECTION('',(0.,1.,0.));
#469 = ORIENTED_EDGE('',*,*,#470,.F.);
#470 = EDGE_CURVE('',#406,#463,#471,.T.);
#471 = LINE('',#472,#473);
#472 = CARTESIAN_POINT('',(-0.5,0.34,3.E-02));
#473 = VECTOR('',#474,1.);
#474 = DIRECTION('',(1.,0.,0.));
#475 = PLANE('',#476);
#476 = AXIS2_PLACEMENT_3D('',#477,#478,#479);
#477 = CARTESIAN_POINT('',(-0.5,-0.37,3.E-02));
#478 = DIRECTION('',(0.,0.,1.));
#479 = DIRECTION('',(1.,0.,-0.));
#480 = ADVANCED_FACE('',(#481),#500,.T.);
#481 = FACE_BOUND('',#482,.T.);
#482 = EDGE_LOOP('',(#483,#491,#498,#499));
#483 = ORIENTED_EDGE('',*,*,#484,.T.);
#484 = EDGE_CURVE('',#398,#485,#487,.T.);
#485 = VERTEX_POINT('',#486);
#486 = CARTESIAN_POINT('',(0.5,0.37,6.E-02));
#487 = LINE('',#488,#489);
#488 = CARTESIAN_POINT('',(-0.5,0.37,6.E-02));
#489 = VECTOR('',#490,1.);
#490 = DIRECTION('',(1.,0.,0.));
#491 = ORIENTED_EDGE('',*,*,#492,.T.);
#492 = EDGE_CURVE('',#485,#463,#493,.T.);
#493 = CIRCLE('',#494,3.E-02);
#494 = AXIS2_PLACEMENT_3D('',#495,#496,#497);
#495 = CARTESIAN_POINT('',(0.5,0.34,6.E-02));
#496 = DIRECTION('',(-1.,0.,0.));
#497 = DIRECTION('',(0.,0.,1.));
#498 = ORIENTED_EDGE('',*,*,#470,.F.);
#499 = ORIENTED_EDGE('',*,*,#405,.F.);
#500 = CYLINDRICAL_SURFACE('',#501,3.E-02);
#501 = AXIS2_PLACEMENT_3D('',#502,#503,#504);
#502 = CARTESIAN_POINT('',(-0.5,0.34,6.E-02));
#503 = DIRECTION('',(1.,0.,0.));
#504 = DIRECTION('',(-0.,1.,0.));
#505 = ADVANCED_FACE('',(#506),#524,.T.);
#506 = FACE_BOUND('',#507,.T.);
#507 = EDGE_LOOP('',(#508,#516,#517,#518));
#508 = ORIENTED_EDGE('',*,*,#509,.F.);
#509 = EDGE_CURVE('',#485,#510,#512,.T.);
#510 = VERTEX_POINT('',#511);
#511 = CARTESIAN_POINT('',(0.5,0.37,0.74));
#512 = LINE('',#513,#514);
#513 = CARTESIAN_POINT('',(0.5,0.37,3.E-02));
#514 = VECTOR('',#515,1.);
#515 = DIRECTION('',(0.,0.,1.));
#516 = ORIENTED_EDGE('',*,*,#484,.F.);
#517 = ORIENTED_EDGE('',*,*,#397,.T.);
#518 = ORIENTED_EDGE('',*,*,#519,.T.);
#519 = EDGE_CURVE('',#389,#510,#520,.T.);
#520 = LINE('',#521,#522);
#521 = CARTESIAN_POINT('',(-0.5,0.37,0.74));
#522 = VECTOR('',#523,1.);
#523 = DIRECTION('',(1.,0.,0.));
#524 = PLANE('',#525);
#525 = AXIS2_PLACEMENT_3D('',#526,#527,#528);
#526 = CARTESIAN_POINT('',(-0.5,0.37,3.E-02));
#527 = DIRECTION('',(0.,1.,0.));
#528 = DIRECTION('',(0.,-0.,1.));
#529 = ADVANCED_FACE('',(#530),#549,.T.);
#530 = FACE_BOUND('',#531,.T.);
#531 = EDGE_LOOP('',(#532,#533,#541,#548));
#532 = ORIENTED_EDGE('',*,*,#388,.T.);
#533 = ORIENTED_EDGE('',*,*,#534,.T.);
#534 = EDGE_CURVE('',#381,#535,#537,.T.);
#535 = VERTEX_POINT('',#536);
#536 = CARTESIAN_POINT('',(0.5,0.34,0.77));
#537 = LINE('',#538,#539);
#538 = CARTESIAN_POINT('',(-0.5,0.34,0.77));
#539 = VECTOR('',#540,1.);
#540 = DIRECTION('',(1.,0.,0.));
#541 = ORIENTED_EDGE('',*,*,#542,.F.);
#542 = EDGE_CURVE('',#510,#535,#543,.T.);
#543 = CIRCLE('',#544,3.E-02);
#544 = AXIS2_PLACEMENT_3D('',#545,#546,#547);
#545 = CARTESIAN_POINT('',(0.5,0.34,0.74));
#546 = DIRECTION('',(1.,0.,-0.));
#547 = DIRECTION('',(0.,0.,1.));
#548 = ORIENTED_EDGE('',*,*,#519,.F.);
#549 = CYLINDRICAL_SURFACE('',#550,3.E-02);
#550 = AXIS2_PLACEMENT_3D('',#551,#552,#553);
#551 = CARTESIAN_POINT('',(-0.5,0.34,0.74));
#552 = DIRECTION('',(1.,0.,0.));
#553 = DIRECTION('',(-0.,1.,0.));
#554 = ADVANCED_FACE('',(#555),#573,.T.);
#555 = FACE_BOUND('',#556,.T.);
#556 = EDGE_LOOP('',(#557,#558,#566,#572));
#557 = ORIENTED_EDGE('',*,*,#380,.F.);
#558 = ORIENTED_EDGE('',*,*,#559,.T.);
#559 = EDGE_CURVE('',#372,#560,#562,.T.);
#560 = VERTEX_POINT('',#561);
#561 = CARTESIAN_POINT('',(0.5,-0.34,0.77));
#562 = LINE('',#563,#564);
#563 = CARTESIAN_POINT('',(-0.5,-0.34,0.77));
#564 = VECTOR('',#565,1.);
#565 = DIRECTION('',(1.,0.,0.));
#566 = ORIENTED_EDGE('',*,*,#567,.T.);
#567 = EDGE_CURVE('',#560,#535,#568,.T.);
#568 = LINE('',#569,#570);
#569 = CARTESIAN_POINT('',(0.5,-0.37,0.77));
#570 = VECTOR('',#571,1.);
#571 = DIRECTION('',(0.,1.,0.));
#572 = ORIENTED_EDGE('',*,*,#534,.F.);
#573 = PLANE('',#574);
#574 = AXIS2_PLACEMENT_3D('',#575,#576,#577);
#575 = CARTESIAN_POINT('',(-0.5,-0.37,0.77));
#576 = DIRECTION('',(0.,0.,1.));
#577 = DIRECTION('',(1.,0.,-0.));
#578 = ADVANCED_FACE('',(#579),#598,.T.);
#579 = FACE_BOUND('',#580,.T.);
#580 = EDGE_LOOP('',(#581,#589,#596,#597));
#581 = ORIENTED_EDGE('',*,*,#582,.T.);
#582 = EDGE_CURVE('',#364,#583,#585,.T.);
#583 = VERTEX_POINT('',#584);
#584 = CARTESIAN_POINT('',(0.5,-0.37,0.74));
#585 = LINE('',#586,#587);
#586 = CARTESIAN_POINT('',(-0.5,-0.37,0.74));
#587 = VECTOR('',#588,1.);
#588 = DIRECTION('',(1.,0.,0.));
#589 = ORIENTED_EDGE('',*,*,#590,.T.);
#590 = EDGE_CURVE('',#583,#560,#591,.T.);
#591 = CIRCLE('',#592,3.E-02);
#592 = AXIS2_PLACEMENT_3D('',#593,#594,#595);
#593 = CARTESIAN_POINT('',(0.5,-0.34,0.74));
#594 = DIRECTION('',(-1.,0.,0.));
#595 = DIRECTION('',(0.,0.,1.));
#596 = ORIENTED_EDGE('',*,*,#559,.F.);
#597 = ORIENTED_EDGE('',*,*,#371,.F.);
#598 = CYLINDRICAL_SURFACE('',#599,3.E-02);
#599 = AXIS2_PLACEMENT_3D('',#600,#601,#602);
#600 = CARTESIAN_POINT('',(-0.5,-0.34,0.74));
#601 = DIRECTION('',(1.,0.,0.));
#602 = DIRECTION('',(0.,-1.,0.));
#603 = ADVANCED_FACE('',(#604),#615,.F.);
#604 = FACE_BOUND('',#605,.F.);
#605 = EDGE_LOOP('',(#606,#612,#613,#614));
#606 = ORIENTED_EDGE('',*,*,#607,.F.);
#607 = EDGE_CURVE('',#438,#583,#608,.T.);
#608 = LINE('',#609,#610);
#609 = CARTESIAN_POINT('',(0.5,-0.37,3.E-02));
#610 = VECTOR('',#611,1.);
#611 = DIRECTION('',(0.,0.,1.));
#612 = ORIENTED_EDGE('',*,*,#446,.F.);
#613 = ORIENTED_EDGE('',*,*,#363,.T.);
#614 = ORIENTED_EDGE('',*,*,#582,.T.);
#615 = PLANE('',#616);
#616 = AXIS2_PLACEMENT_3D('',#617,#618,#619);
#617 = CARTESIAN_POINT('',(-0.5,-0.37,3.E-02));
#618 = DIRECTION('',(0.,1.,0.));
#619 = DIRECTION('',(0.,-0.,1.));
#620 = ADVANCED_FACE('',(#621,#691),#701,.F.);
#621 = FACE_BOUND('',#622,.F.);
#622 = EDGE_LOOP('',(#623,#633,#642,#650,#659,#667,#676,#684));
#623 = ORIENTED_EDGE('',*,*,#624,.F.);
#624 = EDGE_CURVE('',#625,#627,#629,.T.);
#625 = VERTEX_POINT('',#626);
#626 = CARTESIAN_POINT('',(0.5,-0.4,3.E-02));
#627 = VERTEX_POINT('',#628);
#628 = CARTESIAN_POINT('',(0.5,-0.4,0.77));
#629 = LINE('',#630,#631);
#630 = CARTESIAN_POINT('',(0.5,-0.4,0.));
#631 = VECTOR('',#632,1.);
#632 = DIRECTION('',(0.,0.,1.));
#633 = ORIENTED_EDGE('',*,*,#634,.T.);
#634 = EDGE_CURVE('',#625,#635,#637,.T.);
#635 = VERTEX_POINT('',#636);
#636 = CARTESIAN_POINT('',(0.5,-0.37,0.));
#637 = CIRCLE('',#638,3.E-02);
#638 = AXIS2_PLACEMENT_3D('',#639,#640,#641);
#639 = CARTESIAN_POINT('',(0.5,-0.37,3.E-02));
#640 = DIRECTION('',(1.,0.,-0.));
#641 = DIRECTION('',(0.,0.,1.));
#642 = ORIENTED_EDGE('',*,*,#643,.T.);
#643 = EDGE_CURVE('',#635,#644,#646,.T.);
#644 = VERTEX_POINT('',#645);
#645 = CARTESIAN_POINT('',(0.5,0.37,0.));
#646 = LINE('',#647,#648);
#647 = CARTESIAN_POINT('',(0.5,-0.4,0.));
#648 = VECTOR('',#649,1.);
#649 = DIRECTION('',(0.,1.,0.));
#650 = ORIENTED_EDGE('',*,*,#651,.F.);
#651 = EDGE_CURVE('',#652,#644,#654,.T.);
#652 = VERTEX_POINT('',#653);
#653 = CARTESIAN_POINT('',(0.5,0.4,3.E-02));
#654 = CIRCLE('',#655,3.E-02);
#655 = AXIS2_PLACEMENT_3D('',#656,#657,#658);
#656 = CARTESIAN_POINT('',(0.5,0.37,3.E-02));
#657 = DIRECTION('',(-1.,0.,0.));
#658 = DIRECTION('',(0.,0.,1.));
#659 = ORIENTED_EDGE('',*,*,#660,.T.);
#660 = EDGE_CURVE('',#652,#661,#663,.T.);
#661 = VERTEX_POINT('',#662);
#662 = CARTESIAN_POINT('',(0.5,0.4,0.77));
#663 = LINE('',#664,#665);
#664 = CARTESIAN_POINT('',(0.5,0.4,0.));
#665 = VECTOR('',#666,1.);
#666 = DIRECTION('',(0.,0.,1.));
#667 = ORIENTED_EDGE('',*,*,#668,.T.);
#668 = EDGE_CURVE('',#661,#669,#671,.T.);
#669 = VERTEX_POINT('',#670);
#670 = CARTESIAN_POINT('',(0.5,0.37,0.8));
#671 = CIRCLE('',#672,3.E-02);
#672 = AXIS2_PLACEMENT_3D('',#673,#674,#675);
#673 = CARTESIAN_POINT('',(0.5,0.37,0.77));
#674 = DIRECTION('',(1.,0.,-0.));
#675 = DIRECTION('',(0.,0.,1.));
#676 = ORIENTED_EDGE('',*,*,#677,.F.);
#677 = EDGE_CURVE('',#678,#669,#680,.T.);
#678 = VERTEX_POINT('',#679);
#679 = CARTESIAN_POINT('',(0.5,-0.37,0.8));
#680 = LINE('',#681,#682);
#681 = CARTESIAN_POINT('',(0.5,-0.4,0.8));
#682 = VECTOR('',#683,1.);
#683 = DIRECTION('',(0.,1.,0.));
#684 = ORIENTED_EDGE('',*,*,#685,.F.);
#685 = EDGE_CURVE('',#627,#678,#686,.T.);
#686 = CIRCLE('',#687,3.E-02);
#687 = AXIS2_PLACEMENT_3D('',#688,#689,#690);
#688 = CARTESIAN_POINT('',(0.5,-0.37,0.77));
#689 = DIRECTION('',(-1.,0.,0.));
#690 = DIRECTION('',(0.,0.,1.));
#691 = FACE_BOUND('',#692,.F.);
#692 = EDGE_LOOP('',(#693,#694,#695,#696,#697,#698,#699,#700));
#693 = ORIENTED_EDGE('',*,*,#437,.F.);
#694 = ORIENTED_EDGE('',*,*,#607,.T.);
#695 = ORIENTED_EDGE('',*,*,#590,.T.);
#696 = ORIENTED_EDGE('',*,*,#567,.T.);
#697 = ORIENTED_EDGE('',*,*,#542,.F.);
#698 = ORIENTED_EDGE('',*,*,#509,.F.);
#699 = ORIENTED_EDGE('',*,*,#492,.T.);
#700 = ORIENTED_EDGE('',*,*,#462,.F.);
#701 = PLANE('',#702);
#702 = AXIS2_PLACEMENT_3D('',#703,#704,#705);
#703 = CARTESIAN_POINT('',(0.5,-0.4,0.));
#704 = DIRECTION('',(1.,0.,0.));
#705 = DIRECTION('',(0.,0.,1.));
#706 = ADVANCED_FACE('',(#707),#732,.F.);
#707 = FACE_BOUND('',#708,.F.);
#708 = EDGE_LOOP('',(#709,#719,#725,#726));
#709 = ORIENTED_EDGE('',*,*,#710,.F.);
#710 = EDGE_CURVE('',#711,#713,#715,.T.);
#711 = VERTEX_POINT('',#712);
#712 = CARTESIAN_POINT('',(0.8,-0.4,3.E-02));
#713 = VERTEX_POINT('',#714);
#714 = CARTESIAN_POINT('',(0.8,-0.4,0.77));
#715 = LINE('',#716,#717);
#716 = CARTESIAN_POINT('',(0.8,-0.4,0.));
#717 = VECTOR('',#718,1.);
#718 = DIRECTION('',(0.,0.,1.));
#719 = ORIENTED_EDGE('',*,*,#720,.F.);
#720 = EDGE_CURVE('',#625,#711,#721,.T.);
#721 = LINE('',#722,#723);
#722 = CARTESIAN_POINT('',(0.5,-0.4,3.E-02));
#723 = VECTOR('',#724,1.);
#724 = DIRECTION('',(1.,0.,0.));
#725 = ORIENTED_EDGE('',*,*,#624,.T.);
#726 = ORIENTED_EDGE('',*,*,#727,.T.);
#727 = EDGE_CURVE('',#627,#713,#728,.T.);
#728 = LINE('',#729,#730);
#729 = CARTESIAN_POINT('',(0.5,-0.4,0.77));
#730 = VECTOR('',#731,1.);
#731 = DIRECTION('',(1.,0.,0.));
#732 = PLANE('',#733);
#733 = AXIS2_PLACEMENT_3D('',#734,#735,#736);
#734 = CARTESIAN_POINT('',(0.5,-0.4,0.));
#735 = DIRECTION('',(0.,1.,0.));
#736 = DIRECTION('',(0.,-0.,1.));
#737 = ADVANCED_FACE('',(#738),#757,.T.);
#738 = FACE_BOUND('',#739,.T.);
#739 = EDGE_LOOP('',(#740,#741,#749,#756));
#740 = ORIENTED_EDGE('',*,*,#634,.T.);
#741 = ORIENTED_EDGE('',*,*,#742,.T.);
#742 = EDGE_CURVE('',#635,#743,#745,.T.);
#743 = VERTEX_POINT('',#744);
#744 = CARTESIAN_POINT('',(0.8,-0.37,0.));
#745 = LINE('',#746,#747);
#746 = CARTESIAN_POINT('',(0.5,-0.37,0.));
#747 = VECTOR('',#748,1.);
#748 = DIRECTION('',(1.,0.,0.));
#749 = ORIENTED_EDGE('',*,*,#750,.F.);
#750 = EDGE_CURVE('',#711,#743,#751,.T.);
#751 = CIRCLE('',#752,3.E-02);
#752 = AXIS2_PLACEMENT_3D('',#753,#754,#755);
#753 = CARTESIAN_POINT('',(0.8,-0.37,3.E-02));
#754 = DIRECTION('',(1.,0.,-0.));
#755 = DIRECTION('',(0.,0.,1.));
#756 = ORIENTED_EDGE('',*,*,#720,.F.);
#757 = CYLINDRICAL_SURFACE('',#758,3.E-02);
#758 = AXIS2_PLACEMENT_3D('',#759,#760,#761);
#759 = CARTESIAN_POINT('',(0.5,-0.37,3.E-02));
#760 = DIRECTION('',(1.,0.,0.));
#761 = DIRECTION('',(0.,-1.,0.));
#762 = ADVANCED_FACE('',(#763),#782,.T.);
#763 = FACE_BOUND('',#764,.T.);
#764 = EDGE_LOOP('',(#765,#766,#775,#781));
#765 = ORIENTED_EDGE('',*,*,#727,.T.);
#766 = ORIENTED_EDGE('',*,*,#767,.T.);
#767 = EDGE_CURVE('',#713,#768,#770,.T.);
#768 = VERTEX_POINT('',#769);
#769 = CARTESIAN_POINT('',(0.8,-0.37,0.8));
#770 = CIRCLE('',#771,3.E-02);
#771 = AXIS2_PLACEMENT_3D('',#772,#773,#774);
#772 = CARTESIAN_POINT('',(0.8,-0.37,0.77));
#773 = DIRECTION('',(-1.,0.,0.));
#774 = DIRECTION('',(0.,0.,1.));
#775 = ORIENTED_EDGE('',*,*,#776,.F.);
#776 = EDGE_CURVE('',#678,#768,#777,.T.);
#777 = LINE('',#778,#779);
#778 = CARTESIAN_POINT('',(0.5,-0.37,0.8));
#779 = VECTOR('',#780,1.);
#780 = DIRECTION('',(1.,0.,0.));
#781 = ORIENTED_EDGE('',*,*,#685,.F.);
#782 = CYLINDRICAL_SURFACE('',#783,3.E-02);
#783 = AXIS2_PLACEMENT_3D('',#784,#785,#786);
#784 = CARTESIAN_POINT('',(0.5,-0.37,0.77));
#785 = DIRECTION('',(1.,0.,0.));
#786 = DIRECTION('',(0.,-1.,0.));
#787 = ADVANCED_FACE('',(#788),#806,.F.);
#788 = FACE_BOUND('',#789,.F.);
#789 = EDGE_LOOP('',(#790,#791,#792,#800));
#790 = ORIENTED_EDGE('',*,*,#643,.F.);
#791 = ORIENTED_EDGE('',*,*,#742,.T.);
#792 = ORIENTED_EDGE('',*,*,#793,.T.);
#793 = EDGE_CURVE('',#743,#794,#796,.T.);
#794 = VERTEX_POINT('',#795);
#795 = CARTESIAN_POINT('',(0.8,0.37,0.));
#796 = LINE('',#797,#798);
#797 = CARTESIAN_POINT('',(0.8,-0.4,0.));
#798 = VECTOR('',#799,1.);
#799 = DIRECTION('',(0.,1.,0.));
#800 = ORIENTED_EDGE('',*,*,#801,.F.);
#801 = EDGE_CURVE('',#644,#794,#802,.T.);
#802 = LINE('',#803,#804);
#803 = CARTESIAN_POINT('',(0.5,0.37,0.));
#804 = VECTOR('',#805,1.);
#805 = DIRECTION('',(1.,0.,0.));
#806 = PLANE('',#807);
#807 = AXIS2_PLACEMENT_3D('',#808,#809,#810);
#808 = CARTESIAN_POINT('',(0.5,-0.4,0.));
#809 = DIRECTION('',(0.,0.,1.));
#810 = DIRECTION('',(1.,0.,-0.));
#811 = ADVANCED_FACE('',(#812),#830,.T.);
#812 = FACE_BOUND('',#813,.T.);
#813 = EDGE_LOOP('',(#814,#815,#816,#824));
#814 = ORIENTED_EDGE('',*,*,#677,.F.);
#815 = ORIENTED_EDGE('',*,*,#776,.T.);
#816 = ORIENTED_EDGE('',*,*,#817,.T.);
#817 = EDGE_CURVE('',#768,#818,#820,.T.);
#818 = VERTEX_POINT('',#819);
#819 = CARTESIAN_POINT('',(0.8,0.37,0.8));
#820 = LINE('',#821,#822);
#821 = CARTESIAN_POINT('',(0.8,-0.4,0.8));
#822 = VECTOR('',#823,1.);
#823 = DIRECTION('',(0.,1.,0.));
#824 = ORIENTED_EDGE('',*,*,#825,.F.);
#825 = EDGE_CURVE('',#669,#818,#826,.T.);
#826 = LINE('',#827,#828);
#827 = CARTESIAN_POINT('',(0.5,0.37,0.8));
#828 = VECTOR('',#829,1.);
#829 = DIRECTION('',(1.,0.,0.));
#830 = PLANE('',#831);
#831 = AXIS2_PLACEMENT_3D('',#832,#833,#834);
#832 = CARTESIAN_POINT('',(0.5,-0.4,0.8));
#833 = DIRECTION('',(0.,0.,1.));
#834 = DIRECTION('',(1.,0.,-0.));
#835 = ADVANCED_FACE('',(#836),#855,.T.);
#836 = FACE_BOUND('',#837,.T.);
#837 = EDGE_LOOP('',(#838,#846,#853,#854));
#838 = ORIENTED_EDGE('',*,*,#839,.T.);
#839 = EDGE_CURVE('',#652,#840,#842,.T.);
#840 = VERTEX_POINT('',#841);
#841 = CARTESIAN_POINT('',(0.8,0.4,3.E-02));
#842 = LINE('',#843,#844);
#843 = CARTESIAN_POINT('',(0.5,0.4,3.E-02));
#844 = VECTOR('',#845,1.);
#845 = DIRECTION('',(1.,0.,0.));
#846 = ORIENTED_EDGE('',*,*,#847,.T.);
#847 = EDGE_CURVE('',#840,#794,#848,.T.);
#848 = CIRCLE('',#849,3.E-02);
#849 = AXIS2_PLACEMENT_3D('',#850,#851,#852);
#850 = CARTESIAN_POINT('',(0.8,0.37,3.E-02));
#851 = DIRECTION('',(-1.,0.,0.));
#852 = DIRECTION('',(0.,0.,1.));
#853 = ORIENTED_EDGE('',*,*,#801,.F.);
#854 = ORIENTED_EDGE('',*,*,#651,.F.);
#855 = CYLINDRICAL_SURFACE('',#856,3.E-02);
#856 = AXIS2_PLACEMENT_3D('',#857,#858,#859);
#857 = CARTESIAN_POINT('',(0.5,0.37,3.E-02));
#858 = DIRECTION('',(1.,0.,0.));
#859 = DIRECTION('',(-0.,1.,0.));
#860 = ADVANCED_FACE('',(#861),#880,.T.);
#861 = FACE_BOUND('',#862,.T.);
#862 = EDGE_LOOP('',(#863,#864,#865,#874));
#863 = ORIENTED_EDGE('',*,*,#668,.T.);
#864 = ORIENTED_EDGE('',*,*,#825,.T.);
#865 = ORIENTED_EDGE('',*,*,#866,.F.);
#866 = EDGE_CURVE('',#867,#818,#869,.T.);
#867 = VERTEX_POINT('',#868);
#868 = CARTESIAN_POINT('',(0.8,0.4,0.77));
#869 = CIRCLE('',#870,3.E-02);
#870 = AXIS2_PLACEMENT_3D('',#871,#872,#873);
#871 = CARTESIAN_POINT('',(0.8,0.37,0.77));
#872 = DIRECTION('',(1.,0.,-0.));
#873 = DIRECTION('',(0.,0.,1.));
#874 = ORIENTED_EDGE('',*,*,#875,.F.);
#875 = EDGE_CURVE('',#661,#867,#876,.T.);
#876 = LINE('',#877,#878);
#877 = CARTESIAN_POINT('',(0.5,0.4,0.77));
#878 = VECTOR('',#879,1.);
#879 = DIRECTION('',(1.,0.,0.));
#880 = CYLINDRICAL_SURFACE('',#881,3.E-02);
#881 = AXIS2_PLACEMENT_3D('',#882,#883,#884);
#882 = CARTESIAN_POINT('',(0.5,0.37,0.77));
#883 = DIRECTION('',(1.,0.,0.));
#884 = DIRECTION('',(-0.,1.,0.));
#885 = ADVANCED_FACE('',(#886),#897,.T.);
#886 = FACE_BOUND('',#887,.T.);
#887 = EDGE_LOOP('',(#888,#894,#895,#896));
#888 = ORIENTED_EDGE('',*,*,#889,.F.);
#889 = EDGE_CURVE('',#840,#867,#890,.T.);
#890 = LINE('',#891,#892);
#891 = CARTESIAN_POINT('',(0.8,0.4,0.));
#892 = VECTOR('',#893,1.);
#893 = DIRECTION('',(0.,0.,1.));
#894 = ORIENTED_EDGE('',*,*,#839,.F.);
#895 = ORIENTED_EDGE('',*,*,#660,.T.);
#896 = ORIENTED_EDGE('',*,*,#875,.T.);
#897 = PLANE('',#898);
#898 = AXIS2_PLACEMENT_3D('',#899,#900,#901);
#899 = CARTESIAN_POINT('',(0.5,0.4,0.));
#900 = DIRECTION('',(0.,1.,0.));
#901 = DIRECTION('',(0.,-0.,1.));
#902 = ADVANCED_FACE('',(#903),#913,.T.);
#903 = FACE_BOUND('',#904,.T.);
#904 = EDGE_LOOP('',(#905,#906,#907,#908,#909,#910,#911,#912));
#905 = ORIENTED_EDGE('',*,*,#710,.F.);
#906 = ORIENTED_EDGE('',*,*,#750,.T.);
#907 = ORIENTED_EDGE('',*,*,#793,.T.);
#908 = ORIENTED_EDGE('',*,*,#847,.F.);
#909 = ORIENTED_EDGE('',*,*,#889,.T.);
#910 = ORIENTED_EDGE('',*,*,#866,.T.);
#911 = ORIENTED_EDGE('',*,*,#817,.F.);
#912 = ORIENTED_EDGE('',*,*,#767,.F.);
#913 = PLANE('',#914);
#914 = AXIS2_PLACEMENT_3D('',#915,#916,#917);
#915 = CARTESIAN_POINT('',(0.8,-0.4,0.));
#916 = DIRECTION('',(1.,0.,0.));
#917 = DIRECTION('',(0.,0.,1.));
#918 = ( GEOMETRIC_REPRESENTATION_CONTEXT(3) 
GLOBAL_UNCERTAINTY_ASSIGNED_CONTEXT((#922)) GLOBAL_UNIT_ASSIGNED_CONTEXT
((#919,#920,#921)) REPRESENTATION_CONTEXT('Context #1',
  '3D Context with UNIT and UNCERTAINTY') );
#919 = ( LENGTH_UNIT() NAMED_UNIT(*) SI_UNIT(.MILLI.,.METRE.) );
#920 = ( NAMED_UNIT(*) PLANE_ANGLE_UNIT() SI_UNIT($,.RADIAN.) );
#921 = ( NAMED_UNIT(*) SI_UNIT($,.STERADIAN.) SOLID_ANGLE_UNIT() );
#922 = UNCERTAINTY_MEASURE_WITH_UNIT(LENGTH_MEASURE(1.E-07),#919,
  'distance_accuracy_value','confusion accuracy');
#923 = CONTEXT_DEPENDENT_SHAPE_REPRESENTATION(#924,#926);
#924 = ( REPRESENTATION_RELATIONSHIP('','',#63,#40) 
REPRESENTATION_RELATIONSHIP_WITH_TRANSFORMATION(#925) 
SHAPE_REPRESENTATION_RELATIONSHIP() );
#925 = ITEM_DEFINED_TRANSFORMATION('','',#11,#41);
#926 = PRODUCT_DEFINITION_SHAPE('Placement','Placement of an item',#927
  );
#927 = NEXT_ASSEMBLY_USAGE_OCCURRENCE('1','=>[0:1:1:3]','',#35,#58,$);
#928 = PRODUCT_RELATED_PRODUCT_CATEGORY('part',$,(#60));
#929 = SHAPE_DEFINITION_REPRESENTATION(#930,#936);
#930 = PRODUCT_DEFINITION_SHAPE('','',#931);
#931 = PRODUCT_DEFINITION('design','',#932,#935);
#932 = PRODUCT_DEFINITION_FORMATION('','',#933);
#933 = PRODUCT('electronic_capacitor_0603_22_pico_farad_render_pad',
  'electronic_capacitor_0603_22_pico_farad_render_pad','',(#934));
#934 = PRODUCT_CONTEXT('',#2,'mechanical');
#935 = PRODUCT_DEFINITION_CONTEXT('part definition',#2,'design');
#936 = SHAPE_REPRESENTATION('',(#11,#937,#1227),#1517);
#937 = MANIFOLD_SOLID_BREP('',#938);
#938 = CLOSED_SHELL('',(#939,#981,#1012,#1045,#1076,#1109,#1140,#1173,
    #1195,#1211));
#939 = ADVANCED_FACE('',(#940),#976,.T.);
#940 = FACE_BOUND('',#941,.T.);
#941 = EDGE_LOOP('',(#942,#952,#961,#969));
#942 = ORIENTED_EDGE('',*,*,#943,.T.);
#943 = EDGE_CURVE('',#944,#946,#948,.T.);
#944 = VERTEX_POINT('',#945);
#945 = CARTESIAN_POINT('',(-1.225,0.25,1.51));
#946 = VERTEX_POINT('',#947);
#947 = CARTESIAN_POINT('',(-1.225,0.25,1.55));
#948 = LINE('',#949,#950);
#949 = CARTESIAN_POINT('',(-1.225,0.25,1.51));
#950 = VECTOR('',#951,1.);
#951 = DIRECTION('',(0.,0.,1.));
#952 = ORIENTED_EDGE('',*,*,#953,.T.);
#953 = EDGE_CURVE('',#946,#954,#956,.T.);
#954 = VERTEX_POINT('',#955);
#955 = CARTESIAN_POINT('',(-1.,0.475,1.55));
#956 = CIRCLE('',#957,0.225000087974);
#957 = AXIS2_PLACEMENT_3D('',#958,#959,#960);
#958 = CARTESIAN_POINT('',(-0.999999912026,0.249999912026,1.55));
#959 = DIRECTION('',(0.,0.,-1.));
#960 = DIRECTION('',(-1.,3.909953613597E-07,0.));
#961 = ORIENTED_EDGE('',*,*,#962,.F.);
#962 = EDGE_CURVE('',#963,#954,#965,.T.);
#963 = VERTEX_POINT('',#964);
#964 = CARTESIAN_POINT('',(-1.,0.475,1.51));
#965 = LINE('',#966,#967);
#966 = CARTESIAN_POINT('',(-1.,0.475,1.51));
#967 = VECTOR('',#968,1.);
#968 = DIRECTION('',(0.,0.,1.));
#969 = ORIENTED_EDGE('',*,*,#970,.F.);
#970 = EDGE_CURVE('',#944,#963,#971,.T.);
#971 = CIRCLE('',#972,0.225000087974);
#972 = AXIS2_PLACEMENT_3D('',#973,#974,#975);
#973 = CARTESIAN_POINT('',(-0.999999912026,0.249999912026,1.51));
#974 = DIRECTION('',(0.,0.,-1.));
#975 = DIRECTION('',(-1.,3.909953613597E-07,0.));
#976 = CYLINDRICAL_SURFACE('',#977,0.225000087974);
#977 = AXIS2_PLACEMENT_3D('',#978,#979,#980);
#978 = CARTESIAN_POINT('',(-0.999999912026,0.249999912026,1.51));
#979 = DIRECTION('',(0.,0.,-1.));
#980 = DIRECTION('',(-1.,3.909953613597E-07,0.));
#981 = ADVANCED_FACE('',(#982),#1007,.T.);
#982 = FACE_BOUND('',#983,.T.);
#983 = EDGE_LOOP('',(#984,#985,#993,#1001));
#984 = ORIENTED_EDGE('',*,*,#962,.T.);
#985 = ORIENTED_EDGE('',*,*,#986,.T.);
#986 = EDGE_CURVE('',#954,#987,#989,.T.);
#987 = VERTEX_POINT('',#988);
#988 = CARTESIAN_POINT('',(-0.55,0.475,1.55));
#989 = LINE('',#990,#991);
#990 = CARTESIAN_POINT('',(-1.,0.475,1.55));
#991 = VECTOR('',#992,1.);
#992 = DIRECTION('',(1.,0.,0.));
#993 = ORIENTED_EDGE('',*,*,#994,.F.);
#994 = EDGE_CURVE('',#995,#987,#997,.T.);
#995 = VERTEX_POINT('',#996);
#996 = CARTESIAN_POINT('',(-0.55,0.475,1.51));
#997 = LINE('',#998,#999);
#998 = CARTESIAN_POINT('',(-0.55,0.475,1.51));
#999 = VECTOR('',#1000,1.);
#1000 = DIRECTION('',(0.,0.,1.));
#1001 = ORIENTED_EDGE('',*,*,#1002,.F.);
#1002 = EDGE_CURVE('',#963,#995,#1003,.T.);
#1003 = LINE('',#1004,#1005);
#1004 = CARTESIAN_POINT('',(-1.,0.475,1.51));
#1005 = VECTOR('',#1006,1.);
#1006 = DIRECTION('',(1.,0.,0.));
#1007 = PLANE('',#1008);
#1008 = AXIS2_PLACEMENT_3D('',#1009,#1010,#1011);
#1009 = CARTESIAN_POINT('',(-1.,0.475,1.51));
#1010 = DIRECTION('',(0.,1.,0.));
#1011 = DIRECTION('',(1.,0.,0.));
#1012 = ADVANCED_FACE('',(#1013),#1040,.T.);
#1013 = FACE_BOUND('',#1014,.T.);
#1014 = EDGE_LOOP('',(#1015,#1016,#1025,#1033));
#1015 = ORIENTED_EDGE('',*,*,#994,.T.);
#1016 = ORIENTED_EDGE('',*,*,#1017,.T.);
#1017 = EDGE_CURVE('',#987,#1018,#1020,.T.);
#1018 = VERTEX_POINT('',#1019);
#1019 = CARTESIAN_POINT('',(-0.325,0.25,1.55));
#1020 = CIRCLE('',#1021,0.225000087974);
#1021 = AXIS2_PLACEMENT_3D('',#1022,#1023,#1024);
#1022 = CARTESIAN_POINT('',(-0.550000087974,0.249999912026,1.55));
#1023 = DIRECTION('',(0.,0.,-1.));
#1024 = DIRECTION('',(3.909953616065E-07,1.,0.));
#1025 = ORIENTED_EDGE('',*,*,#1026,.F.);
#1026 = EDGE_CURVE('',#1027,#1018,#1029,.T.);
#1027 = VERTEX_POINT('',#1028);
#1028 = CARTESIAN_POINT('',(-0.325,0.25,1.51));
#1029 = LINE('',#1030,#1031);
#1030 = CARTESIAN_POINT('',(-0.325,0.25,1.51));
#1031 = VECTOR('',#1032,1.);
#1032 = DIRECTION('',(0.,0.,1.));
#1033 = ORIENTED_EDGE('',*,*,#1034,.F.);
#1034 = EDGE_CURVE('',#995,#1027,#1035,.T.);
#1035 = CIRCLE('',#1036,0.225000087974);
#1036 = AXIS2_PLACEMENT_3D('',#1037,#1038,#1039);
#1037 = CARTESIAN_POINT('',(-0.550000087974,0.249999912026,1.51));
#1038 = DIRECTION('',(0.,0.,-1.));
#1039 = DIRECTION('',(3.909953616065E-07,1.,0.));
#1040 = CYLINDRICAL_SURFACE('',#1041,0.225000087974);
#1041 = AXIS2_PLACEMENT_3D('',#1042,#1043,#1044);
#1042 = CARTESIAN_POINT('',(-0.550000087974,0.249999912026,1.51));
#1043 = DIRECTION('',(0.,0.,-1.));
#1044 = DIRECTION('',(3.909953616065E-07,1.,0.));
#1045 = ADVANCED_FACE('',(#1046),#1071,.T.);
#1046 = FACE_BOUND('',#1047,.T.);
#1047 = EDGE_LOOP('',(#1048,#1049,#1057,#1065));
#1048 = ORIENTED_EDGE('',*,*,#1026,.T.);
#1049 = ORIENTED_EDGE('',*,*,#1050,.T.);
#1050 = EDGE_CURVE('',#1018,#1051,#1053,.T.);
#1051 = VERTEX_POINT('',#1052);
#1052 = CARTESIAN_POINT('',(-0.325,-0.25,1.55));
#1053 = LINE('',#1054,#1055);
#1054 = CARTESIAN_POINT('',(-0.325,0.25,1.55));
#1055 = VECTOR('',#1056,1.);
#1056 = DIRECTION('',(0.,-1.,0.));
#1057 = ORIENTED_EDGE('',*,*,#1058,.F.);
#1058 = EDGE_CURVE('',#1059,#1051,#1061,.T.);
#1059 = VERTEX_POINT('',#1060);
#1060 = CARTESIAN_POINT('',(-0.325,-0.25,1.51));
#1061 = LINE('',#1062,#1063);
#1062 = CARTESIAN_POINT('',(-0.325,-0.25,1.51));
#1063 = VECTOR('',#1064,1.);
#1064 = DIRECTION('',(0.,0.,1.));
#1065 = ORIENTED_EDGE('',*,*,#1066,.F.);
#1066 = EDGE_CURVE('',#1027,#1059,#1067,.T.);
#1067 = LINE('',#1068,#1069);
#1068 = CARTESIAN_POINT('',(-0.325,0.25,1.51));
#1069 = VECTOR('',#1070,1.);
#1070 = DIRECTION('',(0.,-1.,0.));
#1071 = PLANE('',#1072);
#1072 = AXIS2_PLACEMENT_3D('',#1073,#1074,#1075);
#1073 = CARTESIAN_POINT('',(-0.325,0.25,1.51));
#1074 = DIRECTION('',(1.,0.,-0.));
#1075 = DIRECTION('',(0.,-1.,0.));
#1076 = ADVANCED_FACE('',(#1077),#1104,.T.);
#1077 = FACE_BOUND('',#1078,.T.);
#1078 = EDGE_LOOP('',(#1079,#1080,#1089,#1097));
#1079 = ORIENTED_EDGE('',*,*,#1058,.T.);
#1080 = ORIENTED_EDGE('',*,*,#1081,.T.);
#1081 = EDGE_CURVE('',#1051,#1082,#1084,.T.);
#1082 = VERTEX_POINT('',#1083);
#1083 = CARTESIAN_POINT('',(-0.55,-0.475,1.55));
#1084 = CIRCLE('',#1085,0.225000087974);
#1085 = AXIS2_PLACEMENT_3D('',#1086,#1087,#1088);
#1086 = CARTESIAN_POINT('',(-0.550000087974,-0.249999912026,1.55));
#1087 = DIRECTION('',(0.,0.,-1.));
#1088 = DIRECTION('',(1.,-3.909953616065E-07,0.));
#1089 = ORIENTED_EDGE('',*,*,#1090,.F.);
#1090 = EDGE_CURVE('',#1091,#1082,#1093,.T.);
#1091 = VERTEX_POINT('',#1092);
#1092 = CARTESIAN_POINT('',(-0.55,-0.475,1.51));
#1093 = LINE('',#1094,#1095);
#1094 = CARTESIAN_POINT('',(-0.55,-0.475,1.51));
#1095 = VECTOR('',#1096,1.);
#1096 = DIRECTION('',(0.,0.,1.));
#1097 = ORIENTED_EDGE('',*,*,#1098,.F.);
#1098 = EDGE_CURVE('',#1059,#1091,#1099,.T.);
#1099 = CIRCLE('',#1100,0.225000087974);
#1100 = AXIS2_PLACEMENT_3D('',#1101,#1102,#1103);
#1101 = CARTESIAN_POINT('',(-0.550000087974,-0.249999912026,1.51));
#1102 = DIRECTION('',(0.,0.,-1.));
#1103 = DIRECTION('',(1.,-3.909953616065E-07,0.));
#1104 = CYLINDRICAL_SURFACE('',#1105,0.225000087974);
#1105 = AXIS2_PLACEMENT_3D('',#1106,#1107,#1108);
#1106 = CARTESIAN_POINT('',(-0.550000087974,-0.249999912026,1.51));
#1107 = DIRECTION('',(0.,0.,-1.));
#1108 = DIRECTION('',(1.,-3.909953616065E-07,0.));
#1109 = ADVANCED_FACE('',(#1110),#1135,.T.);
#1110 = FACE_BOUND('',#1111,.T.);
#1111 = EDGE_LOOP('',(#1112,#1113,#1121,#1129));
#1112 = ORIENTED_EDGE('',*,*,#1090,.T.);
#1113 = ORIENTED_EDGE('',*,*,#1114,.T.);
#1114 = EDGE_CURVE('',#1082,#1115,#1117,.T.);
#1115 = VERTEX_POINT('',#1116);
#1116 = CARTESIAN_POINT('',(-1.,-0.475,1.55));
#1117 = LINE('',#1118,#1119);
#1118 = CARTESIAN_POINT('',(-0.55,-0.475,1.55));
#1119 = VECTOR('',#1120,1.);
#1120 = DIRECTION('',(-1.,0.,0.));
#1121 = ORIENTED_EDGE('',*,*,#1122,.F.);
#1122 = EDGE_CURVE('',#1123,#1115,#1125,.T.);
#1123 = VERTEX_POINT('',#1124);
#1124 = CARTESIAN_POINT('',(-1.,-0.475,1.51));
#1125 = LINE('',#1126,#1127);
#1126 = CARTESIAN_POINT('',(-1.,-0.475,1.51));
#1127 = VECTOR('',#1128,1.);
#1128 = DIRECTION('',(0.,0.,1.));
#1129 = ORIENTED_EDGE('',*,*,#1130,.F.);
#1130 = EDGE_CURVE('',#1091,#1123,#1131,.T.);
#1131 = LINE('',#1132,#1133);
#1132 = CARTESIAN_POINT('',(-0.55,-0.475,1.51));
#1133 = VECTOR('',#1134,1.);
#1134 = DIRECTION('',(-1.,0.,0.));
#1135 = PLANE('',#1136);
#1136 = AXIS2_PLACEMENT_3D('',#1137,#1138,#1139);
#1137 = CARTESIAN_POINT('',(-0.55,-0.475,1.51));
#1138 = DIRECTION('',(0.,-1.,0.));
#1139 = DIRECTION('',(-1.,0.,0.));
#1140 = ADVANCED_FACE('',(#1141),#1168,.T.);
#1141 = FACE_BOUND('',#1142,.T.);
#1142 = EDGE_LOOP('',(#1143,#1144,#1153,#1161));
#1143 = ORIENTED_EDGE('',*,*,#1122,.T.);
#1144 = ORIENTED_EDGE('',*,*,#1145,.T.);
#1145 = EDGE_CURVE('',#1115,#1146,#1148,.T.);
#1146 = VERTEX_POINT('',#1147);
#1147 = CARTESIAN_POINT('',(-1.225,-0.25,1.55));
#1148 = CIRCLE('',#1149,0.225000087974);
#1149 = AXIS2_PLACEMENT_3D('',#1150,#1151,#1152);
#1150 = CARTESIAN_POINT('',(-0.999999912026,-0.249999912026,1.55));
#1151 = DIRECTION('',(0.,0.,-1.));
#1152 = DIRECTION('',(-3.909953606196E-07,-1.,-0.));
#1153 = ORIENTED_EDGE('',*,*,#1154,.F.);
#1154 = EDGE_CURVE('',#1155,#1146,#1157,.T.);
#1155 = VERTEX_POINT('',#1156);
#1156 = CARTESIAN_POINT('',(-1.225,-0.25,1.51));
#1157 = LINE('',#1158,#1159);
#1158 = CARTESIAN_POINT('',(-1.225,-0.25,1.51));
#1159 = VECTOR('',#1160,1.);
#1160 = DIRECTION('',(0.,0.,1.));
#1161 = ORIENTED_EDGE('',*,*,#1162,.F.);
#1162 = EDGE_CURVE('',#1123,#1155,#1163,.T.);
#1163 = CIRCLE('',#1164,0.225000087974);
#1164 = AXIS2_PLACEMENT_3D('',#1165,#1166,#1167);
#1165 = CARTESIAN_POINT('',(-0.999999912026,-0.249999912026,1.51));
#1166 = DIRECTION('',(0.,0.,-1.));
#1167 = DIRECTION('',(-3.909953606196E-07,-1.,-0.));
#1168 = CYLINDRICAL_SURFACE('',#1169,0.225000087974);
#1169 = AXIS2_PLACEMENT_3D('',#1170,#1171,#1172);
#1170 = CARTESIAN_POINT('',(-0.999999912026,-0.249999912026,1.51));
#1171 = DIRECTION('',(0.,0.,-1.));
#1172 = DIRECTION('',(-3.909953606196E-07,-1.,-0.));
#1173 = ADVANCED_FACE('',(#1174),#1190,.T.);
#1174 = FACE_BOUND('',#1175,.T.);
#1175 = EDGE_LOOP('',(#1176,#1177,#1183,#1184));
#1176 = ORIENTED_EDGE('',*,*,#1154,.T.);
#1177 = ORIENTED_EDGE('',*,*,#1178,.T.);
#1178 = EDGE_CURVE('',#1146,#946,#1179,.T.);
#1179 = LINE('',#1180,#1181);
#1180 = CARTESIAN_POINT('',(-1.225,-0.25,1.55));
#1181 = VECTOR('',#1182,1.);
#1182 = DIRECTION('',(0.,1.,0.));
#1183 = ORIENTED_EDGE('',*,*,#943,.F.);
#1184 = ORIENTED_EDGE('',*,*,#1185,.F.);
#1185 = EDGE_CURVE('',#1155,#944,#1186,.T.);
#1186 = LINE('',#1187,#1188);
#1187 = CARTESIAN_POINT('',(-1.225,-0.25,1.51));
#1188 = VECTOR('',#1189,1.);
#1189 = DIRECTION('',(0.,1.,0.));
#1190 = PLANE('',#1191);
#1191 = AXIS2_PLACEMENT_3D('',#1192,#1193,#1194);
#1192 = CARTESIAN_POINT('',(-1.225,-0.25,1.51));
#1193 = DIRECTION('',(-1.,0.,0.));
#1194 = DIRECTION('',(0.,1.,0.));
#1195 = ADVANCED_FACE('',(#1196),#1206,.F.);
#1196 = FACE_BOUND('',#1197,.T.);
#1197 = EDGE_LOOP('',(#1198,#1199,#1200,#1201,#1202,#1203,#1204,#1205));
#1198 = ORIENTED_EDGE('',*,*,#970,.T.);
#1199 = ORIENTED_EDGE('',*,*,#1002,.T.);
#1200 = ORIENTED_EDGE('',*,*,#1034,.T.);
#1201 = ORIENTED_EDGE('',*,*,#1066,.T.);
#1202 = ORIENTED_EDGE('',*,*,#1098,.T.);
#1203 = ORIENTED_EDGE('',*,*,#1130,.T.);
#1204 = ORIENTED_EDGE('',*,*,#1162,.T.);
#1205 = ORIENTED_EDGE('',*,*,#1185,.T.);
#1206 = PLANE('',#1207);
#1207 = AXIS2_PLACEMENT_3D('',#1208,#1209,#1210);
#1208 = CARTESIAN_POINT('',(0.,0.,1.51));
#1209 = DIRECTION('',(0.,0.,1.));
#1210 = DIRECTION('',(1.,0.,-0.));
#1211 = ADVANCED_FACE('',(#1212),#1222,.T.);
#1212 = FACE_BOUND('',#1213,.F.);
#1213 = EDGE_LOOP('',(#1214,#1215,#1216,#1217,#1218,#1219,#1220,#1221));
#1214 = ORIENTED_EDGE('',*,*,#953,.T.);
#1215 = ORIENTED_EDGE('',*,*,#986,.T.);
#1216 = ORIENTED_EDGE('',*,*,#1017,.T.);
#1217 = ORIENTED_EDGE('',*,*,#1050,.T.);
#1218 = ORIENTED_EDGE('',*,*,#1081,.T.);
#1219 = ORIENTED_EDGE('',*,*,#1114,.T.);
#1220 = ORIENTED_EDGE('',*,*,#1145,.T.);
#1221 = ORIENTED_EDGE('',*,*,#1178,.T.);
#1222 = PLANE('',#1223);
#1223 = AXIS2_PLACEMENT_3D('',#1224,#1225,#1226);
#1224 = CARTESIAN_POINT('',(0.,0.,1.55));
#1225 = DIRECTION('',(0.,0.,1.));
#1226 = DIRECTION('',(1.,0.,-0.));
#1227 = MANIFOLD_SOLID_BREP('',#1228);
#1228 = CLOSED_SHELL('',(#1229,#1271,#1302,#1335,#1366,#1399,#1430,#1463
    ,#1485,#1501));
#1229 = ADVANCED_FACE('',(#1230),#1266,.T.);
#1230 = FACE_BOUND('',#1231,.T.);
#1231 = EDGE_LOOP('',(#1232,#1242,#1251,#1259));
#1232 = ORIENTED_EDGE('',*,*,#1233,.T.);
#1233 = EDGE_CURVE('',#1234,#1236,#1238,.T.);
#1234 = VERTEX_POINT('',#1235);
#1235 = CARTESIAN_POINT('',(0.325,0.25,1.51));
#1236 = VERTEX_POINT('',#1237);
#1237 = CARTESIAN_POINT('',(0.325,0.25,1.55));
#1238 = LINE('',#1239,#1240);
#1239 = CARTESIAN_POINT('',(0.325,0.25,1.51));
#1240 = VECTOR('',#1241,1.);
#1241 = DIRECTION('',(0.,0.,1.));
#1242 = ORIENTED_EDGE('',*,*,#1243,.T.);
#1243 = EDGE_CURVE('',#1236,#1244,#1246,.T.);
#1244 = VERTEX_POINT('',#1245);
#1245 = CARTESIAN_POINT('',(0.55,0.475,1.55));
#1246 = CIRCLE('',#1247,0.225000087974);
#1247 = AXIS2_PLACEMENT_3D('',#1248,#1249,#1250);
#1248 = CARTESIAN_POINT('',(0.550000087974,0.249999912026,1.55));
#1249 = DIRECTION('',(0.,0.,-1.));
#1250 = DIRECTION('',(-1.,3.909953616065E-07,0.));
#1251 = ORIENTED_EDGE('',*,*,#1252,.F.);
#1252 = EDGE_CURVE('',#1253,#1244,#1255,.T.);
#1253 = VERTEX_POINT('',#1254);
#1254 = CARTESIAN_POINT('',(0.55,0.475,1.51));
#1255 = LINE('',#1256,#1257);
#1256 = CARTESIAN_POINT('',(0.55,0.475,1.51));
#1257 = VECTOR('',#1258,1.);
#1258 = DIRECTION('',(0.,0.,1.));
#1259 = ORIENTED_EDGE('',*,*,#1260,.F.);
#1260 = EDGE_CURVE('',#1234,#1253,#1261,.T.);
#1261 = CIRCLE('',#1262,0.225000087974);
#1262 = AXIS2_PLACEMENT_3D('',#1263,#1264,#1265);
#1263 = CARTESIAN_POINT('',(0.550000087974,0.249999912026,1.51));
#1264 = DIRECTION('',(0.,0.,-1.));
#1265 = DIRECTION('',(-1.,3.909953616065E-07,0.));
#1266 = CYLINDRICAL_SURFACE('',#1267,0.225000087974);
#1267 = AXIS2_PLACEMENT_3D('',#1268,#1269,#1270);
#1268 = CARTESIAN_POINT('',(0.550000087974,0.249999912026,1.51));
#1269 = DIRECTION('',(0.,0.,-1.));
#1270 = DIRECTION('',(-1.,3.909953616065E-07,0.));
#1271 = ADVANCED_FACE('',(#1272),#1297,.T.);
#1272 = FACE_BOUND('',#1273,.T.);
#1273 = EDGE_LOOP('',(#1274,#1275,#1283,#1291));
#1274 = ORIENTED_EDGE('',*,*,#1252,.T.);
#1275 = ORIENTED_EDGE('',*,*,#1276,.T.);
#1276 = EDGE_CURVE('',#1244,#1277,#1279,.T.);
#1277 = VERTEX_POINT('',#1278);
#1278 = CARTESIAN_POINT('',(1.,0.475,1.55));
#1279 = LINE('',#1280,#1281);
#1280 = CARTESIAN_POINT('',(0.55,0.475,1.55));
#1281 = VECTOR('',#1282,1.);
#1282 = DIRECTION('',(1.,0.,0.));
#1283 = ORIENTED_EDGE('',*,*,#1284,.F.);
#1284 = EDGE_CURVE('',#1285,#1277,#1287,.T.);
#1285 = VERTEX_POINT('',#1286);
#1286 = CARTESIAN_POINT('',(1.,0.475,1.51));
#1287 = LINE('',#1288,#1289);
#1288 = CARTESIAN_POINT('',(1.,0.475,1.51));
#1289 = VECTOR('',#1290,1.);
#1290 = DIRECTION('',(0.,0.,1.));
#1291 = ORIENTED_EDGE('',*,*,#1292,.F.);
#1292 = EDGE_CURVE('',#1253,#1285,#1293,.T.);
#1293 = LINE('',#1294,#1295);
#1294 = CARTESIAN_POINT('',(0.55,0.475,1.51));
#1295 = VECTOR('',#1296,1.);
#1296 = DIRECTION('',(1.,0.,0.));
#1297 = PLANE('',#1298);
#1298 = AXIS2_PLACEMENT_3D('',#1299,#1300,#1301);
#1299 = CARTESIAN_POINT('',(0.55,0.475,1.51));
#1300 = DIRECTION('',(0.,1.,0.));
#1301 = DIRECTION('',(1.,0.,0.));
#1302 = ADVANCED_FACE('',(#1303),#1330,.T.);
#1303 = FACE_BOUND('',#1304,.T.);
#1304 = EDGE_LOOP('',(#1305,#1306,#1315,#1323));
#1305 = ORIENTED_EDGE('',*,*,#1284,.T.);
#1306 = ORIENTED_EDGE('',*,*,#1307,.T.);
#1307 = EDGE_CURVE('',#1277,#1308,#1310,.T.);
#1308 = VERTEX_POINT('',#1309);
#1309 = CARTESIAN_POINT('',(1.225,0.25,1.55));
#1310 = CIRCLE('',#1311,0.225000087974);
#1311 = AXIS2_PLACEMENT_3D('',#1312,#1313,#1314);
#1312 = CARTESIAN_POINT('',(0.999999912026,0.249999912026,1.55));
#1313 = DIRECTION('',(0.,0.,-1.));
#1314 = DIRECTION('',(3.909953606196E-07,1.,0.));
#1315 = ORIENTED_EDGE('',*,*,#1316,.F.);
#1316 = EDGE_CURVE('',#1317,#1308,#1319,.T.);
#1317 = VERTEX_POINT('',#1318);
#1318 = CARTESIAN_POINT('',(1.225,0.25,1.51));
#1319 = LINE('',#1320,#1321);
#1320 = CARTESIAN_POINT('',(1.225,0.25,1.51));
#1321 = VECTOR('',#1322,1.);
#1322 = DIRECTION('',(0.,0.,1.));
#1323 = ORIENTED_EDGE('',*,*,#1324,.F.);
#1324 = EDGE_CURVE('',#1285,#1317,#1325,.T.);
#1325 = CIRCLE('',#1326,0.225000087974);
#1326 = AXIS2_PLACEMENT_3D('',#1327,#1328,#1329);
#1327 = CARTESIAN_POINT('',(0.999999912026,0.249999912026,1.51));
#1328 = DIRECTION('',(0.,0.,-1.));
#1329 = DIRECTION('',(3.909953606196E-07,1.,0.));
#1330 = CYLINDRICAL_SURFACE('',#1331,0.225000087974);
#1331 = AXIS2_PLACEMENT_3D('',#1332,#1333,#1334);
#1332 = CARTESIAN_POINT('',(0.999999912026,0.249999912026,1.51));
#1333 = DIRECTION('',(0.,0.,-1.));
#1334 = DIRECTION('',(3.909953606196E-07,1.,0.));
#1335 = ADVANCED_FACE('',(#1336),#1361,.T.);
#1336 = FACE_BOUND('',#1337,.T.);
#1337 = EDGE_LOOP('',(#1338,#1339,#1347,#1355));
#1338 = ORIENTED_EDGE('',*,*,#1316,.T.);
#1339 = ORIENTED_EDGE('',*,*,#1340,.T.);
#1340 = EDGE_CURVE('',#1308,#1341,#1343,.T.);
#1341 = VERTEX_POINT('',#1342);
#1342 = CARTESIAN_POINT('',(1.225,-0.25,1.55));
#1343 = LINE('',#1344,#1345);
#1344 = CARTESIAN_POINT('',(1.225,0.25,1.55));
#1345 = VECTOR('',#1346,1.);
#1346 = DIRECTION('',(0.,-1.,0.));
#1347 = ORIENTED_EDGE('',*,*,#1348,.F.);
#1348 = EDGE_CURVE('',#1349,#1341,#1351,.T.);
#1349 = VERTEX_POINT('',#1350);
#1350 = CARTESIAN_POINT('',(1.225,-0.25,1.51));
#1351 = LINE('',#1352,#1353);
#1352 = CARTESIAN_POINT('',(1.225,-0.25,1.51));
#1353 = VECTOR('',#1354,1.);
#1354 = DIRECTION('',(0.,0.,1.));
#1355 = ORIENTED_EDGE('',*,*,#1356,.F.);
#1356 = EDGE_CURVE('',#1317,#1349,#1357,.T.);
#1357 = LINE('',#1358,#1359);
#1358 = CARTESIAN_POINT('',(1.225,0.25,1.51));
#1359 = VECTOR('',#1360,1.);
#1360 = DIRECTION('',(0.,-1.,0.));
#1361 = PLANE('',#1362);
#1362 = AXIS2_PLACEMENT_3D('',#1363,#1364,#1365);
#1363 = CARTESIAN_POINT('',(1.225,0.25,1.51));
#1364 = DIRECTION('',(1.,0.,-0.));
#1365 = DIRECTION('',(0.,-1.,0.));
#1366 = ADVANCED_FACE('',(#1367),#1394,.T.);
#1367 = FACE_BOUND('',#1368,.T.);
#1368 = EDGE_LOOP('',(#1369,#1370,#1379,#1387));
#1369 = ORIENTED_EDGE('',*,*,#1348,.T.);
#1370 = ORIENTED_EDGE('',*,*,#1371,.T.);
#1371 = EDGE_CURVE('',#1341,#1372,#1374,.T.);
#1372 = VERTEX_POINT('',#1373);
#1373 = CARTESIAN_POINT('',(1.,-0.475,1.55));
#1374 = CIRCLE('',#1375,0.225000087974);
#1375 = AXIS2_PLACEMENT_3D('',#1376,#1377,#1378);
#1376 = CARTESIAN_POINT('',(0.999999912026,-0.249999912026,1.55));
#1377 = DIRECTION('',(0.,0.,-1.));
#1378 = DIRECTION('',(1.,-3.909953613597E-07,0.));
#1379 = ORIENTED_EDGE('',*,*,#1380,.F.);
#1380 = EDGE_CURVE('',#1381,#1372,#1383,.T.);
#1381 = VERTEX_POINT('',#1382);
#1382 = CARTESIAN_POINT('',(1.,-0.475,1.51));
#1383 = LINE('',#1384,#1385);
#1384 = CARTESIAN_POINT('',(1.,-0.475,1.51));
#1385 = VECTOR('',#1386,1.);
#1386 = DIRECTION('',(0.,0.,1.));
#1387 = ORIENTED_EDGE('',*,*,#1388,.F.);
#1388 = EDGE_CURVE('',#1349,#1381,#1389,.T.);
#1389 = CIRCLE('',#1390,0.225000087974);
#1390 = AXIS2_PLACEMENT_3D('',#1391,#1392,#1393);
#1391 = CARTESIAN_POINT('',(0.999999912026,-0.249999912026,1.51));
#1392 = DIRECTION('',(0.,0.,-1.));
#1393 = DIRECTION('',(1.,-3.909953613597E-07,0.));
#1394 = CYLINDRICAL_SURFACE('',#1395,0.225000087974);
#1395 = AXIS2_PLACEMENT_3D('',#1396,#1397,#1398);
#1396 = CARTESIAN_POINT('',(0.999999912026,-0.249999912026,1.51));
#1397 = DIRECTION('',(0.,0.,-1.));
#1398 = DIRECTION('',(1.,-3.909953613597E-07,0.));
#1399 = ADVANCED_FACE('',(#1400),#1425,.T.);
#1400 = FACE_BOUND('',#1401,.T.);
#1401 = EDGE_LOOP('',(#1402,#1403,#1411,#1419));
#1402 = ORIENTED_EDGE('',*,*,#1380,.T.);
#1403 = ORIENTED_EDGE('',*,*,#1404,.T.);
#1404 = EDGE_CURVE('',#1372,#1405,#1407,.T.);
#1405 = VERTEX_POINT('',#1406);
#1406 = CARTESIAN_POINT('',(0.55,-0.475,1.55));
#1407 = LINE('',#1408,#1409);
#1408 = CARTESIAN_POINT('',(1.,-0.475,1.55));
#1409 = VECTOR('',#1410,1.);
#1410 = DIRECTION('',(-1.,0.,0.));
#1411 = ORIENTED_EDGE('',*,*,#1412,.F.);
#1412 = EDGE_CURVE('',#1413,#1405,#1415,.T.);
#1413 = VERTEX_POINT('',#1414);
#1414 = CARTESIAN_POINT('',(0.55,-0.475,1.51));
#1415 = LINE('',#1416,#1417);
#1416 = CARTESIAN_POINT('',(0.55,-0.475,1.51));
#1417 = VECTOR('',#1418,1.);
#1418 = DIRECTION('',(0.,0.,1.));
#1419 = ORIENTED_EDGE('',*,*,#1420,.F.);
#1420 = EDGE_CURVE('',#1381,#1413,#1421,.T.);
#1421 = LINE('',#1422,#1423);
#1422 = CARTESIAN_POINT('',(1.,-0.475,1.51));
#1423 = VECTOR('',#1424,1.);
#1424 = DIRECTION('',(-1.,0.,0.));
#1425 = PLANE('',#1426);
#1426 = AXIS2_PLACEMENT_3D('',#1427,#1428,#1429);
#1427 = CARTESIAN_POINT('',(1.,-0.475,1.51));
#1428 = DIRECTION('',(0.,-1.,0.));
#1429 = DIRECTION('',(-1.,0.,0.));
#1430 = ADVANCED_FACE('',(#1431),#1458,.T.);
#1431 = FACE_BOUND('',#1432,.T.);
#1432 = EDGE_LOOP('',(#1433,#1434,#1443,#1451));
#1433 = ORIENTED_EDGE('',*,*,#1412,.T.);
#1434 = ORIENTED_EDGE('',*,*,#1435,.T.);
#1435 = EDGE_CURVE('',#1405,#1436,#1438,.T.);
#1436 = VERTEX_POINT('',#1437);
#1437 = CARTESIAN_POINT('',(0.325,-0.25,1.55));
#1438 = CIRCLE('',#1439,0.225000087974);
#1439 = AXIS2_PLACEMENT_3D('',#1440,#1441,#1442);
#1440 = CARTESIAN_POINT('',(0.550000087974,-0.249999912026,1.55));
#1441 = DIRECTION('',(0.,0.,-1.));
#1442 = DIRECTION('',(-3.909953616065E-07,-1.,-0.));
#1443 = ORIENTED_EDGE('',*,*,#1444,.F.);
#1444 = EDGE_CURVE('',#1445,#1436,#1447,.T.);
#1445 = VERTEX_POINT('',#1446);
#1446 = CARTESIAN_POINT('',(0.325,-0.25,1.51));
#1447 = LINE('',#1448,#1449);
#1448 = CARTESIAN_POINT('',(0.325,-0.25,1.51));
#1449 = VECTOR('',#1450,1.);
#1450 = DIRECTION('',(0.,0.,1.));
#1451 = ORIENTED_EDGE('',*,*,#1452,.F.);
#1452 = EDGE_CURVE('',#1413,#1445,#1453,.T.);
#1453 = CIRCLE('',#1454,0.225000087974);
#1454 = AXIS2_PLACEMENT_3D('',#1455,#1456,#1457);
#1455 = CARTESIAN_POINT('',(0.550000087974,-0.249999912026,1.51));
#1456 = DIRECTION('',(0.,0.,-1.));
#1457 = DIRECTION('',(-3.909953616065E-07,-1.,-0.));
#1458 = CYLINDRICAL_SURFACE('',#1459,0.225000087974);
#1459 = AXIS2_PLACEMENT_3D('',#1460,#1461,#1462);
#1460 = CARTESIAN_POINT('',(0.550000087974,-0.249999912026,1.51));
#1461 = DIRECTION('',(0.,0.,-1.));
#1462 = DIRECTION('',(-3.909953616065E-07,-1.,-0.));
#1463 = ADVANCED_FACE('',(#1464),#1480,.T.);
#1464 = FACE_BOUND('',#1465,.T.);
#1465 = EDGE_LOOP('',(#1466,#1467,#1473,#1474));
#1466 = ORIENTED_EDGE('',*,*,#1444,.T.);
#1467 = ORIENTED_EDGE('',*,*,#1468,.T.);
#1468 = EDGE_CURVE('',#1436,#1236,#1469,.T.);
#1469 = LINE('',#1470,#1471);
#1470 = CARTESIAN_POINT('',(0.325,-0.25,1.55));
#1471 = VECTOR('',#1472,1.);
#1472 = DIRECTION('',(0.,1.,0.));
#1473 = ORIENTED_EDGE('',*,*,#1233,.F.);
#1474 = ORIENTED_EDGE('',*,*,#1475,.F.);
#1475 = EDGE_CURVE('',#1445,#1234,#1476,.T.);
#1476 = LINE('',#1477,#1478);
#1477 = CARTESIAN_POINT('',(0.325,-0.25,1.51));
#1478 = VECTOR('',#1479,1.);
#1479 = DIRECTION('',(0.,1.,0.));
#1480 = PLANE('',#1481);
#1481 = AXIS2_PLACEMENT_3D('',#1482,#1483,#1484);
#1482 = CARTESIAN_POINT('',(0.325,-0.25,1.51));
#1483 = DIRECTION('',(-1.,0.,0.));
#1484 = DIRECTION('',(0.,1.,0.));
#1485 = ADVANCED_FACE('',(#1486),#1496,.F.);
#1486 = FACE_BOUND('',#1487,.T.);
#1487 = EDGE_LOOP('',(#1488,#1489,#1490,#1491,#1492,#1493,#1494,#1495));
#1488 = ORIENTED_EDGE('',*,*,#1260,.T.);
#1489 = ORIENTED_EDGE('',*,*,#1292,.T.);
#1490 = ORIENTED_EDGE('',*,*,#1324,.T.);
#1491 = ORIENTED_EDGE('',*,*,#1356,.T.);
#1492 = ORIENTED_EDGE('',*,*,#1388,.T.);
#1493 = ORIENTED_EDGE('',*,*,#1420,.T.);
#1494 = ORIENTED_EDGE('',*,*,#1452,.T.);
#1495 = ORIENTED_EDGE('',*,*,#1475,.T.);
#1496 = PLANE('',#1497);
#1497 = AXIS2_PLACEMENT_3D('',#1498,#1499,#1500);
#1498 = CARTESIAN_POINT('',(0.,0.,1.51));
#1499 = DIRECTION('',(0.,0.,1.));
#1500 = DIRECTION('',(1.,0.,-0.));
#1501 = ADVANCED_FACE('',(#1502),#1512,.T.);
#1502 = FACE_BOUND('',#1503,.F.);
#1503 = EDGE_LOOP('',(#1504,#1505,#1506,#1507,#1508,#1509,#1510,#1511));
#1504 = ORIENTED_EDGE('',*,*,#1243,.T.);
#1505 = ORIENTED_EDGE('',*,*,#1276,.T.);
#1506 = ORIENTED_EDGE('',*,*,#1307,.T.);
#1507 = ORIENTED_EDGE('',*,*,#1340,.T.);
#1508 = ORIENTED_EDGE('',*,*,#1371,.T.);
#1509 = ORIENTED_EDGE('',*,*,#1404,.T.);
#1510 = ORIENTED_EDGE('',*,*,#1435,.T.);
#1511 = ORIENTED_EDGE('',*,*,#1468,.T.);
#1512 = PLANE('',#1513);
#1513 = AXIS2_PLACEMENT_3D('',#1514,#1515,#1516);
#1514 = CARTESIAN_POINT('',(0.,0.,1.55));
#1515 = DIRECTION('',(0.,0.,1.));
#1516 = DIRECTION('',(1.,0.,-0.));
#1517 = ( GEOMETRIC_REPRESENTATION_CONTEXT(3) 
GLOBAL_UNCERTAINTY_ASSIGNED_CONTEXT((#1521)) 
GLOBAL_UNIT_ASSIGNED_CONTEXT((#1518,#1519,#1520)) REPRESENTATION_CONTEXT
('Context #1','3D Context with UNIT and UNCERTAINTY') );
#1518 = ( LENGTH_UNIT() NAMED_UNIT(*) SI_UNIT(.MILLI.,.METRE.) );
#1519 = ( NAMED_UNIT(*) PLANE_ANGLE_UNIT() SI_UNIT($,.RADIAN.) );
#1520 = ( NAMED_UNIT(*) SI_UNIT($,.STERADIAN.) SOLID_ANGLE_UNIT() );
#1521 = UNCERTAINTY_MEASURE_WITH_UNIT(LENGTH_MEASURE(1.E-07),#1518,
  'distance_accuracy_value','confusion accuracy');
#1522 = CONTEXT_DEPENDENT_SHAPE_REPRESENTATION(#1523,#1525);
#1523 = ( REPRESENTATION_RELATIONSHIP('','',#936,#10) 
REPRESENTATION_RELATIONSHIP_WITH_TRANSFORMATION(#1524) 
SHAPE_REPRESENTATION_RELATIONSHIP() );
#1524 = ITEM_DEFINED_TRANSFORMATION('','',#11,#19);
#1525 = PRODUCT_DEFINITION_SHAPE('Placement','Placement of an item',
  #1526);
#1526 = NEXT_ASSEMBLY_USAGE_OCCURRENCE('3','=>[0:1:1:4]','',#5,#931,$);
#1527 = PRODUCT_RELATED_PRODUCT_CATEGORY('part',$,(#933));
#1528 = SHAPE_DEFINITION_REPRESENTATION(#1529,#1535);
#1529 = PRODUCT_DEFINITION_SHAPE('','',#1530);
#1530 = PRODUCT_DEFINITION('design','',#1531,#1534);
#1531 = PRODUCT_DEFINITION_FORMATION('','',#1532);
#1532 = PRODUCT('electronic_capacitor_0603_22_pico_farad_render_PCB',
  'electronic_capacitor_0603_22_pico_farad_render_PCB','',(#1533));
#1533 = PRODUCT_CONTEXT('',#2,'mechanical');
#1534 = PRODUCT_DEFINITION_CONTEXT('part definition',#2,'design');
#1535 = ADVANCED_BREP_SHAPE_REPRESENTATION('',(#11,#1536),#1686);
#1536 = MANIFOLD_SOLID_BREP('',#1537);
#1537 = CLOSED_SHELL('',(#1538,#1578,#1609,#1640,#1662,#1674));
#1538 = ADVANCED_FACE('',(#1539),#1573,.T.);
#1539 = FACE_BOUND('',#1540,.T.);
#1540 = EDGE_LOOP('',(#1541,#1551,#1559,#1567));
#1541 = ORIENTED_EDGE('',*,*,#1542,.T.);
#1542 = EDGE_CURVE('',#1543,#1545,#1547,.T.);
#1543 = VERTEX_POINT('',#1544);
#1544 = CARTESIAN_POINT('',(3.48,-2.73,0.));
#1545 = VERTEX_POINT('',#1546);
#1546 = CARTESIAN_POINT('',(3.48,-2.73,1.51));
#1547 = LINE('',#1548,#1549);
#1548 = CARTESIAN_POINT('',(3.48,-2.73,0.));
#1549 = VECTOR('',#1550,1.);
#1550 = DIRECTION('',(0.,0.,1.));
#1551 = ORIENTED_EDGE('',*,*,#1552,.T.);
#1552 = EDGE_CURVE('',#1545,#1553,#1555,.T.);
#1553 = VERTEX_POINT('',#1554);
#1554 = CARTESIAN_POINT('',(-3.48,-2.73,1.51));
#1555 = LINE('',#1556,#1557);
#1556 = CARTESIAN_POINT('',(3.48,-2.73,1.51));
#1557 = VECTOR('',#1558,1.);
#1558 = DIRECTION('',(-1.,0.,0.));
#1559 = ORIENTED_EDGE('',*,*,#1560,.F.);
#1560 = EDGE_CURVE('',#1561,#1553,#1563,.T.);
#1561 = VERTEX_POINT('',#1562);
#1562 = CARTESIAN_POINT('',(-3.48,-2.73,0.));
#1563 = LINE('',#1564,#1565);
#1564 = CARTESIAN_POINT('',(-3.48,-2.73,0.));
#1565 = VECTOR('',#1566,1.);
#1566 = DIRECTION('',(0.,0.,1.));
#1567 = ORIENTED_EDGE('',*,*,#1568,.F.);
#1568 = EDGE_CURVE('',#1543,#1561,#1569,.T.);
#1569 = LINE('',#1570,#1571);
#1570 = CARTESIAN_POINT('',(3.48,-2.73,0.));
#1571 = VECTOR('',#1572,1.);
#1572 = DIRECTION('',(-1.,0.,0.));
#1573 = PLANE('',#1574);
#1574 = AXIS2_PLACEMENT_3D('',#1575,#1576,#1577);
#1575 = CARTESIAN_POINT('',(3.48,-2.73,0.));
#1576 = DIRECTION('',(0.,-1.,0.));
#1577 = DIRECTION('',(-1.,0.,0.));
#1578 = ADVANCED_FACE('',(#1579),#1604,.T.);
#1579 = FACE_BOUND('',#1580,.T.);
#1580 = EDGE_LOOP('',(#1581,#1582,#1590,#1598));
#1581 = ORIENTED_EDGE('',*,*,#1560,.T.);
#1582 = ORIENTED_EDGE('',*,*,#1583,.T.);
#1583 = EDGE_CURVE('',#1553,#1584,#1586,.T.);
#1584 = VERTEX_POINT('',#1585);
#1585 = CARTESIAN_POINT('',(-3.48,2.73,1.51));
#1586 = LINE('',#1587,#1588);
#1587 = CARTESIAN_POINT('',(-3.48,-2.73,1.51));
#1588 = VECTOR('',#1589,1.);
#1589 = DIRECTION('',(0.,1.,0.));
#1590 = ORIENTED_EDGE('',*,*,#1591,.F.);
#1591 = EDGE_CURVE('',#1592,#1584,#1594,.T.);
#1592 = VERTEX_POINT('',#1593);
#1593 = CARTESIAN_POINT('',(-3.48,2.73,0.));
#1594 = LINE('',#1595,#1596);
#1595 = CARTESIAN_POINT('',(-3.48,2.73,0.));
#1596 = VECTOR('',#1597,1.);
#1597 = DIRECTION('',(0.,0.,1.));
#1598 = ORIENTED_EDGE('',*,*,#1599,.F.);
#1599 = EDGE_CURVE('',#1561,#1592,#1600,.T.);
#1600 = LINE('',#1601,#1602);
#1601 = CARTESIAN_POINT('',(-3.48,-2.73,0.));
#1602 = VECTOR('',#1603,1.);
#1603 = DIRECTION('',(0.,1.,0.));
#1604 = PLANE('',#1605);
#1605 = AXIS2_PLACEMENT_3D('',#1606,#1607,#1608);
#1606 = CARTESIAN_POINT('',(-3.48,-2.73,0.));
#1607 = DIRECTION('',(-1.,0.,0.));
#1608 = DIRECTION('',(0.,1.,0.));
#1609 = ADVANCED_FACE('',(#1610),#1635,.T.);
#1610 = FACE_BOUND('',#1611,.T.);
#1611 = EDGE_LOOP('',(#1612,#1613,#1621,#1629));
#1612 = ORIENTED_EDGE('',*,*,#1591,.T.);
#1613 = ORIENTED_EDGE('',*,*,#1614,.T.);
#1614 = EDGE_CURVE('',#1584,#1615,#1617,.T.);
#1615 = VERTEX_POINT('',#1616);
#1616 = CARTESIAN_POINT('',(3.48,2.73,1.51));
#1617 = LINE('',#1618,#1619);
#1618 = CARTESIAN_POINT('',(-3.48,2.73,1.51));
#1619 = VECTOR('',#1620,1.);
#1620 = DIRECTION('',(1.,0.,0.));
#1621 = ORIENTED_EDGE('',*,*,#1622,.F.);
#1622 = EDGE_CURVE('',#1623,#1615,#1625,.T.);
#1623 = VERTEX_POINT('',#1624);
#1624 = CARTESIAN_POINT('',(3.48,2.73,0.));
#1625 = LINE('',#1626,#1627);
#1626 = CARTESIAN_POINT('',(3.48,2.73,0.));
#1627 = VECTOR('',#1628,1.);
#1628 = DIRECTION('',(0.,0.,1.));
#1629 = ORIENTED_EDGE('',*,*,#1630,.F.);
#1630 = EDGE_CURVE('',#1592,#1623,#1631,.T.);
#1631 = LINE('',#1632,#1633);
#1632 = CARTESIAN_POINT('',(-3.48,2.73,0.));
#1633 = VECTOR('',#1634,1.);
#1634 = DIRECTION('',(1.,0.,0.));
#1635 = PLANE('',#1636);
#1636 = AXIS2_PLACEMENT_3D('',#1637,#1638,#1639);
#1637 = CARTESIAN_POINT('',(-3.48,2.73,0.));
#1638 = DIRECTION('',(0.,1.,0.));
#1639 = DIRECTION('',(1.,0.,0.));
#1640 = ADVANCED_FACE('',(#1641),#1657,.T.);
#1641 = FACE_BOUND('',#1642,.T.);
#1642 = EDGE_LOOP('',(#1643,#1644,#1650,#1651));
#1643 = ORIENTED_EDGE('',*,*,#1622,.T.);
#1644 = ORIENTED_EDGE('',*,*,#1645,.T.);
#1645 = EDGE_CURVE('',#1615,#1545,#1646,.T.);
#1646 = LINE('',#1647,#1648);
#1647 = CARTESIAN_POINT('',(3.48,2.73,1.51));
#1648 = VECTOR('',#1649,1.);
#1649 = DIRECTION('',(0.,-1.,0.));
#1650 = ORIENTED_EDGE('',*,*,#1542,.F.);
#1651 = ORIENTED_EDGE('',*,*,#1652,.F.);
#1652 = EDGE_CURVE('',#1623,#1543,#1653,.T.);
#1653 = LINE('',#1654,#1655);
#1654 = CARTESIAN_POINT('',(3.48,2.73,0.));
#1655 = VECTOR('',#1656,1.);
#1656 = DIRECTION('',(0.,-1.,0.));
#1657 = PLANE('',#1658);
#1658 = AXIS2_PLACEMENT_3D('',#1659,#1660,#1661);
#1659 = CARTESIAN_POINT('',(3.48,2.73,0.));
#1660 = DIRECTION('',(1.,0.,-0.));
#1661 = DIRECTION('',(0.,-1.,0.));
#1662 = ADVANCED_FACE('',(#1663),#1669,.F.);
#1663 = FACE_BOUND('',#1664,.T.);
#1664 = EDGE_LOOP('',(#1665,#1666,#1667,#1668));
#1665 = ORIENTED_EDGE('',*,*,#1568,.T.);
#1666 = ORIENTED_EDGE('',*,*,#1599,.T.);
#1667 = ORIENTED_EDGE('',*,*,#1630,.T.);
#1668 = ORIENTED_EDGE('',*,*,#1652,.T.);
#1669 = PLANE('',#1670);
#1670 = AXIS2_PLACEMENT_3D('',#1671,#1672,#1673);
#1671 = CARTESIAN_POINT('',(0.,0.,0.));
#1672 = DIRECTION('',(0.,0.,1.));
#1673 = DIRECTION('',(1.,0.,-0.));
#1674 = ADVANCED_FACE('',(#1675),#1681,.T.);
#1675 = FACE_BOUND('',#1676,.F.);
#1676 = EDGE_LOOP('',(#1677,#1678,#1679,#1680));
#1677 = ORIENTED_EDGE('',*,*,#1552,.T.);
#1678 = ORIENTED_EDGE('',*,*,#1583,.T.);
#1679 = ORIENTED_EDGE('',*,*,#1614,.T.);
#1680 = ORIENTED_EDGE('',*,*,#1645,.T.);
#1681 = PLANE('',#1682);
#1682 = AXIS2_PLACEMENT_3D('',#1683,#1684,#1685);
#1683 = CARTESIAN_POINT('',(0.,0.,1.51));
#1684 = DIRECTION('',(0.,0.,1.));
#1685 = DIRECTION('',(1.,0.,-0.));
#1686 = ( GEOMETRIC_REPRESENTATION_CONTEXT(3) 
GLOBAL_UNCERTAINTY_ASSIGNED_CONTEXT((#1690)) 
GLOBAL_UNIT_ASSIGNED_CONTEXT((#1687,#1688,#1689)) REPRESENTATION_CONTEXT
('Context #1','3D Context with UNIT and UNCERTAINTY') );
#1687 = ( LENGTH_UNIT() NAMED_UNIT(*) SI_UNIT(.MILLI.,.METRE.) );
#1688 = ( NAMED_UNIT(*) PLANE_ANGLE_UNIT() SI_UNIT($,.RADIAN.) );
#1689 = ( NAMED_UNIT(*) SI_UNIT($,.STERADIAN.) SOLID_ANGLE_UNIT() );
#1690 = UNCERTAINTY_MEASURE_WITH_UNIT(LENGTH_MEASURE(1.E-07),#1687,
  'distance_accuracy_value','confusion accuracy');
#1691 = CONTEXT_DEPENDENT_SHAPE_REPRESENTATION(#1692,#1694);
#1692 = ( REPRESENTATION_RELATIONSHIP('','',#1535,#10) 
REPRESENTATION_RELATIONSHIP_WITH_TRANSFORMATION(#1693) 
SHAPE_REPRESENTATION_RELATIONSHIP() );
#1693 = ITEM_DEFINED_TRANSFORMATION('','',#11,#23);
#1694 = PRODUCT_DEFINITION_SHAPE('Placement','Placement of an item',
  #1695);
#1695 = NEXT_ASSEMBLY_USAGE_OCCURRENCE('4','=>[0:1:1:5]','',#5,#1530,$);
#1696 = PRODUCT_RELATED_PRODUCT_CATEGORY('part',$,(#1532));
#1697 = MECHANICAL_DESIGN_GEOMETRIC_PRESENTATION_REPRESENTATION('',(
    #1698),#1686);
#1698 = STYLED_ITEM('color',(#1699),#1536);
#1699 = PRESENTATION_STYLE_ASSIGNMENT((#1700));
#1700 = SURFACE_STYLE_USAGE(.BOTH.,#1701);
#1701 = SURFACE_SIDE_STYLE('',(#1702));
#1702 = SURFACE_STYLE_FILL_AREA(#1703);
#1703 = FILL_AREA_STYLE('',(#1704));
#1704 = FILL_AREA_STYLE_COLOUR('',#1705);
#1705 = COLOUR_RGB('',0.313304153717,0.484529207832,0.410020903123);
#1706 = MECHANICAL_DESIGN_GEOMETRIC_PRESENTATION_REPRESENTATION('',(
    #1707,#1715,#1722,#1729,#1736,#1743,#1750,#1757,#1764,#1771,#1778,
    #1786,#1793,#1800,#1807,#1814,#1821,#1828,#1835,#1842,#1849,#1856,
    #1863,#1870,#1877,#1884,#1891,#1898),#918);
#1707 = STYLED_ITEM('color',(#1708),#66);
#1708 = PRESENTATION_STYLE_ASSIGNMENT((#1709));
#1709 = SURFACE_STYLE_USAGE(.BOTH.,#1710);
#1710 = SURFACE_SIDE_STYLE('',(#1711));
#1711 = SURFACE_STYLE_FILL_AREA(#1712);
#1712 = FILL_AREA_STYLE('',(#1713));
#1713 = FILL_AREA_STYLE_COLOUR('',#1714);
#1714 = COLOUR_RGB('',0.823999987314,0.819999987296,0.781000009244);
#1715 = STYLED_ITEM('color',(#1716),#142);
#1716 = PRESENTATION_STYLE_ASSIGNMENT((#1717));
#1717 = SURFACE_STYLE_USAGE(.BOTH.,#1718);
#1718 = SURFACE_SIDE_STYLE('',(#1719));
#1719 = SURFACE_STYLE_FILL_AREA(#1720);
#1720 = FILL_AREA_STYLE('',(#1721));
#1721 = FILL_AREA_STYLE_COLOUR('',#1714);
#1722 = STYLED_ITEM('color',(#1723),#173);
#1723 = PRESENTATION_STYLE_ASSIGNMENT((#1724));
#1724 = SURFACE_STYLE_USAGE(.BOTH.,#1725);
#1725 = SURFACE_SIDE_STYLE('',(#1726));
#1726 = SURFACE_STYLE_FILL_AREA(#1727);
#1727 = FILL_AREA_STYLE('',(#1728));
#1728 = FILL_AREA_STYLE_COLOUR('',#1714);
#1729 = STYLED_ITEM('color',(#1730),#198);
#1730 = PRESENTATION_STYLE_ASSIGNMENT((#1731));
#1731 = SURFACE_STYLE_USAGE(.BOTH.,#1732);
#1732 = SURFACE_SIDE_STYLE('',(#1733));
#1733 = SURFACE_STYLE_FILL_AREA(#1734);
#1734 = FILL_AREA_STYLE('',(#1735));
#1735 = FILL_AREA_STYLE_COLOUR('',#1714);
#1736 = STYLED_ITEM('color',(#1737),#223);
#1737 = PRESENTATION_STYLE_ASSIGNMENT((#1738));
#1738 = SURFACE_STYLE_USAGE(.BOTH.,#1739);
#1739 = SURFACE_SIDE_STYLE('',(#1740));
#1740 = SURFACE_STYLE_FILL_AREA(#1741);
#1741 = FILL_AREA_STYLE('',(#1742));
#1742 = FILL_AREA_STYLE_COLOUR('',#1714);
#1743 = STYLED_ITEM('color',(#1744),#247);
#1744 = PRESENTATION_STYLE_ASSIGNMENT((#1745));
#1745 = SURFACE_STYLE_USAGE(.BOTH.,#1746);
#1746 = SURFACE_SIDE_STYLE('',(#1747));
#1747 = SURFACE_STYLE_FILL_AREA(#1748);
#1748 = FILL_AREA_STYLE('',(#1749));
#1749 = FILL_AREA_STYLE_COLOUR('',#1714);
#1750 = STYLED_ITEM('color',(#1751),#271);
#1751 = PRESENTATION_STYLE_ASSIGNMENT((#1752));
#1752 = SURFACE_STYLE_USAGE(.BOTH.,#1753);
#1753 = SURFACE_SIDE_STYLE('',(#1754));
#1754 = SURFACE_STYLE_FILL_AREA(#1755);
#1755 = FILL_AREA_STYLE('',(#1756));
#1756 = FILL_AREA_STYLE_COLOUR('',#1714);
#1757 = STYLED_ITEM('color',(#1758),#296);
#1758 = PRESENTATION_STYLE_ASSIGNMENT((#1759));
#1759 = SURFACE_STYLE_USAGE(.BOTH.,#1760);
#1760 = SURFACE_SIDE_STYLE('',(#1761));
#1761 = SURFACE_STYLE_FILL_AREA(#1762);
#1762 = FILL_AREA_STYLE('',(#1763));
#1763 = FILL_AREA_STYLE_COLOUR('',#1714);
#1764 = STYLED_ITEM('color',(#1765),#321);
#1765 = PRESENTATION_STYLE_ASSIGNMENT((#1766));
#1766 = SURFACE_STYLE_USAGE(.BOTH.,#1767);
#1767 = SURFACE_SIDE_STYLE('',(#1768));
#1768 = SURFACE_STYLE_FILL_AREA(#1769);
#1769 = FILL_AREA_STYLE('',(#1770));
#1770 = FILL_AREA_STYLE_COLOUR('',#1714);
#1771 = STYLED_ITEM('color',(#1772),#338);
#1772 = PRESENTATION_STYLE_ASSIGNMENT((#1773));
#1773 = SURFACE_STYLE_USAGE(.BOTH.,#1774);
#1774 = SURFACE_SIDE_STYLE('',(#1775));
#1775 = SURFACE_STYLE_FILL_AREA(#1776);
#1776 = FILL_AREA_STYLE('',(#1777));
#1777 = FILL_AREA_STYLE_COLOUR('',#1714);
#1778 = STYLED_ITEM('color',(#1779),#424);
#1779 = PRESENTATION_STYLE_ASSIGNMENT((#1780));
#1780 = SURFACE_STYLE_USAGE(.BOTH.,#1781);
#1781 = SURFACE_SIDE_STYLE('',(#1782));
#1782 = SURFACE_STYLE_FILL_AREA(#1783);
#1783 = FILL_AREA_STYLE('',(#1784));
#1784 = FILL_AREA_STYLE_COLOUR('',#1785);
#1785 = COLOUR_RGB('',0.379000005575,0.270000008848,0.214999999939);
#1786 = STYLED_ITEM('color',(#1787),#456);
#1787 = PRESENTATION_STYLE_ASSIGNMENT((#1788));
#1788 = SURFACE_STYLE_USAGE(.BOTH.,#1789);
#1789 = SURFACE_SIDE_STYLE('',(#1790));
#1790 = SURFACE_STYLE_FILL_AREA(#1791);
#1791 = FILL_AREA_STYLE('',(#1792));
#1792 = FILL_AREA_STYLE_COLOUR('',#1785);
#1793 = STYLED_ITEM('color',(#1794),#480);
#1794 = PRESENTATION_STYLE_ASSIGNMENT((#1795));
#1795 = SURFACE_STYLE_USAGE(.BOTH.,#1796);
#1796 = SURFACE_SIDE_STYLE('',(#1797));
#1797 = SURFACE_STYLE_FILL_AREA(#1798);
#1798 = FILL_AREA_STYLE('',(#1799));
#1799 = FILL_AREA_STYLE_COLOUR('',#1785);
#1800 = STYLED_ITEM('color',(#1801),#505);
#1801 = PRESENTATION_STYLE_ASSIGNMENT((#1802));
#1802 = SURFACE_STYLE_USAGE(.BOTH.,#1803);
#1803 = SURFACE_SIDE_STYLE('',(#1804));
#1804 = SURFACE_STYLE_FILL_AREA(#1805);
#1805 = FILL_AREA_STYLE('',(#1806));
#1806 = FILL_AREA_STYLE_COLOUR('',#1785);
#1807 = STYLED_ITEM('color',(#1808),#529);
#1808 = PRESENTATION_STYLE_ASSIGNMENT((#1809));
#1809 = SURFACE_STYLE_USAGE(.BOTH.,#1810);
#1810 = SURFACE_SIDE_STYLE('',(#1811));
#1811 = SURFACE_STYLE_FILL_AREA(#1812);
#1812 = FILL_AREA_STYLE('',(#1813));
#1813 = FILL_AREA_STYLE_COLOUR('',#1785);
#1814 = STYLED_ITEM('color',(#1815),#554);
#1815 = PRESENTATION_STYLE_ASSIGNMENT((#1816));
#1816 = SURFACE_STYLE_USAGE(.BOTH.,#1817);
#1817 = SURFACE_SIDE_STYLE('',(#1818));
#1818 = SURFACE_STYLE_FILL_AREA(#1819);
#1819 = FILL_AREA_STYLE('',(#1820));
#1820 = FILL_AREA_STYLE_COLOUR('',#1785);
#1821 = STYLED_ITEM('color',(#1822),#578);
#1822 = PRESENTATION_STYLE_ASSIGNMENT((#1823));
#1823 = SURFACE_STYLE_USAGE(.BOTH.,#1824);
#1824 = SURFACE_SIDE_STYLE('',(#1825));
#1825 = SURFACE_STYLE_FILL_AREA(#1826);
#1826 = FILL_AREA_STYLE('',(#1827));
#1827 = FILL_AREA_STYLE_COLOUR('',#1785);
#1828 = STYLED_ITEM('color',(#1829),#603);
#1829 = PRESENTATION_STYLE_ASSIGNMENT((#1830));
#1830 = SURFACE_STYLE_USAGE(.BOTH.,#1831);
#1831 = SURFACE_SIDE_STYLE('',(#1832));
#1832 = SURFACE_STYLE_FILL_AREA(#1833);
#1833 = FILL_AREA_STYLE('',(#1834));
#1834 = FILL_AREA_STYLE_COLOUR('',#1785);
#1835 = STYLED_ITEM('color',(#1836),#620);
#1836 = PRESENTATION_STYLE_ASSIGNMENT((#1837));
#1837 = SURFACE_STYLE_USAGE(.BOTH.,#1838);
#1838 = SURFACE_SIDE_STYLE('',(#1839));
#1839 = SURFACE_STYLE_FILL_AREA(#1840);
#1840 = FILL_AREA_STYLE('',(#1841));
#1841 = FILL_AREA_STYLE_COLOUR('',#1714);
#1842 = STYLED_ITEM('color',(#1843),#706);
#1843 = PRESENTATION_STYLE_ASSIGNMENT((#1844));
#1844 = SURFACE_STYLE_USAGE(.BOTH.,#1845);
#1845 = SURFACE_SIDE_STYLE('',(#1846));
#1846 = SURFACE_STYLE_FILL_AREA(#1847);
#1847 = FILL_AREA_STYLE('',(#1848));
#1848 = FILL_AREA_STYLE_COLOUR('',#1714);
#1849 = STYLED_ITEM('color',(#1850),#737);
#1850 = PRESENTATION_STYLE_ASSIGNMENT((#1851));
#1851 = SURFACE_STYLE_USAGE(.BOTH.,#1852);
#1852 = SURFACE_SIDE_STYLE('',(#1853));
#1853 = SURFACE_STYLE_FILL_AREA(#1854);
#1854 = FILL_AREA_STYLE('',(#1855));
#1855 = FILL_AREA_STYLE_COLOUR('',#1714);
#1856 = STYLED_ITEM('color',(#1857),#762);
#1857 = PRESENTATION_STYLE_ASSIGNMENT((#1858));
#1858 = SURFACE_STYLE_USAGE(.BOTH.,#1859);
#1859 = SURFACE_SIDE_STYLE('',(#1860));
#1860 = SURFACE_STYLE_FILL_AREA(#1861);
#1861 = FILL_AREA_STYLE('',(#1862));
#1862 = FILL_AREA_STYLE_COLOUR('',#1714);
#1863 = STYLED_ITEM('color',(#1864),#787);
#1864 = PRESENTATION_STYLE_ASSIGNMENT((#1865));
#1865 = SURFACE_STYLE_USAGE(.BOTH.,#1866);
#1866 = SURFACE_SIDE_STYLE('',(#1867));
#1867 = SURFACE_STYLE_FILL_AREA(#1868);
#1868 = FILL_AREA_STYLE('',(#1869));
#1869 = FILL_AREA_STYLE_COLOUR('',#1714);
#1870 = STYLED_ITEM('color',(#1871),#811);
#1871 = PRESENTATION_STYLE_ASSIGNMENT((#1872));
#1872 = SURFACE_STYLE_USAGE(.BOTH.,#1873);
#1873 = SURFACE_SIDE_STYLE('',(#1874));
#1874 = SURFACE_STYLE_FILL_AREA(#1875);
#1875 = FILL_AREA_STYLE('',(#1876));
#1876 = FILL_AREA_STYLE_COLOUR('',#1714);
#1877 = STYLED_ITEM('color',(#1878),#835);
#1878 = PRESENTATION_STYLE_ASSIGNMENT((#1879));
#1879 = SURFACE_STYLE_USAGE(.BOTH.,#1880);
#1880 = SURFACE_SIDE_STYLE('',(#1881));
#1881 = SURFACE_STYLE_FILL_AREA(#1882);
#1882 = FILL_AREA_STYLE('',(#1883));
#1883 = FILL_AREA_STYLE_COLOUR('',#1714);
#1884 = STYLED_ITEM('color',(#1885),#860);
#1885 = PRESENTATION_STYLE_ASSIGNMENT((#1886));
#1886 = SURFACE_STYLE_USAGE(.BOTH.,#1887);
#1887 = SURFACE_SIDE_STYLE('',(#1888));
#1888 = SURFACE_STYLE_FILL_AREA(#1889);
#1889 = FILL_AREA_STYLE('',(#1890));
#1890 = FILL_AREA_STYLE_COLOUR('',#1714);
#1891 = STYLED_ITEM('color',(#1892),#885);
#1892 = PRESENTATION_STYLE_ASSIGNMENT((#1893));
#1893 = SURFACE_STYLE_USAGE(.BOTH.,#1894);
#1894 = SURFACE_SIDE_STYLE('',(#1895));
#1895 = SURFACE_STYLE_FILL_AREA(#1896);
#1896 = FILL_AREA_STYLE('',(#1897));
#1897 = FILL_AREA_STYLE_COLOUR('',#1714);
#1898 = STYLED_ITEM('color',(#1899),#902);
#1899 = PRESENTATION_STYLE_ASSIGNMENT((#1900));
#1900 = SURFACE_STYLE_USAGE(.BOTH.,#1901);
#1901 = SURFACE_SIDE_STYLE('',(#1902));
#1902 = SURFACE_STYLE_FILL_AREA(#1903);
#1903 = FILL_AREA_STYLE('',(#1904));
#1904 = FILL_AREA_STYLE_COLOUR('',#1714);
#1905 = MECHANICAL_DESIGN_GEOMETRIC_PRESENTATION_REPRESENTATION('',(
    #1906,#1914),#1517);
#1906 = STYLED_ITEM('color',(#1907),#937);
#1907 = PRESENTATION_STYLE_ASSIGNMENT((#1908));
#1908 = SURFACE_STYLE_USAGE(.BOTH.,#1909);
#1909 = SURFACE_SIDE_STYLE('',(#1910));
#1910 = SURFACE_STYLE_FILL_AREA(#1911);
#1911 = FILL_AREA_STYLE('',(#1912));
#1912 = FILL_AREA_STYLE_COLOUR('',#1913);
#1913 = COLOUR_RGB('',0.735356983052,0.735356983052,0.735356983052);
#1914 = STYLED_ITEM('color',(#1915),#1227);
#1915 = PRESENTATION_STYLE_ASSIGNMENT((#1916));
#1916 = SURFACE_STYLE_USAGE(.BOTH.,#1917);
#1917 = SURFACE_SIDE_STYLE('',(#1918));
#1918 = SURFACE_STYLE_FILL_AREA(#1919);
#1919 = FILL_AREA_STYLE('',(#1920));
#1920 = FILL_AREA_STYLE_COLOUR('',#1913);
ENDSEC;
END-ISO-10303-21;
