%TF.GenerationSoftware,KiCad,Pcbnew,10.99.0-3671-gbe90a7e200*%
%TF.CreationDate,2026-09-10T00:04:27+01:00*%
%TF.ProjectId,kicad_file,6b696361-645f-4666-996c-652e6b696361,rev?*%
%TF.SameCoordinates,Original*%
%TF.FileFunction,Drillmap*%
%TF.FilePolarity,Positive*%
%FSLAX45Y45*%
G04 Gerber Fmt 4.5, Leading zero omitted, Abs format (unit mm)*
G04 Created by KiCad (PCBNEW 10.99.0-3671-gbe90a7e200) date 2026-09-10 00:04:27*
%MOMM*%
%LPD*%
G01*
G04 APERTURE LIST*
%ADD10C,0.050000*%
%ADD11C,0.200000*%
%ADD12C,0.100000*%
G04 APERTURE END LIST*
D10*
X-3175000Y2286000D02*
X-3175000Y-254000D01*
X-3175000Y-254000D02*
X3175000Y-254000D01*
X3175000Y2286000D02*
X-3175000Y2286000D01*
X3175000Y-254000D02*
X3175000Y2286000D01*
D11*
D12*
X-2946000Y431400D02*
X-2896000Y381400D01*
X-2896000Y431400D02*
X-2946000Y381400D01*
X-2998000Y2159000D02*
G75*
G02*
X-3098000Y2159000I-50000J0D01*
G01*
X-3098000Y2159000D02*
G75*
G02*
X-2998000Y2159000I50000J0D01*
G01*
X-2998000Y127000D02*
G75*
G02*
X-3098000Y127000I-50000J0D01*
G01*
X-3098000Y127000D02*
G75*
G02*
X-2998000Y127000I50000J0D01*
G01*
X-2998000Y-127000D02*
G75*
G02*
X-3098000Y-127000I-50000J0D01*
G01*
X-3098000Y-127000D02*
G75*
G02*
X-2998000Y-127000I50000J0D01*
G01*
X-2744000Y2159000D02*
G75*
G02*
X-2844000Y2159000I-50000J0D01*
G01*
X-2844000Y2159000D02*
G75*
G02*
X-2744000Y2159000I50000J0D01*
G01*
X-2744000Y127000D02*
G75*
G02*
X-2844000Y127000I-50000J0D01*
G01*
X-2844000Y127000D02*
G75*
G02*
X-2744000Y127000I50000J0D01*
G01*
X-2744000Y-127000D02*
G75*
G02*
X-2844000Y-127000I-50000J0D01*
G01*
X-2844000Y-127000D02*
G75*
G02*
X-2744000Y-127000I50000J0D01*
G01*
X-2490000Y2159000D02*
G75*
G02*
X-2590000Y2159000I-50000J0D01*
G01*
X-2590000Y2159000D02*
G75*
G02*
X-2490000Y2159000I50000J0D01*
G01*
X-2490000Y127000D02*
G75*
G02*
X-2590000Y127000I-50000J0D01*
G01*
X-2590000Y127000D02*
G75*
G02*
X-2490000Y127000I50000J0D01*
G01*
X-2490000Y-127000D02*
G75*
G02*
X-2590000Y-127000I-50000J0D01*
G01*
X-2590000Y-127000D02*
G75*
G02*
X-2490000Y-127000I50000J0D01*
G01*
X-2236000Y2159000D02*
G75*
G02*
X-2336000Y2159000I-50000J0D01*
G01*
X-2336000Y2159000D02*
G75*
G02*
X-2236000Y2159000I50000J0D01*
G01*
X-2236000Y127000D02*
G75*
G02*
X-2336000Y127000I-50000J0D01*
G01*
X-2336000Y127000D02*
G75*
G02*
X-2236000Y127000I50000J0D01*
G01*
X-2236000Y-127000D02*
G75*
G02*
X-2336000Y-127000I-50000J0D01*
G01*
X-2336000Y-127000D02*
G75*
G02*
X-2236000Y-127000I50000J0D01*
G01*
X-1982000Y2159000D02*
G75*
G02*
X-2082000Y2159000I-50000J0D01*
G01*
X-2082000Y2159000D02*
G75*
G02*
X-1982000Y2159000I50000J0D01*
G01*
X-1982000Y127000D02*
G75*
G02*
X-2082000Y127000I-50000J0D01*
G01*
X-2082000Y127000D02*
G75*
G02*
X-1982000Y127000I50000J0D01*
G01*
X-1982000Y-127000D02*
G75*
G02*
X-2082000Y-127000I-50000J0D01*
G01*
X-2082000Y-127000D02*
G75*
G02*
X-1982000Y-127000I50000J0D01*
G01*
X-1728000Y2159000D02*
G75*
G02*
X-1828000Y2159000I-50000J0D01*
G01*
X-1828000Y2159000D02*
G75*
G02*
X-1728000Y2159000I50000J0D01*
G01*
X-1728000Y127000D02*
G75*
G02*
X-1828000Y127000I-50000J0D01*
G01*
X-1828000Y127000D02*
G75*
G02*
X-1728000Y127000I50000J0D01*
G01*
X-1728000Y-127000D02*
G75*
G02*
X-1828000Y-127000I-50000J0D01*
G01*
X-1828000Y-127000D02*
G75*
G02*
X-1728000Y-127000I50000J0D01*
G01*
X-1474000Y2159000D02*
G75*
G02*
X-1574000Y2159000I-50000J0D01*
G01*
X-1574000Y2159000D02*
G75*
G02*
X-1474000Y2159000I50000J0D01*
G01*
X-1474000Y127000D02*
G75*
G02*
X-1574000Y127000I-50000J0D01*
G01*
X-1574000Y127000D02*
G75*
G02*
X-1474000Y127000I50000J0D01*
G01*
X-1474000Y-127000D02*
G75*
G02*
X-1574000Y-127000I-50000J0D01*
G01*
X-1574000Y-127000D02*
G75*
G02*
X-1474000Y-127000I50000J0D01*
G01*
X-1220000Y2159000D02*
G75*
G02*
X-1320000Y2159000I-50000J0D01*
G01*
X-1320000Y2159000D02*
G75*
G02*
X-1220000Y2159000I50000J0D01*
G01*
X-1220000Y127000D02*
G75*
G02*
X-1320000Y127000I-50000J0D01*
G01*
X-1320000Y127000D02*
G75*
G02*
X-1220000Y127000I50000J0D01*
G01*
X-1220000Y-127000D02*
G75*
G02*
X-1320000Y-127000I-50000J0D01*
G01*
X-1320000Y-127000D02*
G75*
G02*
X-1220000Y-127000I50000J0D01*
G01*
X-966000Y2159000D02*
G75*
G02*
X-1066000Y2159000I-50000J0D01*
G01*
X-1066000Y2159000D02*
G75*
G02*
X-966000Y2159000I50000J0D01*
G01*
X-966000Y127000D02*
G75*
G02*
X-1066000Y127000I-50000J0D01*
G01*
X-1066000Y127000D02*
G75*
G02*
X-966000Y127000I50000J0D01*
G01*
X-966000Y-127000D02*
G75*
G02*
X-1066000Y-127000I-50000J0D01*
G01*
X-1066000Y-127000D02*
G75*
G02*
X-966000Y-127000I50000J0D01*
G01*
X-712000Y2159000D02*
G75*
G02*
X-812000Y2159000I-50000J0D01*
G01*
X-812000Y2159000D02*
G75*
G02*
X-712000Y2159000I50000J0D01*
G01*
X-712000Y127000D02*
G75*
G02*
X-812000Y127000I-50000J0D01*
G01*
X-812000Y127000D02*
G75*
G02*
X-712000Y127000I50000J0D01*
G01*
X-712000Y-127000D02*
G75*
G02*
X-812000Y-127000I-50000J0D01*
G01*
X-812000Y-127000D02*
G75*
G02*
X-712000Y-127000I50000J0D01*
G01*
X-458000Y2159000D02*
G75*
G02*
X-558000Y2159000I-50000J0D01*
G01*
X-558000Y2159000D02*
G75*
G02*
X-458000Y2159000I50000J0D01*
G01*
X-458000Y127000D02*
G75*
G02*
X-558000Y127000I-50000J0D01*
G01*
X-558000Y127000D02*
G75*
G02*
X-458000Y127000I50000J0D01*
G01*
X-458000Y-127000D02*
G75*
G02*
X-558000Y-127000I-50000J0D01*
G01*
X-558000Y-127000D02*
G75*
G02*
X-458000Y-127000I50000J0D01*
G01*
X-204000Y2159000D02*
G75*
G02*
X-304000Y2159000I-50000J0D01*
G01*
X-304000Y2159000D02*
G75*
G02*
X-204000Y2159000I50000J0D01*
G01*
X-204000Y127000D02*
G75*
G02*
X-304000Y127000I-50000J0D01*
G01*
X-304000Y127000D02*
G75*
G02*
X-204000Y127000I50000J0D01*
G01*
X-204000Y-127000D02*
G75*
G02*
X-304000Y-127000I-50000J0D01*
G01*
X-304000Y-127000D02*
G75*
G02*
X-204000Y-127000I50000J0D01*
G01*
X50000Y2159000D02*
G75*
G02*
X-50000Y2159000I-50000J0D01*
G01*
X-50000Y2159000D02*
G75*
G02*
X50000Y2159000I50000J0D01*
G01*
X50000Y127000D02*
G75*
G02*
X-50000Y127000I-50000J0D01*
G01*
X-50000Y127000D02*
G75*
G02*
X50000Y127000I50000J0D01*
G01*
X50000Y-127000D02*
G75*
G02*
X-50000Y-127000I-50000J0D01*
G01*
X-50000Y-127000D02*
G75*
G02*
X50000Y-127000I50000J0D01*
G01*
X304000Y2159000D02*
G75*
G02*
X204000Y2159000I-50000J0D01*
G01*
X204000Y2159000D02*
G75*
G02*
X304000Y2159000I50000J0D01*
G01*
X304000Y127000D02*
G75*
G02*
X204000Y127000I-50000J0D01*
G01*
X204000Y127000D02*
G75*
G02*
X304000Y127000I50000J0D01*
G01*
X304000Y-127000D02*
G75*
G02*
X204000Y-127000I-50000J0D01*
G01*
X204000Y-127000D02*
G75*
G02*
X304000Y-127000I50000J0D01*
G01*
X558000Y2159000D02*
G75*
G02*
X458000Y2159000I-50000J0D01*
G01*
X458000Y2159000D02*
G75*
G02*
X558000Y2159000I50000J0D01*
G01*
X558000Y127000D02*
G75*
G02*
X458000Y127000I-50000J0D01*
G01*
X458000Y127000D02*
G75*
G02*
X558000Y127000I50000J0D01*
G01*
X558000Y-127000D02*
G75*
G02*
X458000Y-127000I-50000J0D01*
G01*
X458000Y-127000D02*
G75*
G02*
X558000Y-127000I50000J0D01*
G01*
X812000Y2159000D02*
G75*
G02*
X712000Y2159000I-50000J0D01*
G01*
X712000Y2159000D02*
G75*
G02*
X812000Y2159000I50000J0D01*
G01*
X812000Y127000D02*
G75*
G02*
X712000Y127000I-50000J0D01*
G01*
X712000Y127000D02*
G75*
G02*
X812000Y127000I50000J0D01*
G01*
X812000Y-127000D02*
G75*
G02*
X712000Y-127000I-50000J0D01*
G01*
X712000Y-127000D02*
G75*
G02*
X812000Y-127000I50000J0D01*
G01*
X1066000Y2159000D02*
G75*
G02*
X966000Y2159000I-50000J0D01*
G01*
X966000Y2159000D02*
G75*
G02*
X1066000Y2159000I50000J0D01*
G01*
X1066000Y127000D02*
G75*
G02*
X966000Y127000I-50000J0D01*
G01*
X966000Y127000D02*
G75*
G02*
X1066000Y127000I50000J0D01*
G01*
X1066000Y-127000D02*
G75*
G02*
X966000Y-127000I-50000J0D01*
G01*
X966000Y-127000D02*
G75*
G02*
X1066000Y-127000I50000J0D01*
G01*
X1320000Y2159000D02*
G75*
G02*
X1220000Y2159000I-50000J0D01*
G01*
X1220000Y2159000D02*
G75*
G02*
X1320000Y2159000I50000J0D01*
G01*
X1320000Y127000D02*
G75*
G02*
X1220000Y127000I-50000J0D01*
G01*
X1220000Y127000D02*
G75*
G02*
X1320000Y127000I50000J0D01*
G01*
X1320000Y-127000D02*
G75*
G02*
X1220000Y-127000I-50000J0D01*
G01*
X1220000Y-127000D02*
G75*
G02*
X1320000Y-127000I50000J0D01*
G01*
X1574000Y2159000D02*
G75*
G02*
X1474000Y2159000I-50000J0D01*
G01*
X1474000Y2159000D02*
G75*
G02*
X1574000Y2159000I50000J0D01*
G01*
X1574000Y127000D02*
G75*
G02*
X1474000Y127000I-50000J0D01*
G01*
X1474000Y127000D02*
G75*
G02*
X1574000Y127000I50000J0D01*
G01*
X1574000Y-127000D02*
G75*
G02*
X1474000Y-127000I-50000J0D01*
G01*
X1474000Y-127000D02*
G75*
G02*
X1574000Y-127000I50000J0D01*
G01*
X1828000Y2159000D02*
G75*
G02*
X1728000Y2159000I-50000J0D01*
G01*
X1728000Y2159000D02*
G75*
G02*
X1828000Y2159000I50000J0D01*
G01*
X1828000Y127000D02*
G75*
G02*
X1728000Y127000I-50000J0D01*
G01*
X1728000Y127000D02*
G75*
G02*
X1828000Y127000I50000J0D01*
G01*
X1828000Y-127000D02*
G75*
G02*
X1728000Y-127000I-50000J0D01*
G01*
X1728000Y-127000D02*
G75*
G02*
X1828000Y-127000I50000J0D01*
G01*
X2082000Y2159000D02*
G75*
G02*
X1982000Y2159000I-50000J0D01*
G01*
X1982000Y2159000D02*
G75*
G02*
X2082000Y2159000I50000J0D01*
G01*
X2082000Y127000D02*
G75*
G02*
X1982000Y127000I-50000J0D01*
G01*
X1982000Y127000D02*
G75*
G02*
X2082000Y127000I50000J0D01*
G01*
X2082000Y-127000D02*
G75*
G02*
X1982000Y-127000I-50000J0D01*
G01*
X1982000Y-127000D02*
G75*
G02*
X2082000Y-127000I50000J0D01*
G01*
X2336000Y2159000D02*
G75*
G02*
X2236000Y2159000I-50000J0D01*
G01*
X2236000Y2159000D02*
G75*
G02*
X2336000Y2159000I50000J0D01*
G01*
X2336000Y127000D02*
G75*
G02*
X2236000Y127000I-50000J0D01*
G01*
X2236000Y127000D02*
G75*
G02*
X2336000Y127000I50000J0D01*
G01*
X2336000Y-127000D02*
G75*
G02*
X2236000Y-127000I-50000J0D01*
G01*
X2236000Y-127000D02*
G75*
G02*
X2336000Y-127000I50000J0D01*
G01*
X2590000Y2159000D02*
G75*
G02*
X2490000Y2159000I-50000J0D01*
G01*
X2490000Y2159000D02*
G75*
G02*
X2590000Y2159000I50000J0D01*
G01*
X2590000Y127000D02*
G75*
G02*
X2490000Y127000I-50000J0D01*
G01*
X2490000Y127000D02*
G75*
G02*
X2590000Y127000I50000J0D01*
G01*
X2590000Y-127000D02*
G75*
G02*
X2490000Y-127000I-50000J0D01*
G01*
X2490000Y-127000D02*
G75*
G02*
X2590000Y-127000I50000J0D01*
G01*
X2844000Y2159000D02*
G75*
G02*
X2744000Y2159000I-50000J0D01*
G01*
X2744000Y2159000D02*
G75*
G02*
X2844000Y2159000I50000J0D01*
G01*
X2844000Y127000D02*
G75*
G02*
X2744000Y127000I-50000J0D01*
G01*
X2744000Y127000D02*
G75*
G02*
X2844000Y127000I50000J0D01*
G01*
X2844000Y-127000D02*
G75*
G02*
X2744000Y-127000I-50000J0D01*
G01*
X2744000Y-127000D02*
G75*
G02*
X2844000Y-127000I50000J0D01*
G01*
X3098000Y2159000D02*
G75*
G02*
X2998000Y2159000I-50000J0D01*
G01*
X2998000Y2159000D02*
G75*
G02*
X3098000Y2159000I50000J0D01*
G01*
X3098000Y127000D02*
G75*
G02*
X2998000Y127000I-50000J0D01*
G01*
X2998000Y127000D02*
G75*
G02*
X3098000Y127000I50000J0D01*
G01*
X3098000Y-127000D02*
G75*
G02*
X2998000Y-127000I-50000J0D01*
G01*
X2998000Y-127000D02*
G75*
G02*
X3098000Y-127000I50000J0D01*
G01*
D11*
X-2916723Y-567984D02*
X-2916723Y-367984D01*
X-2916723Y-367984D02*
X-2869104Y-367984D01*
X-2869104Y-367984D02*
X-2840533Y-377508D01*
X-2840533Y-377508D02*
X-2821485Y-396555D01*
X-2821485Y-396555D02*
X-2811961Y-415603D01*
X-2811961Y-415603D02*
X-2802437Y-453698D01*
X-2802437Y-453698D02*
X-2802437Y-482269D01*
X-2802437Y-482269D02*
X-2811961Y-520365D01*
X-2811961Y-520365D02*
X-2821485Y-539412D01*
X-2821485Y-539412D02*
X-2840533Y-558460D01*
X-2840533Y-558460D02*
X-2869104Y-567984D01*
X-2869104Y-567984D02*
X-2916723Y-567984D01*
X-2716723Y-567984D02*
X-2716723Y-434650D01*
X-2716723Y-472746D02*
X-2707199Y-453698D01*
X-2707199Y-453698D02*
X-2697676Y-444174D01*
X-2697676Y-444174D02*
X-2678628Y-434650D01*
X-2678628Y-434650D02*
X-2659580Y-434650D01*
X-2592914Y-567984D02*
X-2592914Y-434650D01*
X-2592914Y-367984D02*
X-2602437Y-377508D01*
X-2602437Y-377508D02*
X-2592914Y-387031D01*
X-2592914Y-387031D02*
X-2583390Y-377508D01*
X-2583390Y-377508D02*
X-2592914Y-367984D01*
X-2592914Y-367984D02*
X-2592914Y-387031D01*
X-2469104Y-567984D02*
X-2488152Y-558460D01*
X-2488152Y-558460D02*
X-2497676Y-539412D01*
X-2497676Y-539412D02*
X-2497676Y-367984D01*
X-2364342Y-567984D02*
X-2383390Y-558460D01*
X-2383390Y-558460D02*
X-2392914Y-539412D01*
X-2392914Y-539412D02*
X-2392914Y-367984D01*
X-2135771Y-567984D02*
X-2135771Y-367984D01*
X-2135771Y-367984D02*
X-2069104Y-510841D01*
X-2069104Y-510841D02*
X-2002437Y-367984D01*
X-2002437Y-367984D02*
X-2002437Y-567984D01*
X-1821485Y-567984D02*
X-1821485Y-463222D01*
X-1821485Y-463222D02*
X-1831009Y-444174D01*
X-1831009Y-444174D02*
X-1850056Y-434650D01*
X-1850056Y-434650D02*
X-1888152Y-434650D01*
X-1888152Y-434650D02*
X-1907199Y-444174D01*
X-1821485Y-558460D02*
X-1840533Y-567984D01*
X-1840533Y-567984D02*
X-1888152Y-567984D01*
X-1888152Y-567984D02*
X-1907199Y-558460D01*
X-1907199Y-558460D02*
X-1916723Y-539412D01*
X-1916723Y-539412D02*
X-1916723Y-520365D01*
X-1916723Y-520365D02*
X-1907199Y-501317D01*
X-1907199Y-501317D02*
X-1888152Y-491793D01*
X-1888152Y-491793D02*
X-1840533Y-491793D01*
X-1840533Y-491793D02*
X-1821485Y-482269D01*
X-1726247Y-434650D02*
X-1726247Y-634650D01*
X-1726247Y-444174D02*
X-1707199Y-434650D01*
X-1707199Y-434650D02*
X-1669104Y-434650D01*
X-1669104Y-434650D02*
X-1650056Y-444174D01*
X-1650056Y-444174D02*
X-1640533Y-453698D01*
X-1640533Y-453698D02*
X-1631009Y-472746D01*
X-1631009Y-472746D02*
X-1631009Y-529889D01*
X-1631009Y-529889D02*
X-1640533Y-548936D01*
X-1640533Y-548936D02*
X-1650056Y-558460D01*
X-1650056Y-558460D02*
X-1669104Y-567984D01*
X-1669104Y-567984D02*
X-1707199Y-567984D01*
X-1707199Y-567984D02*
X-1726247Y-558460D01*
X-1545294Y-548936D02*
X-1535771Y-558460D01*
X-1535771Y-558460D02*
X-1545294Y-567984D01*
X-1545294Y-567984D02*
X-1554818Y-558460D01*
X-1554818Y-558460D02*
X-1545294Y-548936D01*
X-1545294Y-548936D02*
X-1545294Y-567984D01*
X-1545294Y-444174D02*
X-1535771Y-453698D01*
X-1535771Y-453698D02*
X-1545294Y-463222D01*
X-1545294Y-463222D02*
X-1554818Y-453698D01*
X-1554818Y-453698D02*
X-1545294Y-444174D01*
X-1545294Y-444174D02*
X-1545294Y-463222D01*
D12*
X-3227500Y-871500D02*
X-3177500Y-921500D01*
X-3177500Y-871500D02*
X-3227500Y-921500D01*
D11*
X-2878628Y-787984D02*
X-2859580Y-787984D01*
X-2859580Y-787984D02*
X-2840533Y-797508D01*
X-2840533Y-797508D02*
X-2831009Y-807031D01*
X-2831009Y-807031D02*
X-2821485Y-826079D01*
X-2821485Y-826079D02*
X-2811961Y-864174D01*
X-2811961Y-864174D02*
X-2811961Y-911793D01*
X-2811961Y-911793D02*
X-2821485Y-949888D01*
X-2821485Y-949888D02*
X-2831009Y-968936D01*
X-2831009Y-968936D02*
X-2840533Y-978460D01*
X-2840533Y-978460D02*
X-2859580Y-987984D01*
X-2859580Y-987984D02*
X-2878628Y-987984D01*
X-2878628Y-987984D02*
X-2897675Y-978460D01*
X-2897675Y-978460D02*
X-2907199Y-968936D01*
X-2907199Y-968936D02*
X-2916723Y-949888D01*
X-2916723Y-949888D02*
X-2926247Y-911793D01*
X-2926247Y-911793D02*
X-2926247Y-864174D01*
X-2926247Y-864174D02*
X-2916723Y-826079D01*
X-2916723Y-826079D02*
X-2907199Y-807031D01*
X-2907199Y-807031D02*
X-2897675Y-797508D01*
X-2897675Y-797508D02*
X-2878628Y-787984D01*
X-2726247Y-968936D02*
X-2716723Y-978460D01*
X-2716723Y-978460D02*
X-2726247Y-987984D01*
X-2726247Y-987984D02*
X-2735771Y-978460D01*
X-2735771Y-978460D02*
X-2726247Y-968936D01*
X-2726247Y-968936D02*
X-2726247Y-987984D01*
X-2535771Y-787984D02*
X-2631009Y-787984D01*
X-2631009Y-787984D02*
X-2640533Y-883222D01*
X-2640533Y-883222D02*
X-2631009Y-873698D01*
X-2631009Y-873698D02*
X-2611961Y-864174D01*
X-2611961Y-864174D02*
X-2564342Y-864174D01*
X-2564342Y-864174D02*
X-2545295Y-873698D01*
X-2545295Y-873698D02*
X-2535771Y-883222D01*
X-2535771Y-883222D02*
X-2526247Y-902269D01*
X-2526247Y-902269D02*
X-2526247Y-949888D01*
X-2526247Y-949888D02*
X-2535771Y-968936D01*
X-2535771Y-968936D02*
X-2545295Y-978460D01*
X-2545295Y-978460D02*
X-2564342Y-987984D01*
X-2564342Y-987984D02*
X-2611961Y-987984D01*
X-2611961Y-987984D02*
X-2631009Y-978460D01*
X-2631009Y-978460D02*
X-2640533Y-968936D01*
X-2402437Y-787984D02*
X-2383390Y-787984D01*
X-2383390Y-787984D02*
X-2364342Y-797508D01*
X-2364342Y-797508D02*
X-2354818Y-807031D01*
X-2354818Y-807031D02*
X-2345295Y-826079D01*
X-2345295Y-826079D02*
X-2335771Y-864174D01*
X-2335771Y-864174D02*
X-2335771Y-911793D01*
X-2335771Y-911793D02*
X-2345295Y-949888D01*
X-2345295Y-949888D02*
X-2354818Y-968936D01*
X-2354818Y-968936D02*
X-2364342Y-978460D01*
X-2364342Y-978460D02*
X-2383390Y-987984D01*
X-2383390Y-987984D02*
X-2402437Y-987984D01*
X-2402437Y-987984D02*
X-2421485Y-978460D01*
X-2421485Y-978460D02*
X-2431009Y-968936D01*
X-2431009Y-968936D02*
X-2440533Y-949888D01*
X-2440533Y-949888D02*
X-2450056Y-911793D01*
X-2450056Y-911793D02*
X-2450056Y-864174D01*
X-2450056Y-864174D02*
X-2440533Y-826079D01*
X-2440533Y-826079D02*
X-2431009Y-807031D01*
X-2431009Y-807031D02*
X-2421485Y-797508D01*
X-2421485Y-797508D02*
X-2402437Y-787984D01*
X-2211961Y-787984D02*
X-2192914Y-787984D01*
X-2192914Y-787984D02*
X-2173866Y-797508D01*
X-2173866Y-797508D02*
X-2164342Y-807031D01*
X-2164342Y-807031D02*
X-2154818Y-826079D01*
X-2154818Y-826079D02*
X-2145295Y-864174D01*
X-2145295Y-864174D02*
X-2145295Y-911793D01*
X-2145295Y-911793D02*
X-2154818Y-949888D01*
X-2154818Y-949888D02*
X-2164342Y-968936D01*
X-2164342Y-968936D02*
X-2173866Y-978460D01*
X-2173866Y-978460D02*
X-2192914Y-987984D01*
X-2192914Y-987984D02*
X-2211961Y-987984D01*
X-2211961Y-987984D02*
X-2231009Y-978460D01*
X-2231009Y-978460D02*
X-2240533Y-968936D01*
X-2240533Y-968936D02*
X-2250056Y-949888D01*
X-2250056Y-949888D02*
X-2259580Y-911793D01*
X-2259580Y-911793D02*
X-2259580Y-864174D01*
X-2259580Y-864174D02*
X-2250056Y-826079D01*
X-2250056Y-826079D02*
X-2240533Y-807031D01*
X-2240533Y-807031D02*
X-2231009Y-797508D01*
X-2231009Y-797508D02*
X-2211961Y-787984D01*
X-2059580Y-987984D02*
X-2059580Y-854650D01*
X-2059580Y-873698D02*
X-2050056Y-864174D01*
X-2050056Y-864174D02*
X-2031009Y-854650D01*
X-2031009Y-854650D02*
X-2002437Y-854650D01*
X-2002437Y-854650D02*
X-1983390Y-864174D01*
X-1983390Y-864174D02*
X-1973866Y-883222D01*
X-1973866Y-883222D02*
X-1973866Y-987984D01*
X-1973866Y-883222D02*
X-1964342Y-864174D01*
X-1964342Y-864174D02*
X-1945294Y-854650D01*
X-1945294Y-854650D02*
X-1916723Y-854650D01*
X-1916723Y-854650D02*
X-1897675Y-864174D01*
X-1897675Y-864174D02*
X-1888152Y-883222D01*
X-1888152Y-883222D02*
X-1888152Y-987984D01*
X-1792913Y-987984D02*
X-1792913Y-854650D01*
X-1792913Y-873698D02*
X-1783390Y-864174D01*
X-1783390Y-864174D02*
X-1764342Y-854650D01*
X-1764342Y-854650D02*
X-1735771Y-854650D01*
X-1735771Y-854650D02*
X-1716723Y-864174D01*
X-1716723Y-864174D02*
X-1707199Y-883222D01*
X-1707199Y-883222D02*
X-1707199Y-987984D01*
X-1707199Y-883222D02*
X-1697675Y-864174D01*
X-1697675Y-864174D02*
X-1678628Y-854650D01*
X-1678628Y-854650D02*
X-1650056Y-854650D01*
X-1650056Y-854650D02*
X-1631009Y-864174D01*
X-1631009Y-864174D02*
X-1621485Y-883222D01*
X-1621485Y-883222D02*
X-1621485Y-987984D01*
X-1231009Y-778460D02*
X-1402437Y-1035603D01*
X-973866Y-787984D02*
X-954818Y-787984D01*
X-954818Y-787984D02*
X-935770Y-797508D01*
X-935770Y-797508D02*
X-926247Y-807031D01*
X-926247Y-807031D02*
X-916723Y-826079D01*
X-916723Y-826079D02*
X-907199Y-864174D01*
X-907199Y-864174D02*
X-907199Y-911793D01*
X-907199Y-911793D02*
X-916723Y-949888D01*
X-916723Y-949888D02*
X-926247Y-968936D01*
X-926247Y-968936D02*
X-935770Y-978460D01*
X-935770Y-978460D02*
X-954818Y-987984D01*
X-954818Y-987984D02*
X-973866Y-987984D01*
X-973866Y-987984D02*
X-992913Y-978460D01*
X-992913Y-978460D02*
X-1002437Y-968936D01*
X-1002437Y-968936D02*
X-1011961Y-949888D01*
X-1011961Y-949888D02*
X-1021485Y-911793D01*
X-1021485Y-911793D02*
X-1021485Y-864174D01*
X-1021485Y-864174D02*
X-1011961Y-826079D01*
X-1011961Y-826079D02*
X-1002437Y-807031D01*
X-1002437Y-807031D02*
X-992913Y-797508D01*
X-992913Y-797508D02*
X-973866Y-787984D01*
X-821485Y-968936D02*
X-811961Y-978460D01*
X-811961Y-978460D02*
X-821485Y-987984D01*
X-821485Y-987984D02*
X-831009Y-978460D01*
X-831009Y-978460D02*
X-821485Y-968936D01*
X-821485Y-968936D02*
X-821485Y-987984D01*
X-688152Y-787984D02*
X-669104Y-787984D01*
X-669104Y-787984D02*
X-650056Y-797508D01*
X-650056Y-797508D02*
X-640532Y-807031D01*
X-640532Y-807031D02*
X-631009Y-826079D01*
X-631009Y-826079D02*
X-621485Y-864174D01*
X-621485Y-864174D02*
X-621485Y-911793D01*
X-621485Y-911793D02*
X-631009Y-949888D01*
X-631009Y-949888D02*
X-640532Y-968936D01*
X-640532Y-968936D02*
X-650056Y-978460D01*
X-650056Y-978460D02*
X-669104Y-987984D01*
X-669104Y-987984D02*
X-688152Y-987984D01*
X-688152Y-987984D02*
X-707199Y-978460D01*
X-707199Y-978460D02*
X-716723Y-968936D01*
X-716723Y-968936D02*
X-726247Y-949888D01*
X-726247Y-949888D02*
X-735770Y-911793D01*
X-735770Y-911793D02*
X-735770Y-864174D01*
X-735770Y-864174D02*
X-726247Y-826079D01*
X-726247Y-826079D02*
X-716723Y-807031D01*
X-716723Y-807031D02*
X-707199Y-797508D01*
X-707199Y-797508D02*
X-688152Y-787984D01*
X-431009Y-987984D02*
X-545294Y-987984D01*
X-488151Y-987984D02*
X-488151Y-787984D01*
X-488151Y-787984D02*
X-507199Y-816555D01*
X-507199Y-816555D02*
X-526247Y-835603D01*
X-526247Y-835603D02*
X-545294Y-845127D01*
X-335771Y-987984D02*
X-297675Y-987984D01*
X-297675Y-987984D02*
X-278628Y-978460D01*
X-278628Y-978460D02*
X-269104Y-968936D01*
X-269104Y-968936D02*
X-250056Y-940365D01*
X-250056Y-940365D02*
X-240532Y-902269D01*
X-240532Y-902269D02*
X-240532Y-826079D01*
X-240532Y-826079D02*
X-250056Y-807031D01*
X-250056Y-807031D02*
X-259580Y-797508D01*
X-259580Y-797508D02*
X-278628Y-787984D01*
X-278628Y-787984D02*
X-316723Y-787984D01*
X-316723Y-787984D02*
X-335771Y-797508D01*
X-335771Y-797508D02*
X-345294Y-807031D01*
X-345294Y-807031D02*
X-354818Y-826079D01*
X-354818Y-826079D02*
X-354818Y-873698D01*
X-354818Y-873698D02*
X-345294Y-892746D01*
X-345294Y-892746D02*
X-335771Y-902269D01*
X-335771Y-902269D02*
X-316723Y-911793D01*
X-316723Y-911793D02*
X-278628Y-911793D01*
X-278628Y-911793D02*
X-259580Y-902269D01*
X-259580Y-902269D02*
X-250056Y-892746D01*
X-250056Y-892746D02*
X-240532Y-873698D01*
X-173866Y-787984D02*
X-40532Y-787984D01*
X-40532Y-787984D02*
X-126247Y-987984D01*
X26134Y-787984D02*
X26134Y-826079D01*
X102325Y-787984D02*
X102325Y-826079D01*
X397563Y-1064174D02*
X388039Y-1054650D01*
X388039Y-1054650D02*
X368991Y-1026079D01*
X368991Y-1026079D02*
X359468Y-1007031D01*
X359468Y-1007031D02*
X349944Y-978460D01*
X349944Y-978460D02*
X340420Y-930841D01*
X340420Y-930841D02*
X340420Y-892746D01*
X340420Y-892746D02*
X349944Y-845127D01*
X349944Y-845127D02*
X359468Y-816555D01*
X359468Y-816555D02*
X368991Y-797508D01*
X368991Y-797508D02*
X388039Y-768936D01*
X388039Y-768936D02*
X397563Y-759412D01*
X578515Y-987984D02*
X464229Y-987984D01*
X521372Y-987984D02*
X521372Y-787984D01*
X521372Y-787984D02*
X502325Y-816555D01*
X502325Y-816555D02*
X483277Y-835603D01*
X483277Y-835603D02*
X464229Y-845127D01*
X816610Y-987984D02*
X816610Y-787984D01*
X902325Y-987984D02*
X902325Y-883222D01*
X902325Y-883222D02*
X892801Y-864174D01*
X892801Y-864174D02*
X873753Y-854650D01*
X873753Y-854650D02*
X845182Y-854650D01*
X845182Y-854650D02*
X826134Y-864174D01*
X826134Y-864174D02*
X816610Y-873698D01*
X1026134Y-987984D02*
X1007087Y-978460D01*
X1007087Y-978460D02*
X997563Y-968936D01*
X997563Y-968936D02*
X988039Y-949888D01*
X988039Y-949888D02*
X988039Y-892746D01*
X988039Y-892746D02*
X997563Y-873698D01*
X997563Y-873698D02*
X1007087Y-864174D01*
X1007087Y-864174D02*
X1026134Y-854650D01*
X1026134Y-854650D02*
X1054706Y-854650D01*
X1054706Y-854650D02*
X1073753Y-864174D01*
X1073753Y-864174D02*
X1083277Y-873698D01*
X1083277Y-873698D02*
X1092801Y-892746D01*
X1092801Y-892746D02*
X1092801Y-949888D01*
X1092801Y-949888D02*
X1083277Y-968936D01*
X1083277Y-968936D02*
X1073753Y-978460D01*
X1073753Y-978460D02*
X1054706Y-987984D01*
X1054706Y-987984D02*
X1026134Y-987984D01*
X1207087Y-987984D02*
X1188039Y-978460D01*
X1188039Y-978460D02*
X1178515Y-959412D01*
X1178515Y-959412D02*
X1178515Y-787984D01*
X1359468Y-978460D02*
X1340420Y-987984D01*
X1340420Y-987984D02*
X1302325Y-987984D01*
X1302325Y-987984D02*
X1283277Y-978460D01*
X1283277Y-978460D02*
X1273753Y-959412D01*
X1273753Y-959412D02*
X1273753Y-883222D01*
X1273753Y-883222D02*
X1283277Y-864174D01*
X1283277Y-864174D02*
X1302325Y-854650D01*
X1302325Y-854650D02*
X1340420Y-854650D01*
X1340420Y-854650D02*
X1359468Y-864174D01*
X1359468Y-864174D02*
X1368992Y-883222D01*
X1368992Y-883222D02*
X1368992Y-902269D01*
X1368992Y-902269D02*
X1273753Y-921317D01*
X1435658Y-1064174D02*
X1445182Y-1054650D01*
X1445182Y-1054650D02*
X1464230Y-1026079D01*
X1464230Y-1026079D02*
X1473753Y-1007031D01*
X1473753Y-1007031D02*
X1483277Y-978460D01*
X1483277Y-978460D02*
X1492801Y-930841D01*
X1492801Y-930841D02*
X1492801Y-892746D01*
X1492801Y-892746D02*
X1483277Y-845127D01*
X1483277Y-845127D02*
X1473753Y-816555D01*
X1473753Y-816555D02*
X1464230Y-797508D01*
X1464230Y-797508D02*
X1445182Y-768936D01*
X1445182Y-768936D02*
X1435658Y-759412D01*
D12*
X-3177500Y-1160500D02*
G75*
G02*
X-3277500Y-1160500I-50000J0D01*
G01*
X-3277500Y-1160500D02*
G75*
G02*
X-3177500Y-1160500I50000J0D01*
G01*
D11*
X-2811961Y-1251984D02*
X-2926247Y-1251984D01*
X-2869104Y-1251984D02*
X-2869104Y-1051984D01*
X-2869104Y-1051984D02*
X-2888152Y-1080555D01*
X-2888152Y-1080555D02*
X-2907199Y-1099603D01*
X-2907199Y-1099603D02*
X-2926247Y-1109127D01*
X-2726247Y-1232936D02*
X-2716723Y-1242460D01*
X-2716723Y-1242460D02*
X-2726247Y-1251984D01*
X-2726247Y-1251984D02*
X-2735771Y-1242460D01*
X-2735771Y-1242460D02*
X-2726247Y-1232936D01*
X-2726247Y-1232936D02*
X-2726247Y-1251984D01*
X-2592914Y-1051984D02*
X-2573866Y-1051984D01*
X-2573866Y-1051984D02*
X-2554818Y-1061508D01*
X-2554818Y-1061508D02*
X-2545295Y-1071031D01*
X-2545295Y-1071031D02*
X-2535771Y-1090079D01*
X-2535771Y-1090079D02*
X-2526247Y-1128174D01*
X-2526247Y-1128174D02*
X-2526247Y-1175793D01*
X-2526247Y-1175793D02*
X-2535771Y-1213889D01*
X-2535771Y-1213889D02*
X-2545295Y-1232936D01*
X-2545295Y-1232936D02*
X-2554818Y-1242460D01*
X-2554818Y-1242460D02*
X-2573866Y-1251984D01*
X-2573866Y-1251984D02*
X-2592914Y-1251984D01*
X-2592914Y-1251984D02*
X-2611961Y-1242460D01*
X-2611961Y-1242460D02*
X-2621485Y-1232936D01*
X-2621485Y-1232936D02*
X-2631009Y-1213889D01*
X-2631009Y-1213889D02*
X-2640533Y-1175793D01*
X-2640533Y-1175793D02*
X-2640533Y-1128174D01*
X-2640533Y-1128174D02*
X-2631009Y-1090079D01*
X-2631009Y-1090079D02*
X-2621485Y-1071031D01*
X-2621485Y-1071031D02*
X-2611961Y-1061508D01*
X-2611961Y-1061508D02*
X-2592914Y-1051984D01*
X-2402437Y-1051984D02*
X-2383390Y-1051984D01*
X-2383390Y-1051984D02*
X-2364342Y-1061508D01*
X-2364342Y-1061508D02*
X-2354818Y-1071031D01*
X-2354818Y-1071031D02*
X-2345295Y-1090079D01*
X-2345295Y-1090079D02*
X-2335771Y-1128174D01*
X-2335771Y-1128174D02*
X-2335771Y-1175793D01*
X-2335771Y-1175793D02*
X-2345295Y-1213889D01*
X-2345295Y-1213889D02*
X-2354818Y-1232936D01*
X-2354818Y-1232936D02*
X-2364342Y-1242460D01*
X-2364342Y-1242460D02*
X-2383390Y-1251984D01*
X-2383390Y-1251984D02*
X-2402437Y-1251984D01*
X-2402437Y-1251984D02*
X-2421485Y-1242460D01*
X-2421485Y-1242460D02*
X-2431009Y-1232936D01*
X-2431009Y-1232936D02*
X-2440533Y-1213889D01*
X-2440533Y-1213889D02*
X-2450056Y-1175793D01*
X-2450056Y-1175793D02*
X-2450056Y-1128174D01*
X-2450056Y-1128174D02*
X-2440533Y-1090079D01*
X-2440533Y-1090079D02*
X-2431009Y-1071031D01*
X-2431009Y-1071031D02*
X-2421485Y-1061508D01*
X-2421485Y-1061508D02*
X-2402437Y-1051984D01*
X-2211961Y-1051984D02*
X-2192914Y-1051984D01*
X-2192914Y-1051984D02*
X-2173866Y-1061508D01*
X-2173866Y-1061508D02*
X-2164342Y-1071031D01*
X-2164342Y-1071031D02*
X-2154818Y-1090079D01*
X-2154818Y-1090079D02*
X-2145295Y-1128174D01*
X-2145295Y-1128174D02*
X-2145295Y-1175793D01*
X-2145295Y-1175793D02*
X-2154818Y-1213889D01*
X-2154818Y-1213889D02*
X-2164342Y-1232936D01*
X-2164342Y-1232936D02*
X-2173866Y-1242460D01*
X-2173866Y-1242460D02*
X-2192914Y-1251984D01*
X-2192914Y-1251984D02*
X-2211961Y-1251984D01*
X-2211961Y-1251984D02*
X-2231009Y-1242460D01*
X-2231009Y-1242460D02*
X-2240533Y-1232936D01*
X-2240533Y-1232936D02*
X-2250056Y-1213889D01*
X-2250056Y-1213889D02*
X-2259580Y-1175793D01*
X-2259580Y-1175793D02*
X-2259580Y-1128174D01*
X-2259580Y-1128174D02*
X-2250056Y-1090079D01*
X-2250056Y-1090079D02*
X-2240533Y-1071031D01*
X-2240533Y-1071031D02*
X-2231009Y-1061508D01*
X-2231009Y-1061508D02*
X-2211961Y-1051984D01*
X-2059580Y-1251984D02*
X-2059580Y-1118650D01*
X-2059580Y-1137698D02*
X-2050056Y-1128174D01*
X-2050056Y-1128174D02*
X-2031009Y-1118650D01*
X-2031009Y-1118650D02*
X-2002437Y-1118650D01*
X-2002437Y-1118650D02*
X-1983390Y-1128174D01*
X-1983390Y-1128174D02*
X-1973866Y-1147222D01*
X-1973866Y-1147222D02*
X-1973866Y-1251984D01*
X-1973866Y-1147222D02*
X-1964342Y-1128174D01*
X-1964342Y-1128174D02*
X-1945294Y-1118650D01*
X-1945294Y-1118650D02*
X-1916723Y-1118650D01*
X-1916723Y-1118650D02*
X-1897675Y-1128174D01*
X-1897675Y-1128174D02*
X-1888152Y-1147222D01*
X-1888152Y-1147222D02*
X-1888152Y-1251984D01*
X-1792913Y-1251984D02*
X-1792913Y-1118650D01*
X-1792913Y-1137698D02*
X-1783390Y-1128174D01*
X-1783390Y-1128174D02*
X-1764342Y-1118650D01*
X-1764342Y-1118650D02*
X-1735771Y-1118650D01*
X-1735771Y-1118650D02*
X-1716723Y-1128174D01*
X-1716723Y-1128174D02*
X-1707199Y-1147222D01*
X-1707199Y-1147222D02*
X-1707199Y-1251984D01*
X-1707199Y-1147222D02*
X-1697675Y-1128174D01*
X-1697675Y-1128174D02*
X-1678628Y-1118650D01*
X-1678628Y-1118650D02*
X-1650056Y-1118650D01*
X-1650056Y-1118650D02*
X-1631009Y-1128174D01*
X-1631009Y-1128174D02*
X-1621485Y-1147222D01*
X-1621485Y-1147222D02*
X-1621485Y-1251984D01*
X-1231009Y-1042460D02*
X-1402437Y-1299603D01*
X-973866Y-1051984D02*
X-954818Y-1051984D01*
X-954818Y-1051984D02*
X-935770Y-1061508D01*
X-935770Y-1061508D02*
X-926247Y-1071031D01*
X-926247Y-1071031D02*
X-916723Y-1090079D01*
X-916723Y-1090079D02*
X-907199Y-1128174D01*
X-907199Y-1128174D02*
X-907199Y-1175793D01*
X-907199Y-1175793D02*
X-916723Y-1213889D01*
X-916723Y-1213889D02*
X-926247Y-1232936D01*
X-926247Y-1232936D02*
X-935770Y-1242460D01*
X-935770Y-1242460D02*
X-954818Y-1251984D01*
X-954818Y-1251984D02*
X-973866Y-1251984D01*
X-973866Y-1251984D02*
X-992913Y-1242460D01*
X-992913Y-1242460D02*
X-1002437Y-1232936D01*
X-1002437Y-1232936D02*
X-1011961Y-1213889D01*
X-1011961Y-1213889D02*
X-1021485Y-1175793D01*
X-1021485Y-1175793D02*
X-1021485Y-1128174D01*
X-1021485Y-1128174D02*
X-1011961Y-1090079D01*
X-1011961Y-1090079D02*
X-1002437Y-1071031D01*
X-1002437Y-1071031D02*
X-992913Y-1061508D01*
X-992913Y-1061508D02*
X-973866Y-1051984D01*
X-821485Y-1232936D02*
X-811961Y-1242460D01*
X-811961Y-1242460D02*
X-821485Y-1251984D01*
X-821485Y-1251984D02*
X-831009Y-1242460D01*
X-831009Y-1242460D02*
X-821485Y-1232936D01*
X-821485Y-1232936D02*
X-821485Y-1251984D01*
X-688152Y-1051984D02*
X-669104Y-1051984D01*
X-669104Y-1051984D02*
X-650056Y-1061508D01*
X-650056Y-1061508D02*
X-640532Y-1071031D01*
X-640532Y-1071031D02*
X-631009Y-1090079D01*
X-631009Y-1090079D02*
X-621485Y-1128174D01*
X-621485Y-1128174D02*
X-621485Y-1175793D01*
X-621485Y-1175793D02*
X-631009Y-1213889D01*
X-631009Y-1213889D02*
X-640532Y-1232936D01*
X-640532Y-1232936D02*
X-650056Y-1242460D01*
X-650056Y-1242460D02*
X-669104Y-1251984D01*
X-669104Y-1251984D02*
X-688152Y-1251984D01*
X-688152Y-1251984D02*
X-707199Y-1242460D01*
X-707199Y-1242460D02*
X-716723Y-1232936D01*
X-716723Y-1232936D02*
X-726247Y-1213889D01*
X-726247Y-1213889D02*
X-735770Y-1175793D01*
X-735770Y-1175793D02*
X-735770Y-1128174D01*
X-735770Y-1128174D02*
X-726247Y-1090079D01*
X-726247Y-1090079D02*
X-716723Y-1071031D01*
X-716723Y-1071031D02*
X-707199Y-1061508D01*
X-707199Y-1061508D02*
X-688152Y-1051984D01*
X-554818Y-1051984D02*
X-431009Y-1051984D01*
X-431009Y-1051984D02*
X-497675Y-1128174D01*
X-497675Y-1128174D02*
X-469104Y-1128174D01*
X-469104Y-1128174D02*
X-450056Y-1137698D01*
X-450056Y-1137698D02*
X-440532Y-1147222D01*
X-440532Y-1147222D02*
X-431009Y-1166270D01*
X-431009Y-1166270D02*
X-431009Y-1213889D01*
X-431009Y-1213889D02*
X-440532Y-1232936D01*
X-440532Y-1232936D02*
X-450056Y-1242460D01*
X-450056Y-1242460D02*
X-469104Y-1251984D01*
X-469104Y-1251984D02*
X-526247Y-1251984D01*
X-526247Y-1251984D02*
X-545294Y-1242460D01*
X-545294Y-1242460D02*
X-554818Y-1232936D01*
X-335771Y-1251984D02*
X-297675Y-1251984D01*
X-297675Y-1251984D02*
X-278628Y-1242460D01*
X-278628Y-1242460D02*
X-269104Y-1232936D01*
X-269104Y-1232936D02*
X-250056Y-1204365D01*
X-250056Y-1204365D02*
X-240532Y-1166270D01*
X-240532Y-1166270D02*
X-240532Y-1090079D01*
X-240532Y-1090079D02*
X-250056Y-1071031D01*
X-250056Y-1071031D02*
X-259580Y-1061508D01*
X-259580Y-1061508D02*
X-278628Y-1051984D01*
X-278628Y-1051984D02*
X-316723Y-1051984D01*
X-316723Y-1051984D02*
X-335771Y-1061508D01*
X-335771Y-1061508D02*
X-345294Y-1071031D01*
X-345294Y-1071031D02*
X-354818Y-1090079D01*
X-354818Y-1090079D02*
X-354818Y-1137698D01*
X-354818Y-1137698D02*
X-345294Y-1156746D01*
X-345294Y-1156746D02*
X-335771Y-1166270D01*
X-335771Y-1166270D02*
X-316723Y-1175793D01*
X-316723Y-1175793D02*
X-278628Y-1175793D01*
X-278628Y-1175793D02*
X-259580Y-1166270D01*
X-259580Y-1166270D02*
X-250056Y-1156746D01*
X-250056Y-1156746D02*
X-240532Y-1137698D01*
X-69104Y-1118650D02*
X-69104Y-1251984D01*
X-116723Y-1042460D02*
X-164342Y-1185317D01*
X-164342Y-1185317D02*
X-40532Y-1185317D01*
X26134Y-1051984D02*
X26134Y-1090079D01*
X102325Y-1051984D02*
X102325Y-1090079D01*
X397563Y-1328174D02*
X388039Y-1318650D01*
X388039Y-1318650D02*
X368991Y-1290079D01*
X368991Y-1290079D02*
X359468Y-1271031D01*
X359468Y-1271031D02*
X349944Y-1242460D01*
X349944Y-1242460D02*
X340420Y-1194841D01*
X340420Y-1194841D02*
X340420Y-1156746D01*
X340420Y-1156746D02*
X349944Y-1109127D01*
X349944Y-1109127D02*
X359468Y-1080555D01*
X359468Y-1080555D02*
X368991Y-1061508D01*
X368991Y-1061508D02*
X388039Y-1032936D01*
X388039Y-1032936D02*
X397563Y-1023412D01*
X454706Y-1051984D02*
X588039Y-1051984D01*
X588039Y-1051984D02*
X502325Y-1251984D01*
X759468Y-1051984D02*
X664230Y-1051984D01*
X664230Y-1051984D02*
X654706Y-1147222D01*
X654706Y-1147222D02*
X664230Y-1137698D01*
X664230Y-1137698D02*
X683277Y-1128174D01*
X683277Y-1128174D02*
X730896Y-1128174D01*
X730896Y-1128174D02*
X749944Y-1137698D01*
X749944Y-1137698D02*
X759468Y-1147222D01*
X759468Y-1147222D02*
X768991Y-1166270D01*
X768991Y-1166270D02*
X768991Y-1213889D01*
X768991Y-1213889D02*
X759468Y-1232936D01*
X759468Y-1232936D02*
X749944Y-1242460D01*
X749944Y-1242460D02*
X730896Y-1251984D01*
X730896Y-1251984D02*
X683277Y-1251984D01*
X683277Y-1251984D02*
X664230Y-1242460D01*
X664230Y-1242460D02*
X654706Y-1232936D01*
X1007087Y-1251984D02*
X1007087Y-1051984D01*
X1092801Y-1251984D02*
X1092801Y-1147222D01*
X1092801Y-1147222D02*
X1083277Y-1128174D01*
X1083277Y-1128174D02*
X1064230Y-1118650D01*
X1064230Y-1118650D02*
X1035658Y-1118650D01*
X1035658Y-1118650D02*
X1016610Y-1128174D01*
X1016610Y-1128174D02*
X1007087Y-1137698D01*
X1216611Y-1251984D02*
X1197563Y-1242460D01*
X1197563Y-1242460D02*
X1188039Y-1232936D01*
X1188039Y-1232936D02*
X1178515Y-1213889D01*
X1178515Y-1213889D02*
X1178515Y-1156746D01*
X1178515Y-1156746D02*
X1188039Y-1137698D01*
X1188039Y-1137698D02*
X1197563Y-1128174D01*
X1197563Y-1128174D02*
X1216611Y-1118650D01*
X1216611Y-1118650D02*
X1245182Y-1118650D01*
X1245182Y-1118650D02*
X1264230Y-1128174D01*
X1264230Y-1128174D02*
X1273753Y-1137698D01*
X1273753Y-1137698D02*
X1283277Y-1156746D01*
X1283277Y-1156746D02*
X1283277Y-1213889D01*
X1283277Y-1213889D02*
X1273753Y-1232936D01*
X1273753Y-1232936D02*
X1264230Y-1242460D01*
X1264230Y-1242460D02*
X1245182Y-1251984D01*
X1245182Y-1251984D02*
X1216611Y-1251984D01*
X1397563Y-1251984D02*
X1378515Y-1242460D01*
X1378515Y-1242460D02*
X1368992Y-1223412D01*
X1368992Y-1223412D02*
X1368992Y-1051984D01*
X1549944Y-1242460D02*
X1530896Y-1251984D01*
X1530896Y-1251984D02*
X1492801Y-1251984D01*
X1492801Y-1251984D02*
X1473753Y-1242460D01*
X1473753Y-1242460D02*
X1464230Y-1223412D01*
X1464230Y-1223412D02*
X1464230Y-1147222D01*
X1464230Y-1147222D02*
X1473753Y-1128174D01*
X1473753Y-1128174D02*
X1492801Y-1118650D01*
X1492801Y-1118650D02*
X1530896Y-1118650D01*
X1530896Y-1118650D02*
X1549944Y-1128174D01*
X1549944Y-1128174D02*
X1559468Y-1147222D01*
X1559468Y-1147222D02*
X1559468Y-1166270D01*
X1559468Y-1166270D02*
X1464230Y-1185317D01*
X1635658Y-1242460D02*
X1654706Y-1251984D01*
X1654706Y-1251984D02*
X1692801Y-1251984D01*
X1692801Y-1251984D02*
X1711849Y-1242460D01*
X1711849Y-1242460D02*
X1721372Y-1223412D01*
X1721372Y-1223412D02*
X1721372Y-1213889D01*
X1721372Y-1213889D02*
X1711849Y-1194841D01*
X1711849Y-1194841D02*
X1692801Y-1185317D01*
X1692801Y-1185317D02*
X1664230Y-1185317D01*
X1664230Y-1185317D02*
X1645182Y-1175793D01*
X1645182Y-1175793D02*
X1635658Y-1156746D01*
X1635658Y-1156746D02*
X1635658Y-1147222D01*
X1635658Y-1147222D02*
X1645182Y-1128174D01*
X1645182Y-1128174D02*
X1664230Y-1118650D01*
X1664230Y-1118650D02*
X1692801Y-1118650D01*
X1692801Y-1118650D02*
X1711849Y-1128174D01*
X1788039Y-1328174D02*
X1797563Y-1318650D01*
X1797563Y-1318650D02*
X1816611Y-1290079D01*
X1816611Y-1290079D02*
X1826134Y-1271031D01*
X1826134Y-1271031D02*
X1835658Y-1242460D01*
X1835658Y-1242460D02*
X1845182Y-1194841D01*
X1845182Y-1194841D02*
X1845182Y-1156746D01*
X1845182Y-1156746D02*
X1835658Y-1109127D01*
X1835658Y-1109127D02*
X1826134Y-1080555D01*
X1826134Y-1080555D02*
X1816611Y-1061508D01*
X1816611Y-1061508D02*
X1797563Y-1032936D01*
X1797563Y-1032936D02*
X1788039Y-1023412D01*
M02*
