ISO-10303-21;
HEADER;
FILE_DESCRIPTION(('KiCad electronic assembly'),'2;1');
FILE_NAME('model.step','1970-01-01T00:00:00',('Pcbnew'),('Kicad'),
  'Open CASCADE STEP processor 7.9','KiCad to STEP converter','Unknown'
  );
FILE_SCHEMA(('AUTOMOTIVE_DESIGN { 1 0 10303 214 1 1 1 1 }'));
ENDSEC;
DATA;
#1 = APPLICATION_PROTOCOL_DEFINITION('international standard',
  'automotive_design',2000,#2);
#2 = APPLICATION_CONTEXT(
  'core data for automotive mechanical design processes');
#3 = SHAPE_DEFINITION_REPRESENTATION(#4,#10);
#4 = PRODUCT_DEFINITION_SHAPE('','',#5);
#5 = PRODUCT_DEFINITION('design','',#6,#9);
#6 = PRODUCT_DEFINITION_FORMATION('','',#7);
#7 = PRODUCT('model 1','model 1','',(#8));
#8 = PRODUCT_CONTEXT('',#2,'mechanical');
#9 = PRODUCT_DEFINITION_CONTEXT('part definition',#2,'design');
#10 = SHAPE_REPRESENTATION('',(#11,#15,#19,#23),#27);
#11 = AXIS2_PLACEMENT_3D('',#12,#13,#14);
#12 = CARTESIAN_POINT('',(0.,0.,0.));
#13 = DIRECTION('',(0.,0.,1.));
#14 = DIRECTION('',(1.,0.,-0.));
#15 = AXIS2_PLACEMENT_3D('',#16,#17,#18);
#16 = CARTESIAN_POINT('',(0.,0.,1.595));
#17 = DIRECTION('',(0.,0.,1.));
#18 = DIRECTION('',(1.,0.,0.));
#19 = AXIS2_PLACEMENT_3D('',#20,#21,#22);
#20 = CARTESIAN_POINT('',(0.,0.,0.));
#21 = DIRECTION('',(0.,0.,1.));
#22 = DIRECTION('',(1.,0.,-0.));
#23 = AXIS2_PLACEMENT_3D('',#24,#25,#26);
#24 = CARTESIAN_POINT('',(0.,0.,0.));
#25 = DIRECTION('',(0.,0.,1.));
#26 = DIRECTION('',(1.,0.,-0.));
#27 = ( GEOMETRIC_REPRESENTATION_CONTEXT(3) 
GLOBAL_UNCERTAINTY_ASSIGNED_CONTEXT((#31)) GLOBAL_UNIT_ASSIGNED_CONTEXT(
(#28,#29,#30)) REPRESENTATION_CONTEXT('Context #1',
  '3D Context with UNIT and UNCERTAINTY') );
#28 = ( LENGTH_UNIT() NAMED_UNIT(*) SI_UNIT(.MILLI.,.METRE.) );
#29 = ( NAMED_UNIT(*) PLANE_ANGLE_UNIT() SI_UNIT($,.RADIAN.) );
#30 = ( NAMED_UNIT(*) SI_UNIT($,.STERADIAN.) SOLID_ANGLE_UNIT() );
#31 = UNCERTAINTY_MEASURE_WITH_UNIT(LENGTH_MEASURE(1.E-07),#28,
  'distance_accuracy_value','confusion accuracy');
#32 = PRODUCT_RELATED_PRODUCT_CATEGORY('part',$,(#7));
#33 = SHAPE_DEFINITION_REPRESENTATION(#34,#40);
#34 = PRODUCT_DEFINITION_SHAPE('','',#35);
#35 = PRODUCT_DEFINITION('design','',#36,#39);
#36 = PRODUCT_DEFINITION_FORMATION('','',#37);
#37 = PRODUCT('PinHeader_1x01_P2.54mm_Horizontal',
  'PinHeader_1x01_P2.54mm_Horizontal','',(#38));
#38 = PRODUCT_CONTEXT('',#2,'mechanical');
#39 = PRODUCT_DEFINITION_CONTEXT('part definition',#2,'design');
#40 = SHAPE_REPRESENTATION('',(#11,#41),#45);
#41 = AXIS2_PLACEMENT_3D('',#42,#43,#44);
#42 = CARTESIAN_POINT('',(0.,0.,0.));
#43 = DIRECTION('',(0.,0.,1.));
#44 = DIRECTION('',(1.,0.,-0.));
#45 = ( GEOMETRIC_REPRESENTATION_CONTEXT(3) 
GLOBAL_UNCERTAINTY_ASSIGNED_CONTEXT((#49)) GLOBAL_UNIT_ASSIGNED_CONTEXT(
(#46,#47,#48)) REPRESENTATION_CONTEXT('Context #1',
  '3D Context with UNIT and UNCERTAINTY') );
#46 = ( LENGTH_UNIT() NAMED_UNIT(*) SI_UNIT(.MILLI.,.METRE.) );
#47 = ( NAMED_UNIT(*) PLANE_ANGLE_UNIT() SI_UNIT($,.RADIAN.) );
#48 = ( NAMED_UNIT(*) SI_UNIT($,.STERADIAN.) SOLID_ANGLE_UNIT() );
#49 = UNCERTAINTY_MEASURE_WITH_UNIT(LENGTH_MEASURE(1.E-07),#46,
  'distance_accuracy_value','confusion accuracy');
#50 = CONTEXT_DEPENDENT_SHAPE_REPRESENTATION(#51,#53);
#51 = ( REPRESENTATION_RELATIONSHIP('','',#40,#10) 
REPRESENTATION_RELATIONSHIP_WITH_TRANSFORMATION(#52) 
SHAPE_REPRESENTATION_RELATIONSHIP() );
#52 = ITEM_DEFINED_TRANSFORMATION('','',#11,#15);
#53 = PRODUCT_DEFINITION_SHAPE('Placement','Placement of an item',#54);
#54 = NEXT_ASSEMBLY_USAGE_OCCURRENCE('2','REF**','',#5,#35,$);
#55 = PRODUCT_RELATED_PRODUCT_CATEGORY('part',$,(#37));
#56 = SHAPE_DEFINITION_REPRESENTATION(#57,#63);
#57 = PRODUCT_DEFINITION_SHAPE('','',#58);
#58 = PRODUCT_DEFINITION('design','',#59,#62);
#59 = PRODUCT_DEFINITION_FORMATION('','',#60);
#60 = PRODUCT('PinHeader_1x01_P254mm_Horizontal',
  'PinHeader_1x01_P254mm_Horizontal','',(#61));
#61 = PRODUCT_CONTEXT('',#2,'mechanical');
#62 = PRODUCT_DEFINITION_CONTEXT('part definition',#2,'design');
#63 = ADVANCED_BREP_SHAPE_REPRESENTATION('',(#11,#64),#923);
#64 = MANIFOLD_SOLID_BREP('',#65);
#65 = CLOSED_SHELL('',(#66,#106,#137,#168,#251,#334,#351,#368,#385,#402,
    #414,#470,#494,#543,#560,#591,#615,#639,#656,#673,#690,#721,#738,
    #769,#800,#824,#848,#865,#882,#899,#911));
#66 = ADVANCED_FACE('',(#67),#101,.T.);
#67 = FACE_BOUND('',#68,.T.);
#68 = EDGE_LOOP('',(#69,#79,#87,#95));
#69 = ORIENTED_EDGE('',*,*,#70,.T.);
#70 = EDGE_CURVE('',#71,#73,#75,.T.);
#71 = VERTEX_POINT('',#72);
#72 = CARTESIAN_POINT('',(1.5,1.27,0.254));
#73 = VERTEX_POINT('',#74);
#74 = CARTESIAN_POINT('',(4.04,1.27,0.254));
#75 = LINE('',#76,#77);
#76 = CARTESIAN_POINT('',(1.5,1.27,0.254));
#77 = VECTOR('',#78,1.);
#78 = DIRECTION('',(1.,0.,0.));
#79 = ORIENTED_EDGE('',*,*,#80,.T.);
#80 = EDGE_CURVE('',#73,#81,#83,.T.);
#81 = VERTEX_POINT('',#82);
#82 = CARTESIAN_POINT('',(4.04,1.016,0.));
#83 = LINE('',#84,#85);
#84 = CARTESIAN_POINT('',(4.04,1.27,0.254));
#85 = VECTOR('',#86,1.);
#86 = DIRECTION('',(0.,-0.707106781187,-0.707106781187));
#87 = ORIENTED_EDGE('',*,*,#88,.F.);
#88 = EDGE_CURVE('',#89,#81,#91,.T.);
#89 = VERTEX_POINT('',#90);
#90 = CARTESIAN_POINT('',(1.5,1.016,0.));
#91 = LINE('',#92,#93);
#92 = CARTESIAN_POINT('',(1.5,1.016,0.));
#93 = VECTOR('',#94,1.);
#94 = DIRECTION('',(1.,0.,0.));
#95 = ORIENTED_EDGE('',*,*,#96,.F.);
#96 = EDGE_CURVE('',#71,#89,#97,.T.);
#97 = LINE('',#98,#99);
#98 = CARTESIAN_POINT('',(1.5,1.27,0.254));
#99 = VECTOR('',#100,1.);
#100 = DIRECTION('',(0.,-0.707106781187,-0.707106781187));
#101 = PLANE('',#102);
#102 = AXIS2_PLACEMENT_3D('',#103,#104,#105);
#103 = CARTESIAN_POINT('',(1.5,1.27,0.254));
#104 = DIRECTION('',(0.,0.707106781187,-0.707106781187));
#105 = DIRECTION('',(0.,-0.707106781187,-0.707106781187));
#106 = ADVANCED_FACE('',(#107),#132,.T.);
#107 = FACE_BOUND('',#108,.T.);
#108 = EDGE_LOOP('',(#109,#119,#125,#126));
#109 = ORIENTED_EDGE('',*,*,#110,.T.);
#110 = EDGE_CURVE('',#111,#113,#115,.T.);
#111 = VERTEX_POINT('',#112);
#112 = CARTESIAN_POINT('',(1.5,1.27,2.286));
#113 = VERTEX_POINT('',#114);
#114 = CARTESIAN_POINT('',(4.04,1.27,2.286));
#115 = LINE('',#116,#117);
#116 = CARTESIAN_POINT('',(1.5,1.27,2.286));
#117 = VECTOR('',#118,1.);
#118 = DIRECTION('',(1.,0.,0.));
#119 = ORIENTED_EDGE('',*,*,#120,.T.);
#120 = EDGE_CURVE('',#113,#73,#121,.T.);
#121 = LINE('',#122,#123);
#122 = CARTESIAN_POINT('',(4.04,1.27,2.286));
#123 = VECTOR('',#124,1.);
#124 = DIRECTION('',(0.,0.,-1.));
#125 = ORIENTED_EDGE('',*,*,#70,.F.);
#126 = ORIENTED_EDGE('',*,*,#127,.F.);
#127 = EDGE_CURVE('',#111,#71,#128,.T.);
#128 = LINE('',#129,#130);
#129 = CARTESIAN_POINT('',(1.5,1.27,2.286));
#130 = VECTOR('',#131,1.);
#131 = DIRECTION('',(0.,0.,-1.));
#132 = PLANE('',#133);
#133 = AXIS2_PLACEMENT_3D('',#134,#135,#136);
#134 = CARTESIAN_POINT('',(1.5,1.27,2.286));
#135 = DIRECTION('',(0.,1.,0.));
#136 = DIRECTION('',(0.,0.,-1.));
#137 = ADVANCED_FACE('',(#138),#163,.T.);
#138 = FACE_BOUND('',#139,.T.);
#139 = EDGE_LOOP('',(#140,#141,#149,#157));
#140 = ORIENTED_EDGE('',*,*,#88,.T.);
#141 = ORIENTED_EDGE('',*,*,#142,.T.);
#142 = EDGE_CURVE('',#81,#143,#145,.T.);
#143 = VERTEX_POINT('',#144);
#144 = CARTESIAN_POINT('',(4.04,-1.016,0.));
#145 = LINE('',#146,#147);
#146 = CARTESIAN_POINT('',(4.04,1.016,0.));
#147 = VECTOR('',#148,1.);
#148 = DIRECTION('',(0.,-1.,0.));
#149 = ORIENTED_EDGE('',*,*,#150,.F.);
#150 = EDGE_CURVE('',#151,#143,#153,.T.);
#151 = VERTEX_POINT('',#152);
#152 = CARTESIAN_POINT('',(1.5,-1.016,0.));
#153 = LINE('',#154,#155);
#154 = CARTESIAN_POINT('',(1.5,-1.016,0.));
#155 = VECTOR('',#156,1.);
#156 = DIRECTION('',(1.,0.,0.));
#157 = ORIENTED_EDGE('',*,*,#158,.F.);
#158 = EDGE_CURVE('',#89,#151,#159,.T.);
#159 = LINE('',#160,#161);
#160 = CARTESIAN_POINT('',(1.5,1.016,0.));
#161 = VECTOR('',#162,1.);
#162 = DIRECTION('',(0.,-1.,0.));
#163 = PLANE('',#164);
#164 = AXIS2_PLACEMENT_3D('',#165,#166,#167);
#165 = CARTESIAN_POINT('',(1.5,1.016,0.));
#166 = DIRECTION('',(-0.,-0.,-1.));
#167 = DIRECTION('',(0.,-1.,0.));
#168 = ADVANCED_FACE('',(#169,#212),#246,.T.);
#169 = FACE_BOUND('',#170,.T.);
#170 = EDGE_LOOP('',(#171,#172,#173,#181,#189,#197,#205,#211));
#171 = ORIENTED_EDGE('',*,*,#96,.T.);
#172 = ORIENTED_EDGE('',*,*,#158,.T.);
#173 = ORIENTED_EDGE('',*,*,#174,.T.);
#174 = EDGE_CURVE('',#151,#175,#177,.T.);
#175 = VERTEX_POINT('',#176);
#176 = CARTESIAN_POINT('',(1.5,-1.27,0.254));
#177 = LINE('',#178,#179);
#178 = CARTESIAN_POINT('',(1.5,-1.016,0.));
#179 = VECTOR('',#180,1.);
#180 = DIRECTION('',(0.,-0.707106781187,0.707106781187));
#181 = ORIENTED_EDGE('',*,*,#182,.T.);
#182 = EDGE_CURVE('',#175,#183,#185,.T.);
#183 = VERTEX_POINT('',#184);
#184 = CARTESIAN_POINT('',(1.5,-1.27,2.286));
#185 = LINE('',#186,#187);
#186 = CARTESIAN_POINT('',(1.5,-1.27,0.254));
#187 = VECTOR('',#188,1.);
#188 = DIRECTION('',(0.,0.,1.));
#189 = ORIENTED_EDGE('',*,*,#190,.T.);
#190 = EDGE_CURVE('',#183,#191,#193,.T.);
#191 = VERTEX_POINT('',#192);
#192 = CARTESIAN_POINT('',(1.5,-1.016,2.54));
#193 = LINE('',#194,#195);
#194 = CARTESIAN_POINT('',(1.5,-1.27,2.286));
#195 = VECTOR('',#196,1.);
#196 = DIRECTION('',(0.,0.707106781187,0.707106781187));
#197 = ORIENTED_EDGE('',*,*,#198,.T.);
#198 = EDGE_CURVE('',#191,#199,#201,.T.);
#199 = VERTEX_POINT('',#200);
#200 = CARTESIAN_POINT('',(1.5,1.016,2.54));
#201 = LINE('',#202,#203);
#202 = CARTESIAN_POINT('',(1.5,-1.016,2.54));
#203 = VECTOR('',#204,1.);
#204 = DIRECTION('',(0.,1.,0.));
#205 = ORIENTED_EDGE('',*,*,#206,.T.);
#206 = EDGE_CURVE('',#199,#111,#207,.T.);
#207 = LINE('',#208,#209);
#208 = CARTESIAN_POINT('',(1.5,1.016,2.54));
#209 = VECTOR('',#210,1.);
#210 = DIRECTION('',(0.,0.707106781187,-0.707106781187));
#211 = ORIENTED_EDGE('',*,*,#127,.T.);
#212 = FACE_BOUND('',#213,.T.);
#213 = EDGE_LOOP('',(#214,#224,#232,#240));
#214 = ORIENTED_EDGE('',*,*,#215,.F.);
#215 = EDGE_CURVE('',#216,#218,#220,.T.);
#216 = VERTEX_POINT('',#217);
#217 = CARTESIAN_POINT('',(1.5,0.32,1.59));
#218 = VERTEX_POINT('',#219);
#219 = CARTESIAN_POINT('',(1.5,0.32,0.95));
#220 = LINE('',#221,#222);
#221 = CARTESIAN_POINT('',(1.5,0.32,0.924540133779));
#222 = VECTOR('',#223,1.);
#223 = DIRECTION('',(6.335707123583E-32,6.630961875715E-34,-1.));
#224 = ORIENTED_EDGE('',*,*,#225,.F.);
#225 = EDGE_CURVE('',#226,#216,#228,.T.);
#226 = VERTEX_POINT('',#227);
#227 = CARTESIAN_POINT('',(1.5,-0.32,1.59));
#228 = LINE('',#229,#230);
#229 = CARTESIAN_POINT('',(1.5,0.16,1.59));
#230 = VECTOR('',#231,1.);
#231 = DIRECTION('',(-6.358069755164E-95,1.,-1.36271726532E-111));
#232 = ORIENTED_EDGE('',*,*,#233,.T.);
#233 = EDGE_CURVE('',#226,#234,#236,.T.);
#234 = VERTEX_POINT('',#235);
#235 = CARTESIAN_POINT('',(1.5,-0.32,0.95));
#236 = LINE('',#237,#238);
#237 = CARTESIAN_POINT('',(1.5,-0.32,0.924540133779));
#238 = VECTOR('',#239,1.);
#239 = DIRECTION('',(6.335707123583E-32,6.630961875715E-34,-1.));
#240 = ORIENTED_EDGE('',*,*,#241,.F.);
#241 = EDGE_CURVE('',#218,#234,#242,.T.);
#242 = LINE('',#243,#244);
#243 = CARTESIAN_POINT('',(1.5,0.16,0.95));
#244 = VECTOR('',#245,1.);
#245 = DIRECTION('',(6.358069755164E-95,-1.,0.));
#246 = PLANE('',#247);
#247 = AXIS2_PLACEMENT_3D('',#248,#249,#250);
#248 = CARTESIAN_POINT('',(1.5,4.642933539699E-17,1.27));
#249 = DIRECTION('',(-1.,-6.358069755164E-95,-6.335707123583E-32));
#250 = DIRECTION('',(6.335707123583E-32,0.,-1.));
#251 = ADVANCED_FACE('',(#252,#295),#329,.F.);
#252 = FACE_BOUND('',#253,.F.);
#253 = EDGE_LOOP('',(#254,#255,#256,#264,#272,#280,#288,#294));
#254 = ORIENTED_EDGE('',*,*,#80,.T.);
#255 = ORIENTED_EDGE('',*,*,#142,.T.);
#256 = ORIENTED_EDGE('',*,*,#257,.T.);
#257 = EDGE_CURVE('',#143,#258,#260,.T.);
#258 = VERTEX_POINT('',#259);
#259 = CARTESIAN_POINT('',(4.04,-1.27,0.254));
#260 = LINE('',#261,#262);
#261 = CARTESIAN_POINT('',(4.04,-1.016,0.));
#262 = VECTOR('',#263,1.);
#263 = DIRECTION('',(0.,-0.707106781187,0.707106781187));
#264 = ORIENTED_EDGE('',*,*,#265,.T.);
#265 = EDGE_CURVE('',#258,#266,#268,.T.);
#266 = VERTEX_POINT('',#267);
#267 = CARTESIAN_POINT('',(4.04,-1.27,2.286));
#268 = LINE('',#269,#270);
#269 = CARTESIAN_POINT('',(4.04,-1.27,0.254));
#270 = VECTOR('',#271,1.);
#271 = DIRECTION('',(0.,0.,1.));
#272 = ORIENTED_EDGE('',*,*,#273,.T.);
#273 = EDGE_CURVE('',#266,#274,#276,.T.);
#274 = VERTEX_POINT('',#275);
#275 = CARTESIAN_POINT('',(4.04,-1.016,2.54));
#276 = LINE('',#277,#278);
#277 = CARTESIAN_POINT('',(4.04,-1.27,2.286));
#278 = VECTOR('',#279,1.);
#279 = DIRECTION('',(0.,0.707106781187,0.707106781187));
#280 = ORIENTED_EDGE('',*,*,#281,.T.);
#281 = EDGE_CURVE('',#274,#282,#284,.T.);
#282 = VERTEX_POINT('',#283);
#283 = CARTESIAN_POINT('',(4.04,1.016,2.54));
#284 = LINE('',#285,#286);
#285 = CARTESIAN_POINT('',(4.04,-1.016,2.54));
#286 = VECTOR('',#287,1.);
#287 = DIRECTION('',(0.,1.,0.));
#288 = ORIENTED_EDGE('',*,*,#289,.T.);
#289 = EDGE_CURVE('',#282,#113,#290,.T.);
#290 = LINE('',#291,#292);
#291 = CARTESIAN_POINT('',(4.04,1.016,2.54));
#292 = VECTOR('',#293,1.);
#293 = DIRECTION('',(0.,0.707106781187,-0.707106781187));
#294 = ORIENTED_EDGE('',*,*,#120,.T.);
#295 = FACE_BOUND('',#296,.F.);
#296 = EDGE_LOOP('',(#297,#307,#315,#323));
#297 = ORIENTED_EDGE('',*,*,#298,.F.);
#298 = EDGE_CURVE('',#299,#301,#303,.T.);
#299 = VERTEX_POINT('',#300);
#300 = CARTESIAN_POINT('',(4.04,0.32,1.59));
#301 = VERTEX_POINT('',#302);
#302 = CARTESIAN_POINT('',(4.04,0.32,0.95));
#303 = LINE('',#304,#305);
#304 = CARTESIAN_POINT('',(4.04,0.32,0.924540133779));
#305 = VECTOR('',#306,1.);
#306 = DIRECTION('',(6.335707123583E-32,6.630961875715E-34,-1.));
#307 = ORIENTED_EDGE('',*,*,#308,.F.);
#308 = EDGE_CURVE('',#309,#299,#311,.T.);
#309 = VERTEX_POINT('',#310);
#310 = CARTESIAN_POINT('',(4.04,-0.32,1.59));
#311 = LINE('',#312,#313);
#312 = CARTESIAN_POINT('',(4.04,0.16,1.59));
#313 = VECTOR('',#314,1.);
#314 = DIRECTION('',(-6.358069755164E-95,1.,-1.36271726532E-111));
#315 = ORIENTED_EDGE('',*,*,#316,.T.);
#316 = EDGE_CURVE('',#309,#317,#319,.T.);
#317 = VERTEX_POINT('',#318);
#318 = CARTESIAN_POINT('',(4.04,-0.32,0.95));
#319 = LINE('',#320,#321);
#320 = CARTESIAN_POINT('',(4.04,-0.32,0.924540133779));
#321 = VECTOR('',#322,1.);
#322 = DIRECTION('',(6.335707123583E-32,6.630961875715E-34,-1.));
#323 = ORIENTED_EDGE('',*,*,#324,.F.);
#324 = EDGE_CURVE('',#301,#317,#325,.T.);
#325 = LINE('',#326,#327);
#326 = CARTESIAN_POINT('',(4.04,0.16,0.95));
#327 = VECTOR('',#328,1.);
#328 = DIRECTION('',(6.358069755164E-95,-1.,0.));
#329 = PLANE('',#330);
#330 = AXIS2_PLACEMENT_3D('',#331,#332,#333);
#331 = CARTESIAN_POINT('',(4.04,4.642933539699E-17,1.27));
#332 = DIRECTION('',(-1.,-6.358069755164E-95,-6.335707123583E-32));
#333 = DIRECTION('',(6.335707123583E-32,0.,-1.));
#334 = ADVANCED_FACE('',(#335),#346,.T.);
#335 = FACE_BOUND('',#336,.T.);
#336 = EDGE_LOOP('',(#337,#343,#344,#345));
#337 = ORIENTED_EDGE('',*,*,#338,.T.);
#338 = EDGE_CURVE('',#199,#282,#339,.T.);
#339 = LINE('',#340,#341);
#340 = CARTESIAN_POINT('',(1.5,1.016,2.54));
#341 = VECTOR('',#342,1.);
#342 = DIRECTION('',(1.,0.,0.));
#343 = ORIENTED_EDGE('',*,*,#289,.T.);
#344 = ORIENTED_EDGE('',*,*,#110,.F.);
#345 = ORIENTED_EDGE('',*,*,#206,.F.);
#346 = PLANE('',#347);
#347 = AXIS2_PLACEMENT_3D('',#348,#349,#350);
#348 = CARTESIAN_POINT('',(1.5,1.016,2.54));
#349 = DIRECTION('',(0.,0.707106781187,0.707106781187));
#350 = DIRECTION('',(0.,0.707106781187,-0.707106781187));
#351 = ADVANCED_FACE('',(#352),#363,.T.);
#352 = FACE_BOUND('',#353,.T.);
#353 = EDGE_LOOP('',(#354,#355,#356,#362));
#354 = ORIENTED_EDGE('',*,*,#150,.T.);
#355 = ORIENTED_EDGE('',*,*,#257,.T.);
#356 = ORIENTED_EDGE('',*,*,#357,.F.);
#357 = EDGE_CURVE('',#175,#258,#358,.T.);
#358 = LINE('',#359,#360);
#359 = CARTESIAN_POINT('',(1.5,-1.27,0.254));
#360 = VECTOR('',#361,1.);
#361 = DIRECTION('',(1.,0.,0.));
#362 = ORIENTED_EDGE('',*,*,#174,.F.);
#363 = PLANE('',#364);
#364 = AXIS2_PLACEMENT_3D('',#365,#366,#367);
#365 = CARTESIAN_POINT('',(1.5,-1.016,0.));
#366 = DIRECTION('',(-0.,-0.707106781187,-0.707106781187));
#367 = DIRECTION('',(0.,-0.707106781187,0.707106781187));
#368 = ADVANCED_FACE('',(#369),#380,.T.);
#369 = FACE_BOUND('',#370,.T.);
#370 = EDGE_LOOP('',(#371,#377,#378,#379));
#371 = ORIENTED_EDGE('',*,*,#372,.T.);
#372 = EDGE_CURVE('',#191,#274,#373,.T.);
#373 = LINE('',#374,#375);
#374 = CARTESIAN_POINT('',(1.5,-1.016,2.54));
#375 = VECTOR('',#376,1.);
#376 = DIRECTION('',(1.,0.,0.));
#377 = ORIENTED_EDGE('',*,*,#281,.T.);
#378 = ORIENTED_EDGE('',*,*,#338,.F.);
#379 = ORIENTED_EDGE('',*,*,#198,.F.);
#380 = PLANE('',#381);
#381 = AXIS2_PLACEMENT_3D('',#382,#383,#384);
#382 = CARTESIAN_POINT('',(1.5,-1.016,2.54));
#383 = DIRECTION('',(0.,0.,1.));
#384 = DIRECTION('',(0.,1.,0.));
#385 = ADVANCED_FACE('',(#386),#397,.T.);
#386 = FACE_BOUND('',#387,.T.);
#387 = EDGE_LOOP('',(#388,#389,#390,#396));
#388 = ORIENTED_EDGE('',*,*,#357,.T.);
#389 = ORIENTED_EDGE('',*,*,#265,.T.);
#390 = ORIENTED_EDGE('',*,*,#391,.F.);
#391 = EDGE_CURVE('',#183,#266,#392,.T.);
#392 = LINE('',#393,#394);
#393 = CARTESIAN_POINT('',(1.5,-1.27,2.286));
#394 = VECTOR('',#395,1.);
#395 = DIRECTION('',(1.,0.,0.));
#396 = ORIENTED_EDGE('',*,*,#182,.F.);
#397 = PLANE('',#398);
#398 = AXIS2_PLACEMENT_3D('',#399,#400,#401);
#399 = CARTESIAN_POINT('',(1.5,-1.27,0.254));
#400 = DIRECTION('',(0.,-1.,0.));
#401 = DIRECTION('',(0.,0.,1.));
#402 = ADVANCED_FACE('',(#403),#409,.T.);
#403 = FACE_BOUND('',#404,.T.);
#404 = EDGE_LOOP('',(#405,#406,#407,#408));
#405 = ORIENTED_EDGE('',*,*,#391,.T.);
#406 = ORIENTED_EDGE('',*,*,#273,.T.);
#407 = ORIENTED_EDGE('',*,*,#372,.F.);
#408 = ORIENTED_EDGE('',*,*,#190,.F.);
#409 = PLANE('',#410);
#410 = AXIS2_PLACEMENT_3D('',#411,#412,#413);
#411 = CARTESIAN_POINT('',(1.5,-1.27,2.286));
#412 = DIRECTION('',(0.,-0.707106781187,0.707106781187));
#413 = DIRECTION('',(0.,0.707106781187,0.707106781187));
#414 = ADVANCED_FACE('',(#415),#465,.T.);
#415 = FACE_BOUND('',#416,.T.);
#416 = EDGE_LOOP('',(#417,#428,#434,#435,#443,#451,#459));
#417 = ORIENTED_EDGE('',*,*,#418,.T.);
#418 = EDGE_CURVE('',#419,#421,#423,.T.);
#419 = VERTEX_POINT('',#420);
#420 = CARTESIAN_POINT('',(-0.32,0.32,0.95));
#421 = VERTEX_POINT('',#422);
#422 = CARTESIAN_POINT('',(0.32,0.32,1.59));
#423 = CIRCLE('',#424,0.64);
#424 = AXIS2_PLACEMENT_3D('',#425,#426,#427);
#425 = CARTESIAN_POINT('',(0.32,0.32,0.95));
#426 = DIRECTION('',(0.,1.,0.));
#427 = DIRECTION('',(0.,0.,-1.));
#428 = ORIENTED_EDGE('',*,*,#429,.T.);
#429 = EDGE_CURVE('',#421,#216,#430,.T.);
#430 = LINE('',#431,#432);
#431 = CARTESIAN_POINT('',(-0.32,0.32,1.59));
#432 = VECTOR('',#433,1.);
#433 = DIRECTION('',(1.,0.,2.143287692327E-17));
#434 = ORIENTED_EDGE('',*,*,#215,.T.);
#435 = ORIENTED_EDGE('',*,*,#436,.T.);
#436 = EDGE_CURVE('',#218,#437,#439,.T.);
#437 = VERTEX_POINT('',#438);
#438 = CARTESIAN_POINT('',(0.32,0.32,0.95));
#439 = LINE('',#440,#441);
#440 = CARTESIAN_POINT('',(10.04,0.32,0.95));
#441 = VECTOR('',#442,1.);
#442 = DIRECTION('',(-1.,0.,0.));
#443 = ORIENTED_EDGE('',*,*,#444,.T.);
#444 = EDGE_CURVE('',#437,#445,#447,.T.);
#445 = VERTEX_POINT('',#446);
#446 = CARTESIAN_POINT('',(0.32,0.32,-2.84));
#447 = LINE('',#448,#449);
#448 = CARTESIAN_POINT('',(0.32,0.32,0.95));
#449 = VECTOR('',#450,1.);
#450 = DIRECTION('',(0.,0.,-1.));
#451 = ORIENTED_EDGE('',*,*,#452,.T.);
#452 = EDGE_CURVE('',#445,#453,#455,.T.);
#453 = VERTEX_POINT('',#454);
#454 = CARTESIAN_POINT('',(-0.32,0.32,-2.84));
#455 = LINE('',#456,#457);
#456 = CARTESIAN_POINT('',(0.32,0.32,-2.84));
#457 = VECTOR('',#458,1.);
#458 = DIRECTION('',(-1.,0.,0.));
#459 = ORIENTED_EDGE('',*,*,#460,.T.);
#460 = EDGE_CURVE('',#453,#419,#461,.T.);
#461 = LINE('',#462,#463);
#462 = CARTESIAN_POINT('',(-0.32,0.32,-3.));
#463 = VECTOR('',#464,1.);
#464 = DIRECTION('',(0.,0.,1.));
#465 = PLANE('',#466);
#466 = AXIS2_PLACEMENT_3D('',#467,#468,#469);
#467 = CARTESIAN_POINT('',(3.575919732441,0.32,0.579080267559));
#468 = DIRECTION('',(1.030170245606E-33,1.,6.630961875715E-34));
#469 = DIRECTION('',(1.,-1.030170245606E-33,0.));
#470 = ADVANCED_FACE('',(#471),#489,.T.);
#471 = FACE_BOUND('',#472,.T.);
#472 = EDGE_LOOP('',(#473,#474,#475,#483));
#473 = ORIENTED_EDGE('',*,*,#436,.F.);
#474 = ORIENTED_EDGE('',*,*,#241,.T.);
#475 = ORIENTED_EDGE('',*,*,#476,.T.);
#476 = EDGE_CURVE('',#234,#477,#479,.T.);
#477 = VERTEX_POINT('',#478);
#478 = CARTESIAN_POINT('',(0.32,-0.32,0.95));
#479 = LINE('',#480,#481);
#480 = CARTESIAN_POINT('',(10.04,-0.32,0.95));
#481 = VECTOR('',#482,1.);
#482 = DIRECTION('',(-1.,0.,0.));
#483 = ORIENTED_EDGE('',*,*,#484,.F.);
#484 = EDGE_CURVE('',#437,#477,#485,.T.);
#485 = LINE('',#486,#487);
#486 = CARTESIAN_POINT('',(0.32,0.32,0.95));
#487 = VECTOR('',#488,1.);
#488 = DIRECTION('',(0.,-1.,0.));
#489 = PLANE('',#490);
#490 = AXIS2_PLACEMENT_3D('',#491,#492,#493);
#491 = CARTESIAN_POINT('',(10.04,0.32,0.95));
#492 = DIRECTION('',(-0.,-0.,-1.));
#493 = DIRECTION('',(-1.,0.,0.));
#494 = ADVANCED_FACE('',(#495),#538,.F.);
#495 = FACE_BOUND('',#496,.F.);
#496 = EDGE_LOOP('',(#497,#508,#514,#515,#516,#524,#532));
#497 = ORIENTED_EDGE('',*,*,#498,.T.);
#498 = EDGE_CURVE('',#499,#501,#503,.T.);
#499 = VERTEX_POINT('',#500);
#500 = CARTESIAN_POINT('',(-0.32,-0.32,0.95));
#501 = VERTEX_POINT('',#502);
#502 = CARTESIAN_POINT('',(0.32,-0.32,1.59));
#503 = CIRCLE('',#504,0.64);
#504 = AXIS2_PLACEMENT_3D('',#505,#506,#507);
#505 = CARTESIAN_POINT('',(0.32,-0.32,0.95));
#506 = DIRECTION('',(0.,1.,0.));
#507 = DIRECTION('',(0.,0.,-1.));
#508 = ORIENTED_EDGE('',*,*,#509,.T.);
#509 = EDGE_CURVE('',#501,#226,#510,.T.);
#510 = LINE('',#511,#512);
#511 = CARTESIAN_POINT('',(-0.32,-0.32,1.59));
#512 = VECTOR('',#513,1.);
#513 = DIRECTION('',(1.,0.,2.143287692327E-17));
#514 = ORIENTED_EDGE('',*,*,#233,.T.);
#515 = ORIENTED_EDGE('',*,*,#476,.T.);
#516 = ORIENTED_EDGE('',*,*,#517,.T.);
#517 = EDGE_CURVE('',#477,#518,#520,.T.);
#518 = VERTEX_POINT('',#519);
#519 = CARTESIAN_POINT('',(0.32,-0.32,-2.84));
#520 = LINE('',#521,#522);
#521 = CARTESIAN_POINT('',(0.32,-0.32,0.95));
#522 = VECTOR('',#523,1.);
#523 = DIRECTION('',(0.,0.,-1.));
#524 = ORIENTED_EDGE('',*,*,#525,.T.);
#525 = EDGE_CURVE('',#518,#526,#528,.T.);
#526 = VERTEX_POINT('',#527);
#527 = CARTESIAN_POINT('',(-0.32,-0.32,-2.84));
#528 = LINE('',#529,#530);
#529 = CARTESIAN_POINT('',(0.32,-0.32,-2.84));
#530 = VECTOR('',#531,1.);
#531 = DIRECTION('',(-1.,0.,0.));
#532 = ORIENTED_EDGE('',*,*,#533,.T.);
#533 = EDGE_CURVE('',#526,#499,#534,.T.);
#534 = LINE('',#535,#536);
#535 = CARTESIAN_POINT('',(-0.32,-0.32,-3.));
#536 = VECTOR('',#537,1.);
#537 = DIRECTION('',(0.,0.,1.));
#538 = PLANE('',#539);
#539 = AXIS2_PLACEMENT_3D('',#540,#541,#542);
#540 = CARTESIAN_POINT('',(3.575919732441,-0.32,0.579080267559));
#541 = DIRECTION('',(1.030170245606E-33,1.,6.630961875715E-34));
#542 = DIRECTION('',(1.,-1.030170245606E-33,0.));
#543 = ADVANCED_FACE('',(#544),#555,.T.);
#544 = FACE_BOUND('',#545,.T.);
#545 = EDGE_LOOP('',(#546,#547,#553,#554));
#546 = ORIENTED_EDGE('',*,*,#429,.F.);
#547 = ORIENTED_EDGE('',*,*,#548,.T.);
#548 = EDGE_CURVE('',#421,#501,#549,.T.);
#549 = LINE('',#550,#551);
#550 = CARTESIAN_POINT('',(0.32,0.32,1.59));
#551 = VECTOR('',#552,1.);
#552 = DIRECTION('',(0.,-1.,0.));
#553 = ORIENTED_EDGE('',*,*,#509,.T.);
#554 = ORIENTED_EDGE('',*,*,#225,.T.);
#555 = PLANE('',#556);
#556 = AXIS2_PLACEMENT_3D('',#557,#558,#559);
#557 = CARTESIAN_POINT('',(-0.32,0.32,1.59));
#558 = DIRECTION('',(-2.143287692327E-17,0.,1.));
#559 = DIRECTION('',(1.,0.,2.143287692327E-17));
#560 = ADVANCED_FACE('',(#561),#586,.T.);
#561 = FACE_BOUND('',#562,.T.);
#562 = EDGE_LOOP('',(#563,#564,#572,#580));
#563 = ORIENTED_EDGE('',*,*,#298,.F.);
#564 = ORIENTED_EDGE('',*,*,#565,.T.);
#565 = EDGE_CURVE('',#299,#566,#568,.T.);
#566 = VERTEX_POINT('',#567);
#567 = CARTESIAN_POINT('',(9.88,0.32,1.59));
#568 = LINE('',#569,#570);
#569 = CARTESIAN_POINT('',(-0.32,0.32,1.59));
#570 = VECTOR('',#571,1.);
#571 = DIRECTION('',(1.,0.,2.143287692327E-17));
#572 = ORIENTED_EDGE('',*,*,#573,.T.);
#573 = EDGE_CURVE('',#566,#574,#576,.T.);
#574 = VERTEX_POINT('',#575);
#575 = CARTESIAN_POINT('',(9.88,0.32,0.95));
#576 = LINE('',#577,#578);
#577 = CARTESIAN_POINT('',(9.88,0.32,1.59));
#578 = VECTOR('',#579,1.);
#579 = DIRECTION('',(0.,0.,-1.));
#580 = ORIENTED_EDGE('',*,*,#581,.T.);
#581 = EDGE_CURVE('',#574,#301,#582,.T.);
#582 = LINE('',#583,#584);
#583 = CARTESIAN_POINT('',(10.04,0.32,0.95));
#584 = VECTOR('',#585,1.);
#585 = DIRECTION('',(-1.,0.,0.));
#586 = PLANE('',#587);
#587 = AXIS2_PLACEMENT_3D('',#588,#589,#590);
#588 = CARTESIAN_POINT('',(3.575919732441,0.32,0.579080267559));
#589 = DIRECTION('',(1.030170245606E-33,1.,6.630961875715E-34));
#590 = DIRECTION('',(1.,-1.030170245606E-33,0.));
#591 = ADVANCED_FACE('',(#592),#610,.T.);
#592 = FACE_BOUND('',#593,.T.);
#593 = EDGE_LOOP('',(#594,#595,#603,#609));
#594 = ORIENTED_EDGE('',*,*,#581,.F.);
#595 = ORIENTED_EDGE('',*,*,#596,.T.);
#596 = EDGE_CURVE('',#574,#597,#599,.T.);
#597 = VERTEX_POINT('',#598);
#598 = CARTESIAN_POINT('',(9.88,-0.32,0.95));
#599 = LINE('',#600,#601);
#600 = CARTESIAN_POINT('',(9.88,0.32,0.95));
#601 = VECTOR('',#602,1.);
#602 = DIRECTION('',(0.,-1.,0.));
#603 = ORIENTED_EDGE('',*,*,#604,.T.);
#604 = EDGE_CURVE('',#597,#317,#605,.T.);
#605 = LINE('',#606,#607);
#606 = CARTESIAN_POINT('',(10.04,-0.32,0.95));
#607 = VECTOR('',#608,1.);
#608 = DIRECTION('',(-1.,0.,0.));
#609 = ORIENTED_EDGE('',*,*,#324,.F.);
#610 = PLANE('',#611);
#611 = AXIS2_PLACEMENT_3D('',#612,#613,#614);
#612 = CARTESIAN_POINT('',(10.04,0.32,0.95));
#613 = DIRECTION('',(-0.,-0.,-1.));
#614 = DIRECTION('',(-1.,0.,0.));
#615 = ADVANCED_FACE('',(#616),#634,.F.);
#616 = FACE_BOUND('',#617,.F.);
#617 = EDGE_LOOP('',(#618,#619,#627,#633));
#618 = ORIENTED_EDGE('',*,*,#316,.F.);
#619 = ORIENTED_EDGE('',*,*,#620,.T.);
#620 = EDGE_CURVE('',#309,#621,#623,.T.);
#621 = VERTEX_POINT('',#622);
#622 = CARTESIAN_POINT('',(9.88,-0.32,1.59));
#623 = LINE('',#624,#625);
#624 = CARTESIAN_POINT('',(-0.32,-0.32,1.59));
#625 = VECTOR('',#626,1.);
#626 = DIRECTION('',(1.,0.,2.143287692327E-17));
#627 = ORIENTED_EDGE('',*,*,#628,.T.);
#628 = EDGE_CURVE('',#621,#597,#629,.T.);
#629 = LINE('',#630,#631);
#630 = CARTESIAN_POINT('',(9.88,-0.32,1.59));
#631 = VECTOR('',#632,1.);
#632 = DIRECTION('',(0.,0.,-1.));
#633 = ORIENTED_EDGE('',*,*,#604,.T.);
#634 = PLANE('',#635);
#635 = AXIS2_PLACEMENT_3D('',#636,#637,#638);
#636 = CARTESIAN_POINT('',(3.575919732441,-0.32,0.579080267559));
#637 = DIRECTION('',(1.030170245606E-33,1.,6.630961875715E-34));
#638 = DIRECTION('',(1.,-1.030170245606E-33,0.));
#639 = ADVANCED_FACE('',(#640),#651,.T.);
#640 = FACE_BOUND('',#641,.T.);
#641 = EDGE_LOOP('',(#642,#643,#644,#645));
#642 = ORIENTED_EDGE('',*,*,#565,.F.);
#643 = ORIENTED_EDGE('',*,*,#308,.F.);
#644 = ORIENTED_EDGE('',*,*,#620,.T.);
#645 = ORIENTED_EDGE('',*,*,#646,.F.);
#646 = EDGE_CURVE('',#566,#621,#647,.T.);
#647 = LINE('',#648,#649);
#648 = CARTESIAN_POINT('',(9.88,0.32,1.59));
#649 = VECTOR('',#650,1.);
#650 = DIRECTION('',(0.,-1.,0.));
#651 = PLANE('',#652);
#652 = AXIS2_PLACEMENT_3D('',#653,#654,#655);
#653 = CARTESIAN_POINT('',(-0.32,0.32,1.59));
#654 = DIRECTION('',(-2.143287692327E-17,0.,1.));
#655 = DIRECTION('',(1.,0.,2.143287692327E-17));
#656 = ADVANCED_FACE('',(#657),#668,.T.);
#657 = FACE_BOUND('',#658,.T.);
#658 = EDGE_LOOP('',(#659,#665,#666,#667));
#659 = ORIENTED_EDGE('',*,*,#660,.T.);
#660 = EDGE_CURVE('',#419,#499,#661,.T.);
#661 = LINE('',#662,#663);
#662 = CARTESIAN_POINT('',(-0.32,0.32,0.95));
#663 = VECTOR('',#664,1.);
#664 = DIRECTION('',(0.,-1.,0.));
#665 = ORIENTED_EDGE('',*,*,#498,.T.);
#666 = ORIENTED_EDGE('',*,*,#548,.F.);
#667 = ORIENTED_EDGE('',*,*,#418,.F.);
#668 = CYLINDRICAL_SURFACE('',#669,0.64);
#669 = AXIS2_PLACEMENT_3D('',#670,#671,#672);
#670 = CARTESIAN_POINT('',(0.32,0.32,0.95));
#671 = DIRECTION('',(0.,-1.,0.));
#672 = DIRECTION('',(-1.,0.,0.));
#673 = ADVANCED_FACE('',(#674),#685,.T.);
#674 = FACE_BOUND('',#675,.T.);
#675 = EDGE_LOOP('',(#676,#677,#683,#684));
#676 = ORIENTED_EDGE('',*,*,#460,.F.);
#677 = ORIENTED_EDGE('',*,*,#678,.T.);
#678 = EDGE_CURVE('',#453,#526,#679,.T.);
#679 = LINE('',#680,#681);
#680 = CARTESIAN_POINT('',(-0.32,0.32,-2.84));
#681 = VECTOR('',#682,1.);
#682 = DIRECTION('',(0.,-1.,0.));
#683 = ORIENTED_EDGE('',*,*,#533,.T.);
#684 = ORIENTED_EDGE('',*,*,#660,.F.);
#685 = PLANE('',#686);
#686 = AXIS2_PLACEMENT_3D('',#687,#688,#689);
#687 = CARTESIAN_POINT('',(-0.32,0.32,-3.));
#688 = DIRECTION('',(-1.,0.,0.));
#689 = DIRECTION('',(0.,0.,1.));
#690 = ADVANCED_FACE('',(#691),#716,.T.);
#691 = FACE_BOUND('',#692,.F.);
#692 = EDGE_LOOP('',(#693,#701,#702,#710));
#693 = ORIENTED_EDGE('',*,*,#694,.T.);
#694 = EDGE_CURVE('',#695,#445,#697,.T.);
#695 = VERTEX_POINT('',#696);
#696 = CARTESIAN_POINT('',(0.16,0.16,-3.));
#697 = LINE('',#698,#699);
#698 = CARTESIAN_POINT('',(0.266666666667,0.266666666667,-2.893333333333
    ));
#699 = VECTOR('',#700,1.);
#700 = DIRECTION('',(0.57735026919,0.57735026919,0.57735026919));
#701 = ORIENTED_EDGE('',*,*,#452,.T.);
#702 = ORIENTED_EDGE('',*,*,#703,.T.);
#703 = EDGE_CURVE('',#453,#704,#706,.T.);
#704 = VERTEX_POINT('',#705);
#705 = CARTESIAN_POINT('',(-0.16,0.16,-3.));
#706 = LINE('',#707,#708);
#707 = CARTESIAN_POINT('',(-0.16,0.16,-3.));
#708 = VECTOR('',#709,1.);
#709 = DIRECTION('',(0.57735026919,-0.57735026919,-0.57735026919));
#710 = ORIENTED_EDGE('',*,*,#711,.F.);
#711 = EDGE_CURVE('',#695,#704,#712,.T.);
#712 = LINE('',#713,#714);
#713 = CARTESIAN_POINT('',(0.32,0.16,-3.));
#714 = VECTOR('',#715,1.);
#715 = DIRECTION('',(-1.,0.,0.));
#716 = PLANE('',#717);
#717 = AXIS2_PLACEMENT_3D('',#718,#719,#720);
#718 = CARTESIAN_POINT('',(0.32,0.24,-2.92));
#719 = DIRECTION('',(-1.735167508357E-18,0.707106781187,-0.707106781187)
  );
#720 = DIRECTION('',(1.,1.226948711654E-18,-1.226948711654E-18));
#721 = ADVANCED_FACE('',(#722),#733,.T.);
#722 = FACE_BOUND('',#723,.T.);
#723 = EDGE_LOOP('',(#724,#725,#726,#727));
#724 = ORIENTED_EDGE('',*,*,#444,.F.);
#725 = ORIENTED_EDGE('',*,*,#484,.T.);
#726 = ORIENTED_EDGE('',*,*,#517,.T.);
#727 = ORIENTED_EDGE('',*,*,#728,.F.);
#728 = EDGE_CURVE('',#445,#518,#729,.T.);
#729 = LINE('',#730,#731);
#730 = CARTESIAN_POINT('',(0.32,0.32,-2.84));
#731 = VECTOR('',#732,1.);
#732 = DIRECTION('',(0.,-1.,0.));
#733 = PLANE('',#734);
#734 = AXIS2_PLACEMENT_3D('',#735,#736,#737);
#735 = CARTESIAN_POINT('',(0.32,0.32,0.95));
#736 = DIRECTION('',(1.,0.,0.));
#737 = DIRECTION('',(0.,0.,-1.));
#738 = ADVANCED_FACE('',(#739),#764,.F.);
#739 = FACE_BOUND('',#740,.F.);
#740 = EDGE_LOOP('',(#741,#749,#757,#763));
#741 = ORIENTED_EDGE('',*,*,#742,.F.);
#742 = EDGE_CURVE('',#743,#518,#745,.T.);
#743 = VERTEX_POINT('',#744);
#744 = CARTESIAN_POINT('',(0.16,-0.16,-3.));
#745 = LINE('',#746,#747);
#746 = CARTESIAN_POINT('',(0.16,-0.16,-3.));
#747 = VECTOR('',#748,1.);
#748 = DIRECTION('',(0.57735026919,-0.57735026919,0.57735026919));
#749 = ORIENTED_EDGE('',*,*,#750,.T.);
#750 = EDGE_CURVE('',#743,#751,#753,.T.);
#751 = VERTEX_POINT('',#752);
#752 = CARTESIAN_POINT('',(-0.16,-0.16,-3.));
#753 = LINE('',#754,#755);
#754 = CARTESIAN_POINT('',(0.32,-0.16,-3.));
#755 = VECTOR('',#756,1.);
#756 = DIRECTION('',(-1.,0.,0.));
#757 = ORIENTED_EDGE('',*,*,#758,.T.);
#758 = EDGE_CURVE('',#751,#526,#759,.T.);
#759 = LINE('',#760,#761);
#760 = CARTESIAN_POINT('',(-5.333333333333E-02,-5.333333333333E-02,
    -3.106666666667));
#761 = VECTOR('',#762,1.);
#762 = DIRECTION('',(-0.57735026919,-0.57735026919,0.57735026919));
#763 = ORIENTED_EDGE('',*,*,#525,.F.);
#764 = PLANE('',#765);
#765 = AXIS2_PLACEMENT_3D('',#766,#767,#768);
#766 = CARTESIAN_POINT('',(0.32,-0.24,-2.92));
#767 = DIRECTION('',(1.735167508357E-18,0.707106781187,0.707106781187));
#768 = DIRECTION('',(-1.,1.226948711654E-18,1.226948711654E-18));
#769 = ADVANCED_FACE('',(#770),#795,.T.);
#770 = FACE_BOUND('',#771,.F.);
#771 = EDGE_LOOP('',(#772,#780,#781,#789));
#772 = ORIENTED_EDGE('',*,*,#773,.F.);
#773 = EDGE_CURVE('',#566,#774,#776,.T.);
#774 = VERTEX_POINT('',#775);
#775 = CARTESIAN_POINT('',(10.04,0.16,1.43));
#776 = LINE('',#777,#778);
#777 = CARTESIAN_POINT('',(9.933333333333,0.266666666667,1.536666666667)
  );
#778 = VECTOR('',#779,1.);
#779 = DIRECTION('',(0.57735026919,-0.57735026919,-0.57735026919));
#780 = ORIENTED_EDGE('',*,*,#573,.T.);
#781 = ORIENTED_EDGE('',*,*,#782,.T.);
#782 = EDGE_CURVE('',#574,#783,#785,.T.);
#783 = VERTEX_POINT('',#784);
#784 = CARTESIAN_POINT('',(10.04,0.16,1.11));
#785 = LINE('',#786,#787);
#786 = CARTESIAN_POINT('',(10.04,0.16,1.11));
#787 = VECTOR('',#788,1.);
#788 = DIRECTION('',(0.57735026919,-0.57735026919,0.57735026919));
#789 = ORIENTED_EDGE('',*,*,#790,.F.);
#790 = EDGE_CURVE('',#774,#783,#791,.T.);
#791 = LINE('',#792,#793);
#792 = CARTESIAN_POINT('',(10.04,0.16,1.59));
#793 = VECTOR('',#794,1.);
#794 = DIRECTION('',(0.,0.,-1.));
#795 = PLANE('',#796);
#796 = AXIS2_PLACEMENT_3D('',#797,#798,#799);
#797 = CARTESIAN_POINT('',(9.96,0.24,1.59));
#798 = DIRECTION('',(0.707106781187,0.707106781187,-1.735167508357E-18)
  );
#799 = DIRECTION('',(1.226948711654E-18,1.226948711654E-18,1.));
#800 = ADVANCED_FACE('',(#801),#819,.T.);
#801 = FACE_BOUND('',#802,.F.);
#802 = EDGE_LOOP('',(#803,#804,#805,#813));
#803 = ORIENTED_EDGE('',*,*,#782,.F.);
#804 = ORIENTED_EDGE('',*,*,#596,.T.);
#805 = ORIENTED_EDGE('',*,*,#806,.T.);
#806 = EDGE_CURVE('',#597,#807,#809,.T.);
#807 = VERTEX_POINT('',#808);
#808 = CARTESIAN_POINT('',(10.04,-0.16,1.11));
#809 = LINE('',#810,#811);
#810 = CARTESIAN_POINT('',(10.146666666667,-5.333333333333E-02,
    1.216666666667));
#811 = VECTOR('',#812,1.);
#812 = DIRECTION('',(0.57735026919,0.57735026919,0.57735026919));
#813 = ORIENTED_EDGE('',*,*,#814,.F.);
#814 = EDGE_CURVE('',#783,#807,#815,.T.);
#815 = LINE('',#816,#817);
#816 = CARTESIAN_POINT('',(10.04,0.32,1.11));
#817 = VECTOR('',#818,1.);
#818 = DIRECTION('',(0.,-1.,0.));
#819 = PLANE('',#820);
#820 = AXIS2_PLACEMENT_3D('',#821,#822,#823);
#821 = CARTESIAN_POINT('',(9.96,0.32,1.03));
#822 = DIRECTION('',(0.707106781187,0.,-0.707106781187));
#823 = DIRECTION('',(0.,1.,0.));
#824 = ADVANCED_FACE('',(#825),#843,.F.);
#825 = FACE_BOUND('',#826,.T.);
#826 = EDGE_LOOP('',(#827,#835,#836,#837));
#827 = ORIENTED_EDGE('',*,*,#828,.F.);
#828 = EDGE_CURVE('',#621,#829,#831,.T.);
#829 = VERTEX_POINT('',#830);
#830 = CARTESIAN_POINT('',(10.04,-0.16,1.43));
#831 = LINE('',#832,#833);
#832 = CARTESIAN_POINT('',(10.04,-0.16,1.43));
#833 = VECTOR('',#834,1.);
#834 = DIRECTION('',(0.57735026919,0.57735026919,-0.57735026919));
#835 = ORIENTED_EDGE('',*,*,#628,.T.);
#836 = ORIENTED_EDGE('',*,*,#806,.T.);
#837 = ORIENTED_EDGE('',*,*,#838,.F.);
#838 = EDGE_CURVE('',#829,#807,#839,.T.);
#839 = LINE('',#840,#841);
#840 = CARTESIAN_POINT('',(10.04,-0.16,1.59));
#841 = VECTOR('',#842,1.);
#842 = DIRECTION('',(0.,0.,-1.));
#843 = PLANE('',#844);
#844 = AXIS2_PLACEMENT_3D('',#845,#846,#847);
#845 = CARTESIAN_POINT('',(9.96,-0.24,1.59));
#846 = DIRECTION('',(-0.707106781187,0.707106781187,1.735167508357E-18)
  );
#847 = DIRECTION('',(1.226948711654E-18,-1.226948711654E-18,1.));
#848 = ADVANCED_FACE('',(#849),#860,.T.);
#849 = FACE_BOUND('',#850,.T.);
#850 = EDGE_LOOP('',(#851,#852,#853,#854));
#851 = ORIENTED_EDGE('',*,*,#773,.F.);
#852 = ORIENTED_EDGE('',*,*,#646,.T.);
#853 = ORIENTED_EDGE('',*,*,#828,.T.);
#854 = ORIENTED_EDGE('',*,*,#855,.F.);
#855 = EDGE_CURVE('',#774,#829,#856,.T.);
#856 = LINE('',#857,#858);
#857 = CARTESIAN_POINT('',(10.04,0.32,1.43));
#858 = VECTOR('',#859,1.);
#859 = DIRECTION('',(0.,-1.,0.));
#860 = PLANE('',#861);
#861 = AXIS2_PLACEMENT_3D('',#862,#863,#864);
#862 = CARTESIAN_POINT('',(9.96,0.32,1.51));
#863 = DIRECTION('',(0.707106781187,-1.735167508357E-18,0.707106781187)
  );
#864 = DIRECTION('',(-1.226948711654E-18,-1.,-1.226948711654E-18));
#865 = ADVANCED_FACE('',(#866),#877,.T.);
#866 = FACE_BOUND('',#867,.F.);
#867 = EDGE_LOOP('',(#868,#869,#870,#871));
#868 = ORIENTED_EDGE('',*,*,#703,.F.);
#869 = ORIENTED_EDGE('',*,*,#678,.T.);
#870 = ORIENTED_EDGE('',*,*,#758,.F.);
#871 = ORIENTED_EDGE('',*,*,#872,.F.);
#872 = EDGE_CURVE('',#704,#751,#873,.T.);
#873 = LINE('',#874,#875);
#874 = CARTESIAN_POINT('',(-0.16,0.32,-3.));
#875 = VECTOR('',#876,1.);
#876 = DIRECTION('',(0.,-1.,0.));
#877 = PLANE('',#878);
#878 = AXIS2_PLACEMENT_3D('',#879,#880,#881);
#879 = CARTESIAN_POINT('',(-0.24,0.32,-2.92));
#880 = DIRECTION('',(-0.707106781187,-1.735167508357E-18,-0.707106781187
    ));
#881 = DIRECTION('',(-1.226948711654E-18,1.,-1.226948711654E-18));
#882 = ADVANCED_FACE('',(#883),#894,.T.);
#883 = FACE_BOUND('',#884,.F.);
#884 = EDGE_LOOP('',(#885,#886,#892,#893));
#885 = ORIENTED_EDGE('',*,*,#694,.F.);
#886 = ORIENTED_EDGE('',*,*,#887,.T.);
#887 = EDGE_CURVE('',#695,#743,#888,.T.);
#888 = LINE('',#889,#890);
#889 = CARTESIAN_POINT('',(0.16,0.32,-3.));
#890 = VECTOR('',#891,1.);
#891 = DIRECTION('',(0.,-1.,0.));
#892 = ORIENTED_EDGE('',*,*,#742,.T.);
#893 = ORIENTED_EDGE('',*,*,#728,.F.);
#894 = PLANE('',#895);
#895 = AXIS2_PLACEMENT_3D('',#896,#897,#898);
#896 = CARTESIAN_POINT('',(0.24,0.32,-2.92));
#897 = DIRECTION('',(0.707106781187,1.735167508357E-18,-0.707106781187)
  );
#898 = DIRECTION('',(-1.226948711654E-18,1.,1.226948711654E-18));
#899 = ADVANCED_FACE('',(#900),#906,.T.);
#900 = FACE_BOUND('',#901,.T.);
#901 = EDGE_LOOP('',(#902,#903,#904,#905));
#902 = ORIENTED_EDGE('',*,*,#887,.T.);
#903 = ORIENTED_EDGE('',*,*,#750,.T.);
#904 = ORIENTED_EDGE('',*,*,#872,.F.);
#905 = ORIENTED_EDGE('',*,*,#711,.F.);
#906 = PLANE('',#907);
#907 = AXIS2_PLACEMENT_3D('',#908,#909,#910);
#908 = CARTESIAN_POINT('',(0.32,0.32,-3.));
#909 = DIRECTION('',(-0.,-0.,-1.));
#910 = DIRECTION('',(-1.,0.,0.));
#911 = ADVANCED_FACE('',(#912),#918,.T.);
#912 = FACE_BOUND('',#913,.T.);
#913 = EDGE_LOOP('',(#914,#915,#916,#917));
#914 = ORIENTED_EDGE('',*,*,#855,.T.);
#915 = ORIENTED_EDGE('',*,*,#838,.T.);
#916 = ORIENTED_EDGE('',*,*,#814,.F.);
#917 = ORIENTED_EDGE('',*,*,#790,.F.);
#918 = PLANE('',#919);
#919 = AXIS2_PLACEMENT_3D('',#920,#921,#922);
#920 = CARTESIAN_POINT('',(10.04,0.32,1.59));
#921 = DIRECTION('',(1.,0.,0.));
#922 = DIRECTION('',(0.,0.,-1.));
#923 = ( GEOMETRIC_REPRESENTATION_CONTEXT(3) 
GLOBAL_UNCERTAINTY_ASSIGNED_CONTEXT((#927)) GLOBAL_UNIT_ASSIGNED_CONTEXT
((#924,#925,#926)) REPRESENTATION_CONTEXT('Context #1',
  '3D Context with UNIT and UNCERTAINTY') );
#924 = ( LENGTH_UNIT() NAMED_UNIT(*) SI_UNIT(.MILLI.,.METRE.) );
#925 = ( NAMED_UNIT(*) PLANE_ANGLE_UNIT() SI_UNIT($,.RADIAN.) );
#926 = ( NAMED_UNIT(*) SI_UNIT($,.STERADIAN.) SOLID_ANGLE_UNIT() );
#927 = UNCERTAINTY_MEASURE_WITH_UNIT(LENGTH_MEASURE(1.E-07),#924,
  'distance_accuracy_value','confusion accuracy');
#928 = CONTEXT_DEPENDENT_SHAPE_REPRESENTATION(#929,#931);
#929 = ( REPRESENTATION_RELATIONSHIP('','',#63,#40) 
REPRESENTATION_RELATIONSHIP_WITH_TRANSFORMATION(#930) 
SHAPE_REPRESENTATION_RELATIONSHIP() );
#930 = ITEM_DEFINED_TRANSFORMATION('','',#11,#41);
#931 = PRODUCT_DEFINITION_SHAPE('Placement','Placement of an item',#932
  );
#932 = NEXT_ASSEMBLY_USAGE_OCCURRENCE('1','=>[0:1:1:3]','',#35,#58,$);
#933 = PRODUCT_RELATED_PRODUCT_CATEGORY('part',$,(#60));
#934 = SHAPE_DEFINITION_REPRESENTATION(#935,#941);
#935 = PRODUCT_DEFINITION_SHAPE('','',#936);
#936 = PRODUCT_DEFINITION('design','',#937,#940);
#937 = PRODUCT_DEFINITION_FORMATION('','',#938);
#938 = PRODUCT(
'electronic_connector_header_2_54_mm_pitch_through_hole_right_angle_
long_pin_1_pin_render_pad',
'electronic_connector_header_2_54_mm_pitch_through_hole_right_angle_
long_pin_1_pin_render_pad','',(#939));
#939 = PRODUCT_CONTEXT('',#2,'mechanical');
#940 = PRODUCT_DEFINITION_CONTEXT('part definition',#2,'design');
#941 = SHAPE_REPRESENTATION('',(#11,#942,#1131,#1320),#1412);
#942 = MANIFOLD_SOLID_BREP('',#943);
#943 = CLOSED_SHELL('',(#944,#984,#1015,#1046,#1074,#1102,#1114));
#944 = ADVANCED_FACE('',(#945),#979,.T.);
#945 = FACE_BOUND('',#946,.T.);
#946 = EDGE_LOOP('',(#947,#957,#965,#973));
#947 = ORIENTED_EDGE('',*,*,#948,.T.);
#948 = EDGE_CURVE('',#949,#951,#953,.T.);
#949 = VERTEX_POINT('',#950);
#950 = CARTESIAN_POINT('',(-0.85,-0.85,1.51));
#951 = VERTEX_POINT('',#952);
#952 = CARTESIAN_POINT('',(-0.85,-0.85,1.55));
#953 = LINE('',#954,#955);
#954 = CARTESIAN_POINT('',(-0.85,-0.85,1.51));
#955 = VECTOR('',#956,1.);
#956 = DIRECTION('',(0.,0.,1.));
#957 = ORIENTED_EDGE('',*,*,#958,.T.);
#958 = EDGE_CURVE('',#951,#959,#961,.T.);
#959 = VERTEX_POINT('',#960);
#960 = CARTESIAN_POINT('',(-0.85,0.85,1.55));
#961 = LINE('',#962,#963);
#962 = CARTESIAN_POINT('',(-0.85,-0.85,1.55));
#963 = VECTOR('',#964,1.);
#964 = DIRECTION('',(0.,1.,0.));
#965 = ORIENTED_EDGE('',*,*,#966,.F.);
#966 = EDGE_CURVE('',#967,#959,#969,.T.);
#967 = VERTEX_POINT('',#968);
#968 = CARTESIAN_POINT('',(-0.85,0.85,1.51));
#969 = LINE('',#970,#971);
#970 = CARTESIAN_POINT('',(-0.85,0.85,1.51));
#971 = VECTOR('',#972,1.);
#972 = DIRECTION('',(0.,0.,1.));
#973 = ORIENTED_EDGE('',*,*,#974,.F.);
#974 = EDGE_CURVE('',#949,#967,#975,.T.);
#975 = LINE('',#976,#977);
#976 = CARTESIAN_POINT('',(-0.85,-0.85,1.51));
#977 = VECTOR('',#978,1.);
#978 = DIRECTION('',(0.,1.,0.));
#979 = PLANE('',#980);
#980 = AXIS2_PLACEMENT_3D('',#981,#982,#983);
#981 = CARTESIAN_POINT('',(-0.85,-0.85,1.51));
#982 = DIRECTION('',(-1.,0.,0.));
#983 = DIRECTION('',(0.,1.,0.));
#984 = ADVANCED_FACE('',(#985),#1010,.T.);
#985 = FACE_BOUND('',#986,.T.);
#986 = EDGE_LOOP('',(#987,#997,#1003,#1004));
#987 = ORIENTED_EDGE('',*,*,#988,.T.);
#988 = EDGE_CURVE('',#989,#991,#993,.T.);
#989 = VERTEX_POINT('',#990);
#990 = CARTESIAN_POINT('',(0.85,-0.85,1.51));
#991 = VERTEX_POINT('',#992);
#992 = CARTESIAN_POINT('',(0.85,-0.85,1.55));
#993 = LINE('',#994,#995);
#994 = CARTESIAN_POINT('',(0.85,-0.85,1.51));
#995 = VECTOR('',#996,1.);
#996 = DIRECTION('',(0.,0.,1.));
#997 = ORIENTED_EDGE('',*,*,#998,.T.);
#998 = EDGE_CURVE('',#991,#951,#999,.T.);
#999 = LINE('',#1000,#1001);
#1000 = CARTESIAN_POINT('',(0.85,-0.85,1.55));
#1001 = VECTOR('',#1002,1.);
#1002 = DIRECTION('',(-1.,0.,0.));
#1003 = ORIENTED_EDGE('',*,*,#948,.F.);
#1004 = ORIENTED_EDGE('',*,*,#1005,.F.);
#1005 = EDGE_CURVE('',#989,#949,#1006,.T.);
#1006 = LINE('',#1007,#1008);
#1007 = CARTESIAN_POINT('',(0.85,-0.85,1.51));
#1008 = VECTOR('',#1009,1.);
#1009 = DIRECTION('',(-1.,0.,0.));
#1010 = PLANE('',#1011);
#1011 = AXIS2_PLACEMENT_3D('',#1012,#1013,#1014);
#1012 = CARTESIAN_POINT('',(0.85,-0.85,1.51));
#1013 = DIRECTION('',(0.,-1.,0.));
#1014 = DIRECTION('',(-1.,0.,0.));
#1015 = ADVANCED_FACE('',(#1016),#1041,.T.);
#1016 = FACE_BOUND('',#1017,.T.);
#1017 = EDGE_LOOP('',(#1018,#1019,#1027,#1035));
#1018 = ORIENTED_EDGE('',*,*,#966,.T.);
#1019 = ORIENTED_EDGE('',*,*,#1020,.T.);
#1020 = EDGE_CURVE('',#959,#1021,#1023,.T.);
#1021 = VERTEX_POINT('',#1022);
#1022 = CARTESIAN_POINT('',(0.85,0.85,1.55));
#1023 = LINE('',#1024,#1025);
#1024 = CARTESIAN_POINT('',(-0.85,0.85,1.55));
#1025 = VECTOR('',#1026,1.);
#1026 = DIRECTION('',(1.,0.,0.));
#1027 = ORIENTED_EDGE('',*,*,#1028,.F.);
#1028 = EDGE_CURVE('',#1029,#1021,#1031,.T.);
#1029 = VERTEX_POINT('',#1030);
#1030 = CARTESIAN_POINT('',(0.85,0.85,1.51));
#1031 = LINE('',#1032,#1033);
#1032 = CARTESIAN_POINT('',(0.85,0.85,1.51));
#1033 = VECTOR('',#1034,1.);
#1034 = DIRECTION('',(0.,0.,1.));
#1035 = ORIENTED_EDGE('',*,*,#1036,.F.);
#1036 = EDGE_CURVE('',#967,#1029,#1037,.T.);
#1037 = LINE('',#1038,#1039);
#1038 = CARTESIAN_POINT('',(-0.85,0.85,1.51));
#1039 = VECTOR('',#1040,1.);
#1040 = DIRECTION('',(1.,0.,0.));
#1041 = PLANE('',#1042);
#1042 = AXIS2_PLACEMENT_3D('',#1043,#1044,#1045);
#1043 = CARTESIAN_POINT('',(-0.85,0.85,1.51));
#1044 = DIRECTION('',(0.,1.,0.));
#1045 = DIRECTION('',(1.,0.,0.));
#1046 = ADVANCED_FACE('',(#1047,#1058),#1069,.F.);
#1047 = FACE_BOUND('',#1048,.F.);
#1048 = EDGE_LOOP('',(#1049,#1050,#1051,#1057));
#1049 = ORIENTED_EDGE('',*,*,#974,.F.);
#1050 = ORIENTED_EDGE('',*,*,#1005,.F.);
#1051 = ORIENTED_EDGE('',*,*,#1052,.F.);
#1052 = EDGE_CURVE('',#1029,#989,#1053,.T.);
#1053 = LINE('',#1054,#1055);
#1054 = CARTESIAN_POINT('',(0.85,0.85,1.51));
#1055 = VECTOR('',#1056,1.);
#1056 = DIRECTION('',(0.,-1.,0.));
#1057 = ORIENTED_EDGE('',*,*,#1036,.F.);
#1058 = FACE_BOUND('',#1059,.F.);
#1059 = EDGE_LOOP('',(#1060));
#1060 = ORIENTED_EDGE('',*,*,#1061,.T.);
#1061 = EDGE_CURVE('',#1062,#1062,#1064,.T.);
#1062 = VERTEX_POINT('',#1063);
#1063 = CARTESIAN_POINT('',(-6.162975822039E-33,-0.475,1.51));
#1064 = CIRCLE('',#1065,0.475);
#1065 = AXIS2_PLACEMENT_3D('',#1066,#1067,#1068);
#1066 = CARTESIAN_POINT('',(-2.775557561563E-17,5.551115123126E-17,1.51)
  );
#1067 = DIRECTION('',(-0.,0.,-1.));
#1068 = DIRECTION('',(5.843279076975E-17,-1.,-0.));
#1069 = PLANE('',#1070);
#1070 = AXIS2_PLACEMENT_3D('',#1071,#1072,#1073);
#1071 = CARTESIAN_POINT('',(0.,0.,1.51));
#1072 = DIRECTION('',(0.,0.,1.));
#1073 = DIRECTION('',(1.,0.,-0.));
#1074 = ADVANCED_FACE('',(#1075,#1086),#1097,.T.);
#1075 = FACE_BOUND('',#1076,.T.);
#1076 = EDGE_LOOP('',(#1077,#1078,#1079,#1085));
#1077 = ORIENTED_EDGE('',*,*,#958,.F.);
#1078 = ORIENTED_EDGE('',*,*,#998,.F.);
#1079 = ORIENTED_EDGE('',*,*,#1080,.F.);
#1080 = EDGE_CURVE('',#1021,#991,#1081,.T.);
#1081 = LINE('',#1082,#1083);
#1082 = CARTESIAN_POINT('',(0.85,0.85,1.55));
#1083 = VECTOR('',#1084,1.);
#1084 = DIRECTION('',(0.,-1.,0.));
#1085 = ORIENTED_EDGE('',*,*,#1020,.F.);
#1086 = FACE_BOUND('',#1087,.T.);
#1087 = EDGE_LOOP('',(#1088));
#1088 = ORIENTED_EDGE('',*,*,#1089,.T.);
#1089 = EDGE_CURVE('',#1090,#1090,#1092,.T.);
#1090 = VERTEX_POINT('',#1091);
#1091 = CARTESIAN_POINT('',(-6.162975822039E-33,-0.475,1.55));
#1092 = CIRCLE('',#1093,0.475);
#1093 = AXIS2_PLACEMENT_3D('',#1094,#1095,#1096);
#1094 = CARTESIAN_POINT('',(-2.775557561563E-17,5.551115123126E-17,1.55)
  );
#1095 = DIRECTION('',(-0.,0.,-1.));
#1096 = DIRECTION('',(5.843279076975E-17,-1.,-0.));
#1097 = PLANE('',#1098);
#1098 = AXIS2_PLACEMENT_3D('',#1099,#1100,#1101);
#1099 = CARTESIAN_POINT('',(0.,0.,1.55));
#1100 = DIRECTION('',(0.,0.,1.));
#1101 = DIRECTION('',(1.,0.,-0.));
#1102 = ADVANCED_FACE('',(#1103),#1109,.T.);
#1103 = FACE_BOUND('',#1104,.T.);
#1104 = EDGE_LOOP('',(#1105,#1106,#1107,#1108));
#1105 = ORIENTED_EDGE('',*,*,#1028,.T.);
#1106 = ORIENTED_EDGE('',*,*,#1080,.T.);
#1107 = ORIENTED_EDGE('',*,*,#988,.F.);
#1108 = ORIENTED_EDGE('',*,*,#1052,.F.);
#1109 = PLANE('',#1110);
#1110 = AXIS2_PLACEMENT_3D('',#1111,#1112,#1113);
#1111 = CARTESIAN_POINT('',(0.85,0.85,1.51));
#1112 = DIRECTION('',(1.,0.,-0.));
#1113 = DIRECTION('',(0.,-1.,0.));
#1114 = ADVANCED_FACE('',(#1115),#1126,.F.);
#1115 = FACE_BOUND('',#1116,.T.);
#1116 = EDGE_LOOP('',(#1117,#1118,#1124,#1125));
#1117 = ORIENTED_EDGE('',*,*,#1061,.T.);
#1118 = ORIENTED_EDGE('',*,*,#1119,.T.);
#1119 = EDGE_CURVE('',#1062,#1090,#1120,.T.);
#1120 = LINE('',#1121,#1122);
#1121 = CARTESIAN_POINT('',(-6.162975822039E-33,-0.475,-4.6E-02));
#1122 = VECTOR('',#1123,1.);
#1123 = DIRECTION('',(0.,0.,1.));
#1124 = ORIENTED_EDGE('',*,*,#1089,.F.);
#1125 = ORIENTED_EDGE('',*,*,#1119,.F.);
#1126 = CYLINDRICAL_SURFACE('',#1127,0.475);
#1127 = AXIS2_PLACEMENT_3D('',#1128,#1129,#1130);
#1128 = CARTESIAN_POINT('',(-2.775557561563E-17,5.551115123126E-17,
    -4.6E-02));
#1129 = DIRECTION('',(-0.,0.,-1.));
#1130 = DIRECTION('',(5.843279076975E-17,-1.,-0.));
#1131 = MANIFOLD_SOLID_BREP('',#1132);
#1132 = CLOSED_SHELL('',(#1133,#1173,#1204,#1235,#1263,#1291,#1303));
#1133 = ADVANCED_FACE('',(#1134),#1168,.F.);
#1134 = FACE_BOUND('',#1135,.F.);
#1135 = EDGE_LOOP('',(#1136,#1146,#1154,#1162));
#1136 = ORIENTED_EDGE('',*,*,#1137,.T.);
#1137 = EDGE_CURVE('',#1138,#1140,#1142,.T.);
#1138 = VERTEX_POINT('',#1139);
#1139 = CARTESIAN_POINT('',(-0.85,-0.85,0.));
#1140 = VERTEX_POINT('',#1141);
#1141 = CARTESIAN_POINT('',(-0.85,-0.85,-4.E-02));
#1142 = LINE('',#1143,#1144);
#1143 = CARTESIAN_POINT('',(-0.85,-0.85,0.));
#1144 = VECTOR('',#1145,1.);
#1145 = DIRECTION('',(0.,0.,-1.));
#1146 = ORIENTED_EDGE('',*,*,#1147,.T.);
#1147 = EDGE_CURVE('',#1140,#1148,#1150,.T.);
#1148 = VERTEX_POINT('',#1149);
#1149 = CARTESIAN_POINT('',(-0.85,0.85,-4.E-02));
#1150 = LINE('',#1151,#1152);
#1151 = CARTESIAN_POINT('',(-0.85,-0.85,-4.E-02));
#1152 = VECTOR('',#1153,1.);
#1153 = DIRECTION('',(0.,1.,0.));
#1154 = ORIENTED_EDGE('',*,*,#1155,.F.);
#1155 = EDGE_CURVE('',#1156,#1148,#1158,.T.);
#1156 = VERTEX_POINT('',#1157);
#1157 = CARTESIAN_POINT('',(-0.85,0.85,0.));
#1158 = LINE('',#1159,#1160);
#1159 = CARTESIAN_POINT('',(-0.85,0.85,0.));
#1160 = VECTOR('',#1161,1.);
#1161 = DIRECTION('',(0.,0.,-1.));
#1162 = ORIENTED_EDGE('',*,*,#1163,.F.);
#1163 = EDGE_CURVE('',#1138,#1156,#1164,.T.);
#1164 = LINE('',#1165,#1166);
#1165 = CARTESIAN_POINT('',(-0.85,-0.85,0.));
#1166 = VECTOR('',#1167,1.);
#1167 = DIRECTION('',(0.,1.,0.));
#1168 = PLANE('',#1169);
#1169 = AXIS2_PLACEMENT_3D('',#1170,#1171,#1172);
#1170 = CARTESIAN_POINT('',(-0.85,-0.85,0.));
#1171 = DIRECTION('',(1.,-0.,0.));
#1172 = DIRECTION('',(0.,1.,0.));
#1173 = ADVANCED_FACE('',(#1174),#1199,.F.);
#1174 = FACE_BOUND('',#1175,.F.);
#1175 = EDGE_LOOP('',(#1176,#1186,#1192,#1193));
#1176 = ORIENTED_EDGE('',*,*,#1177,.T.);
#1177 = EDGE_CURVE('',#1178,#1180,#1182,.T.);
#1178 = VERTEX_POINT('',#1179);
#1179 = CARTESIAN_POINT('',(0.85,-0.85,0.));
#1180 = VERTEX_POINT('',#1181);
#1181 = CARTESIAN_POINT('',(0.85,-0.85,-4.E-02));
#1182 = LINE('',#1183,#1184);
#1183 = CARTESIAN_POINT('',(0.85,-0.85,0.));
#1184 = VECTOR('',#1185,1.);
#1185 = DIRECTION('',(0.,0.,-1.));
#1186 = ORIENTED_EDGE('',*,*,#1187,.T.);
#1187 = EDGE_CURVE('',#1180,#1140,#1188,.T.);
#1188 = LINE('',#1189,#1190);
#1189 = CARTESIAN_POINT('',(0.85,-0.85,-4.E-02));
#1190 = VECTOR('',#1191,1.);
#1191 = DIRECTION('',(-1.,0.,0.));
#1192 = ORIENTED_EDGE('',*,*,#1137,.F.);
#1193 = ORIENTED_EDGE('',*,*,#1194,.F.);
#1194 = EDGE_CURVE('',#1178,#1138,#1195,.T.);
#1195 = LINE('',#1196,#1197);
#1196 = CARTESIAN_POINT('',(0.85,-0.85,0.));
#1197 = VECTOR('',#1198,1.);
#1198 = DIRECTION('',(-1.,0.,0.));
#1199 = PLANE('',#1200);
#1200 = AXIS2_PLACEMENT_3D('',#1201,#1202,#1203);
#1201 = CARTESIAN_POINT('',(0.85,-0.85,0.));
#1202 = DIRECTION('',(0.,1.,0.));
#1203 = DIRECTION('',(-1.,0.,0.));
#1204 = ADVANCED_FACE('',(#1205),#1230,.F.);
#1205 = FACE_BOUND('',#1206,.F.);
#1206 = EDGE_LOOP('',(#1207,#1208,#1216,#1224));
#1207 = ORIENTED_EDGE('',*,*,#1155,.T.);
#1208 = ORIENTED_EDGE('',*,*,#1209,.T.);
#1209 = EDGE_CURVE('',#1148,#1210,#1212,.T.);
#1210 = VERTEX_POINT('',#1211);
#1211 = CARTESIAN_POINT('',(0.85,0.85,-4.E-02));
#1212 = LINE('',#1213,#1214);
#1213 = CARTESIAN_POINT('',(-0.85,0.85,-4.E-02));
#1214 = VECTOR('',#1215,1.);
#1215 = DIRECTION('',(1.,0.,0.));
#1216 = ORIENTED_EDGE('',*,*,#1217,.F.);
#1217 = EDGE_CURVE('',#1218,#1210,#1220,.T.);
#1218 = VERTEX_POINT('',#1219);
#1219 = CARTESIAN_POINT('',(0.85,0.85,0.));
#1220 = LINE('',#1221,#1222);
#1221 = CARTESIAN_POINT('',(0.85,0.85,0.));
#1222 = VECTOR('',#1223,1.);
#1223 = DIRECTION('',(0.,0.,-1.));
#1224 = ORIENTED_EDGE('',*,*,#1225,.F.);
#1225 = EDGE_CURVE('',#1156,#1218,#1226,.T.);
#1226 = LINE('',#1227,#1228);
#1227 = CARTESIAN_POINT('',(-0.85,0.85,0.));
#1228 = VECTOR('',#1229,1.);
#1229 = DIRECTION('',(1.,0.,0.));
#1230 = PLANE('',#1231);
#1231 = AXIS2_PLACEMENT_3D('',#1232,#1233,#1234);
#1232 = CARTESIAN_POINT('',(-0.85,0.85,0.));
#1233 = DIRECTION('',(0.,-1.,0.));
#1234 = DIRECTION('',(1.,0.,0.));
#1235 = ADVANCED_FACE('',(#1236,#1247),#1258,.F.);
#1236 = FACE_BOUND('',#1237,.F.);
#1237 = EDGE_LOOP('',(#1238,#1239,#1240,#1246));
#1238 = ORIENTED_EDGE('',*,*,#1163,.T.);
#1239 = ORIENTED_EDGE('',*,*,#1225,.T.);
#1240 = ORIENTED_EDGE('',*,*,#1241,.T.);
#1241 = EDGE_CURVE('',#1218,#1178,#1242,.T.);
#1242 = LINE('',#1243,#1244);
#1243 = CARTESIAN_POINT('',(0.85,0.85,0.));
#1244 = VECTOR('',#1245,1.);
#1245 = DIRECTION('',(0.,-1.,0.));
#1246 = ORIENTED_EDGE('',*,*,#1194,.T.);
#1247 = FACE_BOUND('',#1248,.F.);
#1248 = EDGE_LOOP('',(#1249));
#1249 = ORIENTED_EDGE('',*,*,#1250,.F.);
#1250 = EDGE_CURVE('',#1251,#1251,#1253,.T.);
#1251 = VERTEX_POINT('',#1252);
#1252 = CARTESIAN_POINT('',(-6.162975822039E-33,-0.475,0.));
#1253 = CIRCLE('',#1254,0.475);
#1254 = AXIS2_PLACEMENT_3D('',#1255,#1256,#1257);
#1255 = CARTESIAN_POINT('',(-2.775557561563E-17,5.551115123126E-17,0.));
#1256 = DIRECTION('',(-0.,0.,-1.));
#1257 = DIRECTION('',(5.843279076975E-17,-1.,-0.));
#1258 = PLANE('',#1259);
#1259 = AXIS2_PLACEMENT_3D('',#1260,#1261,#1262);
#1260 = CARTESIAN_POINT('',(0.,0.,0.));
#1261 = DIRECTION('',(-0.,-0.,-1.));
#1262 = DIRECTION('',(-1.,0.,0.));
#1263 = ADVANCED_FACE('',(#1264,#1275),#1286,.T.);
#1264 = FACE_BOUND('',#1265,.T.);
#1265 = EDGE_LOOP('',(#1266,#1267,#1268,#1274));
#1266 = ORIENTED_EDGE('',*,*,#1147,.T.);
#1267 = ORIENTED_EDGE('',*,*,#1209,.T.);
#1268 = ORIENTED_EDGE('',*,*,#1269,.T.);
#1269 = EDGE_CURVE('',#1210,#1180,#1270,.T.);
#1270 = LINE('',#1271,#1272);
#1271 = CARTESIAN_POINT('',(0.85,0.85,-4.E-02));
#1272 = VECTOR('',#1273,1.);
#1273 = DIRECTION('',(0.,-1.,0.));
#1274 = ORIENTED_EDGE('',*,*,#1187,.T.);
#1275 = FACE_BOUND('',#1276,.T.);
#1276 = EDGE_LOOP('',(#1277));
#1277 = ORIENTED_EDGE('',*,*,#1278,.F.);
#1278 = EDGE_CURVE('',#1279,#1279,#1281,.T.);
#1279 = VERTEX_POINT('',#1280);
#1280 = CARTESIAN_POINT('',(-6.162975822039E-33,-0.475,-4.E-02));
#1281 = CIRCLE('',#1282,0.475);
#1282 = AXIS2_PLACEMENT_3D('',#1283,#1284,#1285);
#1283 = CARTESIAN_POINT('',(-2.775557561563E-17,5.551115123126E-17,
    -4.E-02));
#1284 = DIRECTION('',(-0.,0.,-1.));
#1285 = DIRECTION('',(5.843279076975E-17,-1.,-0.));
#1286 = PLANE('',#1287);
#1287 = AXIS2_PLACEMENT_3D('',#1288,#1289,#1290);
#1288 = CARTESIAN_POINT('',(0.,0.,-4.E-02));
#1289 = DIRECTION('',(-0.,-0.,-1.));
#1290 = DIRECTION('',(-1.,0.,0.));
#1291 = ADVANCED_FACE('',(#1292),#1298,.F.);
#1292 = FACE_BOUND('',#1293,.F.);
#1293 = EDGE_LOOP('',(#1294,#1295,#1296,#1297));
#1294 = ORIENTED_EDGE('',*,*,#1217,.T.);
#1295 = ORIENTED_EDGE('',*,*,#1269,.T.);
#1296 = ORIENTED_EDGE('',*,*,#1177,.F.);
#1297 = ORIENTED_EDGE('',*,*,#1241,.F.);
#1298 = PLANE('',#1299);
#1299 = AXIS2_PLACEMENT_3D('',#1300,#1301,#1302);
#1300 = CARTESIAN_POINT('',(0.85,0.85,0.));
#1301 = DIRECTION('',(-1.,-0.,-0.));
#1302 = DIRECTION('',(0.,-1.,0.));
#1303 = ADVANCED_FACE('',(#1304),#1315,.F.);
#1304 = FACE_BOUND('',#1305,.T.);
#1305 = EDGE_LOOP('',(#1306,#1307,#1313,#1314));
#1306 = ORIENTED_EDGE('',*,*,#1278,.T.);
#1307 = ORIENTED_EDGE('',*,*,#1308,.T.);
#1308 = EDGE_CURVE('',#1279,#1251,#1309,.T.);
#1309 = LINE('',#1310,#1311);
#1310 = CARTESIAN_POINT('',(-6.162975822039E-33,-0.475,-4.6E-02));
#1311 = VECTOR('',#1312,1.);
#1312 = DIRECTION('',(0.,0.,1.));
#1313 = ORIENTED_EDGE('',*,*,#1250,.F.);
#1314 = ORIENTED_EDGE('',*,*,#1308,.F.);
#1315 = CYLINDRICAL_SURFACE('',#1316,0.475);
#1316 = AXIS2_PLACEMENT_3D('',#1317,#1318,#1319);
#1317 = CARTESIAN_POINT('',(-2.775557561563E-17,5.551115123126E-17,
    -4.6E-02));
#1318 = DIRECTION('',(-0.,0.,-1.));
#1319 = DIRECTION('',(5.843279076975E-17,-1.,-0.));
#1320 = MANIFOLD_SOLID_BREP('',#1321);
#1321 = CLOSED_SHELL('',(#1322,#1355,#1375,#1395));
#1322 = ADVANCED_FACE('',(#1323),#1350,.T.);
#1323 = FACE_BOUND('',#1324,.F.);
#1324 = EDGE_LOOP('',(#1325,#1335,#1342,#1343));
#1325 = ORIENTED_EDGE('',*,*,#1326,.T.);
#1326 = EDGE_CURVE('',#1327,#1329,#1331,.T.);
#1327 = VERTEX_POINT('',#1328);
#1328 = CARTESIAN_POINT('',(-6.162975822039E-33,-0.5,-4.E-02));
#1329 = VERTEX_POINT('',#1330);
#1330 = CARTESIAN_POINT('',(-6.162975822039E-33,-0.5,1.55));
#1331 = LINE('',#1332,#1333);
#1332 = CARTESIAN_POINT('',(-6.162975822039E-33,-0.5,-4.E-02));
#1333 = VECTOR('',#1334,1.);
#1334 = DIRECTION('',(0.,0.,1.));
#1335 = ORIENTED_EDGE('',*,*,#1336,.T.);
#1336 = EDGE_CURVE('',#1329,#1329,#1337,.T.);
#1337 = CIRCLE('',#1338,0.5);
#1338 = AXIS2_PLACEMENT_3D('',#1339,#1340,#1341);
#1339 = CARTESIAN_POINT('',(-2.775557561563E-17,8.326672684689E-17,1.55)
  );
#1340 = DIRECTION('',(0.,-0.,1.));
#1341 = DIRECTION('',(5.551115123126E-17,-1.,-0.));
#1342 = ORIENTED_EDGE('',*,*,#1326,.F.);
#1343 = ORIENTED_EDGE('',*,*,#1344,.F.);
#1344 = EDGE_CURVE('',#1327,#1327,#1345,.T.);
#1345 = CIRCLE('',#1346,0.5);
#1346 = AXIS2_PLACEMENT_3D('',#1347,#1348,#1349);
#1347 = CARTESIAN_POINT('',(-2.775557561563E-17,8.326672684689E-17,
    -4.E-02));
#1348 = DIRECTION('',(0.,-0.,1.));
#1349 = DIRECTION('',(5.551115123126E-17,-1.,-0.));
#1350 = CYLINDRICAL_SURFACE('',#1351,0.5);
#1351 = AXIS2_PLACEMENT_3D('',#1352,#1353,#1354);
#1352 = CARTESIAN_POINT('',(-2.775557561563E-17,8.326672684689E-17,
    -4.E-02));
#1353 = DIRECTION('',(-0.,0.,-1.));
#1354 = DIRECTION('',(5.551115123126E-17,-1.,-0.));
#1355 = ADVANCED_FACE('',(#1356,#1359),#1370,.F.);
#1356 = FACE_BOUND('',#1357,.F.);
#1357 = EDGE_LOOP('',(#1358));
#1358 = ORIENTED_EDGE('',*,*,#1344,.T.);
#1359 = FACE_BOUND('',#1360,.F.);
#1360 = EDGE_LOOP('',(#1361));
#1361 = ORIENTED_EDGE('',*,*,#1362,.T.);
#1362 = EDGE_CURVE('',#1363,#1363,#1365,.T.);
#1363 = VERTEX_POINT('',#1364);
#1364 = CARTESIAN_POINT('',(-6.162975822039E-33,-0.475,-4.E-02));
#1365 = CIRCLE('',#1366,0.475);
#1366 = AXIS2_PLACEMENT_3D('',#1367,#1368,#1369);
#1367 = CARTESIAN_POINT('',(-2.775557561563E-17,5.551115123126E-17,
    -4.E-02));
#1368 = DIRECTION('',(-0.,0.,-1.));
#1369 = DIRECTION('',(5.843279076975E-17,-1.,-0.));
#1370 = PLANE('',#1371);
#1371 = AXIS2_PLACEMENT_3D('',#1372,#1373,#1374);
#1372 = CARTESIAN_POINT('',(0.,-0.5,-4.E-02));
#1373 = DIRECTION('',(0.,0.,1.));
#1374 = DIRECTION('',(1.,0.,-0.));
#1375 = ADVANCED_FACE('',(#1376,#1379),#1390,.T.);
#1376 = FACE_BOUND('',#1377,.T.);
#1377 = EDGE_LOOP('',(#1378));
#1378 = ORIENTED_EDGE('',*,*,#1336,.T.);
#1379 = FACE_BOUND('',#1380,.T.);
#1380 = EDGE_LOOP('',(#1381));
#1381 = ORIENTED_EDGE('',*,*,#1382,.T.);
#1382 = EDGE_CURVE('',#1383,#1383,#1385,.T.);
#1383 = VERTEX_POINT('',#1384);
#1384 = CARTESIAN_POINT('',(-6.162975822039E-33,-0.475,1.55));
#1385 = CIRCLE('',#1386,0.475);
#1386 = AXIS2_PLACEMENT_3D('',#1387,#1388,#1389);
#1387 = CARTESIAN_POINT('',(-2.775557561563E-17,5.551115123126E-17,1.55)
  );
#1388 = DIRECTION('',(-0.,0.,-1.));
#1389 = DIRECTION('',(5.843279076975E-17,-1.,-0.));
#1390 = PLANE('',#1391);
#1391 = AXIS2_PLACEMENT_3D('',#1392,#1393,#1394);
#1392 = CARTESIAN_POINT('',(0.,-0.5,1.55));
#1393 = DIRECTION('',(0.,0.,1.));
#1394 = DIRECTION('',(1.,0.,-0.));
#1395 = ADVANCED_FACE('',(#1396),#1407,.F.);
#1396 = FACE_BOUND('',#1397,.T.);
#1397 = EDGE_LOOP('',(#1398,#1399,#1405,#1406));
#1398 = ORIENTED_EDGE('',*,*,#1362,.T.);
#1399 = ORIENTED_EDGE('',*,*,#1400,.T.);
#1400 = EDGE_CURVE('',#1363,#1383,#1401,.T.);
#1401 = LINE('',#1402,#1403);
#1402 = CARTESIAN_POINT('',(-6.162975822039E-33,-0.475,-4.6E-02));
#1403 = VECTOR('',#1404,1.);
#1404 = DIRECTION('',(0.,0.,1.));
#1405 = ORIENTED_EDGE('',*,*,#1382,.F.);
#1406 = ORIENTED_EDGE('',*,*,#1400,.F.);
#1407 = CYLINDRICAL_SURFACE('',#1408,0.475);
#1408 = AXIS2_PLACEMENT_3D('',#1409,#1410,#1411);
#1409 = CARTESIAN_POINT('',(-2.775557561563E-17,5.551115123126E-17,
    -4.6E-02));
#1410 = DIRECTION('',(-0.,0.,-1.));
#1411 = DIRECTION('',(5.843279076975E-17,-1.,-0.));
#1412 = ( GEOMETRIC_REPRESENTATION_CONTEXT(3) 
GLOBAL_UNCERTAINTY_ASSIGNED_CONTEXT((#1416)) 
GLOBAL_UNIT_ASSIGNED_CONTEXT((#1413,#1414,#1415)) REPRESENTATION_CONTEXT
('Context #1','3D Context with UNIT and UNCERTAINTY') );
#1413 = ( LENGTH_UNIT() NAMED_UNIT(*) SI_UNIT(.MILLI.,.METRE.) );
#1414 = ( NAMED_UNIT(*) PLANE_ANGLE_UNIT() SI_UNIT($,.RADIAN.) );
#1415 = ( NAMED_UNIT(*) SI_UNIT($,.STERADIAN.) SOLID_ANGLE_UNIT() );
#1416 = UNCERTAINTY_MEASURE_WITH_UNIT(LENGTH_MEASURE(1.E-07),#1413,
  'distance_accuracy_value','confusion accuracy');
#1417 = CONTEXT_DEPENDENT_SHAPE_REPRESENTATION(#1418,#1420);
#1418 = ( REPRESENTATION_RELATIONSHIP('','',#941,#10) 
REPRESENTATION_RELATIONSHIP_WITH_TRANSFORMATION(#1419) 
SHAPE_REPRESENTATION_RELATIONSHIP() );
#1419 = ITEM_DEFINED_TRANSFORMATION('','',#11,#19);
#1420 = PRODUCT_DEFINITION_SHAPE('Placement','Placement of an item',
  #1421);
#1421 = NEXT_ASSEMBLY_USAGE_OCCURRENCE('3','=>[0:1:1:4]','',#5,#936,$);
#1422 = PRODUCT_RELATED_PRODUCT_CATEGORY('part',$,(#938));
#1423 = SHAPE_DEFINITION_REPRESENTATION(#1424,#1430);
#1424 = PRODUCT_DEFINITION_SHAPE('','',#1425);
#1425 = PRODUCT_DEFINITION('design','',#1426,#1429);
#1426 = PRODUCT_DEFINITION_FORMATION('','',#1427);
#1427 = PRODUCT(
'electronic_connector_header_2_54_mm_pitch_through_hole_right_angle_
long_pin_1_pin_render_PCB',
'electronic_connector_header_2_54_mm_pitch_through_hole_right_angle_
long_pin_1_pin_render_PCB','',(#1428));
#1428 = PRODUCT_CONTEXT('',#2,'mechanical');
#1429 = PRODUCT_DEFINITION_CONTEXT('part definition',#2,'design');
#1430 = ADVANCED_BREP_SHAPE_REPRESENTATION('',(#11,#1431),#1620);
#1431 = MANIFOLD_SOLID_BREP('',#1432);
#1432 = CLOSED_SHELL('',(#1433,#1473,#1504,#1535,#1563,#1591,#1603));
#1433 = ADVANCED_FACE('',(#1434),#1468,.T.);
#1434 = FACE_BOUND('',#1435,.T.);
#1435 = EDGE_LOOP('',(#1436,#1446,#1454,#1462));
#1436 = ORIENTED_EDGE('',*,*,#1437,.T.);
#1437 = EDGE_CURVE('',#1438,#1440,#1442,.T.);
#1438 = VERTEX_POINT('',#1439);
#1439 = CARTESIAN_POINT('',(12.54,-3.77,0.));
#1440 = VERTEX_POINT('',#1441);
#1441 = CARTESIAN_POINT('',(12.54,-3.77,1.51));
#1442 = LINE('',#1443,#1444);
#1443 = CARTESIAN_POINT('',(12.54,-3.77,0.));
#1444 = VECTOR('',#1445,1.);
#1445 = DIRECTION('',(0.,0.,1.));
#1446 = ORIENTED_EDGE('',*,*,#1447,.T.);
#1447 = EDGE_CURVE('',#1440,#1448,#1450,.T.);
#1448 = VERTEX_POINT('',#1449);
#1449 = CARTESIAN_POINT('',(-3.77,-3.77,1.51));
#1450 = LINE('',#1451,#1452);
#1451 = CARTESIAN_POINT('',(12.54,-3.77,1.51));
#1452 = VECTOR('',#1453,1.);
#1453 = DIRECTION('',(-1.,0.,0.));
#1454 = ORIENTED_EDGE('',*,*,#1455,.F.);
#1455 = EDGE_CURVE('',#1456,#1448,#1458,.T.);
#1456 = VERTEX_POINT('',#1457);
#1457 = CARTESIAN_POINT('',(-3.77,-3.77,0.));
#1458 = LINE('',#1459,#1460);
#1459 = CARTESIAN_POINT('',(-3.77,-3.77,0.));
#1460 = VECTOR('',#1461,1.);
#1461 = DIRECTION('',(0.,0.,1.));
#1462 = ORIENTED_EDGE('',*,*,#1463,.F.);
#1463 = EDGE_CURVE('',#1438,#1456,#1464,.T.);
#1464 = LINE('',#1465,#1466);
#1465 = CARTESIAN_POINT('',(12.54,-3.77,0.));
#1466 = VECTOR('',#1467,1.);
#1467 = DIRECTION('',(-1.,0.,0.));
#1468 = PLANE('',#1469);
#1469 = AXIS2_PLACEMENT_3D('',#1470,#1471,#1472);
#1470 = CARTESIAN_POINT('',(12.54,-3.77,0.));
#1471 = DIRECTION('',(0.,-1.,0.));
#1472 = DIRECTION('',(-1.,0.,0.));
#1473 = ADVANCED_FACE('',(#1474),#1499,.T.);
#1474 = FACE_BOUND('',#1475,.T.);
#1475 = EDGE_LOOP('',(#1476,#1486,#1492,#1493));
#1476 = ORIENTED_EDGE('',*,*,#1477,.T.);
#1477 = EDGE_CURVE('',#1478,#1480,#1482,.T.);
#1478 = VERTEX_POINT('',#1479);
#1479 = CARTESIAN_POINT('',(12.54,3.77,0.));
#1480 = VERTEX_POINT('',#1481);
#1481 = CARTESIAN_POINT('',(12.54,3.77,1.51));
#1482 = LINE('',#1483,#1484);
#1483 = CARTESIAN_POINT('',(12.54,3.77,0.));
#1484 = VECTOR('',#1485,1.);
#1485 = DIRECTION('',(0.,0.,1.));
#1486 = ORIENTED_EDGE('',*,*,#1487,.T.);
#1487 = EDGE_CURVE('',#1480,#1440,#1488,.T.);
#1488 = LINE('',#1489,#1490);
#1489 = CARTESIAN_POINT('',(12.54,3.77,1.51));
#1490 = VECTOR('',#1491,1.);
#1491 = DIRECTION('',(0.,-1.,0.));
#1492 = ORIENTED_EDGE('',*,*,#1437,.F.);
#1493 = ORIENTED_EDGE('',*,*,#1494,.F.);
#1494 = EDGE_CURVE('',#1478,#1438,#1495,.T.);
#1495 = LINE('',#1496,#1497);
#1496 = CARTESIAN_POINT('',(12.54,3.77,0.));
#1497 = VECTOR('',#1498,1.);
#1498 = DIRECTION('',(0.,-1.,0.));
#1499 = PLANE('',#1500);
#1500 = AXIS2_PLACEMENT_3D('',#1501,#1502,#1503);
#1501 = CARTESIAN_POINT('',(12.54,3.77,0.));
#1502 = DIRECTION('',(1.,0.,-0.));
#1503 = DIRECTION('',(0.,-1.,0.));
#1504 = ADVANCED_FACE('',(#1505),#1530,.T.);
#1505 = FACE_BOUND('',#1506,.T.);
#1506 = EDGE_LOOP('',(#1507,#1508,#1516,#1524));
#1507 = ORIENTED_EDGE('',*,*,#1455,.T.);
#1508 = ORIENTED_EDGE('',*,*,#1509,.T.);
#1509 = EDGE_CURVE('',#1448,#1510,#1512,.T.);
#1510 = VERTEX_POINT('',#1511);
#1511 = CARTESIAN_POINT('',(-3.77,3.77,1.51));
#1512 = LINE('',#1513,#1514);
#1513 = CARTESIAN_POINT('',(-3.77,-3.77,1.51));
#1514 = VECTOR('',#1515,1.);
#1515 = DIRECTION('',(0.,1.,0.));
#1516 = ORIENTED_EDGE('',*,*,#1517,.F.);
#1517 = EDGE_CURVE('',#1518,#1510,#1520,.T.);
#1518 = VERTEX_POINT('',#1519);
#1519 = CARTESIAN_POINT('',(-3.77,3.77,0.));
#1520 = LINE('',#1521,#1522);
#1521 = CARTESIAN_POINT('',(-3.77,3.77,0.));
#1522 = VECTOR('',#1523,1.);
#1523 = DIRECTION('',(0.,0.,1.));
#1524 = ORIENTED_EDGE('',*,*,#1525,.F.);
#1525 = EDGE_CURVE('',#1456,#1518,#1526,.T.);
#1526 = LINE('',#1527,#1528);
#1527 = CARTESIAN_POINT('',(-3.77,-3.77,0.));
#1528 = VECTOR('',#1529,1.);
#1529 = DIRECTION('',(0.,1.,0.));
#1530 = PLANE('',#1531);
#1531 = AXIS2_PLACEMENT_3D('',#1532,#1533,#1534);
#1532 = CARTESIAN_POINT('',(-3.77,-3.77,0.));
#1533 = DIRECTION('',(-1.,0.,0.));
#1534 = DIRECTION('',(0.,1.,0.));
#1535 = ADVANCED_FACE('',(#1536,#1547),#1558,.F.);
#1536 = FACE_BOUND('',#1537,.F.);
#1537 = EDGE_LOOP('',(#1538,#1539,#1540,#1546));
#1538 = ORIENTED_EDGE('',*,*,#1463,.F.);
#1539 = ORIENTED_EDGE('',*,*,#1494,.F.);
#1540 = ORIENTED_EDGE('',*,*,#1541,.F.);
#1541 = EDGE_CURVE('',#1518,#1478,#1542,.T.);
#1542 = LINE('',#1543,#1544);
#1543 = CARTESIAN_POINT('',(-3.77,3.77,0.));
#1544 = VECTOR('',#1545,1.);
#1545 = DIRECTION('',(1.,0.,0.));
#1546 = ORIENTED_EDGE('',*,*,#1525,.F.);
#1547 = FACE_BOUND('',#1548,.F.);
#1548 = EDGE_LOOP('',(#1549));
#1549 = ORIENTED_EDGE('',*,*,#1550,.T.);
#1550 = EDGE_CURVE('',#1551,#1551,#1553,.T.);
#1551 = VERTEX_POINT('',#1552);
#1552 = CARTESIAN_POINT('',(-6.162975822039E-33,-0.5,0.));
#1553 = CIRCLE('',#1554,0.5);
#1554 = AXIS2_PLACEMENT_3D('',#1555,#1556,#1557);
#1555 = CARTESIAN_POINT('',(-2.775557561563E-17,8.326672684689E-17,0.));
#1556 = DIRECTION('',(-0.,0.,-1.));
#1557 = DIRECTION('',(5.551115123126E-17,-1.,-0.));
#1558 = PLANE('',#1559);
#1559 = AXIS2_PLACEMENT_3D('',#1560,#1561,#1562);
#1560 = CARTESIAN_POINT('',(0.,0.,0.));
#1561 = DIRECTION('',(0.,0.,1.));
#1562 = DIRECTION('',(1.,0.,-0.));
#1563 = ADVANCED_FACE('',(#1564,#1575),#1586,.T.);
#1564 = FACE_BOUND('',#1565,.T.);
#1565 = EDGE_LOOP('',(#1566,#1567,#1568,#1574));
#1566 = ORIENTED_EDGE('',*,*,#1447,.F.);
#1567 = ORIENTED_EDGE('',*,*,#1487,.F.);
#1568 = ORIENTED_EDGE('',*,*,#1569,.F.);
#1569 = EDGE_CURVE('',#1510,#1480,#1570,.T.);
#1570 = LINE('',#1571,#1572);
#1571 = CARTESIAN_POINT('',(-3.77,3.77,1.51));
#1572 = VECTOR('',#1573,1.);
#1573 = DIRECTION('',(1.,0.,0.));
#1574 = ORIENTED_EDGE('',*,*,#1509,.F.);
#1575 = FACE_BOUND('',#1576,.T.);
#1576 = EDGE_LOOP('',(#1577));
#1577 = ORIENTED_EDGE('',*,*,#1578,.T.);
#1578 = EDGE_CURVE('',#1579,#1579,#1581,.T.);
#1579 = VERTEX_POINT('',#1580);
#1580 = CARTESIAN_POINT('',(-6.162975822039E-33,-0.5,1.51));
#1581 = CIRCLE('',#1582,0.5);
#1582 = AXIS2_PLACEMENT_3D('',#1583,#1584,#1585);
#1583 = CARTESIAN_POINT('',(-2.775557561563E-17,8.326672684689E-17,1.51)
  );
#1584 = DIRECTION('',(-0.,0.,-1.));
#1585 = DIRECTION('',(5.551115123126E-17,-1.,-0.));
#1586 = PLANE('',#1587);
#1587 = AXIS2_PLACEMENT_3D('',#1588,#1589,#1590);
#1588 = CARTESIAN_POINT('',(0.,0.,1.51));
#1589 = DIRECTION('',(0.,0.,1.));
#1590 = DIRECTION('',(1.,0.,-0.));
#1591 = ADVANCED_FACE('',(#1592),#1598,.T.);
#1592 = FACE_BOUND('',#1593,.T.);
#1593 = EDGE_LOOP('',(#1594,#1595,#1596,#1597));
#1594 = ORIENTED_EDGE('',*,*,#1517,.T.);
#1595 = ORIENTED_EDGE('',*,*,#1569,.T.);
#1596 = ORIENTED_EDGE('',*,*,#1477,.F.);
#1597 = ORIENTED_EDGE('',*,*,#1541,.F.);
#1598 = PLANE('',#1599);
#1599 = AXIS2_PLACEMENT_3D('',#1600,#1601,#1602);
#1600 = CARTESIAN_POINT('',(-3.77,3.77,0.));
#1601 = DIRECTION('',(0.,1.,0.));
#1602 = DIRECTION('',(1.,0.,0.));
#1603 = ADVANCED_FACE('',(#1604),#1615,.F.);
#1604 = FACE_BOUND('',#1605,.T.);
#1605 = EDGE_LOOP('',(#1606,#1607,#1613,#1614));
#1606 = ORIENTED_EDGE('',*,*,#1550,.T.);
#1607 = ORIENTED_EDGE('',*,*,#1608,.T.);
#1608 = EDGE_CURVE('',#1551,#1579,#1609,.T.);
#1609 = LINE('',#1610,#1611);
#1610 = CARTESIAN_POINT('',(-6.162975822039E-33,-0.5,-4.6E-02));
#1611 = VECTOR('',#1612,1.);
#1612 = DIRECTION('',(0.,0.,1.));
#1613 = ORIENTED_EDGE('',*,*,#1578,.F.);
#1614 = ORIENTED_EDGE('',*,*,#1608,.F.);
#1615 = CYLINDRICAL_SURFACE('',#1616,0.5);
#1616 = AXIS2_PLACEMENT_3D('',#1617,#1618,#1619);
#1617 = CARTESIAN_POINT('',(-2.775557561563E-17,8.326672684689E-17,
    -4.6E-02));
#1618 = DIRECTION('',(-0.,0.,-1.));
#1619 = DIRECTION('',(5.551115123126E-17,-1.,-0.));
#1620 = ( GEOMETRIC_REPRESENTATION_CONTEXT(3) 
GLOBAL_UNCERTAINTY_ASSIGNED_CONTEXT((#1624)) 
GLOBAL_UNIT_ASSIGNED_CONTEXT((#1621,#1622,#1623)) REPRESENTATION_CONTEXT
('Context #1','3D Context with UNIT and UNCERTAINTY') );
#1621 = ( LENGTH_UNIT() NAMED_UNIT(*) SI_UNIT(.MILLI.,.METRE.) );
#1622 = ( NAMED_UNIT(*) PLANE_ANGLE_UNIT() SI_UNIT($,.RADIAN.) );
#1623 = ( NAMED_UNIT(*) SI_UNIT($,.STERADIAN.) SOLID_ANGLE_UNIT() );
#1624 = UNCERTAINTY_MEASURE_WITH_UNIT(LENGTH_MEASURE(1.E-07),#1621,
  'distance_accuracy_value','confusion accuracy');
#1625 = CONTEXT_DEPENDENT_SHAPE_REPRESENTATION(#1626,#1628);
#1626 = ( REPRESENTATION_RELATIONSHIP('','',#1430,#10) 
REPRESENTATION_RELATIONSHIP_WITH_TRANSFORMATION(#1627) 
SHAPE_REPRESENTATION_RELATIONSHIP() );
#1627 = ITEM_DEFINED_TRANSFORMATION('','',#11,#23);
#1628 = PRODUCT_DEFINITION_SHAPE('Placement','Placement of an item',
  #1629);
#1629 = NEXT_ASSEMBLY_USAGE_OCCURRENCE('4','=>[0:1:1:5]','',#5,#1425,$);
#1630 = PRODUCT_RELATED_PRODUCT_CATEGORY('part',$,(#1427));
#1631 = MECHANICAL_DESIGN_GEOMETRIC_PRESENTATION_REPRESENTATION('',(
    #1632,#1640,#1647),#1412);
#1632 = STYLED_ITEM('color',(#1633),#942);
#1633 = PRESENTATION_STYLE_ASSIGNMENT((#1634));
#1634 = SURFACE_STYLE_USAGE(.BOTH.,#1635);
#1635 = SURFACE_SIDE_STYLE('',(#1636));
#1636 = SURFACE_STYLE_FILL_AREA(#1637);
#1637 = FILL_AREA_STYLE('',(#1638));
#1638 = FILL_AREA_STYLE_COLOUR('',#1639);
#1639 = COLOUR_RGB('',0.735356983052,0.735356983052,0.735356983052);
#1640 = STYLED_ITEM('color',(#1641),#1131);
#1641 = PRESENTATION_STYLE_ASSIGNMENT((#1642));
#1642 = SURFACE_STYLE_USAGE(.BOTH.,#1643);
#1643 = SURFACE_SIDE_STYLE('',(#1644));
#1644 = SURFACE_STYLE_FILL_AREA(#1645);
#1645 = FILL_AREA_STYLE('',(#1646));
#1646 = FILL_AREA_STYLE_COLOUR('',#1639);
#1647 = STYLED_ITEM('color',(#1648),#1320);
#1648 = PRESENTATION_STYLE_ASSIGNMENT((#1649));
#1649 = SURFACE_STYLE_USAGE(.BOTH.,#1650);
#1650 = SURFACE_SIDE_STYLE('',(#1651));
#1651 = SURFACE_STYLE_FILL_AREA(#1652);
#1652 = FILL_AREA_STYLE('',(#1653));
#1653 = FILL_AREA_STYLE_COLOUR('',#1639);
#1654 = MECHANICAL_DESIGN_GEOMETRIC_PRESENTATION_REPRESENTATION('',(
    #1655),#1620);
#1655 = STYLED_ITEM('color',(#1656),#1431);
#1656 = PRESENTATION_STYLE_ASSIGNMENT((#1657));
#1657 = SURFACE_STYLE_USAGE(.BOTH.,#1658);
#1658 = SURFACE_SIDE_STYLE('',(#1659));
#1659 = SURFACE_STYLE_FILL_AREA(#1660);
#1660 = FILL_AREA_STYLE('',(#1661));
#1661 = FILL_AREA_STYLE_COLOUR('',#1662);
#1662 = COLOUR_RGB('',0.313304153717,0.484529207832,0.410020903123);
#1663 = MECHANICAL_DESIGN_GEOMETRIC_PRESENTATION_REPRESENTATION('',(
    #1664,#1672,#1679,#1686,#1693,#1700,#1707,#1714,#1721,#1728,#1735,
    #1743,#1750,#1757,#1764,#1771,#1778,#1785,#1792,#1799,#1806,#1813,
    #1820,#1827,#1834,#1841,#1848,#1855,#1862,#1869,#1876),#923);
#1664 = STYLED_ITEM('color',(#1665),#66);
#1665 = PRESENTATION_STYLE_ASSIGNMENT((#1666));
#1666 = SURFACE_STYLE_USAGE(.BOTH.,#1667);
#1667 = SURFACE_SIDE_STYLE('',(#1668));
#1668 = SURFACE_STYLE_FILL_AREA(#1669);
#1669 = FILL_AREA_STYLE('',(#1670));
#1670 = FILL_AREA_STYLE_COLOUR('',#1671);
#1671 = COLOUR_RGB('',0.147999998088,0.144999993226,0.144999993226);
#1672 = STYLED_ITEM('color',(#1673),#106);
#1673 = PRESENTATION_STYLE_ASSIGNMENT((#1674));
#1674 = SURFACE_STYLE_USAGE(.BOTH.,#1675);
#1675 = SURFACE_SIDE_STYLE('',(#1676));
#1676 = SURFACE_STYLE_FILL_AREA(#1677);
#1677 = FILL_AREA_STYLE('',(#1678));
#1678 = FILL_AREA_STYLE_COLOUR('',#1671);
#1679 = STYLED_ITEM('color',(#1680),#137);
#1680 = PRESENTATION_STYLE_ASSIGNMENT((#1681));
#1681 = SURFACE_STYLE_USAGE(.BOTH.,#1682);
#1682 = SURFACE_SIDE_STYLE('',(#1683));
#1683 = SURFACE_STYLE_FILL_AREA(#1684);
#1684 = FILL_AREA_STYLE('',(#1685));
#1685 = FILL_AREA_STYLE_COLOUR('',#1671);
#1686 = STYLED_ITEM('color',(#1687),#168);
#1687 = PRESENTATION_STYLE_ASSIGNMENT((#1688));
#1688 = SURFACE_STYLE_USAGE(.BOTH.,#1689);
#1689 = SURFACE_SIDE_STYLE('',(#1690));
#1690 = SURFACE_STYLE_FILL_AREA(#1691);
#1691 = FILL_AREA_STYLE('',(#1692));
#1692 = FILL_AREA_STYLE_COLOUR('',#1671);
#1693 = STYLED_ITEM('color',(#1694),#251);
#1694 = PRESENTATION_STYLE_ASSIGNMENT((#1695));
#1695 = SURFACE_STYLE_USAGE(.BOTH.,#1696);
#1696 = SURFACE_SIDE_STYLE('',(#1697));
#1697 = SURFACE_STYLE_FILL_AREA(#1698);
#1698 = FILL_AREA_STYLE('',(#1699));
#1699 = FILL_AREA_STYLE_COLOUR('',#1671);
#1700 = STYLED_ITEM('color',(#1701),#334);
#1701 = PRESENTATION_STYLE_ASSIGNMENT((#1702));
#1702 = SURFACE_STYLE_USAGE(.BOTH.,#1703);
#1703 = SURFACE_SIDE_STYLE('',(#1704));
#1704 = SURFACE_STYLE_FILL_AREA(#1705);
#1705 = FILL_AREA_STYLE('',(#1706));
#1706 = FILL_AREA_STYLE_COLOUR('',#1671);
#1707 = STYLED_ITEM('color',(#1708),#351);
#1708 = PRESENTATION_STYLE_ASSIGNMENT((#1709));
#1709 = SURFACE_STYLE_USAGE(.BOTH.,#1710);
#1710 = SURFACE_SIDE_STYLE('',(#1711));
#1711 = SURFACE_STYLE_FILL_AREA(#1712);
#1712 = FILL_AREA_STYLE('',(#1713));
#1713 = FILL_AREA_STYLE_COLOUR('',#1671);
#1714 = STYLED_ITEM('color',(#1715),#368);
#1715 = PRESENTATION_STYLE_ASSIGNMENT((#1716));
#1716 = SURFACE_STYLE_USAGE(.BOTH.,#1717);
#1717 = SURFACE_SIDE_STYLE('',(#1718));
#1718 = SURFACE_STYLE_FILL_AREA(#1719);
#1719 = FILL_AREA_STYLE('',(#1720));
#1720 = FILL_AREA_STYLE_COLOUR('',#1671);
#1721 = STYLED_ITEM('color',(#1722),#385);
#1722 = PRESENTATION_STYLE_ASSIGNMENT((#1723));
#1723 = SURFACE_STYLE_USAGE(.BOTH.,#1724);
#1724 = SURFACE_SIDE_STYLE('',(#1725));
#1725 = SURFACE_STYLE_FILL_AREA(#1726);
#1726 = FILL_AREA_STYLE('',(#1727));
#1727 = FILL_AREA_STYLE_COLOUR('',#1671);
#1728 = STYLED_ITEM('color',(#1729),#402);
#1729 = PRESENTATION_STYLE_ASSIGNMENT((#1730));
#1730 = SURFACE_STYLE_USAGE(.BOTH.,#1731);
#1731 = SURFACE_SIDE_STYLE('',(#1732));
#1732 = SURFACE_STYLE_FILL_AREA(#1733);
#1733 = FILL_AREA_STYLE('',(#1734));
#1734 = FILL_AREA_STYLE_COLOUR('',#1671);
#1735 = STYLED_ITEM('color',(#1736),#414);
#1736 = PRESENTATION_STYLE_ASSIGNMENT((#1737));
#1737 = SURFACE_STYLE_USAGE(.BOTH.,#1738);
#1738 = SURFACE_SIDE_STYLE('',(#1739));
#1739 = SURFACE_STYLE_FILL_AREA(#1740);
#1740 = FILL_AREA_STYLE('',(#1741));
#1741 = FILL_AREA_STYLE_COLOUR('',#1742);
#1742 = COLOUR_RGB('',0.859000020776,0.737999965183,0.495999988746);
#1743 = STYLED_ITEM('color',(#1744),#470);
#1744 = PRESENTATION_STYLE_ASSIGNMENT((#1745));
#1745 = SURFACE_STYLE_USAGE(.BOTH.,#1746);
#1746 = SURFACE_SIDE_STYLE('',(#1747));
#1747 = SURFACE_STYLE_FILL_AREA(#1748);
#1748 = FILL_AREA_STYLE('',(#1749));
#1749 = FILL_AREA_STYLE_COLOUR('',#1742);
#1750 = STYLED_ITEM('color',(#1751),#494);
#1751 = PRESENTATION_STYLE_ASSIGNMENT((#1752));
#1752 = SURFACE_STYLE_USAGE(.BOTH.,#1753);
#1753 = SURFACE_SIDE_STYLE('',(#1754));
#1754 = SURFACE_STYLE_FILL_AREA(#1755);
#1755 = FILL_AREA_STYLE('',(#1756));
#1756 = FILL_AREA_STYLE_COLOUR('',#1742);
#1757 = STYLED_ITEM('color',(#1758),#543);
#1758 = PRESENTATION_STYLE_ASSIGNMENT((#1759));
#1759 = SURFACE_STYLE_USAGE(.BOTH.,#1760);
#1760 = SURFACE_SIDE_STYLE('',(#1761));
#1761 = SURFACE_STYLE_FILL_AREA(#1762);
#1762 = FILL_AREA_STYLE('',(#1763));
#1763 = FILL_AREA_STYLE_COLOUR('',#1742);
#1764 = STYLED_ITEM('color',(#1765),#560);
#1765 = PRESENTATION_STYLE_ASSIGNMENT((#1766));
#1766 = SURFACE_STYLE_USAGE(.BOTH.,#1767);
#1767 = SURFACE_SIDE_STYLE('',(#1768));
#1768 = SURFACE_STYLE_FILL_AREA(#1769);
#1769 = FILL_AREA_STYLE('',(#1770));
#1770 = FILL_AREA_STYLE_COLOUR('',#1742);
#1771 = STYLED_ITEM('color',(#1772),#591);
#1772 = PRESENTATION_STYLE_ASSIGNMENT((#1773));
#1773 = SURFACE_STYLE_USAGE(.BOTH.,#1774);
#1774 = SURFACE_SIDE_STYLE('',(#1775));
#1775 = SURFACE_STYLE_FILL_AREA(#1776);
#1776 = FILL_AREA_STYLE('',(#1777));
#1777 = FILL_AREA_STYLE_COLOUR('',#1742);
#1778 = STYLED_ITEM('color',(#1779),#615);
#1779 = PRESENTATION_STYLE_ASSIGNMENT((#1780));
#1780 = SURFACE_STYLE_USAGE(.BOTH.,#1781);
#1781 = SURFACE_SIDE_STYLE('',(#1782));
#1782 = SURFACE_STYLE_FILL_AREA(#1783);
#1783 = FILL_AREA_STYLE('',(#1784));
#1784 = FILL_AREA_STYLE_COLOUR('',#1742);
#1785 = STYLED_ITEM('color',(#1786),#639);
#1786 = PRESENTATION_STYLE_ASSIGNMENT((#1787));
#1787 = SURFACE_STYLE_USAGE(.BOTH.,#1788);
#1788 = SURFACE_SIDE_STYLE('',(#1789));
#1789 = SURFACE_STYLE_FILL_AREA(#1790);
#1790 = FILL_AREA_STYLE('',(#1791));
#1791 = FILL_AREA_STYLE_COLOUR('',#1742);
#1792 = STYLED_ITEM('color',(#1793),#656);
#1793 = PRESENTATION_STYLE_ASSIGNMENT((#1794));
#1794 = SURFACE_STYLE_USAGE(.BOTH.,#1795);
#1795 = SURFACE_SIDE_STYLE('',(#1796));
#1796 = SURFACE_STYLE_FILL_AREA(#1797);
#1797 = FILL_AREA_STYLE('',(#1798));
#1798 = FILL_AREA_STYLE_COLOUR('',#1742);
#1799 = STYLED_ITEM('color',(#1800),#673);
#1800 = PRESENTATION_STYLE_ASSIGNMENT((#1801));
#1801 = SURFACE_STYLE_USAGE(.BOTH.,#1802);
#1802 = SURFACE_SIDE_STYLE('',(#1803));
#1803 = SURFACE_STYLE_FILL_AREA(#1804);
#1804 = FILL_AREA_STYLE('',(#1805));
#1805 = FILL_AREA_STYLE_COLOUR('',#1742);
#1806 = STYLED_ITEM('color',(#1807),#690);
#1807 = PRESENTATION_STYLE_ASSIGNMENT((#1808));
#1808 = SURFACE_STYLE_USAGE(.BOTH.,#1809);
#1809 = SURFACE_SIDE_STYLE('',(#1810));
#1810 = SURFACE_STYLE_FILL_AREA(#1811);
#1811 = FILL_AREA_STYLE('',(#1812));
#1812 = FILL_AREA_STYLE_COLOUR('',#1742);
#1813 = STYLED_ITEM('color',(#1814),#721);
#1814 = PRESENTATION_STYLE_ASSIGNMENT((#1815));
#1815 = SURFACE_STYLE_USAGE(.BOTH.,#1816);
#1816 = SURFACE_SIDE_STYLE('',(#1817));
#1817 = SURFACE_STYLE_FILL_AREA(#1818);
#1818 = FILL_AREA_STYLE('',(#1819));
#1819 = FILL_AREA_STYLE_COLOUR('',#1742);
#1820 = STYLED_ITEM('color',(#1821),#738);
#1821 = PRESENTATION_STYLE_ASSIGNMENT((#1822));
#1822 = SURFACE_STYLE_USAGE(.BOTH.,#1823);
#1823 = SURFACE_SIDE_STYLE('',(#1824));
#1824 = SURFACE_STYLE_FILL_AREA(#1825);
#1825 = FILL_AREA_STYLE('',(#1826));
#1826 = FILL_AREA_STYLE_COLOUR('',#1742);
#1827 = STYLED_ITEM('color',(#1828),#769);
#1828 = PRESENTATION_STYLE_ASSIGNMENT((#1829));
#1829 = SURFACE_STYLE_USAGE(.BOTH.,#1830);
#1830 = SURFACE_SIDE_STYLE('',(#1831));
#1831 = SURFACE_STYLE_FILL_AREA(#1832);
#1832 = FILL_AREA_STYLE('',(#1833));
#1833 = FILL_AREA_STYLE_COLOUR('',#1742);
#1834 = STYLED_ITEM('color',(#1835),#800);
#1835 = PRESENTATION_STYLE_ASSIGNMENT((#1836));
#1836 = SURFACE_STYLE_USAGE(.BOTH.,#1837);
#1837 = SURFACE_SIDE_STYLE('',(#1838));
#1838 = SURFACE_STYLE_FILL_AREA(#1839);
#1839 = FILL_AREA_STYLE('',(#1840));
#1840 = FILL_AREA_STYLE_COLOUR('',#1742);
#1841 = STYLED_ITEM('color',(#1842),#824);
#1842 = PRESENTATION_STYLE_ASSIGNMENT((#1843));
#1843 = SURFACE_STYLE_USAGE(.BOTH.,#1844);
#1844 = SURFACE_SIDE_STYLE('',(#1845));
#1845 = SURFACE_STYLE_FILL_AREA(#1846);
#1846 = FILL_AREA_STYLE('',(#1847));
#1847 = FILL_AREA_STYLE_COLOUR('',#1742);
#1848 = STYLED_ITEM('color',(#1849),#848);
#1849 = PRESENTATION_STYLE_ASSIGNMENT((#1850));
#1850 = SURFACE_STYLE_USAGE(.BOTH.,#1851);
#1851 = SURFACE_SIDE_STYLE('',(#1852));
#1852 = SURFACE_STYLE_FILL_AREA(#1853);
#1853 = FILL_AREA_STYLE('',(#1854));
#1854 = FILL_AREA_STYLE_COLOUR('',#1742);
#1855 = STYLED_ITEM('color',(#1856),#865);
#1856 = PRESENTATION_STYLE_ASSIGNMENT((#1857));
#1857 = SURFACE_STYLE_USAGE(.BOTH.,#1858);
#1858 = SURFACE_SIDE_STYLE('',(#1859));
#1859 = SURFACE_STYLE_FILL_AREA(#1860);
#1860 = FILL_AREA_STYLE('',(#1861));
#1861 = FILL_AREA_STYLE_COLOUR('',#1742);
#1862 = STYLED_ITEM('color',(#1863),#882);
#1863 = PRESENTATION_STYLE_ASSIGNMENT((#1864));
#1864 = SURFACE_STYLE_USAGE(.BOTH.,#1865);
#1865 = SURFACE_SIDE_STYLE('',(#1866));
#1866 = SURFACE_STYLE_FILL_AREA(#1867);
#1867 = FILL_AREA_STYLE('',(#1868));
#1868 = FILL_AREA_STYLE_COLOUR('',#1742);
#1869 = STYLED_ITEM('color',(#1870),#899);
#1870 = PRESENTATION_STYLE_ASSIGNMENT((#1871));
#1871 = SURFACE_STYLE_USAGE(.BOTH.,#1872);
#1872 = SURFACE_SIDE_STYLE('',(#1873));
#1873 = SURFACE_STYLE_FILL_AREA(#1874);
#1874 = FILL_AREA_STYLE('',(#1875));
#1875 = FILL_AREA_STYLE_COLOUR('',#1742);
#1876 = STYLED_ITEM('color',(#1877),#911);
#1877 = PRESENTATION_STYLE_ASSIGNMENT((#1878));
#1878 = SURFACE_STYLE_USAGE(.BOTH.,#1879);
#1879 = SURFACE_SIDE_STYLE('',(#1880));
#1880 = SURFACE_STYLE_FILL_AREA(#1881);
#1881 = FILL_AREA_STYLE('',(#1882));
#1882 = FILL_AREA_STYLE_COLOUR('',#1742);
ENDSEC;
END-ISO-10303-21;
