%TF.GenerationSoftware,KiCad,Pcbnew,10.99.0-3671-gbe90a7e200*%
%TF.CreationDate,2026-09-09T21:07:32+01:00*%
%TF.ProjectId,kicad_file,6b696361-645f-4666-996c-652e6b696361,rev?*%
%TF.SameCoordinates,Original*%
%TF.FileFunction,Legend,Bot*%
%TF.FilePolarity,Positive*%
%FSLAX46Y46*%
G04 Gerber Fmt 4.6, Leading zero omitted, Abs format (unit mm)*
G04 Created by KiCad (PCBNEW 10.99.0-3671-gbe90a7e200) date 2026-09-09 21:07:32*
%MOMM*%
%LPD*%
G01*
G04 APERTURE LIST*
G04 Aperture macros list*
%AMRoundRect*
0 Rectangle with rounded corners*
0 $1 Rounding radius*
0 $2 $3 $4 $5 $6 $7 $8 $9 X,Y pos of 4 corners*
0 Add a 4 corners polygon primitive as box body*
4,1,4,$2,$3,$4,$5,$6,$7,$8,$9,$2,$3,0*
0 Add four circle primitives for the rounded corners*
1,1,$1+$1,$2,$3*
1,1,$1+$1,$4,$5*
1,1,$1+$1,$6,$7*
1,1,$1+$1,$8,$9*
0 Add four rect primitives between the rounded corners*
20,1,$1+$1,$2,$3,$4,$5,0*
20,1,$1+$1,$4,$5,$6,$7,0*
20,1,$1+$1,$6,$7,$8,$9,0*
20,1,$1+$1,$8,$9,$2,$3,0*%
%AMFreePoly0*
4,1,25,0.396174,0.896573,0.401076,0.892082,0.892082,0.401076,0.914110,0.353835,0.914400,0.347194,0.914400,-0.347194,0.896573,-0.396174,0.892082,-0.401076,0.401076,-0.892082,0.353835,-0.914110,0.347194,-0.914400,-0.347194,-0.914400,-0.396174,-0.896573,-0.401076,-0.892082,-0.892082,-0.401076,-0.914110,-0.353835,-0.914400,-0.347194,-0.914400,0.347194,-0.896573,0.396174,-0.892082,0.401076,
-0.401076,0.892082,-0.353835,0.914110,-0.347194,0.914400,0.347194,0.914400,0.396174,0.896573,0.396174,0.896573,$1*%
%AMFreePoly1*
4,1,25,0.417216,0.947373,0.422118,0.942882,0.942882,0.422118,0.964910,0.374877,0.965200,0.368236,0.965200,-0.368236,0.947373,-0.417216,0.942882,-0.422118,0.422118,-0.942882,0.374877,-0.964910,0.368236,-0.965200,-0.368236,-0.965200,-0.417216,-0.947373,-0.422118,-0.942882,-0.942882,-0.422118,-0.964910,-0.374877,-0.965200,-0.368236,-0.965200,0.368236,-0.947373,0.417216,-0.942882,0.422118,
-0.422118,0.942882,-0.374877,0.964910,-0.368236,0.965200,0.368236,0.965200,0.417216,0.947373,0.417216,0.947373,$1*%
%AMFreePoly2*
4,1,25,0.380392,0.858473,0.385294,0.853982,0.853982,0.385294,0.876010,0.338053,0.876300,0.331412,0.876300,-0.331412,0.858473,-0.380392,0.853982,-0.385294,0.385294,-0.853982,0.338053,-0.876010,0.331412,-0.876300,-0.331412,-0.876300,-0.380392,-0.858473,-0.385294,-0.853982,-0.853982,-0.385294,-0.876010,-0.338053,-0.876300,-0.331412,-0.876300,0.331412,-0.858473,0.380392,-0.853982,0.385294,
-0.385294,0.853982,-0.338053,0.876010,-0.331412,0.876300,0.331412,0.876300,0.380392,0.858473,0.380392,0.858473,$1*%
G04 Aperture macros list end*
%ADD10C,0.113792*%
%ADD11C,0.146304*%
%ADD12C,0.203200*%
%ADD13RoundRect,0.076200X0.889000X0.889000X-0.889000X0.889000X-0.889000X-0.889000X0.889000X-0.889000X0*%
%ADD14C,1.930400*%
%ADD15FreePoly0,0.000000*%
%ADD16FreePoly1,0.000000*%
%ADD17RoundRect,0.076200X-0.889000X-0.889000X0.889000X-0.889000X0.889000X0.889000X-0.889000X0.889000X0*%
%ADD18FreePoly1,270.000000*%
%ADD19FreePoly1,90.000000*%
%ADD20C,3.200000*%
%ADD21C,2.336800*%
%ADD22RoundRect,0.076200X0.889000X-0.889000X0.889000X0.889000X-0.889000X0.889000X-0.889000X-0.889000X0*%
%ADD23C,1.752600*%
%ADD24FreePoly2,0.000000*%
%ADD25RoundRect,1.076200X-0.000010X0.000010X-0.000010X-0.000010X0.000010X-0.000010X0.000010X0.000010X0*%
%ADD26RoundRect,1.076200X0.000010X0.000010X-0.000010X0.000010X-0.000010X-0.000010X0.000010X-0.000010X0*%
G04 APERTURE END LIST*
D10*
X32326731Y21866471D02*
X32326731Y20994066D01*
X32638305Y22364989D02*
X32949878Y21430269D01*
X32949878Y21430269D02*
X32139787Y21430269D01*
X31392012Y22302674D02*
X31267382Y22302674D01*
X31267382Y22302674D02*
X31142753Y22240359D01*
X31142753Y22240359D02*
X31080438Y22178045D01*
X31080438Y22178045D02*
X31018124Y22053415D01*
X31018124Y22053415D02*
X30955809Y21804157D01*
X30955809Y21804157D02*
X30955809Y21492583D01*
X30955809Y21492583D02*
X31018124Y21243325D01*
X31018124Y21243325D02*
X31080438Y21118695D01*
X31080438Y21118695D02*
X31142753Y21056381D01*
X31142753Y21056381D02*
X31267382Y20994066D01*
X31267382Y20994066D02*
X31392012Y20994066D01*
X31392012Y20994066D02*
X31516641Y21056381D01*
X31516641Y21056381D02*
X31578956Y21118695D01*
X31578956Y21118695D02*
X31641270Y21243325D01*
X31641270Y21243325D02*
X31703585Y21492583D01*
X31703585Y21492583D02*
X31703585Y21804157D01*
X31703585Y21804157D02*
X31641270Y22053415D01*
X31641270Y22053415D02*
X31578956Y22178045D01*
X31578956Y22178045D02*
X31516641Y22240359D01*
X31516641Y22240359D02*
X31392012Y22302674D01*
X30394977Y21492583D02*
X29397943Y21492583D01*
X28089335Y20994066D02*
X28837111Y20994066D01*
X28463223Y20994066D02*
X28463223Y22302674D01*
X28463223Y22302674D02*
X28587852Y22115730D01*
X28587852Y22115730D02*
X28712482Y21991101D01*
X28712482Y21991101D02*
X28837111Y21928786D01*
X27279245Y22302674D02*
X27154615Y22302674D01*
X27154615Y22302674D02*
X27029986Y22240359D01*
X27029986Y22240359D02*
X26967671Y22178045D01*
X26967671Y22178045D02*
X26905357Y22053415D01*
X26905357Y22053415D02*
X26843042Y21804157D01*
X26843042Y21804157D02*
X26843042Y21492583D01*
X26843042Y21492583D02*
X26905357Y21243325D01*
X26905357Y21243325D02*
X26967671Y21118695D01*
X26967671Y21118695D02*
X27029986Y21056381D01*
X27029986Y21056381D02*
X27154615Y20994066D01*
X27154615Y20994066D02*
X27279245Y20994066D01*
X27279245Y20994066D02*
X27403874Y21056381D01*
X27403874Y21056381D02*
X27466189Y21118695D01*
X27466189Y21118695D02*
X27528503Y21243325D01*
X27528503Y21243325D02*
X27590818Y21492583D01*
X27590818Y21492583D02*
X27590818Y21804157D01*
X27590818Y21804157D02*
X27528503Y22053415D01*
X27528503Y22053415D02*
X27466189Y22178045D01*
X27466189Y22178045D02*
X27403874Y22240359D01*
X27403874Y22240359D02*
X27279245Y22302674D01*
X26032952Y22302674D02*
X25908322Y22302674D01*
X25908322Y22302674D02*
X25783693Y22240359D01*
X25783693Y22240359D02*
X25721378Y22178045D01*
X25721378Y22178045D02*
X25659064Y22053415D01*
X25659064Y22053415D02*
X25596749Y21804157D01*
X25596749Y21804157D02*
X25596749Y21492583D01*
X25596749Y21492583D02*
X25659064Y21243325D01*
X25659064Y21243325D02*
X25721378Y21118695D01*
X25721378Y21118695D02*
X25783693Y21056381D01*
X25783693Y21056381D02*
X25908322Y20994066D01*
X25908322Y20994066D02*
X26032952Y20994066D01*
X26032952Y20994066D02*
X26157581Y21056381D01*
X26157581Y21056381D02*
X26219896Y21118695D01*
X26219896Y21118695D02*
X26282210Y21243325D01*
X26282210Y21243325D02*
X26344525Y21492583D01*
X26344525Y21492583D02*
X26344525Y21804157D01*
X26344525Y21804157D02*
X26282210Y22053415D01*
X26282210Y22053415D02*
X26219896Y22178045D01*
X26219896Y22178045D02*
X26157581Y22240359D01*
X26157581Y22240359D02*
X26032952Y22302674D01*
X24786659Y22302674D02*
X24662029Y22302674D01*
X24662029Y22302674D02*
X24537400Y22240359D01*
X24537400Y22240359D02*
X24475085Y22178045D01*
X24475085Y22178045D02*
X24412771Y22053415D01*
X24412771Y22053415D02*
X24350456Y21804157D01*
X24350456Y21804157D02*
X24350456Y21492583D01*
X24350456Y21492583D02*
X24412771Y21243325D01*
X24412771Y21243325D02*
X24475085Y21118695D01*
X24475085Y21118695D02*
X24537400Y21056381D01*
X24537400Y21056381D02*
X24662029Y20994066D01*
X24662029Y20994066D02*
X24786659Y20994066D01*
X24786659Y20994066D02*
X24911288Y21056381D01*
X24911288Y21056381D02*
X24973603Y21118695D01*
X24973603Y21118695D02*
X25035917Y21243325D01*
X25035917Y21243325D02*
X25098232Y21492583D01*
X25098232Y21492583D02*
X25098232Y21804157D01*
X25098232Y21804157D02*
X25035917Y22053415D01*
X25035917Y22053415D02*
X24973603Y22178045D01*
X24973603Y22178045D02*
X24911288Y22240359D01*
X24911288Y22240359D02*
X24786659Y22302674D01*
X23789624Y20994066D02*
X23789624Y22302674D01*
X23789624Y21679527D02*
X23041848Y21679527D01*
X23041848Y20994066D02*
X23041848Y22302674D01*
X22543331Y21866471D02*
X21857869Y21866471D01*
X21857869Y21866471D02*
X22543331Y20994066D01*
X22543331Y20994066D02*
X21857869Y20994066D01*
X41341361Y21679527D02*
X41777563Y21679527D01*
X41777563Y20994066D02*
X41777563Y22302674D01*
X41777563Y22302674D02*
X41154417Y22302674D01*
X40655899Y20994066D02*
X40655899Y21866471D01*
X40655899Y21617213D02*
X40593585Y21741842D01*
X40593585Y21741842D02*
X40531270Y21804157D01*
X40531270Y21804157D02*
X40406641Y21866471D01*
X40406641Y21866471D02*
X40282011Y21866471D01*
X39347291Y21056381D02*
X39471920Y20994066D01*
X39471920Y20994066D02*
X39721179Y20994066D01*
X39721179Y20994066D02*
X39845808Y21056381D01*
X39845808Y21056381D02*
X39908123Y21181010D01*
X39908123Y21181010D02*
X39908123Y21679527D01*
X39908123Y21679527D02*
X39845808Y21804157D01*
X39845808Y21804157D02*
X39721179Y21866471D01*
X39721179Y21866471D02*
X39471920Y21866471D01*
X39471920Y21866471D02*
X39347291Y21804157D01*
X39347291Y21804157D02*
X39284976Y21679527D01*
X39284976Y21679527D02*
X39284976Y21554898D01*
X39284976Y21554898D02*
X39908123Y21430269D01*
X38163312Y21866471D02*
X38163312Y20557863D01*
X38163312Y21056381D02*
X38287942Y20994066D01*
X38287942Y20994066D02*
X38537200Y20994066D01*
X38537200Y20994066D02*
X38661830Y21056381D01*
X38661830Y21056381D02*
X38724144Y21118695D01*
X38724144Y21118695D02*
X38786459Y21243325D01*
X38786459Y21243325D02*
X38786459Y21617213D01*
X38786459Y21617213D02*
X38724144Y21741842D01*
X38724144Y21741842D02*
X38661830Y21804157D01*
X38661830Y21804157D02*
X38537200Y21866471D01*
X38537200Y21866471D02*
X38287942Y21866471D01*
X38287942Y21866471D02*
X38163312Y21804157D01*
X37540165Y21118695D02*
X37477851Y21056381D01*
X37477851Y21056381D02*
X37540165Y20994066D01*
X37540165Y20994066D02*
X37602480Y21056381D01*
X37602480Y21056381D02*
X37540165Y21118695D01*
X37540165Y21118695D02*
X37540165Y20994066D01*
X36917018Y21118695D02*
X36854704Y21056381D01*
X36854704Y21056381D02*
X36917018Y20994066D01*
X36917018Y20994066D02*
X36979333Y21056381D01*
X36979333Y21056381D02*
X36917018Y21118695D01*
X36917018Y21118695D02*
X36917018Y20994066D01*
X36917018Y21804157D02*
X36854704Y21741842D01*
X36854704Y21741842D02*
X36917018Y21679527D01*
X36917018Y21679527D02*
X36979333Y21741842D01*
X36979333Y21741842D02*
X36917018Y21804157D01*
X36917018Y21804157D02*
X36917018Y21679527D01*
X54952053Y23149530D02*
X54952053Y24458138D01*
X54952053Y24458138D02*
X54453536Y24458138D01*
X54453536Y24458138D02*
X54328907Y24395823D01*
X54328907Y24395823D02*
X54266592Y24333509D01*
X54266592Y24333509D02*
X54204277Y24208879D01*
X54204277Y24208879D02*
X54204277Y24021935D01*
X54204277Y24021935D02*
X54266592Y23897306D01*
X54266592Y23897306D02*
X54328907Y23834991D01*
X54328907Y23834991D02*
X54453536Y23772677D01*
X54453536Y23772677D02*
X54952053Y23772677D01*
X52895669Y23274159D02*
X52957984Y23211845D01*
X52957984Y23211845D02*
X53144928Y23149530D01*
X53144928Y23149530D02*
X53269557Y23149530D01*
X53269557Y23149530D02*
X53456501Y23211845D01*
X53456501Y23211845D02*
X53581131Y23336474D01*
X53581131Y23336474D02*
X53643445Y23461103D01*
X53643445Y23461103D02*
X53705760Y23710362D01*
X53705760Y23710362D02*
X53705760Y23897306D01*
X53705760Y23897306D02*
X53643445Y24146565D01*
X53643445Y24146565D02*
X53581131Y24271194D01*
X53581131Y24271194D02*
X53456501Y24395823D01*
X53456501Y24395823D02*
X53269557Y24458138D01*
X53269557Y24458138D02*
X53144928Y24458138D01*
X53144928Y24458138D02*
X52957984Y24395823D01*
X52957984Y24395823D02*
X52895669Y24333509D01*
X52397152Y23523418D02*
X51774005Y23523418D01*
X52521781Y23149530D02*
X52085579Y24458138D01*
X52085579Y24458138D02*
X51649376Y23149530D01*
X51150859Y23149530D02*
X50901600Y23149530D01*
X50901600Y23149530D02*
X50776971Y23211845D01*
X50776971Y23211845D02*
X50714656Y23274159D01*
X50714656Y23274159D02*
X50590027Y23461103D01*
X50590027Y23461103D02*
X50527712Y23710362D01*
X50527712Y23710362D02*
X50527712Y24208879D01*
X50527712Y24208879D02*
X50590027Y24333509D01*
X50590027Y24333509D02*
X50652341Y24395823D01*
X50652341Y24395823D02*
X50776971Y24458138D01*
X50776971Y24458138D02*
X51026229Y24458138D01*
X51026229Y24458138D02*
X51150859Y24395823D01*
X51150859Y24395823D02*
X51213173Y24333509D01*
X51213173Y24333509D02*
X51275488Y24208879D01*
X51275488Y24208879D02*
X51275488Y23897306D01*
X51275488Y23897306D02*
X51213173Y23772677D01*
X51213173Y23772677D02*
X51150859Y23710362D01*
X51150859Y23710362D02*
X51026229Y23648047D01*
X51026229Y23648047D02*
X50776971Y23648047D01*
X50776971Y23648047D02*
X50652341Y23710362D01*
X50652341Y23710362D02*
X50590027Y23772677D01*
X50590027Y23772677D02*
X50527712Y23897306D01*
X49406048Y24458138D02*
X49655307Y24458138D01*
X49655307Y24458138D02*
X49779936Y24395823D01*
X49779936Y24395823D02*
X49842251Y24333509D01*
X49842251Y24333509D02*
X49966880Y24146565D01*
X49966880Y24146565D02*
X50029195Y23897306D01*
X50029195Y23897306D02*
X50029195Y23398789D01*
X50029195Y23398789D02*
X49966880Y23274159D01*
X49966880Y23274159D02*
X49904566Y23211845D01*
X49904566Y23211845D02*
X49779936Y23149530D01*
X49779936Y23149530D02*
X49530678Y23149530D01*
X49530678Y23149530D02*
X49406048Y23211845D01*
X49406048Y23211845D02*
X49343734Y23274159D01*
X49343734Y23274159D02*
X49281419Y23398789D01*
X49281419Y23398789D02*
X49281419Y23710362D01*
X49281419Y23710362D02*
X49343734Y23834991D01*
X49343734Y23834991D02*
X49406048Y23897306D01*
X49406048Y23897306D02*
X49530678Y23959621D01*
X49530678Y23959621D02*
X49779936Y23959621D01*
X49779936Y23959621D02*
X49904566Y23897306D01*
X49904566Y23897306D02*
X49966880Y23834991D01*
X49966880Y23834991D02*
X50029195Y23710362D01*
X48533643Y23897306D02*
X48658273Y23959621D01*
X48658273Y23959621D02*
X48720587Y24021935D01*
X48720587Y24021935D02*
X48782902Y24146565D01*
X48782902Y24146565D02*
X48782902Y24208879D01*
X48782902Y24208879D02*
X48720587Y24333509D01*
X48720587Y24333509D02*
X48658273Y24395823D01*
X48658273Y24395823D02*
X48533643Y24458138D01*
X48533643Y24458138D02*
X48284385Y24458138D01*
X48284385Y24458138D02*
X48159755Y24395823D01*
X48159755Y24395823D02*
X48097441Y24333509D01*
X48097441Y24333509D02*
X48035126Y24208879D01*
X48035126Y24208879D02*
X48035126Y24146565D01*
X48035126Y24146565D02*
X48097441Y24021935D01*
X48097441Y24021935D02*
X48159755Y23959621D01*
X48159755Y23959621D02*
X48284385Y23897306D01*
X48284385Y23897306D02*
X48533643Y23897306D01*
X48533643Y23897306D02*
X48658273Y23834991D01*
X48658273Y23834991D02*
X48720587Y23772677D01*
X48720587Y23772677D02*
X48782902Y23648047D01*
X48782902Y23648047D02*
X48782902Y23398789D01*
X48782902Y23398789D02*
X48720587Y23274159D01*
X48720587Y23274159D02*
X48658273Y23211845D01*
X48658273Y23211845D02*
X48533643Y23149530D01*
X48533643Y23149530D02*
X48284385Y23149530D01*
X48284385Y23149530D02*
X48159755Y23211845D01*
X48159755Y23211845D02*
X48097441Y23274159D01*
X48097441Y23274159D02*
X48035126Y23398789D01*
X48035126Y23398789D02*
X48035126Y23648047D01*
X48035126Y23648047D02*
X48097441Y23772677D01*
X48097441Y23772677D02*
X48159755Y23834991D01*
X48159755Y23834991D02*
X48284385Y23897306D01*
X46851148Y24458138D02*
X47474294Y24458138D01*
X47474294Y24458138D02*
X47536609Y23834991D01*
X47536609Y23834991D02*
X47474294Y23897306D01*
X47474294Y23897306D02*
X47349665Y23959621D01*
X47349665Y23959621D02*
X47038092Y23959621D01*
X47038092Y23959621D02*
X46913462Y23897306D01*
X46913462Y23897306D02*
X46851148Y23834991D01*
X46851148Y23834991D02*
X46788833Y23710362D01*
X46788833Y23710362D02*
X46788833Y23398789D01*
X46788833Y23398789D02*
X46851148Y23274159D01*
X46851148Y23274159D02*
X46913462Y23211845D01*
X46913462Y23211845D02*
X47038092Y23149530D01*
X47038092Y23149530D02*
X47349665Y23149530D01*
X47349665Y23149530D02*
X47474294Y23211845D01*
X47474294Y23211845D02*
X47536609Y23274159D01*
X44545505Y23149530D02*
X45293281Y23149530D01*
X44919393Y23149530D02*
X44919393Y24458138D01*
X44919393Y24458138D02*
X45044022Y24271194D01*
X45044022Y24271194D02*
X45168652Y24146565D01*
X45168652Y24146565D02*
X45293281Y24084250D01*
X43423841Y24458138D02*
X43673100Y24458138D01*
X43673100Y24458138D02*
X43797729Y24395823D01*
X43797729Y24395823D02*
X43860044Y24333509D01*
X43860044Y24333509D02*
X43984673Y24146565D01*
X43984673Y24146565D02*
X44046988Y23897306D01*
X44046988Y23897306D02*
X44046988Y23398789D01*
X44046988Y23398789D02*
X43984673Y23274159D01*
X43984673Y23274159D02*
X43922359Y23211845D01*
X43922359Y23211845D02*
X43797729Y23149530D01*
X43797729Y23149530D02*
X43548471Y23149530D01*
X43548471Y23149530D02*
X43423841Y23211845D01*
X43423841Y23211845D02*
X43361527Y23274159D01*
X43361527Y23274159D02*
X43299212Y23398789D01*
X43299212Y23398789D02*
X43299212Y23710362D01*
X43299212Y23710362D02*
X43361527Y23834991D01*
X43361527Y23834991D02*
X43423841Y23897306D01*
X43423841Y23897306D02*
X43548471Y23959621D01*
X43548471Y23959621D02*
X43797729Y23959621D01*
X43797729Y23959621D02*
X43922359Y23897306D01*
X43922359Y23897306D02*
X43984673Y23834991D01*
X43984673Y23834991D02*
X44046988Y23710362D01*
X42738380Y23648047D02*
X41741346Y23648047D01*
X40370423Y23274159D02*
X40432738Y23211845D01*
X40432738Y23211845D02*
X40619682Y23149530D01*
X40619682Y23149530D02*
X40744311Y23149530D01*
X40744311Y23149530D02*
X40931255Y23211845D01*
X40931255Y23211845D02*
X41055885Y23336474D01*
X41055885Y23336474D02*
X41118199Y23461103D01*
X41118199Y23461103D02*
X41180514Y23710362D01*
X41180514Y23710362D02*
X41180514Y23897306D01*
X41180514Y23897306D02*
X41118199Y24146565D01*
X41118199Y24146565D02*
X41055885Y24271194D01*
X41055885Y24271194D02*
X40931255Y24395823D01*
X40931255Y24395823D02*
X40744311Y24458138D01*
X40744311Y24458138D02*
X40619682Y24458138D01*
X40619682Y24458138D02*
X40432738Y24395823D01*
X40432738Y24395823D02*
X40370423Y24333509D01*
X39809591Y23149530D02*
X39809591Y24458138D01*
X39248759Y23149530D02*
X39248759Y23834991D01*
X39248759Y23834991D02*
X39311074Y23959621D01*
X39311074Y23959621D02*
X39435703Y24021935D01*
X39435703Y24021935D02*
X39622647Y24021935D01*
X39622647Y24021935D02*
X39747277Y23959621D01*
X39747277Y23959621D02*
X39809591Y23897306D01*
X38064780Y23149530D02*
X38064780Y23834991D01*
X38064780Y23834991D02*
X38127095Y23959621D01*
X38127095Y23959621D02*
X38251724Y24021935D01*
X38251724Y24021935D02*
X38500983Y24021935D01*
X38500983Y24021935D02*
X38625612Y23959621D01*
X38064780Y23211845D02*
X38189410Y23149530D01*
X38189410Y23149530D02*
X38500983Y23149530D01*
X38500983Y23149530D02*
X38625612Y23211845D01*
X38625612Y23211845D02*
X38687927Y23336474D01*
X38687927Y23336474D02*
X38687927Y23461103D01*
X38687927Y23461103D02*
X38625612Y23585733D01*
X38625612Y23585733D02*
X38500983Y23648047D01*
X38500983Y23648047D02*
X38189410Y23648047D01*
X38189410Y23648047D02*
X38064780Y23710362D01*
X37441633Y24021935D02*
X37441633Y23149530D01*
X37441633Y23897306D02*
X37379319Y23959621D01*
X37379319Y23959621D02*
X37254689Y24021935D01*
X37254689Y24021935D02*
X37067745Y24021935D01*
X37067745Y24021935D02*
X36943116Y23959621D01*
X36943116Y23959621D02*
X36880801Y23834991D01*
X36880801Y23834991D02*
X36880801Y23149530D01*
X36257654Y24021935D02*
X36257654Y23149530D01*
X36257654Y23897306D02*
X36195340Y23959621D01*
X36195340Y23959621D02*
X36070710Y24021935D01*
X36070710Y24021935D02*
X35883766Y24021935D01*
X35883766Y24021935D02*
X35759137Y23959621D01*
X35759137Y23959621D02*
X35696822Y23834991D01*
X35696822Y23834991D02*
X35696822Y23149530D01*
X34575158Y23211845D02*
X34699787Y23149530D01*
X34699787Y23149530D02*
X34949046Y23149530D01*
X34949046Y23149530D02*
X35073675Y23211845D01*
X35073675Y23211845D02*
X35135990Y23336474D01*
X35135990Y23336474D02*
X35135990Y23834991D01*
X35135990Y23834991D02*
X35073675Y23959621D01*
X35073675Y23959621D02*
X34949046Y24021935D01*
X34949046Y24021935D02*
X34699787Y24021935D01*
X34699787Y24021935D02*
X34575158Y23959621D01*
X34575158Y23959621D02*
X34512843Y23834991D01*
X34512843Y23834991D02*
X34512843Y23710362D01*
X34512843Y23710362D02*
X35135990Y23585733D01*
X33765067Y23149530D02*
X33889697Y23211845D01*
X33889697Y23211845D02*
X33952011Y23336474D01*
X33952011Y23336474D02*
X33952011Y24458138D01*
X31584054Y23149530D02*
X32331830Y23149530D01*
X31957942Y23149530D02*
X31957942Y24458138D01*
X31957942Y24458138D02*
X32082571Y24271194D01*
X32082571Y24271194D02*
X32207201Y24146565D01*
X32207201Y24146565D02*
X32331830Y24084250D01*
X31085537Y24333509D02*
X31023222Y24395823D01*
X31023222Y24395823D02*
X30898593Y24458138D01*
X30898593Y24458138D02*
X30587020Y24458138D01*
X30587020Y24458138D02*
X30462390Y24395823D01*
X30462390Y24395823D02*
X30400076Y24333509D01*
X30400076Y24333509D02*
X30337761Y24208879D01*
X30337761Y24208879D02*
X30337761Y24084250D01*
X30337761Y24084250D02*
X30400076Y23897306D01*
X30400076Y23897306D02*
X31147852Y23149530D01*
X31147852Y23149530D02*
X30337761Y23149530D01*
X29776929Y23648047D02*
X28779895Y23648047D01*
X27720546Y23834991D02*
X27533602Y23772677D01*
X27533602Y23772677D02*
X27471287Y23710362D01*
X27471287Y23710362D02*
X27408972Y23585733D01*
X27408972Y23585733D02*
X27408972Y23398789D01*
X27408972Y23398789D02*
X27471287Y23274159D01*
X27471287Y23274159D02*
X27533602Y23211845D01*
X27533602Y23211845D02*
X27658231Y23149530D01*
X27658231Y23149530D02*
X28156748Y23149530D01*
X28156748Y23149530D02*
X28156748Y24458138D01*
X28156748Y24458138D02*
X27720546Y24458138D01*
X27720546Y24458138D02*
X27595916Y24395823D01*
X27595916Y24395823D02*
X27533602Y24333509D01*
X27533602Y24333509D02*
X27471287Y24208879D01*
X27471287Y24208879D02*
X27471287Y24084250D01*
X27471287Y24084250D02*
X27533602Y23959621D01*
X27533602Y23959621D02*
X27595916Y23897306D01*
X27595916Y23897306D02*
X27720546Y23834991D01*
X27720546Y23834991D02*
X28156748Y23834991D01*
X26848140Y23149530D02*
X26848140Y24021935D01*
X26848140Y24458138D02*
X26910455Y24395823D01*
X26910455Y24395823D02*
X26848140Y24333509D01*
X26848140Y24333509D02*
X26785826Y24395823D01*
X26785826Y24395823D02*
X26848140Y24458138D01*
X26848140Y24458138D02*
X26848140Y24333509D01*
X26411937Y24021935D02*
X25913420Y24021935D01*
X26224993Y24458138D02*
X26224993Y23336474D01*
X26224993Y23336474D02*
X26162679Y23211845D01*
X26162679Y23211845D02*
X26038049Y23149530D01*
X26038049Y23149530D02*
X25913420Y23149530D01*
X24480182Y23149530D02*
X24480182Y24458138D01*
X24480182Y24458138D02*
X23981665Y24458138D01*
X23981665Y24458138D02*
X23857036Y24395823D01*
X23857036Y24395823D02*
X23794721Y24333509D01*
X23794721Y24333509D02*
X23732406Y24208879D01*
X23732406Y24208879D02*
X23732406Y24021935D01*
X23732406Y24021935D02*
X23794721Y23897306D01*
X23794721Y23897306D02*
X23857036Y23834991D01*
X23857036Y23834991D02*
X23981665Y23772677D01*
X23981665Y23772677D02*
X24480182Y23772677D01*
X23296204Y24458138D02*
X22984630Y23149530D01*
X22984630Y23149530D02*
X22735372Y24084250D01*
X22735372Y24084250D02*
X22486113Y23149530D01*
X22486113Y23149530D02*
X22174540Y24458138D01*
X21676022Y23149530D02*
X21676022Y24458138D01*
X21676022Y24458138D02*
X21239820Y23523418D01*
X21239820Y23523418D02*
X20803617Y24458138D01*
X20803617Y24458138D02*
X20803617Y23149530D01*
X19183435Y23149530D02*
X19183435Y24458138D01*
X19183435Y24458138D02*
X18871862Y24458138D01*
X18871862Y24458138D02*
X18684918Y24395823D01*
X18684918Y24395823D02*
X18560289Y24271194D01*
X18560289Y24271194D02*
X18497974Y24146565D01*
X18497974Y24146565D02*
X18435659Y23897306D01*
X18435659Y23897306D02*
X18435659Y23710362D01*
X18435659Y23710362D02*
X18497974Y23461103D01*
X18497974Y23461103D02*
X18560289Y23336474D01*
X18560289Y23336474D02*
X18684918Y23211845D01*
X18684918Y23211845D02*
X18871862Y23149530D01*
X18871862Y23149530D02*
X19183435Y23149530D01*
X17874827Y23149530D02*
X17874827Y24021935D01*
X17874827Y23772677D02*
X17812513Y23897306D01*
X17812513Y23897306D02*
X17750198Y23959621D01*
X17750198Y23959621D02*
X17625569Y24021935D01*
X17625569Y24021935D02*
X17500939Y24021935D01*
X17064736Y23149530D02*
X17064736Y24021935D01*
X17064736Y24458138D02*
X17127051Y24395823D01*
X17127051Y24395823D02*
X17064736Y24333509D01*
X17064736Y24333509D02*
X17002422Y24395823D01*
X17002422Y24395823D02*
X17064736Y24458138D01*
X17064736Y24458138D02*
X17064736Y24333509D01*
X16566219Y24021935D02*
X16254645Y23149530D01*
X16254645Y23149530D02*
X15943072Y24021935D01*
X14946037Y23211845D02*
X15070666Y23149530D01*
X15070666Y23149530D02*
X15319925Y23149530D01*
X15319925Y23149530D02*
X15444554Y23211845D01*
X15444554Y23211845D02*
X15506869Y23336474D01*
X15506869Y23336474D02*
X15506869Y23834991D01*
X15506869Y23834991D02*
X15444554Y23959621D01*
X15444554Y23959621D02*
X15319925Y24021935D01*
X15319925Y24021935D02*
X15070666Y24021935D01*
X15070666Y24021935D02*
X14946037Y23959621D01*
X14946037Y23959621D02*
X14883722Y23834991D01*
X14883722Y23834991D02*
X14883722Y23710362D01*
X14883722Y23710362D02*
X15506869Y23585733D01*
X14322890Y23149530D02*
X14322890Y24021935D01*
X14322890Y23772677D02*
X14260576Y23897306D01*
X14260576Y23897306D02*
X14198261Y23959621D01*
X14198261Y23959621D02*
X14073632Y24021935D01*
X14073632Y24021935D02*
X13949002Y24021935D01*
X46604259Y20394138D02*
X46604259Y19334789D01*
X46604259Y19334789D02*
X46541945Y19210159D01*
X46541945Y19210159D02*
X46479630Y19147845D01*
X46479630Y19147845D02*
X46355001Y19085530D01*
X46355001Y19085530D02*
X46105742Y19085530D01*
X46105742Y19085530D02*
X45981113Y19147845D01*
X45981113Y19147845D02*
X45918798Y19210159D01*
X45918798Y19210159D02*
X45856483Y19334789D01*
X45856483Y19334789D02*
X45856483Y20394138D01*
X45295651Y19147845D02*
X45171022Y19085530D01*
X45171022Y19085530D02*
X44921763Y19085530D01*
X44921763Y19085530D02*
X44797134Y19147845D01*
X44797134Y19147845D02*
X44734819Y19272474D01*
X44734819Y19272474D02*
X44734819Y19334789D01*
X44734819Y19334789D02*
X44797134Y19459418D01*
X44797134Y19459418D02*
X44921763Y19521733D01*
X44921763Y19521733D02*
X45108707Y19521733D01*
X45108707Y19521733D02*
X45233336Y19584047D01*
X45233336Y19584047D02*
X45295651Y19708677D01*
X45295651Y19708677D02*
X45295651Y19770991D01*
X45295651Y19770991D02*
X45233336Y19895621D01*
X45233336Y19895621D02*
X45108707Y19957935D01*
X45108707Y19957935D02*
X44921763Y19957935D01*
X44921763Y19957935D02*
X44797134Y19895621D01*
X43675470Y19147845D02*
X43800099Y19085530D01*
X43800099Y19085530D02*
X44049358Y19085530D01*
X44049358Y19085530D02*
X44173987Y19147845D01*
X44173987Y19147845D02*
X44236302Y19272474D01*
X44236302Y19272474D02*
X44236302Y19770991D01*
X44236302Y19770991D02*
X44173987Y19895621D01*
X44173987Y19895621D02*
X44049358Y19957935D01*
X44049358Y19957935D02*
X43800099Y19957935D01*
X43800099Y19957935D02*
X43675470Y19895621D01*
X43675470Y19895621D02*
X43613155Y19770991D01*
X43613155Y19770991D02*
X43613155Y19646362D01*
X43613155Y19646362D02*
X44236302Y19521733D01*
X42242232Y20394138D02*
X41806030Y19085530D01*
X41806030Y19085530D02*
X41369827Y20394138D01*
X40933624Y19584047D02*
X39936590Y19584047D01*
X40435107Y19085530D02*
X40435107Y20082565D01*
X38503352Y19957935D02*
X38004835Y19957935D01*
X38316408Y19085530D02*
X38316408Y20207194D01*
X38316408Y20207194D02*
X38254094Y20331823D01*
X38254094Y20331823D02*
X38129464Y20394138D01*
X38129464Y20394138D02*
X38004835Y20394138D01*
X37381688Y19085530D02*
X37506318Y19147845D01*
X37506318Y19147845D02*
X37568632Y19210159D01*
X37568632Y19210159D02*
X37630947Y19334789D01*
X37630947Y19334789D02*
X37630947Y19708677D01*
X37630947Y19708677D02*
X37568632Y19833306D01*
X37568632Y19833306D02*
X37506318Y19895621D01*
X37506318Y19895621D02*
X37381688Y19957935D01*
X37381688Y19957935D02*
X37194744Y19957935D01*
X37194744Y19957935D02*
X37070115Y19895621D01*
X37070115Y19895621D02*
X37007800Y19833306D01*
X37007800Y19833306D02*
X36945486Y19708677D01*
X36945486Y19708677D02*
X36945486Y19334789D01*
X36945486Y19334789D02*
X37007800Y19210159D01*
X37007800Y19210159D02*
X37070115Y19147845D01*
X37070115Y19147845D02*
X37194744Y19085530D01*
X37194744Y19085530D02*
X37381688Y19085530D01*
X36384653Y19085530D02*
X36384653Y19957935D01*
X36384653Y19708677D02*
X36322339Y19833306D01*
X36322339Y19833306D02*
X36260024Y19895621D01*
X36260024Y19895621D02*
X36135395Y19957935D01*
X36135395Y19957935D02*
X36010765Y19957935D01*
X34639842Y19147845D02*
X34515213Y19085530D01*
X34515213Y19085530D02*
X34265954Y19085530D01*
X34265954Y19085530D02*
X34141325Y19147845D01*
X34141325Y19147845D02*
X34079010Y19272474D01*
X34079010Y19272474D02*
X34079010Y19334789D01*
X34079010Y19334789D02*
X34141325Y19459418D01*
X34141325Y19459418D02*
X34265954Y19521733D01*
X34265954Y19521733D02*
X34452898Y19521733D01*
X34452898Y19521733D02*
X34577527Y19584047D01*
X34577527Y19584047D02*
X34639842Y19708677D01*
X34639842Y19708677D02*
X34639842Y19770991D01*
X34639842Y19770991D02*
X34577527Y19895621D01*
X34577527Y19895621D02*
X34452898Y19957935D01*
X34452898Y19957935D02*
X34265954Y19957935D01*
X34265954Y19957935D02*
X34141325Y19895621D01*
X33019661Y19147845D02*
X33144290Y19085530D01*
X33144290Y19085530D02*
X33393549Y19085530D01*
X33393549Y19085530D02*
X33518178Y19147845D01*
X33518178Y19147845D02*
X33580493Y19272474D01*
X33580493Y19272474D02*
X33580493Y19770991D01*
X33580493Y19770991D02*
X33518178Y19895621D01*
X33518178Y19895621D02*
X33393549Y19957935D01*
X33393549Y19957935D02*
X33144290Y19957935D01*
X33144290Y19957935D02*
X33019661Y19895621D01*
X33019661Y19895621D02*
X32957346Y19770991D01*
X32957346Y19770991D02*
X32957346Y19646362D01*
X32957346Y19646362D02*
X33580493Y19521733D01*
X32396514Y19085530D02*
X32396514Y19957935D01*
X32396514Y19708677D02*
X32334200Y19833306D01*
X32334200Y19833306D02*
X32271885Y19895621D01*
X32271885Y19895621D02*
X32147256Y19957935D01*
X32147256Y19957935D02*
X32022626Y19957935D01*
X31711053Y19957935D02*
X31399479Y19085530D01*
X31399479Y19085530D02*
X31087906Y19957935D01*
X30402444Y19085530D02*
X30527074Y19147845D01*
X30527074Y19147845D02*
X30589388Y19210159D01*
X30589388Y19210159D02*
X30651703Y19334789D01*
X30651703Y19334789D02*
X30651703Y19708677D01*
X30651703Y19708677D02*
X30589388Y19833306D01*
X30589388Y19833306D02*
X30527074Y19895621D01*
X30527074Y19895621D02*
X30402444Y19957935D01*
X30402444Y19957935D02*
X30215500Y19957935D01*
X30215500Y19957935D02*
X30090871Y19895621D01*
X30090871Y19895621D02*
X30028556Y19833306D01*
X30028556Y19833306D02*
X29966242Y19708677D01*
X29966242Y19708677D02*
X29966242Y19334789D01*
X29966242Y19334789D02*
X30028556Y19210159D01*
X30028556Y19210159D02*
X30090871Y19147845D01*
X30090871Y19147845D02*
X30215500Y19085530D01*
X30215500Y19085530D02*
X30402444Y19085530D01*
X28470689Y19147845D02*
X28346060Y19085530D01*
X28346060Y19085530D02*
X28096801Y19085530D01*
X28096801Y19085530D02*
X27972172Y19147845D01*
X27972172Y19147845D02*
X27909857Y19272474D01*
X27909857Y19272474D02*
X27909857Y19334789D01*
X27909857Y19334789D02*
X27972172Y19459418D01*
X27972172Y19459418D02*
X28096801Y19521733D01*
X28096801Y19521733D02*
X28283745Y19521733D01*
X28283745Y19521733D02*
X28408374Y19584047D01*
X28408374Y19584047D02*
X28470689Y19708677D01*
X28470689Y19708677D02*
X28470689Y19770991D01*
X28470689Y19770991D02*
X28408374Y19895621D01*
X28408374Y19895621D02*
X28283745Y19957935D01*
X28283745Y19957935D02*
X28096801Y19957935D01*
X28096801Y19957935D02*
X27972172Y19895621D01*
X26788193Y19957935D02*
X26788193Y19085530D01*
X27349025Y19957935D02*
X27349025Y19272474D01*
X27349025Y19272474D02*
X27286711Y19147845D01*
X27286711Y19147845D02*
X27162081Y19085530D01*
X27162081Y19085530D02*
X26975137Y19085530D01*
X26975137Y19085530D02*
X26850508Y19147845D01*
X26850508Y19147845D02*
X26788193Y19210159D01*
X26165046Y19957935D02*
X26165046Y18649327D01*
X26165046Y19895621D02*
X26040417Y19957935D01*
X26040417Y19957935D02*
X25791158Y19957935D01*
X25791158Y19957935D02*
X25666529Y19895621D01*
X25666529Y19895621D02*
X25604214Y19833306D01*
X25604214Y19833306D02*
X25541900Y19708677D01*
X25541900Y19708677D02*
X25541900Y19334789D01*
X25541900Y19334789D02*
X25604214Y19210159D01*
X25604214Y19210159D02*
X25666529Y19147845D01*
X25666529Y19147845D02*
X25791158Y19085530D01*
X25791158Y19085530D02*
X26040417Y19085530D01*
X26040417Y19085530D02*
X26165046Y19147845D01*
X24981067Y19957935D02*
X24981067Y18649327D01*
X24981067Y19895621D02*
X24856438Y19957935D01*
X24856438Y19957935D02*
X24607179Y19957935D01*
X24607179Y19957935D02*
X24482550Y19895621D01*
X24482550Y19895621D02*
X24420235Y19833306D01*
X24420235Y19833306D02*
X24357921Y19708677D01*
X24357921Y19708677D02*
X24357921Y19334789D01*
X24357921Y19334789D02*
X24420235Y19210159D01*
X24420235Y19210159D02*
X24482550Y19147845D01*
X24482550Y19147845D02*
X24607179Y19085530D01*
X24607179Y19085530D02*
X24856438Y19085530D01*
X24856438Y19085530D02*
X24981067Y19147845D01*
X23610144Y19085530D02*
X23734774Y19147845D01*
X23734774Y19147845D02*
X23797088Y19272474D01*
X23797088Y19272474D02*
X23797088Y20394138D01*
X23236257Y19957935D02*
X22924683Y19085530D01*
X22613110Y19957935D02*
X22924683Y19085530D01*
X22924683Y19085530D02*
X23049313Y18773957D01*
X23049313Y18773957D02*
X23111627Y18711642D01*
X23111627Y18711642D02*
X23236257Y18649327D01*
X2109674Y19249492D02*
X801066Y19685695D01*
X801066Y19685695D02*
X2109674Y20121897D01*
X1299583Y20558100D02*
X1299583Y21555135D01*
X801066Y21056617D02*
X1798101Y21056617D01*
X925695Y22178281D02*
X863381Y22240596D01*
X863381Y22240596D02*
X801066Y22178281D01*
X801066Y22178281D02*
X863381Y22115966D01*
X863381Y22115966D02*
X925695Y22178281D01*
X925695Y22178281D02*
X801066Y22178281D01*
X1611157Y22178281D02*
X1548842Y22240596D01*
X1548842Y22240596D02*
X1486527Y22178281D01*
X1486527Y22178281D02*
X1548842Y22115966D01*
X1548842Y22115966D02*
X1611157Y22178281D01*
X1611157Y22178281D02*
X1486527Y22178281D01*
X2109674Y24359295D02*
X2109674Y24110036D01*
X2109674Y24110036D02*
X2047359Y23985407D01*
X2047359Y23985407D02*
X1985045Y23923092D01*
X1985045Y23923092D02*
X1798101Y23798463D01*
X1798101Y23798463D02*
X1548842Y23736148D01*
X1548842Y23736148D02*
X1050325Y23736148D01*
X1050325Y23736148D02*
X925695Y23798463D01*
X925695Y23798463D02*
X863381Y23860778D01*
X863381Y23860778D02*
X801066Y23985407D01*
X801066Y23985407D02*
X801066Y24234666D01*
X801066Y24234666D02*
X863381Y24359295D01*
X863381Y24359295D02*
X925695Y24421610D01*
X925695Y24421610D02*
X1050325Y24483924D01*
X1050325Y24483924D02*
X1361898Y24483924D01*
X1361898Y24483924D02*
X1486527Y24421610D01*
X1486527Y24421610D02*
X1548842Y24359295D01*
X1548842Y24359295D02*
X1611157Y24234666D01*
X1611157Y24234666D02*
X1611157Y23985407D01*
X1611157Y23985407D02*
X1548842Y23860778D01*
X1548842Y23860778D02*
X1486527Y23798463D01*
X1486527Y23798463D02*
X1361898Y23736148D01*
X2109674Y24857812D02*
X801066Y25294015D01*
X801066Y25294015D02*
X2109674Y25730217D01*
X801066Y27163455D02*
X2109674Y27163455D01*
X2109674Y27163455D02*
X1174954Y27599658D01*
X1174954Y27599658D02*
X2109674Y28035860D01*
X2109674Y28035860D02*
X801066Y28035860D01*
X801066Y29219839D02*
X1486527Y29219839D01*
X1486527Y29219839D02*
X1611157Y29157524D01*
X1611157Y29157524D02*
X1673471Y29032895D01*
X1673471Y29032895D02*
X1673471Y28783636D01*
X1673471Y28783636D02*
X1611157Y28659007D01*
X863381Y29219839D02*
X801066Y29095210D01*
X801066Y29095210D02*
X801066Y28783636D01*
X801066Y28783636D02*
X863381Y28659007D01*
X863381Y28659007D02*
X988010Y28596692D01*
X988010Y28596692D02*
X1112639Y28596692D01*
X1112639Y28596692D02*
X1237269Y28659007D01*
X1237269Y28659007D02*
X1299583Y28783636D01*
X1299583Y28783636D02*
X1299583Y29095210D01*
X1299583Y29095210D02*
X1361898Y29219839D01*
X801066Y29718357D02*
X1673471Y30403818D01*
X1673471Y29718357D02*
X801066Y30403818D01*
D11*
X52426870Y26098163D02*
X52426870Y26479018D01*
X51760374Y26288591D02*
X52426870Y26288591D01*
X51760374Y26701183D02*
X52426870Y26701183D01*
X52426870Y26701183D02*
X52426870Y26955086D01*
X52426870Y26955086D02*
X52395132Y27018562D01*
X52395132Y27018562D02*
X52363394Y27050300D01*
X52363394Y27050300D02*
X52299918Y27082038D01*
X52299918Y27082038D02*
X52204704Y27082038D01*
X52204704Y27082038D02*
X52141228Y27050300D01*
X52141228Y27050300D02*
X52109491Y27018562D01*
X52109491Y27018562D02*
X52077753Y26955086D01*
X52077753Y26955086D02*
X52077753Y26701183D01*
X52363394Y27335941D02*
X52395132Y27367679D01*
X52395132Y27367679D02*
X52426870Y27431155D01*
X52426870Y27431155D02*
X52426870Y27589844D01*
X52426870Y27589844D02*
X52395132Y27653320D01*
X52395132Y27653320D02*
X52363394Y27685058D01*
X52363394Y27685058D02*
X52299918Y27716796D01*
X52299918Y27716796D02*
X52236442Y27716796D01*
X52236442Y27716796D02*
X52141228Y27685058D01*
X52141228Y27685058D02*
X51760374Y27304203D01*
X51760374Y27304203D02*
X51760374Y27716796D01*
X44806870Y26098163D02*
X44806870Y26479018D01*
X44140374Y26288591D02*
X44806870Y26288591D01*
X44140374Y26701183D02*
X44806870Y26701183D01*
X44806870Y26701183D02*
X44806870Y26955086D01*
X44806870Y26955086D02*
X44775132Y27018562D01*
X44775132Y27018562D02*
X44743394Y27050300D01*
X44743394Y27050300D02*
X44679918Y27082038D01*
X44679918Y27082038D02*
X44584704Y27082038D01*
X44584704Y27082038D02*
X44521228Y27050300D01*
X44521228Y27050300D02*
X44489491Y27018562D01*
X44489491Y27018562D02*
X44457753Y26955086D01*
X44457753Y26955086D02*
X44457753Y26701183D01*
X44806870Y27685058D02*
X44806870Y27367679D01*
X44806870Y27367679D02*
X44489491Y27335941D01*
X44489491Y27335941D02*
X44521228Y27367679D01*
X44521228Y27367679D02*
X44552966Y27431155D01*
X44552966Y27431155D02*
X44552966Y27589844D01*
X44552966Y27589844D02*
X44521228Y27653320D01*
X44521228Y27653320D02*
X44489491Y27685058D01*
X44489491Y27685058D02*
X44426015Y27716796D01*
X44426015Y27716796D02*
X44267325Y27716796D01*
X44267325Y27716796D02*
X44203849Y27685058D01*
X44203849Y27685058D02*
X44172112Y27653320D01*
X44172112Y27653320D02*
X44140374Y27589844D01*
X44140374Y27589844D02*
X44140374Y27431155D01*
X44140374Y27431155D02*
X44172112Y27367679D01*
X44172112Y27367679D02*
X44203849Y27335941D01*
X42266870Y26098163D02*
X42266870Y26479018D01*
X41600374Y26288591D02*
X42266870Y26288591D01*
X41600374Y26701183D02*
X42266870Y26701183D01*
X42266870Y26701183D02*
X42266870Y26955086D01*
X42266870Y26955086D02*
X42235132Y27018562D01*
X42235132Y27018562D02*
X42203394Y27050300D01*
X42203394Y27050300D02*
X42139918Y27082038D01*
X42139918Y27082038D02*
X42044704Y27082038D01*
X42044704Y27082038D02*
X41981228Y27050300D01*
X41981228Y27050300D02*
X41949491Y27018562D01*
X41949491Y27018562D02*
X41917753Y26955086D01*
X41917753Y26955086D02*
X41917753Y26701183D01*
X42266870Y27653320D02*
X42266870Y27526369D01*
X42266870Y27526369D02*
X42235132Y27462893D01*
X42235132Y27462893D02*
X42203394Y27431155D01*
X42203394Y27431155D02*
X42108180Y27367679D01*
X42108180Y27367679D02*
X41981228Y27335941D01*
X41981228Y27335941D02*
X41727325Y27335941D01*
X41727325Y27335941D02*
X41663849Y27367679D01*
X41663849Y27367679D02*
X41632112Y27399417D01*
X41632112Y27399417D02*
X41600374Y27462893D01*
X41600374Y27462893D02*
X41600374Y27589844D01*
X41600374Y27589844D02*
X41632112Y27653320D01*
X41632112Y27653320D02*
X41663849Y27685058D01*
X41663849Y27685058D02*
X41727325Y27716796D01*
X41727325Y27716796D02*
X41886015Y27716796D01*
X41886015Y27716796D02*
X41949491Y27685058D01*
X41949491Y27685058D02*
X41981228Y27653320D01*
X41981228Y27653320D02*
X42012966Y27589844D01*
X42012966Y27589844D02*
X42012966Y27462893D01*
X42012966Y27462893D02*
X41981228Y27399417D01*
X41981228Y27399417D02*
X41949491Y27367679D01*
X41949491Y27367679D02*
X41886015Y27335941D01*
X47346870Y26098163D02*
X47346870Y26479018D01*
X46680374Y26288591D02*
X47346870Y26288591D01*
X46680374Y26701183D02*
X47346870Y26701183D01*
X47346870Y26701183D02*
X47346870Y26955086D01*
X47346870Y26955086D02*
X47315132Y27018562D01*
X47315132Y27018562D02*
X47283394Y27050300D01*
X47283394Y27050300D02*
X47219918Y27082038D01*
X47219918Y27082038D02*
X47124704Y27082038D01*
X47124704Y27082038D02*
X47061228Y27050300D01*
X47061228Y27050300D02*
X47029491Y27018562D01*
X47029491Y27018562D02*
X46997753Y26955086D01*
X46997753Y26955086D02*
X46997753Y26701183D01*
X47124704Y27653320D02*
X46680374Y27653320D01*
X47378608Y27494631D02*
X46902539Y27335941D01*
X46902539Y27335941D02*
X46902539Y27748534D01*
X53307272Y30473670D02*
X52926417Y30473670D01*
X53116844Y29807174D02*
X53116844Y30473670D01*
X52704252Y29807174D02*
X52704252Y30473670D01*
X52704252Y30473670D02*
X52450349Y30473670D01*
X52450349Y30473670D02*
X52386873Y30441932D01*
X52386873Y30441932D02*
X52355135Y30410194D01*
X52355135Y30410194D02*
X52323397Y30346718D01*
X52323397Y30346718D02*
X52323397Y30251504D01*
X52323397Y30251504D02*
X52355135Y30188028D01*
X52355135Y30188028D02*
X52386873Y30156291D01*
X52386873Y30156291D02*
X52450349Y30124553D01*
X52450349Y30124553D02*
X52704252Y30124553D01*
X51688639Y29807174D02*
X52069494Y29807174D01*
X51879066Y29807174D02*
X51879066Y30473670D01*
X51879066Y30473670D02*
X51942542Y30378456D01*
X51942542Y30378456D02*
X52006018Y30314980D01*
X52006018Y30314980D02*
X52069494Y30283242D01*
X49886870Y26098163D02*
X49886870Y26479018D01*
X49220374Y26288591D02*
X49886870Y26288591D01*
X49220374Y26701183D02*
X49886870Y26701183D01*
X49886870Y26701183D02*
X49886870Y26955086D01*
X49886870Y26955086D02*
X49855132Y27018562D01*
X49855132Y27018562D02*
X49823394Y27050300D01*
X49823394Y27050300D02*
X49759918Y27082038D01*
X49759918Y27082038D02*
X49664704Y27082038D01*
X49664704Y27082038D02*
X49601228Y27050300D01*
X49601228Y27050300D02*
X49569491Y27018562D01*
X49569491Y27018562D02*
X49537753Y26955086D01*
X49537753Y26955086D02*
X49537753Y26701183D01*
X49886870Y27304203D02*
X49886870Y27716796D01*
X49886870Y27716796D02*
X49632966Y27494631D01*
X49632966Y27494631D02*
X49632966Y27589844D01*
X49632966Y27589844D02*
X49601228Y27653320D01*
X49601228Y27653320D02*
X49569491Y27685058D01*
X49569491Y27685058D02*
X49506015Y27716796D01*
X49506015Y27716796D02*
X49347325Y27716796D01*
X49347325Y27716796D02*
X49283849Y27685058D01*
X49283849Y27685058D02*
X49252112Y27653320D01*
X49252112Y27653320D02*
X49220374Y27589844D01*
X49220374Y27589844D02*
X49220374Y27399417D01*
X49220374Y27399417D02*
X49252112Y27335941D01*
X49252112Y27335941D02*
X49283849Y27304203D01*
%TO.C,TP2*%
D12*
X53880900Y29591000D02*
G75*
G02*
X51275100Y29591000I-1302900J0D01*
G01*
X51275100Y29591000D02*
G75*
G02*
X53880900Y29591000I1302900J0D01*
G01*
%TO.C,TP5*%
X46260900Y29591000D02*
G75*
G02*
X43655100Y29591000I-1302900J0D01*
G01*
X43655100Y29591000D02*
G75*
G02*
X46260900Y29591000I1302900J0D01*
G01*
%TO.C,TP6*%
X43720900Y29591000D02*
G75*
G02*
X41115100Y29591000I-1302900J0D01*
G01*
X41115100Y29591000D02*
G75*
G02*
X43720900Y29591000I1302900J0D01*
G01*
%TO.C,TP4*%
X48800900Y29591000D02*
G75*
G02*
X46195100Y29591000I-1302900J0D01*
G01*
X46195100Y29591000D02*
G75*
G02*
X48800900Y29591000I1302900J0D01*
G01*
%TO.C,TP1*%
X56420900Y29591000D02*
G75*
G02*
X53815100Y29591000I-1302900J0D01*
G01*
X53815100Y29591000D02*
G75*
G02*
X56420900Y29591000I1302900J0D01*
G01*
%TO.C,TP3*%
X51340900Y29591000D02*
G75*
G02*
X48735100Y29591000I-1302900J0D01*
G01*
X48735100Y29591000D02*
G75*
G02*
X51340900Y29591000I1302900J0D01*
G01*
%TD*%
%LPC*%
D13*
%TO.C,JP5*%
X59690000Y15367000D03*
D14*
X59690000Y12827000D03*
X59690000Y10287000D03*
X57150000Y15367000D03*
X57150000Y12827000D03*
X57150000Y10287000D03*
X54610000Y15367000D03*
X54610000Y12827000D03*
X54610000Y10287000D03*
X52070000Y15367000D03*
X52070000Y12827000D03*
X52070000Y10287000D03*
%TD*%
D15*
%TO.C,U$44*%
X35560000Y2540000D03*
X38100000Y2540000D03*
D16*
X66167000Y30480000D03*
D15*
X50800000Y2540000D03*
X53340000Y2540000D03*
X55880000Y2540000D03*
X58420000Y2540000D03*
X60960000Y2540000D03*
X63500000Y2540000D03*
X23876000Y50800000D03*
X63500000Y50800000D03*
X60960000Y50800000D03*
X58420000Y50800000D03*
X55880000Y50800000D03*
X53340000Y50800000D03*
X50800000Y50800000D03*
X48260000Y50800000D03*
X45720000Y50800000D03*
X41656000Y50800000D03*
X39116000Y50800000D03*
X36576000Y50800000D03*
X34036000Y50800000D03*
X31496000Y50800000D03*
X28956000Y50800000D03*
X26416000Y50800000D03*
X43180000Y2540000D03*
X40640000Y2540000D03*
D16*
X66167000Y25400000D03*
D15*
X30480000Y2540000D03*
D17*
X63627000Y30480000D03*
D16*
X66167000Y27940000D03*
D15*
X27940000Y2540000D03*
X33020000Y2540000D03*
D16*
X63627000Y25400000D03*
X63627000Y27940000D03*
D15*
X18796000Y50800000D03*
X21336000Y50800000D03*
X45720000Y2540000D03*
%TD*%
D18*
%TO.C,JP8*%
X63500000Y6096000D03*
X60960000Y6096000D03*
X58420000Y6096000D03*
X55880000Y6096000D03*
X53340000Y6096000D03*
X50800000Y6096000D03*
%TD*%
D19*
%TO.C,JP4*%
X45720000Y47244000D03*
X48260000Y47244000D03*
X50800000Y47244000D03*
X53340000Y47244000D03*
X55880000Y47244000D03*
X58420000Y47244000D03*
X60960000Y47244000D03*
X63500000Y47244000D03*
%TD*%
D20*
%TO.C,UNK_HOLE_3*%
X13970000Y2540000D03*
%TD*%
D13*
%TO.C,JP1*%
X31750000Y15367000D03*
D14*
X31750000Y12827000D03*
X31750000Y10287000D03*
X29210000Y15367000D03*
X29210000Y12827000D03*
X29210000Y10287000D03*
X26670000Y15367000D03*
X26670000Y12827000D03*
X26670000Y10287000D03*
X24130000Y15367000D03*
X24130000Y12827000D03*
X24130000Y10287000D03*
%TD*%
D13*
%TO.C,JP2*%
X19050000Y15367000D03*
D14*
X19050000Y12827000D03*
X19050000Y10287000D03*
X16510000Y15367000D03*
X16510000Y12827000D03*
X16510000Y10287000D03*
X13970000Y15367000D03*
X13970000Y12827000D03*
X13970000Y10287000D03*
X11430000Y15367000D03*
X11430000Y12827000D03*
X11430000Y10287000D03*
%TD*%
D20*
%TO.C,UNK_HOLE_1*%
X66040000Y35560000D03*
%TD*%
%TO.C,UNK_HOLE_2*%
X66040000Y7620000D03*
%TD*%
D21*
%TO.C,J1*%
X3683000Y23981000D03*
X3683000Y27481000D03*
%TD*%
D22*
%TO.C,JP7*%
X18796000Y47244000D03*
D14*
X21336000Y47244000D03*
X23876000Y47244000D03*
X26416000Y47244000D03*
X28956000Y47244000D03*
X31496000Y47244000D03*
X34036000Y47244000D03*
X36576000Y47244000D03*
X39116000Y47244000D03*
X41656000Y47244000D03*
%TD*%
D20*
%TO.C,UNK_HOLE_0*%
X15240000Y50800000D03*
%TD*%
D13*
%TO.C,JP6*%
X46990000Y15367000D03*
D14*
X46990000Y12827000D03*
X46990000Y10287000D03*
X44450000Y15367000D03*
X44450000Y12827000D03*
X44450000Y10287000D03*
X41910000Y15367000D03*
X41910000Y12827000D03*
X41910000Y10287000D03*
X39370000Y15367000D03*
X39370000Y12827000D03*
X39370000Y10287000D03*
%TD*%
D18*
%TO.C,JP3*%
X45720000Y6096000D03*
X43180000Y6096000D03*
X40640000Y6096000D03*
X38100000Y6096000D03*
X35560000Y6096000D03*
X33020000Y6096000D03*
X30480000Y6096000D03*
X27940000Y6096000D03*
%TD*%
D23*
%TO.C,C2*%
X15875000Y26797000D03*
D24*
X19431000Y26797000D03*
%TD*%
D25*
%TO.C,TP2*%
X52578000Y29591000D03*
%TD*%
%TO.C,TP5*%
X44958000Y29591000D03*
%TD*%
%TO.C,TP6*%
X42418000Y29591000D03*
%TD*%
%TO.C,TP4*%
X47498000Y29591000D03*
%TD*%
D26*
%TO.C,TP1*%
X55118000Y29591000D03*
%TD*%
D25*
%TO.C,TP3*%
X50038000Y29591000D03*
%TD*%
%LPD*%
M02*
