ISO-10303-21;
HEADER;
FILE_DESCRIPTION(('KiCad electronic assembly'),'2;1');
FILE_NAME('model.step','1970-01-01T00:00:00',('Pcbnew'),('Kicad'),
  'Open CASCADE STEP processor 7.9','KiCad to STEP converter','Unknown'
  );
FILE_SCHEMA(('AUTOMOTIVE_DESIGN { 1 0 10303 214 1 1 1 1 }'));
ENDSEC;
DATA;
#1 = APPLICATION_PROTOCOL_DEFINITION('international standard',
  'automotive_design',2000,#2);
#2 = APPLICATION_CONTEXT(
  'core data for automotive mechanical design processes');
#3 = SHAPE_DEFINITION_REPRESENTATION(#4,#10);
#4 = PRODUCT_DEFINITION_SHAPE('','',#5);
#5 = PRODUCT_DEFINITION('design','',#6,#9);
#6 = PRODUCT_DEFINITION_FORMATION('','',#7);
#7 = PRODUCT('model 1','model 1','',(#8));
#8 = PRODUCT_CONTEXT('',#2,'mechanical');
#9 = PRODUCT_DEFINITION_CONTEXT('part definition',#2,'design');
#10 = SHAPE_REPRESENTATION('',(#11,#15,#19,#23),#27);
#11 = AXIS2_PLACEMENT_3D('',#12,#13,#14);
#12 = CARTESIAN_POINT('',(0.,0.,0.));
#13 = DIRECTION('',(0.,0.,1.));
#14 = DIRECTION('',(1.,0.,-0.));
#15 = AXIS2_PLACEMENT_3D('',#16,#17,#18);
#16 = CARTESIAN_POINT('',(0.,0.,1.595));
#17 = DIRECTION('',(0.,0.,1.));
#18 = DIRECTION('',(1.,0.,0.));
#19 = AXIS2_PLACEMENT_3D('',#20,#21,#22);
#20 = CARTESIAN_POINT('',(0.,0.,0.));
#21 = DIRECTION('',(0.,0.,1.));
#22 = DIRECTION('',(1.,0.,-0.));
#23 = AXIS2_PLACEMENT_3D('',#24,#25,#26);
#24 = CARTESIAN_POINT('',(0.,0.,0.));
#25 = DIRECTION('',(0.,0.,1.));
#26 = DIRECTION('',(1.,0.,-0.));
#27 = ( GEOMETRIC_REPRESENTATION_CONTEXT(3) 
GLOBAL_UNCERTAINTY_ASSIGNED_CONTEXT((#31)) GLOBAL_UNIT_ASSIGNED_CONTEXT(
(#28,#29,#30)) REPRESENTATION_CONTEXT('Context #1',
  '3D Context with UNIT and UNCERTAINTY') );
#28 = ( LENGTH_UNIT() NAMED_UNIT(*) SI_UNIT(.MILLI.,.METRE.) );
#29 = ( NAMED_UNIT(*) PLANE_ANGLE_UNIT() SI_UNIT($,.RADIAN.) );
#30 = ( NAMED_UNIT(*) SI_UNIT($,.STERADIAN.) SOLID_ANGLE_UNIT() );
#31 = UNCERTAINTY_MEASURE_WITH_UNIT(LENGTH_MEASURE(1.E-07),#28,
  'distance_accuracy_value','confusion accuracy');
#32 = PRODUCT_RELATED_PRODUCT_CATEGORY('part',$,(#7));
#33 = SHAPE_DEFINITION_REPRESENTATION(#34,#40);
#34 = PRODUCT_DEFINITION_SHAPE('','',#35);
#35 = PRODUCT_DEFINITION('design','',#36,#39);
#36 = PRODUCT_DEFINITION_FORMATION('','',#37);
#37 = PRODUCT('R_0805_2012Metric','R_0805_2012Metric','',(#38));
#38 = PRODUCT_CONTEXT('',#2,'mechanical');
#39 = PRODUCT_DEFINITION_CONTEXT('part definition',#2,'design');
#40 = SHAPE_REPRESENTATION('',(#11,#41),#45);
#41 = AXIS2_PLACEMENT_3D('',#42,#43,#44);
#42 = CARTESIAN_POINT('',(0.,0.,0.));
#43 = DIRECTION('',(0.,0.,1.));
#44 = DIRECTION('',(1.,0.,-0.));
#45 = ( GEOMETRIC_REPRESENTATION_CONTEXT(3) 
GLOBAL_UNCERTAINTY_ASSIGNED_CONTEXT((#49)) GLOBAL_UNIT_ASSIGNED_CONTEXT(
(#46,#47,#48)) REPRESENTATION_CONTEXT('Context #1',
  '3D Context with UNIT and UNCERTAINTY') );
#46 = ( LENGTH_UNIT() NAMED_UNIT(*) SI_UNIT(.MILLI.,.METRE.) );
#47 = ( NAMED_UNIT(*) PLANE_ANGLE_UNIT() SI_UNIT($,.RADIAN.) );
#48 = ( NAMED_UNIT(*) SI_UNIT($,.STERADIAN.) SOLID_ANGLE_UNIT() );
#49 = UNCERTAINTY_MEASURE_WITH_UNIT(LENGTH_MEASURE(1.E-07),#46,
  'distance_accuracy_value','confusion accuracy');
#50 = CONTEXT_DEPENDENT_SHAPE_REPRESENTATION(#51,#53);
#51 = ( REPRESENTATION_RELATIONSHIP('','',#40,#10) 
REPRESENTATION_RELATIONSHIP_WITH_TRANSFORMATION(#52) 
SHAPE_REPRESENTATION_RELATIONSHIP() );
#52 = ITEM_DEFINED_TRANSFORMATION('','',#11,#15);
#53 = PRODUCT_DEFINITION_SHAPE('Placement','Placement of an item',#54);
#54 = NEXT_ASSEMBLY_USAGE_OCCURRENCE('2','REF**','',#5,#35,$);
#55 = PRODUCT_RELATED_PRODUCT_CATEGORY('part',$,(#37));
#56 = SHAPE_DEFINITION_REPRESENTATION(#57,#63);
#57 = PRODUCT_DEFINITION_SHAPE('','',#58);
#58 = PRODUCT_DEFINITION('design','',#59,#62);
#59 = PRODUCT_DEFINITION_FORMATION('','',#60);
#60 = PRODUCT('R_0805_2012Metric','R_0805_2012Metric','',(#61));
#61 = PRODUCT_CONTEXT('',#2,'mechanical');
#62 = PRODUCT_DEFINITION_CONTEXT('part definition',#2,'design');
#63 = ADVANCED_BREP_SHAPE_REPRESENTATION('',(#11,#64),#854);
#64 = MANIFOLD_SOLID_BREP('',#65);
#65 = CLOSED_SHELL('',(#66,#106,#189,#214,#239,#306,#323,#340,#389,#406,
    #423,#472,#489,#558,#589,#613,#682,#706,#723,#740,#757,#774,#791,
    #808,#825,#842));
#66 = ADVANCED_FACE('',(#67),#101,.F.);
#67 = FACE_BOUND('',#68,.F.);
#68 = EDGE_LOOP('',(#69,#79,#87,#95));
#69 = ORIENTED_EDGE('',*,*,#70,.F.);
#70 = EDGE_CURVE('',#71,#73,#75,.T.);
#71 = VERTEX_POINT('',#72);
#72 = CARTESIAN_POINT('',(-1.,-0.6,4.5E-02));
#73 = VERTEX_POINT('',#74);
#74 = CARTESIAN_POINT('',(-1.,-0.6,0.405));
#75 = LINE('',#76,#77);
#76 = CARTESIAN_POINT('',(-1.,-0.6,0.));
#77 = VECTOR('',#78,1.);
#78 = DIRECTION('',(0.,0.,1.));
#79 = ORIENTED_EDGE('',*,*,#80,.T.);
#80 = EDGE_CURVE('',#71,#81,#83,.T.);
#81 = VERTEX_POINT('',#82);
#82 = CARTESIAN_POINT('',(-1.,0.6,4.5E-02));
#83 = LINE('',#84,#85);
#84 = CARTESIAN_POINT('',(-1.,-0.6,4.5E-02));
#85 = VECTOR('',#86,1.);
#86 = DIRECTION('',(0.,1.,0.));
#87 = ORIENTED_EDGE('',*,*,#88,.T.);
#88 = EDGE_CURVE('',#81,#89,#91,.T.);
#89 = VERTEX_POINT('',#90);
#90 = CARTESIAN_POINT('',(-1.,0.6,0.405));
#91 = LINE('',#92,#93);
#92 = CARTESIAN_POINT('',(-1.,0.6,0.));
#93 = VECTOR('',#94,1.);
#94 = DIRECTION('',(0.,0.,1.));
#95 = ORIENTED_EDGE('',*,*,#96,.F.);
#96 = EDGE_CURVE('',#73,#89,#97,.T.);
#97 = LINE('',#98,#99);
#98 = CARTESIAN_POINT('',(-1.,-0.6,0.405));
#99 = VECTOR('',#100,1.);
#100 = DIRECTION('',(0.,1.,0.));
#101 = PLANE('',#102);
#102 = AXIS2_PLACEMENT_3D('',#103,#104,#105);
#103 = CARTESIAN_POINT('',(-1.,-0.6,0.));
#104 = DIRECTION('',(1.,0.,0.));
#105 = DIRECTION('',(0.,0.,1.));
#106 = ADVANCED_FACE('',(#107),#184,.F.);
#107 = FACE_BOUND('',#108,.F.);
#108 = EDGE_LOOP('',(#109,#119,#126,#127,#136,#144,#153,#161,#169,#177)
  );
#109 = ORIENTED_EDGE('',*,*,#110,.F.);
#110 = EDGE_CURVE('',#111,#113,#115,.T.);
#111 = VERTEX_POINT('',#112);
#112 = CARTESIAN_POINT('',(-0.955,-0.6,-2.775557561563E-17));
#113 = VERTEX_POINT('',#114);
#114 = CARTESIAN_POINT('',(-0.745,-0.6,-2.775557561563E-17));
#115 = LINE('',#116,#117);
#116 = CARTESIAN_POINT('',(-1.,-0.6,0.));
#117 = VECTOR('',#118,1.);
#118 = DIRECTION('',(1.,0.,0.));
#119 = ORIENTED_EDGE('',*,*,#120,.F.);
#120 = EDGE_CURVE('',#71,#111,#121,.T.);
#121 = CIRCLE('',#122,4.5E-02);
#122 = AXIS2_PLACEMENT_3D('',#123,#124,#125);
#123 = CARTESIAN_POINT('',(-0.955,-0.6,4.5E-02));
#124 = DIRECTION('',(0.,-1.,0.));
#125 = DIRECTION('',(0.,0.,1.));
#126 = ORIENTED_EDGE('',*,*,#70,.T.);
#127 = ORIENTED_EDGE('',*,*,#128,.T.);
#128 = EDGE_CURVE('',#73,#129,#131,.T.);
#129 = VERTEX_POINT('',#130);
#130 = CARTESIAN_POINT('',(-0.955,-0.6,0.45));
#131 = CIRCLE('',#132,4.5E-02);
#132 = AXIS2_PLACEMENT_3D('',#133,#134,#135);
#133 = CARTESIAN_POINT('',(-0.955,-0.6,0.405));
#134 = DIRECTION('',(0.,1.,0.));
#135 = DIRECTION('',(0.,-0.,1.));
#136 = ORIENTED_EDGE('',*,*,#137,.T.);
#137 = EDGE_CURVE('',#129,#138,#140,.T.);
#138 = VERTEX_POINT('',#139);
#139 = CARTESIAN_POINT('',(-0.745,-0.6,0.45));
#140 = LINE('',#141,#142);
#141 = CARTESIAN_POINT('',(-1.,-0.6,0.45));
#142 = VECTOR('',#143,1.);
#143 = DIRECTION('',(1.,0.,0.));
#144 = ORIENTED_EDGE('',*,*,#145,.F.);
#145 = EDGE_CURVE('',#146,#138,#148,.T.);
#146 = VERTEX_POINT('',#147);
#147 = CARTESIAN_POINT('',(-0.7,-0.6,0.405));
#148 = CIRCLE('',#149,4.5E-02);
#149 = AXIS2_PLACEMENT_3D('',#150,#151,#152);
#150 = CARTESIAN_POINT('',(-0.745,-0.6,0.405));
#151 = DIRECTION('',(0.,-1.,0.));
#152 = DIRECTION('',(0.,0.,1.));
#153 = ORIENTED_EDGE('',*,*,#154,.F.);
#154 = EDGE_CURVE('',#155,#146,#157,.T.);
#155 = VERTEX_POINT('',#156);
#156 = CARTESIAN_POINT('',(-0.955,-0.6,0.405));
#157 = LINE('',#158,#159);
#158 = CARTESIAN_POINT('',(-0.955,-0.6,0.405));
#159 = VECTOR('',#160,1.);
#160 = DIRECTION('',(1.,0.,0.));
#161 = ORIENTED_EDGE('',*,*,#162,.F.);
#162 = EDGE_CURVE('',#163,#155,#165,.T.);
#163 = VERTEX_POINT('',#164);
#164 = CARTESIAN_POINT('',(-0.955,-0.6,4.5E-02));
#165 = LINE('',#166,#167);
#166 = CARTESIAN_POINT('',(-0.955,-0.6,4.5E-02));
#167 = VECTOR('',#168,1.);
#168 = DIRECTION('',(0.,0.,1.));
#169 = ORIENTED_EDGE('',*,*,#170,.T.);
#170 = EDGE_CURVE('',#163,#171,#173,.T.);
#171 = VERTEX_POINT('',#172);
#172 = CARTESIAN_POINT('',(-0.7,-0.6,4.5E-02));
#173 = LINE('',#174,#175);
#174 = CARTESIAN_POINT('',(-0.955,-0.6,4.5E-02));
#175 = VECTOR('',#176,1.);
#176 = DIRECTION('',(1.,0.,0.));
#177 = ORIENTED_EDGE('',*,*,#178,.T.);
#178 = EDGE_CURVE('',#171,#113,#179,.T.);
#179 = CIRCLE('',#180,4.5E-02);
#180 = AXIS2_PLACEMENT_3D('',#181,#182,#183);
#181 = CARTESIAN_POINT('',(-0.745,-0.6,4.5E-02));
#182 = DIRECTION('',(0.,1.,0.));
#183 = DIRECTION('',(0.,-0.,1.));
#184 = PLANE('',#185);
#185 = AXIS2_PLACEMENT_3D('',#186,#187,#188);
#186 = CARTESIAN_POINT('',(-1.,-0.6,0.));
#187 = DIRECTION('',(0.,1.,0.));
#188 = DIRECTION('',(0.,-0.,1.));
#189 = ADVANCED_FACE('',(#190),#209,.T.);
#190 = FACE_BOUND('',#191,.T.);
#191 = EDGE_LOOP('',(#192,#193,#202,#208));
#192 = ORIENTED_EDGE('',*,*,#80,.T.);
#193 = ORIENTED_EDGE('',*,*,#194,.T.);
#194 = EDGE_CURVE('',#81,#195,#197,.T.);
#195 = VERTEX_POINT('',#196);
#196 = CARTESIAN_POINT('',(-0.955,0.6,-2.775557561563E-17));
#197 = CIRCLE('',#198,4.5E-02);
#198 = AXIS2_PLACEMENT_3D('',#199,#200,#201);
#199 = CARTESIAN_POINT('',(-0.955,0.6,4.5E-02));
#200 = DIRECTION('',(0.,-1.,0.));
#201 = DIRECTION('',(0.,0.,1.));
#202 = ORIENTED_EDGE('',*,*,#203,.F.);
#203 = EDGE_CURVE('',#111,#195,#204,.T.);
#204 = LINE('',#205,#206);
#205 = CARTESIAN_POINT('',(-0.955,-0.6,-2.775557561563E-17));
#206 = VECTOR('',#207,1.);
#207 = DIRECTION('',(0.,1.,0.));
#208 = ORIENTED_EDGE('',*,*,#120,.F.);
#209 = CYLINDRICAL_SURFACE('',#210,4.5E-02);
#210 = AXIS2_PLACEMENT_3D('',#211,#212,#213);
#211 = CARTESIAN_POINT('',(-0.955,-0.6,4.5E-02));
#212 = DIRECTION('',(0.,1.,0.));
#213 = DIRECTION('',(-1.,0.,0.));
#214 = ADVANCED_FACE('',(#215),#234,.T.);
#215 = FACE_BOUND('',#216,.T.);
#216 = EDGE_LOOP('',(#217,#218,#226,#233));
#217 = ORIENTED_EDGE('',*,*,#128,.T.);
#218 = ORIENTED_EDGE('',*,*,#219,.T.);
#219 = EDGE_CURVE('',#129,#220,#222,.T.);
#220 = VERTEX_POINT('',#221);
#221 = CARTESIAN_POINT('',(-0.955,0.6,0.45));
#222 = LINE('',#223,#224);
#223 = CARTESIAN_POINT('',(-0.955,-0.6,0.45));
#224 = VECTOR('',#225,1.);
#225 = DIRECTION('',(0.,1.,0.));
#226 = ORIENTED_EDGE('',*,*,#227,.F.);
#227 = EDGE_CURVE('',#89,#220,#228,.T.);
#228 = CIRCLE('',#229,4.5E-02);
#229 = AXIS2_PLACEMENT_3D('',#230,#231,#232);
#230 = CARTESIAN_POINT('',(-0.955,0.6,0.405));
#231 = DIRECTION('',(0.,1.,0.));
#232 = DIRECTION('',(0.,-0.,1.));
#233 = ORIENTED_EDGE('',*,*,#96,.F.);
#234 = CYLINDRICAL_SURFACE('',#235,4.5E-02);
#235 = AXIS2_PLACEMENT_3D('',#236,#237,#238);
#236 = CARTESIAN_POINT('',(-0.955,-0.6,0.405));
#237 = DIRECTION('',(0.,1.,0.));
#238 = DIRECTION('',(-1.,0.,0.));
#239 = ADVANCED_FACE('',(#240),#301,.T.);
#240 = FACE_BOUND('',#241,.T.);
#241 = EDGE_LOOP('',(#242,#250,#251,#252,#253,#261,#270,#278,#286,#294)
  );
#242 = ORIENTED_EDGE('',*,*,#243,.F.);
#243 = EDGE_CURVE('',#195,#244,#246,.T.);
#244 = VERTEX_POINT('',#245);
#245 = CARTESIAN_POINT('',(-0.745,0.6,-2.775557561563E-17));
#246 = LINE('',#247,#248);
#247 = CARTESIAN_POINT('',(-1.,0.6,0.));
#248 = VECTOR('',#249,1.);
#249 = DIRECTION('',(1.,0.,0.));
#250 = ORIENTED_EDGE('',*,*,#194,.F.);
#251 = ORIENTED_EDGE('',*,*,#88,.T.);
#252 = ORIENTED_EDGE('',*,*,#227,.T.);
#253 = ORIENTED_EDGE('',*,*,#254,.T.);
#254 = EDGE_CURVE('',#220,#255,#257,.T.);
#255 = VERTEX_POINT('',#256);
#256 = CARTESIAN_POINT('',(-0.745,0.6,0.45));
#257 = LINE('',#258,#259);
#258 = CARTESIAN_POINT('',(-1.,0.6,0.45));
#259 = VECTOR('',#260,1.);
#260 = DIRECTION('',(1.,0.,0.));
#261 = ORIENTED_EDGE('',*,*,#262,.F.);
#262 = EDGE_CURVE('',#263,#255,#265,.T.);
#263 = VERTEX_POINT('',#264);
#264 = CARTESIAN_POINT('',(-0.7,0.6,0.405));
#265 = CIRCLE('',#266,4.5E-02);
#266 = AXIS2_PLACEMENT_3D('',#267,#268,#269);
#267 = CARTESIAN_POINT('',(-0.745,0.6,0.405));
#268 = DIRECTION('',(0.,-1.,0.));
#269 = DIRECTION('',(0.,0.,1.));
#270 = ORIENTED_EDGE('',*,*,#271,.F.);
#271 = EDGE_CURVE('',#272,#263,#274,.T.);
#272 = VERTEX_POINT('',#273);
#273 = CARTESIAN_POINT('',(-0.955,0.6,0.405));
#274 = LINE('',#275,#276);
#275 = CARTESIAN_POINT('',(-0.955,0.6,0.405));
#276 = VECTOR('',#277,1.);
#277 = DIRECTION('',(1.,0.,0.));
#278 = ORIENTED_EDGE('',*,*,#279,.F.);
#279 = EDGE_CURVE('',#280,#272,#282,.T.);
#280 = VERTEX_POINT('',#281);
#281 = CARTESIAN_POINT('',(-0.955,0.6,4.5E-02));
#282 = LINE('',#283,#284);
#283 = CARTESIAN_POINT('',(-0.955,0.6,4.5E-02));
#284 = VECTOR('',#285,1.);
#285 = DIRECTION('',(0.,0.,1.));
#286 = ORIENTED_EDGE('',*,*,#287,.T.);
#287 = EDGE_CURVE('',#280,#288,#290,.T.);
#288 = VERTEX_POINT('',#289);
#289 = CARTESIAN_POINT('',(-0.7,0.6,4.5E-02));
#290 = LINE('',#291,#292);
#291 = CARTESIAN_POINT('',(-0.955,0.6,4.5E-02));
#292 = VECTOR('',#293,1.);
#293 = DIRECTION('',(1.,0.,0.));
#294 = ORIENTED_EDGE('',*,*,#295,.T.);
#295 = EDGE_CURVE('',#288,#244,#296,.T.);
#296 = CIRCLE('',#297,4.5E-02);
#297 = AXIS2_PLACEMENT_3D('',#298,#299,#300);
#298 = CARTESIAN_POINT('',(-0.745,0.6,4.5E-02));
#299 = DIRECTION('',(0.,1.,0.));
#300 = DIRECTION('',(0.,-0.,1.));
#301 = PLANE('',#302);
#302 = AXIS2_PLACEMENT_3D('',#303,#304,#305);
#303 = CARTESIAN_POINT('',(-1.,0.6,0.));
#304 = DIRECTION('',(0.,1.,0.));
#305 = DIRECTION('',(0.,-0.,1.));
#306 = ADVANCED_FACE('',(#307),#318,.F.);
#307 = FACE_BOUND('',#308,.F.);
#308 = EDGE_LOOP('',(#309,#310,#311,#312));
#309 = ORIENTED_EDGE('',*,*,#243,.F.);
#310 = ORIENTED_EDGE('',*,*,#203,.F.);
#311 = ORIENTED_EDGE('',*,*,#110,.T.);
#312 = ORIENTED_EDGE('',*,*,#313,.T.);
#313 = EDGE_CURVE('',#113,#244,#314,.T.);
#314 = LINE('',#315,#316);
#315 = CARTESIAN_POINT('',(-0.745,-0.6,-2.775557561563E-17));
#316 = VECTOR('',#317,1.);
#317 = DIRECTION('',(0.,1.,0.));
#318 = PLANE('',#319);
#319 = AXIS2_PLACEMENT_3D('',#320,#321,#322);
#320 = CARTESIAN_POINT('',(-1.,-0.6,0.));
#321 = DIRECTION('',(0.,0.,1.));
#322 = DIRECTION('',(1.,0.,-0.));
#323 = ADVANCED_FACE('',(#324),#335,.T.);
#324 = FACE_BOUND('',#325,.T.);
#325 = EDGE_LOOP('',(#326,#327,#328,#329));
#326 = ORIENTED_EDGE('',*,*,#178,.T.);
#327 = ORIENTED_EDGE('',*,*,#313,.T.);
#328 = ORIENTED_EDGE('',*,*,#295,.F.);
#329 = ORIENTED_EDGE('',*,*,#330,.F.);
#330 = EDGE_CURVE('',#171,#288,#331,.T.);
#331 = LINE('',#332,#333);
#332 = CARTESIAN_POINT('',(-0.7,-0.6,4.5E-02));
#333 = VECTOR('',#334,1.);
#334 = DIRECTION('',(0.,1.,0.));
#335 = CYLINDRICAL_SURFACE('',#336,4.5E-02);
#336 = AXIS2_PLACEMENT_3D('',#337,#338,#339);
#337 = CARTESIAN_POINT('',(-0.745,-0.6,4.5E-02));
#338 = DIRECTION('',(0.,1.,0.));
#339 = DIRECTION('',(1.,0.,0.));
#340 = ADVANCED_FACE('',(#341),#384,.F.);
#341 = FACE_BOUND('',#342,.F.);
#342 = EDGE_LOOP('',(#343,#344,#345,#346,#354,#362,#370,#378));
#343 = ORIENTED_EDGE('',*,*,#170,.F.);
#344 = ORIENTED_EDGE('',*,*,#162,.T.);
#345 = ORIENTED_EDGE('',*,*,#154,.T.);
#346 = ORIENTED_EDGE('',*,*,#347,.T.);
#347 = EDGE_CURVE('',#146,#348,#350,.T.);
#348 = VERTEX_POINT('',#349);
#349 = CARTESIAN_POINT('',(0.7,-0.6,0.405));
#350 = LINE('',#351,#352);
#351 = CARTESIAN_POINT('',(-0.7,-0.6,0.405));
#352 = VECTOR('',#353,1.);
#353 = DIRECTION('',(1.,0.,0.));
#354 = ORIENTED_EDGE('',*,*,#355,.T.);
#355 = EDGE_CURVE('',#348,#356,#358,.T.);
#356 = VERTEX_POINT('',#357);
#357 = CARTESIAN_POINT('',(0.955,-0.6,0.405));
#358 = LINE('',#359,#360);
#359 = CARTESIAN_POINT('',(-0.955,-0.6,0.405));
#360 = VECTOR('',#361,1.);
#361 = DIRECTION('',(1.,0.,0.));
#362 = ORIENTED_EDGE('',*,*,#363,.F.);
#363 = EDGE_CURVE('',#364,#356,#366,.T.);
#364 = VERTEX_POINT('',#365);
#365 = CARTESIAN_POINT('',(0.955,-0.6,4.5E-02));
#366 = LINE('',#367,#368);
#367 = CARTESIAN_POINT('',(0.955,-0.6,4.5E-02));
#368 = VECTOR('',#369,1.);
#369 = DIRECTION('',(0.,0.,1.));
#370 = ORIENTED_EDGE('',*,*,#371,.F.);
#371 = EDGE_CURVE('',#372,#364,#374,.T.);
#372 = VERTEX_POINT('',#373);
#373 = CARTESIAN_POINT('',(0.7,-0.6,4.5E-02));
#374 = LINE('',#375,#376);
#375 = CARTESIAN_POINT('',(-0.955,-0.6,4.5E-02));
#376 = VECTOR('',#377,1.);
#377 = DIRECTION('',(1.,0.,0.));
#378 = ORIENTED_EDGE('',*,*,#379,.F.);
#379 = EDGE_CURVE('',#171,#372,#380,.T.);
#380 = LINE('',#381,#382);
#381 = CARTESIAN_POINT('',(-0.955,-0.6,4.5E-02));
#382 = VECTOR('',#383,1.);
#383 = DIRECTION('',(1.,0.,0.));
#384 = PLANE('',#385);
#385 = AXIS2_PLACEMENT_3D('',#386,#387,#388);
#386 = CARTESIAN_POINT('',(-0.955,-0.6,4.5E-02));
#387 = DIRECTION('',(0.,1.,0.));
#388 = DIRECTION('',(0.,-0.,1.));
#389 = ADVANCED_FACE('',(#390),#401,.T.);
#390 = FACE_BOUND('',#391,.T.);
#391 = EDGE_LOOP('',(#392,#393,#394,#395));
#392 = ORIENTED_EDGE('',*,*,#254,.F.);
#393 = ORIENTED_EDGE('',*,*,#219,.F.);
#394 = ORIENTED_EDGE('',*,*,#137,.T.);
#395 = ORIENTED_EDGE('',*,*,#396,.T.);
#396 = EDGE_CURVE('',#138,#255,#397,.T.);
#397 = LINE('',#398,#399);
#398 = CARTESIAN_POINT('',(-0.745,-0.6,0.45));
#399 = VECTOR('',#400,1.);
#400 = DIRECTION('',(0.,1.,0.));
#401 = PLANE('',#402);
#402 = AXIS2_PLACEMENT_3D('',#403,#404,#405);
#403 = CARTESIAN_POINT('',(-1.,-0.6,0.45));
#404 = DIRECTION('',(0.,0.,1.));
#405 = DIRECTION('',(1.,0.,-0.));
#406 = ADVANCED_FACE('',(#407),#418,.T.);
#407 = FACE_BOUND('',#408,.T.);
#408 = EDGE_LOOP('',(#409,#415,#416,#417));
#409 = ORIENTED_EDGE('',*,*,#410,.T.);
#410 = EDGE_CURVE('',#146,#263,#411,.T.);
#411 = LINE('',#412,#413);
#412 = CARTESIAN_POINT('',(-0.7,-0.6,0.405));
#413 = VECTOR('',#414,1.);
#414 = DIRECTION('',(0.,1.,0.));
#415 = ORIENTED_EDGE('',*,*,#262,.T.);
#416 = ORIENTED_EDGE('',*,*,#396,.F.);
#417 = ORIENTED_EDGE('',*,*,#145,.F.);
#418 = CYLINDRICAL_SURFACE('',#419,4.5E-02);
#419 = AXIS2_PLACEMENT_3D('',#420,#421,#422);
#420 = CARTESIAN_POINT('',(-0.745,-0.6,0.405));
#421 = DIRECTION('',(0.,1.,0.));
#422 = DIRECTION('',(1.,0.,0.));
#423 = ADVANCED_FACE('',(#424),#467,.T.);
#424 = FACE_BOUND('',#425,.T.);
#425 = EDGE_LOOP('',(#426,#427,#428,#429,#437,#445,#453,#461));
#426 = ORIENTED_EDGE('',*,*,#287,.F.);
#427 = ORIENTED_EDGE('',*,*,#279,.T.);
#428 = ORIENTED_EDGE('',*,*,#271,.T.);
#429 = ORIENTED_EDGE('',*,*,#430,.T.);
#430 = EDGE_CURVE('',#263,#431,#433,.T.);
#431 = VERTEX_POINT('',#432);
#432 = CARTESIAN_POINT('',(0.7,0.6,0.405));
#433 = LINE('',#434,#435);
#434 = CARTESIAN_POINT('',(-0.7,0.6,0.405));
#435 = VECTOR('',#436,1.);
#436 = DIRECTION('',(1.,0.,0.));
#437 = ORIENTED_EDGE('',*,*,#438,.T.);
#438 = EDGE_CURVE('',#431,#439,#441,.T.);
#439 = VERTEX_POINT('',#440);
#440 = CARTESIAN_POINT('',(0.955,0.6,0.405));
#441 = LINE('',#442,#443);
#442 = CARTESIAN_POINT('',(-0.955,0.6,0.405));
#443 = VECTOR('',#444,1.);
#444 = DIRECTION('',(1.,0.,0.));
#445 = ORIENTED_EDGE('',*,*,#446,.F.);
#446 = EDGE_CURVE('',#447,#439,#449,.T.);
#447 = VERTEX_POINT('',#448);
#448 = CARTESIAN_POINT('',(0.955,0.6,4.5E-02));
#449 = LINE('',#450,#451);
#450 = CARTESIAN_POINT('',(0.955,0.6,4.5E-02));
#451 = VECTOR('',#452,1.);
#452 = DIRECTION('',(0.,0.,1.));
#453 = ORIENTED_EDGE('',*,*,#454,.F.);
#454 = EDGE_CURVE('',#455,#447,#457,.T.);
#455 = VERTEX_POINT('',#456);
#456 = CARTESIAN_POINT('',(0.7,0.6,4.5E-02));
#457 = LINE('',#458,#459);
#458 = CARTESIAN_POINT('',(-0.955,0.6,4.5E-02));
#459 = VECTOR('',#460,1.);
#460 = DIRECTION('',(1.,0.,0.));
#461 = ORIENTED_EDGE('',*,*,#462,.F.);
#462 = EDGE_CURVE('',#288,#455,#463,.T.);
#463 = LINE('',#464,#465);
#464 = CARTESIAN_POINT('',(-0.955,0.6,4.5E-02));
#465 = VECTOR('',#466,1.);
#466 = DIRECTION('',(1.,0.,0.));
#467 = PLANE('',#468);
#468 = AXIS2_PLACEMENT_3D('',#469,#470,#471);
#469 = CARTESIAN_POINT('',(-0.955,0.6,4.5E-02));
#470 = DIRECTION('',(0.,1.,0.));
#471 = DIRECTION('',(0.,-0.,1.));
#472 = ADVANCED_FACE('',(#473),#484,.F.);
#473 = FACE_BOUND('',#474,.F.);
#474 = EDGE_LOOP('',(#475,#476,#477,#483));
#475 = ORIENTED_EDGE('',*,*,#330,.F.);
#476 = ORIENTED_EDGE('',*,*,#379,.T.);
#477 = ORIENTED_EDGE('',*,*,#478,.T.);
#478 = EDGE_CURVE('',#372,#455,#479,.T.);
#479 = LINE('',#480,#481);
#480 = CARTESIAN_POINT('',(0.7,-0.6,4.5E-02));
#481 = VECTOR('',#482,1.);
#482 = DIRECTION('',(0.,1.,0.));
#483 = ORIENTED_EDGE('',*,*,#462,.F.);
#484 = PLANE('',#485);
#485 = AXIS2_PLACEMENT_3D('',#486,#487,#488);
#486 = CARTESIAN_POINT('',(-0.955,-0.6,4.5E-02));
#487 = DIRECTION('',(0.,0.,1.));
#488 = DIRECTION('',(1.,0.,-0.));
#489 = ADVANCED_FACE('',(#490),#553,.F.);
#490 = FACE_BOUND('',#491,.F.);
#491 = EDGE_LOOP('',(#492,#502,#509,#510,#511,#512,#521,#529,#538,#546)
  );
#492 = ORIENTED_EDGE('',*,*,#493,.F.);
#493 = EDGE_CURVE('',#494,#496,#498,.T.);
#494 = VERTEX_POINT('',#495);
#495 = CARTESIAN_POINT('',(0.745,-0.6,-2.775557561563E-17));
#496 = VERTEX_POINT('',#497);
#497 = CARTESIAN_POINT('',(0.955,-0.6,-2.775557561563E-17));
#498 = LINE('',#499,#500);
#499 = CARTESIAN_POINT('',(0.7,-0.6,0.));
#500 = VECTOR('',#501,1.);
#501 = DIRECTION('',(1.,0.,0.));
#502 = ORIENTED_EDGE('',*,*,#503,.F.);
#503 = EDGE_CURVE('',#372,#494,#504,.T.);
#504 = CIRCLE('',#505,4.5E-02);
#505 = AXIS2_PLACEMENT_3D('',#506,#507,#508);
#506 = CARTESIAN_POINT('',(0.745,-0.6,4.5E-02));
#507 = DIRECTION('',(0.,-1.,0.));
#508 = DIRECTION('',(0.,0.,1.));
#509 = ORIENTED_EDGE('',*,*,#371,.T.);
#510 = ORIENTED_EDGE('',*,*,#363,.T.);
#511 = ORIENTED_EDGE('',*,*,#355,.F.);
#512 = ORIENTED_EDGE('',*,*,#513,.T.);
#513 = EDGE_CURVE('',#348,#514,#516,.T.);
#514 = VERTEX_POINT('',#515);
#515 = CARTESIAN_POINT('',(0.745,-0.6,0.45));
#516 = CIRCLE('',#517,4.5E-02);
#517 = AXIS2_PLACEMENT_3D('',#518,#519,#520);
#518 = CARTESIAN_POINT('',(0.745,-0.6,0.405));
#519 = DIRECTION('',(0.,1.,0.));
#520 = DIRECTION('',(0.,-0.,1.));
#521 = ORIENTED_EDGE('',*,*,#522,.T.);
#522 = EDGE_CURVE('',#514,#523,#525,.T.);
#523 = VERTEX_POINT('',#524);
#524 = CARTESIAN_POINT('',(0.955,-0.6,0.45));
#525 = LINE('',#526,#527);
#526 = CARTESIAN_POINT('',(0.7,-0.6,0.45));
#527 = VECTOR('',#528,1.);
#528 = DIRECTION('',(1.,0.,0.));
#529 = ORIENTED_EDGE('',*,*,#530,.F.);
#530 = EDGE_CURVE('',#531,#523,#533,.T.);
#531 = VERTEX_POINT('',#532);
#532 = CARTESIAN_POINT('',(1.,-0.6,0.405));
#533 = CIRCLE('',#534,4.5E-02);
#534 = AXIS2_PLACEMENT_3D('',#535,#536,#537);
#535 = CARTESIAN_POINT('',(0.955,-0.6,0.405));
#536 = DIRECTION('',(0.,-1.,0.));
#537 = DIRECTION('',(0.,0.,1.));
#538 = ORIENTED_EDGE('',*,*,#539,.F.);
#539 = EDGE_CURVE('',#540,#531,#542,.T.);
#540 = VERTEX_POINT('',#541);
#541 = CARTESIAN_POINT('',(1.,-0.6,4.5E-02));
#542 = LINE('',#543,#544);
#543 = CARTESIAN_POINT('',(1.,-0.6,0.));
#544 = VECTOR('',#545,1.);
#545 = DIRECTION('',(0.,0.,1.));
#546 = ORIENTED_EDGE('',*,*,#547,.T.);
#547 = EDGE_CURVE('',#540,#496,#548,.T.);
#548 = CIRCLE('',#549,4.5E-02);
#549 = AXIS2_PLACEMENT_3D('',#550,#551,#552);
#550 = CARTESIAN_POINT('',(0.955,-0.6,4.5E-02));
#551 = DIRECTION('',(0.,1.,0.));
#552 = DIRECTION('',(0.,-0.,1.));
#553 = PLANE('',#554);
#554 = AXIS2_PLACEMENT_3D('',#555,#556,#557);
#555 = CARTESIAN_POINT('',(0.7,-0.6,0.));
#556 = DIRECTION('',(0.,1.,0.));
#557 = DIRECTION('',(0.,-0.,1.));
#558 = ADVANCED_FACE('',(#559),#584,.F.);
#559 = FACE_BOUND('',#560,.F.);
#560 = EDGE_LOOP('',(#561,#562,#570,#578));
#561 = ORIENTED_EDGE('',*,*,#347,.F.);
#562 = ORIENTED_EDGE('',*,*,#563,.T.);
#563 = EDGE_CURVE('',#146,#564,#566,.T.);
#564 = VERTEX_POINT('',#565);
#565 = CARTESIAN_POINT('',(-0.7,-0.6,0.45));
#566 = LINE('',#567,#568);
#567 = CARTESIAN_POINT('',(-0.7,-0.6,0.405));
#568 = VECTOR('',#569,1.);
#569 = DIRECTION('',(0.,0.,1.));
#570 = ORIENTED_EDGE('',*,*,#571,.T.);
#571 = EDGE_CURVE('',#564,#572,#574,.T.);
#572 = VERTEX_POINT('',#573);
#573 = CARTESIAN_POINT('',(0.7,-0.6,0.45));
#574 = LINE('',#575,#576);
#575 = CARTESIAN_POINT('',(-0.7,-0.6,0.45));
#576 = VECTOR('',#577,1.);
#577 = DIRECTION('',(1.,0.,0.));
#578 = ORIENTED_EDGE('',*,*,#579,.F.);
#579 = EDGE_CURVE('',#348,#572,#580,.T.);
#580 = LINE('',#581,#582);
#581 = CARTESIAN_POINT('',(0.7,-0.6,0.405));
#582 = VECTOR('',#583,1.);
#583 = DIRECTION('',(0.,0.,1.));
#584 = PLANE('',#585);
#585 = AXIS2_PLACEMENT_3D('',#586,#587,#588);
#586 = CARTESIAN_POINT('',(-0.7,-0.6,0.405));
#587 = DIRECTION('',(0.,1.,0.));
#588 = DIRECTION('',(0.,-0.,1.));
#589 = ADVANCED_FACE('',(#590),#608,.F.);
#590 = FACE_BOUND('',#591,.F.);
#591 = EDGE_LOOP('',(#592,#593,#594,#602));
#592 = ORIENTED_EDGE('',*,*,#563,.F.);
#593 = ORIENTED_EDGE('',*,*,#410,.T.);
#594 = ORIENTED_EDGE('',*,*,#595,.T.);
#595 = EDGE_CURVE('',#263,#596,#598,.T.);
#596 = VERTEX_POINT('',#597);
#597 = CARTESIAN_POINT('',(-0.7,0.6,0.45));
#598 = LINE('',#599,#600);
#599 = CARTESIAN_POINT('',(-0.7,0.6,0.405));
#600 = VECTOR('',#601,1.);
#601 = DIRECTION('',(0.,0.,1.));
#602 = ORIENTED_EDGE('',*,*,#603,.F.);
#603 = EDGE_CURVE('',#564,#596,#604,.T.);
#604 = LINE('',#605,#606);
#605 = CARTESIAN_POINT('',(-0.7,-0.6,0.45));
#606 = VECTOR('',#607,1.);
#607 = DIRECTION('',(0.,1.,0.));
#608 = PLANE('',#609);
#609 = AXIS2_PLACEMENT_3D('',#610,#611,#612);
#610 = CARTESIAN_POINT('',(-0.7,-0.6,0.405));
#611 = DIRECTION('',(1.,0.,0.));
#612 = DIRECTION('',(0.,0.,1.));
#613 = ADVANCED_FACE('',(#614),#677,.T.);
#614 = FACE_BOUND('',#615,.T.);
#615 = EDGE_LOOP('',(#616,#626,#633,#634,#635,#636,#645,#653,#662,#670)
  );
#616 = ORIENTED_EDGE('',*,*,#617,.F.);
#617 = EDGE_CURVE('',#618,#620,#622,.T.);
#618 = VERTEX_POINT('',#619);
#619 = CARTESIAN_POINT('',(0.745,0.6,-2.775557561563E-17));
#620 = VERTEX_POINT('',#621);
#621 = CARTESIAN_POINT('',(0.955,0.6,-2.775557561563E-17));
#622 = LINE('',#623,#624);
#623 = CARTESIAN_POINT('',(0.7,0.6,0.));
#624 = VECTOR('',#625,1.);
#625 = DIRECTION('',(1.,0.,0.));
#626 = ORIENTED_EDGE('',*,*,#627,.F.);
#627 = EDGE_CURVE('',#455,#618,#628,.T.);
#628 = CIRCLE('',#629,4.5E-02);
#629 = AXIS2_PLACEMENT_3D('',#630,#631,#632);
#630 = CARTESIAN_POINT('',(0.745,0.6,4.5E-02));
#631 = DIRECTION('',(0.,-1.,0.));
#632 = DIRECTION('',(0.,0.,1.));
#633 = ORIENTED_EDGE('',*,*,#454,.T.);
#634 = ORIENTED_EDGE('',*,*,#446,.T.);
#635 = ORIENTED_EDGE('',*,*,#438,.F.);
#636 = ORIENTED_EDGE('',*,*,#637,.T.);
#637 = EDGE_CURVE('',#431,#638,#640,.T.);
#638 = VERTEX_POINT('',#639);
#639 = CARTESIAN_POINT('',(0.745,0.6,0.45));
#640 = CIRCLE('',#641,4.5E-02);
#641 = AXIS2_PLACEMENT_3D('',#642,#643,#644);
#642 = CARTESIAN_POINT('',(0.745,0.6,0.405));
#643 = DIRECTION('',(0.,1.,0.));
#644 = DIRECTION('',(0.,-0.,1.));
#645 = ORIENTED_EDGE('',*,*,#646,.T.);
#646 = EDGE_CURVE('',#638,#647,#649,.T.);
#647 = VERTEX_POINT('',#648);
#648 = CARTESIAN_POINT('',(0.955,0.6,0.45));
#649 = LINE('',#650,#651);
#650 = CARTESIAN_POINT('',(0.7,0.6,0.45));
#651 = VECTOR('',#652,1.);
#652 = DIRECTION('',(1.,0.,0.));
#653 = ORIENTED_EDGE('',*,*,#654,.F.);
#654 = EDGE_CURVE('',#655,#647,#657,.T.);
#655 = VERTEX_POINT('',#656);
#656 = CARTESIAN_POINT('',(1.,0.6,0.405));
#657 = CIRCLE('',#658,4.5E-02);
#658 = AXIS2_PLACEMENT_3D('',#659,#660,#661);
#659 = CARTESIAN_POINT('',(0.955,0.6,0.405));
#660 = DIRECTION('',(0.,-1.,0.));
#661 = DIRECTION('',(0.,0.,1.));
#662 = ORIENTED_EDGE('',*,*,#663,.F.);
#663 = EDGE_CURVE('',#664,#655,#666,.T.);
#664 = VERTEX_POINT('',#665);
#665 = CARTESIAN_POINT('',(1.,0.6,4.5E-02));
#666 = LINE('',#667,#668);
#667 = CARTESIAN_POINT('',(1.,0.6,0.));
#668 = VECTOR('',#669,1.);
#669 = DIRECTION('',(0.,0.,1.));
#670 = ORIENTED_EDGE('',*,*,#671,.T.);
#671 = EDGE_CURVE('',#664,#620,#672,.T.);
#672 = CIRCLE('',#673,4.5E-02);
#673 = AXIS2_PLACEMENT_3D('',#674,#675,#676);
#674 = CARTESIAN_POINT('',(0.955,0.6,4.5E-02));
#675 = DIRECTION('',(0.,1.,0.));
#676 = DIRECTION('',(0.,-0.,1.));
#677 = PLANE('',#678);
#678 = AXIS2_PLACEMENT_3D('',#679,#680,#681);
#679 = CARTESIAN_POINT('',(0.7,0.6,0.));
#680 = DIRECTION('',(0.,1.,0.));
#681 = DIRECTION('',(0.,-0.,1.));
#682 = ADVANCED_FACE('',(#683),#701,.T.);
#683 = FACE_BOUND('',#684,.T.);
#684 = EDGE_LOOP('',(#685,#686,#687,#695));
#685 = ORIENTED_EDGE('',*,*,#430,.F.);
#686 = ORIENTED_EDGE('',*,*,#595,.T.);
#687 = ORIENTED_EDGE('',*,*,#688,.T.);
#688 = EDGE_CURVE('',#596,#689,#691,.T.);
#689 = VERTEX_POINT('',#690);
#690 = CARTESIAN_POINT('',(0.7,0.6,0.45));
#691 = LINE('',#692,#693);
#692 = CARTESIAN_POINT('',(-0.7,0.6,0.45));
#693 = VECTOR('',#694,1.);
#694 = DIRECTION('',(1.,0.,0.));
#695 = ORIENTED_EDGE('',*,*,#696,.F.);
#696 = EDGE_CURVE('',#431,#689,#697,.T.);
#697 = LINE('',#698,#699);
#698 = CARTESIAN_POINT('',(0.7,0.6,0.405));
#699 = VECTOR('',#700,1.);
#700 = DIRECTION('',(0.,0.,1.));
#701 = PLANE('',#702);
#702 = AXIS2_PLACEMENT_3D('',#703,#704,#705);
#703 = CARTESIAN_POINT('',(-0.7,0.6,0.405));
#704 = DIRECTION('',(0.,1.,0.));
#705 = DIRECTION('',(0.,-0.,1.));
#706 = ADVANCED_FACE('',(#707),#718,.T.);
#707 = FACE_BOUND('',#708,.T.);
#708 = EDGE_LOOP('',(#709,#710,#711,#717));
#709 = ORIENTED_EDGE('',*,*,#478,.T.);
#710 = ORIENTED_EDGE('',*,*,#627,.T.);
#711 = ORIENTED_EDGE('',*,*,#712,.F.);
#712 = EDGE_CURVE('',#494,#618,#713,.T.);
#713 = LINE('',#714,#715);
#714 = CARTESIAN_POINT('',(0.745,-0.6,-2.775557561563E-17));
#715 = VECTOR('',#716,1.);
#716 = DIRECTION('',(0.,1.,0.));
#717 = ORIENTED_EDGE('',*,*,#503,.F.);
#718 = CYLINDRICAL_SURFACE('',#719,4.5E-02);
#719 = AXIS2_PLACEMENT_3D('',#720,#721,#722);
#720 = CARTESIAN_POINT('',(0.745,-0.6,4.5E-02));
#721 = DIRECTION('',(0.,1.,0.));
#722 = DIRECTION('',(-1.,0.,0.));
#723 = ADVANCED_FACE('',(#724),#735,.F.);
#724 = FACE_BOUND('',#725,.F.);
#725 = EDGE_LOOP('',(#726,#727,#728,#729));
#726 = ORIENTED_EDGE('',*,*,#617,.F.);
#727 = ORIENTED_EDGE('',*,*,#712,.F.);
#728 = ORIENTED_EDGE('',*,*,#493,.T.);
#729 = ORIENTED_EDGE('',*,*,#730,.T.);
#730 = EDGE_CURVE('',#496,#620,#731,.T.);
#731 = LINE('',#732,#733);
#732 = CARTESIAN_POINT('',(0.955,-0.6,-2.775557561563E-17));
#733 = VECTOR('',#734,1.);
#734 = DIRECTION('',(0.,1.,0.));
#735 = PLANE('',#736);
#736 = AXIS2_PLACEMENT_3D('',#737,#738,#739);
#737 = CARTESIAN_POINT('',(0.7,-0.6,0.));
#738 = DIRECTION('',(0.,0.,1.));
#739 = DIRECTION('',(1.,0.,-0.));
#740 = ADVANCED_FACE('',(#741),#752,.T.);
#741 = FACE_BOUND('',#742,.T.);
#742 = EDGE_LOOP('',(#743,#744,#745,#746));
#743 = ORIENTED_EDGE('',*,*,#547,.T.);
#744 = ORIENTED_EDGE('',*,*,#730,.T.);
#745 = ORIENTED_EDGE('',*,*,#671,.F.);
#746 = ORIENTED_EDGE('',*,*,#747,.F.);
#747 = EDGE_CURVE('',#540,#664,#748,.T.);
#748 = LINE('',#749,#750);
#749 = CARTESIAN_POINT('',(1.,-0.6,4.5E-02));
#750 = VECTOR('',#751,1.);
#751 = DIRECTION('',(0.,1.,0.));
#752 = CYLINDRICAL_SURFACE('',#753,4.5E-02);
#753 = AXIS2_PLACEMENT_3D('',#754,#755,#756);
#754 = CARTESIAN_POINT('',(0.955,-0.6,4.5E-02));
#755 = DIRECTION('',(0.,1.,0.));
#756 = DIRECTION('',(1.,0.,0.));
#757 = ADVANCED_FACE('',(#758),#769,.T.);
#758 = FACE_BOUND('',#759,.T.);
#759 = EDGE_LOOP('',(#760,#761,#762,#763));
#760 = ORIENTED_EDGE('',*,*,#539,.F.);
#761 = ORIENTED_EDGE('',*,*,#747,.T.);
#762 = ORIENTED_EDGE('',*,*,#663,.T.);
#763 = ORIENTED_EDGE('',*,*,#764,.F.);
#764 = EDGE_CURVE('',#531,#655,#765,.T.);
#765 = LINE('',#766,#767);
#766 = CARTESIAN_POINT('',(1.,-0.6,0.405));
#767 = VECTOR('',#768,1.);
#768 = DIRECTION('',(0.,1.,0.));
#769 = PLANE('',#770);
#770 = AXIS2_PLACEMENT_3D('',#771,#772,#773);
#771 = CARTESIAN_POINT('',(1.,-0.6,0.));
#772 = DIRECTION('',(1.,0.,0.));
#773 = DIRECTION('',(0.,0.,1.));
#774 = ADVANCED_FACE('',(#775),#786,.T.);
#775 = FACE_BOUND('',#776,.T.);
#776 = EDGE_LOOP('',(#777,#778,#779,#785));
#777 = ORIENTED_EDGE('',*,*,#764,.T.);
#778 = ORIENTED_EDGE('',*,*,#654,.T.);
#779 = ORIENTED_EDGE('',*,*,#780,.F.);
#780 = EDGE_CURVE('',#523,#647,#781,.T.);
#781 = LINE('',#782,#783);
#782 = CARTESIAN_POINT('',(0.955,-0.6,0.45));
#783 = VECTOR('',#784,1.);
#784 = DIRECTION('',(0.,1.,0.));
#785 = ORIENTED_EDGE('',*,*,#530,.F.);
#786 = CYLINDRICAL_SURFACE('',#787,4.5E-02);
#787 = AXIS2_PLACEMENT_3D('',#788,#789,#790);
#788 = CARTESIAN_POINT('',(0.955,-0.6,0.405));
#789 = DIRECTION('',(0.,1.,0.));
#790 = DIRECTION('',(1.,0.,0.));
#791 = ADVANCED_FACE('',(#792),#803,.T.);
#792 = FACE_BOUND('',#793,.T.);
#793 = EDGE_LOOP('',(#794,#795,#801,#802));
#794 = ORIENTED_EDGE('',*,*,#646,.F.);
#795 = ORIENTED_EDGE('',*,*,#796,.F.);
#796 = EDGE_CURVE('',#514,#638,#797,.T.);
#797 = LINE('',#798,#799);
#798 = CARTESIAN_POINT('',(0.745,-0.6,0.45));
#799 = VECTOR('',#800,1.);
#800 = DIRECTION('',(0.,1.,0.));
#801 = ORIENTED_EDGE('',*,*,#522,.T.);
#802 = ORIENTED_EDGE('',*,*,#780,.T.);
#803 = PLANE('',#804);
#804 = AXIS2_PLACEMENT_3D('',#805,#806,#807);
#805 = CARTESIAN_POINT('',(0.7,-0.6,0.45));
#806 = DIRECTION('',(0.,0.,1.));
#807 = DIRECTION('',(1.,0.,-0.));
#808 = ADVANCED_FACE('',(#809),#820,.T.);
#809 = FACE_BOUND('',#810,.T.);
#810 = EDGE_LOOP('',(#811,#812,#813,#814));
#811 = ORIENTED_EDGE('',*,*,#513,.T.);
#812 = ORIENTED_EDGE('',*,*,#796,.T.);
#813 = ORIENTED_EDGE('',*,*,#637,.F.);
#814 = ORIENTED_EDGE('',*,*,#815,.F.);
#815 = EDGE_CURVE('',#348,#431,#816,.T.);
#816 = LINE('',#817,#818);
#817 = CARTESIAN_POINT('',(0.7,-0.6,0.405));
#818 = VECTOR('',#819,1.);
#819 = DIRECTION('',(0.,1.,0.));
#820 = CYLINDRICAL_SURFACE('',#821,4.5E-02);
#821 = AXIS2_PLACEMENT_3D('',#822,#823,#824);
#822 = CARTESIAN_POINT('',(0.745,-0.6,0.405));
#823 = DIRECTION('',(0.,1.,0.));
#824 = DIRECTION('',(-1.,0.,0.));
#825 = ADVANCED_FACE('',(#826),#837,.T.);
#826 = FACE_BOUND('',#827,.T.);
#827 = EDGE_LOOP('',(#828,#829,#830,#831));
#828 = ORIENTED_EDGE('',*,*,#579,.F.);
#829 = ORIENTED_EDGE('',*,*,#815,.T.);
#830 = ORIENTED_EDGE('',*,*,#696,.T.);
#831 = ORIENTED_EDGE('',*,*,#832,.F.);
#832 = EDGE_CURVE('',#572,#689,#833,.T.);
#833 = LINE('',#834,#835);
#834 = CARTESIAN_POINT('',(0.7,-0.6,0.45));
#835 = VECTOR('',#836,1.);
#836 = DIRECTION('',(0.,1.,0.));
#837 = PLANE('',#838);
#838 = AXIS2_PLACEMENT_3D('',#839,#840,#841);
#839 = CARTESIAN_POINT('',(0.7,-0.6,0.405));
#840 = DIRECTION('',(1.,0.,0.));
#841 = DIRECTION('',(0.,0.,1.));
#842 = ADVANCED_FACE('',(#843),#849,.T.);
#843 = FACE_BOUND('',#844,.T.);
#844 = EDGE_LOOP('',(#845,#846,#847,#848));
#845 = ORIENTED_EDGE('',*,*,#603,.F.);
#846 = ORIENTED_EDGE('',*,*,#571,.T.);
#847 = ORIENTED_EDGE('',*,*,#832,.T.);
#848 = ORIENTED_EDGE('',*,*,#688,.F.);
#849 = PLANE('',#850);
#850 = AXIS2_PLACEMENT_3D('',#851,#852,#853);
#851 = CARTESIAN_POINT('',(-0.7,-0.6,0.45));
#852 = DIRECTION('',(0.,0.,1.));
#853 = DIRECTION('',(1.,0.,-0.));
#854 = ( GEOMETRIC_REPRESENTATION_CONTEXT(3) 
GLOBAL_UNCERTAINTY_ASSIGNED_CONTEXT((#858)) GLOBAL_UNIT_ASSIGNED_CONTEXT
((#855,#856,#857)) REPRESENTATION_CONTEXT('Context #1',
  '3D Context with UNIT and UNCERTAINTY') );
#855 = ( LENGTH_UNIT() NAMED_UNIT(*) SI_UNIT(.MILLI.,.METRE.) );
#856 = ( NAMED_UNIT(*) PLANE_ANGLE_UNIT() SI_UNIT($,.RADIAN.) );
#857 = ( NAMED_UNIT(*) SI_UNIT($,.STERADIAN.) SOLID_ANGLE_UNIT() );
#858 = UNCERTAINTY_MEASURE_WITH_UNIT(LENGTH_MEASURE(1.E-07),#855,
  'distance_accuracy_value','confusion accuracy');
#859 = CONTEXT_DEPENDENT_SHAPE_REPRESENTATION(#860,#862);
#860 = ( REPRESENTATION_RELATIONSHIP('','',#63,#40) 
REPRESENTATION_RELATIONSHIP_WITH_TRANSFORMATION(#861) 
SHAPE_REPRESENTATION_RELATIONSHIP() );
#861 = ITEM_DEFINED_TRANSFORMATION('','',#11,#41);
#862 = PRODUCT_DEFINITION_SHAPE('Placement','Placement of an item',#863
  );
#863 = NEXT_ASSEMBLY_USAGE_OCCURRENCE('1','=>[0:1:1:3]','',#35,#58,$);
#864 = PRODUCT_RELATED_PRODUCT_CATEGORY('part',$,(#60));
#865 = SHAPE_DEFINITION_REPRESENTATION(#866,#872);
#866 = PRODUCT_DEFINITION_SHAPE('','',#867);
#867 = PRODUCT_DEFINITION('design','',#868,#871);
#868 = PRODUCT_DEFINITION_FORMATION('','',#869);
#869 = PRODUCT('electronic_resistor_0805_18_ohm_render_pad',
  'electronic_resistor_0805_18_ohm_render_pad','',(#870));
#870 = PRODUCT_CONTEXT('',#2,'mechanical');
#871 = PRODUCT_DEFINITION_CONTEXT('part definition',#2,'design');
#872 = SHAPE_REPRESENTATION('',(#11,#873,#1163),#1453);
#873 = MANIFOLD_SOLID_BREP('',#874);
#874 = CLOSED_SHELL('',(#875,#917,#948,#981,#1012,#1045,#1076,#1109,
    #1131,#1147));
#875 = ADVANCED_FACE('',(#876),#912,.T.);
#876 = FACE_BOUND('',#877,.T.);
#877 = EDGE_LOOP('',(#878,#888,#897,#905));
#878 = ORIENTED_EDGE('',*,*,#879,.T.);
#879 = EDGE_CURVE('',#880,#882,#884,.T.);
#880 = VERTEX_POINT('',#881);
#881 = CARTESIAN_POINT('',(-1.425,0.45,1.51));
#882 = VERTEX_POINT('',#883);
#883 = CARTESIAN_POINT('',(-1.425,0.45,1.55));
#884 = LINE('',#885,#886);
#885 = CARTESIAN_POINT('',(-1.425,0.45,1.51));
#886 = VECTOR('',#887,1.);
#887 = DIRECTION('',(0.,0.,1.));
#888 = ORIENTED_EDGE('',*,*,#889,.T.);
#889 = EDGE_CURVE('',#882,#890,#892,.T.);
#890 = VERTEX_POINT('',#891);
#891 = CARTESIAN_POINT('',(-1.175,0.7,1.55));
#892 = CIRCLE('',#893,0.249998959685);
#893 = AXIS2_PLACEMENT_3D('',#894,#895,#896);
#894 = CARTESIAN_POINT('',(-1.175001040317,0.450001040317,1.55));
#895 = DIRECTION('',(0.,0.,-1.));
#896 = DIRECTION('',(-0.999999999991,-4.161285833292E-06,-0.));
#897 = ORIENTED_EDGE('',*,*,#898,.F.);
#898 = EDGE_CURVE('',#899,#890,#901,.T.);
#899 = VERTEX_POINT('',#900);
#900 = CARTESIAN_POINT('',(-1.175,0.7,1.51));
#901 = LINE('',#902,#903);
#902 = CARTESIAN_POINT('',(-1.175,0.7,1.51));
#903 = VECTOR('',#904,1.);
#904 = DIRECTION('',(0.,0.,1.));
#905 = ORIENTED_EDGE('',*,*,#906,.F.);
#906 = EDGE_CURVE('',#880,#899,#907,.T.);
#907 = CIRCLE('',#908,0.249998959685);
#908 = AXIS2_PLACEMENT_3D('',#909,#910,#911);
#909 = CARTESIAN_POINT('',(-1.175001040317,0.450001040317,1.51));
#910 = DIRECTION('',(0.,0.,-1.));
#911 = DIRECTION('',(-0.999999999991,-4.161285833292E-06,-0.));
#912 = CYLINDRICAL_SURFACE('',#913,0.249998959685);
#913 = AXIS2_PLACEMENT_3D('',#914,#915,#916);
#914 = CARTESIAN_POINT('',(-1.175001040317,0.450001040317,1.51));
#915 = DIRECTION('',(0.,0.,-1.));
#916 = DIRECTION('',(-0.999999999991,-4.161285833292E-06,-0.));
#917 = ADVANCED_FACE('',(#918),#943,.T.);
#918 = FACE_BOUND('',#919,.T.);
#919 = EDGE_LOOP('',(#920,#921,#929,#937));
#920 = ORIENTED_EDGE('',*,*,#898,.T.);
#921 = ORIENTED_EDGE('',*,*,#922,.T.);
#922 = EDGE_CURVE('',#890,#923,#925,.T.);
#923 = VERTEX_POINT('',#924);
#924 = CARTESIAN_POINT('',(-0.65,0.7,1.55));
#925 = LINE('',#926,#927);
#926 = CARTESIAN_POINT('',(-1.175,0.7,1.55));
#927 = VECTOR('',#928,1.);
#928 = DIRECTION('',(1.,0.,0.));
#929 = ORIENTED_EDGE('',*,*,#930,.F.);
#930 = EDGE_CURVE('',#931,#923,#933,.T.);
#931 = VERTEX_POINT('',#932);
#932 = CARTESIAN_POINT('',(-0.65,0.7,1.51));
#933 = LINE('',#934,#935);
#934 = CARTESIAN_POINT('',(-0.65,0.7,1.51));
#935 = VECTOR('',#936,1.);
#936 = DIRECTION('',(0.,0.,1.));
#937 = ORIENTED_EDGE('',*,*,#938,.F.);
#938 = EDGE_CURVE('',#899,#931,#939,.T.);
#939 = LINE('',#940,#941);
#940 = CARTESIAN_POINT('',(-1.175,0.7,1.51));
#941 = VECTOR('',#942,1.);
#942 = DIRECTION('',(1.,0.,0.));
#943 = PLANE('',#944);
#944 = AXIS2_PLACEMENT_3D('',#945,#946,#947);
#945 = CARTESIAN_POINT('',(-1.175,0.7,1.51));
#946 = DIRECTION('',(0.,1.,0.));
#947 = DIRECTION('',(1.,0.,0.));
#948 = ADVANCED_FACE('',(#949),#976,.T.);
#949 = FACE_BOUND('',#950,.T.);
#950 = EDGE_LOOP('',(#951,#952,#961,#969));
#951 = ORIENTED_EDGE('',*,*,#930,.T.);
#952 = ORIENTED_EDGE('',*,*,#953,.T.);
#953 = EDGE_CURVE('',#923,#954,#956,.T.);
#954 = VERTEX_POINT('',#955);
#955 = CARTESIAN_POINT('',(-0.4,0.45,1.55));
#956 = CIRCLE('',#957,0.249998959685);
#957 = AXIS2_PLACEMENT_3D('',#958,#959,#960);
#958 = CARTESIAN_POINT('',(-0.649998959683,0.450001040317,1.55));
#959 = DIRECTION('',(0.,0.,-1.));
#960 = DIRECTION('',(-4.161285833958E-06,0.999999999991,0.));
#961 = ORIENTED_EDGE('',*,*,#962,.F.);
#962 = EDGE_CURVE('',#963,#954,#965,.T.);
#963 = VERTEX_POINT('',#964);
#964 = CARTESIAN_POINT('',(-0.4,0.45,1.51));
#965 = LINE('',#966,#967);
#966 = CARTESIAN_POINT('',(-0.4,0.45,1.51));
#967 = VECTOR('',#968,1.);
#968 = DIRECTION('',(0.,0.,1.));
#969 = ORIENTED_EDGE('',*,*,#970,.F.);
#970 = EDGE_CURVE('',#931,#963,#971,.T.);
#971 = CIRCLE('',#972,0.249998959685);
#972 = AXIS2_PLACEMENT_3D('',#973,#974,#975);
#973 = CARTESIAN_POINT('',(-0.649998959683,0.450001040317,1.51));
#974 = DIRECTION('',(0.,0.,-1.));
#975 = DIRECTION('',(-4.161285833958E-06,0.999999999991,0.));
#976 = CYLINDRICAL_SURFACE('',#977,0.249998959685);
#977 = AXIS2_PLACEMENT_3D('',#978,#979,#980);
#978 = CARTESIAN_POINT('',(-0.649998959683,0.450001040317,1.51));
#979 = DIRECTION('',(0.,0.,-1.));
#980 = DIRECTION('',(-4.161285833958E-06,0.999999999991,0.));
#981 = ADVANCED_FACE('',(#982),#1007,.T.);
#982 = FACE_BOUND('',#983,.T.);
#983 = EDGE_LOOP('',(#984,#985,#993,#1001));
#984 = ORIENTED_EDGE('',*,*,#962,.T.);
#985 = ORIENTED_EDGE('',*,*,#986,.T.);
#986 = EDGE_CURVE('',#954,#987,#989,.T.);
#987 = VERTEX_POINT('',#988);
#988 = CARTESIAN_POINT('',(-0.4,-0.45,1.55));
#989 = LINE('',#990,#991);
#990 = CARTESIAN_POINT('',(-0.4,0.45,1.55));
#991 = VECTOR('',#992,1.);
#992 = DIRECTION('',(0.,-1.,0.));
#993 = ORIENTED_EDGE('',*,*,#994,.F.);
#994 = EDGE_CURVE('',#995,#987,#997,.T.);
#995 = VERTEX_POINT('',#996);
#996 = CARTESIAN_POINT('',(-0.4,-0.45,1.51));
#997 = LINE('',#998,#999);
#998 = CARTESIAN_POINT('',(-0.4,-0.45,1.51));
#999 = VECTOR('',#1000,1.);
#1000 = DIRECTION('',(0.,0.,1.));
#1001 = ORIENTED_EDGE('',*,*,#1002,.F.);
#1002 = EDGE_CURVE('',#963,#995,#1003,.T.);
#1003 = LINE('',#1004,#1005);
#1004 = CARTESIAN_POINT('',(-0.4,0.45,1.51));
#1005 = VECTOR('',#1006,1.);
#1006 = DIRECTION('',(0.,-1.,0.));
#1007 = PLANE('',#1008);
#1008 = AXIS2_PLACEMENT_3D('',#1009,#1010,#1011);
#1009 = CARTESIAN_POINT('',(-0.4,0.45,1.51));
#1010 = DIRECTION('',(1.,0.,-0.));
#1011 = DIRECTION('',(0.,-1.,0.));
#1012 = ADVANCED_FACE('',(#1013),#1040,.T.);
#1013 = FACE_BOUND('',#1014,.T.);
#1014 = EDGE_LOOP('',(#1015,#1016,#1025,#1033));
#1015 = ORIENTED_EDGE('',*,*,#994,.T.);
#1016 = ORIENTED_EDGE('',*,*,#1017,.T.);
#1017 = EDGE_CURVE('',#987,#1018,#1020,.T.);
#1018 = VERTEX_POINT('',#1019);
#1019 = CARTESIAN_POINT('',(-0.65,-0.7,1.55));
#1020 = CIRCLE('',#1021,0.249998959685);
#1021 = AXIS2_PLACEMENT_3D('',#1022,#1023,#1024);
#1022 = CARTESIAN_POINT('',(-0.649998959683,-0.450001040317,1.55));
#1023 = DIRECTION('',(0.,0.,-1.));
#1024 = DIRECTION('',(0.999999999991,4.161285833736E-06,0.));
#1025 = ORIENTED_EDGE('',*,*,#1026,.F.);
#1026 = EDGE_CURVE('',#1027,#1018,#1029,.T.);
#1027 = VERTEX_POINT('',#1028);
#1028 = CARTESIAN_POINT('',(-0.65,-0.7,1.51));
#1029 = LINE('',#1030,#1031);
#1030 = CARTESIAN_POINT('',(-0.65,-0.7,1.51));
#1031 = VECTOR('',#1032,1.);
#1032 = DIRECTION('',(0.,0.,1.));
#1033 = ORIENTED_EDGE('',*,*,#1034,.F.);
#1034 = EDGE_CURVE('',#995,#1027,#1035,.T.);
#1035 = CIRCLE('',#1036,0.249998959685);
#1036 = AXIS2_PLACEMENT_3D('',#1037,#1038,#1039);
#1037 = CARTESIAN_POINT('',(-0.649998959683,-0.450001040317,1.51));
#1038 = DIRECTION('',(0.,0.,-1.));
#1039 = DIRECTION('',(0.999999999991,4.161285833736E-06,0.));
#1040 = CYLINDRICAL_SURFACE('',#1041,0.249998959685);
#1041 = AXIS2_PLACEMENT_3D('',#1042,#1043,#1044);
#1042 = CARTESIAN_POINT('',(-0.649998959683,-0.450001040317,1.51));
#1043 = DIRECTION('',(0.,0.,-1.));
#1044 = DIRECTION('',(0.999999999991,4.161285833736E-06,0.));
#1045 = ADVANCED_FACE('',(#1046),#1071,.T.);
#1046 = FACE_BOUND('',#1047,.T.);
#1047 = EDGE_LOOP('',(#1048,#1049,#1057,#1065));
#1048 = ORIENTED_EDGE('',*,*,#1026,.T.);
#1049 = ORIENTED_EDGE('',*,*,#1050,.T.);
#1050 = EDGE_CURVE('',#1018,#1051,#1053,.T.);
#1051 = VERTEX_POINT('',#1052);
#1052 = CARTESIAN_POINT('',(-1.175,-0.7,1.55));
#1053 = LINE('',#1054,#1055);
#1054 = CARTESIAN_POINT('',(-0.65,-0.7,1.55));
#1055 = VECTOR('',#1056,1.);
#1056 = DIRECTION('',(-1.,0.,0.));
#1057 = ORIENTED_EDGE('',*,*,#1058,.F.);
#1058 = EDGE_CURVE('',#1059,#1051,#1061,.T.);
#1059 = VERTEX_POINT('',#1060);
#1060 = CARTESIAN_POINT('',(-1.175,-0.7,1.51));
#1061 = LINE('',#1062,#1063);
#1062 = CARTESIAN_POINT('',(-1.175,-0.7,1.51));
#1063 = VECTOR('',#1064,1.);
#1064 = DIRECTION('',(0.,0.,1.));
#1065 = ORIENTED_EDGE('',*,*,#1066,.F.);
#1066 = EDGE_CURVE('',#1027,#1059,#1067,.T.);
#1067 = LINE('',#1068,#1069);
#1068 = CARTESIAN_POINT('',(-0.65,-0.7,1.51));
#1069 = VECTOR('',#1070,1.);
#1070 = DIRECTION('',(-1.,0.,0.));
#1071 = PLANE('',#1072);
#1072 = AXIS2_PLACEMENT_3D('',#1073,#1074,#1075);
#1073 = CARTESIAN_POINT('',(-0.65,-0.7,1.51));
#1074 = DIRECTION('',(0.,-1.,0.));
#1075 = DIRECTION('',(-1.,0.,0.));
#1076 = ADVANCED_FACE('',(#1077),#1104,.T.);
#1077 = FACE_BOUND('',#1078,.T.);
#1078 = EDGE_LOOP('',(#1079,#1080,#1089,#1097));
#1079 = ORIENTED_EDGE('',*,*,#1058,.T.);
#1080 = ORIENTED_EDGE('',*,*,#1081,.T.);
#1081 = EDGE_CURVE('',#1051,#1082,#1084,.T.);
#1082 = VERTEX_POINT('',#1083);
#1083 = CARTESIAN_POINT('',(-1.425,-0.45,1.55));
#1084 = CIRCLE('',#1085,0.249998959685);
#1085 = AXIS2_PLACEMENT_3D('',#1086,#1087,#1088);
#1086 = CARTESIAN_POINT('',(-1.175001040317,-0.450001040317,1.55));
#1087 = DIRECTION('',(0.,0.,-1.));
#1088 = DIRECTION('',(4.161285833514E-06,-0.999999999991,0.));
#1089 = ORIENTED_EDGE('',*,*,#1090,.F.);
#1090 = EDGE_CURVE('',#1091,#1082,#1093,.T.);
#1091 = VERTEX_POINT('',#1092);
#1092 = CARTESIAN_POINT('',(-1.425,-0.45,1.51));
#1093 = LINE('',#1094,#1095);
#1094 = CARTESIAN_POINT('',(-1.425,-0.45,1.51));
#1095 = VECTOR('',#1096,1.);
#1096 = DIRECTION('',(0.,0.,1.));
#1097 = ORIENTED_EDGE('',*,*,#1098,.F.);
#1098 = EDGE_CURVE('',#1059,#1091,#1099,.T.);
#1099 = CIRCLE('',#1100,0.249998959685);
#1100 = AXIS2_PLACEMENT_3D('',#1101,#1102,#1103);
#1101 = CARTESIAN_POINT('',(-1.175001040317,-0.450001040317,1.51));
#1102 = DIRECTION('',(0.,0.,-1.));
#1103 = DIRECTION('',(4.161285833514E-06,-0.999999999991,0.));
#1104 = CYLINDRICAL_SURFACE('',#1105,0.249998959685);
#1105 = AXIS2_PLACEMENT_3D('',#1106,#1107,#1108);
#1106 = CARTESIAN_POINT('',(-1.175001040317,-0.450001040317,1.51));
#1107 = DIRECTION('',(0.,0.,-1.));
#1108 = DIRECTION('',(4.161285833514E-06,-0.999999999991,0.));
#1109 = ADVANCED_FACE('',(#1110),#1126,.T.);
#1110 = FACE_BOUND('',#1111,.T.);
#1111 = EDGE_LOOP('',(#1112,#1113,#1119,#1120));
#1112 = ORIENTED_EDGE('',*,*,#1090,.T.);
#1113 = ORIENTED_EDGE('',*,*,#1114,.T.);
#1114 = EDGE_CURVE('',#1082,#882,#1115,.T.);
#1115 = LINE('',#1116,#1117);
#1116 = CARTESIAN_POINT('',(-1.425,-0.45,1.55));
#1117 = VECTOR('',#1118,1.);
#1118 = DIRECTION('',(0.,1.,0.));
#1119 = ORIENTED_EDGE('',*,*,#879,.F.);
#1120 = ORIENTED_EDGE('',*,*,#1121,.F.);
#1121 = EDGE_CURVE('',#1091,#880,#1122,.T.);
#1122 = LINE('',#1123,#1124);
#1123 = CARTESIAN_POINT('',(-1.425,-0.45,1.51));
#1124 = VECTOR('',#1125,1.);
#1125 = DIRECTION('',(0.,1.,0.));
#1126 = PLANE('',#1127);
#1127 = AXIS2_PLACEMENT_3D('',#1128,#1129,#1130);
#1128 = CARTESIAN_POINT('',(-1.425,-0.45,1.51));
#1129 = DIRECTION('',(-1.,0.,0.));
#1130 = DIRECTION('',(0.,1.,0.));
#1131 = ADVANCED_FACE('',(#1132),#1142,.F.);
#1132 = FACE_BOUND('',#1133,.T.);
#1133 = EDGE_LOOP('',(#1134,#1135,#1136,#1137,#1138,#1139,#1140,#1141));
#1134 = ORIENTED_EDGE('',*,*,#906,.T.);
#1135 = ORIENTED_EDGE('',*,*,#938,.T.);
#1136 = ORIENTED_EDGE('',*,*,#970,.T.);
#1137 = ORIENTED_EDGE('',*,*,#1002,.T.);
#1138 = ORIENTED_EDGE('',*,*,#1034,.T.);
#1139 = ORIENTED_EDGE('',*,*,#1066,.T.);
#1140 = ORIENTED_EDGE('',*,*,#1098,.T.);
#1141 = ORIENTED_EDGE('',*,*,#1121,.T.);
#1142 = PLANE('',#1143);
#1143 = AXIS2_PLACEMENT_3D('',#1144,#1145,#1146);
#1144 = CARTESIAN_POINT('',(0.,0.,1.51));
#1145 = DIRECTION('',(0.,0.,1.));
#1146 = DIRECTION('',(1.,0.,-0.));
#1147 = ADVANCED_FACE('',(#1148),#1158,.T.);
#1148 = FACE_BOUND('',#1149,.F.);
#1149 = EDGE_LOOP('',(#1150,#1151,#1152,#1153,#1154,#1155,#1156,#1157));
#1150 = ORIENTED_EDGE('',*,*,#889,.T.);
#1151 = ORIENTED_EDGE('',*,*,#922,.T.);
#1152 = ORIENTED_EDGE('',*,*,#953,.T.);
#1153 = ORIENTED_EDGE('',*,*,#986,.T.);
#1154 = ORIENTED_EDGE('',*,*,#1017,.T.);
#1155 = ORIENTED_EDGE('',*,*,#1050,.T.);
#1156 = ORIENTED_EDGE('',*,*,#1081,.T.);
#1157 = ORIENTED_EDGE('',*,*,#1114,.T.);
#1158 = PLANE('',#1159);
#1159 = AXIS2_PLACEMENT_3D('',#1160,#1161,#1162);
#1160 = CARTESIAN_POINT('',(0.,0.,1.55));
#1161 = DIRECTION('',(0.,0.,1.));
#1162 = DIRECTION('',(1.,0.,-0.));
#1163 = MANIFOLD_SOLID_BREP('',#1164);
#1164 = CLOSED_SHELL('',(#1165,#1207,#1238,#1271,#1302,#1335,#1366,#1399
    ,#1421,#1437));
#1165 = ADVANCED_FACE('',(#1166),#1202,.T.);
#1166 = FACE_BOUND('',#1167,.T.);
#1167 = EDGE_LOOP('',(#1168,#1178,#1187,#1195));
#1168 = ORIENTED_EDGE('',*,*,#1169,.T.);
#1169 = EDGE_CURVE('',#1170,#1172,#1174,.T.);
#1170 = VERTEX_POINT('',#1171);
#1171 = CARTESIAN_POINT('',(0.4,0.45,1.51));
#1172 = VERTEX_POINT('',#1173);
#1173 = CARTESIAN_POINT('',(0.4,0.45,1.55));
#1174 = LINE('',#1175,#1176);
#1175 = CARTESIAN_POINT('',(0.4,0.45,1.51));
#1176 = VECTOR('',#1177,1.);
#1177 = DIRECTION('',(0.,0.,1.));
#1178 = ORIENTED_EDGE('',*,*,#1179,.T.);
#1179 = EDGE_CURVE('',#1172,#1180,#1182,.T.);
#1180 = VERTEX_POINT('',#1181);
#1181 = CARTESIAN_POINT('',(0.65,0.7,1.55));
#1182 = CIRCLE('',#1183,0.249998959685);
#1183 = AXIS2_PLACEMENT_3D('',#1184,#1185,#1186);
#1184 = CARTESIAN_POINT('',(0.649998959683,0.450001040317,1.55));
#1185 = DIRECTION('',(0.,0.,-1.));
#1186 = DIRECTION('',(-0.999999999991,-4.161285833736E-06,-0.));
#1187 = ORIENTED_EDGE('',*,*,#1188,.F.);
#1188 = EDGE_CURVE('',#1189,#1180,#1191,.T.);
#1189 = VERTEX_POINT('',#1190);
#1190 = CARTESIAN_POINT('',(0.65,0.7,1.51));
#1191 = LINE('',#1192,#1193);
#1192 = CARTESIAN_POINT('',(0.65,0.7,1.51));
#1193 = VECTOR('',#1194,1.);
#1194 = DIRECTION('',(0.,0.,1.));
#1195 = ORIENTED_EDGE('',*,*,#1196,.F.);
#1196 = EDGE_CURVE('',#1170,#1189,#1197,.T.);
#1197 = CIRCLE('',#1198,0.249998959685);
#1198 = AXIS2_PLACEMENT_3D('',#1199,#1200,#1201);
#1199 = CARTESIAN_POINT('',(0.649998959683,0.450001040317,1.51));
#1200 = DIRECTION('',(0.,0.,-1.));
#1201 = DIRECTION('',(-0.999999999991,-4.161285833736E-06,-0.));
#1202 = CYLINDRICAL_SURFACE('',#1203,0.249998959685);
#1203 = AXIS2_PLACEMENT_3D('',#1204,#1205,#1206);
#1204 = CARTESIAN_POINT('',(0.649998959683,0.450001040317,1.51));
#1205 = DIRECTION('',(0.,0.,-1.));
#1206 = DIRECTION('',(-0.999999999991,-4.161285833736E-06,-0.));
#1207 = ADVANCED_FACE('',(#1208),#1233,.T.);
#1208 = FACE_BOUND('',#1209,.T.);
#1209 = EDGE_LOOP('',(#1210,#1211,#1219,#1227));
#1210 = ORIENTED_EDGE('',*,*,#1188,.T.);
#1211 = ORIENTED_EDGE('',*,*,#1212,.T.);
#1212 = EDGE_CURVE('',#1180,#1213,#1215,.T.);
#1213 = VERTEX_POINT('',#1214);
#1214 = CARTESIAN_POINT('',(1.175,0.7,1.55));
#1215 = LINE('',#1216,#1217);
#1216 = CARTESIAN_POINT('',(0.65,0.7,1.55));
#1217 = VECTOR('',#1218,1.);
#1218 = DIRECTION('',(1.,0.,0.));
#1219 = ORIENTED_EDGE('',*,*,#1220,.F.);
#1220 = EDGE_CURVE('',#1221,#1213,#1223,.T.);
#1221 = VERTEX_POINT('',#1222);
#1222 = CARTESIAN_POINT('',(1.175,0.7,1.51));
#1223 = LINE('',#1224,#1225);
#1224 = CARTESIAN_POINT('',(1.175,0.7,1.51));
#1225 = VECTOR('',#1226,1.);
#1226 = DIRECTION('',(0.,0.,1.));
#1227 = ORIENTED_EDGE('',*,*,#1228,.F.);
#1228 = EDGE_CURVE('',#1189,#1221,#1229,.T.);
#1229 = LINE('',#1230,#1231);
#1230 = CARTESIAN_POINT('',(0.65,0.7,1.51));
#1231 = VECTOR('',#1232,1.);
#1232 = DIRECTION('',(1.,0.,0.));
#1233 = PLANE('',#1234);
#1234 = AXIS2_PLACEMENT_3D('',#1235,#1236,#1237);
#1235 = CARTESIAN_POINT('',(0.65,0.7,1.51));
#1236 = DIRECTION('',(0.,1.,0.));
#1237 = DIRECTION('',(1.,0.,0.));
#1238 = ADVANCED_FACE('',(#1239),#1266,.T.);
#1239 = FACE_BOUND('',#1240,.T.);
#1240 = EDGE_LOOP('',(#1241,#1242,#1251,#1259));
#1241 = ORIENTED_EDGE('',*,*,#1220,.T.);
#1242 = ORIENTED_EDGE('',*,*,#1243,.T.);
#1243 = EDGE_CURVE('',#1213,#1244,#1246,.T.);
#1244 = VERTEX_POINT('',#1245);
#1245 = CARTESIAN_POINT('',(1.425,0.45,1.55));
#1246 = CIRCLE('',#1247,0.249998959685);
#1247 = AXIS2_PLACEMENT_3D('',#1248,#1249,#1250);
#1248 = CARTESIAN_POINT('',(1.175001040317,0.450001040317,1.55));
#1249 = DIRECTION('',(0.,0.,-1.));
#1250 = DIRECTION('',(-4.161285833514E-06,0.999999999991,0.));
#1251 = ORIENTED_EDGE('',*,*,#1252,.F.);
#1252 = EDGE_CURVE('',#1253,#1244,#1255,.T.);
#1253 = VERTEX_POINT('',#1254);
#1254 = CARTESIAN_POINT('',(1.425,0.45,1.51));
#1255 = LINE('',#1256,#1257);
#1256 = CARTESIAN_POINT('',(1.425,0.45,1.51));
#1257 = VECTOR('',#1258,1.);
#1258 = DIRECTION('',(0.,0.,1.));
#1259 = ORIENTED_EDGE('',*,*,#1260,.F.);
#1260 = EDGE_CURVE('',#1221,#1253,#1261,.T.);
#1261 = CIRCLE('',#1262,0.249998959685);
#1262 = AXIS2_PLACEMENT_3D('',#1263,#1264,#1265);
#1263 = CARTESIAN_POINT('',(1.175001040317,0.450001040317,1.51));
#1264 = DIRECTION('',(0.,0.,-1.));
#1265 = DIRECTION('',(-4.161285833514E-06,0.999999999991,0.));
#1266 = CYLINDRICAL_SURFACE('',#1267,0.249998959685);
#1267 = AXIS2_PLACEMENT_3D('',#1268,#1269,#1270);
#1268 = CARTESIAN_POINT('',(1.175001040317,0.450001040317,1.51));
#1269 = DIRECTION('',(0.,0.,-1.));
#1270 = DIRECTION('',(-4.161285833514E-06,0.999999999991,0.));
#1271 = ADVANCED_FACE('',(#1272),#1297,.T.);
#1272 = FACE_BOUND('',#1273,.T.);
#1273 = EDGE_LOOP('',(#1274,#1275,#1283,#1291));
#1274 = ORIENTED_EDGE('',*,*,#1252,.T.);
#1275 = ORIENTED_EDGE('',*,*,#1276,.T.);
#1276 = EDGE_CURVE('',#1244,#1277,#1279,.T.);
#1277 = VERTEX_POINT('',#1278);
#1278 = CARTESIAN_POINT('',(1.425,-0.45,1.55));
#1279 = LINE('',#1280,#1281);
#1280 = CARTESIAN_POINT('',(1.425,0.45,1.55));
#1281 = VECTOR('',#1282,1.);
#1282 = DIRECTION('',(0.,-1.,0.));
#1283 = ORIENTED_EDGE('',*,*,#1284,.F.);
#1284 = EDGE_CURVE('',#1285,#1277,#1287,.T.);
#1285 = VERTEX_POINT('',#1286);
#1286 = CARTESIAN_POINT('',(1.425,-0.45,1.51));
#1287 = LINE('',#1288,#1289);
#1288 = CARTESIAN_POINT('',(1.425,-0.45,1.51));
#1289 = VECTOR('',#1290,1.);
#1290 = DIRECTION('',(0.,0.,1.));
#1291 = ORIENTED_EDGE('',*,*,#1292,.F.);
#1292 = EDGE_CURVE('',#1253,#1285,#1293,.T.);
#1293 = LINE('',#1294,#1295);
#1294 = CARTESIAN_POINT('',(1.425,0.45,1.51));
#1295 = VECTOR('',#1296,1.);
#1296 = DIRECTION('',(0.,-1.,0.));
#1297 = PLANE('',#1298);
#1298 = AXIS2_PLACEMENT_3D('',#1299,#1300,#1301);
#1299 = CARTESIAN_POINT('',(1.425,0.45,1.51));
#1300 = DIRECTION('',(1.,0.,-0.));
#1301 = DIRECTION('',(0.,-1.,0.));
#1302 = ADVANCED_FACE('',(#1303),#1330,.T.);
#1303 = FACE_BOUND('',#1304,.T.);
#1304 = EDGE_LOOP('',(#1305,#1306,#1315,#1323));
#1305 = ORIENTED_EDGE('',*,*,#1284,.T.);
#1306 = ORIENTED_EDGE('',*,*,#1307,.T.);
#1307 = EDGE_CURVE('',#1277,#1308,#1310,.T.);
#1308 = VERTEX_POINT('',#1309);
#1309 = CARTESIAN_POINT('',(1.175,-0.7,1.55));
#1310 = CIRCLE('',#1311,0.249998959685);
#1311 = AXIS2_PLACEMENT_3D('',#1312,#1313,#1314);
#1312 = CARTESIAN_POINT('',(1.175001040317,-0.450001040317,1.55));
#1313 = DIRECTION('',(0.,0.,-1.));
#1314 = DIRECTION('',(0.999999999991,4.161285833292E-06,0.));
#1315 = ORIENTED_EDGE('',*,*,#1316,.F.);
#1316 = EDGE_CURVE('',#1317,#1308,#1319,.T.);
#1317 = VERTEX_POINT('',#1318);
#1318 = CARTESIAN_POINT('',(1.175,-0.7,1.51));
#1319 = LINE('',#1320,#1321);
#1320 = CARTESIAN_POINT('',(1.175,-0.7,1.51));
#1321 = VECTOR('',#1322,1.);
#1322 = DIRECTION('',(0.,0.,1.));
#1323 = ORIENTED_EDGE('',*,*,#1324,.F.);
#1324 = EDGE_CURVE('',#1285,#1317,#1325,.T.);
#1325 = CIRCLE('',#1326,0.249998959685);
#1326 = AXIS2_PLACEMENT_3D('',#1327,#1328,#1329);
#1327 = CARTESIAN_POINT('',(1.175001040317,-0.450001040317,1.51));
#1328 = DIRECTION('',(0.,0.,-1.));
#1329 = DIRECTION('',(0.999999999991,4.161285833292E-06,0.));
#1330 = CYLINDRICAL_SURFACE('',#1331,0.249998959685);
#1331 = AXIS2_PLACEMENT_3D('',#1332,#1333,#1334);
#1332 = CARTESIAN_POINT('',(1.175001040317,-0.450001040317,1.51));
#1333 = DIRECTION('',(0.,0.,-1.));
#1334 = DIRECTION('',(0.999999999991,4.161285833292E-06,0.));
#1335 = ADVANCED_FACE('',(#1336),#1361,.T.);
#1336 = FACE_BOUND('',#1337,.T.);
#1337 = EDGE_LOOP('',(#1338,#1339,#1347,#1355));
#1338 = ORIENTED_EDGE('',*,*,#1316,.T.);
#1339 = ORIENTED_EDGE('',*,*,#1340,.T.);
#1340 = EDGE_CURVE('',#1308,#1341,#1343,.T.);
#1341 = VERTEX_POINT('',#1342);
#1342 = CARTESIAN_POINT('',(0.65,-0.7,1.55));
#1343 = LINE('',#1344,#1345);
#1344 = CARTESIAN_POINT('',(1.175,-0.7,1.55));
#1345 = VECTOR('',#1346,1.);
#1346 = DIRECTION('',(-1.,0.,0.));
#1347 = ORIENTED_EDGE('',*,*,#1348,.F.);
#1348 = EDGE_CURVE('',#1349,#1341,#1351,.T.);
#1349 = VERTEX_POINT('',#1350);
#1350 = CARTESIAN_POINT('',(0.65,-0.7,1.51));
#1351 = LINE('',#1352,#1353);
#1352 = CARTESIAN_POINT('',(0.65,-0.7,1.51));
#1353 = VECTOR('',#1354,1.);
#1354 = DIRECTION('',(0.,0.,1.));
#1355 = ORIENTED_EDGE('',*,*,#1356,.F.);
#1356 = EDGE_CURVE('',#1317,#1349,#1357,.T.);
#1357 = LINE('',#1358,#1359);
#1358 = CARTESIAN_POINT('',(1.175,-0.7,1.51));
#1359 = VECTOR('',#1360,1.);
#1360 = DIRECTION('',(-1.,0.,0.));
#1361 = PLANE('',#1362);
#1362 = AXIS2_PLACEMENT_3D('',#1363,#1364,#1365);
#1363 = CARTESIAN_POINT('',(1.175,-0.7,1.51));
#1364 = DIRECTION('',(0.,-1.,0.));
#1365 = DIRECTION('',(-1.,0.,0.));
#1366 = ADVANCED_FACE('',(#1367),#1394,.T.);
#1367 = FACE_BOUND('',#1368,.T.);
#1368 = EDGE_LOOP('',(#1369,#1370,#1379,#1387));
#1369 = ORIENTED_EDGE('',*,*,#1348,.T.);
#1370 = ORIENTED_EDGE('',*,*,#1371,.T.);
#1371 = EDGE_CURVE('',#1341,#1372,#1374,.T.);
#1372 = VERTEX_POINT('',#1373);
#1373 = CARTESIAN_POINT('',(0.4,-0.45,1.55));
#1374 = CIRCLE('',#1375,0.249998959685);
#1375 = AXIS2_PLACEMENT_3D('',#1376,#1377,#1378);
#1376 = CARTESIAN_POINT('',(0.649998959683,-0.450001040317,1.55));
#1377 = DIRECTION('',(0.,0.,-1.));
#1378 = DIRECTION('',(4.161285833958E-06,-0.999999999991,0.));
#1379 = ORIENTED_EDGE('',*,*,#1380,.F.);
#1380 = EDGE_CURVE('',#1381,#1372,#1383,.T.);
#1381 = VERTEX_POINT('',#1382);
#1382 = CARTESIAN_POINT('',(0.4,-0.45,1.51));
#1383 = LINE('',#1384,#1385);
#1384 = CARTESIAN_POINT('',(0.4,-0.45,1.51));
#1385 = VECTOR('',#1386,1.);
#1386 = DIRECTION('',(0.,0.,1.));
#1387 = ORIENTED_EDGE('',*,*,#1388,.F.);
#1388 = EDGE_CURVE('',#1349,#1381,#1389,.T.);
#1389 = CIRCLE('',#1390,0.249998959685);
#1390 = AXIS2_PLACEMENT_3D('',#1391,#1392,#1393);
#1391 = CARTESIAN_POINT('',(0.649998959683,-0.450001040317,1.51));
#1392 = DIRECTION('',(0.,0.,-1.));
#1393 = DIRECTION('',(4.161285833958E-06,-0.999999999991,0.));
#1394 = CYLINDRICAL_SURFACE('',#1395,0.249998959685);
#1395 = AXIS2_PLACEMENT_3D('',#1396,#1397,#1398);
#1396 = CARTESIAN_POINT('',(0.649998959683,-0.450001040317,1.51));
#1397 = DIRECTION('',(0.,0.,-1.));
#1398 = DIRECTION('',(4.161285833958E-06,-0.999999999991,0.));
#1399 = ADVANCED_FACE('',(#1400),#1416,.T.);
#1400 = FACE_BOUND('',#1401,.T.);
#1401 = EDGE_LOOP('',(#1402,#1403,#1409,#1410));
#1402 = ORIENTED_EDGE('',*,*,#1380,.T.);
#1403 = ORIENTED_EDGE('',*,*,#1404,.T.);
#1404 = EDGE_CURVE('',#1372,#1172,#1405,.T.);
#1405 = LINE('',#1406,#1407);
#1406 = CARTESIAN_POINT('',(0.4,-0.45,1.55));
#1407 = VECTOR('',#1408,1.);
#1408 = DIRECTION('',(0.,1.,0.));
#1409 = ORIENTED_EDGE('',*,*,#1169,.F.);
#1410 = ORIENTED_EDGE('',*,*,#1411,.F.);
#1411 = EDGE_CURVE('',#1381,#1170,#1412,.T.);
#1412 = LINE('',#1413,#1414);
#1413 = CARTESIAN_POINT('',(0.4,-0.45,1.51));
#1414 = VECTOR('',#1415,1.);
#1415 = DIRECTION('',(0.,1.,0.));
#1416 = PLANE('',#1417);
#1417 = AXIS2_PLACEMENT_3D('',#1418,#1419,#1420);
#1418 = CARTESIAN_POINT('',(0.4,-0.45,1.51));
#1419 = DIRECTION('',(-1.,0.,0.));
#1420 = DIRECTION('',(0.,1.,0.));
#1421 = ADVANCED_FACE('',(#1422),#1432,.F.);
#1422 = FACE_BOUND('',#1423,.T.);
#1423 = EDGE_LOOP('',(#1424,#1425,#1426,#1427,#1428,#1429,#1430,#1431));
#1424 = ORIENTED_EDGE('',*,*,#1196,.T.);
#1425 = ORIENTED_EDGE('',*,*,#1228,.T.);
#1426 = ORIENTED_EDGE('',*,*,#1260,.T.);
#1427 = ORIENTED_EDGE('',*,*,#1292,.T.);
#1428 = ORIENTED_EDGE('',*,*,#1324,.T.);
#1429 = ORIENTED_EDGE('',*,*,#1356,.T.);
#1430 = ORIENTED_EDGE('',*,*,#1388,.T.);
#1431 = ORIENTED_EDGE('',*,*,#1411,.T.);
#1432 = PLANE('',#1433);
#1433 = AXIS2_PLACEMENT_3D('',#1434,#1435,#1436);
#1434 = CARTESIAN_POINT('',(0.,0.,1.51));
#1435 = DIRECTION('',(0.,0.,1.));
#1436 = DIRECTION('',(1.,0.,-0.));
#1437 = ADVANCED_FACE('',(#1438),#1448,.T.);
#1438 = FACE_BOUND('',#1439,.F.);
#1439 = EDGE_LOOP('',(#1440,#1441,#1442,#1443,#1444,#1445,#1446,#1447));
#1440 = ORIENTED_EDGE('',*,*,#1179,.T.);
#1441 = ORIENTED_EDGE('',*,*,#1212,.T.);
#1442 = ORIENTED_EDGE('',*,*,#1243,.T.);
#1443 = ORIENTED_EDGE('',*,*,#1276,.T.);
#1444 = ORIENTED_EDGE('',*,*,#1307,.T.);
#1445 = ORIENTED_EDGE('',*,*,#1340,.T.);
#1446 = ORIENTED_EDGE('',*,*,#1371,.T.);
#1447 = ORIENTED_EDGE('',*,*,#1404,.T.);
#1448 = PLANE('',#1449);
#1449 = AXIS2_PLACEMENT_3D('',#1450,#1451,#1452);
#1450 = CARTESIAN_POINT('',(0.,0.,1.55));
#1451 = DIRECTION('',(0.,0.,1.));
#1452 = DIRECTION('',(1.,0.,-0.));
#1453 = ( GEOMETRIC_REPRESENTATION_CONTEXT(3) 
GLOBAL_UNCERTAINTY_ASSIGNED_CONTEXT((#1457)) 
GLOBAL_UNIT_ASSIGNED_CONTEXT((#1454,#1455,#1456)) REPRESENTATION_CONTEXT
('Context #1','3D Context with UNIT and UNCERTAINTY') );
#1454 = ( LENGTH_UNIT() NAMED_UNIT(*) SI_UNIT(.MILLI.,.METRE.) );
#1455 = ( NAMED_UNIT(*) PLANE_ANGLE_UNIT() SI_UNIT($,.RADIAN.) );
#1456 = ( NAMED_UNIT(*) SI_UNIT($,.STERADIAN.) SOLID_ANGLE_UNIT() );
#1457 = UNCERTAINTY_MEASURE_WITH_UNIT(LENGTH_MEASURE(1.E-07),#1454,
  'distance_accuracy_value','confusion accuracy');
#1458 = CONTEXT_DEPENDENT_SHAPE_REPRESENTATION(#1459,#1461);
#1459 = ( REPRESENTATION_RELATIONSHIP('','',#872,#10) 
REPRESENTATION_RELATIONSHIP_WITH_TRANSFORMATION(#1460) 
SHAPE_REPRESENTATION_RELATIONSHIP() );
#1460 = ITEM_DEFINED_TRANSFORMATION('','',#11,#19);
#1461 = PRODUCT_DEFINITION_SHAPE('Placement','Placement of an item',
  #1462);
#1462 = NEXT_ASSEMBLY_USAGE_OCCURRENCE('3','=>[0:1:1:4]','',#5,#867,$);
#1463 = PRODUCT_RELATED_PRODUCT_CATEGORY('part',$,(#869));
#1464 = SHAPE_DEFINITION_REPRESENTATION(#1465,#1471);
#1465 = PRODUCT_DEFINITION_SHAPE('','',#1466);
#1466 = PRODUCT_DEFINITION('design','',#1467,#1470);
#1467 = PRODUCT_DEFINITION_FORMATION('','',#1468);
#1468 = PRODUCT('electronic_resistor_0805_18_ohm_render_PCB',
  'electronic_resistor_0805_18_ohm_render_PCB','',(#1469));
#1469 = PRODUCT_CONTEXT('',#2,'mechanical');
#1470 = PRODUCT_DEFINITION_CONTEXT('part definition',#2,'design');
#1471 = ADVANCED_BREP_SHAPE_REPRESENTATION('',(#11,#1472),#1622);
#1472 = MANIFOLD_SOLID_BREP('',#1473);
#1473 = CLOSED_SHELL('',(#1474,#1514,#1545,#1576,#1598,#1610));
#1474 = ADVANCED_FACE('',(#1475),#1509,.T.);
#1475 = FACE_BOUND('',#1476,.T.);
#1476 = EDGE_LOOP('',(#1477,#1487,#1495,#1503));
#1477 = ORIENTED_EDGE('',*,*,#1478,.T.);
#1478 = EDGE_CURVE('',#1479,#1481,#1483,.T.);
#1479 = VERTEX_POINT('',#1480);
#1480 = CARTESIAN_POINT('',(3.68,-2.95,0.));
#1481 = VERTEX_POINT('',#1482);
#1482 = CARTESIAN_POINT('',(3.68,-2.95,1.51));
#1483 = LINE('',#1484,#1485);
#1484 = CARTESIAN_POINT('',(3.68,-2.95,0.));
#1485 = VECTOR('',#1486,1.);
#1486 = DIRECTION('',(0.,0.,1.));
#1487 = ORIENTED_EDGE('',*,*,#1488,.T.);
#1488 = EDGE_CURVE('',#1481,#1489,#1491,.T.);
#1489 = VERTEX_POINT('',#1490);
#1490 = CARTESIAN_POINT('',(-3.68,-2.95,1.51));
#1491 = LINE('',#1492,#1493);
#1492 = CARTESIAN_POINT('',(3.68,-2.95,1.51));
#1493 = VECTOR('',#1494,1.);
#1494 = DIRECTION('',(-1.,0.,0.));
#1495 = ORIENTED_EDGE('',*,*,#1496,.F.);
#1496 = EDGE_CURVE('',#1497,#1489,#1499,.T.);
#1497 = VERTEX_POINT('',#1498);
#1498 = CARTESIAN_POINT('',(-3.68,-2.95,0.));
#1499 = LINE('',#1500,#1501);
#1500 = CARTESIAN_POINT('',(-3.68,-2.95,0.));
#1501 = VECTOR('',#1502,1.);
#1502 = DIRECTION('',(0.,0.,1.));
#1503 = ORIENTED_EDGE('',*,*,#1504,.F.);
#1504 = EDGE_CURVE('',#1479,#1497,#1505,.T.);
#1505 = LINE('',#1506,#1507);
#1506 = CARTESIAN_POINT('',(3.68,-2.95,0.));
#1507 = VECTOR('',#1508,1.);
#1508 = DIRECTION('',(-1.,0.,0.));
#1509 = PLANE('',#1510);
#1510 = AXIS2_PLACEMENT_3D('',#1511,#1512,#1513);
#1511 = CARTESIAN_POINT('',(3.68,-2.95,0.));
#1512 = DIRECTION('',(0.,-1.,0.));
#1513 = DIRECTION('',(-1.,0.,0.));
#1514 = ADVANCED_FACE('',(#1515),#1540,.T.);
#1515 = FACE_BOUND('',#1516,.T.);
#1516 = EDGE_LOOP('',(#1517,#1518,#1526,#1534));
#1517 = ORIENTED_EDGE('',*,*,#1496,.T.);
#1518 = ORIENTED_EDGE('',*,*,#1519,.T.);
#1519 = EDGE_CURVE('',#1489,#1520,#1522,.T.);
#1520 = VERTEX_POINT('',#1521);
#1521 = CARTESIAN_POINT('',(-3.68,2.95,1.51));
#1522 = LINE('',#1523,#1524);
#1523 = CARTESIAN_POINT('',(-3.68,-2.95,1.51));
#1524 = VECTOR('',#1525,1.);
#1525 = DIRECTION('',(0.,1.,0.));
#1526 = ORIENTED_EDGE('',*,*,#1527,.F.);
#1527 = EDGE_CURVE('',#1528,#1520,#1530,.T.);
#1528 = VERTEX_POINT('',#1529);
#1529 = CARTESIAN_POINT('',(-3.68,2.95,0.));
#1530 = LINE('',#1531,#1532);
#1531 = CARTESIAN_POINT('',(-3.68,2.95,0.));
#1532 = VECTOR('',#1533,1.);
#1533 = DIRECTION('',(0.,0.,1.));
#1534 = ORIENTED_EDGE('',*,*,#1535,.F.);
#1535 = EDGE_CURVE('',#1497,#1528,#1536,.T.);
#1536 = LINE('',#1537,#1538);
#1537 = CARTESIAN_POINT('',(-3.68,-2.95,0.));
#1538 = VECTOR('',#1539,1.);
#1539 = DIRECTION('',(0.,1.,0.));
#1540 = PLANE('',#1541);
#1541 = AXIS2_PLACEMENT_3D('',#1542,#1543,#1544);
#1542 = CARTESIAN_POINT('',(-3.68,-2.95,0.));
#1543 = DIRECTION('',(-1.,0.,0.));
#1544 = DIRECTION('',(0.,1.,0.));
#1545 = ADVANCED_FACE('',(#1546),#1571,.T.);
#1546 = FACE_BOUND('',#1547,.T.);
#1547 = EDGE_LOOP('',(#1548,#1549,#1557,#1565));
#1548 = ORIENTED_EDGE('',*,*,#1527,.T.);
#1549 = ORIENTED_EDGE('',*,*,#1550,.T.);
#1550 = EDGE_CURVE('',#1520,#1551,#1553,.T.);
#1551 = VERTEX_POINT('',#1552);
#1552 = CARTESIAN_POINT('',(3.68,2.95,1.51));
#1553 = LINE('',#1554,#1555);
#1554 = CARTESIAN_POINT('',(-3.68,2.95,1.51));
#1555 = VECTOR('',#1556,1.);
#1556 = DIRECTION('',(1.,0.,0.));
#1557 = ORIENTED_EDGE('',*,*,#1558,.F.);
#1558 = EDGE_CURVE('',#1559,#1551,#1561,.T.);
#1559 = VERTEX_POINT('',#1560);
#1560 = CARTESIAN_POINT('',(3.68,2.95,0.));
#1561 = LINE('',#1562,#1563);
#1562 = CARTESIAN_POINT('',(3.68,2.95,0.));
#1563 = VECTOR('',#1564,1.);
#1564 = DIRECTION('',(0.,0.,1.));
#1565 = ORIENTED_EDGE('',*,*,#1566,.F.);
#1566 = EDGE_CURVE('',#1528,#1559,#1567,.T.);
#1567 = LINE('',#1568,#1569);
#1568 = CARTESIAN_POINT('',(-3.68,2.95,0.));
#1569 = VECTOR('',#1570,1.);
#1570 = DIRECTION('',(1.,0.,0.));
#1571 = PLANE('',#1572);
#1572 = AXIS2_PLACEMENT_3D('',#1573,#1574,#1575);
#1573 = CARTESIAN_POINT('',(-3.68,2.95,0.));
#1574 = DIRECTION('',(0.,1.,0.));
#1575 = DIRECTION('',(1.,0.,0.));
#1576 = ADVANCED_FACE('',(#1577),#1593,.T.);
#1577 = FACE_BOUND('',#1578,.T.);
#1578 = EDGE_LOOP('',(#1579,#1580,#1586,#1587));
#1579 = ORIENTED_EDGE('',*,*,#1558,.T.);
#1580 = ORIENTED_EDGE('',*,*,#1581,.T.);
#1581 = EDGE_CURVE('',#1551,#1481,#1582,.T.);
#1582 = LINE('',#1583,#1584);
#1583 = CARTESIAN_POINT('',(3.68,2.95,1.51));
#1584 = VECTOR('',#1585,1.);
#1585 = DIRECTION('',(0.,-1.,0.));
#1586 = ORIENTED_EDGE('',*,*,#1478,.F.);
#1587 = ORIENTED_EDGE('',*,*,#1588,.F.);
#1588 = EDGE_CURVE('',#1559,#1479,#1589,.T.);
#1589 = LINE('',#1590,#1591);
#1590 = CARTESIAN_POINT('',(3.68,2.95,0.));
#1591 = VECTOR('',#1592,1.);
#1592 = DIRECTION('',(0.,-1.,0.));
#1593 = PLANE('',#1594);
#1594 = AXIS2_PLACEMENT_3D('',#1595,#1596,#1597);
#1595 = CARTESIAN_POINT('',(3.68,2.95,0.));
#1596 = DIRECTION('',(1.,0.,-0.));
#1597 = DIRECTION('',(0.,-1.,0.));
#1598 = ADVANCED_FACE('',(#1599),#1605,.F.);
#1599 = FACE_BOUND('',#1600,.T.);
#1600 = EDGE_LOOP('',(#1601,#1602,#1603,#1604));
#1601 = ORIENTED_EDGE('',*,*,#1504,.T.);
#1602 = ORIENTED_EDGE('',*,*,#1535,.T.);
#1603 = ORIENTED_EDGE('',*,*,#1566,.T.);
#1604 = ORIENTED_EDGE('',*,*,#1588,.T.);
#1605 = PLANE('',#1606);
#1606 = AXIS2_PLACEMENT_3D('',#1607,#1608,#1609);
#1607 = CARTESIAN_POINT('',(0.,0.,0.));
#1608 = DIRECTION('',(0.,0.,1.));
#1609 = DIRECTION('',(1.,0.,-0.));
#1610 = ADVANCED_FACE('',(#1611),#1617,.T.);
#1611 = FACE_BOUND('',#1612,.F.);
#1612 = EDGE_LOOP('',(#1613,#1614,#1615,#1616));
#1613 = ORIENTED_EDGE('',*,*,#1488,.T.);
#1614 = ORIENTED_EDGE('',*,*,#1519,.T.);
#1615 = ORIENTED_EDGE('',*,*,#1550,.T.);
#1616 = ORIENTED_EDGE('',*,*,#1581,.T.);
#1617 = PLANE('',#1618);
#1618 = AXIS2_PLACEMENT_3D('',#1619,#1620,#1621);
#1619 = CARTESIAN_POINT('',(0.,0.,1.51));
#1620 = DIRECTION('',(0.,0.,1.));
#1621 = DIRECTION('',(1.,0.,-0.));
#1622 = ( GEOMETRIC_REPRESENTATION_CONTEXT(3) 
GLOBAL_UNCERTAINTY_ASSIGNED_CONTEXT((#1626)) 
GLOBAL_UNIT_ASSIGNED_CONTEXT((#1623,#1624,#1625)) REPRESENTATION_CONTEXT
('Context #1','3D Context with UNIT and UNCERTAINTY') );
#1623 = ( LENGTH_UNIT() NAMED_UNIT(*) SI_UNIT(.MILLI.,.METRE.) );
#1624 = ( NAMED_UNIT(*) PLANE_ANGLE_UNIT() SI_UNIT($,.RADIAN.) );
#1625 = ( NAMED_UNIT(*) SI_UNIT($,.STERADIAN.) SOLID_ANGLE_UNIT() );
#1626 = UNCERTAINTY_MEASURE_WITH_UNIT(LENGTH_MEASURE(1.E-07),#1623,
  'distance_accuracy_value','confusion accuracy');
#1627 = CONTEXT_DEPENDENT_SHAPE_REPRESENTATION(#1628,#1630);
#1628 = ( REPRESENTATION_RELATIONSHIP('','',#1471,#10) 
REPRESENTATION_RELATIONSHIP_WITH_TRANSFORMATION(#1629) 
SHAPE_REPRESENTATION_RELATIONSHIP() );
#1629 = ITEM_DEFINED_TRANSFORMATION('','',#11,#23);
#1630 = PRODUCT_DEFINITION_SHAPE('Placement','Placement of an item',
  #1631);
#1631 = NEXT_ASSEMBLY_USAGE_OCCURRENCE('4','=>[0:1:1:5]','',#5,#1466,$);
#1632 = PRODUCT_RELATED_PRODUCT_CATEGORY('part',$,(#1468));
#1633 = MECHANICAL_DESIGN_GEOMETRIC_PRESENTATION_REPRESENTATION('',(
    #1634),#1622);
#1634 = STYLED_ITEM('color',(#1635),#1472);
#1635 = PRESENTATION_STYLE_ASSIGNMENT((#1636));
#1636 = SURFACE_STYLE_USAGE(.BOTH.,#1637);
#1637 = SURFACE_SIDE_STYLE('',(#1638));
#1638 = SURFACE_STYLE_FILL_AREA(#1639);
#1639 = FILL_AREA_STYLE('',(#1640));
#1640 = FILL_AREA_STYLE_COLOUR('',#1641);
#1641 = COLOUR_RGB('',0.313304153717,0.484529207832,0.410020903123);
#1642 = MECHANICAL_DESIGN_GEOMETRIC_PRESENTATION_REPRESENTATION('',(
    #1643,#1651),#1453);
#1643 = STYLED_ITEM('color',(#1644),#873);
#1644 = PRESENTATION_STYLE_ASSIGNMENT((#1645));
#1645 = SURFACE_STYLE_USAGE(.BOTH.,#1646);
#1646 = SURFACE_SIDE_STYLE('',(#1647));
#1647 = SURFACE_STYLE_FILL_AREA(#1648);
#1648 = FILL_AREA_STYLE('',(#1649));
#1649 = FILL_AREA_STYLE_COLOUR('',#1650);
#1650 = COLOUR_RGB('',0.735356983052,0.735356983052,0.735356983052);
#1651 = STYLED_ITEM('color',(#1652),#1163);
#1652 = PRESENTATION_STYLE_ASSIGNMENT((#1653));
#1653 = SURFACE_STYLE_USAGE(.BOTH.,#1654);
#1654 = SURFACE_SIDE_STYLE('',(#1655));
#1655 = SURFACE_STYLE_FILL_AREA(#1656);
#1656 = FILL_AREA_STYLE('',(#1657));
#1657 = FILL_AREA_STYLE_COLOUR('',#1650);
#1658 = MECHANICAL_DESIGN_GEOMETRIC_PRESENTATION_REPRESENTATION('',(
    #1659,#1667,#1674,#1681,#1688,#1695,#1702,#1709,#1717,#1724,#1731,
    #1738,#1745,#1752,#1760,#1767,#1774,#1781,#1788,#1795,#1802,#1809,
    #1816,#1823,#1830,#1837),#854);
#1659 = STYLED_ITEM('color',(#1660),#66);
#1660 = PRESENTATION_STYLE_ASSIGNMENT((#1661));
#1661 = SURFACE_STYLE_USAGE(.BOTH.,#1662);
#1662 = SURFACE_SIDE_STYLE('',(#1663));
#1663 = SURFACE_STYLE_FILL_AREA(#1664);
#1664 = FILL_AREA_STYLE('',(#1665));
#1665 = FILL_AREA_STYLE_COLOUR('',#1666);
#1666 = COLOUR_RGB('',0.823999987314,0.819999987296,0.781000009244);
#1667 = STYLED_ITEM('color',(#1668),#106);
#1668 = PRESENTATION_STYLE_ASSIGNMENT((#1669));
#1669 = SURFACE_STYLE_USAGE(.BOTH.,#1670);
#1670 = SURFACE_SIDE_STYLE('',(#1671));
#1671 = SURFACE_STYLE_FILL_AREA(#1672);
#1672 = FILL_AREA_STYLE('',(#1673));
#1673 = FILL_AREA_STYLE_COLOUR('',#1666);
#1674 = STYLED_ITEM('color',(#1675),#189);
#1675 = PRESENTATION_STYLE_ASSIGNMENT((#1676));
#1676 = SURFACE_STYLE_USAGE(.BOTH.,#1677);
#1677 = SURFACE_SIDE_STYLE('',(#1678));
#1678 = SURFACE_STYLE_FILL_AREA(#1679);
#1679 = FILL_AREA_STYLE('',(#1680));
#1680 = FILL_AREA_STYLE_COLOUR('',#1666);
#1681 = STYLED_ITEM('color',(#1682),#214);
#1682 = PRESENTATION_STYLE_ASSIGNMENT((#1683));
#1683 = SURFACE_STYLE_USAGE(.BOTH.,#1684);
#1684 = SURFACE_SIDE_STYLE('',(#1685));
#1685 = SURFACE_STYLE_FILL_AREA(#1686);
#1686 = FILL_AREA_STYLE('',(#1687));
#1687 = FILL_AREA_STYLE_COLOUR('',#1666);
#1688 = STYLED_ITEM('color',(#1689),#239);
#1689 = PRESENTATION_STYLE_ASSIGNMENT((#1690));
#1690 = SURFACE_STYLE_USAGE(.BOTH.,#1691);
#1691 = SURFACE_SIDE_STYLE('',(#1692));
#1692 = SURFACE_STYLE_FILL_AREA(#1693);
#1693 = FILL_AREA_STYLE('',(#1694));
#1694 = FILL_AREA_STYLE_COLOUR('',#1666);
#1695 = STYLED_ITEM('color',(#1696),#306);
#1696 = PRESENTATION_STYLE_ASSIGNMENT((#1697));
#1697 = SURFACE_STYLE_USAGE(.BOTH.,#1698);
#1698 = SURFACE_SIDE_STYLE('',(#1699));
#1699 = SURFACE_STYLE_FILL_AREA(#1700);
#1700 = FILL_AREA_STYLE('',(#1701));
#1701 = FILL_AREA_STYLE_COLOUR('',#1666);
#1702 = STYLED_ITEM('color',(#1703),#323);
#1703 = PRESENTATION_STYLE_ASSIGNMENT((#1704));
#1704 = SURFACE_STYLE_USAGE(.BOTH.,#1705);
#1705 = SURFACE_SIDE_STYLE('',(#1706));
#1706 = SURFACE_STYLE_FILL_AREA(#1707);
#1707 = FILL_AREA_STYLE('',(#1708));
#1708 = FILL_AREA_STYLE_COLOUR('',#1666);
#1709 = STYLED_ITEM('color',(#1710),#340);
#1710 = PRESENTATION_STYLE_ASSIGNMENT((#1711));
#1711 = SURFACE_STYLE_USAGE(.BOTH.,#1712);
#1712 = SURFACE_SIDE_STYLE('',(#1713));
#1713 = SURFACE_STYLE_FILL_AREA(#1714);
#1714 = FILL_AREA_STYLE('',(#1715));
#1715 = FILL_AREA_STYLE_COLOUR('',#1716);
#1716 = COLOUR_RGB('',0.894999966383,0.890999961016,0.813000030345);
#1717 = STYLED_ITEM('color',(#1718),#389);
#1718 = PRESENTATION_STYLE_ASSIGNMENT((#1719));
#1719 = SURFACE_STYLE_USAGE(.BOTH.,#1720);
#1720 = SURFACE_SIDE_STYLE('',(#1721));
#1721 = SURFACE_STYLE_FILL_AREA(#1722);
#1722 = FILL_AREA_STYLE('',(#1723));
#1723 = FILL_AREA_STYLE_COLOUR('',#1666);
#1724 = STYLED_ITEM('color',(#1725),#406);
#1725 = PRESENTATION_STYLE_ASSIGNMENT((#1726));
#1726 = SURFACE_STYLE_USAGE(.BOTH.,#1727);
#1727 = SURFACE_SIDE_STYLE('',(#1728));
#1728 = SURFACE_STYLE_FILL_AREA(#1729);
#1729 = FILL_AREA_STYLE('',(#1730));
#1730 = FILL_AREA_STYLE_COLOUR('',#1666);
#1731 = STYLED_ITEM('color',(#1732),#423);
#1732 = PRESENTATION_STYLE_ASSIGNMENT((#1733));
#1733 = SURFACE_STYLE_USAGE(.BOTH.,#1734);
#1734 = SURFACE_SIDE_STYLE('',(#1735));
#1735 = SURFACE_STYLE_FILL_AREA(#1736);
#1736 = FILL_AREA_STYLE('',(#1737));
#1737 = FILL_AREA_STYLE_COLOUR('',#1716);
#1738 = STYLED_ITEM('color',(#1739),#472);
#1739 = PRESENTATION_STYLE_ASSIGNMENT((#1740));
#1740 = SURFACE_STYLE_USAGE(.BOTH.,#1741);
#1741 = SURFACE_SIDE_STYLE('',(#1742));
#1742 = SURFACE_STYLE_FILL_AREA(#1743);
#1743 = FILL_AREA_STYLE('',(#1744));
#1744 = FILL_AREA_STYLE_COLOUR('',#1716);
#1745 = STYLED_ITEM('color',(#1746),#489);
#1746 = PRESENTATION_STYLE_ASSIGNMENT((#1747));
#1747 = SURFACE_STYLE_USAGE(.BOTH.,#1748);
#1748 = SURFACE_SIDE_STYLE('',(#1749));
#1749 = SURFACE_STYLE_FILL_AREA(#1750);
#1750 = FILL_AREA_STYLE('',(#1751));
#1751 = FILL_AREA_STYLE_COLOUR('',#1666);
#1752 = STYLED_ITEM('color',(#1753),#558);
#1753 = PRESENTATION_STYLE_ASSIGNMENT((#1754));
#1754 = SURFACE_STYLE_USAGE(.BOTH.,#1755);
#1755 = SURFACE_SIDE_STYLE('',(#1756));
#1756 = SURFACE_STYLE_FILL_AREA(#1757);
#1757 = FILL_AREA_STYLE('',(#1758));
#1758 = FILL_AREA_STYLE_COLOUR('',#1759);
#1759 = COLOUR_RGB('',8.200000279077E-02,8.600000121357E-02,
  9.399999706163E-02);
#1760 = STYLED_ITEM('color',(#1761),#589);
#1761 = PRESENTATION_STYLE_ASSIGNMENT((#1762));
#1762 = SURFACE_STYLE_USAGE(.BOTH.,#1763);
#1763 = SURFACE_SIDE_STYLE('',(#1764));
#1764 = SURFACE_STYLE_FILL_AREA(#1765);
#1765 = FILL_AREA_STYLE('',(#1766));
#1766 = FILL_AREA_STYLE_COLOUR('',#1759);
#1767 = STYLED_ITEM('color',(#1768),#613);
#1768 = PRESENTATION_STYLE_ASSIGNMENT((#1769));
#1769 = SURFACE_STYLE_USAGE(.BOTH.,#1770);
#1770 = SURFACE_SIDE_STYLE('',(#1771));
#1771 = SURFACE_STYLE_FILL_AREA(#1772);
#1772 = FILL_AREA_STYLE('',(#1773));
#1773 = FILL_AREA_STYLE_COLOUR('',#1666);
#1774 = STYLED_ITEM('color',(#1775),#682);
#1775 = PRESENTATION_STYLE_ASSIGNMENT((#1776));
#1776 = SURFACE_STYLE_USAGE(.BOTH.,#1777);
#1777 = SURFACE_SIDE_STYLE('',(#1778));
#1778 = SURFACE_STYLE_FILL_AREA(#1779);
#1779 = FILL_AREA_STYLE('',(#1780));
#1780 = FILL_AREA_STYLE_COLOUR('',#1759);
#1781 = STYLED_ITEM('color',(#1782),#706);
#1782 = PRESENTATION_STYLE_ASSIGNMENT((#1783));
#1783 = SURFACE_STYLE_USAGE(.BOTH.,#1784);
#1784 = SURFACE_SIDE_STYLE('',(#1785));
#1785 = SURFACE_STYLE_FILL_AREA(#1786);
#1786 = FILL_AREA_STYLE('',(#1787));
#1787 = FILL_AREA_STYLE_COLOUR('',#1666);
#1788 = STYLED_ITEM('color',(#1789),#723);
#1789 = PRESENTATION_STYLE_ASSIGNMENT((#1790));
#1790 = SURFACE_STYLE_USAGE(.BOTH.,#1791);
#1791 = SURFACE_SIDE_STYLE('',(#1792));
#1792 = SURFACE_STYLE_FILL_AREA(#1793);
#1793 = FILL_AREA_STYLE('',(#1794));
#1794 = FILL_AREA_STYLE_COLOUR('',#1666);
#1795 = STYLED_ITEM('color',(#1796),#740);
#1796 = PRESENTATION_STYLE_ASSIGNMENT((#1797));
#1797 = SURFACE_STYLE_USAGE(.BOTH.,#1798);
#1798 = SURFACE_SIDE_STYLE('',(#1799));
#1799 = SURFACE_STYLE_FILL_AREA(#1800);
#1800 = FILL_AREA_STYLE('',(#1801));
#1801 = FILL_AREA_STYLE_COLOUR('',#1666);
#1802 = STYLED_ITEM('color',(#1803),#757);
#1803 = PRESENTATION_STYLE_ASSIGNMENT((#1804));
#1804 = SURFACE_STYLE_USAGE(.BOTH.,#1805);
#1805 = SURFACE_SIDE_STYLE('',(#1806));
#1806 = SURFACE_STYLE_FILL_AREA(#1807);
#1807 = FILL_AREA_STYLE('',(#1808));
#1808 = FILL_AREA_STYLE_COLOUR('',#1666);
#1809 = STYLED_ITEM('color',(#1810),#774);
#1810 = PRESENTATION_STYLE_ASSIGNMENT((#1811));
#1811 = SURFACE_STYLE_USAGE(.BOTH.,#1812);
#1812 = SURFACE_SIDE_STYLE('',(#1813));
#1813 = SURFACE_STYLE_FILL_AREA(#1814);
#1814 = FILL_AREA_STYLE('',(#1815));
#1815 = FILL_AREA_STYLE_COLOUR('',#1666);
#1816 = STYLED_ITEM('color',(#1817),#791);
#1817 = PRESENTATION_STYLE_ASSIGNMENT((#1818));
#1818 = SURFACE_STYLE_USAGE(.BOTH.,#1819);
#1819 = SURFACE_SIDE_STYLE('',(#1820));
#1820 = SURFACE_STYLE_FILL_AREA(#1821);
#1821 = FILL_AREA_STYLE('',(#1822));
#1822 = FILL_AREA_STYLE_COLOUR('',#1666);
#1823 = STYLED_ITEM('color',(#1824),#808);
#1824 = PRESENTATION_STYLE_ASSIGNMENT((#1825));
#1825 = SURFACE_STYLE_USAGE(.BOTH.,#1826);
#1826 = SURFACE_SIDE_STYLE('',(#1827));
#1827 = SURFACE_STYLE_FILL_AREA(#1828);
#1828 = FILL_AREA_STYLE('',(#1829));
#1829 = FILL_AREA_STYLE_COLOUR('',#1666);
#1830 = STYLED_ITEM('color',(#1831),#825);
#1831 = PRESENTATION_STYLE_ASSIGNMENT((#1832));
#1832 = SURFACE_STYLE_USAGE(.BOTH.,#1833);
#1833 = SURFACE_SIDE_STYLE('',(#1834));
#1834 = SURFACE_STYLE_FILL_AREA(#1835);
#1835 = FILL_AREA_STYLE('',(#1836));
#1836 = FILL_AREA_STYLE_COLOUR('',#1759);
#1837 = STYLED_ITEM('color',(#1838),#842);
#1838 = PRESENTATION_STYLE_ASSIGNMENT((#1839));
#1839 = SURFACE_STYLE_USAGE(.BOTH.,#1840);
#1840 = SURFACE_SIDE_STYLE('',(#1841));
#1841 = SURFACE_STYLE_FILL_AREA(#1842);
#1842 = FILL_AREA_STYLE('',(#1843));
#1843 = FILL_AREA_STYLE_COLOUR('',#1759);
ENDSEC;
END-ISO-10303-21;
