<?xml version="1.0" encoding="utf-8"?>
<svg xmlns="http://www.w3.org/2000/svg" viewBox="-26.1000 -8.0000 62.3600 31.2400">
<defs>
<style>
.page { fill: var(--brd-page, #FFFFFF); }
.board { fill: var(--brd-board-fill, #FFFFFF); stroke: var(--brd-board-outline, #000000); stroke-width: 0.35; }
.edge-cut { fill: none; stroke: var(--brd-board-outline, #000000); stroke-width: 0.25; }
.mechanical-pad { fill: var(--brd-page, #FFFFFF); stroke: var(--brd-component-outline, #000000); stroke-width: 0.18; }
.mounting-hole { fill: var(--brd-page, #FFFFFF); stroke: var(--brd-component-outline, #000000); stroke-width: 0.22; }
.origin { fill: none; stroke: var(--brd-text, #000000); stroke-width: 0.18; }
.leader { fill: none; stroke: var(--brd-text, #000000); stroke-width: 0.12; }
.mechanical-text { fill: var(--brd-text, #000000); font-family: Arial, sans-serif; font-size: 1.0px; }
</style>
</defs>
<rect class="page" x="-26.1000" y="-8.0000" width="62.3600" height="31.2400" />
<rect class="board" x="0" y="0" width="10.1600" height="15.2400" rx="1.0" />
<polyline class="edge-cut" points="0.0000,15.2400 0.0000,2.5400" />
<polyline class="edge-cut" points="2.5400,0.0000 7.6200,0.0000" />
<polyline class="edge-cut" points="10.1600,2.5400 10.1600,15.2400" />
<polyline class="edge-cut" points="10.1600,15.2400 0.0000,15.2400" />
<polyline class="edge-cut" points="0.0000,2.5400 0.0217,2.2085 0.0865,1.8826 0.1933,1.5680 0.3403,1.2700 0.5249,0.9937 0.7439,0.7439 0.9937,0.5249 1.2700,0.3403 1.5680,0.1933 1.8826,0.0865 2.2085,0.0217 2.5400,0.0000" />
<polyline class="edge-cut" points="7.6200,0.0000 7.9515,0.0217 8.2774,0.0865 8.5920,0.1933 8.8900,0.3403 9.1663,0.5249 9.4161,0.7439 9.6351,0.9937 9.8197,1.2700 9.9667,1.5680 10.0735,1.8826 10.1383,2.2085 10.1600,2.5400" />
<line class="origin" x1="-1.2000" y1="0" x2="5.0000" y2="0" />
<line class="origin" x1="0" y1="-1.2000" x2="0" y2="5.0000" />
<circle class="origin" cx="0" cy="0" r="0.55" />
<text class="mechanical-text" x="0.8" y="-0.8">0,0</text>
<text class="mechanical-text" x="5.4000" y="-0.55">+X</text>
<text class="mechanical-text" x="0.4" y="5.8000">+Y</text>
<circle class="mechanical-pad" cx="5.0800" cy="2.5400" r="1.6000" />
<circle class="mounting-hole" cx="5.0800" cy="2.5400" r="1.2500" />
<line class="leader" x1="5.0800" y1="2.5400" x2="-1.0000" y2="2.5400" />
<text class="mechanical-text" x="-1.0000" y="2.5400" text-anchor="end"><tspan x="-1.0000" dy="0">MH1 U$9</tspan><tspan x="-1.0000" dy="1.3500">Mounting Hole 2.5 mm Round Plated</tspan><tspan x="-1.0000" dy="1.3500">x 5.080 y 2.540</tspan><tspan x="-1.0000" dy="1.3500">dia 2.5 mm PTH</tspan></text>
</svg>
