%TF.GenerationSoftware,KiCad,Pcbnew,10.99.0-3671-gbe90a7e200*%
%TF.CreationDate,2026-09-10T01:36:01+01:00*%
%TF.ProjectId,kicad_file,6b696361-645f-4666-996c-652e6b696361,rev?*%
%TF.SameCoordinates,Original*%
%TF.FileFunction,Soldermask,Top*%
%TF.FilePolarity,Negative*%
%FSLAX46Y46*%
G04 Gerber Fmt 4.6, Leading zero omitted, Abs format (unit mm)*
G04 Created by KiCad (PCBNEW 10.99.0-3671-gbe90a7e200) date 2026-09-10 01:36:01*
%MOMM*%
%LPD*%
G01*
G04 APERTURE LIST*
G04 Aperture macros list*
%AMRoundRect*
0 Rectangle with rounded corners*
0 $1 Rounding radius*
0 $2 $3 $4 $5 $6 $7 $8 $9 X,Y pos of 4 corners*
0 Add a 4 corners polygon primitive as box body*
4,1,4,$2,$3,$4,$5,$6,$7,$8,$9,$2,$3,0*
0 Add four circle primitives for the rounded corners*
1,1,$1+$1,$2,$3*
1,1,$1+$1,$4,$5*
1,1,$1+$1,$6,$7*
1,1,$1+$1,$8,$9*
0 Add four rect primitives between the rounded corners*
20,1,$1+$1,$2,$3,$4,$5,0*
20,1,$1+$1,$4,$5,$6,$7,0*
20,1,$1+$1,$6,$7,$8,$9,0*
20,1,$1+$1,$8,$9,$2,$3,0*%
G04 Aperture macros list end*
%ADD10C,0.500000*%
%ADD11RoundRect,0.101600X0.783143X0.411323X-0.472560X0.747788X-0.783143X-0.411323X0.472560X-0.747788X0*%
%ADD12RoundRect,0.101600X-0.316792X-0.672416X0.699475X-0.251464X0.316792X0.672416X-0.699475X0.251464X0*%
%ADD13RoundRect,0.101600X-0.600000X0.650000X-0.600000X-0.650000X0.600000X-0.650000X0.600000X0.650000X0*%
%ADD14C,1.930400*%
%ADD15RoundRect,0.101600X-0.747788X0.472560X-0.411323X-0.783143X0.747788X-0.472560X0.411323X0.783143X0*%
%ADD16RoundRect,0.101600X0.740725X0.061858X-0.131964X0.731495X-0.740725X-0.061858X0.131964X-0.731495X0*%
%ADD17RoundRect,0.101600X0.747788X-0.472560X0.411323X0.783143X-0.747788X0.472560X-0.411323X-0.783143X0*%
%ADD18RoundRect,0.101600X0.194615X-0.862917X0.844615X0.262917X-0.194615X0.862917X-0.844615X-0.262917X0*%
%ADD19RoundRect,0.101600X-0.262917X-0.844615X0.862917X-0.194615X0.262917X0.844615X-0.862917X0.194615X0*%
%ADD20RoundRect,0.101600X-0.472560X-0.747788X0.783143X-0.411323X0.472560X0.747788X-0.783143X0.411323X0*%
%ADD21RoundRect,0.601600X-0.000010X-0.000010X0.000010X-0.000010X0.000010X0.000010X-0.000010X0.000010X0*%
%ADD22RoundRect,0.101600X-0.699475X-0.251464X0.316792X-0.672416X0.699475X0.251464X-0.316792X0.672416X0*%
%ADD23RoundRect,0.101600X0.061858X-0.740725X0.731495X0.131964X-0.061858X0.740725X-0.731495X-0.131964X0*%
%ADD24RoundRect,0.101600X0.650000X0.600000X-0.650000X0.600000X-0.650000X-0.600000X0.650000X-0.600000X0*%
%ADD25RoundRect,0.101600X0.316792X0.672416X-0.699475X0.251464X-0.316792X-0.672416X0.699475X-0.251464X0*%
%ADD26RoundRect,0.101600X0.262917X0.844615X-0.862917X0.194615X-0.262917X-0.844615X0.862917X-0.194615X0*%
%ADD27RoundRect,0.101600X0.883883X-0.035355X-0.035355X0.883883X-0.883883X0.035355X0.035355X-0.883883X0*%
%ADD28RoundRect,0.101600X-0.251464X0.699475X-0.672416X-0.316792X0.251464X-0.699475X0.672416X0.316792X0*%
%ADD29RoundRect,0.101600X0.862917X0.194615X-0.262917X0.844615X-0.862917X-0.194615X0.262917X-0.844615X0*%
%ADD30RoundRect,0.101600X-0.194615X0.862917X-0.844615X-0.262917X0.194615X-0.862917X0.844615X0.262917X0*%
%ADD31RoundRect,0.101600X0.411323X-0.783143X0.747788X0.472560X-0.411323X0.783143X-0.747788X-0.472560X0*%
%ADD32RoundRect,0.101600X0.472560X0.747788X-0.783143X0.411323X-0.472560X-0.747788X0.783143X-0.411323X0*%
%ADD33RoundRect,0.101600X0.731495X-0.131964X0.061858X0.740725X-0.731495X0.131964X-0.061858X-0.740725X0*%
%ADD34RoundRect,0.101600X-0.844615X0.262917X-0.194615X-0.862917X0.844615X-0.262917X0.194615X0.862917X0*%
%ADD35RoundRect,0.101600X0.035355X0.883883X-0.883883X-0.035355X-0.035355X-0.883883X0.883883X0.035355X0*%
%ADD36RoundRect,0.101600X-0.035355X-0.883883X0.883883X0.035355X0.035355X0.883883X-0.883883X-0.035355X0*%
%ADD37RoundRect,0.101600X-0.131964X-0.731495X0.740725X-0.061858X0.131964X0.731495X-0.740725X0.061858X0*%
%ADD38RoundRect,0.101600X0.251464X-0.699475X0.672416X0.316792X-0.251464X0.699475X-0.672416X-0.316792X0*%
%ADD39RoundRect,0.101600X-0.862917X-0.194615X0.262917X-0.844615X0.862917X0.194615X-0.262917X0.844615X0*%
%ADD40RoundRect,0.101600X0.844615X-0.262917X0.194615X0.862917X-0.844615X0.262917X-0.194615X-0.862917X0*%
%ADD41RoundRect,0.101600X-0.883883X0.035355X0.035355X-0.883883X0.883883X-0.035355X-0.035355X0.883883X0*%
%ADD42RoundRect,0.101600X-0.567512X0.480032X-0.423933X-0.610558X0.567512X-0.480032X0.423933X0.610558X0*%
%ADD43RoundRect,0.101600X0.699475X0.251464X-0.316792X0.672416X-0.699475X-0.251464X0.316792X-0.672416X0*%
%ADD44RoundRect,0.101600X-0.783143X-0.411323X0.472560X-0.747788X0.783143X0.411323X-0.472560X0.747788X0*%
%ADD45RoundRect,0.101600X-0.650000X-0.600000X0.650000X-0.600000X0.650000X0.600000X-0.650000X0.600000X0*%
%ADD46RoundRect,0.101600X0.610558X0.423933X-0.480032X0.567512X-0.610558X-0.423933X0.480032X-0.567512X0*%
%ADD47RoundRect,0.101600X-0.610558X-0.423933X0.480032X-0.567512X0.610558X0.423933X-0.480032X0.567512X0*%
%ADD48RoundRect,0.101600X-0.731495X0.131964X-0.061858X-0.740725X0.731495X-0.131964X0.061858X0.740725X0*%
%ADD49RoundRect,0.101600X0.600000X-0.650000X0.600000X0.650000X-0.600000X0.650000X-0.600000X-0.650000X0*%
%ADD50RoundRect,0.101600X0.131964X0.731495X-0.740725X0.061858X-0.131964X-0.731495X0.740725X-0.061858X0*%
%ADD51RoundRect,0.101600X-0.411323X0.783143X-0.747788X-0.472560X0.411323X-0.783143X0.747788X0.472560X0*%
G04 APERTURE END LIST*
%TO.C,FID1*%
D10*
X-32449200Y-4191000D02*
G75*
G02*
X-31699200Y-3441000I750000J0D01*
G01*
X-31699200Y-3441000D02*
G75*
G02*
X-30949200Y-4191000I0J-750000D01*
G01*
X-31699200Y-4941000D02*
G75*
G02*
X-32449200Y-4191000I0J750000D01*
G01*
X-30949200Y-4191000D02*
G75*
G02*
X-31699200Y-4941000I-750000J0D01*
G01*
%TO.C,FID2*%
X30949200Y4165600D02*
G75*
G02*
X31699200Y4915600I750000J0D01*
G01*
X31699200Y4915600D02*
G75*
G02*
X32449200Y4165600I0J-750000D01*
G01*
X31699200Y3415600D02*
G75*
G02*
X30949200Y4165600I0J750000D01*
G01*
X32449200Y4165600D02*
G75*
G02*
X31699200Y3415600I-750000J0D01*
G01*
%TD*%
D11*
%TO.C,LED2*%
X9402930Y26012573D03*
X10257033Y29200128D03*
X5717182Y30416577D03*
X4863079Y27229022D03*
%TD*%
D12*
%TO.C,C5*%
X27843805Y11533215D03*
X29414401Y12183777D03*
%TD*%
D13*
%TO.C,LED19*%
X-27560000Y2350000D03*
X-30860000Y2350000D03*
X-30860000Y-2350000D03*
X-27560000Y-2350000D03*
%TD*%
D14*
%TO.C,JP3*%
X-4140200Y-31318200D03*
%TD*%
D15*
%TO.C,LED18*%
X-27229022Y-4863079D03*
X-30416577Y-5717182D03*
X-29200128Y-10257033D03*
X-26012573Y-9402930D03*
%TD*%
D16*
%TO.C,C21*%
X-23910056Y18346878D03*
X-25258756Y19381772D03*
%TD*%
D17*
%TO.C,LED6*%
X27229022Y4863079D03*
X30416577Y5717182D03*
X29200128Y10257033D03*
X26012573Y9402930D03*
%TD*%
D18*
%TO.C,LED9*%
X22692679Y-15815160D03*
X25550563Y-17465160D03*
X27900563Y-13394840D03*
X25042679Y-11744840D03*
%TD*%
D19*
%TO.C,LED11*%
X11744840Y-25042679D03*
X13394840Y-27900563D03*
X17465160Y-25550563D03*
X15815160Y-22692679D03*
%TD*%
D14*
%TO.C,JP5*%
X-19227800Y-25069800D03*
%TD*%
D20*
%TO.C,LED12*%
X4863079Y-27229022D03*
X5717182Y-30416577D03*
X10257033Y-29200128D03*
X9402930Y-26012573D03*
%TD*%
D21*
%TO.C,FID1*%
X-31699200Y-4191000D03*
%TD*%
D22*
%TO.C,C8*%
X27843805Y-11533215D03*
X29414401Y-12183777D03*
%TD*%
D23*
%TO.C,C3*%
X18346878Y23910056D03*
X19381772Y25258756D03*
%TD*%
D24*
%TO.C,LED1*%
X2350000Y27560000D03*
X2350000Y30860000D03*
X-2350000Y30860000D03*
X-2350000Y27560000D03*
%TD*%
D14*
%TO.C,JP4*%
X12090400Y-29184600D03*
%TD*%
D25*
%TO.C,C17*%
X-27843805Y-11533215D03*
X-29414401Y-12183777D03*
%TD*%
D26*
%TO.C,LED23*%
X-11744840Y25042679D03*
X-13394840Y27900563D03*
X-17465160Y25550563D03*
X-15815160Y22692679D03*
%TD*%
D27*
%TO.C,LED4*%
X21149493Y17826091D03*
X23482945Y20159543D03*
X20159543Y23482945D03*
X17826091Y21149493D03*
%TD*%
D28*
%TO.C,C14*%
X-11533215Y-27843805D03*
X-12183777Y-29414401D03*
%TD*%
D29*
%TO.C,LED3*%
X15815160Y22692679D03*
X17465160Y25550563D03*
X13394840Y27900563D03*
X11744840Y25042679D03*
%TD*%
D30*
%TO.C,LED21*%
X-22692679Y15815160D03*
X-25550563Y17465160D03*
X-27900563Y13394840D03*
X-25042679Y11744840D03*
%TD*%
D31*
%TO.C,LED8*%
X26012573Y-9402930D03*
X29200128Y-10257033D03*
X30416577Y-5717182D03*
X27229022Y-4863079D03*
%TD*%
D32*
%TO.C,LED24*%
X-4863079Y27229022D03*
X-5717182Y30416577D03*
X-10257033Y29200128D03*
X-9402930Y26012573D03*
%TD*%
D33*
%TO.C,C22*%
X-18346878Y23910056D03*
X-19381772Y25258756D03*
%TD*%
D34*
%TO.C,LED17*%
X-25042679Y-11744840D03*
X-27900563Y-13394840D03*
X-25550563Y-17465160D03*
X-22692679Y-15815160D03*
%TD*%
D35*
%TO.C,LED22*%
X-17826091Y21149493D03*
X-20159543Y23482945D03*
X-23482945Y20159543D03*
X-21149493Y17826091D03*
%TD*%
D36*
%TO.C,LED10*%
X17826091Y-21149493D03*
X20159543Y-23482945D03*
X23482945Y-20159543D03*
X21149493Y-17826091D03*
%TD*%
D37*
%TO.C,C4*%
X23910056Y18346878D03*
X25258756Y19381772D03*
%TD*%
D38*
%TO.C,C2*%
X11533215Y27843805D03*
X12183777Y29414401D03*
%TD*%
D39*
%TO.C,LED15*%
X-15815160Y-22692679D03*
X-17465160Y-25550563D03*
X-13394840Y-27900563D03*
X-11744840Y-25042679D03*
%TD*%
D21*
%TO.C,FID2*%
X31699200Y4165600D03*
%TD*%
D40*
%TO.C,LED5*%
X25042679Y11744840D03*
X27900563Y13394840D03*
X25550563Y17465160D03*
X22692679Y15815160D03*
%TD*%
D41*
%TO.C,LED16*%
X-21149493Y-17826091D03*
X-23482945Y-20159543D03*
X-20159543Y-23482945D03*
X-17826091Y-21149493D03*
%TD*%
D42*
%TO.C,R1*%
X-4010947Y30642728D03*
X-3789053Y28957272D03*
%TD*%
D43*
%TO.C,C20*%
X-27843805Y11533215D03*
X-29414401Y12183777D03*
%TD*%
D44*
%TO.C,LED14*%
X-9402930Y-26012573D03*
X-10257033Y-29200128D03*
X-5717182Y-30416577D03*
X-4863079Y-27229022D03*
%TD*%
D45*
%TO.C,LED13*%
X-2350000Y-27560000D03*
X-2350000Y-30860000D03*
X2350000Y-30860000D03*
X2350000Y-27560000D03*
%TD*%
D46*
%TO.C,C19*%
X-29880097Y3933749D03*
X-31565553Y4155643D03*
%TD*%
D42*
%TO.C,C12*%
X3933749Y-29880097D03*
X4155643Y-31565553D03*
%TD*%
D14*
%TO.C,JP1*%
X4140200Y31318200D03*
%TD*%
%TO.C,JP2*%
X-12065000Y29210000D03*
%TD*%
D47*
%TO.C,C7*%
X29880097Y-3933749D03*
X31565553Y-4155643D03*
%TD*%
D14*
%TO.C,JP6*%
X25095200Y-19253200D03*
%TD*%
D48*
%TO.C,C10*%
X18346878Y-23910056D03*
X19381772Y-25258756D03*
%TD*%
D49*
%TO.C,LED7*%
X27560000Y-2350000D03*
X30860000Y-2350000D03*
X30860000Y2350000D03*
X27560000Y2350000D03*
%TD*%
D50*
%TO.C,C16*%
X-23910056Y-18346878D03*
X-25258756Y-19381772D03*
%TD*%
D51*
%TO.C,LED20*%
X-26012573Y9402930D03*
X-29200128Y10257033D03*
X-30416577Y5717182D03*
X-27229022Y4863079D03*
%TD*%
M02*
