%TF.GenerationSoftware,KiCad,Pcbnew,10.99.0-3671-gbe90a7e200*%
%TF.CreationDate,2026-09-10T00:22:24+01:00*%
%TF.ProjectId,kicad_file,6b696361-645f-4666-996c-652e6b696361,rev?*%
%TF.SameCoordinates,Original*%
%TF.FileFunction,Soldermask,Top*%
%TF.FilePolarity,Negative*%
%FSLAX46Y46*%
G04 Gerber Fmt 4.6, Leading zero omitted, Abs format (unit mm)*
G04 Created by KiCad (PCBNEW 10.99.0-3671-gbe90a7e200) date 2026-09-10 00:22:24*
%MOMM*%
%LPD*%
G01*
G04 APERTURE LIST*
G04 Aperture macros list*
%AMRoundRect*
0 Rectangle with rounded corners*
0 $1 Rounding radius*
0 $2 $3 $4 $5 $6 $7 $8 $9 X,Y pos of 4 corners*
0 Add a 4 corners polygon primitive as box body*
4,1,4,$2,$3,$4,$5,$6,$7,$8,$9,$2,$3,0*
0 Add four circle primitives for the rounded corners*
1,1,$1+$1,$2,$3*
1,1,$1+$1,$4,$5*
1,1,$1+$1,$6,$7*
1,1,$1+$1,$8,$9*
0 Add four rect primitives between the rounded corners*
20,1,$1+$1,$2,$3,$4,$5,0*
20,1,$1+$1,$4,$5,$6,$7,0*
20,1,$1+$1,$6,$7,$8,$9,0*
20,1,$1+$1,$8,$9,$2,$3,0*%
G04 Aperture macros list end*
%ADD10C,0.469900*%
%ADD11RoundRect,0.050800X-0.900000X-1.600000X0.900000X-1.600000X0.900000X1.600000X-0.900000X1.600000X0*%
%ADD12C,3.301600*%
%ADD13RoundRect,0.550800X-0.000010X-0.000010X0.000010X-0.000010X0.000010X0.000010X-0.000010X0.000010X0*%
%ADD14C,1.879600*%
%ADD15RoundRect,0.050800X0.400000X-0.400000X0.400000X0.400000X-0.400000X0.400000X-0.400000X-0.400000X0*%
%ADD16RoundRect,0.050800X-0.775000X-0.300000X0.775000X-0.300000X0.775000X0.300000X-0.775000X0.300000X0*%
%ADD17RoundRect,0.050800X-0.900000X-0.600000X0.900000X-0.600000X0.900000X0.600000X-0.900000X0.600000X0*%
%ADD18RoundRect,0.050800X0.775000X0.300000X-0.775000X0.300000X-0.775000X-0.300000X0.775000X-0.300000X0*%
%ADD19RoundRect,0.050800X0.900000X0.600000X-0.900000X0.600000X-0.900000X-0.600000X0.900000X-0.600000X0*%
%ADD20RoundRect,0.050800X-0.500000X0.537500X-0.500000X-0.537500X0.500000X-0.537500X0.500000X0.537500X0*%
%ADD21RoundRect,0.050800X0.200000X0.600000X-0.200000X0.600000X-0.200000X-0.600000X0.200000X-0.600000X0*%
%ADD22RoundRect,0.050800X-0.450000X0.225000X-0.450000X-0.225000X0.450000X-0.225000X0.450000X0.225000X0*%
%ADD23C,2.286000*%
%ADD24RoundRect,0.050800X-0.750000X0.620000X-0.750000X-0.620000X0.750000X-0.620000X0.750000X0.620000X0*%
%ADD25RoundRect,0.050800X0.500000X-0.537500X0.500000X0.537500X-0.500000X0.537500X-0.500000X-0.537500X0*%
G04 APERTURE END LIST*
%TO.C,FID4*%
D10*
X23507000Y14986000D02*
G75*
G02*
X24257000Y15736000I750000J0D01*
G01*
X24257000Y15736000D02*
G75*
G02*
X25007000Y14986000I0J-750000D01*
G01*
X24257000Y14236000D02*
G75*
G02*
X23507000Y14986000I0J750000D01*
G01*
X25007000Y14986000D02*
G75*
G02*
X24257000Y14236000I-750000J0D01*
G01*
%TO.C,FID3*%
X266000Y5461000D02*
G75*
G02*
X1016000Y6211000I750000J0D01*
G01*
X1016000Y6211000D02*
G75*
G02*
X1766000Y5461000I0J-750000D01*
G01*
X1016000Y4711000D02*
G75*
G02*
X266000Y5461000I0J750000D01*
G01*
X1766000Y5461000D02*
G75*
G02*
X1016000Y4711000I-750000J0D01*
G01*
%TD*%
D11*
%TO.C,R5*%
X9900000Y11176000D03*
X15500000Y11176000D03*
%TD*%
D12*
%TO.C,U$20*%
X2540000Y17780000D03*
%TD*%
D13*
%TO.C,FID4*%
X24257000Y14986000D03*
%TD*%
D14*
%TO.C,JP1*%
X6350000Y2540000D03*
X8890000Y2540000D03*
X11430000Y2540000D03*
X13970000Y2540000D03*
X16510000Y2540000D03*
X19050000Y2540000D03*
%TD*%
D12*
%TO.C,U$27*%
X22860000Y2540000D03*
%TD*%
D15*
%TO.C,D1*%
X4306000Y14351000D03*
X2806000Y14351000D03*
%TD*%
D12*
%TO.C,U$25*%
X2540000Y2540000D03*
%TD*%
D16*
%TO.C,CONN4*%
X5054000Y11660000D03*
X5054000Y10660000D03*
X5054000Y9660000D03*
X5054000Y8660000D03*
D17*
X1154000Y12960000D03*
X1154000Y7360000D03*
%TD*%
D18*
%TO.C,CONN3*%
X20346000Y8660000D03*
X20346000Y9660000D03*
X20346000Y10660000D03*
X20346000Y11660000D03*
D19*
X24246000Y7360000D03*
X24246000Y12960000D03*
%TD*%
D13*
%TO.C,FID3*%
X1016000Y5461000D03*
%TD*%
D20*
%TO.C,C1*%
X10160000Y7962000D03*
X10160000Y6262000D03*
%TD*%
D21*
%TO.C,U1*%
X13675000Y8285000D03*
X13025000Y8285000D03*
X12375000Y8285000D03*
X11725000Y8285000D03*
X11725000Y5685000D03*
X12375000Y5685000D03*
X13025000Y5685000D03*
X13675000Y5685000D03*
%TD*%
D22*
%TO.C,R6*%
X15660000Y8285000D03*
X15660000Y7385000D03*
X15660000Y6585000D03*
X15660000Y5685000D03*
X17360000Y5685000D03*
X17360000Y6585000D03*
X17360000Y7385000D03*
X17360000Y8285000D03*
%TD*%
D23*
%TO.C,J1*%
X10900000Y16510000D03*
X14400000Y16510000D03*
%TD*%
D12*
%TO.C,U$21*%
X22860000Y17780000D03*
%TD*%
D24*
%TO.C,C2*%
X8382000Y8062000D03*
X8382000Y6162000D03*
%TD*%
D25*
%TO.C,R7*%
X5588000Y12866000D03*
X5588000Y14566000D03*
%TD*%
M02*
