%TF.GenerationSoftware,KiCad,Pcbnew,10.99.0-3758-g2f18d95be7*%
%TF.CreationDate,2026-09-21T15:21:45+01:00*%
%TF.ProjectId,kicad_file,6b696361-645f-4666-996c-652e6b696361,rev?*%
%TF.SameCoordinates,Original*%
%TF.FileFunction,Paste,Top*%
%TF.FilePolarity,Positive*%
%FSLAX46Y46*%
G04 Gerber Fmt 4.6, Leading zero omitted, Abs format (unit mm)*
G04 Created by KiCad (PCBNEW 10.99.0-3758-g2f18d95be7) date 2026-09-21 15:21:45*
%MOMM*%
%LPD*%
G01*
G04 APERTURE LIST*
%ADD10R,0.800000X0.800000*%
%ADD11R,1.500000X1.240000*%
%ADD12R,0.900000X0.450000*%
%ADD13R,1.350000X0.800000*%
%ADD14R,1.550000X0.600000*%
%ADD15R,1.800000X1.200000*%
%ADD16R,1.075000X1.000000*%
%ADD17R,1.200000X0.800000*%
%ADD18R,0.500000X0.500000*%
%ADD19R,0.500000X0.400000*%
%ADD20R,1.200000X0.550000*%
G04 APERTURE END LIST*
D10*
%TO.C,D3*%
X5322000Y18923000D03*
X3822000Y18923000D03*
%TD*%
D11*
%TO.C,FB1*%
X8001000Y7300000D03*
X8001000Y5400000D03*
%TD*%
D12*
%TO.C,R1*%
X928000Y19715000D03*
X928000Y18815000D03*
X928000Y18015000D03*
X928000Y17115000D03*
X2628000Y17115000D03*
X2628000Y18015000D03*
X2628000Y18815000D03*
X2628000Y19715000D03*
%TD*%
D13*
%TO.C,D2*%
X12065000Y19939000D03*
X14605000Y19939000D03*
%TD*%
D14*
%TO.C,CONN3*%
X20346000Y11200000D03*
X20346000Y12200000D03*
X20346000Y13200000D03*
X20346000Y14200000D03*
D15*
X24246000Y9900000D03*
X24246000Y15500000D03*
%TD*%
D16*
%TO.C,C1*%
X5803000Y8890000D03*
X4103000Y8890000D03*
%TD*%
D17*
%TO.C,X1*%
X17450000Y9612000D03*
X17450000Y11212000D03*
X17450000Y14112000D03*
X17450000Y15712000D03*
X17450000Y17312000D03*
X7950000Y17312000D03*
X7950000Y15712000D03*
X7950000Y14112000D03*
X7950000Y11212000D03*
X7950000Y9612000D03*
%TD*%
D12*
%TO.C,R3*%
X23964000Y16861000D03*
X23964000Y17761000D03*
X23964000Y18561000D03*
X23964000Y19461000D03*
X22264000Y19461000D03*
X22264000Y18561000D03*
X22264000Y17761000D03*
X22264000Y16861000D03*
%TD*%
D18*
%TO.C,Q2*%
X20204000Y19189000D03*
D19*
X20204000Y19939000D03*
D18*
X20204000Y20689000D03*
X18404000Y20689000D03*
D19*
X18404000Y19939000D03*
D18*
X18404000Y19189000D03*
%TD*%
D10*
%TO.C,D1*%
X5322000Y17780000D03*
X3822000Y17780000D03*
%TD*%
D20*
%TO.C,U2*%
X3652900Y7427000D03*
X3652900Y6477000D03*
X3652900Y5527000D03*
X6253100Y5527000D03*
X6253100Y7427000D03*
%TD*%
D11*
%TO.C,C2*%
X1143000Y5908000D03*
X1143000Y7808000D03*
%TD*%
%TO.C,C3*%
X9906000Y5400000D03*
X9906000Y7300000D03*
%TD*%
D14*
%TO.C,CONN4*%
X5054000Y14200000D03*
X5054000Y13200000D03*
X5054000Y12200000D03*
X5054000Y11200000D03*
D15*
X1154000Y15500000D03*
X1154000Y9900000D03*
%TD*%
M02*
