%TF.GenerationSoftware,KiCad,Pcbnew,10.99.0-3671-gbe90a7e200*%
%TF.CreationDate,2026-09-09T22:40:46+01:00*%
%TF.ProjectId,kicad_file,6b696361-645f-4666-996c-652e6b696361,rev?*%
%TF.SameCoordinates,Original*%
%TF.FileFunction,Copper,L16,Bot*%
%TF.FilePolarity,Positive*%
%FSLAX46Y46*%
G04 Gerber Fmt 4.6, Leading zero omitted, Abs format (unit mm)*
G04 Created by KiCad (PCBNEW 10.99.0-3671-gbe90a7e200) date 2026-09-09 22:40:46*
%MOMM*%
%LPD*%
G01*
G04 APERTURE LIST*
G04 Aperture macros list*
%AMOutline5P*
0 Free polygon, 5 corners , with rotation*
0 The origin of the aperture is its center*
0 number of corners: always 5*
0 $1 to $10 corner X, Y*
0 $11 Rotation angle, in degrees counterclockwise*
0 create outline with 5 corners*
4,1,5,$1,$2,$3,$4,$5,$6,$7,$8,$9,$10,$1,$2,$11*%
%AMOutline6P*
0 Free polygon, 6 corners , with rotation*
0 The origin of the aperture is its center*
0 number of corners: always 6*
0 $1 to $12 corner X, Y*
0 $13 Rotation angle, in degrees counterclockwise*
0 create outline with 6 corners*
4,1,6,$1,$2,$3,$4,$5,$6,$7,$8,$9,$10,$11,$12,$1,$2,$13*%
%AMOutline7P*
0 Free polygon, 7 corners , with rotation*
0 The origin of the aperture is its center*
0 number of corners: always 7*
0 $1 to $14 corner X, Y*
0 $15 Rotation angle, in degrees counterclockwise*
0 create outline with 7 corners*
4,1,7,$1,$2,$3,$4,$5,$6,$7,$8,$9,$10,$11,$12,$13,$14,$1,$2,$15*%
%AMOutline8P*
0 Free polygon, 8 corners , with rotation*
0 The origin of the aperture is its center*
0 number of corners: always 8*
0 $1 to $16 corner X, Y*
0 $17 Rotation angle, in degrees counterclockwise*
0 create outline with 8 corners*
4,1,8,$1,$2,$3,$4,$5,$6,$7,$8,$9,$10,$11,$12,$13,$14,$15,$16,$1,$2,$17*%
G04 Aperture macros list end*
%TA.AperFunction,EtchedComponent*%
%ADD10C,0.000000*%
%TD*%
%TA.AperFunction,ComponentPad*%
%ADD11O,1.524000X3.048000*%
%TD*%
%TA.AperFunction,ComponentPad*%
%ADD12Outline8P,-0.762000X0.315631X-0.315631X0.762000X0.315631X0.762000X0.762000X0.315631X0.762000X-0.315631X0.315631X-0.762000X-0.315631X-0.762000X-0.762000X-0.315631X180.000000*%
%TD*%
%TA.AperFunction,WasherPad*%
%ADD13C,1.508000*%
%TD*%
%TA.AperFunction,SMDPad,CuDef*%
%ADD14R,0.500000X3.000000*%
%TD*%
%TA.AperFunction,ViaPad*%
%ADD15C,0.906400*%
%TD*%
%TA.AperFunction,Conductor*%
%ADD16C,0.406400*%
%TD*%
G04 APERTURE END LIST*
D10*
%TA.AperFunction,EtchedComponent*%
%TO.C,CN1*%
G36*
X21590000Y-10160000D02*
G01*
X19050000Y-10160000D01*
X19050000Y-5080000D01*
X21590000Y-5080000D01*
X21590000Y-10160000D01*
G37*
%TD.AperFunction*%
%TA.AperFunction,EtchedComponent*%
G36*
X-19050000Y-10160000D02*
G01*
X-21590000Y-10160000D01*
X-21590000Y-5080000D01*
X-19050000Y-5080000D01*
X-19050000Y-10160000D01*
G37*
%TD.AperFunction*%
%TD*%
D11*
%TO.P,UNK1X20BREAKOUT0,1*%
%TO.N,GND*%
X24130000Y38100000D03*
%TO.P,UNK1X20BREAKOUT0,2*%
%TO.N,+5V*%
X21590000Y38100000D03*
%TO.P,UNK1X20BREAKOUT0,3*%
%TO.N,LCD_CS_5V*%
X19050000Y38100000D03*
%TO.P,UNK1X20BREAKOUT0,4*%
%TO.N,LCD_RS_5V*%
X16510000Y38100000D03*
%TO.P,UNK1X20BREAKOUT0,5*%
%TO.N,LCD_WR_5V*%
X13970000Y38100000D03*
%TO.P,UNK1X20BREAKOUT0,6*%
%TO.N,LCD_RD_5V*%
X11430000Y38100000D03*
%TO.P,UNK1X20BREAKOUT0,7*%
%TO.N,LCD_RST_5V*%
X8890000Y38100000D03*
%TO.P,UNK1X20BREAKOUT0,8*%
%TO.N,LCD_LITE*%
X6350000Y38100000D03*
%TO.P,UNK1X20BREAKOUT0,9*%
%TO.N,LCD_X+*%
X3810000Y38100000D03*
%TO.P,UNK1X20BREAKOUT0,10*%
%TO.N,LCD_Y+*%
X1270000Y38100000D03*
%TO.P,UNK1X20BREAKOUT0,11*%
%TO.N,LCD_X-*%
X-1270000Y38100000D03*
%TO.P,UNK1X20BREAKOUT0,12*%
%TO.N,LCD_Y-*%
X-3810000Y38100000D03*
%TO.P,UNK1X20BREAKOUT0,13*%
%TO.N,LCD_DATA1_5V*%
X-6350000Y38100000D03*
%TO.P,UNK1X20BREAKOUT0,14*%
%TO.N,LCD_DATA2_5V*%
X-8890000Y38100000D03*
%TO.P,UNK1X20BREAKOUT0,15*%
%TO.N,LCD_DATA3_5V*%
X-11430000Y38100000D03*
%TO.P,UNK1X20BREAKOUT0,16*%
%TO.N,LCD_DATA4_5V*%
X-13970000Y38100000D03*
%TO.P,UNK1X20BREAKOUT0,17*%
%TO.N,LCD_DATA5_5V*%
X-16510000Y38100000D03*
%TO.P,UNK1X20BREAKOUT0,18*%
%TO.N,LCD_DATA6_5V*%
X-19050000Y38100000D03*
%TO.P,UNK1X20BREAKOUT0,19*%
%TO.N,LCD_DATA7_5V*%
X-21590000Y38100000D03*
%TO.P,UNK1X20BREAKOUT0,20*%
%TO.N,LCD_DATA8_5V*%
X-24130000Y38100000D03*
%TD*%
D12*
%TO.P,UNK2X10BREAKOUT0,1*%
%TO.N,GND*%
X11430000Y-35560000D03*
%TO.P,UNK2X10BREAKOUT0,2*%
%TO.N,+5V*%
X11430000Y-38100000D03*
%TO.P,UNK2X10BREAKOUT0,3*%
%TO.N,LCD_CS_5V*%
X8890000Y-35560000D03*
%TO.P,UNK2X10BREAKOUT0,4*%
%TO.N,LCD_RS_5V*%
X8890000Y-38100000D03*
%TO.P,UNK2X10BREAKOUT0,5*%
%TO.N,LCD_WR_5V*%
X6350000Y-35560000D03*
%TO.P,UNK2X10BREAKOUT0,6*%
%TO.N,LCD_RD_5V*%
X6350000Y-38100000D03*
%TO.P,UNK2X10BREAKOUT0,7*%
%TO.N,LCD_RST_5V*%
X3810000Y-35560000D03*
%TO.P,UNK2X10BREAKOUT0,8*%
%TO.N,LCD_LITE*%
X3810000Y-38100000D03*
%TO.P,UNK2X10BREAKOUT0,9*%
%TO.N,LCD_X+*%
X1270000Y-35560000D03*
%TO.P,UNK2X10BREAKOUT0,10*%
%TO.N,LCD_Y+*%
X1270000Y-38100000D03*
%TO.P,UNK2X10BREAKOUT0,11*%
%TO.N,LCD_X-*%
X-1270000Y-35560000D03*
%TO.P,UNK2X10BREAKOUT0,12*%
%TO.N,LCD_Y-*%
X-1270000Y-38100000D03*
%TO.P,UNK2X10BREAKOUT0,13*%
%TO.N,LCD_DATA1_5V*%
X-3810000Y-35560000D03*
%TO.P,UNK2X10BREAKOUT0,14*%
%TO.N,LCD_DATA2_5V*%
X-3810000Y-38100000D03*
%TO.P,UNK2X10BREAKOUT0,15*%
%TO.N,LCD_DATA3_5V*%
X-6350000Y-35560000D03*
%TO.P,UNK2X10BREAKOUT0,16*%
%TO.N,LCD_DATA4_5V*%
X-6350000Y-38100000D03*
%TO.P,UNK2X10BREAKOUT0,17*%
%TO.N,LCD_DATA5_5V*%
X-8890000Y-35560000D03*
%TO.P,UNK2X10BREAKOUT0,18*%
%TO.N,LCD_DATA6_5V*%
X-8890000Y-38100000D03*
%TO.P,UNK2X10BREAKOUT0,19*%
%TO.N,LCD_DATA7_5V*%
X-11430000Y-35560000D03*
%TO.P,UNK2X10BREAKOUT0,20*%
%TO.N,LCD_DATA8_5V*%
X-11430000Y-38100000D03*
%TD*%
D13*
%TO.P,CN1,*%
%TO.N,*%
X19500000Y-7290000D03*
X-19500000Y-7290000D03*
D14*
%TO.P,CN1,1*%
%TO.N,GND*%
X18000000Y-6520000D03*
%TO.P,CN1,2*%
X17000000Y-6520000D03*
%TO.P,CN1,3*%
X16000000Y-6520000D03*
%TO.P,CN1,4*%
X15000000Y-6520000D03*
%TO.P,CN1,5*%
X14000000Y-6520000D03*
%TO.P,CN1,6*%
%TO.N,VCC*%
X13000000Y-6520000D03*
%TO.P,CN1,7*%
%TO.N,LCD_CS*%
X12000000Y-6520000D03*
%TO.P,CN1,8*%
%TO.N,LCD_RS*%
X11000000Y-6520000D03*
%TO.P,CN1,9*%
%TO.N,LCD_WR*%
X10000000Y-6520000D03*
%TO.P,CN1,10*%
%TO.N,LCD_RD*%
X9000000Y-6520000D03*
%TO.P,CN1,11*%
%TO.N,VCC*%
X8000000Y-6520000D03*
%TO.P,CN1,12*%
%TO.N,LCD_X+*%
X7000000Y-6520000D03*
%TO.P,CN1,13*%
%TO.N,LCD_Y+*%
X6000000Y-6520000D03*
%TO.P,CN1,14*%
%TO.N,LCD_X-*%
X5000000Y-6520000D03*
%TO.P,CN1,15*%
%TO.N,LCD_Y-*%
X4000000Y-6520000D03*
%TO.P,CN1,16*%
%TO.N,VCC*%
X3000000Y-6520000D03*
%TO.P,CN1,17*%
%TO.N,N$2*%
X2000000Y-6520000D03*
%TO.P,CN1,18*%
%TO.N,N$3*%
X1000000Y-6520000D03*
%TO.P,CN1,19*%
%TO.N,N$4*%
X0Y-6520000D03*
%TO.P,CN1,20*%
%TO.N,N$1*%
X-1000000Y-6520000D03*
%TO.P,CN1,21*%
%TO.N,GND*%
X-2000000Y-6520000D03*
%TO.P,CN1,22*%
X-3000000Y-6520000D03*
%TO.P,CN1,23*%
%TO.N,LCD_DATA1*%
X-4000000Y-6520000D03*
%TO.P,CN1,24*%
%TO.N,LCD_DATA2*%
X-5000000Y-6520000D03*
%TO.P,CN1,25*%
%TO.N,LCD_DATA3*%
X-6000000Y-6520000D03*
%TO.P,CN1,26*%
%TO.N,LCD_DATA4*%
X-7000000Y-6520000D03*
%TO.P,CN1,27*%
%TO.N,LCD_DATA5*%
X-8000000Y-6520000D03*
%TO.P,CN1,28*%
%TO.N,LCD_DATA6*%
X-9000000Y-6520000D03*
%TO.P,CN1,29*%
%TO.N,LCD_DATA7*%
X-10000000Y-6520000D03*
%TO.P,CN1,30*%
%TO.N,LCD_DATA8*%
X-11000000Y-6520000D03*
%TO.P,CN1,31*%
%TO.N,LCD_RST*%
X-12000000Y-6520000D03*
%TO.P,CN1,32*%
%TO.N,VCC*%
X-13000000Y-6520000D03*
%TO.P,CN1,33*%
X-14000000Y-6520000D03*
%TO.P,CN1,34*%
%TO.N,GND*%
X-15000000Y-6520000D03*
%TO.P,CN1,35*%
X-16000000Y-6520000D03*
%TO.P,CN1,36*%
X-17000000Y-6520000D03*
%TO.P,CN1,37*%
X-18000000Y-6520000D03*
%TD*%
D15*
%TO.N,GND*%
X-2794000Y2286000D03*
X-12954000Y-15494000D03*
X18796000Y-3810000D03*
X-10414000Y-9652000D03*
X-2286000Y-4318000D03*
X1778000Y-18796000D03*
X-14478000Y9144000D03*
%TO.N,LCD_RST*%
X8636000Y-11684000D03*
%TO.N,LCD_DATA8*%
X-12954000Y-3810000D03*
%TO.N,LCD_DATA7*%
X-11684000Y-3302000D03*
%TO.N,LCD_DATA6*%
X-10160000Y-3048000D03*
%TO.N,LCD_DATA5*%
X-8890000Y-3048000D03*
%TO.N,LCD_DATA4*%
X-7620000Y-3048000D03*
%TO.N,LCD_DATA3*%
X-6350000Y-3048000D03*
%TO.N,LCD_DATA2*%
X-4826000Y-3048000D03*
%TO.N,LCD_DATA1*%
X-3810000Y-4064000D03*
%TO.N,LCD_CS*%
X13716000Y-3048000D03*
%TO.N,LCD_WR*%
X10160000Y-4064000D03*
%TO.N,LCD_RD*%
X9652000Y-2794000D03*
%TO.N,LCD_RS*%
X12192000Y-2794000D03*
%TO.N,LCD_X+*%
X2794000Y0D03*
%TO.N,LCD_Y+*%
X1778000Y1016000D03*
%TO.N,LCD_X-*%
X762000Y-762000D03*
%TO.N,LCD_Y-*%
X-254000Y2286000D03*
%TO.N,N$1*%
X-3556000Y-10922000D03*
%TO.N,N$2*%
X2794000Y-10922000D03*
%TO.N,N$3*%
X508000Y-10922000D03*
%TO.N,N$4*%
X-1524000Y-11176000D03*
%TO.N,LCD_RD_5V*%
X11176000Y11684000D03*
X-1778000Y5588000D03*
%TO.N,VCC*%
X-1524000Y-3048000D03*
X-1524000Y1016000D03*
X20066000Y-3048000D03*
X-12954000Y-10668000D03*
%TD*%
%TO.N,GND*%
D16*
X1778000Y-18796000D02*
X-9652000Y-18796000D01*
X18034000Y-6520000D02*
X18034000Y-6604000D01*
X14902000Y-6520000D02*
X14000000Y-6520000D01*
X-2032000Y-4318000D02*
X-2032000Y-6520000D01*
X-2286000Y-4318000D02*
X-2032000Y-4318000D01*
X18000000Y-6520000D02*
X18000000Y-4606000D01*
X-9652000Y9144000D02*
X-2794000Y2286000D01*
X-12968000Y-15494000D02*
X-15000000Y-13462000D01*
X-16000000Y-6520000D02*
X-17000000Y-6520000D01*
X-3810000Y-9144000D02*
X-9906000Y-9144000D01*
X-9906000Y-9144000D02*
X-10414000Y-9652000D01*
X18000000Y-4606000D02*
X18796000Y-3810000D01*
X-12954000Y-15494000D02*
X-12968000Y-15494000D01*
X-9652000Y9144000D02*
X-14478000Y9144000D01*
X-3000000Y-8334000D02*
X-3810000Y-9144000D01*
X17000000Y-6520000D02*
X18000000Y-6520000D01*
X-9652000Y-18796000D02*
X-12954000Y-15494000D01*
X16002000Y-6520000D02*
X16000000Y-6520000D01*
X-15000000Y-13462000D02*
X-15000000Y-6520000D01*
X16000000Y-6520000D02*
X16000000Y-6602000D01*
X-2032000Y-6520000D02*
X-2000000Y-6520000D01*
X16086000Y-6520000D02*
X17000000Y-6520000D01*
X-3000000Y-6520000D02*
X-3000000Y-8334000D01*
X16002000Y-6520000D02*
X16002000Y-6604000D01*
X15000000Y-6520000D02*
X16002000Y-6520000D01*
X18000000Y-6520000D02*
X18034000Y-6520000D01*
X-15000000Y-6520000D02*
X-16000000Y-6520000D01*
X-17000000Y-6520000D02*
X-18000000Y-6520000D01*
X-2000000Y-6520000D02*
X-3000000Y-6520000D01*
X15000000Y-6520000D02*
X15000000Y-6590000D01*
X15000000Y-6590000D02*
G75*
G02*
X14986000Y-6604000I-14000J0D01*
G01*
X14986000Y-6604000D02*
G75*
G03*
X14902000Y-6520000I-84000J0D01*
G01*
X16002000Y-6604000D02*
G75*
G02*
X16086000Y-6520000I84000J0D01*
G01*
X16002000Y-6604000D02*
G75*
G02*
X16000000Y-6602000I0J2000D01*
G01*
%TO.N,LCD_RST*%
X-12000000Y-9590000D02*
X-12000000Y-6520000D01*
X-10922000Y-10668000D02*
X-12000000Y-9590000D01*
X8636000Y-12700000D02*
X-3302000Y-12700000D01*
X-3302000Y-12700000D02*
X-5334000Y-10668000D01*
X-5334000Y-10668000D02*
X-10922000Y-10668000D01*
X8636000Y-11684000D02*
X8636000Y-12700000D01*
%TO.N,LCD_DATA8*%
X-11000000Y-6520000D02*
X-11000000Y-6780000D01*
X-12954000Y-3810000D02*
X-12446000Y-4318000D01*
X-12446000Y-4318000D02*
X-11684000Y-4318000D01*
X-10922000Y-6442000D02*
X-11000000Y-6520000D01*
X-10922000Y-5080000D02*
X-10922000Y-6442000D01*
X-11684000Y-4318000D02*
X-10922000Y-5080000D01*
%TO.N,LCD_DATA7*%
X-11430000Y-3302000D02*
X-10000000Y-4732000D01*
X-11684000Y-3302000D02*
X-11430000Y-3302000D01*
X-10000000Y-4732000D02*
X-10000000Y-6520000D01*
%TO.N,LCD_DATA6*%
X-9000000Y-4462000D02*
X-9000000Y-6520000D01*
X-10160000Y-3048000D02*
X-10160000Y-3302000D01*
X-10160000Y-3302000D02*
X-9000000Y-4462000D01*
%TO.N,LCD_DATA5*%
X-8000000Y-4192000D02*
X-8000000Y-6520000D01*
X-8890000Y-3048000D02*
X-8000000Y-4192000D01*
%TO.N,LCD_DATA4*%
X-7620000Y-3048000D02*
X-7000000Y-3922000D01*
X-7000000Y-3922000D02*
X-7000000Y-6520000D01*
%TO.N,LCD_DATA3*%
X-6000000Y-3398000D02*
X-6000000Y-6520000D01*
X-6350000Y-3048000D02*
X-6000000Y-3398000D01*
%TO.N,LCD_DATA2*%
X-4826000Y-3048000D02*
X-5000000Y-3984000D01*
X-5000000Y-3984000D02*
X-5000000Y-6520000D01*
%TO.N,LCD_DATA1*%
X-3810000Y-4064000D02*
X-4000000Y-4762000D01*
X-4000000Y-4762000D02*
X-4000000Y-6520000D01*
%TO.N,LCD_CS*%
X12000000Y-6520000D02*
X12000000Y-4764000D01*
X12000000Y-4764000D02*
X13716000Y-3048000D01*
%TO.N,LCD_WR*%
X10000000Y-6520000D02*
X10000000Y-3970000D01*
X10000000Y-3970000D02*
X10160000Y-4064000D01*
%TO.N,LCD_RD*%
X9000000Y-6520000D02*
X9000000Y-3446000D01*
X9000000Y-3446000D02*
X9652000Y-2794000D01*
%TO.N,LCD_RS*%
X11000000Y-6520000D02*
X11000000Y-4748000D01*
X11000000Y-4748000D02*
X11684000Y-4064000D01*
X11684000Y-4064000D02*
X11684000Y-3302000D01*
X11684000Y-3302000D02*
X12192000Y-2794000D01*
%TO.N,LCD_X+*%
X7000000Y-6520000D02*
X7000000Y-142000D01*
X6858000Y0D02*
X2794000Y0D01*
X7000000Y-142000D02*
X6858000Y0D01*
%TO.N,LCD_Y+*%
X6096000Y-1016000D02*
X2286000Y-1016000D01*
X1778000Y-508000D02*
X1778000Y1016000D01*
X2286000Y-1016000D02*
X1778000Y-508000D01*
X6096000Y-5842000D02*
X6096000Y-1016000D01*
X6000000Y-6520000D02*
X6096000Y-5842000D01*
%TO.N,LCD_X-*%
X762000Y-762000D02*
X762000Y-1270000D01*
X762000Y-1270000D02*
X1524000Y-2032000D01*
X5080000Y-2032000D02*
X5080000Y-5668000D01*
X5080000Y-5668000D02*
X5000000Y-6520000D01*
X1524000Y-2032000D02*
X5080000Y-2032000D01*
%TO.N,LCD_Y-*%
X-254000Y2286000D02*
X-254000Y-2794000D01*
X4000000Y-2984000D02*
X4000000Y-6520000D01*
X-254000Y-2794000D02*
X3810000Y-2794000D01*
X3810000Y-2794000D02*
X4000000Y-2984000D01*
%TO.N,N$1*%
X-1000000Y-9382000D02*
X-1524000Y-9906000D01*
X-1524000Y-9906000D02*
X-2540000Y-9906000D01*
X-1000000Y-6520000D02*
X-1000000Y-9382000D01*
X-2540000Y-9906000D02*
X-3556000Y-10922000D01*
%TO.N,N$2*%
X2000000Y-6520000D02*
X2000000Y-10128000D01*
X2000000Y-10128000D02*
X2794000Y-10922000D01*
%TO.N,N$3*%
X1000000Y-6520000D02*
X1000000Y-10430000D01*
X1000000Y-10430000D02*
X508000Y-10922000D01*
%TO.N,N$4*%
X0Y-9652000D02*
X-1524000Y-11176000D01*
X0Y-6520000D02*
X0Y-9652000D01*
%TO.N,LCD_RD_5V*%
X5080000Y5588000D02*
X11176000Y11684000D01*
X-1778000Y5588000D02*
X5080000Y5588000D01*
%TO.N,VCC*%
X-762000Y-3810000D02*
X2794000Y-3810000D01*
X3000000Y-6520000D02*
X3000000Y-9350000D01*
X-13084000Y-6604000D02*
X-13000000Y-6520000D01*
X-1524000Y1016000D02*
X-13716000Y1016000D01*
X20066000Y-2540000D02*
X20066000Y-3048000D01*
X14478000Y-4318000D02*
X16256000Y-2540000D01*
X3810000Y-10160000D02*
X7366000Y-10160000D01*
X8002000Y-9526000D02*
X8636000Y-10160000D01*
X12446000Y-10160000D02*
X13000000Y-9606000D01*
X16256000Y-2540000D02*
X20066000Y-2540000D01*
X-13462000Y-10160000D02*
X-12954000Y-10668000D01*
X13000000Y-9606000D02*
X13000000Y-6520000D01*
X-13716000Y1016000D02*
X-13970000Y762000D01*
X-13462000Y-6604000D02*
X-13084000Y-6604000D01*
X-13462000Y-6604000D02*
X-13462000Y-10160000D01*
X13716000Y-4318000D02*
X14478000Y-4318000D01*
X8000000Y-9526000D02*
X8000000Y-6520000D01*
X-1524000Y-3048000D02*
X-762000Y-3810000D01*
X13000000Y-6520000D02*
X13000000Y-5034000D01*
X8000000Y-9526000D02*
X8002000Y-9526000D01*
X8636000Y-10160000D02*
X12446000Y-10160000D01*
X-13970000Y-6604000D02*
X-13462000Y-6604000D01*
X-13970000Y762000D02*
X-13970000Y-5304000D01*
X3000000Y-6520000D02*
X3000000Y-6810000D01*
X13000000Y-5034000D02*
X13716000Y-4318000D01*
X-14000000Y-6520000D02*
X-13970000Y-6550000D01*
X-13970000Y-6550000D02*
X-13970000Y-6604000D01*
X7366000Y-10160000D02*
X8000000Y-9526000D01*
X3000000Y-6810000D02*
X3048000Y-6858000D01*
X-13970000Y-5304000D02*
X-14000000Y-6520000D01*
X3000000Y-4016000D02*
X3000000Y-6520000D01*
X3000000Y-9350000D02*
X3810000Y-10160000D01*
X2794000Y-3810000D02*
X3000000Y-4016000D01*
%TD*%
M02*
