%TF.GenerationSoftware,KiCad,Pcbnew,10.99.0-3758-g2f18d95be7*%
%TF.CreationDate,2026-09-13T07:18:18+01:00*%
%TF.ProjectId,kicad_file,6b696361-645f-4666-996c-652e6b696361,rev?*%
%TF.SameCoordinates,Original*%
%TF.FileFunction,Legend,Top*%
%TF.FilePolarity,Positive*%
%FSLAX46Y46*%
G04 Gerber Fmt 4.6, Leading zero omitted, Abs format (unit mm)*
G04 Created by KiCad (PCBNEW 10.99.0-3758-g2f18d95be7) date 2026-09-13 07:18:18*
%MOMM*%
%LPD*%
G01*
G04 APERTURE LIST*
G04 Aperture macros list*
%AMRoundRect*
0 Rectangle with rounded corners*
0 $1 Rounding radius*
0 $2 $3 $4 $5 $6 $7 $8 $9 X,Y pos of 4 corners*
0 Add a 4 corners polygon primitive as box body*
4,1,4,$2,$3,$4,$5,$6,$7,$8,$9,$2,$3,0*
0 Add four circle primitives for the rounded corners*
1,1,$1+$1,$2,$3*
1,1,$1+$1,$4,$5*
1,1,$1+$1,$6,$7*
1,1,$1+$1,$8,$9*
0 Add four rect primitives between the rounded corners*
20,1,$1+$1,$2,$3,$4,$5,0*
20,1,$1+$1,$4,$5,$6,$7,0*
20,1,$1+$1,$6,$7,$8,$9,0*
20,1,$1+$1,$8,$9,$2,$3,0*%
G04 Aperture macros list end*
%ADD10C,0.065024*%
%ADD11C,0.101600*%
%ADD12C,0.113792*%
%ADD13C,0.142240*%
%ADD14C,0.127000*%
%ADD15C,0.032512*%
%ADD16C,0.081280*%
%ADD17C,0.170688*%
%ADD18C,0.177800*%
%ADD19C,0.000000*%
%ADD20C,0.250000*%
%ADD21C,0.152400*%
%ADD22C,0.254000*%
%ADD23C,1.508000*%
%ADD24C,2.200000*%
%ADD25RoundRect,0.601600X-0.000010X-0.000010X0.000010X-0.000010X0.000010X0.000010X-0.000010X0.000010X0*%
G04 APERTURE END LIST*
D10*
X10126819Y29803411D02*
X10126819Y29304894D01*
X10126819Y29732195D02*
X10162428Y29767803D01*
X10162428Y29767803D02*
X10233645Y29803411D01*
X10233645Y29803411D02*
X10340470Y29803411D01*
X10340470Y29803411D02*
X10411686Y29767803D01*
X10411686Y29767803D02*
X10447295Y29696586D01*
X10447295Y29696586D02*
X10447295Y29304894D01*
X10910204Y29304894D02*
X10838987Y29340503D01*
X10838987Y29340503D02*
X10803378Y29376111D01*
X10803378Y29376111D02*
X10767770Y29447328D01*
X10767770Y29447328D02*
X10767770Y29660978D01*
X10767770Y29660978D02*
X10803378Y29732195D01*
X10803378Y29732195D02*
X10838987Y29767803D01*
X10838987Y29767803D02*
X10910204Y29803411D01*
X10910204Y29803411D02*
X11017029Y29803411D01*
X11017029Y29803411D02*
X11088245Y29767803D01*
X11088245Y29767803D02*
X11123854Y29732195D01*
X11123854Y29732195D02*
X11159462Y29660978D01*
X11159462Y29660978D02*
X11159462Y29447328D01*
X11159462Y29447328D02*
X11123854Y29376111D01*
X11123854Y29376111D02*
X11088245Y29340503D01*
X11088245Y29340503D02*
X11017029Y29304894D01*
X11017029Y29304894D02*
X10910204Y29304894D01*
X12049671Y29803411D02*
X12049671Y29055635D01*
X12049671Y29767803D02*
X12120888Y29803411D01*
X12120888Y29803411D02*
X12263322Y29803411D01*
X12263322Y29803411D02*
X12334538Y29767803D01*
X12334538Y29767803D02*
X12370147Y29732195D01*
X12370147Y29732195D02*
X12405755Y29660978D01*
X12405755Y29660978D02*
X12405755Y29447328D01*
X12405755Y29447328D02*
X12370147Y29376111D01*
X12370147Y29376111D02*
X12334538Y29340503D01*
X12334538Y29340503D02*
X12263322Y29304894D01*
X12263322Y29304894D02*
X12120888Y29304894D01*
X12120888Y29304894D02*
X12049671Y29340503D01*
X12726230Y29304894D02*
X12726230Y29803411D01*
X12726230Y29660978D02*
X12761839Y29732195D01*
X12761839Y29732195D02*
X12797447Y29767803D01*
X12797447Y29767803D02*
X12868664Y29803411D01*
X12868664Y29803411D02*
X12939881Y29803411D01*
X13295965Y29304894D02*
X13224748Y29340503D01*
X13224748Y29340503D02*
X13189139Y29376111D01*
X13189139Y29376111D02*
X13153531Y29447328D01*
X13153531Y29447328D02*
X13153531Y29660978D01*
X13153531Y29660978D02*
X13189139Y29732195D01*
X13189139Y29732195D02*
X13224748Y29767803D01*
X13224748Y29767803D02*
X13295965Y29803411D01*
X13295965Y29803411D02*
X13402790Y29803411D01*
X13402790Y29803411D02*
X13474006Y29767803D01*
X13474006Y29767803D02*
X13509615Y29732195D01*
X13509615Y29732195D02*
X13545223Y29660978D01*
X13545223Y29660978D02*
X13545223Y29447328D01*
X13545223Y29447328D02*
X13509615Y29376111D01*
X13509615Y29376111D02*
X13474006Y29340503D01*
X13474006Y29340503D02*
X13402790Y29304894D01*
X13402790Y29304894D02*
X13295965Y29304894D01*
X13758873Y29803411D02*
X14043740Y29803411D01*
X13865698Y30052670D02*
X13865698Y29411719D01*
X13865698Y29411719D02*
X13901307Y29340503D01*
X13901307Y29340503D02*
X13972524Y29304894D01*
X13972524Y29304894D02*
X14043740Y29304894D01*
X14577866Y29340503D02*
X14506650Y29304894D01*
X14506650Y29304894D02*
X14364216Y29304894D01*
X14364216Y29304894D02*
X14292999Y29340503D01*
X14292999Y29340503D02*
X14257391Y29411719D01*
X14257391Y29411719D02*
X14257391Y29696586D01*
X14257391Y29696586D02*
X14292999Y29767803D01*
X14292999Y29767803D02*
X14364216Y29803411D01*
X14364216Y29803411D02*
X14506650Y29803411D01*
X14506650Y29803411D02*
X14577866Y29767803D01*
X14577866Y29767803D02*
X14613475Y29696586D01*
X14613475Y29696586D02*
X14613475Y29625370D01*
X14613475Y29625370D02*
X14257391Y29554153D01*
X15254426Y29340503D02*
X15183209Y29304894D01*
X15183209Y29304894D02*
X15040776Y29304894D01*
X15040776Y29304894D02*
X14969559Y29340503D01*
X14969559Y29340503D02*
X14933950Y29376111D01*
X14933950Y29376111D02*
X14898342Y29447328D01*
X14898342Y29447328D02*
X14898342Y29660978D01*
X14898342Y29660978D02*
X14933950Y29732195D01*
X14933950Y29732195D02*
X14969559Y29767803D01*
X14969559Y29767803D02*
X15040776Y29803411D01*
X15040776Y29803411D02*
X15183209Y29803411D01*
X15183209Y29803411D02*
X15254426Y29767803D01*
X15468076Y29803411D02*
X15752943Y29803411D01*
X15574901Y30052670D02*
X15574901Y29411719D01*
X15574901Y29411719D02*
X15610510Y29340503D01*
X15610510Y29340503D02*
X15681727Y29304894D01*
X15681727Y29304894D02*
X15752943Y29304894D01*
D11*
X6418051Y33392035D02*
X6306775Y33447673D01*
X6306775Y33447673D02*
X6139861Y33447673D01*
X6139861Y33447673D02*
X5972946Y33392035D01*
X5972946Y33392035D02*
X5861670Y33280759D01*
X5861670Y33280759D02*
X5806032Y33169483D01*
X5806032Y33169483D02*
X5750394Y32946931D01*
X5750394Y32946931D02*
X5750394Y32780016D01*
X5750394Y32780016D02*
X5806032Y32557464D01*
X5806032Y32557464D02*
X5861670Y32446188D01*
X5861670Y32446188D02*
X5972946Y32334912D01*
X5972946Y32334912D02*
X6139861Y32279273D01*
X6139861Y32279273D02*
X6251137Y32279273D01*
X6251137Y32279273D02*
X6418051Y32334912D01*
X6418051Y32334912D02*
X6473689Y32390550D01*
X6473689Y32390550D02*
X6473689Y32780016D01*
X6473689Y32780016D02*
X6251137Y32780016D01*
X7196984Y33447673D02*
X7419537Y33447673D01*
X7419537Y33447673D02*
X7530813Y33392035D01*
X7530813Y33392035D02*
X7642089Y33280759D01*
X7642089Y33280759D02*
X7697727Y33058207D01*
X7697727Y33058207D02*
X7697727Y32668740D01*
X7697727Y32668740D02*
X7642089Y32446188D01*
X7642089Y32446188D02*
X7530813Y32334912D01*
X7530813Y32334912D02*
X7419537Y32279273D01*
X7419537Y32279273D02*
X7196984Y32279273D01*
X7196984Y32279273D02*
X7085708Y32334912D01*
X7085708Y32334912D02*
X6974432Y32446188D01*
X6974432Y32446188D02*
X6918794Y32668740D01*
X6918794Y32668740D02*
X6918794Y33058207D01*
X6918794Y33058207D02*
X6974432Y33280759D01*
X6974432Y33280759D02*
X7085708Y33392035D01*
X7085708Y33392035D02*
X7196984Y33447673D01*
X8421022Y33447673D02*
X8643575Y33447673D01*
X8643575Y33447673D02*
X8754851Y33392035D01*
X8754851Y33392035D02*
X8866127Y33280759D01*
X8866127Y33280759D02*
X8921765Y33058207D01*
X8921765Y33058207D02*
X8921765Y32668740D01*
X8921765Y32668740D02*
X8866127Y32446188D01*
X8866127Y32446188D02*
X8754851Y32334912D01*
X8754851Y32334912D02*
X8643575Y32279273D01*
X8643575Y32279273D02*
X8421022Y32279273D01*
X8421022Y32279273D02*
X8309746Y32334912D01*
X8309746Y32334912D02*
X8198470Y32446188D01*
X8198470Y32446188D02*
X8142832Y32668740D01*
X8142832Y32668740D02*
X8142832Y33058207D01*
X8142832Y33058207D02*
X8198470Y33280759D01*
X8198470Y33280759D02*
X8309746Y33392035D01*
X8309746Y33392035D02*
X8421022Y33447673D01*
X9422508Y32279273D02*
X9422508Y33447673D01*
X9422508Y33447673D02*
X9700698Y33447673D01*
X9700698Y33447673D02*
X9867613Y33392035D01*
X9867613Y33392035D02*
X9978889Y33280759D01*
X9978889Y33280759D02*
X10034527Y33169483D01*
X10034527Y33169483D02*
X10090165Y32946931D01*
X10090165Y32946931D02*
X10090165Y32780016D01*
X10090165Y32780016D02*
X10034527Y32557464D01*
X10034527Y32557464D02*
X9978889Y32446188D01*
X9978889Y32446188D02*
X9867613Y32334912D01*
X9867613Y32334912D02*
X9700698Y32279273D01*
X9700698Y32279273D02*
X9422508Y32279273D01*
X6314032Y33803273D02*
X6314032Y34971673D01*
X6314032Y34971673D02*
X6759137Y34971673D01*
X6759137Y34971673D02*
X6870413Y34916035D01*
X6870413Y34916035D02*
X6926051Y34860397D01*
X6926051Y34860397D02*
X6981689Y34749121D01*
X6981689Y34749121D02*
X6981689Y34582207D01*
X6981689Y34582207D02*
X6926051Y34470931D01*
X6926051Y34470931D02*
X6870413Y34415292D01*
X6870413Y34415292D02*
X6759137Y34359654D01*
X6759137Y34359654D02*
X6314032Y34359654D01*
X7371156Y34971673D02*
X7649346Y33803273D01*
X7649346Y33803273D02*
X7871899Y34637845D01*
X7871899Y34637845D02*
X8094451Y33803273D01*
X8094451Y33803273D02*
X8372642Y34971673D01*
X9485403Y33803273D02*
X9095936Y34359654D01*
X8817746Y33803273D02*
X8817746Y34971673D01*
X8817746Y34971673D02*
X9262851Y34971673D01*
X9262851Y34971673D02*
X9374127Y34916035D01*
X9374127Y34916035D02*
X9429765Y34860397D01*
X9429765Y34860397D02*
X9485403Y34749121D01*
X9485403Y34749121D02*
X9485403Y34582207D01*
X9485403Y34582207D02*
X9429765Y34470931D01*
X9429765Y34470931D02*
X9374127Y34415292D01*
X9374127Y34415292D02*
X9262851Y34359654D01*
X9262851Y34359654D02*
X8817746Y34359654D01*
X11775032Y30501273D02*
X11775032Y31669673D01*
X11775032Y31669673D02*
X12053222Y31669673D01*
X12053222Y31669673D02*
X12220137Y31614035D01*
X12220137Y31614035D02*
X12331413Y31502759D01*
X12331413Y31502759D02*
X12387051Y31391483D01*
X12387051Y31391483D02*
X12442689Y31168931D01*
X12442689Y31168931D02*
X12442689Y31002016D01*
X12442689Y31002016D02*
X12387051Y30779464D01*
X12387051Y30779464D02*
X12331413Y30668188D01*
X12331413Y30668188D02*
X12220137Y30556912D01*
X12220137Y30556912D02*
X12053222Y30501273D01*
X12053222Y30501273D02*
X11775032Y30501273D01*
X13611089Y30612550D02*
X13555451Y30556912D01*
X13555451Y30556912D02*
X13388537Y30501273D01*
X13388537Y30501273D02*
X13277261Y30501273D01*
X13277261Y30501273D02*
X13110346Y30556912D01*
X13110346Y30556912D02*
X12999070Y30668188D01*
X12999070Y30668188D02*
X12943432Y30779464D01*
X12943432Y30779464D02*
X12887794Y31002016D01*
X12887794Y31002016D02*
X12887794Y31168931D01*
X12887794Y31168931D02*
X12943432Y31391483D01*
X12943432Y31391483D02*
X12999070Y31502759D01*
X12999070Y31502759D02*
X13110346Y31614035D01*
X13110346Y31614035D02*
X13277261Y31669673D01*
X13277261Y31669673D02*
X13388537Y31669673D01*
X13388537Y31669673D02*
X13555451Y31614035D01*
X13555451Y31614035D02*
X13611089Y31558397D01*
X14111832Y30501273D02*
X14111832Y31669673D01*
X14668213Y30501273D02*
X14668213Y31669673D01*
X14668213Y31669673D02*
X15335870Y30501273D01*
X15335870Y30501273D02*
X15335870Y31669673D01*
X17141689Y9784550D02*
X17086051Y9728912D01*
X17086051Y9728912D02*
X16919137Y9673273D01*
X16919137Y9673273D02*
X16807861Y9673273D01*
X16807861Y9673273D02*
X16640946Y9728912D01*
X16640946Y9728912D02*
X16529670Y9840188D01*
X16529670Y9840188D02*
X16474032Y9951464D01*
X16474032Y9951464D02*
X16418394Y10174016D01*
X16418394Y10174016D02*
X16418394Y10340931D01*
X16418394Y10340931D02*
X16474032Y10563483D01*
X16474032Y10563483D02*
X16529670Y10674759D01*
X16529670Y10674759D02*
X16640946Y10786035D01*
X16640946Y10786035D02*
X16807861Y10841673D01*
X16807861Y10841673D02*
X16919137Y10841673D01*
X16919137Y10841673D02*
X17086051Y10786035D01*
X17086051Y10786035D02*
X17141689Y10730397D01*
X17642432Y9673273D02*
X17642432Y10841673D01*
X17642432Y10285292D02*
X18310089Y10285292D01*
X18310089Y9673273D02*
X18310089Y10841673D01*
X19534127Y9673273D02*
X19144660Y10229654D01*
X18866470Y9673273D02*
X18866470Y10841673D01*
X18866470Y10841673D02*
X19311575Y10841673D01*
X19311575Y10841673D02*
X19422851Y10786035D01*
X19422851Y10786035D02*
X19478489Y10730397D01*
X19478489Y10730397D02*
X19534127Y10619121D01*
X19534127Y10619121D02*
X19534127Y10452207D01*
X19534127Y10452207D02*
X19478489Y10340931D01*
X19478489Y10340931D02*
X19422851Y10285292D01*
X19422851Y10285292D02*
X19311575Y10229654D01*
X19311575Y10229654D02*
X18866470Y10229654D01*
X20646889Y10786035D02*
X20535613Y10841673D01*
X20535613Y10841673D02*
X20368699Y10841673D01*
X20368699Y10841673D02*
X20201784Y10786035D01*
X20201784Y10786035D02*
X20090508Y10674759D01*
X20090508Y10674759D02*
X20034870Y10563483D01*
X20034870Y10563483D02*
X19979232Y10340931D01*
X19979232Y10340931D02*
X19979232Y10174016D01*
X19979232Y10174016D02*
X20034870Y9951464D01*
X20034870Y9951464D02*
X20090508Y9840188D01*
X20090508Y9840188D02*
X20201784Y9728912D01*
X20201784Y9728912D02*
X20368699Y9673273D01*
X20368699Y9673273D02*
X20479975Y9673273D01*
X20479975Y9673273D02*
X20646889Y9728912D01*
X20646889Y9728912D02*
X20702527Y9784550D01*
X20702527Y9784550D02*
X20702527Y10174016D01*
X20702527Y10174016D02*
X20479975Y10174016D01*
X21808032Y24405273D02*
X21808032Y25573673D01*
X21808032Y25573673D02*
X22086222Y25573673D01*
X22086222Y25573673D02*
X22253137Y25518035D01*
X22253137Y25518035D02*
X22364413Y25406759D01*
X22364413Y25406759D02*
X22420051Y25295483D01*
X22420051Y25295483D02*
X22475689Y25072931D01*
X22475689Y25072931D02*
X22475689Y24906016D01*
X22475689Y24906016D02*
X22420051Y24683464D01*
X22420051Y24683464D02*
X22364413Y24572188D01*
X22364413Y24572188D02*
X22253137Y24460912D01*
X22253137Y24460912D02*
X22086222Y24405273D01*
X22086222Y24405273D02*
X21808032Y24405273D01*
X22920794Y25462397D02*
X22976432Y25518035D01*
X22976432Y25518035D02*
X23087708Y25573673D01*
X23087708Y25573673D02*
X23365899Y25573673D01*
X23365899Y25573673D02*
X23477175Y25518035D01*
X23477175Y25518035D02*
X23532813Y25462397D01*
X23532813Y25462397D02*
X23588451Y25351121D01*
X23588451Y25351121D02*
X23588451Y25239845D01*
X23588451Y25239845D02*
X23532813Y25072931D01*
X23532813Y25072931D02*
X22865156Y24405273D01*
X22865156Y24405273D02*
X23588451Y24405273D01*
X24094032Y9673273D02*
X24094032Y10841673D01*
X24094032Y10841673D02*
X24372222Y10841673D01*
X24372222Y10841673D02*
X24539137Y10786035D01*
X24539137Y10786035D02*
X24650413Y10674759D01*
X24650413Y10674759D02*
X24706051Y10563483D01*
X24706051Y10563483D02*
X24761689Y10340931D01*
X24761689Y10340931D02*
X24761689Y10174016D01*
X24761689Y10174016D02*
X24706051Y9951464D01*
X24706051Y9951464D02*
X24650413Y9840188D01*
X24650413Y9840188D02*
X24539137Y9728912D01*
X24539137Y9728912D02*
X24372222Y9673273D01*
X24372222Y9673273D02*
X24094032Y9673273D01*
X25484984Y10841673D02*
X25707537Y10841673D01*
X25707537Y10841673D02*
X25818813Y10786035D01*
X25818813Y10786035D02*
X25930089Y10674759D01*
X25930089Y10674759D02*
X25985727Y10452207D01*
X25985727Y10452207D02*
X25985727Y10062740D01*
X25985727Y10062740D02*
X25930089Y9840188D01*
X25930089Y9840188D02*
X25818813Y9728912D01*
X25818813Y9728912D02*
X25707537Y9673273D01*
X25707537Y9673273D02*
X25484984Y9673273D01*
X25484984Y9673273D02*
X25373708Y9728912D01*
X25373708Y9728912D02*
X25262432Y9840188D01*
X25262432Y9840188D02*
X25206794Y10062740D01*
X25206794Y10062740D02*
X25206794Y10452207D01*
X25206794Y10452207D02*
X25262432Y10674759D01*
X25262432Y10674759D02*
X25373708Y10786035D01*
X25373708Y10786035D02*
X25484984Y10841673D01*
X26486470Y9673273D02*
X26486470Y10841673D01*
X26486470Y10841673D02*
X27154127Y9673273D01*
X27154127Y9673273D02*
X27154127Y10841673D01*
X27710508Y10285292D02*
X28099975Y10285292D01*
X28266889Y9673273D02*
X27710508Y9673273D01*
X27710508Y9673273D02*
X27710508Y10841673D01*
X27710508Y10841673D02*
X28266889Y10841673D01*
X29428032Y22627273D02*
X29428032Y23795673D01*
X29428032Y23795673D02*
X29706222Y23795673D01*
X29706222Y23795673D02*
X29873137Y23740035D01*
X29873137Y23740035D02*
X29984413Y23628759D01*
X29984413Y23628759D02*
X30040051Y23517483D01*
X30040051Y23517483D02*
X30095689Y23294931D01*
X30095689Y23294931D02*
X30095689Y23128016D01*
X30095689Y23128016D02*
X30040051Y22905464D01*
X30040051Y22905464D02*
X29984413Y22794188D01*
X29984413Y22794188D02*
X29873137Y22682912D01*
X29873137Y22682912D02*
X29706222Y22627273D01*
X29706222Y22627273D02*
X29428032Y22627273D01*
X31208451Y22627273D02*
X30540794Y22627273D01*
X30874622Y22627273D02*
X30874622Y23795673D01*
X30874622Y23795673D02*
X30763346Y23628759D01*
X30763346Y23628759D02*
X30652070Y23517483D01*
X30652070Y23517483D02*
X30540794Y23461845D01*
X2264726Y18633032D02*
X1096326Y18633032D01*
X1096326Y18633032D02*
X1096326Y19078137D01*
X1096326Y19078137D02*
X1151964Y19189413D01*
X1151964Y19189413D02*
X1207602Y19245051D01*
X1207602Y19245051D02*
X1318878Y19300689D01*
X1318878Y19300689D02*
X1485792Y19300689D01*
X1485792Y19300689D02*
X1597068Y19245051D01*
X1597068Y19245051D02*
X1652707Y19189413D01*
X1652707Y19189413D02*
X1708345Y19078137D01*
X1708345Y19078137D02*
X1708345Y18633032D01*
X2264726Y20469089D02*
X1708345Y20079622D01*
X2264726Y19801432D02*
X1096326Y19801432D01*
X1096326Y19801432D02*
X1096326Y20246537D01*
X1096326Y20246537D02*
X1151964Y20357813D01*
X1151964Y20357813D02*
X1207602Y20413451D01*
X1207602Y20413451D02*
X1318878Y20469089D01*
X1318878Y20469089D02*
X1485792Y20469089D01*
X1485792Y20469089D02*
X1597068Y20413451D01*
X1597068Y20413451D02*
X1652707Y20357813D01*
X1652707Y20357813D02*
X1708345Y20246537D01*
X1708345Y20246537D02*
X1708345Y19801432D01*
X1096326Y21192384D02*
X1096326Y21414937D01*
X1096326Y21414937D02*
X1151964Y21526213D01*
X1151964Y21526213D02*
X1263240Y21637489D01*
X1263240Y21637489D02*
X1485792Y21693127D01*
X1485792Y21693127D02*
X1875259Y21693127D01*
X1875259Y21693127D02*
X2097811Y21637489D01*
X2097811Y21637489D02*
X2209088Y21526213D01*
X2209088Y21526213D02*
X2264726Y21414937D01*
X2264726Y21414937D02*
X2264726Y21192384D01*
X2264726Y21192384D02*
X2209088Y21081108D01*
X2209088Y21081108D02*
X2097811Y20969832D01*
X2097811Y20969832D02*
X1875259Y20914194D01*
X1875259Y20914194D02*
X1485792Y20914194D01*
X1485792Y20914194D02*
X1263240Y20969832D01*
X1263240Y20969832D02*
X1151964Y21081108D01*
X1151964Y21081108D02*
X1096326Y21192384D01*
X1151964Y22805889D02*
X1096326Y22694613D01*
X1096326Y22694613D02*
X1096326Y22527699D01*
X1096326Y22527699D02*
X1151964Y22360784D01*
X1151964Y22360784D02*
X1263240Y22249508D01*
X1263240Y22249508D02*
X1374516Y22193870D01*
X1374516Y22193870D02*
X1597068Y22138232D01*
X1597068Y22138232D02*
X1763983Y22138232D01*
X1763983Y22138232D02*
X1986535Y22193870D01*
X1986535Y22193870D02*
X2097811Y22249508D01*
X2097811Y22249508D02*
X2209088Y22360784D01*
X2209088Y22360784D02*
X2264726Y22527699D01*
X2264726Y22527699D02*
X2264726Y22638975D01*
X2264726Y22638975D02*
X2209088Y22805889D01*
X2209088Y22805889D02*
X2153449Y22861527D01*
X2153449Y22861527D02*
X1763983Y22861527D01*
X1763983Y22861527D02*
X1763983Y22638975D01*
X8081326Y17958118D02*
X8081326Y18625775D01*
X9249726Y18291946D02*
X8081326Y18291946D01*
X9249726Y19015242D02*
X8081326Y19015242D01*
X8637707Y19015242D02*
X8637707Y19682899D01*
X9249726Y19682899D02*
X8081326Y19682899D01*
X8637707Y20239280D02*
X8637707Y20628747D01*
X9249726Y20795661D02*
X9249726Y20239280D01*
X9249726Y20239280D02*
X8081326Y20239280D01*
X8081326Y20239280D02*
X8081326Y20795661D01*
X9249726Y21964061D02*
X8693345Y21574594D01*
X9249726Y21296404D02*
X8081326Y21296404D01*
X8081326Y21296404D02*
X8081326Y21741509D01*
X8081326Y21741509D02*
X8136964Y21852785D01*
X8136964Y21852785D02*
X8192602Y21908423D01*
X8192602Y21908423D02*
X8303878Y21964061D01*
X8303878Y21964061D02*
X8470792Y21964061D01*
X8470792Y21964061D02*
X8582068Y21908423D01*
X8582068Y21908423D02*
X8637707Y21852785D01*
X8637707Y21852785D02*
X8693345Y21741509D01*
X8693345Y21741509D02*
X8693345Y21296404D01*
X9249726Y22464804D02*
X8081326Y22464804D01*
X8081326Y22464804D02*
X8915897Y22854271D01*
X8915897Y22854271D02*
X8081326Y23243737D01*
X8081326Y23243737D02*
X9249726Y23243737D01*
X11789726Y23872689D02*
X11233345Y23483222D01*
X11789726Y23205032D02*
X10621326Y23205032D01*
X10621326Y23205032D02*
X10621326Y23650137D01*
X10621326Y23650137D02*
X10676964Y23761413D01*
X10676964Y23761413D02*
X10732602Y23817051D01*
X10732602Y23817051D02*
X10843878Y23872689D01*
X10843878Y23872689D02*
X11010792Y23872689D01*
X11010792Y23872689D02*
X11122068Y23817051D01*
X11122068Y23817051D02*
X11177707Y23761413D01*
X11177707Y23761413D02*
X11233345Y23650137D01*
X11233345Y23650137D02*
X11233345Y23205032D01*
X10621326Y24929813D02*
X10621326Y24373432D01*
X10621326Y24373432D02*
X11177707Y24317794D01*
X11177707Y24317794D02*
X11122068Y24373432D01*
X11122068Y24373432D02*
X11066430Y24484708D01*
X11066430Y24484708D02*
X11066430Y24762899D01*
X11066430Y24762899D02*
X11122068Y24874175D01*
X11122068Y24874175D02*
X11177707Y24929813D01*
X11177707Y24929813D02*
X11288983Y24985451D01*
X11288983Y24985451D02*
X11567173Y24985451D01*
X11567173Y24985451D02*
X11678449Y24929813D01*
X11678449Y24929813D02*
X11734088Y24874175D01*
X11734088Y24874175D02*
X11789726Y24762899D01*
X11789726Y24762899D02*
X11789726Y24484708D01*
X11789726Y24484708D02*
X11734088Y24373432D01*
X11734088Y24373432D02*
X11678449Y24317794D01*
X14329726Y23872689D02*
X13773345Y23483222D01*
X14329726Y23205032D02*
X13161326Y23205032D01*
X13161326Y23205032D02*
X13161326Y23650137D01*
X13161326Y23650137D02*
X13216964Y23761413D01*
X13216964Y23761413D02*
X13272602Y23817051D01*
X13272602Y23817051D02*
X13383878Y23872689D01*
X13383878Y23872689D02*
X13550792Y23872689D01*
X13550792Y23872689D02*
X13662068Y23817051D01*
X13662068Y23817051D02*
X13717707Y23761413D01*
X13717707Y23761413D02*
X13773345Y23650137D01*
X13773345Y23650137D02*
X13773345Y23205032D01*
X13550792Y24874175D02*
X14329726Y24874175D01*
X13105688Y24595984D02*
X13940259Y24317794D01*
X13940259Y24317794D02*
X13940259Y25041089D01*
X36783326Y30055775D02*
X36783326Y29833222D01*
X36783326Y29833222D02*
X36838964Y29721946D01*
X36838964Y29721946D02*
X36894602Y29666308D01*
X36894602Y29666308D02*
X37061516Y29555032D01*
X37061516Y29555032D02*
X37284068Y29499394D01*
X37284068Y29499394D02*
X37729173Y29499394D01*
X37729173Y29499394D02*
X37840449Y29555032D01*
X37840449Y29555032D02*
X37896088Y29610670D01*
X37896088Y29610670D02*
X37951726Y29721946D01*
X37951726Y29721946D02*
X37951726Y29944499D01*
X37951726Y29944499D02*
X37896088Y30055775D01*
X37896088Y30055775D02*
X37840449Y30111413D01*
X37840449Y30111413D02*
X37729173Y30167051D01*
X37729173Y30167051D02*
X37450983Y30167051D01*
X37450983Y30167051D02*
X37339707Y30111413D01*
X37339707Y30111413D02*
X37284068Y30055775D01*
X37284068Y30055775D02*
X37228430Y29944499D01*
X37228430Y29944499D02*
X37228430Y29721946D01*
X37228430Y29721946D02*
X37284068Y29610670D01*
X37284068Y29610670D02*
X37339707Y29555032D01*
X37339707Y29555032D02*
X37450983Y29499394D01*
X36783326Y30500880D02*
X37951726Y30890346D01*
X37951726Y30890346D02*
X36783326Y31279813D01*
X37951726Y32559490D02*
X36783326Y32559490D01*
X36783326Y32559490D02*
X37617897Y32948957D01*
X37617897Y32948957D02*
X36783326Y33338423D01*
X36783326Y33338423D02*
X37951726Y33338423D01*
X37617897Y33839166D02*
X37617897Y34395547D01*
X37951726Y33727890D02*
X36783326Y34117356D01*
X36783326Y34117356D02*
X37951726Y34506823D01*
X36783326Y34785014D02*
X37951726Y35563947D01*
X36783326Y35563947D02*
X37951726Y34785014D01*
D12*
X3720472Y6156639D02*
X3782787Y6343583D01*
X3782787Y6343583D02*
X3845101Y6405897D01*
X3845101Y6405897D02*
X3969731Y6468212D01*
X3969731Y6468212D02*
X4156675Y6468212D01*
X4156675Y6468212D02*
X4281304Y6405897D01*
X4281304Y6405897D02*
X4343619Y6343583D01*
X4343619Y6343583D02*
X4405933Y6218953D01*
X4405933Y6218953D02*
X4405933Y5720436D01*
X4405933Y5720436D02*
X3097325Y5720436D01*
X3097325Y5720436D02*
X3097325Y6156639D01*
X3097325Y6156639D02*
X3159640Y6281268D01*
X3159640Y6281268D02*
X3221955Y6343583D01*
X3221955Y6343583D02*
X3346584Y6405897D01*
X3346584Y6405897D02*
X3471213Y6405897D01*
X3471213Y6405897D02*
X3595843Y6343583D01*
X3595843Y6343583D02*
X3658157Y6281268D01*
X3658157Y6281268D02*
X3720472Y6156639D01*
X3720472Y6156639D02*
X3720472Y5720436D01*
X4032045Y6966729D02*
X4032045Y7589876D01*
X4405933Y6842100D02*
X3097325Y7278303D01*
X3097325Y7278303D02*
X4405933Y7714505D01*
X3097325Y7963764D02*
X3097325Y8711540D01*
X4405933Y8337652D02*
X3097325Y8337652D01*
X3097325Y8960799D02*
X3097325Y9708575D01*
X4405933Y9334687D02*
X3097325Y9334687D01*
X41235933Y6343583D02*
X41235933Y5720436D01*
X41235933Y5720436D02*
X39927325Y5720436D01*
X39927325Y7029044D02*
X39927325Y7278302D01*
X39927325Y7278302D02*
X39989640Y7402932D01*
X39989640Y7402932D02*
X40114269Y7527561D01*
X40114269Y7527561D02*
X40363528Y7589876D01*
X40363528Y7589876D02*
X40799731Y7589876D01*
X40799731Y7589876D02*
X41048989Y7527561D01*
X41048989Y7527561D02*
X41173619Y7402932D01*
X41173619Y7402932D02*
X41235933Y7278302D01*
X41235933Y7278302D02*
X41235933Y7029044D01*
X41235933Y7029044D02*
X41173619Y6904414D01*
X41173619Y6904414D02*
X41048989Y6779785D01*
X41048989Y6779785D02*
X40799731Y6717470D01*
X40799731Y6717470D02*
X40363528Y6717470D01*
X40363528Y6717470D02*
X40114269Y6779785D01*
X40114269Y6779785D02*
X39989640Y6904414D01*
X39989640Y6904414D02*
X39927325Y7029044D01*
X40862045Y8088393D02*
X40862045Y8711540D01*
X41235933Y7963764D02*
X39927325Y8399967D01*
X39927325Y8399967D02*
X41235933Y8836169D01*
X41235933Y9272372D02*
X39927325Y9272372D01*
X39927325Y9272372D02*
X39927325Y9583945D01*
X39927325Y9583945D02*
X39989640Y9770889D01*
X39989640Y9770889D02*
X40114269Y9895519D01*
X40114269Y9895519D02*
X40238899Y9957833D01*
X40238899Y9957833D02*
X40488157Y10020148D01*
X40488157Y10020148D02*
X40675101Y10020148D01*
X40675101Y10020148D02*
X40924360Y9957833D01*
X40924360Y9957833D02*
X41048989Y9895519D01*
X41048989Y9895519D02*
X41173619Y9770889D01*
X41173619Y9770889D02*
X41235933Y9583945D01*
X41235933Y9583945D02*
X41235933Y9272372D01*
D13*
X11532044Y32580729D02*
X12778338Y32580729D01*
X12155191Y31957582D02*
X12155191Y33203876D01*
X14707044Y32580729D02*
X15953338Y32580729D01*
D11*
X16204754Y19043633D02*
X15648373Y18654166D01*
X16204754Y18375976D02*
X15036354Y18375976D01*
X15036354Y18375976D02*
X15036354Y18821081D01*
X15036354Y18821081D02*
X15091992Y18932357D01*
X15091992Y18932357D02*
X15147630Y18987995D01*
X15147630Y18987995D02*
X15258906Y19043633D01*
X15258906Y19043633D02*
X15425820Y19043633D01*
X15425820Y19043633D02*
X15537096Y18987995D01*
X15537096Y18987995D02*
X15592735Y18932357D01*
X15592735Y18932357D02*
X15648373Y18821081D01*
X15648373Y18821081D02*
X15648373Y18375976D01*
X15036354Y19377462D02*
X15036354Y20045119D01*
X16204754Y19711290D02*
X15036354Y19711290D01*
X15147630Y20378948D02*
X15091992Y20434586D01*
X15091992Y20434586D02*
X15036354Y20545862D01*
X15036354Y20545862D02*
X15036354Y20824053D01*
X15036354Y20824053D02*
X15091992Y20935329D01*
X15091992Y20935329D02*
X15147630Y20990967D01*
X15147630Y20990967D02*
X15258906Y21046605D01*
X15258906Y21046605D02*
X15370182Y21046605D01*
X15370182Y21046605D02*
X15537096Y20990967D01*
X15537096Y20990967D02*
X16204754Y20323310D01*
X16204754Y20323310D02*
X16204754Y21046605D01*
D14*
X25371066Y5658285D02*
X25371066Y4841856D01*
X25371066Y4841856D02*
X25316637Y4678571D01*
X25316637Y4678571D02*
X25207780Y4569714D01*
X25207780Y4569714D02*
X25044494Y4515285D01*
X25044494Y4515285D02*
X24935637Y4515285D01*
X25915351Y4515285D02*
X25915351Y5658285D01*
X25915351Y5658285D02*
X26350780Y5658285D01*
X26350780Y5658285D02*
X26459637Y5603856D01*
X26459637Y5603856D02*
X26514066Y5549428D01*
X26514066Y5549428D02*
X26568494Y5440571D01*
X26568494Y5440571D02*
X26568494Y5277285D01*
X26568494Y5277285D02*
X26514066Y5168428D01*
X26514066Y5168428D02*
X26459637Y5113999D01*
X26459637Y5113999D02*
X26350780Y5059571D01*
X26350780Y5059571D02*
X25915351Y5059571D01*
X26949494Y5658285D02*
X27657066Y5658285D01*
X27657066Y5658285D02*
X27276066Y5222856D01*
X27276066Y5222856D02*
X27439351Y5222856D01*
X27439351Y5222856D02*
X27548209Y5168428D01*
X27548209Y5168428D02*
X27602637Y5113999D01*
X27602637Y5113999D02*
X27657066Y5005142D01*
X27657066Y5005142D02*
X27657066Y4732999D01*
X27657066Y4732999D02*
X27602637Y4624142D01*
X27602637Y4624142D02*
X27548209Y4569714D01*
X27548209Y4569714D02*
X27439351Y4515285D01*
X27439351Y4515285D02*
X27112780Y4515285D01*
X27112780Y4515285D02*
X27003923Y4569714D01*
X27003923Y4569714D02*
X26949494Y4624142D01*
D11*
X25729754Y6344843D02*
X25173373Y5955376D01*
X25729754Y5677186D02*
X24561354Y5677186D01*
X24561354Y5677186D02*
X24561354Y6122291D01*
X24561354Y6122291D02*
X24616992Y6233567D01*
X24616992Y6233567D02*
X24672630Y6289205D01*
X24672630Y6289205D02*
X24783906Y6344843D01*
X24783906Y6344843D02*
X24950820Y6344843D01*
X24950820Y6344843D02*
X25062096Y6289205D01*
X25062096Y6289205D02*
X25117735Y6233567D01*
X25117735Y6233567D02*
X25173373Y6122291D01*
X25173373Y6122291D02*
X25173373Y5677186D01*
X25729754Y6901224D02*
X25729754Y7123776D01*
X25729754Y7123776D02*
X25674116Y7235053D01*
X25674116Y7235053D02*
X25618477Y7290691D01*
X25618477Y7290691D02*
X25451563Y7401967D01*
X25451563Y7401967D02*
X25229011Y7457605D01*
X25229011Y7457605D02*
X24783906Y7457605D01*
X24783906Y7457605D02*
X24672630Y7401967D01*
X24672630Y7401967D02*
X24616992Y7346329D01*
X24616992Y7346329D02*
X24561354Y7235053D01*
X24561354Y7235053D02*
X24561354Y7012500D01*
X24561354Y7012500D02*
X24616992Y6901224D01*
X24616992Y6901224D02*
X24672630Y6845586D01*
X24672630Y6845586D02*
X24783906Y6789948D01*
X24783906Y6789948D02*
X25062096Y6789948D01*
X25062096Y6789948D02*
X25173373Y6845586D01*
X25173373Y6845586D02*
X25229011Y6901224D01*
X25229011Y6901224D02*
X25284649Y7012500D01*
X25284649Y7012500D02*
X25284649Y7235053D01*
X25284649Y7235053D02*
X25229011Y7346329D01*
X25229011Y7346329D02*
X25173373Y7401967D01*
X25173373Y7401967D02*
X25062096Y7457605D01*
X27537726Y18998689D02*
X26981345Y18609222D01*
X27537726Y18331032D02*
X26369326Y18331032D01*
X26369326Y18331032D02*
X26369326Y18776137D01*
X26369326Y18776137D02*
X26424964Y18887413D01*
X26424964Y18887413D02*
X26480602Y18943051D01*
X26480602Y18943051D02*
X26591878Y18998689D01*
X26591878Y18998689D02*
X26758792Y18998689D01*
X26758792Y18998689D02*
X26870068Y18943051D01*
X26870068Y18943051D02*
X26925707Y18887413D01*
X26925707Y18887413D02*
X26981345Y18776137D01*
X26981345Y18776137D02*
X26981345Y18331032D01*
X27537726Y20111451D02*
X27537726Y19443794D01*
X27537726Y19777622D02*
X26369326Y19777622D01*
X26369326Y19777622D02*
X26536240Y19666346D01*
X26536240Y19666346D02*
X26647516Y19555070D01*
X26647516Y19555070D02*
X26703154Y19443794D01*
X26480602Y20556556D02*
X26424964Y20612194D01*
X26424964Y20612194D02*
X26369326Y20723470D01*
X26369326Y20723470D02*
X26369326Y21001661D01*
X26369326Y21001661D02*
X26424964Y21112937D01*
X26424964Y21112937D02*
X26480602Y21168575D01*
X26480602Y21168575D02*
X26591878Y21224213D01*
X26591878Y21224213D02*
X26703154Y21224213D01*
X26703154Y21224213D02*
X26870068Y21168575D01*
X26870068Y21168575D02*
X27537726Y20500918D01*
X27537726Y20500918D02*
X27537726Y21224213D01*
X22908805Y27197522D02*
X22853167Y27141884D01*
X22853167Y27141884D02*
X22686253Y27086245D01*
X22686253Y27086245D02*
X22574977Y27086245D01*
X22574977Y27086245D02*
X22408062Y27141884D01*
X22408062Y27141884D02*
X22296786Y27253160D01*
X22296786Y27253160D02*
X22241148Y27364436D01*
X22241148Y27364436D02*
X22185510Y27586988D01*
X22185510Y27586988D02*
X22185510Y27753903D01*
X22185510Y27753903D02*
X22241148Y27976455D01*
X22241148Y27976455D02*
X22296786Y28087731D01*
X22296786Y28087731D02*
X22408062Y28199007D01*
X22408062Y28199007D02*
X22574977Y28254645D01*
X22574977Y28254645D02*
X22686253Y28254645D01*
X22686253Y28254645D02*
X22853167Y28199007D01*
X22853167Y28199007D02*
X22908805Y28143369D01*
X23409548Y27086245D02*
X23409548Y28254645D01*
X23409548Y28254645D02*
X24077205Y27086245D01*
X24077205Y27086245D02*
X24077205Y28254645D01*
X25134329Y27865179D02*
X25134329Y27086245D01*
X24856138Y28310284D02*
X24577948Y27475712D01*
X24577948Y27475712D02*
X25301243Y27475712D01*
D15*
X20430409Y21764446D02*
X20430409Y22138334D01*
X20822102Y21800055D02*
X20804298Y21782251D01*
X20804298Y21782251D02*
X20750885Y21764446D01*
X20750885Y21764446D02*
X20715277Y21764446D01*
X20715277Y21764446D02*
X20661864Y21782251D01*
X20661864Y21782251D02*
X20626256Y21817859D01*
X20626256Y21817859D02*
X20608451Y21853467D01*
X20608451Y21853467D02*
X20590647Y21924684D01*
X20590647Y21924684D02*
X20590647Y21978097D01*
X20590647Y21978097D02*
X20608451Y22049313D01*
X20608451Y22049313D02*
X20626256Y22084922D01*
X20626256Y22084922D02*
X20661864Y22120530D01*
X20661864Y22120530D02*
X20715277Y22138334D01*
X20715277Y22138334D02*
X20750885Y22138334D01*
X20750885Y22138334D02*
X20804298Y22120530D01*
X20804298Y22120530D02*
X20822102Y22102726D01*
X21178186Y21764446D02*
X20964535Y21764446D01*
X21071360Y21764446D02*
X21071360Y22138334D01*
X21071360Y22138334D02*
X21035752Y22084922D01*
X21035752Y22084922D02*
X21000144Y22049313D01*
X21000144Y22049313D02*
X20964535Y22031509D01*
D11*
X23189754Y6344843D02*
X22633373Y5955376D01*
X23189754Y5677186D02*
X22021354Y5677186D01*
X22021354Y5677186D02*
X22021354Y6122291D01*
X22021354Y6122291D02*
X22076992Y6233567D01*
X22076992Y6233567D02*
X22132630Y6289205D01*
X22132630Y6289205D02*
X22243906Y6344843D01*
X22243906Y6344843D02*
X22410820Y6344843D01*
X22410820Y6344843D02*
X22522096Y6289205D01*
X22522096Y6289205D02*
X22577735Y6233567D01*
X22577735Y6233567D02*
X22633373Y6122291D01*
X22633373Y6122291D02*
X22633373Y5677186D01*
X22522096Y7012500D02*
X22466458Y6901224D01*
X22466458Y6901224D02*
X22410820Y6845586D01*
X22410820Y6845586D02*
X22299544Y6789948D01*
X22299544Y6789948D02*
X22243906Y6789948D01*
X22243906Y6789948D02*
X22132630Y6845586D01*
X22132630Y6845586D02*
X22076992Y6901224D01*
X22076992Y6901224D02*
X22021354Y7012500D01*
X22021354Y7012500D02*
X22021354Y7235053D01*
X22021354Y7235053D02*
X22076992Y7346329D01*
X22076992Y7346329D02*
X22132630Y7401967D01*
X22132630Y7401967D02*
X22243906Y7457605D01*
X22243906Y7457605D02*
X22299544Y7457605D01*
X22299544Y7457605D02*
X22410820Y7401967D01*
X22410820Y7401967D02*
X22466458Y7346329D01*
X22466458Y7346329D02*
X22522096Y7235053D01*
X22522096Y7235053D02*
X22522096Y7012500D01*
X22522096Y7012500D02*
X22577735Y6901224D01*
X22577735Y6901224D02*
X22633373Y6845586D01*
X22633373Y6845586D02*
X22744649Y6789948D01*
X22744649Y6789948D02*
X22967201Y6789948D01*
X22967201Y6789948D02*
X23078477Y6845586D01*
X23078477Y6845586D02*
X23134116Y6901224D01*
X23134116Y6901224D02*
X23189754Y7012500D01*
X23189754Y7012500D02*
X23189754Y7235053D01*
X23189754Y7235053D02*
X23134116Y7346329D01*
X23134116Y7346329D02*
X23078477Y7401967D01*
X23078477Y7401967D02*
X22967201Y7457605D01*
X22967201Y7457605D02*
X22744649Y7457605D01*
X22744649Y7457605D02*
X22633373Y7401967D01*
X22633373Y7401967D02*
X22577735Y7346329D01*
X22577735Y7346329D02*
X22522096Y7235053D01*
X13664754Y19933843D02*
X13108373Y19544376D01*
X13664754Y19266186D02*
X12496354Y19266186D01*
X12496354Y19266186D02*
X12496354Y19711291D01*
X12496354Y19711291D02*
X12551992Y19822567D01*
X12551992Y19822567D02*
X12607630Y19878205D01*
X12607630Y19878205D02*
X12718906Y19933843D01*
X12718906Y19933843D02*
X12885820Y19933843D01*
X12885820Y19933843D02*
X12997096Y19878205D01*
X12997096Y19878205D02*
X13052735Y19822567D01*
X13052735Y19822567D02*
X13108373Y19711291D01*
X13108373Y19711291D02*
X13108373Y19266186D01*
X12496354Y20990967D02*
X12496354Y20434586D01*
X12496354Y20434586D02*
X13052735Y20378948D01*
X13052735Y20378948D02*
X12997096Y20434586D01*
X12997096Y20434586D02*
X12941458Y20545862D01*
X12941458Y20545862D02*
X12941458Y20824053D01*
X12941458Y20824053D02*
X12997096Y20935329D01*
X12997096Y20935329D02*
X13052735Y20990967D01*
X13052735Y20990967D02*
X13164011Y21046605D01*
X13164011Y21046605D02*
X13442201Y21046605D01*
X13442201Y21046605D02*
X13553477Y20990967D01*
X13553477Y20990967D02*
X13609116Y20935329D01*
X13609116Y20935329D02*
X13664754Y20824053D01*
X13664754Y20824053D02*
X13664754Y20545862D01*
X13664754Y20545862D02*
X13609116Y20434586D01*
X13609116Y20434586D02*
X13553477Y20378948D01*
X20792477Y-1270318D02*
X20848116Y-1325956D01*
X20848116Y-1325956D02*
X20903754Y-1492870D01*
X20903754Y-1492870D02*
X20903754Y-1604146D01*
X20903754Y-1604146D02*
X20848116Y-1771061D01*
X20848116Y-1771061D02*
X20736839Y-1882337D01*
X20736839Y-1882337D02*
X20625563Y-1937975D01*
X20625563Y-1937975D02*
X20403011Y-1993613D01*
X20403011Y-1993613D02*
X20236096Y-1993613D01*
X20236096Y-1993613D02*
X20013544Y-1937975D01*
X20013544Y-1937975D02*
X19902268Y-1882337D01*
X19902268Y-1882337D02*
X19790992Y-1771061D01*
X19790992Y-1771061D02*
X19735354Y-1604146D01*
X19735354Y-1604146D02*
X19735354Y-1492870D01*
X19735354Y-1492870D02*
X19790992Y-1325956D01*
X19790992Y-1325956D02*
X19846630Y-1270318D01*
X20903754Y-769575D02*
X19735354Y-769575D01*
X20291735Y-769575D02*
X20291735Y-101918D01*
X20903754Y-101918D02*
X19735354Y-101918D01*
X20903754Y1122119D02*
X20347373Y732652D01*
X20903754Y454462D02*
X19735354Y454462D01*
X19735354Y454462D02*
X19735354Y899567D01*
X19735354Y899567D02*
X19790992Y1010843D01*
X19790992Y1010843D02*
X19846630Y1066481D01*
X19846630Y1066481D02*
X19957906Y1122119D01*
X19957906Y1122119D02*
X20124820Y1122119D01*
X20124820Y1122119D02*
X20236096Y1066481D01*
X20236096Y1066481D02*
X20291735Y1010843D01*
X20291735Y1010843D02*
X20347373Y899567D01*
X20347373Y899567D02*
X20347373Y454462D01*
X19790992Y2234881D02*
X19735354Y2123605D01*
X19735354Y2123605D02*
X19735354Y1956691D01*
X19735354Y1956691D02*
X19790992Y1789776D01*
X19790992Y1789776D02*
X19902268Y1678500D01*
X19902268Y1678500D02*
X20013544Y1622862D01*
X20013544Y1622862D02*
X20236096Y1567224D01*
X20236096Y1567224D02*
X20403011Y1567224D01*
X20403011Y1567224D02*
X20625563Y1622862D01*
X20625563Y1622862D02*
X20736839Y1678500D01*
X20736839Y1678500D02*
X20848116Y1789776D01*
X20848116Y1789776D02*
X20903754Y1956691D01*
X20903754Y1956691D02*
X20903754Y2067967D01*
X20903754Y2067967D02*
X20848116Y2234881D01*
X20848116Y2234881D02*
X20792477Y2290519D01*
X20792477Y2290519D02*
X20403011Y2290519D01*
X20403011Y2290519D02*
X20403011Y2067967D01*
X19679716Y3625833D02*
X21181944Y2624348D01*
X20903754Y4571681D02*
X20903754Y4015300D01*
X20903754Y4015300D02*
X19735354Y4015300D01*
X20291735Y5350615D02*
X20347373Y5517529D01*
X20347373Y5517529D02*
X20403011Y5573167D01*
X20403011Y5573167D02*
X20514287Y5628805D01*
X20514287Y5628805D02*
X20681201Y5628805D01*
X20681201Y5628805D02*
X20792477Y5573167D01*
X20792477Y5573167D02*
X20848116Y5517529D01*
X20848116Y5517529D02*
X20903754Y5406253D01*
X20903754Y5406253D02*
X20903754Y4961148D01*
X20903754Y4961148D02*
X19735354Y4961148D01*
X19735354Y4961148D02*
X19735354Y5350615D01*
X19735354Y5350615D02*
X19790992Y5461891D01*
X19790992Y5461891D02*
X19846630Y5517529D01*
X19846630Y5517529D02*
X19957906Y5573167D01*
X19957906Y5573167D02*
X20069182Y5573167D01*
X20069182Y5573167D02*
X20180458Y5517529D01*
X20180458Y5517529D02*
X20236096Y5461891D01*
X20236096Y5461891D02*
X20291735Y5350615D01*
X20291735Y5350615D02*
X20291735Y4961148D01*
X19735354Y6352100D02*
X19735354Y6574653D01*
X19735354Y6574653D02*
X19790992Y6685929D01*
X19790992Y6685929D02*
X19902268Y6797205D01*
X19902268Y6797205D02*
X20124820Y6852843D01*
X20124820Y6852843D02*
X20514287Y6852843D01*
X20514287Y6852843D02*
X20736839Y6797205D01*
X20736839Y6797205D02*
X20848116Y6685929D01*
X20848116Y6685929D02*
X20903754Y6574653D01*
X20903754Y6574653D02*
X20903754Y6352100D01*
X20903754Y6352100D02*
X20848116Y6240824D01*
X20848116Y6240824D02*
X20736839Y6129548D01*
X20736839Y6129548D02*
X20514287Y6073910D01*
X20514287Y6073910D02*
X20124820Y6073910D01*
X20124820Y6073910D02*
X19902268Y6129548D01*
X19902268Y6129548D02*
X19790992Y6240824D01*
X19790992Y6240824D02*
X19735354Y6352100D01*
X19735354Y7576138D02*
X19735354Y7687415D01*
X19735354Y7687415D02*
X19790992Y7798691D01*
X19790992Y7798691D02*
X19846630Y7854329D01*
X19846630Y7854329D02*
X19957906Y7909967D01*
X19957906Y7909967D02*
X20180458Y7965605D01*
X20180458Y7965605D02*
X20458649Y7965605D01*
X20458649Y7965605D02*
X20681201Y7909967D01*
X20681201Y7909967D02*
X20792477Y7854329D01*
X20792477Y7854329D02*
X20848116Y7798691D01*
X20848116Y7798691D02*
X20903754Y7687415D01*
X20903754Y7687415D02*
X20903754Y7576138D01*
X20903754Y7576138D02*
X20848116Y7464862D01*
X20848116Y7464862D02*
X20792477Y7409224D01*
X20792477Y7409224D02*
X20681201Y7353586D01*
X20681201Y7353586D02*
X20458649Y7297948D01*
X20458649Y7297948D02*
X20180458Y7297948D01*
X20180458Y7297948D02*
X19957906Y7353586D01*
X19957906Y7353586D02*
X19846630Y7409224D01*
X19846630Y7409224D02*
X19790992Y7464862D01*
X19790992Y7464862D02*
X19735354Y7576138D01*
D16*
X19961025Y9999702D02*
X20673193Y9999702D01*
X20317109Y9643618D02*
X20317109Y10355786D01*
D14*
X20291066Y5658285D02*
X20291066Y4841856D01*
X20291066Y4841856D02*
X20236637Y4678571D01*
X20236637Y4678571D02*
X20127780Y4569714D01*
X20127780Y4569714D02*
X19964494Y4515285D01*
X19964494Y4515285D02*
X19855637Y4515285D01*
X20835351Y4515285D02*
X20835351Y5658285D01*
X20835351Y5658285D02*
X21270780Y5658285D01*
X21270780Y5658285D02*
X21379637Y5603856D01*
X21379637Y5603856D02*
X21434066Y5549428D01*
X21434066Y5549428D02*
X21488494Y5440571D01*
X21488494Y5440571D02*
X21488494Y5277285D01*
X21488494Y5277285D02*
X21434066Y5168428D01*
X21434066Y5168428D02*
X21379637Y5113999D01*
X21379637Y5113999D02*
X21270780Y5059571D01*
X21270780Y5059571D02*
X20835351Y5059571D01*
X21923923Y5549428D02*
X21978351Y5603856D01*
X21978351Y5603856D02*
X22087209Y5658285D01*
X22087209Y5658285D02*
X22359351Y5658285D01*
X22359351Y5658285D02*
X22468209Y5603856D01*
X22468209Y5603856D02*
X22522637Y5549428D01*
X22522637Y5549428D02*
X22577066Y5440571D01*
X22577066Y5440571D02*
X22577066Y5331714D01*
X22577066Y5331714D02*
X22522637Y5168428D01*
X22522637Y5168428D02*
X21869494Y4515285D01*
X21869494Y4515285D02*
X22577066Y4515285D01*
X13236934Y33175375D02*
X13236934Y32358946D01*
X13236934Y32358946D02*
X13182505Y32195661D01*
X13182505Y32195661D02*
X13073648Y32086804D01*
X13073648Y32086804D02*
X12910362Y32032375D01*
X12910362Y32032375D02*
X12801505Y32032375D01*
X13781219Y32032375D02*
X13781219Y33175375D01*
X13781219Y33175375D02*
X14216648Y33175375D01*
X14216648Y33175375D02*
X14325505Y33120946D01*
X14325505Y33120946D02*
X14379934Y33066518D01*
X14379934Y33066518D02*
X14434362Y32957661D01*
X14434362Y32957661D02*
X14434362Y32794375D01*
X14434362Y32794375D02*
X14379934Y32685518D01*
X14379934Y32685518D02*
X14325505Y32631089D01*
X14325505Y32631089D02*
X14216648Y32576661D01*
X14216648Y32576661D02*
X13781219Y32576661D01*
X15522934Y32032375D02*
X14869791Y32032375D01*
X15196362Y32032375D02*
X15196362Y33175375D01*
X15196362Y33175375D02*
X15087505Y33012089D01*
X15087505Y33012089D02*
X14978648Y32903232D01*
X14978648Y32903232D02*
X14869791Y32848804D01*
D16*
X30159360Y12510151D02*
X30203871Y12465640D01*
X30203871Y12465640D02*
X30248381Y12332109D01*
X30248381Y12332109D02*
X30248381Y12243088D01*
X30248381Y12243088D02*
X30203871Y12109556D01*
X30203871Y12109556D02*
X30114850Y12020535D01*
X30114850Y12020535D02*
X30025829Y11976025D01*
X30025829Y11976025D02*
X29847787Y11931514D01*
X29847787Y11931514D02*
X29714255Y11931514D01*
X29714255Y11931514D02*
X29536213Y11976025D01*
X29536213Y11976025D02*
X29447192Y12020535D01*
X29447192Y12020535D02*
X29358171Y12109556D01*
X29358171Y12109556D02*
X29313661Y12243088D01*
X29313661Y12243088D02*
X29313661Y12332109D01*
X29313661Y12332109D02*
X29358171Y12465640D01*
X29358171Y12465640D02*
X29402682Y12510151D01*
X30248381Y13400360D02*
X30248381Y12866234D01*
X30248381Y13133297D02*
X29313661Y13133297D01*
X29313661Y13133297D02*
X29447192Y13044276D01*
X29447192Y13044276D02*
X29536213Y12955255D01*
X29536213Y12955255D02*
X29580724Y12866234D01*
D11*
X25854843Y10925245D02*
X25465376Y11481626D01*
X25187186Y10925245D02*
X25187186Y12093645D01*
X25187186Y12093645D02*
X25632291Y12093645D01*
X25632291Y12093645D02*
X25743567Y12038007D01*
X25743567Y12038007D02*
X25799205Y11982369D01*
X25799205Y11982369D02*
X25854843Y11871093D01*
X25854843Y11871093D02*
X25854843Y11704179D01*
X25854843Y11704179D02*
X25799205Y11592903D01*
X25799205Y11592903D02*
X25743567Y11537264D01*
X25743567Y11537264D02*
X25632291Y11481626D01*
X25632291Y11481626D02*
X25187186Y11481626D01*
X26244310Y12093645D02*
X26967605Y12093645D01*
X26967605Y12093645D02*
X26578138Y11648541D01*
X26578138Y11648541D02*
X26745053Y11648541D01*
X26745053Y11648541D02*
X26856329Y11592903D01*
X26856329Y11592903D02*
X26911967Y11537264D01*
X26911967Y11537264D02*
X26967605Y11425988D01*
X26967605Y11425988D02*
X26967605Y11147798D01*
X26967605Y11147798D02*
X26911967Y11036522D01*
X26911967Y11036522D02*
X26856329Y10980884D01*
X26856329Y10980884D02*
X26745053Y10925245D01*
X26745053Y10925245D02*
X26411224Y10925245D01*
X26411224Y10925245D02*
X26299948Y10980884D01*
X26299948Y10980884D02*
X26244310Y11036522D01*
X32780195Y-1218754D02*
X32223814Y-1218754D01*
X32223814Y-1218754D02*
X32223814Y-50354D01*
X33392214Y-50354D02*
X33614767Y-50354D01*
X33614767Y-50354D02*
X33726043Y-105992D01*
X33726043Y-105992D02*
X33837319Y-217268D01*
X33837319Y-217268D02*
X33892957Y-439820D01*
X33892957Y-439820D02*
X33892957Y-829287D01*
X33892957Y-829287D02*
X33837319Y-1051839D01*
X33837319Y-1051839D02*
X33726043Y-1163116D01*
X33726043Y-1163116D02*
X33614767Y-1218754D01*
X33614767Y-1218754D02*
X33392214Y-1218754D01*
X33392214Y-1218754D02*
X33280938Y-1163116D01*
X33280938Y-1163116D02*
X33169662Y-1051839D01*
X33169662Y-1051839D02*
X33114024Y-829287D01*
X33114024Y-829287D02*
X33114024Y-439820D01*
X33114024Y-439820D02*
X33169662Y-217268D01*
X33169662Y-217268D02*
X33280938Y-105992D01*
X33280938Y-105992D02*
X33392214Y-50354D01*
X34338062Y-884925D02*
X34894443Y-884925D01*
X34226786Y-1218754D02*
X34616252Y-50354D01*
X34616252Y-50354D02*
X35005719Y-1218754D01*
X35395186Y-1218754D02*
X35395186Y-50354D01*
X35395186Y-50354D02*
X35673376Y-50354D01*
X35673376Y-50354D02*
X35840291Y-105992D01*
X35840291Y-105992D02*
X35951567Y-217268D01*
X35951567Y-217268D02*
X36007205Y-328544D01*
X36007205Y-328544D02*
X36062843Y-551096D01*
X36062843Y-551096D02*
X36062843Y-718011D01*
X36062843Y-718011D02*
X36007205Y-940563D01*
X36007205Y-940563D02*
X35951567Y-1051839D01*
X35951567Y-1051839D02*
X35840291Y-1163116D01*
X35840291Y-1163116D02*
X35673376Y-1218754D01*
X35673376Y-1218754D02*
X35395186Y-1218754D01*
X36786138Y-50354D02*
X36897415Y-50354D01*
X36897415Y-50354D02*
X37008691Y-105992D01*
X37008691Y-105992D02*
X37064329Y-161630D01*
X37064329Y-161630D02*
X37119967Y-272906D01*
X37119967Y-272906D02*
X37175605Y-495458D01*
X37175605Y-495458D02*
X37175605Y-773649D01*
X37175605Y-773649D02*
X37119967Y-996201D01*
X37119967Y-996201D02*
X37064329Y-1107477D01*
X37064329Y-1107477D02*
X37008691Y-1163116D01*
X37008691Y-1163116D02*
X36897415Y-1218754D01*
X36897415Y-1218754D02*
X36786138Y-1218754D01*
X36786138Y-1218754D02*
X36674862Y-1163116D01*
X36674862Y-1163116D02*
X36619224Y-1107477D01*
X36619224Y-1107477D02*
X36563586Y-996201D01*
X36563586Y-996201D02*
X36507948Y-773649D01*
X36507948Y-773649D02*
X36507948Y-495458D01*
X36507948Y-495458D02*
X36563586Y-272906D01*
X36563586Y-272906D02*
X36619224Y-161630D01*
X36619224Y-161630D02*
X36674862Y-105992D01*
X36674862Y-105992D02*
X36786138Y-50354D01*
D17*
X38764320Y10544904D02*
X39718006Y10544904D01*
X33049320Y10544904D02*
X34003006Y10544904D01*
X33526163Y10068061D02*
X33526163Y11021747D01*
D11*
X28523754Y2679986D02*
X27355354Y2679986D01*
X27355354Y2679986D02*
X27355354Y2958176D01*
X27355354Y2958176D02*
X27410992Y3125091D01*
X27410992Y3125091D02*
X27522268Y3236367D01*
X27522268Y3236367D02*
X27633544Y3292005D01*
X27633544Y3292005D02*
X27856096Y3347643D01*
X27856096Y3347643D02*
X28023011Y3347643D01*
X28023011Y3347643D02*
X28245563Y3292005D01*
X28245563Y3292005D02*
X28356839Y3236367D01*
X28356839Y3236367D02*
X28468116Y3125091D01*
X28468116Y3125091D02*
X28523754Y2958176D01*
X28523754Y2958176D02*
X28523754Y2679986D01*
X27355354Y4070938D02*
X27355354Y4293491D01*
X27355354Y4293491D02*
X27410992Y4404767D01*
X27410992Y4404767D02*
X27522268Y4516043D01*
X27522268Y4516043D02*
X27744820Y4571681D01*
X27744820Y4571681D02*
X28134287Y4571681D01*
X28134287Y4571681D02*
X28356839Y4516043D01*
X28356839Y4516043D02*
X28468116Y4404767D01*
X28468116Y4404767D02*
X28523754Y4293491D01*
X28523754Y4293491D02*
X28523754Y4070938D01*
X28523754Y4070938D02*
X28468116Y3959662D01*
X28468116Y3959662D02*
X28356839Y3848386D01*
X28356839Y3848386D02*
X28134287Y3792748D01*
X28134287Y3792748D02*
X27744820Y3792748D01*
X27744820Y3792748D02*
X27522268Y3848386D01*
X27522268Y3848386D02*
X27410992Y3959662D01*
X27410992Y3959662D02*
X27355354Y4070938D01*
X28523754Y5072424D02*
X27355354Y5072424D01*
X27355354Y5072424D02*
X28523754Y5740081D01*
X28523754Y5740081D02*
X27355354Y5740081D01*
X27911735Y6296462D02*
X27911735Y6685929D01*
X28523754Y6852843D02*
X28523754Y6296462D01*
X28523754Y6296462D02*
X27355354Y6296462D01*
X27355354Y6296462D02*
X27355354Y6852843D01*
X27355354Y7576138D02*
X27355354Y7687415D01*
X27355354Y7687415D02*
X27410992Y7798691D01*
X27410992Y7798691D02*
X27466630Y7854329D01*
X27466630Y7854329D02*
X27577906Y7909967D01*
X27577906Y7909967D02*
X27800458Y7965605D01*
X27800458Y7965605D02*
X28078649Y7965605D01*
X28078649Y7965605D02*
X28301201Y7909967D01*
X28301201Y7909967D02*
X28412477Y7854329D01*
X28412477Y7854329D02*
X28468116Y7798691D01*
X28468116Y7798691D02*
X28523754Y7687415D01*
X28523754Y7687415D02*
X28523754Y7576138D01*
X28523754Y7576138D02*
X28468116Y7464862D01*
X28468116Y7464862D02*
X28412477Y7409224D01*
X28412477Y7409224D02*
X28301201Y7353586D01*
X28301201Y7353586D02*
X28078649Y7297948D01*
X28078649Y7297948D02*
X27800458Y7297948D01*
X27800458Y7297948D02*
X27577906Y7353586D01*
X27577906Y7353586D02*
X27466630Y7409224D01*
X27466630Y7409224D02*
X27410992Y7464862D01*
X27410992Y7464862D02*
X27355354Y7576138D01*
D16*
X27581025Y9999702D02*
X28293193Y9999702D01*
X27937109Y9643618D02*
X27937109Y10355786D01*
D18*
X44999554Y10093827D02*
X45075754Y10017627D01*
X45075754Y10017627D02*
X45151954Y9789027D01*
X45151954Y9789027D02*
X45151954Y9636627D01*
X45151954Y9636627D02*
X45075754Y9408027D01*
X45075754Y9408027D02*
X44923354Y9255627D01*
X44923354Y9255627D02*
X44770954Y9179427D01*
X44770954Y9179427D02*
X44466154Y9103227D01*
X44466154Y9103227D02*
X44237554Y9103227D01*
X44237554Y9103227D02*
X43932754Y9179427D01*
X43932754Y9179427D02*
X43780354Y9255627D01*
X43780354Y9255627D02*
X43627954Y9408027D01*
X43627954Y9408027D02*
X43551754Y9636627D01*
X43551754Y9636627D02*
X43551754Y9789027D01*
X43551754Y9789027D02*
X43627954Y10017627D01*
X43627954Y10017627D02*
X43704154Y10093827D01*
X44085154Y11465427D02*
X45151954Y11465427D01*
X43475554Y11084427D02*
X44618554Y10703427D01*
X44618554Y10703427D02*
X44618554Y11694027D01*
D11*
X6584032Y37548273D02*
X6584032Y38716673D01*
X6584032Y38716673D02*
X7029137Y38716673D01*
X7029137Y38716673D02*
X7140413Y38661035D01*
X7140413Y38661035D02*
X7196051Y38605397D01*
X7196051Y38605397D02*
X7251689Y38494121D01*
X7251689Y38494121D02*
X7251689Y38327207D01*
X7251689Y38327207D02*
X7196051Y38215931D01*
X7196051Y38215931D02*
X7140413Y38160292D01*
X7140413Y38160292D02*
X7029137Y38104654D01*
X7029137Y38104654D02*
X6584032Y38104654D01*
X7641156Y38716673D02*
X7919346Y37548273D01*
X7919346Y37548273D02*
X8141899Y38382845D01*
X8141899Y38382845D02*
X8364451Y37548273D01*
X8364451Y37548273D02*
X8642642Y38716673D01*
X9755403Y37548273D02*
X9365936Y38104654D01*
X9087746Y37548273D02*
X9087746Y38716673D01*
X9087746Y38716673D02*
X9532851Y38716673D01*
X9532851Y38716673D02*
X9644127Y38661035D01*
X9644127Y38661035D02*
X9699765Y38605397D01*
X9699765Y38605397D02*
X9755403Y38494121D01*
X9755403Y38494121D02*
X9755403Y38327207D01*
X9755403Y38327207D02*
X9699765Y38215931D01*
X9699765Y38215931D02*
X9644127Y38160292D01*
X9644127Y38160292D02*
X9532851Y38104654D01*
X9532851Y38104654D02*
X9087746Y38104654D01*
X10478698Y38716673D02*
X10589975Y38716673D01*
X10589975Y38716673D02*
X10701251Y38661035D01*
X10701251Y38661035D02*
X10756889Y38605397D01*
X10756889Y38605397D02*
X10812527Y38494121D01*
X10812527Y38494121D02*
X10868165Y38271569D01*
X10868165Y38271569D02*
X10868165Y37993378D01*
X10868165Y37993378D02*
X10812527Y37770826D01*
X10812527Y37770826D02*
X10756889Y37659550D01*
X10756889Y37659550D02*
X10701251Y37603912D01*
X10701251Y37603912D02*
X10589975Y37548273D01*
X10589975Y37548273D02*
X10478698Y37548273D01*
X10478698Y37548273D02*
X10367422Y37603912D01*
X10367422Y37603912D02*
X10311784Y37659550D01*
X10311784Y37659550D02*
X10256146Y37770826D01*
X10256146Y37770826D02*
X10200508Y37993378D01*
X10200508Y37993378D02*
X10200508Y38271569D01*
X10200508Y38271569D02*
X10256146Y38494121D01*
X10256146Y38494121D02*
X10311784Y38605397D01*
X10311784Y38605397D02*
X10367422Y38661035D01*
X10367422Y38661035D02*
X10478698Y38716673D01*
D16*
X4494297Y37676025D02*
X4494297Y38388193D01*
X4850381Y38032109D02*
X4138213Y38032109D01*
D15*
X36976392Y37763618D02*
X36994197Y37745814D01*
X36994197Y37745814D02*
X37012001Y37692401D01*
X37012001Y37692401D02*
X37012001Y37656793D01*
X37012001Y37656793D02*
X36994197Y37603380D01*
X36994197Y37603380D02*
X36958588Y37567772D01*
X36958588Y37567772D02*
X36922980Y37549967D01*
X36922980Y37549967D02*
X36851763Y37532163D01*
X36851763Y37532163D02*
X36798350Y37532163D01*
X36798350Y37532163D02*
X36727134Y37549967D01*
X36727134Y37549967D02*
X36691525Y37567772D01*
X36691525Y37567772D02*
X36655917Y37603380D01*
X36655917Y37603380D02*
X36638113Y37656793D01*
X36638113Y37656793D02*
X36638113Y37692401D01*
X36638113Y37692401D02*
X36655917Y37745814D01*
X36655917Y37745814D02*
X36673721Y37763618D01*
X37012001Y37923855D02*
X36638113Y37923855D01*
X36638113Y37923855D02*
X37012001Y38137506D01*
X37012001Y38137506D02*
X36638113Y38137506D01*
X37012001Y38511394D02*
X37012001Y38297743D01*
X37012001Y38404568D02*
X36638113Y38404568D01*
X36638113Y38404568D02*
X36691525Y38368960D01*
X36691525Y38368960D02*
X36727134Y38333352D01*
X36727134Y38333352D02*
X36744938Y38297743D01*
D11*
X7602747Y-606735D02*
X7769661Y-662373D01*
X7769661Y-662373D02*
X7825299Y-718011D01*
X7825299Y-718011D02*
X7880937Y-829287D01*
X7880937Y-829287D02*
X7880937Y-996201D01*
X7880937Y-996201D02*
X7825299Y-1107477D01*
X7825299Y-1107477D02*
X7769661Y-1163116D01*
X7769661Y-1163116D02*
X7658385Y-1218754D01*
X7658385Y-1218754D02*
X7213280Y-1218754D01*
X7213280Y-1218754D02*
X7213280Y-50354D01*
X7213280Y-50354D02*
X7602747Y-50354D01*
X7602747Y-50354D02*
X7714023Y-105992D01*
X7714023Y-105992D02*
X7769661Y-161630D01*
X7769661Y-161630D02*
X7825299Y-272906D01*
X7825299Y-272906D02*
X7825299Y-384182D01*
X7825299Y-384182D02*
X7769661Y-495458D01*
X7769661Y-495458D02*
X7714023Y-551096D01*
X7714023Y-551096D02*
X7602747Y-606735D01*
X7602747Y-606735D02*
X7213280Y-606735D01*
X8326042Y-884925D02*
X8882423Y-884925D01*
X8214766Y-1218754D02*
X8604232Y-50354D01*
X8604232Y-50354D02*
X8993699Y-1218754D01*
X9216252Y-50354D02*
X9883909Y-50354D01*
X9550080Y-1218754D02*
X9550080Y-50354D01*
X10106462Y-50354D02*
X10774119Y-50354D01*
X10440290Y-1218754D02*
X10440290Y-50354D01*
X11386138Y-50354D02*
X11497415Y-50354D01*
X11497415Y-50354D02*
X11608691Y-105992D01*
X11608691Y-105992D02*
X11664329Y-161630D01*
X11664329Y-161630D02*
X11719967Y-272906D01*
X11719967Y-272906D02*
X11775605Y-495458D01*
X11775605Y-495458D02*
X11775605Y-773649D01*
X11775605Y-773649D02*
X11719967Y-996201D01*
X11719967Y-996201D02*
X11664329Y-1107477D01*
X11664329Y-1107477D02*
X11608691Y-1163116D01*
X11608691Y-1163116D02*
X11497415Y-1218754D01*
X11497415Y-1218754D02*
X11386138Y-1218754D01*
X11386138Y-1218754D02*
X11274862Y-1163116D01*
X11274862Y-1163116D02*
X11219224Y-1107477D01*
X11219224Y-1107477D02*
X11163586Y-996201D01*
X11163586Y-996201D02*
X11107948Y-773649D01*
X11107948Y-773649D02*
X11107948Y-495458D01*
X11107948Y-495458D02*
X11163586Y-272906D01*
X11163586Y-272906D02*
X11219224Y-161630D01*
X11219224Y-161630D02*
X11274862Y-105992D01*
X11274862Y-105992D02*
X11386138Y-50354D01*
D17*
X13364320Y10544904D02*
X14318006Y10544904D01*
X7649320Y10544904D02*
X8603006Y10544904D01*
X8126163Y10068061D02*
X8126163Y11021747D01*
D14*
X7921824Y16753019D02*
X7921824Y17406162D01*
X9064824Y17079590D02*
X7921824Y17079590D01*
X9064824Y17787161D02*
X7921824Y17787161D01*
X8466110Y17787161D02*
X8466110Y18440304D01*
X9064824Y18440304D02*
X7921824Y18440304D01*
X8466110Y18984590D02*
X8466110Y19365590D01*
X9064824Y19528876D02*
X9064824Y18984590D01*
X9064824Y18984590D02*
X7921824Y18984590D01*
X7921824Y18984590D02*
X7921824Y19528876D01*
X9064824Y20671876D02*
X8520538Y20290876D01*
X9064824Y20018733D02*
X7921824Y20018733D01*
X7921824Y20018733D02*
X7921824Y20454162D01*
X7921824Y20454162D02*
X7976253Y20563019D01*
X7976253Y20563019D02*
X8030681Y20617448D01*
X8030681Y20617448D02*
X8139538Y20671876D01*
X8139538Y20671876D02*
X8302824Y20671876D01*
X8302824Y20671876D02*
X8411681Y20617448D01*
X8411681Y20617448D02*
X8466110Y20563019D01*
X8466110Y20563019D02*
X8520538Y20454162D01*
X8520538Y20454162D02*
X8520538Y20018733D01*
X9064824Y21161733D02*
X7921824Y21161733D01*
X7921824Y21161733D02*
X8738253Y21542733D01*
X8738253Y21542733D02*
X7921824Y21923733D01*
X7921824Y21923733D02*
X9064824Y21923733D01*
X7921824Y22685734D02*
X7921824Y22794591D01*
X7921824Y22794591D02*
X7976253Y22903448D01*
X7976253Y22903448D02*
X8030681Y22957877D01*
X8030681Y22957877D02*
X8139538Y23012305D01*
X8139538Y23012305D02*
X8357253Y23066734D01*
X8357253Y23066734D02*
X8629396Y23066734D01*
X8629396Y23066734D02*
X8847110Y23012305D01*
X8847110Y23012305D02*
X8955967Y22957877D01*
X8955967Y22957877D02*
X9010396Y22903448D01*
X9010396Y22903448D02*
X9064824Y22794591D01*
X9064824Y22794591D02*
X9064824Y22685734D01*
X9064824Y22685734D02*
X9010396Y22576877D01*
X9010396Y22576877D02*
X8955967Y22522448D01*
X8955967Y22522448D02*
X8847110Y22468019D01*
X8847110Y22468019D02*
X8629396Y22413591D01*
X8629396Y22413591D02*
X8357253Y22413591D01*
X8357253Y22413591D02*
X8139538Y22468019D01*
X8139538Y22468019D02*
X8030681Y22522448D01*
X8030681Y22522448D02*
X7976253Y22576877D01*
X7976253Y22576877D02*
X7921824Y22685734D01*
D11*
X7759689Y31833273D02*
X7370222Y32389654D01*
X7092032Y31833273D02*
X7092032Y33001673D01*
X7092032Y33001673D02*
X7537137Y33001673D01*
X7537137Y33001673D02*
X7648413Y32946035D01*
X7648413Y32946035D02*
X7704051Y32890397D01*
X7704051Y32890397D02*
X7759689Y32779121D01*
X7759689Y32779121D02*
X7759689Y32612207D01*
X7759689Y32612207D02*
X7704051Y32500931D01*
X7704051Y32500931D02*
X7648413Y32445292D01*
X7648413Y32445292D02*
X7537137Y32389654D01*
X7537137Y32389654D02*
X7092032Y32389654D01*
X8872451Y31833273D02*
X8204794Y31833273D01*
X8538622Y31833273D02*
X8538622Y33001673D01*
X8538622Y33001673D02*
X8427346Y32834759D01*
X8427346Y32834759D02*
X8316070Y32723483D01*
X8316070Y32723483D02*
X8204794Y32667845D01*
X9595746Y33001673D02*
X9707023Y33001673D01*
X9707023Y33001673D02*
X9818299Y32946035D01*
X9818299Y32946035D02*
X9873937Y32890397D01*
X9873937Y32890397D02*
X9929575Y32779121D01*
X9929575Y32779121D02*
X9985213Y32556569D01*
X9985213Y32556569D02*
X9985213Y32278378D01*
X9985213Y32278378D02*
X9929575Y32055826D01*
X9929575Y32055826D02*
X9873937Y31944550D01*
X9873937Y31944550D02*
X9818299Y31888912D01*
X9818299Y31888912D02*
X9707023Y31833273D01*
X9707023Y31833273D02*
X9595746Y31833273D01*
X9595746Y31833273D02*
X9484470Y31888912D01*
X9484470Y31888912D02*
X9428832Y31944550D01*
X9428832Y31944550D02*
X9373194Y32055826D01*
X9373194Y32055826D02*
X9317556Y32278378D01*
X9317556Y32278378D02*
X9317556Y32556569D01*
X9317556Y32556569D02*
X9373194Y32779121D01*
X9373194Y32779121D02*
X9428832Y32890397D01*
X9428832Y32890397D02*
X9484470Y32946035D01*
X9484470Y32946035D02*
X9595746Y33001673D01*
D16*
X18270982Y17308275D02*
X18315493Y17263764D01*
X18315493Y17263764D02*
X18360003Y17130233D01*
X18360003Y17130233D02*
X18360003Y17041212D01*
X18360003Y17041212D02*
X18315493Y16907680D01*
X18315493Y16907680D02*
X18226472Y16818659D01*
X18226472Y16818659D02*
X18137451Y16774149D01*
X18137451Y16774149D02*
X17959409Y16729638D01*
X17959409Y16729638D02*
X17825877Y16729638D01*
X17825877Y16729638D02*
X17647835Y16774149D01*
X17647835Y16774149D02*
X17558814Y16818659D01*
X17558814Y16818659D02*
X17469793Y16907680D01*
X17469793Y16907680D02*
X17425283Y17041212D01*
X17425283Y17041212D02*
X17425283Y17130233D01*
X17425283Y17130233D02*
X17469793Y17263764D01*
X17469793Y17263764D02*
X17514304Y17308275D01*
X17425283Y17619848D02*
X17425283Y18198484D01*
X17425283Y18198484D02*
X17781367Y17886911D01*
X17781367Y17886911D02*
X17781367Y18020442D01*
X17781367Y18020442D02*
X17825877Y18109463D01*
X17825877Y18109463D02*
X17870388Y18153974D01*
X17870388Y18153974D02*
X17959409Y18198484D01*
X17959409Y18198484D02*
X18181961Y18198484D01*
X18181961Y18198484D02*
X18270982Y18153974D01*
X18270982Y18153974D02*
X18315493Y18109463D01*
X18315493Y18109463D02*
X18360003Y18020442D01*
X18360003Y18020442D02*
X18360003Y17753379D01*
X18360003Y17753379D02*
X18315493Y17664358D01*
X18315493Y17664358D02*
X18270982Y17619848D01*
D14*
X6524824Y20889591D02*
X5980538Y20508591D01*
X6524824Y20236448D02*
X5381824Y20236448D01*
X5381824Y20236448D02*
X5381824Y20671877D01*
X5381824Y20671877D02*
X5436253Y20780734D01*
X5436253Y20780734D02*
X5490681Y20835163D01*
X5490681Y20835163D02*
X5599538Y20889591D01*
X5599538Y20889591D02*
X5762824Y20889591D01*
X5762824Y20889591D02*
X5871681Y20835163D01*
X5871681Y20835163D02*
X5926110Y20780734D01*
X5926110Y20780734D02*
X5980538Y20671877D01*
X5980538Y20671877D02*
X5980538Y20236448D01*
X6524824Y21978163D02*
X6524824Y21325020D01*
X6524824Y21651591D02*
X5381824Y21651591D01*
X5381824Y21651591D02*
X5545110Y21542734D01*
X5545110Y21542734D02*
X5653967Y21433877D01*
X5653967Y21433877D02*
X5708396Y21325020D01*
X6524824Y23066734D02*
X6524824Y22413591D01*
X6524824Y22740162D02*
X5381824Y22740162D01*
X5381824Y22740162D02*
X5545110Y22631305D01*
X5545110Y22631305D02*
X5653967Y22522448D01*
X5653967Y22522448D02*
X5708396Y22413591D01*
D11*
X2123032Y-12805726D02*
X2123032Y-11637326D01*
X2123032Y-11637326D02*
X2401222Y-11637326D01*
X2401222Y-11637326D02*
X2568137Y-11692964D01*
X2568137Y-11692964D02*
X2679413Y-11804240D01*
X2679413Y-11804240D02*
X2735051Y-11915516D01*
X2735051Y-11915516D02*
X2790689Y-12138068D01*
X2790689Y-12138068D02*
X2790689Y-12304983D01*
X2790689Y-12304983D02*
X2735051Y-12527535D01*
X2735051Y-12527535D02*
X2679413Y-12638811D01*
X2679413Y-12638811D02*
X2568137Y-12750088D01*
X2568137Y-12750088D02*
X2401222Y-12805726D01*
X2401222Y-12805726D02*
X2123032Y-12805726D01*
X3235794Y-11748602D02*
X3291432Y-11692964D01*
X3291432Y-11692964D02*
X3402708Y-11637326D01*
X3402708Y-11637326D02*
X3680899Y-11637326D01*
X3680899Y-11637326D02*
X3792175Y-11692964D01*
X3792175Y-11692964D02*
X3847813Y-11748602D01*
X3847813Y-11748602D02*
X3903451Y-11859878D01*
X3903451Y-11859878D02*
X3903451Y-11971154D01*
X3903451Y-11971154D02*
X3847813Y-12138068D01*
X3847813Y-12138068D02*
X3180156Y-12805726D01*
X3180156Y-12805726D02*
X3903451Y-12805726D01*
D16*
X9335151Y12766639D02*
X9290640Y12722129D01*
X9290640Y12722129D02*
X9157109Y12677618D01*
X9157109Y12677618D02*
X9068088Y12677618D01*
X9068088Y12677618D02*
X8934556Y12722129D01*
X8934556Y12722129D02*
X8845535Y12811149D01*
X8845535Y12811149D02*
X8801025Y12900170D01*
X8801025Y12900170D02*
X8756514Y13078212D01*
X8756514Y13078212D02*
X8756514Y13211744D01*
X8756514Y13211744D02*
X8801025Y13389786D01*
X8801025Y13389786D02*
X8845535Y13478807D01*
X8845535Y13478807D02*
X8934556Y13567828D01*
X8934556Y13567828D02*
X9068088Y13612338D01*
X9068088Y13612338D02*
X9157109Y13612338D01*
X9157109Y13612338D02*
X9290640Y13567828D01*
X9290640Y13567828D02*
X9335151Y13523317D01*
X9691234Y13523317D02*
X9735745Y13567828D01*
X9735745Y13567828D02*
X9824766Y13612338D01*
X9824766Y13612338D02*
X10047318Y13612338D01*
X10047318Y13612338D02*
X10136339Y13567828D01*
X10136339Y13567828D02*
X10180850Y13523317D01*
X10180850Y13523317D02*
X10225360Y13434296D01*
X10225360Y13434296D02*
X10225360Y13345275D01*
X10225360Y13345275D02*
X10180850Y13211744D01*
X10180850Y13211744D02*
X9646724Y12677618D01*
X9646724Y12677618D02*
X10225360Y12677618D01*
D11*
X22030689Y14324273D02*
X21641222Y14880654D01*
X21363032Y14324273D02*
X21363032Y15492673D01*
X21363032Y15492673D02*
X21808137Y15492673D01*
X21808137Y15492673D02*
X21919413Y15437035D01*
X21919413Y15437035D02*
X21975051Y15381397D01*
X21975051Y15381397D02*
X22030689Y15270121D01*
X22030689Y15270121D02*
X22030689Y15103207D01*
X22030689Y15103207D02*
X21975051Y14991931D01*
X21975051Y14991931D02*
X21919413Y14936292D01*
X21919413Y14936292D02*
X21808137Y14880654D01*
X21808137Y14880654D02*
X21363032Y14880654D01*
X22475794Y15381397D02*
X22531432Y15437035D01*
X22531432Y15437035D02*
X22642708Y15492673D01*
X22642708Y15492673D02*
X22920899Y15492673D01*
X22920899Y15492673D02*
X23032175Y15437035D01*
X23032175Y15437035D02*
X23087813Y15381397D01*
X23087813Y15381397D02*
X23143451Y15270121D01*
X23143451Y15270121D02*
X23143451Y15158845D01*
X23143451Y15158845D02*
X23087813Y14991931D01*
X23087813Y14991931D02*
X22420156Y14324273D01*
X22420156Y14324273D02*
X23143451Y14324273D01*
D15*
X28685409Y26209446D02*
X28685409Y26583334D01*
X28685409Y26583334D02*
X28774430Y26583334D01*
X28774430Y26583334D02*
X28827843Y26565530D01*
X28827843Y26565530D02*
X28863451Y26529922D01*
X28863451Y26529922D02*
X28881256Y26494313D01*
X28881256Y26494313D02*
X28899060Y26423097D01*
X28899060Y26423097D02*
X28899060Y26369684D01*
X28899060Y26369684D02*
X28881256Y26298467D01*
X28881256Y26298467D02*
X28863451Y26262859D01*
X28863451Y26262859D02*
X28827843Y26227251D01*
X28827843Y26227251D02*
X28774430Y26209446D01*
X28774430Y26209446D02*
X28685409Y26209446D01*
X29255144Y26209446D02*
X29041493Y26209446D01*
X29148318Y26209446D02*
X29148318Y26583334D01*
X29148318Y26583334D02*
X29112710Y26529922D01*
X29112710Y26529922D02*
X29077102Y26494313D01*
X29077102Y26494313D02*
X29041493Y26476509D01*
X28685409Y23415446D02*
X28685409Y23789334D01*
X28685409Y23789334D02*
X28810039Y23522271D01*
X28810039Y23522271D02*
X28934668Y23789334D01*
X28934668Y23789334D02*
X28934668Y23415446D01*
X29237340Y23611292D02*
X29290752Y23593488D01*
X29290752Y23593488D02*
X29308557Y23575684D01*
X29308557Y23575684D02*
X29326361Y23540076D01*
X29326361Y23540076D02*
X29326361Y23486663D01*
X29326361Y23486663D02*
X29308557Y23451055D01*
X29308557Y23451055D02*
X29290752Y23433251D01*
X29290752Y23433251D02*
X29255144Y23415446D01*
X29255144Y23415446D02*
X29112710Y23415446D01*
X29112710Y23415446D02*
X29112710Y23789334D01*
X29112710Y23789334D02*
X29237340Y23789334D01*
X29237340Y23789334D02*
X29272948Y23771530D01*
X29272948Y23771530D02*
X29290752Y23753726D01*
X29290752Y23753726D02*
X29308557Y23718118D01*
X29308557Y23718118D02*
X29308557Y23682509D01*
X29308557Y23682509D02*
X29290752Y23646901D01*
X29290752Y23646901D02*
X29272948Y23629097D01*
X29272948Y23629097D02*
X29237340Y23611292D01*
X29237340Y23611292D02*
X29112710Y23611292D01*
X29700249Y23415446D02*
X29575619Y23593488D01*
X29486598Y23415446D02*
X29486598Y23789334D01*
X29486598Y23789334D02*
X29629032Y23789334D01*
X29629032Y23789334D02*
X29664640Y23771530D01*
X29664640Y23771530D02*
X29682445Y23753726D01*
X29682445Y23753726D02*
X29700249Y23718118D01*
X29700249Y23718118D02*
X29700249Y23664705D01*
X29700249Y23664705D02*
X29682445Y23629097D01*
X29682445Y23629097D02*
X29664640Y23611292D01*
X29664640Y23611292D02*
X29629032Y23593488D01*
X29629032Y23593488D02*
X29486598Y23593488D01*
X30056333Y23415446D02*
X29842682Y23415446D01*
X29949507Y23415446D02*
X29949507Y23789334D01*
X29949507Y23789334D02*
X29913899Y23735922D01*
X29913899Y23735922D02*
X29878291Y23700313D01*
X29878291Y23700313D02*
X29842682Y23682509D01*
X30198766Y23753726D02*
X30216570Y23771530D01*
X30216570Y23771530D02*
X30252179Y23789334D01*
X30252179Y23789334D02*
X30341200Y23789334D01*
X30341200Y23789334D02*
X30376808Y23771530D01*
X30376808Y23771530D02*
X30394612Y23753726D01*
X30394612Y23753726D02*
X30412417Y23718118D01*
X30412417Y23718118D02*
X30412417Y23682509D01*
X30412417Y23682509D02*
X30394612Y23629097D01*
X30394612Y23629097D02*
X30180962Y23415446D01*
X30180962Y23415446D02*
X30412417Y23415446D01*
X30643871Y23789334D02*
X30679480Y23789334D01*
X30679480Y23789334D02*
X30715088Y23771530D01*
X30715088Y23771530D02*
X30732892Y23753726D01*
X30732892Y23753726D02*
X30750696Y23718118D01*
X30750696Y23718118D02*
X30768501Y23646901D01*
X30768501Y23646901D02*
X30768501Y23557880D01*
X30768501Y23557880D02*
X30750696Y23486663D01*
X30750696Y23486663D02*
X30732892Y23451055D01*
X30732892Y23451055D02*
X30715088Y23433251D01*
X30715088Y23433251D02*
X30679480Y23415446D01*
X30679480Y23415446D02*
X30643871Y23415446D01*
X30643871Y23415446D02*
X30608263Y23433251D01*
X30608263Y23433251D02*
X30590459Y23451055D01*
X30590459Y23451055D02*
X30572654Y23486663D01*
X30572654Y23486663D02*
X30554850Y23557880D01*
X30554850Y23557880D02*
X30554850Y23646901D01*
X30554850Y23646901D02*
X30572654Y23718118D01*
X30572654Y23718118D02*
X30590459Y23753726D01*
X30590459Y23753726D02*
X30608263Y23771530D01*
X30608263Y23771530D02*
X30643871Y23789334D01*
X30875326Y23789334D02*
X30999955Y23415446D01*
X30999955Y23415446D02*
X31124585Y23789334D01*
X31427255Y23415446D02*
X31249213Y23415446D01*
X31249213Y23415446D02*
X31249213Y23789334D01*
X31534080Y23433251D02*
X31587493Y23415446D01*
X31587493Y23415446D02*
X31676514Y23415446D01*
X31676514Y23415446D02*
X31712122Y23433251D01*
X31712122Y23433251D02*
X31729926Y23451055D01*
X31729926Y23451055D02*
X31747731Y23486663D01*
X31747731Y23486663D02*
X31747731Y23522271D01*
X31747731Y23522271D02*
X31729926Y23557880D01*
X31729926Y23557880D02*
X31712122Y23575684D01*
X31712122Y23575684D02*
X31676514Y23593488D01*
X31676514Y23593488D02*
X31605297Y23611292D01*
X31605297Y23611292D02*
X31569689Y23629097D01*
X31569689Y23629097D02*
X31551884Y23646901D01*
X31551884Y23646901D02*
X31534080Y23682509D01*
X31534080Y23682509D02*
X31534080Y23718118D01*
X31534080Y23718118D02*
X31551884Y23753726D01*
X31551884Y23753726D02*
X31569689Y23771530D01*
X31569689Y23771530D02*
X31605297Y23789334D01*
X31605297Y23789334D02*
X31694318Y23789334D01*
X31694318Y23789334D02*
X31747731Y23771530D01*
X32032598Y23611292D02*
X31907968Y23611292D01*
X31907968Y23415446D02*
X31907968Y23789334D01*
X31907968Y23789334D02*
X32086010Y23789334D01*
X32175031Y23789334D02*
X32388681Y23789334D01*
X32281856Y23415446D02*
X32281856Y23789334D01*
X32709157Y23415446D02*
X32495506Y23415446D01*
X32602331Y23415446D02*
X32602331Y23789334D01*
X32602331Y23789334D02*
X32566723Y23735922D01*
X32566723Y23735922D02*
X32531115Y23700313D01*
X32531115Y23700313D02*
X32495506Y23682509D01*
X33065241Y23771530D02*
X33029632Y23789334D01*
X33029632Y23789334D02*
X32976220Y23789334D01*
X32976220Y23789334D02*
X32922807Y23771530D01*
X32922807Y23771530D02*
X32887199Y23735922D01*
X32887199Y23735922D02*
X32869394Y23700313D01*
X32869394Y23700313D02*
X32851590Y23629097D01*
X32851590Y23629097D02*
X32851590Y23575684D01*
X32851590Y23575684D02*
X32869394Y23504467D01*
X32869394Y23504467D02*
X32887199Y23468859D01*
X32887199Y23468859D02*
X32922807Y23433251D01*
X32922807Y23433251D02*
X32976220Y23415446D01*
X32976220Y23415446D02*
X33011828Y23415446D01*
X33011828Y23415446D02*
X33065241Y23433251D01*
X33065241Y23433251D02*
X33083045Y23451055D01*
X33083045Y23451055D02*
X33083045Y23575684D01*
X33083045Y23575684D02*
X33011828Y23575684D01*
D14*
X15211066Y5658285D02*
X15211066Y4841856D01*
X15211066Y4841856D02*
X15156637Y4678571D01*
X15156637Y4678571D02*
X15047780Y4569714D01*
X15047780Y4569714D02*
X14884494Y4515285D01*
X14884494Y4515285D02*
X14775637Y4515285D01*
X15755351Y4515285D02*
X15755351Y5658285D01*
X15755351Y5658285D02*
X16190780Y5658285D01*
X16190780Y5658285D02*
X16299637Y5603856D01*
X16299637Y5603856D02*
X16354066Y5549428D01*
X16354066Y5549428D02*
X16408494Y5440571D01*
X16408494Y5440571D02*
X16408494Y5277285D01*
X16408494Y5277285D02*
X16354066Y5168428D01*
X16354066Y5168428D02*
X16299637Y5113999D01*
X16299637Y5113999D02*
X16190780Y5059571D01*
X16190780Y5059571D02*
X15755351Y5059571D01*
X17388209Y5277285D02*
X17388209Y4515285D01*
X17116066Y5712714D02*
X16843923Y4896285D01*
X16843923Y4896285D02*
X17551494Y4896285D01*
D19*
%TO.C,R9*%
G36*
X24196500Y7401800D02*
G01*
X22796500Y7401800D01*
X22796500Y8051800D01*
X24196500Y8051800D01*
X24196500Y7401800D01*
G37*
G36*
X24196500Y5928600D02*
G01*
X22796500Y5928600D01*
X22796500Y6578600D01*
X24196500Y6578600D01*
X24196500Y5928600D01*
G37*
%TO.C,R12*%
G36*
X29400500Y17681200D02*
G01*
X28000500Y17681200D01*
X28000500Y18331200D01*
X29400500Y18331200D01*
X29400500Y17681200D01*
G37*
G36*
X29400500Y19154400D02*
G01*
X28000500Y19154400D01*
X28000500Y19804400D01*
X29400500Y19804400D01*
X29400500Y19154400D01*
G37*
%TO.C,CN4*%
D14*
X26125000Y29055000D02*
X18325000Y29055000D01*
X26125000Y34255000D02*
X26125000Y31555000D01*
X26125000Y38255000D02*
X18325000Y38255000D01*
X25425000Y29055000D02*
X24325000Y29055000D01*
X20125000Y29055000D02*
X19025000Y29055000D01*
X18325000Y31555000D02*
X18325000Y34255000D01*
%TO.C,IC1*%
X20225000Y21050000D02*
X20225000Y20550000D01*
X20225000Y17050000D02*
X20225000Y17550000D01*
X20725000Y21050000D02*
X20225000Y21050000D01*
X20725000Y17050000D02*
X20225000Y17050000D01*
X23725000Y21050000D02*
X24225000Y21050000D01*
X23725000Y17050000D02*
X24225000Y17050000D01*
X24225000Y21050000D02*
X24225000Y20550000D01*
X24225000Y17050000D02*
X24225000Y17550000D01*
D20*
X19850000Y20800000D02*
G75*
G02*
X19600000Y20800000I-125000J0D01*
G01*
X19600000Y20800000D02*
G75*
G02*
X19850000Y20800000I125000J0D01*
G01*
D19*
%TO.C,R8*%
G36*
X21656500Y7401800D02*
G01*
X20256500Y7401800D01*
X20256500Y8051800D01*
X21656500Y8051800D01*
X21656500Y7401800D01*
G37*
G36*
X21656500Y5928600D02*
G01*
X20256500Y5928600D01*
X20256500Y6578600D01*
X21656500Y6578600D01*
X21656500Y5928600D01*
G37*
%TO.C,CHRG/LBO0*%
G36*
X19090000Y6685000D02*
G01*
X18940000Y6685000D01*
X18940000Y6985000D01*
X19090000Y6985000D01*
X19090000Y6685000D01*
G37*
G36*
X18565000Y6685000D02*
G01*
X18265000Y6685000D01*
X18265000Y6985000D01*
X18565000Y6985000D01*
X18565000Y6685000D01*
G37*
G36*
X17890000Y6685000D02*
G01*
X17740000Y6685000D01*
X17740000Y6985000D01*
X17890000Y6985000D01*
X17890000Y6685000D01*
G37*
%TO.C,R3*%
G36*
X27561800Y12458500D02*
G01*
X26911800Y12458500D01*
X26911800Y13858500D01*
X27561800Y13858500D01*
X27561800Y12458500D01*
G37*
G36*
X26088600Y12458500D02*
G01*
X25438600Y12458500D01*
X25438600Y13858500D01*
X26088600Y13858500D01*
X26088600Y12458500D01*
G37*
%TO.C,LOAD0*%
D14*
X38925000Y8310000D02*
X38925000Y4310000D01*
X38075000Y5810000D02*
X38075000Y8310000D01*
X38075000Y8310000D02*
X38925000Y8310000D01*
X37175000Y810000D02*
X32675000Y810000D01*
X36675000Y5810000D02*
X38075000Y5810000D01*
X31775000Y5810000D02*
X33175000Y5810000D01*
X31775000Y8310000D02*
X31775000Y5810000D01*
X30925000Y4310000D02*
X30925000Y8310000D01*
X30925000Y8310000D02*
X31775000Y8310000D01*
D19*
%TO.C,DONE0*%
G36*
X26710000Y6685000D02*
G01*
X26560000Y6685000D01*
X26560000Y6985000D01*
X26710000Y6985000D01*
X26710000Y6685000D01*
G37*
G36*
X26185000Y6685000D02*
G01*
X25885000Y6685000D01*
X25885000Y6985000D01*
X26185000Y6985000D01*
X26185000Y6685000D01*
G37*
G36*
X25510000Y6685000D02*
G01*
X25360000Y6685000D01*
X25360000Y6985000D01*
X25510000Y6985000D01*
X25510000Y6685000D01*
G37*
%TO.C,C4*%
D21*
X39370000Y24130000D02*
X39370000Y22860000D01*
X38735000Y23495000D02*
X40005000Y23495000D01*
X39370000Y19558000D02*
X39370000Y19304000D01*
X40640000Y19304000D02*
X39370000Y19304000D01*
X39370000Y19304000D02*
X38100000Y19304000D01*
X38100000Y19304000D02*
X38100000Y18669000D01*
X40640000Y18669000D02*
X40640000Y19304000D01*
X38100000Y18669000D02*
X40640000Y18669000D01*
X39370000Y17780000D02*
X39370000Y17272000D01*
X46355000Y18415000D02*
G75*
G02*
X32385000Y18415000I-6985000J0D01*
G01*
X32385000Y18415000D02*
G75*
G02*
X46355000Y18415000I6985000J0D01*
G01*
D19*
G36*
X40640000Y17526000D02*
G01*
X38100000Y17526000D01*
X38100000Y18161000D01*
X40640000Y18161000D01*
X40640000Y17526000D01*
G37*
%TO.C,PWR0*%
G36*
X7809000Y36655000D02*
G01*
X7509000Y36655000D01*
X7509000Y36805000D01*
X7809000Y36805000D01*
X7809000Y36655000D01*
G37*
G36*
X7809000Y35980000D02*
G01*
X7509000Y35980000D01*
X7509000Y36280000D01*
X7809000Y36280000D01*
X7809000Y35980000D01*
G37*
G36*
X7809000Y35455000D02*
G01*
X7509000Y35455000D01*
X7509000Y35605000D01*
X7809000Y35605000D01*
X7809000Y35455000D01*
G37*
%TO.C,CN1*%
D14*
X36342000Y27154000D02*
X36342000Y38254000D01*
X36342000Y27154000D02*
X35342000Y27154000D01*
X36342000Y38254000D02*
X31342000Y38254000D01*
X32342000Y27154000D02*
X31342000Y27154000D01*
X31342000Y27154000D02*
X31342000Y38254000D01*
%TO.C,BATT0*%
X13525000Y8310000D02*
X13525000Y4310000D01*
X12675000Y5810000D02*
X12675000Y8310000D01*
X12675000Y8310000D02*
X13525000Y8310000D01*
X11775000Y810000D02*
X7275000Y810000D01*
X11275000Y5810000D02*
X12675000Y5810000D01*
X6375000Y5810000D02*
X7775000Y5810000D01*
X6375000Y8310000D02*
X6375000Y5810000D01*
X5525000Y4310000D02*
X5525000Y8310000D01*
X5525000Y8310000D02*
X6375000Y8310000D01*
%TO.C,THERM0*%
D21*
X5461000Y23495000D02*
X7239000Y23495000D01*
X7493000Y23241000D02*
X7493000Y22860000D01*
X5207000Y23241000D02*
X5207000Y22860000D01*
X7366000Y22733000D02*
X7493000Y22860000D01*
X5334000Y22733000D02*
X5207000Y22860000D01*
X7366000Y17907000D02*
X7366000Y22733000D01*
X7366000Y17907000D02*
X7493000Y17780000D01*
X5334000Y17907000D02*
X5334000Y22733000D01*
X5334000Y17907000D02*
X5207000Y17780000D01*
X7493000Y17399000D02*
X7493000Y17780000D01*
X5207000Y17399000D02*
X5207000Y17780000D01*
X5461000Y17145000D02*
X7239000Y17145000D01*
X7239000Y23495000D02*
G75*
G02*
X7493000Y23241000I0J-254000D01*
G01*
X5207000Y23241000D02*
G75*
G02*
X5461000Y23495000I254000J0D01*
G01*
X7493000Y17399000D02*
G75*
G02*
X7239000Y17145000I-254000J0D01*
G01*
X5461000Y17145000D02*
G75*
G02*
X5207000Y17399000I0J254000D01*
G01*
D19*
G36*
X6654800Y23495000D02*
G01*
X6045200Y23495000D01*
X6045200Y24358600D01*
X6654800Y24358600D01*
X6654800Y23495000D01*
G37*
G36*
X7051500Y20736800D02*
G01*
X5651500Y20736800D01*
X5651500Y21386800D01*
X7051500Y21386800D01*
X7051500Y20736800D01*
G37*
G36*
X7051500Y19263600D02*
G01*
X5651500Y19263600D01*
X5651500Y19913600D01*
X7051500Y19913600D01*
X7051500Y19263600D01*
G37*
G36*
X6654800Y16281400D02*
G01*
X6045200Y16281400D01*
X6045200Y17145000D01*
X6654800Y17145000D01*
X6654800Y16281400D01*
G37*
%TO.C,R10*%
G36*
X7092200Y29970500D02*
G01*
X6442200Y29970500D01*
X6442200Y31370500D01*
X7092200Y31370500D01*
X7092200Y29970500D01*
G37*
G36*
X8565400Y29970500D02*
G01*
X7915400Y29970500D01*
X7915400Y31370500D01*
X8565400Y31370500D01*
X8565400Y29970500D01*
G37*
%TO.C,R11*%
D21*
X2921000Y23495000D02*
X4699000Y23495000D01*
X4953000Y23241000D02*
X4953000Y22860000D01*
X2667000Y23241000D02*
X2667000Y22860000D01*
X4826000Y22733000D02*
X4953000Y22860000D01*
X2794000Y22733000D02*
X2667000Y22860000D01*
X4826000Y17907000D02*
X4826000Y22733000D01*
X4826000Y17907000D02*
X4953000Y17780000D01*
X2794000Y17907000D02*
X2794000Y22733000D01*
X2794000Y17907000D02*
X2667000Y17780000D01*
X4953000Y17399000D02*
X4953000Y17780000D01*
X2667000Y17399000D02*
X2667000Y17780000D01*
X2921000Y17145000D02*
X4699000Y17145000D01*
X4699000Y23495000D02*
G75*
G02*
X4953000Y23241000I0J-254000D01*
G01*
X2667000Y23241000D02*
G75*
G02*
X2921000Y23495000I254000J0D01*
G01*
X4953000Y17399000D02*
G75*
G02*
X4699000Y17145000I-254000J0D01*
G01*
X2921000Y17145000D02*
G75*
G02*
X2667000Y17399000I0J254000D01*
G01*
D19*
G36*
X4114800Y23495000D02*
G01*
X3505200Y23495000D01*
X3505200Y24358600D01*
X4114800Y24358600D01*
X4114800Y23495000D01*
G37*
G36*
X4511500Y20736800D02*
G01*
X3111500Y20736800D01*
X3111500Y21386800D01*
X4511500Y21386800D01*
X4511500Y20736800D01*
G37*
G36*
X4511500Y19263600D02*
G01*
X3111500Y19263600D01*
X3111500Y19913600D01*
X4511500Y19913600D01*
X4511500Y19263600D01*
G37*
G36*
X4114800Y16281400D02*
G01*
X3505200Y16281400D01*
X3505200Y17145000D01*
X4114800Y17145000D01*
X4114800Y16281400D01*
G37*
%TO.C,D2*%
G36*
X2123200Y-14668500D02*
G01*
X1473200Y-14668500D01*
X1473200Y-13268500D01*
X2123200Y-13268500D01*
X2123200Y-14668500D01*
G37*
G36*
X3596400Y-14668500D02*
G01*
X2946400Y-14668500D01*
X2946400Y-13268500D01*
X3596400Y-13268500D01*
X3596400Y-14668500D01*
G37*
%TO.C,R2*%
G36*
X21363200Y12461500D02*
G01*
X20713200Y12461500D01*
X20713200Y13861500D01*
X21363200Y13861500D01*
X21363200Y12461500D01*
G37*
G36*
X22836400Y12461500D02*
G01*
X22186400Y12461500D01*
X22186400Y13861500D01*
X22836400Y13861500D01*
X22836400Y12461500D01*
G37*
%TO.C,D1*%
D14*
X28445000Y25692000D02*
X28945000Y25692000D01*
X28445000Y25492000D02*
X28445000Y25692000D01*
X28445000Y24292000D02*
X28445000Y24092000D01*
X28445000Y24092000D02*
X28945000Y24092000D01*
D22*
X29345000Y25638000D02*
X29345000Y24892000D01*
X29345000Y24892000D02*
X29345000Y24146000D01*
X29345000Y24892000D02*
X30345000Y25638000D01*
X30345000Y25638000D02*
X30345000Y24146000D01*
X30345000Y24146000D02*
X29345000Y24892000D01*
D14*
X31245000Y25692000D02*
X30745000Y25692000D01*
X31245000Y25492000D02*
X31245000Y25692000D01*
X31245000Y24292000D02*
X31245000Y24092000D01*
X31245000Y24092000D02*
X30745000Y24092000D01*
%TD*%
%LPC*%
D19*
%TO.C,U$3*%
G36*
X43308683Y7019880D02*
G01*
X43481570Y6927470D01*
X43633107Y6803107D01*
X43757470Y6651570D01*
X43849880Y6478683D01*
X43906785Y6291090D01*
X43926000Y6096000D01*
X43849880Y5713317D01*
X43757470Y5540430D01*
X43633107Y5388893D01*
X43481570Y5264530D01*
X43308683Y5172120D01*
X43121090Y5115215D01*
X42926000Y5096000D01*
X42543317Y5172120D01*
X42370430Y5264530D01*
X42218893Y5388893D01*
X42094530Y5540430D01*
X42002120Y5713317D01*
X41945215Y5900910D01*
X41926000Y6096000D01*
X42002120Y6478683D01*
X42094530Y6651570D01*
X42218893Y6803107D01*
X42370430Y6927470D01*
X42543317Y7019880D01*
X42730910Y7076785D01*
X42926000Y7096000D01*
X43308683Y7019880D01*
G37*
%TO.C,THERM0*%
G36*
X7150000Y20645400D02*
G01*
X5550000Y20645400D01*
X5550000Y22045400D01*
X7150000Y22045400D01*
X7150000Y20645400D01*
G37*
G36*
X7150000Y18594600D02*
G01*
X5550000Y18594600D01*
X5550000Y19994600D01*
X7150000Y19994600D01*
X7150000Y18594600D01*
G37*
%TO.C,R11*%
G36*
X4610000Y20645400D02*
G01*
X3010000Y20645400D01*
X3010000Y22045400D01*
X4610000Y22045400D01*
X4610000Y20645400D01*
G37*
G36*
X4610000Y18594600D02*
G01*
X3010000Y18594600D01*
X3010000Y19994600D01*
X4610000Y19994600D01*
X4610000Y18594600D01*
G37*
%TO.C,U$2*%
G36*
X3938683Y32673880D02*
G01*
X4111570Y32581470D01*
X4263107Y32457107D01*
X4387470Y32305570D01*
X4479880Y32132683D01*
X4536785Y31945090D01*
X4556000Y31750000D01*
X4479880Y31367317D01*
X4387470Y31194430D01*
X4263107Y31042893D01*
X4111570Y30918530D01*
X3938683Y30826120D01*
X3751090Y30769215D01*
X3556000Y30750000D01*
X3173317Y30826120D01*
X3000430Y30918530D01*
X2848893Y31042893D01*
X2724530Y31194430D01*
X2632120Y31367317D01*
X2575215Y31554910D01*
X2556000Y31750000D01*
X2632120Y32132683D01*
X2724530Y32305570D01*
X2848893Y32457107D01*
X3000430Y32581470D01*
X3173317Y32673880D01*
X3360910Y32730785D01*
X3556000Y32750000D01*
X3938683Y32673880D01*
G37*
%TD*%
D23*
%TO.C,CN4*%
X24425000Y32655000D03*
X20025000Y32655000D03*
%TD*%
D24*
%TO.C,UNK_HOLE_0*%
X3000000Y35000000D03*
%TD*%
D25*
%TO.C,U$3*%
X42926000Y6096000D03*
%TD*%
D24*
%TO.C,UNK_HOLE_2*%
X42000000Y3000000D03*
%TD*%
%TO.C,UNK_HOLE_1*%
X3000000Y3000000D03*
%TD*%
%TO.C,UNK_HOLE_3*%
X42000000Y35000000D03*
%TD*%
D25*
%TO.C,U$2*%
X3556000Y31750000D03*
%TD*%
%LPD*%
M02*
