%TF.GenerationSoftware,KiCad,Pcbnew,10.0.6*%
%TF.CreationDate,2026-09-06T20:35:39+01:00*%
%TF.ProjectId,kicad_file,6b696361-645f-4666-996c-652e6b696361,V1.2.0*%
%TF.SameCoordinates,PX5f5e100PY8583b00*%
%TF.FileFunction,Copper,L1,Top*%
%TF.FilePolarity,Positive*%
%FSLAX46Y46*%
G04 Gerber Fmt 4.6, Leading zero omitted, Abs format (unit mm)*
G04 Created by KiCad (PCBNEW 10.0.6) date 2026-09-06 20:35:39*
%MOMM*%
%LPD*%
G01*
G04 APERTURE LIST*
%TA.AperFunction,EtchedComponent*%
%ADD10C,0.100000*%
%TD*%
%TA.AperFunction,EtchedComponent*%
%ADD11C,0.200000*%
%TD*%
%TA.AperFunction,ComponentPad*%
%ADD12C,1.250000*%
%TD*%
%TA.AperFunction,ComponentPad*%
%ADD13C,0.800000*%
%TD*%
%TA.AperFunction,SMDPad,CuDef*%
%ADD14R,4.500000X2.300000*%
%TD*%
%TA.AperFunction,SMDPad,CuDef*%
%ADD15R,0.640000X1.000000*%
%TD*%
%TA.AperFunction,SMDPad,CuDef*%
%ADD16R,0.640000X0.540000*%
%TD*%
%TA.AperFunction,SMDPad,CuDef*%
%ADD17R,1.100000X0.600000*%
%TD*%
%TA.AperFunction,SMDPad,CuDef*%
%ADD18R,1.000000X0.660000*%
%TD*%
%TA.AperFunction,SMDPad,CuDef*%
%ADD19R,0.500000X1.000000*%
%TD*%
%TA.AperFunction,SMDPad,CuDef*%
%ADD20R,0.600000X1.000000*%
%TD*%
%TA.AperFunction,SMDPad,CuDef*%
%ADD21R,1.000000X0.640000*%
%TD*%
%TA.AperFunction,SMDPad,CuDef*%
%ADD22R,0.660000X0.300000*%
%TD*%
%TA.AperFunction,ComponentPad*%
%ADD23C,1.700000*%
%TD*%
%TA.AperFunction,SMDPad,CuDef*%
%ADD24R,2.450000X1.500000*%
%TD*%
%TA.AperFunction,SMDPad,CuDef*%
%ADD25R,0.750000X0.450000*%
%TD*%
%TA.AperFunction,SMDPad,CuDef*%
%ADD26R,2.500000X1.000000*%
%TD*%
%TA.AperFunction,SMDPad,CuDef*%
%ADD27R,2.000000X1.000000*%
%TD*%
%TA.AperFunction,SMDPad,CuDef*%
%ADD28R,4.700000X1.270000*%
%TD*%
%TA.AperFunction,SMDPad,CuDef*%
%ADD29R,1.000000X1.000000*%
%TD*%
%TA.AperFunction,SMDPad,CuDef*%
%ADD30R,1.750000X1.000000*%
%TD*%
%TA.AperFunction,SMDPad,CuDef*%
%ADD31C,1.000000*%
%TD*%
%TA.AperFunction,ViaPad*%
%ADD32C,0.500000*%
%TD*%
%TA.AperFunction,Conductor*%
%ADD33C,0.500000*%
%TD*%
%TA.AperFunction,Conductor*%
%ADD34C,0.300000*%
%TD*%
%TA.AperFunction,Conductor*%
%ADD35C,0.200000*%
%TD*%
%TA.AperFunction,Conductor*%
%ADD36C,1.600000*%
%TD*%
%TA.AperFunction,Conductor*%
%ADD37C,0.254000*%
%TD*%
G04 APERTURE END LIST*
D10*
%TO.C,JP3*%
X131400000Y-97100000D02*
X131200000Y-97100000D01*
X131200000Y-96900000D01*
X131400000Y-96900000D01*
X131400000Y-97100000D01*
%TA.AperFunction,EtchedComponent*%
G36*
X131400000Y-97100000D02*
G01*
X131200000Y-97100000D01*
X131200000Y-96900000D01*
X131400000Y-96900000D01*
X131400000Y-97100000D01*
G37*
%TD.AperFunction*%
%TO.C,JP4*%
X131400000Y-129100000D02*
X131200000Y-129100000D01*
X131200000Y-128900000D01*
X131400000Y-128900000D01*
X131400000Y-129100000D01*
%TA.AperFunction,EtchedComponent*%
G36*
X131400000Y-129100000D02*
G01*
X131200000Y-129100000D01*
X131200000Y-128900000D01*
X131400000Y-128900000D01*
X131400000Y-129100000D01*
G37*
%TD.AperFunction*%
%TO.C,JP1*%
X105100000Y-95600000D02*
X104900000Y-95600000D01*
X104900000Y-95400000D01*
X105100000Y-95400000D01*
X105100000Y-95600000D01*
%TA.AperFunction,EtchedComponent*%
G36*
X105100000Y-95600000D02*
G01*
X104900000Y-95600000D01*
X104900000Y-95400000D01*
X105100000Y-95400000D01*
X105100000Y-95600000D01*
G37*
%TD.AperFunction*%
%TO.C,FD1*%
D11*
X116300000Y-136700000D02*
G75*
G02*
X114300000Y-136700000I-1000000J0D01*
G01*
X114300000Y-136700000D02*
G75*
G02*
X116300000Y-136700000I1000000J0D01*
G01*
%TD*%
D12*
%TO.P,K2,*%
%TO.N,*%
X115750000Y-131000000D03*
D13*
X123200000Y-131000000D03*
D14*
%TO.P,K2,1+*%
%TO.N,Net-(D2-Pad1)*%
X111500000Y-131000000D03*
%TO.P,K2,2-*%
%TO.N,GND*%
X127900000Y-131000000D03*
%TD*%
D15*
%TO.P,R6,1*%
%TO.N,Net-(Q1-Pad1)*%
X125775000Y-94300000D03*
%TO.P,R6,2*%
%TO.N,GND*%
X124225000Y-94300000D03*
%TD*%
D16*
%TO.P,R10,1*%
%TO.N,Net-(JP4-Pad2)*%
X133000000Y-129500000D03*
%TO.P,R10,2*%
%TO.N,Net-(D4-Pad1)*%
X133000000Y-128500000D03*
%TD*%
D17*
%TO.P,U3,1,VIN*%
%TO.N,Net-(C3-Pad2)*%
X105700000Y-97050000D03*
%TO.P,U3,2,GND*%
%TO.N,GND*%
X105700000Y-98000000D03*
%TO.P,U3,3,EN*%
%TO.N,Net-(C3-Pad2)*%
X105700000Y-98950000D03*
%TO.P,U3,4,NC*%
%TO.N,unconnected-(U3-Pad4)*%
X108300000Y-98950000D03*
%TO.P,U3,5,VOUT*%
%TO.N,3V3*%
X108300000Y-97050000D03*
%TD*%
D18*
%TO.P,C3,1*%
%TO.N,GND*%
X103700000Y-98730000D03*
%TO.P,C3,2*%
%TO.N,Net-(C3-Pad2)*%
X103700000Y-97270000D03*
%TD*%
D19*
%TO.P,JP3,1*%
%TO.N,3V3*%
X130950000Y-97000000D03*
%TO.P,JP3,2*%
%TO.N,Net-(JP3-Pad2)*%
X131650000Y-97000000D03*
%TD*%
D18*
%TO.P,C1,1*%
%TO.N,GND*%
X107900000Y-112770000D03*
%TO.P,C1,2*%
%TO.N,3V3*%
X107900000Y-114230000D03*
%TD*%
D20*
%TO.P,Q1,1,B*%
%TO.N,Net-(Q1-Pad1)*%
X125950000Y-95800000D03*
%TO.P,Q1,2,E*%
%TO.N,GND*%
X124050000Y-95800000D03*
%TO.P,Q1,3,C*%
%TO.N,Net-(Q1-Pad3)*%
X125000000Y-98200000D03*
%TD*%
D15*
%TO.P,R4,1*%
%TO.N,5V*%
X116525000Y-97000000D03*
%TO.P,R4,2*%
%TO.N,RX5*%
X118075000Y-97000000D03*
%TD*%
D18*
%TO.P,C4,1*%
%TO.N,GND*%
X110200000Y-98730000D03*
%TO.P,C4,2*%
%TO.N,3V3*%
X110200000Y-97270000D03*
%TD*%
D19*
%TO.P,JP4,1*%
%TO.N,PPS*%
X130950000Y-129000000D03*
%TO.P,JP4,2*%
%TO.N,Net-(JP4-Pad2)*%
X131650000Y-129000000D03*
%TD*%
D21*
%TO.P,R5,1*%
%TO.N,Net-(R1-Pad2)*%
X134500000Y-122225000D03*
%TO.P,R5,2*%
%TO.N,GND*%
X134500000Y-123775000D03*
%TD*%
D22*
%TO.P,U1,1,S2*%
%TO.N,TX3V3*%
X118080000Y-94350000D03*
%TO.P,U1,2,G2*%
%TO.N,3V3*%
X118080000Y-95000000D03*
%TO.P,U1,3,D1*%
%TO.N,RX5*%
X118080000Y-95650000D03*
%TO.P,U1,4,S1*%
%TO.N,RX3V3*%
X119920000Y-95650000D03*
%TO.P,U1,5,G1*%
%TO.N,3V3*%
X119920000Y-95000000D03*
%TO.P,U1,6,D2*%
%TO.N,TX5*%
X119920000Y-94350000D03*
%TD*%
D15*
%TO.P,R3,1*%
%TO.N,3V3*%
X116525000Y-93000000D03*
%TO.P,R3,2*%
%TO.N,TX3V3*%
X118075000Y-93000000D03*
%TD*%
D16*
%TO.P,R9,1*%
%TO.N,Net-(JP3-Pad2)*%
X133000000Y-97500000D03*
%TO.P,R9,2*%
%TO.N,Net-(D3-Pad1)*%
X133000000Y-96500000D03*
%TD*%
D23*
%TO.P,K3,1*%
%TO.N,ANT_DET*%
X101500000Y-121890000D03*
%TO.P,K3,2*%
%TO.N,PPS*%
X101500000Y-119350000D03*
%TO.P,K3,3*%
%TO.N,FORCE_ON*%
X101500000Y-116810000D03*
%TO.P,K3,4*%
%TO.N,RESET*%
X101500000Y-114270000D03*
%TO.P,K3,5*%
%TO.N,TX5*%
X101500000Y-111730000D03*
%TO.P,K3,6*%
%TO.N,RX5*%
X101500000Y-109190000D03*
%TO.P,K3,7*%
%TO.N,GND*%
X101500000Y-106650000D03*
%TO.P,K3,8*%
%TO.N,5V*%
X101500000Y-104110000D03*
%TD*%
D24*
%TO.P,D1,1,A*%
%TO.N,3V3*%
X107400000Y-137970000D03*
%TO.P,D1,2,K*%
%TO.N,V_BCKP*%
X110600000Y-137970000D03*
%TD*%
D25*
%TO.P,D4,1,A*%
%TO.N,Net-(D4-Pad1)*%
X134300000Y-128450000D03*
%TO.P,D4,2,K*%
%TO.N,GND*%
X134300000Y-129550000D03*
%TD*%
D15*
%TO.P,R2,1*%
%TO.N,RESET*%
X124225000Y-92800000D03*
%TO.P,R2,2*%
%TO.N,Net-(Q1-Pad1)*%
X125775000Y-92800000D03*
%TD*%
D26*
%TO.P,U2,1,RXD*%
%TO.N,RX3V3*%
X111250000Y-106650000D03*
%TO.P,U2,2,TXD1*%
%TO.N,TX3V3*%
X111250000Y-109190000D03*
%TO.P,U2,3,GND*%
%TO.N,GND*%
X111250000Y-111730000D03*
%TO.P,U2,4,VCC*%
%TO.N,3V3*%
X111250000Y-114270000D03*
%TO.P,U2,5,V_BCKP*%
%TO.N,V_BCKP*%
X111250000Y-116810000D03*
%TO.P,U2,6,1PPS*%
%TO.N,PPS*%
X111250000Y-119350000D03*
%TO.P,U2,7,FORCE_ON*%
%TO.N,Net-(R1-Pad2)*%
X126750000Y-119350000D03*
%TO.P,U2,8,AADET_N*%
%TO.N,ANT_DET*%
X126750000Y-116810000D03*
%TO.P,U2,9,NC*%
%TO.N,unconnected-(U2-Pad9)*%
X126750000Y-114270000D03*
%TO.P,U2,10,RESET*%
%TO.N,Net-(Q1-Pad3)*%
X126750000Y-111730000D03*
%TO.P,U2,11,EX_ANT*%
%TO.N,ANT*%
X126750000Y-109190000D03*
%TO.P,U2,12,GND*%
%TO.N,GND*%
X126750000Y-106650000D03*
%TD*%
D19*
%TO.P,JP1,1*%
%TO.N,Net-(C3-Pad2)*%
X104650000Y-95500000D03*
%TO.P,JP1,2*%
%TO.N,5V*%
X105350000Y-95500000D03*
%TD*%
D27*
%TO.P,K1,1,RF*%
%TO.N,ANT*%
X136000000Y-109135000D03*
D28*
%TO.P,K1,2,GND*%
%TO.N,GND*%
X135000000Y-112000000D03*
D29*
X135000000Y-110880000D03*
X135000000Y-107390000D03*
D28*
X135000000Y-106270000D03*
%TD*%
D21*
%TO.P,R1,1*%
%TO.N,FORCE_ON*%
X133000000Y-123775000D03*
%TO.P,R1,2*%
%TO.N,Net-(R1-Pad2)*%
X133000000Y-122225000D03*
%TD*%
D30*
%TO.P,C2,1*%
%TO.N,GND*%
X106900000Y-108275000D03*
%TO.P,C2,2*%
%TO.N,3V3*%
X106900000Y-111325000D03*
%TD*%
D15*
%TO.P,R8,1*%
%TO.N,RX3V3*%
X119925000Y-97000000D03*
%TO.P,R8,2*%
%TO.N,3V3*%
X121475000Y-97000000D03*
%TD*%
D19*
%TO.P,JP2,1*%
%TO.N,5V*%
X108650000Y-95500000D03*
%TO.P,JP2,2*%
%TO.N,3V3*%
X109350000Y-95500000D03*
%TD*%
D25*
%TO.P,D3,1,A*%
%TO.N,Net-(D3-Pad1)*%
X134300000Y-96450000D03*
%TO.P,D3,2,K*%
%TO.N,GND*%
X134300000Y-97550000D03*
%TD*%
D31*
%TO.P,FD1,1*%
%TO.N,N/C*%
X115300000Y-136700000D03*
%TD*%
D24*
%TO.P,D2,1,A*%
%TO.N,Net-(D2-Pad1)*%
X110500000Y-134630000D03*
%TO.P,D2,2,K*%
%TO.N,V_BCKP*%
X107300000Y-134630000D03*
%TD*%
D15*
%TO.P,R7,1*%
%TO.N,TX5*%
X119925000Y-93000000D03*
%TO.P,R7,2*%
%TO.N,5V*%
X121475000Y-93000000D03*
%TD*%
D32*
%TO.N,GND*%
X103900000Y-92800000D03*
X106000000Y-92900000D03*
X114900000Y-92400000D03*
X107500000Y-105800000D03*
X129600000Y-103100000D03*
X122800000Y-91700000D03*
X107000000Y-94100000D03*
X120700000Y-114800000D03*
X111100000Y-102400000D03*
X130800000Y-104100000D03*
X130700000Y-107200000D03*
X119000000Y-96000000D03*
X107400000Y-120500000D03*
X120300000Y-118100000D03*
X124200000Y-104200000D03*
X123500000Y-136000000D03*
X125000000Y-101800000D03*
X124100000Y-130300000D03*
X132500000Y-114100000D03*
X131000000Y-116500000D03*
X123800000Y-109300000D03*
X136900000Y-114100000D03*
X136900000Y-103100000D03*
X118100000Y-115200000D03*
X133200000Y-98800000D03*
X113400000Y-120900000D03*
X130500000Y-115100000D03*
X120100000Y-122900000D03*
X105000000Y-102400000D03*
X113800000Y-127800000D03*
X114600000Y-115400000D03*
X136500000Y-104750000D03*
X115600000Y-108700000D03*
X136800000Y-120200000D03*
X103300000Y-99800000D03*
X116600000Y-101900000D03*
X101700000Y-93300000D03*
X117000000Y-120400000D03*
X128600000Y-126500000D03*
X124200000Y-121400000D03*
X122900000Y-133800000D03*
X122200000Y-98200000D03*
X110000000Y-121000000D03*
X120900000Y-110700000D03*
X130700000Y-113500000D03*
X118800000Y-138500000D03*
X129700000Y-98500000D03*
X113700000Y-118000000D03*
X105300000Y-100700000D03*
X129700000Y-114400000D03*
X106700000Y-101700000D03*
X103000000Y-95400000D03*
X118800000Y-126400000D03*
X121300000Y-102900000D03*
X119500000Y-128600000D03*
X126200000Y-102100000D03*
X135400000Y-100900000D03*
X121900000Y-116700000D03*
X107000000Y-100000000D03*
X131800000Y-104900000D03*
X121000000Y-98300000D03*
X115700000Y-119600000D03*
X114900000Y-138800000D03*
X131600000Y-113200000D03*
X118300000Y-107900000D03*
X131700000Y-115400000D03*
X117900000Y-130800000D03*
X121000000Y-136400000D03*
X127500000Y-98600000D03*
X120700000Y-104700000D03*
X119400000Y-101900000D03*
X111100000Y-90200000D03*
X120400000Y-90400000D03*
X124400000Y-119000000D03*
X116400000Y-118100000D03*
X132800000Y-100700000D03*
X113800000Y-111000000D03*
X123700000Y-115500000D03*
X119000000Y-98500000D03*
X130800000Y-106100000D03*
X133200000Y-118200000D03*
X118600000Y-111000000D03*
X104600000Y-99700000D03*
X125900000Y-121900000D03*
X129800000Y-112900000D03*
X120900000Y-130200000D03*
X133500000Y-104000000D03*
X116100000Y-127200000D03*
X128500000Y-102000000D03*
X122800000Y-138700000D03*
X131700000Y-102900000D03*
X108700000Y-111400000D03*
X120800000Y-108000000D03*
X113900000Y-104800000D03*
X105800000Y-110000000D03*
X129700000Y-106100000D03*
X134600000Y-98600000D03*
X111400000Y-96400000D03*
X106400000Y-103500000D03*
X108600000Y-110200000D03*
X135300000Y-120300000D03*
X115000000Y-93700000D03*
X106600000Y-106700000D03*
X108200000Y-101700000D03*
X104200000Y-133600000D03*
X110200000Y-103800000D03*
X122100000Y-113000000D03*
X119500000Y-109900000D03*
X107800000Y-115800000D03*
X124000000Y-106100000D03*
X133300000Y-120200000D03*
X121800000Y-94500000D03*
X136000000Y-126500000D03*
X106800000Y-98000000D03*
X104700000Y-118200000D03*
X132750000Y-104250000D03*
X113500000Y-93600000D03*
X134100000Y-116900000D03*
X118400000Y-120300000D03*
X130600000Y-117700000D03*
X133800000Y-131700000D03*
X104600000Y-120600000D03*
X135000000Y-116900000D03*
X133400000Y-126300000D03*
X101400000Y-124900000D03*
X131800000Y-103900000D03*
X129100000Y-100600000D03*
X117500000Y-127800000D03*
X132100000Y-133200000D03*
X114500000Y-97400000D03*
X136300000Y-132600000D03*
X130900000Y-100800000D03*
X134500000Y-115500000D03*
X133900000Y-114000000D03*
X119900000Y-133800000D03*
X136600000Y-115600000D03*
X129300000Y-135000000D03*
X130700000Y-105100000D03*
X130700000Y-112100000D03*
X122300000Y-124700000D03*
X116200000Y-124200000D03*
X126000000Y-138500000D03*
X107100000Y-92000000D03*
X127600000Y-104300000D03*
X104500000Y-105300000D03*
X112500000Y-96400000D03*
X129600000Y-115800000D03*
X130300000Y-121700000D03*
X135100000Y-114000000D03*
X122400000Y-95300000D03*
X119000000Y-106300000D03*
X125700000Y-126500000D03*
X136100000Y-114100000D03*
X127800000Y-100400000D03*
X133100000Y-102900000D03*
X108300000Y-104800000D03*
X116800000Y-114900000D03*
X117100000Y-133900000D03*
X117900000Y-109600000D03*
X115500000Y-110800000D03*
X112700000Y-123600000D03*
X124000000Y-107400000D03*
X111500000Y-93100000D03*
X103400000Y-102100000D03*
X116000000Y-129700000D03*
X136000000Y-102500000D03*
X104900000Y-113000000D03*
X130000000Y-137700000D03*
X129600000Y-103900000D03*
X132200000Y-131300000D03*
X102500000Y-98000000D03*
X131800000Y-105900000D03*
X131800000Y-118100000D03*
X131600000Y-107200000D03*
X135000000Y-103250000D03*
X130700000Y-103000000D03*
X109900000Y-123500000D03*
X108900000Y-92000000D03*
X129700000Y-107200000D03*
X127600000Y-121600000D03*
X110500000Y-99700000D03*
X117100000Y-90200000D03*
X129600000Y-111400000D03*
X132500000Y-116800000D03*
X128000000Y-135800000D03*
X111300000Y-94400000D03*
X114200000Y-90200000D03*
X109400000Y-99800000D03*
X126300000Y-104400000D03*
X136900000Y-104100000D03*
X104900000Y-115600000D03*
X119500000Y-112500000D03*
X129700000Y-105000000D03*
X132000000Y-135100000D03*
X114600000Y-124900000D03*
X136200000Y-118200000D03*
X134200000Y-102900000D03*
X123400000Y-120100000D03*
%TO.N,3V3*%
X106500000Y-128100000D03*
X105700000Y-138600000D03*
%TO.N,5V*%
X115700000Y-97000000D03*
X107900000Y-95500000D03*
%TO.N,ANT_DET*%
X119000000Y-121900000D03*
%TO.N,PPS*%
X113150000Y-119350000D03*
%TO.N,FORCE_ON*%
X131900000Y-123800000D03*
%TO.N,RESET*%
X123400000Y-92800000D03*
%TO.N,TX5*%
X119920000Y-93880000D03*
%TO.N,RX5*%
X116300000Y-98400000D03*
%TO.N,TX3V3*%
X118100000Y-102900000D03*
X118080000Y-93880000D03*
%TD*%
%TO.N,3V3*%
D33*
X112000000Y-99500000D02*
X112000000Y-98000000D01*
X106900000Y-111325000D02*
X105125000Y-111325000D01*
X106500000Y-113600000D02*
X107130000Y-114230000D01*
X105700000Y-138600000D02*
X106330000Y-137970000D01*
X104600000Y-106900000D02*
X112000000Y-99500000D01*
D34*
X119920000Y-95000000D02*
X118080000Y-95000000D01*
D33*
X106330000Y-137970000D02*
X107000000Y-137970000D01*
X107130000Y-114230000D02*
X107900000Y-114230000D01*
X110200000Y-96200000D02*
X110200000Y-97270000D01*
D34*
X121475000Y-95875000D02*
X121475000Y-97000000D01*
X112930000Y-97270000D02*
X111270000Y-97270000D01*
D33*
X105125000Y-111325000D02*
X104600000Y-110800000D01*
X104600000Y-110800000D02*
X104600000Y-106900000D01*
X111270000Y-97270000D02*
X110000000Y-97270000D01*
D34*
X117100000Y-95000000D02*
X115200000Y-95000000D01*
X117100000Y-95000000D02*
X116525000Y-94425000D01*
X115200000Y-95000000D02*
X112930000Y-97270000D01*
D33*
X109500000Y-95500000D02*
X110200000Y-96200000D01*
X106500000Y-121900000D02*
X106500000Y-128100000D01*
D34*
X116525000Y-94425000D02*
X116525000Y-93000000D01*
X121475000Y-97000000D02*
X130950000Y-97000000D01*
X118080000Y-95000000D02*
X117100000Y-95000000D01*
D33*
X112000000Y-98000000D02*
X111270000Y-97270000D01*
X111250000Y-114270000D02*
X107940000Y-114270000D01*
X106900000Y-111325000D02*
X106500000Y-111725000D01*
D34*
X119920000Y-95000000D02*
X120600000Y-95000000D01*
X120600000Y-95000000D02*
X121475000Y-95875000D01*
D33*
X107940000Y-114270000D02*
X107900000Y-114230000D01*
X106500000Y-111725000D02*
X106500000Y-113600000D01*
X109350000Y-95500000D02*
X109500000Y-95500000D01*
X106500000Y-113600000D02*
X106500000Y-121900000D01*
X109150000Y-97050000D02*
X108300000Y-97050000D01*
X110200000Y-97270000D02*
X109370000Y-97270000D01*
X109370000Y-97270000D02*
X109150000Y-97050000D01*
%TO.N,Net-(C3-Pad2)*%
X104750489Y-97050000D02*
X104600489Y-97200000D01*
X104600000Y-95500000D02*
X103700000Y-96400000D01*
D35*
X106850000Y-97050000D02*
X105700000Y-97050000D01*
X107449511Y-97649511D02*
X106850000Y-97050000D01*
D33*
X103700000Y-96400000D02*
X103700000Y-97270000D01*
X105700000Y-97050000D02*
X104750489Y-97050000D01*
D35*
X105700000Y-98950000D02*
X106850000Y-98950000D01*
X107449511Y-98350489D02*
X107449511Y-97649511D01*
D33*
X104650000Y-95500000D02*
X104600000Y-95500000D01*
D35*
X106850000Y-98950000D02*
X107449511Y-98350489D01*
D33*
X103770000Y-97200000D02*
X103700000Y-97270000D01*
X104600489Y-97200000D02*
X103770000Y-97200000D01*
%TO.N,V_BCKP*%
X108300000Y-128100000D02*
X107100000Y-129300000D01*
X109590000Y-116810000D02*
X108300000Y-118100000D01*
X107100000Y-134230000D02*
X106800000Y-134530000D01*
X107100000Y-129300000D02*
X107100000Y-134230000D01*
X106800000Y-134530000D02*
X106800000Y-134570000D01*
X111250000Y-116810000D02*
X109590000Y-116810000D01*
X108300000Y-118100000D02*
X108300000Y-128100000D01*
X106800000Y-134570000D02*
X110200000Y-137970000D01*
%TO.N,Net-(D2-Pad1)*%
X111800000Y-133030000D02*
X110300000Y-134530000D01*
X111800000Y-132000000D02*
X111800000Y-133030000D01*
X110800000Y-131000000D02*
X111800000Y-132000000D01*
%TO.N,5V*%
D34*
X121475000Y-91775000D02*
X120900000Y-91200000D01*
D33*
X101500000Y-104110000D02*
X101500000Y-95500000D01*
D34*
X116525000Y-97000000D02*
X115700000Y-97000000D01*
D33*
X104999022Y-94200000D02*
X105350000Y-94550978D01*
D34*
X111500000Y-91200000D02*
X108650000Y-94050000D01*
D33*
X107900000Y-95500000D02*
X108650000Y-95500000D01*
D34*
X121475000Y-93000000D02*
X121475000Y-91775000D01*
D33*
X101500000Y-95500000D02*
X102800000Y-94200000D01*
X105350000Y-94550978D02*
X105350000Y-95500000D01*
D34*
X120900000Y-91200000D02*
X111500000Y-91200000D01*
X108650000Y-94050000D02*
X108650000Y-95500000D01*
D33*
X107900000Y-95500000D02*
X105350000Y-95500000D01*
X102800000Y-94200000D02*
X104999022Y-94200000D01*
%TO.N,ANT*%
D36*
X126750000Y-109190000D02*
X135945000Y-109190000D01*
%TO.N,ANT_DET*%
D34*
X119000000Y-121900000D02*
X124090000Y-116810000D01*
X124090000Y-116810000D02*
X126750000Y-116810000D01*
%TO.N,PPS*%
X114050000Y-119350000D02*
X123700000Y-129000000D01*
X123700000Y-129000000D02*
X130950000Y-129000000D01*
X111250000Y-119350000D02*
X113150000Y-119350000D01*
X113150000Y-119350000D02*
X114050000Y-119350000D01*
%TO.N,FORCE_ON*%
X132975000Y-123800000D02*
X133000000Y-123775000D01*
X131900000Y-123800000D02*
X132975000Y-123800000D01*
%TO.N,RESET*%
X123400000Y-92800000D02*
X124225000Y-92800000D01*
%TO.N,TX5*%
X119920000Y-94350000D02*
X119920000Y-93880000D01*
X119920000Y-93880000D02*
X119920000Y-93005000D01*
X119920000Y-93005000D02*
X119925000Y-93000000D01*
%TO.N,RX5*%
X117500000Y-98400000D02*
X118075000Y-97825000D01*
X118075000Y-97825000D02*
X118075000Y-97000000D01*
X116300000Y-98400000D02*
X117500000Y-98400000D01*
X118080000Y-95650000D02*
X118080000Y-96995000D01*
X118080000Y-96995000D02*
X118075000Y-97000000D01*
%TO.N,Net-(Q1-Pad1)*%
X125950000Y-95800000D02*
X125950000Y-94475000D01*
X125950000Y-94475000D02*
X125775000Y-94300000D01*
X125775000Y-92800000D02*
X125775000Y-94300000D01*
%TO.N,Net-(Q1-Pad3)*%
X126750000Y-111730000D02*
X123230000Y-111730000D01*
X122300000Y-102500000D02*
X125000000Y-99800000D01*
X125000000Y-99800000D02*
X125000000Y-98200000D01*
X122300000Y-110800000D02*
X122300000Y-102500000D01*
X123230000Y-111730000D02*
X122300000Y-110800000D01*
%TO.N,Net-(R1-Pad2)*%
X134500000Y-122225000D02*
X133000000Y-122225000D01*
X130125000Y-119350000D02*
X133000000Y-122225000D01*
X126750000Y-119350000D02*
X130125000Y-119350000D01*
%TO.N,TX3V3*%
X118080000Y-93005000D02*
X118075000Y-93000000D01*
X118080000Y-94350000D02*
X118080000Y-93880000D01*
X118080000Y-93880000D02*
X118080000Y-93005000D01*
X118100000Y-102900000D02*
X118100000Y-103700000D01*
X118100000Y-103700000D02*
X112610000Y-109190000D01*
X112610000Y-109190000D02*
X111250000Y-109190000D01*
%TO.N,RX3V3*%
X113250000Y-106650000D02*
X119925000Y-99975000D01*
X119920000Y-95650000D02*
X119920000Y-96995000D01*
X119920000Y-96995000D02*
X119925000Y-97000000D01*
X111250000Y-106650000D02*
X113250000Y-106650000D01*
X119925000Y-99975000D02*
X119925000Y-97000000D01*
%TO.N,Net-(D3-Pad1)*%
D37*
X133050000Y-96450000D02*
X133000000Y-96500000D01*
X134300000Y-96450000D02*
X133050000Y-96450000D01*
%TO.N,Net-(D4-Pad1)*%
D34*
X134250000Y-128500000D02*
X134300000Y-128450000D01*
X133000000Y-128500000D02*
X134250000Y-128500000D01*
%TO.N,Net-(JP3-Pad2)*%
D37*
X131650000Y-97000000D02*
X132150000Y-97500000D01*
X132150000Y-97500000D02*
X133000000Y-97500000D01*
%TO.N,Net-(JP4-Pad2)*%
D34*
X132150000Y-129500000D02*
X133000000Y-129500000D01*
X131650000Y-129000000D02*
X132150000Y-129500000D01*
%TD*%
%TA.AperFunction,Conductor*%
%TO.N,GND*%
G36*
X135504119Y-86600770D02*
G01*
X135516905Y-86601608D01*
X135739699Y-86616210D01*
X135756022Y-86618358D01*
X135983539Y-86663615D01*
X135999442Y-86667876D01*
X136219095Y-86742439D01*
X136234302Y-86748738D01*
X136442351Y-86851336D01*
X136456608Y-86859567D01*
X136649478Y-86988438D01*
X136662543Y-86998463D01*
X136836946Y-87151411D01*
X136848588Y-87163053D01*
X137001532Y-87337451D01*
X137011562Y-87350524D01*
X137081191Y-87454731D01*
X137140427Y-87543383D01*
X137148666Y-87557653D01*
X137170897Y-87602733D01*
X137251257Y-87765687D01*
X137257564Y-87780914D01*
X137332120Y-88000549D01*
X137336386Y-88016468D01*
X137381639Y-88243967D01*
X137383790Y-88260308D01*
X137399230Y-88495880D01*
X137399500Y-88504121D01*
X137399500Y-105209000D01*
X137379498Y-105277121D01*
X137325842Y-105323614D01*
X137273500Y-105335000D01*
X135150000Y-105335000D01*
X135150000Y-107240000D01*
X135801583Y-107240000D01*
X135860408Y-107207878D01*
X135887191Y-107204999D01*
X137273500Y-107204999D01*
X137341621Y-107225001D01*
X137388114Y-107278657D01*
X137399500Y-107330999D01*
X137399500Y-108305338D01*
X137379498Y-108373459D01*
X137325842Y-108419952D01*
X137255568Y-108430056D01*
X137190988Y-108400562D01*
X137184405Y-108394433D01*
X137172767Y-108382795D01*
X137172765Y-108382794D01*
X137069989Y-108337414D01*
X137069990Y-108337414D01*
X137044870Y-108334500D01*
X137044865Y-108334500D01*
X136680727Y-108334500D01*
X136612606Y-108314498D01*
X136606666Y-108310436D01*
X136521788Y-108248768D01*
X136367452Y-108170130D01*
X136367448Y-108170128D01*
X136367445Y-108170127D01*
X136202701Y-108116598D01*
X136031611Y-108089500D01*
X135923515Y-108089500D01*
X135855394Y-108069498D01*
X135808901Y-108015842D01*
X135798354Y-107948981D01*
X135799999Y-107934791D01*
X135799999Y-107540000D01*
X134200000Y-107540000D01*
X134200000Y-107934788D01*
X134200001Y-107934794D01*
X134201647Y-107948985D01*
X134189626Y-108018956D01*
X134141683Y-108071321D01*
X134076486Y-108089500D01*
X126663389Y-108089500D01*
X126492299Y-108116598D01*
X126492296Y-108116598D01*
X126492295Y-108116599D01*
X126413253Y-108142281D01*
X126327555Y-108170127D01*
X126327553Y-108170127D01*
X126327547Y-108170130D01*
X126173211Y-108248768D01*
X126033070Y-108350587D01*
X126031053Y-108352604D01*
X126030099Y-108353124D01*
X126029305Y-108353803D01*
X126029162Y-108353636D01*
X125968738Y-108386623D01*
X125941966Y-108389500D01*
X125455140Y-108389500D01*
X125455133Y-108389501D01*
X125430009Y-108392414D01*
X125430005Y-108392416D01*
X125327234Y-108437793D01*
X125247795Y-108517232D01*
X125247794Y-108517234D01*
X125202414Y-108620009D01*
X125199500Y-108645129D01*
X125199500Y-109734859D01*
X125199501Y-109734866D01*
X125202414Y-109759990D01*
X125202416Y-109759994D01*
X125247793Y-109862765D01*
X125327232Y-109942204D01*
X125327234Y-109942205D01*
X125327235Y-109942206D01*
X125430009Y-109987585D01*
X125430008Y-109987585D01*
X125434478Y-109988103D01*
X125455135Y-109990500D01*
X125941966Y-109990499D01*
X126010087Y-110010501D01*
X126031061Y-110027404D01*
X126033069Y-110029412D01*
X126033072Y-110029414D01*
X126173212Y-110131232D01*
X126327555Y-110209873D01*
X126492299Y-110263402D01*
X126663389Y-110290500D01*
X126663392Y-110290500D01*
X134074000Y-110290500D01*
X134142121Y-110310502D01*
X134188614Y-110364158D01*
X134200000Y-110416500D01*
X134200000Y-110730000D01*
X135799999Y-110730000D01*
X135799999Y-110416500D01*
X135820001Y-110348379D01*
X135873657Y-110301886D01*
X135925999Y-110290500D01*
X136031608Y-110290500D01*
X136031611Y-110290500D01*
X136202701Y-110263402D01*
X136367445Y-110209873D01*
X136521788Y-110131232D01*
X136661928Y-110029414D01*
X136718937Y-109972403D01*
X136781249Y-109938379D01*
X136808033Y-109935499D01*
X137044860Y-109935499D01*
X137044864Y-109935499D01*
X137069991Y-109932585D01*
X137172765Y-109887206D01*
X137172767Y-109887204D01*
X137184405Y-109875567D01*
X137246717Y-109841541D01*
X137317532Y-109846606D01*
X137374368Y-109889153D01*
X137399179Y-109955673D01*
X137399500Y-109964662D01*
X137399500Y-110939000D01*
X137379498Y-111007121D01*
X137325842Y-111053614D01*
X137273500Y-111065000D01*
X135887190Y-111065000D01*
X135819069Y-111044998D01*
X135800459Y-111030000D01*
X135150000Y-111030000D01*
X135150000Y-112934999D01*
X137273500Y-112934999D01*
X137341621Y-112955001D01*
X137388114Y-113008657D01*
X137399500Y-113060999D01*
X137399500Y-137495878D01*
X137399230Y-137504119D01*
X137383790Y-137739691D01*
X137381639Y-137756032D01*
X137336386Y-137983531D01*
X137332120Y-137999450D01*
X137257564Y-138219085D01*
X137251257Y-138234312D01*
X137148668Y-138442342D01*
X137140427Y-138456616D01*
X137011565Y-138649472D01*
X137001532Y-138662548D01*
X136848594Y-138836940D01*
X136836940Y-138848594D01*
X136662548Y-139001532D01*
X136649472Y-139011565D01*
X136456616Y-139140427D01*
X136442342Y-139148668D01*
X136234312Y-139251257D01*
X136219085Y-139257564D01*
X135999450Y-139332120D01*
X135983531Y-139336386D01*
X135756032Y-139381639D01*
X135739691Y-139383790D01*
X135504120Y-139399230D01*
X135495879Y-139399500D01*
X102504121Y-139399500D01*
X102495880Y-139399230D01*
X102260308Y-139383790D01*
X102243967Y-139381639D01*
X102016468Y-139336386D01*
X102000549Y-139332120D01*
X101780914Y-139257564D01*
X101765687Y-139251257D01*
X101557653Y-139148666D01*
X101543387Y-139140429D01*
X101350524Y-139011562D01*
X101337451Y-139001532D01*
X101163053Y-138848588D01*
X101151411Y-138836946D01*
X100998463Y-138662543D01*
X100988438Y-138649478D01*
X100859567Y-138456608D01*
X100851336Y-138442351D01*
X100748738Y-138234302D01*
X100742439Y-138219095D01*
X100667876Y-137999442D01*
X100663615Y-137983539D01*
X100618358Y-137756022D01*
X100616210Y-137739699D01*
X100600770Y-137504118D01*
X100600500Y-137495878D01*
X100600500Y-136878447D01*
X101145500Y-136878447D01*
X101145500Y-137121552D01*
X101177229Y-137362563D01*
X101177230Y-137362569D01*
X101177231Y-137362571D01*
X101240150Y-137597388D01*
X101333181Y-137821984D01*
X101333182Y-137821985D01*
X101333187Y-137821996D01*
X101454728Y-138032512D01*
X101454732Y-138032518D01*
X101602714Y-138225371D01*
X101602733Y-138225392D01*
X101774607Y-138397266D01*
X101774628Y-138397285D01*
X101967481Y-138545267D01*
X101967487Y-138545271D01*
X102178003Y-138666812D01*
X102178007Y-138666813D01*
X102178016Y-138666819D01*
X102402612Y-138759850D01*
X102637429Y-138822769D01*
X102637435Y-138822769D01*
X102637436Y-138822770D01*
X102665093Y-138826411D01*
X102878450Y-138854500D01*
X102878457Y-138854500D01*
X103121543Y-138854500D01*
X103121550Y-138854500D01*
X103362571Y-138822769D01*
X103597388Y-138759850D01*
X103821984Y-138666819D01*
X104032516Y-138545269D01*
X104225380Y-138397278D01*
X104397278Y-138225380D01*
X104545269Y-138032516D01*
X104666819Y-137821984D01*
X104759850Y-137597388D01*
X104822769Y-137362571D01*
X104854500Y-137121550D01*
X104854500Y-136878450D01*
X104822769Y-136637429D01*
X104759850Y-136402612D01*
X104666819Y-136178016D01*
X104666813Y-136178007D01*
X104666812Y-136178003D01*
X104545271Y-135967487D01*
X104545267Y-135967481D01*
X104397285Y-135774628D01*
X104397266Y-135774607D01*
X104225392Y-135602733D01*
X104225371Y-135602714D01*
X104032518Y-135454732D01*
X104032512Y-135454728D01*
X103821996Y-135333187D01*
X103821988Y-135333183D01*
X103821984Y-135333181D01*
X103597388Y-135240150D01*
X103362571Y-135177231D01*
X103362569Y-135177230D01*
X103362563Y-135177229D01*
X103121552Y-135145500D01*
X103121550Y-135145500D01*
X102878450Y-135145500D01*
X102878447Y-135145500D01*
X102637436Y-135177229D01*
X102402612Y-135240150D01*
X102178014Y-135333182D01*
X102178003Y-135333187D01*
X101967487Y-135454728D01*
X101967481Y-135454732D01*
X101774628Y-135602714D01*
X101774607Y-135602733D01*
X101602733Y-135774607D01*
X101602714Y-135774628D01*
X101454732Y-135967481D01*
X101454728Y-135967487D01*
X101333187Y-136178003D01*
X101333182Y-136178014D01*
X101333181Y-136178016D01*
X101272209Y-136325215D01*
X101240150Y-136402612D01*
X101177229Y-136637436D01*
X101145500Y-136878447D01*
X100600500Y-136878447D01*
X100600500Y-122905860D01*
X100620502Y-122837739D01*
X100674158Y-122791246D01*
X100744432Y-122781142D01*
X100800557Y-122803922D01*
X100897006Y-122873996D01*
X101058361Y-122956211D01*
X101230591Y-123012171D01*
X101409454Y-123040500D01*
X101409457Y-123040500D01*
X101590543Y-123040500D01*
X101590546Y-123040500D01*
X101769409Y-123012171D01*
X101941639Y-122956211D01*
X102102994Y-122873996D01*
X102249501Y-122767553D01*
X102377553Y-122639501D01*
X102483996Y-122492994D01*
X102566211Y-122331639D01*
X102622171Y-122159409D01*
X102650500Y-121980546D01*
X102650500Y-121799454D01*
X102622171Y-121620591D01*
X102566211Y-121448361D01*
X102483996Y-121287006D01*
X102377553Y-121140499D01*
X102377550Y-121140496D01*
X102377548Y-121140493D01*
X102249506Y-121012451D01*
X102249503Y-121012449D01*
X102249501Y-121012447D01*
X102102994Y-120906004D01*
X101941639Y-120823789D01*
X101941636Y-120823788D01*
X101941634Y-120823787D01*
X101769412Y-120767830D01*
X101769409Y-120767829D01*
X101621787Y-120744448D01*
X101557636Y-120714037D01*
X101520109Y-120653768D01*
X101521123Y-120582779D01*
X101560356Y-120523607D01*
X101621786Y-120495551D01*
X101769409Y-120472171D01*
X101941639Y-120416211D01*
X102102994Y-120333996D01*
X102249501Y-120227553D01*
X102377553Y-120099501D01*
X102483996Y-119952994D01*
X102566211Y-119791639D01*
X102622171Y-119619409D01*
X102650500Y-119440546D01*
X102650500Y-119259454D01*
X102622171Y-119080591D01*
X102566211Y-118908361D01*
X102483996Y-118747006D01*
X102377553Y-118600499D01*
X102377550Y-118600496D01*
X102377548Y-118600493D01*
X102249506Y-118472451D01*
X102249503Y-118472449D01*
X102249501Y-118472447D01*
X102139216Y-118392321D01*
X102102997Y-118366006D01*
X102102996Y-118366005D01*
X102102994Y-118366004D01*
X101941639Y-118283789D01*
X101941636Y-118283788D01*
X101941634Y-118283787D01*
X101769412Y-118227830D01*
X101769409Y-118227829D01*
X101621787Y-118204448D01*
X101557636Y-118174037D01*
X101520109Y-118113768D01*
X101521123Y-118042779D01*
X101560356Y-117983607D01*
X101621786Y-117955551D01*
X101769409Y-117932171D01*
X101941639Y-117876211D01*
X102102994Y-117793996D01*
X102249501Y-117687553D01*
X102377553Y-117559501D01*
X102483996Y-117412994D01*
X102566211Y-117251639D01*
X102622171Y-117079409D01*
X102650500Y-116900546D01*
X102650500Y-116719454D01*
X102622171Y-116540591D01*
X102566211Y-116368361D01*
X102483996Y-116207006D01*
X102377553Y-116060499D01*
X102377550Y-116060496D01*
X102377548Y-116060493D01*
X102249506Y-115932451D01*
X102249503Y-115932449D01*
X102249501Y-115932447D01*
X102102994Y-115826004D01*
X101941639Y-115743789D01*
X101941636Y-115743788D01*
X101941634Y-115743787D01*
X101769412Y-115687830D01*
X101769409Y-115687829D01*
X101621787Y-115664448D01*
X101557636Y-115634037D01*
X101520109Y-115573768D01*
X101521123Y-115502779D01*
X101560356Y-115443607D01*
X101621786Y-115415551D01*
X101769409Y-115392171D01*
X101941639Y-115336211D01*
X102102994Y-115253996D01*
X102249501Y-115147553D01*
X102377553Y-115019501D01*
X102483996Y-114872994D01*
X102566211Y-114711639D01*
X102622171Y-114539409D01*
X102650500Y-114360546D01*
X102650500Y-114179454D01*
X102622171Y-114000591D01*
X102566211Y-113828361D01*
X102483996Y-113667006D01*
X102377553Y-113520499D01*
X102377550Y-113520496D01*
X102377548Y-113520493D01*
X102249506Y-113392451D01*
X102249503Y-113392449D01*
X102249501Y-113392447D01*
X102102994Y-113286004D01*
X101941639Y-113203789D01*
X101941636Y-113203788D01*
X101941634Y-113203787D01*
X101769412Y-113147830D01*
X101769409Y-113147829D01*
X101621787Y-113124448D01*
X101557636Y-113094037D01*
X101520109Y-113033768D01*
X101521123Y-112962779D01*
X101560356Y-112903607D01*
X101621786Y-112875551D01*
X101769409Y-112852171D01*
X101941639Y-112796211D01*
X102102994Y-112713996D01*
X102249501Y-112607553D01*
X102377553Y-112479501D01*
X102483996Y-112332994D01*
X102566211Y-112171639D01*
X102622171Y-111999409D01*
X102650500Y-111820546D01*
X102650500Y-111639454D01*
X102622171Y-111460591D01*
X102566211Y-111288361D01*
X102483996Y-111127006D01*
X102377553Y-110980499D01*
X102377550Y-110980496D01*
X102377548Y-110980493D01*
X102249506Y-110852451D01*
X102249503Y-110852449D01*
X102249501Y-110852447D01*
X102139216Y-110772321D01*
X102102997Y-110746006D01*
X102102996Y-110746005D01*
X102102994Y-110746004D01*
X101941639Y-110663789D01*
X101941636Y-110663788D01*
X101941634Y-110663787D01*
X101769412Y-110607830D01*
X101769409Y-110607829D01*
X101621787Y-110584448D01*
X101557636Y-110554037D01*
X101520109Y-110493768D01*
X101521123Y-110422779D01*
X101560356Y-110363607D01*
X101621786Y-110335551D01*
X101769409Y-110312171D01*
X101941639Y-110256211D01*
X102102994Y-110173996D01*
X102249501Y-110067553D01*
X102377553Y-109939501D01*
X102483996Y-109792994D01*
X102566211Y-109631639D01*
X102622171Y-109459409D01*
X102650500Y-109280546D01*
X102650500Y-109099454D01*
X102622171Y-108920591D01*
X102566211Y-108748361D01*
X102483996Y-108587006D01*
X102377553Y-108440499D01*
X102377550Y-108440496D01*
X102377548Y-108440493D01*
X102249506Y-108312451D01*
X102249503Y-108312449D01*
X102249501Y-108312447D01*
X102102994Y-108206004D01*
X101941639Y-108123789D01*
X101941636Y-108123788D01*
X101941634Y-108123787D01*
X101769412Y-108067830D01*
X101769409Y-108067829D01*
X101673000Y-108052559D01*
X101620191Y-108044195D01*
X101556038Y-108013782D01*
X101518511Y-107953514D01*
X101519525Y-107882524D01*
X101558758Y-107823353D01*
X101620192Y-107795297D01*
X101769296Y-107771681D01*
X101941442Y-107715748D01*
X101941448Y-107715745D01*
X102102732Y-107633566D01*
X102102743Y-107633560D01*
X102200442Y-107562575D01*
X102200442Y-107562574D01*
X101731538Y-107093670D01*
X101807007Y-107050099D01*
X101900099Y-106957007D01*
X101943670Y-106881539D01*
X102412573Y-107350442D01*
X102412575Y-107350442D01*
X102483560Y-107252743D01*
X102483566Y-107252732D01*
X102565745Y-107091448D01*
X102565748Y-107091442D01*
X102621681Y-106919297D01*
X102650000Y-106740503D01*
X102650000Y-106559496D01*
X102621681Y-106380702D01*
X102565748Y-106208557D01*
X102565745Y-106208551D01*
X102483566Y-106047266D01*
X102412575Y-105949556D01*
X102412573Y-105949556D01*
X101943669Y-106418459D01*
X101900099Y-106342993D01*
X101807007Y-106249901D01*
X101731538Y-106206329D01*
X102200442Y-105737425D01*
X102200442Y-105737423D01*
X102102734Y-105666434D01*
X101941448Y-105584254D01*
X101941442Y-105584251D01*
X101769295Y-105528318D01*
X101769299Y-105528318D01*
X101620191Y-105504702D01*
X101556038Y-105474289D01*
X101518511Y-105414021D01*
X101519525Y-105343032D01*
X101558758Y-105283860D01*
X101620188Y-105255805D01*
X101769409Y-105232171D01*
X101941639Y-105176211D01*
X102102994Y-105093996D01*
X102249501Y-104987553D01*
X102377553Y-104859501D01*
X102483996Y-104712994D01*
X102566211Y-104551639D01*
X102622171Y-104379409D01*
X102650500Y-104200546D01*
X102650500Y-104019454D01*
X102622171Y-103840591D01*
X102566211Y-103668361D01*
X102483996Y-103507006D01*
X102377553Y-103360499D01*
X102377550Y-103360496D01*
X102377548Y-103360493D01*
X102249506Y-103232451D01*
X102249503Y-103232449D01*
X102249501Y-103232447D01*
X102188475Y-103188109D01*
X102102439Y-103125600D01*
X102059085Y-103069378D01*
X102050500Y-103023664D01*
X102050500Y-99104794D01*
X102900001Y-99104794D01*
X102902909Y-99129873D01*
X102902911Y-99129878D01*
X102948212Y-99232477D01*
X103027520Y-99311785D01*
X103027522Y-99311786D01*
X103130126Y-99357090D01*
X103130125Y-99357090D01*
X103155203Y-99359999D01*
X103550000Y-99359999D01*
X103850000Y-99359999D01*
X104244789Y-99359999D01*
X104244794Y-99359998D01*
X104269873Y-99357090D01*
X104269878Y-99357088D01*
X104372477Y-99311787D01*
X104451785Y-99232479D01*
X104451786Y-99232477D01*
X104497090Y-99129873D01*
X104499999Y-99104798D01*
X104500000Y-99104795D01*
X104500000Y-98880000D01*
X103850000Y-98880000D01*
X103850000Y-99359999D01*
X103550000Y-99359999D01*
X103550000Y-98880000D01*
X102900001Y-98880000D01*
X102900001Y-99104794D01*
X102050500Y-99104794D01*
X102050500Y-95780214D01*
X102070502Y-95712093D01*
X102087405Y-95691119D01*
X102991119Y-94787405D01*
X103053431Y-94753379D01*
X103080214Y-94750500D01*
X103988306Y-94750500D01*
X104056427Y-94770502D01*
X104102920Y-94824158D01*
X104113024Y-94894432D01*
X104103569Y-94927396D01*
X104102414Y-94930010D01*
X104099500Y-94955129D01*
X104099500Y-95169783D01*
X104079498Y-95237904D01*
X104062596Y-95258878D01*
X103259492Y-96061982D01*
X103259489Y-96061986D01*
X103229579Y-96113793D01*
X103203862Y-96158338D01*
X103195533Y-96172764D01*
X103195532Y-96172765D01*
X103187016Y-96187514D01*
X103176581Y-96226459D01*
X103151444Y-96320272D01*
X103149500Y-96327526D01*
X103149500Y-96551707D01*
X103129498Y-96619828D01*
X103075842Y-96666321D01*
X103074394Y-96666971D01*
X103027234Y-96687793D01*
X102947795Y-96767232D01*
X102947794Y-96767234D01*
X102902414Y-96870009D01*
X102899500Y-96895129D01*
X102899500Y-97644859D01*
X102899501Y-97644866D01*
X102902414Y-97669990D01*
X102902416Y-97669994D01*
X102947793Y-97772765D01*
X103027232Y-97852204D01*
X103027236Y-97852207D01*
X103101525Y-97885008D01*
X103155763Y-97930820D01*
X103176622Y-97998683D01*
X103157480Y-98067051D01*
X103104415Y-98114217D01*
X103101528Y-98115535D01*
X103027524Y-98148212D01*
X103027520Y-98148214D01*
X102948214Y-98227520D01*
X102948213Y-98227522D01*
X102902909Y-98330126D01*
X102900000Y-98355201D01*
X102900000Y-98580000D01*
X104499999Y-98580000D01*
X104499999Y-98355211D01*
X104499998Y-98355205D01*
X104497090Y-98330126D01*
X104497088Y-98330121D01*
X104451787Y-98227522D01*
X104372477Y-98148212D01*
X104298473Y-98115537D01*
X104244236Y-98069724D01*
X104223377Y-98001861D01*
X104242519Y-97933493D01*
X104295585Y-97886328D01*
X104298473Y-97885009D01*
X104300063Y-97884307D01*
X104372765Y-97852206D01*
X104405092Y-97819879D01*
X104437567Y-97787405D01*
X104499879Y-97753379D01*
X104526662Y-97750500D01*
X104672962Y-97750500D01*
X104672963Y-97750500D01*
X104672964Y-97750500D01*
X104691388Y-97745563D01*
X104762363Y-97747251D01*
X104821159Y-97787044D01*
X104846713Y-97846714D01*
X104849999Y-97850000D01*
X106549999Y-97850000D01*
X106549999Y-97655211D01*
X106547250Y-97631513D01*
X106559270Y-97561542D01*
X106607211Y-97509176D01*
X106675853Y-97491042D01*
X106743402Y-97512897D01*
X106761506Y-97527899D01*
X107012106Y-97778498D01*
X107046131Y-97840811D01*
X107049011Y-97867594D01*
X107049011Y-98132406D01*
X107029009Y-98200527D01*
X107012110Y-98221496D01*
X106884107Y-98349500D01*
X106761506Y-98472101D01*
X106699194Y-98506126D01*
X106628378Y-98501061D01*
X106571543Y-98458514D01*
X106546732Y-98391993D01*
X106547251Y-98368480D01*
X106550000Y-98344792D01*
X106550000Y-98150000D01*
X104850001Y-98150000D01*
X104850001Y-98344794D01*
X104852909Y-98369873D01*
X104852910Y-98369875D01*
X104876582Y-98423486D01*
X104885800Y-98493882D01*
X104876582Y-98525274D01*
X104852415Y-98580007D01*
X104852414Y-98580009D01*
X104849500Y-98605129D01*
X104849500Y-99294859D01*
X104849501Y-99294866D01*
X104852414Y-99319990D01*
X104852416Y-99319994D01*
X104897793Y-99422765D01*
X104977232Y-99502204D01*
X104977234Y-99502205D01*
X104977235Y-99502206D01*
X105080009Y-99547585D01*
X105105135Y-99550500D01*
X106294864Y-99550499D01*
X106319991Y-99547585D01*
X106422765Y-99502206D01*
X106502206Y-99422765D01*
X106502207Y-99422762D01*
X106508805Y-99413132D01*
X106510504Y-99414296D01*
X106546769Y-99371367D01*
X106614632Y-99350510D01*
X106616216Y-99350500D01*
X106902725Y-99350500D01*
X106902727Y-99350500D01*
X107004588Y-99323207D01*
X107095913Y-99270480D01*
X107234407Y-99131985D01*
X107296716Y-99097962D01*
X107367532Y-99103026D01*
X107424368Y-99145572D01*
X107449179Y-99212092D01*
X107449500Y-99221080D01*
X107449500Y-99294860D01*
X107449501Y-99294866D01*
X107452414Y-99319989D01*
X107452416Y-99319994D01*
X107497793Y-99422765D01*
X107577232Y-99502204D01*
X107577234Y-99502205D01*
X107577235Y-99502206D01*
X107680009Y-99547585D01*
X107705135Y-99550500D01*
X108894864Y-99550499D01*
X108919991Y-99547585D01*
X109022765Y-99502206D01*
X109102206Y-99422765D01*
X109147585Y-99319991D01*
X109150500Y-99294865D01*
X109150499Y-99133616D01*
X109170501Y-99065498D01*
X109224156Y-99019005D01*
X109294430Y-99008900D01*
X109359011Y-99038393D01*
X109397395Y-99098119D01*
X109401660Y-99119098D01*
X109402910Y-99129875D01*
X109402911Y-99129878D01*
X109448212Y-99232477D01*
X109527520Y-99311785D01*
X109527522Y-99311786D01*
X109630126Y-99357090D01*
X109630125Y-99357090D01*
X109655203Y-99359999D01*
X110050000Y-99359999D01*
X110050000Y-98890051D01*
X110350000Y-98890051D01*
X110350000Y-99359999D01*
X110744789Y-99359999D01*
X110744794Y-99359998D01*
X110769873Y-99357090D01*
X110769878Y-99357088D01*
X110872477Y-99311787D01*
X110951785Y-99232479D01*
X110951786Y-99232477D01*
X110997090Y-99129873D01*
X110999999Y-99104798D01*
X111000000Y-99104795D01*
X111000000Y-98880000D01*
X110364782Y-98880000D01*
X110350000Y-98890051D01*
X110050000Y-98890051D01*
X110050000Y-98856000D01*
X110070002Y-98787879D01*
X110105149Y-98751807D01*
X110206857Y-98682645D01*
X110220002Y-98637879D01*
X110273658Y-98591386D01*
X110326000Y-98580000D01*
X110999999Y-98580000D01*
X110999999Y-98355211D01*
X110999998Y-98355205D01*
X110997090Y-98330126D01*
X110997088Y-98330121D01*
X110951787Y-98227522D01*
X110872477Y-98148212D01*
X110798473Y-98115537D01*
X110744236Y-98069724D01*
X110723377Y-98001861D01*
X110742519Y-97933493D01*
X110795585Y-97886328D01*
X110798473Y-97885009D01*
X110800063Y-97884307D01*
X110872765Y-97852206D01*
X110872768Y-97852202D01*
X110882397Y-97845608D01*
X110884241Y-97848299D01*
X110929879Y-97823379D01*
X110956662Y-97820500D01*
X110989785Y-97820500D01*
X111057906Y-97840502D01*
X111078880Y-97857405D01*
X111412595Y-98191120D01*
X111446621Y-98253432D01*
X111449500Y-98280215D01*
X111449500Y-99219784D01*
X111429498Y-99287905D01*
X111412595Y-99308879D01*
X104159495Y-106561978D01*
X104159487Y-106561988D01*
X104087018Y-106687509D01*
X104087016Y-106687513D01*
X104087016Y-106687515D01*
X104049500Y-106827525D01*
X104049500Y-110872475D01*
X104087016Y-111012485D01*
X104087017Y-111012487D01*
X104087018Y-111012490D01*
X104159487Y-111138011D01*
X104159495Y-111138021D01*
X104786978Y-111765504D01*
X104786983Y-111765508D01*
X104786985Y-111765510D01*
X104786986Y-111765511D01*
X104786988Y-111765512D01*
X104912509Y-111837981D01*
X104912510Y-111837981D01*
X104912515Y-111837984D01*
X105052525Y-111875500D01*
X105052526Y-111875500D01*
X105197474Y-111875500D01*
X105636707Y-111875500D01*
X105704828Y-111895502D01*
X105751321Y-111949158D01*
X105751971Y-111950606D01*
X105772793Y-111997764D01*
X105772794Y-111997765D01*
X105852235Y-112077206D01*
X105874394Y-112086990D01*
X105928630Y-112132800D01*
X105949490Y-112200663D01*
X105949500Y-112202253D01*
X105949500Y-128172473D01*
X105949499Y-128172473D01*
X105987016Y-128312485D01*
X106059488Y-128438011D01*
X106059496Y-128438021D01*
X106161978Y-128540503D01*
X106161983Y-128540507D01*
X106161985Y-128540509D01*
X106161986Y-128540510D01*
X106161988Y-128540511D01*
X106177558Y-128549500D01*
X106287515Y-128612984D01*
X106427525Y-128650500D01*
X106427527Y-128650500D01*
X106572474Y-128650500D01*
X106572475Y-128650500D01*
X106662621Y-128626345D01*
X106733596Y-128628034D01*
X106792392Y-128667827D01*
X106820341Y-128733091D01*
X106808568Y-128803105D01*
X106784328Y-128837146D01*
X106659492Y-128961982D01*
X106659487Y-128961988D01*
X106596839Y-129070498D01*
X106596840Y-129070499D01*
X106587017Y-129087512D01*
X106587016Y-129087514D01*
X106587016Y-129087515D01*
X106549500Y-129227525D01*
X106549500Y-129227527D01*
X106549500Y-133453500D01*
X106529498Y-133521621D01*
X106475842Y-133568114D01*
X106423500Y-133579500D01*
X106030140Y-133579500D01*
X106030133Y-133579501D01*
X106005009Y-133582414D01*
X106005005Y-133582416D01*
X105902234Y-133627793D01*
X105822795Y-133707232D01*
X105822794Y-133707234D01*
X105777414Y-133810009D01*
X105774500Y-133835129D01*
X105774500Y-135424859D01*
X105774501Y-135424866D01*
X105777414Y-135449990D01*
X105777416Y-135449994D01*
X105822793Y-135552765D01*
X105902232Y-135632204D01*
X105902234Y-135632205D01*
X105902235Y-135632206D01*
X106005009Y-135677585D01*
X106030135Y-135680500D01*
X107079784Y-135680499D01*
X107147905Y-135700501D01*
X107168879Y-135717404D01*
X108155880Y-136704405D01*
X108189906Y-136766717D01*
X108184841Y-136837532D01*
X108142294Y-136894368D01*
X108075774Y-136919179D01*
X108066785Y-136919500D01*
X106130140Y-136919500D01*
X106130133Y-136919501D01*
X106105009Y-136922414D01*
X106105005Y-136922416D01*
X106002234Y-136967793D01*
X105922795Y-137047232D01*
X105922794Y-137047234D01*
X105877414Y-137150009D01*
X105874500Y-137175129D01*
X105874500Y-137594784D01*
X105854498Y-137662905D01*
X105837595Y-137683879D01*
X105259495Y-138261978D01*
X105259490Y-138261985D01*
X105235482Y-138303570D01*
X105232916Y-138308014D01*
X105232915Y-138308015D01*
X105187017Y-138387510D01*
X105151385Y-138520494D01*
X105151383Y-138520499D01*
X105149500Y-138527525D01*
X105149500Y-138672472D01*
X105149499Y-138672472D01*
X105187017Y-138812489D01*
X105259487Y-138938011D01*
X105259495Y-138938021D01*
X105361978Y-139040504D01*
X105361983Y-139040508D01*
X105361985Y-139040510D01*
X105361986Y-139040511D01*
X105361988Y-139040512D01*
X105487509Y-139112981D01*
X105487510Y-139112981D01*
X105487515Y-139112984D01*
X105627525Y-139150500D01*
X105627526Y-139150500D01*
X105772474Y-139150500D01*
X105772475Y-139150500D01*
X105912485Y-139112984D01*
X106038015Y-139040510D01*
X106038014Y-139040510D01*
X106045167Y-139036381D01*
X106046854Y-139039303D01*
X106098360Y-139019335D01*
X106123488Y-139019728D01*
X106130135Y-139020500D01*
X108669864Y-139020499D01*
X108694991Y-139017585D01*
X108797765Y-138972206D01*
X108877206Y-138892765D01*
X108884735Y-138875711D01*
X108930544Y-138821476D01*
X108998407Y-138800615D01*
X109066775Y-138819755D01*
X109113942Y-138872819D01*
X109115262Y-138875708D01*
X109122793Y-138892765D01*
X109202232Y-138972204D01*
X109202234Y-138972205D01*
X109202235Y-138972206D01*
X109305009Y-139017585D01*
X109330135Y-139020500D01*
X111869864Y-139020499D01*
X111894991Y-139017585D01*
X111997765Y-138972206D01*
X112077206Y-138892765D01*
X112122585Y-138789991D01*
X112125500Y-138764865D01*
X112125499Y-137175136D01*
X112122585Y-137150009D01*
X112089373Y-137074790D01*
X112077206Y-137047234D01*
X111997767Y-136967795D01*
X111997765Y-136967794D01*
X111894989Y-136922414D01*
X111894990Y-136922414D01*
X111869870Y-136919500D01*
X111869865Y-136919500D01*
X109980215Y-136919500D01*
X109912094Y-136899498D01*
X109891120Y-136882595D01*
X109582563Y-136574038D01*
X113699500Y-136574038D01*
X113699500Y-136825962D01*
X113738910Y-137074785D01*
X113738911Y-137074790D01*
X113771516Y-137175136D01*
X113816759Y-137314379D01*
X113931130Y-137538845D01*
X114079207Y-137742656D01*
X114079209Y-137742658D01*
X114079211Y-137742661D01*
X114257338Y-137920788D01*
X114257341Y-137920790D01*
X114257344Y-137920793D01*
X114461155Y-138068870D01*
X114685621Y-138183241D01*
X114925215Y-138261090D01*
X115174038Y-138300500D01*
X115174041Y-138300500D01*
X115425959Y-138300500D01*
X115425962Y-138300500D01*
X115674785Y-138261090D01*
X115914379Y-138183241D01*
X116138845Y-138068870D01*
X116342656Y-137920793D01*
X116520793Y-137742656D01*
X116668870Y-137538845D01*
X116783241Y-137314379D01*
X116861090Y-137074785D01*
X116892187Y-136878447D01*
X133145500Y-136878447D01*
X133145500Y-137121552D01*
X133177229Y-137362563D01*
X133177230Y-137362569D01*
X133177231Y-137362571D01*
X133240150Y-137597388D01*
X133333181Y-137821984D01*
X133333182Y-137821985D01*
X133333187Y-137821996D01*
X133454728Y-138032512D01*
X133454732Y-138032518D01*
X133602714Y-138225371D01*
X133602733Y-138225392D01*
X133774607Y-138397266D01*
X133774628Y-138397285D01*
X133967481Y-138545267D01*
X133967487Y-138545271D01*
X134178003Y-138666812D01*
X134178007Y-138666813D01*
X134178016Y-138666819D01*
X134402612Y-138759850D01*
X134637429Y-138822769D01*
X134637435Y-138822769D01*
X134637436Y-138822770D01*
X134665093Y-138826411D01*
X134878450Y-138854500D01*
X134878457Y-138854500D01*
X135121543Y-138854500D01*
X135121550Y-138854500D01*
X135362571Y-138822769D01*
X135597388Y-138759850D01*
X135821984Y-138666819D01*
X136032516Y-138545269D01*
X136225380Y-138397278D01*
X136397278Y-138225380D01*
X136545269Y-138032516D01*
X136666819Y-137821984D01*
X136759850Y-137597388D01*
X136822769Y-137362571D01*
X136854500Y-137121550D01*
X136854500Y-136878450D01*
X136822769Y-136637429D01*
X136759850Y-136402612D01*
X136666819Y-136178016D01*
X136666813Y-136178007D01*
X136666812Y-136178003D01*
X136545271Y-135967487D01*
X136545267Y-135967481D01*
X136397285Y-135774628D01*
X136397266Y-135774607D01*
X136225392Y-135602733D01*
X136225371Y-135602714D01*
X136032518Y-135454732D01*
X136032512Y-135454728D01*
X135821996Y-135333187D01*
X135821988Y-135333183D01*
X135821984Y-135333181D01*
X135597388Y-135240150D01*
X135362571Y-135177231D01*
X135362569Y-135177230D01*
X135362563Y-135177229D01*
X135121552Y-135145500D01*
X135121550Y-135145500D01*
X134878450Y-135145500D01*
X134878447Y-135145500D01*
X134637436Y-135177229D01*
X134402612Y-135240150D01*
X134178014Y-135333182D01*
X134178003Y-135333187D01*
X133967487Y-135454728D01*
X133967481Y-135454732D01*
X133774628Y-135602714D01*
X133774607Y-135602733D01*
X133602733Y-135774607D01*
X133602714Y-135774628D01*
X133454732Y-135967481D01*
X133454728Y-135967487D01*
X133333187Y-136178003D01*
X133333182Y-136178014D01*
X133333181Y-136178016D01*
X133272209Y-136325215D01*
X133240150Y-136402612D01*
X133177229Y-136637436D01*
X133145500Y-136878447D01*
X116892187Y-136878447D01*
X116900500Y-136825962D01*
X116900500Y-136574038D01*
X116861090Y-136325215D01*
X116783241Y-136085621D01*
X116668870Y-135861155D01*
X116520793Y-135657344D01*
X116520790Y-135657341D01*
X116520788Y-135657338D01*
X116342661Y-135479211D01*
X116342658Y-135479209D01*
X116342656Y-135479207D01*
X116141676Y-135333187D01*
X116138848Y-135331132D01*
X116138847Y-135331131D01*
X116138845Y-135331130D01*
X115914379Y-135216759D01*
X115914376Y-135216758D01*
X115914374Y-135216757D01*
X115674790Y-135138911D01*
X115674786Y-135138910D01*
X115674785Y-135138910D01*
X115425962Y-135099500D01*
X115174038Y-135099500D01*
X114925215Y-135138910D01*
X114925209Y-135138911D01*
X114685625Y-135216757D01*
X114685619Y-135216760D01*
X114461151Y-135331132D01*
X114257341Y-135479209D01*
X114257338Y-135479211D01*
X114079211Y-135657338D01*
X114079209Y-135657341D01*
X113931132Y-135861151D01*
X113816760Y-136085619D01*
X113816757Y-136085625D01*
X113738911Y-136325209D01*
X113738910Y-136325214D01*
X113738910Y-136325215D01*
X113699500Y-136574038D01*
X109582563Y-136574038D01*
X108758343Y-135749818D01*
X108724317Y-135687506D01*
X108729382Y-135616691D01*
X108758342Y-135571628D01*
X108777206Y-135552765D01*
X108784735Y-135535711D01*
X108830544Y-135481476D01*
X108898407Y-135460615D01*
X108966775Y-135479755D01*
X109013942Y-135532819D01*
X109015262Y-135535708D01*
X109022793Y-135552765D01*
X109102232Y-135632204D01*
X109102234Y-135632205D01*
X109102235Y-135632206D01*
X109205009Y-135677585D01*
X109230135Y-135680500D01*
X111769864Y-135680499D01*
X111794991Y-135677585D01*
X111897765Y-135632206D01*
X111977206Y-135552765D01*
X112022585Y-135449991D01*
X112025500Y-135424865D01*
X112025499Y-133835136D01*
X112022585Y-133810009D01*
X111988816Y-133733529D01*
X111979598Y-133663134D01*
X112009903Y-133598929D01*
X112014968Y-133593556D01*
X112240510Y-133368015D01*
X112312984Y-133242485D01*
X112350500Y-133102475D01*
X112350500Y-132576499D01*
X112370502Y-132508378D01*
X112424158Y-132461885D01*
X112476500Y-132450499D01*
X113794860Y-132450499D01*
X113794864Y-132450499D01*
X113819991Y-132447585D01*
X113922765Y-132402206D01*
X114002206Y-132322765D01*
X114047585Y-132219991D01*
X114050500Y-132194865D01*
X114050500Y-132194794D01*
X125350001Y-132194794D01*
X125352909Y-132219873D01*
X125352911Y-132219878D01*
X125398212Y-132322477D01*
X125477520Y-132401785D01*
X125477522Y-132401786D01*
X125580126Y-132447090D01*
X125580125Y-132447090D01*
X125605203Y-132449999D01*
X127750000Y-132449999D01*
X128050000Y-132449999D01*
X130194789Y-132449999D01*
X130194794Y-132449998D01*
X130219873Y-132447090D01*
X130219878Y-132447088D01*
X130322477Y-132401787D01*
X130401785Y-132322479D01*
X130401786Y-132322477D01*
X130447090Y-132219873D01*
X130449999Y-132194798D01*
X130450000Y-132194795D01*
X130450000Y-131150000D01*
X128050000Y-131150000D01*
X128050000Y-132449999D01*
X127750000Y-132449999D01*
X127750000Y-131150000D01*
X125350001Y-131150000D01*
X125350001Y-132194794D01*
X114050500Y-132194794D01*
X114050499Y-130908842D01*
X114824500Y-130908842D01*
X114824500Y-131091157D01*
X114860067Y-131269958D01*
X114860068Y-131269961D01*
X114929833Y-131438389D01*
X115031117Y-131589972D01*
X115160028Y-131718883D01*
X115311611Y-131820167D01*
X115480042Y-131889933D01*
X115658846Y-131925500D01*
X115841154Y-131925500D01*
X116019958Y-131889933D01*
X116188389Y-131820167D01*
X116339972Y-131718883D01*
X116468883Y-131589972D01*
X116570167Y-131438389D01*
X116639933Y-131269958D01*
X116675500Y-131091154D01*
X116675500Y-130921155D01*
X122399500Y-130921155D01*
X122399500Y-131078844D01*
X122430263Y-131233497D01*
X122430265Y-131233502D01*
X122445367Y-131269961D01*
X122490606Y-131379179D01*
X122578211Y-131510289D01*
X122689711Y-131621789D01*
X122820821Y-131709394D01*
X122966503Y-131769737D01*
X123121158Y-131800500D01*
X123121159Y-131800500D01*
X123278841Y-131800500D01*
X123278842Y-131800500D01*
X123433497Y-131769737D01*
X123579179Y-131709394D01*
X123710289Y-131621789D01*
X123821789Y-131510289D01*
X123909394Y-131379179D01*
X123969737Y-131233497D01*
X124000500Y-131078842D01*
X124000500Y-130921158D01*
X123969737Y-130766503D01*
X123909394Y-130620821D01*
X123821789Y-130489711D01*
X123710289Y-130378211D01*
X123579179Y-130290606D01*
X123433497Y-130230263D01*
X123278844Y-130199500D01*
X123278842Y-130199500D01*
X123121158Y-130199500D01*
X123121155Y-130199500D01*
X122966502Y-130230263D01*
X122966497Y-130230265D01*
X122820820Y-130290606D01*
X122689715Y-130378208D01*
X122689708Y-130378213D01*
X122578213Y-130489708D01*
X122578208Y-130489715D01*
X122490606Y-130620820D01*
X122430265Y-130766497D01*
X122430263Y-130766502D01*
X122399500Y-130921155D01*
X116675500Y-130921155D01*
X116675500Y-130908846D01*
X116639933Y-130730042D01*
X116570167Y-130561611D01*
X116468883Y-130410028D01*
X116339972Y-130281117D01*
X116188389Y-130179833D01*
X116019961Y-130110068D01*
X116019958Y-130110067D01*
X115841157Y-130074500D01*
X115841154Y-130074500D01*
X115658846Y-130074500D01*
X115658842Y-130074500D01*
X115480041Y-130110067D01*
X115480038Y-130110068D01*
X115311610Y-130179833D01*
X115160029Y-130281116D01*
X115160023Y-130281121D01*
X115031121Y-130410023D01*
X115031116Y-130410029D01*
X114929833Y-130561610D01*
X114860068Y-130730038D01*
X114860067Y-130730041D01*
X114824500Y-130908842D01*
X114050499Y-130908842D01*
X114050499Y-129805136D01*
X114047585Y-129780009D01*
X114002206Y-129677235D01*
X114002206Y-129677234D01*
X113922767Y-129597795D01*
X113922765Y-129597794D01*
X113819989Y-129552414D01*
X113819990Y-129552414D01*
X113794868Y-129549500D01*
X109205140Y-129549500D01*
X109205133Y-129549501D01*
X109180009Y-129552414D01*
X109180005Y-129552416D01*
X109077234Y-129597793D01*
X108997795Y-129677232D01*
X108997794Y-129677234D01*
X108952414Y-129780009D01*
X108949500Y-129805129D01*
X108949500Y-132194859D01*
X108949501Y-132194866D01*
X108952414Y-132219990D01*
X108952416Y-132219994D01*
X108997793Y-132322765D01*
X109077232Y-132402204D01*
X109077234Y-132402205D01*
X109077235Y-132402206D01*
X109180009Y-132447585D01*
X109205135Y-132450500D01*
X111123500Y-132450499D01*
X111191621Y-132470501D01*
X111238114Y-132524157D01*
X111249500Y-132576499D01*
X111249500Y-132749783D01*
X111229498Y-132817904D01*
X111212595Y-132838878D01*
X110508878Y-133542595D01*
X110446566Y-133576621D01*
X110419783Y-133579500D01*
X109230140Y-133579500D01*
X109230133Y-133579501D01*
X109205009Y-133582414D01*
X109205005Y-133582416D01*
X109102234Y-133627793D01*
X109022794Y-133707233D01*
X109015264Y-133724289D01*
X108969450Y-133778526D01*
X108901587Y-133799384D01*
X108833219Y-133780241D01*
X108786055Y-133727175D01*
X108784736Y-133724289D01*
X108777205Y-133707233D01*
X108697767Y-133627795D01*
X108697765Y-133627794D01*
X108594989Y-133582414D01*
X108594990Y-133582414D01*
X108569870Y-133579500D01*
X108569865Y-133579500D01*
X107776500Y-133579500D01*
X107708379Y-133559498D01*
X107661886Y-133505842D01*
X107650500Y-133453500D01*
X107650500Y-129580215D01*
X107670502Y-129512094D01*
X107687405Y-129491120D01*
X108740504Y-128438021D01*
X108740510Y-128438015D01*
X108812984Y-128312485D01*
X108822730Y-128276113D01*
X108826346Y-128262620D01*
X108830318Y-128247793D01*
X108850500Y-128172475D01*
X108850500Y-118805129D01*
X109699500Y-118805129D01*
X109699500Y-119894859D01*
X109699501Y-119894866D01*
X109702414Y-119919990D01*
X109702416Y-119919994D01*
X109747793Y-120022765D01*
X109827232Y-120102204D01*
X109827234Y-120102205D01*
X109827235Y-120102206D01*
X109930009Y-120147585D01*
X109955135Y-120150500D01*
X112544864Y-120150499D01*
X112569991Y-120147585D01*
X112672765Y-120102206D01*
X112752206Y-120022765D01*
X112791295Y-119934236D01*
X112837105Y-119880002D01*
X112904968Y-119859143D01*
X112939167Y-119863426D01*
X113077525Y-119900500D01*
X113077526Y-119900500D01*
X113222473Y-119900500D01*
X113222475Y-119900500D01*
X113362485Y-119862984D01*
X113441471Y-119817380D01*
X113504471Y-119800500D01*
X113811207Y-119800500D01*
X113879328Y-119820502D01*
X113900302Y-119837405D01*
X123423379Y-129360483D01*
X123423384Y-129360487D01*
X123423386Y-129360489D01*
X123526113Y-129419799D01*
X123539540Y-129423396D01*
X123550314Y-129426283D01*
X123550318Y-129426284D01*
X123550326Y-129426286D01*
X123640691Y-129450500D01*
X125321045Y-129450500D01*
X125389166Y-129470502D01*
X125435659Y-129524158D01*
X125445763Y-129594432D01*
X125416269Y-129659012D01*
X125410140Y-129665595D01*
X125398214Y-129677520D01*
X125398213Y-129677522D01*
X125352909Y-129780126D01*
X125350000Y-129805201D01*
X125350000Y-130850000D01*
X130449999Y-130850000D01*
X130449999Y-129911473D01*
X130470001Y-129843352D01*
X130523657Y-129796859D01*
X130593931Y-129786755D01*
X130626891Y-129796208D01*
X130630009Y-129797585D01*
X130630008Y-129797585D01*
X130634478Y-129798103D01*
X130655135Y-129800500D01*
X131244864Y-129800499D01*
X131269991Y-129797585D01*
X131269991Y-129797584D01*
X131279407Y-129796493D01*
X131279630Y-129798421D01*
X131320372Y-129798421D01*
X131320596Y-129796493D01*
X131330008Y-129797584D01*
X131330009Y-129797585D01*
X131355135Y-129800500D01*
X131761204Y-129800499D01*
X131829324Y-129820501D01*
X131850299Y-129837404D01*
X131873379Y-129860484D01*
X131873384Y-129860488D01*
X131873386Y-129860490D01*
X131873387Y-129860491D01*
X131873389Y-129860492D01*
X131976109Y-129919797D01*
X131976110Y-129919797D01*
X131976113Y-129919799D01*
X131989540Y-129923396D01*
X132000314Y-129926283D01*
X132000318Y-129926284D01*
X132000326Y-129926286D01*
X132090691Y-129950500D01*
X132383339Y-129950500D01*
X132451460Y-129970502D01*
X132472435Y-129987406D01*
X132507232Y-130022204D01*
X132507234Y-130022205D01*
X132507235Y-130022206D01*
X132610009Y-130067585D01*
X132635135Y-130070500D01*
X133364864Y-130070499D01*
X133389991Y-130067585D01*
X133492765Y-130022206D01*
X133531259Y-129983711D01*
X133593568Y-129949688D01*
X133664384Y-129954752D01*
X133709448Y-129983713D01*
X133752520Y-130026785D01*
X133752522Y-130026786D01*
X133855126Y-130072090D01*
X133855125Y-130072090D01*
X133880203Y-130074999D01*
X134150000Y-130074999D01*
X134150000Y-129710051D01*
X134450000Y-129710051D01*
X134450000Y-130074999D01*
X134719789Y-130074999D01*
X134719794Y-130074998D01*
X134744873Y-130072090D01*
X134744878Y-130072088D01*
X134847477Y-130026787D01*
X134926785Y-129947479D01*
X134926786Y-129947477D01*
X134972090Y-129844873D01*
X134974999Y-129819798D01*
X134975000Y-129819795D01*
X134975000Y-129700000D01*
X134464782Y-129700000D01*
X134450000Y-129710051D01*
X134150000Y-129710051D01*
X134150000Y-129676000D01*
X134170002Y-129607879D01*
X134205149Y-129571807D01*
X134306857Y-129502645D01*
X134320002Y-129457879D01*
X134373658Y-129411386D01*
X134426000Y-129400000D01*
X134974999Y-129400000D01*
X134974999Y-129280211D01*
X134974998Y-129280205D01*
X134972090Y-129255126D01*
X134972088Y-129255121D01*
X134926787Y-129152522D01*
X134863713Y-129089448D01*
X134829687Y-129027136D01*
X134834752Y-128956321D01*
X134863711Y-128911259D01*
X134927206Y-128847765D01*
X134972585Y-128744991D01*
X134975500Y-128719865D01*
X134975499Y-128180136D01*
X134972585Y-128155009D01*
X134929414Y-128057235D01*
X134927206Y-128052234D01*
X134847767Y-127972795D01*
X134847765Y-127972794D01*
X134744989Y-127927414D01*
X134744990Y-127927414D01*
X134719868Y-127924500D01*
X133880140Y-127924500D01*
X133880133Y-127924501D01*
X133855009Y-127927414D01*
X133855005Y-127927416D01*
X133752235Y-127972793D01*
X133732335Y-127992694D01*
X133712432Y-128012596D01*
X133650124Y-128046620D01*
X133623339Y-128049500D01*
X133616661Y-128049500D01*
X133548540Y-128029498D01*
X133527565Y-128012594D01*
X133492767Y-127977795D01*
X133492765Y-127977794D01*
X133389989Y-127932414D01*
X133389990Y-127932414D01*
X133364868Y-127929500D01*
X132635140Y-127929500D01*
X132635133Y-127929501D01*
X132610009Y-127932414D01*
X132610005Y-127932416D01*
X132507234Y-127977793D01*
X132427795Y-128057232D01*
X132427794Y-128057234D01*
X132382414Y-128160009D01*
X132379500Y-128185129D01*
X132379500Y-128252151D01*
X132359498Y-128320272D01*
X132305842Y-128366765D01*
X132235568Y-128376869D01*
X132170988Y-128347375D01*
X132159691Y-128334719D01*
X132072767Y-128247795D01*
X132072765Y-128247794D01*
X131969989Y-128202414D01*
X131969991Y-128202414D01*
X131944868Y-128199500D01*
X131355140Y-128199500D01*
X131355133Y-128199501D01*
X131320594Y-128203507D01*
X131320371Y-128201585D01*
X131279626Y-128201582D01*
X131279403Y-128203507D01*
X131244867Y-128199500D01*
X130655140Y-128199500D01*
X130655133Y-128199501D01*
X130630009Y-128202414D01*
X130630005Y-128202416D01*
X130527234Y-128247793D01*
X130447795Y-128327232D01*
X130447794Y-128327234D01*
X130402414Y-128430009D01*
X130401485Y-128438023D01*
X130373765Y-128503384D01*
X130315108Y-128543383D01*
X130276325Y-128549500D01*
X123938793Y-128549500D01*
X123870672Y-128529498D01*
X123849698Y-128512595D01*
X119209577Y-123872473D01*
X131349499Y-123872473D01*
X131387016Y-124012485D01*
X131459488Y-124138011D01*
X131459496Y-124138021D01*
X131561978Y-124240503D01*
X131561983Y-124240507D01*
X131561985Y-124240509D01*
X131687515Y-124312984D01*
X131827525Y-124350500D01*
X131827527Y-124350500D01*
X131972473Y-124350500D01*
X131972475Y-124350500D01*
X132112485Y-124312984D01*
X132143207Y-124295246D01*
X132212196Y-124278509D01*
X132279289Y-124301728D01*
X132295299Y-124315271D01*
X132327232Y-124347204D01*
X132327234Y-124347205D01*
X132327235Y-124347206D01*
X132430009Y-124392585D01*
X132455135Y-124395500D01*
X133544864Y-124395499D01*
X133569991Y-124392585D01*
X133672765Y-124347206D01*
X133672769Y-124347201D01*
X133679237Y-124342772D01*
X133746739Y-124320773D01*
X133815420Y-124338760D01*
X133821656Y-124342768D01*
X133827523Y-124346787D01*
X133930126Y-124392090D01*
X133930125Y-124392090D01*
X133955203Y-124394999D01*
X134350000Y-124394999D01*
X134650000Y-124394999D01*
X135044789Y-124394999D01*
X135044794Y-124394998D01*
X135069873Y-124392090D01*
X135069878Y-124392088D01*
X135172477Y-124346787D01*
X135251785Y-124267479D01*
X135251786Y-124267477D01*
X135297090Y-124164873D01*
X135299999Y-124139798D01*
X135300000Y-124139795D01*
X135300000Y-123925000D01*
X134650000Y-123925000D01*
X134650000Y-124394999D01*
X134350000Y-124394999D01*
X134350000Y-123625000D01*
X134650000Y-123625000D01*
X135299999Y-123625000D01*
X135299999Y-123410211D01*
X135299998Y-123410205D01*
X135297090Y-123385126D01*
X135297088Y-123385121D01*
X135251787Y-123282522D01*
X135172479Y-123203214D01*
X135172477Y-123203213D01*
X135069873Y-123157909D01*
X135069874Y-123157909D01*
X135044798Y-123155000D01*
X134650000Y-123155000D01*
X134650000Y-123625000D01*
X134350000Y-123625000D01*
X134350000Y-123155000D01*
X133955211Y-123155000D01*
X133955205Y-123155001D01*
X133930126Y-123157909D01*
X133930121Y-123157911D01*
X133827519Y-123203214D01*
X133821651Y-123207234D01*
X133811273Y-123210614D01*
X133803041Y-123217780D01*
X133778108Y-123221420D01*
X133754147Y-123229227D01*
X133743587Y-123226460D01*
X133732789Y-123228037D01*
X133697976Y-123214510D01*
X133685469Y-123211233D01*
X133683205Y-123208770D01*
X133679241Y-123207230D01*
X133672765Y-123202794D01*
X133569989Y-123157414D01*
X133569990Y-123157414D01*
X133544868Y-123154500D01*
X132455140Y-123154500D01*
X132455133Y-123154501D01*
X132430009Y-123157414D01*
X132430005Y-123157416D01*
X132327235Y-123202793D01*
X132263601Y-123266427D01*
X132201288Y-123300452D01*
X132130473Y-123295386D01*
X132114290Y-123287763D01*
X132112490Y-123287017D01*
X132058162Y-123272460D01*
X131972475Y-123249500D01*
X131827525Y-123249500D01*
X131734185Y-123274510D01*
X131687514Y-123287016D01*
X131561988Y-123359488D01*
X131561978Y-123359496D01*
X131459496Y-123461978D01*
X131459488Y-123461988D01*
X131387016Y-123587514D01*
X131349500Y-123727526D01*
X131349500Y-123872473D01*
X131349499Y-123872473D01*
X119209577Y-123872473D01*
X119145465Y-123808361D01*
X117309577Y-121972473D01*
X118449499Y-121972473D01*
X118487016Y-122112485D01*
X118559488Y-122238011D01*
X118559496Y-122238021D01*
X118661978Y-122340503D01*
X118661983Y-122340507D01*
X118661985Y-122340509D01*
X118787515Y-122412984D01*
X118927525Y-122450500D01*
X118927527Y-122450500D01*
X119072473Y-122450500D01*
X119072475Y-122450500D01*
X119212485Y-122412984D01*
X119338015Y-122340509D01*
X119440509Y-122238015D01*
X119512984Y-122112485D01*
X119536591Y-122024381D01*
X119569200Y-121967901D01*
X122731973Y-118805129D01*
X125199500Y-118805129D01*
X125199500Y-119894859D01*
X125199501Y-119894866D01*
X125202414Y-119919990D01*
X125202416Y-119919994D01*
X125247793Y-120022765D01*
X125327232Y-120102204D01*
X125327234Y-120102205D01*
X125327235Y-120102206D01*
X125430009Y-120147585D01*
X125455135Y-120150500D01*
X128044864Y-120150499D01*
X128069991Y-120147585D01*
X128172765Y-120102206D01*
X128252206Y-120022765D01*
X128297585Y-119919991D01*
X128298515Y-119911977D01*
X128326235Y-119846616D01*
X128384892Y-119806617D01*
X128423675Y-119800500D01*
X129886207Y-119800500D01*
X129954328Y-119820502D01*
X129975302Y-119837405D01*
X132162595Y-122024698D01*
X132196621Y-122087010D01*
X132199500Y-122113793D01*
X132199500Y-122589859D01*
X132199501Y-122589866D01*
X132202414Y-122614990D01*
X132202416Y-122614994D01*
X132247793Y-122717765D01*
X132327232Y-122797204D01*
X132327234Y-122797205D01*
X132327235Y-122797206D01*
X132430009Y-122842585D01*
X132455135Y-122845500D01*
X133544864Y-122845499D01*
X133569991Y-122842585D01*
X133672765Y-122797206D01*
X133672768Y-122797202D01*
X133678790Y-122793078D01*
X133689172Y-122789694D01*
X133697408Y-122782527D01*
X133722337Y-122778887D01*
X133746293Y-122771081D01*
X133756855Y-122773847D01*
X133767660Y-122772270D01*
X133790602Y-122782686D01*
X133814972Y-122789070D01*
X133821210Y-122793078D01*
X133827233Y-122797204D01*
X133827235Y-122797206D01*
X133930009Y-122842585D01*
X133955135Y-122845500D01*
X135044864Y-122845499D01*
X135069991Y-122842585D01*
X135172765Y-122797206D01*
X135252206Y-122717765D01*
X135297585Y-122614991D01*
X135300500Y-122589865D01*
X135300499Y-121860136D01*
X135297585Y-121835009D01*
X135252206Y-121732235D01*
X135252206Y-121732234D01*
X135172767Y-121652795D01*
X135172765Y-121652794D01*
X135069989Y-121607414D01*
X135069990Y-121607414D01*
X135044868Y-121604500D01*
X133955140Y-121604500D01*
X133955133Y-121604501D01*
X133930009Y-121607414D01*
X133930005Y-121607416D01*
X133827236Y-121652793D01*
X133821206Y-121656924D01*
X133753702Y-121678919D01*
X133685023Y-121660927D01*
X133678794Y-121656924D01*
X133672766Y-121652795D01*
X133672765Y-121652794D01*
X133569994Y-121607416D01*
X133569989Y-121607414D01*
X133569990Y-121607414D01*
X133544870Y-121604500D01*
X133544865Y-121604500D01*
X133068793Y-121604500D01*
X133000672Y-121584498D01*
X132979698Y-121567595D01*
X130401620Y-118989516D01*
X130401610Y-118989508D01*
X130298891Y-118930203D01*
X130298889Y-118930202D01*
X130298887Y-118930201D01*
X130298880Y-118930199D01*
X130274673Y-118923712D01*
X130274673Y-118923713D01*
X130184309Y-118899500D01*
X130184308Y-118899500D01*
X128423674Y-118899500D01*
X128355553Y-118879498D01*
X128309060Y-118825842D01*
X128298513Y-118788018D01*
X128297585Y-118780009D01*
X128267733Y-118712401D01*
X128252206Y-118677234D01*
X128172767Y-118597795D01*
X128172765Y-118597794D01*
X128069989Y-118552414D01*
X128069990Y-118552414D01*
X128044868Y-118549500D01*
X125455140Y-118549500D01*
X125455133Y-118549501D01*
X125430009Y-118552414D01*
X125430005Y-118552416D01*
X125327234Y-118597793D01*
X125247795Y-118677232D01*
X125247794Y-118677234D01*
X125202414Y-118780009D01*
X125199500Y-118805129D01*
X122731973Y-118805129D01*
X124239698Y-117297405D01*
X124302010Y-117263379D01*
X124328793Y-117260500D01*
X125076326Y-117260500D01*
X125144447Y-117280502D01*
X125190940Y-117334158D01*
X125201486Y-117371981D01*
X125202415Y-117379991D01*
X125202415Y-117379993D01*
X125202416Y-117379994D01*
X125247793Y-117482765D01*
X125327232Y-117562204D01*
X125327234Y-117562205D01*
X125327235Y-117562206D01*
X125430009Y-117607585D01*
X125455135Y-117610500D01*
X128044864Y-117610499D01*
X128069991Y-117607585D01*
X128172765Y-117562206D01*
X128252206Y-117482765D01*
X128297585Y-117379991D01*
X128300500Y-117354865D01*
X128300499Y-116265136D01*
X128297585Y-116240009D01*
X128252206Y-116137235D01*
X128252206Y-116137234D01*
X128172767Y-116057795D01*
X128172765Y-116057794D01*
X128069989Y-116012414D01*
X128069990Y-116012414D01*
X128044868Y-116009500D01*
X125455140Y-116009500D01*
X125455133Y-116009501D01*
X125430009Y-116012414D01*
X125430005Y-116012416D01*
X125327234Y-116057793D01*
X125247795Y-116137232D01*
X125247794Y-116137234D01*
X125202414Y-116240009D01*
X125201485Y-116248023D01*
X125173765Y-116313384D01*
X125115108Y-116353383D01*
X125076325Y-116359500D01*
X124030690Y-116359500D01*
X123940325Y-116383713D01*
X123940324Y-116383712D01*
X123916114Y-116390200D01*
X123813389Y-116449508D01*
X123813379Y-116449516D01*
X118932098Y-121330797D01*
X118875616Y-121363408D01*
X118787516Y-121387015D01*
X118661988Y-121459488D01*
X118661978Y-121459496D01*
X118559496Y-121561978D01*
X118559488Y-121561988D01*
X118487016Y-121687514D01*
X118449500Y-121827526D01*
X118449500Y-121972473D01*
X118449499Y-121972473D01*
X117309577Y-121972473D01*
X114326620Y-118989516D01*
X114326610Y-118989508D01*
X114223891Y-118930203D01*
X114223889Y-118930202D01*
X114223887Y-118930201D01*
X114223880Y-118930199D01*
X114199673Y-118923712D01*
X114199673Y-118923713D01*
X114109309Y-118899500D01*
X114109308Y-118899500D01*
X113504471Y-118899500D01*
X113441471Y-118882619D01*
X113436065Y-118879498D01*
X113362485Y-118837016D01*
X113222475Y-118799500D01*
X113077525Y-118799500D01*
X112939168Y-118836573D01*
X112868192Y-118834883D01*
X112809396Y-118795089D01*
X112791293Y-118765759D01*
X112752207Y-118677236D01*
X112752204Y-118677232D01*
X112672767Y-118597795D01*
X112672765Y-118597794D01*
X112569989Y-118552414D01*
X112569990Y-118552414D01*
X112544868Y-118549500D01*
X109955140Y-118549500D01*
X109955133Y-118549501D01*
X109930009Y-118552414D01*
X109930005Y-118552416D01*
X109827234Y-118597793D01*
X109747795Y-118677232D01*
X109747794Y-118677234D01*
X109702414Y-118780009D01*
X109699500Y-118805129D01*
X108850500Y-118805129D01*
X108850500Y-118380214D01*
X108870502Y-118312093D01*
X108887405Y-118291119D01*
X109632681Y-117545843D01*
X109694993Y-117511817D01*
X109765808Y-117516882D01*
X109810871Y-117545843D01*
X109827232Y-117562204D01*
X109827234Y-117562205D01*
X109827235Y-117562206D01*
X109930009Y-117607585D01*
X109955135Y-117610500D01*
X112544864Y-117610499D01*
X112569991Y-117607585D01*
X112672765Y-117562206D01*
X112752206Y-117482765D01*
X112797585Y-117379991D01*
X112800500Y-117354865D01*
X112800499Y-116265136D01*
X112797585Y-116240009D01*
X112752206Y-116137235D01*
X112752206Y-116137234D01*
X112672767Y-116057795D01*
X112672765Y-116057794D01*
X112569989Y-116012414D01*
X112569990Y-116012414D01*
X112544868Y-116009500D01*
X109955140Y-116009500D01*
X109955133Y-116009501D01*
X109930009Y-116012414D01*
X109930005Y-116012416D01*
X109827234Y-116057793D01*
X109747793Y-116137234D01*
X109726971Y-116184394D01*
X109681158Y-116238631D01*
X109613294Y-116259490D01*
X109611707Y-116259500D01*
X109517525Y-116259500D01*
X109424185Y-116284510D01*
X109377514Y-116297016D01*
X109251988Y-116369488D01*
X109251978Y-116369496D01*
X107859493Y-117761980D01*
X107859491Y-117761983D01*
X107859490Y-117761985D01*
X107841009Y-117793996D01*
X107787018Y-117887510D01*
X107787016Y-117887515D01*
X107749500Y-118027525D01*
X107749500Y-118027527D01*
X107749500Y-127819784D01*
X107729498Y-127887905D01*
X107712595Y-127908880D01*
X107237146Y-128384328D01*
X107174834Y-128418353D01*
X107104018Y-128413288D01*
X107047183Y-128370741D01*
X107022372Y-128304221D01*
X107026345Y-128262620D01*
X107029151Y-128252151D01*
X107050500Y-128172475D01*
X107050500Y-128027525D01*
X107050500Y-121827525D01*
X107050500Y-114927540D01*
X107070502Y-114859419D01*
X107124158Y-114812926D01*
X107194432Y-114802822D01*
X107227392Y-114812275D01*
X107330009Y-114857585D01*
X107355135Y-114860500D01*
X108444864Y-114860499D01*
X108469991Y-114857585D01*
X108529666Y-114831235D01*
X108580560Y-114820500D01*
X109611707Y-114820500D01*
X109679828Y-114840502D01*
X109726321Y-114894158D01*
X109726971Y-114895606D01*
X109747793Y-114942765D01*
X109827232Y-115022204D01*
X109827234Y-115022205D01*
X109827235Y-115022206D01*
X109930009Y-115067585D01*
X109955135Y-115070500D01*
X112544864Y-115070499D01*
X112569991Y-115067585D01*
X112672765Y-115022206D01*
X112752206Y-114942765D01*
X112797585Y-114839991D01*
X112800500Y-114814865D01*
X112800499Y-113725136D01*
X112800498Y-113725129D01*
X125199500Y-113725129D01*
X125199500Y-114814859D01*
X125199501Y-114814866D01*
X125202414Y-114839990D01*
X125202416Y-114839994D01*
X125247793Y-114942765D01*
X125327232Y-115022204D01*
X125327234Y-115022205D01*
X125327235Y-115022206D01*
X125430009Y-115067585D01*
X125455135Y-115070500D01*
X128044864Y-115070499D01*
X128069991Y-115067585D01*
X128172765Y-115022206D01*
X128252206Y-114942765D01*
X128297585Y-114839991D01*
X128300500Y-114814865D01*
X128300499Y-113725136D01*
X128297585Y-113700009D01*
X128260046Y-113614991D01*
X128252206Y-113597234D01*
X128172767Y-113517795D01*
X128172765Y-113517794D01*
X128069989Y-113472414D01*
X128069990Y-113472414D01*
X128044868Y-113469500D01*
X125455140Y-113469500D01*
X125455133Y-113469501D01*
X125430009Y-113472414D01*
X125430005Y-113472416D01*
X125327234Y-113517793D01*
X125247795Y-113597232D01*
X125247794Y-113597234D01*
X125202414Y-113700009D01*
X125199500Y-113725129D01*
X112800498Y-113725129D01*
X112797585Y-113700009D01*
X112760046Y-113614991D01*
X112752206Y-113597234D01*
X112672767Y-113517795D01*
X112672765Y-113517794D01*
X112569989Y-113472414D01*
X112569990Y-113472414D01*
X112544868Y-113469500D01*
X109955140Y-113469500D01*
X109955133Y-113469501D01*
X109930009Y-113472414D01*
X109930005Y-113472416D01*
X109827234Y-113517793D01*
X109747793Y-113597234D01*
X109726971Y-113644394D01*
X109681158Y-113698631D01*
X109613294Y-113719490D01*
X109611707Y-113719500D01*
X108696661Y-113719500D01*
X108628540Y-113699498D01*
X108607565Y-113682594D01*
X108572767Y-113647795D01*
X108572765Y-113647794D01*
X108498473Y-113614991D01*
X108444236Y-113569178D01*
X108423377Y-113501315D01*
X108442519Y-113432947D01*
X108495584Y-113385782D01*
X108498473Y-113384463D01*
X108572477Y-113351787D01*
X108651785Y-113272479D01*
X108651786Y-113272477D01*
X108697090Y-113169873D01*
X108699999Y-113144798D01*
X108700000Y-113144795D01*
X108700000Y-112920000D01*
X108026000Y-112920000D01*
X107957879Y-112899998D01*
X107911386Y-112846342D01*
X107900000Y-112794000D01*
X107900000Y-112746000D01*
X107919440Y-112679794D01*
X132350001Y-112679794D01*
X132352909Y-112704873D01*
X132352911Y-112704878D01*
X132398212Y-112807477D01*
X132477520Y-112886785D01*
X132477522Y-112886786D01*
X132580126Y-112932090D01*
X132580125Y-112932090D01*
X132605203Y-112934999D01*
X134850000Y-112934999D01*
X134850000Y-112150000D01*
X132350001Y-112150000D01*
X132350001Y-112679794D01*
X107919440Y-112679794D01*
X107920002Y-112677879D01*
X107973658Y-112631386D01*
X108026000Y-112620000D01*
X108699999Y-112620000D01*
X108699999Y-112395211D01*
X108699998Y-112395205D01*
X108697090Y-112370126D01*
X108697088Y-112370121D01*
X108654998Y-112274794D01*
X109700001Y-112274794D01*
X109702909Y-112299873D01*
X109702911Y-112299878D01*
X109748212Y-112402477D01*
X109827520Y-112481785D01*
X109827522Y-112481786D01*
X109930126Y-112527090D01*
X109930125Y-112527090D01*
X109955203Y-112529999D01*
X111100000Y-112529999D01*
X111400000Y-112529999D01*
X112544789Y-112529999D01*
X112544794Y-112529998D01*
X112569873Y-112527090D01*
X112569878Y-112527088D01*
X112672477Y-112481787D01*
X112751785Y-112402479D01*
X112751786Y-112402477D01*
X112797090Y-112299873D01*
X112799999Y-112274798D01*
X112800000Y-112274795D01*
X112800000Y-111880000D01*
X111400000Y-111880000D01*
X111400000Y-112529999D01*
X111100000Y-112529999D01*
X111100000Y-111880000D01*
X109700001Y-111880000D01*
X109700001Y-112274794D01*
X108654998Y-112274794D01*
X108651787Y-112267522D01*
X108572479Y-112188214D01*
X108572477Y-112188213D01*
X108469873Y-112142909D01*
X108469874Y-112142909D01*
X108444798Y-112140000D01*
X108157773Y-112140000D01*
X108089652Y-112119998D01*
X108043159Y-112066342D01*
X108033055Y-111996068D01*
X108035110Y-111985193D01*
X108037783Y-111973809D01*
X108072585Y-111894991D01*
X108075500Y-111869865D01*
X108075499Y-111185201D01*
X109700000Y-111185201D01*
X109700000Y-111580000D01*
X111100000Y-111580000D01*
X111400000Y-111580000D01*
X112799999Y-111580000D01*
X112799999Y-111185211D01*
X112799998Y-111185205D01*
X112797090Y-111160126D01*
X112797088Y-111160121D01*
X112751787Y-111057522D01*
X112672479Y-110978214D01*
X112672477Y-110978213D01*
X112569873Y-110932909D01*
X112569874Y-110932909D01*
X112544798Y-110930000D01*
X111400000Y-110930000D01*
X111400000Y-111580000D01*
X111100000Y-111580000D01*
X111100000Y-110930000D01*
X109955211Y-110930000D01*
X109955205Y-110930001D01*
X109930126Y-110932909D01*
X109930121Y-110932911D01*
X109827522Y-110978212D01*
X109748214Y-111057520D01*
X109748213Y-111057522D01*
X109702909Y-111160126D01*
X109700000Y-111185201D01*
X108075499Y-111185201D01*
X108075499Y-110780136D01*
X108072585Y-110755009D01*
X108027206Y-110652235D01*
X108027206Y-110652234D01*
X107947767Y-110572795D01*
X107947765Y-110572794D01*
X107844989Y-110527414D01*
X107844990Y-110527414D01*
X107819868Y-110524500D01*
X105980140Y-110524500D01*
X105980133Y-110524501D01*
X105955009Y-110527414D01*
X105955005Y-110527416D01*
X105852234Y-110572793D01*
X105772793Y-110652234D01*
X105751971Y-110699394D01*
X105706158Y-110753631D01*
X105638294Y-110774490D01*
X105636707Y-110774500D01*
X105405215Y-110774500D01*
X105337094Y-110754498D01*
X105316120Y-110737595D01*
X105187405Y-110608880D01*
X105153379Y-110546568D01*
X105150500Y-110519785D01*
X105150500Y-108819794D01*
X105725001Y-108819794D01*
X105727909Y-108844873D01*
X105727911Y-108844878D01*
X105773212Y-108947477D01*
X105852520Y-109026785D01*
X105852522Y-109026786D01*
X105955126Y-109072090D01*
X105955125Y-109072090D01*
X105980203Y-109074999D01*
X106750000Y-109074999D01*
X107050000Y-109074999D01*
X107819789Y-109074999D01*
X107819794Y-109074998D01*
X107844873Y-109072090D01*
X107844878Y-109072088D01*
X107947477Y-109026787D01*
X108026785Y-108947479D01*
X108026786Y-108947477D01*
X108072090Y-108844873D01*
X108074999Y-108819798D01*
X108075000Y-108819795D01*
X108075000Y-108425000D01*
X107050000Y-108425000D01*
X107050000Y-109074999D01*
X106750000Y-109074999D01*
X106750000Y-108425000D01*
X105725001Y-108425000D01*
X105725001Y-108819794D01*
X105150500Y-108819794D01*
X105150500Y-107730201D01*
X105725000Y-107730201D01*
X105725000Y-108125000D01*
X106750000Y-108125000D01*
X107050000Y-108125000D01*
X108074999Y-108125000D01*
X108074999Y-107730211D01*
X108074998Y-107730205D01*
X108072090Y-107705126D01*
X108072088Y-107705121D01*
X108026787Y-107602522D01*
X107947479Y-107523214D01*
X107947477Y-107523213D01*
X107844873Y-107477909D01*
X107844874Y-107477909D01*
X107819798Y-107475000D01*
X107050000Y-107475000D01*
X107050000Y-108125000D01*
X106750000Y-108125000D01*
X106750000Y-107475000D01*
X105980211Y-107475000D01*
X105980205Y-107475001D01*
X105955126Y-107477909D01*
X105955121Y-107477911D01*
X105852522Y-107523212D01*
X105773214Y-107602520D01*
X105773213Y-107602522D01*
X105727909Y-107705126D01*
X105725000Y-107730201D01*
X105150500Y-107730201D01*
X105150500Y-107180215D01*
X105170502Y-107112094D01*
X105187405Y-107091120D01*
X112440504Y-99838021D01*
X112440510Y-99838015D01*
X112512984Y-99712485D01*
X112516762Y-99698386D01*
X112550500Y-99572475D01*
X112550500Y-97927525D01*
X112537527Y-97879109D01*
X112539217Y-97808135D01*
X112579011Y-97749339D01*
X112644275Y-97721391D01*
X112659234Y-97720500D01*
X112989309Y-97720500D01*
X113079673Y-97696286D01*
X113103887Y-97689799D01*
X113206614Y-97630489D01*
X114277615Y-96559488D01*
X115349699Y-95487405D01*
X115412011Y-95453379D01*
X115438794Y-95450500D01*
X117040691Y-95450500D01*
X117323500Y-95450500D01*
X117391621Y-95470502D01*
X117438114Y-95524158D01*
X117449500Y-95576500D01*
X117449500Y-95844860D01*
X117449501Y-95844866D01*
X117452414Y-95869989D01*
X117452416Y-95869994D01*
X117497793Y-95972764D01*
X117497794Y-95972765D01*
X117577235Y-96052206D01*
X117577236Y-96052206D01*
X117585491Y-96060461D01*
X117583165Y-96062786D01*
X117615990Y-96102997D01*
X117624025Y-96173537D01*
X117592647Y-96237224D01*
X117588984Y-96241044D01*
X117502793Y-96327234D01*
X117457414Y-96430009D01*
X117454500Y-96455129D01*
X117454500Y-97544859D01*
X117454501Y-97544866D01*
X117457414Y-97569990D01*
X117457416Y-97569994D01*
X117494681Y-97654392D01*
X117503899Y-97724788D01*
X117473594Y-97788992D01*
X117468514Y-97794380D01*
X117350303Y-97912594D01*
X117287991Y-97946620D01*
X117261206Y-97949500D01*
X117124662Y-97949500D01*
X117056541Y-97929498D01*
X117010048Y-97875842D01*
X116999944Y-97805568D01*
X117029438Y-97740988D01*
X117035567Y-97734405D01*
X117097204Y-97672767D01*
X117097206Y-97672765D01*
X117142585Y-97569991D01*
X117145500Y-97544865D01*
X117145499Y-96455136D01*
X117142585Y-96430009D01*
X117126872Y-96394422D01*
X117097206Y-96327234D01*
X117017767Y-96247795D01*
X117017765Y-96247794D01*
X116914989Y-96202414D01*
X116914990Y-96202414D01*
X116889868Y-96199500D01*
X116160140Y-96199500D01*
X116160133Y-96199501D01*
X116135009Y-96202414D01*
X116135005Y-96202416D01*
X116032234Y-96247793D01*
X115952795Y-96327232D01*
X115952791Y-96327237D01*
X115929045Y-96381018D01*
X115883232Y-96435255D01*
X115815368Y-96456113D01*
X115781174Y-96451831D01*
X115772475Y-96449500D01*
X115627525Y-96449500D01*
X115540700Y-96472765D01*
X115487514Y-96487016D01*
X115361988Y-96559488D01*
X115361978Y-96559496D01*
X115259496Y-96661978D01*
X115259488Y-96661988D01*
X115187016Y-96787514D01*
X115172955Y-96839991D01*
X115149586Y-96927206D01*
X115149500Y-96927526D01*
X115149500Y-97072473D01*
X115149499Y-97072473D01*
X115187016Y-97212485D01*
X115259488Y-97338011D01*
X115259496Y-97338021D01*
X115361978Y-97440503D01*
X115361983Y-97440507D01*
X115361985Y-97440509D01*
X115361986Y-97440510D01*
X115361988Y-97440511D01*
X115410691Y-97468629D01*
X115487515Y-97512984D01*
X115627525Y-97550500D01*
X115627527Y-97550500D01*
X115772475Y-97550500D01*
X115781166Y-97548171D01*
X115852142Y-97549857D01*
X115910940Y-97589649D01*
X115929046Y-97618981D01*
X115952794Y-97672765D01*
X115952795Y-97672766D01*
X115952795Y-97672767D01*
X116021823Y-97741795D01*
X116055849Y-97804107D01*
X116050784Y-97874922D01*
X116008237Y-97931758D01*
X115995729Y-97940009D01*
X115961985Y-97959490D01*
X115961978Y-97959496D01*
X115859496Y-98061978D01*
X115859488Y-98061988D01*
X115787016Y-98187514D01*
X115749500Y-98327526D01*
X115749500Y-98472473D01*
X115749499Y-98472473D01*
X115787016Y-98612485D01*
X115859488Y-98738011D01*
X115859496Y-98738021D01*
X115961978Y-98840503D01*
X115961983Y-98840507D01*
X115961985Y-98840509D01*
X116087515Y-98912984D01*
X116227525Y-98950500D01*
X116227527Y-98950500D01*
X116372473Y-98950500D01*
X116372475Y-98950500D01*
X116512485Y-98912984D01*
X116591471Y-98867380D01*
X116654471Y-98850500D01*
X117559309Y-98850500D01*
X117649673Y-98826286D01*
X117673887Y-98819799D01*
X117776614Y-98760489D01*
X118435490Y-98101614D01*
X118494799Y-97998887D01*
X118508032Y-97949500D01*
X118525500Y-97884309D01*
X118525500Y-97846662D01*
X118545502Y-97778541D01*
X118562405Y-97757567D01*
X118647204Y-97672767D01*
X118647206Y-97672765D01*
X118692585Y-97569991D01*
X118695500Y-97544865D01*
X118695499Y-96455136D01*
X118692585Y-96430009D01*
X118676872Y-96394422D01*
X118647206Y-96327234D01*
X118567405Y-96247433D01*
X118533379Y-96185121D01*
X118530500Y-96158338D01*
X118530500Y-96154423D01*
X118550502Y-96086302D01*
X118575060Y-96061012D01*
X118574509Y-96060461D01*
X118582763Y-96052206D01*
X118582765Y-96052206D01*
X118662206Y-95972765D01*
X118707585Y-95869991D01*
X118710500Y-95844865D01*
X118710499Y-95576498D01*
X118730501Y-95508380D01*
X118784156Y-95461887D01*
X118836499Y-95450500D01*
X119163500Y-95450500D01*
X119231621Y-95470502D01*
X119278114Y-95524158D01*
X119289500Y-95576500D01*
X119289500Y-95844860D01*
X119289501Y-95844866D01*
X119292414Y-95869989D01*
X119292416Y-95869994D01*
X119337793Y-95972764D01*
X119337794Y-95972765D01*
X119417235Y-96052206D01*
X119417236Y-96052206D01*
X119425491Y-96060461D01*
X119424042Y-96061909D01*
X119459601Y-96105469D01*
X119469500Y-96154423D01*
X119469500Y-96158338D01*
X119449498Y-96226459D01*
X119432595Y-96247433D01*
X119352795Y-96327232D01*
X119352794Y-96327234D01*
X119307414Y-96430009D01*
X119304500Y-96455129D01*
X119304500Y-97544859D01*
X119304501Y-97544866D01*
X119307414Y-97569990D01*
X119307416Y-97569994D01*
X119352793Y-97672765D01*
X119437595Y-97757567D01*
X119471621Y-97819879D01*
X119474500Y-97846662D01*
X119474500Y-99736207D01*
X119454498Y-99804328D01*
X119437595Y-99825302D01*
X113100302Y-106162595D01*
X113037990Y-106196621D01*
X113011207Y-106199500D01*
X112923674Y-106199500D01*
X112855553Y-106179498D01*
X112809060Y-106125842D01*
X112798513Y-106088018D01*
X112797585Y-106080009D01*
X112752206Y-105977235D01*
X112752206Y-105977234D01*
X112672767Y-105897795D01*
X112672765Y-105897794D01*
X112569989Y-105852414D01*
X112569990Y-105852414D01*
X112544868Y-105849500D01*
X109955140Y-105849500D01*
X109955133Y-105849501D01*
X109930009Y-105852414D01*
X109930005Y-105852416D01*
X109827234Y-105897793D01*
X109747795Y-105977232D01*
X109747794Y-105977234D01*
X109702414Y-106080009D01*
X109699500Y-106105129D01*
X109699500Y-107194859D01*
X109699501Y-107194866D01*
X109702414Y-107219990D01*
X109702416Y-107219994D01*
X109747793Y-107322765D01*
X109827232Y-107402204D01*
X109827234Y-107402205D01*
X109827235Y-107402206D01*
X109930009Y-107447585D01*
X109955135Y-107450500D01*
X112544864Y-107450499D01*
X112569991Y-107447585D01*
X112672765Y-107402206D01*
X112752206Y-107322765D01*
X112797585Y-107219991D01*
X112798515Y-107211977D01*
X112826235Y-107146616D01*
X112884892Y-107106617D01*
X112923675Y-107100500D01*
X113309309Y-107100500D01*
X113386552Y-107079801D01*
X113399666Y-107076288D01*
X113399667Y-107076287D01*
X113399673Y-107076286D01*
X113423887Y-107069799D01*
X113526614Y-107010489D01*
X117411464Y-103125637D01*
X117473774Y-103091614D01*
X117544589Y-103096678D01*
X117601425Y-103139225D01*
X117609675Y-103151732D01*
X117632618Y-103191469D01*
X117649500Y-103254471D01*
X117649500Y-103461207D01*
X117629498Y-103529328D01*
X117612595Y-103550302D01*
X112770103Y-108392793D01*
X112707791Y-108426819D01*
X112636976Y-108421754D01*
X112630114Y-108418962D01*
X112569989Y-108392414D01*
X112569990Y-108392414D01*
X112544868Y-108389500D01*
X109955140Y-108389500D01*
X109955133Y-108389501D01*
X109930009Y-108392414D01*
X109930005Y-108392416D01*
X109827234Y-108437793D01*
X109747795Y-108517232D01*
X109747794Y-108517234D01*
X109702414Y-108620009D01*
X109699500Y-108645129D01*
X109699500Y-109734859D01*
X109699501Y-109734866D01*
X109702414Y-109759990D01*
X109702416Y-109759994D01*
X109747793Y-109862765D01*
X109827232Y-109942204D01*
X109827234Y-109942205D01*
X109827235Y-109942206D01*
X109930009Y-109987585D01*
X109955135Y-109990500D01*
X112544864Y-109990499D01*
X112569991Y-109987585D01*
X112672765Y-109942206D01*
X112752206Y-109862765D01*
X112797585Y-109759991D01*
X112800500Y-109734865D01*
X112800499Y-109672953D01*
X112820500Y-109604834D01*
X112863501Y-109563833D01*
X112886614Y-109550489D01*
X118460489Y-103976614D01*
X118519798Y-103873887D01*
X118519799Y-103873886D01*
X118550500Y-103759309D01*
X118550500Y-103254471D01*
X118567381Y-103191471D01*
X118567382Y-103191469D01*
X118612984Y-103112485D01*
X118650500Y-102972475D01*
X118650500Y-102827525D01*
X118612984Y-102687515D01*
X118540509Y-102561985D01*
X118540507Y-102561983D01*
X118540503Y-102561978D01*
X118438021Y-102459496D01*
X118438011Y-102459488D01*
X118351734Y-102409676D01*
X118302741Y-102358293D01*
X118289305Y-102288580D01*
X118315692Y-102222669D01*
X118325622Y-102211479D01*
X120285490Y-100251613D01*
X120344799Y-100148886D01*
X120364164Y-100076614D01*
X120375500Y-100034309D01*
X120375500Y-97846662D01*
X120395502Y-97778541D01*
X120412405Y-97757567D01*
X120497204Y-97672767D01*
X120497206Y-97672765D01*
X120542585Y-97569991D01*
X120545500Y-97544865D01*
X120545499Y-96455136D01*
X120542585Y-96430009D01*
X120526872Y-96394422D01*
X120497206Y-96327234D01*
X120411016Y-96241044D01*
X120376990Y-96178732D01*
X120382055Y-96107917D01*
X120416265Y-96062217D01*
X120414509Y-96060461D01*
X120422763Y-96052206D01*
X120422765Y-96052206D01*
X120502206Y-95972765D01*
X120547585Y-95869991D01*
X120547585Y-95869987D01*
X120550073Y-95860847D01*
X120552193Y-95861423D01*
X120574928Y-95807799D01*
X120633580Y-95767793D01*
X120704550Y-95765847D01*
X120761473Y-95798576D01*
X120987595Y-96024698D01*
X121021621Y-96087010D01*
X121024500Y-96113793D01*
X121024500Y-96153338D01*
X121004498Y-96221459D01*
X120987595Y-96242433D01*
X120902795Y-96327232D01*
X120902794Y-96327234D01*
X120857414Y-96430009D01*
X120854500Y-96455129D01*
X120854500Y-97544859D01*
X120854501Y-97544866D01*
X120857414Y-97569990D01*
X120857416Y-97569994D01*
X120902793Y-97672765D01*
X120982232Y-97752204D01*
X120982234Y-97752205D01*
X120982235Y-97752206D01*
X121085009Y-97797585D01*
X121110135Y-97800500D01*
X121839864Y-97800499D01*
X121864991Y-97797585D01*
X121967765Y-97752206D01*
X122047206Y-97672765D01*
X122092585Y-97569991D01*
X122092876Y-97567474D01*
X122093515Y-97561977D01*
X122121235Y-97496616D01*
X122179892Y-97456617D01*
X122218675Y-97450500D01*
X124288306Y-97450500D01*
X124356427Y-97470502D01*
X124402920Y-97524158D01*
X124413024Y-97594432D01*
X124403569Y-97627396D01*
X124402414Y-97630010D01*
X124399500Y-97655129D01*
X124399500Y-98744859D01*
X124399501Y-98744866D01*
X124402414Y-98769990D01*
X124402416Y-98769994D01*
X124447793Y-98872765D01*
X124512595Y-98937567D01*
X124546621Y-98999879D01*
X124549500Y-99026662D01*
X124549500Y-99561206D01*
X124529498Y-99629327D01*
X124512595Y-99650301D01*
X121939516Y-102223379D01*
X121939508Y-102223389D01*
X121880200Y-102326113D01*
X121880201Y-102326114D01*
X121849500Y-102440691D01*
X121849500Y-110859309D01*
X121856248Y-110884491D01*
X121880201Y-110973887D01*
X121880202Y-110973889D01*
X121880203Y-110973891D01*
X121939508Y-111076610D01*
X121939516Y-111076620D01*
X122953378Y-112090483D01*
X122953381Y-112090485D01*
X122953386Y-112090490D01*
X123056114Y-112149799D01*
X123170691Y-112180500D01*
X125076326Y-112180500D01*
X125144447Y-112200502D01*
X125190940Y-112254158D01*
X125201486Y-112291981D01*
X125202415Y-112299991D01*
X125202415Y-112299993D01*
X125202416Y-112299994D01*
X125247793Y-112402765D01*
X125327232Y-112482204D01*
X125327234Y-112482205D01*
X125327235Y-112482206D01*
X125430009Y-112527585D01*
X125455135Y-112530500D01*
X128044864Y-112530499D01*
X128069991Y-112527585D01*
X128172765Y-112482206D01*
X128252206Y-112402765D01*
X128297585Y-112299991D01*
X128300500Y-112274865D01*
X128300499Y-111320201D01*
X132350000Y-111320201D01*
X132350000Y-111850000D01*
X134850000Y-111850000D01*
X134850000Y-111030000D01*
X134198417Y-111030000D01*
X134139589Y-111062121D01*
X134112808Y-111065000D01*
X132605211Y-111065000D01*
X132605205Y-111065001D01*
X132580126Y-111067909D01*
X132580121Y-111067911D01*
X132477522Y-111113212D01*
X132398214Y-111192520D01*
X132398213Y-111192522D01*
X132352909Y-111295126D01*
X132350000Y-111320201D01*
X128300499Y-111320201D01*
X128300499Y-111185136D01*
X128297585Y-111160009D01*
X128276922Y-111113212D01*
X128252206Y-111057234D01*
X128172767Y-110977795D01*
X128172765Y-110977794D01*
X128069989Y-110932414D01*
X128069990Y-110932414D01*
X128044868Y-110929500D01*
X125455140Y-110929500D01*
X125455133Y-110929501D01*
X125430009Y-110932414D01*
X125430005Y-110932416D01*
X125327234Y-110977793D01*
X125247795Y-111057232D01*
X125247794Y-111057234D01*
X125202414Y-111160009D01*
X125201485Y-111168023D01*
X125173765Y-111233384D01*
X125115108Y-111273383D01*
X125076325Y-111279500D01*
X123468794Y-111279500D01*
X123400673Y-111259498D01*
X123379699Y-111242595D01*
X122787405Y-110650301D01*
X122753379Y-110587989D01*
X122750500Y-110561206D01*
X122750500Y-107194794D01*
X125200001Y-107194794D01*
X125202909Y-107219873D01*
X125202911Y-107219878D01*
X125248212Y-107322477D01*
X125327520Y-107401785D01*
X125327522Y-107401786D01*
X125430126Y-107447090D01*
X125430125Y-107447090D01*
X125455203Y-107449999D01*
X126600000Y-107449999D01*
X126900000Y-107449999D01*
X128044789Y-107449999D01*
X128044794Y-107449998D01*
X128069873Y-107447090D01*
X128069878Y-107447088D01*
X128172477Y-107401787D01*
X128251785Y-107322479D01*
X128251786Y-107322477D01*
X128297090Y-107219873D01*
X128299999Y-107194798D01*
X128300000Y-107194795D01*
X128300000Y-106949794D01*
X132350001Y-106949794D01*
X132352909Y-106974873D01*
X132352911Y-106974878D01*
X132398212Y-107077477D01*
X132477520Y-107156785D01*
X132477522Y-107156786D01*
X132580126Y-107202090D01*
X132580125Y-107202090D01*
X132605203Y-107204999D01*
X134112808Y-107204999D01*
X134180929Y-107225001D01*
X134199540Y-107240000D01*
X134850000Y-107240000D01*
X134850000Y-106420000D01*
X132350001Y-106420000D01*
X132350001Y-106949794D01*
X128300000Y-106949794D01*
X128300000Y-106800000D01*
X126900000Y-106800000D01*
X126900000Y-107449999D01*
X126600000Y-107449999D01*
X126600000Y-106800000D01*
X125200001Y-106800000D01*
X125200001Y-107194794D01*
X122750500Y-107194794D01*
X122750500Y-106105201D01*
X125200000Y-106105201D01*
X125200000Y-106500000D01*
X126600000Y-106500000D01*
X126900000Y-106500000D01*
X128299999Y-106500000D01*
X128299999Y-106105211D01*
X128299998Y-106105205D01*
X128297090Y-106080126D01*
X128297088Y-106080121D01*
X128251787Y-105977522D01*
X128172479Y-105898214D01*
X128172477Y-105898213D01*
X128069873Y-105852909D01*
X128069874Y-105852909D01*
X128044798Y-105850000D01*
X126900000Y-105850000D01*
X126900000Y-106500000D01*
X126600000Y-106500000D01*
X126600000Y-105850000D01*
X125455211Y-105850000D01*
X125455205Y-105850001D01*
X125430126Y-105852909D01*
X125430121Y-105852911D01*
X125327522Y-105898212D01*
X125248214Y-105977520D01*
X125248213Y-105977522D01*
X125202909Y-106080126D01*
X125200000Y-106105201D01*
X122750500Y-106105201D01*
X122750500Y-105590201D01*
X132350000Y-105590201D01*
X132350000Y-106120000D01*
X134850000Y-106120000D01*
X134850000Y-105335000D01*
X132605211Y-105335000D01*
X132605205Y-105335001D01*
X132580126Y-105337909D01*
X132580121Y-105337911D01*
X132477522Y-105383212D01*
X132398214Y-105462520D01*
X132398213Y-105462522D01*
X132352909Y-105565126D01*
X132350000Y-105590201D01*
X122750500Y-105590201D01*
X122750500Y-102738793D01*
X122770502Y-102670672D01*
X122787405Y-102649698D01*
X125360483Y-100076621D01*
X125360483Y-100076620D01*
X125360490Y-100076614D01*
X125419799Y-99973886D01*
X125428742Y-99940509D01*
X125450500Y-99859309D01*
X125450500Y-99026662D01*
X125470502Y-98958541D01*
X125487405Y-98937567D01*
X125552204Y-98872767D01*
X125552206Y-98872765D01*
X125597585Y-98769991D01*
X125600500Y-98744865D01*
X125600499Y-97655136D01*
X125597585Y-97630009D01*
X125597222Y-97629188D01*
X125596430Y-97627392D01*
X125596019Y-97624253D01*
X125595096Y-97620860D01*
X125595558Y-97620734D01*
X125587214Y-97556996D01*
X125617519Y-97492793D01*
X125677725Y-97455166D01*
X125711695Y-97450500D01*
X130276326Y-97450500D01*
X130344447Y-97470502D01*
X130390940Y-97524158D01*
X130401486Y-97561981D01*
X130402415Y-97569991D01*
X130402415Y-97569993D01*
X130402416Y-97569994D01*
X130447793Y-97672765D01*
X130527232Y-97752204D01*
X130527234Y-97752205D01*
X130527235Y-97752206D01*
X130630009Y-97797585D01*
X130630008Y-97797585D01*
X130634478Y-97798103D01*
X130655135Y-97800500D01*
X131244864Y-97800499D01*
X131269991Y-97797585D01*
X131269991Y-97797584D01*
X131279407Y-97796493D01*
X131279630Y-97798421D01*
X131320372Y-97798421D01*
X131320596Y-97796493D01*
X131330008Y-97797584D01*
X131330009Y-97797585D01*
X131355135Y-97800500D01*
X131793732Y-97800499D01*
X131861853Y-97820501D01*
X131882827Y-97837404D01*
X131887502Y-97842079D01*
X131887507Y-97842083D01*
X131887509Y-97842085D01*
X131887510Y-97842086D01*
X131887512Y-97842087D01*
X131931691Y-97867594D01*
X131984991Y-97898367D01*
X132093719Y-97927500D01*
X132360338Y-97927500D01*
X132428459Y-97947502D01*
X132449433Y-97964405D01*
X132507232Y-98022204D01*
X132507234Y-98022205D01*
X132507235Y-98022206D01*
X132610009Y-98067585D01*
X132635135Y-98070500D01*
X133364864Y-98070499D01*
X133389991Y-98067585D01*
X133492765Y-98022206D01*
X133531259Y-97983711D01*
X133593568Y-97949688D01*
X133664384Y-97954752D01*
X133709448Y-97983713D01*
X133752520Y-98026785D01*
X133752522Y-98026786D01*
X133855126Y-98072090D01*
X133855125Y-98072090D01*
X133880203Y-98074999D01*
X134150000Y-98074999D01*
X134150000Y-97710051D01*
X134450000Y-97710051D01*
X134450000Y-98074999D01*
X134719789Y-98074999D01*
X134719794Y-98074998D01*
X134744873Y-98072090D01*
X134744878Y-98072088D01*
X134847477Y-98026787D01*
X134926785Y-97947479D01*
X134926786Y-97947477D01*
X134972090Y-97844873D01*
X134974999Y-97819798D01*
X134975000Y-97819795D01*
X134975000Y-97700000D01*
X134464782Y-97700000D01*
X134450000Y-97710051D01*
X134150000Y-97710051D01*
X134150000Y-97676000D01*
X134170002Y-97607879D01*
X134205149Y-97571807D01*
X134306857Y-97502645D01*
X134320002Y-97457879D01*
X134373658Y-97411386D01*
X134426000Y-97400000D01*
X134974999Y-97400000D01*
X134974999Y-97280211D01*
X134974998Y-97280205D01*
X134972090Y-97255126D01*
X134972088Y-97255121D01*
X134926787Y-97152522D01*
X134863713Y-97089448D01*
X134829687Y-97027136D01*
X134834752Y-96956321D01*
X134863711Y-96911259D01*
X134927206Y-96847765D01*
X134972585Y-96744991D01*
X134975500Y-96719865D01*
X134975499Y-96180136D01*
X134972585Y-96155009D01*
X134937383Y-96075283D01*
X134927206Y-96052234D01*
X134847767Y-95972795D01*
X134847765Y-95972794D01*
X134744989Y-95927414D01*
X134744990Y-95927414D01*
X134719868Y-95924500D01*
X133880140Y-95924500D01*
X133880133Y-95924501D01*
X133855009Y-95927414D01*
X133855005Y-95927416D01*
X133752234Y-95972793D01*
X133752232Y-95972795D01*
X133739433Y-95985595D01*
X133677121Y-96019621D01*
X133650338Y-96022500D01*
X133589662Y-96022500D01*
X133521541Y-96002498D01*
X133500567Y-95985595D01*
X133492767Y-95977795D01*
X133492765Y-95977794D01*
X133389989Y-95932414D01*
X133389990Y-95932414D01*
X133364868Y-95929500D01*
X132635140Y-95929500D01*
X132635133Y-95929501D01*
X132610009Y-95932414D01*
X132610005Y-95932416D01*
X132507234Y-95977793D01*
X132427795Y-96057232D01*
X132427794Y-96057234D01*
X132382414Y-96160009D01*
X132379501Y-96185121D01*
X132379500Y-96185132D01*
X132379500Y-96252151D01*
X132359498Y-96320272D01*
X132305842Y-96366765D01*
X132235568Y-96376869D01*
X132170988Y-96347375D01*
X132159691Y-96334719D01*
X132072767Y-96247795D01*
X132072765Y-96247794D01*
X131969989Y-96202414D01*
X131969991Y-96202414D01*
X131944868Y-96199500D01*
X131355140Y-96199500D01*
X131355133Y-96199501D01*
X131320594Y-96203507D01*
X131320371Y-96201585D01*
X131279626Y-96201582D01*
X131279403Y-96203507D01*
X131244867Y-96199500D01*
X130655140Y-96199500D01*
X130655133Y-96199501D01*
X130630009Y-96202414D01*
X130630005Y-96202416D01*
X130527234Y-96247793D01*
X130447795Y-96327232D01*
X130447794Y-96327234D01*
X130402414Y-96430009D01*
X130401485Y-96438023D01*
X130373765Y-96503384D01*
X130315108Y-96543383D01*
X130276325Y-96549500D01*
X126661694Y-96549500D01*
X126593573Y-96529498D01*
X126547080Y-96475842D01*
X126536976Y-96405568D01*
X126546431Y-96372604D01*
X126547585Y-96369991D01*
X126550500Y-96344865D01*
X126550499Y-95255136D01*
X126547585Y-95230009D01*
X126517550Y-95161985D01*
X126502206Y-95127234D01*
X126437405Y-95062433D01*
X126403379Y-95000121D01*
X126400500Y-94973338D01*
X126400500Y-94415688D01*
X126399793Y-94413050D01*
X126395499Y-94380437D01*
X126395499Y-93755140D01*
X126395499Y-93755136D01*
X126392585Y-93730009D01*
X126347333Y-93627523D01*
X126347207Y-93627237D01*
X126343078Y-93621210D01*
X126321081Y-93553707D01*
X126339070Y-93485028D01*
X126343078Y-93478790D01*
X126347202Y-93472768D01*
X126347206Y-93472765D01*
X126392585Y-93369991D01*
X126395500Y-93344865D01*
X126395499Y-92255136D01*
X126392585Y-92230009D01*
X126376872Y-92194422D01*
X126347206Y-92127234D01*
X126267767Y-92047795D01*
X126267765Y-92047794D01*
X126164989Y-92002414D01*
X126164990Y-92002414D01*
X126139868Y-91999500D01*
X125410140Y-91999500D01*
X125410133Y-91999501D01*
X125385009Y-92002414D01*
X125385005Y-92002416D01*
X125282234Y-92047793D01*
X125202795Y-92127232D01*
X125202794Y-92127234D01*
X125157414Y-92230009D01*
X125154500Y-92255129D01*
X125154500Y-93344859D01*
X125154501Y-93344866D01*
X125157414Y-93369990D01*
X125157416Y-93369994D01*
X125202793Y-93472763D01*
X125206924Y-93478794D01*
X125210306Y-93489174D01*
X125217472Y-93497408D01*
X125221111Y-93522336D01*
X125228919Y-93546298D01*
X125226152Y-93556859D01*
X125227729Y-93567660D01*
X125214202Y-93602472D01*
X125210927Y-93614977D01*
X125208464Y-93617240D01*
X125206924Y-93621206D01*
X125202793Y-93627236D01*
X125157414Y-93730009D01*
X125154500Y-93755129D01*
X125154500Y-94844859D01*
X125154501Y-94844866D01*
X125157414Y-94869990D01*
X125157416Y-94869994D01*
X125202793Y-94972765D01*
X125282232Y-95052204D01*
X125282231Y-95052204D01*
X125282234Y-95052205D01*
X125282235Y-95052206D01*
X125291398Y-95056252D01*
X125345635Y-95102061D01*
X125366496Y-95169924D01*
X125355771Y-95222407D01*
X125352415Y-95230007D01*
X125352414Y-95230009D01*
X125349500Y-95255129D01*
X125349500Y-96344859D01*
X125349501Y-96344866D01*
X125352414Y-96369990D01*
X125352416Y-96369994D01*
X125353570Y-96372608D01*
X125353980Y-96375746D01*
X125354904Y-96379140D01*
X125354441Y-96379265D01*
X125362786Y-96443004D01*
X125332481Y-96507207D01*
X125272275Y-96544834D01*
X125238305Y-96549500D01*
X124761148Y-96549500D01*
X124693027Y-96529498D01*
X124646534Y-96475842D01*
X124636430Y-96405568D01*
X124645884Y-96372606D01*
X124647090Y-96369873D01*
X124649999Y-96344798D01*
X124650000Y-96344795D01*
X124650000Y-95950000D01*
X123450001Y-95950000D01*
X123450001Y-96344794D01*
X123452909Y-96369873D01*
X123452911Y-96369879D01*
X123454117Y-96372610D01*
X123454546Y-96375889D01*
X123455399Y-96379024D01*
X123454971Y-96379140D01*
X123463332Y-96443006D01*
X123433025Y-96507209D01*
X123372819Y-96544835D01*
X123338851Y-96549500D01*
X122218674Y-96549500D01*
X122150553Y-96529498D01*
X122104060Y-96475842D01*
X122093513Y-96438018D01*
X122092585Y-96430009D01*
X122076872Y-96394422D01*
X122047206Y-96327234D01*
X121962405Y-96242433D01*
X121928379Y-96180121D01*
X121925500Y-96153338D01*
X121925500Y-95815692D01*
X121910440Y-95759489D01*
X121894799Y-95701114D01*
X121894799Y-95701113D01*
X121835489Y-95598386D01*
X121835487Y-95598384D01*
X121835483Y-95598379D01*
X121492305Y-95255201D01*
X123450000Y-95255201D01*
X123450000Y-95650000D01*
X124649999Y-95650000D01*
X124649999Y-95255211D01*
X124649998Y-95255205D01*
X124647090Y-95230126D01*
X124647088Y-95230121D01*
X124643572Y-95222157D01*
X124634353Y-95151761D01*
X124664657Y-95087557D01*
X124707944Y-95055996D01*
X124717477Y-95051786D01*
X124717479Y-95051785D01*
X124796785Y-94972479D01*
X124796786Y-94972477D01*
X124842090Y-94869873D01*
X124844999Y-94844798D01*
X124845000Y-94844795D01*
X124845000Y-94450000D01*
X123605001Y-94450000D01*
X123605001Y-94844794D01*
X123607909Y-94869873D01*
X123607911Y-94869878D01*
X123619049Y-94895105D01*
X123628265Y-94965501D01*
X123597959Y-95029705D01*
X123581699Y-95044035D01*
X123498214Y-95127520D01*
X123498213Y-95127522D01*
X123452909Y-95230126D01*
X123450000Y-95255201D01*
X121492305Y-95255201D01*
X120876620Y-94639516D01*
X120876610Y-94639508D01*
X120773891Y-94580203D01*
X120773889Y-94580202D01*
X120773887Y-94580201D01*
X120773880Y-94580199D01*
X120749673Y-94573712D01*
X120749673Y-94573713D01*
X120659309Y-94549500D01*
X120659308Y-94549500D01*
X120651332Y-94547363D01*
X120651720Y-94545912D01*
X120595126Y-94520876D01*
X120556034Y-94461611D01*
X120550499Y-94424680D01*
X120550499Y-94155136D01*
X120547585Y-94130009D01*
X120502206Y-94027235D01*
X120502206Y-94027234D01*
X120495608Y-94017603D01*
X120498299Y-94015758D01*
X120473379Y-93970121D01*
X120470500Y-93943338D01*
X120470500Y-93807525D01*
X120470499Y-93807521D01*
X120466494Y-93792573D01*
X120468183Y-93721597D01*
X120491645Y-93683107D01*
X120490608Y-93682397D01*
X120497204Y-93672767D01*
X120497206Y-93672765D01*
X120542585Y-93569991D01*
X120545500Y-93544865D01*
X120545499Y-92455136D01*
X120542585Y-92430009D01*
X120511451Y-92359496D01*
X120497206Y-92327234D01*
X120417767Y-92247795D01*
X120417765Y-92247794D01*
X120314989Y-92202414D01*
X120314990Y-92202414D01*
X120289868Y-92199500D01*
X119560140Y-92199500D01*
X119560133Y-92199501D01*
X119535009Y-92202414D01*
X119535005Y-92202416D01*
X119432234Y-92247793D01*
X119352795Y-92327232D01*
X119352794Y-92327234D01*
X119307414Y-92430009D01*
X119304500Y-92455129D01*
X119304500Y-93544859D01*
X119304501Y-93544866D01*
X119307414Y-93569990D01*
X119307416Y-93569994D01*
X119352793Y-93672764D01*
X119357998Y-93680362D01*
X119379994Y-93747866D01*
X119375756Y-93784175D01*
X119369500Y-93807525D01*
X119369500Y-93807526D01*
X119369500Y-93807527D01*
X119369500Y-93943337D01*
X119349498Y-94011458D01*
X119343513Y-94018885D01*
X119337794Y-94027234D01*
X119292414Y-94130009D01*
X119289500Y-94155130D01*
X119289500Y-94155133D01*
X119289500Y-94155135D01*
X119289500Y-94338493D01*
X119289501Y-94423500D01*
X119269499Y-94491620D01*
X119215844Y-94538113D01*
X119163501Y-94549500D01*
X118836500Y-94549500D01*
X118768379Y-94529498D01*
X118721886Y-94475842D01*
X118710500Y-94423500D01*
X118710499Y-94155139D01*
X118710499Y-94155136D01*
X118707585Y-94130009D01*
X118662206Y-94027235D01*
X118662206Y-94027234D01*
X118655608Y-94017603D01*
X118658299Y-94015758D01*
X118633379Y-93970121D01*
X118630500Y-93943338D01*
X118630500Y-93807526D01*
X118630499Y-93807522D01*
X118627836Y-93797585D01*
X118624245Y-93784181D01*
X118625934Y-93713205D01*
X118642004Y-93680358D01*
X118647201Y-93672769D01*
X118647206Y-93672765D01*
X118692585Y-93569991D01*
X118695500Y-93544865D01*
X118695499Y-92455136D01*
X118692585Y-92430009D01*
X118661451Y-92359496D01*
X118647206Y-92327234D01*
X118567767Y-92247795D01*
X118567765Y-92247794D01*
X118464989Y-92202414D01*
X118464990Y-92202414D01*
X118439868Y-92199500D01*
X117710140Y-92199500D01*
X117710133Y-92199501D01*
X117685009Y-92202414D01*
X117685005Y-92202416D01*
X117582234Y-92247793D01*
X117502795Y-92327232D01*
X117502794Y-92327234D01*
X117457414Y-92430009D01*
X117454500Y-92455129D01*
X117454500Y-93544859D01*
X117454501Y-93544866D01*
X117457414Y-93569990D01*
X117457416Y-93569994D01*
X117502793Y-93672765D01*
X117509392Y-93682397D01*
X117507789Y-93683494D01*
X117534920Y-93733178D01*
X117533507Y-93792566D01*
X117529501Y-93807519D01*
X117529500Y-93807527D01*
X117529500Y-93943337D01*
X117509498Y-94011458D01*
X117503513Y-94018885D01*
X117497794Y-94027234D01*
X117452414Y-94130009D01*
X117449500Y-94155130D01*
X117449500Y-94408206D01*
X117429498Y-94476327D01*
X117375842Y-94522820D01*
X117305568Y-94532924D01*
X117240988Y-94503430D01*
X117234405Y-94497301D01*
X117012405Y-94275301D01*
X116978379Y-94212989D01*
X116975500Y-94186206D01*
X116975500Y-93846662D01*
X116995502Y-93778541D01*
X117012405Y-93757567D01*
X117097204Y-93672767D01*
X117097206Y-93672765D01*
X117142585Y-93569991D01*
X117145500Y-93544865D01*
X117145499Y-92455136D01*
X117142585Y-92430009D01*
X117111451Y-92359496D01*
X117097206Y-92327234D01*
X117017767Y-92247795D01*
X117017765Y-92247794D01*
X116914989Y-92202414D01*
X116914990Y-92202414D01*
X116889868Y-92199500D01*
X116160140Y-92199500D01*
X116160133Y-92199501D01*
X116135009Y-92202414D01*
X116135005Y-92202416D01*
X116032234Y-92247793D01*
X115952795Y-92327232D01*
X115952794Y-92327234D01*
X115907414Y-92430009D01*
X115904500Y-92455129D01*
X115904500Y-93544859D01*
X115904501Y-93544866D01*
X115907414Y-93569990D01*
X115907416Y-93569994D01*
X115952793Y-93672765D01*
X116037595Y-93757567D01*
X116071621Y-93819879D01*
X116074500Y-93846662D01*
X116074500Y-94423500D01*
X116054498Y-94491621D01*
X116000842Y-94538114D01*
X115948500Y-94549500D01*
X115140690Y-94549500D01*
X115050325Y-94573713D01*
X115050324Y-94573712D01*
X115026115Y-94580199D01*
X114923387Y-94639509D01*
X114923379Y-94639515D01*
X112780302Y-96782595D01*
X112717990Y-96816620D01*
X112691207Y-96819500D01*
X111624474Y-96819500D01*
X111561475Y-96802619D01*
X111482492Y-96757018D01*
X111482485Y-96757016D01*
X111342475Y-96719500D01*
X111342472Y-96719500D01*
X110956662Y-96719500D01*
X110888541Y-96699498D01*
X110881118Y-96693516D01*
X110872765Y-96687793D01*
X110825606Y-96666971D01*
X110771369Y-96621158D01*
X110750510Y-96553294D01*
X110750500Y-96551707D01*
X110750500Y-96127526D01*
X110744590Y-96105469D01*
X110712984Y-95987515D01*
X110645133Y-95869994D01*
X110640511Y-95861988D01*
X110640507Y-95861983D01*
X110594215Y-95815691D01*
X110538015Y-95759491D01*
X110240411Y-95461887D01*
X109937403Y-95158878D01*
X109903378Y-95096566D01*
X109900499Y-95069783D01*
X109900499Y-94955140D01*
X109900499Y-94955136D01*
X109897585Y-94930009D01*
X109871035Y-94869878D01*
X109852206Y-94827234D01*
X109772767Y-94747795D01*
X109772765Y-94747794D01*
X109669989Y-94702414D01*
X109669990Y-94702414D01*
X109644870Y-94699500D01*
X109644865Y-94699500D01*
X109226500Y-94699500D01*
X109158379Y-94679498D01*
X109111886Y-94625842D01*
X109100500Y-94573500D01*
X109100500Y-94288793D01*
X109120502Y-94220672D01*
X109137405Y-94199698D01*
X111649699Y-91687405D01*
X111712011Y-91653379D01*
X111738794Y-91650500D01*
X120661207Y-91650500D01*
X120729328Y-91670502D01*
X120750302Y-91687405D01*
X120987595Y-91924698D01*
X121021621Y-91987010D01*
X121024500Y-92013793D01*
X121024500Y-92153338D01*
X121004498Y-92221459D01*
X120987595Y-92242433D01*
X120902795Y-92327232D01*
X120902794Y-92327234D01*
X120857414Y-92430009D01*
X120854500Y-92455129D01*
X120854500Y-93544859D01*
X120854501Y-93544866D01*
X120857414Y-93569990D01*
X120857416Y-93569994D01*
X120902793Y-93672765D01*
X120982232Y-93752204D01*
X120982234Y-93752205D01*
X120982235Y-93752206D01*
X121085009Y-93797585D01*
X121110135Y-93800500D01*
X121839864Y-93800499D01*
X121864991Y-93797585D01*
X121967765Y-93752206D01*
X122047206Y-93672765D01*
X122092585Y-93569991D01*
X122095500Y-93544865D01*
X122095499Y-92872473D01*
X122849499Y-92872473D01*
X122887016Y-93012485D01*
X122959488Y-93138011D01*
X122959496Y-93138021D01*
X123061978Y-93240503D01*
X123061983Y-93240507D01*
X123061985Y-93240509D01*
X123187515Y-93312984D01*
X123327525Y-93350500D01*
X123327527Y-93350500D01*
X123472475Y-93350500D01*
X123481166Y-93348171D01*
X123552142Y-93349857D01*
X123610940Y-93389649D01*
X123629046Y-93418981D01*
X123652794Y-93472765D01*
X123652795Y-93472766D01*
X123657230Y-93479241D01*
X123679227Y-93546745D01*
X123661236Y-93615424D01*
X123657234Y-93621651D01*
X123653214Y-93627519D01*
X123607909Y-93730126D01*
X123605000Y-93755201D01*
X123605000Y-94150000D01*
X124844999Y-94150000D01*
X124844999Y-93755211D01*
X124844998Y-93755205D01*
X124842090Y-93730126D01*
X124842088Y-93730121D01*
X124796787Y-93627523D01*
X124792768Y-93621656D01*
X124789385Y-93611275D01*
X124782219Y-93603041D01*
X124778579Y-93578113D01*
X124770772Y-93554153D01*
X124773539Y-93543590D01*
X124771962Y-93532789D01*
X124782378Y-93509847D01*
X124788764Y-93485473D01*
X124792772Y-93479237D01*
X124797205Y-93472766D01*
X124797206Y-93472765D01*
X124842585Y-93369991D01*
X124845500Y-93344865D01*
X124845499Y-92255136D01*
X124842585Y-92230009D01*
X124826872Y-92194422D01*
X124797206Y-92127234D01*
X124717767Y-92047795D01*
X124717765Y-92047794D01*
X124614989Y-92002414D01*
X124614990Y-92002414D01*
X124589868Y-91999500D01*
X123860140Y-91999500D01*
X123860133Y-91999501D01*
X123835009Y-92002414D01*
X123835005Y-92002416D01*
X123732234Y-92047793D01*
X123652795Y-92127232D01*
X123652791Y-92127237D01*
X123629045Y-92181018D01*
X123583232Y-92235255D01*
X123515368Y-92256113D01*
X123481174Y-92251831D01*
X123472475Y-92249500D01*
X123327525Y-92249500D01*
X123234185Y-92274510D01*
X123187514Y-92287016D01*
X123061988Y-92359488D01*
X123061978Y-92359496D01*
X122959496Y-92461978D01*
X122959488Y-92461988D01*
X122887016Y-92587514D01*
X122849500Y-92727526D01*
X122849500Y-92872473D01*
X122849499Y-92872473D01*
X122095499Y-92872473D01*
X122095499Y-92455136D01*
X122092585Y-92430009D01*
X122061451Y-92359496D01*
X122047206Y-92327234D01*
X121962405Y-92242433D01*
X121928379Y-92180121D01*
X121925500Y-92153338D01*
X121925500Y-91715692D01*
X121913391Y-91670502D01*
X121894799Y-91601114D01*
X121894799Y-91601113D01*
X121835490Y-91498386D01*
X121176614Y-90839511D01*
X121176611Y-90839509D01*
X121176610Y-90839508D01*
X121073891Y-90780203D01*
X121073889Y-90780202D01*
X121073887Y-90780201D01*
X121073880Y-90780199D01*
X121049673Y-90773712D01*
X121049673Y-90773713D01*
X120959309Y-90749500D01*
X111440691Y-90749500D01*
X111440690Y-90749500D01*
X111350325Y-90773713D01*
X111350324Y-90773712D01*
X111326115Y-90780199D01*
X111223387Y-90839509D01*
X111223379Y-90839515D01*
X108289516Y-93773379D01*
X108289508Y-93773389D01*
X108230200Y-93876113D01*
X108230201Y-93876114D01*
X108199500Y-93990692D01*
X108199500Y-94723338D01*
X108179498Y-94791459D01*
X108162595Y-94812433D01*
X108147795Y-94827232D01*
X108147793Y-94827234D01*
X108126971Y-94874394D01*
X108081158Y-94928631D01*
X108013294Y-94949490D01*
X108011707Y-94949500D01*
X106026500Y-94949500D01*
X105958379Y-94929498D01*
X105911886Y-94875842D01*
X105900500Y-94823500D01*
X105900500Y-94478504D01*
X105899787Y-94475842D01*
X105862984Y-94338493D01*
X105840644Y-94299799D01*
X105790510Y-94212963D01*
X105790507Y-94212960D01*
X105790504Y-94212956D01*
X105337043Y-93759495D01*
X105337033Y-93759487D01*
X105211508Y-93687016D01*
X105211510Y-93687016D01*
X105138730Y-93667514D01*
X105138730Y-93667515D01*
X105116318Y-93661510D01*
X105071497Y-93649500D01*
X102727525Y-93649500D01*
X102693909Y-93658507D01*
X102660292Y-93667515D01*
X102660291Y-93667514D01*
X102587521Y-93687014D01*
X102587516Y-93687015D01*
X102587515Y-93687016D01*
X102587514Y-93687016D01*
X102587510Y-93687018D01*
X102461989Y-93759487D01*
X102461979Y-93759495D01*
X101059495Y-95161978D01*
X101059490Y-95161985D01*
X101020150Y-95230126D01*
X101005711Y-95255135D01*
X101005710Y-95255136D01*
X100987016Y-95287514D01*
X100949500Y-95427526D01*
X100949500Y-103023664D01*
X100929498Y-103091785D01*
X100897561Y-103125600D01*
X100800561Y-103196075D01*
X100733694Y-103219933D01*
X100664542Y-103203853D01*
X100615062Y-103152939D01*
X100600500Y-103094139D01*
X100600500Y-88878447D01*
X101145500Y-88878447D01*
X101145500Y-89121552D01*
X101177229Y-89362563D01*
X101177230Y-89362569D01*
X101177231Y-89362571D01*
X101240150Y-89597388D01*
X101333181Y-89821984D01*
X101333182Y-89821985D01*
X101333187Y-89821996D01*
X101454728Y-90032512D01*
X101454732Y-90032518D01*
X101602714Y-90225371D01*
X101602733Y-90225392D01*
X101774607Y-90397266D01*
X101774628Y-90397285D01*
X101967481Y-90545267D01*
X101967487Y-90545271D01*
X102178003Y-90666812D01*
X102178007Y-90666813D01*
X102178016Y-90666819D01*
X102402612Y-90759850D01*
X102637429Y-90822769D01*
X102637435Y-90822769D01*
X102637436Y-90822770D01*
X102665093Y-90826411D01*
X102878450Y-90854500D01*
X102878457Y-90854500D01*
X103121543Y-90854500D01*
X103121550Y-90854500D01*
X103362571Y-90822769D01*
X103597388Y-90759850D01*
X103821984Y-90666819D01*
X104032516Y-90545269D01*
X104225380Y-90397278D01*
X104397278Y-90225380D01*
X104545269Y-90032516D01*
X104666819Y-89821984D01*
X104759850Y-89597388D01*
X104822769Y-89362571D01*
X104854500Y-89121550D01*
X104854500Y-88878450D01*
X104854500Y-88878447D01*
X133145500Y-88878447D01*
X133145500Y-89121552D01*
X133177229Y-89362563D01*
X133177230Y-89362569D01*
X133177231Y-89362571D01*
X133240150Y-89597388D01*
X133333181Y-89821984D01*
X133333182Y-89821985D01*
X133333187Y-89821996D01*
X133454728Y-90032512D01*
X133454732Y-90032518D01*
X133602714Y-90225371D01*
X133602733Y-90225392D01*
X133774607Y-90397266D01*
X133774628Y-90397285D01*
X133967481Y-90545267D01*
X133967487Y-90545271D01*
X134178003Y-90666812D01*
X134178007Y-90666813D01*
X134178016Y-90666819D01*
X134402612Y-90759850D01*
X134637429Y-90822769D01*
X134637435Y-90822769D01*
X134637436Y-90822770D01*
X134665093Y-90826411D01*
X134878450Y-90854500D01*
X134878457Y-90854500D01*
X135121543Y-90854500D01*
X135121550Y-90854500D01*
X135362571Y-90822769D01*
X135597388Y-90759850D01*
X135821984Y-90666819D01*
X136032516Y-90545269D01*
X136225380Y-90397278D01*
X136397278Y-90225380D01*
X136545269Y-90032516D01*
X136666819Y-89821984D01*
X136759850Y-89597388D01*
X136822769Y-89362571D01*
X136854500Y-89121550D01*
X136854500Y-88878450D01*
X136822769Y-88637429D01*
X136759850Y-88402612D01*
X136666819Y-88178016D01*
X136666813Y-88178007D01*
X136666812Y-88178003D01*
X136545271Y-87967487D01*
X136545267Y-87967481D01*
X136397285Y-87774628D01*
X136397266Y-87774607D01*
X136225392Y-87602733D01*
X136225371Y-87602714D01*
X136032518Y-87454732D01*
X136032512Y-87454728D01*
X135821996Y-87333187D01*
X135821988Y-87333183D01*
X135821984Y-87333181D01*
X135597388Y-87240150D01*
X135362571Y-87177231D01*
X135362569Y-87177230D01*
X135362563Y-87177229D01*
X135121552Y-87145500D01*
X135121550Y-87145500D01*
X134878450Y-87145500D01*
X134878447Y-87145500D01*
X134637436Y-87177229D01*
X134402612Y-87240150D01*
X134178014Y-87333182D01*
X134178003Y-87333187D01*
X133967487Y-87454728D01*
X133967481Y-87454732D01*
X133774628Y-87602714D01*
X133774607Y-87602733D01*
X133602733Y-87774607D01*
X133602714Y-87774628D01*
X133454732Y-87967481D01*
X133454728Y-87967487D01*
X133333187Y-88178003D01*
X133333182Y-88178014D01*
X133333181Y-88178016D01*
X133299094Y-88260309D01*
X133240150Y-88402612D01*
X133177229Y-88637436D01*
X133145500Y-88878447D01*
X104854500Y-88878447D01*
X104822769Y-88637429D01*
X104759850Y-88402612D01*
X104666819Y-88178016D01*
X104666813Y-88178007D01*
X104666812Y-88178003D01*
X104545271Y-87967487D01*
X104545267Y-87967481D01*
X104397285Y-87774628D01*
X104397266Y-87774607D01*
X104225392Y-87602733D01*
X104225371Y-87602714D01*
X104032518Y-87454732D01*
X104032512Y-87454728D01*
X103821996Y-87333187D01*
X103821988Y-87333183D01*
X103821984Y-87333181D01*
X103597388Y-87240150D01*
X103362571Y-87177231D01*
X103362569Y-87177230D01*
X103362563Y-87177229D01*
X103121552Y-87145500D01*
X103121550Y-87145500D01*
X102878450Y-87145500D01*
X102878447Y-87145500D01*
X102637436Y-87177229D01*
X102402612Y-87240150D01*
X102178014Y-87333182D01*
X102178003Y-87333187D01*
X101967487Y-87454728D01*
X101967481Y-87454732D01*
X101774628Y-87602714D01*
X101774607Y-87602733D01*
X101602733Y-87774607D01*
X101602714Y-87774628D01*
X101454732Y-87967481D01*
X101454728Y-87967487D01*
X101333187Y-88178003D01*
X101333182Y-88178014D01*
X101333181Y-88178016D01*
X101299094Y-88260309D01*
X101240150Y-88402612D01*
X101177229Y-88637436D01*
X101145500Y-88878447D01*
X100600500Y-88878447D01*
X100600500Y-88504121D01*
X100600770Y-88495881D01*
X100601530Y-88484271D01*
X100616210Y-88260298D01*
X100618358Y-88243979D01*
X100663616Y-88016456D01*
X100667875Y-88000561D01*
X100742441Y-87780898D01*
X100748735Y-87765702D01*
X100851339Y-87557641D01*
X100859563Y-87543398D01*
X100988444Y-87350513D01*
X100998457Y-87337463D01*
X101151418Y-87163045D01*
X101163045Y-87151418D01*
X101337463Y-86998457D01*
X101350513Y-86988444D01*
X101543398Y-86859563D01*
X101557641Y-86851339D01*
X101765702Y-86748735D01*
X101780898Y-86742441D01*
X102000561Y-86667875D01*
X102016456Y-86663616D01*
X102243979Y-86618358D01*
X102260298Y-86616210D01*
X102484271Y-86601530D01*
X102495881Y-86600770D01*
X102504121Y-86600500D01*
X102572914Y-86600500D01*
X135427086Y-86600500D01*
X135495879Y-86600500D01*
X135504119Y-86600770D01*
G37*
%TD.AperFunction*%
%TD*%
M02*
