ISO-10303-21;
HEADER;
FILE_DESCRIPTION(('KiCad electronic assembly'),'2;1');
FILE_NAME('model.step','1970-01-01T00:00:00',('Pcbnew'),('Kicad'),
  'Open CASCADE STEP processor 7.9','KiCad to STEP converter','Unknown'
  );
FILE_SCHEMA(('AUTOMOTIVE_DESIGN { 1 0 10303 214 1 1 1 1 }'));
ENDSEC;
DATA;
#1 = APPLICATION_PROTOCOL_DEFINITION('international standard',
  'automotive_design',2000,#2);
#2 = APPLICATION_CONTEXT(
  'core data for automotive mechanical design processes');
#3 = SHAPE_DEFINITION_REPRESENTATION(#4,#10);
#4 = PRODUCT_DEFINITION_SHAPE('','',#5);
#5 = PRODUCT_DEFINITION('design','',#6,#9);
#6 = PRODUCT_DEFINITION_FORMATION('','',#7);
#7 = PRODUCT('model 1','model 1','',(#8));
#8 = PRODUCT_CONTEXT('',#2,'mechanical');
#9 = PRODUCT_DEFINITION_CONTEXT('part definition',#2,'design');
#10 = SHAPE_REPRESENTATION('',(#11,#15,#19,#23),#27);
#11 = AXIS2_PLACEMENT_3D('',#12,#13,#14);
#12 = CARTESIAN_POINT('',(0.,0.,0.));
#13 = DIRECTION('',(0.,0.,1.));
#14 = DIRECTION('',(1.,0.,-0.));
#15 = AXIS2_PLACEMENT_3D('',#16,#17,#18);
#16 = CARTESIAN_POINT('',(0.,0.,1.595));
#17 = DIRECTION('',(0.,0.,1.));
#18 = DIRECTION('',(1.,0.,0.));
#19 = AXIS2_PLACEMENT_3D('',#20,#21,#22);
#20 = CARTESIAN_POINT('',(0.,0.,0.));
#21 = DIRECTION('',(0.,0.,1.));
#22 = DIRECTION('',(1.,0.,-0.));
#23 = AXIS2_PLACEMENT_3D('',#24,#25,#26);
#24 = CARTESIAN_POINT('',(0.,0.,0.));
#25 = DIRECTION('',(0.,0.,1.));
#26 = DIRECTION('',(1.,0.,-0.));
#27 = ( GEOMETRIC_REPRESENTATION_CONTEXT(3) 
GLOBAL_UNCERTAINTY_ASSIGNED_CONTEXT((#31)) GLOBAL_UNIT_ASSIGNED_CONTEXT(
(#28,#29,#30)) REPRESENTATION_CONTEXT('Context #1',
  '3D Context with UNIT and UNCERTAINTY') );
#28 = ( LENGTH_UNIT() NAMED_UNIT(*) SI_UNIT(.MILLI.,.METRE.) );
#29 = ( NAMED_UNIT(*) PLANE_ANGLE_UNIT() SI_UNIT($,.RADIAN.) );
#30 = ( NAMED_UNIT(*) SI_UNIT($,.STERADIAN.) SOLID_ANGLE_UNIT() );
#31 = UNCERTAINTY_MEASURE_WITH_UNIT(LENGTH_MEASURE(1.E-07),#28,
  'distance_accuracy_value','confusion accuracy');
#32 = PRODUCT_RELATED_PRODUCT_CATEGORY('part',$,(#7));
#33 = SHAPE_DEFINITION_REPRESENTATION(#34,#40);
#34 = PRODUCT_DEFINITION_SHAPE('','',#35);
#35 = PRODUCT_DEFINITION('design','',#36,#39);
#36 = PRODUCT_DEFINITION_FORMATION('','',#37);
#37 = PRODUCT('LED_D10.0mm','LED_D10.0mm','',(#38));
#38 = PRODUCT_CONTEXT('',#2,'mechanical');
#39 = PRODUCT_DEFINITION_CONTEXT('part definition',#2,'design');
#40 = SHAPE_REPRESENTATION('',(#11,#41),#45);
#41 = AXIS2_PLACEMENT_3D('',#42,#43,#44);
#42 = CARTESIAN_POINT('',(0.,0.,0.));
#43 = DIRECTION('',(0.,0.,1.));
#44 = DIRECTION('',(1.,0.,-0.));
#45 = ( GEOMETRIC_REPRESENTATION_CONTEXT(3) 
GLOBAL_UNCERTAINTY_ASSIGNED_CONTEXT((#49)) GLOBAL_UNIT_ASSIGNED_CONTEXT(
(#46,#47,#48)) REPRESENTATION_CONTEXT('Context #1',
  '3D Context with UNIT and UNCERTAINTY') );
#46 = ( LENGTH_UNIT() NAMED_UNIT(*) SI_UNIT(.MILLI.,.METRE.) );
#47 = ( NAMED_UNIT(*) PLANE_ANGLE_UNIT() SI_UNIT($,.RADIAN.) );
#48 = ( NAMED_UNIT(*) SI_UNIT($,.STERADIAN.) SOLID_ANGLE_UNIT() );
#49 = UNCERTAINTY_MEASURE_WITH_UNIT(LENGTH_MEASURE(1.E-07),#46,
  'distance_accuracy_value','confusion accuracy');
#50 = CONTEXT_DEPENDENT_SHAPE_REPRESENTATION(#51,#53);
#51 = ( REPRESENTATION_RELATIONSHIP('','',#40,#10) 
REPRESENTATION_RELATIONSHIP_WITH_TRANSFORMATION(#52) 
SHAPE_REPRESENTATION_RELATIONSHIP() );
#52 = ITEM_DEFINED_TRANSFORMATION('','',#11,#15);
#53 = PRODUCT_DEFINITION_SHAPE('Placement','Placement of an item',#54);
#54 = NEXT_ASSEMBLY_USAGE_OCCURRENCE('2','REF**','',#5,#35,$);
#55 = PRODUCT_RELATED_PRODUCT_CATEGORY('part',$,(#37));
#56 = SHAPE_DEFINITION_REPRESENTATION(#57,#63);
#57 = PRODUCT_DEFINITION_SHAPE('','',#58);
#58 = PRODUCT_DEFINITION('design','',#59,#62);
#59 = PRODUCT_DEFINITION_FORMATION('','',#60);
#60 = PRODUCT('LED_D10.0mm','LED_D10.0mm','',(#61));
#61 = PRODUCT_CONTEXT('',#2,'mechanical');
#62 = PRODUCT_DEFINITION_CONTEXT('part definition',#2,'design');
#63 = ADVANCED_BREP_SHAPE_REPRESENTATION('',(#11,#64),#527);
#64 = MANIFOLD_SOLID_BREP('',#65);
#65 = CLOSED_SHELL('',(#66,#93,#138,#182,#214,#233,#311,#342,#366,#390,
    #407,#438,#462,#486,#503,#515));
#66 = ADVANCED_FACE('',(#67),#88,.T.);
#67 = FACE_BOUND('',#68,.T.);
#68 = EDGE_LOOP('',(#69,#80,#81));
#69 = ORIENTED_EDGE('',*,*,#70,.T.);
#70 = EDGE_CURVE('',#71,#73,#75,.T.);
#71 = VERTEX_POINT('',#72);
#72 = CARTESIAN_POINT('',(6.27,7.660538869914E-15,11.5));
#73 = VERTEX_POINT('',#74);
#74 = CARTESIAN_POINT('',(1.27,1.099120794379E-14,16.5));
#75 = CIRCLE('',#76,5.);
#76 = AXIS2_PLACEMENT_3D('',#77,#78,#79);
#77 = CARTESIAN_POINT('',(1.27,7.660538869914E-15,11.5));
#78 = DIRECTION('',(0.,-1.,6.661338147751E-16));
#79 = DIRECTION('',(1.,0.,0.));
#80 = ORIENTED_EDGE('',*,*,#70,.F.);
#81 = ORIENTED_EDGE('',*,*,#82,.F.);
#82 = EDGE_CURVE('',#71,#71,#83,.T.);
#83 = CIRCLE('',#84,5.);
#84 = AXIS2_PLACEMENT_3D('',#85,#86,#87);
#85 = CARTESIAN_POINT('',(1.27,5.107025913276E-15,11.5));
#86 = DIRECTION('',(0.,-4.440892098501E-16,-1.));
#87 = DIRECTION('',(1.,5.107025913276E-16,-2.267975102511E-31));
#88 = SPHERICAL_SURFACE('',#89,5.);
#89 = AXIS2_PLACEMENT_3D('',#90,#91,#92);
#90 = CARTESIAN_POINT('',(1.27,7.660538869914E-15,11.5));
#91 = DIRECTION('',(0.,4.440892098501E-16,1.));
#92 = DIRECTION('',(1.,9.442871359196E-16,-4.193477280621E-31));
#93 = ADVANCED_FACE('',(#94),#133,.T.);
#94 = FACE_BOUND('',#95,.T.);
#95 = EDGE_LOOP('',(#96,#104,#105,#106,#115,#124));
#96 = ORIENTED_EDGE('',*,*,#97,.F.);
#97 = EDGE_CURVE('',#71,#98,#100,.T.);
#98 = VERTEX_POINT('',#99);
#99 = CARTESIAN_POINT('',(6.27,3.330669073875E-15,5.));
#100 = LINE('',#101,#102);
#101 = CARTESIAN_POINT('',(6.27,7.660538869914E-15,11.5));
#102 = VECTOR('',#103,1.);
#103 = DIRECTION('',(0.,-6.661338147751E-16,-1.));
#104 = ORIENTED_EDGE('',*,*,#82,.T.);
#105 = ORIENTED_EDGE('',*,*,#97,.T.);
#106 = ORIENTED_EDGE('',*,*,#107,.F.);
#107 = EDGE_CURVE('',#108,#98,#110,.T.);
#108 = VERTEX_POINT('',#109);
#109 = CARTESIAN_POINT('',(-3.73,4.709944174507E-16,5.));
#110 = CIRCLE('',#111,5.);
#111 = AXIS2_PLACEMENT_3D('',#112,#113,#114);
#112 = CARTESIAN_POINT('',(1.27,2.22044604925E-15,5.));
#113 = DIRECTION('',(0.,-4.440892098501E-16,-1.));
#114 = DIRECTION('',(1.,2.22044604925E-16,-9.860761315262E-32));
#115 = ORIENTED_EDGE('',*,*,#116,.F.);
#116 = EDGE_CURVE('',#117,#108,#119,.T.);
#117 = VERTEX_POINT('',#118);
#118 = CARTESIAN_POINT('',(-3.73,-4.894819391562E-08,5.));
#119 = CIRCLE('',#120,5.);
#120 = AXIS2_PLACEMENT_3D('',#121,#122,#123);
#121 = CARTESIAN_POINT('',(1.27,2.22044604925E-15,5.));
#122 = DIRECTION('',(0.,-4.440892098501E-16,-1.));
#123 = DIRECTION('',(1.,2.22044604925E-16,-9.860761315262E-32));
#124 = ORIENTED_EDGE('',*,*,#125,.F.);
#125 = EDGE_CURVE('',#98,#126,#128,.T.);
#126 = VERTEX_POINT('',#127);
#127 = CARTESIAN_POINT('',(-3.73,-4.894819391562E-08,5.));
#128 = CIRCLE('',#129,5.);
#129 = AXIS2_PLACEMENT_3D('',#130,#131,#132);
#130 = CARTESIAN_POINT('',(1.27,2.22044604925E-15,5.));
#131 = DIRECTION('',(0.,-4.440892098501E-16,-1.));
#132 = DIRECTION('',(1.,2.22044604925E-16,-9.860761315262E-32));
#133 = CYLINDRICAL_SURFACE('',#134,5.);
#134 = AXIS2_PLACEMENT_3D('',#135,#136,#137);
#135 = CARTESIAN_POINT('',(1.27,5.107025913276E-15,11.5));
#136 = DIRECTION('',(0.,-4.440892098501E-16,-1.));
#137 = DIRECTION('',(1.,5.107025913276E-16,-2.267975102511E-31));
#138 = ADVANCED_FACE('',(#139,#172),#177,.F.);
#139 = FACE_BOUND('',#140,.F.);
#140 = EDGE_LOOP('',(#141,#152,#158,#166));
#141 = ORIENTED_EDGE('',*,*,#142,.F.);
#142 = EDGE_CURVE('',#143,#145,#147,.T.);
#143 = VERTEX_POINT('',#144);
#144 = CARTESIAN_POINT('',(-3.729999999991,-2.291287847517,5.));
#145 = VERTEX_POINT('',#146);
#146 = CARTESIAN_POINT('',(-3.729999999991,2.291287847517,5.));
#147 = CIRCLE('',#148,5.5);
#148 = AXIS2_PLACEMENT_3D('',#149,#150,#151);
#149 = CARTESIAN_POINT('',(1.27,0.,5.));
#150 = DIRECTION('',(0.,0.,1.));
#151 = DIRECTION('',(1.,0.,-0.));
#152 = ORIENTED_EDGE('',*,*,#153,.T.);
#153 = EDGE_CURVE('',#143,#117,#154,.T.);
#154 = LINE('',#155,#156);
#155 = CARTESIAN_POINT('',(-3.73,-2.291287847517,5.));
#156 = VECTOR('',#157,1.);
#157 = DIRECTION('',(0.,1.,0.));
#158 = ORIENTED_EDGE('',*,*,#159,.T.);
#159 = EDGE_CURVE('',#117,#160,#162,.T.);
#160 = VERTEX_POINT('',#161);
#161 = CARTESIAN_POINT('',(-3.73,4.709944174507E-16,5.));
#162 = LINE('',#163,#164);
#163 = CARTESIAN_POINT('',(-3.73,-2.291287847517,5.));
#164 = VECTOR('',#165,1.);
#165 = DIRECTION('',(0.,1.,0.));
#166 = ORIENTED_EDGE('',*,*,#167,.T.);
#167 = EDGE_CURVE('',#160,#145,#168,.T.);
#168 = LINE('',#169,#170);
#169 = CARTESIAN_POINT('',(-3.73,-2.291287847517,5.));
#170 = VECTOR('',#171,1.);
#171 = DIRECTION('',(0.,1.,0.));
#172 = FACE_BOUND('',#173,.F.);
#173 = EDGE_LOOP('',(#174,#175,#176));
#174 = ORIENTED_EDGE('',*,*,#107,.F.);
#175 = ORIENTED_EDGE('',*,*,#116,.F.);
#176 = ORIENTED_EDGE('',*,*,#125,.F.);
#177 = PLANE('',#178);
#178 = AXIS2_PLACEMENT_3D('',#179,#180,#181);
#179 = CARTESIAN_POINT('',(-3.729999999982,-2.291287847517,5.));
#180 = DIRECTION('',(0.,0.,-1.));
#181 = DIRECTION('',(-1.,0.,0.));
#182 = ADVANCED_FACE('',(#183),#209,.T.);
#183 = FACE_BOUND('',#184,.T.);
#184 = EDGE_LOOP('',(#185,#196,#202,#203));
#185 = ORIENTED_EDGE('',*,*,#186,.T.);
#186 = EDGE_CURVE('',#187,#189,#191,.T.);
#187 = VERTEX_POINT('',#188);
#188 = CARTESIAN_POINT('',(-3.729999999991,-2.291287847517,3.));
#189 = VERTEX_POINT('',#190);
#190 = CARTESIAN_POINT('',(-3.729999999991,2.291287847517,3.));
#191 = CIRCLE('',#192,5.5);
#192 = AXIS2_PLACEMENT_3D('',#193,#194,#195);
#193 = CARTESIAN_POINT('',(1.27,0.,3.));
#194 = DIRECTION('',(0.,0.,1.));
#195 = DIRECTION('',(1.,0.,-0.));
#196 = ORIENTED_EDGE('',*,*,#197,.T.);
#197 = EDGE_CURVE('',#189,#145,#198,.T.);
#198 = LINE('',#199,#200);
#199 = CARTESIAN_POINT('',(-3.729999999991,2.291287847517,3.));
#200 = VECTOR('',#201,1.);
#201 = DIRECTION('',(0.,0.,1.));
#202 = ORIENTED_EDGE('',*,*,#142,.F.);
#203 = ORIENTED_EDGE('',*,*,#204,.F.);
#204 = EDGE_CURVE('',#187,#143,#205,.T.);
#205 = LINE('',#206,#207);
#206 = CARTESIAN_POINT('',(-3.729999999991,-2.291287847517,3.));
#207 = VECTOR('',#208,1.);
#208 = DIRECTION('',(0.,0.,1.));
#209 = CYLINDRICAL_SURFACE('',#210,5.5);
#210 = AXIS2_PLACEMENT_3D('',#211,#212,#213);
#211 = CARTESIAN_POINT('',(1.27,0.,3.));
#212 = DIRECTION('',(-0.,-0.,-1.));
#213 = DIRECTION('',(1.,0.,0.));
#214 = ADVANCED_FACE('',(#215),#228,.T.);
#215 = FACE_BOUND('',#216,.T.);
#216 = EDGE_LOOP('',(#217,#218,#219,#220,#221,#222));
#217 = ORIENTED_EDGE('',*,*,#204,.T.);
#218 = ORIENTED_EDGE('',*,*,#153,.T.);
#219 = ORIENTED_EDGE('',*,*,#159,.T.);
#220 = ORIENTED_EDGE('',*,*,#167,.T.);
#221 = ORIENTED_EDGE('',*,*,#197,.F.);
#222 = ORIENTED_EDGE('',*,*,#223,.F.);
#223 = EDGE_CURVE('',#187,#189,#224,.T.);
#224 = LINE('',#225,#226);
#225 = CARTESIAN_POINT('',(-3.73,-2.291287847517,3.));
#226 = VECTOR('',#227,1.);
#227 = DIRECTION('',(0.,1.,0.));
#228 = PLANE('',#229);
#229 = AXIS2_PLACEMENT_3D('',#230,#231,#232);
#230 = CARTESIAN_POINT('',(-3.73,-2.291287847517,3.));
#231 = DIRECTION('',(-1.,0.,0.));
#232 = DIRECTION('',(0.,1.,0.));
#233 = ADVANCED_FACE('',(#234,#238,#272),#306,.T.);
#234 = FACE_BOUND('',#235,.T.);
#235 = EDGE_LOOP('',(#236,#237));
#236 = ORIENTED_EDGE('',*,*,#186,.F.);
#237 = ORIENTED_EDGE('',*,*,#223,.T.);
#238 = FACE_BOUND('',#239,.T.);
#239 = EDGE_LOOP('',(#240,#250,#258,#266));
#240 = ORIENTED_EDGE('',*,*,#241,.T.);
#241 = EDGE_CURVE('',#242,#244,#246,.T.);
#242 = VERTEX_POINT('',#243);
#243 = CARTESIAN_POINT('',(-0.2,0.2,3.));
#244 = VERTEX_POINT('',#245);
#245 = CARTESIAN_POINT('',(-0.2,-0.2,3.));
#246 = LINE('',#247,#248);
#247 = CARTESIAN_POINT('',(-0.2,-1.245643923759,3.));
#248 = VECTOR('',#249,1.);
#249 = DIRECTION('',(0.,-1.,0.));
#250 = ORIENTED_EDGE('',*,*,#251,.T.);
#251 = EDGE_CURVE('',#244,#252,#254,.T.);
#252 = VERTEX_POINT('',#253);
#253 = CARTESIAN_POINT('',(0.2,-0.2,3.));
#254 = LINE('',#255,#256);
#255 = CARTESIAN_POINT('',(-1.764999999991,-0.2,3.));
#256 = VECTOR('',#257,1.);
#257 = DIRECTION('',(1.,0.,0.));
#258 = ORIENTED_EDGE('',*,*,#259,.T.);
#259 = EDGE_CURVE('',#252,#260,#262,.T.);
#260 = VERTEX_POINT('',#261);
#261 = CARTESIAN_POINT('',(0.2,0.2,3.));
#262 = LINE('',#263,#264);
#263 = CARTESIAN_POINT('',(0.2,-1.045643923759,3.));
#264 = VECTOR('',#265,1.);
#265 = DIRECTION('',(0.,1.,0.));
#266 = ORIENTED_EDGE('',*,*,#267,.T.);
#267 = EDGE_CURVE('',#260,#242,#268,.T.);
#268 = LINE('',#269,#270);
#269 = CARTESIAN_POINT('',(-1.964999999991,0.2,3.));
#270 = VECTOR('',#271,1.);
#271 = DIRECTION('',(-1.,-0.,-0.));
#272 = FACE_BOUND('',#273,.T.);
#273 = EDGE_LOOP('',(#274,#284,#292,#300));
#274 = ORIENTED_EDGE('',*,*,#275,.T.);
#275 = EDGE_CURVE('',#276,#278,#280,.T.);
#276 = VERTEX_POINT('',#277);
#277 = CARTESIAN_POINT('',(2.74,0.2,3.));
#278 = VERTEX_POINT('',#279);
#279 = CARTESIAN_POINT('',(2.34,0.2,3.));
#280 = LINE('',#281,#282);
#281 = CARTESIAN_POINT('',(-0.694999999991,0.2,3.));
#282 = VECTOR('',#283,1.);
#283 = DIRECTION('',(-1.,-0.,-0.));
#284 = ORIENTED_EDGE('',*,*,#285,.T.);
#285 = EDGE_CURVE('',#278,#286,#288,.T.);
#286 = VERTEX_POINT('',#287);
#287 = CARTESIAN_POINT('',(2.34,-0.2,3.));
#288 = LINE('',#289,#290);
#289 = CARTESIAN_POINT('',(2.34,-1.245643923759,3.));
#290 = VECTOR('',#291,1.);
#291 = DIRECTION('',(0.,-1.,0.));
#292 = ORIENTED_EDGE('',*,*,#293,.T.);
#293 = EDGE_CURVE('',#286,#294,#296,.T.);
#294 = VERTEX_POINT('',#295);
#295 = CARTESIAN_POINT('',(2.74,-0.2,3.));
#296 = LINE('',#297,#298);
#297 = CARTESIAN_POINT('',(-0.494999999991,-0.2,3.));
#298 = VECTOR('',#299,1.);
#299 = DIRECTION('',(1.,0.,0.));
#300 = ORIENTED_EDGE('',*,*,#301,.T.);
#301 = EDGE_CURVE('',#294,#276,#302,.T.);
#302 = LINE('',#303,#304);
#303 = CARTESIAN_POINT('',(2.74,-1.045643923759,3.));
#304 = VECTOR('',#305,1.);
#305 = DIRECTION('',(0.,1.,0.));
#306 = PLANE('',#307);
#307 = AXIS2_PLACEMENT_3D('',#308,#309,#310);
#308 = CARTESIAN_POINT('',(-3.729999999982,-2.291287847517,3.));
#309 = DIRECTION('',(0.,0.,-1.));
#310 = DIRECTION('',(-1.,0.,0.));
#311 = ADVANCED_FACE('',(#312),#337,.F.);
#312 = FACE_BOUND('',#313,.F.);
#313 = EDGE_LOOP('',(#314,#315,#323,#331));
#314 = ORIENTED_EDGE('',*,*,#241,.T.);
#315 = ORIENTED_EDGE('',*,*,#316,.T.);
#316 = EDGE_CURVE('',#244,#317,#319,.T.);
#317 = VERTEX_POINT('',#318);
#318 = CARTESIAN_POINT('',(-0.2,-0.2,-2.));
#319 = LINE('',#320,#321);
#320 = CARTESIAN_POINT('',(-0.2,-0.2,4.));
#321 = VECTOR('',#322,1.);
#322 = DIRECTION('',(-0.,-0.,-1.));
#323 = ORIENTED_EDGE('',*,*,#324,.T.);
#324 = EDGE_CURVE('',#317,#325,#327,.T.);
#325 = VERTEX_POINT('',#326);
#326 = CARTESIAN_POINT('',(-0.2,0.2,-2.));
#327 = LINE('',#328,#329);
#328 = CARTESIAN_POINT('',(-0.2,-0.2,-2.));
#329 = VECTOR('',#330,1.);
#330 = DIRECTION('',(0.,1.,0.));
#331 = ORIENTED_EDGE('',*,*,#332,.F.);
#332 = EDGE_CURVE('',#242,#325,#333,.T.);
#333 = LINE('',#334,#335);
#334 = CARTESIAN_POINT('',(-0.2,0.2,4.));
#335 = VECTOR('',#336,1.);
#336 = DIRECTION('',(-0.,-0.,-1.));
#337 = PLANE('',#338);
#338 = AXIS2_PLACEMENT_3D('',#339,#340,#341);
#339 = CARTESIAN_POINT('',(-0.2,-0.2,4.));
#340 = DIRECTION('',(1.,0.,0.));
#341 = DIRECTION('',(-0.,1.,0.));
#342 = ADVANCED_FACE('',(#343),#361,.F.);
#343 = FACE_BOUND('',#344,.F.);
#344 = EDGE_LOOP('',(#345,#346,#347,#355));
#345 = ORIENTED_EDGE('',*,*,#267,.T.);
#346 = ORIENTED_EDGE('',*,*,#332,.T.);
#347 = ORIENTED_EDGE('',*,*,#348,.T.);
#348 = EDGE_CURVE('',#325,#349,#351,.T.);
#349 = VERTEX_POINT('',#350);
#350 = CARTESIAN_POINT('',(0.2,0.2,-2.));
#351 = LINE('',#352,#353);
#352 = CARTESIAN_POINT('',(-0.2,0.2,-2.));
#353 = VECTOR('',#354,1.);
#354 = DIRECTION('',(1.,0.,0.));
#355 = ORIENTED_EDGE('',*,*,#356,.F.);
#356 = EDGE_CURVE('',#260,#349,#357,.T.);
#357 = LINE('',#358,#359);
#358 = CARTESIAN_POINT('',(0.2,0.2,4.));
#359 = VECTOR('',#360,1.);
#360 = DIRECTION('',(-0.,-0.,-1.));
#361 = PLANE('',#362);
#362 = AXIS2_PLACEMENT_3D('',#363,#364,#365);
#363 = CARTESIAN_POINT('',(-0.2,0.2,4.));
#364 = DIRECTION('',(0.,-1.,0.));
#365 = DIRECTION('',(1.,0.,0.));
#366 = ADVANCED_FACE('',(#367),#385,.F.);
#367 = FACE_BOUND('',#368,.F.);
#368 = EDGE_LOOP('',(#369,#370,#371,#379));
#369 = ORIENTED_EDGE('',*,*,#259,.T.);
#370 = ORIENTED_EDGE('',*,*,#356,.T.);
#371 = ORIENTED_EDGE('',*,*,#372,.T.);
#372 = EDGE_CURVE('',#349,#373,#375,.T.);
#373 = VERTEX_POINT('',#374);
#374 = CARTESIAN_POINT('',(0.2,-0.2,-2.));
#375 = LINE('',#376,#377);
#376 = CARTESIAN_POINT('',(0.2,0.2,-2.));
#377 = VECTOR('',#378,1.);
#378 = DIRECTION('',(0.,-1.,0.));
#379 = ORIENTED_EDGE('',*,*,#380,.F.);
#380 = EDGE_CURVE('',#252,#373,#381,.T.);
#381 = LINE('',#382,#383);
#382 = CARTESIAN_POINT('',(0.2,-0.2,4.));
#383 = VECTOR('',#384,1.);
#384 = DIRECTION('',(-0.,-0.,-1.));
#385 = PLANE('',#386);
#386 = AXIS2_PLACEMENT_3D('',#387,#388,#389);
#387 = CARTESIAN_POINT('',(0.2,0.2,4.));
#388 = DIRECTION('',(-1.,0.,0.));
#389 = DIRECTION('',(0.,-1.,0.));
#390 = ADVANCED_FACE('',(#391),#402,.F.);
#391 = FACE_BOUND('',#392,.F.);
#392 = EDGE_LOOP('',(#393,#394,#395,#401));
#393 = ORIENTED_EDGE('',*,*,#251,.T.);
#394 = ORIENTED_EDGE('',*,*,#380,.T.);
#395 = ORIENTED_EDGE('',*,*,#396,.T.);
#396 = EDGE_CURVE('',#373,#317,#397,.T.);
#397 = LINE('',#398,#399);
#398 = CARTESIAN_POINT('',(0.2,-0.2,-2.));
#399 = VECTOR('',#400,1.);
#400 = DIRECTION('',(-1.,0.,0.));
#401 = ORIENTED_EDGE('',*,*,#316,.F.);
#402 = PLANE('',#403);
#403 = AXIS2_PLACEMENT_3D('',#404,#405,#406);
#404 = CARTESIAN_POINT('',(0.2,-0.2,4.));
#405 = DIRECTION('',(0.,1.,0.));
#406 = DIRECTION('',(-1.,0.,0.));
#407 = ADVANCED_FACE('',(#408),#433,.F.);
#408 = FACE_BOUND('',#409,.F.);
#409 = EDGE_LOOP('',(#410,#411,#419,#427));
#410 = ORIENTED_EDGE('',*,*,#275,.T.);
#411 = ORIENTED_EDGE('',*,*,#412,.T.);
#412 = EDGE_CURVE('',#278,#413,#415,.T.);
#413 = VERTEX_POINT('',#414);
#414 = CARTESIAN_POINT('',(2.34,0.2,-2.));
#415 = LINE('',#416,#417);
#416 = CARTESIAN_POINT('',(2.34,0.2,4.));
#417 = VECTOR('',#418,1.);
#418 = DIRECTION('',(-0.,-0.,-1.));
#419 = ORIENTED_EDGE('',*,*,#420,.T.);
#420 = EDGE_CURVE('',#413,#421,#423,.T.);
#421 = VERTEX_POINT('',#422);
#422 = CARTESIAN_POINT('',(2.74,0.2,-2.));
#423 = LINE('',#424,#425);
#424 = CARTESIAN_POINT('',(2.34,0.2,-2.));
#425 = VECTOR('',#426,1.);
#426 = DIRECTION('',(1.,0.,0.));
#427 = ORIENTED_EDGE('',*,*,#428,.F.);
#428 = EDGE_CURVE('',#276,#421,#429,.T.);
#429 = LINE('',#430,#431);
#430 = CARTESIAN_POINT('',(2.74,0.2,4.));
#431 = VECTOR('',#432,1.);
#432 = DIRECTION('',(-0.,-0.,-1.));
#433 = PLANE('',#434);
#434 = AXIS2_PLACEMENT_3D('',#435,#436,#437);
#435 = CARTESIAN_POINT('',(2.34,0.2,4.));
#436 = DIRECTION('',(0.,-1.,0.));
#437 = DIRECTION('',(1.,0.,0.));
#438 = ADVANCED_FACE('',(#439),#457,.F.);
#439 = FACE_BOUND('',#440,.F.);
#440 = EDGE_LOOP('',(#441,#442,#443,#451));
#441 = ORIENTED_EDGE('',*,*,#301,.T.);
#442 = ORIENTED_EDGE('',*,*,#428,.T.);
#443 = ORIENTED_EDGE('',*,*,#444,.T.);
#444 = EDGE_CURVE('',#421,#445,#447,.T.);
#445 = VERTEX_POINT('',#446);
#446 = CARTESIAN_POINT('',(2.74,-0.2,-2.));
#447 = LINE('',#448,#449);
#448 = CARTESIAN_POINT('',(2.74,0.2,-2.));
#449 = VECTOR('',#450,1.);
#450 = DIRECTION('',(0.,-1.,0.));
#451 = ORIENTED_EDGE('',*,*,#452,.F.);
#452 = EDGE_CURVE('',#294,#445,#453,.T.);
#453 = LINE('',#454,#455);
#454 = CARTESIAN_POINT('',(2.74,-0.2,4.));
#455 = VECTOR('',#456,1.);
#456 = DIRECTION('',(-0.,-0.,-1.));
#457 = PLANE('',#458);
#458 = AXIS2_PLACEMENT_3D('',#459,#460,#461);
#459 = CARTESIAN_POINT('',(2.74,0.2,4.));
#460 = DIRECTION('',(-1.,0.,0.));
#461 = DIRECTION('',(0.,-1.,0.));
#462 = ADVANCED_FACE('',(#463),#481,.F.);
#463 = FACE_BOUND('',#464,.F.);
#464 = EDGE_LOOP('',(#465,#466,#467,#475));
#465 = ORIENTED_EDGE('',*,*,#293,.T.);
#466 = ORIENTED_EDGE('',*,*,#452,.T.);
#467 = ORIENTED_EDGE('',*,*,#468,.T.);
#468 = EDGE_CURVE('',#445,#469,#471,.T.);
#469 = VERTEX_POINT('',#470);
#470 = CARTESIAN_POINT('',(2.34,-0.2,-2.));
#471 = LINE('',#472,#473);
#472 = CARTESIAN_POINT('',(2.74,-0.2,-2.));
#473 = VECTOR('',#474,1.);
#474 = DIRECTION('',(-1.,0.,0.));
#475 = ORIENTED_EDGE('',*,*,#476,.F.);
#476 = EDGE_CURVE('',#286,#469,#477,.T.);
#477 = LINE('',#478,#479);
#478 = CARTESIAN_POINT('',(2.34,-0.2,4.));
#479 = VECTOR('',#480,1.);
#480 = DIRECTION('',(-0.,-0.,-1.));
#481 = PLANE('',#482);
#482 = AXIS2_PLACEMENT_3D('',#483,#484,#485);
#483 = CARTESIAN_POINT('',(2.74,-0.2,4.));
#484 = DIRECTION('',(0.,1.,0.));
#485 = DIRECTION('',(-1.,0.,0.));
#486 = ADVANCED_FACE('',(#487),#498,.F.);
#487 = FACE_BOUND('',#488,.F.);
#488 = EDGE_LOOP('',(#489,#490,#491,#497));
#489 = ORIENTED_EDGE('',*,*,#285,.T.);
#490 = ORIENTED_EDGE('',*,*,#476,.T.);
#491 = ORIENTED_EDGE('',*,*,#492,.T.);
#492 = EDGE_CURVE('',#469,#413,#493,.T.);
#493 = LINE('',#494,#495);
#494 = CARTESIAN_POINT('',(2.34,-0.2,-2.));
#495 = VECTOR('',#496,1.);
#496 = DIRECTION('',(0.,1.,0.));
#497 = ORIENTED_EDGE('',*,*,#412,.F.);
#498 = PLANE('',#499);
#499 = AXIS2_PLACEMENT_3D('',#500,#501,#502);
#500 = CARTESIAN_POINT('',(2.34,-0.2,4.));
#501 = DIRECTION('',(1.,0.,0.));
#502 = DIRECTION('',(-0.,1.,0.));
#503 = ADVANCED_FACE('',(#504),#510,.F.);
#504 = FACE_BOUND('',#505,.T.);
#505 = EDGE_LOOP('',(#506,#507,#508,#509));
#506 = ORIENTED_EDGE('',*,*,#348,.T.);
#507 = ORIENTED_EDGE('',*,*,#372,.T.);
#508 = ORIENTED_EDGE('',*,*,#396,.T.);
#509 = ORIENTED_EDGE('',*,*,#324,.T.);
#510 = PLANE('',#511);
#511 = AXIS2_PLACEMENT_3D('',#512,#513,#514);
#512 = CARTESIAN_POINT('',(-0.2,0.2,-2.));
#513 = DIRECTION('',(0.,0.,1.));
#514 = DIRECTION('',(1.,0.,-0.));
#515 = ADVANCED_FACE('',(#516),#522,.F.);
#516 = FACE_BOUND('',#517,.T.);
#517 = EDGE_LOOP('',(#518,#519,#520,#521));
#518 = ORIENTED_EDGE('',*,*,#420,.T.);
#519 = ORIENTED_EDGE('',*,*,#444,.T.);
#520 = ORIENTED_EDGE('',*,*,#468,.T.);
#521 = ORIENTED_EDGE('',*,*,#492,.T.);
#522 = PLANE('',#523);
#523 = AXIS2_PLACEMENT_3D('',#524,#525,#526);
#524 = CARTESIAN_POINT('',(2.34,0.2,-2.));
#525 = DIRECTION('',(0.,0.,1.));
#526 = DIRECTION('',(1.,0.,-0.));
#527 = ( GEOMETRIC_REPRESENTATION_CONTEXT(3) 
GLOBAL_UNCERTAINTY_ASSIGNED_CONTEXT((#531)) GLOBAL_UNIT_ASSIGNED_CONTEXT
((#528,#529,#530)) REPRESENTATION_CONTEXT('Context #1',
  '3D Context with UNIT and UNCERTAINTY') );
#528 = ( LENGTH_UNIT() NAMED_UNIT(*) SI_UNIT(.MILLI.,.METRE.) );
#529 = ( NAMED_UNIT(*) PLANE_ANGLE_UNIT() SI_UNIT($,.RADIAN.) );
#530 = ( NAMED_UNIT(*) SI_UNIT($,.STERADIAN.) SOLID_ANGLE_UNIT() );
#531 = UNCERTAINTY_MEASURE_WITH_UNIT(LENGTH_MEASURE(1.E-07),#528,
  'distance_accuracy_value','confusion accuracy');
#532 = CONTEXT_DEPENDENT_SHAPE_REPRESENTATION(#533,#535);
#533 = ( REPRESENTATION_RELATIONSHIP('','',#63,#40) 
REPRESENTATION_RELATIONSHIP_WITH_TRANSFORMATION(#534) 
SHAPE_REPRESENTATION_RELATIONSHIP() );
#534 = ITEM_DEFINED_TRANSFORMATION('','',#11,#41);
#535 = PRODUCT_DEFINITION_SHAPE('Placement','Placement of an item',#536
  );
#536 = NEXT_ASSEMBLY_USAGE_OCCURRENCE('1','=>[0:1:1:3]','',#35,#58,$);
#537 = PRODUCT_RELATED_PRODUCT_CATEGORY('part',$,(#60));
#538 = SHAPE_DEFINITION_REPRESENTATION(#539,#545);
#539 = PRODUCT_DEFINITION_SHAPE('','',#540);
#540 = PRODUCT_DEFINITION('design','',#541,#544);
#541 = PRODUCT_DEFINITION_FORMATION('','',#542);
#542 = PRODUCT('electronic_led_10_mm_green_clear_render_pad',
  'electronic_led_10_mm_green_clear_render_pad','',(#543));
#543 = PRODUCT_CONTEXT('',#2,'mechanical');
#544 = PRODUCT_DEFINITION_CONTEXT('part definition',#2,'design');
#545 = SHAPE_REPRESENTATION('',(#11,#546,#735,#924,#1016,#1108,#1200),
  #1292);
#546 = MANIFOLD_SOLID_BREP('',#547);
#547 = CLOSED_SHELL('',(#548,#588,#619,#650,#678,#706,#718));
#548 = ADVANCED_FACE('',(#549),#583,.T.);
#549 = FACE_BOUND('',#550,.T.);
#550 = EDGE_LOOP('',(#551,#561,#569,#577));
#551 = ORIENTED_EDGE('',*,*,#552,.T.);
#552 = EDGE_CURVE('',#553,#555,#557,.T.);
#553 = VERTEX_POINT('',#554);
#554 = CARTESIAN_POINT('',(-0.9,-0.9,1.51));
#555 = VERTEX_POINT('',#556);
#556 = CARTESIAN_POINT('',(-0.9,-0.9,1.55));
#557 = LINE('',#558,#559);
#558 = CARTESIAN_POINT('',(-0.9,-0.9,1.51));
#559 = VECTOR('',#560,1.);
#560 = DIRECTION('',(0.,0.,1.));
#561 = ORIENTED_EDGE('',*,*,#562,.T.);
#562 = EDGE_CURVE('',#555,#563,#565,.T.);
#563 = VERTEX_POINT('',#564);
#564 = CARTESIAN_POINT('',(-0.9,0.9,1.55));
#565 = LINE('',#566,#567);
#566 = CARTESIAN_POINT('',(-0.9,-0.9,1.55));
#567 = VECTOR('',#568,1.);
#568 = DIRECTION('',(0.,1.,0.));
#569 = ORIENTED_EDGE('',*,*,#570,.F.);
#570 = EDGE_CURVE('',#571,#563,#573,.T.);
#571 = VERTEX_POINT('',#572);
#572 = CARTESIAN_POINT('',(-0.9,0.9,1.51));
#573 = LINE('',#574,#575);
#574 = CARTESIAN_POINT('',(-0.9,0.9,1.51));
#575 = VECTOR('',#576,1.);
#576 = DIRECTION('',(0.,0.,1.));
#577 = ORIENTED_EDGE('',*,*,#578,.F.);
#578 = EDGE_CURVE('',#553,#571,#579,.T.);
#579 = LINE('',#580,#581);
#580 = CARTESIAN_POINT('',(-0.9,-0.9,1.51));
#581 = VECTOR('',#582,1.);
#582 = DIRECTION('',(0.,1.,0.));
#583 = PLANE('',#584);
#584 = AXIS2_PLACEMENT_3D('',#585,#586,#587);
#585 = CARTESIAN_POINT('',(-0.9,-0.9,1.51));
#586 = DIRECTION('',(-1.,0.,0.));
#587 = DIRECTION('',(0.,1.,0.));
#588 = ADVANCED_FACE('',(#589),#614,.T.);
#589 = FACE_BOUND('',#590,.T.);
#590 = EDGE_LOOP('',(#591,#601,#607,#608));
#591 = ORIENTED_EDGE('',*,*,#592,.T.);
#592 = EDGE_CURVE('',#593,#595,#597,.T.);
#593 = VERTEX_POINT('',#594);
#594 = CARTESIAN_POINT('',(0.9,-0.9,1.51));
#595 = VERTEX_POINT('',#596);
#596 = CARTESIAN_POINT('',(0.9,-0.9,1.55));
#597 = LINE('',#598,#599);
#598 = CARTESIAN_POINT('',(0.9,-0.9,1.51));
#599 = VECTOR('',#600,1.);
#600 = DIRECTION('',(0.,0.,1.));
#601 = ORIENTED_EDGE('',*,*,#602,.T.);
#602 = EDGE_CURVE('',#595,#555,#603,.T.);
#603 = LINE('',#604,#605);
#604 = CARTESIAN_POINT('',(0.9,-0.9,1.55));
#605 = VECTOR('',#606,1.);
#606 = DIRECTION('',(-1.,0.,0.));
#607 = ORIENTED_EDGE('',*,*,#552,.F.);
#608 = ORIENTED_EDGE('',*,*,#609,.F.);
#609 = EDGE_CURVE('',#593,#553,#610,.T.);
#610 = LINE('',#611,#612);
#611 = CARTESIAN_POINT('',(0.9,-0.9,1.51));
#612 = VECTOR('',#613,1.);
#613 = DIRECTION('',(-1.,0.,0.));
#614 = PLANE('',#615);
#615 = AXIS2_PLACEMENT_3D('',#616,#617,#618);
#616 = CARTESIAN_POINT('',(0.9,-0.9,1.51));
#617 = DIRECTION('',(0.,-1.,0.));
#618 = DIRECTION('',(-1.,0.,0.));
#619 = ADVANCED_FACE('',(#620),#645,.T.);
#620 = FACE_BOUND('',#621,.T.);
#621 = EDGE_LOOP('',(#622,#623,#631,#639));
#622 = ORIENTED_EDGE('',*,*,#570,.T.);
#623 = ORIENTED_EDGE('',*,*,#624,.T.);
#624 = EDGE_CURVE('',#563,#625,#627,.T.);
#625 = VERTEX_POINT('',#626);
#626 = CARTESIAN_POINT('',(0.9,0.9,1.55));
#627 = LINE('',#628,#629);
#628 = CARTESIAN_POINT('',(-0.9,0.9,1.55));
#629 = VECTOR('',#630,1.);
#630 = DIRECTION('',(1.,0.,0.));
#631 = ORIENTED_EDGE('',*,*,#632,.F.);
#632 = EDGE_CURVE('',#633,#625,#635,.T.);
#633 = VERTEX_POINT('',#634);
#634 = CARTESIAN_POINT('',(0.9,0.9,1.51));
#635 = LINE('',#636,#637);
#636 = CARTESIAN_POINT('',(0.9,0.9,1.51));
#637 = VECTOR('',#638,1.);
#638 = DIRECTION('',(0.,0.,1.));
#639 = ORIENTED_EDGE('',*,*,#640,.F.);
#640 = EDGE_CURVE('',#571,#633,#641,.T.);
#641 = LINE('',#642,#643);
#642 = CARTESIAN_POINT('',(-0.9,0.9,1.51));
#643 = VECTOR('',#644,1.);
#644 = DIRECTION('',(1.,0.,0.));
#645 = PLANE('',#646);
#646 = AXIS2_PLACEMENT_3D('',#647,#648,#649);
#647 = CARTESIAN_POINT('',(-0.9,0.9,1.51));
#648 = DIRECTION('',(0.,1.,0.));
#649 = DIRECTION('',(1.,0.,0.));
#650 = ADVANCED_FACE('',(#651,#662),#673,.F.);
#651 = FACE_BOUND('',#652,.F.);
#652 = EDGE_LOOP('',(#653,#654,#655,#661));
#653 = ORIENTED_EDGE('',*,*,#578,.F.);
#654 = ORIENTED_EDGE('',*,*,#609,.F.);
#655 = ORIENTED_EDGE('',*,*,#656,.F.);
#656 = EDGE_CURVE('',#633,#593,#657,.T.);
#657 = LINE('',#658,#659);
#658 = CARTESIAN_POINT('',(0.9,0.9,1.51));
#659 = VECTOR('',#660,1.);
#660 = DIRECTION('',(0.,-1.,0.));
#661 = ORIENTED_EDGE('',*,*,#640,.F.);
#662 = FACE_BOUND('',#663,.F.);
#663 = EDGE_LOOP('',(#664));
#664 = ORIENTED_EDGE('',*,*,#665,.T.);
#665 = EDGE_CURVE('',#666,#666,#668,.T.);
#666 = VERTEX_POINT('',#667);
#667 = CARTESIAN_POINT('',(-6.162975822039E-33,-0.425,1.51));
#668 = CIRCLE('',#669,0.425);
#669 = AXIS2_PLACEMENT_3D('',#670,#671,#672);
#670 = CARTESIAN_POINT('',(-4.163336342344E-17,6.938893903907E-17,1.51)
  );
#671 = DIRECTION('',(-0.,0.,-1.));
#672 = DIRECTION('',(9.796085511398E-17,-1.,-0.));
#673 = PLANE('',#674);
#674 = AXIS2_PLACEMENT_3D('',#675,#676,#677);
#675 = CARTESIAN_POINT('',(0.,0.,1.51));
#676 = DIRECTION('',(0.,0.,1.));
#677 = DIRECTION('',(1.,0.,-0.));
#678 = ADVANCED_FACE('',(#679,#690),#701,.T.);
#679 = FACE_BOUND('',#680,.T.);
#680 = EDGE_LOOP('',(#681,#682,#683,#689));
#681 = ORIENTED_EDGE('',*,*,#562,.F.);
#682 = ORIENTED_EDGE('',*,*,#602,.F.);
#683 = ORIENTED_EDGE('',*,*,#684,.F.);
#684 = EDGE_CURVE('',#625,#595,#685,.T.);
#685 = LINE('',#686,#687);
#686 = CARTESIAN_POINT('',(0.9,0.9,1.55));
#687 = VECTOR('',#688,1.);
#688 = DIRECTION('',(0.,-1.,0.));
#689 = ORIENTED_EDGE('',*,*,#624,.F.);
#690 = FACE_BOUND('',#691,.T.);
#691 = EDGE_LOOP('',(#692));
#692 = ORIENTED_EDGE('',*,*,#693,.T.);
#693 = EDGE_CURVE('',#694,#694,#696,.T.);
#694 = VERTEX_POINT('',#695);
#695 = CARTESIAN_POINT('',(-6.162975822039E-33,-0.425,1.55));
#696 = CIRCLE('',#697,0.425);
#697 = AXIS2_PLACEMENT_3D('',#698,#699,#700);
#698 = CARTESIAN_POINT('',(-4.163336342344E-17,6.938893903907E-17,1.55)
  );
#699 = DIRECTION('',(-0.,0.,-1.));
#700 = DIRECTION('',(9.796085511398E-17,-1.,-0.));
#701 = PLANE('',#702);
#702 = AXIS2_PLACEMENT_3D('',#703,#704,#705);
#703 = CARTESIAN_POINT('',(0.,0.,1.55));
#704 = DIRECTION('',(0.,0.,1.));
#705 = DIRECTION('',(1.,0.,-0.));
#706 = ADVANCED_FACE('',(#707),#713,.T.);
#707 = FACE_BOUND('',#708,.T.);
#708 = EDGE_LOOP('',(#709,#710,#711,#712));
#709 = ORIENTED_EDGE('',*,*,#632,.T.);
#710 = ORIENTED_EDGE('',*,*,#684,.T.);
#711 = ORIENTED_EDGE('',*,*,#592,.F.);
#712 = ORIENTED_EDGE('',*,*,#656,.F.);
#713 = PLANE('',#714);
#714 = AXIS2_PLACEMENT_3D('',#715,#716,#717);
#715 = CARTESIAN_POINT('',(0.9,0.9,1.51));
#716 = DIRECTION('',(1.,0.,-0.));
#717 = DIRECTION('',(0.,-1.,0.));
#718 = ADVANCED_FACE('',(#719),#730,.F.);
#719 = FACE_BOUND('',#720,.T.);
#720 = EDGE_LOOP('',(#721,#722,#728,#729));
#721 = ORIENTED_EDGE('',*,*,#665,.T.);
#722 = ORIENTED_EDGE('',*,*,#723,.T.);
#723 = EDGE_CURVE('',#666,#694,#724,.T.);
#724 = LINE('',#725,#726);
#725 = CARTESIAN_POINT('',(-6.162975822039E-33,-0.425,-4.6E-02));
#726 = VECTOR('',#727,1.);
#727 = DIRECTION('',(0.,0.,1.));
#728 = ORIENTED_EDGE('',*,*,#693,.F.);
#729 = ORIENTED_EDGE('',*,*,#723,.F.);
#730 = CYLINDRICAL_SURFACE('',#731,0.425);
#731 = AXIS2_PLACEMENT_3D('',#732,#733,#734);
#732 = CARTESIAN_POINT('',(-4.163336342344E-17,6.938893903907E-17,
    -4.6E-02));
#733 = DIRECTION('',(-0.,0.,-1.));
#734 = DIRECTION('',(9.796085511398E-17,-1.,-0.));
#735 = MANIFOLD_SOLID_BREP('',#736);
#736 = CLOSED_SHELL('',(#737,#777,#808,#839,#867,#895,#907));
#737 = ADVANCED_FACE('',(#738),#772,.F.);
#738 = FACE_BOUND('',#739,.F.);
#739 = EDGE_LOOP('',(#740,#750,#758,#766));
#740 = ORIENTED_EDGE('',*,*,#741,.T.);
#741 = EDGE_CURVE('',#742,#744,#746,.T.);
#742 = VERTEX_POINT('',#743);
#743 = CARTESIAN_POINT('',(-0.9,-0.9,0.));
#744 = VERTEX_POINT('',#745);
#745 = CARTESIAN_POINT('',(-0.9,-0.9,-4.E-02));
#746 = LINE('',#747,#748);
#747 = CARTESIAN_POINT('',(-0.9,-0.9,0.));
#748 = VECTOR('',#749,1.);
#749 = DIRECTION('',(0.,0.,-1.));
#750 = ORIENTED_EDGE('',*,*,#751,.T.);
#751 = EDGE_CURVE('',#744,#752,#754,.T.);
#752 = VERTEX_POINT('',#753);
#753 = CARTESIAN_POINT('',(-0.9,0.9,-4.E-02));
#754 = LINE('',#755,#756);
#755 = CARTESIAN_POINT('',(-0.9,-0.9,-4.E-02));
#756 = VECTOR('',#757,1.);
#757 = DIRECTION('',(0.,1.,0.));
#758 = ORIENTED_EDGE('',*,*,#759,.F.);
#759 = EDGE_CURVE('',#760,#752,#762,.T.);
#760 = VERTEX_POINT('',#761);
#761 = CARTESIAN_POINT('',(-0.9,0.9,0.));
#762 = LINE('',#763,#764);
#763 = CARTESIAN_POINT('',(-0.9,0.9,0.));
#764 = VECTOR('',#765,1.);
#765 = DIRECTION('',(0.,0.,-1.));
#766 = ORIENTED_EDGE('',*,*,#767,.F.);
#767 = EDGE_CURVE('',#742,#760,#768,.T.);
#768 = LINE('',#769,#770);
#769 = CARTESIAN_POINT('',(-0.9,-0.9,0.));
#770 = VECTOR('',#771,1.);
#771 = DIRECTION('',(0.,1.,0.));
#772 = PLANE('',#773);
#773 = AXIS2_PLACEMENT_3D('',#774,#775,#776);
#774 = CARTESIAN_POINT('',(-0.9,-0.9,0.));
#775 = DIRECTION('',(1.,-0.,0.));
#776 = DIRECTION('',(0.,1.,0.));
#777 = ADVANCED_FACE('',(#778),#803,.F.);
#778 = FACE_BOUND('',#779,.F.);
#779 = EDGE_LOOP('',(#780,#790,#796,#797));
#780 = ORIENTED_EDGE('',*,*,#781,.T.);
#781 = EDGE_CURVE('',#782,#784,#786,.T.);
#782 = VERTEX_POINT('',#783);
#783 = CARTESIAN_POINT('',(0.9,-0.9,0.));
#784 = VERTEX_POINT('',#785);
#785 = CARTESIAN_POINT('',(0.9,-0.9,-4.E-02));
#786 = LINE('',#787,#788);
#787 = CARTESIAN_POINT('',(0.9,-0.9,0.));
#788 = VECTOR('',#789,1.);
#789 = DIRECTION('',(0.,0.,-1.));
#790 = ORIENTED_EDGE('',*,*,#791,.T.);
#791 = EDGE_CURVE('',#784,#744,#792,.T.);
#792 = LINE('',#793,#794);
#793 = CARTESIAN_POINT('',(0.9,-0.9,-4.E-02));
#794 = VECTOR('',#795,1.);
#795 = DIRECTION('',(-1.,0.,0.));
#796 = ORIENTED_EDGE('',*,*,#741,.F.);
#797 = ORIENTED_EDGE('',*,*,#798,.F.);
#798 = EDGE_CURVE('',#782,#742,#799,.T.);
#799 = LINE('',#800,#801);
#800 = CARTESIAN_POINT('',(0.9,-0.9,0.));
#801 = VECTOR('',#802,1.);
#802 = DIRECTION('',(-1.,0.,0.));
#803 = PLANE('',#804);
#804 = AXIS2_PLACEMENT_3D('',#805,#806,#807);
#805 = CARTESIAN_POINT('',(0.9,-0.9,0.));
#806 = DIRECTION('',(0.,1.,0.));
#807 = DIRECTION('',(-1.,0.,0.));
#808 = ADVANCED_FACE('',(#809),#834,.F.);
#809 = FACE_BOUND('',#810,.F.);
#810 = EDGE_LOOP('',(#811,#812,#820,#828));
#811 = ORIENTED_EDGE('',*,*,#759,.T.);
#812 = ORIENTED_EDGE('',*,*,#813,.T.);
#813 = EDGE_CURVE('',#752,#814,#816,.T.);
#814 = VERTEX_POINT('',#815);
#815 = CARTESIAN_POINT('',(0.9,0.9,-4.E-02));
#816 = LINE('',#817,#818);
#817 = CARTESIAN_POINT('',(-0.9,0.9,-4.E-02));
#818 = VECTOR('',#819,1.);
#819 = DIRECTION('',(1.,0.,0.));
#820 = ORIENTED_EDGE('',*,*,#821,.F.);
#821 = EDGE_CURVE('',#822,#814,#824,.T.);
#822 = VERTEX_POINT('',#823);
#823 = CARTESIAN_POINT('',(0.9,0.9,0.));
#824 = LINE('',#825,#826);
#825 = CARTESIAN_POINT('',(0.9,0.9,0.));
#826 = VECTOR('',#827,1.);
#827 = DIRECTION('',(0.,0.,-1.));
#828 = ORIENTED_EDGE('',*,*,#829,.F.);
#829 = EDGE_CURVE('',#760,#822,#830,.T.);
#830 = LINE('',#831,#832);
#831 = CARTESIAN_POINT('',(-0.9,0.9,0.));
#832 = VECTOR('',#833,1.);
#833 = DIRECTION('',(1.,0.,0.));
#834 = PLANE('',#835);
#835 = AXIS2_PLACEMENT_3D('',#836,#837,#838);
#836 = CARTESIAN_POINT('',(-0.9,0.9,0.));
#837 = DIRECTION('',(0.,-1.,0.));
#838 = DIRECTION('',(1.,0.,0.));
#839 = ADVANCED_FACE('',(#840,#851),#862,.F.);
#840 = FACE_BOUND('',#841,.F.);
#841 = EDGE_LOOP('',(#842,#843,#844,#850));
#842 = ORIENTED_EDGE('',*,*,#767,.T.);
#843 = ORIENTED_EDGE('',*,*,#829,.T.);
#844 = ORIENTED_EDGE('',*,*,#845,.T.);
#845 = EDGE_CURVE('',#822,#782,#846,.T.);
#846 = LINE('',#847,#848);
#847 = CARTESIAN_POINT('',(0.9,0.9,0.));
#848 = VECTOR('',#849,1.);
#849 = DIRECTION('',(0.,-1.,0.));
#850 = ORIENTED_EDGE('',*,*,#798,.T.);
#851 = FACE_BOUND('',#852,.F.);
#852 = EDGE_LOOP('',(#853));
#853 = ORIENTED_EDGE('',*,*,#854,.F.);
#854 = EDGE_CURVE('',#855,#855,#857,.T.);
#855 = VERTEX_POINT('',#856);
#856 = CARTESIAN_POINT('',(-6.162975822039E-33,-0.425,0.));
#857 = CIRCLE('',#858,0.425);
#858 = AXIS2_PLACEMENT_3D('',#859,#860,#861);
#859 = CARTESIAN_POINT('',(-4.163336342344E-17,6.938893903907E-17,0.));
#860 = DIRECTION('',(-0.,0.,-1.));
#861 = DIRECTION('',(9.796085511398E-17,-1.,-0.));
#862 = PLANE('',#863);
#863 = AXIS2_PLACEMENT_3D('',#864,#865,#866);
#864 = CARTESIAN_POINT('',(0.,0.,0.));
#865 = DIRECTION('',(-0.,-0.,-1.));
#866 = DIRECTION('',(-1.,0.,0.));
#867 = ADVANCED_FACE('',(#868,#879),#890,.T.);
#868 = FACE_BOUND('',#869,.T.);
#869 = EDGE_LOOP('',(#870,#871,#872,#878));
#870 = ORIENTED_EDGE('',*,*,#751,.T.);
#871 = ORIENTED_EDGE('',*,*,#813,.T.);
#872 = ORIENTED_EDGE('',*,*,#873,.T.);
#873 = EDGE_CURVE('',#814,#784,#874,.T.);
#874 = LINE('',#875,#876);
#875 = CARTESIAN_POINT('',(0.9,0.9,-4.E-02));
#876 = VECTOR('',#877,1.);
#877 = DIRECTION('',(0.,-1.,0.));
#878 = ORIENTED_EDGE('',*,*,#791,.T.);
#879 = FACE_BOUND('',#880,.T.);
#880 = EDGE_LOOP('',(#881));
#881 = ORIENTED_EDGE('',*,*,#882,.F.);
#882 = EDGE_CURVE('',#883,#883,#885,.T.);
#883 = VERTEX_POINT('',#884);
#884 = CARTESIAN_POINT('',(-6.162975822039E-33,-0.425,-4.E-02));
#885 = CIRCLE('',#886,0.425);
#886 = AXIS2_PLACEMENT_3D('',#887,#888,#889);
#887 = CARTESIAN_POINT('',(-4.163336342344E-17,6.938893903907E-17,
    -4.E-02));
#888 = DIRECTION('',(-0.,0.,-1.));
#889 = DIRECTION('',(9.796085511398E-17,-1.,-0.));
#890 = PLANE('',#891);
#891 = AXIS2_PLACEMENT_3D('',#892,#893,#894);
#892 = CARTESIAN_POINT('',(0.,0.,-4.E-02));
#893 = DIRECTION('',(-0.,-0.,-1.));
#894 = DIRECTION('',(-1.,0.,0.));
#895 = ADVANCED_FACE('',(#896),#902,.F.);
#896 = FACE_BOUND('',#897,.F.);
#897 = EDGE_LOOP('',(#898,#899,#900,#901));
#898 = ORIENTED_EDGE('',*,*,#821,.T.);
#899 = ORIENTED_EDGE('',*,*,#873,.T.);
#900 = ORIENTED_EDGE('',*,*,#781,.F.);
#901 = ORIENTED_EDGE('',*,*,#845,.F.);
#902 = PLANE('',#903);
#903 = AXIS2_PLACEMENT_3D('',#904,#905,#906);
#904 = CARTESIAN_POINT('',(0.9,0.9,0.));
#905 = DIRECTION('',(-1.,-0.,-0.));
#906 = DIRECTION('',(0.,-1.,0.));
#907 = ADVANCED_FACE('',(#908),#919,.F.);
#908 = FACE_BOUND('',#909,.T.);
#909 = EDGE_LOOP('',(#910,#911,#917,#918));
#910 = ORIENTED_EDGE('',*,*,#882,.T.);
#911 = ORIENTED_EDGE('',*,*,#912,.T.);
#912 = EDGE_CURVE('',#883,#855,#913,.T.);
#913 = LINE('',#914,#915);
#914 = CARTESIAN_POINT('',(-6.162975822039E-33,-0.425,-4.6E-02));
#915 = VECTOR('',#916,1.);
#916 = DIRECTION('',(0.,0.,1.));
#917 = ORIENTED_EDGE('',*,*,#854,.F.);
#918 = ORIENTED_EDGE('',*,*,#912,.F.);
#919 = CYLINDRICAL_SURFACE('',#920,0.425);
#920 = AXIS2_PLACEMENT_3D('',#921,#922,#923);
#921 = CARTESIAN_POINT('',(-4.163336342344E-17,6.938893903907E-17,
    -4.6E-02));
#922 = DIRECTION('',(-0.,0.,-1.));
#923 = DIRECTION('',(9.796085511398E-17,-1.,-0.));
#924 = MANIFOLD_SOLID_BREP('',#925);
#925 = CLOSED_SHELL('',(#926,#959,#979,#999));
#926 = ADVANCED_FACE('',(#927),#954,.T.);
#927 = FACE_BOUND('',#928,.F.);
#928 = EDGE_LOOP('',(#929,#939,#946,#947));
#929 = ORIENTED_EDGE('',*,*,#930,.T.);
#930 = EDGE_CURVE('',#931,#933,#935,.T.);
#931 = VERTEX_POINT('',#932);
#932 = CARTESIAN_POINT('',(0.,-0.45,-4.E-02));
#933 = VERTEX_POINT('',#934);
#934 = CARTESIAN_POINT('',(0.,-0.45,1.55));
#935 = LINE('',#936,#937);
#936 = CARTESIAN_POINT('',(0.,-0.45,-4.E-02));
#937 = VECTOR('',#938,1.);
#938 = DIRECTION('',(0.,0.,1.));
#939 = ORIENTED_EDGE('',*,*,#940,.T.);
#940 = EDGE_CURVE('',#933,#933,#941,.T.);
#941 = CIRCLE('',#942,0.45);
#942 = AXIS2_PLACEMENT_3D('',#943,#944,#945);
#943 = CARTESIAN_POINT('',(-4.163336342344E-17,6.938893903907E-17,1.55)
  );
#944 = DIRECTION('',(0.,-0.,1.));
#945 = DIRECTION('',(9.251858538543E-17,-1.,-0.));
#946 = ORIENTED_EDGE('',*,*,#930,.F.);
#947 = ORIENTED_EDGE('',*,*,#948,.F.);
#948 = EDGE_CURVE('',#931,#931,#949,.T.);
#949 = CIRCLE('',#950,0.45);
#950 = AXIS2_PLACEMENT_3D('',#951,#952,#953);
#951 = CARTESIAN_POINT('',(-4.163336342344E-17,6.938893903907E-17,
    -4.E-02));
#952 = DIRECTION('',(0.,-0.,1.));
#953 = DIRECTION('',(9.251858538543E-17,-1.,-0.));
#954 = CYLINDRICAL_SURFACE('',#955,0.45);
#955 = AXIS2_PLACEMENT_3D('',#956,#957,#958);
#956 = CARTESIAN_POINT('',(-4.163336342344E-17,6.938893903907E-17,
    -4.E-02));
#957 = DIRECTION('',(-0.,0.,-1.));
#958 = DIRECTION('',(9.251858538543E-17,-1.,-0.));
#959 = ADVANCED_FACE('',(#960,#963),#974,.F.);
#960 = FACE_BOUND('',#961,.F.);
#961 = EDGE_LOOP('',(#962));
#962 = ORIENTED_EDGE('',*,*,#948,.T.);
#963 = FACE_BOUND('',#964,.F.);
#964 = EDGE_LOOP('',(#965));
#965 = ORIENTED_EDGE('',*,*,#966,.T.);
#966 = EDGE_CURVE('',#967,#967,#969,.T.);
#967 = VERTEX_POINT('',#968);
#968 = CARTESIAN_POINT('',(-6.162975822039E-33,-0.425,-4.E-02));
#969 = CIRCLE('',#970,0.425);
#970 = AXIS2_PLACEMENT_3D('',#971,#972,#973);
#971 = CARTESIAN_POINT('',(-4.163336342344E-17,6.938893903907E-17,
    -4.E-02));
#972 = DIRECTION('',(-0.,0.,-1.));
#973 = DIRECTION('',(9.796085511398E-17,-1.,-0.));
#974 = PLANE('',#975);
#975 = AXIS2_PLACEMENT_3D('',#976,#977,#978);
#976 = CARTESIAN_POINT('',(0.,-0.45,-4.E-02));
#977 = DIRECTION('',(0.,0.,1.));
#978 = DIRECTION('',(1.,0.,-0.));
#979 = ADVANCED_FACE('',(#980,#983),#994,.T.);
#980 = FACE_BOUND('',#981,.T.);
#981 = EDGE_LOOP('',(#982));
#982 = ORIENTED_EDGE('',*,*,#940,.T.);
#983 = FACE_BOUND('',#984,.T.);
#984 = EDGE_LOOP('',(#985));
#985 = ORIENTED_EDGE('',*,*,#986,.T.);
#986 = EDGE_CURVE('',#987,#987,#989,.T.);
#987 = VERTEX_POINT('',#988);
#988 = CARTESIAN_POINT('',(-6.162975822039E-33,-0.425,1.55));
#989 = CIRCLE('',#990,0.425);
#990 = AXIS2_PLACEMENT_3D('',#991,#992,#993);
#991 = CARTESIAN_POINT('',(-4.163336342344E-17,6.938893903907E-17,1.55)
  );
#992 = DIRECTION('',(-0.,0.,-1.));
#993 = DIRECTION('',(9.796085511398E-17,-1.,-0.));
#994 = PLANE('',#995);
#995 = AXIS2_PLACEMENT_3D('',#996,#997,#998);
#996 = CARTESIAN_POINT('',(0.,-0.45,1.55));
#997 = DIRECTION('',(0.,0.,1.));
#998 = DIRECTION('',(1.,0.,-0.));
#999 = ADVANCED_FACE('',(#1000),#1011,.F.);
#1000 = FACE_BOUND('',#1001,.T.);
#1001 = EDGE_LOOP('',(#1002,#1003,#1009,#1010));
#1002 = ORIENTED_EDGE('',*,*,#966,.T.);
#1003 = ORIENTED_EDGE('',*,*,#1004,.T.);
#1004 = EDGE_CURVE('',#967,#987,#1005,.T.);
#1005 = LINE('',#1006,#1007);
#1006 = CARTESIAN_POINT('',(-6.162975822039E-33,-0.425,-4.6E-02));
#1007 = VECTOR('',#1008,1.);
#1008 = DIRECTION('',(0.,0.,1.));
#1009 = ORIENTED_EDGE('',*,*,#986,.F.);
#1010 = ORIENTED_EDGE('',*,*,#1004,.F.);
#1011 = CYLINDRICAL_SURFACE('',#1012,0.425);
#1012 = AXIS2_PLACEMENT_3D('',#1013,#1014,#1015);
#1013 = CARTESIAN_POINT('',(-4.163336342344E-17,6.938893903907E-17,
    -4.6E-02));
#1014 = DIRECTION('',(-0.,0.,-1.));
#1015 = DIRECTION('',(9.796085511398E-17,-1.,-0.));
#1016 = MANIFOLD_SOLID_BREP('',#1017);
#1017 = CLOSED_SHELL('',(#1018,#1051,#1071,#1091));
#1018 = ADVANCED_FACE('',(#1019),#1046,.T.);
#1019 = FACE_BOUND('',#1020,.F.);
#1020 = EDGE_LOOP('',(#1021,#1031,#1038,#1039));
#1021 = ORIENTED_EDGE('',*,*,#1022,.T.);
#1022 = EDGE_CURVE('',#1023,#1025,#1027,.T.);
#1023 = VERTEX_POINT('',#1024);
#1024 = CARTESIAN_POINT('',(3.439999,0.,1.51));
#1025 = VERTEX_POINT('',#1026);
#1026 = CARTESIAN_POINT('',(3.439999,0.,1.55));
#1027 = LINE('',#1028,#1029);
#1028 = CARTESIAN_POINT('',(3.439999,0.,1.51));
#1029 = VECTOR('',#1030,1.);
#1030 = DIRECTION('',(0.,0.,1.));
#1031 = ORIENTED_EDGE('',*,*,#1032,.T.);
#1032 = EDGE_CURVE('',#1025,#1025,#1033,.T.);
#1033 = CIRCLE('',#1034,0.899999);
#1034 = AXIS2_PLACEMENT_3D('',#1035,#1036,#1037);
#1035 = CARTESIAN_POINT('',(2.54,0.,1.55));
#1036 = DIRECTION('',(0.,0.,1.));
#1037 = DIRECTION('',(1.,0.,-0.));
#1038 = ORIENTED_EDGE('',*,*,#1022,.F.);
#1039 = ORIENTED_EDGE('',*,*,#1040,.F.);
#1040 = EDGE_CURVE('',#1023,#1023,#1041,.T.);
#1041 = CIRCLE('',#1042,0.899999);
#1042 = AXIS2_PLACEMENT_3D('',#1043,#1044,#1045);
#1043 = CARTESIAN_POINT('',(2.54,-0.,1.51));
#1044 = DIRECTION('',(0.,0.,1.));
#1045 = DIRECTION('',(1.,0.,-0.));
#1046 = CYLINDRICAL_SURFACE('',#1047,0.899999);
#1047 = AXIS2_PLACEMENT_3D('',#1048,#1049,#1050);
#1048 = CARTESIAN_POINT('',(2.54,-0.,1.51));
#1049 = DIRECTION('',(-0.,-0.,-1.));
#1050 = DIRECTION('',(1.,0.,-0.));
#1051 = ADVANCED_FACE('',(#1052,#1055),#1066,.F.);
#1052 = FACE_BOUND('',#1053,.F.);
#1053 = EDGE_LOOP('',(#1054));
#1054 = ORIENTED_EDGE('',*,*,#1040,.T.);
#1055 = FACE_BOUND('',#1056,.F.);
#1056 = EDGE_LOOP('',(#1057));
#1057 = ORIENTED_EDGE('',*,*,#1058,.T.);
#1058 = EDGE_CURVE('',#1059,#1059,#1061,.T.);
#1059 = VERTEX_POINT('',#1060);
#1060 = CARTESIAN_POINT('',(2.54,-0.425,1.51));
#1061 = CIRCLE('',#1062,0.425);
#1062 = AXIS2_PLACEMENT_3D('',#1063,#1064,#1065);
#1063 = CARTESIAN_POINT('',(2.54,-6.938893903907E-17,1.51));
#1064 = DIRECTION('',(-0.,0.,-1.));
#1065 = DIRECTION('',(-0.,-1.,0.));
#1066 = PLANE('',#1067);
#1067 = AXIS2_PLACEMENT_3D('',#1068,#1069,#1070);
#1068 = CARTESIAN_POINT('',(0.,0.,1.51));
#1069 = DIRECTION('',(0.,0.,1.));
#1070 = DIRECTION('',(1.,0.,-0.));
#1071 = ADVANCED_FACE('',(#1072,#1075),#1086,.T.);
#1072 = FACE_BOUND('',#1073,.T.);
#1073 = EDGE_LOOP('',(#1074));
#1074 = ORIENTED_EDGE('',*,*,#1032,.T.);
#1075 = FACE_BOUND('',#1076,.T.);
#1076 = EDGE_LOOP('',(#1077));
#1077 = ORIENTED_EDGE('',*,*,#1078,.T.);
#1078 = EDGE_CURVE('',#1079,#1079,#1081,.T.);
#1079 = VERTEX_POINT('',#1080);
#1080 = CARTESIAN_POINT('',(2.54,-0.425,1.55));
#1081 = CIRCLE('',#1082,0.425);
#1082 = AXIS2_PLACEMENT_3D('',#1083,#1084,#1085);
#1083 = CARTESIAN_POINT('',(2.54,-6.938893903907E-17,1.55));
#1084 = DIRECTION('',(-0.,0.,-1.));
#1085 = DIRECTION('',(-0.,-1.,0.));
#1086 = PLANE('',#1087);
#1087 = AXIS2_PLACEMENT_3D('',#1088,#1089,#1090);
#1088 = CARTESIAN_POINT('',(0.,0.,1.55));
#1089 = DIRECTION('',(0.,0.,1.));
#1090 = DIRECTION('',(1.,0.,-0.));
#1091 = ADVANCED_FACE('',(#1092),#1103,.F.);
#1092 = FACE_BOUND('',#1093,.T.);
#1093 = EDGE_LOOP('',(#1094,#1095,#1101,#1102));
#1094 = ORIENTED_EDGE('',*,*,#1058,.T.);
#1095 = ORIENTED_EDGE('',*,*,#1096,.T.);
#1096 = EDGE_CURVE('',#1059,#1079,#1097,.T.);
#1097 = LINE('',#1098,#1099);
#1098 = CARTESIAN_POINT('',(2.54,-0.425,-4.6E-02));
#1099 = VECTOR('',#1100,1.);
#1100 = DIRECTION('',(0.,0.,1.));
#1101 = ORIENTED_EDGE('',*,*,#1078,.F.);
#1102 = ORIENTED_EDGE('',*,*,#1096,.F.);
#1103 = CYLINDRICAL_SURFACE('',#1104,0.425);
#1104 = AXIS2_PLACEMENT_3D('',#1105,#1106,#1107);
#1105 = CARTESIAN_POINT('',(2.54,-6.938893903907E-17,-4.6E-02));
#1106 = DIRECTION('',(-0.,-0.,-1.));
#1107 = DIRECTION('',(-0.,-1.,0.));
#1108 = MANIFOLD_SOLID_BREP('',#1109);
#1109 = CLOSED_SHELL('',(#1110,#1143,#1163,#1183));
#1110 = ADVANCED_FACE('',(#1111),#1138,.T.);
#1111 = FACE_BOUND('',#1112,.T.);
#1112 = EDGE_LOOP('',(#1113,#1123,#1130,#1131));
#1113 = ORIENTED_EDGE('',*,*,#1114,.T.);
#1114 = EDGE_CURVE('',#1115,#1117,#1119,.T.);
#1115 = VERTEX_POINT('',#1116);
#1116 = CARTESIAN_POINT('',(3.439999,0.,0.));
#1117 = VERTEX_POINT('',#1118);
#1118 = CARTESIAN_POINT('',(3.439999,0.,-4.E-02));
#1119 = LINE('',#1120,#1121);
#1120 = CARTESIAN_POINT('',(3.439999,0.,0.));
#1121 = VECTOR('',#1122,1.);
#1122 = DIRECTION('',(0.,0.,-1.));
#1123 = ORIENTED_EDGE('',*,*,#1124,.T.);
#1124 = EDGE_CURVE('',#1117,#1117,#1125,.T.);
#1125 = CIRCLE('',#1126,0.899999);
#1126 = AXIS2_PLACEMENT_3D('',#1127,#1128,#1129);
#1127 = CARTESIAN_POINT('',(2.54,0.,-4.E-02));
#1128 = DIRECTION('',(0.,0.,1.));
#1129 = DIRECTION('',(1.,0.,-0.));
#1130 = ORIENTED_EDGE('',*,*,#1114,.F.);
#1131 = ORIENTED_EDGE('',*,*,#1132,.F.);
#1132 = EDGE_CURVE('',#1115,#1115,#1133,.T.);
#1133 = CIRCLE('',#1134,0.899999);
#1134 = AXIS2_PLACEMENT_3D('',#1135,#1136,#1137);
#1135 = CARTESIAN_POINT('',(2.54,-0.,0.));
#1136 = DIRECTION('',(0.,0.,1.));
#1137 = DIRECTION('',(1.,0.,-0.));
#1138 = CYLINDRICAL_SURFACE('',#1139,0.899999);
#1139 = AXIS2_PLACEMENT_3D('',#1140,#1141,#1142);
#1140 = CARTESIAN_POINT('',(2.54,-0.,0.));
#1141 = DIRECTION('',(0.,0.,1.));
#1142 = DIRECTION('',(1.,0.,-0.));
#1143 = ADVANCED_FACE('',(#1144,#1147),#1158,.F.);
#1144 = FACE_BOUND('',#1145,.F.);
#1145 = EDGE_LOOP('',(#1146));
#1146 = ORIENTED_EDGE('',*,*,#1132,.F.);
#1147 = FACE_BOUND('',#1148,.F.);
#1148 = EDGE_LOOP('',(#1149));
#1149 = ORIENTED_EDGE('',*,*,#1150,.F.);
#1150 = EDGE_CURVE('',#1151,#1151,#1153,.T.);
#1151 = VERTEX_POINT('',#1152);
#1152 = CARTESIAN_POINT('',(2.54,-0.425,0.));
#1153 = CIRCLE('',#1154,0.425);
#1154 = AXIS2_PLACEMENT_3D('',#1155,#1156,#1157);
#1155 = CARTESIAN_POINT('',(2.54,-6.938893903907E-17,0.));
#1156 = DIRECTION('',(-0.,0.,-1.));
#1157 = DIRECTION('',(-0.,-1.,0.));
#1158 = PLANE('',#1159);
#1159 = AXIS2_PLACEMENT_3D('',#1160,#1161,#1162);
#1160 = CARTESIAN_POINT('',(0.,0.,0.));
#1161 = DIRECTION('',(-0.,-0.,-1.));
#1162 = DIRECTION('',(-1.,0.,0.));
#1163 = ADVANCED_FACE('',(#1164,#1167),#1178,.T.);
#1164 = FACE_BOUND('',#1165,.T.);
#1165 = EDGE_LOOP('',(#1166));
#1166 = ORIENTED_EDGE('',*,*,#1124,.F.);
#1167 = FACE_BOUND('',#1168,.T.);
#1168 = EDGE_LOOP('',(#1169));
#1169 = ORIENTED_EDGE('',*,*,#1170,.F.);
#1170 = EDGE_CURVE('',#1171,#1171,#1173,.T.);
#1171 = VERTEX_POINT('',#1172);
#1172 = CARTESIAN_POINT('',(2.54,-0.425,-4.E-02));
#1173 = CIRCLE('',#1174,0.425);
#1174 = AXIS2_PLACEMENT_3D('',#1175,#1176,#1177);
#1175 = CARTESIAN_POINT('',(2.54,-6.938893903907E-17,-4.E-02));
#1176 = DIRECTION('',(-0.,0.,-1.));
#1177 = DIRECTION('',(-0.,-1.,0.));
#1178 = PLANE('',#1179);
#1179 = AXIS2_PLACEMENT_3D('',#1180,#1181,#1182);
#1180 = CARTESIAN_POINT('',(0.,0.,-4.E-02));
#1181 = DIRECTION('',(-0.,-0.,-1.));
#1182 = DIRECTION('',(-1.,0.,0.));
#1183 = ADVANCED_FACE('',(#1184),#1195,.F.);
#1184 = FACE_BOUND('',#1185,.T.);
#1185 = EDGE_LOOP('',(#1186,#1187,#1193,#1194));
#1186 = ORIENTED_EDGE('',*,*,#1170,.T.);
#1187 = ORIENTED_EDGE('',*,*,#1188,.T.);
#1188 = EDGE_CURVE('',#1171,#1151,#1189,.T.);
#1189 = LINE('',#1190,#1191);
#1190 = CARTESIAN_POINT('',(2.54,-0.425,-4.6E-02));
#1191 = VECTOR('',#1192,1.);
#1192 = DIRECTION('',(0.,0.,1.));
#1193 = ORIENTED_EDGE('',*,*,#1150,.F.);
#1194 = ORIENTED_EDGE('',*,*,#1188,.F.);
#1195 = CYLINDRICAL_SURFACE('',#1196,0.425);
#1196 = AXIS2_PLACEMENT_3D('',#1197,#1198,#1199);
#1197 = CARTESIAN_POINT('',(2.54,-6.938893903907E-17,-4.6E-02));
#1198 = DIRECTION('',(-0.,-0.,-1.));
#1199 = DIRECTION('',(-0.,-1.,0.));
#1200 = MANIFOLD_SOLID_BREP('',#1201);
#1201 = CLOSED_SHELL('',(#1202,#1235,#1255,#1275));
#1202 = ADVANCED_FACE('',(#1203),#1230,.T.);
#1203 = FACE_BOUND('',#1204,.F.);
#1204 = EDGE_LOOP('',(#1205,#1215,#1222,#1223));
#1205 = ORIENTED_EDGE('',*,*,#1206,.T.);
#1206 = EDGE_CURVE('',#1207,#1209,#1211,.T.);
#1207 = VERTEX_POINT('',#1208);
#1208 = CARTESIAN_POINT('',(2.54,-0.45,-4.E-02));
#1209 = VERTEX_POINT('',#1210);
#1210 = CARTESIAN_POINT('',(2.54,-0.45,1.55));
#1211 = LINE('',#1212,#1213);
#1212 = CARTESIAN_POINT('',(2.54,-0.45,-4.E-02));
#1213 = VECTOR('',#1214,1.);
#1214 = DIRECTION('',(0.,0.,1.));
#1215 = ORIENTED_EDGE('',*,*,#1216,.T.);
#1216 = EDGE_CURVE('',#1209,#1209,#1217,.T.);
#1217 = CIRCLE('',#1218,0.45);
#1218 = AXIS2_PLACEMENT_3D('',#1219,#1220,#1221);
#1219 = CARTESIAN_POINT('',(2.54,2.22044604925E-16,1.55));
#1220 = DIRECTION('',(0.,0.,1.));
#1221 = DIRECTION('',(-0.,-1.,0.));
#1222 = ORIENTED_EDGE('',*,*,#1206,.F.);
#1223 = ORIENTED_EDGE('',*,*,#1224,.F.);
#1224 = EDGE_CURVE('',#1207,#1207,#1225,.T.);
#1225 = CIRCLE('',#1226,0.45);
#1226 = AXIS2_PLACEMENT_3D('',#1227,#1228,#1229);
#1227 = CARTESIAN_POINT('',(2.54,2.22044604925E-16,-4.E-02));
#1228 = DIRECTION('',(0.,0.,1.));
#1229 = DIRECTION('',(-0.,-1.,0.));
#1230 = CYLINDRICAL_SURFACE('',#1231,0.45);
#1231 = AXIS2_PLACEMENT_3D('',#1232,#1233,#1234);
#1232 = CARTESIAN_POINT('',(2.54,2.22044604925E-16,-4.E-02));
#1233 = DIRECTION('',(-0.,-0.,-1.));
#1234 = DIRECTION('',(-0.,-1.,0.));
#1235 = ADVANCED_FACE('',(#1236,#1239),#1250,.F.);
#1236 = FACE_BOUND('',#1237,.F.);
#1237 = EDGE_LOOP('',(#1238));
#1238 = ORIENTED_EDGE('',*,*,#1224,.T.);
#1239 = FACE_BOUND('',#1240,.F.);
#1240 = EDGE_LOOP('',(#1241));
#1241 = ORIENTED_EDGE('',*,*,#1242,.T.);
#1242 = EDGE_CURVE('',#1243,#1243,#1245,.T.);
#1243 = VERTEX_POINT('',#1244);
#1244 = CARTESIAN_POINT('',(2.54,-0.425,-4.E-02));
#1245 = CIRCLE('',#1246,0.425);
#1246 = AXIS2_PLACEMENT_3D('',#1247,#1248,#1249);
#1247 = CARTESIAN_POINT('',(2.54,-6.938893903907E-17,-4.E-02));
#1248 = DIRECTION('',(-0.,0.,-1.));
#1249 = DIRECTION('',(-0.,-1.,0.));
#1250 = PLANE('',#1251);
#1251 = AXIS2_PLACEMENT_3D('',#1252,#1253,#1254);
#1252 = CARTESIAN_POINT('',(2.54,-0.45,-4.E-02));
#1253 = DIRECTION('',(0.,0.,1.));
#1254 = DIRECTION('',(1.,0.,-0.));
#1255 = ADVANCED_FACE('',(#1256,#1259),#1270,.T.);
#1256 = FACE_BOUND('',#1257,.T.);
#1257 = EDGE_LOOP('',(#1258));
#1258 = ORIENTED_EDGE('',*,*,#1216,.T.);
#1259 = FACE_BOUND('',#1260,.T.);
#1260 = EDGE_LOOP('',(#1261));
#1261 = ORIENTED_EDGE('',*,*,#1262,.T.);
#1262 = EDGE_CURVE('',#1263,#1263,#1265,.T.);
#1263 = VERTEX_POINT('',#1264);
#1264 = CARTESIAN_POINT('',(2.54,-0.425,1.55));
#1265 = CIRCLE('',#1266,0.425);
#1266 = AXIS2_PLACEMENT_3D('',#1267,#1268,#1269);
#1267 = CARTESIAN_POINT('',(2.54,-6.938893903907E-17,1.55));
#1268 = DIRECTION('',(-0.,0.,-1.));
#1269 = DIRECTION('',(-0.,-1.,0.));
#1270 = PLANE('',#1271);
#1271 = AXIS2_PLACEMENT_3D('',#1272,#1273,#1274);
#1272 = CARTESIAN_POINT('',(2.54,-0.45,1.55));
#1273 = DIRECTION('',(0.,0.,1.));
#1274 = DIRECTION('',(1.,0.,-0.));
#1275 = ADVANCED_FACE('',(#1276),#1287,.F.);
#1276 = FACE_BOUND('',#1277,.T.);
#1277 = EDGE_LOOP('',(#1278,#1279,#1285,#1286));
#1278 = ORIENTED_EDGE('',*,*,#1242,.T.);
#1279 = ORIENTED_EDGE('',*,*,#1280,.T.);
#1280 = EDGE_CURVE('',#1243,#1263,#1281,.T.);
#1281 = LINE('',#1282,#1283);
#1282 = CARTESIAN_POINT('',(2.54,-0.425,-4.6E-02));
#1283 = VECTOR('',#1284,1.);
#1284 = DIRECTION('',(0.,0.,1.));
#1285 = ORIENTED_EDGE('',*,*,#1262,.F.);
#1286 = ORIENTED_EDGE('',*,*,#1280,.F.);
#1287 = CYLINDRICAL_SURFACE('',#1288,0.425);
#1288 = AXIS2_PLACEMENT_3D('',#1289,#1290,#1291);
#1289 = CARTESIAN_POINT('',(2.54,-6.938893903907E-17,-4.6E-02));
#1290 = DIRECTION('',(-0.,-0.,-1.));
#1291 = DIRECTION('',(-0.,-1.,0.));
#1292 = ( GEOMETRIC_REPRESENTATION_CONTEXT(3) 
GLOBAL_UNCERTAINTY_ASSIGNED_CONTEXT((#1296)) 
GLOBAL_UNIT_ASSIGNED_CONTEXT((#1293,#1294,#1295)) REPRESENTATION_CONTEXT
('Context #1','3D Context with UNIT and UNCERTAINTY') );
#1293 = ( LENGTH_UNIT() NAMED_UNIT(*) SI_UNIT(.MILLI.,.METRE.) );
#1294 = ( NAMED_UNIT(*) PLANE_ANGLE_UNIT() SI_UNIT($,.RADIAN.) );
#1295 = ( NAMED_UNIT(*) SI_UNIT($,.STERADIAN.) SOLID_ANGLE_UNIT() );
#1296 = UNCERTAINTY_MEASURE_WITH_UNIT(LENGTH_MEASURE(1.E-07),#1293,
  'distance_accuracy_value','confusion accuracy');
#1297 = CONTEXT_DEPENDENT_SHAPE_REPRESENTATION(#1298,#1300);
#1298 = ( REPRESENTATION_RELATIONSHIP('','',#545,#10) 
REPRESENTATION_RELATIONSHIP_WITH_TRANSFORMATION(#1299) 
SHAPE_REPRESENTATION_RELATIONSHIP() );
#1299 = ITEM_DEFINED_TRANSFORMATION('','',#11,#19);
#1300 = PRODUCT_DEFINITION_SHAPE('Placement','Placement of an item',
  #1301);
#1301 = NEXT_ASSEMBLY_USAGE_OCCURRENCE('3','=>[0:1:1:4]','',#5,#540,$);
#1302 = PRODUCT_RELATED_PRODUCT_CATEGORY('part',$,(#542));
#1303 = SHAPE_DEFINITION_REPRESENTATION(#1304,#1310);
#1304 = PRODUCT_DEFINITION_SHAPE('','',#1305);
#1305 = PRODUCT_DEFINITION('design','',#1306,#1309);
#1306 = PRODUCT_DEFINITION_FORMATION('','',#1307);
#1307 = PRODUCT('electronic_led_10_mm_green_clear_render_PCB',
  'electronic_led_10_mm_green_clear_render_PCB','',(#1308));
#1308 = PRODUCT_CONTEXT('',#2,'mechanical');
#1309 = PRODUCT_DEFINITION_CONTEXT('part definition',#2,'design');
#1310 = ADVANCED_BREP_SHAPE_REPRESENTATION('',(#11,#1311),#1539);
#1311 = MANIFOLD_SOLID_BREP('',#1312);
#1312 = CLOSED_SHELL('',(#1313,#1353,#1384,#1415,#1454,#1493,#1505,#1522
    ));
#1313 = ADVANCED_FACE('',(#1314),#1348,.T.);
#1314 = FACE_BOUND('',#1315,.T.);
#1315 = EDGE_LOOP('',(#1316,#1326,#1334,#1342));
#1316 = ORIENTED_EDGE('',*,*,#1317,.T.);
#1317 = EDGE_CURVE('',#1318,#1320,#1322,.T.);
#1318 = VERTEX_POINT('',#1319);
#1319 = CARTESIAN_POINT('',(9.08,-7.81,0.));
#1320 = VERTEX_POINT('',#1321);
#1321 = CARTESIAN_POINT('',(9.08,-7.81,1.51));
#1322 = LINE('',#1323,#1324);
#1323 = CARTESIAN_POINT('',(9.08,-7.81,0.));
#1324 = VECTOR('',#1325,1.);
#1325 = DIRECTION('',(0.,0.,1.));
#1326 = ORIENTED_EDGE('',*,*,#1327,.T.);
#1327 = EDGE_CURVE('',#1320,#1328,#1330,.T.);
#1328 = VERTEX_POINT('',#1329);
#1329 = CARTESIAN_POINT('',(-6.54,-7.81,1.51));
#1330 = LINE('',#1331,#1332);
#1331 = CARTESIAN_POINT('',(9.08,-7.81,1.51));
#1332 = VECTOR('',#1333,1.);
#1333 = DIRECTION('',(-1.,0.,0.));
#1334 = ORIENTED_EDGE('',*,*,#1335,.F.);
#1335 = EDGE_CURVE('',#1336,#1328,#1338,.T.);
#1336 = VERTEX_POINT('',#1337);
#1337 = CARTESIAN_POINT('',(-6.54,-7.81,0.));
#1338 = LINE('',#1339,#1340);
#1339 = CARTESIAN_POINT('',(-6.54,-7.81,0.));
#1340 = VECTOR('',#1341,1.);
#1341 = DIRECTION('',(0.,0.,1.));
#1342 = ORIENTED_EDGE('',*,*,#1343,.F.);
#1343 = EDGE_CURVE('',#1318,#1336,#1344,.T.);
#1344 = LINE('',#1345,#1346);
#1345 = CARTESIAN_POINT('',(9.08,-7.81,0.));
#1346 = VECTOR('',#1347,1.);
#1347 = DIRECTION('',(-1.,0.,0.));
#1348 = PLANE('',#1349);
#1349 = AXIS2_PLACEMENT_3D('',#1350,#1351,#1352);
#1350 = CARTESIAN_POINT('',(9.08,-7.81,0.));
#1351 = DIRECTION('',(0.,-1.,0.));
#1352 = DIRECTION('',(-1.,0.,0.));
#1353 = ADVANCED_FACE('',(#1354),#1379,.T.);
#1354 = FACE_BOUND('',#1355,.T.);
#1355 = EDGE_LOOP('',(#1356,#1366,#1372,#1373));
#1356 = ORIENTED_EDGE('',*,*,#1357,.T.);
#1357 = EDGE_CURVE('',#1358,#1360,#1362,.T.);
#1358 = VERTEX_POINT('',#1359);
#1359 = CARTESIAN_POINT('',(9.08,7.81,0.));
#1360 = VERTEX_POINT('',#1361);
#1361 = CARTESIAN_POINT('',(9.08,7.81,1.51));
#1362 = LINE('',#1363,#1364);
#1363 = CARTESIAN_POINT('',(9.08,7.81,0.));
#1364 = VECTOR('',#1365,1.);
#1365 = DIRECTION('',(0.,0.,1.));
#1366 = ORIENTED_EDGE('',*,*,#1367,.T.);
#1367 = EDGE_CURVE('',#1360,#1320,#1368,.T.);
#1368 = LINE('',#1369,#1370);
#1369 = CARTESIAN_POINT('',(9.08,7.81,1.51));
#1370 = VECTOR('',#1371,1.);
#1371 = DIRECTION('',(0.,-1.,0.));
#1372 = ORIENTED_EDGE('',*,*,#1317,.F.);
#1373 = ORIENTED_EDGE('',*,*,#1374,.F.);
#1374 = EDGE_CURVE('',#1358,#1318,#1375,.T.);
#1375 = LINE('',#1376,#1377);
#1376 = CARTESIAN_POINT('',(9.08,7.81,0.));
#1377 = VECTOR('',#1378,1.);
#1378 = DIRECTION('',(0.,-1.,0.));
#1379 = PLANE('',#1380);
#1380 = AXIS2_PLACEMENT_3D('',#1381,#1382,#1383);
#1381 = CARTESIAN_POINT('',(9.08,7.81,0.));
#1382 = DIRECTION('',(1.,0.,-0.));
#1383 = DIRECTION('',(0.,-1.,0.));
#1384 = ADVANCED_FACE('',(#1385),#1410,.T.);
#1385 = FACE_BOUND('',#1386,.T.);
#1386 = EDGE_LOOP('',(#1387,#1388,#1396,#1404));
#1387 = ORIENTED_EDGE('',*,*,#1335,.T.);
#1388 = ORIENTED_EDGE('',*,*,#1389,.T.);
#1389 = EDGE_CURVE('',#1328,#1390,#1392,.T.);
#1390 = VERTEX_POINT('',#1391);
#1391 = CARTESIAN_POINT('',(-6.54,7.81,1.51));
#1392 = LINE('',#1393,#1394);
#1393 = CARTESIAN_POINT('',(-6.54,-7.81,1.51));
#1394 = VECTOR('',#1395,1.);
#1395 = DIRECTION('',(0.,1.,0.));
#1396 = ORIENTED_EDGE('',*,*,#1397,.F.);
#1397 = EDGE_CURVE('',#1398,#1390,#1400,.T.);
#1398 = VERTEX_POINT('',#1399);
#1399 = CARTESIAN_POINT('',(-6.54,7.81,0.));
#1400 = LINE('',#1401,#1402);
#1401 = CARTESIAN_POINT('',(-6.54,7.81,0.));
#1402 = VECTOR('',#1403,1.);
#1403 = DIRECTION('',(0.,0.,1.));
#1404 = ORIENTED_EDGE('',*,*,#1405,.F.);
#1405 = EDGE_CURVE('',#1336,#1398,#1406,.T.);
#1406 = LINE('',#1407,#1408);
#1407 = CARTESIAN_POINT('',(-6.54,-7.81,0.));
#1408 = VECTOR('',#1409,1.);
#1409 = DIRECTION('',(0.,1.,0.));
#1410 = PLANE('',#1411);
#1411 = AXIS2_PLACEMENT_3D('',#1412,#1413,#1414);
#1412 = CARTESIAN_POINT('',(-6.54,-7.81,0.));
#1413 = DIRECTION('',(-1.,0.,0.));
#1414 = DIRECTION('',(0.,1.,0.));
#1415 = ADVANCED_FACE('',(#1416,#1427,#1438),#1449,.F.);
#1416 = FACE_BOUND('',#1417,.F.);
#1417 = EDGE_LOOP('',(#1418,#1419,#1420,#1426));
#1418 = ORIENTED_EDGE('',*,*,#1343,.F.);
#1419 = ORIENTED_EDGE('',*,*,#1374,.F.);
#1420 = ORIENTED_EDGE('',*,*,#1421,.F.);
#1421 = EDGE_CURVE('',#1398,#1358,#1422,.T.);
#1422 = LINE('',#1423,#1424);
#1423 = CARTESIAN_POINT('',(-6.54,7.81,0.));
#1424 = VECTOR('',#1425,1.);
#1425 = DIRECTION('',(1.,0.,0.));
#1426 = ORIENTED_EDGE('',*,*,#1405,.F.);
#1427 = FACE_BOUND('',#1428,.F.);
#1428 = EDGE_LOOP('',(#1429));
#1429 = ORIENTED_EDGE('',*,*,#1430,.T.);
#1430 = EDGE_CURVE('',#1431,#1431,#1433,.T.);
#1431 = VERTEX_POINT('',#1432);
#1432 = CARTESIAN_POINT('',(0.,-0.45,0.));
#1433 = CIRCLE('',#1434,0.45);
#1434 = AXIS2_PLACEMENT_3D('',#1435,#1436,#1437);
#1435 = CARTESIAN_POINT('',(-4.163336342344E-17,6.938893903907E-17,0.));
#1436 = DIRECTION('',(-0.,0.,-1.));
#1437 = DIRECTION('',(9.251858538543E-17,-1.,-0.));
#1438 = FACE_BOUND('',#1439,.F.);
#1439 = EDGE_LOOP('',(#1440));
#1440 = ORIENTED_EDGE('',*,*,#1441,.T.);
#1441 = EDGE_CURVE('',#1442,#1442,#1444,.T.);
#1442 = VERTEX_POINT('',#1443);
#1443 = CARTESIAN_POINT('',(2.54,-0.45,0.));
#1444 = CIRCLE('',#1445,0.45);
#1445 = AXIS2_PLACEMENT_3D('',#1446,#1447,#1448);
#1446 = CARTESIAN_POINT('',(2.54,2.22044604925E-16,0.));
#1447 = DIRECTION('',(-0.,0.,-1.));
#1448 = DIRECTION('',(-0.,-1.,0.));
#1449 = PLANE('',#1450);
#1450 = AXIS2_PLACEMENT_3D('',#1451,#1452,#1453);
#1451 = CARTESIAN_POINT('',(0.,0.,0.));
#1452 = DIRECTION('',(0.,0.,1.));
#1453 = DIRECTION('',(1.,0.,-0.));
#1454 = ADVANCED_FACE('',(#1455,#1466,#1477),#1488,.T.);
#1455 = FACE_BOUND('',#1456,.T.);
#1456 = EDGE_LOOP('',(#1457,#1458,#1459,#1465));
#1457 = ORIENTED_EDGE('',*,*,#1327,.F.);
#1458 = ORIENTED_EDGE('',*,*,#1367,.F.);
#1459 = ORIENTED_EDGE('',*,*,#1460,.F.);
#1460 = EDGE_CURVE('',#1390,#1360,#1461,.T.);
#1461 = LINE('',#1462,#1463);
#1462 = CARTESIAN_POINT('',(-6.54,7.81,1.51));
#1463 = VECTOR('',#1464,1.);
#1464 = DIRECTION('',(1.,0.,0.));
#1465 = ORIENTED_EDGE('',*,*,#1389,.F.);
#1466 = FACE_BOUND('',#1467,.T.);
#1467 = EDGE_LOOP('',(#1468));
#1468 = ORIENTED_EDGE('',*,*,#1469,.T.);
#1469 = EDGE_CURVE('',#1470,#1470,#1472,.T.);
#1470 = VERTEX_POINT('',#1471);
#1471 = CARTESIAN_POINT('',(0.,-0.45,1.51));
#1472 = CIRCLE('',#1473,0.45);
#1473 = AXIS2_PLACEMENT_3D('',#1474,#1475,#1476);
#1474 = CARTESIAN_POINT('',(-4.163336342344E-17,6.938893903907E-17,1.51)
  );
#1475 = DIRECTION('',(-0.,0.,-1.));
#1476 = DIRECTION('',(9.251858538543E-17,-1.,-0.));
#1477 = FACE_BOUND('',#1478,.T.);
#1478 = EDGE_LOOP('',(#1479));
#1479 = ORIENTED_EDGE('',*,*,#1480,.T.);
#1480 = EDGE_CURVE('',#1481,#1481,#1483,.T.);
#1481 = VERTEX_POINT('',#1482);
#1482 = CARTESIAN_POINT('',(2.54,-0.45,1.51));
#1483 = CIRCLE('',#1484,0.45);
#1484 = AXIS2_PLACEMENT_3D('',#1485,#1486,#1487);
#1485 = CARTESIAN_POINT('',(2.54,2.22044604925E-16,1.51));
#1486 = DIRECTION('',(-0.,0.,-1.));
#1487 = DIRECTION('',(-0.,-1.,0.));
#1488 = PLANE('',#1489);
#1489 = AXIS2_PLACEMENT_3D('',#1490,#1491,#1492);
#1490 = CARTESIAN_POINT('',(0.,0.,1.51));
#1491 = DIRECTION('',(0.,0.,1.));
#1492 = DIRECTION('',(1.,0.,-0.));
#1493 = ADVANCED_FACE('',(#1494),#1500,.T.);
#1494 = FACE_BOUND('',#1495,.T.);
#1495 = EDGE_LOOP('',(#1496,#1497,#1498,#1499));
#1496 = ORIENTED_EDGE('',*,*,#1397,.T.);
#1497 = ORIENTED_EDGE('',*,*,#1460,.T.);
#1498 = ORIENTED_EDGE('',*,*,#1357,.F.);
#1499 = ORIENTED_EDGE('',*,*,#1421,.F.);
#1500 = PLANE('',#1501);
#1501 = AXIS2_PLACEMENT_3D('',#1502,#1503,#1504);
#1502 = CARTESIAN_POINT('',(-6.54,7.81,0.));
#1503 = DIRECTION('',(0.,1.,0.));
#1504 = DIRECTION('',(1.,0.,0.));
#1505 = ADVANCED_FACE('',(#1506),#1517,.F.);
#1506 = FACE_BOUND('',#1507,.T.);
#1507 = EDGE_LOOP('',(#1508,#1509,#1515,#1516));
#1508 = ORIENTED_EDGE('',*,*,#1430,.T.);
#1509 = ORIENTED_EDGE('',*,*,#1510,.T.);
#1510 = EDGE_CURVE('',#1431,#1470,#1511,.T.);
#1511 = LINE('',#1512,#1513);
#1512 = CARTESIAN_POINT('',(0.,-0.45,-4.6E-02));
#1513 = VECTOR('',#1514,1.);
#1514 = DIRECTION('',(0.,0.,1.));
#1515 = ORIENTED_EDGE('',*,*,#1469,.F.);
#1516 = ORIENTED_EDGE('',*,*,#1510,.F.);
#1517 = CYLINDRICAL_SURFACE('',#1518,0.45);
#1518 = AXIS2_PLACEMENT_3D('',#1519,#1520,#1521);
#1519 = CARTESIAN_POINT('',(-4.163336342344E-17,6.938893903907E-17,
    -4.6E-02));
#1520 = DIRECTION('',(-0.,0.,-1.));
#1521 = DIRECTION('',(9.251858538543E-17,-1.,-0.));
#1522 = ADVANCED_FACE('',(#1523),#1534,.F.);
#1523 = FACE_BOUND('',#1524,.T.);
#1524 = EDGE_LOOP('',(#1525,#1526,#1532,#1533));
#1525 = ORIENTED_EDGE('',*,*,#1441,.T.);
#1526 = ORIENTED_EDGE('',*,*,#1527,.T.);
#1527 = EDGE_CURVE('',#1442,#1481,#1528,.T.);
#1528 = LINE('',#1529,#1530);
#1529 = CARTESIAN_POINT('',(2.54,-0.45,-4.6E-02));
#1530 = VECTOR('',#1531,1.);
#1531 = DIRECTION('',(0.,0.,1.));
#1532 = ORIENTED_EDGE('',*,*,#1480,.F.);
#1533 = ORIENTED_EDGE('',*,*,#1527,.F.);
#1534 = CYLINDRICAL_SURFACE('',#1535,0.45);
#1535 = AXIS2_PLACEMENT_3D('',#1536,#1537,#1538);
#1536 = CARTESIAN_POINT('',(2.54,2.22044604925E-16,-4.6E-02));
#1537 = DIRECTION('',(-0.,-0.,-1.));
#1538 = DIRECTION('',(-0.,-1.,0.));
#1539 = ( GEOMETRIC_REPRESENTATION_CONTEXT(3) 
GLOBAL_UNCERTAINTY_ASSIGNED_CONTEXT((#1543)) 
GLOBAL_UNIT_ASSIGNED_CONTEXT((#1540,#1541,#1542)) REPRESENTATION_CONTEXT
('Context #1','3D Context with UNIT and UNCERTAINTY') );
#1540 = ( LENGTH_UNIT() NAMED_UNIT(*) SI_UNIT(.MILLI.,.METRE.) );
#1541 = ( NAMED_UNIT(*) PLANE_ANGLE_UNIT() SI_UNIT($,.RADIAN.) );
#1542 = ( NAMED_UNIT(*) SI_UNIT($,.STERADIAN.) SOLID_ANGLE_UNIT() );
#1543 = UNCERTAINTY_MEASURE_WITH_UNIT(LENGTH_MEASURE(1.E-07),#1540,
  'distance_accuracy_value','confusion accuracy');
#1544 = CONTEXT_DEPENDENT_SHAPE_REPRESENTATION(#1545,#1547);
#1545 = ( REPRESENTATION_RELATIONSHIP('','',#1310,#10) 
REPRESENTATION_RELATIONSHIP_WITH_TRANSFORMATION(#1546) 
SHAPE_REPRESENTATION_RELATIONSHIP() );
#1546 = ITEM_DEFINED_TRANSFORMATION('','',#11,#23);
#1547 = PRODUCT_DEFINITION_SHAPE('Placement','Placement of an item',
  #1548);
#1548 = NEXT_ASSEMBLY_USAGE_OCCURRENCE('4','=>[0:1:1:5]','',#5,#1305,$);
#1549 = PRODUCT_RELATED_PRODUCT_CATEGORY('part',$,(#1307));
#1550 = MECHANICAL_DESIGN_GEOMETRIC_PRESENTATION_REPRESENTATION('',(
    #1551,#1559,#1566,#1573,#1580,#1587),#1292);
#1551 = STYLED_ITEM('color',(#1552),#546);
#1552 = PRESENTATION_STYLE_ASSIGNMENT((#1553));
#1553 = SURFACE_STYLE_USAGE(.BOTH.,#1554);
#1554 = SURFACE_SIDE_STYLE('',(#1555));
#1555 = SURFACE_STYLE_FILL_AREA(#1556);
#1556 = FILL_AREA_STYLE('',(#1557));
#1557 = FILL_AREA_STYLE_COLOUR('',#1558);
#1558 = COLOUR_RGB('',0.735356983052,0.735356983052,0.735356983052);
#1559 = STYLED_ITEM('color',(#1560),#735);
#1560 = PRESENTATION_STYLE_ASSIGNMENT((#1561));
#1561 = SURFACE_STYLE_USAGE(.BOTH.,#1562);
#1562 = SURFACE_SIDE_STYLE('',(#1563));
#1563 = SURFACE_STYLE_FILL_AREA(#1564);
#1564 = FILL_AREA_STYLE('',(#1565));
#1565 = FILL_AREA_STYLE_COLOUR('',#1558);
#1566 = STYLED_ITEM('color',(#1567),#924);
#1567 = PRESENTATION_STYLE_ASSIGNMENT((#1568));
#1568 = SURFACE_STYLE_USAGE(.BOTH.,#1569);
#1569 = SURFACE_SIDE_STYLE('',(#1570));
#1570 = SURFACE_STYLE_FILL_AREA(#1571);
#1571 = FILL_AREA_STYLE('',(#1572));
#1572 = FILL_AREA_STYLE_COLOUR('',#1558);
#1573 = STYLED_ITEM('color',(#1574),#1016);
#1574 = PRESENTATION_STYLE_ASSIGNMENT((#1575));
#1575 = SURFACE_STYLE_USAGE(.BOTH.,#1576);
#1576 = SURFACE_SIDE_STYLE('',(#1577));
#1577 = SURFACE_STYLE_FILL_AREA(#1578);
#1578 = FILL_AREA_STYLE('',(#1579));
#1579 = FILL_AREA_STYLE_COLOUR('',#1558);
#1580 = STYLED_ITEM('color',(#1581),#1108);
#1581 = PRESENTATION_STYLE_ASSIGNMENT((#1582));
#1582 = SURFACE_STYLE_USAGE(.BOTH.,#1583);
#1583 = SURFACE_SIDE_STYLE('',(#1584));
#1584 = SURFACE_STYLE_FILL_AREA(#1585);
#1585 = FILL_AREA_STYLE('',(#1586));
#1586 = FILL_AREA_STYLE_COLOUR('',#1558);
#1587 = STYLED_ITEM('color',(#1588),#1200);
#1588 = PRESENTATION_STYLE_ASSIGNMENT((#1589));
#1589 = SURFACE_STYLE_USAGE(.BOTH.,#1590);
#1590 = SURFACE_SIDE_STYLE('',(#1591));
#1591 = SURFACE_STYLE_FILL_AREA(#1592);
#1592 = FILL_AREA_STYLE('',(#1593));
#1593 = FILL_AREA_STYLE_COLOUR('',#1558);
#1594 = MECHANICAL_DESIGN_GEOMETRIC_PRESENTATION_REPRESENTATION('',(
    #1595),#1539);
#1595 = STYLED_ITEM('color',(#1596),#1311);
#1596 = PRESENTATION_STYLE_ASSIGNMENT((#1597));
#1597 = SURFACE_STYLE_USAGE(.BOTH.,#1598);
#1598 = SURFACE_SIDE_STYLE('',(#1599));
#1599 = SURFACE_STYLE_FILL_AREA(#1600);
#1600 = FILL_AREA_STYLE('',(#1601));
#1601 = FILL_AREA_STYLE_COLOUR('',#1602);
#1602 = COLOUR_RGB('',0.313304153717,0.484529207832,0.410020903123);
#1603 = MECHANICAL_DESIGN_GEOMETRIC_PRESENTATION_REPRESENTATION('',(
    #1604,#1612,#1619,#1626,#1633,#1640,#1647,#1655,#1662,#1669,#1676,
    #1683,#1690,#1697,#1704,#1711),#527);
#1604 = STYLED_ITEM('color',(#1605),#66);
#1605 = PRESENTATION_STYLE_ASSIGNMENT((#1606));
#1606 = SURFACE_STYLE_USAGE(.BOTH.,#1607);
#1607 = SURFACE_SIDE_STYLE('',(#1608));
#1608 = SURFACE_STYLE_FILL_AREA(#1609);
#1609 = FILL_AREA_STYLE('',(#1610));
#1610 = FILL_AREA_STYLE_COLOUR('',#1611);
#1611 = COLOUR_RGB('',0.699999984889,9.999999991362E-02,
  5.000000142576E-02);
#1612 = STYLED_ITEM('color',(#1613),#93);
#1613 = PRESENTATION_STYLE_ASSIGNMENT((#1614));
#1614 = SURFACE_STYLE_USAGE(.BOTH.,#1615);
#1615 = SURFACE_SIDE_STYLE('',(#1616));
#1616 = SURFACE_STYLE_FILL_AREA(#1617);
#1617 = FILL_AREA_STYLE('',(#1618));
#1618 = FILL_AREA_STYLE_COLOUR('',#1611);
#1619 = STYLED_ITEM('color',(#1620),#138);
#1620 = PRESENTATION_STYLE_ASSIGNMENT((#1621));
#1621 = SURFACE_STYLE_USAGE(.BOTH.,#1622);
#1622 = SURFACE_SIDE_STYLE('',(#1623));
#1623 = SURFACE_STYLE_FILL_AREA(#1624);
#1624 = FILL_AREA_STYLE('',(#1625));
#1625 = FILL_AREA_STYLE_COLOUR('',#1611);
#1626 = STYLED_ITEM('color',(#1627),#182);
#1627 = PRESENTATION_STYLE_ASSIGNMENT((#1628));
#1628 = SURFACE_STYLE_USAGE(.BOTH.,#1629);
#1629 = SURFACE_SIDE_STYLE('',(#1630));
#1630 = SURFACE_STYLE_FILL_AREA(#1631);
#1631 = FILL_AREA_STYLE('',(#1632));
#1632 = FILL_AREA_STYLE_COLOUR('',#1611);
#1633 = STYLED_ITEM('color',(#1634),#214);
#1634 = PRESENTATION_STYLE_ASSIGNMENT((#1635));
#1635 = SURFACE_STYLE_USAGE(.BOTH.,#1636);
#1636 = SURFACE_SIDE_STYLE('',(#1637));
#1637 = SURFACE_STYLE_FILL_AREA(#1638);
#1638 = FILL_AREA_STYLE('',(#1639));
#1639 = FILL_AREA_STYLE_COLOUR('',#1611);
#1640 = STYLED_ITEM('color',(#1641),#233);
#1641 = PRESENTATION_STYLE_ASSIGNMENT((#1642));
#1642 = SURFACE_STYLE_USAGE(.BOTH.,#1643);
#1643 = SURFACE_SIDE_STYLE('',(#1644));
#1644 = SURFACE_STYLE_FILL_AREA(#1645);
#1645 = FILL_AREA_STYLE('',(#1646));
#1646 = FILL_AREA_STYLE_COLOUR('',#1611);
#1647 = STYLED_ITEM('color',(#1648),#311);
#1648 = PRESENTATION_STYLE_ASSIGNMENT((#1649));
#1649 = SURFACE_STYLE_USAGE(.BOTH.,#1650);
#1650 = SURFACE_SIDE_STYLE('',(#1651));
#1651 = SURFACE_STYLE_FILL_AREA(#1652);
#1652 = FILL_AREA_STYLE('',(#1653));
#1653 = FILL_AREA_STYLE_COLOUR('',#1654);
#1654 = COLOUR_RGB('',0.823999987314,0.819999987296,0.781000009244);
#1655 = STYLED_ITEM('color',(#1656),#342);
#1656 = PRESENTATION_STYLE_ASSIGNMENT((#1657));
#1657 = SURFACE_STYLE_USAGE(.BOTH.,#1658);
#1658 = SURFACE_SIDE_STYLE('',(#1659));
#1659 = SURFACE_STYLE_FILL_AREA(#1660);
#1660 = FILL_AREA_STYLE('',(#1661));
#1661 = FILL_AREA_STYLE_COLOUR('',#1654);
#1662 = STYLED_ITEM('color',(#1663),#366);
#1663 = PRESENTATION_STYLE_ASSIGNMENT((#1664));
#1664 = SURFACE_STYLE_USAGE(.BOTH.,#1665);
#1665 = SURFACE_SIDE_STYLE('',(#1666));
#1666 = SURFACE_STYLE_FILL_AREA(#1667);
#1667 = FILL_AREA_STYLE('',(#1668));
#1668 = FILL_AREA_STYLE_COLOUR('',#1654);
#1669 = STYLED_ITEM('color',(#1670),#390);
#1670 = PRESENTATION_STYLE_ASSIGNMENT((#1671));
#1671 = SURFACE_STYLE_USAGE(.BOTH.,#1672);
#1672 = SURFACE_SIDE_STYLE('',(#1673));
#1673 = SURFACE_STYLE_FILL_AREA(#1674);
#1674 = FILL_AREA_STYLE('',(#1675));
#1675 = FILL_AREA_STYLE_COLOUR('',#1654);
#1676 = STYLED_ITEM('color',(#1677),#407);
#1677 = PRESENTATION_STYLE_ASSIGNMENT((#1678));
#1678 = SURFACE_STYLE_USAGE(.BOTH.,#1679);
#1679 = SURFACE_SIDE_STYLE('',(#1680));
#1680 = SURFACE_STYLE_FILL_AREA(#1681);
#1681 = FILL_AREA_STYLE('',(#1682));
#1682 = FILL_AREA_STYLE_COLOUR('',#1654);
#1683 = STYLED_ITEM('color',(#1684),#438);
#1684 = PRESENTATION_STYLE_ASSIGNMENT((#1685));
#1685 = SURFACE_STYLE_USAGE(.BOTH.,#1686);
#1686 = SURFACE_SIDE_STYLE('',(#1687));
#1687 = SURFACE_STYLE_FILL_AREA(#1688);
#1688 = FILL_AREA_STYLE('',(#1689));
#1689 = FILL_AREA_STYLE_COLOUR('',#1654);
#1690 = STYLED_ITEM('color',(#1691),#462);
#1691 = PRESENTATION_STYLE_ASSIGNMENT((#1692));
#1692 = SURFACE_STYLE_USAGE(.BOTH.,#1693);
#1693 = SURFACE_SIDE_STYLE('',(#1694));
#1694 = SURFACE_STYLE_FILL_AREA(#1695);
#1695 = FILL_AREA_STYLE('',(#1696));
#1696 = FILL_AREA_STYLE_COLOUR('',#1654);
#1697 = STYLED_ITEM('color',(#1698),#486);
#1698 = PRESENTATION_STYLE_ASSIGNMENT((#1699));
#1699 = SURFACE_STYLE_USAGE(.BOTH.,#1700);
#1700 = SURFACE_SIDE_STYLE('',(#1701));
#1701 = SURFACE_STYLE_FILL_AREA(#1702);
#1702 = FILL_AREA_STYLE('',(#1703));
#1703 = FILL_AREA_STYLE_COLOUR('',#1654);
#1704 = STYLED_ITEM('color',(#1705),#503);
#1705 = PRESENTATION_STYLE_ASSIGNMENT((#1706));
#1706 = SURFACE_STYLE_USAGE(.BOTH.,#1707);
#1707 = SURFACE_SIDE_STYLE('',(#1708));
#1708 = SURFACE_STYLE_FILL_AREA(#1709);
#1709 = FILL_AREA_STYLE('',(#1710));
#1710 = FILL_AREA_STYLE_COLOUR('',#1654);
#1711 = STYLED_ITEM('color',(#1712),#515);
#1712 = PRESENTATION_STYLE_ASSIGNMENT((#1713));
#1713 = SURFACE_STYLE_USAGE(.BOTH.,#1714);
#1714 = SURFACE_SIDE_STYLE('',(#1715));
#1715 = SURFACE_STYLE_FILL_AREA(#1716);
#1716 = FILL_AREA_STYLE('',(#1717));
#1717 = FILL_AREA_STYLE_COLOUR('',#1654);
ENDSEC;
END-ISO-10303-21;
