ISO-10303-21;
HEADER;
FILE_DESCRIPTION(('KiCad electronic assembly'),'2;1');
FILE_NAME('model.step','1970-01-01T00:00:00',('Pcbnew'),('Kicad'),
  'Open CASCADE STEP processor 7.9','KiCad to STEP converter','Unknown'
  );
FILE_SCHEMA(('AUTOMOTIVE_DESIGN { 1 0 10303 214 1 1 1 1 }'));
ENDSEC;
DATA;
#1 = APPLICATION_PROTOCOL_DEFINITION('international standard',
  'automotive_design',2000,#2);
#2 = APPLICATION_CONTEXT(
  'core data for automotive mechanical design processes');
#3 = SHAPE_DEFINITION_REPRESENTATION(#4,#10);
#4 = PRODUCT_DEFINITION_SHAPE('','',#5);
#5 = PRODUCT_DEFINITION('design','',#6,#9);
#6 = PRODUCT_DEFINITION_FORMATION('','',#7);
#7 = PRODUCT('model 1','model 1','',(#8));
#8 = PRODUCT_CONTEXT('',#2,'mechanical');
#9 = PRODUCT_DEFINITION_CONTEXT('part definition',#2,'design');
#10 = SHAPE_REPRESENTATION('',(#11,#15,#19,#23),#27);
#11 = AXIS2_PLACEMENT_3D('',#12,#13,#14);
#12 = CARTESIAN_POINT('',(0.,0.,0.));
#13 = DIRECTION('',(0.,0.,1.));
#14 = DIRECTION('',(1.,0.,-0.));
#15 = AXIS2_PLACEMENT_3D('',#16,#17,#18);
#16 = CARTESIAN_POINT('',(0.,0.,1.595));
#17 = DIRECTION('',(0.,0.,1.));
#18 = DIRECTION('',(1.,0.,0.));
#19 = AXIS2_PLACEMENT_3D('',#20,#21,#22);
#20 = CARTESIAN_POINT('',(0.,0.,0.));
#21 = DIRECTION('',(0.,0.,1.));
#22 = DIRECTION('',(1.,0.,-0.));
#23 = AXIS2_PLACEMENT_3D('',#24,#25,#26);
#24 = CARTESIAN_POINT('',(0.,0.,0.));
#25 = DIRECTION('',(0.,0.,1.));
#26 = DIRECTION('',(1.,0.,-0.));
#27 = ( GEOMETRIC_REPRESENTATION_CONTEXT(3) 
GLOBAL_UNCERTAINTY_ASSIGNED_CONTEXT((#31)) GLOBAL_UNIT_ASSIGNED_CONTEXT(
(#28,#29,#30)) REPRESENTATION_CONTEXT('Context #1',
  '3D Context with UNIT and UNCERTAINTY') );
#28 = ( LENGTH_UNIT() NAMED_UNIT(*) SI_UNIT(.MILLI.,.METRE.) );
#29 = ( NAMED_UNIT(*) PLANE_ANGLE_UNIT() SI_UNIT($,.RADIAN.) );
#30 = ( NAMED_UNIT(*) SI_UNIT($,.STERADIAN.) SOLID_ANGLE_UNIT() );
#31 = UNCERTAINTY_MEASURE_WITH_UNIT(LENGTH_MEASURE(1.E-07),#28,
  'distance_accuracy_value','confusion accuracy');
#32 = PRODUCT_RELATED_PRODUCT_CATEGORY('part',$,(#7));
#33 = SHAPE_DEFINITION_REPRESENTATION(#34,#40);
#34 = PRODUCT_DEFINITION_SHAPE('','',#35);
#35 = PRODUCT_DEFINITION('design','',#36,#39);
#36 = PRODUCT_DEFINITION_FORMATION('','',#37);
#37 = PRODUCT('LED_D5.0mm','LED_D5.0mm','',(#38));
#38 = PRODUCT_CONTEXT('',#2,'mechanical');
#39 = PRODUCT_DEFINITION_CONTEXT('part definition',#2,'design');
#40 = SHAPE_REPRESENTATION('',(#11,#41),#45);
#41 = AXIS2_PLACEMENT_3D('',#42,#43,#44);
#42 = CARTESIAN_POINT('',(0.,0.,0.));
#43 = DIRECTION('',(0.,0.,1.));
#44 = DIRECTION('',(1.,0.,-0.));
#45 = ( GEOMETRIC_REPRESENTATION_CONTEXT(3) 
GLOBAL_UNCERTAINTY_ASSIGNED_CONTEXT((#49)) GLOBAL_UNIT_ASSIGNED_CONTEXT(
(#46,#47,#48)) REPRESENTATION_CONTEXT('Context #1',
  '3D Context with UNIT and UNCERTAINTY') );
#46 = ( LENGTH_UNIT() NAMED_UNIT(*) SI_UNIT(.MILLI.,.METRE.) );
#47 = ( NAMED_UNIT(*) PLANE_ANGLE_UNIT() SI_UNIT($,.RADIAN.) );
#48 = ( NAMED_UNIT(*) SI_UNIT($,.STERADIAN.) SOLID_ANGLE_UNIT() );
#49 = UNCERTAINTY_MEASURE_WITH_UNIT(LENGTH_MEASURE(1.E-07),#46,
  'distance_accuracy_value','confusion accuracy');
#50 = CONTEXT_DEPENDENT_SHAPE_REPRESENTATION(#51,#53);
#51 = ( REPRESENTATION_RELATIONSHIP('','',#40,#10) 
REPRESENTATION_RELATIONSHIP_WITH_TRANSFORMATION(#52) 
SHAPE_REPRESENTATION_RELATIONSHIP() );
#52 = ITEM_DEFINED_TRANSFORMATION('','',#11,#15);
#53 = PRODUCT_DEFINITION_SHAPE('Placement','Placement of an item',#54);
#54 = NEXT_ASSEMBLY_USAGE_OCCURRENCE('2','REF**','',#5,#35,$);
#55 = PRODUCT_RELATED_PRODUCT_CATEGORY('part',$,(#37));
#56 = SHAPE_DEFINITION_REPRESENTATION(#57,#63);
#57 = PRODUCT_DEFINITION_SHAPE('','',#58);
#58 = PRODUCT_DEFINITION('design','',#59,#62);
#59 = PRODUCT_DEFINITION_FORMATION('','',#60);
#60 = PRODUCT('LED_D5.0mm','LED_D5.0mm','',(#61));
#61 = PRODUCT_CONTEXT('',#2,'mechanical');
#62 = PRODUCT_DEFINITION_CONTEXT('part definition',#2,'design');
#63 = ADVANCED_BREP_SHAPE_REPRESENTATION('',(#11,#64),#489);
#64 = MANIFOLD_SOLID_BREP('',#65);
#65 = CLOSED_SHELL('',(#66,#93,#118,#146,#178,#195,#273,#304,#328,#352,
    #369,#400,#424,#448,#465,#477));
#66 = ADVANCED_FACE('',(#67),#88,.T.);
#67 = FACE_BOUND('',#68,.T.);
#68 = EDGE_LOOP('',(#69,#80,#81));
#69 = ORIENTED_EDGE('',*,*,#70,.T.);
#70 = EDGE_CURVE('',#71,#73,#75,.T.);
#71 = VERTEX_POINT('',#72);
#72 = CARTESIAN_POINT('',(3.72,6.095124405192E-15,9.15));
#73 = VERTEX_POINT('',#74);
#74 = CARTESIAN_POINT('',(1.27,7.727152251391E-15,11.6));
#75 = CIRCLE('',#76,2.45);
#76 = AXIS2_PLACEMENT_3D('',#77,#78,#79);
#77 = CARTESIAN_POINT('',(1.27,6.095124405192E-15,9.15));
#78 = DIRECTION('',(0.,-1.,6.661338147751E-16));
#79 = DIRECTION('',(1.,0.,0.));
#80 = ORIENTED_EDGE('',*,*,#70,.F.);
#81 = ORIENTED_EDGE('',*,*,#82,.F.);
#82 = EDGE_CURVE('',#71,#71,#83,.T.);
#83 = CIRCLE('',#84,2.45);
#84 = AXIS2_PLACEMENT_3D('',#85,#86,#87);
#85 = CARTESIAN_POINT('',(1.27,4.063416270128E-15,9.15));
#86 = DIRECTION('',(-4.379057701015E-47,-4.440892098501E-16,-1.));
#87 = DIRECTION('',(1.,8.292686265567E-16,-3.68269249121E-31));
#88 = SPHERICAL_SURFACE('',#89,2.45);
#89 = AXIS2_PLACEMENT_3D('',#90,#91,#92);
#90 = CARTESIAN_POINT('',(1.27,6.095124405192E-15,9.15));
#91 = DIRECTION('',(0.,4.440892098501E-16,1.));
#92 = DIRECTION('',(1.,1.394807543452E-15,-6.194189798646E-31));
#93 = ADVANCED_FACE('',(#94),#113,.T.);
#94 = FACE_BOUND('',#95,.T.);
#95 = EDGE_LOOP('',(#96,#104,#105,#106));
#96 = ORIENTED_EDGE('',*,*,#97,.F.);
#97 = EDGE_CURVE('',#71,#98,#100,.T.);
#98 = VERTEX_POINT('',#99);
#99 = CARTESIAN_POINT('',(3.72,2.6645352591E-15,4.));
#100 = LINE('',#101,#102);
#101 = CARTESIAN_POINT('',(3.72,6.095124405192E-15,9.15));
#102 = VECTOR('',#103,1.);
#103 = DIRECTION('',(0.,-6.661338147751E-16,-1.));
#104 = ORIENTED_EDGE('',*,*,#82,.T.);
#105 = ORIENTED_EDGE('',*,*,#97,.T.);
#106 = ORIENTED_EDGE('',*,*,#107,.F.);
#107 = EDGE_CURVE('',#98,#98,#108,.T.);
#108 = CIRCLE('',#109,2.45);
#109 = AXIS2_PLACEMENT_3D('',#110,#111,#112);
#110 = CARTESIAN_POINT('',(1.27,1.7763568394E-15,4.));
#111 = DIRECTION('',(-2.189528850508E-47,-4.440892098501E-16,-1.));
#112 = DIRECTION('',(1.,3.625218039592E-16,-1.609920214737E-31));
#113 = CYLINDRICAL_SURFACE('',#114,2.45);
#114 = AXIS2_PLACEMENT_3D('',#115,#116,#117);
#115 = CARTESIAN_POINT('',(1.27,4.063416270128E-15,9.15));
#116 = DIRECTION('',(0.,-4.440892098501E-16,-1.));
#117 = DIRECTION('',(1.,8.292686265567E-16,-3.68269249121E-31));
#118 = ADVANCED_FACE('',(#119,#138),#141,.F.);
#119 = FACE_BOUND('',#120,.F.);
#120 = EDGE_LOOP('',(#121,#132));
#121 = ORIENTED_EDGE('',*,*,#122,.F.);
#122 = EDGE_CURVE('',#123,#125,#127,.T.);
#123 = VERTEX_POINT('',#124);
#124 = CARTESIAN_POINT('',(-1.229999999999,-1.46969384567,4.));
#125 = VERTEX_POINT('',#126);
#126 = CARTESIAN_POINT('',(-1.23,1.469693845669,4.));
#127 = CIRCLE('',#128,2.9);
#128 = AXIS2_PLACEMENT_3D('',#129,#130,#131);
#129 = CARTESIAN_POINT('',(1.27,0.,4.));
#130 = DIRECTION('',(0.,0.,1.));
#131 = DIRECTION('',(1.,0.,-0.));
#132 = ORIENTED_EDGE('',*,*,#133,.T.);
#133 = EDGE_CURVE('',#123,#125,#134,.T.);
#134 = LINE('',#135,#136);
#135 = CARTESIAN_POINT('',(-1.229999999999,-1.46969384567,4.));
#136 = VECTOR('',#137,1.);
#137 = DIRECTION('',(0.,1.,0.));
#138 = FACE_BOUND('',#139,.F.);
#139 = EDGE_LOOP('',(#140));
#140 = ORIENTED_EDGE('',*,*,#107,.F.);
#141 = PLANE('',#142);
#142 = AXIS2_PLACEMENT_3D('',#143,#144,#145);
#143 = CARTESIAN_POINT('',(-1.229999999999,-1.469693845671,4.));
#144 = DIRECTION('',(0.,0.,-1.));
#145 = DIRECTION('',(-1.,0.,0.));
#146 = ADVANCED_FACE('',(#147),#173,.T.);
#147 = FACE_BOUND('',#148,.T.);
#148 = EDGE_LOOP('',(#149,#160,#166,#167));
#149 = ORIENTED_EDGE('',*,*,#150,.T.);
#150 = EDGE_CURVE('',#151,#153,#155,.T.);
#151 = VERTEX_POINT('',#152);
#152 = CARTESIAN_POINT('',(-1.229999999999,-1.46969384567,3.));
#153 = VERTEX_POINT('',#154);
#154 = CARTESIAN_POINT('',(-1.23,1.469693845669,3.));
#155 = CIRCLE('',#156,2.9);
#156 = AXIS2_PLACEMENT_3D('',#157,#158,#159);
#157 = CARTESIAN_POINT('',(1.27,0.,3.));
#158 = DIRECTION('',(0.,0.,1.));
#159 = DIRECTION('',(1.,0.,-0.));
#160 = ORIENTED_EDGE('',*,*,#161,.T.);
#161 = EDGE_CURVE('',#153,#125,#162,.T.);
#162 = LINE('',#163,#164);
#163 = CARTESIAN_POINT('',(-1.23,1.469693845669,3.));
#164 = VECTOR('',#165,1.);
#165 = DIRECTION('',(0.,0.,1.));
#166 = ORIENTED_EDGE('',*,*,#122,.F.);
#167 = ORIENTED_EDGE('',*,*,#168,.F.);
#168 = EDGE_CURVE('',#151,#123,#169,.T.);
#169 = LINE('',#170,#171);
#170 = CARTESIAN_POINT('',(-1.229999999999,-1.46969384567,3.));
#171 = VECTOR('',#172,1.);
#172 = DIRECTION('',(0.,0.,1.));
#173 = CYLINDRICAL_SURFACE('',#174,2.9);
#174 = AXIS2_PLACEMENT_3D('',#175,#176,#177);
#175 = CARTESIAN_POINT('',(1.27,0.,3.));
#176 = DIRECTION('',(-0.,-0.,-1.));
#177 = DIRECTION('',(1.,0.,0.));
#178 = ADVANCED_FACE('',(#179),#190,.T.);
#179 = FACE_BOUND('',#180,.T.);
#180 = EDGE_LOOP('',(#181,#182,#183,#184));
#181 = ORIENTED_EDGE('',*,*,#168,.T.);
#182 = ORIENTED_EDGE('',*,*,#133,.T.);
#183 = ORIENTED_EDGE('',*,*,#161,.F.);
#184 = ORIENTED_EDGE('',*,*,#185,.F.);
#185 = EDGE_CURVE('',#151,#153,#186,.T.);
#186 = LINE('',#187,#188);
#187 = CARTESIAN_POINT('',(-1.229999999999,-1.46969384567,3.));
#188 = VECTOR('',#189,1.);
#189 = DIRECTION('',(0.,1.,0.));
#190 = PLANE('',#191);
#191 = AXIS2_PLACEMENT_3D('',#192,#193,#194);
#192 = CARTESIAN_POINT('',(-1.229999999999,-1.46969384567,3.));
#193 = DIRECTION('',(-1.,0.,0.));
#194 = DIRECTION('',(0.,1.,0.));
#195 = ADVANCED_FACE('',(#196,#200,#234),#268,.T.);
#196 = FACE_BOUND('',#197,.T.);
#197 = EDGE_LOOP('',(#198,#199));
#198 = ORIENTED_EDGE('',*,*,#150,.F.);
#199 = ORIENTED_EDGE('',*,*,#185,.T.);
#200 = FACE_BOUND('',#201,.T.);
#201 = EDGE_LOOP('',(#202,#212,#220,#228));
#202 = ORIENTED_EDGE('',*,*,#203,.T.);
#203 = EDGE_CURVE('',#204,#206,#208,.T.);
#204 = VERTEX_POINT('',#205);
#205 = CARTESIAN_POINT('',(-0.2,-0.2,3.));
#206 = VERTEX_POINT('',#207);
#207 = CARTESIAN_POINT('',(0.2,-0.2,3.));
#208 = LINE('',#209,#210);
#209 = CARTESIAN_POINT('',(-0.515,-0.2,3.));
#210 = VECTOR('',#211,1.);
#211 = DIRECTION('',(1.,0.,0.));
#212 = ORIENTED_EDGE('',*,*,#213,.T.);
#213 = EDGE_CURVE('',#206,#214,#216,.T.);
#214 = VERTEX_POINT('',#215);
#215 = CARTESIAN_POINT('',(0.2,0.2,3.));
#216 = LINE('',#217,#218);
#217 = CARTESIAN_POINT('',(0.2,-0.634846922835,3.));
#218 = VECTOR('',#219,1.);
#219 = DIRECTION('',(0.,1.,0.));
#220 = ORIENTED_EDGE('',*,*,#221,.T.);
#221 = EDGE_CURVE('',#214,#222,#224,.T.);
#222 = VERTEX_POINT('',#223);
#223 = CARTESIAN_POINT('',(-0.2,0.2,3.));
#224 = LINE('',#225,#226);
#225 = CARTESIAN_POINT('',(-0.715,0.2,3.));
#226 = VECTOR('',#227,1.);
#227 = DIRECTION('',(-1.,-0.,-0.));
#228 = ORIENTED_EDGE('',*,*,#229,.T.);
#229 = EDGE_CURVE('',#222,#204,#230,.T.);
#230 = LINE('',#231,#232);
#231 = CARTESIAN_POINT('',(-0.2,-0.834846922835,3.));
#232 = VECTOR('',#233,1.);
#233 = DIRECTION('',(0.,-1.,0.));
#234 = FACE_BOUND('',#235,.T.);
#235 = EDGE_LOOP('',(#236,#246,#254,#262));
#236 = ORIENTED_EDGE('',*,*,#237,.T.);
#237 = EDGE_CURVE('',#238,#240,#242,.T.);
#238 = VERTEX_POINT('',#239);
#239 = CARTESIAN_POINT('',(2.34,0.2,3.));
#240 = VERTEX_POINT('',#241);
#241 = CARTESIAN_POINT('',(2.34,-0.2,3.));
#242 = LINE('',#243,#244);
#243 = CARTESIAN_POINT('',(2.34,-0.834846922835,3.));
#244 = VECTOR('',#245,1.);
#245 = DIRECTION('',(0.,-1.,0.));
#246 = ORIENTED_EDGE('',*,*,#247,.T.);
#247 = EDGE_CURVE('',#240,#248,#250,.T.);
#248 = VERTEX_POINT('',#249);
#249 = CARTESIAN_POINT('',(2.74,-0.2,3.));
#250 = LINE('',#251,#252);
#251 = CARTESIAN_POINT('',(0.755,-0.2,3.));
#252 = VECTOR('',#253,1.);
#253 = DIRECTION('',(1.,0.,0.));
#254 = ORIENTED_EDGE('',*,*,#255,.T.);
#255 = EDGE_CURVE('',#248,#256,#258,.T.);
#256 = VERTEX_POINT('',#257);
#257 = CARTESIAN_POINT('',(2.74,0.2,3.));
#258 = LINE('',#259,#260);
#259 = CARTESIAN_POINT('',(2.74,-0.634846922835,3.));
#260 = VECTOR('',#261,1.);
#261 = DIRECTION('',(0.,1.,0.));
#262 = ORIENTED_EDGE('',*,*,#263,.T.);
#263 = EDGE_CURVE('',#256,#238,#264,.T.);
#264 = LINE('',#265,#266);
#265 = CARTESIAN_POINT('',(0.555,0.2,3.));
#266 = VECTOR('',#267,1.);
#267 = DIRECTION('',(-1.,-0.,-0.));
#268 = PLANE('',#269);
#269 = AXIS2_PLACEMENT_3D('',#270,#271,#272);
#270 = CARTESIAN_POINT('',(-1.229999999999,-1.469693845671,3.));
#271 = DIRECTION('',(0.,0.,-1.));
#272 = DIRECTION('',(-1.,0.,0.));
#273 = ADVANCED_FACE('',(#274),#299,.F.);
#274 = FACE_BOUND('',#275,.F.);
#275 = EDGE_LOOP('',(#276,#277,#285,#293));
#276 = ORIENTED_EDGE('',*,*,#203,.T.);
#277 = ORIENTED_EDGE('',*,*,#278,.T.);
#278 = EDGE_CURVE('',#206,#279,#281,.T.);
#279 = VERTEX_POINT('',#280);
#280 = CARTESIAN_POINT('',(0.2,-0.2,-2.5));
#281 = LINE('',#282,#283);
#282 = CARTESIAN_POINT('',(0.2,-0.2,3.5));
#283 = VECTOR('',#284,1.);
#284 = DIRECTION('',(-0.,-0.,-1.));
#285 = ORIENTED_EDGE('',*,*,#286,.T.);
#286 = EDGE_CURVE('',#279,#287,#289,.T.);
#287 = VERTEX_POINT('',#288);
#288 = CARTESIAN_POINT('',(-0.2,-0.2,-2.5));
#289 = LINE('',#290,#291);
#290 = CARTESIAN_POINT('',(0.2,-0.2,-2.5));
#291 = VECTOR('',#292,1.);
#292 = DIRECTION('',(-1.,0.,0.));
#293 = ORIENTED_EDGE('',*,*,#294,.F.);
#294 = EDGE_CURVE('',#204,#287,#295,.T.);
#295 = LINE('',#296,#297);
#296 = CARTESIAN_POINT('',(-0.2,-0.2,3.5));
#297 = VECTOR('',#298,1.);
#298 = DIRECTION('',(-0.,-0.,-1.));
#299 = PLANE('',#300);
#300 = AXIS2_PLACEMENT_3D('',#301,#302,#303);
#301 = CARTESIAN_POINT('',(0.2,-0.2,3.5));
#302 = DIRECTION('',(0.,1.,0.));
#303 = DIRECTION('',(-1.,0.,0.));
#304 = ADVANCED_FACE('',(#305),#323,.F.);
#305 = FACE_BOUND('',#306,.F.);
#306 = EDGE_LOOP('',(#307,#308,#309,#317));
#307 = ORIENTED_EDGE('',*,*,#229,.T.);
#308 = ORIENTED_EDGE('',*,*,#294,.T.);
#309 = ORIENTED_EDGE('',*,*,#310,.T.);
#310 = EDGE_CURVE('',#287,#311,#313,.T.);
#311 = VERTEX_POINT('',#312);
#312 = CARTESIAN_POINT('',(-0.2,0.2,-2.5));
#313 = LINE('',#314,#315);
#314 = CARTESIAN_POINT('',(-0.2,-0.2,-2.5));
#315 = VECTOR('',#316,1.);
#316 = DIRECTION('',(0.,1.,0.));
#317 = ORIENTED_EDGE('',*,*,#318,.F.);
#318 = EDGE_CURVE('',#222,#311,#319,.T.);
#319 = LINE('',#320,#321);
#320 = CARTESIAN_POINT('',(-0.2,0.2,3.5));
#321 = VECTOR('',#322,1.);
#322 = DIRECTION('',(-0.,-0.,-1.));
#323 = PLANE('',#324);
#324 = AXIS2_PLACEMENT_3D('',#325,#326,#327);
#325 = CARTESIAN_POINT('',(-0.2,-0.2,3.5));
#326 = DIRECTION('',(1.,0.,0.));
#327 = DIRECTION('',(-0.,1.,0.));
#328 = ADVANCED_FACE('',(#329),#347,.F.);
#329 = FACE_BOUND('',#330,.F.);
#330 = EDGE_LOOP('',(#331,#332,#333,#341));
#331 = ORIENTED_EDGE('',*,*,#221,.T.);
#332 = ORIENTED_EDGE('',*,*,#318,.T.);
#333 = ORIENTED_EDGE('',*,*,#334,.T.);
#334 = EDGE_CURVE('',#311,#335,#337,.T.);
#335 = VERTEX_POINT('',#336);
#336 = CARTESIAN_POINT('',(0.2,0.2,-2.5));
#337 = LINE('',#338,#339);
#338 = CARTESIAN_POINT('',(-0.2,0.2,-2.5));
#339 = VECTOR('',#340,1.);
#340 = DIRECTION('',(1.,0.,0.));
#341 = ORIENTED_EDGE('',*,*,#342,.F.);
#342 = EDGE_CURVE('',#214,#335,#343,.T.);
#343 = LINE('',#344,#345);
#344 = CARTESIAN_POINT('',(0.2,0.2,3.5));
#345 = VECTOR('',#346,1.);
#346 = DIRECTION('',(-0.,-0.,-1.));
#347 = PLANE('',#348);
#348 = AXIS2_PLACEMENT_3D('',#349,#350,#351);
#349 = CARTESIAN_POINT('',(-0.2,0.2,3.5));
#350 = DIRECTION('',(0.,-1.,0.));
#351 = DIRECTION('',(1.,0.,0.));
#352 = ADVANCED_FACE('',(#353),#364,.F.);
#353 = FACE_BOUND('',#354,.F.);
#354 = EDGE_LOOP('',(#355,#356,#357,#363));
#355 = ORIENTED_EDGE('',*,*,#213,.T.);
#356 = ORIENTED_EDGE('',*,*,#342,.T.);
#357 = ORIENTED_EDGE('',*,*,#358,.T.);
#358 = EDGE_CURVE('',#335,#279,#359,.T.);
#359 = LINE('',#360,#361);
#360 = CARTESIAN_POINT('',(0.2,0.2,-2.5));
#361 = VECTOR('',#362,1.);
#362 = DIRECTION('',(0.,-1.,0.));
#363 = ORIENTED_EDGE('',*,*,#278,.F.);
#364 = PLANE('',#365);
#365 = AXIS2_PLACEMENT_3D('',#366,#367,#368);
#366 = CARTESIAN_POINT('',(0.2,0.2,3.5));
#367 = DIRECTION('',(-1.,0.,0.));
#368 = DIRECTION('',(0.,-1.,0.));
#369 = ADVANCED_FACE('',(#370),#395,.F.);
#370 = FACE_BOUND('',#371,.F.);
#371 = EDGE_LOOP('',(#372,#373,#381,#389));
#372 = ORIENTED_EDGE('',*,*,#237,.T.);
#373 = ORIENTED_EDGE('',*,*,#374,.T.);
#374 = EDGE_CURVE('',#240,#375,#377,.T.);
#375 = VERTEX_POINT('',#376);
#376 = CARTESIAN_POINT('',(2.34,-0.2,-2.5));
#377 = LINE('',#378,#379);
#378 = CARTESIAN_POINT('',(2.34,-0.2,3.5));
#379 = VECTOR('',#380,1.);
#380 = DIRECTION('',(-0.,-0.,-1.));
#381 = ORIENTED_EDGE('',*,*,#382,.T.);
#382 = EDGE_CURVE('',#375,#383,#385,.T.);
#383 = VERTEX_POINT('',#384);
#384 = CARTESIAN_POINT('',(2.34,0.2,-2.5));
#385 = LINE('',#386,#387);
#386 = CARTESIAN_POINT('',(2.34,-0.2,-2.5));
#387 = VECTOR('',#388,1.);
#388 = DIRECTION('',(0.,1.,0.));
#389 = ORIENTED_EDGE('',*,*,#390,.F.);
#390 = EDGE_CURVE('',#238,#383,#391,.T.);
#391 = LINE('',#392,#393);
#392 = CARTESIAN_POINT('',(2.34,0.2,3.5));
#393 = VECTOR('',#394,1.);
#394 = DIRECTION('',(-0.,-0.,-1.));
#395 = PLANE('',#396);
#396 = AXIS2_PLACEMENT_3D('',#397,#398,#399);
#397 = CARTESIAN_POINT('',(2.34,-0.2,3.5));
#398 = DIRECTION('',(1.,0.,0.));
#399 = DIRECTION('',(-0.,1.,0.));
#400 = ADVANCED_FACE('',(#401),#419,.F.);
#401 = FACE_BOUND('',#402,.F.);
#402 = EDGE_LOOP('',(#403,#404,#405,#413));
#403 = ORIENTED_EDGE('',*,*,#263,.T.);
#404 = ORIENTED_EDGE('',*,*,#390,.T.);
#405 = ORIENTED_EDGE('',*,*,#406,.T.);
#406 = EDGE_CURVE('',#383,#407,#409,.T.);
#407 = VERTEX_POINT('',#408);
#408 = CARTESIAN_POINT('',(2.74,0.2,-2.5));
#409 = LINE('',#410,#411);
#410 = CARTESIAN_POINT('',(2.34,0.2,-2.5));
#411 = VECTOR('',#412,1.);
#412 = DIRECTION('',(1.,0.,0.));
#413 = ORIENTED_EDGE('',*,*,#414,.F.);
#414 = EDGE_CURVE('',#256,#407,#415,.T.);
#415 = LINE('',#416,#417);
#416 = CARTESIAN_POINT('',(2.74,0.2,3.5));
#417 = VECTOR('',#418,1.);
#418 = DIRECTION('',(-0.,-0.,-1.));
#419 = PLANE('',#420);
#420 = AXIS2_PLACEMENT_3D('',#421,#422,#423);
#421 = CARTESIAN_POINT('',(2.34,0.2,3.5));
#422 = DIRECTION('',(0.,-1.,0.));
#423 = DIRECTION('',(1.,0.,0.));
#424 = ADVANCED_FACE('',(#425),#443,.F.);
#425 = FACE_BOUND('',#426,.F.);
#426 = EDGE_LOOP('',(#427,#428,#429,#437));
#427 = ORIENTED_EDGE('',*,*,#255,.T.);
#428 = ORIENTED_EDGE('',*,*,#414,.T.);
#429 = ORIENTED_EDGE('',*,*,#430,.T.);
#430 = EDGE_CURVE('',#407,#431,#433,.T.);
#431 = VERTEX_POINT('',#432);
#432 = CARTESIAN_POINT('',(2.74,-0.2,-2.5));
#433 = LINE('',#434,#435);
#434 = CARTESIAN_POINT('',(2.74,0.2,-2.5));
#435 = VECTOR('',#436,1.);
#436 = DIRECTION('',(0.,-1.,0.));
#437 = ORIENTED_EDGE('',*,*,#438,.F.);
#438 = EDGE_CURVE('',#248,#431,#439,.T.);
#439 = LINE('',#440,#441);
#440 = CARTESIAN_POINT('',(2.74,-0.2,3.5));
#441 = VECTOR('',#442,1.);
#442 = DIRECTION('',(-0.,-0.,-1.));
#443 = PLANE('',#444);
#444 = AXIS2_PLACEMENT_3D('',#445,#446,#447);
#445 = CARTESIAN_POINT('',(2.74,0.2,3.5));
#446 = DIRECTION('',(-1.,0.,0.));
#447 = DIRECTION('',(0.,-1.,0.));
#448 = ADVANCED_FACE('',(#449),#460,.F.);
#449 = FACE_BOUND('',#450,.F.);
#450 = EDGE_LOOP('',(#451,#452,#453,#459));
#451 = ORIENTED_EDGE('',*,*,#247,.T.);
#452 = ORIENTED_EDGE('',*,*,#438,.T.);
#453 = ORIENTED_EDGE('',*,*,#454,.T.);
#454 = EDGE_CURVE('',#431,#375,#455,.T.);
#455 = LINE('',#456,#457);
#456 = CARTESIAN_POINT('',(2.74,-0.2,-2.5));
#457 = VECTOR('',#458,1.);
#458 = DIRECTION('',(-1.,0.,0.));
#459 = ORIENTED_EDGE('',*,*,#374,.F.);
#460 = PLANE('',#461);
#461 = AXIS2_PLACEMENT_3D('',#462,#463,#464);
#462 = CARTESIAN_POINT('',(2.74,-0.2,3.5));
#463 = DIRECTION('',(0.,1.,0.));
#464 = DIRECTION('',(-1.,0.,0.));
#465 = ADVANCED_FACE('',(#466),#472,.F.);
#466 = FACE_BOUND('',#467,.T.);
#467 = EDGE_LOOP('',(#468,#469,#470,#471));
#468 = ORIENTED_EDGE('',*,*,#334,.T.);
#469 = ORIENTED_EDGE('',*,*,#358,.T.);
#470 = ORIENTED_EDGE('',*,*,#286,.T.);
#471 = ORIENTED_EDGE('',*,*,#310,.T.);
#472 = PLANE('',#473);
#473 = AXIS2_PLACEMENT_3D('',#474,#475,#476);
#474 = CARTESIAN_POINT('',(-0.2,0.2,-2.5));
#475 = DIRECTION('',(0.,0.,1.));
#476 = DIRECTION('',(1.,0.,-0.));
#477 = ADVANCED_FACE('',(#478),#484,.F.);
#478 = FACE_BOUND('',#479,.T.);
#479 = EDGE_LOOP('',(#480,#481,#482,#483));
#480 = ORIENTED_EDGE('',*,*,#406,.T.);
#481 = ORIENTED_EDGE('',*,*,#430,.T.);
#482 = ORIENTED_EDGE('',*,*,#454,.T.);
#483 = ORIENTED_EDGE('',*,*,#382,.T.);
#484 = PLANE('',#485);
#485 = AXIS2_PLACEMENT_3D('',#486,#487,#488);
#486 = CARTESIAN_POINT('',(2.34,0.2,-2.5));
#487 = DIRECTION('',(0.,0.,1.));
#488 = DIRECTION('',(1.,0.,-0.));
#489 = ( GEOMETRIC_REPRESENTATION_CONTEXT(3) 
GLOBAL_UNCERTAINTY_ASSIGNED_CONTEXT((#493)) GLOBAL_UNIT_ASSIGNED_CONTEXT
((#490,#491,#492)) REPRESENTATION_CONTEXT('Context #1',
  '3D Context with UNIT and UNCERTAINTY') );
#490 = ( LENGTH_UNIT() NAMED_UNIT(*) SI_UNIT(.MILLI.,.METRE.) );
#491 = ( NAMED_UNIT(*) PLANE_ANGLE_UNIT() SI_UNIT($,.RADIAN.) );
#492 = ( NAMED_UNIT(*) SI_UNIT($,.STERADIAN.) SOLID_ANGLE_UNIT() );
#493 = UNCERTAINTY_MEASURE_WITH_UNIT(LENGTH_MEASURE(1.E-07),#490,
  'distance_accuracy_value','confusion accuracy');
#494 = CONTEXT_DEPENDENT_SHAPE_REPRESENTATION(#495,#497);
#495 = ( REPRESENTATION_RELATIONSHIP('','',#63,#40) 
REPRESENTATION_RELATIONSHIP_WITH_TRANSFORMATION(#496) 
SHAPE_REPRESENTATION_RELATIONSHIP() );
#496 = ITEM_DEFINED_TRANSFORMATION('','',#11,#41);
#497 = PRODUCT_DEFINITION_SHAPE('Placement','Placement of an item',#498
  );
#498 = NEXT_ASSEMBLY_USAGE_OCCURRENCE('1','=>[0:1:1:3]','',#35,#58,$);
#499 = PRODUCT_RELATED_PRODUCT_CATEGORY('part',$,(#60));
#500 = SHAPE_DEFINITION_REPRESENTATION(#501,#507);
#501 = PRODUCT_DEFINITION_SHAPE('','',#502);
#502 = PRODUCT_DEFINITION('design','',#503,#506);
#503 = PRODUCT_DEFINITION_FORMATION('','',#504);
#504 = PRODUCT('electronic_led_5_mm_red_clear_render_pad',
  'electronic_led_5_mm_red_clear_render_pad','',(#505));
#505 = PRODUCT_CONTEXT('',#2,'mechanical');
#506 = PRODUCT_DEFINITION_CONTEXT('part definition',#2,'design');
#507 = SHAPE_REPRESENTATION('',(#11,#508,#697,#886,#978,#1070,#1162),
  #1254);
#508 = MANIFOLD_SOLID_BREP('',#509);
#509 = CLOSED_SHELL('',(#510,#550,#581,#612,#640,#668,#680));
#510 = ADVANCED_FACE('',(#511),#545,.T.);
#511 = FACE_BOUND('',#512,.T.);
#512 = EDGE_LOOP('',(#513,#523,#531,#539));
#513 = ORIENTED_EDGE('',*,*,#514,.T.);
#514 = EDGE_CURVE('',#515,#517,#519,.T.);
#515 = VERTEX_POINT('',#516);
#516 = CARTESIAN_POINT('',(-0.9,-0.9,1.51));
#517 = VERTEX_POINT('',#518);
#518 = CARTESIAN_POINT('',(-0.9,-0.9,1.55));
#519 = LINE('',#520,#521);
#520 = CARTESIAN_POINT('',(-0.9,-0.9,1.51));
#521 = VECTOR('',#522,1.);
#522 = DIRECTION('',(0.,0.,1.));
#523 = ORIENTED_EDGE('',*,*,#524,.T.);
#524 = EDGE_CURVE('',#517,#525,#527,.T.);
#525 = VERTEX_POINT('',#526);
#526 = CARTESIAN_POINT('',(-0.9,0.9,1.55));
#527 = LINE('',#528,#529);
#528 = CARTESIAN_POINT('',(-0.9,-0.9,1.55));
#529 = VECTOR('',#530,1.);
#530 = DIRECTION('',(0.,1.,0.));
#531 = ORIENTED_EDGE('',*,*,#532,.F.);
#532 = EDGE_CURVE('',#533,#525,#535,.T.);
#533 = VERTEX_POINT('',#534);
#534 = CARTESIAN_POINT('',(-0.9,0.9,1.51));
#535 = LINE('',#536,#537);
#536 = CARTESIAN_POINT('',(-0.9,0.9,1.51));
#537 = VECTOR('',#538,1.);
#538 = DIRECTION('',(0.,0.,1.));
#539 = ORIENTED_EDGE('',*,*,#540,.F.);
#540 = EDGE_CURVE('',#515,#533,#541,.T.);
#541 = LINE('',#542,#543);
#542 = CARTESIAN_POINT('',(-0.9,-0.9,1.51));
#543 = VECTOR('',#544,1.);
#544 = DIRECTION('',(0.,1.,0.));
#545 = PLANE('',#546);
#546 = AXIS2_PLACEMENT_3D('',#547,#548,#549);
#547 = CARTESIAN_POINT('',(-0.9,-0.9,1.51));
#548 = DIRECTION('',(-1.,0.,0.));
#549 = DIRECTION('',(0.,1.,0.));
#550 = ADVANCED_FACE('',(#551),#576,.T.);
#551 = FACE_BOUND('',#552,.T.);
#552 = EDGE_LOOP('',(#553,#563,#569,#570));
#553 = ORIENTED_EDGE('',*,*,#554,.T.);
#554 = EDGE_CURVE('',#555,#557,#559,.T.);
#555 = VERTEX_POINT('',#556);
#556 = CARTESIAN_POINT('',(0.9,-0.9,1.51));
#557 = VERTEX_POINT('',#558);
#558 = CARTESIAN_POINT('',(0.9,-0.9,1.55));
#559 = LINE('',#560,#561);
#560 = CARTESIAN_POINT('',(0.9,-0.9,1.51));
#561 = VECTOR('',#562,1.);
#562 = DIRECTION('',(0.,0.,1.));
#563 = ORIENTED_EDGE('',*,*,#564,.T.);
#564 = EDGE_CURVE('',#557,#517,#565,.T.);
#565 = LINE('',#566,#567);
#566 = CARTESIAN_POINT('',(0.9,-0.9,1.55));
#567 = VECTOR('',#568,1.);
#568 = DIRECTION('',(-1.,0.,0.));
#569 = ORIENTED_EDGE('',*,*,#514,.F.);
#570 = ORIENTED_EDGE('',*,*,#571,.F.);
#571 = EDGE_CURVE('',#555,#515,#572,.T.);
#572 = LINE('',#573,#574);
#573 = CARTESIAN_POINT('',(0.9,-0.9,1.51));
#574 = VECTOR('',#575,1.);
#575 = DIRECTION('',(-1.,0.,0.));
#576 = PLANE('',#577);
#577 = AXIS2_PLACEMENT_3D('',#578,#579,#580);
#578 = CARTESIAN_POINT('',(0.9,-0.9,1.51));
#579 = DIRECTION('',(0.,-1.,0.));
#580 = DIRECTION('',(-1.,0.,0.));
#581 = ADVANCED_FACE('',(#582),#607,.T.);
#582 = FACE_BOUND('',#583,.T.);
#583 = EDGE_LOOP('',(#584,#585,#593,#601));
#584 = ORIENTED_EDGE('',*,*,#532,.T.);
#585 = ORIENTED_EDGE('',*,*,#586,.T.);
#586 = EDGE_CURVE('',#525,#587,#589,.T.);
#587 = VERTEX_POINT('',#588);
#588 = CARTESIAN_POINT('',(0.9,0.9,1.55));
#589 = LINE('',#590,#591);
#590 = CARTESIAN_POINT('',(-0.9,0.9,1.55));
#591 = VECTOR('',#592,1.);
#592 = DIRECTION('',(1.,0.,0.));
#593 = ORIENTED_EDGE('',*,*,#594,.F.);
#594 = EDGE_CURVE('',#595,#587,#597,.T.);
#595 = VERTEX_POINT('',#596);
#596 = CARTESIAN_POINT('',(0.9,0.9,1.51));
#597 = LINE('',#598,#599);
#598 = CARTESIAN_POINT('',(0.9,0.9,1.51));
#599 = VECTOR('',#600,1.);
#600 = DIRECTION('',(0.,0.,1.));
#601 = ORIENTED_EDGE('',*,*,#602,.F.);
#602 = EDGE_CURVE('',#533,#595,#603,.T.);
#603 = LINE('',#604,#605);
#604 = CARTESIAN_POINT('',(-0.9,0.9,1.51));
#605 = VECTOR('',#606,1.);
#606 = DIRECTION('',(1.,0.,0.));
#607 = PLANE('',#608);
#608 = AXIS2_PLACEMENT_3D('',#609,#610,#611);
#609 = CARTESIAN_POINT('',(-0.9,0.9,1.51));
#610 = DIRECTION('',(0.,1.,0.));
#611 = DIRECTION('',(1.,0.,0.));
#612 = ADVANCED_FACE('',(#613,#624),#635,.F.);
#613 = FACE_BOUND('',#614,.F.);
#614 = EDGE_LOOP('',(#615,#616,#617,#623));
#615 = ORIENTED_EDGE('',*,*,#540,.F.);
#616 = ORIENTED_EDGE('',*,*,#571,.F.);
#617 = ORIENTED_EDGE('',*,*,#618,.F.);
#618 = EDGE_CURVE('',#595,#555,#619,.T.);
#619 = LINE('',#620,#621);
#620 = CARTESIAN_POINT('',(0.9,0.9,1.51));
#621 = VECTOR('',#622,1.);
#622 = DIRECTION('',(0.,-1.,0.));
#623 = ORIENTED_EDGE('',*,*,#602,.F.);
#624 = FACE_BOUND('',#625,.F.);
#625 = EDGE_LOOP('',(#626));
#626 = ORIENTED_EDGE('',*,*,#627,.T.);
#627 = EDGE_CURVE('',#628,#628,#630,.T.);
#628 = VERTEX_POINT('',#629);
#629 = CARTESIAN_POINT('',(-6.162975822039E-33,-0.425,1.51));
#630 = CIRCLE('',#631,0.425);
#631 = AXIS2_PLACEMENT_3D('',#632,#633,#634);
#632 = CARTESIAN_POINT('',(-4.163336342344E-17,6.938893903907E-17,1.51)
  );
#633 = DIRECTION('',(-0.,0.,-1.));
#634 = DIRECTION('',(9.796085511398E-17,-1.,-0.));
#635 = PLANE('',#636);
#636 = AXIS2_PLACEMENT_3D('',#637,#638,#639);
#637 = CARTESIAN_POINT('',(0.,0.,1.51));
#638 = DIRECTION('',(0.,0.,1.));
#639 = DIRECTION('',(1.,0.,-0.));
#640 = ADVANCED_FACE('',(#641,#652),#663,.T.);
#641 = FACE_BOUND('',#642,.T.);
#642 = EDGE_LOOP('',(#643,#644,#645,#651));
#643 = ORIENTED_EDGE('',*,*,#524,.F.);
#644 = ORIENTED_EDGE('',*,*,#564,.F.);
#645 = ORIENTED_EDGE('',*,*,#646,.F.);
#646 = EDGE_CURVE('',#587,#557,#647,.T.);
#647 = LINE('',#648,#649);
#648 = CARTESIAN_POINT('',(0.9,0.9,1.55));
#649 = VECTOR('',#650,1.);
#650 = DIRECTION('',(0.,-1.,0.));
#651 = ORIENTED_EDGE('',*,*,#586,.F.);
#652 = FACE_BOUND('',#653,.T.);
#653 = EDGE_LOOP('',(#654));
#654 = ORIENTED_EDGE('',*,*,#655,.T.);
#655 = EDGE_CURVE('',#656,#656,#658,.T.);
#656 = VERTEX_POINT('',#657);
#657 = CARTESIAN_POINT('',(-6.162975822039E-33,-0.425,1.55));
#658 = CIRCLE('',#659,0.425);
#659 = AXIS2_PLACEMENT_3D('',#660,#661,#662);
#660 = CARTESIAN_POINT('',(-4.163336342344E-17,6.938893903907E-17,1.55)
  );
#661 = DIRECTION('',(-0.,0.,-1.));
#662 = DIRECTION('',(9.796085511398E-17,-1.,-0.));
#663 = PLANE('',#664);
#664 = AXIS2_PLACEMENT_3D('',#665,#666,#667);
#665 = CARTESIAN_POINT('',(0.,0.,1.55));
#666 = DIRECTION('',(0.,0.,1.));
#667 = DIRECTION('',(1.,0.,-0.));
#668 = ADVANCED_FACE('',(#669),#675,.T.);
#669 = FACE_BOUND('',#670,.T.);
#670 = EDGE_LOOP('',(#671,#672,#673,#674));
#671 = ORIENTED_EDGE('',*,*,#594,.T.);
#672 = ORIENTED_EDGE('',*,*,#646,.T.);
#673 = ORIENTED_EDGE('',*,*,#554,.F.);
#674 = ORIENTED_EDGE('',*,*,#618,.F.);
#675 = PLANE('',#676);
#676 = AXIS2_PLACEMENT_3D('',#677,#678,#679);
#677 = CARTESIAN_POINT('',(0.9,0.9,1.51));
#678 = DIRECTION('',(1.,0.,-0.));
#679 = DIRECTION('',(0.,-1.,0.));
#680 = ADVANCED_FACE('',(#681),#692,.F.);
#681 = FACE_BOUND('',#682,.T.);
#682 = EDGE_LOOP('',(#683,#684,#690,#691));
#683 = ORIENTED_EDGE('',*,*,#627,.T.);
#684 = ORIENTED_EDGE('',*,*,#685,.T.);
#685 = EDGE_CURVE('',#628,#656,#686,.T.);
#686 = LINE('',#687,#688);
#687 = CARTESIAN_POINT('',(-6.162975822039E-33,-0.425,-4.6E-02));
#688 = VECTOR('',#689,1.);
#689 = DIRECTION('',(0.,0.,1.));
#690 = ORIENTED_EDGE('',*,*,#655,.F.);
#691 = ORIENTED_EDGE('',*,*,#685,.F.);
#692 = CYLINDRICAL_SURFACE('',#693,0.425);
#693 = AXIS2_PLACEMENT_3D('',#694,#695,#696);
#694 = CARTESIAN_POINT('',(-4.163336342344E-17,6.938893903907E-17,
    -4.6E-02));
#695 = DIRECTION('',(-0.,0.,-1.));
#696 = DIRECTION('',(9.796085511398E-17,-1.,-0.));
#697 = MANIFOLD_SOLID_BREP('',#698);
#698 = CLOSED_SHELL('',(#699,#739,#770,#801,#829,#857,#869));
#699 = ADVANCED_FACE('',(#700),#734,.F.);
#700 = FACE_BOUND('',#701,.F.);
#701 = EDGE_LOOP('',(#702,#712,#720,#728));
#702 = ORIENTED_EDGE('',*,*,#703,.T.);
#703 = EDGE_CURVE('',#704,#706,#708,.T.);
#704 = VERTEX_POINT('',#705);
#705 = CARTESIAN_POINT('',(-0.9,-0.9,0.));
#706 = VERTEX_POINT('',#707);
#707 = CARTESIAN_POINT('',(-0.9,-0.9,-4.E-02));
#708 = LINE('',#709,#710);
#709 = CARTESIAN_POINT('',(-0.9,-0.9,0.));
#710 = VECTOR('',#711,1.);
#711 = DIRECTION('',(0.,0.,-1.));
#712 = ORIENTED_EDGE('',*,*,#713,.T.);
#713 = EDGE_CURVE('',#706,#714,#716,.T.);
#714 = VERTEX_POINT('',#715);
#715 = CARTESIAN_POINT('',(-0.9,0.9,-4.E-02));
#716 = LINE('',#717,#718);
#717 = CARTESIAN_POINT('',(-0.9,-0.9,-4.E-02));
#718 = VECTOR('',#719,1.);
#719 = DIRECTION('',(0.,1.,0.));
#720 = ORIENTED_EDGE('',*,*,#721,.F.);
#721 = EDGE_CURVE('',#722,#714,#724,.T.);
#722 = VERTEX_POINT('',#723);
#723 = CARTESIAN_POINT('',(-0.9,0.9,0.));
#724 = LINE('',#725,#726);
#725 = CARTESIAN_POINT('',(-0.9,0.9,0.));
#726 = VECTOR('',#727,1.);
#727 = DIRECTION('',(0.,0.,-1.));
#728 = ORIENTED_EDGE('',*,*,#729,.F.);
#729 = EDGE_CURVE('',#704,#722,#730,.T.);
#730 = LINE('',#731,#732);
#731 = CARTESIAN_POINT('',(-0.9,-0.9,0.));
#732 = VECTOR('',#733,1.);
#733 = DIRECTION('',(0.,1.,0.));
#734 = PLANE('',#735);
#735 = AXIS2_PLACEMENT_3D('',#736,#737,#738);
#736 = CARTESIAN_POINT('',(-0.9,-0.9,0.));
#737 = DIRECTION('',(1.,-0.,0.));
#738 = DIRECTION('',(0.,1.,0.));
#739 = ADVANCED_FACE('',(#740),#765,.F.);
#740 = FACE_BOUND('',#741,.F.);
#741 = EDGE_LOOP('',(#742,#752,#758,#759));
#742 = ORIENTED_EDGE('',*,*,#743,.T.);
#743 = EDGE_CURVE('',#744,#746,#748,.T.);
#744 = VERTEX_POINT('',#745);
#745 = CARTESIAN_POINT('',(0.9,-0.9,0.));
#746 = VERTEX_POINT('',#747);
#747 = CARTESIAN_POINT('',(0.9,-0.9,-4.E-02));
#748 = LINE('',#749,#750);
#749 = CARTESIAN_POINT('',(0.9,-0.9,0.));
#750 = VECTOR('',#751,1.);
#751 = DIRECTION('',(0.,0.,-1.));
#752 = ORIENTED_EDGE('',*,*,#753,.T.);
#753 = EDGE_CURVE('',#746,#706,#754,.T.);
#754 = LINE('',#755,#756);
#755 = CARTESIAN_POINT('',(0.9,-0.9,-4.E-02));
#756 = VECTOR('',#757,1.);
#757 = DIRECTION('',(-1.,0.,0.));
#758 = ORIENTED_EDGE('',*,*,#703,.F.);
#759 = ORIENTED_EDGE('',*,*,#760,.F.);
#760 = EDGE_CURVE('',#744,#704,#761,.T.);
#761 = LINE('',#762,#763);
#762 = CARTESIAN_POINT('',(0.9,-0.9,0.));
#763 = VECTOR('',#764,1.);
#764 = DIRECTION('',(-1.,0.,0.));
#765 = PLANE('',#766);
#766 = AXIS2_PLACEMENT_3D('',#767,#768,#769);
#767 = CARTESIAN_POINT('',(0.9,-0.9,0.));
#768 = DIRECTION('',(0.,1.,0.));
#769 = DIRECTION('',(-1.,0.,0.));
#770 = ADVANCED_FACE('',(#771),#796,.F.);
#771 = FACE_BOUND('',#772,.F.);
#772 = EDGE_LOOP('',(#773,#774,#782,#790));
#773 = ORIENTED_EDGE('',*,*,#721,.T.);
#774 = ORIENTED_EDGE('',*,*,#775,.T.);
#775 = EDGE_CURVE('',#714,#776,#778,.T.);
#776 = VERTEX_POINT('',#777);
#777 = CARTESIAN_POINT('',(0.9,0.9,-4.E-02));
#778 = LINE('',#779,#780);
#779 = CARTESIAN_POINT('',(-0.9,0.9,-4.E-02));
#780 = VECTOR('',#781,1.);
#781 = DIRECTION('',(1.,0.,0.));
#782 = ORIENTED_EDGE('',*,*,#783,.F.);
#783 = EDGE_CURVE('',#784,#776,#786,.T.);
#784 = VERTEX_POINT('',#785);
#785 = CARTESIAN_POINT('',(0.9,0.9,0.));
#786 = LINE('',#787,#788);
#787 = CARTESIAN_POINT('',(0.9,0.9,0.));
#788 = VECTOR('',#789,1.);
#789 = DIRECTION('',(0.,0.,-1.));
#790 = ORIENTED_EDGE('',*,*,#791,.F.);
#791 = EDGE_CURVE('',#722,#784,#792,.T.);
#792 = LINE('',#793,#794);
#793 = CARTESIAN_POINT('',(-0.9,0.9,0.));
#794 = VECTOR('',#795,1.);
#795 = DIRECTION('',(1.,0.,0.));
#796 = PLANE('',#797);
#797 = AXIS2_PLACEMENT_3D('',#798,#799,#800);
#798 = CARTESIAN_POINT('',(-0.9,0.9,0.));
#799 = DIRECTION('',(0.,-1.,0.));
#800 = DIRECTION('',(1.,0.,0.));
#801 = ADVANCED_FACE('',(#802,#813),#824,.F.);
#802 = FACE_BOUND('',#803,.F.);
#803 = EDGE_LOOP('',(#804,#805,#806,#812));
#804 = ORIENTED_EDGE('',*,*,#729,.T.);
#805 = ORIENTED_EDGE('',*,*,#791,.T.);
#806 = ORIENTED_EDGE('',*,*,#807,.T.);
#807 = EDGE_CURVE('',#784,#744,#808,.T.);
#808 = LINE('',#809,#810);
#809 = CARTESIAN_POINT('',(0.9,0.9,0.));
#810 = VECTOR('',#811,1.);
#811 = DIRECTION('',(0.,-1.,0.));
#812 = ORIENTED_EDGE('',*,*,#760,.T.);
#813 = FACE_BOUND('',#814,.F.);
#814 = EDGE_LOOP('',(#815));
#815 = ORIENTED_EDGE('',*,*,#816,.F.);
#816 = EDGE_CURVE('',#817,#817,#819,.T.);
#817 = VERTEX_POINT('',#818);
#818 = CARTESIAN_POINT('',(-6.162975822039E-33,-0.425,0.));
#819 = CIRCLE('',#820,0.425);
#820 = AXIS2_PLACEMENT_3D('',#821,#822,#823);
#821 = CARTESIAN_POINT('',(-4.163336342344E-17,6.938893903907E-17,0.));
#822 = DIRECTION('',(-0.,0.,-1.));
#823 = DIRECTION('',(9.796085511398E-17,-1.,-0.));
#824 = PLANE('',#825);
#825 = AXIS2_PLACEMENT_3D('',#826,#827,#828);
#826 = CARTESIAN_POINT('',(0.,0.,0.));
#827 = DIRECTION('',(-0.,-0.,-1.));
#828 = DIRECTION('',(-1.,0.,0.));
#829 = ADVANCED_FACE('',(#830,#841),#852,.T.);
#830 = FACE_BOUND('',#831,.T.);
#831 = EDGE_LOOP('',(#832,#833,#834,#840));
#832 = ORIENTED_EDGE('',*,*,#713,.T.);
#833 = ORIENTED_EDGE('',*,*,#775,.T.);
#834 = ORIENTED_EDGE('',*,*,#835,.T.);
#835 = EDGE_CURVE('',#776,#746,#836,.T.);
#836 = LINE('',#837,#838);
#837 = CARTESIAN_POINT('',(0.9,0.9,-4.E-02));
#838 = VECTOR('',#839,1.);
#839 = DIRECTION('',(0.,-1.,0.));
#840 = ORIENTED_EDGE('',*,*,#753,.T.);
#841 = FACE_BOUND('',#842,.T.);
#842 = EDGE_LOOP('',(#843));
#843 = ORIENTED_EDGE('',*,*,#844,.F.);
#844 = EDGE_CURVE('',#845,#845,#847,.T.);
#845 = VERTEX_POINT('',#846);
#846 = CARTESIAN_POINT('',(-6.162975822039E-33,-0.425,-4.E-02));
#847 = CIRCLE('',#848,0.425);
#848 = AXIS2_PLACEMENT_3D('',#849,#850,#851);
#849 = CARTESIAN_POINT('',(-4.163336342344E-17,6.938893903907E-17,
    -4.E-02));
#850 = DIRECTION('',(-0.,0.,-1.));
#851 = DIRECTION('',(9.796085511398E-17,-1.,-0.));
#852 = PLANE('',#853);
#853 = AXIS2_PLACEMENT_3D('',#854,#855,#856);
#854 = CARTESIAN_POINT('',(0.,0.,-4.E-02));
#855 = DIRECTION('',(-0.,-0.,-1.));
#856 = DIRECTION('',(-1.,0.,0.));
#857 = ADVANCED_FACE('',(#858),#864,.F.);
#858 = FACE_BOUND('',#859,.F.);
#859 = EDGE_LOOP('',(#860,#861,#862,#863));
#860 = ORIENTED_EDGE('',*,*,#783,.T.);
#861 = ORIENTED_EDGE('',*,*,#835,.T.);
#862 = ORIENTED_EDGE('',*,*,#743,.F.);
#863 = ORIENTED_EDGE('',*,*,#807,.F.);
#864 = PLANE('',#865);
#865 = AXIS2_PLACEMENT_3D('',#866,#867,#868);
#866 = CARTESIAN_POINT('',(0.9,0.9,0.));
#867 = DIRECTION('',(-1.,-0.,-0.));
#868 = DIRECTION('',(0.,-1.,0.));
#869 = ADVANCED_FACE('',(#870),#881,.F.);
#870 = FACE_BOUND('',#871,.T.);
#871 = EDGE_LOOP('',(#872,#873,#879,#880));
#872 = ORIENTED_EDGE('',*,*,#844,.T.);
#873 = ORIENTED_EDGE('',*,*,#874,.T.);
#874 = EDGE_CURVE('',#845,#817,#875,.T.);
#875 = LINE('',#876,#877);
#876 = CARTESIAN_POINT('',(-6.162975822039E-33,-0.425,-4.6E-02));
#877 = VECTOR('',#878,1.);
#878 = DIRECTION('',(0.,0.,1.));
#879 = ORIENTED_EDGE('',*,*,#816,.F.);
#880 = ORIENTED_EDGE('',*,*,#874,.F.);
#881 = CYLINDRICAL_SURFACE('',#882,0.425);
#882 = AXIS2_PLACEMENT_3D('',#883,#884,#885);
#883 = CARTESIAN_POINT('',(-4.163336342344E-17,6.938893903907E-17,
    -4.6E-02));
#884 = DIRECTION('',(-0.,0.,-1.));
#885 = DIRECTION('',(9.796085511398E-17,-1.,-0.));
#886 = MANIFOLD_SOLID_BREP('',#887);
#887 = CLOSED_SHELL('',(#888,#921,#941,#961));
#888 = ADVANCED_FACE('',(#889),#916,.T.);
#889 = FACE_BOUND('',#890,.F.);
#890 = EDGE_LOOP('',(#891,#901,#908,#909));
#891 = ORIENTED_EDGE('',*,*,#892,.T.);
#892 = EDGE_CURVE('',#893,#895,#897,.T.);
#893 = VERTEX_POINT('',#894);
#894 = CARTESIAN_POINT('',(0.,-0.45,-4.E-02));
#895 = VERTEX_POINT('',#896);
#896 = CARTESIAN_POINT('',(0.,-0.45,1.55));
#897 = LINE('',#898,#899);
#898 = CARTESIAN_POINT('',(0.,-0.45,-4.E-02));
#899 = VECTOR('',#900,1.);
#900 = DIRECTION('',(0.,0.,1.));
#901 = ORIENTED_EDGE('',*,*,#902,.T.);
#902 = EDGE_CURVE('',#895,#895,#903,.T.);
#903 = CIRCLE('',#904,0.45);
#904 = AXIS2_PLACEMENT_3D('',#905,#906,#907);
#905 = CARTESIAN_POINT('',(-4.163336342344E-17,6.938893903907E-17,1.55)
  );
#906 = DIRECTION('',(0.,-0.,1.));
#907 = DIRECTION('',(9.251858538543E-17,-1.,-0.));
#908 = ORIENTED_EDGE('',*,*,#892,.F.);
#909 = ORIENTED_EDGE('',*,*,#910,.F.);
#910 = EDGE_CURVE('',#893,#893,#911,.T.);
#911 = CIRCLE('',#912,0.45);
#912 = AXIS2_PLACEMENT_3D('',#913,#914,#915);
#913 = CARTESIAN_POINT('',(-4.163336342344E-17,6.938893903907E-17,
    -4.E-02));
#914 = DIRECTION('',(0.,-0.,1.));
#915 = DIRECTION('',(9.251858538543E-17,-1.,-0.));
#916 = CYLINDRICAL_SURFACE('',#917,0.45);
#917 = AXIS2_PLACEMENT_3D('',#918,#919,#920);
#918 = CARTESIAN_POINT('',(-4.163336342344E-17,6.938893903907E-17,
    -4.E-02));
#919 = DIRECTION('',(-0.,0.,-1.));
#920 = DIRECTION('',(9.251858538543E-17,-1.,-0.));
#921 = ADVANCED_FACE('',(#922,#925),#936,.F.);
#922 = FACE_BOUND('',#923,.F.);
#923 = EDGE_LOOP('',(#924));
#924 = ORIENTED_EDGE('',*,*,#910,.T.);
#925 = FACE_BOUND('',#926,.F.);
#926 = EDGE_LOOP('',(#927));
#927 = ORIENTED_EDGE('',*,*,#928,.T.);
#928 = EDGE_CURVE('',#929,#929,#931,.T.);
#929 = VERTEX_POINT('',#930);
#930 = CARTESIAN_POINT('',(-6.162975822039E-33,-0.425,-4.E-02));
#931 = CIRCLE('',#932,0.425);
#932 = AXIS2_PLACEMENT_3D('',#933,#934,#935);
#933 = CARTESIAN_POINT('',(-4.163336342344E-17,6.938893903907E-17,
    -4.E-02));
#934 = DIRECTION('',(-0.,0.,-1.));
#935 = DIRECTION('',(9.796085511398E-17,-1.,-0.));
#936 = PLANE('',#937);
#937 = AXIS2_PLACEMENT_3D('',#938,#939,#940);
#938 = CARTESIAN_POINT('',(0.,-0.45,-4.E-02));
#939 = DIRECTION('',(0.,0.,1.));
#940 = DIRECTION('',(1.,0.,-0.));
#941 = ADVANCED_FACE('',(#942,#945),#956,.T.);
#942 = FACE_BOUND('',#943,.T.);
#943 = EDGE_LOOP('',(#944));
#944 = ORIENTED_EDGE('',*,*,#902,.T.);
#945 = FACE_BOUND('',#946,.T.);
#946 = EDGE_LOOP('',(#947));
#947 = ORIENTED_EDGE('',*,*,#948,.T.);
#948 = EDGE_CURVE('',#949,#949,#951,.T.);
#949 = VERTEX_POINT('',#950);
#950 = CARTESIAN_POINT('',(-6.162975822039E-33,-0.425,1.55));
#951 = CIRCLE('',#952,0.425);
#952 = AXIS2_PLACEMENT_3D('',#953,#954,#955);
#953 = CARTESIAN_POINT('',(-4.163336342344E-17,6.938893903907E-17,1.55)
  );
#954 = DIRECTION('',(-0.,0.,-1.));
#955 = DIRECTION('',(9.796085511398E-17,-1.,-0.));
#956 = PLANE('',#957);
#957 = AXIS2_PLACEMENT_3D('',#958,#959,#960);
#958 = CARTESIAN_POINT('',(0.,-0.45,1.55));
#959 = DIRECTION('',(0.,0.,1.));
#960 = DIRECTION('',(1.,0.,-0.));
#961 = ADVANCED_FACE('',(#962),#973,.F.);
#962 = FACE_BOUND('',#963,.T.);
#963 = EDGE_LOOP('',(#964,#965,#971,#972));
#964 = ORIENTED_EDGE('',*,*,#928,.T.);
#965 = ORIENTED_EDGE('',*,*,#966,.T.);
#966 = EDGE_CURVE('',#929,#949,#967,.T.);
#967 = LINE('',#968,#969);
#968 = CARTESIAN_POINT('',(-6.162975822039E-33,-0.425,-4.6E-02));
#969 = VECTOR('',#970,1.);
#970 = DIRECTION('',(0.,0.,1.));
#971 = ORIENTED_EDGE('',*,*,#948,.F.);
#972 = ORIENTED_EDGE('',*,*,#966,.F.);
#973 = CYLINDRICAL_SURFACE('',#974,0.425);
#974 = AXIS2_PLACEMENT_3D('',#975,#976,#977);
#975 = CARTESIAN_POINT('',(-4.163336342344E-17,6.938893903907E-17,
    -4.6E-02));
#976 = DIRECTION('',(-0.,0.,-1.));
#977 = DIRECTION('',(9.796085511398E-17,-1.,-0.));
#978 = MANIFOLD_SOLID_BREP('',#979);
#979 = CLOSED_SHELL('',(#980,#1013,#1033,#1053));
#980 = ADVANCED_FACE('',(#981),#1008,.T.);
#981 = FACE_BOUND('',#982,.F.);
#982 = EDGE_LOOP('',(#983,#993,#1000,#1001));
#983 = ORIENTED_EDGE('',*,*,#984,.T.);
#984 = EDGE_CURVE('',#985,#987,#989,.T.);
#985 = VERTEX_POINT('',#986);
#986 = CARTESIAN_POINT('',(3.439999,0.,1.51));
#987 = VERTEX_POINT('',#988);
#988 = CARTESIAN_POINT('',(3.439999,0.,1.55));
#989 = LINE('',#990,#991);
#990 = CARTESIAN_POINT('',(3.439999,0.,1.51));
#991 = VECTOR('',#992,1.);
#992 = DIRECTION('',(0.,0.,1.));
#993 = ORIENTED_EDGE('',*,*,#994,.T.);
#994 = EDGE_CURVE('',#987,#987,#995,.T.);
#995 = CIRCLE('',#996,0.899999);
#996 = AXIS2_PLACEMENT_3D('',#997,#998,#999);
#997 = CARTESIAN_POINT('',(2.54,0.,1.55));
#998 = DIRECTION('',(0.,0.,1.));
#999 = DIRECTION('',(1.,0.,-0.));
#1000 = ORIENTED_EDGE('',*,*,#984,.F.);
#1001 = ORIENTED_EDGE('',*,*,#1002,.F.);
#1002 = EDGE_CURVE('',#985,#985,#1003,.T.);
#1003 = CIRCLE('',#1004,0.899999);
#1004 = AXIS2_PLACEMENT_3D('',#1005,#1006,#1007);
#1005 = CARTESIAN_POINT('',(2.54,-0.,1.51));
#1006 = DIRECTION('',(0.,0.,1.));
#1007 = DIRECTION('',(1.,0.,-0.));
#1008 = CYLINDRICAL_SURFACE('',#1009,0.899999);
#1009 = AXIS2_PLACEMENT_3D('',#1010,#1011,#1012);
#1010 = CARTESIAN_POINT('',(2.54,-0.,1.51));
#1011 = DIRECTION('',(-0.,-0.,-1.));
#1012 = DIRECTION('',(1.,0.,-0.));
#1013 = ADVANCED_FACE('',(#1014,#1017),#1028,.F.);
#1014 = FACE_BOUND('',#1015,.F.);
#1015 = EDGE_LOOP('',(#1016));
#1016 = ORIENTED_EDGE('',*,*,#1002,.T.);
#1017 = FACE_BOUND('',#1018,.F.);
#1018 = EDGE_LOOP('',(#1019));
#1019 = ORIENTED_EDGE('',*,*,#1020,.T.);
#1020 = EDGE_CURVE('',#1021,#1021,#1023,.T.);
#1021 = VERTEX_POINT('',#1022);
#1022 = CARTESIAN_POINT('',(2.54,-0.425,1.51));
#1023 = CIRCLE('',#1024,0.425);
#1024 = AXIS2_PLACEMENT_3D('',#1025,#1026,#1027);
#1025 = CARTESIAN_POINT('',(2.54,-6.938893903907E-17,1.51));
#1026 = DIRECTION('',(-0.,0.,-1.));
#1027 = DIRECTION('',(-0.,-1.,0.));
#1028 = PLANE('',#1029);
#1029 = AXIS2_PLACEMENT_3D('',#1030,#1031,#1032);
#1030 = CARTESIAN_POINT('',(0.,0.,1.51));
#1031 = DIRECTION('',(0.,0.,1.));
#1032 = DIRECTION('',(1.,0.,-0.));
#1033 = ADVANCED_FACE('',(#1034,#1037),#1048,.T.);
#1034 = FACE_BOUND('',#1035,.T.);
#1035 = EDGE_LOOP('',(#1036));
#1036 = ORIENTED_EDGE('',*,*,#994,.T.);
#1037 = FACE_BOUND('',#1038,.T.);
#1038 = EDGE_LOOP('',(#1039));
#1039 = ORIENTED_EDGE('',*,*,#1040,.T.);
#1040 = EDGE_CURVE('',#1041,#1041,#1043,.T.);
#1041 = VERTEX_POINT('',#1042);
#1042 = CARTESIAN_POINT('',(2.54,-0.425,1.55));
#1043 = CIRCLE('',#1044,0.425);
#1044 = AXIS2_PLACEMENT_3D('',#1045,#1046,#1047);
#1045 = CARTESIAN_POINT('',(2.54,-6.938893903907E-17,1.55));
#1046 = DIRECTION('',(-0.,0.,-1.));
#1047 = DIRECTION('',(-0.,-1.,0.));
#1048 = PLANE('',#1049);
#1049 = AXIS2_PLACEMENT_3D('',#1050,#1051,#1052);
#1050 = CARTESIAN_POINT('',(0.,0.,1.55));
#1051 = DIRECTION('',(0.,0.,1.));
#1052 = DIRECTION('',(1.,0.,-0.));
#1053 = ADVANCED_FACE('',(#1054),#1065,.F.);
#1054 = FACE_BOUND('',#1055,.T.);
#1055 = EDGE_LOOP('',(#1056,#1057,#1063,#1064));
#1056 = ORIENTED_EDGE('',*,*,#1020,.T.);
#1057 = ORIENTED_EDGE('',*,*,#1058,.T.);
#1058 = EDGE_CURVE('',#1021,#1041,#1059,.T.);
#1059 = LINE('',#1060,#1061);
#1060 = CARTESIAN_POINT('',(2.54,-0.425,-4.6E-02));
#1061 = VECTOR('',#1062,1.);
#1062 = DIRECTION('',(0.,0.,1.));
#1063 = ORIENTED_EDGE('',*,*,#1040,.F.);
#1064 = ORIENTED_EDGE('',*,*,#1058,.F.);
#1065 = CYLINDRICAL_SURFACE('',#1066,0.425);
#1066 = AXIS2_PLACEMENT_3D('',#1067,#1068,#1069);
#1067 = CARTESIAN_POINT('',(2.54,-6.938893903907E-17,-4.6E-02));
#1068 = DIRECTION('',(-0.,-0.,-1.));
#1069 = DIRECTION('',(-0.,-1.,0.));
#1070 = MANIFOLD_SOLID_BREP('',#1071);
#1071 = CLOSED_SHELL('',(#1072,#1105,#1125,#1145));
#1072 = ADVANCED_FACE('',(#1073),#1100,.T.);
#1073 = FACE_BOUND('',#1074,.T.);
#1074 = EDGE_LOOP('',(#1075,#1085,#1092,#1093));
#1075 = ORIENTED_EDGE('',*,*,#1076,.T.);
#1076 = EDGE_CURVE('',#1077,#1079,#1081,.T.);
#1077 = VERTEX_POINT('',#1078);
#1078 = CARTESIAN_POINT('',(3.439999,0.,0.));
#1079 = VERTEX_POINT('',#1080);
#1080 = CARTESIAN_POINT('',(3.439999,0.,-4.E-02));
#1081 = LINE('',#1082,#1083);
#1082 = CARTESIAN_POINT('',(3.439999,0.,0.));
#1083 = VECTOR('',#1084,1.);
#1084 = DIRECTION('',(0.,0.,-1.));
#1085 = ORIENTED_EDGE('',*,*,#1086,.T.);
#1086 = EDGE_CURVE('',#1079,#1079,#1087,.T.);
#1087 = CIRCLE('',#1088,0.899999);
#1088 = AXIS2_PLACEMENT_3D('',#1089,#1090,#1091);
#1089 = CARTESIAN_POINT('',(2.54,0.,-4.E-02));
#1090 = DIRECTION('',(0.,0.,1.));
#1091 = DIRECTION('',(1.,0.,-0.));
#1092 = ORIENTED_EDGE('',*,*,#1076,.F.);
#1093 = ORIENTED_EDGE('',*,*,#1094,.F.);
#1094 = EDGE_CURVE('',#1077,#1077,#1095,.T.);
#1095 = CIRCLE('',#1096,0.899999);
#1096 = AXIS2_PLACEMENT_3D('',#1097,#1098,#1099);
#1097 = CARTESIAN_POINT('',(2.54,-0.,0.));
#1098 = DIRECTION('',(0.,0.,1.));
#1099 = DIRECTION('',(1.,0.,-0.));
#1100 = CYLINDRICAL_SURFACE('',#1101,0.899999);
#1101 = AXIS2_PLACEMENT_3D('',#1102,#1103,#1104);
#1102 = CARTESIAN_POINT('',(2.54,-0.,0.));
#1103 = DIRECTION('',(0.,0.,1.));
#1104 = DIRECTION('',(1.,0.,-0.));
#1105 = ADVANCED_FACE('',(#1106,#1109),#1120,.F.);
#1106 = FACE_BOUND('',#1107,.F.);
#1107 = EDGE_LOOP('',(#1108));
#1108 = ORIENTED_EDGE('',*,*,#1094,.F.);
#1109 = FACE_BOUND('',#1110,.F.);
#1110 = EDGE_LOOP('',(#1111));
#1111 = ORIENTED_EDGE('',*,*,#1112,.F.);
#1112 = EDGE_CURVE('',#1113,#1113,#1115,.T.);
#1113 = VERTEX_POINT('',#1114);
#1114 = CARTESIAN_POINT('',(2.54,-0.425,0.));
#1115 = CIRCLE('',#1116,0.425);
#1116 = AXIS2_PLACEMENT_3D('',#1117,#1118,#1119);
#1117 = CARTESIAN_POINT('',(2.54,-6.938893903907E-17,0.));
#1118 = DIRECTION('',(-0.,0.,-1.));
#1119 = DIRECTION('',(-0.,-1.,0.));
#1120 = PLANE('',#1121);
#1121 = AXIS2_PLACEMENT_3D('',#1122,#1123,#1124);
#1122 = CARTESIAN_POINT('',(0.,0.,0.));
#1123 = DIRECTION('',(-0.,-0.,-1.));
#1124 = DIRECTION('',(-1.,0.,0.));
#1125 = ADVANCED_FACE('',(#1126,#1129),#1140,.T.);
#1126 = FACE_BOUND('',#1127,.T.);
#1127 = EDGE_LOOP('',(#1128));
#1128 = ORIENTED_EDGE('',*,*,#1086,.F.);
#1129 = FACE_BOUND('',#1130,.T.);
#1130 = EDGE_LOOP('',(#1131));
#1131 = ORIENTED_EDGE('',*,*,#1132,.F.);
#1132 = EDGE_CURVE('',#1133,#1133,#1135,.T.);
#1133 = VERTEX_POINT('',#1134);
#1134 = CARTESIAN_POINT('',(2.54,-0.425,-4.E-02));
#1135 = CIRCLE('',#1136,0.425);
#1136 = AXIS2_PLACEMENT_3D('',#1137,#1138,#1139);
#1137 = CARTESIAN_POINT('',(2.54,-6.938893903907E-17,-4.E-02));
#1138 = DIRECTION('',(-0.,0.,-1.));
#1139 = DIRECTION('',(-0.,-1.,0.));
#1140 = PLANE('',#1141);
#1141 = AXIS2_PLACEMENT_3D('',#1142,#1143,#1144);
#1142 = CARTESIAN_POINT('',(0.,0.,-4.E-02));
#1143 = DIRECTION('',(-0.,-0.,-1.));
#1144 = DIRECTION('',(-1.,0.,0.));
#1145 = ADVANCED_FACE('',(#1146),#1157,.F.);
#1146 = FACE_BOUND('',#1147,.T.);
#1147 = EDGE_LOOP('',(#1148,#1149,#1155,#1156));
#1148 = ORIENTED_EDGE('',*,*,#1132,.T.);
#1149 = ORIENTED_EDGE('',*,*,#1150,.T.);
#1150 = EDGE_CURVE('',#1133,#1113,#1151,.T.);
#1151 = LINE('',#1152,#1153);
#1152 = CARTESIAN_POINT('',(2.54,-0.425,-4.6E-02));
#1153 = VECTOR('',#1154,1.);
#1154 = DIRECTION('',(0.,0.,1.));
#1155 = ORIENTED_EDGE('',*,*,#1112,.F.);
#1156 = ORIENTED_EDGE('',*,*,#1150,.F.);
#1157 = CYLINDRICAL_SURFACE('',#1158,0.425);
#1158 = AXIS2_PLACEMENT_3D('',#1159,#1160,#1161);
#1159 = CARTESIAN_POINT('',(2.54,-6.938893903907E-17,-4.6E-02));
#1160 = DIRECTION('',(-0.,-0.,-1.));
#1161 = DIRECTION('',(-0.,-1.,0.));
#1162 = MANIFOLD_SOLID_BREP('',#1163);
#1163 = CLOSED_SHELL('',(#1164,#1197,#1217,#1237));
#1164 = ADVANCED_FACE('',(#1165),#1192,.T.);
#1165 = FACE_BOUND('',#1166,.F.);
#1166 = EDGE_LOOP('',(#1167,#1177,#1184,#1185));
#1167 = ORIENTED_EDGE('',*,*,#1168,.T.);
#1168 = EDGE_CURVE('',#1169,#1171,#1173,.T.);
#1169 = VERTEX_POINT('',#1170);
#1170 = CARTESIAN_POINT('',(2.54,-0.45,-4.E-02));
#1171 = VERTEX_POINT('',#1172);
#1172 = CARTESIAN_POINT('',(2.54,-0.45,1.55));
#1173 = LINE('',#1174,#1175);
#1174 = CARTESIAN_POINT('',(2.54,-0.45,-4.E-02));
#1175 = VECTOR('',#1176,1.);
#1176 = DIRECTION('',(0.,0.,1.));
#1177 = ORIENTED_EDGE('',*,*,#1178,.T.);
#1178 = EDGE_CURVE('',#1171,#1171,#1179,.T.);
#1179 = CIRCLE('',#1180,0.45);
#1180 = AXIS2_PLACEMENT_3D('',#1181,#1182,#1183);
#1181 = CARTESIAN_POINT('',(2.54,2.22044604925E-16,1.55));
#1182 = DIRECTION('',(0.,0.,1.));
#1183 = DIRECTION('',(-0.,-1.,0.));
#1184 = ORIENTED_EDGE('',*,*,#1168,.F.);
#1185 = ORIENTED_EDGE('',*,*,#1186,.F.);
#1186 = EDGE_CURVE('',#1169,#1169,#1187,.T.);
#1187 = CIRCLE('',#1188,0.45);
#1188 = AXIS2_PLACEMENT_3D('',#1189,#1190,#1191);
#1189 = CARTESIAN_POINT('',(2.54,2.22044604925E-16,-4.E-02));
#1190 = DIRECTION('',(0.,0.,1.));
#1191 = DIRECTION('',(-0.,-1.,0.));
#1192 = CYLINDRICAL_SURFACE('',#1193,0.45);
#1193 = AXIS2_PLACEMENT_3D('',#1194,#1195,#1196);
#1194 = CARTESIAN_POINT('',(2.54,2.22044604925E-16,-4.E-02));
#1195 = DIRECTION('',(-0.,-0.,-1.));
#1196 = DIRECTION('',(-0.,-1.,0.));
#1197 = ADVANCED_FACE('',(#1198,#1201),#1212,.F.);
#1198 = FACE_BOUND('',#1199,.F.);
#1199 = EDGE_LOOP('',(#1200));
#1200 = ORIENTED_EDGE('',*,*,#1186,.T.);
#1201 = FACE_BOUND('',#1202,.F.);
#1202 = EDGE_LOOP('',(#1203));
#1203 = ORIENTED_EDGE('',*,*,#1204,.T.);
#1204 = EDGE_CURVE('',#1205,#1205,#1207,.T.);
#1205 = VERTEX_POINT('',#1206);
#1206 = CARTESIAN_POINT('',(2.54,-0.425,-4.E-02));
#1207 = CIRCLE('',#1208,0.425);
#1208 = AXIS2_PLACEMENT_3D('',#1209,#1210,#1211);
#1209 = CARTESIAN_POINT('',(2.54,-6.938893903907E-17,-4.E-02));
#1210 = DIRECTION('',(-0.,0.,-1.));
#1211 = DIRECTION('',(-0.,-1.,0.));
#1212 = PLANE('',#1213);
#1213 = AXIS2_PLACEMENT_3D('',#1214,#1215,#1216);
#1214 = CARTESIAN_POINT('',(2.54,-0.45,-4.E-02));
#1215 = DIRECTION('',(0.,0.,1.));
#1216 = DIRECTION('',(1.,0.,-0.));
#1217 = ADVANCED_FACE('',(#1218,#1221),#1232,.T.);
#1218 = FACE_BOUND('',#1219,.T.);
#1219 = EDGE_LOOP('',(#1220));
#1220 = ORIENTED_EDGE('',*,*,#1178,.T.);
#1221 = FACE_BOUND('',#1222,.T.);
#1222 = EDGE_LOOP('',(#1223));
#1223 = ORIENTED_EDGE('',*,*,#1224,.T.);
#1224 = EDGE_CURVE('',#1225,#1225,#1227,.T.);
#1225 = VERTEX_POINT('',#1226);
#1226 = CARTESIAN_POINT('',(2.54,-0.425,1.55));
#1227 = CIRCLE('',#1228,0.425);
#1228 = AXIS2_PLACEMENT_3D('',#1229,#1230,#1231);
#1229 = CARTESIAN_POINT('',(2.54,-6.938893903907E-17,1.55));
#1230 = DIRECTION('',(-0.,0.,-1.));
#1231 = DIRECTION('',(-0.,-1.,0.));
#1232 = PLANE('',#1233);
#1233 = AXIS2_PLACEMENT_3D('',#1234,#1235,#1236);
#1234 = CARTESIAN_POINT('',(2.54,-0.45,1.55));
#1235 = DIRECTION('',(0.,0.,1.));
#1236 = DIRECTION('',(1.,0.,-0.));
#1237 = ADVANCED_FACE('',(#1238),#1249,.F.);
#1238 = FACE_BOUND('',#1239,.T.);
#1239 = EDGE_LOOP('',(#1240,#1241,#1247,#1248));
#1240 = ORIENTED_EDGE('',*,*,#1204,.T.);
#1241 = ORIENTED_EDGE('',*,*,#1242,.T.);
#1242 = EDGE_CURVE('',#1205,#1225,#1243,.T.);
#1243 = LINE('',#1244,#1245);
#1244 = CARTESIAN_POINT('',(2.54,-0.425,-4.6E-02));
#1245 = VECTOR('',#1246,1.);
#1246 = DIRECTION('',(0.,0.,1.));
#1247 = ORIENTED_EDGE('',*,*,#1224,.F.);
#1248 = ORIENTED_EDGE('',*,*,#1242,.F.);
#1249 = CYLINDRICAL_SURFACE('',#1250,0.425);
#1250 = AXIS2_PLACEMENT_3D('',#1251,#1252,#1253);
#1251 = CARTESIAN_POINT('',(2.54,-6.938893903907E-17,-4.6E-02));
#1252 = DIRECTION('',(-0.,-0.,-1.));
#1253 = DIRECTION('',(-0.,-1.,0.));
#1254 = ( GEOMETRIC_REPRESENTATION_CONTEXT(3) 
GLOBAL_UNCERTAINTY_ASSIGNED_CONTEXT((#1258)) 
GLOBAL_UNIT_ASSIGNED_CONTEXT((#1255,#1256,#1257)) REPRESENTATION_CONTEXT
('Context #1','3D Context with UNIT and UNCERTAINTY') );
#1255 = ( LENGTH_UNIT() NAMED_UNIT(*) SI_UNIT(.MILLI.,.METRE.) );
#1256 = ( NAMED_UNIT(*) PLANE_ANGLE_UNIT() SI_UNIT($,.RADIAN.) );
#1257 = ( NAMED_UNIT(*) SI_UNIT($,.STERADIAN.) SOLID_ANGLE_UNIT() );
#1258 = UNCERTAINTY_MEASURE_WITH_UNIT(LENGTH_MEASURE(1.E-07),#1255,
  'distance_accuracy_value','confusion accuracy');
#1259 = CONTEXT_DEPENDENT_SHAPE_REPRESENTATION(#1260,#1262);
#1260 = ( REPRESENTATION_RELATIONSHIP('','',#507,#10) 
REPRESENTATION_RELATIONSHIP_WITH_TRANSFORMATION(#1261) 
SHAPE_REPRESENTATION_RELATIONSHIP() );
#1261 = ITEM_DEFINED_TRANSFORMATION('','',#11,#19);
#1262 = PRODUCT_DEFINITION_SHAPE('Placement','Placement of an item',
  #1263);
#1263 = NEXT_ASSEMBLY_USAGE_OCCURRENCE('3','=>[0:1:1:4]','',#5,#502,$);
#1264 = PRODUCT_RELATED_PRODUCT_CATEGORY('part',$,(#504));
#1265 = SHAPE_DEFINITION_REPRESENTATION(#1266,#1272);
#1266 = PRODUCT_DEFINITION_SHAPE('','',#1267);
#1267 = PRODUCT_DEFINITION('design','',#1268,#1271);
#1268 = PRODUCT_DEFINITION_FORMATION('','',#1269);
#1269 = PRODUCT('electronic_led_5_mm_red_clear_render_PCB',
  'electronic_led_5_mm_red_clear_render_PCB','',(#1270));
#1270 = PRODUCT_CONTEXT('',#2,'mechanical');
#1271 = PRODUCT_DEFINITION_CONTEXT('part definition',#2,'design');
#1272 = ADVANCED_BREP_SHAPE_REPRESENTATION('',(#11,#1273),#1462);
#1273 = MANIFOLD_SOLID_BREP('',#1274);
#1274 = CLOSED_SHELL('',(#1275,#1315,#1346,#1377,#1405,#1433,#1445));
#1275 = ADVANCED_FACE('',(#1276),#1310,.T.);
#1276 = FACE_BOUND('',#1277,.T.);
#1277 = EDGE_LOOP('',(#1278,#1288,#1296,#1304));
#1278 = ORIENTED_EDGE('',*,*,#1279,.T.);
#1279 = EDGE_CURVE('',#1280,#1282,#1284,.T.);
#1280 = VERTEX_POINT('',#1281);
#1281 = CARTESIAN_POINT('',(6.49,-5.21,0.));
#1282 = VERTEX_POINT('',#1283);
#1283 = CARTESIAN_POINT('',(6.49,-5.21,1.51));
#1284 = LINE('',#1285,#1286);
#1285 = CARTESIAN_POINT('',(6.49,-5.21,0.));
#1286 = VECTOR('',#1287,1.);
#1287 = DIRECTION('',(0.,0.,1.));
#1288 = ORIENTED_EDGE('',*,*,#1289,.T.);
#1289 = EDGE_CURVE('',#1282,#1290,#1292,.T.);
#1290 = VERTEX_POINT('',#1291);
#1291 = CARTESIAN_POINT('',(-3.94,-5.21,1.51));
#1292 = LINE('',#1293,#1294);
#1293 = CARTESIAN_POINT('',(6.49,-5.21,1.51));
#1294 = VECTOR('',#1295,1.);
#1295 = DIRECTION('',(-1.,0.,0.));
#1296 = ORIENTED_EDGE('',*,*,#1297,.F.);
#1297 = EDGE_CURVE('',#1298,#1290,#1300,.T.);
#1298 = VERTEX_POINT('',#1299);
#1299 = CARTESIAN_POINT('',(-3.94,-5.21,0.));
#1300 = LINE('',#1301,#1302);
#1301 = CARTESIAN_POINT('',(-3.94,-5.21,0.));
#1302 = VECTOR('',#1303,1.);
#1303 = DIRECTION('',(0.,0.,1.));
#1304 = ORIENTED_EDGE('',*,*,#1305,.F.);
#1305 = EDGE_CURVE('',#1280,#1298,#1306,.T.);
#1306 = LINE('',#1307,#1308);
#1307 = CARTESIAN_POINT('',(6.49,-5.21,0.));
#1308 = VECTOR('',#1309,1.);
#1309 = DIRECTION('',(-1.,0.,0.));
#1310 = PLANE('',#1311);
#1311 = AXIS2_PLACEMENT_3D('',#1312,#1313,#1314);
#1312 = CARTESIAN_POINT('',(6.49,-5.21,0.));
#1313 = DIRECTION('',(0.,-1.,0.));
#1314 = DIRECTION('',(-1.,0.,0.));
#1315 = ADVANCED_FACE('',(#1316),#1341,.T.);
#1316 = FACE_BOUND('',#1317,.T.);
#1317 = EDGE_LOOP('',(#1318,#1328,#1334,#1335));
#1318 = ORIENTED_EDGE('',*,*,#1319,.T.);
#1319 = EDGE_CURVE('',#1320,#1322,#1324,.T.);
#1320 = VERTEX_POINT('',#1321);
#1321 = CARTESIAN_POINT('',(6.49,5.21,0.));
#1322 = VERTEX_POINT('',#1323);
#1323 = CARTESIAN_POINT('',(6.49,5.21,1.51));
#1324 = LINE('',#1325,#1326);
#1325 = CARTESIAN_POINT('',(6.49,5.21,0.));
#1326 = VECTOR('',#1327,1.);
#1327 = DIRECTION('',(0.,0.,1.));
#1328 = ORIENTED_EDGE('',*,*,#1329,.T.);
#1329 = EDGE_CURVE('',#1322,#1282,#1330,.T.);
#1330 = LINE('',#1331,#1332);
#1331 = CARTESIAN_POINT('',(6.49,5.21,1.51));
#1332 = VECTOR('',#1333,1.);
#1333 = DIRECTION('',(0.,-1.,0.));
#1334 = ORIENTED_EDGE('',*,*,#1279,.F.);
#1335 = ORIENTED_EDGE('',*,*,#1336,.F.);
#1336 = EDGE_CURVE('',#1320,#1280,#1337,.T.);
#1337 = LINE('',#1338,#1339);
#1338 = CARTESIAN_POINT('',(6.49,5.21,0.));
#1339 = VECTOR('',#1340,1.);
#1340 = DIRECTION('',(0.,-1.,0.));
#1341 = PLANE('',#1342);
#1342 = AXIS2_PLACEMENT_3D('',#1343,#1344,#1345);
#1343 = CARTESIAN_POINT('',(6.49,5.21,0.));
#1344 = DIRECTION('',(1.,0.,-0.));
#1345 = DIRECTION('',(0.,-1.,0.));
#1346 = ADVANCED_FACE('',(#1347),#1372,.T.);
#1347 = FACE_BOUND('',#1348,.T.);
#1348 = EDGE_LOOP('',(#1349,#1350,#1358,#1366));
#1349 = ORIENTED_EDGE('',*,*,#1297,.T.);
#1350 = ORIENTED_EDGE('',*,*,#1351,.T.);
#1351 = EDGE_CURVE('',#1290,#1352,#1354,.T.);
#1352 = VERTEX_POINT('',#1353);
#1353 = CARTESIAN_POINT('',(-3.94,5.21,1.51));
#1354 = LINE('',#1355,#1356);
#1355 = CARTESIAN_POINT('',(-3.94,-5.21,1.51));
#1356 = VECTOR('',#1357,1.);
#1357 = DIRECTION('',(0.,1.,0.));
#1358 = ORIENTED_EDGE('',*,*,#1359,.F.);
#1359 = EDGE_CURVE('',#1360,#1352,#1362,.T.);
#1360 = VERTEX_POINT('',#1361);
#1361 = CARTESIAN_POINT('',(-3.94,5.21,0.));
#1362 = LINE('',#1363,#1364);
#1363 = CARTESIAN_POINT('',(-3.94,5.21,0.));
#1364 = VECTOR('',#1365,1.);
#1365 = DIRECTION('',(0.,0.,1.));
#1366 = ORIENTED_EDGE('',*,*,#1367,.F.);
#1367 = EDGE_CURVE('',#1298,#1360,#1368,.T.);
#1368 = LINE('',#1369,#1370);
#1369 = CARTESIAN_POINT('',(-3.94,-5.21,0.));
#1370 = VECTOR('',#1371,1.);
#1371 = DIRECTION('',(0.,1.,0.));
#1372 = PLANE('',#1373);
#1373 = AXIS2_PLACEMENT_3D('',#1374,#1375,#1376);
#1374 = CARTESIAN_POINT('',(-3.94,-5.21,0.));
#1375 = DIRECTION('',(-1.,0.,0.));
#1376 = DIRECTION('',(0.,1.,0.));
#1377 = ADVANCED_FACE('',(#1378,#1389),#1400,.F.);
#1378 = FACE_BOUND('',#1379,.F.);
#1379 = EDGE_LOOP('',(#1380,#1381,#1382,#1388));
#1380 = ORIENTED_EDGE('',*,*,#1305,.F.);
#1381 = ORIENTED_EDGE('',*,*,#1336,.F.);
#1382 = ORIENTED_EDGE('',*,*,#1383,.F.);
#1383 = EDGE_CURVE('',#1360,#1320,#1384,.T.);
#1384 = LINE('',#1385,#1386);
#1385 = CARTESIAN_POINT('',(-3.94,5.21,0.));
#1386 = VECTOR('',#1387,1.);
#1387 = DIRECTION('',(1.,0.,0.));
#1388 = ORIENTED_EDGE('',*,*,#1367,.F.);
#1389 = FACE_BOUND('',#1390,.F.);
#1390 = EDGE_LOOP('',(#1391));
#1391 = ORIENTED_EDGE('',*,*,#1392,.T.);
#1392 = EDGE_CURVE('',#1393,#1393,#1395,.T.);
#1393 = VERTEX_POINT('',#1394);
#1394 = CARTESIAN_POINT('',(0.,-0.45,0.));
#1395 = CIRCLE('',#1396,0.45);
#1396 = AXIS2_PLACEMENT_3D('',#1397,#1398,#1399);
#1397 = CARTESIAN_POINT('',(-4.163336342344E-17,6.938893903907E-17,0.));
#1398 = DIRECTION('',(-0.,0.,-1.));
#1399 = DIRECTION('',(9.251858538543E-17,-1.,-0.));
#1400 = PLANE('',#1401);
#1401 = AXIS2_PLACEMENT_3D('',#1402,#1403,#1404);
#1402 = CARTESIAN_POINT('',(0.,0.,0.));
#1403 = DIRECTION('',(0.,0.,1.));
#1404 = DIRECTION('',(1.,0.,-0.));
#1405 = ADVANCED_FACE('',(#1406,#1417),#1428,.T.);
#1406 = FACE_BOUND('',#1407,.T.);
#1407 = EDGE_LOOP('',(#1408,#1409,#1410,#1416));
#1408 = ORIENTED_EDGE('',*,*,#1289,.F.);
#1409 = ORIENTED_EDGE('',*,*,#1329,.F.);
#1410 = ORIENTED_EDGE('',*,*,#1411,.F.);
#1411 = EDGE_CURVE('',#1352,#1322,#1412,.T.);
#1412 = LINE('',#1413,#1414);
#1413 = CARTESIAN_POINT('',(-3.94,5.21,1.51));
#1414 = VECTOR('',#1415,1.);
#1415 = DIRECTION('',(1.,0.,0.));
#1416 = ORIENTED_EDGE('',*,*,#1351,.F.);
#1417 = FACE_BOUND('',#1418,.T.);
#1418 = EDGE_LOOP('',(#1419));
#1419 = ORIENTED_EDGE('',*,*,#1420,.T.);
#1420 = EDGE_CURVE('',#1421,#1421,#1423,.T.);
#1421 = VERTEX_POINT('',#1422);
#1422 = CARTESIAN_POINT('',(0.,-0.45,1.51));
#1423 = CIRCLE('',#1424,0.45);
#1424 = AXIS2_PLACEMENT_3D('',#1425,#1426,#1427);
#1425 = CARTESIAN_POINT('',(-4.163336342344E-17,6.938893903907E-17,1.51)
  );
#1426 = DIRECTION('',(-0.,0.,-1.));
#1427 = DIRECTION('',(9.251858538543E-17,-1.,-0.));
#1428 = PLANE('',#1429);
#1429 = AXIS2_PLACEMENT_3D('',#1430,#1431,#1432);
#1430 = CARTESIAN_POINT('',(0.,0.,1.51));
#1431 = DIRECTION('',(0.,0.,1.));
#1432 = DIRECTION('',(1.,0.,-0.));
#1433 = ADVANCED_FACE('',(#1434),#1440,.T.);
#1434 = FACE_BOUND('',#1435,.T.);
#1435 = EDGE_LOOP('',(#1436,#1437,#1438,#1439));
#1436 = ORIENTED_EDGE('',*,*,#1359,.T.);
#1437 = ORIENTED_EDGE('',*,*,#1411,.T.);
#1438 = ORIENTED_EDGE('',*,*,#1319,.F.);
#1439 = ORIENTED_EDGE('',*,*,#1383,.F.);
#1440 = PLANE('',#1441);
#1441 = AXIS2_PLACEMENT_3D('',#1442,#1443,#1444);
#1442 = CARTESIAN_POINT('',(-3.94,5.21,0.));
#1443 = DIRECTION('',(0.,1.,0.));
#1444 = DIRECTION('',(1.,0.,0.));
#1445 = ADVANCED_FACE('',(#1446),#1457,.F.);
#1446 = FACE_BOUND('',#1447,.T.);
#1447 = EDGE_LOOP('',(#1448,#1449,#1455,#1456));
#1448 = ORIENTED_EDGE('',*,*,#1392,.T.);
#1449 = ORIENTED_EDGE('',*,*,#1450,.T.);
#1450 = EDGE_CURVE('',#1393,#1421,#1451,.T.);
#1451 = LINE('',#1452,#1453);
#1452 = CARTESIAN_POINT('',(0.,-0.45,-4.6E-02));
#1453 = VECTOR('',#1454,1.);
#1454 = DIRECTION('',(0.,0.,1.));
#1455 = ORIENTED_EDGE('',*,*,#1420,.F.);
#1456 = ORIENTED_EDGE('',*,*,#1450,.F.);
#1457 = CYLINDRICAL_SURFACE('',#1458,0.45);
#1458 = AXIS2_PLACEMENT_3D('',#1459,#1460,#1461);
#1459 = CARTESIAN_POINT('',(-4.163336342344E-17,6.938893903907E-17,
    -4.6E-02));
#1460 = DIRECTION('',(-0.,0.,-1.));
#1461 = DIRECTION('',(9.251858538543E-17,-1.,-0.));
#1462 = ( GEOMETRIC_REPRESENTATION_CONTEXT(3) 
GLOBAL_UNCERTAINTY_ASSIGNED_CONTEXT((#1466)) 
GLOBAL_UNIT_ASSIGNED_CONTEXT((#1463,#1464,#1465)) REPRESENTATION_CONTEXT
('Context #1','3D Context with UNIT and UNCERTAINTY') );
#1463 = ( LENGTH_UNIT() NAMED_UNIT(*) SI_UNIT(.MILLI.,.METRE.) );
#1464 = ( NAMED_UNIT(*) PLANE_ANGLE_UNIT() SI_UNIT($,.RADIAN.) );
#1465 = ( NAMED_UNIT(*) SI_UNIT($,.STERADIAN.) SOLID_ANGLE_UNIT() );
#1466 = UNCERTAINTY_MEASURE_WITH_UNIT(LENGTH_MEASURE(1.E-07),#1463,
  'distance_accuracy_value','confusion accuracy');
#1467 = CONTEXT_DEPENDENT_SHAPE_REPRESENTATION(#1468,#1470);
#1468 = ( REPRESENTATION_RELATIONSHIP('','',#1272,#10) 
REPRESENTATION_RELATIONSHIP_WITH_TRANSFORMATION(#1469) 
SHAPE_REPRESENTATION_RELATIONSHIP() );
#1469 = ITEM_DEFINED_TRANSFORMATION('','',#11,#23);
#1470 = PRODUCT_DEFINITION_SHAPE('Placement','Placement of an item',
  #1471);
#1471 = NEXT_ASSEMBLY_USAGE_OCCURRENCE('4','=>[0:1:1:5]','',#5,#1267,$);
#1472 = PRODUCT_RELATED_PRODUCT_CATEGORY('part',$,(#1269));
#1473 = MECHANICAL_DESIGN_GEOMETRIC_PRESENTATION_REPRESENTATION('',(
    #1474,#1482,#1489,#1496,#1503,#1510,#1517,#1525,#1532,#1539,#1546,
    #1553,#1560,#1567,#1574,#1581),#489);
#1474 = STYLED_ITEM('color',(#1475),#66);
#1475 = PRESENTATION_STYLE_ASSIGNMENT((#1476));
#1476 = SURFACE_STYLE_USAGE(.BOTH.,#1477);
#1477 = SURFACE_SIDE_STYLE('',(#1478));
#1478 = SURFACE_STYLE_FILL_AREA(#1479);
#1479 = FILL_AREA_STYLE('',(#1480));
#1480 = FILL_AREA_STYLE_COLOUR('',#1481);
#1481 = COLOUR_RGB('',0.699999984889,9.999999991362E-02,
  5.000000142576E-02);
#1482 = STYLED_ITEM('color',(#1483),#93);
#1483 = PRESENTATION_STYLE_ASSIGNMENT((#1484));
#1484 = SURFACE_STYLE_USAGE(.BOTH.,#1485);
#1485 = SURFACE_SIDE_STYLE('',(#1486));
#1486 = SURFACE_STYLE_FILL_AREA(#1487);
#1487 = FILL_AREA_STYLE('',(#1488));
#1488 = FILL_AREA_STYLE_COLOUR('',#1481);
#1489 = STYLED_ITEM('color',(#1490),#118);
#1490 = PRESENTATION_STYLE_ASSIGNMENT((#1491));
#1491 = SURFACE_STYLE_USAGE(.BOTH.,#1492);
#1492 = SURFACE_SIDE_STYLE('',(#1493));
#1493 = SURFACE_STYLE_FILL_AREA(#1494);
#1494 = FILL_AREA_STYLE('',(#1495));
#1495 = FILL_AREA_STYLE_COLOUR('',#1481);
#1496 = STYLED_ITEM('color',(#1497),#146);
#1497 = PRESENTATION_STYLE_ASSIGNMENT((#1498));
#1498 = SURFACE_STYLE_USAGE(.BOTH.,#1499);
#1499 = SURFACE_SIDE_STYLE('',(#1500));
#1500 = SURFACE_STYLE_FILL_AREA(#1501);
#1501 = FILL_AREA_STYLE('',(#1502));
#1502 = FILL_AREA_STYLE_COLOUR('',#1481);
#1503 = STYLED_ITEM('color',(#1504),#178);
#1504 = PRESENTATION_STYLE_ASSIGNMENT((#1505));
#1505 = SURFACE_STYLE_USAGE(.BOTH.,#1506);
#1506 = SURFACE_SIDE_STYLE('',(#1507));
#1507 = SURFACE_STYLE_FILL_AREA(#1508);
#1508 = FILL_AREA_STYLE('',(#1509));
#1509 = FILL_AREA_STYLE_COLOUR('',#1481);
#1510 = STYLED_ITEM('color',(#1511),#195);
#1511 = PRESENTATION_STYLE_ASSIGNMENT((#1512));
#1512 = SURFACE_STYLE_USAGE(.BOTH.,#1513);
#1513 = SURFACE_SIDE_STYLE('',(#1514));
#1514 = SURFACE_STYLE_FILL_AREA(#1515);
#1515 = FILL_AREA_STYLE('',(#1516));
#1516 = FILL_AREA_STYLE_COLOUR('',#1481);
#1517 = STYLED_ITEM('color',(#1518),#273);
#1518 = PRESENTATION_STYLE_ASSIGNMENT((#1519));
#1519 = SURFACE_STYLE_USAGE(.BOTH.,#1520);
#1520 = SURFACE_SIDE_STYLE('',(#1521));
#1521 = SURFACE_STYLE_FILL_AREA(#1522);
#1522 = FILL_AREA_STYLE('',(#1523));
#1523 = FILL_AREA_STYLE_COLOUR('',#1524);
#1524 = COLOUR_RGB('',0.823999987314,0.819999987296,0.781000009244);
#1525 = STYLED_ITEM('color',(#1526),#304);
#1526 = PRESENTATION_STYLE_ASSIGNMENT((#1527));
#1527 = SURFACE_STYLE_USAGE(.BOTH.,#1528);
#1528 = SURFACE_SIDE_STYLE('',(#1529));
#1529 = SURFACE_STYLE_FILL_AREA(#1530);
#1530 = FILL_AREA_STYLE('',(#1531));
#1531 = FILL_AREA_STYLE_COLOUR('',#1524);
#1532 = STYLED_ITEM('color',(#1533),#328);
#1533 = PRESENTATION_STYLE_ASSIGNMENT((#1534));
#1534 = SURFACE_STYLE_USAGE(.BOTH.,#1535);
#1535 = SURFACE_SIDE_STYLE('',(#1536));
#1536 = SURFACE_STYLE_FILL_AREA(#1537);
#1537 = FILL_AREA_STYLE('',(#1538));
#1538 = FILL_AREA_STYLE_COLOUR('',#1524);
#1539 = STYLED_ITEM('color',(#1540),#352);
#1540 = PRESENTATION_STYLE_ASSIGNMENT((#1541));
#1541 = SURFACE_STYLE_USAGE(.BOTH.,#1542);
#1542 = SURFACE_SIDE_STYLE('',(#1543));
#1543 = SURFACE_STYLE_FILL_AREA(#1544);
#1544 = FILL_AREA_STYLE('',(#1545));
#1545 = FILL_AREA_STYLE_COLOUR('',#1524);
#1546 = STYLED_ITEM('color',(#1547),#369);
#1547 = PRESENTATION_STYLE_ASSIGNMENT((#1548));
#1548 = SURFACE_STYLE_USAGE(.BOTH.,#1549);
#1549 = SURFACE_SIDE_STYLE('',(#1550));
#1550 = SURFACE_STYLE_FILL_AREA(#1551);
#1551 = FILL_AREA_STYLE('',(#1552));
#1552 = FILL_AREA_STYLE_COLOUR('',#1524);
#1553 = STYLED_ITEM('color',(#1554),#400);
#1554 = PRESENTATION_STYLE_ASSIGNMENT((#1555));
#1555 = SURFACE_STYLE_USAGE(.BOTH.,#1556);
#1556 = SURFACE_SIDE_STYLE('',(#1557));
#1557 = SURFACE_STYLE_FILL_AREA(#1558);
#1558 = FILL_AREA_STYLE('',(#1559));
#1559 = FILL_AREA_STYLE_COLOUR('',#1524);
#1560 = STYLED_ITEM('color',(#1561),#424);
#1561 = PRESENTATION_STYLE_ASSIGNMENT((#1562));
#1562 = SURFACE_STYLE_USAGE(.BOTH.,#1563);
#1563 = SURFACE_SIDE_STYLE('',(#1564));
#1564 = SURFACE_STYLE_FILL_AREA(#1565);
#1565 = FILL_AREA_STYLE('',(#1566));
#1566 = FILL_AREA_STYLE_COLOUR('',#1524);
#1567 = STYLED_ITEM('color',(#1568),#448);
#1568 = PRESENTATION_STYLE_ASSIGNMENT((#1569));
#1569 = SURFACE_STYLE_USAGE(.BOTH.,#1570);
#1570 = SURFACE_SIDE_STYLE('',(#1571));
#1571 = SURFACE_STYLE_FILL_AREA(#1572);
#1572 = FILL_AREA_STYLE('',(#1573));
#1573 = FILL_AREA_STYLE_COLOUR('',#1524);
#1574 = STYLED_ITEM('color',(#1575),#465);
#1575 = PRESENTATION_STYLE_ASSIGNMENT((#1576));
#1576 = SURFACE_STYLE_USAGE(.BOTH.,#1577);
#1577 = SURFACE_SIDE_STYLE('',(#1578));
#1578 = SURFACE_STYLE_FILL_AREA(#1579);
#1579 = FILL_AREA_STYLE('',(#1580));
#1580 = FILL_AREA_STYLE_COLOUR('',#1524);
#1581 = STYLED_ITEM('color',(#1582),#477);
#1582 = PRESENTATION_STYLE_ASSIGNMENT((#1583));
#1583 = SURFACE_STYLE_USAGE(.BOTH.,#1584);
#1584 = SURFACE_SIDE_STYLE('',(#1585));
#1585 = SURFACE_STYLE_FILL_AREA(#1586);
#1586 = FILL_AREA_STYLE('',(#1587));
#1587 = FILL_AREA_STYLE_COLOUR('',#1524);
#1588 = MECHANICAL_DESIGN_GEOMETRIC_PRESENTATION_REPRESENTATION('',(
    #1589,#1597,#1604,#1611,#1618,#1625),#1254);
#1589 = STYLED_ITEM('color',(#1590),#508);
#1590 = PRESENTATION_STYLE_ASSIGNMENT((#1591));
#1591 = SURFACE_STYLE_USAGE(.BOTH.,#1592);
#1592 = SURFACE_SIDE_STYLE('',(#1593));
#1593 = SURFACE_STYLE_FILL_AREA(#1594);
#1594 = FILL_AREA_STYLE('',(#1595));
#1595 = FILL_AREA_STYLE_COLOUR('',#1596);
#1596 = COLOUR_RGB('',0.735356983052,0.735356983052,0.735356983052);
#1597 = STYLED_ITEM('color',(#1598),#697);
#1598 = PRESENTATION_STYLE_ASSIGNMENT((#1599));
#1599 = SURFACE_STYLE_USAGE(.BOTH.,#1600);
#1600 = SURFACE_SIDE_STYLE('',(#1601));
#1601 = SURFACE_STYLE_FILL_AREA(#1602);
#1602 = FILL_AREA_STYLE('',(#1603));
#1603 = FILL_AREA_STYLE_COLOUR('',#1596);
#1604 = STYLED_ITEM('color',(#1605),#886);
#1605 = PRESENTATION_STYLE_ASSIGNMENT((#1606));
#1606 = SURFACE_STYLE_USAGE(.BOTH.,#1607);
#1607 = SURFACE_SIDE_STYLE('',(#1608));
#1608 = SURFACE_STYLE_FILL_AREA(#1609);
#1609 = FILL_AREA_STYLE('',(#1610));
#1610 = FILL_AREA_STYLE_COLOUR('',#1596);
#1611 = STYLED_ITEM('color',(#1612),#978);
#1612 = PRESENTATION_STYLE_ASSIGNMENT((#1613));
#1613 = SURFACE_STYLE_USAGE(.BOTH.,#1614);
#1614 = SURFACE_SIDE_STYLE('',(#1615));
#1615 = SURFACE_STYLE_FILL_AREA(#1616);
#1616 = FILL_AREA_STYLE('',(#1617));
#1617 = FILL_AREA_STYLE_COLOUR('',#1596);
#1618 = STYLED_ITEM('color',(#1619),#1070);
#1619 = PRESENTATION_STYLE_ASSIGNMENT((#1620));
#1620 = SURFACE_STYLE_USAGE(.BOTH.,#1621);
#1621 = SURFACE_SIDE_STYLE('',(#1622));
#1622 = SURFACE_STYLE_FILL_AREA(#1623);
#1623 = FILL_AREA_STYLE('',(#1624));
#1624 = FILL_AREA_STYLE_COLOUR('',#1596);
#1625 = STYLED_ITEM('color',(#1626),#1162);
#1626 = PRESENTATION_STYLE_ASSIGNMENT((#1627));
#1627 = SURFACE_STYLE_USAGE(.BOTH.,#1628);
#1628 = SURFACE_SIDE_STYLE('',(#1629));
#1629 = SURFACE_STYLE_FILL_AREA(#1630);
#1630 = FILL_AREA_STYLE('',(#1631));
#1631 = FILL_AREA_STYLE_COLOUR('',#1596);
#1632 = MECHANICAL_DESIGN_GEOMETRIC_PRESENTATION_REPRESENTATION('',(
    #1633),#1462);
#1633 = STYLED_ITEM('color',(#1634),#1273);
#1634 = PRESENTATION_STYLE_ASSIGNMENT((#1635));
#1635 = SURFACE_STYLE_USAGE(.BOTH.,#1636);
#1636 = SURFACE_SIDE_STYLE('',(#1637));
#1637 = SURFACE_STYLE_FILL_AREA(#1638);
#1638 = FILL_AREA_STYLE('',(#1639));
#1639 = FILL_AREA_STYLE_COLOUR('',#1640);
#1640 = COLOUR_RGB('',0.313304153717,0.484529207832,0.410020903123);
ENDSEC;
END-ISO-10303-21;
