%TF.GenerationSoftware,KiCad,Pcbnew,10.99.0-3758-g2f18d95be7*%
%TF.CreationDate,2026-09-22T00:16:41+01:00*%
%TF.ProjectId,kicad_file,6b696361-645f-4666-996c-652e6b696361,rev?*%
%TF.SameCoordinates,Original*%
%TF.FileFunction,Copper,L2,Bot*%
%TF.FilePolarity,Positive*%
%FSLAX46Y46*%
G04 Gerber Fmt 4.6, Leading zero omitted, Abs format (unit mm)*
G04 Created by KiCad (PCBNEW 10.99.0-3758-g2f18d95be7) date 2026-09-22 00:16:41*
%MOMM*%
%LPD*%
G01*
G04 APERTURE LIST*
G04 Aperture macros list*
%AMOutline5P*
0 Free polygon, 5 corners , with rotation*
0 The origin of the aperture is its center*
0 number of corners: always 5*
0 $1 to $10 corner X, Y*
0 $11 Rotation angle, in degrees counterclockwise*
0 create outline with 5 corners*
4,1,5,$1,$2,$3,$4,$5,$6,$7,$8,$9,$10,$1,$2,$11*%
%AMOutline6P*
0 Free polygon, 6 corners , with rotation*
0 The origin of the aperture is its center*
0 number of corners: always 6*
0 $1 to $12 corner X, Y*
0 $13 Rotation angle, in degrees counterclockwise*
0 create outline with 6 corners*
4,1,6,$1,$2,$3,$4,$5,$6,$7,$8,$9,$10,$11,$12,$1,$2,$13*%
%AMOutline7P*
0 Free polygon, 7 corners , with rotation*
0 The origin of the aperture is its center*
0 number of corners: always 7*
0 $1 to $14 corner X, Y*
0 $15 Rotation angle, in degrees counterclockwise*
0 create outline with 7 corners*
4,1,7,$1,$2,$3,$4,$5,$6,$7,$8,$9,$10,$11,$12,$13,$14,$1,$2,$15*%
%AMOutline8P*
0 Free polygon, 8 corners , with rotation*
0 The origin of the aperture is its center*
0 number of corners: always 8*
0 $1 to $16 corner X, Y*
0 $17 Rotation angle, in degrees counterclockwise*
0 create outline with 8 corners*
4,1,8,$1,$2,$3,$4,$5,$6,$7,$8,$9,$10,$11,$12,$13,$14,$15,$16,$1,$2,$17*%
G04 Aperture macros list end*
%TA.AperFunction,ComponentPad*%
%ADD10C,3.600000*%
%TD*%
%TA.AperFunction,ComponentPad*%
%ADD11C,1.930400*%
%TD*%
%TA.AperFunction,ComponentPad*%
%ADD12Outline8P,-0.889000X0.368236X-0.368236X0.889000X0.368236X0.889000X0.889000X0.368236X0.889000X-0.368236X0.368236X-0.889000X-0.368236X-0.889000X-0.889000X-0.368236X0.000000*%
%TD*%
%TA.AperFunction,ComponentPad*%
%ADD13C,5.080000*%
%TD*%
%TA.AperFunction,ViaPad*%
%ADD14C,0.800100*%
%TD*%
%TA.AperFunction,Conductor*%
%ADD15C,0.304800*%
%TD*%
%TA.AperFunction,Conductor*%
%ADD16C,0.203200*%
%TD*%
G04 APERTURE END LIST*
D10*
%TO.P,U$3,P$1*%
%TO.N,N/C*%
X27940000Y11430000D03*
%TD*%
D11*
%TO.P,JP2,1*%
%TO.N,VCC*%
X1905000Y2667000D03*
%TO.P,JP2,2*%
%TO.N,GND*%
X4445000Y2667000D03*
%TO.P,JP2,3*%
%TO.N,DCD*%
X6985000Y2667000D03*
%TO.P,JP2,4*%
%TO.N,RXD*%
X9525000Y2667000D03*
%TO.P,JP2,5*%
%TO.N,TXD*%
X12065000Y2667000D03*
%TO.P,JP2,6*%
%TO.N,DTR*%
X14605000Y2667000D03*
%TO.P,JP2,7*%
%TO.N,DSR*%
X17145000Y2667000D03*
%TO.P,JP2,8*%
%TO.N,RTS*%
X19685000Y2667000D03*
%TO.P,JP2,9*%
%TO.N,CTS*%
X22225000Y2667000D03*
%TO.P,JP2,10*%
%TO.N,RI*%
X24765000Y2667000D03*
%TO.P,JP2,11*%
%TO.N,~{INVALID}*%
X27305000Y2667000D03*
%TO.P,JP2,12*%
%TO.N,~{FORCEOFF}*%
X29845000Y2667000D03*
%TD*%
D12*
%TO.P,X2,1*%
%TO.N,RS_DCD*%
X10388600Y16637000D03*
%TO.P,X2,2*%
%TO.N,RS_RXD*%
X13131800Y16637000D03*
%TO.P,X2,3*%
%TO.N,RS_TXD*%
X15875000Y16637000D03*
%TO.P,X2,4*%
%TO.N,RS_DTR*%
X18618200Y16637000D03*
%TO.P,X2,5*%
%TO.N,GND*%
X21361400Y16637000D03*
%TO.P,X2,6*%
%TO.N,RS_DSR*%
X11760200Y19177000D03*
%TO.P,X2,7*%
%TO.N,RS_RTS*%
X14503400Y19177000D03*
%TO.P,X2,8*%
%TO.N,RS_CTS*%
X17246600Y19177000D03*
%TO.P,X2,9*%
%TO.N,RS_RI*%
X19989800Y19177000D03*
D13*
%TO.P,X2,G1*%
%TO.N,N/C*%
X3352800Y17907000D03*
%TO.P,X2,G2*%
X28397200Y17907000D03*
%TD*%
D10*
%TO.P,U$2,P$1*%
%TO.N,N/C*%
X3810000Y11430000D03*
%TD*%
D14*
%TO.N,GND*%
X17653000Y8890000D03*
X14986000Y11049000D03*
X889000Y9652000D03*
X8001000Y18034000D03*
%TO.N,N$2*%
X16383000Y9213850D03*
X20066000Y8509000D03*
%TO.N,RS_TXD*%
X13970000Y12192000D03*
%TO.N,RS_DTR*%
X15354300Y12192000D03*
%TO.N,RS_RTS*%
X12954000Y12192000D03*
%TO.N,RS_RI*%
X16764000Y12192000D03*
%TO.N,TXD*%
X11482559Y10593559D03*
%TO.N,DTR*%
X12261850Y9779000D03*
%TO.N,RI*%
X14478000Y8382000D03*
%TO.N,FORCEON*%
X16002000Y8128000D03*
X23622000Y9652000D03*
%TO.N,RTS*%
X12866862Y10606256D03*
%TD*%
%TO.N,N$2*%
D15*
X16383000Y9213850D02*
X16383000Y9398000D01*
X20066000Y8763000D02*
X18796000Y10033000D01*
X16383000Y9398000D02*
X17018000Y10033000D01*
X17018000Y10033000D02*
X18796000Y10033000D01*
X20066000Y8763000D02*
X20066000Y8509000D01*
%TO.N,RS_TXD*%
D16*
X13970000Y12192000D02*
X13970000Y14732000D01*
X13970000Y14732000D02*
X15875000Y16637000D01*
%TO.N,RS_DTR*%
X15354300Y13373100D02*
X18618200Y16637000D01*
X15354300Y12192000D02*
X15354300Y13373100D01*
%TO.N,RS_RTS*%
X14503400Y15900400D02*
X14503400Y19177000D01*
X12954000Y12192000D02*
X12954000Y14351000D01*
X12954000Y14351000D02*
X14503400Y15900400D01*
%TO.N,RS_RI*%
X16764000Y12192000D02*
X19939000Y15367000D01*
X19939000Y15367000D02*
X19939000Y19126200D01*
X19939000Y19126200D02*
X19989800Y19177000D01*
%TO.N,TXD*%
X12065000Y2667000D02*
X12065000Y8360118D01*
X11482559Y8942559D02*
X11482559Y10593559D01*
X12065000Y8360118D02*
X11482559Y8942559D01*
%TO.N,DTR*%
X12515850Y9525000D02*
X12515850Y4756150D01*
X12515850Y4756150D02*
X14605000Y2667000D01*
X12261850Y9779000D02*
X12515850Y9525000D01*
%TO.N,RI*%
X14478000Y8382000D02*
X14478000Y7620000D01*
X17780000Y6604000D02*
X15494000Y6604000D01*
X15494000Y6604000D02*
X14478000Y7620000D01*
X22733000Y4699000D02*
X19685000Y4699000D01*
X24765000Y2667000D02*
X22733000Y4699000D01*
X19685000Y4699000D02*
X17780000Y6604000D01*
%TO.N,FORCEON*%
X20701000Y9652000D02*
X23622000Y9652000D01*
X15621000Y9525000D02*
X16611600Y10515600D01*
X16002000Y8382000D02*
X15621000Y8763000D01*
X19837400Y10515600D02*
X20701000Y9652000D01*
X15621000Y9525000D02*
X15621000Y8763000D01*
X16611600Y10515600D02*
X19837400Y10515600D01*
X16002000Y8128000D02*
X16002000Y8382000D01*
%TO.N,RTS*%
X18415000Y3937000D02*
X16637000Y3937000D01*
X19685000Y2667000D02*
X18415000Y3937000D01*
X16637000Y3937000D02*
X13589000Y6985000D01*
X12866862Y10606256D02*
X12993862Y10606256D01*
X13589000Y10011118D02*
X12993862Y10606256D01*
X13589000Y10011118D02*
X13589000Y6985000D01*
%TD*%
%TA.AperFunction,Conductor*%
%TO.N,GND*%
G36*
X31231194Y28818194D02*
G01*
X31249500Y28774000D01*
X31249500Y18181566D01*
X31231194Y18137372D01*
X31187000Y18119066D01*
X31142806Y18137372D01*
X31124893Y18174568D01*
X31103238Y18366763D01*
X31103237Y18366774D01*
X31034743Y18666863D01*
X30933081Y18957396D01*
X30799529Y19234720D01*
X30635766Y19495347D01*
X30443852Y19736000D01*
X30226200Y19953652D01*
X29985547Y20145566D01*
X29724920Y20309329D01*
X29447596Y20442881D01*
X29157063Y20544543D01*
X28856974Y20613037D01*
X28551103Y20647500D01*
X28243297Y20647500D01*
X27937426Y20613037D01*
X27637337Y20544543D01*
X27346814Y20442885D01*
X27346810Y20442883D01*
X27346804Y20442881D01*
X27069480Y20309329D01*
X26808853Y20145566D01*
X26808847Y20145561D01*
X26808841Y20145557D01*
X26568212Y19953662D01*
X26568207Y19953658D01*
X26568200Y19953652D01*
X26350548Y19736000D01*
X26350542Y19735993D01*
X26350537Y19735987D01*
X26158642Y19495358D01*
X26158630Y19495341D01*
X25994871Y19234720D01*
X25861314Y18957385D01*
X25759656Y18666862D01*
X25759656Y18666860D01*
X25691163Y18366775D01*
X25691161Y18366763D01*
X25670295Y18181566D01*
X25656700Y18060903D01*
X25656700Y17753097D01*
X25663298Y17694540D01*
X25691161Y17447236D01*
X25691163Y17447224D01*
X25759656Y17147139D01*
X25759656Y17147137D01*
X25861314Y16856614D01*
X25994871Y16579279D01*
X26158630Y16318658D01*
X26158642Y16318641D01*
X26350537Y16078012D01*
X26350555Y16077992D01*
X26568192Y15860355D01*
X26568212Y15860337D01*
X26808841Y15668442D01*
X26808858Y15668430D01*
X27069479Y15504671D01*
X27346814Y15371114D01*
X27637338Y15269456D01*
X27937424Y15200963D01*
X27937436Y15200961D01*
X28157948Y15176116D01*
X28243297Y15166500D01*
X28243300Y15166500D01*
X28551100Y15166500D01*
X28551103Y15166500D01*
X28645205Y15177102D01*
X28856963Y15200961D01*
X28856975Y15200963D01*
X29157060Y15269456D01*
X29157062Y15269456D01*
X29447585Y15371114D01*
X29447593Y15371118D01*
X29447596Y15371119D01*
X29724920Y15504671D01*
X29985547Y15668434D01*
X29985549Y15668436D01*
X29985558Y15668442D01*
X30226187Y15860337D01*
X30226193Y15860342D01*
X30226200Y15860348D01*
X30443852Y16078000D01*
X30453021Y16089497D01*
X30635757Y16318641D01*
X30635761Y16318647D01*
X30635766Y16318653D01*
X30799529Y16579280D01*
X30933081Y16856604D01*
X30933083Y16856610D01*
X30933085Y16856614D01*
X31034743Y17147137D01*
X31034743Y17147139D01*
X31046049Y17196673D01*
X31103237Y17447226D01*
X31124893Y17639431D01*
X31148032Y17681297D01*
X31193998Y17694540D01*
X31235864Y17671401D01*
X31249500Y17632433D01*
X31249500Y2542043D01*
X31249366Y2537955D01*
X31232319Y2277879D01*
X31231252Y2269774D01*
X31180805Y2016156D01*
X31178689Y2008259D01*
X31095569Y1763399D01*
X31092441Y1755846D01*
X30978069Y1523921D01*
X30973981Y1516841D01*
X30830319Y1301836D01*
X30825342Y1295350D01*
X30654838Y1100928D01*
X30649071Y1095161D01*
X30454649Y924657D01*
X30448163Y919680D01*
X30233158Y776018D01*
X30226078Y771930D01*
X29994153Y657558D01*
X29986600Y654430D01*
X29741729Y571307D01*
X29733854Y569196D01*
X29480225Y518747D01*
X29472120Y517680D01*
X29298736Y506316D01*
X29212044Y500634D01*
X29207956Y500500D01*
X2542044Y500500D01*
X2537956Y500634D01*
X2487339Y503951D01*
X2277877Y517680D01*
X2269777Y518746D01*
X2016141Y569197D01*
X2008274Y571305D01*
X1763395Y654431D01*
X1755850Y657556D01*
X1523913Y771934D01*
X1516850Y776012D01*
X1301827Y919686D01*
X1295358Y924650D01*
X1100920Y1095168D01*
X1095168Y1100920D01*
X924650Y1295358D01*
X919686Y1301827D01*
X776012Y1516850D01*
X771934Y1523913D01*
X657556Y1755850D01*
X654430Y1763399D01*
X628372Y1840163D01*
X571305Y2008274D01*
X569197Y2016141D01*
X518746Y2269777D01*
X517680Y2277879D01*
X511655Y2369797D01*
X500633Y2537956D01*
X500500Y2542043D01*
X500500Y2758740D01*
X739300Y2758740D01*
X739300Y2575259D01*
X739301Y2575243D01*
X768002Y2394036D01*
X768004Y2394027D01*
X824703Y2219524D01*
X824704Y2219522D01*
X908002Y2056042D01*
X1015860Y1907589D01*
X1145589Y1777860D01*
X1145596Y1777854D01*
X1145597Y1777854D01*
X1181208Y1751981D01*
X1294042Y1670002D01*
X1457522Y1586704D01*
X1457524Y1586703D01*
X1632027Y1530004D01*
X1632029Y1530003D01*
X1632031Y1530003D01*
X1632032Y1530002D01*
X1632036Y1530002D01*
X1813243Y1501301D01*
X1813255Y1501300D01*
X1813257Y1501300D01*
X1813259Y1501300D01*
X1996741Y1501300D01*
X1996743Y1501300D01*
X1996744Y1501300D01*
X1996756Y1501301D01*
X2177963Y1530002D01*
X2177969Y1530003D01*
X2190551Y1534091D01*
X2352475Y1586703D01*
X2352477Y1586704D01*
X2515957Y1670002D01*
X2515960Y1670004D01*
X2664403Y1777854D01*
X2664406Y1777857D01*
X2664410Y1777860D01*
X2794139Y1907589D01*
X2794141Y1907592D01*
X2794146Y1907597D01*
X2901996Y2056040D01*
X2985297Y2219526D01*
X3041997Y2394031D01*
X3054664Y2474007D01*
X3060875Y2513219D01*
X3085869Y2554006D01*
X3132382Y2565172D01*
X3173169Y2540178D01*
X3184335Y2513219D01*
X3207051Y2369797D01*
X3207051Y2369796D01*
X3268785Y2179797D01*
X3268789Y2179789D01*
X3359483Y2001791D01*
X3476907Y1840171D01*
X3476914Y1840163D01*
X3618163Y1698914D01*
X3618171Y1698907D01*
X3779791Y1581483D01*
X3957789Y1490789D01*
X3957797Y1490785D01*
X4147796Y1429051D01*
X4147795Y1429051D01*
X4292999Y1406052D01*
X4293000Y1406052D01*
X4293000Y2190090D01*
X4379174Y2167000D01*
X4510826Y2167000D01*
X4597000Y2190090D01*
X4597000Y1406052D01*
X4742204Y1429051D01*
X4932202Y1490785D01*
X4932210Y1490789D01*
X5110208Y1581483D01*
X5271828Y1698907D01*
X5271836Y1698914D01*
X5413085Y1840163D01*
X5413092Y1840171D01*
X5530516Y2001791D01*
X5621210Y2179789D01*
X5621214Y2179797D01*
X5682946Y2369790D01*
X5705663Y2513219D01*
X5730657Y2554005D01*
X5777171Y2565173D01*
X5817957Y2540179D01*
X5829124Y2513220D01*
X5848002Y2394034D01*
X5848004Y2394027D01*
X5904703Y2219524D01*
X5904704Y2219522D01*
X5988002Y2056042D01*
X6095860Y1907589D01*
X6225589Y1777860D01*
X6225596Y1777854D01*
X6225597Y1777854D01*
X6261208Y1751981D01*
X6374042Y1670002D01*
X6537522Y1586704D01*
X6537524Y1586703D01*
X6712027Y1530004D01*
X6712029Y1530003D01*
X6712031Y1530003D01*
X6712032Y1530002D01*
X6712036Y1530002D01*
X6893243Y1501301D01*
X6893255Y1501300D01*
X6893257Y1501300D01*
X6893259Y1501300D01*
X7076741Y1501300D01*
X7076743Y1501300D01*
X7076744Y1501300D01*
X7076756Y1501301D01*
X7257963Y1530002D01*
X7257969Y1530003D01*
X7270551Y1534091D01*
X7432475Y1586703D01*
X7432477Y1586704D01*
X7595957Y1670002D01*
X7595960Y1670004D01*
X7744403Y1777854D01*
X7744406Y1777857D01*
X7744410Y1777860D01*
X7874139Y1907589D01*
X7874141Y1907592D01*
X7874146Y1907597D01*
X7981996Y2056040D01*
X8065297Y2219526D01*
X8121997Y2394031D01*
X8145144Y2540179D01*
X8150698Y2575243D01*
X8150700Y2575259D01*
X8150700Y2758740D01*
X8359300Y2758740D01*
X8359300Y2575259D01*
X8359301Y2575243D01*
X8388002Y2394036D01*
X8388004Y2394027D01*
X8444703Y2219524D01*
X8444704Y2219522D01*
X8528002Y2056042D01*
X8635860Y1907589D01*
X8765589Y1777860D01*
X8765596Y1777854D01*
X8765597Y1777854D01*
X8801208Y1751981D01*
X8914042Y1670002D01*
X9077522Y1586704D01*
X9077524Y1586703D01*
X9252027Y1530004D01*
X9252029Y1530003D01*
X9252031Y1530003D01*
X9252032Y1530002D01*
X9252036Y1530002D01*
X9433243Y1501301D01*
X9433255Y1501300D01*
X9433257Y1501300D01*
X9433259Y1501300D01*
X9616741Y1501300D01*
X9616743Y1501300D01*
X9616744Y1501300D01*
X9616756Y1501301D01*
X9797963Y1530002D01*
X9797969Y1530003D01*
X9810551Y1534091D01*
X9972475Y1586703D01*
X9972477Y1586704D01*
X10135957Y1670002D01*
X10135960Y1670004D01*
X10284403Y1777854D01*
X10284406Y1777857D01*
X10284410Y1777860D01*
X10414139Y1907589D01*
X10414141Y1907592D01*
X10414146Y1907597D01*
X10521996Y2056040D01*
X10605297Y2219526D01*
X10661997Y2394031D01*
X10685144Y2540179D01*
X10690698Y2575243D01*
X10690700Y2575259D01*
X10690700Y2758740D01*
X10690698Y2758756D01*
X10685144Y2793821D01*
X10661997Y2939969D01*
X10605297Y3114474D01*
X10521996Y3277960D01*
X10414146Y3426403D01*
X10284403Y3556146D01*
X10135960Y3663996D01*
X9972474Y3747297D01*
X9797969Y3803997D01*
X9616743Y3832700D01*
X9433257Y3832700D01*
X9433249Y3832698D01*
X9433243Y3832698D01*
X9394218Y3826517D01*
X9252031Y3803997D01*
X9077526Y3747297D01*
X8914040Y3663996D01*
X8765597Y3556146D01*
X8765592Y3556141D01*
X8765589Y3556139D01*
X8635860Y3426410D01*
X8635857Y3426406D01*
X8635854Y3426403D01*
X8531503Y3282776D01*
X8528002Y3277957D01*
X8444704Y3114477D01*
X8444703Y3114475D01*
X8388004Y2939972D01*
X8388002Y2939963D01*
X8359301Y2758756D01*
X8359300Y2758740D01*
X8150700Y2758740D01*
X8150698Y2758756D01*
X8145144Y2793821D01*
X8121997Y2939969D01*
X8065297Y3114474D01*
X7981996Y3277960D01*
X7874146Y3426403D01*
X7744403Y3556146D01*
X7595960Y3663996D01*
X7432474Y3747297D01*
X7257969Y3803997D01*
X7076743Y3832700D01*
X6893257Y3832700D01*
X6893249Y3832698D01*
X6893243Y3832698D01*
X6854218Y3826517D01*
X6712031Y3803997D01*
X6537526Y3747297D01*
X6374040Y3663996D01*
X6225597Y3556146D01*
X6225592Y3556141D01*
X6225589Y3556139D01*
X6095860Y3426410D01*
X6095857Y3426406D01*
X6095854Y3426403D01*
X5991503Y3282776D01*
X5988002Y3277957D01*
X5904704Y3114477D01*
X5904703Y3114475D01*
X5848004Y2939972D01*
X5848002Y2939965D01*
X5829124Y2820779D01*
X5804130Y2779993D01*
X5757616Y2768827D01*
X5716830Y2793821D01*
X5705663Y2820780D01*
X5682946Y2964209D01*
X5621214Y3154202D01*
X5621210Y3154210D01*
X5530516Y3332208D01*
X5413092Y3493828D01*
X5413085Y3493836D01*
X5271836Y3635085D01*
X5271828Y3635092D01*
X5110208Y3752516D01*
X4932210Y3843210D01*
X4932202Y3843214D01*
X4742208Y3904946D01*
X4742199Y3904948D01*
X4597000Y3927946D01*
X4597000Y3143909D01*
X4510826Y3167000D01*
X4379174Y3167000D01*
X4293000Y3143909D01*
X4293000Y3927946D01*
X4292999Y3927946D01*
X4147800Y3904948D01*
X4147791Y3904946D01*
X3957797Y3843214D01*
X3957789Y3843210D01*
X3779791Y3752516D01*
X3618171Y3635092D01*
X3618163Y3635085D01*
X3476914Y3493836D01*
X3476907Y3493828D01*
X3359483Y3332208D01*
X3268789Y3154210D01*
X3268785Y3154202D01*
X3207051Y2964203D01*
X3207051Y2964202D01*
X3184335Y2820780D01*
X3159341Y2779993D01*
X3112828Y2768827D01*
X3072041Y2793821D01*
X3060874Y2820778D01*
X3041997Y2939969D01*
X2985297Y3114474D01*
X2901996Y3277960D01*
X2794146Y3426403D01*
X2664403Y3556146D01*
X2515960Y3663996D01*
X2352474Y3747297D01*
X2177969Y3803997D01*
X1996743Y3832700D01*
X1813257Y3832700D01*
X1813249Y3832698D01*
X1813243Y3832698D01*
X1774218Y3826517D01*
X1632031Y3803997D01*
X1457526Y3747297D01*
X1294040Y3663996D01*
X1145597Y3556146D01*
X1145592Y3556141D01*
X1145589Y3556139D01*
X1015860Y3426410D01*
X1015857Y3426406D01*
X1015854Y3426403D01*
X911503Y3282776D01*
X908002Y3277957D01*
X824704Y3114477D01*
X824703Y3114475D01*
X768004Y2939972D01*
X768002Y2939963D01*
X739301Y2758756D01*
X739300Y2758740D01*
X500500Y2758740D01*
X500500Y11570631D01*
X1798911Y11570631D01*
X1798911Y11289368D01*
X1838053Y11010853D01*
X1915579Y10740489D01*
X2029979Y10483541D01*
X2179023Y10245023D01*
X2359810Y10029569D01*
X2359814Y10029564D01*
X2568823Y9841372D01*
X2568822Y9841372D01*
X2801996Y9684095D01*
X2802005Y9684090D01*
X3054798Y9560794D01*
X3322281Y9473885D01*
X3322283Y9473884D01*
X3322285Y9473884D01*
X3322287Y9473883D01*
X3322290Y9473883D01*
X3599263Y9425045D01*
X3599279Y9425043D01*
X3880356Y9415228D01*
X3880357Y9415228D01*
X4160075Y9444628D01*
X4432978Y9512670D01*
X4432979Y9512670D01*
X4432985Y9512672D01*
X4693755Y9618030D01*
X4693757Y9618031D01*
X4835620Y9699936D01*
X4937333Y9758660D01*
X5158967Y9931820D01*
X5354346Y10134140D01*
X5519665Y10361683D01*
X5519667Y10361686D01*
X5519669Y10361689D01*
X5651703Y10610010D01*
X5651707Y10610017D01*
X5674495Y10672627D01*
X10882009Y10672627D01*
X10882009Y10514490D01*
X10922935Y10361757D01*
X10922935Y10361755D01*
X11002000Y10224811D01*
X11002003Y10224807D01*
X11113807Y10113003D01*
X11113813Y10112998D01*
X11149210Y10092562D01*
X11178330Y10054611D01*
X11180459Y10038436D01*
X11180459Y8902788D01*
X11180460Y8902780D01*
X11201045Y8825952D01*
X11201046Y8825950D01*
X11240818Y8757065D01*
X11240823Y8757059D01*
X11744594Y8253289D01*
X11762900Y8209095D01*
X11762900Y3839939D01*
X11744594Y3795745D01*
X11719716Y3780500D01*
X11617526Y3747297D01*
X11454040Y3663996D01*
X11305597Y3556146D01*
X11305592Y3556141D01*
X11305589Y3556139D01*
X11175860Y3426410D01*
X11175857Y3426406D01*
X11175854Y3426403D01*
X11071503Y3282776D01*
X11068002Y3277957D01*
X10984704Y3114477D01*
X10984703Y3114475D01*
X10928004Y2939972D01*
X10928002Y2939963D01*
X10899301Y2758756D01*
X10899300Y2758740D01*
X10899300Y2575259D01*
X10899301Y2575243D01*
X10928002Y2394036D01*
X10928004Y2394027D01*
X10984703Y2219524D01*
X10984704Y2219522D01*
X11068002Y2056042D01*
X11175860Y1907589D01*
X11305589Y1777860D01*
X11305596Y1777854D01*
X11305597Y1777854D01*
X11341208Y1751981D01*
X11454042Y1670002D01*
X11617522Y1586704D01*
X11617524Y1586703D01*
X11792027Y1530004D01*
X11792029Y1530003D01*
X11792031Y1530003D01*
X11792032Y1530002D01*
X11792036Y1530002D01*
X11973243Y1501301D01*
X11973255Y1501300D01*
X11973257Y1501300D01*
X11973259Y1501300D01*
X12156741Y1501300D01*
X12156743Y1501300D01*
X12156744Y1501300D01*
X12156756Y1501301D01*
X12337963Y1530002D01*
X12337969Y1530003D01*
X12350551Y1534091D01*
X12512475Y1586703D01*
X12512477Y1586704D01*
X12675957Y1670002D01*
X12675960Y1670004D01*
X12824403Y1777854D01*
X12824406Y1777857D01*
X12824410Y1777860D01*
X12954139Y1907589D01*
X12954141Y1907592D01*
X12954146Y1907597D01*
X13061996Y2056040D01*
X13145297Y2219526D01*
X13201997Y2394031D01*
X13225144Y2540179D01*
X13230698Y2575243D01*
X13230700Y2575259D01*
X13230700Y2758740D01*
X13230698Y2758756D01*
X13225144Y2793821D01*
X13201997Y2939969D01*
X13145297Y3114474D01*
X13061996Y3277960D01*
X12954146Y3426403D01*
X12824403Y3556146D01*
X12675960Y3663996D01*
X12512474Y3747297D01*
X12410285Y3780499D01*
X12373912Y3811564D01*
X12367100Y3839939D01*
X12367100Y4326777D01*
X12385406Y4370971D01*
X12429600Y4389277D01*
X12473794Y4370971D01*
X13561988Y3282776D01*
X13580294Y3238582D01*
X13573482Y3210210D01*
X13551466Y3167000D01*
X13524703Y3114475D01*
X13524702Y3114472D01*
X13468004Y2939972D01*
X13468002Y2939963D01*
X13439301Y2758756D01*
X13439300Y2758740D01*
X13439300Y2575259D01*
X13439301Y2575243D01*
X13468002Y2394036D01*
X13468004Y2394027D01*
X13524703Y2219524D01*
X13524704Y2219522D01*
X13608002Y2056042D01*
X13715860Y1907589D01*
X13845589Y1777860D01*
X13845596Y1777854D01*
X13845597Y1777854D01*
X13881208Y1751981D01*
X13994042Y1670002D01*
X14157522Y1586704D01*
X14157524Y1586703D01*
X14332027Y1530004D01*
X14332029Y1530003D01*
X14332031Y1530003D01*
X14332032Y1530002D01*
X14332036Y1530002D01*
X14513243Y1501301D01*
X14513255Y1501300D01*
X14513257Y1501300D01*
X14513259Y1501300D01*
X14696741Y1501300D01*
X14696743Y1501300D01*
X14696744Y1501300D01*
X14696756Y1501301D01*
X14877963Y1530002D01*
X14877969Y1530003D01*
X14890551Y1534091D01*
X15052475Y1586703D01*
X15052477Y1586704D01*
X15215957Y1670002D01*
X15215960Y1670004D01*
X15364403Y1777854D01*
X15364406Y1777857D01*
X15364410Y1777860D01*
X15494139Y1907589D01*
X15494141Y1907592D01*
X15494146Y1907597D01*
X15601996Y2056040D01*
X15685297Y2219526D01*
X15741997Y2394031D01*
X15765144Y2540179D01*
X15770698Y2575243D01*
X15770700Y2575259D01*
X15770700Y2758740D01*
X15770698Y2758756D01*
X15765144Y2793821D01*
X15741997Y2939969D01*
X15685297Y3114474D01*
X15601996Y3277960D01*
X15494146Y3426403D01*
X15364403Y3556146D01*
X15215960Y3663996D01*
X15052474Y3747297D01*
X14877969Y3803997D01*
X14696743Y3832700D01*
X14513257Y3832700D01*
X14513249Y3832698D01*
X14513243Y3832698D01*
X14474218Y3826517D01*
X14332031Y3803997D01*
X14157526Y3747297D01*
X14061789Y3698516D01*
X14014103Y3694764D01*
X13989222Y3710011D01*
X13441827Y4257406D01*
X12836255Y4862978D01*
X12817950Y4907171D01*
X12817950Y9526259D01*
X12821277Y9543009D01*
X12820413Y9543241D01*
X12825117Y9560794D01*
X12858155Y9684093D01*
X12862399Y9699931D01*
X12862400Y9699937D01*
X12862400Y9858062D01*
X12862398Y9858070D01*
X12861855Y9860095D01*
X12850014Y9904289D01*
X12843921Y9927030D01*
X12850164Y9974456D01*
X12888115Y10003576D01*
X12904291Y10005706D01*
X12945924Y10005706D01*
X12945926Y10005706D01*
X12945927Y10005706D01*
X12945932Y10005707D01*
X13085566Y10043122D01*
X13132992Y10036879D01*
X13145936Y10026946D01*
X13268594Y9904289D01*
X13286900Y9860095D01*
X13286900Y6945229D01*
X13286901Y6945221D01*
X13307486Y6868393D01*
X13307487Y6868391D01*
X13347259Y6799506D01*
X13347264Y6799500D01*
X16452599Y3694165D01*
X16470905Y3649971D01*
X16452599Y3605777D01*
X16445150Y3599414D01*
X16385597Y3556146D01*
X16385592Y3556141D01*
X16385589Y3556139D01*
X16255860Y3426410D01*
X16255857Y3426406D01*
X16255854Y3426403D01*
X16151503Y3282776D01*
X16148002Y3277957D01*
X16064704Y3114477D01*
X16064703Y3114475D01*
X16008004Y2939972D01*
X16008002Y2939963D01*
X15979301Y2758756D01*
X15979300Y2758740D01*
X15979300Y2575259D01*
X15979301Y2575243D01*
X16008002Y2394036D01*
X16008004Y2394027D01*
X16064703Y2219524D01*
X16064704Y2219522D01*
X16148002Y2056042D01*
X16255860Y1907589D01*
X16385589Y1777860D01*
X16385596Y1777854D01*
X16385597Y1777854D01*
X16421208Y1751981D01*
X16534042Y1670002D01*
X16697522Y1586704D01*
X16697524Y1586703D01*
X16872027Y1530004D01*
X16872029Y1530003D01*
X16872031Y1530003D01*
X16872032Y1530002D01*
X16872036Y1530002D01*
X17053243Y1501301D01*
X17053255Y1501300D01*
X17053257Y1501300D01*
X17053259Y1501300D01*
X17236741Y1501300D01*
X17236743Y1501300D01*
X17236744Y1501300D01*
X17236756Y1501301D01*
X17417963Y1530002D01*
X17417969Y1530003D01*
X17430551Y1534091D01*
X17592475Y1586703D01*
X17592477Y1586704D01*
X17755957Y1670002D01*
X17755960Y1670004D01*
X17904403Y1777854D01*
X17904406Y1777857D01*
X17904410Y1777860D01*
X18034139Y1907589D01*
X18034141Y1907592D01*
X18034146Y1907597D01*
X18141996Y2056040D01*
X18225297Y2219526D01*
X18281997Y2394031D01*
X18305144Y2540179D01*
X18310698Y2575243D01*
X18310700Y2575259D01*
X18310700Y2758740D01*
X18310698Y2758756D01*
X18305144Y2793821D01*
X18281997Y2939969D01*
X18225297Y3114474D01*
X18141996Y3277960D01*
X18034146Y3426403D01*
X18034139Y3426410D01*
X17932344Y3528206D01*
X17914038Y3572400D01*
X17932344Y3616594D01*
X17976538Y3634900D01*
X18263978Y3634900D01*
X18308172Y3616594D01*
X18641988Y3282776D01*
X18660294Y3238582D01*
X18653482Y3210210D01*
X18631466Y3167000D01*
X18604703Y3114475D01*
X18604702Y3114472D01*
X18548004Y2939972D01*
X18548002Y2939963D01*
X18519301Y2758756D01*
X18519300Y2758740D01*
X18519300Y2575259D01*
X18519301Y2575243D01*
X18548002Y2394036D01*
X18548004Y2394027D01*
X18604703Y2219524D01*
X18604704Y2219522D01*
X18688002Y2056042D01*
X18795860Y1907589D01*
X18925589Y1777860D01*
X18925596Y1777854D01*
X18925597Y1777854D01*
X18961208Y1751981D01*
X19074042Y1670002D01*
X19237522Y1586704D01*
X19237524Y1586703D01*
X19412027Y1530004D01*
X19412029Y1530003D01*
X19412031Y1530003D01*
X19412032Y1530002D01*
X19412036Y1530002D01*
X19593243Y1501301D01*
X19593255Y1501300D01*
X19593257Y1501300D01*
X19593259Y1501300D01*
X19776741Y1501300D01*
X19776743Y1501300D01*
X19776744Y1501300D01*
X19776756Y1501301D01*
X19957963Y1530002D01*
X19957969Y1530003D01*
X19970551Y1534091D01*
X20132475Y1586703D01*
X20132477Y1586704D01*
X20295957Y1670002D01*
X20295960Y1670004D01*
X20444403Y1777854D01*
X20444406Y1777857D01*
X20444410Y1777860D01*
X20574139Y1907589D01*
X20574141Y1907592D01*
X20574146Y1907597D01*
X20681996Y2056040D01*
X20765297Y2219526D01*
X20821997Y2394031D01*
X20845144Y2540179D01*
X20850698Y2575243D01*
X20850700Y2575259D01*
X20850700Y2758740D01*
X21059300Y2758740D01*
X21059300Y2575259D01*
X21059301Y2575243D01*
X21088002Y2394036D01*
X21088004Y2394027D01*
X21144703Y2219524D01*
X21144704Y2219522D01*
X21228002Y2056042D01*
X21335860Y1907589D01*
X21465589Y1777860D01*
X21465596Y1777854D01*
X21465597Y1777854D01*
X21501208Y1751981D01*
X21614042Y1670002D01*
X21777522Y1586704D01*
X21777524Y1586703D01*
X21952027Y1530004D01*
X21952029Y1530003D01*
X21952031Y1530003D01*
X21952032Y1530002D01*
X21952036Y1530002D01*
X22133243Y1501301D01*
X22133255Y1501300D01*
X22133257Y1501300D01*
X22133259Y1501300D01*
X22316741Y1501300D01*
X22316743Y1501300D01*
X22316744Y1501300D01*
X22316756Y1501301D01*
X22497963Y1530002D01*
X22497969Y1530003D01*
X22510551Y1534091D01*
X22672475Y1586703D01*
X22672477Y1586704D01*
X22835957Y1670002D01*
X22835960Y1670004D01*
X22984403Y1777854D01*
X22984406Y1777857D01*
X22984410Y1777860D01*
X23114139Y1907589D01*
X23114141Y1907592D01*
X23114146Y1907597D01*
X23221996Y2056040D01*
X23305297Y2219526D01*
X23361997Y2394031D01*
X23385144Y2540179D01*
X23390698Y2575243D01*
X23390700Y2575259D01*
X23390700Y2758740D01*
X23390698Y2758756D01*
X23385144Y2793821D01*
X23361997Y2939969D01*
X23305297Y3114474D01*
X23221996Y3277960D01*
X23114146Y3426403D01*
X22984403Y3556146D01*
X22835960Y3663996D01*
X22672474Y3747297D01*
X22497969Y3803997D01*
X22316743Y3832700D01*
X22133257Y3832700D01*
X22133249Y3832698D01*
X22133243Y3832698D01*
X22094218Y3826517D01*
X21952031Y3803997D01*
X21777526Y3747297D01*
X21614040Y3663996D01*
X21465597Y3556146D01*
X21465592Y3556141D01*
X21465589Y3556139D01*
X21335860Y3426410D01*
X21335857Y3426406D01*
X21335854Y3426403D01*
X21231503Y3282776D01*
X21228002Y3277957D01*
X21144704Y3114477D01*
X21144703Y3114475D01*
X21088004Y2939972D01*
X21088002Y2939963D01*
X21059301Y2758756D01*
X21059300Y2758740D01*
X20850700Y2758740D01*
X20850698Y2758756D01*
X20845144Y2793821D01*
X20821997Y2939969D01*
X20765297Y3114474D01*
X20681996Y3277960D01*
X20574146Y3426403D01*
X20444403Y3556146D01*
X20295960Y3663996D01*
X20132474Y3747297D01*
X19957969Y3803997D01*
X19776743Y3832700D01*
X19593257Y3832700D01*
X19593249Y3832698D01*
X19593243Y3832698D01*
X19554218Y3826517D01*
X19412031Y3803997D01*
X19237526Y3747297D01*
X19141789Y3698516D01*
X19094103Y3694764D01*
X19069222Y3710011D01*
X18600499Y4178735D01*
X18600498Y4178735D01*
X18600494Y4178740D01*
X18531607Y4218513D01*
X18454772Y4239100D01*
X18454771Y4239100D01*
X16788022Y4239100D01*
X16743828Y4257406D01*
X13909406Y7091828D01*
X13891100Y7136022D01*
X13891100Y7968705D01*
X13909406Y8012899D01*
X13953600Y8031205D01*
X13997794Y8012899D01*
X14109248Y7901444D01*
X14109254Y7901439D01*
X14144651Y7881003D01*
X14173771Y7843052D01*
X14175900Y7826877D01*
X14175900Y7580229D01*
X14175901Y7580221D01*
X14196486Y7503393D01*
X14196487Y7503391D01*
X14236259Y7434506D01*
X14236264Y7434500D01*
X15308500Y6362264D01*
X15308506Y6362259D01*
X15377391Y6322487D01*
X15377393Y6322486D01*
X15454221Y6301901D01*
X15454227Y6301900D01*
X15454228Y6301900D01*
X15533772Y6301900D01*
X17628978Y6301900D01*
X17673172Y6283594D01*
X19499500Y4457264D01*
X19499506Y4457259D01*
X19568391Y4417487D01*
X19568393Y4417486D01*
X19645221Y4396901D01*
X19645227Y4396900D01*
X19645228Y4396900D01*
X19724772Y4396900D01*
X22581978Y4396900D01*
X22626172Y4378594D01*
X23721988Y3282776D01*
X23740294Y3238582D01*
X23733482Y3210210D01*
X23711466Y3167000D01*
X23684703Y3114475D01*
X23684702Y3114472D01*
X23628004Y2939972D01*
X23628002Y2939963D01*
X23599301Y2758756D01*
X23599300Y2758740D01*
X23599300Y2575259D01*
X23599301Y2575243D01*
X23628002Y2394036D01*
X23628004Y2394027D01*
X23684703Y2219524D01*
X23684704Y2219522D01*
X23768002Y2056042D01*
X23875860Y1907589D01*
X24005589Y1777860D01*
X24005596Y1777854D01*
X24005597Y1777854D01*
X24041208Y1751981D01*
X24154042Y1670002D01*
X24317522Y1586704D01*
X24317524Y1586703D01*
X24492027Y1530004D01*
X24492029Y1530003D01*
X24492031Y1530003D01*
X24492032Y1530002D01*
X24492036Y1530002D01*
X24673243Y1501301D01*
X24673255Y1501300D01*
X24673257Y1501300D01*
X24673259Y1501300D01*
X24856741Y1501300D01*
X24856743Y1501300D01*
X24856744Y1501300D01*
X24856756Y1501301D01*
X25037963Y1530002D01*
X25037969Y1530003D01*
X25050551Y1534091D01*
X25212475Y1586703D01*
X25212477Y1586704D01*
X25375957Y1670002D01*
X25375960Y1670004D01*
X25524403Y1777854D01*
X25524406Y1777857D01*
X25524410Y1777860D01*
X25654139Y1907589D01*
X25654141Y1907592D01*
X25654146Y1907597D01*
X25761996Y2056040D01*
X25845297Y2219526D01*
X25901997Y2394031D01*
X25925144Y2540179D01*
X25930698Y2575243D01*
X25930700Y2575259D01*
X25930700Y2758740D01*
X26139300Y2758740D01*
X26139300Y2575259D01*
X26139301Y2575243D01*
X26168002Y2394036D01*
X26168004Y2394027D01*
X26224703Y2219524D01*
X26224704Y2219522D01*
X26308002Y2056042D01*
X26415860Y1907589D01*
X26545589Y1777860D01*
X26545596Y1777854D01*
X26545597Y1777854D01*
X26581208Y1751981D01*
X26694042Y1670002D01*
X26857522Y1586704D01*
X26857524Y1586703D01*
X27032027Y1530004D01*
X27032029Y1530003D01*
X27032031Y1530003D01*
X27032032Y1530002D01*
X27032036Y1530002D01*
X27213243Y1501301D01*
X27213255Y1501300D01*
X27213257Y1501300D01*
X27213259Y1501300D01*
X27396741Y1501300D01*
X27396743Y1501300D01*
X27396744Y1501300D01*
X27396756Y1501301D01*
X27577963Y1530002D01*
X27577969Y1530003D01*
X27590551Y1534091D01*
X27752475Y1586703D01*
X27752477Y1586704D01*
X27915957Y1670002D01*
X27915960Y1670004D01*
X28064403Y1777854D01*
X28064406Y1777857D01*
X28064410Y1777860D01*
X28194139Y1907589D01*
X28194141Y1907592D01*
X28194146Y1907597D01*
X28301996Y2056040D01*
X28385297Y2219526D01*
X28441997Y2394031D01*
X28465144Y2540179D01*
X28470698Y2575243D01*
X28470700Y2575259D01*
X28470700Y2758740D01*
X28679300Y2758740D01*
X28679300Y2575259D01*
X28679301Y2575243D01*
X28708002Y2394036D01*
X28708004Y2394027D01*
X28764703Y2219524D01*
X28764704Y2219522D01*
X28848002Y2056042D01*
X28955860Y1907589D01*
X29085589Y1777860D01*
X29085596Y1777854D01*
X29085597Y1777854D01*
X29121208Y1751981D01*
X29234042Y1670002D01*
X29397522Y1586704D01*
X29397524Y1586703D01*
X29572027Y1530004D01*
X29572029Y1530003D01*
X29572031Y1530003D01*
X29572032Y1530002D01*
X29572036Y1530002D01*
X29753243Y1501301D01*
X29753255Y1501300D01*
X29753257Y1501300D01*
X29753259Y1501300D01*
X29936741Y1501300D01*
X29936743Y1501300D01*
X29936744Y1501300D01*
X29936756Y1501301D01*
X30117963Y1530002D01*
X30117969Y1530003D01*
X30130551Y1534091D01*
X30292475Y1586703D01*
X30292477Y1586704D01*
X30455957Y1670002D01*
X30455960Y1670004D01*
X30604403Y1777854D01*
X30604406Y1777857D01*
X30604410Y1777860D01*
X30734139Y1907589D01*
X30734141Y1907592D01*
X30734146Y1907597D01*
X30841996Y2056040D01*
X30925297Y2219526D01*
X30981997Y2394031D01*
X31005144Y2540179D01*
X31010698Y2575243D01*
X31010700Y2575259D01*
X31010700Y2758740D01*
X31010698Y2758756D01*
X31005144Y2793821D01*
X30981997Y2939969D01*
X30925297Y3114474D01*
X30841996Y3277960D01*
X30734146Y3426403D01*
X30604403Y3556146D01*
X30455960Y3663996D01*
X30292474Y3747297D01*
X30117969Y3803997D01*
X29936743Y3832700D01*
X29753257Y3832700D01*
X29753249Y3832698D01*
X29753243Y3832698D01*
X29714218Y3826517D01*
X29572031Y3803997D01*
X29397526Y3747297D01*
X29234040Y3663996D01*
X29085597Y3556146D01*
X29085592Y3556141D01*
X29085589Y3556139D01*
X28955860Y3426410D01*
X28955857Y3426406D01*
X28955854Y3426403D01*
X28851503Y3282776D01*
X28848002Y3277957D01*
X28764704Y3114477D01*
X28764703Y3114475D01*
X28708004Y2939972D01*
X28708002Y2939963D01*
X28679301Y2758756D01*
X28679300Y2758740D01*
X28470700Y2758740D01*
X28470698Y2758756D01*
X28465144Y2793821D01*
X28441997Y2939969D01*
X28385297Y3114474D01*
X28301996Y3277960D01*
X28194146Y3426403D01*
X28064403Y3556146D01*
X27915960Y3663996D01*
X27752474Y3747297D01*
X27577969Y3803997D01*
X27396743Y3832700D01*
X27213257Y3832700D01*
X27213249Y3832698D01*
X27213243Y3832698D01*
X27174218Y3826517D01*
X27032031Y3803997D01*
X26857526Y3747297D01*
X26694040Y3663996D01*
X26545597Y3556146D01*
X26545592Y3556141D01*
X26545589Y3556139D01*
X26415860Y3426410D01*
X26415857Y3426406D01*
X26415854Y3426403D01*
X26311503Y3282776D01*
X26308002Y3277957D01*
X26224704Y3114477D01*
X26224703Y3114475D01*
X26168004Y2939972D01*
X26168002Y2939963D01*
X26139301Y2758756D01*
X26139300Y2758740D01*
X25930700Y2758740D01*
X25930698Y2758756D01*
X25925144Y2793821D01*
X25901997Y2939969D01*
X25845297Y3114474D01*
X25761996Y3277960D01*
X25654146Y3426403D01*
X25524403Y3556146D01*
X25375960Y3663996D01*
X25212474Y3747297D01*
X25037969Y3803997D01*
X24856743Y3832700D01*
X24673257Y3832700D01*
X24673249Y3832698D01*
X24673243Y3832698D01*
X24634218Y3826517D01*
X24492031Y3803997D01*
X24317526Y3747297D01*
X24221789Y3698516D01*
X24174103Y3694764D01*
X24149222Y3710011D01*
X22918499Y4940735D01*
X22918498Y4940735D01*
X22918494Y4940740D01*
X22849607Y4980513D01*
X22772772Y5001100D01*
X22772771Y5001100D01*
X19836022Y5001100D01*
X19791828Y5019406D01*
X17965499Y6845735D01*
X17965494Y6845740D01*
X17896607Y6885513D01*
X17819772Y6906100D01*
X17819771Y6906100D01*
X15645022Y6906100D01*
X15600828Y6924406D01*
X14798406Y7726828D01*
X14780100Y7771022D01*
X14780100Y7826877D01*
X14798406Y7871071D01*
X14811349Y7881003D01*
X14846745Y7901439D01*
X14846751Y7901444D01*
X14958555Y8013248D01*
X14958558Y8013252D01*
X14958560Y8013254D01*
X15037623Y8150196D01*
X15071653Y8277196D01*
X15078549Y8302931D01*
X15078550Y8302937D01*
X15078550Y8461062D01*
X15078549Y8461068D01*
X15063708Y8516453D01*
X15037623Y8613804D01*
X14958560Y8750746D01*
X14846746Y8862560D01*
X14709804Y8941623D01*
X14558945Y8982046D01*
X14557068Y8982549D01*
X14557067Y8982549D01*
X14557064Y8982550D01*
X14398936Y8982550D01*
X14398933Y8982549D01*
X14398931Y8982549D01*
X14339670Y8966669D01*
X14246196Y8941623D01*
X14109254Y8862560D01*
X14109252Y8862558D01*
X14109248Y8862555D01*
X13997794Y8751101D01*
X13953600Y8732795D01*
X13909406Y8751101D01*
X13891100Y8795295D01*
X13891100Y9564772D01*
X15318900Y9564772D01*
X15318900Y9561748D01*
X15318900Y8723229D01*
X15318901Y8723221D01*
X15339486Y8646393D01*
X15339487Y8646391D01*
X15379259Y8577506D01*
X15379264Y8577500D01*
X15465046Y8491718D01*
X15483352Y8447524D01*
X15474979Y8416275D01*
X15442378Y8359807D01*
X15442376Y8359801D01*
X15401450Y8207068D01*
X15401450Y8048931D01*
X15442376Y7896198D01*
X15442376Y7896196D01*
X15521441Y7759252D01*
X15521444Y7759248D01*
X15633248Y7647444D01*
X15633252Y7647441D01*
X15770197Y7568376D01*
X15922931Y7527450D01*
X15922936Y7527450D01*
X16081068Y7527450D01*
X16233801Y7568376D01*
X16233803Y7568376D01*
X16302275Y7607908D01*
X16370746Y7647440D01*
X16370747Y7647441D01*
X16370751Y7647444D01*
X16482555Y7759248D01*
X16482558Y7759252D01*
X16482560Y7759254D01*
X16561623Y7896196D01*
X16592987Y8013248D01*
X16602549Y8048931D01*
X16602550Y8048937D01*
X16602550Y8207062D01*
X16602549Y8207068D01*
X16576862Y8302931D01*
X16561623Y8359804D01*
X16482560Y8496746D01*
X16462853Y8516453D01*
X16444546Y8560647D01*
X16462851Y8604841D01*
X16490869Y8621018D01*
X16614801Y8654226D01*
X16614803Y8654226D01*
X16683275Y8693758D01*
X16751746Y8733290D01*
X16751747Y8733291D01*
X16751751Y8733294D01*
X16863555Y8845098D01*
X16863558Y8845102D01*
X16863560Y8845104D01*
X16942623Y8982046D01*
X16972186Y9092376D01*
X16983549Y9134781D01*
X16983550Y9134787D01*
X16983550Y9292912D01*
X16983549Y9292918D01*
X16949238Y9420967D01*
X16955481Y9468394D01*
X16965414Y9481338D01*
X17145870Y9661794D01*
X17190064Y9680100D01*
X18623936Y9680100D01*
X18668130Y9661794D01*
X19502751Y8827171D01*
X19521057Y8782977D01*
X19512683Y8751727D01*
X19506379Y8740808D01*
X19506376Y8740801D01*
X19465450Y8588068D01*
X19465450Y8429931D01*
X19506376Y8277198D01*
X19506376Y8277196D01*
X19585441Y8140252D01*
X19585444Y8140248D01*
X19697248Y8028444D01*
X19697252Y8028441D01*
X19834197Y7949376D01*
X19986931Y7908450D01*
X19986936Y7908450D01*
X20145068Y7908450D01*
X20297801Y7949376D01*
X20297803Y7949376D01*
X20407828Y8012899D01*
X20434746Y8028440D01*
X20434747Y8028441D01*
X20434751Y8028444D01*
X20546555Y8140248D01*
X20546558Y8140252D01*
X20546560Y8140254D01*
X20625623Y8277196D01*
X20666550Y8429936D01*
X20666550Y8588064D01*
X20625623Y8740804D01*
X20546560Y8877746D01*
X20434746Y8989560D01*
X20297804Y9068623D01*
X20261588Y9078326D01*
X20233574Y9094500D01*
X19221270Y10106806D01*
X19202964Y10151000D01*
X19221270Y10195194D01*
X19265464Y10213500D01*
X19686378Y10213500D01*
X19730572Y10195194D01*
X20515500Y9410264D01*
X20515506Y9410259D01*
X20584391Y9370487D01*
X20584393Y9370486D01*
X20661221Y9349901D01*
X20661227Y9349900D01*
X20661228Y9349900D01*
X20740772Y9349900D01*
X23066877Y9349900D01*
X23111071Y9331594D01*
X23121003Y9318651D01*
X23141439Y9283254D01*
X23141444Y9283248D01*
X23253248Y9171444D01*
X23253252Y9171441D01*
X23390197Y9092376D01*
X23542931Y9051450D01*
X23542936Y9051450D01*
X23701068Y9051450D01*
X23853801Y9092376D01*
X23853803Y9092376D01*
X23927261Y9134787D01*
X23990746Y9171440D01*
X23990747Y9171441D01*
X23990751Y9171444D01*
X24102555Y9283248D01*
X24102558Y9283252D01*
X24102560Y9283254D01*
X24181623Y9420196D01*
X24219297Y9560794D01*
X24222549Y9572931D01*
X24222550Y9572937D01*
X24222550Y9731062D01*
X24222549Y9731068D01*
X24192993Y9841370D01*
X24181623Y9883804D01*
X24102560Y10020746D01*
X23990746Y10132560D01*
X23853804Y10211623D01*
X23701064Y10252550D01*
X23542936Y10252550D01*
X23542933Y10252549D01*
X23542931Y10252549D01*
X23483670Y10236669D01*
X23390196Y10211623D01*
X23253254Y10132560D01*
X23253252Y10132558D01*
X23253248Y10132555D01*
X23141444Y10020751D01*
X23141439Y10020745D01*
X23121003Y9985349D01*
X23083052Y9956229D01*
X23066877Y9954100D01*
X20852022Y9954100D01*
X20807828Y9972406D01*
X20022899Y10757335D01*
X20022894Y10757340D01*
X19954007Y10797113D01*
X19877172Y10817700D01*
X16651372Y10817700D01*
X16571828Y10817700D01*
X16571821Y10817698D01*
X16494993Y10797113D01*
X16494991Y10797112D01*
X16426106Y10757340D01*
X16426100Y10757335D01*
X15379264Y9710499D01*
X15379259Y9710493D01*
X15339487Y9641608D01*
X15339486Y9641606D01*
X15323956Y9583643D01*
X15323952Y9583628D01*
X15323676Y9582596D01*
X15318900Y9564772D01*
X13891100Y9564772D01*
X13891100Y10050888D01*
X13891098Y10050896D01*
X13870514Y10127720D01*
X13870513Y10127724D01*
X13830740Y10196612D01*
X13774494Y10252858D01*
X13485718Y10541634D01*
X13467412Y10585828D01*
X13467412Y10685318D01*
X13467411Y10685324D01*
X13437457Y10797112D01*
X13426485Y10838060D01*
X13347422Y10975002D01*
X13235608Y11086816D01*
X13098666Y11165879D01*
X12945926Y11206806D01*
X12787798Y11206806D01*
X12787795Y11206805D01*
X12787793Y11206805D01*
X12740409Y11194108D01*
X12635058Y11165879D01*
X12498116Y11086816D01*
X12498114Y11086814D01*
X12498110Y11086811D01*
X12386306Y10975007D01*
X12386303Y10975003D01*
X12386302Y10975002D01*
X12346770Y10906531D01*
X12307238Y10838059D01*
X12307238Y10838057D01*
X12266312Y10685324D01*
X12266312Y10527193D01*
X12266313Y10527185D01*
X12284791Y10458226D01*
X12278548Y10410800D01*
X12240597Y10381680D01*
X12224421Y10379550D01*
X12182786Y10379550D01*
X12182780Y10379548D01*
X12182778Y10379548D01*
X12141007Y10368356D01*
X12093581Y10374599D01*
X12064461Y10412550D01*
X12064461Y10444900D01*
X12083109Y10514495D01*
X12083109Y10672623D01*
X12042182Y10825363D01*
X11963119Y10962305D01*
X11851305Y11074119D01*
X11714363Y11153182D01*
X11561623Y11194109D01*
X11403495Y11194109D01*
X11403492Y11194108D01*
X11403490Y11194108D01*
X11344229Y11178228D01*
X11250755Y11153182D01*
X11113813Y11074119D01*
X11113811Y11074117D01*
X11113807Y11074114D01*
X11002003Y10962310D01*
X11002000Y10962306D01*
X10922935Y10825362D01*
X10922935Y10825360D01*
X10882009Y10672627D01*
X5674495Y10672627D01*
X5747904Y10874315D01*
X5806380Y11149427D01*
X5826000Y11430000D01*
X5816166Y11570631D01*
X25928911Y11570631D01*
X25928911Y11289368D01*
X25968053Y11010853D01*
X26045579Y10740489D01*
X26159979Y10483541D01*
X26309023Y10245023D01*
X26489810Y10029569D01*
X26489814Y10029564D01*
X26698823Y9841372D01*
X26698822Y9841372D01*
X26931996Y9684095D01*
X26932005Y9684090D01*
X27184798Y9560794D01*
X27452281Y9473885D01*
X27452283Y9473884D01*
X27452285Y9473884D01*
X27452287Y9473883D01*
X27452290Y9473883D01*
X27729263Y9425045D01*
X27729279Y9425043D01*
X28010356Y9415228D01*
X28010357Y9415228D01*
X28290075Y9444628D01*
X28562978Y9512670D01*
X28562979Y9512670D01*
X28562985Y9512672D01*
X28823755Y9618030D01*
X28823757Y9618031D01*
X28965620Y9699936D01*
X29067333Y9758660D01*
X29288967Y9931820D01*
X29484346Y10134140D01*
X29649665Y10361683D01*
X29649667Y10361686D01*
X29649669Y10361689D01*
X29781703Y10610010D01*
X29781707Y10610017D01*
X29804495Y10672627D01*
X29877904Y10874315D01*
X29936380Y11149427D01*
X29956000Y11430000D01*
X29936380Y11710573D01*
X29877904Y11985685D01*
X29781708Y12249981D01*
X29649665Y12498317D01*
X29484346Y12725860D01*
X29288967Y12928180D01*
X29067333Y13101340D01*
X28823756Y13241969D01*
X28562978Y13347330D01*
X28290075Y13415372D01*
X28010357Y13444772D01*
X27729271Y13434956D01*
X27452285Y13386116D01*
X27278143Y13329534D01*
X27184798Y13299205D01*
X27184795Y13299203D01*
X27184793Y13299203D01*
X26932000Y13175907D01*
X26821450Y13101340D01*
X26698822Y13018627D01*
X26489814Y12830435D01*
X26489810Y12830430D01*
X26309023Y12614976D01*
X26159979Y12376458D01*
X26045579Y12119510D01*
X25968053Y11849146D01*
X25928911Y11570631D01*
X5816166Y11570631D01*
X5806380Y11710573D01*
X5747904Y11985685D01*
X5651708Y12249981D01*
X5519665Y12498317D01*
X5354346Y12725860D01*
X5158967Y12928180D01*
X4937333Y13101340D01*
X4693756Y13241969D01*
X4432978Y13347330D01*
X4160075Y13415372D01*
X3880357Y13444772D01*
X3599271Y13434956D01*
X3322285Y13386116D01*
X3148143Y13329534D01*
X3054798Y13299205D01*
X3054795Y13299203D01*
X3054793Y13299203D01*
X2802000Y13175907D01*
X2691450Y13101340D01*
X2568822Y13018627D01*
X2359814Y12830435D01*
X2359810Y12830430D01*
X2179023Y12614976D01*
X2029979Y12376458D01*
X1915579Y12119510D01*
X1838053Y11849146D01*
X1798911Y11570631D01*
X500500Y11570631D01*
X500500Y17632433D01*
X518806Y17676627D01*
X563000Y17694933D01*
X607194Y17676627D01*
X625107Y17639431D01*
X646761Y17447237D01*
X646763Y17447224D01*
X715256Y17147139D01*
X715256Y17147137D01*
X816914Y16856614D01*
X950471Y16579279D01*
X1114230Y16318658D01*
X1114242Y16318641D01*
X1306137Y16078012D01*
X1306155Y16077992D01*
X1523792Y15860355D01*
X1523812Y15860337D01*
X1764441Y15668442D01*
X1764458Y15668430D01*
X2025079Y15504671D01*
X2302414Y15371114D01*
X2592938Y15269456D01*
X2893024Y15200963D01*
X2893036Y15200961D01*
X3113548Y15176116D01*
X3198897Y15166500D01*
X3198900Y15166500D01*
X3506700Y15166500D01*
X3506703Y15166500D01*
X3600805Y15177102D01*
X3812563Y15200961D01*
X3812575Y15200963D01*
X4112660Y15269456D01*
X4112662Y15269456D01*
X4403185Y15371114D01*
X4403193Y15371118D01*
X4403196Y15371119D01*
X4680520Y15504671D01*
X4941147Y15668434D01*
X4941149Y15668436D01*
X4941158Y15668442D01*
X5181787Y15860337D01*
X5181793Y15860342D01*
X5181800Y15860348D01*
X5399452Y16078000D01*
X5408621Y16089497D01*
X5591357Y16318641D01*
X5591361Y16318647D01*
X5591366Y16318653D01*
X5755129Y16579280D01*
X5888681Y16856604D01*
X5888683Y16856610D01*
X5888685Y16856614D01*
X5969750Y17088285D01*
X9299100Y17088285D01*
X9299100Y16185714D01*
X9937315Y15547500D01*
X10839886Y15547500D01*
X11478100Y16185714D01*
X11478100Y17088285D01*
X12042300Y17088285D01*
X12042300Y16185714D01*
X12680515Y15547500D01*
X13572378Y15547500D01*
X13616572Y15529194D01*
X13634878Y15485000D01*
X13616572Y15440806D01*
X12712264Y14536499D01*
X12712259Y14536493D01*
X12672487Y14467608D01*
X12670358Y14459661D01*
X12670357Y14459656D01*
X12651901Y14390778D01*
X12651900Y14390770D01*
X12651900Y12747121D01*
X12633594Y12702927D01*
X12620654Y12692997D01*
X12585254Y12672560D01*
X12585253Y12672559D01*
X12473444Y12560751D01*
X12473441Y12560747D01*
X12394376Y12423803D01*
X12394376Y12423801D01*
X12353450Y12271068D01*
X12353450Y12112931D01*
X12394376Y11960198D01*
X12394376Y11960196D01*
X12473441Y11823252D01*
X12473444Y11823248D01*
X12585248Y11711444D01*
X12585252Y11711441D01*
X12722197Y11632376D01*
X12874931Y11591450D01*
X12874936Y11591450D01*
X13033068Y11591450D01*
X13185801Y11632376D01*
X13185803Y11632376D01*
X13254275Y11671908D01*
X13322746Y11711440D01*
X13322747Y11711441D01*
X13322751Y11711444D01*
X13417806Y11806499D01*
X13462000Y11824805D01*
X13506194Y11806499D01*
X13601248Y11711444D01*
X13601252Y11711441D01*
X13738197Y11632376D01*
X13890931Y11591450D01*
X13890936Y11591450D01*
X14049068Y11591450D01*
X14201801Y11632376D01*
X14201803Y11632376D01*
X14270275Y11671908D01*
X14338746Y11711440D01*
X14338747Y11711441D01*
X14338751Y11711444D01*
X14450555Y11823248D01*
X14450558Y11823252D01*
X14450560Y11823254D01*
X14529623Y11960196D01*
X14570550Y12112936D01*
X14570550Y12271064D01*
X14570549Y12271068D01*
X14753750Y12271068D01*
X14753750Y12112931D01*
X14794676Y11960198D01*
X14794676Y11960196D01*
X14873741Y11823252D01*
X14873744Y11823248D01*
X14985548Y11711444D01*
X14985552Y11711441D01*
X15122497Y11632376D01*
X15275231Y11591450D01*
X15275236Y11591450D01*
X15433368Y11591450D01*
X15586101Y11632376D01*
X15586103Y11632376D01*
X15654575Y11671908D01*
X15723046Y11711440D01*
X15723047Y11711441D01*
X15723051Y11711444D01*
X15834855Y11823248D01*
X15834858Y11823252D01*
X15834860Y11823254D01*
X15913923Y11960196D01*
X15954850Y12112936D01*
X15954850Y12271064D01*
X15913923Y12423804D01*
X15834860Y12560746D01*
X15723046Y12672560D01*
X15687650Y12692995D01*
X15658530Y12730943D01*
X15656400Y12747121D01*
X15656400Y13222078D01*
X15674706Y13266272D01*
X18017230Y15608796D01*
X18061424Y15627102D01*
X18105618Y15608796D01*
X18166915Y15547500D01*
X19069486Y15547500D01*
X19530206Y16008220D01*
X19574400Y16026526D01*
X19618594Y16008220D01*
X19636900Y15964026D01*
X19636900Y15518022D01*
X19618594Y15473828D01*
X16942913Y12798147D01*
X16898719Y12779841D01*
X16882548Y12781970D01*
X16843064Y12792550D01*
X16684936Y12792550D01*
X16684933Y12792549D01*
X16684931Y12792549D01*
X16645455Y12781971D01*
X16532196Y12751623D01*
X16395254Y12672560D01*
X16395252Y12672558D01*
X16395248Y12672555D01*
X16283444Y12560751D01*
X16283441Y12560747D01*
X16204376Y12423803D01*
X16204376Y12423801D01*
X16163450Y12271068D01*
X16163450Y12112931D01*
X16204376Y11960198D01*
X16204376Y11960196D01*
X16283441Y11823252D01*
X16283444Y11823248D01*
X16395248Y11711444D01*
X16395252Y11711441D01*
X16532197Y11632376D01*
X16684931Y11591450D01*
X16684936Y11591450D01*
X16843068Y11591450D01*
X16995802Y11632376D01*
X16995803Y11632376D01*
X17064275Y11671908D01*
X17132746Y11711440D01*
X17132747Y11711441D01*
X17132751Y11711444D01*
X17244555Y11823248D01*
X17244558Y11823252D01*
X17244560Y11823254D01*
X17323623Y11960196D01*
X17364550Y12112936D01*
X17364550Y12271064D01*
X17353971Y12310543D01*
X17360214Y12357967D01*
X17370147Y12370913D01*
X20180735Y15181500D01*
X20180740Y15181506D01*
X20220512Y15250391D01*
X20220513Y15250393D01*
X20241098Y15327221D01*
X20241100Y15327229D01*
X20241100Y15919255D01*
X20259406Y15963449D01*
X20303600Y15981755D01*
X20347794Y15963449D01*
X20813897Y15497346D01*
X20813898Y15497344D01*
X20824323Y15488888D01*
X20824324Y15488887D01*
X20929332Y15445393D01*
X20929329Y15445393D01*
X20942694Y15444000D01*
X21209400Y15444000D01*
X21209400Y16151807D01*
X21294520Y16129000D01*
X21428280Y16129000D01*
X21513400Y16151807D01*
X21513400Y15444000D01*
X21780118Y15444000D01*
X21793468Y15445393D01*
X21898474Y15488888D01*
X21908898Y15497342D01*
X22501054Y16089497D01*
X22501055Y16089498D01*
X22509511Y16099923D01*
X22509512Y16099924D01*
X22553006Y16204931D01*
X22554400Y16218294D01*
X22554400Y16485000D01*
X21846592Y16485000D01*
X21869400Y16570120D01*
X21869400Y16703880D01*
X21846592Y16789000D01*
X22554400Y16789000D01*
X22554400Y17055717D01*
X22553006Y17069068D01*
X22509511Y17174074D01*
X22501057Y17184498D01*
X21908902Y17776654D01*
X21908901Y17776655D01*
X21898476Y17785111D01*
X21898475Y17785112D01*
X21793467Y17828606D01*
X21793470Y17828606D01*
X21780106Y17830000D01*
X21513400Y17830000D01*
X21513400Y17122192D01*
X21428280Y17145000D01*
X21294520Y17145000D01*
X21209400Y17122192D01*
X21209400Y17830000D01*
X20942682Y17830000D01*
X20929331Y17828606D01*
X20824325Y17785111D01*
X20813901Y17776657D01*
X20347794Y17310550D01*
X20303600Y17292244D01*
X20259406Y17310550D01*
X20241100Y17354744D01*
X20241100Y18025000D01*
X20259406Y18069194D01*
X20303600Y18087500D01*
X20441086Y18087500D01*
X21079300Y18725714D01*
X21079300Y19628285D01*
X21079300Y19628286D01*
X20441085Y20266500D01*
X19538514Y20266500D01*
X18900300Y19628285D01*
X18900300Y18725714D01*
X19538515Y18087500D01*
X19574400Y18087500D01*
X19618594Y18069194D01*
X19636900Y18025000D01*
X19636900Y17309973D01*
X19618594Y17265779D01*
X19574400Y17247473D01*
X19530206Y17265779D01*
X19069485Y17726500D01*
X18166914Y17726500D01*
X17528700Y17088285D01*
X17528700Y16185713D01*
X17589995Y16124418D01*
X17608301Y16080224D01*
X17589995Y16036030D01*
X15112564Y13558599D01*
X15112559Y13558593D01*
X15072787Y13489708D01*
X15070658Y13481761D01*
X15070657Y13481756D01*
X15052201Y13412878D01*
X15052200Y13412870D01*
X15052200Y12747121D01*
X15033894Y12702927D01*
X15020954Y12692997D01*
X14985554Y12672560D01*
X14985553Y12672559D01*
X14873744Y12560751D01*
X14873741Y12560747D01*
X14794676Y12423803D01*
X14794676Y12423801D01*
X14753750Y12271068D01*
X14570549Y12271068D01*
X14529623Y12423804D01*
X14450560Y12560746D01*
X14338746Y12672560D01*
X14303350Y12692995D01*
X14274230Y12730943D01*
X14272100Y12747121D01*
X14272100Y14580978D01*
X14290406Y14625172D01*
X15274030Y15608796D01*
X15318224Y15627102D01*
X15362418Y15608796D01*
X15423715Y15547500D01*
X16326286Y15547500D01*
X16964500Y16185714D01*
X16964500Y17088285D01*
X16964500Y17088286D01*
X16326285Y17726500D01*
X15423714Y17726500D01*
X15144439Y17447224D01*
X14912194Y17214979D01*
X14868000Y17196673D01*
X14823806Y17214979D01*
X14805500Y17259173D01*
X14805500Y18025000D01*
X14823806Y18069194D01*
X14868000Y18087500D01*
X14954686Y18087500D01*
X15592900Y18725714D01*
X15592900Y19628285D01*
X16157100Y19628285D01*
X16157100Y18725714D01*
X16795315Y18087500D01*
X17697886Y18087500D01*
X18336100Y18725714D01*
X18336100Y19628285D01*
X18336100Y19628286D01*
X17697885Y20266500D01*
X16795314Y20266500D01*
X16157100Y19628285D01*
X15592900Y19628285D01*
X15592900Y19628286D01*
X14954685Y20266500D01*
X14052114Y20266500D01*
X13413900Y19628285D01*
X13413900Y18725714D01*
X14052115Y18087500D01*
X14138800Y18087500D01*
X14182994Y18069194D01*
X14201300Y18025000D01*
X14201300Y17259173D01*
X14182994Y17214979D01*
X14138800Y17196673D01*
X14094606Y17214979D01*
X13583085Y17726500D01*
X12680514Y17726500D01*
X12042300Y17088285D01*
X11478100Y17088285D01*
X11478100Y17088286D01*
X10839885Y17726500D01*
X9937314Y17726500D01*
X9299100Y17088285D01*
X5969750Y17088285D01*
X5981323Y17121359D01*
X5990343Y17147137D01*
X5990343Y17147139D01*
X6001649Y17196673D01*
X6058837Y17447226D01*
X6093300Y17753097D01*
X6093300Y18060903D01*
X6058837Y18366774D01*
X5990343Y18666863D01*
X5888681Y18957396D01*
X5755129Y19234720D01*
X5591366Y19495347D01*
X5568088Y19524536D01*
X5506514Y19601749D01*
X5485352Y19628285D01*
X10670700Y19628285D01*
X10670700Y18725714D01*
X11308915Y18087500D01*
X12211486Y18087500D01*
X12849700Y18725714D01*
X12849700Y19628285D01*
X12849700Y19628286D01*
X12211485Y20266500D01*
X11308914Y20266500D01*
X10670700Y19628285D01*
X5485352Y19628285D01*
X5399462Y19735987D01*
X5399452Y19736000D01*
X5181800Y19953652D01*
X4941147Y20145566D01*
X4680520Y20309329D01*
X4403196Y20442881D01*
X4112663Y20544543D01*
X3812574Y20613037D01*
X3506703Y20647500D01*
X3198897Y20647500D01*
X2893026Y20613037D01*
X2592937Y20544543D01*
X2302414Y20442885D01*
X2302410Y20442883D01*
X2302404Y20442881D01*
X2025080Y20309329D01*
X1764453Y20145566D01*
X1764447Y20145561D01*
X1764441Y20145557D01*
X1523812Y19953662D01*
X1523807Y19953658D01*
X1523800Y19953652D01*
X1306148Y19736000D01*
X1306142Y19735993D01*
X1306137Y19735987D01*
X1114242Y19495358D01*
X1114230Y19495341D01*
X950471Y19234720D01*
X816914Y18957385D01*
X715256Y18666862D01*
X715256Y18666860D01*
X646763Y18366775D01*
X646761Y18366763D01*
X625107Y18174568D01*
X601968Y18132702D01*
X556002Y18119459D01*
X514136Y18142598D01*
X500500Y18181566D01*
X500500Y28774000D01*
X518806Y28818194D01*
X563000Y28836500D01*
X31187000Y28836500D01*
X31231194Y28818194D01*
G37*
%TD.AperFunction*%
%TD*%
M02*
