%TF.GenerationSoftware,KiCad,Pcbnew,10.99.0-3758-g2f18d95be7*%
%TF.CreationDate,2026-09-22T00:16:41+01:00*%
%TF.ProjectId,kicad_file,6b696361-645f-4666-996c-652e6b696361,rev?*%
%TF.SameCoordinates,Original*%
%TF.FileFunction,Paste,Top*%
%TF.FilePolarity,Positive*%
%FSLAX46Y46*%
G04 Gerber Fmt 4.6, Leading zero omitted, Abs format (unit mm)*
G04 Created by KiCad (PCBNEW 10.99.0-3758-g2f18d95be7) date 2026-09-22 00:16:41*
%MOMM*%
%LPD*%
G01*
G04 APERTURE LIST*
%ADD10R,0.400000X1.500000*%
%ADD11R,1.000000X1.075000*%
%ADD12R,1.240000X1.500000*%
%ADD13R,1.075000X1.000000*%
G04 APERTURE END LIST*
D10*
%TO.C,IC1*%
X19465000Y13912000D03*
X18815000Y13912000D03*
X18165000Y13912000D03*
X17515000Y13912000D03*
X16865000Y13912000D03*
X16215000Y13912000D03*
X15565000Y13912000D03*
X14915000Y13912000D03*
X14265000Y13912000D03*
X13615000Y13912000D03*
X12965000Y13912000D03*
X12315000Y13912000D03*
X11665000Y13912000D03*
X11015000Y13912000D03*
X11015000Y6662000D03*
X11665000Y6662000D03*
X12315000Y6662000D03*
X12965000Y6662000D03*
X13615000Y6662000D03*
X14265000Y6662000D03*
X14915000Y6662000D03*
X15565000Y6662000D03*
X16215000Y6662000D03*
X16865000Y6662000D03*
X17515000Y6662000D03*
X18165000Y6662000D03*
X18815000Y6662000D03*
X19465000Y6662000D03*
%TD*%
D11*
%TO.C,C18*%
X21336000Y8406500D03*
X21336000Y6706500D03*
%TD*%
%TO.C,R4*%
X7620000Y11342000D03*
X7620000Y13042000D03*
%TD*%
%TO.C,C1*%
X21209000Y12231000D03*
X21209000Y13931000D03*
%TD*%
%TO.C,R1*%
X25908000Y8343000D03*
X25908000Y6643000D03*
%TD*%
%TO.C,R3*%
X9144000Y11342000D03*
X9144000Y13042000D03*
%TD*%
D12*
%TO.C,C17*%
X1907500Y5778500D03*
X3807500Y5778500D03*
%TD*%
D13*
%TO.C,R5*%
X7532000Y9652000D03*
X9232000Y9652000D03*
%TD*%
D11*
%TO.C,R2*%
X24384000Y6643000D03*
X24384000Y8343000D03*
%TD*%
%TO.C,C2*%
X22860000Y6643000D03*
X22860000Y8343000D03*
%TD*%
%TO.C,C3*%
X22860000Y13931000D03*
X22860000Y12231000D03*
%TD*%
M02*
