ISO-10303-21;
HEADER;
FILE_DESCRIPTION(('KiCad electronic assembly'),'2;1');
FILE_NAME('model.step','1970-01-01T00:00:00',('Pcbnew'),('Kicad'),
  'Open CASCADE STEP processor 7.9','KiCad to STEP converter','Unknown'
  );
FILE_SCHEMA(('AUTOMOTIVE_DESIGN { 1 0 10303 214 1 1 1 1 }'));
ENDSEC;
DATA;
#1 = APPLICATION_PROTOCOL_DEFINITION('international standard',
  'automotive_design',2000,#2);
#2 = APPLICATION_CONTEXT(
  'core data for automotive mechanical design processes');
#3 = SHAPE_DEFINITION_REPRESENTATION(#4,#10);
#4 = PRODUCT_DEFINITION_SHAPE('','',#5);
#5 = PRODUCT_DEFINITION('design','',#6,#9);
#6 = PRODUCT_DEFINITION_FORMATION('','',#7);
#7 = PRODUCT('model 1','model 1','',(#8));
#8 = PRODUCT_CONTEXT('',#2,'mechanical');
#9 = PRODUCT_DEFINITION_CONTEXT('part definition',#2,'design');
#10 = SHAPE_REPRESENTATION('',(#11,#15,#19),#23);
#11 = AXIS2_PLACEMENT_3D('',#12,#13,#14);
#12 = CARTESIAN_POINT('',(0.,0.,0.));
#13 = DIRECTION('',(0.,0.,1.));
#14 = DIRECTION('',(1.,0.,-0.));
#15 = AXIS2_PLACEMENT_3D('',#16,#17,#18);
#16 = CARTESIAN_POINT('',(0.,0.,0.));
#17 = DIRECTION('',(0.,0.,1.));
#18 = DIRECTION('',(1.,0.,-0.));
#19 = AXIS2_PLACEMENT_3D('',#20,#21,#22);
#20 = CARTESIAN_POINT('',(0.,0.,0.));
#21 = DIRECTION('',(0.,0.,1.));
#22 = DIRECTION('',(1.,0.,-0.));
#23 = ( GEOMETRIC_REPRESENTATION_CONTEXT(3) 
GLOBAL_UNCERTAINTY_ASSIGNED_CONTEXT((#27)) GLOBAL_UNIT_ASSIGNED_CONTEXT(
(#24,#25,#26)) REPRESENTATION_CONTEXT('Context #1',
  '3D Context with UNIT and UNCERTAINTY') );
#24 = ( LENGTH_UNIT() NAMED_UNIT(*) SI_UNIT(.MILLI.,.METRE.) );
#25 = ( NAMED_UNIT(*) PLANE_ANGLE_UNIT() SI_UNIT($,.RADIAN.) );
#26 = ( NAMED_UNIT(*) SI_UNIT($,.STERADIAN.) SOLID_ANGLE_UNIT() );
#27 = UNCERTAINTY_MEASURE_WITH_UNIT(LENGTH_MEASURE(1.E-07),#24,
  'distance_accuracy_value','confusion accuracy');
#28 = PRODUCT_RELATED_PRODUCT_CATEGORY('part',$,(#7));
#29 = SHAPE_DEFINITION_REPRESENTATION(#30,#36);
#30 = PRODUCT_DEFINITION_SHAPE('','',#31);
#31 = PRODUCT_DEFINITION('design','',#32,#35);
#32 = PRODUCT_DEFINITION_FORMATION('','',#33);
#33 = PRODUCT(
'electronic_connector_terminal_block_3_5_mm_pitch_through_hole_3_pin_
green_screw_terminal_1x03_p3_5_mm_green_render_pad',
'electronic_connector_terminal_block_3_5_mm_pitch_through_hole_3_pin_
green_screw_terminal_1x03_p3_5_mm_green_render_pad','',(#34));
#34 = PRODUCT_CONTEXT('',#2,'mechanical');
#35 = PRODUCT_DEFINITION_CONTEXT('part definition',#2,'design');
#36 = SHAPE_REPRESENTATION('',(#11,#37,#366,#695,#787,#879,#971,#1063,
    #1155,#1247),#1339);
#37 = MANIFOLD_SOLID_BREP('',#38);
#38 = CLOSED_SHELL('',(#39,#81,#112,#143,#206,#269,#286,#303,#320,#337,
    #349));
#39 = ADVANCED_FACE('',(#40),#76,.T.);
#40 = FACE_BOUND('',#41,.T.);
#41 = EDGE_LOOP('',(#42,#52,#61,#69));
#42 = ORIENTED_EDGE('',*,*,#43,.T.);
#43 = EDGE_CURVE('',#44,#46,#48,.T.);
#44 = VERTEX_POINT('',#45);
#45 = CARTESIAN_POINT('',(-1.3,1.05,1.51));
#46 = VERTEX_POINT('',#47);
#47 = CARTESIAN_POINT('',(-1.3,1.05,1.55));
#48 = LINE('',#49,#50);
#49 = CARTESIAN_POINT('',(-1.3,1.05,1.51));
#50 = VECTOR('',#51,1.);
#51 = DIRECTION('',(0.,0.,1.));
#52 = ORIENTED_EDGE('',*,*,#53,.T.);
#53 = EDGE_CURVE('',#46,#54,#56,.T.);
#54 = VERTEX_POINT('',#55);
#55 = CARTESIAN_POINT('',(-1.05,1.3,1.55));
#56 = CIRCLE('',#57,0.249998959685);
#57 = AXIS2_PLACEMENT_3D('',#58,#59,#60);
#58 = CARTESIAN_POINT('',(-1.050001040317,1.050001040317,1.55));
#59 = DIRECTION('',(0.,0.,-1.));
#60 = DIRECTION('',(-0.999999999991,-4.161285832626E-06,-0.));
#61 = ORIENTED_EDGE('',*,*,#62,.F.);
#62 = EDGE_CURVE('',#63,#54,#65,.T.);
#63 = VERTEX_POINT('',#64);
#64 = CARTESIAN_POINT('',(-1.05,1.3,1.51));
#65 = LINE('',#66,#67);
#66 = CARTESIAN_POINT('',(-1.05,1.3,1.51));
#67 = VECTOR('',#68,1.);
#68 = DIRECTION('',(0.,0.,1.));
#69 = ORIENTED_EDGE('',*,*,#70,.F.);
#70 = EDGE_CURVE('',#44,#63,#71,.T.);
#71 = CIRCLE('',#72,0.249998959685);
#72 = AXIS2_PLACEMENT_3D('',#73,#74,#75);
#73 = CARTESIAN_POINT('',(-1.050001040317,1.050001040317,1.51));
#74 = DIRECTION('',(0.,0.,-1.));
#75 = DIRECTION('',(-0.999999999991,-4.161285832626E-06,-0.));
#76 = CYLINDRICAL_SURFACE('',#77,0.249998959685);
#77 = AXIS2_PLACEMENT_3D('',#78,#79,#80);
#78 = CARTESIAN_POINT('',(-1.050001040317,1.050001040317,1.51));
#79 = DIRECTION('',(0.,0.,-1.));
#80 = DIRECTION('',(-0.999999999991,-4.161285832626E-06,-0.));
#81 = ADVANCED_FACE('',(#82),#107,.T.);
#82 = FACE_BOUND('',#83,.T.);
#83 = EDGE_LOOP('',(#84,#94,#100,#101));
#84 = ORIENTED_EDGE('',*,*,#85,.T.);
#85 = EDGE_CURVE('',#86,#88,#90,.T.);
#86 = VERTEX_POINT('',#87);
#87 = CARTESIAN_POINT('',(-1.3,-1.05,1.51));
#88 = VERTEX_POINT('',#89);
#89 = CARTESIAN_POINT('',(-1.3,-1.05,1.55));
#90 = LINE('',#91,#92);
#91 = CARTESIAN_POINT('',(-1.3,-1.05,1.51));
#92 = VECTOR('',#93,1.);
#93 = DIRECTION('',(0.,0.,1.));
#94 = ORIENTED_EDGE('',*,*,#95,.T.);
#95 = EDGE_CURVE('',#88,#46,#96,.T.);
#96 = LINE('',#97,#98);
#97 = CARTESIAN_POINT('',(-1.3,-1.05,1.55));
#98 = VECTOR('',#99,1.);
#99 = DIRECTION('',(0.,1.,0.));
#100 = ORIENTED_EDGE('',*,*,#43,.F.);
#101 = ORIENTED_EDGE('',*,*,#102,.F.);
#102 = EDGE_CURVE('',#86,#44,#103,.T.);
#103 = LINE('',#104,#105);
#104 = CARTESIAN_POINT('',(-1.3,-1.05,1.51));
#105 = VECTOR('',#106,1.);
#106 = DIRECTION('',(0.,1.,0.));
#107 = PLANE('',#108);
#108 = AXIS2_PLACEMENT_3D('',#109,#110,#111);
#109 = CARTESIAN_POINT('',(-1.3,-1.05,1.51));
#110 = DIRECTION('',(-1.,0.,0.));
#111 = DIRECTION('',(0.,1.,0.));
#112 = ADVANCED_FACE('',(#113),#138,.T.);
#113 = FACE_BOUND('',#114,.T.);
#114 = EDGE_LOOP('',(#115,#116,#124,#132));
#115 = ORIENTED_EDGE('',*,*,#62,.T.);
#116 = ORIENTED_EDGE('',*,*,#117,.T.);
#117 = EDGE_CURVE('',#54,#118,#120,.T.);
#118 = VERTEX_POINT('',#119);
#119 = CARTESIAN_POINT('',(1.05,1.3,1.55));
#120 = LINE('',#121,#122);
#121 = CARTESIAN_POINT('',(-1.05,1.3,1.55));
#122 = VECTOR('',#123,1.);
#123 = DIRECTION('',(1.,0.,0.));
#124 = ORIENTED_EDGE('',*,*,#125,.F.);
#125 = EDGE_CURVE('',#126,#118,#128,.T.);
#126 = VERTEX_POINT('',#127);
#127 = CARTESIAN_POINT('',(1.05,1.3,1.51));
#128 = LINE('',#129,#130);
#129 = CARTESIAN_POINT('',(1.05,1.3,1.51));
#130 = VECTOR('',#131,1.);
#131 = DIRECTION('',(0.,0.,1.));
#132 = ORIENTED_EDGE('',*,*,#133,.F.);
#133 = EDGE_CURVE('',#63,#126,#134,.T.);
#134 = LINE('',#135,#136);
#135 = CARTESIAN_POINT('',(-1.05,1.3,1.51));
#136 = VECTOR('',#137,1.);
#137 = DIRECTION('',(1.,0.,0.));
#138 = PLANE('',#139);
#139 = AXIS2_PLACEMENT_3D('',#140,#141,#142);
#140 = CARTESIAN_POINT('',(-1.05,1.3,1.51));
#141 = DIRECTION('',(0.,1.,0.));
#142 = DIRECTION('',(1.,0.,0.));
#143 = ADVANCED_FACE('',(#144,#190),#201,.F.);
#144 = FACE_BOUND('',#145,.F.);
#145 = EDGE_LOOP('',(#146,#147,#148,#157,#165,#174,#182,#189));
#146 = ORIENTED_EDGE('',*,*,#70,.F.);
#147 = ORIENTED_EDGE('',*,*,#102,.F.);
#148 = ORIENTED_EDGE('',*,*,#149,.F.);
#149 = EDGE_CURVE('',#150,#86,#152,.T.);
#150 = VERTEX_POINT('',#151);
#151 = CARTESIAN_POINT('',(-1.05,-1.3,1.51));
#152 = CIRCLE('',#153,0.249998959685);
#153 = AXIS2_PLACEMENT_3D('',#154,#155,#156);
#154 = CARTESIAN_POINT('',(-1.050001040317,-1.050001040317,1.51));
#155 = DIRECTION('',(0.,0.,-1.));
#156 = DIRECTION('',(4.161285832626E-06,-0.999999999991,0.));
#157 = ORIENTED_EDGE('',*,*,#158,.F.);
#158 = EDGE_CURVE('',#159,#150,#161,.T.);
#159 = VERTEX_POINT('',#160);
#160 = CARTESIAN_POINT('',(1.05,-1.3,1.51));
#161 = LINE('',#162,#163);
#162 = CARTESIAN_POINT('',(1.05,-1.3,1.51));
#163 = VECTOR('',#164,1.);
#164 = DIRECTION('',(-1.,0.,0.));
#165 = ORIENTED_EDGE('',*,*,#166,.F.);
#166 = EDGE_CURVE('',#167,#159,#169,.T.);
#167 = VERTEX_POINT('',#168);
#168 = CARTESIAN_POINT('',(1.3,-1.05,1.51));
#169 = CIRCLE('',#170,0.249998959685);
#170 = AXIS2_PLACEMENT_3D('',#171,#172,#173);
#171 = CARTESIAN_POINT('',(1.050001040317,-1.050001040317,1.51));
#172 = DIRECTION('',(0.,0.,-1.));
#173 = DIRECTION('',(0.999999999991,4.161285832626E-06,0.));
#174 = ORIENTED_EDGE('',*,*,#175,.F.);
#175 = EDGE_CURVE('',#176,#167,#178,.T.);
#176 = VERTEX_POINT('',#177);
#177 = CARTESIAN_POINT('',(1.3,1.05,1.51));
#178 = LINE('',#179,#180);
#179 = CARTESIAN_POINT('',(1.3,1.05,1.51));
#180 = VECTOR('',#181,1.);
#181 = DIRECTION('',(0.,-1.,0.));
#182 = ORIENTED_EDGE('',*,*,#183,.F.);
#183 = EDGE_CURVE('',#126,#176,#184,.T.);
#184 = CIRCLE('',#185,0.249998959685);
#185 = AXIS2_PLACEMENT_3D('',#186,#187,#188);
#186 = CARTESIAN_POINT('',(1.050001040317,1.050001040317,1.51));
#187 = DIRECTION('',(0.,0.,-1.));
#188 = DIRECTION('',(-4.161285832626E-06,0.999999999991,0.));
#189 = ORIENTED_EDGE('',*,*,#133,.F.);
#190 = FACE_BOUND('',#191,.F.);
#191 = EDGE_LOOP('',(#192));
#192 = ORIENTED_EDGE('',*,*,#193,.T.);
#193 = EDGE_CURVE('',#194,#194,#196,.T.);
#194 = VERTEX_POINT('',#195);
#195 = CARTESIAN_POINT('',(-1.232595164408E-32,-0.625,1.51));
#196 = CIRCLE('',#197,0.625);
#197 = AXIS2_PLACEMENT_3D('',#198,#199,#200);
#198 = CARTESIAN_POINT('',(-5.551115123126E-17,1.110223024625E-16,1.51)
  );
#199 = DIRECTION('',(-0.,0.,-1.));
#200 = DIRECTION('',(8.881784197001E-17,-1.,-0.));
#201 = PLANE('',#202);
#202 = AXIS2_PLACEMENT_3D('',#203,#204,#205);
#203 = CARTESIAN_POINT('',(0.,0.,1.51));
#204 = DIRECTION('',(0.,0.,1.));
#205 = DIRECTION('',(1.,0.,-0.));
#206 = ADVANCED_FACE('',(#207,#253),#264,.T.);
#207 = FACE_BOUND('',#208,.T.);
#208 = EDGE_LOOP('',(#209,#210,#211,#220,#228,#237,#245,#252));
#209 = ORIENTED_EDGE('',*,*,#53,.F.);
#210 = ORIENTED_EDGE('',*,*,#95,.F.);
#211 = ORIENTED_EDGE('',*,*,#212,.F.);
#212 = EDGE_CURVE('',#213,#88,#215,.T.);
#213 = VERTEX_POINT('',#214);
#214 = CARTESIAN_POINT('',(-1.05,-1.3,1.55));
#215 = CIRCLE('',#216,0.249998959685);
#216 = AXIS2_PLACEMENT_3D('',#217,#218,#219);
#217 = CARTESIAN_POINT('',(-1.050001040317,-1.050001040317,1.55));
#218 = DIRECTION('',(0.,0.,-1.));
#219 = DIRECTION('',(4.161285832626E-06,-0.999999999991,0.));
#220 = ORIENTED_EDGE('',*,*,#221,.F.);
#221 = EDGE_CURVE('',#222,#213,#224,.T.);
#222 = VERTEX_POINT('',#223);
#223 = CARTESIAN_POINT('',(1.05,-1.3,1.55));
#224 = LINE('',#225,#226);
#225 = CARTESIAN_POINT('',(1.05,-1.3,1.55));
#226 = VECTOR('',#227,1.);
#227 = DIRECTION('',(-1.,0.,0.));
#228 = ORIENTED_EDGE('',*,*,#229,.F.);
#229 = EDGE_CURVE('',#230,#222,#232,.T.);
#230 = VERTEX_POINT('',#231);
#231 = CARTESIAN_POINT('',(1.3,-1.05,1.55));
#232 = CIRCLE('',#233,0.249998959685);
#233 = AXIS2_PLACEMENT_3D('',#234,#235,#236);
#234 = CARTESIAN_POINT('',(1.050001040317,-1.050001040317,1.55));
#235 = DIRECTION('',(0.,0.,-1.));
#236 = DIRECTION('',(0.999999999991,4.161285832626E-06,0.));
#237 = ORIENTED_EDGE('',*,*,#238,.F.);
#238 = EDGE_CURVE('',#239,#230,#241,.T.);
#239 = VERTEX_POINT('',#240);
#240 = CARTESIAN_POINT('',(1.3,1.05,1.55));
#241 = LINE('',#242,#243);
#242 = CARTESIAN_POINT('',(1.3,1.05,1.55));
#243 = VECTOR('',#244,1.);
#244 = DIRECTION('',(0.,-1.,0.));
#245 = ORIENTED_EDGE('',*,*,#246,.F.);
#246 = EDGE_CURVE('',#118,#239,#247,.T.);
#247 = CIRCLE('',#248,0.249998959685);
#248 = AXIS2_PLACEMENT_3D('',#249,#250,#251);
#249 = CARTESIAN_POINT('',(1.050001040317,1.050001040317,1.55));
#250 = DIRECTION('',(0.,0.,-1.));
#251 = DIRECTION('',(-4.161285832626E-06,0.999999999991,0.));
#252 = ORIENTED_EDGE('',*,*,#117,.F.);
#253 = FACE_BOUND('',#254,.T.);
#254 = EDGE_LOOP('',(#255));
#255 = ORIENTED_EDGE('',*,*,#256,.T.);
#256 = EDGE_CURVE('',#257,#257,#259,.T.);
#257 = VERTEX_POINT('',#258);
#258 = CARTESIAN_POINT('',(-1.232595164408E-32,-0.625,1.55));
#259 = CIRCLE('',#260,0.625);
#260 = AXIS2_PLACEMENT_3D('',#261,#262,#263);
#261 = CARTESIAN_POINT('',(-5.551115123126E-17,1.110223024625E-16,1.55)
  );
#262 = DIRECTION('',(-0.,0.,-1.));
#263 = DIRECTION('',(8.881784197001E-17,-1.,-0.));
#264 = PLANE('',#265);
#265 = AXIS2_PLACEMENT_3D('',#266,#267,#268);
#266 = CARTESIAN_POINT('',(0.,0.,1.55));
#267 = DIRECTION('',(0.,0.,1.));
#268 = DIRECTION('',(1.,0.,-0.));
#269 = ADVANCED_FACE('',(#270),#281,.T.);
#270 = FACE_BOUND('',#271,.T.);
#271 = EDGE_LOOP('',(#272,#278,#279,#280));
#272 = ORIENTED_EDGE('',*,*,#273,.T.);
#273 = EDGE_CURVE('',#150,#213,#274,.T.);
#274 = LINE('',#275,#276);
#275 = CARTESIAN_POINT('',(-1.05,-1.3,1.51));
#276 = VECTOR('',#277,1.);
#277 = DIRECTION('',(0.,0.,1.));
#278 = ORIENTED_EDGE('',*,*,#212,.T.);
#279 = ORIENTED_EDGE('',*,*,#85,.F.);
#280 = ORIENTED_EDGE('',*,*,#149,.F.);
#281 = CYLINDRICAL_SURFACE('',#282,0.249998959685);
#282 = AXIS2_PLACEMENT_3D('',#283,#284,#285);
#283 = CARTESIAN_POINT('',(-1.050001040317,-1.050001040317,1.51));
#284 = DIRECTION('',(0.,0.,-1.));
#285 = DIRECTION('',(4.161285832626E-06,-0.999999999991,0.));
#286 = ADVANCED_FACE('',(#287),#298,.T.);
#287 = FACE_BOUND('',#288,.T.);
#288 = EDGE_LOOP('',(#289,#290,#291,#297));
#289 = ORIENTED_EDGE('',*,*,#125,.T.);
#290 = ORIENTED_EDGE('',*,*,#246,.T.);
#291 = ORIENTED_EDGE('',*,*,#292,.F.);
#292 = EDGE_CURVE('',#176,#239,#293,.T.);
#293 = LINE('',#294,#295);
#294 = CARTESIAN_POINT('',(1.3,1.05,1.51));
#295 = VECTOR('',#296,1.);
#296 = DIRECTION('',(0.,0.,1.));
#297 = ORIENTED_EDGE('',*,*,#183,.F.);
#298 = CYLINDRICAL_SURFACE('',#299,0.249998959685);
#299 = AXIS2_PLACEMENT_3D('',#300,#301,#302);
#300 = CARTESIAN_POINT('',(1.050001040317,1.050001040317,1.51));
#301 = DIRECTION('',(0.,0.,-1.));
#302 = DIRECTION('',(-4.161285832626E-06,0.999999999991,0.));
#303 = ADVANCED_FACE('',(#304),#315,.T.);
#304 = FACE_BOUND('',#305,.T.);
#305 = EDGE_LOOP('',(#306,#312,#313,#314));
#306 = ORIENTED_EDGE('',*,*,#307,.T.);
#307 = EDGE_CURVE('',#159,#222,#308,.T.);
#308 = LINE('',#309,#310);
#309 = CARTESIAN_POINT('',(1.05,-1.3,1.51));
#310 = VECTOR('',#311,1.);
#311 = DIRECTION('',(0.,0.,1.));
#312 = ORIENTED_EDGE('',*,*,#221,.T.);
#313 = ORIENTED_EDGE('',*,*,#273,.F.);
#314 = ORIENTED_EDGE('',*,*,#158,.F.);
#315 = PLANE('',#316);
#316 = AXIS2_PLACEMENT_3D('',#317,#318,#319);
#317 = CARTESIAN_POINT('',(1.05,-1.3,1.51));
#318 = DIRECTION('',(0.,-1.,0.));
#319 = DIRECTION('',(-1.,0.,0.));
#320 = ADVANCED_FACE('',(#321),#332,.T.);
#321 = FACE_BOUND('',#322,.T.);
#322 = EDGE_LOOP('',(#323,#324,#325,#331));
#323 = ORIENTED_EDGE('',*,*,#292,.T.);
#324 = ORIENTED_EDGE('',*,*,#238,.T.);
#325 = ORIENTED_EDGE('',*,*,#326,.F.);
#326 = EDGE_CURVE('',#167,#230,#327,.T.);
#327 = LINE('',#328,#329);
#328 = CARTESIAN_POINT('',(1.3,-1.05,1.51));
#329 = VECTOR('',#330,1.);
#330 = DIRECTION('',(0.,0.,1.));
#331 = ORIENTED_EDGE('',*,*,#175,.F.);
#332 = PLANE('',#333);
#333 = AXIS2_PLACEMENT_3D('',#334,#335,#336);
#334 = CARTESIAN_POINT('',(1.3,1.05,1.51));
#335 = DIRECTION('',(1.,0.,-0.));
#336 = DIRECTION('',(0.,-1.,0.));
#337 = ADVANCED_FACE('',(#338),#344,.T.);
#338 = FACE_BOUND('',#339,.T.);
#339 = EDGE_LOOP('',(#340,#341,#342,#343));
#340 = ORIENTED_EDGE('',*,*,#326,.T.);
#341 = ORIENTED_EDGE('',*,*,#229,.T.);
#342 = ORIENTED_EDGE('',*,*,#307,.F.);
#343 = ORIENTED_EDGE('',*,*,#166,.F.);
#344 = CYLINDRICAL_SURFACE('',#345,0.249998959685);
#345 = AXIS2_PLACEMENT_3D('',#346,#347,#348);
#346 = CARTESIAN_POINT('',(1.050001040317,-1.050001040317,1.51));
#347 = DIRECTION('',(0.,0.,-1.));
#348 = DIRECTION('',(0.999999999991,4.161285832626E-06,0.));
#349 = ADVANCED_FACE('',(#350),#361,.F.);
#350 = FACE_BOUND('',#351,.T.);
#351 = EDGE_LOOP('',(#352,#353,#359,#360));
#352 = ORIENTED_EDGE('',*,*,#193,.T.);
#353 = ORIENTED_EDGE('',*,*,#354,.T.);
#354 = EDGE_CURVE('',#194,#257,#355,.T.);
#355 = LINE('',#356,#357);
#356 = CARTESIAN_POINT('',(-1.232595164408E-32,-0.625,-4.6E-02));
#357 = VECTOR('',#358,1.);
#358 = DIRECTION('',(0.,0.,1.));
#359 = ORIENTED_EDGE('',*,*,#256,.F.);
#360 = ORIENTED_EDGE('',*,*,#354,.F.);
#361 = CYLINDRICAL_SURFACE('',#362,0.625);
#362 = AXIS2_PLACEMENT_3D('',#363,#364,#365);
#363 = CARTESIAN_POINT('',(-5.551115123126E-17,1.110223024625E-16,
    -4.6E-02));
#364 = DIRECTION('',(-0.,0.,-1.));
#365 = DIRECTION('',(8.881784197001E-17,-1.,-0.));
#366 = MANIFOLD_SOLID_BREP('',#367);
#367 = CLOSED_SHELL('',(#368,#410,#441,#472,#535,#598,#615,#632,#649,
    #666,#678));
#368 = ADVANCED_FACE('',(#369),#405,.T.);
#369 = FACE_BOUND('',#370,.F.);
#370 = EDGE_LOOP('',(#371,#381,#390,#398));
#371 = ORIENTED_EDGE('',*,*,#372,.T.);
#372 = EDGE_CURVE('',#373,#375,#377,.T.);
#373 = VERTEX_POINT('',#374);
#374 = CARTESIAN_POINT('',(-1.3,1.05,0.));
#375 = VERTEX_POINT('',#376);
#376 = CARTESIAN_POINT('',(-1.3,1.05,-4.E-02));
#377 = LINE('',#378,#379);
#378 = CARTESIAN_POINT('',(-1.3,1.05,0.));
#379 = VECTOR('',#380,1.);
#380 = DIRECTION('',(0.,0.,-1.));
#381 = ORIENTED_EDGE('',*,*,#382,.T.);
#382 = EDGE_CURVE('',#375,#383,#385,.T.);
#383 = VERTEX_POINT('',#384);
#384 = CARTESIAN_POINT('',(-1.05,1.3,-4.E-02));
#385 = CIRCLE('',#386,0.249998959685);
#386 = AXIS2_PLACEMENT_3D('',#387,#388,#389);
#387 = CARTESIAN_POINT('',(-1.050001040317,1.050001040317,-4.E-02));
#388 = DIRECTION('',(0.,0.,-1.));
#389 = DIRECTION('',(-0.999999999991,-4.161285832626E-06,-0.));
#390 = ORIENTED_EDGE('',*,*,#391,.F.);
#391 = EDGE_CURVE('',#392,#383,#394,.T.);
#392 = VERTEX_POINT('',#393);
#393 = CARTESIAN_POINT('',(-1.05,1.3,0.));
#394 = LINE('',#395,#396);
#395 = CARTESIAN_POINT('',(-1.05,1.3,0.));
#396 = VECTOR('',#397,1.);
#397 = DIRECTION('',(0.,0.,-1.));
#398 = ORIENTED_EDGE('',*,*,#399,.F.);
#399 = EDGE_CURVE('',#373,#392,#400,.T.);
#400 = CIRCLE('',#401,0.249998959685);
#401 = AXIS2_PLACEMENT_3D('',#402,#403,#404);
#402 = CARTESIAN_POINT('',(-1.050001040317,1.050001040317,0.));
#403 = DIRECTION('',(0.,0.,-1.));
#404 = DIRECTION('',(-0.999999999991,-4.161285832626E-06,-0.));
#405 = CYLINDRICAL_SURFACE('',#406,0.249998959685);
#406 = AXIS2_PLACEMENT_3D('',#407,#408,#409);
#407 = CARTESIAN_POINT('',(-1.050001040317,1.050001040317,0.));
#408 = DIRECTION('',(-0.,-0.,1.));
#409 = DIRECTION('',(-0.999999999991,-4.161285832626E-06,-0.));
#410 = ADVANCED_FACE('',(#411),#436,.F.);
#411 = FACE_BOUND('',#412,.F.);
#412 = EDGE_LOOP('',(#413,#423,#429,#430));
#413 = ORIENTED_EDGE('',*,*,#414,.T.);
#414 = EDGE_CURVE('',#415,#417,#419,.T.);
#415 = VERTEX_POINT('',#416);
#416 = CARTESIAN_POINT('',(-1.3,-1.05,0.));
#417 = VERTEX_POINT('',#418);
#418 = CARTESIAN_POINT('',(-1.3,-1.05,-4.E-02));
#419 = LINE('',#420,#421);
#420 = CARTESIAN_POINT('',(-1.3,-1.05,0.));
#421 = VECTOR('',#422,1.);
#422 = DIRECTION('',(0.,0.,-1.));
#423 = ORIENTED_EDGE('',*,*,#424,.T.);
#424 = EDGE_CURVE('',#417,#375,#425,.T.);
#425 = LINE('',#426,#427);
#426 = CARTESIAN_POINT('',(-1.3,-1.05,-4.E-02));
#427 = VECTOR('',#428,1.);
#428 = DIRECTION('',(0.,1.,0.));
#429 = ORIENTED_EDGE('',*,*,#372,.F.);
#430 = ORIENTED_EDGE('',*,*,#431,.F.);
#431 = EDGE_CURVE('',#415,#373,#432,.T.);
#432 = LINE('',#433,#434);
#433 = CARTESIAN_POINT('',(-1.3,-1.05,0.));
#434 = VECTOR('',#435,1.);
#435 = DIRECTION('',(0.,1.,0.));
#436 = PLANE('',#437);
#437 = AXIS2_PLACEMENT_3D('',#438,#439,#440);
#438 = CARTESIAN_POINT('',(-1.3,-1.05,0.));
#439 = DIRECTION('',(1.,-0.,0.));
#440 = DIRECTION('',(0.,1.,0.));
#441 = ADVANCED_FACE('',(#442),#467,.F.);
#442 = FACE_BOUND('',#443,.F.);
#443 = EDGE_LOOP('',(#444,#445,#453,#461));
#444 = ORIENTED_EDGE('',*,*,#391,.T.);
#445 = ORIENTED_EDGE('',*,*,#446,.T.);
#446 = EDGE_CURVE('',#383,#447,#449,.T.);
#447 = VERTEX_POINT('',#448);
#448 = CARTESIAN_POINT('',(1.05,1.3,-4.E-02));
#449 = LINE('',#450,#451);
#450 = CARTESIAN_POINT('',(-1.05,1.3,-4.E-02));
#451 = VECTOR('',#452,1.);
#452 = DIRECTION('',(1.,0.,0.));
#453 = ORIENTED_EDGE('',*,*,#454,.F.);
#454 = EDGE_CURVE('',#455,#447,#457,.T.);
#455 = VERTEX_POINT('',#456);
#456 = CARTESIAN_POINT('',(1.05,1.3,0.));
#457 = LINE('',#458,#459);
#458 = CARTESIAN_POINT('',(1.05,1.3,0.));
#459 = VECTOR('',#460,1.);
#460 = DIRECTION('',(0.,0.,-1.));
#461 = ORIENTED_EDGE('',*,*,#462,.F.);
#462 = EDGE_CURVE('',#392,#455,#463,.T.);
#463 = LINE('',#464,#465);
#464 = CARTESIAN_POINT('',(-1.05,1.3,0.));
#465 = VECTOR('',#466,1.);
#466 = DIRECTION('',(1.,0.,0.));
#467 = PLANE('',#468);
#468 = AXIS2_PLACEMENT_3D('',#469,#470,#471);
#469 = CARTESIAN_POINT('',(-1.05,1.3,0.));
#470 = DIRECTION('',(0.,-1.,0.));
#471 = DIRECTION('',(1.,0.,0.));
#472 = ADVANCED_FACE('',(#473,#519),#530,.F.);
#473 = FACE_BOUND('',#474,.F.);
#474 = EDGE_LOOP('',(#475,#476,#477,#486,#494,#503,#511,#518));
#475 = ORIENTED_EDGE('',*,*,#399,.T.);
#476 = ORIENTED_EDGE('',*,*,#462,.T.);
#477 = ORIENTED_EDGE('',*,*,#478,.T.);
#478 = EDGE_CURVE('',#455,#479,#481,.T.);
#479 = VERTEX_POINT('',#480);
#480 = CARTESIAN_POINT('',(1.3,1.05,0.));
#481 = CIRCLE('',#482,0.249998959685);
#482 = AXIS2_PLACEMENT_3D('',#483,#484,#485);
#483 = CARTESIAN_POINT('',(1.050001040317,1.050001040317,0.));
#484 = DIRECTION('',(0.,0.,-1.));
#485 = DIRECTION('',(-4.161285832626E-06,0.999999999991,0.));
#486 = ORIENTED_EDGE('',*,*,#487,.T.);
#487 = EDGE_CURVE('',#479,#488,#490,.T.);
#488 = VERTEX_POINT('',#489);
#489 = CARTESIAN_POINT('',(1.3,-1.05,0.));
#490 = LINE('',#491,#492);
#491 = CARTESIAN_POINT('',(1.3,1.05,0.));
#492 = VECTOR('',#493,1.);
#493 = DIRECTION('',(0.,-1.,0.));
#494 = ORIENTED_EDGE('',*,*,#495,.T.);
#495 = EDGE_CURVE('',#488,#496,#498,.T.);
#496 = VERTEX_POINT('',#497);
#497 = CARTESIAN_POINT('',(1.05,-1.3,0.));
#498 = CIRCLE('',#499,0.249998959685);
#499 = AXIS2_PLACEMENT_3D('',#500,#501,#502);
#500 = CARTESIAN_POINT('',(1.050001040317,-1.050001040317,0.));
#501 = DIRECTION('',(0.,0.,-1.));
#502 = DIRECTION('',(0.999999999991,4.161285832626E-06,0.));
#503 = ORIENTED_EDGE('',*,*,#504,.T.);
#504 = EDGE_CURVE('',#496,#505,#507,.T.);
#505 = VERTEX_POINT('',#506);
#506 = CARTESIAN_POINT('',(-1.05,-1.3,0.));
#507 = LINE('',#508,#509);
#508 = CARTESIAN_POINT('',(1.05,-1.3,0.));
#509 = VECTOR('',#510,1.);
#510 = DIRECTION('',(-1.,0.,0.));
#511 = ORIENTED_EDGE('',*,*,#512,.T.);
#512 = EDGE_CURVE('',#505,#415,#513,.T.);
#513 = CIRCLE('',#514,0.249998959685);
#514 = AXIS2_PLACEMENT_3D('',#515,#516,#517);
#515 = CARTESIAN_POINT('',(-1.050001040317,-1.050001040317,0.));
#516 = DIRECTION('',(0.,0.,-1.));
#517 = DIRECTION('',(4.161285832626E-06,-0.999999999991,0.));
#518 = ORIENTED_EDGE('',*,*,#431,.T.);
#519 = FACE_BOUND('',#520,.F.);
#520 = EDGE_LOOP('',(#521));
#521 = ORIENTED_EDGE('',*,*,#522,.F.);
#522 = EDGE_CURVE('',#523,#523,#525,.T.);
#523 = VERTEX_POINT('',#524);
#524 = CARTESIAN_POINT('',(-1.232595164408E-32,-0.625,0.));
#525 = CIRCLE('',#526,0.625);
#526 = AXIS2_PLACEMENT_3D('',#527,#528,#529);
#527 = CARTESIAN_POINT('',(-5.551115123126E-17,1.110223024625E-16,0.));
#528 = DIRECTION('',(-0.,0.,-1.));
#529 = DIRECTION('',(8.881784197001E-17,-1.,-0.));
#530 = PLANE('',#531);
#531 = AXIS2_PLACEMENT_3D('',#532,#533,#534);
#532 = CARTESIAN_POINT('',(0.,0.,0.));
#533 = DIRECTION('',(-0.,-0.,-1.));
#534 = DIRECTION('',(-1.,0.,0.));
#535 = ADVANCED_FACE('',(#536,#582),#593,.T.);
#536 = FACE_BOUND('',#537,.T.);
#537 = EDGE_LOOP('',(#538,#539,#540,#549,#557,#566,#574,#581));
#538 = ORIENTED_EDGE('',*,*,#382,.T.);
#539 = ORIENTED_EDGE('',*,*,#446,.T.);
#540 = ORIENTED_EDGE('',*,*,#541,.T.);
#541 = EDGE_CURVE('',#447,#542,#544,.T.);
#542 = VERTEX_POINT('',#543);
#543 = CARTESIAN_POINT('',(1.3,1.05,-4.E-02));
#544 = CIRCLE('',#545,0.249998959685);
#545 = AXIS2_PLACEMENT_3D('',#546,#547,#548);
#546 = CARTESIAN_POINT('',(1.050001040317,1.050001040317,-4.E-02));
#547 = DIRECTION('',(0.,0.,-1.));
#548 = DIRECTION('',(-4.161285832626E-06,0.999999999991,0.));
#549 = ORIENTED_EDGE('',*,*,#550,.T.);
#550 = EDGE_CURVE('',#542,#551,#553,.T.);
#551 = VERTEX_POINT('',#552);
#552 = CARTESIAN_POINT('',(1.3,-1.05,-4.E-02));
#553 = LINE('',#554,#555);
#554 = CARTESIAN_POINT('',(1.3,1.05,-4.E-02));
#555 = VECTOR('',#556,1.);
#556 = DIRECTION('',(0.,-1.,0.));
#557 = ORIENTED_EDGE('',*,*,#558,.T.);
#558 = EDGE_CURVE('',#551,#559,#561,.T.);
#559 = VERTEX_POINT('',#560);
#560 = CARTESIAN_POINT('',(1.05,-1.3,-4.E-02));
#561 = CIRCLE('',#562,0.249998959685);
#562 = AXIS2_PLACEMENT_3D('',#563,#564,#565);
#563 = CARTESIAN_POINT('',(1.050001040317,-1.050001040317,-4.E-02));
#564 = DIRECTION('',(0.,0.,-1.));
#565 = DIRECTION('',(0.999999999991,4.161285832626E-06,0.));
#566 = ORIENTED_EDGE('',*,*,#567,.T.);
#567 = EDGE_CURVE('',#559,#568,#570,.T.);
#568 = VERTEX_POINT('',#569);
#569 = CARTESIAN_POINT('',(-1.05,-1.3,-4.E-02));
#570 = LINE('',#571,#572);
#571 = CARTESIAN_POINT('',(1.05,-1.3,-4.E-02));
#572 = VECTOR('',#573,1.);
#573 = DIRECTION('',(-1.,0.,0.));
#574 = ORIENTED_EDGE('',*,*,#575,.T.);
#575 = EDGE_CURVE('',#568,#417,#576,.T.);
#576 = CIRCLE('',#577,0.249998959685);
#577 = AXIS2_PLACEMENT_3D('',#578,#579,#580);
#578 = CARTESIAN_POINT('',(-1.050001040317,-1.050001040317,-4.E-02));
#579 = DIRECTION('',(0.,0.,-1.));
#580 = DIRECTION('',(4.161285832626E-06,-0.999999999991,0.));
#581 = ORIENTED_EDGE('',*,*,#424,.T.);
#582 = FACE_BOUND('',#583,.T.);
#583 = EDGE_LOOP('',(#584));
#584 = ORIENTED_EDGE('',*,*,#585,.F.);
#585 = EDGE_CURVE('',#586,#586,#588,.T.);
#586 = VERTEX_POINT('',#587);
#587 = CARTESIAN_POINT('',(-1.232595164408E-32,-0.625,-4.E-02));
#588 = CIRCLE('',#589,0.625);
#589 = AXIS2_PLACEMENT_3D('',#590,#591,#592);
#590 = CARTESIAN_POINT('',(-5.551115123126E-17,1.110223024625E-16,
    -4.E-02));
#591 = DIRECTION('',(-0.,0.,-1.));
#592 = DIRECTION('',(8.881784197001E-17,-1.,-0.));
#593 = PLANE('',#594);
#594 = AXIS2_PLACEMENT_3D('',#595,#596,#597);
#595 = CARTESIAN_POINT('',(0.,0.,-4.E-02));
#596 = DIRECTION('',(-0.,-0.,-1.));
#597 = DIRECTION('',(-1.,0.,0.));
#598 = ADVANCED_FACE('',(#599),#610,.T.);
#599 = FACE_BOUND('',#600,.F.);
#600 = EDGE_LOOP('',(#601,#607,#608,#609));
#601 = ORIENTED_EDGE('',*,*,#602,.T.);
#602 = EDGE_CURVE('',#505,#568,#603,.T.);
#603 = LINE('',#604,#605);
#604 = CARTESIAN_POINT('',(-1.05,-1.3,0.));
#605 = VECTOR('',#606,1.);
#606 = DIRECTION('',(0.,0.,-1.));
#607 = ORIENTED_EDGE('',*,*,#575,.T.);
#608 = ORIENTED_EDGE('',*,*,#414,.F.);
#609 = ORIENTED_EDGE('',*,*,#512,.F.);
#610 = CYLINDRICAL_SURFACE('',#611,0.249998959685);
#611 = AXIS2_PLACEMENT_3D('',#612,#613,#614);
#612 = CARTESIAN_POINT('',(-1.050001040317,-1.050001040317,0.));
#613 = DIRECTION('',(-0.,-0.,1.));
#614 = DIRECTION('',(4.161285832626E-06,-0.999999999991,0.));
#615 = ADVANCED_FACE('',(#616),#627,.T.);
#616 = FACE_BOUND('',#617,.F.);
#617 = EDGE_LOOP('',(#618,#619,#620,#626));
#618 = ORIENTED_EDGE('',*,*,#454,.T.);
#619 = ORIENTED_EDGE('',*,*,#541,.T.);
#620 = ORIENTED_EDGE('',*,*,#621,.F.);
#621 = EDGE_CURVE('',#479,#542,#622,.T.);
#622 = LINE('',#623,#624);
#623 = CARTESIAN_POINT('',(1.3,1.05,0.));
#624 = VECTOR('',#625,1.);
#625 = DIRECTION('',(0.,0.,-1.));
#626 = ORIENTED_EDGE('',*,*,#478,.F.);
#627 = CYLINDRICAL_SURFACE('',#628,0.249998959685);
#628 = AXIS2_PLACEMENT_3D('',#629,#630,#631);
#629 = CARTESIAN_POINT('',(1.050001040317,1.050001040317,0.));
#630 = DIRECTION('',(-0.,-0.,1.));
#631 = DIRECTION('',(-4.161285832626E-06,0.999999999991,0.));
#632 = ADVANCED_FACE('',(#633),#644,.F.);
#633 = FACE_BOUND('',#634,.F.);
#634 = EDGE_LOOP('',(#635,#641,#642,#643));
#635 = ORIENTED_EDGE('',*,*,#636,.T.);
#636 = EDGE_CURVE('',#496,#559,#637,.T.);
#637 = LINE('',#638,#639);
#638 = CARTESIAN_POINT('',(1.05,-1.3,0.));
#639 = VECTOR('',#640,1.);
#640 = DIRECTION('',(0.,0.,-1.));
#641 = ORIENTED_EDGE('',*,*,#567,.T.);
#642 = ORIENTED_EDGE('',*,*,#602,.F.);
#643 = ORIENTED_EDGE('',*,*,#504,.F.);
#644 = PLANE('',#645);
#645 = AXIS2_PLACEMENT_3D('',#646,#647,#648);
#646 = CARTESIAN_POINT('',(1.05,-1.3,0.));
#647 = DIRECTION('',(0.,1.,0.));
#648 = DIRECTION('',(-1.,0.,0.));
#649 = ADVANCED_FACE('',(#650),#661,.F.);
#650 = FACE_BOUND('',#651,.F.);
#651 = EDGE_LOOP('',(#652,#653,#654,#660));
#652 = ORIENTED_EDGE('',*,*,#621,.T.);
#653 = ORIENTED_EDGE('',*,*,#550,.T.);
#654 = ORIENTED_EDGE('',*,*,#655,.F.);
#655 = EDGE_CURVE('',#488,#551,#656,.T.);
#656 = LINE('',#657,#658);
#657 = CARTESIAN_POINT('',(1.3,-1.05,0.));
#658 = VECTOR('',#659,1.);
#659 = DIRECTION('',(0.,0.,-1.));
#660 = ORIENTED_EDGE('',*,*,#487,.F.);
#661 = PLANE('',#662);
#662 = AXIS2_PLACEMENT_3D('',#663,#664,#665);
#663 = CARTESIAN_POINT('',(1.3,1.05,0.));
#664 = DIRECTION('',(-1.,-0.,-0.));
#665 = DIRECTION('',(0.,-1.,0.));
#666 = ADVANCED_FACE('',(#667),#673,.T.);
#667 = FACE_BOUND('',#668,.F.);
#668 = EDGE_LOOP('',(#669,#670,#671,#672));
#669 = ORIENTED_EDGE('',*,*,#655,.T.);
#670 = ORIENTED_EDGE('',*,*,#558,.T.);
#671 = ORIENTED_EDGE('',*,*,#636,.F.);
#672 = ORIENTED_EDGE('',*,*,#495,.F.);
#673 = CYLINDRICAL_SURFACE('',#674,0.249998959685);
#674 = AXIS2_PLACEMENT_3D('',#675,#676,#677);
#675 = CARTESIAN_POINT('',(1.050001040317,-1.050001040317,0.));
#676 = DIRECTION('',(-0.,-0.,1.));
#677 = DIRECTION('',(0.999999999991,4.161285832626E-06,0.));
#678 = ADVANCED_FACE('',(#679),#690,.F.);
#679 = FACE_BOUND('',#680,.T.);
#680 = EDGE_LOOP('',(#681,#682,#688,#689));
#681 = ORIENTED_EDGE('',*,*,#585,.T.);
#682 = ORIENTED_EDGE('',*,*,#683,.T.);
#683 = EDGE_CURVE('',#586,#523,#684,.T.);
#684 = LINE('',#685,#686);
#685 = CARTESIAN_POINT('',(-1.232595164408E-32,-0.625,-4.6E-02));
#686 = VECTOR('',#687,1.);
#687 = DIRECTION('',(0.,0.,1.));
#688 = ORIENTED_EDGE('',*,*,#522,.F.);
#689 = ORIENTED_EDGE('',*,*,#683,.F.);
#690 = CYLINDRICAL_SURFACE('',#691,0.625);
#691 = AXIS2_PLACEMENT_3D('',#692,#693,#694);
#692 = CARTESIAN_POINT('',(-5.551115123126E-17,1.110223024625E-16,
    -4.6E-02));
#693 = DIRECTION('',(-0.,0.,-1.));
#694 = DIRECTION('',(8.881784197001E-17,-1.,-0.));
#695 = MANIFOLD_SOLID_BREP('',#696);
#696 = CLOSED_SHELL('',(#697,#730,#750,#770));
#697 = ADVANCED_FACE('',(#698),#725,.T.);
#698 = FACE_BOUND('',#699,.F.);
#699 = EDGE_LOOP('',(#700,#710,#717,#718));
#700 = ORIENTED_EDGE('',*,*,#701,.T.);
#701 = EDGE_CURVE('',#702,#704,#706,.T.);
#702 = VERTEX_POINT('',#703);
#703 = CARTESIAN_POINT('',(-1.232595164408E-32,-0.65,-4.E-02));
#704 = VERTEX_POINT('',#705);
#705 = CARTESIAN_POINT('',(-1.232595164408E-32,-0.65,1.55));
#706 = LINE('',#707,#708);
#707 = CARTESIAN_POINT('',(-1.232595164408E-32,-0.65,-4.E-02));
#708 = VECTOR('',#709,1.);
#709 = DIRECTION('',(0.,0.,1.));
#710 = ORIENTED_EDGE('',*,*,#711,.T.);
#711 = EDGE_CURVE('',#704,#704,#712,.T.);
#712 = CIRCLE('',#713,0.65);
#713 = AXIS2_PLACEMENT_3D('',#714,#715,#716);
#714 = CARTESIAN_POINT('',(-5.551115123126E-17,1.110223024625E-16,1.55)
  );
#715 = DIRECTION('',(0.,-0.,1.));
#716 = DIRECTION('',(8.540177112501E-17,-1.,-0.));
#717 = ORIENTED_EDGE('',*,*,#701,.F.);
#718 = ORIENTED_EDGE('',*,*,#719,.F.);
#719 = EDGE_CURVE('',#702,#702,#720,.T.);
#720 = CIRCLE('',#721,0.65);
#721 = AXIS2_PLACEMENT_3D('',#722,#723,#724);
#722 = CARTESIAN_POINT('',(-5.551115123126E-17,1.110223024625E-16,
    -4.E-02));
#723 = DIRECTION('',(0.,-0.,1.));
#724 = DIRECTION('',(8.540177112501E-17,-1.,-0.));
#725 = CYLINDRICAL_SURFACE('',#726,0.65);
#726 = AXIS2_PLACEMENT_3D('',#727,#728,#729);
#727 = CARTESIAN_POINT('',(-5.551115123126E-17,1.110223024625E-16,
    -4.E-02));
#728 = DIRECTION('',(-0.,0.,-1.));
#729 = DIRECTION('',(8.540177112501E-17,-1.,-0.));
#730 = ADVANCED_FACE('',(#731,#734),#745,.F.);
#731 = FACE_BOUND('',#732,.F.);
#732 = EDGE_LOOP('',(#733));
#733 = ORIENTED_EDGE('',*,*,#719,.T.);
#734 = FACE_BOUND('',#735,.F.);
#735 = EDGE_LOOP('',(#736));
#736 = ORIENTED_EDGE('',*,*,#737,.T.);
#737 = EDGE_CURVE('',#738,#738,#740,.T.);
#738 = VERTEX_POINT('',#739);
#739 = CARTESIAN_POINT('',(-1.232595164408E-32,-0.625,-4.E-02));
#740 = CIRCLE('',#741,0.625);
#741 = AXIS2_PLACEMENT_3D('',#742,#743,#744);
#742 = CARTESIAN_POINT('',(-5.551115123126E-17,1.110223024625E-16,
    -4.E-02));
#743 = DIRECTION('',(-0.,0.,-1.));
#744 = DIRECTION('',(8.881784197001E-17,-1.,-0.));
#745 = PLANE('',#746);
#746 = AXIS2_PLACEMENT_3D('',#747,#748,#749);
#747 = CARTESIAN_POINT('',(0.,-0.65,-4.E-02));
#748 = DIRECTION('',(0.,0.,1.));
#749 = DIRECTION('',(1.,0.,-0.));
#750 = ADVANCED_FACE('',(#751,#754),#765,.T.);
#751 = FACE_BOUND('',#752,.T.);
#752 = EDGE_LOOP('',(#753));
#753 = ORIENTED_EDGE('',*,*,#711,.T.);
#754 = FACE_BOUND('',#755,.T.);
#755 = EDGE_LOOP('',(#756));
#756 = ORIENTED_EDGE('',*,*,#757,.T.);
#757 = EDGE_CURVE('',#758,#758,#760,.T.);
#758 = VERTEX_POINT('',#759);
#759 = CARTESIAN_POINT('',(-1.232595164408E-32,-0.625,1.55));
#760 = CIRCLE('',#761,0.625);
#761 = AXIS2_PLACEMENT_3D('',#762,#763,#764);
#762 = CARTESIAN_POINT('',(-5.551115123126E-17,1.110223024625E-16,1.55)
  );
#763 = DIRECTION('',(-0.,0.,-1.));
#764 = DIRECTION('',(8.881784197001E-17,-1.,-0.));
#765 = PLANE('',#766);
#766 = AXIS2_PLACEMENT_3D('',#767,#768,#769);
#767 = CARTESIAN_POINT('',(0.,-0.65,1.55));
#768 = DIRECTION('',(0.,0.,1.));
#769 = DIRECTION('',(1.,0.,-0.));
#770 = ADVANCED_FACE('',(#771),#782,.F.);
#771 = FACE_BOUND('',#772,.T.);
#772 = EDGE_LOOP('',(#773,#774,#780,#781));
#773 = ORIENTED_EDGE('',*,*,#737,.T.);
#774 = ORIENTED_EDGE('',*,*,#775,.T.);
#775 = EDGE_CURVE('',#738,#758,#776,.T.);
#776 = LINE('',#777,#778);
#777 = CARTESIAN_POINT('',(-1.232595164408E-32,-0.625,-4.6E-02));
#778 = VECTOR('',#779,1.);
#779 = DIRECTION('',(0.,0.,1.));
#780 = ORIENTED_EDGE('',*,*,#757,.F.);
#781 = ORIENTED_EDGE('',*,*,#775,.F.);
#782 = CYLINDRICAL_SURFACE('',#783,0.625);
#783 = AXIS2_PLACEMENT_3D('',#784,#785,#786);
#784 = CARTESIAN_POINT('',(-5.551115123126E-17,1.110223024625E-16,
    -4.6E-02));
#785 = DIRECTION('',(-0.,0.,-1.));
#786 = DIRECTION('',(8.881784197001E-17,-1.,-0.));
#787 = MANIFOLD_SOLID_BREP('',#788);
#788 = CLOSED_SHELL('',(#789,#822,#842,#862));
#789 = ADVANCED_FACE('',(#790),#817,.T.);
#790 = FACE_BOUND('',#791,.F.);
#791 = EDGE_LOOP('',(#792,#802,#809,#810));
#792 = ORIENTED_EDGE('',*,*,#793,.T.);
#793 = EDGE_CURVE('',#794,#796,#798,.T.);
#794 = VERTEX_POINT('',#795);
#795 = CARTESIAN_POINT('',(4.8,0.,1.51));
#796 = VERTEX_POINT('',#797);
#797 = CARTESIAN_POINT('',(4.8,0.,1.55));
#798 = LINE('',#799,#800);
#799 = CARTESIAN_POINT('',(4.8,0.,1.51));
#800 = VECTOR('',#801,1.);
#801 = DIRECTION('',(0.,0.,1.));
#802 = ORIENTED_EDGE('',*,*,#803,.T.);
#803 = EDGE_CURVE('',#796,#796,#804,.T.);
#804 = CIRCLE('',#805,1.3);
#805 = AXIS2_PLACEMENT_3D('',#806,#807,#808);
#806 = CARTESIAN_POINT('',(3.5,0.,1.55));
#807 = DIRECTION('',(0.,0.,1.));
#808 = DIRECTION('',(1.,0.,-0.));
#809 = ORIENTED_EDGE('',*,*,#793,.F.);
#810 = ORIENTED_EDGE('',*,*,#811,.F.);
#811 = EDGE_CURVE('',#794,#794,#812,.T.);
#812 = CIRCLE('',#813,1.3);
#813 = AXIS2_PLACEMENT_3D('',#814,#815,#816);
#814 = CARTESIAN_POINT('',(3.5,-0.,1.51));
#815 = DIRECTION('',(0.,0.,1.));
#816 = DIRECTION('',(1.,0.,-0.));
#817 = CYLINDRICAL_SURFACE('',#818,1.3);
#818 = AXIS2_PLACEMENT_3D('',#819,#820,#821);
#819 = CARTESIAN_POINT('',(3.5,-0.,1.51));
#820 = DIRECTION('',(-0.,-0.,-1.));
#821 = DIRECTION('',(1.,0.,-0.));
#822 = ADVANCED_FACE('',(#823,#826),#837,.F.);
#823 = FACE_BOUND('',#824,.F.);
#824 = EDGE_LOOP('',(#825));
#825 = ORIENTED_EDGE('',*,*,#811,.T.);
#826 = FACE_BOUND('',#827,.F.);
#827 = EDGE_LOOP('',(#828));
#828 = ORIENTED_EDGE('',*,*,#829,.T.);
#829 = EDGE_CURVE('',#830,#830,#832,.T.);
#830 = VERTEX_POINT('',#831);
#831 = CARTESIAN_POINT('',(3.5,-0.625,1.51));
#832 = CIRCLE('',#833,0.625);
#833 = AXIS2_PLACEMENT_3D('',#834,#835,#836);
#834 = CARTESIAN_POINT('',(3.5,1.110223024625E-16,1.51));
#835 = DIRECTION('',(-0.,0.,-1.));
#836 = DIRECTION('',(-0.,-1.,0.));
#837 = PLANE('',#838);
#838 = AXIS2_PLACEMENT_3D('',#839,#840,#841);
#839 = CARTESIAN_POINT('',(0.,0.,1.51));
#840 = DIRECTION('',(0.,0.,1.));
#841 = DIRECTION('',(1.,0.,-0.));
#842 = ADVANCED_FACE('',(#843,#846),#857,.T.);
#843 = FACE_BOUND('',#844,.T.);
#844 = EDGE_LOOP('',(#845));
#845 = ORIENTED_EDGE('',*,*,#803,.T.);
#846 = FACE_BOUND('',#847,.T.);
#847 = EDGE_LOOP('',(#848));
#848 = ORIENTED_EDGE('',*,*,#849,.T.);
#849 = EDGE_CURVE('',#850,#850,#852,.T.);
#850 = VERTEX_POINT('',#851);
#851 = CARTESIAN_POINT('',(3.5,-0.625,1.55));
#852 = CIRCLE('',#853,0.625);
#853 = AXIS2_PLACEMENT_3D('',#854,#855,#856);
#854 = CARTESIAN_POINT('',(3.5,1.110223024625E-16,1.55));
#855 = DIRECTION('',(-0.,0.,-1.));
#856 = DIRECTION('',(-0.,-1.,0.));
#857 = PLANE('',#858);
#858 = AXIS2_PLACEMENT_3D('',#859,#860,#861);
#859 = CARTESIAN_POINT('',(0.,0.,1.55));
#860 = DIRECTION('',(0.,0.,1.));
#861 = DIRECTION('',(1.,0.,-0.));
#862 = ADVANCED_FACE('',(#863),#874,.F.);
#863 = FACE_BOUND('',#864,.T.);
#864 = EDGE_LOOP('',(#865,#866,#872,#873));
#865 = ORIENTED_EDGE('',*,*,#829,.T.);
#866 = ORIENTED_EDGE('',*,*,#867,.T.);
#867 = EDGE_CURVE('',#830,#850,#868,.T.);
#868 = LINE('',#869,#870);
#869 = CARTESIAN_POINT('',(3.5,-0.625,-4.6E-02));
#870 = VECTOR('',#871,1.);
#871 = DIRECTION('',(0.,0.,1.));
#872 = ORIENTED_EDGE('',*,*,#849,.F.);
#873 = ORIENTED_EDGE('',*,*,#867,.F.);
#874 = CYLINDRICAL_SURFACE('',#875,0.625);
#875 = AXIS2_PLACEMENT_3D('',#876,#877,#878);
#876 = CARTESIAN_POINT('',(3.5,1.110223024625E-16,-4.6E-02));
#877 = DIRECTION('',(-0.,-0.,-1.));
#878 = DIRECTION('',(-0.,-1.,0.));
#879 = MANIFOLD_SOLID_BREP('',#880);
#880 = CLOSED_SHELL('',(#881,#914,#934,#954));
#881 = ADVANCED_FACE('',(#882),#909,.T.);
#882 = FACE_BOUND('',#883,.T.);
#883 = EDGE_LOOP('',(#884,#894,#901,#902));
#884 = ORIENTED_EDGE('',*,*,#885,.T.);
#885 = EDGE_CURVE('',#886,#888,#890,.T.);
#886 = VERTEX_POINT('',#887);
#887 = CARTESIAN_POINT('',(4.8,0.,0.));
#888 = VERTEX_POINT('',#889);
#889 = CARTESIAN_POINT('',(4.8,0.,-4.E-02));
#890 = LINE('',#891,#892);
#891 = CARTESIAN_POINT('',(4.8,0.,0.));
#892 = VECTOR('',#893,1.);
#893 = DIRECTION('',(0.,0.,-1.));
#894 = ORIENTED_EDGE('',*,*,#895,.T.);
#895 = EDGE_CURVE('',#888,#888,#896,.T.);
#896 = CIRCLE('',#897,1.3);
#897 = AXIS2_PLACEMENT_3D('',#898,#899,#900);
#898 = CARTESIAN_POINT('',(3.5,0.,-4.E-02));
#899 = DIRECTION('',(0.,0.,1.));
#900 = DIRECTION('',(1.,0.,-0.));
#901 = ORIENTED_EDGE('',*,*,#885,.F.);
#902 = ORIENTED_EDGE('',*,*,#903,.F.);
#903 = EDGE_CURVE('',#886,#886,#904,.T.);
#904 = CIRCLE('',#905,1.3);
#905 = AXIS2_PLACEMENT_3D('',#906,#907,#908);
#906 = CARTESIAN_POINT('',(3.5,-0.,0.));
#907 = DIRECTION('',(0.,0.,1.));
#908 = DIRECTION('',(1.,0.,-0.));
#909 = CYLINDRICAL_SURFACE('',#910,1.3);
#910 = AXIS2_PLACEMENT_3D('',#911,#912,#913);
#911 = CARTESIAN_POINT('',(3.5,-0.,0.));
#912 = DIRECTION('',(0.,0.,1.));
#913 = DIRECTION('',(1.,0.,-0.));
#914 = ADVANCED_FACE('',(#915,#918),#929,.F.);
#915 = FACE_BOUND('',#916,.F.);
#916 = EDGE_LOOP('',(#917));
#917 = ORIENTED_EDGE('',*,*,#903,.F.);
#918 = FACE_BOUND('',#919,.F.);
#919 = EDGE_LOOP('',(#920));
#920 = ORIENTED_EDGE('',*,*,#921,.F.);
#921 = EDGE_CURVE('',#922,#922,#924,.T.);
#922 = VERTEX_POINT('',#923);
#923 = CARTESIAN_POINT('',(3.5,-0.625,0.));
#924 = CIRCLE('',#925,0.625);
#925 = AXIS2_PLACEMENT_3D('',#926,#927,#928);
#926 = CARTESIAN_POINT('',(3.5,1.110223024625E-16,0.));
#927 = DIRECTION('',(-0.,0.,-1.));
#928 = DIRECTION('',(-0.,-1.,0.));
#929 = PLANE('',#930);
#930 = AXIS2_PLACEMENT_3D('',#931,#932,#933);
#931 = CARTESIAN_POINT('',(0.,0.,0.));
#932 = DIRECTION('',(-0.,-0.,-1.));
#933 = DIRECTION('',(-1.,0.,0.));
#934 = ADVANCED_FACE('',(#935,#938),#949,.T.);
#935 = FACE_BOUND('',#936,.T.);
#936 = EDGE_LOOP('',(#937));
#937 = ORIENTED_EDGE('',*,*,#895,.F.);
#938 = FACE_BOUND('',#939,.T.);
#939 = EDGE_LOOP('',(#940));
#940 = ORIENTED_EDGE('',*,*,#941,.F.);
#941 = EDGE_CURVE('',#942,#942,#944,.T.);
#942 = VERTEX_POINT('',#943);
#943 = CARTESIAN_POINT('',(3.5,-0.625,-4.E-02));
#944 = CIRCLE('',#945,0.625);
#945 = AXIS2_PLACEMENT_3D('',#946,#947,#948);
#946 = CARTESIAN_POINT('',(3.5,1.110223024625E-16,-4.E-02));
#947 = DIRECTION('',(-0.,0.,-1.));
#948 = DIRECTION('',(-0.,-1.,0.));
#949 = PLANE('',#950);
#950 = AXIS2_PLACEMENT_3D('',#951,#952,#953);
#951 = CARTESIAN_POINT('',(0.,0.,-4.E-02));
#952 = DIRECTION('',(-0.,-0.,-1.));
#953 = DIRECTION('',(-1.,0.,0.));
#954 = ADVANCED_FACE('',(#955),#966,.F.);
#955 = FACE_BOUND('',#956,.T.);
#956 = EDGE_LOOP('',(#957,#958,#964,#965));
#957 = ORIENTED_EDGE('',*,*,#941,.T.);
#958 = ORIENTED_EDGE('',*,*,#959,.T.);
#959 = EDGE_CURVE('',#942,#922,#960,.T.);
#960 = LINE('',#961,#962);
#961 = CARTESIAN_POINT('',(3.5,-0.625,-4.6E-02));
#962 = VECTOR('',#963,1.);
#963 = DIRECTION('',(0.,0.,1.));
#964 = ORIENTED_EDGE('',*,*,#921,.F.);
#965 = ORIENTED_EDGE('',*,*,#959,.F.);
#966 = CYLINDRICAL_SURFACE('',#967,0.625);
#967 = AXIS2_PLACEMENT_3D('',#968,#969,#970);
#968 = CARTESIAN_POINT('',(3.5,1.110223024625E-16,-4.6E-02));
#969 = DIRECTION('',(-0.,-0.,-1.));
#970 = DIRECTION('',(-0.,-1.,0.));
#971 = MANIFOLD_SOLID_BREP('',#972);
#972 = CLOSED_SHELL('',(#973,#1006,#1026,#1046));
#973 = ADVANCED_FACE('',(#974),#1001,.T.);
#974 = FACE_BOUND('',#975,.F.);
#975 = EDGE_LOOP('',(#976,#986,#993,#994));
#976 = ORIENTED_EDGE('',*,*,#977,.T.);
#977 = EDGE_CURVE('',#978,#980,#982,.T.);
#978 = VERTEX_POINT('',#979);
#979 = CARTESIAN_POINT('',(3.5,-0.65,-4.E-02));
#980 = VERTEX_POINT('',#981);
#981 = CARTESIAN_POINT('',(3.5,-0.65,1.55));
#982 = LINE('',#983,#984);
#983 = CARTESIAN_POINT('',(3.5,-0.65,-4.E-02));
#984 = VECTOR('',#985,1.);
#985 = DIRECTION('',(0.,0.,1.));
#986 = ORIENTED_EDGE('',*,*,#987,.T.);
#987 = EDGE_CURVE('',#980,#980,#988,.T.);
#988 = CIRCLE('',#989,0.65);
#989 = AXIS2_PLACEMENT_3D('',#990,#991,#992);
#990 = CARTESIAN_POINT('',(3.5,2.498001805407E-16,1.55));
#991 = DIRECTION('',(0.,0.,1.));
#992 = DIRECTION('',(-0.,-1.,0.));
#993 = ORIENTED_EDGE('',*,*,#977,.F.);
#994 = ORIENTED_EDGE('',*,*,#995,.F.);
#995 = EDGE_CURVE('',#978,#978,#996,.T.);
#996 = CIRCLE('',#997,0.65);
#997 = AXIS2_PLACEMENT_3D('',#998,#999,#1000);
#998 = CARTESIAN_POINT('',(3.5,2.498001805407E-16,-4.E-02));
#999 = DIRECTION('',(0.,0.,1.));
#1000 = DIRECTION('',(-0.,-1.,0.));
#1001 = CYLINDRICAL_SURFACE('',#1002,0.65);
#1002 = AXIS2_PLACEMENT_3D('',#1003,#1004,#1005);
#1003 = CARTESIAN_POINT('',(3.5,2.498001805407E-16,-4.E-02));
#1004 = DIRECTION('',(-0.,-0.,-1.));
#1005 = DIRECTION('',(-0.,-1.,0.));
#1006 = ADVANCED_FACE('',(#1007,#1010),#1021,.F.);
#1007 = FACE_BOUND('',#1008,.F.);
#1008 = EDGE_LOOP('',(#1009));
#1009 = ORIENTED_EDGE('',*,*,#995,.T.);
#1010 = FACE_BOUND('',#1011,.F.);
#1011 = EDGE_LOOP('',(#1012));
#1012 = ORIENTED_EDGE('',*,*,#1013,.T.);
#1013 = EDGE_CURVE('',#1014,#1014,#1016,.T.);
#1014 = VERTEX_POINT('',#1015);
#1015 = CARTESIAN_POINT('',(3.5,-0.625,-4.E-02));
#1016 = CIRCLE('',#1017,0.625);
#1017 = AXIS2_PLACEMENT_3D('',#1018,#1019,#1020);
#1018 = CARTESIAN_POINT('',(3.5,1.110223024625E-16,-4.E-02));
#1019 = DIRECTION('',(-0.,0.,-1.));
#1020 = DIRECTION('',(-0.,-1.,0.));
#1021 = PLANE('',#1022);
#1022 = AXIS2_PLACEMENT_3D('',#1023,#1024,#1025);
#1023 = CARTESIAN_POINT('',(3.5,-0.65,-4.E-02));
#1024 = DIRECTION('',(0.,0.,1.));
#1025 = DIRECTION('',(1.,0.,-0.));
#1026 = ADVANCED_FACE('',(#1027,#1030),#1041,.T.);
#1027 = FACE_BOUND('',#1028,.T.);
#1028 = EDGE_LOOP('',(#1029));
#1029 = ORIENTED_EDGE('',*,*,#987,.T.);
#1030 = FACE_BOUND('',#1031,.T.);
#1031 = EDGE_LOOP('',(#1032));
#1032 = ORIENTED_EDGE('',*,*,#1033,.T.);
#1033 = EDGE_CURVE('',#1034,#1034,#1036,.T.);
#1034 = VERTEX_POINT('',#1035);
#1035 = CARTESIAN_POINT('',(3.5,-0.625,1.55));
#1036 = CIRCLE('',#1037,0.625);
#1037 = AXIS2_PLACEMENT_3D('',#1038,#1039,#1040);
#1038 = CARTESIAN_POINT('',(3.5,1.110223024625E-16,1.55));
#1039 = DIRECTION('',(-0.,0.,-1.));
#1040 = DIRECTION('',(-0.,-1.,0.));
#1041 = PLANE('',#1042);
#1042 = AXIS2_PLACEMENT_3D('',#1043,#1044,#1045);
#1043 = CARTESIAN_POINT('',(3.5,-0.65,1.55));
#1044 = DIRECTION('',(0.,0.,1.));
#1045 = DIRECTION('',(1.,0.,-0.));
#1046 = ADVANCED_FACE('',(#1047),#1058,.F.);
#1047 = FACE_BOUND('',#1048,.T.);
#1048 = EDGE_LOOP('',(#1049,#1050,#1056,#1057));
#1049 = ORIENTED_EDGE('',*,*,#1013,.T.);
#1050 = ORIENTED_EDGE('',*,*,#1051,.T.);
#1051 = EDGE_CURVE('',#1014,#1034,#1052,.T.);
#1052 = LINE('',#1053,#1054);
#1053 = CARTESIAN_POINT('',(3.5,-0.625,-4.6E-02));
#1054 = VECTOR('',#1055,1.);
#1055 = DIRECTION('',(0.,0.,1.));
#1056 = ORIENTED_EDGE('',*,*,#1033,.F.);
#1057 = ORIENTED_EDGE('',*,*,#1051,.F.);
#1058 = CYLINDRICAL_SURFACE('',#1059,0.625);
#1059 = AXIS2_PLACEMENT_3D('',#1060,#1061,#1062);
#1060 = CARTESIAN_POINT('',(3.5,1.110223024625E-16,-4.6E-02));
#1061 = DIRECTION('',(-0.,-0.,-1.));
#1062 = DIRECTION('',(-0.,-1.,0.));
#1063 = MANIFOLD_SOLID_BREP('',#1064);
#1064 = CLOSED_SHELL('',(#1065,#1098,#1118,#1138));
#1065 = ADVANCED_FACE('',(#1066),#1093,.T.);
#1066 = FACE_BOUND('',#1067,.F.);
#1067 = EDGE_LOOP('',(#1068,#1078,#1085,#1086));
#1068 = ORIENTED_EDGE('',*,*,#1069,.T.);
#1069 = EDGE_CURVE('',#1070,#1072,#1074,.T.);
#1070 = VERTEX_POINT('',#1071);
#1071 = CARTESIAN_POINT('',(8.3,0.,1.51));
#1072 = VERTEX_POINT('',#1073);
#1073 = CARTESIAN_POINT('',(8.3,0.,1.55));
#1074 = LINE('',#1075,#1076);
#1075 = CARTESIAN_POINT('',(8.3,0.,1.51));
#1076 = VECTOR('',#1077,1.);
#1077 = DIRECTION('',(0.,0.,1.));
#1078 = ORIENTED_EDGE('',*,*,#1079,.T.);
#1079 = EDGE_CURVE('',#1072,#1072,#1080,.T.);
#1080 = CIRCLE('',#1081,1.3);
#1081 = AXIS2_PLACEMENT_3D('',#1082,#1083,#1084);
#1082 = CARTESIAN_POINT('',(7.,0.,1.55));
#1083 = DIRECTION('',(0.,0.,1.));
#1084 = DIRECTION('',(1.,0.,-0.));
#1085 = ORIENTED_EDGE('',*,*,#1069,.F.);
#1086 = ORIENTED_EDGE('',*,*,#1087,.F.);
#1087 = EDGE_CURVE('',#1070,#1070,#1088,.T.);
#1088 = CIRCLE('',#1089,1.3);
#1089 = AXIS2_PLACEMENT_3D('',#1090,#1091,#1092);
#1090 = CARTESIAN_POINT('',(7.,-0.,1.51));
#1091 = DIRECTION('',(0.,0.,1.));
#1092 = DIRECTION('',(1.,0.,-0.));
#1093 = CYLINDRICAL_SURFACE('',#1094,1.3);
#1094 = AXIS2_PLACEMENT_3D('',#1095,#1096,#1097);
#1095 = CARTESIAN_POINT('',(7.,-0.,1.51));
#1096 = DIRECTION('',(-0.,-0.,-1.));
#1097 = DIRECTION('',(1.,0.,-0.));
#1098 = ADVANCED_FACE('',(#1099,#1102),#1113,.F.);
#1099 = FACE_BOUND('',#1100,.F.);
#1100 = EDGE_LOOP('',(#1101));
#1101 = ORIENTED_EDGE('',*,*,#1087,.T.);
#1102 = FACE_BOUND('',#1103,.F.);
#1103 = EDGE_LOOP('',(#1104));
#1104 = ORIENTED_EDGE('',*,*,#1105,.T.);
#1105 = EDGE_CURVE('',#1106,#1106,#1108,.T.);
#1106 = VERTEX_POINT('',#1107);
#1107 = CARTESIAN_POINT('',(7.,-0.625,1.51));
#1108 = CIRCLE('',#1109,0.625);
#1109 = AXIS2_PLACEMENT_3D('',#1110,#1111,#1112);
#1110 = CARTESIAN_POINT('',(7.,1.110223024625E-16,1.51));
#1111 = DIRECTION('',(-0.,0.,-1.));
#1112 = DIRECTION('',(-0.,-1.,0.));
#1113 = PLANE('',#1114);
#1114 = AXIS2_PLACEMENT_3D('',#1115,#1116,#1117);
#1115 = CARTESIAN_POINT('',(0.,0.,1.51));
#1116 = DIRECTION('',(0.,0.,1.));
#1117 = DIRECTION('',(1.,0.,-0.));
#1118 = ADVANCED_FACE('',(#1119,#1122),#1133,.T.);
#1119 = FACE_BOUND('',#1120,.T.);
#1120 = EDGE_LOOP('',(#1121));
#1121 = ORIENTED_EDGE('',*,*,#1079,.T.);
#1122 = FACE_BOUND('',#1123,.T.);
#1123 = EDGE_LOOP('',(#1124));
#1124 = ORIENTED_EDGE('',*,*,#1125,.T.);
#1125 = EDGE_CURVE('',#1126,#1126,#1128,.T.);
#1126 = VERTEX_POINT('',#1127);
#1127 = CARTESIAN_POINT('',(7.,-0.625,1.55));
#1128 = CIRCLE('',#1129,0.625);
#1129 = AXIS2_PLACEMENT_3D('',#1130,#1131,#1132);
#1130 = CARTESIAN_POINT('',(7.,1.110223024625E-16,1.55));
#1131 = DIRECTION('',(-0.,0.,-1.));
#1132 = DIRECTION('',(-0.,-1.,0.));
#1133 = PLANE('',#1134);
#1134 = AXIS2_PLACEMENT_3D('',#1135,#1136,#1137);
#1135 = CARTESIAN_POINT('',(0.,0.,1.55));
#1136 = DIRECTION('',(0.,0.,1.));
#1137 = DIRECTION('',(1.,0.,-0.));
#1138 = ADVANCED_FACE('',(#1139),#1150,.F.);
#1139 = FACE_BOUND('',#1140,.T.);
#1140 = EDGE_LOOP('',(#1141,#1142,#1148,#1149));
#1141 = ORIENTED_EDGE('',*,*,#1105,.T.);
#1142 = ORIENTED_EDGE('',*,*,#1143,.T.);
#1143 = EDGE_CURVE('',#1106,#1126,#1144,.T.);
#1144 = LINE('',#1145,#1146);
#1145 = CARTESIAN_POINT('',(7.,-0.625,-4.6E-02));
#1146 = VECTOR('',#1147,1.);
#1147 = DIRECTION('',(0.,0.,1.));
#1148 = ORIENTED_EDGE('',*,*,#1125,.F.);
#1149 = ORIENTED_EDGE('',*,*,#1143,.F.);
#1150 = CYLINDRICAL_SURFACE('',#1151,0.625);
#1151 = AXIS2_PLACEMENT_3D('',#1152,#1153,#1154);
#1152 = CARTESIAN_POINT('',(7.,1.110223024625E-16,-4.6E-02));
#1153 = DIRECTION('',(-0.,-0.,-1.));
#1154 = DIRECTION('',(-0.,-1.,0.));
#1155 = MANIFOLD_SOLID_BREP('',#1156);
#1156 = CLOSED_SHELL('',(#1157,#1190,#1210,#1230));
#1157 = ADVANCED_FACE('',(#1158),#1185,.T.);
#1158 = FACE_BOUND('',#1159,.T.);
#1159 = EDGE_LOOP('',(#1160,#1170,#1177,#1178));
#1160 = ORIENTED_EDGE('',*,*,#1161,.T.);
#1161 = EDGE_CURVE('',#1162,#1164,#1166,.T.);
#1162 = VERTEX_POINT('',#1163);
#1163 = CARTESIAN_POINT('',(8.3,0.,0.));
#1164 = VERTEX_POINT('',#1165);
#1165 = CARTESIAN_POINT('',(8.3,0.,-4.E-02));
#1166 = LINE('',#1167,#1168);
#1167 = CARTESIAN_POINT('',(8.3,0.,0.));
#1168 = VECTOR('',#1169,1.);
#1169 = DIRECTION('',(0.,0.,-1.));
#1170 = ORIENTED_EDGE('',*,*,#1171,.T.);
#1171 = EDGE_CURVE('',#1164,#1164,#1172,.T.);
#1172 = CIRCLE('',#1173,1.3);
#1173 = AXIS2_PLACEMENT_3D('',#1174,#1175,#1176);
#1174 = CARTESIAN_POINT('',(7.,0.,-4.E-02));
#1175 = DIRECTION('',(0.,0.,1.));
#1176 = DIRECTION('',(1.,0.,-0.));
#1177 = ORIENTED_EDGE('',*,*,#1161,.F.);
#1178 = ORIENTED_EDGE('',*,*,#1179,.F.);
#1179 = EDGE_CURVE('',#1162,#1162,#1180,.T.);
#1180 = CIRCLE('',#1181,1.3);
#1181 = AXIS2_PLACEMENT_3D('',#1182,#1183,#1184);
#1182 = CARTESIAN_POINT('',(7.,-0.,0.));
#1183 = DIRECTION('',(0.,0.,1.));
#1184 = DIRECTION('',(1.,0.,-0.));
#1185 = CYLINDRICAL_SURFACE('',#1186,1.3);
#1186 = AXIS2_PLACEMENT_3D('',#1187,#1188,#1189);
#1187 = CARTESIAN_POINT('',(7.,-0.,0.));
#1188 = DIRECTION('',(0.,0.,1.));
#1189 = DIRECTION('',(1.,0.,-0.));
#1190 = ADVANCED_FACE('',(#1191,#1194),#1205,.F.);
#1191 = FACE_BOUND('',#1192,.F.);
#1192 = EDGE_LOOP('',(#1193));
#1193 = ORIENTED_EDGE('',*,*,#1179,.F.);
#1194 = FACE_BOUND('',#1195,.F.);
#1195 = EDGE_LOOP('',(#1196));
#1196 = ORIENTED_EDGE('',*,*,#1197,.F.);
#1197 = EDGE_CURVE('',#1198,#1198,#1200,.T.);
#1198 = VERTEX_POINT('',#1199);
#1199 = CARTESIAN_POINT('',(7.,-0.625,0.));
#1200 = CIRCLE('',#1201,0.625);
#1201 = AXIS2_PLACEMENT_3D('',#1202,#1203,#1204);
#1202 = CARTESIAN_POINT('',(7.,1.110223024625E-16,0.));
#1203 = DIRECTION('',(-0.,0.,-1.));
#1204 = DIRECTION('',(-0.,-1.,0.));
#1205 = PLANE('',#1206);
#1206 = AXIS2_PLACEMENT_3D('',#1207,#1208,#1209);
#1207 = CARTESIAN_POINT('',(0.,0.,0.));
#1208 = DIRECTION('',(-0.,-0.,-1.));
#1209 = DIRECTION('',(-1.,0.,0.));
#1210 = ADVANCED_FACE('',(#1211,#1214),#1225,.T.);
#1211 = FACE_BOUND('',#1212,.T.);
#1212 = EDGE_LOOP('',(#1213));
#1213 = ORIENTED_EDGE('',*,*,#1171,.F.);
#1214 = FACE_BOUND('',#1215,.T.);
#1215 = EDGE_LOOP('',(#1216));
#1216 = ORIENTED_EDGE('',*,*,#1217,.F.);
#1217 = EDGE_CURVE('',#1218,#1218,#1220,.T.);
#1218 = VERTEX_POINT('',#1219);
#1219 = CARTESIAN_POINT('',(7.,-0.625,-4.E-02));
#1220 = CIRCLE('',#1221,0.625);
#1221 = AXIS2_PLACEMENT_3D('',#1222,#1223,#1224);
#1222 = CARTESIAN_POINT('',(7.,1.110223024625E-16,-4.E-02));
#1223 = DIRECTION('',(-0.,0.,-1.));
#1224 = DIRECTION('',(-0.,-1.,0.));
#1225 = PLANE('',#1226);
#1226 = AXIS2_PLACEMENT_3D('',#1227,#1228,#1229);
#1227 = CARTESIAN_POINT('',(0.,0.,-4.E-02));
#1228 = DIRECTION('',(-0.,-0.,-1.));
#1229 = DIRECTION('',(-1.,0.,0.));
#1230 = ADVANCED_FACE('',(#1231),#1242,.F.);
#1231 = FACE_BOUND('',#1232,.T.);
#1232 = EDGE_LOOP('',(#1233,#1234,#1240,#1241));
#1233 = ORIENTED_EDGE('',*,*,#1217,.T.);
#1234 = ORIENTED_EDGE('',*,*,#1235,.T.);
#1235 = EDGE_CURVE('',#1218,#1198,#1236,.T.);
#1236 = LINE('',#1237,#1238);
#1237 = CARTESIAN_POINT('',(7.,-0.625,-4.6E-02));
#1238 = VECTOR('',#1239,1.);
#1239 = DIRECTION('',(0.,0.,1.));
#1240 = ORIENTED_EDGE('',*,*,#1197,.F.);
#1241 = ORIENTED_EDGE('',*,*,#1235,.F.);
#1242 = CYLINDRICAL_SURFACE('',#1243,0.625);
#1243 = AXIS2_PLACEMENT_3D('',#1244,#1245,#1246);
#1244 = CARTESIAN_POINT('',(7.,1.110223024625E-16,-4.6E-02));
#1245 = DIRECTION('',(-0.,-0.,-1.));
#1246 = DIRECTION('',(-0.,-1.,0.));
#1247 = MANIFOLD_SOLID_BREP('',#1248);
#1248 = CLOSED_SHELL('',(#1249,#1282,#1302,#1322));
#1249 = ADVANCED_FACE('',(#1250),#1277,.T.);
#1250 = FACE_BOUND('',#1251,.F.);
#1251 = EDGE_LOOP('',(#1252,#1262,#1269,#1270));
#1252 = ORIENTED_EDGE('',*,*,#1253,.T.);
#1253 = EDGE_CURVE('',#1254,#1256,#1258,.T.);
#1254 = VERTEX_POINT('',#1255);
#1255 = CARTESIAN_POINT('',(7.,-0.65,-4.E-02));
#1256 = VERTEX_POINT('',#1257);
#1257 = CARTESIAN_POINT('',(7.,-0.65,1.55));
#1258 = LINE('',#1259,#1260);
#1259 = CARTESIAN_POINT('',(7.,-0.65,-4.E-02));
#1260 = VECTOR('',#1261,1.);
#1261 = DIRECTION('',(0.,0.,1.));
#1262 = ORIENTED_EDGE('',*,*,#1263,.T.);
#1263 = EDGE_CURVE('',#1256,#1256,#1264,.T.);
#1264 = CIRCLE('',#1265,0.65);
#1265 = AXIS2_PLACEMENT_3D('',#1266,#1267,#1268);
#1266 = CARTESIAN_POINT('',(7.,2.498001805407E-16,1.55));
#1267 = DIRECTION('',(0.,0.,1.));
#1268 = DIRECTION('',(-0.,-1.,0.));
#1269 = ORIENTED_EDGE('',*,*,#1253,.F.);
#1270 = ORIENTED_EDGE('',*,*,#1271,.F.);
#1271 = EDGE_CURVE('',#1254,#1254,#1272,.T.);
#1272 = CIRCLE('',#1273,0.65);
#1273 = AXIS2_PLACEMENT_3D('',#1274,#1275,#1276);
#1274 = CARTESIAN_POINT('',(7.,2.498001805407E-16,-4.E-02));
#1275 = DIRECTION('',(0.,0.,1.));
#1276 = DIRECTION('',(-0.,-1.,0.));
#1277 = CYLINDRICAL_SURFACE('',#1278,0.65);
#1278 = AXIS2_PLACEMENT_3D('',#1279,#1280,#1281);
#1279 = CARTESIAN_POINT('',(7.,2.498001805407E-16,-4.E-02));
#1280 = DIRECTION('',(-0.,-0.,-1.));
#1281 = DIRECTION('',(-0.,-1.,0.));
#1282 = ADVANCED_FACE('',(#1283,#1286),#1297,.F.);
#1283 = FACE_BOUND('',#1284,.F.);
#1284 = EDGE_LOOP('',(#1285));
#1285 = ORIENTED_EDGE('',*,*,#1271,.T.);
#1286 = FACE_BOUND('',#1287,.F.);
#1287 = EDGE_LOOP('',(#1288));
#1288 = ORIENTED_EDGE('',*,*,#1289,.T.);
#1289 = EDGE_CURVE('',#1290,#1290,#1292,.T.);
#1290 = VERTEX_POINT('',#1291);
#1291 = CARTESIAN_POINT('',(7.,-0.625,-4.E-02));
#1292 = CIRCLE('',#1293,0.625);
#1293 = AXIS2_PLACEMENT_3D('',#1294,#1295,#1296);
#1294 = CARTESIAN_POINT('',(7.,1.110223024625E-16,-4.E-02));
#1295 = DIRECTION('',(-0.,0.,-1.));
#1296 = DIRECTION('',(-0.,-1.,0.));
#1297 = PLANE('',#1298);
#1298 = AXIS2_PLACEMENT_3D('',#1299,#1300,#1301);
#1299 = CARTESIAN_POINT('',(7.,-0.65,-4.E-02));
#1300 = DIRECTION('',(0.,0.,1.));
#1301 = DIRECTION('',(1.,0.,-0.));
#1302 = ADVANCED_FACE('',(#1303,#1306),#1317,.T.);
#1303 = FACE_BOUND('',#1304,.T.);
#1304 = EDGE_LOOP('',(#1305));
#1305 = ORIENTED_EDGE('',*,*,#1263,.T.);
#1306 = FACE_BOUND('',#1307,.T.);
#1307 = EDGE_LOOP('',(#1308));
#1308 = ORIENTED_EDGE('',*,*,#1309,.T.);
#1309 = EDGE_CURVE('',#1310,#1310,#1312,.T.);
#1310 = VERTEX_POINT('',#1311);
#1311 = CARTESIAN_POINT('',(7.,-0.625,1.55));
#1312 = CIRCLE('',#1313,0.625);
#1313 = AXIS2_PLACEMENT_3D('',#1314,#1315,#1316);
#1314 = CARTESIAN_POINT('',(7.,1.110223024625E-16,1.55));
#1315 = DIRECTION('',(-0.,0.,-1.));
#1316 = DIRECTION('',(-0.,-1.,0.));
#1317 = PLANE('',#1318);
#1318 = AXIS2_PLACEMENT_3D('',#1319,#1320,#1321);
#1319 = CARTESIAN_POINT('',(7.,-0.65,1.55));
#1320 = DIRECTION('',(0.,0.,1.));
#1321 = DIRECTION('',(1.,0.,-0.));
#1322 = ADVANCED_FACE('',(#1323),#1334,.F.);
#1323 = FACE_BOUND('',#1324,.T.);
#1324 = EDGE_LOOP('',(#1325,#1326,#1332,#1333));
#1325 = ORIENTED_EDGE('',*,*,#1289,.T.);
#1326 = ORIENTED_EDGE('',*,*,#1327,.T.);
#1327 = EDGE_CURVE('',#1290,#1310,#1328,.T.);
#1328 = LINE('',#1329,#1330);
#1329 = CARTESIAN_POINT('',(7.,-0.625,-4.6E-02));
#1330 = VECTOR('',#1331,1.);
#1331 = DIRECTION('',(0.,0.,1.));
#1332 = ORIENTED_EDGE('',*,*,#1309,.F.);
#1333 = ORIENTED_EDGE('',*,*,#1327,.F.);
#1334 = CYLINDRICAL_SURFACE('',#1335,0.625);
#1335 = AXIS2_PLACEMENT_3D('',#1336,#1337,#1338);
#1336 = CARTESIAN_POINT('',(7.,1.110223024625E-16,-4.6E-02));
#1337 = DIRECTION('',(-0.,-0.,-1.));
#1338 = DIRECTION('',(-0.,-1.,0.));
#1339 = ( GEOMETRIC_REPRESENTATION_CONTEXT(3) 
GLOBAL_UNCERTAINTY_ASSIGNED_CONTEXT((#1343)) 
GLOBAL_UNIT_ASSIGNED_CONTEXT((#1340,#1341,#1342)) REPRESENTATION_CONTEXT
('Context #1','3D Context with UNIT and UNCERTAINTY') );
#1340 = ( LENGTH_UNIT() NAMED_UNIT(*) SI_UNIT(.MILLI.,.METRE.) );
#1341 = ( NAMED_UNIT(*) PLANE_ANGLE_UNIT() SI_UNIT($,.RADIAN.) );
#1342 = ( NAMED_UNIT(*) SI_UNIT($,.STERADIAN.) SOLID_ANGLE_UNIT() );
#1343 = UNCERTAINTY_MEASURE_WITH_UNIT(LENGTH_MEASURE(1.E-07),#1340,
  'distance_accuracy_value','confusion accuracy');
#1344 = CONTEXT_DEPENDENT_SHAPE_REPRESENTATION(#1345,#1347);
#1345 = ( REPRESENTATION_RELATIONSHIP('','',#36,#10) 
REPRESENTATION_RELATIONSHIP_WITH_TRANSFORMATION(#1346) 
SHAPE_REPRESENTATION_RELATIONSHIP() );
#1346 = ITEM_DEFINED_TRANSFORMATION('','',#11,#15);
#1347 = PRODUCT_DEFINITION_SHAPE('Placement','Placement of an item',
  #1348);
#1348 = NEXT_ASSEMBLY_USAGE_OCCURRENCE('1','=>[0:1:1:2]','',#5,#31,$);
#1349 = PRODUCT_RELATED_PRODUCT_CATEGORY('part',$,(#33));
#1350 = SHAPE_DEFINITION_REPRESENTATION(#1351,#1357);
#1351 = PRODUCT_DEFINITION_SHAPE('','',#1352);
#1352 = PRODUCT_DEFINITION('design','',#1353,#1356);
#1353 = PRODUCT_DEFINITION_FORMATION('','',#1354);
#1354 = PRODUCT(
'electronic_connector_terminal_block_3_5_mm_pitch_through_hole_3_pin_
green_screw_terminal_1x03_p3_5_mm_green_render_PCB',
'electronic_connector_terminal_block_3_5_mm_pitch_through_hole_3_pin_
green_screw_terminal_1x03_p3_5_mm_green_render_PCB','',(#1355));
#1355 = PRODUCT_CONTEXT('',#2,'mechanical');
#1356 = PRODUCT_DEFINITION_CONTEXT('part definition',#2,'design');
#1357 = ADVANCED_BREP_SHAPE_REPRESENTATION('',(#11,#1358),#1625);
#1358 = MANIFOLD_SOLID_BREP('',#1359);
#1359 = CLOSED_SHELL('',(#1360,#1400,#1431,#1462,#1512,#1562,#1574,#1591
    ,#1608));
#1360 = ADVANCED_FACE('',(#1361),#1395,.T.);
#1361 = FACE_BOUND('',#1362,.T.);
#1362 = EDGE_LOOP('',(#1363,#1373,#1381,#1389));
#1363 = ORIENTED_EDGE('',*,*,#1364,.T.);
#1364 = EDGE_CURVE('',#1365,#1367,#1369,.T.);
#1365 = VERTEX_POINT('',#1366);
#1366 = CARTESIAN_POINT('',(11.75,-7.11,0.));
#1367 = VERTEX_POINT('',#1368);
#1368 = CARTESIAN_POINT('',(11.75,-7.11,1.51));
#1369 = LINE('',#1370,#1371);
#1370 = CARTESIAN_POINT('',(11.75,-7.11,0.));
#1371 = VECTOR('',#1372,1.);
#1372 = DIRECTION('',(0.,0.,1.));
#1373 = ORIENTED_EDGE('',*,*,#1374,.T.);
#1374 = EDGE_CURVE('',#1367,#1375,#1377,.T.);
#1375 = VERTEX_POINT('',#1376);
#1376 = CARTESIAN_POINT('',(-4.75,-7.11,1.51));
#1377 = LINE('',#1378,#1379);
#1378 = CARTESIAN_POINT('',(11.75,-7.11,1.51));
#1379 = VECTOR('',#1380,1.);
#1380 = DIRECTION('',(-1.,0.,0.));
#1381 = ORIENTED_EDGE('',*,*,#1382,.F.);
#1382 = EDGE_CURVE('',#1383,#1375,#1385,.T.);
#1383 = VERTEX_POINT('',#1384);
#1384 = CARTESIAN_POINT('',(-4.75,-7.11,0.));
#1385 = LINE('',#1386,#1387);
#1386 = CARTESIAN_POINT('',(-4.75,-7.11,0.));
#1387 = VECTOR('',#1388,1.);
#1388 = DIRECTION('',(0.,0.,1.));
#1389 = ORIENTED_EDGE('',*,*,#1390,.F.);
#1390 = EDGE_CURVE('',#1365,#1383,#1391,.T.);
#1391 = LINE('',#1392,#1393);
#1392 = CARTESIAN_POINT('',(11.75,-7.11,0.));
#1393 = VECTOR('',#1394,1.);
#1394 = DIRECTION('',(-1.,0.,0.));
#1395 = PLANE('',#1396);
#1396 = AXIS2_PLACEMENT_3D('',#1397,#1398,#1399);
#1397 = CARTESIAN_POINT('',(11.75,-7.11,0.));
#1398 = DIRECTION('',(0.,-1.,0.));
#1399 = DIRECTION('',(-1.,0.,0.));
#1400 = ADVANCED_FACE('',(#1401),#1426,.T.);
#1401 = FACE_BOUND('',#1402,.T.);
#1402 = EDGE_LOOP('',(#1403,#1413,#1419,#1420));
#1403 = ORIENTED_EDGE('',*,*,#1404,.T.);
#1404 = EDGE_CURVE('',#1405,#1407,#1409,.T.);
#1405 = VERTEX_POINT('',#1406);
#1406 = CARTESIAN_POINT('',(11.75,6.2,0.));
#1407 = VERTEX_POINT('',#1408);
#1408 = CARTESIAN_POINT('',(11.75,6.2,1.51));
#1409 = LINE('',#1410,#1411);
#1410 = CARTESIAN_POINT('',(11.75,6.2,0.));
#1411 = VECTOR('',#1412,1.);
#1412 = DIRECTION('',(0.,0.,1.));
#1413 = ORIENTED_EDGE('',*,*,#1414,.T.);
#1414 = EDGE_CURVE('',#1407,#1367,#1415,.T.);
#1415 = LINE('',#1416,#1417);
#1416 = CARTESIAN_POINT('',(11.75,6.2,1.51));
#1417 = VECTOR('',#1418,1.);
#1418 = DIRECTION('',(0.,-1.,0.));
#1419 = ORIENTED_EDGE('',*,*,#1364,.F.);
#1420 = ORIENTED_EDGE('',*,*,#1421,.F.);
#1421 = EDGE_CURVE('',#1405,#1365,#1422,.T.);
#1422 = LINE('',#1423,#1424);
#1423 = CARTESIAN_POINT('',(11.75,6.2,0.));
#1424 = VECTOR('',#1425,1.);
#1425 = DIRECTION('',(0.,-1.,0.));
#1426 = PLANE('',#1427);
#1427 = AXIS2_PLACEMENT_3D('',#1428,#1429,#1430);
#1428 = CARTESIAN_POINT('',(11.75,6.2,0.));
#1429 = DIRECTION('',(1.,0.,-0.));
#1430 = DIRECTION('',(0.,-1.,0.));
#1431 = ADVANCED_FACE('',(#1432),#1457,.T.);
#1432 = FACE_BOUND('',#1433,.T.);
#1433 = EDGE_LOOP('',(#1434,#1435,#1443,#1451));
#1434 = ORIENTED_EDGE('',*,*,#1382,.T.);
#1435 = ORIENTED_EDGE('',*,*,#1436,.T.);
#1436 = EDGE_CURVE('',#1375,#1437,#1439,.T.);
#1437 = VERTEX_POINT('',#1438);
#1438 = CARTESIAN_POINT('',(-4.75,6.2,1.51));
#1439 = LINE('',#1440,#1441);
#1440 = CARTESIAN_POINT('',(-4.75,-7.11,1.51));
#1441 = VECTOR('',#1442,1.);
#1442 = DIRECTION('',(0.,1.,0.));
#1443 = ORIENTED_EDGE('',*,*,#1444,.F.);
#1444 = EDGE_CURVE('',#1445,#1437,#1447,.T.);
#1445 = VERTEX_POINT('',#1446);
#1446 = CARTESIAN_POINT('',(-4.75,6.2,0.));
#1447 = LINE('',#1448,#1449);
#1448 = CARTESIAN_POINT('',(-4.75,6.2,0.));
#1449 = VECTOR('',#1450,1.);
#1450 = DIRECTION('',(0.,0.,1.));
#1451 = ORIENTED_EDGE('',*,*,#1452,.F.);
#1452 = EDGE_CURVE('',#1383,#1445,#1453,.T.);
#1453 = LINE('',#1454,#1455);
#1454 = CARTESIAN_POINT('',(-4.75,-7.11,0.));
#1455 = VECTOR('',#1456,1.);
#1456 = DIRECTION('',(0.,1.,0.));
#1457 = PLANE('',#1458);
#1458 = AXIS2_PLACEMENT_3D('',#1459,#1460,#1461);
#1459 = CARTESIAN_POINT('',(-4.75,-7.11,0.));
#1460 = DIRECTION('',(-1.,0.,0.));
#1461 = DIRECTION('',(0.,1.,0.));
#1462 = ADVANCED_FACE('',(#1463,#1474,#1485,#1496),#1507,.F.);
#1463 = FACE_BOUND('',#1464,.F.);
#1464 = EDGE_LOOP('',(#1465,#1466,#1467,#1473));
#1465 = ORIENTED_EDGE('',*,*,#1390,.F.);
#1466 = ORIENTED_EDGE('',*,*,#1421,.F.);
#1467 = ORIENTED_EDGE('',*,*,#1468,.F.);
#1468 = EDGE_CURVE('',#1445,#1405,#1469,.T.);
#1469 = LINE('',#1470,#1471);
#1470 = CARTESIAN_POINT('',(-4.75,6.2,0.));
#1471 = VECTOR('',#1472,1.);
#1472 = DIRECTION('',(1.,0.,0.));
#1473 = ORIENTED_EDGE('',*,*,#1452,.F.);
#1474 = FACE_BOUND('',#1475,.F.);
#1475 = EDGE_LOOP('',(#1476));
#1476 = ORIENTED_EDGE('',*,*,#1477,.T.);
#1477 = EDGE_CURVE('',#1478,#1478,#1480,.T.);
#1478 = VERTEX_POINT('',#1479);
#1479 = CARTESIAN_POINT('',(-1.232595164408E-32,-0.65,0.));
#1480 = CIRCLE('',#1481,0.65);
#1481 = AXIS2_PLACEMENT_3D('',#1482,#1483,#1484);
#1482 = CARTESIAN_POINT('',(-5.551115123126E-17,1.110223024625E-16,0.));
#1483 = DIRECTION('',(-0.,0.,-1.));
#1484 = DIRECTION('',(8.540177112501E-17,-1.,-0.));
#1485 = FACE_BOUND('',#1486,.F.);
#1486 = EDGE_LOOP('',(#1487));
#1487 = ORIENTED_EDGE('',*,*,#1488,.T.);
#1488 = EDGE_CURVE('',#1489,#1489,#1491,.T.);
#1489 = VERTEX_POINT('',#1490);
#1490 = CARTESIAN_POINT('',(3.5,-0.65,0.));
#1491 = CIRCLE('',#1492,0.65);
#1492 = AXIS2_PLACEMENT_3D('',#1493,#1494,#1495);
#1493 = CARTESIAN_POINT('',(3.5,2.498001805407E-16,0.));
#1494 = DIRECTION('',(-0.,0.,-1.));
#1495 = DIRECTION('',(-0.,-1.,0.));
#1496 = FACE_BOUND('',#1497,.F.);
#1497 = EDGE_LOOP('',(#1498));
#1498 = ORIENTED_EDGE('',*,*,#1499,.T.);
#1499 = EDGE_CURVE('',#1500,#1500,#1502,.T.);
#1500 = VERTEX_POINT('',#1501);
#1501 = CARTESIAN_POINT('',(7.,-0.65,0.));
#1502 = CIRCLE('',#1503,0.65);
#1503 = AXIS2_PLACEMENT_3D('',#1504,#1505,#1506);
#1504 = CARTESIAN_POINT('',(7.,2.498001805407E-16,0.));
#1505 = DIRECTION('',(-0.,0.,-1.));
#1506 = DIRECTION('',(-0.,-1.,0.));
#1507 = PLANE('',#1508);
#1508 = AXIS2_PLACEMENT_3D('',#1509,#1510,#1511);
#1509 = CARTESIAN_POINT('',(0.,0.,0.));
#1510 = DIRECTION('',(0.,0.,1.));
#1511 = DIRECTION('',(1.,0.,-0.));
#1512 = ADVANCED_FACE('',(#1513,#1524,#1535,#1546),#1557,.T.);
#1513 = FACE_BOUND('',#1514,.T.);
#1514 = EDGE_LOOP('',(#1515,#1516,#1517,#1523));
#1515 = ORIENTED_EDGE('',*,*,#1374,.F.);
#1516 = ORIENTED_EDGE('',*,*,#1414,.F.);
#1517 = ORIENTED_EDGE('',*,*,#1518,.F.);
#1518 = EDGE_CURVE('',#1437,#1407,#1519,.T.);
#1519 = LINE('',#1520,#1521);
#1520 = CARTESIAN_POINT('',(-4.75,6.2,1.51));
#1521 = VECTOR('',#1522,1.);
#1522 = DIRECTION('',(1.,0.,0.));
#1523 = ORIENTED_EDGE('',*,*,#1436,.F.);
#1524 = FACE_BOUND('',#1525,.T.);
#1525 = EDGE_LOOP('',(#1526));
#1526 = ORIENTED_EDGE('',*,*,#1527,.T.);
#1527 = EDGE_CURVE('',#1528,#1528,#1530,.T.);
#1528 = VERTEX_POINT('',#1529);
#1529 = CARTESIAN_POINT('',(-1.232595164408E-32,-0.65,1.51));
#1530 = CIRCLE('',#1531,0.65);
#1531 = AXIS2_PLACEMENT_3D('',#1532,#1533,#1534);
#1532 = CARTESIAN_POINT('',(-5.551115123126E-17,1.110223024625E-16,1.51)
  );
#1533 = DIRECTION('',(-0.,0.,-1.));
#1534 = DIRECTION('',(8.540177112501E-17,-1.,-0.));
#1535 = FACE_BOUND('',#1536,.T.);
#1536 = EDGE_LOOP('',(#1537));
#1537 = ORIENTED_EDGE('',*,*,#1538,.T.);
#1538 = EDGE_CURVE('',#1539,#1539,#1541,.T.);
#1539 = VERTEX_POINT('',#1540);
#1540 = CARTESIAN_POINT('',(3.5,-0.65,1.51));
#1541 = CIRCLE('',#1542,0.65);
#1542 = AXIS2_PLACEMENT_3D('',#1543,#1544,#1545);
#1543 = CARTESIAN_POINT('',(3.5,2.498001805407E-16,1.51));
#1544 = DIRECTION('',(-0.,0.,-1.));
#1545 = DIRECTION('',(-0.,-1.,0.));
#1546 = FACE_BOUND('',#1547,.T.);
#1547 = EDGE_LOOP('',(#1548));
#1548 = ORIENTED_EDGE('',*,*,#1549,.T.);
#1549 = EDGE_CURVE('',#1550,#1550,#1552,.T.);
#1550 = VERTEX_POINT('',#1551);
#1551 = CARTESIAN_POINT('',(7.,-0.65,1.51));
#1552 = CIRCLE('',#1553,0.65);
#1553 = AXIS2_PLACEMENT_3D('',#1554,#1555,#1556);
#1554 = CARTESIAN_POINT('',(7.,2.498001805407E-16,1.51));
#1555 = DIRECTION('',(-0.,0.,-1.));
#1556 = DIRECTION('',(-0.,-1.,0.));
#1557 = PLANE('',#1558);
#1558 = AXIS2_PLACEMENT_3D('',#1559,#1560,#1561);
#1559 = CARTESIAN_POINT('',(0.,0.,1.51));
#1560 = DIRECTION('',(0.,0.,1.));
#1561 = DIRECTION('',(1.,0.,-0.));
#1562 = ADVANCED_FACE('',(#1563),#1569,.T.);
#1563 = FACE_BOUND('',#1564,.T.);
#1564 = EDGE_LOOP('',(#1565,#1566,#1567,#1568));
#1565 = ORIENTED_EDGE('',*,*,#1444,.T.);
#1566 = ORIENTED_EDGE('',*,*,#1518,.T.);
#1567 = ORIENTED_EDGE('',*,*,#1404,.F.);
#1568 = ORIENTED_EDGE('',*,*,#1468,.F.);
#1569 = PLANE('',#1570);
#1570 = AXIS2_PLACEMENT_3D('',#1571,#1572,#1573);
#1571 = CARTESIAN_POINT('',(-4.75,6.2,0.));
#1572 = DIRECTION('',(0.,1.,0.));
#1573 = DIRECTION('',(1.,0.,0.));
#1574 = ADVANCED_FACE('',(#1575),#1586,.F.);
#1575 = FACE_BOUND('',#1576,.T.);
#1576 = EDGE_LOOP('',(#1577,#1578,#1584,#1585));
#1577 = ORIENTED_EDGE('',*,*,#1477,.T.);
#1578 = ORIENTED_EDGE('',*,*,#1579,.T.);
#1579 = EDGE_CURVE('',#1478,#1528,#1580,.T.);
#1580 = LINE('',#1581,#1582);
#1581 = CARTESIAN_POINT('',(-1.232595164408E-32,-0.65,-4.6E-02));
#1582 = VECTOR('',#1583,1.);
#1583 = DIRECTION('',(0.,0.,1.));
#1584 = ORIENTED_EDGE('',*,*,#1527,.F.);
#1585 = ORIENTED_EDGE('',*,*,#1579,.F.);
#1586 = CYLINDRICAL_SURFACE('',#1587,0.65);
#1587 = AXIS2_PLACEMENT_3D('',#1588,#1589,#1590);
#1588 = CARTESIAN_POINT('',(-5.551115123126E-17,1.110223024625E-16,
    -4.6E-02));
#1589 = DIRECTION('',(-0.,0.,-1.));
#1590 = DIRECTION('',(8.540177112501E-17,-1.,-0.));
#1591 = ADVANCED_FACE('',(#1592),#1603,.F.);
#1592 = FACE_BOUND('',#1593,.T.);
#1593 = EDGE_LOOP('',(#1594,#1595,#1601,#1602));
#1594 = ORIENTED_EDGE('',*,*,#1488,.T.);
#1595 = ORIENTED_EDGE('',*,*,#1596,.T.);
#1596 = EDGE_CURVE('',#1489,#1539,#1597,.T.);
#1597 = LINE('',#1598,#1599);
#1598 = CARTESIAN_POINT('',(3.5,-0.65,-4.6E-02));
#1599 = VECTOR('',#1600,1.);
#1600 = DIRECTION('',(0.,0.,1.));
#1601 = ORIENTED_EDGE('',*,*,#1538,.F.);
#1602 = ORIENTED_EDGE('',*,*,#1596,.F.);
#1603 = CYLINDRICAL_SURFACE('',#1604,0.65);
#1604 = AXIS2_PLACEMENT_3D('',#1605,#1606,#1607);
#1605 = CARTESIAN_POINT('',(3.5,2.498001805407E-16,-4.6E-02));
#1606 = DIRECTION('',(-0.,-0.,-1.));
#1607 = DIRECTION('',(-0.,-1.,0.));
#1608 = ADVANCED_FACE('',(#1609),#1620,.F.);
#1609 = FACE_BOUND('',#1610,.T.);
#1610 = EDGE_LOOP('',(#1611,#1612,#1618,#1619));
#1611 = ORIENTED_EDGE('',*,*,#1499,.T.);
#1612 = ORIENTED_EDGE('',*,*,#1613,.T.);
#1613 = EDGE_CURVE('',#1500,#1550,#1614,.T.);
#1614 = LINE('',#1615,#1616);
#1615 = CARTESIAN_POINT('',(7.,-0.65,-4.6E-02));
#1616 = VECTOR('',#1617,1.);
#1617 = DIRECTION('',(0.,0.,1.));
#1618 = ORIENTED_EDGE('',*,*,#1549,.F.);
#1619 = ORIENTED_EDGE('',*,*,#1613,.F.);
#1620 = CYLINDRICAL_SURFACE('',#1621,0.65);
#1621 = AXIS2_PLACEMENT_3D('',#1622,#1623,#1624);
#1622 = CARTESIAN_POINT('',(7.,2.498001805407E-16,-4.6E-02));
#1623 = DIRECTION('',(-0.,-0.,-1.));
#1624 = DIRECTION('',(-0.,-1.,0.));
#1625 = ( GEOMETRIC_REPRESENTATION_CONTEXT(3) 
GLOBAL_UNCERTAINTY_ASSIGNED_CONTEXT((#1629)) 
GLOBAL_UNIT_ASSIGNED_CONTEXT((#1626,#1627,#1628)) REPRESENTATION_CONTEXT
('Context #1','3D Context with UNIT and UNCERTAINTY') );
#1626 = ( LENGTH_UNIT() NAMED_UNIT(*) SI_UNIT(.MILLI.,.METRE.) );
#1627 = ( NAMED_UNIT(*) PLANE_ANGLE_UNIT() SI_UNIT($,.RADIAN.) );
#1628 = ( NAMED_UNIT(*) SI_UNIT($,.STERADIAN.) SOLID_ANGLE_UNIT() );
#1629 = UNCERTAINTY_MEASURE_WITH_UNIT(LENGTH_MEASURE(1.E-07),#1626,
  'distance_accuracy_value','confusion accuracy');
#1630 = CONTEXT_DEPENDENT_SHAPE_REPRESENTATION(#1631,#1633);
#1631 = ( REPRESENTATION_RELATIONSHIP('','',#1357,#10) 
REPRESENTATION_RELATIONSHIP_WITH_TRANSFORMATION(#1632) 
SHAPE_REPRESENTATION_RELATIONSHIP() );
#1632 = ITEM_DEFINED_TRANSFORMATION('','',#11,#19);
#1633 = PRODUCT_DEFINITION_SHAPE('Placement','Placement of an item',
  #1634);
#1634 = NEXT_ASSEMBLY_USAGE_OCCURRENCE('2','=>[0:1:1:3]','',#5,#1352,$);
#1635 = PRODUCT_RELATED_PRODUCT_CATEGORY('part',$,(#1354));
#1636 = MECHANICAL_DESIGN_GEOMETRIC_PRESENTATION_REPRESENTATION('',(
    #1637),#1625);
#1637 = STYLED_ITEM('color',(#1638),#1358);
#1638 = PRESENTATION_STYLE_ASSIGNMENT((#1639));
#1639 = SURFACE_STYLE_USAGE(.BOTH.,#1640);
#1640 = SURFACE_SIDE_STYLE('',(#1641));
#1641 = SURFACE_STYLE_FILL_AREA(#1642);
#1642 = FILL_AREA_STYLE('',(#1643));
#1643 = FILL_AREA_STYLE_COLOUR('',#1644);
#1644 = COLOUR_RGB('',0.313304153717,0.484529207832,0.410020903123);
#1645 = MECHANICAL_DESIGN_GEOMETRIC_PRESENTATION_REPRESENTATION('',(
    #1646,#1654,#1661,#1668,#1675,#1682,#1689,#1696,#1703),#1339);
#1646 = STYLED_ITEM('color',(#1647),#37);
#1647 = PRESENTATION_STYLE_ASSIGNMENT((#1648));
#1648 = SURFACE_STYLE_USAGE(.BOTH.,#1649);
#1649 = SURFACE_SIDE_STYLE('',(#1650));
#1650 = SURFACE_STYLE_FILL_AREA(#1651);
#1651 = FILL_AREA_STYLE('',(#1652));
#1652 = FILL_AREA_STYLE_COLOUR('',#1653);
#1653 = COLOUR_RGB('',0.735356983052,0.735356983052,0.735356983052);
#1654 = STYLED_ITEM('color',(#1655),#366);
#1655 = PRESENTATION_STYLE_ASSIGNMENT((#1656));
#1656 = SURFACE_STYLE_USAGE(.BOTH.,#1657);
#1657 = SURFACE_SIDE_STYLE('',(#1658));
#1658 = SURFACE_STYLE_FILL_AREA(#1659);
#1659 = FILL_AREA_STYLE('',(#1660));
#1660 = FILL_AREA_STYLE_COLOUR('',#1653);
#1661 = STYLED_ITEM('color',(#1662),#695);
#1662 = PRESENTATION_STYLE_ASSIGNMENT((#1663));
#1663 = SURFACE_STYLE_USAGE(.BOTH.,#1664);
#1664 = SURFACE_SIDE_STYLE('',(#1665));
#1665 = SURFACE_STYLE_FILL_AREA(#1666);
#1666 = FILL_AREA_STYLE('',(#1667));
#1667 = FILL_AREA_STYLE_COLOUR('',#1653);
#1668 = STYLED_ITEM('color',(#1669),#787);
#1669 = PRESENTATION_STYLE_ASSIGNMENT((#1670));
#1670 = SURFACE_STYLE_USAGE(.BOTH.,#1671);
#1671 = SURFACE_SIDE_STYLE('',(#1672));
#1672 = SURFACE_STYLE_FILL_AREA(#1673);
#1673 = FILL_AREA_STYLE('',(#1674));
#1674 = FILL_AREA_STYLE_COLOUR('',#1653);
#1675 = STYLED_ITEM('color',(#1676),#879);
#1676 = PRESENTATION_STYLE_ASSIGNMENT((#1677));
#1677 = SURFACE_STYLE_USAGE(.BOTH.,#1678);
#1678 = SURFACE_SIDE_STYLE('',(#1679));
#1679 = SURFACE_STYLE_FILL_AREA(#1680);
#1680 = FILL_AREA_STYLE('',(#1681));
#1681 = FILL_AREA_STYLE_COLOUR('',#1653);
#1682 = STYLED_ITEM('color',(#1683),#971);
#1683 = PRESENTATION_STYLE_ASSIGNMENT((#1684));
#1684 = SURFACE_STYLE_USAGE(.BOTH.,#1685);
#1685 = SURFACE_SIDE_STYLE('',(#1686));
#1686 = SURFACE_STYLE_FILL_AREA(#1687);
#1687 = FILL_AREA_STYLE('',(#1688));
#1688 = FILL_AREA_STYLE_COLOUR('',#1653);
#1689 = STYLED_ITEM('color',(#1690),#1063);
#1690 = PRESENTATION_STYLE_ASSIGNMENT((#1691));
#1691 = SURFACE_STYLE_USAGE(.BOTH.,#1692);
#1692 = SURFACE_SIDE_STYLE('',(#1693));
#1693 = SURFACE_STYLE_FILL_AREA(#1694);
#1694 = FILL_AREA_STYLE('',(#1695));
#1695 = FILL_AREA_STYLE_COLOUR('',#1653);
#1696 = STYLED_ITEM('color',(#1697),#1155);
#1697 = PRESENTATION_STYLE_ASSIGNMENT((#1698));
#1698 = SURFACE_STYLE_USAGE(.BOTH.,#1699);
#1699 = SURFACE_SIDE_STYLE('',(#1700));
#1700 = SURFACE_STYLE_FILL_AREA(#1701);
#1701 = FILL_AREA_STYLE('',(#1702));
#1702 = FILL_AREA_STYLE_COLOUR('',#1653);
#1703 = STYLED_ITEM('color',(#1704),#1247);
#1704 = PRESENTATION_STYLE_ASSIGNMENT((#1705));
#1705 = SURFACE_STYLE_USAGE(.BOTH.,#1706);
#1706 = SURFACE_SIDE_STYLE('',(#1707));
#1707 = SURFACE_STYLE_FILL_AREA(#1708);
#1708 = FILL_AREA_STYLE('',(#1709));
#1709 = FILL_AREA_STYLE_COLOUR('',#1653);
ENDSEC;
END-ISO-10303-21;
