M48
; DRILL file KiCad 10.0.6 date 2026-09-06T19:17:28
; FORMAT={-:-/ absolute / metric / decimal}
; #@! TF.CreationDate,2026-09-06T19:17:28+01:00
; #@! TF.GenerationSoftware,Kicad,Pcbnew,10.0.6
; #@! TF.FileFunction,Plated,1,4,PTH
FMAT,2
METRIC
; #@! TA.AperFunction,Plated,PTH,ViaDrill
T1C0.300
; #@! TA.AperFunction,Plated,PTH,ViaDrill
T2C0.400
; #@! TA.AperFunction,Plated,PTH,ComponentDrill
T3C0.600
; #@! TA.AperFunction,Plated,PTH,ComponentDrill
T4C0.800
%
G90
G05
T1
X137.2Y-89.1
X137.5Y-94.1
X137.6Y-91.4
X137.7Y-95.8
X137.8Y-98.9
X138.0Y-116.5
X138.8Y-108.5
X138.9Y-71.1
X139.2Y-98.6
X139.3Y-95.6
X139.4Y-101.3
X140.2Y-90.2
X141.1Y-91.7
X141.2Y-109.3
X141.4Y-87.4
X141.4Y-100.8
X141.6Y-108.7
X141.9Y-101.6
X142.0Y-78.1
X142.0Y-79.5
X142.2Y-102.4
X143.5Y-107.6
X143.7Y-76.5
X143.7Y-81.1
X143.9Y-106.2
X144.0Y-105.2
X145.1Y-76.5
X145.1Y-81.1
X145.2Y-86.2
X145.61Y-109.4
X145.8Y-86.7
X146.7Y-78.1
X146.7Y-79.5
X146.777Y-109.349
X146.9Y-92.7
X146.9Y-93.9
X146.9Y-95.0
X147.1Y-105.1
X147.6Y-108.6
X148.9Y-108.6
X149.4Y-105.8
X149.7Y-107.6
X150.0Y-98.5
X150.1Y-105.0
X151.2Y-109.3
X151.4Y-105.0
X151.4Y-108.6
X151.5Y-101.3
X151.7Y-94.3
X152.6Y-93.7
X152.7Y-102.4
X153.5Y-116.5
X154.1Y-102.4
X154.3Y-93.9
X154.6Y-100.9
X154.7Y-108.5
X155.55Y-92.55
X155.8Y-100.2
X156.1Y-94.7
X156.1Y-97.3
X156.2Y-106.7
X157.12Y-102.18
T2
X138.9Y-72.3
X139.3Y-92.9
T4
X133.104Y-70.543
X133.104Y-73.083
X133.104Y-75.623
X133.104Y-78.163
X133.104Y-80.703
X133.104Y-83.243
X133.104Y-85.783
X133.104Y-88.323
X133.104Y-90.863
X133.104Y-93.403
X133.104Y-95.943
X133.104Y-98.483
X133.104Y-101.023
X133.104Y-103.563
X133.104Y-106.103
X133.104Y-108.643
X133.104Y-111.183
X133.104Y-113.723
X133.104Y-116.263
X158.5Y-113.72
X158.5Y-116.26
X158.504Y-70.543
X158.504Y-73.083
X158.504Y-75.623
X158.504Y-78.163
X158.504Y-80.703
X158.504Y-83.243
X158.504Y-85.783
X158.504Y-88.323
X158.504Y-90.863
X158.504Y-93.403
X158.504Y-95.943
X158.504Y-98.483
X158.504Y-101.023
X158.504Y-103.563
X158.504Y-106.103
X158.504Y-108.643
X158.504Y-111.183
T3
G00X141.54Y-110.43
M15
G01X141.54Y-111.53
M16
G05
G00X141.54Y-114.78
M15
G01X141.54Y-115.58
M16
G05
G00X150.18Y-110.43
M15
G01X150.18Y-111.53
M16
G05
G00X150.18Y-114.78
M15
G01X150.18Y-115.58
M16
G05
M30
