%TF.GenerationSoftware,KiCad,Pcbnew,10.99.0-3671-gbe90a7e200*%
%TF.CreationDate,2026-09-10T00:25:42+01:00*%
%TF.ProjectId,kicad_file,6b696361-645f-4666-996c-652e6b696361,rev?*%
%TF.SameCoordinates,Original*%
%TF.FileFunction,Copper,L2,Bot*%
%TF.FilePolarity,Positive*%
%FSLAX46Y46*%
G04 Gerber Fmt 4.6, Leading zero omitted, Abs format (unit mm)*
G04 Created by KiCad (PCBNEW 10.99.0-3671-gbe90a7e200) date 2026-09-10 00:25:42*
%MOMM*%
%LPD*%
G01*
G04 APERTURE LIST*
%TA.AperFunction,ComponentPad*%
%ADD10C,3.200000*%
%TD*%
%TA.AperFunction,ComponentPad*%
%ADD11C,2.184400*%
%TD*%
%TA.AperFunction,ComponentPad*%
%ADD12C,1.676400*%
%TD*%
%TA.AperFunction,ComponentPad*%
%ADD13C,0.908000*%
%TD*%
%TA.AperFunction,ViaPad*%
%ADD14C,0.800100*%
%TD*%
%TA.AperFunction,Conductor*%
%ADD15C,0.406400*%
%TD*%
%TA.AperFunction,Conductor*%
%ADD16C,0.254000*%
%TD*%
%TA.AperFunction,Conductor*%
%ADD17C,0.812800*%
%TD*%
G04 APERTURE END LIST*
D10*
%TO.P,U$21,P$1*%
%TO.N,N/C*%
X35814000Y20320000D03*
%TD*%
D11*
%TO.P,J3,1*%
%TO.N,VIN+3*%
X8360000Y17145000D03*
%TO.P,J3,2*%
%TO.N,VIN-3*%
X11860000Y17145000D03*
%TD*%
D10*
%TO.P,U$20,P$1*%
%TO.N,N/C*%
X2540000Y20320000D03*
%TD*%
D12*
%TO.P,JP3,1*%
%TO.N,VCC*%
X1270000Y2540000D03*
%TO.P,JP3,2*%
%TO.N,GND*%
X3810000Y2540000D03*
%TO.P,JP3,3*%
%TO.N,SCL*%
X6350000Y2540000D03*
%TO.P,JP3,4*%
%TO.N,SDA*%
X8890000Y2540000D03*
%TO.P,JP3,5*%
%TO.N,VIN+3*%
X11430000Y2540000D03*
%TO.P,JP3,6*%
%TO.N,VIN-3*%
X13970000Y2540000D03*
%TO.P,JP3,7*%
%TO.N,VIN+2*%
X16510000Y2540000D03*
%TO.P,JP3,8*%
%TO.N,VIN-2*%
X19050000Y2540000D03*
%TO.P,JP3,9*%
%TO.N,VIN+1*%
X21590000Y2540000D03*
%TO.P,JP3,10*%
%TO.N,VIN-1*%
X24130000Y2540000D03*
%TO.P,JP3,11*%
%TO.N,WARNING*%
X26670000Y2540000D03*
%TO.P,JP3,12*%
%TO.N,CRITICAL*%
X29210000Y2540000D03*
%TO.P,JP3,13*%
%TO.N,TC*%
X31750000Y2540000D03*
%TO.P,JP3,14*%
%TO.N,PVALID*%
X34290000Y2540000D03*
%TO.P,JP3,15*%
%TO.N,VPU*%
X36830000Y2540000D03*
%TD*%
D11*
%TO.P,J2,1*%
%TO.N,VIN+2*%
X17250000Y17145000D03*
%TO.P,J2,2*%
%TO.N,VIN-2*%
X20750000Y17145000D03*
%TD*%
%TO.P,J1,1*%
%TO.N,VIN+1*%
X26140000Y17145000D03*
%TO.P,J1,2*%
%TO.N,VIN-1*%
X29640000Y17145000D03*
%TD*%
D13*
%TO.P,IC1,P$18*%
%TO.N,GND*%
X19050000Y7747000D03*
%TO.P,IC1,P$19*%
X18150000Y8647000D03*
%TO.P,IC1,P$20*%
X19950000Y8647000D03*
%TO.P,IC1,P$21*%
X19950000Y6847000D03*
%TO.P,IC1,P$22*%
X18150000Y6847000D03*
%TD*%
D14*
%TO.N,VCC*%
X6477000Y11811000D03*
X31369000Y10541000D03*
%TO.N,GND*%
X33528000Y7620000D03*
X1270000Y11430000D03*
X10160000Y18288000D03*
X23622000Y21590000D03*
X14732000Y21590000D03*
X9398000Y9652000D03*
X12700000Y8890000D03*
X28194000Y18034000D03*
X5334000Y21844000D03*
X29210000Y8890000D03*
X37338000Y11684000D03*
X19050000Y18288000D03*
%TO.N,SDA*%
X20320000Y1136650D03*
X35052000Y11938000D03*
%TO.N,SCL*%
X17780000Y1524000D03*
X35052000Y13208000D03*
%TO.N,VPU*%
X15240000Y3683000D03*
X15303500Y10731500D03*
%TO.N,WARNING*%
X26924000Y5588000D03*
%TO.N,TC*%
X25544250Y10160000D03*
%TD*%
%TO.N,VCC*%
D15*
X32766000Y11938000D02*
X31369000Y10541000D01*
X6477000Y15113000D02*
X5842000Y15748000D01*
X31242000Y19558000D02*
X32766000Y18034000D01*
X5842000Y18542000D02*
X6858000Y19558000D01*
X6858000Y19558000D02*
X31242000Y19558000D01*
X5842000Y15748000D02*
X5842000Y18542000D01*
X6477000Y11811000D02*
X6477000Y15113000D01*
X32766000Y18034000D02*
X32766000Y11938000D01*
%TO.N,SDA*%
D16*
X34798000Y762000D02*
X35560000Y1524000D01*
X8890000Y1778000D02*
X9906000Y762000D01*
X20320000Y1136650D02*
X20320000Y762000D01*
X8890000Y2540000D02*
X8890000Y1778000D01*
X35560000Y1524000D02*
X35560000Y11430000D01*
X9906000Y762000D02*
X20320000Y762000D01*
X35560000Y11430000D02*
X35052000Y11938000D01*
X20320000Y762000D02*
X34798000Y762000D01*
%TO.N,SCL*%
X32639000Y1397000D02*
X33147000Y1905000D01*
X10033000Y3175000D02*
X10033000Y1905000D01*
X10033000Y1905000D02*
X10668000Y1270000D01*
X19523450Y1397000D02*
X17907000Y1397000D01*
X19523450Y1397000D02*
X20094950Y1968500D01*
X20094950Y1968500D02*
X20545050Y1968500D01*
X34798000Y11195187D02*
X34347150Y11646037D01*
X17526000Y1270000D02*
X10668000Y1270000D01*
X6350000Y2540000D02*
X7620000Y3810000D01*
X17780000Y1524000D02*
X17907000Y1397000D01*
X33147000Y3013450D02*
X34798000Y4664450D01*
X20545050Y1968500D02*
X21116550Y1397000D01*
X34347150Y12503150D02*
X35052000Y13208000D01*
X7620000Y3810000D02*
X9398000Y3810000D01*
X34347150Y11646037D02*
X34347150Y12503150D01*
X34798000Y4664450D02*
X34798000Y11195187D01*
X33147000Y1905000D02*
X33147000Y3013450D01*
X21116550Y1397000D02*
X32639000Y1397000D01*
X9398000Y3810000D02*
X10033000Y3175000D01*
X17780000Y1524000D02*
X17526000Y1270000D01*
%TO.N,VIN+1*%
D17*
X23092000Y14097000D02*
X23092000Y4042000D01*
X23092000Y14097000D02*
X26140000Y17145000D01*
X21590000Y2540000D02*
X23092000Y4042000D01*
%TO.N,VIN-1*%
X24560000Y12065000D02*
X24560000Y2970000D01*
X24130000Y2540000D02*
X24560000Y2970000D01*
X24560000Y12065000D02*
X29640000Y17145000D01*
%TO.N,VIN+2*%
X16510000Y16405000D02*
X16510000Y2540000D01*
X17250000Y17145000D02*
X16510000Y16405000D01*
%TO.N,VIN-2*%
X21590000Y16305000D02*
X20750000Y17145000D01*
X21590000Y5842000D02*
X21590000Y16305000D01*
X19050000Y3302000D02*
X21590000Y5842000D01*
X19050000Y2540000D02*
X19050000Y3302000D01*
%TO.N,VIN+3*%
X11430000Y7366000D02*
X11430000Y14075000D01*
X11430000Y14075000D02*
X8360000Y17145000D01*
X11430000Y2540000D02*
X11430000Y7366000D01*
%TO.N,VIN-3*%
X13970000Y15035000D02*
X11860000Y17145000D01*
X13970000Y2540000D02*
X13970000Y15035000D01*
%TO.N,VPU*%
D16*
X15240000Y3683000D02*
X15240000Y10668000D01*
X15240000Y10668000D02*
X15303500Y10731500D01*
%TO.N,WARNING*%
X26924000Y5588000D02*
X26924000Y2794000D01*
X26924000Y2794000D02*
X26670000Y2540000D01*
%TO.N,TC*%
X25544250Y10160000D02*
X31750000Y3954250D01*
X31750000Y3954250D02*
X31750000Y2540000D01*
%TD*%
%TA.AperFunction,Conductor*%
%TO.N,GND*%
G36*
X35232499Y22341194D02*
G01*
X35250805Y22297000D01*
X35232499Y22252806D01*
X35207618Y22237559D01*
X35058798Y22189205D01*
X35058795Y22189203D01*
X35058793Y22189203D01*
X34806000Y22065907D01*
X34616435Y21938044D01*
X34572822Y21908627D01*
X34363814Y21720435D01*
X34363810Y21720430D01*
X34183023Y21504976D01*
X34033979Y21266458D01*
X34033978Y21266455D01*
X33960083Y21100483D01*
X33919579Y21009510D01*
X33842053Y20739146D01*
X33802911Y20460631D01*
X33802911Y20179368D01*
X33842053Y19900853D01*
X33919579Y19630489D01*
X34033979Y19373541D01*
X34183023Y19135023D01*
X34363810Y18919569D01*
X34363814Y18919564D01*
X34572823Y18731372D01*
X34572822Y18731372D01*
X34805996Y18574095D01*
X34806005Y18574090D01*
X35058798Y18450794D01*
X35326281Y18363885D01*
X35326283Y18363884D01*
X35326285Y18363884D01*
X35326287Y18363883D01*
X35326290Y18363883D01*
X35603263Y18315045D01*
X35603279Y18315043D01*
X35884356Y18305228D01*
X35884357Y18305228D01*
X36164075Y18334628D01*
X36436978Y18402670D01*
X36436979Y18402670D01*
X36436985Y18402672D01*
X36697755Y18508030D01*
X36697757Y18508031D01*
X36848647Y18595148D01*
X36941333Y18648660D01*
X37162967Y18821820D01*
X37358346Y19024140D01*
X37523665Y19251683D01*
X37523667Y19251686D01*
X37523669Y19251689D01*
X37655703Y19500010D01*
X37655707Y19500017D01*
X37703195Y19630487D01*
X37732269Y19710369D01*
X37764586Y19745637D01*
X37812376Y19747724D01*
X37847644Y19715407D01*
X37853500Y19688993D01*
X37853500Y3083869D01*
X37835194Y3039675D01*
X37791000Y3021369D01*
X37746806Y3039675D01*
X37739033Y3049146D01*
X37636811Y3202133D01*
X37492133Y3346811D01*
X37322009Y3460484D01*
X37132978Y3538784D01*
X36932303Y3578700D01*
X36727697Y3578700D01*
X36527022Y3538784D01*
X36527020Y3538783D01*
X36346948Y3464194D01*
X36337991Y3460484D01*
X36167867Y3346811D01*
X36023189Y3202133D01*
X36001965Y3170370D01*
X35962194Y3143795D01*
X35915277Y3153127D01*
X35888701Y3192900D01*
X35887500Y3205094D01*
X35887500Y11473115D01*
X35887499Y11473118D01*
X35874217Y11522687D01*
X35865181Y11556411D01*
X35822065Y11631090D01*
X35665736Y11787417D01*
X35647432Y11831608D01*
X35649561Y11847781D01*
X35652550Y11858936D01*
X35652550Y12017064D01*
X35611623Y12169804D01*
X35532560Y12306746D01*
X35420746Y12418560D01*
X35283804Y12497623D01*
X35274129Y12500215D01*
X35227799Y12512630D01*
X35189848Y12541750D01*
X35183605Y12589176D01*
X35212725Y12627127D01*
X35227799Y12633370D01*
X35283800Y12648375D01*
X35283803Y12648376D01*
X35380569Y12704244D01*
X35420746Y12727440D01*
X35420747Y12727441D01*
X35420751Y12727444D01*
X35532555Y12839248D01*
X35532558Y12839252D01*
X35532560Y12839254D01*
X35611623Y12976196D01*
X35652550Y13128936D01*
X35652550Y13287064D01*
X35611623Y13439804D01*
X35532560Y13576746D01*
X35420746Y13688560D01*
X35283804Y13767623D01*
X35131064Y13808550D01*
X34972936Y13808550D01*
X34972933Y13808549D01*
X34972931Y13808549D01*
X34932537Y13797725D01*
X34820196Y13767623D01*
X34683254Y13688560D01*
X34683252Y13688558D01*
X34683248Y13688555D01*
X34571444Y13576751D01*
X34571441Y13576747D01*
X34492376Y13439803D01*
X34492376Y13439801D01*
X34451450Y13287068D01*
X34451450Y13128932D01*
X34454438Y13117780D01*
X34448190Y13070354D01*
X34438260Y13057415D01*
X34146060Y12765215D01*
X34085085Y12704240D01*
X34054777Y12651745D01*
X34041968Y12629559D01*
X34041968Y12629557D01*
X34019650Y12546271D01*
X34019650Y11602915D01*
X34041968Y11519629D01*
X34041968Y11519627D01*
X34085086Y11444946D01*
X34085089Y11444942D01*
X34452194Y11077838D01*
X34470500Y11033644D01*
X34470500Y4825993D01*
X34452194Y4781799D01*
X32945910Y3275515D01*
X32884935Y3214540D01*
X32869897Y3188493D01*
X32841818Y3139859D01*
X32841818Y3139857D01*
X32819500Y3056571D01*
X32819500Y2986461D01*
X32801194Y2942267D01*
X32757000Y2923961D01*
X32712806Y2942267D01*
X32699258Y2962543D01*
X32680642Y3007486D01*
X32670484Y3032009D01*
X32556811Y3202133D01*
X32412133Y3346811D01*
X32242009Y3460484D01*
X32116078Y3512646D01*
X32082258Y3546468D01*
X32077500Y3570386D01*
X32077500Y3997365D01*
X32077499Y3997371D01*
X32070868Y4022115D01*
X32055181Y4080660D01*
X32012065Y4155340D01*
X31951090Y4216315D01*
X26157987Y10009416D01*
X26139682Y10053609D01*
X26141811Y10069781D01*
X26144800Y10080936D01*
X26144800Y10239064D01*
X26103873Y10391804D01*
X26024810Y10528746D01*
X25912996Y10640560D01*
X25776054Y10719623D01*
X25623314Y10760550D01*
X25465186Y10760550D01*
X25465183Y10760549D01*
X25465181Y10760549D01*
X25405920Y10744669D01*
X25312446Y10719623D01*
X25260648Y10689717D01*
X25213224Y10683475D01*
X25175273Y10712595D01*
X25166900Y10743845D01*
X25166900Y11787726D01*
X25185206Y11831920D01*
X29234827Y15881541D01*
X29279021Y15899847D01*
X29298333Y15896788D01*
X29337284Y15884132D01*
X29337294Y15884130D01*
X29538248Y15852301D01*
X29538260Y15852300D01*
X29538262Y15852300D01*
X29538264Y15852300D01*
X29741736Y15852300D01*
X29741738Y15852300D01*
X29741739Y15852300D01*
X29741751Y15852301D01*
X29942705Y15884130D01*
X29942706Y15884130D01*
X30136222Y15947007D01*
X30136230Y15947011D01*
X30317524Y16039385D01*
X30482136Y16158983D01*
X30482144Y16158990D01*
X30626009Y16302855D01*
X30626016Y16302863D01*
X30745614Y16467475D01*
X30754492Y16484898D01*
X30837992Y16648776D01*
X30900869Y16842292D01*
X30932700Y17043262D01*
X30932700Y17246738D01*
X30900869Y17447708D01*
X30837992Y17641224D01*
X30745616Y17822522D01*
X30626016Y17987137D01*
X30482137Y18131016D01*
X30317522Y18250616D01*
X30136224Y18342992D01*
X29942708Y18405869D01*
X29741738Y18437700D01*
X29538262Y18437700D01*
X29538254Y18437698D01*
X29538248Y18437698D01*
X29456459Y18424743D01*
X29337292Y18405869D01*
X29143776Y18342992D01*
X28962478Y18250616D01*
X28962475Y18250614D01*
X28797863Y18131016D01*
X28797855Y18131009D01*
X28653990Y17987144D01*
X28653983Y17987136D01*
X28534385Y17822524D01*
X28442011Y17641230D01*
X28442007Y17641222D01*
X28379130Y17447706D01*
X28379130Y17447705D01*
X28347301Y17246751D01*
X28347300Y17246735D01*
X28347300Y17043264D01*
X28347301Y17043248D01*
X28379130Y16842294D01*
X28379132Y16842284D01*
X28391788Y16803333D01*
X28388034Y16755645D01*
X28376541Y16739827D01*
X24187355Y12550641D01*
X24074363Y12437650D01*
X24074356Y12437641D01*
X23994461Y12299260D01*
X23994457Y12299251D01*
X23953101Y12144906D01*
X23953100Y12144898D01*
X23953100Y3615154D01*
X23934794Y3570960D01*
X23902794Y3553855D01*
X23827022Y3538784D01*
X23827020Y3538783D01*
X23637993Y3460485D01*
X23637988Y3460482D01*
X23467867Y3346811D01*
X23323188Y3202132D01*
X23209517Y3032011D01*
X23209514Y3032006D01*
X23131216Y2842979D01*
X23131215Y2842976D01*
X23091300Y2642303D01*
X23091300Y2437696D01*
X23131215Y2237023D01*
X23131216Y2237020D01*
X23209514Y2047993D01*
X23209517Y2047988D01*
X23323188Y1877867D01*
X23323190Y1877865D01*
X23369862Y1831194D01*
X23388168Y1787000D01*
X23369862Y1742806D01*
X23325668Y1724500D01*
X22394332Y1724500D01*
X22350138Y1742806D01*
X22331832Y1787000D01*
X22350138Y1831194D01*
X22396811Y1877867D01*
X22510482Y2047988D01*
X22510485Y2047993D01*
X22588783Y2237020D01*
X22588784Y2237023D01*
X22606040Y2323777D01*
X22628700Y2437697D01*
X22628700Y2642303D01*
X22622257Y2674689D01*
X22631588Y2721604D01*
X22639362Y2731076D01*
X23577636Y3669349D01*
X23577643Y3669358D01*
X23631167Y3762063D01*
X23631167Y3762064D01*
X23657541Y3807745D01*
X23657542Y3807748D01*
X23698898Y3962093D01*
X23698900Y3962101D01*
X23698900Y13819726D01*
X23717206Y13863920D01*
X25734827Y15881541D01*
X25779021Y15899847D01*
X25798333Y15896788D01*
X25837284Y15884132D01*
X25837294Y15884130D01*
X26038248Y15852301D01*
X26038260Y15852300D01*
X26038262Y15852300D01*
X26038264Y15852300D01*
X26241736Y15852300D01*
X26241738Y15852300D01*
X26241739Y15852300D01*
X26241751Y15852301D01*
X26442705Y15884130D01*
X26442706Y15884130D01*
X26636222Y15947007D01*
X26636230Y15947011D01*
X26817524Y16039385D01*
X26982136Y16158983D01*
X26982144Y16158990D01*
X27126009Y16302855D01*
X27126016Y16302863D01*
X27245614Y16467475D01*
X27254492Y16484898D01*
X27337992Y16648776D01*
X27400869Y16842292D01*
X27432700Y17043262D01*
X27432700Y17246738D01*
X27400869Y17447708D01*
X27337992Y17641224D01*
X27245616Y17822522D01*
X27126016Y17987137D01*
X26982137Y18131016D01*
X26817522Y18250616D01*
X26636224Y18342992D01*
X26442708Y18405869D01*
X26241738Y18437700D01*
X26038262Y18437700D01*
X26038254Y18437698D01*
X26038248Y18437698D01*
X25956459Y18424743D01*
X25837292Y18405869D01*
X25643776Y18342992D01*
X25462478Y18250616D01*
X25462475Y18250614D01*
X25297863Y18131016D01*
X25297855Y18131009D01*
X25153990Y17987144D01*
X25153983Y17987136D01*
X25034385Y17822524D01*
X24942011Y17641230D01*
X24942007Y17641222D01*
X24879130Y17447706D01*
X24879130Y17447705D01*
X24847301Y17246751D01*
X24847300Y17246735D01*
X24847300Y17043264D01*
X24847301Y17043248D01*
X24879130Y16842294D01*
X24879132Y16842284D01*
X24891788Y16803333D01*
X24888034Y16755645D01*
X24876541Y16739827D01*
X22719355Y14582641D01*
X22606363Y14469650D01*
X22606356Y14469641D01*
X22526461Y14331260D01*
X22526457Y14331251D01*
X22485101Y14176906D01*
X22485100Y14176898D01*
X22485100Y4319274D01*
X22466794Y4275080D01*
X21781076Y3589362D01*
X21736882Y3571056D01*
X21724697Y3572255D01*
X21692303Y3578700D01*
X21487697Y3578700D01*
X21287022Y3538784D01*
X21287020Y3538783D01*
X21097993Y3460485D01*
X21097988Y3460482D01*
X20927867Y3346811D01*
X20783188Y3202132D01*
X20669517Y3032011D01*
X20669514Y3032006D01*
X20591216Y2842979D01*
X20591215Y2842976D01*
X20566500Y2718719D01*
X20551300Y2642303D01*
X20551300Y2437697D01*
X20562646Y2380654D01*
X20564628Y2370693D01*
X20555296Y2323777D01*
X20515522Y2297201D01*
X20503329Y2296000D01*
X20136671Y2296000D01*
X20092477Y2314306D01*
X20074171Y2358500D01*
X20075372Y2370693D01*
X20088700Y2437697D01*
X20088700Y2642303D01*
X20048784Y2842978D01*
X19970484Y3032009D01*
X19865923Y3188495D01*
X19856592Y3235409D01*
X19873697Y3267410D01*
X22075636Y5469348D01*
X22075639Y5469352D01*
X22075641Y5469354D01*
X22155541Y5607745D01*
X22171436Y5667064D01*
X22196898Y5762092D01*
X22196900Y5762100D01*
X22196900Y16384898D01*
X22196899Y16384904D01*
X22174773Y16467477D01*
X22174773Y16467478D01*
X22155541Y16539255D01*
X22075641Y16677646D01*
X22013458Y16739827D01*
X21995152Y16784021D01*
X21998211Y16803336D01*
X22010869Y16842293D01*
X22010869Y16842294D01*
X22010870Y16842296D01*
X22042700Y17043262D01*
X22042700Y17246738D01*
X22010869Y17447708D01*
X21947992Y17641224D01*
X21855616Y17822522D01*
X21736016Y17987137D01*
X21592137Y18131016D01*
X21427522Y18250616D01*
X21246224Y18342992D01*
X21052708Y18405869D01*
X20851738Y18437700D01*
X20648262Y18437700D01*
X20648254Y18437698D01*
X20648248Y18437698D01*
X20566459Y18424743D01*
X20447292Y18405869D01*
X20253776Y18342992D01*
X20072478Y18250616D01*
X20072475Y18250614D01*
X19907863Y18131016D01*
X19907855Y18131009D01*
X19763990Y17987144D01*
X19763983Y17987136D01*
X19644385Y17822524D01*
X19552011Y17641230D01*
X19552007Y17641222D01*
X19489130Y17447706D01*
X19489130Y17447705D01*
X19457301Y17246751D01*
X19457300Y17246735D01*
X19457300Y17043264D01*
X19457301Y17043248D01*
X19489130Y16842294D01*
X19489130Y16842293D01*
X19552007Y16648777D01*
X19552011Y16648769D01*
X19644385Y16467475D01*
X19763983Y16302863D01*
X19763990Y16302855D01*
X19907855Y16158990D01*
X19907863Y16158983D01*
X20072475Y16039385D01*
X20253769Y15947011D01*
X20253777Y15947007D01*
X20447293Y15884130D01*
X20648248Y15852301D01*
X20648260Y15852300D01*
X20648262Y15852300D01*
X20648264Y15852300D01*
X20851739Y15852300D01*
X20910823Y15861658D01*
X20957337Y15850490D01*
X20982331Y15809704D01*
X20983100Y15799927D01*
X20983100Y6119274D01*
X20964794Y6075080D01*
X18677355Y3787641D01*
X18564363Y3674650D01*
X18564356Y3674641D01*
X18484461Y3536260D01*
X18484458Y3536254D01*
X18449780Y3406834D01*
X18424133Y3371043D01*
X18387867Y3346811D01*
X18243188Y3202132D01*
X18129517Y3032011D01*
X18129514Y3032006D01*
X18051216Y2842979D01*
X18051215Y2842976D01*
X18011300Y2642303D01*
X18011300Y2437696D01*
X18051215Y2237023D01*
X18051216Y2237020D01*
X18079109Y2169683D01*
X18079110Y2121847D01*
X18045285Y2088023D01*
X18005190Y2085395D01*
X17859064Y2124550D01*
X17700936Y2124550D01*
X17700933Y2124549D01*
X17700931Y2124549D01*
X17615092Y2101548D01*
X17554809Y2085395D01*
X17507383Y2091638D01*
X17478263Y2129588D01*
X17480891Y2169683D01*
X17508783Y2237020D01*
X17508784Y2237023D01*
X17526040Y2323777D01*
X17548700Y2437697D01*
X17548700Y2642303D01*
X17508784Y2842978D01*
X17430484Y3032009D01*
X17316811Y3202133D01*
X17172133Y3346811D01*
X17144676Y3365156D01*
X17118101Y3404929D01*
X17116900Y3417123D01*
X17116900Y15789800D01*
X17135206Y15833994D01*
X17179400Y15852300D01*
X17351736Y15852300D01*
X17351738Y15852300D01*
X17351739Y15852300D01*
X17351751Y15852301D01*
X17552705Y15884130D01*
X17552706Y15884130D01*
X17746222Y15947007D01*
X17746230Y15947011D01*
X17927524Y16039385D01*
X18092136Y16158983D01*
X18092144Y16158990D01*
X18236009Y16302855D01*
X18236016Y16302863D01*
X18355614Y16467475D01*
X18364492Y16484898D01*
X18447992Y16648776D01*
X18510869Y16842292D01*
X18542700Y17043262D01*
X18542700Y17246738D01*
X18510869Y17447708D01*
X18447992Y17641224D01*
X18355616Y17822522D01*
X18236016Y17987137D01*
X18092137Y18131016D01*
X17927522Y18250616D01*
X17746224Y18342992D01*
X17552708Y18405869D01*
X17351738Y18437700D01*
X17148262Y18437700D01*
X17148254Y18437698D01*
X17148248Y18437698D01*
X17066459Y18424743D01*
X16947292Y18405869D01*
X16753776Y18342992D01*
X16572478Y18250616D01*
X16572475Y18250614D01*
X16407863Y18131016D01*
X16407855Y18131009D01*
X16263990Y17987144D01*
X16263983Y17987136D01*
X16144385Y17822524D01*
X16052011Y17641230D01*
X16052007Y17641222D01*
X15989130Y17447706D01*
X15989130Y17447705D01*
X15957301Y17246751D01*
X15957300Y17246735D01*
X15957300Y17043264D01*
X15957301Y17043250D01*
X15989130Y16842295D01*
X15989133Y16842284D01*
X16006658Y16788346D01*
X16002905Y16740658D01*
X16001344Y16737783D01*
X15944458Y16639254D01*
X15944457Y16639251D01*
X15903101Y16484906D01*
X15903100Y16484898D01*
X15903100Y11127315D01*
X15884794Y11083121D01*
X15840600Y11064815D01*
X15796406Y11083121D01*
X15786474Y11096063D01*
X15784060Y11100246D01*
X15672246Y11212060D01*
X15535304Y11291123D01*
X15382564Y11332050D01*
X15224436Y11332050D01*
X15224433Y11332049D01*
X15224431Y11332049D01*
X15185425Y11321597D01*
X15071696Y11291123D01*
X14934754Y11212060D01*
X14934752Y11212058D01*
X14934748Y11212055D01*
X14822944Y11100251D01*
X14822941Y11100247D01*
X14822940Y11100246D01*
X14813053Y11083121D01*
X14743876Y10963303D01*
X14743876Y10963301D01*
X14702950Y10810568D01*
X14702950Y10652431D01*
X14743876Y10499698D01*
X14743876Y10499696D01*
X14822941Y10362752D01*
X14822944Y10362748D01*
X14894194Y10291499D01*
X14912500Y10247305D01*
X14912500Y4223457D01*
X14894194Y4179263D01*
X14881248Y4169330D01*
X14871254Y4163560D01*
X14759444Y4051751D01*
X14759441Y4051748D01*
X14759440Y4051746D01*
X14693525Y3937577D01*
X14655576Y3908459D01*
X14608150Y3914702D01*
X14579030Y3952653D01*
X14576900Y3968829D01*
X14576900Y15114898D01*
X14576898Y15114906D01*
X14563168Y15166146D01*
X14535541Y15269255D01*
X14455641Y15407645D01*
X14342645Y15520641D01*
X13123456Y16739828D01*
X13105151Y16784021D01*
X13108211Y16803336D01*
X13120866Y16842280D01*
X13120867Y16842286D01*
X13120869Y16842292D01*
X13152700Y17043262D01*
X13152700Y17246738D01*
X13120869Y17447708D01*
X13057992Y17641224D01*
X12965616Y17822522D01*
X12846016Y17987137D01*
X12702137Y18131016D01*
X12537522Y18250616D01*
X12356224Y18342992D01*
X12162708Y18405869D01*
X11961738Y18437700D01*
X11758262Y18437700D01*
X11758254Y18437698D01*
X11758248Y18437698D01*
X11676459Y18424743D01*
X11557292Y18405869D01*
X11363776Y18342992D01*
X11182478Y18250616D01*
X11182475Y18250614D01*
X11017863Y18131016D01*
X11017855Y18131009D01*
X10873990Y17987144D01*
X10873983Y17987136D01*
X10754385Y17822524D01*
X10662011Y17641230D01*
X10662007Y17641222D01*
X10599130Y17447706D01*
X10599130Y17447705D01*
X10567301Y17246751D01*
X10567300Y17246735D01*
X10567300Y17043264D01*
X10567301Y17043248D01*
X10599130Y16842294D01*
X10599130Y16842293D01*
X10662007Y16648777D01*
X10662011Y16648769D01*
X10754385Y16467475D01*
X10873983Y16302863D01*
X10873990Y16302855D01*
X11017855Y16158990D01*
X11017863Y16158983D01*
X11182475Y16039385D01*
X11363769Y15947011D01*
X11363777Y15947007D01*
X11557293Y15884130D01*
X11758248Y15852301D01*
X11758260Y15852300D01*
X11758262Y15852300D01*
X11758264Y15852300D01*
X11961736Y15852300D01*
X11961738Y15852300D01*
X11961739Y15852300D01*
X11961751Y15852301D01*
X12162705Y15884130D01*
X12162710Y15884131D01*
X12201664Y15896788D01*
X12249352Y15893035D01*
X12265171Y15881541D01*
X13344794Y14801919D01*
X13363100Y14757725D01*
X13363100Y3417123D01*
X13344794Y3372929D01*
X13335323Y3365156D01*
X13307867Y3346811D01*
X13163188Y3202132D01*
X13049517Y3032011D01*
X13049514Y3032006D01*
X12971216Y2842979D01*
X12971215Y2842976D01*
X12931300Y2642303D01*
X12931300Y2437696D01*
X12971215Y2237023D01*
X12971216Y2237020D01*
X13049514Y2047993D01*
X13049517Y2047988D01*
X13163188Y1877867D01*
X13307867Y1733188D01*
X13339628Y1711967D01*
X13366204Y1672193D01*
X13356872Y1625277D01*
X13317098Y1598701D01*
X13304905Y1597500D01*
X12095095Y1597500D01*
X12050901Y1615806D01*
X12032595Y1660000D01*
X12050901Y1704194D01*
X12060372Y1711967D01*
X12092132Y1733188D01*
X12236811Y1877867D01*
X12350482Y2047988D01*
X12350485Y2047993D01*
X12428783Y2237020D01*
X12428784Y2237023D01*
X12446040Y2323777D01*
X12468700Y2437697D01*
X12468700Y2642303D01*
X12428784Y2842978D01*
X12350484Y3032009D01*
X12236811Y3202133D01*
X12092133Y3346811D01*
X12064676Y3365156D01*
X12038101Y3404929D01*
X12036900Y3417123D01*
X12036900Y14154898D01*
X12036898Y14154906D01*
X12031005Y14176898D01*
X11995541Y14309255D01*
X11915641Y14447645D01*
X11802645Y14560641D01*
X9623456Y16739828D01*
X9605151Y16784021D01*
X9608211Y16803336D01*
X9620866Y16842280D01*
X9620867Y16842286D01*
X9620869Y16842292D01*
X9652700Y17043262D01*
X9652700Y17246738D01*
X9620869Y17447708D01*
X9557992Y17641224D01*
X9465616Y17822522D01*
X9346016Y17987137D01*
X9202137Y18131016D01*
X9037522Y18250616D01*
X8856224Y18342992D01*
X8662708Y18405869D01*
X8461738Y18437700D01*
X8258262Y18437700D01*
X8258254Y18437698D01*
X8258248Y18437698D01*
X8176459Y18424743D01*
X8057292Y18405869D01*
X7863776Y18342992D01*
X7682478Y18250616D01*
X7682475Y18250614D01*
X7517863Y18131016D01*
X7517855Y18131009D01*
X7373990Y17987144D01*
X7373983Y17987136D01*
X7254385Y17822524D01*
X7162011Y17641230D01*
X7162007Y17641222D01*
X7099130Y17447706D01*
X7099130Y17447705D01*
X7067301Y17246751D01*
X7067300Y17246735D01*
X7067300Y17043264D01*
X7067301Y17043248D01*
X7099130Y16842294D01*
X7099130Y16842293D01*
X7162007Y16648777D01*
X7162011Y16648769D01*
X7254385Y16467475D01*
X7373983Y16302863D01*
X7373990Y16302855D01*
X7517855Y16158990D01*
X7517863Y16158983D01*
X7682475Y16039385D01*
X7863769Y15947011D01*
X7863777Y15947007D01*
X8057293Y15884130D01*
X8258248Y15852301D01*
X8258260Y15852300D01*
X8258262Y15852300D01*
X8258264Y15852300D01*
X8461736Y15852300D01*
X8461738Y15852300D01*
X8461739Y15852300D01*
X8461751Y15852301D01*
X8662705Y15884130D01*
X8662710Y15884131D01*
X8701664Y15896788D01*
X8749352Y15893035D01*
X8765171Y15881541D01*
X10804794Y13841919D01*
X10823100Y13797725D01*
X10823100Y3417123D01*
X10804794Y3372929D01*
X10795323Y3365156D01*
X10767867Y3346811D01*
X10623188Y3202132D01*
X10509517Y3032011D01*
X10509514Y3032006D01*
X10480742Y2962543D01*
X10446918Y2928718D01*
X10399082Y2928719D01*
X10365257Y2962543D01*
X10360500Y2986461D01*
X10360500Y3218115D01*
X10360499Y3218121D01*
X10347291Y3267410D01*
X10338181Y3301410D01*
X10295065Y3376090D01*
X10234090Y3437065D01*
X9599090Y4072065D01*
X9524410Y4115181D01*
X9473437Y4128839D01*
X9441121Y4137499D01*
X9441116Y4137500D01*
X7663116Y4137500D01*
X7576884Y4137500D01*
X7576878Y4137499D01*
X7532619Y4125639D01*
X7493590Y4115181D01*
X7418910Y4072065D01*
X7418905Y4072060D01*
X6847015Y3500170D01*
X6802821Y3481864D01*
X6778907Y3486621D01*
X6652978Y3538784D01*
X6452303Y3578700D01*
X6247697Y3578700D01*
X6047022Y3538784D01*
X6047020Y3538783D01*
X5857993Y3460485D01*
X5857988Y3460482D01*
X5687867Y3346811D01*
X5543188Y3202132D01*
X5429517Y3032011D01*
X5429514Y3032006D01*
X5351216Y2842979D01*
X5351215Y2842976D01*
X5311300Y2642303D01*
X5311300Y2437696D01*
X5351215Y2237023D01*
X5351216Y2237020D01*
X5429514Y2047993D01*
X5429517Y2047988D01*
X5543188Y1877867D01*
X5687867Y1733188D01*
X5857988Y1619517D01*
X5857993Y1619514D01*
X6047020Y1541216D01*
X6047023Y1541215D01*
X6247696Y1501300D01*
X6247697Y1501300D01*
X6452303Y1501300D01*
X6652976Y1541215D01*
X6652979Y1541216D01*
X6842006Y1619514D01*
X6842011Y1619517D01*
X7012132Y1733188D01*
X7156811Y1877867D01*
X7270482Y2047988D01*
X7270485Y2047993D01*
X7348783Y2237020D01*
X7348784Y2237023D01*
X7366040Y2323777D01*
X7388700Y2437697D01*
X7388700Y2642303D01*
X7348784Y2842978D01*
X7296621Y2968905D01*
X7296621Y3016738D01*
X7310170Y3037015D01*
X7737349Y3464194D01*
X7781543Y3482500D01*
X8224905Y3482500D01*
X8269099Y3464194D01*
X8287405Y3420000D01*
X8269099Y3375806D01*
X8259628Y3368033D01*
X8227867Y3346811D01*
X8083188Y3202132D01*
X7969517Y3032011D01*
X7969514Y3032006D01*
X7891216Y2842979D01*
X7891215Y2842976D01*
X7851300Y2642303D01*
X7851300Y2437696D01*
X7891215Y2237023D01*
X7891216Y2237020D01*
X7969514Y2047993D01*
X7969517Y2047988D01*
X8083188Y1877867D01*
X8227867Y1733188D01*
X8397988Y1619517D01*
X8397993Y1619514D01*
X8587022Y1541215D01*
X8664056Y1525892D01*
X8696056Y1508787D01*
X9597651Y607194D01*
X9615957Y563000D01*
X9597651Y518806D01*
X9553457Y500500D01*
X2542044Y500500D01*
X2537956Y500634D01*
X2487339Y503951D01*
X2277877Y517680D01*
X2269777Y518746D01*
X2016141Y569197D01*
X2008274Y571305D01*
X1763395Y654431D01*
X1755850Y657556D01*
X1523913Y771934D01*
X1516850Y776012D01*
X1301827Y919686D01*
X1295358Y924650D01*
X1100920Y1095168D01*
X1095168Y1100920D01*
X924650Y1295358D01*
X919686Y1301827D01*
X794870Y1488627D01*
X785539Y1535542D01*
X812115Y1575316D01*
X859031Y1584648D01*
X870756Y1581091D01*
X967020Y1541216D01*
X967023Y1541215D01*
X1167696Y1501300D01*
X1167697Y1501300D01*
X1372303Y1501300D01*
X1572976Y1541215D01*
X1572979Y1541216D01*
X1762006Y1619514D01*
X1762011Y1619517D01*
X1932132Y1733188D01*
X2076811Y1877867D01*
X2190482Y2047988D01*
X2190485Y2047993D01*
X2268783Y2237020D01*
X2268784Y2237023D01*
X2304956Y2418874D01*
X2305209Y2420147D01*
X2308700Y2437697D01*
X2308700Y2642303D01*
X2298815Y2692000D01*
X2677636Y2692000D01*
X3333091Y2692000D01*
X3310000Y2605826D01*
X3310000Y2474174D01*
X3333091Y2388000D01*
X2677637Y2388000D01*
X2677636Y2387999D01*
X2695924Y2272536D01*
X2695924Y2272535D01*
X2751481Y2101548D01*
X2751482Y2101545D01*
X2833106Y1941352D01*
X2938778Y1795907D01*
X2938785Y1795899D01*
X3065899Y1668785D01*
X3065907Y1668778D01*
X3211352Y1563106D01*
X3371545Y1481482D01*
X3371548Y1481481D01*
X3542535Y1425924D01*
X3542534Y1425924D01*
X3657999Y1407635D01*
X3658000Y1407635D01*
X3658000Y2063090D01*
X3744174Y2040000D01*
X3875826Y2040000D01*
X3962000Y2063090D01*
X3962000Y1407635D01*
X4077465Y1425924D01*
X4248451Y1481481D01*
X4248454Y1481482D01*
X4408647Y1563106D01*
X4554092Y1668778D01*
X4554100Y1668785D01*
X4681214Y1795899D01*
X4681221Y1795907D01*
X4786893Y1941352D01*
X4868517Y2101545D01*
X4868518Y2101548D01*
X4924075Y2272535D01*
X4924075Y2272536D01*
X4942363Y2387999D01*
X4942363Y2388000D01*
X4286909Y2388000D01*
X4310000Y2474174D01*
X4310000Y2605826D01*
X4286909Y2692000D01*
X4942363Y2692000D01*
X4924075Y2807463D01*
X4924075Y2807464D01*
X4868518Y2978451D01*
X4868517Y2978454D01*
X4786893Y3138647D01*
X4681221Y3284092D01*
X4681214Y3284100D01*
X4554100Y3411214D01*
X4554092Y3411221D01*
X4408647Y3516893D01*
X4248454Y3598517D01*
X4248451Y3598518D01*
X4077464Y3654075D01*
X3962000Y3672363D01*
X3962000Y3016909D01*
X3875826Y3040000D01*
X3744174Y3040000D01*
X3658000Y3016909D01*
X3658000Y3672363D01*
X3657999Y3672363D01*
X3542536Y3654075D01*
X3542535Y3654075D01*
X3371548Y3598518D01*
X3371545Y3598517D01*
X3211352Y3516893D01*
X3065907Y3411221D01*
X3065899Y3411214D01*
X2938785Y3284100D01*
X2938778Y3284092D01*
X2833106Y3138647D01*
X2751482Y2978454D01*
X2751481Y2978451D01*
X2695924Y2807464D01*
X2695924Y2807463D01*
X2677636Y2692000D01*
X2298815Y2692000D01*
X2268784Y2842978D01*
X2190484Y3032009D01*
X2076811Y3202133D01*
X1932133Y3346811D01*
X1762009Y3460484D01*
X1572978Y3538784D01*
X1372303Y3578700D01*
X1167697Y3578700D01*
X967022Y3538784D01*
X967020Y3538783D01*
X777993Y3460485D01*
X777988Y3460482D01*
X607867Y3346811D01*
X607194Y3346138D01*
X606897Y3346015D01*
X605495Y3344864D01*
X605145Y3345289D01*
X563000Y3327832D01*
X518806Y3346138D01*
X500500Y3390332D01*
X500500Y19691731D01*
X518806Y19735925D01*
X563000Y19754231D01*
X607194Y19735925D01*
X623078Y19708959D01*
X628804Y19688993D01*
X645579Y19630489D01*
X759979Y19373541D01*
X909023Y19135023D01*
X1089810Y18919569D01*
X1089814Y18919564D01*
X1298823Y18731372D01*
X1298822Y18731372D01*
X1531996Y18574095D01*
X1532005Y18574090D01*
X1784798Y18450794D01*
X2052281Y18363885D01*
X2052283Y18363884D01*
X2052285Y18363884D01*
X2052287Y18363883D01*
X2052290Y18363883D01*
X2329263Y18315045D01*
X2329279Y18315043D01*
X2610356Y18305228D01*
X2610357Y18305228D01*
X2890075Y18334628D01*
X3162978Y18402670D01*
X3162979Y18402670D01*
X3162985Y18402672D01*
X3423755Y18508030D01*
X3423757Y18508031D01*
X3574647Y18595148D01*
X5438299Y18595148D01*
X5438299Y18591302D01*
X5438299Y18485028D01*
X5438300Y18485010D01*
X5438300Y15806192D01*
X5438299Y15806179D01*
X5438299Y15694847D01*
X5452488Y15641900D01*
X5452488Y15641899D01*
X5465809Y15592180D01*
X5465810Y15592177D01*
X5518960Y15500120D01*
X5518963Y15500117D01*
X5594122Y15424959D01*
X6054994Y14964087D01*
X6073300Y14919893D01*
X6073300Y12282494D01*
X6054994Y12238300D01*
X5996440Y12179746D01*
X5976325Y12144906D01*
X5917376Y12042803D01*
X5917376Y12042801D01*
X5876450Y11890068D01*
X5876450Y11731931D01*
X5917376Y11579198D01*
X5917376Y11579196D01*
X5996441Y11442252D01*
X5996444Y11442248D01*
X6108248Y11330444D01*
X6108252Y11330441D01*
X6245197Y11251376D01*
X6397931Y11210450D01*
X6397936Y11210450D01*
X6556068Y11210450D01*
X6708801Y11251376D01*
X6708803Y11251376D01*
X6830429Y11321597D01*
X6845746Y11330440D01*
X6845747Y11330441D01*
X6845751Y11330444D01*
X6957555Y11442248D01*
X6957558Y11442252D01*
X6957560Y11442254D01*
X7036623Y11579196D01*
X7077550Y11731936D01*
X7077550Y11890064D01*
X7036623Y12042804D01*
X6957560Y12179746D01*
X6899005Y12238300D01*
X6880700Y12282493D01*
X6880700Y15056009D01*
X6880701Y15056027D01*
X6880701Y15166146D01*
X6880699Y15166154D01*
X6853190Y15268821D01*
X6853189Y15268823D01*
X6852937Y15269260D01*
X6809612Y15344300D01*
X6800041Y15360878D01*
X6724878Y15436041D01*
X6724876Y15436041D01*
X6719736Y15441182D01*
X6719731Y15441185D01*
X6264005Y15896912D01*
X6245700Y15941105D01*
X6245700Y18348894D01*
X6264006Y18393088D01*
X7006912Y19135994D01*
X7051106Y19154300D01*
X31048894Y19154300D01*
X31093088Y19135994D01*
X32343994Y17885088D01*
X32362300Y17840894D01*
X32362300Y12131106D01*
X32343994Y12086912D01*
X31416938Y11159856D01*
X31372744Y11141550D01*
X31289936Y11141550D01*
X31289933Y11141549D01*
X31289931Y11141549D01*
X31236811Y11127315D01*
X31137196Y11100623D01*
X31000254Y11021560D01*
X31000252Y11021558D01*
X31000248Y11021555D01*
X30888444Y10909751D01*
X30888441Y10909747D01*
X30809376Y10772803D01*
X30809376Y10772801D01*
X30768450Y10620068D01*
X30768450Y10461931D01*
X30809376Y10309198D01*
X30809376Y10309196D01*
X30888441Y10172252D01*
X30888444Y10172248D01*
X31000248Y10060444D01*
X31000252Y10060441D01*
X31137197Y9981376D01*
X31289931Y9940450D01*
X31289936Y9940450D01*
X31448068Y9940450D01*
X31600801Y9981376D01*
X31600803Y9981376D01*
X31725914Y10053609D01*
X31737746Y10060440D01*
X31737747Y10060441D01*
X31737751Y10060444D01*
X31849555Y10172248D01*
X31849558Y10172252D01*
X31849560Y10172254D01*
X31928623Y10309196D01*
X31969550Y10461936D01*
X31969550Y10544744D01*
X31987856Y10588938D01*
X33011689Y11612771D01*
X33011700Y11612781D01*
X33089039Y11690120D01*
X33089041Y11690122D01*
X33142189Y11782177D01*
X33150070Y11811590D01*
X33162756Y11858936D01*
X33169699Y11884846D01*
X33169700Y11884852D01*
X33169700Y18087146D01*
X33169699Y18087150D01*
X33155994Y18138299D01*
X33142189Y18189823D01*
X33089041Y18281878D01*
X33013878Y18357041D01*
X33013876Y18357041D01*
X33008736Y18362182D01*
X33008731Y18362186D01*
X31570186Y19800731D01*
X31570182Y19800736D01*
X31565041Y19805876D01*
X31565041Y19805878D01*
X31489878Y19881041D01*
X31397823Y19934189D01*
X31390261Y19936214D01*
X31376125Y19940002D01*
X31376120Y19940003D01*
X31295148Y19961701D01*
X31188852Y19961701D01*
X31185027Y19961701D01*
X31185011Y19961700D01*
X6914989Y19961700D01*
X6914973Y19961701D01*
X6911148Y19961701D01*
X6804852Y19961701D01*
X6723875Y19940002D01*
X6723874Y19940002D01*
X6702183Y19934191D01*
X6702181Y19934190D01*
X6702177Y19934189D01*
X6610122Y19881041D01*
X6610120Y19881039D01*
X6532776Y19803695D01*
X6532771Y19803689D01*
X5597691Y18868609D01*
X5597677Y18868597D01*
X5518963Y18789883D01*
X5518960Y18789879D01*
X5518959Y18789878D01*
X5465811Y18697823D01*
X5465811Y18697822D01*
X5438299Y18595148D01*
X3574647Y18595148D01*
X3667333Y18648660D01*
X3888967Y18821820D01*
X4084346Y19024140D01*
X4249665Y19251683D01*
X4249667Y19251686D01*
X4249669Y19251689D01*
X4381703Y19500010D01*
X4381707Y19500017D01*
X4381708Y19500019D01*
X4477904Y19764315D01*
X4536380Y20039427D01*
X4556000Y20320000D01*
X4536380Y20600573D01*
X4477904Y20875685D01*
X4381708Y21139981D01*
X4249665Y21388317D01*
X4084346Y21615860D01*
X3888967Y21818180D01*
X3667333Y21991340D01*
X3423756Y22131969D01*
X3162978Y22237330D01*
X3162968Y22237332D01*
X3162284Y22237555D01*
X3162160Y22237660D01*
X3160954Y22238148D01*
X3161116Y22238551D01*
X3125904Y22268615D01*
X3122141Y22316302D01*
X3153201Y22352682D01*
X3181586Y22359500D01*
X35188305Y22359500D01*
X35232499Y22341194D01*
G37*
%TD.AperFunction*%
%TD*%
M02*
