%TF.GenerationSoftware,KiCad,Pcbnew,10.99.0-3758-g2f18d95be7*%
%TF.CreationDate,2026-09-21T20:12:30+01:00*%
%TF.ProjectId,kicad_file,6b696361-645f-4666-996c-652e6b696361,rev?*%
%TF.SameCoordinates,Original*%
%TF.FileFunction,Soldermask,Bot*%
%TF.FilePolarity,Negative*%
%FSLAX46Y46*%
G04 Gerber Fmt 4.6, Leading zero omitted, Abs format (unit mm)*
G04 Created by KiCad (PCBNEW 10.99.0-3758-g2f18d95be7) date 2026-09-21 20:12:30*
%MOMM*%
%LPD*%
G01*
G04 APERTURE LIST*
G04 Aperture macros list*
%AMRoundRect*
0 Rectangle with rounded corners*
0 $1 Rounding radius*
0 $2 $3 $4 $5 $6 $7 $8 $9 X,Y pos of 4 corners*
0 Add a 4 corners polygon primitive as box body*
4,1,4,$2,$3,$4,$5,$6,$7,$8,$9,$2,$3,0*
0 Add four circle primitives for the rounded corners*
1,1,$1+$1,$2,$3*
1,1,$1+$1,$4,$5*
1,1,$1+$1,$6,$7*
1,1,$1+$1,$8,$9*
0 Add four rect primitives between the rounded corners*
20,1,$1+$1,$2,$3,$4,$5,0*
20,1,$1+$1,$4,$5,$6,$7,0*
20,1,$1+$1,$6,$7,$8,$9,0*
20,1,$1+$1,$8,$9,$2,$3,0*%
%AMFreePoly0*
4,1,25,0.322745,0.717196,0.334868,0.706842,0.706842,0.334868,0.735349,0.278920,0.736600,0.263026,0.736600,-0.263026,0.717196,-0.322745,0.706842,-0.334868,0.334868,-0.706842,0.278920,-0.735349,0.263026,-0.736600,-0.263026,-0.736600,-0.322745,-0.717196,-0.334868,-0.706842,-0.706842,-0.334868,-0.735349,-0.278920,-0.736600,-0.263026,-0.736600,0.263026,-0.717196,0.322745,-0.706842,0.334868,
-0.334868,0.706842,-0.278920,0.735349,-0.263026,0.736600,0.263026,0.736600,0.322745,0.717196,0.322745,0.717196,$1*%
G04 Aperture macros list end*
%ADD10C,0.000000*%
%ADD11C,3.203200*%
%ADD12C,2.200000*%
%ADD13C,1.981200*%
%ADD14C,1.208000*%
%ADD15FreePoly0,90.000000*%
%ADD16FreePoly0,-90.000000*%
%ADD17RoundRect,0.101600X-1.206500X-1.206500X1.206500X-1.206500X1.206500X1.206500X-1.206500X1.206500X0*%
%ADD18RoundRect,0.101600X-0.150000X0.150000X-0.150000X-0.150000X0.150000X-0.150000X0.150000X0.150000X0*%
%ADD19RoundRect,0.101600X-1.900000X1.400000X-1.900000X-1.400000X1.900000X-1.400000X1.900000X1.400000X0*%
%ADD20RoundRect,0.101600X-0.800000X0.450000X-0.800000X-0.450000X0.800000X-0.450000X0.800000X0.450000X0*%
%ADD21RoundRect,0.101600X-0.400000X-0.450000X0.400000X-0.450000X0.400000X0.450000X-0.400000X0.450000X0*%
%ADD22RoundRect,0.101600X1.104900X-0.304800X1.104900X0.304800X-1.104900X0.304800X-1.104900X-0.304800X0*%
%ADD23RoundRect,0.101600X0.700000X0.500000X-0.700000X0.500000X-0.700000X-0.500000X0.700000X-0.500000X0*%
%ADD24RoundRect,0.101600X-0.290000X-0.600000X0.290000X-0.600000X0.290000X0.600000X-0.290000X0.600000X0*%
%ADD25RoundRect,0.101600X-1.000000X-1.000000X1.000000X-1.000000X1.000000X1.000000X-1.000000X1.000000X0*%
%ADD26RoundRect,0.101600X-0.735000X0.635000X-0.735000X-0.635000X0.735000X-0.635000X0.735000X0.635000X0*%
%ADD27RoundRect,0.101600X0.735000X-0.635000X0.735000X0.635000X-0.735000X0.635000X-0.735000X-0.635000X0*%
%ADD28RoundRect,0.101600X1.050000X-0.700000X1.050000X0.700000X-1.050000X0.700000X-1.050000X-0.700000X0*%
%ADD29RoundRect,0.101600X-0.300000X0.250000X-0.300000X-0.250000X0.300000X-0.250000X0.300000X0.250000X0*%
%ADD30RoundRect,0.101600X0.525000X0.450000X-0.525000X0.450000X-0.525000X-0.450000X0.525000X-0.450000X0*%
%ADD31RoundRect,0.101600X-0.450000X0.300000X-0.450000X-0.300000X0.450000X-0.300000X0.450000X0.300000X0*%
%ADD32RoundRect,0.101600X0.800000X-0.175000X0.800000X0.175000X-0.800000X0.175000X-0.800000X-0.175000X0*%
%ADD33RoundRect,0.101600X1.400000X0.500000X-1.400000X0.500000X-1.400000X-0.500000X1.400000X-0.500000X0*%
%ADD34RoundRect,0.101600X-0.600000X0.400000X-0.600000X-0.400000X0.600000X-0.400000X0.600000X0.400000X0*%
%ADD35RoundRect,0.101600X-0.650000X0.600000X-0.650000X-0.600000X0.650000X-0.600000X0.650000X0.600000X0*%
%ADD36RoundRect,0.101600X0.415000X-0.315000X0.415000X0.315000X-0.415000X0.315000X-0.415000X-0.315000X0*%
%ADD37RoundRect,0.101600X1.400000X-0.500000X1.400000X0.500000X-1.400000X0.500000X-1.400000X-0.500000X0*%
%ADD38RoundRect,0.736600X-0.000010X0.000010X-0.000010X-0.000010X0.000010X-0.000010X0.000010X0.000010X0*%
%ADD39RoundRect,0.101600X-0.609600X-1.117600X0.609600X-1.117600X0.609600X1.117600X-0.609600X1.117600X0*%
%ADD40RoundRect,0.101600X-1.800000X-1.100000X1.800000X-1.100000X1.800000X1.100000X-1.800000X1.100000X0*%
%ADD41RoundRect,0.101600X-0.965200X2.667000X-0.965200X-2.667000X0.965200X-2.667000X0.965200X2.667000X0*%
%ADD42RoundRect,0.101600X-0.275000X-0.600000X0.275000X-0.600000X0.275000X0.600000X-0.275000X0.600000X0*%
%ADD43RoundRect,0.101600X-0.900000X0.700000X-0.900000X-0.700000X0.900000X-0.700000X0.900000X0.700000X0*%
%ADD44RoundRect,0.101600X0.900000X0.600000X-0.900000X0.600000X-0.900000X-0.600000X0.900000X-0.600000X0*%
%ADD45RoundRect,0.101600X-0.571500X-0.127000X0.571500X-0.127000X0.571500X0.127000X-0.571500X0.127000X0*%
%ADD46RoundRect,0.101600X-0.127000X0.571500X-0.127000X-0.571500X0.127000X-0.571500X0.127000X0.571500X0*%
%ADD47RoundRect,0.101600X0.571500X0.127000X-0.571500X0.127000X-0.571500X-0.127000X0.571500X-0.127000X0*%
%ADD48RoundRect,0.101600X0.127000X-0.571500X0.127000X0.571500X-0.127000X0.571500X-0.127000X-0.571500X0*%
%ADD49RoundRect,0.101600X-0.175000X0.175000X-0.175000X-0.175000X0.175000X-0.175000X0.175000X0.175000X0*%
%ADD50RoundRect,0.101600X-1.200000X1.200000X-1.200000X-1.200000X1.200000X-1.200000X1.200000X1.200000X0*%
%ADD51RoundRect,0.101600X0.400000X0.125000X-0.400000X0.125000X-0.400000X-0.125000X0.400000X-0.125000X0*%
%ADD52RoundRect,0.101600X-0.125000X0.400000X-0.125000X-0.400000X0.125000X-0.400000X0.125000X0.400000X0*%
%ADD53RoundRect,0.101600X-0.400000X-0.125000X0.400000X-0.125000X0.400000X0.125000X-0.400000X0.125000X0*%
%ADD54RoundRect,0.101600X0.125000X-0.400000X0.125000X0.400000X-0.125000X0.400000X-0.125000X-0.400000X0*%
%ADD55RoundRect,0.101600X-0.200000X-0.375000X0.200000X-0.375000X0.200000X0.375000X-0.200000X0.375000X0*%
%ADD56RoundRect,0.101600X0.700000X0.600000X-0.700000X0.600000X-0.700000X-0.600000X0.700000X-0.600000X0*%
G04 APERTURE END LIST*
D10*
%TO.C,E$55*%
G36*
X63760200Y4134000D02*
G01*
X61360200Y4134000D01*
X61360200Y6534000D01*
X63760200Y6534000D01*
X63760200Y4134000D01*
G37*
%TD*%
D11*
%TO.C,U$9*%
X22860000Y18415000D03*
%TD*%
%TO.C,U$8*%
X22860000Y6985000D03*
%TD*%
D12*
%TO.C,UNK_HOLE_1*%
X6477000Y18796000D03*
%TD*%
D13*
%TO.C,JP4*%
X19050000Y19050000D03*
X16510000Y19050000D03*
X13970000Y19050000D03*
X11430000Y19050000D03*
X8890000Y19050000D03*
%TD*%
D12*
%TO.C,UNK_HOLE_0*%
X6477000Y6604000D03*
%TD*%
D13*
%TO.C,JP3*%
X8890000Y6375400D03*
X11430000Y6375400D03*
X13970000Y6375400D03*
X16510000Y6375400D03*
X19050000Y6375400D03*
%TD*%
D14*
%TO.C,CN1*%
X4318000Y14650000D03*
X4318000Y10750000D03*
D15*
X5218000Y16000000D03*
D16*
X5218000Y9400000D03*
D17*
X2418000Y16300000D03*
X2418000Y9100000D03*
%TD*%
D18*
%TO.C,E$63*%
X97637600Y14270000D03*
X97637600Y13670000D03*
%TD*%
D19*
%TO.C,E$45*%
X135813800Y9025400D03*
X135813800Y16425400D03*
%TD*%
D20*
%TO.C,E$26*%
X104165400Y14531000D03*
X104165400Y11631000D03*
%TD*%
D21*
%TO.C,E$34*%
X141493200Y5343400D03*
X143393200Y5343400D03*
X142443200Y3243400D03*
%TD*%
D22*
%TO.C,E$57*%
X68326000Y11303000D03*
X68326000Y12573000D03*
X68326000Y13843000D03*
X68326000Y15113000D03*
X73558400Y15113000D03*
X73558400Y13843000D03*
X73558400Y12573000D03*
X73558400Y11303000D03*
%TD*%
D23*
%TO.C,E$40*%
X84963000Y4456800D03*
X84963000Y2756800D03*
%TD*%
D24*
%TO.C,E$32*%
X146531200Y6905400D03*
X148031200Y6905400D03*
X149531200Y6905400D03*
D25*
X148031200Y3805400D03*
%TD*%
D26*
%TO.C,E$43*%
X126339600Y12861400D03*
D27*
X126339600Y17161400D03*
%TD*%
D28*
%TO.C,E$47*%
X123139200Y12684400D03*
X123139200Y17084400D03*
%TD*%
D29*
%TO.C,E$61*%
X99161600Y16502000D03*
X99161600Y15502000D03*
%TD*%
%TO.C,E$23*%
X99161600Y12438000D03*
X99161600Y11438000D03*
%TD*%
D30*
%TO.C,E$38*%
X79966800Y2829000D03*
X78376800Y2829000D03*
X78376800Y4029000D03*
X79966800Y4029000D03*
%TD*%
D31*
%TO.C,E$62*%
X100685600Y16472600D03*
X100685600Y14972600D03*
%TD*%
%TO.C,E$24*%
X100685600Y12992800D03*
X100685600Y11492800D03*
%TD*%
D32*
%TO.C,E$56*%
X59710200Y9967000D03*
X59710200Y10617000D03*
X59710200Y11267000D03*
X59710200Y11917000D03*
X59710200Y12567000D03*
X59710200Y13217000D03*
X59710200Y13867000D03*
X59710200Y14517000D03*
X65610200Y14517000D03*
X65610200Y13867000D03*
X65610200Y13217000D03*
X65610200Y12567000D03*
X65610200Y11917000D03*
X65610200Y11267000D03*
X65610200Y10617000D03*
X65610200Y9967000D03*
%TD*%
D33*
%TO.C,E$28*%
X110210600Y16270000D03*
X110210600Y11670000D03*
%TD*%
D34*
%TO.C,E$41*%
X116535200Y15811600D03*
X116535200Y17411600D03*
%TD*%
D18*
%TO.C,E$60*%
X97637600Y16606800D03*
X97637600Y16006800D03*
%TD*%
D35*
%TO.C,E$25*%
X102209600Y13877000D03*
X102209600Y11777000D03*
%TD*%
D36*
%TO.C,E$48*%
X118313200Y15207600D03*
X118313200Y17507600D03*
%TD*%
D37*
%TO.C,E$27*%
X106883200Y11682600D03*
X106883200Y14682600D03*
%TD*%
D38*
%TO.C,SWD0*%
X13525500Y8826500D03*
%TD*%
D39*
%TO.C,E$31*%
X145719800Y16586200D03*
X148031200Y16586200D03*
X150342600Y16586200D03*
D40*
X148031200Y10388400D03*
%TD*%
D41*
%TO.C,E$39*%
X89128600Y14706600D03*
X89128600Y5054600D03*
%TD*%
D42*
%TO.C,E$33*%
X141493200Y10977500D03*
X142443200Y10977500D03*
X143393200Y10977500D03*
X143393200Y8377300D03*
X141493200Y8377300D03*
%TD*%
D43*
%TO.C,E$49*%
X120345200Y13717800D03*
X120345200Y17117800D03*
%TD*%
D38*
%TO.C,SWC0*%
X11023600Y8826500D03*
%TD*%
D44*
%TO.C,E$36*%
X82772000Y14319400D03*
X78772000Y14319400D03*
X78772000Y16719400D03*
X82772000Y16719400D03*
%TD*%
D45*
%TO.C,E$58*%
X67442200Y4346000D03*
X67442200Y4846000D03*
X67442200Y5346000D03*
X67442200Y5846000D03*
X67442200Y6346000D03*
X67442200Y6846000D03*
X67442200Y7346000D03*
X67442200Y7846000D03*
D46*
X69192200Y9596000D03*
X69692200Y9596000D03*
X70192200Y9596000D03*
X70692200Y9596000D03*
X71192200Y9596000D03*
X71692200Y9596000D03*
X72192200Y9596000D03*
X72692200Y9596000D03*
D47*
X74442200Y7846000D03*
X74442200Y7346000D03*
X74442200Y6846000D03*
X74442200Y6346000D03*
X74442200Y5846000D03*
X74442200Y5346000D03*
X74442200Y4846000D03*
X74442200Y4346000D03*
D48*
X72692200Y2596000D03*
X72192200Y2596000D03*
X71692200Y2596000D03*
X71192200Y2596000D03*
X70692200Y2596000D03*
X70192200Y2596000D03*
X69692200Y2596000D03*
X69192200Y2596000D03*
%TD*%
D49*
%TO.C,E$42*%
X115011200Y16292200D03*
X115011200Y17642200D03*
%TD*%
D50*
%TO.C,E$44*%
X130251200Y12201800D03*
X130251200Y16601800D03*
%TD*%
D51*
%TO.C,E$55*%
X60560200Y4084000D03*
X60560200Y4584000D03*
X60560200Y5084000D03*
X60560200Y5584000D03*
X60560200Y6084000D03*
X60560200Y6584000D03*
D52*
X61310200Y7334000D03*
X61810200Y7334000D03*
X62310200Y7334000D03*
X62810200Y7334000D03*
X63310200Y7334000D03*
X63810200Y7334000D03*
D53*
X64560200Y6584000D03*
X64560200Y6084000D03*
X64560200Y5584000D03*
X64560200Y5084000D03*
X64560200Y4584000D03*
X64560200Y4084000D03*
D54*
X63810200Y3334000D03*
X63310200Y3334000D03*
X62810200Y3334000D03*
X62310200Y3334000D03*
X61810200Y3334000D03*
X61310200Y3334000D03*
%TD*%
D18*
%TO.C,E$16*%
X97637600Y11933200D03*
X97637600Y11333200D03*
%TD*%
D55*
%TO.C,E$35*%
X141793200Y15836400D03*
X142443200Y15836400D03*
X143093200Y15836400D03*
X143093200Y14186400D03*
X141793200Y14186400D03*
%TD*%
D56*
%TO.C,E$37*%
X80981400Y8219400D03*
X78581400Y8219400D03*
X78581400Y10119400D03*
X80981400Y10119400D03*
%TD*%
G36*
X54451439Y7320915D02*
G01*
X54497194Y7268111D01*
X54508400Y7216600D01*
X54508400Y7210600D01*
X54488715Y7143561D01*
X54435911Y7097806D01*
X54384400Y7086600D01*
X49222200Y7086600D01*
X49155161Y7106285D01*
X49109406Y7159089D01*
X49098200Y7210600D01*
X49098200Y7216600D01*
X49117885Y7283639D01*
X49170689Y7329394D01*
X49222200Y7340600D01*
X54384400Y7340600D01*
X54451439Y7320915D01*
G37*
G36*
X54451439Y8870315D02*
G01*
X54497194Y8817511D01*
X54508400Y8766000D01*
X54508400Y8709200D01*
X54488715Y8642161D01*
X54435911Y8596406D01*
X54384400Y8585200D01*
X49222200Y8585200D01*
X49155161Y8604885D01*
X49109406Y8657689D01*
X49098200Y8709200D01*
X49098200Y8766000D01*
X49117885Y8833039D01*
X49170689Y8878794D01*
X49222200Y8890000D01*
X54384400Y8890000D01*
X54451439Y8870315D01*
G37*
G36*
X54451439Y15347315D02*
G01*
X54497194Y15294511D01*
X54508400Y15243000D01*
X54508400Y14449600D01*
X54488715Y14382561D01*
X54435911Y14336806D01*
X54384400Y14325600D01*
X49222200Y14325600D01*
X49155161Y14345285D01*
X49109406Y14398089D01*
X49098200Y14449600D01*
X49098200Y15243000D01*
X49117885Y15310039D01*
X49170689Y15355794D01*
X49222200Y15367000D01*
X54384400Y15367000D01*
X54451439Y15347315D01*
G37*
G36*
X54451439Y10470515D02*
G01*
X54497194Y10417711D01*
X54508400Y10366200D01*
X54508400Y10157000D01*
X54488715Y10089961D01*
X54435911Y10044206D01*
X54384400Y10033000D01*
X49222200Y10033000D01*
X49155161Y10052685D01*
X49109406Y10105489D01*
X49098200Y10157000D01*
X49098200Y10366200D01*
X49117885Y10433239D01*
X49170689Y10478994D01*
X49222200Y10490200D01*
X54384400Y10490200D01*
X54451439Y10470515D01*
G37*
G36*
X54451439Y12096115D02*
G01*
X54497194Y12043311D01*
X54508400Y11991800D01*
X54508400Y11630200D01*
X54488715Y11563161D01*
X54435911Y11517406D01*
X54384400Y11506200D01*
X49222200Y11506200D01*
X49155161Y11525885D01*
X49109406Y11578689D01*
X49098200Y11630200D01*
X49098200Y11991800D01*
X49117885Y12058839D01*
X49170689Y12104594D01*
X49222200Y12115800D01*
X54384400Y12115800D01*
X54451439Y12096115D01*
G37*
G36*
X54451439Y13670915D02*
G01*
X54497194Y13618111D01*
X54508400Y13566600D01*
X54508400Y13052600D01*
X54488715Y12985561D01*
X54435911Y12939806D01*
X54384400Y12928600D01*
X49222200Y12928600D01*
X49155161Y12948285D01*
X49109406Y13001089D01*
X49098200Y13052600D01*
X49098200Y13566600D01*
X49117885Y13633639D01*
X49170689Y13679394D01*
X49222200Y13690600D01*
X54384400Y13690600D01*
X54451439Y13670915D01*
G37*
M02*
