%TF.GenerationSoftware,KiCad,Pcbnew,10.99.0-3671-gbe90a7e200*%
%TF.CreationDate,2026-09-09T21:01:51+01:00*%
%TF.ProjectId,kicad_file,6b696361-645f-4666-996c-652e6b696361,rev?*%
%TF.SameCoordinates,Original*%
%TF.FileFunction,Soldermask,Bot*%
%TF.FilePolarity,Negative*%
%FSLAX46Y46*%
G04 Gerber Fmt 4.6, Leading zero omitted, Abs format (unit mm)*
G04 Created by KiCad (PCBNEW 10.99.0-3671-gbe90a7e200) date 2026-09-09 21:01:51*
%MOMM*%
%LPD*%
G01*
G04 APERTURE LIST*
G04 Aperture macros list*
%AMRoundRect*
0 Rectangle with rounded corners*
0 $1 Rounding radius*
0 $2 $3 $4 $5 $6 $7 $8 $9 X,Y pos of 4 corners*
0 Add a 4 corners polygon primitive as box body*
4,1,4,$2,$3,$4,$5,$6,$7,$8,$9,$2,$3,0*
0 Add four circle primitives for the rounded corners*
1,1,$1+$1,$2,$3*
1,1,$1+$1,$4,$5*
1,1,$1+$1,$6,$7*
1,1,$1+$1,$8,$9*
0 Add four rect primitives between the rounded corners*
20,1,$1+$1,$2,$3,$4,$5,0*
20,1,$1+$1,$4,$5,$6,$7,0*
20,1,$1+$1,$6,$7,$8,$9,0*
20,1,$1+$1,$8,$9,$2,$3,0*%
G04 Aperture macros list end*
%ADD10C,0.000000*%
%ADD11C,1.930400*%
%ADD12C,3.352400*%
%ADD13C,0.806400*%
%ADD14RoundRect,0.076200X0.175000X-1.100000X0.175000X1.100000X-0.175000X1.100000X-0.175000X-1.100000X0*%
%ADD15RoundRect,0.076200X-0.750000X0.650000X-0.750000X-0.650000X0.750000X-0.650000X0.750000X0.650000X0*%
%ADD16RoundRect,0.076200X0.650000X0.750000X-0.650000X0.750000X-0.650000X-0.750000X0.650000X-0.750000X0*%
%ADD17RoundRect,0.076200X0.584200X0.800100X-0.584200X0.800100X-0.584200X-0.800100X0.584200X-0.800100X0*%
%ADD18RoundRect,0.076200X-0.275000X-0.600000X0.275000X-0.600000X0.275000X0.600000X-0.275000X0.600000X0*%
%ADD19RoundRect,0.076200X0.750000X-0.650000X0.750000X0.650000X-0.750000X0.650000X-0.750000X-0.650000X0*%
%ADD20RoundRect,0.076200X0.635000X-0.500000X0.635000X0.500000X-0.635000X0.500000X-0.635000X-0.500000X0*%
%ADD21RoundRect,0.076200X-0.400000X0.400000X-0.400000X-0.400000X0.400000X-0.400000X0.400000X0.400000X0*%
%ADD22RoundRect,0.076200X-0.650000X-0.750000X0.650000X-0.750000X0.650000X0.750000X-0.650000X0.750000X0*%
G04 APERTURE END LIST*
D10*
%TO.C,SJ2*%
G36*
X34572200Y6991600D02*
G01*
X34419800Y6991600D01*
X34419800Y8820400D01*
X34572200Y8820400D01*
X34572200Y6991600D01*
G37*
%TO.C,SJ1*%
G36*
X34572200Y11071600D02*
G01*
X34419800Y11071600D01*
X34419800Y12900400D01*
X34572200Y12900400D01*
X34572200Y11071600D01*
G37*
%TO.C,FID1*%
G36*
X31925090Y26338785D02*
G01*
X32112683Y26281880D01*
X32285570Y26189470D01*
X32437107Y26065107D01*
X32561470Y25913570D01*
X32653880Y25740683D01*
X32730000Y25358000D01*
X32710785Y25162910D01*
X32653880Y24975317D01*
X32561470Y24802430D01*
X32437107Y24650893D01*
X32285570Y24526530D01*
X32112683Y24434120D01*
X31730000Y24358000D01*
X31534910Y24377215D01*
X31347317Y24434120D01*
X31174430Y24526530D01*
X31022893Y24650893D01*
X30898530Y24802430D01*
X30806120Y24975317D01*
X30730000Y25358000D01*
X30749215Y25553090D01*
X30806120Y25740683D01*
X30898530Y25913570D01*
X31022893Y26065107D01*
X31174430Y26189470D01*
X31347317Y26281880D01*
X31730000Y26358000D01*
X31925090Y26338785D01*
G37*
%TO.C,FID2*%
G36*
X6624090Y3996785D02*
G01*
X6811683Y3939880D01*
X6984570Y3847470D01*
X7136107Y3723107D01*
X7260470Y3571570D01*
X7352880Y3398683D01*
X7429000Y3016000D01*
X7409785Y2820910D01*
X7352880Y2633317D01*
X7260470Y2460430D01*
X7136107Y2308893D01*
X6984570Y2184530D01*
X6811683Y2092120D01*
X6429000Y2016000D01*
X6233910Y2035215D01*
X6046317Y2092120D01*
X5873430Y2184530D01*
X5721893Y2308893D01*
X5597530Y2460430D01*
X5505120Y2633317D01*
X5429000Y3016000D01*
X5448215Y3211090D01*
X5505120Y3398683D01*
X5597530Y3571570D01*
X5721893Y3723107D01*
X5873430Y3847470D01*
X6046317Y3939880D01*
X6429000Y4016000D01*
X6624090Y3996785D01*
G37*
%TD*%
D11*
%TO.C,JP1*%
X10110000Y25430000D03*
X12650000Y25430000D03*
X15190000Y25430000D03*
X17730000Y25430000D03*
X20270000Y25430000D03*
X22810000Y25430000D03*
X25350000Y25430000D03*
X27890000Y25430000D03*
%TD*%
D12*
%TO.C,U$26*%
X3000000Y25500000D03*
%TD*%
%TO.C,U$25*%
X35000000Y3000000D03*
%TD*%
%TO.C,U$23*%
X35000000Y25500000D03*
%TD*%
%TO.C,U$24*%
X3000000Y3000000D03*
%TD*%
D13*
%TO.C,U1*%
X11052000Y2092000D03*
X27052000Y2092000D03*
D14*
X8902000Y6342000D03*
X9602000Y6342000D03*
X10302000Y6342000D03*
X11002000Y6342000D03*
X11702000Y6342000D03*
X12402000Y6342000D03*
X13102000Y6342000D03*
X13802000Y6342000D03*
X14502000Y6342000D03*
X15202000Y6342000D03*
X15902000Y6342000D03*
X16602000Y6342000D03*
X17302000Y6342000D03*
X18002000Y6342000D03*
X18702000Y6342000D03*
X19402000Y6342000D03*
X20102000Y6342000D03*
X20802000Y6342000D03*
X21502000Y6342000D03*
X22202000Y6342000D03*
X22902000Y6342000D03*
X23602000Y6342000D03*
X24302000Y6342000D03*
X25002000Y6342000D03*
X25702000Y6342000D03*
X26402000Y6342000D03*
X27102000Y6342000D03*
X27802000Y6342000D03*
X28502000Y6342000D03*
X29202000Y6342000D03*
%TD*%
D15*
%TO.C,R6*%
X15241000Y16595000D03*
X15241000Y14695000D03*
%TD*%
%TO.C,R4*%
X20353000Y16595000D03*
X20353000Y14695000D03*
%TD*%
D16*
%TO.C,C3*%
X4064000Y6620000D03*
X2164000Y6620000D03*
%TD*%
D15*
%TO.C,C5*%
X29440000Y12476000D03*
X29440000Y10576000D03*
%TD*%
D16*
%TO.C,C6*%
X3932000Y11279000D03*
X2032000Y11279000D03*
%TD*%
D15*
%TO.C,R3*%
X24614000Y12476000D03*
X24614000Y10576000D03*
%TD*%
D16*
%TO.C,R2*%
X17048000Y10660000D03*
X15148000Y10660000D03*
%TD*%
D17*
%TO.C,SJ2*%
X35258000Y7906000D03*
X33734000Y7906000D03*
%TD*%
D18*
%TO.C,U2*%
X23220000Y22127100D03*
X24170000Y22127100D03*
X25120000Y22127100D03*
X25120000Y19526900D03*
X23220000Y19526900D03*
%TD*%
D15*
%TO.C,C8*%
X27154000Y12476000D03*
X27154000Y10576000D03*
%TD*%
%TO.C,R5*%
X17749000Y16595000D03*
X17749000Y14695000D03*
%TD*%
D19*
%TO.C,R14*%
X9628000Y20498000D03*
X9628000Y22398000D03*
%TD*%
D20*
%TO.C,Q2*%
X2158000Y20140000D03*
X2158000Y22040000D03*
X4158000Y21090000D03*
%TD*%
D21*
%TO.C,D2*%
X17756000Y20502000D03*
X17756000Y22902000D03*
%TD*%
%TO.C,D3*%
X15216000Y20502000D03*
X15216000Y22902000D03*
%TD*%
D16*
%TO.C,C7*%
X3932000Y13438000D03*
X2032000Y13438000D03*
%TD*%
D20*
%TO.C,Q1*%
X2198000Y15282000D03*
X2198000Y17182000D03*
X4198000Y16232000D03*
%TD*%
D17*
%TO.C,SJ1*%
X35258000Y11986000D03*
X33734000Y11986000D03*
%TD*%
D22*
%TO.C,C2*%
X22712000Y14636000D03*
X24612000Y14636000D03*
%TD*%
%TO.C,C4*%
X2164000Y8747000D03*
X4064000Y8747000D03*
%TD*%
D19*
%TO.C,R13*%
X7342000Y13410000D03*
X7342000Y15310000D03*
%TD*%
%TO.C,C1*%
X27908000Y19928000D03*
X27908000Y21828000D03*
%TD*%
D15*
%TO.C,R12*%
X7342000Y22398000D03*
X7342000Y20498000D03*
%TD*%
D21*
%TO.C,D1*%
X20296000Y20502000D03*
X20296000Y22902000D03*
%TD*%
D19*
%TO.C,R11*%
X9533000Y13408000D03*
X9533000Y15308000D03*
%TD*%
M02*
