ISO-10303-21;
HEADER;
FILE_DESCRIPTION(('KiCad electronic assembly'),'2;1');
FILE_NAME('model.step','1970-01-01T00:00:00',('Pcbnew'),('Kicad'),
  'Open CASCADE STEP processor 7.9','KiCad to STEP converter','Unknown'
  );
FILE_SCHEMA(('AUTOMOTIVE_DESIGN { 1 0 10303 214 1 1 1 1 }'));
ENDSEC;
DATA;
#1 = APPLICATION_PROTOCOL_DEFINITION('international standard',
  'automotive_design',2000,#2);
#2 = APPLICATION_CONTEXT(
  'core data for automotive mechanical design processes');
#3 = SHAPE_DEFINITION_REPRESENTATION(#4,#10);
#4 = PRODUCT_DEFINITION_SHAPE('','',#5);
#5 = PRODUCT_DEFINITION('design','',#6,#9);
#6 = PRODUCT_DEFINITION_FORMATION('','',#7);
#7 = PRODUCT('model 1','model 1','',(#8));
#8 = PRODUCT_CONTEXT('',#2,'mechanical');
#9 = PRODUCT_DEFINITION_CONTEXT('part definition',#2,'design');
#10 = SHAPE_REPRESENTATION('',(#11,#15,#19,#23),#27);
#11 = AXIS2_PLACEMENT_3D('',#12,#13,#14);
#12 = CARTESIAN_POINT('',(0.,0.,0.));
#13 = DIRECTION('',(0.,0.,1.));
#14 = DIRECTION('',(1.,0.,-0.));
#15 = AXIS2_PLACEMENT_3D('',#16,#17,#18);
#16 = CARTESIAN_POINT('',(0.,0.,1.595));
#17 = DIRECTION('',(0.,0.,1.));
#18 = DIRECTION('',(1.,0.,0.));
#19 = AXIS2_PLACEMENT_3D('',#20,#21,#22);
#20 = CARTESIAN_POINT('',(0.,0.,0.));
#21 = DIRECTION('',(0.,0.,1.));
#22 = DIRECTION('',(1.,0.,-0.));
#23 = AXIS2_PLACEMENT_3D('',#24,#25,#26);
#24 = CARTESIAN_POINT('',(0.,0.,0.));
#25 = DIRECTION('',(0.,0.,1.));
#26 = DIRECTION('',(1.,0.,-0.));
#27 = ( GEOMETRIC_REPRESENTATION_CONTEXT(3) 
GLOBAL_UNCERTAINTY_ASSIGNED_CONTEXT((#31)) GLOBAL_UNIT_ASSIGNED_CONTEXT(
(#28,#29,#30)) REPRESENTATION_CONTEXT('Context #1',
  '3D Context with UNIT and UNCERTAINTY') );
#28 = ( LENGTH_UNIT() NAMED_UNIT(*) SI_UNIT(.MILLI.,.METRE.) );
#29 = ( NAMED_UNIT(*) PLANE_ANGLE_UNIT() SI_UNIT($,.RADIAN.) );
#30 = ( NAMED_UNIT(*) SI_UNIT($,.STERADIAN.) SOLID_ANGLE_UNIT() );
#31 = UNCERTAINTY_MEASURE_WITH_UNIT(LENGTH_MEASURE(1.E-07),#28,
  'distance_accuracy_value','confusion accuracy');
#32 = PRODUCT_RELATED_PRODUCT_CATEGORY('part',$,(#7));
#33 = SHAPE_DEFINITION_REPRESENTATION(#34,#40);
#34 = PRODUCT_DEFINITION_SHAPE('','',#35);
#35 = PRODUCT_DEFINITION('design','',#36,#39);
#36 = PRODUCT_DEFINITION_FORMATION('','',#37);
#37 = PRODUCT('R_Axial_DIN0207_L6.3mm_D2.5mm_P7.62mm_Horizontal',
  'R_Axial_DIN0207_L6.3mm_D2.5mm_P7.62mm_Horizontal','',(#38));
#38 = PRODUCT_CONTEXT('',#2,'mechanical');
#39 = PRODUCT_DEFINITION_CONTEXT('part definition',#2,'design');
#40 = SHAPE_REPRESENTATION('',(#11,#41),#45);
#41 = AXIS2_PLACEMENT_3D('',#42,#43,#44);
#42 = CARTESIAN_POINT('',(0.,0.,0.));
#43 = DIRECTION('',(0.,0.,1.));
#44 = DIRECTION('',(1.,0.,-0.));
#45 = ( GEOMETRIC_REPRESENTATION_CONTEXT(3) 
GLOBAL_UNCERTAINTY_ASSIGNED_CONTEXT((#49)) GLOBAL_UNIT_ASSIGNED_CONTEXT(
(#46,#47,#48)) REPRESENTATION_CONTEXT('Context #1',
  '3D Context with UNIT and UNCERTAINTY') );
#46 = ( LENGTH_UNIT() NAMED_UNIT(*) SI_UNIT(.MILLI.,.METRE.) );
#47 = ( NAMED_UNIT(*) PLANE_ANGLE_UNIT() SI_UNIT($,.RADIAN.) );
#48 = ( NAMED_UNIT(*) SI_UNIT($,.STERADIAN.) SOLID_ANGLE_UNIT() );
#49 = UNCERTAINTY_MEASURE_WITH_UNIT(LENGTH_MEASURE(1.E-07),#46,
  'distance_accuracy_value','confusion accuracy');
#50 = CONTEXT_DEPENDENT_SHAPE_REPRESENTATION(#51,#53);
#51 = ( REPRESENTATION_RELATIONSHIP('','',#40,#10) 
REPRESENTATION_RELATIONSHIP_WITH_TRANSFORMATION(#52) 
SHAPE_REPRESENTATION_RELATIONSHIP() );
#52 = ITEM_DEFINED_TRANSFORMATION('','',#11,#15);
#53 = PRODUCT_DEFINITION_SHAPE('Placement','Placement of an item',#54);
#54 = NEXT_ASSEMBLY_USAGE_OCCURRENCE('2','REF**','',#5,#35,$);
#55 = PRODUCT_RELATED_PRODUCT_CATEGORY('part',$,(#37));
#56 = SHAPE_DEFINITION_REPRESENTATION(#57,#63);
#57 = PRODUCT_DEFINITION_SHAPE('','',#58);
#58 = PRODUCT_DEFINITION('design','',#59,#62);
#59 = PRODUCT_DEFINITION_FORMATION('','',#60);
#60 = PRODUCT('R_Axial_DIN0207_L63mm_D25mm_P762mm_Horizontal',
  'R_Axial_DIN0207_L63mm_D25mm_P762mm_Horizontal','',(#61));
#61 = PRODUCT_CONTEXT('',#2,'mechanical');
#62 = PRODUCT_DEFINITION_CONTEXT('part definition',#2,'design');
#63 = ADVANCED_BREP_SHAPE_REPRESENTATION('',(#11,#64),#727);
#64 = MANIFOLD_SOLID_BREP('',#65);
#65 = CLOSED_SHELL('',(#66,#99,#125,#145,#328,#353,#379,#399,#424,#449,
    #458,#484,#667,#693,#718));
#66 = ADVANCED_FACE('',(#67),#94,.T.);
#67 = FACE_BOUND('',#68,.T.);
#68 = EDGE_LOOP('',(#69,#78,#86,#93));
#69 = ORIENTED_EDGE('',*,*,#70,.T.);
#70 = EDGE_CURVE('',#71,#71,#73,.T.);
#71 = VERTEX_POINT('',#72);
#72 = CARTESIAN_POINT('',(1.285,1.25,1.25));
#73 = CIRCLE('',#74,1.25);
#74 = AXIS2_PLACEMENT_3D('',#75,#76,#77);
#75 = CARTESIAN_POINT('',(1.285,0.,1.25));
#76 = DIRECTION('',(1.,0.,0.));
#77 = DIRECTION('',(-0.,1.,0.));
#78 = ORIENTED_EDGE('',*,*,#79,.T.);
#79 = EDGE_CURVE('',#71,#80,#82,.T.);
#80 = VERTEX_POINT('',#81);
#81 = CARTESIAN_POINT('',(2.235,1.25,1.25));
#82 = LINE('',#83,#84);
#83 = CARTESIAN_POINT('',(0.66,1.25,1.25));
#84 = VECTOR('',#85,1.);
#85 = DIRECTION('',(1.,0.,0.));
#86 = ORIENTED_EDGE('',*,*,#87,.F.);
#87 = EDGE_CURVE('',#80,#80,#88,.T.);
#88 = CIRCLE('',#89,1.25);
#89 = AXIS2_PLACEMENT_3D('',#90,#91,#92);
#90 = CARTESIAN_POINT('',(2.235,0.,1.25));
#91 = DIRECTION('',(1.,0.,0.));
#92 = DIRECTION('',(-0.,1.,0.));
#93 = ORIENTED_EDGE('',*,*,#79,.F.);
#94 = CYLINDRICAL_SURFACE('',#95,1.25);
#95 = AXIS2_PLACEMENT_3D('',#96,#97,#98);
#96 = CARTESIAN_POINT('',(0.66,0.,1.25));
#97 = DIRECTION('',(-1.,-0.,-0.));
#98 = DIRECTION('',(0.,1.,0.));
#99 = ADVANCED_FACE('',(#100),#120,.T.);
#100 = FACE_BOUND('',#101,.T.);
#101 = EDGE_LOOP('',(#102,#111,#118,#119));
#102 = ORIENTED_EDGE('',*,*,#103,.T.);
#103 = EDGE_CURVE('',#104,#104,#106,.T.);
#104 = VERTEX_POINT('',#105);
#105 = CARTESIAN_POINT('',(0.66,0.625,1.25));
#106 = CIRCLE('',#107,0.625);
#107 = AXIS2_PLACEMENT_3D('',#108,#109,#110);
#108 = CARTESIAN_POINT('',(0.66,0.,1.25));
#109 = DIRECTION('',(1.,0.,0.));
#110 = DIRECTION('',(-0.,1.,0.));
#111 = ORIENTED_EDGE('',*,*,#112,.F.);
#112 = EDGE_CURVE('',#71,#104,#113,.T.);
#113 = CIRCLE('',#114,0.625);
#114 = AXIS2_PLACEMENT_3D('',#115,#116,#117);
#115 = CARTESIAN_POINT('',(1.285,0.625,1.25));
#116 = DIRECTION('',(0.,-0.,1.));
#117 = DIRECTION('',(0.,1.,0.));
#118 = ORIENTED_EDGE('',*,*,#70,.F.);
#119 = ORIENTED_EDGE('',*,*,#112,.T.);
#120 = TOROIDAL_SURFACE('',#121,0.625,0.625);
#121 = AXIS2_PLACEMENT_3D('',#122,#123,#124);
#122 = CARTESIAN_POINT('',(1.285,0.,1.25));
#123 = DIRECTION('',(-1.,0.,0.));
#124 = DIRECTION('',(0.,1.,0.));
#125 = ADVANCED_FACE('',(#126,#129),#140,.F.);
#126 = FACE_BOUND('',#127,.F.);
#127 = EDGE_LOOP('',(#128));
#128 = ORIENTED_EDGE('',*,*,#87,.F.);
#129 = FACE_BOUND('',#130,.F.);
#130 = EDGE_LOOP('',(#131));
#131 = ORIENTED_EDGE('',*,*,#132,.F.);
#132 = EDGE_CURVE('',#133,#133,#135,.T.);
#133 = VERTEX_POINT('',#134);
#134 = CARTESIAN_POINT('',(2.235,1.125,1.25));
#135 = CIRCLE('',#136,1.125);
#136 = AXIS2_PLACEMENT_3D('',#137,#138,#139);
#137 = CARTESIAN_POINT('',(2.235,0.,1.25));
#138 = DIRECTION('',(-1.,0.,0.));
#139 = DIRECTION('',(0.,1.,0.));
#140 = PLANE('',#141);
#141 = AXIS2_PLACEMENT_3D('',#142,#143,#144);
#142 = CARTESIAN_POINT('',(2.235,1.25,1.25));
#143 = DIRECTION('',(-1.,0.,0.));
#144 = DIRECTION('',(0.,0.,-1.));
#145 = ADVANCED_FACE('',(#146,#149),#323,.T.);
#146 = FACE_BOUND('',#147,.T.);
#147 = EDGE_LOOP('',(#148));
#148 = ORIENTED_EDGE('',*,*,#103,.F.);
#149 = FACE_BOUND('',#150,.T.);
#150 = EDGE_LOOP('',(#151));
#151 = ORIENTED_EDGE('',*,*,#152,.F.);
#152 = EDGE_CURVE('',#153,#153,#155,.T.);
#153 = VERTEX_POINT('',#154);
#154 = CARTESIAN_POINT('',(0.66,1.102182119233E-16,0.899909083395));
#155 = B_SPLINE_CURVE_WITH_KNOTS('',6,(#156,#157,#158,#159,#160,#161,
    #162,#163,#164,#165,#166,#167,#168,#169,#170,#171,#172,#173,#174,
    #175,#176,#177,#178,#179,#180,#181,#182,#183,#184,#185,#186,#187,
    #188,#189,#190,#191,#192,#193,#194,#195,#196,#197,#198,#199,#200,
    #201,#202,#203,#204,#205,#206,#207,#208,#209,#210,#211,#212,#213,
    #214,#215,#216,#217,#218,#219,#220,#221,#222,#223,#224,#225,#226,
    #227,#228,#229,#230,#231,#232,#233,#234,#235,#236,#237,#238,#239,
    #240,#241,#242,#243,#244,#245,#246,#247,#248,#249,#250,#251,#252,
    #253,#254,#255,#256,#257,#258,#259,#260,#261,#262,#263,#264,#265,
    #266,#267,#268,#269,#270,#271,#272,#273,#274,#275,#276,#277,#278,
    #279,#280,#281,#282,#283,#284,#285,#286,#287,#288,#289,#290,#291,
    #292,#293,#294,#295,#296,#297,#298,#299,#300,#301,#302,#303,#304,
    #305,#306,#307,#308,#309,#310,#311,#312,#313,#314,#315,#316,#317,
    #318,#319,#320,#321,#322),.UNSPECIFIED.,.T.,.F.,(1,6,5,5,5,5,5,5,5,5
    ,5,5,5,5,5,5,5,5,5,5,5,5,5,5,5,5,5,5,5,5,5,5,5,5,6,1),(
    -3.7441643477E-02,0.,2.521870323933E-02,5.431496394384E-02,
    8.648919549843E-02,0.120700162351,0.155854554579,0.191019956077,
    0.22552099352,0.258944151729,0.291091798271,0.321919308947,
    0.351475044446,0.379851974729,0.407153625953,0.43347490921,
    0.458900868731,0.483545347382,0.505902822615,0.530283950565,
    0.555351989471,0.581274789002,0.608140584187,0.636038742308,
    0.665070462617,0.695336577837,0.72690990423,0.759792997252,
    0.79386262098,0.828806470397,0.864066503475,0.898816439436,
    0.932013287381,0.962558356523,1.,1.025218703239),.UNSPECIFIED.);
#156 = CARTESIAN_POINT('',(0.66,0.,0.899909083395));
#157 = CARTESIAN_POINT('',(0.66,-9.861963323296E-03,0.899909084471));
#158 = CARTESIAN_POINT('',(0.66,-1.960383099012E-02,0.900333558971));
#159 = CARTESIAN_POINT('',(0.66,-2.90667633729E-02,0.901163095205));
#160 = CARTESIAN_POINT('',(0.66,-3.818473840012E-02,0.902336888075));
#161 = CARTESIAN_POINT('',(0.66,-4.697555886318E-02,0.903805406252));
#162 = CARTESIAN_POINT('',(0.66,-6.541217845247E-02,0.907588617289));
#163 = CARTESIAN_POINT('',(0.66,-7.491989955217E-02,0.909985996381));
#164 = CARTESIAN_POINT('',(0.66,-8.408858685729E-02,0.912709602459));
#165 = CARTESIAN_POINT('',(0.66,-9.29431150905E-02,0.915726339128));
#166 = CARTESIAN_POINT('',(0.66,-0.101504886237,0.919011492948));
#167 = CARTESIAN_POINT('',(0.66,-0.118958160976,0.926453793498));
#168 = CARTESIAN_POINT('',(0.66,-0.127787740677,0.930666021227));
#169 = CARTESIAN_POINT('',(0.66,-0.136306213845,0.935155972835));
#170 = CARTESIAN_POINT('',(0.66,-0.144532125259,0.939904061777));
#171 = CARTESIAN_POINT('',(0.66,-0.152479834979,0.944895594586));
#172 = CARTESIAN_POINT('',(0.66,-0.168328675181,0.955672717204));
#173 = CARTESIAN_POINT('',(0.66,-0.176194628708,0.961488338811));
#174 = CARTESIAN_POINT('',(0.66,-0.183772627725,0.967551590964));
#175 = CARTESIAN_POINT('',(0.66,-0.191071921446,0.973851630909));
#176 = CARTESIAN_POINT('',(0.66,-0.19809849539,0.980379998969));
#177 = CARTESIAN_POINT('',(0.66,-0.211800252103,0.99406561399));
#178 = CARTESIAN_POINT('',(0.66,-0.218460183619,1.001235038361));
#179 = CARTESIAN_POINT('',(0.66,-0.224839916669,1.008630424477));
#180 = CARTESIAN_POINT('',(0.66,-0.230940302033,1.016245317007));
#181 = CARTESIAN_POINT('',(0.66,-0.236759778797,1.024074009311));
#182 = CARTESIAN_POINT('',(0.66,-0.247832030244,1.040150827903));
#183 = CARTESIAN_POINT('',(0.66,-0.253084597548,1.048398894868));
#184 = CARTESIAN_POINT('',(0.66,-0.258049056373,1.056850063306));
#185 = CARTESIAN_POINT('',(0.66,-0.262719990238,1.065498702059));
#186 = CARTESIAN_POINT('',(0.66,-0.267090249501,1.07433884651));
#187 = CARTESIAN_POINT('',(0.66,-0.275134936213,1.092219038761));
#188 = CARTESIAN_POINT('',(0.66,-0.278821023102,1.101251941956));
#189 = CARTESIAN_POINT('',(0.66,-0.282200792082,1.110456832947));
#190 = CARTESIAN_POINT('',(0.66,-0.285264705632,1.119826546568));
#191 = CARTESIAN_POINT('',(0.66,-0.288002108658,1.129352827713));
#192 = CARTESIAN_POINT('',(0.66,-0.29272539517,1.148397615962));
#193 = CARTESIAN_POINT('',(0.66,-0.29473218058,1.157906910826));
#194 = CARTESIAN_POINT('',(0.66,-0.296410836061,1.167545600214));
#195 = CARTESIAN_POINT('',(0.66,-0.297750151594,1.177303530334));
#196 = CARTESIAN_POINT('',(0.66,-0.298738455802,1.187169009313));
#197 = CARTESIAN_POINT('',(0.66,-0.299964918417,1.206708514181));
#198 = CARTESIAN_POINT('',(0.66,-0.300230384291,1.216375379318));
#199 = CARTESIAN_POINT('',(0.66,-0.300149186912,1.226117491764));
#200 = CARTESIAN_POINT('',(0.66,-0.299710710819,1.235921272022));
#201 = CARTESIAN_POINT('',(0.66,-0.298904551758,1.245771471938));
#202 = CARTESIAN_POINT('',(0.66,-0.296585103724,1.265125169703));
#203 = CARTESIAN_POINT('',(0.66,-0.295102339165,1.274626258325));
#204 = CARTESIAN_POINT('',(0.66,-0.293263240337,1.284139377081));
#205 = CARTESIAN_POINT('',(0.66,-0.291059628806,1.293647957516));
#206 = CARTESIAN_POINT('',(0.66,-0.288484130363,1.303133926208));
#207 = CARTESIAN_POINT('',(0.66,-0.282698083788,1.321631884472));
#208 = CARTESIAN_POINT('',(0.66,-0.279518227914,1.330647303479));
#209 = CARTESIAN_POINT('',(0.66,-0.275984860345,1.33960658093));
#210 = CARTESIAN_POINT('',(0.66,-0.272093455342,1.348491200819));
#211 = CARTESIAN_POINT('',(0.66,-0.267840708483,1.357281511993));
#212 = CARTESIAN_POINT('',(0.66,-0.258792476906,1.374285940745));
#213 = CARTESIAN_POINT('',(0.66,-0.254025481533,1.382509111114));
#214 = CARTESIAN_POINT('',(0.66,-0.248921768643,1.390607755283));
#215 = CARTESIAN_POINT('',(0.66,-0.243480982245,1.398562700734));
#216 = CARTESIAN_POINT('',(0.66,-0.237704192262,1.406354086406));
#217 = CARTESIAN_POINT('',(0.66,-0.22571513259,1.421280378602));
#218 = CARTESIAN_POINT('',(0.66,-0.219527706492,1.428429037341));
#219 = CARTESIAN_POINT('',(0.66,-0.213033892817,1.435388992124));
#220 = CARTESIAN_POINT('',(0.66,-0.206237433156,1.442141613477));
#221 = CARTESIAN_POINT('',(0.66,-0.199143534101,1.448667989237));
#222 = CARTESIAN_POINT('',(0.66,-0.184639374507,1.46100431938));
#223 = CARTESIAN_POINT('',(0.66,-0.177249666015,1.466831638372));
#224 = CARTESIAN_POINT('',(0.66,-0.169595736209,1.472413656662));
#225 = CARTESIAN_POINT('',(0.66,-0.161685054894,1.477733175901));
#226 = CARTESIAN_POINT('',(0.66,-0.153526567249,1.482773024258));
#227 = CARTESIAN_POINT('',(0.66,-0.137020407721,1.492097753386));
#228 = CARTESIAN_POINT('',(0.66,-0.128688747003,1.496402530856));
#229 = CARTESIAN_POINT('',(0.66,-0.12014499879,1.500414878928));
#230 = CARTESIAN_POINT('',(0.66,-0.111400259626,1.504119593216));
#231 = CARTESIAN_POINT('',(0.66,-0.102467435485,1.507501774849));
#232 = CARTESIAN_POINT('',(0.66,-8.453493192811E-02,1.513498294635));
#233 = CARTESIAN_POINT('',(0.66,-7.554639694304E-02,1.516132890753));
#234 = CARTESIAN_POINT('',(0.66,-6.64085144705E-02,1.518437847791));
#235 = CARTESIAN_POINT('',(0.66,-5.713783351899E-02,1.520400106432));
#236 = CARTESIAN_POINT('',(0.66,-4.775488525608E-02,1.522007764907));
#237 = CARTESIAN_POINT('',(0.66,-2.969295309097E-02,1.524379864025));
#238 = CARTESIAN_POINT('',(0.66,-2.102888075484E-02,1.525208782901));
#239 = CARTESIAN_POINT('',(0.66,-1.231401679426E-02,1.525730893697));
#240 = CARTESIAN_POINT('',(0.66,-3.572675622322E-03,1.525941364018));
#241 = CARTESIAN_POINT('',(0.66,5.168222805428E-03,1.525838983228));
#242 = CARTESIAN_POINT('',(0.66,2.337847467049E-02,1.524978205181));
#243 = CARTESIAN_POINT('',(0.66,3.284375814827E-02,1.524161190409));
#244 = CARTESIAN_POINT('',(0.66,4.224166817951E-02,1.522980309203));
#245 = CARTESIAN_POINT('',(0.66,5.154498116248E-02,1.52144453626));
#246 = CARTESIAN_POINT('',(0.66,6.073223707979E-02,1.519565307122));
#247 = CARTESIAN_POINT('',(0.66,7.909772773064E-02,1.515080653378));
#248 = CARTESIAN_POINT('',(0.66,8.826753248322E-02,1.512456350085));
#249 = CARTESIAN_POINT('',(0.66,9.727917108862E-02,1.509494369221));
#250 = CARTESIAN_POINT('',(0.66,0.106117308319,1.506208374239));
#251 = CARTESIAN_POINT('',(0.66,0.114768939441,1.502612541932));
#252 = CARTESIAN_POINT('',(0.66,0.131966117695,1.494697909774));
#253 = CARTESIAN_POINT('',(0.66,0.140497702999,1.490358571609));
#254 = CARTESIAN_POINT('',(0.66,0.148806061897,1.485719660214));
#255 = CARTESIAN_POINT('',(0.66,0.156880650792,1.480797427009));
#256 = CARTESIAN_POINT('',(0.66,0.164712466725,1.47560826256));
#257 = CARTESIAN_POINT('',(0.66,0.180151423764,1.464531255078));
#258 = CARTESIAN_POINT('',(0.66,0.187739958872,1.458624810593));
#259 = CARTESIAN_POINT('',(0.66,0.195051326582,1.452467732556));
#260 = CARTESIAN_POINT('',(0.66,0.202078661493,1.446078253645));
#261 = CARTESIAN_POINT('',(0.66,0.208816558921,1.439474469779));
#262 = CARTESIAN_POINT('',(0.66,0.221953232148,1.425612904145));
#263 = CARTESIAN_POINT('',(0.66,0.228328983313,1.41833967682));
#264 = CARTESIAN_POINT('',(0.66,0.234383958936,1.410874731309));
#265 = CARTESIAN_POINT('',(0.66,0.240115246881,1.403237638329));
#266 = CARTESIAN_POINT('',(0.66,0.245521392347,1.395447466144));
#267 = CARTESIAN_POINT('',(0.66,0.255889855564,1.379276097975));
#268 = CARTESIAN_POINT('',(0.66,0.260825146013,1.370883681886));
#269 = CARTESIAN_POINT('',(0.66,0.265408341569,1.362366377835));
#270 = CARTESIAN_POINT('',(0.66,0.269640849736,1.353744088225));
#271 = CARTESIAN_POINT('',(0.66,0.273525413156,1.345035772328));
#272 = CARTESIAN_POINT('',(0.66,0.280757352367,1.327109961101));
#273 = CARTESIAN_POINT('',(0.66,0.284074759274,1.317886517643));
#274 = CARTESIAN_POINT('',(0.66,0.287023012024,1.308609403309));
#275 = CARTESIAN_POINT('',(0.66,0.289607802772,1.299297542852));
#276 = CARTESIAN_POINT('',(0.66,0.291835834134,1.289968498384));
#277 = CARTESIAN_POINT('',(0.66,0.295674958709,1.270905470981));
#278 = CARTESIAN_POINT('',(0.66,0.297255116553,1.261171411794));
#279 = CARTESIAN_POINT('',(0.66,0.298464074992,1.251454521799));
#280 = CARTESIAN_POINT('',(0.66,0.299311100714,1.241771401083));
#281 = CARTESIAN_POINT('',(0.66,0.299805944827,1.232137019844));
#282 = CARTESIAN_POINT('',(0.66,0.30011808361,1.212595326012));
#283 = CARTESIAN_POINT('',(0.66,0.299906283631,1.202693348802));
#284 = CARTESIAN_POINT('',(0.66,0.299334987113,1.192873693594));
#285 = CARTESIAN_POINT('',(0.66,0.298415571185,1.183149633751));
#286 = CARTESIAN_POINT('',(0.66,0.297159245916,1.173532809156));
#287 = CARTESIAN_POINT('',(0.66,0.293937772017,1.154190866917));
#288 = CARTESIAN_POINT('',(0.66,0.291948568133,1.144474505513));
#289 = CARTESIAN_POINT('',(0.66,0.289621677512,1.134895129825));
#290 = CARTESIAN_POINT('',(0.66,0.286968496105,1.125462405282));
#291 = CARTESIAN_POINT('',(0.66,0.283999580964,1.116184674916));
#292 = CARTESIAN_POINT('',(0.66,0.277365684897,1.097719334783));
#293 = CARTESIAN_POINT('',(0.66,0.273684712853,1.08854034335));
#294 = CARTESIAN_POINT('',(0.66,0.269692176119,1.079539433524));
#295 = CARTESIAN_POINT('',(0.66,0.265397048483,1.07072335418));
#296 = CARTESIAN_POINT('',(0.66,0.260806835513,1.062098154612));
#297 = CARTESIAN_POINT('',(0.66,0.251004164416,1.045163946312));
#298 = CARTESIAN_POINT('',(0.66,0.245786379559,1.036858764173));
#299 = CARTESIAN_POINT('',(0.66,0.240280407048,1.028758964174));
#300 = CARTESIAN_POINT('',(0.66,0.234490342534,1.020870115558));
#301 = CARTESIAN_POINT('',(0.66,0.228418190257,1.013198030747));
#302 = CARTESIAN_POINT('',(0.66,0.215801462132,0.998407266407));
#303 = CARTESIAN_POINT('',(0.66,0.209265037039,0.991282398269));
#304 = CARTESIAN_POINT('',(0.66,0.202454011648,0.98438004474));
#305 = CARTESIAN_POINT('',(0.66,0.195365844133,0.977707070031));
#306 = CARTESIAN_POINT('',(0.66,0.187995125017,0.971271927442));
#307 = CARTESIAN_POINT('',(0.66,0.173012685338,0.959175110633));
#308 = CARTESIAN_POINT('',(0.66,0.165426730288,0.953491920673));
#309 = CARTESIAN_POINT('',(0.66,0.157566473117,0.948044968651));
#310 = CARTESIAN_POINT('',(0.66,0.149421191466,0.9428457983));
#311 = CARTESIAN_POINT('',(0.66,0.140976348171,0.937909629891));
#312 = CARTESIAN_POINT('',(0.66,0.124148062588,0.928975570166));
#313 = CARTESIAN_POINT('',(0.66,0.115814079383,0.924934455913));
#314 = CARTESIAN_POINT('',(0.66,0.107194119667,0.921149233675));
#315 = CARTESIAN_POINT('',(0.66,9.826941158436E-02,0.91763978502));
#316 = CARTESIAN_POINT('',(0.66,8.901687105598E-02,0.914432779149));
#317 = CARTESIAN_POINT('',(0.66,6.762842160337E-02,0.908048369916));
#318 = CARTESIAN_POINT('',(0.66,5.540310162877E-02,0.905067930004));
#319 = CARTESIAN_POINT('',(0.66,4.253150709481E-02,0.902628405907));
#320 = CARTESIAN_POINT('',(0.66,2.893757304003E-02,0.900850137762));
#321 = CARTESIAN_POINT('',(0.66,1.468319780375E-02,0.899909084997));
#322 = CARTESIAN_POINT('',(0.66,0.,0.899909083395));
#323 = PLANE('',#324);
#324 = AXIS2_PLACEMENT_3D('',#325,#326,#327);
#325 = CARTESIAN_POINT('',(0.66,1.25,1.25));
#326 = DIRECTION('',(-1.,0.,0.));
#327 = DIRECTION('',(0.,0.,-1.));
#328 = ADVANCED_FACE('',(#329),#348,.T.);
#329 = FACE_BOUND('',#330,.T.);
#330 = EDGE_LOOP('',(#331,#340,#346,#347));
#331 = ORIENTED_EDGE('',*,*,#332,.T.);
#332 = EDGE_CURVE('',#333,#333,#335,.T.);
#333 = VERTEX_POINT('',#334);
#334 = CARTESIAN_POINT('',(5.385,1.125,1.25));
#335 = CIRCLE('',#336,1.125);
#336 = AXIS2_PLACEMENT_3D('',#337,#338,#339);
#337 = CARTESIAN_POINT('',(5.385,0.,1.25));
#338 = DIRECTION('',(-1.,0.,0.));
#339 = DIRECTION('',(0.,1.,0.));
#340 = ORIENTED_EDGE('',*,*,#341,.F.);
#341 = EDGE_CURVE('',#133,#333,#342,.T.);
#342 = LINE('',#343,#344);
#343 = CARTESIAN_POINT('',(0.66,1.125,1.25));
#344 = VECTOR('',#345,1.);
#345 = DIRECTION('',(1.,0.,0.));
#346 = ORIENTED_EDGE('',*,*,#132,.F.);
#347 = ORIENTED_EDGE('',*,*,#341,.T.);
#348 = CYLINDRICAL_SURFACE('',#349,1.125);
#349 = AXIS2_PLACEMENT_3D('',#350,#351,#352);
#350 = CARTESIAN_POINT('',(0.66,0.,1.25));
#351 = DIRECTION('',(-1.,-0.,-0.));
#352 = DIRECTION('',(0.,1.,0.));
#353 = ADVANCED_FACE('',(#354),#374,.T.);
#354 = FACE_BOUND('',#355,.T.);
#355 = EDGE_LOOP('',(#356,#365,#372,#373));
#356 = ORIENTED_EDGE('',*,*,#357,.T.);
#357 = EDGE_CURVE('',#358,#358,#360,.T.);
#358 = VERTEX_POINT('',#359);
#359 = CARTESIAN_POINT('',(0.3,0.,0.35));
#360 = CIRCLE('',#361,0.3);
#361 = AXIS2_PLACEMENT_3D('',#362,#363,#364);
#362 = CARTESIAN_POINT('',(0.,0.,0.35));
#363 = DIRECTION('',(0.,0.,1.));
#364 = DIRECTION('',(1.,0.,-0.));
#365 = ORIENTED_EDGE('',*,*,#366,.T.);
#366 = EDGE_CURVE('',#358,#153,#367,.T.);
#367 = CIRCLE('',#368,0.6);
#368 = AXIS2_PLACEMENT_3D('',#369,#370,#371);
#369 = CARTESIAN_POINT('',(0.9,1.102182119233E-16,0.35));
#370 = DIRECTION('',(0.,1.,-0.));
#371 = DIRECTION('',(-1.,0.,4.93432455389E-16));
#372 = ORIENTED_EDGE('',*,*,#152,.T.);
#373 = ORIENTED_EDGE('',*,*,#366,.F.);
#374 = TOROIDAL_SURFACE('',#375,0.9,0.3);
#375 = AXIS2_PLACEMENT_3D('',#376,#377,#378);
#376 = CARTESIAN_POINT('',(0.9,0.,0.35));
#377 = DIRECTION('',(0.,1.,0.));
#378 = DIRECTION('',(-1.,0.,4.93432455389E-16));
#379 = ADVANCED_FACE('',(#380,#391),#394,.T.);
#380 = FACE_BOUND('',#381,.T.);
#381 = EDGE_LOOP('',(#382));
#382 = ORIENTED_EDGE('',*,*,#383,.F.);
#383 = EDGE_CURVE('',#384,#384,#386,.T.);
#384 = VERTEX_POINT('',#385);
#385 = CARTESIAN_POINT('',(5.385,1.25,1.25));
#386 = CIRCLE('',#387,1.25);
#387 = AXIS2_PLACEMENT_3D('',#388,#389,#390);
#388 = CARTESIAN_POINT('',(5.385,0.,1.25));
#389 = DIRECTION('',(1.,0.,0.));
#390 = DIRECTION('',(-0.,1.,0.));
#391 = FACE_BOUND('',#392,.T.);
#392 = EDGE_LOOP('',(#393));
#393 = ORIENTED_EDGE('',*,*,#332,.F.);
#394 = PLANE('',#395);
#395 = AXIS2_PLACEMENT_3D('',#396,#397,#398);
#396 = CARTESIAN_POINT('',(5.385,1.25,1.25));
#397 = DIRECTION('',(-1.,0.,0.));
#398 = DIRECTION('',(0.,0.,-1.));
#399 = ADVANCED_FACE('',(#400),#419,.T.);
#400 = FACE_BOUND('',#401,.T.);
#401 = EDGE_LOOP('',(#402,#410,#411,#412));
#402 = ORIENTED_EDGE('',*,*,#403,.T.);
#403 = EDGE_CURVE('',#404,#358,#406,.T.);
#404 = VERTEX_POINT('',#405);
#405 = CARTESIAN_POINT('',(0.3,-7.347880794884E-17,-3.));
#406 = LINE('',#407,#408);
#407 = CARTESIAN_POINT('',(0.3,0.,-3.));
#408 = VECTOR('',#409,1.);
#409 = DIRECTION('',(0.,0.,1.));
#410 = ORIENTED_EDGE('',*,*,#357,.F.);
#411 = ORIENTED_EDGE('',*,*,#403,.F.);
#412 = ORIENTED_EDGE('',*,*,#413,.T.);
#413 = EDGE_CURVE('',#404,#404,#414,.T.);
#414 = CIRCLE('',#415,0.3);
#415 = AXIS2_PLACEMENT_3D('',#416,#417,#418);
#416 = CARTESIAN_POINT('',(0.,0.,-3.));
#417 = DIRECTION('',(0.,0.,1.));
#418 = DIRECTION('',(1.,0.,-0.));
#419 = CYLINDRICAL_SURFACE('',#420,0.3);
#420 = AXIS2_PLACEMENT_3D('',#421,#422,#423);
#421 = CARTESIAN_POINT('',(0.,0.,-3.));
#422 = DIRECTION('',(0.,0.,1.));
#423 = DIRECTION('',(1.,0.,-0.));
#424 = ADVANCED_FACE('',(#425),#444,.T.);
#425 = FACE_BOUND('',#426,.T.);
#426 = EDGE_LOOP('',(#427,#428,#436,#443));
#427 = ORIENTED_EDGE('',*,*,#383,.T.);
#428 = ORIENTED_EDGE('',*,*,#429,.T.);
#429 = EDGE_CURVE('',#384,#430,#432,.T.);
#430 = VERTEX_POINT('',#431);
#431 = CARTESIAN_POINT('',(6.335,1.25,1.25));
#432 = LINE('',#433,#434);
#433 = CARTESIAN_POINT('',(5.385,1.25,1.25));
#434 = VECTOR('',#435,1.);
#435 = DIRECTION('',(1.,0.,0.));
#436 = ORIENTED_EDGE('',*,*,#437,.F.);
#437 = EDGE_CURVE('',#430,#430,#438,.T.);
#438 = CIRCLE('',#439,1.25);
#439 = AXIS2_PLACEMENT_3D('',#440,#441,#442);
#440 = CARTESIAN_POINT('',(6.335,0.,1.25));
#441 = DIRECTION('',(1.,0.,0.));
#442 = DIRECTION('',(-0.,1.,0.));
#443 = ORIENTED_EDGE('',*,*,#429,.F.);
#444 = CYLINDRICAL_SURFACE('',#445,1.25);
#445 = AXIS2_PLACEMENT_3D('',#446,#447,#448);
#446 = CARTESIAN_POINT('',(5.385,0.,1.25));
#447 = DIRECTION('',(-1.,-0.,-0.));
#448 = DIRECTION('',(0.,1.,0.));
#449 = ADVANCED_FACE('',(#450),#453,.T.);
#450 = FACE_BOUND('',#451,.F.);
#451 = EDGE_LOOP('',(#452));
#452 = ORIENTED_EDGE('',*,*,#413,.T.);
#453 = PLANE('',#454);
#454 = AXIS2_PLACEMENT_3D('',#455,#456,#457);
#455 = CARTESIAN_POINT('',(0.3,0.,-3.));
#456 = DIRECTION('',(0.,0.,-1.));
#457 = DIRECTION('',(-1.,0.,0.));
#458 = ADVANCED_FACE('',(#459),#479,.T.);
#459 = FACE_BOUND('',#460,.T.);
#460 = EDGE_LOOP('',(#461,#470,#471,#472));
#461 = ORIENTED_EDGE('',*,*,#462,.F.);
#462 = EDGE_CURVE('',#430,#463,#465,.T.);
#463 = VERTEX_POINT('',#464);
#464 = CARTESIAN_POINT('',(6.96,0.625,1.25));
#465 = CIRCLE('',#466,0.625);
#466 = AXIS2_PLACEMENT_3D('',#467,#468,#469);
#467 = CARTESIAN_POINT('',(6.335,0.625,1.25));
#468 = DIRECTION('',(0.,0.,-1.));
#469 = DIRECTION('',(0.,1.,0.));
#470 = ORIENTED_EDGE('',*,*,#437,.T.);
#471 = ORIENTED_EDGE('',*,*,#462,.T.);
#472 = ORIENTED_EDGE('',*,*,#473,.F.);
#473 = EDGE_CURVE('',#463,#463,#474,.T.);
#474 = CIRCLE('',#475,0.625);
#475 = AXIS2_PLACEMENT_3D('',#476,#477,#478);
#476 = CARTESIAN_POINT('',(6.96,0.,1.25));
#477 = DIRECTION('',(1.,0.,0.));
#478 = DIRECTION('',(-0.,1.,0.));
#479 = TOROIDAL_SURFACE('',#480,0.625,0.625);
#480 = AXIS2_PLACEMENT_3D('',#481,#482,#483);
#481 = CARTESIAN_POINT('',(6.335,0.,1.25));
#482 = DIRECTION('',(1.,0.,0.));
#483 = DIRECTION('',(-0.,1.,0.));
#484 = ADVANCED_FACE('',(#485,#488),#662,.F.);
#485 = FACE_BOUND('',#486,.F.);
#486 = EDGE_LOOP('',(#487));
#487 = ORIENTED_EDGE('',*,*,#473,.F.);
#488 = FACE_BOUND('',#489,.F.);
#489 = EDGE_LOOP('',(#490));
#490 = ORIENTED_EDGE('',*,*,#491,.F.);
#491 = EDGE_CURVE('',#492,#492,#494,.T.);
#492 = VERTEX_POINT('',#493);
#493 = CARTESIAN_POINT('',(6.96,1.102182119233E-16,0.899909083395));
#494 = B_SPLINE_CURVE_WITH_KNOTS('',6,(#495,#496,#497,#498,#499,#500,
    #501,#502,#503,#504,#505,#506,#507,#508,#509,#510,#511,#512,#513,
    #514,#515,#516,#517,#518,#519,#520,#521,#522,#523,#524,#525,#526,
    #527,#528,#529,#530,#531,#532,#533,#534,#535,#536,#537,#538,#539,
    #540,#541,#542,#543,#544,#545,#546,#547,#548,#549,#550,#551,#552,
    #553,#554,#555,#556,#557,#558,#559,#560,#561,#562,#563,#564,#565,
    #566,#567,#568,#569,#570,#571,#572,#573,#574,#575,#576,#577,#578,
    #579,#580,#581,#582,#583,#584,#585,#586,#587,#588,#589,#590,#591,
    #592,#593,#594,#595,#596,#597,#598,#599,#600,#601,#602,#603,#604,
    #605,#606,#607,#608,#609,#610,#611,#612,#613,#614,#615,#616,#617,
    #618,#619,#620,#621,#622,#623,#624,#625,#626,#627,#628,#629,#630,
    #631,#632,#633,#634,#635,#636,#637,#638,#639,#640,#641,#642,#643,
    #644,#645,#646,#647,#648,#649,#650,#651,#652,#653,#654,#655,#656,
    #657,#658,#659,#660,#661),.UNSPECIFIED.,.T.,.F.,(1,6,5,5,5,5,5,5,5,5
    ,5,5,5,5,5,5,5,5,5,5,5,5,5,5,5,5,5,5,5,5,5,5,5,5,6,1),(
    -3.7454922963E-02,0.,2.522151735631E-02,5.431626764274E-02,
    8.648932873413E-02,0.120698905604,0.15585219498,0.191016701755,
    0.225517033144,0.258939642143,0.291086884381,0.32191412294,
    0.351469698498,0.379846555914,0.407148198058,0.433469525493,
    0.458895614127,0.483540398702,0.505898369155,0.530279933853,
    0.555348100008,0.581270886766,0.608136607836,0.636034631737,
    0.665066137875,0.695331933304,0.726904811218,0.759787311372,
    0.793856187529,0.828799116201,0.864057997078,0.898806507422,
    0.932001552493,0.962545077037,1.,1.025221517356),.UNSPECIFIED.);
#495 = CARTESIAN_POINT('',(6.96,0.,0.899909083395));
#496 = CARTESIAN_POINT('',(6.96,-9.860167462582E-03,0.89990896861));
#497 = CARTESIAN_POINT('',(6.96,-1.96044152314E-02,0.900333777569));
#498 = CARTESIAN_POINT('',(6.96,-2.906856746895E-02,0.901162791225));
#499 = CARTESIAN_POINT('',(6.96,-3.818494668051E-02,0.902337445313));
#500 = CARTESIAN_POINT('',(6.96,-4.697397432956E-02,0.903804960014));
#501 = CARTESIAN_POINT('',(6.96,-6.54122858756E-02,0.907588661461));
#502 = CARTESIAN_POINT('',(6.96,-7.491985816654E-02,0.909985989386));
#503 = CARTESIAN_POINT('',(6.96,-8.408849098391E-02,0.912709553602));
#504 = CARTESIAN_POINT('',(6.96,-9.294310465939E-02,0.915726321464));
#505 = CARTESIAN_POINT('',(6.96,-0.10150496885,0.919011549987));
#506 = CARTESIAN_POINT('',(6.96,-0.118958221281,0.926453836747));
#507 = CARTESIAN_POINT('',(6.96,-0.127787715696,0.930666010737));
#508 = CARTESIAN_POINT('',(6.96,-0.136306161655,0.935155928941));
#509 = CARTESIAN_POINT('',(6.96,-0.144532121634,0.939904049757));
#510 = CARTESIAN_POINT('',(6.96,-0.152479877126,0.944895641374));
#511 = CARTESIAN_POINT('',(6.96,-0.168328600516,0.955672815412));
#512 = CARTESIAN_POINT('',(6.96,-0.176194773963,0.961488214941));
#513 = CARTESIAN_POINT('',(6.96,-0.183772608747,0.967551566344));
#514 = CARTESIAN_POINT('',(6.96,-0.191071765541,0.973851742068));
#515 = CARTESIAN_POINT('',(6.96,-0.198098606692,0.980379951052));
#516 = CARTESIAN_POINT('',(6.96,-0.211800202804,0.994065659178));
#517 = CARTESIAN_POINT('',(6.96,-0.218460270558,1.001234983766));
#518 = CARTESIAN_POINT('',(6.96,-0.224839910615,1.00863041136));
#519 = CARTESIAN_POINT('',(6.96,-0.230940211566,1.016245364777));
#520 = CARTESIAN_POINT('',(6.96,-0.236759839456,1.024073990789));
#521 = CARTESIAN_POINT('',(6.96,-0.247832003876,1.040150861324));
#522 = CARTESIAN_POINT('',(6.96,-0.253084568675,1.048398903269));
#523 = CARTESIAN_POINT('',(6.96,-0.258049049185,1.05685004652));
#524 = CARTESIAN_POINT('',(6.96,-0.2627200155,1.065498685566));
#525 = CARTESIAN_POINT('',(6.96,-0.267090290802,1.074338848812));
#526 = CARTESIAN_POINT('',(6.96,-0.275134913375,1.092219064394));
#527 = CARTESIAN_POINT('',(6.96,-0.278821000575,1.10125194666));
#528 = CARTESIAN_POINT('',(6.96,-0.282200788118,1.110456818481));
#529 = CARTESIAN_POINT('',(6.96,-0.285264726102,1.119826534893));
#530 = CARTESIAN_POINT('',(6.96,-0.288002139566,1.129352832871));
#531 = CARTESIAN_POINT('',(6.96,-0.292725370416,1.148397637921));
#532 = CARTESIAN_POINT('',(6.96,-0.29473215882,1.157906911838));
#533 = CARTESIAN_POINT('',(6.96,-0.296410834199,1.16754558505));
#534 = CARTESIAN_POINT('',(6.96,-0.297750172302,1.177303521997));
#535 = CARTESIAN_POINT('',(6.96,-0.298738484134,1.187169019587));
#536 = CARTESIAN_POINT('',(6.96,-0.29996489055,1.20670853133));
#537 = CARTESIAN_POINT('',(6.96,-0.300230362775,1.216375375657));
#538 = CARTESIAN_POINT('',(6.96,-0.300149187552,1.22611747583));
#539 = CARTESIAN_POINT('',(6.96,-0.299710732489,1.235921267953));
#540 = CARTESIAN_POINT('',(6.96,-0.298904577874,1.245771488577));
#541 = CARTESIAN_POINT('',(6.96,-0.296585075031,1.265125180201));
#542 = CARTESIAN_POINT('',(6.96,-0.295102319855,1.27462625024));
#543 = CARTESIAN_POINT('',(6.96,-0.293263243612,1.284139361954));
#544 = CARTESIAN_POINT('',(6.96,-0.29105964956,1.293647958229));
#545 = CARTESIAN_POINT('',(6.96,-0.288484151749,1.303133947704));
#546 = CARTESIAN_POINT('',(6.96,-0.282698057797,1.321631888118));
#547 = CARTESIAN_POINT('',(6.96,-0.279518212828,1.330647292743));
#548 = CARTESIAN_POINT('',(6.96,-0.275984865526,1.339606568389));
#549 = CARTESIAN_POINT('',(6.96,-0.27209347283,1.348491205415));
#550 = CARTESIAN_POINT('',(6.96,-0.26784072321,1.357281534804));
#551 = CARTESIAN_POINT('',(6.96,-0.258792456003,1.374285939199));
#552 = CARTESIAN_POINT('',(6.96,-0.254025471274,1.382509099941));
#553 = CARTESIAN_POINT('',(6.96,-0.248921774536,1.390607746147));
#554 = CARTESIAN_POINT('',(6.96,-0.24348099529,1.398562707415));
#555 = CARTESIAN_POINT('',(6.96,-0.237704200488,1.406354107177));
#556 = CARTESIAN_POINT('',(6.96,-0.225715116467,1.421280374005));
#557 = CARTESIAN_POINT('',(6.96,-0.219527700064,1.428429026844));
#558 = CARTESIAN_POINT('',(6.96,-0.213033898729,1.435388985848));
#559 = CARTESIAN_POINT('',(6.96,-0.206237442407,1.442141620875));
#560 = CARTESIAN_POINT('',(6.96,-0.199143537578,1.448668007007));
#561 = CARTESIAN_POINT('',(6.96,-0.184639358866,1.461004311837));
#562 = CARTESIAN_POINT('',(6.96,-0.177249661366,1.46683162664));
#563 = CARTESIAN_POINT('',(6.96,-0.169595743404,1.472413651413));
#564 = CARTESIAN_POINT('',(6.96,-0.161685063001,1.477733185029));
#565 = CARTESIAN_POINT('',(6.96,-0.153526567552,1.482773042789));
#566 = CARTESIAN_POINT('',(6.96,-0.137020377957,1.492097733275));
#567 = CARTESIAN_POINT('',(6.96,-0.128688741655,1.496402506097));
#568 = CARTESIAN_POINT('',(6.96,-0.120145015698,1.500414870926));
#569 = CARTESIAN_POINT('',(6.96,-0.111400273136,1.504119613979));
#570 = CARTESIAN_POINT('',(6.96,-0.102467429294,1.507501811642));
#571 = CARTESIAN_POINT('',(6.96,-8.453487359643E-02,1.513498183633));
#572 = CARTESIAN_POINT('',(6.96,-7.554644720911E-02,1.51613308184));
#573 = CARTESIAN_POINT('',(6.96,-6.640854708582E-02,1.518437839156));
#574 = CARTESIAN_POINT('',(6.96,-5.713780068804E-02,1.520399910874));
#575 = CARTESIAN_POINT('',(6.96,-4.775487845774E-02,1.522007893513));
#576 = CARTESIAN_POINT('',(6.96,-2.969292548283E-02,1.52437977876));
#577 = CARTESIAN_POINT('',(6.96,-2.102889094976E-02,1.525208924822));
#578 = CARTESIAN_POINT('',(6.96,-1.231404153143E-02,1.525730890851));
#579 = CARTESIAN_POINT('',(6.96,-3.572679276074E-03,1.525941220805));
#580 = CARTESIAN_POINT('',(6.96,5.168243033088E-03,1.52583907475));
#581 = CARTESIAN_POINT('',(6.96,2.337844678287E-02,1.524978413229));
#582 = CARTESIAN_POINT('',(6.96,3.284373024997E-02,1.524160868463));
#583 = CARTESIAN_POINT('',(6.96,4.224172239025E-02,1.522980299422));
#584 = CARTESIAN_POINT('',(6.96,5.154503802108E-02,1.521444853212));
#585 = CARTESIAN_POINT('',(6.96,6.073215666605E-02,1.519565119195));
#586 = CARTESIAN_POINT('',(6.96,7.909771199475E-02,1.515080715405));
#587 = CARTESIAN_POINT('',(6.96,8.82675531125E-02,1.512456387335));
#588 = CARTESIAN_POINT('',(6.96,9.727920151967E-02,1.509494357792));
#589 = CARTESIAN_POINT('',(6.96,0.106117302403,1.506208331254));
#590 = CARTESIAN_POINT('',(6.96,0.114768890523,1.502612503667));
#591 = CARTESIAN_POINT('',(6.96,0.1319661163,1.494697932395));
#592 = CARTESIAN_POINT('',(6.96,0.140497712216,1.490358583428));
#593 = CARTESIAN_POINT('',(6.96,0.148806071355,1.485719654426));
#594 = CARTESIAN_POINT('',(6.96,0.156880646133,1.480797412311));
#595 = CARTESIAN_POINT('',(6.96,0.164712447986,1.475608252032));
#596 = CARTESIAN_POINT('',(6.96,0.180151425777,1.46453127229));
#597 = CARTESIAN_POINT('',(6.96,0.187739967164,1.45862481836));
#598 = CARTESIAN_POINT('',(6.96,0.195051332691,1.452467727028));
#599 = CARTESIAN_POINT('',(6.96,0.20207865613,1.446078243141));
#600 = CARTESIAN_POINT('',(6.96,0.208816543867,1.439474464151));
#601 = CARTESIAN_POINT('',(6.96,0.221953238059,1.425612923524));
#602 = CARTESIAN_POINT('',(6.96,0.228328994524,1.418339683896));
#603 = CARTESIAN_POINT('',(6.96,0.234383964852,1.410874723556));
#604 = CARTESIAN_POINT('',(6.96,0.240115238483,1.403237627432));
#605 = CARTESIAN_POINT('',(6.96,0.245521373748,1.395447463058));
#606 = CARTESIAN_POINT('',(6.96,0.25588986733,1.379276120213));
#607 = CARTESIAN_POINT('',(6.96,0.260825161615,1.370883687614));
#608 = CARTESIAN_POINT('',(6.96,0.265408347201,1.362366366749));
#609 = CARTESIAN_POINT('',(6.96,0.269640836772,1.353744077057));
#610 = CARTESIAN_POINT('',(6.96,0.273525389215,1.345035773446));
#611 = CARTESIAN_POINT('',(6.96,0.280757370989,1.327109983642));
#612 = CARTESIAN_POINT('',(6.96,0.284074778857,1.317886520225));
#613 = CARTESIAN_POINT('',(6.96,0.28702301626,1.308609389122));
#614 = CARTESIAN_POINT('',(6.96,0.289607785113,1.29929753334));
#615 = CARTESIAN_POINT('',(6.96,0.291835806202,1.289968505808));
#616 = CARTESIAN_POINT('',(6.96,0.295674983107,1.270905490066));
#617 = CARTESIAN_POINT('',(6.96,0.297255138129,1.261171409814));
#618 = CARTESIAN_POINT('',(6.96,0.298464076807,1.251454505978));
#619 = CARTESIAN_POINT('',(6.96,0.299311079865,1.241771395371));
#620 = CARTESIAN_POINT('',(6.96,0.299805916194,1.232137034265));
#621 = CARTESIAN_POINT('',(6.96,0.300118111197,1.212595339038));
#622 = CARTESIAN_POINT('',(6.96,0.299906304864,1.202693342182));
#623 = CARTESIAN_POINT('',(6.96,0.299334986276,1.192873677979));
#624 = CARTESIAN_POINT('',(6.96,0.298415549391,1.183149632812));
#625 = CARTESIAN_POINT('',(6.96,0.29715921972,1.173532829284));
#626 = CARTESIAN_POINT('',(6.96,0.293937801394,1.154190874));
#627 = CARTESIAN_POINT('',(6.96,0.291948588365,1.144474495238));
#628 = CARTESIAN_POINT('',(6.96,0.28962167445,1.134895115228));
#629 = CARTESIAN_POINT('',(6.96,0.286968474246,1.125462408515));
#630 = CARTESIAN_POINT('',(6.96,0.283999557728,1.116184698885));
#631 = CARTESIAN_POINT('',(6.96,0.277365720041,1.097719338125));
#632 = CARTESIAN_POINT('',(6.96,0.273684735103,1.088540329457));
#633 = CARTESIAN_POINT('',(6.96,0.269692170683,1.079539418357));
#634 = CARTESIAN_POINT('',(6.96,0.265397023465,1.070723360764));
#635 = CARTESIAN_POINT('',(6.96,0.260806811571,1.062098183552));
#636 = CARTESIAN_POINT('',(6.96,0.251004219697,1.045163947022));
#637 = CARTESIAN_POINT('',(6.96,0.245786411547,1.036858741787));
#638 = CARTESIAN_POINT('',(6.96,0.240280395782,1.028758943151));
#639 = CARTESIAN_POINT('',(6.96,0.234490304979,1.02087012779));
#640 = CARTESIAN_POINT('',(6.96,0.22841815861,1.013198074729));
#641 = CARTESIAN_POINT('',(6.96,0.215801547815,0.998407234883));
#642 = CARTESIAN_POINT('',(6.96,0.209264913083,0.99128247471));
#643 = CARTESIAN_POINT('',(6.96,0.202454000094,0.984380026053));
#644 = CARTESIAN_POINT('',(6.96,0.195365961507,0.977706983911));
#645 = CARTESIAN_POINT('',(6.96,0.187995061392,0.971271997058));
#646 = CARTESIAN_POINT('',(6.96,0.173012837564,0.959175029375));
#647 = CARTESIAN_POINT('',(6.96,0.165426529007,0.953492099376));
#648 = CARTESIAN_POINT('',(6.96,0.157566437944,0.948044934321));
#649 = CARTESIAN_POINT('',(6.96,0.149421373308,0.942845601948));
#650 = CARTESIAN_POINT('',(6.96,0.140976264593,0.937909781461));
#651 = CARTESIAN_POINT('',(6.96,0.124148131162,0.928975627958));
#652 = CARTESIAN_POINT('',(6.96,0.115814071992,0.924934439518));
#653 = CARTESIAN_POINT('',(6.96,0.107194037794,0.921149181784));
#654 = CARTESIAN_POINT('',(6.96,9.826937450524E-02,0.917639774974));
#655 = CARTESIAN_POINT('',(6.96,8.901696421491E-02,0.914432828225));
#656 = CARTESIAN_POINT('',(6.96,6.762356037127E-02,0.908046964389));
#657 = CARTESIAN_POINT('',(6.96,5.540377745077E-02,0.905068595899));
#658 = CARTESIAN_POINT('',(6.96,4.253681255711E-02,0.902629529668));
#659 = CARTESIAN_POINT('',(6.96,2.893994360873E-02,0.900849442899));
#660 = CARTESIAN_POINT('',(6.96,1.46772221458E-02,0.899909046356));
#661 = CARTESIAN_POINT('',(6.96,0.,0.899909083395));
#662 = PLANE('',#663);
#663 = AXIS2_PLACEMENT_3D('',#664,#665,#666);
#664 = CARTESIAN_POINT('',(6.96,1.25,1.25));
#665 = DIRECTION('',(-1.,0.,0.));
#666 = DIRECTION('',(0.,0.,-1.));
#667 = ADVANCED_FACE('',(#668),#688,.T.);
#668 = FACE_BOUND('',#669,.T.);
#669 = EDGE_LOOP('',(#670,#671,#680,#687));
#670 = ORIENTED_EDGE('',*,*,#491,.F.);
#671 = ORIENTED_EDGE('',*,*,#672,.T.);
#672 = EDGE_CURVE('',#492,#673,#675,.T.);
#673 = VERTEX_POINT('',#674);
#674 = CARTESIAN_POINT('',(7.32,0.,0.35));
#675 = CIRCLE('',#676,0.6);
#676 = AXIS2_PLACEMENT_3D('',#677,#678,#679);
#677 = CARTESIAN_POINT('',(6.72,1.102182119233E-16,0.35));
#678 = DIRECTION('',(0.,1.,0.));
#679 = DIRECTION('',(0.,-0.,1.));
#680 = ORIENTED_EDGE('',*,*,#681,.T.);
#681 = EDGE_CURVE('',#673,#673,#682,.T.);
#682 = CIRCLE('',#683,0.3);
#683 = AXIS2_PLACEMENT_3D('',#684,#685,#686);
#684 = CARTESIAN_POINT('',(7.62,0.,0.35));
#685 = DIRECTION('',(3.828568698927E-16,-0.,1.));
#686 = DIRECTION('',(1.,0.,-3.828568698927E-16));
#687 = ORIENTED_EDGE('',*,*,#672,.F.);
#688 = TOROIDAL_SURFACE('',#689,0.9,0.3);
#689 = AXIS2_PLACEMENT_3D('',#690,#691,#692);
#690 = CARTESIAN_POINT('',(6.72,0.,0.35));
#691 = DIRECTION('',(0.,1.,0.));
#692 = DIRECTION('',(0.,-0.,1.));
#693 = ADVANCED_FACE('',(#694),#713,.T.);
#694 = FACE_BOUND('',#695,.T.);
#695 = EDGE_LOOP('',(#696,#704,#711,#712));
#696 = ORIENTED_EDGE('',*,*,#697,.T.);
#697 = EDGE_CURVE('',#673,#698,#700,.T.);
#698 = VERTEX_POINT('',#699);
#699 = CARTESIAN_POINT('',(7.32,-7.347880794884E-17,-3.));
#700 = LINE('',#701,#702);
#701 = CARTESIAN_POINT('',(7.32,0.,0.35));
#702 = VECTOR('',#703,1.);
#703 = DIRECTION('',(0.,0.,-1.));
#704 = ORIENTED_EDGE('',*,*,#705,.F.);
#705 = EDGE_CURVE('',#698,#698,#706,.T.);
#706 = CIRCLE('',#707,0.3);
#707 = AXIS2_PLACEMENT_3D('',#708,#709,#710);
#708 = CARTESIAN_POINT('',(7.62,0.,-3.));
#709 = DIRECTION('',(0.,0.,-1.));
#710 = DIRECTION('',(-1.,0.,0.));
#711 = ORIENTED_EDGE('',*,*,#697,.F.);
#712 = ORIENTED_EDGE('',*,*,#681,.F.);
#713 = CYLINDRICAL_SURFACE('',#714,0.3);
#714 = AXIS2_PLACEMENT_3D('',#715,#716,#717);
#715 = CARTESIAN_POINT('',(7.62,0.,0.35));
#716 = DIRECTION('',(0.,0.,-1.));
#717 = DIRECTION('',(-1.,0.,0.));
#718 = ADVANCED_FACE('',(#719),#722,.F.);
#719 = FACE_BOUND('',#720,.T.);
#720 = EDGE_LOOP('',(#721));
#721 = ORIENTED_EDGE('',*,*,#705,.T.);
#722 = PLANE('',#723);
#723 = AXIS2_PLACEMENT_3D('',#724,#725,#726);
#724 = CARTESIAN_POINT('',(7.32,0.,-3.));
#725 = DIRECTION('',(0.,0.,1.));
#726 = DIRECTION('',(1.,0.,-0.));
#727 = ( GEOMETRIC_REPRESENTATION_CONTEXT(3) 
GLOBAL_UNCERTAINTY_ASSIGNED_CONTEXT((#731)) GLOBAL_UNIT_ASSIGNED_CONTEXT
((#728,#729,#730)) REPRESENTATION_CONTEXT('Context #1',
  '3D Context with UNIT and UNCERTAINTY') );
#728 = ( LENGTH_UNIT() NAMED_UNIT(*) SI_UNIT(.MILLI.,.METRE.) );
#729 = ( NAMED_UNIT(*) PLANE_ANGLE_UNIT() SI_UNIT($,.RADIAN.) );
#730 = ( NAMED_UNIT(*) SI_UNIT($,.STERADIAN.) SOLID_ANGLE_UNIT() );
#731 = UNCERTAINTY_MEASURE_WITH_UNIT(LENGTH_MEASURE(1.E-07),#728,
  'distance_accuracy_value','confusion accuracy');
#732 = CONTEXT_DEPENDENT_SHAPE_REPRESENTATION(#733,#735);
#733 = ( REPRESENTATION_RELATIONSHIP('','',#63,#40) 
REPRESENTATION_RELATIONSHIP_WITH_TRANSFORMATION(#734) 
SHAPE_REPRESENTATION_RELATIONSHIP() );
#734 = ITEM_DEFINED_TRANSFORMATION('','',#11,#41);
#735 = PRODUCT_DEFINITION_SHAPE('Placement','Placement of an item',#736
  );
#736 = NEXT_ASSEMBLY_USAGE_OCCURRENCE('1','=>[0:1:1:3]','',#35,#58,$);
#737 = PRODUCT_RELATED_PRODUCT_CATEGORY('part',$,(#60));
#738 = SHAPE_DEFINITION_REPRESENTATION(#739,#745);
#739 = PRODUCT_DEFINITION_SHAPE('','',#740);
#740 = PRODUCT_DEFINITION('design','',#741,#744);
#741 = PRODUCT_DEFINITION_FORMATION('','',#742);
#742 = PRODUCT(
  'electronic_resistor_quarter_watt_through_hole_6800000_ohm_render_pad'
  ,
  'electronic_resistor_quarter_watt_through_hole_6800000_ohm_render_pad'
  ,'',(#743));
#743 = PRODUCT_CONTEXT('',#2,'mechanical');
#744 = PRODUCT_DEFINITION_CONTEXT('part definition',#2,'design');
#745 = SHAPE_REPRESENTATION('',(#11,#746,#838,#930,#1022,#1114,#1206),
  #1298);
#746 = MANIFOLD_SOLID_BREP('',#747);
#747 = CLOSED_SHELL('',(#748,#781,#801,#821));
#748 = ADVANCED_FACE('',(#749),#776,.T.);
#749 = FACE_BOUND('',#750,.F.);
#750 = EDGE_LOOP('',(#751,#761,#768,#769));
#751 = ORIENTED_EDGE('',*,*,#752,.T.);
#752 = EDGE_CURVE('',#753,#755,#757,.T.);
#753 = VERTEX_POINT('',#754);
#754 = CARTESIAN_POINT('',(0.799999,0.,1.51));
#755 = VERTEX_POINT('',#756);
#756 = CARTESIAN_POINT('',(0.799999,0.,1.55));
#757 = LINE('',#758,#759);
#758 = CARTESIAN_POINT('',(0.799999,0.,1.51));
#759 = VECTOR('',#760,1.);
#760 = DIRECTION('',(0.,0.,1.));
#761 = ORIENTED_EDGE('',*,*,#762,.T.);
#762 = EDGE_CURVE('',#755,#755,#763,.T.);
#763 = CIRCLE('',#764,0.799999);
#764 = AXIS2_PLACEMENT_3D('',#765,#766,#767);
#765 = CARTESIAN_POINT('',(0.,0.,1.55));
#766 = DIRECTION('',(0.,0.,1.));
#767 = DIRECTION('',(1.,0.,-0.));
#768 = ORIENTED_EDGE('',*,*,#752,.F.);
#769 = ORIENTED_EDGE('',*,*,#770,.F.);
#770 = EDGE_CURVE('',#753,#753,#771,.T.);
#771 = CIRCLE('',#772,0.799999);
#772 = AXIS2_PLACEMENT_3D('',#773,#774,#775);
#773 = CARTESIAN_POINT('',(0.,-0.,1.51));
#774 = DIRECTION('',(0.,0.,1.));
#775 = DIRECTION('',(1.,0.,-0.));
#776 = CYLINDRICAL_SURFACE('',#777,0.799999);
#777 = AXIS2_PLACEMENT_3D('',#778,#779,#780);
#778 = CARTESIAN_POINT('',(0.,-0.,1.51));
#779 = DIRECTION('',(-0.,-0.,-1.));
#780 = DIRECTION('',(1.,0.,-0.));
#781 = ADVANCED_FACE('',(#782,#785),#796,.F.);
#782 = FACE_BOUND('',#783,.F.);
#783 = EDGE_LOOP('',(#784));
#784 = ORIENTED_EDGE('',*,*,#770,.T.);
#785 = FACE_BOUND('',#786,.F.);
#786 = EDGE_LOOP('',(#787));
#787 = ORIENTED_EDGE('',*,*,#788,.T.);
#788 = EDGE_CURVE('',#789,#789,#791,.T.);
#789 = VERTEX_POINT('',#790);
#790 = CARTESIAN_POINT('',(-6.162975822039E-33,-0.375,1.51));
#791 = CIRCLE('',#792,0.375);
#792 = AXIS2_PLACEMENT_3D('',#793,#794,#795);
#793 = CARTESIAN_POINT('',(-4.163336342344E-17,6.938893903907E-17,1.51)
  );
#794 = DIRECTION('',(-0.,0.,-1.));
#795 = DIRECTION('',(1.110223024625E-16,-1.,-0.));
#796 = PLANE('',#797);
#797 = AXIS2_PLACEMENT_3D('',#798,#799,#800);
#798 = CARTESIAN_POINT('',(0.,0.,1.51));
#799 = DIRECTION('',(0.,0.,1.));
#800 = DIRECTION('',(1.,0.,-0.));
#801 = ADVANCED_FACE('',(#802,#805),#816,.T.);
#802 = FACE_BOUND('',#803,.T.);
#803 = EDGE_LOOP('',(#804));
#804 = ORIENTED_EDGE('',*,*,#762,.T.);
#805 = FACE_BOUND('',#806,.T.);
#806 = EDGE_LOOP('',(#807));
#807 = ORIENTED_EDGE('',*,*,#808,.T.);
#808 = EDGE_CURVE('',#809,#809,#811,.T.);
#809 = VERTEX_POINT('',#810);
#810 = CARTESIAN_POINT('',(-6.162975822039E-33,-0.375,1.55));
#811 = CIRCLE('',#812,0.375);
#812 = AXIS2_PLACEMENT_3D('',#813,#814,#815);
#813 = CARTESIAN_POINT('',(-4.163336342344E-17,6.938893903907E-17,1.55)
  );
#814 = DIRECTION('',(-0.,0.,-1.));
#815 = DIRECTION('',(1.110223024625E-16,-1.,-0.));
#816 = PLANE('',#817);
#817 = AXIS2_PLACEMENT_3D('',#818,#819,#820);
#818 = CARTESIAN_POINT('',(0.,0.,1.55));
#819 = DIRECTION('',(0.,0.,1.));
#820 = DIRECTION('',(1.,0.,-0.));
#821 = ADVANCED_FACE('',(#822),#833,.F.);
#822 = FACE_BOUND('',#823,.T.);
#823 = EDGE_LOOP('',(#824,#825,#831,#832));
#824 = ORIENTED_EDGE('',*,*,#788,.T.);
#825 = ORIENTED_EDGE('',*,*,#826,.T.);
#826 = EDGE_CURVE('',#789,#809,#827,.T.);
#827 = LINE('',#828,#829);
#828 = CARTESIAN_POINT('',(-6.162975822039E-33,-0.375,-4.6E-02));
#829 = VECTOR('',#830,1.);
#830 = DIRECTION('',(0.,0.,1.));
#831 = ORIENTED_EDGE('',*,*,#808,.F.);
#832 = ORIENTED_EDGE('',*,*,#826,.F.);
#833 = CYLINDRICAL_SURFACE('',#834,0.375);
#834 = AXIS2_PLACEMENT_3D('',#835,#836,#837);
#835 = CARTESIAN_POINT('',(-4.163336342344E-17,6.938893903907E-17,
    -4.6E-02));
#836 = DIRECTION('',(-0.,0.,-1.));
#837 = DIRECTION('',(1.110223024625E-16,-1.,-0.));
#838 = MANIFOLD_SOLID_BREP('',#839);
#839 = CLOSED_SHELL('',(#840,#873,#893,#913));
#840 = ADVANCED_FACE('',(#841),#868,.T.);
#841 = FACE_BOUND('',#842,.T.);
#842 = EDGE_LOOP('',(#843,#853,#860,#861));
#843 = ORIENTED_EDGE('',*,*,#844,.T.);
#844 = EDGE_CURVE('',#845,#847,#849,.T.);
#845 = VERTEX_POINT('',#846);
#846 = CARTESIAN_POINT('',(0.799999,0.,0.));
#847 = VERTEX_POINT('',#848);
#848 = CARTESIAN_POINT('',(0.799999,0.,-4.E-02));
#849 = LINE('',#850,#851);
#850 = CARTESIAN_POINT('',(0.799999,0.,0.));
#851 = VECTOR('',#852,1.);
#852 = DIRECTION('',(0.,0.,-1.));
#853 = ORIENTED_EDGE('',*,*,#854,.T.);
#854 = EDGE_CURVE('',#847,#847,#855,.T.);
#855 = CIRCLE('',#856,0.799999);
#856 = AXIS2_PLACEMENT_3D('',#857,#858,#859);
#857 = CARTESIAN_POINT('',(0.,0.,-4.E-02));
#858 = DIRECTION('',(0.,0.,1.));
#859 = DIRECTION('',(1.,0.,-0.));
#860 = ORIENTED_EDGE('',*,*,#844,.F.);
#861 = ORIENTED_EDGE('',*,*,#862,.F.);
#862 = EDGE_CURVE('',#845,#845,#863,.T.);
#863 = CIRCLE('',#864,0.799999);
#864 = AXIS2_PLACEMENT_3D('',#865,#866,#867);
#865 = CARTESIAN_POINT('',(0.,-0.,0.));
#866 = DIRECTION('',(0.,0.,1.));
#867 = DIRECTION('',(1.,0.,-0.));
#868 = CYLINDRICAL_SURFACE('',#869,0.799999);
#869 = AXIS2_PLACEMENT_3D('',#870,#871,#872);
#870 = CARTESIAN_POINT('',(0.,-0.,0.));
#871 = DIRECTION('',(0.,0.,1.));
#872 = DIRECTION('',(1.,0.,-0.));
#873 = ADVANCED_FACE('',(#874,#877),#888,.F.);
#874 = FACE_BOUND('',#875,.F.);
#875 = EDGE_LOOP('',(#876));
#876 = ORIENTED_EDGE('',*,*,#862,.F.);
#877 = FACE_BOUND('',#878,.F.);
#878 = EDGE_LOOP('',(#879));
#879 = ORIENTED_EDGE('',*,*,#880,.F.);
#880 = EDGE_CURVE('',#881,#881,#883,.T.);
#881 = VERTEX_POINT('',#882);
#882 = CARTESIAN_POINT('',(-6.162975822039E-33,-0.375,0.));
#883 = CIRCLE('',#884,0.375);
#884 = AXIS2_PLACEMENT_3D('',#885,#886,#887);
#885 = CARTESIAN_POINT('',(-4.163336342344E-17,6.938893903907E-17,0.));
#886 = DIRECTION('',(-0.,0.,-1.));
#887 = DIRECTION('',(1.110223024625E-16,-1.,-0.));
#888 = PLANE('',#889);
#889 = AXIS2_PLACEMENT_3D('',#890,#891,#892);
#890 = CARTESIAN_POINT('',(0.,0.,0.));
#891 = DIRECTION('',(-0.,-0.,-1.));
#892 = DIRECTION('',(-1.,0.,0.));
#893 = ADVANCED_FACE('',(#894,#897),#908,.T.);
#894 = FACE_BOUND('',#895,.T.);
#895 = EDGE_LOOP('',(#896));
#896 = ORIENTED_EDGE('',*,*,#854,.F.);
#897 = FACE_BOUND('',#898,.T.);
#898 = EDGE_LOOP('',(#899));
#899 = ORIENTED_EDGE('',*,*,#900,.F.);
#900 = EDGE_CURVE('',#901,#901,#903,.T.);
#901 = VERTEX_POINT('',#902);
#902 = CARTESIAN_POINT('',(-6.162975822039E-33,-0.375,-4.E-02));
#903 = CIRCLE('',#904,0.375);
#904 = AXIS2_PLACEMENT_3D('',#905,#906,#907);
#905 = CARTESIAN_POINT('',(-4.163336342344E-17,6.938893903907E-17,
    -4.E-02));
#906 = DIRECTION('',(-0.,0.,-1.));
#907 = DIRECTION('',(1.110223024625E-16,-1.,-0.));
#908 = PLANE('',#909);
#909 = AXIS2_PLACEMENT_3D('',#910,#911,#912);
#910 = CARTESIAN_POINT('',(0.,0.,-4.E-02));
#911 = DIRECTION('',(-0.,-0.,-1.));
#912 = DIRECTION('',(-1.,0.,0.));
#913 = ADVANCED_FACE('',(#914),#925,.F.);
#914 = FACE_BOUND('',#915,.T.);
#915 = EDGE_LOOP('',(#916,#917,#923,#924));
#916 = ORIENTED_EDGE('',*,*,#900,.T.);
#917 = ORIENTED_EDGE('',*,*,#918,.T.);
#918 = EDGE_CURVE('',#901,#881,#919,.T.);
#919 = LINE('',#920,#921);
#920 = CARTESIAN_POINT('',(-6.162975822039E-33,-0.375,-4.6E-02));
#921 = VECTOR('',#922,1.);
#922 = DIRECTION('',(0.,0.,1.));
#923 = ORIENTED_EDGE('',*,*,#880,.F.);
#924 = ORIENTED_EDGE('',*,*,#918,.F.);
#925 = CYLINDRICAL_SURFACE('',#926,0.375);
#926 = AXIS2_PLACEMENT_3D('',#927,#928,#929);
#927 = CARTESIAN_POINT('',(-4.163336342344E-17,6.938893903907E-17,
    -4.6E-02));
#928 = DIRECTION('',(-0.,0.,-1.));
#929 = DIRECTION('',(1.110223024625E-16,-1.,-0.));
#930 = MANIFOLD_SOLID_BREP('',#931);
#931 = CLOSED_SHELL('',(#932,#965,#985,#1005));
#932 = ADVANCED_FACE('',(#933),#960,.T.);
#933 = FACE_BOUND('',#934,.F.);
#934 = EDGE_LOOP('',(#935,#945,#952,#953));
#935 = ORIENTED_EDGE('',*,*,#936,.T.);
#936 = EDGE_CURVE('',#937,#939,#941,.T.);
#937 = VERTEX_POINT('',#938);
#938 = CARTESIAN_POINT('',(0.,-0.4,-4.E-02));
#939 = VERTEX_POINT('',#940);
#940 = CARTESIAN_POINT('',(0.,-0.4,1.55));
#941 = LINE('',#942,#943);
#942 = CARTESIAN_POINT('',(0.,-0.4,-4.E-02));
#943 = VECTOR('',#944,1.);
#944 = DIRECTION('',(0.,0.,1.));
#945 = ORIENTED_EDGE('',*,*,#946,.T.);
#946 = EDGE_CURVE('',#939,#939,#947,.T.);
#947 = CIRCLE('',#948,0.4);
#948 = AXIS2_PLACEMENT_3D('',#949,#950,#951);
#949 = CARTESIAN_POINT('',(-4.163336342344E-17,6.938893903907E-17,1.55)
  );
#950 = DIRECTION('',(0.,-0.,1.));
#951 = DIRECTION('',(1.040834085586E-16,-1.,-0.));
#952 = ORIENTED_EDGE('',*,*,#936,.F.);
#953 = ORIENTED_EDGE('',*,*,#954,.F.);
#954 = EDGE_CURVE('',#937,#937,#955,.T.);
#955 = CIRCLE('',#956,0.4);
#956 = AXIS2_PLACEMENT_3D('',#957,#958,#959);
#957 = CARTESIAN_POINT('',(-4.163336342344E-17,6.938893903907E-17,
    -4.E-02));
#958 = DIRECTION('',(0.,-0.,1.));
#959 = DIRECTION('',(1.040834085586E-16,-1.,-0.));
#960 = CYLINDRICAL_SURFACE('',#961,0.4);
#961 = AXIS2_PLACEMENT_3D('',#962,#963,#964);
#962 = CARTESIAN_POINT('',(-4.163336342344E-17,6.938893903907E-17,
    -4.E-02));
#963 = DIRECTION('',(-0.,0.,-1.));
#964 = DIRECTION('',(1.040834085586E-16,-1.,-0.));
#965 = ADVANCED_FACE('',(#966,#969),#980,.F.);
#966 = FACE_BOUND('',#967,.F.);
#967 = EDGE_LOOP('',(#968));
#968 = ORIENTED_EDGE('',*,*,#954,.T.);
#969 = FACE_BOUND('',#970,.F.);
#970 = EDGE_LOOP('',(#971));
#971 = ORIENTED_EDGE('',*,*,#972,.T.);
#972 = EDGE_CURVE('',#973,#973,#975,.T.);
#973 = VERTEX_POINT('',#974);
#974 = CARTESIAN_POINT('',(-6.162975822039E-33,-0.375,-4.E-02));
#975 = CIRCLE('',#976,0.375);
#976 = AXIS2_PLACEMENT_3D('',#977,#978,#979);
#977 = CARTESIAN_POINT('',(-4.163336342344E-17,6.938893903907E-17,
    -4.E-02));
#978 = DIRECTION('',(-0.,0.,-1.));
#979 = DIRECTION('',(1.110223024625E-16,-1.,-0.));
#980 = PLANE('',#981);
#981 = AXIS2_PLACEMENT_3D('',#982,#983,#984);
#982 = CARTESIAN_POINT('',(0.,-0.4,-4.E-02));
#983 = DIRECTION('',(0.,0.,1.));
#984 = DIRECTION('',(1.,0.,-0.));
#985 = ADVANCED_FACE('',(#986,#989),#1000,.T.);
#986 = FACE_BOUND('',#987,.T.);
#987 = EDGE_LOOP('',(#988));
#988 = ORIENTED_EDGE('',*,*,#946,.T.);
#989 = FACE_BOUND('',#990,.T.);
#990 = EDGE_LOOP('',(#991));
#991 = ORIENTED_EDGE('',*,*,#992,.T.);
#992 = EDGE_CURVE('',#993,#993,#995,.T.);
#993 = VERTEX_POINT('',#994);
#994 = CARTESIAN_POINT('',(-6.162975822039E-33,-0.375,1.55));
#995 = CIRCLE('',#996,0.375);
#996 = AXIS2_PLACEMENT_3D('',#997,#998,#999);
#997 = CARTESIAN_POINT('',(-4.163336342344E-17,6.938893903907E-17,1.55)
  );
#998 = DIRECTION('',(-0.,0.,-1.));
#999 = DIRECTION('',(1.110223024625E-16,-1.,-0.));
#1000 = PLANE('',#1001);
#1001 = AXIS2_PLACEMENT_3D('',#1002,#1003,#1004);
#1002 = CARTESIAN_POINT('',(0.,-0.4,1.55));
#1003 = DIRECTION('',(0.,0.,1.));
#1004 = DIRECTION('',(1.,0.,-0.));
#1005 = ADVANCED_FACE('',(#1006),#1017,.F.);
#1006 = FACE_BOUND('',#1007,.T.);
#1007 = EDGE_LOOP('',(#1008,#1009,#1015,#1016));
#1008 = ORIENTED_EDGE('',*,*,#972,.T.);
#1009 = ORIENTED_EDGE('',*,*,#1010,.T.);
#1010 = EDGE_CURVE('',#973,#993,#1011,.T.);
#1011 = LINE('',#1012,#1013);
#1012 = CARTESIAN_POINT('',(-6.162975822039E-33,-0.375,-4.6E-02));
#1013 = VECTOR('',#1014,1.);
#1014 = DIRECTION('',(0.,0.,1.));
#1015 = ORIENTED_EDGE('',*,*,#992,.F.);
#1016 = ORIENTED_EDGE('',*,*,#1010,.F.);
#1017 = CYLINDRICAL_SURFACE('',#1018,0.375);
#1018 = AXIS2_PLACEMENT_3D('',#1019,#1020,#1021);
#1019 = CARTESIAN_POINT('',(-4.163336342344E-17,6.938893903907E-17,
    -4.6E-02));
#1020 = DIRECTION('',(-0.,0.,-1.));
#1021 = DIRECTION('',(1.110223024625E-16,-1.,-0.));
#1022 = MANIFOLD_SOLID_BREP('',#1023);
#1023 = CLOSED_SHELL('',(#1024,#1057,#1077,#1097));
#1024 = ADVANCED_FACE('',(#1025),#1052,.T.);
#1025 = FACE_BOUND('',#1026,.F.);
#1026 = EDGE_LOOP('',(#1027,#1037,#1044,#1045));
#1027 = ORIENTED_EDGE('',*,*,#1028,.T.);
#1028 = EDGE_CURVE('',#1029,#1031,#1033,.T.);
#1029 = VERTEX_POINT('',#1030);
#1030 = CARTESIAN_POINT('',(8.419999,0.,1.51));
#1031 = VERTEX_POINT('',#1032);
#1032 = CARTESIAN_POINT('',(8.419999,0.,1.55));
#1033 = LINE('',#1034,#1035);
#1034 = CARTESIAN_POINT('',(8.419999,0.,1.51));
#1035 = VECTOR('',#1036,1.);
#1036 = DIRECTION('',(0.,0.,1.));
#1037 = ORIENTED_EDGE('',*,*,#1038,.T.);
#1038 = EDGE_CURVE('',#1031,#1031,#1039,.T.);
#1039 = CIRCLE('',#1040,0.799999);
#1040 = AXIS2_PLACEMENT_3D('',#1041,#1042,#1043);
#1041 = CARTESIAN_POINT('',(7.62,0.,1.55));
#1042 = DIRECTION('',(0.,0.,1.));
#1043 = DIRECTION('',(1.,0.,-0.));
#1044 = ORIENTED_EDGE('',*,*,#1028,.F.);
#1045 = ORIENTED_EDGE('',*,*,#1046,.F.);
#1046 = EDGE_CURVE('',#1029,#1029,#1047,.T.);
#1047 = CIRCLE('',#1048,0.799999);
#1048 = AXIS2_PLACEMENT_3D('',#1049,#1050,#1051);
#1049 = CARTESIAN_POINT('',(7.62,-0.,1.51));
#1050 = DIRECTION('',(0.,0.,1.));
#1051 = DIRECTION('',(1.,0.,-0.));
#1052 = CYLINDRICAL_SURFACE('',#1053,0.799999);
#1053 = AXIS2_PLACEMENT_3D('',#1054,#1055,#1056);
#1054 = CARTESIAN_POINT('',(7.62,-0.,1.51));
#1055 = DIRECTION('',(-0.,-0.,-1.));
#1056 = DIRECTION('',(1.,0.,-0.));
#1057 = ADVANCED_FACE('',(#1058,#1061),#1072,.F.);
#1058 = FACE_BOUND('',#1059,.F.);
#1059 = EDGE_LOOP('',(#1060));
#1060 = ORIENTED_EDGE('',*,*,#1046,.T.);
#1061 = FACE_BOUND('',#1062,.F.);
#1062 = EDGE_LOOP('',(#1063));
#1063 = ORIENTED_EDGE('',*,*,#1064,.T.);
#1064 = EDGE_CURVE('',#1065,#1065,#1067,.T.);
#1065 = VERTEX_POINT('',#1066);
#1066 = CARTESIAN_POINT('',(7.62,-0.375,1.51));
#1067 = CIRCLE('',#1068,0.375);
#1068 = AXIS2_PLACEMENT_3D('',#1069,#1070,#1071);
#1069 = CARTESIAN_POINT('',(7.62,6.938893903907E-17,1.51));
#1070 = DIRECTION('',(-0.,0.,-1.));
#1071 = DIRECTION('',(-0.,-1.,0.));
#1072 = PLANE('',#1073);
#1073 = AXIS2_PLACEMENT_3D('',#1074,#1075,#1076);
#1074 = CARTESIAN_POINT('',(0.,0.,1.51));
#1075 = DIRECTION('',(0.,0.,1.));
#1076 = DIRECTION('',(1.,0.,-0.));
#1077 = ADVANCED_FACE('',(#1078,#1081),#1092,.T.);
#1078 = FACE_BOUND('',#1079,.T.);
#1079 = EDGE_LOOP('',(#1080));
#1080 = ORIENTED_EDGE('',*,*,#1038,.T.);
#1081 = FACE_BOUND('',#1082,.T.);
#1082 = EDGE_LOOP('',(#1083));
#1083 = ORIENTED_EDGE('',*,*,#1084,.T.);
#1084 = EDGE_CURVE('',#1085,#1085,#1087,.T.);
#1085 = VERTEX_POINT('',#1086);
#1086 = CARTESIAN_POINT('',(7.62,-0.375,1.55));
#1087 = CIRCLE('',#1088,0.375);
#1088 = AXIS2_PLACEMENT_3D('',#1089,#1090,#1091);
#1089 = CARTESIAN_POINT('',(7.62,6.938893903907E-17,1.55));
#1090 = DIRECTION('',(-0.,0.,-1.));
#1091 = DIRECTION('',(-0.,-1.,0.));
#1092 = PLANE('',#1093);
#1093 = AXIS2_PLACEMENT_3D('',#1094,#1095,#1096);
#1094 = CARTESIAN_POINT('',(0.,0.,1.55));
#1095 = DIRECTION('',(0.,0.,1.));
#1096 = DIRECTION('',(1.,0.,-0.));
#1097 = ADVANCED_FACE('',(#1098),#1109,.F.);
#1098 = FACE_BOUND('',#1099,.T.);
#1099 = EDGE_LOOP('',(#1100,#1101,#1107,#1108));
#1100 = ORIENTED_EDGE('',*,*,#1064,.T.);
#1101 = ORIENTED_EDGE('',*,*,#1102,.T.);
#1102 = EDGE_CURVE('',#1065,#1085,#1103,.T.);
#1103 = LINE('',#1104,#1105);
#1104 = CARTESIAN_POINT('',(7.62,-0.375,-4.6E-02));
#1105 = VECTOR('',#1106,1.);
#1106 = DIRECTION('',(0.,0.,1.));
#1107 = ORIENTED_EDGE('',*,*,#1084,.F.);
#1108 = ORIENTED_EDGE('',*,*,#1102,.F.);
#1109 = CYLINDRICAL_SURFACE('',#1110,0.375);
#1110 = AXIS2_PLACEMENT_3D('',#1111,#1112,#1113);
#1111 = CARTESIAN_POINT('',(7.62,6.938893903907E-17,-4.6E-02));
#1112 = DIRECTION('',(-0.,-0.,-1.));
#1113 = DIRECTION('',(-0.,-1.,0.));
#1114 = MANIFOLD_SOLID_BREP('',#1115);
#1115 = CLOSED_SHELL('',(#1116,#1149,#1169,#1189));
#1116 = ADVANCED_FACE('',(#1117),#1144,.T.);
#1117 = FACE_BOUND('',#1118,.T.);
#1118 = EDGE_LOOP('',(#1119,#1129,#1136,#1137));
#1119 = ORIENTED_EDGE('',*,*,#1120,.T.);
#1120 = EDGE_CURVE('',#1121,#1123,#1125,.T.);
#1121 = VERTEX_POINT('',#1122);
#1122 = CARTESIAN_POINT('',(8.419999,0.,0.));
#1123 = VERTEX_POINT('',#1124);
#1124 = CARTESIAN_POINT('',(8.419999,0.,-4.E-02));
#1125 = LINE('',#1126,#1127);
#1126 = CARTESIAN_POINT('',(8.419999,0.,0.));
#1127 = VECTOR('',#1128,1.);
#1128 = DIRECTION('',(0.,0.,-1.));
#1129 = ORIENTED_EDGE('',*,*,#1130,.T.);
#1130 = EDGE_CURVE('',#1123,#1123,#1131,.T.);
#1131 = CIRCLE('',#1132,0.799999);
#1132 = AXIS2_PLACEMENT_3D('',#1133,#1134,#1135);
#1133 = CARTESIAN_POINT('',(7.62,0.,-4.E-02));
#1134 = DIRECTION('',(0.,0.,1.));
#1135 = DIRECTION('',(1.,0.,-0.));
#1136 = ORIENTED_EDGE('',*,*,#1120,.F.);
#1137 = ORIENTED_EDGE('',*,*,#1138,.F.);
#1138 = EDGE_CURVE('',#1121,#1121,#1139,.T.);
#1139 = CIRCLE('',#1140,0.799999);
#1140 = AXIS2_PLACEMENT_3D('',#1141,#1142,#1143);
#1141 = CARTESIAN_POINT('',(7.62,-0.,0.));
#1142 = DIRECTION('',(0.,0.,1.));
#1143 = DIRECTION('',(1.,0.,-0.));
#1144 = CYLINDRICAL_SURFACE('',#1145,0.799999);
#1145 = AXIS2_PLACEMENT_3D('',#1146,#1147,#1148);
#1146 = CARTESIAN_POINT('',(7.62,-0.,0.));
#1147 = DIRECTION('',(0.,0.,1.));
#1148 = DIRECTION('',(1.,0.,-0.));
#1149 = ADVANCED_FACE('',(#1150,#1153),#1164,.F.);
#1150 = FACE_BOUND('',#1151,.F.);
#1151 = EDGE_LOOP('',(#1152));
#1152 = ORIENTED_EDGE('',*,*,#1138,.F.);
#1153 = FACE_BOUND('',#1154,.F.);
#1154 = EDGE_LOOP('',(#1155));
#1155 = ORIENTED_EDGE('',*,*,#1156,.F.);
#1156 = EDGE_CURVE('',#1157,#1157,#1159,.T.);
#1157 = VERTEX_POINT('',#1158);
#1158 = CARTESIAN_POINT('',(7.62,-0.375,0.));
#1159 = CIRCLE('',#1160,0.375);
#1160 = AXIS2_PLACEMENT_3D('',#1161,#1162,#1163);
#1161 = CARTESIAN_POINT('',(7.62,6.938893903907E-17,0.));
#1162 = DIRECTION('',(-0.,0.,-1.));
#1163 = DIRECTION('',(-0.,-1.,0.));
#1164 = PLANE('',#1165);
#1165 = AXIS2_PLACEMENT_3D('',#1166,#1167,#1168);
#1166 = CARTESIAN_POINT('',(0.,0.,0.));
#1167 = DIRECTION('',(-0.,-0.,-1.));
#1168 = DIRECTION('',(-1.,0.,0.));
#1169 = ADVANCED_FACE('',(#1170,#1173),#1184,.T.);
#1170 = FACE_BOUND('',#1171,.T.);
#1171 = EDGE_LOOP('',(#1172));
#1172 = ORIENTED_EDGE('',*,*,#1130,.F.);
#1173 = FACE_BOUND('',#1174,.T.);
#1174 = EDGE_LOOP('',(#1175));
#1175 = ORIENTED_EDGE('',*,*,#1176,.F.);
#1176 = EDGE_CURVE('',#1177,#1177,#1179,.T.);
#1177 = VERTEX_POINT('',#1178);
#1178 = CARTESIAN_POINT('',(7.62,-0.375,-4.E-02));
#1179 = CIRCLE('',#1180,0.375);
#1180 = AXIS2_PLACEMENT_3D('',#1181,#1182,#1183);
#1181 = CARTESIAN_POINT('',(7.62,6.938893903907E-17,-4.E-02));
#1182 = DIRECTION('',(-0.,0.,-1.));
#1183 = DIRECTION('',(-0.,-1.,0.));
#1184 = PLANE('',#1185);
#1185 = AXIS2_PLACEMENT_3D('',#1186,#1187,#1188);
#1186 = CARTESIAN_POINT('',(0.,0.,-4.E-02));
#1187 = DIRECTION('',(-0.,-0.,-1.));
#1188 = DIRECTION('',(-1.,0.,0.));
#1189 = ADVANCED_FACE('',(#1190),#1201,.F.);
#1190 = FACE_BOUND('',#1191,.T.);
#1191 = EDGE_LOOP('',(#1192,#1193,#1199,#1200));
#1192 = ORIENTED_EDGE('',*,*,#1176,.T.);
#1193 = ORIENTED_EDGE('',*,*,#1194,.T.);
#1194 = EDGE_CURVE('',#1177,#1157,#1195,.T.);
#1195 = LINE('',#1196,#1197);
#1196 = CARTESIAN_POINT('',(7.62,-0.375,-4.6E-02));
#1197 = VECTOR('',#1198,1.);
#1198 = DIRECTION('',(0.,0.,1.));
#1199 = ORIENTED_EDGE('',*,*,#1156,.F.);
#1200 = ORIENTED_EDGE('',*,*,#1194,.F.);
#1201 = CYLINDRICAL_SURFACE('',#1202,0.375);
#1202 = AXIS2_PLACEMENT_3D('',#1203,#1204,#1205);
#1203 = CARTESIAN_POINT('',(7.62,6.938893903907E-17,-4.6E-02));
#1204 = DIRECTION('',(-0.,-0.,-1.));
#1205 = DIRECTION('',(-0.,-1.,0.));
#1206 = MANIFOLD_SOLID_BREP('',#1207);
#1207 = CLOSED_SHELL('',(#1208,#1241,#1261,#1281));
#1208 = ADVANCED_FACE('',(#1209),#1236,.T.);
#1209 = FACE_BOUND('',#1210,.F.);
#1210 = EDGE_LOOP('',(#1211,#1221,#1228,#1229));
#1211 = ORIENTED_EDGE('',*,*,#1212,.T.);
#1212 = EDGE_CURVE('',#1213,#1215,#1217,.T.);
#1213 = VERTEX_POINT('',#1214);
#1214 = CARTESIAN_POINT('',(7.62,-0.4,-4.E-02));
#1215 = VERTEX_POINT('',#1216);
#1216 = CARTESIAN_POINT('',(7.62,-0.4,1.55));
#1217 = LINE('',#1218,#1219);
#1218 = CARTESIAN_POINT('',(7.62,-0.4,-4.E-02));
#1219 = VECTOR('',#1220,1.);
#1220 = DIRECTION('',(0.,0.,1.));
#1221 = ORIENTED_EDGE('',*,*,#1222,.T.);
#1222 = EDGE_CURVE('',#1215,#1215,#1223,.T.);
#1223 = CIRCLE('',#1224,0.4);
#1224 = AXIS2_PLACEMENT_3D('',#1225,#1226,#1227);
#1225 = CARTESIAN_POINT('',(7.62,7.771561172376E-16,1.55));
#1226 = DIRECTION('',(0.,-0.,1.));
#1227 = DIRECTION('',(2.22044604925E-15,-1.,-0.));
#1228 = ORIENTED_EDGE('',*,*,#1212,.F.);
#1229 = ORIENTED_EDGE('',*,*,#1230,.F.);
#1230 = EDGE_CURVE('',#1213,#1213,#1231,.T.);
#1231 = CIRCLE('',#1232,0.4);
#1232 = AXIS2_PLACEMENT_3D('',#1233,#1234,#1235);
#1233 = CARTESIAN_POINT('',(7.62,7.771561172376E-16,-4.E-02));
#1234 = DIRECTION('',(0.,-0.,1.));
#1235 = DIRECTION('',(2.22044604925E-15,-1.,-0.));
#1236 = CYLINDRICAL_SURFACE('',#1237,0.4);
#1237 = AXIS2_PLACEMENT_3D('',#1238,#1239,#1240);
#1238 = CARTESIAN_POINT('',(7.62,7.771561172376E-16,-4.E-02));
#1239 = DIRECTION('',(-0.,0.,-1.));
#1240 = DIRECTION('',(2.22044604925E-15,-1.,-0.));
#1241 = ADVANCED_FACE('',(#1242,#1245),#1256,.F.);
#1242 = FACE_BOUND('',#1243,.F.);
#1243 = EDGE_LOOP('',(#1244));
#1244 = ORIENTED_EDGE('',*,*,#1230,.T.);
#1245 = FACE_BOUND('',#1246,.F.);
#1246 = EDGE_LOOP('',(#1247));
#1247 = ORIENTED_EDGE('',*,*,#1248,.T.);
#1248 = EDGE_CURVE('',#1249,#1249,#1251,.T.);
#1249 = VERTEX_POINT('',#1250);
#1250 = CARTESIAN_POINT('',(7.62,-0.375,-4.E-02));
#1251 = CIRCLE('',#1252,0.375);
#1252 = AXIS2_PLACEMENT_3D('',#1253,#1254,#1255);
#1253 = CARTESIAN_POINT('',(7.62,6.938893903907E-17,-4.E-02));
#1254 = DIRECTION('',(-0.,0.,-1.));
#1255 = DIRECTION('',(-0.,-1.,0.));
#1256 = PLANE('',#1257);
#1257 = AXIS2_PLACEMENT_3D('',#1258,#1259,#1260);
#1258 = CARTESIAN_POINT('',(7.62,-0.4,-4.E-02));
#1259 = DIRECTION('',(0.,0.,1.));
#1260 = DIRECTION('',(1.,0.,-0.));
#1261 = ADVANCED_FACE('',(#1262,#1265),#1276,.T.);
#1262 = FACE_BOUND('',#1263,.T.);
#1263 = EDGE_LOOP('',(#1264));
#1264 = ORIENTED_EDGE('',*,*,#1222,.T.);
#1265 = FACE_BOUND('',#1266,.T.);
#1266 = EDGE_LOOP('',(#1267));
#1267 = ORIENTED_EDGE('',*,*,#1268,.T.);
#1268 = EDGE_CURVE('',#1269,#1269,#1271,.T.);
#1269 = VERTEX_POINT('',#1270);
#1270 = CARTESIAN_POINT('',(7.62,-0.375,1.55));
#1271 = CIRCLE('',#1272,0.375);
#1272 = AXIS2_PLACEMENT_3D('',#1273,#1274,#1275);
#1273 = CARTESIAN_POINT('',(7.62,6.938893903907E-17,1.55));
#1274 = DIRECTION('',(-0.,0.,-1.));
#1275 = DIRECTION('',(-0.,-1.,0.));
#1276 = PLANE('',#1277);
#1277 = AXIS2_PLACEMENT_3D('',#1278,#1279,#1280);
#1278 = CARTESIAN_POINT('',(7.62,-0.4,1.55));
#1279 = DIRECTION('',(0.,0.,1.));
#1280 = DIRECTION('',(1.,0.,-0.));
#1281 = ADVANCED_FACE('',(#1282),#1293,.F.);
#1282 = FACE_BOUND('',#1283,.T.);
#1283 = EDGE_LOOP('',(#1284,#1285,#1291,#1292));
#1284 = ORIENTED_EDGE('',*,*,#1248,.T.);
#1285 = ORIENTED_EDGE('',*,*,#1286,.T.);
#1286 = EDGE_CURVE('',#1249,#1269,#1287,.T.);
#1287 = LINE('',#1288,#1289);
#1288 = CARTESIAN_POINT('',(7.62,-0.375,-4.6E-02));
#1289 = VECTOR('',#1290,1.);
#1290 = DIRECTION('',(0.,0.,1.));
#1291 = ORIENTED_EDGE('',*,*,#1268,.F.);
#1292 = ORIENTED_EDGE('',*,*,#1286,.F.);
#1293 = CYLINDRICAL_SURFACE('',#1294,0.375);
#1294 = AXIS2_PLACEMENT_3D('',#1295,#1296,#1297);
#1295 = CARTESIAN_POINT('',(7.62,6.938893903907E-17,-4.6E-02));
#1296 = DIRECTION('',(-0.,-0.,-1.));
#1297 = DIRECTION('',(-0.,-1.,0.));
#1298 = ( GEOMETRIC_REPRESENTATION_CONTEXT(3) 
GLOBAL_UNCERTAINTY_ASSIGNED_CONTEXT((#1302)) 
GLOBAL_UNIT_ASSIGNED_CONTEXT((#1299,#1300,#1301)) REPRESENTATION_CONTEXT
('Context #1','3D Context with UNIT and UNCERTAINTY') );
#1299 = ( LENGTH_UNIT() NAMED_UNIT(*) SI_UNIT(.MILLI.,.METRE.) );
#1300 = ( NAMED_UNIT(*) PLANE_ANGLE_UNIT() SI_UNIT($,.RADIAN.) );
#1301 = ( NAMED_UNIT(*) SI_UNIT($,.STERADIAN.) SOLID_ANGLE_UNIT() );
#1302 = UNCERTAINTY_MEASURE_WITH_UNIT(LENGTH_MEASURE(1.E-07),#1299,
  'distance_accuracy_value','confusion accuracy');
#1303 = CONTEXT_DEPENDENT_SHAPE_REPRESENTATION(#1304,#1306);
#1304 = ( REPRESENTATION_RELATIONSHIP('','',#745,#10) 
REPRESENTATION_RELATIONSHIP_WITH_TRANSFORMATION(#1305) 
SHAPE_REPRESENTATION_RELATIONSHIP() );
#1305 = ITEM_DEFINED_TRANSFORMATION('','',#11,#19);
#1306 = PRODUCT_DEFINITION_SHAPE('Placement','Placement of an item',
  #1307);
#1307 = NEXT_ASSEMBLY_USAGE_OCCURRENCE('3','=>[0:1:1:4]','',#5,#740,$);
#1308 = PRODUCT_RELATED_PRODUCT_CATEGORY('part',$,(#742));
#1309 = SHAPE_DEFINITION_REPRESENTATION(#1310,#1316);
#1310 = PRODUCT_DEFINITION_SHAPE('','',#1311);
#1311 = PRODUCT_DEFINITION('design','',#1312,#1315);
#1312 = PRODUCT_DEFINITION_FORMATION('','',#1313);
#1313 = PRODUCT(
  'electronic_resistor_quarter_watt_through_hole_6800000_ohm_render_PCB'
  ,
  'electronic_resistor_quarter_watt_through_hole_6800000_ohm_render_PCB'
  ,'',(#1314));
#1314 = PRODUCT_CONTEXT('',#2,'mechanical');
#1315 = PRODUCT_DEFINITION_CONTEXT('part definition',#2,'design');
#1316 = ADVANCED_BREP_SHAPE_REPRESENTATION('',(#11,#1317),#1545);
#1317 = MANIFOLD_SOLID_BREP('',#1318);
#1318 = CLOSED_SHELL('',(#1319,#1359,#1390,#1421,#1460,#1499,#1511,#1528
    ));
#1319 = ADVANCED_FACE('',(#1320),#1354,.T.);
#1320 = FACE_BOUND('',#1321,.T.);
#1321 = EDGE_LOOP('',(#1322,#1332,#1340,#1348));
#1322 = ORIENTED_EDGE('',*,*,#1323,.T.);
#1323 = EDGE_CURVE('',#1324,#1326,#1328,.T.);
#1324 = VERTEX_POINT('',#1325);
#1325 = CARTESIAN_POINT('',(10.67,-3.5,0.));
#1326 = VERTEX_POINT('',#1327);
#1327 = CARTESIAN_POINT('',(10.67,-3.5,1.51));
#1328 = LINE('',#1329,#1330);
#1329 = CARTESIAN_POINT('',(10.67,-3.5,0.));
#1330 = VECTOR('',#1331,1.);
#1331 = DIRECTION('',(0.,0.,1.));
#1332 = ORIENTED_EDGE('',*,*,#1333,.T.);
#1333 = EDGE_CURVE('',#1326,#1334,#1336,.T.);
#1334 = VERTEX_POINT('',#1335);
#1335 = CARTESIAN_POINT('',(-3.05,-3.5,1.51));
#1336 = LINE('',#1337,#1338);
#1337 = CARTESIAN_POINT('',(10.67,-3.5,1.51));
#1338 = VECTOR('',#1339,1.);
#1339 = DIRECTION('',(-1.,0.,0.));
#1340 = ORIENTED_EDGE('',*,*,#1341,.F.);
#1341 = EDGE_CURVE('',#1342,#1334,#1344,.T.);
#1342 = VERTEX_POINT('',#1343);
#1343 = CARTESIAN_POINT('',(-3.05,-3.5,0.));
#1344 = LINE('',#1345,#1346);
#1345 = CARTESIAN_POINT('',(-3.05,-3.5,0.));
#1346 = VECTOR('',#1347,1.);
#1347 = DIRECTION('',(0.,0.,1.));
#1348 = ORIENTED_EDGE('',*,*,#1349,.F.);
#1349 = EDGE_CURVE('',#1324,#1342,#1350,.T.);
#1350 = LINE('',#1351,#1352);
#1351 = CARTESIAN_POINT('',(10.67,-3.5,0.));
#1352 = VECTOR('',#1353,1.);
#1353 = DIRECTION('',(-1.,0.,0.));
#1354 = PLANE('',#1355);
#1355 = AXIS2_PLACEMENT_3D('',#1356,#1357,#1358);
#1356 = CARTESIAN_POINT('',(10.67,-3.5,0.));
#1357 = DIRECTION('',(0.,-1.,0.));
#1358 = DIRECTION('',(-1.,0.,0.));
#1359 = ADVANCED_FACE('',(#1360),#1385,.T.);
#1360 = FACE_BOUND('',#1361,.T.);
#1361 = EDGE_LOOP('',(#1362,#1372,#1378,#1379));
#1362 = ORIENTED_EDGE('',*,*,#1363,.T.);
#1363 = EDGE_CURVE('',#1364,#1366,#1368,.T.);
#1364 = VERTEX_POINT('',#1365);
#1365 = CARTESIAN_POINT('',(10.67,3.5,0.));
#1366 = VERTEX_POINT('',#1367);
#1367 = CARTESIAN_POINT('',(10.67,3.5,1.51));
#1368 = LINE('',#1369,#1370);
#1369 = CARTESIAN_POINT('',(10.67,3.5,0.));
#1370 = VECTOR('',#1371,1.);
#1371 = DIRECTION('',(0.,0.,1.));
#1372 = ORIENTED_EDGE('',*,*,#1373,.T.);
#1373 = EDGE_CURVE('',#1366,#1326,#1374,.T.);
#1374 = LINE('',#1375,#1376);
#1375 = CARTESIAN_POINT('',(10.67,3.5,1.51));
#1376 = VECTOR('',#1377,1.);
#1377 = DIRECTION('',(0.,-1.,0.));
#1378 = ORIENTED_EDGE('',*,*,#1323,.F.);
#1379 = ORIENTED_EDGE('',*,*,#1380,.F.);
#1380 = EDGE_CURVE('',#1364,#1324,#1381,.T.);
#1381 = LINE('',#1382,#1383);
#1382 = CARTESIAN_POINT('',(10.67,3.5,0.));
#1383 = VECTOR('',#1384,1.);
#1384 = DIRECTION('',(0.,-1.,0.));
#1385 = PLANE('',#1386);
#1386 = AXIS2_PLACEMENT_3D('',#1387,#1388,#1389);
#1387 = CARTESIAN_POINT('',(10.67,3.5,0.));
#1388 = DIRECTION('',(1.,0.,-0.));
#1389 = DIRECTION('',(0.,-1.,0.));
#1390 = ADVANCED_FACE('',(#1391),#1416,.T.);
#1391 = FACE_BOUND('',#1392,.T.);
#1392 = EDGE_LOOP('',(#1393,#1394,#1402,#1410));
#1393 = ORIENTED_EDGE('',*,*,#1341,.T.);
#1394 = ORIENTED_EDGE('',*,*,#1395,.T.);
#1395 = EDGE_CURVE('',#1334,#1396,#1398,.T.);
#1396 = VERTEX_POINT('',#1397);
#1397 = CARTESIAN_POINT('',(-3.05,3.5,1.51));
#1398 = LINE('',#1399,#1400);
#1399 = CARTESIAN_POINT('',(-3.05,-3.5,1.51));
#1400 = VECTOR('',#1401,1.);
#1401 = DIRECTION('',(0.,1.,0.));
#1402 = ORIENTED_EDGE('',*,*,#1403,.F.);
#1403 = EDGE_CURVE('',#1404,#1396,#1406,.T.);
#1404 = VERTEX_POINT('',#1405);
#1405 = CARTESIAN_POINT('',(-3.05,3.5,0.));
#1406 = LINE('',#1407,#1408);
#1407 = CARTESIAN_POINT('',(-3.05,3.5,0.));
#1408 = VECTOR('',#1409,1.);
#1409 = DIRECTION('',(0.,0.,1.));
#1410 = ORIENTED_EDGE('',*,*,#1411,.F.);
#1411 = EDGE_CURVE('',#1342,#1404,#1412,.T.);
#1412 = LINE('',#1413,#1414);
#1413 = CARTESIAN_POINT('',(-3.05,-3.5,0.));
#1414 = VECTOR('',#1415,1.);
#1415 = DIRECTION('',(0.,1.,0.));
#1416 = PLANE('',#1417);
#1417 = AXIS2_PLACEMENT_3D('',#1418,#1419,#1420);
#1418 = CARTESIAN_POINT('',(-3.05,-3.5,0.));
#1419 = DIRECTION('',(-1.,0.,0.));
#1420 = DIRECTION('',(0.,1.,0.));
#1421 = ADVANCED_FACE('',(#1422,#1433,#1444),#1455,.F.);
#1422 = FACE_BOUND('',#1423,.F.);
#1423 = EDGE_LOOP('',(#1424,#1425,#1426,#1432));
#1424 = ORIENTED_EDGE('',*,*,#1349,.F.);
#1425 = ORIENTED_EDGE('',*,*,#1380,.F.);
#1426 = ORIENTED_EDGE('',*,*,#1427,.F.);
#1427 = EDGE_CURVE('',#1404,#1364,#1428,.T.);
#1428 = LINE('',#1429,#1430);
#1429 = CARTESIAN_POINT('',(-3.05,3.5,0.));
#1430 = VECTOR('',#1431,1.);
#1431 = DIRECTION('',(1.,0.,0.));
#1432 = ORIENTED_EDGE('',*,*,#1411,.F.);
#1433 = FACE_BOUND('',#1434,.F.);
#1434 = EDGE_LOOP('',(#1435));
#1435 = ORIENTED_EDGE('',*,*,#1436,.T.);
#1436 = EDGE_CURVE('',#1437,#1437,#1439,.T.);
#1437 = VERTEX_POINT('',#1438);
#1438 = CARTESIAN_POINT('',(0.,-0.4,0.));
#1439 = CIRCLE('',#1440,0.4);
#1440 = AXIS2_PLACEMENT_3D('',#1441,#1442,#1443);
#1441 = CARTESIAN_POINT('',(-4.163336342344E-17,6.938893903907E-17,0.));
#1442 = DIRECTION('',(-0.,0.,-1.));
#1443 = DIRECTION('',(1.040834085586E-16,-1.,-0.));
#1444 = FACE_BOUND('',#1445,.F.);
#1445 = EDGE_LOOP('',(#1446));
#1446 = ORIENTED_EDGE('',*,*,#1447,.T.);
#1447 = EDGE_CURVE('',#1448,#1448,#1450,.T.);
#1448 = VERTEX_POINT('',#1449);
#1449 = CARTESIAN_POINT('',(7.62,-0.4,0.));
#1450 = CIRCLE('',#1451,0.4);
#1451 = AXIS2_PLACEMENT_3D('',#1452,#1453,#1454);
#1452 = CARTESIAN_POINT('',(7.62,7.771561172376E-16,0.));
#1453 = DIRECTION('',(-0.,0.,-1.));
#1454 = DIRECTION('',(2.22044604925E-15,-1.,-0.));
#1455 = PLANE('',#1456);
#1456 = AXIS2_PLACEMENT_3D('',#1457,#1458,#1459);
#1457 = CARTESIAN_POINT('',(0.,0.,0.));
#1458 = DIRECTION('',(0.,0.,1.));
#1459 = DIRECTION('',(1.,0.,-0.));
#1460 = ADVANCED_FACE('',(#1461,#1472,#1483),#1494,.T.);
#1461 = FACE_BOUND('',#1462,.T.);
#1462 = EDGE_LOOP('',(#1463,#1464,#1465,#1471));
#1463 = ORIENTED_EDGE('',*,*,#1333,.F.);
#1464 = ORIENTED_EDGE('',*,*,#1373,.F.);
#1465 = ORIENTED_EDGE('',*,*,#1466,.F.);
#1466 = EDGE_CURVE('',#1396,#1366,#1467,.T.);
#1467 = LINE('',#1468,#1469);
#1468 = CARTESIAN_POINT('',(-3.05,3.5,1.51));
#1469 = VECTOR('',#1470,1.);
#1470 = DIRECTION('',(1.,0.,0.));
#1471 = ORIENTED_EDGE('',*,*,#1395,.F.);
#1472 = FACE_BOUND('',#1473,.T.);
#1473 = EDGE_LOOP('',(#1474));
#1474 = ORIENTED_EDGE('',*,*,#1475,.T.);
#1475 = EDGE_CURVE('',#1476,#1476,#1478,.T.);
#1476 = VERTEX_POINT('',#1477);
#1477 = CARTESIAN_POINT('',(0.,-0.4,1.51));
#1478 = CIRCLE('',#1479,0.4);
#1479 = AXIS2_PLACEMENT_3D('',#1480,#1481,#1482);
#1480 = CARTESIAN_POINT('',(-4.163336342344E-17,6.938893903907E-17,1.51)
  );
#1481 = DIRECTION('',(-0.,0.,-1.));
#1482 = DIRECTION('',(1.040834085586E-16,-1.,-0.));
#1483 = FACE_BOUND('',#1484,.T.);
#1484 = EDGE_LOOP('',(#1485));
#1485 = ORIENTED_EDGE('',*,*,#1486,.T.);
#1486 = EDGE_CURVE('',#1487,#1487,#1489,.T.);
#1487 = VERTEX_POINT('',#1488);
#1488 = CARTESIAN_POINT('',(7.62,-0.4,1.51));
#1489 = CIRCLE('',#1490,0.4);
#1490 = AXIS2_PLACEMENT_3D('',#1491,#1492,#1493);
#1491 = CARTESIAN_POINT('',(7.62,7.771561172376E-16,1.51));
#1492 = DIRECTION('',(-0.,0.,-1.));
#1493 = DIRECTION('',(2.22044604925E-15,-1.,-0.));
#1494 = PLANE('',#1495);
#1495 = AXIS2_PLACEMENT_3D('',#1496,#1497,#1498);
#1496 = CARTESIAN_POINT('',(0.,0.,1.51));
#1497 = DIRECTION('',(0.,0.,1.));
#1498 = DIRECTION('',(1.,0.,-0.));
#1499 = ADVANCED_FACE('',(#1500),#1506,.T.);
#1500 = FACE_BOUND('',#1501,.T.);
#1501 = EDGE_LOOP('',(#1502,#1503,#1504,#1505));
#1502 = ORIENTED_EDGE('',*,*,#1403,.T.);
#1503 = ORIENTED_EDGE('',*,*,#1466,.T.);
#1504 = ORIENTED_EDGE('',*,*,#1363,.F.);
#1505 = ORIENTED_EDGE('',*,*,#1427,.F.);
#1506 = PLANE('',#1507);
#1507 = AXIS2_PLACEMENT_3D('',#1508,#1509,#1510);
#1508 = CARTESIAN_POINT('',(-3.05,3.5,0.));
#1509 = DIRECTION('',(0.,1.,0.));
#1510 = DIRECTION('',(1.,0.,0.));
#1511 = ADVANCED_FACE('',(#1512),#1523,.F.);
#1512 = FACE_BOUND('',#1513,.T.);
#1513 = EDGE_LOOP('',(#1514,#1515,#1521,#1522));
#1514 = ORIENTED_EDGE('',*,*,#1436,.T.);
#1515 = ORIENTED_EDGE('',*,*,#1516,.T.);
#1516 = EDGE_CURVE('',#1437,#1476,#1517,.T.);
#1517 = LINE('',#1518,#1519);
#1518 = CARTESIAN_POINT('',(0.,-0.4,-4.6E-02));
#1519 = VECTOR('',#1520,1.);
#1520 = DIRECTION('',(0.,0.,1.));
#1521 = ORIENTED_EDGE('',*,*,#1475,.F.);
#1522 = ORIENTED_EDGE('',*,*,#1516,.F.);
#1523 = CYLINDRICAL_SURFACE('',#1524,0.4);
#1524 = AXIS2_PLACEMENT_3D('',#1525,#1526,#1527);
#1525 = CARTESIAN_POINT('',(-4.163336342344E-17,6.938893903907E-17,
    -4.6E-02));
#1526 = DIRECTION('',(-0.,0.,-1.));
#1527 = DIRECTION('',(1.040834085586E-16,-1.,-0.));
#1528 = ADVANCED_FACE('',(#1529),#1540,.F.);
#1529 = FACE_BOUND('',#1530,.T.);
#1530 = EDGE_LOOP('',(#1531,#1532,#1538,#1539));
#1531 = ORIENTED_EDGE('',*,*,#1447,.T.);
#1532 = ORIENTED_EDGE('',*,*,#1533,.T.);
#1533 = EDGE_CURVE('',#1448,#1487,#1534,.T.);
#1534 = LINE('',#1535,#1536);
#1535 = CARTESIAN_POINT('',(7.62,-0.4,-4.6E-02));
#1536 = VECTOR('',#1537,1.);
#1537 = DIRECTION('',(0.,0.,1.));
#1538 = ORIENTED_EDGE('',*,*,#1486,.F.);
#1539 = ORIENTED_EDGE('',*,*,#1533,.F.);
#1540 = CYLINDRICAL_SURFACE('',#1541,0.4);
#1541 = AXIS2_PLACEMENT_3D('',#1542,#1543,#1544);
#1542 = CARTESIAN_POINT('',(7.62,7.771561172376E-16,-4.6E-02));
#1543 = DIRECTION('',(-0.,0.,-1.));
#1544 = DIRECTION('',(2.22044604925E-15,-1.,-0.));
#1545 = ( GEOMETRIC_REPRESENTATION_CONTEXT(3) 
GLOBAL_UNCERTAINTY_ASSIGNED_CONTEXT((#1549)) 
GLOBAL_UNIT_ASSIGNED_CONTEXT((#1546,#1547,#1548)) REPRESENTATION_CONTEXT
('Context #1','3D Context with UNIT and UNCERTAINTY') );
#1546 = ( LENGTH_UNIT() NAMED_UNIT(*) SI_UNIT(.MILLI.,.METRE.) );
#1547 = ( NAMED_UNIT(*) PLANE_ANGLE_UNIT() SI_UNIT($,.RADIAN.) );
#1548 = ( NAMED_UNIT(*) SI_UNIT($,.STERADIAN.) SOLID_ANGLE_UNIT() );
#1549 = UNCERTAINTY_MEASURE_WITH_UNIT(LENGTH_MEASURE(1.E-07),#1546,
  'distance_accuracy_value','confusion accuracy');
#1550 = CONTEXT_DEPENDENT_SHAPE_REPRESENTATION(#1551,#1553);
#1551 = ( REPRESENTATION_RELATIONSHIP('','',#1316,#10) 
REPRESENTATION_RELATIONSHIP_WITH_TRANSFORMATION(#1552) 
SHAPE_REPRESENTATION_RELATIONSHIP() );
#1552 = ITEM_DEFINED_TRANSFORMATION('','',#11,#23);
#1553 = PRODUCT_DEFINITION_SHAPE('Placement','Placement of an item',
  #1554);
#1554 = NEXT_ASSEMBLY_USAGE_OCCURRENCE('4','=>[0:1:1:5]','',#5,#1311,$);
#1555 = PRODUCT_RELATED_PRODUCT_CATEGORY('part',$,(#1313));
#1556 = MECHANICAL_DESIGN_GEOMETRIC_PRESENTATION_REPRESENTATION('',(
    #1557),#1545);
#1557 = STYLED_ITEM('color',(#1558),#1317);
#1558 = PRESENTATION_STYLE_ASSIGNMENT((#1559));
#1559 = SURFACE_STYLE_USAGE(.BOTH.,#1560);
#1560 = SURFACE_SIDE_STYLE('',(#1561));
#1561 = SURFACE_STYLE_FILL_AREA(#1562);
#1562 = FILL_AREA_STYLE('',(#1563));
#1563 = FILL_AREA_STYLE_COLOUR('',#1564);
#1564 = COLOUR_RGB('',0.313304153717,0.484529207832,0.410020903123);
#1565 = MECHANICAL_DESIGN_GEOMETRIC_PRESENTATION_REPRESENTATION('',(
    #1566,#1574,#1581,#1588,#1595,#1602),#1298);
#1566 = STYLED_ITEM('color',(#1567),#746);
#1567 = PRESENTATION_STYLE_ASSIGNMENT((#1568));
#1568 = SURFACE_STYLE_USAGE(.BOTH.,#1569);
#1569 = SURFACE_SIDE_STYLE('',(#1570));
#1570 = SURFACE_STYLE_FILL_AREA(#1571);
#1571 = FILL_AREA_STYLE('',(#1572));
#1572 = FILL_AREA_STYLE_COLOUR('',#1573);
#1573 = COLOUR_RGB('',0.735356983052,0.735356983052,0.735356983052);
#1574 = STYLED_ITEM('color',(#1575),#838);
#1575 = PRESENTATION_STYLE_ASSIGNMENT((#1576));
#1576 = SURFACE_STYLE_USAGE(.BOTH.,#1577);
#1577 = SURFACE_SIDE_STYLE('',(#1578));
#1578 = SURFACE_STYLE_FILL_AREA(#1579);
#1579 = FILL_AREA_STYLE('',(#1580));
#1580 = FILL_AREA_STYLE_COLOUR('',#1573);
#1581 = STYLED_ITEM('color',(#1582),#930);
#1582 = PRESENTATION_STYLE_ASSIGNMENT((#1583));
#1583 = SURFACE_STYLE_USAGE(.BOTH.,#1584);
#1584 = SURFACE_SIDE_STYLE('',(#1585));
#1585 = SURFACE_STYLE_FILL_AREA(#1586);
#1586 = FILL_AREA_STYLE('',(#1587));
#1587 = FILL_AREA_STYLE_COLOUR('',#1573);
#1588 = STYLED_ITEM('color',(#1589),#1022);
#1589 = PRESENTATION_STYLE_ASSIGNMENT((#1590));
#1590 = SURFACE_STYLE_USAGE(.BOTH.,#1591);
#1591 = SURFACE_SIDE_STYLE('',(#1592));
#1592 = SURFACE_STYLE_FILL_AREA(#1593);
#1593 = FILL_AREA_STYLE('',(#1594));
#1594 = FILL_AREA_STYLE_COLOUR('',#1573);
#1595 = STYLED_ITEM('color',(#1596),#1114);
#1596 = PRESENTATION_STYLE_ASSIGNMENT((#1597));
#1597 = SURFACE_STYLE_USAGE(.BOTH.,#1598);
#1598 = SURFACE_SIDE_STYLE('',(#1599));
#1599 = SURFACE_STYLE_FILL_AREA(#1600);
#1600 = FILL_AREA_STYLE('',(#1601));
#1601 = FILL_AREA_STYLE_COLOUR('',#1573);
#1602 = STYLED_ITEM('color',(#1603),#1206);
#1603 = PRESENTATION_STYLE_ASSIGNMENT((#1604));
#1604 = SURFACE_STYLE_USAGE(.BOTH.,#1605);
#1605 = SURFACE_SIDE_STYLE('',(#1606));
#1606 = SURFACE_STYLE_FILL_AREA(#1607);
#1607 = FILL_AREA_STYLE('',(#1608));
#1608 = FILL_AREA_STYLE_COLOUR('',#1573);
#1609 = MECHANICAL_DESIGN_GEOMETRIC_PRESENTATION_REPRESENTATION('',(
    #1610,#1618,#1625,#1632,#1639,#1646,#1654,#1661,#1668,#1675,#1682,
    #1689,#1696,#1703,#1710),#727);
#1610 = STYLED_ITEM('color',(#1611),#66);
#1611 = PRESENTATION_STYLE_ASSIGNMENT((#1612));
#1612 = SURFACE_STYLE_USAGE(.BOTH.,#1613);
#1613 = SURFACE_SIDE_STYLE('',(#1614));
#1614 = SURFACE_STYLE_FILL_AREA(#1615);
#1615 = FILL_AREA_STYLE('',(#1616));
#1616 = FILL_AREA_STYLE_COLOUR('',#1617);
#1617 = COLOUR_RGB('',0.883000012551,0.711000022565,0.492000011028);
#1618 = STYLED_ITEM('color',(#1619),#99);
#1619 = PRESENTATION_STYLE_ASSIGNMENT((#1620));
#1620 = SURFACE_STYLE_USAGE(.BOTH.,#1621);
#1621 = SURFACE_SIDE_STYLE('',(#1622));
#1622 = SURFACE_STYLE_FILL_AREA(#1623);
#1623 = FILL_AREA_STYLE('',(#1624));
#1624 = FILL_AREA_STYLE_COLOUR('',#1617);
#1625 = STYLED_ITEM('color',(#1626),#125);
#1626 = PRESENTATION_STYLE_ASSIGNMENT((#1627));
#1627 = SURFACE_STYLE_USAGE(.BOTH.,#1628);
#1628 = SURFACE_SIDE_STYLE('',(#1629));
#1629 = SURFACE_STYLE_FILL_AREA(#1630);
#1630 = FILL_AREA_STYLE('',(#1631));
#1631 = FILL_AREA_STYLE_COLOUR('',#1617);
#1632 = STYLED_ITEM('color',(#1633),#145);
#1633 = PRESENTATION_STYLE_ASSIGNMENT((#1634));
#1634 = SURFACE_STYLE_USAGE(.BOTH.,#1635);
#1635 = SURFACE_SIDE_STYLE('',(#1636));
#1636 = SURFACE_STYLE_FILL_AREA(#1637);
#1637 = FILL_AREA_STYLE('',(#1638));
#1638 = FILL_AREA_STYLE_COLOUR('',#1617);
#1639 = STYLED_ITEM('color',(#1640),#328);
#1640 = PRESENTATION_STYLE_ASSIGNMENT((#1641));
#1641 = SURFACE_STYLE_USAGE(.BOTH.,#1642);
#1642 = SURFACE_SIDE_STYLE('',(#1643));
#1643 = SURFACE_STYLE_FILL_AREA(#1644);
#1644 = FILL_AREA_STYLE('',(#1645));
#1645 = FILL_AREA_STYLE_COLOUR('',#1617);
#1646 = STYLED_ITEM('color',(#1647),#353);
#1647 = PRESENTATION_STYLE_ASSIGNMENT((#1648));
#1648 = SURFACE_STYLE_USAGE(.BOTH.,#1649);
#1649 = SURFACE_SIDE_STYLE('',(#1650));
#1650 = SURFACE_STYLE_FILL_AREA(#1651);
#1651 = FILL_AREA_STYLE('',(#1652));
#1652 = FILL_AREA_STYLE_COLOUR('',#1653);
#1653 = COLOUR_RGB('',0.823999987314,0.819999987296,0.781000009244);
#1654 = STYLED_ITEM('color',(#1655),#379);
#1655 = PRESENTATION_STYLE_ASSIGNMENT((#1656));
#1656 = SURFACE_STYLE_USAGE(.BOTH.,#1657);
#1657 = SURFACE_SIDE_STYLE('',(#1658));
#1658 = SURFACE_STYLE_FILL_AREA(#1659);
#1659 = FILL_AREA_STYLE('',(#1660));
#1660 = FILL_AREA_STYLE_COLOUR('',#1617);
#1661 = STYLED_ITEM('color',(#1662),#399);
#1662 = PRESENTATION_STYLE_ASSIGNMENT((#1663));
#1663 = SURFACE_STYLE_USAGE(.BOTH.,#1664);
#1664 = SURFACE_SIDE_STYLE('',(#1665));
#1665 = SURFACE_STYLE_FILL_AREA(#1666);
#1666 = FILL_AREA_STYLE('',(#1667));
#1667 = FILL_AREA_STYLE_COLOUR('',#1653);
#1668 = STYLED_ITEM('color',(#1669),#424);
#1669 = PRESENTATION_STYLE_ASSIGNMENT((#1670));
#1670 = SURFACE_STYLE_USAGE(.BOTH.,#1671);
#1671 = SURFACE_SIDE_STYLE('',(#1672));
#1672 = SURFACE_STYLE_FILL_AREA(#1673);
#1673 = FILL_AREA_STYLE('',(#1674));
#1674 = FILL_AREA_STYLE_COLOUR('',#1617);
#1675 = STYLED_ITEM('color',(#1676),#449);
#1676 = PRESENTATION_STYLE_ASSIGNMENT((#1677));
#1677 = SURFACE_STYLE_USAGE(.BOTH.,#1678);
#1678 = SURFACE_SIDE_STYLE('',(#1679));
#1679 = SURFACE_STYLE_FILL_AREA(#1680);
#1680 = FILL_AREA_STYLE('',(#1681));
#1681 = FILL_AREA_STYLE_COLOUR('',#1653);
#1682 = STYLED_ITEM('color',(#1683),#458);
#1683 = PRESENTATION_STYLE_ASSIGNMENT((#1684));
#1684 = SURFACE_STYLE_USAGE(.BOTH.,#1685);
#1685 = SURFACE_SIDE_STYLE('',(#1686));
#1686 = SURFACE_STYLE_FILL_AREA(#1687);
#1687 = FILL_AREA_STYLE('',(#1688));
#1688 = FILL_AREA_STYLE_COLOUR('',#1617);
#1689 = STYLED_ITEM('color',(#1690),#484);
#1690 = PRESENTATION_STYLE_ASSIGNMENT((#1691));
#1691 = SURFACE_STYLE_USAGE(.BOTH.,#1692);
#1692 = SURFACE_SIDE_STYLE('',(#1693));
#1693 = SURFACE_STYLE_FILL_AREA(#1694);
#1694 = FILL_AREA_STYLE('',(#1695));
#1695 = FILL_AREA_STYLE_COLOUR('',#1617);
#1696 = STYLED_ITEM('color',(#1697),#667);
#1697 = PRESENTATION_STYLE_ASSIGNMENT((#1698));
#1698 = SURFACE_STYLE_USAGE(.BOTH.,#1699);
#1699 = SURFACE_SIDE_STYLE('',(#1700));
#1700 = SURFACE_STYLE_FILL_AREA(#1701);
#1701 = FILL_AREA_STYLE('',(#1702));
#1702 = FILL_AREA_STYLE_COLOUR('',#1653);
#1703 = STYLED_ITEM('color',(#1704),#693);
#1704 = PRESENTATION_STYLE_ASSIGNMENT((#1705));
#1705 = SURFACE_STYLE_USAGE(.BOTH.,#1706);
#1706 = SURFACE_SIDE_STYLE('',(#1707));
#1707 = SURFACE_STYLE_FILL_AREA(#1708);
#1708 = FILL_AREA_STYLE('',(#1709));
#1709 = FILL_AREA_STYLE_COLOUR('',#1653);
#1710 = STYLED_ITEM('color',(#1711),#718);
#1711 = PRESENTATION_STYLE_ASSIGNMENT((#1712));
#1712 = SURFACE_STYLE_USAGE(.BOTH.,#1713);
#1713 = SURFACE_SIDE_STYLE('',(#1714));
#1714 = SURFACE_STYLE_FILL_AREA(#1715);
#1715 = FILL_AREA_STYLE('',(#1716));
#1716 = FILL_AREA_STYLE_COLOUR('',#1653);
ENDSEC;
END-ISO-10303-21;
