%TF.GenerationSoftware,KiCad,Pcbnew,10.99.0-3758-g2f18d95be7*%
%TF.CreationDate,2026-09-22T12:14:53+01:00*%
%TF.ProjectId,kicad_file,6b696361-645f-4666-996c-652e6b696361,rev?*%
%TF.SameCoordinates,Original*%
%TF.FileFunction,Profile,NP*%
%FSLAX46Y46*%
G04 Gerber Fmt 4.6, Leading zero omitted, Abs format (unit mm)*
G04 Created by KiCad (PCBNEW 10.99.0-3758-g2f18d95be7) date 2026-09-22 12:14:53*
%MOMM*%
%LPD*%
G01*
G04 APERTURE LIST*
%TA.AperFunction,Profile*%
%ADD10C,0.050000*%
%TD*%
G04 APERTURE END LIST*
D10*
X0Y45720000D02*
X0Y5080000D01*
X0Y45720000D02*
G75*
G02*
X5080000Y50800000I5080002J-2D01*
G01*
X5080000Y0D02*
G75*
G02*
X0Y5080000I0J5080000D01*
G01*
X5080000Y0D02*
X60960000Y0D01*
X60960000Y50800000D02*
X5080000Y50800000D01*
X60960000Y50800000D02*
G75*
G02*
X66040000Y45720000I0J-5080000D01*
G01*
X66040000Y5080000D02*
G75*
G02*
X60960000Y0I-5080000J0D01*
G01*
X66040000Y5080000D02*
X66040000Y45720000D01*
%TO.C,X2*%
X2185000Y18400000D02*
X2785000Y18400000D01*
X2785000Y17800000D02*
X2185000Y17800000D01*
X2185000Y11200000D02*
X2785000Y11200000D01*
X2785000Y10600000D02*
X2185000Y10600000D01*
X2785000Y18400000D02*
G75*
G02*
X3035000Y18100000I-25000J-275000D01*
G01*
X3035000Y18100000D02*
G75*
G02*
X2785000Y17800000I-275000J-25000D01*
G01*
X1935000Y18100000D02*
G75*
G02*
X2185000Y18400000I275000J25000D01*
G01*
X2185000Y17800000D02*
G75*
G02*
X1935000Y18100000I25000J275000D01*
G01*
X2785000Y11200000D02*
G75*
G02*
X3035000Y10900000I-25000J-275000D01*
G01*
X3035000Y10900000D02*
G75*
G02*
X2785000Y10600000I-275000J-25000D01*
G01*
X1935000Y10900000D02*
G75*
G02*
X2185000Y11200000I275000J25000D01*
G01*
X2185000Y10600000D02*
G75*
G02*
X1935000Y10900000I25000J275000D01*
G01*
%TO.C,X1*%
X9400000Y39700000D02*
X7600000Y39700000D01*
X2130000Y39700000D02*
X2930000Y39700000D01*
X7600000Y38800000D02*
X9400000Y38800000D01*
X2930000Y38800000D02*
X2130000Y38800000D01*
X9400000Y25200000D02*
X7600000Y25200000D01*
X2130000Y25200000D02*
X2930000Y25200000D01*
X7600000Y24300000D02*
X9400000Y24300000D01*
X2930000Y24300000D02*
X2130000Y24300000D01*
X9400000Y39700000D02*
G75*
G02*
X9850000Y39249999I0J-450000D01*
G01*
X2930000Y39700000D02*
G75*
G02*
X3380000Y39250000I0J-450000D01*
G01*
X9850000Y39250000D02*
G75*
G02*
X9399999Y38800000I-450000J0D01*
G01*
X7150000Y39250000D02*
G75*
G02*
X7600000Y39700000I450000J0D01*
G01*
X3380000Y39250000D02*
G75*
G02*
X2930000Y38800000I-450000J0D01*
G01*
X1680000Y39250000D02*
G75*
G02*
X2130000Y39700000I450000J0D01*
G01*
X7600000Y38800000D02*
G75*
G02*
X7150000Y39250000I0J450000D01*
G01*
X2130000Y38800000D02*
G75*
G02*
X1680000Y39250000I0J450000D01*
G01*
X9400000Y25200000D02*
G75*
G02*
X9850000Y24749999I0J-450000D01*
G01*
X2930000Y25200000D02*
G75*
G02*
X3380000Y24750000I0J-450000D01*
G01*
X9850000Y24750000D02*
G75*
G02*
X9399999Y24300000I-450000J0D01*
G01*
X7150000Y24750000D02*
G75*
G02*
X7600000Y25200000I450000J0D01*
G01*
X3380000Y24750000D02*
G75*
G02*
X2930000Y24300000I-450000J0D01*
G01*
X1680000Y24750000D02*
G75*
G02*
X2130000Y25200000I450000J0D01*
G01*
X7600000Y24300000D02*
G75*
G02*
X7150000Y24750000I0J450000D01*
G01*
X2130000Y24300000D02*
G75*
G02*
X1680000Y24750000I0J450000D01*
G01*
%TD*%
M02*
