%TF.GenerationSoftware,KiCad,Pcbnew,10.99.0-3671-gbe90a7e200*%
%TF.CreationDate,2026-09-09T22:52:29+01:00*%
%TF.ProjectId,kicad_file,6b696361-645f-4666-996c-652e6b696361,rev?*%
%TF.SameCoordinates,Original*%
%TF.FileFunction,Soldermask,Top*%
%TF.FilePolarity,Negative*%
%FSLAX46Y46*%
G04 Gerber Fmt 4.6, Leading zero omitted, Abs format (unit mm)*
G04 Created by KiCad (PCBNEW 10.99.0-3671-gbe90a7e200) date 2026-09-09 22:52:29*
%MOMM*%
%LPD*%
G01*
G04 APERTURE LIST*
G04 Aperture macros list*
%AMRoundRect*
0 Rectangle with rounded corners*
0 $1 Rounding radius*
0 $2 $3 $4 $5 $6 $7 $8 $9 X,Y pos of 4 corners*
0 Add a 4 corners polygon primitive as box body*
4,1,4,$2,$3,$4,$5,$6,$7,$8,$9,$2,$3,0*
0 Add four circle primitives for the rounded corners*
1,1,$1+$1,$2,$3*
1,1,$1+$1,$4,$5*
1,1,$1+$1,$6,$7*
1,1,$1+$1,$8,$9*
0 Add four rect primitives between the rounded corners*
20,1,$1+$1,$2,$3,$4,$5,0*
20,1,$1+$1,$4,$5,$6,$7,0*
20,1,$1+$1,$6,$7,$8,$9,0*
20,1,$1+$1,$8,$9,$2,$3,0*%
G04 Aperture macros list end*
%ADD10C,0.000000*%
%ADD11RoundRect,0.101600X-0.750000X0.650000X-0.750000X-0.650000X0.750000X-0.650000X0.750000X0.650000X0*%
%ADD12RoundRect,0.101600X-0.650000X-0.750000X0.650000X-0.750000X0.650000X0.750000X-0.650000X0.750000X0*%
%ADD13RoundRect,0.101600X-0.838200X0.838200X-0.838200X-0.838200X0.838200X-0.838200X0.838200X0.838200X0*%
%ADD14C,1.879600*%
%ADD15RoundRect,0.101600X-0.750000X0.350000X-0.750000X-0.350000X0.750000X-0.350000X0.750000X0.350000X0*%
%ADD16RoundRect,0.101600X-0.700000X-0.900000X0.700000X-0.900000X0.700000X0.900000X-0.700000X0.900000X0*%
%ADD17RoundRect,0.101600X-0.950000X0.700000X-0.950000X-0.700000X0.950000X-0.700000X0.950000X0.700000X0*%
%ADD18RoundRect,0.101600X-0.500000X-0.700000X0.500000X-0.700000X0.500000X0.700000X-0.500000X0.700000X0*%
%ADD19RoundRect,0.101600X0.650000X0.750000X-0.650000X0.750000X-0.650000X-0.750000X0.650000X-0.750000X0*%
%ADD20RoundRect,0.101600X0.750000X-0.650000X0.750000X0.650000X-0.750000X0.650000X-0.750000X-0.650000X0*%
%ADD21RoundRect,0.101600X-0.275000X-0.600000X0.275000X-0.600000X0.275000X0.600000X-0.275000X0.600000X0*%
%ADD22C,3.803200*%
%ADD23RoundRect,0.101600X0.330200X1.016000X-0.330200X1.016000X-0.330200X-1.016000X0.330200X-1.016000X0*%
%ADD24RoundRect,0.101600X0.500000X0.600000X-0.500000X0.600000X-0.500000X-0.600000X0.500000X-0.600000X0*%
%ADD25RoundRect,0.101600X-0.500000X-0.600000X0.500000X-0.600000X0.500000X0.600000X-0.500000X0.600000X0*%
%ADD26RoundRect,0.401600X-0.900000X-0.900000X0.900000X-0.900000X0.900000X0.900000X-0.900000X0.900000X0*%
G04 APERTURE END LIST*
D10*
%TO.C,SJ4*%
G36*
X-20891500Y63500D02*
G01*
X-23812500Y63500D01*
X-23812500Y1714500D01*
X-20891500Y1714500D01*
X-20891500Y63500D01*
G37*
%TO.C,U$23*%
G36*
X-15619317Y-6696120D02*
G01*
X-15446430Y-6788530D01*
X-15294893Y-6912893D01*
X-15170530Y-7064430D01*
X-15078120Y-7237317D01*
X-15021215Y-7424910D01*
X-15002000Y-7620000D01*
X-15078120Y-8002683D01*
X-15170530Y-8175570D01*
X-15294893Y-8327107D01*
X-15446430Y-8451470D01*
X-15619317Y-8543880D01*
X-15806910Y-8600785D01*
X-16002000Y-8620000D01*
X-16384683Y-8543880D01*
X-16557570Y-8451470D01*
X-16709107Y-8327107D01*
X-16833470Y-8175570D01*
X-16925880Y-8002683D01*
X-16982785Y-7815090D01*
X-17002000Y-7620000D01*
X-16925880Y-7237317D01*
X-16833470Y-7064430D01*
X-16709107Y-6912893D01*
X-16557570Y-6788530D01*
X-16384683Y-6696120D01*
X-16197090Y-6639215D01*
X-16002000Y-6620000D01*
X-15619317Y-6696120D01*
G37*
%TO.C,U$9*%
G36*
X18924683Y-16856120D02*
G01*
X19097570Y-16948530D01*
X19249107Y-17072893D01*
X19373470Y-17224430D01*
X19465880Y-17397317D01*
X19522785Y-17584910D01*
X19542000Y-17780000D01*
X19465880Y-18162683D01*
X19373470Y-18335570D01*
X19249107Y-18487107D01*
X19097570Y-18611470D01*
X18924683Y-18703880D01*
X18737090Y-18760785D01*
X18542000Y-18780000D01*
X18159317Y-18703880D01*
X17986430Y-18611470D01*
X17834893Y-18487107D01*
X17710530Y-18335570D01*
X17618120Y-18162683D01*
X17561215Y-17975090D01*
X17542000Y-17780000D01*
X17618120Y-17397317D01*
X17710530Y-17224430D01*
X17834893Y-17072893D01*
X17986430Y-16948530D01*
X18159317Y-16856120D01*
X18346910Y-16799215D01*
X18542000Y-16780000D01*
X18924683Y-16856120D01*
G37*
%TO.C,SJ2*%
G36*
X-20891500Y-7937500D02*
G01*
X-23812500Y-7937500D01*
X-23812500Y-6286500D01*
X-20891500Y-6286500D01*
X-20891500Y-7937500D01*
G37*
%TO.C,SJ3*%
G36*
X-20891500Y-4000500D02*
G01*
X-23812500Y-4000500D01*
X-23812500Y-2349500D01*
X-20891500Y-2349500D01*
X-20891500Y-4000500D01*
G37*
%TO.C,U$11*%
G36*
X-21969317Y29371880D02*
G01*
X-21796430Y29279470D01*
X-21644893Y29155107D01*
X-21520530Y29003570D01*
X-21428120Y28830683D01*
X-21371215Y28643090D01*
X-21352000Y28448000D01*
X-21428120Y28065317D01*
X-21520530Y27892430D01*
X-21644893Y27740893D01*
X-21796430Y27616530D01*
X-21969317Y27524120D01*
X-22156910Y27467215D01*
X-22352000Y27448000D01*
X-22734683Y27524120D01*
X-22907570Y27616530D01*
X-23059107Y27740893D01*
X-23183470Y27892430D01*
X-23275880Y28065317D01*
X-23332785Y28252910D01*
X-23352000Y28448000D01*
X-23275880Y28830683D01*
X-23183470Y29003570D01*
X-23059107Y29155107D01*
X-22907570Y29279470D01*
X-22734683Y29371880D01*
X-22547090Y29428785D01*
X-22352000Y29448000D01*
X-21969317Y29371880D01*
G37*
%TO.C,SJ1*%
G36*
X-20891500Y-11747500D02*
G01*
X-23812500Y-11747500D01*
X-23812500Y-10096500D01*
X-20891500Y-10096500D01*
X-20891500Y-11747500D01*
G37*
%TO.C,U$10*%
G36*
X12400000Y-8510000D02*
G01*
X12100000Y-8510000D01*
X12100000Y-7210000D01*
X12400000Y-7210000D01*
X12400000Y-8510000D01*
G37*
G36*
X11900000Y-8510000D02*
G01*
X11600000Y-8510000D01*
X11600000Y-7210000D01*
X11900000Y-7210000D01*
X11900000Y-8510000D01*
G37*
G36*
X11400000Y-8510000D02*
G01*
X11100000Y-8510000D01*
X11100000Y-7210000D01*
X11400000Y-7210000D01*
X11400000Y-8510000D01*
G37*
G36*
X10900000Y-8510000D02*
G01*
X10600000Y-8510000D01*
X10600000Y-7210000D01*
X10900000Y-7210000D01*
X10900000Y-8510000D01*
G37*
G36*
X10400000Y-8510000D02*
G01*
X10100000Y-8510000D01*
X10100000Y-7210000D01*
X10400000Y-7210000D01*
X10400000Y-8510000D01*
G37*
G36*
X9900000Y-8510000D02*
G01*
X9600000Y-8510000D01*
X9600000Y-7210000D01*
X9900000Y-7210000D01*
X9900000Y-8510000D01*
G37*
G36*
X9400000Y-8510000D02*
G01*
X9100000Y-8510000D01*
X9100000Y-7210000D01*
X9400000Y-7210000D01*
X9400000Y-8510000D01*
G37*
G36*
X8900000Y-8510000D02*
G01*
X8600000Y-8510000D01*
X8600000Y-7210000D01*
X8900000Y-7210000D01*
X8900000Y-8510000D01*
G37*
G36*
X8400000Y-8510000D02*
G01*
X8100000Y-8510000D01*
X8100000Y-7210000D01*
X8400000Y-7210000D01*
X8400000Y-8510000D01*
G37*
G36*
X7900000Y-8510000D02*
G01*
X7600000Y-8510000D01*
X7600000Y-7210000D01*
X7900000Y-7210000D01*
X7900000Y-8510000D01*
G37*
G36*
X7400000Y-8510000D02*
G01*
X7100000Y-8510000D01*
X7100000Y-7210000D01*
X7400000Y-7210000D01*
X7400000Y-8510000D01*
G37*
G36*
X6900000Y-8510000D02*
G01*
X6600000Y-8510000D01*
X6600000Y-7210000D01*
X6900000Y-7210000D01*
X6900000Y-8510000D01*
G37*
G36*
X6400000Y-8510000D02*
G01*
X6100000Y-8510000D01*
X6100000Y-7210000D01*
X6400000Y-7210000D01*
X6400000Y-8510000D01*
G37*
G36*
X5900000Y-8510000D02*
G01*
X5600000Y-8510000D01*
X5600000Y-7210000D01*
X5900000Y-7210000D01*
X5900000Y-8510000D01*
G37*
G36*
X5400000Y-8510000D02*
G01*
X5100000Y-8510000D01*
X5100000Y-7210000D01*
X5400000Y-7210000D01*
X5400000Y-8510000D01*
G37*
G36*
X4900000Y-8510000D02*
G01*
X4600000Y-8510000D01*
X4600000Y-7210000D01*
X4900000Y-7210000D01*
X4900000Y-8510000D01*
G37*
G36*
X4400000Y-8510000D02*
G01*
X4100000Y-8510000D01*
X4100000Y-7210000D01*
X4400000Y-7210000D01*
X4400000Y-8510000D01*
G37*
G36*
X3900000Y-8510000D02*
G01*
X3600000Y-8510000D01*
X3600000Y-7210000D01*
X3900000Y-7210000D01*
X3900000Y-8510000D01*
G37*
G36*
X3400000Y-8510000D02*
G01*
X3100000Y-8510000D01*
X3100000Y-7210000D01*
X3400000Y-7210000D01*
X3400000Y-8510000D01*
G37*
G36*
X2900000Y-8510000D02*
G01*
X2600000Y-8510000D01*
X2600000Y-7210000D01*
X2900000Y-7210000D01*
X2900000Y-8510000D01*
G37*
G36*
X2400000Y-8510000D02*
G01*
X2100000Y-8510000D01*
X2100000Y-7210000D01*
X2400000Y-7210000D01*
X2400000Y-8510000D01*
G37*
G36*
X1900000Y-8510000D02*
G01*
X1600000Y-8510000D01*
X1600000Y-7210000D01*
X1900000Y-7210000D01*
X1900000Y-8510000D01*
G37*
G36*
X1400000Y-8510000D02*
G01*
X1100000Y-8510000D01*
X1100000Y-7210000D01*
X1400000Y-7210000D01*
X1400000Y-8510000D01*
G37*
G36*
X900000Y-8510000D02*
G01*
X600000Y-8510000D01*
X600000Y-7210000D01*
X900000Y-7210000D01*
X900000Y-8510000D01*
G37*
G36*
X400000Y-8510000D02*
G01*
X100000Y-8510000D01*
X100000Y-7210000D01*
X400000Y-7210000D01*
X400000Y-8510000D01*
G37*
G36*
X-100000Y-8510000D02*
G01*
X-400000Y-8510000D01*
X-400000Y-7210000D01*
X-100000Y-7210000D01*
X-100000Y-8510000D01*
G37*
G36*
X-600000Y-8510000D02*
G01*
X-900000Y-8510000D01*
X-900000Y-7210000D01*
X-600000Y-7210000D01*
X-600000Y-8510000D01*
G37*
G36*
X-1100000Y-8510000D02*
G01*
X-1400000Y-8510000D01*
X-1400000Y-7210000D01*
X-1100000Y-7210000D01*
X-1100000Y-8510000D01*
G37*
G36*
X-1600000Y-8510000D02*
G01*
X-1900000Y-8510000D01*
X-1900000Y-7210000D01*
X-1600000Y-7210000D01*
X-1600000Y-8510000D01*
G37*
G36*
X-2100000Y-8510000D02*
G01*
X-2400000Y-8510000D01*
X-2400000Y-7210000D01*
X-2100000Y-7210000D01*
X-2100000Y-8510000D01*
G37*
G36*
X-2600000Y-8510000D02*
G01*
X-2900000Y-8510000D01*
X-2900000Y-7210000D01*
X-2600000Y-7210000D01*
X-2600000Y-8510000D01*
G37*
G36*
X-3100000Y-8510000D02*
G01*
X-3400000Y-8510000D01*
X-3400000Y-7210000D01*
X-3100000Y-7210000D01*
X-3100000Y-8510000D01*
G37*
G36*
X-3600000Y-8510000D02*
G01*
X-3900000Y-8510000D01*
X-3900000Y-7210000D01*
X-3600000Y-7210000D01*
X-3600000Y-8510000D01*
G37*
G36*
X-4100000Y-8510000D02*
G01*
X-4400000Y-8510000D01*
X-4400000Y-7210000D01*
X-4100000Y-7210000D01*
X-4100000Y-8510000D01*
G37*
G36*
X-4600000Y-8510000D02*
G01*
X-4900000Y-8510000D01*
X-4900000Y-7210000D01*
X-4600000Y-7210000D01*
X-4600000Y-8510000D01*
G37*
G36*
X-5100000Y-8510000D02*
G01*
X-5400000Y-8510000D01*
X-5400000Y-7210000D01*
X-5100000Y-7210000D01*
X-5100000Y-8510000D01*
G37*
G36*
X-5600000Y-8510000D02*
G01*
X-5900000Y-8510000D01*
X-5900000Y-7210000D01*
X-5600000Y-7210000D01*
X-5600000Y-8510000D01*
G37*
G36*
X-6100000Y-8510000D02*
G01*
X-6400000Y-8510000D01*
X-6400000Y-7210000D01*
X-6100000Y-7210000D01*
X-6100000Y-8510000D01*
G37*
G36*
X-6600000Y-8510000D02*
G01*
X-6900000Y-8510000D01*
X-6900000Y-7210000D01*
X-6600000Y-7210000D01*
X-6600000Y-8510000D01*
G37*
G36*
X-7100000Y-8510000D02*
G01*
X-7400000Y-8510000D01*
X-7400000Y-7210000D01*
X-7100000Y-7210000D01*
X-7100000Y-8510000D01*
G37*
G36*
X-7600000Y-8510000D02*
G01*
X-7900000Y-8510000D01*
X-7900000Y-7210000D01*
X-7600000Y-7210000D01*
X-7600000Y-8510000D01*
G37*
G36*
X-8100000Y-8510000D02*
G01*
X-8400000Y-8510000D01*
X-8400000Y-7210000D01*
X-8100000Y-7210000D01*
X-8100000Y-8510000D01*
G37*
G36*
X-8600000Y-8510000D02*
G01*
X-8900000Y-8510000D01*
X-8900000Y-7210000D01*
X-8600000Y-7210000D01*
X-8600000Y-8510000D01*
G37*
G36*
X-9100000Y-8510000D02*
G01*
X-9400000Y-8510000D01*
X-9400000Y-7210000D01*
X-9100000Y-7210000D01*
X-9100000Y-8510000D01*
G37*
G36*
X-9600000Y-8510000D02*
G01*
X-9900000Y-8510000D01*
X-9900000Y-7210000D01*
X-9600000Y-7210000D01*
X-9600000Y-8510000D01*
G37*
G36*
X-10100000Y-8510000D02*
G01*
X-10400000Y-8510000D01*
X-10400000Y-7210000D01*
X-10100000Y-7210000D01*
X-10100000Y-8510000D01*
G37*
G36*
X-10600000Y-8510000D02*
G01*
X-10900000Y-8510000D01*
X-10900000Y-7210000D01*
X-10600000Y-7210000D01*
X-10600000Y-8510000D01*
G37*
G36*
X-11100000Y-8510000D02*
G01*
X-11400000Y-8510000D01*
X-11400000Y-7210000D01*
X-11100000Y-7210000D01*
X-11100000Y-8510000D01*
G37*
G36*
X-11600000Y-8510000D02*
G01*
X-11900000Y-8510000D01*
X-11900000Y-7210000D01*
X-11600000Y-7210000D01*
X-11600000Y-8510000D01*
G37*
G36*
X-12100000Y-8510000D02*
G01*
X-12400000Y-8510000D01*
X-12400000Y-7210000D01*
X-12100000Y-7210000D01*
X-12100000Y-8510000D01*
G37*
%TD*%
D11*
%TO.C,R1*%
X-13716000Y1712000D03*
X-13716000Y-188000D03*
%TD*%
D12*
%TO.C,R16*%
X-9840000Y-26924000D03*
X-7940000Y-26924000D03*
%TD*%
D13*
%TO.C,JP2*%
X24130000Y-38100000D03*
D14*
X21590000Y-38100000D03*
X19050000Y-38100000D03*
X16510000Y-38100000D03*
X13970000Y-38100000D03*
X11430000Y-38100000D03*
X8890000Y-38100000D03*
X6350000Y-38100000D03*
X3810000Y-38100000D03*
X1270000Y-38100000D03*
X-1270000Y-38100000D03*
X-3810000Y-38100000D03*
X-6350000Y-38100000D03*
X-8890000Y-38100000D03*
X-11430000Y-38100000D03*
X-13970000Y-38100000D03*
X-16510000Y-38100000D03*
X-19050000Y-38100000D03*
X-21590000Y-38100000D03*
X-24130000Y-38100000D03*
%TD*%
D11*
%TO.C,R2*%
X-11684000Y1712000D03*
X-11684000Y-188000D03*
%TD*%
D15*
%TO.C,X1*%
X-19022000Y16654000D03*
X-18622000Y17754000D03*
X-19022000Y18854000D03*
X-19422000Y19954000D03*
X-19022000Y21054000D03*
X-19422000Y22154000D03*
X-19022000Y23254000D03*
X-19022000Y24354000D03*
D16*
X-8822000Y23654000D03*
X-8822000Y17654000D03*
D17*
X-21922000Y25254000D03*
X-22822000Y12054000D03*
%TD*%
D12*
%TO.C,C3*%
X18608000Y4826000D03*
X20508000Y4826000D03*
%TD*%
D18*
%TO.C,IC4*%
X4638000Y8044000D03*
X6538000Y8044000D03*
X5588000Y10244000D03*
%TD*%
D19*
%TO.C,R15*%
X-4003000Y-26924000D03*
X-5903000Y-26924000D03*
%TD*%
D20*
%TO.C,R6*%
X8382000Y8956000D03*
X8382000Y10856000D03*
%TD*%
D13*
%TO.C,JP1*%
X24130000Y38100000D03*
D14*
X21590000Y38100000D03*
X19050000Y38100000D03*
X16510000Y38100000D03*
X13970000Y38100000D03*
X11430000Y38100000D03*
X8890000Y38100000D03*
X6350000Y38100000D03*
X3810000Y38100000D03*
X1270000Y38100000D03*
X-1270000Y38100000D03*
X-3810000Y38100000D03*
X-6350000Y38100000D03*
X-8890000Y38100000D03*
X-11430000Y38100000D03*
X-13970000Y38100000D03*
X-16510000Y38100000D03*
X-19050000Y38100000D03*
X-21590000Y38100000D03*
X-24130000Y38100000D03*
%TD*%
D11*
%TO.C,R3*%
X-9652000Y1712000D03*
X-9652000Y-188000D03*
%TD*%
D21*
%TO.C,IC1*%
X18608000Y-1046000D03*
X19558000Y-1046000D03*
X20508000Y-1046000D03*
X20508000Y1554000D03*
X18608000Y1554000D03*
%TD*%
D11*
%TO.C,R12*%
X7747000Y24445000D03*
X7747000Y22545000D03*
%TD*%
D19*
%TO.C,R5*%
X-16068000Y3302000D03*
X-17968000Y3302000D03*
%TD*%
D11*
%TO.C,R11*%
X-17526000Y-27117000D03*
X-17526000Y-29017000D03*
%TD*%
D12*
%TO.C,R7*%
X7559000Y27559000D03*
X9459000Y27559000D03*
%TD*%
D20*
%TO.C,R9*%
X-20066000Y-29017000D03*
X-20066000Y-27117000D03*
%TD*%
D22*
%TO.C,U$16*%
X-28575000Y38100000D03*
%TD*%
D23*
%TO.C,IC3*%
X20955000Y23317200D03*
X19685000Y23317200D03*
X18415000Y23317200D03*
X17145000Y23317200D03*
X15875000Y23317200D03*
X14605000Y23317200D03*
X13335000Y23317200D03*
X12065000Y23317200D03*
X10795000Y23317200D03*
X9525000Y23317200D03*
X9525000Y13258800D03*
X10795000Y13258800D03*
X12065000Y13258800D03*
X13335000Y13258800D03*
X14605000Y13258800D03*
X15875000Y13258800D03*
X17145000Y13258800D03*
X18415000Y13258800D03*
X19685000Y13258800D03*
X20955000Y13258800D03*
%TD*%
D12*
%TO.C,R13*%
X-9713000Y-32766000D03*
X-7813000Y-32766000D03*
%TD*%
D11*
%TO.C,C4*%
X-5334000Y1712000D03*
X-5334000Y-188000D03*
%TD*%
D22*
%TO.C,U$7*%
X-28575000Y-38100000D03*
%TD*%
D19*
%TO.C,R14*%
X-4003000Y-32766000D03*
X-5903000Y-32766000D03*
%TD*%
D12*
%TO.C,C5*%
X22164000Y-2286000D03*
X24064000Y-2286000D03*
%TD*%
D22*
%TO.C,U$17*%
X28575000Y38100000D03*
%TD*%
D11*
%TO.C,R10*%
X-14859000Y-27117000D03*
X-14859000Y-29017000D03*
%TD*%
D22*
%TO.C,U$15*%
X28575000Y-38100000D03*
%TD*%
D11*
%TO.C,R4*%
X-7620000Y1712000D03*
X-7620000Y-188000D03*
%TD*%
D23*
%TO.C,IC2*%
X5969000Y23571200D03*
X4699000Y23571200D03*
X3429000Y23571200D03*
X2159000Y23571200D03*
X889000Y23571200D03*
X-381000Y23571200D03*
X-1651000Y23571200D03*
X-2921000Y23571200D03*
X-4191000Y23571200D03*
X-5461000Y23571200D03*
X-5461000Y13512800D03*
X-4191000Y13512800D03*
X-2921000Y13512800D03*
X-1651000Y13512800D03*
X-381000Y13512800D03*
X889000Y13512800D03*
X2159000Y13512800D03*
X3429000Y13512800D03*
X4699000Y13512800D03*
X5969000Y13512800D03*
%TD*%
D24*
%TO.C,Q3*%
X-4003000Y-28972000D03*
X-5903000Y-28972000D03*
X-4953000Y-30972000D03*
%TD*%
D25*
%TO.C,Q4*%
X-17714000Y-1127000D03*
X-15814000Y-1127000D03*
X-16764000Y873000D03*
%TD*%
D19*
%TO.C,C1*%
X-17846000Y8636000D03*
X-19746000Y8636000D03*
%TD*%
D24*
%TO.C,Q2*%
X-7940000Y-28972000D03*
X-9840000Y-28972000D03*
X-8890000Y-30972000D03*
%TD*%
D20*
%TO.C,R8*%
X-22479000Y-28382000D03*
X-22479000Y-26482000D03*
%TD*%
D26*
%TO.C,U$10*%
X-14350000Y-10550000D03*
X14350000Y-10550000D03*
%TD*%
M02*
