%TF.GenerationSoftware,KiCad,Pcbnew,10.99.0-3758-g2f18d95be7*%
%TF.CreationDate,2026-09-22T10:46:56+01:00*%
%TF.ProjectId,kicad_file,6b696361-645f-4666-996c-652e6b696361,rev?*%
%TF.SameCoordinates,Original*%
%TF.FileFunction,Legend,Bot*%
%TF.FilePolarity,Positive*%
%FSLAX46Y46*%
G04 Gerber Fmt 4.6, Leading zero omitted, Abs format (unit mm)*
G04 Created by KiCad (PCBNEW 10.99.0-3758-g2f18d95be7) date 2026-09-22 10:46:56*
%MOMM*%
%LPD*%
G01*
G04 APERTURE LIST*
%ADD10C,0.406400*%
%ADD11C,0.203200*%
%ADD12C,0.304800*%
%ADD13C,0.000000*%
%ADD14C,1.879600*%
%ADD15C,3.301600*%
%ADD16C,1.158000*%
%ADD17O,2.101600X1.101600*%
%ADD18O,3.017600X1.559600*%
%ADD19C,3.911600*%
G04 APERTURE END LIST*
D10*
X6985000Y14605000D02*
X127000Y14605000D01*
X7620000Y16129000D02*
X7620000Y18796000D01*
X7620000Y13970000D02*
X6985000Y14605000D01*
X7620000Y5334000D02*
X7620000Y13970000D01*
X8890000Y14859000D02*
X7620000Y16129000D01*
X8890000Y4064000D02*
X7620000Y5334000D01*
X18542000Y4064000D02*
X8890000Y4064000D01*
X19431000Y3175000D02*
X18542000Y4064000D01*
X19431000Y127000D02*
X19431000Y3175000D01*
X20066000Y14859000D02*
X8890000Y14859000D01*
X22733000Y12192000D02*
X20066000Y14859000D01*
X22733000Y5207000D02*
X22733000Y12192000D01*
X24892000Y3048000D02*
X22733000Y5207000D01*
X24892000Y0D02*
X24892000Y3048000D01*
D11*
X28032496Y10359543D02*
X27916382Y10320838D01*
X27916382Y10320838D02*
X27722858Y10320838D01*
X27722858Y10320838D02*
X27645449Y10359543D01*
X27645449Y10359543D02*
X27606744Y10398247D01*
X27606744Y10398247D02*
X27568039Y10475657D01*
X27568039Y10475657D02*
X27568039Y10553066D01*
X27568039Y10553066D02*
X27606744Y10630476D01*
X27606744Y10630476D02*
X27645449Y10669181D01*
X27645449Y10669181D02*
X27722858Y10707885D01*
X27722858Y10707885D02*
X27877677Y10746590D01*
X27877677Y10746590D02*
X27955087Y10785295D01*
X27955087Y10785295D02*
X27993792Y10824000D01*
X27993792Y10824000D02*
X28032496Y10901409D01*
X28032496Y10901409D02*
X28032496Y10978819D01*
X28032496Y10978819D02*
X27993792Y11056228D01*
X27993792Y11056228D02*
X27955087Y11094933D01*
X27955087Y11094933D02*
X27877677Y11133638D01*
X27877677Y11133638D02*
X27684154Y11133638D01*
X27684154Y11133638D02*
X27568039Y11094933D01*
X27800268Y11249752D02*
X27800268Y10204723D01*
X26987468Y10011200D02*
X27026173Y10011200D01*
X27026173Y10011200D02*
X27103582Y10049904D01*
X27103582Y10049904D02*
X27142287Y10127314D01*
X27142287Y10127314D02*
X27142287Y10514362D01*
X27142287Y10514362D02*
X27180992Y10591771D01*
X27180992Y10591771D02*
X27258401Y10630476D01*
X27258401Y10630476D02*
X27180992Y10669181D01*
X27180992Y10669181D02*
X27142287Y10746590D01*
X27142287Y10746590D02*
X27142287Y11133638D01*
X27142287Y11133638D02*
X27103582Y11211047D01*
X27103582Y11211047D02*
X27026173Y11249752D01*
X27026173Y11249752D02*
X26987468Y11249752D01*
X26213373Y10320838D02*
X26484306Y10707885D01*
X26677830Y10320838D02*
X26677830Y11133638D01*
X26677830Y11133638D02*
X26368192Y11133638D01*
X26368192Y11133638D02*
X26290782Y11094933D01*
X26290782Y11094933D02*
X26252077Y11056228D01*
X26252077Y11056228D02*
X26213373Y10978819D01*
X26213373Y10978819D02*
X26213373Y10862704D01*
X26213373Y10862704D02*
X26252077Y10785295D01*
X26252077Y10785295D02*
X26290782Y10746590D01*
X26290782Y10746590D02*
X26368192Y10707885D01*
X26368192Y10707885D02*
X26677830Y10707885D01*
X25865030Y10746590D02*
X25594096Y10746590D01*
X25477982Y10320838D02*
X25865030Y10320838D01*
X25865030Y10320838D02*
X25865030Y11133638D01*
X25865030Y11133638D02*
X25477982Y11133638D01*
X25245754Y11133638D02*
X24974821Y10320838D01*
X24974821Y10320838D02*
X24703887Y11133638D01*
X24510363Y10011200D02*
X24471658Y10011200D01*
X24471658Y10011200D02*
X24394249Y10049904D01*
X24394249Y10049904D02*
X24355544Y10127314D01*
X24355544Y10127314D02*
X24355544Y10514362D01*
X24355544Y10514362D02*
X24316839Y10591771D01*
X24316839Y10591771D02*
X24239430Y10630476D01*
X24239430Y10630476D02*
X24316839Y10669181D01*
X24316839Y10669181D02*
X24355544Y10746590D01*
X24355544Y10746590D02*
X24355544Y11133638D01*
X24355544Y11133638D02*
X24394249Y11211047D01*
X24394249Y11211047D02*
X24471658Y11249752D01*
X24471658Y11249752D02*
X24510363Y11249752D01*
%TO.C,U$8*%
D12*
X29574600Y9702800D02*
G75*
G02*
X27778600Y9702800I-898000J0D01*
G01*
X27778600Y9702800D02*
G75*
G02*
X29574600Y9702800I898000J0D01*
G01*
D13*
%TO.C,U$6*%
G36*
X5337800Y10760700D02*
G01*
X3653800Y10760700D01*
X3653800Y10768300D01*
X5337800Y10768300D01*
X5337800Y10760700D01*
G37*
G36*
X5330200Y10722600D02*
G01*
X3608100Y10722600D01*
X3608100Y10730200D01*
X5330200Y10730200D01*
X5330200Y10722600D01*
G37*
G36*
X5330200Y10730200D02*
G01*
X3615700Y10730200D01*
X3615700Y10737900D01*
X5330200Y10737900D01*
X5330200Y10730200D01*
G37*
G36*
X5330200Y10737900D02*
G01*
X3623300Y10737900D01*
X3623300Y10745500D01*
X5330200Y10745500D01*
X5330200Y10737900D01*
G37*
G36*
X5330200Y10745500D02*
G01*
X3638500Y10745500D01*
X3638500Y10753100D01*
X5330200Y10753100D01*
X5330200Y10745500D01*
G37*
G36*
X5330200Y10753100D02*
G01*
X3646200Y10753100D01*
X3646200Y10760700D01*
X5330200Y10760700D01*
X5330200Y10753100D01*
G37*
G36*
X5330200Y10768300D02*
G01*
X3661400Y10768300D01*
X3661400Y10776000D01*
X5330200Y10776000D01*
X5330200Y10768300D01*
G37*
G36*
X5330200Y10776000D02*
G01*
X3676600Y10776000D01*
X3676600Y10783600D01*
X5330200Y10783600D01*
X5330200Y10776000D01*
G37*
G36*
X5330200Y10783600D02*
G01*
X3684300Y10783600D01*
X3684300Y10791200D01*
X5330200Y10791200D01*
X5330200Y10783600D01*
G37*
G36*
X5330200Y10791200D02*
G01*
X3699500Y10791200D01*
X3699500Y10798800D01*
X5330200Y10798800D01*
X5330200Y10791200D01*
G37*
G36*
X5330200Y10798800D02*
G01*
X3707100Y10798800D01*
X3707100Y10806400D01*
X5330200Y10806400D01*
X5330200Y10798800D01*
G37*
G36*
X5330200Y10806400D02*
G01*
X3722400Y10806400D01*
X3722400Y10814100D01*
X5330200Y10814100D01*
X5330200Y10806400D01*
G37*
G36*
X5322600Y10699800D02*
G01*
X3585200Y10699800D01*
X3585200Y10707400D01*
X5322600Y10707400D01*
X5322600Y10699800D01*
G37*
G36*
X5322600Y10707400D02*
G01*
X3592800Y10707400D01*
X3592800Y10715000D01*
X5322600Y10715000D01*
X5322600Y10707400D01*
G37*
G36*
X5322600Y10715000D02*
G01*
X3600400Y10715000D01*
X3600400Y10722600D01*
X5322600Y10722600D01*
X5322600Y10715000D01*
G37*
G36*
X5322600Y10814100D02*
G01*
X3737600Y10814100D01*
X3737600Y10821700D01*
X5322600Y10821700D01*
X5322600Y10814100D01*
G37*
G36*
X5322600Y10821700D02*
G01*
X3745200Y10821700D01*
X3745200Y10829300D01*
X5322600Y10829300D01*
X5322600Y10821700D01*
G37*
G36*
X5314900Y10684500D02*
G01*
X3570000Y10684500D01*
X3570000Y10692100D01*
X5314900Y10692100D01*
X5314900Y10684500D01*
G37*
G36*
X5314900Y10692100D02*
G01*
X3577600Y10692100D01*
X3577600Y10699800D01*
X5314900Y10699800D01*
X5314900Y10692100D01*
G37*
G36*
X5314900Y10829300D02*
G01*
X3760500Y10829300D01*
X3760500Y10836900D01*
X5314900Y10836900D01*
X5314900Y10829300D01*
G37*
G36*
X5314900Y10836900D02*
G01*
X3775700Y10836900D01*
X3775700Y10844500D01*
X5314900Y10844500D01*
X5314900Y10836900D01*
G37*
G36*
X5314900Y10844500D02*
G01*
X3790900Y10844500D01*
X3790900Y10852200D01*
X5314900Y10852200D01*
X5314900Y10844500D01*
G37*
G36*
X5307300Y10669300D02*
G01*
X3554700Y10669300D01*
X3554700Y10676900D01*
X5307300Y10676900D01*
X5307300Y10669300D01*
G37*
G36*
X5307300Y10676900D02*
G01*
X3562300Y10676900D01*
X3562300Y10684500D01*
X5307300Y10684500D01*
X5307300Y10676900D01*
G37*
G36*
X5307300Y10852200D02*
G01*
X3806200Y10852200D01*
X3806200Y10859800D01*
X5307300Y10859800D01*
X5307300Y10852200D01*
G37*
G36*
X5299700Y10661700D02*
G01*
X3547100Y10661700D01*
X3547100Y10669300D01*
X5299700Y10669300D01*
X5299700Y10661700D01*
G37*
G36*
X5299700Y10859800D02*
G01*
X3829000Y10859800D01*
X3829000Y10867400D01*
X5299700Y10867400D01*
X5299700Y10859800D01*
G37*
G36*
X5299700Y10867400D02*
G01*
X3844300Y10867400D01*
X3844300Y10875000D01*
X5299700Y10875000D01*
X5299700Y10867400D01*
G37*
G36*
X5292100Y10646400D02*
G01*
X3539500Y10646400D01*
X3539500Y10654000D01*
X5292100Y10654000D01*
X5292100Y10646400D01*
G37*
G36*
X5292100Y10654000D02*
G01*
X3539500Y10654000D01*
X3539500Y10661700D01*
X5292100Y10661700D01*
X5292100Y10654000D01*
G37*
G36*
X5292100Y10875000D02*
G01*
X3867100Y10875000D01*
X3867100Y10882600D01*
X5292100Y10882600D01*
X5292100Y10875000D01*
G37*
G36*
X5284500Y10638800D02*
G01*
X3531900Y10638800D01*
X3531900Y10646400D01*
X5284500Y10646400D01*
X5284500Y10638800D01*
G37*
G36*
X5284500Y10882600D02*
G01*
X3890000Y10882600D01*
X3890000Y10890300D01*
X5284500Y10890300D01*
X5284500Y10882600D01*
G37*
G36*
X5284500Y10890300D02*
G01*
X3912900Y10890300D01*
X3912900Y10897900D01*
X5284500Y10897900D01*
X5284500Y10890300D01*
G37*
G36*
X5276800Y10623600D02*
G01*
X3516600Y10623600D01*
X3516600Y10631200D01*
X5276800Y10631200D01*
X5276800Y10623600D01*
G37*
G36*
X5276800Y10631200D02*
G01*
X3524200Y10631200D01*
X3524200Y10638800D01*
X5276800Y10638800D01*
X5276800Y10631200D01*
G37*
G36*
X5276800Y10897900D02*
G01*
X3935700Y10897900D01*
X3935700Y10905500D01*
X5276800Y10905500D01*
X5276800Y10897900D01*
G37*
G36*
X5269200Y10615900D02*
G01*
X3516600Y10615900D01*
X3516600Y10623600D01*
X5269200Y10623600D01*
X5269200Y10615900D01*
G37*
G36*
X5261600Y10600700D02*
G01*
X3501400Y10600700D01*
X3501400Y10608300D01*
X5261600Y10608300D01*
X5261600Y10600700D01*
G37*
G36*
X5261600Y10608300D02*
G01*
X3509000Y10608300D01*
X3509000Y10615900D01*
X5261600Y10615900D01*
X5261600Y10608300D01*
G37*
G36*
X5261600Y10905500D02*
G01*
X3966200Y10905500D01*
X3966200Y10913100D01*
X5261600Y10913100D01*
X5261600Y10905500D01*
G37*
G36*
X5254000Y10593100D02*
G01*
X3493800Y10593100D01*
X3493800Y10600700D01*
X5254000Y10600700D01*
X5254000Y10593100D01*
G37*
G36*
X5254000Y10913100D02*
G01*
X3996700Y10913100D01*
X3996700Y10920700D01*
X5254000Y10920700D01*
X5254000Y10913100D01*
G37*
G36*
X5246400Y10585500D02*
G01*
X3493800Y10585500D01*
X3493800Y10593100D01*
X5246400Y10593100D01*
X5246400Y10585500D01*
G37*
G36*
X5238700Y10570200D02*
G01*
X3478500Y10570200D01*
X3478500Y10577800D01*
X5238700Y10577800D01*
X5238700Y10570200D01*
G37*
G36*
X5238700Y10577800D02*
G01*
X3486100Y10577800D01*
X3486100Y10585500D01*
X5238700Y10585500D01*
X5238700Y10577800D01*
G37*
G36*
X5238700Y10920700D02*
G01*
X4027200Y10920700D01*
X4027200Y10928400D01*
X5238700Y10928400D01*
X5238700Y10920700D01*
G37*
G36*
X5231100Y10562600D02*
G01*
X3478500Y10562600D01*
X3478500Y10570200D01*
X5231100Y10570200D01*
X5231100Y10562600D01*
G37*
G36*
X5223500Y10555000D02*
G01*
X3470900Y10555000D01*
X3470900Y10562600D01*
X5223500Y10562600D01*
X5223500Y10555000D01*
G37*
G36*
X5223500Y10928400D02*
G01*
X4072900Y10928400D01*
X4072900Y10936000D01*
X5223500Y10936000D01*
X5223500Y10928400D01*
G37*
G36*
X5215900Y10539700D02*
G01*
X3463300Y10539700D01*
X3463300Y10547400D01*
X5215900Y10547400D01*
X5215900Y10539700D01*
G37*
G36*
X5215900Y10547400D02*
G01*
X3463300Y10547400D01*
X3463300Y10555000D01*
X5215900Y10555000D01*
X5215900Y10547400D01*
G37*
G36*
X5208300Y10532100D02*
G01*
X3455700Y10532100D01*
X3455700Y10539700D01*
X5208300Y10539700D01*
X5208300Y10532100D01*
G37*
G36*
X5200600Y10516900D02*
G01*
X3448000Y10516900D01*
X3448000Y10524500D01*
X5200600Y10524500D01*
X5200600Y10516900D01*
G37*
G36*
X5200600Y10524500D02*
G01*
X3448000Y10524500D01*
X3448000Y10532100D01*
X5200600Y10532100D01*
X5200600Y10524500D01*
G37*
G36*
X5200600Y10936000D02*
G01*
X4126200Y10936000D01*
X4126200Y10943600D01*
X5200600Y10943600D01*
X5200600Y10936000D01*
G37*
G36*
X5193000Y10509300D02*
G01*
X3440400Y10509300D01*
X3440400Y10516900D01*
X5193000Y10516900D01*
X5193000Y10509300D01*
G37*
G36*
X5185400Y10501600D02*
G01*
X2983200Y10501600D01*
X2983200Y10509300D01*
X5185400Y10509300D01*
X5185400Y10501600D01*
G37*
G36*
X5177800Y10486400D02*
G01*
X2990800Y10486400D01*
X2990800Y10494000D01*
X5177800Y10494000D01*
X5177800Y10486400D01*
G37*
G36*
X5177800Y10494000D02*
G01*
X2990800Y10494000D01*
X2990800Y10501600D01*
X5177800Y10501600D01*
X5177800Y10494000D01*
G37*
G36*
X5170200Y10478800D02*
G01*
X2998500Y10478800D01*
X2998500Y10486400D01*
X5170200Y10486400D01*
X5170200Y10478800D01*
G37*
G36*
X5162500Y10471200D02*
G01*
X2998500Y10471200D01*
X2998500Y10478800D01*
X5162500Y10478800D01*
X5162500Y10471200D01*
G37*
G36*
X5154900Y10455900D02*
G01*
X3006100Y10455900D01*
X3006100Y10463500D01*
X5154900Y10463500D01*
X5154900Y10455900D01*
G37*
G36*
X5154900Y10463500D02*
G01*
X3006100Y10463500D01*
X3006100Y10471200D01*
X5154900Y10471200D01*
X5154900Y10463500D01*
G37*
G36*
X5147300Y10448300D02*
G01*
X3013700Y10448300D01*
X3013700Y10455900D01*
X5147300Y10455900D01*
X5147300Y10448300D01*
G37*
G36*
X5139700Y10440700D02*
G01*
X3013700Y10440700D01*
X3013700Y10448300D01*
X5139700Y10448300D01*
X5139700Y10440700D01*
G37*
G36*
X5139700Y10943600D02*
G01*
X4537700Y10943600D01*
X4537700Y10951200D01*
X5139700Y10951200D01*
X5139700Y10943600D01*
G37*
G36*
X5132100Y10425400D02*
G01*
X3021300Y10425400D01*
X3021300Y10433100D01*
X5132100Y10433100D01*
X5132100Y10425400D01*
G37*
G36*
X5132100Y10433100D02*
G01*
X3013700Y10433100D01*
X3013700Y10440700D01*
X5132100Y10440700D01*
X5132100Y10433100D01*
G37*
G36*
X5124400Y10417800D02*
G01*
X3021300Y10417800D01*
X3021300Y10425400D01*
X5124400Y10425400D01*
X5124400Y10417800D01*
G37*
G36*
X5116800Y10402600D02*
G01*
X3028900Y10402600D01*
X3028900Y10410200D01*
X5116800Y10410200D01*
X5116800Y10402600D01*
G37*
G36*
X5116800Y10410200D02*
G01*
X3028900Y10410200D01*
X3028900Y10417800D01*
X5116800Y10417800D01*
X5116800Y10410200D01*
G37*
G36*
X5109200Y10395000D02*
G01*
X3028900Y10395000D01*
X3028900Y10402600D01*
X5109200Y10402600D01*
X5109200Y10395000D01*
G37*
G36*
X5101600Y10387300D02*
G01*
X3036600Y10387300D01*
X3036600Y10395000D01*
X5101600Y10395000D01*
X5101600Y10387300D01*
G37*
G36*
X5094000Y10372100D02*
G01*
X3036600Y10372100D01*
X3036600Y10379700D01*
X5094000Y10379700D01*
X5094000Y10372100D01*
G37*
G36*
X5094000Y10379700D02*
G01*
X3036600Y10379700D01*
X3036600Y10387300D01*
X5094000Y10387300D01*
X5094000Y10379700D01*
G37*
G36*
X5086300Y10364500D02*
G01*
X3036600Y10364500D01*
X3036600Y10372100D01*
X5086300Y10372100D01*
X5086300Y10364500D01*
G37*
G36*
X5078700Y10356900D02*
G01*
X3044200Y10356900D01*
X3044200Y10364500D01*
X5078700Y10364500D01*
X5078700Y10356900D01*
G37*
G36*
X5071100Y10341600D02*
G01*
X3044200Y10341600D01*
X3044200Y10349200D01*
X5071100Y10349200D01*
X5071100Y10341600D01*
G37*
G36*
X5071100Y10349200D02*
G01*
X3044200Y10349200D01*
X3044200Y10356900D01*
X5071100Y10356900D01*
X5071100Y10349200D01*
G37*
G36*
X5063500Y10334000D02*
G01*
X3044200Y10334000D01*
X3044200Y10341600D01*
X5063500Y10341600D01*
X5063500Y10334000D01*
G37*
G36*
X5055900Y10326400D02*
G01*
X3051800Y10326400D01*
X3051800Y10334000D01*
X5055900Y10334000D01*
X5055900Y10326400D01*
G37*
G36*
X5048200Y10311100D02*
G01*
X3051800Y10311100D01*
X3051800Y10318800D01*
X5048200Y10318800D01*
X5048200Y10311100D01*
G37*
G36*
X5048200Y10318800D02*
G01*
X3051800Y10318800D01*
X3051800Y10326400D01*
X5048200Y10326400D01*
X5048200Y10318800D01*
G37*
G36*
X5040600Y10303500D02*
G01*
X3051800Y10303500D01*
X3051800Y10311100D01*
X5040600Y10311100D01*
X5040600Y10303500D01*
G37*
G36*
X5033000Y10288300D02*
G01*
X3059400Y10288300D01*
X3059400Y10295900D01*
X5033000Y10295900D01*
X5033000Y10288300D01*
G37*
G36*
X5033000Y10295900D02*
G01*
X3051800Y10295900D01*
X3051800Y10303500D01*
X5033000Y10303500D01*
X5033000Y10295900D01*
G37*
G36*
X5025400Y10280700D02*
G01*
X3059400Y10280700D01*
X3059400Y10288300D01*
X5025400Y10288300D01*
X5025400Y10280700D01*
G37*
G36*
X5017800Y10273000D02*
G01*
X3059400Y10273000D01*
X3059400Y10280700D01*
X5017800Y10280700D01*
X5017800Y10273000D01*
G37*
G36*
X5010100Y10257800D02*
G01*
X3059400Y10257800D01*
X3059400Y10265400D01*
X5010100Y10265400D01*
X5010100Y10257800D01*
G37*
G36*
X5010100Y10265400D02*
G01*
X3059400Y10265400D01*
X3059400Y10273000D01*
X5010100Y10273000D01*
X5010100Y10265400D01*
G37*
G36*
X5002500Y10250200D02*
G01*
X3059400Y10250200D01*
X3059400Y10257800D01*
X5002500Y10257800D01*
X5002500Y10250200D01*
G37*
G36*
X4994900Y10242600D02*
G01*
X3059400Y10242600D01*
X3059400Y10250200D01*
X4994900Y10250200D01*
X4994900Y10242600D01*
G37*
G36*
X4987300Y10227300D02*
G01*
X3067000Y10227300D01*
X3067000Y10234900D01*
X4987300Y10234900D01*
X4987300Y10227300D01*
G37*
G36*
X4987300Y10234900D02*
G01*
X3067000Y10234900D01*
X3067000Y10242600D01*
X4987300Y10242600D01*
X4987300Y10234900D01*
G37*
G36*
X4979700Y10219700D02*
G01*
X3067000Y10219700D01*
X3067000Y10227300D01*
X4979700Y10227300D01*
X4979700Y10219700D01*
G37*
G36*
X4972000Y10212100D02*
G01*
X3067000Y10212100D01*
X3067000Y10219700D01*
X4972000Y10219700D01*
X4972000Y10212100D01*
G37*
G36*
X4964400Y10196800D02*
G01*
X3067000Y10196800D01*
X3067000Y10204500D01*
X4964400Y10204500D01*
X4964400Y10196800D01*
G37*
G36*
X4964400Y10204500D02*
G01*
X3067000Y10204500D01*
X3067000Y10212100D01*
X4964400Y10212100D01*
X4964400Y10204500D01*
G37*
G36*
X4956800Y10189200D02*
G01*
X3067000Y10189200D01*
X3067000Y10196800D01*
X4956800Y10196800D01*
X4956800Y10189200D01*
G37*
G36*
X4949200Y10181600D02*
G01*
X3067000Y10181600D01*
X3067000Y10189200D01*
X4949200Y10189200D01*
X4949200Y10181600D01*
G37*
G36*
X4941600Y10166400D02*
G01*
X3067000Y10166400D01*
X3067000Y10174000D01*
X4941600Y10174000D01*
X4941600Y10166400D01*
G37*
G36*
X4941600Y10174000D02*
G01*
X3067000Y10174000D01*
X3067000Y10181600D01*
X4941600Y10181600D01*
X4941600Y10174000D01*
G37*
G36*
X4933900Y10158700D02*
G01*
X3067000Y10158700D01*
X3067000Y10166400D01*
X4933900Y10166400D01*
X4933900Y10158700D01*
G37*
G36*
X4926300Y10143500D02*
G01*
X3067000Y10143500D01*
X3067000Y10151100D01*
X4926300Y10151100D01*
X4926300Y10143500D01*
G37*
G36*
X4926300Y10151100D02*
G01*
X3067000Y10151100D01*
X3067000Y10158700D01*
X4926300Y10158700D01*
X4926300Y10151100D01*
G37*
G36*
X4918700Y10135900D02*
G01*
X3775700Y10135900D01*
X3775700Y10143500D01*
X4918700Y10143500D01*
X4918700Y10135900D01*
G37*
G36*
X4911100Y10128300D02*
G01*
X3806200Y10128300D01*
X3806200Y10135900D01*
X4911100Y10135900D01*
X4911100Y10128300D01*
G37*
G36*
X4903500Y10113000D02*
G01*
X3829000Y10113000D01*
X3829000Y10120600D01*
X4903500Y10120600D01*
X4903500Y10113000D01*
G37*
G36*
X4903500Y10120600D02*
G01*
X3821400Y10120600D01*
X3821400Y10128300D01*
X4903500Y10128300D01*
X4903500Y10120600D01*
G37*
G36*
X4895800Y10105400D02*
G01*
X3836700Y10105400D01*
X3836700Y10113000D01*
X4895800Y10113000D01*
X4895800Y10105400D01*
G37*
G36*
X4888200Y7941300D02*
G01*
X4240500Y7941300D01*
X4240500Y7948900D01*
X4888200Y7948900D01*
X4888200Y7941300D01*
G37*
G36*
X4888200Y7948900D02*
G01*
X4217700Y7948900D01*
X4217700Y7956600D01*
X4888200Y7956600D01*
X4888200Y7948900D01*
G37*
G36*
X4888200Y7956600D02*
G01*
X4194800Y7956600D01*
X4194800Y7964200D01*
X4888200Y7964200D01*
X4888200Y7956600D01*
G37*
G36*
X4888200Y7964200D02*
G01*
X4171900Y7964200D01*
X4171900Y7971800D01*
X4888200Y7971800D01*
X4888200Y7964200D01*
G37*
G36*
X4888200Y7971800D02*
G01*
X4149100Y7971800D01*
X4149100Y7979400D01*
X4888200Y7979400D01*
X4888200Y7971800D01*
G37*
G36*
X4888200Y7979400D02*
G01*
X4126200Y7979400D01*
X4126200Y7987000D01*
X4888200Y7987000D01*
X4888200Y7979400D01*
G37*
G36*
X4888200Y7987000D02*
G01*
X4103400Y7987000D01*
X4103400Y7994700D01*
X4888200Y7994700D01*
X4888200Y7987000D01*
G37*
G36*
X4888200Y7994700D02*
G01*
X4080500Y7994700D01*
X4080500Y8002300D01*
X4888200Y8002300D01*
X4888200Y7994700D01*
G37*
G36*
X4888200Y8002300D02*
G01*
X4057600Y8002300D01*
X4057600Y8009900D01*
X4888200Y8009900D01*
X4888200Y8002300D01*
G37*
G36*
X4888200Y10097800D02*
G01*
X3836700Y10097800D01*
X3836700Y10105400D01*
X4888200Y10105400D01*
X4888200Y10097800D01*
G37*
G36*
X4880600Y7910800D02*
G01*
X4332000Y7910800D01*
X4332000Y7918500D01*
X4880600Y7918500D01*
X4880600Y7910800D01*
G37*
G36*
X4880600Y7918500D02*
G01*
X4309100Y7918500D01*
X4309100Y7926100D01*
X4880600Y7926100D01*
X4880600Y7918500D01*
G37*
G36*
X4880600Y7926100D02*
G01*
X4286200Y7926100D01*
X4286200Y7933700D01*
X4880600Y7933700D01*
X4880600Y7926100D01*
G37*
G36*
X4880600Y7933700D02*
G01*
X4263400Y7933700D01*
X4263400Y7941300D01*
X4880600Y7941300D01*
X4880600Y7933700D01*
G37*
G36*
X4880600Y8009900D02*
G01*
X4034800Y8009900D01*
X4034800Y8017500D01*
X4880600Y8017500D01*
X4880600Y8009900D01*
G37*
G36*
X4880600Y8017500D02*
G01*
X4011900Y8017500D01*
X4011900Y8025100D01*
X4880600Y8025100D01*
X4880600Y8017500D01*
G37*
G36*
X4880600Y8025100D02*
G01*
X3989100Y8025100D01*
X3989100Y8032800D01*
X4880600Y8032800D01*
X4880600Y8025100D01*
G37*
G36*
X4880600Y8032800D02*
G01*
X3958600Y8032800D01*
X3958600Y8040400D01*
X4880600Y8040400D01*
X4880600Y8032800D01*
G37*
G36*
X4880600Y8040400D02*
G01*
X3935700Y8040400D01*
X3935700Y8048000D01*
X4880600Y8048000D01*
X4880600Y8040400D01*
G37*
G36*
X4880600Y10082500D02*
G01*
X3844300Y10082500D01*
X3844300Y10090200D01*
X4880600Y10090200D01*
X4880600Y10082500D01*
G37*
G36*
X4880600Y10090200D02*
G01*
X3844300Y10090200D01*
X3844300Y10097800D01*
X4880600Y10097800D01*
X4880600Y10090200D01*
G37*
G36*
X4873000Y7895600D02*
G01*
X4377700Y7895600D01*
X4377700Y7903200D01*
X4873000Y7903200D01*
X4873000Y7895600D01*
G37*
G36*
X4873000Y7903200D02*
G01*
X4354800Y7903200D01*
X4354800Y7910800D01*
X4873000Y7910800D01*
X4873000Y7903200D01*
G37*
G36*
X4873000Y8048000D02*
G01*
X3912900Y8048000D01*
X3912900Y8055600D01*
X4873000Y8055600D01*
X4873000Y8048000D01*
G37*
G36*
X4873000Y8055600D02*
G01*
X3890000Y8055600D01*
X3890000Y8063200D01*
X4873000Y8063200D01*
X4873000Y8055600D01*
G37*
G36*
X4873000Y8063200D02*
G01*
X3867100Y8063200D01*
X3867100Y8070900D01*
X4873000Y8070900D01*
X4873000Y8063200D01*
G37*
G36*
X4873000Y10074900D02*
G01*
X3844300Y10074900D01*
X3844300Y10082500D01*
X4873000Y10082500D01*
X4873000Y10074900D01*
G37*
G36*
X4865400Y7888000D02*
G01*
X4400500Y7888000D01*
X4400500Y7895600D01*
X4865400Y7895600D01*
X4865400Y7888000D01*
G37*
G36*
X4865400Y8070900D02*
G01*
X3844300Y8070900D01*
X3844300Y8078500D01*
X4865400Y8078500D01*
X4865400Y8070900D01*
G37*
G36*
X4865400Y8078500D02*
G01*
X3821400Y8078500D01*
X3821400Y8086100D01*
X4865400Y8086100D01*
X4865400Y8078500D01*
G37*
G36*
X4865400Y8086100D02*
G01*
X3798600Y8086100D01*
X3798600Y8093700D01*
X4865400Y8093700D01*
X4865400Y8086100D01*
G37*
G36*
X4865400Y10067300D02*
G01*
X3844300Y10067300D01*
X3844300Y10074900D01*
X4865400Y10074900D01*
X4865400Y10067300D01*
G37*
G36*
X4857700Y7872700D02*
G01*
X4446300Y7872700D01*
X4446300Y7880400D01*
X4857700Y7880400D01*
X4857700Y7872700D01*
G37*
G36*
X4857700Y7880400D02*
G01*
X4423400Y7880400D01*
X4423400Y7888000D01*
X4857700Y7888000D01*
X4857700Y7880400D01*
G37*
G36*
X4857700Y8093700D02*
G01*
X3775700Y8093700D01*
X3775700Y8101300D01*
X4857700Y8101300D01*
X4857700Y8093700D01*
G37*
G36*
X4857700Y8101300D02*
G01*
X3752800Y8101300D01*
X3752800Y8109000D01*
X4857700Y8109000D01*
X4857700Y8101300D01*
G37*
G36*
X4857700Y8109000D02*
G01*
X3737600Y8109000D01*
X3737600Y8116600D01*
X4857700Y8116600D01*
X4857700Y8109000D01*
G37*
G36*
X4857700Y8116600D02*
G01*
X3714700Y8116600D01*
X3714700Y8124200D01*
X4857700Y8124200D01*
X4857700Y8116600D01*
G37*
G36*
X4857700Y10052100D02*
G01*
X3844300Y10052100D01*
X3844300Y10059700D01*
X4857700Y10059700D01*
X4857700Y10052100D01*
G37*
G36*
X4857700Y10059700D02*
G01*
X3844300Y10059700D01*
X3844300Y10067300D01*
X4857700Y10067300D01*
X4857700Y10059700D01*
G37*
G36*
X4850100Y7865100D02*
G01*
X4469100Y7865100D01*
X4469100Y7872700D01*
X4850100Y7872700D01*
X4850100Y7865100D01*
G37*
G36*
X4850100Y8124200D02*
G01*
X3699500Y8124200D01*
X3699500Y8131800D01*
X4850100Y8131800D01*
X4850100Y8124200D01*
G37*
G36*
X4850100Y8131800D02*
G01*
X3684300Y8131800D01*
X3684300Y8139400D01*
X4850100Y8139400D01*
X4850100Y8131800D01*
G37*
G36*
X4850100Y8139400D02*
G01*
X3661400Y8139400D01*
X3661400Y8147100D01*
X4850100Y8147100D01*
X4850100Y8139400D01*
G37*
G36*
X4850100Y10044400D02*
G01*
X3844300Y10044400D01*
X3844300Y10052100D01*
X4850100Y10052100D01*
X4850100Y10044400D01*
G37*
G36*
X4842500Y7857500D02*
G01*
X4492000Y7857500D01*
X4492000Y7865100D01*
X4842500Y7865100D01*
X4842500Y7857500D01*
G37*
G36*
X4842500Y8147100D02*
G01*
X3646200Y8147100D01*
X3646200Y8154700D01*
X4842500Y8154700D01*
X4842500Y8147100D01*
G37*
G36*
X4842500Y8154700D02*
G01*
X3630900Y8154700D01*
X3630900Y8162300D01*
X4842500Y8162300D01*
X4842500Y8154700D01*
G37*
G36*
X4842500Y8162300D02*
G01*
X3615700Y8162300D01*
X3615700Y8169900D01*
X4842500Y8169900D01*
X4842500Y8162300D01*
G37*
G36*
X4842500Y10029200D02*
G01*
X3836700Y10029200D01*
X3836700Y10036800D01*
X4842500Y10036800D01*
X4842500Y10029200D01*
G37*
G36*
X4842500Y10036800D02*
G01*
X3844300Y10036800D01*
X3844300Y10044400D01*
X4842500Y10044400D01*
X4842500Y10036800D01*
G37*
G36*
X4834900Y7849900D02*
G01*
X4514800Y7849900D01*
X4514800Y7857500D01*
X4834900Y7857500D01*
X4834900Y7849900D01*
G37*
G36*
X4834900Y8169900D02*
G01*
X3608100Y8169900D01*
X3608100Y8177500D01*
X4834900Y8177500D01*
X4834900Y8169900D01*
G37*
G36*
X4834900Y8177500D02*
G01*
X3592800Y8177500D01*
X3592800Y8185200D01*
X4834900Y8185200D01*
X4834900Y8177500D01*
G37*
G36*
X4834900Y8185200D02*
G01*
X3577600Y8185200D01*
X3577600Y8192800D01*
X4834900Y8192800D01*
X4834900Y8185200D01*
G37*
G36*
X4834900Y10021600D02*
G01*
X3836700Y10021600D01*
X3836700Y10029200D01*
X4834900Y10029200D01*
X4834900Y10021600D01*
G37*
G36*
X4827300Y7842300D02*
G01*
X4537700Y7842300D01*
X4537700Y7849900D01*
X4827300Y7849900D01*
X4827300Y7842300D01*
G37*
G36*
X4827300Y8192800D02*
G01*
X3562300Y8192800D01*
X3562300Y8200400D01*
X4827300Y8200400D01*
X4827300Y8192800D01*
G37*
G36*
X4827300Y8200400D02*
G01*
X3554700Y8200400D01*
X3554700Y8208000D01*
X4827300Y8208000D01*
X4827300Y8200400D01*
G37*
G36*
X4827300Y8208000D02*
G01*
X3539500Y8208000D01*
X3539500Y8215600D01*
X4827300Y8215600D01*
X4827300Y8208000D01*
G37*
G36*
X4827300Y10014000D02*
G01*
X3829000Y10014000D01*
X3829000Y10021600D01*
X4827300Y10021600D01*
X4827300Y10014000D01*
G37*
G36*
X4819600Y7834600D02*
G01*
X4560600Y7834600D01*
X4560600Y7842300D01*
X4819600Y7842300D01*
X4819600Y7834600D01*
G37*
G36*
X4819600Y8215600D02*
G01*
X3524200Y8215600D01*
X3524200Y8223300D01*
X4819600Y8223300D01*
X4819600Y8215600D01*
G37*
G36*
X4819600Y8223300D02*
G01*
X3516600Y8223300D01*
X3516600Y8230900D01*
X4819600Y8230900D01*
X4819600Y8223300D01*
G37*
G36*
X4819600Y8230900D02*
G01*
X3501400Y8230900D01*
X3501400Y8238500D01*
X4819600Y8238500D01*
X4819600Y8230900D01*
G37*
G36*
X4819600Y9998700D02*
G01*
X3821400Y9998700D01*
X3821400Y10006300D01*
X4819600Y10006300D01*
X4819600Y9998700D01*
G37*
G36*
X4819600Y10006300D02*
G01*
X3829000Y10006300D01*
X3829000Y10014000D01*
X4819600Y10014000D01*
X4819600Y10006300D01*
G37*
G36*
X4812000Y8238500D02*
G01*
X3493800Y8238500D01*
X3493800Y8246100D01*
X4812000Y8246100D01*
X4812000Y8238500D01*
G37*
G36*
X4812000Y8246100D02*
G01*
X3486100Y8246100D01*
X3486100Y8253700D01*
X4812000Y8253700D01*
X4812000Y8246100D01*
G37*
G36*
X4812000Y8253700D02*
G01*
X3470900Y8253700D01*
X3470900Y8261400D01*
X4812000Y8261400D01*
X4812000Y8253700D01*
G37*
G36*
X4812000Y9991100D02*
G01*
X3813800Y9991100D01*
X3813800Y9998700D01*
X4812000Y9998700D01*
X4812000Y9991100D01*
G37*
G36*
X4804400Y7827000D02*
G01*
X4583400Y7827000D01*
X4583400Y7834600D01*
X4804400Y7834600D01*
X4804400Y7827000D01*
G37*
G36*
X4804400Y8261400D02*
G01*
X3463300Y8261400D01*
X3463300Y8269000D01*
X4804400Y8269000D01*
X4804400Y8261400D01*
G37*
G36*
X4804400Y8269000D02*
G01*
X3455700Y8269000D01*
X3455700Y8276600D01*
X4804400Y8276600D01*
X4804400Y8269000D01*
G37*
G36*
X4804400Y8276600D02*
G01*
X3440400Y8276600D01*
X3440400Y8284200D01*
X4804400Y8284200D01*
X4804400Y8276600D01*
G37*
G36*
X4804400Y9983500D02*
G01*
X3813800Y9983500D01*
X3813800Y9991100D01*
X4804400Y9991100D01*
X4804400Y9983500D01*
G37*
G36*
X4796800Y7819400D02*
G01*
X4606300Y7819400D01*
X4606300Y7827000D01*
X4796800Y7827000D01*
X4796800Y7819400D01*
G37*
G36*
X4796800Y8284200D02*
G01*
X3432800Y8284200D01*
X3432800Y8291800D01*
X4796800Y8291800D01*
X4796800Y8284200D01*
G37*
G36*
X4796800Y8291800D02*
G01*
X3425200Y8291800D01*
X3425200Y8299500D01*
X4796800Y8299500D01*
X4796800Y8291800D01*
G37*
G36*
X4796800Y8299500D02*
G01*
X3417600Y8299500D01*
X3417600Y8307100D01*
X4796800Y8307100D01*
X4796800Y8299500D01*
G37*
G36*
X4796800Y9968200D02*
G01*
X3798600Y9968200D01*
X3798600Y9975900D01*
X4796800Y9975900D01*
X4796800Y9968200D01*
G37*
G36*
X4796800Y9975900D02*
G01*
X3806200Y9975900D01*
X3806200Y9983500D01*
X4796800Y9983500D01*
X4796800Y9975900D01*
G37*
G36*
X4789200Y8307100D02*
G01*
X3409900Y8307100D01*
X3409900Y8314700D01*
X4789200Y8314700D01*
X4789200Y8307100D01*
G37*
G36*
X4789200Y8314700D02*
G01*
X3402300Y8314700D01*
X3402300Y8322300D01*
X4789200Y8322300D01*
X4789200Y8314700D01*
G37*
G36*
X4789200Y8322300D02*
G01*
X3394700Y8322300D01*
X3394700Y8329900D01*
X4789200Y8329900D01*
X4789200Y8322300D01*
G37*
G36*
X4789200Y9960600D02*
G01*
X3790900Y9960600D01*
X3790900Y9968200D01*
X4789200Y9968200D01*
X4789200Y9960600D01*
G37*
G36*
X4781500Y7811800D02*
G01*
X4636800Y7811800D01*
X4636800Y7819400D01*
X4781500Y7819400D01*
X4781500Y7811800D01*
G37*
G36*
X4781500Y8329900D02*
G01*
X3387100Y8329900D01*
X3387100Y8337600D01*
X4781500Y8337600D01*
X4781500Y8329900D01*
G37*
G36*
X4781500Y8337600D02*
G01*
X3379500Y8337600D01*
X3379500Y8345200D01*
X4781500Y8345200D01*
X4781500Y8337600D01*
G37*
G36*
X4781500Y8345200D02*
G01*
X3371800Y8345200D01*
X3371800Y8352800D01*
X4781500Y8352800D01*
X4781500Y8345200D01*
G37*
G36*
X4781500Y9953000D02*
G01*
X3783300Y9953000D01*
X3783300Y9960600D01*
X4781500Y9960600D01*
X4781500Y9953000D01*
G37*
G36*
X4773900Y8352800D02*
G01*
X3364200Y8352800D01*
X3364200Y8360400D01*
X4773900Y8360400D01*
X4773900Y8352800D01*
G37*
G36*
X4773900Y8360400D02*
G01*
X3356600Y8360400D01*
X3356600Y8368000D01*
X4773900Y8368000D01*
X4773900Y8360400D01*
G37*
G36*
X4773900Y8368000D02*
G01*
X3349000Y8368000D01*
X3349000Y8375700D01*
X4773900Y8375700D01*
X4773900Y8368000D01*
G37*
G36*
X4773900Y9937800D02*
G01*
X3768100Y9937800D01*
X3768100Y9945400D01*
X4773900Y9945400D01*
X4773900Y9937800D01*
G37*
G36*
X4773900Y9945400D02*
G01*
X3775700Y9945400D01*
X3775700Y9953000D01*
X4773900Y9953000D01*
X4773900Y9945400D01*
G37*
G36*
X4766300Y8375700D02*
G01*
X3341400Y8375700D01*
X3341400Y8383300D01*
X4766300Y8383300D01*
X4766300Y8375700D01*
G37*
G36*
X4766300Y8383300D02*
G01*
X3333700Y8383300D01*
X3333700Y8390900D01*
X4766300Y8390900D01*
X4766300Y8383300D01*
G37*
G36*
X4766300Y8390900D02*
G01*
X3326100Y8390900D01*
X3326100Y8398500D01*
X4766300Y8398500D01*
X4766300Y8390900D01*
G37*
G36*
X4766300Y9930100D02*
G01*
X3760500Y9930100D01*
X3760500Y9937800D01*
X4766300Y9937800D01*
X4766300Y9930100D01*
G37*
G36*
X4758700Y7804200D02*
G01*
X4667200Y7804200D01*
X4667200Y7811800D01*
X4758700Y7811800D01*
X4758700Y7804200D01*
G37*
G36*
X4758700Y8398500D02*
G01*
X3318500Y8398500D01*
X3318500Y8406100D01*
X4758700Y8406100D01*
X4758700Y8398500D01*
G37*
G36*
X4758700Y8406100D02*
G01*
X3310900Y8406100D01*
X3310900Y8413800D01*
X4758700Y8413800D01*
X4758700Y8406100D01*
G37*
G36*
X4758700Y8413800D02*
G01*
X3310900Y8413800D01*
X3310900Y8421400D01*
X4758700Y8421400D01*
X4758700Y8413800D01*
G37*
G36*
X4758700Y9914900D02*
G01*
X3745200Y9914900D01*
X3745200Y9922500D01*
X4758700Y9922500D01*
X4758700Y9914900D01*
G37*
G36*
X4758700Y9922500D02*
G01*
X3752800Y9922500D01*
X3752800Y9930100D01*
X4758700Y9930100D01*
X4758700Y9922500D01*
G37*
G36*
X4751100Y8421400D02*
G01*
X3303300Y8421400D01*
X3303300Y8429000D01*
X4751100Y8429000D01*
X4751100Y8421400D01*
G37*
G36*
X4751100Y8429000D02*
G01*
X3295600Y8429000D01*
X3295600Y8436600D01*
X4751100Y8436600D01*
X4751100Y8429000D01*
G37*
G36*
X4751100Y8436600D02*
G01*
X3288000Y8436600D01*
X3288000Y8444200D01*
X4751100Y8444200D01*
X4751100Y8436600D01*
G37*
G36*
X4751100Y9907300D02*
G01*
X3737600Y9907300D01*
X3737600Y9914900D01*
X4751100Y9914900D01*
X4751100Y9907300D01*
G37*
G36*
X4743400Y8444200D02*
G01*
X3288000Y8444200D01*
X3288000Y8451900D01*
X4743400Y8451900D01*
X4743400Y8444200D01*
G37*
G36*
X4743400Y8451900D02*
G01*
X3280400Y8451900D01*
X3280400Y8459500D01*
X4743400Y8459500D01*
X4743400Y8451900D01*
G37*
G36*
X4743400Y8459500D02*
G01*
X3272800Y8459500D01*
X3272800Y8467100D01*
X4743400Y8467100D01*
X4743400Y8459500D01*
G37*
G36*
X4743400Y9899700D02*
G01*
X3730000Y9899700D01*
X3730000Y9907300D01*
X4743400Y9907300D01*
X4743400Y9899700D01*
G37*
G36*
X4735800Y8467100D02*
G01*
X3272800Y8467100D01*
X3272800Y8474700D01*
X4735800Y8474700D01*
X4735800Y8467100D01*
G37*
G36*
X4735800Y8474700D02*
G01*
X3265200Y8474700D01*
X3265200Y8482300D01*
X4735800Y8482300D01*
X4735800Y8474700D01*
G37*
G36*
X4735800Y8482300D02*
G01*
X3265200Y8482300D01*
X3265200Y8490000D01*
X4735800Y8490000D01*
X4735800Y8482300D01*
G37*
G36*
X4735800Y9892000D02*
G01*
X3714700Y9892000D01*
X3714700Y9899700D01*
X4735800Y9899700D01*
X4735800Y9892000D01*
G37*
G36*
X4728200Y8490000D02*
G01*
X3257500Y8490000D01*
X3257500Y8497600D01*
X4728200Y8497600D01*
X4728200Y8490000D01*
G37*
G36*
X4728200Y8497600D02*
G01*
X3249900Y8497600D01*
X3249900Y8505200D01*
X4728200Y8505200D01*
X4728200Y8497600D01*
G37*
G36*
X4728200Y8505200D02*
G01*
X3249900Y8505200D01*
X3249900Y8512800D01*
X4728200Y8512800D01*
X4728200Y8505200D01*
G37*
G36*
X4728200Y9876800D02*
G01*
X3691900Y9876800D01*
X3691900Y9884400D01*
X4728200Y9884400D01*
X4728200Y9876800D01*
G37*
G36*
X4728200Y9884400D02*
G01*
X3707100Y9884400D01*
X3707100Y9892000D01*
X4728200Y9892000D01*
X4728200Y9884400D01*
G37*
G36*
X4720600Y8512800D02*
G01*
X3242300Y8512800D01*
X3242300Y8520400D01*
X4720600Y8520400D01*
X4720600Y8512800D01*
G37*
G36*
X4720600Y8520400D02*
G01*
X3242300Y8520400D01*
X3242300Y8528100D01*
X4720600Y8528100D01*
X4720600Y8520400D01*
G37*
G36*
X4720600Y8528100D02*
G01*
X3234700Y8528100D01*
X3234700Y8535700D01*
X4720600Y8535700D01*
X4720600Y8528100D01*
G37*
G36*
X4720600Y9869200D02*
G01*
X3684300Y9869200D01*
X3684300Y9876800D01*
X4720600Y9876800D01*
X4720600Y9869200D01*
G37*
G36*
X4713000Y8535700D02*
G01*
X3234700Y8535700D01*
X3234700Y8543300D01*
X4713000Y8543300D01*
X4713000Y8535700D01*
G37*
G36*
X4713000Y8543300D02*
G01*
X3227100Y8543300D01*
X3227100Y8550900D01*
X4713000Y8550900D01*
X4713000Y8543300D01*
G37*
G36*
X4713000Y8550900D02*
G01*
X3227100Y8550900D01*
X3227100Y8558500D01*
X4713000Y8558500D01*
X4713000Y8550900D01*
G37*
G36*
X4713000Y9861600D02*
G01*
X3669000Y9861600D01*
X3669000Y9869200D01*
X4713000Y9869200D01*
X4713000Y9861600D01*
G37*
G36*
X4705300Y8558500D02*
G01*
X3219400Y8558500D01*
X3219400Y8566200D01*
X4705300Y8566200D01*
X4705300Y8558500D01*
G37*
G36*
X4705300Y8566200D02*
G01*
X3219400Y8566200D01*
X3219400Y8573800D01*
X4705300Y8573800D01*
X4705300Y8566200D01*
G37*
G36*
X4705300Y8573800D02*
G01*
X3219400Y8573800D01*
X3219400Y8581400D01*
X4705300Y8581400D01*
X4705300Y8573800D01*
G37*
G36*
X4705300Y9853900D02*
G01*
X3661400Y9853900D01*
X3661400Y9861600D01*
X4705300Y9861600D01*
X4705300Y9853900D01*
G37*
G36*
X4697700Y8581400D02*
G01*
X3211800Y8581400D01*
X3211800Y8589000D01*
X4697700Y8589000D01*
X4697700Y8581400D01*
G37*
G36*
X4697700Y8589000D02*
G01*
X3211800Y8589000D01*
X3211800Y8596600D01*
X4697700Y8596600D01*
X4697700Y8589000D01*
G37*
G36*
X4697700Y8596600D02*
G01*
X3204200Y8596600D01*
X3204200Y8604300D01*
X4697700Y8604300D01*
X4697700Y8596600D01*
G37*
G36*
X4697700Y9846300D02*
G01*
X3646200Y9846300D01*
X3646200Y9853900D01*
X4697700Y9853900D01*
X4697700Y9846300D01*
G37*
G36*
X4690100Y8604300D02*
G01*
X3204200Y8604300D01*
X3204200Y8611900D01*
X4690100Y8611900D01*
X4690100Y8604300D01*
G37*
G36*
X4690100Y8611900D02*
G01*
X3204200Y8611900D01*
X3204200Y8619500D01*
X4690100Y8619500D01*
X4690100Y8611900D01*
G37*
G36*
X4690100Y8619500D02*
G01*
X3196600Y8619500D01*
X3196600Y8627100D01*
X4690100Y8627100D01*
X4690100Y8619500D01*
G37*
G36*
X4690100Y9838700D02*
G01*
X3638500Y9838700D01*
X3638500Y9846300D01*
X4690100Y9846300D01*
X4690100Y9838700D01*
G37*
G36*
X4682500Y8627100D02*
G01*
X3196600Y8627100D01*
X3196600Y8634700D01*
X4682500Y8634700D01*
X4682500Y8627100D01*
G37*
G36*
X4682500Y8634700D02*
G01*
X3196600Y8634700D01*
X3196600Y8642400D01*
X4682500Y8642400D01*
X4682500Y8634700D01*
G37*
G36*
X4682500Y8642400D02*
G01*
X3189000Y8642400D01*
X3189000Y8650000D01*
X4682500Y8650000D01*
X4682500Y8642400D01*
G37*
G36*
X4682500Y9831100D02*
G01*
X3623300Y9831100D01*
X3623300Y9838700D01*
X4682500Y9838700D01*
X4682500Y9831100D01*
G37*
G36*
X4674900Y8650000D02*
G01*
X3189000Y8650000D01*
X3189000Y8657600D01*
X4674900Y8657600D01*
X4674900Y8650000D01*
G37*
G36*
X4674900Y8657600D02*
G01*
X3189000Y8657600D01*
X3189000Y8665200D01*
X4674900Y8665200D01*
X4674900Y8657600D01*
G37*
G36*
X4674900Y8665200D02*
G01*
X3189000Y8665200D01*
X3189000Y8672800D01*
X4674900Y8672800D01*
X4674900Y8665200D01*
G37*
G36*
X4674900Y8672800D02*
G01*
X3181300Y8672800D01*
X3181300Y8680500D01*
X4674900Y8680500D01*
X4674900Y8672800D01*
G37*
G36*
X4674900Y9823500D02*
G01*
X3608100Y9823500D01*
X3608100Y9831100D01*
X4674900Y9831100D01*
X4674900Y9823500D01*
G37*
G36*
X4667200Y8680500D02*
G01*
X3181300Y8680500D01*
X3181300Y8688100D01*
X4667200Y8688100D01*
X4667200Y8680500D01*
G37*
G36*
X4667200Y8688100D02*
G01*
X3181300Y8688100D01*
X3181300Y8695700D01*
X4667200Y8695700D01*
X4667200Y8688100D01*
G37*
G36*
X4667200Y8695700D02*
G01*
X3173700Y8695700D01*
X3173700Y8703300D01*
X4667200Y8703300D01*
X4667200Y8695700D01*
G37*
G36*
X4667200Y9815800D02*
G01*
X3592800Y9815800D01*
X3592800Y9823500D01*
X4667200Y9823500D01*
X4667200Y9815800D01*
G37*
G36*
X4659600Y8703300D02*
G01*
X3173700Y8703300D01*
X3173700Y8710900D01*
X4659600Y8710900D01*
X4659600Y8703300D01*
G37*
G36*
X4659600Y8710900D02*
G01*
X3173700Y8710900D01*
X3173700Y8718600D01*
X4659600Y8718600D01*
X4659600Y8710900D01*
G37*
G36*
X4659600Y8718600D02*
G01*
X3166100Y8718600D01*
X3166100Y8726200D01*
X4659600Y8726200D01*
X4659600Y8718600D01*
G37*
G36*
X4659600Y9800600D02*
G01*
X3562300Y9800600D01*
X3562300Y9808200D01*
X4659600Y9808200D01*
X4659600Y9800600D01*
G37*
G36*
X4659600Y9808200D02*
G01*
X3577600Y9808200D01*
X3577600Y9815800D01*
X4659600Y9815800D01*
X4659600Y9808200D01*
G37*
G36*
X4652000Y8726200D02*
G01*
X3166100Y8726200D01*
X3166100Y8733800D01*
X4652000Y8733800D01*
X4652000Y8726200D01*
G37*
G36*
X4652000Y8733800D02*
G01*
X3166100Y8733800D01*
X3166100Y8741400D01*
X4652000Y8741400D01*
X4652000Y8733800D01*
G37*
G36*
X4652000Y8741400D02*
G01*
X3166100Y8741400D01*
X3166100Y8749000D01*
X4652000Y8749000D01*
X4652000Y8741400D01*
G37*
G36*
X4652000Y9793000D02*
G01*
X3539500Y9793000D01*
X3539500Y9800600D01*
X4652000Y9800600D01*
X4652000Y9793000D01*
G37*
G36*
X4644400Y8749000D02*
G01*
X1786900Y8749000D01*
X1786900Y8756700D01*
X4644400Y8756700D01*
X4644400Y8749000D01*
G37*
G36*
X4644400Y8756700D02*
G01*
X1786900Y8756700D01*
X1786900Y8764300D01*
X4644400Y8764300D01*
X4644400Y8756700D01*
G37*
G36*
X4644400Y8764300D02*
G01*
X1794500Y8764300D01*
X1794500Y8771900D01*
X4644400Y8771900D01*
X4644400Y8764300D01*
G37*
G36*
X4644400Y9785400D02*
G01*
X3524200Y9785400D01*
X3524200Y9793000D01*
X4644400Y9793000D01*
X4644400Y9785400D01*
G37*
G36*
X4636800Y8771900D02*
G01*
X1794500Y8771900D01*
X1794500Y8779500D01*
X4636800Y8779500D01*
X4636800Y8771900D01*
G37*
G36*
X4636800Y8779500D02*
G01*
X1794500Y8779500D01*
X1794500Y8787100D01*
X4636800Y8787100D01*
X4636800Y8779500D01*
G37*
G36*
X4636800Y8787100D02*
G01*
X1802100Y8787100D01*
X1802100Y8794800D01*
X4636800Y8794800D01*
X4636800Y8787100D01*
G37*
G36*
X4629100Y8794800D02*
G01*
X1802100Y8794800D01*
X1802100Y8802400D01*
X4629100Y8802400D01*
X4629100Y8794800D01*
G37*
G36*
X4629100Y8802400D02*
G01*
X1802100Y8802400D01*
X1802100Y8810000D01*
X4629100Y8810000D01*
X4629100Y8802400D01*
G37*
G36*
X4629100Y8810000D02*
G01*
X1809700Y8810000D01*
X1809700Y8817600D01*
X4629100Y8817600D01*
X4629100Y8810000D01*
G37*
G36*
X4629100Y9777700D02*
G01*
X3501400Y9777700D01*
X3501400Y9785400D01*
X4629100Y9785400D01*
X4629100Y9777700D01*
G37*
G36*
X4621500Y8817600D02*
G01*
X1809700Y8817600D01*
X1809700Y8825200D01*
X4621500Y8825200D01*
X4621500Y8817600D01*
G37*
G36*
X4621500Y8825200D02*
G01*
X1809700Y8825200D01*
X1809700Y8832900D01*
X4621500Y8832900D01*
X4621500Y8825200D01*
G37*
G36*
X4621500Y8832900D02*
G01*
X1817400Y8832900D01*
X1817400Y8840500D01*
X4621500Y8840500D01*
X4621500Y8832900D01*
G37*
G36*
X4621500Y9770100D02*
G01*
X3486100Y9770100D01*
X3486100Y9777700D01*
X4621500Y9777700D01*
X4621500Y9770100D01*
G37*
G36*
X4613900Y8840500D02*
G01*
X1817400Y8840500D01*
X1817400Y8848100D01*
X4613900Y8848100D01*
X4613900Y8840500D01*
G37*
G36*
X4613900Y8848100D02*
G01*
X2647900Y8848100D01*
X2647900Y8855700D01*
X4613900Y8855700D01*
X4613900Y8848100D01*
G37*
G36*
X4613900Y8855700D02*
G01*
X2670800Y8855700D01*
X2670800Y8863300D01*
X4613900Y8863300D01*
X4613900Y8855700D01*
G37*
G36*
X4613900Y9762500D02*
G01*
X3455700Y9762500D01*
X3455700Y9770100D01*
X4613900Y9770100D01*
X4613900Y9762500D01*
G37*
G36*
X4606300Y8863300D02*
G01*
X2678400Y8863300D01*
X2678400Y8871000D01*
X4606300Y8871000D01*
X4606300Y8863300D01*
G37*
G36*
X4606300Y8871000D02*
G01*
X2693700Y8871000D01*
X2693700Y8878600D01*
X4606300Y8878600D01*
X4606300Y8871000D01*
G37*
G36*
X4606300Y8878600D02*
G01*
X2701300Y8878600D01*
X2701300Y8886200D01*
X4606300Y8886200D01*
X4606300Y8878600D01*
G37*
G36*
X4606300Y9754900D02*
G01*
X3425200Y9754900D01*
X3425200Y9762500D01*
X4606300Y9762500D01*
X4606300Y9754900D01*
G37*
G36*
X4598700Y8886200D02*
G01*
X2716500Y8886200D01*
X2716500Y8893800D01*
X4598700Y8893800D01*
X4598700Y8886200D01*
G37*
G36*
X4598700Y8893800D02*
G01*
X2724100Y8893800D01*
X2724100Y8901400D01*
X4598700Y8901400D01*
X4598700Y8893800D01*
G37*
G36*
X4598700Y8901400D02*
G01*
X2731800Y8901400D01*
X2731800Y8909100D01*
X4598700Y8909100D01*
X4598700Y8901400D01*
G37*
G36*
X4598700Y9747300D02*
G01*
X3379500Y9747300D01*
X3379500Y9754900D01*
X4598700Y9754900D01*
X4598700Y9747300D01*
G37*
G36*
X4591000Y8909100D02*
G01*
X2739400Y8909100D01*
X2739400Y8916700D01*
X4591000Y8916700D01*
X4591000Y8909100D01*
G37*
G36*
X4591000Y8916700D02*
G01*
X2747000Y8916700D01*
X2747000Y8924300D01*
X4591000Y8924300D01*
X4591000Y8916700D01*
G37*
G36*
X4591000Y8924300D02*
G01*
X2754600Y8924300D01*
X2754600Y8931900D01*
X4591000Y8931900D01*
X4591000Y8924300D01*
G37*
G36*
X4591000Y9739600D02*
G01*
X2769900Y9739600D01*
X2769900Y9747300D01*
X4591000Y9747300D01*
X4591000Y9739600D01*
G37*
G36*
X4583400Y8931900D02*
G01*
X2762200Y8931900D01*
X2762200Y8939500D01*
X4583400Y8939500D01*
X4583400Y8931900D01*
G37*
G36*
X4583400Y8939500D02*
G01*
X2769900Y8939500D01*
X2769900Y8947200D01*
X4583400Y8947200D01*
X4583400Y8939500D01*
G37*
G36*
X4583400Y8947200D02*
G01*
X2777500Y8947200D01*
X2777500Y8954800D01*
X4583400Y8954800D01*
X4583400Y8947200D01*
G37*
G36*
X4583400Y9732000D02*
G01*
X2769900Y9732000D01*
X2769900Y9739600D01*
X4583400Y9739600D01*
X4583400Y9732000D01*
G37*
G36*
X4575800Y8954800D02*
G01*
X2785100Y8954800D01*
X2785100Y8962400D01*
X4575800Y8962400D01*
X4575800Y8954800D01*
G37*
G36*
X4575800Y8962400D02*
G01*
X2785100Y8962400D01*
X2785100Y8970000D01*
X4575800Y8970000D01*
X4575800Y8962400D01*
G37*
G36*
X4575800Y9724400D02*
G01*
X2769900Y9724400D01*
X2769900Y9732000D01*
X4575800Y9732000D01*
X4575800Y9724400D01*
G37*
G36*
X4568200Y8970000D02*
G01*
X2792700Y8970000D01*
X2792700Y8977600D01*
X4568200Y8977600D01*
X4568200Y8970000D01*
G37*
G36*
X4568200Y8977600D02*
G01*
X2800300Y8977600D01*
X2800300Y8985300D01*
X4568200Y8985300D01*
X4568200Y8977600D01*
G37*
G36*
X4568200Y8985300D02*
G01*
X2808000Y8985300D01*
X2808000Y8992900D01*
X4568200Y8992900D01*
X4568200Y8985300D01*
G37*
G36*
X4560600Y8992900D02*
G01*
X2808000Y8992900D01*
X2808000Y9000500D01*
X4560600Y9000500D01*
X4560600Y8992900D01*
G37*
G36*
X4560600Y9000500D02*
G01*
X3623300Y9000500D01*
X3623300Y9008100D01*
X4560600Y9008100D01*
X4560600Y9000500D01*
G37*
G36*
X4560600Y9716800D02*
G01*
X2769900Y9716800D01*
X2769900Y9724400D01*
X4560600Y9724400D01*
X4560600Y9716800D01*
G37*
G36*
X4552900Y9008100D02*
G01*
X3653800Y9008100D01*
X3653800Y9015700D01*
X4552900Y9015700D01*
X4552900Y9008100D01*
G37*
G36*
X4552900Y9015700D02*
G01*
X3669000Y9015700D01*
X3669000Y9023400D01*
X4552900Y9023400D01*
X4552900Y9015700D01*
G37*
G36*
X4552900Y9709200D02*
G01*
X2769900Y9709200D01*
X2769900Y9716800D01*
X4552900Y9716800D01*
X4552900Y9709200D01*
G37*
G36*
X4545300Y9023400D02*
G01*
X3676600Y9023400D01*
X3676600Y9031000D01*
X4545300Y9031000D01*
X4545300Y9023400D01*
G37*
G36*
X4545300Y9031000D02*
G01*
X3676600Y9031000D01*
X3676600Y9038600D01*
X4545300Y9038600D01*
X4545300Y9031000D01*
G37*
G36*
X4545300Y9701500D02*
G01*
X2769900Y9701500D01*
X2769900Y9709200D01*
X4545300Y9709200D01*
X4545300Y9701500D01*
G37*
G36*
X4537700Y9038600D02*
G01*
X3684300Y9038600D01*
X3684300Y9046200D01*
X4537700Y9046200D01*
X4537700Y9038600D01*
G37*
G36*
X4537700Y9046200D02*
G01*
X3684300Y9046200D01*
X3684300Y9053800D01*
X4537700Y9053800D01*
X4537700Y9046200D01*
G37*
G36*
X4537700Y9693900D02*
G01*
X2762200Y9693900D01*
X2762200Y9701500D01*
X4537700Y9701500D01*
X4537700Y9693900D01*
G37*
G36*
X4530100Y9053800D02*
G01*
X3684300Y9053800D01*
X3684300Y9061500D01*
X4530100Y9061500D01*
X4530100Y9053800D01*
G37*
G36*
X4530100Y9061500D02*
G01*
X3684300Y9061500D01*
X3684300Y9069100D01*
X4530100Y9069100D01*
X4530100Y9061500D01*
G37*
G36*
X4522500Y9069100D02*
G01*
X3684300Y9069100D01*
X3684300Y9076700D01*
X4522500Y9076700D01*
X4522500Y9069100D01*
G37*
G36*
X4522500Y9076700D02*
G01*
X3684300Y9076700D01*
X3684300Y9084300D01*
X4522500Y9084300D01*
X4522500Y9076700D01*
G37*
G36*
X4522500Y9686300D02*
G01*
X2762200Y9686300D01*
X2762200Y9693900D01*
X4522500Y9693900D01*
X4522500Y9686300D01*
G37*
G36*
X4514800Y9084300D02*
G01*
X3684300Y9084300D01*
X3684300Y9091900D01*
X4514800Y9091900D01*
X4514800Y9084300D01*
G37*
G36*
X4514800Y9091900D02*
G01*
X3684300Y9091900D01*
X3684300Y9099600D01*
X4514800Y9099600D01*
X4514800Y9091900D01*
G37*
G36*
X4514800Y9678700D02*
G01*
X2754600Y9678700D01*
X2754600Y9686300D01*
X4514800Y9686300D01*
X4514800Y9678700D01*
G37*
G36*
X4507200Y9099600D02*
G01*
X3684300Y9099600D01*
X3684300Y9107200D01*
X4507200Y9107200D01*
X4507200Y9099600D01*
G37*
G36*
X4507200Y9107200D02*
G01*
X3684300Y9107200D01*
X3684300Y9114800D01*
X4507200Y9114800D01*
X4507200Y9107200D01*
G37*
G36*
X4507200Y9671100D02*
G01*
X2747000Y9671100D01*
X2747000Y9678700D01*
X4507200Y9678700D01*
X4507200Y9671100D01*
G37*
G36*
X4499600Y9114800D02*
G01*
X3684300Y9114800D01*
X3684300Y9122400D01*
X4499600Y9122400D01*
X4499600Y9114800D01*
G37*
G36*
X4492000Y9122400D02*
G01*
X3676600Y9122400D01*
X3676600Y9130000D01*
X4492000Y9130000D01*
X4492000Y9122400D01*
G37*
G36*
X4492000Y9130000D02*
G01*
X3676600Y9130000D01*
X3676600Y9137700D01*
X4492000Y9137700D01*
X4492000Y9130000D01*
G37*
G36*
X4492000Y9663400D02*
G01*
X2731800Y9663400D01*
X2731800Y9671100D01*
X4492000Y9671100D01*
X4492000Y9663400D01*
G37*
G36*
X4484400Y9137700D02*
G01*
X3676600Y9137700D01*
X3676600Y9145300D01*
X4484400Y9145300D01*
X4484400Y9137700D01*
G37*
G36*
X4484400Y9145300D02*
G01*
X3669000Y9145300D01*
X3669000Y9152900D01*
X4484400Y9152900D01*
X4484400Y9145300D01*
G37*
G36*
X4484400Y9655800D02*
G01*
X2716500Y9655800D01*
X2716500Y9663400D01*
X4484400Y9663400D01*
X4484400Y9655800D01*
G37*
G36*
X4476700Y9152900D02*
G01*
X3669000Y9152900D01*
X3669000Y9160500D01*
X4476700Y9160500D01*
X4476700Y9152900D01*
G37*
G36*
X4469100Y9160500D02*
G01*
X3669000Y9160500D01*
X3669000Y9168100D01*
X4469100Y9168100D01*
X4469100Y9160500D01*
G37*
G36*
X4469100Y9168100D02*
G01*
X3661400Y9168100D01*
X3661400Y9175800D01*
X4469100Y9175800D01*
X4469100Y9168100D01*
G37*
G36*
X4469100Y9648200D02*
G01*
X2701300Y9648200D01*
X2701300Y9655800D01*
X4469100Y9655800D01*
X4469100Y9648200D01*
G37*
G36*
X4461500Y9175800D02*
G01*
X3661400Y9175800D01*
X3661400Y9183400D01*
X4461500Y9183400D01*
X4461500Y9175800D01*
G37*
G36*
X4453900Y9183400D02*
G01*
X3653800Y9183400D01*
X3653800Y9191000D01*
X4453900Y9191000D01*
X4453900Y9183400D01*
G37*
G36*
X4453900Y9191000D02*
G01*
X3653800Y9191000D01*
X3653800Y9198600D01*
X4453900Y9198600D01*
X4453900Y9191000D01*
G37*
G36*
X4453900Y9640600D02*
G01*
X2686000Y9640600D01*
X2686000Y9648200D01*
X4453900Y9648200D01*
X4453900Y9640600D01*
G37*
G36*
X4446300Y9198600D02*
G01*
X3646200Y9198600D01*
X3646200Y9206200D01*
X4446300Y9206200D01*
X4446300Y9198600D01*
G37*
G36*
X4446300Y9633000D02*
G01*
X2655600Y9633000D01*
X2655600Y9640600D01*
X4446300Y9640600D01*
X4446300Y9633000D01*
G37*
G36*
X4438600Y9206200D02*
G01*
X3646200Y9206200D01*
X3646200Y9213900D01*
X4438600Y9213900D01*
X4438600Y9206200D01*
G37*
G36*
X4431000Y9213900D02*
G01*
X3638500Y9213900D01*
X3638500Y9221500D01*
X4431000Y9221500D01*
X4431000Y9213900D01*
G37*
G36*
X4431000Y9221500D02*
G01*
X3630900Y9221500D01*
X3630900Y9229100D01*
X4431000Y9229100D01*
X4431000Y9221500D01*
G37*
G36*
X4431000Y9625300D02*
G01*
X2602200Y9625300D01*
X2602200Y9633000D01*
X4431000Y9633000D01*
X4431000Y9625300D01*
G37*
G36*
X4423400Y9229100D02*
G01*
X3630900Y9229100D01*
X3630900Y9236700D01*
X4423400Y9236700D01*
X4423400Y9229100D01*
G37*
G36*
X4415800Y9236700D02*
G01*
X3623300Y9236700D01*
X3623300Y9244300D01*
X4415800Y9244300D01*
X4415800Y9236700D01*
G37*
G36*
X4415800Y9617700D02*
G01*
X933400Y9617700D01*
X933400Y9625300D01*
X4415800Y9625300D01*
X4415800Y9617700D01*
G37*
G36*
X4408200Y9244300D02*
G01*
X3615700Y9244300D01*
X3615700Y9252000D01*
X4408200Y9252000D01*
X4408200Y9244300D01*
G37*
G36*
X4400500Y9252000D02*
G01*
X3615700Y9252000D01*
X3615700Y9259600D01*
X4400500Y9259600D01*
X4400500Y9252000D01*
G37*
G36*
X4400500Y9259600D02*
G01*
X3608100Y9259600D01*
X3608100Y9267200D01*
X4400500Y9267200D01*
X4400500Y9259600D01*
G37*
G36*
X4400500Y9610100D02*
G01*
X948700Y9610100D01*
X948700Y9617700D01*
X4400500Y9617700D01*
X4400500Y9610100D01*
G37*
G36*
X4392900Y9267200D02*
G01*
X3600400Y9267200D01*
X3600400Y9274800D01*
X4392900Y9274800D01*
X4392900Y9267200D01*
G37*
G36*
X4385300Y9274800D02*
G01*
X3600400Y9274800D01*
X3600400Y9282400D01*
X4385300Y9282400D01*
X4385300Y9274800D01*
G37*
G36*
X4385300Y9602500D02*
G01*
X956300Y9602500D01*
X956300Y9610100D01*
X4385300Y9610100D01*
X4385300Y9602500D01*
G37*
G36*
X4377700Y9282400D02*
G01*
X3592800Y9282400D01*
X3592800Y9290100D01*
X4377700Y9290100D01*
X4377700Y9282400D01*
G37*
G36*
X4370100Y9290100D02*
G01*
X3585200Y9290100D01*
X3585200Y9297700D01*
X4370100Y9297700D01*
X4370100Y9290100D01*
G37*
G36*
X4370100Y9594900D02*
G01*
X963900Y9594900D01*
X963900Y9602500D01*
X4370100Y9602500D01*
X4370100Y9594900D01*
G37*
G36*
X4362400Y9297700D02*
G01*
X3577600Y9297700D01*
X3577600Y9305300D01*
X4362400Y9305300D01*
X4362400Y9297700D01*
G37*
G36*
X4354800Y9305300D02*
G01*
X3570000Y9305300D01*
X3570000Y9312900D01*
X4354800Y9312900D01*
X4354800Y9305300D01*
G37*
G36*
X4354800Y9587200D02*
G01*
X979200Y9587200D01*
X979200Y9594900D01*
X4354800Y9594900D01*
X4354800Y9587200D01*
G37*
G36*
X4347200Y9312900D02*
G01*
X3570000Y9312900D01*
X3570000Y9320500D01*
X4347200Y9320500D01*
X4347200Y9312900D01*
G37*
G36*
X4339600Y9320500D02*
G01*
X3562300Y9320500D01*
X3562300Y9328200D01*
X4339600Y9328200D01*
X4339600Y9320500D01*
G37*
G36*
X4339600Y9579600D02*
G01*
X986800Y9579600D01*
X986800Y9587200D01*
X4339600Y9587200D01*
X4339600Y9579600D01*
G37*
G36*
X4332000Y9328200D02*
G01*
X3554700Y9328200D01*
X3554700Y9335800D01*
X4332000Y9335800D01*
X4332000Y9328200D01*
G37*
G36*
X4324300Y9335800D02*
G01*
X3547100Y9335800D01*
X3547100Y9343400D01*
X4324300Y9343400D01*
X4324300Y9335800D01*
G37*
G36*
X4316700Y9343400D02*
G01*
X3539500Y9343400D01*
X3539500Y9351000D01*
X4316700Y9351000D01*
X4316700Y9343400D01*
G37*
G36*
X4316700Y9572000D02*
G01*
X1002000Y9572000D01*
X1002000Y9579600D01*
X4316700Y9579600D01*
X4316700Y9572000D01*
G37*
G36*
X4309100Y9351000D02*
G01*
X3531900Y9351000D01*
X3531900Y9358600D01*
X4309100Y9358600D01*
X4309100Y9351000D01*
G37*
G36*
X4301500Y9358600D02*
G01*
X3524200Y9358600D01*
X3524200Y9366300D01*
X4301500Y9366300D01*
X4301500Y9358600D01*
G37*
G36*
X4293900Y9564400D02*
G01*
X1009600Y9564400D01*
X1009600Y9572000D01*
X4293900Y9572000D01*
X4293900Y9564400D01*
G37*
G36*
X4286200Y9366300D02*
G01*
X3516600Y9366300D01*
X3516600Y9373900D01*
X4286200Y9373900D01*
X4286200Y9366300D01*
G37*
G36*
X4278600Y9373900D02*
G01*
X3509000Y9373900D01*
X3509000Y9381500D01*
X4278600Y9381500D01*
X4278600Y9373900D01*
G37*
G36*
X4271000Y9381500D02*
G01*
X3501400Y9381500D01*
X3501400Y9389100D01*
X4271000Y9389100D01*
X4271000Y9381500D01*
G37*
G36*
X4271000Y9556800D02*
G01*
X1017300Y9556800D01*
X1017300Y9564400D01*
X4271000Y9564400D01*
X4271000Y9556800D01*
G37*
G36*
X4263400Y9389100D02*
G01*
X3493800Y9389100D01*
X3493800Y9396700D01*
X4263400Y9396700D01*
X4263400Y9389100D01*
G37*
G36*
X4248100Y9396700D02*
G01*
X3486100Y9396700D01*
X3486100Y9404400D01*
X4248100Y9404400D01*
X4248100Y9396700D01*
G37*
G36*
X4248100Y9549100D02*
G01*
X1032500Y9549100D01*
X1032500Y9556800D01*
X4248100Y9556800D01*
X4248100Y9549100D01*
G37*
G36*
X4240500Y9404400D02*
G01*
X3478500Y9404400D01*
X3478500Y9412000D01*
X4240500Y9412000D01*
X4240500Y9404400D01*
G37*
G36*
X4225300Y9412000D02*
G01*
X3463300Y9412000D01*
X3463300Y9419600D01*
X4225300Y9419600D01*
X4225300Y9412000D01*
G37*
G36*
X4217700Y9419600D02*
G01*
X3455700Y9419600D01*
X3455700Y9427200D01*
X4217700Y9427200D01*
X4217700Y9419600D01*
G37*
G36*
X4217700Y9541500D02*
G01*
X1040100Y9541500D01*
X1040100Y9549100D01*
X4217700Y9549100D01*
X4217700Y9541500D01*
G37*
G36*
X4202400Y9427200D02*
G01*
X3448000Y9427200D01*
X3448000Y9434800D01*
X4202400Y9434800D01*
X4202400Y9427200D01*
G37*
G36*
X4187200Y9434800D02*
G01*
X3440400Y9434800D01*
X3440400Y9442500D01*
X4187200Y9442500D01*
X4187200Y9434800D01*
G37*
G36*
X4179600Y9533900D02*
G01*
X1055400Y9533900D01*
X1055400Y9541500D01*
X4179600Y9541500D01*
X4179600Y9533900D01*
G37*
G36*
X4171900Y9442500D02*
G01*
X3425200Y9442500D01*
X3425200Y9450100D01*
X4171900Y9450100D01*
X4171900Y9442500D01*
G37*
G36*
X4164300Y9450100D02*
G01*
X3417600Y9450100D01*
X3417600Y9457700D01*
X4164300Y9457700D01*
X4164300Y9450100D01*
G37*
G36*
X4141500Y9457700D02*
G01*
X3402300Y9457700D01*
X3402300Y9465300D01*
X4141500Y9465300D01*
X4141500Y9457700D01*
G37*
G36*
X4126200Y9465300D02*
G01*
X3394700Y9465300D01*
X3394700Y9472900D01*
X4126200Y9472900D01*
X4126200Y9465300D01*
G37*
G36*
X4111000Y9472900D02*
G01*
X3379500Y9472900D01*
X3379500Y9480600D01*
X4111000Y9480600D01*
X4111000Y9472900D01*
G37*
G36*
X4095700Y9526300D02*
G01*
X4034800Y9526300D01*
X4034800Y9533900D01*
X4095700Y9533900D01*
X4095700Y9526300D01*
G37*
G36*
X4088100Y9480600D02*
G01*
X3364200Y9480600D01*
X3364200Y9488200D01*
X4088100Y9488200D01*
X4088100Y9480600D01*
G37*
G36*
X4065300Y9488200D02*
G01*
X3349000Y9488200D01*
X3349000Y9495800D01*
X4065300Y9495800D01*
X4065300Y9488200D01*
G37*
G36*
X4042400Y9495800D02*
G01*
X3333700Y9495800D01*
X3333700Y9503400D01*
X4042400Y9503400D01*
X4042400Y9495800D01*
G37*
G36*
X4019500Y9503400D02*
G01*
X3318500Y9503400D01*
X3318500Y9511000D01*
X4019500Y9511000D01*
X4019500Y9503400D01*
G37*
G36*
X3989100Y9511000D02*
G01*
X3295600Y9511000D01*
X3295600Y9518700D01*
X3989100Y9518700D01*
X3989100Y9511000D01*
G37*
G36*
X3966200Y9518700D02*
G01*
X3272800Y9518700D01*
X3272800Y9526300D01*
X3966200Y9526300D01*
X3966200Y9518700D01*
G37*
G36*
X3935700Y9526300D02*
G01*
X1063000Y9526300D01*
X1063000Y9533900D01*
X3935700Y9533900D01*
X3935700Y9526300D01*
G37*
G36*
X3691900Y10135900D02*
G01*
X3067000Y10135900D01*
X3067000Y10143500D01*
X3691900Y10143500D01*
X3691900Y10135900D01*
G37*
G36*
X3646200Y10128300D02*
G01*
X3067000Y10128300D01*
X3067000Y10135900D01*
X3646200Y10135900D01*
X3646200Y10128300D01*
G37*
G36*
X3615700Y10120600D02*
G01*
X3067000Y10120600D01*
X3067000Y10128300D01*
X3615700Y10128300D01*
X3615700Y10120600D01*
G37*
G36*
X3608100Y9000500D02*
G01*
X2815600Y9000500D01*
X2815600Y9008100D01*
X3608100Y9008100D01*
X3608100Y9000500D01*
G37*
G36*
X3592800Y10113000D02*
G01*
X3067000Y10113000D01*
X3067000Y10120600D01*
X3592800Y10120600D01*
X3592800Y10113000D01*
G37*
G36*
X3570000Y10105400D02*
G01*
X3067000Y10105400D01*
X3067000Y10113000D01*
X3570000Y10113000D01*
X3570000Y10105400D01*
G37*
G36*
X3562300Y9008100D02*
G01*
X2823200Y9008100D01*
X2823200Y9015700D01*
X3562300Y9015700D01*
X3562300Y9008100D01*
G37*
G36*
X3547100Y10097800D02*
G01*
X3067000Y10097800D01*
X3067000Y10105400D01*
X3547100Y10105400D01*
X3547100Y10097800D01*
G37*
G36*
X3539500Y9015700D02*
G01*
X2823200Y9015700D01*
X2823200Y9023400D01*
X3539500Y9023400D01*
X3539500Y9015700D01*
G37*
G36*
X3531900Y10090200D02*
G01*
X3067000Y10090200D01*
X3067000Y10097800D01*
X3531900Y10097800D01*
X3531900Y10090200D01*
G37*
G36*
X3524200Y9023400D02*
G01*
X2830800Y9023400D01*
X2830800Y9031000D01*
X3524200Y9031000D01*
X3524200Y9023400D01*
G37*
G36*
X3516600Y10783600D02*
G01*
X2145000Y10783600D01*
X2145000Y10791200D01*
X3516600Y10791200D01*
X3516600Y10783600D01*
G37*
G36*
X3516600Y10791200D02*
G01*
X2137400Y10791200D01*
X2137400Y10798800D01*
X3516600Y10798800D01*
X3516600Y10791200D01*
G37*
G36*
X3516600Y10798800D02*
G01*
X2137400Y10798800D01*
X2137400Y10806400D01*
X3516600Y10806400D01*
X3516600Y10798800D01*
G37*
G36*
X3516600Y10806400D02*
G01*
X2137400Y10806400D01*
X2137400Y10814100D01*
X3516600Y10814100D01*
X3516600Y10806400D01*
G37*
G36*
X3516600Y10814100D02*
G01*
X2137400Y10814100D01*
X2137400Y10821700D01*
X3516600Y10821700D01*
X3516600Y10814100D01*
G37*
G36*
X3516600Y10821700D02*
G01*
X2137400Y10821700D01*
X2137400Y10829300D01*
X3516600Y10829300D01*
X3516600Y10821700D01*
G37*
G36*
X3516600Y10829300D02*
G01*
X2137400Y10829300D01*
X2137400Y10836900D01*
X3516600Y10836900D01*
X3516600Y10829300D01*
G37*
G36*
X3516600Y10836900D02*
G01*
X2137400Y10836900D01*
X2137400Y10844500D01*
X3516600Y10844500D01*
X3516600Y10836900D01*
G37*
G36*
X3516600Y10844500D02*
G01*
X2137400Y10844500D01*
X2137400Y10852200D01*
X3516600Y10852200D01*
X3516600Y10844500D01*
G37*
G36*
X3516600Y10852200D02*
G01*
X2137400Y10852200D01*
X2137400Y10859800D01*
X3516600Y10859800D01*
X3516600Y10852200D01*
G37*
G36*
X3516600Y10859800D02*
G01*
X2137400Y10859800D01*
X2137400Y10867400D01*
X3516600Y10867400D01*
X3516600Y10859800D01*
G37*
G36*
X3516600Y10867400D02*
G01*
X2137400Y10867400D01*
X2137400Y10875000D01*
X3516600Y10875000D01*
X3516600Y10867400D01*
G37*
G36*
X3516600Y10875000D02*
G01*
X2137400Y10875000D01*
X2137400Y10882600D01*
X3516600Y10882600D01*
X3516600Y10875000D01*
G37*
G36*
X3516600Y10882600D02*
G01*
X2137400Y10882600D01*
X2137400Y10890300D01*
X3516600Y10890300D01*
X3516600Y10882600D01*
G37*
G36*
X3516600Y10890300D02*
G01*
X2137400Y10890300D01*
X2137400Y10897900D01*
X3516600Y10897900D01*
X3516600Y10890300D01*
G37*
G36*
X3516600Y10897900D02*
G01*
X2137400Y10897900D01*
X2137400Y10905500D01*
X3516600Y10905500D01*
X3516600Y10897900D01*
G37*
G36*
X3516600Y10905500D02*
G01*
X2137400Y10905500D01*
X2137400Y10913100D01*
X3516600Y10913100D01*
X3516600Y10905500D01*
G37*
G36*
X3516600Y10913100D02*
G01*
X2137400Y10913100D01*
X2137400Y10920700D01*
X3516600Y10920700D01*
X3516600Y10913100D01*
G37*
G36*
X3516600Y10920700D02*
G01*
X2137400Y10920700D01*
X2137400Y10928400D01*
X3516600Y10928400D01*
X3516600Y10920700D01*
G37*
G36*
X3509000Y9031000D02*
G01*
X2838400Y9031000D01*
X2838400Y9038600D01*
X3509000Y9038600D01*
X3509000Y9031000D01*
G37*
G36*
X3509000Y10082500D02*
G01*
X3067000Y10082500D01*
X3067000Y10090200D01*
X3509000Y10090200D01*
X3509000Y10082500D01*
G37*
G36*
X3509000Y10730200D02*
G01*
X2152600Y10730200D01*
X2152600Y10737900D01*
X3509000Y10737900D01*
X3509000Y10730200D01*
G37*
G36*
X3509000Y10737900D02*
G01*
X2152600Y10737900D01*
X2152600Y10745500D01*
X3509000Y10745500D01*
X3509000Y10737900D01*
G37*
G36*
X3509000Y10745500D02*
G01*
X2145000Y10745500D01*
X2145000Y10753100D01*
X3509000Y10753100D01*
X3509000Y10745500D01*
G37*
G36*
X3509000Y10753100D02*
G01*
X2145000Y10753100D01*
X2145000Y10760700D01*
X3509000Y10760700D01*
X3509000Y10753100D01*
G37*
G36*
X3509000Y10760700D02*
G01*
X2145000Y10760700D01*
X2145000Y10768300D01*
X3509000Y10768300D01*
X3509000Y10760700D01*
G37*
G36*
X3509000Y10768300D02*
G01*
X2145000Y10768300D01*
X2145000Y10776000D01*
X3509000Y10776000D01*
X3509000Y10768300D01*
G37*
G36*
X3509000Y10776000D02*
G01*
X2145000Y10776000D01*
X2145000Y10783600D01*
X3509000Y10783600D01*
X3509000Y10776000D01*
G37*
G36*
X3509000Y10928400D02*
G01*
X2137400Y10928400D01*
X2137400Y10936000D01*
X3509000Y10936000D01*
X3509000Y10928400D01*
G37*
G36*
X3509000Y10936000D02*
G01*
X2137400Y10936000D01*
X2137400Y10943600D01*
X3509000Y10943600D01*
X3509000Y10936000D01*
G37*
G36*
X3509000Y10943600D02*
G01*
X2137400Y10943600D01*
X2137400Y10951200D01*
X3509000Y10951200D01*
X3509000Y10943600D01*
G37*
G36*
X3509000Y10951200D02*
G01*
X2137400Y10951200D01*
X2137400Y10958800D01*
X3509000Y10958800D01*
X3509000Y10951200D01*
G37*
G36*
X3509000Y10958800D02*
G01*
X2137400Y10958800D01*
X2137400Y10966500D01*
X3509000Y10966500D01*
X3509000Y10958800D01*
G37*
G36*
X3509000Y10966500D02*
G01*
X2137400Y10966500D01*
X2137400Y10974100D01*
X3509000Y10974100D01*
X3509000Y10966500D01*
G37*
G36*
X3509000Y10974100D02*
G01*
X2137400Y10974100D01*
X2137400Y10981700D01*
X3509000Y10981700D01*
X3509000Y10974100D01*
G37*
G36*
X3501400Y10692100D02*
G01*
X2160300Y10692100D01*
X2160300Y10699800D01*
X3501400Y10699800D01*
X3501400Y10692100D01*
G37*
G36*
X3501400Y10699800D02*
G01*
X2160300Y10699800D01*
X2160300Y10707400D01*
X3501400Y10707400D01*
X3501400Y10699800D01*
G37*
G36*
X3501400Y10707400D02*
G01*
X2152600Y10707400D01*
X2152600Y10715000D01*
X3501400Y10715000D01*
X3501400Y10707400D01*
G37*
G36*
X3501400Y10715000D02*
G01*
X2152600Y10715000D01*
X2152600Y10722600D01*
X3501400Y10722600D01*
X3501400Y10715000D01*
G37*
G36*
X3501400Y10722600D02*
G01*
X2152600Y10722600D01*
X2152600Y10730200D01*
X3501400Y10730200D01*
X3501400Y10722600D01*
G37*
G36*
X3501400Y10981700D02*
G01*
X2137400Y10981700D01*
X2137400Y10989300D01*
X3501400Y10989300D01*
X3501400Y10981700D01*
G37*
G36*
X3501400Y10989300D02*
G01*
X2137400Y10989300D01*
X2137400Y10996900D01*
X3501400Y10996900D01*
X3501400Y10989300D01*
G37*
G36*
X3501400Y10996900D02*
G01*
X2137400Y10996900D01*
X2137400Y11004600D01*
X3501400Y11004600D01*
X3501400Y10996900D01*
G37*
G36*
X3501400Y11004600D02*
G01*
X2137400Y11004600D01*
X2137400Y11012200D01*
X3501400Y11012200D01*
X3501400Y11004600D01*
G37*
G36*
X3501400Y11012200D02*
G01*
X2145000Y11012200D01*
X2145000Y11019800D01*
X3501400Y11019800D01*
X3501400Y11012200D01*
G37*
G36*
X3493800Y9038600D02*
G01*
X2838400Y9038600D01*
X2838400Y9046200D01*
X3493800Y9046200D01*
X3493800Y9038600D01*
G37*
G36*
X3493800Y10074900D02*
G01*
X3067000Y10074900D01*
X3067000Y10082500D01*
X3493800Y10082500D01*
X3493800Y10074900D01*
G37*
G36*
X3493800Y10669300D02*
G01*
X2167900Y10669300D01*
X2167900Y10676900D01*
X3493800Y10676900D01*
X3493800Y10669300D01*
G37*
G36*
X3493800Y10676900D02*
G01*
X2160300Y10676900D01*
X2160300Y10684500D01*
X3493800Y10684500D01*
X3493800Y10676900D01*
G37*
G36*
X3493800Y10684500D02*
G01*
X2160300Y10684500D01*
X2160300Y10692100D01*
X3493800Y10692100D01*
X3493800Y10684500D01*
G37*
G36*
X3493800Y11019800D02*
G01*
X2145000Y11019800D01*
X2145000Y11027400D01*
X3493800Y11027400D01*
X3493800Y11019800D01*
G37*
G36*
X3493800Y11027400D02*
G01*
X2145000Y11027400D01*
X2145000Y11035000D01*
X3493800Y11035000D01*
X3493800Y11027400D01*
G37*
G36*
X3493800Y11035000D02*
G01*
X2145000Y11035000D01*
X2145000Y11042700D01*
X3493800Y11042700D01*
X3493800Y11035000D01*
G37*
G36*
X3493800Y11042700D02*
G01*
X2145000Y11042700D01*
X2145000Y11050300D01*
X3493800Y11050300D01*
X3493800Y11042700D01*
G37*
G36*
X3486100Y10638800D02*
G01*
X2175500Y10638800D01*
X2175500Y10646400D01*
X3486100Y10646400D01*
X3486100Y10638800D01*
G37*
G36*
X3486100Y10646400D02*
G01*
X2167900Y10646400D01*
X2167900Y10654000D01*
X3486100Y10654000D01*
X3486100Y10646400D01*
G37*
G36*
X3486100Y10654000D02*
G01*
X2167900Y10654000D01*
X2167900Y10661700D01*
X3486100Y10661700D01*
X3486100Y10654000D01*
G37*
G36*
X3486100Y10661700D02*
G01*
X2167900Y10661700D01*
X2167900Y10669300D01*
X3486100Y10669300D01*
X3486100Y10661700D01*
G37*
G36*
X3486100Y11050300D02*
G01*
X2145000Y11050300D01*
X2145000Y11057900D01*
X3486100Y11057900D01*
X3486100Y11050300D01*
G37*
G36*
X3486100Y11057900D02*
G01*
X2145000Y11057900D01*
X2145000Y11065500D01*
X3486100Y11065500D01*
X3486100Y11057900D01*
G37*
G36*
X3486100Y11065500D02*
G01*
X2145000Y11065500D01*
X2145000Y11073100D01*
X3486100Y11073100D01*
X3486100Y11065500D01*
G37*
G36*
X3486100Y11073100D02*
G01*
X2152600Y11073100D01*
X2152600Y11080800D01*
X3486100Y11080800D01*
X3486100Y11073100D01*
G37*
G36*
X3478500Y9046200D02*
G01*
X2846100Y9046200D01*
X2846100Y9053800D01*
X3478500Y9053800D01*
X3478500Y9046200D01*
G37*
G36*
X3478500Y10067300D02*
G01*
X3059400Y10067300D01*
X3059400Y10074900D01*
X3478500Y10074900D01*
X3478500Y10067300D01*
G37*
G36*
X3478500Y10615900D02*
G01*
X2183100Y10615900D01*
X2183100Y10623600D01*
X3478500Y10623600D01*
X3478500Y10615900D01*
G37*
G36*
X3478500Y10623600D02*
G01*
X2175500Y10623600D01*
X2175500Y10631200D01*
X3478500Y10631200D01*
X3478500Y10623600D01*
G37*
G36*
X3478500Y10631200D02*
G01*
X2175500Y10631200D01*
X2175500Y10638800D01*
X3478500Y10638800D01*
X3478500Y10631200D01*
G37*
G36*
X3478500Y11080800D02*
G01*
X2152600Y11080800D01*
X2152600Y11088400D01*
X3478500Y11088400D01*
X3478500Y11080800D01*
G37*
G36*
X3478500Y11088400D02*
G01*
X2152600Y11088400D01*
X2152600Y11096000D01*
X3478500Y11096000D01*
X3478500Y11088400D01*
G37*
G36*
X3478500Y11096000D02*
G01*
X2152600Y11096000D01*
X2152600Y11103600D01*
X3478500Y11103600D01*
X3478500Y11096000D01*
G37*
G36*
X3470900Y10593100D02*
G01*
X2190700Y10593100D01*
X2190700Y10600700D01*
X3470900Y10600700D01*
X3470900Y10593100D01*
G37*
G36*
X3470900Y10600700D02*
G01*
X2190700Y10600700D01*
X2190700Y10608300D01*
X3470900Y10608300D01*
X3470900Y10600700D01*
G37*
G36*
X3470900Y10608300D02*
G01*
X2183100Y10608300D01*
X2183100Y10615900D01*
X3470900Y10615900D01*
X3470900Y10608300D01*
G37*
G36*
X3470900Y11103600D02*
G01*
X2152600Y11103600D01*
X2152600Y11111200D01*
X3470900Y11111200D01*
X3470900Y11103600D01*
G37*
G36*
X3470900Y11111200D02*
G01*
X2160300Y11111200D01*
X2160300Y11118900D01*
X3470900Y11118900D01*
X3470900Y11111200D01*
G37*
G36*
X3470900Y11118900D02*
G01*
X2160300Y11118900D01*
X2160300Y11126500D01*
X3470900Y11126500D01*
X3470900Y11118900D01*
G37*
G36*
X3463300Y9053800D02*
G01*
X2846100Y9053800D01*
X2846100Y9061500D01*
X3463300Y9061500D01*
X3463300Y9053800D01*
G37*
G36*
X3463300Y10059700D02*
G01*
X3059400Y10059700D01*
X3059400Y10067300D01*
X3463300Y10067300D01*
X3463300Y10059700D01*
G37*
G36*
X3463300Y10577800D02*
G01*
X2922300Y10577800D01*
X2922300Y10585500D01*
X3463300Y10585500D01*
X3463300Y10577800D01*
G37*
G36*
X3463300Y10585500D02*
G01*
X2907000Y10585500D01*
X2907000Y10593100D01*
X3463300Y10593100D01*
X3463300Y10585500D01*
G37*
G36*
X3463300Y11126500D02*
G01*
X2160300Y11126500D01*
X2160300Y11134100D01*
X3463300Y11134100D01*
X3463300Y11126500D01*
G37*
G36*
X3463300Y11134100D02*
G01*
X2160300Y11134100D01*
X2160300Y11141700D01*
X3463300Y11141700D01*
X3463300Y11134100D01*
G37*
G36*
X3463300Y11141700D02*
G01*
X2160300Y11141700D01*
X2160300Y11149300D01*
X3463300Y11149300D01*
X3463300Y11141700D01*
G37*
G36*
X3455700Y9061500D02*
G01*
X2853700Y9061500D01*
X2853700Y9069100D01*
X3455700Y9069100D01*
X3455700Y9061500D01*
G37*
G36*
X3455700Y10555000D02*
G01*
X2945100Y10555000D01*
X2945100Y10562600D01*
X3455700Y10562600D01*
X3455700Y10555000D01*
G37*
G36*
X3455700Y10562600D02*
G01*
X2937500Y10562600D01*
X2937500Y10570200D01*
X3455700Y10570200D01*
X3455700Y10562600D01*
G37*
G36*
X3455700Y10570200D02*
G01*
X2929900Y10570200D01*
X2929900Y10577800D01*
X3455700Y10577800D01*
X3455700Y10570200D01*
G37*
G36*
X3455700Y11149300D02*
G01*
X2167900Y11149300D01*
X2167900Y11157000D01*
X3455700Y11157000D01*
X3455700Y11149300D01*
G37*
G36*
X3455700Y11157000D02*
G01*
X2167900Y11157000D01*
X2167900Y11164600D01*
X3455700Y11164600D01*
X3455700Y11157000D01*
G37*
G36*
X3455700Y11164600D02*
G01*
X2167900Y11164600D01*
X2167900Y11172200D01*
X3455700Y11172200D01*
X3455700Y11164600D01*
G37*
G36*
X3448000Y10052100D02*
G01*
X3059400Y10052100D01*
X3059400Y10059700D01*
X3448000Y10059700D01*
X3448000Y10052100D01*
G37*
G36*
X3448000Y10532100D02*
G01*
X2968000Y10532100D01*
X2968000Y10539700D01*
X3448000Y10539700D01*
X3448000Y10532100D01*
G37*
G36*
X3448000Y10539700D02*
G01*
X2960400Y10539700D01*
X2960400Y10547400D01*
X3448000Y10547400D01*
X3448000Y10539700D01*
G37*
G36*
X3448000Y10547400D02*
G01*
X2952700Y10547400D01*
X2952700Y10555000D01*
X3448000Y10555000D01*
X3448000Y10547400D01*
G37*
G36*
X3448000Y11172200D02*
G01*
X2167900Y11172200D01*
X2167900Y11179800D01*
X3448000Y11179800D01*
X3448000Y11172200D01*
G37*
G36*
X3448000Y11179800D02*
G01*
X2175500Y11179800D01*
X2175500Y11187400D01*
X3448000Y11187400D01*
X3448000Y11179800D01*
G37*
G36*
X3440400Y9069100D02*
G01*
X2853700Y9069100D01*
X2853700Y9076700D01*
X3440400Y9076700D01*
X3440400Y9069100D01*
G37*
G36*
X3440400Y10044400D02*
G01*
X3059400Y10044400D01*
X3059400Y10052100D01*
X3440400Y10052100D01*
X3440400Y10044400D01*
G37*
G36*
X3440400Y10516900D02*
G01*
X2975600Y10516900D01*
X2975600Y10524500D01*
X3440400Y10524500D01*
X3440400Y10516900D01*
G37*
G36*
X3440400Y10524500D02*
G01*
X2968000Y10524500D01*
X2968000Y10532100D01*
X3440400Y10532100D01*
X3440400Y10524500D01*
G37*
G36*
X3440400Y11187400D02*
G01*
X2175500Y11187400D01*
X2175500Y11195100D01*
X3440400Y11195100D01*
X3440400Y11187400D01*
G37*
G36*
X3440400Y11195100D02*
G01*
X2175500Y11195100D01*
X2175500Y11202700D01*
X3440400Y11202700D01*
X3440400Y11195100D01*
G37*
G36*
X3440400Y11202700D02*
G01*
X2175500Y11202700D01*
X2175500Y11210300D01*
X3440400Y11210300D01*
X3440400Y11202700D01*
G37*
G36*
X3432800Y9076700D02*
G01*
X2861300Y9076700D01*
X2861300Y9084300D01*
X3432800Y9084300D01*
X3432800Y9076700D01*
G37*
G36*
X3432800Y10509300D02*
G01*
X2983200Y10509300D01*
X2983200Y10516900D01*
X3432800Y10516900D01*
X3432800Y10509300D01*
G37*
G36*
X3432800Y11210300D02*
G01*
X2183100Y11210300D01*
X2183100Y11217900D01*
X3432800Y11217900D01*
X3432800Y11210300D01*
G37*
G36*
X3432800Y11217900D02*
G01*
X2183100Y11217900D01*
X2183100Y11225500D01*
X3432800Y11225500D01*
X3432800Y11217900D01*
G37*
G36*
X3425200Y10036800D02*
G01*
X3059400Y10036800D01*
X3059400Y10044400D01*
X3425200Y10044400D01*
X3425200Y10036800D01*
G37*
G36*
X3425200Y11225500D02*
G01*
X2183100Y11225500D01*
X2183100Y11233200D01*
X3425200Y11233200D01*
X3425200Y11225500D01*
G37*
G36*
X3425200Y11233200D02*
G01*
X2190700Y11233200D01*
X2190700Y11240800D01*
X3425200Y11240800D01*
X3425200Y11233200D01*
G37*
G36*
X3417600Y9084300D02*
G01*
X2868900Y9084300D01*
X2868900Y9091900D01*
X3417600Y9091900D01*
X3417600Y9084300D01*
G37*
G36*
X3417600Y11240800D02*
G01*
X2190700Y11240800D01*
X2190700Y11248400D01*
X3417600Y11248400D01*
X3417600Y11240800D01*
G37*
G36*
X3417600Y11248400D02*
G01*
X2190700Y11248400D01*
X2190700Y11256000D01*
X3417600Y11256000D01*
X3417600Y11248400D01*
G37*
G36*
X3409900Y9091900D02*
G01*
X2868900Y9091900D01*
X2868900Y9099600D01*
X3409900Y9099600D01*
X3409900Y9091900D01*
G37*
G36*
X3409900Y10029200D02*
G01*
X3051800Y10029200D01*
X3051800Y10036800D01*
X3409900Y10036800D01*
X3409900Y10029200D01*
G37*
G36*
X3409900Y11256000D02*
G01*
X2198400Y11256000D01*
X2198400Y11263600D01*
X3409900Y11263600D01*
X3409900Y11256000D01*
G37*
G36*
X3409900Y11263600D02*
G01*
X2198400Y11263600D01*
X2198400Y11271300D01*
X3409900Y11271300D01*
X3409900Y11263600D01*
G37*
G36*
X3402300Y9099600D02*
G01*
X2876500Y9099600D01*
X2876500Y9107200D01*
X3402300Y9107200D01*
X3402300Y9099600D01*
G37*
G36*
X3402300Y10021600D02*
G01*
X3051800Y10021600D01*
X3051800Y10029200D01*
X3402300Y10029200D01*
X3402300Y10021600D01*
G37*
G36*
X3402300Y11271300D02*
G01*
X2198400Y11271300D01*
X2198400Y11278900D01*
X3402300Y11278900D01*
X3402300Y11271300D01*
G37*
G36*
X3402300Y11278900D02*
G01*
X2206000Y11278900D01*
X2206000Y11286500D01*
X3402300Y11286500D01*
X3402300Y11278900D01*
G37*
G36*
X3394700Y9107200D02*
G01*
X2876500Y9107200D01*
X2876500Y9114800D01*
X3394700Y9114800D01*
X3394700Y9107200D01*
G37*
G36*
X3394700Y11286500D02*
G01*
X2206000Y11286500D01*
X2206000Y11294100D01*
X3394700Y11294100D01*
X3394700Y11286500D01*
G37*
G36*
X3394700Y11294100D02*
G01*
X2206000Y11294100D01*
X2206000Y11301700D01*
X3394700Y11301700D01*
X3394700Y11294100D01*
G37*
G36*
X3387100Y10014000D02*
G01*
X3051800Y10014000D01*
X3051800Y10021600D01*
X3387100Y10021600D01*
X3387100Y10014000D01*
G37*
G36*
X3387100Y11301700D02*
G01*
X2213600Y11301700D01*
X2213600Y11309400D01*
X3387100Y11309400D01*
X3387100Y11301700D01*
G37*
G36*
X3387100Y11309400D02*
G01*
X2213600Y11309400D01*
X2213600Y11317000D01*
X3387100Y11317000D01*
X3387100Y11309400D01*
G37*
G36*
X3379500Y9114800D02*
G01*
X2884200Y9114800D01*
X2884200Y9122400D01*
X3379500Y9122400D01*
X3379500Y9114800D01*
G37*
G36*
X3379500Y10006300D02*
G01*
X3051800Y10006300D01*
X3051800Y10014000D01*
X3379500Y10014000D01*
X3379500Y10006300D01*
G37*
G36*
X3379500Y11317000D02*
G01*
X2213600Y11317000D01*
X2213600Y11324600D01*
X3379500Y11324600D01*
X3379500Y11317000D01*
G37*
G36*
X3379500Y11324600D02*
G01*
X2213600Y11324600D01*
X2213600Y11332200D01*
X3379500Y11332200D01*
X3379500Y11324600D01*
G37*
G36*
X3371800Y9122400D02*
G01*
X2884200Y9122400D01*
X2884200Y9130000D01*
X3371800Y9130000D01*
X3371800Y9122400D01*
G37*
G36*
X3371800Y11332200D02*
G01*
X2221200Y11332200D01*
X2221200Y11339800D01*
X3371800Y11339800D01*
X3371800Y11332200D01*
G37*
G36*
X3364200Y9130000D02*
G01*
X2884200Y9130000D01*
X2884200Y9137700D01*
X3364200Y9137700D01*
X3364200Y9130000D01*
G37*
G36*
X3364200Y9998700D02*
G01*
X3044200Y9998700D01*
X3044200Y10006300D01*
X3364200Y10006300D01*
X3364200Y9998700D01*
G37*
G36*
X3364200Y11339800D02*
G01*
X2221200Y11339800D01*
X2221200Y11347500D01*
X3364200Y11347500D01*
X3364200Y11339800D01*
G37*
G36*
X3364200Y11347500D02*
G01*
X2221200Y11347500D01*
X2221200Y11355100D01*
X3364200Y11355100D01*
X3364200Y11347500D01*
G37*
G36*
X3356600Y9137700D02*
G01*
X2891800Y9137700D01*
X2891800Y9145300D01*
X3356600Y9145300D01*
X3356600Y9137700D01*
G37*
G36*
X3356600Y9991100D02*
G01*
X3044200Y9991100D01*
X3044200Y9998700D01*
X3356600Y9998700D01*
X3356600Y9991100D01*
G37*
G36*
X3356600Y11355100D02*
G01*
X2228800Y11355100D01*
X2228800Y11362700D01*
X3356600Y11362700D01*
X3356600Y11355100D01*
G37*
G36*
X3356600Y11362700D02*
G01*
X2228800Y11362700D01*
X2228800Y11370300D01*
X3356600Y11370300D01*
X3356600Y11362700D01*
G37*
G36*
X3349000Y9145300D02*
G01*
X2891800Y9145300D01*
X2891800Y9152900D01*
X3349000Y9152900D01*
X3349000Y9145300D01*
G37*
G36*
X3349000Y9983500D02*
G01*
X3044200Y9983500D01*
X3044200Y9991100D01*
X3349000Y9991100D01*
X3349000Y9983500D01*
G37*
G36*
X3349000Y11370300D02*
G01*
X2228800Y11370300D01*
X2228800Y11377900D01*
X3349000Y11377900D01*
X3349000Y11370300D01*
G37*
G36*
X3341400Y9152900D02*
G01*
X2899400Y9152900D01*
X2899400Y9160500D01*
X3341400Y9160500D01*
X3341400Y9152900D01*
G37*
G36*
X3341400Y11377900D02*
G01*
X2236500Y11377900D01*
X2236500Y11385600D01*
X3341400Y11385600D01*
X3341400Y11377900D01*
G37*
G36*
X3341400Y11385600D02*
G01*
X2236500Y11385600D01*
X2236500Y11393200D01*
X3341400Y11393200D01*
X3341400Y11385600D01*
G37*
G36*
X3333700Y9160500D02*
G01*
X2899400Y9160500D01*
X2899400Y9168100D01*
X3333700Y9168100D01*
X3333700Y9160500D01*
G37*
G36*
X3333700Y9975900D02*
G01*
X3036600Y9975900D01*
X3036600Y9983500D01*
X3333700Y9983500D01*
X3333700Y9975900D01*
G37*
G36*
X3333700Y11393200D02*
G01*
X2236500Y11393200D01*
X2236500Y11400800D01*
X3333700Y11400800D01*
X3333700Y11393200D01*
G37*
G36*
X3326100Y9168100D02*
G01*
X2907000Y9168100D01*
X2907000Y9175800D01*
X3326100Y9175800D01*
X3326100Y9168100D01*
G37*
G36*
X3326100Y9968200D02*
G01*
X3036600Y9968200D01*
X3036600Y9975900D01*
X3326100Y9975900D01*
X3326100Y9968200D01*
G37*
G36*
X3326100Y11400800D02*
G01*
X2244100Y11400800D01*
X2244100Y11408400D01*
X3326100Y11408400D01*
X3326100Y11400800D01*
G37*
G36*
X3326100Y11408400D02*
G01*
X2244100Y11408400D01*
X2244100Y11416000D01*
X3326100Y11416000D01*
X3326100Y11408400D01*
G37*
G36*
X3318500Y9175800D02*
G01*
X2907000Y9175800D01*
X2907000Y9183400D01*
X3318500Y9183400D01*
X3318500Y9175800D01*
G37*
G36*
X3318500Y9960600D02*
G01*
X3028900Y9960600D01*
X3028900Y9968200D01*
X3318500Y9968200D01*
X3318500Y9960600D01*
G37*
G36*
X3318500Y11416000D02*
G01*
X2244100Y11416000D01*
X2244100Y11423700D01*
X3318500Y11423700D01*
X3318500Y11416000D01*
G37*
G36*
X3310900Y9183400D02*
G01*
X2907000Y9183400D01*
X2907000Y9191000D01*
X3310900Y9191000D01*
X3310900Y9183400D01*
G37*
G36*
X3310900Y9953000D02*
G01*
X3021300Y9953000D01*
X3021300Y9960600D01*
X3310900Y9960600D01*
X3310900Y9953000D01*
G37*
G36*
X3310900Y11423700D02*
G01*
X2251700Y11423700D01*
X2251700Y11431300D01*
X3310900Y11431300D01*
X3310900Y11423700D01*
G37*
G36*
X3303300Y9191000D02*
G01*
X2914600Y9191000D01*
X2914600Y9198600D01*
X3303300Y9198600D01*
X3303300Y9191000D01*
G37*
G36*
X3303300Y9945400D02*
G01*
X3021300Y9945400D01*
X3021300Y9953000D01*
X3303300Y9953000D01*
X3303300Y9945400D01*
G37*
G36*
X3303300Y11431300D02*
G01*
X2251700Y11431300D01*
X2251700Y11438900D01*
X3303300Y11438900D01*
X3303300Y11431300D01*
G37*
G36*
X3303300Y11438900D02*
G01*
X2251700Y11438900D01*
X2251700Y11446500D01*
X3303300Y11446500D01*
X3303300Y11438900D01*
G37*
G36*
X3295600Y9198600D02*
G01*
X2914600Y9198600D01*
X2914600Y9206200D01*
X3295600Y9206200D01*
X3295600Y9198600D01*
G37*
G36*
X3295600Y9747300D02*
G01*
X2769900Y9747300D01*
X2769900Y9754900D01*
X3295600Y9754900D01*
X3295600Y9747300D01*
G37*
G36*
X3295600Y9937800D02*
G01*
X3013700Y9937800D01*
X3013700Y9945400D01*
X3295600Y9945400D01*
X3295600Y9937800D01*
G37*
G36*
X3295600Y11446500D02*
G01*
X2259300Y11446500D01*
X2259300Y11454100D01*
X3295600Y11454100D01*
X3295600Y11446500D01*
G37*
G36*
X3288000Y9206200D02*
G01*
X2914600Y9206200D01*
X2914600Y9213900D01*
X3288000Y9213900D01*
X3288000Y9206200D01*
G37*
G36*
X3288000Y9930100D02*
G01*
X3006100Y9930100D01*
X3006100Y9937800D01*
X3288000Y9937800D01*
X3288000Y9930100D01*
G37*
G36*
X3288000Y11454100D02*
G01*
X2259300Y11454100D01*
X2259300Y11461800D01*
X3288000Y11461800D01*
X3288000Y11454100D01*
G37*
G36*
X3280400Y9213900D02*
G01*
X2922300Y9213900D01*
X2922300Y9221500D01*
X3280400Y9221500D01*
X3280400Y9213900D01*
G37*
G36*
X3280400Y9221500D02*
G01*
X2922300Y9221500D01*
X2922300Y9229100D01*
X3280400Y9229100D01*
X3280400Y9221500D01*
G37*
G36*
X3280400Y9922500D02*
G01*
X2990800Y9922500D01*
X2990800Y9930100D01*
X3280400Y9930100D01*
X3280400Y9922500D01*
G37*
G36*
X3280400Y11461800D02*
G01*
X2259300Y11461800D01*
X2259300Y11469400D01*
X3280400Y11469400D01*
X3280400Y11461800D01*
G37*
G36*
X3280400Y11469400D02*
G01*
X2266900Y11469400D01*
X2266900Y11477000D01*
X3280400Y11477000D01*
X3280400Y11469400D01*
G37*
G36*
X3272800Y9229100D02*
G01*
X2922300Y9229100D01*
X2922300Y9236700D01*
X3272800Y9236700D01*
X3272800Y9229100D01*
G37*
G36*
X3272800Y9914900D02*
G01*
X529600Y9914900D01*
X529600Y9922500D01*
X3272800Y9922500D01*
X3272800Y9914900D01*
G37*
G36*
X3272800Y11477000D02*
G01*
X2266900Y11477000D01*
X2266900Y11484600D01*
X3272800Y11484600D01*
X3272800Y11477000D01*
G37*
G36*
X3265200Y9236700D02*
G01*
X2929900Y9236700D01*
X2929900Y9244300D01*
X3265200Y9244300D01*
X3265200Y9236700D01*
G37*
G36*
X3265200Y9754900D02*
G01*
X2762200Y9754900D01*
X2762200Y9762500D01*
X3265200Y9762500D01*
X3265200Y9754900D01*
G37*
G36*
X3265200Y9907300D02*
G01*
X2434600Y9907300D01*
X2434600Y9914900D01*
X3265200Y9914900D01*
X3265200Y9907300D01*
G37*
G36*
X3265200Y11484600D02*
G01*
X2266900Y11484600D01*
X2266900Y11492200D01*
X3265200Y11492200D01*
X3265200Y11484600D01*
G37*
G36*
X3265200Y11492200D02*
G01*
X2274600Y11492200D01*
X2274600Y11499900D01*
X3265200Y11499900D01*
X3265200Y11492200D01*
G37*
G36*
X3257500Y9244300D02*
G01*
X2929900Y9244300D01*
X2929900Y9252000D01*
X3257500Y9252000D01*
X3257500Y9244300D01*
G37*
G36*
X3257500Y9892000D02*
G01*
X2518400Y9892000D01*
X2518400Y9899700D01*
X3257500Y9899700D01*
X3257500Y9892000D01*
G37*
G36*
X3257500Y9899700D02*
G01*
X2480300Y9899700D01*
X2480300Y9907300D01*
X3257500Y9907300D01*
X3257500Y9899700D01*
G37*
G36*
X3257500Y11499900D02*
G01*
X2274600Y11499900D01*
X2274600Y11507500D01*
X3257500Y11507500D01*
X3257500Y11499900D01*
G37*
G36*
X3249900Y9252000D02*
G01*
X2929900Y9252000D01*
X2929900Y9259600D01*
X3249900Y9259600D01*
X3249900Y9252000D01*
G37*
G36*
X3249900Y9259600D02*
G01*
X2929900Y9259600D01*
X2929900Y9267200D01*
X3249900Y9267200D01*
X3249900Y9259600D01*
G37*
G36*
X3249900Y9762500D02*
G01*
X2762200Y9762500D01*
X2762200Y9770100D01*
X3249900Y9770100D01*
X3249900Y9762500D01*
G37*
G36*
X3249900Y9884400D02*
G01*
X2548900Y9884400D01*
X2548900Y9892000D01*
X3249900Y9892000D01*
X3249900Y9884400D01*
G37*
G36*
X3249900Y11507500D02*
G01*
X2274600Y11507500D01*
X2274600Y11515100D01*
X3249900Y11515100D01*
X3249900Y11507500D01*
G37*
G36*
X3242300Y9267200D02*
G01*
X2937500Y9267200D01*
X2937500Y9274800D01*
X3242300Y9274800D01*
X3242300Y9267200D01*
G37*
G36*
X3242300Y9770100D02*
G01*
X2754600Y9770100D01*
X2754600Y9777700D01*
X3242300Y9777700D01*
X3242300Y9770100D01*
G37*
G36*
X3242300Y9869200D02*
G01*
X2594600Y9869200D01*
X2594600Y9876800D01*
X3242300Y9876800D01*
X3242300Y9869200D01*
G37*
G36*
X3242300Y9876800D02*
G01*
X2571700Y9876800D01*
X2571700Y9884400D01*
X3242300Y9884400D01*
X3242300Y9876800D01*
G37*
G36*
X3242300Y11515100D02*
G01*
X2282200Y11515100D01*
X2282200Y11522700D01*
X3242300Y11522700D01*
X3242300Y11515100D01*
G37*
G36*
X3242300Y11522700D02*
G01*
X2282200Y11522700D01*
X2282200Y11530300D01*
X3242300Y11530300D01*
X3242300Y11522700D01*
G37*
G36*
X3234700Y9274800D02*
G01*
X2937500Y9274800D01*
X2937500Y9282400D01*
X3234700Y9282400D01*
X3234700Y9274800D01*
G37*
G36*
X3234700Y9282400D02*
G01*
X2937500Y9282400D01*
X2937500Y9290100D01*
X3234700Y9290100D01*
X3234700Y9282400D01*
G37*
G36*
X3234700Y9777700D02*
G01*
X2747000Y9777700D01*
X2747000Y9785400D01*
X3234700Y9785400D01*
X3234700Y9777700D01*
G37*
G36*
X3234700Y9785400D02*
G01*
X2739400Y9785400D01*
X2739400Y9793000D01*
X3234700Y9793000D01*
X3234700Y9785400D01*
G37*
G36*
X3234700Y9853900D02*
G01*
X2632700Y9853900D01*
X2632700Y9861600D01*
X3234700Y9861600D01*
X3234700Y9853900D01*
G37*
G36*
X3234700Y9861600D02*
G01*
X2617500Y9861600D01*
X2617500Y9869200D01*
X3234700Y9869200D01*
X3234700Y9861600D01*
G37*
G36*
X3234700Y11530300D02*
G01*
X2282200Y11530300D01*
X2282200Y11538000D01*
X3234700Y11538000D01*
X3234700Y11530300D01*
G37*
G36*
X3227100Y9290100D02*
G01*
X2937500Y9290100D01*
X2937500Y9297700D01*
X3227100Y9297700D01*
X3227100Y9290100D01*
G37*
G36*
X3227100Y9793000D02*
G01*
X2731800Y9793000D01*
X2731800Y9800600D01*
X3227100Y9800600D01*
X3227100Y9793000D01*
G37*
G36*
X3227100Y9800600D02*
G01*
X2724100Y9800600D01*
X2724100Y9808200D01*
X3227100Y9808200D01*
X3227100Y9800600D01*
G37*
G36*
X3227100Y9808200D02*
G01*
X2716500Y9808200D01*
X2716500Y9815800D01*
X3227100Y9815800D01*
X3227100Y9808200D01*
G37*
G36*
X3227100Y9815800D02*
G01*
X2701300Y9815800D01*
X2701300Y9823500D01*
X3227100Y9823500D01*
X3227100Y9815800D01*
G37*
G36*
X3227100Y9823500D02*
G01*
X2693700Y9823500D01*
X2693700Y9831100D01*
X3227100Y9831100D01*
X3227100Y9823500D01*
G37*
G36*
X3227100Y9831100D02*
G01*
X2678400Y9831100D01*
X2678400Y9838700D01*
X3227100Y9838700D01*
X3227100Y9831100D01*
G37*
G36*
X3227100Y9838700D02*
G01*
X2663200Y9838700D01*
X2663200Y9846300D01*
X3227100Y9846300D01*
X3227100Y9838700D01*
G37*
G36*
X3227100Y9846300D02*
G01*
X2647900Y9846300D01*
X2647900Y9853900D01*
X3227100Y9853900D01*
X3227100Y9846300D01*
G37*
G36*
X3227100Y11538000D02*
G01*
X2282200Y11538000D01*
X2282200Y11545600D01*
X3227100Y11545600D01*
X3227100Y11538000D01*
G37*
G36*
X3227100Y11545600D02*
G01*
X2289800Y11545600D01*
X2289800Y11553200D01*
X3227100Y11553200D01*
X3227100Y11545600D01*
G37*
G36*
X3219400Y9297700D02*
G01*
X2937500Y9297700D01*
X2937500Y9305300D01*
X3219400Y9305300D01*
X3219400Y9297700D01*
G37*
G36*
X3219400Y9305300D02*
G01*
X2937500Y9305300D01*
X2937500Y9312900D01*
X3219400Y9312900D01*
X3219400Y9305300D01*
G37*
G36*
X3219400Y11553200D02*
G01*
X2289800Y11553200D01*
X2289800Y11560800D01*
X3219400Y11560800D01*
X3219400Y11553200D01*
G37*
G36*
X3211800Y9312900D02*
G01*
X2945100Y9312900D01*
X2945100Y9320500D01*
X3211800Y9320500D01*
X3211800Y9312900D01*
G37*
G36*
X3211800Y9320500D02*
G01*
X2945100Y9320500D01*
X2945100Y9328200D01*
X3211800Y9328200D01*
X3211800Y9320500D01*
G37*
G36*
X3211800Y9518700D02*
G01*
X1070600Y9518700D01*
X1070600Y9526300D01*
X3211800Y9526300D01*
X3211800Y9518700D01*
G37*
G36*
X3211800Y11560800D02*
G01*
X2289800Y11560800D01*
X2289800Y11568400D01*
X3211800Y11568400D01*
X3211800Y11560800D01*
G37*
G36*
X3204200Y9328200D02*
G01*
X2945100Y9328200D01*
X2945100Y9335800D01*
X3204200Y9335800D01*
X3204200Y9328200D01*
G37*
G36*
X3204200Y9335800D02*
G01*
X2945100Y9335800D01*
X2945100Y9343400D01*
X3204200Y9343400D01*
X3204200Y9335800D01*
G37*
G36*
X3204200Y11568400D02*
G01*
X2297400Y11568400D01*
X2297400Y11576100D01*
X3204200Y11576100D01*
X3204200Y11568400D01*
G37*
G36*
X3204200Y11576100D02*
G01*
X2297400Y11576100D01*
X2297400Y11583700D01*
X3204200Y11583700D01*
X3204200Y11576100D01*
G37*
G36*
X3196600Y9343400D02*
G01*
X2945100Y9343400D01*
X2945100Y9351000D01*
X3196600Y9351000D01*
X3196600Y9343400D01*
G37*
G36*
X3196600Y9351000D02*
G01*
X2945100Y9351000D01*
X2945100Y9358600D01*
X3196600Y9358600D01*
X3196600Y9351000D01*
G37*
G36*
X3196600Y9511000D02*
G01*
X1085800Y9511000D01*
X1085800Y9518700D01*
X3196600Y9518700D01*
X3196600Y9511000D01*
G37*
G36*
X3196600Y11583700D02*
G01*
X2297400Y11583700D01*
X2297400Y11591300D01*
X3196600Y11591300D01*
X3196600Y11583700D01*
G37*
G36*
X3189000Y9358600D02*
G01*
X2945100Y9358600D01*
X2945100Y9366300D01*
X3189000Y9366300D01*
X3189000Y9358600D01*
G37*
G36*
X3189000Y9366300D02*
G01*
X2945100Y9366300D01*
X2945100Y9373900D01*
X3189000Y9373900D01*
X3189000Y9366300D01*
G37*
G36*
X3189000Y9503400D02*
G01*
X1093500Y9503400D01*
X1093500Y9511000D01*
X3189000Y9511000D01*
X3189000Y9503400D01*
G37*
G36*
X3189000Y11591300D02*
G01*
X2305000Y11591300D01*
X2305000Y11598900D01*
X3189000Y11598900D01*
X3189000Y11591300D01*
G37*
G36*
X3189000Y11598900D02*
G01*
X2305000Y11598900D01*
X2305000Y11606500D01*
X3189000Y11606500D01*
X3189000Y11598900D01*
G37*
G36*
X3181300Y9373900D02*
G01*
X2945100Y9373900D01*
X2945100Y9381500D01*
X3181300Y9381500D01*
X3181300Y9373900D01*
G37*
G36*
X3181300Y9381500D02*
G01*
X2945100Y9381500D01*
X2945100Y9389100D01*
X3181300Y9389100D01*
X3181300Y9381500D01*
G37*
G36*
X3181300Y9495800D02*
G01*
X1108700Y9495800D01*
X1108700Y9503400D01*
X3181300Y9503400D01*
X3181300Y9495800D01*
G37*
G36*
X3181300Y11606500D02*
G01*
X2305000Y11606500D01*
X2305000Y11614200D01*
X3181300Y11614200D01*
X3181300Y11606500D01*
G37*
G36*
X3173700Y9389100D02*
G01*
X2945100Y9389100D01*
X2945100Y9396700D01*
X3173700Y9396700D01*
X3173700Y9389100D01*
G37*
G36*
X3173700Y9396700D02*
G01*
X2937500Y9396700D01*
X2937500Y9404400D01*
X3173700Y9404400D01*
X3173700Y9396700D01*
G37*
G36*
X3173700Y9404400D02*
G01*
X2937500Y9404400D01*
X2937500Y9412000D01*
X3173700Y9412000D01*
X3173700Y9404400D01*
G37*
G36*
X3173700Y9412000D02*
G01*
X2937500Y9412000D01*
X2937500Y9419600D01*
X3173700Y9419600D01*
X3173700Y9412000D01*
G37*
G36*
X3173700Y9480600D02*
G01*
X1123900Y9480600D01*
X1123900Y9488200D01*
X3173700Y9488200D01*
X3173700Y9480600D01*
G37*
G36*
X3173700Y9488200D02*
G01*
X1116300Y9488200D01*
X1116300Y9495800D01*
X3173700Y9495800D01*
X3173700Y9488200D01*
G37*
G36*
X3173700Y11614200D02*
G01*
X2312700Y11614200D01*
X2312700Y11621800D01*
X3173700Y11621800D01*
X3173700Y11614200D01*
G37*
G36*
X3166100Y9419600D02*
G01*
X2937500Y9419600D01*
X2937500Y9427200D01*
X3166100Y9427200D01*
X3166100Y9419600D01*
G37*
G36*
X3166100Y9427200D02*
G01*
X2929900Y9427200D01*
X2929900Y9434800D01*
X3166100Y9434800D01*
X3166100Y9427200D01*
G37*
G36*
X3166100Y9434800D02*
G01*
X2929900Y9434800D01*
X2929900Y9442500D01*
X3166100Y9442500D01*
X3166100Y9434800D01*
G37*
G36*
X3166100Y9442500D02*
G01*
X2922300Y9442500D01*
X2922300Y9450100D01*
X3166100Y9450100D01*
X3166100Y9442500D01*
G37*
G36*
X3166100Y9450100D02*
G01*
X2914600Y9450100D01*
X2914600Y9457700D01*
X3166100Y9457700D01*
X3166100Y9450100D01*
G37*
G36*
X3166100Y9457700D02*
G01*
X2899400Y9457700D01*
X2899400Y9465300D01*
X3166100Y9465300D01*
X3166100Y9457700D01*
G37*
G36*
X3166100Y9465300D02*
G01*
X1146800Y9465300D01*
X1146800Y9472900D01*
X3166100Y9472900D01*
X3166100Y9465300D01*
G37*
G36*
X3166100Y9472900D02*
G01*
X1139200Y9472900D01*
X1139200Y9480600D01*
X3166100Y9480600D01*
X3166100Y9472900D01*
G37*
G36*
X3166100Y11621800D02*
G01*
X2312700Y11621800D01*
X2312700Y11629400D01*
X3166100Y11629400D01*
X3166100Y11621800D01*
G37*
G36*
X3166100Y11629400D02*
G01*
X2312700Y11629400D01*
X2312700Y11637000D01*
X3166100Y11637000D01*
X3166100Y11629400D01*
G37*
G36*
X3158500Y8528100D02*
G01*
X1748800Y8528100D01*
X1748800Y8535700D01*
X3158500Y8535700D01*
X3158500Y8528100D01*
G37*
G36*
X3158500Y8535700D02*
G01*
X1748800Y8535700D01*
X1748800Y8543300D01*
X3158500Y8543300D01*
X3158500Y8535700D01*
G37*
G36*
X3158500Y8543300D02*
G01*
X1748800Y8543300D01*
X1748800Y8550900D01*
X3158500Y8550900D01*
X3158500Y8543300D01*
G37*
G36*
X3158500Y8550900D02*
G01*
X1748800Y8550900D01*
X1748800Y8558500D01*
X3158500Y8558500D01*
X3158500Y8550900D01*
G37*
G36*
X3158500Y8558500D02*
G01*
X1748800Y8558500D01*
X1748800Y8566200D01*
X3158500Y8566200D01*
X3158500Y8558500D01*
G37*
G36*
X3158500Y8566200D02*
G01*
X1748800Y8566200D01*
X1748800Y8573800D01*
X3158500Y8573800D01*
X3158500Y8566200D01*
G37*
G36*
X3158500Y8573800D02*
G01*
X1748800Y8573800D01*
X1748800Y8581400D01*
X3158500Y8581400D01*
X3158500Y8573800D01*
G37*
G36*
X3158500Y8581400D02*
G01*
X1756400Y8581400D01*
X1756400Y8589000D01*
X3158500Y8589000D01*
X3158500Y8581400D01*
G37*
G36*
X3158500Y8589000D02*
G01*
X1756400Y8589000D01*
X1756400Y8596600D01*
X3158500Y8596600D01*
X3158500Y8589000D01*
G37*
G36*
X3158500Y8596600D02*
G01*
X1756400Y8596600D01*
X1756400Y8604300D01*
X3158500Y8604300D01*
X3158500Y8596600D01*
G37*
G36*
X3158500Y8604300D02*
G01*
X1756400Y8604300D01*
X1756400Y8611900D01*
X3158500Y8611900D01*
X3158500Y8604300D01*
G37*
G36*
X3158500Y8611900D02*
G01*
X1756400Y8611900D01*
X1756400Y8619500D01*
X3158500Y8619500D01*
X3158500Y8611900D01*
G37*
G36*
X3158500Y8619500D02*
G01*
X1756400Y8619500D01*
X1756400Y8627100D01*
X3158500Y8627100D01*
X3158500Y8619500D01*
G37*
G36*
X3158500Y8627100D02*
G01*
X1756400Y8627100D01*
X1756400Y8634700D01*
X3158500Y8634700D01*
X3158500Y8627100D01*
G37*
G36*
X3158500Y8634700D02*
G01*
X1764000Y8634700D01*
X1764000Y8642400D01*
X3158500Y8642400D01*
X3158500Y8634700D01*
G37*
G36*
X3158500Y8642400D02*
G01*
X1764000Y8642400D01*
X1764000Y8650000D01*
X3158500Y8650000D01*
X3158500Y8642400D01*
G37*
G36*
X3158500Y8650000D02*
G01*
X1764000Y8650000D01*
X1764000Y8657600D01*
X3158500Y8657600D01*
X3158500Y8650000D01*
G37*
G36*
X3158500Y8657600D02*
G01*
X1764000Y8657600D01*
X1764000Y8665200D01*
X3158500Y8665200D01*
X3158500Y8657600D01*
G37*
G36*
X3158500Y8665200D02*
G01*
X1764000Y8665200D01*
X1764000Y8672800D01*
X3158500Y8672800D01*
X3158500Y8665200D01*
G37*
G36*
X3158500Y8672800D02*
G01*
X1771600Y8672800D01*
X1771600Y8680500D01*
X3158500Y8680500D01*
X3158500Y8672800D01*
G37*
G36*
X3158500Y8680500D02*
G01*
X1771600Y8680500D01*
X1771600Y8688100D01*
X3158500Y8688100D01*
X3158500Y8680500D01*
G37*
G36*
X3158500Y8688100D02*
G01*
X1771600Y8688100D01*
X1771600Y8695700D01*
X3158500Y8695700D01*
X3158500Y8688100D01*
G37*
G36*
X3158500Y8695700D02*
G01*
X1771600Y8695700D01*
X1771600Y8703300D01*
X3158500Y8703300D01*
X3158500Y8695700D01*
G37*
G36*
X3158500Y8703300D02*
G01*
X1779300Y8703300D01*
X1779300Y8710900D01*
X3158500Y8710900D01*
X3158500Y8703300D01*
G37*
G36*
X3158500Y8710900D02*
G01*
X1779300Y8710900D01*
X1779300Y8718600D01*
X3158500Y8718600D01*
X3158500Y8710900D01*
G37*
G36*
X3158500Y8718600D02*
G01*
X1779300Y8718600D01*
X1779300Y8726200D01*
X3158500Y8726200D01*
X3158500Y8718600D01*
G37*
G36*
X3158500Y8726200D02*
G01*
X1779300Y8726200D01*
X1779300Y8733800D01*
X3158500Y8733800D01*
X3158500Y8726200D01*
G37*
G36*
X3158500Y8733800D02*
G01*
X1786900Y8733800D01*
X1786900Y8741400D01*
X3158500Y8741400D01*
X3158500Y8733800D01*
G37*
G36*
X3158500Y8741400D02*
G01*
X1786900Y8741400D01*
X1786900Y8749000D01*
X3158500Y8749000D01*
X3158500Y8741400D01*
G37*
G36*
X3158500Y11637000D02*
G01*
X2320300Y11637000D01*
X2320300Y11644600D01*
X3158500Y11644600D01*
X3158500Y11637000D01*
G37*
G36*
X3150900Y8482300D02*
G01*
X1741200Y8482300D01*
X1741200Y8490000D01*
X3150900Y8490000D01*
X3150900Y8482300D01*
G37*
G36*
X3150900Y8490000D02*
G01*
X1748800Y8490000D01*
X1748800Y8497600D01*
X3150900Y8497600D01*
X3150900Y8490000D01*
G37*
G36*
X3150900Y8497600D02*
G01*
X1748800Y8497600D01*
X1748800Y8505200D01*
X3150900Y8505200D01*
X3150900Y8497600D01*
G37*
G36*
X3150900Y8505200D02*
G01*
X1748800Y8505200D01*
X1748800Y8512800D01*
X3150900Y8512800D01*
X3150900Y8505200D01*
G37*
G36*
X3150900Y8512800D02*
G01*
X1748800Y8512800D01*
X1748800Y8520400D01*
X3150900Y8520400D01*
X3150900Y8512800D01*
G37*
G36*
X3150900Y8520400D02*
G01*
X1748800Y8520400D01*
X1748800Y8528100D01*
X3150900Y8528100D01*
X3150900Y8520400D01*
G37*
G36*
X3150900Y11644600D02*
G01*
X2320300Y11644600D01*
X2320300Y11652300D01*
X3150900Y11652300D01*
X3150900Y11644600D01*
G37*
G36*
X3150900Y11652300D02*
G01*
X2320300Y11652300D01*
X2320300Y11659900D01*
X3150900Y11659900D01*
X3150900Y11652300D01*
G37*
G36*
X3143200Y8451900D02*
G01*
X1741200Y8451900D01*
X1741200Y8459500D01*
X3143200Y8459500D01*
X3143200Y8451900D01*
G37*
G36*
X3143200Y8459500D02*
G01*
X1741200Y8459500D01*
X1741200Y8467100D01*
X3143200Y8467100D01*
X3143200Y8459500D01*
G37*
G36*
X3143200Y8467100D02*
G01*
X1741200Y8467100D01*
X1741200Y8474700D01*
X3143200Y8474700D01*
X3143200Y8467100D01*
G37*
G36*
X3143200Y8474700D02*
G01*
X1741200Y8474700D01*
X1741200Y8482300D01*
X3143200Y8482300D01*
X3143200Y8474700D01*
G37*
G36*
X3143200Y11659900D02*
G01*
X2327900Y11659900D01*
X2327900Y11667500D01*
X3143200Y11667500D01*
X3143200Y11659900D01*
G37*
G36*
X3135600Y8429000D02*
G01*
X1741200Y8429000D01*
X1741200Y8436600D01*
X3135600Y8436600D01*
X3135600Y8429000D01*
G37*
G36*
X3135600Y8436600D02*
G01*
X1741200Y8436600D01*
X1741200Y8444200D01*
X3135600Y8444200D01*
X3135600Y8436600D01*
G37*
G36*
X3135600Y8444200D02*
G01*
X1741200Y8444200D01*
X1741200Y8451900D01*
X3135600Y8451900D01*
X3135600Y8444200D01*
G37*
G36*
X3135600Y11667500D02*
G01*
X2327900Y11667500D01*
X2327900Y11675100D01*
X3135600Y11675100D01*
X3135600Y11667500D01*
G37*
G36*
X3128000Y8398500D02*
G01*
X1741200Y8398500D01*
X1741200Y8406100D01*
X3128000Y8406100D01*
X3128000Y8398500D01*
G37*
G36*
X3128000Y8406100D02*
G01*
X1741200Y8406100D01*
X1741200Y8413800D01*
X3128000Y8413800D01*
X3128000Y8406100D01*
G37*
G36*
X3128000Y8413800D02*
G01*
X1741200Y8413800D01*
X1741200Y8421400D01*
X3128000Y8421400D01*
X3128000Y8413800D01*
G37*
G36*
X3128000Y8421400D02*
G01*
X1741200Y8421400D01*
X1741200Y8429000D01*
X3128000Y8429000D01*
X3128000Y8421400D01*
G37*
G36*
X3128000Y11675100D02*
G01*
X2327900Y11675100D01*
X2327900Y11682700D01*
X3128000Y11682700D01*
X3128000Y11675100D01*
G37*
G36*
X3128000Y11682700D02*
G01*
X2335500Y11682700D01*
X2335500Y11690400D01*
X3128000Y11690400D01*
X3128000Y11682700D01*
G37*
G36*
X3120400Y8383300D02*
G01*
X1741200Y8383300D01*
X1741200Y8390900D01*
X3120400Y8390900D01*
X3120400Y8383300D01*
G37*
G36*
X3120400Y8390900D02*
G01*
X1741200Y8390900D01*
X1741200Y8398500D01*
X3120400Y8398500D01*
X3120400Y8390900D01*
G37*
G36*
X3120400Y11690400D02*
G01*
X2335500Y11690400D01*
X2335500Y11698000D01*
X3120400Y11698000D01*
X3120400Y11690400D01*
G37*
G36*
X3112800Y8360400D02*
G01*
X1741200Y8360400D01*
X1741200Y8368000D01*
X3112800Y8368000D01*
X3112800Y8360400D01*
G37*
G36*
X3112800Y8368000D02*
G01*
X1741200Y8368000D01*
X1741200Y8375700D01*
X3112800Y8375700D01*
X3112800Y8368000D01*
G37*
G36*
X3112800Y8375700D02*
G01*
X1741200Y8375700D01*
X1741200Y8383300D01*
X3112800Y8383300D01*
X3112800Y8375700D01*
G37*
G36*
X3112800Y11698000D02*
G01*
X2335500Y11698000D01*
X2335500Y11705600D01*
X3112800Y11705600D01*
X3112800Y11698000D01*
G37*
G36*
X3105100Y8345200D02*
G01*
X1741200Y8345200D01*
X1741200Y8352800D01*
X3105100Y8352800D01*
X3105100Y8345200D01*
G37*
G36*
X3105100Y8352800D02*
G01*
X1741200Y8352800D01*
X1741200Y8360400D01*
X3105100Y8360400D01*
X3105100Y8352800D01*
G37*
G36*
X3105100Y11705600D02*
G01*
X2343100Y11705600D01*
X2343100Y11713200D01*
X3105100Y11713200D01*
X3105100Y11705600D01*
G37*
G36*
X3105100Y11713200D02*
G01*
X2343100Y11713200D01*
X2343100Y11720800D01*
X3105100Y11720800D01*
X3105100Y11713200D01*
G37*
G36*
X3097500Y8322300D02*
G01*
X1741200Y8322300D01*
X1741200Y8329900D01*
X3097500Y8329900D01*
X3097500Y8322300D01*
G37*
G36*
X3097500Y8329900D02*
G01*
X1741200Y8329900D01*
X1741200Y8337600D01*
X3097500Y8337600D01*
X3097500Y8329900D01*
G37*
G36*
X3097500Y8337600D02*
G01*
X1741200Y8337600D01*
X1741200Y8345200D01*
X3097500Y8345200D01*
X3097500Y8337600D01*
G37*
G36*
X3097500Y11720800D02*
G01*
X2343100Y11720800D01*
X2343100Y11728500D01*
X3097500Y11728500D01*
X3097500Y11720800D01*
G37*
G36*
X3089900Y8307100D02*
G01*
X1741200Y8307100D01*
X1741200Y8314700D01*
X3089900Y8314700D01*
X3089900Y8307100D01*
G37*
G36*
X3089900Y8314700D02*
G01*
X1741200Y8314700D01*
X1741200Y8322300D01*
X3089900Y8322300D01*
X3089900Y8314700D01*
G37*
G36*
X3089900Y11728500D02*
G01*
X2343100Y11728500D01*
X2343100Y11736100D01*
X3089900Y11736100D01*
X3089900Y11728500D01*
G37*
G36*
X3089900Y11736100D02*
G01*
X2350800Y11736100D01*
X2350800Y11743700D01*
X3089900Y11743700D01*
X3089900Y11736100D01*
G37*
G36*
X3082300Y8291800D02*
G01*
X1741200Y8291800D01*
X1741200Y8299500D01*
X3082300Y8299500D01*
X3082300Y8291800D01*
G37*
G36*
X3082300Y8299500D02*
G01*
X1741200Y8299500D01*
X1741200Y8307100D01*
X3082300Y8307100D01*
X3082300Y8299500D01*
G37*
G36*
X3082300Y11743700D02*
G01*
X2350800Y11743700D01*
X2350800Y11751300D01*
X3082300Y11751300D01*
X3082300Y11743700D01*
G37*
G36*
X3074700Y8276600D02*
G01*
X1741200Y8276600D01*
X1741200Y8284200D01*
X3074700Y8284200D01*
X3074700Y8276600D01*
G37*
G36*
X3074700Y8284200D02*
G01*
X1741200Y8284200D01*
X1741200Y8291800D01*
X3074700Y8291800D01*
X3074700Y8284200D01*
G37*
G36*
X3074700Y11751300D02*
G01*
X2350800Y11751300D01*
X2350800Y11758900D01*
X3074700Y11758900D01*
X3074700Y11751300D01*
G37*
G36*
X3067000Y8261400D02*
G01*
X1741200Y8261400D01*
X1741200Y8269000D01*
X3067000Y8269000D01*
X3067000Y8261400D01*
G37*
G36*
X3067000Y8269000D02*
G01*
X1741200Y8269000D01*
X1741200Y8276600D01*
X3067000Y8276600D01*
X3067000Y8269000D01*
G37*
G36*
X3067000Y11758900D02*
G01*
X2358400Y11758900D01*
X2358400Y11766600D01*
X3067000Y11766600D01*
X3067000Y11758900D01*
G37*
G36*
X3067000Y11766600D02*
G01*
X2358400Y11766600D01*
X2358400Y11774200D01*
X3067000Y11774200D01*
X3067000Y11766600D01*
G37*
G36*
X3059400Y8253700D02*
G01*
X1741200Y8253700D01*
X1741200Y8261400D01*
X3059400Y8261400D01*
X3059400Y8253700D01*
G37*
G36*
X3059400Y11774200D02*
G01*
X2358400Y11774200D01*
X2358400Y11781800D01*
X3059400Y11781800D01*
X3059400Y11774200D01*
G37*
G36*
X3051800Y8238500D02*
G01*
X1741200Y8238500D01*
X1741200Y8246100D01*
X3051800Y8246100D01*
X3051800Y8238500D01*
G37*
G36*
X3051800Y8246100D02*
G01*
X1741200Y8246100D01*
X1741200Y8253700D01*
X3051800Y8253700D01*
X3051800Y8246100D01*
G37*
G36*
X3051800Y11781800D02*
G01*
X2366000Y11781800D01*
X2366000Y11789400D01*
X3051800Y11789400D01*
X3051800Y11781800D01*
G37*
G36*
X3051800Y11789400D02*
G01*
X2366000Y11789400D01*
X2366000Y11797000D01*
X3051800Y11797000D01*
X3051800Y11789400D01*
G37*
G36*
X3044200Y8223300D02*
G01*
X1741200Y8223300D01*
X1741200Y8230900D01*
X3044200Y8230900D01*
X3044200Y8223300D01*
G37*
G36*
X3044200Y8230900D02*
G01*
X1741200Y8230900D01*
X1741200Y8238500D01*
X3044200Y8238500D01*
X3044200Y8230900D01*
G37*
G36*
X3044200Y11797000D02*
G01*
X2366000Y11797000D01*
X2366000Y11804700D01*
X3044200Y11804700D01*
X3044200Y11797000D01*
G37*
G36*
X3036600Y8215600D02*
G01*
X1741200Y8215600D01*
X1741200Y8223300D01*
X3036600Y8223300D01*
X3036600Y8215600D01*
G37*
G36*
X3036600Y11804700D02*
G01*
X2373600Y11804700D01*
X2373600Y11812300D01*
X3036600Y11812300D01*
X3036600Y11804700D01*
G37*
G36*
X3028900Y8200400D02*
G01*
X1741200Y8200400D01*
X1741200Y8208000D01*
X3028900Y8208000D01*
X3028900Y8200400D01*
G37*
G36*
X3028900Y8208000D02*
G01*
X1741200Y8208000D01*
X1741200Y8215600D01*
X3028900Y8215600D01*
X3028900Y8208000D01*
G37*
G36*
X3028900Y11812300D02*
G01*
X2373600Y11812300D01*
X2373600Y11819900D01*
X3028900Y11819900D01*
X3028900Y11812300D01*
G37*
G36*
X3028900Y11819900D02*
G01*
X2373600Y11819900D01*
X2373600Y11827500D01*
X3028900Y11827500D01*
X3028900Y11819900D01*
G37*
G36*
X3021300Y8192800D02*
G01*
X1741200Y8192800D01*
X1741200Y8200400D01*
X3021300Y8200400D01*
X3021300Y8192800D01*
G37*
G36*
X3021300Y11827500D02*
G01*
X2381200Y11827500D01*
X2381200Y11835100D01*
X3021300Y11835100D01*
X3021300Y11827500D01*
G37*
G36*
X3013700Y8185200D02*
G01*
X1741200Y8185200D01*
X1741200Y8192800D01*
X3013700Y8192800D01*
X3013700Y8185200D01*
G37*
G36*
X3013700Y11835100D02*
G01*
X2381200Y11835100D01*
X2381200Y11842800D01*
X3013700Y11842800D01*
X3013700Y11835100D01*
G37*
G36*
X3013700Y11842800D02*
G01*
X2381200Y11842800D01*
X2381200Y11850400D01*
X3013700Y11850400D01*
X3013700Y11842800D01*
G37*
G36*
X3006100Y8169900D02*
G01*
X1741200Y8169900D01*
X1741200Y8177500D01*
X3006100Y8177500D01*
X3006100Y8169900D01*
G37*
G36*
X3006100Y8177500D02*
G01*
X1741200Y8177500D01*
X1741200Y8185200D01*
X3006100Y8185200D01*
X3006100Y8177500D01*
G37*
G36*
X3006100Y11850400D02*
G01*
X2388900Y11850400D01*
X2388900Y11858000D01*
X3006100Y11858000D01*
X3006100Y11850400D01*
G37*
G36*
X2998500Y8162300D02*
G01*
X1741200Y8162300D01*
X1741200Y8169900D01*
X2998500Y8169900D01*
X2998500Y8162300D01*
G37*
G36*
X2998500Y11858000D02*
G01*
X2388900Y11858000D01*
X2388900Y11865600D01*
X2998500Y11865600D01*
X2998500Y11858000D01*
G37*
G36*
X2990800Y8154700D02*
G01*
X1741200Y8154700D01*
X1741200Y8162300D01*
X2990800Y8162300D01*
X2990800Y8154700D01*
G37*
G36*
X2990800Y11865600D02*
G01*
X2388900Y11865600D01*
X2388900Y11873200D01*
X2990800Y11873200D01*
X2990800Y11865600D01*
G37*
G36*
X2990800Y11873200D02*
G01*
X2396500Y11873200D01*
X2396500Y11880900D01*
X2990800Y11880900D01*
X2990800Y11873200D01*
G37*
G36*
X2983200Y8139400D02*
G01*
X1741200Y8139400D01*
X1741200Y8147100D01*
X2983200Y8147100D01*
X2983200Y8139400D01*
G37*
G36*
X2983200Y8147100D02*
G01*
X1741200Y8147100D01*
X1741200Y8154700D01*
X2983200Y8154700D01*
X2983200Y8147100D01*
G37*
G36*
X2983200Y11880900D02*
G01*
X2396500Y11880900D01*
X2396500Y11888500D01*
X2983200Y11888500D01*
X2983200Y11880900D01*
G37*
G36*
X2975600Y8131800D02*
G01*
X1741200Y8131800D01*
X1741200Y8139400D01*
X2975600Y8139400D01*
X2975600Y8131800D01*
G37*
G36*
X2975600Y11888500D02*
G01*
X2396500Y11888500D01*
X2396500Y11896100D01*
X2975600Y11896100D01*
X2975600Y11888500D01*
G37*
G36*
X2975600Y11896100D02*
G01*
X2404100Y11896100D01*
X2404100Y11903700D01*
X2975600Y11903700D01*
X2975600Y11896100D01*
G37*
G36*
X2968000Y8124200D02*
G01*
X1741200Y8124200D01*
X1741200Y8131800D01*
X2968000Y8131800D01*
X2968000Y8124200D01*
G37*
G36*
X2968000Y11903700D02*
G01*
X2404100Y11903700D01*
X2404100Y11911300D01*
X2968000Y11911300D01*
X2968000Y11903700D01*
G37*
G36*
X2960400Y8116600D02*
G01*
X1741200Y8116600D01*
X1741200Y8124200D01*
X2960400Y8124200D01*
X2960400Y8116600D01*
G37*
G36*
X2960400Y11911300D02*
G01*
X2404100Y11911300D01*
X2404100Y11919000D01*
X2960400Y11919000D01*
X2960400Y11911300D01*
G37*
G36*
X2952700Y8101300D02*
G01*
X1741200Y8101300D01*
X1741200Y8109000D01*
X2952700Y8109000D01*
X2952700Y8101300D01*
G37*
G36*
X2952700Y8109000D02*
G01*
X1741200Y8109000D01*
X1741200Y8116600D01*
X2952700Y8116600D01*
X2952700Y8109000D01*
G37*
G36*
X2952700Y11919000D02*
G01*
X2411700Y11919000D01*
X2411700Y11926600D01*
X2952700Y11926600D01*
X2952700Y11919000D01*
G37*
G36*
X2952700Y11926600D02*
G01*
X2411700Y11926600D01*
X2411700Y11934200D01*
X2952700Y11934200D01*
X2952700Y11926600D01*
G37*
G36*
X2945100Y8093700D02*
G01*
X1741200Y8093700D01*
X1741200Y8101300D01*
X2945100Y8101300D01*
X2945100Y8093700D01*
G37*
G36*
X2945100Y11934200D02*
G01*
X2411700Y11934200D01*
X2411700Y11941800D01*
X2945100Y11941800D01*
X2945100Y11934200D01*
G37*
G36*
X2937500Y8086100D02*
G01*
X1741200Y8086100D01*
X1741200Y8093700D01*
X2937500Y8093700D01*
X2937500Y8086100D01*
G37*
G36*
X2937500Y9922500D02*
G01*
X522000Y9922500D01*
X522000Y9930100D01*
X2937500Y9930100D01*
X2937500Y9922500D01*
G37*
G36*
X2937500Y11941800D02*
G01*
X2411700Y11941800D01*
X2411700Y11949400D01*
X2937500Y11949400D01*
X2937500Y11941800D01*
G37*
G36*
X2937500Y11949400D02*
G01*
X2419300Y11949400D01*
X2419300Y11957100D01*
X2937500Y11957100D01*
X2937500Y11949400D01*
G37*
G36*
X2929900Y8078500D02*
G01*
X1741200Y8078500D01*
X1741200Y8086100D01*
X2929900Y8086100D01*
X2929900Y8078500D01*
G37*
G36*
X2929900Y11957100D02*
G01*
X2419300Y11957100D01*
X2419300Y11964700D01*
X2929900Y11964700D01*
X2929900Y11957100D01*
G37*
G36*
X2922300Y8070900D02*
G01*
X1741200Y8070900D01*
X1741200Y8078500D01*
X2922300Y8078500D01*
X2922300Y8070900D01*
G37*
G36*
X2922300Y9930100D02*
G01*
X514300Y9930100D01*
X514300Y9937800D01*
X2922300Y9937800D01*
X2922300Y9930100D01*
G37*
G36*
X2922300Y11964700D02*
G01*
X2419300Y11964700D01*
X2419300Y11972300D01*
X2922300Y11972300D01*
X2922300Y11964700D01*
G37*
G36*
X2914600Y8063200D02*
G01*
X1741200Y8063200D01*
X1741200Y8070900D01*
X2914600Y8070900D01*
X2914600Y8063200D01*
G37*
G36*
X2914600Y9937800D02*
G01*
X506700Y9937800D01*
X506700Y9945400D01*
X2914600Y9945400D01*
X2914600Y9937800D01*
G37*
G36*
X2914600Y11972300D02*
G01*
X2427000Y11972300D01*
X2427000Y11979900D01*
X2914600Y11979900D01*
X2914600Y11972300D01*
G37*
G36*
X2914600Y11979900D02*
G01*
X2427000Y11979900D01*
X2427000Y11987500D01*
X2914600Y11987500D01*
X2914600Y11979900D01*
G37*
G36*
X2907000Y8055600D02*
G01*
X1741200Y8055600D01*
X1741200Y8063200D01*
X2907000Y8063200D01*
X2907000Y8055600D01*
G37*
G36*
X2907000Y9945400D02*
G01*
X499100Y9945400D01*
X499100Y9953000D01*
X2907000Y9953000D01*
X2907000Y9945400D01*
G37*
G36*
X2907000Y11987500D02*
G01*
X2427000Y11987500D01*
X2427000Y11995200D01*
X2907000Y11995200D01*
X2907000Y11987500D01*
G37*
G36*
X2899400Y8048000D02*
G01*
X1741200Y8048000D01*
X1741200Y8055600D01*
X2899400Y8055600D01*
X2899400Y8048000D01*
G37*
G36*
X2899400Y9953000D02*
G01*
X491500Y9953000D01*
X491500Y9960600D01*
X2899400Y9960600D01*
X2899400Y9953000D01*
G37*
G36*
X2899400Y11995200D02*
G01*
X2434600Y11995200D01*
X2434600Y12002800D01*
X2899400Y12002800D01*
X2899400Y11995200D01*
G37*
G36*
X2891800Y8040400D02*
G01*
X1741200Y8040400D01*
X1741200Y8048000D01*
X2891800Y8048000D01*
X2891800Y8040400D01*
G37*
G36*
X2891800Y9960600D02*
G01*
X491500Y9960600D01*
X491500Y9968200D01*
X2891800Y9968200D01*
X2891800Y9960600D01*
G37*
G36*
X2891800Y12002800D02*
G01*
X2434600Y12002800D01*
X2434600Y12010400D01*
X2891800Y12010400D01*
X2891800Y12002800D01*
G37*
G36*
X2891800Y12010400D02*
G01*
X2434600Y12010400D01*
X2434600Y12018000D01*
X2891800Y12018000D01*
X2891800Y12010400D01*
G37*
G36*
X2884200Y8032800D02*
G01*
X1741200Y8032800D01*
X1741200Y8040400D01*
X2884200Y8040400D01*
X2884200Y8032800D01*
G37*
G36*
X2884200Y9968200D02*
G01*
X483900Y9968200D01*
X483900Y9975900D01*
X2884200Y9975900D01*
X2884200Y9968200D01*
G37*
G36*
X2884200Y12018000D02*
G01*
X2442200Y12018000D01*
X2442200Y12025600D01*
X2884200Y12025600D01*
X2884200Y12018000D01*
G37*
G36*
X2876500Y8025100D02*
G01*
X1741200Y8025100D01*
X1741200Y8032800D01*
X2876500Y8032800D01*
X2876500Y8025100D01*
G37*
G36*
X2876500Y9975900D02*
G01*
X476200Y9975900D01*
X476200Y9983500D01*
X2876500Y9983500D01*
X2876500Y9975900D01*
G37*
G36*
X2876500Y9983500D02*
G01*
X476200Y9983500D01*
X476200Y9991100D01*
X2876500Y9991100D01*
X2876500Y9983500D01*
G37*
G36*
X2876500Y12025600D02*
G01*
X2442200Y12025600D01*
X2442200Y12033300D01*
X2876500Y12033300D01*
X2876500Y12025600D01*
G37*
G36*
X2876500Y12033300D02*
G01*
X2442200Y12033300D01*
X2442200Y12040900D01*
X2876500Y12040900D01*
X2876500Y12033300D01*
G37*
G36*
X2868900Y8017500D02*
G01*
X1741200Y8017500D01*
X1741200Y8025100D01*
X2868900Y8025100D01*
X2868900Y8017500D01*
G37*
G36*
X2868900Y9991100D02*
G01*
X476200Y9991100D01*
X476200Y9998700D01*
X2868900Y9998700D01*
X2868900Y9991100D01*
G37*
G36*
X2868900Y12040900D02*
G01*
X2449800Y12040900D01*
X2449800Y12048500D01*
X2868900Y12048500D01*
X2868900Y12040900D01*
G37*
G36*
X2861300Y8009900D02*
G01*
X1741200Y8009900D01*
X1741200Y8017500D01*
X2861300Y8017500D01*
X2861300Y8009900D01*
G37*
G36*
X2861300Y9998700D02*
G01*
X468600Y9998700D01*
X468600Y10006300D01*
X2861300Y10006300D01*
X2861300Y9998700D01*
G37*
G36*
X2861300Y10006300D02*
G01*
X468600Y10006300D01*
X468600Y10014000D01*
X2861300Y10014000D01*
X2861300Y10006300D01*
G37*
G36*
X2861300Y12048500D02*
G01*
X2449800Y12048500D01*
X2449800Y12056100D01*
X2861300Y12056100D01*
X2861300Y12048500D01*
G37*
G36*
X2853700Y8002300D02*
G01*
X1741200Y8002300D01*
X1741200Y8009900D01*
X2853700Y8009900D01*
X2853700Y8002300D01*
G37*
G36*
X2853700Y10014000D02*
G01*
X468600Y10014000D01*
X468600Y10021600D01*
X2853700Y10021600D01*
X2853700Y10014000D01*
G37*
G36*
X2853700Y10021600D02*
G01*
X468600Y10021600D01*
X468600Y10029200D01*
X2853700Y10029200D01*
X2853700Y10021600D01*
G37*
G36*
X2853700Y12056100D02*
G01*
X2449800Y12056100D01*
X2449800Y12063700D01*
X2853700Y12063700D01*
X2853700Y12056100D01*
G37*
G36*
X2853700Y12063700D02*
G01*
X2457400Y12063700D01*
X2457400Y12071400D01*
X2853700Y12071400D01*
X2853700Y12063700D01*
G37*
G36*
X2846100Y7994700D02*
G01*
X1741200Y7994700D01*
X1741200Y8002300D01*
X2846100Y8002300D01*
X2846100Y7994700D01*
G37*
G36*
X2846100Y10029200D02*
G01*
X461000Y10029200D01*
X461000Y10036800D01*
X2846100Y10036800D01*
X2846100Y10029200D01*
G37*
G36*
X2846100Y10036800D02*
G01*
X461000Y10036800D01*
X461000Y10044400D01*
X2846100Y10044400D01*
X2846100Y10036800D01*
G37*
G36*
X2846100Y10585500D02*
G01*
X2190700Y10585500D01*
X2190700Y10593100D01*
X2846100Y10593100D01*
X2846100Y10585500D01*
G37*
G36*
X2846100Y12071400D02*
G01*
X2457400Y12071400D01*
X2457400Y12079000D01*
X2846100Y12079000D01*
X2846100Y12071400D01*
G37*
G36*
X2838400Y7987000D02*
G01*
X1741200Y7987000D01*
X1741200Y7994700D01*
X2838400Y7994700D01*
X2838400Y7987000D01*
G37*
G36*
X2838400Y9457700D02*
G01*
X1154400Y9457700D01*
X1154400Y9465300D01*
X2838400Y9465300D01*
X2838400Y9457700D01*
G37*
G36*
X2838400Y10044400D02*
G01*
X461000Y10044400D01*
X461000Y10052100D01*
X2838400Y10052100D01*
X2838400Y10044400D01*
G37*
G36*
X2838400Y10052100D02*
G01*
X461000Y10052100D01*
X461000Y10059700D01*
X2838400Y10059700D01*
X2838400Y10052100D01*
G37*
G36*
X2838400Y10577800D02*
G01*
X2198400Y10577800D01*
X2198400Y10585500D01*
X2838400Y10585500D01*
X2838400Y10577800D01*
G37*
G36*
X2838400Y12079000D02*
G01*
X2457400Y12079000D01*
X2457400Y12086600D01*
X2838400Y12086600D01*
X2838400Y12079000D01*
G37*
G36*
X2838400Y12086600D02*
G01*
X2465100Y12086600D01*
X2465100Y12094200D01*
X2838400Y12094200D01*
X2838400Y12086600D01*
G37*
G36*
X2830800Y7979400D02*
G01*
X1741200Y7979400D01*
X1741200Y7987000D01*
X2830800Y7987000D01*
X2830800Y7979400D01*
G37*
G36*
X2830800Y10059700D02*
G01*
X461000Y10059700D01*
X461000Y10067300D01*
X2830800Y10067300D01*
X2830800Y10059700D01*
G37*
G36*
X2830800Y10067300D02*
G01*
X468600Y10067300D01*
X468600Y10074900D01*
X2830800Y10074900D01*
X2830800Y10067300D01*
G37*
G36*
X2830800Y10074900D02*
G01*
X468600Y10074900D01*
X468600Y10082500D01*
X2830800Y10082500D01*
X2830800Y10074900D01*
G37*
G36*
X2830800Y10570200D02*
G01*
X2198400Y10570200D01*
X2198400Y10577800D01*
X2830800Y10577800D01*
X2830800Y10570200D01*
G37*
G36*
X2830800Y12094200D02*
G01*
X2465100Y12094200D01*
X2465100Y12101800D01*
X2830800Y12101800D01*
X2830800Y12094200D01*
G37*
G36*
X2823200Y9450100D02*
G01*
X1169700Y9450100D01*
X1169700Y9457700D01*
X2823200Y9457700D01*
X2823200Y9450100D01*
G37*
G36*
X2823200Y10082500D02*
G01*
X468600Y10082500D01*
X468600Y10090200D01*
X2823200Y10090200D01*
X2823200Y10082500D01*
G37*
G36*
X2823200Y10090200D02*
G01*
X468600Y10090200D01*
X468600Y10097800D01*
X2823200Y10097800D01*
X2823200Y10090200D01*
G37*
G36*
X2823200Y10562600D02*
G01*
X2206000Y10562600D01*
X2206000Y10570200D01*
X2823200Y10570200D01*
X2823200Y10562600D01*
G37*
G36*
X2823200Y12101800D02*
G01*
X2472700Y12101800D01*
X2472700Y12109500D01*
X2823200Y12109500D01*
X2823200Y12101800D01*
G37*
G36*
X2815600Y7971800D02*
G01*
X1741200Y7971800D01*
X1741200Y7979400D01*
X2815600Y7979400D01*
X2815600Y7971800D01*
G37*
G36*
X2815600Y10097800D02*
G01*
X468600Y10097800D01*
X468600Y10105400D01*
X2815600Y10105400D01*
X2815600Y10097800D01*
G37*
G36*
X2815600Y10105400D02*
G01*
X468600Y10105400D01*
X468600Y10113000D01*
X2815600Y10113000D01*
X2815600Y10105400D01*
G37*
G36*
X2815600Y10113000D02*
G01*
X476200Y10113000D01*
X476200Y10120600D01*
X2815600Y10120600D01*
X2815600Y10113000D01*
G37*
G36*
X2815600Y10547400D02*
G01*
X2213600Y10547400D01*
X2213600Y10555000D01*
X2815600Y10555000D01*
X2815600Y10547400D01*
G37*
G36*
X2815600Y10555000D02*
G01*
X2206000Y10555000D01*
X2206000Y10562600D01*
X2815600Y10562600D01*
X2815600Y10555000D01*
G37*
G36*
X2815600Y12109500D02*
G01*
X2472700Y12109500D01*
X2472700Y12117100D01*
X2815600Y12117100D01*
X2815600Y12109500D01*
G37*
G36*
X2815600Y12117100D02*
G01*
X2472700Y12117100D01*
X2472700Y12124700D01*
X2815600Y12124700D01*
X2815600Y12117100D01*
G37*
G36*
X2808000Y7964200D02*
G01*
X1741200Y7964200D01*
X1741200Y7971800D01*
X2808000Y7971800D01*
X2808000Y7964200D01*
G37*
G36*
X2808000Y9442500D02*
G01*
X1177300Y9442500D01*
X1177300Y9450100D01*
X2808000Y9450100D01*
X2808000Y9442500D01*
G37*
G36*
X2808000Y10120600D02*
G01*
X476200Y10120600D01*
X476200Y10128300D01*
X2808000Y10128300D01*
X2808000Y10120600D01*
G37*
G36*
X2808000Y10128300D02*
G01*
X476200Y10128300D01*
X476200Y10135900D01*
X2808000Y10135900D01*
X2808000Y10128300D01*
G37*
G36*
X2808000Y10135900D02*
G01*
X483900Y10135900D01*
X483900Y10143500D01*
X2808000Y10143500D01*
X2808000Y10135900D01*
G37*
G36*
X2808000Y10143500D02*
G01*
X483900Y10143500D01*
X483900Y10151100D01*
X2808000Y10151100D01*
X2808000Y10143500D01*
G37*
G36*
X2808000Y10532100D02*
G01*
X2221200Y10532100D01*
X2221200Y10539700D01*
X2808000Y10539700D01*
X2808000Y10532100D01*
G37*
G36*
X2808000Y10539700D02*
G01*
X2213600Y10539700D01*
X2213600Y10547400D01*
X2808000Y10547400D01*
X2808000Y10539700D01*
G37*
G36*
X2808000Y12124700D02*
G01*
X2480300Y12124700D01*
X2480300Y12132300D01*
X2808000Y12132300D01*
X2808000Y12124700D01*
G37*
G36*
X2800300Y7956600D02*
G01*
X1741200Y7956600D01*
X1741200Y7964200D01*
X2800300Y7964200D01*
X2800300Y7956600D01*
G37*
G36*
X2800300Y9434800D02*
G01*
X1192500Y9434800D01*
X1192500Y9442500D01*
X2800300Y9442500D01*
X2800300Y9434800D01*
G37*
G36*
X2800300Y10151100D02*
G01*
X491500Y10151100D01*
X491500Y10158700D01*
X2800300Y10158700D01*
X2800300Y10151100D01*
G37*
G36*
X2800300Y10158700D02*
G01*
X499100Y10158700D01*
X499100Y10166400D01*
X2800300Y10166400D01*
X2800300Y10158700D01*
G37*
G36*
X2800300Y10166400D02*
G01*
X499100Y10166400D01*
X499100Y10174000D01*
X2800300Y10174000D01*
X2800300Y10166400D01*
G37*
G36*
X2800300Y10174000D02*
G01*
X506700Y10174000D01*
X506700Y10181600D01*
X2800300Y10181600D01*
X2800300Y10174000D01*
G37*
G36*
X2800300Y10509300D02*
G01*
X2228800Y10509300D01*
X2228800Y10516900D01*
X2800300Y10516900D01*
X2800300Y10509300D01*
G37*
G36*
X2800300Y10516900D02*
G01*
X2228800Y10516900D01*
X2228800Y10524500D01*
X2800300Y10524500D01*
X2800300Y10516900D01*
G37*
G36*
X2800300Y10524500D02*
G01*
X2221200Y10524500D01*
X2221200Y10532100D01*
X2800300Y10532100D01*
X2800300Y10524500D01*
G37*
G36*
X2800300Y12132300D02*
G01*
X2480300Y12132300D01*
X2480300Y12139900D01*
X2800300Y12139900D01*
X2800300Y12132300D01*
G37*
G36*
X2792700Y7948900D02*
G01*
X1741200Y7948900D01*
X1741200Y7956600D01*
X2792700Y7956600D01*
X2792700Y7948900D01*
G37*
G36*
X2792700Y10181600D02*
G01*
X514300Y10181600D01*
X514300Y10189200D01*
X2792700Y10189200D01*
X2792700Y10181600D01*
G37*
G36*
X2792700Y10189200D02*
G01*
X522000Y10189200D01*
X522000Y10196800D01*
X2792700Y10196800D01*
X2792700Y10189200D01*
G37*
G36*
X2792700Y10196800D02*
G01*
X537200Y10196800D01*
X537200Y10204500D01*
X2792700Y10204500D01*
X2792700Y10196800D01*
G37*
G36*
X2792700Y10204500D02*
G01*
X544800Y10204500D01*
X544800Y10212100D01*
X2792700Y10212100D01*
X2792700Y10204500D01*
G37*
G36*
X2792700Y10212100D02*
G01*
X560100Y10212100D01*
X560100Y10219700D01*
X2792700Y10219700D01*
X2792700Y10212100D01*
G37*
G36*
X2792700Y10486400D02*
G01*
X2244100Y10486400D01*
X2244100Y10494000D01*
X2792700Y10494000D01*
X2792700Y10486400D01*
G37*
G36*
X2792700Y10494000D02*
G01*
X2236500Y10494000D01*
X2236500Y10501600D01*
X2792700Y10501600D01*
X2792700Y10494000D01*
G37*
G36*
X2792700Y10501600D02*
G01*
X2236500Y10501600D01*
X2236500Y10509300D01*
X2792700Y10509300D01*
X2792700Y10501600D01*
G37*
G36*
X2792700Y12139900D02*
G01*
X2487900Y12139900D01*
X2487900Y12147600D01*
X2792700Y12147600D01*
X2792700Y12139900D01*
G37*
G36*
X2785100Y9427200D02*
G01*
X1200100Y9427200D01*
X1200100Y9434800D01*
X2785100Y9434800D01*
X2785100Y9427200D01*
G37*
G36*
X2785100Y10219700D02*
G01*
X575300Y10219700D01*
X575300Y10227300D01*
X2785100Y10227300D01*
X2785100Y10219700D01*
G37*
G36*
X2785100Y10227300D02*
G01*
X598200Y10227300D01*
X598200Y10234900D01*
X2785100Y10234900D01*
X2785100Y10227300D01*
G37*
G36*
X2785100Y10234900D02*
G01*
X613400Y10234900D01*
X613400Y10242600D01*
X2785100Y10242600D01*
X2785100Y10234900D01*
G37*
G36*
X2785100Y10242600D02*
G01*
X636300Y10242600D01*
X636300Y10250200D01*
X2785100Y10250200D01*
X2785100Y10242600D01*
G37*
G36*
X2785100Y10250200D02*
G01*
X659100Y10250200D01*
X659100Y10257800D01*
X2785100Y10257800D01*
X2785100Y10250200D01*
G37*
G36*
X2785100Y10257800D02*
G01*
X689600Y10257800D01*
X689600Y10265400D01*
X2785100Y10265400D01*
X2785100Y10257800D01*
G37*
G36*
X2785100Y10265400D02*
G01*
X712500Y10265400D01*
X712500Y10273000D01*
X2785100Y10273000D01*
X2785100Y10265400D01*
G37*
G36*
X2785100Y10440700D02*
G01*
X2274600Y10440700D01*
X2274600Y10448300D01*
X2785100Y10448300D01*
X2785100Y10440700D01*
G37*
G36*
X2785100Y10448300D02*
G01*
X2266900Y10448300D01*
X2266900Y10455900D01*
X2785100Y10455900D01*
X2785100Y10448300D01*
G37*
G36*
X2785100Y10455900D02*
G01*
X2266900Y10455900D01*
X2266900Y10463500D01*
X2785100Y10463500D01*
X2785100Y10455900D01*
G37*
G36*
X2785100Y10463500D02*
G01*
X2259300Y10463500D01*
X2259300Y10471200D01*
X2785100Y10471200D01*
X2785100Y10463500D01*
G37*
G36*
X2785100Y10471200D02*
G01*
X2251700Y10471200D01*
X2251700Y10478800D01*
X2785100Y10478800D01*
X2785100Y10471200D01*
G37*
G36*
X2785100Y10478800D02*
G01*
X2251700Y10478800D01*
X2251700Y10486400D01*
X2785100Y10486400D01*
X2785100Y10478800D01*
G37*
G36*
X2785100Y12147600D02*
G01*
X2495500Y12147600D01*
X2495500Y12155200D01*
X2785100Y12155200D01*
X2785100Y12147600D01*
G37*
G36*
X2785100Y12155200D02*
G01*
X2495500Y12155200D01*
X2495500Y12162800D01*
X2785100Y12162800D01*
X2785100Y12155200D01*
G37*
G36*
X2777500Y7941300D02*
G01*
X1741200Y7941300D01*
X1741200Y7948900D01*
X2777500Y7948900D01*
X2777500Y7941300D01*
G37*
G36*
X2777500Y9419600D02*
G01*
X1207800Y9419600D01*
X1207800Y9427200D01*
X2777500Y9427200D01*
X2777500Y9419600D01*
G37*
G36*
X2777500Y10273000D02*
G01*
X735300Y10273000D01*
X735300Y10280700D01*
X2777500Y10280700D01*
X2777500Y10273000D01*
G37*
G36*
X2777500Y10280700D02*
G01*
X758200Y10280700D01*
X758200Y10288300D01*
X2777500Y10288300D01*
X2777500Y10280700D01*
G37*
G36*
X2777500Y10288300D02*
G01*
X781000Y10288300D01*
X781000Y10295900D01*
X2777500Y10295900D01*
X2777500Y10288300D01*
G37*
G36*
X2777500Y10295900D02*
G01*
X803900Y10295900D01*
X803900Y10303500D01*
X2777500Y10303500D01*
X2777500Y10295900D01*
G37*
G36*
X2777500Y10303500D02*
G01*
X826800Y10303500D01*
X826800Y10311100D01*
X2777500Y10311100D01*
X2777500Y10303500D01*
G37*
G36*
X2777500Y10311100D02*
G01*
X849600Y10311100D01*
X849600Y10318800D01*
X2777500Y10318800D01*
X2777500Y10311100D01*
G37*
G36*
X2777500Y10318800D02*
G01*
X880100Y10318800D01*
X880100Y10326400D01*
X2777500Y10326400D01*
X2777500Y10318800D01*
G37*
G36*
X2777500Y10326400D02*
G01*
X903000Y10326400D01*
X903000Y10334000D01*
X2777500Y10334000D01*
X2777500Y10326400D01*
G37*
G36*
X2777500Y10334000D02*
G01*
X2358400Y10334000D01*
X2358400Y10341600D01*
X2777500Y10341600D01*
X2777500Y10334000D01*
G37*
G36*
X2777500Y10341600D02*
G01*
X2350800Y10341600D01*
X2350800Y10349200D01*
X2777500Y10349200D01*
X2777500Y10341600D01*
G37*
G36*
X2777500Y10349200D02*
G01*
X2343100Y10349200D01*
X2343100Y10356900D01*
X2777500Y10356900D01*
X2777500Y10349200D01*
G37*
G36*
X2777500Y10356900D02*
G01*
X2343100Y10356900D01*
X2343100Y10364500D01*
X2777500Y10364500D01*
X2777500Y10356900D01*
G37*
G36*
X2777500Y10364500D02*
G01*
X2335500Y10364500D01*
X2335500Y10372100D01*
X2777500Y10372100D01*
X2777500Y10364500D01*
G37*
G36*
X2777500Y10372100D02*
G01*
X2327900Y10372100D01*
X2327900Y10379700D01*
X2777500Y10379700D01*
X2777500Y10372100D01*
G37*
G36*
X2777500Y10379700D02*
G01*
X2320300Y10379700D01*
X2320300Y10387300D01*
X2777500Y10387300D01*
X2777500Y10379700D01*
G37*
G36*
X2777500Y10387300D02*
G01*
X2312700Y10387300D01*
X2312700Y10395000D01*
X2777500Y10395000D01*
X2777500Y10387300D01*
G37*
G36*
X2777500Y10395000D02*
G01*
X2312700Y10395000D01*
X2312700Y10402600D01*
X2777500Y10402600D01*
X2777500Y10395000D01*
G37*
G36*
X2777500Y10402600D02*
G01*
X2305000Y10402600D01*
X2305000Y10410200D01*
X2777500Y10410200D01*
X2777500Y10402600D01*
G37*
G36*
X2777500Y10410200D02*
G01*
X2297400Y10410200D01*
X2297400Y10417800D01*
X2777500Y10417800D01*
X2777500Y10410200D01*
G37*
G36*
X2777500Y10417800D02*
G01*
X2289800Y10417800D01*
X2289800Y10425400D01*
X2777500Y10425400D01*
X2777500Y10417800D01*
G37*
G36*
X2777500Y10425400D02*
G01*
X2289800Y10425400D01*
X2289800Y10433100D01*
X2777500Y10433100D01*
X2777500Y10425400D01*
G37*
G36*
X2777500Y10433100D02*
G01*
X2282200Y10433100D01*
X2282200Y10440700D01*
X2777500Y10440700D01*
X2777500Y10433100D01*
G37*
G36*
X2777500Y12162800D02*
G01*
X2503200Y12162800D01*
X2503200Y12170400D01*
X2777500Y12170400D01*
X2777500Y12162800D01*
G37*
G36*
X2769900Y7933700D02*
G01*
X1741200Y7933700D01*
X1741200Y7941300D01*
X2769900Y7941300D01*
X2769900Y7933700D01*
G37*
G36*
X2769900Y9412000D02*
G01*
X1223000Y9412000D01*
X1223000Y9419600D01*
X2769900Y9419600D01*
X2769900Y9412000D01*
G37*
G36*
X2769900Y12170400D02*
G01*
X2510800Y12170400D01*
X2510800Y12178000D01*
X2769900Y12178000D01*
X2769900Y12170400D01*
G37*
G36*
X2762200Y7926100D02*
G01*
X1741200Y7926100D01*
X1741200Y7933700D01*
X2762200Y7933700D01*
X2762200Y7926100D01*
G37*
G36*
X2762200Y9404400D02*
G01*
X1230600Y9404400D01*
X1230600Y9412000D01*
X2762200Y9412000D01*
X2762200Y9404400D01*
G37*
G36*
X2762200Y12178000D02*
G01*
X2518400Y12178000D01*
X2518400Y12185700D01*
X2762200Y12185700D01*
X2762200Y12178000D01*
G37*
G36*
X2754600Y9396700D02*
G01*
X1245900Y9396700D01*
X1245900Y9404400D01*
X2754600Y9404400D01*
X2754600Y9396700D01*
G37*
G36*
X2754600Y12185700D02*
G01*
X2526000Y12185700D01*
X2526000Y12193300D01*
X2754600Y12193300D01*
X2754600Y12185700D01*
G37*
G36*
X2747000Y7918500D02*
G01*
X1741200Y7918500D01*
X1741200Y7926100D01*
X2747000Y7926100D01*
X2747000Y7918500D01*
G37*
G36*
X2747000Y9389100D02*
G01*
X1253500Y9389100D01*
X1253500Y9396700D01*
X2747000Y9396700D01*
X2747000Y9389100D01*
G37*
G36*
X2739400Y7910800D02*
G01*
X1741200Y7910800D01*
X1741200Y7918500D01*
X2739400Y7918500D01*
X2739400Y7910800D01*
G37*
G36*
X2739400Y9381500D02*
G01*
X1261100Y9381500D01*
X1261100Y9389100D01*
X2739400Y9389100D01*
X2739400Y9381500D01*
G37*
G36*
X2739400Y12193300D02*
G01*
X2533600Y12193300D01*
X2533600Y12200900D01*
X2739400Y12200900D01*
X2739400Y12193300D01*
G37*
G36*
X2731800Y7903200D02*
G01*
X1741200Y7903200D01*
X1741200Y7910800D01*
X2731800Y7910800D01*
X2731800Y7903200D01*
G37*
G36*
X2731800Y9373900D02*
G01*
X1276300Y9373900D01*
X1276300Y9381500D01*
X2731800Y9381500D01*
X2731800Y9373900D01*
G37*
G36*
X2731800Y12200900D02*
G01*
X2548900Y12200900D01*
X2548900Y12208500D01*
X2731800Y12208500D01*
X2731800Y12200900D01*
G37*
G36*
X2724100Y9366300D02*
G01*
X1284000Y9366300D01*
X1284000Y9373900D01*
X2724100Y9373900D01*
X2724100Y9366300D01*
G37*
G36*
X2716500Y7895600D02*
G01*
X1741200Y7895600D01*
X1741200Y7903200D01*
X2716500Y7903200D01*
X2716500Y7895600D01*
G37*
G36*
X2716500Y9358600D02*
G01*
X1291600Y9358600D01*
X1291600Y9366300D01*
X2716500Y9366300D01*
X2716500Y9358600D01*
G37*
G36*
X2716500Y12208500D02*
G01*
X2564100Y12208500D01*
X2564100Y12216100D01*
X2716500Y12216100D01*
X2716500Y12208500D01*
G37*
G36*
X2708900Y7888000D02*
G01*
X1741200Y7888000D01*
X1741200Y7895600D01*
X2708900Y7895600D01*
X2708900Y7888000D01*
G37*
G36*
X2708900Y9351000D02*
G01*
X1306800Y9351000D01*
X1306800Y9358600D01*
X2708900Y9358600D01*
X2708900Y9351000D01*
G37*
G36*
X2701300Y9335800D02*
G01*
X1329700Y9335800D01*
X1329700Y9343400D01*
X2701300Y9343400D01*
X2701300Y9335800D01*
G37*
G36*
X2701300Y9343400D02*
G01*
X1314400Y9343400D01*
X1314400Y9351000D01*
X2701300Y9351000D01*
X2701300Y9343400D01*
G37*
G36*
X2701300Y12216100D02*
G01*
X2579400Y12216100D01*
X2579400Y12223800D01*
X2701300Y12223800D01*
X2701300Y12216100D01*
G37*
G36*
X2693700Y7880400D02*
G01*
X1741200Y7880400D01*
X1741200Y7888000D01*
X2693700Y7888000D01*
X2693700Y7880400D01*
G37*
G36*
X2693700Y9328200D02*
G01*
X1344900Y9328200D01*
X1344900Y9335800D01*
X2693700Y9335800D01*
X2693700Y9328200D01*
G37*
G36*
X2686000Y7872700D02*
G01*
X1741200Y7872700D01*
X1741200Y7880400D01*
X2686000Y7880400D01*
X2686000Y7872700D01*
G37*
G36*
X2686000Y9320500D02*
G01*
X1352500Y9320500D01*
X1352500Y9328200D01*
X2686000Y9328200D01*
X2686000Y9320500D01*
G37*
G36*
X2678400Y7865100D02*
G01*
X1741200Y7865100D01*
X1741200Y7872700D01*
X2678400Y7872700D01*
X2678400Y7865100D01*
G37*
G36*
X2678400Y9305300D02*
G01*
X1383000Y9305300D01*
X1383000Y9312900D01*
X2678400Y9312900D01*
X2678400Y9305300D01*
G37*
G36*
X2678400Y9312900D02*
G01*
X1367800Y9312900D01*
X1367800Y9320500D01*
X2678400Y9320500D01*
X2678400Y9312900D01*
G37*
G36*
X2678400Y12223800D02*
G01*
X2617500Y12223800D01*
X2617500Y12231400D01*
X2678400Y12231400D01*
X2678400Y12223800D01*
G37*
G36*
X2670800Y9297700D02*
G01*
X1398300Y9297700D01*
X1398300Y9305300D01*
X2670800Y9305300D01*
X2670800Y9297700D01*
G37*
G36*
X2663200Y7857500D02*
G01*
X1741200Y7857500D01*
X1741200Y7865100D01*
X2663200Y7865100D01*
X2663200Y7857500D01*
G37*
G36*
X2663200Y9282400D02*
G01*
X1421100Y9282400D01*
X1421100Y9290100D01*
X2663200Y9290100D01*
X2663200Y9282400D01*
G37*
G36*
X2663200Y9290100D02*
G01*
X1413500Y9290100D01*
X1413500Y9297700D01*
X2663200Y9297700D01*
X2663200Y9290100D01*
G37*
G36*
X2655600Y7849900D02*
G01*
X1741200Y7849900D01*
X1741200Y7857500D01*
X2655600Y7857500D01*
X2655600Y7849900D01*
G37*
G36*
X2655600Y9267200D02*
G01*
X1459200Y9267200D01*
X1459200Y9274800D01*
X2655600Y9274800D01*
X2655600Y9267200D01*
G37*
G36*
X2655600Y9274800D02*
G01*
X1444000Y9274800D01*
X1444000Y9282400D01*
X2655600Y9282400D01*
X2655600Y9274800D01*
G37*
G36*
X2647900Y7842300D02*
G01*
X1741200Y7842300D01*
X1741200Y7849900D01*
X2647900Y7849900D01*
X2647900Y7842300D01*
G37*
G36*
X2647900Y9259600D02*
G01*
X1474500Y9259600D01*
X1474500Y9267200D01*
X2647900Y9267200D01*
X2647900Y9259600D01*
G37*
G36*
X2640300Y9244300D02*
G01*
X2167900Y9244300D01*
X2167900Y9252000D01*
X2640300Y9252000D01*
X2640300Y9244300D01*
G37*
G36*
X2640300Y9252000D02*
G01*
X2183100Y9252000D01*
X2183100Y9259600D01*
X2640300Y9259600D01*
X2640300Y9252000D01*
G37*
G36*
X2632700Y7834600D02*
G01*
X1741200Y7834600D01*
X1741200Y7842300D01*
X2632700Y7842300D01*
X2632700Y7834600D01*
G37*
G36*
X2632700Y9229100D02*
G01*
X2145000Y9229100D01*
X2145000Y9236700D01*
X2632700Y9236700D01*
X2632700Y9229100D01*
G37*
G36*
X2632700Y9236700D02*
G01*
X2160300Y9236700D01*
X2160300Y9244300D01*
X2632700Y9244300D01*
X2632700Y9236700D01*
G37*
G36*
X2625100Y7827000D02*
G01*
X1741200Y7827000D01*
X1741200Y7834600D01*
X2625100Y7834600D01*
X2625100Y7827000D01*
G37*
G36*
X2625100Y9213900D02*
G01*
X2122200Y9213900D01*
X2122200Y9221500D01*
X2625100Y9221500D01*
X2625100Y9213900D01*
G37*
G36*
X2625100Y9221500D02*
G01*
X2137400Y9221500D01*
X2137400Y9229100D01*
X2625100Y9229100D01*
X2625100Y9221500D01*
G37*
G36*
X2617500Y7819400D02*
G01*
X1741200Y7819400D01*
X1741200Y7827000D01*
X2617500Y7827000D01*
X2617500Y7819400D01*
G37*
G36*
X2617500Y9198600D02*
G01*
X2099300Y9198600D01*
X2099300Y9206200D01*
X2617500Y9206200D01*
X2617500Y9198600D01*
G37*
G36*
X2617500Y9206200D02*
G01*
X2114500Y9206200D01*
X2114500Y9213900D01*
X2617500Y9213900D01*
X2617500Y9206200D01*
G37*
G36*
X2609800Y9183400D02*
G01*
X2084100Y9183400D01*
X2084100Y9191000D01*
X2609800Y9191000D01*
X2609800Y9183400D01*
G37*
G36*
X2609800Y9191000D02*
G01*
X2091700Y9191000D01*
X2091700Y9198600D01*
X2609800Y9198600D01*
X2609800Y9191000D01*
G37*
G36*
X2602200Y7811800D02*
G01*
X1741200Y7811800D01*
X1741200Y7819400D01*
X2602200Y7819400D01*
X2602200Y7811800D01*
G37*
G36*
X2602200Y9168100D02*
G01*
X2061200Y9168100D01*
X2061200Y9175800D01*
X2602200Y9175800D01*
X2602200Y9168100D01*
G37*
G36*
X2602200Y9175800D02*
G01*
X2068800Y9175800D01*
X2068800Y9183400D01*
X2602200Y9183400D01*
X2602200Y9175800D01*
G37*
G36*
X2594600Y7804200D02*
G01*
X1741200Y7804200D01*
X1741200Y7811800D01*
X2594600Y7811800D01*
X2594600Y7804200D01*
G37*
G36*
X2594600Y8848100D02*
G01*
X1825000Y8848100D01*
X1825000Y8855700D01*
X2594600Y8855700D01*
X2594600Y8848100D01*
G37*
G36*
X2594600Y9145300D02*
G01*
X2030700Y9145300D01*
X2030700Y9152900D01*
X2594600Y9152900D01*
X2594600Y9145300D01*
G37*
G36*
X2594600Y9152900D02*
G01*
X2038300Y9152900D01*
X2038300Y9160500D01*
X2594600Y9160500D01*
X2594600Y9152900D01*
G37*
G36*
X2594600Y9160500D02*
G01*
X2053600Y9160500D01*
X2053600Y9168100D01*
X2594600Y9168100D01*
X2594600Y9160500D01*
G37*
G36*
X2587000Y9130000D02*
G01*
X2015500Y9130000D01*
X2015500Y9137700D01*
X2587000Y9137700D01*
X2587000Y9130000D01*
G37*
G36*
X2587000Y9137700D02*
G01*
X2023100Y9137700D01*
X2023100Y9145300D01*
X2587000Y9145300D01*
X2587000Y9137700D01*
G37*
G36*
X2579400Y7796500D02*
G01*
X1741200Y7796500D01*
X1741200Y7804200D01*
X2579400Y7804200D01*
X2579400Y7796500D01*
G37*
G36*
X2579400Y8855700D02*
G01*
X1825000Y8855700D01*
X1825000Y8863300D01*
X2579400Y8863300D01*
X2579400Y8855700D01*
G37*
G36*
X2579400Y9107200D02*
G01*
X1992600Y9107200D01*
X1992600Y9114800D01*
X2579400Y9114800D01*
X2579400Y9107200D01*
G37*
G36*
X2579400Y9114800D02*
G01*
X2000200Y9114800D01*
X2000200Y9122400D01*
X2579400Y9122400D01*
X2579400Y9114800D01*
G37*
G36*
X2579400Y9122400D02*
G01*
X2007900Y9122400D01*
X2007900Y9130000D01*
X2579400Y9130000D01*
X2579400Y9122400D01*
G37*
G36*
X2571700Y7788900D02*
G01*
X1741200Y7788900D01*
X1741200Y7796500D01*
X2571700Y7796500D01*
X2571700Y7788900D01*
G37*
G36*
X2571700Y8863300D02*
G01*
X1825000Y8863300D01*
X1825000Y8871000D01*
X2571700Y8871000D01*
X2571700Y8863300D01*
G37*
G36*
X2571700Y9084300D02*
G01*
X1969800Y9084300D01*
X1969800Y9091900D01*
X2571700Y9091900D01*
X2571700Y9084300D01*
G37*
G36*
X2571700Y9091900D02*
G01*
X1977400Y9091900D01*
X1977400Y9099600D01*
X2571700Y9099600D01*
X2571700Y9091900D01*
G37*
G36*
X2571700Y9099600D02*
G01*
X1985000Y9099600D01*
X1985000Y9107200D01*
X2571700Y9107200D01*
X2571700Y9099600D01*
G37*
G36*
X2564100Y7781300D02*
G01*
X1741200Y7781300D01*
X1741200Y7788900D01*
X2564100Y7788900D01*
X2564100Y7781300D01*
G37*
G36*
X2564100Y8871000D02*
G01*
X1832600Y8871000D01*
X1832600Y8878600D01*
X2564100Y8878600D01*
X2564100Y8871000D01*
G37*
G36*
X2564100Y8878600D02*
G01*
X1832600Y8878600D01*
X1832600Y8886200D01*
X2564100Y8886200D01*
X2564100Y8878600D01*
G37*
G36*
X2564100Y9053800D02*
G01*
X1939300Y9053800D01*
X1939300Y9061500D01*
X2564100Y9061500D01*
X2564100Y9053800D01*
G37*
G36*
X2564100Y9061500D02*
G01*
X1946900Y9061500D01*
X1946900Y9069100D01*
X2564100Y9069100D01*
X2564100Y9061500D01*
G37*
G36*
X2564100Y9069100D02*
G01*
X1954500Y9069100D01*
X1954500Y9076700D01*
X2564100Y9076700D01*
X2564100Y9069100D01*
G37*
G36*
X2564100Y9076700D02*
G01*
X1962100Y9076700D01*
X1962100Y9084300D01*
X2564100Y9084300D01*
X2564100Y9076700D01*
G37*
G36*
X2556500Y8886200D02*
G01*
X1840200Y8886200D01*
X1840200Y8893800D01*
X2556500Y8893800D01*
X2556500Y8886200D01*
G37*
G36*
X2556500Y8893800D02*
G01*
X1840200Y8893800D01*
X1840200Y8901400D01*
X2556500Y8901400D01*
X2556500Y8893800D01*
G37*
G36*
X2556500Y8901400D02*
G01*
X1847800Y8901400D01*
X1847800Y8909100D01*
X2556500Y8909100D01*
X2556500Y8901400D01*
G37*
G36*
X2556500Y9008100D02*
G01*
X1908800Y9008100D01*
X1908800Y9015700D01*
X2556500Y9015700D01*
X2556500Y9008100D01*
G37*
G36*
X2556500Y9015700D02*
G01*
X1908800Y9015700D01*
X1908800Y9023400D01*
X2556500Y9023400D01*
X2556500Y9015700D01*
G37*
G36*
X2556500Y9023400D02*
G01*
X1916400Y9023400D01*
X1916400Y9031000D01*
X2556500Y9031000D01*
X2556500Y9023400D01*
G37*
G36*
X2556500Y9031000D02*
G01*
X1924000Y9031000D01*
X1924000Y9038600D01*
X2556500Y9038600D01*
X2556500Y9031000D01*
G37*
G36*
X2556500Y9038600D02*
G01*
X1931700Y9038600D01*
X1931700Y9046200D01*
X2556500Y9046200D01*
X2556500Y9038600D01*
G37*
G36*
X2556500Y9046200D02*
G01*
X1931700Y9046200D01*
X1931700Y9053800D01*
X2556500Y9053800D01*
X2556500Y9046200D01*
G37*
G36*
X2548900Y7773700D02*
G01*
X1741200Y7773700D01*
X1741200Y7781300D01*
X2548900Y7781300D01*
X2548900Y7773700D01*
G37*
G36*
X2548900Y8909100D02*
G01*
X1847800Y8909100D01*
X1847800Y8916700D01*
X2548900Y8916700D01*
X2548900Y8909100D01*
G37*
G36*
X2548900Y8916700D02*
G01*
X1855500Y8916700D01*
X1855500Y8924300D01*
X2548900Y8924300D01*
X2548900Y8916700D01*
G37*
G36*
X2548900Y8924300D02*
G01*
X1855500Y8924300D01*
X1855500Y8931900D01*
X2548900Y8931900D01*
X2548900Y8924300D01*
G37*
G36*
X2548900Y8931900D02*
G01*
X1863100Y8931900D01*
X1863100Y8939500D01*
X2548900Y8939500D01*
X2548900Y8931900D01*
G37*
G36*
X2548900Y8939500D02*
G01*
X1863100Y8939500D01*
X1863100Y8947200D01*
X2548900Y8947200D01*
X2548900Y8939500D01*
G37*
G36*
X2548900Y8947200D02*
G01*
X1870700Y8947200D01*
X1870700Y8954800D01*
X2548900Y8954800D01*
X2548900Y8947200D01*
G37*
G36*
X2548900Y8954800D02*
G01*
X1870700Y8954800D01*
X1870700Y8962400D01*
X2548900Y8962400D01*
X2548900Y8954800D01*
G37*
G36*
X2548900Y8962400D02*
G01*
X1878300Y8962400D01*
X1878300Y8970000D01*
X2548900Y8970000D01*
X2548900Y8962400D01*
G37*
G36*
X2548900Y8970000D02*
G01*
X1878300Y8970000D01*
X1878300Y8977600D01*
X2548900Y8977600D01*
X2548900Y8970000D01*
G37*
G36*
X2548900Y8977600D02*
G01*
X1885900Y8977600D01*
X1885900Y8985300D01*
X2548900Y8985300D01*
X2548900Y8977600D01*
G37*
G36*
X2548900Y8985300D02*
G01*
X1893600Y8985300D01*
X1893600Y8992900D01*
X2548900Y8992900D01*
X2548900Y8985300D01*
G37*
G36*
X2548900Y8992900D02*
G01*
X1893600Y8992900D01*
X1893600Y9000500D01*
X2548900Y9000500D01*
X2548900Y8992900D01*
G37*
G36*
X2548900Y9000500D02*
G01*
X1901200Y9000500D01*
X1901200Y9008100D01*
X2548900Y9008100D01*
X2548900Y9000500D01*
G37*
G36*
X2541300Y7766100D02*
G01*
X1741200Y7766100D01*
X1741200Y7773700D01*
X2541300Y7773700D01*
X2541300Y7766100D01*
G37*
G36*
X2533600Y7758400D02*
G01*
X1741200Y7758400D01*
X1741200Y7766100D01*
X2533600Y7766100D01*
X2533600Y7758400D01*
G37*
G36*
X2518400Y7750800D02*
G01*
X1741200Y7750800D01*
X1741200Y7758400D01*
X2518400Y7758400D01*
X2518400Y7750800D01*
G37*
G36*
X2510800Y7743200D02*
G01*
X1741200Y7743200D01*
X1741200Y7750800D01*
X2510800Y7750800D01*
X2510800Y7743200D01*
G37*
G36*
X2495500Y7735600D02*
G01*
X1741200Y7735600D01*
X1741200Y7743200D01*
X2495500Y7743200D01*
X2495500Y7735600D01*
G37*
G36*
X2487900Y7728000D02*
G01*
X1741200Y7728000D01*
X1741200Y7735600D01*
X2487900Y7735600D01*
X2487900Y7728000D01*
G37*
G36*
X2480300Y7720300D02*
G01*
X1741200Y7720300D01*
X1741200Y7728000D01*
X2480300Y7728000D01*
X2480300Y7720300D01*
G37*
G36*
X2465100Y7712700D02*
G01*
X1741200Y7712700D01*
X1741200Y7720300D01*
X2465100Y7720300D01*
X2465100Y7712700D01*
G37*
G36*
X2465100Y9625300D02*
G01*
X925800Y9625300D01*
X925800Y9633000D01*
X2465100Y9633000D01*
X2465100Y9625300D01*
G37*
G36*
X2457400Y7705100D02*
G01*
X1741200Y7705100D01*
X1741200Y7712700D01*
X2457400Y7712700D01*
X2457400Y7705100D01*
G37*
G36*
X2449800Y7697500D02*
G01*
X1741200Y7697500D01*
X1741200Y7705100D01*
X2449800Y7705100D01*
X2449800Y7697500D01*
G37*
G36*
X2434600Y7689900D02*
G01*
X1741200Y7689900D01*
X1741200Y7697500D01*
X2434600Y7697500D01*
X2434600Y7689900D01*
G37*
G36*
X2427000Y7682200D02*
G01*
X1741200Y7682200D01*
X1741200Y7689900D01*
X2427000Y7689900D01*
X2427000Y7682200D01*
G37*
G36*
X2419300Y7674600D02*
G01*
X1741200Y7674600D01*
X1741200Y7682200D01*
X2419300Y7682200D01*
X2419300Y7674600D01*
G37*
G36*
X2404100Y7667000D02*
G01*
X1741200Y7667000D01*
X1741200Y7674600D01*
X2404100Y7674600D01*
X2404100Y7667000D01*
G37*
G36*
X2404100Y9633000D02*
G01*
X918200Y9633000D01*
X918200Y9640600D01*
X2404100Y9640600D01*
X2404100Y9633000D01*
G37*
G36*
X2396500Y7659400D02*
G01*
X1741200Y7659400D01*
X1741200Y7667000D01*
X2396500Y7667000D01*
X2396500Y7659400D01*
G37*
G36*
X2381200Y7651800D02*
G01*
X1741200Y7651800D01*
X1741200Y7659400D01*
X2381200Y7659400D01*
X2381200Y7651800D01*
G37*
G36*
X2373600Y7644100D02*
G01*
X1741200Y7644100D01*
X1741200Y7651800D01*
X2373600Y7651800D01*
X2373600Y7644100D01*
G37*
G36*
X2366000Y7636500D02*
G01*
X1741200Y7636500D01*
X1741200Y7644100D01*
X2366000Y7644100D01*
X2366000Y7636500D01*
G37*
G36*
X2366000Y9640600D02*
G01*
X903000Y9640600D01*
X903000Y9648200D01*
X2366000Y9648200D01*
X2366000Y9640600D01*
G37*
G36*
X2350800Y7628900D02*
G01*
X1741200Y7628900D01*
X1741200Y7636500D01*
X2350800Y7636500D01*
X2350800Y7628900D01*
G37*
G36*
X2350800Y10334000D02*
G01*
X925800Y10334000D01*
X925800Y10341600D01*
X2350800Y10341600D01*
X2350800Y10334000D01*
G37*
G36*
X2343100Y7621300D02*
G01*
X1741200Y7621300D01*
X1741200Y7628900D01*
X2343100Y7628900D01*
X2343100Y7621300D01*
G37*
G36*
X2343100Y10341600D02*
G01*
X948700Y10341600D01*
X948700Y10349200D01*
X2343100Y10349200D01*
X2343100Y10341600D01*
G37*
G36*
X2335500Y7613700D02*
G01*
X1741200Y7613700D01*
X1741200Y7621300D01*
X2335500Y7621300D01*
X2335500Y7613700D01*
G37*
G36*
X2335500Y9648200D02*
G01*
X895300Y9648200D01*
X895300Y9655800D01*
X2335500Y9655800D01*
X2335500Y9648200D01*
G37*
G36*
X2335500Y10349200D02*
G01*
X971500Y10349200D01*
X971500Y10356900D01*
X2335500Y10356900D01*
X2335500Y10349200D01*
G37*
G36*
X2327900Y10356900D02*
G01*
X994400Y10356900D01*
X994400Y10364500D01*
X2327900Y10364500D01*
X2327900Y10356900D01*
G37*
G36*
X2320300Y7606000D02*
G01*
X1741200Y7606000D01*
X1741200Y7613700D01*
X2320300Y7613700D01*
X2320300Y7606000D01*
G37*
G36*
X2312700Y7598400D02*
G01*
X1741200Y7598400D01*
X1741200Y7606000D01*
X2312700Y7606000D01*
X2312700Y7598400D01*
G37*
G36*
X2312700Y10364500D02*
G01*
X1017300Y10364500D01*
X1017300Y10372100D01*
X2312700Y10372100D01*
X2312700Y10364500D01*
G37*
G36*
X2305000Y7590800D02*
G01*
X1741200Y7590800D01*
X1741200Y7598400D01*
X2305000Y7598400D01*
X2305000Y7590800D01*
G37*
G36*
X2305000Y9655800D02*
G01*
X880100Y9655800D01*
X880100Y9663400D01*
X2305000Y9663400D01*
X2305000Y9655800D01*
G37*
G36*
X2305000Y10372100D02*
G01*
X1047700Y10372100D01*
X1047700Y10379700D01*
X2305000Y10379700D01*
X2305000Y10372100D01*
G37*
G36*
X2297400Y10379700D02*
G01*
X1070600Y10379700D01*
X1070600Y10387300D01*
X2297400Y10387300D01*
X2297400Y10379700D01*
G37*
G36*
X2289800Y7583200D02*
G01*
X1741200Y7583200D01*
X1741200Y7590800D01*
X2289800Y7590800D01*
X2289800Y7583200D01*
G37*
G36*
X2289800Y10387300D02*
G01*
X1093500Y10387300D01*
X1093500Y10395000D01*
X2289800Y10395000D01*
X2289800Y10387300D01*
G37*
G36*
X2282200Y7575600D02*
G01*
X1741200Y7575600D01*
X1741200Y7583200D01*
X2282200Y7583200D01*
X2282200Y7575600D01*
G37*
G36*
X2282200Y9663400D02*
G01*
X872500Y9663400D01*
X872500Y9671100D01*
X2282200Y9671100D01*
X2282200Y9663400D01*
G37*
G36*
X2274600Y10395000D02*
G01*
X1116300Y10395000D01*
X1116300Y10402600D01*
X2274600Y10402600D01*
X2274600Y10395000D01*
G37*
G36*
X2266900Y7567900D02*
G01*
X1741200Y7567900D01*
X1741200Y7575600D01*
X2266900Y7575600D01*
X2266900Y7567900D01*
G37*
G36*
X2266900Y10402600D02*
G01*
X1139200Y10402600D01*
X1139200Y10410200D01*
X2266900Y10410200D01*
X2266900Y10402600D01*
G37*
G36*
X2259300Y7560300D02*
G01*
X1741200Y7560300D01*
X1741200Y7567900D01*
X2259300Y7567900D01*
X2259300Y7560300D01*
G37*
G36*
X2259300Y9671100D02*
G01*
X864900Y9671100D01*
X864900Y9678700D01*
X2259300Y9678700D01*
X2259300Y9671100D01*
G37*
G36*
X2259300Y10410200D02*
G01*
X1162000Y10410200D01*
X1162000Y10417800D01*
X2259300Y10417800D01*
X2259300Y10410200D01*
G37*
G36*
X2251700Y7552700D02*
G01*
X1741200Y7552700D01*
X1741200Y7560300D01*
X2251700Y7560300D01*
X2251700Y7552700D01*
G37*
G36*
X2244100Y9678700D02*
G01*
X849600Y9678700D01*
X849600Y9686300D01*
X2244100Y9686300D01*
X2244100Y9678700D01*
G37*
G36*
X2244100Y10417800D02*
G01*
X1184900Y10417800D01*
X1184900Y10425400D01*
X2244100Y10425400D01*
X2244100Y10417800D01*
G37*
G36*
X2236500Y7545100D02*
G01*
X1741200Y7545100D01*
X1741200Y7552700D01*
X2236500Y7552700D01*
X2236500Y7545100D01*
G37*
G36*
X2236500Y9907300D02*
G01*
X537200Y9907300D01*
X537200Y9914900D01*
X2236500Y9914900D01*
X2236500Y9907300D01*
G37*
G36*
X2236500Y10425400D02*
G01*
X1215400Y10425400D01*
X1215400Y10433100D01*
X2236500Y10433100D01*
X2236500Y10425400D01*
G37*
G36*
X2228800Y7537500D02*
G01*
X1741200Y7537500D01*
X1741200Y7545100D01*
X2228800Y7545100D01*
X2228800Y7537500D01*
G37*
G36*
X2228800Y9686300D02*
G01*
X842000Y9686300D01*
X842000Y9693900D01*
X2228800Y9693900D01*
X2228800Y9686300D01*
G37*
G36*
X2221200Y7529800D02*
G01*
X1741200Y7529800D01*
X1741200Y7537500D01*
X2221200Y7537500D01*
X2221200Y7529800D01*
G37*
G36*
X2221200Y10433100D02*
G01*
X1238200Y10433100D01*
X1238200Y10440700D01*
X2221200Y10440700D01*
X2221200Y10433100D01*
G37*
G36*
X2213600Y10440700D02*
G01*
X1261100Y10440700D01*
X1261100Y10448300D01*
X2213600Y10448300D01*
X2213600Y10440700D01*
G37*
G36*
X2206000Y7522200D02*
G01*
X1741200Y7522200D01*
X1741200Y7529800D01*
X2206000Y7529800D01*
X2206000Y7522200D01*
G37*
G36*
X2206000Y9693900D02*
G01*
X826800Y9693900D01*
X826800Y9701500D01*
X2206000Y9701500D01*
X2206000Y9693900D01*
G37*
G36*
X2198400Y7514600D02*
G01*
X1748800Y7514600D01*
X1748800Y7522200D01*
X2198400Y7522200D01*
X2198400Y7514600D01*
G37*
G36*
X2198400Y9701500D02*
G01*
X819100Y9701500D01*
X819100Y9709200D01*
X2198400Y9709200D01*
X2198400Y9701500D01*
G37*
G36*
X2198400Y9899700D02*
G01*
X544800Y9899700D01*
X544800Y9907300D01*
X2198400Y9907300D01*
X2198400Y9899700D01*
G37*
G36*
X2198400Y10448300D02*
G01*
X1284000Y10448300D01*
X1284000Y10455900D01*
X2198400Y10455900D01*
X2198400Y10448300D01*
G37*
G36*
X2190700Y7507000D02*
G01*
X1748800Y7507000D01*
X1748800Y7514600D01*
X2190700Y7514600D01*
X2190700Y7507000D01*
G37*
G36*
X2190700Y10455900D02*
G01*
X1306800Y10455900D01*
X1306800Y10463500D01*
X2190700Y10463500D01*
X2190700Y10455900D01*
G37*
G36*
X2183100Y9709200D02*
G01*
X811500Y9709200D01*
X811500Y9716800D01*
X2183100Y9716800D01*
X2183100Y9709200D01*
G37*
G36*
X2175500Y7499400D02*
G01*
X1748800Y7499400D01*
X1748800Y7507000D01*
X2175500Y7507000D01*
X2175500Y7499400D01*
G37*
G36*
X2175500Y9252000D02*
G01*
X1489700Y9252000D01*
X1489700Y9259600D01*
X2175500Y9259600D01*
X2175500Y9252000D01*
G37*
G36*
X2175500Y9892000D02*
G01*
X560100Y9892000D01*
X560100Y9899700D01*
X2175500Y9899700D01*
X2175500Y9892000D01*
G37*
G36*
X2175500Y10463500D02*
G01*
X1329700Y10463500D01*
X1329700Y10471200D01*
X2175500Y10471200D01*
X2175500Y10463500D01*
G37*
G36*
X2167900Y7491700D02*
G01*
X1748800Y7491700D01*
X1748800Y7499400D01*
X2167900Y7499400D01*
X2167900Y7491700D01*
G37*
G36*
X2167900Y9716800D02*
G01*
X796300Y9716800D01*
X796300Y9724400D01*
X2167900Y9724400D01*
X2167900Y9716800D01*
G37*
G36*
X2160300Y9724400D02*
G01*
X788700Y9724400D01*
X788700Y9732000D01*
X2160300Y9732000D01*
X2160300Y9724400D01*
G37*
G36*
X2160300Y9884400D02*
G01*
X567700Y9884400D01*
X567700Y9892000D01*
X2160300Y9892000D01*
X2160300Y9884400D01*
G37*
G36*
X2160300Y10471200D02*
G01*
X1352500Y10471200D01*
X1352500Y10478800D01*
X2160300Y10478800D01*
X2160300Y10471200D01*
G37*
G36*
X2152600Y7484100D02*
G01*
X1748800Y7484100D01*
X1748800Y7491700D01*
X2152600Y7491700D01*
X2152600Y7484100D01*
G37*
G36*
X2152600Y9244300D02*
G01*
X1512600Y9244300D01*
X1512600Y9252000D01*
X2152600Y9252000D01*
X2152600Y9244300D01*
G37*
G36*
X2145000Y7476500D02*
G01*
X1756400Y7476500D01*
X1756400Y7484100D01*
X2145000Y7484100D01*
X2145000Y7476500D01*
G37*
G36*
X2145000Y9732000D02*
G01*
X781000Y9732000D01*
X781000Y9739600D01*
X2145000Y9739600D01*
X2145000Y9732000D01*
G37*
G36*
X2145000Y9876800D02*
G01*
X575300Y9876800D01*
X575300Y9884400D01*
X2145000Y9884400D01*
X2145000Y9876800D01*
G37*
G36*
X2145000Y10478800D02*
G01*
X1375400Y10478800D01*
X1375400Y10486400D01*
X2145000Y10486400D01*
X2145000Y10478800D01*
G37*
G36*
X2137400Y7468900D02*
G01*
X1756400Y7468900D01*
X1756400Y7476500D01*
X2137400Y7476500D01*
X2137400Y7468900D01*
G37*
G36*
X2137400Y9739600D02*
G01*
X765800Y9739600D01*
X765800Y9747300D01*
X2137400Y9747300D01*
X2137400Y9739600D01*
G37*
G36*
X2129800Y9236700D02*
G01*
X1527800Y9236700D01*
X1527800Y9244300D01*
X2129800Y9244300D01*
X2129800Y9236700D01*
G37*
G36*
X2129800Y9747300D02*
G01*
X758200Y9747300D01*
X758200Y9754900D01*
X2129800Y9754900D01*
X2129800Y9747300D01*
G37*
G36*
X2129800Y9869200D02*
G01*
X590500Y9869200D01*
X590500Y9876800D01*
X2129800Y9876800D01*
X2129800Y9869200D01*
G37*
G36*
X2129800Y10486400D02*
G01*
X1405900Y10486400D01*
X1405900Y10494000D01*
X2129800Y10494000D01*
X2129800Y10486400D01*
G37*
G36*
X2122200Y7461300D02*
G01*
X1756400Y7461300D01*
X1756400Y7468900D01*
X2122200Y7468900D01*
X2122200Y7461300D01*
G37*
G36*
X2122200Y9754900D02*
G01*
X742900Y9754900D01*
X742900Y9762500D01*
X2122200Y9762500D01*
X2122200Y9754900D01*
G37*
G36*
X2122200Y9861600D02*
G01*
X598200Y9861600D01*
X598200Y9869200D01*
X2122200Y9869200D01*
X2122200Y9861600D01*
G37*
G36*
X2114500Y7453600D02*
G01*
X1764000Y7453600D01*
X1764000Y7461300D01*
X2114500Y7461300D01*
X2114500Y7453600D01*
G37*
G36*
X2114500Y9229100D02*
G01*
X1550700Y9229100D01*
X1550700Y9236700D01*
X2114500Y9236700D01*
X2114500Y9229100D01*
G37*
G36*
X2114500Y9762500D02*
G01*
X735300Y9762500D01*
X735300Y9770100D01*
X2114500Y9770100D01*
X2114500Y9762500D01*
G37*
G36*
X2114500Y9770100D02*
G01*
X727700Y9770100D01*
X727700Y9777700D01*
X2114500Y9777700D01*
X2114500Y9770100D01*
G37*
G36*
X2114500Y9853900D02*
G01*
X605800Y9853900D01*
X605800Y9861600D01*
X2114500Y9861600D01*
X2114500Y9853900D01*
G37*
G36*
X2114500Y10494000D02*
G01*
X1428700Y10494000D01*
X1428700Y10501600D01*
X2114500Y10501600D01*
X2114500Y10494000D01*
G37*
G36*
X2106900Y7446000D02*
G01*
X1764000Y7446000D01*
X1764000Y7453600D01*
X2106900Y7453600D01*
X2106900Y7446000D01*
G37*
G36*
X2106900Y9777700D02*
G01*
X712500Y9777700D01*
X712500Y9785400D01*
X2106900Y9785400D01*
X2106900Y9777700D01*
G37*
G36*
X2106900Y9846300D02*
G01*
X621000Y9846300D01*
X621000Y9853900D01*
X2106900Y9853900D01*
X2106900Y9846300D01*
G37*
G36*
X2099300Y9785400D02*
G01*
X704800Y9785400D01*
X704800Y9793000D01*
X2099300Y9793000D01*
X2099300Y9785400D01*
G37*
G36*
X2099300Y9793000D02*
G01*
X689600Y9793000D01*
X689600Y9800600D01*
X2099300Y9800600D01*
X2099300Y9793000D01*
G37*
G36*
X2099300Y9800600D02*
G01*
X682000Y9800600D01*
X682000Y9808200D01*
X2099300Y9808200D01*
X2099300Y9800600D01*
G37*
G36*
X2099300Y9808200D02*
G01*
X674400Y9808200D01*
X674400Y9815800D01*
X2099300Y9815800D01*
X2099300Y9808200D01*
G37*
G36*
X2099300Y9815800D02*
G01*
X659100Y9815800D01*
X659100Y9823500D01*
X2099300Y9823500D01*
X2099300Y9815800D01*
G37*
G36*
X2099300Y9823500D02*
G01*
X651500Y9823500D01*
X651500Y9831100D01*
X2099300Y9831100D01*
X2099300Y9823500D01*
G37*
G36*
X2099300Y9831100D02*
G01*
X636300Y9831100D01*
X636300Y9838700D01*
X2099300Y9838700D01*
X2099300Y9831100D01*
G37*
G36*
X2099300Y9838700D02*
G01*
X628600Y9838700D01*
X628600Y9846300D01*
X2099300Y9846300D01*
X2099300Y9838700D01*
G37*
G36*
X2091700Y7438400D02*
G01*
X1771600Y7438400D01*
X1771600Y7446000D01*
X2091700Y7446000D01*
X2091700Y7438400D01*
G37*
G36*
X2091700Y9221500D02*
G01*
X1573500Y9221500D01*
X1573500Y9229100D01*
X2091700Y9229100D01*
X2091700Y9221500D01*
G37*
G36*
X2091700Y10501600D02*
G01*
X1451600Y10501600D01*
X1451600Y10509300D01*
X2091700Y10509300D01*
X2091700Y10501600D01*
G37*
G36*
X2084100Y7430800D02*
G01*
X1779300Y7430800D01*
X1779300Y7438400D01*
X2084100Y7438400D01*
X2084100Y7430800D01*
G37*
G36*
X2076400Y10509300D02*
G01*
X1474500Y10509300D01*
X1474500Y10516900D01*
X2076400Y10516900D01*
X2076400Y10509300D01*
G37*
G36*
X2068800Y7423200D02*
G01*
X1779300Y7423200D01*
X1779300Y7430800D01*
X2068800Y7430800D01*
X2068800Y7423200D01*
G37*
G36*
X2068800Y9213900D02*
G01*
X1596400Y9213900D01*
X1596400Y9221500D01*
X2068800Y9221500D01*
X2068800Y9213900D01*
G37*
G36*
X2061200Y7415500D02*
G01*
X1786900Y7415500D01*
X1786900Y7423200D01*
X2061200Y7423200D01*
X2061200Y7415500D01*
G37*
G36*
X2053600Y7407900D02*
G01*
X1794500Y7407900D01*
X1794500Y7415500D01*
X2053600Y7415500D01*
X2053600Y7407900D01*
G37*
G36*
X2053600Y10516900D02*
G01*
X1497300Y10516900D01*
X1497300Y10524500D01*
X2053600Y10524500D01*
X2053600Y10516900D01*
G37*
G36*
X2046000Y9206200D02*
G01*
X1619200Y9206200D01*
X1619200Y9213900D01*
X2046000Y9213900D01*
X2046000Y9206200D01*
G37*
G36*
X2038300Y7400300D02*
G01*
X1809700Y7400300D01*
X1809700Y7407900D01*
X2038300Y7407900D01*
X2038300Y7400300D01*
G37*
G36*
X2023100Y7392700D02*
G01*
X1817400Y7392700D01*
X1817400Y7400300D01*
X2023100Y7400300D01*
X2023100Y7392700D01*
G37*
G36*
X2023100Y10524500D02*
G01*
X1527800Y10524500D01*
X1527800Y10532100D01*
X2023100Y10532100D01*
X2023100Y10524500D01*
G37*
G36*
X2015500Y7385100D02*
G01*
X1832600Y7385100D01*
X1832600Y7392700D01*
X2015500Y7392700D01*
X2015500Y7385100D01*
G37*
G36*
X2015500Y9198600D02*
G01*
X1649700Y9198600D01*
X1649700Y9206200D01*
X2015500Y9206200D01*
X2015500Y9198600D01*
G37*
G36*
X2000200Y7377400D02*
G01*
X1847800Y7377400D01*
X1847800Y7385100D01*
X2000200Y7385100D01*
X2000200Y7377400D01*
G37*
G36*
X2000200Y10532100D02*
G01*
X1565900Y10532100D01*
X1565900Y10539700D01*
X2000200Y10539700D01*
X2000200Y10532100D01*
G37*
G36*
X1985000Y9191000D02*
G01*
X1687800Y9191000D01*
X1687800Y9198600D01*
X1985000Y9198600D01*
X1985000Y9191000D01*
G37*
G36*
X1977400Y7369800D02*
G01*
X1863100Y7369800D01*
X1863100Y7377400D01*
X1977400Y7377400D01*
X1977400Y7369800D01*
G37*
G36*
X1962100Y10539700D02*
G01*
X1604000Y10539700D01*
X1604000Y10547400D01*
X1962100Y10547400D01*
X1962100Y10539700D01*
G37*
G36*
X1954500Y7362200D02*
G01*
X1885900Y7362200D01*
X1885900Y7369800D01*
X1954500Y7369800D01*
X1954500Y7362200D01*
G37*
G36*
X1946900Y9183400D02*
G01*
X1725900Y9183400D01*
X1725900Y9191000D01*
X1946900Y9191000D01*
X1946900Y9183400D01*
G37*
G36*
X1916400Y10547400D02*
G01*
X1657300Y10547400D01*
X1657300Y10555000D01*
X1916400Y10555000D01*
X1916400Y10547400D01*
G37*
G36*
X1878300Y9175800D02*
G01*
X1802100Y9175800D01*
X1802100Y9183400D01*
X1878300Y9183400D01*
X1878300Y9175800D01*
G37*
G36*
X1840200Y10555000D02*
G01*
X1741200Y10555000D01*
X1741200Y10562600D01*
X1840200Y10562600D01*
X1840200Y10555000D01*
G37*
%TD*%
%LPC*%
D14*
%TO.C,JP2*%
X17780000Y2540000D03*
X15240000Y2540000D03*
X12700000Y2540000D03*
X10160000Y2540000D03*
%TD*%
D15*
%TO.C,U$1*%
X2540000Y2540000D03*
%TD*%
%TO.C,U$4*%
X21590000Y16510000D03*
%TD*%
%TO.C,U$3*%
X21590000Y2540000D03*
%TD*%
%TO.C,U$2*%
X2540000Y16510000D03*
%TD*%
D16*
%TO.C,X1*%
X5264000Y12415000D03*
X5264000Y6635000D03*
D17*
X5764000Y13845000D03*
X5764000Y5205000D03*
X1584000Y13845000D03*
X1584000Y5205000D03*
%TD*%
D18*
%TO.C,X2*%
X25230000Y10525000D03*
X25230000Y8525000D03*
X25230000Y13025000D03*
D19*
X27940000Y2955000D03*
X27940000Y16095000D03*
D18*
X25230000Y6025000D03*
%TD*%
D14*
%TO.C,JP1*%
X17780000Y16510000D03*
X15240000Y16510000D03*
X12700000Y16510000D03*
X10160000Y16510000D03*
%TD*%
%LPD*%
M02*
