%TF.GenerationSoftware,KiCad,Pcbnew,10.99.0-3671-gbe90a7e200*%
%TF.CreationDate,2026-09-09T21:16:44+01:00*%
%TF.ProjectId,kicad_file,6b696361-645f-4666-996c-652e6b696361,rev?*%
%TF.SameCoordinates,Original*%
%TF.FileFunction,Soldermask,Top*%
%TF.FilePolarity,Negative*%
%FSLAX46Y46*%
G04 Gerber Fmt 4.6, Leading zero omitted, Abs format (unit mm)*
G04 Created by KiCad (PCBNEW 10.99.0-3671-gbe90a7e200) date 2026-09-09 21:16:44*
%MOMM*%
%LPD*%
G01*
G04 APERTURE LIST*
G04 Aperture macros list*
%AMRoundRect*
0 Rectangle with rounded corners*
0 $1 Rounding radius*
0 $2 $3 $4 $5 $6 $7 $8 $9 X,Y pos of 4 corners*
0 Add a 4 corners polygon primitive as box body*
4,1,4,$2,$3,$4,$5,$6,$7,$8,$9,$2,$3,0*
0 Add four circle primitives for the rounded corners*
1,1,$1+$1,$2,$3*
1,1,$1+$1,$4,$5*
1,1,$1+$1,$6,$7*
1,1,$1+$1,$8,$9*
0 Add four rect primitives between the rounded corners*
20,1,$1+$1,$2,$3,$4,$5,0*
20,1,$1+$1,$4,$5,$6,$7,0*
20,1,$1+$1,$6,$7,$8,$9,0*
20,1,$1+$1,$8,$9,$2,$3,0*%
G04 Aperture macros list end*
%ADD10C,0.469900*%
%ADD11C,0.000000*%
%ADD12C,2.508000*%
%ADD13RoundRect,0.050800X0.762000X-1.250000X0.762000X1.250000X-0.762000X1.250000X-0.762000X-1.250000X0*%
%ADD14RoundRect,0.050800X-0.762000X1.250000X-0.762000X-1.250000X0.762000X-1.250000X0.762000X1.250000X0*%
%ADD15RoundRect,0.050800X-0.762000X1.524000X-0.762000X-1.524000X0.762000X-1.524000X0.762000X1.524000X0*%
%ADD16RoundRect,0.050800X0.762000X-1.524000X0.762000X1.524000X-0.762000X1.524000X-0.762000X-1.524000X0*%
%ADD17RoundRect,0.050800X-0.537500X-0.500000X0.537500X-0.500000X0.537500X0.500000X-0.537500X0.500000X0*%
%ADD18RoundRect,0.550800X-0.000010X0.000010X-0.000010X-0.000010X0.000010X-0.000010X0.000010X0.000010X0*%
%ADD19RoundRect,0.050800X0.750000X-0.620000X0.750000X0.620000X-0.750000X0.620000X-0.750000X-0.620000X0*%
%ADD20RoundRect,0.050800X1.000000X-1.000000X1.000000X1.000000X-1.000000X1.000000X-1.000000X-1.000000X0*%
%ADD21C,3.301600*%
%ADD22RoundRect,0.050800X-1.000000X1.000000X-1.000000X-1.000000X1.000000X-1.000000X1.000000X1.000000X0*%
%ADD23RoundRect,0.050800X0.500000X-0.537500X0.500000X0.537500X-0.500000X0.537500X-0.500000X-0.537500X0*%
%ADD24C,1.508000*%
%ADD25RoundRect,0.050800X0.500000X0.750000X-0.500000X0.750000X-0.500000X-0.750000X0.500000X-0.750000X0*%
%ADD26RoundRect,0.050800X-0.275000X-0.600000X0.275000X-0.600000X0.275000X0.600000X-0.275000X0.600000X0*%
%ADD27RoundRect,0.050800X-0.500000X0.537500X-0.500000X-0.537500X0.500000X-0.537500X0.500000X0.537500X0*%
%ADD28RoundRect,0.050800X0.775000X0.300000X-0.775000X0.300000X-0.775000X-0.300000X0.775000X-0.300000X0*%
%ADD29RoundRect,0.050800X0.900000X0.600000X-0.900000X0.600000X-0.900000X-0.600000X0.900000X-0.600000X0*%
%ADD30RoundRect,0.050800X-0.600000X0.500000X-0.600000X-0.500000X0.600000X-0.500000X0.600000X0.500000X0*%
%ADD31RoundRect,0.050800X-0.350000X-0.750000X0.350000X-0.750000X0.350000X0.750000X-0.350000X0.750000X0*%
%ADD32RoundRect,0.050800X0.900000X-0.700000X0.900000X0.700000X-0.900000X0.700000X-0.900000X-0.700000X0*%
%ADD33RoundRect,0.050800X-0.700000X-0.950000X0.700000X-0.950000X0.700000X0.950000X-0.700000X0.950000X0*%
%ADD34RoundRect,0.050800X0.400000X-0.675000X0.400000X0.675000X-0.400000X0.675000X-0.400000X-0.675000X0*%
%ADD35RoundRect,0.050800X0.537500X0.500000X-0.537500X0.500000X-0.537500X-0.500000X0.537500X-0.500000X0*%
%ADD36RoundRect,0.050800X-0.750000X0.620000X-0.750000X-0.620000X0.750000X-0.620000X0.750000X0.620000X0*%
%ADD37RoundRect,0.050800X0.152400X0.495300X-0.152400X0.495300X-0.152400X-0.495300X0.152400X-0.495300X0*%
%ADD38RoundRect,0.050800X0.550000X-0.750000X0.550000X0.750000X-0.550000X0.750000X-0.550000X-0.750000X0*%
%ADD39RoundRect,0.050800X0.875000X0.500000X-0.875000X0.500000X-0.875000X-0.500000X0.875000X-0.500000X0*%
%ADD40RoundRect,0.050800X-0.500000X-0.700000X0.500000X-0.700000X0.500000X0.700000X-0.500000X0.700000X0*%
%ADD41RoundRect,0.368300X-0.952500X-1.587500X0.952500X-1.587500X0.952500X1.587500X-0.952500X1.587500X0*%
G04 APERTURE END LIST*
%TO.C,FID1*%
D10*
X48514000Y58916000D02*
G75*
G02*
X49264000Y58166000I0J-750000D01*
G01*
X49264000Y58166000D02*
G75*
G02*
X48514000Y57416000I-750000J0D01*
G01*
X47764000Y58166000D02*
G75*
G02*
X48514000Y58916000I750000J0D01*
G01*
X48514000Y57416000D02*
G75*
G02*
X47764000Y58166000I0J750000D01*
G01*
D11*
%TO.C,ICSP_CLK1*%
G36*
X48831500Y13271500D02*
G01*
X45910500Y13271500D01*
X45910500Y14922500D01*
X48831500Y14922500D01*
X48831500Y13271500D01*
G37*
%TO.C,FID3*%
D10*
X7112000Y63742000D02*
G75*
G02*
X7862000Y62992000I0J-750000D01*
G01*
X7862000Y62992000D02*
G75*
G02*
X7112000Y62242000I-750000J0D01*
G01*
X6362000Y62992000D02*
G75*
G02*
X7112000Y63742000I750000J0D01*
G01*
X7112000Y62242000D02*
G75*
G02*
X6362000Y62992000I0J750000D01*
G01*
D11*
%TO.C,ICSP_CLK2*%
G36*
X48831500Y16573500D02*
G01*
X45910500Y16573500D01*
X45910500Y18224500D01*
X48831500Y18224500D01*
X48831500Y16573500D01*
G37*
%TO.C,FID2*%
D10*
X6604000Y6973000D02*
G75*
G02*
X7354000Y6223000I0J-750000D01*
G01*
X7354000Y6223000D02*
G75*
G02*
X6604000Y5473000I-750000J0D01*
G01*
X5854000Y6223000D02*
G75*
G02*
X6604000Y6973000I750000J0D01*
G01*
X6604000Y5473000D02*
G75*
G02*
X5854000Y6223000I0J750000D01*
G01*
D11*
%TO.C,SJ3*%
G36*
X40132000Y52324000D02*
G01*
X38608000Y52324000D01*
X38608000Y54864000D01*
X40132000Y54864000D01*
X40132000Y52324000D01*
G37*
%TO.C,SJ1*%
G36*
X35052000Y52324000D02*
G01*
X33528000Y52324000D01*
X33528000Y54864000D01*
X35052000Y54864000D01*
X35052000Y52324000D01*
G37*
%TO.C,SJ2*%
G36*
X37592000Y52324000D02*
G01*
X36068000Y52324000D01*
X36068000Y54864000D01*
X37592000Y54864000D01*
X37592000Y52324000D01*
G37*
%TO.C,SJ4*%
G36*
X32512000Y52324000D02*
G01*
X30988000Y52324000D01*
X30988000Y54864000D01*
X32512000Y54864000D01*
X32512000Y52324000D01*
G37*
%TO.C,U$10*%
G36*
X14189000Y31066000D02*
G01*
X13889000Y31066000D01*
X13889000Y32366000D01*
X14189000Y32366000D01*
X14189000Y31066000D01*
G37*
G36*
X14689000Y31066000D02*
G01*
X14389000Y31066000D01*
X14389000Y32366000D01*
X14689000Y32366000D01*
X14689000Y31066000D01*
G37*
G36*
X15189000Y31066000D02*
G01*
X14889000Y31066000D01*
X14889000Y32366000D01*
X15189000Y32366000D01*
X15189000Y31066000D01*
G37*
G36*
X15689000Y31066000D02*
G01*
X15389000Y31066000D01*
X15389000Y32366000D01*
X15689000Y32366000D01*
X15689000Y31066000D01*
G37*
G36*
X16189000Y31066000D02*
G01*
X15889000Y31066000D01*
X15889000Y32366000D01*
X16189000Y32366000D01*
X16189000Y31066000D01*
G37*
G36*
X16689000Y31066000D02*
G01*
X16389000Y31066000D01*
X16389000Y32366000D01*
X16689000Y32366000D01*
X16689000Y31066000D01*
G37*
G36*
X17189000Y31066000D02*
G01*
X16889000Y31066000D01*
X16889000Y32366000D01*
X17189000Y32366000D01*
X17189000Y31066000D01*
G37*
G36*
X17689000Y31066000D02*
G01*
X17389000Y31066000D01*
X17389000Y32366000D01*
X17689000Y32366000D01*
X17689000Y31066000D01*
G37*
G36*
X18189000Y31066000D02*
G01*
X17889000Y31066000D01*
X17889000Y32366000D01*
X18189000Y32366000D01*
X18189000Y31066000D01*
G37*
G36*
X18689000Y31066000D02*
G01*
X18389000Y31066000D01*
X18389000Y32366000D01*
X18689000Y32366000D01*
X18689000Y31066000D01*
G37*
G36*
X19189000Y31066000D02*
G01*
X18889000Y31066000D01*
X18889000Y32366000D01*
X19189000Y32366000D01*
X19189000Y31066000D01*
G37*
G36*
X19689000Y31066000D02*
G01*
X19389000Y31066000D01*
X19389000Y32366000D01*
X19689000Y32366000D01*
X19689000Y31066000D01*
G37*
G36*
X20189000Y31066000D02*
G01*
X19889000Y31066000D01*
X19889000Y32366000D01*
X20189000Y32366000D01*
X20189000Y31066000D01*
G37*
G36*
X20689000Y31066000D02*
G01*
X20389000Y31066000D01*
X20389000Y32366000D01*
X20689000Y32366000D01*
X20689000Y31066000D01*
G37*
G36*
X21189000Y31066000D02*
G01*
X20889000Y31066000D01*
X20889000Y32366000D01*
X21189000Y32366000D01*
X21189000Y31066000D01*
G37*
G36*
X21689000Y31066000D02*
G01*
X21389000Y31066000D01*
X21389000Y32366000D01*
X21689000Y32366000D01*
X21689000Y31066000D01*
G37*
G36*
X22189000Y31066000D02*
G01*
X21889000Y31066000D01*
X21889000Y32366000D01*
X22189000Y32366000D01*
X22189000Y31066000D01*
G37*
G36*
X22689000Y31066000D02*
G01*
X22389000Y31066000D01*
X22389000Y32366000D01*
X22689000Y32366000D01*
X22689000Y31066000D01*
G37*
G36*
X23189000Y31066000D02*
G01*
X22889000Y31066000D01*
X22889000Y32366000D01*
X23189000Y32366000D01*
X23189000Y31066000D01*
G37*
G36*
X23689000Y31066000D02*
G01*
X23389000Y31066000D01*
X23389000Y32366000D01*
X23689000Y32366000D01*
X23689000Y31066000D01*
G37*
G36*
X24189000Y31066000D02*
G01*
X23889000Y31066000D01*
X23889000Y32366000D01*
X24189000Y32366000D01*
X24189000Y31066000D01*
G37*
G36*
X24689000Y31066000D02*
G01*
X24389000Y31066000D01*
X24389000Y32366000D01*
X24689000Y32366000D01*
X24689000Y31066000D01*
G37*
G36*
X25189000Y31066000D02*
G01*
X24889000Y31066000D01*
X24889000Y32366000D01*
X25189000Y32366000D01*
X25189000Y31066000D01*
G37*
G36*
X25689000Y31066000D02*
G01*
X25389000Y31066000D01*
X25389000Y32366000D01*
X25689000Y32366000D01*
X25689000Y31066000D01*
G37*
G36*
X26189000Y31066000D02*
G01*
X25889000Y31066000D01*
X25889000Y32366000D01*
X26189000Y32366000D01*
X26189000Y31066000D01*
G37*
G36*
X26689000Y31066000D02*
G01*
X26389000Y31066000D01*
X26389000Y32366000D01*
X26689000Y32366000D01*
X26689000Y31066000D01*
G37*
G36*
X27189000Y31066000D02*
G01*
X26889000Y31066000D01*
X26889000Y32366000D01*
X27189000Y32366000D01*
X27189000Y31066000D01*
G37*
G36*
X27689000Y31066000D02*
G01*
X27389000Y31066000D01*
X27389000Y32366000D01*
X27689000Y32366000D01*
X27689000Y31066000D01*
G37*
G36*
X28189000Y31066000D02*
G01*
X27889000Y31066000D01*
X27889000Y32366000D01*
X28189000Y32366000D01*
X28189000Y31066000D01*
G37*
G36*
X28689000Y31066000D02*
G01*
X28389000Y31066000D01*
X28389000Y32366000D01*
X28689000Y32366000D01*
X28689000Y31066000D01*
G37*
G36*
X29189000Y31066000D02*
G01*
X28889000Y31066000D01*
X28889000Y32366000D01*
X29189000Y32366000D01*
X29189000Y31066000D01*
G37*
G36*
X29689000Y31066000D02*
G01*
X29389000Y31066000D01*
X29389000Y32366000D01*
X29689000Y32366000D01*
X29689000Y31066000D01*
G37*
G36*
X30189000Y31066000D02*
G01*
X29889000Y31066000D01*
X29889000Y32366000D01*
X30189000Y32366000D01*
X30189000Y31066000D01*
G37*
G36*
X30689000Y31066000D02*
G01*
X30389000Y31066000D01*
X30389000Y32366000D01*
X30689000Y32366000D01*
X30689000Y31066000D01*
G37*
G36*
X31189000Y31066000D02*
G01*
X30889000Y31066000D01*
X30889000Y32366000D01*
X31189000Y32366000D01*
X31189000Y31066000D01*
G37*
G36*
X31689000Y31066000D02*
G01*
X31389000Y31066000D01*
X31389000Y32366000D01*
X31689000Y32366000D01*
X31689000Y31066000D01*
G37*
G36*
X32189000Y31066000D02*
G01*
X31889000Y31066000D01*
X31889000Y32366000D01*
X32189000Y32366000D01*
X32189000Y31066000D01*
G37*
G36*
X32689000Y31066000D02*
G01*
X32389000Y31066000D01*
X32389000Y32366000D01*
X32689000Y32366000D01*
X32689000Y31066000D01*
G37*
G36*
X33189000Y31066000D02*
G01*
X32889000Y31066000D01*
X32889000Y32366000D01*
X33189000Y32366000D01*
X33189000Y31066000D01*
G37*
G36*
X33689000Y31066000D02*
G01*
X33389000Y31066000D01*
X33389000Y32366000D01*
X33689000Y32366000D01*
X33689000Y31066000D01*
G37*
G36*
X34189000Y31066000D02*
G01*
X33889000Y31066000D01*
X33889000Y32366000D01*
X34189000Y32366000D01*
X34189000Y31066000D01*
G37*
G36*
X34689000Y31066000D02*
G01*
X34389000Y31066000D01*
X34389000Y32366000D01*
X34689000Y32366000D01*
X34689000Y31066000D01*
G37*
G36*
X35189000Y31066000D02*
G01*
X34889000Y31066000D01*
X34889000Y32366000D01*
X35189000Y32366000D01*
X35189000Y31066000D01*
G37*
G36*
X35689000Y31066000D02*
G01*
X35389000Y31066000D01*
X35389000Y32366000D01*
X35689000Y32366000D01*
X35689000Y31066000D01*
G37*
G36*
X36189000Y31066000D02*
G01*
X35889000Y31066000D01*
X35889000Y32366000D01*
X36189000Y32366000D01*
X36189000Y31066000D01*
G37*
G36*
X36689000Y31066000D02*
G01*
X36389000Y31066000D01*
X36389000Y32366000D01*
X36689000Y32366000D01*
X36689000Y31066000D01*
G37*
G36*
X37189000Y31066000D02*
G01*
X36889000Y31066000D01*
X36889000Y32366000D01*
X37189000Y32366000D01*
X37189000Y31066000D01*
G37*
G36*
X37689000Y31066000D02*
G01*
X37389000Y31066000D01*
X37389000Y32366000D01*
X37689000Y32366000D01*
X37689000Y31066000D01*
G37*
G36*
X38189000Y31066000D02*
G01*
X37889000Y31066000D01*
X37889000Y32366000D01*
X38189000Y32366000D01*
X38189000Y31066000D01*
G37*
G36*
X38689000Y31066000D02*
G01*
X38389000Y31066000D01*
X38389000Y32366000D01*
X38689000Y32366000D01*
X38689000Y31066000D01*
G37*
%TD*%
D12*
%TO.C,MS2*%
X7620000Y37719000D03*
X17780000Y60579000D03*
X43180000Y60579000D03*
X43180000Y37719000D03*
D13*
X6350000Y40132000D03*
X6350000Y35306000D03*
D14*
X8890000Y40132000D03*
D13*
X8890000Y35306000D03*
D15*
X11430000Y39878000D03*
D16*
X11430000Y35560000D03*
D15*
X13970000Y39878000D03*
D16*
X13970000Y35560000D03*
D15*
X16510000Y39878000D03*
D16*
X16510000Y35560000D03*
D15*
X19050000Y39878000D03*
D16*
X19050000Y35560000D03*
D15*
X21590000Y39878000D03*
D16*
X21590000Y35560000D03*
D15*
X24130000Y39878000D03*
D16*
X24130000Y35560000D03*
D15*
X26670000Y39878000D03*
D16*
X26670000Y35560000D03*
D15*
X29210000Y39878000D03*
D16*
X29210000Y35560000D03*
D15*
X31750000Y39878000D03*
D16*
X31750000Y35560000D03*
D15*
X34290000Y39878000D03*
D16*
X34290000Y35560000D03*
D15*
X36830000Y39878000D03*
D16*
X36830000Y35560000D03*
D15*
X39370000Y39878000D03*
D16*
X39370000Y35560000D03*
D14*
X41910000Y40132000D03*
D13*
X41910000Y35306000D03*
D14*
X44450000Y40132000D03*
D13*
X44450000Y35306000D03*
X44450000Y58166000D03*
D14*
X44450000Y62992000D03*
D13*
X41910000Y58166000D03*
D14*
X41910000Y62992000D03*
D16*
X39370000Y58420000D03*
D15*
X39370000Y62738000D03*
D16*
X36830000Y58420000D03*
D15*
X36830000Y62738000D03*
D16*
X34290000Y58420000D03*
D15*
X34290000Y62738000D03*
D16*
X31750000Y58420000D03*
D15*
X31750000Y62738000D03*
D16*
X29210000Y58420000D03*
D15*
X29210000Y62738000D03*
D16*
X26670000Y58420000D03*
D15*
X26670000Y62738000D03*
D16*
X24130000Y58420000D03*
D15*
X24130000Y62738000D03*
D16*
X21590000Y58420000D03*
D15*
X21590000Y62738000D03*
D13*
X19050000Y58166000D03*
D14*
X19050000Y62992000D03*
D13*
X16510000Y58166000D03*
X16510000Y62992000D03*
%TD*%
D17*
%TO.C,R3*%
X5754000Y21082000D03*
X7454000Y21082000D03*
%TD*%
D18*
%TO.C,FID1*%
X48514000Y58166000D03*
%TD*%
D19*
%TO.C,C5*%
X48514000Y25974000D03*
X48514000Y27874000D03*
%TD*%
D20*
%TO.C,TP11*%
X21590000Y43180000D03*
%TD*%
%TO.C,TP24*%
X26670000Y55118000D03*
%TD*%
D17*
%TO.C,C4*%
X5754000Y27178000D03*
X7454000Y27178000D03*
%TD*%
%TO.C,R11*%
X11469000Y52959000D03*
X13169000Y52959000D03*
%TD*%
D21*
%TO.C,U$15*%
X2540000Y2540000D03*
%TD*%
D20*
%TO.C,TP27*%
X44450000Y55118000D03*
%TD*%
D22*
%TO.C,TP2*%
X43688000Y22225000D03*
%TD*%
D23*
%TO.C,R7*%
X8255000Y15406000D03*
X8255000Y17106000D03*
%TD*%
D20*
%TO.C,TP13*%
X26670000Y43180000D03*
%TD*%
%TO.C,TP25*%
X29210000Y55118000D03*
%TD*%
D24*
%TO.C,SW2*%
X22328000Y4064000D03*
X19328000Y4064000D03*
D25*
X23328000Y1264000D03*
X23328000Y6864000D03*
X20828000Y1264000D03*
X20828000Y6864000D03*
X18328000Y1264000D03*
X18328000Y6864000D03*
%TD*%
D26*
%TO.C,U2*%
X46929000Y21686900D03*
X47879000Y21686900D03*
X48829000Y21686900D03*
X48829000Y24287100D03*
X46929000Y24287100D03*
%TD*%
D27*
%TO.C,R5*%
X33020000Y50126000D03*
X33020000Y48426000D03*
%TD*%
D20*
%TO.C,TP7*%
X13970000Y43180000D03*
%TD*%
D27*
%TO.C,C2*%
X48514000Y32219000D03*
X48514000Y30519000D03*
%TD*%
D28*
%TO.C,CONN1*%
X47524000Y47649000D03*
X47524000Y48649000D03*
X47524000Y49649000D03*
X47524000Y50649000D03*
D29*
X51424000Y46349000D03*
X51424000Y51949000D03*
%TD*%
D20*
%TO.C,TP21*%
X16510000Y55118000D03*
%TD*%
D30*
%TO.C,Q4*%
X5858000Y31430000D03*
X5858000Y29530000D03*
X7858000Y30480000D03*
%TD*%
D21*
%TO.C,U$9*%
X2540000Y62230000D03*
%TD*%
D20*
%TO.C,TP19*%
X41910000Y43180000D03*
%TD*%
D31*
%TO.C,X2*%
X38972000Y5235000D03*
X37872000Y5635000D03*
X36772000Y5235000D03*
X35672000Y4835000D03*
X34572000Y5235000D03*
X33472000Y4835000D03*
X32372000Y5235000D03*
X31272000Y5235000D03*
D32*
X31972000Y15435000D03*
X37591000Y15435000D03*
D33*
X30372000Y2335000D03*
X43572000Y1435000D03*
%TD*%
D22*
%TO.C,TP5*%
X8890000Y43180000D03*
%TD*%
D23*
%TO.C,R9*%
X43561000Y50077000D03*
X43561000Y51777000D03*
%TD*%
D34*
%TO.C,D1*%
X8636000Y12573000D03*
X8636000Y10033000D03*
%TD*%
D20*
%TO.C,TP23*%
X24130000Y55118000D03*
%TD*%
%TO.C,TP26*%
X41910000Y55118000D03*
%TD*%
%TO.C,TP9*%
X19050000Y43180000D03*
%TD*%
%TO.C,TP15*%
X31750000Y43180000D03*
%TD*%
D35*
%TO.C,R14*%
X48348000Y19050000D03*
X46648000Y19050000D03*
%TD*%
D18*
%TO.C,FID3*%
X7112000Y62992000D03*
%TD*%
D20*
%TO.C,TP16*%
X34290000Y43180000D03*
%TD*%
D17*
%TO.C,R10*%
X14771000Y52959000D03*
X16471000Y52959000D03*
%TD*%
%TO.C,R1*%
X5754000Y25146000D03*
X7454000Y25146000D03*
%TD*%
D20*
%TO.C,TP8*%
X16510000Y43180000D03*
%TD*%
D23*
%TO.C,R12*%
X4191000Y29249000D03*
X4191000Y30949000D03*
%TD*%
D27*
%TO.C,R6*%
X40513000Y49999000D03*
X40513000Y48299000D03*
%TD*%
D22*
%TO.C,TP4*%
X6350000Y43180000D03*
%TD*%
D20*
%TO.C,TP12*%
X24130000Y43180000D03*
%TD*%
D22*
%TO.C,TP6*%
X11430000Y43180000D03*
%TD*%
D20*
%TO.C,TP14*%
X29210000Y43180000D03*
%TD*%
%TO.C,TP17*%
X36830000Y43180000D03*
%TD*%
D18*
%TO.C,FID2*%
X6604000Y6223000D03*
%TD*%
D20*
%TO.C,TP10*%
X19050000Y55118000D03*
%TD*%
D36*
%TO.C,C3*%
X28194000Y3998000D03*
X28194000Y2098000D03*
%TD*%
D20*
%TO.C,TP22*%
X21590000Y55118000D03*
%TD*%
D17*
%TO.C,R4*%
X5754000Y19050000D03*
X7454000Y19050000D03*
%TD*%
D37*
%TO.C,IC1*%
X47106000Y31492800D03*
X46456000Y31492800D03*
X45806000Y31492800D03*
X45156000Y31492800D03*
X44506000Y31492800D03*
X43856000Y31492800D03*
X43206000Y31492800D03*
X42556000Y31492800D03*
X42556000Y25657200D03*
X43206000Y25657200D03*
X43856000Y25657200D03*
X44506000Y25657200D03*
X45156000Y25657200D03*
X45806000Y25657200D03*
X46456000Y25657200D03*
X47106000Y25657200D03*
%TD*%
D20*
%TO.C,TP20*%
X44450000Y43180000D03*
%TD*%
D35*
%TO.C,R13*%
X48348000Y15748000D03*
X46648000Y15748000D03*
%TD*%
D21*
%TO.C,U$11*%
X50038000Y62230000D03*
%TD*%
D19*
%TO.C,C6*%
X3937000Y32451000D03*
X3937000Y34351000D03*
%TD*%
D17*
%TO.C,R2*%
X5754000Y23114000D03*
X7454000Y23114000D03*
%TD*%
D21*
%TO.C,U$17*%
X50038000Y2540000D03*
%TD*%
D24*
%TO.C,SW3*%
X11310000Y1478000D03*
X9010000Y1478000D03*
D38*
X8060000Y2678000D03*
X12260000Y2678000D03*
D39*
X6985000Y878000D03*
X13235000Y878000D03*
%TD*%
D35*
%TO.C,C1*%
X6692000Y11684000D03*
X4992000Y11684000D03*
%TD*%
D23*
%TO.C,R8*%
X41910000Y51347000D03*
X41910000Y53047000D03*
%TD*%
D20*
%TO.C,TP18*%
X39370000Y43180000D03*
%TD*%
D40*
%TO.C,IC5*%
X4765000Y15029000D03*
X6665000Y15029000D03*
X5715000Y17229000D03*
%TD*%
D22*
%TO.C,TP3*%
X43688000Y17907000D03*
%TD*%
D41*
%TO.C,U$10*%
X11939000Y29591000D03*
X40639000Y29591000D03*
%TD*%
M02*
