ISO-10303-21;
HEADER;
FILE_DESCRIPTION(('KiCad electronic assembly'),'2;1');
FILE_NAME('model.step','1970-01-01T00:00:00',('Pcbnew'),('Kicad'),
  'Open CASCADE STEP processor 7.9','KiCad to STEP converter','Unknown'
  );
FILE_SCHEMA(('AUTOMOTIVE_DESIGN { 1 0 10303 214 1 1 1 1 }'));
ENDSEC;
DATA;
#1 = APPLICATION_PROTOCOL_DEFINITION('international standard',
  'automotive_design',2000,#2);
#2 = APPLICATION_CONTEXT(
  'core data for automotive mechanical design processes');
#3 = SHAPE_DEFINITION_REPRESENTATION(#4,#10);
#4 = PRODUCT_DEFINITION_SHAPE('','',#5);
#5 = PRODUCT_DEFINITION('design','',#6,#9);
#6 = PRODUCT_DEFINITION_FORMATION('','',#7);
#7 = PRODUCT('model 1','model 1','',(#8));
#8 = PRODUCT_CONTEXT('',#2,'mechanical');
#9 = PRODUCT_DEFINITION_CONTEXT('part definition',#2,'design');
#10 = SHAPE_REPRESENTATION('',(#11,#15,#19,#23),#27);
#11 = AXIS2_PLACEMENT_3D('',#12,#13,#14);
#12 = CARTESIAN_POINT('',(0.,0.,0.));
#13 = DIRECTION('',(0.,0.,1.));
#14 = DIRECTION('',(1.,0.,-0.));
#15 = AXIS2_PLACEMENT_3D('',#16,#17,#18);
#16 = CARTESIAN_POINT('',(0.,0.,1.595));
#17 = DIRECTION('',(0.,0.,1.));
#18 = DIRECTION('',(1.,0.,0.));
#19 = AXIS2_PLACEMENT_3D('',#20,#21,#22);
#20 = CARTESIAN_POINT('',(0.,0.,0.));
#21 = DIRECTION('',(0.,0.,1.));
#22 = DIRECTION('',(1.,0.,-0.));
#23 = AXIS2_PLACEMENT_3D('',#24,#25,#26);
#24 = CARTESIAN_POINT('',(0.,0.,0.));
#25 = DIRECTION('',(0.,0.,1.));
#26 = DIRECTION('',(1.,0.,-0.));
#27 = ( GEOMETRIC_REPRESENTATION_CONTEXT(3) 
GLOBAL_UNCERTAINTY_ASSIGNED_CONTEXT((#31)) GLOBAL_UNIT_ASSIGNED_CONTEXT(
(#28,#29,#30)) REPRESENTATION_CONTEXT('Context #1',
  '3D Context with UNIT and UNCERTAINTY') );
#28 = ( LENGTH_UNIT() NAMED_UNIT(*) SI_UNIT(.MILLI.,.METRE.) );
#29 = ( NAMED_UNIT(*) PLANE_ANGLE_UNIT() SI_UNIT($,.RADIAN.) );
#30 = ( NAMED_UNIT(*) SI_UNIT($,.STERADIAN.) SOLID_ANGLE_UNIT() );
#31 = UNCERTAINTY_MEASURE_WITH_UNIT(LENGTH_MEASURE(1.E-07),#28,
  'distance_accuracy_value','confusion accuracy');
#32 = PRODUCT_RELATED_PRODUCT_CATEGORY('part',$,(#7));
#33 = SHAPE_DEFINITION_REPRESENTATION(#34,#40);
#34 = PRODUCT_DEFINITION_SHAPE('','',#35);
#35 = PRODUCT_DEFINITION('design','',#36,#39);
#36 = PRODUCT_DEFINITION_FORMATION('','',#37);
#37 = PRODUCT('D_DO-35_SOD27_P7.62mm_Horizontal',
  'D_DO-35_SOD27_P7.62mm_Horizontal','',(#38));
#38 = PRODUCT_CONTEXT('',#2,'mechanical');
#39 = PRODUCT_DEFINITION_CONTEXT('part definition',#2,'design');
#40 = SHAPE_REPRESENTATION('',(#11,#41),#45);
#41 = AXIS2_PLACEMENT_3D('',#42,#43,#44);
#42 = CARTESIAN_POINT('',(0.,0.,0.));
#43 = DIRECTION('',(0.,0.,1.));
#44 = DIRECTION('',(1.,0.,-0.));
#45 = ( GEOMETRIC_REPRESENTATION_CONTEXT(3) 
GLOBAL_UNCERTAINTY_ASSIGNED_CONTEXT((#49)) GLOBAL_UNIT_ASSIGNED_CONTEXT(
(#46,#47,#48)) REPRESENTATION_CONTEXT('Context #1',
  '3D Context with UNIT and UNCERTAINTY') );
#46 = ( LENGTH_UNIT() NAMED_UNIT(*) SI_UNIT(.MILLI.,.METRE.) );
#47 = ( NAMED_UNIT(*) PLANE_ANGLE_UNIT() SI_UNIT($,.RADIAN.) );
#48 = ( NAMED_UNIT(*) SI_UNIT($,.STERADIAN.) SOLID_ANGLE_UNIT() );
#49 = UNCERTAINTY_MEASURE_WITH_UNIT(LENGTH_MEASURE(1.E-07),#46,
  'distance_accuracy_value','confusion accuracy');
#50 = CONTEXT_DEPENDENT_SHAPE_REPRESENTATION(#51,#53);
#51 = ( REPRESENTATION_RELATIONSHIP('','',#40,#10) 
REPRESENTATION_RELATIONSHIP_WITH_TRANSFORMATION(#52) 
SHAPE_REPRESENTATION_RELATIONSHIP() );
#52 = ITEM_DEFINED_TRANSFORMATION('','',#11,#15);
#53 = PRODUCT_DEFINITION_SHAPE('Placement','Placement of an item',#54);
#54 = NEXT_ASSEMBLY_USAGE_OCCURRENCE('2','REF**','',#5,#35,$);
#55 = PRODUCT_RELATED_PRODUCT_CATEGORY('part',$,(#37));
#56 = SHAPE_DEFINITION_REPRESENTATION(#57,#63);
#57 = PRODUCT_DEFINITION_SHAPE('','',#58);
#58 = PRODUCT_DEFINITION('design','',#59,#62);
#59 = PRODUCT_DEFINITION_FORMATION('','',#60);
#60 = PRODUCT('D_DO-35_SOD27_P7.62mm_Horizontal',
  'D_DO-35_SOD27_P7.62mm_Horizontal','',(#61));
#61 = PRODUCT_CONTEXT('',#2,'mechanical');
#62 = PRODUCT_DEFINITION_CONTEXT('part definition',#2,'design');
#63 = SHAPE_REPRESENTATION('',(#11,#64,#219),#414);
#64 = MANIFOLD_SOLID_BREP('',#65);
#65 = CLOSED_SHELL('',(#66,#99,#125,#150,#176,#201,#210));
#66 = ADVANCED_FACE('',(#67),#94,.T.);
#67 = FACE_BOUND('',#68,.T.);
#68 = EDGE_LOOP('',(#69,#79,#86,#87));
#69 = ORIENTED_EDGE('',*,*,#70,.T.);
#70 = EDGE_CURVE('',#71,#73,#75,.T.);
#71 = VERTEX_POINT('',#72);
#72 = CARTESIAN_POINT('',(0.25,0.,-2.5));
#73 = VERTEX_POINT('',#74);
#74 = CARTESIAN_POINT('',(0.25,1.E-15,1.));
#75 = LINE('',#76,#77);
#76 = CARTESIAN_POINT('',(0.25,6.7E-16,1.));
#77 = VECTOR('',#78,1.);
#78 = DIRECTION('',(0.,2.2E-16,1.));
#79 = ORIENTED_EDGE('',*,*,#80,.F.);
#80 = EDGE_CURVE('',#73,#73,#81,.T.);
#81 = CIRCLE('',#82,0.25);
#82 = AXIS2_PLACEMENT_3D('',#83,#84,#85);
#83 = CARTESIAN_POINT('',(0.,6.7E-16,1.));
#84 = DIRECTION('',(-0.,2.2E-16,1.));
#85 = DIRECTION('',(1.,0.,0.));
#86 = ORIENTED_EDGE('',*,*,#70,.F.);
#87 = ORIENTED_EDGE('',*,*,#88,.T.);
#88 = EDGE_CURVE('',#71,#71,#89,.T.);
#89 = CIRCLE('',#90,0.25);
#90 = AXIS2_PLACEMENT_3D('',#91,#92,#93);
#91 = CARTESIAN_POINT('',(0.,-1.1E-16,-2.5));
#92 = DIRECTION('',(-0.,2.2E-16,1.));
#93 = DIRECTION('',(1.,0.,0.));
#94 = CYLINDRICAL_SURFACE('',#95,0.25);
#95 = AXIS2_PLACEMENT_3D('',#96,#97,#98);
#96 = CARTESIAN_POINT('',(0.,6.7E-16,1.));
#97 = DIRECTION('',(0.,2.2E-16,1.));
#98 = DIRECTION('',(1.,0.,-0.));
#99 = ADVANCED_FACE('',(#100),#120,.T.);
#100 = FACE_BOUND('',#101,.T.);
#101 = EDGE_LOOP('',(#102,#111,#118,#119));
#102 = ORIENTED_EDGE('',*,*,#103,.T.);
#103 = EDGE_CURVE('',#73,#104,#106,.T.);
#104 = VERTEX_POINT('',#105);
#105 = CARTESIAN_POINT('',(0.5,1.E-15,1.25));
#106 = CIRCLE('',#107,0.25);
#107 = AXIS2_PLACEMENT_3D('',#108,#109,#110);
#108 = CARTESIAN_POINT('',(0.5,7.6E-16,1.));
#109 = DIRECTION('',(0.,1.,-2.2E-16));
#110 = DIRECTION('',(1.,0.,0.));
#111 = ORIENTED_EDGE('',*,*,#112,.T.);
#112 = EDGE_CURVE('',#104,#104,#113,.T.);
#113 = CIRCLE('',#114,0.25);
#114 = AXIS2_PLACEMENT_3D('',#115,#116,#117);
#115 = CARTESIAN_POINT('',(0.5,7.8E-16,1.5));
#116 = DIRECTION('',(-1.,0.,-1.8E-16));
#117 = DIRECTION('',(-1.8E-16,2.2E-16,1.));
#118 = ORIENTED_EDGE('',*,*,#103,.F.);
#119 = ORIENTED_EDGE('',*,*,#80,.T.);
#120 = TOROIDAL_SURFACE('',#121,0.5,0.25);
#121 = AXIS2_PLACEMENT_3D('',#122,#123,#124);
#122 = CARTESIAN_POINT('',(0.5,6.7E-16,1.));
#123 = DIRECTION('',(0.,1.,-2.2E-16));
#124 = DIRECTION('',(1.,0.,0.));
#125 = ADVANCED_FACE('',(#126),#145,.T.);
#126 = FACE_BOUND('',#127,.T.);
#127 = EDGE_LOOP('',(#128,#136,#143,#144));
#128 = ORIENTED_EDGE('',*,*,#129,.T.);
#129 = EDGE_CURVE('',#104,#130,#132,.T.);
#130 = VERTEX_POINT('',#131);
#131 = CARTESIAN_POINT('',(7.12,1.E-15,1.25));
#132 = LINE('',#133,#134);
#133 = CARTESIAN_POINT('',(0.5,7.2E-16,1.25));
#134 = VECTOR('',#135,1.);
#135 = DIRECTION('',(1.,0.,0.));
#136 = ORIENTED_EDGE('',*,*,#137,.F.);
#137 = EDGE_CURVE('',#130,#130,#138,.T.);
#138 = CIRCLE('',#139,0.25);
#139 = AXIS2_PLACEMENT_3D('',#140,#141,#142);
#140 = CARTESIAN_POINT('',(7.12,7.8E-16,1.5));
#141 = DIRECTION('',(1.,0.,0.));
#142 = DIRECTION('',(0.,-2.2E-16,-1.));
#143 = ORIENTED_EDGE('',*,*,#129,.F.);
#144 = ORIENTED_EDGE('',*,*,#112,.F.);
#145 = CYLINDRICAL_SURFACE('',#146,0.25);
#146 = AXIS2_PLACEMENT_3D('',#147,#148,#149);
#147 = CARTESIAN_POINT('',(0.5,7.8E-16,1.5));
#148 = DIRECTION('',(1.,0.,0.));
#149 = DIRECTION('',(0.,-2.2E-16,-1.));
#150 = ADVANCED_FACE('',(#151),#171,.T.);
#151 = FACE_BOUND('',#152,.T.);
#152 = EDGE_LOOP('',(#153,#162,#169,#170));
#153 = ORIENTED_EDGE('',*,*,#154,.T.);
#154 = EDGE_CURVE('',#130,#155,#157,.T.);
#155 = VERTEX_POINT('',#156);
#156 = CARTESIAN_POINT('',(7.37,1.E-15,1.));
#157 = CIRCLE('',#158,0.25);
#158 = AXIS2_PLACEMENT_3D('',#159,#160,#161);
#159 = CARTESIAN_POINT('',(7.12,7.6E-16,1.));
#160 = DIRECTION('',(0.,1.,-2.2E-16));
#161 = DIRECTION('',(1.,0.,0.));
#162 = ORIENTED_EDGE('',*,*,#163,.T.);
#163 = EDGE_CURVE('',#155,#155,#164,.T.);
#164 = CIRCLE('',#165,0.25);
#165 = AXIS2_PLACEMENT_3D('',#166,#167,#168);
#166 = CARTESIAN_POINT('',(7.62,6.7E-16,1.));
#167 = DIRECTION('',(-2.4E-16,2.2E-16,1.));
#168 = DIRECTION('',(1.,0.,2.4E-16));
#169 = ORIENTED_EDGE('',*,*,#154,.F.);
#170 = ORIENTED_EDGE('',*,*,#137,.T.);
#171 = TOROIDAL_SURFACE('',#172,0.5,0.25);
#172 = AXIS2_PLACEMENT_3D('',#173,#174,#175);
#173 = CARTESIAN_POINT('',(7.12,6.7E-16,1.));
#174 = DIRECTION('',(0.,1.,-2.2E-16));
#175 = DIRECTION('',(1.,0.,0.));
#176 = ADVANCED_FACE('',(#177),#196,.T.);
#177 = FACE_BOUND('',#178,.T.);
#178 = EDGE_LOOP('',(#179,#187,#194,#195));
#179 = ORIENTED_EDGE('',*,*,#180,.T.);
#180 = EDGE_CURVE('',#155,#181,#183,.T.);
#181 = VERTEX_POINT('',#182);
#182 = CARTESIAN_POINT('',(7.37,0.,-2.5));
#183 = LINE('',#184,#185);
#184 = CARTESIAN_POINT('',(7.37,6.7E-16,1.));
#185 = VECTOR('',#186,1.);
#186 = DIRECTION('',(0.,-2.2E-16,-1.));
#187 = ORIENTED_EDGE('',*,*,#188,.F.);
#188 = EDGE_CURVE('',#181,#181,#189,.T.);
#189 = CIRCLE('',#190,0.25);
#190 = AXIS2_PLACEMENT_3D('',#191,#192,#193);
#191 = CARTESIAN_POINT('',(7.62,-1.1E-16,-2.5));
#192 = DIRECTION('',(-0.,-2.2E-16,-1.));
#193 = DIRECTION('',(-1.,0.,0.));
#194 = ORIENTED_EDGE('',*,*,#180,.F.);
#195 = ORIENTED_EDGE('',*,*,#163,.F.);
#196 = CYLINDRICAL_SURFACE('',#197,0.25);
#197 = AXIS2_PLACEMENT_3D('',#198,#199,#200);
#198 = CARTESIAN_POINT('',(7.62,6.7E-16,1.));
#199 = DIRECTION('',(0.,-2.2E-16,-1.));
#200 = DIRECTION('',(-1.,-0.,0.));
#201 = ADVANCED_FACE('',(#202),#205,.T.);
#202 = FACE_BOUND('',#203,.F.);
#203 = EDGE_LOOP('',(#204));
#204 = ORIENTED_EDGE('',*,*,#88,.T.);
#205 = PLANE('',#206);
#206 = AXIS2_PLACEMENT_3D('',#207,#208,#209);
#207 = CARTESIAN_POINT('',(0.25,-1.1E-16,-2.5));
#208 = DIRECTION('',(0.,0.,-1.));
#209 = DIRECTION('',(-1.,0.,0.));
#210 = ADVANCED_FACE('',(#211),#214,.F.);
#211 = FACE_BOUND('',#212,.T.);
#212 = EDGE_LOOP('',(#213));
#213 = ORIENTED_EDGE('',*,*,#188,.T.);
#214 = PLANE('',#215);
#215 = AXIS2_PLACEMENT_3D('',#216,#217,#218);
#216 = CARTESIAN_POINT('',(7.37,-1.1E-16,-2.5));
#217 = DIRECTION('',(0.,0.,1.));
#218 = DIRECTION('',(1.,0.,-0.));
#219 = MANIFOLD_SOLID_BREP('',#220);
#220 = CLOSED_SHELL('',(#221,#254,#274,#294,#319,#344,#370,#396,#405));
#221 = ADVANCED_FACE('',(#222),#249,.T.);
#222 = FACE_BOUND('',#223,.T.);
#223 = EDGE_LOOP('',(#224,#233,#241,#248));
#224 = ORIENTED_EDGE('',*,*,#225,.T.);
#225 = EDGE_CURVE('',#226,#226,#228,.T.);
#226 = VERTEX_POINT('',#227);
#227 = CARTESIAN_POINT('',(2.41,3.557331958362E-15,2.51));
#228 = CIRCLE('',#229,1.01);
#229 = AXIS2_PLACEMENT_3D('',#230,#231,#232);
#230 = CARTESIAN_POINT('',(2.41,6.630669073875E-16,1.5));
#231 = DIRECTION('',(1.,0.,-0.));
#232 = DIRECTION('',(0.,9.92044604925E-16,1.));
#233 = ORIENTED_EDGE('',*,*,#234,.T.);
#234 = EDGE_CURVE('',#226,#235,#237,.T.);
#235 = VERTEX_POINT('',#236);
#236 = CARTESIAN_POINT('',(3.41,3.557331958362E-15,2.51));
#237 = LINE('',#238,#239);
#238 = CARTESIAN_POINT('',(2.41,5.573319583618E-16,2.51));
#239 = VECTOR('',#240,1.);
#240 = DIRECTION('',(1.,0.,0.));
#241 = ORIENTED_EDGE('',*,*,#242,.F.);
#242 = EDGE_CURVE('',#235,#235,#243,.T.);
#243 = CIRCLE('',#244,1.01);
#244 = AXIS2_PLACEMENT_3D('',#245,#246,#247);
#245 = CARTESIAN_POINT('',(3.41,6.630669073875E-16,1.5));
#246 = DIRECTION('',(1.,0.,-0.));
#247 = DIRECTION('',(0.,9.92044604925E-16,1.));
#248 = ORIENTED_EDGE('',*,*,#234,.F.);
#249 = CYLINDRICAL_SURFACE('',#250,1.01);
#250 = AXIS2_PLACEMENT_3D('',#251,#252,#253);
#251 = CARTESIAN_POINT('',(2.41,6.630669073875E-16,1.5));
#252 = DIRECTION('',(1.,0.,0.));
#253 = DIRECTION('',(-0.,9.92044604925E-16,1.));
#254 = ADVANCED_FACE('',(#255,#258),#269,.F.);
#255 = FACE_BOUND('',#256,.T.);
#256 = EDGE_LOOP('',(#257));
#257 = ORIENTED_EDGE('',*,*,#225,.F.);
#258 = FACE_BOUND('',#259,.T.);
#259 = EDGE_LOOP('',(#260));
#260 = ORIENTED_EDGE('',*,*,#261,.T.);
#261 = EDGE_CURVE('',#262,#262,#264,.T.);
#262 = VERTEX_POINT('',#263);
#263 = CARTESIAN_POINT('',(2.41,5.551115123126E-16,2.5));
#264 = CIRCLE('',#265,1.);
#265 = AXIS2_PLACEMENT_3D('',#266,#267,#268);
#266 = CARTESIAN_POINT('',(2.41,6.630669073875E-16,1.5));
#267 = DIRECTION('',(1.,0.,-0.));
#268 = DIRECTION('',(0.,1.002044604925E-15,1.));
#269 = PLANE('',#270);
#270 = AXIS2_PLACEMENT_3D('',#271,#272,#273);
#271 = CARTESIAN_POINT('',(2.41,6.630669073875E-16,1.5));
#272 = DIRECTION('',(1.,0.,0.));
#273 = DIRECTION('',(-0.,1.002044604925E-15,1.));
#274 = ADVANCED_FACE('',(#275,#278),#289,.T.);
#275 = FACE_BOUND('',#276,.T.);
#276 = EDGE_LOOP('',(#277));
#277 = ORIENTED_EDGE('',*,*,#242,.T.);
#278 = FACE_BOUND('',#279,.T.);
#279 = EDGE_LOOP('',(#280));
#280 = ORIENTED_EDGE('',*,*,#281,.F.);
#281 = EDGE_CURVE('',#282,#282,#284,.T.);
#282 = VERTEX_POINT('',#283);
#283 = CARTESIAN_POINT('',(3.41,5.551115123126E-16,2.5));
#284 = CIRCLE('',#285,1.);
#285 = AXIS2_PLACEMENT_3D('',#286,#287,#288);
#286 = CARTESIAN_POINT('',(3.41,6.630669073875E-16,1.5));
#287 = DIRECTION('',(1.,0.,-0.));
#288 = DIRECTION('',(0.,1.002044604925E-15,1.));
#289 = PLANE('',#290);
#290 = AXIS2_PLACEMENT_3D('',#291,#292,#293);
#291 = CARTESIAN_POINT('',(3.41,6.630669073875E-16,1.5));
#292 = DIRECTION('',(1.,0.,0.));
#293 = DIRECTION('',(-0.,9.92044604925E-16,1.));
#294 = ADVANCED_FACE('',(#295),#314,.T.);
#295 = FACE_BOUND('',#296,.T.);
#296 = EDGE_LOOP('',(#297,#306,#312,#313));
#297 = ORIENTED_EDGE('',*,*,#298,.T.);
#298 = EDGE_CURVE('',#299,#299,#301,.T.);
#299 = VERTEX_POINT('',#300);
#300 = CARTESIAN_POINT('',(2.21,3.555111512313E-15,2.5));
#301 = CIRCLE('',#302,1.);
#302 = AXIS2_PLACEMENT_3D('',#303,#304,#305);
#303 = CARTESIAN_POINT('',(2.21,6.630669073875E-16,1.5));
#304 = DIRECTION('',(1.,0.,-0.));
#305 = DIRECTION('',(0.,1.002044604925E-15,1.));
#306 = ORIENTED_EDGE('',*,*,#307,.T.);
#307 = EDGE_CURVE('',#299,#262,#308,.T.);
#308 = LINE('',#309,#310);
#309 = CARTESIAN_POINT('',(1.81,5.551115123126E-16,2.5));
#310 = VECTOR('',#311,1.);
#311 = DIRECTION('',(1.,0.,0.));
#312 = ORIENTED_EDGE('',*,*,#261,.F.);
#313 = ORIENTED_EDGE('',*,*,#307,.F.);
#314 = CYLINDRICAL_SURFACE('',#315,1.);
#315 = AXIS2_PLACEMENT_3D('',#316,#317,#318);
#316 = CARTESIAN_POINT('',(1.81,6.630669073875E-16,1.5));
#317 = DIRECTION('',(1.,0.,0.));
#318 = DIRECTION('',(-0.,1.002044604925E-15,1.));
#319 = ADVANCED_FACE('',(#320),#339,.T.);
#320 = FACE_BOUND('',#321,.T.);
#321 = EDGE_LOOP('',(#322,#323,#331,#338));
#322 = ORIENTED_EDGE('',*,*,#281,.T.);
#323 = ORIENTED_EDGE('',*,*,#324,.T.);
#324 = EDGE_CURVE('',#282,#325,#327,.T.);
#325 = VERTEX_POINT('',#326);
#326 = CARTESIAN_POINT('',(5.41,3.555111512313E-15,2.5));
#327 = LINE('',#328,#329);
#328 = CARTESIAN_POINT('',(1.81,5.551115123126E-16,2.5));
#329 = VECTOR('',#330,1.);
#330 = DIRECTION('',(1.,0.,0.));
#331 = ORIENTED_EDGE('',*,*,#332,.F.);
#332 = EDGE_CURVE('',#325,#325,#333,.T.);
#333 = CIRCLE('',#334,1.);
#334 = AXIS2_PLACEMENT_3D('',#335,#336,#337);
#335 = CARTESIAN_POINT('',(5.41,6.630669073875E-16,1.5));
#336 = DIRECTION('',(1.,0.,-0.));
#337 = DIRECTION('',(0.,1.002044604925E-15,1.));
#338 = ORIENTED_EDGE('',*,*,#324,.F.);
#339 = CYLINDRICAL_SURFACE('',#340,1.);
#340 = AXIS2_PLACEMENT_3D('',#341,#342,#343);
#341 = CARTESIAN_POINT('',(1.81,6.630669073875E-16,1.5));
#342 = DIRECTION('',(1.,0.,0.));
#343 = DIRECTION('',(-0.,1.002044604925E-15,1.));
#344 = ADVANCED_FACE('',(#345),#365,.T.);
#345 = FACE_BOUND('',#346,.T.);
#346 = EDGE_LOOP('',(#347,#356,#363,#364));
#347 = ORIENTED_EDGE('',*,*,#348,.T.);
#348 = EDGE_CURVE('',#349,#349,#351,.T.);
#349 = VERTEX_POINT('',#350);
#350 = CARTESIAN_POINT('',(1.81,1.466293670343E-15,2.1));
#351 = CIRCLE('',#352,0.6);
#352 = AXIS2_PLACEMENT_3D('',#353,#354,#355);
#353 = CARTESIAN_POINT('',(1.81,6.630669073875E-16,1.5));
#354 = DIRECTION('',(1.,0.,-0.));
#355 = DIRECTION('',(0.,1.002044604925E-15,1.));
#356 = ORIENTED_EDGE('',*,*,#357,.F.);
#357 = EDGE_CURVE('',#299,#349,#358,.T.);
#358 = CIRCLE('',#359,0.4);
#359 = AXIS2_PLACEMENT_3D('',#360,#361,#362);
#360 = CARTESIAN_POINT('',(2.21,1.266293670343E-15,2.1));
#361 = DIRECTION('',(0.,-1.,1.002044604925E-15));
#362 = DIRECTION('',(0.,1.002044604925E-15,1.));
#363 = ORIENTED_EDGE('',*,*,#298,.F.);
#364 = ORIENTED_EDGE('',*,*,#357,.T.);
#365 = TOROIDAL_SURFACE('',#366,0.6,0.4);
#366 = AXIS2_PLACEMENT_3D('',#367,#368,#369);
#367 = CARTESIAN_POINT('',(2.21,6.630669073875E-16,1.5));
#368 = DIRECTION('',(-1.,0.,0.));
#369 = DIRECTION('',(0.,1.002044604925E-15,1.));
#370 = ADVANCED_FACE('',(#371),#391,.T.);
#371 = FACE_BOUND('',#372,.T.);
#372 = EDGE_LOOP('',(#373,#374,#383,#390));
#373 = ORIENTED_EDGE('',*,*,#332,.T.);
#374 = ORIENTED_EDGE('',*,*,#375,.F.);
#375 = EDGE_CURVE('',#376,#325,#378,.T.);
#376 = VERTEX_POINT('',#377);
#377 = CARTESIAN_POINT('',(5.81,1.466293670343E-15,2.1));
#378 = CIRCLE('',#379,0.4);
#379 = AXIS2_PLACEMENT_3D('',#380,#381,#382);
#380 = CARTESIAN_POINT('',(5.41,1.266293670343E-15,2.1));
#381 = DIRECTION('',(0.,-1.,1.002044604925E-15));
#382 = DIRECTION('',(0.,1.002044604925E-15,1.));
#383 = ORIENTED_EDGE('',*,*,#384,.F.);
#384 = EDGE_CURVE('',#376,#376,#385,.T.);
#385 = CIRCLE('',#386,0.6);
#386 = AXIS2_PLACEMENT_3D('',#387,#388,#389);
#387 = CARTESIAN_POINT('',(5.81,6.630669073875E-16,1.5));
#388 = DIRECTION('',(1.,0.,-0.));
#389 = DIRECTION('',(0.,1.002044604925E-15,1.));
#390 = ORIENTED_EDGE('',*,*,#375,.T.);
#391 = TOROIDAL_SURFACE('',#392,0.6,0.4);
#392 = AXIS2_PLACEMENT_3D('',#393,#394,#395);
#393 = CARTESIAN_POINT('',(5.41,6.630669073875E-16,1.5));
#394 = DIRECTION('',(-1.,0.,0.));
#395 = DIRECTION('',(0.,1.002044604925E-15,1.));
#396 = ADVANCED_FACE('',(#397),#400,.F.);
#397 = FACE_BOUND('',#398,.T.);
#398 = EDGE_LOOP('',(#399));
#399 = ORIENTED_EDGE('',*,*,#348,.F.);
#400 = PLANE('',#401);
#401 = AXIS2_PLACEMENT_3D('',#402,#403,#404);
#402 = CARTESIAN_POINT('',(1.81,6.630669073875E-16,1.5));
#403 = DIRECTION('',(1.,0.,0.));
#404 = DIRECTION('',(-0.,1.002044604925E-15,1.));
#405 = ADVANCED_FACE('',(#406),#409,.T.);
#406 = FACE_BOUND('',#407,.F.);
#407 = EDGE_LOOP('',(#408));
#408 = ORIENTED_EDGE('',*,*,#384,.F.);
#409 = PLANE('',#410);
#410 = AXIS2_PLACEMENT_3D('',#411,#412,#413);
#411 = CARTESIAN_POINT('',(5.81,6.630669073875E-16,1.5));
#412 = DIRECTION('',(1.,0.,0.));
#413 = DIRECTION('',(-0.,1.002044604925E-15,1.));
#414 = ( GEOMETRIC_REPRESENTATION_CONTEXT(3) 
GLOBAL_UNCERTAINTY_ASSIGNED_CONTEXT((#418)) GLOBAL_UNIT_ASSIGNED_CONTEXT
((#415,#416,#417)) REPRESENTATION_CONTEXT('Context #1',
  '3D Context with UNIT and UNCERTAINTY') );
#415 = ( LENGTH_UNIT() NAMED_UNIT(*) SI_UNIT(.MILLI.,.METRE.) );
#416 = ( NAMED_UNIT(*) PLANE_ANGLE_UNIT() SI_UNIT($,.RADIAN.) );
#417 = ( NAMED_UNIT(*) SI_UNIT($,.STERADIAN.) SOLID_ANGLE_UNIT() );
#418 = UNCERTAINTY_MEASURE_WITH_UNIT(LENGTH_MEASURE(1.E-07),#415,
  'distance_accuracy_value','confusion accuracy');
#419 = CONTEXT_DEPENDENT_SHAPE_REPRESENTATION(#420,#422);
#420 = ( REPRESENTATION_RELATIONSHIP('','',#63,#40) 
REPRESENTATION_RELATIONSHIP_WITH_TRANSFORMATION(#421) 
SHAPE_REPRESENTATION_RELATIONSHIP() );
#421 = ITEM_DEFINED_TRANSFORMATION('','',#11,#41);
#422 = PRODUCT_DEFINITION_SHAPE('Placement','Placement of an item',#423
  );
#423 = NEXT_ASSEMBLY_USAGE_OCCURRENCE('1','=>[0:1:1:3]','',#35,#58,$);
#424 = PRODUCT_RELATED_PRODUCT_CATEGORY('part',$,(#60));
#425 = SHAPE_DEFINITION_REPRESENTATION(#426,#432);
#426 = PRODUCT_DEFINITION_SHAPE('','',#427);
#427 = PRODUCT_DEFINITION('design','',#428,#431);
#428 = PRODUCT_DEFINITION_FORMATION('','',#429);
#429 = PRODUCT(
  'electronic_diode_zener_do_35_st_semtech_bzx55c3v9_render_pad',
  'electronic_diode_zener_do_35_st_semtech_bzx55c3v9_render_pad','',(
    #430));
#430 = PRODUCT_CONTEXT('',#2,'mechanical');
#431 = PRODUCT_DEFINITION_CONTEXT('part definition',#2,'design');
#432 = SHAPE_REPRESENTATION('',(#11,#433,#762,#1091,#1183,#1275,#1367),
  #1459);
#433 = MANIFOLD_SOLID_BREP('',#434);
#434 = CLOSED_SHELL('',(#435,#477,#508,#539,#602,#665,#682,#699,#716,
    #733,#745));
#435 = ADVANCED_FACE('',(#436),#472,.T.);
#436 = FACE_BOUND('',#437,.T.);
#437 = EDGE_LOOP('',(#438,#448,#457,#465));
#438 = ORIENTED_EDGE('',*,*,#439,.T.);
#439 = EDGE_CURVE('',#440,#442,#444,.T.);
#440 = VERTEX_POINT('',#441);
#441 = CARTESIAN_POINT('',(-0.8,0.55,1.51));
#442 = VERTEX_POINT('',#443);
#443 = CARTESIAN_POINT('',(-0.8,0.55,1.55));
#444 = LINE('',#445,#446);
#445 = CARTESIAN_POINT('',(-0.8,0.55,1.51));
#446 = VECTOR('',#447,1.);
#447 = DIRECTION('',(0.,0.,1.));
#448 = ORIENTED_EDGE('',*,*,#449,.T.);
#449 = EDGE_CURVE('',#442,#450,#452,.T.);
#450 = VERTEX_POINT('',#451);
#451 = CARTESIAN_POINT('',(-0.55,0.8,1.55));
#452 = CIRCLE('',#453,0.249998959685);
#453 = AXIS2_PLACEMENT_3D('',#454,#455,#456);
#454 = CARTESIAN_POINT('',(-0.550001040317,0.550001040317,1.55));
#455 = DIRECTION('',(0.,0.,-1.));
#456 = DIRECTION('',(-0.999999999991,-4.161285832626E-06,-0.));
#457 = ORIENTED_EDGE('',*,*,#458,.F.);
#458 = EDGE_CURVE('',#459,#450,#461,.T.);
#459 = VERTEX_POINT('',#460);
#460 = CARTESIAN_POINT('',(-0.55,0.8,1.51));
#461 = LINE('',#462,#463);
#462 = CARTESIAN_POINT('',(-0.55,0.8,1.51));
#463 = VECTOR('',#464,1.);
#464 = DIRECTION('',(0.,0.,1.));
#465 = ORIENTED_EDGE('',*,*,#466,.F.);
#466 = EDGE_CURVE('',#440,#459,#467,.T.);
#467 = CIRCLE('',#468,0.249998959685);
#468 = AXIS2_PLACEMENT_3D('',#469,#470,#471);
#469 = CARTESIAN_POINT('',(-0.550001040317,0.550001040317,1.51));
#470 = DIRECTION('',(0.,0.,-1.));
#471 = DIRECTION('',(-0.999999999991,-4.161285832626E-06,-0.));
#472 = CYLINDRICAL_SURFACE('',#473,0.249998959685);
#473 = AXIS2_PLACEMENT_3D('',#474,#475,#476);
#474 = CARTESIAN_POINT('',(-0.550001040317,0.550001040317,1.51));
#475 = DIRECTION('',(0.,0.,-1.));
#476 = DIRECTION('',(-0.999999999991,-4.161285832626E-06,-0.));
#477 = ADVANCED_FACE('',(#478),#503,.T.);
#478 = FACE_BOUND('',#479,.T.);
#479 = EDGE_LOOP('',(#480,#490,#496,#497));
#480 = ORIENTED_EDGE('',*,*,#481,.T.);
#481 = EDGE_CURVE('',#482,#484,#486,.T.);
#482 = VERTEX_POINT('',#483);
#483 = CARTESIAN_POINT('',(-0.8,-0.55,1.51));
#484 = VERTEX_POINT('',#485);
#485 = CARTESIAN_POINT('',(-0.8,-0.55,1.55));
#486 = LINE('',#487,#488);
#487 = CARTESIAN_POINT('',(-0.8,-0.55,1.51));
#488 = VECTOR('',#489,1.);
#489 = DIRECTION('',(0.,0.,1.));
#490 = ORIENTED_EDGE('',*,*,#491,.T.);
#491 = EDGE_CURVE('',#484,#442,#492,.T.);
#492 = LINE('',#493,#494);
#493 = CARTESIAN_POINT('',(-0.8,-0.55,1.55));
#494 = VECTOR('',#495,1.);
#495 = DIRECTION('',(0.,1.,0.));
#496 = ORIENTED_EDGE('',*,*,#439,.F.);
#497 = ORIENTED_EDGE('',*,*,#498,.F.);
#498 = EDGE_CURVE('',#482,#440,#499,.T.);
#499 = LINE('',#500,#501);
#500 = CARTESIAN_POINT('',(-0.8,-0.55,1.51));
#501 = VECTOR('',#502,1.);
#502 = DIRECTION('',(0.,1.,0.));
#503 = PLANE('',#504);
#504 = AXIS2_PLACEMENT_3D('',#505,#506,#507);
#505 = CARTESIAN_POINT('',(-0.8,-0.55,1.51));
#506 = DIRECTION('',(-1.,0.,0.));
#507 = DIRECTION('',(0.,1.,0.));
#508 = ADVANCED_FACE('',(#509),#534,.T.);
#509 = FACE_BOUND('',#510,.T.);
#510 = EDGE_LOOP('',(#511,#512,#520,#528));
#511 = ORIENTED_EDGE('',*,*,#458,.T.);
#512 = ORIENTED_EDGE('',*,*,#513,.T.);
#513 = EDGE_CURVE('',#450,#514,#516,.T.);
#514 = VERTEX_POINT('',#515);
#515 = CARTESIAN_POINT('',(0.55,0.8,1.55));
#516 = LINE('',#517,#518);
#517 = CARTESIAN_POINT('',(-0.55,0.8,1.55));
#518 = VECTOR('',#519,1.);
#519 = DIRECTION('',(1.,0.,0.));
#520 = ORIENTED_EDGE('',*,*,#521,.F.);
#521 = EDGE_CURVE('',#522,#514,#524,.T.);
#522 = VERTEX_POINT('',#523);
#523 = CARTESIAN_POINT('',(0.55,0.8,1.51));
#524 = LINE('',#525,#526);
#525 = CARTESIAN_POINT('',(0.55,0.8,1.51));
#526 = VECTOR('',#527,1.);
#527 = DIRECTION('',(0.,0.,1.));
#528 = ORIENTED_EDGE('',*,*,#529,.F.);
#529 = EDGE_CURVE('',#459,#522,#530,.T.);
#530 = LINE('',#531,#532);
#531 = CARTESIAN_POINT('',(-0.55,0.8,1.51));
#532 = VECTOR('',#533,1.);
#533 = DIRECTION('',(1.,0.,0.));
#534 = PLANE('',#535);
#535 = AXIS2_PLACEMENT_3D('',#536,#537,#538);
#536 = CARTESIAN_POINT('',(-0.55,0.8,1.51));
#537 = DIRECTION('',(0.,1.,0.));
#538 = DIRECTION('',(1.,0.,0.));
#539 = ADVANCED_FACE('',(#540,#586),#597,.F.);
#540 = FACE_BOUND('',#541,.F.);
#541 = EDGE_LOOP('',(#542,#543,#544,#553,#561,#570,#578,#585));
#542 = ORIENTED_EDGE('',*,*,#466,.F.);
#543 = ORIENTED_EDGE('',*,*,#498,.F.);
#544 = ORIENTED_EDGE('',*,*,#545,.F.);
#545 = EDGE_CURVE('',#546,#482,#548,.T.);
#546 = VERTEX_POINT('',#547);
#547 = CARTESIAN_POINT('',(-0.55,-0.8,1.51));
#548 = CIRCLE('',#549,0.249998959685);
#549 = AXIS2_PLACEMENT_3D('',#550,#551,#552);
#550 = CARTESIAN_POINT('',(-0.550001040317,-0.550001040317,1.51));
#551 = DIRECTION('',(0.,0.,-1.));
#552 = DIRECTION('',(4.161285832626E-06,-0.999999999991,0.));
#553 = ORIENTED_EDGE('',*,*,#554,.F.);
#554 = EDGE_CURVE('',#555,#546,#557,.T.);
#555 = VERTEX_POINT('',#556);
#556 = CARTESIAN_POINT('',(0.55,-0.8,1.51));
#557 = LINE('',#558,#559);
#558 = CARTESIAN_POINT('',(0.55,-0.8,1.51));
#559 = VECTOR('',#560,1.);
#560 = DIRECTION('',(-1.,0.,0.));
#561 = ORIENTED_EDGE('',*,*,#562,.F.);
#562 = EDGE_CURVE('',#563,#555,#565,.T.);
#563 = VERTEX_POINT('',#564);
#564 = CARTESIAN_POINT('',(0.8,-0.55,1.51));
#565 = CIRCLE('',#566,0.249998959685);
#566 = AXIS2_PLACEMENT_3D('',#567,#568,#569);
#567 = CARTESIAN_POINT('',(0.550001040317,-0.550001040317,1.51));
#568 = DIRECTION('',(0.,0.,-1.));
#569 = DIRECTION('',(0.999999999991,4.161285832626E-06,0.));
#570 = ORIENTED_EDGE('',*,*,#571,.F.);
#571 = EDGE_CURVE('',#572,#563,#574,.T.);
#572 = VERTEX_POINT('',#573);
#573 = CARTESIAN_POINT('',(0.8,0.55,1.51));
#574 = LINE('',#575,#576);
#575 = CARTESIAN_POINT('',(0.8,0.55,1.51));
#576 = VECTOR('',#577,1.);
#577 = DIRECTION('',(0.,-1.,0.));
#578 = ORIENTED_EDGE('',*,*,#579,.F.);
#579 = EDGE_CURVE('',#522,#572,#580,.T.);
#580 = CIRCLE('',#581,0.249998959685);
#581 = AXIS2_PLACEMENT_3D('',#582,#583,#584);
#582 = CARTESIAN_POINT('',(0.550001040317,0.550001040317,1.51));
#583 = DIRECTION('',(0.,0.,-1.));
#584 = DIRECTION('',(-4.161285832626E-06,0.999999999991,0.));
#585 = ORIENTED_EDGE('',*,*,#529,.F.);
#586 = FACE_BOUND('',#587,.F.);
#587 = EDGE_LOOP('',(#588));
#588 = ORIENTED_EDGE('',*,*,#589,.T.);
#589 = EDGE_CURVE('',#590,#590,#592,.T.);
#590 = VERTEX_POINT('',#591);
#591 = CARTESIAN_POINT('',(-6.162975822039E-33,-0.375,1.51));
#592 = CIRCLE('',#593,0.375);
#593 = AXIS2_PLACEMENT_3D('',#594,#595,#596);
#594 = CARTESIAN_POINT('',(-4.163336342344E-17,6.938893903907E-17,1.51)
  );
#595 = DIRECTION('',(-0.,0.,-1.));
#596 = DIRECTION('',(1.110223024625E-16,-1.,-0.));
#597 = PLANE('',#598);
#598 = AXIS2_PLACEMENT_3D('',#599,#600,#601);
#599 = CARTESIAN_POINT('',(0.,0.,1.51));
#600 = DIRECTION('',(0.,0.,1.));
#601 = DIRECTION('',(1.,0.,-0.));
#602 = ADVANCED_FACE('',(#603,#649),#660,.T.);
#603 = FACE_BOUND('',#604,.T.);
#604 = EDGE_LOOP('',(#605,#606,#607,#616,#624,#633,#641,#648));
#605 = ORIENTED_EDGE('',*,*,#449,.F.);
#606 = ORIENTED_EDGE('',*,*,#491,.F.);
#607 = ORIENTED_EDGE('',*,*,#608,.F.);
#608 = EDGE_CURVE('',#609,#484,#611,.T.);
#609 = VERTEX_POINT('',#610);
#610 = CARTESIAN_POINT('',(-0.55,-0.8,1.55));
#611 = CIRCLE('',#612,0.249998959685);
#612 = AXIS2_PLACEMENT_3D('',#613,#614,#615);
#613 = CARTESIAN_POINT('',(-0.550001040317,-0.550001040317,1.55));
#614 = DIRECTION('',(0.,0.,-1.));
#615 = DIRECTION('',(4.161285832626E-06,-0.999999999991,0.));
#616 = ORIENTED_EDGE('',*,*,#617,.F.);
#617 = EDGE_CURVE('',#618,#609,#620,.T.);
#618 = VERTEX_POINT('',#619);
#619 = CARTESIAN_POINT('',(0.55,-0.8,1.55));
#620 = LINE('',#621,#622);
#621 = CARTESIAN_POINT('',(0.55,-0.8,1.55));
#622 = VECTOR('',#623,1.);
#623 = DIRECTION('',(-1.,0.,0.));
#624 = ORIENTED_EDGE('',*,*,#625,.F.);
#625 = EDGE_CURVE('',#626,#618,#628,.T.);
#626 = VERTEX_POINT('',#627);
#627 = CARTESIAN_POINT('',(0.8,-0.55,1.55));
#628 = CIRCLE('',#629,0.249998959685);
#629 = AXIS2_PLACEMENT_3D('',#630,#631,#632);
#630 = CARTESIAN_POINT('',(0.550001040317,-0.550001040317,1.55));
#631 = DIRECTION('',(0.,0.,-1.));
#632 = DIRECTION('',(0.999999999991,4.161285832626E-06,0.));
#633 = ORIENTED_EDGE('',*,*,#634,.F.);
#634 = EDGE_CURVE('',#635,#626,#637,.T.);
#635 = VERTEX_POINT('',#636);
#636 = CARTESIAN_POINT('',(0.8,0.55,1.55));
#637 = LINE('',#638,#639);
#638 = CARTESIAN_POINT('',(0.8,0.55,1.55));
#639 = VECTOR('',#640,1.);
#640 = DIRECTION('',(0.,-1.,0.));
#641 = ORIENTED_EDGE('',*,*,#642,.F.);
#642 = EDGE_CURVE('',#514,#635,#643,.T.);
#643 = CIRCLE('',#644,0.249998959685);
#644 = AXIS2_PLACEMENT_3D('',#645,#646,#647);
#645 = CARTESIAN_POINT('',(0.550001040317,0.550001040317,1.55));
#646 = DIRECTION('',(0.,0.,-1.));
#647 = DIRECTION('',(-4.161285832626E-06,0.999999999991,0.));
#648 = ORIENTED_EDGE('',*,*,#513,.F.);
#649 = FACE_BOUND('',#650,.T.);
#650 = EDGE_LOOP('',(#651));
#651 = ORIENTED_EDGE('',*,*,#652,.T.);
#652 = EDGE_CURVE('',#653,#653,#655,.T.);
#653 = VERTEX_POINT('',#654);
#654 = CARTESIAN_POINT('',(-6.162975822039E-33,-0.375,1.55));
#655 = CIRCLE('',#656,0.375);
#656 = AXIS2_PLACEMENT_3D('',#657,#658,#659);
#657 = CARTESIAN_POINT('',(-4.163336342344E-17,6.938893903907E-17,1.55)
  );
#658 = DIRECTION('',(-0.,0.,-1.));
#659 = DIRECTION('',(1.110223024625E-16,-1.,-0.));
#660 = PLANE('',#661);
#661 = AXIS2_PLACEMENT_3D('',#662,#663,#664);
#662 = CARTESIAN_POINT('',(0.,0.,1.55));
#663 = DIRECTION('',(0.,0.,1.));
#664 = DIRECTION('',(1.,0.,-0.));
#665 = ADVANCED_FACE('',(#666),#677,.T.);
#666 = FACE_BOUND('',#667,.T.);
#667 = EDGE_LOOP('',(#668,#674,#675,#676));
#668 = ORIENTED_EDGE('',*,*,#669,.T.);
#669 = EDGE_CURVE('',#546,#609,#670,.T.);
#670 = LINE('',#671,#672);
#671 = CARTESIAN_POINT('',(-0.55,-0.8,1.51));
#672 = VECTOR('',#673,1.);
#673 = DIRECTION('',(0.,0.,1.));
#674 = ORIENTED_EDGE('',*,*,#608,.T.);
#675 = ORIENTED_EDGE('',*,*,#481,.F.);
#676 = ORIENTED_EDGE('',*,*,#545,.F.);
#677 = CYLINDRICAL_SURFACE('',#678,0.249998959685);
#678 = AXIS2_PLACEMENT_3D('',#679,#680,#681);
#679 = CARTESIAN_POINT('',(-0.550001040317,-0.550001040317,1.51));
#680 = DIRECTION('',(0.,0.,-1.));
#681 = DIRECTION('',(4.161285832626E-06,-0.999999999991,0.));
#682 = ADVANCED_FACE('',(#683),#694,.T.);
#683 = FACE_BOUND('',#684,.T.);
#684 = EDGE_LOOP('',(#685,#686,#687,#693));
#685 = ORIENTED_EDGE('',*,*,#521,.T.);
#686 = ORIENTED_EDGE('',*,*,#642,.T.);
#687 = ORIENTED_EDGE('',*,*,#688,.F.);
#688 = EDGE_CURVE('',#572,#635,#689,.T.);
#689 = LINE('',#690,#691);
#690 = CARTESIAN_POINT('',(0.8,0.55,1.51));
#691 = VECTOR('',#692,1.);
#692 = DIRECTION('',(0.,0.,1.));
#693 = ORIENTED_EDGE('',*,*,#579,.F.);
#694 = CYLINDRICAL_SURFACE('',#695,0.249998959685);
#695 = AXIS2_PLACEMENT_3D('',#696,#697,#698);
#696 = CARTESIAN_POINT('',(0.550001040317,0.550001040317,1.51));
#697 = DIRECTION('',(0.,0.,-1.));
#698 = DIRECTION('',(-4.161285832626E-06,0.999999999991,0.));
#699 = ADVANCED_FACE('',(#700),#711,.T.);
#700 = FACE_BOUND('',#701,.T.);
#701 = EDGE_LOOP('',(#702,#708,#709,#710));
#702 = ORIENTED_EDGE('',*,*,#703,.T.);
#703 = EDGE_CURVE('',#555,#618,#704,.T.);
#704 = LINE('',#705,#706);
#705 = CARTESIAN_POINT('',(0.55,-0.8,1.51));
#706 = VECTOR('',#707,1.);
#707 = DIRECTION('',(0.,0.,1.));
#708 = ORIENTED_EDGE('',*,*,#617,.T.);
#709 = ORIENTED_EDGE('',*,*,#669,.F.);
#710 = ORIENTED_EDGE('',*,*,#554,.F.);
#711 = PLANE('',#712);
#712 = AXIS2_PLACEMENT_3D('',#713,#714,#715);
#713 = CARTESIAN_POINT('',(0.55,-0.8,1.51));
#714 = DIRECTION('',(0.,-1.,0.));
#715 = DIRECTION('',(-1.,0.,0.));
#716 = ADVANCED_FACE('',(#717),#728,.T.);
#717 = FACE_BOUND('',#718,.T.);
#718 = EDGE_LOOP('',(#719,#720,#721,#727));
#719 = ORIENTED_EDGE('',*,*,#688,.T.);
#720 = ORIENTED_EDGE('',*,*,#634,.T.);
#721 = ORIENTED_EDGE('',*,*,#722,.F.);
#722 = EDGE_CURVE('',#563,#626,#723,.T.);
#723 = LINE('',#724,#725);
#724 = CARTESIAN_POINT('',(0.8,-0.55,1.51));
#725 = VECTOR('',#726,1.);
#726 = DIRECTION('',(0.,0.,1.));
#727 = ORIENTED_EDGE('',*,*,#571,.F.);
#728 = PLANE('',#729);
#729 = AXIS2_PLACEMENT_3D('',#730,#731,#732);
#730 = CARTESIAN_POINT('',(0.8,0.55,1.51));
#731 = DIRECTION('',(1.,0.,-0.));
#732 = DIRECTION('',(0.,-1.,0.));
#733 = ADVANCED_FACE('',(#734),#740,.T.);
#734 = FACE_BOUND('',#735,.T.);
#735 = EDGE_LOOP('',(#736,#737,#738,#739));
#736 = ORIENTED_EDGE('',*,*,#722,.T.);
#737 = ORIENTED_EDGE('',*,*,#625,.T.);
#738 = ORIENTED_EDGE('',*,*,#703,.F.);
#739 = ORIENTED_EDGE('',*,*,#562,.F.);
#740 = CYLINDRICAL_SURFACE('',#741,0.249998959685);
#741 = AXIS2_PLACEMENT_3D('',#742,#743,#744);
#742 = CARTESIAN_POINT('',(0.550001040317,-0.550001040317,1.51));
#743 = DIRECTION('',(0.,0.,-1.));
#744 = DIRECTION('',(0.999999999991,4.161285832626E-06,0.));
#745 = ADVANCED_FACE('',(#746),#757,.F.);
#746 = FACE_BOUND('',#747,.T.);
#747 = EDGE_LOOP('',(#748,#749,#755,#756));
#748 = ORIENTED_EDGE('',*,*,#589,.T.);
#749 = ORIENTED_EDGE('',*,*,#750,.T.);
#750 = EDGE_CURVE('',#590,#653,#751,.T.);
#751 = LINE('',#752,#753);
#752 = CARTESIAN_POINT('',(-6.162975822039E-33,-0.375,-4.6E-02));
#753 = VECTOR('',#754,1.);
#754 = DIRECTION('',(0.,0.,1.));
#755 = ORIENTED_EDGE('',*,*,#652,.F.);
#756 = ORIENTED_EDGE('',*,*,#750,.F.);
#757 = CYLINDRICAL_SURFACE('',#758,0.375);
#758 = AXIS2_PLACEMENT_3D('',#759,#760,#761);
#759 = CARTESIAN_POINT('',(-4.163336342344E-17,6.938893903907E-17,
    -4.6E-02));
#760 = DIRECTION('',(-0.,0.,-1.));
#761 = DIRECTION('',(1.110223024625E-16,-1.,-0.));
#762 = MANIFOLD_SOLID_BREP('',#763);
#763 = CLOSED_SHELL('',(#764,#806,#837,#868,#931,#994,#1011,#1028,#1045,
    #1062,#1074));
#764 = ADVANCED_FACE('',(#765),#801,.T.);
#765 = FACE_BOUND('',#766,.F.);
#766 = EDGE_LOOP('',(#767,#777,#786,#794));
#767 = ORIENTED_EDGE('',*,*,#768,.T.);
#768 = EDGE_CURVE('',#769,#771,#773,.T.);
#769 = VERTEX_POINT('',#770);
#770 = CARTESIAN_POINT('',(-0.8,0.55,0.));
#771 = VERTEX_POINT('',#772);
#772 = CARTESIAN_POINT('',(-0.8,0.55,-4.E-02));
#773 = LINE('',#774,#775);
#774 = CARTESIAN_POINT('',(-0.8,0.55,0.));
#775 = VECTOR('',#776,1.);
#776 = DIRECTION('',(0.,0.,-1.));
#777 = ORIENTED_EDGE('',*,*,#778,.T.);
#778 = EDGE_CURVE('',#771,#779,#781,.T.);
#779 = VERTEX_POINT('',#780);
#780 = CARTESIAN_POINT('',(-0.55,0.8,-4.E-02));
#781 = CIRCLE('',#782,0.249998959685);
#782 = AXIS2_PLACEMENT_3D('',#783,#784,#785);
#783 = CARTESIAN_POINT('',(-0.550001040317,0.550001040317,-4.E-02));
#784 = DIRECTION('',(0.,0.,-1.));
#785 = DIRECTION('',(-0.999999999991,-4.161285832626E-06,-0.));
#786 = ORIENTED_EDGE('',*,*,#787,.F.);
#787 = EDGE_CURVE('',#788,#779,#790,.T.);
#788 = VERTEX_POINT('',#789);
#789 = CARTESIAN_POINT('',(-0.55,0.8,0.));
#790 = LINE('',#791,#792);
#791 = CARTESIAN_POINT('',(-0.55,0.8,0.));
#792 = VECTOR('',#793,1.);
#793 = DIRECTION('',(0.,0.,-1.));
#794 = ORIENTED_EDGE('',*,*,#795,.F.);
#795 = EDGE_CURVE('',#769,#788,#796,.T.);
#796 = CIRCLE('',#797,0.249998959685);
#797 = AXIS2_PLACEMENT_3D('',#798,#799,#800);
#798 = CARTESIAN_POINT('',(-0.550001040317,0.550001040317,0.));
#799 = DIRECTION('',(0.,0.,-1.));
#800 = DIRECTION('',(-0.999999999991,-4.161285832626E-06,-0.));
#801 = CYLINDRICAL_SURFACE('',#802,0.249998959685);
#802 = AXIS2_PLACEMENT_3D('',#803,#804,#805);
#803 = CARTESIAN_POINT('',(-0.550001040317,0.550001040317,0.));
#804 = DIRECTION('',(-0.,-0.,1.));
#805 = DIRECTION('',(-0.999999999991,-4.161285832626E-06,-0.));
#806 = ADVANCED_FACE('',(#807),#832,.F.);
#807 = FACE_BOUND('',#808,.F.);
#808 = EDGE_LOOP('',(#809,#819,#825,#826));
#809 = ORIENTED_EDGE('',*,*,#810,.T.);
#810 = EDGE_CURVE('',#811,#813,#815,.T.);
#811 = VERTEX_POINT('',#812);
#812 = CARTESIAN_POINT('',(-0.8,-0.55,0.));
#813 = VERTEX_POINT('',#814);
#814 = CARTESIAN_POINT('',(-0.8,-0.55,-4.E-02));
#815 = LINE('',#816,#817);
#816 = CARTESIAN_POINT('',(-0.8,-0.55,0.));
#817 = VECTOR('',#818,1.);
#818 = DIRECTION('',(0.,0.,-1.));
#819 = ORIENTED_EDGE('',*,*,#820,.T.);
#820 = EDGE_CURVE('',#813,#771,#821,.T.);
#821 = LINE('',#822,#823);
#822 = CARTESIAN_POINT('',(-0.8,-0.55,-4.E-02));
#823 = VECTOR('',#824,1.);
#824 = DIRECTION('',(0.,1.,0.));
#825 = ORIENTED_EDGE('',*,*,#768,.F.);
#826 = ORIENTED_EDGE('',*,*,#827,.F.);
#827 = EDGE_CURVE('',#811,#769,#828,.T.);
#828 = LINE('',#829,#830);
#829 = CARTESIAN_POINT('',(-0.8,-0.55,0.));
#830 = VECTOR('',#831,1.);
#831 = DIRECTION('',(0.,1.,0.));
#832 = PLANE('',#833);
#833 = AXIS2_PLACEMENT_3D('',#834,#835,#836);
#834 = CARTESIAN_POINT('',(-0.8,-0.55,0.));
#835 = DIRECTION('',(1.,-0.,0.));
#836 = DIRECTION('',(0.,1.,0.));
#837 = ADVANCED_FACE('',(#838),#863,.F.);
#838 = FACE_BOUND('',#839,.F.);
#839 = EDGE_LOOP('',(#840,#841,#849,#857));
#840 = ORIENTED_EDGE('',*,*,#787,.T.);
#841 = ORIENTED_EDGE('',*,*,#842,.T.);
#842 = EDGE_CURVE('',#779,#843,#845,.T.);
#843 = VERTEX_POINT('',#844);
#844 = CARTESIAN_POINT('',(0.55,0.8,-4.E-02));
#845 = LINE('',#846,#847);
#846 = CARTESIAN_POINT('',(-0.55,0.8,-4.E-02));
#847 = VECTOR('',#848,1.);
#848 = DIRECTION('',(1.,0.,0.));
#849 = ORIENTED_EDGE('',*,*,#850,.F.);
#850 = EDGE_CURVE('',#851,#843,#853,.T.);
#851 = VERTEX_POINT('',#852);
#852 = CARTESIAN_POINT('',(0.55,0.8,0.));
#853 = LINE('',#854,#855);
#854 = CARTESIAN_POINT('',(0.55,0.8,0.));
#855 = VECTOR('',#856,1.);
#856 = DIRECTION('',(0.,0.,-1.));
#857 = ORIENTED_EDGE('',*,*,#858,.F.);
#858 = EDGE_CURVE('',#788,#851,#859,.T.);
#859 = LINE('',#860,#861);
#860 = CARTESIAN_POINT('',(-0.55,0.8,0.));
#861 = VECTOR('',#862,1.);
#862 = DIRECTION('',(1.,0.,0.));
#863 = PLANE('',#864);
#864 = AXIS2_PLACEMENT_3D('',#865,#866,#867);
#865 = CARTESIAN_POINT('',(-0.55,0.8,0.));
#866 = DIRECTION('',(0.,-1.,0.));
#867 = DIRECTION('',(1.,0.,0.));
#868 = ADVANCED_FACE('',(#869,#915),#926,.F.);
#869 = FACE_BOUND('',#870,.F.);
#870 = EDGE_LOOP('',(#871,#872,#873,#882,#890,#899,#907,#914));
#871 = ORIENTED_EDGE('',*,*,#795,.T.);
#872 = ORIENTED_EDGE('',*,*,#858,.T.);
#873 = ORIENTED_EDGE('',*,*,#874,.T.);
#874 = EDGE_CURVE('',#851,#875,#877,.T.);
#875 = VERTEX_POINT('',#876);
#876 = CARTESIAN_POINT('',(0.8,0.55,0.));
#877 = CIRCLE('',#878,0.249998959685);
#878 = AXIS2_PLACEMENT_3D('',#879,#880,#881);
#879 = CARTESIAN_POINT('',(0.550001040317,0.550001040317,0.));
#880 = DIRECTION('',(0.,0.,-1.));
#881 = DIRECTION('',(-4.161285832626E-06,0.999999999991,0.));
#882 = ORIENTED_EDGE('',*,*,#883,.T.);
#883 = EDGE_CURVE('',#875,#884,#886,.T.);
#884 = VERTEX_POINT('',#885);
#885 = CARTESIAN_POINT('',(0.8,-0.55,0.));
#886 = LINE('',#887,#888);
#887 = CARTESIAN_POINT('',(0.8,0.55,0.));
#888 = VECTOR('',#889,1.);
#889 = DIRECTION('',(0.,-1.,0.));
#890 = ORIENTED_EDGE('',*,*,#891,.T.);
#891 = EDGE_CURVE('',#884,#892,#894,.T.);
#892 = VERTEX_POINT('',#893);
#893 = CARTESIAN_POINT('',(0.55,-0.8,0.));
#894 = CIRCLE('',#895,0.249998959685);
#895 = AXIS2_PLACEMENT_3D('',#896,#897,#898);
#896 = CARTESIAN_POINT('',(0.550001040317,-0.550001040317,0.));
#897 = DIRECTION('',(0.,0.,-1.));
#898 = DIRECTION('',(0.999999999991,4.161285832626E-06,0.));
#899 = ORIENTED_EDGE('',*,*,#900,.T.);
#900 = EDGE_CURVE('',#892,#901,#903,.T.);
#901 = VERTEX_POINT('',#902);
#902 = CARTESIAN_POINT('',(-0.55,-0.8,0.));
#903 = LINE('',#904,#905);
#904 = CARTESIAN_POINT('',(0.55,-0.8,0.));
#905 = VECTOR('',#906,1.);
#906 = DIRECTION('',(-1.,0.,0.));
#907 = ORIENTED_EDGE('',*,*,#908,.T.);
#908 = EDGE_CURVE('',#901,#811,#909,.T.);
#909 = CIRCLE('',#910,0.249998959685);
#910 = AXIS2_PLACEMENT_3D('',#911,#912,#913);
#911 = CARTESIAN_POINT('',(-0.550001040317,-0.550001040317,0.));
#912 = DIRECTION('',(0.,0.,-1.));
#913 = DIRECTION('',(4.161285832626E-06,-0.999999999991,0.));
#914 = ORIENTED_EDGE('',*,*,#827,.T.);
#915 = FACE_BOUND('',#916,.F.);
#916 = EDGE_LOOP('',(#917));
#917 = ORIENTED_EDGE('',*,*,#918,.F.);
#918 = EDGE_CURVE('',#919,#919,#921,.T.);
#919 = VERTEX_POINT('',#920);
#920 = CARTESIAN_POINT('',(-6.162975822039E-33,-0.375,0.));
#921 = CIRCLE('',#922,0.375);
#922 = AXIS2_PLACEMENT_3D('',#923,#924,#925);
#923 = CARTESIAN_POINT('',(-4.163336342344E-17,6.938893903907E-17,0.));
#924 = DIRECTION('',(-0.,0.,-1.));
#925 = DIRECTION('',(1.110223024625E-16,-1.,-0.));
#926 = PLANE('',#927);
#927 = AXIS2_PLACEMENT_3D('',#928,#929,#930);
#928 = CARTESIAN_POINT('',(0.,0.,0.));
#929 = DIRECTION('',(-0.,-0.,-1.));
#930 = DIRECTION('',(-1.,0.,0.));
#931 = ADVANCED_FACE('',(#932,#978),#989,.T.);
#932 = FACE_BOUND('',#933,.T.);
#933 = EDGE_LOOP('',(#934,#935,#936,#945,#953,#962,#970,#977));
#934 = ORIENTED_EDGE('',*,*,#778,.T.);
#935 = ORIENTED_EDGE('',*,*,#842,.T.);
#936 = ORIENTED_EDGE('',*,*,#937,.T.);
#937 = EDGE_CURVE('',#843,#938,#940,.T.);
#938 = VERTEX_POINT('',#939);
#939 = CARTESIAN_POINT('',(0.8,0.55,-4.E-02));
#940 = CIRCLE('',#941,0.249998959685);
#941 = AXIS2_PLACEMENT_3D('',#942,#943,#944);
#942 = CARTESIAN_POINT('',(0.550001040317,0.550001040317,-4.E-02));
#943 = DIRECTION('',(0.,0.,-1.));
#944 = DIRECTION('',(-4.161285832626E-06,0.999999999991,0.));
#945 = ORIENTED_EDGE('',*,*,#946,.T.);
#946 = EDGE_CURVE('',#938,#947,#949,.T.);
#947 = VERTEX_POINT('',#948);
#948 = CARTESIAN_POINT('',(0.8,-0.55,-4.E-02));
#949 = LINE('',#950,#951);
#950 = CARTESIAN_POINT('',(0.8,0.55,-4.E-02));
#951 = VECTOR('',#952,1.);
#952 = DIRECTION('',(0.,-1.,0.));
#953 = ORIENTED_EDGE('',*,*,#954,.T.);
#954 = EDGE_CURVE('',#947,#955,#957,.T.);
#955 = VERTEX_POINT('',#956);
#956 = CARTESIAN_POINT('',(0.55,-0.8,-4.E-02));
#957 = CIRCLE('',#958,0.249998959685);
#958 = AXIS2_PLACEMENT_3D('',#959,#960,#961);
#959 = CARTESIAN_POINT('',(0.550001040317,-0.550001040317,-4.E-02));
#960 = DIRECTION('',(0.,0.,-1.));
#961 = DIRECTION('',(0.999999999991,4.161285832626E-06,0.));
#962 = ORIENTED_EDGE('',*,*,#963,.T.);
#963 = EDGE_CURVE('',#955,#964,#966,.T.);
#964 = VERTEX_POINT('',#965);
#965 = CARTESIAN_POINT('',(-0.55,-0.8,-4.E-02));
#966 = LINE('',#967,#968);
#967 = CARTESIAN_POINT('',(0.55,-0.8,-4.E-02));
#968 = VECTOR('',#969,1.);
#969 = DIRECTION('',(-1.,0.,0.));
#970 = ORIENTED_EDGE('',*,*,#971,.T.);
#971 = EDGE_CURVE('',#964,#813,#972,.T.);
#972 = CIRCLE('',#973,0.249998959685);
#973 = AXIS2_PLACEMENT_3D('',#974,#975,#976);
#974 = CARTESIAN_POINT('',(-0.550001040317,-0.550001040317,-4.E-02));
#975 = DIRECTION('',(0.,0.,-1.));
#976 = DIRECTION('',(4.161285832626E-06,-0.999999999991,0.));
#977 = ORIENTED_EDGE('',*,*,#820,.T.);
#978 = FACE_BOUND('',#979,.T.);
#979 = EDGE_LOOP('',(#980));
#980 = ORIENTED_EDGE('',*,*,#981,.F.);
#981 = EDGE_CURVE('',#982,#982,#984,.T.);
#982 = VERTEX_POINT('',#983);
#983 = CARTESIAN_POINT('',(-6.162975822039E-33,-0.375,-4.E-02));
#984 = CIRCLE('',#985,0.375);
#985 = AXIS2_PLACEMENT_3D('',#986,#987,#988);
#986 = CARTESIAN_POINT('',(-4.163336342344E-17,6.938893903907E-17,
    -4.E-02));
#987 = DIRECTION('',(-0.,0.,-1.));
#988 = DIRECTION('',(1.110223024625E-16,-1.,-0.));
#989 = PLANE('',#990);
#990 = AXIS2_PLACEMENT_3D('',#991,#992,#993);
#991 = CARTESIAN_POINT('',(0.,0.,-4.E-02));
#992 = DIRECTION('',(-0.,-0.,-1.));
#993 = DIRECTION('',(-1.,0.,0.));
#994 = ADVANCED_FACE('',(#995),#1006,.T.);
#995 = FACE_BOUND('',#996,.F.);
#996 = EDGE_LOOP('',(#997,#1003,#1004,#1005));
#997 = ORIENTED_EDGE('',*,*,#998,.T.);
#998 = EDGE_CURVE('',#901,#964,#999,.T.);
#999 = LINE('',#1000,#1001);
#1000 = CARTESIAN_POINT('',(-0.55,-0.8,0.));
#1001 = VECTOR('',#1002,1.);
#1002 = DIRECTION('',(0.,0.,-1.));
#1003 = ORIENTED_EDGE('',*,*,#971,.T.);
#1004 = ORIENTED_EDGE('',*,*,#810,.F.);
#1005 = ORIENTED_EDGE('',*,*,#908,.F.);
#1006 = CYLINDRICAL_SURFACE('',#1007,0.249998959685);
#1007 = AXIS2_PLACEMENT_3D('',#1008,#1009,#1010);
#1008 = CARTESIAN_POINT('',(-0.550001040317,-0.550001040317,0.));
#1009 = DIRECTION('',(-0.,-0.,1.));
#1010 = DIRECTION('',(4.161285832626E-06,-0.999999999991,0.));
#1011 = ADVANCED_FACE('',(#1012),#1023,.T.);
#1012 = FACE_BOUND('',#1013,.F.);
#1013 = EDGE_LOOP('',(#1014,#1015,#1016,#1022));
#1014 = ORIENTED_EDGE('',*,*,#850,.T.);
#1015 = ORIENTED_EDGE('',*,*,#937,.T.);
#1016 = ORIENTED_EDGE('',*,*,#1017,.F.);
#1017 = EDGE_CURVE('',#875,#938,#1018,.T.);
#1018 = LINE('',#1019,#1020);
#1019 = CARTESIAN_POINT('',(0.8,0.55,0.));
#1020 = VECTOR('',#1021,1.);
#1021 = DIRECTION('',(0.,0.,-1.));
#1022 = ORIENTED_EDGE('',*,*,#874,.F.);
#1023 = CYLINDRICAL_SURFACE('',#1024,0.249998959685);
#1024 = AXIS2_PLACEMENT_3D('',#1025,#1026,#1027);
#1025 = CARTESIAN_POINT('',(0.550001040317,0.550001040317,0.));
#1026 = DIRECTION('',(-0.,-0.,1.));
#1027 = DIRECTION('',(-4.161285832626E-06,0.999999999991,0.));
#1028 = ADVANCED_FACE('',(#1029),#1040,.F.);
#1029 = FACE_BOUND('',#1030,.F.);
#1030 = EDGE_LOOP('',(#1031,#1037,#1038,#1039));
#1031 = ORIENTED_EDGE('',*,*,#1032,.T.);
#1032 = EDGE_CURVE('',#892,#955,#1033,.T.);
#1033 = LINE('',#1034,#1035);
#1034 = CARTESIAN_POINT('',(0.55,-0.8,0.));
#1035 = VECTOR('',#1036,1.);
#1036 = DIRECTION('',(0.,0.,-1.));
#1037 = ORIENTED_EDGE('',*,*,#963,.T.);
#1038 = ORIENTED_EDGE('',*,*,#998,.F.);
#1039 = ORIENTED_EDGE('',*,*,#900,.F.);
#1040 = PLANE('',#1041);
#1041 = AXIS2_PLACEMENT_3D('',#1042,#1043,#1044);
#1042 = CARTESIAN_POINT('',(0.55,-0.8,0.));
#1043 = DIRECTION('',(0.,1.,0.));
#1044 = DIRECTION('',(-1.,0.,0.));
#1045 = ADVANCED_FACE('',(#1046),#1057,.F.);
#1046 = FACE_BOUND('',#1047,.F.);
#1047 = EDGE_LOOP('',(#1048,#1049,#1050,#1056));
#1048 = ORIENTED_EDGE('',*,*,#1017,.T.);
#1049 = ORIENTED_EDGE('',*,*,#946,.T.);
#1050 = ORIENTED_EDGE('',*,*,#1051,.F.);
#1051 = EDGE_CURVE('',#884,#947,#1052,.T.);
#1052 = LINE('',#1053,#1054);
#1053 = CARTESIAN_POINT('',(0.8,-0.55,0.));
#1054 = VECTOR('',#1055,1.);
#1055 = DIRECTION('',(0.,0.,-1.));
#1056 = ORIENTED_EDGE('',*,*,#883,.F.);
#1057 = PLANE('',#1058);
#1058 = AXIS2_PLACEMENT_3D('',#1059,#1060,#1061);
#1059 = CARTESIAN_POINT('',(0.8,0.55,0.));
#1060 = DIRECTION('',(-1.,-0.,-0.));
#1061 = DIRECTION('',(0.,-1.,0.));
#1062 = ADVANCED_FACE('',(#1063),#1069,.T.);
#1063 = FACE_BOUND('',#1064,.F.);
#1064 = EDGE_LOOP('',(#1065,#1066,#1067,#1068));
#1065 = ORIENTED_EDGE('',*,*,#1051,.T.);
#1066 = ORIENTED_EDGE('',*,*,#954,.T.);
#1067 = ORIENTED_EDGE('',*,*,#1032,.F.);
#1068 = ORIENTED_EDGE('',*,*,#891,.F.);
#1069 = CYLINDRICAL_SURFACE('',#1070,0.249998959685);
#1070 = AXIS2_PLACEMENT_3D('',#1071,#1072,#1073);
#1071 = CARTESIAN_POINT('',(0.550001040317,-0.550001040317,0.));
#1072 = DIRECTION('',(-0.,-0.,1.));
#1073 = DIRECTION('',(0.999999999991,4.161285832626E-06,0.));
#1074 = ADVANCED_FACE('',(#1075),#1086,.F.);
#1075 = FACE_BOUND('',#1076,.T.);
#1076 = EDGE_LOOP('',(#1077,#1078,#1084,#1085));
#1077 = ORIENTED_EDGE('',*,*,#981,.T.);
#1078 = ORIENTED_EDGE('',*,*,#1079,.T.);
#1079 = EDGE_CURVE('',#982,#919,#1080,.T.);
#1080 = LINE('',#1081,#1082);
#1081 = CARTESIAN_POINT('',(-6.162975822039E-33,-0.375,-4.6E-02));
#1082 = VECTOR('',#1083,1.);
#1083 = DIRECTION('',(0.,0.,1.));
#1084 = ORIENTED_EDGE('',*,*,#918,.F.);
#1085 = ORIENTED_EDGE('',*,*,#1079,.F.);
#1086 = CYLINDRICAL_SURFACE('',#1087,0.375);
#1087 = AXIS2_PLACEMENT_3D('',#1088,#1089,#1090);
#1088 = CARTESIAN_POINT('',(-4.163336342344E-17,6.938893903907E-17,
    -4.6E-02));
#1089 = DIRECTION('',(-0.,0.,-1.));
#1090 = DIRECTION('',(1.110223024625E-16,-1.,-0.));
#1091 = MANIFOLD_SOLID_BREP('',#1092);
#1092 = CLOSED_SHELL('',(#1093,#1126,#1146,#1166));
#1093 = ADVANCED_FACE('',(#1094),#1121,.T.);
#1094 = FACE_BOUND('',#1095,.F.);
#1095 = EDGE_LOOP('',(#1096,#1106,#1113,#1114));
#1096 = ORIENTED_EDGE('',*,*,#1097,.T.);
#1097 = EDGE_CURVE('',#1098,#1100,#1102,.T.);
#1098 = VERTEX_POINT('',#1099);
#1099 = CARTESIAN_POINT('',(0.,-0.4,-4.E-02));
#1100 = VERTEX_POINT('',#1101);
#1101 = CARTESIAN_POINT('',(0.,-0.4,1.55));
#1102 = LINE('',#1103,#1104);
#1103 = CARTESIAN_POINT('',(0.,-0.4,-4.E-02));
#1104 = VECTOR('',#1105,1.);
#1105 = DIRECTION('',(0.,0.,1.));
#1106 = ORIENTED_EDGE('',*,*,#1107,.T.);
#1107 = EDGE_CURVE('',#1100,#1100,#1108,.T.);
#1108 = CIRCLE('',#1109,0.4);
#1109 = AXIS2_PLACEMENT_3D('',#1110,#1111,#1112);
#1110 = CARTESIAN_POINT('',(-4.163336342344E-17,6.938893903907E-17,1.55)
  );
#1111 = DIRECTION('',(0.,-0.,1.));
#1112 = DIRECTION('',(1.040834085586E-16,-1.,-0.));
#1113 = ORIENTED_EDGE('',*,*,#1097,.F.);
#1114 = ORIENTED_EDGE('',*,*,#1115,.F.);
#1115 = EDGE_CURVE('',#1098,#1098,#1116,.T.);
#1116 = CIRCLE('',#1117,0.4);
#1117 = AXIS2_PLACEMENT_3D('',#1118,#1119,#1120);
#1118 = CARTESIAN_POINT('',(-4.163336342344E-17,6.938893903907E-17,
    -4.E-02));
#1119 = DIRECTION('',(0.,-0.,1.));
#1120 = DIRECTION('',(1.040834085586E-16,-1.,-0.));
#1121 = CYLINDRICAL_SURFACE('',#1122,0.4);
#1122 = AXIS2_PLACEMENT_3D('',#1123,#1124,#1125);
#1123 = CARTESIAN_POINT('',(-4.163336342344E-17,6.938893903907E-17,
    -4.E-02));
#1124 = DIRECTION('',(-0.,0.,-1.));
#1125 = DIRECTION('',(1.040834085586E-16,-1.,-0.));
#1126 = ADVANCED_FACE('',(#1127,#1130),#1141,.F.);
#1127 = FACE_BOUND('',#1128,.F.);
#1128 = EDGE_LOOP('',(#1129));
#1129 = ORIENTED_EDGE('',*,*,#1115,.T.);
#1130 = FACE_BOUND('',#1131,.F.);
#1131 = EDGE_LOOP('',(#1132));
#1132 = ORIENTED_EDGE('',*,*,#1133,.T.);
#1133 = EDGE_CURVE('',#1134,#1134,#1136,.T.);
#1134 = VERTEX_POINT('',#1135);
#1135 = CARTESIAN_POINT('',(-6.162975822039E-33,-0.375,-4.E-02));
#1136 = CIRCLE('',#1137,0.375);
#1137 = AXIS2_PLACEMENT_3D('',#1138,#1139,#1140);
#1138 = CARTESIAN_POINT('',(-4.163336342344E-17,6.938893903907E-17,
    -4.E-02));
#1139 = DIRECTION('',(-0.,0.,-1.));
#1140 = DIRECTION('',(1.110223024625E-16,-1.,-0.));
#1141 = PLANE('',#1142);
#1142 = AXIS2_PLACEMENT_3D('',#1143,#1144,#1145);
#1143 = CARTESIAN_POINT('',(0.,-0.4,-4.E-02));
#1144 = DIRECTION('',(0.,0.,1.));
#1145 = DIRECTION('',(1.,0.,-0.));
#1146 = ADVANCED_FACE('',(#1147,#1150),#1161,.T.);
#1147 = FACE_BOUND('',#1148,.T.);
#1148 = EDGE_LOOP('',(#1149));
#1149 = ORIENTED_EDGE('',*,*,#1107,.T.);
#1150 = FACE_BOUND('',#1151,.T.);
#1151 = EDGE_LOOP('',(#1152));
#1152 = ORIENTED_EDGE('',*,*,#1153,.T.);
#1153 = EDGE_CURVE('',#1154,#1154,#1156,.T.);
#1154 = VERTEX_POINT('',#1155);
#1155 = CARTESIAN_POINT('',(-6.162975822039E-33,-0.375,1.55));
#1156 = CIRCLE('',#1157,0.375);
#1157 = AXIS2_PLACEMENT_3D('',#1158,#1159,#1160);
#1158 = CARTESIAN_POINT('',(-4.163336342344E-17,6.938893903907E-17,1.55)
  );
#1159 = DIRECTION('',(-0.,0.,-1.));
#1160 = DIRECTION('',(1.110223024625E-16,-1.,-0.));
#1161 = PLANE('',#1162);
#1162 = AXIS2_PLACEMENT_3D('',#1163,#1164,#1165);
#1163 = CARTESIAN_POINT('',(0.,-0.4,1.55));
#1164 = DIRECTION('',(0.,0.,1.));
#1165 = DIRECTION('',(1.,0.,-0.));
#1166 = ADVANCED_FACE('',(#1167),#1178,.F.);
#1167 = FACE_BOUND('',#1168,.T.);
#1168 = EDGE_LOOP('',(#1169,#1170,#1176,#1177));
#1169 = ORIENTED_EDGE('',*,*,#1133,.T.);
#1170 = ORIENTED_EDGE('',*,*,#1171,.T.);
#1171 = EDGE_CURVE('',#1134,#1154,#1172,.T.);
#1172 = LINE('',#1173,#1174);
#1173 = CARTESIAN_POINT('',(-6.162975822039E-33,-0.375,-4.6E-02));
#1174 = VECTOR('',#1175,1.);
#1175 = DIRECTION('',(0.,0.,1.));
#1176 = ORIENTED_EDGE('',*,*,#1153,.F.);
#1177 = ORIENTED_EDGE('',*,*,#1171,.F.);
#1178 = CYLINDRICAL_SURFACE('',#1179,0.375);
#1179 = AXIS2_PLACEMENT_3D('',#1180,#1181,#1182);
#1180 = CARTESIAN_POINT('',(-4.163336342344E-17,6.938893903907E-17,
    -4.6E-02));
#1181 = DIRECTION('',(-0.,0.,-1.));
#1182 = DIRECTION('',(1.110223024625E-16,-1.,-0.));
#1183 = MANIFOLD_SOLID_BREP('',#1184);
#1184 = CLOSED_SHELL('',(#1185,#1218,#1238,#1258));
#1185 = ADVANCED_FACE('',(#1186),#1213,.T.);
#1186 = FACE_BOUND('',#1187,.F.);
#1187 = EDGE_LOOP('',(#1188,#1198,#1205,#1206));
#1188 = ORIENTED_EDGE('',*,*,#1189,.T.);
#1189 = EDGE_CURVE('',#1190,#1192,#1194,.T.);
#1190 = VERTEX_POINT('',#1191);
#1191 = CARTESIAN_POINT('',(8.419999,0.,1.51));
#1192 = VERTEX_POINT('',#1193);
#1193 = CARTESIAN_POINT('',(8.419999,0.,1.55));
#1194 = LINE('',#1195,#1196);
#1195 = CARTESIAN_POINT('',(8.419999,0.,1.51));
#1196 = VECTOR('',#1197,1.);
#1197 = DIRECTION('',(0.,0.,1.));
#1198 = ORIENTED_EDGE('',*,*,#1199,.T.);
#1199 = EDGE_CURVE('',#1192,#1192,#1200,.T.);
#1200 = CIRCLE('',#1201,0.799999);
#1201 = AXIS2_PLACEMENT_3D('',#1202,#1203,#1204);
#1202 = CARTESIAN_POINT('',(7.62,0.,1.55));
#1203 = DIRECTION('',(0.,0.,1.));
#1204 = DIRECTION('',(1.,0.,-0.));
#1205 = ORIENTED_EDGE('',*,*,#1189,.F.);
#1206 = ORIENTED_EDGE('',*,*,#1207,.F.);
#1207 = EDGE_CURVE('',#1190,#1190,#1208,.T.);
#1208 = CIRCLE('',#1209,0.799999);
#1209 = AXIS2_PLACEMENT_3D('',#1210,#1211,#1212);
#1210 = CARTESIAN_POINT('',(7.62,-0.,1.51));
#1211 = DIRECTION('',(0.,0.,1.));
#1212 = DIRECTION('',(1.,0.,-0.));
#1213 = CYLINDRICAL_SURFACE('',#1214,0.799999);
#1214 = AXIS2_PLACEMENT_3D('',#1215,#1216,#1217);
#1215 = CARTESIAN_POINT('',(7.62,-0.,1.51));
#1216 = DIRECTION('',(-0.,-0.,-1.));
#1217 = DIRECTION('',(1.,0.,-0.));
#1218 = ADVANCED_FACE('',(#1219,#1222),#1233,.F.);
#1219 = FACE_BOUND('',#1220,.F.);
#1220 = EDGE_LOOP('',(#1221));
#1221 = ORIENTED_EDGE('',*,*,#1207,.T.);
#1222 = FACE_BOUND('',#1223,.F.);
#1223 = EDGE_LOOP('',(#1224));
#1224 = ORIENTED_EDGE('',*,*,#1225,.T.);
#1225 = EDGE_CURVE('',#1226,#1226,#1228,.T.);
#1226 = VERTEX_POINT('',#1227);
#1227 = CARTESIAN_POINT('',(7.62,-0.375,1.51));
#1228 = CIRCLE('',#1229,0.375);
#1229 = AXIS2_PLACEMENT_3D('',#1230,#1231,#1232);
#1230 = CARTESIAN_POINT('',(7.62,6.938893903907E-17,1.51));
#1231 = DIRECTION('',(-0.,0.,-1.));
#1232 = DIRECTION('',(-0.,-1.,0.));
#1233 = PLANE('',#1234);
#1234 = AXIS2_PLACEMENT_3D('',#1235,#1236,#1237);
#1235 = CARTESIAN_POINT('',(0.,0.,1.51));
#1236 = DIRECTION('',(0.,0.,1.));
#1237 = DIRECTION('',(1.,0.,-0.));
#1238 = ADVANCED_FACE('',(#1239,#1242),#1253,.T.);
#1239 = FACE_BOUND('',#1240,.T.);
#1240 = EDGE_LOOP('',(#1241));
#1241 = ORIENTED_EDGE('',*,*,#1199,.T.);
#1242 = FACE_BOUND('',#1243,.T.);
#1243 = EDGE_LOOP('',(#1244));
#1244 = ORIENTED_EDGE('',*,*,#1245,.T.);
#1245 = EDGE_CURVE('',#1246,#1246,#1248,.T.);
#1246 = VERTEX_POINT('',#1247);
#1247 = CARTESIAN_POINT('',(7.62,-0.375,1.55));
#1248 = CIRCLE('',#1249,0.375);
#1249 = AXIS2_PLACEMENT_3D('',#1250,#1251,#1252);
#1250 = CARTESIAN_POINT('',(7.62,6.938893903907E-17,1.55));
#1251 = DIRECTION('',(-0.,0.,-1.));
#1252 = DIRECTION('',(-0.,-1.,0.));
#1253 = PLANE('',#1254);
#1254 = AXIS2_PLACEMENT_3D('',#1255,#1256,#1257);
#1255 = CARTESIAN_POINT('',(0.,0.,1.55));
#1256 = DIRECTION('',(0.,0.,1.));
#1257 = DIRECTION('',(1.,0.,-0.));
#1258 = ADVANCED_FACE('',(#1259),#1270,.F.);
#1259 = FACE_BOUND('',#1260,.T.);
#1260 = EDGE_LOOP('',(#1261,#1262,#1268,#1269));
#1261 = ORIENTED_EDGE('',*,*,#1225,.T.);
#1262 = ORIENTED_EDGE('',*,*,#1263,.T.);
#1263 = EDGE_CURVE('',#1226,#1246,#1264,.T.);
#1264 = LINE('',#1265,#1266);
#1265 = CARTESIAN_POINT('',(7.62,-0.375,-4.6E-02));
#1266 = VECTOR('',#1267,1.);
#1267 = DIRECTION('',(0.,0.,1.));
#1268 = ORIENTED_EDGE('',*,*,#1245,.F.);
#1269 = ORIENTED_EDGE('',*,*,#1263,.F.);
#1270 = CYLINDRICAL_SURFACE('',#1271,0.375);
#1271 = AXIS2_PLACEMENT_3D('',#1272,#1273,#1274);
#1272 = CARTESIAN_POINT('',(7.62,6.938893903907E-17,-4.6E-02));
#1273 = DIRECTION('',(-0.,-0.,-1.));
#1274 = DIRECTION('',(-0.,-1.,0.));
#1275 = MANIFOLD_SOLID_BREP('',#1276);
#1276 = CLOSED_SHELL('',(#1277,#1310,#1330,#1350));
#1277 = ADVANCED_FACE('',(#1278),#1305,.T.);
#1278 = FACE_BOUND('',#1279,.T.);
#1279 = EDGE_LOOP('',(#1280,#1290,#1297,#1298));
#1280 = ORIENTED_EDGE('',*,*,#1281,.T.);
#1281 = EDGE_CURVE('',#1282,#1284,#1286,.T.);
#1282 = VERTEX_POINT('',#1283);
#1283 = CARTESIAN_POINT('',(8.419999,0.,0.));
#1284 = VERTEX_POINT('',#1285);
#1285 = CARTESIAN_POINT('',(8.419999,0.,-4.E-02));
#1286 = LINE('',#1287,#1288);
#1287 = CARTESIAN_POINT('',(8.419999,0.,0.));
#1288 = VECTOR('',#1289,1.);
#1289 = DIRECTION('',(0.,0.,-1.));
#1290 = ORIENTED_EDGE('',*,*,#1291,.T.);
#1291 = EDGE_CURVE('',#1284,#1284,#1292,.T.);
#1292 = CIRCLE('',#1293,0.799999);
#1293 = AXIS2_PLACEMENT_3D('',#1294,#1295,#1296);
#1294 = CARTESIAN_POINT('',(7.62,0.,-4.E-02));
#1295 = DIRECTION('',(0.,0.,1.));
#1296 = DIRECTION('',(1.,0.,-0.));
#1297 = ORIENTED_EDGE('',*,*,#1281,.F.);
#1298 = ORIENTED_EDGE('',*,*,#1299,.F.);
#1299 = EDGE_CURVE('',#1282,#1282,#1300,.T.);
#1300 = CIRCLE('',#1301,0.799999);
#1301 = AXIS2_PLACEMENT_3D('',#1302,#1303,#1304);
#1302 = CARTESIAN_POINT('',(7.62,-0.,0.));
#1303 = DIRECTION('',(0.,0.,1.));
#1304 = DIRECTION('',(1.,0.,-0.));
#1305 = CYLINDRICAL_SURFACE('',#1306,0.799999);
#1306 = AXIS2_PLACEMENT_3D('',#1307,#1308,#1309);
#1307 = CARTESIAN_POINT('',(7.62,-0.,0.));
#1308 = DIRECTION('',(0.,0.,1.));
#1309 = DIRECTION('',(1.,0.,-0.));
#1310 = ADVANCED_FACE('',(#1311,#1314),#1325,.F.);
#1311 = FACE_BOUND('',#1312,.F.);
#1312 = EDGE_LOOP('',(#1313));
#1313 = ORIENTED_EDGE('',*,*,#1299,.F.);
#1314 = FACE_BOUND('',#1315,.F.);
#1315 = EDGE_LOOP('',(#1316));
#1316 = ORIENTED_EDGE('',*,*,#1317,.F.);
#1317 = EDGE_CURVE('',#1318,#1318,#1320,.T.);
#1318 = VERTEX_POINT('',#1319);
#1319 = CARTESIAN_POINT('',(7.62,-0.375,0.));
#1320 = CIRCLE('',#1321,0.375);
#1321 = AXIS2_PLACEMENT_3D('',#1322,#1323,#1324);
#1322 = CARTESIAN_POINT('',(7.62,6.938893903907E-17,0.));
#1323 = DIRECTION('',(-0.,0.,-1.));
#1324 = DIRECTION('',(-0.,-1.,0.));
#1325 = PLANE('',#1326);
#1326 = AXIS2_PLACEMENT_3D('',#1327,#1328,#1329);
#1327 = CARTESIAN_POINT('',(0.,0.,0.));
#1328 = DIRECTION('',(-0.,-0.,-1.));
#1329 = DIRECTION('',(-1.,0.,0.));
#1330 = ADVANCED_FACE('',(#1331,#1334),#1345,.T.);
#1331 = FACE_BOUND('',#1332,.T.);
#1332 = EDGE_LOOP('',(#1333));
#1333 = ORIENTED_EDGE('',*,*,#1291,.F.);
#1334 = FACE_BOUND('',#1335,.T.);
#1335 = EDGE_LOOP('',(#1336));
#1336 = ORIENTED_EDGE('',*,*,#1337,.F.);
#1337 = EDGE_CURVE('',#1338,#1338,#1340,.T.);
#1338 = VERTEX_POINT('',#1339);
#1339 = CARTESIAN_POINT('',(7.62,-0.375,-4.E-02));
#1340 = CIRCLE('',#1341,0.375);
#1341 = AXIS2_PLACEMENT_3D('',#1342,#1343,#1344);
#1342 = CARTESIAN_POINT('',(7.62,6.938893903907E-17,-4.E-02));
#1343 = DIRECTION('',(-0.,0.,-1.));
#1344 = DIRECTION('',(-0.,-1.,0.));
#1345 = PLANE('',#1346);
#1346 = AXIS2_PLACEMENT_3D('',#1347,#1348,#1349);
#1347 = CARTESIAN_POINT('',(0.,0.,-4.E-02));
#1348 = DIRECTION('',(-0.,-0.,-1.));
#1349 = DIRECTION('',(-1.,0.,0.));
#1350 = ADVANCED_FACE('',(#1351),#1362,.F.);
#1351 = FACE_BOUND('',#1352,.T.);
#1352 = EDGE_LOOP('',(#1353,#1354,#1360,#1361));
#1353 = ORIENTED_EDGE('',*,*,#1337,.T.);
#1354 = ORIENTED_EDGE('',*,*,#1355,.T.);
#1355 = EDGE_CURVE('',#1338,#1318,#1356,.T.);
#1356 = LINE('',#1357,#1358);
#1357 = CARTESIAN_POINT('',(7.62,-0.375,-4.6E-02));
#1358 = VECTOR('',#1359,1.);
#1359 = DIRECTION('',(0.,0.,1.));
#1360 = ORIENTED_EDGE('',*,*,#1317,.F.);
#1361 = ORIENTED_EDGE('',*,*,#1355,.F.);
#1362 = CYLINDRICAL_SURFACE('',#1363,0.375);
#1363 = AXIS2_PLACEMENT_3D('',#1364,#1365,#1366);
#1364 = CARTESIAN_POINT('',(7.62,6.938893903907E-17,-4.6E-02));
#1365 = DIRECTION('',(-0.,-0.,-1.));
#1366 = DIRECTION('',(-0.,-1.,0.));
#1367 = MANIFOLD_SOLID_BREP('',#1368);
#1368 = CLOSED_SHELL('',(#1369,#1402,#1422,#1442));
#1369 = ADVANCED_FACE('',(#1370),#1397,.T.);
#1370 = FACE_BOUND('',#1371,.F.);
#1371 = EDGE_LOOP('',(#1372,#1382,#1389,#1390));
#1372 = ORIENTED_EDGE('',*,*,#1373,.T.);
#1373 = EDGE_CURVE('',#1374,#1376,#1378,.T.);
#1374 = VERTEX_POINT('',#1375);
#1375 = CARTESIAN_POINT('',(7.62,-0.4,-4.E-02));
#1376 = VERTEX_POINT('',#1377);
#1377 = CARTESIAN_POINT('',(7.62,-0.4,1.55));
#1378 = LINE('',#1379,#1380);
#1379 = CARTESIAN_POINT('',(7.62,-0.4,-4.E-02));
#1380 = VECTOR('',#1381,1.);
#1381 = DIRECTION('',(0.,0.,1.));
#1382 = ORIENTED_EDGE('',*,*,#1383,.T.);
#1383 = EDGE_CURVE('',#1376,#1376,#1384,.T.);
#1384 = CIRCLE('',#1385,0.4);
#1385 = AXIS2_PLACEMENT_3D('',#1386,#1387,#1388);
#1386 = CARTESIAN_POINT('',(7.62,7.771561172376E-16,1.55));
#1387 = DIRECTION('',(0.,-0.,1.));
#1388 = DIRECTION('',(2.22044604925E-15,-1.,-0.));
#1389 = ORIENTED_EDGE('',*,*,#1373,.F.);
#1390 = ORIENTED_EDGE('',*,*,#1391,.F.);
#1391 = EDGE_CURVE('',#1374,#1374,#1392,.T.);
#1392 = CIRCLE('',#1393,0.4);
#1393 = AXIS2_PLACEMENT_3D('',#1394,#1395,#1396);
#1394 = CARTESIAN_POINT('',(7.62,7.771561172376E-16,-4.E-02));
#1395 = DIRECTION('',(0.,-0.,1.));
#1396 = DIRECTION('',(2.22044604925E-15,-1.,-0.));
#1397 = CYLINDRICAL_SURFACE('',#1398,0.4);
#1398 = AXIS2_PLACEMENT_3D('',#1399,#1400,#1401);
#1399 = CARTESIAN_POINT('',(7.62,7.771561172376E-16,-4.E-02));
#1400 = DIRECTION('',(-0.,0.,-1.));
#1401 = DIRECTION('',(2.22044604925E-15,-1.,-0.));
#1402 = ADVANCED_FACE('',(#1403,#1406),#1417,.F.);
#1403 = FACE_BOUND('',#1404,.F.);
#1404 = EDGE_LOOP('',(#1405));
#1405 = ORIENTED_EDGE('',*,*,#1391,.T.);
#1406 = FACE_BOUND('',#1407,.F.);
#1407 = EDGE_LOOP('',(#1408));
#1408 = ORIENTED_EDGE('',*,*,#1409,.T.);
#1409 = EDGE_CURVE('',#1410,#1410,#1412,.T.);
#1410 = VERTEX_POINT('',#1411);
#1411 = CARTESIAN_POINT('',(7.62,-0.375,-4.E-02));
#1412 = CIRCLE('',#1413,0.375);
#1413 = AXIS2_PLACEMENT_3D('',#1414,#1415,#1416);
#1414 = CARTESIAN_POINT('',(7.62,6.938893903907E-17,-4.E-02));
#1415 = DIRECTION('',(-0.,0.,-1.));
#1416 = DIRECTION('',(-0.,-1.,0.));
#1417 = PLANE('',#1418);
#1418 = AXIS2_PLACEMENT_3D('',#1419,#1420,#1421);
#1419 = CARTESIAN_POINT('',(7.62,-0.4,-4.E-02));
#1420 = DIRECTION('',(0.,0.,1.));
#1421 = DIRECTION('',(1.,0.,-0.));
#1422 = ADVANCED_FACE('',(#1423,#1426),#1437,.T.);
#1423 = FACE_BOUND('',#1424,.T.);
#1424 = EDGE_LOOP('',(#1425));
#1425 = ORIENTED_EDGE('',*,*,#1383,.T.);
#1426 = FACE_BOUND('',#1427,.T.);
#1427 = EDGE_LOOP('',(#1428));
#1428 = ORIENTED_EDGE('',*,*,#1429,.T.);
#1429 = EDGE_CURVE('',#1430,#1430,#1432,.T.);
#1430 = VERTEX_POINT('',#1431);
#1431 = CARTESIAN_POINT('',(7.62,-0.375,1.55));
#1432 = CIRCLE('',#1433,0.375);
#1433 = AXIS2_PLACEMENT_3D('',#1434,#1435,#1436);
#1434 = CARTESIAN_POINT('',(7.62,6.938893903907E-17,1.55));
#1435 = DIRECTION('',(-0.,0.,-1.));
#1436 = DIRECTION('',(-0.,-1.,0.));
#1437 = PLANE('',#1438);
#1438 = AXIS2_PLACEMENT_3D('',#1439,#1440,#1441);
#1439 = CARTESIAN_POINT('',(7.62,-0.4,1.55));
#1440 = DIRECTION('',(0.,0.,1.));
#1441 = DIRECTION('',(1.,0.,-0.));
#1442 = ADVANCED_FACE('',(#1443),#1454,.F.);
#1443 = FACE_BOUND('',#1444,.T.);
#1444 = EDGE_LOOP('',(#1445,#1446,#1452,#1453));
#1445 = ORIENTED_EDGE('',*,*,#1409,.T.);
#1446 = ORIENTED_EDGE('',*,*,#1447,.T.);
#1447 = EDGE_CURVE('',#1410,#1430,#1448,.T.);
#1448 = LINE('',#1449,#1450);
#1449 = CARTESIAN_POINT('',(7.62,-0.375,-4.6E-02));
#1450 = VECTOR('',#1451,1.);
#1451 = DIRECTION('',(0.,0.,1.));
#1452 = ORIENTED_EDGE('',*,*,#1429,.F.);
#1453 = ORIENTED_EDGE('',*,*,#1447,.F.);
#1454 = CYLINDRICAL_SURFACE('',#1455,0.375);
#1455 = AXIS2_PLACEMENT_3D('',#1456,#1457,#1458);
#1456 = CARTESIAN_POINT('',(7.62,6.938893903907E-17,-4.6E-02));
#1457 = DIRECTION('',(-0.,-0.,-1.));
#1458 = DIRECTION('',(-0.,-1.,0.));
#1459 = ( GEOMETRIC_REPRESENTATION_CONTEXT(3) 
GLOBAL_UNCERTAINTY_ASSIGNED_CONTEXT((#1463)) 
GLOBAL_UNIT_ASSIGNED_CONTEXT((#1460,#1461,#1462)) REPRESENTATION_CONTEXT
('Context #1','3D Context with UNIT and UNCERTAINTY') );
#1460 = ( LENGTH_UNIT() NAMED_UNIT(*) SI_UNIT(.MILLI.,.METRE.) );
#1461 = ( NAMED_UNIT(*) PLANE_ANGLE_UNIT() SI_UNIT($,.RADIAN.) );
#1462 = ( NAMED_UNIT(*) SI_UNIT($,.STERADIAN.) SOLID_ANGLE_UNIT() );
#1463 = UNCERTAINTY_MEASURE_WITH_UNIT(LENGTH_MEASURE(1.E-07),#1460,
  'distance_accuracy_value','confusion accuracy');
#1464 = CONTEXT_DEPENDENT_SHAPE_REPRESENTATION(#1465,#1467);
#1465 = ( REPRESENTATION_RELATIONSHIP('','',#432,#10) 
REPRESENTATION_RELATIONSHIP_WITH_TRANSFORMATION(#1466) 
SHAPE_REPRESENTATION_RELATIONSHIP() );
#1466 = ITEM_DEFINED_TRANSFORMATION('','',#11,#19);
#1467 = PRODUCT_DEFINITION_SHAPE('Placement','Placement of an item',
  #1468);
#1468 = NEXT_ASSEMBLY_USAGE_OCCURRENCE('3','=>[0:1:1:4]','',#5,#427,$);
#1469 = PRODUCT_RELATED_PRODUCT_CATEGORY('part',$,(#429));
#1470 = SHAPE_DEFINITION_REPRESENTATION(#1471,#1477);
#1471 = PRODUCT_DEFINITION_SHAPE('','',#1472);
#1472 = PRODUCT_DEFINITION('design','',#1473,#1476);
#1473 = PRODUCT_DEFINITION_FORMATION('','',#1474);
#1474 = PRODUCT(
  'electronic_diode_zener_do_35_st_semtech_bzx55c3v9_render_PCB',
  'electronic_diode_zener_do_35_st_semtech_bzx55c3v9_render_PCB','',(
    #1475));
#1475 = PRODUCT_CONTEXT('',#2,'mechanical');
#1476 = PRODUCT_DEFINITION_CONTEXT('part definition',#2,'design');
#1477 = ADVANCED_BREP_SHAPE_REPRESENTATION('',(#11,#1478),#1706);
#1478 = MANIFOLD_SOLID_BREP('',#1479);
#1479 = CLOSED_SHELL('',(#1480,#1520,#1551,#1582,#1621,#1660,#1672,#1689
    ));
#1480 = ADVANCED_FACE('',(#1481),#1515,.T.);
#1481 = FACE_BOUND('',#1482,.T.);
#1482 = EDGE_LOOP('',(#1483,#1493,#1501,#1509));
#1483 = ORIENTED_EDGE('',*,*,#1484,.T.);
#1484 = EDGE_CURVE('',#1485,#1487,#1489,.T.);
#1485 = VERTEX_POINT('',#1486);
#1486 = CARTESIAN_POINT('',(10.67,-3.25,0.));
#1487 = VERTEX_POINT('',#1488);
#1488 = CARTESIAN_POINT('',(10.67,-3.25,1.51));
#1489 = LINE('',#1490,#1491);
#1490 = CARTESIAN_POINT('',(10.67,-3.25,0.));
#1491 = VECTOR('',#1492,1.);
#1492 = DIRECTION('',(0.,0.,1.));
#1493 = ORIENTED_EDGE('',*,*,#1494,.T.);
#1494 = EDGE_CURVE('',#1487,#1495,#1497,.T.);
#1495 = VERTEX_POINT('',#1496);
#1496 = CARTESIAN_POINT('',(-3.05,-3.25,1.51));
#1497 = LINE('',#1498,#1499);
#1498 = CARTESIAN_POINT('',(10.67,-3.25,1.51));
#1499 = VECTOR('',#1500,1.);
#1500 = DIRECTION('',(-1.,0.,0.));
#1501 = ORIENTED_EDGE('',*,*,#1502,.F.);
#1502 = EDGE_CURVE('',#1503,#1495,#1505,.T.);
#1503 = VERTEX_POINT('',#1504);
#1504 = CARTESIAN_POINT('',(-3.05,-3.25,0.));
#1505 = LINE('',#1506,#1507);
#1506 = CARTESIAN_POINT('',(-3.05,-3.25,0.));
#1507 = VECTOR('',#1508,1.);
#1508 = DIRECTION('',(0.,0.,1.));
#1509 = ORIENTED_EDGE('',*,*,#1510,.F.);
#1510 = EDGE_CURVE('',#1485,#1503,#1511,.T.);
#1511 = LINE('',#1512,#1513);
#1512 = CARTESIAN_POINT('',(10.67,-3.25,0.));
#1513 = VECTOR('',#1514,1.);
#1514 = DIRECTION('',(-1.,0.,0.));
#1515 = PLANE('',#1516);
#1516 = AXIS2_PLACEMENT_3D('',#1517,#1518,#1519);
#1517 = CARTESIAN_POINT('',(10.67,-3.25,0.));
#1518 = DIRECTION('',(0.,-1.,0.));
#1519 = DIRECTION('',(-1.,0.,0.));
#1520 = ADVANCED_FACE('',(#1521),#1546,.T.);
#1521 = FACE_BOUND('',#1522,.T.);
#1522 = EDGE_LOOP('',(#1523,#1533,#1539,#1540));
#1523 = ORIENTED_EDGE('',*,*,#1524,.T.);
#1524 = EDGE_CURVE('',#1525,#1527,#1529,.T.);
#1525 = VERTEX_POINT('',#1526);
#1526 = CARTESIAN_POINT('',(10.67,3.25,0.));
#1527 = VERTEX_POINT('',#1528);
#1528 = CARTESIAN_POINT('',(10.67,3.25,1.51));
#1529 = LINE('',#1530,#1531);
#1530 = CARTESIAN_POINT('',(10.67,3.25,0.));
#1531 = VECTOR('',#1532,1.);
#1532 = DIRECTION('',(0.,0.,1.));
#1533 = ORIENTED_EDGE('',*,*,#1534,.T.);
#1534 = EDGE_CURVE('',#1527,#1487,#1535,.T.);
#1535 = LINE('',#1536,#1537);
#1536 = CARTESIAN_POINT('',(10.67,3.25,1.51));
#1537 = VECTOR('',#1538,1.);
#1538 = DIRECTION('',(0.,-1.,0.));
#1539 = ORIENTED_EDGE('',*,*,#1484,.F.);
#1540 = ORIENTED_EDGE('',*,*,#1541,.F.);
#1541 = EDGE_CURVE('',#1525,#1485,#1542,.T.);
#1542 = LINE('',#1543,#1544);
#1543 = CARTESIAN_POINT('',(10.67,3.25,0.));
#1544 = VECTOR('',#1545,1.);
#1545 = DIRECTION('',(0.,-1.,0.));
#1546 = PLANE('',#1547);
#1547 = AXIS2_PLACEMENT_3D('',#1548,#1549,#1550);
#1548 = CARTESIAN_POINT('',(10.67,3.25,0.));
#1549 = DIRECTION('',(1.,0.,-0.));
#1550 = DIRECTION('',(0.,-1.,0.));
#1551 = ADVANCED_FACE('',(#1552),#1577,.T.);
#1552 = FACE_BOUND('',#1553,.T.);
#1553 = EDGE_LOOP('',(#1554,#1555,#1563,#1571));
#1554 = ORIENTED_EDGE('',*,*,#1502,.T.);
#1555 = ORIENTED_EDGE('',*,*,#1556,.T.);
#1556 = EDGE_CURVE('',#1495,#1557,#1559,.T.);
#1557 = VERTEX_POINT('',#1558);
#1558 = CARTESIAN_POINT('',(-3.05,3.25,1.51));
#1559 = LINE('',#1560,#1561);
#1560 = CARTESIAN_POINT('',(-3.05,-3.25,1.51));
#1561 = VECTOR('',#1562,1.);
#1562 = DIRECTION('',(0.,1.,0.));
#1563 = ORIENTED_EDGE('',*,*,#1564,.F.);
#1564 = EDGE_CURVE('',#1565,#1557,#1567,.T.);
#1565 = VERTEX_POINT('',#1566);
#1566 = CARTESIAN_POINT('',(-3.05,3.25,0.));
#1567 = LINE('',#1568,#1569);
#1568 = CARTESIAN_POINT('',(-3.05,3.25,0.));
#1569 = VECTOR('',#1570,1.);
#1570 = DIRECTION('',(0.,0.,1.));
#1571 = ORIENTED_EDGE('',*,*,#1572,.F.);
#1572 = EDGE_CURVE('',#1503,#1565,#1573,.T.);
#1573 = LINE('',#1574,#1575);
#1574 = CARTESIAN_POINT('',(-3.05,-3.25,0.));
#1575 = VECTOR('',#1576,1.);
#1576 = DIRECTION('',(0.,1.,0.));
#1577 = PLANE('',#1578);
#1578 = AXIS2_PLACEMENT_3D('',#1579,#1580,#1581);
#1579 = CARTESIAN_POINT('',(-3.05,-3.25,0.));
#1580 = DIRECTION('',(-1.,0.,0.));
#1581 = DIRECTION('',(0.,1.,0.));
#1582 = ADVANCED_FACE('',(#1583,#1594,#1605),#1616,.F.);
#1583 = FACE_BOUND('',#1584,.F.);
#1584 = EDGE_LOOP('',(#1585,#1586,#1587,#1593));
#1585 = ORIENTED_EDGE('',*,*,#1510,.F.);
#1586 = ORIENTED_EDGE('',*,*,#1541,.F.);
#1587 = ORIENTED_EDGE('',*,*,#1588,.F.);
#1588 = EDGE_CURVE('',#1565,#1525,#1589,.T.);
#1589 = LINE('',#1590,#1591);
#1590 = CARTESIAN_POINT('',(-3.05,3.25,0.));
#1591 = VECTOR('',#1592,1.);
#1592 = DIRECTION('',(1.,0.,0.));
#1593 = ORIENTED_EDGE('',*,*,#1572,.F.);
#1594 = FACE_BOUND('',#1595,.F.);
#1595 = EDGE_LOOP('',(#1596));
#1596 = ORIENTED_EDGE('',*,*,#1597,.T.);
#1597 = EDGE_CURVE('',#1598,#1598,#1600,.T.);
#1598 = VERTEX_POINT('',#1599);
#1599 = CARTESIAN_POINT('',(0.,-0.4,0.));
#1600 = CIRCLE('',#1601,0.4);
#1601 = AXIS2_PLACEMENT_3D('',#1602,#1603,#1604);
#1602 = CARTESIAN_POINT('',(-4.163336342344E-17,6.938893903907E-17,0.));
#1603 = DIRECTION('',(-0.,0.,-1.));
#1604 = DIRECTION('',(1.040834085586E-16,-1.,-0.));
#1605 = FACE_BOUND('',#1606,.F.);
#1606 = EDGE_LOOP('',(#1607));
#1607 = ORIENTED_EDGE('',*,*,#1608,.T.);
#1608 = EDGE_CURVE('',#1609,#1609,#1611,.T.);
#1609 = VERTEX_POINT('',#1610);
#1610 = CARTESIAN_POINT('',(7.62,-0.4,0.));
#1611 = CIRCLE('',#1612,0.4);
#1612 = AXIS2_PLACEMENT_3D('',#1613,#1614,#1615);
#1613 = CARTESIAN_POINT('',(7.62,7.771561172376E-16,0.));
#1614 = DIRECTION('',(-0.,0.,-1.));
#1615 = DIRECTION('',(2.22044604925E-15,-1.,-0.));
#1616 = PLANE('',#1617);
#1617 = AXIS2_PLACEMENT_3D('',#1618,#1619,#1620);
#1618 = CARTESIAN_POINT('',(0.,0.,0.));
#1619 = DIRECTION('',(0.,0.,1.));
#1620 = DIRECTION('',(1.,0.,-0.));
#1621 = ADVANCED_FACE('',(#1622,#1633,#1644),#1655,.T.);
#1622 = FACE_BOUND('',#1623,.T.);
#1623 = EDGE_LOOP('',(#1624,#1625,#1626,#1632));
#1624 = ORIENTED_EDGE('',*,*,#1494,.F.);
#1625 = ORIENTED_EDGE('',*,*,#1534,.F.);
#1626 = ORIENTED_EDGE('',*,*,#1627,.F.);
#1627 = EDGE_CURVE('',#1557,#1527,#1628,.T.);
#1628 = LINE('',#1629,#1630);
#1629 = CARTESIAN_POINT('',(-3.05,3.25,1.51));
#1630 = VECTOR('',#1631,1.);
#1631 = DIRECTION('',(1.,0.,0.));
#1632 = ORIENTED_EDGE('',*,*,#1556,.F.);
#1633 = FACE_BOUND('',#1634,.T.);
#1634 = EDGE_LOOP('',(#1635));
#1635 = ORIENTED_EDGE('',*,*,#1636,.T.);
#1636 = EDGE_CURVE('',#1637,#1637,#1639,.T.);
#1637 = VERTEX_POINT('',#1638);
#1638 = CARTESIAN_POINT('',(0.,-0.4,1.51));
#1639 = CIRCLE('',#1640,0.4);
#1640 = AXIS2_PLACEMENT_3D('',#1641,#1642,#1643);
#1641 = CARTESIAN_POINT('',(-4.163336342344E-17,6.938893903907E-17,1.51)
  );
#1642 = DIRECTION('',(-0.,0.,-1.));
#1643 = DIRECTION('',(1.040834085586E-16,-1.,-0.));
#1644 = FACE_BOUND('',#1645,.T.);
#1645 = EDGE_LOOP('',(#1646));
#1646 = ORIENTED_EDGE('',*,*,#1647,.T.);
#1647 = EDGE_CURVE('',#1648,#1648,#1650,.T.);
#1648 = VERTEX_POINT('',#1649);
#1649 = CARTESIAN_POINT('',(7.62,-0.4,1.51));
#1650 = CIRCLE('',#1651,0.4);
#1651 = AXIS2_PLACEMENT_3D('',#1652,#1653,#1654);
#1652 = CARTESIAN_POINT('',(7.62,7.771561172376E-16,1.51));
#1653 = DIRECTION('',(-0.,0.,-1.));
#1654 = DIRECTION('',(2.22044604925E-15,-1.,-0.));
#1655 = PLANE('',#1656);
#1656 = AXIS2_PLACEMENT_3D('',#1657,#1658,#1659);
#1657 = CARTESIAN_POINT('',(0.,0.,1.51));
#1658 = DIRECTION('',(0.,0.,1.));
#1659 = DIRECTION('',(1.,0.,-0.));
#1660 = ADVANCED_FACE('',(#1661),#1667,.T.);
#1661 = FACE_BOUND('',#1662,.T.);
#1662 = EDGE_LOOP('',(#1663,#1664,#1665,#1666));
#1663 = ORIENTED_EDGE('',*,*,#1564,.T.);
#1664 = ORIENTED_EDGE('',*,*,#1627,.T.);
#1665 = ORIENTED_EDGE('',*,*,#1524,.F.);
#1666 = ORIENTED_EDGE('',*,*,#1588,.F.);
#1667 = PLANE('',#1668);
#1668 = AXIS2_PLACEMENT_3D('',#1669,#1670,#1671);
#1669 = CARTESIAN_POINT('',(-3.05,3.25,0.));
#1670 = DIRECTION('',(0.,1.,0.));
#1671 = DIRECTION('',(1.,0.,0.));
#1672 = ADVANCED_FACE('',(#1673),#1684,.F.);
#1673 = FACE_BOUND('',#1674,.T.);
#1674 = EDGE_LOOP('',(#1675,#1676,#1682,#1683));
#1675 = ORIENTED_EDGE('',*,*,#1597,.T.);
#1676 = ORIENTED_EDGE('',*,*,#1677,.T.);
#1677 = EDGE_CURVE('',#1598,#1637,#1678,.T.);
#1678 = LINE('',#1679,#1680);
#1679 = CARTESIAN_POINT('',(0.,-0.4,-4.6E-02));
#1680 = VECTOR('',#1681,1.);
#1681 = DIRECTION('',(0.,0.,1.));
#1682 = ORIENTED_EDGE('',*,*,#1636,.F.);
#1683 = ORIENTED_EDGE('',*,*,#1677,.F.);
#1684 = CYLINDRICAL_SURFACE('',#1685,0.4);
#1685 = AXIS2_PLACEMENT_3D('',#1686,#1687,#1688);
#1686 = CARTESIAN_POINT('',(-4.163336342344E-17,6.938893903907E-17,
    -4.6E-02));
#1687 = DIRECTION('',(-0.,0.,-1.));
#1688 = DIRECTION('',(1.040834085586E-16,-1.,-0.));
#1689 = ADVANCED_FACE('',(#1690),#1701,.F.);
#1690 = FACE_BOUND('',#1691,.T.);
#1691 = EDGE_LOOP('',(#1692,#1693,#1699,#1700));
#1692 = ORIENTED_EDGE('',*,*,#1608,.T.);
#1693 = ORIENTED_EDGE('',*,*,#1694,.T.);
#1694 = EDGE_CURVE('',#1609,#1648,#1695,.T.);
#1695 = LINE('',#1696,#1697);
#1696 = CARTESIAN_POINT('',(7.62,-0.4,-4.6E-02));
#1697 = VECTOR('',#1698,1.);
#1698 = DIRECTION('',(0.,0.,1.));
#1699 = ORIENTED_EDGE('',*,*,#1647,.F.);
#1700 = ORIENTED_EDGE('',*,*,#1694,.F.);
#1701 = CYLINDRICAL_SURFACE('',#1702,0.4);
#1702 = AXIS2_PLACEMENT_3D('',#1703,#1704,#1705);
#1703 = CARTESIAN_POINT('',(7.62,7.771561172376E-16,-4.6E-02));
#1704 = DIRECTION('',(-0.,0.,-1.));
#1705 = DIRECTION('',(2.22044604925E-15,-1.,-0.));
#1706 = ( GEOMETRIC_REPRESENTATION_CONTEXT(3) 
GLOBAL_UNCERTAINTY_ASSIGNED_CONTEXT((#1710)) 
GLOBAL_UNIT_ASSIGNED_CONTEXT((#1707,#1708,#1709)) REPRESENTATION_CONTEXT
('Context #1','3D Context with UNIT and UNCERTAINTY') );
#1707 = ( LENGTH_UNIT() NAMED_UNIT(*) SI_UNIT(.MILLI.,.METRE.) );
#1708 = ( NAMED_UNIT(*) PLANE_ANGLE_UNIT() SI_UNIT($,.RADIAN.) );
#1709 = ( NAMED_UNIT(*) SI_UNIT($,.STERADIAN.) SOLID_ANGLE_UNIT() );
#1710 = UNCERTAINTY_MEASURE_WITH_UNIT(LENGTH_MEASURE(1.E-07),#1707,
  'distance_accuracy_value','confusion accuracy');
#1711 = CONTEXT_DEPENDENT_SHAPE_REPRESENTATION(#1712,#1714);
#1712 = ( REPRESENTATION_RELATIONSHIP('','',#1477,#10) 
REPRESENTATION_RELATIONSHIP_WITH_TRANSFORMATION(#1713) 
SHAPE_REPRESENTATION_RELATIONSHIP() );
#1713 = ITEM_DEFINED_TRANSFORMATION('','',#11,#23);
#1714 = PRODUCT_DEFINITION_SHAPE('Placement','Placement of an item',
  #1715);
#1715 = NEXT_ASSEMBLY_USAGE_OCCURRENCE('4','=>[0:1:1:5]','',#5,#1472,$);
#1716 = PRODUCT_RELATED_PRODUCT_CATEGORY('part',$,(#1474));
#1717 = MECHANICAL_DESIGN_GEOMETRIC_PRESENTATION_REPRESENTATION('',(
    #1718,#1726,#1733,#1740,#1747,#1754),#1459);
#1718 = STYLED_ITEM('color',(#1719),#433);
#1719 = PRESENTATION_STYLE_ASSIGNMENT((#1720));
#1720 = SURFACE_STYLE_USAGE(.BOTH.,#1721);
#1721 = SURFACE_SIDE_STYLE('',(#1722));
#1722 = SURFACE_STYLE_FILL_AREA(#1723);
#1723 = FILL_AREA_STYLE('',(#1724));
#1724 = FILL_AREA_STYLE_COLOUR('',#1725);
#1725 = COLOUR_RGB('',0.735356983052,0.735356983052,0.735356983052);
#1726 = STYLED_ITEM('color',(#1727),#762);
#1727 = PRESENTATION_STYLE_ASSIGNMENT((#1728));
#1728 = SURFACE_STYLE_USAGE(.BOTH.,#1729);
#1729 = SURFACE_SIDE_STYLE('',(#1730));
#1730 = SURFACE_STYLE_FILL_AREA(#1731);
#1731 = FILL_AREA_STYLE('',(#1732));
#1732 = FILL_AREA_STYLE_COLOUR('',#1725);
#1733 = STYLED_ITEM('color',(#1734),#1091);
#1734 = PRESENTATION_STYLE_ASSIGNMENT((#1735));
#1735 = SURFACE_STYLE_USAGE(.BOTH.,#1736);
#1736 = SURFACE_SIDE_STYLE('',(#1737));
#1737 = SURFACE_STYLE_FILL_AREA(#1738);
#1738 = FILL_AREA_STYLE('',(#1739));
#1739 = FILL_AREA_STYLE_COLOUR('',#1725);
#1740 = STYLED_ITEM('color',(#1741),#1183);
#1741 = PRESENTATION_STYLE_ASSIGNMENT((#1742));
#1742 = SURFACE_STYLE_USAGE(.BOTH.,#1743);
#1743 = SURFACE_SIDE_STYLE('',(#1744));
#1744 = SURFACE_STYLE_FILL_AREA(#1745);
#1745 = FILL_AREA_STYLE('',(#1746));
#1746 = FILL_AREA_STYLE_COLOUR('',#1725);
#1747 = STYLED_ITEM('color',(#1748),#1275);
#1748 = PRESENTATION_STYLE_ASSIGNMENT((#1749));
#1749 = SURFACE_STYLE_USAGE(.BOTH.,#1750);
#1750 = SURFACE_SIDE_STYLE('',(#1751));
#1751 = SURFACE_STYLE_FILL_AREA(#1752);
#1752 = FILL_AREA_STYLE('',(#1753));
#1753 = FILL_AREA_STYLE_COLOUR('',#1725);
#1754 = STYLED_ITEM('color',(#1755),#1367);
#1755 = PRESENTATION_STYLE_ASSIGNMENT((#1756));
#1756 = SURFACE_STYLE_USAGE(.BOTH.,#1757);
#1757 = SURFACE_SIDE_STYLE('',(#1758));
#1758 = SURFACE_STYLE_FILL_AREA(#1759);
#1759 = FILL_AREA_STYLE('',(#1760));
#1760 = FILL_AREA_STYLE_COLOUR('',#1725);
#1761 = MECHANICAL_DESIGN_GEOMETRIC_PRESENTATION_REPRESENTATION('',(
    #1762),#1706);
#1762 = STYLED_ITEM('color',(#1763),#1478);
#1763 = PRESENTATION_STYLE_ASSIGNMENT((#1764));
#1764 = SURFACE_STYLE_USAGE(.BOTH.,#1765);
#1765 = SURFACE_SIDE_STYLE('',(#1766));
#1766 = SURFACE_STYLE_FILL_AREA(#1767);
#1767 = FILL_AREA_STYLE('',(#1768));
#1768 = FILL_AREA_STYLE_COLOUR('',#1769);
#1769 = COLOUR_RGB('',0.313304153717,0.484529207832,0.410020903123);
#1770 = MECHANICAL_DESIGN_GEOMETRIC_PRESENTATION_REPRESENTATION('',(
    #1771,#1779,#1786,#1793,#1800,#1807,#1814,#1821,#1829,#1836,#1843,
    #1851,#1858,#1865,#1872,#1879),#414);
#1771 = STYLED_ITEM('color',(#1772),#66);
#1772 = PRESENTATION_STYLE_ASSIGNMENT((#1773));
#1773 = SURFACE_STYLE_USAGE(.BOTH.,#1774);
#1774 = SURFACE_SIDE_STYLE('',(#1775));
#1775 = SURFACE_STYLE_FILL_AREA(#1776);
#1776 = FILL_AREA_STYLE('',(#1777));
#1777 = FILL_AREA_STYLE_COLOUR('',#1778);
#1778 = COLOUR_RGB('',0.823999987314,0.819999987296,0.781000009244);
#1779 = STYLED_ITEM('color',(#1780),#99);
#1780 = PRESENTATION_STYLE_ASSIGNMENT((#1781));
#1781 = SURFACE_STYLE_USAGE(.BOTH.,#1782);
#1782 = SURFACE_SIDE_STYLE('',(#1783));
#1783 = SURFACE_STYLE_FILL_AREA(#1784);
#1784 = FILL_AREA_STYLE('',(#1785));
#1785 = FILL_AREA_STYLE_COLOUR('',#1778);
#1786 = STYLED_ITEM('color',(#1787),#125);
#1787 = PRESENTATION_STYLE_ASSIGNMENT((#1788));
#1788 = SURFACE_STYLE_USAGE(.BOTH.,#1789);
#1789 = SURFACE_SIDE_STYLE('',(#1790));
#1790 = SURFACE_STYLE_FILL_AREA(#1791);
#1791 = FILL_AREA_STYLE('',(#1792));
#1792 = FILL_AREA_STYLE_COLOUR('',#1778);
#1793 = STYLED_ITEM('color',(#1794),#150);
#1794 = PRESENTATION_STYLE_ASSIGNMENT((#1795));
#1795 = SURFACE_STYLE_USAGE(.BOTH.,#1796);
#1796 = SURFACE_SIDE_STYLE('',(#1797));
#1797 = SURFACE_STYLE_FILL_AREA(#1798);
#1798 = FILL_AREA_STYLE('',(#1799));
#1799 = FILL_AREA_STYLE_COLOUR('',#1778);
#1800 = STYLED_ITEM('color',(#1801),#176);
#1801 = PRESENTATION_STYLE_ASSIGNMENT((#1802));
#1802 = SURFACE_STYLE_USAGE(.BOTH.,#1803);
#1803 = SURFACE_SIDE_STYLE('',(#1804));
#1804 = SURFACE_STYLE_FILL_AREA(#1805);
#1805 = FILL_AREA_STYLE('',(#1806));
#1806 = FILL_AREA_STYLE_COLOUR('',#1778);
#1807 = STYLED_ITEM('color',(#1808),#201);
#1808 = PRESENTATION_STYLE_ASSIGNMENT((#1809));
#1809 = SURFACE_STYLE_USAGE(.BOTH.,#1810);
#1810 = SURFACE_SIDE_STYLE('',(#1811));
#1811 = SURFACE_STYLE_FILL_AREA(#1812);
#1812 = FILL_AREA_STYLE('',(#1813));
#1813 = FILL_AREA_STYLE_COLOUR('',#1778);
#1814 = STYLED_ITEM('color',(#1815),#210);
#1815 = PRESENTATION_STYLE_ASSIGNMENT((#1816));
#1816 = SURFACE_STYLE_USAGE(.BOTH.,#1817);
#1817 = SURFACE_SIDE_STYLE('',(#1818));
#1818 = SURFACE_STYLE_FILL_AREA(#1819);
#1819 = FILL_AREA_STYLE('',(#1820));
#1820 = FILL_AREA_STYLE_COLOUR('',#1778);
#1821 = STYLED_ITEM('color',(#1822),#221);
#1822 = PRESENTATION_STYLE_ASSIGNMENT((#1823));
#1823 = SURFACE_STYLE_USAGE(.BOTH.,#1824);
#1824 = SURFACE_SIDE_STYLE('',(#1825));
#1825 = SURFACE_STYLE_FILL_AREA(#1826);
#1826 = FILL_AREA_STYLE('',(#1827));
#1827 = FILL_AREA_STYLE_COLOUR('',#1828);
#1828 = COLOUR_RGB('',0.699999984889,9.999999991362E-02,
  5.000000142576E-02);
#1829 = STYLED_ITEM('color',(#1830),#254);
#1830 = PRESENTATION_STYLE_ASSIGNMENT((#1831));
#1831 = SURFACE_STYLE_USAGE(.BOTH.,#1832);
#1832 = SURFACE_SIDE_STYLE('',(#1833));
#1833 = SURFACE_STYLE_FILL_AREA(#1834);
#1834 = FILL_AREA_STYLE('',(#1835));
#1835 = FILL_AREA_STYLE_COLOUR('',#1828);
#1836 = STYLED_ITEM('color',(#1837),#274);
#1837 = PRESENTATION_STYLE_ASSIGNMENT((#1838));
#1838 = SURFACE_STYLE_USAGE(.BOTH.,#1839);
#1839 = SURFACE_SIDE_STYLE('',(#1840));
#1840 = SURFACE_STYLE_FILL_AREA(#1841);
#1841 = FILL_AREA_STYLE('',(#1842));
#1842 = FILL_AREA_STYLE_COLOUR('',#1828);
#1843 = STYLED_ITEM('color',(#1844),#294);
#1844 = PRESENTATION_STYLE_ASSIGNMENT((#1845));
#1845 = SURFACE_STYLE_USAGE(.BOTH.,#1846);
#1846 = SURFACE_SIDE_STYLE('',(#1847));
#1847 = SURFACE_STYLE_FILL_AREA(#1848);
#1848 = FILL_AREA_STYLE('',(#1849));
#1849 = FILL_AREA_STYLE_COLOUR('',#1850);
#1850 = COLOUR_RGB('',0.,0.631244006163,0.748016017657);
#1851 = STYLED_ITEM('color',(#1852),#319);
#1852 = PRESENTATION_STYLE_ASSIGNMENT((#1853));
#1853 = SURFACE_STYLE_USAGE(.BOTH.,#1854);
#1854 = SURFACE_SIDE_STYLE('',(#1855));
#1855 = SURFACE_STYLE_FILL_AREA(#1856);
#1856 = FILL_AREA_STYLE('',(#1857));
#1857 = FILL_AREA_STYLE_COLOUR('',#1850);
#1858 = STYLED_ITEM('color',(#1859),#344);
#1859 = PRESENTATION_STYLE_ASSIGNMENT((#1860));
#1860 = SURFACE_STYLE_USAGE(.BOTH.,#1861);
#1861 = SURFACE_SIDE_STYLE('',(#1862));
#1862 = SURFACE_STYLE_FILL_AREA(#1863);
#1863 = FILL_AREA_STYLE('',(#1864));
#1864 = FILL_AREA_STYLE_COLOUR('',#1850);
#1865 = STYLED_ITEM('color',(#1866),#370);
#1866 = PRESENTATION_STYLE_ASSIGNMENT((#1867));
#1867 = SURFACE_STYLE_USAGE(.BOTH.,#1868);
#1868 = SURFACE_SIDE_STYLE('',(#1869));
#1869 = SURFACE_STYLE_FILL_AREA(#1870);
#1870 = FILL_AREA_STYLE('',(#1871));
#1871 = FILL_AREA_STYLE_COLOUR('',#1850);
#1872 = STYLED_ITEM('color',(#1873),#396);
#1873 = PRESENTATION_STYLE_ASSIGNMENT((#1874));
#1874 = SURFACE_STYLE_USAGE(.BOTH.,#1875);
#1875 = SURFACE_SIDE_STYLE('',(#1876));
#1876 = SURFACE_STYLE_FILL_AREA(#1877);
#1877 = FILL_AREA_STYLE('',(#1878));
#1878 = FILL_AREA_STYLE_COLOUR('',#1850);
#1879 = STYLED_ITEM('color',(#1880),#405);
#1880 = PRESENTATION_STYLE_ASSIGNMENT((#1881));
#1881 = SURFACE_STYLE_USAGE(.BOTH.,#1882);
#1882 = SURFACE_SIDE_STYLE('',(#1883));
#1883 = SURFACE_STYLE_FILL_AREA(#1884);
#1884 = FILL_AREA_STYLE('',(#1885));
#1885 = FILL_AREA_STYLE_COLOUR('',#1850);
ENDSEC;
END-ISO-10303-21;
