%TF.GenerationSoftware,KiCad,Pcbnew,10.99.0-3671-gbe90a7e200*%
%TF.CreationDate,2026-09-10T00:39:13+01:00*%
%TF.ProjectId,kicad_file,6b696361-645f-4666-996c-652e6b696361,rev?*%
%TF.SameCoordinates,Original*%
%TF.FileFunction,Copper,L16,Bot*%
%TF.FilePolarity,Positive*%
%FSLAX46Y46*%
G04 Gerber Fmt 4.6, Leading zero omitted, Abs format (unit mm)*
G04 Created by KiCad (PCBNEW 10.99.0-3671-gbe90a7e200) date 2026-09-10 00:39:13*
%MOMM*%
%LPD*%
G01*
G04 APERTURE LIST*
%TA.AperFunction,ComponentPad*%
%ADD10C,1.778000*%
%TD*%
%TA.AperFunction,ViaPad*%
%ADD11C,0.906400*%
%TD*%
%TA.AperFunction,Conductor*%
%ADD12C,0.254000*%
%TD*%
G04 APERTURE END LIST*
D10*
%TO.P,CN1,1*%
%TO.N,SCL*%
X-3556000Y11430000D03*
%TO.P,CN1,2*%
%TO.N,SDA*%
X-1016000Y11430000D03*
%TO.P,CN1,3*%
%TO.N,GND*%
X1524000Y11430000D03*
%TO.P,CN1,4*%
%TO.N,VDD*%
X4064000Y11430000D03*
%TD*%
%TO.P,LED2,P$1*%
%TO.N,N$11*%
X7620000Y-7620000D03*
%TO.P,LED2,P$2*%
%TO.N,N$10*%
X5080000Y-7620000D03*
%TO.P,LED2,P$3*%
%TO.N,N$16*%
X2540000Y-7620000D03*
%TO.P,LED2,P$4*%
%TO.N,A0*%
X0Y-7620000D03*
%TO.P,LED2,P$5*%
%TO.N,N$13*%
X-2540000Y-7620000D03*
%TO.P,LED2,P$6*%
%TO.N,N$6*%
X-5080000Y-7620000D03*
%TO.P,LED2,P$7*%
%TO.N,N$4*%
X-7620000Y-7620000D03*
%TO.P,LED2,P$8*%
%TO.N,A1*%
X-7620000Y7620000D03*
%TO.P,LED2,P$9*%
X-5080000Y7620000D03*
%TO.P,LED2,P$10*%
%TO.N,N$5*%
X-2540000Y7620000D03*
%TO.P,LED2,P$11*%
%TO.N,N$3*%
X0Y7620000D03*
%TO.P,LED2,P$12*%
%TO.N,N$12*%
X2540000Y7620000D03*
%TO.P,LED2,P$13*%
%TO.N,A2*%
X5080000Y7620000D03*
%TO.P,LED2,P$14*%
%TO.N,N$2*%
X7620000Y7620000D03*
%TD*%
D11*
%TO.N,GND*%
X19812000Y2794000D03*
X-8255000Y-3175000D03*
X-18161000Y-1524000D03*
X23241000Y1270000D03*
X22225000Y-1143000D03*
%TO.N,N$2*%
X-6985000Y-3048000D03*
%TO.N,N$3*%
X-5715000Y-1397000D03*
%TO.N,N$5*%
X-4699000Y1651000D03*
%TO.N,N$10*%
X-127000Y762000D03*
%TO.N,N$11*%
X1651000Y1143000D03*
%TO.N,N$13*%
X-1905000Y-1905000D03*
%TO.N,N$16*%
X2413000Y-2032000D03*
%TO.N,A0*%
X-1905000Y0D03*
%TO.N,A2*%
X-4572000Y3048000D03*
%TO.N,SDA*%
X-18034000Y508000D03*
X-7239000Y3175000D03*
%TD*%
%TO.N,A1*%
D12*
X-7620000Y7620000D02*
X-5080000Y7620000D01*
%TO.N,N$2*%
X-5080000Y-3048000D02*
X-4572000Y-2540000D01*
X7620000Y7620000D02*
X7620000Y4445000D01*
X5715000Y2540000D02*
X-1651000Y2540000D01*
X-6985000Y-3048000D02*
X-5080000Y-3048000D01*
X-4572000Y-381000D02*
X-4572000Y-2540000D01*
X7620000Y4445000D02*
X5715000Y2540000D01*
X-1651000Y2540000D02*
X-4572000Y-381000D01*
%TO.N,N$3*%
X0Y4953000D02*
X-5715000Y-762000D01*
X0Y7620000D02*
X0Y4953000D01*
X-5715000Y-762000D02*
X-5715000Y-1397000D01*
%TO.N,N$5*%
X-2921000Y7239000D02*
X-2540000Y7620000D01*
X-4699000Y1651000D02*
X-2921000Y3429000D01*
X-2921000Y7239000D02*
X-2921000Y3429000D01*
%TO.N,N$10*%
X-127000Y508000D02*
X762000Y-381000D01*
X4445000Y-381000D02*
X5080000Y-1016000D01*
X-127000Y762000D02*
X-127000Y508000D01*
X762000Y-381000D02*
X4445000Y-381000D01*
X5080000Y-1016000D02*
X5080000Y-7620000D01*
%TO.N,N$11*%
X7620000Y-762000D02*
X7620000Y-7620000D01*
X1651000Y1143000D02*
X2032000Y762000D01*
X2032000Y762000D02*
X6096000Y762000D01*
X6096000Y762000D02*
X7620000Y-762000D01*
%TO.N,N$13*%
X-2540000Y-7620000D02*
X-1524000Y-6604000D01*
X-1524000Y-2286000D02*
X-1905000Y-1905000D01*
X-1524000Y-6604000D02*
X-1524000Y-2286000D01*
%TO.N,N$16*%
X2413000Y-2032000D02*
X2413000Y-7493000D01*
X2413000Y-7493000D02*
X2540000Y-7620000D01*
%TO.N,A0*%
X-1524000Y0D02*
X0Y-1524000D01*
X0Y-1524000D02*
X0Y-7620000D01*
X-1905000Y0D02*
X-1524000Y0D01*
%TO.N,A2*%
X-3810000Y6223000D02*
X-3810000Y8255000D01*
X-3048000Y9017000D02*
X4445000Y9017000D01*
X5080000Y8382000D02*
X5080000Y7620000D01*
X-3810000Y8255000D02*
X-3048000Y9017000D01*
X-4572000Y5461000D02*
X-3810000Y6223000D01*
X-4572000Y3048000D02*
X-4572000Y5461000D01*
X4445000Y9017000D02*
X5080000Y8382000D01*
%TO.N,SDA*%
X-7302500Y3111500D02*
X-9906000Y508000D01*
X-9017000Y5080000D02*
X-9017000Y8382000D01*
X-9017000Y8382000D02*
X-7620000Y9779000D01*
X-7239000Y3175000D02*
X-7302500Y3111500D01*
X-7302500Y3111500D02*
X-7302500Y3365500D01*
X-7302500Y3365500D02*
X-9017000Y5080000D01*
X-9906000Y508000D02*
X-18034000Y508000D01*
X-7620000Y9779000D02*
X-2667000Y9779000D01*
X-2667000Y9779000D02*
X-1016000Y11430000D01*
%TD*%
%TA.AperFunction,Conductor*%
%TO.N,GND*%
G36*
X22481044Y12834366D02*
G01*
X22741120Y12817319D01*
X22749225Y12816252D01*
X23002843Y12765805D01*
X23010740Y12763689D01*
X23255600Y12680569D01*
X23263153Y12677441D01*
X23495078Y12563069D01*
X23502158Y12558981D01*
X23717163Y12415319D01*
X23723649Y12410342D01*
X23918064Y12239845D01*
X23923845Y12234064D01*
X24094342Y12039649D01*
X24099319Y12033163D01*
X24242981Y11818158D01*
X24247069Y11811078D01*
X24361441Y11579153D01*
X24364569Y11571600D01*
X24447689Y11326740D01*
X24449805Y11318843D01*
X24500252Y11065225D01*
X24501319Y11057120D01*
X24518366Y10797044D01*
X24518500Y10792956D01*
X24518500Y-10792956D01*
X24518366Y-10797044D01*
X24501319Y-11057120D01*
X24500252Y-11065225D01*
X24449805Y-11318843D01*
X24447689Y-11326740D01*
X24364569Y-11571600D01*
X24361441Y-11579153D01*
X24247069Y-11811078D01*
X24242981Y-11818158D01*
X24099319Y-12033163D01*
X24094342Y-12039649D01*
X23923845Y-12234064D01*
X23918064Y-12239845D01*
X23723649Y-12410342D01*
X23717163Y-12415319D01*
X23502158Y-12558981D01*
X23495078Y-12563069D01*
X23263153Y-12677441D01*
X23255600Y-12680569D01*
X23010740Y-12763689D01*
X23002843Y-12765805D01*
X22749225Y-12816252D01*
X22741120Y-12817319D01*
X22481044Y-12834366D01*
X22476956Y-12834500D01*
X-22476956Y-12834500D01*
X-22481044Y-12834366D01*
X-22741120Y-12817319D01*
X-22749225Y-12816252D01*
X-23002843Y-12765805D01*
X-23010740Y-12763689D01*
X-23255600Y-12680569D01*
X-23263153Y-12677441D01*
X-23495078Y-12563069D01*
X-23502158Y-12558981D01*
X-23717163Y-12415319D01*
X-23723649Y-12410342D01*
X-23918064Y-12239845D01*
X-23923845Y-12234064D01*
X-24094342Y-12039649D01*
X-24099319Y-12033163D01*
X-24242981Y-11818158D01*
X-24247069Y-11811078D01*
X-24361441Y-11579153D01*
X-24364569Y-11571600D01*
X-24440059Y-11349217D01*
X-24446045Y-11331583D01*
X-23094500Y-11331583D01*
X-23094500Y-11528417D01*
X-23063709Y-11722826D01*
X-23002884Y-11910025D01*
X-22913524Y-12085405D01*
X-22797828Y-12244646D01*
X-22658646Y-12383828D01*
X-22499405Y-12499524D01*
X-22324025Y-12588884D01*
X-22136826Y-12649709D01*
X-21942417Y-12680500D01*
X-21942415Y-12680500D01*
X-21745585Y-12680500D01*
X-21745583Y-12680500D01*
X-21745575Y-12680498D01*
X-21745569Y-12680498D01*
X-21703705Y-12673867D01*
X-21551174Y-12649709D01*
X-21363975Y-12588884D01*
X-21188595Y-12499524D01*
X-21029354Y-12383828D01*
X-21029346Y-12383821D01*
X-20890178Y-12244653D01*
X-20890171Y-12244645D01*
X-20774477Y-12085407D01*
X-20685119Y-11910031D01*
X-20685115Y-11910023D01*
X-20624292Y-11722829D01*
X-20624290Y-11722820D01*
X-20593501Y-11528430D01*
X-20593500Y-11528414D01*
X-20593500Y-11331585D01*
X20593500Y-11331585D01*
X20593500Y-11528414D01*
X20593501Y-11528430D01*
X20624290Y-11722820D01*
X20624292Y-11722829D01*
X20685115Y-11910023D01*
X20685119Y-11910031D01*
X20774477Y-12085407D01*
X20890171Y-12244645D01*
X20890178Y-12244653D01*
X21029346Y-12383821D01*
X21029354Y-12383828D01*
X21188595Y-12499524D01*
X21363975Y-12588884D01*
X21551174Y-12649709D01*
X21703705Y-12673867D01*
X21745569Y-12680498D01*
X21745575Y-12680498D01*
X21745583Y-12680500D01*
X21745585Y-12680500D01*
X21942415Y-12680500D01*
X21942417Y-12680500D01*
X22136826Y-12649709D01*
X22324025Y-12588884D01*
X22499405Y-12499524D01*
X22658646Y-12383828D01*
X22797828Y-12244646D01*
X22913524Y-12085405D01*
X23002884Y-11910025D01*
X23063709Y-11722826D01*
X23094500Y-11528417D01*
X23094500Y-11331583D01*
X23063709Y-11137174D01*
X23002884Y-10949975D01*
X22913524Y-10774595D01*
X22797828Y-10615354D01*
X22797821Y-10615346D01*
X22658653Y-10476178D01*
X22658645Y-10476171D01*
X22499407Y-10360477D01*
X22324031Y-10271119D01*
X22324023Y-10271115D01*
X22136829Y-10210292D01*
X22136826Y-10210291D01*
X22136820Y-10210290D01*
X21942430Y-10179501D01*
X21942418Y-10179500D01*
X21942417Y-10179500D01*
X21745583Y-10179500D01*
X21745581Y-10179500D01*
X21745569Y-10179501D01*
X21551179Y-10210290D01*
X21551170Y-10210292D01*
X21363976Y-10271115D01*
X21363968Y-10271119D01*
X21188592Y-10360477D01*
X21029354Y-10476171D01*
X21029346Y-10476178D01*
X20890178Y-10615346D01*
X20890171Y-10615354D01*
X20774477Y-10774592D01*
X20685119Y-10949968D01*
X20685115Y-10949976D01*
X20624292Y-11137170D01*
X20624290Y-11137179D01*
X20593501Y-11331569D01*
X20593500Y-11331585D01*
X-20593500Y-11331585D01*
X-20593501Y-11331569D01*
X-20624290Y-11137179D01*
X-20624292Y-11137170D01*
X-20685115Y-10949976D01*
X-20685119Y-10949968D01*
X-20774477Y-10774592D01*
X-20890171Y-10615354D01*
X-20890178Y-10615346D01*
X-21029346Y-10476178D01*
X-21029354Y-10476171D01*
X-21188592Y-10360477D01*
X-21363968Y-10271119D01*
X-21363976Y-10271115D01*
X-21551170Y-10210292D01*
X-21551179Y-10210290D01*
X-21745569Y-10179501D01*
X-21745581Y-10179500D01*
X-21745583Y-10179500D01*
X-21942417Y-10179500D01*
X-21942418Y-10179500D01*
X-21942430Y-10179501D01*
X-22136820Y-10210290D01*
X-22136826Y-10210291D01*
X-22136829Y-10210292D01*
X-22324023Y-10271115D01*
X-22324031Y-10271119D01*
X-22499407Y-10360477D01*
X-22658645Y-10476171D01*
X-22658653Y-10476178D01*
X-22797821Y-10615346D01*
X-22797828Y-10615354D01*
X-22913524Y-10774595D01*
X-23002884Y-10949975D01*
X-23063709Y-11137174D01*
X-23094500Y-11331583D01*
X-24446045Y-11331583D01*
X-24447689Y-11326740D01*
X-24449805Y-11318843D01*
X-24500252Y-11065225D01*
X-24501319Y-11057120D01*
X-24518366Y-10797044D01*
X-24518500Y-10792956D01*
X-24518500Y-7530005D01*
X-8763500Y-7530005D01*
X-8763500Y-7709995D01*
X-8735343Y-7887770D01*
X-8679723Y-8058952D01*
X-8598009Y-8219325D01*
X-8492213Y-8364940D01*
X-8364940Y-8492213D01*
X-8219325Y-8598009D01*
X-8058952Y-8679723D01*
X-7887770Y-8735343D01*
X-7709995Y-8763500D01*
X-7709993Y-8763500D01*
X-7530007Y-8763500D01*
X-7530005Y-8763500D01*
X-7529997Y-8763498D01*
X-7529991Y-8763498D01*
X-7457645Y-8752039D01*
X-7352230Y-8735343D01*
X-7181048Y-8679723D01*
X-7020675Y-8598009D01*
X-6875060Y-8492213D01*
X-6875052Y-8492206D01*
X-6747793Y-8364947D01*
X-6747786Y-8364939D01*
X-6641992Y-8219327D01*
X-6560280Y-8058958D01*
X-6560276Y-8058950D01*
X-6504656Y-7887768D01*
X-6504656Y-7887767D01*
X-6476501Y-7710008D01*
X-6476500Y-7709992D01*
X-6476500Y-7530007D01*
X-6476500Y-7530005D01*
X-6223500Y-7530005D01*
X-6223500Y-7709995D01*
X-6195343Y-7887770D01*
X-6139723Y-8058952D01*
X-6058009Y-8219325D01*
X-5952213Y-8364940D01*
X-5824940Y-8492213D01*
X-5679325Y-8598009D01*
X-5518952Y-8679723D01*
X-5347770Y-8735343D01*
X-5169995Y-8763500D01*
X-5169993Y-8763500D01*
X-4990007Y-8763500D01*
X-4990005Y-8763500D01*
X-4989997Y-8763498D01*
X-4989991Y-8763498D01*
X-4917645Y-8752039D01*
X-4812230Y-8735343D01*
X-4641048Y-8679723D01*
X-4480675Y-8598009D01*
X-4335060Y-8492213D01*
X-4335052Y-8492206D01*
X-4207793Y-8364947D01*
X-4207786Y-8364939D01*
X-4101992Y-8219327D01*
X-4020280Y-8058958D01*
X-4020276Y-8058950D01*
X-3964656Y-7887768D01*
X-3964656Y-7887767D01*
X-3936501Y-7710008D01*
X-3936500Y-7709992D01*
X-3936500Y-7530007D01*
X-3936500Y-7530005D01*
X-3683500Y-7530005D01*
X-3683500Y-7709995D01*
X-3655343Y-7887770D01*
X-3599723Y-8058952D01*
X-3518009Y-8219325D01*
X-3412213Y-8364940D01*
X-3284940Y-8492213D01*
X-3139325Y-8598009D01*
X-2978952Y-8679723D01*
X-2807770Y-8735343D01*
X-2629995Y-8763500D01*
X-2629993Y-8763500D01*
X-2450007Y-8763500D01*
X-2450005Y-8763500D01*
X-2449997Y-8763498D01*
X-2449991Y-8763498D01*
X-2377645Y-8752039D01*
X-2272230Y-8735343D01*
X-2101048Y-8679723D01*
X-1940675Y-8598009D01*
X-1795060Y-8492213D01*
X-1795052Y-8492206D01*
X-1667793Y-8364947D01*
X-1667786Y-8364939D01*
X-1561992Y-8219327D01*
X-1480280Y-8058958D01*
X-1480276Y-8058950D01*
X-1424656Y-7887768D01*
X-1424656Y-7887767D01*
X-1396501Y-7710008D01*
X-1396500Y-7709992D01*
X-1396500Y-7530007D01*
X-1396501Y-7529991D01*
X-1424656Y-7352232D01*
X-1424656Y-7352231D01*
X-1480276Y-7181049D01*
X-1480278Y-7181045D01*
X-1487087Y-7167682D01*
X-1490838Y-7119993D01*
X-1475592Y-7095115D01*
X-1218725Y-6838248D01*
X-1168498Y-6751253D01*
X-1168498Y-6751251D01*
X-1142500Y-6654229D01*
X-1142500Y-2235770D01*
X-1168498Y-2138748D01*
X-1168500Y-2138742D01*
X-1202427Y-2079977D01*
X-1209599Y-2036535D01*
X-1197300Y-1974702D01*
X-1197300Y-1835297D01*
X-1224496Y-1698573D01*
X-1224496Y-1698572D01*
X-1277845Y-1569777D01*
X-1277846Y-1569775D01*
X-1355293Y-1453868D01*
X-1453868Y-1355293D01*
X-1569775Y-1277846D01*
X-1569777Y-1277845D01*
X-1698573Y-1224496D01*
X-1835298Y-1197300D01*
X-1974702Y-1197300D01*
X-2111426Y-1224496D01*
X-2111427Y-1224496D01*
X-2240222Y-1277845D01*
X-2240224Y-1277846D01*
X-2356131Y-1355293D01*
X-2356132Y-1355294D01*
X-2454706Y-1453868D01*
X-2532155Y-1569778D01*
X-2585503Y-1698572D01*
X-2612700Y-1835298D01*
X-2612700Y-1974702D01*
X-2585503Y-2111428D01*
X-2532155Y-2240222D01*
X-2454706Y-2356132D01*
X-2356132Y-2454706D01*
X-2240222Y-2532155D01*
X-2111428Y-2585503D01*
X-1974702Y-2612700D01*
X-1968000Y-2612700D01*
X-1923806Y-2631006D01*
X-1905500Y-2675200D01*
X-1905500Y-6420089D01*
X-1923806Y-6464283D01*
X-2015115Y-6555592D01*
X-2059309Y-6573898D01*
X-2087682Y-6567087D01*
X-2101045Y-6560278D01*
X-2101049Y-6560276D01*
X-2272231Y-6504656D01*
X-2449991Y-6476501D01*
X-2450003Y-6476500D01*
X-2450005Y-6476500D01*
X-2629995Y-6476500D01*
X-2629996Y-6476500D01*
X-2630008Y-6476501D01*
X-2807767Y-6504656D01*
X-2807768Y-6504656D01*
X-2978950Y-6560276D01*
X-2978958Y-6560280D01*
X-3139327Y-6641992D01*
X-3284939Y-6747786D01*
X-3284947Y-6747793D01*
X-3412206Y-6875052D01*
X-3412213Y-6875060D01*
X-3518009Y-7020675D01*
X-3599723Y-7181048D01*
X-3655343Y-7352230D01*
X-3683500Y-7530005D01*
X-3936500Y-7530005D01*
X-3936501Y-7529991D01*
X-3964656Y-7352232D01*
X-3964656Y-7352231D01*
X-4020276Y-7181049D01*
X-4020280Y-7181041D01*
X-4101992Y-7020672D01*
X-4207786Y-6875060D01*
X-4207793Y-6875052D01*
X-4335052Y-6747793D01*
X-4335060Y-6747786D01*
X-4480672Y-6641992D01*
X-4641041Y-6560280D01*
X-4641049Y-6560276D01*
X-4812231Y-6504656D01*
X-4989991Y-6476501D01*
X-4990003Y-6476500D01*
X-4990005Y-6476500D01*
X-5169995Y-6476500D01*
X-5169996Y-6476500D01*
X-5170008Y-6476501D01*
X-5347767Y-6504656D01*
X-5347768Y-6504656D01*
X-5518950Y-6560276D01*
X-5518958Y-6560280D01*
X-5679327Y-6641992D01*
X-5824939Y-6747786D01*
X-5824947Y-6747793D01*
X-5952206Y-6875052D01*
X-5952213Y-6875060D01*
X-6058009Y-7020675D01*
X-6139723Y-7181048D01*
X-6195343Y-7352230D01*
X-6223500Y-7530005D01*
X-6476500Y-7530005D01*
X-6476501Y-7529991D01*
X-6504656Y-7352232D01*
X-6504656Y-7352231D01*
X-6560276Y-7181049D01*
X-6560280Y-7181041D01*
X-6641992Y-7020672D01*
X-6747786Y-6875060D01*
X-6747793Y-6875052D01*
X-6875052Y-6747793D01*
X-6875060Y-6747786D01*
X-7020672Y-6641992D01*
X-7181041Y-6560280D01*
X-7181049Y-6560276D01*
X-7352231Y-6504656D01*
X-7529991Y-6476501D01*
X-7530003Y-6476500D01*
X-7530005Y-6476500D01*
X-7709995Y-6476500D01*
X-7709996Y-6476500D01*
X-7710008Y-6476501D01*
X-7887767Y-6504656D01*
X-7887768Y-6504656D01*
X-8058950Y-6560276D01*
X-8058958Y-6560280D01*
X-8219327Y-6641992D01*
X-8364939Y-6747786D01*
X-8364947Y-6747793D01*
X-8492206Y-6875052D01*
X-8492213Y-6875060D01*
X-8598009Y-7020675D01*
X-8679723Y-7181048D01*
X-8735343Y-7352230D01*
X-8763500Y-7530005D01*
X-24518500Y-7530005D01*
X-24518500Y577702D01*
X-18741700Y577702D01*
X-18741700Y438298D01*
X-18714503Y301572D01*
X-18661155Y172778D01*
X-18583706Y56868D01*
X-18485132Y-41706D01*
X-18369222Y-119155D01*
X-18240428Y-172503D01*
X-18103702Y-199700D01*
X-17964298Y-199700D01*
X-17827572Y-172503D01*
X-17698778Y-119155D01*
X-17582868Y-41706D01*
X-17540662Y500D01*
X-17484296Y56865D01*
X-17467838Y81496D01*
X-17456326Y98724D01*
X-17416553Y125299D01*
X-17404360Y126500D01*
X-9855770Y126500D01*
X-9758748Y152498D01*
X-9758746Y152498D01*
X-9671751Y202725D01*
X-9600724Y273753D01*
X-7414460Y2460015D01*
X-7370266Y2478321D01*
X-7358073Y2477120D01*
X-7308702Y2467300D01*
X-7169297Y2467300D01*
X-7032573Y2494496D01*
X-7032572Y2494496D01*
X-6903777Y2547845D01*
X-6903775Y2547846D01*
X-6787868Y2625293D01*
X-6689293Y2723868D01*
X-6611846Y2839775D01*
X-6611845Y2839777D01*
X-6558496Y2968572D01*
X-6558496Y2968573D01*
X-6531300Y3105297D01*
X-6531300Y3244702D01*
X-6558496Y3381426D01*
X-6558496Y3381427D01*
X-6611845Y3510222D01*
X-6611846Y3510224D01*
X-6689293Y3626131D01*
X-6787868Y3724706D01*
X-6903775Y3802153D01*
X-6903777Y3802154D01*
X-6903778Y3802155D01*
X-7032572Y3855503D01*
X-7169298Y3882700D01*
X-7254289Y3882700D01*
X-7298483Y3901006D01*
X-8617194Y5219717D01*
X-8635500Y5263911D01*
X-8635500Y6879922D01*
X-8617194Y6924116D01*
X-8573000Y6942422D01*
X-8528806Y6924116D01*
X-8522437Y6916659D01*
X-8492213Y6875060D01*
X-8492206Y6875052D01*
X-8364947Y6747793D01*
X-8364939Y6747786D01*
X-8219327Y6641992D01*
X-8058958Y6560280D01*
X-8058950Y6560276D01*
X-7887768Y6504656D01*
X-7710008Y6476501D01*
X-7709996Y6476500D01*
X-7709995Y6476500D01*
X-7709993Y6476500D01*
X-7530007Y6476500D01*
X-7530005Y6476500D01*
X-7530003Y6476500D01*
X-7529991Y6476501D01*
X-7352232Y6504656D01*
X-7352231Y6504656D01*
X-7181049Y6560276D01*
X-7181041Y6560280D01*
X-7020672Y6641992D01*
X-6875060Y6747786D01*
X-6875052Y6747793D01*
X-6747793Y6875052D01*
X-6747786Y6875060D01*
X-6641992Y7020672D01*
X-6560280Y7181041D01*
X-6560276Y7181049D01*
X-6555642Y7195314D01*
X-6524575Y7231688D01*
X-6496201Y7238500D01*
X-6203799Y7238500D01*
X-6159605Y7220194D01*
X-6144358Y7195314D01*
X-6139723Y7181048D01*
X-6095500Y7094255D01*
X-6058007Y7020672D01*
X-5952213Y6875060D01*
X-5952206Y6875052D01*
X-5824947Y6747793D01*
X-5824939Y6747786D01*
X-5679327Y6641992D01*
X-5518958Y6560280D01*
X-5518950Y6560276D01*
X-5347768Y6504656D01*
X-5170008Y6476501D01*
X-5169996Y6476500D01*
X-5169995Y6476500D01*
X-5169993Y6476500D01*
X-4990007Y6476500D01*
X-4990005Y6476500D01*
X-4990003Y6476500D01*
X-4989991Y6476501D01*
X-4812232Y6504656D01*
X-4812231Y6504656D01*
X-4641049Y6560276D01*
X-4641041Y6560280D01*
X-4480672Y6641992D01*
X-4335060Y6747786D01*
X-4335052Y6747793D01*
X-4298194Y6784652D01*
X-4254000Y6802958D01*
X-4209806Y6784652D01*
X-4191500Y6740458D01*
X-4191500Y6406911D01*
X-4209806Y6362717D01*
X-4806247Y5766276D01*
X-4877276Y5695247D01*
X-4927501Y5608254D01*
X-4951367Y5519184D01*
X-4953499Y5511229D01*
X-4953500Y5511223D01*
X-4953500Y3677639D01*
X-4971806Y3633445D01*
X-4981275Y3625673D01*
X-5023132Y3597706D01*
X-5121706Y3499132D01*
X-5199155Y3383222D01*
X-5252503Y3254428D01*
X-5279700Y3117702D01*
X-5279700Y2978298D01*
X-5252503Y2841572D01*
X-5199155Y2712778D01*
X-5199154Y2712777D01*
X-5199153Y2712775D01*
X-5121706Y2596868D01*
X-5023131Y2498293D01*
X-4921217Y2430196D01*
X-4894641Y2390422D01*
X-4903973Y2343506D01*
X-4932018Y2320488D01*
X-5034222Y2278155D01*
X-5150132Y2200706D01*
X-5248706Y2102132D01*
X-5326155Y1986222D01*
X-5379503Y1857428D01*
X-5406700Y1720702D01*
X-5406700Y1581298D01*
X-5379503Y1444572D01*
X-5326155Y1315778D01*
X-5326154Y1315777D01*
X-5326153Y1315775D01*
X-5248706Y1199868D01*
X-5150131Y1101293D01*
X-5034224Y1023846D01*
X-5034222Y1023845D01*
X-4905426Y970496D01*
X-4768702Y943300D01*
X-4700110Y943300D01*
X-4655916Y924994D01*
X-4637610Y880800D01*
X-4655915Y836606D01*
X-5949246Y-456723D01*
X-5949247Y-456724D01*
X-6020276Y-527753D01*
X-6070501Y-614746D01*
X-6073826Y-627155D01*
X-6096499Y-711770D01*
X-6096500Y-711776D01*
X-6096500Y-767360D01*
X-6114806Y-811554D01*
X-6124272Y-819324D01*
X-6166132Y-847294D01*
X-6264706Y-945868D01*
X-6342155Y-1061778D01*
X-6395503Y-1190572D01*
X-6422700Y-1327298D01*
X-6422700Y-1466702D01*
X-6395503Y-1603428D01*
X-6342155Y-1732222D01*
X-6264706Y-1848132D01*
X-6166132Y-1946706D01*
X-6050222Y-2024155D01*
X-5921428Y-2077503D01*
X-5784702Y-2104700D01*
X-5645298Y-2104700D01*
X-5508572Y-2077503D01*
X-5379778Y-2024155D01*
X-5263868Y-1946706D01*
X-5165294Y-1848132D01*
X-5165293Y-1848131D01*
X-5087847Y-1732226D01*
X-5083649Y-1722091D01*
X-5073741Y-1698172D01*
X-5039918Y-1664349D01*
X-4992083Y-1664348D01*
X-4958258Y-1698173D01*
X-4953500Y-1722091D01*
X-4953500Y-2356089D01*
X-4971806Y-2400283D01*
X-5219717Y-2648194D01*
X-5263911Y-2666500D01*
X-6355360Y-2666500D01*
X-6399554Y-2648194D01*
X-6407324Y-2638727D01*
X-6435294Y-2596868D01*
X-6435293Y-2596868D01*
X-6435296Y-2596865D01*
X-6533868Y-2498293D01*
X-6649775Y-2420846D01*
X-6649777Y-2420845D01*
X-6778573Y-2367496D01*
X-6915298Y-2340300D01*
X-7054702Y-2340300D01*
X-7191426Y-2367496D01*
X-7191427Y-2367496D01*
X-7320222Y-2420845D01*
X-7320224Y-2420846D01*
X-7413441Y-2483132D01*
X-7436132Y-2498294D01*
X-7534706Y-2596868D01*
X-7612155Y-2712778D01*
X-7665503Y-2841572D01*
X-7692700Y-2978298D01*
X-7692700Y-3117702D01*
X-7665503Y-3254428D01*
X-7612155Y-3383222D01*
X-7534706Y-3499132D01*
X-7436132Y-3597706D01*
X-7320222Y-3675155D01*
X-7191428Y-3728503D01*
X-7054702Y-3755700D01*
X-6915298Y-3755700D01*
X-6778572Y-3728503D01*
X-6649778Y-3675155D01*
X-6533868Y-3597706D01*
X-6435294Y-3499132D01*
X-6407326Y-3457275D01*
X-6367553Y-3430701D01*
X-6355360Y-3429500D01*
X-5029776Y-3429500D01*
X-5029775Y-3429500D01*
X-5029773Y-3429499D01*
X-5029770Y-3429499D01*
X-4992125Y-3419411D01*
X-4932746Y-3403501D01*
X-4845753Y-3353276D01*
X-4774724Y-3282247D01*
X-4774723Y-3282246D01*
X-4341321Y-2848843D01*
X-4341308Y-2848832D01*
X-4266725Y-2774248D01*
X-4216498Y-2687253D01*
X-4216498Y-2687251D01*
X-4190500Y-2590229D01*
X-4190500Y-564911D01*
X-4172194Y-520717D01*
X-3581775Y69702D01*
X-2612700Y69702D01*
X-2612700Y-69702D01*
X-2585503Y-206428D01*
X-2532155Y-335222D01*
X-2454706Y-451132D01*
X-2356132Y-549706D01*
X-2240222Y-627155D01*
X-2111428Y-680503D01*
X-1974702Y-707700D01*
X-1835298Y-707700D01*
X-1698572Y-680503D01*
X-1569778Y-627155D01*
X-1532451Y-602214D01*
X-1485535Y-592882D01*
X-1453536Y-609985D01*
X-907805Y-1155717D01*
X-399806Y-1663716D01*
X-381500Y-1707910D01*
X-381500Y-6496200D01*
X-399806Y-6540394D01*
X-424683Y-6555640D01*
X-438951Y-6560276D01*
X-438955Y-6560278D01*
X-465685Y-6573898D01*
X-599325Y-6641991D01*
X-599329Y-6641994D01*
X-744939Y-6747786D01*
X-744947Y-6747793D01*
X-872206Y-6875052D01*
X-872213Y-6875060D01*
X-978009Y-7020675D01*
X-1059723Y-7181048D01*
X-1115343Y-7352230D01*
X-1143500Y-7530005D01*
X-1143500Y-7709995D01*
X-1115343Y-7887770D01*
X-1059723Y-8058952D01*
X-978009Y-8219325D01*
X-872213Y-8364940D01*
X-744940Y-8492213D01*
X-599325Y-8598009D01*
X-438952Y-8679723D01*
X-267770Y-8735343D01*
X-89995Y-8763500D01*
X-89993Y-8763500D01*
X89993Y-8763500D01*
X89995Y-8763500D01*
X267770Y-8735343D01*
X438952Y-8679723D01*
X599325Y-8598009D01*
X744940Y-8492213D01*
X872213Y-8364940D01*
X978009Y-8219325D01*
X1059723Y-8058952D01*
X1115343Y-7887770D01*
X1143500Y-7709995D01*
X1143500Y-7530007D01*
X1396500Y-7530007D01*
X1396500Y-7709992D01*
X1396501Y-7710008D01*
X1424656Y-7887767D01*
X1424656Y-7887768D01*
X1480276Y-8058950D01*
X1480280Y-8058958D01*
X1561992Y-8219327D01*
X1667786Y-8364939D01*
X1667793Y-8364947D01*
X1795052Y-8492206D01*
X1795060Y-8492213D01*
X1940675Y-8598009D01*
X2101048Y-8679723D01*
X2272230Y-8735343D01*
X2347153Y-8747209D01*
X2449991Y-8763498D01*
X2449997Y-8763498D01*
X2450005Y-8763500D01*
X2450007Y-8763500D01*
X2629993Y-8763500D01*
X2629995Y-8763500D01*
X2807770Y-8735343D01*
X2978952Y-8679723D01*
X3139325Y-8598009D01*
X3284940Y-8492213D01*
X3412213Y-8364940D01*
X3518009Y-8219325D01*
X3599723Y-8058952D01*
X3655343Y-7887770D01*
X3683500Y-7709995D01*
X3683500Y-7530005D01*
X3655343Y-7352230D01*
X3599723Y-7181048D01*
X3518009Y-7020675D01*
X3412213Y-6875060D01*
X3412206Y-6875052D01*
X3284947Y-6747793D01*
X3284939Y-6747786D01*
X3139327Y-6641992D01*
X2978958Y-6560280D01*
X2978950Y-6560276D01*
X2837686Y-6514377D01*
X2801312Y-6483310D01*
X2794500Y-6454936D01*
X2794500Y-2661639D01*
X2812806Y-2617445D01*
X2822277Y-2609672D01*
X2841440Y-2596868D01*
X2864132Y-2581706D01*
X2962706Y-2483132D01*
X3040155Y-2367222D01*
X3093503Y-2238428D01*
X3120700Y-2101702D01*
X3120700Y-1962298D01*
X3093503Y-1825572D01*
X3040155Y-1696778D01*
X2962706Y-1580868D01*
X2864132Y-1482294D01*
X2851384Y-1473776D01*
X2748224Y-1404846D01*
X2748222Y-1404845D01*
X2619426Y-1351496D01*
X2482702Y-1324300D01*
X2343298Y-1324300D01*
X2206573Y-1351496D01*
X2206572Y-1351496D01*
X2077777Y-1404845D01*
X2077775Y-1404846D01*
X1961868Y-1482293D01*
X1863293Y-1580868D01*
X1785846Y-1696775D01*
X1785845Y-1696777D01*
X1732496Y-1825572D01*
X1732496Y-1825573D01*
X1705300Y-1962297D01*
X1705300Y-2101702D01*
X1732496Y-2238426D01*
X1732496Y-2238427D01*
X1785845Y-2367222D01*
X1785846Y-2367224D01*
X1844300Y-2454706D01*
X1863294Y-2483132D01*
X1961868Y-2581706D01*
X1984555Y-2596865D01*
X2003723Y-2609672D01*
X2030299Y-2649445D01*
X2031500Y-2661639D01*
X2031500Y-6557412D01*
X2013194Y-6601606D01*
X1997375Y-6613100D01*
X1940673Y-6641992D01*
X1940672Y-6641992D01*
X1795060Y-6747786D01*
X1795052Y-6747793D01*
X1667793Y-6875052D01*
X1667786Y-6875060D01*
X1561992Y-7020672D01*
X1480280Y-7181041D01*
X1480276Y-7181049D01*
X1424656Y-7352231D01*
X1424656Y-7352232D01*
X1396501Y-7529991D01*
X1396500Y-7530007D01*
X1143500Y-7530007D01*
X1143500Y-7530005D01*
X1115343Y-7352230D01*
X1059723Y-7181048D01*
X978009Y-7020675D01*
X872213Y-6875060D01*
X872206Y-6875052D01*
X744947Y-6747793D01*
X744939Y-6747786D01*
X599329Y-6641994D01*
X599325Y-6641991D01*
X465685Y-6573898D01*
X438955Y-6560278D01*
X438951Y-6560276D01*
X424683Y-6555640D01*
X388311Y-6524571D01*
X381500Y-6496200D01*
X381500Y-1473776D01*
X381499Y-1473770D01*
X363030Y-1404845D01*
X355501Y-1376746D01*
X305276Y-1289753D01*
X234247Y-1218724D01*
X232069Y-1216546D01*
X232058Y-1216536D01*
X-1239458Y254981D01*
X-1253006Y275257D01*
X-1277843Y335219D01*
X-1277846Y335223D01*
X-1277847Y335224D01*
X-1346718Y438297D01*
X-1355293Y451131D01*
X-1453868Y549706D01*
X-1569775Y627153D01*
X-1569777Y627154D01*
X-1569778Y627155D01*
X-1698572Y680503D01*
X-1835298Y707700D01*
X-1974702Y707700D01*
X-2111428Y680503D01*
X-2240222Y627155D01*
X-2356132Y549706D01*
X-2454706Y451132D01*
X-2532155Y335222D01*
X-2585503Y206428D01*
X-2612700Y69702D01*
X-3581775Y69702D01*
X-2819775Y831702D01*
X-834700Y831702D01*
X-834700Y692298D01*
X-807503Y555572D01*
X-754155Y426778D01*
X-754154Y426777D01*
X-754153Y426775D01*
X-676706Y310868D01*
X-578131Y212293D01*
X-462224Y134846D01*
X-462222Y134845D01*
X-333427Y81496D01*
X-235418Y62000D01*
X-203418Y44895D01*
X527747Y-686271D01*
X527751Y-686274D01*
X527753Y-686276D01*
X614747Y-736502D01*
X614750Y-736503D01*
X674119Y-752410D01*
X711775Y-762500D01*
X4261089Y-762500D01*
X4305283Y-780806D01*
X4680194Y-1155717D01*
X4698500Y-1199911D01*
X4698500Y-6496200D01*
X4680194Y-6540394D01*
X4655317Y-6555640D01*
X4641048Y-6560276D01*
X4641044Y-6560278D01*
X4559935Y-6601606D01*
X4480675Y-6641991D01*
X4480672Y-6641992D01*
X4480670Y-6641994D01*
X4335060Y-6747786D01*
X4335052Y-6747793D01*
X4207793Y-6875052D01*
X4207786Y-6875060D01*
X4101992Y-7020672D01*
X4020280Y-7181041D01*
X4020276Y-7181049D01*
X3964656Y-7352231D01*
X3964656Y-7352232D01*
X3936501Y-7529991D01*
X3936500Y-7530007D01*
X3936500Y-7709992D01*
X3936501Y-7710008D01*
X3964656Y-7887767D01*
X3964656Y-7887768D01*
X4020276Y-8058950D01*
X4020280Y-8058958D01*
X4101992Y-8219327D01*
X4207786Y-8364939D01*
X4207793Y-8364947D01*
X4335052Y-8492206D01*
X4335060Y-8492213D01*
X4480675Y-8598009D01*
X4641048Y-8679723D01*
X4812230Y-8735343D01*
X4887153Y-8747209D01*
X4989991Y-8763498D01*
X4989997Y-8763498D01*
X4990005Y-8763500D01*
X4990007Y-8763500D01*
X5169993Y-8763500D01*
X5169995Y-8763500D01*
X5347770Y-8735343D01*
X5518952Y-8679723D01*
X5679325Y-8598009D01*
X5824940Y-8492213D01*
X5952213Y-8364940D01*
X6058009Y-8219325D01*
X6139723Y-8058952D01*
X6195343Y-7887770D01*
X6223500Y-7709995D01*
X6223500Y-7530005D01*
X6195343Y-7352230D01*
X6139723Y-7181048D01*
X6058009Y-7020675D01*
X5952213Y-6875060D01*
X5952206Y-6875052D01*
X5824947Y-6747793D01*
X5824939Y-6747786D01*
X5679329Y-6641994D01*
X5679325Y-6641991D01*
X5545685Y-6573898D01*
X5518955Y-6560278D01*
X5518951Y-6560276D01*
X5504683Y-6555640D01*
X5468311Y-6524571D01*
X5461500Y-6496200D01*
X5461500Y-1071269D01*
X5461501Y-1071256D01*
X5461501Y-965776D01*
X5461500Y-965770D01*
X5442010Y-893036D01*
X5435502Y-868747D01*
X5385276Y-781753D01*
X5385274Y-781751D01*
X5385271Y-781747D01*
X4679248Y-75725D01*
X4679247Y-75724D01*
X4592254Y-25499D01*
X4592253Y-25498D01*
X4592252Y-25498D01*
X4495229Y499D01*
X4495227Y499D01*
X4495225Y500D01*
X4495224Y500D01*
X945911Y500D01*
X901717Y18806D01*
X821799Y98724D01*
X527805Y392716D01*
X509500Y436909D01*
X514258Y460827D01*
X514950Y462496D01*
X553503Y555572D01*
X580700Y692298D01*
X580700Y831702D01*
X553503Y968428D01*
X500155Y1097222D01*
X422993Y1212702D01*
X943300Y1212702D01*
X943300Y1073297D01*
X970496Y936573D01*
X970496Y936572D01*
X1023845Y807777D01*
X1023846Y807775D01*
X1101293Y691868D01*
X1199868Y593293D01*
X1315775Y515846D01*
X1315777Y515845D01*
X1444573Y462496D01*
X1581297Y435300D01*
X1581298Y435300D01*
X1720702Y435300D01*
X1782535Y447599D01*
X1825977Y440427D01*
X1884742Y406500D01*
X1884748Y406498D01*
X1981770Y380500D01*
X1981775Y380500D01*
X5912089Y380500D01*
X5956283Y362194D01*
X7220194Y-901716D01*
X7238500Y-945910D01*
X7238500Y-6496200D01*
X7220194Y-6540394D01*
X7195317Y-6555640D01*
X7181048Y-6560276D01*
X7181044Y-6560278D01*
X7099935Y-6601606D01*
X7020675Y-6641991D01*
X7020672Y-6641992D01*
X7020670Y-6641994D01*
X6875060Y-6747786D01*
X6875052Y-6747793D01*
X6747793Y-6875052D01*
X6747786Y-6875060D01*
X6641992Y-7020672D01*
X6560280Y-7181041D01*
X6560276Y-7181049D01*
X6504656Y-7352231D01*
X6504656Y-7352232D01*
X6476501Y-7529991D01*
X6476500Y-7530007D01*
X6476500Y-7709992D01*
X6476501Y-7710008D01*
X6504656Y-7887767D01*
X6504656Y-7887768D01*
X6560276Y-8058950D01*
X6560280Y-8058958D01*
X6641992Y-8219327D01*
X6747786Y-8364939D01*
X6747793Y-8364947D01*
X6875052Y-8492206D01*
X6875060Y-8492213D01*
X7020675Y-8598009D01*
X7181048Y-8679723D01*
X7352230Y-8735343D01*
X7427153Y-8747209D01*
X7529991Y-8763498D01*
X7529997Y-8763498D01*
X7530005Y-8763500D01*
X7530007Y-8763500D01*
X7709993Y-8763500D01*
X7709995Y-8763500D01*
X7887770Y-8735343D01*
X8058952Y-8679723D01*
X8219325Y-8598009D01*
X8364940Y-8492213D01*
X8492213Y-8364940D01*
X8598009Y-8219325D01*
X8679723Y-8058952D01*
X8735343Y-7887770D01*
X8763500Y-7709995D01*
X8763500Y-7530005D01*
X8735343Y-7352230D01*
X8679723Y-7181048D01*
X8598009Y-7020675D01*
X8492213Y-6875060D01*
X8492206Y-6875052D01*
X8364947Y-6747793D01*
X8364939Y-6747786D01*
X8219329Y-6641994D01*
X8219325Y-6641991D01*
X8085685Y-6573898D01*
X8058955Y-6560278D01*
X8058951Y-6560276D01*
X8044683Y-6555640D01*
X8008311Y-6524571D01*
X8001500Y-6496200D01*
X8001500Y-711776D01*
X8001499Y-711770D01*
X7978826Y-627155D01*
X7975501Y-614746D01*
X7925276Y-527753D01*
X7854247Y-456724D01*
X7852069Y-454546D01*
X7852058Y-454536D01*
X7095949Y301573D01*
X6330247Y1067276D01*
X6322463Y1071770D01*
X6243254Y1117501D01*
X6146225Y1143500D01*
X6146224Y1143500D01*
X2421200Y1143500D01*
X2377006Y1161806D01*
X2358700Y1206000D01*
X2358700Y1212702D01*
X2358104Y1215700D01*
X2331503Y1349428D01*
X2278155Y1478222D01*
X2200706Y1594132D01*
X2102132Y1692706D01*
X1986222Y1770155D01*
X1857428Y1823503D01*
X1720702Y1850700D01*
X1581298Y1850700D01*
X1444572Y1823503D01*
X1315778Y1770155D01*
X1315777Y1770154D01*
X1315775Y1770153D01*
X1199868Y1692706D01*
X1101293Y1594131D01*
X1023846Y1478224D01*
X1023845Y1478222D01*
X970496Y1349427D01*
X970496Y1349426D01*
X943300Y1212702D01*
X422993Y1212702D01*
X422706Y1213132D01*
X324132Y1311706D01*
X208222Y1389155D01*
X79428Y1442503D01*
X-57298Y1469700D01*
X-196702Y1469700D01*
X-333428Y1442503D01*
X-462222Y1389155D01*
X-578132Y1311706D01*
X-676706Y1213132D01*
X-754155Y1097222D01*
X-807503Y968428D01*
X-834700Y831702D01*
X-2819775Y831702D01*
X-1511283Y2140194D01*
X-1467089Y2158500D01*
X5765229Y2158500D01*
X5862251Y2184498D01*
X5862253Y2184498D01*
X5905750Y2209611D01*
X5949247Y2234724D01*
X6020276Y2305753D01*
X6968951Y3254428D01*
X7925271Y4210747D01*
X7925274Y4210751D01*
X7925276Y4210753D01*
X7975502Y4297747D01*
X8001500Y4394775D01*
X8001500Y4495225D01*
X8001500Y6496200D01*
X8019806Y6540394D01*
X8044683Y6555640D01*
X8058951Y6560276D01*
X8058955Y6560278D01*
X8115829Y6589257D01*
X8219325Y6641991D01*
X8256523Y6669017D01*
X8364939Y6747786D01*
X8364947Y6747793D01*
X8492206Y6875052D01*
X8492213Y6875060D01*
X8598007Y7020672D01*
X8635500Y7094255D01*
X8679723Y7181048D01*
X8735343Y7352230D01*
X8763500Y7530005D01*
X8763500Y7709995D01*
X8735343Y7887770D01*
X8679723Y8058952D01*
X8598009Y8219325D01*
X8492213Y8364940D01*
X8364940Y8492213D01*
X8219325Y8598009D01*
X8058952Y8679723D01*
X7887770Y8735343D01*
X7709995Y8763500D01*
X7530005Y8763500D01*
X7529997Y8763498D01*
X7529991Y8763498D01*
X7457645Y8752039D01*
X7352230Y8735343D01*
X7181048Y8679723D01*
X7020675Y8598009D01*
X7020672Y8598007D01*
X6875060Y8492213D01*
X6875052Y8492206D01*
X6747793Y8364947D01*
X6747786Y8364939D01*
X6641992Y8219327D01*
X6560280Y8058958D01*
X6560276Y8058950D01*
X6504656Y7887768D01*
X6504656Y7887767D01*
X6476501Y7710008D01*
X6476500Y7709992D01*
X6476500Y7530007D01*
X6476501Y7529991D01*
X6504656Y7352232D01*
X6504656Y7352231D01*
X6560276Y7181049D01*
X6560280Y7181041D01*
X6641992Y7020672D01*
X6747786Y6875060D01*
X6747793Y6875052D01*
X6875052Y6747793D01*
X6875060Y6747786D01*
X7020670Y6641994D01*
X7020672Y6641992D01*
X7020675Y6641991D01*
X7069345Y6617192D01*
X7181044Y6560278D01*
X7181048Y6560276D01*
X7195317Y6555640D01*
X7231689Y6524571D01*
X7238500Y6496200D01*
X7238500Y4628911D01*
X7220194Y4584717D01*
X5575283Y2939806D01*
X5531089Y2921500D01*
X-1341090Y2921500D01*
X-1385284Y2939806D01*
X-1403590Y2984000D01*
X-1385284Y3028194D01*
X232058Y4645536D01*
X232069Y4645546D01*
X305271Y4718748D01*
X305276Y4718753D01*
X305278Y4718756D01*
X337592Y4774724D01*
X355500Y4805743D01*
X355500Y4805744D01*
X355502Y4805747D01*
X381501Y4902775D01*
X381501Y5003225D01*
X381501Y5008256D01*
X381500Y5008269D01*
X381500Y6496200D01*
X399806Y6540394D01*
X424683Y6555640D01*
X438951Y6560276D01*
X438955Y6560278D01*
X495829Y6589257D01*
X599325Y6641991D01*
X636523Y6669017D01*
X744939Y6747786D01*
X744947Y6747793D01*
X872206Y6875052D01*
X872213Y6875060D01*
X978007Y7020672D01*
X1015500Y7094255D01*
X1059723Y7181048D01*
X1115343Y7352230D01*
X1143500Y7530005D01*
X1143500Y7709995D01*
X1115343Y7887770D01*
X1059723Y8058952D01*
X978009Y8219325D01*
X872213Y8364940D01*
X744940Y8492213D01*
X703338Y8522438D01*
X678346Y8563223D01*
X689513Y8609737D01*
X730300Y8634731D01*
X740077Y8635500D01*
X1799923Y8635500D01*
X1844117Y8617194D01*
X1862423Y8573000D01*
X1844117Y8528806D01*
X1836670Y8522444D01*
X1795060Y8492213D01*
X1795055Y8492208D01*
X1795052Y8492206D01*
X1667793Y8364947D01*
X1667786Y8364939D01*
X1561992Y8219327D01*
X1480280Y8058958D01*
X1480276Y8058950D01*
X1424656Y7887768D01*
X1424656Y7887767D01*
X1396501Y7710008D01*
X1396500Y7709992D01*
X1396500Y7530007D01*
X1396501Y7529991D01*
X1424656Y7352232D01*
X1424656Y7352231D01*
X1480276Y7181049D01*
X1480280Y7181041D01*
X1561992Y7020672D01*
X1667786Y6875060D01*
X1667793Y6875052D01*
X1795052Y6747793D01*
X1795060Y6747786D01*
X1940672Y6641992D01*
X2101041Y6560280D01*
X2101049Y6560276D01*
X2272231Y6504656D01*
X2449991Y6476501D01*
X2450003Y6476500D01*
X2450005Y6476500D01*
X2450007Y6476500D01*
X2629993Y6476500D01*
X2629995Y6476500D01*
X2629996Y6476500D01*
X2630008Y6476501D01*
X2807767Y6504656D01*
X2807768Y6504656D01*
X2978950Y6560276D01*
X2978958Y6560280D01*
X3139327Y6641992D01*
X3284939Y6747786D01*
X3284947Y6747793D01*
X3412206Y6875052D01*
X3412213Y6875060D01*
X3518007Y7020672D01*
X3555500Y7094255D01*
X3599723Y7181048D01*
X3655343Y7352230D01*
X3683500Y7530005D01*
X3683500Y7709995D01*
X3655343Y7887770D01*
X3599723Y8058952D01*
X3518009Y8219325D01*
X3412213Y8364940D01*
X3284940Y8492213D01*
X3243338Y8522438D01*
X3218346Y8563223D01*
X3229513Y8609737D01*
X3270300Y8634731D01*
X3280077Y8635500D01*
X4261089Y8635500D01*
X4305283Y8617194D01*
X4338600Y8583876D01*
X4356905Y8539682D01*
X4338599Y8495488D01*
X4335113Y8492267D01*
X4207793Y8364947D01*
X4207786Y8364939D01*
X4101992Y8219327D01*
X4020280Y8058958D01*
X4020276Y8058950D01*
X3964656Y7887768D01*
X3964656Y7887767D01*
X3936501Y7710008D01*
X3936500Y7709992D01*
X3936500Y7530007D01*
X3936501Y7529991D01*
X3964656Y7352232D01*
X3964656Y7352231D01*
X4020276Y7181049D01*
X4020280Y7181041D01*
X4101992Y7020672D01*
X4207786Y6875060D01*
X4207793Y6875052D01*
X4335052Y6747793D01*
X4335060Y6747786D01*
X4480672Y6641992D01*
X4641041Y6560280D01*
X4641049Y6560276D01*
X4812231Y6504656D01*
X4989991Y6476501D01*
X4990003Y6476500D01*
X4990005Y6476500D01*
X4990007Y6476500D01*
X5169993Y6476500D01*
X5169995Y6476500D01*
X5169996Y6476500D01*
X5170008Y6476501D01*
X5347767Y6504656D01*
X5347768Y6504656D01*
X5518950Y6560276D01*
X5518958Y6560280D01*
X5679327Y6641992D01*
X5824939Y6747786D01*
X5824947Y6747793D01*
X5952206Y6875052D01*
X5952213Y6875060D01*
X6058007Y7020672D01*
X6095500Y7094255D01*
X6139723Y7181048D01*
X6195343Y7352230D01*
X6223500Y7530005D01*
X6223500Y7709995D01*
X6195343Y7887770D01*
X6139723Y8058952D01*
X6058009Y8219325D01*
X5952213Y8364940D01*
X5824940Y8492213D01*
X5679325Y8598009D01*
X5518952Y8679723D01*
X5347770Y8735343D01*
X5270879Y8747520D01*
X5236466Y8765055D01*
X4679247Y9322276D01*
X4592254Y9372501D01*
X4495225Y9398500D01*
X4495224Y9398500D01*
X-2357089Y9398500D01*
X-2401283Y9416806D01*
X-2419589Y9461000D01*
X-2401283Y9505194D01*
X-2361724Y9544753D01*
X-1540883Y10365592D01*
X-1496689Y10383898D01*
X-1468314Y10377085D01*
X-1454963Y10370282D01*
X-1454950Y10370276D01*
X-1283768Y10314656D01*
X-1106008Y10286501D01*
X-1105996Y10286500D01*
X-1105995Y10286500D01*
X-1105993Y10286500D01*
X-926007Y10286500D01*
X-926005Y10286500D01*
X-926003Y10286500D01*
X-925991Y10286501D01*
X-748232Y10314656D01*
X-748231Y10314656D01*
X-577049Y10370276D01*
X-577041Y10370280D01*
X-416672Y10451992D01*
X-271060Y10557786D01*
X-271052Y10557793D01*
X-143793Y10685052D01*
X-143786Y10685060D01*
X-37992Y10830672D01*
X25022Y10954346D01*
X43723Y10991048D01*
X99343Y11162230D01*
X127500Y11340005D01*
X127500Y11519995D01*
X117679Y11582000D01*
X340203Y11582000D01*
X1038808Y11582000D01*
X1016000Y11496880D01*
X1016000Y11363120D01*
X1038808Y11278000D01*
X340204Y11278000D01*
X340203Y11277999D01*
X360375Y11150641D01*
X360375Y11150640D01*
X418403Y10972048D01*
X418407Y10972040D01*
X503656Y10804729D01*
X614030Y10652813D01*
X614037Y10652805D01*
X746805Y10520037D01*
X746813Y10520030D01*
X898729Y10409656D01*
X1066040Y10324407D01*
X1066048Y10324403D01*
X1244640Y10266375D01*
X1244639Y10266375D01*
X1371999Y10246202D01*
X1372000Y10246202D01*
X1372000Y10944807D01*
X1457120Y10922000D01*
X1590880Y10922000D01*
X1676000Y10944807D01*
X1676000Y10246202D01*
X1803360Y10266375D01*
X1981951Y10324403D01*
X1981959Y10324407D01*
X2149270Y10409656D01*
X2301186Y10520030D01*
X2301194Y10520037D01*
X2433962Y10652805D01*
X2433969Y10652813D01*
X2544343Y10804729D01*
X2629592Y10972040D01*
X2629596Y10972048D01*
X2687624Y11150640D01*
X2687624Y11150641D01*
X2707796Y11277999D01*
X2707796Y11278000D01*
X2009192Y11278000D01*
X2032000Y11363120D01*
X2032000Y11496880D01*
X2025807Y11519992D01*
X2920500Y11519992D01*
X2920500Y11340007D01*
X2920501Y11339991D01*
X2948656Y11162232D01*
X2948656Y11162231D01*
X3004276Y10991049D01*
X3004280Y10991041D01*
X3085992Y10830672D01*
X3191786Y10685060D01*
X3191793Y10685052D01*
X3319052Y10557793D01*
X3319060Y10557786D01*
X3464672Y10451992D01*
X3625041Y10370280D01*
X3625049Y10370276D01*
X3796231Y10314656D01*
X3973991Y10286501D01*
X3974003Y10286500D01*
X3974005Y10286500D01*
X3974007Y10286500D01*
X4153993Y10286500D01*
X4153995Y10286500D01*
X4153996Y10286500D01*
X4154008Y10286501D01*
X4331767Y10314656D01*
X4331768Y10314656D01*
X4502950Y10370276D01*
X4502958Y10370280D01*
X4663327Y10451992D01*
X4808939Y10557786D01*
X4808947Y10557793D01*
X4936206Y10685052D01*
X4936213Y10685060D01*
X5042007Y10830672D01*
X5079938Y10905114D01*
X5123723Y10991048D01*
X5179343Y11162230D01*
X5206166Y11331583D01*
X5207498Y11339991D01*
X5207500Y11340007D01*
X5207500Y11519992D01*
X5207499Y11520003D01*
X5207325Y11521104D01*
X5207325Y11521105D01*
X5206167Y11528414D01*
X20593500Y11528414D01*
X20593500Y11331585D01*
X20593501Y11331569D01*
X20624290Y11137179D01*
X20624292Y11137170D01*
X20685115Y10949976D01*
X20685119Y10949968D01*
X20774477Y10774592D01*
X20890171Y10615354D01*
X20890178Y10615346D01*
X21029346Y10476178D01*
X21029354Y10476171D01*
X21188592Y10360477D01*
X21363968Y10271119D01*
X21363976Y10271115D01*
X21551170Y10210292D01*
X21551172Y10210291D01*
X21551174Y10210291D01*
X21551175Y10210290D01*
X21551179Y10210290D01*
X21745569Y10179501D01*
X21745581Y10179500D01*
X21745583Y10179500D01*
X21745585Y10179500D01*
X21942415Y10179500D01*
X21942417Y10179500D01*
X21942418Y10179500D01*
X21942430Y10179501D01*
X22136820Y10210290D01*
X22136826Y10210291D01*
X22149412Y10214380D01*
X22324023Y10271115D01*
X22324031Y10271119D01*
X22499407Y10360477D01*
X22658645Y10476171D01*
X22658653Y10476178D01*
X22797821Y10615346D01*
X22797828Y10615354D01*
X22913522Y10774592D01*
X22923921Y10795000D01*
X23002884Y10949975D01*
X23063709Y11137174D01*
X23094500Y11331583D01*
X23094500Y11528417D01*
X23063709Y11722826D01*
X23002884Y11910025D01*
X22913524Y12085405D01*
X22797828Y12244646D01*
X22658646Y12383828D01*
X22499405Y12499524D01*
X22324025Y12588884D01*
X22136826Y12649709D01*
X21942417Y12680500D01*
X21745583Y12680500D01*
X21745575Y12680498D01*
X21745569Y12680498D01*
X21703705Y12673867D01*
X21551174Y12649709D01*
X21363975Y12588884D01*
X21188595Y12499524D01*
X21188592Y12499522D01*
X21029354Y12383828D01*
X21029346Y12383821D01*
X20890178Y12244653D01*
X20890171Y12244645D01*
X20774477Y12085407D01*
X20685119Y11910031D01*
X20685115Y11910023D01*
X20624292Y11722829D01*
X20624290Y11722820D01*
X20593501Y11528430D01*
X20593500Y11528414D01*
X5206167Y11528414D01*
X5179343Y11697769D01*
X5179343Y11697770D01*
X5123723Y11868952D01*
X5042009Y12029325D01*
X4936213Y12174940D01*
X4808940Y12302213D01*
X4663325Y12408009D01*
X4502952Y12489723D01*
X4331770Y12545343D01*
X4153995Y12573500D01*
X3974005Y12573500D01*
X3973997Y12573498D01*
X3973991Y12573498D01*
X3908147Y12563069D01*
X3796230Y12545343D01*
X3625048Y12489723D01*
X3464675Y12408009D01*
X3464672Y12408007D01*
X3319060Y12302213D01*
X3319052Y12302206D01*
X3191793Y12174947D01*
X3191786Y12174939D01*
X3085992Y12029327D01*
X3004280Y11868958D01*
X3004276Y11868950D01*
X2948656Y11697768D01*
X2948656Y11697767D01*
X2920501Y11520008D01*
X2920500Y11519992D01*
X2025807Y11519992D01*
X2009192Y11582000D01*
X2707796Y11582000D01*
X2687624Y11709358D01*
X2687624Y11709359D01*
X2629596Y11887951D01*
X2629592Y11887959D01*
X2544343Y12055270D01*
X2433969Y12207186D01*
X2433962Y12207194D01*
X2301194Y12339962D01*
X2301186Y12339969D01*
X2149270Y12450343D01*
X1981959Y12535592D01*
X1981951Y12535596D01*
X1803359Y12593624D01*
X1676000Y12613796D01*
X1676000Y11915192D01*
X1590880Y11938000D01*
X1457120Y11938000D01*
X1372000Y11915192D01*
X1372000Y12613796D01*
X1371999Y12613796D01*
X1244641Y12593624D01*
X1244640Y12593624D01*
X1066048Y12535596D01*
X1066040Y12535592D01*
X898729Y12450343D01*
X746813Y12339969D01*
X746805Y12339962D01*
X614037Y12207194D01*
X614030Y12207186D01*
X503656Y12055270D01*
X418407Y11887959D01*
X418403Y11887951D01*
X360375Y11709359D01*
X360375Y11709358D01*
X340203Y11582000D01*
X117679Y11582000D01*
X99343Y11697770D01*
X43723Y11868952D01*
X-37991Y12029325D01*
X-45492Y12039649D01*
X-143786Y12174939D01*
X-143793Y12174947D01*
X-271052Y12302206D01*
X-271060Y12302213D01*
X-416672Y12408007D01*
X-416675Y12408009D01*
X-577048Y12489723D01*
X-748230Y12545343D01*
X-848719Y12561259D01*
X-925991Y12573498D01*
X-925997Y12573498D01*
X-926005Y12573500D01*
X-1105995Y12573500D01*
X-1283770Y12545343D01*
X-1454952Y12489723D01*
X-1615325Y12408009D01*
X-1760940Y12302213D01*
X-1888213Y12174940D01*
X-1994009Y12029325D01*
X-2075723Y11868952D01*
X-2131343Y11697770D01*
X-2151327Y11571599D01*
X-2159498Y11520008D01*
X-2159500Y11519992D01*
X-2159500Y11340007D01*
X-2159498Y11339991D01*
X-2158166Y11331583D01*
X-2131343Y11162230D01*
X-2086267Y11023498D01*
X-2075722Y10991046D01*
X-2075717Y10991034D01*
X-2068914Y10977683D01*
X-2065160Y10929996D01*
X-2080405Y10905116D01*
X-2661116Y10324407D01*
X-2806717Y10178806D01*
X-2850911Y10160500D01*
X-7670225Y10160500D01*
X-7767254Y10134501D01*
X-7854247Y10084276D01*
X-7925276Y10013247D01*
X-7925276Y10013245D01*
X-7930417Y10008105D01*
X-7930420Y10008100D01*
X-9242456Y8696065D01*
X-9242457Y8696065D01*
X-9251246Y8687276D01*
X-9251247Y8687276D01*
X-9322276Y8616247D01*
X-9372501Y8529254D01*
X-9396367Y8440184D01*
X-9398499Y8432229D01*
X-9398500Y8432223D01*
X-9398500Y5029776D01*
X-9398499Y5029770D01*
X-9392734Y5008256D01*
X-9372501Y4932746D01*
X-9355197Y4902775D01*
X-9322275Y4845752D01*
X-7931004Y3454481D01*
X-7912698Y3410287D01*
X-7917456Y3386369D01*
X-7919503Y3381428D01*
X-7946700Y3244702D01*
X-7946700Y3105298D01*
X-7936878Y3055924D01*
X-7946209Y3009010D01*
X-7953978Y2999543D01*
X-9564368Y1389155D01*
X-10045717Y907806D01*
X-10089911Y889500D01*
X-17404360Y889500D01*
X-17448554Y907806D01*
X-17456324Y917272D01*
X-17484294Y959132D01*
X-17582868Y1057706D01*
X-17698778Y1135155D01*
X-17827572Y1188503D01*
X-17964298Y1215700D01*
X-18103702Y1215700D01*
X-18240428Y1188503D01*
X-18369222Y1135155D01*
X-18485132Y1057706D01*
X-18583706Y959132D01*
X-18661155Y843222D01*
X-18714503Y714428D01*
X-18741700Y577702D01*
X-24518500Y577702D01*
X-24518500Y10792956D01*
X-24518366Y10797044D01*
X-24501319Y11057120D01*
X-24500252Y11065225D01*
X-24449805Y11318843D01*
X-24447689Y11326740D01*
X-24379227Y11528417D01*
X-23094500Y11528417D01*
X-23094500Y11331583D01*
X-23063709Y11137174D01*
X-23002884Y10949975D01*
X-22923921Y10795000D01*
X-22913522Y10774592D01*
X-22797828Y10615354D01*
X-22797821Y10615346D01*
X-22658653Y10476178D01*
X-22658645Y10476171D01*
X-22499407Y10360477D01*
X-22324031Y10271119D01*
X-22324023Y10271115D01*
X-22149412Y10214380D01*
X-22136826Y10210291D01*
X-22136820Y10210290D01*
X-21942430Y10179501D01*
X-21942418Y10179500D01*
X-21942417Y10179500D01*
X-21942415Y10179500D01*
X-21745585Y10179500D01*
X-21745583Y10179500D01*
X-21745581Y10179500D01*
X-21745569Y10179501D01*
X-21551179Y10210290D01*
X-21551175Y10210290D01*
X-21551174Y10210291D01*
X-21551172Y10210291D01*
X-21551170Y10210292D01*
X-21363976Y10271115D01*
X-21363968Y10271119D01*
X-21188592Y10360477D01*
X-21029354Y10476171D01*
X-21029346Y10476178D01*
X-20890178Y10615346D01*
X-20890171Y10615354D01*
X-20774477Y10774592D01*
X-20685119Y10949968D01*
X-20685115Y10949976D01*
X-20624292Y11137170D01*
X-20624290Y11137179D01*
X-20593501Y11331569D01*
X-20593500Y11331585D01*
X-20593500Y11519992D01*
X-4699500Y11519992D01*
X-4699500Y11340007D01*
X-4699498Y11339991D01*
X-4698166Y11331583D01*
X-4671343Y11162230D01*
X-4615723Y10991048D01*
X-4571938Y10905114D01*
X-4534007Y10830672D01*
X-4428213Y10685060D01*
X-4428206Y10685052D01*
X-4300947Y10557793D01*
X-4300939Y10557786D01*
X-4155327Y10451992D01*
X-3994958Y10370280D01*
X-3994950Y10370276D01*
X-3823768Y10314656D01*
X-3646008Y10286501D01*
X-3645996Y10286500D01*
X-3645995Y10286500D01*
X-3645993Y10286500D01*
X-3466007Y10286500D01*
X-3466005Y10286500D01*
X-3466003Y10286500D01*
X-3465991Y10286501D01*
X-3288232Y10314656D01*
X-3288231Y10314656D01*
X-3117049Y10370276D01*
X-3117041Y10370280D01*
X-2956672Y10451992D01*
X-2811060Y10557786D01*
X-2811052Y10557793D01*
X-2683793Y10685052D01*
X-2683786Y10685060D01*
X-2577992Y10830672D01*
X-2496280Y10991041D01*
X-2496276Y10991049D01*
X-2440656Y11162231D01*
X-2440656Y11162232D01*
X-2412501Y11339991D01*
X-2412500Y11340007D01*
X-2412500Y11519992D01*
X-2412501Y11520008D01*
X-2440656Y11697767D01*
X-2440656Y11697768D01*
X-2496276Y11868950D01*
X-2496280Y11868958D01*
X-2577992Y12029327D01*
X-2683786Y12174939D01*
X-2683793Y12174947D01*
X-2811052Y12302206D01*
X-2811060Y12302213D01*
X-2956672Y12408007D01*
X-2956675Y12408009D01*
X-3117048Y12489723D01*
X-3288230Y12545343D01*
X-3388719Y12561259D01*
X-3465991Y12573498D01*
X-3465997Y12573498D01*
X-3466005Y12573500D01*
X-3645995Y12573500D01*
X-3823770Y12545343D01*
X-3994952Y12489723D01*
X-4155325Y12408009D01*
X-4300940Y12302213D01*
X-4428213Y12174940D01*
X-4534009Y12029325D01*
X-4615723Y11868952D01*
X-4671343Y11697770D01*
X-4691327Y11571599D01*
X-4699498Y11520008D01*
X-4699500Y11519992D01*
X-20593500Y11519992D01*
X-20593500Y11528414D01*
X-20593501Y11528430D01*
X-20624290Y11722820D01*
X-20624292Y11722829D01*
X-20685115Y11910023D01*
X-20685119Y11910031D01*
X-20774477Y12085407D01*
X-20890171Y12244645D01*
X-20890178Y12244653D01*
X-21029346Y12383821D01*
X-21029354Y12383828D01*
X-21188592Y12499522D01*
X-21188595Y12499524D01*
X-21363975Y12588884D01*
X-21551174Y12649709D01*
X-21703705Y12673867D01*
X-21745569Y12680498D01*
X-21745575Y12680498D01*
X-21745583Y12680500D01*
X-21942417Y12680500D01*
X-22136826Y12649709D01*
X-22324025Y12588884D01*
X-22499405Y12499524D01*
X-22658646Y12383828D01*
X-22797828Y12244646D01*
X-22913524Y12085405D01*
X-23002884Y11910025D01*
X-23063709Y11722826D01*
X-23094500Y11528417D01*
X-24379227Y11528417D01*
X-24371574Y11550963D01*
X-24364569Y11571599D01*
X-24361441Y11579153D01*
X-24247069Y11811078D01*
X-24242981Y11818158D01*
X-24099319Y12033163D01*
X-24094342Y12039649D01*
X-23923845Y12234064D01*
X-23918064Y12239845D01*
X-23723649Y12410342D01*
X-23717163Y12415319D01*
X-23502158Y12558981D01*
X-23495078Y12563069D01*
X-23263153Y12677441D01*
X-23255600Y12680569D01*
X-23010740Y12763689D01*
X-23002843Y12765805D01*
X-22749225Y12816252D01*
X-22741120Y12817319D01*
X-22481044Y12834366D01*
X-22476956Y12834500D01*
X-22413108Y12834500D01*
X22413108Y12834500D01*
X22476956Y12834500D01*
X22481044Y12834366D01*
G37*
%TD.AperFunction*%
%TD*%
M02*
