M48
; DRILL file KiCad 10.99.0-3671-gbe90a7e200 date 2026-09-09T22:59:00
; FORMAT={-:-/ absolute / metric / decimal}
; #@! TF.CreationDate,2026-09-09T22:59:00+01:00
; #@! TF.GenerationSoftware,Kicad,Pcbnew,10.99.0-3671-gbe90a7e200
; #@! TF.FileFunction,Plated,1,2,PTH
FMAT,2
METRIC
; #@! TA.AperFunction,Plated,PTH,ViaDrill
T1C0.394
; #@! TA.AperFunction,Plated,PTH,ViaDrill
T2C0.483
; #@! TA.AperFunction,Plated,PTH,ComponentDrill
T3C1.000
; #@! TA.AperFunction,Plated,PTH,ComponentDrill
T4C2.500
%
G90
G05
T1
X13.462Y6.985
X19.431Y6.35
T2
X1.27Y8.89
X3.556Y8.585
X3.683Y7.493
X5.588Y13.208
X7.239Y13.081
X8.382Y12.195
X11.684Y4.572
X12.065Y12.192
X15.24Y8.763
X18.86Y12.573
X20.13Y7.81
X22.606Y4.318
X26.81Y10.358
X26.86Y9.08
X27.559Y12.573
X29.21Y8.763
T3
X6.35Y15.24
X6.35Y2.54
X8.89Y15.24
X8.89Y2.54
X11.43Y15.24
X11.43Y2.54
X13.97Y15.24
X13.97Y2.54
X16.51Y15.24
X16.51Y2.54
X19.05Y15.24
X19.05Y2.54
X21.59Y15.24
X21.59Y2.54
X24.13Y15.24
X24.13Y2.54
T4
X2.54Y15.24
X2.54Y2.54
X27.94Y15.24
X27.94Y2.54
M30
