%TF.GenerationSoftware,KiCad,Pcbnew,10.99.0-3671-gbe90a7e200*%
%TF.CreationDate,2026-09-09T23:02:11+01:00*%
%TF.ProjectId,kicad_file,6b696361-645f-4666-996c-652e6b696361,rev?*%
%TF.SameCoordinates,Original*%
%TF.FileFunction,Drillmap*%
%TF.FilePolarity,Positive*%
%FSLAX45Y45*%
G04 Gerber Fmt 4.5, Leading zero omitted, Abs format (unit mm)*
G04 Created by KiCad (PCBNEW 10.99.0-3671-gbe90a7e200) date 2026-09-09 23:02:11*
%MOMM*%
%LPD*%
G01*
G04 APERTURE LIST*
%ADD10C,0.050000*%
%ADD11C,0.200000*%
G04 APERTURE END LIST*
D10*
X-162560Y307340D02*
G75*
G02*
X91440Y561340I254000J0D01*
G01*
X-162560Y-1089660D02*
X-162560Y307340D01*
X91440Y561340D02*
X1488440Y561340D01*
X91440Y-1343660D02*
G75*
G02*
X-162560Y-1089660I0J254000D01*
G01*
X1488440Y561340D02*
G75*
G02*
X1742440Y307340I0J-254000D01*
G01*
X1488440Y-1343660D02*
X91440Y-1343660D01*
X1742440Y307340D02*
X1742440Y-1089660D01*
X1742440Y-1089660D02*
G75*
G02*
X1488440Y-1343660I-254000J0D01*
G01*
D11*
X95717Y-1657644D02*
X95717Y-1457644D01*
X95717Y-1457644D02*
X143336Y-1457644D01*
X143336Y-1457644D02*
X171907Y-1467168D01*
X171907Y-1467168D02*
X190955Y-1486215D01*
X190955Y-1486215D02*
X200479Y-1505263D01*
X200479Y-1505263D02*
X210002Y-1543358D01*
X210002Y-1543358D02*
X210002Y-1571929D01*
X210002Y-1571929D02*
X200479Y-1610025D01*
X200479Y-1610025D02*
X190955Y-1629072D01*
X190955Y-1629072D02*
X171907Y-1648120D01*
X171907Y-1648120D02*
X143336Y-1657644D01*
X143336Y-1657644D02*
X95717Y-1657644D01*
X295717Y-1657644D02*
X295717Y-1524310D01*
X295717Y-1562406D02*
X305241Y-1543358D01*
X305241Y-1543358D02*
X314764Y-1533834D01*
X314764Y-1533834D02*
X333812Y-1524310D01*
X333812Y-1524310D02*
X352860Y-1524310D01*
X419526Y-1657644D02*
X419526Y-1524310D01*
X419526Y-1457644D02*
X410002Y-1467168D01*
X410002Y-1467168D02*
X419526Y-1476691D01*
X419526Y-1476691D02*
X429050Y-1467168D01*
X429050Y-1467168D02*
X419526Y-1457644D01*
X419526Y-1457644D02*
X419526Y-1476691D01*
X543336Y-1657644D02*
X524288Y-1648120D01*
X524288Y-1648120D02*
X514764Y-1629072D01*
X514764Y-1629072D02*
X514764Y-1457644D01*
X648098Y-1657644D02*
X629050Y-1648120D01*
X629050Y-1648120D02*
X619526Y-1629072D01*
X619526Y-1629072D02*
X619526Y-1457644D01*
X876669Y-1657644D02*
X876669Y-1457644D01*
X876669Y-1457644D02*
X943336Y-1600501D01*
X943336Y-1600501D02*
X1010002Y-1457644D01*
X1010002Y-1457644D02*
X1010002Y-1657644D01*
X1190955Y-1657644D02*
X1190955Y-1552882D01*
X1190955Y-1552882D02*
X1181431Y-1533834D01*
X1181431Y-1533834D02*
X1162384Y-1524310D01*
X1162384Y-1524310D02*
X1124288Y-1524310D01*
X1124288Y-1524310D02*
X1105241Y-1533834D01*
X1190955Y-1648120D02*
X1171907Y-1657644D01*
X1171907Y-1657644D02*
X1124288Y-1657644D01*
X1124288Y-1657644D02*
X1105241Y-1648120D01*
X1105241Y-1648120D02*
X1095717Y-1629072D01*
X1095717Y-1629072D02*
X1095717Y-1610025D01*
X1095717Y-1610025D02*
X1105241Y-1590977D01*
X1105241Y-1590977D02*
X1124288Y-1581453D01*
X1124288Y-1581453D02*
X1171907Y-1581453D01*
X1171907Y-1581453D02*
X1190955Y-1571929D01*
X1286193Y-1524310D02*
X1286193Y-1724310D01*
X1286193Y-1533834D02*
X1305241Y-1524310D01*
X1305241Y-1524310D02*
X1343336Y-1524310D01*
X1343336Y-1524310D02*
X1362384Y-1533834D01*
X1362384Y-1533834D02*
X1371907Y-1543358D01*
X1371907Y-1543358D02*
X1381431Y-1562406D01*
X1381431Y-1562406D02*
X1381431Y-1619548D01*
X1381431Y-1619548D02*
X1371907Y-1638596D01*
X1371907Y-1638596D02*
X1362384Y-1648120D01*
X1362384Y-1648120D02*
X1343336Y-1657644D01*
X1343336Y-1657644D02*
X1305241Y-1657644D01*
X1305241Y-1657644D02*
X1286193Y-1648120D01*
X1467145Y-1638596D02*
X1476669Y-1648120D01*
X1476669Y-1648120D02*
X1467145Y-1657644D01*
X1467145Y-1657644D02*
X1457622Y-1648120D01*
X1457622Y-1648120D02*
X1467145Y-1638596D01*
X1467145Y-1638596D02*
X1467145Y-1657644D01*
X1467145Y-1533834D02*
X1476669Y-1543358D01*
X1476669Y-1543358D02*
X1467145Y-1552882D01*
X1467145Y-1552882D02*
X1457622Y-1543358D01*
X1457622Y-1543358D02*
X1467145Y-1533834D01*
X1467145Y-1533834D02*
X1467145Y-1552882D01*
M02*
