%TF.GenerationSoftware,KiCad,Pcbnew,10.99.0-3671-gbe90a7e200*%
%TF.CreationDate,2026-09-10T01:08:05+01:00*%
%TF.ProjectId,kicad_file,6b696361-645f-4666-996c-652e6b696361,rev?*%
%TF.SameCoordinates,Original*%
%TF.FileFunction,Copper,L2,Bot*%
%TF.FilePolarity,Positive*%
%FSLAX46Y46*%
G04 Gerber Fmt 4.6, Leading zero omitted, Abs format (unit mm)*
G04 Created by KiCad (PCBNEW 10.99.0-3671-gbe90a7e200) date 2026-09-10 01:08:05*
%MOMM*%
%LPD*%
G01*
G04 APERTURE LIST*
G04 Aperture macros list*
%AMRoundRect*
0 Rectangle with rounded corners*
0 $1 Rounding radius*
0 $2 $3 $4 $5 $6 $7 $8 $9 X,Y pos of 4 corners*
0 Add a 4 corners polygon primitive as box body*
4,1,4,$2,$3,$4,$5,$6,$7,$8,$9,$2,$3,0*
0 Add four circle primitives for the rounded corners*
1,1,$1+$1,$2,$3*
1,1,$1+$1,$4,$5*
1,1,$1+$1,$6,$7*
1,1,$1+$1,$8,$9*
0 Add four rect primitives between the rounded corners*
20,1,$1+$1,$2,$3,$4,$5,0*
20,1,$1+$1,$4,$5,$6,$7,0*
20,1,$1+$1,$6,$7,$8,$9,0*
20,1,$1+$1,$8,$9,$2,$3,0*%
G04 Aperture macros list end*
%TA.AperFunction,ComponentPad*%
%ADD10O,2.700000X5.400000*%
%TD*%
%TA.AperFunction,ComponentPad*%
%ADD11O,5.400000X2.700000*%
%TD*%
%TA.AperFunction,WasherPad*%
%ADD12C,1.508000*%
%TD*%
%TA.AperFunction,ComponentPad*%
%ADD13C,1.778000*%
%TD*%
%TA.AperFunction,ComponentPad*%
%ADD14O,1.500000X3.000000*%
%TD*%
%TA.AperFunction,WasherPad*%
%ADD15C,1.408000*%
%TD*%
%TA.AperFunction,WasherPad*%
%ADD16C,1.158000*%
%TD*%
%TA.AperFunction,ComponentPad*%
%ADD17O,2.000000X1.000000*%
%TD*%
%TA.AperFunction,ComponentPad*%
%ADD18C,1.676400*%
%TD*%
%TA.AperFunction,SMDPad,CuDef*%
%ADD19RoundRect,0.750000X0.000010X0.000010X-0.000010X0.000010X-0.000010X-0.000010X0.000010X-0.000010X0*%
%TD*%
%TA.AperFunction,SMDPad,CuDef*%
%ADD20RoundRect,0.635000X0.000010X0.000010X-0.000010X0.000010X-0.000010X-0.000010X0.000010X-0.000010X0*%
%TD*%
%TA.AperFunction,ViaPad*%
%ADD21C,0.889000*%
%TD*%
%TA.AperFunction,ViaPad*%
%ADD22C,0.800100*%
%TD*%
%TA.AperFunction,Conductor*%
%ADD23C,0.609600*%
%TD*%
%TA.AperFunction,Conductor*%
%ADD24C,0.812800*%
%TD*%
%TA.AperFunction,Conductor*%
%ADD25C,0.203200*%
%TD*%
%TA.AperFunction,Conductor*%
%ADD26C,0.406400*%
%TD*%
%TA.AperFunction,Conductor*%
%ADD27C,0.177800*%
%TD*%
G04 APERTURE END LIST*
D10*
%TO.P,X5,GND*%
%TO.N,GND*%
X4466000Y7620000D03*
D11*
%TO.P,X5,GNDBREAK*%
X7366000Y2920000D03*
D10*
%TO.P,X5,PWR*%
%TO.N,PWRIN*%
X10366000Y7620000D03*
%TD*%
D12*
%TO.P,SW2,*%
%TO.N,*%
X1478000Y46348000D03*
X1478000Y48648000D03*
%TD*%
%TO.P,SWD0,*%
%TO.N,*%
X50609500Y16383000D03*
X50609500Y12573000D03*
%TD*%
D13*
%TO.P,ICSP0,1*%
%TO.N,MISO/SDIO_DAT0*%
X63373000Y30480000D03*
%TO.P,ICSP0,2*%
%TO.N,+5V*%
X65913000Y30480000D03*
%TO.P,ICSP0,3*%
%TO.N,SCK/SDIO_CLK*%
X63373000Y27940000D03*
%TO.P,ICSP0,4*%
%TO.N,MOSI/SDIO_CMD*%
X65913000Y27940000D03*
%TO.P,ICSP0,5*%
%TO.N,~{RESET}*%
X63373000Y25400000D03*
%TO.P,ICSP0,6*%
%TO.N,GND*%
X65913000Y25400000D03*
%TD*%
D14*
%TO.P,IOH0,1*%
%TO.N,SCL*%
X18796000Y50800000D03*
%TO.P,IOH0,2*%
%TO.N,SDA*%
X21336000Y50800000D03*
%TO.P,IOH0,3*%
%TO.N,3.3V*%
X23876000Y50800000D03*
%TO.P,IOH0,4*%
%TO.N,GND*%
X26416000Y50800000D03*
%TO.P,IOH0,5*%
%TO.N,D13*%
X28956000Y50800000D03*
%TO.P,IOH0,6*%
%TO.N,D12*%
X31496000Y50800000D03*
%TO.P,IOH0,7*%
%TO.N,D11*%
X34036000Y50800000D03*
%TO.P,IOH0,8*%
%TO.N,D10*%
X36576000Y50800000D03*
%TO.P,IOH0,9*%
%TO.N,D9*%
X39116000Y50800000D03*
%TO.P,IOH0,10*%
%TO.N,D8*%
X41656000Y50800000D03*
%TD*%
D15*
%TO.P,SW1,*%
%TO.N,*%
X20445600Y2844800D03*
X23445600Y2844800D03*
%TD*%
D14*
%TO.P,POWER0,1*%
%TO.N,N/C*%
X27940000Y2540000D03*
%TO.P,POWER0,2*%
%TO.N,3.3V*%
X30480000Y2540000D03*
%TO.P,POWER0,3*%
%TO.N,~{RESET}*%
X33020000Y2540000D03*
%TO.P,POWER0,4*%
%TO.N,3.3V*%
X35560000Y2540000D03*
%TO.P,POWER0,5*%
%TO.N,+5V*%
X38100000Y2540000D03*
%TO.P,POWER0,6*%
%TO.N,GND*%
X40640000Y2540000D03*
%TO.P,POWER0,7*%
X43180000Y2540000D03*
%TO.P,POWER0,8*%
%TO.N,VIN*%
X45720000Y2540000D03*
%TD*%
%TO.P,IOL0,1*%
%TO.N,D7*%
X45720000Y50800000D03*
%TO.P,IOL0,2*%
%TO.N,D6*%
X48260000Y50800000D03*
%TO.P,IOL0,3*%
%TO.N,D5*%
X50800000Y50800000D03*
%TO.P,IOL0,4*%
%TO.N,D4*%
X53340000Y50800000D03*
%TO.P,IOL0,5*%
%TO.N,D3*%
X55880000Y50800000D03*
%TO.P,IOL0,6*%
%TO.N,D2*%
X58420000Y50800000D03*
%TO.P,IOL0,7*%
%TO.N,TXD*%
X60960000Y50800000D03*
%TO.P,IOL0,8*%
%TO.N,RXD*%
X63500000Y50800000D03*
%TD*%
D12*
%TO.P,SW3,*%
%TO.N,*%
X64562000Y44330000D03*
X64562000Y42030000D03*
%TD*%
D14*
%TO.P,AD0,1*%
%TO.N,A0*%
X50800000Y2540000D03*
%TO.P,AD0,2*%
%TO.N,A1*%
X53340000Y2540000D03*
%TO.P,AD0,3*%
%TO.N,A2*%
X55880000Y2540000D03*
%TO.P,AD0,4*%
%TO.N,A3*%
X58420000Y2540000D03*
%TO.P,AD0,5*%
%TO.N,D24*%
X60960000Y2540000D03*
%TO.P,AD0,6*%
%TO.N,D25*%
X63500000Y2540000D03*
%TD*%
D16*
%TO.P,X3,*%
%TO.N,*%
X5327500Y40990000D03*
X5327500Y35210000D03*
D17*
%TO.P,X3,M1*%
%TO.N,N/C*%
X5827500Y42420000D03*
%TO.P,X3,M2*%
X5827500Y33780000D03*
%TO.P,X3,M3*%
X1647500Y42420000D03*
%TO.P,X3,M4*%
X1647500Y33780000D03*
%TD*%
D18*
%TO.P,JP1,1*%
%TO.N,PWR_SWITCH*%
X22225000Y8737600D03*
%TD*%
D12*
%TO.P,SW4,*%
%TO.N,*%
X60174000Y42926000D03*
X57174000Y42926000D03*
%TD*%
D19*
%TO.P,TP1,P$1*%
%TO.N,USBBOOT*%
X60960000Y40640000D03*
%TD*%
D20*
%TO.P,D-1,TP*%
%TO.N,USB_D-*%
X2921000Y39243000D03*
%TD*%
%TO.P,D+1,TP*%
%TO.N,USB_D+*%
X2857500Y37211000D03*
%TD*%
D21*
%TO.N,+5V*%
X63246000Y23304500D03*
X45212000Y14732000D03*
%TO.N,GND*%
X49530000Y40259000D03*
X2794000Y47498000D03*
X43561000Y10668000D03*
X35433000Y13081000D03*
X30734000Y36322000D03*
X1651000Y25654000D03*
X24003000Y16002000D03*
X7366000Y17272000D03*
X50927000Y18796000D03*
X42545000Y35941000D03*
X11684000Y47752000D03*
X52070000Y41148000D03*
X2540000Y19177000D03*
X12573000Y26797000D03*
X7874000Y34925000D03*
X46101000Y43053000D03*
X20574000Y42799000D03*
X28956000Y31496000D03*
X13716000Y30480000D03*
X46609000Y17907000D03*
X41910000Y16383000D03*
X50165000Y32512000D03*
X65151000Y19431000D03*
X65151000Y48768000D03*
X6731000Y25146000D03*
X30607000Y40894000D03*
X41021000Y45466000D03*
X26543000Y10541000D03*
X11684000Y19558000D03*
X40386000Y24003000D03*
X37846000Y25781000D03*
X13716000Y21590000D03*
X24638000Y29337000D03*
X1778000Y35306000D03*
X41910000Y18542000D03*
X50038000Y9779000D03*
X41910000Y20447000D03*
X1905000Y40386000D03*
X8128000Y51943000D03*
X54356000Y45720000D03*
X44831000Y24384000D03*
%TO.N,VIN*%
X45720000Y6286500D03*
X36766500Y8699500D03*
%TO.N,SCK/SDIO_CLK*%
X38865875Y30476125D03*
%TO.N,PWRIN*%
X18161000Y7556500D03*
%TO.N,D-*%
X13208000Y38918600D03*
X48755300Y32512000D03*
%TO.N,D+*%
X13335000Y37851800D03*
X48577500Y33603437D03*
%TO.N,MISO/SDIO_DAT0*%
X37815650Y30124400D03*
X39270875Y28610625D03*
D22*
%TO.N,3.3V*%
X37211000Y24638000D03*
X37338000Y17399000D03*
X17057000Y46355000D03*
X32385000Y31877000D03*
X24257000Y46355000D03*
D21*
%TO.N,VBUS*%
X27940000Y20256500D03*
X26987500Y31813500D03*
%TO.N,D13*%
X30353000Y47307500D03*
D22*
X20447000Y36449000D03*
%TO.N,SCL*%
X6731000Y49911000D03*
%TO.N,SDA*%
X7747000Y49911000D03*
D21*
%TO.N,~{RESET}*%
X59944000Y30441900D03*
D22*
X8001000Y42799000D03*
D21*
X52451000Y9969500D03*
X37516034Y32714965D03*
D22*
%TO.N,NEOPIX*%
X37063650Y40640000D03*
X57531000Y33909000D03*
%TO.N,SWCLK*%
X59690000Y15113000D03*
D21*
X35242500Y31369000D03*
X54800500Y15176500D03*
%TO.N,SWDIO*%
X36410900Y31559500D03*
X49911000Y18034000D03*
D22*
X61722000Y15367000D03*
D21*
%TO.N,D24*%
X55079193Y8312850D03*
D22*
%TO.N,QSPI_CS*%
X59182000Y35306000D03*
X47268337Y43458334D03*
%TO.N,1.2V*%
X47688500Y35179000D03*
D21*
X36720512Y35051237D03*
D22*
X51371500Y32004000D03*
D21*
%TO.N,D25*%
X56179146Y10078146D03*
%TO.N,USB_D+*%
X5080000Y36957000D03*
%TO.N,USB_D-*%
X5010468Y38804531D03*
D22*
%TO.N,USBBOOT*%
X63362000Y39624000D03*
%TO.N,SDCS/SDIO_DAT3*%
X41656000Y22860000D03*
X8890000Y20701000D03*
%TO.N,SDIO_DAT1*%
X32639000Y27813000D03*
X30226000Y30524450D03*
%TO.N,SDIO_DAT2*%
X40767000Y22180550D03*
X9017000Y19558000D03*
%TO.N,SD_CD*%
X22479000Y35560000D03*
X17399000Y20955000D03*
D21*
X36617750Y38811200D03*
D22*
X17653000Y26702000D03*
D21*
%TO.N,MOSI/SDIO_CMD*%
X39965500Y29503500D03*
D22*
X15875000Y18415000D03*
D21*
X30543500Y27051000D03*
%TD*%
%TO.N,+5V*%
D23*
X45910500Y14033500D02*
X62865000Y14033500D01*
X63246000Y14414500D02*
X63246000Y23304500D01*
X63246000Y14414500D02*
X62865000Y14033500D01*
X45212000Y14732000D02*
X45910500Y14033500D01*
%TO.N,VIN*%
D24*
X39179500Y6286500D02*
X36766500Y8699500D01*
X45720000Y6286500D02*
X39179500Y6286500D01*
%TO.N,SCK/SDIO_CLK*%
D25*
X42862500Y27940000D02*
X63373000Y27940000D01*
X40326375Y30476125D02*
X42862500Y27940000D01*
X38865875Y30476125D02*
X40326375Y30476125D01*
%TO.N,PWRIN*%
D24*
X10822812Y7556500D02*
X10366000Y7620000D01*
X18161000Y7556500D02*
X10822812Y7556500D01*
%TO.N,D-*%
D25*
X49428400Y33185100D02*
X49428400Y33776287D01*
X18180262Y34327337D02*
X13589000Y38918600D01*
X49428400Y33776287D02*
X48877350Y34327337D01*
X48755300Y32512000D02*
X49428400Y33185100D01*
X13589000Y38918600D02*
X13208000Y38918600D01*
X48877350Y34327337D02*
X18180262Y34327337D01*
%TO.N,D+*%
X48260000Y33920937D02*
X17196562Y33920937D01*
X13335000Y37851800D02*
X13335000Y37782500D01*
X48577500Y33603437D02*
X48260000Y33920937D01*
X17196562Y33920937D02*
X13335000Y37782500D01*
%TO.N,MISO/SDIO_DAT0*%
X61214000Y28321000D02*
X63373000Y30480000D01*
X37815650Y30124396D02*
X37947603Y30124393D01*
X38439025Y31200021D02*
X40364478Y31200018D01*
X43243500Y28321000D02*
X61214000Y28321000D01*
X37815650Y30576650D02*
X38439025Y31200021D01*
X37815650Y30124400D02*
X37815650Y30576650D01*
X39270875Y28801125D02*
X37947603Y30124393D01*
X37815650Y30124400D02*
X37815650Y30124396D01*
X39270875Y28610625D02*
X39270875Y28801125D01*
X40364478Y31200018D02*
X43243500Y28321000D01*
%TO.N,3.3V*%
D23*
X32385003Y31876996D02*
X34924996Y29337003D01*
D25*
X32385000Y31877000D02*
X32385003Y31876996D01*
D23*
X34924996Y26924003D02*
X37211000Y24638000D01*
D24*
X30480000Y2540000D02*
X30480000Y5334000D01*
D23*
X34924996Y29337003D02*
X34924996Y26924003D01*
D26*
X17057000Y46355000D02*
X24257000Y46355000D01*
D24*
X37338000Y12192000D02*
X37338000Y17399000D01*
X30480000Y5334000D02*
X37338000Y12192000D01*
%TO.N,VBUS*%
D23*
X27940000Y30861000D02*
X26987500Y31813500D01*
X27940000Y20256500D02*
X27940000Y30861000D01*
%TO.N,D13*%
D25*
X30353000Y47307500D02*
X30353000Y46609000D01*
X20447000Y36703000D02*
X20447000Y36449000D01*
X30353000Y46609000D02*
X20447000Y36703000D01*
%TO.N,SCL*%
X18796000Y49784000D02*
X18796000Y50800000D01*
X11430000Y50673000D02*
X7493000Y50673000D01*
X6731000Y49911000D02*
X7493000Y50673000D01*
X13462000Y48641000D02*
X17653000Y48641000D01*
X17653000Y48641000D02*
X18796000Y49784000D01*
X11430000Y50673000D02*
X13462000Y48641000D01*
%TO.N,SDA*%
X19939000Y48260000D02*
X21336000Y49657000D01*
X7747000Y49911000D02*
X8128000Y50292000D01*
X8128000Y50292000D02*
X11272181Y50292000D01*
X21336000Y49657000D02*
X21336000Y50800000D01*
X13304181Y48260000D02*
X19939000Y48260000D01*
X11272181Y50292000D02*
X13304181Y48260000D01*
%TO.N,~{RESET}*%
X65087500Y11493500D02*
X66484500Y12890500D01*
X52451000Y9969500D02*
X53975000Y11493500D01*
X59855100Y30353000D02*
X43401318Y30353000D01*
X37516034Y32714965D02*
X37525093Y32724025D01*
X33591500Y4889500D02*
X47371000Y4889500D01*
X47371000Y4889500D02*
X52451000Y9969500D01*
X41030293Y32724025D02*
X37525093Y32724025D01*
X33020000Y4318000D02*
X33591500Y4889500D01*
X16180034Y33032465D02*
X8001000Y41211500D01*
X66484500Y22288500D02*
X63373000Y25400000D01*
X37198531Y33032465D02*
X16180034Y33032465D01*
X41030293Y32724025D02*
X43401318Y30353000D01*
X33020000Y2540000D02*
X33020000Y4318000D01*
X59944000Y30441900D02*
X59855100Y30353000D01*
X66484500Y12890500D02*
X66484500Y22288500D01*
X53975000Y11493500D02*
X65087500Y11493500D01*
X37516034Y32714965D02*
X37198531Y33032465D01*
X8001000Y41211500D02*
X8001000Y42799000D01*
%TO.N,NEOPIX*%
X57531000Y33909000D02*
X55245000Y33909000D01*
X37063650Y40640000D02*
X40365650Y37338000D01*
X40365650Y37338000D02*
X51816000Y37338000D01*
X55245000Y33909000D02*
X51816000Y37338000D01*
%TO.N,SWCLK*%
X35814000Y30353000D02*
X48928400Y17238600D01*
X54800500Y15176500D02*
X59626500Y15176500D01*
X53407006Y15176500D02*
X54800500Y15176500D01*
X35814000Y30797500D02*
X35814000Y30353000D01*
X35242500Y31369000D02*
X35814000Y30797500D01*
X51344906Y17238600D02*
X53407006Y15176500D01*
X48928400Y17238600D02*
X51344906Y17238600D01*
X59626500Y15176500D02*
X59690000Y15113000D01*
%TO.N,SWDIO*%
X48895000Y17907000D02*
X36385500Y30416500D01*
X49784000Y17907000D02*
X48895000Y17907000D01*
X51816000Y18034000D02*
X53594000Y16256000D01*
X36410900Y31559500D02*
X36385500Y31534100D01*
X60833000Y16256000D02*
X61722000Y15367000D01*
X49911000Y18034000D02*
X49784000Y17907000D01*
X53594000Y16256000D02*
X60833000Y16256000D01*
X49911000Y18034000D02*
X51816000Y18034000D01*
X36385500Y31534100D02*
X36385500Y30416500D01*
%TO.N,D24*%
X60960000Y3448043D02*
X56095193Y8312850D01*
X60960000Y3448043D02*
X60960000Y2540000D01*
X55079193Y8312850D02*
X56095193Y8312850D01*
%TO.N,QSPI_CS*%
X56642000Y35306000D02*
X53340000Y38608000D01*
X53340000Y38608000D02*
X49276000Y38608000D01*
X49276000Y38608000D02*
X47268337Y40615662D01*
X59182000Y35306000D02*
X56642000Y35306000D01*
X47268337Y40615662D02*
X47268337Y43458334D01*
%TO.N,1.2V*%
X47560737Y35051237D02*
X47688500Y35179000D01*
X51371500Y33274000D02*
X49466500Y35179000D01*
X51371500Y32004000D02*
X51371500Y33274000D01*
X47688500Y35179000D02*
X49466500Y35179000D01*
X36720512Y35051237D02*
X47560737Y35051237D01*
%TO.N,D25*%
X63500000Y2884293D02*
X56306146Y10078146D01*
X56179146Y10078146D02*
X56306146Y10078146D01*
X63500000Y2884293D02*
X63500000Y2540000D01*
%TO.N,USB_D+*%
X5080000Y36957000D02*
X3111500Y36957000D01*
X3111500Y36957000D02*
X2857500Y37211000D01*
%TO.N,USB_D-*%
X5010468Y38804531D02*
X3359468Y38804531D01*
X3359468Y38804531D02*
X2921000Y39243000D01*
%TO.N,USBBOOT*%
D27*
X62346000Y40640000D02*
X63362000Y39624000D01*
X60960000Y40640000D02*
X62346000Y40640000D01*
%TO.N,SDCS/SDIO_DAT3*%
D25*
X29718000Y14478000D02*
X15113000Y14478000D01*
X38100000Y22860000D02*
X29718000Y14478000D01*
X15113000Y14478000D02*
X8890000Y20701000D01*
X41656000Y22860000D02*
X38100000Y22860000D01*
%TO.N,SDIO_DAT1*%
X32639000Y28238450D02*
X30353000Y30524450D01*
X30353000Y30524450D02*
X30226000Y30524450D01*
X32639000Y27813000D02*
X32639000Y28238450D01*
%TO.N,SDIO_DAT2*%
X38100000Y22225000D02*
X40767000Y22225000D01*
X9017000Y19558000D02*
X14478000Y14097000D01*
X40767000Y22225000D02*
X40767000Y22180550D01*
X29972000Y14097000D02*
X38100000Y22225000D01*
X14478000Y14097000D02*
X29972000Y14097000D01*
%TO.N,SD_CD*%
X36617750Y38811200D02*
X33366550Y35560000D01*
X17399000Y20955000D02*
X17399000Y26448000D01*
X17399000Y26448000D02*
X17653000Y26702000D01*
X33366550Y35560000D02*
X22479000Y35560000D01*
%TO.N,MOSI/SDIO_CMD*%
X39965500Y29249500D02*
X39965500Y29503500D01*
X15875000Y18415000D02*
X28765500Y18415000D01*
X30543500Y20193000D02*
X30543500Y27051000D01*
X42608500Y26606500D02*
X39965500Y29249500D01*
X30543500Y20193000D02*
X28765500Y18415000D01*
X65913000Y27940000D02*
X64579500Y26606500D01*
X64579500Y26606500D02*
X42608500Y26606500D01*
%TD*%
%TA.AperFunction,Conductor*%
%TO.N,GND*%
G36*
X64326992Y52821194D02*
G01*
X65521194Y51626992D01*
X65539500Y51582798D01*
X65539500Y44778541D01*
X65521194Y44734347D01*
X65477000Y44716041D01*
X65432806Y44734347D01*
X65419260Y44754619D01*
X65407867Y44782125D01*
X65303408Y44938458D01*
X65170458Y45071408D01*
X65014125Y45175867D01*
X64840417Y45247819D01*
X64656010Y45284500D01*
X64467990Y45284500D01*
X64283583Y45247819D01*
X64109875Y45175867D01*
X64109874Y45175866D01*
X64109872Y45175865D01*
X63953542Y45071408D01*
X63820591Y44938457D01*
X63716134Y44782127D01*
X63716133Y44782125D01*
X63644180Y44608416D01*
X63644180Y44608415D01*
X63607500Y44424010D01*
X63607500Y44235989D01*
X63644180Y44051584D01*
X63644180Y44051583D01*
X63716133Y43877874D01*
X63716134Y43877872D01*
X63820591Y43721542D01*
X63953542Y43588591D01*
X64109872Y43484134D01*
X64109874Y43484133D01*
X64283584Y43412180D01*
X64467989Y43375500D01*
X64467990Y43375500D01*
X64656010Y43375500D01*
X64840415Y43412180D01*
X64840416Y43412180D01*
X65014125Y43484133D01*
X65014127Y43484134D01*
X65170457Y43588591D01*
X65303408Y43721542D01*
X65407865Y43877872D01*
X65407866Y43877874D01*
X65407867Y43877875D01*
X65419258Y43905376D01*
X65453082Y43939200D01*
X65500918Y43939200D01*
X65534742Y43905376D01*
X65539500Y43881458D01*
X65539500Y42478541D01*
X65521194Y42434347D01*
X65477000Y42416041D01*
X65432806Y42434347D01*
X65419260Y42454619D01*
X65407867Y42482125D01*
X65303408Y42638458D01*
X65170458Y42771408D01*
X65014125Y42875867D01*
X64840417Y42947819D01*
X64656010Y42984500D01*
X64467990Y42984500D01*
X64283583Y42947819D01*
X64109875Y42875867D01*
X64109874Y42875866D01*
X64109872Y42875865D01*
X63953542Y42771408D01*
X63820591Y42638457D01*
X63716134Y42482127D01*
X63716133Y42482125D01*
X63644180Y42308416D01*
X63644180Y42308415D01*
X63607500Y42124010D01*
X63607500Y41935989D01*
X63644180Y41751584D01*
X63644180Y41751583D01*
X63716133Y41577874D01*
X63716134Y41577872D01*
X63820591Y41421542D01*
X63953542Y41288591D01*
X64109872Y41184134D01*
X64109874Y41184133D01*
X64283584Y41112180D01*
X64467989Y41075500D01*
X64467990Y41075500D01*
X64656010Y41075500D01*
X64840415Y41112180D01*
X64840416Y41112180D01*
X65014125Y41184133D01*
X65014127Y41184134D01*
X65170457Y41288591D01*
X65303408Y41421542D01*
X65407865Y41577872D01*
X65407866Y41577874D01*
X65407867Y41577875D01*
X65419258Y41605376D01*
X65453082Y41639200D01*
X65500918Y41639200D01*
X65534742Y41605376D01*
X65539500Y41581458D01*
X65539500Y40320109D01*
X65539501Y40320101D01*
X65573606Y40192817D01*
X65573607Y40192814D01*
X65639501Y40078684D01*
X65639504Y40078680D01*
X68061194Y37656991D01*
X68079500Y37612797D01*
X68079500Y5313202D01*
X68061194Y5269008D01*
X65732686Y2940500D01*
X65639504Y2847319D01*
X65639501Y2847315D01*
X65573607Y2733185D01*
X65573606Y2733182D01*
X65539501Y2605898D01*
X65539500Y2605890D01*
X65539500Y1003508D01*
X65539107Y996510D01*
X65527765Y895850D01*
X65524651Y882205D01*
X65492358Y789918D01*
X65486285Y777309D01*
X65434271Y694529D01*
X65425545Y683587D01*
X65356412Y614454D01*
X65345470Y605728D01*
X65262690Y553714D01*
X65250081Y547641D01*
X65157794Y515348D01*
X65144148Y512234D01*
X65056821Y502395D01*
X65043488Y500893D01*
X65036491Y500500D01*
X25760202Y500500D01*
X25716008Y518806D01*
X24691319Y1543495D01*
X24691314Y1543500D01*
X24577186Y1609392D01*
X24449892Y1643500D01*
X19496892Y1643500D01*
X19365107Y1643500D01*
X19365100Y1643498D01*
X19237817Y1609393D01*
X19237814Y1609392D01*
X19123686Y1543500D01*
X19123684Y1543498D01*
X19123680Y1543495D01*
X18098992Y518806D01*
X18054798Y500500D01*
X1003509Y500500D01*
X996512Y500893D01*
X989712Y501659D01*
X895849Y512234D01*
X882206Y515347D01*
X789914Y547642D01*
X777313Y553711D01*
X694524Y605731D01*
X683591Y614450D01*
X614450Y683591D01*
X605731Y694524D01*
X553711Y777313D01*
X547641Y789918D01*
X545582Y795802D01*
X515347Y882206D01*
X512234Y895851D01*
X500893Y996511D01*
X500500Y1003508D01*
X500500Y3072000D01*
X4365456Y3072000D01*
X6940854Y3072000D01*
X6916000Y2979244D01*
X6916000Y2860756D01*
X6940854Y2768000D01*
X4365457Y2768000D01*
X4365456Y2767999D01*
X4402726Y2532690D01*
X4402726Y2532689D01*
X4483178Y2285086D01*
X4483182Y2285078D01*
X4601374Y2053112D01*
X4754399Y1842492D01*
X4754406Y1842484D01*
X4938484Y1658406D01*
X4938492Y1658399D01*
X5149112Y1505374D01*
X5381078Y1387182D01*
X5381086Y1387178D01*
X5628689Y1306726D01*
X5885813Y1266001D01*
X5885829Y1266000D01*
X7214000Y1266000D01*
X7214000Y2494854D01*
X7306756Y2470000D01*
X7425244Y2470000D01*
X7518000Y2494854D01*
X7518000Y1266000D01*
X8846171Y1266000D01*
X8846186Y1266001D01*
X9103309Y1306726D01*
X9103310Y1306726D01*
X9350913Y1387178D01*
X9350921Y1387182D01*
X9582887Y1505374D01*
X9793507Y1658399D01*
X9793515Y1658406D01*
X9977593Y1842484D01*
X9977600Y1842492D01*
X10130625Y2053112D01*
X10248817Y2285078D01*
X10248821Y2285086D01*
X10329273Y2532689D01*
X10329273Y2532690D01*
X10349513Y2660473D01*
X12132000Y2660473D01*
X12132000Y2419526D01*
X12163448Y2180651D01*
X12163448Y2180650D01*
X12225802Y1947943D01*
X12225809Y1947925D01*
X12318008Y1725334D01*
X12318014Y1725323D01*
X12438478Y1516673D01*
X12585148Y1325527D01*
X12585157Y1325517D01*
X12755517Y1155157D01*
X12755527Y1155148D01*
X12946673Y1008478D01*
X13155323Y888014D01*
X13155334Y888008D01*
X13343222Y810183D01*
X13377927Y795808D01*
X13377928Y795807D01*
X13377943Y795802D01*
X13610651Y733448D01*
X13849526Y702000D01*
X13849531Y702000D01*
X14090473Y702000D01*
X14329348Y733448D01*
X14329349Y733448D01*
X14562056Y795802D01*
X14562067Y795806D01*
X14562073Y795808D01*
X14707288Y855958D01*
X14784665Y888008D01*
X14784676Y888014D01*
X14798249Y895850D01*
X14888019Y947679D01*
X14993326Y1008478D01*
X15184472Y1155148D01*
X15184482Y1155157D01*
X15354842Y1325517D01*
X15354847Y1325522D01*
X15501520Y1516671D01*
X15621989Y1725329D01*
X15714192Y1947927D01*
X15714194Y1947937D01*
X15714197Y1947943D01*
X15776551Y2180650D01*
X15776551Y2180651D01*
X15791526Y2294394D01*
X15808000Y2419531D01*
X15808000Y2660469D01*
X15776552Y2899345D01*
X15767297Y2933885D01*
X19541100Y2933885D01*
X19541100Y2755714D01*
X19575859Y2580968D01*
X19644043Y2416358D01*
X19644044Y2416355D01*
X19743028Y2268215D01*
X19869015Y2142228D01*
X20017155Y2043244D01*
X20017158Y2043243D01*
X20181768Y1975059D01*
X20356514Y1940300D01*
X20356515Y1940300D01*
X20534685Y1940300D01*
X20709431Y1975059D01*
X20874041Y2043243D01*
X20874044Y2043244D01*
X21022184Y2142228D01*
X21148171Y2268215D01*
X21247155Y2416355D01*
X21247156Y2416358D01*
X21247157Y2416359D01*
X21315340Y2580967D01*
X21350100Y2755715D01*
X21350100Y2933885D01*
X22541100Y2933885D01*
X22541100Y2755714D01*
X22575859Y2580968D01*
X22644043Y2416358D01*
X22644044Y2416355D01*
X22743028Y2268215D01*
X22869015Y2142228D01*
X23017155Y2043244D01*
X23017158Y2043243D01*
X23181768Y1975059D01*
X23356514Y1940300D01*
X23356515Y1940300D01*
X23534685Y1940300D01*
X23709431Y1975059D01*
X23874041Y2043243D01*
X23874044Y2043244D01*
X24022184Y2142228D01*
X24148171Y2268215D01*
X24247155Y2416355D01*
X24247156Y2416358D01*
X24247157Y2416359D01*
X24315340Y2580967D01*
X24350100Y2755715D01*
X24350100Y2933885D01*
X24315340Y3108633D01*
X24247157Y3273241D01*
X24173407Y3383616D01*
X26989500Y3383616D01*
X26989500Y1696383D01*
X27026026Y1512750D01*
X27097678Y1339768D01*
X27097679Y1339766D01*
X27201697Y1184092D01*
X27334092Y1051697D01*
X27489766Y947679D01*
X27489768Y947678D01*
X27662750Y876026D01*
X27846383Y839500D01*
X27846384Y839500D01*
X28033616Y839500D01*
X28217249Y876026D01*
X28390231Y947678D01*
X28390233Y947679D01*
X28545907Y1051697D01*
X28678302Y1184092D01*
X28782320Y1339766D01*
X28782321Y1339768D01*
X28782322Y1339769D01*
X28853973Y1512749D01*
X28890500Y1696384D01*
X28890500Y3383616D01*
X29529500Y3383616D01*
X29529500Y1696383D01*
X29566026Y1512750D01*
X29637678Y1339768D01*
X29637679Y1339766D01*
X29741697Y1184092D01*
X29874092Y1051697D01*
X30029766Y947679D01*
X30029768Y947678D01*
X30202750Y876026D01*
X30386383Y839500D01*
X30386384Y839500D01*
X30573616Y839500D01*
X30757249Y876026D01*
X30930231Y947678D01*
X30930233Y947679D01*
X31085907Y1051697D01*
X31218302Y1184092D01*
X31322320Y1339766D01*
X31322321Y1339768D01*
X31322322Y1339769D01*
X31393973Y1512749D01*
X31430500Y1696384D01*
X31430500Y3383616D01*
X32069500Y3383616D01*
X32069500Y1696383D01*
X32106026Y1512750D01*
X32177678Y1339768D01*
X32177679Y1339766D01*
X32281697Y1184092D01*
X32414092Y1051697D01*
X32569766Y947679D01*
X32569768Y947678D01*
X32742750Y876026D01*
X32926383Y839500D01*
X32926384Y839500D01*
X33113616Y839500D01*
X33297249Y876026D01*
X33470231Y947678D01*
X33470233Y947679D01*
X33625907Y1051697D01*
X33758302Y1184092D01*
X33862320Y1339766D01*
X33862321Y1339768D01*
X33862322Y1339769D01*
X33933973Y1512749D01*
X33970500Y1696384D01*
X33970500Y3383616D01*
X34609500Y3383616D01*
X34609500Y1696383D01*
X34646026Y1512750D01*
X34717678Y1339768D01*
X34717679Y1339766D01*
X34821697Y1184092D01*
X34954092Y1051697D01*
X35109766Y947679D01*
X35109768Y947678D01*
X35282750Y876026D01*
X35466383Y839500D01*
X35466384Y839500D01*
X35653616Y839500D01*
X35837249Y876026D01*
X36010231Y947678D01*
X36010233Y947679D01*
X36165907Y1051697D01*
X36298302Y1184092D01*
X36402320Y1339766D01*
X36402321Y1339768D01*
X36402322Y1339769D01*
X36473973Y1512749D01*
X36510500Y1696384D01*
X36510500Y3383616D01*
X37149500Y3383616D01*
X37149500Y1696383D01*
X37186026Y1512750D01*
X37257678Y1339768D01*
X37257679Y1339766D01*
X37361697Y1184092D01*
X37494092Y1051697D01*
X37649766Y947679D01*
X37649768Y947678D01*
X37822750Y876026D01*
X38006383Y839500D01*
X38006384Y839500D01*
X38193616Y839500D01*
X38377249Y876026D01*
X38550231Y947678D01*
X38550233Y947679D01*
X38705907Y1051697D01*
X38838302Y1184092D01*
X38942320Y1339766D01*
X38942321Y1339768D01*
X38942322Y1339769D01*
X39013973Y1512749D01*
X39050500Y1696384D01*
X39050500Y3383616D01*
X39048472Y3393810D01*
X39586000Y3393810D01*
X39586000Y2692000D01*
X40266618Y2692000D01*
X40240000Y2592661D01*
X40240000Y2487339D01*
X40266618Y2388000D01*
X39586000Y2388000D01*
X39586000Y1686189D01*
X39626503Y1482560D01*
X39626504Y1482557D01*
X39705955Y1290746D01*
X39705958Y1290742D01*
X39821304Y1118114D01*
X39968114Y971304D01*
X40140742Y855958D01*
X40140746Y855955D01*
X40332560Y776503D01*
X40487999Y745584D01*
X40488000Y745585D01*
X40488000Y2166617D01*
X40587339Y2140000D01*
X40692661Y2140000D01*
X40792000Y2166617D01*
X40792000Y745584D01*
X40947439Y776503D01*
X41139253Y855955D01*
X41139257Y855958D01*
X41311885Y971304D01*
X41458695Y1118114D01*
X41574041Y1290742D01*
X41574044Y1290746D01*
X41653495Y1482557D01*
X41653496Y1482560D01*
X41693999Y1686189D01*
X41694000Y1686190D01*
X41694000Y2388000D01*
X41013382Y2388000D01*
X41040000Y2487339D01*
X41040000Y2592661D01*
X41013382Y2692000D01*
X41694000Y2692000D01*
X41694000Y3393810D01*
X42126000Y3393810D01*
X42126000Y2692000D01*
X42806618Y2692000D01*
X42780000Y2592661D01*
X42780000Y2487339D01*
X42806618Y2388000D01*
X42126000Y2388000D01*
X42126000Y1686189D01*
X42166503Y1482560D01*
X42166504Y1482557D01*
X42245955Y1290746D01*
X42245958Y1290742D01*
X42361304Y1118114D01*
X42508114Y971304D01*
X42680742Y855958D01*
X42680746Y855955D01*
X42872560Y776503D01*
X43027999Y745584D01*
X43028000Y745585D01*
X43028000Y2166617D01*
X43127339Y2140000D01*
X43232661Y2140000D01*
X43332000Y2166617D01*
X43332000Y745584D01*
X43487439Y776503D01*
X43679253Y855955D01*
X43679257Y855958D01*
X43851885Y971304D01*
X43998695Y1118114D01*
X44114041Y1290742D01*
X44114044Y1290746D01*
X44193495Y1482557D01*
X44193496Y1482560D01*
X44233999Y1686189D01*
X44234000Y1686190D01*
X44234000Y2388000D01*
X43553382Y2388000D01*
X43580000Y2487339D01*
X43580000Y2592661D01*
X43553382Y2692000D01*
X44234000Y2692000D01*
X44234000Y3383616D01*
X44769500Y3383616D01*
X44769500Y1696383D01*
X44806026Y1512750D01*
X44877678Y1339768D01*
X44877679Y1339766D01*
X44981697Y1184092D01*
X45114092Y1051697D01*
X45269766Y947679D01*
X45269768Y947678D01*
X45442750Y876026D01*
X45626383Y839500D01*
X45626384Y839500D01*
X45813616Y839500D01*
X45997249Y876026D01*
X46170231Y947678D01*
X46170233Y947679D01*
X46325907Y1051697D01*
X46458302Y1184092D01*
X46562320Y1339766D01*
X46562321Y1339768D01*
X46562322Y1339769D01*
X46633973Y1512749D01*
X46670500Y1696384D01*
X46670500Y3383616D01*
X49849500Y3383616D01*
X49849500Y1696383D01*
X49886026Y1512750D01*
X49957678Y1339768D01*
X49957679Y1339766D01*
X50061697Y1184092D01*
X50194092Y1051697D01*
X50349766Y947679D01*
X50349768Y947678D01*
X50522750Y876026D01*
X50706383Y839500D01*
X50706384Y839500D01*
X50893616Y839500D01*
X51077249Y876026D01*
X51250231Y947678D01*
X51250233Y947679D01*
X51405907Y1051697D01*
X51538302Y1184092D01*
X51642320Y1339766D01*
X51642321Y1339768D01*
X51642322Y1339769D01*
X51713973Y1512749D01*
X51750500Y1696384D01*
X51750500Y3383616D01*
X52389500Y3383616D01*
X52389500Y1696383D01*
X52426026Y1512750D01*
X52497678Y1339768D01*
X52497679Y1339766D01*
X52601697Y1184092D01*
X52734092Y1051697D01*
X52889766Y947679D01*
X52889768Y947678D01*
X53062750Y876026D01*
X53246383Y839500D01*
X53246384Y839500D01*
X53433616Y839500D01*
X53617249Y876026D01*
X53790231Y947678D01*
X53790233Y947679D01*
X53945907Y1051697D01*
X54078302Y1184092D01*
X54182320Y1339766D01*
X54182321Y1339768D01*
X54182322Y1339769D01*
X54253973Y1512749D01*
X54290500Y1696384D01*
X54290500Y3383616D01*
X54929500Y3383616D01*
X54929500Y1696383D01*
X54966026Y1512750D01*
X55037678Y1339768D01*
X55037679Y1339766D01*
X55141697Y1184092D01*
X55274092Y1051697D01*
X55429766Y947679D01*
X55429768Y947678D01*
X55602750Y876026D01*
X55786383Y839500D01*
X55786384Y839500D01*
X55973616Y839500D01*
X56157249Y876026D01*
X56330231Y947678D01*
X56330233Y947679D01*
X56485907Y1051697D01*
X56618302Y1184092D01*
X56722320Y1339766D01*
X56722321Y1339768D01*
X56722322Y1339769D01*
X56793973Y1512749D01*
X56830500Y1696384D01*
X56830500Y3383616D01*
X57469500Y3383616D01*
X57469500Y1696383D01*
X57506026Y1512750D01*
X57577678Y1339768D01*
X57577679Y1339766D01*
X57681697Y1184092D01*
X57814092Y1051697D01*
X57969766Y947679D01*
X57969768Y947678D01*
X58142750Y876026D01*
X58326383Y839500D01*
X58326384Y839500D01*
X58513616Y839500D01*
X58697249Y876026D01*
X58870231Y947678D01*
X58870233Y947679D01*
X59025907Y1051697D01*
X59158302Y1184092D01*
X59262320Y1339766D01*
X59262321Y1339768D01*
X59262322Y1339769D01*
X59333973Y1512749D01*
X59370500Y1696384D01*
X59370500Y3383616D01*
X59333973Y3567251D01*
X59262322Y3740231D01*
X59158302Y3895908D01*
X59025908Y4028302D01*
X58870231Y4132322D01*
X58697251Y4203973D01*
X58513616Y4240500D01*
X58326384Y4240500D01*
X58142749Y4203973D01*
X57969769Y4132322D01*
X57969768Y4132321D01*
X57969766Y4132320D01*
X57814092Y4028302D01*
X57681697Y3895907D01*
X57577679Y3740233D01*
X57577678Y3740231D01*
X57506026Y3567249D01*
X57469500Y3383616D01*
X56830500Y3383616D01*
X56793973Y3567251D01*
X56722322Y3740231D01*
X56618302Y3895908D01*
X56485908Y4028302D01*
X56330231Y4132322D01*
X56157251Y4203973D01*
X55973616Y4240500D01*
X55786384Y4240500D01*
X55602749Y4203973D01*
X55429769Y4132322D01*
X55429768Y4132321D01*
X55429766Y4132320D01*
X55274092Y4028302D01*
X55141697Y3895907D01*
X55037679Y3740233D01*
X55037678Y3740231D01*
X54966026Y3567249D01*
X54929500Y3383616D01*
X54290500Y3383616D01*
X54253973Y3567251D01*
X54182322Y3740231D01*
X54078302Y3895908D01*
X53945908Y4028302D01*
X53790231Y4132322D01*
X53617251Y4203973D01*
X53433616Y4240500D01*
X53246384Y4240500D01*
X53062749Y4203973D01*
X52889769Y4132322D01*
X52889768Y4132321D01*
X52889766Y4132320D01*
X52734092Y4028302D01*
X52601697Y3895907D01*
X52497679Y3740233D01*
X52497678Y3740231D01*
X52426026Y3567249D01*
X52389500Y3383616D01*
X51750500Y3383616D01*
X51713973Y3567251D01*
X51642322Y3740231D01*
X51538302Y3895908D01*
X51405908Y4028302D01*
X51250231Y4132322D01*
X51077251Y4203973D01*
X50893616Y4240500D01*
X50706384Y4240500D01*
X50522749Y4203973D01*
X50349769Y4132322D01*
X50349768Y4132321D01*
X50349766Y4132320D01*
X50194092Y4028302D01*
X50061697Y3895907D01*
X49957679Y3740233D01*
X49957678Y3740231D01*
X49886026Y3567249D01*
X49849500Y3383616D01*
X46670500Y3383616D01*
X46633973Y3567251D01*
X46562322Y3740231D01*
X46458302Y3895908D01*
X46325908Y4028302D01*
X46170231Y4132322D01*
X45997251Y4203973D01*
X45813616Y4240500D01*
X45626384Y4240500D01*
X45442749Y4203973D01*
X45269769Y4132322D01*
X45269768Y4132321D01*
X45269766Y4132320D01*
X45114092Y4028302D01*
X44981697Y3895907D01*
X44877679Y3740233D01*
X44877678Y3740231D01*
X44806026Y3567249D01*
X44769500Y3383616D01*
X44234000Y3383616D01*
X44234000Y3393810D01*
X44193496Y3597439D01*
X44193495Y3597442D01*
X44114044Y3789253D01*
X44114041Y3789257D01*
X43998695Y3961885D01*
X43851885Y4108695D01*
X43679257Y4224041D01*
X43679253Y4224044D01*
X43487442Y4303495D01*
X43487439Y4303496D01*
X43332000Y4334414D01*
X43332000Y2913382D01*
X43232661Y2940000D01*
X43127339Y2940000D01*
X43028000Y2913382D01*
X43028000Y4334414D01*
X43027999Y4334414D01*
X42872560Y4303496D01*
X42872557Y4303495D01*
X42680746Y4224044D01*
X42680742Y4224041D01*
X42508114Y4108695D01*
X42361304Y3961885D01*
X42245958Y3789257D01*
X42245955Y3789253D01*
X42166504Y3597442D01*
X42166503Y3597439D01*
X42126000Y3393810D01*
X41694000Y3393810D01*
X41653496Y3597439D01*
X41653495Y3597442D01*
X41574044Y3789253D01*
X41574041Y3789257D01*
X41458695Y3961885D01*
X41311885Y4108695D01*
X41139257Y4224041D01*
X41139253Y4224044D01*
X40947442Y4303495D01*
X40947439Y4303496D01*
X40792000Y4334414D01*
X40792000Y2913382D01*
X40692661Y2940000D01*
X40587339Y2940000D01*
X40488000Y2913382D01*
X40488000Y4334414D01*
X40487999Y4334414D01*
X40332560Y4303496D01*
X40332557Y4303495D01*
X40140746Y4224044D01*
X40140742Y4224041D01*
X39968114Y4108695D01*
X39821304Y3961885D01*
X39705958Y3789257D01*
X39705955Y3789253D01*
X39626504Y3597442D01*
X39626503Y3597439D01*
X39586000Y3393810D01*
X39048472Y3393810D01*
X39013973Y3567251D01*
X38942322Y3740231D01*
X38838302Y3895908D01*
X38705908Y4028302D01*
X38550231Y4132322D01*
X38377251Y4203973D01*
X38193616Y4240500D01*
X38006384Y4240500D01*
X37822749Y4203973D01*
X37649769Y4132322D01*
X37649768Y4132321D01*
X37649766Y4132320D01*
X37494092Y4028302D01*
X37361697Y3895907D01*
X37257679Y3740233D01*
X37257678Y3740231D01*
X37186026Y3567249D01*
X37149500Y3383616D01*
X36510500Y3383616D01*
X36473973Y3567251D01*
X36402322Y3740231D01*
X36298302Y3895908D01*
X36165908Y4028302D01*
X36010231Y4132322D01*
X35837251Y4203973D01*
X35653616Y4240500D01*
X35466384Y4240500D01*
X35282749Y4203973D01*
X35109769Y4132322D01*
X35109768Y4132321D01*
X35109766Y4132320D01*
X34954092Y4028302D01*
X34821697Y3895907D01*
X34717679Y3740233D01*
X34717678Y3740231D01*
X34646026Y3567249D01*
X34609500Y3383616D01*
X33970500Y3383616D01*
X33933973Y3567251D01*
X33862322Y3740231D01*
X33758302Y3895908D01*
X33625908Y4028302D01*
X33470231Y4132322D01*
X33409091Y4157646D01*
X33375268Y4191469D01*
X33375267Y4239305D01*
X33388816Y4259582D01*
X33698328Y4569094D01*
X33742522Y4587400D01*
X47410771Y4587400D01*
X47410772Y4587400D01*
X47410773Y4587400D01*
X47410778Y4587401D01*
X47487606Y4607986D01*
X47487608Y4607987D01*
X47556493Y4647759D01*
X47556499Y4647764D01*
X51285111Y8376377D01*
X54434193Y8376377D01*
X54434193Y8249322D01*
X54458979Y8124711D01*
X54458979Y8124710D01*
X54507601Y8007327D01*
X54507602Y8007325D01*
X54578188Y7901686D01*
X54668029Y7811845D01*
X54773668Y7741259D01*
X54773670Y7741258D01*
X54891054Y7692636D01*
X55015665Y7667850D01*
X55015666Y7667850D01*
X55142720Y7667850D01*
X55267331Y7692636D01*
X55267332Y7692636D01*
X55384715Y7741258D01*
X55384717Y7741259D01*
X55490356Y7811845D01*
X55580194Y7901683D01*
X55580197Y7901686D01*
X55634512Y7982974D01*
X55674286Y8009549D01*
X55686479Y8010750D01*
X55944171Y8010750D01*
X55988365Y7992444D01*
X60130634Y3850173D01*
X60148940Y3805979D01*
X60138408Y3771257D01*
X60117678Y3740232D01*
X60117678Y3740231D01*
X60046026Y3567249D01*
X60009500Y3383616D01*
X60009500Y1696383D01*
X60046026Y1512750D01*
X60117678Y1339768D01*
X60117679Y1339766D01*
X60221697Y1184092D01*
X60354092Y1051697D01*
X60509766Y947679D01*
X60509768Y947678D01*
X60682750Y876026D01*
X60866383Y839500D01*
X60866384Y839500D01*
X61053616Y839500D01*
X61237249Y876026D01*
X61410231Y947678D01*
X61410233Y947679D01*
X61565907Y1051697D01*
X61698302Y1184092D01*
X61802320Y1339766D01*
X61802321Y1339768D01*
X61802322Y1339769D01*
X61873973Y1512749D01*
X61910500Y1696384D01*
X61910500Y3383616D01*
X61873973Y3567251D01*
X61802322Y3740231D01*
X61698302Y3895908D01*
X61565908Y4028302D01*
X61410231Y4132322D01*
X61237251Y4203973D01*
X61053616Y4240500D01*
X60866384Y4240500D01*
X60682749Y4203973D01*
X60682742Y4203970D01*
X60679804Y4203080D01*
X60679250Y4204904D01*
X60637180Y4204860D01*
X60616844Y4218431D01*
X56280687Y8554590D01*
X56211800Y8594363D01*
X56134965Y8614950D01*
X56134964Y8614950D01*
X55686479Y8614950D01*
X55642285Y8633256D01*
X55634512Y8642726D01*
X55634109Y8643329D01*
X55580197Y8724014D01*
X55490357Y8813854D01*
X55384715Y8884442D01*
X55267333Y8933063D01*
X55142720Y8957850D01*
X55015666Y8957850D01*
X54891053Y8933063D01*
X54773671Y8884442D01*
X54773670Y8884441D01*
X54773668Y8884440D01*
X54668029Y8813854D01*
X54578188Y8724013D01*
X54507602Y8618374D01*
X54507601Y8618372D01*
X54458979Y8500989D01*
X54458979Y8500988D01*
X54434193Y8376377D01*
X51285111Y8376377D01*
X51332375Y8423641D01*
X52235201Y9326467D01*
X52279395Y9344773D01*
X52291588Y9343572D01*
X52387472Y9324500D01*
X52387473Y9324500D01*
X52514527Y9324500D01*
X52639138Y9349286D01*
X52639139Y9349286D01*
X52756522Y9397908D01*
X52756524Y9397909D01*
X52862163Y9468495D01*
X52952004Y9558336D01*
X53022590Y9663975D01*
X53022591Y9663977D01*
X53022592Y9663978D01*
X53071213Y9781360D01*
X53096000Y9905973D01*
X53096000Y10033027D01*
X53076927Y10128912D01*
X53078175Y10135189D01*
X53075726Y10141104D01*
X53075962Y10141673D01*
X55534146Y10141673D01*
X55534146Y10014618D01*
X55558932Y9890007D01*
X55558932Y9890006D01*
X55607554Y9772623D01*
X55607555Y9772621D01*
X55678141Y9666982D01*
X55767982Y9577141D01*
X55873621Y9506555D01*
X55873623Y9506554D01*
X55991007Y9457932D01*
X56115618Y9433146D01*
X56115619Y9433146D01*
X56242673Y9433146D01*
X56367286Y9457933D01*
X56421927Y9480565D01*
X56469763Y9480565D01*
X56490039Y9467017D01*
X62531194Y3425863D01*
X62549500Y3381669D01*
X62549500Y1696383D01*
X62586026Y1512750D01*
X62657678Y1339768D01*
X62657679Y1339766D01*
X62761697Y1184092D01*
X62894092Y1051697D01*
X63049766Y947679D01*
X63049768Y947678D01*
X63222750Y876026D01*
X63406383Y839500D01*
X63406384Y839500D01*
X63593616Y839500D01*
X63777249Y876026D01*
X63950231Y947678D01*
X63950233Y947679D01*
X64105907Y1051697D01*
X64238302Y1184092D01*
X64342320Y1339766D01*
X64342321Y1339768D01*
X64342322Y1339769D01*
X64413973Y1512749D01*
X64450500Y1696384D01*
X64450500Y3383616D01*
X64413973Y3567251D01*
X64342322Y3740231D01*
X64238302Y3895908D01*
X64105908Y4028302D01*
X63950231Y4132322D01*
X63777251Y4203973D01*
X63593616Y4240500D01*
X63406384Y4240500D01*
X63222749Y4203973D01*
X63049769Y4132322D01*
X63049768Y4132321D01*
X63049766Y4132320D01*
X62894092Y4028302D01*
X62882851Y4017061D01*
X62838657Y3998755D01*
X62794466Y4017059D01*
X59071051Y7740473D01*
X64202000Y7740473D01*
X64202000Y7499526D01*
X64233448Y7260651D01*
X64233448Y7260650D01*
X64295802Y7027943D01*
X64295809Y7027925D01*
X64388008Y6805334D01*
X64388014Y6805323D01*
X64508478Y6596673D01*
X64655148Y6405527D01*
X64655157Y6405517D01*
X64825517Y6235157D01*
X64825527Y6235148D01*
X65016673Y6088478D01*
X65225323Y5968014D01*
X65225334Y5968008D01*
X65372806Y5906924D01*
X65447927Y5875808D01*
X65447928Y5875807D01*
X65447943Y5875802D01*
X65680651Y5813448D01*
X65919526Y5782000D01*
X65919531Y5782000D01*
X66160473Y5782000D01*
X66399348Y5813448D01*
X66399349Y5813448D01*
X66632056Y5875802D01*
X66632067Y5875806D01*
X66632073Y5875808D01*
X66750556Y5924885D01*
X66854665Y5968008D01*
X66854676Y5968014D01*
X67063326Y6088478D01*
X67254472Y6235148D01*
X67254482Y6235157D01*
X67424842Y6405517D01*
X67424847Y6405522D01*
X67571520Y6596671D01*
X67691989Y6805329D01*
X67784192Y7027927D01*
X67784194Y7027937D01*
X67784197Y7027943D01*
X67846551Y7260650D01*
X67846551Y7260651D01*
X67877137Y7492972D01*
X67878000Y7499531D01*
X67878000Y7740469D01*
X67846552Y7979345D01*
X67820796Y8075467D01*
X67784197Y8212056D01*
X67784195Y8212059D01*
X67784192Y8212073D01*
X67691989Y8434671D01*
X67571520Y8643329D01*
X67424847Y8834478D01*
X67254478Y9004847D01*
X67063329Y9151520D01*
X66854671Y9271989D01*
X66632073Y9364192D01*
X66632059Y9364195D01*
X66632056Y9364197D01*
X66470560Y9407469D01*
X66399345Y9426552D01*
X66160469Y9458000D01*
X65919531Y9458000D01*
X65680655Y9426552D01*
X65680651Y9426551D01*
X65680650Y9426551D01*
X65447943Y9364197D01*
X65447937Y9364194D01*
X65447927Y9364192D01*
X65225329Y9271989D01*
X65016671Y9151520D01*
X64963425Y9110663D01*
X64825753Y9005024D01*
X64825522Y9004847D01*
X64825517Y9004842D01*
X64655157Y8834482D01*
X64655148Y8834472D01*
X64508478Y8643326D01*
X64388014Y8434676D01*
X64388008Y8434665D01*
X64383442Y8423641D01*
X64295808Y8212073D01*
X64295806Y8212067D01*
X64295802Y8212056D01*
X64233448Y7979349D01*
X64233448Y7979348D01*
X64202000Y7740473D01*
X59071051Y7740473D01*
X56842451Y9969073D01*
X56824146Y10013267D01*
X56824146Y10141673D01*
X56799359Y10266284D01*
X56799359Y10266285D01*
X56795740Y10275022D01*
X56750738Y10383668D01*
X56680150Y10489310D01*
X56590310Y10579150D01*
X56484668Y10649738D01*
X56367286Y10698359D01*
X56242673Y10723146D01*
X56115619Y10723146D01*
X55991006Y10698359D01*
X55873624Y10649738D01*
X55873623Y10649737D01*
X55873621Y10649736D01*
X55767982Y10579150D01*
X55678141Y10489309D01*
X55607555Y10383670D01*
X55607554Y10383668D01*
X55558932Y10266285D01*
X55558932Y10266284D01*
X55534146Y10141673D01*
X53075962Y10141673D01*
X53082702Y10157946D01*
X53086259Y10175827D01*
X53094032Y10185298D01*
X54081828Y11173094D01*
X54126022Y11191400D01*
X65127271Y11191400D01*
X65127272Y11191400D01*
X65127273Y11191400D01*
X65127278Y11191401D01*
X65204106Y11211986D01*
X65204108Y11211987D01*
X65272993Y11251759D01*
X65272999Y11251764D01*
X66726235Y12705000D01*
X66726242Y12705009D01*
X66761898Y12766766D01*
X66761899Y12766768D01*
X66766013Y12773894D01*
X66786598Y12850721D01*
X66786600Y12850729D01*
X66786600Y22328270D01*
X66786598Y22328278D01*
X66766014Y22405102D01*
X66766013Y22405106D01*
X66726240Y22473994D01*
X66669994Y22530240D01*
X64359355Y24840877D01*
X64341050Y24885070D01*
X64347862Y24913445D01*
X64382677Y24981773D01*
X64382678Y24981775D01*
X64390792Y25006747D01*
X64435673Y25144875D01*
X64462500Y25314254D01*
X64462500Y25485746D01*
X64452006Y25552000D01*
X64729203Y25552000D01*
X65487854Y25552000D01*
X65463000Y25459244D01*
X65463000Y25340756D01*
X65487854Y25248000D01*
X64729204Y25248000D01*
X64729203Y25247999D01*
X64749375Y25120641D01*
X64749375Y25120640D01*
X64807403Y24942048D01*
X64807407Y24942040D01*
X64892656Y24774729D01*
X65003030Y24622813D01*
X65003037Y24622805D01*
X65135805Y24490037D01*
X65135813Y24490030D01*
X65287729Y24379656D01*
X65455040Y24294407D01*
X65455048Y24294403D01*
X65633640Y24236375D01*
X65633639Y24236375D01*
X65760999Y24216202D01*
X65761000Y24216202D01*
X65761000Y24974854D01*
X65853756Y24950000D01*
X65972244Y24950000D01*
X66065000Y24974854D01*
X66065000Y24216202D01*
X66192360Y24236375D01*
X66370951Y24294403D01*
X66370959Y24294407D01*
X66538270Y24379656D01*
X66690186Y24490030D01*
X66690194Y24490037D01*
X66822962Y24622805D01*
X66822969Y24622813D01*
X66933343Y24774729D01*
X67018592Y24942040D01*
X67018596Y24942048D01*
X67076624Y25120640D01*
X67076624Y25120641D01*
X67096796Y25247999D01*
X67096796Y25248000D01*
X66338146Y25248000D01*
X66363000Y25340756D01*
X66363000Y25459244D01*
X66338146Y25552000D01*
X67096796Y25552000D01*
X67076624Y25679358D01*
X67076624Y25679359D01*
X67018596Y25857951D01*
X67018592Y25857959D01*
X66933343Y26025270D01*
X66822969Y26177186D01*
X66822962Y26177194D01*
X66690194Y26309962D01*
X66690186Y26309969D01*
X66538270Y26420343D01*
X66370959Y26505592D01*
X66370951Y26505596D01*
X66192359Y26563624D01*
X66065000Y26583796D01*
X66065000Y25825145D01*
X65972244Y25850000D01*
X65853756Y25850000D01*
X65761000Y25825145D01*
X65761000Y26583796D01*
X65760999Y26583796D01*
X65633641Y26563624D01*
X65633640Y26563624D01*
X65455048Y26505596D01*
X65455040Y26505592D01*
X65287729Y26420343D01*
X65135813Y26309969D01*
X65135805Y26309962D01*
X65003037Y26177194D01*
X65003030Y26177186D01*
X64892656Y26025270D01*
X64807407Y25857959D01*
X64807403Y25857951D01*
X64749375Y25679359D01*
X64749375Y25679358D01*
X64729203Y25552000D01*
X64452006Y25552000D01*
X64435673Y25655125D01*
X64382679Y25818223D01*
X64304824Y25971022D01*
X64204024Y26109762D01*
X64171409Y26142377D01*
X64116081Y26197706D01*
X64097775Y26241900D01*
X64116081Y26286094D01*
X64160275Y26304400D01*
X64619271Y26304400D01*
X64619272Y26304400D01*
X64619273Y26304400D01*
X64619278Y26304401D01*
X64696106Y26324986D01*
X64696108Y26324987D01*
X64764993Y26364759D01*
X64764999Y26364764D01*
X65353877Y26953643D01*
X65398071Y26971949D01*
X65426445Y26965137D01*
X65494770Y26930324D01*
X65494778Y26930320D01*
X65657876Y26877326D01*
X65827240Y26850501D01*
X65827252Y26850500D01*
X65827254Y26850500D01*
X65827256Y26850500D01*
X65998744Y26850500D01*
X65998746Y26850500D01*
X65998747Y26850500D01*
X65998759Y26850501D01*
X66168122Y26877326D01*
X66168123Y26877326D01*
X66331221Y26930320D01*
X66331224Y26930321D01*
X66484022Y27008176D01*
X66502587Y27021664D01*
X66622762Y27108976D01*
X66622765Y27108979D01*
X66622769Y27108982D01*
X66744017Y27230230D01*
X66744019Y27230233D01*
X66744024Y27230238D01*
X66844824Y27368978D01*
X66922679Y27521777D01*
X66975673Y27684875D01*
X67002500Y27854254D01*
X67002500Y28025746D01*
X66975673Y28195125D01*
X66922679Y28358223D01*
X66844824Y28511022D01*
X66744024Y28649762D01*
X66622762Y28771024D01*
X66484022Y28871824D01*
X66331223Y28949679D01*
X66168125Y29002673D01*
X65998746Y29029500D01*
X65827254Y29029500D01*
X65827246Y29029498D01*
X65827240Y29029498D01*
X65758314Y29018581D01*
X65657875Y29002673D01*
X65494777Y28949679D01*
X65341978Y28871824D01*
X65203238Y28771024D01*
X65203233Y28771019D01*
X65203230Y28771017D01*
X65081982Y28649769D01*
X65081979Y28649765D01*
X65081976Y28649762D01*
X65007387Y28547098D01*
X64981176Y28511022D01*
X64903321Y28358224D01*
X64903320Y28358221D01*
X64850326Y28195123D01*
X64850326Y28195122D01*
X64823501Y28025759D01*
X64823500Y28025743D01*
X64823500Y27854256D01*
X64823501Y27854240D01*
X64850326Y27684877D01*
X64850326Y27684876D01*
X64903320Y27521778D01*
X64903324Y27521770D01*
X64938137Y27453445D01*
X64941890Y27405757D01*
X64926643Y27380877D01*
X64472672Y26926906D01*
X64428478Y26908600D01*
X63999323Y26908600D01*
X63955129Y26926906D01*
X63936823Y26971100D01*
X63955129Y27015294D01*
X63962581Y27021660D01*
X64082762Y27108976D01*
X64082765Y27108979D01*
X64082769Y27108982D01*
X64204017Y27230230D01*
X64204019Y27230233D01*
X64204024Y27230238D01*
X64304824Y27368978D01*
X64382679Y27521777D01*
X64435673Y27684875D01*
X64462500Y27854254D01*
X64462500Y28025746D01*
X64435673Y28195125D01*
X64382679Y28358223D01*
X64304824Y28511022D01*
X64204024Y28649762D01*
X64082762Y28771024D01*
X63944022Y28871824D01*
X63791223Y28949679D01*
X63628125Y29002673D01*
X63458746Y29029500D01*
X63287254Y29029500D01*
X63287246Y29029498D01*
X63287240Y29029498D01*
X63218314Y29018581D01*
X63117875Y29002673D01*
X62954777Y28949679D01*
X62801978Y28871824D01*
X62663238Y28771024D01*
X62663233Y28771019D01*
X62663230Y28771017D01*
X62541982Y28649769D01*
X62541979Y28649765D01*
X62541976Y28649762D01*
X62467387Y28547098D01*
X62441176Y28511022D01*
X62363321Y28358224D01*
X62363320Y28358221D01*
X62339622Y28285286D01*
X62308555Y28248912D01*
X62280181Y28242100D01*
X61713222Y28242100D01*
X61669028Y28260406D01*
X61650722Y28304600D01*
X61669028Y28348794D01*
X62813877Y29493643D01*
X62858071Y29511949D01*
X62886445Y29505137D01*
X62954770Y29470324D01*
X62954778Y29470320D01*
X63117876Y29417326D01*
X63287240Y29390501D01*
X63287252Y29390500D01*
X63287254Y29390500D01*
X63287256Y29390500D01*
X63458744Y29390500D01*
X63458746Y29390500D01*
X63458747Y29390500D01*
X63458759Y29390501D01*
X63628122Y29417326D01*
X63628123Y29417326D01*
X63791221Y29470320D01*
X63791224Y29470321D01*
X63944022Y29548176D01*
X64031575Y29611787D01*
X64082762Y29648976D01*
X64082765Y29648979D01*
X64082769Y29648982D01*
X64204017Y29770230D01*
X64204019Y29770233D01*
X64204024Y29770238D01*
X64304824Y29908978D01*
X64382679Y30061777D01*
X64435673Y30224875D01*
X64462500Y30394254D01*
X64462500Y30565743D01*
X64823500Y30565743D01*
X64823500Y30394256D01*
X64823501Y30394240D01*
X64850326Y30224877D01*
X64850326Y30224876D01*
X64903320Y30061778D01*
X64903321Y30061775D01*
X64981176Y29908977D01*
X65081982Y29770230D01*
X65203230Y29648982D01*
X65203237Y29648976D01*
X65203238Y29648976D01*
X65231714Y29628286D01*
X65341977Y29548176D01*
X65494775Y29470321D01*
X65494778Y29470320D01*
X65657876Y29417326D01*
X65827240Y29390501D01*
X65827252Y29390500D01*
X65827254Y29390500D01*
X65827256Y29390500D01*
X65998744Y29390500D01*
X65998746Y29390500D01*
X65998747Y29390500D01*
X65998759Y29390501D01*
X66168122Y29417326D01*
X66168123Y29417326D01*
X66331221Y29470320D01*
X66331224Y29470321D01*
X66484022Y29548176D01*
X66571575Y29611787D01*
X66622762Y29648976D01*
X66622765Y29648979D01*
X66622769Y29648982D01*
X66744017Y29770230D01*
X66744019Y29770233D01*
X66744024Y29770238D01*
X66844824Y29908978D01*
X66922679Y30061777D01*
X66975673Y30224875D01*
X67002500Y30394254D01*
X67002500Y30565746D01*
X66975673Y30735125D01*
X66922679Y30898223D01*
X66844824Y31051022D01*
X66744024Y31189762D01*
X66622762Y31311024D01*
X66484022Y31411824D01*
X66331223Y31489679D01*
X66168125Y31542673D01*
X65998746Y31569500D01*
X65827254Y31569500D01*
X65827246Y31569498D01*
X65827240Y31569498D01*
X65758314Y31558581D01*
X65657875Y31542673D01*
X65494777Y31489679D01*
X65341978Y31411824D01*
X65203238Y31311024D01*
X65203233Y31311019D01*
X65203230Y31311017D01*
X65081982Y31189769D01*
X65081979Y31189765D01*
X65081976Y31189762D01*
X65007243Y31086900D01*
X64981176Y31051022D01*
X64903321Y30898224D01*
X64903320Y30898221D01*
X64850326Y30735123D01*
X64850326Y30735122D01*
X64823501Y30565759D01*
X64823500Y30565743D01*
X64462500Y30565743D01*
X64462500Y30565746D01*
X64435673Y30735125D01*
X64382679Y30898223D01*
X64304824Y31051022D01*
X64204024Y31189762D01*
X64082762Y31311024D01*
X63944022Y31411824D01*
X63791223Y31489679D01*
X63628125Y31542673D01*
X63458746Y31569500D01*
X63287254Y31569500D01*
X63287246Y31569498D01*
X63287240Y31569498D01*
X63218314Y31558581D01*
X63117875Y31542673D01*
X62954777Y31489679D01*
X62801978Y31411824D01*
X62663238Y31311024D01*
X62663233Y31311019D01*
X62663230Y31311017D01*
X62541982Y31189769D01*
X62541979Y31189765D01*
X62541976Y31189762D01*
X62467243Y31086900D01*
X62441176Y31051022D01*
X62363321Y30898224D01*
X62363320Y30898221D01*
X62310326Y30735123D01*
X62310326Y30735122D01*
X62283501Y30565759D01*
X62283500Y30565743D01*
X62283500Y30394256D01*
X62283501Y30394240D01*
X62310326Y30224877D01*
X62310326Y30224876D01*
X62363320Y30061778D01*
X62363324Y30061770D01*
X62398137Y29993445D01*
X62401890Y29945757D01*
X62386643Y29920877D01*
X61107172Y28641406D01*
X61062978Y28623100D01*
X43394522Y28623100D01*
X43350328Y28641406D01*
X40549977Y31441753D01*
X40549972Y31441758D01*
X40481085Y31481531D01*
X40404250Y31502118D01*
X38504685Y31502119D01*
X38504683Y31502121D01*
X38478798Y31502121D01*
X38399254Y31502122D01*
X38399250Y31502121D01*
X38399249Y31502121D01*
X38376302Y31495972D01*
X38322419Y31481534D01*
X38253532Y31441762D01*
X37630156Y30818390D01*
X37593413Y30781647D01*
X37573910Y30762144D01*
X37573907Y30762140D01*
X37554367Y30728296D01*
X37524157Y30701803D01*
X37510132Y30695994D01*
X37510126Y30695991D01*
X37404486Y30625404D01*
X37314645Y30535563D01*
X37244059Y30429924D01*
X37244058Y30429922D01*
X37195436Y30312539D01*
X37195436Y30312538D01*
X37172002Y30194725D01*
X37145426Y30154951D01*
X37098510Y30145619D01*
X37066509Y30162724D01*
X36936585Y30292648D01*
X36705905Y30523328D01*
X36687600Y30567521D01*
X36687600Y30935242D01*
X36705906Y30979436D01*
X36715376Y30987209D01*
X36727166Y30995086D01*
X36822064Y31058496D01*
X36911904Y31148336D01*
X36982492Y31253978D01*
X37031113Y31371360D01*
X37055900Y31495973D01*
X37055900Y31623027D01*
X37031113Y31747640D01*
X36982492Y31865022D01*
X36911904Y31970664D01*
X36822064Y32060504D01*
X36716422Y32131092D01*
X36599040Y32179713D01*
X36474427Y32204500D01*
X36347373Y32204500D01*
X36222760Y32179713D01*
X36105378Y32131092D01*
X36105377Y32131091D01*
X36105375Y32131090D01*
X35999736Y32060504D01*
X35909895Y31970663D01*
X35839309Y31865024D01*
X35839308Y31865022D01*
X35822188Y31823691D01*
X35788363Y31789866D01*
X35740528Y31789867D01*
X35720255Y31803412D01*
X35653664Y31870004D01*
X35548022Y31940592D01*
X35430640Y31989213D01*
X35306027Y32014000D01*
X35178973Y32014000D01*
X35054360Y31989213D01*
X34936978Y31940592D01*
X34936977Y31940591D01*
X34936975Y31940590D01*
X34831336Y31870004D01*
X34741495Y31780163D01*
X34670909Y31674524D01*
X34670908Y31674522D01*
X34622286Y31557139D01*
X34622286Y31557138D01*
X34597500Y31432527D01*
X34597500Y31305472D01*
X34622286Y31180861D01*
X34622286Y31180860D01*
X34670908Y31063477D01*
X34670909Y31063475D01*
X34741495Y30957836D01*
X34831336Y30867995D01*
X34936975Y30797409D01*
X34936977Y30797408D01*
X35054361Y30748786D01*
X35178972Y30724000D01*
X35178973Y30724000D01*
X35306027Y30724000D01*
X35401910Y30743072D01*
X35448826Y30733740D01*
X35458297Y30725968D01*
X35493594Y30690672D01*
X35511900Y30646478D01*
X35511900Y30313229D01*
X35511901Y30313221D01*
X35532486Y30236393D01*
X35532487Y30236391D01*
X35572259Y30167506D01*
X35572264Y30167500D01*
X48686660Y17053106D01*
X48714783Y17024983D01*
X48742905Y16996860D01*
X48742909Y16996857D01*
X48811788Y16957089D01*
X48811797Y16957085D01*
X48888621Y16936501D01*
X48888627Y16936500D01*
X48888628Y16936500D01*
X49714440Y16936500D01*
X49758634Y16918194D01*
X49776940Y16874000D01*
X49766407Y16839278D01*
X49763637Y16835133D01*
X49763633Y16835125D01*
X49691680Y16661416D01*
X49691680Y16661415D01*
X49655000Y16477010D01*
X49655000Y16288989D01*
X49691680Y16104584D01*
X49691680Y16104583D01*
X49763633Y15930874D01*
X49763634Y15930872D01*
X49868091Y15774542D01*
X50001042Y15641591D01*
X50157372Y15537134D01*
X50157374Y15537133D01*
X50331084Y15465180D01*
X50515489Y15428500D01*
X50515490Y15428500D01*
X50703510Y15428500D01*
X50887915Y15465180D01*
X50887916Y15465180D01*
X51061625Y15537133D01*
X51061627Y15537134D01*
X51217957Y15641591D01*
X51350908Y15774542D01*
X51455365Y15930872D01*
X51455366Y15930874D01*
X51455367Y15930875D01*
X51527319Y16104583D01*
X51564000Y16288990D01*
X51564000Y16441383D01*
X51582306Y16485577D01*
X51626500Y16503883D01*
X51670694Y16485577D01*
X53221506Y14934764D01*
X53221512Y14934759D01*
X53290397Y14894987D01*
X53290399Y14894986D01*
X53367227Y14874401D01*
X53367233Y14874400D01*
X53367234Y14874400D01*
X53446778Y14874400D01*
X54193214Y14874400D01*
X54237408Y14856094D01*
X54245181Y14846624D01*
X54299498Y14765333D01*
X54389336Y14675495D01*
X54422604Y14653267D01*
X54449180Y14613493D01*
X54439848Y14566577D01*
X54400074Y14540001D01*
X54387881Y14538800D01*
X46145691Y14538800D01*
X46101497Y14557106D01*
X46075512Y14583089D01*
X45868895Y14789705D01*
X45851792Y14821702D01*
X45832213Y14920140D01*
X45783592Y15037522D01*
X45713004Y15143164D01*
X45623164Y15233004D01*
X45517522Y15303592D01*
X45400140Y15352213D01*
X45275527Y15377000D01*
X45148473Y15377000D01*
X45023860Y15352213D01*
X44906478Y15303592D01*
X44906477Y15303591D01*
X44906475Y15303590D01*
X44800836Y15233004D01*
X44710995Y15143163D01*
X44640409Y15037524D01*
X44640408Y15037522D01*
X44591786Y14920139D01*
X44591786Y14920138D01*
X44567000Y14795527D01*
X44567000Y14668472D01*
X44591786Y14543861D01*
X44591786Y14543860D01*
X44640408Y14426477D01*
X44640409Y14426475D01*
X44710995Y14320836D01*
X44800836Y14230995D01*
X44906475Y14160409D01*
X44906477Y14160408D01*
X45023860Y14111786D01*
X45122295Y14092206D01*
X45154295Y14075101D01*
X45600237Y13629159D01*
X45715462Y13562635D01*
X45742619Y13555358D01*
X45742618Y13555357D01*
X45843969Y13528201D01*
X45843975Y13528200D01*
X45843976Y13528200D01*
X45843977Y13528200D01*
X50114968Y13528200D01*
X50159162Y13509894D01*
X50177468Y13465700D01*
X50159162Y13421506D01*
X50149691Y13413733D01*
X50001042Y13314408D01*
X49868091Y13181457D01*
X49763634Y13025127D01*
X49763633Y13025125D01*
X49691680Y12851416D01*
X49691680Y12851415D01*
X49655000Y12667010D01*
X49655000Y12478989D01*
X49691680Y12294584D01*
X49691680Y12294583D01*
X49763633Y12120874D01*
X49763634Y12120872D01*
X49868091Y11964542D01*
X50001042Y11831591D01*
X50157372Y11727134D01*
X50157374Y11727133D01*
X50331084Y11655180D01*
X50515489Y11618500D01*
X50515490Y11618500D01*
X50703510Y11618500D01*
X50887915Y11655180D01*
X50887916Y11655180D01*
X51061625Y11727133D01*
X51061627Y11727134D01*
X51217957Y11831591D01*
X51350908Y11964542D01*
X51455365Y12120872D01*
X51455366Y12120874D01*
X51455367Y12120875D01*
X51527319Y12294583D01*
X51564000Y12478990D01*
X51564000Y12667010D01*
X51527319Y12851417D01*
X51455367Y13025125D01*
X51350908Y13181458D01*
X51217958Y13314408D01*
X51069309Y13413733D01*
X51042733Y13453507D01*
X51052065Y13500423D01*
X51091839Y13526999D01*
X51104032Y13528200D01*
X62931529Y13528200D01*
X63060035Y13562635D01*
X63060038Y13562636D01*
X63175261Y13629159D01*
X63401366Y13855264D01*
X63650335Y14104232D01*
X63650338Y14104236D01*
X63650340Y14104238D01*
X63716864Y14219461D01*
X63716865Y14219464D01*
X63731401Y14273714D01*
X63731401Y14273715D01*
X63751299Y14347970D01*
X63751300Y14347976D01*
X63751300Y22880805D01*
X63761833Y22915528D01*
X63817591Y22998976D01*
X63817592Y22998979D01*
X63866213Y23116360D01*
X63891000Y23240973D01*
X63891000Y23368027D01*
X63866213Y23492640D01*
X63817592Y23610022D01*
X63747004Y23715664D01*
X63657164Y23805504D01*
X63551522Y23876092D01*
X63434140Y23924713D01*
X63309527Y23949500D01*
X63182473Y23949500D01*
X63057860Y23924713D01*
X62940478Y23876092D01*
X62940477Y23876091D01*
X62940475Y23876090D01*
X62834836Y23805504D01*
X62744995Y23715663D01*
X62674409Y23610024D01*
X62674408Y23610022D01*
X62625786Y23492639D01*
X62625786Y23492638D01*
X62601000Y23368027D01*
X62601000Y23240972D01*
X62625786Y23116363D01*
X62674407Y22998979D01*
X62674408Y22998976D01*
X62730167Y22915528D01*
X62740700Y22880805D01*
X62740700Y14649690D01*
X62722394Y14605496D01*
X62674004Y14557106D01*
X62629810Y14538800D01*
X60115995Y14538800D01*
X60071801Y14557106D01*
X60053495Y14601300D01*
X60071801Y14645494D01*
X60170555Y14744248D01*
X60170558Y14744252D01*
X60170560Y14744254D01*
X60249623Y14881196D01*
X60280987Y14998248D01*
X60290549Y15033931D01*
X60290550Y15033937D01*
X60290550Y15192062D01*
X60290549Y15192068D01*
X60264862Y15287931D01*
X60249623Y15344804D01*
X60170560Y15481746D01*
X60058746Y15593560D01*
X59921804Y15672623D01*
X59769064Y15713550D01*
X59610936Y15713550D01*
X59610933Y15713549D01*
X59610931Y15713549D01*
X59551670Y15697669D01*
X59458196Y15672623D01*
X59321254Y15593560D01*
X59321252Y15593558D01*
X59321248Y15593555D01*
X59224599Y15496906D01*
X59180405Y15478600D01*
X55407786Y15478600D01*
X55363592Y15496906D01*
X55355819Y15506376D01*
X55301504Y15587664D01*
X55211664Y15677504D01*
X55106022Y15748092D01*
X54988640Y15796713D01*
X54864027Y15821500D01*
X54736973Y15821500D01*
X54612360Y15796713D01*
X54494978Y15748092D01*
X54389336Y15677504D01*
X54299496Y15587664D01*
X54271599Y15545913D01*
X54245181Y15506376D01*
X54205407Y15479801D01*
X54193214Y15478600D01*
X53558028Y15478600D01*
X53513834Y15496906D01*
X51530405Y17480335D01*
X51530400Y17480340D01*
X51461513Y17520113D01*
X51384678Y17540700D01*
X51384677Y17540700D01*
X50474052Y17540700D01*
X50429858Y17559006D01*
X50411552Y17603200D01*
X50422085Y17637923D01*
X50466319Y17704123D01*
X50506093Y17730699D01*
X50518286Y17731900D01*
X51664978Y17731900D01*
X51709172Y17713594D01*
X53408500Y16014264D01*
X53408506Y16014259D01*
X53477391Y15974487D01*
X53477393Y15974486D01*
X53554221Y15953901D01*
X53554227Y15953900D01*
X53554228Y15953900D01*
X60681978Y15953900D01*
X60726172Y15935594D01*
X61115851Y15545913D01*
X61134157Y15501719D01*
X61132028Y15485544D01*
X61121450Y15446065D01*
X61121450Y15287931D01*
X61162376Y15135198D01*
X61162376Y15135196D01*
X61241441Y14998252D01*
X61241444Y14998248D01*
X61353248Y14886444D01*
X61353252Y14886441D01*
X61490197Y14807376D01*
X61642931Y14766450D01*
X61642936Y14766450D01*
X61801068Y14766450D01*
X61953801Y14807376D01*
X61953803Y14807376D01*
X62038185Y14856094D01*
X62090746Y14886440D01*
X62090747Y14886441D01*
X62090751Y14886444D01*
X62202555Y14998248D01*
X62202558Y14998252D01*
X62202560Y14998254D01*
X62281623Y15135196D01*
X62322550Y15287936D01*
X62322550Y15446064D01*
X62281623Y15598804D01*
X62202560Y15735746D01*
X62090746Y15847560D01*
X61953804Y15926623D01*
X61801064Y15967550D01*
X61642936Y15967550D01*
X61642934Y15967549D01*
X61642931Y15967549D01*
X61626754Y15963214D01*
X61603455Y15956971D01*
X61556030Y15963214D01*
X61543089Y15973143D01*
X61018494Y16497740D01*
X60949607Y16537513D01*
X60872772Y16558100D01*
X60872771Y16558100D01*
X53745022Y16558100D01*
X53700828Y16576406D01*
X52001499Y18275735D01*
X52001494Y18275740D01*
X51932607Y18315513D01*
X51855772Y18336100D01*
X51855771Y18336100D01*
X50518286Y18336100D01*
X50474092Y18354406D01*
X50466319Y18363876D01*
X50412004Y18445164D01*
X50322164Y18535004D01*
X50216522Y18605592D01*
X50099140Y18654213D01*
X49974527Y18679000D01*
X49847473Y18679000D01*
X49722860Y18654213D01*
X49605478Y18605592D01*
X49605477Y18605591D01*
X49605475Y18605590D01*
X49499836Y18535004D01*
X49409995Y18445163D01*
X49339409Y18339524D01*
X49339408Y18339522D01*
X49301367Y18247682D01*
X49267543Y18213858D01*
X49243625Y18209100D01*
X49046022Y18209100D01*
X49001828Y18227406D01*
X44230255Y22998979D01*
X39358034Y27871199D01*
X39339729Y27915392D01*
X39358035Y27959586D01*
X39390036Y27976691D01*
X39459013Y27990411D01*
X39459014Y27990411D01*
X39576397Y28039033D01*
X39576399Y28039034D01*
X39682038Y28109620D01*
X39771879Y28199461D01*
X39842465Y28305100D01*
X39842466Y28305102D01*
X39842467Y28305103D01*
X39891088Y28422485D01*
X39915875Y28547098D01*
X39915875Y28674152D01*
X39906971Y28718914D01*
X39916303Y28765830D01*
X39956076Y28792406D01*
X40002993Y28783074D01*
X40012464Y28775301D01*
X42366760Y26421006D01*
X42394883Y26392883D01*
X42423005Y26364760D01*
X42423009Y26364757D01*
X42491888Y26324989D01*
X42491897Y26324985D01*
X42568721Y26304401D01*
X42568727Y26304400D01*
X42568728Y26304400D01*
X62585725Y26304400D01*
X62629919Y26286094D01*
X62648225Y26241900D01*
X62629919Y26197706D01*
X62541982Y26109769D01*
X62541979Y26109765D01*
X62541976Y26109762D01*
X62441176Y25971022D01*
X62363321Y25818224D01*
X62363320Y25818221D01*
X62310326Y25655123D01*
X62310326Y25655122D01*
X62283501Y25485759D01*
X62283500Y25485743D01*
X62283500Y25314256D01*
X62283501Y25314240D01*
X62310326Y25144877D01*
X62310326Y25144876D01*
X62363320Y24981778D01*
X62363321Y24981775D01*
X62441176Y24828977D01*
X62541982Y24690230D01*
X62663230Y24568982D01*
X62801977Y24468176D01*
X62954775Y24390321D01*
X62954778Y24390320D01*
X63117876Y24337326D01*
X63287240Y24310501D01*
X63287252Y24310500D01*
X63287254Y24310500D01*
X63287256Y24310500D01*
X63458744Y24310500D01*
X63458746Y24310500D01*
X63458747Y24310500D01*
X63458759Y24310501D01*
X63628122Y24337326D01*
X63628123Y24337326D01*
X63791221Y24390320D01*
X63791224Y24390321D01*
X63817659Y24403791D01*
X63859553Y24425137D01*
X63907240Y24428890D01*
X63932121Y24413643D01*
X66164094Y22181671D01*
X66182400Y22137477D01*
X66182400Y13041522D01*
X66164094Y12997328D01*
X64980672Y11813906D01*
X64936478Y11795600D01*
X53935228Y11795600D01*
X53935221Y11795598D01*
X53858397Y11775014D01*
X53858395Y11775013D01*
X53858394Y11775013D01*
X53858391Y11775011D01*
X53858388Y11775010D01*
X53789509Y11735242D01*
X53789500Y11735235D01*
X52666798Y10612532D01*
X52622604Y10594226D01*
X52610416Y10595426D01*
X52514527Y10614500D01*
X52387473Y10614500D01*
X52262860Y10589713D01*
X52145478Y10541092D01*
X52145477Y10541091D01*
X52145475Y10541090D01*
X52039836Y10470504D01*
X51949995Y10380663D01*
X51879409Y10275024D01*
X51879408Y10275022D01*
X51830786Y10157639D01*
X51830786Y10157638D01*
X51806000Y10033027D01*
X51806000Y9905972D01*
X51825072Y9810088D01*
X51815740Y9763172D01*
X51807967Y9753701D01*
X47264172Y5209906D01*
X47219978Y5191600D01*
X33631272Y5191600D01*
X33551728Y5191600D01*
X33551721Y5191598D01*
X33474893Y5171013D01*
X33474891Y5171012D01*
X33406006Y5131240D01*
X33406000Y5131235D01*
X32778264Y4503499D01*
X32778259Y4503493D01*
X32738487Y4434608D01*
X32736358Y4426661D01*
X32736357Y4426656D01*
X32717901Y4357778D01*
X32717900Y4357770D01*
X32717900Y4235440D01*
X32699594Y4191246D01*
X32679325Y4177701D01*
X32569769Y4132322D01*
X32569763Y4132318D01*
X32414092Y4028302D01*
X32281697Y3895907D01*
X32177679Y3740233D01*
X32177678Y3740231D01*
X32106026Y3567249D01*
X32069500Y3383616D01*
X31430500Y3383616D01*
X31393973Y3567251D01*
X31322322Y3740231D01*
X31218302Y3895908D01*
X31105206Y4009004D01*
X31086900Y4053198D01*
X31086900Y5056725D01*
X31105206Y5100919D01*
X34767314Y8763027D01*
X36121500Y8763027D01*
X36121500Y8635972D01*
X36146286Y8511361D01*
X36146286Y8511360D01*
X36194908Y8393977D01*
X36194909Y8393975D01*
X36265495Y8288336D01*
X36355336Y8198495D01*
X36460975Y8127909D01*
X36460985Y8127904D01*
X36481635Y8119350D01*
X36501909Y8105803D01*
X38806848Y5800863D01*
X38806852Y5800860D01*
X38945245Y5720958D01*
X38945248Y5720957D01*
X39099593Y5679601D01*
X39099599Y5679600D01*
X39099600Y5679600D01*
X45487286Y5679600D01*
X45511203Y5674843D01*
X45531858Y5666287D01*
X45656472Y5641500D01*
X45656473Y5641500D01*
X45783527Y5641500D01*
X45908138Y5666286D01*
X45908139Y5666286D01*
X46025522Y5714908D01*
X46025524Y5714909D01*
X46131163Y5785495D01*
X46221004Y5875336D01*
X46291590Y5980975D01*
X46291591Y5980977D01*
X46291592Y5980978D01*
X46340213Y6098360D01*
X46365000Y6222973D01*
X46365000Y6350027D01*
X46340213Y6474640D01*
X46291592Y6592022D01*
X46221004Y6697664D01*
X46131164Y6787504D01*
X46025522Y6858092D01*
X45908140Y6906713D01*
X45783527Y6931500D01*
X45656473Y6931500D01*
X45531860Y6906713D01*
X45531858Y6906712D01*
X45531856Y6906712D01*
X45511203Y6898157D01*
X45487286Y6893400D01*
X39456775Y6893400D01*
X39412581Y6911706D01*
X39073309Y7250978D01*
X37360194Y8964090D01*
X37346648Y8984365D01*
X37338094Y9005018D01*
X37338091Y9005023D01*
X37267504Y9110664D01*
X37177664Y9200504D01*
X37072022Y9271092D01*
X36954640Y9319713D01*
X36830027Y9344500D01*
X36702973Y9344500D01*
X36578360Y9319713D01*
X36460978Y9271092D01*
X36460977Y9271091D01*
X36460975Y9271090D01*
X36355336Y9200504D01*
X36265495Y9110663D01*
X36194909Y9005024D01*
X36194908Y9005022D01*
X36146286Y8887639D01*
X36146286Y8887638D01*
X36121500Y8763027D01*
X34767314Y8763027D01*
X37823636Y11819349D01*
X37823643Y11819358D01*
X37874770Y11907911D01*
X37874772Y11907916D01*
X37903541Y11957745D01*
X37944900Y12112100D01*
X37944900Y17478900D01*
X37903541Y17633255D01*
X37823641Y17771645D01*
X37710645Y17884641D01*
X37572255Y17964541D01*
X37417900Y18005900D01*
X37258100Y18005900D01*
X37258093Y18005898D01*
X37103748Y17964542D01*
X37103746Y17964541D01*
X37103745Y17964541D01*
X37103742Y17964539D01*
X37103739Y17964538D01*
X36965358Y17884643D01*
X36965349Y17884636D01*
X36852363Y17771650D01*
X36852356Y17771641D01*
X36772461Y17633260D01*
X36772457Y17633251D01*
X36731101Y17478906D01*
X36731100Y17478898D01*
X36731100Y12469274D01*
X36712794Y12425080D01*
X30107355Y5819641D01*
X29994363Y5706650D01*
X29994356Y5706641D01*
X29914461Y5568260D01*
X29914457Y5568251D01*
X29873101Y5413906D01*
X29873100Y5413898D01*
X29873100Y4053198D01*
X29854794Y4009004D01*
X29741697Y3895907D01*
X29637679Y3740233D01*
X29637678Y3740231D01*
X29566026Y3567249D01*
X29529500Y3383616D01*
X28890500Y3383616D01*
X28853973Y3567251D01*
X28782322Y3740231D01*
X28678302Y3895908D01*
X28545908Y4028302D01*
X28390231Y4132322D01*
X28217251Y4203973D01*
X28033616Y4240500D01*
X27846384Y4240500D01*
X27662749Y4203973D01*
X27489769Y4132322D01*
X27489768Y4132321D01*
X27489766Y4132320D01*
X27334092Y4028302D01*
X27201697Y3895907D01*
X27097679Y3740233D01*
X27097678Y3740231D01*
X27026026Y3567249D01*
X26989500Y3383616D01*
X24173407Y3383616D01*
X24148171Y3421385D01*
X24022185Y3547371D01*
X23874041Y3646357D01*
X23709433Y3714540D01*
X23534685Y3749300D01*
X23356515Y3749300D01*
X23181767Y3714540D01*
X23017159Y3646357D01*
X23017158Y3646356D01*
X23017155Y3646355D01*
X22869015Y3547371D01*
X22743028Y3421384D01*
X22644044Y3273244D01*
X22644043Y3273241D01*
X22575859Y3108631D01*
X22541100Y2933885D01*
X21350100Y2933885D01*
X21315340Y3108633D01*
X21247157Y3273241D01*
X21148171Y3421385D01*
X21022185Y3547371D01*
X20874041Y3646357D01*
X20709433Y3714540D01*
X20534685Y3749300D01*
X20356515Y3749300D01*
X20181767Y3714540D01*
X20017159Y3646357D01*
X20017158Y3646356D01*
X20017155Y3646355D01*
X19869015Y3547371D01*
X19743028Y3421384D01*
X19644044Y3273244D01*
X19644043Y3273241D01*
X19575859Y3108631D01*
X19541100Y2933885D01*
X15767297Y2933885D01*
X15714197Y3132056D01*
X15714195Y3132059D01*
X15714192Y3132073D01*
X15621989Y3354671D01*
X15501520Y3563329D01*
X15354847Y3754478D01*
X15184478Y3924847D01*
X14993329Y4071520D01*
X14784671Y4191989D01*
X14562073Y4284192D01*
X14562059Y4284195D01*
X14562056Y4284197D01*
X14374644Y4334414D01*
X14329345Y4346552D01*
X14090469Y4378000D01*
X13849531Y4378000D01*
X13610655Y4346552D01*
X13610651Y4346551D01*
X13610650Y4346551D01*
X13377943Y4284197D01*
X13377937Y4284194D01*
X13377927Y4284192D01*
X13155329Y4191989D01*
X12946671Y4071520D01*
X12755522Y3924847D01*
X12755517Y3924842D01*
X12585157Y3754482D01*
X12585148Y3754472D01*
X12502189Y3646357D01*
X12441490Y3567251D01*
X12438478Y3563326D01*
X12318014Y3354676D01*
X12318008Y3354665D01*
X12284283Y3273244D01*
X12225808Y3132073D01*
X12225806Y3132067D01*
X12225802Y3132056D01*
X12163448Y2899349D01*
X12163448Y2899348D01*
X12132000Y2660473D01*
X10349513Y2660473D01*
X10351383Y2672279D01*
X10351384Y2672292D01*
X10366543Y2768000D01*
X7791146Y2768000D01*
X7816000Y2860756D01*
X7816000Y2979244D01*
X7791146Y3072000D01*
X10366543Y3072000D01*
X10329273Y3307309D01*
X10329273Y3307310D01*
X10248821Y3554913D01*
X10248817Y3554921D01*
X10130625Y3786887D01*
X9977600Y3997507D01*
X9977593Y3997515D01*
X9793515Y4181593D01*
X9793507Y4181600D01*
X9582887Y4334625D01*
X9350921Y4452817D01*
X9350913Y4452821D01*
X9103310Y4533273D01*
X8846186Y4573998D01*
X8846171Y4574000D01*
X7518000Y4574000D01*
X7518000Y3345145D01*
X7425244Y3370000D01*
X7306756Y3370000D01*
X7214000Y3345145D01*
X7214000Y4574000D01*
X5885829Y4574000D01*
X5885813Y4573998D01*
X5628690Y4533273D01*
X5628689Y4533273D01*
X5381086Y4452821D01*
X5381078Y4452817D01*
X5149112Y4334625D01*
X4938492Y4181600D01*
X4938484Y4181593D01*
X4754406Y3997515D01*
X4754399Y3997507D01*
X4601374Y3786887D01*
X4483182Y3554921D01*
X4483178Y3554913D01*
X4402726Y3307310D01*
X4402726Y3307309D01*
X4365456Y3072000D01*
X500500Y3072000D01*
X500500Y9100170D01*
X2812000Y9100170D01*
X2812000Y7772000D01*
X4040854Y7772000D01*
X4016000Y7679244D01*
X4016000Y7560756D01*
X4040854Y7468000D01*
X2812000Y7468000D01*
X2812000Y6139829D01*
X2812001Y6139813D01*
X2852726Y5882690D01*
X2852726Y5882689D01*
X2933178Y5635086D01*
X2933182Y5635078D01*
X3051374Y5403112D01*
X3204399Y5192492D01*
X3204406Y5192484D01*
X3388484Y5008406D01*
X3388492Y5008399D01*
X3599112Y4855374D01*
X3831078Y4737182D01*
X3831086Y4737178D01*
X4078689Y4656726D01*
X4313999Y4619456D01*
X4314000Y4619456D01*
X4314000Y7194854D01*
X4406756Y7170000D01*
X4525244Y7170000D01*
X4618000Y7194854D01*
X4618000Y4619456D01*
X4853309Y4656726D01*
X4853310Y4656726D01*
X5100913Y4737178D01*
X5100921Y4737182D01*
X5332887Y4855374D01*
X5543507Y5008399D01*
X5543515Y5008406D01*
X5727593Y5192484D01*
X5727600Y5192492D01*
X5880625Y5403112D01*
X5998817Y5635078D01*
X5998821Y5635086D01*
X6079273Y5882689D01*
X6079273Y5882690D01*
X6119998Y6139813D01*
X6120000Y6139829D01*
X6120000Y7468000D01*
X4891146Y7468000D01*
X4916000Y7560756D01*
X4916000Y7679244D01*
X4891146Y7772000D01*
X6120000Y7772000D01*
X6120000Y9092024D01*
X8815500Y9092024D01*
X8815500Y6147975D01*
X8815501Y6147959D01*
X8853678Y5906926D01*
X8853678Y5906925D01*
X8929095Y5674816D01*
X8929099Y5674808D01*
X8983388Y5568260D01*
X9039894Y5457361D01*
X9163440Y5287314D01*
X9183351Y5259909D01*
X9355909Y5087351D01*
X9355916Y5087345D01*
X9355917Y5087345D01*
X9553361Y4943894D01*
X9553363Y4943893D01*
X9770808Y4833099D01*
X9770816Y4833095D01*
X10002925Y4757678D01*
X10243959Y4719501D01*
X10243971Y4719500D01*
X10243973Y4719500D01*
X10243975Y4719500D01*
X10488025Y4719500D01*
X10488027Y4719500D01*
X10488028Y4719500D01*
X10488040Y4719501D01*
X10729073Y4757678D01*
X10729074Y4757678D01*
X10961183Y4833095D01*
X10961191Y4833099D01*
X11004908Y4855374D01*
X11178639Y4943894D01*
X11376083Y5087345D01*
X11376086Y5087348D01*
X11376090Y5087351D01*
X11548648Y5259909D01*
X11548650Y5259912D01*
X11548655Y5259917D01*
X11692106Y5457361D01*
X11802904Y5674815D01*
X11878321Y5906924D01*
X11916500Y6147973D01*
X11916500Y6887100D01*
X11934806Y6931294D01*
X11979000Y6949600D01*
X17928286Y6949600D01*
X17952203Y6944843D01*
X17972858Y6936287D01*
X18097472Y6911500D01*
X18097473Y6911500D01*
X18224527Y6911500D01*
X18349138Y6936286D01*
X18349139Y6936286D01*
X18466522Y6984908D01*
X18466524Y6984909D01*
X18572163Y7055495D01*
X18662004Y7145336D01*
X18732590Y7250975D01*
X18732591Y7250977D01*
X18732592Y7250978D01*
X18781213Y7368360D01*
X18806000Y7492973D01*
X18806000Y7620027D01*
X18781213Y7744640D01*
X18732592Y7862022D01*
X18662004Y7967664D01*
X18572164Y8057504D01*
X18466522Y8128092D01*
X18349140Y8176713D01*
X18224527Y8201500D01*
X18097473Y8201500D01*
X17972860Y8176713D01*
X17972858Y8176712D01*
X17972856Y8176712D01*
X17952203Y8168157D01*
X17928286Y8163400D01*
X11979000Y8163400D01*
X11934806Y8181706D01*
X11916500Y8225900D01*
X11916500Y8839903D01*
X21186300Y8839903D01*
X21186300Y8635296D01*
X21226215Y8434623D01*
X21226216Y8434620D01*
X21304514Y8245593D01*
X21304517Y8245588D01*
X21418188Y8075467D01*
X21562867Y7930788D01*
X21732988Y7817117D01*
X21732993Y7817114D01*
X21922020Y7738816D01*
X21922023Y7738815D01*
X22122696Y7698900D01*
X22122697Y7698900D01*
X22327303Y7698900D01*
X22527976Y7738815D01*
X22527979Y7738816D01*
X22717006Y7817114D01*
X22717011Y7817117D01*
X22887132Y7930788D01*
X23031811Y8075467D01*
X23145482Y8245588D01*
X23145485Y8245593D01*
X23206948Y8393977D01*
X23223784Y8434622D01*
X23263700Y8635297D01*
X23263700Y8839903D01*
X23223784Y9040578D01*
X23145484Y9229609D01*
X23031811Y9399733D01*
X22887133Y9544411D01*
X22717009Y9658084D01*
X22527978Y9736384D01*
X22327303Y9776300D01*
X22122697Y9776300D01*
X21922022Y9736384D01*
X21922020Y9736383D01*
X21732993Y9658085D01*
X21732988Y9658082D01*
X21562867Y9544411D01*
X21418188Y9399732D01*
X21304517Y9229611D01*
X21304514Y9229606D01*
X21226216Y9040579D01*
X21226215Y9040576D01*
X21186300Y8839903D01*
X11916500Y8839903D01*
X11916500Y9092024D01*
X11916498Y9092040D01*
X11907077Y9151521D01*
X11878321Y9333076D01*
X11802904Y9565185D01*
X11692106Y9782639D01*
X11548655Y9980083D01*
X11376083Y10152655D01*
X11178639Y10296106D01*
X10961185Y10406904D01*
X10729076Y10482321D01*
X10488027Y10520500D01*
X10243973Y10520500D01*
X10243965Y10520498D01*
X10243959Y10520498D01*
X10145858Y10504959D01*
X10002924Y10482321D01*
X9770815Y10406904D01*
X9553361Y10296106D01*
X9355917Y10152655D01*
X9355912Y10152650D01*
X9355909Y10152648D01*
X9183351Y9980090D01*
X9183348Y9980086D01*
X9183345Y9980083D01*
X9039894Y9782639D01*
X8979433Y9663977D01*
X8929099Y9565191D01*
X8929095Y9565183D01*
X8853678Y9333074D01*
X8853678Y9333073D01*
X8815501Y9092040D01*
X8815500Y9092024D01*
X6120000Y9092024D01*
X6120000Y9100170D01*
X6119998Y9100186D01*
X6079273Y9357309D01*
X6079273Y9357310D01*
X5998821Y9604913D01*
X5998817Y9604921D01*
X5880625Y9836887D01*
X5727600Y10047507D01*
X5727593Y10047515D01*
X5543515Y10231593D01*
X5543507Y10231600D01*
X5332887Y10384625D01*
X5100921Y10502817D01*
X5100913Y10502821D01*
X4853317Y10583271D01*
X4618000Y10620541D01*
X4618000Y8045145D01*
X4525244Y8070000D01*
X4406756Y8070000D01*
X4314000Y8045145D01*
X4314000Y10620541D01*
X4078682Y10583271D01*
X3831086Y10502821D01*
X3831078Y10502817D01*
X3599112Y10384625D01*
X3388492Y10231600D01*
X3388484Y10231593D01*
X3204406Y10047515D01*
X3204399Y10047507D01*
X3051374Y9836887D01*
X2933182Y9604921D01*
X2933178Y9604913D01*
X2852726Y9357310D01*
X2852726Y9357309D01*
X2812001Y9100186D01*
X2812000Y9100170D01*
X500500Y9100170D01*
X500500Y20780068D01*
X8289450Y20780068D01*
X8289450Y20621931D01*
X8330376Y20469198D01*
X8330376Y20469196D01*
X8409441Y20332252D01*
X8409444Y20332248D01*
X8521248Y20220444D01*
X8521252Y20220441D01*
X8648517Y20146965D01*
X8677637Y20109014D01*
X8671394Y20061588D01*
X8651222Y20041415D01*
X8651502Y20041051D01*
X8648735Y20038928D01*
X8648521Y20038714D01*
X8648254Y20038560D01*
X8648249Y20038555D01*
X8536444Y19926751D01*
X8536441Y19926747D01*
X8457376Y19789803D01*
X8457376Y19789801D01*
X8416450Y19637068D01*
X8416450Y19478931D01*
X8457376Y19326198D01*
X8457376Y19326196D01*
X8536441Y19189252D01*
X8536444Y19189248D01*
X8648248Y19077444D01*
X8648252Y19077441D01*
X8785197Y18998376D01*
X8937931Y18957450D01*
X8937936Y18957450D01*
X9096065Y18957450D01*
X9135544Y18968028D01*
X9182970Y18961783D01*
X9195913Y18951851D01*
X14236260Y13911506D01*
X14264383Y13883383D01*
X14292505Y13855260D01*
X14292509Y13855257D01*
X14361388Y13815489D01*
X14361397Y13815485D01*
X14438221Y13794901D01*
X14438227Y13794900D01*
X14438228Y13794900D01*
X14438229Y13794900D01*
X30011771Y13794900D01*
X30011772Y13794900D01*
X30011773Y13794900D01*
X30011778Y13794901D01*
X30088606Y13815486D01*
X30088608Y13815487D01*
X30157493Y13855259D01*
X30157499Y13855264D01*
X38206828Y21904594D01*
X38251022Y21922900D01*
X40186214Y21922900D01*
X40230408Y21904594D01*
X40240340Y21891650D01*
X40286437Y21811807D01*
X40286444Y21811798D01*
X40398248Y21699994D01*
X40398252Y21699991D01*
X40535197Y21620926D01*
X40687931Y21580000D01*
X40687936Y21580000D01*
X40846068Y21580000D01*
X40998801Y21620926D01*
X40998803Y21620926D01*
X41067275Y21660458D01*
X41135746Y21699990D01*
X41135747Y21699991D01*
X41135751Y21699994D01*
X41247555Y21811798D01*
X41247558Y21811802D01*
X41247560Y21811804D01*
X41326623Y21948746D01*
X41367550Y22101486D01*
X41367550Y22234103D01*
X41385856Y22278297D01*
X41430050Y22296603D01*
X41446226Y22294473D01*
X41576928Y22259451D01*
X41576934Y22259450D01*
X41576936Y22259450D01*
X41576938Y22259450D01*
X41735068Y22259450D01*
X41887801Y22300376D01*
X41887803Y22300376D01*
X41967737Y22346526D01*
X42024746Y22379440D01*
X42024747Y22379441D01*
X42024751Y22379444D01*
X42136555Y22491248D01*
X42136558Y22491252D01*
X42136560Y22491254D01*
X42215623Y22628196D01*
X42256550Y22780936D01*
X42256550Y22939064D01*
X42215623Y23091804D01*
X42136560Y23228746D01*
X42024746Y23340560D01*
X41887804Y23419623D01*
X41735064Y23460550D01*
X41576936Y23460550D01*
X41576933Y23460549D01*
X41576931Y23460549D01*
X41517670Y23444669D01*
X41424196Y23419623D01*
X41287254Y23340560D01*
X41287252Y23340558D01*
X41287248Y23340555D01*
X41175444Y23228751D01*
X41175439Y23228745D01*
X41155003Y23193349D01*
X41117052Y23164229D01*
X41100877Y23162100D01*
X38139772Y23162100D01*
X38060228Y23162100D01*
X38060221Y23162098D01*
X37983393Y23141513D01*
X37983391Y23141512D01*
X37914506Y23101740D01*
X37914500Y23101735D01*
X29611172Y14798406D01*
X29566978Y14780100D01*
X15264022Y14780100D01*
X15219828Y14798406D01*
X13397342Y16620892D01*
X11524165Y18494068D01*
X15274450Y18494068D01*
X15274450Y18335931D01*
X15315376Y18183198D01*
X15315376Y18183196D01*
X15394441Y18046252D01*
X15394444Y18046248D01*
X15506248Y17934444D01*
X15506252Y17934441D01*
X15643197Y17855376D01*
X15795931Y17814450D01*
X15795936Y17814450D01*
X15954068Y17814450D01*
X16106801Y17855376D01*
X16106803Y17855376D01*
X16175275Y17894908D01*
X16243746Y17934440D01*
X16243747Y17934441D01*
X16243751Y17934444D01*
X16355555Y18046248D01*
X16355560Y18046254D01*
X16375997Y18081651D01*
X16413948Y18110771D01*
X16430123Y18112900D01*
X28805271Y18112900D01*
X28805272Y18112900D01*
X28805273Y18112900D01*
X28805278Y18112901D01*
X28882106Y18133486D01*
X28882108Y18133487D01*
X28950993Y18173259D01*
X28950999Y18173264D01*
X30785235Y20007500D01*
X30785240Y20007506D01*
X30825012Y20076391D01*
X30825013Y20076393D01*
X30845598Y20153221D01*
X30845600Y20153229D01*
X30845600Y26443714D01*
X30863906Y26487908D01*
X30873376Y26495681D01*
X30888215Y26505596D01*
X30954664Y26549996D01*
X31044504Y26639836D01*
X31115092Y26745478D01*
X31163713Y26862860D01*
X31188500Y26987473D01*
X31188500Y27114527D01*
X31163713Y27239140D01*
X31115092Y27356522D01*
X31044504Y27462164D01*
X30954664Y27552004D01*
X30849022Y27622592D01*
X30731640Y27671213D01*
X30607027Y27696000D01*
X30479973Y27696000D01*
X30355360Y27671213D01*
X30237978Y27622592D01*
X30237977Y27622591D01*
X30237975Y27622590D01*
X30132336Y27552004D01*
X30042495Y27462163D01*
X29971909Y27356524D01*
X29971908Y27356522D01*
X29923286Y27239139D01*
X29923286Y27239138D01*
X29898500Y27114527D01*
X29898500Y26987472D01*
X29923286Y26862861D01*
X29923286Y26862860D01*
X29971908Y26745477D01*
X29971909Y26745475D01*
X30042495Y26639836D01*
X30132333Y26549998D01*
X30213624Y26495681D01*
X30240199Y26455907D01*
X30241400Y26443714D01*
X30241400Y20344022D01*
X30223094Y20299828D01*
X28658672Y18735406D01*
X28614478Y18717100D01*
X16430123Y18717100D01*
X16385929Y18735406D01*
X16375997Y18748349D01*
X16365770Y18766060D01*
X16355560Y18783746D01*
X16243746Y18895560D01*
X16106804Y18974623D01*
X15954064Y19015550D01*
X15795936Y19015550D01*
X15795933Y19015549D01*
X15795931Y19015549D01*
X15736670Y18999669D01*
X15643196Y18974623D01*
X15506254Y18895560D01*
X15506252Y18895558D01*
X15506248Y18895555D01*
X15394444Y18783751D01*
X15394441Y18783747D01*
X15394440Y18783746D01*
X15374004Y18748349D01*
X15315376Y18646803D01*
X15315376Y18646801D01*
X15274450Y18494068D01*
X11524165Y18494068D01*
X9496146Y20522086D01*
X9477841Y20566279D01*
X9479971Y20582456D01*
X9480989Y20586252D01*
X9490550Y20621936D01*
X9490550Y20780064D01*
X9449623Y20932804D01*
X9391159Y21034068D01*
X16798450Y21034068D01*
X16798450Y20875931D01*
X16839376Y20723198D01*
X16839376Y20723196D01*
X16918441Y20586252D01*
X16918444Y20586248D01*
X17030248Y20474444D01*
X17030252Y20474441D01*
X17167197Y20395376D01*
X17319931Y20354450D01*
X17319936Y20354450D01*
X17478068Y20354450D01*
X17630801Y20395376D01*
X17630803Y20395376D01*
X17716129Y20444639D01*
X17767746Y20474440D01*
X17767747Y20474441D01*
X17767751Y20474444D01*
X17879555Y20586248D01*
X17879558Y20586252D01*
X17879560Y20586254D01*
X17958623Y20723196D01*
X17999550Y20875936D01*
X17999550Y21034064D01*
X17958623Y21186804D01*
X17879560Y21323746D01*
X17767746Y21435560D01*
X17732350Y21455995D01*
X17703230Y21493943D01*
X17701100Y21510121D01*
X17701100Y26045195D01*
X17719406Y26089389D01*
X17747423Y26105565D01*
X17884801Y26142376D01*
X17884803Y26142376D01*
X17980637Y26197706D01*
X18021746Y26221440D01*
X18021747Y26221441D01*
X18021751Y26221444D01*
X18133555Y26333248D01*
X18133558Y26333252D01*
X18133560Y26333254D01*
X18212623Y26470196D01*
X18253550Y26622936D01*
X18253550Y26781064D01*
X18212623Y26933804D01*
X18133560Y27070746D01*
X18021746Y27182560D01*
X17884804Y27261623D01*
X17732064Y27302550D01*
X17573936Y27302550D01*
X17573933Y27302549D01*
X17573931Y27302549D01*
X17514670Y27286669D01*
X17421196Y27261623D01*
X17284254Y27182560D01*
X17284252Y27182558D01*
X17284248Y27182555D01*
X17172444Y27070751D01*
X17172441Y27070747D01*
X17093376Y26933803D01*
X17093376Y26933801D01*
X17052450Y26781068D01*
X17052450Y26622931D01*
X17086548Y26495681D01*
X17093376Y26470198D01*
X17094437Y26466241D01*
X17093572Y26466009D01*
X17096900Y26449259D01*
X17096900Y21510121D01*
X17078594Y21465927D01*
X17065654Y21455997D01*
X17030254Y21435560D01*
X17030253Y21435559D01*
X16918444Y21323751D01*
X16918441Y21323747D01*
X16918440Y21323746D01*
X16905625Y21301549D01*
X16839376Y21186803D01*
X16839376Y21186801D01*
X16798450Y21034068D01*
X9391159Y21034068D01*
X9370560Y21069746D01*
X9258746Y21181560D01*
X9121804Y21260623D01*
X8969064Y21301550D01*
X8810936Y21301550D01*
X8810933Y21301549D01*
X8810931Y21301549D01*
X8751670Y21285669D01*
X8658196Y21260623D01*
X8521254Y21181560D01*
X8521252Y21181558D01*
X8521248Y21181555D01*
X8409444Y21069751D01*
X8409441Y21069747D01*
X8409440Y21069746D01*
X8388839Y21034064D01*
X8330376Y20932803D01*
X8330376Y20932801D01*
X8289450Y20780068D01*
X500500Y20780068D01*
X500500Y31877027D01*
X26342500Y31877027D01*
X26342500Y31749972D01*
X26367286Y31625361D01*
X26367286Y31625360D01*
X26415908Y31507977D01*
X26415909Y31507975D01*
X26486495Y31402336D01*
X26576336Y31312495D01*
X26681975Y31241909D01*
X26681977Y31241908D01*
X26799360Y31193286D01*
X26897795Y31173706D01*
X26929795Y31156601D01*
X27416394Y30670003D01*
X27434700Y30625809D01*
X27434700Y20680193D01*
X27424167Y20645471D01*
X27368408Y20562022D01*
X27368407Y20562020D01*
X27319786Y20444639D01*
X27319786Y20444638D01*
X27295000Y20320027D01*
X27295000Y20192972D01*
X27319786Y20068361D01*
X27319786Y20068360D01*
X27368408Y19950977D01*
X27368409Y19950975D01*
X27438995Y19845336D01*
X27528836Y19755495D01*
X27634475Y19684909D01*
X27634477Y19684908D01*
X27751861Y19636286D01*
X27876472Y19611500D01*
X27876473Y19611500D01*
X28003527Y19611500D01*
X28128138Y19636286D01*
X28128139Y19636286D01*
X28245522Y19684908D01*
X28245524Y19684909D01*
X28351163Y19755495D01*
X28441004Y19845336D01*
X28511590Y19950975D01*
X28511591Y19950977D01*
X28511592Y19950978D01*
X28560213Y20068360D01*
X28585000Y20192973D01*
X28585000Y20320027D01*
X28560213Y20444640D01*
X28511592Y20562022D01*
X28455832Y20645471D01*
X28445300Y20680193D01*
X28445300Y30603518D01*
X29625450Y30603518D01*
X29625450Y30445381D01*
X29666376Y30292648D01*
X29666376Y30292646D01*
X29745441Y30155702D01*
X29745444Y30155698D01*
X29857248Y30043894D01*
X29857252Y30043891D01*
X29994197Y29964826D01*
X30146931Y29923900D01*
X30146936Y29923900D01*
X30305062Y29923900D01*
X30305064Y29923900D01*
X30305065Y29923900D01*
X30305070Y29923901D01*
X30444704Y29961316D01*
X30492130Y29955073D01*
X30505074Y29945140D01*
X32169260Y28280955D01*
X32187566Y28236761D01*
X32169260Y28192567D01*
X32158444Y28181751D01*
X32158441Y28181747D01*
X32079376Y28044803D01*
X32079376Y28044801D01*
X32038450Y27892068D01*
X32038450Y27733931D01*
X32079376Y27581198D01*
X32079376Y27581196D01*
X32158441Y27444252D01*
X32158444Y27444248D01*
X32270248Y27332444D01*
X32270252Y27332441D01*
X32407197Y27253376D01*
X32559931Y27212450D01*
X32559936Y27212450D01*
X32718068Y27212450D01*
X32870801Y27253376D01*
X32870803Y27253376D01*
X32955973Y27302549D01*
X33007746Y27332440D01*
X33007747Y27332441D01*
X33007751Y27332444D01*
X33119555Y27444248D01*
X33119558Y27444252D01*
X33119560Y27444254D01*
X33198623Y27581196D01*
X33239550Y27733936D01*
X33239550Y27892064D01*
X33198623Y28044804D01*
X33119560Y28181746D01*
X33007746Y28293560D01*
X32944657Y28329983D01*
X32921782Y28352859D01*
X32881582Y28422485D01*
X32880740Y28423944D01*
X30844856Y30459828D01*
X30826550Y30504022D01*
X30826550Y30603512D01*
X30826549Y30603518D01*
X30823192Y30616042D01*
X30785623Y30756254D01*
X30706560Y30893196D01*
X30594746Y31005010D01*
X30457804Y31084073D01*
X30305064Y31125000D01*
X30146936Y31125000D01*
X30146933Y31124999D01*
X30146931Y31124999D01*
X30087670Y31109119D01*
X29994196Y31084073D01*
X29857254Y31005010D01*
X29857252Y31005008D01*
X29857248Y31005005D01*
X29745444Y30893201D01*
X29745441Y30893197D01*
X29745440Y30893196D01*
X29705908Y30824725D01*
X29666376Y30756253D01*
X29666376Y30756251D01*
X29625450Y30603518D01*
X28445300Y30603518D01*
X28445300Y30927523D01*
X28445299Y30927529D01*
X28412994Y31048090D01*
X28412993Y31048092D01*
X28412208Y31051022D01*
X28410864Y31056038D01*
X28410864Y31056039D01*
X28344340Y31171262D01*
X27644395Y31871205D01*
X27627292Y31903202D01*
X27616777Y31956068D01*
X31784450Y31956068D01*
X31784450Y31797931D01*
X31825376Y31645198D01*
X31825376Y31645196D01*
X31904441Y31508252D01*
X31904444Y31508248D01*
X32016248Y31396444D01*
X32016252Y31396441D01*
X32153197Y31317376D01*
X32241963Y31293591D01*
X32269980Y31277415D01*
X34401390Y29146006D01*
X34419696Y29101812D01*
X34419696Y26857473D01*
X34437243Y26791995D01*
X34437243Y26791994D01*
X34454130Y26728967D01*
X34454132Y26728964D01*
X34520655Y26613740D01*
X36611415Y24522980D01*
X36627591Y24494963D01*
X36651376Y24406198D01*
X36651376Y24406196D01*
X36730441Y24269252D01*
X36730444Y24269248D01*
X36842248Y24157444D01*
X36842252Y24157441D01*
X36979197Y24078376D01*
X37131931Y24037450D01*
X37131936Y24037450D01*
X37290068Y24037450D01*
X37442801Y24078376D01*
X37442803Y24078376D01*
X37511275Y24117908D01*
X37579746Y24157440D01*
X37579747Y24157441D01*
X37579751Y24157444D01*
X37691555Y24269248D01*
X37691558Y24269252D01*
X37691560Y24269254D01*
X37770623Y24406196D01*
X37811550Y24558936D01*
X37811550Y24717064D01*
X37770623Y24869804D01*
X37691560Y25006746D01*
X37579746Y25118560D01*
X37442804Y25197623D01*
X37354028Y25221410D01*
X37326018Y25237582D01*
X35448602Y27114999D01*
X35430296Y27159193D01*
X35430296Y29403526D01*
X35430295Y29403532D01*
X35420064Y29441711D01*
X35395860Y29532041D01*
X35389376Y29543272D01*
X35329337Y29647264D01*
X32984582Y31992017D01*
X32968409Y32020029D01*
X32944623Y32108804D01*
X32865560Y32245746D01*
X32753746Y32357560D01*
X32616804Y32436623D01*
X32464064Y32477550D01*
X32305936Y32477550D01*
X32305933Y32477549D01*
X32305931Y32477549D01*
X32246670Y32461669D01*
X32153196Y32436623D01*
X32016254Y32357560D01*
X32016252Y32357558D01*
X32016248Y32357555D01*
X31904444Y32245751D01*
X31904441Y32245747D01*
X31904440Y32245746D01*
X31881769Y32206478D01*
X31825376Y32108803D01*
X31825376Y32108801D01*
X31784450Y31956068D01*
X27616777Y31956068D01*
X27607713Y32001640D01*
X27559092Y32119022D01*
X27488504Y32224664D01*
X27398664Y32314504D01*
X27293022Y32385092D01*
X27175640Y32433713D01*
X27051027Y32458500D01*
X26923973Y32458500D01*
X26799360Y32433713D01*
X26681978Y32385092D01*
X26681977Y32385091D01*
X26681975Y32385090D01*
X26576336Y32314504D01*
X26486495Y32224663D01*
X26415909Y32119024D01*
X26415908Y32119022D01*
X26367286Y32001639D01*
X26367286Y32001638D01*
X26342500Y31877027D01*
X500500Y31877027D01*
X500500Y33285456D01*
X518806Y33329650D01*
X563000Y33347956D01*
X607194Y33329650D01*
X700956Y33235887D01*
X700958Y33235885D01*
X815686Y33159226D01*
X815688Y33159225D01*
X943173Y33106419D01*
X1078506Y33079500D01*
X1078507Y33079500D01*
X2216493Y33079500D01*
X2351826Y33106419D01*
X2351827Y33106419D01*
X2479311Y33159225D01*
X2479313Y33159226D01*
X2594041Y33235885D01*
X2691614Y33333458D01*
X2768273Y33448186D01*
X2768274Y33448188D01*
X2768275Y33448189D01*
X2821080Y33575672D01*
X2848000Y33711007D01*
X2848000Y33848993D01*
X2821080Y33984328D01*
X2768275Y34111811D01*
X2691614Y34226542D01*
X2594042Y34324114D01*
X2479311Y34400775D01*
X2351828Y34453580D01*
X2216493Y34480500D01*
X1078507Y34480500D01*
X943172Y34453580D01*
X815689Y34400775D01*
X815688Y34400774D01*
X815686Y34400773D01*
X700958Y34324114D01*
X607194Y34230350D01*
X563000Y34212044D01*
X518806Y34230350D01*
X500500Y34274544D01*
X500500Y35286774D01*
X4548000Y35286774D01*
X4548000Y35133225D01*
X4577954Y34982629D01*
X4577955Y34982626D01*
X4636714Y34840770D01*
X4636717Y34840766D01*
X4722022Y34713098D01*
X4830598Y34604522D01*
X4958266Y34519217D01*
X4958267Y34519216D01*
X4982766Y34509068D01*
X5016590Y34475242D01*
X5016589Y34427407D01*
X4993570Y34399359D01*
X4880958Y34324114D01*
X4783385Y34226541D01*
X4706726Y34111813D01*
X4706725Y34111811D01*
X4653919Y33984327D01*
X4653919Y33984326D01*
X4627000Y33848993D01*
X4627000Y33711006D01*
X4653919Y33575673D01*
X4653919Y33575672D01*
X4706725Y33448188D01*
X4706726Y33448186D01*
X4783385Y33333458D01*
X4880958Y33235885D01*
X4995686Y33159226D01*
X4995688Y33159225D01*
X5123173Y33106419D01*
X5258506Y33079500D01*
X5258507Y33079500D01*
X6396493Y33079500D01*
X6531826Y33106419D01*
X6531827Y33106419D01*
X6659311Y33159225D01*
X6659313Y33159226D01*
X6774041Y33235885D01*
X6871614Y33333458D01*
X6948273Y33448186D01*
X6948274Y33448188D01*
X6948275Y33448189D01*
X7001080Y33575672D01*
X7028000Y33711007D01*
X7028000Y33848993D01*
X7001080Y33984328D01*
X6948275Y34111811D01*
X6871614Y34226542D01*
X6774042Y34324114D01*
X6659311Y34400775D01*
X6531828Y34453580D01*
X6396493Y34480500D01*
X5844823Y34480500D01*
X5800629Y34498806D01*
X5782323Y34543000D01*
X5800629Y34587194D01*
X5810097Y34594965D01*
X5824402Y34604523D01*
X5932977Y34713098D01*
X6018284Y34840768D01*
X6027534Y34863098D01*
X6070955Y34967925D01*
X6077045Y34982628D01*
X6107000Y35133226D01*
X6107000Y35286774D01*
X6077045Y35437372D01*
X6018284Y35579232D01*
X5932977Y35706902D01*
X5824402Y35815477D01*
X5696732Y35900784D01*
X5554872Y35959545D01*
X5404274Y35989500D01*
X5250726Y35989500D01*
X5100128Y35959545D01*
X5100126Y35959544D01*
X4972186Y35906549D01*
X4958268Y35900784D01*
X4830598Y35815477D01*
X4722022Y35706901D01*
X4684847Y35651265D01*
X4665846Y35622827D01*
X4636717Y35579233D01*
X4636714Y35579229D01*
X4577955Y35437373D01*
X4577954Y35437370D01*
X4548000Y35286774D01*
X500500Y35286774D01*
X500500Y37283652D01*
X2022000Y37283652D01*
X2022000Y37138358D01*
X2022001Y37138346D01*
X2024766Y37097548D01*
X2024767Y37097540D01*
X2068625Y36921180D01*
X2149372Y36758370D01*
X2149373Y36758369D01*
X2263228Y36616728D01*
X2404869Y36502873D01*
X2404870Y36502872D01*
X2567680Y36422125D01*
X2744044Y36378266D01*
X2771790Y36376385D01*
X2784845Y36375500D01*
X2784850Y36375500D01*
X2784851Y36375500D01*
X2930141Y36375500D01*
X2930152Y36375500D01*
X2930154Y36375501D01*
X2934814Y36375816D01*
X2970951Y36378266D01*
X2970959Y36378267D01*
X3147319Y36422125D01*
X3310129Y36502872D01*
X3310130Y36502873D01*
X3410218Y36583326D01*
X3451772Y36616728D01*
X3451773Y36616730D01*
X3451777Y36616733D01*
X3463691Y36631556D01*
X3505646Y36654533D01*
X3512405Y36654900D01*
X4472714Y36654900D01*
X4516908Y36636594D01*
X4524681Y36627124D01*
X4578998Y36545833D01*
X4668836Y36455995D01*
X4774475Y36385409D01*
X4774477Y36385408D01*
X4891861Y36336786D01*
X5016472Y36312000D01*
X5016473Y36312000D01*
X5143527Y36312000D01*
X5268138Y36336786D01*
X5268139Y36336786D01*
X5385522Y36385408D01*
X5385524Y36385409D01*
X5491163Y36455995D01*
X5581004Y36545836D01*
X5651590Y36651475D01*
X5651591Y36651477D01*
X5651592Y36651478D01*
X5700213Y36768860D01*
X5725000Y36893473D01*
X5725000Y37020527D01*
X5700213Y37145140D01*
X5651592Y37262522D01*
X5581004Y37368164D01*
X5491164Y37458004D01*
X5385522Y37528592D01*
X5268140Y37577213D01*
X5143527Y37602000D01*
X5016473Y37602000D01*
X4891860Y37577213D01*
X4774478Y37528592D01*
X4668836Y37458004D01*
X4578996Y37368164D01*
X4536251Y37304192D01*
X4524681Y37286876D01*
X4484907Y37260301D01*
X4472714Y37259100D01*
X3753070Y37259100D01*
X3708876Y37277406D01*
X3690713Y37317376D01*
X3690233Y37324451D01*
X3690233Y37324455D01*
X3690233Y37324458D01*
X3646375Y37500818D01*
X3565629Y37663627D01*
X3451772Y37805272D01*
X3310127Y37919129D01*
X3147318Y37999875D01*
X2970958Y38043733D01*
X2930155Y38046500D01*
X2784846Y38046499D01*
X2744042Y38043733D01*
X2567682Y37999875D01*
X2404873Y37919129D01*
X2404871Y37919127D01*
X2404870Y37919127D01*
X2404869Y37919126D01*
X2263228Y37805272D01*
X2187921Y37711585D01*
X2149373Y37663630D01*
X2149372Y37663629D01*
X2068625Y37500819D01*
X2024766Y37324455D01*
X2022562Y37291953D01*
X2022219Y37286876D01*
X2022000Y37283652D01*
X500500Y37283652D01*
X500500Y39315652D01*
X2085500Y39315652D01*
X2085500Y39170358D01*
X2085501Y39170346D01*
X2088266Y39129548D01*
X2088267Y39129540D01*
X2132125Y38953180D01*
X2212872Y38790370D01*
X2212873Y38790369D01*
X2326728Y38648728D01*
X2468369Y38534873D01*
X2468370Y38534872D01*
X2631180Y38454125D01*
X2807544Y38410266D01*
X2835290Y38408385D01*
X2848345Y38407500D01*
X2848350Y38407500D01*
X2848351Y38407500D01*
X2993641Y38407500D01*
X2993652Y38407500D01*
X2993654Y38407501D01*
X2998314Y38407816D01*
X3034451Y38410266D01*
X3034459Y38410267D01*
X3210819Y38454125D01*
X3252213Y38474655D01*
X3295097Y38495923D01*
X3322865Y38502431D01*
X3399240Y38502431D01*
X4403182Y38502431D01*
X4447376Y38484125D01*
X4455149Y38474655D01*
X4509466Y38393364D01*
X4599304Y38303526D01*
X4704943Y38232940D01*
X4704945Y38232939D01*
X4822329Y38184317D01*
X4946940Y38159531D01*
X4946941Y38159531D01*
X5073995Y38159531D01*
X5198606Y38184317D01*
X5198607Y38184317D01*
X5315990Y38232939D01*
X5315992Y38232940D01*
X5421631Y38303526D01*
X5511472Y38393367D01*
X5582058Y38499006D01*
X5582059Y38499008D01*
X5582060Y38499009D01*
X5630681Y38616391D01*
X5655468Y38741004D01*
X5655468Y38868058D01*
X5630681Y38992671D01*
X5582060Y39110053D01*
X5511472Y39215695D01*
X5421632Y39305535D01*
X5315990Y39376123D01*
X5198608Y39424744D01*
X5073995Y39449531D01*
X4946941Y39449531D01*
X4822328Y39424744D01*
X4704946Y39376123D01*
X4599304Y39305535D01*
X4509464Y39215695D01*
X4478351Y39169131D01*
X4455149Y39134407D01*
X4415375Y39107832D01*
X4403182Y39106631D01*
X3818995Y39106631D01*
X3774801Y39124937D01*
X3756495Y39169131D01*
X3756499Y39169443D01*
X3756499Y39170330D01*
X3756500Y39170345D01*
X3756499Y39315654D01*
X3753733Y39356458D01*
X3709875Y39532818D01*
X3629129Y39695627D01*
X3515272Y39837272D01*
X3373627Y39951129D01*
X3210818Y40031875D01*
X3034458Y40075733D01*
X2993655Y40078500D01*
X2848346Y40078499D01*
X2807542Y40075733D01*
X2631182Y40031875D01*
X2468373Y39951129D01*
X2468371Y39951127D01*
X2468370Y39951127D01*
X2468369Y39951126D01*
X2326728Y39837272D01*
X2274972Y39772884D01*
X2212873Y39695630D01*
X2212872Y39695629D01*
X2132125Y39532819D01*
X2088266Y39356455D01*
X2085500Y39315652D01*
X500500Y39315652D01*
X500500Y41066774D01*
X4548000Y41066774D01*
X4548000Y40913225D01*
X4577954Y40762629D01*
X4577955Y40762626D01*
X4636714Y40620770D01*
X4636717Y40620766D01*
X4722022Y40493098D01*
X4830598Y40384522D01*
X4958266Y40299217D01*
X4958270Y40299214D01*
X5100126Y40240455D01*
X5100129Y40240454D01*
X5250725Y40210500D01*
X5250726Y40210500D01*
X5404274Y40210500D01*
X5554870Y40240454D01*
X5554873Y40240455D01*
X5696729Y40299214D01*
X5696733Y40299217D01*
X5824401Y40384522D01*
X5932977Y40493098D01*
X5978306Y40560937D01*
X6018284Y40620768D01*
X6077045Y40762628D01*
X6107000Y40913226D01*
X6107000Y41066774D01*
X6077045Y41217372D01*
X6018284Y41359232D01*
X5932977Y41486902D01*
X5824402Y41595477D01*
X5810099Y41605033D01*
X5783524Y41644806D01*
X5792856Y41691723D01*
X5832629Y41718299D01*
X5844823Y41719500D01*
X6396493Y41719500D01*
X6531826Y41746419D01*
X6531827Y41746419D01*
X6659311Y41799225D01*
X6659313Y41799226D01*
X6774041Y41875885D01*
X6871614Y41973458D01*
X6948273Y42088186D01*
X6948274Y42088188D01*
X6948275Y42088189D01*
X7001080Y42215672D01*
X7028000Y42351007D01*
X7028000Y42488993D01*
X7001080Y42624328D01*
X6948275Y42751811D01*
X6871614Y42866542D01*
X6860088Y42878068D01*
X7400450Y42878068D01*
X7400450Y42719931D01*
X7441376Y42567198D01*
X7441376Y42567196D01*
X7520441Y42430252D01*
X7520444Y42430248D01*
X7632248Y42318444D01*
X7632254Y42318439D01*
X7667651Y42298003D01*
X7696771Y42260052D01*
X7698900Y42243877D01*
X7698900Y41171729D01*
X7698901Y41171721D01*
X7719486Y41094893D01*
X7719487Y41094891D01*
X7759259Y41026006D01*
X7759264Y41026000D01*
X15994534Y32790729D01*
X15994540Y32790724D01*
X16063425Y32750952D01*
X16063427Y32750951D01*
X16140255Y32730366D01*
X16140261Y32730365D01*
X16140262Y32730365D01*
X36808534Y32730365D01*
X36852728Y32712059D01*
X36871034Y32667865D01*
X36871034Y32651437D01*
X36895820Y32526826D01*
X36895820Y32526825D01*
X36944442Y32409442D01*
X36944443Y32409440D01*
X37015029Y32303801D01*
X37104870Y32213960D01*
X37210509Y32143374D01*
X37210511Y32143373D01*
X37327895Y32094751D01*
X37452506Y32069965D01*
X37452507Y32069965D01*
X37579561Y32069965D01*
X37704172Y32094751D01*
X37704173Y32094751D01*
X37821556Y32143373D01*
X37821558Y32143374D01*
X37927197Y32213960D01*
X38017038Y32303801D01*
X38077406Y32394148D01*
X38117180Y32420724D01*
X38129373Y32421925D01*
X40879271Y32421925D01*
X40923465Y32403619D01*
X43215818Y30111264D01*
X43215824Y30111259D01*
X43284709Y30071487D01*
X43284711Y30071486D01*
X43361539Y30050901D01*
X43361545Y30050900D01*
X43361546Y30050900D01*
X43441090Y30050900D01*
X59396944Y30050900D01*
X59441138Y30032594D01*
X59532834Y29940897D01*
X59532836Y29940895D01*
X59638475Y29870309D01*
X59638477Y29870308D01*
X59755861Y29821686D01*
X59880472Y29796900D01*
X59880473Y29796900D01*
X60007527Y29796900D01*
X60132138Y29821686D01*
X60132139Y29821686D01*
X60249522Y29870308D01*
X60249524Y29870309D01*
X60355163Y29940895D01*
X60445004Y30030736D01*
X60515590Y30136375D01*
X60515591Y30136377D01*
X60515592Y30136378D01*
X60564213Y30253760D01*
X60589000Y30378373D01*
X60589000Y30505427D01*
X60564213Y30630040D01*
X60515592Y30747422D01*
X60445004Y30853064D01*
X60355164Y30942904D01*
X60249522Y31013492D01*
X60132140Y31062113D01*
X60007527Y31086900D01*
X59880473Y31086900D01*
X59755860Y31062113D01*
X59638478Y31013492D01*
X59638477Y31013491D01*
X59638475Y31013490D01*
X59532836Y30942904D01*
X59442995Y30853063D01*
X59372409Y30747424D01*
X59372408Y30747422D01*
X59350148Y30693682D01*
X59316323Y30659857D01*
X59292406Y30655100D01*
X43552340Y30655100D01*
X43508146Y30673406D01*
X41215792Y32965760D01*
X41215787Y32965765D01*
X41146900Y33005538D01*
X41070065Y33026125D01*
X41070064Y33026125D01*
X38117266Y33026125D01*
X38073072Y33044431D01*
X38065299Y33053902D01*
X38032871Y33102433D01*
X38017038Y33126129D01*
X37927198Y33215969D01*
X37821556Y33286557D01*
X37704174Y33335178D01*
X37579561Y33359965D01*
X37452507Y33359965D01*
X37327894Y33335178D01*
X37311404Y33328347D01*
X37271313Y33325720D01*
X37238303Y33334565D01*
X37238302Y33334565D01*
X16331056Y33334565D01*
X16286862Y33352871D01*
X10657606Y38982127D01*
X12563000Y38982127D01*
X12563000Y38855072D01*
X12587786Y38730461D01*
X12587786Y38730460D01*
X12636408Y38613077D01*
X12636409Y38613075D01*
X12706995Y38507436D01*
X12796836Y38417595D01*
X12848485Y38383085D01*
X12875061Y38343311D01*
X12865729Y38296395D01*
X12857956Y38286924D01*
X12833995Y38262963D01*
X12763409Y38157324D01*
X12763408Y38157322D01*
X12714786Y38039939D01*
X12714786Y38039938D01*
X12690000Y37915327D01*
X12690000Y37788272D01*
X12714786Y37663661D01*
X12714786Y37663660D01*
X12763408Y37546277D01*
X12763409Y37546275D01*
X12833995Y37440636D01*
X12923836Y37350795D01*
X13029475Y37280209D01*
X13029477Y37280208D01*
X13146861Y37231586D01*
X13271472Y37206800D01*
X13271473Y37206800D01*
X13398530Y37206800D01*
X13436609Y37214374D01*
X13483525Y37205041D01*
X13492995Y37197269D01*
X17011062Y33679201D01*
X17011068Y33679196D01*
X17079953Y33639424D01*
X17079955Y33639423D01*
X17156783Y33618838D01*
X17156789Y33618837D01*
X17156790Y33618837D01*
X17236334Y33618837D01*
X47870000Y33618837D01*
X47914194Y33600531D01*
X47932500Y33556337D01*
X47932500Y33539909D01*
X47957286Y33415298D01*
X47957286Y33415297D01*
X48005908Y33297914D01*
X48005909Y33297912D01*
X48076495Y33192273D01*
X48166336Y33102432D01*
X48263206Y33037706D01*
X48289782Y32997932D01*
X48280450Y32951016D01*
X48272677Y32941545D01*
X48254295Y32923163D01*
X48183709Y32817524D01*
X48183708Y32817522D01*
X48135086Y32700139D01*
X48135086Y32700138D01*
X48110300Y32575527D01*
X48110300Y32448472D01*
X48135086Y32323861D01*
X48135086Y32323860D01*
X48183708Y32206477D01*
X48183709Y32206475D01*
X48254295Y32100836D01*
X48344136Y32010995D01*
X48449775Y31940409D01*
X48449777Y31940408D01*
X48567161Y31891786D01*
X48691772Y31867000D01*
X48691773Y31867000D01*
X48818827Y31867000D01*
X48943438Y31891786D01*
X48943439Y31891786D01*
X49060822Y31940408D01*
X49060824Y31940409D01*
X49166463Y32010995D01*
X49256304Y32100836D01*
X49326890Y32206475D01*
X49326891Y32206477D01*
X49326892Y32206478D01*
X49375513Y32323860D01*
X49400300Y32448473D01*
X49400300Y32575527D01*
X49381227Y32671412D01*
X49390559Y32718327D01*
X49398332Y32727798D01*
X49670135Y32999600D01*
X49670140Y32999606D01*
X49709912Y33068491D01*
X49709913Y33068493D01*
X49712862Y33079500D01*
X49730500Y33145328D01*
X49730500Y33224872D01*
X49730500Y33816059D01*
X49709913Y33892893D01*
X49670140Y33961781D01*
X49613894Y34018027D01*
X49062844Y34569077D01*
X48993957Y34608850D01*
X48917122Y34629437D01*
X48917121Y34629437D01*
X48139132Y34629437D01*
X48094938Y34647743D01*
X48076632Y34691937D01*
X48094938Y34736131D01*
X48169055Y34810248D01*
X48169060Y34810254D01*
X48189497Y34845651D01*
X48227448Y34874771D01*
X48243623Y34876900D01*
X49315478Y34876900D01*
X49359672Y34858594D01*
X51051094Y33167172D01*
X51069400Y33122978D01*
X51069400Y32559121D01*
X51051094Y32514927D01*
X51038154Y32504997D01*
X51002754Y32484560D01*
X51002753Y32484559D01*
X50890944Y32372751D01*
X50890941Y32372747D01*
X50890940Y32372746D01*
X50862716Y32323860D01*
X50811876Y32235803D01*
X50811876Y32235801D01*
X50770950Y32083068D01*
X50770950Y31924931D01*
X50811876Y31772198D01*
X50811876Y31772196D01*
X50890941Y31635252D01*
X50890944Y31635248D01*
X51002748Y31523444D01*
X51002752Y31523441D01*
X51139697Y31444376D01*
X51292431Y31403450D01*
X51292436Y31403450D01*
X51450568Y31403450D01*
X51603301Y31444376D01*
X51603303Y31444376D01*
X51692671Y31495973D01*
X51740246Y31523440D01*
X51740247Y31523441D01*
X51740251Y31523444D01*
X51852055Y31635248D01*
X51852058Y31635252D01*
X51852060Y31635254D01*
X51931123Y31772196D01*
X51961245Y31884610D01*
X51972049Y31924931D01*
X51972050Y31924937D01*
X51972050Y32083062D01*
X51972049Y32083068D01*
X51955890Y32143374D01*
X51931123Y32235804D01*
X51852060Y32372746D01*
X51740246Y32484560D01*
X51704850Y32504995D01*
X51675730Y32542943D01*
X51673600Y32559121D01*
X51673600Y33313769D01*
X51673600Y33313772D01*
X51668029Y33334565D01*
X51653013Y33390607D01*
X51613240Y33459494D01*
X49651994Y35420740D01*
X49583107Y35460513D01*
X49506272Y35481100D01*
X49506271Y35481100D01*
X48243623Y35481100D01*
X48199429Y35499406D01*
X48189497Y35512349D01*
X48179270Y35530060D01*
X48169060Y35547746D01*
X48057246Y35659560D01*
X47920304Y35738623D01*
X47767564Y35779550D01*
X47609436Y35779550D01*
X47609433Y35779549D01*
X47609431Y35779549D01*
X47550170Y35763669D01*
X47456696Y35738623D01*
X47319754Y35659560D01*
X47319752Y35659558D01*
X47319748Y35659555D01*
X47207944Y35547751D01*
X47207941Y35547747D01*
X47207940Y35547746D01*
X47187504Y35512349D01*
X47128876Y35410803D01*
X47128875Y35410800D01*
X47125891Y35399661D01*
X47096771Y35361710D01*
X47065521Y35353337D01*
X37327798Y35353337D01*
X37283604Y35371643D01*
X37275831Y35381113D01*
X37273188Y35385068D01*
X37221516Y35462401D01*
X37131676Y35552241D01*
X37026034Y35622829D01*
X36908652Y35671450D01*
X36784039Y35696237D01*
X36656985Y35696237D01*
X36532372Y35671450D01*
X36414990Y35622829D01*
X36414989Y35622828D01*
X36414987Y35622827D01*
X36309348Y35552241D01*
X36219507Y35462400D01*
X36148921Y35356761D01*
X36148920Y35356759D01*
X36100298Y35239376D01*
X36100298Y35239375D01*
X36075512Y35114764D01*
X36075512Y34987709D01*
X36100298Y34863098D01*
X36100298Y34863097D01*
X36148920Y34745714D01*
X36148921Y34745712D01*
X36161652Y34726660D01*
X36170984Y34679744D01*
X36144408Y34639970D01*
X36109685Y34629437D01*
X18331284Y34629437D01*
X18287090Y34647743D01*
X17295765Y35639068D01*
X21878450Y35639068D01*
X21878450Y35480931D01*
X21919376Y35328198D01*
X21919376Y35328196D01*
X21998441Y35191252D01*
X21998444Y35191248D01*
X22110248Y35079444D01*
X22110252Y35079441D01*
X22247197Y35000376D01*
X22399931Y34959450D01*
X22399936Y34959450D01*
X22558068Y34959450D01*
X22710801Y35000376D01*
X22710803Y35000376D01*
X22779275Y35039908D01*
X22847746Y35079440D01*
X22847747Y35079441D01*
X22847751Y35079444D01*
X22959555Y35191248D01*
X22959560Y35191254D01*
X22979997Y35226651D01*
X23017948Y35255771D01*
X23034123Y35257900D01*
X33406321Y35257900D01*
X33406322Y35257900D01*
X33406323Y35257900D01*
X33406328Y35257901D01*
X33483156Y35278486D01*
X33483158Y35278487D01*
X33552043Y35318259D01*
X33552049Y35318264D01*
X36401951Y38168167D01*
X36446145Y38186473D01*
X36458338Y38185272D01*
X36554222Y38166200D01*
X36554223Y38166200D01*
X36681277Y38166200D01*
X36805888Y38190986D01*
X36805889Y38190986D01*
X36923272Y38239608D01*
X36923274Y38239609D01*
X37028913Y38310195D01*
X37118754Y38400036D01*
X37189340Y38505675D01*
X37189341Y38505677D01*
X37189342Y38505678D01*
X37237963Y38623060D01*
X37262750Y38747673D01*
X37262750Y38874727D01*
X37237963Y38999340D01*
X37189342Y39116722D01*
X37118754Y39222364D01*
X37028914Y39312204D01*
X36923272Y39382792D01*
X36805890Y39431413D01*
X36681277Y39456200D01*
X36554223Y39456200D01*
X36429610Y39431413D01*
X36312228Y39382792D01*
X36312227Y39382791D01*
X36312225Y39382790D01*
X36206586Y39312204D01*
X36116745Y39222363D01*
X36046159Y39116724D01*
X36046158Y39116722D01*
X35997536Y38999339D01*
X35997536Y38999338D01*
X35972750Y38874727D01*
X35972750Y38747672D01*
X35991822Y38651788D01*
X35982490Y38604872D01*
X35974717Y38595401D01*
X33259722Y35880406D01*
X33215528Y35862100D01*
X23034123Y35862100D01*
X22989929Y35880406D01*
X22979997Y35893349D01*
X22969770Y35911060D01*
X22959560Y35928746D01*
X22847746Y36040560D01*
X22710804Y36119623D01*
X22558064Y36160550D01*
X22399936Y36160550D01*
X22399933Y36160549D01*
X22399931Y36160549D01*
X22368236Y36152056D01*
X22247196Y36119623D01*
X22110254Y36040560D01*
X22110252Y36040558D01*
X22110248Y36040555D01*
X21998444Y35928751D01*
X21998441Y35928747D01*
X21998440Y35928746D01*
X21975710Y35889376D01*
X21919376Y35791803D01*
X21919376Y35791801D01*
X21878450Y35639068D01*
X17295765Y35639068D01*
X16446866Y36487967D01*
X16406765Y36528068D01*
X19846450Y36528068D01*
X19846450Y36369931D01*
X19887376Y36217198D01*
X19887376Y36217196D01*
X19966441Y36080252D01*
X19966444Y36080248D01*
X20078248Y35968444D01*
X20078252Y35968441D01*
X20215197Y35889376D01*
X20367931Y35848450D01*
X20367936Y35848450D01*
X20526068Y35848450D01*
X20678801Y35889376D01*
X20678803Y35889376D01*
X20747275Y35928908D01*
X20815746Y35968440D01*
X20815747Y35968441D01*
X20815751Y35968444D01*
X20927555Y36080248D01*
X20927558Y36080252D01*
X20927560Y36080254D01*
X21006623Y36217196D01*
X21032026Y36312000D01*
X21047549Y36369931D01*
X21047550Y36369937D01*
X21047550Y36528062D01*
X21047549Y36528068D01*
X21032742Y36583326D01*
X21006623Y36680804D01*
X20974019Y36737274D01*
X20967776Y36784700D01*
X20983952Y36812718D01*
X24890302Y40719068D01*
X36463100Y40719068D01*
X36463100Y40560931D01*
X36504026Y40408198D01*
X36504026Y40408196D01*
X36583091Y40271252D01*
X36583094Y40271248D01*
X36694898Y40159444D01*
X36694902Y40159441D01*
X36831847Y40080376D01*
X36984581Y40039450D01*
X36984586Y40039450D01*
X37142715Y40039450D01*
X37182194Y40050028D01*
X37229620Y40043783D01*
X37242563Y40033851D01*
X40180150Y37096264D01*
X40180156Y37096259D01*
X40249041Y37056487D01*
X40249043Y37056486D01*
X40325871Y37035901D01*
X40325877Y37035900D01*
X40325878Y37035900D01*
X51664978Y37035900D01*
X51709172Y37017594D01*
X55003260Y33723506D01*
X55031383Y33695383D01*
X55059505Y33667260D01*
X55059509Y33667257D01*
X55128388Y33627489D01*
X55128397Y33627485D01*
X55205221Y33606901D01*
X55205227Y33606900D01*
X55205228Y33606900D01*
X55284772Y33606900D01*
X56975877Y33606900D01*
X57020071Y33588594D01*
X57030003Y33575651D01*
X57050439Y33540254D01*
X57050444Y33540248D01*
X57162248Y33428444D01*
X57162252Y33428441D01*
X57299197Y33349376D01*
X57451931Y33308450D01*
X57451936Y33308450D01*
X57610068Y33308450D01*
X57762801Y33349376D01*
X57762803Y33349376D01*
X57834219Y33390608D01*
X57899746Y33428440D01*
X57899747Y33428441D01*
X57899751Y33428444D01*
X58011555Y33540248D01*
X58011558Y33540252D01*
X58011560Y33540254D01*
X58090623Y33677196D01*
X58127763Y33815802D01*
X58131549Y33829931D01*
X58131550Y33829937D01*
X58131550Y33988062D01*
X58131549Y33988068D01*
X58120720Y34028480D01*
X58090623Y34140804D01*
X58011560Y34277746D01*
X57899746Y34389560D01*
X57762804Y34468623D01*
X57610064Y34509550D01*
X57451936Y34509550D01*
X57451933Y34509549D01*
X57451931Y34509549D01*
X57411839Y34498806D01*
X57299196Y34468623D01*
X57162254Y34389560D01*
X57162252Y34389558D01*
X57162248Y34389555D01*
X57050444Y34277751D01*
X57050439Y34277745D01*
X57030003Y34242349D01*
X56992052Y34213229D01*
X56975877Y34211100D01*
X55396022Y34211100D01*
X55351828Y34229406D01*
X52001499Y37579735D01*
X52001494Y37579740D01*
X51932607Y37619513D01*
X51855772Y37640100D01*
X51855771Y37640100D01*
X40516672Y37640100D01*
X40472478Y37658406D01*
X39783876Y38347008D01*
X37669796Y40461086D01*
X37651491Y40505279D01*
X37653621Y40521456D01*
X37664199Y40560931D01*
X37664200Y40560937D01*
X37664200Y40719062D01*
X37664199Y40719068D01*
X37652527Y40762628D01*
X37623273Y40871804D01*
X37544210Y41008746D01*
X37432396Y41120560D01*
X37295454Y41199623D01*
X37142714Y41240550D01*
X36984586Y41240550D01*
X36984583Y41240549D01*
X36984581Y41240549D01*
X36925320Y41224669D01*
X36831846Y41199623D01*
X36694904Y41120560D01*
X36694902Y41120558D01*
X36694898Y41120555D01*
X36583094Y41008751D01*
X36583091Y41008747D01*
X36583090Y41008746D01*
X36563437Y40974706D01*
X36504026Y40871803D01*
X36504026Y40871801D01*
X36463100Y40719068D01*
X24890302Y40719068D01*
X27708636Y43537402D01*
X46667787Y43537402D01*
X46667787Y43379265D01*
X46708713Y43226532D01*
X46708713Y43226530D01*
X46787778Y43089586D01*
X46787781Y43089582D01*
X46899585Y42977778D01*
X46899591Y42977773D01*
X46934988Y42957337D01*
X46964108Y42919386D01*
X46966237Y42903211D01*
X46966237Y40575891D01*
X46966238Y40575883D01*
X46986823Y40499055D01*
X46986824Y40499053D01*
X47026596Y40430168D01*
X47026601Y40430162D01*
X49090500Y38366264D01*
X49090509Y38366257D01*
X49159388Y38326489D01*
X49159397Y38326485D01*
X49236221Y38305901D01*
X49236227Y38305900D01*
X49236228Y38305900D01*
X49315772Y38305900D01*
X53188978Y38305900D01*
X53233172Y38287594D01*
X56456500Y35064264D01*
X56456506Y35064259D01*
X56525391Y35024487D01*
X56525393Y35024486D01*
X56602221Y35003901D01*
X56602227Y35003900D01*
X56602228Y35003900D01*
X58626877Y35003900D01*
X58671071Y34985594D01*
X58681003Y34972651D01*
X58701439Y34937254D01*
X58701444Y34937248D01*
X58813248Y34825444D01*
X58813252Y34825441D01*
X58950197Y34746376D01*
X59102931Y34705450D01*
X59102936Y34705450D01*
X59261068Y34705450D01*
X59413801Y34746376D01*
X59413803Y34746376D01*
X59482275Y34785908D01*
X59550746Y34825440D01*
X59550747Y34825441D01*
X59550751Y34825444D01*
X59662555Y34937248D01*
X59662558Y34937252D01*
X59662560Y34937254D01*
X59741623Y35074196D01*
X59772987Y35191248D01*
X59782549Y35226931D01*
X59782550Y35226937D01*
X59782550Y35385062D01*
X59782549Y35385068D01*
X59772992Y35420735D01*
X59741623Y35537804D01*
X59662560Y35674746D01*
X59656833Y35680473D01*
X64202000Y35680473D01*
X64202000Y35439526D01*
X64233448Y35200651D01*
X64233448Y35200650D01*
X64295802Y34967943D01*
X64295809Y34967925D01*
X64388008Y34745334D01*
X64388014Y34745323D01*
X64508478Y34536673D01*
X64655148Y34345527D01*
X64655157Y34345517D01*
X64825517Y34175157D01*
X64825527Y34175148D01*
X65016673Y34028478D01*
X65225323Y33908014D01*
X65225334Y33908008D01*
X65367811Y33848993D01*
X65447927Y33815808D01*
X65447928Y33815807D01*
X65447943Y33815802D01*
X65680651Y33753448D01*
X65919526Y33722000D01*
X65919531Y33722000D01*
X66160473Y33722000D01*
X66399348Y33753448D01*
X66399349Y33753448D01*
X66632056Y33815802D01*
X66632067Y33815806D01*
X66632073Y33815808D01*
X66750556Y33864885D01*
X66854665Y33908008D01*
X66854676Y33908014D01*
X67063326Y34028478D01*
X67254472Y34175148D01*
X67254482Y34175157D01*
X67424842Y34345517D01*
X67424847Y34345522D01*
X67571520Y34536671D01*
X67691989Y34745329D01*
X67784192Y34967927D01*
X67784194Y34967937D01*
X67784197Y34967943D01*
X67846551Y35200650D01*
X67846551Y35200651D01*
X67850012Y35226936D01*
X67878000Y35439531D01*
X67878000Y35680469D01*
X67846552Y35919345D01*
X67784192Y36152073D01*
X67691989Y36374671D01*
X67571520Y36583329D01*
X67424847Y36774478D01*
X67254478Y36944847D01*
X67063329Y37091520D01*
X66854671Y37211989D01*
X66632073Y37304192D01*
X66632059Y37304195D01*
X66632056Y37304197D01*
X66458150Y37350795D01*
X66399345Y37366552D01*
X66160469Y37398000D01*
X65919531Y37398000D01*
X65680655Y37366552D01*
X65680651Y37366551D01*
X65680650Y37366551D01*
X65447943Y37304197D01*
X65447937Y37304194D01*
X65447927Y37304192D01*
X65225329Y37211989D01*
X65016671Y37091520D01*
X64825522Y36944847D01*
X64825517Y36944842D01*
X64655157Y36774482D01*
X64655148Y36774472D01*
X64583279Y36680809D01*
X64549352Y36636594D01*
X64508478Y36583326D01*
X64388014Y36374676D01*
X64388008Y36374665D01*
X64362052Y36312000D01*
X64295808Y36152073D01*
X64295806Y36152067D01*
X64295802Y36152056D01*
X64233448Y35919349D01*
X64233448Y35919348D01*
X64202000Y35680473D01*
X59656833Y35680473D01*
X59550746Y35786560D01*
X59413804Y35865623D01*
X59261064Y35906550D01*
X59102936Y35906550D01*
X59102933Y35906549D01*
X59102931Y35906549D01*
X59053670Y35893349D01*
X58950196Y35865623D01*
X58813254Y35786560D01*
X58813252Y35786558D01*
X58813248Y35786555D01*
X58701444Y35674751D01*
X58701439Y35674745D01*
X58681003Y35639349D01*
X58643052Y35610229D01*
X58626877Y35608100D01*
X56793022Y35608100D01*
X56748828Y35626406D01*
X53525499Y38849735D01*
X53525494Y38849740D01*
X53456607Y38889513D01*
X53379772Y38910100D01*
X53379771Y38910100D01*
X49427022Y38910100D01*
X49382828Y38928406D01*
X48538350Y39772884D01*
X47616092Y40695140D01*
X60009500Y40695140D01*
X60009500Y40584859D01*
X60019582Y40471455D01*
X60019583Y40471446D01*
X60072762Y40285594D01*
X60162265Y40114251D01*
X60162266Y40114248D01*
X60284429Y39964429D01*
X60434248Y39842266D01*
X60434251Y39842265D01*
X60605594Y39752762D01*
X60791446Y39699583D01*
X60791455Y39699582D01*
X60904860Y39689500D01*
X60904862Y39689500D01*
X61015140Y39689500D01*
X61128544Y39699582D01*
X61128553Y39699583D01*
X61314405Y39752762D01*
X61392743Y39793683D01*
X61485751Y39842266D01*
X61635571Y39964429D01*
X61757734Y40114249D01*
X61847237Y40285594D01*
X61852874Y40305294D01*
X61882631Y40342747D01*
X61912962Y40350600D01*
X62200239Y40350600D01*
X62244433Y40332294D01*
X62759647Y39817078D01*
X62777953Y39772884D01*
X62775823Y39756708D01*
X62761451Y39703070D01*
X62761450Y39703062D01*
X62761450Y39544931D01*
X62802376Y39392198D01*
X62802376Y39392196D01*
X62881441Y39255252D01*
X62881444Y39255248D01*
X62993248Y39143444D01*
X62993252Y39143441D01*
X63130197Y39064376D01*
X63282931Y39023450D01*
X63282936Y39023450D01*
X63441068Y39023450D01*
X63593801Y39064376D01*
X63593803Y39064376D01*
X63666921Y39106591D01*
X63730746Y39143440D01*
X63730747Y39143441D01*
X63730751Y39143444D01*
X63842555Y39255248D01*
X63842558Y39255252D01*
X63842560Y39255254D01*
X63921623Y39392196D01*
X63959303Y39532819D01*
X63962549Y39544931D01*
X63962550Y39544937D01*
X63962550Y39703062D01*
X63962549Y39703068D01*
X63948176Y39756708D01*
X63921623Y39855804D01*
X63842560Y39992746D01*
X63730746Y40104560D01*
X63593804Y40183623D01*
X63441064Y40224550D01*
X63282936Y40224550D01*
X63229289Y40210175D01*
X63181865Y40216418D01*
X63168924Y40226347D01*
X62523696Y40871577D01*
X62457704Y40909678D01*
X62384100Y40929400D01*
X62384099Y40929400D01*
X61912962Y40929400D01*
X61868768Y40947706D01*
X61852874Y40974706D01*
X61847237Y40994406D01*
X61757734Y41165751D01*
X61635571Y41315571D01*
X61485751Y41437734D01*
X61314406Y41527237D01*
X61128552Y41580417D01*
X61037820Y41588483D01*
X61015140Y41590500D01*
X61015138Y41590500D01*
X60904862Y41590500D01*
X60904860Y41590500D01*
X60879658Y41588259D01*
X60791448Y41580417D01*
X60605594Y41527237D01*
X60434249Y41437734D01*
X60284429Y41315571D01*
X60162266Y41165751D01*
X60134283Y41112180D01*
X60072762Y40994405D01*
X60019583Y40808553D01*
X60019582Y40808544D01*
X60009500Y40695140D01*
X47616092Y40695140D01*
X47588742Y40722490D01*
X47570437Y40766684D01*
X47570437Y42903211D01*
X47588743Y42947405D01*
X47601686Y42957337D01*
X47637082Y42977773D01*
X47637088Y42977778D01*
X47679320Y43020010D01*
X56219500Y43020010D01*
X56219500Y42831989D01*
X56256180Y42647584D01*
X56256180Y42647583D01*
X56328133Y42473874D01*
X56328134Y42473872D01*
X56432591Y42317542D01*
X56565542Y42184591D01*
X56721872Y42080134D01*
X56721874Y42080133D01*
X56895584Y42008180D01*
X57079989Y41971500D01*
X57079990Y41971500D01*
X57268010Y41971500D01*
X57452415Y42008180D01*
X57452416Y42008180D01*
X57626125Y42080133D01*
X57626127Y42080134D01*
X57782457Y42184591D01*
X57915408Y42317542D01*
X58019865Y42473872D01*
X58019866Y42473874D01*
X58019867Y42473875D01*
X58091819Y42647583D01*
X58128500Y42831990D01*
X58128500Y43020010D01*
X59219500Y43020010D01*
X59219500Y42831989D01*
X59256180Y42647584D01*
X59256180Y42647583D01*
X59328133Y42473874D01*
X59328134Y42473872D01*
X59432591Y42317542D01*
X59565542Y42184591D01*
X59721872Y42080134D01*
X59721874Y42080133D01*
X59895584Y42008180D01*
X60079989Y41971500D01*
X60079990Y41971500D01*
X60268010Y41971500D01*
X60452415Y42008180D01*
X60452416Y42008180D01*
X60626125Y42080133D01*
X60626127Y42080134D01*
X60782457Y42184591D01*
X60915408Y42317542D01*
X61019865Y42473872D01*
X61019866Y42473874D01*
X61019867Y42473875D01*
X61091819Y42647583D01*
X61128500Y42831990D01*
X61128500Y43020010D01*
X61091819Y43204417D01*
X61019867Y43378125D01*
X60915408Y43534458D01*
X60782458Y43667408D01*
X60626125Y43771867D01*
X60452417Y43843819D01*
X60268010Y43880500D01*
X60079990Y43880500D01*
X59895583Y43843819D01*
X59721875Y43771867D01*
X59721874Y43771866D01*
X59721872Y43771865D01*
X59565542Y43667408D01*
X59432591Y43534457D01*
X59328134Y43378127D01*
X59328133Y43378125D01*
X59256180Y43204416D01*
X59256180Y43204415D01*
X59219500Y43020010D01*
X58128500Y43020010D01*
X58091819Y43204417D01*
X58019867Y43378125D01*
X57915408Y43534458D01*
X57782458Y43667408D01*
X57626125Y43771867D01*
X57452417Y43843819D01*
X57268010Y43880500D01*
X57079990Y43880500D01*
X56895583Y43843819D01*
X56721875Y43771867D01*
X56721874Y43771866D01*
X56721872Y43771865D01*
X56565542Y43667408D01*
X56432591Y43534457D01*
X56328134Y43378127D01*
X56328133Y43378125D01*
X56256180Y43204416D01*
X56256180Y43204415D01*
X56219500Y43020010D01*
X47679320Y43020010D01*
X47748892Y43089582D01*
X47748895Y43089586D01*
X47748897Y43089588D01*
X47827960Y43226530D01*
X47867877Y43375500D01*
X47868886Y43379265D01*
X47868887Y43379271D01*
X47868887Y43537396D01*
X47868886Y43537402D01*
X47855169Y43588592D01*
X47827960Y43690138D01*
X47748897Y43827080D01*
X47637083Y43938894D01*
X47500141Y44017957D01*
X47347401Y44058884D01*
X47189273Y44058884D01*
X47189270Y44058883D01*
X47189268Y44058883D01*
X47130007Y44043003D01*
X47036533Y44017957D01*
X46899591Y43938894D01*
X46899589Y43938892D01*
X46899585Y43938889D01*
X46787781Y43827085D01*
X46787778Y43827081D01*
X46708713Y43690137D01*
X46708713Y43690135D01*
X46667787Y43537402D01*
X27708636Y43537402D01*
X27756923Y43585689D01*
X30594735Y46423500D01*
X30594740Y46423506D01*
X30634512Y46492391D01*
X30634513Y46492393D01*
X30655098Y46569221D01*
X30655100Y46569229D01*
X30655100Y46700214D01*
X30673406Y46744408D01*
X30682876Y46752181D01*
X30764164Y46806496D01*
X30854004Y46896336D01*
X30924592Y47001978D01*
X30973213Y47119360D01*
X30998000Y47243973D01*
X30998000Y47371027D01*
X30973213Y47495640D01*
X30924592Y47613022D01*
X30854004Y47718664D01*
X30764164Y47808504D01*
X30658522Y47879092D01*
X30541140Y47927713D01*
X30416527Y47952500D01*
X30289473Y47952500D01*
X30164860Y47927713D01*
X30047478Y47879092D01*
X30047477Y47879091D01*
X30047475Y47879090D01*
X29941836Y47808504D01*
X29851995Y47718663D01*
X29781409Y47613024D01*
X29781408Y47613022D01*
X29732786Y47495639D01*
X29732786Y47495638D01*
X29708000Y47371027D01*
X29708000Y47243972D01*
X29732786Y47119361D01*
X29732786Y47119360D01*
X29781408Y47001977D01*
X29781409Y47001975D01*
X29851995Y46896336D01*
X29941836Y46806495D01*
X29987271Y46776137D01*
X30013847Y46736363D01*
X30004515Y46689447D01*
X29996742Y46679976D01*
X20377564Y37060798D01*
X20349547Y37044622D01*
X20264198Y37021753D01*
X20215199Y37008624D01*
X20215196Y37008623D01*
X20078254Y36929560D01*
X20078252Y36929558D01*
X20078248Y36929555D01*
X19966444Y36817751D01*
X19966441Y36817747D01*
X19966440Y36817746D01*
X19932159Y36758369D01*
X19887376Y36680803D01*
X19887376Y36680801D01*
X19846450Y36528068D01*
X16406765Y36528068D01*
X15146560Y37788273D01*
X13837085Y39097747D01*
X13823542Y39118015D01*
X13779592Y39224122D01*
X13709004Y39329764D01*
X13619164Y39419604D01*
X13513522Y39490192D01*
X13396140Y39538813D01*
X13271527Y39563600D01*
X13144473Y39563600D01*
X13019860Y39538813D01*
X12902478Y39490192D01*
X12902477Y39490191D01*
X12902475Y39490190D01*
X12796836Y39419604D01*
X12706995Y39329763D01*
X12636409Y39224124D01*
X12636408Y39224122D01*
X12587786Y39106739D01*
X12587786Y39106738D01*
X12563000Y38982127D01*
X10657606Y38982127D01*
X8321406Y41318327D01*
X8303100Y41362521D01*
X8303100Y42243877D01*
X8321406Y42288071D01*
X8334349Y42298003D01*
X8369745Y42318439D01*
X8369751Y42318444D01*
X8481555Y42430248D01*
X8481558Y42430252D01*
X8481560Y42430254D01*
X8560623Y42567196D01*
X8601550Y42719936D01*
X8601550Y42878064D01*
X8560623Y43030804D01*
X8481560Y43167746D01*
X8369746Y43279560D01*
X8232804Y43358623D01*
X8080064Y43399550D01*
X7921936Y43399550D01*
X7921933Y43399549D01*
X7921931Y43399549D01*
X7862670Y43383669D01*
X7769196Y43358623D01*
X7632254Y43279560D01*
X7632252Y43279558D01*
X7632248Y43279555D01*
X7520444Y43167751D01*
X7520441Y43167747D01*
X7441376Y43030803D01*
X7441376Y43030801D01*
X7400450Y42878068D01*
X6860088Y42878068D01*
X6774042Y42964114D01*
X6659311Y43040775D01*
X6531828Y43093580D01*
X6396493Y43120500D01*
X5258507Y43120500D01*
X5123172Y43093580D01*
X4995689Y43040775D01*
X4995688Y43040774D01*
X4995686Y43040773D01*
X4880958Y42964114D01*
X4783385Y42866541D01*
X4706726Y42751813D01*
X4706725Y42751811D01*
X4653919Y42624327D01*
X4653919Y42624326D01*
X4627000Y42488993D01*
X4627000Y42351006D01*
X4653919Y42215673D01*
X4653919Y42215672D01*
X4706725Y42088188D01*
X4706726Y42088186D01*
X4783385Y41973458D01*
X4880955Y41875888D01*
X4993571Y41800640D01*
X5020146Y41760866D01*
X5010814Y41713949D01*
X4982767Y41690932D01*
X4958268Y41680784D01*
X4830598Y41595477D01*
X4722022Y41486901D01*
X4636717Y41359233D01*
X4636714Y41359229D01*
X4577955Y41217373D01*
X4577954Y41217370D01*
X4548000Y41066774D01*
X500500Y41066774D01*
X500500Y41925456D01*
X518806Y41969650D01*
X563000Y41987956D01*
X607194Y41969650D01*
X700956Y41875887D01*
X700958Y41875885D01*
X815686Y41799226D01*
X815688Y41799225D01*
X943173Y41746419D01*
X1078506Y41719500D01*
X1078507Y41719500D01*
X2216493Y41719500D01*
X2351826Y41746419D01*
X2351827Y41746419D01*
X2479311Y41799225D01*
X2479313Y41799226D01*
X2594041Y41875885D01*
X2691614Y41973458D01*
X2768273Y42088186D01*
X2768274Y42088188D01*
X2768275Y42088189D01*
X2821080Y42215672D01*
X2848000Y42351007D01*
X2848000Y42488993D01*
X2821080Y42624328D01*
X2768275Y42751811D01*
X2691614Y42866542D01*
X2594042Y42964114D01*
X2479311Y43040775D01*
X2351828Y43093580D01*
X2216493Y43120500D01*
X1078507Y43120500D01*
X943172Y43093580D01*
X815689Y43040775D01*
X815688Y43040774D01*
X815686Y43040773D01*
X700958Y42964114D01*
X607194Y42870350D01*
X563000Y42852044D01*
X518806Y42870350D01*
X500500Y42914544D01*
X500500Y45899458D01*
X518806Y45943652D01*
X563000Y45961958D01*
X607194Y45943652D01*
X620742Y45923376D01*
X632133Y45895874D01*
X632134Y45895872D01*
X736591Y45739542D01*
X869542Y45606591D01*
X1025872Y45502134D01*
X1025874Y45502133D01*
X1199584Y45430180D01*
X1383989Y45393500D01*
X1383990Y45393500D01*
X1572010Y45393500D01*
X1756415Y45430180D01*
X1756416Y45430180D01*
X1930125Y45502133D01*
X1930127Y45502134D01*
X2086457Y45606591D01*
X2219408Y45739542D01*
X2323865Y45895872D01*
X2323866Y45895874D01*
X2323867Y45895875D01*
X2395819Y46069583D01*
X2432500Y46253990D01*
X2432500Y46434068D01*
X16456450Y46434068D01*
X16456450Y46275931D01*
X16497376Y46123198D01*
X16497376Y46123196D01*
X16576441Y45986252D01*
X16576444Y45986248D01*
X16688248Y45874444D01*
X16688252Y45874441D01*
X16825197Y45795376D01*
X16977931Y45754450D01*
X16977936Y45754450D01*
X17136068Y45754450D01*
X17288801Y45795376D01*
X17288803Y45795376D01*
X17357275Y45834908D01*
X17425746Y45874440D01*
X17484300Y45932994D01*
X17528493Y45951300D01*
X23785506Y45951300D01*
X23829700Y45932994D01*
X23858976Y45903717D01*
X23888252Y45874441D01*
X24025197Y45795376D01*
X24177931Y45754450D01*
X24177936Y45754450D01*
X24336068Y45754450D01*
X24488801Y45795376D01*
X24488803Y45795376D01*
X24557275Y45834908D01*
X24625746Y45874440D01*
X24625747Y45874441D01*
X24625751Y45874444D01*
X24737555Y45986248D01*
X24737558Y45986252D01*
X24737560Y45986254D01*
X24816623Y46123196D01*
X24857550Y46275936D01*
X24857550Y46434064D01*
X24816623Y46586804D01*
X24737560Y46723746D01*
X24625746Y46835560D01*
X24488804Y46914623D01*
X24336064Y46955550D01*
X24177936Y46955550D01*
X24177933Y46955549D01*
X24177931Y46955549D01*
X24118670Y46939669D01*
X24025196Y46914623D01*
X23888254Y46835560D01*
X23829699Y46777005D01*
X23785507Y46758700D01*
X17528494Y46758700D01*
X17484300Y46777006D01*
X17425746Y46835560D01*
X17288804Y46914623D01*
X17136064Y46955550D01*
X16977936Y46955550D01*
X16977933Y46955549D01*
X16977931Y46955549D01*
X16918670Y46939669D01*
X16825196Y46914623D01*
X16688254Y46835560D01*
X16688252Y46835558D01*
X16688248Y46835555D01*
X16576444Y46723751D01*
X16576441Y46723747D01*
X16497376Y46586803D01*
X16497376Y46586801D01*
X16456450Y46434068D01*
X2432500Y46434068D01*
X2432500Y46442010D01*
X2395819Y46626417D01*
X2323867Y46800125D01*
X2219408Y46956458D01*
X2086458Y47089408D01*
X1930125Y47193867D01*
X1756417Y47265819D01*
X1572010Y47302500D01*
X1383990Y47302500D01*
X1199583Y47265819D01*
X1025875Y47193867D01*
X1025874Y47193866D01*
X1025872Y47193865D01*
X869542Y47089408D01*
X736591Y46956457D01*
X632135Y46800129D01*
X632134Y46800127D01*
X632133Y46800125D01*
X620740Y46772621D01*
X586918Y46738799D01*
X539083Y46738798D01*
X505258Y46772623D01*
X500500Y46796541D01*
X500500Y48199458D01*
X518806Y48243652D01*
X563000Y48261958D01*
X607194Y48243652D01*
X620742Y48223376D01*
X632133Y48195874D01*
X632134Y48195872D01*
X736591Y48039542D01*
X869542Y47906591D01*
X1025872Y47802134D01*
X1025874Y47802133D01*
X1199584Y47730180D01*
X1383989Y47693500D01*
X1383990Y47693500D01*
X1572010Y47693500D01*
X1756415Y47730180D01*
X1756416Y47730180D01*
X1930125Y47802133D01*
X1930127Y47802134D01*
X2086457Y47906591D01*
X2219408Y48039542D01*
X2323865Y48195872D01*
X2323866Y48195874D01*
X2323867Y48195875D01*
X2395819Y48369583D01*
X2432500Y48553990D01*
X2432500Y48742010D01*
X2395819Y48926417D01*
X2323867Y49100125D01*
X2219408Y49256458D01*
X2086458Y49389408D01*
X1930125Y49493867D01*
X1756417Y49565819D01*
X1572010Y49602500D01*
X1383990Y49602500D01*
X1199583Y49565819D01*
X1025875Y49493867D01*
X1025874Y49493866D01*
X1025872Y49493865D01*
X869542Y49389408D01*
X736591Y49256457D01*
X632135Y49100129D01*
X632134Y49100127D01*
X632133Y49100125D01*
X620740Y49072621D01*
X586918Y49038799D01*
X539083Y49038798D01*
X505258Y49072623D01*
X500500Y49096541D01*
X500500Y49990068D01*
X6130450Y49990068D01*
X6130450Y49831931D01*
X6171376Y49679198D01*
X6171376Y49679196D01*
X6250441Y49542252D01*
X6250444Y49542248D01*
X6362248Y49430444D01*
X6362252Y49430441D01*
X6499197Y49351376D01*
X6651931Y49310450D01*
X6651936Y49310450D01*
X6810068Y49310450D01*
X6962801Y49351376D01*
X6962803Y49351376D01*
X7031275Y49390908D01*
X7099746Y49430440D01*
X7099747Y49430441D01*
X7099751Y49430444D01*
X7194806Y49525499D01*
X7239000Y49543805D01*
X7283194Y49525499D01*
X7378248Y49430444D01*
X7378252Y49430441D01*
X7515197Y49351376D01*
X7667931Y49310450D01*
X7667936Y49310450D01*
X7826068Y49310450D01*
X7978801Y49351376D01*
X7978803Y49351376D01*
X8047275Y49390908D01*
X8115746Y49430440D01*
X8115747Y49430441D01*
X8115751Y49430444D01*
X8227555Y49542248D01*
X8227558Y49542252D01*
X8227560Y49542254D01*
X8306623Y49679196D01*
X8347550Y49831936D01*
X8347550Y49927400D01*
X8365856Y49971594D01*
X8410050Y49989900D01*
X11121159Y49989900D01*
X11165353Y49971594D01*
X13118681Y48018264D01*
X13118687Y48018259D01*
X13187572Y47978487D01*
X13187574Y47978486D01*
X13264402Y47957901D01*
X13264408Y47957900D01*
X13264409Y47957900D01*
X13264410Y47957900D01*
X19978771Y47957900D01*
X19978772Y47957900D01*
X19978773Y47957900D01*
X19978778Y47957901D01*
X20055606Y47978486D01*
X20055608Y47978487D01*
X20124493Y48018259D01*
X20124499Y48018264D01*
X21188192Y49081958D01*
X21232386Y49100264D01*
X21239308Y49099584D01*
X21239330Y49099801D01*
X21242383Y49099500D01*
X21242384Y49099500D01*
X21242385Y49099500D01*
X21429616Y49099500D01*
X21613249Y49136026D01*
X21786231Y49207678D01*
X21786233Y49207679D01*
X21941907Y49311697D01*
X22074302Y49444092D01*
X22178320Y49599766D01*
X22178321Y49599768D01*
X22178322Y49599769D01*
X22249973Y49772749D01*
X22286500Y49956384D01*
X22286500Y51643616D01*
X22925500Y51643616D01*
X22925500Y49956383D01*
X22962026Y49772750D01*
X23033678Y49599768D01*
X23033679Y49599766D01*
X23137697Y49444092D01*
X23270092Y49311697D01*
X23425766Y49207679D01*
X23425768Y49207678D01*
X23598750Y49136026D01*
X23782383Y49099500D01*
X23782384Y49099500D01*
X23969616Y49099500D01*
X24153249Y49136026D01*
X24326231Y49207678D01*
X24326233Y49207679D01*
X24481907Y49311697D01*
X24614302Y49444092D01*
X24718320Y49599766D01*
X24718321Y49599768D01*
X24718322Y49599769D01*
X24789973Y49772749D01*
X24826500Y49956384D01*
X24826500Y51643616D01*
X24824472Y51653810D01*
X25362000Y51653810D01*
X25362000Y50952000D01*
X26042618Y50952000D01*
X26016000Y50852661D01*
X26016000Y50747339D01*
X26042618Y50648000D01*
X25362000Y50648000D01*
X25362000Y49946189D01*
X25402503Y49742560D01*
X25402504Y49742557D01*
X25481955Y49550746D01*
X25481958Y49550742D01*
X25597304Y49378114D01*
X25744114Y49231304D01*
X25916742Y49115958D01*
X25916746Y49115955D01*
X26108560Y49036503D01*
X26263999Y49005584D01*
X26264000Y49005585D01*
X26264000Y50426617D01*
X26363339Y50400000D01*
X26468661Y50400000D01*
X26568000Y50426617D01*
X26568000Y49005584D01*
X26723439Y49036503D01*
X26915253Y49115955D01*
X26915257Y49115958D01*
X27087885Y49231304D01*
X27234695Y49378114D01*
X27350041Y49550742D01*
X27350044Y49550746D01*
X27429495Y49742557D01*
X27429496Y49742560D01*
X27469999Y49946189D01*
X27470000Y49946190D01*
X27470000Y50648000D01*
X26789382Y50648000D01*
X26816000Y50747339D01*
X26816000Y50852661D01*
X26789382Y50952000D01*
X27470000Y50952000D01*
X27470000Y51643616D01*
X28005500Y51643616D01*
X28005500Y49956383D01*
X28042026Y49772750D01*
X28113678Y49599768D01*
X28113679Y49599766D01*
X28217697Y49444092D01*
X28350092Y49311697D01*
X28505766Y49207679D01*
X28505768Y49207678D01*
X28678750Y49136026D01*
X28862383Y49099500D01*
X28862384Y49099500D01*
X29049616Y49099500D01*
X29233249Y49136026D01*
X29406231Y49207678D01*
X29406233Y49207679D01*
X29561907Y49311697D01*
X29694302Y49444092D01*
X29798320Y49599766D01*
X29798321Y49599768D01*
X29798322Y49599769D01*
X29869973Y49772749D01*
X29906500Y49956384D01*
X29906500Y51643616D01*
X30545500Y51643616D01*
X30545500Y49956383D01*
X30582026Y49772750D01*
X30653678Y49599768D01*
X30653679Y49599766D01*
X30757697Y49444092D01*
X30890092Y49311697D01*
X31045766Y49207679D01*
X31045768Y49207678D01*
X31218750Y49136026D01*
X31402383Y49099500D01*
X31402384Y49099500D01*
X31589616Y49099500D01*
X31773249Y49136026D01*
X31946231Y49207678D01*
X31946233Y49207679D01*
X32101907Y49311697D01*
X32234302Y49444092D01*
X32338320Y49599766D01*
X32338321Y49599768D01*
X32338322Y49599769D01*
X32409973Y49772749D01*
X32446500Y49956384D01*
X32446500Y51643616D01*
X33085500Y51643616D01*
X33085500Y49956383D01*
X33122026Y49772750D01*
X33193678Y49599768D01*
X33193679Y49599766D01*
X33297697Y49444092D01*
X33430092Y49311697D01*
X33585766Y49207679D01*
X33585768Y49207678D01*
X33758750Y49136026D01*
X33942383Y49099500D01*
X33942384Y49099500D01*
X34129616Y49099500D01*
X34313249Y49136026D01*
X34486231Y49207678D01*
X34486233Y49207679D01*
X34641907Y49311697D01*
X34774302Y49444092D01*
X34878320Y49599766D01*
X34878321Y49599768D01*
X34878322Y49599769D01*
X34949973Y49772749D01*
X34986500Y49956384D01*
X34986500Y51643616D01*
X35625500Y51643616D01*
X35625500Y49956383D01*
X35662026Y49772750D01*
X35733678Y49599768D01*
X35733679Y49599766D01*
X35837697Y49444092D01*
X35970092Y49311697D01*
X36125766Y49207679D01*
X36125768Y49207678D01*
X36298750Y49136026D01*
X36482383Y49099500D01*
X36482384Y49099500D01*
X36669616Y49099500D01*
X36853249Y49136026D01*
X37026231Y49207678D01*
X37026233Y49207679D01*
X37181907Y49311697D01*
X37314302Y49444092D01*
X37418320Y49599766D01*
X37418321Y49599768D01*
X37418322Y49599769D01*
X37489973Y49772749D01*
X37526500Y49956384D01*
X37526500Y51643616D01*
X38165500Y51643616D01*
X38165500Y49956383D01*
X38202026Y49772750D01*
X38273678Y49599768D01*
X38273679Y49599766D01*
X38377697Y49444092D01*
X38510092Y49311697D01*
X38665766Y49207679D01*
X38665768Y49207678D01*
X38838750Y49136026D01*
X39022383Y49099500D01*
X39022384Y49099500D01*
X39209616Y49099500D01*
X39393249Y49136026D01*
X39566231Y49207678D01*
X39566233Y49207679D01*
X39721907Y49311697D01*
X39854302Y49444092D01*
X39958320Y49599766D01*
X39958321Y49599768D01*
X39958322Y49599769D01*
X40029973Y49772749D01*
X40066500Y49956384D01*
X40066500Y51643616D01*
X40705500Y51643616D01*
X40705500Y49956383D01*
X40742026Y49772750D01*
X40813678Y49599768D01*
X40813679Y49599766D01*
X40917697Y49444092D01*
X41050092Y49311697D01*
X41205766Y49207679D01*
X41205768Y49207678D01*
X41378750Y49136026D01*
X41562383Y49099500D01*
X41562384Y49099500D01*
X41749616Y49099500D01*
X41933249Y49136026D01*
X42106231Y49207678D01*
X42106233Y49207679D01*
X42261907Y49311697D01*
X42394302Y49444092D01*
X42498320Y49599766D01*
X42498321Y49599768D01*
X42498322Y49599769D01*
X42569973Y49772749D01*
X42606500Y49956384D01*
X42606500Y51643616D01*
X44769500Y51643616D01*
X44769500Y49956383D01*
X44806026Y49772750D01*
X44877678Y49599768D01*
X44877679Y49599766D01*
X44981697Y49444092D01*
X45114092Y49311697D01*
X45269766Y49207679D01*
X45269768Y49207678D01*
X45442750Y49136026D01*
X45626383Y49099500D01*
X45626384Y49099500D01*
X45813616Y49099500D01*
X45997249Y49136026D01*
X46170231Y49207678D01*
X46170233Y49207679D01*
X46325907Y49311697D01*
X46458302Y49444092D01*
X46562320Y49599766D01*
X46562321Y49599768D01*
X46562322Y49599769D01*
X46633973Y49772749D01*
X46670500Y49956384D01*
X46670500Y51643616D01*
X47309500Y51643616D01*
X47309500Y49956383D01*
X47346026Y49772750D01*
X47417678Y49599768D01*
X47417679Y49599766D01*
X47521697Y49444092D01*
X47654092Y49311697D01*
X47809766Y49207679D01*
X47809768Y49207678D01*
X47982750Y49136026D01*
X48166383Y49099500D01*
X48166384Y49099500D01*
X48353616Y49099500D01*
X48537249Y49136026D01*
X48710231Y49207678D01*
X48710233Y49207679D01*
X48865907Y49311697D01*
X48998302Y49444092D01*
X49102320Y49599766D01*
X49102321Y49599768D01*
X49102322Y49599769D01*
X49173973Y49772749D01*
X49210500Y49956384D01*
X49210500Y51643616D01*
X49849500Y51643616D01*
X49849500Y49956383D01*
X49886026Y49772750D01*
X49957678Y49599768D01*
X49957679Y49599766D01*
X50061697Y49444092D01*
X50194092Y49311697D01*
X50349766Y49207679D01*
X50349768Y49207678D01*
X50522750Y49136026D01*
X50706383Y49099500D01*
X50706384Y49099500D01*
X50893616Y49099500D01*
X51077249Y49136026D01*
X51250231Y49207678D01*
X51250233Y49207679D01*
X51405907Y49311697D01*
X51538302Y49444092D01*
X51642320Y49599766D01*
X51642321Y49599768D01*
X51642322Y49599769D01*
X51713973Y49772749D01*
X51750500Y49956384D01*
X51750500Y51643616D01*
X52389500Y51643616D01*
X52389500Y49956383D01*
X52426026Y49772750D01*
X52497678Y49599768D01*
X52497679Y49599766D01*
X52601697Y49444092D01*
X52734092Y49311697D01*
X52889766Y49207679D01*
X52889768Y49207678D01*
X53062750Y49136026D01*
X53246383Y49099500D01*
X53246384Y49099500D01*
X53433616Y49099500D01*
X53617249Y49136026D01*
X53790231Y49207678D01*
X53790233Y49207679D01*
X53945907Y49311697D01*
X54078302Y49444092D01*
X54182320Y49599766D01*
X54182321Y49599768D01*
X54182322Y49599769D01*
X54253973Y49772749D01*
X54290500Y49956384D01*
X54290500Y51643616D01*
X54929500Y51643616D01*
X54929500Y49956383D01*
X54966026Y49772750D01*
X55037678Y49599768D01*
X55037679Y49599766D01*
X55141697Y49444092D01*
X55274092Y49311697D01*
X55429766Y49207679D01*
X55429768Y49207678D01*
X55602750Y49136026D01*
X55786383Y49099500D01*
X55786384Y49099500D01*
X55973616Y49099500D01*
X56157249Y49136026D01*
X56330231Y49207678D01*
X56330233Y49207679D01*
X56485907Y49311697D01*
X56618302Y49444092D01*
X56722320Y49599766D01*
X56722321Y49599768D01*
X56722322Y49599769D01*
X56793973Y49772749D01*
X56830500Y49956384D01*
X56830500Y51643616D01*
X57469500Y51643616D01*
X57469500Y49956383D01*
X57506026Y49772750D01*
X57577678Y49599768D01*
X57577679Y49599766D01*
X57681697Y49444092D01*
X57814092Y49311697D01*
X57969766Y49207679D01*
X57969768Y49207678D01*
X58142750Y49136026D01*
X58326383Y49099500D01*
X58326384Y49099500D01*
X58513616Y49099500D01*
X58697249Y49136026D01*
X58870231Y49207678D01*
X58870233Y49207679D01*
X59025907Y49311697D01*
X59158302Y49444092D01*
X59262320Y49599766D01*
X59262321Y49599768D01*
X59262322Y49599769D01*
X59333973Y49772749D01*
X59370500Y49956384D01*
X59370500Y51643616D01*
X60009500Y51643616D01*
X60009500Y49956383D01*
X60046026Y49772750D01*
X60117678Y49599768D01*
X60117679Y49599766D01*
X60221697Y49444092D01*
X60354092Y49311697D01*
X60509766Y49207679D01*
X60509768Y49207678D01*
X60682750Y49136026D01*
X60866383Y49099500D01*
X60866384Y49099500D01*
X61053616Y49099500D01*
X61237249Y49136026D01*
X61410231Y49207678D01*
X61410233Y49207679D01*
X61565907Y49311697D01*
X61698302Y49444092D01*
X61802320Y49599766D01*
X61802321Y49599768D01*
X61802322Y49599769D01*
X61873973Y49772749D01*
X61910500Y49956384D01*
X61910500Y51643616D01*
X62549500Y51643616D01*
X62549500Y49956383D01*
X62586026Y49772750D01*
X62657678Y49599768D01*
X62657679Y49599766D01*
X62761697Y49444092D01*
X62894092Y49311697D01*
X63049766Y49207679D01*
X63049768Y49207678D01*
X63222750Y49136026D01*
X63406383Y49099500D01*
X63406384Y49099500D01*
X63593616Y49099500D01*
X63777249Y49136026D01*
X63950231Y49207678D01*
X63950233Y49207679D01*
X64105907Y49311697D01*
X64238302Y49444092D01*
X64342320Y49599766D01*
X64342321Y49599768D01*
X64342322Y49599769D01*
X64413973Y49772749D01*
X64450500Y49956384D01*
X64450500Y51643616D01*
X64413973Y51827251D01*
X64342322Y52000231D01*
X64238302Y52155908D01*
X64105908Y52288302D01*
X63950231Y52392322D01*
X63777251Y52463973D01*
X63593616Y52500500D01*
X63406384Y52500500D01*
X63222749Y52463973D01*
X63049769Y52392322D01*
X63049768Y52392321D01*
X63049766Y52392320D01*
X62894092Y52288302D01*
X62761697Y52155907D01*
X62657679Y52000233D01*
X62657678Y52000231D01*
X62586026Y51827249D01*
X62549500Y51643616D01*
X61910500Y51643616D01*
X61873973Y51827251D01*
X61802322Y52000231D01*
X61698302Y52155908D01*
X61565908Y52288302D01*
X61410231Y52392322D01*
X61237251Y52463973D01*
X61053616Y52500500D01*
X60866384Y52500500D01*
X60682749Y52463973D01*
X60509769Y52392322D01*
X60509768Y52392321D01*
X60509766Y52392320D01*
X60354092Y52288302D01*
X60221697Y52155907D01*
X60117679Y52000233D01*
X60117678Y52000231D01*
X60046026Y51827249D01*
X60009500Y51643616D01*
X59370500Y51643616D01*
X59333973Y51827251D01*
X59262322Y52000231D01*
X59158302Y52155908D01*
X59025908Y52288302D01*
X58870231Y52392322D01*
X58697251Y52463973D01*
X58513616Y52500500D01*
X58326384Y52500500D01*
X58142749Y52463973D01*
X57969769Y52392322D01*
X57969768Y52392321D01*
X57969766Y52392320D01*
X57814092Y52288302D01*
X57681697Y52155907D01*
X57577679Y52000233D01*
X57577678Y52000231D01*
X57506026Y51827249D01*
X57469500Y51643616D01*
X56830500Y51643616D01*
X56793973Y51827251D01*
X56722322Y52000231D01*
X56618302Y52155908D01*
X56485908Y52288302D01*
X56330231Y52392322D01*
X56157251Y52463973D01*
X55973616Y52500500D01*
X55786384Y52500500D01*
X55602749Y52463973D01*
X55429769Y52392322D01*
X55429768Y52392321D01*
X55429766Y52392320D01*
X55274092Y52288302D01*
X55141697Y52155907D01*
X55037679Y52000233D01*
X55037678Y52000231D01*
X54966026Y51827249D01*
X54929500Y51643616D01*
X54290500Y51643616D01*
X54253973Y51827251D01*
X54182322Y52000231D01*
X54078302Y52155908D01*
X53945908Y52288302D01*
X53790231Y52392322D01*
X53617251Y52463973D01*
X53433616Y52500500D01*
X53246384Y52500500D01*
X53062749Y52463973D01*
X52889769Y52392322D01*
X52889768Y52392321D01*
X52889766Y52392320D01*
X52734092Y52288302D01*
X52601697Y52155907D01*
X52497679Y52000233D01*
X52497678Y52000231D01*
X52426026Y51827249D01*
X52389500Y51643616D01*
X51750500Y51643616D01*
X51713973Y51827251D01*
X51642322Y52000231D01*
X51538302Y52155908D01*
X51405908Y52288302D01*
X51250231Y52392322D01*
X51077251Y52463973D01*
X50893616Y52500500D01*
X50706384Y52500500D01*
X50522749Y52463973D01*
X50349769Y52392322D01*
X50349768Y52392321D01*
X50349766Y52392320D01*
X50194092Y52288302D01*
X50061697Y52155907D01*
X49957679Y52000233D01*
X49957678Y52000231D01*
X49886026Y51827249D01*
X49849500Y51643616D01*
X49210500Y51643616D01*
X49173973Y51827251D01*
X49102322Y52000231D01*
X48998302Y52155908D01*
X48865908Y52288302D01*
X48710231Y52392322D01*
X48537251Y52463973D01*
X48353616Y52500500D01*
X48166384Y52500500D01*
X47982749Y52463973D01*
X47809769Y52392322D01*
X47809768Y52392321D01*
X47809766Y52392320D01*
X47654092Y52288302D01*
X47521697Y52155907D01*
X47417679Y52000233D01*
X47417678Y52000231D01*
X47346026Y51827249D01*
X47309500Y51643616D01*
X46670500Y51643616D01*
X46633973Y51827251D01*
X46562322Y52000231D01*
X46458302Y52155908D01*
X46325908Y52288302D01*
X46170231Y52392322D01*
X45997251Y52463973D01*
X45813616Y52500500D01*
X45626384Y52500500D01*
X45442749Y52463973D01*
X45269769Y52392322D01*
X45269768Y52392321D01*
X45269766Y52392320D01*
X45114092Y52288302D01*
X44981697Y52155907D01*
X44877679Y52000233D01*
X44877678Y52000231D01*
X44806026Y51827249D01*
X44769500Y51643616D01*
X42606500Y51643616D01*
X42569973Y51827251D01*
X42498322Y52000231D01*
X42394302Y52155908D01*
X42261908Y52288302D01*
X42106231Y52392322D01*
X41933251Y52463973D01*
X41749616Y52500500D01*
X41562384Y52500500D01*
X41378749Y52463973D01*
X41205769Y52392322D01*
X41205768Y52392321D01*
X41205766Y52392320D01*
X41050092Y52288302D01*
X40917697Y52155907D01*
X40813679Y52000233D01*
X40813678Y52000231D01*
X40742026Y51827249D01*
X40705500Y51643616D01*
X40066500Y51643616D01*
X40029973Y51827251D01*
X39958322Y52000231D01*
X39854302Y52155908D01*
X39721908Y52288302D01*
X39566231Y52392322D01*
X39393251Y52463973D01*
X39209616Y52500500D01*
X39022384Y52500500D01*
X38838749Y52463973D01*
X38665769Y52392322D01*
X38665768Y52392321D01*
X38665766Y52392320D01*
X38510092Y52288302D01*
X38377697Y52155907D01*
X38273679Y52000233D01*
X38273678Y52000231D01*
X38202026Y51827249D01*
X38165500Y51643616D01*
X37526500Y51643616D01*
X37489973Y51827251D01*
X37418322Y52000231D01*
X37314302Y52155908D01*
X37181908Y52288302D01*
X37026231Y52392322D01*
X36853251Y52463973D01*
X36669616Y52500500D01*
X36482384Y52500500D01*
X36298749Y52463973D01*
X36125769Y52392322D01*
X36125768Y52392321D01*
X36125766Y52392320D01*
X35970092Y52288302D01*
X35837697Y52155907D01*
X35733679Y52000233D01*
X35733678Y52000231D01*
X35662026Y51827249D01*
X35625500Y51643616D01*
X34986500Y51643616D01*
X34949973Y51827251D01*
X34878322Y52000231D01*
X34774302Y52155908D01*
X34641908Y52288302D01*
X34486231Y52392322D01*
X34313251Y52463973D01*
X34129616Y52500500D01*
X33942384Y52500500D01*
X33758749Y52463973D01*
X33585769Y52392322D01*
X33585768Y52392321D01*
X33585766Y52392320D01*
X33430092Y52288302D01*
X33297697Y52155907D01*
X33193679Y52000233D01*
X33193678Y52000231D01*
X33122026Y51827249D01*
X33085500Y51643616D01*
X32446500Y51643616D01*
X32409973Y51827251D01*
X32338322Y52000231D01*
X32234302Y52155908D01*
X32101908Y52288302D01*
X31946231Y52392322D01*
X31773251Y52463973D01*
X31589616Y52500500D01*
X31402384Y52500500D01*
X31218749Y52463973D01*
X31045769Y52392322D01*
X31045768Y52392321D01*
X31045766Y52392320D01*
X30890092Y52288302D01*
X30757697Y52155907D01*
X30653679Y52000233D01*
X30653678Y52000231D01*
X30582026Y51827249D01*
X30545500Y51643616D01*
X29906500Y51643616D01*
X29869973Y51827251D01*
X29798322Y52000231D01*
X29694302Y52155908D01*
X29561908Y52288302D01*
X29406231Y52392322D01*
X29233251Y52463973D01*
X29049616Y52500500D01*
X28862384Y52500500D01*
X28678749Y52463973D01*
X28505769Y52392322D01*
X28505768Y52392321D01*
X28505766Y52392320D01*
X28350092Y52288302D01*
X28217697Y52155907D01*
X28113679Y52000233D01*
X28113678Y52000231D01*
X28042026Y51827249D01*
X28005500Y51643616D01*
X27470000Y51643616D01*
X27470000Y51653810D01*
X27429496Y51857439D01*
X27429495Y51857442D01*
X27350044Y52049253D01*
X27350041Y52049257D01*
X27234695Y52221885D01*
X27087885Y52368695D01*
X26915257Y52484041D01*
X26915253Y52484044D01*
X26723442Y52563495D01*
X26723439Y52563496D01*
X26568000Y52594414D01*
X26568000Y51173382D01*
X26468661Y51200000D01*
X26363339Y51200000D01*
X26264000Y51173382D01*
X26264000Y52594414D01*
X26263999Y52594414D01*
X26108560Y52563496D01*
X26108557Y52563495D01*
X25916746Y52484044D01*
X25916742Y52484041D01*
X25744114Y52368695D01*
X25597304Y52221885D01*
X25481958Y52049257D01*
X25481955Y52049253D01*
X25402504Y51857442D01*
X25402503Y51857439D01*
X25362000Y51653810D01*
X24824472Y51653810D01*
X24789973Y51827251D01*
X24718322Y52000231D01*
X24614302Y52155908D01*
X24481908Y52288302D01*
X24326231Y52392322D01*
X24153251Y52463973D01*
X23969616Y52500500D01*
X23782384Y52500500D01*
X23598749Y52463973D01*
X23425769Y52392322D01*
X23425768Y52392321D01*
X23425766Y52392320D01*
X23270092Y52288302D01*
X23137697Y52155907D01*
X23033679Y52000233D01*
X23033678Y52000231D01*
X22962026Y51827249D01*
X22925500Y51643616D01*
X22286500Y51643616D01*
X22249973Y51827251D01*
X22178322Y52000231D01*
X22074302Y52155908D01*
X21941908Y52288302D01*
X21786231Y52392322D01*
X21613251Y52463973D01*
X21429616Y52500500D01*
X21242384Y52500500D01*
X21058749Y52463973D01*
X20885769Y52392322D01*
X20885768Y52392321D01*
X20885766Y52392320D01*
X20730092Y52288302D01*
X20597697Y52155907D01*
X20493679Y52000233D01*
X20493678Y52000231D01*
X20422026Y51827249D01*
X20385500Y51643616D01*
X20385500Y49956383D01*
X20422026Y49772750D01*
X20493678Y49599768D01*
X20493679Y49599766D01*
X20597697Y49444092D01*
X20597699Y49444090D01*
X20602584Y49439206D01*
X20620890Y49395012D01*
X20602584Y49350818D01*
X19832172Y48580406D01*
X19787978Y48562100D01*
X18152222Y48562100D01*
X18108028Y48580406D01*
X18089722Y48624600D01*
X18108028Y48668794D01*
X18542262Y49103028D01*
X18586456Y49121334D01*
X18598649Y49120133D01*
X18702382Y49099500D01*
X18702384Y49099500D01*
X18889616Y49099500D01*
X19073249Y49136026D01*
X19246231Y49207678D01*
X19246233Y49207679D01*
X19401907Y49311697D01*
X19534302Y49444092D01*
X19638320Y49599766D01*
X19638321Y49599768D01*
X19638322Y49599769D01*
X19709973Y49772749D01*
X19746500Y49956384D01*
X19746500Y51643616D01*
X19709973Y51827251D01*
X19638322Y52000231D01*
X19534302Y52155908D01*
X19401908Y52288302D01*
X19246231Y52392322D01*
X19073251Y52463973D01*
X18889616Y52500500D01*
X18702384Y52500500D01*
X18518749Y52463973D01*
X18345769Y52392322D01*
X18345768Y52392321D01*
X18345766Y52392320D01*
X18190092Y52288302D01*
X18057697Y52155907D01*
X17953679Y52000233D01*
X17953678Y52000231D01*
X17882026Y51827249D01*
X17845500Y51643616D01*
X17845500Y49956383D01*
X17882026Y49772750D01*
X17953678Y49599768D01*
X17953680Y49599765D01*
X18017649Y49504027D01*
X18026981Y49457110D01*
X18009876Y49425110D01*
X17546172Y48961406D01*
X17501978Y48943100D01*
X15874179Y48943100D01*
X15829985Y48961406D01*
X15811679Y49005600D01*
X15829985Y49049794D01*
X15850259Y49063341D01*
X15939069Y49100127D01*
X16054665Y49148008D01*
X16054676Y49148014D01*
X16263326Y49268478D01*
X16454472Y49415148D01*
X16454482Y49415157D01*
X16624842Y49585517D01*
X16624847Y49585522D01*
X16771520Y49776671D01*
X16891989Y49985329D01*
X16984192Y50207927D01*
X16984194Y50207937D01*
X16984197Y50207943D01*
X17046551Y50440650D01*
X17046551Y50440651D01*
X17054493Y50500971D01*
X17078000Y50679531D01*
X17078000Y50920469D01*
X17046552Y51159345D01*
X17042963Y51172741D01*
X16984197Y51392056D01*
X16984195Y51392059D01*
X16984192Y51392073D01*
X16891989Y51614671D01*
X16771520Y51823329D01*
X16624847Y52014478D01*
X16454478Y52184847D01*
X16263329Y52331520D01*
X16054671Y52451989D01*
X15832073Y52544192D01*
X15832059Y52544195D01*
X15832056Y52544197D01*
X15644644Y52594414D01*
X15599345Y52606552D01*
X15360469Y52638000D01*
X15119531Y52638000D01*
X14880655Y52606552D01*
X14880651Y52606551D01*
X14880650Y52606551D01*
X14647943Y52544197D01*
X14647937Y52544194D01*
X14647927Y52544192D01*
X14425329Y52451989D01*
X14216671Y52331520D01*
X14025522Y52184847D01*
X13855153Y52014478D01*
X13711490Y51827251D01*
X13708478Y51823326D01*
X13588014Y51614676D01*
X13588008Y51614665D01*
X13544885Y51510556D01*
X13495808Y51392073D01*
X13495806Y51392067D01*
X13495802Y51392056D01*
X13433448Y51159349D01*
X13433448Y51159348D01*
X13402000Y50920473D01*
X13402000Y50679526D01*
X13433448Y50440651D01*
X13433448Y50440650D01*
X13495802Y50207943D01*
X13495809Y50207925D01*
X13588008Y49985334D01*
X13588014Y49985323D01*
X13708478Y49776673D01*
X13855148Y49585527D01*
X13855157Y49585517D01*
X14025517Y49415157D01*
X14025527Y49415148D01*
X14216673Y49268478D01*
X14425323Y49148014D01*
X14425334Y49148008D01*
X14580756Y49083630D01*
X14629739Y49063341D01*
X14663563Y49029518D01*
X14663563Y48981682D01*
X14629739Y48947858D01*
X14605821Y48943100D01*
X13613022Y48943100D01*
X13568828Y48961406D01*
X11615499Y50914735D01*
X11615494Y50914740D01*
X11546607Y50954513D01*
X11469772Y50975100D01*
X7532772Y50975100D01*
X7453228Y50975100D01*
X7453221Y50975098D01*
X7376393Y50954513D01*
X7376391Y50954512D01*
X7307506Y50914740D01*
X7307500Y50914735D01*
X6909913Y50517147D01*
X6865719Y50498841D01*
X6849548Y50500970D01*
X6810064Y50511550D01*
X6651936Y50511550D01*
X6651933Y50511549D01*
X6651931Y50511549D01*
X6612455Y50500971D01*
X6499196Y50470623D01*
X6362254Y50391560D01*
X6362252Y50391558D01*
X6362248Y50391555D01*
X6250444Y50279751D01*
X6250441Y50279747D01*
X6171376Y50142803D01*
X6171376Y50142801D01*
X6130450Y49990068D01*
X500500Y49990068D01*
X500500Y52336491D01*
X500893Y52343488D01*
X512234Y52444148D01*
X515348Y52457794D01*
X547641Y52550081D01*
X553714Y52562690D01*
X554220Y52563495D01*
X605728Y52645471D01*
X614454Y52656412D01*
X683587Y52725545D01*
X694529Y52734271D01*
X777309Y52786285D01*
X789918Y52792358D01*
X882205Y52824651D01*
X895850Y52827765D01*
X983813Y52837676D01*
X996512Y52839107D01*
X1003509Y52839500D01*
X1065892Y52839500D01*
X64282798Y52839500D01*
X64326992Y52821194D01*
G37*
%TD.AperFunction*%
%TD*%
M02*
