%TF.GenerationSoftware,KiCad,Pcbnew,10.99.0-3671-gbe90a7e200*%
%TF.CreationDate,2026-09-09T23:26:46+01:00*%
%TF.ProjectId,kicad_file,6b696361-645f-4666-996c-652e6b696361,rev?*%
%TF.SameCoordinates,Original*%
%TF.FileFunction,Legend,Top*%
%TF.FilePolarity,Positive*%
%FSLAX46Y46*%
G04 Gerber Fmt 4.6, Leading zero omitted, Abs format (unit mm)*
G04 Created by KiCad (PCBNEW 10.99.0-3671-gbe90a7e200) date 2026-09-09 23:26:46*
%MOMM*%
%LPD*%
G01*
G04 APERTURE LIST*
G04 Aperture macros list*
%AMRoundRect*
0 Rectangle with rounded corners*
0 $1 Rounding radius*
0 $2 $3 $4 $5 $6 $7 $8 $9 X,Y pos of 4 corners*
0 Add a 4 corners polygon primitive as box body*
4,1,4,$2,$3,$4,$5,$6,$7,$8,$9,$2,$3,0*
0 Add four circle primitives for the rounded corners*
1,1,$1+$1,$2,$3*
1,1,$1+$1,$4,$5*
1,1,$1+$1,$6,$7*
1,1,$1+$1,$8,$9*
0 Add four rect primitives between the rounded corners*
20,1,$1+$1,$2,$3,$4,$5,0*
20,1,$1+$1,$4,$5,$6,$7,0*
20,1,$1+$1,$6,$7,$8,$9,0*
20,1,$1+$1,$8,$9,$2,$3,0*%
G04 Aperture macros list end*
%ADD10C,0.119969*%
%ADD11C,0.093472*%
%ADD12C,0.053320*%
%ADD13C,0.074778*%
%ADD14C,0.304800*%
%ADD15C,0.127000*%
%ADD16C,0.203200*%
%ADD17C,0.000000*%
%ADD18C,0.406400*%
%ADD19C,0.500000*%
%ADD20C,4.317600*%
%ADD21RoundRect,0.050800X0.500000X-0.537500X0.500000X0.537500X-0.500000X0.537500X-0.500000X-0.537500X0*%
%ADD22RoundRect,0.050800X0.475000X0.225000X-0.475000X0.225000X-0.475000X-0.225000X0.475000X-0.225000X0*%
%ADD23RoundRect,0.050800X0.225000X-0.600000X0.225000X0.600000X-0.225000X0.600000X-0.225000X-0.600000X0*%
%ADD24RoundRect,0.050800X1.100000X0.225000X-1.100000X0.225000X-1.100000X-0.225000X1.100000X-0.225000X0*%
%ADD25RoundRect,0.050800X-0.537500X-0.500000X0.537500X-0.500000X0.537500X0.500000X-0.537500X0.500000X0*%
%ADD26RoundRect,0.050800X0.118061X0.645513X-0.618061X0.220513X-0.118061X-0.645513X0.618061X-0.220513X0*%
%ADD27RoundRect,0.050800X0.700000X0.700000X-0.700000X0.700000X-0.700000X-0.700000X0.700000X-0.700000X0*%
%ADD28RoundRect,0.050800X0.537500X0.500000X-0.537500X0.500000X-0.537500X-0.500000X0.537500X-0.500000X0*%
%ADD29RoundRect,0.050800X0.645513X-0.118061X0.220513X0.618061X-0.645513X0.118061X-0.220513X-0.618061X0*%
%ADD30RoundRect,0.050800X-0.220513X0.618061X-0.645513X-0.118061X0.220513X-0.618061X0.645513X0.118061X0*%
%ADD31C,1.508000*%
%ADD32RoundRect,0.050800X-0.500000X-0.750000X0.500000X-0.750000X0.500000X0.750000X-0.500000X0.750000X0*%
%ADD33RoundRect,0.050800X-0.500000X0.537500X-0.500000X-0.537500X0.500000X-0.537500X0.500000X0.537500X0*%
%ADD34RoundRect,0.050800X-0.118061X-0.645513X0.618061X-0.220513X0.118061X0.645513X-0.618061X0.220513X0*%
%ADD35RoundRect,0.050800X-0.600000X-0.600000X0.600000X-0.600000X0.600000X0.600000X-0.600000X0.600000X0*%
%ADD36RoundRect,0.050800X0.620000X0.750000X-0.620000X0.750000X-0.620000X-0.750000X0.620000X-0.750000X0*%
%ADD37RoundRect,0.050800X0.312500X-0.137500X0.312500X0.137500X-0.312500X0.137500X-0.312500X-0.137500X0*%
%ADD38RoundRect,0.050800X0.450000X0.800000X-0.450000X0.800000X-0.450000X-0.800000X0.450000X-0.800000X0*%
%ADD39RoundRect,0.050800X-1.100000X0.300000X-1.100000X-0.300000X1.100000X-0.300000X1.100000X0.300000X0*%
%ADD40RoundRect,0.050800X1.000000X0.600000X-1.000000X0.600000X-1.000000X-0.600000X1.000000X-0.600000X0*%
%ADD41RoundRect,0.050800X-0.645513X0.118061X-0.220513X-0.618061X0.645513X-0.118061X0.220513X0.618061X0*%
%ADD42RoundRect,0.050800X0.750000X0.750000X-0.750000X0.750000X-0.750000X-0.750000X0.750000X-0.750000X0*%
%ADD43RoundRect,0.050800X0.450000X0.450000X-0.450000X0.450000X-0.450000X-0.450000X0.450000X-0.450000X0*%
%ADD44RoundRect,0.050800X0.901500X-0.800000X0.901500X0.800000X-0.901500X0.800000X-0.901500X-0.800000X0*%
%ADD45RoundRect,0.050800X0.250000X0.125000X-0.250000X0.125000X-0.250000X-0.125000X0.250000X-0.125000X0*%
%ADD46RoundRect,0.050800X-0.125000X0.250000X-0.125000X-0.250000X0.125000X-0.250000X0.125000X0.250000X0*%
%ADD47RoundRect,0.050800X-0.250000X-0.125000X0.250000X-0.125000X0.250000X0.125000X-0.250000X0.125000X0*%
%ADD48RoundRect,0.050800X0.125000X-0.250000X0.125000X0.250000X-0.125000X0.250000X-0.125000X-0.250000X0*%
%ADD49C,1.208000*%
%ADD50RoundRect,0.050800X-0.500000X1.000000X-0.500000X-1.000000X0.500000X-1.000000X0.500000X1.000000X0*%
%ADD51O,2.387600X1.244600*%
%ADD52RoundRect,0.050800X-1.206500X1.206500X-1.206500X-1.206500X1.206500X-1.206500X1.206500X1.206500X0*%
%ADD53RoundRect,0.050800X-0.425000X-0.500000X0.425000X-0.500000X0.425000X0.500000X-0.425000X0.500000X0*%
%ADD54RoundRect,0.050800X-1.000000X-1.000000X1.000000X-1.000000X1.000000X1.000000X-1.000000X1.000000X0*%
%ADD55RoundRect,0.050800X1.060660X-0.353553X-0.353553X1.060660X-1.060660X0.353553X0.353553X-1.060660X0*%
%ADD56RoundRect,0.050800X0.220513X-0.618061X0.645513X0.118061X-0.220513X0.618061X-0.645513X-0.118061X0*%
%ADD57RoundRect,0.050800X0.618061X0.220513X-0.118061X0.645513X-0.618061X-0.220513X0.118061X-0.645513X0*%
%ADD58RoundRect,0.050800X0.425000X0.500000X-0.425000X0.500000X-0.425000X-0.500000X0.425000X-0.500000X0*%
%ADD59RoundRect,0.050800X-0.400000X-0.400000X0.400000X-0.400000X0.400000X0.400000X-0.400000X0.400000X0*%
%ADD60RoundRect,0.050800X0.500000X2.300000X-0.500000X2.300000X-0.500000X-2.300000X0.500000X-2.300000X0*%
%ADD61RoundRect,0.050800X-0.800000X1.700000X-0.800000X-1.700000X0.800000X-1.700000X0.800000X1.700000X0*%
%ADD62RoundRect,0.550800X-0.000010X-0.000010X0.000010X-0.000010X0.000010X0.000010X-0.000010X0.000010X0*%
%ADD63RoundRect,0.050800X0.125000X-0.375000X0.125000X0.375000X-0.125000X0.375000X-0.125000X-0.375000X0*%
%ADD64RoundRect,0.050800X0.375000X0.125000X-0.375000X0.125000X-0.375000X-0.125000X0.375000X-0.125000X0*%
%ADD65RoundRect,0.050800X-0.125000X0.375000X-0.125000X-0.375000X0.125000X-0.375000X0.125000X0.375000X0*%
%ADD66RoundRect,0.050800X-0.375000X-0.125000X0.375000X-0.125000X0.375000X0.125000X-0.375000X0.125000X0*%
%ADD67RoundRect,0.050800X-2.350000X-2.350000X2.350000X-2.350000X2.350000X2.350000X-2.350000X2.350000X0*%
%ADD68RoundRect,0.050800X-0.618061X-0.220513X0.118061X-0.645513X0.618061X0.220513X-0.118061X0.645513X0*%
%ADD69RoundRect,0.050800X0.508000X-0.317500X0.508000X0.317500X-0.508000X0.317500X-0.508000X-0.317500X0*%
%ADD70RoundRect,0.050800X-0.275000X-0.600000X0.275000X-0.600000X0.275000X0.600000X-0.275000X0.600000X0*%
%ADD71RoundRect,0.050800X-0.600000X0.275000X-0.600000X-0.275000X0.600000X-0.275000X0.600000X0.275000X0*%
%ADD72RoundRect,0.050800X0.300000X-0.300000X0.300000X0.300000X-0.300000X0.300000X-0.300000X-0.300000X0*%
G04 APERTURE END LIST*
D10*
X2575971Y1528789D02*
X2246052Y1297845D01*
X2575971Y1132885D02*
X1883140Y1132885D01*
X1883140Y1132885D02*
X1883140Y1396821D01*
X1883140Y1396821D02*
X1916132Y1462805D01*
X1916132Y1462805D02*
X1949124Y1495797D01*
X1949124Y1495797D02*
X2015108Y1528789D01*
X2015108Y1528789D02*
X2114084Y1528789D01*
X2114084Y1528789D02*
X2180068Y1495797D01*
X2180068Y1495797D02*
X2213060Y1462805D01*
X2213060Y1462805D02*
X2246052Y1396821D01*
X2246052Y1396821D02*
X2246052Y1132885D01*
X1949124Y1792724D02*
X1916132Y1825716D01*
X1916132Y1825716D02*
X1883140Y1891700D01*
X1883140Y1891700D02*
X1883140Y2056660D01*
X1883140Y2056660D02*
X1916132Y2122644D01*
X1916132Y2122644D02*
X1949124Y2155636D01*
X1949124Y2155636D02*
X2015108Y2188628D01*
X2015108Y2188628D02*
X2081092Y2188628D01*
X2081092Y2188628D02*
X2180068Y2155636D01*
X2180068Y2155636D02*
X2575971Y1759732D01*
X2575971Y1759732D02*
X2575971Y2188628D01*
D11*
X15218155Y-6579880D02*
X14041627Y-6579880D01*
X15106104Y-5347327D02*
X15162130Y-5403352D01*
X15162130Y-5403352D02*
X15218155Y-5571428D01*
X15218155Y-5571428D02*
X15218155Y-5683478D01*
X15218155Y-5683478D02*
X15162130Y-5851553D01*
X15162130Y-5851553D02*
X15050079Y-5963604D01*
X15050079Y-5963604D02*
X14938029Y-6019629D01*
X14938029Y-6019629D02*
X14713928Y-6075654D01*
X14713928Y-6075654D02*
X14545853Y-6075654D01*
X14545853Y-6075654D02*
X14321752Y-6019629D01*
X14321752Y-6019629D02*
X14209702Y-5963604D01*
X14209702Y-5963604D02*
X14097652Y-5851553D01*
X14097652Y-5851553D02*
X14041627Y-5683478D01*
X14041627Y-5683478D02*
X14041627Y-5571428D01*
X14041627Y-5571428D02*
X14097652Y-5403352D01*
X14097652Y-5403352D02*
X14153677Y-5347327D01*
X15218155Y-4226824D02*
X15218155Y-4899126D01*
X15218155Y-4562975D02*
X14041627Y-4562975D01*
X14041627Y-4562975D02*
X14209702Y-4675025D01*
X14209702Y-4675025D02*
X14321752Y-4787076D01*
X14321752Y-4787076D02*
X14377778Y-4899126D01*
D10*
X-3678210Y18000511D02*
X-3711202Y17967520D01*
X-3711202Y17967520D02*
X-3810178Y17934528D01*
X-3810178Y17934528D02*
X-3876162Y17934528D01*
X-3876162Y17934528D02*
X-3975138Y17967520D01*
X-3975138Y17967520D02*
X-4041122Y18033503D01*
X-4041122Y18033503D02*
X-4074114Y18099487D01*
X-4074114Y18099487D02*
X-4107106Y18231455D01*
X-4107106Y18231455D02*
X-4107106Y18330431D01*
X-4107106Y18330431D02*
X-4074114Y18462399D01*
X-4074114Y18462399D02*
X-4041122Y18528383D01*
X-4041122Y18528383D02*
X-3975138Y18594367D01*
X-3975138Y18594367D02*
X-3876162Y18627359D01*
X-3876162Y18627359D02*
X-3810178Y18627359D01*
X-3810178Y18627359D02*
X-3711202Y18594367D01*
X-3711202Y18594367D02*
X-3678210Y18561375D01*
X-3414275Y18561375D02*
X-3381283Y18594367D01*
X-3381283Y18594367D02*
X-3315299Y18627359D01*
X-3315299Y18627359D02*
X-3150339Y18627359D01*
X-3150339Y18627359D02*
X-3084355Y18594367D01*
X-3084355Y18594367D02*
X-3051363Y18561375D01*
X-3051363Y18561375D02*
X-3018371Y18495391D01*
X-3018371Y18495391D02*
X-3018371Y18429407D01*
X-3018371Y18429407D02*
X-3051363Y18330431D01*
X-3051363Y18330431D02*
X-3447267Y17934528D01*
X-3447267Y17934528D02*
X-3018371Y17934528D01*
D12*
X10418890Y-5770730D02*
X10373048Y-5816572D01*
X10373048Y-5816572D02*
X10235522Y-5862413D01*
X10235522Y-5862413D02*
X10143838Y-5862413D01*
X10143838Y-5862413D02*
X10006313Y-5816572D01*
X10006313Y-5816572D02*
X9914629Y-5724888D01*
X9914629Y-5724888D02*
X9868787Y-5633204D01*
X9868787Y-5633204D02*
X9822945Y-5449836D01*
X9822945Y-5449836D02*
X9822945Y-5312311D01*
X9822945Y-5312311D02*
X9868787Y-5128943D01*
X9868787Y-5128943D02*
X9914629Y-5037259D01*
X9914629Y-5037259D02*
X10006313Y-4945575D01*
X10006313Y-4945575D02*
X10143838Y-4899733D01*
X10143838Y-4899733D02*
X10235522Y-4899733D01*
X10235522Y-4899733D02*
X10373048Y-4945575D01*
X10373048Y-4945575D02*
X10418890Y-4991417D01*
X11244044Y-4899733D02*
X11060677Y-4899733D01*
X11060677Y-4899733D02*
X10968993Y-4945575D01*
X10968993Y-4945575D02*
X10923151Y-4991417D01*
X10923151Y-4991417D02*
X10831467Y-5128943D01*
X10831467Y-5128943D02*
X10785625Y-5312311D01*
X10785625Y-5312311D02*
X10785625Y-5679046D01*
X10785625Y-5679046D02*
X10831467Y-5770730D01*
X10831467Y-5770730D02*
X10877309Y-5816572D01*
X10877309Y-5816572D02*
X10968993Y-5862413D01*
X10968993Y-5862413D02*
X11152360Y-5862413D01*
X11152360Y-5862413D02*
X11244044Y-5816572D01*
X11244044Y-5816572D02*
X11289886Y-5770730D01*
X11289886Y-5770730D02*
X11335728Y-5679046D01*
X11335728Y-5679046D02*
X11335728Y-5449836D01*
X11335728Y-5449836D02*
X11289886Y-5358152D01*
X11289886Y-5358152D02*
X11244044Y-5312311D01*
X11244044Y-5312311D02*
X11152360Y-5266469D01*
X11152360Y-5266469D02*
X10968993Y-5266469D01*
X10968993Y-5266469D02*
X10877309Y-5312311D01*
X10877309Y-5312311D02*
X10831467Y-5358152D01*
X10831467Y-5358152D02*
X10785625Y-5449836D01*
D10*
X12383358Y7005733D02*
X12218398Y7291452D01*
X12218398Y7291452D02*
X12818408Y7637867D01*
X12813120Y6987186D02*
X12928592Y6787183D01*
X12663790Y6520011D02*
X12498830Y6805730D01*
X12498830Y6805730D02*
X13098839Y7152146D01*
X13098839Y7152146D02*
X13263799Y6866427D01*
X12812253Y6262865D02*
X13412263Y6609280D01*
X13412263Y6609280D02*
X13494743Y6466421D01*
X13494743Y6466421D02*
X13515659Y6364209D01*
X13515659Y6364209D02*
X13491507Y6274074D01*
X13491507Y6274074D02*
X13450859Y6212510D01*
X13450859Y6212510D02*
X13353068Y6117954D01*
X13353068Y6117954D02*
X13267352Y6068466D01*
X13267352Y6068466D02*
X13136568Y6031054D01*
X13136568Y6031054D02*
X13062929Y6026634D01*
X13062929Y6026634D02*
X12972793Y6050786D01*
X12972793Y6050786D02*
X12894733Y6120005D01*
X12894733Y6120005D02*
X12812253Y6262865D01*
X13707139Y5636652D02*
X13307133Y5405709D01*
X13853234Y5911479D02*
X13342176Y5806899D01*
X13342176Y5806899D02*
X13556624Y5435465D01*
D12*
X-249109Y-13644730D02*
X-294951Y-13690572D01*
X-294951Y-13690572D02*
X-432477Y-13736413D01*
X-432477Y-13736413D02*
X-524161Y-13736413D01*
X-524161Y-13736413D02*
X-661686Y-13690572D01*
X-661686Y-13690572D02*
X-753370Y-13598888D01*
X-753370Y-13598888D02*
X-799212Y-13507204D01*
X-799212Y-13507204D02*
X-845054Y-13323836D01*
X-845054Y-13323836D02*
X-845054Y-13186311D01*
X-845054Y-13186311D02*
X-799212Y-13002943D01*
X-799212Y-13002943D02*
X-753370Y-12911259D01*
X-753370Y-12911259D02*
X-661686Y-12819575D01*
X-661686Y-12819575D02*
X-524161Y-12773733D01*
X-524161Y-12773733D02*
X-432477Y-12773733D01*
X-432477Y-12773733D02*
X-294951Y-12819575D01*
X-294951Y-12819575D02*
X-249109Y-12865417D01*
X621886Y-12773733D02*
X163467Y-12773733D01*
X163467Y-12773733D02*
X117625Y-13232152D01*
X117625Y-13232152D02*
X163467Y-13186311D01*
X163467Y-13186311D02*
X255151Y-13140469D01*
X255151Y-13140469D02*
X484360Y-13140469D01*
X484360Y-13140469D02*
X576044Y-13186311D01*
X576044Y-13186311D02*
X621886Y-13232152D01*
X621886Y-13232152D02*
X667728Y-13323836D01*
X667728Y-13323836D02*
X667728Y-13553046D01*
X667728Y-13553046D02*
X621886Y-13644730D01*
X621886Y-13644730D02*
X576044Y-13690572D01*
X576044Y-13690572D02*
X484360Y-13736413D01*
X484360Y-13736413D02*
X255151Y-13736413D01*
X255151Y-13736413D02*
X163467Y-13690572D01*
X163467Y-13690572D02*
X117625Y-13644730D01*
X3653017Y15402144D02*
X3299937Y15402144D01*
X3299937Y15402144D02*
X3299937Y15486211D01*
X3299937Y15486211D02*
X3316750Y15536651D01*
X3316750Y15536651D02*
X3350377Y15570278D01*
X3350377Y15570278D02*
X3384004Y15587091D01*
X3384004Y15587091D02*
X3451257Y15603904D01*
X3451257Y15603904D02*
X3501697Y15603904D01*
X3501697Y15603904D02*
X3568950Y15587091D01*
X3568950Y15587091D02*
X3602577Y15570278D01*
X3602577Y15570278D02*
X3636204Y15536651D01*
X3636204Y15536651D02*
X3653017Y15486211D01*
X3653017Y15486211D02*
X3653017Y15402144D01*
X3653017Y15940171D02*
X3653017Y15738411D01*
X3653017Y15839291D02*
X3299937Y15839291D01*
X3299937Y15839291D02*
X3350377Y15805664D01*
X3350377Y15805664D02*
X3384004Y15772038D01*
X3384004Y15772038D02*
X3400817Y15738411D01*
X-7775569Y17016155D02*
X-8181129Y17595527D01*
X-8470815Y17016155D02*
X-8470815Y18232835D01*
X-8470815Y18232835D02*
X-8007318Y18232835D01*
X-8007318Y18232835D02*
X-7891443Y18174898D01*
X-7891443Y18174898D02*
X-7833506Y18116961D01*
X-7833506Y18116961D02*
X-7775569Y18001087D01*
X-7775569Y18001087D02*
X-7775569Y17827275D01*
X-7775569Y17827275D02*
X-7833506Y17711401D01*
X-7833506Y17711401D02*
X-7891443Y17653464D01*
X-7891443Y17653464D02*
X-8007318Y17595527D01*
X-8007318Y17595527D02*
X-8470815Y17595527D01*
X-7370009Y18232835D02*
X-6616826Y18232835D01*
X-6616826Y18232835D02*
X-7022386Y17769338D01*
X-7022386Y17769338D02*
X-6848575Y17769338D01*
X-6848575Y17769338D02*
X-6732701Y17711401D01*
X-6732701Y17711401D02*
X-6674763Y17653464D01*
X-6674763Y17653464D02*
X-6616826Y17537590D01*
X-6616826Y17537590D02*
X-6616826Y17247904D01*
X-6616826Y17247904D02*
X-6674763Y17132030D01*
X-6674763Y17132030D02*
X-6732701Y17074093D01*
X-6732701Y17074093D02*
X-6848575Y17016155D01*
X-6848575Y17016155D02*
X-7196198Y17016155D01*
X-7196198Y17016155D02*
X-7312072Y17074093D01*
X-7312072Y17074093D02*
X-7370009Y17132030D01*
D10*
X6358133Y-13576014D02*
X6072415Y-13740974D01*
X6072415Y-13740974D02*
X5725999Y-13140965D01*
X6376681Y-13146252D02*
X6576684Y-13030780D01*
X6843855Y-13295583D02*
X6558136Y-13460543D01*
X6558136Y-13460543D02*
X6211721Y-12860533D01*
X6211721Y-12860533D02*
X6497440Y-12695574D01*
X7101002Y-13147119D02*
X6754586Y-12547110D01*
X6754586Y-12547110D02*
X6897446Y-12464630D01*
X6897446Y-12464630D02*
X6999657Y-12443714D01*
X6999657Y-12443714D02*
X7089793Y-12467866D01*
X7089793Y-12467866D02*
X7151357Y-12508513D01*
X7151357Y-12508513D02*
X7245912Y-12606305D01*
X7245912Y-12606305D02*
X7295400Y-12692020D01*
X7295400Y-12692020D02*
X7332812Y-12822804D01*
X7332812Y-12822804D02*
X7337233Y-12896444D01*
X7337233Y-12896444D02*
X7313081Y-12986579D01*
X7313081Y-12986579D02*
X7243861Y-13064639D01*
X7243861Y-13064639D02*
X7101002Y-13147119D01*
X7359016Y-12274334D02*
X7371091Y-12229266D01*
X7371091Y-12229266D02*
X7411739Y-12167702D01*
X7411739Y-12167702D02*
X7554599Y-12085222D01*
X7554599Y-12085222D02*
X7628238Y-12080802D01*
X7628238Y-12080802D02*
X7673306Y-12092878D01*
X7673306Y-12092878D02*
X7734870Y-12133526D01*
X7734870Y-12133526D02*
X7767862Y-12190670D01*
X7767862Y-12190670D02*
X7788778Y-12292881D01*
X7788778Y-12292881D02*
X7643867Y-12833695D01*
X7643867Y-12833695D02*
X8015302Y-12619248D01*
X-10992071Y10202416D02*
X-11223015Y10532335D01*
X-11387975Y10202416D02*
X-11387975Y10895247D01*
X-11387975Y10895247D02*
X-11124039Y10895247D01*
X-11124039Y10895247D02*
X-11058055Y10862255D01*
X-11058055Y10862255D02*
X-11025063Y10829263D01*
X-11025063Y10829263D02*
X-10992071Y10763279D01*
X-10992071Y10763279D02*
X-10992071Y10664303D01*
X-10992071Y10664303D02*
X-11025063Y10598319D01*
X-11025063Y10598319D02*
X-11058055Y10565327D01*
X-11058055Y10565327D02*
X-11124039Y10532335D01*
X-11124039Y10532335D02*
X-11387975Y10532335D01*
X-10332232Y10202416D02*
X-10728136Y10202416D01*
X-10530184Y10202416D02*
X-10530184Y10895247D01*
X-10530184Y10895247D02*
X-10596168Y10796271D01*
X-10596168Y10796271D02*
X-10662152Y10730287D01*
X-10662152Y10730287D02*
X-10728136Y10697295D01*
X-9903337Y10895247D02*
X-9837353Y10895247D01*
X-9837353Y10895247D02*
X-9771369Y10862255D01*
X-9771369Y10862255D02*
X-9738377Y10829263D01*
X-9738377Y10829263D02*
X-9705385Y10763279D01*
X-9705385Y10763279D02*
X-9672393Y10631311D01*
X-9672393Y10631311D02*
X-9672393Y10466351D01*
X-9672393Y10466351D02*
X-9705385Y10334383D01*
X-9705385Y10334383D02*
X-9738377Y10268399D01*
X-9738377Y10268399D02*
X-9771369Y10235408D01*
X-9771369Y10235408D02*
X-9837353Y10202416D01*
X-9837353Y10202416D02*
X-9903337Y10202416D01*
X-9903337Y10202416D02*
X-9969321Y10235408D01*
X-9969321Y10235408D02*
X-10002313Y10268399D01*
X-10002313Y10268399D02*
X-10035305Y10334383D01*
X-10035305Y10334383D02*
X-10068297Y10466351D01*
X-10068297Y10466351D02*
X-10068297Y10631311D01*
X-10068297Y10631311D02*
X-10035305Y10763279D01*
X-10035305Y10763279D02*
X-10002313Y10829263D01*
X-10002313Y10829263D02*
X-9969321Y10862255D01*
X-9969321Y10862255D02*
X-9903337Y10895247D01*
X6879678Y12475785D02*
X6593959Y12640745D01*
X6593959Y12640745D02*
X6940375Y13240754D01*
X7261137Y12674604D02*
X7461140Y12559132D01*
X7365400Y12195353D02*
X7079681Y12360313D01*
X7079681Y12360313D02*
X7426096Y12960322D01*
X7426096Y12960322D02*
X7711815Y12795363D01*
X7622546Y12046890D02*
X7968962Y12646899D01*
X7968962Y12646899D02*
X8111821Y12564419D01*
X8111821Y12564419D02*
X8181041Y12486359D01*
X8181041Y12486359D02*
X8205193Y12396224D01*
X8205193Y12396224D02*
X8200773Y12322584D01*
X8200773Y12322584D02*
X8163361Y12191800D01*
X8163361Y12191800D02*
X8113873Y12106085D01*
X8113873Y12106085D02*
X8019317Y12008293D01*
X8019317Y12008293D02*
X7957753Y11967645D01*
X7957753Y11967645D02*
X7867617Y11943494D01*
X7867617Y11943494D02*
X7765406Y11964410D01*
X7765406Y11964410D02*
X7622546Y12046890D01*
X8854690Y12135524D02*
X8568971Y12300483D01*
X8568971Y12300483D02*
X8375439Y12031261D01*
X8375439Y12031261D02*
X8420507Y12043337D01*
X8420507Y12043337D02*
X8494147Y12038916D01*
X8494147Y12038916D02*
X8637006Y11956437D01*
X8637006Y11956437D02*
X8677654Y11894873D01*
X8677654Y11894873D02*
X8689730Y11849805D01*
X8689730Y11849805D02*
X8685310Y11776165D01*
X8685310Y11776165D02*
X8602830Y11633306D01*
X8602830Y11633306D02*
X8541266Y11592658D01*
X8541266Y11592658D02*
X8496198Y11580582D01*
X8496198Y11580582D02*
X8422559Y11585002D01*
X8422559Y11585002D02*
X8279699Y11667482D01*
X8279699Y11667482D02*
X8239052Y11729046D01*
X8239052Y11729046D02*
X8226976Y11774114D01*
D12*
X4097517Y-22443855D02*
X3744437Y-22443855D01*
X3744437Y-22443855D02*
X3744437Y-22359788D01*
X3744437Y-22359788D02*
X3761250Y-22309348D01*
X3761250Y-22309348D02*
X3794877Y-22275722D01*
X3794877Y-22275722D02*
X3828504Y-22258908D01*
X3828504Y-22258908D02*
X3895757Y-22242095D01*
X3895757Y-22242095D02*
X3946197Y-22242095D01*
X3946197Y-22242095D02*
X4013450Y-22258908D01*
X4013450Y-22258908D02*
X4047077Y-22275722D01*
X4047077Y-22275722D02*
X4080704Y-22309348D01*
X4080704Y-22309348D02*
X4097517Y-22359788D01*
X4097517Y-22359788D02*
X4097517Y-22443855D01*
X3778064Y-22107588D02*
X3761250Y-22090775D01*
X3761250Y-22090775D02*
X3744437Y-22057148D01*
X3744437Y-22057148D02*
X3744437Y-21973082D01*
X3744437Y-21973082D02*
X3761250Y-21939455D01*
X3761250Y-21939455D02*
X3778064Y-21922642D01*
X3778064Y-21922642D02*
X3811690Y-21905828D01*
X3811690Y-21905828D02*
X3845317Y-21905828D01*
X3845317Y-21905828D02*
X3895757Y-21922642D01*
X3895757Y-21922642D02*
X4097517Y-22124402D01*
X4097517Y-22124402D02*
X4097517Y-21905828D01*
D13*
X-4163896Y-10888523D02*
X-4119075Y-10754063D01*
X-4119075Y-10754063D02*
X-4119075Y-10529962D01*
X-4119075Y-10529962D02*
X-4163896Y-10440322D01*
X-4163896Y-10440322D02*
X-4208716Y-10395502D01*
X-4208716Y-10395502D02*
X-4298356Y-10350682D01*
X-4298356Y-10350682D02*
X-4387996Y-10350682D01*
X-4387996Y-10350682D02*
X-4477636Y-10395502D01*
X-4477636Y-10395502D02*
X-4522456Y-10440322D01*
X-4522456Y-10440322D02*
X-4567276Y-10529962D01*
X-4567276Y-10529962D02*
X-4612096Y-10709243D01*
X-4612096Y-10709243D02*
X-4656917Y-10798883D01*
X-4656917Y-10798883D02*
X-4701737Y-10843703D01*
X-4701737Y-10843703D02*
X-4791377Y-10888523D01*
X-4791377Y-10888523D02*
X-4881017Y-10888523D01*
X-4881017Y-10888523D02*
X-4970657Y-10843703D01*
X-4970657Y-10843703D02*
X-5015477Y-10798883D01*
X-5015477Y-10798883D02*
X-5060297Y-10709243D01*
X-5060297Y-10709243D02*
X-5060297Y-10485142D01*
X-5060297Y-10485142D02*
X-5015477Y-10350682D01*
X-5060297Y-10036941D02*
X-4119075Y-9812841D01*
X-4119075Y-9812841D02*
X-4791377Y-9633560D01*
X-4791377Y-9633560D02*
X-4119075Y-9454280D01*
X-4119075Y-9454280D02*
X-5060297Y-9230180D01*
X-4119075Y-8871619D02*
X-5060297Y-8871619D01*
X-5060297Y-8557878D02*
X-5060297Y-8020037D01*
X-4119075Y-8288958D02*
X-5060297Y-8288958D01*
X-4208716Y-7168455D02*
X-4163896Y-7213275D01*
X-4163896Y-7213275D02*
X-4119075Y-7347735D01*
X-4119075Y-7347735D02*
X-4119075Y-7437375D01*
X-4119075Y-7437375D02*
X-4163896Y-7571836D01*
X-4163896Y-7571836D02*
X-4253536Y-7661476D01*
X-4253536Y-7661476D02*
X-4343176Y-7706296D01*
X-4343176Y-7706296D02*
X-4522456Y-7751116D01*
X-4522456Y-7751116D02*
X-4656917Y-7751116D01*
X-4656917Y-7751116D02*
X-4836197Y-7706296D01*
X-4836197Y-7706296D02*
X-4925837Y-7661476D01*
X-4925837Y-7661476D02*
X-5015477Y-7571836D01*
X-5015477Y-7571836D02*
X-5060297Y-7437375D01*
X-5060297Y-7437375D02*
X-5060297Y-7347735D01*
X-5060297Y-7347735D02*
X-5015477Y-7213275D01*
X-5015477Y-7213275D02*
X-4970657Y-7168455D01*
X-4119075Y-6765074D02*
X-5060297Y-6765074D01*
X-4612096Y-6765074D02*
X-4612096Y-6227233D01*
X-4119075Y-6227233D02*
X-5060297Y-6227233D01*
X-5060297Y-5599752D02*
X-5060297Y-5510111D01*
X-5060297Y-5510111D02*
X-5015477Y-5420471D01*
X-5015477Y-5420471D02*
X-4970657Y-5375651D01*
X-4970657Y-5375651D02*
X-4881017Y-5330831D01*
X-4881017Y-5330831D02*
X-4701737Y-5286011D01*
X-4701737Y-5286011D02*
X-4477636Y-5286011D01*
X-4477636Y-5286011D02*
X-4298356Y-5330831D01*
X-4298356Y-5330831D02*
X-4208716Y-5375651D01*
X-4208716Y-5375651D02*
X-4163896Y-5420471D01*
X-4163896Y-5420471D02*
X-4119075Y-5510111D01*
X-4119075Y-5510111D02*
X-4119075Y-5599752D01*
X-4119075Y-5599752D02*
X-4163896Y-5689392D01*
X-4163896Y-5689392D02*
X-4208716Y-5734212D01*
X-4208716Y-5734212D02*
X-4298356Y-5779032D01*
X-4298356Y-5779032D02*
X-4477636Y-5823852D01*
X-4477636Y-5823852D02*
X-4701737Y-5823852D01*
X-4701737Y-5823852D02*
X-4881017Y-5779032D01*
X-4881017Y-5779032D02*
X-4970657Y-5734212D01*
X-4970657Y-5734212D02*
X-5015477Y-5689392D01*
X-5015477Y-5689392D02*
X-5060297Y-5599752D01*
D10*
X-9249916Y8146267D02*
X-9579835Y7915323D01*
X-9249916Y7750363D02*
X-9942747Y7750363D01*
X-9942747Y7750363D02*
X-9942747Y8014299D01*
X-9942747Y8014299D02*
X-9909755Y8080283D01*
X-9909755Y8080283D02*
X-9876763Y8113275D01*
X-9876763Y8113275D02*
X-9810779Y8146267D01*
X-9810779Y8146267D02*
X-9711803Y8146267D01*
X-9711803Y8146267D02*
X-9645819Y8113275D01*
X-9645819Y8113275D02*
X-9612827Y8080283D01*
X-9612827Y8080283D02*
X-9579835Y8014299D01*
X-9579835Y8014299D02*
X-9579835Y7750363D01*
X-9711803Y8740122D02*
X-9249916Y8740122D01*
X-9975739Y8575162D02*
X-9480859Y8410202D01*
X-9480859Y8410202D02*
X-9480859Y8839098D01*
X-13576014Y-6612133D02*
X-13740974Y-6326415D01*
X-13740974Y-6326415D02*
X-13140965Y-5979999D01*
X-13146252Y-6630681D02*
X-13030780Y-6830684D01*
X-13295583Y-7097855D02*
X-13460543Y-6812136D01*
X-13460543Y-6812136D02*
X-12860533Y-6465721D01*
X-12860533Y-6465721D02*
X-12695574Y-6751440D01*
X-13147119Y-7355002D02*
X-12547110Y-7008586D01*
X-12547110Y-7008586D02*
X-12464630Y-7151446D01*
X-12464630Y-7151446D02*
X-12443714Y-7253657D01*
X-12443714Y-7253657D02*
X-12467866Y-7343793D01*
X-12467866Y-7343793D02*
X-12508513Y-7405357D01*
X-12508513Y-7405357D02*
X-12606305Y-7499912D01*
X-12606305Y-7499912D02*
X-12692020Y-7549400D01*
X-12692020Y-7549400D02*
X-12822804Y-7586812D01*
X-12822804Y-7586812D02*
X-12896444Y-7591233D01*
X-12896444Y-7591233D02*
X-12986579Y-7567081D01*
X-12986579Y-7567081D02*
X-13064639Y-7497861D01*
X-13064639Y-7497861D02*
X-13147119Y-7355002D01*
X-12784208Y-7983583D02*
X-12718224Y-8097870D01*
X-12718224Y-8097870D02*
X-12656660Y-8138518D01*
X-12656660Y-8138518D02*
X-12611592Y-8150594D01*
X-12611592Y-8150594D02*
X-12492884Y-8158250D01*
X-12492884Y-8158250D02*
X-12362101Y-8120838D01*
X-12362101Y-8120838D02*
X-12133526Y-7988870D01*
X-12133526Y-7988870D02*
X-12092878Y-7927306D01*
X-12092878Y-7927306D02*
X-12080802Y-7882238D01*
X-12080802Y-7882238D02*
X-12085222Y-7808599D01*
X-12085222Y-7808599D02*
X-12151206Y-7694311D01*
X-12151206Y-7694311D02*
X-12212770Y-7653663D01*
X-12212770Y-7653663D02*
X-12257838Y-7641587D01*
X-12257838Y-7641587D02*
X-12331478Y-7646008D01*
X-12331478Y-7646008D02*
X-12474337Y-7728487D01*
X-12474337Y-7728487D02*
X-12514985Y-7790051D01*
X-12514985Y-7790051D02*
X-12527061Y-7835119D01*
X-12527061Y-7835119D02*
X-12522641Y-7908759D01*
X-12522641Y-7908759D02*
X-12456657Y-8023046D01*
X-12456657Y-8023046D02*
X-12395093Y-8063694D01*
X-12395093Y-8063694D02*
X-12350025Y-8075770D01*
X-12350025Y-8075770D02*
X-12276385Y-8071350D01*
D12*
X4801329Y21732135D02*
X4801329Y21152763D01*
X4801329Y21152763D02*
X3584649Y21152763D01*
X3584649Y22369443D02*
X3584649Y22485317D01*
X3584649Y22485317D02*
X3642586Y22601191D01*
X3642586Y22601191D02*
X3700523Y22659129D01*
X3700523Y22659129D02*
X3816397Y22717066D01*
X3816397Y22717066D02*
X4048146Y22775003D01*
X4048146Y22775003D02*
X4337832Y22775003D01*
X4337832Y22775003D02*
X4569580Y22717066D01*
X4569580Y22717066D02*
X4685454Y22659129D01*
X4685454Y22659129D02*
X4743392Y22601191D01*
X4743392Y22601191D02*
X4801329Y22485317D01*
X4801329Y22485317D02*
X4801329Y22369443D01*
X4801329Y22369443D02*
X4743392Y22253569D01*
X4743392Y22253569D02*
X4685454Y22195631D01*
X4685454Y22195631D02*
X4569580Y22137694D01*
X4569580Y22137694D02*
X4337832Y22079757D01*
X4337832Y22079757D02*
X4048146Y22079757D01*
X4048146Y22079757D02*
X3816397Y22137694D01*
X3816397Y22137694D02*
X3700523Y22195631D01*
X3700523Y22195631D02*
X3642586Y22253569D01*
X3642586Y22253569D02*
X3584649Y22369443D01*
X3293716Y-16076565D02*
X3247874Y-16122407D01*
X3247874Y-16122407D02*
X3110348Y-16168248D01*
X3110348Y-16168248D02*
X3018664Y-16168248D01*
X3018664Y-16168248D02*
X2881139Y-16122407D01*
X2881139Y-16122407D02*
X2789455Y-16030723D01*
X2789455Y-16030723D02*
X2743613Y-15939039D01*
X2743613Y-15939039D02*
X2697771Y-15755671D01*
X2697771Y-15755671D02*
X2697771Y-15618146D01*
X2697771Y-15618146D02*
X2743613Y-15434778D01*
X2743613Y-15434778D02*
X2789455Y-15343094D01*
X2789455Y-15343094D02*
X2881139Y-15251410D01*
X2881139Y-15251410D02*
X3018664Y-15205568D01*
X3018664Y-15205568D02*
X3110348Y-15205568D01*
X3110348Y-15205568D02*
X3247874Y-15251410D01*
X3247874Y-15251410D02*
X3293716Y-15297252D01*
X4118870Y-15526462D02*
X4118870Y-16168248D01*
X3889661Y-15159727D02*
X3660451Y-15847355D01*
X3660451Y-15847355D02*
X4256396Y-15847355D01*
D10*
X5080640Y-4707114D02*
X5641504Y-4707114D01*
X5641504Y-4707114D02*
X5707488Y-4674122D01*
X5707488Y-4674122D02*
X5740480Y-4641130D01*
X5740480Y-4641130D02*
X5773471Y-4575146D01*
X5773471Y-4575146D02*
X5773471Y-4443178D01*
X5773471Y-4443178D02*
X5740480Y-4377194D01*
X5740480Y-4377194D02*
X5707488Y-4344202D01*
X5707488Y-4344202D02*
X5641504Y-4311210D01*
X5641504Y-4311210D02*
X5080640Y-4311210D01*
X5773471Y-3618379D02*
X5773471Y-4014283D01*
X5773471Y-3816331D02*
X5080640Y-3816331D01*
X5080640Y-3816331D02*
X5179616Y-3882315D01*
X5179616Y-3882315D02*
X5245600Y-3948299D01*
X5245600Y-3948299D02*
X5278592Y-4014283D01*
X-290747Y16797871D02*
X270116Y16797871D01*
X270116Y16797871D02*
X336100Y16830863D01*
X336100Y16830863D02*
X369092Y16863855D01*
X369092Y16863855D02*
X402083Y16929839D01*
X402083Y16929839D02*
X402083Y17061807D01*
X402083Y17061807D02*
X369092Y17127791D01*
X369092Y17127791D02*
X336100Y17160783D01*
X336100Y17160783D02*
X270116Y17193775D01*
X270116Y17193775D02*
X-290747Y17193775D01*
X-59803Y17820622D02*
X402083Y17820622D01*
X-323739Y17655662D02*
X171140Y17490702D01*
X171140Y17490702D02*
X171140Y17919598D01*
X-8789443Y-3170592D02*
X-8690467Y-3203583D01*
X-8690467Y-3203583D02*
X-8525507Y-3203583D01*
X-8525507Y-3203583D02*
X-8459523Y-3170592D01*
X-8459523Y-3170592D02*
X-8426531Y-3137600D01*
X-8426531Y-3137600D02*
X-8393539Y-3071616D01*
X-8393539Y-3071616D02*
X-8393539Y-3005632D01*
X-8393539Y-3005632D02*
X-8426531Y-2939648D01*
X-8426531Y-2939648D02*
X-8459523Y-2906656D01*
X-8459523Y-2906656D02*
X-8525507Y-2873664D01*
X-8525507Y-2873664D02*
X-8657475Y-2840672D01*
X-8657475Y-2840672D02*
X-8723459Y-2807680D01*
X-8723459Y-2807680D02*
X-8756451Y-2774688D01*
X-8756451Y-2774688D02*
X-8789443Y-2708704D01*
X-8789443Y-2708704D02*
X-8789443Y-2642720D01*
X-8789443Y-2642720D02*
X-8756451Y-2576736D01*
X-8756451Y-2576736D02*
X-8723459Y-2543744D01*
X-8723459Y-2543744D02*
X-8657475Y-2510752D01*
X-8657475Y-2510752D02*
X-8492515Y-2510752D01*
X-8492515Y-2510752D02*
X-8393539Y-2543744D01*
X-8162596Y-2510752D02*
X-7997636Y-3203583D01*
X-7997636Y-3203583D02*
X-7865668Y-2708704D01*
X-7865668Y-2708704D02*
X-7733700Y-3203583D01*
X-7733700Y-3203583D02*
X-7568741Y-2510752D01*
X-6941893Y-3203583D02*
X-7337797Y-3203583D01*
X-7139845Y-3203583D02*
X-7139845Y-2510752D01*
X-7139845Y-2510752D02*
X-7205829Y-2609728D01*
X-7205829Y-2609728D02*
X-7271813Y-2675712D01*
X-7271813Y-2675712D02*
X-7337797Y-2708704D01*
X11022556Y-3170592D02*
X11121532Y-3203583D01*
X11121532Y-3203583D02*
X11286492Y-3203583D01*
X11286492Y-3203583D02*
X11352476Y-3170592D01*
X11352476Y-3170592D02*
X11385468Y-3137600D01*
X11385468Y-3137600D02*
X11418460Y-3071616D01*
X11418460Y-3071616D02*
X11418460Y-3005632D01*
X11418460Y-3005632D02*
X11385468Y-2939648D01*
X11385468Y-2939648D02*
X11352476Y-2906656D01*
X11352476Y-2906656D02*
X11286492Y-2873664D01*
X11286492Y-2873664D02*
X11154524Y-2840672D01*
X11154524Y-2840672D02*
X11088540Y-2807680D01*
X11088540Y-2807680D02*
X11055548Y-2774688D01*
X11055548Y-2774688D02*
X11022556Y-2708704D01*
X11022556Y-2708704D02*
X11022556Y-2642720D01*
X11022556Y-2642720D02*
X11055548Y-2576736D01*
X11055548Y-2576736D02*
X11088540Y-2543744D01*
X11088540Y-2543744D02*
X11154524Y-2510752D01*
X11154524Y-2510752D02*
X11319484Y-2510752D01*
X11319484Y-2510752D02*
X11418460Y-2543744D01*
X11649403Y-2510752D02*
X11814363Y-3203583D01*
X11814363Y-3203583D02*
X11946331Y-2708704D01*
X11946331Y-2708704D02*
X12078299Y-3203583D01*
X12078299Y-3203583D02*
X12243259Y-2510752D01*
X12474202Y-2576736D02*
X12507194Y-2543744D01*
X12507194Y-2543744D02*
X12573178Y-2510752D01*
X12573178Y-2510752D02*
X12738138Y-2510752D01*
X12738138Y-2510752D02*
X12804122Y-2543744D01*
X12804122Y-2543744D02*
X12837114Y-2576736D01*
X12837114Y-2576736D02*
X12870106Y-2642720D01*
X12870106Y-2642720D02*
X12870106Y-2708704D01*
X12870106Y-2708704D02*
X12837114Y-2807680D01*
X12837114Y-2807680D02*
X12441210Y-3203583D01*
X12441210Y-3203583D02*
X12870106Y-3203583D01*
X-7513733Y12383358D02*
X-7799452Y12218398D01*
X-7799452Y12218398D02*
X-8145867Y12818408D01*
X-7495186Y12813120D02*
X-7295183Y12928592D01*
X-7028011Y12663790D02*
X-7313730Y12498830D01*
X-7313730Y12498830D02*
X-7660146Y13098839D01*
X-7660146Y13098839D02*
X-7374427Y13263799D01*
X-6770865Y12812253D02*
X-7117280Y13412263D01*
X-7117280Y13412263D02*
X-6974421Y13494743D01*
X-6974421Y13494743D02*
X-6872209Y13515659D01*
X-6872209Y13515659D02*
X-6782074Y13491507D01*
X-6782074Y13491507D02*
X-6720510Y13450859D01*
X-6720510Y13450859D02*
X-6625954Y13353068D01*
X-6625954Y13353068D02*
X-6576466Y13267352D01*
X-6576466Y13267352D02*
X-6539054Y13136568D01*
X-6539054Y13136568D02*
X-6534634Y13062929D01*
X-6534634Y13062929D02*
X-6558786Y12972793D01*
X-6558786Y12972793D02*
X-6628005Y12894733D01*
X-6628005Y12894733D02*
X-6770865Y12812253D01*
X-6260124Y13907142D02*
X-6374412Y13841158D01*
X-6374412Y13841158D02*
X-6415059Y13779594D01*
X-6415059Y13779594D02*
X-6427135Y13734526D01*
X-6427135Y13734526D02*
X-6434791Y13615819D01*
X-6434791Y13615819D02*
X-6397379Y13485035D01*
X-6397379Y13485035D02*
X-6265411Y13256460D01*
X-6265411Y13256460D02*
X-6203847Y13215813D01*
X-6203847Y13215813D02*
X-6158780Y13203737D01*
X-6158780Y13203737D02*
X-6085140Y13208157D01*
X-6085140Y13208157D02*
X-5970852Y13274141D01*
X-5970852Y13274141D02*
X-5930205Y13335705D01*
X-5930205Y13335705D02*
X-5918129Y13380772D01*
X-5918129Y13380772D02*
X-5922549Y13454412D01*
X-5922549Y13454412D02*
X-6005029Y13597271D01*
X-6005029Y13597271D02*
X-6066592Y13637919D01*
X-6066592Y13637919D02*
X-6111660Y13649995D01*
X-6111660Y13649995D02*
X-6185300Y13645575D01*
X-6185300Y13645575D02*
X-6299588Y13579591D01*
X-6299588Y13579591D02*
X-6340235Y13518027D01*
X-6340235Y13518027D02*
X-6352311Y13472959D01*
X-6352311Y13472959D02*
X-6347891Y13399320D01*
X-2582416Y1273363D02*
X-3275247Y1273363D01*
X-3275247Y1273363D02*
X-3275247Y1438323D01*
X-3275247Y1438323D02*
X-3242255Y1537299D01*
X-3242255Y1537299D02*
X-3176271Y1603283D01*
X-3176271Y1603283D02*
X-3110287Y1636275D01*
X-3110287Y1636275D02*
X-2978319Y1669267D01*
X-2978319Y1669267D02*
X-2879343Y1669267D01*
X-2879343Y1669267D02*
X-2747375Y1636275D01*
X-2747375Y1636275D02*
X-2681391Y1603283D01*
X-2681391Y1603283D02*
X-2615408Y1537299D01*
X-2615408Y1537299D02*
X-2582416Y1438323D01*
X-2582416Y1438323D02*
X-2582416Y1273363D01*
X-3275247Y2296114D02*
X-3275247Y1966194D01*
X-3275247Y1966194D02*
X-2945327Y1933202D01*
X-2945327Y1933202D02*
X-2978319Y1966194D01*
X-2978319Y1966194D02*
X-3011311Y2032178D01*
X-3011311Y2032178D02*
X-3011311Y2197138D01*
X-3011311Y2197138D02*
X-2978319Y2263122D01*
X-2978319Y2263122D02*
X-2945327Y2296114D01*
X-2945327Y2296114D02*
X-2879343Y2329106D01*
X-2879343Y2329106D02*
X-2714383Y2329106D01*
X-2714383Y2329106D02*
X-2648399Y2296114D01*
X-2648399Y2296114D02*
X-2615408Y2263122D01*
X-2615408Y2263122D02*
X-2582416Y2197138D01*
X-2582416Y2197138D02*
X-2582416Y2032178D01*
X-2582416Y2032178D02*
X-2615408Y1966194D01*
X-2615408Y1966194D02*
X-2648399Y1933202D01*
D12*
X6448430Y17333655D02*
X6042870Y17913027D01*
X5753184Y17333655D02*
X5753184Y18550335D01*
X5753184Y18550335D02*
X6216681Y18550335D01*
X6216681Y18550335D02*
X6332556Y18492398D01*
X6332556Y18492398D02*
X6390493Y18434461D01*
X6390493Y18434461D02*
X6448430Y18318587D01*
X6448430Y18318587D02*
X6448430Y18144775D01*
X6448430Y18144775D02*
X6390493Y18028901D01*
X6390493Y18028901D02*
X6332556Y17970964D01*
X6332556Y17970964D02*
X6216681Y17913027D01*
X6216681Y17913027D02*
X5753184Y17913027D01*
X7549236Y18550335D02*
X6969864Y18550335D01*
X6969864Y18550335D02*
X6911927Y17970964D01*
X6911927Y17970964D02*
X6969864Y18028901D01*
X6969864Y18028901D02*
X7085739Y18086838D01*
X7085739Y18086838D02*
X7375424Y18086838D01*
X7375424Y18086838D02*
X7491299Y18028901D01*
X7491299Y18028901D02*
X7549236Y17970964D01*
X7549236Y17970964D02*
X7607173Y17855090D01*
X7607173Y17855090D02*
X7607173Y17565404D01*
X7607173Y17565404D02*
X7549236Y17449530D01*
X7549236Y17449530D02*
X7491299Y17391593D01*
X7491299Y17391593D02*
X7375424Y17333655D01*
X7375424Y17333655D02*
X7085739Y17333655D01*
X7085739Y17333655D02*
X6969864Y17391593D01*
X6969864Y17391593D02*
X6911927Y17449530D01*
D10*
X-1280136Y-211583D02*
X-1511080Y118335D01*
X-1676040Y-211583D02*
X-1676040Y481247D01*
X-1676040Y481247D02*
X-1412104Y481247D01*
X-1412104Y481247D02*
X-1346120Y448255D01*
X-1346120Y448255D02*
X-1313128Y415263D01*
X-1313128Y415263D02*
X-1280136Y349279D01*
X-1280136Y349279D02*
X-1280136Y250303D01*
X-1280136Y250303D02*
X-1313128Y184319D01*
X-1313128Y184319D02*
X-1346120Y151327D01*
X-1346120Y151327D02*
X-1412104Y118335D01*
X-1412104Y118335D02*
X-1676040Y118335D01*
X-983209Y151327D02*
X-752265Y151327D01*
X-653289Y-211583D02*
X-983209Y-211583D01*
X-983209Y-211583D02*
X-983209Y481247D01*
X-983209Y481247D02*
X-653289Y481247D01*
X-389354Y-178592D02*
X-290378Y-211583D01*
X-290378Y-211583D02*
X-125418Y-211583D01*
X-125418Y-211583D02*
X-59434Y-178592D01*
X-59434Y-178592D02*
X-26442Y-145600D01*
X-26442Y-145600D02*
X6549Y-79616D01*
X6549Y-79616D02*
X6549Y-13632D01*
X6549Y-13632D02*
X-26442Y52351D01*
X-26442Y52351D02*
X-59434Y85343D01*
X-59434Y85343D02*
X-125418Y118335D01*
X-125418Y118335D02*
X-257386Y151327D01*
X-257386Y151327D02*
X-323370Y184319D01*
X-323370Y184319D02*
X-356362Y217311D01*
X-356362Y217311D02*
X-389354Y283295D01*
X-389354Y283295D02*
X-389354Y349279D01*
X-389354Y349279D02*
X-356362Y415263D01*
X-356362Y415263D02*
X-323370Y448255D01*
X-323370Y448255D02*
X-257386Y481247D01*
X-257386Y481247D02*
X-92426Y481247D01*
X-92426Y481247D02*
X6549Y448255D01*
X303476Y151327D02*
X534420Y151327D01*
X633396Y-211583D02*
X303476Y-211583D01*
X303476Y-211583D02*
X303476Y481247D01*
X303476Y481247D02*
X633396Y481247D01*
X831347Y481247D02*
X1227251Y481247D01*
X1029299Y-211583D02*
X1029299Y481247D01*
X1590162Y481247D02*
X1656146Y481247D01*
X1656146Y481247D02*
X1722130Y448255D01*
X1722130Y448255D02*
X1755122Y415263D01*
X1755122Y415263D02*
X1788114Y349279D01*
X1788114Y349279D02*
X1821106Y217311D01*
X1821106Y217311D02*
X1821106Y52351D01*
X1821106Y52351D02*
X1788114Y-79616D01*
X1788114Y-79616D02*
X1755122Y-145600D01*
X1755122Y-145600D02*
X1722130Y-178592D01*
X1722130Y-178592D02*
X1656146Y-211583D01*
X1656146Y-211583D02*
X1590162Y-211583D01*
X1590162Y-211583D02*
X1524178Y-178592D01*
X1524178Y-178592D02*
X1491186Y-145600D01*
X1491186Y-145600D02*
X1458194Y-79616D01*
X1458194Y-79616D02*
X1425202Y52351D01*
X1425202Y52351D02*
X1425202Y217311D01*
X1425202Y217311D02*
X1458194Y349279D01*
X1458194Y349279D02*
X1491186Y415263D01*
X1491186Y415263D02*
X1524178Y448255D01*
X1524178Y448255D02*
X1590162Y481247D01*
D11*
X-7432621Y-22253204D02*
X-7432621Y-22645380D01*
X-6816344Y-22645380D02*
X-7992872Y-22645380D01*
X-7992872Y-22645380D02*
X-7992872Y-22085128D01*
X-6816344Y-21020650D02*
X-6816344Y-21692952D01*
X-6816344Y-21356801D02*
X-7992872Y-21356801D01*
X-7992872Y-21356801D02*
X-7824797Y-21468851D01*
X-7824797Y-21468851D02*
X-7712747Y-21580902D01*
X-7712747Y-21580902D02*
X-7656722Y-21692952D01*
D10*
X103443Y-4216583D02*
X103443Y-3523752D01*
X829267Y-4150600D02*
X796275Y-4183592D01*
X796275Y-4183592D02*
X697299Y-4216583D01*
X697299Y-4216583D02*
X631315Y-4216583D01*
X631315Y-4216583D02*
X532339Y-4183592D01*
X532339Y-4183592D02*
X466355Y-4117608D01*
X466355Y-4117608D02*
X433363Y-4051624D01*
X433363Y-4051624D02*
X400371Y-3919656D01*
X400371Y-3919656D02*
X400371Y-3820680D01*
X400371Y-3820680D02*
X433363Y-3688712D01*
X433363Y-3688712D02*
X466355Y-3622728D01*
X466355Y-3622728D02*
X532339Y-3556744D01*
X532339Y-3556744D02*
X631315Y-3523752D01*
X631315Y-3523752D02*
X697299Y-3523752D01*
X697299Y-3523752D02*
X796275Y-3556744D01*
X796275Y-3556744D02*
X829267Y-3589736D01*
X1423122Y-3754696D02*
X1423122Y-4216583D01*
X1258162Y-3490761D02*
X1093202Y-3985640D01*
X1093202Y-3985640D02*
X1522098Y-3985640D01*
D12*
X609813Y14322030D02*
X551876Y14264093D01*
X551876Y14264093D02*
X378064Y14206155D01*
X378064Y14206155D02*
X262190Y14206155D01*
X262190Y14206155D02*
X88379Y14264093D01*
X88379Y14264093D02*
X-27495Y14379967D01*
X-27495Y14379967D02*
X-85432Y14495841D01*
X-85432Y14495841D02*
X-143369Y14727590D01*
X-143369Y14727590D02*
X-143369Y14901401D01*
X-143369Y14901401D02*
X-85432Y15133150D01*
X-85432Y15133150D02*
X-27495Y15249024D01*
X-27495Y15249024D02*
X88379Y15364898D01*
X88379Y15364898D02*
X262190Y15422835D01*
X262190Y15422835D02*
X378064Y15422835D01*
X378064Y15422835D02*
X551876Y15364898D01*
X551876Y15364898D02*
X609813Y15306961D01*
X1131247Y14206155D02*
X1131247Y15422835D01*
X1131247Y15422835D02*
X1826493Y14206155D01*
X1826493Y14206155D02*
X1826493Y15422835D01*
X3043173Y14206155D02*
X2347927Y14206155D01*
X2695550Y14206155D02*
X2695550Y15422835D01*
X2695550Y15422835D02*
X2579676Y15249024D01*
X2579676Y15249024D02*
X2463801Y15133150D01*
X2463801Y15133150D02*
X2347927Y15075213D01*
D10*
X-14266416Y-219426D02*
X-14266416Y-549346D01*
X-14266416Y-549346D02*
X-14959247Y-549346D01*
X-14629327Y11516D02*
X-14629327Y242460D01*
X-14266416Y341436D02*
X-14266416Y11516D01*
X-14266416Y11516D02*
X-14959247Y11516D01*
X-14959247Y11516D02*
X-14959247Y341436D01*
X-14266416Y638363D02*
X-14959247Y638363D01*
X-14959247Y638363D02*
X-14959247Y803323D01*
X-14959247Y803323D02*
X-14926255Y902299D01*
X-14926255Y902299D02*
X-14860271Y968283D01*
X-14860271Y968283D02*
X-14794287Y1001275D01*
X-14794287Y1001275D02*
X-14662319Y1034267D01*
X-14662319Y1034267D02*
X-14563343Y1034267D01*
X-14563343Y1034267D02*
X-14431375Y1001275D01*
X-14431375Y1001275D02*
X-14365391Y968283D01*
X-14365391Y968283D02*
X-14299408Y902299D01*
X-14299408Y902299D02*
X-14266416Y803323D01*
X-14266416Y803323D02*
X-14266416Y638363D01*
X-14662319Y1430170D02*
X-14695311Y1364186D01*
X-14695311Y1364186D02*
X-14728303Y1331194D01*
X-14728303Y1331194D02*
X-14794287Y1298202D01*
X-14794287Y1298202D02*
X-14827279Y1298202D01*
X-14827279Y1298202D02*
X-14893263Y1331194D01*
X-14893263Y1331194D02*
X-14926255Y1364186D01*
X-14926255Y1364186D02*
X-14959247Y1430170D01*
X-14959247Y1430170D02*
X-14959247Y1562138D01*
X-14959247Y1562138D02*
X-14926255Y1628122D01*
X-14926255Y1628122D02*
X-14893263Y1661114D01*
X-14893263Y1661114D02*
X-14827279Y1694106D01*
X-14827279Y1694106D02*
X-14794287Y1694106D01*
X-14794287Y1694106D02*
X-14728303Y1661114D01*
X-14728303Y1661114D02*
X-14695311Y1628122D01*
X-14695311Y1628122D02*
X-14662319Y1562138D01*
X-14662319Y1562138D02*
X-14662319Y1430170D01*
X-14662319Y1430170D02*
X-14629327Y1364186D01*
X-14629327Y1364186D02*
X-14596335Y1331194D01*
X-14596335Y1331194D02*
X-14530351Y1298202D01*
X-14530351Y1298202D02*
X-14398383Y1298202D01*
X-14398383Y1298202D02*
X-14332399Y1331194D01*
X-14332399Y1331194D02*
X-14299408Y1364186D01*
X-14299408Y1364186D02*
X-14266416Y1430170D01*
X-14266416Y1430170D02*
X-14266416Y1562138D01*
X-14266416Y1562138D02*
X-14299408Y1628122D01*
X-14299408Y1628122D02*
X-14332399Y1661114D01*
X-14332399Y1661114D02*
X-14398383Y1694106D01*
X-14398383Y1694106D02*
X-14530351Y1694106D01*
X-14530351Y1694106D02*
X-14596335Y1661114D01*
X-14596335Y1661114D02*
X-14629327Y1628122D01*
X-14629327Y1628122D02*
X-14662319Y1562138D01*
D11*
X-10191905Y1728870D02*
X-10023830Y1672844D01*
X-10023830Y1672844D02*
X-9743704Y1672844D01*
X-9743704Y1672844D02*
X-9631654Y1728870D01*
X-9631654Y1728870D02*
X-9575628Y1784895D01*
X-9575628Y1784895D02*
X-9519603Y1896945D01*
X-9519603Y1896945D02*
X-9519603Y2008995D01*
X-9519603Y2008995D02*
X-9575628Y2121046D01*
X-9575628Y2121046D02*
X-9631654Y2177071D01*
X-9631654Y2177071D02*
X-9743704Y2233096D01*
X-9743704Y2233096D02*
X-9967804Y2289121D01*
X-9967804Y2289121D02*
X-10079855Y2345146D01*
X-10079855Y2345146D02*
X-10135880Y2401171D01*
X-10135880Y2401171D02*
X-10191905Y2513222D01*
X-10191905Y2513222D02*
X-10191905Y2625272D01*
X-10191905Y2625272D02*
X-10135880Y2737322D01*
X-10135880Y2737322D02*
X-10079855Y2793347D01*
X-10079855Y2793347D02*
X-9967804Y2849372D01*
X-9967804Y2849372D02*
X-9687679Y2849372D01*
X-9687679Y2849372D02*
X-9519603Y2793347D01*
X-9015377Y1672844D02*
X-9015377Y2849372D01*
X-9015377Y2849372D02*
X-8567176Y2849372D01*
X-8567176Y2849372D02*
X-8455125Y2793347D01*
X-8455125Y2793347D02*
X-8399100Y2737322D01*
X-8399100Y2737322D02*
X-8343075Y2625272D01*
X-8343075Y2625272D02*
X-8343075Y2457196D01*
X-8343075Y2457196D02*
X-8399100Y2345146D01*
X-8399100Y2345146D02*
X-8455125Y2289121D01*
X-8455125Y2289121D02*
X-8567176Y2233096D01*
X-8567176Y2233096D02*
X-9015377Y2233096D01*
X-7222572Y1672844D02*
X-7894874Y1672844D01*
X-7558723Y1672844D02*
X-7558723Y2849372D01*
X-7558723Y2849372D02*
X-7670773Y2681297D01*
X-7670773Y2681297D02*
X-7782824Y2569247D01*
X-7782824Y2569247D02*
X-7894874Y2513222D01*
D10*
X4844267Y-7450583D02*
X4613323Y-7120664D01*
X4448363Y-7450583D02*
X4448363Y-6757752D01*
X4448363Y-6757752D02*
X4712299Y-6757752D01*
X4712299Y-6757752D02*
X4778283Y-6790744D01*
X4778283Y-6790744D02*
X4811275Y-6823736D01*
X4811275Y-6823736D02*
X4844267Y-6889720D01*
X4844267Y-6889720D02*
X4844267Y-6988696D01*
X4844267Y-6988696D02*
X4811275Y-7054680D01*
X4811275Y-7054680D02*
X4778283Y-7087672D01*
X4778283Y-7087672D02*
X4712299Y-7120664D01*
X4712299Y-7120664D02*
X4448363Y-7120664D01*
X5240170Y-7054680D02*
X5174186Y-7021688D01*
X5174186Y-7021688D02*
X5141194Y-6988696D01*
X5141194Y-6988696D02*
X5108202Y-6922712D01*
X5108202Y-6922712D02*
X5108202Y-6889720D01*
X5108202Y-6889720D02*
X5141194Y-6823736D01*
X5141194Y-6823736D02*
X5174186Y-6790744D01*
X5174186Y-6790744D02*
X5240170Y-6757752D01*
X5240170Y-6757752D02*
X5372138Y-6757752D01*
X5372138Y-6757752D02*
X5438122Y-6790744D01*
X5438122Y-6790744D02*
X5471114Y-6823736D01*
X5471114Y-6823736D02*
X5504106Y-6889720D01*
X5504106Y-6889720D02*
X5504106Y-6922712D01*
X5504106Y-6922712D02*
X5471114Y-6988696D01*
X5471114Y-6988696D02*
X5438122Y-7021688D01*
X5438122Y-7021688D02*
X5372138Y-7054680D01*
X5372138Y-7054680D02*
X5240170Y-7054680D01*
X5240170Y-7054680D02*
X5174186Y-7087672D01*
X5174186Y-7087672D02*
X5141194Y-7120664D01*
X5141194Y-7120664D02*
X5108202Y-7186648D01*
X5108202Y-7186648D02*
X5108202Y-7318616D01*
X5108202Y-7318616D02*
X5141194Y-7384600D01*
X5141194Y-7384600D02*
X5174186Y-7417592D01*
X5174186Y-7417592D02*
X5240170Y-7450583D01*
X5240170Y-7450583D02*
X5372138Y-7450583D01*
X5372138Y-7450583D02*
X5438122Y-7417592D01*
X5438122Y-7417592D02*
X5471114Y-7384600D01*
X5471114Y-7384600D02*
X5504106Y-7318616D01*
X5504106Y-7318616D02*
X5504106Y-7186648D01*
X5504106Y-7186648D02*
X5471114Y-7120664D01*
X5471114Y-7120664D02*
X5438122Y-7087672D01*
X5438122Y-7087672D02*
X5372138Y-7054680D01*
X-8155834Y-12498820D02*
X-8441552Y-12333860D01*
X-8441552Y-12333860D02*
X-8095137Y-11733851D01*
X-7774375Y-12300001D02*
X-7574372Y-12415473D01*
X-7670112Y-12779251D02*
X-7955831Y-12614291D01*
X-7955831Y-12614291D02*
X-7609415Y-12014282D01*
X-7609415Y-12014282D02*
X-7323696Y-12179242D01*
X-7412965Y-12927715D02*
X-7066550Y-12327706D01*
X-7066550Y-12327706D02*
X-6923690Y-12410185D01*
X-6923690Y-12410185D02*
X-6854471Y-12488245D01*
X-6854471Y-12488245D02*
X-6830319Y-12578381D01*
X-6830319Y-12578381D02*
X-6834739Y-12652021D01*
X-6834739Y-12652021D02*
X-6872151Y-12782804D01*
X-6872151Y-12782804D02*
X-6921639Y-12868520D01*
X-6921639Y-12868520D02*
X-7016195Y-12966311D01*
X-7016195Y-12966311D02*
X-7077759Y-13006959D01*
X-7077759Y-13006959D02*
X-7167894Y-13031111D01*
X-7167894Y-13031111D02*
X-7270106Y-13010195D01*
X-7270106Y-13010195D02*
X-7412965Y-12927715D01*
X-6498665Y-13455586D02*
X-6841528Y-13257634D01*
X-6670097Y-13356610D02*
X-6323681Y-12756601D01*
X-6323681Y-12756601D02*
X-6430313Y-12809325D01*
X-6430313Y-12809325D02*
X-6520448Y-12833476D01*
X-6520448Y-12833476D02*
X-6594088Y-12829056D01*
X-5780816Y-13070024D02*
X-5723672Y-13103016D01*
X-5723672Y-13103016D02*
X-5683024Y-13164580D01*
X-5683024Y-13164580D02*
X-5670948Y-13209648D01*
X-5670948Y-13209648D02*
X-5675368Y-13283288D01*
X-5675368Y-13283288D02*
X-5712780Y-13414071D01*
X-5712780Y-13414071D02*
X-5795260Y-13556931D01*
X-5795260Y-13556931D02*
X-5889816Y-13654722D01*
X-5889816Y-13654722D02*
X-5951380Y-13695370D01*
X-5951380Y-13695370D02*
X-5996448Y-13707446D01*
X-5996448Y-13707446D02*
X-6070087Y-13703026D01*
X-6070087Y-13703026D02*
X-6127231Y-13670034D01*
X-6127231Y-13670034D02*
X-6167879Y-13608470D01*
X-6167879Y-13608470D02*
X-6179955Y-13563402D01*
X-6179955Y-13563402D02*
X-6175535Y-13489762D01*
X-6175535Y-13489762D02*
X-6138123Y-13358979D01*
X-6138123Y-13358979D02*
X-6055643Y-13216120D01*
X-6055643Y-13216120D02*
X-5961087Y-13118328D01*
X-5961087Y-13118328D02*
X-5899523Y-13077680D01*
X-5899523Y-13077680D02*
X-5854455Y-13065604D01*
X-5854455Y-13065604D02*
X-5780816Y-13070024D01*
X8403083Y-11665732D02*
X8073164Y-11896676D01*
X8403083Y-12061636D02*
X7710252Y-12061636D01*
X7710252Y-12061636D02*
X7710252Y-11797700D01*
X7710252Y-11797700D02*
X7743244Y-11731716D01*
X7743244Y-11731716D02*
X7776236Y-11698724D01*
X7776236Y-11698724D02*
X7842220Y-11665732D01*
X7842220Y-11665732D02*
X7941196Y-11665732D01*
X7941196Y-11665732D02*
X8007180Y-11698724D01*
X8007180Y-11698724D02*
X8040172Y-11731716D01*
X8040172Y-11731716D02*
X8073164Y-11797700D01*
X8073164Y-11797700D02*
X8073164Y-12061636D01*
X8403083Y-11335813D02*
X8403083Y-11203845D01*
X8403083Y-11203845D02*
X8370092Y-11137861D01*
X8370092Y-11137861D02*
X8337100Y-11104869D01*
X8337100Y-11104869D02*
X8238124Y-11038885D01*
X8238124Y-11038885D02*
X8106156Y-11005893D01*
X8106156Y-11005893D02*
X7842220Y-11005893D01*
X7842220Y-11005893D02*
X7776236Y-11038885D01*
X7776236Y-11038885D02*
X7743244Y-11071877D01*
X7743244Y-11071877D02*
X7710252Y-11137861D01*
X7710252Y-11137861D02*
X7710252Y-11269829D01*
X7710252Y-11269829D02*
X7743244Y-11335813D01*
X7743244Y-11335813D02*
X7776236Y-11368805D01*
X7776236Y-11368805D02*
X7842220Y-11401797D01*
X7842220Y-11401797D02*
X8007180Y-11401797D01*
X8007180Y-11401797D02*
X8073164Y-11368805D01*
X8073164Y-11368805D02*
X8106156Y-11335813D01*
X8106156Y-11335813D02*
X8139148Y-11269829D01*
X8139148Y-11269829D02*
X8139148Y-11137861D01*
X8139148Y-11137861D02*
X8106156Y-11071877D01*
X8106156Y-11071877D02*
X8073164Y-11038885D01*
X8073164Y-11038885D02*
X8007180Y-11005893D01*
D12*
X3293716Y-17918065D02*
X3247874Y-17963907D01*
X3247874Y-17963907D02*
X3110348Y-18009748D01*
X3110348Y-18009748D02*
X3018664Y-18009748D01*
X3018664Y-18009748D02*
X2881139Y-17963907D01*
X2881139Y-17963907D02*
X2789455Y-17872223D01*
X2789455Y-17872223D02*
X2743613Y-17780539D01*
X2743613Y-17780539D02*
X2697771Y-17597171D01*
X2697771Y-17597171D02*
X2697771Y-17459646D01*
X2697771Y-17459646D02*
X2743613Y-17276278D01*
X2743613Y-17276278D02*
X2789455Y-17184594D01*
X2789455Y-17184594D02*
X2881139Y-17092910D01*
X2881139Y-17092910D02*
X3018664Y-17047068D01*
X3018664Y-17047068D02*
X3110348Y-17047068D01*
X3110348Y-17047068D02*
X3247874Y-17092910D01*
X3247874Y-17092910D02*
X3293716Y-17138752D01*
X3843819Y-17459646D02*
X3752135Y-17413804D01*
X3752135Y-17413804D02*
X3706293Y-17367962D01*
X3706293Y-17367962D02*
X3660451Y-17276278D01*
X3660451Y-17276278D02*
X3660451Y-17230436D01*
X3660451Y-17230436D02*
X3706293Y-17138752D01*
X3706293Y-17138752D02*
X3752135Y-17092910D01*
X3752135Y-17092910D02*
X3843819Y-17047068D01*
X3843819Y-17047068D02*
X4027186Y-17047068D01*
X4027186Y-17047068D02*
X4118870Y-17092910D01*
X4118870Y-17092910D02*
X4164712Y-17138752D01*
X4164712Y-17138752D02*
X4210554Y-17230436D01*
X4210554Y-17230436D02*
X4210554Y-17276278D01*
X4210554Y-17276278D02*
X4164712Y-17367962D01*
X4164712Y-17367962D02*
X4118870Y-17413804D01*
X4118870Y-17413804D02*
X4027186Y-17459646D01*
X4027186Y-17459646D02*
X3843819Y-17459646D01*
X3843819Y-17459646D02*
X3752135Y-17505487D01*
X3752135Y-17505487D02*
X3706293Y-17551329D01*
X3706293Y-17551329D02*
X3660451Y-17643013D01*
X3660451Y-17643013D02*
X3660451Y-17826381D01*
X3660451Y-17826381D02*
X3706293Y-17918065D01*
X3706293Y-17918065D02*
X3752135Y-17963907D01*
X3752135Y-17963907D02*
X3843819Y-18009748D01*
X3843819Y-18009748D02*
X4027186Y-18009748D01*
X4027186Y-18009748D02*
X4118870Y-17963907D01*
X4118870Y-17963907D02*
X4164712Y-17918065D01*
X4164712Y-17918065D02*
X4210554Y-17826381D01*
X4210554Y-17826381D02*
X4210554Y-17643013D01*
X4210554Y-17643013D02*
X4164712Y-17551329D01*
X4164712Y-17551329D02*
X4118870Y-17505487D01*
X4118870Y-17505487D02*
X4027186Y-17459646D01*
D10*
X12498820Y-8155834D02*
X12333860Y-8441552D01*
X12333860Y-8441552D02*
X11733851Y-8095137D01*
X12300001Y-7774375D02*
X12415473Y-7574372D01*
X12779251Y-7670112D02*
X12614291Y-7955831D01*
X12614291Y-7955831D02*
X12014282Y-7609415D01*
X12014282Y-7609415D02*
X12179242Y-7323696D01*
X12927715Y-7412965D02*
X12327706Y-7066550D01*
X12327706Y-7066550D02*
X12410185Y-6923690D01*
X12410185Y-6923690D02*
X12488245Y-6854471D01*
X12488245Y-6854471D02*
X12578381Y-6830319D01*
X12578381Y-6830319D02*
X12652021Y-6834739D01*
X12652021Y-6834739D02*
X12782804Y-6872151D01*
X12782804Y-6872151D02*
X12868520Y-6921639D01*
X12868520Y-6921639D02*
X12966311Y-7016195D01*
X12966311Y-7016195D02*
X13006959Y-7077759D01*
X13006959Y-7077759D02*
X13031111Y-7167894D01*
X13031111Y-7167894D02*
X13010195Y-7270106D01*
X13010195Y-7270106D02*
X12927715Y-7412965D01*
X13455586Y-6498665D02*
X13257634Y-6841528D01*
X13356610Y-6670097D02*
X12756601Y-6323681D01*
X12756601Y-6323681D02*
X12809325Y-6430313D01*
X12809325Y-6430313D02*
X12833476Y-6520448D01*
X12833476Y-6520448D02*
X12829056Y-6594088D01*
X14894971Y-1585194D02*
X14894971Y-1915114D01*
X14894971Y-1915114D02*
X14202140Y-1915114D01*
X14532060Y-1354251D02*
X14532060Y-1123307D01*
X14894971Y-1024331D02*
X14894971Y-1354251D01*
X14894971Y-1354251D02*
X14202140Y-1354251D01*
X14202140Y-1354251D02*
X14202140Y-1024331D01*
X14894971Y-727404D02*
X14202140Y-727404D01*
X14202140Y-727404D02*
X14202140Y-562444D01*
X14202140Y-562444D02*
X14235132Y-463468D01*
X14235132Y-463468D02*
X14301116Y-397484D01*
X14301116Y-397484D02*
X14367100Y-364492D01*
X14367100Y-364492D02*
X14499068Y-331500D01*
X14499068Y-331500D02*
X14598044Y-331500D01*
X14598044Y-331500D02*
X14730012Y-364492D01*
X14730012Y-364492D02*
X14795996Y-397484D01*
X14795996Y-397484D02*
X14861980Y-463468D01*
X14861980Y-463468D02*
X14894971Y-562444D01*
X14894971Y-562444D02*
X14894971Y-727404D01*
X14202140Y-100557D02*
X14202140Y328338D01*
X14202140Y328338D02*
X14466076Y97394D01*
X14466076Y97394D02*
X14466076Y196370D01*
X14466076Y196370D02*
X14499068Y262354D01*
X14499068Y262354D02*
X14532060Y295346D01*
X14532060Y295346D02*
X14598044Y328338D01*
X14598044Y328338D02*
X14763004Y328338D01*
X14763004Y328338D02*
X14828988Y295346D01*
X14828988Y295346D02*
X14861980Y262354D01*
X14861980Y262354D02*
X14894971Y196370D01*
X14894971Y196370D02*
X14894971Y-1581D01*
X14894971Y-1581D02*
X14861980Y-67565D01*
X14861980Y-67565D02*
X14828988Y-100557D01*
D12*
X-2072112Y-26034535D02*
X-1898300Y-26092472D01*
X-1898300Y-26092472D02*
X-1840363Y-26150409D01*
X-1840363Y-26150409D02*
X-1782426Y-26266284D01*
X-1782426Y-26266284D02*
X-1782426Y-26440095D01*
X-1782426Y-26440095D02*
X-1840363Y-26555969D01*
X-1840363Y-26555969D02*
X-1898300Y-26613907D01*
X-1898300Y-26613907D02*
X-2014175Y-26671844D01*
X-2014175Y-26671844D02*
X-2477672Y-26671844D01*
X-2477672Y-26671844D02*
X-2477672Y-25455164D01*
X-2477672Y-25455164D02*
X-2072112Y-25455164D01*
X-2072112Y-25455164D02*
X-1956238Y-25513101D01*
X-1956238Y-25513101D02*
X-1898300Y-25571038D01*
X-1898300Y-25571038D02*
X-1840363Y-25686912D01*
X-1840363Y-25686912D02*
X-1840363Y-25802787D01*
X-1840363Y-25802787D02*
X-1898300Y-25918661D01*
X-1898300Y-25918661D02*
X-1956238Y-25976598D01*
X-1956238Y-25976598D02*
X-2072112Y-26034535D01*
X-2072112Y-26034535D02*
X-2477672Y-26034535D01*
X-1318929Y-26324221D02*
X-739558Y-26324221D01*
X-1434803Y-26671844D02*
X-1029243Y-25455164D01*
X-1029243Y-25455164D02*
X-623683Y-26671844D01*
X-391934Y-25455164D02*
X303311Y-25455164D01*
X-44311Y-26671844D02*
X-44311Y-25455164D01*
X535059Y-25455164D02*
X1230305Y-25455164D01*
X882682Y-26671844D02*
X882682Y-25455164D01*
X1867613Y-25455164D02*
X1983487Y-25455164D01*
X1983487Y-25455164D02*
X2099361Y-25513101D01*
X2099361Y-25513101D02*
X2157299Y-25571038D01*
X2157299Y-25571038D02*
X2215236Y-25686912D01*
X2215236Y-25686912D02*
X2273173Y-25918661D01*
X2273173Y-25918661D02*
X2273173Y-26208347D01*
X2273173Y-26208347D02*
X2215236Y-26440095D01*
X2215236Y-26440095D02*
X2157299Y-26555969D01*
X2157299Y-26555969D02*
X2099361Y-26613907D01*
X2099361Y-26613907D02*
X1983487Y-26671844D01*
X1983487Y-26671844D02*
X1867613Y-26671844D01*
X1867613Y-26671844D02*
X1751739Y-26613907D01*
X1751739Y-26613907D02*
X1693801Y-26555969D01*
X1693801Y-26555969D02*
X1635864Y-26440095D01*
X1635864Y-26440095D02*
X1577927Y-26208347D01*
X1577927Y-26208347D02*
X1577927Y-25918661D01*
X1577927Y-25918661D02*
X1635864Y-25686912D01*
X1635864Y-25686912D02*
X1693801Y-25571038D01*
X1693801Y-25571038D02*
X1751739Y-25513101D01*
X1751739Y-25513101D02*
X1867613Y-25455164D01*
D10*
X-2106114Y14645359D02*
X-2106114Y14084495D01*
X-2106114Y14084495D02*
X-2073122Y14018511D01*
X-2073122Y14018511D02*
X-2040130Y13985520D01*
X-2040130Y13985520D02*
X-1974146Y13952528D01*
X-1974146Y13952528D02*
X-1842178Y13952528D01*
X-1842178Y13952528D02*
X-1776194Y13985520D01*
X-1776194Y13985520D02*
X-1743202Y14018511D01*
X-1743202Y14018511D02*
X-1710210Y14084495D01*
X-1710210Y14084495D02*
X-1710210Y14645359D01*
X-1413283Y13985520D02*
X-1314307Y13952528D01*
X-1314307Y13952528D02*
X-1149347Y13952528D01*
X-1149347Y13952528D02*
X-1083363Y13985520D01*
X-1083363Y13985520D02*
X-1050371Y14018511D01*
X-1050371Y14018511D02*
X-1017379Y14084495D01*
X-1017379Y14084495D02*
X-1017379Y14150479D01*
X-1017379Y14150479D02*
X-1050371Y14216463D01*
X-1050371Y14216463D02*
X-1083363Y14249455D01*
X-1083363Y14249455D02*
X-1149347Y14282447D01*
X-1149347Y14282447D02*
X-1281315Y14315439D01*
X-1281315Y14315439D02*
X-1347299Y14348431D01*
X-1347299Y14348431D02*
X-1380291Y14381423D01*
X-1380291Y14381423D02*
X-1413283Y14447407D01*
X-1413283Y14447407D02*
X-1413283Y14513391D01*
X-1413283Y14513391D02*
X-1380291Y14579375D01*
X-1380291Y14579375D02*
X-1347299Y14612367D01*
X-1347299Y14612367D02*
X-1281315Y14645359D01*
X-1281315Y14645359D02*
X-1116355Y14645359D01*
X-1116355Y14645359D02*
X-1017379Y14612367D01*
X-1215331Y14744334D02*
X-1215331Y13853552D01*
X-390532Y14645359D02*
X-720452Y14645359D01*
X-720452Y14645359D02*
X-753444Y14315439D01*
X-753444Y14315439D02*
X-720452Y14348431D01*
X-720452Y14348431D02*
X-654468Y14381423D01*
X-654468Y14381423D02*
X-489508Y14381423D01*
X-489508Y14381423D02*
X-423524Y14348431D01*
X-423524Y14348431D02*
X-390532Y14315439D01*
X-390532Y14315439D02*
X-357540Y14249455D01*
X-357540Y14249455D02*
X-357540Y14084495D01*
X-357540Y14084495D02*
X-390532Y14018511D01*
X-390532Y14018511D02*
X-423524Y13985520D01*
X-423524Y13985520D02*
X-489508Y13952528D01*
X-489508Y13952528D02*
X-654468Y13952528D01*
X-654468Y13952528D02*
X-720452Y13985520D01*
X-720452Y13985520D02*
X-753444Y14018511D01*
X-12475785Y6879678D02*
X-12640745Y6593959D01*
X-12640745Y6593959D02*
X-13240754Y6940375D01*
X-12674604Y7261137D02*
X-12559132Y7461140D01*
X-12195353Y7365400D02*
X-12360313Y7079681D01*
X-12360313Y7079681D02*
X-12960322Y7426096D01*
X-12960322Y7426096D02*
X-12795363Y7711815D01*
X-12046890Y7622546D02*
X-12646899Y7968962D01*
X-12646899Y7968962D02*
X-12564419Y8111821D01*
X-12564419Y8111821D02*
X-12486359Y8181041D01*
X-12486359Y8181041D02*
X-12396224Y8205193D01*
X-12396224Y8205193D02*
X-12322584Y8200773D01*
X-12322584Y8200773D02*
X-12191800Y8163361D01*
X-12191800Y8163361D02*
X-12106085Y8113873D01*
X-12106085Y8113873D02*
X-12008293Y8019317D01*
X-12008293Y8019317D02*
X-11967645Y7957753D01*
X-11967645Y7957753D02*
X-11943494Y7867617D01*
X-11943494Y7867617D02*
X-11964410Y7765406D01*
X-11964410Y7765406D02*
X-12046890Y7622546D01*
X-12333475Y8511827D02*
X-12102532Y8911834D01*
X-12102532Y8911834D02*
X-11650986Y8308271D01*
X5479267Y6201916D02*
X5248323Y6531835D01*
X5083363Y6201916D02*
X5083363Y6894747D01*
X5083363Y6894747D02*
X5347299Y6894747D01*
X5347299Y6894747D02*
X5413283Y6861755D01*
X5413283Y6861755D02*
X5446275Y6828763D01*
X5446275Y6828763D02*
X5479267Y6762779D01*
X5479267Y6762779D02*
X5479267Y6663803D01*
X5479267Y6663803D02*
X5446275Y6597819D01*
X5446275Y6597819D02*
X5413283Y6564827D01*
X5413283Y6564827D02*
X5347299Y6531835D01*
X5347299Y6531835D02*
X5083363Y6531835D01*
X5710210Y6894747D02*
X6172098Y6894747D01*
X6172098Y6894747D02*
X5875170Y6201916D01*
X-11980416Y3383767D02*
X-12310335Y3152823D01*
X-11980416Y2987863D02*
X-12673247Y2987863D01*
X-12673247Y2987863D02*
X-12673247Y3251799D01*
X-12673247Y3251799D02*
X-12640255Y3317783D01*
X-12640255Y3317783D02*
X-12607263Y3350775D01*
X-12607263Y3350775D02*
X-12541279Y3383767D01*
X-12541279Y3383767D02*
X-12442303Y3383767D01*
X-12442303Y3383767D02*
X-12376319Y3350775D01*
X-12376319Y3350775D02*
X-12343327Y3317783D01*
X-12343327Y3317783D02*
X-12310335Y3251799D01*
X-12310335Y3251799D02*
X-12310335Y2987863D01*
X-11980416Y4043606D02*
X-11980416Y3647702D01*
X-11980416Y3845654D02*
X-12673247Y3845654D01*
X-12673247Y3845654D02*
X-12574271Y3779670D01*
X-12574271Y3779670D02*
X-12508287Y3713686D01*
X-12508287Y3713686D02*
X-12475295Y3647702D01*
X4844267Y-6114600D02*
X4811275Y-6147592D01*
X4811275Y-6147592D02*
X4712299Y-6180583D01*
X4712299Y-6180583D02*
X4646315Y-6180583D01*
X4646315Y-6180583D02*
X4547339Y-6147592D01*
X4547339Y-6147592D02*
X4481355Y-6081608D01*
X4481355Y-6081608D02*
X4448363Y-6015624D01*
X4448363Y-6015624D02*
X4415371Y-5883656D01*
X4415371Y-5883656D02*
X4415371Y-5784680D01*
X4415371Y-5784680D02*
X4448363Y-5652712D01*
X4448363Y-5652712D02*
X4481355Y-5586728D01*
X4481355Y-5586728D02*
X4547339Y-5520744D01*
X4547339Y-5520744D02*
X4646315Y-5487752D01*
X4646315Y-5487752D02*
X4712299Y-5487752D01*
X4712299Y-5487752D02*
X4811275Y-5520744D01*
X4811275Y-5520744D02*
X4844267Y-5553736D01*
X5504106Y-6180583D02*
X5108202Y-6180583D01*
X5306154Y-6180583D02*
X5306154Y-5487752D01*
X5306154Y-5487752D02*
X5240170Y-5586728D01*
X5240170Y-5586728D02*
X5174186Y-5652712D01*
X5174186Y-5652712D02*
X5108202Y-5685704D01*
X7942289Y9110511D02*
X7909297Y9077520D01*
X7909297Y9077520D02*
X7810321Y9044528D01*
X7810321Y9044528D02*
X7744337Y9044528D01*
X7744337Y9044528D02*
X7645361Y9077520D01*
X7645361Y9077520D02*
X7579377Y9143503D01*
X7579377Y9143503D02*
X7546385Y9209487D01*
X7546385Y9209487D02*
X7513393Y9341455D01*
X7513393Y9341455D02*
X7513393Y9440431D01*
X7513393Y9440431D02*
X7546385Y9572399D01*
X7546385Y9572399D02*
X7579377Y9638383D01*
X7579377Y9638383D02*
X7645361Y9704367D01*
X7645361Y9704367D02*
X7744337Y9737359D01*
X7744337Y9737359D02*
X7810321Y9737359D01*
X7810321Y9737359D02*
X7909297Y9704367D01*
X7909297Y9704367D02*
X7942289Y9671375D01*
X8173232Y9737359D02*
X8602128Y9737359D01*
X8602128Y9737359D02*
X8371184Y9473423D01*
X8371184Y9473423D02*
X8470160Y9473423D01*
X8470160Y9473423D02*
X8536144Y9440431D01*
X8536144Y9440431D02*
X8569136Y9407439D01*
X8569136Y9407439D02*
X8602128Y9341455D01*
X8602128Y9341455D02*
X8602128Y9176495D01*
X8602128Y9176495D02*
X8569136Y9110511D01*
X8569136Y9110511D02*
X8536144Y9077520D01*
X8536144Y9077520D02*
X8470160Y9044528D01*
X8470160Y9044528D02*
X8272208Y9044528D01*
X8272208Y9044528D02*
X8206224Y9077520D01*
X8206224Y9077520D02*
X8173232Y9110511D01*
X5562955Y-6596726D02*
X5529963Y-6662710D01*
X5529963Y-6662710D02*
X5463980Y-6728694D01*
X5463980Y-6728694D02*
X5365004Y-6827670D01*
X5365004Y-6827670D02*
X5332012Y-6893654D01*
X5332012Y-6893654D02*
X5332012Y-6959638D01*
X5496971Y-6926646D02*
X5463980Y-6992630D01*
X5463980Y-6992630D02*
X5397996Y-7058614D01*
X5397996Y-7058614D02*
X5266028Y-7091606D01*
X5266028Y-7091606D02*
X5035084Y-7091606D01*
X5035084Y-7091606D02*
X4903116Y-7058614D01*
X4903116Y-7058614D02*
X4837132Y-6992630D01*
X4837132Y-6992630D02*
X4804140Y-6926646D01*
X4804140Y-6926646D02*
X4804140Y-6794678D01*
X4804140Y-6794678D02*
X4837132Y-6728694D01*
X4837132Y-6728694D02*
X4903116Y-6662710D01*
X4903116Y-6662710D02*
X5035084Y-6629718D01*
X5035084Y-6629718D02*
X5266028Y-6629718D01*
X5266028Y-6629718D02*
X5397996Y-6662710D01*
X5397996Y-6662710D02*
X5463980Y-6728694D01*
X5463980Y-6728694D02*
X5496971Y-6794678D01*
X5496971Y-6794678D02*
X5496971Y-6926646D01*
X5496971Y-5969879D02*
X5496971Y-6365783D01*
X5496971Y-6167831D02*
X4804140Y-6167831D01*
X4804140Y-6167831D02*
X4903116Y-6233815D01*
X4903116Y-6233815D02*
X4969100Y-6299799D01*
X4969100Y-6299799D02*
X5002092Y-6365783D01*
X-1461114Y-14202140D02*
X-1461114Y-14763004D01*
X-1461114Y-14763004D02*
X-1428122Y-14828988D01*
X-1428122Y-14828988D02*
X-1395130Y-14861980D01*
X-1395130Y-14861980D02*
X-1329146Y-14894971D01*
X-1329146Y-14894971D02*
X-1197178Y-14894971D01*
X-1197178Y-14894971D02*
X-1131194Y-14861980D01*
X-1131194Y-14861980D02*
X-1098202Y-14828988D01*
X-1098202Y-14828988D02*
X-1065210Y-14763004D01*
X-1065210Y-14763004D02*
X-1065210Y-14202140D01*
X-801275Y-14202140D02*
X-372379Y-14202140D01*
X-372379Y-14202140D02*
X-603323Y-14466076D01*
X-603323Y-14466076D02*
X-504347Y-14466076D01*
X-504347Y-14466076D02*
X-438363Y-14499068D01*
X-438363Y-14499068D02*
X-405371Y-14532060D01*
X-405371Y-14532060D02*
X-372379Y-14598044D01*
X-372379Y-14598044D02*
X-372379Y-14763004D01*
X-372379Y-14763004D02*
X-405371Y-14828988D01*
X-405371Y-14828988D02*
X-438363Y-14861980D01*
X-438363Y-14861980D02*
X-504347Y-14894971D01*
X-504347Y-14894971D02*
X-702299Y-14894971D01*
X-702299Y-14894971D02*
X-768283Y-14861980D01*
X-768283Y-14861980D02*
X-801275Y-14828988D01*
X6561583Y1273363D02*
X5868752Y1273363D01*
X5868752Y1273363D02*
X5868752Y1438323D01*
X5868752Y1438323D02*
X5901744Y1537299D01*
X5901744Y1537299D02*
X5967728Y1603283D01*
X5967728Y1603283D02*
X6033712Y1636275D01*
X6033712Y1636275D02*
X6165680Y1669267D01*
X6165680Y1669267D02*
X6264656Y1669267D01*
X6264656Y1669267D02*
X6396624Y1636275D01*
X6396624Y1636275D02*
X6462608Y1603283D01*
X6462608Y1603283D02*
X6528592Y1537299D01*
X6528592Y1537299D02*
X6561583Y1438323D01*
X6561583Y1438323D02*
X6561583Y1273363D01*
X5868752Y1900210D02*
X5868752Y2329106D01*
X5868752Y2329106D02*
X6132688Y2098162D01*
X6132688Y2098162D02*
X6132688Y2197138D01*
X6132688Y2197138D02*
X6165680Y2263122D01*
X6165680Y2263122D02*
X6198672Y2296114D01*
X6198672Y2296114D02*
X6264656Y2329106D01*
X6264656Y2329106D02*
X6429616Y2329106D01*
X6429616Y2329106D02*
X6495600Y2296114D01*
X6495600Y2296114D02*
X6528592Y2263122D01*
X6528592Y2263122D02*
X6561583Y2197138D01*
X6561583Y2197138D02*
X6561583Y1999186D01*
X6561583Y1999186D02*
X6528592Y1933202D01*
X6528592Y1933202D02*
X6495600Y1900210D01*
X5656289Y-3909471D02*
X5425345Y-3579552D01*
X5260385Y-3909471D02*
X5260385Y-3216640D01*
X5260385Y-3216640D02*
X5524321Y-3216640D01*
X5524321Y-3216640D02*
X5590305Y-3249632D01*
X5590305Y-3249632D02*
X5623297Y-3282624D01*
X5623297Y-3282624D02*
X5656289Y-3348608D01*
X5656289Y-3348608D02*
X5656289Y-3447584D01*
X5656289Y-3447584D02*
X5623297Y-3513568D01*
X5623297Y-3513568D02*
X5590305Y-3546560D01*
X5590305Y-3546560D02*
X5524321Y-3579552D01*
X5524321Y-3579552D02*
X5260385Y-3579552D01*
X6250144Y-3216640D02*
X6118176Y-3216640D01*
X6118176Y-3216640D02*
X6052192Y-3249632D01*
X6052192Y-3249632D02*
X6019200Y-3282624D01*
X6019200Y-3282624D02*
X5953216Y-3381600D01*
X5953216Y-3381600D02*
X5920224Y-3513568D01*
X5920224Y-3513568D02*
X5920224Y-3777504D01*
X5920224Y-3777504D02*
X5953216Y-3843488D01*
X5953216Y-3843488D02*
X5986208Y-3876480D01*
X5986208Y-3876480D02*
X6052192Y-3909471D01*
X6052192Y-3909471D02*
X6184160Y-3909471D01*
X6184160Y-3909471D02*
X6250144Y-3876480D01*
X6250144Y-3876480D02*
X6283136Y-3843488D01*
X6283136Y-3843488D02*
X6316128Y-3777504D01*
X6316128Y-3777504D02*
X6316128Y-3612544D01*
X6316128Y-3612544D02*
X6283136Y-3546560D01*
X6283136Y-3546560D02*
X6250144Y-3513568D01*
X6250144Y-3513568D02*
X6184160Y-3480576D01*
X6184160Y-3480576D02*
X6052192Y-3480576D01*
X6052192Y-3480576D02*
X5986208Y-3513568D01*
X5986208Y-3513568D02*
X5953216Y-3546560D01*
X5953216Y-3546560D02*
X5920224Y-3612544D01*
X-13250416Y-7565556D02*
X-13943247Y-7565556D01*
X-13316399Y-6839732D02*
X-13283408Y-6872724D01*
X-13283408Y-6872724D02*
X-13250416Y-6971700D01*
X-13250416Y-6971700D02*
X-13250416Y-7037684D01*
X-13250416Y-7037684D02*
X-13283408Y-7136660D01*
X-13283408Y-7136660D02*
X-13349391Y-7202644D01*
X-13349391Y-7202644D02*
X-13415375Y-7235636D01*
X-13415375Y-7235636D02*
X-13547343Y-7268628D01*
X-13547343Y-7268628D02*
X-13646319Y-7268628D01*
X-13646319Y-7268628D02*
X-13778287Y-7235636D01*
X-13778287Y-7235636D02*
X-13844271Y-7202644D01*
X-13844271Y-7202644D02*
X-13910255Y-7136660D01*
X-13910255Y-7136660D02*
X-13943247Y-7037684D01*
X-13943247Y-7037684D02*
X-13943247Y-6971700D01*
X-13943247Y-6971700D02*
X-13910255Y-6872724D01*
X-13910255Y-6872724D02*
X-13877263Y-6839732D01*
X-13877263Y-6575797D02*
X-13910255Y-6542805D01*
X-13910255Y-6542805D02*
X-13943247Y-6476821D01*
X-13943247Y-6476821D02*
X-13943247Y-6311861D01*
X-13943247Y-6311861D02*
X-13910255Y-6245877D01*
X-13910255Y-6245877D02*
X-13877263Y-6212885D01*
X-13877263Y-6212885D02*
X-13811279Y-6179893D01*
X-13811279Y-6179893D02*
X-13745295Y-6179893D01*
X-13745295Y-6179893D02*
X-13646319Y-6212885D01*
X-13646319Y-6212885D02*
X-13250416Y-6608789D01*
X-13250416Y-6608789D02*
X-13250416Y-6179893D01*
X6423240Y7891909D02*
X6423240Y8287813D01*
X7116071Y8089861D02*
X6423240Y8089861D01*
X7116071Y8518756D02*
X6423240Y8518756D01*
X6753160Y8518756D02*
X6753160Y8914660D01*
X7116071Y8914660D02*
X6423240Y8914660D01*
X7116071Y9244579D02*
X6423240Y9244579D01*
X6423240Y9244579D02*
X6918120Y9475523D01*
X6918120Y9475523D02*
X6423240Y9706467D01*
X6423240Y9706467D02*
X7116071Y9706467D01*
X7116071Y10399298D02*
X7116071Y10003394D01*
X7116071Y10201346D02*
X6423240Y10201346D01*
X6423240Y10201346D02*
X6522216Y10135362D01*
X6522216Y10135362D02*
X6588200Y10069378D01*
X6588200Y10069378D02*
X6621192Y10003394D01*
X-11333011Y8450289D02*
X-11300020Y8417297D01*
X-11300020Y8417297D02*
X-11267028Y8318321D01*
X-11267028Y8318321D02*
X-11267028Y8252337D01*
X-11267028Y8252337D02*
X-11300020Y8153361D01*
X-11300020Y8153361D02*
X-11366003Y8087377D01*
X-11366003Y8087377D02*
X-11431987Y8054385D01*
X-11431987Y8054385D02*
X-11563955Y8021393D01*
X-11563955Y8021393D02*
X-11662931Y8021393D01*
X-11662931Y8021393D02*
X-11794899Y8054385D01*
X-11794899Y8054385D02*
X-11860883Y8087377D01*
X-11860883Y8087377D02*
X-11926867Y8153361D01*
X-11926867Y8153361D02*
X-11959859Y8252337D01*
X-11959859Y8252337D02*
X-11959859Y8318321D01*
X-11959859Y8318321D02*
X-11926867Y8417297D01*
X-11926867Y8417297D02*
X-11893875Y8450289D01*
X-11267028Y8780208D02*
X-11267028Y8912176D01*
X-11267028Y8912176D02*
X-11300020Y8978160D01*
X-11300020Y8978160D02*
X-11333011Y9011152D01*
X-11333011Y9011152D02*
X-11431987Y9077136D01*
X-11431987Y9077136D02*
X-11563955Y9110128D01*
X-11563955Y9110128D02*
X-11827891Y9110128D01*
X-11827891Y9110128D02*
X-11893875Y9077136D01*
X-11893875Y9077136D02*
X-11926867Y9044144D01*
X-11926867Y9044144D02*
X-11959859Y8978160D01*
X-11959859Y8978160D02*
X-11959859Y8846192D01*
X-11959859Y8846192D02*
X-11926867Y8780208D01*
X-11926867Y8780208D02*
X-11893875Y8747216D01*
X-11893875Y8747216D02*
X-11827891Y8714224D01*
X-11827891Y8714224D02*
X-11662931Y8714224D01*
X-11662931Y8714224D02*
X-11596947Y8747216D01*
X-11596947Y8747216D02*
X-11563955Y8780208D01*
X-11563955Y8780208D02*
X-11530963Y8846192D01*
X-11530963Y8846192D02*
X-11530963Y8978160D01*
X-11530963Y8978160D02*
X-11563955Y9044144D01*
X-11563955Y9044144D02*
X-11596947Y9077136D01*
X-11596947Y9077136D02*
X-11662931Y9110128D01*
D12*
X-7771670Y20898763D02*
X-8988350Y20898763D01*
X-8988350Y20898763D02*
X-8988350Y21362260D01*
X-8988350Y21362260D02*
X-8930413Y21478135D01*
X-8930413Y21478135D02*
X-8872476Y21536072D01*
X-8872476Y21536072D02*
X-8756602Y21594009D01*
X-8756602Y21594009D02*
X-8582790Y21594009D01*
X-8582790Y21594009D02*
X-8466916Y21536072D01*
X-8466916Y21536072D02*
X-8408979Y21478135D01*
X-8408979Y21478135D02*
X-8351042Y21362260D01*
X-8351042Y21362260D02*
X-8351042Y20898763D01*
X-8988350Y21999569D02*
X-7771670Y22289255D01*
X-7771670Y22289255D02*
X-8640728Y22521003D01*
X-8640728Y22521003D02*
X-7771670Y22752752D01*
X-7771670Y22752752D02*
X-8988350Y23042438D01*
X-7771670Y24201180D02*
X-8351042Y23795620D01*
X-7771670Y23505934D02*
X-8988350Y23505934D01*
X-8988350Y23505934D02*
X-8988350Y23969431D01*
X-8988350Y23969431D02*
X-8930413Y24085306D01*
X-8930413Y24085306D02*
X-8872476Y24143243D01*
X-8872476Y24143243D02*
X-8756602Y24201180D01*
X-8756602Y24201180D02*
X-8582790Y24201180D01*
X-8582790Y24201180D02*
X-8466916Y24143243D01*
X-8466916Y24143243D02*
X-8408979Y24085306D01*
X-8408979Y24085306D02*
X-8351042Y23969431D01*
X-8351042Y23969431D02*
X-8351042Y23505934D01*
X-8988350Y24954363D02*
X-8988350Y25070237D01*
X-8988350Y25070237D02*
X-8930413Y25186111D01*
X-8930413Y25186111D02*
X-8872476Y25244049D01*
X-8872476Y25244049D02*
X-8756602Y25301986D01*
X-8756602Y25301986D02*
X-8524853Y25359923D01*
X-8524853Y25359923D02*
X-8235168Y25359923D01*
X-8235168Y25359923D02*
X-8003419Y25301986D01*
X-8003419Y25301986D02*
X-7887545Y25244049D01*
X-7887545Y25244049D02*
X-7829608Y25186111D01*
X-7829608Y25186111D02*
X-7771670Y25070237D01*
X-7771670Y25070237D02*
X-7771670Y24954363D01*
X-7771670Y24954363D02*
X-7829608Y24838489D01*
X-7829608Y24838489D02*
X-7887545Y24780551D01*
X-7887545Y24780551D02*
X-8003419Y24722614D01*
X-8003419Y24722614D02*
X-8235168Y24664677D01*
X-8235168Y24664677D02*
X-8524853Y24664677D01*
X-8524853Y24664677D02*
X-8756602Y24722614D01*
X-8756602Y24722614D02*
X-8872476Y24780551D01*
X-8872476Y24780551D02*
X-8930413Y24838489D01*
X-8930413Y24838489D02*
X-8988350Y24954363D01*
D10*
X-8003055Y10780911D02*
X-8036047Y10747920D01*
X-8036047Y10747920D02*
X-8135023Y10714928D01*
X-8135023Y10714928D02*
X-8201007Y10714928D01*
X-8201007Y10714928D02*
X-8299983Y10747920D01*
X-8299983Y10747920D02*
X-8365967Y10813903D01*
X-8365967Y10813903D02*
X-8398959Y10879887D01*
X-8398959Y10879887D02*
X-8431951Y11011855D01*
X-8431951Y11011855D02*
X-8431951Y11110831D01*
X-8431951Y11110831D02*
X-8398959Y11242799D01*
X-8398959Y11242799D02*
X-8365967Y11308783D01*
X-8365967Y11308783D02*
X-8299983Y11374767D01*
X-8299983Y11374767D02*
X-8201007Y11407759D01*
X-8201007Y11407759D02*
X-8135023Y11407759D01*
X-8135023Y11407759D02*
X-8036047Y11374767D01*
X-8036047Y11374767D02*
X-8003055Y11341775D01*
X-7343216Y10714928D02*
X-7739120Y10714928D01*
X-7541168Y10714928D02*
X-7541168Y11407759D01*
X-7541168Y11407759D02*
X-7607152Y11308783D01*
X-7607152Y11308783D02*
X-7673136Y11242799D01*
X-7673136Y11242799D02*
X-7739120Y11209807D01*
X-6914321Y11407759D02*
X-6848337Y11407759D01*
X-6848337Y11407759D02*
X-6782353Y11374767D01*
X-6782353Y11374767D02*
X-6749361Y11341775D01*
X-6749361Y11341775D02*
X-6716369Y11275791D01*
X-6716369Y11275791D02*
X-6683377Y11143823D01*
X-6683377Y11143823D02*
X-6683377Y10978863D01*
X-6683377Y10978863D02*
X-6716369Y10846895D01*
X-6716369Y10846895D02*
X-6749361Y10780911D01*
X-6749361Y10780911D02*
X-6782353Y10747920D01*
X-6782353Y10747920D02*
X-6848337Y10714928D01*
X-6848337Y10714928D02*
X-6914321Y10714928D01*
X-6914321Y10714928D02*
X-6980305Y10747920D01*
X-6980305Y10747920D02*
X-7013297Y10780911D01*
X-7013297Y10780911D02*
X-7046289Y10846895D01*
X-7046289Y10846895D02*
X-7079281Y10978863D01*
X-7079281Y10978863D02*
X-7079281Y11143823D01*
X-7079281Y11143823D02*
X-7046289Y11275791D01*
X-7046289Y11275791D02*
X-7013297Y11341775D01*
X-7013297Y11341775D02*
X-6980305Y11374767D01*
X-6980305Y11374767D02*
X-6914321Y11407759D01*
%TO.C,R2*%
D14*
X2140000Y-889000D02*
X2940000Y-889000D01*
%TO.C,IC1*%
D15*
X9557000Y-5881500D02*
X9557000Y-2881500D01*
X13557000Y-5881500D02*
X9557000Y-5881500D01*
X9557000Y-2881500D02*
X13557000Y-2881500D01*
X13557000Y-2881500D02*
X13557000Y-5881500D01*
X11211137Y-4381500D02*
G75*
G02*
X10602863Y-4381500I-304137J0D01*
G01*
X10602863Y-4381500D02*
G75*
G02*
X11211137Y-4381500I304137J0D01*
G01*
%TO.C,C2*%
D14*
X-6096000Y18370500D02*
X-6096000Y17570500D01*
%TO.C,U$1*%
X5540300Y-17907000D02*
X4746600Y-17907000D01*
D16*
X5925200Y-17907000D02*
G75*
G02*
X4361800Y-17907000I-781700J0D01*
G01*
X4361800Y-17907000D02*
G75*
G02*
X5925200Y-17907000I781700J0D01*
G01*
%TO.C,C6*%
D14*
X10604500Y-6458000D02*
X10604500Y-7258000D01*
%TO.C,LED4*%
D15*
X14290552Y5659552D02*
X12390552Y8950448D01*
X14550359Y5809552D02*
X14290552Y5659552D01*
X17321641Y7409552D02*
X17581448Y7559552D01*
X17581448Y7559552D02*
X15681448Y10850448D01*
X12390552Y8950448D02*
X12650359Y9100448D01*
X15681448Y10850448D02*
X15421641Y10700448D01*
D17*
G36*
X14428177Y6173177D02*
G01*
X14618677Y5843222D01*
X14288722Y5652722D01*
X13907722Y6312633D01*
X14428177Y6173177D01*
G37*
%TO.C,C5*%
D14*
X-63500Y-14332000D02*
X-63500Y-15132000D01*
%TO.C,D1*%
D16*
X3999000Y15510000D02*
X3999000Y17256000D01*
X4699000Y16083000D02*
X4299000Y16683000D01*
X4299000Y16683000D02*
X5099000Y16683000D01*
X5099000Y16683000D02*
X4699000Y16083000D01*
X5399000Y17256000D02*
X5399000Y15510000D01*
D17*
G36*
X4699000Y16283000D02*
G01*
X4499000Y16583000D01*
X4899000Y16583000D01*
X4699000Y16283000D01*
G37*
G36*
X5199000Y15883000D02*
G01*
X4199000Y15883000D01*
X4199000Y16083000D01*
X5199000Y16083000D01*
X5199000Y15883000D01*
G37*
%TO.C,R3*%
D14*
X-7112000Y18904000D02*
X-7112000Y19704000D01*
%TO.C,LED2*%
D15*
X6040552Y-14163552D02*
X9331448Y-12263552D01*
X6190552Y-14423359D02*
X6040552Y-14163552D01*
X7790552Y-17194641D02*
X7940552Y-17454448D01*
X7940552Y-17454448D02*
X11231448Y-15554448D01*
X9331448Y-12263552D02*
X9481448Y-12523359D01*
X11231448Y-15554448D02*
X11081448Y-15294641D01*
D17*
G36*
X6554177Y-14301177D02*
G01*
X6224222Y-14491677D01*
X6033722Y-14161722D01*
X6693633Y-13780722D01*
X6554177Y-14301177D01*
G37*
%TO.C,R10*%
D14*
X-7683500Y10395000D02*
X-7683500Y11195000D01*
%TO.C,LED5*%
D15*
X9204448Y12263552D02*
X5913552Y14163552D01*
X9354448Y12523359D02*
X9204448Y12263552D01*
X10954448Y15294641D02*
X11104448Y15554448D01*
X11104448Y15554448D02*
X7813552Y17454448D01*
X5913552Y14163552D02*
X6063552Y14423359D01*
X7813552Y17454448D02*
X7663552Y17194641D01*
D17*
G36*
X9396778Y12586677D02*
G01*
X9206278Y12256722D01*
X8546367Y12637722D01*
X9066823Y12777177D01*
X9396778Y12586677D01*
G37*
%TO.C,D2*%
D16*
X4443500Y-22336000D02*
X4443500Y-20590000D01*
X5143500Y-21763000D02*
X4743500Y-21163000D01*
X4743500Y-21163000D02*
X5543500Y-21163000D01*
X5543500Y-21163000D02*
X5143500Y-21763000D01*
X5843500Y-20590000D02*
X5843500Y-22336000D01*
D17*
G36*
X5143500Y-21563000D02*
G01*
X4943500Y-21263000D01*
X5343500Y-21263000D01*
X5143500Y-21563000D01*
G37*
G36*
X5643500Y-21963000D02*
G01*
X4643500Y-21963000D01*
X4643500Y-21763000D01*
X5643500Y-21763000D01*
X5643500Y-21963000D01*
G37*
%TO.C,SWITCH0*%
D15*
X-3600000Y-7267000D02*
X3600000Y-7267000D01*
X-3600000Y-10767000D02*
X-3600000Y-7267000D01*
X3600000Y-7267000D02*
X3600000Y-10767000D01*
X3600000Y-10767000D02*
X-3600000Y-10767000D01*
%TO.C,R4*%
D14*
X-9442500Y10795000D02*
X-10242500Y10795000D01*
%TO.C,LED9*%
D15*
X-14163552Y-6294552D02*
X-12263552Y-9585448D01*
X-14423359Y-6444552D02*
X-14163552Y-6294552D01*
X-17194641Y-8044552D02*
X-17454448Y-8194552D01*
X-17454448Y-8194552D02*
X-15554448Y-11485448D01*
X-12263552Y-9585448D02*
X-12523359Y-9735448D01*
X-15554448Y-11485448D02*
X-15294641Y-11335448D01*
D17*
G36*
X-13780722Y-6947633D02*
G01*
X-14301177Y-6808177D01*
X-14491677Y-6478222D01*
X-14161722Y-6287722D01*
X-13780722Y-6947633D01*
G37*
%TO.C,L0*%
G36*
X6604000Y21844000D02*
G01*
X5842000Y21844000D01*
X6223000Y22352000D01*
X6604000Y21844000D01*
G37*
G36*
X6667500Y22238500D02*
G01*
X5778500Y22238500D01*
X5778500Y22429000D01*
X6667500Y22429000D01*
X6667500Y22238500D01*
G37*
%TO.C,C4*%
D14*
X3429000Y-14795500D02*
X3429000Y-13779500D01*
%TO.C,U1*%
D15*
X6429500Y-4910000D02*
X8429500Y-4910000D01*
X6429500Y-2710000D02*
X8429500Y-2710000D01*
X8170918Y-5310000D02*
G75*
G02*
X7888082Y-5310000I-141418J0D01*
G01*
X7888082Y-5310000D02*
G75*
G02*
X8170918Y-5310000I141418J0D01*
G01*
%TO.C,U4*%
D16*
X-2598500Y18592500D02*
X1201500Y18592500D01*
X1201500Y13792500D02*
X-2598500Y13792500D01*
X-1333500Y18122900D02*
G75*
G02*
X-1841500Y18122900I-254000J0D01*
G01*
X-1841500Y18122900D02*
G75*
G02*
X-1333500Y18122900I254000J0D01*
G01*
%TO.C,SW1*%
X-6606000Y-1984000D02*
X-13206000Y-1984000D01*
X-6606000Y2216000D02*
X-6606000Y-184000D01*
X-13206000Y-184000D02*
X-13206000Y2216000D01*
X-13206000Y4016000D02*
X-6606000Y4016000D01*
X-8906000Y1016000D02*
G75*
G02*
X-10906000Y1016000I-1000000J0D01*
G01*
X-10906000Y1016000D02*
G75*
G02*
X-8906000Y1016000I1000000J0D01*
G01*
X-8402700Y1016000D02*
G75*
G02*
X-11409300Y1016000I-1503300J0D01*
G01*
X-11409300Y1016000D02*
G75*
G02*
X-8402700Y1016000I1503300J0D01*
G01*
%TO.C,SW2*%
X13206000Y-1984000D02*
X6606000Y-1984000D01*
X13206000Y2216000D02*
X13206000Y-184000D01*
X6606000Y-184000D02*
X6606000Y2216000D01*
X6606000Y4016000D02*
X13206000Y4016000D01*
X10906000Y1016000D02*
G75*
G02*
X8906000Y1016000I-1000000J0D01*
G01*
X8906000Y1016000D02*
G75*
G02*
X10906000Y1016000I1000000J0D01*
G01*
X11409300Y1016000D02*
G75*
G02*
X8402700Y1016000I-1503300J0D01*
G01*
X8402700Y1016000D02*
G75*
G02*
X11409300Y1016000I1503300J0D01*
G01*
%TO.C,LED6*%
D15*
X-6167552Y14290552D02*
X-9458448Y12390552D01*
X-6317552Y14550359D02*
X-6167552Y14290552D01*
X-7917552Y17321641D02*
X-8067552Y17581448D01*
X-8067552Y17581448D02*
X-11358448Y15681448D01*
X-9458448Y12390552D02*
X-9608448Y12650359D01*
X-11358448Y15681448D02*
X-11208448Y15421641D01*
D17*
G36*
X-6160722Y14288722D02*
G01*
X-6820633Y13907722D01*
X-6681177Y14428177D01*
X-6351222Y14618677D01*
X-6160722Y14288722D01*
G37*
%TO.C,D5*%
D16*
X-3972000Y-192000D02*
X-4572000Y-192000D01*
X-3972000Y408000D02*
X-5172000Y408000D01*
X-4572000Y-192000D02*
X-3972000Y408000D01*
X-4572000Y-192000D02*
X-5172000Y-192000D01*
X-5172000Y408000D02*
X-4572000Y-192000D01*
%TO.C,R5*%
D14*
X7112000Y19221500D02*
X7112000Y20021500D01*
%TO.C,RESET0*%
D16*
X2100000Y760600D02*
X-2100000Y760600D01*
X-2100000Y3811400D02*
X2100000Y3811400D01*
%TO.C,IC4*%
X1700000Y-3097000D02*
X1700000Y-2747000D01*
X1700000Y303000D02*
X1700000Y-47000D01*
X900000Y-3097000D02*
X1700000Y-3097000D01*
X900000Y303000D02*
X1700000Y303000D01*
X-900000Y-3097000D02*
X-1700000Y-3097000D01*
X-1700000Y-3097000D02*
X-1700000Y-2747000D01*
X-1700000Y-47000D02*
X-1700000Y303000D01*
X-1700000Y303000D02*
X-900000Y303000D01*
D18*
X2350000Y-2947000D02*
G75*
G02*
X2150000Y-2947000I-100000J0D01*
G01*
X2150000Y-2947000D02*
G75*
G02*
X2350000Y-2947000I100000J0D01*
G01*
%TO.C,CN1*%
D15*
X3800000Y24228000D02*
X3800000Y25128000D01*
X3800000Y25128000D02*
X-3800000Y25128000D01*
X2500000Y19728000D02*
X1700000Y19728000D01*
X-1700000Y19728000D02*
X-2500000Y19728000D01*
X-3800000Y25128000D02*
X-3800000Y24228000D01*
%TO.C,LED8*%
X-15245000Y1900000D02*
X-15245000Y-1900000D01*
X-15545000Y1900000D02*
X-15245000Y1900000D01*
X-18745000Y1900000D02*
X-19045000Y1900000D01*
X-19045000Y1900000D02*
X-19045000Y-1900000D01*
X-15245000Y-1900000D02*
X-15545000Y-1900000D01*
X-19045000Y-1900000D02*
X-18745000Y-1900000D01*
D17*
G36*
X-15240000Y1143000D02*
G01*
X-15621000Y1524000D01*
X-15621000Y1905000D01*
X-15240000Y1905000D01*
X-15240000Y1143000D01*
G37*
%TO.C,SP1*%
D15*
X-11687500Y-4446000D02*
X-11687500Y-8096000D01*
X-9937500Y-9846000D02*
X-6337500Y-9846000D01*
X-9537500Y-2346000D02*
X-6337500Y-2346000D01*
X-7337500Y-5096000D02*
X-6537500Y-5096000D01*
X-7337500Y-7096000D02*
X-6537500Y-7096000D01*
X-6937500Y-6696000D02*
X-6937500Y-7496000D01*
X-4187500Y-7696000D02*
X-4187500Y-4496000D01*
X-6230394Y-5096000D02*
G75*
G02*
X-7644606Y-5096000I-707106J0D01*
G01*
X-7644606Y-5096000D02*
G75*
G02*
X-6230394Y-5096000I707106J0D01*
G01*
X-6230394Y-7096000D02*
G75*
G02*
X-7644606Y-7096000I-707106J0D01*
G01*
X-7644606Y-7096000D02*
G75*
G02*
X-6230394Y-7096000I707106J0D01*
G01*
%TO.C,R8*%
D14*
X7493000Y-7258000D02*
X7493000Y-6458000D01*
%TO.C,LED10*%
D15*
X-8823448Y-12517552D02*
X-5532552Y-14417552D01*
X-8973448Y-12777359D02*
X-8823448Y-12517552D01*
X-10573448Y-15548641D02*
X-10723448Y-15808448D01*
X-10723448Y-15808448D02*
X-7432552Y-17708448D01*
X-5532552Y-14417552D02*
X-5682552Y-14677359D01*
X-7432552Y-17708448D02*
X-7282552Y-17448641D01*
D17*
G36*
X-8165367Y-12891722D02*
G01*
X-8685823Y-13031177D01*
X-9015778Y-12840677D01*
X-8825278Y-12510722D01*
X-8165367Y-12891722D01*
G37*
%TO.C,R9*%
D14*
X8210500Y-9017000D02*
X7410500Y-9017000D01*
%TO.C,C8*%
X3429000Y-16637000D02*
X3429000Y-15621000D01*
%TO.C,LED1*%
D15*
X12517552Y-8823448D02*
X14417552Y-5532552D01*
X12777359Y-8973448D02*
X12517552Y-8823448D01*
X15548641Y-10573448D02*
X15808448Y-10723448D01*
X15808448Y-10723448D02*
X17708448Y-7432552D01*
X14417552Y-5532552D02*
X14677359Y-5682552D01*
X17708448Y-7432552D02*
X17448641Y-7282552D01*
D17*
G36*
X13031177Y-8685823D02*
G01*
X12840677Y-9015778D01*
X12510722Y-8825278D01*
X12891722Y-8165367D01*
X13031177Y-8685823D01*
G37*
%TO.C,LED3*%
D15*
X15245000Y-2154000D02*
X15245000Y1646000D01*
X15545000Y-2154000D02*
X15245000Y-2154000D01*
X18745000Y-2154000D02*
X19045000Y-2154000D01*
X19045000Y-2154000D02*
X19045000Y1646000D01*
X15245000Y1646000D02*
X15545000Y1646000D01*
X19045000Y1646000D02*
X18745000Y1646000D01*
D17*
G36*
X15621000Y-1778000D02*
G01*
X15621000Y-2159000D01*
X15240000Y-2159000D01*
X15240000Y-1397000D01*
X15621000Y-1778000D01*
G37*
%TO.C,U2*%
D15*
X-11427500Y9110600D02*
X-10677500Y9110600D01*
X-11427500Y7907400D02*
X-11427500Y9110600D01*
X-10677500Y9110600D02*
X-10677500Y7907400D01*
X-10677500Y9110600D02*
X-10577500Y9110600D01*
X-10677500Y7907400D02*
X-11427500Y7907400D01*
X-10677500Y7907400D02*
X-10577500Y7907400D01*
X-10577500Y9110600D02*
X-9527500Y9110600D01*
X-10577500Y7907400D02*
X-10577500Y9110600D01*
X-9527500Y9110600D02*
X-9527500Y7907400D01*
X-9527500Y7907400D02*
X-10577500Y7907400D01*
%TO.C,BATT0*%
D16*
X4000000Y-17090000D02*
X4000000Y-21090000D01*
X3150000Y-19590000D02*
X3150000Y-17090000D01*
X3150000Y-17090000D02*
X4000000Y-17090000D01*
X2250000Y-24590000D02*
X-2250000Y-24590000D01*
X1750000Y-19590000D02*
X3150000Y-19590000D01*
X-3150000Y-19590000D02*
X-1750000Y-19590000D01*
X-3150000Y-17090000D02*
X-3150000Y-19590000D01*
X-4000000Y-21090000D02*
X-4000000Y-17090000D01*
X-4000000Y-17090000D02*
X-3150000Y-17090000D01*
%TO.C,U$5*%
D15*
X-3600000Y13061500D02*
X-3600000Y12511500D01*
X-3050000Y13061500D02*
X-3600000Y13061500D01*
X3050000Y13061500D02*
X3600000Y13061500D01*
X3600000Y13061500D02*
X3600000Y12511500D01*
X3600000Y6411500D02*
X3600000Y5861500D01*
X3600000Y5861500D02*
X3050000Y5861500D01*
D17*
G36*
X-3048000Y5727700D02*
G01*
X-3708400Y5727700D01*
X-3708400Y6388100D01*
X-3048000Y5727700D01*
G37*
%TO.C,LED7*%
D15*
X-12263552Y9204448D02*
X-14163552Y5913552D01*
X-12523359Y9354448D02*
X-12263552Y9204448D01*
X-15294641Y10954448D02*
X-15554448Y11104448D01*
X-15554448Y11104448D02*
X-17454448Y7813552D01*
X-14163552Y5913552D02*
X-14423359Y6063552D01*
X-17454448Y7813552D02*
X-17194641Y7663552D01*
D17*
G36*
X-12256722Y9206278D02*
G01*
X-12637722Y8546367D01*
X-12777177Y9066823D01*
X-12586677Y9396778D01*
X-12256722Y9206278D01*
G37*
%TO.C,R7*%
D14*
X8128000Y6394500D02*
X8128000Y7194500D01*
%TO.C,R1*%
X-12173000Y6032500D02*
X-12973000Y6032500D01*
%TO.C,C1*%
X7493000Y-5988000D02*
X7493000Y-5188000D01*
%TO.C,C3*%
X5524500Y9480500D02*
X5524500Y8680500D01*
%TO.C,Q1*%
D16*
X4800600Y-10652900D02*
X4800600Y-9644100D01*
X6113400Y-10652900D02*
X4800600Y-10652900D01*
X6121400Y-8708100D02*
X6121400Y-9466900D01*
X4800600Y-8516900D02*
X4800600Y-7508100D01*
X4800600Y-7508100D02*
X6113400Y-7508100D01*
%TO.C,U3*%
X-5333000Y-14186000D02*
X-5333000Y-15786000D01*
X-4083000Y-13936000D02*
X-3283000Y-13936000D01*
X-2033000Y-14186000D02*
X-2033000Y-15786000D01*
%TO.C,D3*%
X5172000Y-192000D02*
X4572000Y-192000D01*
X5172000Y408000D02*
X3972000Y408000D01*
X4572000Y-192000D02*
X5172000Y408000D01*
X4572000Y-192000D02*
X3972000Y-192000D01*
X3972000Y408000D02*
X4572000Y-192000D01*
%TO.C,R6*%
D14*
X3238500Y-3473500D02*
X3238500Y-4273500D01*
%TO.C,IC2*%
D16*
X-13170000Y-2868000D02*
X-14770000Y-2868000D01*
X-14770000Y-5768000D02*
X-13170000Y-5768000D01*
X-14220000Y-3368000D02*
G75*
G02*
X-14420000Y-3368000I-100000J0D01*
G01*
X-14420000Y-3368000D02*
G75*
G02*
X-14220000Y-3368000I100000J0D01*
G01*
%TO.C,U$35*%
D14*
X-5080000Y-17637200D02*
X-5080000Y-18430800D01*
X-4683200Y-18034000D02*
X-5476900Y-18034000D01*
D16*
X-4298300Y-18034000D02*
G75*
G02*
X-5861700Y-18034000I-781700J0D01*
G01*
X-5861700Y-18034000D02*
G75*
G02*
X-4298300Y-18034000I781700J0D01*
G01*
%TO.C,THM1*%
X7445300Y7642200D02*
X7445300Y9756800D01*
X8556700Y7642200D02*
X7445300Y7642200D01*
X7445300Y9756800D02*
X8556600Y9756800D01*
X8556600Y9756800D02*
X8556700Y7642200D01*
%TO.C,C9*%
D14*
X-11703000Y6032500D02*
X-10903000Y6032500D01*
D17*
%TO.C,PWR0*%
G36*
X-5969000Y21590000D02*
G01*
X-6731000Y21590000D01*
X-6350000Y22098000D01*
X-5969000Y21590000D01*
G37*
G36*
X-5905500Y21984500D02*
G01*
X-6794500Y21984500D01*
X-6794500Y22175000D01*
X-5905500Y22175000D01*
X-5905500Y21984500D01*
G37*
%TO.C,C10*%
D14*
X-7424984Y11669512D02*
X-7424984Y12469512D01*
%TD*%
%LPC*%
D17*
%TO.C,GNDTAP0*%
G36*
X25191202Y1818810D02*
G01*
X25263820Y1093098D01*
X25300174Y364668D01*
X25300174Y-364668D01*
X25263820Y-1093098D01*
X25191202Y-1818810D01*
X25082500Y-2540000D01*
X23558500Y-2540000D01*
X23252337Y-2521481D01*
X22950638Y-2466192D01*
X22657804Y-2374941D01*
X22378103Y-2249058D01*
X22115616Y-2090379D01*
X21874168Y-1901217D01*
X21657283Y-1684332D01*
X21468121Y-1442884D01*
X21309442Y-1180397D01*
X21183559Y-900696D01*
X21092308Y-607862D01*
X21037019Y-306163D01*
X21018500Y0D01*
X21037019Y306163D01*
X21092308Y607862D01*
X21183559Y900696D01*
X21309442Y1180397D01*
X21468121Y1442884D01*
X21657283Y1684332D01*
X21874168Y1901217D01*
X22115616Y2090379D01*
X22378103Y2249058D01*
X22657804Y2374941D01*
X22950638Y2466192D01*
X23252337Y2521481D01*
X23558500Y2540000D01*
X25082500Y2540000D01*
X25191202Y1818810D01*
G37*
%TO.C,UNK3V3TAP2*%
G36*
X10988715Y22778263D02*
G01*
X11653509Y22478296D01*
X12302525Y22145565D01*
X12934149Y21780897D01*
X13546811Y21385198D01*
X14138987Y20959453D01*
X14709205Y20504719D01*
X13947205Y19184897D01*
X13778085Y18929011D01*
X13579354Y18695377D01*
X13353911Y18487400D01*
X13105043Y18308114D01*
X12836379Y18160133D01*
X12551836Y18045614D01*
X12255566Y17966228D01*
X11951885Y17923133D01*
X11645225Y17916957D01*
X11340055Y17947789D01*
X11040828Y18015181D01*
X10751904Y18118148D01*
X10477500Y18255192D01*
X10221615Y18424311D01*
X9987980Y18623043D01*
X9780004Y18848485D01*
X9600717Y19097354D01*
X9452736Y19366017D01*
X9338217Y19650560D01*
X9258832Y19946831D01*
X9215737Y20250512D01*
X9209560Y20557172D01*
X9240393Y20862341D01*
X9307784Y21161569D01*
X9410752Y21450492D01*
X9547795Y21724897D01*
X10309795Y23044719D01*
X10988715Y22778263D01*
G37*
%TO.C,SCL0*%
G36*
X-16447333Y17058691D02*
G01*
X-16224702Y16847707D01*
X-16029127Y16611425D01*
X-15863458Y16353292D01*
X-15730110Y16077072D01*
X-15631031Y15786793D01*
X-15567662Y15486687D01*
X-15540929Y15181133D01*
X-15551222Y14874582D01*
X-15598391Y14571508D01*
X-15681747Y14276329D01*
X-15800075Y13993350D01*
X-15951649Y13726696D01*
X-16134261Y13480258D01*
X-16345245Y13257627D01*
X-16581527Y13062051D01*
X-16839659Y12896382D01*
X-17115880Y12763035D01*
X-17406158Y12663955D01*
X-17706265Y12600586D01*
X-18011819Y12573854D01*
X-18318370Y12584147D01*
X-18621444Y12631315D01*
X-18916623Y12714672D01*
X-19199602Y12832999D01*
X-19466256Y12984574D01*
X-19712694Y13167185D01*
X-20880146Y14146794D01*
X-20499844Y14769130D01*
X-20088994Y15371735D01*
X-19648617Y15953113D01*
X-19179809Y16511817D01*
X-18683735Y17046458D01*
X-18161627Y17555708D01*
X-17614785Y18038299D01*
X-16447333Y17058691D01*
G37*
%TO.C,GNDTAP2*%
G36*
X-11340055Y-17947789D02*
G01*
X-11040828Y-18015181D01*
X-10751904Y-18118148D01*
X-10477500Y-18255192D01*
X-10221615Y-18424311D01*
X-9987980Y-18623043D01*
X-9780004Y-18848485D01*
X-9600717Y-19097354D01*
X-9452736Y-19366017D01*
X-9338217Y-19650560D01*
X-9258832Y-19946831D01*
X-9215737Y-20250512D01*
X-9209560Y-20557172D01*
X-9240393Y-20862341D01*
X-9307784Y-21161569D01*
X-9410752Y-21450492D01*
X-9547795Y-21724897D01*
X-10309795Y-23044719D01*
X-10988715Y-22778263D01*
X-11653509Y-22478296D01*
X-12302525Y-22145565D01*
X-12934149Y-21780897D01*
X-13546811Y-21385198D01*
X-14138987Y-20959453D01*
X-14709205Y-20504719D01*
X-13947205Y-19184897D01*
X-13778085Y-18929011D01*
X-13579354Y-18695377D01*
X-13353911Y-18487400D01*
X-13105043Y-18308114D01*
X-12836379Y-18160133D01*
X-12551836Y-18045614D01*
X-12255566Y-17966228D01*
X-11951885Y-17923133D01*
X-11645225Y-17916957D01*
X-11340055Y-17947789D01*
G37*
%TO.C,SDA0*%
G36*
X-21302656Y10437875D02*
G01*
X-21021290Y10315759D01*
X-20756696Y10160617D01*
X-20512732Y9974714D01*
X-20292953Y9760760D01*
X-20100568Y9521874D01*
X-19938378Y9261540D01*
X-19808752Y8983556D01*
X-19713578Y8691972D01*
X-19654244Y8391043D01*
X-19631616Y8085156D01*
X-19646023Y7778772D01*
X-19697256Y7476358D01*
X-19784567Y7182325D01*
X-19906685Y6900960D01*
X-20061825Y6636365D01*
X-20247728Y6392401D01*
X-20461683Y6172622D01*
X-20700568Y5980237D01*
X-20960903Y5818047D01*
X-21238887Y5688421D01*
X-21530471Y5593247D01*
X-21831400Y5533913D01*
X-22137287Y5511285D01*
X-22443671Y5525691D01*
X-22746085Y5576925D01*
X-23040118Y5664237D01*
X-24472209Y6185475D01*
X-24327694Y6900351D01*
X-24147725Y7607134D01*
X-23932749Y8304068D01*
X-23683301Y8989419D01*
X-23400002Y9661486D01*
X-23083555Y10318595D01*
X-22734747Y10959114D01*
X-21302656Y10437875D01*
G37*
%TO.C,CN1*%
G36*
X1550000Y19328000D02*
G01*
X1050000Y19328000D01*
X1050000Y20778000D01*
X1550000Y20778000D01*
X1550000Y19328000D01*
G37*
G36*
X900000Y19328000D02*
G01*
X400000Y19328000D01*
X400000Y20778000D01*
X900000Y20778000D01*
X900000Y19328000D01*
G37*
G36*
X250000Y19328000D02*
G01*
X-250000Y19328000D01*
X-250000Y20778000D01*
X250000Y20778000D01*
X250000Y19328000D01*
G37*
G36*
X-400000Y19328000D02*
G01*
X-900000Y19328000D01*
X-900000Y20778000D01*
X-400000Y20778000D01*
X-400000Y19328000D01*
G37*
G36*
X-1050000Y19328000D02*
G01*
X-1550000Y19328000D01*
X-1550000Y20778000D01*
X-1050000Y20778000D01*
X-1050000Y19328000D01*
G37*
%TO.C,GND3TAP0*%
G36*
X-9611295Y21661397D02*
G01*
X-9474252Y21386992D01*
X-9371284Y21098069D01*
X-9303893Y20798841D01*
X-9273060Y20493672D01*
X-9279237Y20187012D01*
X-9322332Y19883331D01*
X-9401717Y19587060D01*
X-9516236Y19302517D01*
X-9664217Y19033854D01*
X-9843504Y18784985D01*
X-10051480Y18559543D01*
X-10285115Y18360811D01*
X-10541000Y18191692D01*
X-10815404Y18054648D01*
X-11104328Y17951681D01*
X-11403555Y17884289D01*
X-11708725Y17853457D01*
X-12015385Y17859633D01*
X-12319066Y17902728D01*
X-12615336Y17982114D01*
X-12899879Y18096633D01*
X-13168543Y18244614D01*
X-13417411Y18423900D01*
X-13642854Y18631877D01*
X-13841585Y18865511D01*
X-14010705Y19121397D01*
X-14772705Y20441219D01*
X-14202487Y20895953D01*
X-13610311Y21321698D01*
X-12997649Y21717397D01*
X-12366025Y22082065D01*
X-11717009Y22414796D01*
X-11052215Y22714763D01*
X-10373295Y22981219D01*
X-9611295Y21661397D01*
G37*
%TO.C,IO10*%
G36*
X18161627Y17619208D02*
G01*
X18683735Y17109958D01*
X19179809Y16575317D01*
X19648617Y16016613D01*
X20088994Y15435235D01*
X20499844Y14832630D01*
X20880146Y14210294D01*
X19712694Y13230685D01*
X19466256Y13048074D01*
X19199602Y12896499D01*
X18916623Y12778172D01*
X18621444Y12694815D01*
X18318370Y12647647D01*
X18011819Y12637354D01*
X17706265Y12664086D01*
X17406158Y12727455D01*
X17115880Y12826535D01*
X16839659Y12959882D01*
X16581527Y13125551D01*
X16345245Y13321127D01*
X16134261Y13543758D01*
X15951649Y13790196D01*
X15800075Y14056850D01*
X15681747Y14339829D01*
X15598391Y14635008D01*
X15551222Y14938082D01*
X15540929Y15244633D01*
X15567662Y15550187D01*
X15631031Y15850293D01*
X15730110Y16140572D01*
X15863458Y16416792D01*
X16029127Y16674925D01*
X16224702Y16911207D01*
X16447333Y17122191D01*
X17614785Y18101799D01*
X18161627Y17619208D01*
G37*
%TO.C,UNK3.3VTAP0*%
G36*
X-23252337Y2521481D02*
G01*
X-22950638Y2466192D01*
X-22657804Y2374941D01*
X-22378103Y2249058D01*
X-22115616Y2090379D01*
X-21874168Y1901217D01*
X-21657283Y1684332D01*
X-21468121Y1442884D01*
X-21309442Y1180397D01*
X-21183559Y900696D01*
X-21092308Y607862D01*
X-21037019Y306163D01*
X-21018500Y0D01*
X-21037019Y-306163D01*
X-21092308Y-607862D01*
X-21183559Y-900696D01*
X-21309442Y-1180397D01*
X-21468121Y-1442884D01*
X-21657283Y-1684332D01*
X-21874168Y-1901217D01*
X-22115616Y-2090379D01*
X-22378103Y-2249058D01*
X-22657804Y-2374941D01*
X-22950638Y-2466192D01*
X-23252337Y-2521481D01*
X-23558500Y-2540000D01*
X-25082500Y-2540000D01*
X-25191202Y-1818810D01*
X-25263820Y-1093098D01*
X-25300174Y-364668D01*
X-25300174Y364668D01*
X-25263820Y1093098D01*
X-25191202Y1818810D01*
X-25082500Y2540000D01*
X-23558500Y2540000D01*
X-23252337Y2521481D01*
G37*
%TO.C,IO12*%
G36*
X18318370Y-12647647D02*
G01*
X18621444Y-12694815D01*
X18916623Y-12778172D01*
X19199602Y-12896499D01*
X19466256Y-13048074D01*
X19712694Y-13230685D01*
X20880146Y-14210294D01*
X20499844Y-14832630D01*
X20088994Y-15435235D01*
X19648617Y-16016613D01*
X19179809Y-16575317D01*
X18683735Y-17109958D01*
X18161627Y-17619208D01*
X17614785Y-18101799D01*
X16447333Y-17122191D01*
X16224702Y-16911207D01*
X16029127Y-16674925D01*
X15863458Y-16416792D01*
X15730110Y-16140572D01*
X15631031Y-15850293D01*
X15567662Y-15550187D01*
X15540929Y-15244633D01*
X15551222Y-14938082D01*
X15598391Y-14635008D01*
X15681747Y-14339829D01*
X15800075Y-14056850D01*
X15951649Y-13790196D01*
X16134261Y-13543758D01*
X16345245Y-13321127D01*
X16581527Y-13125551D01*
X16839659Y-12959882D01*
X17115880Y-12826535D01*
X17406158Y-12727455D01*
X17706265Y-12664086D01*
X18011819Y-12637354D01*
X18318370Y-12647647D01*
G37*
%TO.C,D6*%
G36*
X22443671Y-5525691D02*
G01*
X22746085Y-5576925D01*
X23040118Y-5664237D01*
X24472209Y-6185475D01*
X24327694Y-6900351D01*
X24147725Y-7607134D01*
X23932749Y-8304068D01*
X23683301Y-8989419D01*
X23400002Y-9661486D01*
X23083555Y-10318595D01*
X22734747Y-10959114D01*
X21302656Y-10437875D01*
X21021290Y-10315759D01*
X20756696Y-10160617D01*
X20512732Y-9974714D01*
X20292953Y-9760760D01*
X20100568Y-9521874D01*
X19938378Y-9261540D01*
X19808752Y-8983556D01*
X19713578Y-8691972D01*
X19654244Y-8391043D01*
X19631616Y-8085156D01*
X19646023Y-7778772D01*
X19697256Y-7476358D01*
X19784567Y-7182325D01*
X19906685Y-6900960D01*
X20061825Y-6636365D01*
X20247728Y-6392401D01*
X20461683Y-6172622D01*
X20700568Y-5980237D01*
X20960903Y-5818047D01*
X21238887Y-5688421D01*
X21530471Y-5593247D01*
X21831400Y-5533913D01*
X22137287Y-5511285D01*
X22443671Y-5525691D01*
G37*
%TO.C,RX0*%
G36*
X-21767900Y-5787913D02*
G01*
X-21466971Y-5847247D01*
X-21175387Y-5942421D01*
X-20897403Y-6072047D01*
X-20637068Y-6234237D01*
X-20398183Y-6426622D01*
X-20184228Y-6646401D01*
X-19998325Y-6890365D01*
X-19843185Y-7154960D01*
X-19721067Y-7436325D01*
X-19633756Y-7730358D01*
X-19582523Y-8032772D01*
X-19568116Y-8339156D01*
X-19590744Y-8645043D01*
X-19650078Y-8945972D01*
X-19745252Y-9237556D01*
X-19874878Y-9515540D01*
X-20037068Y-9775874D01*
X-20229453Y-10014760D01*
X-20449232Y-10228714D01*
X-20693196Y-10414617D01*
X-20957790Y-10569759D01*
X-21239156Y-10691875D01*
X-22671247Y-11213114D01*
X-23020055Y-10572595D01*
X-23336502Y-9915486D01*
X-23619801Y-9243419D01*
X-23869249Y-8558068D01*
X-24084225Y-7861134D01*
X-24264194Y-7154351D01*
X-24408709Y-6439475D01*
X-22976618Y-5918237D01*
X-22682585Y-5830925D01*
X-22380171Y-5779691D01*
X-22073787Y-5765285D01*
X-21767900Y-5787913D01*
G37*
%TO.C,VCC2*%
G36*
X11951885Y-17923133D02*
G01*
X12255566Y-17966228D01*
X12551836Y-18045614D01*
X12836379Y-18160133D01*
X13105043Y-18308114D01*
X13353911Y-18487400D01*
X13579354Y-18695377D01*
X13778085Y-18929011D01*
X13947205Y-19184897D01*
X14709205Y-20504719D01*
X14138987Y-20959453D01*
X13546811Y-21385198D01*
X12934149Y-21780897D01*
X12302525Y-22145565D01*
X11653509Y-22478296D01*
X10988715Y-22778263D01*
X10309795Y-23044719D01*
X9547795Y-21724897D01*
X9410752Y-21450492D01*
X9307784Y-21161569D01*
X9240393Y-20862341D01*
X9209560Y-20557172D01*
X9215737Y-20250512D01*
X9258832Y-19946831D01*
X9338217Y-19650560D01*
X9452736Y-19366017D01*
X9600717Y-19097354D01*
X9780004Y-18848485D01*
X9987980Y-18623043D01*
X10221615Y-18424311D01*
X10477500Y-18255192D01*
X10751904Y-18118148D01*
X11040828Y-18015181D01*
X11340055Y-17947789D01*
X11645225Y-17916957D01*
X11951885Y-17923133D01*
G37*
%TO.C,TX0*%
G36*
X-17452265Y-12918086D02*
G01*
X-17152158Y-12981455D01*
X-16861880Y-13080535D01*
X-16585659Y-13213882D01*
X-16327527Y-13379551D01*
X-16091245Y-13575127D01*
X-15880261Y-13797758D01*
X-15697649Y-14044196D01*
X-15546075Y-14310850D01*
X-15427747Y-14593829D01*
X-15344391Y-14889008D01*
X-15297222Y-15192082D01*
X-15286929Y-15498633D01*
X-15313662Y-15804187D01*
X-15377031Y-16104293D01*
X-15476110Y-16394572D01*
X-15609458Y-16670792D01*
X-15775127Y-16928925D01*
X-15970702Y-17165207D01*
X-16193333Y-17376191D01*
X-17360785Y-18355799D01*
X-17907627Y-17873208D01*
X-18429735Y-17363958D01*
X-18925809Y-16829317D01*
X-19394617Y-16270613D01*
X-19834994Y-15689235D01*
X-20245844Y-15086630D01*
X-20626146Y-14464294D01*
X-19458694Y-13484685D01*
X-19212256Y-13302074D01*
X-18945602Y-13150499D01*
X-18662623Y-13032172D01*
X-18367444Y-12948815D01*
X-18064370Y-12901647D01*
X-17757819Y-12891354D01*
X-17452265Y-12918086D01*
G37*
%TO.C,IO9*%
G36*
X23083555Y10318595D02*
G01*
X23400002Y9661486D01*
X23683301Y8989419D01*
X23932749Y8304068D01*
X24147725Y7607134D01*
X24327694Y6900351D01*
X24472209Y6185475D01*
X23040118Y5664237D01*
X22746085Y5576925D01*
X22443671Y5525691D01*
X22137287Y5511285D01*
X21831400Y5533913D01*
X21530471Y5593247D01*
X21238887Y5688421D01*
X20960903Y5818047D01*
X20700568Y5980237D01*
X20461683Y6172622D01*
X20247728Y6392401D01*
X20061825Y6636365D01*
X19906685Y6900960D01*
X19784567Y7182325D01*
X19697256Y7476358D01*
X19646023Y7778772D01*
X19631616Y8085156D01*
X19654244Y8391043D01*
X19713578Y8691972D01*
X19808752Y8983556D01*
X19938378Y9261540D01*
X20100568Y9521874D01*
X20292953Y9760760D01*
X20512732Y9974714D01*
X20756696Y10160617D01*
X21021290Y10315759D01*
X21302656Y10437875D01*
X22734747Y10959114D01*
X23083555Y10318595D01*
G37*
%TO.C,U$2*%
D19*
X14617000Y18288000D02*
G75*
G02*
X15367000Y19038000I750000J0D01*
G01*
X15367000Y19038000D02*
G75*
G02*
X16117000Y18288000I0J-750000D01*
G01*
X15367000Y17538000D02*
G75*
G02*
X14617000Y18288000I0J750000D01*
G01*
X16117000Y18288000D02*
G75*
G02*
X15367000Y17538000I-750000J0D01*
G01*
%TO.C,U$3*%
X-16244000Y-18669000D02*
G75*
G02*
X-15494000Y-17919000I750000J0D01*
G01*
X-15494000Y-17919000D02*
G75*
G02*
X-14744000Y-18669000I0J-750000D01*
G01*
X-15494000Y-19419000D02*
G75*
G02*
X-16244000Y-18669000I0J750000D01*
G01*
X-14744000Y-18669000D02*
G75*
G02*
X-15494000Y-19419000I-750000J0D01*
G01*
%TO.C,U$6*%
X14744000Y-18669000D02*
G75*
G02*
X15494000Y-17919000I750000J0D01*
G01*
X15494000Y-17919000D02*
G75*
G02*
X16244000Y-18669000I0J-750000D01*
G01*
X15494000Y-19419000D02*
G75*
G02*
X14744000Y-18669000I0J750000D01*
G01*
X16244000Y-18669000D02*
G75*
G02*
X15494000Y-19419000I-750000J0D01*
G01*
%TD*%
D20*
%TO.C,GNDTAP0*%
X23177500Y0D03*
%TD*%
D21*
%TO.C,R2*%
X2540000Y-1739000D03*
X2540000Y-39000D03*
%TD*%
D22*
%TO.C,IC1*%
X12182000Y-3956500D03*
X10932000Y-3956500D03*
X10932000Y-4806500D03*
X12182000Y-4806500D03*
D23*
X13307000Y-4381500D03*
D24*
X11557000Y-3131500D03*
D23*
X9807000Y-4381500D03*
D24*
X11557000Y-5631500D03*
%TD*%
D25*
%TO.C,C2*%
X-6946000Y17970500D03*
X-5246000Y17970500D03*
%TD*%
%TO.C,C6*%
X9754500Y-6858000D03*
X11454500Y-6858000D03*
%TD*%
D26*
%TO.C,LED4*%
X15103228Y6301956D03*
X16618772Y7176956D03*
X14868772Y10208044D03*
X13353228Y9333044D03*
%TD*%
D25*
%TO.C,C5*%
X-913500Y-14732000D03*
X786500Y-14732000D03*
%TD*%
D27*
%TO.C,D1*%
X4699000Y18233000D03*
X4699000Y14533000D03*
%TD*%
D28*
%TO.C,R3*%
X-6262000Y19304000D03*
X-7962000Y19304000D03*
%TD*%
D20*
%TO.C,UNK3V3TAP2*%
X11557000Y20124941D03*
%TD*%
D29*
%TO.C,LED2*%
X6682956Y-14976228D03*
X7557956Y-16491772D03*
X10589044Y-14741772D03*
X9714044Y-13226228D03*
%TD*%
D28*
%TO.C,R10*%
X-6833500Y10795000D03*
X-8533500Y10795000D03*
%TD*%
D30*
%TO.C,LED5*%
X9587044Y13226228D03*
X10462044Y14741772D03*
X7430956Y16491772D03*
X6555956Y14976228D03*
%TD*%
D27*
%TO.C,D2*%
X5143500Y-19613000D03*
X5143500Y-23313000D03*
%TD*%
D31*
%TO.C,SWITCH0*%
X-1500000Y-9017000D03*
X1500000Y-9017000D03*
D32*
X-2500000Y-6217000D03*
X-2500000Y-11817000D03*
X0Y-6217000D03*
X0Y-11817000D03*
X2500000Y-6217000D03*
X2500000Y-11817000D03*
%TD*%
D33*
%TO.C,R4*%
X-9842500Y11645000D03*
X-9842500Y9945000D03*
%TD*%
D20*
%TO.C,SCL0*%
X-17788151Y14868036D03*
%TD*%
D34*
%TO.C,LED9*%
X-14976228Y-6936956D03*
X-16491772Y-7811956D03*
X-14741772Y-10843044D03*
X-13226228Y-9968044D03*
%TD*%
D20*
%TO.C,GNDTAP2*%
X-11557000Y-20124941D03*
%TD*%
D35*
%TO.C,L0*%
X6223000Y21048000D03*
X6223000Y23148000D03*
%TD*%
D20*
%TO.C,SDA0*%
X-21813364Y7920746D03*
%TD*%
D36*
%TO.C,C4*%
X4379000Y-14287500D03*
X2479000Y-14287500D03*
%TD*%
D37*
%TO.C,U1*%
X8404500Y-4560000D03*
X8404500Y-4060000D03*
X8404500Y-3560000D03*
X8404500Y-3060000D03*
X6454500Y-3060000D03*
X6454500Y-3560000D03*
X6454500Y-4060000D03*
X6454500Y-4560000D03*
D38*
X7429500Y-3810000D03*
%TD*%
D39*
%TO.C,U4*%
X-3298500Y18097500D03*
X-3298500Y16827500D03*
X-3298500Y15557500D03*
X-3298500Y14287500D03*
X1901500Y14287500D03*
X1901500Y15557500D03*
X1901500Y16827500D03*
X1901500Y18097500D03*
%TD*%
D40*
%TO.C,SW1*%
X-6806000Y3016000D03*
X-13006000Y3016000D03*
X-6806000Y-984000D03*
X-13006000Y-984000D03*
%TD*%
%TO.C,SW2*%
X13006000Y3016000D03*
X6806000Y3016000D03*
X13006000Y-984000D03*
X6806000Y-984000D03*
%TD*%
D41*
%TO.C,LED6*%
X-6809956Y15103228D03*
X-7684956Y16618772D03*
X-10716044Y14868772D03*
X-9841044Y13353228D03*
%TD*%
D42*
%TO.C,D5*%
X-4572000Y1750000D03*
X-4572000Y-1242000D03*
%TD*%
D28*
%TO.C,R5*%
X7962000Y19621500D03*
X6262000Y19621500D03*
%TD*%
D43*
%TO.C,RESET0*%
X-2050000Y1486000D03*
X2050000Y1486000D03*
X-2050000Y3086000D03*
X2050000Y3086000D03*
%TD*%
D44*
%TO.C,F1*%
X-5524500Y-23012000D03*
X-5524500Y-20168000D03*
%TD*%
D45*
%TO.C,IC4*%
X1350000Y-2397000D03*
X1350000Y-1897000D03*
X1350000Y-1397000D03*
X1350000Y-897000D03*
X1350000Y-397000D03*
D46*
X500000Y-47000D03*
X0Y-47000D03*
X-500000Y-47000D03*
D47*
X-1350000Y-397000D03*
X-1350000Y-897000D03*
X-1350000Y-1397000D03*
X-1350000Y-1897000D03*
X-1350000Y-2397000D03*
D48*
X-500000Y-2747000D03*
X0Y-2747000D03*
X500000Y-2747000D03*
%TD*%
D49*
%TO.C,CN1*%
X1950000Y20828000D03*
X-1950000Y20828000D03*
D50*
X750000Y22828000D03*
X-750000Y22828000D03*
D51*
X3871500Y19928000D03*
X-3871500Y19928000D03*
D52*
X3600000Y22728000D03*
X-3600000Y22728000D03*
%TD*%
D20*
%TO.C,GND3TAP0*%
X-11620500Y20061441D03*
%TD*%
D53*
%TO.C,LED8*%
X-16270000Y1750000D03*
X-18020000Y1750000D03*
X-18020000Y-1750000D03*
X-16270000Y-1750000D03*
%TD*%
D54*
%TO.C,SP1*%
X-5137500Y-8896000D03*
X-5137500Y-3296000D03*
D55*
X-10937500Y-9096000D03*
D54*
X-10737500Y-3296000D03*
%TD*%
D28*
%TO.C,R8*%
X8343000Y-6858000D03*
X6643000Y-6858000D03*
%TD*%
D20*
%TO.C,IO10*%
X17788151Y14931536D03*
%TD*%
%TO.C,UNK3.3VTAP0*%
X-23177500Y0D03*
%TD*%
D56*
%TO.C,LED10*%
X-9206044Y-13480228D03*
X-10081044Y-14995772D03*
X-7049956Y-16745772D03*
X-6174956Y-15230228D03*
%TD*%
D33*
%TO.C,R9*%
X7810500Y-8167000D03*
X7810500Y-9867000D03*
%TD*%
D36*
%TO.C,C8*%
X4379000Y-16129000D03*
X2479000Y-16129000D03*
%TD*%
D20*
%TO.C,IO12*%
X17788151Y-14931536D03*
%TD*%
%TO.C,D6*%
X21813364Y-7920746D03*
%TD*%
%TO.C,RX0*%
X-21749864Y-8174746D03*
%TD*%
D57*
%TO.C,LED1*%
X13480228Y-9206044D03*
X14995772Y-10081044D03*
X16745772Y-7049956D03*
X15230228Y-6174956D03*
%TD*%
D58*
%TO.C,LED3*%
X16270000Y-2004000D03*
X18020000Y-2004000D03*
X18020000Y1496000D03*
X16270000Y1496000D03*
%TD*%
D59*
%TO.C,U2*%
X-11227500Y8509000D03*
X-9727500Y8509000D03*
%TD*%
D20*
%TO.C,VCC2*%
X11557000Y-20124941D03*
%TD*%
%TO.C,TX0*%
X-17534151Y-15185536D03*
%TD*%
%TO.C,IO9*%
X21813364Y7920746D03*
%TD*%
D60*
%TO.C,BATT0*%
X1000000Y-17890000D03*
X-1000000Y-17890000D03*
D61*
X3400000Y-23090000D03*
X-3400000Y-23090000D03*
%TD*%
D62*
%TO.C,U$2*%
X15367000Y18288000D03*
%TD*%
D63*
%TO.C,U$5*%
X-2750000Y5986500D03*
X-2250000Y5986500D03*
X-1750000Y5986500D03*
X-1250000Y5986500D03*
X-750000Y5986500D03*
X-250000Y5986500D03*
X250000Y5986500D03*
X750000Y5986500D03*
X1250000Y5986500D03*
X1750000Y5986500D03*
X2250000Y5986500D03*
X2750000Y5986500D03*
D64*
X3475000Y6711500D03*
X3475000Y7211500D03*
X3475000Y7711500D03*
X3475000Y8211500D03*
X3475000Y8711500D03*
X3475000Y9211500D03*
X3475000Y9711500D03*
X3475000Y10211500D03*
X3475000Y10711500D03*
X3475000Y11211500D03*
X3475000Y11711500D03*
X3475000Y12211500D03*
D65*
X2750000Y12936500D03*
X2250000Y12936500D03*
X1750000Y12936500D03*
X1250000Y12936500D03*
X750000Y12936500D03*
X250000Y12936500D03*
X-250000Y12936500D03*
X-750000Y12936500D03*
X-1250000Y12936500D03*
X-1750000Y12936500D03*
X-2250000Y12936500D03*
X-2750000Y12936500D03*
D66*
X-3475000Y12211500D03*
X-3475000Y11711500D03*
X-3475000Y11211500D03*
X-3475000Y10711500D03*
X-3475000Y10211500D03*
X-3475000Y9711500D03*
X-3475000Y9211500D03*
X-3475000Y8711500D03*
X-3475000Y8211500D03*
X-3475000Y7711500D03*
X-3475000Y7211500D03*
X-3475000Y6711500D03*
D67*
X0Y9461500D03*
%TD*%
D68*
%TO.C,LED7*%
X-13226228Y9587044D03*
X-14741772Y10462044D03*
X-16491772Y7430956D03*
X-14976228Y6555956D03*
%TD*%
D28*
%TO.C,R7*%
X8978000Y6794500D03*
X7278000Y6794500D03*
%TD*%
D33*
%TO.C,R1*%
X-12573000Y6882500D03*
X-12573000Y5182500D03*
%TD*%
D28*
%TO.C,C1*%
X8343000Y-5588000D03*
X6643000Y-5588000D03*
%TD*%
D62*
%TO.C,U$3*%
X-15494000Y-18669000D03*
%TD*%
D25*
%TO.C,C3*%
X4674500Y9080500D03*
X6374500Y9080500D03*
%TD*%
D62*
%TO.C,U$6*%
X15494000Y-18669000D03*
%TD*%
D69*
%TO.C,Q1*%
X6461000Y-10030500D03*
X6461000Y-8130500D03*
X4461000Y-9080500D03*
%TD*%
D70*
%TO.C,U3*%
X-4633000Y-16286100D03*
X-3683000Y-16286100D03*
X-2733000Y-16286100D03*
X-2733000Y-13685900D03*
X-4633000Y-13685900D03*
%TD*%
D42*
%TO.C,D3*%
X4572000Y1750000D03*
X4572000Y-1242000D03*
%TD*%
D25*
%TO.C,R6*%
X2388500Y-3873500D03*
X4088500Y-3873500D03*
%TD*%
D71*
%TO.C,IC2*%
X-15270000Y-3368000D03*
X-15270000Y-4318000D03*
X-15270000Y-5268000D03*
X-12670000Y-5268000D03*
X-12670000Y-4318000D03*
X-12670000Y-3368000D03*
%TD*%
D72*
%TO.C,THM1*%
X8001000Y8191500D03*
X8001000Y9207500D03*
%TD*%
D21*
%TO.C,C9*%
X-11303000Y5182500D03*
X-11303000Y6882500D03*
%TD*%
D35*
%TO.C,PWR0*%
X-6350000Y20794000D03*
X-6350000Y22894000D03*
%TD*%
D28*
%TO.C,C10*%
X-6574984Y12069512D03*
X-8274984Y12069512D03*
%TD*%
%LPD*%
M02*
