ISO-10303-21;
HEADER;
FILE_DESCRIPTION(('KiCad electronic assembly'),'2;1');
FILE_NAME('model.step','1970-01-01T00:00:00',('Pcbnew'),('Kicad'),
  'Open CASCADE STEP processor 7.9','KiCad to STEP converter','Unknown'
  );
FILE_SCHEMA(('AUTOMOTIVE_DESIGN { 1 0 10303 214 1 1 1 1 }'));
ENDSEC;
DATA;
#1 = APPLICATION_PROTOCOL_DEFINITION('international standard',
  'automotive_design',2000,#2);
#2 = APPLICATION_CONTEXT(
  'core data for automotive mechanical design processes');
#3 = SHAPE_DEFINITION_REPRESENTATION(#4,#10);
#4 = PRODUCT_DEFINITION_SHAPE('','',#5);
#5 = PRODUCT_DEFINITION('design','',#6,#9);
#6 = PRODUCT_DEFINITION_FORMATION('','',#7);
#7 = PRODUCT('model 1','model 1','',(#8));
#8 = PRODUCT_CONTEXT('',#2,'mechanical');
#9 = PRODUCT_DEFINITION_CONTEXT('part definition',#2,'design');
#10 = SHAPE_REPRESENTATION('',(#11,#15,#19),#23);
#11 = AXIS2_PLACEMENT_3D('',#12,#13,#14);
#12 = CARTESIAN_POINT('',(0.,0.,0.));
#13 = DIRECTION('',(0.,0.,1.));
#14 = DIRECTION('',(1.,0.,-0.));
#15 = AXIS2_PLACEMENT_3D('',#16,#17,#18);
#16 = CARTESIAN_POINT('',(0.,0.,0.));
#17 = DIRECTION('',(0.,0.,1.));
#18 = DIRECTION('',(1.,0.,-0.));
#19 = AXIS2_PLACEMENT_3D('',#20,#21,#22);
#20 = CARTESIAN_POINT('',(0.,0.,0.));
#21 = DIRECTION('',(0.,0.,1.));
#22 = DIRECTION('',(1.,0.,-0.));
#23 = ( GEOMETRIC_REPRESENTATION_CONTEXT(3) 
GLOBAL_UNCERTAINTY_ASSIGNED_CONTEXT((#27)) GLOBAL_UNIT_ASSIGNED_CONTEXT(
(#24,#25,#26)) REPRESENTATION_CONTEXT('Context #1',
  '3D Context with UNIT and UNCERTAINTY') );
#24 = ( LENGTH_UNIT() NAMED_UNIT(*) SI_UNIT(.MILLI.,.METRE.) );
#25 = ( NAMED_UNIT(*) PLANE_ANGLE_UNIT() SI_UNIT($,.RADIAN.) );
#26 = ( NAMED_UNIT(*) SI_UNIT($,.STERADIAN.) SOLID_ANGLE_UNIT() );
#27 = UNCERTAINTY_MEASURE_WITH_UNIT(LENGTH_MEASURE(1.E-07),#24,
  'distance_accuracy_value','confusion accuracy');
#28 = PRODUCT_RELATED_PRODUCT_CATEGORY('part',$,(#7));
#29 = SHAPE_DEFINITION_REPRESENTATION(#30,#36);
#30 = PRODUCT_DEFINITION_SHAPE('','',#31);
#31 = PRODUCT_DEFINITION('design','',#32,#35);
#32 = PRODUCT_DEFINITION_FORMATION('','',#33);
#33 = PRODUCT(
'electronic_connector_terminal_block_3_5_mm_pitch_through_hole_5_pin_
screw_terminal_1x05_p3_5_mm_render_pad',
'electronic_connector_terminal_block_3_5_mm_pitch_through_hole_5_pin_
screw_terminal_1x05_p3_5_mm_render_pad','',(#34));
#34 = PRODUCT_CONTEXT('',#2,'mechanical');
#35 = PRODUCT_DEFINITION_CONTEXT('part definition',#2,'design');
#36 = SHAPE_REPRESENTATION('',(#11,#37,#366,#695,#787,#879,#971,#1063,
    #1155,#1247,#1339,#1431,#1523,#1615,#1707,#1799),#1891);
#37 = MANIFOLD_SOLID_BREP('',#38);
#38 = CLOSED_SHELL('',(#39,#81,#112,#143,#206,#269,#286,#303,#320,#337,
    #349));
#39 = ADVANCED_FACE('',(#40),#76,.T.);
#40 = FACE_BOUND('',#41,.T.);
#41 = EDGE_LOOP('',(#42,#52,#61,#69));
#42 = ORIENTED_EDGE('',*,*,#43,.T.);
#43 = EDGE_CURVE('',#44,#46,#48,.T.);
#44 = VERTEX_POINT('',#45);
#45 = CARTESIAN_POINT('',(-1.3,1.05,1.51));
#46 = VERTEX_POINT('',#47);
#47 = CARTESIAN_POINT('',(-1.3,1.05,1.55));
#48 = LINE('',#49,#50);
#49 = CARTESIAN_POINT('',(-1.3,1.05,1.51));
#50 = VECTOR('',#51,1.);
#51 = DIRECTION('',(0.,0.,1.));
#52 = ORIENTED_EDGE('',*,*,#53,.T.);
#53 = EDGE_CURVE('',#46,#54,#56,.T.);
#54 = VERTEX_POINT('',#55);
#55 = CARTESIAN_POINT('',(-1.05,1.3,1.55));
#56 = CIRCLE('',#57,0.249998959685);
#57 = AXIS2_PLACEMENT_3D('',#58,#59,#60);
#58 = CARTESIAN_POINT('',(-1.050001040317,1.050001040317,1.55));
#59 = DIRECTION('',(0.,0.,-1.));
#60 = DIRECTION('',(-0.999999999991,-4.161285832626E-06,-0.));
#61 = ORIENTED_EDGE('',*,*,#62,.F.);
#62 = EDGE_CURVE('',#63,#54,#65,.T.);
#63 = VERTEX_POINT('',#64);
#64 = CARTESIAN_POINT('',(-1.05,1.3,1.51));
#65 = LINE('',#66,#67);
#66 = CARTESIAN_POINT('',(-1.05,1.3,1.51));
#67 = VECTOR('',#68,1.);
#68 = DIRECTION('',(0.,0.,1.));
#69 = ORIENTED_EDGE('',*,*,#70,.F.);
#70 = EDGE_CURVE('',#44,#63,#71,.T.);
#71 = CIRCLE('',#72,0.249998959685);
#72 = AXIS2_PLACEMENT_3D('',#73,#74,#75);
#73 = CARTESIAN_POINT('',(-1.050001040317,1.050001040317,1.51));
#74 = DIRECTION('',(0.,0.,-1.));
#75 = DIRECTION('',(-0.999999999991,-4.161285832626E-06,-0.));
#76 = CYLINDRICAL_SURFACE('',#77,0.249998959685);
#77 = AXIS2_PLACEMENT_3D('',#78,#79,#80);
#78 = CARTESIAN_POINT('',(-1.050001040317,1.050001040317,1.51));
#79 = DIRECTION('',(0.,0.,-1.));
#80 = DIRECTION('',(-0.999999999991,-4.161285832626E-06,-0.));
#81 = ADVANCED_FACE('',(#82),#107,.T.);
#82 = FACE_BOUND('',#83,.T.);
#83 = EDGE_LOOP('',(#84,#94,#100,#101));
#84 = ORIENTED_EDGE('',*,*,#85,.T.);
#85 = EDGE_CURVE('',#86,#88,#90,.T.);
#86 = VERTEX_POINT('',#87);
#87 = CARTESIAN_POINT('',(-1.3,-1.05,1.51));
#88 = VERTEX_POINT('',#89);
#89 = CARTESIAN_POINT('',(-1.3,-1.05,1.55));
#90 = LINE('',#91,#92);
#91 = CARTESIAN_POINT('',(-1.3,-1.05,1.51));
#92 = VECTOR('',#93,1.);
#93 = DIRECTION('',(0.,0.,1.));
#94 = ORIENTED_EDGE('',*,*,#95,.T.);
#95 = EDGE_CURVE('',#88,#46,#96,.T.);
#96 = LINE('',#97,#98);
#97 = CARTESIAN_POINT('',(-1.3,-1.05,1.55));
#98 = VECTOR('',#99,1.);
#99 = DIRECTION('',(0.,1.,0.));
#100 = ORIENTED_EDGE('',*,*,#43,.F.);
#101 = ORIENTED_EDGE('',*,*,#102,.F.);
#102 = EDGE_CURVE('',#86,#44,#103,.T.);
#103 = LINE('',#104,#105);
#104 = CARTESIAN_POINT('',(-1.3,-1.05,1.51));
#105 = VECTOR('',#106,1.);
#106 = DIRECTION('',(0.,1.,0.));
#107 = PLANE('',#108);
#108 = AXIS2_PLACEMENT_3D('',#109,#110,#111);
#109 = CARTESIAN_POINT('',(-1.3,-1.05,1.51));
#110 = DIRECTION('',(-1.,0.,0.));
#111 = DIRECTION('',(0.,1.,0.));
#112 = ADVANCED_FACE('',(#113),#138,.T.);
#113 = FACE_BOUND('',#114,.T.);
#114 = EDGE_LOOP('',(#115,#116,#124,#132));
#115 = ORIENTED_EDGE('',*,*,#62,.T.);
#116 = ORIENTED_EDGE('',*,*,#117,.T.);
#117 = EDGE_CURVE('',#54,#118,#120,.T.);
#118 = VERTEX_POINT('',#119);
#119 = CARTESIAN_POINT('',(1.05,1.3,1.55));
#120 = LINE('',#121,#122);
#121 = CARTESIAN_POINT('',(-1.05,1.3,1.55));
#122 = VECTOR('',#123,1.);
#123 = DIRECTION('',(1.,0.,0.));
#124 = ORIENTED_EDGE('',*,*,#125,.F.);
#125 = EDGE_CURVE('',#126,#118,#128,.T.);
#126 = VERTEX_POINT('',#127);
#127 = CARTESIAN_POINT('',(1.05,1.3,1.51));
#128 = LINE('',#129,#130);
#129 = CARTESIAN_POINT('',(1.05,1.3,1.51));
#130 = VECTOR('',#131,1.);
#131 = DIRECTION('',(0.,0.,1.));
#132 = ORIENTED_EDGE('',*,*,#133,.F.);
#133 = EDGE_CURVE('',#63,#126,#134,.T.);
#134 = LINE('',#135,#136);
#135 = CARTESIAN_POINT('',(-1.05,1.3,1.51));
#136 = VECTOR('',#137,1.);
#137 = DIRECTION('',(1.,0.,0.));
#138 = PLANE('',#139);
#139 = AXIS2_PLACEMENT_3D('',#140,#141,#142);
#140 = CARTESIAN_POINT('',(-1.05,1.3,1.51));
#141 = DIRECTION('',(0.,1.,0.));
#142 = DIRECTION('',(1.,0.,0.));
#143 = ADVANCED_FACE('',(#144,#190),#201,.F.);
#144 = FACE_BOUND('',#145,.F.);
#145 = EDGE_LOOP('',(#146,#147,#148,#157,#165,#174,#182,#189));
#146 = ORIENTED_EDGE('',*,*,#70,.F.);
#147 = ORIENTED_EDGE('',*,*,#102,.F.);
#148 = ORIENTED_EDGE('',*,*,#149,.F.);
#149 = EDGE_CURVE('',#150,#86,#152,.T.);
#150 = VERTEX_POINT('',#151);
#151 = CARTESIAN_POINT('',(-1.05,-1.3,1.51));
#152 = CIRCLE('',#153,0.249998959685);
#153 = AXIS2_PLACEMENT_3D('',#154,#155,#156);
#154 = CARTESIAN_POINT('',(-1.050001040317,-1.050001040317,1.51));
#155 = DIRECTION('',(0.,0.,-1.));
#156 = DIRECTION('',(4.161285832626E-06,-0.999999999991,0.));
#157 = ORIENTED_EDGE('',*,*,#158,.F.);
#158 = EDGE_CURVE('',#159,#150,#161,.T.);
#159 = VERTEX_POINT('',#160);
#160 = CARTESIAN_POINT('',(1.05,-1.3,1.51));
#161 = LINE('',#162,#163);
#162 = CARTESIAN_POINT('',(1.05,-1.3,1.51));
#163 = VECTOR('',#164,1.);
#164 = DIRECTION('',(-1.,0.,0.));
#165 = ORIENTED_EDGE('',*,*,#166,.F.);
#166 = EDGE_CURVE('',#167,#159,#169,.T.);
#167 = VERTEX_POINT('',#168);
#168 = CARTESIAN_POINT('',(1.3,-1.05,1.51));
#169 = CIRCLE('',#170,0.249998959685);
#170 = AXIS2_PLACEMENT_3D('',#171,#172,#173);
#171 = CARTESIAN_POINT('',(1.050001040317,-1.050001040317,1.51));
#172 = DIRECTION('',(0.,0.,-1.));
#173 = DIRECTION('',(0.999999999991,4.161285832626E-06,0.));
#174 = ORIENTED_EDGE('',*,*,#175,.F.);
#175 = EDGE_CURVE('',#176,#167,#178,.T.);
#176 = VERTEX_POINT('',#177);
#177 = CARTESIAN_POINT('',(1.3,1.05,1.51));
#178 = LINE('',#179,#180);
#179 = CARTESIAN_POINT('',(1.3,1.05,1.51));
#180 = VECTOR('',#181,1.);
#181 = DIRECTION('',(0.,-1.,0.));
#182 = ORIENTED_EDGE('',*,*,#183,.F.);
#183 = EDGE_CURVE('',#126,#176,#184,.T.);
#184 = CIRCLE('',#185,0.249998959685);
#185 = AXIS2_PLACEMENT_3D('',#186,#187,#188);
#186 = CARTESIAN_POINT('',(1.050001040317,1.050001040317,1.51));
#187 = DIRECTION('',(0.,0.,-1.));
#188 = DIRECTION('',(-4.161285832626E-06,0.999999999991,0.));
#189 = ORIENTED_EDGE('',*,*,#133,.F.);
#190 = FACE_BOUND('',#191,.F.);
#191 = EDGE_LOOP('',(#192));
#192 = ORIENTED_EDGE('',*,*,#193,.T.);
#193 = EDGE_CURVE('',#194,#194,#196,.T.);
#194 = VERTEX_POINT('',#195);
#195 = CARTESIAN_POINT('',(-1.232595164408E-32,-0.625,1.51));
#196 = CIRCLE('',#197,0.625);
#197 = AXIS2_PLACEMENT_3D('',#198,#199,#200);
#198 = CARTESIAN_POINT('',(-5.551115123126E-17,1.110223024625E-16,1.51)
  );
#199 = DIRECTION('',(-0.,0.,-1.));
#200 = DIRECTION('',(8.881784197001E-17,-1.,-0.));
#201 = PLANE('',#202);
#202 = AXIS2_PLACEMENT_3D('',#203,#204,#205);
#203 = CARTESIAN_POINT('',(0.,0.,1.51));
#204 = DIRECTION('',(0.,0.,1.));
#205 = DIRECTION('',(1.,0.,-0.));
#206 = ADVANCED_FACE('',(#207,#253),#264,.T.);
#207 = FACE_BOUND('',#208,.T.);
#208 = EDGE_LOOP('',(#209,#210,#211,#220,#228,#237,#245,#252));
#209 = ORIENTED_EDGE('',*,*,#53,.F.);
#210 = ORIENTED_EDGE('',*,*,#95,.F.);
#211 = ORIENTED_EDGE('',*,*,#212,.F.);
#212 = EDGE_CURVE('',#213,#88,#215,.T.);
#213 = VERTEX_POINT('',#214);
#214 = CARTESIAN_POINT('',(-1.05,-1.3,1.55));
#215 = CIRCLE('',#216,0.249998959685);
#216 = AXIS2_PLACEMENT_3D('',#217,#218,#219);
#217 = CARTESIAN_POINT('',(-1.050001040317,-1.050001040317,1.55));
#218 = DIRECTION('',(0.,0.,-1.));
#219 = DIRECTION('',(4.161285832626E-06,-0.999999999991,0.));
#220 = ORIENTED_EDGE('',*,*,#221,.F.);
#221 = EDGE_CURVE('',#222,#213,#224,.T.);
#222 = VERTEX_POINT('',#223);
#223 = CARTESIAN_POINT('',(1.05,-1.3,1.55));
#224 = LINE('',#225,#226);
#225 = CARTESIAN_POINT('',(1.05,-1.3,1.55));
#226 = VECTOR('',#227,1.);
#227 = DIRECTION('',(-1.,0.,0.));
#228 = ORIENTED_EDGE('',*,*,#229,.F.);
#229 = EDGE_CURVE('',#230,#222,#232,.T.);
#230 = VERTEX_POINT('',#231);
#231 = CARTESIAN_POINT('',(1.3,-1.05,1.55));
#232 = CIRCLE('',#233,0.249998959685);
#233 = AXIS2_PLACEMENT_3D('',#234,#235,#236);
#234 = CARTESIAN_POINT('',(1.050001040317,-1.050001040317,1.55));
#235 = DIRECTION('',(0.,0.,-1.));
#236 = DIRECTION('',(0.999999999991,4.161285832626E-06,0.));
#237 = ORIENTED_EDGE('',*,*,#238,.F.);
#238 = EDGE_CURVE('',#239,#230,#241,.T.);
#239 = VERTEX_POINT('',#240);
#240 = CARTESIAN_POINT('',(1.3,1.05,1.55));
#241 = LINE('',#242,#243);
#242 = CARTESIAN_POINT('',(1.3,1.05,1.55));
#243 = VECTOR('',#244,1.);
#244 = DIRECTION('',(0.,-1.,0.));
#245 = ORIENTED_EDGE('',*,*,#246,.F.);
#246 = EDGE_CURVE('',#118,#239,#247,.T.);
#247 = CIRCLE('',#248,0.249998959685);
#248 = AXIS2_PLACEMENT_3D('',#249,#250,#251);
#249 = CARTESIAN_POINT('',(1.050001040317,1.050001040317,1.55));
#250 = DIRECTION('',(0.,0.,-1.));
#251 = DIRECTION('',(-4.161285832626E-06,0.999999999991,0.));
#252 = ORIENTED_EDGE('',*,*,#117,.F.);
#253 = FACE_BOUND('',#254,.T.);
#254 = EDGE_LOOP('',(#255));
#255 = ORIENTED_EDGE('',*,*,#256,.T.);
#256 = EDGE_CURVE('',#257,#257,#259,.T.);
#257 = VERTEX_POINT('',#258);
#258 = CARTESIAN_POINT('',(-1.232595164408E-32,-0.625,1.55));
#259 = CIRCLE('',#260,0.625);
#260 = AXIS2_PLACEMENT_3D('',#261,#262,#263);
#261 = CARTESIAN_POINT('',(-5.551115123126E-17,1.110223024625E-16,1.55)
  );
#262 = DIRECTION('',(-0.,0.,-1.));
#263 = DIRECTION('',(8.881784197001E-17,-1.,-0.));
#264 = PLANE('',#265);
#265 = AXIS2_PLACEMENT_3D('',#266,#267,#268);
#266 = CARTESIAN_POINT('',(0.,0.,1.55));
#267 = DIRECTION('',(0.,0.,1.));
#268 = DIRECTION('',(1.,0.,-0.));
#269 = ADVANCED_FACE('',(#270),#281,.T.);
#270 = FACE_BOUND('',#271,.T.);
#271 = EDGE_LOOP('',(#272,#278,#279,#280));
#272 = ORIENTED_EDGE('',*,*,#273,.T.);
#273 = EDGE_CURVE('',#150,#213,#274,.T.);
#274 = LINE('',#275,#276);
#275 = CARTESIAN_POINT('',(-1.05,-1.3,1.51));
#276 = VECTOR('',#277,1.);
#277 = DIRECTION('',(0.,0.,1.));
#278 = ORIENTED_EDGE('',*,*,#212,.T.);
#279 = ORIENTED_EDGE('',*,*,#85,.F.);
#280 = ORIENTED_EDGE('',*,*,#149,.F.);
#281 = CYLINDRICAL_SURFACE('',#282,0.249998959685);
#282 = AXIS2_PLACEMENT_3D('',#283,#284,#285);
#283 = CARTESIAN_POINT('',(-1.050001040317,-1.050001040317,1.51));
#284 = DIRECTION('',(0.,0.,-1.));
#285 = DIRECTION('',(4.161285832626E-06,-0.999999999991,0.));
#286 = ADVANCED_FACE('',(#287),#298,.T.);
#287 = FACE_BOUND('',#288,.T.);
#288 = EDGE_LOOP('',(#289,#290,#291,#297));
#289 = ORIENTED_EDGE('',*,*,#125,.T.);
#290 = ORIENTED_EDGE('',*,*,#246,.T.);
#291 = ORIENTED_EDGE('',*,*,#292,.F.);
#292 = EDGE_CURVE('',#176,#239,#293,.T.);
#293 = LINE('',#294,#295);
#294 = CARTESIAN_POINT('',(1.3,1.05,1.51));
#295 = VECTOR('',#296,1.);
#296 = DIRECTION('',(0.,0.,1.));
#297 = ORIENTED_EDGE('',*,*,#183,.F.);
#298 = CYLINDRICAL_SURFACE('',#299,0.249998959685);
#299 = AXIS2_PLACEMENT_3D('',#300,#301,#302);
#300 = CARTESIAN_POINT('',(1.050001040317,1.050001040317,1.51));
#301 = DIRECTION('',(0.,0.,-1.));
#302 = DIRECTION('',(-4.161285832626E-06,0.999999999991,0.));
#303 = ADVANCED_FACE('',(#304),#315,.T.);
#304 = FACE_BOUND('',#305,.T.);
#305 = EDGE_LOOP('',(#306,#312,#313,#314));
#306 = ORIENTED_EDGE('',*,*,#307,.T.);
#307 = EDGE_CURVE('',#159,#222,#308,.T.);
#308 = LINE('',#309,#310);
#309 = CARTESIAN_POINT('',(1.05,-1.3,1.51));
#310 = VECTOR('',#311,1.);
#311 = DIRECTION('',(0.,0.,1.));
#312 = ORIENTED_EDGE('',*,*,#221,.T.);
#313 = ORIENTED_EDGE('',*,*,#273,.F.);
#314 = ORIENTED_EDGE('',*,*,#158,.F.);
#315 = PLANE('',#316);
#316 = AXIS2_PLACEMENT_3D('',#317,#318,#319);
#317 = CARTESIAN_POINT('',(1.05,-1.3,1.51));
#318 = DIRECTION('',(0.,-1.,0.));
#319 = DIRECTION('',(-1.,0.,0.));
#320 = ADVANCED_FACE('',(#321),#332,.T.);
#321 = FACE_BOUND('',#322,.T.);
#322 = EDGE_LOOP('',(#323,#324,#325,#331));
#323 = ORIENTED_EDGE('',*,*,#292,.T.);
#324 = ORIENTED_EDGE('',*,*,#238,.T.);
#325 = ORIENTED_EDGE('',*,*,#326,.F.);
#326 = EDGE_CURVE('',#167,#230,#327,.T.);
#327 = LINE('',#328,#329);
#328 = CARTESIAN_POINT('',(1.3,-1.05,1.51));
#329 = VECTOR('',#330,1.);
#330 = DIRECTION('',(0.,0.,1.));
#331 = ORIENTED_EDGE('',*,*,#175,.F.);
#332 = PLANE('',#333);
#333 = AXIS2_PLACEMENT_3D('',#334,#335,#336);
#334 = CARTESIAN_POINT('',(1.3,1.05,1.51));
#335 = DIRECTION('',(1.,0.,-0.));
#336 = DIRECTION('',(0.,-1.,0.));
#337 = ADVANCED_FACE('',(#338),#344,.T.);
#338 = FACE_BOUND('',#339,.T.);
#339 = EDGE_LOOP('',(#340,#341,#342,#343));
#340 = ORIENTED_EDGE('',*,*,#326,.T.);
#341 = ORIENTED_EDGE('',*,*,#229,.T.);
#342 = ORIENTED_EDGE('',*,*,#307,.F.);
#343 = ORIENTED_EDGE('',*,*,#166,.F.);
#344 = CYLINDRICAL_SURFACE('',#345,0.249998959685);
#345 = AXIS2_PLACEMENT_3D('',#346,#347,#348);
#346 = CARTESIAN_POINT('',(1.050001040317,-1.050001040317,1.51));
#347 = DIRECTION('',(0.,0.,-1.));
#348 = DIRECTION('',(0.999999999991,4.161285832626E-06,0.));
#349 = ADVANCED_FACE('',(#350),#361,.F.);
#350 = FACE_BOUND('',#351,.T.);
#351 = EDGE_LOOP('',(#352,#353,#359,#360));
#352 = ORIENTED_EDGE('',*,*,#193,.T.);
#353 = ORIENTED_EDGE('',*,*,#354,.T.);
#354 = EDGE_CURVE('',#194,#257,#355,.T.);
#355 = LINE('',#356,#357);
#356 = CARTESIAN_POINT('',(-1.232595164408E-32,-0.625,-4.6E-02));
#357 = VECTOR('',#358,1.);
#358 = DIRECTION('',(0.,0.,1.));
#359 = ORIENTED_EDGE('',*,*,#256,.F.);
#360 = ORIENTED_EDGE('',*,*,#354,.F.);
#361 = CYLINDRICAL_SURFACE('',#362,0.625);
#362 = AXIS2_PLACEMENT_3D('',#363,#364,#365);
#363 = CARTESIAN_POINT('',(-5.551115123126E-17,1.110223024625E-16,
    -4.6E-02));
#364 = DIRECTION('',(-0.,0.,-1.));
#365 = DIRECTION('',(8.881784197001E-17,-1.,-0.));
#366 = MANIFOLD_SOLID_BREP('',#367);
#367 = CLOSED_SHELL('',(#368,#410,#441,#472,#535,#598,#615,#632,#649,
    #666,#678));
#368 = ADVANCED_FACE('',(#369),#405,.T.);
#369 = FACE_BOUND('',#370,.F.);
#370 = EDGE_LOOP('',(#371,#381,#390,#398));
#371 = ORIENTED_EDGE('',*,*,#372,.T.);
#372 = EDGE_CURVE('',#373,#375,#377,.T.);
#373 = VERTEX_POINT('',#374);
#374 = CARTESIAN_POINT('',(-1.3,1.05,0.));
#375 = VERTEX_POINT('',#376);
#376 = CARTESIAN_POINT('',(-1.3,1.05,-4.E-02));
#377 = LINE('',#378,#379);
#378 = CARTESIAN_POINT('',(-1.3,1.05,0.));
#379 = VECTOR('',#380,1.);
#380 = DIRECTION('',(0.,0.,-1.));
#381 = ORIENTED_EDGE('',*,*,#382,.T.);
#382 = EDGE_CURVE('',#375,#383,#385,.T.);
#383 = VERTEX_POINT('',#384);
#384 = CARTESIAN_POINT('',(-1.05,1.3,-4.E-02));
#385 = CIRCLE('',#386,0.249998959685);
#386 = AXIS2_PLACEMENT_3D('',#387,#388,#389);
#387 = CARTESIAN_POINT('',(-1.050001040317,1.050001040317,-4.E-02));
#388 = DIRECTION('',(0.,0.,-1.));
#389 = DIRECTION('',(-0.999999999991,-4.161285832626E-06,-0.));
#390 = ORIENTED_EDGE('',*,*,#391,.F.);
#391 = EDGE_CURVE('',#392,#383,#394,.T.);
#392 = VERTEX_POINT('',#393);
#393 = CARTESIAN_POINT('',(-1.05,1.3,0.));
#394 = LINE('',#395,#396);
#395 = CARTESIAN_POINT('',(-1.05,1.3,0.));
#396 = VECTOR('',#397,1.);
#397 = DIRECTION('',(0.,0.,-1.));
#398 = ORIENTED_EDGE('',*,*,#399,.F.);
#399 = EDGE_CURVE('',#373,#392,#400,.T.);
#400 = CIRCLE('',#401,0.249998959685);
#401 = AXIS2_PLACEMENT_3D('',#402,#403,#404);
#402 = CARTESIAN_POINT('',(-1.050001040317,1.050001040317,0.));
#403 = DIRECTION('',(0.,0.,-1.));
#404 = DIRECTION('',(-0.999999999991,-4.161285832626E-06,-0.));
#405 = CYLINDRICAL_SURFACE('',#406,0.249998959685);
#406 = AXIS2_PLACEMENT_3D('',#407,#408,#409);
#407 = CARTESIAN_POINT('',(-1.050001040317,1.050001040317,0.));
#408 = DIRECTION('',(-0.,-0.,1.));
#409 = DIRECTION('',(-0.999999999991,-4.161285832626E-06,-0.));
#410 = ADVANCED_FACE('',(#411),#436,.F.);
#411 = FACE_BOUND('',#412,.F.);
#412 = EDGE_LOOP('',(#413,#423,#429,#430));
#413 = ORIENTED_EDGE('',*,*,#414,.T.);
#414 = EDGE_CURVE('',#415,#417,#419,.T.);
#415 = VERTEX_POINT('',#416);
#416 = CARTESIAN_POINT('',(-1.3,-1.05,0.));
#417 = VERTEX_POINT('',#418);
#418 = CARTESIAN_POINT('',(-1.3,-1.05,-4.E-02));
#419 = LINE('',#420,#421);
#420 = CARTESIAN_POINT('',(-1.3,-1.05,0.));
#421 = VECTOR('',#422,1.);
#422 = DIRECTION('',(0.,0.,-1.));
#423 = ORIENTED_EDGE('',*,*,#424,.T.);
#424 = EDGE_CURVE('',#417,#375,#425,.T.);
#425 = LINE('',#426,#427);
#426 = CARTESIAN_POINT('',(-1.3,-1.05,-4.E-02));
#427 = VECTOR('',#428,1.);
#428 = DIRECTION('',(0.,1.,0.));
#429 = ORIENTED_EDGE('',*,*,#372,.F.);
#430 = ORIENTED_EDGE('',*,*,#431,.F.);
#431 = EDGE_CURVE('',#415,#373,#432,.T.);
#432 = LINE('',#433,#434);
#433 = CARTESIAN_POINT('',(-1.3,-1.05,0.));
#434 = VECTOR('',#435,1.);
#435 = DIRECTION('',(0.,1.,0.));
#436 = PLANE('',#437);
#437 = AXIS2_PLACEMENT_3D('',#438,#439,#440);
#438 = CARTESIAN_POINT('',(-1.3,-1.05,0.));
#439 = DIRECTION('',(1.,-0.,0.));
#440 = DIRECTION('',(0.,1.,0.));
#441 = ADVANCED_FACE('',(#442),#467,.F.);
#442 = FACE_BOUND('',#443,.F.);
#443 = EDGE_LOOP('',(#444,#445,#453,#461));
#444 = ORIENTED_EDGE('',*,*,#391,.T.);
#445 = ORIENTED_EDGE('',*,*,#446,.T.);
#446 = EDGE_CURVE('',#383,#447,#449,.T.);
#447 = VERTEX_POINT('',#448);
#448 = CARTESIAN_POINT('',(1.05,1.3,-4.E-02));
#449 = LINE('',#450,#451);
#450 = CARTESIAN_POINT('',(-1.05,1.3,-4.E-02));
#451 = VECTOR('',#452,1.);
#452 = DIRECTION('',(1.,0.,0.));
#453 = ORIENTED_EDGE('',*,*,#454,.F.);
#454 = EDGE_CURVE('',#455,#447,#457,.T.);
#455 = VERTEX_POINT('',#456);
#456 = CARTESIAN_POINT('',(1.05,1.3,0.));
#457 = LINE('',#458,#459);
#458 = CARTESIAN_POINT('',(1.05,1.3,0.));
#459 = VECTOR('',#460,1.);
#460 = DIRECTION('',(0.,0.,-1.));
#461 = ORIENTED_EDGE('',*,*,#462,.F.);
#462 = EDGE_CURVE('',#392,#455,#463,.T.);
#463 = LINE('',#464,#465);
#464 = CARTESIAN_POINT('',(-1.05,1.3,0.));
#465 = VECTOR('',#466,1.);
#466 = DIRECTION('',(1.,0.,0.));
#467 = PLANE('',#468);
#468 = AXIS2_PLACEMENT_3D('',#469,#470,#471);
#469 = CARTESIAN_POINT('',(-1.05,1.3,0.));
#470 = DIRECTION('',(0.,-1.,0.));
#471 = DIRECTION('',(1.,0.,0.));
#472 = ADVANCED_FACE('',(#473,#519),#530,.F.);
#473 = FACE_BOUND('',#474,.F.);
#474 = EDGE_LOOP('',(#475,#476,#477,#486,#494,#503,#511,#518));
#475 = ORIENTED_EDGE('',*,*,#399,.T.);
#476 = ORIENTED_EDGE('',*,*,#462,.T.);
#477 = ORIENTED_EDGE('',*,*,#478,.T.);
#478 = EDGE_CURVE('',#455,#479,#481,.T.);
#479 = VERTEX_POINT('',#480);
#480 = CARTESIAN_POINT('',(1.3,1.05,0.));
#481 = CIRCLE('',#482,0.249998959685);
#482 = AXIS2_PLACEMENT_3D('',#483,#484,#485);
#483 = CARTESIAN_POINT('',(1.050001040317,1.050001040317,0.));
#484 = DIRECTION('',(0.,0.,-1.));
#485 = DIRECTION('',(-4.161285832626E-06,0.999999999991,0.));
#486 = ORIENTED_EDGE('',*,*,#487,.T.);
#487 = EDGE_CURVE('',#479,#488,#490,.T.);
#488 = VERTEX_POINT('',#489);
#489 = CARTESIAN_POINT('',(1.3,-1.05,0.));
#490 = LINE('',#491,#492);
#491 = CARTESIAN_POINT('',(1.3,1.05,0.));
#492 = VECTOR('',#493,1.);
#493 = DIRECTION('',(0.,-1.,0.));
#494 = ORIENTED_EDGE('',*,*,#495,.T.);
#495 = EDGE_CURVE('',#488,#496,#498,.T.);
#496 = VERTEX_POINT('',#497);
#497 = CARTESIAN_POINT('',(1.05,-1.3,0.));
#498 = CIRCLE('',#499,0.249998959685);
#499 = AXIS2_PLACEMENT_3D('',#500,#501,#502);
#500 = CARTESIAN_POINT('',(1.050001040317,-1.050001040317,0.));
#501 = DIRECTION('',(0.,0.,-1.));
#502 = DIRECTION('',(0.999999999991,4.161285832626E-06,0.));
#503 = ORIENTED_EDGE('',*,*,#504,.T.);
#504 = EDGE_CURVE('',#496,#505,#507,.T.);
#505 = VERTEX_POINT('',#506);
#506 = CARTESIAN_POINT('',(-1.05,-1.3,0.));
#507 = LINE('',#508,#509);
#508 = CARTESIAN_POINT('',(1.05,-1.3,0.));
#509 = VECTOR('',#510,1.);
#510 = DIRECTION('',(-1.,0.,0.));
#511 = ORIENTED_EDGE('',*,*,#512,.T.);
#512 = EDGE_CURVE('',#505,#415,#513,.T.);
#513 = CIRCLE('',#514,0.249998959685);
#514 = AXIS2_PLACEMENT_3D('',#515,#516,#517);
#515 = CARTESIAN_POINT('',(-1.050001040317,-1.050001040317,0.));
#516 = DIRECTION('',(0.,0.,-1.));
#517 = DIRECTION('',(4.161285832626E-06,-0.999999999991,0.));
#518 = ORIENTED_EDGE('',*,*,#431,.T.);
#519 = FACE_BOUND('',#520,.F.);
#520 = EDGE_LOOP('',(#521));
#521 = ORIENTED_EDGE('',*,*,#522,.F.);
#522 = EDGE_CURVE('',#523,#523,#525,.T.);
#523 = VERTEX_POINT('',#524);
#524 = CARTESIAN_POINT('',(-1.232595164408E-32,-0.625,0.));
#525 = CIRCLE('',#526,0.625);
#526 = AXIS2_PLACEMENT_3D('',#527,#528,#529);
#527 = CARTESIAN_POINT('',(-5.551115123126E-17,1.110223024625E-16,0.));
#528 = DIRECTION('',(-0.,0.,-1.));
#529 = DIRECTION('',(8.881784197001E-17,-1.,-0.));
#530 = PLANE('',#531);
#531 = AXIS2_PLACEMENT_3D('',#532,#533,#534);
#532 = CARTESIAN_POINT('',(0.,0.,0.));
#533 = DIRECTION('',(-0.,-0.,-1.));
#534 = DIRECTION('',(-1.,0.,0.));
#535 = ADVANCED_FACE('',(#536,#582),#593,.T.);
#536 = FACE_BOUND('',#537,.T.);
#537 = EDGE_LOOP('',(#538,#539,#540,#549,#557,#566,#574,#581));
#538 = ORIENTED_EDGE('',*,*,#382,.T.);
#539 = ORIENTED_EDGE('',*,*,#446,.T.);
#540 = ORIENTED_EDGE('',*,*,#541,.T.);
#541 = EDGE_CURVE('',#447,#542,#544,.T.);
#542 = VERTEX_POINT('',#543);
#543 = CARTESIAN_POINT('',(1.3,1.05,-4.E-02));
#544 = CIRCLE('',#545,0.249998959685);
#545 = AXIS2_PLACEMENT_3D('',#546,#547,#548);
#546 = CARTESIAN_POINT('',(1.050001040317,1.050001040317,-4.E-02));
#547 = DIRECTION('',(0.,0.,-1.));
#548 = DIRECTION('',(-4.161285832626E-06,0.999999999991,0.));
#549 = ORIENTED_EDGE('',*,*,#550,.T.);
#550 = EDGE_CURVE('',#542,#551,#553,.T.);
#551 = VERTEX_POINT('',#552);
#552 = CARTESIAN_POINT('',(1.3,-1.05,-4.E-02));
#553 = LINE('',#554,#555);
#554 = CARTESIAN_POINT('',(1.3,1.05,-4.E-02));
#555 = VECTOR('',#556,1.);
#556 = DIRECTION('',(0.,-1.,0.));
#557 = ORIENTED_EDGE('',*,*,#558,.T.);
#558 = EDGE_CURVE('',#551,#559,#561,.T.);
#559 = VERTEX_POINT('',#560);
#560 = CARTESIAN_POINT('',(1.05,-1.3,-4.E-02));
#561 = CIRCLE('',#562,0.249998959685);
#562 = AXIS2_PLACEMENT_3D('',#563,#564,#565);
#563 = CARTESIAN_POINT('',(1.050001040317,-1.050001040317,-4.E-02));
#564 = DIRECTION('',(0.,0.,-1.));
#565 = DIRECTION('',(0.999999999991,4.161285832626E-06,0.));
#566 = ORIENTED_EDGE('',*,*,#567,.T.);
#567 = EDGE_CURVE('',#559,#568,#570,.T.);
#568 = VERTEX_POINT('',#569);
#569 = CARTESIAN_POINT('',(-1.05,-1.3,-4.E-02));
#570 = LINE('',#571,#572);
#571 = CARTESIAN_POINT('',(1.05,-1.3,-4.E-02));
#572 = VECTOR('',#573,1.);
#573 = DIRECTION('',(-1.,0.,0.));
#574 = ORIENTED_EDGE('',*,*,#575,.T.);
#575 = EDGE_CURVE('',#568,#417,#576,.T.);
#576 = CIRCLE('',#577,0.249998959685);
#577 = AXIS2_PLACEMENT_3D('',#578,#579,#580);
#578 = CARTESIAN_POINT('',(-1.050001040317,-1.050001040317,-4.E-02));
#579 = DIRECTION('',(0.,0.,-1.));
#580 = DIRECTION('',(4.161285832626E-06,-0.999999999991,0.));
#581 = ORIENTED_EDGE('',*,*,#424,.T.);
#582 = FACE_BOUND('',#583,.T.);
#583 = EDGE_LOOP('',(#584));
#584 = ORIENTED_EDGE('',*,*,#585,.F.);
#585 = EDGE_CURVE('',#586,#586,#588,.T.);
#586 = VERTEX_POINT('',#587);
#587 = CARTESIAN_POINT('',(-1.232595164408E-32,-0.625,-4.E-02));
#588 = CIRCLE('',#589,0.625);
#589 = AXIS2_PLACEMENT_3D('',#590,#591,#592);
#590 = CARTESIAN_POINT('',(-5.551115123126E-17,1.110223024625E-16,
    -4.E-02));
#591 = DIRECTION('',(-0.,0.,-1.));
#592 = DIRECTION('',(8.881784197001E-17,-1.,-0.));
#593 = PLANE('',#594);
#594 = AXIS2_PLACEMENT_3D('',#595,#596,#597);
#595 = CARTESIAN_POINT('',(0.,0.,-4.E-02));
#596 = DIRECTION('',(-0.,-0.,-1.));
#597 = DIRECTION('',(-1.,0.,0.));
#598 = ADVANCED_FACE('',(#599),#610,.T.);
#599 = FACE_BOUND('',#600,.F.);
#600 = EDGE_LOOP('',(#601,#607,#608,#609));
#601 = ORIENTED_EDGE('',*,*,#602,.T.);
#602 = EDGE_CURVE('',#505,#568,#603,.T.);
#603 = LINE('',#604,#605);
#604 = CARTESIAN_POINT('',(-1.05,-1.3,0.));
#605 = VECTOR('',#606,1.);
#606 = DIRECTION('',(0.,0.,-1.));
#607 = ORIENTED_EDGE('',*,*,#575,.T.);
#608 = ORIENTED_EDGE('',*,*,#414,.F.);
#609 = ORIENTED_EDGE('',*,*,#512,.F.);
#610 = CYLINDRICAL_SURFACE('',#611,0.249998959685);
#611 = AXIS2_PLACEMENT_3D('',#612,#613,#614);
#612 = CARTESIAN_POINT('',(-1.050001040317,-1.050001040317,0.));
#613 = DIRECTION('',(-0.,-0.,1.));
#614 = DIRECTION('',(4.161285832626E-06,-0.999999999991,0.));
#615 = ADVANCED_FACE('',(#616),#627,.T.);
#616 = FACE_BOUND('',#617,.F.);
#617 = EDGE_LOOP('',(#618,#619,#620,#626));
#618 = ORIENTED_EDGE('',*,*,#454,.T.);
#619 = ORIENTED_EDGE('',*,*,#541,.T.);
#620 = ORIENTED_EDGE('',*,*,#621,.F.);
#621 = EDGE_CURVE('',#479,#542,#622,.T.);
#622 = LINE('',#623,#624);
#623 = CARTESIAN_POINT('',(1.3,1.05,0.));
#624 = VECTOR('',#625,1.);
#625 = DIRECTION('',(0.,0.,-1.));
#626 = ORIENTED_EDGE('',*,*,#478,.F.);
#627 = CYLINDRICAL_SURFACE('',#628,0.249998959685);
#628 = AXIS2_PLACEMENT_3D('',#629,#630,#631);
#629 = CARTESIAN_POINT('',(1.050001040317,1.050001040317,0.));
#630 = DIRECTION('',(-0.,-0.,1.));
#631 = DIRECTION('',(-4.161285832626E-06,0.999999999991,0.));
#632 = ADVANCED_FACE('',(#633),#644,.F.);
#633 = FACE_BOUND('',#634,.F.);
#634 = EDGE_LOOP('',(#635,#641,#642,#643));
#635 = ORIENTED_EDGE('',*,*,#636,.T.);
#636 = EDGE_CURVE('',#496,#559,#637,.T.);
#637 = LINE('',#638,#639);
#638 = CARTESIAN_POINT('',(1.05,-1.3,0.));
#639 = VECTOR('',#640,1.);
#640 = DIRECTION('',(0.,0.,-1.));
#641 = ORIENTED_EDGE('',*,*,#567,.T.);
#642 = ORIENTED_EDGE('',*,*,#602,.F.);
#643 = ORIENTED_EDGE('',*,*,#504,.F.);
#644 = PLANE('',#645);
#645 = AXIS2_PLACEMENT_3D('',#646,#647,#648);
#646 = CARTESIAN_POINT('',(1.05,-1.3,0.));
#647 = DIRECTION('',(0.,1.,0.));
#648 = DIRECTION('',(-1.,0.,0.));
#649 = ADVANCED_FACE('',(#650),#661,.F.);
#650 = FACE_BOUND('',#651,.F.);
#651 = EDGE_LOOP('',(#652,#653,#654,#660));
#652 = ORIENTED_EDGE('',*,*,#621,.T.);
#653 = ORIENTED_EDGE('',*,*,#550,.T.);
#654 = ORIENTED_EDGE('',*,*,#655,.F.);
#655 = EDGE_CURVE('',#488,#551,#656,.T.);
#656 = LINE('',#657,#658);
#657 = CARTESIAN_POINT('',(1.3,-1.05,0.));
#658 = VECTOR('',#659,1.);
#659 = DIRECTION('',(0.,0.,-1.));
#660 = ORIENTED_EDGE('',*,*,#487,.F.);
#661 = PLANE('',#662);
#662 = AXIS2_PLACEMENT_3D('',#663,#664,#665);
#663 = CARTESIAN_POINT('',(1.3,1.05,0.));
#664 = DIRECTION('',(-1.,-0.,-0.));
#665 = DIRECTION('',(0.,-1.,0.));
#666 = ADVANCED_FACE('',(#667),#673,.T.);
#667 = FACE_BOUND('',#668,.F.);
#668 = EDGE_LOOP('',(#669,#670,#671,#672));
#669 = ORIENTED_EDGE('',*,*,#655,.T.);
#670 = ORIENTED_EDGE('',*,*,#558,.T.);
#671 = ORIENTED_EDGE('',*,*,#636,.F.);
#672 = ORIENTED_EDGE('',*,*,#495,.F.);
#673 = CYLINDRICAL_SURFACE('',#674,0.249998959685);
#674 = AXIS2_PLACEMENT_3D('',#675,#676,#677);
#675 = CARTESIAN_POINT('',(1.050001040317,-1.050001040317,0.));
#676 = DIRECTION('',(-0.,-0.,1.));
#677 = DIRECTION('',(0.999999999991,4.161285832626E-06,0.));
#678 = ADVANCED_FACE('',(#679),#690,.F.);
#679 = FACE_BOUND('',#680,.T.);
#680 = EDGE_LOOP('',(#681,#682,#688,#689));
#681 = ORIENTED_EDGE('',*,*,#585,.T.);
#682 = ORIENTED_EDGE('',*,*,#683,.T.);
#683 = EDGE_CURVE('',#586,#523,#684,.T.);
#684 = LINE('',#685,#686);
#685 = CARTESIAN_POINT('',(-1.232595164408E-32,-0.625,-4.6E-02));
#686 = VECTOR('',#687,1.);
#687 = DIRECTION('',(0.,0.,1.));
#688 = ORIENTED_EDGE('',*,*,#522,.F.);
#689 = ORIENTED_EDGE('',*,*,#683,.F.);
#690 = CYLINDRICAL_SURFACE('',#691,0.625);
#691 = AXIS2_PLACEMENT_3D('',#692,#693,#694);
#692 = CARTESIAN_POINT('',(-5.551115123126E-17,1.110223024625E-16,
    -4.6E-02));
#693 = DIRECTION('',(-0.,0.,-1.));
#694 = DIRECTION('',(8.881784197001E-17,-1.,-0.));
#695 = MANIFOLD_SOLID_BREP('',#696);
#696 = CLOSED_SHELL('',(#697,#730,#750,#770));
#697 = ADVANCED_FACE('',(#698),#725,.T.);
#698 = FACE_BOUND('',#699,.F.);
#699 = EDGE_LOOP('',(#700,#710,#717,#718));
#700 = ORIENTED_EDGE('',*,*,#701,.T.);
#701 = EDGE_CURVE('',#702,#704,#706,.T.);
#702 = VERTEX_POINT('',#703);
#703 = CARTESIAN_POINT('',(-1.232595164408E-32,-0.65,-4.E-02));
#704 = VERTEX_POINT('',#705);
#705 = CARTESIAN_POINT('',(-1.232595164408E-32,-0.65,1.55));
#706 = LINE('',#707,#708);
#707 = CARTESIAN_POINT('',(-1.232595164408E-32,-0.65,-4.E-02));
#708 = VECTOR('',#709,1.);
#709 = DIRECTION('',(0.,0.,1.));
#710 = ORIENTED_EDGE('',*,*,#711,.T.);
#711 = EDGE_CURVE('',#704,#704,#712,.T.);
#712 = CIRCLE('',#713,0.65);
#713 = AXIS2_PLACEMENT_3D('',#714,#715,#716);
#714 = CARTESIAN_POINT('',(-5.551115123126E-17,1.110223024625E-16,1.55)
  );
#715 = DIRECTION('',(0.,-0.,1.));
#716 = DIRECTION('',(8.540177112501E-17,-1.,-0.));
#717 = ORIENTED_EDGE('',*,*,#701,.F.);
#718 = ORIENTED_EDGE('',*,*,#719,.F.);
#719 = EDGE_CURVE('',#702,#702,#720,.T.);
#720 = CIRCLE('',#721,0.65);
#721 = AXIS2_PLACEMENT_3D('',#722,#723,#724);
#722 = CARTESIAN_POINT('',(-5.551115123126E-17,1.110223024625E-16,
    -4.E-02));
#723 = DIRECTION('',(0.,-0.,1.));
#724 = DIRECTION('',(8.540177112501E-17,-1.,-0.));
#725 = CYLINDRICAL_SURFACE('',#726,0.65);
#726 = AXIS2_PLACEMENT_3D('',#727,#728,#729);
#727 = CARTESIAN_POINT('',(-5.551115123126E-17,1.110223024625E-16,
    -4.E-02));
#728 = DIRECTION('',(-0.,0.,-1.));
#729 = DIRECTION('',(8.540177112501E-17,-1.,-0.));
#730 = ADVANCED_FACE('',(#731,#734),#745,.F.);
#731 = FACE_BOUND('',#732,.F.);
#732 = EDGE_LOOP('',(#733));
#733 = ORIENTED_EDGE('',*,*,#719,.T.);
#734 = FACE_BOUND('',#735,.F.);
#735 = EDGE_LOOP('',(#736));
#736 = ORIENTED_EDGE('',*,*,#737,.T.);
#737 = EDGE_CURVE('',#738,#738,#740,.T.);
#738 = VERTEX_POINT('',#739);
#739 = CARTESIAN_POINT('',(-1.232595164408E-32,-0.625,-4.E-02));
#740 = CIRCLE('',#741,0.625);
#741 = AXIS2_PLACEMENT_3D('',#742,#743,#744);
#742 = CARTESIAN_POINT('',(-5.551115123126E-17,1.110223024625E-16,
    -4.E-02));
#743 = DIRECTION('',(-0.,0.,-1.));
#744 = DIRECTION('',(8.881784197001E-17,-1.,-0.));
#745 = PLANE('',#746);
#746 = AXIS2_PLACEMENT_3D('',#747,#748,#749);
#747 = CARTESIAN_POINT('',(0.,-0.65,-4.E-02));
#748 = DIRECTION('',(0.,0.,1.));
#749 = DIRECTION('',(1.,0.,-0.));
#750 = ADVANCED_FACE('',(#751,#754),#765,.T.);
#751 = FACE_BOUND('',#752,.T.);
#752 = EDGE_LOOP('',(#753));
#753 = ORIENTED_EDGE('',*,*,#711,.T.);
#754 = FACE_BOUND('',#755,.T.);
#755 = EDGE_LOOP('',(#756));
#756 = ORIENTED_EDGE('',*,*,#757,.T.);
#757 = EDGE_CURVE('',#758,#758,#760,.T.);
#758 = VERTEX_POINT('',#759);
#759 = CARTESIAN_POINT('',(-1.232595164408E-32,-0.625,1.55));
#760 = CIRCLE('',#761,0.625);
#761 = AXIS2_PLACEMENT_3D('',#762,#763,#764);
#762 = CARTESIAN_POINT('',(-5.551115123126E-17,1.110223024625E-16,1.55)
  );
#763 = DIRECTION('',(-0.,0.,-1.));
#764 = DIRECTION('',(8.881784197001E-17,-1.,-0.));
#765 = PLANE('',#766);
#766 = AXIS2_PLACEMENT_3D('',#767,#768,#769);
#767 = CARTESIAN_POINT('',(0.,-0.65,1.55));
#768 = DIRECTION('',(0.,0.,1.));
#769 = DIRECTION('',(1.,0.,-0.));
#770 = ADVANCED_FACE('',(#771),#782,.F.);
#771 = FACE_BOUND('',#772,.T.);
#772 = EDGE_LOOP('',(#773,#774,#780,#781));
#773 = ORIENTED_EDGE('',*,*,#737,.T.);
#774 = ORIENTED_EDGE('',*,*,#775,.T.);
#775 = EDGE_CURVE('',#738,#758,#776,.T.);
#776 = LINE('',#777,#778);
#777 = CARTESIAN_POINT('',(-1.232595164408E-32,-0.625,-4.6E-02));
#778 = VECTOR('',#779,1.);
#779 = DIRECTION('',(0.,0.,1.));
#780 = ORIENTED_EDGE('',*,*,#757,.F.);
#781 = ORIENTED_EDGE('',*,*,#775,.F.);
#782 = CYLINDRICAL_SURFACE('',#783,0.625);
#783 = AXIS2_PLACEMENT_3D('',#784,#785,#786);
#784 = CARTESIAN_POINT('',(-5.551115123126E-17,1.110223024625E-16,
    -4.6E-02));
#785 = DIRECTION('',(-0.,0.,-1.));
#786 = DIRECTION('',(8.881784197001E-17,-1.,-0.));
#787 = MANIFOLD_SOLID_BREP('',#788);
#788 = CLOSED_SHELL('',(#789,#822,#842,#862));
#789 = ADVANCED_FACE('',(#790),#817,.T.);
#790 = FACE_BOUND('',#791,.F.);
#791 = EDGE_LOOP('',(#792,#802,#809,#810));
#792 = ORIENTED_EDGE('',*,*,#793,.T.);
#793 = EDGE_CURVE('',#794,#796,#798,.T.);
#794 = VERTEX_POINT('',#795);
#795 = CARTESIAN_POINT('',(4.8,0.,1.51));
#796 = VERTEX_POINT('',#797);
#797 = CARTESIAN_POINT('',(4.8,0.,1.55));
#798 = LINE('',#799,#800);
#799 = CARTESIAN_POINT('',(4.8,0.,1.51));
#800 = VECTOR('',#801,1.);
#801 = DIRECTION('',(0.,0.,1.));
#802 = ORIENTED_EDGE('',*,*,#803,.T.);
#803 = EDGE_CURVE('',#796,#796,#804,.T.);
#804 = CIRCLE('',#805,1.3);
#805 = AXIS2_PLACEMENT_3D('',#806,#807,#808);
#806 = CARTESIAN_POINT('',(3.5,0.,1.55));
#807 = DIRECTION('',(0.,0.,1.));
#808 = DIRECTION('',(1.,0.,-0.));
#809 = ORIENTED_EDGE('',*,*,#793,.F.);
#810 = ORIENTED_EDGE('',*,*,#811,.F.);
#811 = EDGE_CURVE('',#794,#794,#812,.T.);
#812 = CIRCLE('',#813,1.3);
#813 = AXIS2_PLACEMENT_3D('',#814,#815,#816);
#814 = CARTESIAN_POINT('',(3.5,-0.,1.51));
#815 = DIRECTION('',(0.,0.,1.));
#816 = DIRECTION('',(1.,0.,-0.));
#817 = CYLINDRICAL_SURFACE('',#818,1.3);
#818 = AXIS2_PLACEMENT_3D('',#819,#820,#821);
#819 = CARTESIAN_POINT('',(3.5,-0.,1.51));
#820 = DIRECTION('',(-0.,-0.,-1.));
#821 = DIRECTION('',(1.,0.,-0.));
#822 = ADVANCED_FACE('',(#823,#826),#837,.F.);
#823 = FACE_BOUND('',#824,.F.);
#824 = EDGE_LOOP('',(#825));
#825 = ORIENTED_EDGE('',*,*,#811,.T.);
#826 = FACE_BOUND('',#827,.F.);
#827 = EDGE_LOOP('',(#828));
#828 = ORIENTED_EDGE('',*,*,#829,.T.);
#829 = EDGE_CURVE('',#830,#830,#832,.T.);
#830 = VERTEX_POINT('',#831);
#831 = CARTESIAN_POINT('',(3.5,-0.625,1.51));
#832 = CIRCLE('',#833,0.625);
#833 = AXIS2_PLACEMENT_3D('',#834,#835,#836);
#834 = CARTESIAN_POINT('',(3.5,1.110223024625E-16,1.51));
#835 = DIRECTION('',(-0.,0.,-1.));
#836 = DIRECTION('',(-0.,-1.,0.));
#837 = PLANE('',#838);
#838 = AXIS2_PLACEMENT_3D('',#839,#840,#841);
#839 = CARTESIAN_POINT('',(0.,0.,1.51));
#840 = DIRECTION('',(0.,0.,1.));
#841 = DIRECTION('',(1.,0.,-0.));
#842 = ADVANCED_FACE('',(#843,#846),#857,.T.);
#843 = FACE_BOUND('',#844,.T.);
#844 = EDGE_LOOP('',(#845));
#845 = ORIENTED_EDGE('',*,*,#803,.T.);
#846 = FACE_BOUND('',#847,.T.);
#847 = EDGE_LOOP('',(#848));
#848 = ORIENTED_EDGE('',*,*,#849,.T.);
#849 = EDGE_CURVE('',#850,#850,#852,.T.);
#850 = VERTEX_POINT('',#851);
#851 = CARTESIAN_POINT('',(3.5,-0.625,1.55));
#852 = CIRCLE('',#853,0.625);
#853 = AXIS2_PLACEMENT_3D('',#854,#855,#856);
#854 = CARTESIAN_POINT('',(3.5,1.110223024625E-16,1.55));
#855 = DIRECTION('',(-0.,0.,-1.));
#856 = DIRECTION('',(-0.,-1.,0.));
#857 = PLANE('',#858);
#858 = AXIS2_PLACEMENT_3D('',#859,#860,#861);
#859 = CARTESIAN_POINT('',(0.,0.,1.55));
#860 = DIRECTION('',(0.,0.,1.));
#861 = DIRECTION('',(1.,0.,-0.));
#862 = ADVANCED_FACE('',(#863),#874,.F.);
#863 = FACE_BOUND('',#864,.T.);
#864 = EDGE_LOOP('',(#865,#866,#872,#873));
#865 = ORIENTED_EDGE('',*,*,#829,.T.);
#866 = ORIENTED_EDGE('',*,*,#867,.T.);
#867 = EDGE_CURVE('',#830,#850,#868,.T.);
#868 = LINE('',#869,#870);
#869 = CARTESIAN_POINT('',(3.5,-0.625,-4.6E-02));
#870 = VECTOR('',#871,1.);
#871 = DIRECTION('',(0.,0.,1.));
#872 = ORIENTED_EDGE('',*,*,#849,.F.);
#873 = ORIENTED_EDGE('',*,*,#867,.F.);
#874 = CYLINDRICAL_SURFACE('',#875,0.625);
#875 = AXIS2_PLACEMENT_3D('',#876,#877,#878);
#876 = CARTESIAN_POINT('',(3.5,1.110223024625E-16,-4.6E-02));
#877 = DIRECTION('',(-0.,-0.,-1.));
#878 = DIRECTION('',(-0.,-1.,0.));
#879 = MANIFOLD_SOLID_BREP('',#880);
#880 = CLOSED_SHELL('',(#881,#914,#934,#954));
#881 = ADVANCED_FACE('',(#882),#909,.T.);
#882 = FACE_BOUND('',#883,.T.);
#883 = EDGE_LOOP('',(#884,#894,#901,#902));
#884 = ORIENTED_EDGE('',*,*,#885,.T.);
#885 = EDGE_CURVE('',#886,#888,#890,.T.);
#886 = VERTEX_POINT('',#887);
#887 = CARTESIAN_POINT('',(4.8,0.,0.));
#888 = VERTEX_POINT('',#889);
#889 = CARTESIAN_POINT('',(4.8,0.,-4.E-02));
#890 = LINE('',#891,#892);
#891 = CARTESIAN_POINT('',(4.8,0.,0.));
#892 = VECTOR('',#893,1.);
#893 = DIRECTION('',(0.,0.,-1.));
#894 = ORIENTED_EDGE('',*,*,#895,.T.);
#895 = EDGE_CURVE('',#888,#888,#896,.T.);
#896 = CIRCLE('',#897,1.3);
#897 = AXIS2_PLACEMENT_3D('',#898,#899,#900);
#898 = CARTESIAN_POINT('',(3.5,0.,-4.E-02));
#899 = DIRECTION('',(0.,0.,1.));
#900 = DIRECTION('',(1.,0.,-0.));
#901 = ORIENTED_EDGE('',*,*,#885,.F.);
#902 = ORIENTED_EDGE('',*,*,#903,.F.);
#903 = EDGE_CURVE('',#886,#886,#904,.T.);
#904 = CIRCLE('',#905,1.3);
#905 = AXIS2_PLACEMENT_3D('',#906,#907,#908);
#906 = CARTESIAN_POINT('',(3.5,-0.,0.));
#907 = DIRECTION('',(0.,0.,1.));
#908 = DIRECTION('',(1.,0.,-0.));
#909 = CYLINDRICAL_SURFACE('',#910,1.3);
#910 = AXIS2_PLACEMENT_3D('',#911,#912,#913);
#911 = CARTESIAN_POINT('',(3.5,-0.,0.));
#912 = DIRECTION('',(0.,0.,1.));
#913 = DIRECTION('',(1.,0.,-0.));
#914 = ADVANCED_FACE('',(#915,#918),#929,.F.);
#915 = FACE_BOUND('',#916,.F.);
#916 = EDGE_LOOP('',(#917));
#917 = ORIENTED_EDGE('',*,*,#903,.F.);
#918 = FACE_BOUND('',#919,.F.);
#919 = EDGE_LOOP('',(#920));
#920 = ORIENTED_EDGE('',*,*,#921,.F.);
#921 = EDGE_CURVE('',#922,#922,#924,.T.);
#922 = VERTEX_POINT('',#923);
#923 = CARTESIAN_POINT('',(3.5,-0.625,0.));
#924 = CIRCLE('',#925,0.625);
#925 = AXIS2_PLACEMENT_3D('',#926,#927,#928);
#926 = CARTESIAN_POINT('',(3.5,1.110223024625E-16,0.));
#927 = DIRECTION('',(-0.,0.,-1.));
#928 = DIRECTION('',(-0.,-1.,0.));
#929 = PLANE('',#930);
#930 = AXIS2_PLACEMENT_3D('',#931,#932,#933);
#931 = CARTESIAN_POINT('',(0.,0.,0.));
#932 = DIRECTION('',(-0.,-0.,-1.));
#933 = DIRECTION('',(-1.,0.,0.));
#934 = ADVANCED_FACE('',(#935,#938),#949,.T.);
#935 = FACE_BOUND('',#936,.T.);
#936 = EDGE_LOOP('',(#937));
#937 = ORIENTED_EDGE('',*,*,#895,.F.);
#938 = FACE_BOUND('',#939,.T.);
#939 = EDGE_LOOP('',(#940));
#940 = ORIENTED_EDGE('',*,*,#941,.F.);
#941 = EDGE_CURVE('',#942,#942,#944,.T.);
#942 = VERTEX_POINT('',#943);
#943 = CARTESIAN_POINT('',(3.5,-0.625,-4.E-02));
#944 = CIRCLE('',#945,0.625);
#945 = AXIS2_PLACEMENT_3D('',#946,#947,#948);
#946 = CARTESIAN_POINT('',(3.5,1.110223024625E-16,-4.E-02));
#947 = DIRECTION('',(-0.,0.,-1.));
#948 = DIRECTION('',(-0.,-1.,0.));
#949 = PLANE('',#950);
#950 = AXIS2_PLACEMENT_3D('',#951,#952,#953);
#951 = CARTESIAN_POINT('',(0.,0.,-4.E-02));
#952 = DIRECTION('',(-0.,-0.,-1.));
#953 = DIRECTION('',(-1.,0.,0.));
#954 = ADVANCED_FACE('',(#955),#966,.F.);
#955 = FACE_BOUND('',#956,.T.);
#956 = EDGE_LOOP('',(#957,#958,#964,#965));
#957 = ORIENTED_EDGE('',*,*,#941,.T.);
#958 = ORIENTED_EDGE('',*,*,#959,.T.);
#959 = EDGE_CURVE('',#942,#922,#960,.T.);
#960 = LINE('',#961,#962);
#961 = CARTESIAN_POINT('',(3.5,-0.625,-4.6E-02));
#962 = VECTOR('',#963,1.);
#963 = DIRECTION('',(0.,0.,1.));
#964 = ORIENTED_EDGE('',*,*,#921,.F.);
#965 = ORIENTED_EDGE('',*,*,#959,.F.);
#966 = CYLINDRICAL_SURFACE('',#967,0.625);
#967 = AXIS2_PLACEMENT_3D('',#968,#969,#970);
#968 = CARTESIAN_POINT('',(3.5,1.110223024625E-16,-4.6E-02));
#969 = DIRECTION('',(-0.,-0.,-1.));
#970 = DIRECTION('',(-0.,-1.,0.));
#971 = MANIFOLD_SOLID_BREP('',#972);
#972 = CLOSED_SHELL('',(#973,#1006,#1026,#1046));
#973 = ADVANCED_FACE('',(#974),#1001,.T.);
#974 = FACE_BOUND('',#975,.F.);
#975 = EDGE_LOOP('',(#976,#986,#993,#994));
#976 = ORIENTED_EDGE('',*,*,#977,.T.);
#977 = EDGE_CURVE('',#978,#980,#982,.T.);
#978 = VERTEX_POINT('',#979);
#979 = CARTESIAN_POINT('',(3.5,-0.65,-4.E-02));
#980 = VERTEX_POINT('',#981);
#981 = CARTESIAN_POINT('',(3.5,-0.65,1.55));
#982 = LINE('',#983,#984);
#983 = CARTESIAN_POINT('',(3.5,-0.65,-4.E-02));
#984 = VECTOR('',#985,1.);
#985 = DIRECTION('',(0.,0.,1.));
#986 = ORIENTED_EDGE('',*,*,#987,.T.);
#987 = EDGE_CURVE('',#980,#980,#988,.T.);
#988 = CIRCLE('',#989,0.65);
#989 = AXIS2_PLACEMENT_3D('',#990,#991,#992);
#990 = CARTESIAN_POINT('',(3.5,2.498001805407E-16,1.55));
#991 = DIRECTION('',(0.,0.,1.));
#992 = DIRECTION('',(-0.,-1.,0.));
#993 = ORIENTED_EDGE('',*,*,#977,.F.);
#994 = ORIENTED_EDGE('',*,*,#995,.F.);
#995 = EDGE_CURVE('',#978,#978,#996,.T.);
#996 = CIRCLE('',#997,0.65);
#997 = AXIS2_PLACEMENT_3D('',#998,#999,#1000);
#998 = CARTESIAN_POINT('',(3.5,2.498001805407E-16,-4.E-02));
#999 = DIRECTION('',(0.,0.,1.));
#1000 = DIRECTION('',(-0.,-1.,0.));
#1001 = CYLINDRICAL_SURFACE('',#1002,0.65);
#1002 = AXIS2_PLACEMENT_3D('',#1003,#1004,#1005);
#1003 = CARTESIAN_POINT('',(3.5,2.498001805407E-16,-4.E-02));
#1004 = DIRECTION('',(-0.,-0.,-1.));
#1005 = DIRECTION('',(-0.,-1.,0.));
#1006 = ADVANCED_FACE('',(#1007,#1010),#1021,.F.);
#1007 = FACE_BOUND('',#1008,.F.);
#1008 = EDGE_LOOP('',(#1009));
#1009 = ORIENTED_EDGE('',*,*,#995,.T.);
#1010 = FACE_BOUND('',#1011,.F.);
#1011 = EDGE_LOOP('',(#1012));
#1012 = ORIENTED_EDGE('',*,*,#1013,.T.);
#1013 = EDGE_CURVE('',#1014,#1014,#1016,.T.);
#1014 = VERTEX_POINT('',#1015);
#1015 = CARTESIAN_POINT('',(3.5,-0.625,-4.E-02));
#1016 = CIRCLE('',#1017,0.625);
#1017 = AXIS2_PLACEMENT_3D('',#1018,#1019,#1020);
#1018 = CARTESIAN_POINT('',(3.5,1.110223024625E-16,-4.E-02));
#1019 = DIRECTION('',(-0.,0.,-1.));
#1020 = DIRECTION('',(-0.,-1.,0.));
#1021 = PLANE('',#1022);
#1022 = AXIS2_PLACEMENT_3D('',#1023,#1024,#1025);
#1023 = CARTESIAN_POINT('',(3.5,-0.65,-4.E-02));
#1024 = DIRECTION('',(0.,0.,1.));
#1025 = DIRECTION('',(1.,0.,-0.));
#1026 = ADVANCED_FACE('',(#1027,#1030),#1041,.T.);
#1027 = FACE_BOUND('',#1028,.T.);
#1028 = EDGE_LOOP('',(#1029));
#1029 = ORIENTED_EDGE('',*,*,#987,.T.);
#1030 = FACE_BOUND('',#1031,.T.);
#1031 = EDGE_LOOP('',(#1032));
#1032 = ORIENTED_EDGE('',*,*,#1033,.T.);
#1033 = EDGE_CURVE('',#1034,#1034,#1036,.T.);
#1034 = VERTEX_POINT('',#1035);
#1035 = CARTESIAN_POINT('',(3.5,-0.625,1.55));
#1036 = CIRCLE('',#1037,0.625);
#1037 = AXIS2_PLACEMENT_3D('',#1038,#1039,#1040);
#1038 = CARTESIAN_POINT('',(3.5,1.110223024625E-16,1.55));
#1039 = DIRECTION('',(-0.,0.,-1.));
#1040 = DIRECTION('',(-0.,-1.,0.));
#1041 = PLANE('',#1042);
#1042 = AXIS2_PLACEMENT_3D('',#1043,#1044,#1045);
#1043 = CARTESIAN_POINT('',(3.5,-0.65,1.55));
#1044 = DIRECTION('',(0.,0.,1.));
#1045 = DIRECTION('',(1.,0.,-0.));
#1046 = ADVANCED_FACE('',(#1047),#1058,.F.);
#1047 = FACE_BOUND('',#1048,.T.);
#1048 = EDGE_LOOP('',(#1049,#1050,#1056,#1057));
#1049 = ORIENTED_EDGE('',*,*,#1013,.T.);
#1050 = ORIENTED_EDGE('',*,*,#1051,.T.);
#1051 = EDGE_CURVE('',#1014,#1034,#1052,.T.);
#1052 = LINE('',#1053,#1054);
#1053 = CARTESIAN_POINT('',(3.5,-0.625,-4.6E-02));
#1054 = VECTOR('',#1055,1.);
#1055 = DIRECTION('',(0.,0.,1.));
#1056 = ORIENTED_EDGE('',*,*,#1033,.F.);
#1057 = ORIENTED_EDGE('',*,*,#1051,.F.);
#1058 = CYLINDRICAL_SURFACE('',#1059,0.625);
#1059 = AXIS2_PLACEMENT_3D('',#1060,#1061,#1062);
#1060 = CARTESIAN_POINT('',(3.5,1.110223024625E-16,-4.6E-02));
#1061 = DIRECTION('',(-0.,-0.,-1.));
#1062 = DIRECTION('',(-0.,-1.,0.));
#1063 = MANIFOLD_SOLID_BREP('',#1064);
#1064 = CLOSED_SHELL('',(#1065,#1098,#1118,#1138));
#1065 = ADVANCED_FACE('',(#1066),#1093,.T.);
#1066 = FACE_BOUND('',#1067,.F.);
#1067 = EDGE_LOOP('',(#1068,#1078,#1085,#1086));
#1068 = ORIENTED_EDGE('',*,*,#1069,.T.);
#1069 = EDGE_CURVE('',#1070,#1072,#1074,.T.);
#1070 = VERTEX_POINT('',#1071);
#1071 = CARTESIAN_POINT('',(8.3,0.,1.51));
#1072 = VERTEX_POINT('',#1073);
#1073 = CARTESIAN_POINT('',(8.3,0.,1.55));
#1074 = LINE('',#1075,#1076);
#1075 = CARTESIAN_POINT('',(8.3,0.,1.51));
#1076 = VECTOR('',#1077,1.);
#1077 = DIRECTION('',(0.,0.,1.));
#1078 = ORIENTED_EDGE('',*,*,#1079,.T.);
#1079 = EDGE_CURVE('',#1072,#1072,#1080,.T.);
#1080 = CIRCLE('',#1081,1.3);
#1081 = AXIS2_PLACEMENT_3D('',#1082,#1083,#1084);
#1082 = CARTESIAN_POINT('',(7.,0.,1.55));
#1083 = DIRECTION('',(0.,0.,1.));
#1084 = DIRECTION('',(1.,0.,-0.));
#1085 = ORIENTED_EDGE('',*,*,#1069,.F.);
#1086 = ORIENTED_EDGE('',*,*,#1087,.F.);
#1087 = EDGE_CURVE('',#1070,#1070,#1088,.T.);
#1088 = CIRCLE('',#1089,1.3);
#1089 = AXIS2_PLACEMENT_3D('',#1090,#1091,#1092);
#1090 = CARTESIAN_POINT('',(7.,-0.,1.51));
#1091 = DIRECTION('',(0.,0.,1.));
#1092 = DIRECTION('',(1.,0.,-0.));
#1093 = CYLINDRICAL_SURFACE('',#1094,1.3);
#1094 = AXIS2_PLACEMENT_3D('',#1095,#1096,#1097);
#1095 = CARTESIAN_POINT('',(7.,-0.,1.51));
#1096 = DIRECTION('',(-0.,-0.,-1.));
#1097 = DIRECTION('',(1.,0.,-0.));
#1098 = ADVANCED_FACE('',(#1099,#1102),#1113,.F.);
#1099 = FACE_BOUND('',#1100,.F.);
#1100 = EDGE_LOOP('',(#1101));
#1101 = ORIENTED_EDGE('',*,*,#1087,.T.);
#1102 = FACE_BOUND('',#1103,.F.);
#1103 = EDGE_LOOP('',(#1104));
#1104 = ORIENTED_EDGE('',*,*,#1105,.T.);
#1105 = EDGE_CURVE('',#1106,#1106,#1108,.T.);
#1106 = VERTEX_POINT('',#1107);
#1107 = CARTESIAN_POINT('',(7.,-0.625,1.51));
#1108 = CIRCLE('',#1109,0.625);
#1109 = AXIS2_PLACEMENT_3D('',#1110,#1111,#1112);
#1110 = CARTESIAN_POINT('',(7.,1.110223024625E-16,1.51));
#1111 = DIRECTION('',(-0.,0.,-1.));
#1112 = DIRECTION('',(-0.,-1.,0.));
#1113 = PLANE('',#1114);
#1114 = AXIS2_PLACEMENT_3D('',#1115,#1116,#1117);
#1115 = CARTESIAN_POINT('',(0.,0.,1.51));
#1116 = DIRECTION('',(0.,0.,1.));
#1117 = DIRECTION('',(1.,0.,-0.));
#1118 = ADVANCED_FACE('',(#1119,#1122),#1133,.T.);
#1119 = FACE_BOUND('',#1120,.T.);
#1120 = EDGE_LOOP('',(#1121));
#1121 = ORIENTED_EDGE('',*,*,#1079,.T.);
#1122 = FACE_BOUND('',#1123,.T.);
#1123 = EDGE_LOOP('',(#1124));
#1124 = ORIENTED_EDGE('',*,*,#1125,.T.);
#1125 = EDGE_CURVE('',#1126,#1126,#1128,.T.);
#1126 = VERTEX_POINT('',#1127);
#1127 = CARTESIAN_POINT('',(7.,-0.625,1.55));
#1128 = CIRCLE('',#1129,0.625);
#1129 = AXIS2_PLACEMENT_3D('',#1130,#1131,#1132);
#1130 = CARTESIAN_POINT('',(7.,1.110223024625E-16,1.55));
#1131 = DIRECTION('',(-0.,0.,-1.));
#1132 = DIRECTION('',(-0.,-1.,0.));
#1133 = PLANE('',#1134);
#1134 = AXIS2_PLACEMENT_3D('',#1135,#1136,#1137);
#1135 = CARTESIAN_POINT('',(0.,0.,1.55));
#1136 = DIRECTION('',(0.,0.,1.));
#1137 = DIRECTION('',(1.,0.,-0.));
#1138 = ADVANCED_FACE('',(#1139),#1150,.F.);
#1139 = FACE_BOUND('',#1140,.T.);
#1140 = EDGE_LOOP('',(#1141,#1142,#1148,#1149));
#1141 = ORIENTED_EDGE('',*,*,#1105,.T.);
#1142 = ORIENTED_EDGE('',*,*,#1143,.T.);
#1143 = EDGE_CURVE('',#1106,#1126,#1144,.T.);
#1144 = LINE('',#1145,#1146);
#1145 = CARTESIAN_POINT('',(7.,-0.625,-4.6E-02));
#1146 = VECTOR('',#1147,1.);
#1147 = DIRECTION('',(0.,0.,1.));
#1148 = ORIENTED_EDGE('',*,*,#1125,.F.);
#1149 = ORIENTED_EDGE('',*,*,#1143,.F.);
#1150 = CYLINDRICAL_SURFACE('',#1151,0.625);
#1151 = AXIS2_PLACEMENT_3D('',#1152,#1153,#1154);
#1152 = CARTESIAN_POINT('',(7.,1.110223024625E-16,-4.6E-02));
#1153 = DIRECTION('',(-0.,-0.,-1.));
#1154 = DIRECTION('',(-0.,-1.,0.));
#1155 = MANIFOLD_SOLID_BREP('',#1156);
#1156 = CLOSED_SHELL('',(#1157,#1190,#1210,#1230));
#1157 = ADVANCED_FACE('',(#1158),#1185,.T.);
#1158 = FACE_BOUND('',#1159,.T.);
#1159 = EDGE_LOOP('',(#1160,#1170,#1177,#1178));
#1160 = ORIENTED_EDGE('',*,*,#1161,.T.);
#1161 = EDGE_CURVE('',#1162,#1164,#1166,.T.);
#1162 = VERTEX_POINT('',#1163);
#1163 = CARTESIAN_POINT('',(8.3,0.,0.));
#1164 = VERTEX_POINT('',#1165);
#1165 = CARTESIAN_POINT('',(8.3,0.,-4.E-02));
#1166 = LINE('',#1167,#1168);
#1167 = CARTESIAN_POINT('',(8.3,0.,0.));
#1168 = VECTOR('',#1169,1.);
#1169 = DIRECTION('',(0.,0.,-1.));
#1170 = ORIENTED_EDGE('',*,*,#1171,.T.);
#1171 = EDGE_CURVE('',#1164,#1164,#1172,.T.);
#1172 = CIRCLE('',#1173,1.3);
#1173 = AXIS2_PLACEMENT_3D('',#1174,#1175,#1176);
#1174 = CARTESIAN_POINT('',(7.,0.,-4.E-02));
#1175 = DIRECTION('',(0.,0.,1.));
#1176 = DIRECTION('',(1.,0.,-0.));
#1177 = ORIENTED_EDGE('',*,*,#1161,.F.);
#1178 = ORIENTED_EDGE('',*,*,#1179,.F.);
#1179 = EDGE_CURVE('',#1162,#1162,#1180,.T.);
#1180 = CIRCLE('',#1181,1.3);
#1181 = AXIS2_PLACEMENT_3D('',#1182,#1183,#1184);
#1182 = CARTESIAN_POINT('',(7.,-0.,0.));
#1183 = DIRECTION('',(0.,0.,1.));
#1184 = DIRECTION('',(1.,0.,-0.));
#1185 = CYLINDRICAL_SURFACE('',#1186,1.3);
#1186 = AXIS2_PLACEMENT_3D('',#1187,#1188,#1189);
#1187 = CARTESIAN_POINT('',(7.,-0.,0.));
#1188 = DIRECTION('',(0.,0.,1.));
#1189 = DIRECTION('',(1.,0.,-0.));
#1190 = ADVANCED_FACE('',(#1191,#1194),#1205,.F.);
#1191 = FACE_BOUND('',#1192,.F.);
#1192 = EDGE_LOOP('',(#1193));
#1193 = ORIENTED_EDGE('',*,*,#1179,.F.);
#1194 = FACE_BOUND('',#1195,.F.);
#1195 = EDGE_LOOP('',(#1196));
#1196 = ORIENTED_EDGE('',*,*,#1197,.F.);
#1197 = EDGE_CURVE('',#1198,#1198,#1200,.T.);
#1198 = VERTEX_POINT('',#1199);
#1199 = CARTESIAN_POINT('',(7.,-0.625,0.));
#1200 = CIRCLE('',#1201,0.625);
#1201 = AXIS2_PLACEMENT_3D('',#1202,#1203,#1204);
#1202 = CARTESIAN_POINT('',(7.,1.110223024625E-16,0.));
#1203 = DIRECTION('',(-0.,0.,-1.));
#1204 = DIRECTION('',(-0.,-1.,0.));
#1205 = PLANE('',#1206);
#1206 = AXIS2_PLACEMENT_3D('',#1207,#1208,#1209);
#1207 = CARTESIAN_POINT('',(0.,0.,0.));
#1208 = DIRECTION('',(-0.,-0.,-1.));
#1209 = DIRECTION('',(-1.,0.,0.));
#1210 = ADVANCED_FACE('',(#1211,#1214),#1225,.T.);
#1211 = FACE_BOUND('',#1212,.T.);
#1212 = EDGE_LOOP('',(#1213));
#1213 = ORIENTED_EDGE('',*,*,#1171,.F.);
#1214 = FACE_BOUND('',#1215,.T.);
#1215 = EDGE_LOOP('',(#1216));
#1216 = ORIENTED_EDGE('',*,*,#1217,.F.);
#1217 = EDGE_CURVE('',#1218,#1218,#1220,.T.);
#1218 = VERTEX_POINT('',#1219);
#1219 = CARTESIAN_POINT('',(7.,-0.625,-4.E-02));
#1220 = CIRCLE('',#1221,0.625);
#1221 = AXIS2_PLACEMENT_3D('',#1222,#1223,#1224);
#1222 = CARTESIAN_POINT('',(7.,1.110223024625E-16,-4.E-02));
#1223 = DIRECTION('',(-0.,0.,-1.));
#1224 = DIRECTION('',(-0.,-1.,0.));
#1225 = PLANE('',#1226);
#1226 = AXIS2_PLACEMENT_3D('',#1227,#1228,#1229);
#1227 = CARTESIAN_POINT('',(0.,0.,-4.E-02));
#1228 = DIRECTION('',(-0.,-0.,-1.));
#1229 = DIRECTION('',(-1.,0.,0.));
#1230 = ADVANCED_FACE('',(#1231),#1242,.F.);
#1231 = FACE_BOUND('',#1232,.T.);
#1232 = EDGE_LOOP('',(#1233,#1234,#1240,#1241));
#1233 = ORIENTED_EDGE('',*,*,#1217,.T.);
#1234 = ORIENTED_EDGE('',*,*,#1235,.T.);
#1235 = EDGE_CURVE('',#1218,#1198,#1236,.T.);
#1236 = LINE('',#1237,#1238);
#1237 = CARTESIAN_POINT('',(7.,-0.625,-4.6E-02));
#1238 = VECTOR('',#1239,1.);
#1239 = DIRECTION('',(0.,0.,1.));
#1240 = ORIENTED_EDGE('',*,*,#1197,.F.);
#1241 = ORIENTED_EDGE('',*,*,#1235,.F.);
#1242 = CYLINDRICAL_SURFACE('',#1243,0.625);
#1243 = AXIS2_PLACEMENT_3D('',#1244,#1245,#1246);
#1244 = CARTESIAN_POINT('',(7.,1.110223024625E-16,-4.6E-02));
#1245 = DIRECTION('',(-0.,-0.,-1.));
#1246 = DIRECTION('',(-0.,-1.,0.));
#1247 = MANIFOLD_SOLID_BREP('',#1248);
#1248 = CLOSED_SHELL('',(#1249,#1282,#1302,#1322));
#1249 = ADVANCED_FACE('',(#1250),#1277,.T.);
#1250 = FACE_BOUND('',#1251,.F.);
#1251 = EDGE_LOOP('',(#1252,#1262,#1269,#1270));
#1252 = ORIENTED_EDGE('',*,*,#1253,.T.);
#1253 = EDGE_CURVE('',#1254,#1256,#1258,.T.);
#1254 = VERTEX_POINT('',#1255);
#1255 = CARTESIAN_POINT('',(7.,-0.65,-4.E-02));
#1256 = VERTEX_POINT('',#1257);
#1257 = CARTESIAN_POINT('',(7.,-0.65,1.55));
#1258 = LINE('',#1259,#1260);
#1259 = CARTESIAN_POINT('',(7.,-0.65,-4.E-02));
#1260 = VECTOR('',#1261,1.);
#1261 = DIRECTION('',(0.,0.,1.));
#1262 = ORIENTED_EDGE('',*,*,#1263,.T.);
#1263 = EDGE_CURVE('',#1256,#1256,#1264,.T.);
#1264 = CIRCLE('',#1265,0.65);
#1265 = AXIS2_PLACEMENT_3D('',#1266,#1267,#1268);
#1266 = CARTESIAN_POINT('',(7.,2.498001805407E-16,1.55));
#1267 = DIRECTION('',(0.,0.,1.));
#1268 = DIRECTION('',(-0.,-1.,0.));
#1269 = ORIENTED_EDGE('',*,*,#1253,.F.);
#1270 = ORIENTED_EDGE('',*,*,#1271,.F.);
#1271 = EDGE_CURVE('',#1254,#1254,#1272,.T.);
#1272 = CIRCLE('',#1273,0.65);
#1273 = AXIS2_PLACEMENT_3D('',#1274,#1275,#1276);
#1274 = CARTESIAN_POINT('',(7.,2.498001805407E-16,-4.E-02));
#1275 = DIRECTION('',(0.,0.,1.));
#1276 = DIRECTION('',(-0.,-1.,0.));
#1277 = CYLINDRICAL_SURFACE('',#1278,0.65);
#1278 = AXIS2_PLACEMENT_3D('',#1279,#1280,#1281);
#1279 = CARTESIAN_POINT('',(7.,2.498001805407E-16,-4.E-02));
#1280 = DIRECTION('',(-0.,-0.,-1.));
#1281 = DIRECTION('',(-0.,-1.,0.));
#1282 = ADVANCED_FACE('',(#1283,#1286),#1297,.F.);
#1283 = FACE_BOUND('',#1284,.F.);
#1284 = EDGE_LOOP('',(#1285));
#1285 = ORIENTED_EDGE('',*,*,#1271,.T.);
#1286 = FACE_BOUND('',#1287,.F.);
#1287 = EDGE_LOOP('',(#1288));
#1288 = ORIENTED_EDGE('',*,*,#1289,.T.);
#1289 = EDGE_CURVE('',#1290,#1290,#1292,.T.);
#1290 = VERTEX_POINT('',#1291);
#1291 = CARTESIAN_POINT('',(7.,-0.625,-4.E-02));
#1292 = CIRCLE('',#1293,0.625);
#1293 = AXIS2_PLACEMENT_3D('',#1294,#1295,#1296);
#1294 = CARTESIAN_POINT('',(7.,1.110223024625E-16,-4.E-02));
#1295 = DIRECTION('',(-0.,0.,-1.));
#1296 = DIRECTION('',(-0.,-1.,0.));
#1297 = PLANE('',#1298);
#1298 = AXIS2_PLACEMENT_3D('',#1299,#1300,#1301);
#1299 = CARTESIAN_POINT('',(7.,-0.65,-4.E-02));
#1300 = DIRECTION('',(0.,0.,1.));
#1301 = DIRECTION('',(1.,0.,-0.));
#1302 = ADVANCED_FACE('',(#1303,#1306),#1317,.T.);
#1303 = FACE_BOUND('',#1304,.T.);
#1304 = EDGE_LOOP('',(#1305));
#1305 = ORIENTED_EDGE('',*,*,#1263,.T.);
#1306 = FACE_BOUND('',#1307,.T.);
#1307 = EDGE_LOOP('',(#1308));
#1308 = ORIENTED_EDGE('',*,*,#1309,.T.);
#1309 = EDGE_CURVE('',#1310,#1310,#1312,.T.);
#1310 = VERTEX_POINT('',#1311);
#1311 = CARTESIAN_POINT('',(7.,-0.625,1.55));
#1312 = CIRCLE('',#1313,0.625);
#1313 = AXIS2_PLACEMENT_3D('',#1314,#1315,#1316);
#1314 = CARTESIAN_POINT('',(7.,1.110223024625E-16,1.55));
#1315 = DIRECTION('',(-0.,0.,-1.));
#1316 = DIRECTION('',(-0.,-1.,0.));
#1317 = PLANE('',#1318);
#1318 = AXIS2_PLACEMENT_3D('',#1319,#1320,#1321);
#1319 = CARTESIAN_POINT('',(7.,-0.65,1.55));
#1320 = DIRECTION('',(0.,0.,1.));
#1321 = DIRECTION('',(1.,0.,-0.));
#1322 = ADVANCED_FACE('',(#1323),#1334,.F.);
#1323 = FACE_BOUND('',#1324,.T.);
#1324 = EDGE_LOOP('',(#1325,#1326,#1332,#1333));
#1325 = ORIENTED_EDGE('',*,*,#1289,.T.);
#1326 = ORIENTED_EDGE('',*,*,#1327,.T.);
#1327 = EDGE_CURVE('',#1290,#1310,#1328,.T.);
#1328 = LINE('',#1329,#1330);
#1329 = CARTESIAN_POINT('',(7.,-0.625,-4.6E-02));
#1330 = VECTOR('',#1331,1.);
#1331 = DIRECTION('',(0.,0.,1.));
#1332 = ORIENTED_EDGE('',*,*,#1309,.F.);
#1333 = ORIENTED_EDGE('',*,*,#1327,.F.);
#1334 = CYLINDRICAL_SURFACE('',#1335,0.625);
#1335 = AXIS2_PLACEMENT_3D('',#1336,#1337,#1338);
#1336 = CARTESIAN_POINT('',(7.,1.110223024625E-16,-4.6E-02));
#1337 = DIRECTION('',(-0.,-0.,-1.));
#1338 = DIRECTION('',(-0.,-1.,0.));
#1339 = MANIFOLD_SOLID_BREP('',#1340);
#1340 = CLOSED_SHELL('',(#1341,#1374,#1394,#1414));
#1341 = ADVANCED_FACE('',(#1342),#1369,.T.);
#1342 = FACE_BOUND('',#1343,.F.);
#1343 = EDGE_LOOP('',(#1344,#1354,#1361,#1362));
#1344 = ORIENTED_EDGE('',*,*,#1345,.T.);
#1345 = EDGE_CURVE('',#1346,#1348,#1350,.T.);
#1346 = VERTEX_POINT('',#1347);
#1347 = CARTESIAN_POINT('',(11.8,0.,1.51));
#1348 = VERTEX_POINT('',#1349);
#1349 = CARTESIAN_POINT('',(11.8,0.,1.55));
#1350 = LINE('',#1351,#1352);
#1351 = CARTESIAN_POINT('',(11.8,0.,1.51));
#1352 = VECTOR('',#1353,1.);
#1353 = DIRECTION('',(0.,0.,1.));
#1354 = ORIENTED_EDGE('',*,*,#1355,.T.);
#1355 = EDGE_CURVE('',#1348,#1348,#1356,.T.);
#1356 = CIRCLE('',#1357,1.3);
#1357 = AXIS2_PLACEMENT_3D('',#1358,#1359,#1360);
#1358 = CARTESIAN_POINT('',(10.5,0.,1.55));
#1359 = DIRECTION('',(0.,0.,1.));
#1360 = DIRECTION('',(1.,0.,-0.));
#1361 = ORIENTED_EDGE('',*,*,#1345,.F.);
#1362 = ORIENTED_EDGE('',*,*,#1363,.F.);
#1363 = EDGE_CURVE('',#1346,#1346,#1364,.T.);
#1364 = CIRCLE('',#1365,1.3);
#1365 = AXIS2_PLACEMENT_3D('',#1366,#1367,#1368);
#1366 = CARTESIAN_POINT('',(10.5,-0.,1.51));
#1367 = DIRECTION('',(0.,0.,1.));
#1368 = DIRECTION('',(1.,0.,-0.));
#1369 = CYLINDRICAL_SURFACE('',#1370,1.3);
#1370 = AXIS2_PLACEMENT_3D('',#1371,#1372,#1373);
#1371 = CARTESIAN_POINT('',(10.5,-0.,1.51));
#1372 = DIRECTION('',(-0.,-0.,-1.));
#1373 = DIRECTION('',(1.,0.,-0.));
#1374 = ADVANCED_FACE('',(#1375,#1378),#1389,.F.);
#1375 = FACE_BOUND('',#1376,.F.);
#1376 = EDGE_LOOP('',(#1377));
#1377 = ORIENTED_EDGE('',*,*,#1363,.T.);
#1378 = FACE_BOUND('',#1379,.F.);
#1379 = EDGE_LOOP('',(#1380));
#1380 = ORIENTED_EDGE('',*,*,#1381,.T.);
#1381 = EDGE_CURVE('',#1382,#1382,#1384,.T.);
#1382 = VERTEX_POINT('',#1383);
#1383 = CARTESIAN_POINT('',(10.5,-0.625,1.51));
#1384 = CIRCLE('',#1385,0.625);
#1385 = AXIS2_PLACEMENT_3D('',#1386,#1387,#1388);
#1386 = CARTESIAN_POINT('',(10.5,1.110223024625E-16,1.51));
#1387 = DIRECTION('',(-0.,0.,-1.));
#1388 = DIRECTION('',(-0.,-1.,0.));
#1389 = PLANE('',#1390);
#1390 = AXIS2_PLACEMENT_3D('',#1391,#1392,#1393);
#1391 = CARTESIAN_POINT('',(0.,0.,1.51));
#1392 = DIRECTION('',(0.,0.,1.));
#1393 = DIRECTION('',(1.,0.,-0.));
#1394 = ADVANCED_FACE('',(#1395,#1398),#1409,.T.);
#1395 = FACE_BOUND('',#1396,.T.);
#1396 = EDGE_LOOP('',(#1397));
#1397 = ORIENTED_EDGE('',*,*,#1355,.T.);
#1398 = FACE_BOUND('',#1399,.T.);
#1399 = EDGE_LOOP('',(#1400));
#1400 = ORIENTED_EDGE('',*,*,#1401,.T.);
#1401 = EDGE_CURVE('',#1402,#1402,#1404,.T.);
#1402 = VERTEX_POINT('',#1403);
#1403 = CARTESIAN_POINT('',(10.5,-0.625,1.55));
#1404 = CIRCLE('',#1405,0.625);
#1405 = AXIS2_PLACEMENT_3D('',#1406,#1407,#1408);
#1406 = CARTESIAN_POINT('',(10.5,1.110223024625E-16,1.55));
#1407 = DIRECTION('',(-0.,0.,-1.));
#1408 = DIRECTION('',(-0.,-1.,0.));
#1409 = PLANE('',#1410);
#1410 = AXIS2_PLACEMENT_3D('',#1411,#1412,#1413);
#1411 = CARTESIAN_POINT('',(0.,0.,1.55));
#1412 = DIRECTION('',(0.,0.,1.));
#1413 = DIRECTION('',(1.,0.,-0.));
#1414 = ADVANCED_FACE('',(#1415),#1426,.F.);
#1415 = FACE_BOUND('',#1416,.T.);
#1416 = EDGE_LOOP('',(#1417,#1418,#1424,#1425));
#1417 = ORIENTED_EDGE('',*,*,#1381,.T.);
#1418 = ORIENTED_EDGE('',*,*,#1419,.T.);
#1419 = EDGE_CURVE('',#1382,#1402,#1420,.T.);
#1420 = LINE('',#1421,#1422);
#1421 = CARTESIAN_POINT('',(10.5,-0.625,-4.6E-02));
#1422 = VECTOR('',#1423,1.);
#1423 = DIRECTION('',(0.,0.,1.));
#1424 = ORIENTED_EDGE('',*,*,#1401,.F.);
#1425 = ORIENTED_EDGE('',*,*,#1419,.F.);
#1426 = CYLINDRICAL_SURFACE('',#1427,0.625);
#1427 = AXIS2_PLACEMENT_3D('',#1428,#1429,#1430);
#1428 = CARTESIAN_POINT('',(10.5,1.110223024625E-16,-4.6E-02));
#1429 = DIRECTION('',(-0.,-0.,-1.));
#1430 = DIRECTION('',(-0.,-1.,0.));
#1431 = MANIFOLD_SOLID_BREP('',#1432);
#1432 = CLOSED_SHELL('',(#1433,#1466,#1486,#1506));
#1433 = ADVANCED_FACE('',(#1434),#1461,.T.);
#1434 = FACE_BOUND('',#1435,.T.);
#1435 = EDGE_LOOP('',(#1436,#1446,#1453,#1454));
#1436 = ORIENTED_EDGE('',*,*,#1437,.T.);
#1437 = EDGE_CURVE('',#1438,#1440,#1442,.T.);
#1438 = VERTEX_POINT('',#1439);
#1439 = CARTESIAN_POINT('',(11.8,0.,0.));
#1440 = VERTEX_POINT('',#1441);
#1441 = CARTESIAN_POINT('',(11.8,0.,-4.E-02));
#1442 = LINE('',#1443,#1444);
#1443 = CARTESIAN_POINT('',(11.8,0.,0.));
#1444 = VECTOR('',#1445,1.);
#1445 = DIRECTION('',(0.,0.,-1.));
#1446 = ORIENTED_EDGE('',*,*,#1447,.T.);
#1447 = EDGE_CURVE('',#1440,#1440,#1448,.T.);
#1448 = CIRCLE('',#1449,1.3);
#1449 = AXIS2_PLACEMENT_3D('',#1450,#1451,#1452);
#1450 = CARTESIAN_POINT('',(10.5,0.,-4.E-02));
#1451 = DIRECTION('',(0.,0.,1.));
#1452 = DIRECTION('',(1.,0.,-0.));
#1453 = ORIENTED_EDGE('',*,*,#1437,.F.);
#1454 = ORIENTED_EDGE('',*,*,#1455,.F.);
#1455 = EDGE_CURVE('',#1438,#1438,#1456,.T.);
#1456 = CIRCLE('',#1457,1.3);
#1457 = AXIS2_PLACEMENT_3D('',#1458,#1459,#1460);
#1458 = CARTESIAN_POINT('',(10.5,-0.,0.));
#1459 = DIRECTION('',(0.,0.,1.));
#1460 = DIRECTION('',(1.,0.,-0.));
#1461 = CYLINDRICAL_SURFACE('',#1462,1.3);
#1462 = AXIS2_PLACEMENT_3D('',#1463,#1464,#1465);
#1463 = CARTESIAN_POINT('',(10.5,-0.,0.));
#1464 = DIRECTION('',(0.,0.,1.));
#1465 = DIRECTION('',(1.,0.,-0.));
#1466 = ADVANCED_FACE('',(#1467,#1470),#1481,.F.);
#1467 = FACE_BOUND('',#1468,.F.);
#1468 = EDGE_LOOP('',(#1469));
#1469 = ORIENTED_EDGE('',*,*,#1455,.F.);
#1470 = FACE_BOUND('',#1471,.F.);
#1471 = EDGE_LOOP('',(#1472));
#1472 = ORIENTED_EDGE('',*,*,#1473,.F.);
#1473 = EDGE_CURVE('',#1474,#1474,#1476,.T.);
#1474 = VERTEX_POINT('',#1475);
#1475 = CARTESIAN_POINT('',(10.5,-0.625,0.));
#1476 = CIRCLE('',#1477,0.625);
#1477 = AXIS2_PLACEMENT_3D('',#1478,#1479,#1480);
#1478 = CARTESIAN_POINT('',(10.5,1.110223024625E-16,0.));
#1479 = DIRECTION('',(-0.,0.,-1.));
#1480 = DIRECTION('',(-0.,-1.,0.));
#1481 = PLANE('',#1482);
#1482 = AXIS2_PLACEMENT_3D('',#1483,#1484,#1485);
#1483 = CARTESIAN_POINT('',(0.,0.,0.));
#1484 = DIRECTION('',(-0.,-0.,-1.));
#1485 = DIRECTION('',(-1.,0.,0.));
#1486 = ADVANCED_FACE('',(#1487,#1490),#1501,.T.);
#1487 = FACE_BOUND('',#1488,.T.);
#1488 = EDGE_LOOP('',(#1489));
#1489 = ORIENTED_EDGE('',*,*,#1447,.F.);
#1490 = FACE_BOUND('',#1491,.T.);
#1491 = EDGE_LOOP('',(#1492));
#1492 = ORIENTED_EDGE('',*,*,#1493,.F.);
#1493 = EDGE_CURVE('',#1494,#1494,#1496,.T.);
#1494 = VERTEX_POINT('',#1495);
#1495 = CARTESIAN_POINT('',(10.5,-0.625,-4.E-02));
#1496 = CIRCLE('',#1497,0.625);
#1497 = AXIS2_PLACEMENT_3D('',#1498,#1499,#1500);
#1498 = CARTESIAN_POINT('',(10.5,1.110223024625E-16,-4.E-02));
#1499 = DIRECTION('',(-0.,0.,-1.));
#1500 = DIRECTION('',(-0.,-1.,0.));
#1501 = PLANE('',#1502);
#1502 = AXIS2_PLACEMENT_3D('',#1503,#1504,#1505);
#1503 = CARTESIAN_POINT('',(0.,0.,-4.E-02));
#1504 = DIRECTION('',(-0.,-0.,-1.));
#1505 = DIRECTION('',(-1.,0.,0.));
#1506 = ADVANCED_FACE('',(#1507),#1518,.F.);
#1507 = FACE_BOUND('',#1508,.T.);
#1508 = EDGE_LOOP('',(#1509,#1510,#1516,#1517));
#1509 = ORIENTED_EDGE('',*,*,#1493,.T.);
#1510 = ORIENTED_EDGE('',*,*,#1511,.T.);
#1511 = EDGE_CURVE('',#1494,#1474,#1512,.T.);
#1512 = LINE('',#1513,#1514);
#1513 = CARTESIAN_POINT('',(10.5,-0.625,-4.6E-02));
#1514 = VECTOR('',#1515,1.);
#1515 = DIRECTION('',(0.,0.,1.));
#1516 = ORIENTED_EDGE('',*,*,#1473,.F.);
#1517 = ORIENTED_EDGE('',*,*,#1511,.F.);
#1518 = CYLINDRICAL_SURFACE('',#1519,0.625);
#1519 = AXIS2_PLACEMENT_3D('',#1520,#1521,#1522);
#1520 = CARTESIAN_POINT('',(10.5,1.110223024625E-16,-4.6E-02));
#1521 = DIRECTION('',(-0.,-0.,-1.));
#1522 = DIRECTION('',(-0.,-1.,0.));
#1523 = MANIFOLD_SOLID_BREP('',#1524);
#1524 = CLOSED_SHELL('',(#1525,#1558,#1578,#1598));
#1525 = ADVANCED_FACE('',(#1526),#1553,.T.);
#1526 = FACE_BOUND('',#1527,.F.);
#1527 = EDGE_LOOP('',(#1528,#1538,#1545,#1546));
#1528 = ORIENTED_EDGE('',*,*,#1529,.T.);
#1529 = EDGE_CURVE('',#1530,#1532,#1534,.T.);
#1530 = VERTEX_POINT('',#1531);
#1531 = CARTESIAN_POINT('',(10.5,-0.65,-4.E-02));
#1532 = VERTEX_POINT('',#1533);
#1533 = CARTESIAN_POINT('',(10.5,-0.65,1.55));
#1534 = LINE('',#1535,#1536);
#1535 = CARTESIAN_POINT('',(10.5,-0.65,-4.E-02));
#1536 = VECTOR('',#1537,1.);
#1537 = DIRECTION('',(0.,0.,1.));
#1538 = ORIENTED_EDGE('',*,*,#1539,.T.);
#1539 = EDGE_CURVE('',#1532,#1532,#1540,.T.);
#1540 = CIRCLE('',#1541,0.65);
#1541 = AXIS2_PLACEMENT_3D('',#1542,#1543,#1544);
#1542 = CARTESIAN_POINT('',(10.5,-5.551115123126E-16,1.55));
#1543 = DIRECTION('',(0.,0.,1.));
#1544 = DIRECTION('',(-0.,-1.,0.));
#1545 = ORIENTED_EDGE('',*,*,#1529,.F.);
#1546 = ORIENTED_EDGE('',*,*,#1547,.F.);
#1547 = EDGE_CURVE('',#1530,#1530,#1548,.T.);
#1548 = CIRCLE('',#1549,0.65);
#1549 = AXIS2_PLACEMENT_3D('',#1550,#1551,#1552);
#1550 = CARTESIAN_POINT('',(10.5,-5.551115123126E-16,-4.E-02));
#1551 = DIRECTION('',(0.,0.,1.));
#1552 = DIRECTION('',(-0.,-1.,0.));
#1553 = CYLINDRICAL_SURFACE('',#1554,0.65);
#1554 = AXIS2_PLACEMENT_3D('',#1555,#1556,#1557);
#1555 = CARTESIAN_POINT('',(10.5,-5.551115123126E-16,-4.E-02));
#1556 = DIRECTION('',(-0.,-0.,-1.));
#1557 = DIRECTION('',(-0.,-1.,0.));
#1558 = ADVANCED_FACE('',(#1559,#1562),#1573,.F.);
#1559 = FACE_BOUND('',#1560,.F.);
#1560 = EDGE_LOOP('',(#1561));
#1561 = ORIENTED_EDGE('',*,*,#1547,.T.);
#1562 = FACE_BOUND('',#1563,.F.);
#1563 = EDGE_LOOP('',(#1564));
#1564 = ORIENTED_EDGE('',*,*,#1565,.T.);
#1565 = EDGE_CURVE('',#1566,#1566,#1568,.T.);
#1566 = VERTEX_POINT('',#1567);
#1567 = CARTESIAN_POINT('',(10.5,-0.625,-4.E-02));
#1568 = CIRCLE('',#1569,0.625);
#1569 = AXIS2_PLACEMENT_3D('',#1570,#1571,#1572);
#1570 = CARTESIAN_POINT('',(10.5,1.110223024625E-16,-4.E-02));
#1571 = DIRECTION('',(-0.,0.,-1.));
#1572 = DIRECTION('',(-0.,-1.,0.));
#1573 = PLANE('',#1574);
#1574 = AXIS2_PLACEMENT_3D('',#1575,#1576,#1577);
#1575 = CARTESIAN_POINT('',(10.5,-0.65,-4.E-02));
#1576 = DIRECTION('',(0.,0.,1.));
#1577 = DIRECTION('',(1.,0.,-0.));
#1578 = ADVANCED_FACE('',(#1579,#1582),#1593,.T.);
#1579 = FACE_BOUND('',#1580,.T.);
#1580 = EDGE_LOOP('',(#1581));
#1581 = ORIENTED_EDGE('',*,*,#1539,.T.);
#1582 = FACE_BOUND('',#1583,.T.);
#1583 = EDGE_LOOP('',(#1584));
#1584 = ORIENTED_EDGE('',*,*,#1585,.T.);
#1585 = EDGE_CURVE('',#1586,#1586,#1588,.T.);
#1586 = VERTEX_POINT('',#1587);
#1587 = CARTESIAN_POINT('',(10.5,-0.625,1.55));
#1588 = CIRCLE('',#1589,0.625);
#1589 = AXIS2_PLACEMENT_3D('',#1590,#1591,#1592);
#1590 = CARTESIAN_POINT('',(10.5,1.110223024625E-16,1.55));
#1591 = DIRECTION('',(-0.,0.,-1.));
#1592 = DIRECTION('',(-0.,-1.,0.));
#1593 = PLANE('',#1594);
#1594 = AXIS2_PLACEMENT_3D('',#1595,#1596,#1597);
#1595 = CARTESIAN_POINT('',(10.5,-0.65,1.55));
#1596 = DIRECTION('',(0.,0.,1.));
#1597 = DIRECTION('',(1.,0.,-0.));
#1598 = ADVANCED_FACE('',(#1599),#1610,.F.);
#1599 = FACE_BOUND('',#1600,.T.);
#1600 = EDGE_LOOP('',(#1601,#1602,#1608,#1609));
#1601 = ORIENTED_EDGE('',*,*,#1565,.T.);
#1602 = ORIENTED_EDGE('',*,*,#1603,.T.);
#1603 = EDGE_CURVE('',#1566,#1586,#1604,.T.);
#1604 = LINE('',#1605,#1606);
#1605 = CARTESIAN_POINT('',(10.5,-0.625,-4.6E-02));
#1606 = VECTOR('',#1607,1.);
#1607 = DIRECTION('',(0.,0.,1.));
#1608 = ORIENTED_EDGE('',*,*,#1585,.F.);
#1609 = ORIENTED_EDGE('',*,*,#1603,.F.);
#1610 = CYLINDRICAL_SURFACE('',#1611,0.625);
#1611 = AXIS2_PLACEMENT_3D('',#1612,#1613,#1614);
#1612 = CARTESIAN_POINT('',(10.5,1.110223024625E-16,-4.6E-02));
#1613 = DIRECTION('',(-0.,-0.,-1.));
#1614 = DIRECTION('',(-0.,-1.,0.));
#1615 = MANIFOLD_SOLID_BREP('',#1616);
#1616 = CLOSED_SHELL('',(#1617,#1650,#1670,#1690));
#1617 = ADVANCED_FACE('',(#1618),#1645,.T.);
#1618 = FACE_BOUND('',#1619,.F.);
#1619 = EDGE_LOOP('',(#1620,#1630,#1637,#1638));
#1620 = ORIENTED_EDGE('',*,*,#1621,.T.);
#1621 = EDGE_CURVE('',#1622,#1624,#1626,.T.);
#1622 = VERTEX_POINT('',#1623);
#1623 = CARTESIAN_POINT('',(15.3,0.,1.51));
#1624 = VERTEX_POINT('',#1625);
#1625 = CARTESIAN_POINT('',(15.3,0.,1.55));
#1626 = LINE('',#1627,#1628);
#1627 = CARTESIAN_POINT('',(15.3,0.,1.51));
#1628 = VECTOR('',#1629,1.);
#1629 = DIRECTION('',(0.,0.,1.));
#1630 = ORIENTED_EDGE('',*,*,#1631,.T.);
#1631 = EDGE_CURVE('',#1624,#1624,#1632,.T.);
#1632 = CIRCLE('',#1633,1.3);
#1633 = AXIS2_PLACEMENT_3D('',#1634,#1635,#1636);
#1634 = CARTESIAN_POINT('',(14.,0.,1.55));
#1635 = DIRECTION('',(0.,0.,1.));
#1636 = DIRECTION('',(1.,0.,-0.));
#1637 = ORIENTED_EDGE('',*,*,#1621,.F.);
#1638 = ORIENTED_EDGE('',*,*,#1639,.F.);
#1639 = EDGE_CURVE('',#1622,#1622,#1640,.T.);
#1640 = CIRCLE('',#1641,1.3);
#1641 = AXIS2_PLACEMENT_3D('',#1642,#1643,#1644);
#1642 = CARTESIAN_POINT('',(14.,-0.,1.51));
#1643 = DIRECTION('',(0.,0.,1.));
#1644 = DIRECTION('',(1.,0.,-0.));
#1645 = CYLINDRICAL_SURFACE('',#1646,1.3);
#1646 = AXIS2_PLACEMENT_3D('',#1647,#1648,#1649);
#1647 = CARTESIAN_POINT('',(14.,-0.,1.51));
#1648 = DIRECTION('',(-0.,-0.,-1.));
#1649 = DIRECTION('',(1.,0.,-0.));
#1650 = ADVANCED_FACE('',(#1651,#1654),#1665,.F.);
#1651 = FACE_BOUND('',#1652,.F.);
#1652 = EDGE_LOOP('',(#1653));
#1653 = ORIENTED_EDGE('',*,*,#1639,.T.);
#1654 = FACE_BOUND('',#1655,.F.);
#1655 = EDGE_LOOP('',(#1656));
#1656 = ORIENTED_EDGE('',*,*,#1657,.T.);
#1657 = EDGE_CURVE('',#1658,#1658,#1660,.T.);
#1658 = VERTEX_POINT('',#1659);
#1659 = CARTESIAN_POINT('',(14.,-0.625,1.51));
#1660 = CIRCLE('',#1661,0.625);
#1661 = AXIS2_PLACEMENT_3D('',#1662,#1663,#1664);
#1662 = CARTESIAN_POINT('',(14.,1.110223024625E-16,1.51));
#1663 = DIRECTION('',(-0.,0.,-1.));
#1664 = DIRECTION('',(-0.,-1.,0.));
#1665 = PLANE('',#1666);
#1666 = AXIS2_PLACEMENT_3D('',#1667,#1668,#1669);
#1667 = CARTESIAN_POINT('',(0.,0.,1.51));
#1668 = DIRECTION('',(0.,0.,1.));
#1669 = DIRECTION('',(1.,0.,-0.));
#1670 = ADVANCED_FACE('',(#1671,#1674),#1685,.T.);
#1671 = FACE_BOUND('',#1672,.T.);
#1672 = EDGE_LOOP('',(#1673));
#1673 = ORIENTED_EDGE('',*,*,#1631,.T.);
#1674 = FACE_BOUND('',#1675,.T.);
#1675 = EDGE_LOOP('',(#1676));
#1676 = ORIENTED_EDGE('',*,*,#1677,.T.);
#1677 = EDGE_CURVE('',#1678,#1678,#1680,.T.);
#1678 = VERTEX_POINT('',#1679);
#1679 = CARTESIAN_POINT('',(14.,-0.625,1.55));
#1680 = CIRCLE('',#1681,0.625);
#1681 = AXIS2_PLACEMENT_3D('',#1682,#1683,#1684);
#1682 = CARTESIAN_POINT('',(14.,1.110223024625E-16,1.55));
#1683 = DIRECTION('',(-0.,0.,-1.));
#1684 = DIRECTION('',(-0.,-1.,0.));
#1685 = PLANE('',#1686);
#1686 = AXIS2_PLACEMENT_3D('',#1687,#1688,#1689);
#1687 = CARTESIAN_POINT('',(0.,0.,1.55));
#1688 = DIRECTION('',(0.,0.,1.));
#1689 = DIRECTION('',(1.,0.,-0.));
#1690 = ADVANCED_FACE('',(#1691),#1702,.F.);
#1691 = FACE_BOUND('',#1692,.T.);
#1692 = EDGE_LOOP('',(#1693,#1694,#1700,#1701));
#1693 = ORIENTED_EDGE('',*,*,#1657,.T.);
#1694 = ORIENTED_EDGE('',*,*,#1695,.T.);
#1695 = EDGE_CURVE('',#1658,#1678,#1696,.T.);
#1696 = LINE('',#1697,#1698);
#1697 = CARTESIAN_POINT('',(14.,-0.625,-4.6E-02));
#1698 = VECTOR('',#1699,1.);
#1699 = DIRECTION('',(0.,0.,1.));
#1700 = ORIENTED_EDGE('',*,*,#1677,.F.);
#1701 = ORIENTED_EDGE('',*,*,#1695,.F.);
#1702 = CYLINDRICAL_SURFACE('',#1703,0.625);
#1703 = AXIS2_PLACEMENT_3D('',#1704,#1705,#1706);
#1704 = CARTESIAN_POINT('',(14.,1.110223024625E-16,-4.6E-02));
#1705 = DIRECTION('',(-0.,-0.,-1.));
#1706 = DIRECTION('',(-0.,-1.,0.));
#1707 = MANIFOLD_SOLID_BREP('',#1708);
#1708 = CLOSED_SHELL('',(#1709,#1742,#1762,#1782));
#1709 = ADVANCED_FACE('',(#1710),#1737,.T.);
#1710 = FACE_BOUND('',#1711,.T.);
#1711 = EDGE_LOOP('',(#1712,#1722,#1729,#1730));
#1712 = ORIENTED_EDGE('',*,*,#1713,.T.);
#1713 = EDGE_CURVE('',#1714,#1716,#1718,.T.);
#1714 = VERTEX_POINT('',#1715);
#1715 = CARTESIAN_POINT('',(15.3,0.,0.));
#1716 = VERTEX_POINT('',#1717);
#1717 = CARTESIAN_POINT('',(15.3,0.,-4.E-02));
#1718 = LINE('',#1719,#1720);
#1719 = CARTESIAN_POINT('',(15.3,0.,0.));
#1720 = VECTOR('',#1721,1.);
#1721 = DIRECTION('',(0.,0.,-1.));
#1722 = ORIENTED_EDGE('',*,*,#1723,.T.);
#1723 = EDGE_CURVE('',#1716,#1716,#1724,.T.);
#1724 = CIRCLE('',#1725,1.3);
#1725 = AXIS2_PLACEMENT_3D('',#1726,#1727,#1728);
#1726 = CARTESIAN_POINT('',(14.,0.,-4.E-02));
#1727 = DIRECTION('',(0.,0.,1.));
#1728 = DIRECTION('',(1.,0.,-0.));
#1729 = ORIENTED_EDGE('',*,*,#1713,.F.);
#1730 = ORIENTED_EDGE('',*,*,#1731,.F.);
#1731 = EDGE_CURVE('',#1714,#1714,#1732,.T.);
#1732 = CIRCLE('',#1733,1.3);
#1733 = AXIS2_PLACEMENT_3D('',#1734,#1735,#1736);
#1734 = CARTESIAN_POINT('',(14.,-0.,0.));
#1735 = DIRECTION('',(0.,0.,1.));
#1736 = DIRECTION('',(1.,0.,-0.));
#1737 = CYLINDRICAL_SURFACE('',#1738,1.3);
#1738 = AXIS2_PLACEMENT_3D('',#1739,#1740,#1741);
#1739 = CARTESIAN_POINT('',(14.,-0.,0.));
#1740 = DIRECTION('',(0.,0.,1.));
#1741 = DIRECTION('',(1.,0.,-0.));
#1742 = ADVANCED_FACE('',(#1743,#1746),#1757,.F.);
#1743 = FACE_BOUND('',#1744,.F.);
#1744 = EDGE_LOOP('',(#1745));
#1745 = ORIENTED_EDGE('',*,*,#1731,.F.);
#1746 = FACE_BOUND('',#1747,.F.);
#1747 = EDGE_LOOP('',(#1748));
#1748 = ORIENTED_EDGE('',*,*,#1749,.F.);
#1749 = EDGE_CURVE('',#1750,#1750,#1752,.T.);
#1750 = VERTEX_POINT('',#1751);
#1751 = CARTESIAN_POINT('',(14.,-0.625,0.));
#1752 = CIRCLE('',#1753,0.625);
#1753 = AXIS2_PLACEMENT_3D('',#1754,#1755,#1756);
#1754 = CARTESIAN_POINT('',(14.,1.110223024625E-16,0.));
#1755 = DIRECTION('',(-0.,0.,-1.));
#1756 = DIRECTION('',(-0.,-1.,0.));
#1757 = PLANE('',#1758);
#1758 = AXIS2_PLACEMENT_3D('',#1759,#1760,#1761);
#1759 = CARTESIAN_POINT('',(0.,0.,0.));
#1760 = DIRECTION('',(-0.,-0.,-1.));
#1761 = DIRECTION('',(-1.,0.,0.));
#1762 = ADVANCED_FACE('',(#1763,#1766),#1777,.T.);
#1763 = FACE_BOUND('',#1764,.T.);
#1764 = EDGE_LOOP('',(#1765));
#1765 = ORIENTED_EDGE('',*,*,#1723,.F.);
#1766 = FACE_BOUND('',#1767,.T.);
#1767 = EDGE_LOOP('',(#1768));
#1768 = ORIENTED_EDGE('',*,*,#1769,.F.);
#1769 = EDGE_CURVE('',#1770,#1770,#1772,.T.);
#1770 = VERTEX_POINT('',#1771);
#1771 = CARTESIAN_POINT('',(14.,-0.625,-4.E-02));
#1772 = CIRCLE('',#1773,0.625);
#1773 = AXIS2_PLACEMENT_3D('',#1774,#1775,#1776);
#1774 = CARTESIAN_POINT('',(14.,1.110223024625E-16,-4.E-02));
#1775 = DIRECTION('',(-0.,0.,-1.));
#1776 = DIRECTION('',(-0.,-1.,0.));
#1777 = PLANE('',#1778);
#1778 = AXIS2_PLACEMENT_3D('',#1779,#1780,#1781);
#1779 = CARTESIAN_POINT('',(0.,0.,-4.E-02));
#1780 = DIRECTION('',(-0.,-0.,-1.));
#1781 = DIRECTION('',(-1.,0.,0.));
#1782 = ADVANCED_FACE('',(#1783),#1794,.F.);
#1783 = FACE_BOUND('',#1784,.T.);
#1784 = EDGE_LOOP('',(#1785,#1786,#1792,#1793));
#1785 = ORIENTED_EDGE('',*,*,#1769,.T.);
#1786 = ORIENTED_EDGE('',*,*,#1787,.T.);
#1787 = EDGE_CURVE('',#1770,#1750,#1788,.T.);
#1788 = LINE('',#1789,#1790);
#1789 = CARTESIAN_POINT('',(14.,-0.625,-4.6E-02));
#1790 = VECTOR('',#1791,1.);
#1791 = DIRECTION('',(0.,0.,1.));
#1792 = ORIENTED_EDGE('',*,*,#1749,.F.);
#1793 = ORIENTED_EDGE('',*,*,#1787,.F.);
#1794 = CYLINDRICAL_SURFACE('',#1795,0.625);
#1795 = AXIS2_PLACEMENT_3D('',#1796,#1797,#1798);
#1796 = CARTESIAN_POINT('',(14.,1.110223024625E-16,-4.6E-02));
#1797 = DIRECTION('',(-0.,-0.,-1.));
#1798 = DIRECTION('',(-0.,-1.,0.));
#1799 = MANIFOLD_SOLID_BREP('',#1800);
#1800 = CLOSED_SHELL('',(#1801,#1834,#1854,#1874));
#1801 = ADVANCED_FACE('',(#1802),#1829,.T.);
#1802 = FACE_BOUND('',#1803,.F.);
#1803 = EDGE_LOOP('',(#1804,#1814,#1821,#1822));
#1804 = ORIENTED_EDGE('',*,*,#1805,.T.);
#1805 = EDGE_CURVE('',#1806,#1808,#1810,.T.);
#1806 = VERTEX_POINT('',#1807);
#1807 = CARTESIAN_POINT('',(14.,-0.65,-4.E-02));
#1808 = VERTEX_POINT('',#1809);
#1809 = CARTESIAN_POINT('',(14.,-0.65,1.55));
#1810 = LINE('',#1811,#1812);
#1811 = CARTESIAN_POINT('',(14.,-0.65,-4.E-02));
#1812 = VECTOR('',#1813,1.);
#1813 = DIRECTION('',(0.,0.,1.));
#1814 = ORIENTED_EDGE('',*,*,#1815,.T.);
#1815 = EDGE_CURVE('',#1808,#1808,#1816,.T.);
#1816 = CIRCLE('',#1817,0.65);
#1817 = AXIS2_PLACEMENT_3D('',#1818,#1819,#1820);
#1818 = CARTESIAN_POINT('',(14.,-5.551115123126E-16,1.55));
#1819 = DIRECTION('',(0.,0.,1.));
#1820 = DIRECTION('',(-0.,-1.,0.));
#1821 = ORIENTED_EDGE('',*,*,#1805,.F.);
#1822 = ORIENTED_EDGE('',*,*,#1823,.F.);
#1823 = EDGE_CURVE('',#1806,#1806,#1824,.T.);
#1824 = CIRCLE('',#1825,0.65);
#1825 = AXIS2_PLACEMENT_3D('',#1826,#1827,#1828);
#1826 = CARTESIAN_POINT('',(14.,-5.551115123126E-16,-4.E-02));
#1827 = DIRECTION('',(0.,0.,1.));
#1828 = DIRECTION('',(-0.,-1.,0.));
#1829 = CYLINDRICAL_SURFACE('',#1830,0.65);
#1830 = AXIS2_PLACEMENT_3D('',#1831,#1832,#1833);
#1831 = CARTESIAN_POINT('',(14.,-5.551115123126E-16,-4.E-02));
#1832 = DIRECTION('',(-0.,-0.,-1.));
#1833 = DIRECTION('',(-0.,-1.,0.));
#1834 = ADVANCED_FACE('',(#1835,#1838),#1849,.F.);
#1835 = FACE_BOUND('',#1836,.F.);
#1836 = EDGE_LOOP('',(#1837));
#1837 = ORIENTED_EDGE('',*,*,#1823,.T.);
#1838 = FACE_BOUND('',#1839,.F.);
#1839 = EDGE_LOOP('',(#1840));
#1840 = ORIENTED_EDGE('',*,*,#1841,.T.);
#1841 = EDGE_CURVE('',#1842,#1842,#1844,.T.);
#1842 = VERTEX_POINT('',#1843);
#1843 = CARTESIAN_POINT('',(14.,-0.625,-4.E-02));
#1844 = CIRCLE('',#1845,0.625);
#1845 = AXIS2_PLACEMENT_3D('',#1846,#1847,#1848);
#1846 = CARTESIAN_POINT('',(14.,1.110223024625E-16,-4.E-02));
#1847 = DIRECTION('',(-0.,0.,-1.));
#1848 = DIRECTION('',(-0.,-1.,0.));
#1849 = PLANE('',#1850);
#1850 = AXIS2_PLACEMENT_3D('',#1851,#1852,#1853);
#1851 = CARTESIAN_POINT('',(14.,-0.65,-4.E-02));
#1852 = DIRECTION('',(0.,0.,1.));
#1853 = DIRECTION('',(1.,0.,-0.));
#1854 = ADVANCED_FACE('',(#1855,#1858),#1869,.T.);
#1855 = FACE_BOUND('',#1856,.T.);
#1856 = EDGE_LOOP('',(#1857));
#1857 = ORIENTED_EDGE('',*,*,#1815,.T.);
#1858 = FACE_BOUND('',#1859,.T.);
#1859 = EDGE_LOOP('',(#1860));
#1860 = ORIENTED_EDGE('',*,*,#1861,.T.);
#1861 = EDGE_CURVE('',#1862,#1862,#1864,.T.);
#1862 = VERTEX_POINT('',#1863);
#1863 = CARTESIAN_POINT('',(14.,-0.625,1.55));
#1864 = CIRCLE('',#1865,0.625);
#1865 = AXIS2_PLACEMENT_3D('',#1866,#1867,#1868);
#1866 = CARTESIAN_POINT('',(14.,1.110223024625E-16,1.55));
#1867 = DIRECTION('',(-0.,0.,-1.));
#1868 = DIRECTION('',(-0.,-1.,0.));
#1869 = PLANE('',#1870);
#1870 = AXIS2_PLACEMENT_3D('',#1871,#1872,#1873);
#1871 = CARTESIAN_POINT('',(14.,-0.65,1.55));
#1872 = DIRECTION('',(0.,0.,1.));
#1873 = DIRECTION('',(1.,0.,-0.));
#1874 = ADVANCED_FACE('',(#1875),#1886,.F.);
#1875 = FACE_BOUND('',#1876,.T.);
#1876 = EDGE_LOOP('',(#1877,#1878,#1884,#1885));
#1877 = ORIENTED_EDGE('',*,*,#1841,.T.);
#1878 = ORIENTED_EDGE('',*,*,#1879,.T.);
#1879 = EDGE_CURVE('',#1842,#1862,#1880,.T.);
#1880 = LINE('',#1881,#1882);
#1881 = CARTESIAN_POINT('',(14.,-0.625,-4.6E-02));
#1882 = VECTOR('',#1883,1.);
#1883 = DIRECTION('',(0.,0.,1.));
#1884 = ORIENTED_EDGE('',*,*,#1861,.F.);
#1885 = ORIENTED_EDGE('',*,*,#1879,.F.);
#1886 = CYLINDRICAL_SURFACE('',#1887,0.625);
#1887 = AXIS2_PLACEMENT_3D('',#1888,#1889,#1890);
#1888 = CARTESIAN_POINT('',(14.,1.110223024625E-16,-4.6E-02));
#1889 = DIRECTION('',(-0.,-0.,-1.));
#1890 = DIRECTION('',(-0.,-1.,0.));
#1891 = ( GEOMETRIC_REPRESENTATION_CONTEXT(3) 
GLOBAL_UNCERTAINTY_ASSIGNED_CONTEXT((#1895)) 
GLOBAL_UNIT_ASSIGNED_CONTEXT((#1892,#1893,#1894)) REPRESENTATION_CONTEXT
('Context #1','3D Context with UNIT and UNCERTAINTY') );
#1892 = ( LENGTH_UNIT() NAMED_UNIT(*) SI_UNIT(.MILLI.,.METRE.) );
#1893 = ( NAMED_UNIT(*) PLANE_ANGLE_UNIT() SI_UNIT($,.RADIAN.) );
#1894 = ( NAMED_UNIT(*) SI_UNIT($,.STERADIAN.) SOLID_ANGLE_UNIT() );
#1895 = UNCERTAINTY_MEASURE_WITH_UNIT(LENGTH_MEASURE(1.E-07),#1892,
  'distance_accuracy_value','confusion accuracy');
#1896 = CONTEXT_DEPENDENT_SHAPE_REPRESENTATION(#1897,#1899);
#1897 = ( REPRESENTATION_RELATIONSHIP('','',#36,#10) 
REPRESENTATION_RELATIONSHIP_WITH_TRANSFORMATION(#1898) 
SHAPE_REPRESENTATION_RELATIONSHIP() );
#1898 = ITEM_DEFINED_TRANSFORMATION('','',#11,#15);
#1899 = PRODUCT_DEFINITION_SHAPE('Placement','Placement of an item',
  #1900);
#1900 = NEXT_ASSEMBLY_USAGE_OCCURRENCE('1','=>[0:1:1:2]','',#5,#31,$);
#1901 = PRODUCT_RELATED_PRODUCT_CATEGORY('part',$,(#33));
#1902 = SHAPE_DEFINITION_REPRESENTATION(#1903,#1909);
#1903 = PRODUCT_DEFINITION_SHAPE('','',#1904);
#1904 = PRODUCT_DEFINITION('design','',#1905,#1908);
#1905 = PRODUCT_DEFINITION_FORMATION('','',#1906);
#1906 = PRODUCT(
'electronic_connector_terminal_block_3_5_mm_pitch_through_hole_5_pin_
screw_terminal_1x05_p3_5_mm_render_PCB',
'electronic_connector_terminal_block_3_5_mm_pitch_through_hole_5_pin_
screw_terminal_1x05_p3_5_mm_render_PCB','',(#1907));
#1907 = PRODUCT_CONTEXT('',#2,'mechanical');
#1908 = PRODUCT_DEFINITION_CONTEXT('part definition',#2,'design');
#1909 = ADVANCED_BREP_SHAPE_REPRESENTATION('',(#11,#1910),#2255);
#1910 = MANIFOLD_SOLID_BREP('',#1911);
#1911 = CLOSED_SHELL('',(#1912,#1952,#1983,#2014,#2086,#2158,#2170,#2187
    ,#2204,#2221,#2238));
#1912 = ADVANCED_FACE('',(#1913),#1947,.T.);
#1913 = FACE_BOUND('',#1914,.T.);
#1914 = EDGE_LOOP('',(#1915,#1925,#1933,#1941));
#1915 = ORIENTED_EDGE('',*,*,#1916,.T.);
#1916 = EDGE_CURVE('',#1917,#1919,#1921,.T.);
#1917 = VERTEX_POINT('',#1918);
#1918 = CARTESIAN_POINT('',(18.75,-7.11,0.));
#1919 = VERTEX_POINT('',#1920);
#1920 = CARTESIAN_POINT('',(18.75,-7.11,1.51));
#1921 = LINE('',#1922,#1923);
#1922 = CARTESIAN_POINT('',(18.75,-7.11,0.));
#1923 = VECTOR('',#1924,1.);
#1924 = DIRECTION('',(0.,0.,1.));
#1925 = ORIENTED_EDGE('',*,*,#1926,.T.);
#1926 = EDGE_CURVE('',#1919,#1927,#1929,.T.);
#1927 = VERTEX_POINT('',#1928);
#1928 = CARTESIAN_POINT('',(-4.75,-7.11,1.51));
#1929 = LINE('',#1930,#1931);
#1930 = CARTESIAN_POINT('',(18.75,-7.11,1.51));
#1931 = VECTOR('',#1932,1.);
#1932 = DIRECTION('',(-1.,0.,0.));
#1933 = ORIENTED_EDGE('',*,*,#1934,.F.);
#1934 = EDGE_CURVE('',#1935,#1927,#1937,.T.);
#1935 = VERTEX_POINT('',#1936);
#1936 = CARTESIAN_POINT('',(-4.75,-7.11,0.));
#1937 = LINE('',#1938,#1939);
#1938 = CARTESIAN_POINT('',(-4.75,-7.11,0.));
#1939 = VECTOR('',#1940,1.);
#1940 = DIRECTION('',(0.,0.,1.));
#1941 = ORIENTED_EDGE('',*,*,#1942,.F.);
#1942 = EDGE_CURVE('',#1917,#1935,#1943,.T.);
#1943 = LINE('',#1944,#1945);
#1944 = CARTESIAN_POINT('',(18.75,-7.11,0.));
#1945 = VECTOR('',#1946,1.);
#1946 = DIRECTION('',(-1.,0.,0.));
#1947 = PLANE('',#1948);
#1948 = AXIS2_PLACEMENT_3D('',#1949,#1950,#1951);
#1949 = CARTESIAN_POINT('',(18.75,-7.11,0.));
#1950 = DIRECTION('',(0.,-1.,0.));
#1951 = DIRECTION('',(-1.,0.,0.));
#1952 = ADVANCED_FACE('',(#1953),#1978,.T.);
#1953 = FACE_BOUND('',#1954,.T.);
#1954 = EDGE_LOOP('',(#1955,#1965,#1971,#1972));
#1955 = ORIENTED_EDGE('',*,*,#1956,.T.);
#1956 = EDGE_CURVE('',#1957,#1959,#1961,.T.);
#1957 = VERTEX_POINT('',#1958);
#1958 = CARTESIAN_POINT('',(18.75,6.2,0.));
#1959 = VERTEX_POINT('',#1960);
#1960 = CARTESIAN_POINT('',(18.75,6.2,1.51));
#1961 = LINE('',#1962,#1963);
#1962 = CARTESIAN_POINT('',(18.75,6.2,0.));
#1963 = VECTOR('',#1964,1.);
#1964 = DIRECTION('',(0.,0.,1.));
#1965 = ORIENTED_EDGE('',*,*,#1966,.T.);
#1966 = EDGE_CURVE('',#1959,#1919,#1967,.T.);
#1967 = LINE('',#1968,#1969);
#1968 = CARTESIAN_POINT('',(18.75,6.2,1.51));
#1969 = VECTOR('',#1970,1.);
#1970 = DIRECTION('',(0.,-1.,0.));
#1971 = ORIENTED_EDGE('',*,*,#1916,.F.);
#1972 = ORIENTED_EDGE('',*,*,#1973,.F.);
#1973 = EDGE_CURVE('',#1957,#1917,#1974,.T.);
#1974 = LINE('',#1975,#1976);
#1975 = CARTESIAN_POINT('',(18.75,6.2,0.));
#1976 = VECTOR('',#1977,1.);
#1977 = DIRECTION('',(0.,-1.,0.));
#1978 = PLANE('',#1979);
#1979 = AXIS2_PLACEMENT_3D('',#1980,#1981,#1982);
#1980 = CARTESIAN_POINT('',(18.75,6.2,0.));
#1981 = DIRECTION('',(1.,0.,-0.));
#1982 = DIRECTION('',(0.,-1.,0.));
#1983 = ADVANCED_FACE('',(#1984),#2009,.T.);
#1984 = FACE_BOUND('',#1985,.T.);
#1985 = EDGE_LOOP('',(#1986,#1987,#1995,#2003));
#1986 = ORIENTED_EDGE('',*,*,#1934,.T.);
#1987 = ORIENTED_EDGE('',*,*,#1988,.T.);
#1988 = EDGE_CURVE('',#1927,#1989,#1991,.T.);
#1989 = VERTEX_POINT('',#1990);
#1990 = CARTESIAN_POINT('',(-4.75,6.2,1.51));
#1991 = LINE('',#1992,#1993);
#1992 = CARTESIAN_POINT('',(-4.75,-7.11,1.51));
#1993 = VECTOR('',#1994,1.);
#1994 = DIRECTION('',(0.,1.,0.));
#1995 = ORIENTED_EDGE('',*,*,#1996,.F.);
#1996 = EDGE_CURVE('',#1997,#1989,#1999,.T.);
#1997 = VERTEX_POINT('',#1998);
#1998 = CARTESIAN_POINT('',(-4.75,6.2,0.));
#1999 = LINE('',#2000,#2001);
#2000 = CARTESIAN_POINT('',(-4.75,6.2,0.));
#2001 = VECTOR('',#2002,1.);
#2002 = DIRECTION('',(0.,0.,1.));
#2003 = ORIENTED_EDGE('',*,*,#2004,.F.);
#2004 = EDGE_CURVE('',#1935,#1997,#2005,.T.);
#2005 = LINE('',#2006,#2007);
#2006 = CARTESIAN_POINT('',(-4.75,-7.11,0.));
#2007 = VECTOR('',#2008,1.);
#2008 = DIRECTION('',(0.,1.,0.));
#2009 = PLANE('',#2010);
#2010 = AXIS2_PLACEMENT_3D('',#2011,#2012,#2013);
#2011 = CARTESIAN_POINT('',(-4.75,-7.11,0.));
#2012 = DIRECTION('',(-1.,0.,0.));
#2013 = DIRECTION('',(0.,1.,0.));
#2014 = ADVANCED_FACE('',(#2015,#2026,#2037,#2048,#2059,#2070),#2081,.F.
  );
#2015 = FACE_BOUND('',#2016,.F.);
#2016 = EDGE_LOOP('',(#2017,#2018,#2019,#2025));
#2017 = ORIENTED_EDGE('',*,*,#1942,.F.);
#2018 = ORIENTED_EDGE('',*,*,#1973,.F.);
#2019 = ORIENTED_EDGE('',*,*,#2020,.F.);
#2020 = EDGE_CURVE('',#1997,#1957,#2021,.T.);
#2021 = LINE('',#2022,#2023);
#2022 = CARTESIAN_POINT('',(-4.75,6.2,0.));
#2023 = VECTOR('',#2024,1.);
#2024 = DIRECTION('',(1.,0.,0.));
#2025 = ORIENTED_EDGE('',*,*,#2004,.F.);
#2026 = FACE_BOUND('',#2027,.F.);
#2027 = EDGE_LOOP('',(#2028));
#2028 = ORIENTED_EDGE('',*,*,#2029,.T.);
#2029 = EDGE_CURVE('',#2030,#2030,#2032,.T.);
#2030 = VERTEX_POINT('',#2031);
#2031 = CARTESIAN_POINT('',(10.5,-0.65,0.));
#2032 = CIRCLE('',#2033,0.65);
#2033 = AXIS2_PLACEMENT_3D('',#2034,#2035,#2036);
#2034 = CARTESIAN_POINT('',(10.5,-5.551115123126E-16,0.));
#2035 = DIRECTION('',(-0.,0.,-1.));
#2036 = DIRECTION('',(-0.,-1.,0.));
#2037 = FACE_BOUND('',#2038,.F.);
#2038 = EDGE_LOOP('',(#2039));
#2039 = ORIENTED_EDGE('',*,*,#2040,.T.);
#2040 = EDGE_CURVE('',#2041,#2041,#2043,.T.);
#2041 = VERTEX_POINT('',#2042);
#2042 = CARTESIAN_POINT('',(14.,-0.65,0.));
#2043 = CIRCLE('',#2044,0.65);
#2044 = AXIS2_PLACEMENT_3D('',#2045,#2046,#2047);
#2045 = CARTESIAN_POINT('',(14.,-5.551115123126E-16,0.));
#2046 = DIRECTION('',(-0.,0.,-1.));
#2047 = DIRECTION('',(-0.,-1.,0.));
#2048 = FACE_BOUND('',#2049,.F.);
#2049 = EDGE_LOOP('',(#2050));
#2050 = ORIENTED_EDGE('',*,*,#2051,.T.);
#2051 = EDGE_CURVE('',#2052,#2052,#2054,.T.);
#2052 = VERTEX_POINT('',#2053);
#2053 = CARTESIAN_POINT('',(-1.232595164408E-32,-0.65,0.));
#2054 = CIRCLE('',#2055,0.65);
#2055 = AXIS2_PLACEMENT_3D('',#2056,#2057,#2058);
#2056 = CARTESIAN_POINT('',(-5.551115123126E-17,1.110223024625E-16,0.));
#2057 = DIRECTION('',(-0.,0.,-1.));
#2058 = DIRECTION('',(8.540177112501E-17,-1.,-0.));
#2059 = FACE_BOUND('',#2060,.F.);
#2060 = EDGE_LOOP('',(#2061));
#2061 = ORIENTED_EDGE('',*,*,#2062,.T.);
#2062 = EDGE_CURVE('',#2063,#2063,#2065,.T.);
#2063 = VERTEX_POINT('',#2064);
#2064 = CARTESIAN_POINT('',(3.5,-0.65,0.));
#2065 = CIRCLE('',#2066,0.65);
#2066 = AXIS2_PLACEMENT_3D('',#2067,#2068,#2069);
#2067 = CARTESIAN_POINT('',(3.5,2.498001805407E-16,0.));
#2068 = DIRECTION('',(-0.,0.,-1.));
#2069 = DIRECTION('',(-0.,-1.,0.));
#2070 = FACE_BOUND('',#2071,.F.);
#2071 = EDGE_LOOP('',(#2072));
#2072 = ORIENTED_EDGE('',*,*,#2073,.T.);
#2073 = EDGE_CURVE('',#2074,#2074,#2076,.T.);
#2074 = VERTEX_POINT('',#2075);
#2075 = CARTESIAN_POINT('',(7.,-0.65,0.));
#2076 = CIRCLE('',#2077,0.65);
#2077 = AXIS2_PLACEMENT_3D('',#2078,#2079,#2080);
#2078 = CARTESIAN_POINT('',(7.,2.498001805407E-16,0.));
#2079 = DIRECTION('',(-0.,0.,-1.));
#2080 = DIRECTION('',(-0.,-1.,0.));
#2081 = PLANE('',#2082);
#2082 = AXIS2_PLACEMENT_3D('',#2083,#2084,#2085);
#2083 = CARTESIAN_POINT('',(0.,0.,0.));
#2084 = DIRECTION('',(0.,0.,1.));
#2085 = DIRECTION('',(1.,0.,-0.));
#2086 = ADVANCED_FACE('',(#2087,#2098,#2109,#2120,#2131,#2142),#2153,.T.
  );
#2087 = FACE_BOUND('',#2088,.T.);
#2088 = EDGE_LOOP('',(#2089,#2090,#2091,#2097));
#2089 = ORIENTED_EDGE('',*,*,#1926,.F.);
#2090 = ORIENTED_EDGE('',*,*,#1966,.F.);
#2091 = ORIENTED_EDGE('',*,*,#2092,.F.);
#2092 = EDGE_CURVE('',#1989,#1959,#2093,.T.);
#2093 = LINE('',#2094,#2095);
#2094 = CARTESIAN_POINT('',(-4.75,6.2,1.51));
#2095 = VECTOR('',#2096,1.);
#2096 = DIRECTION('',(1.,0.,0.));
#2097 = ORIENTED_EDGE('',*,*,#1988,.F.);
#2098 = FACE_BOUND('',#2099,.T.);
#2099 = EDGE_LOOP('',(#2100));
#2100 = ORIENTED_EDGE('',*,*,#2101,.T.);
#2101 = EDGE_CURVE('',#2102,#2102,#2104,.T.);
#2102 = VERTEX_POINT('',#2103);
#2103 = CARTESIAN_POINT('',(10.5,-0.65,1.51));
#2104 = CIRCLE('',#2105,0.65);
#2105 = AXIS2_PLACEMENT_3D('',#2106,#2107,#2108);
#2106 = CARTESIAN_POINT('',(10.5,-5.551115123126E-16,1.51));
#2107 = DIRECTION('',(-0.,0.,-1.));
#2108 = DIRECTION('',(-0.,-1.,0.));
#2109 = FACE_BOUND('',#2110,.T.);
#2110 = EDGE_LOOP('',(#2111));
#2111 = ORIENTED_EDGE('',*,*,#2112,.T.);
#2112 = EDGE_CURVE('',#2113,#2113,#2115,.T.);
#2113 = VERTEX_POINT('',#2114);
#2114 = CARTESIAN_POINT('',(14.,-0.65,1.51));
#2115 = CIRCLE('',#2116,0.65);
#2116 = AXIS2_PLACEMENT_3D('',#2117,#2118,#2119);
#2117 = CARTESIAN_POINT('',(14.,-5.551115123126E-16,1.51));
#2118 = DIRECTION('',(-0.,0.,-1.));
#2119 = DIRECTION('',(-0.,-1.,0.));
#2120 = FACE_BOUND('',#2121,.T.);
#2121 = EDGE_LOOP('',(#2122));
#2122 = ORIENTED_EDGE('',*,*,#2123,.T.);
#2123 = EDGE_CURVE('',#2124,#2124,#2126,.T.);
#2124 = VERTEX_POINT('',#2125);
#2125 = CARTESIAN_POINT('',(-1.232595164408E-32,-0.65,1.51));
#2126 = CIRCLE('',#2127,0.65);
#2127 = AXIS2_PLACEMENT_3D('',#2128,#2129,#2130);
#2128 = CARTESIAN_POINT('',(-5.551115123126E-17,1.110223024625E-16,1.51)
  );
#2129 = DIRECTION('',(-0.,0.,-1.));
#2130 = DIRECTION('',(8.540177112501E-17,-1.,-0.));
#2131 = FACE_BOUND('',#2132,.T.);
#2132 = EDGE_LOOP('',(#2133));
#2133 = ORIENTED_EDGE('',*,*,#2134,.T.);
#2134 = EDGE_CURVE('',#2135,#2135,#2137,.T.);
#2135 = VERTEX_POINT('',#2136);
#2136 = CARTESIAN_POINT('',(3.5,-0.65,1.51));
#2137 = CIRCLE('',#2138,0.65);
#2138 = AXIS2_PLACEMENT_3D('',#2139,#2140,#2141);
#2139 = CARTESIAN_POINT('',(3.5,2.498001805407E-16,1.51));
#2140 = DIRECTION('',(-0.,0.,-1.));
#2141 = DIRECTION('',(-0.,-1.,0.));
#2142 = FACE_BOUND('',#2143,.T.);
#2143 = EDGE_LOOP('',(#2144));
#2144 = ORIENTED_EDGE('',*,*,#2145,.T.);
#2145 = EDGE_CURVE('',#2146,#2146,#2148,.T.);
#2146 = VERTEX_POINT('',#2147);
#2147 = CARTESIAN_POINT('',(7.,-0.65,1.51));
#2148 = CIRCLE('',#2149,0.65);
#2149 = AXIS2_PLACEMENT_3D('',#2150,#2151,#2152);
#2150 = CARTESIAN_POINT('',(7.,2.498001805407E-16,1.51));
#2151 = DIRECTION('',(-0.,0.,-1.));
#2152 = DIRECTION('',(-0.,-1.,0.));
#2153 = PLANE('',#2154);
#2154 = AXIS2_PLACEMENT_3D('',#2155,#2156,#2157);
#2155 = CARTESIAN_POINT('',(0.,0.,1.51));
#2156 = DIRECTION('',(0.,0.,1.));
#2157 = DIRECTION('',(1.,0.,-0.));
#2158 = ADVANCED_FACE('',(#2159),#2165,.T.);
#2159 = FACE_BOUND('',#2160,.T.);
#2160 = EDGE_LOOP('',(#2161,#2162,#2163,#2164));
#2161 = ORIENTED_EDGE('',*,*,#1996,.T.);
#2162 = ORIENTED_EDGE('',*,*,#2092,.T.);
#2163 = ORIENTED_EDGE('',*,*,#1956,.F.);
#2164 = ORIENTED_EDGE('',*,*,#2020,.F.);
#2165 = PLANE('',#2166);
#2166 = AXIS2_PLACEMENT_3D('',#2167,#2168,#2169);
#2167 = CARTESIAN_POINT('',(-4.75,6.2,0.));
#2168 = DIRECTION('',(0.,1.,0.));
#2169 = DIRECTION('',(1.,0.,0.));
#2170 = ADVANCED_FACE('',(#2171),#2182,.F.);
#2171 = FACE_BOUND('',#2172,.T.);
#2172 = EDGE_LOOP('',(#2173,#2174,#2180,#2181));
#2173 = ORIENTED_EDGE('',*,*,#2029,.T.);
#2174 = ORIENTED_EDGE('',*,*,#2175,.T.);
#2175 = EDGE_CURVE('',#2030,#2102,#2176,.T.);
#2176 = LINE('',#2177,#2178);
#2177 = CARTESIAN_POINT('',(10.5,-0.65,-4.6E-02));
#2178 = VECTOR('',#2179,1.);
#2179 = DIRECTION('',(0.,0.,1.));
#2180 = ORIENTED_EDGE('',*,*,#2101,.F.);
#2181 = ORIENTED_EDGE('',*,*,#2175,.F.);
#2182 = CYLINDRICAL_SURFACE('',#2183,0.65);
#2183 = AXIS2_PLACEMENT_3D('',#2184,#2185,#2186);
#2184 = CARTESIAN_POINT('',(10.5,-5.551115123126E-16,-4.6E-02));
#2185 = DIRECTION('',(-0.,-0.,-1.));
#2186 = DIRECTION('',(-0.,-1.,0.));
#2187 = ADVANCED_FACE('',(#2188),#2199,.F.);
#2188 = FACE_BOUND('',#2189,.T.);
#2189 = EDGE_LOOP('',(#2190,#2191,#2197,#2198));
#2190 = ORIENTED_EDGE('',*,*,#2040,.T.);
#2191 = ORIENTED_EDGE('',*,*,#2192,.T.);
#2192 = EDGE_CURVE('',#2041,#2113,#2193,.T.);
#2193 = LINE('',#2194,#2195);
#2194 = CARTESIAN_POINT('',(14.,-0.65,-4.6E-02));
#2195 = VECTOR('',#2196,1.);
#2196 = DIRECTION('',(0.,0.,1.));
#2197 = ORIENTED_EDGE('',*,*,#2112,.F.);
#2198 = ORIENTED_EDGE('',*,*,#2192,.F.);
#2199 = CYLINDRICAL_SURFACE('',#2200,0.65);
#2200 = AXIS2_PLACEMENT_3D('',#2201,#2202,#2203);
#2201 = CARTESIAN_POINT('',(14.,-5.551115123126E-16,-4.6E-02));
#2202 = DIRECTION('',(-0.,-0.,-1.));
#2203 = DIRECTION('',(-0.,-1.,0.));
#2204 = ADVANCED_FACE('',(#2205),#2216,.F.);
#2205 = FACE_BOUND('',#2206,.T.);
#2206 = EDGE_LOOP('',(#2207,#2208,#2214,#2215));
#2207 = ORIENTED_EDGE('',*,*,#2051,.T.);
#2208 = ORIENTED_EDGE('',*,*,#2209,.T.);
#2209 = EDGE_CURVE('',#2052,#2124,#2210,.T.);
#2210 = LINE('',#2211,#2212);
#2211 = CARTESIAN_POINT('',(-1.232595164408E-32,-0.65,-4.6E-02));
#2212 = VECTOR('',#2213,1.);
#2213 = DIRECTION('',(0.,0.,1.));
#2214 = ORIENTED_EDGE('',*,*,#2123,.F.);
#2215 = ORIENTED_EDGE('',*,*,#2209,.F.);
#2216 = CYLINDRICAL_SURFACE('',#2217,0.65);
#2217 = AXIS2_PLACEMENT_3D('',#2218,#2219,#2220);
#2218 = CARTESIAN_POINT('',(-5.551115123126E-17,1.110223024625E-16,
    -4.6E-02));
#2219 = DIRECTION('',(-0.,0.,-1.));
#2220 = DIRECTION('',(8.540177112501E-17,-1.,-0.));
#2221 = ADVANCED_FACE('',(#2222),#2233,.F.);
#2222 = FACE_BOUND('',#2223,.T.);
#2223 = EDGE_LOOP('',(#2224,#2225,#2231,#2232));
#2224 = ORIENTED_EDGE('',*,*,#2062,.T.);
#2225 = ORIENTED_EDGE('',*,*,#2226,.T.);
#2226 = EDGE_CURVE('',#2063,#2135,#2227,.T.);
#2227 = LINE('',#2228,#2229);
#2228 = CARTESIAN_POINT('',(3.5,-0.65,-4.6E-02));
#2229 = VECTOR('',#2230,1.);
#2230 = DIRECTION('',(0.,0.,1.));
#2231 = ORIENTED_EDGE('',*,*,#2134,.F.);
#2232 = ORIENTED_EDGE('',*,*,#2226,.F.);
#2233 = CYLINDRICAL_SURFACE('',#2234,0.65);
#2234 = AXIS2_PLACEMENT_3D('',#2235,#2236,#2237);
#2235 = CARTESIAN_POINT('',(3.5,2.498001805407E-16,-4.6E-02));
#2236 = DIRECTION('',(-0.,-0.,-1.));
#2237 = DIRECTION('',(-0.,-1.,0.));
#2238 = ADVANCED_FACE('',(#2239),#2250,.F.);
#2239 = FACE_BOUND('',#2240,.T.);
#2240 = EDGE_LOOP('',(#2241,#2242,#2248,#2249));
#2241 = ORIENTED_EDGE('',*,*,#2073,.T.);
#2242 = ORIENTED_EDGE('',*,*,#2243,.T.);
#2243 = EDGE_CURVE('',#2074,#2146,#2244,.T.);
#2244 = LINE('',#2245,#2246);
#2245 = CARTESIAN_POINT('',(7.,-0.65,-4.6E-02));
#2246 = VECTOR('',#2247,1.);
#2247 = DIRECTION('',(0.,0.,1.));
#2248 = ORIENTED_EDGE('',*,*,#2145,.F.);
#2249 = ORIENTED_EDGE('',*,*,#2243,.F.);
#2250 = CYLINDRICAL_SURFACE('',#2251,0.65);
#2251 = AXIS2_PLACEMENT_3D('',#2252,#2253,#2254);
#2252 = CARTESIAN_POINT('',(7.,2.498001805407E-16,-4.6E-02));
#2253 = DIRECTION('',(-0.,-0.,-1.));
#2254 = DIRECTION('',(-0.,-1.,0.));
#2255 = ( GEOMETRIC_REPRESENTATION_CONTEXT(3) 
GLOBAL_UNCERTAINTY_ASSIGNED_CONTEXT((#2259)) 
GLOBAL_UNIT_ASSIGNED_CONTEXT((#2256,#2257,#2258)) REPRESENTATION_CONTEXT
('Context #1','3D Context with UNIT and UNCERTAINTY') );
#2256 = ( LENGTH_UNIT() NAMED_UNIT(*) SI_UNIT(.MILLI.,.METRE.) );
#2257 = ( NAMED_UNIT(*) PLANE_ANGLE_UNIT() SI_UNIT($,.RADIAN.) );
#2258 = ( NAMED_UNIT(*) SI_UNIT($,.STERADIAN.) SOLID_ANGLE_UNIT() );
#2259 = UNCERTAINTY_MEASURE_WITH_UNIT(LENGTH_MEASURE(1.E-07),#2256,
  'distance_accuracy_value','confusion accuracy');
#2260 = CONTEXT_DEPENDENT_SHAPE_REPRESENTATION(#2261,#2263);
#2261 = ( REPRESENTATION_RELATIONSHIP('','',#1909,#10) 
REPRESENTATION_RELATIONSHIP_WITH_TRANSFORMATION(#2262) 
SHAPE_REPRESENTATION_RELATIONSHIP() );
#2262 = ITEM_DEFINED_TRANSFORMATION('','',#11,#19);
#2263 = PRODUCT_DEFINITION_SHAPE('Placement','Placement of an item',
  #2264);
#2264 = NEXT_ASSEMBLY_USAGE_OCCURRENCE('2','=>[0:1:1:3]','',#5,#1904,$);
#2265 = PRODUCT_RELATED_PRODUCT_CATEGORY('part',$,(#1906));
#2266 = MECHANICAL_DESIGN_GEOMETRIC_PRESENTATION_REPRESENTATION('',(
    #2267),#2255);
#2267 = STYLED_ITEM('color',(#2268),#1910);
#2268 = PRESENTATION_STYLE_ASSIGNMENT((#2269));
#2269 = SURFACE_STYLE_USAGE(.BOTH.,#2270);
#2270 = SURFACE_SIDE_STYLE('',(#2271));
#2271 = SURFACE_STYLE_FILL_AREA(#2272);
#2272 = FILL_AREA_STYLE('',(#2273));
#2273 = FILL_AREA_STYLE_COLOUR('',#2274);
#2274 = COLOUR_RGB('',0.313304153717,0.484529207832,0.410020903123);
#2275 = MECHANICAL_DESIGN_GEOMETRIC_PRESENTATION_REPRESENTATION('',(
    #2276,#2284,#2291,#2298,#2305,#2312,#2319,#2326,#2333,#2340,#2347,
    #2354,#2361,#2368,#2375),#1891);
#2276 = STYLED_ITEM('color',(#2277),#37);
#2277 = PRESENTATION_STYLE_ASSIGNMENT((#2278));
#2278 = SURFACE_STYLE_USAGE(.BOTH.,#2279);
#2279 = SURFACE_SIDE_STYLE('',(#2280));
#2280 = SURFACE_STYLE_FILL_AREA(#2281);
#2281 = FILL_AREA_STYLE('',(#2282));
#2282 = FILL_AREA_STYLE_COLOUR('',#2283);
#2283 = COLOUR_RGB('',0.735356983052,0.735356983052,0.735356983052);
#2284 = STYLED_ITEM('color',(#2285),#366);
#2285 = PRESENTATION_STYLE_ASSIGNMENT((#2286));
#2286 = SURFACE_STYLE_USAGE(.BOTH.,#2287);
#2287 = SURFACE_SIDE_STYLE('',(#2288));
#2288 = SURFACE_STYLE_FILL_AREA(#2289);
#2289 = FILL_AREA_STYLE('',(#2290));
#2290 = FILL_AREA_STYLE_COLOUR('',#2283);
#2291 = STYLED_ITEM('color',(#2292),#695);
#2292 = PRESENTATION_STYLE_ASSIGNMENT((#2293));
#2293 = SURFACE_STYLE_USAGE(.BOTH.,#2294);
#2294 = SURFACE_SIDE_STYLE('',(#2295));
#2295 = SURFACE_STYLE_FILL_AREA(#2296);
#2296 = FILL_AREA_STYLE('',(#2297));
#2297 = FILL_AREA_STYLE_COLOUR('',#2283);
#2298 = STYLED_ITEM('color',(#2299),#787);
#2299 = PRESENTATION_STYLE_ASSIGNMENT((#2300));
#2300 = SURFACE_STYLE_USAGE(.BOTH.,#2301);
#2301 = SURFACE_SIDE_STYLE('',(#2302));
#2302 = SURFACE_STYLE_FILL_AREA(#2303);
#2303 = FILL_AREA_STYLE('',(#2304));
#2304 = FILL_AREA_STYLE_COLOUR('',#2283);
#2305 = STYLED_ITEM('color',(#2306),#879);
#2306 = PRESENTATION_STYLE_ASSIGNMENT((#2307));
#2307 = SURFACE_STYLE_USAGE(.BOTH.,#2308);
#2308 = SURFACE_SIDE_STYLE('',(#2309));
#2309 = SURFACE_STYLE_FILL_AREA(#2310);
#2310 = FILL_AREA_STYLE('',(#2311));
#2311 = FILL_AREA_STYLE_COLOUR('',#2283);
#2312 = STYLED_ITEM('color',(#2313),#971);
#2313 = PRESENTATION_STYLE_ASSIGNMENT((#2314));
#2314 = SURFACE_STYLE_USAGE(.BOTH.,#2315);
#2315 = SURFACE_SIDE_STYLE('',(#2316));
#2316 = SURFACE_STYLE_FILL_AREA(#2317);
#2317 = FILL_AREA_STYLE('',(#2318));
#2318 = FILL_AREA_STYLE_COLOUR('',#2283);
#2319 = STYLED_ITEM('color',(#2320),#1063);
#2320 = PRESENTATION_STYLE_ASSIGNMENT((#2321));
#2321 = SURFACE_STYLE_USAGE(.BOTH.,#2322);
#2322 = SURFACE_SIDE_STYLE('',(#2323));
#2323 = SURFACE_STYLE_FILL_AREA(#2324);
#2324 = FILL_AREA_STYLE('',(#2325));
#2325 = FILL_AREA_STYLE_COLOUR('',#2283);
#2326 = STYLED_ITEM('color',(#2327),#1155);
#2327 = PRESENTATION_STYLE_ASSIGNMENT((#2328));
#2328 = SURFACE_STYLE_USAGE(.BOTH.,#2329);
#2329 = SURFACE_SIDE_STYLE('',(#2330));
#2330 = SURFACE_STYLE_FILL_AREA(#2331);
#2331 = FILL_AREA_STYLE('',(#2332));
#2332 = FILL_AREA_STYLE_COLOUR('',#2283);
#2333 = STYLED_ITEM('color',(#2334),#1247);
#2334 = PRESENTATION_STYLE_ASSIGNMENT((#2335));
#2335 = SURFACE_STYLE_USAGE(.BOTH.,#2336);
#2336 = SURFACE_SIDE_STYLE('',(#2337));
#2337 = SURFACE_STYLE_FILL_AREA(#2338);
#2338 = FILL_AREA_STYLE('',(#2339));
#2339 = FILL_AREA_STYLE_COLOUR('',#2283);
#2340 = STYLED_ITEM('color',(#2341),#1339);
#2341 = PRESENTATION_STYLE_ASSIGNMENT((#2342));
#2342 = SURFACE_STYLE_USAGE(.BOTH.,#2343);
#2343 = SURFACE_SIDE_STYLE('',(#2344));
#2344 = SURFACE_STYLE_FILL_AREA(#2345);
#2345 = FILL_AREA_STYLE('',(#2346));
#2346 = FILL_AREA_STYLE_COLOUR('',#2283);
#2347 = STYLED_ITEM('color',(#2348),#1431);
#2348 = PRESENTATION_STYLE_ASSIGNMENT((#2349));
#2349 = SURFACE_STYLE_USAGE(.BOTH.,#2350);
#2350 = SURFACE_SIDE_STYLE('',(#2351));
#2351 = SURFACE_STYLE_FILL_AREA(#2352);
#2352 = FILL_AREA_STYLE('',(#2353));
#2353 = FILL_AREA_STYLE_COLOUR('',#2283);
#2354 = STYLED_ITEM('color',(#2355),#1523);
#2355 = PRESENTATION_STYLE_ASSIGNMENT((#2356));
#2356 = SURFACE_STYLE_USAGE(.BOTH.,#2357);
#2357 = SURFACE_SIDE_STYLE('',(#2358));
#2358 = SURFACE_STYLE_FILL_AREA(#2359);
#2359 = FILL_AREA_STYLE('',(#2360));
#2360 = FILL_AREA_STYLE_COLOUR('',#2283);
#2361 = STYLED_ITEM('color',(#2362),#1615);
#2362 = PRESENTATION_STYLE_ASSIGNMENT((#2363));
#2363 = SURFACE_STYLE_USAGE(.BOTH.,#2364);
#2364 = SURFACE_SIDE_STYLE('',(#2365));
#2365 = SURFACE_STYLE_FILL_AREA(#2366);
#2366 = FILL_AREA_STYLE('',(#2367));
#2367 = FILL_AREA_STYLE_COLOUR('',#2283);
#2368 = STYLED_ITEM('color',(#2369),#1707);
#2369 = PRESENTATION_STYLE_ASSIGNMENT((#2370));
#2370 = SURFACE_STYLE_USAGE(.BOTH.,#2371);
#2371 = SURFACE_SIDE_STYLE('',(#2372));
#2372 = SURFACE_STYLE_FILL_AREA(#2373);
#2373 = FILL_AREA_STYLE('',(#2374));
#2374 = FILL_AREA_STYLE_COLOUR('',#2283);
#2375 = STYLED_ITEM('color',(#2376),#1799);
#2376 = PRESENTATION_STYLE_ASSIGNMENT((#2377));
#2377 = SURFACE_STYLE_USAGE(.BOTH.,#2378);
#2378 = SURFACE_SIDE_STYLE('',(#2379));
#2379 = SURFACE_STYLE_FILL_AREA(#2380);
#2380 = FILL_AREA_STYLE('',(#2381));
#2381 = FILL_AREA_STYLE_COLOUR('',#2283);
ENDSEC;
END-ISO-10303-21;
