<?xml version="1.0" standalone="no"?>
 <!DOCTYPE svg PUBLIC "-//W3C//DTD SVG 1.1//EN" 
 "http://www.w3.org/Graphics/SVG/1.1/DTD/svg11.dtd"> 
<svg
  xmlns:svg="http://www.w3.org/2000/svg"
  xmlns="http://www.w3.org/2000/svg"
  xmlns:xlink="http://www.w3.org/1999/xlink"
  xmlns:inkscape="http://www.inkscape.org/namespaces/inkscape"
  version="1.1"
  width="25.755600mm" height="9.423400mm" viewBox="0.000000 0.000000 25.755600 9.423400">
<title>SVG Image created as electronic_led_3_mm_yellow_clear.svg </title>
  <desc>Image generated by PCBNEW </desc>
<g style="fill:#000000; fill-opacity:1.000000;stroke:#000000; stroke-opacity:1.000000;
stroke-linecap:round; stroke-linejoin:round;"
 transform="translate(0 0) scale(1 1)">
<path style="fill:#4D7FC4; fill-opacity:1.000000; stroke:none;fill-rule:evenodd;"
d="M 10.716907,6.538600
10.716907,4.738600
12.516907,4.738600
12.516907,6.538600
Z" /> 
</g>
<g style="fill:#4D7FC4; fill-opacity:1.000000; stroke:none;">
<circle cx="14.156907" cy="5.638600" r="0.900000" /> 
<path style="fill:#02FFEE; fill-opacity:0.400000; stroke:none;fill-rule:evenodd;"
d="M 10.716907,6.538600
10.716907,4.738600
12.516907,4.738600
12.516907,6.538600
Z" /> 
</g>
<g style="fill:#02FFEE; fill-opacity:0.400000; stroke:none;">
<circle cx="14.156907" cy="5.638600" r="0.900000" /> 
<path style="fill:#F2EDA1; fill-opacity:1.000000; stroke:none;fill-rule:evenodd;"
d="M 10.716907,6.538600
10.716907,4.738600
12.516907,4.738600
12.516907,6.538600
Z" /> 
</g>
<g style="fill:#F2EDA1; fill-opacity:1.000000; stroke:none;">
<circle cx="14.156907" cy="5.638600" r="0.900000" /> 
<path style="fill:#E8B2A7; fill-opacity:1.000000; stroke:none;fill-rule:evenodd;"
d="M 10.716907,6.538600
10.716907,4.738600
12.516907,4.738600
12.516907,6.538600
Z" /> 
</g>
<g style="fill:#E8B2A7; fill-opacity:1.000000; stroke:none;">
<circle cx="14.156907" cy="5.638600" r="0.900000" /> 
<path style="fill:#28CCD9; fill-opacity:1.000000; stroke:none;fill-rule:evenodd;"
d="M 10.716907,6.538600
10.716907,4.738600
12.516907,4.738600
12.516907,6.538600
Z" /> 
</g>
<g style="fill:#28CCD9; fill-opacity:1.000000; stroke:none;">
<circle cx="14.156907" cy="5.638600" r="0.900000" /> 
<path style="fill:#A7A5C6; fill-opacity:1.000000; stroke:none;fill-rule:evenodd;"
d="M 10.716907,6.538600
10.716907,4.738600
12.516907,4.738600
12.516907,6.538600
Z" /> 
</g>
<g style="fill:#A7A5C6; fill-opacity:1.000000; stroke:none;">
<circle cx="14.156907" cy="5.638600" r="0.900000" /> 
<path style="fill:#F76F8E; fill-opacity:1.000000; stroke:none;fill-rule:evenodd;"
d="M 10.716907,6.538600
10.716907,4.738600
12.516907,4.738600
12.516907,6.538600
Z" /> 
</g>
<g style="fill:#F76F8E; fill-opacity:1.000000; stroke:none;">
<circle cx="14.156907" cy="5.638600" r="0.900000" /> 
<path style="fill:#5BC3EB; fill-opacity:1.000000; stroke:none;fill-rule:evenodd;"
d="M 10.716907,6.538600
10.716907,4.738600
12.516907,4.738600
12.516907,6.538600
Z" /> 
</g>
<g style="fill:#5BC3EB; fill-opacity:1.000000; stroke:none;">
<circle cx="14.156907" cy="5.638600" r="0.900000" /> 
<path style="fill:#ED7C33; fill-opacity:1.000000; stroke:none;fill-rule:evenodd;"
d="M 10.716907,6.538600
10.716907,4.738600
12.516907,4.738600
12.516907,6.538600
Z" /> 
</g>
<g style="fill:#ED7C33; fill-opacity:1.000000; stroke:none;">
<circle cx="14.156907" cy="5.638600" r="0.900000" /> 
<path style="fill:#F2EDA1; fill-opacity:1.000000; stroke:none;fill-rule:evenodd;"
d="M 10.716907,6.538600
10.716907,4.738600
12.516907,4.738600
12.516907,6.538600
Z" /> 
</g>
<g style="fill:#F2EDA1; fill-opacity:1.000000; stroke:none;">
<circle cx="14.156907" cy="5.638600" r="0.900000" /> 
<path style="fill:#E8B2A7; fill-opacity:1.000000; stroke:none;fill-rule:evenodd;"
d="M 10.716907,6.538600
10.716907,4.738600
12.516907,4.738600
12.516907,6.538600
Z" /> 
</g>
<g style="fill:#E8B2A7; fill-opacity:1.000000; stroke:none;">
<circle cx="14.156907" cy="5.638600" r="0.900000" /> 
<path style="fill:#28CCD9; fill-opacity:1.000000; stroke:none;fill-rule:evenodd;"
d="M 10.716907,6.538600
10.716907,4.738600
12.516907,4.738600
12.516907,6.538600
Z" /> 
</g>
<g style="fill:#28CCD9; fill-opacity:1.000000; stroke:none;">
<circle cx="14.156907" cy="5.638600" r="0.900000" /> 
<path style="fill:#A7A5C6; fill-opacity:1.000000; stroke:none;fill-rule:evenodd;"
d="M 10.716907,6.538600
10.716907,4.738600
12.516907,4.738600
12.516907,6.538600
Z" /> 
</g>
<g style="fill:#A7A5C6; fill-opacity:1.000000; stroke:none;">
<circle cx="14.156907" cy="5.638600" r="0.900000" /> 
<path style="fill:#F76F8E; fill-opacity:1.000000; stroke:none;fill-rule:evenodd;"
d="M 10.716907,6.538600
10.716907,4.738600
12.516907,4.738600
12.516907,6.538600
Z" /> 
</g>
<g style="fill:#F76F8E; fill-opacity:1.000000; stroke:none;">
<circle cx="14.156907" cy="5.638600" r="0.900000" /> 
<path style="fill:#5BC3EB; fill-opacity:1.000000; stroke:none;fill-rule:evenodd;"
d="M 10.716907,6.538600
10.716907,4.738600
12.516907,4.738600
12.516907,6.538600
Z" /> 
</g>
<g style="fill:#5BC3EB; fill-opacity:1.000000; stroke:none;">
<circle cx="14.156907" cy="5.638600" r="0.900000" /> 
<path style="fill:#ED7C33; fill-opacity:1.000000; stroke:none;fill-rule:evenodd;"
d="M 10.716907,6.538600
10.716907,4.738600
12.516907,4.738600
12.516907,6.538600
Z" /> 
</g>
<g style="fill:#ED7C33; fill-opacity:1.000000; stroke:none;">
<circle cx="14.156907" cy="5.638600" r="0.900000" /> 
<path style="fill:#F2EDA1; fill-opacity:1.000000; stroke:none;fill-rule:evenodd;"
d="M 10.716907,6.538600
10.716907,4.738600
12.516907,4.738600
12.516907,6.538600
Z" /> 
</g>
<g style="fill:#F2EDA1; fill-opacity:1.000000; stroke:none;">
<circle cx="14.156907" cy="5.638600" r="0.900000" /> 
<path style="fill:#E8B2A7; fill-opacity:1.000000; stroke:none;fill-rule:evenodd;"
d="M 10.716907,6.538600
10.716907,4.738600
12.516907,4.738600
12.516907,6.538600
Z" /> 
</g>
<g style="fill:#E8B2A7; fill-opacity:1.000000; stroke:none;">
<circle cx="14.156907" cy="5.638600" r="0.900000" /> 
<path style="fill:#28CCD9; fill-opacity:1.000000; stroke:none;fill-rule:evenodd;"
d="M 10.716907,6.538600
10.716907,4.738600
12.516907,4.738600
12.516907,6.538600
Z" /> 
</g>
<g style="fill:#28CCD9; fill-opacity:1.000000; stroke:none;">
<circle cx="14.156907" cy="5.638600" r="0.900000" /> 
<path style="fill:#A7A5C6; fill-opacity:1.000000; stroke:none;fill-rule:evenodd;"
d="M 10.716907,6.538600
10.716907,4.738600
12.516907,4.738600
12.516907,6.538600
Z" /> 
</g>
<g style="fill:#A7A5C6; fill-opacity:1.000000; stroke:none;">
<circle cx="14.156907" cy="5.638600" r="0.900000" /> 
<path style="fill:#F76F8E; fill-opacity:1.000000; stroke:none;fill-rule:evenodd;"
d="M 10.716907,6.538600
10.716907,4.738600
12.516907,4.738600
12.516907,6.538600
Z" /> 
</g>
<g style="fill:#F76F8E; fill-opacity:1.000000; stroke:none;">
<circle cx="14.156907" cy="5.638600" r="0.900000" /> 
<path style="fill:#5BC3EB; fill-opacity:1.000000; stroke:none;fill-rule:evenodd;"
d="M 10.716907,6.538600
10.716907,4.738600
12.516907,4.738600
12.516907,6.538600
Z" /> 
</g>
<g style="fill:#5BC3EB; fill-opacity:1.000000; stroke:none;">
<circle cx="14.156907" cy="5.638600" r="0.900000" /> 
<path style="fill:#ED7C33; fill-opacity:1.000000; stroke:none;fill-rule:evenodd;"
d="M 10.716907,6.538600
10.716907,4.738600
12.516907,4.738600
12.516907,6.538600
Z" /> 
</g>
<g style="fill:#ED7C33; fill-opacity:1.000000; stroke:none;">
<circle cx="14.156907" cy="5.638600" r="0.900000" /> 
<path style="fill:#8DCB81; fill-opacity:1.000000; stroke:none;fill-rule:evenodd;"
d="M 10.716907,6.538600
10.716907,4.738600
12.516907,4.738600
12.516907,6.538600
Z" /> 
</g>
<g style="fill:#8DCB81; fill-opacity:1.000000; stroke:none;">
<circle cx="14.156907" cy="5.638600" r="0.900000" /> 
<path style="fill:#F2EDA1; fill-opacity:1.000000; stroke:none;fill-rule:evenodd;"
d="M 10.716907,6.538600
10.716907,4.738600
12.516907,4.738600
12.516907,6.538600
Z" /> 
</g>
<g style="fill:#F2EDA1; fill-opacity:1.000000; stroke:none;">
<circle cx="14.156907" cy="5.638600" r="0.900000" /> 
<path style="fill:#E8B2A7; fill-opacity:1.000000; stroke:none;fill-rule:evenodd;"
d="M 10.716907,6.538600
10.716907,4.738600
12.516907,4.738600
12.516907,6.538600
Z" /> 
</g>
<g style="fill:#E8B2A7; fill-opacity:1.000000; stroke:none;">
<circle cx="14.156907" cy="5.638600" r="0.900000" /> 
<path style="fill:#28CCD9; fill-opacity:1.000000; stroke:none;fill-rule:evenodd;"
d="M 10.716907,6.538600
10.716907,4.738600
12.516907,4.738600
12.516907,6.538600
Z" /> 
</g>
<g style="fill:#28CCD9; fill-opacity:1.000000; stroke:none;">
<circle cx="14.156907" cy="5.638600" r="0.900000" /> 
<path style="fill:#A7A5C6; fill-opacity:1.000000; stroke:none;fill-rule:evenodd;"
d="M 10.716907,6.538600
10.716907,4.738600
12.516907,4.738600
12.516907,6.538600
Z" /> 
</g>
<g style="fill:#A7A5C6; fill-opacity:1.000000; stroke:none;">
<circle cx="14.156907" cy="5.638600" r="0.900000" /> 
<path style="fill:#DB628B; fill-opacity:1.000000; stroke:none;fill-rule:evenodd;"
d="M 10.716907,6.538600
10.716907,4.738600
12.516907,4.738600
12.516907,6.538600
Z" /> 
</g>
<g style="fill:#DB628B; fill-opacity:1.000000; stroke:none;">
<circle cx="14.156907" cy="5.638600" r="0.900000" /> 
<path style="fill:#4FCBCB; fill-opacity:1.000000; stroke:none;fill-rule:evenodd;"
d="M 10.716907,6.538600
10.716907,4.738600
12.516907,4.738600
12.516907,6.538600
Z" /> 
</g>
<g style="fill:#4FCBCB; fill-opacity:1.000000; stroke:none;">
<circle cx="14.156907" cy="5.638600" r="0.900000" /> 
<path style="fill:#CE7D2C; fill-opacity:1.000000; stroke:none;fill-rule:evenodd;"
d="M 10.716907,6.538600
10.716907,4.738600
12.516907,4.738600
12.516907,6.538600
Z" /> 
</g>
<g style="fill:#CE7D2C; fill-opacity:1.000000; stroke:none;">
<circle cx="14.156907" cy="5.638600" r="0.900000" /> 
<path style="fill:#7FC87F; fill-opacity:1.000000; stroke:none;fill-rule:evenodd;"
d="M 10.716907,6.538600
10.716907,4.738600
12.516907,4.738600
12.516907,6.538600
Z" /> 
</g>
<g style="fill:#7FC87F; fill-opacity:1.000000; stroke:none;">
<circle cx="14.156907" cy="5.638600" r="0.900000" /> 
<path style="fill:#C83434; fill-opacity:1.000000; stroke:none;fill-rule:evenodd;"
d="M 10.716907,6.538600
10.716907,4.738600
12.516907,4.738600
12.516907,6.538600
Z" /> 
</g>
<g style="fill:#C83434; fill-opacity:1.000000; stroke:none;">
<circle cx="14.156907" cy="5.638600" r="0.900000" /> 
<path style="fill:#D864FF; fill-opacity:0.400000; stroke:none;fill-rule:evenodd;"
d="M 10.716907,6.538600
10.716907,4.738600
12.516907,4.738600
12.516907,6.538600
Z" /> 
</g>
<g style="fill:#D864FF; fill-opacity:0.400000; stroke:none;">
<circle cx="14.156907" cy="5.638600" r="0.900000" /> 
</g>
<g style="fill:none; 
stroke:#F2EDA1; stroke-width:0.150000; stroke-opacity:1; 
stroke-linecap:round; stroke-linejoin:round;">
<text x="12.886907" y="3.178600"
textLength="4.535715" font-size="1.333333" lengthAdjust="spacingAndGlyphs"
text-anchor="middle" opacity="0" stroke-opacity="0">REF**</text>
<g class="stroked-text"><desc>REF**</desc>
<path d="M11.553574 3.133420
L11.220241 2.657229
" />
<path d="M10.982146 3.133420
L10.982146 2.133420
" />
<path d="M10.982146 2.133420
L11.363098 2.133420
" />
<path d="M11.363098 2.133420
L11.458336 2.181039
" />
<path d="M11.458336 2.181039
L11.505955 2.228658
" />
<path d="M11.505955 2.228658
L11.553574 2.323896
" />
<path d="M11.553574 2.323896
L11.553574 2.466753
" />
<path d="M11.553574 2.466753
L11.505955 2.561991
" />
<path d="M11.505955 2.561991
L11.458336 2.609610
" />
<path d="M11.458336 2.609610
L11.363098 2.657229
" />
<path d="M11.363098 2.657229
L10.982146 2.657229
" />
<path d="M11.982145 2.609610
L12.315478 2.609610
" />
<path d="M12.458335 3.133420
L11.982145 3.133420
" />
<path d="M11.982145 3.133420
L11.982145 2.133420
" />
<path d="M11.982145 2.133420
L12.458335 2.133420
" />
<path d="M13.220240 2.609610
L12.886907 2.609610
" />
<path d="M12.886907 3.133420
L12.886907 2.133420
" />
<path d="M12.886907 2.133420
L13.363097 2.133420
" />
<path d="M13.886907 2.133420
L13.886907 2.371515
" />
<path d="M13.648812 2.276277
L13.886907 2.371515
" />
<path d="M13.886907 2.371515
L14.125002 2.276277
" />
<path d="M13.744050 2.561991
L13.886907 2.371515
" />
<path d="M13.886907 2.371515
L14.029764 2.561991
" />
<path d="M14.648812 2.133420
L14.648812 2.371515
" />
<path d="M14.410717 2.276277
L14.648812 2.371515
" />
<path d="M14.648812 2.371515
L14.886907 2.276277
" />
<path d="M14.505955 2.561991
L14.648812 2.371515
" />
<path d="M14.648812 2.371515
L14.791669 2.561991
" />
</g></g>
<g style="fill:none; 
stroke:#F2EDA1; stroke-width:0.120000; stroke-opacity:1; 
stroke-linecap:round; stroke-linejoin:round;">
<text x="11.616907" y="1.078600"
textLength="3.971429" font-size="1.066666" lengthAdjust="spacingAndGlyphs"
text-anchor="middle" opacity="0" stroke-opacity="0">5YR88</text>
<g class="stroked-text"><desc>5YR88</desc>
<path d="M10.302622 0.242456
L9.921670 0.242456
" />
<path d="M9.921670 0.242456
L9.883574 0.623408
" />
<path d="M9.883574 0.623408
L9.921670 0.585313
" />
<path d="M9.921670 0.585313
L9.997860 0.547218
" />
<path d="M9.997860 0.547218
L10.188336 0.547218
" />
<path d="M10.188336 0.547218
L10.264527 0.585313
" />
<path d="M10.264527 0.585313
L10.302622 0.623408
" />
<path d="M10.302622 0.623408
L10.340717 0.699599
" />
<path d="M10.340717 0.699599
L10.340717 0.890075
" />
<path d="M10.340717 0.890075
L10.302622 0.966265
" />
<path d="M10.302622 0.966265
L10.264527 1.004360
" />
<path d="M10.264527 1.004360
L10.188336 1.042456
" />
<path d="M10.188336 1.042456
L9.997860 1.042456
" />
<path d="M9.997860 1.042456
L9.921670 1.004360
" />
<path d="M9.921670 1.004360
L9.883574 0.966265
" />
<path d="M10.835956 0.661503
L10.835956 1.042456
" />
<path d="M10.569289 0.242456
L10.835956 0.661503
" />
<path d="M10.835956 0.661503
L11.102622 0.242456
" />
<path d="M11.826431 1.042456
L11.559765 0.661503
" />
<path d="M11.369289 1.042456
L11.369289 0.242456
" />
<path d="M11.369289 0.242456
L11.674050 0.242456
" />
<path d="M11.674050 0.242456
L11.750240 0.280551
" />
<path d="M11.750240 0.280551
L11.788335 0.318646
" />
<path d="M11.788335 0.318646
L11.826431 0.394837
" />
<path d="M11.826431 0.394837
L11.826431 0.509122
" />
<path d="M11.826431 0.509122
L11.788335 0.585313
" />
<path d="M11.788335 0.585313
L11.750240 0.623408
" />
<path d="M11.750240 0.623408
L11.674050 0.661503
" />
<path d="M11.674050 0.661503
L11.369289 0.661503
" />
<path d="M12.283573 0.585313
L12.207383 0.547218
" />
<path d="M12.207383 0.547218
L12.169288 0.509122
" />
<path d="M12.169288 0.509122
L12.131192 0.432932
" />
<path d="M12.131192 0.432932
L12.131192 0.394837
" />
<path d="M12.131192 0.394837
L12.169288 0.318646
" />
<path d="M12.169288 0.318646
L12.207383 0.280551
" />
<path d="M12.207383 0.280551
L12.283573 0.242456
" />
<path d="M12.283573 0.242456
L12.435954 0.242456
" />
<path d="M12.435954 0.242456
L12.512145 0.280551
" />
<path d="M12.512145 0.280551
L12.550240 0.318646
" />
<path d="M12.550240 0.318646
L12.588335 0.394837
" />
<path d="M12.588335 0.394837
L12.588335 0.432932
" />
<path d="M12.588335 0.432932
L12.550240 0.509122
" />
<path d="M12.550240 0.509122
L12.512145 0.547218
" />
<path d="M12.512145 0.547218
L12.435954 0.585313
" />
<path d="M12.435954 0.585313
L12.283573 0.585313
" />
<path d="M12.283573 0.585313
L12.207383 0.623408
" />
<path d="M12.207383 0.623408
L12.169288 0.661503
" />
<path d="M12.169288 0.661503
L12.131192 0.737694
" />
<path d="M12.131192 0.737694
L12.131192 0.890075
" />
<path d="M12.131192 0.890075
L12.169288 0.966265
" />
<path d="M12.169288 0.966265
L12.207383 1.004360
" />
<path d="M12.207383 1.004360
L12.283573 1.042456
" />
<path d="M12.283573 1.042456
L12.435954 1.042456
" />
<path d="M12.435954 1.042456
L12.512145 1.004360
" />
<path d="M12.512145 1.004360
L12.550240 0.966265
" />
<path d="M12.550240 0.966265
L12.588335 0.890075
" />
<path d="M12.588335 0.890075
L12.588335 0.737694
" />
<path d="M12.588335 0.737694
L12.550240 0.661503
" />
<path d="M12.550240 0.661503
L12.512145 0.623408
" />
<path d="M12.512145 0.623408
L12.435954 0.585313
" />
<path d="M13.045478 0.585313
L12.969288 0.547218
" />
<path d="M12.969288 0.547218
L12.931193 0.509122
" />
<path d="M12.931193 0.509122
L12.893097 0.432932
" />
<path d="M12.893097 0.432932
L12.893097 0.394837
" />
<path d="M12.893097 0.394837
L12.931193 0.318646
" />
<path d="M12.931193 0.318646
L12.969288 0.280551
" />
<path d="M12.969288 0.280551
L13.045478 0.242456
" />
<path d="M13.045478 0.242456
L13.197859 0.242456
" />
<path d="M13.197859 0.242456
L13.274050 0.280551
" />
<path d="M13.274050 0.280551
L13.312145 0.318646
" />
<path d="M13.312145 0.318646
L13.350240 0.394837
" />
<path d="M13.350240 0.394837
L13.350240 0.432932
" />
<path d="M13.350240 0.432932
L13.312145 0.509122
" />
<path d="M13.312145 0.509122
L13.274050 0.547218
" />
<path d="M13.274050 0.547218
L13.197859 0.585313
" />
<path d="M13.197859 0.585313
L13.045478 0.585313
" />
<path d="M13.045478 0.585313
L12.969288 0.623408
" />
<path d="M12.969288 0.623408
L12.931193 0.661503
" />
<path d="M12.931193 0.661503
L12.893097 0.737694
" />
<path d="M12.893097 0.737694
L12.893097 0.890075
" />
<path d="M12.893097 0.890075
L12.931193 0.966265
" />
<path d="M12.931193 0.966265
L12.969288 1.004360
" />
<path d="M12.969288 1.004360
L13.045478 1.042456
" />
<path d="M13.045478 1.042456
L13.197859 1.042456
" />
<path d="M13.197859 1.042456
L13.274050 1.004360
" />
<path d="M13.274050 1.004360
L13.312145 0.966265
" />
<path d="M13.312145 0.966265
L13.350240 0.890075
" />
<path d="M13.350240 0.890075
L13.350240 0.737694
" />
<path d="M13.350240 0.737694
L13.312145 0.661503
" />
<path d="M13.312145 0.661503
L13.274050 0.623408
" />
<path d="M13.274050 0.623408
L13.197859 0.585313
" />
</g><path d="M11.326907 4.402600
L11.326907 4.558600
" />
<path d="M11.326907 6.718600
L11.326907 6.874600
" />
<path d="M14.558344 4.558600 A1.990000 1.990000 0.0 0 0 11.326907 4.403084" />
<path d="M13.927868 4.558600 A1.500000 1.500000 0.0 0 0 11.845946 4.558600" />
<path d="M11.845946 6.718600 A1.500000 1.500000 0.0 0 0 13.927868 6.718600" />
<path d="M11.326907 6.874116 A1.990000 1.990000 0.0 0 0 14.558344 6.718600" />
<path style="fill:none; 
stroke:#FF26E2; stroke-width:0.050000; stroke-opacity:1; 
stroke-linecap:round; stroke-linejoin:round;fill:none"
d="M 10.466907,3.428600
15.306907,3.428600
15.306907,7.848600
10.466907,7.848600
Z" /> 
</g>
<g style="fill:none; 
stroke:#AFAFAF; stroke-width:0.150000; stroke-opacity:1; 
stroke-linecap:round; stroke-linejoin:round;">
</g>
<g style="fill:none; 
stroke:#AFAFAF; stroke-width:0.120000; stroke-opacity:1; 
stroke-linecap:round; stroke-linejoin:round;">
<text x="12.886907" y="6.038600"
textLength="3.628572" font-size="1.066666" lengthAdjust="spacingAndGlyphs"
text-anchor="middle" opacity="0" stroke-opacity="0">REF**</text>
<g class="stroked-text"><desc>REF**</desc>
<path d="M11.820240 6.002455
L11.553574 5.621503
" />
<path d="M11.363098 6.002455
L11.363098 5.202456
" />
<path d="M11.363098 5.202456
L11.667859 5.202456
" />
<path d="M11.667859 5.202456
L11.744049 5.240551
" />
<path d="M11.744049 5.240551
L11.782144 5.278646
" />
<path d="M11.782144 5.278646
L11.820240 5.354837
" />
<path d="M11.820240 5.354837
L11.820240 5.469122
" />
<path d="M11.820240 5.469122
L11.782144 5.545313
" />
<path d="M11.782144 5.545313
L11.744049 5.583408
" />
<path d="M11.744049 5.583408
L11.667859 5.621503
" />
<path d="M11.667859 5.621503
L11.363098 5.621503
" />
<path d="M12.163097 5.583408
L12.429763 5.583408
" />
<path d="M12.544049 6.002455
L12.163097 6.002455
" />
<path d="M12.163097 6.002455
L12.163097 5.202456
" />
<path d="M12.163097 5.202456
L12.544049 5.202456
" />
<path d="M13.153573 5.583408
L12.886907 5.583408
" />
<path d="M12.886907 6.002455
L12.886907 5.202456
" />
<path d="M12.886907 5.202456
L13.267859 5.202456
" />
<path d="M13.686906 5.202456
L13.686906 5.392932
" />
<path d="M13.496430 5.316741
L13.686906 5.392932
" />
<path d="M13.686906 5.392932
L13.877383 5.316741
" />
<path d="M13.572621 5.545313
L13.686906 5.392932
" />
<path d="M13.686906 5.392932
L13.801192 5.545313
" />
<path d="M14.296430 5.202456
L14.296430 5.392932
" />
<path d="M14.105954 5.316741
L14.296430 5.392932
" />
<path d="M14.296430 5.392932
L14.486907 5.316741
" />
<path d="M14.182145 5.545313
L14.296430 5.392932
" />
<path d="M14.296430 5.392932
L14.410716 5.545313
" />
</g></g>
<g style="fill:none; 
stroke:#AFAFAF; stroke-width:0.100000; stroke-opacity:1; 
stroke-linecap:round; stroke-linejoin:round;">
<path d="M11.386907 4.472410
L11.386907 6.804790
" />
<path d="M11.386907 6.804790 A1.900000 1.900000 0.0 1 0 11.386907 4.472410" />
<circle cx="12.886907" cy="5.638600" r="1.500000" /> 
</g>
<g style="fill:#FFFFFF; fill-opacity:1.000000; stroke:none;">
<circle cx="11.616907" cy="5.638600" r="0.450000" /> 
</g>
<g style="fill:#FFFFFF; fill-opacity:1.000000; stroke:none;">
<circle cx="14.156907" cy="5.638600" r="0.450000" /> 
</g> 
</svg>
