M48
; DRILL file KiCad 10.99.0-3671-gbe90a7e200 date 2026-09-09T23:11:43
; FORMAT={-:-/ absolute / metric / decimal}
; #@! TF.CreationDate,2026-09-09T23:11:43+01:00
; #@! TF.GenerationSoftware,Kicad,Pcbnew,10.99.0-3671-gbe90a7e200
; #@! TF.FileFunction,Plated,1,2,PTH
FMAT,2
METRIC
; #@! TA.AperFunction,Plated,PTH,ViaDrill
T1C0.500
; #@! TA.AperFunction,Plated,PTH,ComponentDrill
T2C1.000
; #@! TA.AperFunction,Plated,PTH,ComponentDrill
T3C2.200
%
G90
G05
T1
X4.572Y6.731
X6.35Y5.207
X6.604Y10.287
X8.89Y9.652
X8.89Y4.191
X9.652Y6.731
X11.557Y8.763
X13.335Y4.191
X13.462Y9.017
X14.097Y5.969
X15.113Y10.668
T2
X1.27Y2.54
X3.81Y2.54
X6.35Y2.54
X8.89Y2.54
X11.43Y2.54
X13.97Y2.54
X16.51Y2.54
T3
X2.54Y13.97
X15.24Y13.97
M30
