%TF.GenerationSoftware,KiCad,Pcbnew,10.99.0-3758-g2f18d95be7*%
%TF.CreationDate,2026-09-21T17:09:31+01:00*%
%TF.ProjectId,kicad_file,6b696361-645f-4666-996c-652e6b696361,rev?*%
%TF.SameCoordinates,Original*%
%TF.FileFunction,Copper,L2,Bot*%
%TF.FilePolarity,Positive*%
%FSLAX46Y46*%
G04 Gerber Fmt 4.6, Leading zero omitted, Abs format (unit mm)*
G04 Created by KiCad (PCBNEW 10.99.0-3758-g2f18d95be7) date 2026-09-21 17:09:31*
%MOMM*%
%LPD*%
G01*
G04 APERTURE LIST*
G04 Aperture macros list*
%AMOutline5P*
0 Free polygon, 5 corners , with rotation*
0 The origin of the aperture is its center*
0 number of corners: always 5*
0 $1 to $10 corner X, Y*
0 $11 Rotation angle, in degrees counterclockwise*
0 create outline with 5 corners*
4,1,5,$1,$2,$3,$4,$5,$6,$7,$8,$9,$10,$1,$2,$11*%
%AMOutline6P*
0 Free polygon, 6 corners , with rotation*
0 The origin of the aperture is its center*
0 number of corners: always 6*
0 $1 to $12 corner X, Y*
0 $13 Rotation angle, in degrees counterclockwise*
0 create outline with 6 corners*
4,1,6,$1,$2,$3,$4,$5,$6,$7,$8,$9,$10,$11,$12,$1,$2,$13*%
%AMOutline7P*
0 Free polygon, 7 corners , with rotation*
0 The origin of the aperture is its center*
0 number of corners: always 7*
0 $1 to $14 corner X, Y*
0 $15 Rotation angle, in degrees counterclockwise*
0 create outline with 7 corners*
4,1,7,$1,$2,$3,$4,$5,$6,$7,$8,$9,$10,$11,$12,$13,$14,$1,$2,$15*%
%AMOutline8P*
0 Free polygon, 8 corners , with rotation*
0 The origin of the aperture is its center*
0 number of corners: always 8*
0 $1 to $16 corner X, Y*
0 $17 Rotation angle, in degrees counterclockwise*
0 create outline with 8 corners*
4,1,8,$1,$2,$3,$4,$5,$6,$7,$8,$9,$10,$11,$12,$13,$14,$15,$16,$1,$2,$17*%
G04 Aperture macros list end*
%TA.AperFunction,ComponentPad*%
%ADD10O,1.524000X3.048000*%
%TD*%
%TA.AperFunction,ComponentPad*%
%ADD11O,3.048000X1.524000*%
%TD*%
%TA.AperFunction,ComponentPad*%
%ADD12Outline8P,-0.762000X0.315631X-0.315631X0.762000X0.315631X0.762000X0.762000X0.315631X0.762000X-0.315631X0.315631X-0.762000X-0.315631X-0.762000X-0.762000X-0.315631X0.000000*%
%TD*%
%TA.AperFunction,ViaPad*%
%ADD13C,0.914400*%
%TD*%
%TA.AperFunction,Conductor*%
%ADD14C,0.304800*%
%TD*%
G04 APERTURE END LIST*
D10*
%TO.P,X0,1*%
%TO.N,N$6*%
X67739400Y33748800D03*
%TO.P,X0,2*%
%TO.N,N/C*%
X67739400Y40251200D03*
%TO.P,X0,3*%
%TO.N,GND*%
X72260600Y33748800D03*
%TO.P,X0,4*%
%TO.N,N/C*%
X72260600Y40251200D03*
%TD*%
%TO.P,B0,1*%
%TO.N,N$8*%
X67739400Y20748800D03*
%TO.P,B0,2*%
%TO.N,N/C*%
X67739400Y27251200D03*
%TO.P,B0,3*%
%TO.N,GND*%
X72260600Y20748800D03*
%TO.P,B0,4*%
%TO.N,N/C*%
X72260600Y27251200D03*
%TD*%
%TO.P,DOWN0,1*%
%TO.N,N$5*%
X11739400Y20748800D03*
%TO.P,DOWN0,2*%
%TO.N,N/C*%
X11739400Y27251200D03*
%TO.P,DOWN0,3*%
%TO.N,GND*%
X16260600Y20748800D03*
%TO.P,DOWN0,4*%
%TO.N,N/C*%
X16260600Y27251200D03*
%TD*%
%TO.P,RIGHT0,1*%
%TO.N,N$4*%
X19239400Y27248800D03*
%TO.P,RIGHT0,2*%
%TO.N,N/C*%
X19239400Y33751200D03*
%TO.P,RIGHT0,3*%
%TO.N,GND*%
X23760600Y27248800D03*
%TO.P,RIGHT0,4*%
%TO.N,N/C*%
X23760600Y33751200D03*
%TD*%
%TO.P,BUMPERS0,1*%
%TO.N,N$12*%
X73190000Y8000000D03*
%TO.P,BUMPERS0,2*%
%TO.N,N$13*%
X75730000Y8000000D03*
%TO.P,BUMPERS0,3*%
%TO.N,GND*%
X78270000Y8000000D03*
%TO.P,BUMPERS0,4*%
X80810000Y8000000D03*
%TD*%
%TO.P,A0,1*%
%TO.N,N$7*%
X74739400Y27248800D03*
%TO.P,A0,2*%
%TO.N,N/C*%
X74739400Y33751200D03*
%TO.P,A0,3*%
%TO.N,GND*%
X79260600Y27248800D03*
%TO.P,A0,4*%
%TO.N,N/C*%
X79260600Y33751200D03*
%TD*%
%TO.P,UP0,1*%
%TO.N,N$2*%
X11739400Y33748800D03*
%TO.P,UP0,2*%
%TO.N,N/C*%
X11739400Y40251200D03*
%TO.P,UP0,3*%
%TO.N,GND*%
X16260600Y33748800D03*
%TO.P,UP0,4*%
%TO.N,N/C*%
X16260600Y40251200D03*
%TD*%
%TO.P,POWER0,1*%
%TO.N,+5V*%
X8730000Y8000000D03*
%TO.P,POWER0,2*%
%TO.N,GND*%
X11270000Y8000000D03*
%TD*%
%TO.P,LEFT0,1*%
%TO.N,N$1*%
X4239400Y27248800D03*
%TO.P,LEFT0,2*%
%TO.N,N/C*%
X4239400Y33751200D03*
%TO.P,LEFT0,3*%
%TO.N,GND*%
X8760600Y27248800D03*
%TO.P,LEFT0,4*%
%TO.N,N/C*%
X8760600Y33751200D03*
%TD*%
%TO.P,Y0,1*%
%TO.N,N$3*%
X60739400Y27248800D03*
%TO.P,Y0,2*%
%TO.N,N/C*%
X60739400Y33751200D03*
%TO.P,Y0,3*%
%TO.N,GND*%
X65260600Y27248800D03*
%TO.P,Y0,4*%
%TO.N,N/C*%
X65260600Y33751200D03*
%TD*%
D11*
%TO.P,SELECT0,1*%
%TO.N,N$9*%
X33248800Y25760600D03*
%TO.P,SELECT0,2*%
%TO.N,N/C*%
X39751200Y25760600D03*
%TO.P,SELECT0,3*%
%TO.N,GND*%
X33248800Y21239400D03*
%TO.P,SELECT0,4*%
%TO.N,N/C*%
X39751200Y21239400D03*
%TD*%
%TO.P,START0,1*%
%TO.N,N$10*%
X44248800Y25760600D03*
%TO.P,START0,2*%
%TO.N,N/C*%
X50751200Y25760600D03*
%TO.P,START0,3*%
%TO.N,GND*%
X44248800Y21239400D03*
%TO.P,START0,4*%
%TO.N,N/C*%
X50751200Y21239400D03*
%TD*%
D12*
%TO.P,HEADER0,1*%
%TO.N,N/C*%
X18370000Y9270000D03*
%TO.P,HEADER0,2*%
%TO.N,+5V*%
X18370000Y6730000D03*
%TO.P,HEADER0,3*%
%TO.N,N/C*%
X20910000Y9270000D03*
%TO.P,HEADER0,4*%
X20910000Y6730000D03*
%TO.P,HEADER0,5*%
X23450000Y9270000D03*
%TO.P,HEADER0,6*%
%TO.N,GND*%
X23450000Y6730000D03*
%TO.P,HEADER0,7*%
%TO.N,N$1*%
X25990000Y9270000D03*
%TO.P,HEADER0,8*%
%TO.N,N$7*%
X25990000Y6730000D03*
%TO.P,HEADER0,9*%
%TO.N,GND*%
X28530000Y9270000D03*
%TO.P,HEADER0,10*%
%TO.N,N$8*%
X28530000Y6730000D03*
%TO.P,HEADER0,11*%
%TO.N,N/C*%
X31070000Y9270000D03*
%TO.P,HEADER0,12*%
%TO.N,N$3*%
X31070000Y6730000D03*
%TO.P,HEADER0,13*%
%TO.N,N/C*%
X33610000Y9270000D03*
%TO.P,HEADER0,14*%
%TO.N,GND*%
X33610000Y6730000D03*
%TO.P,HEADER0,15*%
%TO.N,N/C*%
X36150000Y9270000D03*
%TO.P,HEADER0,16*%
X36150000Y6730000D03*
%TO.P,HEADER0,17*%
X38690000Y9270000D03*
%TO.P,HEADER0,18*%
X38690000Y6730000D03*
%TO.P,HEADER0,19*%
X41230000Y9270000D03*
%TO.P,HEADER0,20*%
%TO.N,GND*%
X41230000Y6730000D03*
%TO.P,HEADER0,21*%
%TO.N,N/C*%
X43770000Y9270000D03*
%TO.P,HEADER0,22*%
X43770000Y6730000D03*
%TO.P,HEADER0,23*%
X46310000Y9270000D03*
%TO.P,HEADER0,24*%
X46310000Y6730000D03*
%TO.P,HEADER0,25*%
%TO.N,GND*%
X48850000Y9270000D03*
%TO.P,HEADER0,26*%
%TO.N,N/C*%
X48850000Y6730000D03*
%TO.P,HEADER0,27*%
X51390000Y9270000D03*
%TO.P,HEADER0,28*%
X51390000Y6730000D03*
%TO.P,HEADER0,29*%
%TO.N,N$9*%
X53930000Y9270000D03*
%TO.P,HEADER0,30*%
%TO.N,GND*%
X53930000Y6730000D03*
%TO.P,HEADER0,31*%
%TO.N,N$10*%
X56470000Y9270000D03*
%TO.P,HEADER0,32*%
%TO.N,N$12*%
X56470000Y6730000D03*
%TO.P,HEADER0,33*%
%TO.N,N$13*%
X59010000Y9270000D03*
%TO.P,HEADER0,34*%
%TO.N,GND*%
X59010000Y6730000D03*
%TO.P,HEADER0,35*%
%TO.N,N$4*%
X61550000Y9270000D03*
%TO.P,HEADER0,36*%
%TO.N,N$2*%
X61550000Y6730000D03*
%TO.P,HEADER0,37*%
%TO.N,N$5*%
X64090000Y9270000D03*
%TO.P,HEADER0,38*%
%TO.N,N$6*%
X64090000Y6730000D03*
%TO.P,HEADER0,39*%
%TO.N,GND*%
X66630000Y9270000D03*
%TO.P,HEADER0,40*%
%TO.N,N/C*%
X66630000Y6730000D03*
%TD*%
D13*
%TO.N,N$2*%
X58674000Y3632200D03*
%TO.N,N$5*%
X63423800Y5308600D03*
%TO.N,N$7*%
X51130200Y10896600D03*
%TD*%
%TO.N,N$1*%
D14*
X14528800Y25146000D02*
X25984200Y13690600D01*
X4470400Y27101800D02*
X6426200Y25146000D01*
X4470400Y27101800D02*
X4239400Y27248800D01*
X25984200Y13690600D02*
X25984200Y9499600D01*
X6426200Y25146000D02*
X14528800Y25146000D01*
X25984200Y9499600D02*
X25990000Y9270000D01*
%TO.N,N$3*%
X31013400Y7543800D02*
X31013400Y6985000D01*
X31013400Y6985000D02*
X31070000Y6730000D01*
X29895800Y8661400D02*
X31013400Y7543800D01*
X60629800Y27381200D02*
X60739400Y27248800D01*
X60350400Y27660600D02*
X31851600Y27660600D01*
X31851600Y27660600D02*
X29895800Y25704800D01*
X60629800Y27381200D02*
X60350400Y27660600D01*
X29895800Y25704800D02*
X29895800Y8661400D01*
%TO.N,N$10*%
X56438800Y11734800D02*
X44424600Y23749000D01*
X44424600Y23749000D02*
X44424600Y25704800D01*
X56438800Y9499600D02*
X56470000Y9270000D01*
X44424600Y25704800D02*
X44248800Y25760600D01*
X56438800Y9499600D02*
X56438800Y11734800D01*
%TO.N,N$9*%
X38557200Y19837400D02*
X43586400Y19837400D01*
X33528000Y24866600D02*
X38557200Y19837400D01*
X33528000Y25704800D02*
X33248800Y25760600D01*
X43586400Y19837400D02*
X53924200Y9499600D01*
X33528000Y25704800D02*
X33528000Y24866600D01*
X53924200Y9499600D02*
X53930000Y9270000D01*
%TO.N,+5V*%
X8940800Y7823200D02*
X10896600Y5867400D01*
X10896600Y5867400D02*
X11734800Y5867400D01*
X12573000Y6705600D02*
X18161000Y6705600D01*
X18161000Y6705600D02*
X18370000Y6730000D01*
X11734800Y5867400D02*
X12573000Y6705600D01*
X8940800Y7823200D02*
X8730000Y8000000D01*
%TO.N,N$12*%
X63703200Y10617200D02*
X62865000Y9779000D01*
X56718200Y6705600D02*
X56470000Y6730000D01*
X72923400Y8102600D02*
X73190000Y8000000D01*
X72923400Y8102600D02*
X70408800Y10617200D01*
X70408800Y10617200D02*
X63703200Y10617200D01*
X57277000Y6146800D02*
X56718200Y6705600D01*
X61468000Y4749800D02*
X58394600Y4749800D01*
X57277000Y5867400D02*
X57277000Y6146800D01*
X62865000Y6146800D02*
X61468000Y4749800D01*
X58394600Y4749800D02*
X57277000Y5867400D01*
X62865000Y9779000D02*
X62865000Y6146800D01*
%TO.N,N$13*%
X75717400Y8102600D02*
X75730000Y8000000D01*
X59232800Y9499600D02*
X59010000Y9270000D01*
X59232800Y9499600D02*
X60909200Y11176000D01*
X60909200Y11176000D02*
X72644000Y11176000D01*
X72644000Y11176000D02*
X75717400Y8102600D01*
%TO.N,N$2*%
X2794000Y26263600D02*
X2794000Y28219400D01*
X2794000Y28219400D02*
X3911600Y29337000D01*
X15087600Y19837400D02*
X12014200Y22910800D01*
X12014200Y22910800D02*
X6146800Y22910800D01*
X22352000Y3632200D02*
X19558000Y6426200D01*
X6985000Y29337000D02*
X11176000Y33528000D01*
X11734800Y33528000D02*
X11739400Y33748800D01*
X19558000Y6426200D02*
X19558000Y9779000D01*
X6146800Y22910800D02*
X2794000Y26263600D01*
X11176000Y33528000D02*
X11734800Y33528000D01*
X15087600Y14249400D02*
X15087600Y19837400D01*
X3911600Y29337000D02*
X6985000Y29337000D01*
X58674000Y3632200D02*
X22352000Y3632200D01*
X19558000Y9779000D02*
X15087600Y14249400D01*
%TO.N,N$4*%
X67056000Y22910800D02*
X63982600Y25984200D01*
X69011800Y22072600D02*
X68173600Y22910800D01*
X23190200Y29337000D02*
X21234400Y27381200D01*
X57835800Y9779000D02*
X59791600Y11734800D01*
X19278600Y27381200D02*
X19239400Y27248800D01*
X63982600Y25984200D02*
X63982600Y26543000D01*
X58674000Y5308600D02*
X57835800Y6146800D01*
X59512200Y5308600D02*
X58674000Y5308600D01*
X21234400Y27381200D02*
X19278600Y27381200D01*
X60350400Y8102600D02*
X60350400Y6146800D01*
X61188600Y11734800D02*
X69011800Y19558000D01*
X61468000Y9220200D02*
X61550000Y9270000D01*
X69011800Y19558000D02*
X69011800Y22072600D01*
X61188600Y29337000D02*
X23190200Y29337000D01*
X63982600Y26543000D02*
X61188600Y29337000D01*
X61468000Y9220200D02*
X60350400Y8102600D01*
X57835800Y6146800D02*
X57835800Y9779000D01*
X68173600Y22910800D02*
X67056000Y22910800D01*
X59791600Y11734800D02*
X61188600Y11734800D01*
X60350400Y6146800D02*
X59512200Y5308600D01*
%TO.N,N$5*%
X60629800Y2514600D02*
X11734800Y2514600D01*
X11734800Y2514600D02*
X7543800Y6705600D01*
X63423800Y5308600D02*
X60629800Y2514600D01*
X7543800Y6705600D02*
X7543800Y9499600D01*
X11734800Y13690600D02*
X11734800Y20675600D01*
X7543800Y9499600D02*
X11734800Y13690600D01*
X11734800Y20675600D02*
X11739400Y20748800D01*
%TO.N,N$6*%
X66217800Y5308600D02*
X64820800Y6705600D01*
X64820800Y6705600D02*
X64262000Y6705600D01*
X69011800Y27940000D02*
X79629000Y17322800D01*
X79629000Y17322800D02*
X79629000Y6705600D01*
X67894200Y33528000D02*
X67739400Y33748800D01*
X64262000Y6705600D02*
X64090000Y6730000D01*
X67894200Y33528000D02*
X69011800Y32410400D01*
X69011800Y32410400D02*
X69011800Y27940000D01*
X79629000Y6705600D02*
X78232000Y5308600D01*
X78232000Y5308600D02*
X66217800Y5308600D01*
%TO.N,N$7*%
X28778200Y4749800D02*
X26822400Y6705600D01*
X47498000Y9779000D02*
X47498000Y6146800D01*
X46101000Y4749800D02*
X28778200Y4749800D01*
X48615600Y10896600D02*
X47498000Y9779000D01*
X47498000Y6146800D02*
X46101000Y4749800D01*
X26263600Y6705600D02*
X25990000Y6730000D01*
X26822400Y6705600D02*
X26263600Y6705600D01*
X51130200Y10896600D02*
X48615600Y10896600D01*
%TO.N,N$8*%
X32410400Y6146800D02*
X31572200Y5308600D01*
X31572200Y5308600D02*
X30734000Y5308600D01*
X32131000Y27101800D02*
X31292800Y26263600D01*
X67614800Y20955000D02*
X64541400Y20955000D01*
X58394600Y27101800D02*
X32131000Y27101800D01*
X67614800Y20955000D02*
X67739400Y20748800D01*
X28778200Y6705600D02*
X28530000Y6730000D01*
X30734000Y5308600D02*
X29337000Y6705600D01*
X29337000Y6705600D02*
X28778200Y6705600D01*
X32410400Y19558000D02*
X32410400Y6146800D01*
X31292800Y20675600D02*
X32410400Y19558000D01*
X31292800Y26263600D02*
X31292800Y20675600D01*
X64541400Y20955000D02*
X58394600Y27101800D01*
%TD*%
M02*
