%TF.GenerationSoftware,KiCad,Pcbnew,10.99.0-3671-gbe90a7e200*%
%TF.CreationDate,2026-09-10T00:25:56+01:00*%
%TF.ProjectId,kicad_file,6b696361-645f-4666-996c-652e6b696361,rev?*%
%TF.SameCoordinates,Original*%
%TF.FileFunction,Copper,L1,Top*%
%TF.FilePolarity,Positive*%
%FSLAX46Y46*%
G04 Gerber Fmt 4.6, Leading zero omitted, Abs format (unit mm)*
G04 Created by KiCad (PCBNEW 10.99.0-3671-gbe90a7e200) date 2026-09-10 00:25:56*
%MOMM*%
%LPD*%
G01*
G04 APERTURE LIST*
G04 Aperture macros list*
%AMRoundRect*
0 Rectangle with rounded corners*
0 $1 Rounding radius*
0 $2 $3 $4 $5 $6 $7 $8 $9 X,Y pos of 4 corners*
0 Add a 4 corners polygon primitive as box body*
4,1,4,$2,$3,$4,$5,$6,$7,$8,$9,$2,$3,0*
0 Add four circle primitives for the rounded corners*
1,1,$1+$1,$2,$3*
1,1,$1+$1,$4,$5*
1,1,$1+$1,$6,$7*
1,1,$1+$1,$8,$9*
0 Add four rect primitives between the rounded corners*
20,1,$1+$1,$2,$3,$4,$5,0*
20,1,$1+$1,$4,$5,$6,$7,0*
20,1,$1+$1,$6,$7,$8,$9,0*
20,1,$1+$1,$8,$9,$2,$3,0*%
%AMRotRect*
0 Rectangle, with rotation*
0 The origin of the aperture is its center*
0 $1 length*
0 $2 width*
0 $3 Rotation angle, in degrees counterclockwise*
0 Add horizontal line*
21,1,$1,$2,0,0,$3*%
%AMOutline5P*
0 Free polygon, 5 corners , with rotation*
0 The origin of the aperture is its center*
0 number of corners: always 5*
0 $1 to $10 corner X, Y*
0 $11 Rotation angle, in degrees counterclockwise*
0 create outline with 5 corners*
4,1,5,$1,$2,$3,$4,$5,$6,$7,$8,$9,$10,$1,$2,$11*%
%AMOutline6P*
0 Free polygon, 6 corners , with rotation*
0 The origin of the aperture is its center*
0 number of corners: always 6*
0 $1 to $12 corner X, Y*
0 $13 Rotation angle, in degrees counterclockwise*
0 create outline with 6 corners*
4,1,6,$1,$2,$3,$4,$5,$6,$7,$8,$9,$10,$11,$12,$1,$2,$13*%
%AMOutline7P*
0 Free polygon, 7 corners , with rotation*
0 The origin of the aperture is its center*
0 number of corners: always 7*
0 $1 to $14 corner X, Y*
0 $15 Rotation angle, in degrees counterclockwise*
0 create outline with 7 corners*
4,1,7,$1,$2,$3,$4,$5,$6,$7,$8,$9,$10,$11,$12,$13,$14,$1,$2,$15*%
%AMOutline8P*
0 Free polygon, 8 corners , with rotation*
0 The origin of the aperture is its center*
0 number of corners: always 8*
0 $1 to $16 corner X, Y*
0 $17 Rotation angle, in degrees counterclockwise*
0 create outline with 8 corners*
4,1,8,$1,$2,$3,$4,$5,$6,$7,$8,$9,$10,$11,$12,$13,$14,$15,$16,$1,$2,$17*%
G04 Aperture macros list end*
%TA.AperFunction,EtchedComponent*%
%ADD10C,0.000000*%
%TD*%
%TA.AperFunction,EtchedComponent*%
%ADD11C,0.304800*%
%TD*%
%TA.AperFunction,ComponentPad*%
%ADD12C,3.200000*%
%TD*%
%TA.AperFunction,SMDPad,CuDef*%
%ADD13RoundRect,0.500000X0.000010X0.000010X-0.000010X0.000010X-0.000010X-0.000010X0.000010X-0.000010X0*%
%TD*%
%TA.AperFunction,SMDPad,CuDef*%
%ADD14R,1.240000X1.500000*%
%TD*%
%TA.AperFunction,SMDPad,CuDef*%
%ADD15R,1.500000X1.240000*%
%TD*%
%TA.AperFunction,SMDPad,CuDef*%
%ADD16RoundRect,0.190500X0.571500X-0.190500X0.571500X0.190500X-0.571500X0.190500X-0.571500X-0.190500X0*%
%TD*%
%TA.AperFunction,ComponentPad*%
%ADD17C,1.676400*%
%TD*%
%TA.AperFunction,ComponentPad*%
%ADD18C,1.930400*%
%TD*%
%TA.AperFunction,SMDPad,CuDef*%
%ADD19RoundRect,0.090000X-0.148485X0.148499X-0.148499X0.148485X0.148485X-0.148499X0.148499X-0.148485X0*%
%TD*%
%TA.AperFunction,SMDPad,CuDef*%
%ADD20RoundRect,0.090000X-0.148499X-0.148485X-0.148485X-0.148499X0.148499X0.148485X0.148485X0.148499X0*%
%TD*%
%TA.AperFunction,SMDPad,CuDef*%
%ADD21RoundRect,0.090000X0.148485X-0.148499X0.148499X-0.148485X-0.148485X0.148499X-0.148499X0.148485X0*%
%TD*%
%TA.AperFunction,SMDPad,CuDef*%
%ADD22RoundRect,0.090000X0.148499X0.148485X0.148485X0.148499X-0.148499X-0.148485X-0.148485X-0.148499X0*%
%TD*%
%TA.AperFunction,SMDPad,CuDef*%
%ADD23RotRect,2.300000X2.300000X135.000000*%
%TD*%
%TA.AperFunction,ComponentPad*%
%ADD24Outline8P,-0.838200X0.347194X-0.347194X0.838200X0.347194X0.838200X0.838200X0.347194X0.838200X-0.347194X0.347194X-0.838200X-0.347194X-0.838200X-0.838200X-0.347194X180.000000*%
%TD*%
%TA.AperFunction,ViaPad*%
%ADD25C,0.906400*%
%TD*%
%TA.AperFunction,Conductor*%
%ADD26C,0.812800*%
%TD*%
%TA.AperFunction,Conductor*%
%ADD27C,1.016000*%
%TD*%
%TA.AperFunction,Conductor*%
%ADD28C,0.254000*%
%TD*%
%TA.AperFunction,Conductor*%
%ADD29C,0.406400*%
%TD*%
%TA.AperFunction,Conductor*%
%ADD30C,0.203200*%
%TD*%
%TA.AperFunction,Conductor*%
%ADD31C,0.304800*%
%TD*%
G04 APERTURE END LIST*
D10*
%TA.AperFunction,EtchedComponent*%
%TO.C,SJ1*%
G36*
X13563600Y11620500D02*
G01*
X13563600Y11049000D01*
X12090400Y11049000D01*
X12090400Y11620500D01*
X12827000Y12357100D01*
X13563600Y11620500D01*
G37*
%TD.AperFunction*%
%TA.AperFunction,EtchedComponent*%
G36*
X13563600Y12065000D02*
G01*
X12827000Y12776200D01*
X12090400Y12065000D01*
X12090400Y13335000D01*
X13563600Y13335000D01*
X13563600Y12065000D01*
G37*
%TD.AperFunction*%
%TA.AperFunction,EtchedComponent*%
%TO.C,SJ3*%
G36*
X10896600Y11620500D02*
G01*
X10896600Y11049000D01*
X9423400Y11049000D01*
X9423400Y11620500D01*
X10160000Y12357100D01*
X10896600Y11620500D01*
G37*
%TD.AperFunction*%
%TA.AperFunction,EtchedComponent*%
G36*
X10896600Y12065000D02*
G01*
X10160000Y12776200D01*
X9423400Y12065000D01*
X9423400Y13335000D01*
X10896600Y13335000D01*
X10896600Y12065000D01*
G37*
%TD.AperFunction*%
%TA.AperFunction,EtchedComponent*%
%TO.C,SJ2*%
G36*
X8356600Y11620500D02*
G01*
X8356600Y11049000D01*
X6883400Y11049000D01*
X6883400Y11620500D01*
X7620000Y12357100D01*
X8356600Y11620500D01*
G37*
%TD.AperFunction*%
%TA.AperFunction,EtchedComponent*%
G36*
X8356600Y12065000D02*
G01*
X7620000Y12776200D01*
X6883400Y12065000D01*
X6883400Y13335000D01*
X8356600Y13335000D01*
X8356600Y12065000D01*
G37*
%TD.AperFunction*%
%TO.C,R1*%
D11*
X39171000Y14097000D02*
X35771000Y14097000D01*
X33671000Y14097000D02*
X29571000Y14097000D01*
D10*
%TA.AperFunction,EtchedComponent*%
G36*
X36296400Y13397000D02*
G01*
X35096400Y13397000D01*
X35096400Y14797000D01*
X36296400Y14797000D01*
X36296400Y13397000D01*
G37*
%TD.AperFunction*%
%TA.AperFunction,EtchedComponent*%
G36*
X34245600Y13397000D02*
G01*
X33045600Y13397000D01*
X33045600Y14797000D01*
X34245600Y14797000D01*
X34245600Y13397000D01*
G37*
%TD.AperFunction*%
%TD*%
D12*
%TO.P,U$3,P$1*%
%TO.N,N/C*%
X2540000Y2540000D03*
%TD*%
D13*
%TO.P,FID2,1*%
%TO.N,N/C*%
X14986000Y13335000D03*
%TD*%
D14*
%TO.P,C5,1*%
%TO.N,VCC*%
X25212000Y9271000D03*
%TO.P,C5,2*%
%TO.N,GND*%
X27112000Y9271000D03*
%TD*%
D12*
%TO.P,U$6,P$1*%
%TO.N,N/C*%
X40640000Y25400000D03*
%TD*%
D13*
%TO.P,FID1,1*%
%TO.N,N/C*%
X29718000Y19939000D03*
%TD*%
D15*
%TO.P,C3,1*%
%TO.N,N$3*%
X37592000Y11237000D03*
%TO.P,C3,2*%
%TO.N,AUDIOIN*%
X37592000Y9337000D03*
%TD*%
%TO.P,C4,1*%
%TO.N,VCC*%
X6604000Y19746000D03*
%TO.P,C4,2*%
%TO.N,GND*%
X6604000Y17846000D03*
%TD*%
D16*
%TO.P,SJ1,1*%
%TO.N,ADDR*%
X12827000Y11176000D03*
%TO.P,SJ1,2*%
%TO.N,VCC*%
X12827000Y13208000D03*
%TD*%
D15*
%TO.P,R4,1*%
%TO.N,SCL*%
X8509000Y17846000D03*
%TO.P,R4,2*%
%TO.N,VCC*%
X8509000Y19746000D03*
%TD*%
D16*
%TO.P,SJ3,1*%
%TO.N,ADDR*%
X10160000Y11176000D03*
%TO.P,SJ3,2*%
%TO.N,SDA*%
X10160000Y13208000D03*
%TD*%
D12*
%TO.P,U$4,P$1*%
%TO.N,N/C*%
X40640000Y2540000D03*
%TD*%
D17*
%TO.P,JP4,1*%
%TO.N,CA1*%
X6350000Y1270000D03*
%TO.P,JP4,2*%
%TO.N,CA2*%
X8890000Y1270000D03*
%TO.P,JP4,3*%
%TO.N,CA3*%
X11430000Y1270000D03*
%TO.P,JP4,4*%
%TO.N,CA4*%
X13970000Y1270000D03*
%TO.P,JP4,5*%
%TO.N,CA5*%
X16510000Y1270000D03*
%TO.P,JP4,6*%
%TO.N,CA6*%
X19050000Y1270000D03*
%TO.P,JP4,7*%
%TO.N,CA7*%
X21590000Y1270000D03*
%TO.P,JP4,8*%
%TO.N,CA8*%
X24130000Y1270000D03*
%TO.P,JP4,9*%
%TO.N,CA9*%
X26670000Y1270000D03*
%TO.P,JP4,10*%
%TO.N,SHUTDOWN*%
X29210000Y1270000D03*
%TO.P,JP4,11*%
%TO.N,INTB*%
X31750000Y1270000D03*
%TO.P,JP4,12*%
%TO.N,ADDR*%
X34290000Y1270000D03*
%TO.P,JP4,13*%
%TO.N,AUDIOIN*%
X36830000Y1270000D03*
%TD*%
D15*
%TO.P,R6,1*%
%TO.N,GND*%
X12319000Y19746000D03*
%TO.P,R6,2*%
%TO.N,ADDR*%
X12319000Y17846000D03*
%TD*%
%TO.P,C1,1*%
%TO.N,VCC*%
X35560000Y11237000D03*
%TO.P,C1,2*%
%TO.N,GND*%
X35560000Y9337000D03*
%TD*%
%TO.P,R3,1*%
%TO.N,SDA*%
X10414000Y17846000D03*
%TO.P,R3,2*%
%TO.N,VCC*%
X10414000Y19746000D03*
%TD*%
D18*
%TO.P,JP5,1*%
%TO.N,VCC*%
X2540000Y21590000D03*
%TO.P,JP5,2*%
%TO.N,GND*%
X2540000Y19050000D03*
%TO.P,JP5,3*%
%TO.N,SCL*%
X2540000Y16510000D03*
%TO.P,JP5,4*%
%TO.N,SDA*%
X2540000Y13970000D03*
%TO.P,JP5,5*%
%TO.N,AUDIOIN*%
X2540000Y11430000D03*
%TO.P,JP5,6*%
%TO.N,INTB*%
X2540000Y8890000D03*
%TO.P,JP5,7*%
%TO.N,SHUTDOWN*%
X2540000Y6350000D03*
%TD*%
D19*
%TO.P,U1,1*%
%TO.N,CA9*%
X22155685Y11707258D03*
%TO.P,U1,2*%
%TO.N,VCC*%
X22438528Y11990101D03*
%TO.P,U1,3*%
%TO.N,SHUTDOWN*%
X22721371Y12272944D03*
%TO.P,U1,4*%
%TO.N,INTB*%
X23004214Y12555786D03*
%TO.P,U1,5*%
%TO.N,GND*%
X23287056Y12838629D03*
%TO.P,U1,6*%
%TO.N,N$2*%
X23569899Y13121472D03*
%TO.P,U1,7*%
%TO.N,CB1*%
X23852742Y13404315D03*
D20*
%TO.P,U1,8*%
%TO.N,CB2*%
X23852742Y14535685D03*
%TO.P,U1,9*%
%TO.N,CB3*%
X23569899Y14818528D03*
%TO.P,U1,10*%
%TO.N,CB4*%
X23287056Y15101371D03*
%TO.P,U1,11*%
%TO.N,CB5*%
X23004214Y15384214D03*
%TO.P,U1,12*%
%TO.N,CB6*%
X22721371Y15667056D03*
%TO.P,U1,13*%
%TO.N,CB7*%
X22438528Y15949899D03*
%TO.P,U1,14*%
%TO.N,CB8*%
X22155685Y16232742D03*
D21*
%TO.P,U1,15*%
%TO.N,CB9*%
X21024315Y16232742D03*
%TO.P,U1,16*%
%TO.N,N$1*%
X20741472Y15949899D03*
%TO.P,U1,17*%
%TO.N,N$3*%
X20458629Y15667056D03*
%TO.P,U1,18*%
%TO.N,ADDR*%
X20175786Y15384214D03*
%TO.P,U1,19*%
%TO.N,SDA*%
X19892944Y15101371D03*
%TO.P,U1,20*%
%TO.N,SCL*%
X19610101Y14818528D03*
%TO.P,U1,21*%
%TO.N,CA1*%
X19327258Y14535685D03*
D22*
%TO.P,U1,22*%
%TO.N,CA2*%
X19327258Y13404315D03*
%TO.P,U1,23*%
%TO.N,CA3*%
X19610101Y13121472D03*
%TO.P,U1,24*%
%TO.N,CA4*%
X19892944Y12838629D03*
%TO.P,U1,25*%
%TO.N,CA5*%
X20175786Y12555786D03*
%TO.P,U1,26*%
%TO.N,CA6*%
X20458629Y12272944D03*
%TO.P,U1,27*%
%TO.N,CA7*%
X20741472Y11990101D03*
%TO.P,U1,28*%
%TO.N,CA8*%
X21024315Y11707258D03*
D23*
%TO.P,U1,THERMAL*%
%TO.N,GND*%
X21590000Y13970000D03*
%TD*%
D15*
%TO.P,C2,1*%
%TO.N,N$1*%
X15748000Y17846000D03*
%TO.P,C2,2*%
%TO.N,GND*%
X15748000Y19746000D03*
%TD*%
%TO.P,R2,1*%
%TO.N,VCC*%
X31496000Y11237000D03*
%TO.P,R2,2*%
%TO.N,SHUTDOWN*%
X31496000Y9337000D03*
%TD*%
D16*
%TO.P,SJ2,1*%
%TO.N,ADDR*%
X7620000Y11176000D03*
%TO.P,SJ2,2*%
%TO.N,SCL*%
X7620000Y13208000D03*
%TD*%
D24*
%TO.P,R1,1*%
%TO.N,GND*%
X39751000Y14097000D03*
%TO.P,R1,2*%
%TO.N,N$2*%
X29591000Y14097000D03*
%TD*%
D15*
%TO.P,R5,1*%
%TO.N,INTB*%
X33528000Y9337000D03*
%TO.P,R5,2*%
%TO.N,VCC*%
X33528000Y11237000D03*
%TD*%
D12*
%TO.P,U$5,P$1*%
%TO.N,N/C*%
X2540000Y25400000D03*
%TD*%
D17*
%TO.P,JP2,1*%
%TO.N,VCC*%
X6350000Y26670000D03*
%TO.P,JP2,2*%
%TO.N,GND*%
X8890000Y26670000D03*
%TO.P,JP2,3*%
%TO.N,SCL*%
X11430000Y26670000D03*
%TO.P,JP2,4*%
%TO.N,SDA*%
X13970000Y26670000D03*
%TO.P,JP2,5*%
%TO.N,CB1*%
X16510000Y26670000D03*
%TO.P,JP2,6*%
%TO.N,CB2*%
X19050000Y26670000D03*
%TO.P,JP2,7*%
%TO.N,CB3*%
X21590000Y26670000D03*
%TO.P,JP2,8*%
%TO.N,CB4*%
X24130000Y26670000D03*
%TO.P,JP2,9*%
%TO.N,CB5*%
X26670000Y26670000D03*
%TO.P,JP2,10*%
%TO.N,CB6*%
X29210000Y26670000D03*
%TO.P,JP2,11*%
%TO.N,CB7*%
X31750000Y26670000D03*
%TO.P,JP2,12*%
%TO.N,CB8*%
X34290000Y26670000D03*
%TO.P,JP2,13*%
%TO.N,CB9*%
X36830000Y26670000D03*
%TD*%
D25*
%TO.N,VCC*%
X23876000Y9144000D03*
X12700000Y14351000D03*
X8382000Y7874000D03*
X33528000Y12573000D03*
%TO.N,GND*%
X35560000Y6604000D03*
X9398000Y21209000D03*
X27178000Y7366000D03*
X31496000Y6604000D03*
X15494000Y21336000D03*
X6858000Y15494000D03*
X21590000Y13970000D03*
%TO.N,N$3*%
X37592000Y12700000D03*
X17780000Y17018000D03*
%TO.N,AUDIOIN*%
X32893000Y2794000D03*
%TO.N,SHUTDOWN*%
X29718000Y9144000D03*
X29210000Y5080000D03*
%TO.N,SDA*%
X10160000Y14351000D03*
X10414000Y16256000D03*
%TO.N,SCL*%
X8509000Y16383000D03*
%TO.N,ADDR*%
X11176000Y9652000D03*
X13716000Y16764000D03*
%TO.N,CB9*%
X20574000Y17653000D03*
%TO.N,CB8*%
X20955000Y19050000D03*
%TO.N,CB7*%
X22098000Y19431000D03*
%TO.N,CB6*%
X23114000Y20320000D03*
%TO.N,CB5*%
X24257000Y21336000D03*
%TO.N,CB4*%
X25400000Y21971000D03*
%TO.N,CB3*%
X23114000Y22225000D03*
%TO.N,CB2*%
X21590000Y22225000D03*
%TD*%
%TO.N,VCC*%
D26*
X35560000Y11237000D02*
X33528000Y11237000D01*
D27*
X5080000Y21463000D02*
X5080000Y21590000D01*
D26*
X33528000Y12573000D02*
X33528000Y11237000D01*
D28*
X25212000Y9271000D02*
X25085000Y9144000D01*
X12827000Y14224000D02*
X12700000Y14351000D01*
D29*
X8509000Y19746000D02*
X10414000Y19746000D01*
D27*
X5080000Y11176000D02*
X8382000Y7874000D01*
D28*
X12827000Y13208000D02*
X12827000Y14224000D01*
D26*
X5336500Y21780500D02*
X5270500Y21780500D01*
D27*
X6350000Y22860000D02*
X6350000Y26670000D01*
X5270500Y21780500D02*
X6350000Y22860000D01*
D30*
X23876000Y10552628D02*
X23876000Y9144000D01*
D29*
X25085000Y9144000D02*
X23876000Y9144000D01*
D26*
X4953000Y21590000D02*
X5080000Y21463000D01*
D27*
X8509000Y19746000D02*
X6604000Y19746000D01*
X5080000Y21590000D02*
X5270500Y21780500D01*
X6604000Y19746000D02*
X5080000Y19746000D01*
X5080000Y13462000D02*
X5080000Y19746000D01*
D31*
X5334000Y13208000D02*
X5080000Y13462000D01*
D27*
X5080000Y19746000D02*
X5080000Y21463000D01*
D30*
X22438528Y11990100D02*
X23876000Y10552628D01*
D27*
X5080000Y11176000D02*
X5080000Y13462000D01*
D26*
X2540000Y21590000D02*
X4953000Y21590000D01*
X33528000Y11237000D02*
X31496000Y11237000D01*
%TO.N,GND*%
D30*
X23287056Y12838628D02*
X22155684Y13970000D01*
X23287056Y12838628D02*
X23933684Y12192000D01*
X23933684Y12192000D02*
X24130000Y12192000D01*
X22155684Y13970000D02*
X21590000Y13970000D01*
%TO.N,N$1*%
X20741468Y15949896D02*
X18845365Y17846000D01*
X18845365Y17846000D02*
X15748000Y17846000D01*
%TO.N,N$2*%
X23569896Y13121468D02*
X23991365Y12700000D01*
X26670000Y12700000D02*
X23991365Y12700000D01*
D28*
X28067000Y14097000D02*
X29591000Y14097000D01*
X28067000Y14097000D02*
X26670000Y12700000D01*
%TO.N,N$3*%
D30*
X17780000Y17018000D02*
X19107684Y17018000D01*
D28*
X37592000Y12700000D02*
X37592000Y11237000D01*
D30*
X19107684Y17018000D02*
X20458628Y15667056D01*
%TO.N,AUDIOIN*%
D31*
X36830000Y2794000D02*
X37592000Y3556000D01*
X32893000Y2794000D02*
X36830000Y2794000D01*
X37592000Y3556000D02*
X37592000Y9337000D01*
X36830000Y2794000D02*
X36830000Y1270000D01*
%TO.N,SHUTDOWN*%
D28*
X31496000Y9337000D02*
X29911000Y9337000D01*
D30*
X23945309Y11049000D02*
X24765000Y11049000D01*
X22721368Y12272940D02*
X23945309Y11049000D01*
D28*
X28194000Y10287000D02*
X28194000Y6096000D01*
D31*
X29210000Y1270000D02*
X29210000Y5080000D01*
D28*
X28194000Y6096000D02*
X29210000Y5080000D01*
X27432000Y11049000D02*
X28194000Y10287000D01*
X24765000Y11049000D02*
X27432000Y11049000D01*
X29911000Y9337000D02*
X29718000Y9144000D01*
%TO.N,SDA*%
D30*
X19246309Y15748000D02*
X11430000Y15748000D01*
X19892940Y15101368D02*
X19246309Y15748000D01*
D28*
X10160000Y13208000D02*
X10160000Y14351000D01*
X10414000Y16129000D02*
X10414000Y16256000D01*
X10414000Y17846000D02*
X10414000Y16256000D01*
X11430000Y15748000D02*
X10795000Y15748000D01*
X10795000Y15748000D02*
X10414000Y16129000D01*
%TO.N,SCL*%
X9652000Y15240000D02*
X8509000Y16383000D01*
X9906000Y15240000D02*
X9652000Y15240000D01*
X8509000Y14097000D02*
X8509000Y16383000D01*
D30*
X19188628Y15240000D02*
X9906000Y15240000D01*
D31*
X8509000Y16383000D02*
X8509000Y17846000D01*
D28*
X10033000Y15240000D02*
X9906000Y15240000D01*
D30*
X19610100Y14818528D02*
X19188628Y15240000D01*
D28*
X7620000Y13208000D02*
X8509000Y14097000D01*
%TO.N,INTB*%
D31*
X31750000Y3809996D02*
X31750000Y1270000D01*
X33528000Y5587996D02*
X31750000Y3809996D01*
D28*
X28829000Y6730996D02*
X31750000Y3809996D01*
X27559000Y11684000D02*
X28829000Y10414000D01*
X28829000Y10414000D02*
X28829000Y6730996D01*
D30*
X23004212Y12555784D02*
X23875996Y11684000D01*
X23875996Y11684000D02*
X24638000Y11684000D01*
D28*
X24638000Y11684000D02*
X27559000Y11684000D01*
D31*
X33528000Y9337000D02*
X33528000Y5587996D01*
%TO.N,ADDR*%
D28*
X10160000Y10668000D02*
X11176000Y9652000D01*
D31*
X12827000Y11176000D02*
X10160000Y11176000D01*
D30*
X20175784Y15384212D02*
X19303996Y16256000D01*
X12319000Y17018000D02*
X12319000Y17846000D01*
X19303996Y16256000D02*
X13716000Y16256000D01*
X13716000Y16256000D02*
X13716000Y16764000D01*
X13716000Y16256000D02*
X13081000Y16256000D01*
D28*
X10160000Y11176000D02*
X10160000Y10668000D01*
D31*
X7620000Y11176000D02*
X10160000Y11176000D01*
D30*
X13081000Y16256000D02*
X12319000Y17018000D01*
%TO.N,CA9*%
X22606000Y11256940D02*
X22606000Y10541000D01*
D29*
X22606000Y10541000D02*
X22606000Y6858000D01*
X26670000Y2794000D02*
X26670000Y1270000D01*
X22606000Y6858000D02*
X26670000Y2794000D01*
D30*
X22155684Y11707256D02*
X22606000Y11256940D01*
%TO.N,CA8*%
X21717000Y11176000D02*
X21717000Y10541000D01*
D29*
X21717000Y5588000D02*
X24130000Y3175000D01*
X21717000Y10541000D02*
X21717000Y5588000D01*
X24130000Y3175000D02*
X24130000Y1270000D01*
D30*
X21024312Y11707256D02*
X21185743Y11707256D01*
X21185743Y11707256D02*
X21717000Y11176000D01*
%TO.N,CA7*%
X20193000Y11441631D02*
X20193000Y11176000D01*
D29*
X20828000Y10414000D02*
X20828000Y4826000D01*
D30*
X20193000Y11176000D02*
X20828000Y10541000D01*
X20828000Y10541000D02*
X20828000Y10414000D01*
D29*
X21717000Y3937000D02*
X21717000Y1397000D01*
D30*
X20741468Y11990100D02*
X20193000Y11441631D01*
D29*
X20828000Y4826000D02*
X21717000Y3937000D01*
X21717000Y1397000D02*
X21590000Y1270000D01*
%TO.N,CA6*%
X19812000Y10541000D02*
X19812000Y2032000D01*
D30*
X19812000Y11626312D02*
X19812000Y10541000D01*
D29*
X19812000Y2032000D02*
X19050000Y1270000D01*
D30*
X20458628Y12272940D02*
X19812000Y11626312D01*
%TO.N,CA5*%
D29*
X19177000Y11049000D02*
X19177000Y10795000D01*
D30*
X19177000Y11557000D02*
X19177000Y11049000D01*
D29*
X16383000Y8001000D02*
X16383000Y1397000D01*
D30*
X20175784Y12555784D02*
X19177000Y11557000D01*
D29*
X16383000Y1397000D02*
X16510000Y1270000D01*
X19177000Y10795000D02*
X16383000Y8001000D01*
%TO.N,CA4*%
X18415000Y11176000D02*
X13970000Y6731000D01*
D30*
X19892940Y12838628D02*
X18415000Y11360687D01*
D29*
X13970000Y6731000D02*
X13970000Y1270000D01*
D30*
X18415000Y11360687D02*
X18415000Y11176000D01*
%TO.N,CA3*%
D29*
X18542000Y12446000D02*
X11430000Y5334000D01*
D28*
X11430000Y4941368D02*
X11430000Y1270000D01*
D30*
X18934631Y12446000D02*
X18542000Y12446000D01*
D29*
X11430000Y5334000D02*
X11430000Y1270000D01*
D30*
X19610100Y13121468D02*
X18934631Y12446000D01*
%TO.N,CA2*%
D29*
X18034000Y13208000D02*
X8890000Y4064000D01*
X8890000Y4064000D02*
X8890000Y1270000D01*
D30*
X19130943Y13208000D02*
X18034000Y13208000D01*
D28*
X8890000Y2967056D02*
X8890000Y1270000D01*
D30*
X19327256Y13404312D02*
X19130943Y13208000D01*
%TO.N,CA1*%
X19130940Y14732000D02*
X18288000Y14732000D01*
D29*
X18288000Y14732000D02*
X6350000Y2794000D01*
D28*
X6350000Y1558428D02*
X6350000Y1270000D01*
D29*
X6350000Y2794000D02*
X6350000Y1270000D01*
D30*
X19327256Y14535684D02*
X19130940Y14732000D01*
%TO.N,CB9*%
X21024312Y17202687D02*
X20574000Y17653000D01*
X21024312Y16232740D02*
X21024312Y17202687D01*
%TO.N,CB8*%
X22155684Y17849315D02*
X20955000Y19050000D01*
X22155684Y16232740D02*
X22155684Y17849315D01*
%TO.N,CB7*%
X22438528Y15949896D02*
X22860000Y16371368D01*
X22098000Y18669000D02*
X22098000Y19431000D01*
X22860000Y16371368D02*
X22860000Y17907000D01*
X22860000Y17907000D02*
X22098000Y18669000D01*
%TO.N,CB6*%
X22721368Y15667056D02*
X23495000Y16440687D01*
X23495000Y16440687D02*
X23495000Y16891000D01*
D29*
X23495000Y19939000D02*
X23114000Y20320000D01*
X23495000Y16891000D02*
X23495000Y19939000D01*
%TO.N,CB5*%
D30*
X24511000Y16891000D02*
X24511000Y17272000D01*
D29*
X24511000Y17272000D02*
X24511000Y21082000D01*
X24511000Y21082000D02*
X24257000Y21336000D01*
D30*
X23004212Y15384212D02*
X24511000Y16891000D01*
%TO.N,CB4*%
X23287056Y15101368D02*
X25400000Y17214312D01*
X25400000Y17214312D02*
X25400000Y17526000D01*
D29*
X25400000Y17526000D02*
X25400000Y21971000D01*
%TO.N,CB3*%
D30*
X23569896Y14818528D02*
X26035000Y17283631D01*
X26035000Y17283631D02*
X26035000Y17780000D01*
D29*
X23622000Y22225000D02*
X23114000Y22225000D01*
X26543000Y18288000D02*
X26543000Y22225000D01*
X26035000Y17780000D02*
X26543000Y18288000D01*
X26543000Y22225000D02*
X25781000Y22987000D01*
X25781000Y22987000D02*
X24384000Y22987000D01*
X24384000Y22987000D02*
X23622000Y22225000D01*
%TO.N,CB2*%
X23114000Y23749000D02*
X21590000Y22225000D01*
X27432000Y22479000D02*
X26162000Y23749000D01*
D30*
X24430056Y15113000D02*
X24765000Y15113000D01*
D29*
X27432000Y17780000D02*
X27432000Y22479000D01*
X26162000Y23749000D02*
X23114000Y23749000D01*
D30*
X23852740Y14535684D02*
X24430056Y15113000D01*
D29*
X24765000Y15113000D02*
X27432000Y17780000D01*
%TO.N,CB1*%
D30*
X24672428Y14224000D02*
X23852740Y13404312D01*
D29*
X26797000Y24638000D02*
X28321000Y23114000D01*
X28321000Y17653000D02*
X24892000Y14224000D01*
X16510000Y26670000D02*
X18542000Y24638000D01*
X28321000Y23114000D02*
X28321000Y17653000D01*
X18542000Y24638000D02*
X26797000Y24638000D01*
D30*
X24892000Y14224000D02*
X24672428Y14224000D01*
%TD*%
%TA.AperFunction,Conductor*%
%TO.N,GND*%
G36*
X5479954Y27421194D02*
G01*
X5498260Y27377000D01*
X5486323Y27340263D01*
X5415440Y27242702D01*
X5337358Y27089457D01*
X5337354Y27089449D01*
X5284205Y26925873D01*
X5284205Y26925872D01*
X5257301Y26756010D01*
X5257300Y26755994D01*
X5257300Y26584005D01*
X5257301Y26583989D01*
X5284205Y26414127D01*
X5284205Y26414126D01*
X5337354Y26250550D01*
X5337358Y26250542D01*
X5415440Y26097297D01*
X5516534Y25958154D01*
X5516541Y25958146D01*
X5569194Y25905494D01*
X5587500Y25861300D01*
X5587500Y23201726D01*
X5569194Y23157532D01*
X4680868Y22269206D01*
X4636674Y22250900D01*
X3599305Y22250900D01*
X3555111Y22269206D01*
X3548741Y22276664D01*
X3527265Y22306224D01*
X3470335Y22384582D01*
X3334582Y22520335D01*
X3179262Y22633181D01*
X3008202Y22720341D01*
X2825614Y22779667D01*
X2665774Y22804983D01*
X2636006Y22809698D01*
X2636003Y22809698D01*
X2635993Y22809700D01*
X2444007Y22809700D01*
X2443999Y22809698D01*
X2443993Y22809698D01*
X2366830Y22797476D01*
X2254386Y22779667D01*
X2071798Y22720341D01*
X1900738Y22633181D01*
X1745418Y22520335D01*
X1745413Y22520330D01*
X1745410Y22520328D01*
X1609671Y22384589D01*
X1609668Y22384585D01*
X1609665Y22384582D01*
X1525840Y22269206D01*
X1496819Y22229262D01*
X1409660Y22058205D01*
X1409659Y22058203D01*
X1350332Y21875612D01*
X1350332Y21875611D01*
X1320301Y21686006D01*
X1320300Y21685990D01*
X1320300Y21494009D01*
X1320301Y21493993D01*
X1350332Y21304388D01*
X1350332Y21304387D01*
X1409659Y21121796D01*
X1409660Y21121794D01*
X1496819Y20950737D01*
X1609671Y20795410D01*
X1745410Y20659671D01*
X1745417Y20659665D01*
X1745418Y20659665D01*
X1777272Y20636522D01*
X1900737Y20546819D01*
X2071794Y20459660D01*
X2071796Y20459659D01*
X2238592Y20405464D01*
X2274966Y20374397D01*
X2278719Y20326709D01*
X2247652Y20290335D01*
X2238591Y20286582D01*
X2052801Y20226215D01*
X2052789Y20226210D01*
X1874791Y20135516D01*
X1713171Y20018092D01*
X1713163Y20018085D01*
X1571914Y19876836D01*
X1571907Y19876828D01*
X1454483Y19715208D01*
X1363789Y19537210D01*
X1363785Y19537202D01*
X1302053Y19347208D01*
X1302051Y19347199D01*
X1279053Y19202000D01*
X2063091Y19202000D01*
X2040000Y19115826D01*
X2040000Y18984174D01*
X2063091Y18898000D01*
X1279054Y18898000D01*
X1279053Y18897999D01*
X1302051Y18752800D01*
X1302053Y18752791D01*
X1363785Y18562797D01*
X1363789Y18562789D01*
X1454483Y18384791D01*
X1571907Y18223171D01*
X1571914Y18223163D01*
X1713163Y18081914D01*
X1713171Y18081907D01*
X1874791Y17964483D01*
X2052789Y17873789D01*
X2052797Y17873785D01*
X2238592Y17813417D01*
X2274966Y17782350D01*
X2278719Y17734662D01*
X2247652Y17698288D01*
X2238591Y17694535D01*
X2071798Y17640341D01*
X1900738Y17553181D01*
X1745418Y17440335D01*
X1745413Y17440330D01*
X1745410Y17440328D01*
X1609671Y17304589D01*
X1609668Y17304585D01*
X1609665Y17304582D01*
X1534359Y17200931D01*
X1496819Y17149262D01*
X1409660Y16978205D01*
X1409659Y16978203D01*
X1350332Y16795612D01*
X1350332Y16795611D01*
X1320301Y16606006D01*
X1320300Y16605990D01*
X1320300Y16414009D01*
X1320301Y16413993D01*
X1350332Y16224388D01*
X1350332Y16224387D01*
X1409659Y16041796D01*
X1409660Y16041794D01*
X1496819Y15870737D01*
X1609671Y15715410D01*
X1745410Y15579671D01*
X1900737Y15466819D01*
X2071794Y15379660D01*
X2071796Y15379659D01*
X2254387Y15320332D01*
X2371836Y15301730D01*
X2412623Y15276736D01*
X2423789Y15230223D01*
X2398795Y15189436D01*
X2371836Y15178270D01*
X2289024Y15165153D01*
X2254386Y15159667D01*
X2071798Y15100341D01*
X1900738Y15013181D01*
X1745418Y14900335D01*
X1745413Y14900330D01*
X1745410Y14900328D01*
X1609671Y14764589D01*
X1609668Y14764585D01*
X1609665Y14764582D01*
X1526367Y14649931D01*
X1496819Y14609262D01*
X1409660Y14438205D01*
X1409659Y14438203D01*
X1350332Y14255612D01*
X1350332Y14255611D01*
X1320301Y14066006D01*
X1320300Y14065990D01*
X1320300Y13874009D01*
X1320301Y13873993D01*
X1350332Y13684388D01*
X1350332Y13684387D01*
X1409659Y13501796D01*
X1409660Y13501794D01*
X1496819Y13330737D01*
X1609671Y13175410D01*
X1745410Y13039671D01*
X1745417Y13039665D01*
X1745418Y13039665D01*
X1766799Y13024131D01*
X1900737Y12926819D01*
X2071794Y12839660D01*
X2071796Y12839659D01*
X2254387Y12780332D01*
X2371836Y12761730D01*
X2412623Y12736736D01*
X2423789Y12690223D01*
X2398795Y12649436D01*
X2371836Y12638270D01*
X2289024Y12625153D01*
X2254386Y12619667D01*
X2071798Y12560341D01*
X1900738Y12473181D01*
X1745418Y12360335D01*
X1745413Y12360330D01*
X1745410Y12360328D01*
X1609671Y12224589D01*
X1609668Y12224585D01*
X1609665Y12224582D01*
X1516778Y12096733D01*
X1496819Y12069262D01*
X1409660Y11898205D01*
X1409659Y11898203D01*
X1350332Y11715612D01*
X1350332Y11715611D01*
X1320301Y11526006D01*
X1320300Y11525990D01*
X1320300Y11334009D01*
X1320301Y11333993D01*
X1350332Y11144388D01*
X1350332Y11144387D01*
X1409659Y10961796D01*
X1409660Y10961794D01*
X1496819Y10790737D01*
X1609671Y10635410D01*
X1745410Y10499671D01*
X1745417Y10499665D01*
X1745418Y10499665D01*
X1773538Y10479235D01*
X1900737Y10386819D01*
X2071794Y10299660D01*
X2071796Y10299659D01*
X2254387Y10240332D01*
X2371836Y10221730D01*
X2412623Y10196736D01*
X2423789Y10150223D01*
X2398795Y10109436D01*
X2371836Y10098270D01*
X2289024Y10085153D01*
X2254386Y10079667D01*
X2071798Y10020341D01*
X1900738Y9933181D01*
X1745418Y9820335D01*
X1745413Y9820330D01*
X1745410Y9820328D01*
X1609671Y9684589D01*
X1609668Y9684585D01*
X1609665Y9684582D01*
X1535352Y9582298D01*
X1496819Y9529262D01*
X1409660Y9358205D01*
X1409659Y9358203D01*
X1350332Y9175612D01*
X1350332Y9175611D01*
X1320301Y8986006D01*
X1320300Y8985990D01*
X1320300Y8794009D01*
X1320301Y8793993D01*
X1350332Y8604388D01*
X1350332Y8604387D01*
X1409659Y8421796D01*
X1409660Y8421794D01*
X1496819Y8250737D01*
X1586502Y8127298D01*
X1608941Y8096414D01*
X1609671Y8095410D01*
X1745410Y7959671D01*
X1900737Y7846819D01*
X2071794Y7759660D01*
X2071796Y7759659D01*
X2254387Y7700332D01*
X2371836Y7681730D01*
X2412623Y7656736D01*
X2423789Y7610223D01*
X2398795Y7569436D01*
X2371836Y7558270D01*
X2289024Y7545153D01*
X2254386Y7539667D01*
X2071798Y7480341D01*
X1900738Y7393181D01*
X1745418Y7280335D01*
X1745413Y7280330D01*
X1745410Y7280328D01*
X1609671Y7144589D01*
X1609668Y7144585D01*
X1609665Y7144582D01*
X1539194Y7047586D01*
X1496819Y6989262D01*
X1409660Y6818205D01*
X1409659Y6818203D01*
X1350332Y6635612D01*
X1350332Y6635611D01*
X1320301Y6446006D01*
X1320300Y6445990D01*
X1320300Y6254009D01*
X1320301Y6253993D01*
X1350332Y6064388D01*
X1350332Y6064387D01*
X1409659Y5881796D01*
X1409660Y5881794D01*
X1496819Y5710737D01*
X1547075Y5641566D01*
X1608590Y5556897D01*
X1609671Y5555410D01*
X1745410Y5419671D01*
X1900737Y5306819D01*
X2071794Y5219660D01*
X2071796Y5219659D01*
X2254387Y5160332D01*
X2443993Y5130301D01*
X2444005Y5130300D01*
X2444007Y5130300D01*
X2444009Y5130300D01*
X2635991Y5130300D01*
X2635993Y5130300D01*
X2635994Y5130300D01*
X2636006Y5130301D01*
X2825611Y5160332D01*
X2825612Y5160332D01*
X3008203Y5219659D01*
X3008205Y5219660D01*
X3179262Y5306819D01*
X3179463Y5306965D01*
X3334582Y5419665D01*
X3334585Y5419668D01*
X3334589Y5419671D01*
X3470328Y5555410D01*
X3470330Y5555413D01*
X3470335Y5555418D01*
X3583181Y5710738D01*
X3670341Y5881798D01*
X3729667Y6064386D01*
X3759700Y6254007D01*
X3759700Y6445993D01*
X3729667Y6635614D01*
X3670341Y6818202D01*
X3583181Y6989262D01*
X3470335Y7144582D01*
X3334582Y7280335D01*
X3179262Y7393181D01*
X3008202Y7480341D01*
X2825614Y7539667D01*
X2784985Y7546101D01*
X2708163Y7558270D01*
X2667376Y7583264D01*
X2656210Y7629777D01*
X2681204Y7670564D01*
X2708163Y7681730D01*
X2825611Y7700332D01*
X2825612Y7700332D01*
X3008203Y7759659D01*
X3008205Y7759660D01*
X3179262Y7846819D01*
X3334582Y7959665D01*
X3334585Y7959668D01*
X3334589Y7959671D01*
X3470328Y8095410D01*
X3470330Y8095413D01*
X3470335Y8095418D01*
X3583181Y8250738D01*
X3670341Y8421798D01*
X3729667Y8604386D01*
X3759700Y8794007D01*
X3759700Y8985993D01*
X3729667Y9175614D01*
X3670341Y9358202D01*
X3583181Y9529262D01*
X3470335Y9684582D01*
X3334582Y9820335D01*
X3179262Y9933181D01*
X3008202Y10020341D01*
X2825614Y10079667D01*
X2781449Y10086662D01*
X2708163Y10098270D01*
X2667376Y10123264D01*
X2656210Y10169777D01*
X2681204Y10210564D01*
X2708163Y10221730D01*
X2825611Y10240332D01*
X2825612Y10240332D01*
X3008203Y10299659D01*
X3008205Y10299660D01*
X3179262Y10386819D01*
X3180198Y10387499D01*
X3334582Y10499665D01*
X3334585Y10499668D01*
X3334589Y10499671D01*
X3470328Y10635410D01*
X3470330Y10635413D01*
X3470335Y10635418D01*
X3583181Y10790738D01*
X3670341Y10961798D01*
X3729667Y11144386D01*
X3747729Y11258424D01*
X3759698Y11333993D01*
X3759700Y11334009D01*
X3759700Y11525990D01*
X3759698Y11526006D01*
X3750687Y11582900D01*
X3729667Y11715614D01*
X3670341Y11898202D01*
X3583181Y12069262D01*
X3470335Y12224582D01*
X3334582Y12360335D01*
X3179262Y12473181D01*
X3008202Y12560341D01*
X2825614Y12619667D01*
X2784985Y12626101D01*
X2708163Y12638270D01*
X2667376Y12663264D01*
X2656210Y12709777D01*
X2681204Y12750564D01*
X2708163Y12761730D01*
X2825611Y12780332D01*
X2825612Y12780332D01*
X3008203Y12839659D01*
X3008205Y12839660D01*
X3179262Y12926819D01*
X3199674Y12941649D01*
X3334582Y13039665D01*
X3334585Y13039668D01*
X3334589Y13039671D01*
X3470328Y13175410D01*
X3470330Y13175413D01*
X3470335Y13175418D01*
X3583181Y13330738D01*
X3670341Y13501798D01*
X3729667Y13684386D01*
X3754890Y13843636D01*
X3759698Y13873993D01*
X3759700Y13874009D01*
X3759700Y14065990D01*
X3759698Y14066006D01*
X3736529Y14212286D01*
X3729667Y14255614D01*
X3670341Y14438202D01*
X3583181Y14609262D01*
X3470335Y14764582D01*
X3334582Y14900335D01*
X3179262Y15013181D01*
X3008202Y15100341D01*
X2825614Y15159667D01*
X2784985Y15166101D01*
X2708163Y15178270D01*
X2667376Y15203264D01*
X2656210Y15249777D01*
X2681204Y15290564D01*
X2708163Y15301730D01*
X2825611Y15320332D01*
X2825612Y15320332D01*
X3008203Y15379659D01*
X3008205Y15379660D01*
X3179262Y15466819D01*
X3222811Y15498459D01*
X3334582Y15579665D01*
X3334585Y15579668D01*
X3334589Y15579671D01*
X3470328Y15715410D01*
X3470330Y15715413D01*
X3470335Y15715418D01*
X3583181Y15870738D01*
X3670341Y16041798D01*
X3729667Y16224386D01*
X3751754Y16363836D01*
X3759698Y16413993D01*
X3759700Y16414009D01*
X3759700Y16605990D01*
X3759698Y16606006D01*
X3752196Y16653374D01*
X3729667Y16795614D01*
X3670341Y16978202D01*
X3583181Y17149262D01*
X3470335Y17304582D01*
X3334582Y17440335D01*
X3179262Y17553181D01*
X3008202Y17640341D01*
X2841407Y17694535D01*
X2805033Y17725601D01*
X2801280Y17773289D01*
X2832346Y17809664D01*
X2841407Y17813417D01*
X3027202Y17873785D01*
X3027210Y17873789D01*
X3205208Y17964483D01*
X3366828Y18081907D01*
X3366836Y18081914D01*
X3508085Y18223163D01*
X3508092Y18223171D01*
X3625516Y18384791D01*
X3716210Y18562789D01*
X3716214Y18562797D01*
X3777946Y18752791D01*
X3777948Y18752800D01*
X3800946Y18897999D01*
X3800946Y18898000D01*
X3016909Y18898000D01*
X3040000Y18984174D01*
X3040000Y19115826D01*
X3016909Y19202000D01*
X3800946Y19202000D01*
X3777948Y19347199D01*
X3777946Y19347208D01*
X3716214Y19537202D01*
X3716210Y19537210D01*
X3625516Y19715208D01*
X3508092Y19876828D01*
X3508085Y19876836D01*
X3366836Y20018085D01*
X3366828Y20018092D01*
X3205208Y20135516D01*
X3027210Y20226210D01*
X3027198Y20226215D01*
X2841408Y20286582D01*
X2805033Y20317648D01*
X2801280Y20365336D01*
X2832346Y20401711D01*
X2841407Y20405464D01*
X3008203Y20459659D01*
X3008205Y20459660D01*
X3179262Y20546819D01*
X3246589Y20595735D01*
X3334582Y20659665D01*
X3334585Y20659668D01*
X3334589Y20659671D01*
X3470333Y20795415D01*
X3491517Y20824573D01*
X3548741Y20903336D01*
X3589528Y20928330D01*
X3599305Y20929100D01*
X4255000Y20929100D01*
X4299194Y20910794D01*
X4317500Y20866600D01*
X4317500Y11100898D01*
X4346055Y10957348D01*
X4346056Y10957344D01*
X4346803Y10953586D01*
X4346804Y10953582D01*
X4404282Y10814820D01*
X4404283Y10814817D01*
X4487726Y10689935D01*
X7895935Y7281726D01*
X8020817Y7198283D01*
X8020820Y7198282D01*
X8159585Y7140803D01*
X8159588Y7140802D01*
X8306899Y7111501D01*
X8306900Y7111501D01*
X8457100Y7111501D01*
X8604411Y7140802D01*
X8604414Y7140803D01*
X8743179Y7198282D01*
X8743182Y7198283D01*
X8868064Y7281726D01*
X8974273Y7387935D01*
X9057716Y7512817D01*
X9057717Y7512820D01*
X9057718Y7512821D01*
X9115197Y7651587D01*
X9144499Y7798900D01*
X9144499Y7949100D01*
X9115197Y8096413D01*
X9057718Y8235179D01*
X8974273Y8360065D01*
X6891085Y10443252D01*
X6872780Y10487445D01*
X6891086Y10531639D01*
X6935280Y10549945D01*
X6955920Y10546439D01*
X6964833Y10543320D01*
X6964837Y10543319D01*
X6985410Y10541390D01*
X6994906Y10540500D01*
X6994910Y10540500D01*
X8245090Y10540500D01*
X8245094Y10540500D01*
X8255403Y10541466D01*
X8275162Y10543319D01*
X8275167Y10543320D01*
X8401783Y10587625D01*
X8401784Y10587625D01*
X8509715Y10667283D01*
X8523683Y10686208D01*
X8566124Y10743714D01*
X8607096Y10768402D01*
X8616411Y10769100D01*
X9163589Y10769100D01*
X9207783Y10750794D01*
X9213876Y10743714D01*
X9270284Y10667283D01*
X9378216Y10587625D01*
X9504832Y10543320D01*
X9504837Y10543319D01*
X9525410Y10541390D01*
X9534906Y10540500D01*
X9757010Y10540500D01*
X9801204Y10522194D01*
X9811137Y10509248D01*
X9813123Y10505810D01*
X9813159Y10505747D01*
X9854724Y10433752D01*
X10461015Y9827460D01*
X10479321Y9783266D01*
X10478120Y9771073D01*
X10468300Y9721702D01*
X10468300Y9582297D01*
X10495496Y9445573D01*
X10495496Y9445572D01*
X10548845Y9316777D01*
X10548846Y9316775D01*
X10626293Y9200868D01*
X10724868Y9102293D01*
X10840775Y9024846D01*
X10840777Y9024845D01*
X10969573Y8971496D01*
X11106297Y8944300D01*
X11106298Y8944300D01*
X11245702Y8944300D01*
X11382426Y8971496D01*
X11382427Y8971496D01*
X11511222Y9024845D01*
X11511224Y9024846D01*
X11627131Y9102293D01*
X11725706Y9200868D01*
X11803153Y9316775D01*
X11803154Y9316777D01*
X11803155Y9316778D01*
X11856503Y9445572D01*
X11883700Y9582298D01*
X11883700Y9721702D01*
X11856503Y9858428D01*
X11803155Y9987222D01*
X11725706Y10103132D01*
X11627132Y10201706D01*
X11511222Y10279155D01*
X11382428Y10332503D01*
X11245702Y10359700D01*
X11106298Y10359700D01*
X11056924Y10349878D01*
X11010010Y10359209D01*
X11000543Y10366978D01*
X10892193Y10475328D01*
X10873888Y10519521D01*
X10892194Y10563715D01*
X10915745Y10578514D01*
X10941784Y10587625D01*
X11049715Y10667283D01*
X11063683Y10686208D01*
X11106124Y10743714D01*
X11147096Y10768402D01*
X11156411Y10769100D01*
X11830589Y10769100D01*
X11874783Y10750794D01*
X11880876Y10743714D01*
X11937284Y10667283D01*
X12045216Y10587625D01*
X12171832Y10543320D01*
X12171837Y10543319D01*
X12192410Y10541390D01*
X12201906Y10540500D01*
X13298327Y10540500D01*
X13342521Y10522194D01*
X13360827Y10478000D01*
X13342521Y10433806D01*
X5983749Y3075035D01*
X5923492Y2970666D01*
X5923492Y2970665D01*
X5917024Y2946528D01*
X5892300Y2854262D01*
X5892300Y2301456D01*
X5873994Y2257262D01*
X5858174Y2245768D01*
X5777300Y2204561D01*
X5777297Y2204559D01*
X5638154Y2103465D01*
X5638146Y2103458D01*
X5516541Y1981853D01*
X5516534Y1981845D01*
X5415440Y1842702D01*
X5337358Y1689457D01*
X5337354Y1689449D01*
X5284205Y1525873D01*
X5284205Y1525872D01*
X5257301Y1356010D01*
X5257300Y1355994D01*
X5257300Y1184005D01*
X5257301Y1183989D01*
X5284205Y1014127D01*
X5284205Y1014126D01*
X5337354Y850550D01*
X5337358Y850542D01*
X5415440Y697297D01*
X5486323Y599737D01*
X5497491Y553223D01*
X5472497Y512437D01*
X5435760Y500500D01*
X3165695Y500500D01*
X3121501Y518806D01*
X3103195Y563000D01*
X3121501Y607194D01*
X3146382Y622441D01*
X3295201Y670794D01*
X3547994Y794090D01*
X3547995Y794090D01*
X3548000Y794093D01*
X3781174Y951370D01*
X3781177Y951372D01*
X3990185Y1139564D01*
X3990189Y1139569D01*
X4027462Y1183989D01*
X4170978Y1355025D01*
X4320022Y1593545D01*
X4434420Y1850487D01*
X4511946Y2120850D01*
X4534684Y2282641D01*
X4551089Y2399368D01*
X4551089Y2680631D01*
X4531421Y2820577D01*
X4511946Y2959150D01*
X4434420Y3229513D01*
X4320022Y3486455D01*
X4170978Y3724975D01*
X3990189Y3940431D01*
X3781174Y4128630D01*
X3548000Y4285907D01*
X3295207Y4409203D01*
X3027715Y4496116D01*
X2750729Y4544956D01*
X2469643Y4554772D01*
X2189925Y4525372D01*
X1917022Y4457330D01*
X1917015Y4457327D01*
X1917014Y4457327D01*
X1797908Y4409205D01*
X1656244Y4351969D01*
X1412667Y4211340D01*
X1191033Y4038180D01*
X1191031Y4038178D01*
X995653Y3835859D01*
X830332Y3608313D01*
X830330Y3608310D01*
X719007Y3398940D01*
X698292Y3359981D01*
X621730Y3149628D01*
X589414Y3114362D01*
X541624Y3112275D01*
X506356Y3144592D01*
X500500Y3171006D01*
X500500Y24768993D01*
X518806Y24813187D01*
X563000Y24831493D01*
X607194Y24813187D01*
X621730Y24790369D01*
X629511Y24768993D01*
X698292Y24580017D01*
X698296Y24580010D01*
X830330Y24331689D01*
X830332Y24331686D01*
X995653Y24104140D01*
X1191031Y23901821D01*
X1412667Y23728660D01*
X1656242Y23588031D01*
X1656244Y23588030D01*
X1917014Y23482672D01*
X1917021Y23482670D01*
X1917022Y23482670D01*
X2189925Y23414628D01*
X2469643Y23385228D01*
X2750720Y23395043D01*
X2750727Y23395043D01*
X2750729Y23395044D01*
X2750731Y23395044D01*
X2750736Y23395045D01*
X3027709Y23443883D01*
X3027715Y23443884D01*
X3033995Y23445924D01*
X3295201Y23530794D01*
X3547994Y23654090D01*
X3547995Y23654090D01*
X3548000Y23654093D01*
X3781174Y23811370D01*
X3781177Y23811372D01*
X3990185Y23999564D01*
X3990189Y23999569D01*
X4087258Y24115251D01*
X4170978Y24215025D01*
X4320022Y24453545D01*
X4434420Y24710487D01*
X4511946Y24980850D01*
X4551089Y25259371D01*
X4551089Y25540629D01*
X4548939Y25555924D01*
X4529660Y25693106D01*
X4511946Y25819150D01*
X4434420Y26089513D01*
X4320022Y26346455D01*
X4170978Y26584975D01*
X3990189Y26800431D01*
X3966234Y26822000D01*
X3920707Y26862993D01*
X3781174Y26988630D01*
X3548000Y27145907D01*
X3295207Y27269203D01*
X3146382Y27317559D01*
X3110007Y27348625D01*
X3106254Y27396313D01*
X3137320Y27432688D01*
X3165695Y27439500D01*
X5435760Y27439500D01*
X5479954Y27421194D01*
G37*
%TD.AperFunction*%
%TA.AperFunction,Conductor*%
G36*
X24627929Y10690770D02*
G01*
X24630513Y10690078D01*
X24714770Y10667500D01*
X24714775Y10667500D01*
X27248089Y10667500D01*
X27292283Y10649194D01*
X27509783Y10431693D01*
X27528089Y10387499D01*
X27509783Y10343305D01*
X27465589Y10324999D01*
X27264000Y10324999D01*
X27264000Y8217000D01*
X27750000Y8217000D01*
X27794194Y8198694D01*
X27812500Y8154500D01*
X27812500Y6045770D01*
X27838498Y5948748D01*
X27838500Y5948742D01*
X27858791Y5913597D01*
X27888722Y5861754D01*
X27888723Y5861753D01*
X28495015Y5255460D01*
X28513321Y5211266D01*
X28512120Y5199073D01*
X28502300Y5149702D01*
X28502300Y5010297D01*
X28529496Y4873573D01*
X28529496Y4873572D01*
X28582845Y4744777D01*
X28582846Y4744775D01*
X28660293Y4628868D01*
X28758868Y4530293D01*
X28758873Y4530289D01*
X28775324Y4519297D01*
X28801899Y4479523D01*
X28803100Y4467331D01*
X28803100Y2327340D01*
X28784794Y2283146D01*
X28768974Y2271652D01*
X28637300Y2204561D01*
X28637297Y2204559D01*
X28498154Y2103465D01*
X28498146Y2103458D01*
X28376541Y1981853D01*
X28376534Y1981845D01*
X28275440Y1842702D01*
X28197358Y1689457D01*
X28197354Y1689449D01*
X28144205Y1525873D01*
X28144205Y1525872D01*
X28117301Y1356010D01*
X28117300Y1355994D01*
X28117300Y1184005D01*
X28117301Y1183989D01*
X28144205Y1014127D01*
X28144205Y1014126D01*
X28197354Y850550D01*
X28197358Y850542D01*
X28275440Y697297D01*
X28346323Y599737D01*
X28357491Y553223D01*
X28332497Y512437D01*
X28295760Y500500D01*
X27584240Y500500D01*
X27540046Y518806D01*
X27521740Y563000D01*
X27533677Y599737D01*
X27604559Y697297D01*
X27620219Y728030D01*
X27682645Y850549D01*
X27735794Y1014125D01*
X27755662Y1139569D01*
X27762698Y1183989D01*
X27762700Y1184005D01*
X27762700Y1355994D01*
X27762698Y1356010D01*
X27759726Y1374770D01*
X27735794Y1525875D01*
X27682645Y1689451D01*
X27604561Y1842700D01*
X27503465Y1981846D01*
X27381846Y2103465D01*
X27242700Y2204561D01*
X27161825Y2245768D01*
X27130759Y2282142D01*
X27127700Y2301456D01*
X27127700Y2854256D01*
X27127699Y2854262D01*
X27110520Y2918369D01*
X27096508Y2970665D01*
X27096508Y2970666D01*
X27036251Y3075035D01*
X23082006Y7029280D01*
X23063700Y7073474D01*
X23063700Y8965586D01*
X23082006Y9009780D01*
X23126200Y9028086D01*
X23170394Y9009780D01*
X23187499Y8977779D01*
X23195496Y8937573D01*
X23195496Y8937572D01*
X23248845Y8808777D01*
X23248846Y8808775D01*
X23326293Y8692868D01*
X23424868Y8594293D01*
X23540775Y8516846D01*
X23540777Y8516845D01*
X23669573Y8463496D01*
X23806297Y8436300D01*
X23806298Y8436300D01*
X23945702Y8436300D01*
X24082426Y8463496D01*
X24082427Y8463496D01*
X24211222Y8516845D01*
X24211224Y8516846D01*
X24241241Y8536903D01*
X24288157Y8546235D01*
X24327931Y8519659D01*
X24337263Y8497129D01*
X24343953Y8463496D01*
X24352246Y8421798D01*
X24352266Y8421700D01*
X24352267Y8421696D01*
X24408515Y8337515D01*
X24492697Y8281266D01*
X24492699Y8281265D01*
X24566932Y8266500D01*
X24566933Y8266500D01*
X25857064Y8266500D01*
X25857068Y8266501D01*
X25931299Y8281265D01*
X25931303Y8281267D01*
X26015484Y8337515D01*
X26071732Y8421696D01*
X26071734Y8421699D01*
X26074081Y8433502D01*
X26100655Y8473274D01*
X26147571Y8482609D01*
X26187345Y8456034D01*
X26192554Y8446555D01*
X26236856Y8346222D01*
X26317221Y8265857D01*
X26421194Y8219948D01*
X26446611Y8217000D01*
X26960000Y8217000D01*
X26960000Y10324999D01*
X26446612Y10324999D01*
X26421192Y10322050D01*
X26421191Y10322050D01*
X26317221Y10276142D01*
X26236857Y10195778D01*
X26192555Y10095444D01*
X26157957Y10062409D01*
X26110135Y10063514D01*
X26077100Y10098112D01*
X26074084Y10108484D01*
X26071734Y10120301D01*
X26015484Y10204484D01*
X25931301Y10260734D01*
X25857067Y10275500D01*
X24566934Y10275499D01*
X24492699Y10260734D01*
X24492698Y10260733D01*
X24492696Y10260732D01*
X24408515Y10204484D01*
X24348846Y10115183D01*
X24347762Y10115906D01*
X24318521Y10086662D01*
X24270686Y10086659D01*
X24236859Y10120482D01*
X24232100Y10144403D01*
X24232100Y10599507D01*
X24232098Y10599515D01*
X24231631Y10601257D01*
X24230717Y10604667D01*
X24228158Y10614224D01*
X24234402Y10661650D01*
X24272352Y10690770D01*
X24288528Y10692900D01*
X24611754Y10692900D01*
X24627929Y10690770D01*
G37*
%TD.AperFunction*%
%TA.AperFunction,Conductor*%
G36*
X18179954Y27421194D02*
G01*
X18198260Y27377000D01*
X18186323Y27340263D01*
X18115440Y27242702D01*
X18037358Y27089457D01*
X18037354Y27089449D01*
X17984205Y26925873D01*
X17984205Y26925872D01*
X17957301Y26756010D01*
X17957300Y26755994D01*
X17957300Y26584005D01*
X17957301Y26583989D01*
X17984205Y26414127D01*
X17984205Y26414126D01*
X18037354Y26250550D01*
X18037358Y26250542D01*
X18115440Y26097297D01*
X18216534Y25958154D01*
X18216541Y25958146D01*
X18338146Y25836541D01*
X18338154Y25836534D01*
X18477297Y25735440D01*
X18630542Y25657358D01*
X18630550Y25657354D01*
X18794126Y25604205D01*
X18963989Y25577301D01*
X18964001Y25577300D01*
X18964003Y25577300D01*
X18964005Y25577300D01*
X19135995Y25577300D01*
X19135997Y25577300D01*
X19135998Y25577300D01*
X19136010Y25577301D01*
X19305872Y25604205D01*
X19305873Y25604205D01*
X19469449Y25657354D01*
X19469457Y25657358D01*
X19622702Y25735440D01*
X19761845Y25836534D01*
X19761853Y25836541D01*
X19883458Y25958146D01*
X19883465Y25958154D01*
X19984559Y26097297D01*
X20026945Y26180483D01*
X20062645Y26250549D01*
X20115794Y26414125D01*
X20132246Y26518000D01*
X20142698Y26583989D01*
X20142700Y26584005D01*
X20142700Y26755994D01*
X20142698Y26756010D01*
X20138541Y26782253D01*
X20115794Y26925875D01*
X20062645Y27089451D01*
X19984561Y27242700D01*
X19913677Y27340263D01*
X19902509Y27386777D01*
X19927503Y27427563D01*
X19964240Y27439500D01*
X20675760Y27439500D01*
X20719954Y27421194D01*
X20738260Y27377000D01*
X20726323Y27340263D01*
X20655440Y27242702D01*
X20577358Y27089457D01*
X20577354Y27089449D01*
X20524205Y26925873D01*
X20524205Y26925872D01*
X20497301Y26756010D01*
X20497300Y26755994D01*
X20497300Y26584005D01*
X20497301Y26583989D01*
X20524205Y26414127D01*
X20524205Y26414126D01*
X20577354Y26250550D01*
X20577358Y26250542D01*
X20655440Y26097297D01*
X20756534Y25958154D01*
X20756541Y25958146D01*
X20878146Y25836541D01*
X20878154Y25836534D01*
X21017297Y25735440D01*
X21170542Y25657358D01*
X21170550Y25657354D01*
X21334126Y25604205D01*
X21503989Y25577301D01*
X21504001Y25577300D01*
X21504003Y25577300D01*
X21504005Y25577300D01*
X21675995Y25577300D01*
X21675997Y25577300D01*
X21675998Y25577300D01*
X21676010Y25577301D01*
X21845872Y25604205D01*
X21845873Y25604205D01*
X22009449Y25657354D01*
X22009457Y25657358D01*
X22162702Y25735440D01*
X22301845Y25836534D01*
X22301853Y25836541D01*
X22423458Y25958146D01*
X22423465Y25958154D01*
X22524559Y26097297D01*
X22566945Y26180483D01*
X22602645Y26250549D01*
X22655794Y26414125D01*
X22672246Y26518000D01*
X22682698Y26583989D01*
X22682700Y26584005D01*
X22682700Y26755994D01*
X22682698Y26756010D01*
X22678541Y26782253D01*
X22655794Y26925875D01*
X22602645Y27089451D01*
X22524561Y27242700D01*
X22453677Y27340263D01*
X22442509Y27386777D01*
X22467503Y27427563D01*
X22504240Y27439500D01*
X23215760Y27439500D01*
X23259954Y27421194D01*
X23278260Y27377000D01*
X23266323Y27340263D01*
X23195440Y27242702D01*
X23117358Y27089457D01*
X23117354Y27089449D01*
X23064205Y26925873D01*
X23064205Y26925872D01*
X23037301Y26756010D01*
X23037300Y26755994D01*
X23037300Y26584005D01*
X23037301Y26583989D01*
X23064205Y26414127D01*
X23064205Y26414126D01*
X23117354Y26250550D01*
X23117358Y26250542D01*
X23195440Y26097297D01*
X23296534Y25958154D01*
X23296541Y25958146D01*
X23418146Y25836541D01*
X23418154Y25836534D01*
X23557297Y25735440D01*
X23710542Y25657358D01*
X23710550Y25657354D01*
X23874126Y25604205D01*
X24043989Y25577301D01*
X24044001Y25577300D01*
X24044003Y25577300D01*
X24044005Y25577300D01*
X24215995Y25577300D01*
X24215997Y25577300D01*
X24215998Y25577300D01*
X24216010Y25577301D01*
X24385872Y25604205D01*
X24385873Y25604205D01*
X24549449Y25657354D01*
X24549457Y25657358D01*
X24702702Y25735440D01*
X24841845Y25836534D01*
X24841853Y25836541D01*
X24963458Y25958146D01*
X24963465Y25958154D01*
X25064559Y26097297D01*
X25106945Y26180483D01*
X25142645Y26250549D01*
X25195794Y26414125D01*
X25212246Y26518000D01*
X25222698Y26583989D01*
X25222700Y26584005D01*
X25222700Y26755994D01*
X25222698Y26756010D01*
X25218541Y26782253D01*
X25195794Y26925875D01*
X25142645Y27089451D01*
X25064561Y27242700D01*
X24993677Y27340263D01*
X24982509Y27386777D01*
X25007503Y27427563D01*
X25044240Y27439500D01*
X25755760Y27439500D01*
X25799954Y27421194D01*
X25818260Y27377000D01*
X25806323Y27340263D01*
X25735440Y27242702D01*
X25657358Y27089457D01*
X25657354Y27089449D01*
X25604205Y26925873D01*
X25604205Y26925872D01*
X25577301Y26756010D01*
X25577300Y26755994D01*
X25577300Y26584005D01*
X25577301Y26583989D01*
X25604205Y26414127D01*
X25604205Y26414126D01*
X25657354Y26250550D01*
X25657358Y26250542D01*
X25735440Y26097297D01*
X25836534Y25958154D01*
X25836541Y25958146D01*
X25958146Y25836541D01*
X25958154Y25836534D01*
X26097297Y25735440D01*
X26250542Y25657358D01*
X26250550Y25657354D01*
X26414126Y25604205D01*
X26583989Y25577301D01*
X26584001Y25577300D01*
X26584003Y25577300D01*
X26584005Y25577300D01*
X26755995Y25577300D01*
X26755997Y25577300D01*
X26755998Y25577300D01*
X26756010Y25577301D01*
X26925872Y25604205D01*
X26925873Y25604205D01*
X27089449Y25657354D01*
X27089457Y25657358D01*
X27242702Y25735440D01*
X27381845Y25836534D01*
X27381853Y25836541D01*
X27503458Y25958146D01*
X27503465Y25958154D01*
X27604559Y26097297D01*
X27646945Y26180483D01*
X27682645Y26250549D01*
X27735794Y26414125D01*
X27752246Y26518000D01*
X27762698Y26583989D01*
X27762700Y26584005D01*
X27762700Y26755994D01*
X27762698Y26756010D01*
X27758541Y26782253D01*
X27735794Y26925875D01*
X27682645Y27089451D01*
X27604561Y27242700D01*
X27533677Y27340263D01*
X27522509Y27386777D01*
X27547503Y27427563D01*
X27584240Y27439500D01*
X28295760Y27439500D01*
X28339954Y27421194D01*
X28358260Y27377000D01*
X28346323Y27340263D01*
X28275440Y27242702D01*
X28197358Y27089457D01*
X28197354Y27089449D01*
X28144205Y26925873D01*
X28144205Y26925872D01*
X28117301Y26756010D01*
X28117300Y26755994D01*
X28117300Y26584005D01*
X28117301Y26583989D01*
X28144205Y26414127D01*
X28144205Y26414126D01*
X28197354Y26250550D01*
X28197358Y26250542D01*
X28275440Y26097297D01*
X28376534Y25958154D01*
X28376541Y25958146D01*
X28498146Y25836541D01*
X28498154Y25836534D01*
X28637297Y25735440D01*
X28790542Y25657358D01*
X28790550Y25657354D01*
X28954126Y25604205D01*
X29123989Y25577301D01*
X29124001Y25577300D01*
X29124003Y25577300D01*
X29124005Y25577300D01*
X29295995Y25577300D01*
X29295997Y25577300D01*
X29295998Y25577300D01*
X29296010Y25577301D01*
X29465872Y25604205D01*
X29465873Y25604205D01*
X29629449Y25657354D01*
X29629457Y25657358D01*
X29782702Y25735440D01*
X29921845Y25836534D01*
X29921853Y25836541D01*
X30043458Y25958146D01*
X30043465Y25958154D01*
X30144559Y26097297D01*
X30186945Y26180483D01*
X30222645Y26250549D01*
X30275794Y26414125D01*
X30292246Y26518000D01*
X30302698Y26583989D01*
X30302700Y26584005D01*
X30302700Y26755994D01*
X30302698Y26756010D01*
X30298541Y26782253D01*
X30275794Y26925875D01*
X30222645Y27089451D01*
X30144561Y27242700D01*
X30073677Y27340263D01*
X30062509Y27386777D01*
X30087503Y27427563D01*
X30124240Y27439500D01*
X30835760Y27439500D01*
X30879954Y27421194D01*
X30898260Y27377000D01*
X30886323Y27340263D01*
X30815440Y27242702D01*
X30737358Y27089457D01*
X30737354Y27089449D01*
X30684205Y26925873D01*
X30684205Y26925872D01*
X30657301Y26756010D01*
X30657300Y26755994D01*
X30657300Y26584005D01*
X30657301Y26583989D01*
X30684205Y26414127D01*
X30684205Y26414126D01*
X30737354Y26250550D01*
X30737358Y26250542D01*
X30815440Y26097297D01*
X30916534Y25958154D01*
X30916541Y25958146D01*
X31038146Y25836541D01*
X31038154Y25836534D01*
X31177297Y25735440D01*
X31330542Y25657358D01*
X31330550Y25657354D01*
X31494126Y25604205D01*
X31663989Y25577301D01*
X31664001Y25577300D01*
X31664003Y25577300D01*
X31664005Y25577300D01*
X31835995Y25577300D01*
X31835997Y25577300D01*
X31835998Y25577300D01*
X31836010Y25577301D01*
X32005872Y25604205D01*
X32005873Y25604205D01*
X32169449Y25657354D01*
X32169457Y25657358D01*
X32322702Y25735440D01*
X32461845Y25836534D01*
X32461853Y25836541D01*
X32583458Y25958146D01*
X32583465Y25958154D01*
X32684559Y26097297D01*
X32726945Y26180483D01*
X32762645Y26250549D01*
X32815794Y26414125D01*
X32832246Y26518000D01*
X32842698Y26583989D01*
X32842700Y26584005D01*
X32842700Y26755994D01*
X32842698Y26756010D01*
X32838541Y26782253D01*
X32815794Y26925875D01*
X32762645Y27089451D01*
X32684561Y27242700D01*
X32613677Y27340263D01*
X32602509Y27386777D01*
X32627503Y27427563D01*
X32664240Y27439500D01*
X33375760Y27439500D01*
X33419954Y27421194D01*
X33438260Y27377000D01*
X33426323Y27340263D01*
X33355440Y27242702D01*
X33277358Y27089457D01*
X33277354Y27089449D01*
X33224205Y26925873D01*
X33224205Y26925872D01*
X33197301Y26756010D01*
X33197300Y26755994D01*
X33197300Y26584005D01*
X33197301Y26583989D01*
X33224205Y26414127D01*
X33224205Y26414126D01*
X33277354Y26250550D01*
X33277358Y26250542D01*
X33355440Y26097297D01*
X33456534Y25958154D01*
X33456541Y25958146D01*
X33578146Y25836541D01*
X33578154Y25836534D01*
X33717297Y25735440D01*
X33870542Y25657358D01*
X33870550Y25657354D01*
X34034126Y25604205D01*
X34203989Y25577301D01*
X34204001Y25577300D01*
X34204003Y25577300D01*
X34204005Y25577300D01*
X34375995Y25577300D01*
X34375997Y25577300D01*
X34375998Y25577300D01*
X34376010Y25577301D01*
X34545872Y25604205D01*
X34545873Y25604205D01*
X34709449Y25657354D01*
X34709457Y25657358D01*
X34862702Y25735440D01*
X35001845Y25836534D01*
X35001853Y25836541D01*
X35123458Y25958146D01*
X35123465Y25958154D01*
X35224559Y26097297D01*
X35266945Y26180483D01*
X35302645Y26250549D01*
X35355794Y26414125D01*
X35372246Y26518000D01*
X35382698Y26583989D01*
X35382700Y26584005D01*
X35382700Y26755994D01*
X35382698Y26756010D01*
X35378541Y26782253D01*
X35355794Y26925875D01*
X35302645Y27089451D01*
X35224561Y27242700D01*
X35153677Y27340263D01*
X35142509Y27386777D01*
X35167503Y27427563D01*
X35204240Y27439500D01*
X35915760Y27439500D01*
X35959954Y27421194D01*
X35978260Y27377000D01*
X35966323Y27340263D01*
X35895440Y27242702D01*
X35817358Y27089457D01*
X35817354Y27089449D01*
X35764205Y26925873D01*
X35764205Y26925872D01*
X35737301Y26756010D01*
X35737300Y26755994D01*
X35737300Y26584005D01*
X35737301Y26583989D01*
X35764205Y26414127D01*
X35764205Y26414126D01*
X35817354Y26250550D01*
X35817358Y26250542D01*
X35895440Y26097297D01*
X35996534Y25958154D01*
X35996541Y25958146D01*
X36118146Y25836541D01*
X36118154Y25836534D01*
X36257297Y25735440D01*
X36410542Y25657358D01*
X36410550Y25657354D01*
X36574126Y25604205D01*
X36743989Y25577301D01*
X36744001Y25577300D01*
X36744003Y25577300D01*
X36744005Y25577300D01*
X36915995Y25577300D01*
X36915997Y25577300D01*
X36915998Y25577300D01*
X36916010Y25577301D01*
X37085872Y25604205D01*
X37085873Y25604205D01*
X37249449Y25657354D01*
X37249457Y25657358D01*
X37402702Y25735440D01*
X37541845Y25836534D01*
X37541853Y25836541D01*
X37663458Y25958146D01*
X37663465Y25958154D01*
X37764559Y26097297D01*
X37806945Y26180483D01*
X37842645Y26250549D01*
X37895794Y26414125D01*
X37912246Y26518000D01*
X37922698Y26583989D01*
X37922700Y26584005D01*
X37922700Y26755994D01*
X37922698Y26756010D01*
X37918541Y26782253D01*
X37895794Y26925875D01*
X37842645Y27089451D01*
X37764561Y27242700D01*
X37693677Y27340263D01*
X37682509Y27386777D01*
X37707503Y27427563D01*
X37744240Y27439500D01*
X39998414Y27439500D01*
X40042608Y27421194D01*
X40060914Y27377000D01*
X40042608Y27332806D01*
X40018974Y27318325D01*
X40019046Y27318148D01*
X40017982Y27317718D01*
X40017716Y27317555D01*
X40017027Y27317331D01*
X40017022Y27317330D01*
X40017016Y27317327D01*
X40017014Y27317327D01*
X39935151Y27284252D01*
X39756244Y27211969D01*
X39512667Y27071340D01*
X39291033Y26898180D01*
X39291031Y26898178D01*
X39095653Y26695859D01*
X38930332Y26468313D01*
X38930330Y26468310D01*
X38798296Y26219989D01*
X38798292Y26219982D01*
X38783916Y26180483D01*
X38702096Y25955685D01*
X38702094Y25955675D01*
X38643620Y25680577D01*
X38643619Y25680570D01*
X38624000Y25400000D01*
X38643619Y25119429D01*
X38643620Y25119422D01*
X38702094Y24844324D01*
X38702098Y24844309D01*
X38798292Y24580017D01*
X38798296Y24580010D01*
X38930330Y24331689D01*
X38930332Y24331686D01*
X39095653Y24104140D01*
X39291031Y23901821D01*
X39512667Y23728660D01*
X39756242Y23588031D01*
X39756244Y23588030D01*
X40017014Y23482672D01*
X40017021Y23482670D01*
X40017022Y23482670D01*
X40289925Y23414628D01*
X40569643Y23385228D01*
X40850720Y23395043D01*
X40850727Y23395043D01*
X40850729Y23395044D01*
X40850731Y23395044D01*
X40850736Y23395045D01*
X41127709Y23443883D01*
X41127715Y23443884D01*
X41133995Y23445924D01*
X41395201Y23530794D01*
X41647994Y23654090D01*
X41647995Y23654090D01*
X41648000Y23654093D01*
X41881174Y23811370D01*
X41881177Y23811372D01*
X42090185Y23999564D01*
X42090189Y23999569D01*
X42187258Y24115251D01*
X42270978Y24215025D01*
X42420022Y24453545D01*
X42534420Y24710487D01*
X42556921Y24788958D01*
X42586700Y24826395D01*
X42634227Y24831810D01*
X42671664Y24802031D01*
X42679500Y24771731D01*
X42679500Y3168268D01*
X42661194Y3124074D01*
X42617000Y3105768D01*
X42572806Y3124074D01*
X42556922Y3151038D01*
X42534420Y3229513D01*
X42420022Y3486455D01*
X42270978Y3724975D01*
X42090189Y3940431D01*
X41881174Y4128630D01*
X41648000Y4285907D01*
X41395207Y4409203D01*
X41127715Y4496116D01*
X40850729Y4544956D01*
X40569643Y4554772D01*
X40289925Y4525372D01*
X40017022Y4457330D01*
X40017015Y4457327D01*
X40017014Y4457327D01*
X39897908Y4409205D01*
X39756244Y4351969D01*
X39512667Y4211340D01*
X39291033Y4038180D01*
X39291031Y4038178D01*
X39095653Y3835859D01*
X38930332Y3608313D01*
X38930330Y3608310D01*
X38798296Y3359989D01*
X38798292Y3359982D01*
X38756491Y3245134D01*
X38702096Y3095685D01*
X38702094Y3095675D01*
X38643620Y2820577D01*
X38643619Y2820570D01*
X38624000Y2540000D01*
X38643619Y2259429D01*
X38643620Y2259422D01*
X38702094Y1984324D01*
X38702098Y1984309D01*
X38798292Y1720017D01*
X38798296Y1720010D01*
X38930330Y1471689D01*
X38930332Y1471686D01*
X39095653Y1244140D01*
X39291031Y1041821D01*
X39512667Y868660D01*
X39756242Y728031D01*
X39756244Y728030D01*
X40017014Y622672D01*
X40017716Y622445D01*
X40017839Y622339D01*
X40019046Y621852D01*
X40018883Y621448D01*
X40054096Y591385D01*
X40057859Y543698D01*
X40026799Y507318D01*
X39998414Y500500D01*
X37744240Y500500D01*
X37700046Y518806D01*
X37681740Y563000D01*
X37693677Y599737D01*
X37764559Y697297D01*
X37780219Y728030D01*
X37842645Y850549D01*
X37895794Y1014125D01*
X37915662Y1139569D01*
X37922698Y1183989D01*
X37922700Y1184005D01*
X37922700Y1355994D01*
X37922698Y1356010D01*
X37919726Y1374770D01*
X37895794Y1525875D01*
X37842645Y1689451D01*
X37764561Y1842700D01*
X37663465Y1981846D01*
X37541846Y2103465D01*
X37402700Y2204561D01*
X37271025Y2271652D01*
X37239959Y2308026D01*
X37236900Y2327340D01*
X37236900Y2599568D01*
X37255206Y2643762D01*
X37917601Y3306157D01*
X37971170Y3398943D01*
X37991417Y3474503D01*
X37998899Y3502424D01*
X37998900Y3502430D01*
X37998900Y8400000D01*
X38017206Y8444194D01*
X38061400Y8462500D01*
X38367064Y8462500D01*
X38367068Y8462501D01*
X38441299Y8477265D01*
X38441303Y8477267D01*
X38525484Y8533515D01*
X38581733Y8617697D01*
X38581734Y8617699D01*
X38581734Y8617700D01*
X38596500Y8691933D01*
X38596499Y9982066D01*
X38581734Y10056301D01*
X38525484Y10140484D01*
X38441301Y10196734D01*
X38367067Y10211500D01*
X36816934Y10211499D01*
X36742699Y10196734D01*
X36742698Y10196733D01*
X36742696Y10196732D01*
X36658514Y10140483D01*
X36654163Y10136132D01*
X36652590Y10137704D01*
X36620168Y10116038D01*
X36573251Y10125369D01*
X36563778Y10133143D01*
X36484778Y10212142D01*
X36384444Y10256444D01*
X36351410Y10291041D01*
X36352514Y10338864D01*
X36387111Y10371898D01*
X36397496Y10374918D01*
X36409299Y10377265D01*
X36409303Y10377267D01*
X36493484Y10433516D01*
X36524034Y10479235D01*
X36563808Y10505810D01*
X36610724Y10496477D01*
X36627966Y10479235D01*
X36658515Y10433516D01*
X36742697Y10377266D01*
X36742699Y10377265D01*
X36816932Y10362500D01*
X36816933Y10362500D01*
X38367064Y10362500D01*
X38367068Y10362501D01*
X38441299Y10377265D01*
X38441303Y10377267D01*
X38525484Y10433515D01*
X38581733Y10517697D01*
X38581734Y10517699D01*
X38587296Y10545662D01*
X38596500Y10591933D01*
X38596499Y11882066D01*
X38581734Y11956301D01*
X38525484Y12040484D01*
X38441301Y12096734D01*
X38367067Y12111500D01*
X38155223Y12111499D01*
X38111031Y12129805D01*
X38092725Y12173999D01*
X38111031Y12218193D01*
X38141706Y12248868D01*
X38219153Y12364775D01*
X38219154Y12364777D01*
X38219155Y12364778D01*
X38272503Y12493572D01*
X38299700Y12630298D01*
X38299700Y12769702D01*
X38272503Y12906428D01*
X38219155Y13035222D01*
X38141706Y13151132D01*
X38043132Y13249706D01*
X37927222Y13327155D01*
X37798428Y13380503D01*
X37661702Y13407700D01*
X37522298Y13407700D01*
X37385572Y13380503D01*
X37256778Y13327155D01*
X37256777Y13327154D01*
X37256775Y13327153D01*
X37140868Y13249706D01*
X37042293Y13151131D01*
X36964846Y13035224D01*
X36964845Y13035222D01*
X36911496Y12906427D01*
X36911496Y12906426D01*
X36884300Y12769702D01*
X36884300Y12630297D01*
X36911496Y12493573D01*
X36911496Y12493572D01*
X36964845Y12364777D01*
X36964846Y12364775D01*
X37042293Y12248868D01*
X37042295Y12248866D01*
X37072969Y12218193D01*
X37091275Y12173999D01*
X37072969Y12129805D01*
X37028775Y12111499D01*
X36816934Y12111499D01*
X36742699Y12096734D01*
X36742698Y12096733D01*
X36742696Y12096732D01*
X36658515Y12040484D01*
X36627967Y11994765D01*
X36588193Y11968189D01*
X36541277Y11977521D01*
X36524033Y11994765D01*
X36493484Y12040484D01*
X36456795Y12064999D01*
X36409301Y12096734D01*
X36335067Y12111500D01*
X34784934Y12111499D01*
X34710699Y12096734D01*
X34710698Y12096733D01*
X34710696Y12096732D01*
X34626515Y12040484D01*
X34595967Y11994765D01*
X34556193Y11968189D01*
X34509277Y11977521D01*
X34492033Y11994765D01*
X34461484Y12040484D01*
X34424795Y12064999D01*
X34377301Y12096734D01*
X34303067Y12111500D01*
X34251399Y12111499D01*
X34207207Y12129804D01*
X34188900Y12173998D01*
X34188900Y12306812D01*
X34193657Y12330729D01*
X34199361Y12344500D01*
X34208503Y12366572D01*
X34235700Y12503298D01*
X34235700Y12642702D01*
X34208503Y12779428D01*
X34155155Y12908222D01*
X34077706Y13024132D01*
X34071032Y13030806D01*
X34052726Y13075000D01*
X34071032Y13119194D01*
X34115226Y13137500D01*
X34245600Y13137500D01*
X34344905Y13157252D01*
X34344907Y13157253D01*
X34401513Y13195077D01*
X34429094Y13213506D01*
X34485347Y13297694D01*
X34505100Y13397000D01*
X34505100Y14797000D01*
X34836900Y14797000D01*
X34836900Y13396999D01*
X34856652Y13297694D01*
X34856653Y13297692D01*
X34912906Y13213506D01*
X34997092Y13157253D01*
X34997094Y13157252D01*
X35096399Y13137500D01*
X35096400Y13137500D01*
X36296400Y13137500D01*
X36395705Y13157252D01*
X36395707Y13157253D01*
X36452313Y13195077D01*
X36479894Y13213506D01*
X36536147Y13297694D01*
X36555900Y13397000D01*
X36555900Y13627600D01*
X36574206Y13671794D01*
X36618400Y13690100D01*
X38566723Y13690100D01*
X38610917Y13671794D01*
X38624466Y13651518D01*
X38653688Y13580969D01*
X38653689Y13580967D01*
X38662142Y13570544D01*
X38662151Y13570534D01*
X39224527Y13008157D01*
X39224539Y13008146D01*
X39234968Y12999686D01*
X39339974Y12956193D01*
X39339971Y12956193D01*
X39353336Y12954800D01*
X39599000Y12954800D01*
X39599000Y13716991D01*
X39697496Y13690600D01*
X39804504Y13690600D01*
X39903000Y13716991D01*
X39903000Y12954800D01*
X40148667Y12954800D01*
X40148688Y12954801D01*
X40162025Y12956193D01*
X40162032Y12956195D01*
X40267025Y12999684D01*
X40267032Y12999689D01*
X40277455Y13008142D01*
X40277465Y13008151D01*
X40839842Y13570527D01*
X40839853Y13570539D01*
X40848313Y13580968D01*
X40891806Y13685973D01*
X40893200Y13699336D01*
X40893200Y13945000D01*
X40131009Y13945000D01*
X40157400Y14043496D01*
X40157400Y14150504D01*
X40131009Y14249000D01*
X40893200Y14249000D01*
X40893200Y14494666D01*
X40893198Y14494688D01*
X40891806Y14508025D01*
X40891804Y14508032D01*
X40848315Y14613025D01*
X40848310Y14613032D01*
X40839857Y14623455D01*
X40839848Y14623465D01*
X40277472Y15185842D01*
X40277460Y15185853D01*
X40267031Y15194313D01*
X40162025Y15237806D01*
X40162028Y15237806D01*
X40148664Y15239200D01*
X39903000Y15239200D01*
X39903000Y14477008D01*
X39804504Y14503400D01*
X39697496Y14503400D01*
X39599000Y14477008D01*
X39599000Y15239200D01*
X39353333Y15239200D01*
X39353311Y15239198D01*
X39339974Y15237806D01*
X39339967Y15237804D01*
X39234974Y15194315D01*
X39234967Y15194310D01*
X39224544Y15185857D01*
X39224534Y15185848D01*
X38662157Y14623472D01*
X38662146Y14623460D01*
X38653686Y14613031D01*
X38624465Y14542483D01*
X38590640Y14508658D01*
X38566722Y14503900D01*
X36618400Y14503900D01*
X36574206Y14522206D01*
X36555900Y14566400D01*
X36555900Y14797000D01*
X36538496Y14884498D01*
X36536147Y14896306D01*
X36479894Y14980494D01*
X36395706Y15036747D01*
X36296400Y15056500D01*
X35096400Y15056500D01*
X34997094Y15036747D01*
X34997092Y15036746D01*
X34975902Y15022587D01*
X34912906Y14980494D01*
X34901607Y14963584D01*
X34856653Y14896307D01*
X34856652Y14896305D01*
X34836900Y14797000D01*
X34505100Y14797000D01*
X34485347Y14896306D01*
X34429094Y14980494D01*
X34344906Y15036747D01*
X34245600Y15056500D01*
X33045600Y15056500D01*
X32946294Y15036747D01*
X32946292Y15036746D01*
X32925102Y15022587D01*
X32862106Y14980494D01*
X32850807Y14963584D01*
X32805853Y14896307D01*
X32805852Y14896305D01*
X32786100Y14797000D01*
X32786100Y14566400D01*
X32767794Y14522206D01*
X32723600Y14503900D01*
X30727097Y14503900D01*
X30682903Y14522206D01*
X30669354Y14542484D01*
X30668935Y14543494D01*
X30668935Y14543495D01*
X30626885Y14606427D01*
X30100427Y15132884D01*
X30037495Y15174934D01*
X29963261Y15189700D01*
X29218737Y15189701D01*
X29144505Y15174935D01*
X29144503Y15174934D01*
X29081573Y15132885D01*
X29081571Y15132883D01*
X28555117Y14606428D01*
X28555115Y14606426D01*
X28513067Y14543497D01*
X28513065Y14543493D01*
X28510145Y14528808D01*
X28483570Y14489034D01*
X28448846Y14478500D01*
X28016775Y14478500D01*
X28016773Y14478499D01*
X28016770Y14478499D01*
X27979125Y14468411D01*
X27919746Y14452501D01*
X27832753Y14402276D01*
X27832751Y14402274D01*
X27759541Y14329064D01*
X27759536Y14329058D01*
X26504883Y13074406D01*
X26460689Y13056100D01*
X24384409Y13056100D01*
X24340215Y13074406D01*
X24321909Y13118600D01*
X24325677Y13139973D01*
X24345734Y13195078D01*
X24345734Y13316567D01*
X24338768Y13335705D01*
X24340855Y13383494D01*
X24353305Y13401275D01*
X24716781Y13764751D01*
X24760975Y13783057D01*
X24777151Y13780927D01*
X24831735Y13766301D01*
X24831740Y13766300D01*
X24831742Y13766300D01*
X24831744Y13766300D01*
X24952263Y13766300D01*
X25068663Y13797491D01*
X25068665Y13797491D01*
X25120850Y13827620D01*
X25173035Y13857749D01*
X28687251Y17371965D01*
X28747508Y17476334D01*
X28758016Y17515551D01*
X28776169Y17583297D01*
X28778699Y17592737D01*
X28778700Y17592743D01*
X28778700Y19989278D01*
X28963500Y19989278D01*
X28963500Y19888732D01*
X28963501Y19888720D01*
X28974056Y19785396D01*
X28974057Y19785389D01*
X29029536Y19617963D01*
X29122129Y19467847D01*
X29246847Y19343129D01*
X29396963Y19250536D01*
X29564392Y19195056D01*
X29667726Y19184500D01*
X29667729Y19184500D01*
X29768267Y19184500D01*
X29768279Y19184501D01*
X29871603Y19195056D01*
X29871610Y19195057D01*
X30039036Y19250536D01*
X30189152Y19343129D01*
X30313870Y19467847D01*
X30385059Y19583262D01*
X30406464Y19617964D01*
X30461942Y19785388D01*
X30461942Y19785389D01*
X30461943Y19785392D01*
X30472499Y19888721D01*
X30472500Y19888729D01*
X30472499Y19989270D01*
X30467220Y20040941D01*
X30461943Y20092603D01*
X30461942Y20092604D01*
X30461942Y20092612D01*
X30406464Y20260036D01*
X30313870Y20410153D01*
X30189153Y20534870D01*
X30039036Y20627464D01*
X29871612Y20682942D01*
X29871609Y20682942D01*
X29871607Y20682943D01*
X29832265Y20686961D01*
X29768271Y20693500D01*
X29667730Y20693499D01*
X29667721Y20693498D01*
X29667720Y20693498D01*
X29564396Y20682943D01*
X29564391Y20682942D01*
X29564388Y20682942D01*
X29396964Y20627464D01*
X29287555Y20559979D01*
X29246847Y20534870D01*
X29122129Y20410152D01*
X29029536Y20260036D01*
X28974056Y20092607D01*
X28963500Y19989278D01*
X28778700Y19989278D01*
X28778700Y23174256D01*
X28778699Y23174262D01*
X28764085Y23228800D01*
X28747508Y23290665D01*
X28722039Y23334778D01*
X28687251Y23395035D01*
X27078035Y25004251D01*
X26973666Y25064508D01*
X26902427Y25083596D01*
X26857263Y25095699D01*
X26857258Y25095700D01*
X26857257Y25095700D01*
X18757474Y25095700D01*
X18713280Y25114006D01*
X18427286Y25400000D01*
X17562991Y26264293D01*
X17544686Y26308486D01*
X17547745Y26327800D01*
X17575794Y26414125D01*
X17592246Y26518000D01*
X17602698Y26583989D01*
X17602700Y26584005D01*
X17602700Y26755994D01*
X17602698Y26756010D01*
X17598541Y26782253D01*
X17575794Y26925875D01*
X17522645Y27089451D01*
X17444561Y27242700D01*
X17373677Y27340263D01*
X17362509Y27386777D01*
X17387503Y27427563D01*
X17424240Y27439500D01*
X18135760Y27439500D01*
X18179954Y27421194D01*
G37*
%TD.AperFunction*%
%TA.AperFunction,Conductor*%
G36*
X35693694Y9318694D02*
G01*
X35712000Y9274500D01*
X35712000Y8413000D01*
X36355388Y8413000D01*
X36380807Y8415949D01*
X36380808Y8415949D01*
X36484778Y8461857D01*
X36563777Y8540856D01*
X36607971Y8559162D01*
X36652165Y8540856D01*
X36656706Y8535324D01*
X36658514Y8533516D01*
X36742697Y8477266D01*
X36742699Y8477265D01*
X36816932Y8462500D01*
X36816933Y8462500D01*
X37122600Y8462500D01*
X37166794Y8444194D01*
X37185100Y8400000D01*
X37185100Y3750432D01*
X37166794Y3706238D01*
X36679762Y3219206D01*
X36635568Y3200900D01*
X33505668Y3200900D01*
X33461474Y3219206D01*
X33453704Y3228672D01*
X33442706Y3245132D01*
X33344132Y3343706D01*
X33228222Y3421155D01*
X33099428Y3474503D01*
X32962702Y3501700D01*
X32823298Y3501700D01*
X32686572Y3474503D01*
X32557778Y3421155D01*
X32557777Y3421154D01*
X32557775Y3421153D01*
X32441868Y3343706D01*
X32343293Y3245131D01*
X32271367Y3137486D01*
X32231593Y3110910D01*
X32184677Y3120242D01*
X32158101Y3160016D01*
X32156900Y3172209D01*
X32156900Y3615564D01*
X32175206Y3659758D01*
X33853601Y5338153D01*
X33892541Y5405601D01*
X33907170Y5430939D01*
X33920163Y5479431D01*
X33934899Y5534420D01*
X33934900Y5534426D01*
X33934900Y8400000D01*
X33953206Y8444194D01*
X33997400Y8462500D01*
X34303064Y8462500D01*
X34303068Y8462501D01*
X34377299Y8477265D01*
X34377303Y8477267D01*
X34461485Y8533516D01*
X34465837Y8537868D01*
X34467408Y8536296D01*
X34499842Y8557962D01*
X34546757Y8548625D01*
X34556222Y8540856D01*
X34635221Y8461857D01*
X34739194Y8415948D01*
X34764611Y8413000D01*
X35408000Y8413000D01*
X35408000Y9274500D01*
X35426306Y9318694D01*
X35470500Y9337000D01*
X35649500Y9337000D01*
X35693694Y9318694D01*
G37*
%TD.AperFunction*%
%TA.AperFunction,Conductor*%
G36*
X30452919Y8905622D02*
G01*
X30486744Y8871797D01*
X30491501Y8847880D01*
X30491501Y8691931D01*
X30506265Y8617700D01*
X30506267Y8617696D01*
X30562515Y8533515D01*
X30646697Y8477266D01*
X30646699Y8477265D01*
X30720932Y8462500D01*
X30720933Y8462500D01*
X32271064Y8462500D01*
X32271068Y8462501D01*
X32345299Y8477265D01*
X32345303Y8477267D01*
X32429484Y8533516D01*
X32460034Y8579235D01*
X32499808Y8605810D01*
X32546724Y8596477D01*
X32563966Y8579235D01*
X32594515Y8533516D01*
X32678697Y8477266D01*
X32678699Y8477265D01*
X32752932Y8462500D01*
X32752933Y8462500D01*
X33058600Y8462500D01*
X33102794Y8444194D01*
X33121100Y8400000D01*
X33121100Y5782428D01*
X33102794Y5738234D01*
X31776233Y4411673D01*
X31732039Y4393367D01*
X31687845Y4411673D01*
X30542621Y5556897D01*
X29228805Y6870713D01*
X29210500Y6914906D01*
X29210500Y8515028D01*
X29228806Y8559222D01*
X29273000Y8577528D01*
X29307723Y8566995D01*
X29382775Y8516846D01*
X29382777Y8516845D01*
X29511573Y8463496D01*
X29648297Y8436300D01*
X29648298Y8436300D01*
X29787702Y8436300D01*
X29924426Y8463496D01*
X29924427Y8463496D01*
X30053222Y8516845D01*
X30053224Y8516846D01*
X30169131Y8594293D01*
X30267706Y8692868D01*
X30345153Y8808775D01*
X30345154Y8808777D01*
X30345155Y8808778D01*
X30361352Y8847880D01*
X30371259Y8871798D01*
X30405084Y8905623D01*
X30452919Y8905622D01*
G37*
%TD.AperFunction*%
%TA.AperFunction,Conductor*%
G36*
X28493038Y13697194D02*
G01*
X28510143Y13665194D01*
X28513065Y13650505D01*
X28513065Y13650503D01*
X28555114Y13587573D01*
X28555116Y13587571D01*
X29081571Y13061117D01*
X29081573Y13061115D01*
X29144503Y13019066D01*
X29144505Y13019065D01*
X29218738Y13004300D01*
X29218739Y13004299D01*
X29963263Y13004299D01*
X30037494Y13019064D01*
X30037496Y13019065D01*
X30100426Y13061114D01*
X30100428Y13061116D01*
X30626882Y13587571D01*
X30626884Y13587573D01*
X30668934Y13650505D01*
X30669353Y13651516D01*
X30670126Y13652289D01*
X30672354Y13655623D01*
X30673016Y13655180D01*
X30703177Y13685342D01*
X30727096Y13690100D01*
X32723600Y13690100D01*
X32767794Y13671794D01*
X32786100Y13627600D01*
X32786100Y13396999D01*
X32805852Y13297694D01*
X32805853Y13297692D01*
X32862106Y13213506D01*
X32946293Y13157253D01*
X32969338Y13152669D01*
X33009111Y13126092D01*
X33018443Y13079176D01*
X33001338Y13047176D01*
X32978293Y13024131D01*
X32900846Y12908224D01*
X32900845Y12908222D01*
X32847496Y12779427D01*
X32847496Y12779426D01*
X32820300Y12642702D01*
X32820300Y12503297D01*
X32847497Y12366571D01*
X32862343Y12330729D01*
X32867100Y12306812D01*
X32867100Y12173999D01*
X32848794Y12129805D01*
X32804600Y12111499D01*
X32752934Y12111499D01*
X32678699Y12096734D01*
X32678698Y12096733D01*
X32678696Y12096732D01*
X32594515Y12040484D01*
X32563967Y11994765D01*
X32524193Y11968189D01*
X32477277Y11977521D01*
X32460033Y11994765D01*
X32429484Y12040484D01*
X32392795Y12064999D01*
X32345301Y12096734D01*
X32271067Y12111500D01*
X30720934Y12111499D01*
X30646699Y12096734D01*
X30646698Y12096733D01*
X30646696Y12096732D01*
X30562515Y12040484D01*
X30506266Y11956302D01*
X30506265Y11956300D01*
X30491500Y11882067D01*
X30491500Y10591935D01*
X30491501Y10591931D01*
X30506265Y10517700D01*
X30506267Y10517696D01*
X30562515Y10433515D01*
X30646697Y10377266D01*
X30646699Y10377265D01*
X30720932Y10362500D01*
X30720933Y10362500D01*
X32271064Y10362500D01*
X32271068Y10362501D01*
X32345299Y10377265D01*
X32345303Y10377267D01*
X32429484Y10433516D01*
X32460034Y10479235D01*
X32499808Y10505810D01*
X32546724Y10496477D01*
X32563966Y10479235D01*
X32594515Y10433516D01*
X32678697Y10377266D01*
X32678699Y10377265D01*
X32752932Y10362500D01*
X32752933Y10362500D01*
X34303064Y10362500D01*
X34303068Y10362501D01*
X34377299Y10377265D01*
X34377303Y10377267D01*
X34461484Y10433516D01*
X34492034Y10479235D01*
X34531808Y10505810D01*
X34578724Y10496477D01*
X34595966Y10479235D01*
X34626515Y10433516D01*
X34710698Y10377266D01*
X34722503Y10374918D01*
X34762276Y10348342D01*
X34771608Y10301425D01*
X34745032Y10261652D01*
X34735554Y10256444D01*
X34635221Y10212142D01*
X34556222Y10133143D01*
X34512028Y10114837D01*
X34467834Y10133143D01*
X34463294Y10138674D01*
X34461485Y10140483D01*
X34455619Y10144403D01*
X34377301Y10196734D01*
X34303067Y10211500D01*
X32752934Y10211499D01*
X32678699Y10196734D01*
X32678698Y10196733D01*
X32678696Y10196732D01*
X32594515Y10140484D01*
X32563967Y10094765D01*
X32524193Y10068189D01*
X32477277Y10077521D01*
X32460033Y10094765D01*
X32429484Y10140484D01*
X32379136Y10174126D01*
X32345301Y10196734D01*
X32271067Y10211500D01*
X30720934Y10211499D01*
X30646699Y10196734D01*
X30646698Y10196733D01*
X30646696Y10196732D01*
X30562515Y10140484D01*
X30506266Y10056302D01*
X30506265Y10056300D01*
X30491500Y9982067D01*
X30491500Y9781000D01*
X30473194Y9736806D01*
X30429000Y9718500D01*
X30150984Y9718500D01*
X30116262Y9729032D01*
X30053222Y9771155D01*
X29924428Y9824503D01*
X29787702Y9851700D01*
X29648298Y9851700D01*
X29511572Y9824503D01*
X29382778Y9771155D01*
X29307721Y9721003D01*
X29260807Y9711672D01*
X29221033Y9738247D01*
X29210500Y9772971D01*
X29210500Y10464223D01*
X29210499Y10464229D01*
X29196172Y10517697D01*
X29184501Y10561254D01*
X29134276Y10648247D01*
X29063247Y10719276D01*
X27793247Y11989276D01*
X27788011Y11992298D01*
X27788009Y11992301D01*
X27788009Y11992300D01*
X27706254Y12039501D01*
X27609225Y12065500D01*
X24587775Y12065500D01*
X24587773Y12065499D01*
X24587770Y12065499D01*
X24532916Y12050800D01*
X24500929Y12042229D01*
X24484754Y12040100D01*
X24049386Y12040100D01*
X24005192Y12058406D01*
X23904900Y12158698D01*
X23802354Y12261243D01*
X23784049Y12305436D01*
X23802355Y12349630D01*
X23846549Y12367936D01*
X23862725Y12365806D01*
X23944477Y12343901D01*
X23944483Y12343900D01*
X23944484Y12343900D01*
X26516755Y12343900D01*
X26532930Y12341770D01*
X26545208Y12338480D01*
X26619770Y12318500D01*
X26619775Y12318500D01*
X26720229Y12318500D01*
X26817250Y12344498D01*
X26817251Y12344498D01*
X26817253Y12344499D01*
X26817255Y12344500D01*
X26904246Y12394723D01*
X27549194Y13039671D01*
X28206716Y13697194D01*
X28250910Y13715500D01*
X28448844Y13715500D01*
X28493038Y13697194D01*
G37*
%TD.AperFunction*%
%TA.AperFunction,Conductor*%
G36*
X6737694Y17827694D02*
G01*
X6756000Y17783500D01*
X6756000Y16922000D01*
X7399388Y16922000D01*
X7424807Y16924949D01*
X7424808Y16924949D01*
X7528778Y16970857D01*
X7554185Y16996264D01*
X7598379Y17014570D01*
X7633101Y17004038D01*
X7659699Y16986266D01*
X7659700Y16986265D01*
X7733932Y16971500D01*
X7733933Y16971500D01*
X7945774Y16971500D01*
X7989968Y16953194D01*
X8008274Y16909000D01*
X7989968Y16864806D01*
X7959293Y16834131D01*
X7881846Y16718224D01*
X7881845Y16718222D01*
X7828496Y16589427D01*
X7828496Y16589426D01*
X7801300Y16452702D01*
X7801300Y16313297D01*
X7828496Y16176573D01*
X7828496Y16176572D01*
X7881845Y16047777D01*
X7881846Y16047775D01*
X7959293Y15931868D01*
X8057865Y15833296D01*
X8057868Y15833294D01*
X8099724Y15805326D01*
X8126299Y15765553D01*
X8127500Y15753360D01*
X8127500Y14280911D01*
X8109194Y14236717D01*
X7734283Y13861806D01*
X7690089Y13843500D01*
X6994906Y13843500D01*
X6964835Y13840680D01*
X6838217Y13796375D01*
X6838216Y13796374D01*
X6838215Y13796374D01*
X6829941Y13790267D01*
X6730284Y13716716D01*
X6707129Y13685342D01*
X6650625Y13608784D01*
X6650625Y13608783D01*
X6606320Y13482167D01*
X6606319Y13482162D01*
X6603500Y13452090D01*
X6603500Y12963909D01*
X6606319Y12933835D01*
X6620393Y12893615D01*
X6623900Y12872973D01*
X6623900Y12064997D01*
X6641947Y11969914D01*
X6641948Y11969913D01*
X6700045Y11879575D01*
X6698492Y11878576D01*
X6713134Y11841383D01*
X6700580Y11807236D01*
X6701612Y11806547D01*
X6643653Y11719807D01*
X6643652Y11719805D01*
X6623900Y11620500D01*
X6623900Y11511025D01*
X6620393Y11490384D01*
X6606320Y11450165D01*
X6606320Y11450164D01*
X6606319Y11450162D01*
X6603500Y11420090D01*
X6603500Y10931909D01*
X6606319Y10901837D01*
X6606320Y10901833D01*
X6609439Y10892920D01*
X6606754Y10845160D01*
X6571085Y10813286D01*
X6523325Y10815971D01*
X6506254Y10828083D01*
X5860806Y11473532D01*
X5842500Y11517726D01*
X5842500Y16859500D01*
X5860806Y16903694D01*
X5905000Y16922000D01*
X6452000Y16922000D01*
X6452000Y17783500D01*
X6470306Y17827694D01*
X6514500Y17846000D01*
X6693500Y17846000D01*
X6737694Y17827694D01*
G37*
%TD.AperFunction*%
%TA.AperFunction,Conductor*%
G36*
X7958769Y27421194D02*
G01*
X7977075Y27377000D01*
X7965138Y27340263D01*
X7913106Y27268647D01*
X7831482Y27108454D01*
X7831481Y27108451D01*
X7775924Y26937464D01*
X7775924Y26937463D01*
X7757636Y26822000D01*
X8413091Y26822000D01*
X8390000Y26735826D01*
X8390000Y26604174D01*
X8413091Y26518000D01*
X7757637Y26518000D01*
X7757636Y26517999D01*
X7775924Y26402536D01*
X7775924Y26402535D01*
X7831481Y26231548D01*
X7831482Y26231545D01*
X7913106Y26071352D01*
X8018778Y25925907D01*
X8018785Y25925899D01*
X8145899Y25798785D01*
X8145907Y25798778D01*
X8291352Y25693106D01*
X8451545Y25611482D01*
X8451548Y25611481D01*
X8622535Y25555924D01*
X8622534Y25555924D01*
X8737999Y25537635D01*
X8738000Y25537635D01*
X8738000Y26193090D01*
X8824174Y26170000D01*
X8955826Y26170000D01*
X9042000Y26193090D01*
X9042000Y25537635D01*
X9157465Y25555924D01*
X9328451Y25611481D01*
X9328454Y25611482D01*
X9488647Y25693106D01*
X9634092Y25798778D01*
X9634100Y25798785D01*
X9761214Y25925899D01*
X9761221Y25925907D01*
X9866893Y26071352D01*
X9948517Y26231545D01*
X9948518Y26231548D01*
X10004075Y26402535D01*
X10004075Y26402536D01*
X10022363Y26517999D01*
X10022363Y26518000D01*
X9366909Y26518000D01*
X9390000Y26604174D01*
X9390000Y26735826D01*
X9366909Y26822000D01*
X10022363Y26822000D01*
X10004075Y26937463D01*
X10004075Y26937464D01*
X9948518Y27108451D01*
X9948517Y27108454D01*
X9866893Y27268647D01*
X9814862Y27340263D01*
X9803694Y27386777D01*
X9828688Y27427563D01*
X9865425Y27439500D01*
X10515760Y27439500D01*
X10559954Y27421194D01*
X10578260Y27377000D01*
X10566323Y27340263D01*
X10495440Y27242702D01*
X10417358Y27089457D01*
X10417354Y27089449D01*
X10364205Y26925873D01*
X10364205Y26925872D01*
X10337301Y26756010D01*
X10337300Y26755994D01*
X10337300Y26584005D01*
X10337301Y26583989D01*
X10364205Y26414127D01*
X10364205Y26414126D01*
X10417354Y26250550D01*
X10417358Y26250542D01*
X10495440Y26097297D01*
X10596534Y25958154D01*
X10596541Y25958146D01*
X10718146Y25836541D01*
X10718154Y25836534D01*
X10857297Y25735440D01*
X11010542Y25657358D01*
X11010550Y25657354D01*
X11174126Y25604205D01*
X11343989Y25577301D01*
X11344001Y25577300D01*
X11344003Y25577300D01*
X11344005Y25577300D01*
X11515995Y25577300D01*
X11515997Y25577300D01*
X11515998Y25577300D01*
X11516010Y25577301D01*
X11685872Y25604205D01*
X11685873Y25604205D01*
X11849449Y25657354D01*
X11849457Y25657358D01*
X12002702Y25735440D01*
X12141845Y25836534D01*
X12141853Y25836541D01*
X12263458Y25958146D01*
X12263465Y25958154D01*
X12364559Y26097297D01*
X12406945Y26180483D01*
X12442645Y26250549D01*
X12495794Y26414125D01*
X12512246Y26518000D01*
X12522698Y26583989D01*
X12522700Y26584005D01*
X12522700Y26755994D01*
X12522698Y26756010D01*
X12518541Y26782253D01*
X12495794Y26925875D01*
X12442645Y27089451D01*
X12364561Y27242700D01*
X12293677Y27340263D01*
X12282509Y27386777D01*
X12307503Y27427563D01*
X12344240Y27439500D01*
X13055760Y27439500D01*
X13099954Y27421194D01*
X13118260Y27377000D01*
X13106323Y27340263D01*
X13035440Y27242702D01*
X12957358Y27089457D01*
X12957354Y27089449D01*
X12904205Y26925873D01*
X12904205Y26925872D01*
X12877301Y26756010D01*
X12877300Y26755994D01*
X12877300Y26584005D01*
X12877301Y26583989D01*
X12904205Y26414127D01*
X12904205Y26414126D01*
X12957354Y26250550D01*
X12957358Y26250542D01*
X13035440Y26097297D01*
X13136534Y25958154D01*
X13136541Y25958146D01*
X13258146Y25836541D01*
X13258154Y25836534D01*
X13397297Y25735440D01*
X13550542Y25657358D01*
X13550550Y25657354D01*
X13714126Y25604205D01*
X13883989Y25577301D01*
X13884001Y25577300D01*
X13884003Y25577300D01*
X13884005Y25577300D01*
X14055995Y25577300D01*
X14055997Y25577300D01*
X14055998Y25577300D01*
X14056010Y25577301D01*
X14225872Y25604205D01*
X14225873Y25604205D01*
X14389449Y25657354D01*
X14389457Y25657358D01*
X14542702Y25735440D01*
X14681845Y25836534D01*
X14681853Y25836541D01*
X14803458Y25958146D01*
X14803465Y25958154D01*
X14904559Y26097297D01*
X14946945Y26180483D01*
X14982645Y26250549D01*
X15035794Y26414125D01*
X15052246Y26518000D01*
X15062698Y26583989D01*
X15062700Y26584005D01*
X15062700Y26755994D01*
X15062698Y26756010D01*
X15058541Y26782253D01*
X15035794Y26925875D01*
X14982645Y27089451D01*
X14904561Y27242700D01*
X14833677Y27340263D01*
X14822509Y27386777D01*
X14847503Y27427563D01*
X14884240Y27439500D01*
X15595760Y27439500D01*
X15639954Y27421194D01*
X15658260Y27377000D01*
X15646323Y27340263D01*
X15575440Y27242702D01*
X15497358Y27089457D01*
X15497354Y27089449D01*
X15444205Y26925873D01*
X15444205Y26925872D01*
X15417301Y26756010D01*
X15417300Y26755994D01*
X15417300Y26584005D01*
X15417301Y26583989D01*
X15444205Y26414127D01*
X15444205Y26414126D01*
X15497354Y26250550D01*
X15497358Y26250542D01*
X15575440Y26097297D01*
X15676534Y25958154D01*
X15676541Y25958146D01*
X15798146Y25836541D01*
X15798154Y25836534D01*
X15937297Y25735440D01*
X16090542Y25657358D01*
X16090550Y25657354D01*
X16254126Y25604205D01*
X16423989Y25577301D01*
X16424001Y25577300D01*
X16424003Y25577300D01*
X16424005Y25577300D01*
X16595995Y25577300D01*
X16595997Y25577300D01*
X16595998Y25577300D01*
X16596010Y25577301D01*
X16765869Y25604205D01*
X16765875Y25604206D01*
X16765879Y25604207D01*
X16765882Y25604208D01*
X16852199Y25632253D01*
X16899887Y25628500D01*
X16915706Y25617006D01*
X18260963Y24271750D01*
X18365335Y24211491D01*
X18481738Y24180300D01*
X18481743Y24180300D01*
X22747126Y24180300D01*
X22791320Y24161994D01*
X22809626Y24117800D01*
X22791320Y24073606D01*
X21668720Y22951006D01*
X21624526Y22932700D01*
X21520298Y22932700D01*
X21383572Y22905503D01*
X21254778Y22852155D01*
X21254777Y22852154D01*
X21254775Y22852153D01*
X21138868Y22774706D01*
X21040293Y22676131D01*
X20962846Y22560224D01*
X20962845Y22560222D01*
X20909496Y22431427D01*
X20909496Y22431426D01*
X20882300Y22294702D01*
X20882300Y22155297D01*
X20909496Y22018573D01*
X20909496Y22018572D01*
X20962845Y21889777D01*
X20962846Y21889775D01*
X21040293Y21773868D01*
X21138868Y21675293D01*
X21254775Y21597846D01*
X21254777Y21597845D01*
X21383573Y21544496D01*
X21520297Y21517300D01*
X21520298Y21517300D01*
X21659702Y21517300D01*
X21796426Y21544496D01*
X21796427Y21544496D01*
X21925222Y21597845D01*
X21925224Y21597846D01*
X22041131Y21675293D01*
X22139706Y21773868D01*
X22217153Y21889775D01*
X22217154Y21889777D01*
X22217155Y21889778D01*
X22270503Y22018572D01*
X22290701Y22120111D01*
X22317277Y22159885D01*
X22364193Y22169217D01*
X22403967Y22142641D01*
X22413299Y22120111D01*
X22433496Y22018573D01*
X22433496Y22018572D01*
X22486845Y21889777D01*
X22486846Y21889775D01*
X22564293Y21773868D01*
X22662868Y21675293D01*
X22778775Y21597846D01*
X22778777Y21597845D01*
X22907573Y21544496D01*
X23044297Y21517300D01*
X23044298Y21517300D01*
X23183702Y21517300D01*
X23320426Y21544496D01*
X23320427Y21544496D01*
X23449222Y21597845D01*
X23449224Y21597846D01*
X23485630Y21622172D01*
X23532546Y21631504D01*
X23572320Y21604928D01*
X23581652Y21558012D01*
X23578097Y21546292D01*
X23576497Y21542429D01*
X23576496Y21542426D01*
X23549300Y21405702D01*
X23549300Y21266297D01*
X23576496Y21129573D01*
X23576496Y21129572D01*
X23629845Y21000777D01*
X23629846Y21000774D01*
X23671542Y20938373D01*
X23680874Y20891456D01*
X23654298Y20851683D01*
X23607381Y20842351D01*
X23575381Y20859456D01*
X23565132Y20869706D01*
X23449222Y20947155D01*
X23320428Y21000503D01*
X23183702Y21027700D01*
X23044298Y21027700D01*
X22907572Y21000503D01*
X22778778Y20947155D01*
X22778777Y20947154D01*
X22778775Y20947153D01*
X22662868Y20869706D01*
X22564293Y20771131D01*
X22486846Y20655224D01*
X22486845Y20655222D01*
X22433496Y20526427D01*
X22433496Y20526426D01*
X22406300Y20389702D01*
X22406300Y20250297D01*
X22422722Y20167736D01*
X22413390Y20120820D01*
X22373616Y20094244D01*
X22337508Y20097800D01*
X22304428Y20111503D01*
X22167702Y20138700D01*
X22028298Y20138700D01*
X21891572Y20111503D01*
X21762778Y20058155D01*
X21762777Y20058154D01*
X21762775Y20058153D01*
X21646868Y19980706D01*
X21548293Y19882131D01*
X21470846Y19766224D01*
X21470845Y19766222D01*
X21431939Y19672294D01*
X21398115Y19638470D01*
X21350279Y19638470D01*
X21339475Y19644244D01*
X21297497Y19672294D01*
X21290227Y19677152D01*
X21290225Y19677153D01*
X21290222Y19677155D01*
X21161428Y19730503D01*
X21024702Y19757700D01*
X20885298Y19757700D01*
X20748572Y19730503D01*
X20619778Y19677155D01*
X20619777Y19677154D01*
X20619775Y19677153D01*
X20503868Y19599706D01*
X20405293Y19501131D01*
X20327846Y19385224D01*
X20327845Y19385222D01*
X20274496Y19256427D01*
X20274496Y19256426D01*
X20247300Y19119702D01*
X20247300Y18980297D01*
X20274496Y18843573D01*
X20274496Y18843572D01*
X20327845Y18714777D01*
X20327846Y18714775D01*
X20405293Y18598868D01*
X20503868Y18500293D01*
X20541473Y18475167D01*
X20568049Y18435393D01*
X20558717Y18388477D01*
X20518943Y18361901D01*
X20506750Y18360700D01*
X20504298Y18360700D01*
X20367572Y18333503D01*
X20238778Y18280155D01*
X20238777Y18280154D01*
X20238775Y18280153D01*
X20122868Y18202706D01*
X20024293Y18104131D01*
X19946846Y17988224D01*
X19946845Y17988222D01*
X19893496Y17859427D01*
X19893496Y17859426D01*
X19866300Y17722702D01*
X19866300Y17583297D01*
X19889330Y17467515D01*
X19879998Y17420599D01*
X19840224Y17394023D01*
X19793308Y17403355D01*
X19783842Y17411123D01*
X19064016Y18130951D01*
X18982815Y18177833D01*
X18892246Y18202100D01*
X18892245Y18202100D01*
X16814999Y18202100D01*
X16770805Y18220406D01*
X16752499Y18264600D01*
X16752499Y18491064D01*
X16752499Y18491066D01*
X16737734Y18565301D01*
X16681484Y18649484D01*
X16597301Y18705734D01*
X16585497Y18708081D01*
X16545725Y18734654D01*
X16536390Y18781570D01*
X16562964Y18821345D01*
X16572445Y18826554D01*
X16672775Y18870855D01*
X16672777Y18870856D01*
X16753142Y18951221D01*
X16799051Y19055194D01*
X16802000Y19080611D01*
X16802000Y19594000D01*
X14694001Y19594000D01*
X14694001Y19080611D01*
X14696949Y19055192D01*
X14696949Y19055191D01*
X14742857Y18951221D01*
X14823223Y18870856D01*
X14823224Y18870855D01*
X14923555Y18826554D01*
X14956590Y18791957D01*
X14955484Y18744135D01*
X14920887Y18711100D01*
X14910515Y18708084D01*
X14898699Y18705734D01*
X14898696Y18705732D01*
X14814515Y18649484D01*
X14758266Y18565302D01*
X14758265Y18565300D01*
X14743500Y18491067D01*
X14743500Y17200935D01*
X14743501Y17200931D01*
X14758265Y17126700D01*
X14758267Y17126696D01*
X14814515Y17042515D01*
X14898697Y16986266D01*
X14898699Y16986265D01*
X14972932Y16971500D01*
X14972933Y16971500D01*
X16523064Y16971500D01*
X16523068Y16971501D01*
X16597299Y16986265D01*
X16597303Y16986267D01*
X16681484Y17042515D01*
X16737733Y17126697D01*
X16737734Y17126699D01*
X16742222Y17149262D01*
X16752500Y17200933D01*
X16752500Y17427400D01*
X16770806Y17471594D01*
X16815000Y17489900D01*
X17127241Y17489900D01*
X17171435Y17471594D01*
X17189741Y17427400D01*
X17179208Y17392677D01*
X17152846Y17353224D01*
X17152845Y17353222D01*
X17099496Y17224427D01*
X17099496Y17224426D01*
X17072300Y17087702D01*
X17072300Y16948297D01*
X17099496Y16811573D01*
X17106108Y16795611D01*
X17146326Y16698516D01*
X17146327Y16650682D01*
X17112502Y16616858D01*
X17088584Y16612100D01*
X14483506Y16612100D01*
X14439312Y16630406D01*
X14421006Y16674600D01*
X14422207Y16686794D01*
X14423700Y16694298D01*
X14423700Y16833702D01*
X14414380Y16880554D01*
X14396503Y16970428D01*
X14343155Y17099222D01*
X14265706Y17215132D01*
X14167132Y17313706D01*
X14051222Y17391155D01*
X13922428Y17444503D01*
X13785702Y17471700D01*
X13646298Y17471700D01*
X13509572Y17444503D01*
X13409915Y17403223D01*
X13362081Y17403223D01*
X13328257Y17437048D01*
X13323499Y17460966D01*
X13323499Y18491064D01*
X13323499Y18491066D01*
X13308734Y18565301D01*
X13252484Y18649484D01*
X13168301Y18705734D01*
X13156497Y18708081D01*
X13116725Y18734654D01*
X13107390Y18781570D01*
X13133964Y18821345D01*
X13143445Y18826554D01*
X13243775Y18870855D01*
X13243777Y18870856D01*
X13324142Y18951221D01*
X13370051Y19055194D01*
X13373000Y19080611D01*
X13373000Y19594000D01*
X12381500Y19594000D01*
X12337306Y19612306D01*
X12319000Y19656500D01*
X12319000Y19746000D01*
X12229500Y19746000D01*
X12185306Y19764306D01*
X12167000Y19808500D01*
X12167000Y19898000D01*
X12471000Y19898000D01*
X13372999Y19898000D01*
X13372999Y20411388D01*
X14694000Y20411388D01*
X14694000Y19898000D01*
X15596000Y19898000D01*
X15900000Y19898000D01*
X16801999Y19898000D01*
X16801999Y20411388D01*
X16799050Y20436807D01*
X16799050Y20436808D01*
X16753142Y20540778D01*
X16672778Y20621142D01*
X16568805Y20667051D01*
X16543388Y20669999D01*
X15900000Y20669999D01*
X15900000Y19898000D01*
X15596000Y19898000D01*
X15596000Y20669999D01*
X14952612Y20669999D01*
X14927192Y20667050D01*
X14927191Y20667050D01*
X14823221Y20621142D01*
X14742857Y20540778D01*
X14696948Y20436805D01*
X14694000Y20411388D01*
X13372999Y20411388D01*
X13370050Y20436807D01*
X13370050Y20436808D01*
X13324142Y20540778D01*
X13243778Y20621142D01*
X13139805Y20667051D01*
X13114388Y20669999D01*
X12471000Y20669999D01*
X12471000Y19898000D01*
X12167000Y19898000D01*
X12167000Y20669999D01*
X11523612Y20669999D01*
X11498192Y20667050D01*
X11498191Y20667050D01*
X11394221Y20621142D01*
X11368814Y20595735D01*
X11324620Y20577429D01*
X11289898Y20587961D01*
X11263301Y20605734D01*
X11189067Y20620500D01*
X9638934Y20620499D01*
X9564699Y20605734D01*
X9496222Y20559978D01*
X9449307Y20550647D01*
X9426779Y20559977D01*
X9358301Y20605734D01*
X9284067Y20620500D01*
X7733934Y20620499D01*
X7659699Y20605734D01*
X7591222Y20559978D01*
X7544307Y20550647D01*
X7521779Y20559977D01*
X7453301Y20605734D01*
X7379067Y20620500D01*
X5904999Y20620499D01*
X5860806Y20638805D01*
X5842500Y20682999D01*
X5842500Y21248274D01*
X5860806Y21292468D01*
X6942273Y22373935D01*
X7025718Y22498819D01*
X7025719Y22498821D01*
X7034784Y22520706D01*
X7083197Y22637588D01*
X7086920Y22656301D01*
X7112500Y22784900D01*
X7112500Y25861300D01*
X7130806Y25905494D01*
X7183458Y25958146D01*
X7183465Y25958154D01*
X7284559Y26097297D01*
X7326945Y26180483D01*
X7362645Y26250549D01*
X7415794Y26414125D01*
X7442700Y26584003D01*
X7442700Y26755997D01*
X7415794Y26925875D01*
X7362645Y27089451D01*
X7284561Y27242700D01*
X7213677Y27340263D01*
X7202509Y27386777D01*
X7227503Y27427563D01*
X7264240Y27439500D01*
X7914575Y27439500D01*
X7958769Y27421194D01*
G37*
%TD.AperFunction*%
%TD*%
M02*
