%TF.GenerationSoftware,KiCad,Pcbnew,10.99.0-3671-gbe90a7e200*%
%TF.CreationDate,2026-09-09T23:02:06+01:00*%
%TF.ProjectId,kicad_file,6b696361-645f-4666-996c-652e6b696361,rev?*%
%TF.SameCoordinates,Original*%
%TF.FileFunction,Paste,Top*%
%TF.FilePolarity,Positive*%
%FSLAX46Y46*%
G04 Gerber Fmt 4.6, Leading zero omitted, Abs format (unit mm)*
G04 Created by KiCad (PCBNEW 10.99.0-3671-gbe90a7e200) date 2026-09-09 23:02:06*
%MOMM*%
%LPD*%
G01*
G04 APERTURE LIST*
%ADD10C,0.000000*%
%ADD11R,1.100000X1.400000*%
%ADD12R,1.200000X0.550000*%
%ADD13R,0.350000X0.700000*%
%ADD14R,0.700000X0.350000*%
G04 APERTURE END LIST*
D10*
%TO.C,IC1*%
G36*
X10525000Y11984000D02*
G01*
X9825000Y11984000D01*
X9825000Y12684000D01*
X10525000Y12684000D01*
X10525000Y11984000D01*
G37*
G36*
X9225000Y11984000D02*
G01*
X8525000Y11984000D01*
X8525000Y12684000D01*
X9225000Y12684000D01*
X9225000Y11984000D01*
G37*
G36*
X10525000Y10684000D02*
G01*
X9825000Y10684000D01*
X9825000Y11384000D01*
X10525000Y11384000D01*
X10525000Y10684000D01*
G37*
G36*
X9225000Y10684000D02*
G01*
X8525000Y10684000D01*
X8525000Y11384000D01*
X9225000Y11384000D01*
X9225000Y10684000D01*
G37*
%TD*%
D11*
%TO.C,C5*%
X2302000Y9398000D03*
X4302000Y9398000D03*
%TD*%
%TO.C,C2*%
X8366000Y7874000D03*
X6366000Y7874000D03*
%TD*%
%TO.C,C3*%
X10684000Y7874000D03*
X12684000Y7874000D03*
%TD*%
D12*
%TO.C,IC2*%
X2256000Y13142000D03*
X2256000Y12192000D03*
X2256000Y11242000D03*
X4856000Y11242000D03*
X4856000Y13142000D03*
%TD*%
D13*
%TO.C,IC1*%
X10500000Y13509000D03*
X9850000Y13509000D03*
X9200000Y13509000D03*
X8550000Y13509000D03*
D14*
X7675000Y12659000D03*
X7675000Y12034000D03*
X7675000Y11359000D03*
X7675000Y10709000D03*
D13*
X8550000Y9859000D03*
X9200000Y9859000D03*
X9850000Y9859000D03*
X10500000Y9859000D03*
D14*
X11350000Y10709000D03*
X11350000Y11359000D03*
X11350000Y12009000D03*
X11350000Y12659000D03*
%TD*%
D11*
%TO.C,C1*%
X15002000Y10160000D03*
X17002000Y10160000D03*
%TD*%
%TO.C,C4*%
X15002000Y7874000D03*
X17002000Y7874000D03*
%TD*%
M02*
