%TF.GenerationSoftware,KiCad,Pcbnew,10.99.0-3758-g2f18d95be7*%
%TF.CreationDate,2026-09-13T06:57:16+01:00*%
%TF.ProjectId,kicad_file,6b696361-645f-4666-996c-652e6b696361,rev?*%
%TF.SameCoordinates,Original*%
%TF.FileFunction,Drillmap*%
%TF.FilePolarity,Positive*%
%FSLAX45Y45*%
G04 Gerber Fmt 4.5, Leading zero omitted, Abs format (unit mm)*
G04 Created by KiCad (PCBNEW 10.99.0-3758-g2f18d95be7) date 2026-09-13 06:57:16*
%MOMM*%
%LPD*%
G01*
G04 APERTURE LIST*
%ADD10C,0.050000*%
%ADD11C,0.200000*%
%ADD12C,0.100000*%
%ADD13C,0.101600*%
%ADD14C,0.180000*%
G04 APERTURE END LIST*
D10*
X222250Y1466850D02*
X222250Y1212850D01*
X222250Y1466850D02*
G75*
G02*
X476250Y1720850I254000J0D01*
G01*
X222250Y768350D02*
G75*
G02*
X222250Y1212850I0J222250D01*
G01*
X222250Y768350D02*
X222250Y514350D01*
X476250Y1720850D02*
X603250Y1720850D01*
X476250Y260350D02*
G75*
G02*
X222250Y514350I0J254000D01*
G01*
X476250Y260350D02*
X603250Y260350D01*
X603250Y260350D02*
G75*
G02*
X730250Y133350I0J-127000D01*
G01*
X730250Y1847850D02*
G75*
G02*
X603250Y1720850I-127000J0D01*
G01*
X730250Y1847850D02*
G75*
G02*
X857250Y1974850I127000J0D01*
G01*
X857250Y1974850D02*
X1555750Y1974850D01*
X857250Y6350D02*
G75*
G02*
X730250Y133350I0J127000D01*
G01*
X857250Y6350D02*
X1555750Y6350D01*
X1555750Y1974850D02*
G75*
G02*
X1682750Y1847850I0J-127000D01*
G01*
X1682750Y133350D02*
G75*
G02*
X1555750Y6350I-127000J0D01*
G01*
X1682750Y133350D02*
G75*
G02*
X1809750Y260350I127000J0D01*
G01*
X1809750Y1720850D02*
G75*
G02*
X1682750Y1847850I0J127000D01*
G01*
X1936750Y1720850D02*
X1809750Y1720850D01*
X1936750Y1720850D02*
G75*
G02*
X2190750Y1466850I0J-254000D01*
G01*
X1936750Y260350D02*
X1809750Y260350D01*
X2190750Y1212850D02*
X2190750Y1466850D01*
X2190750Y1212850D02*
G75*
G02*
X2190750Y768350I0J-222250D01*
G01*
X2190750Y514350D02*
G75*
G02*
X1936750Y260350I-254000J0D01*
G01*
X2190750Y514350D02*
X2190750Y768350D01*
D11*
D12*
X883285Y1381125D02*
X922655Y1341755D01*
X922655Y1381125D02*
X883285Y1341755D01*
X883285Y835025D02*
X922655Y795655D01*
X922655Y835025D02*
X883285Y795655D01*
X1821815Y1453515D02*
X1861185Y1414145D01*
X1861185Y1453515D02*
X1821815Y1414145D01*
D13*
X1257300Y1752600D02*
G75*
G02*
X1155700Y1752600I-50800J0D01*
G01*
X1155700Y1752600D02*
G75*
G02*
X1257300Y1752600I50800J0D01*
G01*
X1257300Y228600D02*
G75*
G02*
X1155700Y228600I-50800J0D01*
G01*
X1155700Y228600D02*
G75*
G02*
X1257300Y228600I50800J0D01*
G01*
D14*
X952500Y1842600D02*
X952500Y1662600D01*
X862500Y1752600D02*
X1042500Y1752600D01*
X952500Y318600D02*
X952500Y138600D01*
X862500Y228600D02*
X1042500Y228600D01*
X1460500Y1842600D02*
X1460500Y1662600D01*
X1370500Y1752600D02*
X1550500Y1752600D01*
X1460500Y318600D02*
X1460500Y138600D01*
X1370500Y228600D02*
X1550500Y228600D01*
D11*
X258277Y-307634D02*
X258277Y-107634D01*
X258277Y-107634D02*
X305896Y-107634D01*
X305896Y-107634D02*
X334467Y-117158D01*
X334467Y-117158D02*
X353515Y-136205D01*
X353515Y-136205D02*
X363039Y-155253D01*
X363039Y-155253D02*
X372562Y-193348D01*
X372562Y-193348D02*
X372562Y-221919D01*
X372562Y-221919D02*
X363039Y-260015D01*
X363039Y-260015D02*
X353515Y-279062D01*
X353515Y-279062D02*
X334467Y-298110D01*
X334467Y-298110D02*
X305896Y-307634D01*
X305896Y-307634D02*
X258277Y-307634D01*
X458277Y-307634D02*
X458277Y-174300D01*
X458277Y-212396D02*
X467801Y-193348D01*
X467801Y-193348D02*
X477324Y-183824D01*
X477324Y-183824D02*
X496372Y-174300D01*
X496372Y-174300D02*
X515420Y-174300D01*
X582086Y-307634D02*
X582086Y-174300D01*
X582086Y-107634D02*
X572563Y-117158D01*
X572563Y-117158D02*
X582086Y-126681D01*
X582086Y-126681D02*
X591610Y-117158D01*
X591610Y-117158D02*
X582086Y-107634D01*
X582086Y-107634D02*
X582086Y-126681D01*
X705896Y-307634D02*
X686848Y-298110D01*
X686848Y-298110D02*
X677324Y-279062D01*
X677324Y-279062D02*
X677324Y-107634D01*
X810658Y-307634D02*
X791610Y-298110D01*
X791610Y-298110D02*
X782086Y-279062D01*
X782086Y-279062D02*
X782086Y-107634D01*
X1039229Y-307634D02*
X1039229Y-107634D01*
X1039229Y-107634D02*
X1105896Y-250491D01*
X1105896Y-250491D02*
X1172563Y-107634D01*
X1172563Y-107634D02*
X1172563Y-307634D01*
X1353515Y-307634D02*
X1353515Y-202872D01*
X1353515Y-202872D02*
X1343991Y-183824D01*
X1343991Y-183824D02*
X1324944Y-174300D01*
X1324944Y-174300D02*
X1286848Y-174300D01*
X1286848Y-174300D02*
X1267801Y-183824D01*
X1353515Y-298110D02*
X1334467Y-307634D01*
X1334467Y-307634D02*
X1286848Y-307634D01*
X1286848Y-307634D02*
X1267801Y-298110D01*
X1267801Y-298110D02*
X1258277Y-279062D01*
X1258277Y-279062D02*
X1258277Y-260015D01*
X1258277Y-260015D02*
X1267801Y-240967D01*
X1267801Y-240967D02*
X1286848Y-231443D01*
X1286848Y-231443D02*
X1334467Y-231443D01*
X1334467Y-231443D02*
X1353515Y-221919D01*
X1448753Y-174300D02*
X1448753Y-374300D01*
X1448753Y-183824D02*
X1467801Y-174300D01*
X1467801Y-174300D02*
X1505896Y-174300D01*
X1505896Y-174300D02*
X1524943Y-183824D01*
X1524943Y-183824D02*
X1534467Y-193348D01*
X1534467Y-193348D02*
X1543991Y-212396D01*
X1543991Y-212396D02*
X1543991Y-269539D01*
X1543991Y-269539D02*
X1534467Y-288586D01*
X1534467Y-288586D02*
X1524943Y-298110D01*
X1524943Y-298110D02*
X1505896Y-307634D01*
X1505896Y-307634D02*
X1467801Y-307634D01*
X1467801Y-307634D02*
X1448753Y-298110D01*
X1629705Y-288586D02*
X1639229Y-298110D01*
X1639229Y-298110D02*
X1629705Y-307634D01*
X1629705Y-307634D02*
X1620182Y-298110D01*
X1620182Y-298110D02*
X1629705Y-288586D01*
X1629705Y-288586D02*
X1629705Y-307634D01*
X1629705Y-183824D02*
X1639229Y-193348D01*
X1639229Y-193348D02*
X1629705Y-202872D01*
X1629705Y-202872D02*
X1620182Y-193348D01*
X1620182Y-193348D02*
X1629705Y-183824D01*
X1629705Y-183824D02*
X1629705Y-202872D01*
D12*
X-41870Y-616465D02*
X-2500Y-655835D01*
X-2500Y-616465D02*
X-41870Y-655835D01*
D11*
X296372Y-527634D02*
X315420Y-527634D01*
X315420Y-527634D02*
X334467Y-537158D01*
X334467Y-537158D02*
X343991Y-546681D01*
X343991Y-546681D02*
X353515Y-565729D01*
X353515Y-565729D02*
X363039Y-603824D01*
X363039Y-603824D02*
X363039Y-651443D01*
X363039Y-651443D02*
X353515Y-689539D01*
X353515Y-689539D02*
X343991Y-708586D01*
X343991Y-708586D02*
X334467Y-718110D01*
X334467Y-718110D02*
X315420Y-727634D01*
X315420Y-727634D02*
X296372Y-727634D01*
X296372Y-727634D02*
X277324Y-718110D01*
X277324Y-718110D02*
X267801Y-708586D01*
X267801Y-708586D02*
X258277Y-689539D01*
X258277Y-689539D02*
X248753Y-651443D01*
X248753Y-651443D02*
X248753Y-603824D01*
X248753Y-603824D02*
X258277Y-565729D01*
X258277Y-565729D02*
X267801Y-546681D01*
X267801Y-546681D02*
X277324Y-537158D01*
X277324Y-537158D02*
X296372Y-527634D01*
X448753Y-708586D02*
X458277Y-718110D01*
X458277Y-718110D02*
X448753Y-727634D01*
X448753Y-727634D02*
X439229Y-718110D01*
X439229Y-718110D02*
X448753Y-708586D01*
X448753Y-708586D02*
X448753Y-727634D01*
X524944Y-527634D02*
X648753Y-527634D01*
X648753Y-527634D02*
X582086Y-603824D01*
X582086Y-603824D02*
X610658Y-603824D01*
X610658Y-603824D02*
X629705Y-613348D01*
X629705Y-613348D02*
X639229Y-622872D01*
X639229Y-622872D02*
X648753Y-641920D01*
X648753Y-641920D02*
X648753Y-689539D01*
X648753Y-689539D02*
X639229Y-708586D01*
X639229Y-708586D02*
X629705Y-718110D01*
X629705Y-718110D02*
X610658Y-727634D01*
X610658Y-727634D02*
X553515Y-727634D01*
X553515Y-727634D02*
X534467Y-718110D01*
X534467Y-718110D02*
X524944Y-708586D01*
X743991Y-727634D02*
X782086Y-727634D01*
X782086Y-727634D02*
X801134Y-718110D01*
X801134Y-718110D02*
X810658Y-708586D01*
X810658Y-708586D02*
X829705Y-680015D01*
X829705Y-680015D02*
X839229Y-641920D01*
X839229Y-641920D02*
X839229Y-565729D01*
X839229Y-565729D02*
X829705Y-546681D01*
X829705Y-546681D02*
X820182Y-537158D01*
X820182Y-537158D02*
X801134Y-527634D01*
X801134Y-527634D02*
X763039Y-527634D01*
X763039Y-527634D02*
X743991Y-537158D01*
X743991Y-537158D02*
X734467Y-546681D01*
X734467Y-546681D02*
X724943Y-565729D01*
X724943Y-565729D02*
X724943Y-613348D01*
X724943Y-613348D02*
X734467Y-632396D01*
X734467Y-632396D02*
X743991Y-641920D01*
X743991Y-641920D02*
X763039Y-651443D01*
X763039Y-651443D02*
X801134Y-651443D01*
X801134Y-651443D02*
X820182Y-641920D01*
X820182Y-641920D02*
X829705Y-632396D01*
X829705Y-632396D02*
X839229Y-613348D01*
X1010658Y-594300D02*
X1010658Y-727634D01*
X963039Y-518110D02*
X915420Y-660967D01*
X915420Y-660967D02*
X1039229Y-660967D01*
X1115420Y-727634D02*
X1115420Y-594300D01*
X1115420Y-613348D02*
X1124944Y-603824D01*
X1124944Y-603824D02*
X1143991Y-594300D01*
X1143991Y-594300D02*
X1172563Y-594300D01*
X1172563Y-594300D02*
X1191610Y-603824D01*
X1191610Y-603824D02*
X1201134Y-622872D01*
X1201134Y-622872D02*
X1201134Y-727634D01*
X1201134Y-622872D02*
X1210658Y-603824D01*
X1210658Y-603824D02*
X1229705Y-594300D01*
X1229705Y-594300D02*
X1258277Y-594300D01*
X1258277Y-594300D02*
X1277325Y-603824D01*
X1277325Y-603824D02*
X1286848Y-622872D01*
X1286848Y-622872D02*
X1286848Y-727634D01*
X1382086Y-727634D02*
X1382086Y-594300D01*
X1382086Y-613348D02*
X1391610Y-603824D01*
X1391610Y-603824D02*
X1410658Y-594300D01*
X1410658Y-594300D02*
X1439229Y-594300D01*
X1439229Y-594300D02*
X1458277Y-603824D01*
X1458277Y-603824D02*
X1467801Y-622872D01*
X1467801Y-622872D02*
X1467801Y-727634D01*
X1467801Y-622872D02*
X1477324Y-603824D01*
X1477324Y-603824D02*
X1496372Y-594300D01*
X1496372Y-594300D02*
X1524943Y-594300D01*
X1524943Y-594300D02*
X1543991Y-603824D01*
X1543991Y-603824D02*
X1553515Y-622872D01*
X1553515Y-622872D02*
X1553515Y-727634D01*
X1943991Y-518110D02*
X1772563Y-775253D01*
X2201134Y-527634D02*
X2220182Y-527634D01*
X2220182Y-527634D02*
X2239229Y-537158D01*
X2239229Y-537158D02*
X2248753Y-546681D01*
X2248753Y-546681D02*
X2258277Y-565729D01*
X2258277Y-565729D02*
X2267801Y-603824D01*
X2267801Y-603824D02*
X2267801Y-651443D01*
X2267801Y-651443D02*
X2258277Y-689539D01*
X2258277Y-689539D02*
X2248753Y-708586D01*
X2248753Y-708586D02*
X2239229Y-718110D01*
X2239229Y-718110D02*
X2220182Y-727634D01*
X2220182Y-727634D02*
X2201134Y-727634D01*
X2201134Y-727634D02*
X2182087Y-718110D01*
X2182087Y-718110D02*
X2172563Y-708586D01*
X2172563Y-708586D02*
X2163039Y-689539D01*
X2163039Y-689539D02*
X2153515Y-651443D01*
X2153515Y-651443D02*
X2153515Y-603824D01*
X2153515Y-603824D02*
X2163039Y-565729D01*
X2163039Y-565729D02*
X2172563Y-546681D01*
X2172563Y-546681D02*
X2182087Y-537158D01*
X2182087Y-537158D02*
X2201134Y-527634D01*
X2353515Y-708586D02*
X2363039Y-718110D01*
X2363039Y-718110D02*
X2353515Y-727634D01*
X2353515Y-727634D02*
X2343991Y-718110D01*
X2343991Y-718110D02*
X2353515Y-708586D01*
X2353515Y-708586D02*
X2353515Y-727634D01*
X2486848Y-527634D02*
X2505896Y-527634D01*
X2505896Y-527634D02*
X2524944Y-537158D01*
X2524944Y-537158D02*
X2534468Y-546681D01*
X2534468Y-546681D02*
X2543991Y-565729D01*
X2543991Y-565729D02*
X2553515Y-603824D01*
X2553515Y-603824D02*
X2553515Y-651443D01*
X2553515Y-651443D02*
X2543991Y-689539D01*
X2543991Y-689539D02*
X2534468Y-708586D01*
X2534468Y-708586D02*
X2524944Y-718110D01*
X2524944Y-718110D02*
X2505896Y-727634D01*
X2505896Y-727634D02*
X2486848Y-727634D01*
X2486848Y-727634D02*
X2467801Y-718110D01*
X2467801Y-718110D02*
X2458277Y-708586D01*
X2458277Y-708586D02*
X2448753Y-689539D01*
X2448753Y-689539D02*
X2439229Y-651443D01*
X2439229Y-651443D02*
X2439229Y-603824D01*
X2439229Y-603824D02*
X2448753Y-565729D01*
X2448753Y-565729D02*
X2458277Y-546681D01*
X2458277Y-546681D02*
X2467801Y-537158D01*
X2467801Y-537158D02*
X2486848Y-527634D01*
X2743991Y-727634D02*
X2629706Y-727634D01*
X2686848Y-727634D02*
X2686848Y-527634D01*
X2686848Y-527634D02*
X2667801Y-556205D01*
X2667801Y-556205D02*
X2648753Y-575253D01*
X2648753Y-575253D02*
X2629706Y-584777D01*
X2924944Y-527634D02*
X2829706Y-527634D01*
X2829706Y-527634D02*
X2820182Y-622872D01*
X2820182Y-622872D02*
X2829706Y-613348D01*
X2829706Y-613348D02*
X2848753Y-603824D01*
X2848753Y-603824D02*
X2896372Y-603824D01*
X2896372Y-603824D02*
X2915420Y-613348D01*
X2915420Y-613348D02*
X2924944Y-622872D01*
X2924944Y-622872D02*
X2934467Y-641920D01*
X2934467Y-641920D02*
X2934467Y-689539D01*
X2934467Y-689539D02*
X2924944Y-708586D01*
X2924944Y-708586D02*
X2915420Y-718110D01*
X2915420Y-718110D02*
X2896372Y-727634D01*
X2896372Y-727634D02*
X2848753Y-727634D01*
X2848753Y-727634D02*
X2829706Y-718110D01*
X2829706Y-718110D02*
X2820182Y-708586D01*
X3115420Y-527634D02*
X3020182Y-527634D01*
X3020182Y-527634D02*
X3010658Y-622872D01*
X3010658Y-622872D02*
X3020182Y-613348D01*
X3020182Y-613348D02*
X3039229Y-603824D01*
X3039229Y-603824D02*
X3086848Y-603824D01*
X3086848Y-603824D02*
X3105896Y-613348D01*
X3105896Y-613348D02*
X3115420Y-622872D01*
X3115420Y-622872D02*
X3124944Y-641920D01*
X3124944Y-641920D02*
X3124944Y-689539D01*
X3124944Y-689539D02*
X3115420Y-708586D01*
X3115420Y-708586D02*
X3105896Y-718110D01*
X3105896Y-718110D02*
X3086848Y-727634D01*
X3086848Y-727634D02*
X3039229Y-727634D01*
X3039229Y-727634D02*
X3020182Y-718110D01*
X3020182Y-718110D02*
X3010658Y-708586D01*
X3201134Y-527634D02*
X3201134Y-565729D01*
X3277325Y-527634D02*
X3277325Y-565729D01*
X3572563Y-803824D02*
X3563039Y-794300D01*
X3563039Y-794300D02*
X3543991Y-765729D01*
X3543991Y-765729D02*
X3534468Y-746681D01*
X3534468Y-746681D02*
X3524944Y-718110D01*
X3524944Y-718110D02*
X3515420Y-670491D01*
X3515420Y-670491D02*
X3515420Y-632396D01*
X3515420Y-632396D02*
X3524944Y-584777D01*
X3524944Y-584777D02*
X3534468Y-556205D01*
X3534468Y-556205D02*
X3543991Y-537158D01*
X3543991Y-537158D02*
X3563039Y-508586D01*
X3563039Y-508586D02*
X3572563Y-499062D01*
X3629706Y-527634D02*
X3753515Y-527634D01*
X3753515Y-527634D02*
X3686848Y-603824D01*
X3686848Y-603824D02*
X3715420Y-603824D01*
X3715420Y-603824D02*
X3734468Y-613348D01*
X3734468Y-613348D02*
X3743991Y-622872D01*
X3743991Y-622872D02*
X3753515Y-641920D01*
X3753515Y-641920D02*
X3753515Y-689539D01*
X3753515Y-689539D02*
X3743991Y-708586D01*
X3743991Y-708586D02*
X3734468Y-718110D01*
X3734468Y-718110D02*
X3715420Y-727634D01*
X3715420Y-727634D02*
X3658277Y-727634D01*
X3658277Y-727634D02*
X3639229Y-718110D01*
X3639229Y-718110D02*
X3629706Y-708586D01*
X3991610Y-727634D02*
X3991610Y-527634D01*
X4077325Y-727634D02*
X4077325Y-622872D01*
X4077325Y-622872D02*
X4067801Y-603824D01*
X4067801Y-603824D02*
X4048753Y-594300D01*
X4048753Y-594300D02*
X4020182Y-594300D01*
X4020182Y-594300D02*
X4001134Y-603824D01*
X4001134Y-603824D02*
X3991610Y-613348D01*
X4201134Y-727634D02*
X4182087Y-718110D01*
X4182087Y-718110D02*
X4172563Y-708586D01*
X4172563Y-708586D02*
X4163039Y-689539D01*
X4163039Y-689539D02*
X4163039Y-632396D01*
X4163039Y-632396D02*
X4172563Y-613348D01*
X4172563Y-613348D02*
X4182087Y-603824D01*
X4182087Y-603824D02*
X4201134Y-594300D01*
X4201134Y-594300D02*
X4229706Y-594300D01*
X4229706Y-594300D02*
X4248753Y-603824D01*
X4248753Y-603824D02*
X4258277Y-613348D01*
X4258277Y-613348D02*
X4267801Y-632396D01*
X4267801Y-632396D02*
X4267801Y-689539D01*
X4267801Y-689539D02*
X4258277Y-708586D01*
X4258277Y-708586D02*
X4248753Y-718110D01*
X4248753Y-718110D02*
X4229706Y-727634D01*
X4229706Y-727634D02*
X4201134Y-727634D01*
X4382087Y-727634D02*
X4363039Y-718110D01*
X4363039Y-718110D02*
X4353515Y-699062D01*
X4353515Y-699062D02*
X4353515Y-527634D01*
X4534468Y-718110D02*
X4515420Y-727634D01*
X4515420Y-727634D02*
X4477325Y-727634D01*
X4477325Y-727634D02*
X4458277Y-718110D01*
X4458277Y-718110D02*
X4448753Y-699062D01*
X4448753Y-699062D02*
X4448753Y-622872D01*
X4448753Y-622872D02*
X4458277Y-603824D01*
X4458277Y-603824D02*
X4477325Y-594300D01*
X4477325Y-594300D02*
X4515420Y-594300D01*
X4515420Y-594300D02*
X4534468Y-603824D01*
X4534468Y-603824D02*
X4543992Y-622872D01*
X4543992Y-622872D02*
X4543992Y-641920D01*
X4543992Y-641920D02*
X4448753Y-660967D01*
X4620182Y-718110D02*
X4639230Y-727634D01*
X4639230Y-727634D02*
X4677325Y-727634D01*
X4677325Y-727634D02*
X4696373Y-718110D01*
X4696373Y-718110D02*
X4705896Y-699062D01*
X4705896Y-699062D02*
X4705896Y-689539D01*
X4705896Y-689539D02*
X4696373Y-670491D01*
X4696373Y-670491D02*
X4677325Y-660967D01*
X4677325Y-660967D02*
X4648753Y-660967D01*
X4648753Y-660967D02*
X4629706Y-651443D01*
X4629706Y-651443D02*
X4620182Y-632396D01*
X4620182Y-632396D02*
X4620182Y-622872D01*
X4620182Y-622872D02*
X4629706Y-603824D01*
X4629706Y-603824D02*
X4648753Y-594300D01*
X4648753Y-594300D02*
X4677325Y-594300D01*
X4677325Y-594300D02*
X4696373Y-603824D01*
X4772563Y-803824D02*
X4782087Y-794300D01*
X4782087Y-794300D02*
X4801134Y-765729D01*
X4801134Y-765729D02*
X4810658Y-746681D01*
X4810658Y-746681D02*
X4820182Y-718110D01*
X4820182Y-718110D02*
X4829706Y-670491D01*
X4829706Y-670491D02*
X4829706Y-632396D01*
X4829706Y-632396D02*
X4820182Y-584777D01*
X4820182Y-584777D02*
X4810658Y-556205D01*
X4810658Y-556205D02*
X4801134Y-537158D01*
X4801134Y-537158D02*
X4782087Y-508586D01*
X4782087Y-508586D02*
X4772563Y-499062D01*
D13*
X-2500Y-900150D02*
G75*
G02*
X-104100Y-900150I-50800J0D01*
G01*
X-104100Y-900150D02*
G75*
G02*
X-2500Y-900150I50800J0D01*
G01*
D11*
X363039Y-991634D02*
X248753Y-991634D01*
X305896Y-991634D02*
X305896Y-791634D01*
X305896Y-791634D02*
X286848Y-820205D01*
X286848Y-820205D02*
X267801Y-839253D01*
X267801Y-839253D02*
X248753Y-848777D01*
X448753Y-972586D02*
X458277Y-982110D01*
X458277Y-982110D02*
X448753Y-991634D01*
X448753Y-991634D02*
X439229Y-982110D01*
X439229Y-982110D02*
X448753Y-972586D01*
X448753Y-972586D02*
X448753Y-991634D01*
X582086Y-791634D02*
X601134Y-791634D01*
X601134Y-791634D02*
X620182Y-801158D01*
X620182Y-801158D02*
X629705Y-810681D01*
X629705Y-810681D02*
X639229Y-829729D01*
X639229Y-829729D02*
X648753Y-867824D01*
X648753Y-867824D02*
X648753Y-915443D01*
X648753Y-915443D02*
X639229Y-953538D01*
X639229Y-953538D02*
X629705Y-972586D01*
X629705Y-972586D02*
X620182Y-982110D01*
X620182Y-982110D02*
X601134Y-991634D01*
X601134Y-991634D02*
X582086Y-991634D01*
X582086Y-991634D02*
X563039Y-982110D01*
X563039Y-982110D02*
X553515Y-972586D01*
X553515Y-972586D02*
X543991Y-953538D01*
X543991Y-953538D02*
X534467Y-915443D01*
X534467Y-915443D02*
X534467Y-867824D01*
X534467Y-867824D02*
X543991Y-829729D01*
X543991Y-829729D02*
X553515Y-810681D01*
X553515Y-810681D02*
X563039Y-801158D01*
X563039Y-801158D02*
X582086Y-791634D01*
X839229Y-991634D02*
X724943Y-991634D01*
X782086Y-991634D02*
X782086Y-791634D01*
X782086Y-791634D02*
X763039Y-820205D01*
X763039Y-820205D02*
X743991Y-839253D01*
X743991Y-839253D02*
X724943Y-848777D01*
X1010658Y-791634D02*
X972562Y-791634D01*
X972562Y-791634D02*
X953515Y-801158D01*
X953515Y-801158D02*
X943991Y-810681D01*
X943991Y-810681D02*
X924943Y-839253D01*
X924943Y-839253D02*
X915420Y-877348D01*
X915420Y-877348D02*
X915420Y-953538D01*
X915420Y-953538D02*
X924943Y-972586D01*
X924943Y-972586D02*
X934467Y-982110D01*
X934467Y-982110D02*
X953515Y-991634D01*
X953515Y-991634D02*
X991610Y-991634D01*
X991610Y-991634D02*
X1010658Y-982110D01*
X1010658Y-982110D02*
X1020182Y-972586D01*
X1020182Y-972586D02*
X1029705Y-953538D01*
X1029705Y-953538D02*
X1029705Y-905919D01*
X1029705Y-905919D02*
X1020182Y-886872D01*
X1020182Y-886872D02*
X1010658Y-877348D01*
X1010658Y-877348D02*
X991610Y-867824D01*
X991610Y-867824D02*
X953515Y-867824D01*
X953515Y-867824D02*
X934467Y-877348D01*
X934467Y-877348D02*
X924943Y-886872D01*
X924943Y-886872D02*
X915420Y-905919D01*
X1115420Y-991634D02*
X1115420Y-858300D01*
X1115420Y-877348D02*
X1124944Y-867824D01*
X1124944Y-867824D02*
X1143991Y-858300D01*
X1143991Y-858300D02*
X1172563Y-858300D01*
X1172563Y-858300D02*
X1191610Y-867824D01*
X1191610Y-867824D02*
X1201134Y-886872D01*
X1201134Y-886872D02*
X1201134Y-991634D01*
X1201134Y-886872D02*
X1210658Y-867824D01*
X1210658Y-867824D02*
X1229705Y-858300D01*
X1229705Y-858300D02*
X1258277Y-858300D01*
X1258277Y-858300D02*
X1277325Y-867824D01*
X1277325Y-867824D02*
X1286848Y-886872D01*
X1286848Y-886872D02*
X1286848Y-991634D01*
X1382086Y-991634D02*
X1382086Y-858300D01*
X1382086Y-877348D02*
X1391610Y-867824D01*
X1391610Y-867824D02*
X1410658Y-858300D01*
X1410658Y-858300D02*
X1439229Y-858300D01*
X1439229Y-858300D02*
X1458277Y-867824D01*
X1458277Y-867824D02*
X1467801Y-886872D01*
X1467801Y-886872D02*
X1467801Y-991634D01*
X1467801Y-886872D02*
X1477324Y-867824D01*
X1477324Y-867824D02*
X1496372Y-858300D01*
X1496372Y-858300D02*
X1524943Y-858300D01*
X1524943Y-858300D02*
X1543991Y-867824D01*
X1543991Y-867824D02*
X1553515Y-886872D01*
X1553515Y-886872D02*
X1553515Y-991634D01*
X1943991Y-782110D02*
X1772563Y-1039253D01*
X2201134Y-791634D02*
X2220182Y-791634D01*
X2220182Y-791634D02*
X2239229Y-801158D01*
X2239229Y-801158D02*
X2248753Y-810681D01*
X2248753Y-810681D02*
X2258277Y-829729D01*
X2258277Y-829729D02*
X2267801Y-867824D01*
X2267801Y-867824D02*
X2267801Y-915443D01*
X2267801Y-915443D02*
X2258277Y-953538D01*
X2258277Y-953538D02*
X2248753Y-972586D01*
X2248753Y-972586D02*
X2239229Y-982110D01*
X2239229Y-982110D02*
X2220182Y-991634D01*
X2220182Y-991634D02*
X2201134Y-991634D01*
X2201134Y-991634D02*
X2182087Y-982110D01*
X2182087Y-982110D02*
X2172563Y-972586D01*
X2172563Y-972586D02*
X2163039Y-953538D01*
X2163039Y-953538D02*
X2153515Y-915443D01*
X2153515Y-915443D02*
X2153515Y-867824D01*
X2153515Y-867824D02*
X2163039Y-829729D01*
X2163039Y-829729D02*
X2172563Y-810681D01*
X2172563Y-810681D02*
X2182087Y-801158D01*
X2182087Y-801158D02*
X2201134Y-791634D01*
X2353515Y-972586D02*
X2363039Y-982110D01*
X2363039Y-982110D02*
X2353515Y-991634D01*
X2353515Y-991634D02*
X2343991Y-982110D01*
X2343991Y-982110D02*
X2353515Y-972586D01*
X2353515Y-972586D02*
X2353515Y-991634D01*
X2486848Y-791634D02*
X2505896Y-791634D01*
X2505896Y-791634D02*
X2524944Y-801158D01*
X2524944Y-801158D02*
X2534468Y-810681D01*
X2534468Y-810681D02*
X2543991Y-829729D01*
X2543991Y-829729D02*
X2553515Y-867824D01*
X2553515Y-867824D02*
X2553515Y-915443D01*
X2553515Y-915443D02*
X2543991Y-953538D01*
X2543991Y-953538D02*
X2534468Y-972586D01*
X2534468Y-972586D02*
X2524944Y-982110D01*
X2524944Y-982110D02*
X2505896Y-991634D01*
X2505896Y-991634D02*
X2486848Y-991634D01*
X2486848Y-991634D02*
X2467801Y-982110D01*
X2467801Y-982110D02*
X2458277Y-972586D01*
X2458277Y-972586D02*
X2448753Y-953538D01*
X2448753Y-953538D02*
X2439229Y-915443D01*
X2439229Y-915443D02*
X2439229Y-867824D01*
X2439229Y-867824D02*
X2448753Y-829729D01*
X2448753Y-829729D02*
X2458277Y-810681D01*
X2458277Y-810681D02*
X2467801Y-801158D01*
X2467801Y-801158D02*
X2486848Y-791634D01*
X2724944Y-858300D02*
X2724944Y-991634D01*
X2677325Y-782110D02*
X2629706Y-924967D01*
X2629706Y-924967D02*
X2753515Y-924967D01*
X2867801Y-791634D02*
X2886848Y-791634D01*
X2886848Y-791634D02*
X2905896Y-801158D01*
X2905896Y-801158D02*
X2915420Y-810681D01*
X2915420Y-810681D02*
X2924944Y-829729D01*
X2924944Y-829729D02*
X2934467Y-867824D01*
X2934467Y-867824D02*
X2934467Y-915443D01*
X2934467Y-915443D02*
X2924944Y-953538D01*
X2924944Y-953538D02*
X2915420Y-972586D01*
X2915420Y-972586D02*
X2905896Y-982110D01*
X2905896Y-982110D02*
X2886848Y-991634D01*
X2886848Y-991634D02*
X2867801Y-991634D01*
X2867801Y-991634D02*
X2848753Y-982110D01*
X2848753Y-982110D02*
X2839229Y-972586D01*
X2839229Y-972586D02*
X2829706Y-953538D01*
X2829706Y-953538D02*
X2820182Y-915443D01*
X2820182Y-915443D02*
X2820182Y-867824D01*
X2820182Y-867824D02*
X2829706Y-829729D01*
X2829706Y-829729D02*
X2839229Y-810681D01*
X2839229Y-810681D02*
X2848753Y-801158D01*
X2848753Y-801158D02*
X2867801Y-791634D01*
X3058277Y-791634D02*
X3077325Y-791634D01*
X3077325Y-791634D02*
X3096372Y-801158D01*
X3096372Y-801158D02*
X3105896Y-810681D01*
X3105896Y-810681D02*
X3115420Y-829729D01*
X3115420Y-829729D02*
X3124944Y-867824D01*
X3124944Y-867824D02*
X3124944Y-915443D01*
X3124944Y-915443D02*
X3115420Y-953538D01*
X3115420Y-953538D02*
X3105896Y-972586D01*
X3105896Y-972586D02*
X3096372Y-982110D01*
X3096372Y-982110D02*
X3077325Y-991634D01*
X3077325Y-991634D02*
X3058277Y-991634D01*
X3058277Y-991634D02*
X3039229Y-982110D01*
X3039229Y-982110D02*
X3029706Y-972586D01*
X3029706Y-972586D02*
X3020182Y-953538D01*
X3020182Y-953538D02*
X3010658Y-915443D01*
X3010658Y-915443D02*
X3010658Y-867824D01*
X3010658Y-867824D02*
X3020182Y-829729D01*
X3020182Y-829729D02*
X3029706Y-810681D01*
X3029706Y-810681D02*
X3039229Y-801158D01*
X3039229Y-801158D02*
X3058277Y-791634D01*
X3201134Y-791634D02*
X3201134Y-829729D01*
X3277325Y-791634D02*
X3277325Y-829729D01*
X3572563Y-1067824D02*
X3563039Y-1058300D01*
X3563039Y-1058300D02*
X3543991Y-1029729D01*
X3543991Y-1029729D02*
X3534468Y-1010681D01*
X3534468Y-1010681D02*
X3524944Y-982110D01*
X3524944Y-982110D02*
X3515420Y-934491D01*
X3515420Y-934491D02*
X3515420Y-896396D01*
X3515420Y-896396D02*
X3524944Y-848777D01*
X3524944Y-848777D02*
X3534468Y-820205D01*
X3534468Y-820205D02*
X3543991Y-801158D01*
X3543991Y-801158D02*
X3563039Y-772586D01*
X3563039Y-772586D02*
X3572563Y-763062D01*
X3639229Y-810681D02*
X3648753Y-801158D01*
X3648753Y-801158D02*
X3667801Y-791634D01*
X3667801Y-791634D02*
X3715420Y-791634D01*
X3715420Y-791634D02*
X3734468Y-801158D01*
X3734468Y-801158D02*
X3743991Y-810681D01*
X3743991Y-810681D02*
X3753515Y-829729D01*
X3753515Y-829729D02*
X3753515Y-848777D01*
X3753515Y-848777D02*
X3743991Y-877348D01*
X3743991Y-877348D02*
X3629706Y-991634D01*
X3629706Y-991634D02*
X3753515Y-991634D01*
X3991610Y-991634D02*
X3991610Y-791634D01*
X4077325Y-991634D02*
X4077325Y-886872D01*
X4077325Y-886872D02*
X4067801Y-867824D01*
X4067801Y-867824D02*
X4048753Y-858300D01*
X4048753Y-858300D02*
X4020182Y-858300D01*
X4020182Y-858300D02*
X4001134Y-867824D01*
X4001134Y-867824D02*
X3991610Y-877348D01*
X4201134Y-991634D02*
X4182087Y-982110D01*
X4182087Y-982110D02*
X4172563Y-972586D01*
X4172563Y-972586D02*
X4163039Y-953538D01*
X4163039Y-953538D02*
X4163039Y-896396D01*
X4163039Y-896396D02*
X4172563Y-877348D01*
X4172563Y-877348D02*
X4182087Y-867824D01*
X4182087Y-867824D02*
X4201134Y-858300D01*
X4201134Y-858300D02*
X4229706Y-858300D01*
X4229706Y-858300D02*
X4248753Y-867824D01*
X4248753Y-867824D02*
X4258277Y-877348D01*
X4258277Y-877348D02*
X4267801Y-896396D01*
X4267801Y-896396D02*
X4267801Y-953538D01*
X4267801Y-953538D02*
X4258277Y-972586D01*
X4258277Y-972586D02*
X4248753Y-982110D01*
X4248753Y-982110D02*
X4229706Y-991634D01*
X4229706Y-991634D02*
X4201134Y-991634D01*
X4382087Y-991634D02*
X4363039Y-982110D01*
X4363039Y-982110D02*
X4353515Y-963062D01*
X4353515Y-963062D02*
X4353515Y-791634D01*
X4534468Y-982110D02*
X4515420Y-991634D01*
X4515420Y-991634D02*
X4477325Y-991634D01*
X4477325Y-991634D02*
X4458277Y-982110D01*
X4458277Y-982110D02*
X4448753Y-963062D01*
X4448753Y-963062D02*
X4448753Y-886872D01*
X4448753Y-886872D02*
X4458277Y-867824D01*
X4458277Y-867824D02*
X4477325Y-858300D01*
X4477325Y-858300D02*
X4515420Y-858300D01*
X4515420Y-858300D02*
X4534468Y-867824D01*
X4534468Y-867824D02*
X4543992Y-886872D01*
X4543992Y-886872D02*
X4543992Y-905919D01*
X4543992Y-905919D02*
X4448753Y-924967D01*
X4620182Y-982110D02*
X4639230Y-991634D01*
X4639230Y-991634D02*
X4677325Y-991634D01*
X4677325Y-991634D02*
X4696373Y-982110D01*
X4696373Y-982110D02*
X4705896Y-963062D01*
X4705896Y-963062D02*
X4705896Y-953538D01*
X4705896Y-953538D02*
X4696373Y-934491D01*
X4696373Y-934491D02*
X4677325Y-924967D01*
X4677325Y-924967D02*
X4648753Y-924967D01*
X4648753Y-924967D02*
X4629706Y-915443D01*
X4629706Y-915443D02*
X4620182Y-896396D01*
X4620182Y-896396D02*
X4620182Y-886872D01*
X4620182Y-886872D02*
X4629706Y-867824D01*
X4629706Y-867824D02*
X4648753Y-858300D01*
X4648753Y-858300D02*
X4677325Y-858300D01*
X4677325Y-858300D02*
X4696373Y-867824D01*
X4772563Y-1067824D02*
X4782087Y-1058300D01*
X4782087Y-1058300D02*
X4801134Y-1029729D01*
X4801134Y-1029729D02*
X4810658Y-1010681D01*
X4810658Y-1010681D02*
X4820182Y-982110D01*
X4820182Y-982110D02*
X4829706Y-934491D01*
X4829706Y-934491D02*
X4829706Y-896396D01*
X4829706Y-896396D02*
X4820182Y-848777D01*
X4820182Y-848777D02*
X4810658Y-820205D01*
X4810658Y-820205D02*
X4801134Y-801158D01*
X4801134Y-801158D02*
X4782087Y-772586D01*
X4782087Y-772586D02*
X4772563Y-763062D01*
D14*
X-92500Y-1074150D02*
X-92500Y-1254150D01*
X-182500Y-1164150D02*
X-2500Y-1164150D01*
D11*
X363039Y-1255634D02*
X248753Y-1255634D01*
X305896Y-1255634D02*
X305896Y-1055634D01*
X305896Y-1055634D02*
X286848Y-1084205D01*
X286848Y-1084205D02*
X267801Y-1103253D01*
X267801Y-1103253D02*
X248753Y-1112777D01*
X448753Y-1236586D02*
X458277Y-1246110D01*
X458277Y-1246110D02*
X448753Y-1255634D01*
X448753Y-1255634D02*
X439229Y-1246110D01*
X439229Y-1246110D02*
X448753Y-1236586D01*
X448753Y-1236586D02*
X448753Y-1255634D01*
X572563Y-1141348D02*
X553515Y-1131824D01*
X553515Y-1131824D02*
X543991Y-1122300D01*
X543991Y-1122300D02*
X534467Y-1103253D01*
X534467Y-1103253D02*
X534467Y-1093729D01*
X534467Y-1093729D02*
X543991Y-1074681D01*
X543991Y-1074681D02*
X553515Y-1065158D01*
X553515Y-1065158D02*
X572563Y-1055634D01*
X572563Y-1055634D02*
X610658Y-1055634D01*
X610658Y-1055634D02*
X629705Y-1065158D01*
X629705Y-1065158D02*
X639229Y-1074681D01*
X639229Y-1074681D02*
X648753Y-1093729D01*
X648753Y-1093729D02*
X648753Y-1103253D01*
X648753Y-1103253D02*
X639229Y-1122300D01*
X639229Y-1122300D02*
X629705Y-1131824D01*
X629705Y-1131824D02*
X610658Y-1141348D01*
X610658Y-1141348D02*
X572563Y-1141348D01*
X572563Y-1141348D02*
X553515Y-1150872D01*
X553515Y-1150872D02*
X543991Y-1160396D01*
X543991Y-1160396D02*
X534467Y-1179443D01*
X534467Y-1179443D02*
X534467Y-1217539D01*
X534467Y-1217539D02*
X543991Y-1236586D01*
X543991Y-1236586D02*
X553515Y-1246110D01*
X553515Y-1246110D02*
X572563Y-1255634D01*
X572563Y-1255634D02*
X610658Y-1255634D01*
X610658Y-1255634D02*
X629705Y-1246110D01*
X629705Y-1246110D02*
X639229Y-1236586D01*
X639229Y-1236586D02*
X648753Y-1217539D01*
X648753Y-1217539D02*
X648753Y-1179443D01*
X648753Y-1179443D02*
X639229Y-1160396D01*
X639229Y-1160396D02*
X629705Y-1150872D01*
X629705Y-1150872D02*
X610658Y-1141348D01*
X772562Y-1055634D02*
X791610Y-1055634D01*
X791610Y-1055634D02*
X810658Y-1065158D01*
X810658Y-1065158D02*
X820182Y-1074681D01*
X820182Y-1074681D02*
X829705Y-1093729D01*
X829705Y-1093729D02*
X839229Y-1131824D01*
X839229Y-1131824D02*
X839229Y-1179443D01*
X839229Y-1179443D02*
X829705Y-1217539D01*
X829705Y-1217539D02*
X820182Y-1236586D01*
X820182Y-1236586D02*
X810658Y-1246110D01*
X810658Y-1246110D02*
X791610Y-1255634D01*
X791610Y-1255634D02*
X772562Y-1255634D01*
X772562Y-1255634D02*
X753515Y-1246110D01*
X753515Y-1246110D02*
X743991Y-1236586D01*
X743991Y-1236586D02*
X734467Y-1217539D01*
X734467Y-1217539D02*
X724943Y-1179443D01*
X724943Y-1179443D02*
X724943Y-1131824D01*
X724943Y-1131824D02*
X734467Y-1093729D01*
X734467Y-1093729D02*
X743991Y-1074681D01*
X743991Y-1074681D02*
X753515Y-1065158D01*
X753515Y-1065158D02*
X772562Y-1055634D01*
X963039Y-1055634D02*
X982086Y-1055634D01*
X982086Y-1055634D02*
X1001134Y-1065158D01*
X1001134Y-1065158D02*
X1010658Y-1074681D01*
X1010658Y-1074681D02*
X1020182Y-1093729D01*
X1020182Y-1093729D02*
X1029705Y-1131824D01*
X1029705Y-1131824D02*
X1029705Y-1179443D01*
X1029705Y-1179443D02*
X1020182Y-1217539D01*
X1020182Y-1217539D02*
X1010658Y-1236586D01*
X1010658Y-1236586D02*
X1001134Y-1246110D01*
X1001134Y-1246110D02*
X982086Y-1255634D01*
X982086Y-1255634D02*
X963039Y-1255634D01*
X963039Y-1255634D02*
X943991Y-1246110D01*
X943991Y-1246110D02*
X934467Y-1236586D01*
X934467Y-1236586D02*
X924943Y-1217539D01*
X924943Y-1217539D02*
X915420Y-1179443D01*
X915420Y-1179443D02*
X915420Y-1131824D01*
X915420Y-1131824D02*
X924943Y-1093729D01*
X924943Y-1093729D02*
X934467Y-1074681D01*
X934467Y-1074681D02*
X943991Y-1065158D01*
X943991Y-1065158D02*
X963039Y-1055634D01*
X1115420Y-1255634D02*
X1115420Y-1122300D01*
X1115420Y-1141348D02*
X1124944Y-1131824D01*
X1124944Y-1131824D02*
X1143991Y-1122300D01*
X1143991Y-1122300D02*
X1172563Y-1122300D01*
X1172563Y-1122300D02*
X1191610Y-1131824D01*
X1191610Y-1131824D02*
X1201134Y-1150872D01*
X1201134Y-1150872D02*
X1201134Y-1255634D01*
X1201134Y-1150872D02*
X1210658Y-1131824D01*
X1210658Y-1131824D02*
X1229705Y-1122300D01*
X1229705Y-1122300D02*
X1258277Y-1122300D01*
X1258277Y-1122300D02*
X1277325Y-1131824D01*
X1277325Y-1131824D02*
X1286848Y-1150872D01*
X1286848Y-1150872D02*
X1286848Y-1255634D01*
X1382086Y-1255634D02*
X1382086Y-1122300D01*
X1382086Y-1141348D02*
X1391610Y-1131824D01*
X1391610Y-1131824D02*
X1410658Y-1122300D01*
X1410658Y-1122300D02*
X1439229Y-1122300D01*
X1439229Y-1122300D02*
X1458277Y-1131824D01*
X1458277Y-1131824D02*
X1467801Y-1150872D01*
X1467801Y-1150872D02*
X1467801Y-1255634D01*
X1467801Y-1150872D02*
X1477324Y-1131824D01*
X1477324Y-1131824D02*
X1496372Y-1122300D01*
X1496372Y-1122300D02*
X1524943Y-1122300D01*
X1524943Y-1122300D02*
X1543991Y-1131824D01*
X1543991Y-1131824D02*
X1553515Y-1150872D01*
X1553515Y-1150872D02*
X1553515Y-1255634D01*
X1943991Y-1046110D02*
X1772563Y-1303253D01*
X2201134Y-1055634D02*
X2220182Y-1055634D01*
X2220182Y-1055634D02*
X2239229Y-1065158D01*
X2239229Y-1065158D02*
X2248753Y-1074681D01*
X2248753Y-1074681D02*
X2258277Y-1093729D01*
X2258277Y-1093729D02*
X2267801Y-1131824D01*
X2267801Y-1131824D02*
X2267801Y-1179443D01*
X2267801Y-1179443D02*
X2258277Y-1217539D01*
X2258277Y-1217539D02*
X2248753Y-1236586D01*
X2248753Y-1236586D02*
X2239229Y-1246110D01*
X2239229Y-1246110D02*
X2220182Y-1255634D01*
X2220182Y-1255634D02*
X2201134Y-1255634D01*
X2201134Y-1255634D02*
X2182087Y-1246110D01*
X2182087Y-1246110D02*
X2172563Y-1236586D01*
X2172563Y-1236586D02*
X2163039Y-1217539D01*
X2163039Y-1217539D02*
X2153515Y-1179443D01*
X2153515Y-1179443D02*
X2153515Y-1131824D01*
X2153515Y-1131824D02*
X2163039Y-1093729D01*
X2163039Y-1093729D02*
X2172563Y-1074681D01*
X2172563Y-1074681D02*
X2182087Y-1065158D01*
X2182087Y-1065158D02*
X2201134Y-1055634D01*
X2353515Y-1236586D02*
X2363039Y-1246110D01*
X2363039Y-1246110D02*
X2353515Y-1255634D01*
X2353515Y-1255634D02*
X2343991Y-1246110D01*
X2343991Y-1246110D02*
X2353515Y-1236586D01*
X2353515Y-1236586D02*
X2353515Y-1255634D01*
X2486848Y-1055634D02*
X2505896Y-1055634D01*
X2505896Y-1055634D02*
X2524944Y-1065158D01*
X2524944Y-1065158D02*
X2534468Y-1074681D01*
X2534468Y-1074681D02*
X2543991Y-1093729D01*
X2543991Y-1093729D02*
X2553515Y-1131824D01*
X2553515Y-1131824D02*
X2553515Y-1179443D01*
X2553515Y-1179443D02*
X2543991Y-1217539D01*
X2543991Y-1217539D02*
X2534468Y-1236586D01*
X2534468Y-1236586D02*
X2524944Y-1246110D01*
X2524944Y-1246110D02*
X2505896Y-1255634D01*
X2505896Y-1255634D02*
X2486848Y-1255634D01*
X2486848Y-1255634D02*
X2467801Y-1246110D01*
X2467801Y-1246110D02*
X2458277Y-1236586D01*
X2458277Y-1236586D02*
X2448753Y-1217539D01*
X2448753Y-1217539D02*
X2439229Y-1179443D01*
X2439229Y-1179443D02*
X2439229Y-1131824D01*
X2439229Y-1131824D02*
X2448753Y-1093729D01*
X2448753Y-1093729D02*
X2458277Y-1074681D01*
X2458277Y-1074681D02*
X2467801Y-1065158D01*
X2467801Y-1065158D02*
X2486848Y-1055634D01*
X2620182Y-1055634D02*
X2753515Y-1055634D01*
X2753515Y-1055634D02*
X2667801Y-1255634D01*
X2867801Y-1055634D02*
X2886848Y-1055634D01*
X2886848Y-1055634D02*
X2905896Y-1065158D01*
X2905896Y-1065158D02*
X2915420Y-1074681D01*
X2915420Y-1074681D02*
X2924944Y-1093729D01*
X2924944Y-1093729D02*
X2934467Y-1131824D01*
X2934467Y-1131824D02*
X2934467Y-1179443D01*
X2934467Y-1179443D02*
X2924944Y-1217539D01*
X2924944Y-1217539D02*
X2915420Y-1236586D01*
X2915420Y-1236586D02*
X2905896Y-1246110D01*
X2905896Y-1246110D02*
X2886848Y-1255634D01*
X2886848Y-1255634D02*
X2867801Y-1255634D01*
X2867801Y-1255634D02*
X2848753Y-1246110D01*
X2848753Y-1246110D02*
X2839229Y-1236586D01*
X2839229Y-1236586D02*
X2829706Y-1217539D01*
X2829706Y-1217539D02*
X2820182Y-1179443D01*
X2820182Y-1179443D02*
X2820182Y-1131824D01*
X2820182Y-1131824D02*
X2829706Y-1093729D01*
X2829706Y-1093729D02*
X2839229Y-1074681D01*
X2839229Y-1074681D02*
X2848753Y-1065158D01*
X2848753Y-1065158D02*
X2867801Y-1055634D01*
X3029706Y-1255634D02*
X3067801Y-1255634D01*
X3067801Y-1255634D02*
X3086848Y-1246110D01*
X3086848Y-1246110D02*
X3096372Y-1236586D01*
X3096372Y-1236586D02*
X3115420Y-1208015D01*
X3115420Y-1208015D02*
X3124944Y-1169920D01*
X3124944Y-1169920D02*
X3124944Y-1093729D01*
X3124944Y-1093729D02*
X3115420Y-1074681D01*
X3115420Y-1074681D02*
X3105896Y-1065158D01*
X3105896Y-1065158D02*
X3086848Y-1055634D01*
X3086848Y-1055634D02*
X3048753Y-1055634D01*
X3048753Y-1055634D02*
X3029706Y-1065158D01*
X3029706Y-1065158D02*
X3020182Y-1074681D01*
X3020182Y-1074681D02*
X3010658Y-1093729D01*
X3010658Y-1093729D02*
X3010658Y-1141348D01*
X3010658Y-1141348D02*
X3020182Y-1160396D01*
X3020182Y-1160396D02*
X3029706Y-1169920D01*
X3029706Y-1169920D02*
X3048753Y-1179443D01*
X3048753Y-1179443D02*
X3086848Y-1179443D01*
X3086848Y-1179443D02*
X3105896Y-1169920D01*
X3105896Y-1169920D02*
X3115420Y-1160396D01*
X3115420Y-1160396D02*
X3124944Y-1141348D01*
X3201134Y-1055634D02*
X3201134Y-1093729D01*
X3277325Y-1055634D02*
X3277325Y-1093729D01*
X3572563Y-1331824D02*
X3563039Y-1322300D01*
X3563039Y-1322300D02*
X3543991Y-1293729D01*
X3543991Y-1293729D02*
X3534468Y-1274681D01*
X3534468Y-1274681D02*
X3524944Y-1246110D01*
X3524944Y-1246110D02*
X3515420Y-1198491D01*
X3515420Y-1198491D02*
X3515420Y-1160396D01*
X3515420Y-1160396D02*
X3524944Y-1112777D01*
X3524944Y-1112777D02*
X3534468Y-1084205D01*
X3534468Y-1084205D02*
X3543991Y-1065158D01*
X3543991Y-1065158D02*
X3563039Y-1036586D01*
X3563039Y-1036586D02*
X3572563Y-1027062D01*
X3734468Y-1122300D02*
X3734468Y-1255634D01*
X3686848Y-1046110D02*
X3639229Y-1188967D01*
X3639229Y-1188967D02*
X3763039Y-1188967D01*
X3991610Y-1255634D02*
X3991610Y-1055634D01*
X4077325Y-1255634D02*
X4077325Y-1150872D01*
X4077325Y-1150872D02*
X4067801Y-1131824D01*
X4067801Y-1131824D02*
X4048753Y-1122300D01*
X4048753Y-1122300D02*
X4020182Y-1122300D01*
X4020182Y-1122300D02*
X4001134Y-1131824D01*
X4001134Y-1131824D02*
X3991610Y-1141348D01*
X4201134Y-1255634D02*
X4182087Y-1246110D01*
X4182087Y-1246110D02*
X4172563Y-1236586D01*
X4172563Y-1236586D02*
X4163039Y-1217539D01*
X4163039Y-1217539D02*
X4163039Y-1160396D01*
X4163039Y-1160396D02*
X4172563Y-1141348D01*
X4172563Y-1141348D02*
X4182087Y-1131824D01*
X4182087Y-1131824D02*
X4201134Y-1122300D01*
X4201134Y-1122300D02*
X4229706Y-1122300D01*
X4229706Y-1122300D02*
X4248753Y-1131824D01*
X4248753Y-1131824D02*
X4258277Y-1141348D01*
X4258277Y-1141348D02*
X4267801Y-1160396D01*
X4267801Y-1160396D02*
X4267801Y-1217539D01*
X4267801Y-1217539D02*
X4258277Y-1236586D01*
X4258277Y-1236586D02*
X4248753Y-1246110D01*
X4248753Y-1246110D02*
X4229706Y-1255634D01*
X4229706Y-1255634D02*
X4201134Y-1255634D01*
X4382087Y-1255634D02*
X4363039Y-1246110D01*
X4363039Y-1246110D02*
X4353515Y-1227062D01*
X4353515Y-1227062D02*
X4353515Y-1055634D01*
X4534468Y-1246110D02*
X4515420Y-1255634D01*
X4515420Y-1255634D02*
X4477325Y-1255634D01*
X4477325Y-1255634D02*
X4458277Y-1246110D01*
X4458277Y-1246110D02*
X4448753Y-1227062D01*
X4448753Y-1227062D02*
X4448753Y-1150872D01*
X4448753Y-1150872D02*
X4458277Y-1131824D01*
X4458277Y-1131824D02*
X4477325Y-1122300D01*
X4477325Y-1122300D02*
X4515420Y-1122300D01*
X4515420Y-1122300D02*
X4534468Y-1131824D01*
X4534468Y-1131824D02*
X4543992Y-1150872D01*
X4543992Y-1150872D02*
X4543992Y-1169920D01*
X4543992Y-1169920D02*
X4448753Y-1188967D01*
X4620182Y-1246110D02*
X4639230Y-1255634D01*
X4639230Y-1255634D02*
X4677325Y-1255634D01*
X4677325Y-1255634D02*
X4696373Y-1246110D01*
X4696373Y-1246110D02*
X4705896Y-1227062D01*
X4705896Y-1227062D02*
X4705896Y-1217539D01*
X4705896Y-1217539D02*
X4696373Y-1198491D01*
X4696373Y-1198491D02*
X4677325Y-1188967D01*
X4677325Y-1188967D02*
X4648753Y-1188967D01*
X4648753Y-1188967D02*
X4629706Y-1179443D01*
X4629706Y-1179443D02*
X4620182Y-1160396D01*
X4620182Y-1160396D02*
X4620182Y-1150872D01*
X4620182Y-1150872D02*
X4629706Y-1131824D01*
X4629706Y-1131824D02*
X4648753Y-1122300D01*
X4648753Y-1122300D02*
X4677325Y-1122300D01*
X4677325Y-1122300D02*
X4696373Y-1131824D01*
X4772563Y-1331824D02*
X4782087Y-1322300D01*
X4782087Y-1322300D02*
X4801134Y-1293729D01*
X4801134Y-1293729D02*
X4810658Y-1274681D01*
X4810658Y-1274681D02*
X4820182Y-1246110D01*
X4820182Y-1246110D02*
X4829706Y-1198491D01*
X4829706Y-1198491D02*
X4829706Y-1160396D01*
X4829706Y-1160396D02*
X4820182Y-1112777D01*
X4820182Y-1112777D02*
X4810658Y-1084205D01*
X4810658Y-1084205D02*
X4801134Y-1065158D01*
X4801134Y-1065158D02*
X4782087Y-1036586D01*
X4782087Y-1036586D02*
X4772563Y-1027062D01*
M02*
