%TF.GenerationSoftware,KiCad,Pcbnew,10.99.0-3758-g2f18d95be7*%
%TF.CreationDate,2026-09-25T21:09:04+01:00*%
%TF.ProjectId,kicad_file,6b696361-645f-4666-996c-652e6b696361,rev?*%
%TF.SameCoordinates,Original*%
%TF.FileFunction,Legend,Top*%
%TF.FilePolarity,Positive*%
%FSLAX46Y46*%
G04 Gerber Fmt 4.6, Leading zero omitted, Abs format (unit mm)*
G04 Created by KiCad (PCBNEW 10.99.0-3758-g2f18d95be7) date 2026-09-25 21:09:04*
%MOMM*%
%LPD*%
G01*
G04 APERTURE LIST*
G04 Aperture macros list*
%AMRoundRect*
0 Rectangle with rounded corners*
0 $1 Rounding radius*
0 $2 $3 $4 $5 $6 $7 $8 $9 X,Y pos of 4 corners*
0 Add a 4 corners polygon primitive as box body*
4,1,4,$2,$3,$4,$5,$6,$7,$8,$9,$2,$3,0*
0 Add four circle primitives for the rounded corners*
1,1,$1+$1,$2,$3*
1,1,$1+$1,$4,$5*
1,1,$1+$1,$6,$7*
1,1,$1+$1,$8,$9*
0 Add four rect primitives between the rounded corners*
20,1,$1+$1,$2,$3,$4,$5,0*
20,1,$1+$1,$4,$5,$6,$7,0*
20,1,$1+$1,$6,$7,$8,$9,0*
20,1,$1+$1,$8,$9,$2,$3,0*%
G04 Aperture macros list end*
%ADD10C,0.096520*%
%ADD11C,0.101600*%
%ADD12C,0.081280*%
%ADD13C,0.119969*%
%ADD14C,0.029911*%
%ADD15C,0.114300*%
%ADD16C,0.053320*%
%ADD17C,0.093472*%
%ADD18C,0.146304*%
%ADD19C,0.203200*%
%ADD20C,0.127000*%
%ADD21C,0.152400*%
%ADD22C,0.000000*%
%ADD23C,0.050800*%
%ADD24C,0.304800*%
%ADD25C,3.203200*%
%ADD26RoundRect,0.101600X-0.500000X0.550000X-0.500000X-0.550000X0.500000X-0.550000X0.500000X0.550000X0*%
%ADD27RoundRect,0.101600X-0.450000X-0.500000X0.450000X-0.500000X0.450000X0.500000X-0.450000X0.500000X0*%
%ADD28RoundRect,0.101600X0.610000X-0.455000X0.610000X0.455000X-0.610000X0.455000X-0.610000X-0.455000X0*%
%ADD29C,1.981200*%
%ADD30RoundRect,0.101600X0.250000X1.100000X-0.250000X1.100000X-0.250000X-1.100000X0.250000X-1.100000X0*%
%ADD31RoundRect,0.101600X0.750000X-0.650000X0.750000X0.650000X-0.750000X0.650000X-0.750000X-0.650000X0*%
%ADD32RoundRect,0.101600X-0.600000X-0.600000X0.600000X-0.600000X0.600000X0.600000X-0.600000X0.600000X0*%
%ADD33RoundRect,0.101600X-0.750000X0.650000X-0.750000X-0.650000X0.750000X-0.650000X0.750000X0.650000X0*%
%ADD34RoundRect,0.101600X-0.600000X0.275000X-0.600000X-0.275000X0.600000X-0.275000X0.600000X0.275000X0*%
%ADD35RoundRect,0.101600X-0.400000X0.675000X-0.400000X-0.675000X0.400000X-0.675000X0.400000X0.675000X0*%
%ADD36C,1.508000*%
%ADD37RoundRect,0.101600X-0.250000X-1.154000X0.250000X-1.154000X0.250000X1.154000X-0.250000X1.154000X0*%
%ADD38RoundRect,0.101600X1.000000X1.200000X-1.000000X1.200000X-1.000000X-1.200000X1.000000X-1.200000X0*%
%ADD39C,2.200000*%
G04 APERTURE END LIST*
D10*
X-4561476Y-12609168D02*
X-4065088Y-12609168D01*
X-4313282Y-13477848D02*
X-4313282Y-12609168D01*
X-3775528Y-13477848D02*
X-3775528Y-12898728D01*
X-3775528Y-13064191D02*
X-3734162Y-12981460D01*
X-3734162Y-12981460D02*
X-3692797Y-12940094D01*
X-3692797Y-12940094D02*
X-3610065Y-12898728D01*
X-3610065Y-12898728D02*
X-3527334Y-12898728D01*
X-3237774Y-13477848D02*
X-3237774Y-12898728D01*
X-3237774Y-12609168D02*
X-3279140Y-12650534D01*
X-3279140Y-12650534D02*
X-3237774Y-12691900D01*
X-3237774Y-12691900D02*
X-3196408Y-12650534D01*
X-3196408Y-12650534D02*
X-3237774Y-12609168D01*
X-3237774Y-12609168D02*
X-3237774Y-12691900D01*
X-2824117Y-12898728D02*
X-2824117Y-13477848D01*
X-2824117Y-12981460D02*
X-2782751Y-12940094D01*
X-2782751Y-12940094D02*
X-2700020Y-12898728D01*
X-2700020Y-12898728D02*
X-2575923Y-12898728D01*
X-2575923Y-12898728D02*
X-2493191Y-12940094D01*
X-2493191Y-12940094D02*
X-2451826Y-13022825D01*
X-2451826Y-13022825D02*
X-2451826Y-13477848D01*
X-2038168Y-13477848D02*
X-2038168Y-12609168D01*
X-1955437Y-13146923D02*
X-1707242Y-13477848D01*
X-1707242Y-12898728D02*
X-2038168Y-13229654D01*
X-1004025Y-13436483D02*
X-1086757Y-13477848D01*
X-1086757Y-13477848D02*
X-1252220Y-13477848D01*
X-1252220Y-13477848D02*
X-1334951Y-13436483D01*
X-1334951Y-13436483D02*
X-1376317Y-13353751D01*
X-1376317Y-13353751D02*
X-1376317Y-13022825D01*
X-1376317Y-13022825D02*
X-1334951Y-12940094D01*
X-1334951Y-12940094D02*
X-1252220Y-12898728D01*
X-1252220Y-12898728D02*
X-1086757Y-12898728D01*
X-1086757Y-12898728D02*
X-1004025Y-12940094D01*
X-1004025Y-12940094D02*
X-962660Y-13022825D01*
X-962660Y-13022825D02*
X-962660Y-13105557D01*
X-962660Y-13105557D02*
X-1376317Y-13188288D01*
X-714465Y-12898728D02*
X-383539Y-12898728D01*
X-590368Y-12609168D02*
X-590368Y-13353751D01*
X-590368Y-13353751D02*
X-549002Y-13436483D01*
X-549002Y-13436483D02*
X-466271Y-13477848D01*
X-466271Y-13477848D02*
X-383539Y-13477848D01*
X981528Y-12609168D02*
X567871Y-12609168D01*
X567871Y-12609168D02*
X526505Y-13022825D01*
X526505Y-13022825D02*
X567871Y-12981460D01*
X567871Y-12981460D02*
X650603Y-12940094D01*
X650603Y-12940094D02*
X857431Y-12940094D01*
X857431Y-12940094D02*
X940163Y-12981460D01*
X940163Y-12981460D02*
X981528Y-13022825D01*
X981528Y-13022825D02*
X1022894Y-13105557D01*
X1022894Y-13105557D02*
X1022894Y-13312385D01*
X1022894Y-13312385D02*
X981528Y-13395117D01*
X981528Y-13395117D02*
X940163Y-13436483D01*
X940163Y-13436483D02*
X857431Y-13477848D01*
X857431Y-13477848D02*
X650603Y-13477848D01*
X650603Y-13477848D02*
X567871Y-13436483D01*
X567871Y-13436483D02*
X526505Y-13395117D01*
X1312454Y-12898728D02*
X1519282Y-13477848D01*
X1519282Y-13477848D02*
X1726111Y-12898728D01*
X-6334329Y13097328D02*
X-7203009Y13097328D01*
X-7203009Y13097328D02*
X-7203009Y13428254D01*
X-7203009Y13428254D02*
X-7161643Y13510985D01*
X-7161643Y13510985D02*
X-7120277Y13552351D01*
X-7120277Y13552351D02*
X-7037546Y13593717D01*
X-7037546Y13593717D02*
X-6913449Y13593717D01*
X-6913449Y13593717D02*
X-6830717Y13552351D01*
X-6830717Y13552351D02*
X-6789352Y13510985D01*
X-6789352Y13510985D02*
X-6747986Y13428254D01*
X-6747986Y13428254D02*
X-6747986Y13097328D01*
X-7203009Y13883277D02*
X-6334329Y14090105D01*
X-6334329Y14090105D02*
X-6954815Y14255568D01*
X-6954815Y14255568D02*
X-6334329Y14421031D01*
X-6334329Y14421031D02*
X-7203009Y14627860D01*
X-6334329Y15455174D02*
X-6747986Y15165614D01*
X-6334329Y14958785D02*
X-7203009Y14958785D01*
X-7203009Y14958785D02*
X-7203009Y15289711D01*
X-7203009Y15289711D02*
X-7161643Y15372442D01*
X-7161643Y15372442D02*
X-7120277Y15413808D01*
X-7120277Y15413808D02*
X-7037546Y15455174D01*
X-7037546Y15455174D02*
X-6913449Y15455174D01*
X-6913449Y15455174D02*
X-6830717Y15413808D01*
X-6830717Y15413808D02*
X-6789352Y15372442D01*
X-6789352Y15372442D02*
X-6747986Y15289711D01*
X-6747986Y15289711D02*
X-6747986Y14958785D01*
X6167550Y13309962D02*
X6167550Y13930448D01*
X5795259Y13558157D02*
X6912133Y13309962D01*
X6912133Y13599522D02*
X5795259Y13847717D01*
X6539842Y13847717D02*
X6539842Y13227231D01*
X6746670Y14675031D02*
X6746670Y14178642D01*
X6746670Y14426837D02*
X5877990Y14426837D01*
X5877990Y14426837D02*
X6002087Y14344105D01*
X6002087Y14344105D02*
X6084819Y14261374D01*
X6084819Y14261374D02*
X6126185Y14178642D01*
D11*
X-6516913Y5522236D02*
X-6386285Y5478693D01*
X-6386285Y5478693D02*
X-6342742Y5435150D01*
X-6342742Y5435150D02*
X-6299199Y5348065D01*
X-6299199Y5348065D02*
X-6299199Y5217436D01*
X-6299199Y5217436D02*
X-6342742Y5130350D01*
X-6342742Y5130350D02*
X-6386285Y5086808D01*
X-6386285Y5086808D02*
X-6473370Y5043265D01*
X-6473370Y5043265D02*
X-6821713Y5043265D01*
X-6821713Y5043265D02*
X-6821713Y5957665D01*
X-6821713Y5957665D02*
X-6516913Y5957665D01*
X-6516913Y5957665D02*
X-6429828Y5914122D01*
X-6429828Y5914122D02*
X-6386285Y5870579D01*
X-6386285Y5870579D02*
X-6342742Y5783493D01*
X-6342742Y5783493D02*
X-6342742Y5696408D01*
X-6342742Y5696408D02*
X-6386285Y5609322D01*
X-6386285Y5609322D02*
X-6429828Y5565779D01*
X-6429828Y5565779D02*
X-6516913Y5522236D01*
X-6516913Y5522236D02*
X-6821713Y5522236D01*
X-5950856Y5304522D02*
X-5515428Y5304522D01*
X-6037942Y5043265D02*
X-5733142Y5957665D01*
X-5733142Y5957665D02*
X-5428342Y5043265D01*
X-5254171Y5957665D02*
X-4731657Y5957665D01*
X-4992914Y5043265D02*
X-4992914Y5957665D01*
X-5163456Y-1078134D02*
X-4510313Y-1078134D01*
X-4902199Y-686249D02*
X-5163456Y-1861906D01*
X-4858656Y-1861906D02*
X-4597399Y-686249D01*
X-4597399Y-1470020D02*
X-5250542Y-1470020D01*
X-3813628Y-1078134D02*
X-3813628Y-1687734D01*
X-4031342Y-729792D02*
X-4249056Y-1382934D01*
X-4249056Y-1382934D02*
X-3682999Y-1382934D01*
X-5163456Y-3618134D02*
X-4510313Y-3618134D01*
X-4902199Y-3226249D02*
X-5163456Y-4401906D01*
X-4858656Y-4401906D02*
X-4597399Y-3226249D01*
X-4597399Y-4010020D02*
X-5250542Y-4010020D01*
X-4292599Y-3313334D02*
X-3726542Y-3313334D01*
X-3726542Y-3313334D02*
X-4031342Y-3661677D01*
X-4031342Y-3661677D02*
X-3900713Y-3661677D01*
X-3900713Y-3661677D02*
X-3813628Y-3705220D01*
X-3813628Y-3705220D02*
X-3770085Y-3748763D01*
X-3770085Y-3748763D02*
X-3726542Y-3835849D01*
X-3726542Y-3835849D02*
X-3726542Y-4053563D01*
X-3726542Y-4053563D02*
X-3770085Y-4140649D01*
X-3770085Y-4140649D02*
X-3813628Y-4184192D01*
X-3813628Y-4184192D02*
X-3900713Y-4227734D01*
X-3900713Y-4227734D02*
X-4161970Y-4227734D01*
X-4161970Y-4227734D02*
X-4249056Y-4184192D01*
X-4249056Y-4184192D02*
X-4292599Y-4140649D01*
X3726543Y1461865D02*
X4379686Y1461865D01*
X3987800Y1853750D02*
X3726543Y678093D01*
X4031343Y678093D02*
X4292600Y1853750D01*
X4292600Y1069979D02*
X3639457Y1069979D01*
X4858657Y1766665D02*
X4945743Y1766665D01*
X4945743Y1766665D02*
X5032829Y1723122D01*
X5032829Y1723122D02*
X5076372Y1679579D01*
X5076372Y1679579D02*
X5119914Y1592493D01*
X5119914Y1592493D02*
X5163457Y1418322D01*
X5163457Y1418322D02*
X5163457Y1200608D01*
X5163457Y1200608D02*
X5119914Y1026436D01*
X5119914Y1026436D02*
X5076372Y939350D01*
X5076372Y939350D02*
X5032829Y895808D01*
X5032829Y895808D02*
X4945743Y852265D01*
X4945743Y852265D02*
X4858657Y852265D01*
X4858657Y852265D02*
X4771572Y895808D01*
X4771572Y895808D02*
X4728029Y939350D01*
X4728029Y939350D02*
X4684486Y1026436D01*
X4684486Y1026436D02*
X4640943Y1200608D01*
X4640943Y1200608D02*
X4640943Y1418322D01*
X4640943Y1418322D02*
X4684486Y1592493D01*
X4684486Y1592493D02*
X4728029Y1679579D01*
X4728029Y1679579D02*
X4771572Y1723122D01*
X4771572Y1723122D02*
X4858657Y1766665D01*
X3853543Y-1078134D02*
X4506686Y-1078134D01*
X4114800Y-686249D02*
X3853543Y-1861906D01*
X4158343Y-1861906D02*
X4419600Y-686249D01*
X4419600Y-1470020D02*
X3766457Y-1470020D01*
X5290457Y-1687734D02*
X4767943Y-1687734D01*
X5029200Y-1687734D02*
X5029200Y-773334D01*
X5029200Y-773334D02*
X4942114Y-903963D01*
X4942114Y-903963D02*
X4855029Y-991049D01*
X4855029Y-991049D02*
X4767943Y-1034592D01*
X3853543Y-3618134D02*
X4506686Y-3618134D01*
X4114800Y-3226249D02*
X3853543Y-4401906D01*
X4158343Y-4401906D02*
X4419600Y-3226249D01*
X4419600Y-4010020D02*
X3766457Y-4010020D01*
X4767943Y-3400420D02*
X4811486Y-3356877D01*
X4811486Y-3356877D02*
X4898572Y-3313334D01*
X4898572Y-3313334D02*
X5116286Y-3313334D01*
X5116286Y-3313334D02*
X5203372Y-3356877D01*
X5203372Y-3356877D02*
X5246914Y-3400420D01*
X5246914Y-3400420D02*
X5290457Y-3487506D01*
X5290457Y-3487506D02*
X5290457Y-3574592D01*
X5290457Y-3574592D02*
X5246914Y-3705220D01*
X5246914Y-3705220D02*
X4724400Y-4227734D01*
X4724400Y-4227734D02*
X5290457Y-4227734D01*
X4397828Y-5853334D02*
X3962400Y-5853334D01*
X3962400Y-5853334D02*
X3918857Y-6288763D01*
X3918857Y-6288763D02*
X3962400Y-6245220D01*
X3962400Y-6245220D02*
X4049486Y-6201677D01*
X4049486Y-6201677D02*
X4267200Y-6201677D01*
X4267200Y-6201677D02*
X4354286Y-6245220D01*
X4354286Y-6245220D02*
X4397828Y-6288763D01*
X4397828Y-6288763D02*
X4441371Y-6375849D01*
X4441371Y-6375849D02*
X4441371Y-6593563D01*
X4441371Y-6593563D02*
X4397828Y-6680649D01*
X4397828Y-6680649D02*
X4354286Y-6724192D01*
X4354286Y-6724192D02*
X4267200Y-6767734D01*
X4267200Y-6767734D02*
X4049486Y-6767734D01*
X4049486Y-6767734D02*
X3962400Y-6724192D01*
X3962400Y-6724192D02*
X3918857Y-6680649D01*
X4702628Y-5853334D02*
X5007428Y-6767734D01*
X5007428Y-6767734D02*
X5312228Y-5853334D01*
X5069114Y5957665D02*
X5069114Y5217436D01*
X5069114Y5217436D02*
X5112657Y5130350D01*
X5112657Y5130350D02*
X5156200Y5086808D01*
X5156200Y5086808D02*
X5243285Y5043265D01*
X5243285Y5043265D02*
X5417457Y5043265D01*
X5417457Y5043265D02*
X5504542Y5086808D01*
X5504542Y5086808D02*
X5548085Y5130350D01*
X5548085Y5130350D02*
X5591628Y5217436D01*
X5591628Y5217436D02*
X5591628Y5957665D01*
X5983514Y5086808D02*
X6114143Y5043265D01*
X6114143Y5043265D02*
X6331857Y5043265D01*
X6331857Y5043265D02*
X6418943Y5086808D01*
X6418943Y5086808D02*
X6462485Y5130350D01*
X6462485Y5130350D02*
X6506028Y5217436D01*
X6506028Y5217436D02*
X6506028Y5304522D01*
X6506028Y5304522D02*
X6462485Y5391608D01*
X6462485Y5391608D02*
X6418943Y5435150D01*
X6418943Y5435150D02*
X6331857Y5478693D01*
X6331857Y5478693D02*
X6157685Y5522236D01*
X6157685Y5522236D02*
X6070600Y5565779D01*
X6070600Y5565779D02*
X6027057Y5609322D01*
X6027057Y5609322D02*
X5983514Y5696408D01*
X5983514Y5696408D02*
X5983514Y5783493D01*
X5983514Y5783493D02*
X6027057Y5870579D01*
X6027057Y5870579D02*
X6070600Y5914122D01*
X6070600Y5914122D02*
X6157685Y5957665D01*
X6157685Y5957665D02*
X6375400Y5957665D01*
X6375400Y5957665D02*
X6506028Y5914122D01*
X7202714Y5522236D02*
X7333342Y5478693D01*
X7333342Y5478693D02*
X7376885Y5435150D01*
X7376885Y5435150D02*
X7420428Y5348065D01*
X7420428Y5348065D02*
X7420428Y5217436D01*
X7420428Y5217436D02*
X7376885Y5130350D01*
X7376885Y5130350D02*
X7333342Y5086808D01*
X7333342Y5086808D02*
X7246257Y5043265D01*
X7246257Y5043265D02*
X6897914Y5043265D01*
X6897914Y5043265D02*
X6897914Y5957665D01*
X6897914Y5957665D02*
X7202714Y5957665D01*
X7202714Y5957665D02*
X7289800Y5914122D01*
X7289800Y5914122D02*
X7333342Y5870579D01*
X7333342Y5870579D02*
X7376885Y5783493D01*
X7376885Y5783493D02*
X7376885Y5696408D01*
X7376885Y5696408D02*
X7333342Y5609322D01*
X7333342Y5609322D02*
X7289800Y5565779D01*
X7289800Y5565779D02*
X7202714Y5522236D01*
X7202714Y5522236D02*
X6897914Y5522236D01*
X-4281265Y-6317342D02*
X-4716693Y-6622142D01*
X-4281265Y-6839856D02*
X-5195665Y-6839856D01*
X-5195665Y-6839856D02*
X-5195665Y-6491513D01*
X-5195665Y-6491513D02*
X-5152122Y-6404428D01*
X-5152122Y-6404428D02*
X-5108579Y-6360885D01*
X-5108579Y-6360885D02*
X-5021493Y-6317342D01*
X-5021493Y-6317342D02*
X-4890865Y-6317342D01*
X-4890865Y-6317342D02*
X-4803779Y-6360885D01*
X-4803779Y-6360885D02*
X-4760236Y-6404428D01*
X-4760236Y-6404428D02*
X-4716693Y-6491513D01*
X-4716693Y-6491513D02*
X-4716693Y-6839856D01*
X-4324808Y-5968999D02*
X-4281265Y-5881913D01*
X-4281265Y-5881913D02*
X-4281265Y-5707742D01*
X-4281265Y-5707742D02*
X-4324808Y-5620656D01*
X-4324808Y-5620656D02*
X-4411893Y-5577113D01*
X-4411893Y-5577113D02*
X-4455436Y-5577113D01*
X-4455436Y-5577113D02*
X-4542522Y-5620656D01*
X-4542522Y-5620656D02*
X-4586065Y-5707742D01*
X-4586065Y-5707742D02*
X-4586065Y-5838371D01*
X-4586065Y-5838371D02*
X-4629608Y-5925456D01*
X-4629608Y-5925456D02*
X-4716693Y-5968999D01*
X-4716693Y-5968999D02*
X-4760236Y-5968999D01*
X-4760236Y-5968999D02*
X-4847322Y-5925456D01*
X-4847322Y-5925456D02*
X-4890865Y-5838371D01*
X-4890865Y-5838371D02*
X-4890865Y-5707742D01*
X-4890865Y-5707742D02*
X-4847322Y-5620656D01*
X-4890865Y-5315856D02*
X-4890865Y-4967513D01*
X-5195665Y-5185227D02*
X-4411893Y-5185227D01*
X-4411893Y-5185227D02*
X-4324808Y-5141684D01*
X-4324808Y-5141684D02*
X-4281265Y-5054599D01*
X-4281265Y-5054599D02*
X-4281265Y-4967513D01*
X-5025122Y555171D02*
X-5068665Y468086D01*
X-5068665Y468086D02*
X-5068665Y337457D01*
X-5068665Y337457D02*
X-5025122Y206828D01*
X-5025122Y206828D02*
X-4938036Y119743D01*
X-4938036Y119743D02*
X-4850950Y76200D01*
X-4850950Y76200D02*
X-4676779Y32657D01*
X-4676779Y32657D02*
X-4546150Y32657D01*
X-4546150Y32657D02*
X-4371979Y76200D01*
X-4371979Y76200D02*
X-4284893Y119743D01*
X-4284893Y119743D02*
X-4197808Y206828D01*
X-4197808Y206828D02*
X-4154265Y337457D01*
X-4154265Y337457D02*
X-4154265Y424543D01*
X-4154265Y424543D02*
X-4197808Y555171D01*
X-4197808Y555171D02*
X-4241350Y598714D01*
X-4241350Y598714D02*
X-4546150Y598714D01*
X-4546150Y598714D02*
X-4546150Y424543D01*
X-4763865Y990600D02*
X-4154265Y990600D01*
X-4676779Y990600D02*
X-4720322Y1034143D01*
X-4720322Y1034143D02*
X-4763865Y1121228D01*
X-4763865Y1121228D02*
X-4763865Y1251857D01*
X-4763865Y1251857D02*
X-4720322Y1338943D01*
X-4720322Y1338943D02*
X-4633236Y1382486D01*
X-4633236Y1382486D02*
X-4154265Y1382486D01*
X-4154265Y2209800D02*
X-5068665Y2209800D01*
X-4197808Y2209800D02*
X-4154265Y2122714D01*
X-4154265Y2122714D02*
X-4154265Y1948542D01*
X-4154265Y1948542D02*
X-4197808Y1861457D01*
X-4197808Y1861457D02*
X-4241350Y1817914D01*
X-4241350Y1817914D02*
X-4328436Y1774371D01*
X-4328436Y1774371D02*
X-4589693Y1774371D01*
X-4589693Y1774371D02*
X-4676779Y1817914D01*
X-4676779Y1817914D02*
X-4720322Y1861457D01*
X-4720322Y1861457D02*
X-4763865Y1948542D01*
X-4763865Y1948542D02*
X-4763865Y2122714D01*
X-4763865Y2122714D02*
X-4720322Y2209800D01*
D12*
X-5057974Y4157702D02*
X-4345807Y4157702D01*
X-4701890Y3801618D02*
X-4701890Y4513786D01*
X5102025Y4284702D02*
X5814193Y4284702D01*
X5458109Y3928618D02*
X5458109Y4640786D01*
D13*
X3386583Y-6204732D02*
X3056664Y-6435676D01*
X3386583Y-6600636D02*
X2693752Y-6600636D01*
X2693752Y-6600636D02*
X2693752Y-6336700D01*
X2693752Y-6336700D02*
X2726744Y-6270716D01*
X2726744Y-6270716D02*
X2759736Y-6237724D01*
X2759736Y-6237724D02*
X2825720Y-6204732D01*
X2825720Y-6204732D02*
X2924696Y-6204732D01*
X2924696Y-6204732D02*
X2990680Y-6237724D01*
X2990680Y-6237724D02*
X3023672Y-6270716D01*
X3023672Y-6270716D02*
X3056664Y-6336700D01*
X3056664Y-6336700D02*
X3056664Y-6600636D01*
X2693752Y-5577885D02*
X2693752Y-5907805D01*
X2693752Y-5907805D02*
X3023672Y-5940797D01*
X3023672Y-5940797D02*
X2990680Y-5907805D01*
X2990680Y-5907805D02*
X2957688Y-5841821D01*
X2957688Y-5841821D02*
X2957688Y-5676861D01*
X2957688Y-5676861D02*
X2990680Y-5610877D01*
X2990680Y-5610877D02*
X3023672Y-5577885D01*
X3023672Y-5577885D02*
X3089656Y-5544893D01*
X3089656Y-5544893D02*
X3254616Y-5544893D01*
X3254616Y-5544893D02*
X3320600Y-5577885D01*
X3320600Y-5577885D02*
X3353592Y-5610877D01*
X3353592Y-5610877D02*
X3386583Y-5676861D01*
X3386583Y-5676861D02*
X3386583Y-5841821D01*
X3386583Y-5841821D02*
X3353592Y-5907805D01*
X3353592Y-5907805D02*
X3320600Y-5940797D01*
X-1915226Y-9266955D02*
X-1981210Y-9233963D01*
X-1981210Y-9233963D02*
X-2047194Y-9167980D01*
X-2047194Y-9167980D02*
X-2146170Y-9069004D01*
X-2146170Y-9069004D02*
X-2212154Y-9036012D01*
X-2212154Y-9036012D02*
X-2278138Y-9036012D01*
X-2245146Y-9200971D02*
X-2311130Y-9167980D01*
X-2311130Y-9167980D02*
X-2377114Y-9101996D01*
X-2377114Y-9101996D02*
X-2410106Y-8970028D01*
X-2410106Y-8970028D02*
X-2410106Y-8739084D01*
X-2410106Y-8739084D02*
X-2377114Y-8607116D01*
X-2377114Y-8607116D02*
X-2311130Y-8541132D01*
X-2311130Y-8541132D02*
X-2245146Y-8508140D01*
X-2245146Y-8508140D02*
X-2113178Y-8508140D01*
X-2113178Y-8508140D02*
X-2047194Y-8541132D01*
X-2047194Y-8541132D02*
X-1981210Y-8607116D01*
X-1981210Y-8607116D02*
X-1948218Y-8739084D01*
X-1948218Y-8739084D02*
X-1948218Y-8970028D01*
X-1948218Y-8970028D02*
X-1981210Y-9101996D01*
X-1981210Y-9101996D02*
X-2047194Y-9167980D01*
X-2047194Y-9167980D02*
X-2113178Y-9200971D01*
X-2113178Y-9200971D02*
X-2245146Y-9200971D01*
X-1288379Y-9200971D02*
X-1684283Y-9200971D01*
X-1486331Y-9200971D02*
X-1486331Y-8508140D01*
X-1486331Y-8508140D02*
X-1552315Y-8607116D01*
X-1552315Y-8607116D02*
X-1618299Y-8673100D01*
X-1618299Y-8673100D02*
X-1684283Y-8706092D01*
D14*
X2762369Y3149518D02*
X2385880Y3149518D01*
X2385880Y3149518D02*
X2385880Y3239158D01*
X2385880Y3239158D02*
X2403808Y3292942D01*
X2403808Y3292942D02*
X2439664Y3328798D01*
X2439664Y3328798D02*
X2475520Y3346726D01*
X2475520Y3346726D02*
X2547232Y3364654D01*
X2547232Y3364654D02*
X2601016Y3364654D01*
X2601016Y3364654D02*
X2672728Y3346726D01*
X2672728Y3346726D02*
X2708584Y3328798D01*
X2708584Y3328798D02*
X2744441Y3292942D01*
X2744441Y3292942D02*
X2762369Y3239158D01*
X2762369Y3239158D02*
X2762369Y3149518D01*
X2421736Y3508079D02*
X2403808Y3526007D01*
X2403808Y3526007D02*
X2385880Y3561863D01*
X2385880Y3561863D02*
X2385880Y3651503D01*
X2385880Y3651503D02*
X2403808Y3687359D01*
X2403808Y3687359D02*
X2421736Y3705287D01*
X2421736Y3705287D02*
X2457592Y3723215D01*
X2457592Y3723215D02*
X2493448Y3723215D01*
X2493448Y3723215D02*
X2547232Y3705287D01*
X2547232Y3705287D02*
X2762369Y3490151D01*
X2762369Y3490151D02*
X2762369Y3723215D01*
D15*
X5684363Y6941879D02*
X5684363Y6116379D01*
X5684363Y6116379D02*
X5629330Y5951279D01*
X5629330Y5951279D02*
X5519263Y5841213D01*
X5519263Y5841213D02*
X5354163Y5786179D01*
X5354163Y5786179D02*
X5244097Y5786179D01*
X6234696Y5786179D02*
X6234696Y6941879D01*
X6234696Y6941879D02*
X6674963Y6941879D01*
X6674963Y6941879D02*
X6785030Y6886846D01*
X6785030Y6886846D02*
X6840063Y6831813D01*
X6840063Y6831813D02*
X6895096Y6721746D01*
X6895096Y6721746D02*
X6895096Y6556646D01*
X6895096Y6556646D02*
X6840063Y6446579D01*
X6840063Y6446579D02*
X6785030Y6391546D01*
X6785030Y6391546D02*
X6674963Y6336513D01*
X6674963Y6336513D02*
X6234696Y6336513D01*
X7995763Y5786179D02*
X7335363Y5786179D01*
X7665563Y5786179D02*
X7665563Y6941879D01*
X7665563Y6941879D02*
X7555496Y6776779D01*
X7555496Y6776779D02*
X7445430Y6666713D01*
X7445430Y6666713D02*
X7335363Y6611679D01*
X3300289Y-5273730D02*
X2144589Y-5273730D01*
X3190222Y-4062997D02*
X3245256Y-4118030D01*
X3245256Y-4118030D02*
X3300289Y-4283130D01*
X3300289Y-4283130D02*
X3300289Y-4393197D01*
X3300289Y-4393197D02*
X3245256Y-4558297D01*
X3245256Y-4558297D02*
X3135189Y-4668364D01*
X3135189Y-4668364D02*
X3025122Y-4723397D01*
X3025122Y-4723397D02*
X2804989Y-4778430D01*
X2804989Y-4778430D02*
X2639889Y-4778430D01*
X2639889Y-4778430D02*
X2419756Y-4723397D01*
X2419756Y-4723397D02*
X2309689Y-4668364D01*
X2309689Y-4668364D02*
X2199622Y-4558297D01*
X2199622Y-4558297D02*
X2144589Y-4393197D01*
X2144589Y-4393197D02*
X2144589Y-4283130D01*
X2144589Y-4283130D02*
X2199622Y-4118030D01*
X2199622Y-4118030D02*
X2254656Y-4062997D01*
X2144589Y-3677764D02*
X2144589Y-2962330D01*
X2144589Y-2962330D02*
X2584856Y-3347564D01*
X2584856Y-3347564D02*
X2584856Y-3182464D01*
X2584856Y-3182464D02*
X2639889Y-3072397D01*
X2639889Y-3072397D02*
X2694922Y-3017364D01*
X2694922Y-3017364D02*
X2804989Y-2962330D01*
X2804989Y-2962330D02*
X3080156Y-2962330D01*
X3080156Y-2962330D02*
X3190222Y-3017364D01*
X3190222Y-3017364D02*
X3245256Y-3072397D01*
X3245256Y-3072397D02*
X3300289Y-3182464D01*
X3300289Y-3182464D02*
X3300289Y-3512664D01*
X3300289Y-3512664D02*
X3245256Y-3622730D01*
X3245256Y-3622730D02*
X3190222Y-3677764D01*
D13*
X-3840011Y7116789D02*
X-3807020Y7083797D01*
X-3807020Y7083797D02*
X-3774028Y6984821D01*
X-3774028Y6984821D02*
X-3774028Y6918837D01*
X-3774028Y6918837D02*
X-3807020Y6819861D01*
X-3807020Y6819861D02*
X-3873003Y6753877D01*
X-3873003Y6753877D02*
X-3938987Y6720885D01*
X-3938987Y6720885D02*
X-4070955Y6687893D01*
X-4070955Y6687893D02*
X-4169931Y6687893D01*
X-4169931Y6687893D02*
X-4301899Y6720885D01*
X-4301899Y6720885D02*
X-4367883Y6753877D01*
X-4367883Y6753877D02*
X-4433867Y6819861D01*
X-4433867Y6819861D02*
X-4466859Y6918837D01*
X-4466859Y6918837D02*
X-4466859Y6984821D01*
X-4466859Y6984821D02*
X-4433867Y7083797D01*
X-4433867Y7083797D02*
X-4400875Y7116789D01*
X-3774028Y7776628D02*
X-3774028Y7380724D01*
X-3774028Y7578676D02*
X-4466859Y7578676D01*
X-4466859Y7578676D02*
X-4367883Y7512692D01*
X-4367883Y7512692D02*
X-4301899Y7446708D01*
X-4301899Y7446708D02*
X-4268907Y7380724D01*
D16*
X4319844Y4416430D02*
X3740472Y4010870D01*
X4319844Y3721184D02*
X3103164Y3721184D01*
X3103164Y3721184D02*
X3103164Y4184681D01*
X3103164Y4184681D02*
X3161101Y4300556D01*
X3161101Y4300556D02*
X3219038Y4358493D01*
X3219038Y4358493D02*
X3334912Y4416430D01*
X3334912Y4416430D02*
X3508724Y4416430D01*
X3508724Y4416430D02*
X3624598Y4358493D01*
X3624598Y4358493D02*
X3682535Y4300556D01*
X3682535Y4300556D02*
X3740472Y4184681D01*
X3740472Y4184681D02*
X3740472Y3721184D01*
X3103164Y4821990D02*
X3103164Y5575173D01*
X3103164Y5575173D02*
X3566661Y5169613D01*
X3566661Y5169613D02*
X3566661Y5343424D01*
X3566661Y5343424D02*
X3624598Y5459299D01*
X3624598Y5459299D02*
X3682535Y5517236D01*
X3682535Y5517236D02*
X3798409Y5575173D01*
X3798409Y5575173D02*
X4088095Y5575173D01*
X4088095Y5575173D02*
X4203969Y5517236D01*
X4203969Y5517236D02*
X4261907Y5459299D01*
X4261907Y5459299D02*
X4319844Y5343424D01*
X4319844Y5343424D02*
X4319844Y4995801D01*
X4319844Y4995801D02*
X4261907Y4879927D01*
X4261907Y4879927D02*
X4203969Y4821990D01*
X1652844Y4289430D02*
X1073472Y3883870D01*
X1652844Y3594184D02*
X436164Y3594184D01*
X436164Y3594184D02*
X436164Y4057681D01*
X436164Y4057681D02*
X494101Y4173556D01*
X494101Y4173556D02*
X552038Y4231493D01*
X552038Y4231493D02*
X667912Y4289430D01*
X667912Y4289430D02*
X841724Y4289430D01*
X841724Y4289430D02*
X957598Y4231493D01*
X957598Y4231493D02*
X1015535Y4173556D01*
X1015535Y4173556D02*
X1073472Y4057681D01*
X1073472Y4057681D02*
X1073472Y3594184D01*
X552038Y4752927D02*
X494101Y4810864D01*
X494101Y4810864D02*
X436164Y4926739D01*
X436164Y4926739D02*
X436164Y5216424D01*
X436164Y5216424D02*
X494101Y5332299D01*
X494101Y5332299D02*
X552038Y5390236D01*
X552038Y5390236D02*
X667912Y5448173D01*
X667912Y5448173D02*
X783787Y5448173D01*
X783787Y5448173D02*
X957598Y5390236D01*
X957598Y5390236D02*
X1652844Y4694990D01*
X1652844Y4694990D02*
X1652844Y5448173D01*
X-7263670Y7817763D02*
X-8480350Y7817763D01*
X-8480350Y7817763D02*
X-8480350Y8281260D01*
X-8480350Y8281260D02*
X-8422413Y8397135D01*
X-8422413Y8397135D02*
X-8364476Y8455072D01*
X-8364476Y8455072D02*
X-8248602Y8513009D01*
X-8248602Y8513009D02*
X-8074790Y8513009D01*
X-8074790Y8513009D02*
X-7958916Y8455072D01*
X-7958916Y8455072D02*
X-7900979Y8397135D01*
X-7900979Y8397135D02*
X-7843042Y8281260D01*
X-7843042Y8281260D02*
X-7843042Y7817763D01*
X-8480350Y8918569D02*
X-7263670Y9208255D01*
X-7263670Y9208255D02*
X-8132728Y9440003D01*
X-8132728Y9440003D02*
X-7263670Y9671752D01*
X-7263670Y9671752D02*
X-8480350Y9961438D01*
X-7263670Y11120180D02*
X-7843042Y10714620D01*
X-7263670Y10424934D02*
X-8480350Y10424934D01*
X-8480350Y10424934D02*
X-8480350Y10888431D01*
X-8480350Y10888431D02*
X-8422413Y11004306D01*
X-8422413Y11004306D02*
X-8364476Y11062243D01*
X-8364476Y11062243D02*
X-8248602Y11120180D01*
X-8248602Y11120180D02*
X-8074790Y11120180D01*
X-8074790Y11120180D02*
X-7958916Y11062243D01*
X-7958916Y11062243D02*
X-7900979Y11004306D01*
X-7900979Y11004306D02*
X-7843042Y10888431D01*
X-7843042Y10888431D02*
X-7843042Y10424934D01*
X-8480350Y11873363D02*
X-8480350Y11989237D01*
X-8480350Y11989237D02*
X-8422413Y12105111D01*
X-8422413Y12105111D02*
X-8364476Y12163049D01*
X-8364476Y12163049D02*
X-8248602Y12220986D01*
X-8248602Y12220986D02*
X-8016853Y12278923D01*
X-8016853Y12278923D02*
X-7727168Y12278923D01*
X-7727168Y12278923D02*
X-7495419Y12220986D01*
X-7495419Y12220986D02*
X-7379545Y12163049D01*
X-7379545Y12163049D02*
X-7321608Y12105111D01*
X-7321608Y12105111D02*
X-7263670Y11989237D01*
X-7263670Y11989237D02*
X-7263670Y11873363D01*
X-7263670Y11873363D02*
X-7321608Y11757489D01*
X-7321608Y11757489D02*
X-7379545Y11699551D01*
X-7379545Y11699551D02*
X-7495419Y11641614D01*
X-7495419Y11641614D02*
X-7727168Y11583677D01*
X-7727168Y11583677D02*
X-8016853Y11583677D01*
X-8016853Y11583677D02*
X-8248602Y11641614D01*
X-8248602Y11641614D02*
X-8364476Y11699551D01*
X-8364476Y11699551D02*
X-8422413Y11757489D01*
X-8422413Y11757489D02*
X-8480350Y11873363D01*
X4583065Y-10422283D02*
X4628907Y-10468125D01*
X4628907Y-10468125D02*
X4674748Y-10605651D01*
X4674748Y-10605651D02*
X4674748Y-10697335D01*
X4674748Y-10697335D02*
X4628907Y-10834860D01*
X4628907Y-10834860D02*
X4537223Y-10926544D01*
X4537223Y-10926544D02*
X4445539Y-10972386D01*
X4445539Y-10972386D02*
X4262171Y-11018228D01*
X4262171Y-11018228D02*
X4124646Y-11018228D01*
X4124646Y-11018228D02*
X3941278Y-10972386D01*
X3941278Y-10972386D02*
X3849594Y-10926544D01*
X3849594Y-10926544D02*
X3757910Y-10834860D01*
X3757910Y-10834860D02*
X3712068Y-10697335D01*
X3712068Y-10697335D02*
X3712068Y-10605651D01*
X3712068Y-10605651D02*
X3757910Y-10468125D01*
X3757910Y-10468125D02*
X3803752Y-10422283D01*
X4124646Y-9872180D02*
X4078804Y-9963864D01*
X4078804Y-9963864D02*
X4032962Y-10009706D01*
X4032962Y-10009706D02*
X3941278Y-10055548D01*
X3941278Y-10055548D02*
X3895436Y-10055548D01*
X3895436Y-10055548D02*
X3803752Y-10009706D01*
X3803752Y-10009706D02*
X3757910Y-9963864D01*
X3757910Y-9963864D02*
X3712068Y-9872180D01*
X3712068Y-9872180D02*
X3712068Y-9688813D01*
X3712068Y-9688813D02*
X3757910Y-9597129D01*
X3757910Y-9597129D02*
X3803752Y-9551287D01*
X3803752Y-9551287D02*
X3895436Y-9505445D01*
X3895436Y-9505445D02*
X3941278Y-9505445D01*
X3941278Y-9505445D02*
X4032962Y-9551287D01*
X4032962Y-9551287D02*
X4078804Y-9597129D01*
X4078804Y-9597129D02*
X4124646Y-9688813D01*
X4124646Y-9688813D02*
X4124646Y-9872180D01*
X4124646Y-9872180D02*
X4170487Y-9963864D01*
X4170487Y-9963864D02*
X4216329Y-10009706D01*
X4216329Y-10009706D02*
X4308013Y-10055548D01*
X4308013Y-10055548D02*
X4491381Y-10055548D01*
X4491381Y-10055548D02*
X4583065Y-10009706D01*
X4583065Y-10009706D02*
X4628907Y-9963864D01*
X4628907Y-9963864D02*
X4674748Y-9872180D01*
X4674748Y-9872180D02*
X4674748Y-9688813D01*
X4674748Y-9688813D02*
X4628907Y-9597129D01*
X4628907Y-9597129D02*
X4583065Y-9551287D01*
X4583065Y-9551287D02*
X4491381Y-9505445D01*
X4491381Y-9505445D02*
X4308013Y-9505445D01*
X4308013Y-9505445D02*
X4216329Y-9551287D01*
X4216329Y-9551287D02*
X4170487Y-9597129D01*
X4170487Y-9597129D02*
X4124646Y-9688813D01*
D17*
X2091292Y282349D02*
X914764Y282349D01*
X1979241Y1514902D02*
X2035267Y1458877D01*
X2035267Y1458877D02*
X2091292Y1290801D01*
X2091292Y1290801D02*
X2091292Y1178751D01*
X2091292Y1178751D02*
X2035267Y1010676D01*
X2035267Y1010676D02*
X1923216Y898625D01*
X1923216Y898625D02*
X1811166Y842600D01*
X1811166Y842600D02*
X1587065Y786575D01*
X1587065Y786575D02*
X1418990Y786575D01*
X1418990Y786575D02*
X1194889Y842600D01*
X1194889Y842600D02*
X1082839Y898625D01*
X1082839Y898625D02*
X970789Y1010676D01*
X970789Y1010676D02*
X914764Y1178751D01*
X914764Y1178751D02*
X914764Y1290801D01*
X914764Y1290801D02*
X970789Y1458877D01*
X970789Y1458877D02*
X1026814Y1514902D01*
X1026814Y1963103D02*
X970789Y2019128D01*
X970789Y2019128D02*
X914764Y2131179D01*
X914764Y2131179D02*
X914764Y2411304D01*
X914764Y2411304D02*
X970789Y2523355D01*
X970789Y2523355D02*
X1026814Y2579380D01*
X1026814Y2579380D02*
X1138864Y2635405D01*
X1138864Y2635405D02*
X1250915Y2635405D01*
X1250915Y2635405D02*
X1418990Y2579380D01*
X1418990Y2579380D02*
X2091292Y1907078D01*
X2091292Y1907078D02*
X2091292Y2635405D01*
D13*
X3929383Y595363D02*
X3236552Y595363D01*
X3236552Y595363D02*
X3236552Y760323D01*
X3236552Y760323D02*
X3269544Y859299D01*
X3269544Y859299D02*
X3335528Y925283D01*
X3335528Y925283D02*
X3401512Y958275D01*
X3401512Y958275D02*
X3533480Y991267D01*
X3533480Y991267D02*
X3632456Y991267D01*
X3632456Y991267D02*
X3764424Y958275D01*
X3764424Y958275D02*
X3830408Y925283D01*
X3830408Y925283D02*
X3896392Y859299D01*
X3896392Y859299D02*
X3929383Y760323D01*
X3929383Y760323D02*
X3929383Y595363D01*
X3236552Y1222210D02*
X3236552Y1651106D01*
X3236552Y1651106D02*
X3500488Y1420162D01*
X3500488Y1420162D02*
X3500488Y1519138D01*
X3500488Y1519138D02*
X3533480Y1585122D01*
X3533480Y1585122D02*
X3566472Y1618114D01*
X3566472Y1618114D02*
X3632456Y1651106D01*
X3632456Y1651106D02*
X3797416Y1651106D01*
X3797416Y1651106D02*
X3863400Y1618114D01*
X3863400Y1618114D02*
X3896392Y1585122D01*
X3896392Y1585122D02*
X3929383Y1519138D01*
X3929383Y1519138D02*
X3929383Y1321186D01*
X3929383Y1321186D02*
X3896392Y1255202D01*
X3896392Y1255202D02*
X3863400Y1222210D01*
D16*
X4954844Y-7267569D02*
X4375472Y-7673129D01*
X4954844Y-7962815D02*
X3738164Y-7962815D01*
X3738164Y-7962815D02*
X3738164Y-7499318D01*
X3738164Y-7499318D02*
X3796101Y-7383443D01*
X3796101Y-7383443D02*
X3854038Y-7325506D01*
X3854038Y-7325506D02*
X3969912Y-7267569D01*
X3969912Y-7267569D02*
X4143724Y-7267569D01*
X4143724Y-7267569D02*
X4259598Y-7325506D01*
X4259598Y-7325506D02*
X4317535Y-7383443D01*
X4317535Y-7383443D02*
X4375472Y-7499318D01*
X4375472Y-7499318D02*
X4375472Y-7962815D01*
X4143724Y-6224701D02*
X4954844Y-6224701D01*
X3680227Y-6514386D02*
X4549284Y-6804072D01*
X4549284Y-6804072D02*
X4549284Y-6050889D01*
D15*
X-7015636Y6941879D02*
X-7015636Y6116379D01*
X-7015636Y6116379D02*
X-7070669Y5951279D01*
X-7070669Y5951279D02*
X-7180736Y5841213D01*
X-7180736Y5841213D02*
X-7345836Y5786179D01*
X-7345836Y5786179D02*
X-7455903Y5786179D01*
X-6465303Y5786179D02*
X-6465303Y6941879D01*
X-6465303Y6941879D02*
X-6025036Y6941879D01*
X-6025036Y6941879D02*
X-5914970Y6886846D01*
X-5914970Y6886846D02*
X-5859936Y6831813D01*
X-5859936Y6831813D02*
X-5804903Y6721746D01*
X-5804903Y6721746D02*
X-5804903Y6556646D01*
X-5804903Y6556646D02*
X-5859936Y6446579D01*
X-5859936Y6446579D02*
X-5914970Y6391546D01*
X-5914970Y6391546D02*
X-6025036Y6336513D01*
X-6025036Y6336513D02*
X-6465303Y6336513D01*
X-5364636Y6831813D02*
X-5309603Y6886846D01*
X-5309603Y6886846D02*
X-5199536Y6941879D01*
X-5199536Y6941879D02*
X-4924370Y6941879D01*
X-4924370Y6941879D02*
X-4814303Y6886846D01*
X-4814303Y6886846D02*
X-4759270Y6831813D01*
X-4759270Y6831813D02*
X-4704236Y6721746D01*
X-4704236Y6721746D02*
X-4704236Y6611679D01*
X-4704236Y6611679D02*
X-4759270Y6446579D01*
X-4759270Y6446579D02*
X-5419670Y5786179D01*
X-5419670Y5786179D02*
X-4704236Y5786179D01*
D13*
X5007060Y6824829D02*
X5040052Y6923805D01*
X5040052Y6923805D02*
X5073044Y6956797D01*
X5073044Y6956797D02*
X5139028Y6989789D01*
X5139028Y6989789D02*
X5238004Y6989789D01*
X5238004Y6989789D02*
X5303988Y6956797D01*
X5303988Y6956797D02*
X5336980Y6923805D01*
X5336980Y6923805D02*
X5369971Y6857821D01*
X5369971Y6857821D02*
X5369971Y6593885D01*
X5369971Y6593885D02*
X4677140Y6593885D01*
X4677140Y6593885D02*
X4677140Y6824829D01*
X4677140Y6824829D02*
X4710132Y6890813D01*
X4710132Y6890813D02*
X4743124Y6923805D01*
X4743124Y6923805D02*
X4809108Y6956797D01*
X4809108Y6956797D02*
X4875092Y6956797D01*
X4875092Y6956797D02*
X4941076Y6923805D01*
X4941076Y6923805D02*
X4974068Y6890813D01*
X4974068Y6890813D02*
X5007060Y6824829D01*
X5007060Y6824829D02*
X5007060Y6593885D01*
X5369971Y7649628D02*
X5369971Y7253724D01*
X5369971Y7451676D02*
X4677140Y7451676D01*
X4677140Y7451676D02*
X4776116Y7385692D01*
X4776116Y7385692D02*
X4842100Y7319708D01*
X4842100Y7319708D02*
X4875092Y7253724D01*
X-439416Y4405363D02*
X-1132247Y4405363D01*
X-1132247Y4405363D02*
X-1132247Y4570323D01*
X-1132247Y4570323D02*
X-1099255Y4669299D01*
X-1099255Y4669299D02*
X-1033271Y4735283D01*
X-1033271Y4735283D02*
X-967287Y4768275D01*
X-967287Y4768275D02*
X-835319Y4801267D01*
X-835319Y4801267D02*
X-736343Y4801267D01*
X-736343Y4801267D02*
X-604375Y4768275D01*
X-604375Y4768275D02*
X-538391Y4735283D01*
X-538391Y4735283D02*
X-472408Y4669299D01*
X-472408Y4669299D02*
X-439416Y4570323D01*
X-439416Y4570323D02*
X-439416Y4405363D01*
X-439416Y5461106D02*
X-439416Y5065202D01*
X-439416Y5263154D02*
X-1132247Y5263154D01*
X-1132247Y5263154D02*
X-1033271Y5197170D01*
X-1033271Y5197170D02*
X-967287Y5131186D01*
X-967287Y5131186D02*
X-934295Y5065202D01*
D16*
X3049844Y4289430D02*
X2470472Y3883870D01*
X3049844Y3594184D02*
X1833164Y3594184D01*
X1833164Y3594184D02*
X1833164Y4057681D01*
X1833164Y4057681D02*
X1891101Y4173556D01*
X1891101Y4173556D02*
X1949038Y4231493D01*
X1949038Y4231493D02*
X2064912Y4289430D01*
X2064912Y4289430D02*
X2238724Y4289430D01*
X2238724Y4289430D02*
X2354598Y4231493D01*
X2354598Y4231493D02*
X2412535Y4173556D01*
X2412535Y4173556D02*
X2470472Y4057681D01*
X2470472Y4057681D02*
X2470472Y3594184D01*
X3049844Y5448173D02*
X3049844Y4752927D01*
X3049844Y5100550D02*
X1833164Y5100550D01*
X1833164Y5100550D02*
X2006975Y4984676D01*
X2006975Y4984676D02*
X2122849Y4868801D01*
X2122849Y4868801D02*
X2180787Y4752927D01*
D15*
X4263753Y-4145436D02*
X4318787Y-4200469D01*
X4318787Y-4200469D02*
X4373820Y-4365569D01*
X4373820Y-4365569D02*
X4373820Y-4475636D01*
X4373820Y-4475636D02*
X4318787Y-4640736D01*
X4318787Y-4640736D02*
X4208720Y-4750803D01*
X4208720Y-4750803D02*
X4098653Y-4805836D01*
X4098653Y-4805836D02*
X3878520Y-4860869D01*
X3878520Y-4860869D02*
X3713420Y-4860869D01*
X3713420Y-4860869D02*
X3493287Y-4805836D01*
X3493287Y-4805836D02*
X3383220Y-4750803D01*
X3383220Y-4750803D02*
X3273153Y-4640736D01*
X3273153Y-4640736D02*
X3218120Y-4475636D01*
X3218120Y-4475636D02*
X3218120Y-4365569D01*
X3218120Y-4365569D02*
X3273153Y-4200469D01*
X3273153Y-4200469D02*
X3328187Y-4145436D01*
X4373820Y-3650136D02*
X3218120Y-3650136D01*
X3218120Y-3650136D02*
X4373820Y-2989736D01*
X4373820Y-2989736D02*
X3218120Y-2989736D01*
X3603353Y-1944103D02*
X4373820Y-1944103D01*
X3163087Y-2219270D02*
X3988587Y-2494436D01*
X3988587Y-2494436D02*
X3988587Y-1779003D01*
X-8436246Y-4145436D02*
X-8381213Y-4200469D01*
X-8381213Y-4200469D02*
X-8326179Y-4365569D01*
X-8326179Y-4365569D02*
X-8326179Y-4475636D01*
X-8326179Y-4475636D02*
X-8381213Y-4640736D01*
X-8381213Y-4640736D02*
X-8491279Y-4750803D01*
X-8491279Y-4750803D02*
X-8601346Y-4805836D01*
X-8601346Y-4805836D02*
X-8821479Y-4860869D01*
X-8821479Y-4860869D02*
X-8986579Y-4860869D01*
X-8986579Y-4860869D02*
X-9206713Y-4805836D01*
X-9206713Y-4805836D02*
X-9316779Y-4750803D01*
X-9316779Y-4750803D02*
X-9426846Y-4640736D01*
X-9426846Y-4640736D02*
X-9481879Y-4475636D01*
X-9481879Y-4475636D02*
X-9481879Y-4365569D01*
X-9481879Y-4365569D02*
X-9426846Y-4200469D01*
X-9426846Y-4200469D02*
X-9371813Y-4145436D01*
X-8326179Y-3650136D02*
X-9481879Y-3650136D01*
X-9481879Y-3650136D02*
X-8326179Y-2989736D01*
X-8326179Y-2989736D02*
X-9481879Y-2989736D01*
X-9481879Y-2549470D02*
X-9481879Y-1834036D01*
X-9481879Y-1834036D02*
X-9041613Y-2219270D01*
X-9041613Y-2219270D02*
X-9041613Y-2054170D01*
X-9041613Y-2054170D02*
X-8986579Y-1944103D01*
X-8986579Y-1944103D02*
X-8931546Y-1889070D01*
X-8931546Y-1889070D02*
X-8821479Y-1834036D01*
X-8821479Y-1834036D02*
X-8546313Y-1834036D01*
X-8546313Y-1834036D02*
X-8436246Y-1889070D01*
X-8436246Y-1889070D02*
X-8381213Y-1944103D01*
X-8381213Y-1944103D02*
X-8326179Y-2054170D01*
X-8326179Y-2054170D02*
X-8326179Y-2384370D01*
X-8326179Y-2384370D02*
X-8381213Y-2494436D01*
X-8381213Y-2494436D02*
X-8436246Y-2549470D01*
D18*
X1753804Y17136849D02*
X1722066Y17105112D01*
X1722066Y17105112D02*
X1626852Y17073374D01*
X1626852Y17073374D02*
X1563376Y17073374D01*
X1563376Y17073374D02*
X1468163Y17105112D01*
X1468163Y17105112D02*
X1404687Y17168587D01*
X1404687Y17168587D02*
X1372949Y17232063D01*
X1372949Y17232063D02*
X1341211Y17359015D01*
X1341211Y17359015D02*
X1341211Y17454228D01*
X1341211Y17454228D02*
X1372949Y17581180D01*
X1372949Y17581180D02*
X1404687Y17644656D01*
X1404687Y17644656D02*
X1468163Y17708132D01*
X1468163Y17708132D02*
X1563376Y17739870D01*
X1563376Y17739870D02*
X1626852Y17739870D01*
X1626852Y17739870D02*
X1722066Y17708132D01*
X1722066Y17708132D02*
X1753804Y17676394D01*
X2039445Y17073374D02*
X2039445Y17739870D01*
X2039445Y17739870D02*
X2420300Y17073374D01*
X2420300Y17073374D02*
X2420300Y17739870D01*
X3086796Y17073374D02*
X2705941Y17073374D01*
X2896369Y17073374D02*
X2896369Y17739870D01*
X2896369Y17739870D02*
X2832893Y17644656D01*
X2832893Y17644656D02*
X2769417Y17581180D01*
X2769417Y17581180D02*
X2705941Y17549442D01*
%TO.C,U$9*%
D19*
X7515000Y-10160000D02*
G75*
G02*
X3915000Y-10160000I-1800000J0D01*
G01*
X3915000Y-10160000D02*
G75*
G02*
X7515000Y-10160000I1800000J0D01*
G01*
%TO.C,Q1*%
X-2989000Y-9269600D02*
X1211000Y-9269600D01*
X1211000Y-12320400D02*
X-2989000Y-12320400D01*
%TO.C,D2*%
D20*
X2985000Y2790200D02*
X2985000Y5490200D01*
X4635000Y2790200D02*
X2985000Y2790200D01*
D21*
X3810000Y3640200D02*
X3410000Y4640200D01*
X3410000Y4640200D02*
X4210000Y4640200D01*
X4210000Y4640200D02*
X3810000Y3640200D01*
D20*
X2985000Y5490200D02*
X4635000Y5490200D01*
X4635000Y5490200D02*
X4635000Y2790200D01*
D22*
G36*
X4510000Y3440200D02*
G01*
X3110000Y3440200D01*
X3110000Y3640200D01*
X4510000Y3640200D01*
X4510000Y3440200D01*
G37*
%TO.C,IC3*%
D21*
X1838000Y-7076000D02*
X1838000Y-2586000D01*
X1448000Y-7326000D02*
X1578000Y-7326000D01*
X1448000Y-2326000D02*
X1578000Y-2326000D01*
X828000Y-7326000D02*
X188000Y-7326000D01*
X188000Y-2326000D02*
X828000Y-2326000D01*
X-442000Y-7326000D02*
X-1082000Y-7326000D01*
X-1082000Y-2326000D02*
X-432000Y-2326000D01*
X-1712000Y-7326000D02*
X-2352000Y-7326000D01*
X-2352000Y-2326000D02*
X-1702000Y-2326000D01*
X-2962000Y-2326000D02*
X-3092000Y-2326000D01*
X-2972000Y-7326000D02*
X-3122000Y-7326000D01*
X-3362000Y-2576000D02*
X-3362000Y-7076000D01*
X1838000Y-7076000D02*
G75*
G02*
X1588000Y-7326000I-250000J0D01*
G01*
X1588000Y-2326000D02*
G75*
G02*
X1838000Y-2576000I0J-250000D01*
G01*
X-3112000Y-7326000D02*
G75*
G02*
X-3362000Y-7076000I-1J249999D01*
G01*
X-3362000Y-2576000D02*
G75*
G02*
X-3112000Y-2326000I249999J1D01*
G01*
D23*
X1158000Y-3711000D02*
G75*
G02*
X158000Y-3711000I-500000J0D01*
G01*
X158000Y-3711000D02*
G75*
G02*
X1158000Y-3711000I500000J0D01*
G01*
%TO.C,C1*%
D24*
X-4318000Y4445000D02*
X-3302000Y4445000D01*
%TO.C,U$8*%
D19*
X-3915000Y-10160000D02*
G75*
G02*
X-7515000Y-10160000I-1800000J0D01*
G01*
X-7515000Y-10160000D02*
G75*
G02*
X-3915000Y-10160000I1800000J0D01*
G01*
D22*
%TO.C,PWR0*%
G36*
X-6096000Y7874000D02*
G01*
X-6858000Y7874000D01*
X-6477000Y8382000D01*
X-6096000Y7874000D01*
G37*
G36*
X-6032500Y8268500D02*
G01*
X-6921500Y8268500D01*
X-6921500Y8459000D01*
X-6032500Y8459000D01*
X-6032500Y8268500D01*
G37*
%TO.C,C8*%
D24*
X3302000Y-10287000D02*
X2286000Y-10287000D01*
%TO.C,IC2*%
D21*
X-231400Y2438000D02*
X-231400Y2344000D01*
X-1851400Y2438000D02*
X-231400Y2438000D01*
X-1851400Y2344000D02*
X-1851400Y2438000D01*
X-231400Y1538000D02*
X-231400Y494000D01*
X-1851400Y1444000D02*
X-1851400Y1538000D01*
X-1851400Y494000D02*
X-1851400Y588000D01*
X-231400Y-312000D02*
X-231400Y-406000D01*
X-231400Y-406000D02*
X-1851400Y-406000D01*
X-1851400Y-406000D02*
X-1851400Y-312000D01*
%TO.C,D3*%
D19*
X2909800Y1762000D02*
X2909800Y-238000D01*
X2209800Y1012000D02*
X2609800Y412000D01*
X2609800Y412000D02*
X1809800Y412000D01*
X1809800Y412000D02*
X2209800Y1012000D01*
X1509800Y-238000D02*
X1509800Y1762000D01*
D22*
G36*
X2409800Y562000D02*
G01*
X2009800Y562000D01*
X2209800Y862000D01*
X2409800Y562000D01*
G37*
G36*
X2709800Y1012000D02*
G01*
X1709800Y1012000D01*
X1709800Y1212000D01*
X2709800Y1212000D01*
X2709800Y1012000D01*
G37*
%TO.C,B1*%
G36*
X6858000Y7874000D02*
G01*
X6096000Y7874000D01*
X6477000Y8382000D01*
X6858000Y7874000D01*
G37*
G36*
X6921500Y8268500D02*
G01*
X6032500Y8268500D01*
X6032500Y8459000D01*
X6921500Y8459000D01*
X6921500Y8268500D01*
G37*
%TO.C,D1*%
D19*
X-1459000Y5572000D02*
X-1459000Y3572000D01*
X-2159000Y4822000D02*
X-1759000Y4222000D01*
X-1759000Y4222000D02*
X-2559000Y4222000D01*
X-2559000Y4222000D02*
X-2159000Y4822000D01*
X-2859000Y3572000D02*
X-2859000Y5572000D01*
D22*
G36*
X-1959000Y4372000D02*
G01*
X-2359000Y4372000D01*
X-2159000Y4672000D01*
X-1959000Y4372000D01*
G37*
G36*
X-1659000Y4822000D02*
G01*
X-2659000Y4822000D01*
X-2659000Y5022000D01*
X-1659000Y5022000D01*
X-1659000Y4822000D01*
G37*
%TD*%
%LPC*%
%TO.C,U$1*%
G36*
X382683Y15655880D02*
G01*
X555570Y15563470D01*
X707107Y15439107D01*
X831470Y15287570D01*
X923880Y15114683D01*
X980785Y14927090D01*
X1000000Y14732000D01*
X923880Y14349317D01*
X831470Y14176430D01*
X707107Y14024893D01*
X555570Y13900530D01*
X382683Y13808120D01*
X195090Y13751215D01*
X0Y13732000D01*
X-382683Y13808120D01*
X-555570Y13900530D01*
X-707107Y14024893D01*
X-831470Y14176430D01*
X-923880Y14349317D01*
X-980785Y14536910D01*
X-1000000Y14732000D01*
X-923880Y15114683D01*
X-831470Y15287570D01*
X-707107Y15439107D01*
X-555570Y15563470D01*
X-382683Y15655880D01*
X-195090Y15712785D01*
X0Y15732000D01*
X382683Y15655880D01*
G37*
%TO.C,U$6*%
G36*
X65183Y-9871120D02*
G01*
X238070Y-9963530D01*
X389607Y-10087893D01*
X513970Y-10239430D01*
X606380Y-10412317D01*
X663285Y-10599910D01*
X682500Y-10795000D01*
X606380Y-11177683D01*
X513970Y-11350570D01*
X389607Y-11502107D01*
X238070Y-11626470D01*
X65183Y-11718880D01*
X-122410Y-11775785D01*
X-317500Y-11795000D01*
X-700183Y-11718880D01*
X-873070Y-11626470D01*
X-1024607Y-11502107D01*
X-1148970Y-11350570D01*
X-1241380Y-11177683D01*
X-1298285Y-10990090D01*
X-1317500Y-10795000D01*
X-1241380Y-10412317D01*
X-1148970Y-10239430D01*
X-1024607Y-10087893D01*
X-873070Y-9963530D01*
X-700183Y-9871120D01*
X-512590Y-9814215D01*
X-317500Y-9795000D01*
X65183Y-9871120D01*
G37*
%TD*%
D25*
%TO.C,U$9*%
X5715000Y-10160000D03*
%TD*%
D26*
%TO.C,R5*%
X2794000Y-2452000D03*
X2794000Y-4152000D03*
%TD*%
D27*
%TO.C,Q1*%
X1161000Y-9995000D03*
X-2939000Y-9995000D03*
X1161000Y-11595000D03*
X-2939000Y-11595000D03*
%TD*%
D28*
%TO.C,D2*%
X3810000Y5777700D03*
X3810000Y2502700D03*
%TD*%
D29*
%TO.C,JP1*%
X6350000Y3810000D03*
%TD*%
D30*
%TO.C,IC3*%
X1143000Y-1672000D03*
X-117000Y-1672000D03*
X-1387000Y-1672000D03*
X-2657000Y-1672000D03*
X-2667000Y-7980000D03*
X-1397000Y-7980000D03*
X-127000Y-7980000D03*
X1143000Y-7980000D03*
%TD*%
D31*
%TO.C,C1*%
X-3810000Y3495000D03*
X-3810000Y5395000D03*
%TD*%
D26*
%TO.C,R3*%
X2159000Y5803000D03*
X2159000Y4103000D03*
%TD*%
D25*
%TO.C,U$8*%
X-5715000Y-10160000D03*
%TD*%
D26*
%TO.C,R2*%
X-635000Y5803000D03*
X-635000Y4103000D03*
%TD*%
D32*
%TO.C,PWR0*%
X-6477000Y7078000D03*
X-6477000Y9178000D03*
%TD*%
D33*
%TO.C,C8*%
X2794000Y-9337000D03*
X2794000Y-11237000D03*
%TD*%
D34*
%TO.C,IC2*%
X-2341400Y1966000D03*
X-2341400Y1016000D03*
X-2341400Y66000D03*
X258600Y66000D03*
X258600Y1966000D03*
%TD*%
D35*
%TO.C,D3*%
X2209800Y-508000D03*
X2209800Y2032000D03*
%TD*%
D26*
%TO.C,R4*%
X2794000Y-5881000D03*
X2794000Y-7581000D03*
%TD*%
D29*
%TO.C,JP2*%
X-6350000Y3810000D03*
%TD*%
D32*
%TO.C,B1*%
X6477000Y7078000D03*
X6477000Y9178000D03*
%TD*%
D35*
%TO.C,D1*%
X-2159000Y3302000D03*
X-2159000Y5842000D03*
%TD*%
D26*
%TO.C,R1*%
X762000Y5803000D03*
X762000Y4103000D03*
%TD*%
D29*
%TO.C,CN4*%
X6350000Y-6350000D03*
X6350000Y-3810000D03*
X6350000Y-1270000D03*
X6350000Y1270000D03*
%TD*%
%TO.C,CN3*%
X-6350000Y-6350000D03*
X-6350000Y-3810000D03*
X-6350000Y-1270000D03*
X-6350000Y1270000D03*
%TD*%
D36*
%TO.C,CN1*%
X2200000Y11065000D03*
X-2200000Y11065000D03*
D37*
X0Y8001000D03*
X800000Y8001000D03*
X-1600000Y8001000D03*
D38*
X4400000Y14065000D03*
X4400000Y8565000D03*
X-4400000Y8565000D03*
X-4400000Y14065000D03*
D37*
X-800000Y8001000D03*
X1600000Y8001000D03*
%TD*%
D39*
%TO.C,UNK_HOLE_1*%
X5715000Y11430000D03*
%TD*%
%TO.C,UNK_HOLE_0*%
X-5715000Y11430000D03*
%TD*%
%LPD*%
M02*
