M48
; DRILL file KiCad 10.99.0-3671-gbe90a7e200 date 2026-09-09T23:08:51
; FORMAT={-:-/ absolute / metric / decimal}
; #@! TF.CreationDate,2026-09-09T23:08:51+01:00
; #@! TF.GenerationSoftware,Kicad,Pcbnew,10.99.0-3671-gbe90a7e200
; #@! TF.FileFunction,Plated,1,2,PTH
FMAT,2
METRIC
; #@! TA.AperFunction,Plated,PTH,ViaDrill
T1C0.483
; #@! TA.AperFunction,Plated,PTH,ViaDrill
T2C0.500
; #@! TA.AperFunction,Plated,PTH,ComponentDrill
T3C1.000
; #@! TA.AperFunction,Plated,PTH,ComponentDrill
T4C2.500
%
G90
G05
T1
X15.24Y9.271
X16.904Y7.175
T2
X3.556Y11.43
X3.556Y9.906
X3.556Y6.985
X3.579Y8.151
X8.128Y13.716
X11.557Y7.112
X14.097Y13.843
X14.605Y6.223
X16.637Y4.953
X17.38Y9.271
X19.685Y11.43
X21.248Y12.28
X21.844Y9.271
X22.098Y7.239
T3
X6.35Y2.54
X8.89Y2.54
X11.43Y2.54
X13.97Y2.54
X16.51Y2.54
X19.05Y2.54
T4
X2.54Y15.24
X2.54Y2.54
X22.86Y15.24
X22.86Y2.54
M30
