%TF.GenerationSoftware,KiCad,Pcbnew,10.99.0-3671-gbe90a7e200*%
%TF.CreationDate,2026-09-10T01:04:04+01:00*%
%TF.ProjectId,kicad_file,6b696361-645f-4666-996c-652e6b696361,rev?*%
%TF.SameCoordinates,Original*%
%TF.FileFunction,Legend,Bot*%
%TF.FilePolarity,Positive*%
%FSLAX46Y46*%
G04 Gerber Fmt 4.6, Leading zero omitted, Abs format (unit mm)*
G04 Created by KiCad (PCBNEW 10.99.0-3671-gbe90a7e200) date 2026-09-10 01:04:04*
%MOMM*%
%LPD*%
G01*
G04 APERTURE LIST*
G04 Aperture macros list*
%AMRoundRect*
0 Rectangle with rounded corners*
0 $1 Rounding radius*
0 $2 $3 $4 $5 $6 $7 $8 $9 X,Y pos of 4 corners*
0 Add a 4 corners polygon primitive as box body*
4,1,4,$2,$3,$4,$5,$6,$7,$8,$9,$2,$3,0*
0 Add four circle primitives for the rounded corners*
1,1,$1+$1,$2,$3*
1,1,$1+$1,$4,$5*
1,1,$1+$1,$6,$7*
1,1,$1+$1,$8,$9*
0 Add four rect primitives between the rounded corners*
20,1,$1+$1,$2,$3,$4,$5,0*
20,1,$1+$1,$4,$5,$6,$7,0*
20,1,$1+$1,$6,$7,$8,$9,0*
20,1,$1+$1,$8,$9,$2,$3,0*%
G04 Aperture macros list end*
%ADD10C,0.170688*%
%ADD11C,0.114300*%
%ADD12C,0.152400*%
%ADD13C,0.000000*%
%ADD14C,1.879600*%
%ADD15C,1.408000*%
%ADD16C,3.200000*%
%ADD17O,1.609600X3.117600*%
%ADD18C,1.208000*%
%ADD19O,1.244600X2.387600*%
%ADD20RoundRect,0.050800X-1.206500X-1.206500X1.206500X-1.206500X1.206500X1.206500X-1.206500X1.206500X0*%
%ADD21C,1.778000*%
%ADD22O,2.801600X5.501600*%
%ADD23O,5.501600X2.801600*%
%ADD24RoundRect,0.050800X-0.584200X-0.800100X0.584200X-0.800100X0.584200X0.800100X-0.584200X0.800100X0*%
G04 APERTURE END LIST*
D10*
X39138495Y44176536D02*
X38661652Y44176536D01*
X38959679Y44593773D02*
X38959679Y43520877D01*
X38959679Y43520877D02*
X38900074Y43401667D01*
X38900074Y43401667D02*
X38780863Y43342061D01*
X38780863Y43342061D02*
X38661652Y43342061D01*
X38244415Y43342061D02*
X38244415Y44176536D01*
X38244415Y44593773D02*
X38304020Y44534168D01*
X38304020Y44534168D02*
X38244415Y44474563D01*
X38244415Y44474563D02*
X38184810Y44534168D01*
X38184810Y44534168D02*
X38244415Y44593773D01*
X38244415Y44593773D02*
X38244415Y44474563D01*
X37648362Y44176536D02*
X37648362Y43342061D01*
X37648362Y44057325D02*
X37588757Y44116931D01*
X37588757Y44116931D02*
X37469546Y44176536D01*
X37469546Y44176536D02*
X37290730Y44176536D01*
X37290730Y44176536D02*
X37171519Y44116931D01*
X37171519Y44116931D02*
X37111914Y43997720D01*
X37111914Y43997720D02*
X37111914Y43342061D01*
X36515861Y43342061D02*
X36515861Y44593773D01*
X36396650Y43818904D02*
X36039018Y43342061D01*
X36039018Y44176536D02*
X36515861Y43699693D01*
X35025727Y43401667D02*
X35144938Y43342061D01*
X35144938Y43342061D02*
X35383359Y43342061D01*
X35383359Y43342061D02*
X35502570Y43401667D01*
X35502570Y43401667D02*
X35562175Y43520877D01*
X35562175Y43520877D02*
X35562175Y43997720D01*
X35562175Y43997720D02*
X35502570Y44116931D01*
X35502570Y44116931D02*
X35383359Y44176536D01*
X35383359Y44176536D02*
X35144938Y44176536D01*
X35144938Y44176536D02*
X35025727Y44116931D01*
X35025727Y44116931D02*
X34966122Y43997720D01*
X34966122Y43997720D02*
X34966122Y43878509D01*
X34966122Y43878509D02*
X35562175Y43759299D01*
X34429674Y43342061D02*
X34429674Y44176536D01*
X34429674Y43938115D02*
X34370069Y44057325D01*
X34370069Y44057325D02*
X34310463Y44116931D01*
X34310463Y44116931D02*
X34191253Y44176536D01*
X34191253Y44176536D02*
X34072042Y44176536D01*
X32701120Y43342061D02*
X32701120Y44176536D01*
X32701120Y44593773D02*
X32760725Y44534168D01*
X32760725Y44534168D02*
X32701120Y44474563D01*
X32701120Y44474563D02*
X32641515Y44534168D01*
X32641515Y44534168D02*
X32701120Y44593773D01*
X32701120Y44593773D02*
X32701120Y44474563D01*
X32283883Y44176536D02*
X31807040Y44176536D01*
X32105067Y44593773D02*
X32105067Y43520877D01*
X32105067Y43520877D02*
X32045462Y43401667D01*
X32045462Y43401667D02*
X31926251Y43342061D01*
X31926251Y43342061D02*
X31807040Y43342061D01*
X40582231Y45120061D02*
X40582231Y46371773D01*
X40582231Y45179667D02*
X40701442Y45120061D01*
X40701442Y45120061D02*
X40939863Y45120061D01*
X40939863Y45120061D02*
X41059074Y45179667D01*
X41059074Y45179667D02*
X41118679Y45239272D01*
X41118679Y45239272D02*
X41178284Y45358483D01*
X41178284Y45358483D02*
X41178284Y45716115D01*
X41178284Y45716115D02*
X41118679Y45835325D01*
X41118679Y45835325D02*
X41059074Y45894931D01*
X41059074Y45894931D02*
X40939863Y45954536D01*
X40939863Y45954536D02*
X40701442Y45954536D01*
X40701442Y45954536D02*
X40582231Y45894931D01*
X39509335Y45179667D02*
X39628546Y45120061D01*
X39628546Y45120061D02*
X39866967Y45120061D01*
X39866967Y45120061D02*
X39986178Y45179667D01*
X39986178Y45179667D02*
X40045783Y45298877D01*
X40045783Y45298877D02*
X40045783Y45775720D01*
X40045783Y45775720D02*
X39986178Y45894931D01*
X39986178Y45894931D02*
X39866967Y45954536D01*
X39866967Y45954536D02*
X39628546Y45954536D01*
X39628546Y45954536D02*
X39509335Y45894931D01*
X39509335Y45894931D02*
X39449730Y45775720D01*
X39449730Y45775720D02*
X39449730Y45656509D01*
X39449730Y45656509D02*
X40045783Y45537299D01*
X38972887Y45179667D02*
X38853677Y45120061D01*
X38853677Y45120061D02*
X38615255Y45120061D01*
X38615255Y45120061D02*
X38496045Y45179667D01*
X38496045Y45179667D02*
X38436439Y45298877D01*
X38436439Y45298877D02*
X38436439Y45358483D01*
X38436439Y45358483D02*
X38496045Y45477693D01*
X38496045Y45477693D02*
X38615255Y45537299D01*
X38615255Y45537299D02*
X38794071Y45537299D01*
X38794071Y45537299D02*
X38913282Y45596904D01*
X38913282Y45596904D02*
X38972887Y45716115D01*
X38972887Y45716115D02*
X38972887Y45775720D01*
X38972887Y45775720D02*
X38913282Y45894931D01*
X38913282Y45894931D02*
X38794071Y45954536D01*
X38794071Y45954536D02*
X38615255Y45954536D01*
X38615255Y45954536D02*
X38496045Y45894931D01*
X37899991Y45120061D02*
X37899991Y45954536D01*
X37899991Y46371773D02*
X37959596Y46312168D01*
X37959596Y46312168D02*
X37899991Y46252563D01*
X37899991Y46252563D02*
X37840386Y46312168D01*
X37840386Y46312168D02*
X37899991Y46371773D01*
X37899991Y46371773D02*
X37899991Y46252563D01*
X36767490Y45954536D02*
X36767490Y44941245D01*
X36767490Y44941245D02*
X36827095Y44822035D01*
X36827095Y44822035D02*
X36886701Y44762429D01*
X36886701Y44762429D02*
X37005911Y44702824D01*
X37005911Y44702824D02*
X37184727Y44702824D01*
X37184727Y44702824D02*
X37303938Y44762429D01*
X36767490Y45179667D02*
X36886701Y45120061D01*
X36886701Y45120061D02*
X37125122Y45120061D01*
X37125122Y45120061D02*
X37244333Y45179667D01*
X37244333Y45179667D02*
X37303938Y45239272D01*
X37303938Y45239272D02*
X37363543Y45358483D01*
X37363543Y45358483D02*
X37363543Y45716115D01*
X37363543Y45716115D02*
X37303938Y45835325D01*
X37303938Y45835325D02*
X37244333Y45894931D01*
X37244333Y45894931D02*
X37125122Y45954536D01*
X37125122Y45954536D02*
X36886701Y45954536D01*
X36886701Y45954536D02*
X36767490Y45894931D01*
X36171437Y45954536D02*
X36171437Y45120061D01*
X36171437Y45835325D02*
X36111832Y45894931D01*
X36111832Y45894931D02*
X35992621Y45954536D01*
X35992621Y45954536D02*
X35813805Y45954536D01*
X35813805Y45954536D02*
X35694594Y45894931D01*
X35694594Y45894931D02*
X35634989Y45775720D01*
X35634989Y45775720D02*
X35634989Y45120061D01*
X34562093Y45179667D02*
X34681304Y45120061D01*
X34681304Y45120061D02*
X34919725Y45120061D01*
X34919725Y45120061D02*
X35038936Y45179667D01*
X35038936Y45179667D02*
X35098541Y45298877D01*
X35098541Y45298877D02*
X35098541Y45775720D01*
X35098541Y45775720D02*
X35038936Y45894931D01*
X35038936Y45894931D02*
X34919725Y45954536D01*
X34919725Y45954536D02*
X34681304Y45954536D01*
X34681304Y45954536D02*
X34562093Y45894931D01*
X34562093Y45894931D02*
X34502488Y45775720D01*
X34502488Y45775720D02*
X34502488Y45656509D01*
X34502488Y45656509D02*
X35098541Y45537299D01*
X33429592Y45120061D02*
X33429592Y46371773D01*
X33429592Y45179667D02*
X33548803Y45120061D01*
X33548803Y45120061D02*
X33787224Y45120061D01*
X33787224Y45120061D02*
X33906435Y45179667D01*
X33906435Y45179667D02*
X33966040Y45239272D01*
X33966040Y45239272D02*
X34025645Y45358483D01*
X34025645Y45358483D02*
X34025645Y45716115D01*
X34025645Y45716115D02*
X33966040Y45835325D01*
X33966040Y45835325D02*
X33906435Y45894931D01*
X33906435Y45894931D02*
X33787224Y45954536D01*
X33787224Y45954536D02*
X33548803Y45954536D01*
X33548803Y45954536D02*
X33429592Y45894931D01*
X31879854Y45120061D02*
X31879854Y46371773D01*
X31879854Y45894931D02*
X31760643Y45954536D01*
X31760643Y45954536D02*
X31522222Y45954536D01*
X31522222Y45954536D02*
X31403011Y45894931D01*
X31403011Y45894931D02*
X31343406Y45835325D01*
X31343406Y45835325D02*
X31283801Y45716115D01*
X31283801Y45716115D02*
X31283801Y45358483D01*
X31283801Y45358483D02*
X31343406Y45239272D01*
X31343406Y45239272D02*
X31403011Y45179667D01*
X31403011Y45179667D02*
X31522222Y45120061D01*
X31522222Y45120061D02*
X31760643Y45120061D01*
X31760643Y45120061D02*
X31879854Y45179667D01*
X30866564Y45954536D02*
X30568537Y45120061D01*
X30270510Y45954536D02*
X30568537Y45120061D01*
X30568537Y45120061D02*
X30687748Y44822035D01*
X30687748Y44822035D02*
X30747353Y44762429D01*
X30747353Y44762429D02*
X30866564Y44702824D01*
D11*
X12855629Y43456877D02*
X12965696Y43511910D01*
X12965696Y43511910D02*
X13130796Y43511910D01*
X13130796Y43511910D02*
X13295896Y43456877D01*
X13295896Y43456877D02*
X13405963Y43346810D01*
X13405963Y43346810D02*
X13460996Y43236744D01*
X13460996Y43236744D02*
X13516029Y43016610D01*
X13516029Y43016610D02*
X13516029Y42851510D01*
X13516029Y42851510D02*
X13460996Y42631377D01*
X13460996Y42631377D02*
X13405963Y42521310D01*
X13405963Y42521310D02*
X13295896Y42411244D01*
X13295896Y42411244D02*
X13130796Y42356210D01*
X13130796Y42356210D02*
X13020729Y42356210D01*
X13020729Y42356210D02*
X12855629Y42411244D01*
X12855629Y42411244D02*
X12800596Y42466277D01*
X12800596Y42466277D02*
X12800596Y42851510D01*
X12800596Y42851510D02*
X13020729Y42851510D01*
X11644896Y42356210D02*
X12030129Y42906544D01*
X12305296Y42356210D02*
X12305296Y43511910D01*
X12305296Y43511910D02*
X11865029Y43511910D01*
X11865029Y43511910D02*
X11754963Y43456877D01*
X11754963Y43456877D02*
X11699929Y43401844D01*
X11699929Y43401844D02*
X11644896Y43291777D01*
X11644896Y43291777D02*
X11644896Y43126677D01*
X11644896Y43126677D02*
X11699929Y43016610D01*
X11699929Y43016610D02*
X11754963Y42961577D01*
X11754963Y42961577D02*
X11865029Y42906544D01*
X11865029Y42906544D02*
X12305296Y42906544D01*
X10929463Y43511910D02*
X10709329Y43511910D01*
X10709329Y43511910D02*
X10599263Y43456877D01*
X10599263Y43456877D02*
X10489196Y43346810D01*
X10489196Y43346810D02*
X10434163Y43126677D01*
X10434163Y43126677D02*
X10434163Y42741444D01*
X10434163Y42741444D02*
X10489196Y42521310D01*
X10489196Y42521310D02*
X10599263Y42411244D01*
X10599263Y42411244D02*
X10709329Y42356210D01*
X10709329Y42356210D02*
X10929463Y42356210D01*
X10929463Y42356210D02*
X11039529Y42411244D01*
X11039529Y42411244D02*
X11149596Y42521310D01*
X11149596Y42521310D02*
X11204629Y42741444D01*
X11204629Y42741444D02*
X11204629Y43126677D01*
X11204629Y43126677D02*
X11149596Y43346810D01*
X11149596Y43346810D02*
X11039529Y43456877D01*
X11039529Y43456877D02*
X10929463Y43511910D01*
X9938863Y43511910D02*
X9938863Y42576344D01*
X9938863Y42576344D02*
X9883830Y42466277D01*
X9883830Y42466277D02*
X9828796Y42411244D01*
X9828796Y42411244D02*
X9718730Y42356210D01*
X9718730Y42356210D02*
X9498596Y42356210D01*
X9498596Y42356210D02*
X9388530Y42411244D01*
X9388530Y42411244D02*
X9333496Y42466277D01*
X9333496Y42466277D02*
X9278463Y42576344D01*
X9278463Y42576344D02*
X9278463Y43511910D01*
X8728130Y42356210D02*
X8728130Y43511910D01*
X8728130Y43511910D02*
X8067730Y42356210D01*
X8067730Y42356210D02*
X8067730Y43511910D01*
X7517397Y42356210D02*
X7517397Y43511910D01*
X7517397Y43511910D02*
X7242230Y43511910D01*
X7242230Y43511910D02*
X7077130Y43456877D01*
X7077130Y43456877D02*
X6967064Y43346810D01*
X6967064Y43346810D02*
X6912030Y43236744D01*
X6912030Y43236744D02*
X6856997Y43016610D01*
X6856997Y43016610D02*
X6856997Y42851510D01*
X6856997Y42851510D02*
X6912030Y42631377D01*
X6912030Y42631377D02*
X6967064Y42521310D01*
X6967064Y42521310D02*
X7077130Y42411244D01*
X7077130Y42411244D02*
X7242230Y42356210D01*
X7242230Y42356210D02*
X7517397Y42356210D01*
X5756330Y42356210D02*
X6416730Y42356210D01*
X6086530Y42356210D02*
X6086530Y43511910D01*
X6086530Y43511910D02*
X6196597Y43346810D01*
X6196597Y43346810D02*
X6306664Y43236744D01*
X6306664Y43236744D02*
X6416730Y43181710D01*
%TO.C,GROUND1*%
D12*
X5461000Y45466000D02*
X5461000Y43942000D01*
X5715000Y43688000D02*
X8509000Y43688000D01*
X8509000Y45720000D02*
X5715000Y45720000D01*
X8763000Y45466000D02*
X8763000Y43942000D01*
X5461000Y45466000D02*
G75*
G02*
X5715000Y45720000I254000J0D01*
G01*
X5715000Y43688000D02*
G75*
G02*
X5461000Y43942000I0J254000D01*
G01*
X8509000Y45720000D02*
G75*
G02*
X8763000Y45466000I0J-254000D01*
G01*
X8763000Y43942000D02*
G75*
G02*
X8509000Y43688000I-254000J0D01*
G01*
%TD*%
%LPC*%
D13*
%TO.C,GROUND1*%
G36*
X7188200Y43789600D02*
G01*
X7035800Y43789600D01*
X7035800Y45618400D01*
X7188200Y45618400D01*
X7188200Y43789600D01*
G37*
%TD*%
D14*
%TO.C,ICSP0*%
X63500000Y30480000D03*
X66040000Y30480000D03*
X63500000Y27940000D03*
X66040000Y27940000D03*
X63500000Y25400000D03*
X66040000Y25400000D03*
%TD*%
D15*
%TO.C,SW2*%
X2921000Y19788000D03*
X2921000Y16788000D03*
%TD*%
D16*
%TO.C,UNK_HOLE_1*%
X66040000Y7620000D03*
%TD*%
D17*
%TO.C,AD0*%
X50800000Y2540000D03*
X53340000Y2540000D03*
X55880000Y2540000D03*
X58420000Y2540000D03*
X60960000Y2540000D03*
X63500000Y2540000D03*
%TD*%
D18*
%TO.C,X3*%
X4318000Y40050000D03*
X4318000Y36150000D03*
D19*
X5218000Y41971500D03*
X5218000Y34228500D03*
D20*
X2418000Y41700000D03*
X2418000Y34500000D03*
%TD*%
D16*
%TO.C,UNK_HOLE_3*%
X13970000Y2540000D03*
%TD*%
D17*
%TO.C,POWER0*%
X27940000Y2540000D03*
X30480000Y2540000D03*
X33020000Y2540000D03*
X35560000Y2540000D03*
X38100000Y2540000D03*
X40640000Y2540000D03*
X43180000Y2540000D03*
X45720000Y2540000D03*
%TD*%
%TO.C,IOL0*%
X45720000Y50800000D03*
X48260000Y50800000D03*
X50800000Y50800000D03*
X53340000Y50800000D03*
X55880000Y50800000D03*
X58420000Y50800000D03*
X60960000Y50800000D03*
X63500000Y50800000D03*
%TD*%
D21*
%TO.C,JP1*%
X5588000Y13716000D03*
%TD*%
D16*
%TO.C,UNK_HOLE_0*%
X66040000Y35560000D03*
%TD*%
%TO.C,UNK_HOLE_2*%
X15240000Y50800000D03*
%TD*%
D22*
%TO.C,X2*%
X4048000Y7747000D03*
D23*
X7448000Y2947000D03*
D22*
X10298000Y7747000D03*
%TD*%
D17*
%TO.C,IOH0*%
X18796000Y50800000D03*
X21336000Y50800000D03*
X23876000Y50800000D03*
X26416000Y50800000D03*
X28956000Y50800000D03*
X31496000Y50800000D03*
X34036000Y50800000D03*
X36576000Y50800000D03*
X39116000Y50800000D03*
X41656000Y50800000D03*
%TD*%
D24*
%TO.C,GROUND1*%
X6350000Y44704000D03*
X7874000Y44704000D03*
%TD*%
%LPD*%
M02*
