%TF.GenerationSoftware,KiCad,Pcbnew,10.99.0-3671-gbe90a7e200*%
%TF.CreationDate,2026-09-10T01:32:41+01:00*%
%TF.ProjectId,kicad_file,6b696361-645f-4666-996c-652e6b696361,rev?*%
%TF.SameCoordinates,Original*%
%TF.FileFunction,Drillmap*%
%TF.FilePolarity,Positive*%
%FSLAX45Y45*%
G04 Gerber Fmt 4.5, Leading zero omitted, Abs format (unit mm)*
G04 Created by KiCad (PCBNEW 10.99.0-3671-gbe90a7e200) date 2026-09-10 01:32:41*
%MOMM*%
%LPD*%
G01*
G04 APERTURE LIST*
%ADD10C,0.050000*%
%ADD11C,0.200000*%
%ADD12C,0.280000*%
G04 APERTURE END LIST*
D10*
X0Y7112000D02*
X0Y0D01*
X0Y0D02*
X7112000Y0D01*
X7112000Y7112000D02*
X0Y7112000D01*
X7112000Y0D02*
X7112000Y7112000D01*
D11*
D12*
X749000Y4585000D02*
X1029000Y4305000D01*
X1029000Y4585000D02*
X749000Y4305000D01*
X749000Y2807000D02*
X1029000Y2527000D01*
X1029000Y2807000D02*
X749000Y2527000D01*
X1638000Y6998000D02*
X1918000Y6718000D01*
X1918000Y6998000D02*
X1638000Y6718000D01*
X1638000Y394000D02*
X1918000Y114000D01*
X1918000Y394000D02*
X1638000Y114000D01*
X3416000Y6998000D02*
X3696000Y6718000D01*
X3696000Y6998000D02*
X3416000Y6718000D01*
X3416000Y4585000D02*
X3696000Y4305000D01*
X3696000Y4585000D02*
X3416000Y4305000D01*
X3416000Y2807000D02*
X3696000Y2527000D01*
X3696000Y2807000D02*
X3416000Y2527000D01*
X3416000Y394000D02*
X3696000Y114000D01*
X3696000Y394000D02*
X3416000Y114000D01*
X5194000Y6998000D02*
X5474000Y6718000D01*
X5474000Y6998000D02*
X5194000Y6718000D01*
X5194000Y394000D02*
X5474000Y114000D01*
X5474000Y394000D02*
X5194000Y114000D01*
X6083000Y4585000D02*
X6363000Y4305000D01*
X6363000Y4585000D02*
X6083000Y4305000D01*
X6083000Y2807000D02*
X6363000Y2527000D01*
X6363000Y2807000D02*
X6083000Y2527000D01*
D11*
X258277Y-313984D02*
X258277Y-113984D01*
X258277Y-113984D02*
X305896Y-113984D01*
X305896Y-113984D02*
X334467Y-123508D01*
X334467Y-123508D02*
X353515Y-142555D01*
X353515Y-142555D02*
X363039Y-161603D01*
X363039Y-161603D02*
X372562Y-199698D01*
X372562Y-199698D02*
X372562Y-228269D01*
X372562Y-228269D02*
X363039Y-266365D01*
X363039Y-266365D02*
X353515Y-285412D01*
X353515Y-285412D02*
X334467Y-304460D01*
X334467Y-304460D02*
X305896Y-313984D01*
X305896Y-313984D02*
X258277Y-313984D01*
X458277Y-313984D02*
X458277Y-180650D01*
X458277Y-218746D02*
X467801Y-199698D01*
X467801Y-199698D02*
X477324Y-190174D01*
X477324Y-190174D02*
X496372Y-180650D01*
X496372Y-180650D02*
X515420Y-180650D01*
X582086Y-313984D02*
X582086Y-180650D01*
X582086Y-113984D02*
X572563Y-123508D01*
X572563Y-123508D02*
X582086Y-133031D01*
X582086Y-133031D02*
X591610Y-123508D01*
X591610Y-123508D02*
X582086Y-113984D01*
X582086Y-113984D02*
X582086Y-133031D01*
X705896Y-313984D02*
X686848Y-304460D01*
X686848Y-304460D02*
X677324Y-285412D01*
X677324Y-285412D02*
X677324Y-113984D01*
X810658Y-313984D02*
X791610Y-304460D01*
X791610Y-304460D02*
X782086Y-285412D01*
X782086Y-285412D02*
X782086Y-113984D01*
X1039229Y-313984D02*
X1039229Y-113984D01*
X1039229Y-113984D02*
X1105896Y-256841D01*
X1105896Y-256841D02*
X1172563Y-113984D01*
X1172563Y-113984D02*
X1172563Y-313984D01*
X1353515Y-313984D02*
X1353515Y-209222D01*
X1353515Y-209222D02*
X1343991Y-190174D01*
X1343991Y-190174D02*
X1324944Y-180650D01*
X1324944Y-180650D02*
X1286848Y-180650D01*
X1286848Y-180650D02*
X1267801Y-190174D01*
X1353515Y-304460D02*
X1334467Y-313984D01*
X1334467Y-313984D02*
X1286848Y-313984D01*
X1286848Y-313984D02*
X1267801Y-304460D01*
X1267801Y-304460D02*
X1258277Y-285412D01*
X1258277Y-285412D02*
X1258277Y-266365D01*
X1258277Y-266365D02*
X1267801Y-247317D01*
X1267801Y-247317D02*
X1286848Y-237793D01*
X1286848Y-237793D02*
X1334467Y-237793D01*
X1334467Y-237793D02*
X1353515Y-228269D01*
X1448753Y-180650D02*
X1448753Y-380650D01*
X1448753Y-190174D02*
X1467801Y-180650D01*
X1467801Y-180650D02*
X1505896Y-180650D01*
X1505896Y-180650D02*
X1524943Y-190174D01*
X1524943Y-190174D02*
X1534467Y-199698D01*
X1534467Y-199698D02*
X1543991Y-218746D01*
X1543991Y-218746D02*
X1543991Y-275889D01*
X1543991Y-275889D02*
X1534467Y-294936D01*
X1534467Y-294936D02*
X1524943Y-304460D01*
X1524943Y-304460D02*
X1505896Y-313984D01*
X1505896Y-313984D02*
X1467801Y-313984D01*
X1467801Y-313984D02*
X1448753Y-304460D01*
X1629705Y-294936D02*
X1639229Y-304460D01*
X1639229Y-304460D02*
X1629705Y-313984D01*
X1629705Y-313984D02*
X1620182Y-304460D01*
X1620182Y-304460D02*
X1629705Y-294936D01*
X1629705Y-294936D02*
X1629705Y-313984D01*
X1629705Y-190174D02*
X1639229Y-199698D01*
X1639229Y-199698D02*
X1629705Y-209222D01*
X1629705Y-209222D02*
X1620182Y-199698D01*
X1620182Y-199698D02*
X1629705Y-190174D01*
X1629705Y-190174D02*
X1629705Y-209222D01*
X-202500Y-542500D02*
X-2500Y-742500D01*
X-2500Y-542500D02*
X-202500Y-742500D01*
X248753Y-553031D02*
X258277Y-543508D01*
X258277Y-543508D02*
X277324Y-533984D01*
X277324Y-533984D02*
X324944Y-533984D01*
X324944Y-533984D02*
X343991Y-543508D01*
X343991Y-543508D02*
X353515Y-553031D01*
X353515Y-553031D02*
X363039Y-572079D01*
X363039Y-572079D02*
X363039Y-591127D01*
X363039Y-591127D02*
X353515Y-619698D01*
X353515Y-619698D02*
X239229Y-733984D01*
X239229Y-733984D02*
X363039Y-733984D01*
X448753Y-714936D02*
X458277Y-724460D01*
X458277Y-724460D02*
X448753Y-733984D01*
X448753Y-733984D02*
X439229Y-724460D01*
X439229Y-724460D02*
X448753Y-714936D01*
X448753Y-714936D02*
X448753Y-733984D01*
X572563Y-619698D02*
X553515Y-610174D01*
X553515Y-610174D02*
X543991Y-600650D01*
X543991Y-600650D02*
X534467Y-581603D01*
X534467Y-581603D02*
X534467Y-572079D01*
X534467Y-572079D02*
X543991Y-553031D01*
X543991Y-553031D02*
X553515Y-543508D01*
X553515Y-543508D02*
X572563Y-533984D01*
X572563Y-533984D02*
X610658Y-533984D01*
X610658Y-533984D02*
X629705Y-543508D01*
X629705Y-543508D02*
X639229Y-553031D01*
X639229Y-553031D02*
X648753Y-572079D01*
X648753Y-572079D02*
X648753Y-581603D01*
X648753Y-581603D02*
X639229Y-600650D01*
X639229Y-600650D02*
X629705Y-610174D01*
X629705Y-610174D02*
X610658Y-619698D01*
X610658Y-619698D02*
X572563Y-619698D01*
X572563Y-619698D02*
X553515Y-629222D01*
X553515Y-629222D02*
X543991Y-638746D01*
X543991Y-638746D02*
X534467Y-657793D01*
X534467Y-657793D02*
X534467Y-695889D01*
X534467Y-695889D02*
X543991Y-714936D01*
X543991Y-714936D02*
X553515Y-724460D01*
X553515Y-724460D02*
X572563Y-733984D01*
X572563Y-733984D02*
X610658Y-733984D01*
X610658Y-733984D02*
X629705Y-724460D01*
X629705Y-724460D02*
X639229Y-714936D01*
X639229Y-714936D02*
X648753Y-695889D01*
X648753Y-695889D02*
X648753Y-657793D01*
X648753Y-657793D02*
X639229Y-638746D01*
X639229Y-638746D02*
X629705Y-629222D01*
X629705Y-629222D02*
X610658Y-619698D01*
X772562Y-533984D02*
X791610Y-533984D01*
X791610Y-533984D02*
X810658Y-543508D01*
X810658Y-543508D02*
X820182Y-553031D01*
X820182Y-553031D02*
X829705Y-572079D01*
X829705Y-572079D02*
X839229Y-610174D01*
X839229Y-610174D02*
X839229Y-657793D01*
X839229Y-657793D02*
X829705Y-695889D01*
X829705Y-695889D02*
X820182Y-714936D01*
X820182Y-714936D02*
X810658Y-724460D01*
X810658Y-724460D02*
X791610Y-733984D01*
X791610Y-733984D02*
X772562Y-733984D01*
X772562Y-733984D02*
X753515Y-724460D01*
X753515Y-724460D02*
X743991Y-714936D01*
X743991Y-714936D02*
X734467Y-695889D01*
X734467Y-695889D02*
X724943Y-657793D01*
X724943Y-657793D02*
X724943Y-610174D01*
X724943Y-610174D02*
X734467Y-572079D01*
X734467Y-572079D02*
X743991Y-553031D01*
X743991Y-553031D02*
X753515Y-543508D01*
X753515Y-543508D02*
X772562Y-533984D01*
X963039Y-533984D02*
X982086Y-533984D01*
X982086Y-533984D02*
X1001134Y-543508D01*
X1001134Y-543508D02*
X1010658Y-553031D01*
X1010658Y-553031D02*
X1020182Y-572079D01*
X1020182Y-572079D02*
X1029705Y-610174D01*
X1029705Y-610174D02*
X1029705Y-657793D01*
X1029705Y-657793D02*
X1020182Y-695889D01*
X1020182Y-695889D02*
X1010658Y-714936D01*
X1010658Y-714936D02*
X1001134Y-724460D01*
X1001134Y-724460D02*
X982086Y-733984D01*
X982086Y-733984D02*
X963039Y-733984D01*
X963039Y-733984D02*
X943991Y-724460D01*
X943991Y-724460D02*
X934467Y-714936D01*
X934467Y-714936D02*
X924943Y-695889D01*
X924943Y-695889D02*
X915420Y-657793D01*
X915420Y-657793D02*
X915420Y-610174D01*
X915420Y-610174D02*
X924943Y-572079D01*
X924943Y-572079D02*
X934467Y-553031D01*
X934467Y-553031D02*
X943991Y-543508D01*
X943991Y-543508D02*
X963039Y-533984D01*
X1115420Y-733984D02*
X1115420Y-600650D01*
X1115420Y-619698D02*
X1124944Y-610174D01*
X1124944Y-610174D02*
X1143991Y-600650D01*
X1143991Y-600650D02*
X1172563Y-600650D01*
X1172563Y-600650D02*
X1191610Y-610174D01*
X1191610Y-610174D02*
X1201134Y-629222D01*
X1201134Y-629222D02*
X1201134Y-733984D01*
X1201134Y-629222D02*
X1210658Y-610174D01*
X1210658Y-610174D02*
X1229705Y-600650D01*
X1229705Y-600650D02*
X1258277Y-600650D01*
X1258277Y-600650D02*
X1277325Y-610174D01*
X1277325Y-610174D02*
X1286848Y-629222D01*
X1286848Y-629222D02*
X1286848Y-733984D01*
X1382086Y-733984D02*
X1382086Y-600650D01*
X1382086Y-619698D02*
X1391610Y-610174D01*
X1391610Y-610174D02*
X1410658Y-600650D01*
X1410658Y-600650D02*
X1439229Y-600650D01*
X1439229Y-600650D02*
X1458277Y-610174D01*
X1458277Y-610174D02*
X1467801Y-629222D01*
X1467801Y-629222D02*
X1467801Y-733984D01*
X1467801Y-629222D02*
X1477324Y-610174D01*
X1477324Y-610174D02*
X1496372Y-600650D01*
X1496372Y-600650D02*
X1524943Y-600650D01*
X1524943Y-600650D02*
X1543991Y-610174D01*
X1543991Y-610174D02*
X1553515Y-629222D01*
X1553515Y-629222D02*
X1553515Y-733984D01*
X1943991Y-524460D02*
X1772563Y-781603D01*
X2201134Y-533984D02*
X2220182Y-533984D01*
X2220182Y-533984D02*
X2239229Y-543508D01*
X2239229Y-543508D02*
X2248753Y-553031D01*
X2248753Y-553031D02*
X2258277Y-572079D01*
X2258277Y-572079D02*
X2267801Y-610174D01*
X2267801Y-610174D02*
X2267801Y-657793D01*
X2267801Y-657793D02*
X2258277Y-695889D01*
X2258277Y-695889D02*
X2248753Y-714936D01*
X2248753Y-714936D02*
X2239229Y-724460D01*
X2239229Y-724460D02*
X2220182Y-733984D01*
X2220182Y-733984D02*
X2201134Y-733984D01*
X2201134Y-733984D02*
X2182087Y-724460D01*
X2182087Y-724460D02*
X2172563Y-714936D01*
X2172563Y-714936D02*
X2163039Y-695889D01*
X2163039Y-695889D02*
X2153515Y-657793D01*
X2153515Y-657793D02*
X2153515Y-610174D01*
X2153515Y-610174D02*
X2163039Y-572079D01*
X2163039Y-572079D02*
X2172563Y-553031D01*
X2172563Y-553031D02*
X2182087Y-543508D01*
X2182087Y-543508D02*
X2201134Y-533984D01*
X2353515Y-714936D02*
X2363039Y-724460D01*
X2363039Y-724460D02*
X2353515Y-733984D01*
X2353515Y-733984D02*
X2343991Y-724460D01*
X2343991Y-724460D02*
X2353515Y-714936D01*
X2353515Y-714936D02*
X2353515Y-733984D01*
X2553515Y-733984D02*
X2439229Y-733984D01*
X2496372Y-733984D02*
X2496372Y-533984D01*
X2496372Y-533984D02*
X2477325Y-562555D01*
X2477325Y-562555D02*
X2458277Y-581603D01*
X2458277Y-581603D02*
X2439229Y-591127D01*
X2743991Y-733984D02*
X2629706Y-733984D01*
X2686848Y-733984D02*
X2686848Y-533984D01*
X2686848Y-533984D02*
X2667801Y-562555D01*
X2667801Y-562555D02*
X2648753Y-581603D01*
X2648753Y-581603D02*
X2629706Y-591127D01*
X2867801Y-533984D02*
X2886848Y-533984D01*
X2886848Y-533984D02*
X2905896Y-543508D01*
X2905896Y-543508D02*
X2915420Y-553031D01*
X2915420Y-553031D02*
X2924944Y-572079D01*
X2924944Y-572079D02*
X2934467Y-610174D01*
X2934467Y-610174D02*
X2934467Y-657793D01*
X2934467Y-657793D02*
X2924944Y-695889D01*
X2924944Y-695889D02*
X2915420Y-714936D01*
X2915420Y-714936D02*
X2905896Y-724460D01*
X2905896Y-724460D02*
X2886848Y-733984D01*
X2886848Y-733984D02*
X2867801Y-733984D01*
X2867801Y-733984D02*
X2848753Y-724460D01*
X2848753Y-724460D02*
X2839229Y-714936D01*
X2839229Y-714936D02*
X2829706Y-695889D01*
X2829706Y-695889D02*
X2820182Y-657793D01*
X2820182Y-657793D02*
X2820182Y-610174D01*
X2820182Y-610174D02*
X2829706Y-572079D01*
X2829706Y-572079D02*
X2839229Y-553031D01*
X2839229Y-553031D02*
X2848753Y-543508D01*
X2848753Y-543508D02*
X2867801Y-533984D01*
X3010658Y-553031D02*
X3020182Y-543508D01*
X3020182Y-543508D02*
X3039229Y-533984D01*
X3039229Y-533984D02*
X3086848Y-533984D01*
X3086848Y-533984D02*
X3105896Y-543508D01*
X3105896Y-543508D02*
X3115420Y-553031D01*
X3115420Y-553031D02*
X3124944Y-572079D01*
X3124944Y-572079D02*
X3124944Y-591127D01*
X3124944Y-591127D02*
X3115420Y-619698D01*
X3115420Y-619698D02*
X3001134Y-733984D01*
X3001134Y-733984D02*
X3124944Y-733984D01*
X3201134Y-533984D02*
X3201134Y-572079D01*
X3277325Y-533984D02*
X3277325Y-572079D01*
X3572563Y-810174D02*
X3563039Y-800650D01*
X3563039Y-800650D02*
X3543991Y-772079D01*
X3543991Y-772079D02*
X3534468Y-753031D01*
X3534468Y-753031D02*
X3524944Y-724460D01*
X3524944Y-724460D02*
X3515420Y-676841D01*
X3515420Y-676841D02*
X3515420Y-638746D01*
X3515420Y-638746D02*
X3524944Y-591127D01*
X3524944Y-591127D02*
X3534468Y-562555D01*
X3534468Y-562555D02*
X3543991Y-543508D01*
X3543991Y-543508D02*
X3563039Y-514936D01*
X3563039Y-514936D02*
X3572563Y-505412D01*
X3753515Y-733984D02*
X3639229Y-733984D01*
X3696372Y-733984D02*
X3696372Y-533984D01*
X3696372Y-533984D02*
X3677325Y-562555D01*
X3677325Y-562555D02*
X3658277Y-581603D01*
X3658277Y-581603D02*
X3639229Y-591127D01*
X3829706Y-553031D02*
X3839229Y-543508D01*
X3839229Y-543508D02*
X3858277Y-533984D01*
X3858277Y-533984D02*
X3905896Y-533984D01*
X3905896Y-533984D02*
X3924944Y-543508D01*
X3924944Y-543508D02*
X3934468Y-553031D01*
X3934468Y-553031D02*
X3943991Y-572079D01*
X3943991Y-572079D02*
X3943991Y-591127D01*
X3943991Y-591127D02*
X3934468Y-619698D01*
X3934468Y-619698D02*
X3820182Y-733984D01*
X3820182Y-733984D02*
X3943991Y-733984D01*
X4182087Y-733984D02*
X4182087Y-533984D01*
X4267801Y-733984D02*
X4267801Y-629222D01*
X4267801Y-629222D02*
X4258277Y-610174D01*
X4258277Y-610174D02*
X4239230Y-600650D01*
X4239230Y-600650D02*
X4210658Y-600650D01*
X4210658Y-600650D02*
X4191610Y-610174D01*
X4191610Y-610174D02*
X4182087Y-619698D01*
X4391611Y-733984D02*
X4372563Y-724460D01*
X4372563Y-724460D02*
X4363039Y-714936D01*
X4363039Y-714936D02*
X4353515Y-695889D01*
X4353515Y-695889D02*
X4353515Y-638746D01*
X4353515Y-638746D02*
X4363039Y-619698D01*
X4363039Y-619698D02*
X4372563Y-610174D01*
X4372563Y-610174D02*
X4391611Y-600650D01*
X4391611Y-600650D02*
X4420182Y-600650D01*
X4420182Y-600650D02*
X4439230Y-610174D01*
X4439230Y-610174D02*
X4448753Y-619698D01*
X4448753Y-619698D02*
X4458277Y-638746D01*
X4458277Y-638746D02*
X4458277Y-695889D01*
X4458277Y-695889D02*
X4448753Y-714936D01*
X4448753Y-714936D02*
X4439230Y-724460D01*
X4439230Y-724460D02*
X4420182Y-733984D01*
X4420182Y-733984D02*
X4391611Y-733984D01*
X4572563Y-733984D02*
X4553515Y-724460D01*
X4553515Y-724460D02*
X4543992Y-705412D01*
X4543992Y-705412D02*
X4543992Y-533984D01*
X4724944Y-724460D02*
X4705896Y-733984D01*
X4705896Y-733984D02*
X4667801Y-733984D01*
X4667801Y-733984D02*
X4648753Y-724460D01*
X4648753Y-724460D02*
X4639230Y-705412D01*
X4639230Y-705412D02*
X4639230Y-629222D01*
X4639230Y-629222D02*
X4648753Y-610174D01*
X4648753Y-610174D02*
X4667801Y-600650D01*
X4667801Y-600650D02*
X4705896Y-600650D01*
X4705896Y-600650D02*
X4724944Y-610174D01*
X4724944Y-610174D02*
X4734468Y-629222D01*
X4734468Y-629222D02*
X4734468Y-648270D01*
X4734468Y-648270D02*
X4639230Y-667317D01*
X4810658Y-724460D02*
X4829706Y-733984D01*
X4829706Y-733984D02*
X4867801Y-733984D01*
X4867801Y-733984D02*
X4886849Y-724460D01*
X4886849Y-724460D02*
X4896373Y-705412D01*
X4896373Y-705412D02*
X4896373Y-695889D01*
X4896373Y-695889D02*
X4886849Y-676841D01*
X4886849Y-676841D02*
X4867801Y-667317D01*
X4867801Y-667317D02*
X4839230Y-667317D01*
X4839230Y-667317D02*
X4820182Y-657793D01*
X4820182Y-657793D02*
X4810658Y-638746D01*
X4810658Y-638746D02*
X4810658Y-629222D01*
X4810658Y-629222D02*
X4820182Y-610174D01*
X4820182Y-610174D02*
X4839230Y-600650D01*
X4839230Y-600650D02*
X4867801Y-600650D01*
X4867801Y-600650D02*
X4886849Y-610174D01*
X4963039Y-810174D02*
X4972563Y-800650D01*
X4972563Y-800650D02*
X4991611Y-772079D01*
X4991611Y-772079D02*
X5001134Y-753031D01*
X5001134Y-753031D02*
X5010658Y-724460D01*
X5010658Y-724460D02*
X5020182Y-676841D01*
X5020182Y-676841D02*
X5020182Y-638746D01*
X5020182Y-638746D02*
X5010658Y-591127D01*
X5010658Y-591127D02*
X5001134Y-562555D01*
X5001134Y-562555D02*
X4991611Y-543508D01*
X4991611Y-543508D02*
X4972563Y-514936D01*
X4972563Y-514936D02*
X4963039Y-505412D01*
X5324944Y-810174D02*
X5315420Y-800650D01*
X5315420Y-800650D02*
X5296373Y-772079D01*
X5296373Y-772079D02*
X5286849Y-753031D01*
X5286849Y-753031D02*
X5277325Y-724460D01*
X5277325Y-724460D02*
X5267801Y-676841D01*
X5267801Y-676841D02*
X5267801Y-638746D01*
X5267801Y-638746D02*
X5277325Y-591127D01*
X5277325Y-591127D02*
X5286849Y-562555D01*
X5286849Y-562555D02*
X5296373Y-543508D01*
X5296373Y-543508D02*
X5315420Y-514936D01*
X5315420Y-514936D02*
X5324944Y-505412D01*
X5401134Y-600650D02*
X5401134Y-733984D01*
X5401134Y-619698D02*
X5410658Y-610174D01*
X5410658Y-610174D02*
X5429706Y-600650D01*
X5429706Y-600650D02*
X5458277Y-600650D01*
X5458277Y-600650D02*
X5477325Y-610174D01*
X5477325Y-610174D02*
X5486849Y-629222D01*
X5486849Y-629222D02*
X5486849Y-733984D01*
X5610658Y-733984D02*
X5591611Y-724460D01*
X5591611Y-724460D02*
X5582087Y-714936D01*
X5582087Y-714936D02*
X5572563Y-695889D01*
X5572563Y-695889D02*
X5572563Y-638746D01*
X5572563Y-638746D02*
X5582087Y-619698D01*
X5582087Y-619698D02*
X5591611Y-610174D01*
X5591611Y-610174D02*
X5610658Y-600650D01*
X5610658Y-600650D02*
X5639230Y-600650D01*
X5639230Y-600650D02*
X5658277Y-610174D01*
X5658277Y-610174D02*
X5667801Y-619698D01*
X5667801Y-619698D02*
X5677325Y-638746D01*
X5677325Y-638746D02*
X5677325Y-695889D01*
X5677325Y-695889D02*
X5667801Y-714936D01*
X5667801Y-714936D02*
X5658277Y-724460D01*
X5658277Y-724460D02*
X5639230Y-733984D01*
X5639230Y-733984D02*
X5610658Y-733984D01*
X5734468Y-600650D02*
X5810658Y-600650D01*
X5763039Y-533984D02*
X5763039Y-705412D01*
X5763039Y-705412D02*
X5772563Y-724460D01*
X5772563Y-724460D02*
X5791611Y-733984D01*
X5791611Y-733984D02*
X5810658Y-733984D01*
X6029706Y-600650D02*
X6029706Y-800650D01*
X6029706Y-610174D02*
X6048753Y-600650D01*
X6048753Y-600650D02*
X6086849Y-600650D01*
X6086849Y-600650D02*
X6105896Y-610174D01*
X6105896Y-610174D02*
X6115420Y-619698D01*
X6115420Y-619698D02*
X6124944Y-638746D01*
X6124944Y-638746D02*
X6124944Y-695889D01*
X6124944Y-695889D02*
X6115420Y-714936D01*
X6115420Y-714936D02*
X6105896Y-724460D01*
X6105896Y-724460D02*
X6086849Y-733984D01*
X6086849Y-733984D02*
X6048753Y-733984D01*
X6048753Y-733984D02*
X6029706Y-724460D01*
X6239230Y-733984D02*
X6220182Y-724460D01*
X6220182Y-724460D02*
X6210658Y-705412D01*
X6210658Y-705412D02*
X6210658Y-533984D01*
X6401134Y-733984D02*
X6401134Y-629222D01*
X6401134Y-629222D02*
X6391611Y-610174D01*
X6391611Y-610174D02*
X6372563Y-600650D01*
X6372563Y-600650D02*
X6334468Y-600650D01*
X6334468Y-600650D02*
X6315420Y-610174D01*
X6401134Y-724460D02*
X6382087Y-733984D01*
X6382087Y-733984D02*
X6334468Y-733984D01*
X6334468Y-733984D02*
X6315420Y-724460D01*
X6315420Y-724460D02*
X6305896Y-705412D01*
X6305896Y-705412D02*
X6305896Y-686365D01*
X6305896Y-686365D02*
X6315420Y-667317D01*
X6315420Y-667317D02*
X6334468Y-657793D01*
X6334468Y-657793D02*
X6382087Y-657793D01*
X6382087Y-657793D02*
X6401134Y-648270D01*
X6467801Y-600650D02*
X6543992Y-600650D01*
X6496373Y-533984D02*
X6496373Y-705412D01*
X6496373Y-705412D02*
X6505896Y-724460D01*
X6505896Y-724460D02*
X6524944Y-733984D01*
X6524944Y-733984D02*
X6543992Y-733984D01*
X6686849Y-724460D02*
X6667801Y-733984D01*
X6667801Y-733984D02*
X6629706Y-733984D01*
X6629706Y-733984D02*
X6610658Y-724460D01*
X6610658Y-724460D02*
X6601134Y-705412D01*
X6601134Y-705412D02*
X6601134Y-629222D01*
X6601134Y-629222D02*
X6610658Y-610174D01*
X6610658Y-610174D02*
X6629706Y-600650D01*
X6629706Y-600650D02*
X6667801Y-600650D01*
X6667801Y-600650D02*
X6686849Y-610174D01*
X6686849Y-610174D02*
X6696373Y-629222D01*
X6696373Y-629222D02*
X6696373Y-648270D01*
X6696373Y-648270D02*
X6601134Y-667317D01*
X6867801Y-733984D02*
X6867801Y-533984D01*
X6867801Y-724460D02*
X6848754Y-733984D01*
X6848754Y-733984D02*
X6810658Y-733984D01*
X6810658Y-733984D02*
X6791611Y-724460D01*
X6791611Y-724460D02*
X6782087Y-714936D01*
X6782087Y-714936D02*
X6772563Y-695889D01*
X6772563Y-695889D02*
X6772563Y-638746D01*
X6772563Y-638746D02*
X6782087Y-619698D01*
X6782087Y-619698D02*
X6791611Y-610174D01*
X6791611Y-610174D02*
X6810658Y-600650D01*
X6810658Y-600650D02*
X6848754Y-600650D01*
X6848754Y-600650D02*
X6867801Y-610174D01*
X6943992Y-810174D02*
X6953515Y-800650D01*
X6953515Y-800650D02*
X6972563Y-772079D01*
X6972563Y-772079D02*
X6982087Y-753031D01*
X6982087Y-753031D02*
X6991611Y-724460D01*
X6991611Y-724460D02*
X7001134Y-676841D01*
X7001134Y-676841D02*
X7001134Y-638746D01*
X7001134Y-638746D02*
X6991611Y-591127D01*
X6991611Y-591127D02*
X6982087Y-562555D01*
X6982087Y-562555D02*
X6972563Y-543508D01*
X6972563Y-543508D02*
X6953515Y-514936D01*
X6953515Y-514936D02*
X6943992Y-505412D01*
M02*
