%TF.GenerationSoftware,KiCad,Pcbnew,10.99.0-3671-gbe90a7e200*%
%TF.CreationDate,2026-09-10T00:06:02+01:00*%
%TF.ProjectId,kicad_file,6b696361-645f-4666-996c-652e6b696361,rev?*%
%TF.SameCoordinates,Original*%
%TF.FileFunction,Profile,NP*%
%FSLAX46Y46*%
G04 Gerber Fmt 4.6, Leading zero omitted, Abs format (unit mm)*
G04 Created by KiCad (PCBNEW 10.99.0-3671-gbe90a7e200) date 2026-09-10 00:06:02*
%MOMM*%
%LPD*%
G01*
G04 APERTURE LIST*
%TA.AperFunction,Profile*%
%ADD10C,0.050000*%
%TD*%
%TA.AperFunction,Profile*%
%ADD11C,0.025400*%
%TD*%
G04 APERTURE END LIST*
D10*
X0Y48895000D02*
G75*
G02*
X5080000Y53975000I5080002J-2D01*
G01*
X0Y5080000D02*
X0Y48895000D01*
X5080000Y53975000D02*
X22606000Y53975000D01*
X5080000Y0D02*
G75*
G02*
X0Y5080000I0J5080000D01*
G01*
D11*
X7302500Y11430000D02*
G75*
G02*
X3238500Y11430000I-2032000J0D01*
G01*
X3238500Y11430000D02*
G75*
G02*
X7302500Y11430000I2032000J0D01*
G01*
D10*
X20574000Y37719000D02*
X20574000Y34290000D01*
X20574000Y34290000D02*
X27432000Y34290000D01*
X21463000Y12319000D02*
X64262000Y12319000D01*
X21463000Y6731000D02*
X21463000Y12319000D01*
X22606000Y53975000D02*
X24257000Y52324000D01*
X24257000Y52324000D02*
X33528000Y52324000D01*
X27432000Y37719000D02*
X20574000Y37719000D01*
X27432000Y34290000D02*
X27432000Y37719000D01*
X33528000Y52324000D02*
X35306000Y54102000D01*
X35306000Y54102000D02*
X80645000Y53975000D01*
X40386000Y5588000D02*
X45212000Y5588000D01*
X40386000Y3048000D02*
X40386000Y5588000D01*
X45212000Y5588000D02*
X45212000Y3048000D01*
X45212000Y3048000D02*
X40386000Y3048000D01*
X51562000Y50292000D02*
X51562000Y49276000D01*
X51562000Y50292000D02*
G75*
G02*
X52832000Y51562000I1270000J0D01*
G01*
X52832000Y48006000D02*
G75*
G02*
X51562000Y49276000I0J1270000D01*
G01*
X52832000Y48006000D02*
X53594000Y48006000D01*
X53594000Y51562000D02*
X52832000Y51562000D01*
X53594000Y51562000D02*
G75*
G02*
X54864000Y50292000I0J-1270000D01*
G01*
X54864000Y49276000D02*
G75*
G02*
X53594000Y48006000I-1270000J0D01*
G01*
X54864000Y49276000D02*
X54864000Y50292000D01*
X64262000Y12319000D02*
X64262000Y6731000D01*
X64262000Y6731000D02*
X21463000Y6731000D01*
D11*
X82486500Y27940000D02*
G75*
G02*
X78422500Y27940000I-2032000J0D01*
G01*
X78422500Y27940000D02*
G75*
G02*
X82486500Y27940000I2032000J0D01*
G01*
X82486500Y19558000D02*
G75*
G02*
X78422500Y19558000I-2032000J0D01*
G01*
X78422500Y19558000D02*
G75*
G02*
X82486500Y19558000I2032000J0D01*
G01*
X82486500Y11430000D02*
G75*
G02*
X78422500Y11430000I-2032000J0D01*
G01*
X78422500Y11430000D02*
G75*
G02*
X82486500Y11430000I2032000J0D01*
G01*
D10*
X80645000Y53975000D02*
G75*
G02*
X85725000Y48895000I0J-5080000D01*
G01*
X80645000Y0D02*
X5080000Y0D01*
X85725000Y48895000D02*
X85725000Y5080000D01*
X85725000Y5080000D02*
G75*
G02*
X80645000Y0I-5080000J0D01*
G01*
M02*
