M48
; DRILL file KiCad 10.99.0-3671-gbe90a7e200 date 2026-09-09T23:02:33
; FORMAT={-:-/ absolute / metric / decimal}
; #@! TF.CreationDate,2026-09-09T23:02:33+01:00
; #@! TF.GenerationSoftware,Kicad,Pcbnew,10.99.0-3671-gbe90a7e200
; #@! TF.FileFunction,Plated,1,2,PTH
FMAT,2
METRIC
; #@! TA.AperFunction,Plated,PTH,ComponentDrill
T1C1.000
; #@! TA.AperFunction,Plated,PTH,ComponentDrill
T2C1.400
; #@! TA.AperFunction,Plated,PTH,ComponentDrill
T3C2.500
%
G90
G05
T1
X-10.16Y-18.415
X-7.62Y-18.415
X-5.08Y-18.415
X-2.54Y-18.415
X0.0Y-18.415
X2.54Y-18.415
X5.08Y-18.415
X7.62Y-18.415
X10.16Y-18.415
T2
X-16.15Y3.606
X-7.75Y-15.104
X-6.548Y-6.548
X-3.253Y16.08
X-1.11Y1.11
X6.548Y6.548
X6.548Y-6.548
X7.75Y15.104
X16.15Y-3.606
T3
X-15.24Y15.24
X-15.24Y-15.24
X15.24Y15.24
X15.24Y-15.24
M30
