ISO-10303-21;
HEADER;
FILE_DESCRIPTION(('KiCad electronic assembly'),'2;1');
FILE_NAME('model.step','1970-01-01T00:00:00',('Pcbnew'),('Kicad'),
  'Open CASCADE STEP processor 7.9','KiCad to STEP converter','Unknown'
  );
FILE_SCHEMA(('AUTOMOTIVE_DESIGN { 1 0 10303 214 1 1 1 1 }'));
ENDSEC;
DATA;
#1 = APPLICATION_PROTOCOL_DEFINITION('international standard',
  'automotive_design',2000,#2);
#2 = APPLICATION_CONTEXT(
  'core data for automotive mechanical design processes');
#3 = SHAPE_DEFINITION_REPRESENTATION(#4,#10);
#4 = PRODUCT_DEFINITION_SHAPE('','',#5);
#5 = PRODUCT_DEFINITION('design','',#6,#9);
#6 = PRODUCT_DEFINITION_FORMATION('','',#7);
#7 = PRODUCT('model 1','model 1','',(#8));
#8 = PRODUCT_CONTEXT('',#2,'mechanical');
#9 = PRODUCT_DEFINITION_CONTEXT('part definition',#2,'design');
#10 = SHAPE_REPRESENTATION('',(#11,#15,#19),#23);
#11 = AXIS2_PLACEMENT_3D('',#12,#13,#14);
#12 = CARTESIAN_POINT('',(0.,0.,0.));
#13 = DIRECTION('',(0.,0.,1.));
#14 = DIRECTION('',(1.,0.,-0.));
#15 = AXIS2_PLACEMENT_3D('',#16,#17,#18);
#16 = CARTESIAN_POINT('',(0.,0.,0.));
#17 = DIRECTION('',(0.,0.,1.));
#18 = DIRECTION('',(1.,0.,-0.));
#19 = AXIS2_PLACEMENT_3D('',#20,#21,#22);
#20 = CARTESIAN_POINT('',(0.,0.,0.));
#21 = DIRECTION('',(0.,0.,1.));
#22 = DIRECTION('',(1.,0.,-0.));
#23 = ( GEOMETRIC_REPRESENTATION_CONTEXT(3) 
GLOBAL_UNCERTAINTY_ASSIGNED_CONTEXT((#27)) GLOBAL_UNIT_ASSIGNED_CONTEXT(
(#24,#25,#26)) REPRESENTATION_CONTEXT('Context #1',
  '3D Context with UNIT and UNCERTAINTY') );
#24 = ( LENGTH_UNIT() NAMED_UNIT(*) SI_UNIT(.MILLI.,.METRE.) );
#25 = ( NAMED_UNIT(*) PLANE_ANGLE_UNIT() SI_UNIT($,.RADIAN.) );
#26 = ( NAMED_UNIT(*) SI_UNIT($,.STERADIAN.) SOLID_ANGLE_UNIT() );
#27 = UNCERTAINTY_MEASURE_WITH_UNIT(LENGTH_MEASURE(1.E-07),#24,
  'distance_accuracy_value','confusion accuracy');
#28 = PRODUCT_RELATED_PRODUCT_CATEGORY('part',$,(#7));
#29 = SHAPE_DEFINITION_REPRESENTATION(#30,#36);
#30 = PRODUCT_DEFINITION_SHAPE('','',#31);
#31 = PRODUCT_DEFINITION('design','',#32,#35);
#32 = PRODUCT_DEFINITION_FORMATION('','',#33);
#33 = PRODUCT('electronic_diode_esd_0402_littelfuse_pesd0402_render_pad'
  ,'electronic_diode_esd_0402_littelfuse_pesd0402_render_pad','',(#34));
#34 = PRODUCT_CONTEXT('',#2,'mechanical');
#35 = PRODUCT_DEFINITION_CONTEXT('part definition',#2,'design');
#36 = SHAPE_REPRESENTATION('',(#11,#37,#327),#617);
#37 = MANIFOLD_SOLID_BREP('',#38);
#38 = CLOSED_SHELL('',(#39,#81,#112,#145,#176,#209,#240,#273,#295,#311)
  );
#39 = ADVANCED_FACE('',(#40),#76,.T.);
#40 = FACE_BOUND('',#41,.T.);
#41 = EDGE_LOOP('',(#42,#52,#61,#69));
#42 = ORIENTED_EDGE('',*,*,#43,.T.);
#43 = EDGE_CURVE('',#44,#46,#48,.T.);
#44 = VERTEX_POINT('',#45);
#45 = CARTESIAN_POINT('',(-0.78,0.1725,1.51));
#46 = VERTEX_POINT('',#47);
#47 = CARTESIAN_POINT('',(-0.78,0.1725,1.55));
#48 = LINE('',#49,#50);
#49 = CARTESIAN_POINT('',(-0.78,0.1725,1.51));
#50 = VECTOR('',#51,1.);
#51 = DIRECTION('',(0.,0.,1.));
#52 = ORIENTED_EDGE('',*,*,#53,.T.);
#53 = EDGE_CURVE('',#46,#54,#56,.T.);
#54 = VERTEX_POINT('',#55);
#55 = CARTESIAN_POINT('',(-0.6325,0.32,1.55));
#56 = CIRCLE('',#57,0.14750085433);
#57 = AXIS2_PLACEMENT_3D('',#58,#59,#60);
#58 = CARTESIAN_POINT('',(-0.632499145672,0.172499145672,1.55));
#59 = DIRECTION('',(0.,0.,-1.));
#60 = DIRECTION('',(-0.999999999983,5.792018084146E-06,0.));
#61 = ORIENTED_EDGE('',*,*,#62,.F.);
#62 = EDGE_CURVE('',#63,#54,#65,.T.);
#63 = VERTEX_POINT('',#64);
#64 = CARTESIAN_POINT('',(-0.6325,0.32,1.51));
#65 = LINE('',#66,#67);
#66 = CARTESIAN_POINT('',(-0.6325,0.32,1.51));
#67 = VECTOR('',#68,1.);
#68 = DIRECTION('',(0.,0.,1.));
#69 = ORIENTED_EDGE('',*,*,#70,.F.);
#70 = EDGE_CURVE('',#44,#63,#71,.T.);
#71 = CIRCLE('',#72,0.14750085433);
#72 = AXIS2_PLACEMENT_3D('',#73,#74,#75);
#73 = CARTESIAN_POINT('',(-0.632499145672,0.172499145672,1.51));
#74 = DIRECTION('',(0.,0.,-1.));
#75 = DIRECTION('',(-0.999999999983,5.792018084146E-06,0.));
#76 = CYLINDRICAL_SURFACE('',#77,0.14750085433);
#77 = AXIS2_PLACEMENT_3D('',#78,#79,#80);
#78 = CARTESIAN_POINT('',(-0.632499145672,0.172499145672,1.51));
#79 = DIRECTION('',(0.,0.,-1.));
#80 = DIRECTION('',(-0.999999999983,5.792018084146E-06,0.));
#81 = ADVANCED_FACE('',(#82),#107,.T.);
#82 = FACE_BOUND('',#83,.T.);
#83 = EDGE_LOOP('',(#84,#85,#93,#101));
#84 = ORIENTED_EDGE('',*,*,#62,.T.);
#85 = ORIENTED_EDGE('',*,*,#86,.T.);
#86 = EDGE_CURVE('',#54,#87,#89,.T.);
#87 = VERTEX_POINT('',#88);
#88 = CARTESIAN_POINT('',(-0.3375,0.32,1.55));
#89 = LINE('',#90,#91);
#90 = CARTESIAN_POINT('',(-0.6325,0.32,1.55));
#91 = VECTOR('',#92,1.);
#92 = DIRECTION('',(1.,0.,0.));
#93 = ORIENTED_EDGE('',*,*,#94,.F.);
#94 = EDGE_CURVE('',#95,#87,#97,.T.);
#95 = VERTEX_POINT('',#96);
#96 = CARTESIAN_POINT('',(-0.3375,0.32,1.51));
#97 = LINE('',#98,#99);
#98 = CARTESIAN_POINT('',(-0.3375,0.32,1.51));
#99 = VECTOR('',#100,1.);
#100 = DIRECTION('',(0.,0.,1.));
#101 = ORIENTED_EDGE('',*,*,#102,.F.);
#102 = EDGE_CURVE('',#63,#95,#103,.T.);
#103 = LINE('',#104,#105);
#104 = CARTESIAN_POINT('',(-0.6325,0.32,1.51));
#105 = VECTOR('',#106,1.);
#106 = DIRECTION('',(1.,0.,0.));
#107 = PLANE('',#108);
#108 = AXIS2_PLACEMENT_3D('',#109,#110,#111);
#109 = CARTESIAN_POINT('',(-0.6325,0.32,1.51));
#110 = DIRECTION('',(0.,1.,0.));
#111 = DIRECTION('',(1.,0.,0.));
#112 = ADVANCED_FACE('',(#113),#140,.T.);
#113 = FACE_BOUND('',#114,.T.);
#114 = EDGE_LOOP('',(#115,#116,#125,#133));
#115 = ORIENTED_EDGE('',*,*,#94,.T.);
#116 = ORIENTED_EDGE('',*,*,#117,.T.);
#117 = EDGE_CURVE('',#87,#118,#120,.T.);
#118 = VERTEX_POINT('',#119);
#119 = CARTESIAN_POINT('',(-0.19,0.1725,1.55));
#120 = CIRCLE('',#121,0.14750085433);
#121 = AXIS2_PLACEMENT_3D('',#122,#123,#124);
#122 = CARTESIAN_POINT('',(-0.337500854328,0.172499145672,1.55));
#123 = DIRECTION('',(0.,0.,-1.));
#124 = DIRECTION('',(5.79201808377E-06,0.999999999983,0.));
#125 = ORIENTED_EDGE('',*,*,#126,.F.);
#126 = EDGE_CURVE('',#127,#118,#129,.T.);
#127 = VERTEX_POINT('',#128);
#128 = CARTESIAN_POINT('',(-0.19,0.1725,1.51));
#129 = LINE('',#130,#131);
#130 = CARTESIAN_POINT('',(-0.19,0.1725,1.51));
#131 = VECTOR('',#132,1.);
#132 = DIRECTION('',(0.,0.,1.));
#133 = ORIENTED_EDGE('',*,*,#134,.F.);
#134 = EDGE_CURVE('',#95,#127,#135,.T.);
#135 = CIRCLE('',#136,0.14750085433);
#136 = AXIS2_PLACEMENT_3D('',#137,#138,#139);
#137 = CARTESIAN_POINT('',(-0.337500854328,0.172499145672,1.51));
#138 = DIRECTION('',(0.,0.,-1.));
#139 = DIRECTION('',(5.79201808377E-06,0.999999999983,0.));
#140 = CYLINDRICAL_SURFACE('',#141,0.14750085433);
#141 = AXIS2_PLACEMENT_3D('',#142,#143,#144);
#142 = CARTESIAN_POINT('',(-0.337500854328,0.172499145672,1.51));
#143 = DIRECTION('',(0.,0.,-1.));
#144 = DIRECTION('',(5.79201808377E-06,0.999999999983,0.));
#145 = ADVANCED_FACE('',(#146),#171,.T.);
#146 = FACE_BOUND('',#147,.T.);
#147 = EDGE_LOOP('',(#148,#149,#157,#165));
#148 = ORIENTED_EDGE('',*,*,#126,.T.);
#149 = ORIENTED_EDGE('',*,*,#150,.T.);
#150 = EDGE_CURVE('',#118,#151,#153,.T.);
#151 = VERTEX_POINT('',#152);
#152 = CARTESIAN_POINT('',(-0.19,-0.1725,1.55));
#153 = LINE('',#154,#155);
#154 = CARTESIAN_POINT('',(-0.19,0.1725,1.55));
#155 = VECTOR('',#156,1.);
#156 = DIRECTION('',(0.,-1.,0.));
#157 = ORIENTED_EDGE('',*,*,#158,.F.);
#158 = EDGE_CURVE('',#159,#151,#161,.T.);
#159 = VERTEX_POINT('',#160);
#160 = CARTESIAN_POINT('',(-0.19,-0.1725,1.51));
#161 = LINE('',#162,#163);
#162 = CARTESIAN_POINT('',(-0.19,-0.1725,1.51));
#163 = VECTOR('',#164,1.);
#164 = DIRECTION('',(0.,0.,1.));
#165 = ORIENTED_EDGE('',*,*,#166,.F.);
#166 = EDGE_CURVE('',#127,#159,#167,.T.);
#167 = LINE('',#168,#169);
#168 = CARTESIAN_POINT('',(-0.19,0.1725,1.51));
#169 = VECTOR('',#170,1.);
#170 = DIRECTION('',(0.,-1.,0.));
#171 = PLANE('',#172);
#172 = AXIS2_PLACEMENT_3D('',#173,#174,#175);
#173 = CARTESIAN_POINT('',(-0.19,0.1725,1.51));
#174 = DIRECTION('',(1.,0.,-0.));
#175 = DIRECTION('',(0.,-1.,0.));
#176 = ADVANCED_FACE('',(#177),#204,.T.);
#177 = FACE_BOUND('',#178,.T.);
#178 = EDGE_LOOP('',(#179,#180,#189,#197));
#179 = ORIENTED_EDGE('',*,*,#158,.T.);
#180 = ORIENTED_EDGE('',*,*,#181,.T.);
#181 = EDGE_CURVE('',#151,#182,#184,.T.);
#182 = VERTEX_POINT('',#183);
#183 = CARTESIAN_POINT('',(-0.3375,-0.32,1.55));
#184 = CIRCLE('',#185,0.14750085433);
#185 = AXIS2_PLACEMENT_3D('',#186,#187,#188);
#186 = CARTESIAN_POINT('',(-0.337500854328,-0.172499145672,1.55));
#187 = DIRECTION('',(0.,0.,-1.));
#188 = DIRECTION('',(0.999999999983,-5.792018083394E-06,0.));
#189 = ORIENTED_EDGE('',*,*,#190,.F.);
#190 = EDGE_CURVE('',#191,#182,#193,.T.);
#191 = VERTEX_POINT('',#192);
#192 = CARTESIAN_POINT('',(-0.3375,-0.32,1.51));
#193 = LINE('',#194,#195);
#194 = CARTESIAN_POINT('',(-0.3375,-0.32,1.51));
#195 = VECTOR('',#196,1.);
#196 = DIRECTION('',(0.,0.,1.));
#197 = ORIENTED_EDGE('',*,*,#198,.F.);
#198 = EDGE_CURVE('',#159,#191,#199,.T.);
#199 = CIRCLE('',#200,0.14750085433);
#200 = AXIS2_PLACEMENT_3D('',#201,#202,#203);
#201 = CARTESIAN_POINT('',(-0.337500854328,-0.172499145672,1.51));
#202 = DIRECTION('',(0.,0.,-1.));
#203 = DIRECTION('',(0.999999999983,-5.792018083394E-06,0.));
#204 = CYLINDRICAL_SURFACE('',#205,0.14750085433);
#205 = AXIS2_PLACEMENT_3D('',#206,#207,#208);
#206 = CARTESIAN_POINT('',(-0.337500854328,-0.172499145672,1.51));
#207 = DIRECTION('',(0.,0.,-1.));
#208 = DIRECTION('',(0.999999999983,-5.792018083394E-06,0.));
#209 = ADVANCED_FACE('',(#210),#235,.T.);
#210 = FACE_BOUND('',#211,.T.);
#211 = EDGE_LOOP('',(#212,#213,#221,#229));
#212 = ORIENTED_EDGE('',*,*,#190,.T.);
#213 = ORIENTED_EDGE('',*,*,#214,.T.);
#214 = EDGE_CURVE('',#182,#215,#217,.T.);
#215 = VERTEX_POINT('',#216);
#216 = CARTESIAN_POINT('',(-0.6325,-0.32,1.55));
#217 = LINE('',#218,#219);
#218 = CARTESIAN_POINT('',(-0.3375,-0.32,1.55));
#219 = VECTOR('',#220,1.);
#220 = DIRECTION('',(-1.,0.,0.));
#221 = ORIENTED_EDGE('',*,*,#222,.F.);
#222 = EDGE_CURVE('',#223,#215,#225,.T.);
#223 = VERTEX_POINT('',#224);
#224 = CARTESIAN_POINT('',(-0.6325,-0.32,1.51));
#225 = LINE('',#226,#227);
#226 = CARTESIAN_POINT('',(-0.6325,-0.32,1.51));
#227 = VECTOR('',#228,1.);
#228 = DIRECTION('',(0.,0.,1.));
#229 = ORIENTED_EDGE('',*,*,#230,.F.);
#230 = EDGE_CURVE('',#191,#223,#231,.T.);
#231 = LINE('',#232,#233);
#232 = CARTESIAN_POINT('',(-0.3375,-0.32,1.51));
#233 = VECTOR('',#234,1.);
#234 = DIRECTION('',(-1.,0.,0.));
#235 = PLANE('',#236);
#236 = AXIS2_PLACEMENT_3D('',#237,#238,#239);
#237 = CARTESIAN_POINT('',(-0.3375,-0.32,1.51));
#238 = DIRECTION('',(0.,-1.,0.));
#239 = DIRECTION('',(-1.,0.,0.));
#240 = ADVANCED_FACE('',(#241),#268,.T.);
#241 = FACE_BOUND('',#242,.T.);
#242 = EDGE_LOOP('',(#243,#244,#253,#261));
#243 = ORIENTED_EDGE('',*,*,#222,.T.);
#244 = ORIENTED_EDGE('',*,*,#245,.T.);
#245 = EDGE_CURVE('',#215,#246,#248,.T.);
#246 = VERTEX_POINT('',#247);
#247 = CARTESIAN_POINT('',(-0.78,-0.1725,1.55));
#248 = CIRCLE('',#249,0.14750085433);
#249 = AXIS2_PLACEMENT_3D('',#250,#251,#252);
#250 = CARTESIAN_POINT('',(-0.632499145672,-0.172499145672,1.55));
#251 = DIRECTION('',(0.,0.,-1.));
#252 = DIRECTION('',(-5.79201808377E-06,-0.999999999983,-0.));
#253 = ORIENTED_EDGE('',*,*,#254,.F.);
#254 = EDGE_CURVE('',#255,#246,#257,.T.);
#255 = VERTEX_POINT('',#256);
#256 = CARTESIAN_POINT('',(-0.78,-0.1725,1.51));
#257 = LINE('',#258,#259);
#258 = CARTESIAN_POINT('',(-0.78,-0.1725,1.51));
#259 = VECTOR('',#260,1.);
#260 = DIRECTION('',(0.,0.,1.));
#261 = ORIENTED_EDGE('',*,*,#262,.F.);
#262 = EDGE_CURVE('',#223,#255,#263,.T.);
#263 = CIRCLE('',#264,0.14750085433);
#264 = AXIS2_PLACEMENT_3D('',#265,#266,#267);
#265 = CARTESIAN_POINT('',(-0.632499145672,-0.172499145672,1.51));
#266 = DIRECTION('',(0.,0.,-1.));
#267 = DIRECTION('',(-5.79201808377E-06,-0.999999999983,-0.));
#268 = CYLINDRICAL_SURFACE('',#269,0.14750085433);
#269 = AXIS2_PLACEMENT_3D('',#270,#271,#272);
#270 = CARTESIAN_POINT('',(-0.632499145672,-0.172499145672,1.51));
#271 = DIRECTION('',(0.,0.,-1.));
#272 = DIRECTION('',(-5.79201808377E-06,-0.999999999983,-0.));
#273 = ADVANCED_FACE('',(#274),#290,.T.);
#274 = FACE_BOUND('',#275,.T.);
#275 = EDGE_LOOP('',(#276,#277,#283,#284));
#276 = ORIENTED_EDGE('',*,*,#254,.T.);
#277 = ORIENTED_EDGE('',*,*,#278,.T.);
#278 = EDGE_CURVE('',#246,#46,#279,.T.);
#279 = LINE('',#280,#281);
#280 = CARTESIAN_POINT('',(-0.78,-0.1725,1.55));
#281 = VECTOR('',#282,1.);
#282 = DIRECTION('',(0.,1.,0.));
#283 = ORIENTED_EDGE('',*,*,#43,.F.);
#284 = ORIENTED_EDGE('',*,*,#285,.F.);
#285 = EDGE_CURVE('',#255,#44,#286,.T.);
#286 = LINE('',#287,#288);
#287 = CARTESIAN_POINT('',(-0.78,-0.1725,1.51));
#288 = VECTOR('',#289,1.);
#289 = DIRECTION('',(0.,1.,0.));
#290 = PLANE('',#291);
#291 = AXIS2_PLACEMENT_3D('',#292,#293,#294);
#292 = CARTESIAN_POINT('',(-0.78,-0.1725,1.51));
#293 = DIRECTION('',(-1.,0.,0.));
#294 = DIRECTION('',(0.,1.,0.));
#295 = ADVANCED_FACE('',(#296),#306,.F.);
#296 = FACE_BOUND('',#297,.T.);
#297 = EDGE_LOOP('',(#298,#299,#300,#301,#302,#303,#304,#305));
#298 = ORIENTED_EDGE('',*,*,#70,.T.);
#299 = ORIENTED_EDGE('',*,*,#102,.T.);
#300 = ORIENTED_EDGE('',*,*,#134,.T.);
#301 = ORIENTED_EDGE('',*,*,#166,.T.);
#302 = ORIENTED_EDGE('',*,*,#198,.T.);
#303 = ORIENTED_EDGE('',*,*,#230,.T.);
#304 = ORIENTED_EDGE('',*,*,#262,.T.);
#305 = ORIENTED_EDGE('',*,*,#285,.T.);
#306 = PLANE('',#307);
#307 = AXIS2_PLACEMENT_3D('',#308,#309,#310);
#308 = CARTESIAN_POINT('',(0.,0.,1.51));
#309 = DIRECTION('',(0.,0.,1.));
#310 = DIRECTION('',(1.,0.,-0.));
#311 = ADVANCED_FACE('',(#312),#322,.T.);
#312 = FACE_BOUND('',#313,.F.);
#313 = EDGE_LOOP('',(#314,#315,#316,#317,#318,#319,#320,#321));
#314 = ORIENTED_EDGE('',*,*,#53,.T.);
#315 = ORIENTED_EDGE('',*,*,#86,.T.);
#316 = ORIENTED_EDGE('',*,*,#117,.T.);
#317 = ORIENTED_EDGE('',*,*,#150,.T.);
#318 = ORIENTED_EDGE('',*,*,#181,.T.);
#319 = ORIENTED_EDGE('',*,*,#214,.T.);
#320 = ORIENTED_EDGE('',*,*,#245,.T.);
#321 = ORIENTED_EDGE('',*,*,#278,.T.);
#322 = PLANE('',#323);
#323 = AXIS2_PLACEMENT_3D('',#324,#325,#326);
#324 = CARTESIAN_POINT('',(0.,0.,1.55));
#325 = DIRECTION('',(0.,0.,1.));
#326 = DIRECTION('',(1.,0.,-0.));
#327 = MANIFOLD_SOLID_BREP('',#328);
#328 = CLOSED_SHELL('',(#329,#371,#402,#435,#466,#499,#530,#563,#585,
    #601));
#329 = ADVANCED_FACE('',(#330),#366,.T.);
#330 = FACE_BOUND('',#331,.T.);
#331 = EDGE_LOOP('',(#332,#342,#351,#359));
#332 = ORIENTED_EDGE('',*,*,#333,.T.);
#333 = EDGE_CURVE('',#334,#336,#338,.T.);
#334 = VERTEX_POINT('',#335);
#335 = CARTESIAN_POINT('',(0.19,0.1725,1.51));
#336 = VERTEX_POINT('',#337);
#337 = CARTESIAN_POINT('',(0.19,0.1725,1.55));
#338 = LINE('',#339,#340);
#339 = CARTESIAN_POINT('',(0.19,0.1725,1.51));
#340 = VECTOR('',#341,1.);
#341 = DIRECTION('',(0.,0.,1.));
#342 = ORIENTED_EDGE('',*,*,#343,.T.);
#343 = EDGE_CURVE('',#336,#344,#346,.T.);
#344 = VERTEX_POINT('',#345);
#345 = CARTESIAN_POINT('',(0.3375,0.32,1.55));
#346 = CIRCLE('',#347,0.14750085433);
#347 = AXIS2_PLACEMENT_3D('',#348,#349,#350);
#348 = CARTESIAN_POINT('',(0.337500854328,0.172499145672,1.55));
#349 = DIRECTION('',(0.,0.,-1.));
#350 = DIRECTION('',(-0.999999999983,5.792018083394E-06,0.));
#351 = ORIENTED_EDGE('',*,*,#352,.F.);
#352 = EDGE_CURVE('',#353,#344,#355,.T.);
#353 = VERTEX_POINT('',#354);
#354 = CARTESIAN_POINT('',(0.3375,0.32,1.51));
#355 = LINE('',#356,#357);
#356 = CARTESIAN_POINT('',(0.3375,0.32,1.51));
#357 = VECTOR('',#358,1.);
#358 = DIRECTION('',(0.,0.,1.));
#359 = ORIENTED_EDGE('',*,*,#360,.F.);
#360 = EDGE_CURVE('',#334,#353,#361,.T.);
#361 = CIRCLE('',#362,0.14750085433);
#362 = AXIS2_PLACEMENT_3D('',#363,#364,#365);
#363 = CARTESIAN_POINT('',(0.337500854328,0.172499145672,1.51));
#364 = DIRECTION('',(0.,0.,-1.));
#365 = DIRECTION('',(-0.999999999983,5.792018083394E-06,0.));
#366 = CYLINDRICAL_SURFACE('',#367,0.14750085433);
#367 = AXIS2_PLACEMENT_3D('',#368,#369,#370);
#368 = CARTESIAN_POINT('',(0.337500854328,0.172499145672,1.51));
#369 = DIRECTION('',(0.,0.,-1.));
#370 = DIRECTION('',(-0.999999999983,5.792018083394E-06,0.));
#371 = ADVANCED_FACE('',(#372),#397,.T.);
#372 = FACE_BOUND('',#373,.T.);
#373 = EDGE_LOOP('',(#374,#375,#383,#391));
#374 = ORIENTED_EDGE('',*,*,#352,.T.);
#375 = ORIENTED_EDGE('',*,*,#376,.T.);
#376 = EDGE_CURVE('',#344,#377,#379,.T.);
#377 = VERTEX_POINT('',#378);
#378 = CARTESIAN_POINT('',(0.6325,0.32,1.55));
#379 = LINE('',#380,#381);
#380 = CARTESIAN_POINT('',(0.3375,0.32,1.55));
#381 = VECTOR('',#382,1.);
#382 = DIRECTION('',(1.,0.,0.));
#383 = ORIENTED_EDGE('',*,*,#384,.F.);
#384 = EDGE_CURVE('',#385,#377,#387,.T.);
#385 = VERTEX_POINT('',#386);
#386 = CARTESIAN_POINT('',(0.6325,0.32,1.51));
#387 = LINE('',#388,#389);
#388 = CARTESIAN_POINT('',(0.6325,0.32,1.51));
#389 = VECTOR('',#390,1.);
#390 = DIRECTION('',(0.,0.,1.));
#391 = ORIENTED_EDGE('',*,*,#392,.F.);
#392 = EDGE_CURVE('',#353,#385,#393,.T.);
#393 = LINE('',#394,#395);
#394 = CARTESIAN_POINT('',(0.3375,0.32,1.51));
#395 = VECTOR('',#396,1.);
#396 = DIRECTION('',(1.,0.,0.));
#397 = PLANE('',#398);
#398 = AXIS2_PLACEMENT_3D('',#399,#400,#401);
#399 = CARTESIAN_POINT('',(0.3375,0.32,1.51));
#400 = DIRECTION('',(0.,1.,0.));
#401 = DIRECTION('',(1.,0.,0.));
#402 = ADVANCED_FACE('',(#403),#430,.T.);
#403 = FACE_BOUND('',#404,.T.);
#404 = EDGE_LOOP('',(#405,#406,#415,#423));
#405 = ORIENTED_EDGE('',*,*,#384,.T.);
#406 = ORIENTED_EDGE('',*,*,#407,.T.);
#407 = EDGE_CURVE('',#377,#408,#410,.T.);
#408 = VERTEX_POINT('',#409);
#409 = CARTESIAN_POINT('',(0.78,0.1725,1.55));
#410 = CIRCLE('',#411,0.14750085433);
#411 = AXIS2_PLACEMENT_3D('',#412,#413,#414);
#412 = CARTESIAN_POINT('',(0.632499145672,0.172499145672,1.55));
#413 = DIRECTION('',(0.,0.,-1.));
#414 = DIRECTION('',(5.79201808377E-06,0.999999999983,0.));
#415 = ORIENTED_EDGE('',*,*,#416,.F.);
#416 = EDGE_CURVE('',#417,#408,#419,.T.);
#417 = VERTEX_POINT('',#418);
#418 = CARTESIAN_POINT('',(0.78,0.1725,1.51));
#419 = LINE('',#420,#421);
#420 = CARTESIAN_POINT('',(0.78,0.1725,1.51));
#421 = VECTOR('',#422,1.);
#422 = DIRECTION('',(0.,0.,1.));
#423 = ORIENTED_EDGE('',*,*,#424,.F.);
#424 = EDGE_CURVE('',#385,#417,#425,.T.);
#425 = CIRCLE('',#426,0.14750085433);
#426 = AXIS2_PLACEMENT_3D('',#427,#428,#429);
#427 = CARTESIAN_POINT('',(0.632499145672,0.172499145672,1.51));
#428 = DIRECTION('',(0.,0.,-1.));
#429 = DIRECTION('',(5.79201808377E-06,0.999999999983,0.));
#430 = CYLINDRICAL_SURFACE('',#431,0.14750085433);
#431 = AXIS2_PLACEMENT_3D('',#432,#433,#434);
#432 = CARTESIAN_POINT('',(0.632499145672,0.172499145672,1.51));
#433 = DIRECTION('',(0.,0.,-1.));
#434 = DIRECTION('',(5.79201808377E-06,0.999999999983,0.));
#435 = ADVANCED_FACE('',(#436),#461,.T.);
#436 = FACE_BOUND('',#437,.T.);
#437 = EDGE_LOOP('',(#438,#439,#447,#455));
#438 = ORIENTED_EDGE('',*,*,#416,.T.);
#439 = ORIENTED_EDGE('',*,*,#440,.T.);
#440 = EDGE_CURVE('',#408,#441,#443,.T.);
#441 = VERTEX_POINT('',#442);
#442 = CARTESIAN_POINT('',(0.78,-0.1725,1.55));
#443 = LINE('',#444,#445);
#444 = CARTESIAN_POINT('',(0.78,0.1725,1.55));
#445 = VECTOR('',#446,1.);
#446 = DIRECTION('',(0.,-1.,0.));
#447 = ORIENTED_EDGE('',*,*,#448,.F.);
#448 = EDGE_CURVE('',#449,#441,#451,.T.);
#449 = VERTEX_POINT('',#450);
#450 = CARTESIAN_POINT('',(0.78,-0.1725,1.51));
#451 = LINE('',#452,#453);
#452 = CARTESIAN_POINT('',(0.78,-0.1725,1.51));
#453 = VECTOR('',#454,1.);
#454 = DIRECTION('',(0.,0.,1.));
#455 = ORIENTED_EDGE('',*,*,#456,.F.);
#456 = EDGE_CURVE('',#417,#449,#457,.T.);
#457 = LINE('',#458,#459);
#458 = CARTESIAN_POINT('',(0.78,0.1725,1.51));
#459 = VECTOR('',#460,1.);
#460 = DIRECTION('',(0.,-1.,0.));
#461 = PLANE('',#462);
#462 = AXIS2_PLACEMENT_3D('',#463,#464,#465);
#463 = CARTESIAN_POINT('',(0.78,0.1725,1.51));
#464 = DIRECTION('',(1.,0.,-0.));
#465 = DIRECTION('',(0.,-1.,0.));
#466 = ADVANCED_FACE('',(#467),#494,.T.);
#467 = FACE_BOUND('',#468,.T.);
#468 = EDGE_LOOP('',(#469,#470,#479,#487));
#469 = ORIENTED_EDGE('',*,*,#448,.T.);
#470 = ORIENTED_EDGE('',*,*,#471,.T.);
#471 = EDGE_CURVE('',#441,#472,#474,.T.);
#472 = VERTEX_POINT('',#473);
#473 = CARTESIAN_POINT('',(0.6325,-0.32,1.55));
#474 = CIRCLE('',#475,0.14750085433);
#475 = AXIS2_PLACEMENT_3D('',#476,#477,#478);
#476 = CARTESIAN_POINT('',(0.632499145672,-0.172499145672,1.55));
#477 = DIRECTION('',(0.,0.,-1.));
#478 = DIRECTION('',(0.999999999983,-5.792018084146E-06,0.));
#479 = ORIENTED_EDGE('',*,*,#480,.F.);
#480 = EDGE_CURVE('',#481,#472,#483,.T.);
#481 = VERTEX_POINT('',#482);
#482 = CARTESIAN_POINT('',(0.6325,-0.32,1.51));
#483 = LINE('',#484,#485);
#484 = CARTESIAN_POINT('',(0.6325,-0.32,1.51));
#485 = VECTOR('',#486,1.);
#486 = DIRECTION('',(0.,0.,1.));
#487 = ORIENTED_EDGE('',*,*,#488,.F.);
#488 = EDGE_CURVE('',#449,#481,#489,.T.);
#489 = CIRCLE('',#490,0.14750085433);
#490 = AXIS2_PLACEMENT_3D('',#491,#492,#493);
#491 = CARTESIAN_POINT('',(0.632499145672,-0.172499145672,1.51));
#492 = DIRECTION('',(0.,0.,-1.));
#493 = DIRECTION('',(0.999999999983,-5.792018084146E-06,0.));
#494 = CYLINDRICAL_SURFACE('',#495,0.14750085433);
#495 = AXIS2_PLACEMENT_3D('',#496,#497,#498);
#496 = CARTESIAN_POINT('',(0.632499145672,-0.172499145672,1.51));
#497 = DIRECTION('',(0.,0.,-1.));
#498 = DIRECTION('',(0.999999999983,-5.792018084146E-06,0.));
#499 = ADVANCED_FACE('',(#500),#525,.T.);
#500 = FACE_BOUND('',#501,.T.);
#501 = EDGE_LOOP('',(#502,#503,#511,#519));
#502 = ORIENTED_EDGE('',*,*,#480,.T.);
#503 = ORIENTED_EDGE('',*,*,#504,.T.);
#504 = EDGE_CURVE('',#472,#505,#507,.T.);
#505 = VERTEX_POINT('',#506);
#506 = CARTESIAN_POINT('',(0.3375,-0.32,1.55));
#507 = LINE('',#508,#509);
#508 = CARTESIAN_POINT('',(0.6325,-0.32,1.55));
#509 = VECTOR('',#510,1.);
#510 = DIRECTION('',(-1.,0.,0.));
#511 = ORIENTED_EDGE('',*,*,#512,.F.);
#512 = EDGE_CURVE('',#513,#505,#515,.T.);
#513 = VERTEX_POINT('',#514);
#514 = CARTESIAN_POINT('',(0.3375,-0.32,1.51));
#515 = LINE('',#516,#517);
#516 = CARTESIAN_POINT('',(0.3375,-0.32,1.51));
#517 = VECTOR('',#518,1.);
#518 = DIRECTION('',(0.,0.,1.));
#519 = ORIENTED_EDGE('',*,*,#520,.F.);
#520 = EDGE_CURVE('',#481,#513,#521,.T.);
#521 = LINE('',#522,#523);
#522 = CARTESIAN_POINT('',(0.6325,-0.32,1.51));
#523 = VECTOR('',#524,1.);
#524 = DIRECTION('',(-1.,0.,0.));
#525 = PLANE('',#526);
#526 = AXIS2_PLACEMENT_3D('',#527,#528,#529);
#527 = CARTESIAN_POINT('',(0.6325,-0.32,1.51));
#528 = DIRECTION('',(0.,-1.,0.));
#529 = DIRECTION('',(-1.,0.,0.));
#530 = ADVANCED_FACE('',(#531),#558,.T.);
#531 = FACE_BOUND('',#532,.T.);
#532 = EDGE_LOOP('',(#533,#534,#543,#551));
#533 = ORIENTED_EDGE('',*,*,#512,.T.);
#534 = ORIENTED_EDGE('',*,*,#535,.T.);
#535 = EDGE_CURVE('',#505,#536,#538,.T.);
#536 = VERTEX_POINT('',#537);
#537 = CARTESIAN_POINT('',(0.19,-0.1725,1.55));
#538 = CIRCLE('',#539,0.14750085433);
#539 = AXIS2_PLACEMENT_3D('',#540,#541,#542);
#540 = CARTESIAN_POINT('',(0.337500854328,-0.172499145672,1.55));
#541 = DIRECTION('',(0.,0.,-1.));
#542 = DIRECTION('',(-5.79201808377E-06,-0.999999999983,-0.));
#543 = ORIENTED_EDGE('',*,*,#544,.F.);
#544 = EDGE_CURVE('',#545,#536,#547,.T.);
#545 = VERTEX_POINT('',#546);
#546 = CARTESIAN_POINT('',(0.19,-0.1725,1.51));
#547 = LINE('',#548,#549);
#548 = CARTESIAN_POINT('',(0.19,-0.1725,1.51));
#549 = VECTOR('',#550,1.);
#550 = DIRECTION('',(0.,0.,1.));
#551 = ORIENTED_EDGE('',*,*,#552,.F.);
#552 = EDGE_CURVE('',#513,#545,#553,.T.);
#553 = CIRCLE('',#554,0.14750085433);
#554 = AXIS2_PLACEMENT_3D('',#555,#556,#557);
#555 = CARTESIAN_POINT('',(0.337500854328,-0.172499145672,1.51));
#556 = DIRECTION('',(0.,0.,-1.));
#557 = DIRECTION('',(-5.79201808377E-06,-0.999999999983,-0.));
#558 = CYLINDRICAL_SURFACE('',#559,0.14750085433);
#559 = AXIS2_PLACEMENT_3D('',#560,#561,#562);
#560 = CARTESIAN_POINT('',(0.337500854328,-0.172499145672,1.51));
#561 = DIRECTION('',(0.,0.,-1.));
#562 = DIRECTION('',(-5.79201808377E-06,-0.999999999983,-0.));
#563 = ADVANCED_FACE('',(#564),#580,.T.);
#564 = FACE_BOUND('',#565,.T.);
#565 = EDGE_LOOP('',(#566,#567,#573,#574));
#566 = ORIENTED_EDGE('',*,*,#544,.T.);
#567 = ORIENTED_EDGE('',*,*,#568,.T.);
#568 = EDGE_CURVE('',#536,#336,#569,.T.);
#569 = LINE('',#570,#571);
#570 = CARTESIAN_POINT('',(0.19,-0.1725,1.55));
#571 = VECTOR('',#572,1.);
#572 = DIRECTION('',(0.,1.,0.));
#573 = ORIENTED_EDGE('',*,*,#333,.F.);
#574 = ORIENTED_EDGE('',*,*,#575,.F.);
#575 = EDGE_CURVE('',#545,#334,#576,.T.);
#576 = LINE('',#577,#578);
#577 = CARTESIAN_POINT('',(0.19,-0.1725,1.51));
#578 = VECTOR('',#579,1.);
#579 = DIRECTION('',(0.,1.,0.));
#580 = PLANE('',#581);
#581 = AXIS2_PLACEMENT_3D('',#582,#583,#584);
#582 = CARTESIAN_POINT('',(0.19,-0.1725,1.51));
#583 = DIRECTION('',(-1.,0.,0.));
#584 = DIRECTION('',(0.,1.,0.));
#585 = ADVANCED_FACE('',(#586),#596,.F.);
#586 = FACE_BOUND('',#587,.T.);
#587 = EDGE_LOOP('',(#588,#589,#590,#591,#592,#593,#594,#595));
#588 = ORIENTED_EDGE('',*,*,#360,.T.);
#589 = ORIENTED_EDGE('',*,*,#392,.T.);
#590 = ORIENTED_EDGE('',*,*,#424,.T.);
#591 = ORIENTED_EDGE('',*,*,#456,.T.);
#592 = ORIENTED_EDGE('',*,*,#488,.T.);
#593 = ORIENTED_EDGE('',*,*,#520,.T.);
#594 = ORIENTED_EDGE('',*,*,#552,.T.);
#595 = ORIENTED_EDGE('',*,*,#575,.T.);
#596 = PLANE('',#597);
#597 = AXIS2_PLACEMENT_3D('',#598,#599,#600);
#598 = CARTESIAN_POINT('',(0.,0.,1.51));
#599 = DIRECTION('',(0.,0.,1.));
#600 = DIRECTION('',(1.,0.,-0.));
#601 = ADVANCED_FACE('',(#602),#612,.T.);
#602 = FACE_BOUND('',#603,.F.);
#603 = EDGE_LOOP('',(#604,#605,#606,#607,#608,#609,#610,#611));
#604 = ORIENTED_EDGE('',*,*,#343,.T.);
#605 = ORIENTED_EDGE('',*,*,#376,.T.);
#606 = ORIENTED_EDGE('',*,*,#407,.T.);
#607 = ORIENTED_EDGE('',*,*,#440,.T.);
#608 = ORIENTED_EDGE('',*,*,#471,.T.);
#609 = ORIENTED_EDGE('',*,*,#504,.T.);
#610 = ORIENTED_EDGE('',*,*,#535,.T.);
#611 = ORIENTED_EDGE('',*,*,#568,.T.);
#612 = PLANE('',#613);
#613 = AXIS2_PLACEMENT_3D('',#614,#615,#616);
#614 = CARTESIAN_POINT('',(0.,0.,1.55));
#615 = DIRECTION('',(0.,0.,1.));
#616 = DIRECTION('',(1.,0.,-0.));
#617 = ( GEOMETRIC_REPRESENTATION_CONTEXT(3) 
GLOBAL_UNCERTAINTY_ASSIGNED_CONTEXT((#621)) GLOBAL_UNIT_ASSIGNED_CONTEXT
((#618,#619,#620)) REPRESENTATION_CONTEXT('Context #1',
  '3D Context with UNIT and UNCERTAINTY') );
#618 = ( LENGTH_UNIT() NAMED_UNIT(*) SI_UNIT(.MILLI.,.METRE.) );
#619 = ( NAMED_UNIT(*) PLANE_ANGLE_UNIT() SI_UNIT($,.RADIAN.) );
#620 = ( NAMED_UNIT(*) SI_UNIT($,.STERADIAN.) SOLID_ANGLE_UNIT() );
#621 = UNCERTAINTY_MEASURE_WITH_UNIT(LENGTH_MEASURE(1.E-07),#618,
  'distance_accuracy_value','confusion accuracy');
#622 = CONTEXT_DEPENDENT_SHAPE_REPRESENTATION(#623,#625);
#623 = ( REPRESENTATION_RELATIONSHIP('','',#36,#10) 
REPRESENTATION_RELATIONSHIP_WITH_TRANSFORMATION(#624) 
SHAPE_REPRESENTATION_RELATIONSHIP() );
#624 = ITEM_DEFINED_TRANSFORMATION('','',#11,#15);
#625 = PRODUCT_DEFINITION_SHAPE('Placement','Placement of an item',#626
  );
#626 = NEXT_ASSEMBLY_USAGE_OCCURRENCE('1','=>[0:1:1:2]','',#5,#31,$);
#627 = PRODUCT_RELATED_PRODUCT_CATEGORY('part',$,(#33));
#628 = SHAPE_DEFINITION_REPRESENTATION(#629,#635);
#629 = PRODUCT_DEFINITION_SHAPE('','',#630);
#630 = PRODUCT_DEFINITION('design','',#631,#634);
#631 = PRODUCT_DEFINITION_FORMATION('','',#632);
#632 = PRODUCT(
  'electronic_diode_esd_0402_littelfuse_pesd0402_render_PCB',
  'electronic_diode_esd_0402_littelfuse_pesd0402_render_PCB','',(#633));
#633 = PRODUCT_CONTEXT('',#2,'mechanical');
#634 = PRODUCT_DEFINITION_CONTEXT('part definition',#2,'design');
#635 = ADVANCED_BREP_SHAPE_REPRESENTATION('',(#11,#636),#786);
#636 = MANIFOLD_SOLID_BREP('',#637);
#637 = CLOSED_SHELL('',(#638,#678,#709,#740,#762,#774));
#638 = ADVANCED_FACE('',(#639),#673,.T.);
#639 = FACE_BOUND('',#640,.T.);
#640 = EDGE_LOOP('',(#641,#651,#659,#667));
#641 = ORIENTED_EDGE('',*,*,#642,.T.);
#642 = EDGE_CURVE('',#643,#645,#647,.T.);
#643 = VERTEX_POINT('',#644);
#644 = CARTESIAN_POINT('',(2.93,-2.47,0.));
#645 = VERTEX_POINT('',#646);
#646 = CARTESIAN_POINT('',(2.93,-2.47,1.51));
#647 = LINE('',#648,#649);
#648 = CARTESIAN_POINT('',(2.93,-2.47,0.));
#649 = VECTOR('',#650,1.);
#650 = DIRECTION('',(0.,0.,1.));
#651 = ORIENTED_EDGE('',*,*,#652,.T.);
#652 = EDGE_CURVE('',#645,#653,#655,.T.);
#653 = VERTEX_POINT('',#654);
#654 = CARTESIAN_POINT('',(-2.93,-2.47,1.51));
#655 = LINE('',#656,#657);
#656 = CARTESIAN_POINT('',(2.93,-2.47,1.51));
#657 = VECTOR('',#658,1.);
#658 = DIRECTION('',(-1.,0.,0.));
#659 = ORIENTED_EDGE('',*,*,#660,.F.);
#660 = EDGE_CURVE('',#661,#653,#663,.T.);
#661 = VERTEX_POINT('',#662);
#662 = CARTESIAN_POINT('',(-2.93,-2.47,0.));
#663 = LINE('',#664,#665);
#664 = CARTESIAN_POINT('',(-2.93,-2.47,0.));
#665 = VECTOR('',#666,1.);
#666 = DIRECTION('',(0.,0.,1.));
#667 = ORIENTED_EDGE('',*,*,#668,.F.);
#668 = EDGE_CURVE('',#643,#661,#669,.T.);
#669 = LINE('',#670,#671);
#670 = CARTESIAN_POINT('',(2.93,-2.47,0.));
#671 = VECTOR('',#672,1.);
#672 = DIRECTION('',(-1.,0.,0.));
#673 = PLANE('',#674);
#674 = AXIS2_PLACEMENT_3D('',#675,#676,#677);
#675 = CARTESIAN_POINT('',(2.93,-2.47,0.));
#676 = DIRECTION('',(0.,-1.,0.));
#677 = DIRECTION('',(-1.,0.,0.));
#678 = ADVANCED_FACE('',(#679),#704,.T.);
#679 = FACE_BOUND('',#680,.T.);
#680 = EDGE_LOOP('',(#681,#682,#690,#698));
#681 = ORIENTED_EDGE('',*,*,#660,.T.);
#682 = ORIENTED_EDGE('',*,*,#683,.T.);
#683 = EDGE_CURVE('',#653,#684,#686,.T.);
#684 = VERTEX_POINT('',#685);
#685 = CARTESIAN_POINT('',(-2.93,2.47,1.51));
#686 = LINE('',#687,#688);
#687 = CARTESIAN_POINT('',(-2.93,-2.47,1.51));
#688 = VECTOR('',#689,1.);
#689 = DIRECTION('',(0.,1.,0.));
#690 = ORIENTED_EDGE('',*,*,#691,.F.);
#691 = EDGE_CURVE('',#692,#684,#694,.T.);
#692 = VERTEX_POINT('',#693);
#693 = CARTESIAN_POINT('',(-2.93,2.47,0.));
#694 = LINE('',#695,#696);
#695 = CARTESIAN_POINT('',(-2.93,2.47,0.));
#696 = VECTOR('',#697,1.);
#697 = DIRECTION('',(0.,0.,1.));
#698 = ORIENTED_EDGE('',*,*,#699,.F.);
#699 = EDGE_CURVE('',#661,#692,#700,.T.);
#700 = LINE('',#701,#702);
#701 = CARTESIAN_POINT('',(-2.93,-2.47,0.));
#702 = VECTOR('',#703,1.);
#703 = DIRECTION('',(0.,1.,0.));
#704 = PLANE('',#705);
#705 = AXIS2_PLACEMENT_3D('',#706,#707,#708);
#706 = CARTESIAN_POINT('',(-2.93,-2.47,0.));
#707 = DIRECTION('',(-1.,0.,0.));
#708 = DIRECTION('',(0.,1.,0.));
#709 = ADVANCED_FACE('',(#710),#735,.T.);
#710 = FACE_BOUND('',#711,.T.);
#711 = EDGE_LOOP('',(#712,#713,#721,#729));
#712 = ORIENTED_EDGE('',*,*,#691,.T.);
#713 = ORIENTED_EDGE('',*,*,#714,.T.);
#714 = EDGE_CURVE('',#684,#715,#717,.T.);
#715 = VERTEX_POINT('',#716);
#716 = CARTESIAN_POINT('',(2.93,2.47,1.51));
#717 = LINE('',#718,#719);
#718 = CARTESIAN_POINT('',(-2.93,2.47,1.51));
#719 = VECTOR('',#720,1.);
#720 = DIRECTION('',(1.,0.,0.));
#721 = ORIENTED_EDGE('',*,*,#722,.F.);
#722 = EDGE_CURVE('',#723,#715,#725,.T.);
#723 = VERTEX_POINT('',#724);
#724 = CARTESIAN_POINT('',(2.93,2.47,0.));
#725 = LINE('',#726,#727);
#726 = CARTESIAN_POINT('',(2.93,2.47,0.));
#727 = VECTOR('',#728,1.);
#728 = DIRECTION('',(0.,0.,1.));
#729 = ORIENTED_EDGE('',*,*,#730,.F.);
#730 = EDGE_CURVE('',#692,#723,#731,.T.);
#731 = LINE('',#732,#733);
#732 = CARTESIAN_POINT('',(-2.93,2.47,0.));
#733 = VECTOR('',#734,1.);
#734 = DIRECTION('',(1.,0.,0.));
#735 = PLANE('',#736);
#736 = AXIS2_PLACEMENT_3D('',#737,#738,#739);
#737 = CARTESIAN_POINT('',(-2.93,2.47,0.));
#738 = DIRECTION('',(0.,1.,0.));
#739 = DIRECTION('',(1.,0.,0.));
#740 = ADVANCED_FACE('',(#741),#757,.T.);
#741 = FACE_BOUND('',#742,.T.);
#742 = EDGE_LOOP('',(#743,#744,#750,#751));
#743 = ORIENTED_EDGE('',*,*,#722,.T.);
#744 = ORIENTED_EDGE('',*,*,#745,.T.);
#745 = EDGE_CURVE('',#715,#645,#746,.T.);
#746 = LINE('',#747,#748);
#747 = CARTESIAN_POINT('',(2.93,2.47,1.51));
#748 = VECTOR('',#749,1.);
#749 = DIRECTION('',(0.,-1.,0.));
#750 = ORIENTED_EDGE('',*,*,#642,.F.);
#751 = ORIENTED_EDGE('',*,*,#752,.F.);
#752 = EDGE_CURVE('',#723,#643,#753,.T.);
#753 = LINE('',#754,#755);
#754 = CARTESIAN_POINT('',(2.93,2.47,0.));
#755 = VECTOR('',#756,1.);
#756 = DIRECTION('',(0.,-1.,0.));
#757 = PLANE('',#758);
#758 = AXIS2_PLACEMENT_3D('',#759,#760,#761);
#759 = CARTESIAN_POINT('',(2.93,2.47,0.));
#760 = DIRECTION('',(1.,0.,-0.));
#761 = DIRECTION('',(0.,-1.,0.));
#762 = ADVANCED_FACE('',(#763),#769,.F.);
#763 = FACE_BOUND('',#764,.T.);
#764 = EDGE_LOOP('',(#765,#766,#767,#768));
#765 = ORIENTED_EDGE('',*,*,#668,.T.);
#766 = ORIENTED_EDGE('',*,*,#699,.T.);
#767 = ORIENTED_EDGE('',*,*,#730,.T.);
#768 = ORIENTED_EDGE('',*,*,#752,.T.);
#769 = PLANE('',#770);
#770 = AXIS2_PLACEMENT_3D('',#771,#772,#773);
#771 = CARTESIAN_POINT('',(0.,0.,0.));
#772 = DIRECTION('',(0.,0.,1.));
#773 = DIRECTION('',(1.,0.,-0.));
#774 = ADVANCED_FACE('',(#775),#781,.T.);
#775 = FACE_BOUND('',#776,.F.);
#776 = EDGE_LOOP('',(#777,#778,#779,#780));
#777 = ORIENTED_EDGE('',*,*,#652,.T.);
#778 = ORIENTED_EDGE('',*,*,#683,.T.);
#779 = ORIENTED_EDGE('',*,*,#714,.T.);
#780 = ORIENTED_EDGE('',*,*,#745,.T.);
#781 = PLANE('',#782);
#782 = AXIS2_PLACEMENT_3D('',#783,#784,#785);
#783 = CARTESIAN_POINT('',(0.,0.,1.51));
#784 = DIRECTION('',(0.,0.,1.));
#785 = DIRECTION('',(1.,0.,-0.));
#786 = ( GEOMETRIC_REPRESENTATION_CONTEXT(3) 
GLOBAL_UNCERTAINTY_ASSIGNED_CONTEXT((#790)) GLOBAL_UNIT_ASSIGNED_CONTEXT
((#787,#788,#789)) REPRESENTATION_CONTEXT('Context #1',
  '3D Context with UNIT and UNCERTAINTY') );
#787 = ( LENGTH_UNIT() NAMED_UNIT(*) SI_UNIT(.MILLI.,.METRE.) );
#788 = ( NAMED_UNIT(*) PLANE_ANGLE_UNIT() SI_UNIT($,.RADIAN.) );
#789 = ( NAMED_UNIT(*) SI_UNIT($,.STERADIAN.) SOLID_ANGLE_UNIT() );
#790 = UNCERTAINTY_MEASURE_WITH_UNIT(LENGTH_MEASURE(1.E-07),#787,
  'distance_accuracy_value','confusion accuracy');
#791 = CONTEXT_DEPENDENT_SHAPE_REPRESENTATION(#792,#794);
#792 = ( REPRESENTATION_RELATIONSHIP('','',#635,#10) 
REPRESENTATION_RELATIONSHIP_WITH_TRANSFORMATION(#793) 
SHAPE_REPRESENTATION_RELATIONSHIP() );
#793 = ITEM_DEFINED_TRANSFORMATION('','',#11,#19);
#794 = PRODUCT_DEFINITION_SHAPE('Placement','Placement of an item',#795
  );
#795 = NEXT_ASSEMBLY_USAGE_OCCURRENCE('2','=>[0:1:1:3]','',#5,#630,$);
#796 = PRODUCT_RELATED_PRODUCT_CATEGORY('part',$,(#632));
#797 = MECHANICAL_DESIGN_GEOMETRIC_PRESENTATION_REPRESENTATION('',(#798,
    #806),#617);
#798 = STYLED_ITEM('color',(#799),#37);
#799 = PRESENTATION_STYLE_ASSIGNMENT((#800));
#800 = SURFACE_STYLE_USAGE(.BOTH.,#801);
#801 = SURFACE_SIDE_STYLE('',(#802));
#802 = SURFACE_STYLE_FILL_AREA(#803);
#803 = FILL_AREA_STYLE('',(#804));
#804 = FILL_AREA_STYLE_COLOUR('',#805);
#805 = COLOUR_RGB('',0.735356983052,0.735356983052,0.735356983052);
#806 = STYLED_ITEM('color',(#807),#327);
#807 = PRESENTATION_STYLE_ASSIGNMENT((#808));
#808 = SURFACE_STYLE_USAGE(.BOTH.,#809);
#809 = SURFACE_SIDE_STYLE('',(#810));
#810 = SURFACE_STYLE_FILL_AREA(#811);
#811 = FILL_AREA_STYLE('',(#812));
#812 = FILL_AREA_STYLE_COLOUR('',#805);
#813 = MECHANICAL_DESIGN_GEOMETRIC_PRESENTATION_REPRESENTATION('',(#814)
  ,#786);
#814 = STYLED_ITEM('color',(#815),#636);
#815 = PRESENTATION_STYLE_ASSIGNMENT((#816));
#816 = SURFACE_STYLE_USAGE(.BOTH.,#817);
#817 = SURFACE_SIDE_STYLE('',(#818));
#818 = SURFACE_STYLE_FILL_AREA(#819);
#819 = FILL_AREA_STYLE('',(#820));
#820 = FILL_AREA_STYLE_COLOUR('',#821);
#821 = COLOUR_RGB('',0.313304153717,0.484529207832,0.410020903123);
ENDSEC;
END-ISO-10303-21;
