M48
; DRILL file KiCad 10.99.0-3671-gbe90a7e200 date 2026-09-09T23:25:45
; FORMAT={-:-/ absolute / metric / decimal}
; #@! TF.CreationDate,2026-09-09T23:25:45+01:00
; #@! TF.GenerationSoftware,Kicad,Pcbnew,10.99.0-3671-gbe90a7e200
; #@! TF.FileFunction,Plated,1,16,PTH
FMAT,2
METRIC
; #@! TA.AperFunction,Plated,PTH,ViaDrill
T1C0.394
; #@! TA.AperFunction,Plated,PTH,ViaDrill
T2C0.500
; #@! TA.AperFunction,Plated,PTH,ComponentDrill
T3C1.000
; #@! TA.AperFunction,Plated,PTH,ComponentDrill
T4C1.500
%
G90
G05
T1
X5.08Y13.843
X5.207Y9.144
X7.62Y4.191
X13.716Y19.812
T2
X8.763Y7.195
X11.811Y13.081
X12.065Y14.859
T3
X1.27Y17.97
X1.27Y15.43
X1.27Y12.89
X1.27Y10.351
X1.27Y7.81
X1.27Y5.271
X1.27Y2.73
X16.51Y17.97
X16.51Y15.43
X16.51Y12.89
X16.51Y10.351
X16.51Y7.81
X16.51Y5.271
X16.51Y2.73
T4
X-0.33Y17.97
X-0.33Y15.43
X-0.33Y12.89
X-0.33Y10.351
X-0.33Y7.81
X-0.33Y5.271
X-0.33Y2.73
X18.11Y17.97
X18.11Y15.43
X18.11Y12.89
X18.11Y10.351
X18.11Y7.81
X18.11Y5.271
X18.11Y2.73
M30
