M48
; DRILL file KiCad 10.99.0-3671-gbe90a7e200 date 2026-09-10T00:44:29
; FORMAT={-:-/ absolute / metric / decimal}
; #@! TF.CreationDate,2026-09-10T00:44:29+01:00
; #@! TF.GenerationSoftware,Kicad,Pcbnew,10.99.0-3671-gbe90a7e200
; #@! TF.FileFunction,Plated,1,2,PTH
FMAT,2
METRIC
; #@! TA.AperFunction,Plated,PTH,ViaDrill
T1C0.500
; #@! TA.AperFunction,Plated,PTH,ComponentDrill
T2C0.800
; #@! TA.AperFunction,Plated,PTH,ComponentDrill
T3C1.016
; #@! TA.AperFunction,Plated,PTH,ComponentDrill
T4C2.500
%
G90
G05
T1
X9.906Y9.906
X9.906Y4.064
X15.113Y9.652
X15.113Y8.382
X15.113Y6.858
X15.113Y5.334
X15.113Y3.81
X15.113Y2.286
X15.113Y1.016
X15.24Y11.43
X18.796Y8.001
X21.399Y4.572
X22.669Y4.572
X22.987Y7.112
X24.257Y7.62
X26.797Y9.017
X28.067Y9.017
X29.337Y9.017
X30.607Y9.017
X30.607Y3.302
X34.671Y3.048
T2
X41.987Y9.95
X42.087Y2.75
X44.527Y9.95
X44.627Y2.75
X47.067Y9.95
X47.167Y2.75
X49.607Y9.95
X49.707Y2.75
X52.147Y9.95
X52.247Y2.75
X54.687Y9.95
X54.787Y2.75
X57.227Y9.95
X57.327Y2.75
X72.594Y9.95
X72.694Y2.75
X75.134Y9.95
X75.234Y2.75
X77.674Y9.95
X77.774Y2.75
X80.214Y9.95
X80.314Y2.75
X82.754Y9.95
X82.854Y2.75
X85.294Y9.95
X85.394Y2.75
X87.834Y9.95
X87.934Y2.75
T3
X7.112Y10.16
X7.112Y7.62
X7.112Y5.08
X7.112Y2.54
T4
X2.54Y6.35
X97.79Y6.35
M30
