%TF.GenerationSoftware,KiCad,Pcbnew,10.99.0-3758-g2f18d95be7*%
%TF.CreationDate,2026-09-22T03:46:26+01:00*%
%TF.ProjectId,kicad_file,6b696361-645f-4666-996c-652e6b696361,rev?*%
%TF.SameCoordinates,Original*%
%TF.FileFunction,Legend,Top*%
%TF.FilePolarity,Positive*%
%FSLAX46Y46*%
G04 Gerber Fmt 4.6, Leading zero omitted, Abs format (unit mm)*
G04 Created by KiCad (PCBNEW 10.99.0-3758-g2f18d95be7) date 2026-09-22 03:46:26*
%MOMM*%
%LPD*%
G01*
G04 APERTURE LIST*
G04 Aperture macros list*
%AMRoundRect*
0 Rectangle with rounded corners*
0 $1 Rounding radius*
0 $2 $3 $4 $5 $6 $7 $8 $9 X,Y pos of 4 corners*
0 Add a 4 corners polygon primitive as box body*
4,1,4,$2,$3,$4,$5,$6,$7,$8,$9,$2,$3,0*
0 Add four circle primitives for the rounded corners*
1,1,$1+$1,$2,$3*
1,1,$1+$1,$4,$5*
1,1,$1+$1,$6,$7*
1,1,$1+$1,$8,$9*
0 Add four rect primitives between the rounded corners*
20,1,$1+$1,$2,$3,$4,$5,0*
20,1,$1+$1,$4,$5,$6,$7,0*
20,1,$1+$1,$6,$7,$8,$9,0*
20,1,$1+$1,$8,$9,$2,$3,0*%
G04 Aperture macros list end*
%ADD10C,0.081280*%
%ADD11C,0.127000*%
%ADD12C,0.000000*%
%ADD13C,2.800000*%
%ADD14RoundRect,0.101600X-0.150000X0.625000X-0.150000X-0.625000X0.150000X-0.625000X0.150000X0.625000X0*%
%ADD15RoundRect,0.101600X-0.925000X1.300000X-0.925000X-1.300000X0.925000X-1.300000X0.925000X1.300000X0*%
%ADD16C,1.981200*%
G04 APERTURE END LIST*
D10*
X1965004Y4101338D02*
X2588151Y3166618D01*
X2588151Y4101338D02*
X1965004Y3166618D01*
X2944235Y3522702D02*
X3656403Y3522702D01*
X4041514Y4989129D02*
X4130535Y4944618D01*
X4130535Y4944618D02*
X4308577Y4944618D01*
X4308577Y4944618D02*
X4397598Y4989129D01*
X4397598Y4989129D02*
X4442109Y5078149D01*
X4442109Y5078149D02*
X4442109Y5122660D01*
X4442109Y5122660D02*
X4397598Y5211681D01*
X4397598Y5211681D02*
X4308577Y5256191D01*
X4308577Y5256191D02*
X4175046Y5256191D01*
X4175046Y5256191D02*
X4086025Y5300702D01*
X4086025Y5300702D02*
X4041514Y5389723D01*
X4041514Y5389723D02*
X4041514Y5434233D01*
X4041514Y5434233D02*
X4086025Y5523254D01*
X4086025Y5523254D02*
X4175046Y5567765D01*
X4175046Y5567765D02*
X4308577Y5567765D01*
X4308577Y5567765D02*
X4397598Y5523254D01*
X5243297Y4989129D02*
X5154276Y4944618D01*
X5154276Y4944618D02*
X4976234Y4944618D01*
X4976234Y4944618D02*
X4887213Y4989129D01*
X4887213Y4989129D02*
X4842703Y5033639D01*
X4842703Y5033639D02*
X4798192Y5122660D01*
X4798192Y5122660D02*
X4798192Y5389723D01*
X4798192Y5389723D02*
X4842703Y5478744D01*
X4842703Y5478744D02*
X4887213Y5523254D01*
X4887213Y5523254D02*
X4976234Y5567765D01*
X4976234Y5567765D02*
X5154276Y5567765D01*
X5154276Y5567765D02*
X5243297Y5523254D01*
X5643892Y4944618D02*
X5643892Y5567765D01*
X5643892Y5389723D02*
X5688402Y5478744D01*
X5688402Y5478744D02*
X5732913Y5523254D01*
X5732913Y5523254D02*
X5821934Y5567765D01*
X5821934Y5567765D02*
X5910955Y5567765D01*
X6578612Y4989129D02*
X6489591Y4944618D01*
X6489591Y4944618D02*
X6311549Y4944618D01*
X6311549Y4944618D02*
X6222528Y4989129D01*
X6222528Y4989129D02*
X6178017Y5078149D01*
X6178017Y5078149D02*
X6178017Y5434233D01*
X6178017Y5434233D02*
X6222528Y5523254D01*
X6222528Y5523254D02*
X6311549Y5567765D01*
X6311549Y5567765D02*
X6489591Y5567765D01*
X6489591Y5567765D02*
X6578612Y5523254D01*
X6578612Y5523254D02*
X6623122Y5434233D01*
X6623122Y5434233D02*
X6623122Y5345212D01*
X6623122Y5345212D02*
X6178017Y5256191D01*
X7379801Y4989129D02*
X7290780Y4944618D01*
X7290780Y4944618D02*
X7112738Y4944618D01*
X7112738Y4944618D02*
X7023717Y4989129D01*
X7023717Y4989129D02*
X6979206Y5078149D01*
X6979206Y5078149D02*
X6979206Y5434233D01*
X6979206Y5434233D02*
X7023717Y5523254D01*
X7023717Y5523254D02*
X7112738Y5567765D01*
X7112738Y5567765D02*
X7290780Y5567765D01*
X7290780Y5567765D02*
X7379801Y5523254D01*
X7379801Y5523254D02*
X7424311Y5434233D01*
X7424311Y5434233D02*
X7424311Y5345212D01*
X7424311Y5345212D02*
X6979206Y5256191D01*
X7824906Y5567765D02*
X7824906Y4944618D01*
X7824906Y5478744D02*
X7869416Y5523254D01*
X7869416Y5523254D02*
X7958437Y5567765D01*
X7958437Y5567765D02*
X8091969Y5567765D01*
X8091969Y5567765D02*
X8180990Y5523254D01*
X8180990Y5523254D02*
X8225500Y5434233D01*
X8225500Y5434233D02*
X8225500Y4944618D01*
X4460493Y6583765D02*
X4816577Y6583765D01*
X4594025Y6895338D02*
X4594025Y6094149D01*
X4594025Y6094149D02*
X4638535Y6005129D01*
X4638535Y6005129D02*
X4727556Y5960618D01*
X4727556Y5960618D02*
X4816577Y5960618D01*
X5261682Y5960618D02*
X5172661Y6005129D01*
X5172661Y6005129D02*
X5128151Y6049639D01*
X5128151Y6049639D02*
X5083640Y6138660D01*
X5083640Y6138660D02*
X5083640Y6405723D01*
X5083640Y6405723D02*
X5128151Y6494744D01*
X5128151Y6494744D02*
X5172661Y6539254D01*
X5172661Y6539254D02*
X5261682Y6583765D01*
X5261682Y6583765D02*
X5395214Y6583765D01*
X5395214Y6583765D02*
X5484235Y6539254D01*
X5484235Y6539254D02*
X5528745Y6494744D01*
X5528745Y6494744D02*
X5573256Y6405723D01*
X5573256Y6405723D02*
X5573256Y6138660D01*
X5573256Y6138660D02*
X5528745Y6049639D01*
X5528745Y6049639D02*
X5484235Y6005129D01*
X5484235Y6005129D02*
X5395214Y5960618D01*
X5395214Y5960618D02*
X5261682Y5960618D01*
X6374444Y6583765D02*
X6374444Y5960618D01*
X5973850Y6583765D02*
X5973850Y6094149D01*
X5973850Y6094149D02*
X6018360Y6005129D01*
X6018360Y6005129D02*
X6107381Y5960618D01*
X6107381Y5960618D02*
X6240913Y5960618D01*
X6240913Y5960618D02*
X6329934Y6005129D01*
X6329934Y6005129D02*
X6374444Y6049639D01*
X7220143Y6005129D02*
X7131122Y5960618D01*
X7131122Y5960618D02*
X6953080Y5960618D01*
X6953080Y5960618D02*
X6864059Y6005129D01*
X6864059Y6005129D02*
X6819549Y6049639D01*
X6819549Y6049639D02*
X6775038Y6138660D01*
X6775038Y6138660D02*
X6775038Y6405723D01*
X6775038Y6405723D02*
X6819549Y6494744D01*
X6819549Y6494744D02*
X6864059Y6539254D01*
X6864059Y6539254D02*
X6953080Y6583765D01*
X6953080Y6583765D02*
X7131122Y6583765D01*
X7131122Y6583765D02*
X7220143Y6539254D01*
X7620738Y5960618D02*
X7620738Y6895338D01*
X8021332Y5960618D02*
X8021332Y6450233D01*
X8021332Y6450233D02*
X7976822Y6539254D01*
X7976822Y6539254D02*
X7887801Y6583765D01*
X7887801Y6583765D02*
X7754269Y6583765D01*
X7754269Y6583765D02*
X7665248Y6539254D01*
X7665248Y6539254D02*
X7620738Y6494744D01*
X4772067Y3611723D02*
X4772067Y3166618D01*
X4460493Y4101338D02*
X4772067Y3611723D01*
X4772067Y3611723D02*
X5083640Y4101338D01*
X5395214Y3522702D02*
X6107382Y3522702D01*
X5751298Y3166618D02*
X5751298Y3878786D01*
X7045004Y4101338D02*
X7668151Y3166618D01*
X7668151Y4101338D02*
X7045004Y3166618D01*
X8024235Y3522702D02*
X8736403Y3522702D01*
X8380319Y3166618D02*
X8380319Y3878786D01*
X9852067Y3611723D02*
X9852067Y3166618D01*
X9540493Y4101338D02*
X9852067Y3611723D01*
X9852067Y3611723D02*
X10163640Y4101338D01*
X10475214Y3522702D02*
X11187382Y3522702D01*
%TO.C,CN1*%
D11*
X9350000Y8558000D02*
X8800000Y8008000D01*
X9350000Y11358000D02*
X9350000Y8558000D01*
X9350000Y11358000D02*
X7900000Y11358000D01*
X9350000Y12508000D02*
X9350000Y11358000D01*
X8800000Y8008000D02*
X3600000Y8008000D01*
X7900000Y11358000D02*
X7900000Y12458000D01*
X4500000Y11358000D02*
X4500000Y12458000D01*
X3600000Y8008000D02*
X3100000Y8508000D01*
X3150000Y11358000D02*
X4500000Y11358000D01*
X3100000Y8508000D02*
X3100000Y12508000D01*
X3100000Y12508000D02*
X9350000Y12508000D01*
%TD*%
%LPC*%
D12*
%TO.C,U$3*%
G36*
X11812683Y11083880D02*
G01*
X11985570Y10991470D01*
X12137107Y10867107D01*
X12261470Y10715570D01*
X12353880Y10542683D01*
X12410785Y10355090D01*
X12430000Y10160000D01*
X12353880Y9777317D01*
X12261470Y9604430D01*
X12137107Y9452893D01*
X11985570Y9328530D01*
X11812683Y9236120D01*
X11625090Y9179215D01*
X11430000Y9160000D01*
X11047317Y9236120D01*
X10874430Y9328530D01*
X10722893Y9452893D01*
X10598530Y9604430D01*
X10506120Y9777317D01*
X10449215Y9964910D01*
X10430000Y10160000D01*
X10506120Y10542683D01*
X10598530Y10715570D01*
X10722893Y10867107D01*
X10874430Y10991470D01*
X11047317Y11083880D01*
X11234910Y11140785D01*
X11430000Y11160000D01*
X11812683Y11083880D01*
G37*
%TO.C,U$2*%
G36*
X1652683Y11083880D02*
G01*
X1825570Y10991470D01*
X1977107Y10867107D01*
X2101470Y10715570D01*
X2193880Y10542683D01*
X2250785Y10355090D01*
X2270000Y10160000D01*
X2193880Y9777317D01*
X2101470Y9604430D01*
X1977107Y9452893D01*
X1825570Y9328530D01*
X1652683Y9236120D01*
X1465090Y9179215D01*
X1270000Y9160000D01*
X887317Y9236120D01*
X714430Y9328530D01*
X562893Y9452893D01*
X438530Y9604430D01*
X346120Y9777317D01*
X289215Y9964910D01*
X270000Y10160000D01*
X346120Y10542683D01*
X438530Y10715570D01*
X562893Y10867107D01*
X714430Y10991470D01*
X887317Y11083880D01*
X1074910Y11140785D01*
X1270000Y11160000D01*
X1652683Y11083880D01*
G37*
%TD*%
D13*
%TO.C,UNK_HOLE_0*%
X2286000Y5842000D03*
%TD*%
%TO.C,UNK_HOLE_1*%
X10668000Y5842000D03*
%TD*%
D14*
%TO.C,CN1*%
X7100000Y7308000D03*
X6600000Y7308000D03*
X6100000Y7308000D03*
X5600000Y7308000D03*
D15*
X9050000Y8958000D03*
X3650000Y8958000D03*
%TD*%
D16*
%TO.C,JP1*%
X2540000Y1778000D03*
X5080000Y1778000D03*
X7620000Y1778000D03*
X10160000Y1778000D03*
%TD*%
%LPD*%
M02*
