%TF.GenerationSoftware,KiCad,Pcbnew,10.99.0-3758-g2f18d95be7*%
%TF.CreationDate,2026-09-22T03:46:25+01:00*%
%TF.ProjectId,kicad_file,6b696361-645f-4666-996c-652e6b696361,rev?*%
%TF.SameCoordinates,Original*%
%TF.FileFunction,Copper,L1,Top*%
%TF.FilePolarity,Positive*%
%FSLAX46Y46*%
G04 Gerber Fmt 4.6, Leading zero omitted, Abs format (unit mm)*
G04 Created by KiCad (PCBNEW 10.99.0-3758-g2f18d95be7) date 2026-09-22 03:46:25*
%MOMM*%
%LPD*%
G01*
G04 APERTURE LIST*
G04 Aperture macros list*
%AMRoundRect*
0 Rectangle with rounded corners*
0 $1 Rounding radius*
0 $2 $3 $4 $5 $6 $7 $8 $9 X,Y pos of 4 corners*
0 Add a 4 corners polygon primitive as box body*
4,1,4,$2,$3,$4,$5,$6,$7,$8,$9,$2,$3,0*
0 Add four circle primitives for the rounded corners*
1,1,$1+$1,$2,$3*
1,1,$1+$1,$4,$5*
1,1,$1+$1,$6,$7*
1,1,$1+$1,$8,$9*
0 Add four rect primitives between the rounded corners*
20,1,$1+$1,$2,$3,$4,$5,0*
20,1,$1+$1,$4,$5,$6,$7,0*
20,1,$1+$1,$6,$7,$8,$9,0*
20,1,$1+$1,$8,$9,$2,$3,0*%
G04 Aperture macros list end*
%TA.AperFunction,SMDPad,CuDef*%
%ADD10RoundRect,0.500000X-0.000010X-0.000010X0.000010X-0.000010X0.000010X0.000010X-0.000010X0.000010X0*%
%TD*%
%TA.AperFunction,SMDPad,CuDef*%
%ADD11R,0.300000X1.250000*%
%TD*%
%TA.AperFunction,SMDPad,CuDef*%
%ADD12R,1.850000X2.600000*%
%TD*%
%TA.AperFunction,ComponentPad*%
%ADD13C,1.778000*%
%TD*%
%TA.AperFunction,Conductor*%
%ADD14C,0.254000*%
%TD*%
%TA.AperFunction,Conductor*%
%ADD15C,0.304800*%
%TD*%
G04 APERTURE END LIST*
D10*
%TO.P,U$3,1*%
%TO.N,N/C*%
X11430000Y10160000D03*
%TD*%
%TO.P,U$2,1*%
%TO.N,N/C*%
X1270000Y10160000D03*
%TD*%
D11*
%TO.P,CN1,1*%
%TO.N,N$4*%
X7100000Y7308000D03*
%TO.P,CN1,2*%
%TO.N,N$3*%
X6600000Y7308000D03*
%TO.P,CN1,3*%
%TO.N,N$2*%
X6100000Y7308000D03*
%TO.P,CN1,4*%
%TO.N,N$1*%
X5600000Y7308000D03*
D12*
%TO.P,CN1,MT*%
%TO.N,N/C*%
X9050000Y8958000D03*
%TO.P,CN1,MT2*%
X3650000Y8958000D03*
%TD*%
D13*
%TO.P,JP1,1*%
%TO.N,N$1*%
X2540000Y1778000D03*
%TO.P,JP1,2*%
%TO.N,N$2*%
X5080000Y1778000D03*
%TO.P,JP1,3*%
%TO.N,N$3*%
X7620000Y1778000D03*
%TO.P,JP1,4*%
%TO.N,N$4*%
X10160000Y1778000D03*
%TD*%
%TO.N,N$1*%
D14*
X5588000Y7408000D02*
X5588000Y7308000D01*
X5376000Y7408000D02*
X5588000Y7408000D01*
X5588000Y7308000D02*
X5600000Y7308000D01*
X4572000Y4826000D02*
X4572000Y6604000D01*
X2540000Y2794000D02*
X4572000Y4826000D01*
X4572000Y6604000D02*
X5376000Y7408000D01*
X2540000Y1778000D02*
X2540000Y2794000D01*
%TO.N,N$2*%
X6100000Y4068000D02*
X5080000Y3048000D01*
X6100000Y7308000D02*
X6100000Y4068000D01*
D15*
X5080000Y1778000D02*
X5080000Y3048000D01*
%TO.N,N$3*%
X7620000Y1778000D02*
X7620000Y3048000D01*
D14*
X6600000Y4068000D02*
X7620000Y3048000D01*
X6600000Y7308000D02*
X6600000Y4068000D01*
%TO.N,N$4*%
X8382000Y6604000D02*
X7578000Y7408000D01*
X10160000Y2794000D02*
X8382000Y4572000D01*
X7112000Y7408000D02*
X7112000Y7308000D01*
X7112000Y7308000D02*
X7100000Y7308000D01*
X7578000Y7408000D02*
X7112000Y7408000D01*
X8382000Y4572000D02*
X8382000Y6604000D01*
X10160000Y1778000D02*
X10160000Y2794000D01*
%TD*%
M02*
