%TF.GenerationSoftware,KiCad,Pcbnew,10.99.0-3671-gbe90a7e200*%
%TF.CreationDate,2026-09-08T00:15:00+01:00*%
%TF.ProjectId,kicad_file,6b696361-645f-4666-996c-652e6b696361,v10*%
%TF.SameCoordinates,Original*%
%TF.FileFunction,Drillmap*%
%TF.FilePolarity,Positive*%
%FSLAX45Y45*%
G04 Gerber Fmt 4.5, Leading zero omitted, Abs format (unit mm)*
G04 Created by KiCad (PCBNEW 10.99.0-3671-gbe90a7e200) date 2026-09-08 00:15:00*
%MOMM*%
%LPD*%
G01*
G04 APERTURE LIST*
%ADD10C,0.100000*%
%ADD11C,0.200000*%
%ADD12C,0.310000*%
G04 APERTURE END LIST*
D10*
X11557000Y-12446000D02*
X10795000Y-11506200D01*
X10795000Y-4826000D01*
X12319000Y-4826000D01*
X12319000Y-11506200D01*
X11557000Y-12446000D01*
D11*
D12*
X10894000Y-6893500D02*
X11204000Y-7203500D01*
X11204000Y-6893500D02*
X10894000Y-7203500D01*
X11910000Y-6893500D02*
X12220000Y-7203500D01*
X12220000Y-6893500D02*
X11910000Y-7203500D01*
D11*
X11050777Y-12762484D02*
X11050777Y-12562484D01*
X11050777Y-12562484D02*
X11098396Y-12562484D01*
X11098396Y-12562484D02*
X11126967Y-12572008D01*
X11126967Y-12572008D02*
X11146015Y-12591055D01*
X11146015Y-12591055D02*
X11155539Y-12610103D01*
X11155539Y-12610103D02*
X11165063Y-12648198D01*
X11165063Y-12648198D02*
X11165063Y-12676769D01*
X11165063Y-12676769D02*
X11155539Y-12714865D01*
X11155539Y-12714865D02*
X11146015Y-12733912D01*
X11146015Y-12733912D02*
X11126967Y-12752960D01*
X11126967Y-12752960D02*
X11098396Y-12762484D01*
X11098396Y-12762484D02*
X11050777Y-12762484D01*
X11250777Y-12762484D02*
X11250777Y-12629150D01*
X11250777Y-12667246D02*
X11260301Y-12648198D01*
X11260301Y-12648198D02*
X11269824Y-12638674D01*
X11269824Y-12638674D02*
X11288872Y-12629150D01*
X11288872Y-12629150D02*
X11307920Y-12629150D01*
X11374586Y-12762484D02*
X11374586Y-12629150D01*
X11374586Y-12562484D02*
X11365062Y-12572008D01*
X11365062Y-12572008D02*
X11374586Y-12581531D01*
X11374586Y-12581531D02*
X11384110Y-12572008D01*
X11384110Y-12572008D02*
X11374586Y-12562484D01*
X11374586Y-12562484D02*
X11374586Y-12581531D01*
X11498396Y-12762484D02*
X11479348Y-12752960D01*
X11479348Y-12752960D02*
X11469824Y-12733912D01*
X11469824Y-12733912D02*
X11469824Y-12562484D01*
X11603158Y-12762484D02*
X11584110Y-12752960D01*
X11584110Y-12752960D02*
X11574586Y-12733912D01*
X11574586Y-12733912D02*
X11574586Y-12562484D01*
X11831729Y-12762484D02*
X11831729Y-12562484D01*
X11831729Y-12562484D02*
X11898396Y-12705341D01*
X11898396Y-12705341D02*
X11965062Y-12562484D01*
X11965062Y-12562484D02*
X11965062Y-12762484D01*
X12146015Y-12762484D02*
X12146015Y-12657722D01*
X12146015Y-12657722D02*
X12136491Y-12638674D01*
X12136491Y-12638674D02*
X12117443Y-12629150D01*
X12117443Y-12629150D02*
X12079348Y-12629150D01*
X12079348Y-12629150D02*
X12060301Y-12638674D01*
X12146015Y-12752960D02*
X12126967Y-12762484D01*
X12126967Y-12762484D02*
X12079348Y-12762484D01*
X12079348Y-12762484D02*
X12060301Y-12752960D01*
X12060301Y-12752960D02*
X12050777Y-12733912D01*
X12050777Y-12733912D02*
X12050777Y-12714865D01*
X12050777Y-12714865D02*
X12060301Y-12695817D01*
X12060301Y-12695817D02*
X12079348Y-12686293D01*
X12079348Y-12686293D02*
X12126967Y-12686293D01*
X12126967Y-12686293D02*
X12146015Y-12676769D01*
X12241253Y-12629150D02*
X12241253Y-12829150D01*
X12241253Y-12638674D02*
X12260301Y-12629150D01*
X12260301Y-12629150D02*
X12298396Y-12629150D01*
X12298396Y-12629150D02*
X12317443Y-12638674D01*
X12317443Y-12638674D02*
X12326967Y-12648198D01*
X12326967Y-12648198D02*
X12336491Y-12667246D01*
X12336491Y-12667246D02*
X12336491Y-12724388D01*
X12336491Y-12724388D02*
X12326967Y-12743436D01*
X12326967Y-12743436D02*
X12317443Y-12752960D01*
X12317443Y-12752960D02*
X12298396Y-12762484D01*
X12298396Y-12762484D02*
X12260301Y-12762484D01*
X12260301Y-12762484D02*
X12241253Y-12752960D01*
X12422205Y-12743436D02*
X12431729Y-12752960D01*
X12431729Y-12752960D02*
X12422205Y-12762484D01*
X12422205Y-12762484D02*
X12412682Y-12752960D01*
X12412682Y-12752960D02*
X12422205Y-12743436D01*
X12422205Y-12743436D02*
X12422205Y-12762484D01*
X12422205Y-12638674D02*
X12431729Y-12648198D01*
X12431729Y-12648198D02*
X12422205Y-12657722D01*
X12422205Y-12657722D02*
X12412682Y-12648198D01*
X12412682Y-12648198D02*
X12422205Y-12638674D01*
X12422205Y-12638674D02*
X12422205Y-12657722D01*
X10590000Y-12991000D02*
X10790000Y-13191000D01*
X10790000Y-12991000D02*
X10590000Y-13191000D01*
X11031729Y-12982484D02*
X11155539Y-12982484D01*
X11155539Y-12982484D02*
X11088872Y-13058674D01*
X11088872Y-13058674D02*
X11117444Y-13058674D01*
X11117444Y-13058674D02*
X11136491Y-13068198D01*
X11136491Y-13068198D02*
X11146015Y-13077722D01*
X11146015Y-13077722D02*
X11155539Y-13096769D01*
X11155539Y-13096769D02*
X11155539Y-13144388D01*
X11155539Y-13144388D02*
X11146015Y-13163436D01*
X11146015Y-13163436D02*
X11136491Y-13172960D01*
X11136491Y-13172960D02*
X11117444Y-13182484D01*
X11117444Y-13182484D02*
X11060301Y-13182484D01*
X11060301Y-13182484D02*
X11041253Y-13172960D01*
X11041253Y-13172960D02*
X11031729Y-13163436D01*
X11241253Y-13163436D02*
X11250777Y-13172960D01*
X11250777Y-13172960D02*
X11241253Y-13182484D01*
X11241253Y-13182484D02*
X11231729Y-13172960D01*
X11231729Y-13172960D02*
X11241253Y-13163436D01*
X11241253Y-13163436D02*
X11241253Y-13182484D01*
X11441253Y-13182484D02*
X11326967Y-13182484D01*
X11384110Y-13182484D02*
X11384110Y-12982484D01*
X11384110Y-12982484D02*
X11365062Y-13011055D01*
X11365062Y-13011055D02*
X11346015Y-13030103D01*
X11346015Y-13030103D02*
X11326967Y-13039627D01*
X11565062Y-12982484D02*
X11584110Y-12982484D01*
X11584110Y-12982484D02*
X11603158Y-12992008D01*
X11603158Y-12992008D02*
X11612682Y-13001531D01*
X11612682Y-13001531D02*
X11622205Y-13020579D01*
X11622205Y-13020579D02*
X11631729Y-13058674D01*
X11631729Y-13058674D02*
X11631729Y-13106293D01*
X11631729Y-13106293D02*
X11622205Y-13144388D01*
X11622205Y-13144388D02*
X11612682Y-13163436D01*
X11612682Y-13163436D02*
X11603158Y-13172960D01*
X11603158Y-13172960D02*
X11584110Y-13182484D01*
X11584110Y-13182484D02*
X11565062Y-13182484D01*
X11565062Y-13182484D02*
X11546015Y-13172960D01*
X11546015Y-13172960D02*
X11536491Y-13163436D01*
X11536491Y-13163436D02*
X11526967Y-13144388D01*
X11526967Y-13144388D02*
X11517443Y-13106293D01*
X11517443Y-13106293D02*
X11517443Y-13058674D01*
X11517443Y-13058674D02*
X11526967Y-13020579D01*
X11526967Y-13020579D02*
X11536491Y-13001531D01*
X11536491Y-13001531D02*
X11546015Y-12992008D01*
X11546015Y-12992008D02*
X11565062Y-12982484D01*
X11755539Y-12982484D02*
X11774586Y-12982484D01*
X11774586Y-12982484D02*
X11793634Y-12992008D01*
X11793634Y-12992008D02*
X11803158Y-13001531D01*
X11803158Y-13001531D02*
X11812682Y-13020579D01*
X11812682Y-13020579D02*
X11822205Y-13058674D01*
X11822205Y-13058674D02*
X11822205Y-13106293D01*
X11822205Y-13106293D02*
X11812682Y-13144388D01*
X11812682Y-13144388D02*
X11803158Y-13163436D01*
X11803158Y-13163436D02*
X11793634Y-13172960D01*
X11793634Y-13172960D02*
X11774586Y-13182484D01*
X11774586Y-13182484D02*
X11755539Y-13182484D01*
X11755539Y-13182484D02*
X11736491Y-13172960D01*
X11736491Y-13172960D02*
X11726967Y-13163436D01*
X11726967Y-13163436D02*
X11717443Y-13144388D01*
X11717443Y-13144388D02*
X11707920Y-13106293D01*
X11707920Y-13106293D02*
X11707920Y-13058674D01*
X11707920Y-13058674D02*
X11717443Y-13020579D01*
X11717443Y-13020579D02*
X11726967Y-13001531D01*
X11726967Y-13001531D02*
X11736491Y-12992008D01*
X11736491Y-12992008D02*
X11755539Y-12982484D01*
X11907920Y-13182484D02*
X11907920Y-13049150D01*
X11907920Y-13068198D02*
X11917443Y-13058674D01*
X11917443Y-13058674D02*
X11936491Y-13049150D01*
X11936491Y-13049150D02*
X11965063Y-13049150D01*
X11965063Y-13049150D02*
X11984110Y-13058674D01*
X11984110Y-13058674D02*
X11993634Y-13077722D01*
X11993634Y-13077722D02*
X11993634Y-13182484D01*
X11993634Y-13077722D02*
X12003158Y-13058674D01*
X12003158Y-13058674D02*
X12022205Y-13049150D01*
X12022205Y-13049150D02*
X12050777Y-13049150D01*
X12050777Y-13049150D02*
X12069824Y-13058674D01*
X12069824Y-13058674D02*
X12079348Y-13077722D01*
X12079348Y-13077722D02*
X12079348Y-13182484D01*
X12174586Y-13182484D02*
X12174586Y-13049150D01*
X12174586Y-13068198D02*
X12184110Y-13058674D01*
X12184110Y-13058674D02*
X12203158Y-13049150D01*
X12203158Y-13049150D02*
X12231729Y-13049150D01*
X12231729Y-13049150D02*
X12250777Y-13058674D01*
X12250777Y-13058674D02*
X12260301Y-13077722D01*
X12260301Y-13077722D02*
X12260301Y-13182484D01*
X12260301Y-13077722D02*
X12269824Y-13058674D01*
X12269824Y-13058674D02*
X12288872Y-13049150D01*
X12288872Y-13049150D02*
X12317443Y-13049150D01*
X12317443Y-13049150D02*
X12336491Y-13058674D01*
X12336491Y-13058674D02*
X12346015Y-13077722D01*
X12346015Y-13077722D02*
X12346015Y-13182484D01*
X12736491Y-12972960D02*
X12565063Y-13230103D01*
X12993634Y-12982484D02*
X13012682Y-12982484D01*
X13012682Y-12982484D02*
X13031729Y-12992008D01*
X13031729Y-12992008D02*
X13041253Y-13001531D01*
X13041253Y-13001531D02*
X13050777Y-13020579D01*
X13050777Y-13020579D02*
X13060301Y-13058674D01*
X13060301Y-13058674D02*
X13060301Y-13106293D01*
X13060301Y-13106293D02*
X13050777Y-13144388D01*
X13050777Y-13144388D02*
X13041253Y-13163436D01*
X13041253Y-13163436D02*
X13031729Y-13172960D01*
X13031729Y-13172960D02*
X13012682Y-13182484D01*
X13012682Y-13182484D02*
X12993634Y-13182484D01*
X12993634Y-13182484D02*
X12974586Y-13172960D01*
X12974586Y-13172960D02*
X12965063Y-13163436D01*
X12965063Y-13163436D02*
X12955539Y-13144388D01*
X12955539Y-13144388D02*
X12946015Y-13106293D01*
X12946015Y-13106293D02*
X12946015Y-13058674D01*
X12946015Y-13058674D02*
X12955539Y-13020579D01*
X12955539Y-13020579D02*
X12965063Y-13001531D01*
X12965063Y-13001531D02*
X12974586Y-12992008D01*
X12974586Y-12992008D02*
X12993634Y-12982484D01*
X13146015Y-13163436D02*
X13155539Y-13172960D01*
X13155539Y-13172960D02*
X13146015Y-13182484D01*
X13146015Y-13182484D02*
X13136491Y-13172960D01*
X13136491Y-13172960D02*
X13146015Y-13163436D01*
X13146015Y-13163436D02*
X13146015Y-13182484D01*
X13346015Y-13182484D02*
X13231729Y-13182484D01*
X13288872Y-13182484D02*
X13288872Y-12982484D01*
X13288872Y-12982484D02*
X13269825Y-13011055D01*
X13269825Y-13011055D02*
X13250777Y-13030103D01*
X13250777Y-13030103D02*
X13231729Y-13039627D01*
X13422206Y-13001531D02*
X13431729Y-12992008D01*
X13431729Y-12992008D02*
X13450777Y-12982484D01*
X13450777Y-12982484D02*
X13498396Y-12982484D01*
X13498396Y-12982484D02*
X13517444Y-12992008D01*
X13517444Y-12992008D02*
X13526967Y-13001531D01*
X13526967Y-13001531D02*
X13536491Y-13020579D01*
X13536491Y-13020579D02*
X13536491Y-13039627D01*
X13536491Y-13039627D02*
X13526967Y-13068198D01*
X13526967Y-13068198D02*
X13412682Y-13182484D01*
X13412682Y-13182484D02*
X13536491Y-13182484D01*
X13612682Y-13001531D02*
X13622206Y-12992008D01*
X13622206Y-12992008D02*
X13641253Y-12982484D01*
X13641253Y-12982484D02*
X13688872Y-12982484D01*
X13688872Y-12982484D02*
X13707920Y-12992008D01*
X13707920Y-12992008D02*
X13717444Y-13001531D01*
X13717444Y-13001531D02*
X13726967Y-13020579D01*
X13726967Y-13020579D02*
X13726967Y-13039627D01*
X13726967Y-13039627D02*
X13717444Y-13068198D01*
X13717444Y-13068198D02*
X13603158Y-13182484D01*
X13603158Y-13182484D02*
X13726967Y-13182484D01*
X13850777Y-12982484D02*
X13869825Y-12982484D01*
X13869825Y-12982484D02*
X13888872Y-12992008D01*
X13888872Y-12992008D02*
X13898396Y-13001531D01*
X13898396Y-13001531D02*
X13907920Y-13020579D01*
X13907920Y-13020579D02*
X13917444Y-13058674D01*
X13917444Y-13058674D02*
X13917444Y-13106293D01*
X13917444Y-13106293D02*
X13907920Y-13144388D01*
X13907920Y-13144388D02*
X13898396Y-13163436D01*
X13898396Y-13163436D02*
X13888872Y-13172960D01*
X13888872Y-13172960D02*
X13869825Y-13182484D01*
X13869825Y-13182484D02*
X13850777Y-13182484D01*
X13850777Y-13182484D02*
X13831729Y-13172960D01*
X13831729Y-13172960D02*
X13822206Y-13163436D01*
X13822206Y-13163436D02*
X13812682Y-13144388D01*
X13812682Y-13144388D02*
X13803158Y-13106293D01*
X13803158Y-13106293D02*
X13803158Y-13058674D01*
X13803158Y-13058674D02*
X13812682Y-13020579D01*
X13812682Y-13020579D02*
X13822206Y-13001531D01*
X13822206Y-13001531D02*
X13831729Y-12992008D01*
X13831729Y-12992008D02*
X13850777Y-12982484D01*
X13993634Y-12982484D02*
X13993634Y-13020579D01*
X14069825Y-12982484D02*
X14069825Y-13020579D01*
X14365063Y-13258674D02*
X14355539Y-13249150D01*
X14355539Y-13249150D02*
X14336491Y-13220579D01*
X14336491Y-13220579D02*
X14326968Y-13201531D01*
X14326968Y-13201531D02*
X14317444Y-13172960D01*
X14317444Y-13172960D02*
X14307920Y-13125341D01*
X14307920Y-13125341D02*
X14307920Y-13087246D01*
X14307920Y-13087246D02*
X14317444Y-13039627D01*
X14317444Y-13039627D02*
X14326968Y-13011055D01*
X14326968Y-13011055D02*
X14336491Y-12992008D01*
X14336491Y-12992008D02*
X14355539Y-12963436D01*
X14355539Y-12963436D02*
X14365063Y-12953912D01*
X14431729Y-13001531D02*
X14441253Y-12992008D01*
X14441253Y-12992008D02*
X14460301Y-12982484D01*
X14460301Y-12982484D02*
X14507920Y-12982484D01*
X14507920Y-12982484D02*
X14526968Y-12992008D01*
X14526968Y-12992008D02*
X14536491Y-13001531D01*
X14536491Y-13001531D02*
X14546015Y-13020579D01*
X14546015Y-13020579D02*
X14546015Y-13039627D01*
X14546015Y-13039627D02*
X14536491Y-13068198D01*
X14536491Y-13068198D02*
X14422206Y-13182484D01*
X14422206Y-13182484D02*
X14546015Y-13182484D01*
X14784110Y-13182484D02*
X14784110Y-12982484D01*
X14869825Y-13182484D02*
X14869825Y-13077722D01*
X14869825Y-13077722D02*
X14860301Y-13058674D01*
X14860301Y-13058674D02*
X14841253Y-13049150D01*
X14841253Y-13049150D02*
X14812682Y-13049150D01*
X14812682Y-13049150D02*
X14793634Y-13058674D01*
X14793634Y-13058674D02*
X14784110Y-13068198D01*
X14993634Y-13182484D02*
X14974587Y-13172960D01*
X14974587Y-13172960D02*
X14965063Y-13163436D01*
X14965063Y-13163436D02*
X14955539Y-13144388D01*
X14955539Y-13144388D02*
X14955539Y-13087246D01*
X14955539Y-13087246D02*
X14965063Y-13068198D01*
X14965063Y-13068198D02*
X14974587Y-13058674D01*
X14974587Y-13058674D02*
X14993634Y-13049150D01*
X14993634Y-13049150D02*
X15022206Y-13049150D01*
X15022206Y-13049150D02*
X15041253Y-13058674D01*
X15041253Y-13058674D02*
X15050777Y-13068198D01*
X15050777Y-13068198D02*
X15060301Y-13087246D01*
X15060301Y-13087246D02*
X15060301Y-13144388D01*
X15060301Y-13144388D02*
X15050777Y-13163436D01*
X15050777Y-13163436D02*
X15041253Y-13172960D01*
X15041253Y-13172960D02*
X15022206Y-13182484D01*
X15022206Y-13182484D02*
X14993634Y-13182484D01*
X15174587Y-13182484D02*
X15155539Y-13172960D01*
X15155539Y-13172960D02*
X15146015Y-13153912D01*
X15146015Y-13153912D02*
X15146015Y-12982484D01*
X15326968Y-13172960D02*
X15307920Y-13182484D01*
X15307920Y-13182484D02*
X15269825Y-13182484D01*
X15269825Y-13182484D02*
X15250777Y-13172960D01*
X15250777Y-13172960D02*
X15241253Y-13153912D01*
X15241253Y-13153912D02*
X15241253Y-13077722D01*
X15241253Y-13077722D02*
X15250777Y-13058674D01*
X15250777Y-13058674D02*
X15269825Y-13049150D01*
X15269825Y-13049150D02*
X15307920Y-13049150D01*
X15307920Y-13049150D02*
X15326968Y-13058674D01*
X15326968Y-13058674D02*
X15336491Y-13077722D01*
X15336491Y-13077722D02*
X15336491Y-13096769D01*
X15336491Y-13096769D02*
X15241253Y-13115817D01*
X15412682Y-13172960D02*
X15431730Y-13182484D01*
X15431730Y-13182484D02*
X15469825Y-13182484D01*
X15469825Y-13182484D02*
X15488872Y-13172960D01*
X15488872Y-13172960D02*
X15498396Y-13153912D01*
X15498396Y-13153912D02*
X15498396Y-13144388D01*
X15498396Y-13144388D02*
X15488872Y-13125341D01*
X15488872Y-13125341D02*
X15469825Y-13115817D01*
X15469825Y-13115817D02*
X15441253Y-13115817D01*
X15441253Y-13115817D02*
X15422206Y-13106293D01*
X15422206Y-13106293D02*
X15412682Y-13087246D01*
X15412682Y-13087246D02*
X15412682Y-13077722D01*
X15412682Y-13077722D02*
X15422206Y-13058674D01*
X15422206Y-13058674D02*
X15441253Y-13049150D01*
X15441253Y-13049150D02*
X15469825Y-13049150D01*
X15469825Y-13049150D02*
X15488872Y-13058674D01*
X15565063Y-13258674D02*
X15574587Y-13249150D01*
X15574587Y-13249150D02*
X15593634Y-13220579D01*
X15593634Y-13220579D02*
X15603158Y-13201531D01*
X15603158Y-13201531D02*
X15612682Y-13172960D01*
X15612682Y-13172960D02*
X15622206Y-13125341D01*
X15622206Y-13125341D02*
X15622206Y-13087246D01*
X15622206Y-13087246D02*
X15612682Y-13039627D01*
X15612682Y-13039627D02*
X15603158Y-13011055D01*
X15603158Y-13011055D02*
X15593634Y-12992008D01*
X15593634Y-12992008D02*
X15574587Y-12963436D01*
X15574587Y-12963436D02*
X15565063Y-12953912D01*
X15926968Y-13258674D02*
X15917444Y-13249150D01*
X15917444Y-13249150D02*
X15898396Y-13220579D01*
X15898396Y-13220579D02*
X15888872Y-13201531D01*
X15888872Y-13201531D02*
X15879349Y-13172960D01*
X15879349Y-13172960D02*
X15869825Y-13125341D01*
X15869825Y-13125341D02*
X15869825Y-13087246D01*
X15869825Y-13087246D02*
X15879349Y-13039627D01*
X15879349Y-13039627D02*
X15888872Y-13011055D01*
X15888872Y-13011055D02*
X15898396Y-12992008D01*
X15898396Y-12992008D02*
X15917444Y-12963436D01*
X15917444Y-12963436D02*
X15926968Y-12953912D01*
X16003158Y-13049150D02*
X16003158Y-13182484D01*
X16003158Y-13068198D02*
X16012682Y-13058674D01*
X16012682Y-13058674D02*
X16031730Y-13049150D01*
X16031730Y-13049150D02*
X16060301Y-13049150D01*
X16060301Y-13049150D02*
X16079349Y-13058674D01*
X16079349Y-13058674D02*
X16088872Y-13077722D01*
X16088872Y-13077722D02*
X16088872Y-13182484D01*
X16212682Y-13182484D02*
X16193634Y-13172960D01*
X16193634Y-13172960D02*
X16184111Y-13163436D01*
X16184111Y-13163436D02*
X16174587Y-13144388D01*
X16174587Y-13144388D02*
X16174587Y-13087246D01*
X16174587Y-13087246D02*
X16184111Y-13068198D01*
X16184111Y-13068198D02*
X16193634Y-13058674D01*
X16193634Y-13058674D02*
X16212682Y-13049150D01*
X16212682Y-13049150D02*
X16241253Y-13049150D01*
X16241253Y-13049150D02*
X16260301Y-13058674D01*
X16260301Y-13058674D02*
X16269825Y-13068198D01*
X16269825Y-13068198D02*
X16279349Y-13087246D01*
X16279349Y-13087246D02*
X16279349Y-13144388D01*
X16279349Y-13144388D02*
X16269825Y-13163436D01*
X16269825Y-13163436D02*
X16260301Y-13172960D01*
X16260301Y-13172960D02*
X16241253Y-13182484D01*
X16241253Y-13182484D02*
X16212682Y-13182484D01*
X16336492Y-13049150D02*
X16412682Y-13049150D01*
X16365063Y-12982484D02*
X16365063Y-13153912D01*
X16365063Y-13153912D02*
X16374587Y-13172960D01*
X16374587Y-13172960D02*
X16393634Y-13182484D01*
X16393634Y-13182484D02*
X16412682Y-13182484D01*
X16631730Y-13049150D02*
X16631730Y-13249150D01*
X16631730Y-13058674D02*
X16650777Y-13049150D01*
X16650777Y-13049150D02*
X16688873Y-13049150D01*
X16688873Y-13049150D02*
X16707920Y-13058674D01*
X16707920Y-13058674D02*
X16717444Y-13068198D01*
X16717444Y-13068198D02*
X16726968Y-13087246D01*
X16726968Y-13087246D02*
X16726968Y-13144388D01*
X16726968Y-13144388D02*
X16717444Y-13163436D01*
X16717444Y-13163436D02*
X16707920Y-13172960D01*
X16707920Y-13172960D02*
X16688873Y-13182484D01*
X16688873Y-13182484D02*
X16650777Y-13182484D01*
X16650777Y-13182484D02*
X16631730Y-13172960D01*
X16841254Y-13182484D02*
X16822206Y-13172960D01*
X16822206Y-13172960D02*
X16812682Y-13153912D01*
X16812682Y-13153912D02*
X16812682Y-12982484D01*
X17003158Y-13182484D02*
X17003158Y-13077722D01*
X17003158Y-13077722D02*
X16993635Y-13058674D01*
X16993635Y-13058674D02*
X16974587Y-13049150D01*
X16974587Y-13049150D02*
X16936492Y-13049150D01*
X16936492Y-13049150D02*
X16917444Y-13058674D01*
X17003158Y-13172960D02*
X16984111Y-13182484D01*
X16984111Y-13182484D02*
X16936492Y-13182484D01*
X16936492Y-13182484D02*
X16917444Y-13172960D01*
X16917444Y-13172960D02*
X16907920Y-13153912D01*
X16907920Y-13153912D02*
X16907920Y-13134865D01*
X16907920Y-13134865D02*
X16917444Y-13115817D01*
X16917444Y-13115817D02*
X16936492Y-13106293D01*
X16936492Y-13106293D02*
X16984111Y-13106293D01*
X16984111Y-13106293D02*
X17003158Y-13096769D01*
X17069825Y-13049150D02*
X17146015Y-13049150D01*
X17098396Y-12982484D02*
X17098396Y-13153912D01*
X17098396Y-13153912D02*
X17107920Y-13172960D01*
X17107920Y-13172960D02*
X17126968Y-13182484D01*
X17126968Y-13182484D02*
X17146015Y-13182484D01*
X17288873Y-13172960D02*
X17269825Y-13182484D01*
X17269825Y-13182484D02*
X17231730Y-13182484D01*
X17231730Y-13182484D02*
X17212682Y-13172960D01*
X17212682Y-13172960D02*
X17203158Y-13153912D01*
X17203158Y-13153912D02*
X17203158Y-13077722D01*
X17203158Y-13077722D02*
X17212682Y-13058674D01*
X17212682Y-13058674D02*
X17231730Y-13049150D01*
X17231730Y-13049150D02*
X17269825Y-13049150D01*
X17269825Y-13049150D02*
X17288873Y-13058674D01*
X17288873Y-13058674D02*
X17298396Y-13077722D01*
X17298396Y-13077722D02*
X17298396Y-13096769D01*
X17298396Y-13096769D02*
X17203158Y-13115817D01*
X17469825Y-13182484D02*
X17469825Y-12982484D01*
X17469825Y-13172960D02*
X17450777Y-13182484D01*
X17450777Y-13182484D02*
X17412682Y-13182484D01*
X17412682Y-13182484D02*
X17393635Y-13172960D01*
X17393635Y-13172960D02*
X17384111Y-13163436D01*
X17384111Y-13163436D02*
X17374587Y-13144388D01*
X17374587Y-13144388D02*
X17374587Y-13087246D01*
X17374587Y-13087246D02*
X17384111Y-13068198D01*
X17384111Y-13068198D02*
X17393635Y-13058674D01*
X17393635Y-13058674D02*
X17412682Y-13049150D01*
X17412682Y-13049150D02*
X17450777Y-13049150D01*
X17450777Y-13049150D02*
X17469825Y-13058674D01*
X17546016Y-13258674D02*
X17555539Y-13249150D01*
X17555539Y-13249150D02*
X17574587Y-13220579D01*
X17574587Y-13220579D02*
X17584111Y-13201531D01*
X17584111Y-13201531D02*
X17593635Y-13172960D01*
X17593635Y-13172960D02*
X17603158Y-13125341D01*
X17603158Y-13125341D02*
X17603158Y-13087246D01*
X17603158Y-13087246D02*
X17593635Y-13039627D01*
X17593635Y-13039627D02*
X17584111Y-13011055D01*
X17584111Y-13011055D02*
X17574587Y-12992008D01*
X17574587Y-12992008D02*
X17555539Y-12963436D01*
X17555539Y-12963436D02*
X17546016Y-12953912D01*
M02*
