%TF.GenerationSoftware,KiCad,Pcbnew,10.99.0-3671-gbe90a7e200*%
%TF.CreationDate,2026-09-10T01:28:13+01:00*%
%TF.ProjectId,kicad_file,6b696361-645f-4666-996c-652e6b696361,rev?*%
%TF.SameCoordinates,Original*%
%TF.FileFunction,Drillmap*%
%TF.FilePolarity,Positive*%
%FSLAX45Y45*%
G04 Gerber Fmt 4.5, Leading zero omitted, Abs format (unit mm)*
G04 Created by KiCad (PCBNEW 10.99.0-3671-gbe90a7e200) date 2026-09-10 01:28:13*
%MOMM*%
%LPD*%
G01*
G04 APERTURE LIST*
%ADD10C,0.050000*%
%ADD11C,0.200000*%
%ADD12C,0.190000*%
%ADD13C,0.254000*%
%ADD14C,0.300000*%
%ADD15C,0.340000*%
G04 APERTURE END LIST*
D10*
X0Y1905000D02*
G75*
G02*
X254000Y2159000I254000J0D01*
G01*
X0Y127000D02*
X0Y1905000D01*
X254000Y2159000D02*
X1651000Y2159000D01*
X254000Y-254000D02*
G75*
G02*
X0Y127000I63500J317500D01*
G01*
X1651000Y2159000D02*
G75*
G02*
X1905000Y1905000I0J-254000D01*
G01*
X1651000Y-254000D02*
X254000Y-254000D01*
X1905000Y1905000D02*
X1905000Y127000D01*
X1905000Y127000D02*
G75*
G02*
X1651000Y-254000I-317500J-63500D01*
G01*
D11*
D12*
X307500Y1047500D02*
X497500Y857500D01*
X497500Y1047500D02*
X307500Y857500D01*
X1407500Y1047500D02*
X1597500Y857500D01*
X1597500Y1047500D02*
X1407500Y857500D01*
D13*
X317500Y127000D02*
G75*
G02*
X63500Y127000I-127000J0D01*
G01*
X63500Y127000D02*
G75*
G02*
X317500Y127000I127000J0D01*
G01*
X1841500Y1778000D02*
G75*
G02*
X1587500Y1778000I-127000J0D01*
G01*
X1587500Y1778000D02*
G75*
G02*
X1841500Y1778000I127000J0D01*
G01*
D14*
X452500Y1482500D02*
X452500Y1182500D01*
X302500Y1332500D02*
X602500Y1332500D01*
X952500Y1692500D02*
X952500Y1392500D01*
X802500Y1542500D02*
X1102500Y1542500D01*
D15*
X1072709Y832291D02*
X1072709Y1072709D01*
X832291Y1072709D01*
X832291Y832291D01*
X1072709Y832291D01*
D11*
X251989Y-567984D02*
X251989Y-367984D01*
X251989Y-367984D02*
X299608Y-367984D01*
X299608Y-367984D02*
X328180Y-377508D01*
X328180Y-377508D02*
X347227Y-396555D01*
X347227Y-396555D02*
X356751Y-415603D01*
X356751Y-415603D02*
X366275Y-453698D01*
X366275Y-453698D02*
X366275Y-482269D01*
X366275Y-482269D02*
X356751Y-520365D01*
X356751Y-520365D02*
X347227Y-539412D01*
X347227Y-539412D02*
X328180Y-558460D01*
X328180Y-558460D02*
X299608Y-567984D01*
X299608Y-567984D02*
X251989Y-567984D01*
X451989Y-567984D02*
X451989Y-434650D01*
X451989Y-472746D02*
X461513Y-453698D01*
X461513Y-453698D02*
X471037Y-444174D01*
X471037Y-444174D02*
X490084Y-434650D01*
X490084Y-434650D02*
X509132Y-434650D01*
X575799Y-567984D02*
X575799Y-434650D01*
X575799Y-367984D02*
X566275Y-377508D01*
X566275Y-377508D02*
X575799Y-387031D01*
X575799Y-387031D02*
X585322Y-377508D01*
X585322Y-377508D02*
X575799Y-367984D01*
X575799Y-367984D02*
X575799Y-387031D01*
X699608Y-567984D02*
X680561Y-558460D01*
X680561Y-558460D02*
X671037Y-539412D01*
X671037Y-539412D02*
X671037Y-367984D01*
X804370Y-567984D02*
X785322Y-558460D01*
X785322Y-558460D02*
X775799Y-539412D01*
X775799Y-539412D02*
X775799Y-367984D01*
X1032941Y-567984D02*
X1032941Y-367984D01*
X1032941Y-367984D02*
X1099608Y-510841D01*
X1099608Y-510841D02*
X1166275Y-367984D01*
X1166275Y-367984D02*
X1166275Y-567984D01*
X1347227Y-567984D02*
X1347227Y-463222D01*
X1347227Y-463222D02*
X1337703Y-444174D01*
X1337703Y-444174D02*
X1318656Y-434650D01*
X1318656Y-434650D02*
X1280561Y-434650D01*
X1280561Y-434650D02*
X1261513Y-444174D01*
X1347227Y-558460D02*
X1328180Y-567984D01*
X1328180Y-567984D02*
X1280561Y-567984D01*
X1280561Y-567984D02*
X1261513Y-558460D01*
X1261513Y-558460D02*
X1251989Y-539412D01*
X1251989Y-539412D02*
X1251989Y-520365D01*
X1251989Y-520365D02*
X1261513Y-501317D01*
X1261513Y-501317D02*
X1280561Y-491793D01*
X1280561Y-491793D02*
X1328180Y-491793D01*
X1328180Y-491793D02*
X1347227Y-482269D01*
X1442465Y-434650D02*
X1442465Y-634650D01*
X1442465Y-444174D02*
X1461513Y-434650D01*
X1461513Y-434650D02*
X1499608Y-434650D01*
X1499608Y-434650D02*
X1518656Y-444174D01*
X1518656Y-444174D02*
X1528180Y-453698D01*
X1528180Y-453698D02*
X1537703Y-472746D01*
X1537703Y-472746D02*
X1537703Y-529889D01*
X1537703Y-529889D02*
X1528180Y-548936D01*
X1528180Y-548936D02*
X1518656Y-558460D01*
X1518656Y-558460D02*
X1499608Y-567984D01*
X1499608Y-567984D02*
X1461513Y-567984D01*
X1461513Y-567984D02*
X1442465Y-558460D01*
X1623418Y-548936D02*
X1632941Y-558460D01*
X1632941Y-558460D02*
X1623418Y-567984D01*
X1623418Y-567984D02*
X1613894Y-558460D01*
X1613894Y-558460D02*
X1623418Y-548936D01*
X1623418Y-548936D02*
X1623418Y-567984D01*
X1623418Y-444174D02*
X1632941Y-453698D01*
X1632941Y-453698D02*
X1623418Y-463222D01*
X1623418Y-463222D02*
X1613894Y-453698D01*
X1613894Y-453698D02*
X1623418Y-444174D01*
X1623418Y-444174D02*
X1623418Y-463222D01*
D12*
X-198788Y-801500D02*
X-8788Y-991500D01*
X-8788Y-801500D02*
X-198788Y-991500D01*
D11*
X356751Y-987984D02*
X242465Y-987984D01*
X299608Y-987984D02*
X299608Y-787984D01*
X299608Y-787984D02*
X280561Y-816555D01*
X280561Y-816555D02*
X261513Y-835603D01*
X261513Y-835603D02*
X242465Y-845127D01*
X442465Y-968936D02*
X451989Y-978460D01*
X451989Y-978460D02*
X442465Y-987984D01*
X442465Y-987984D02*
X432941Y-978460D01*
X432941Y-978460D02*
X442465Y-968936D01*
X442465Y-968936D02*
X442465Y-987984D01*
X547227Y-987984D02*
X585322Y-987984D01*
X585322Y-987984D02*
X604370Y-978460D01*
X604370Y-978460D02*
X613894Y-968936D01*
X613894Y-968936D02*
X632942Y-940365D01*
X632942Y-940365D02*
X642465Y-902269D01*
X642465Y-902269D02*
X642465Y-826079D01*
X642465Y-826079D02*
X632942Y-807031D01*
X632942Y-807031D02*
X623418Y-797508D01*
X623418Y-797508D02*
X604370Y-787984D01*
X604370Y-787984D02*
X566275Y-787984D01*
X566275Y-787984D02*
X547227Y-797508D01*
X547227Y-797508D02*
X537703Y-807031D01*
X537703Y-807031D02*
X528180Y-826079D01*
X528180Y-826079D02*
X528180Y-873698D01*
X528180Y-873698D02*
X537703Y-892746D01*
X537703Y-892746D02*
X547227Y-902269D01*
X547227Y-902269D02*
X566275Y-911793D01*
X566275Y-911793D02*
X604370Y-911793D01*
X604370Y-911793D02*
X623418Y-902269D01*
X623418Y-902269D02*
X632942Y-892746D01*
X632942Y-892746D02*
X642465Y-873698D01*
X766275Y-787984D02*
X785322Y-787984D01*
X785322Y-787984D02*
X804370Y-797508D01*
X804370Y-797508D02*
X813894Y-807031D01*
X813894Y-807031D02*
X823418Y-826079D01*
X823418Y-826079D02*
X832941Y-864174D01*
X832941Y-864174D02*
X832941Y-911793D01*
X832941Y-911793D02*
X823418Y-949888D01*
X823418Y-949888D02*
X813894Y-968936D01*
X813894Y-968936D02*
X804370Y-978460D01*
X804370Y-978460D02*
X785322Y-987984D01*
X785322Y-987984D02*
X766275Y-987984D01*
X766275Y-987984D02*
X747227Y-978460D01*
X747227Y-978460D02*
X737703Y-968936D01*
X737703Y-968936D02*
X728180Y-949888D01*
X728180Y-949888D02*
X718656Y-911793D01*
X718656Y-911793D02*
X718656Y-864174D01*
X718656Y-864174D02*
X728180Y-826079D01*
X728180Y-826079D02*
X737703Y-807031D01*
X737703Y-807031D02*
X747227Y-797508D01*
X747227Y-797508D02*
X766275Y-787984D01*
X956751Y-787984D02*
X975799Y-787984D01*
X975799Y-787984D02*
X994846Y-797508D01*
X994846Y-797508D02*
X1004370Y-807031D01*
X1004370Y-807031D02*
X1013894Y-826079D01*
X1013894Y-826079D02*
X1023418Y-864174D01*
X1023418Y-864174D02*
X1023418Y-911793D01*
X1023418Y-911793D02*
X1013894Y-949888D01*
X1013894Y-949888D02*
X1004370Y-968936D01*
X1004370Y-968936D02*
X994846Y-978460D01*
X994846Y-978460D02*
X975799Y-987984D01*
X975799Y-987984D02*
X956751Y-987984D01*
X956751Y-987984D02*
X937703Y-978460D01*
X937703Y-978460D02*
X928180Y-968936D01*
X928180Y-968936D02*
X918656Y-949888D01*
X918656Y-949888D02*
X909132Y-911793D01*
X909132Y-911793D02*
X909132Y-864174D01*
X909132Y-864174D02*
X918656Y-826079D01*
X918656Y-826079D02*
X928180Y-807031D01*
X928180Y-807031D02*
X937703Y-797508D01*
X937703Y-797508D02*
X956751Y-787984D01*
X1109132Y-987984D02*
X1109132Y-854650D01*
X1109132Y-873698D02*
X1118656Y-864174D01*
X1118656Y-864174D02*
X1137703Y-854650D01*
X1137703Y-854650D02*
X1166275Y-854650D01*
X1166275Y-854650D02*
X1185323Y-864174D01*
X1185323Y-864174D02*
X1194846Y-883222D01*
X1194846Y-883222D02*
X1194846Y-987984D01*
X1194846Y-883222D02*
X1204370Y-864174D01*
X1204370Y-864174D02*
X1223418Y-854650D01*
X1223418Y-854650D02*
X1251989Y-854650D01*
X1251989Y-854650D02*
X1271037Y-864174D01*
X1271037Y-864174D02*
X1280561Y-883222D01*
X1280561Y-883222D02*
X1280561Y-987984D01*
X1375799Y-987984D02*
X1375799Y-854650D01*
X1375799Y-873698D02*
X1385323Y-864174D01*
X1385323Y-864174D02*
X1404370Y-854650D01*
X1404370Y-854650D02*
X1432942Y-854650D01*
X1432942Y-854650D02*
X1451989Y-864174D01*
X1451989Y-864174D02*
X1461513Y-883222D01*
X1461513Y-883222D02*
X1461513Y-987984D01*
X1461513Y-883222D02*
X1471037Y-864174D01*
X1471037Y-864174D02*
X1490084Y-854650D01*
X1490084Y-854650D02*
X1518656Y-854650D01*
X1518656Y-854650D02*
X1537703Y-864174D01*
X1537703Y-864174D02*
X1547227Y-883222D01*
X1547227Y-883222D02*
X1547227Y-987984D01*
X1937703Y-778460D02*
X1766275Y-1035603D01*
X2194846Y-787984D02*
X2213894Y-787984D01*
X2213894Y-787984D02*
X2232942Y-797508D01*
X2232942Y-797508D02*
X2242466Y-807031D01*
X2242466Y-807031D02*
X2251989Y-826079D01*
X2251989Y-826079D02*
X2261513Y-864174D01*
X2261513Y-864174D02*
X2261513Y-911793D01*
X2261513Y-911793D02*
X2251989Y-949888D01*
X2251989Y-949888D02*
X2242466Y-968936D01*
X2242466Y-968936D02*
X2232942Y-978460D01*
X2232942Y-978460D02*
X2213894Y-987984D01*
X2213894Y-987984D02*
X2194846Y-987984D01*
X2194846Y-987984D02*
X2175799Y-978460D01*
X2175799Y-978460D02*
X2166275Y-968936D01*
X2166275Y-968936D02*
X2156751Y-949888D01*
X2156751Y-949888D02*
X2147227Y-911793D01*
X2147227Y-911793D02*
X2147227Y-864174D01*
X2147227Y-864174D02*
X2156751Y-826079D01*
X2156751Y-826079D02*
X2166275Y-807031D01*
X2166275Y-807031D02*
X2175799Y-797508D01*
X2175799Y-797508D02*
X2194846Y-787984D01*
X2347227Y-968936D02*
X2356751Y-978460D01*
X2356751Y-978460D02*
X2347227Y-987984D01*
X2347227Y-987984D02*
X2337704Y-978460D01*
X2337704Y-978460D02*
X2347227Y-968936D01*
X2347227Y-968936D02*
X2347227Y-987984D01*
X2480561Y-787984D02*
X2499608Y-787984D01*
X2499608Y-787984D02*
X2518656Y-797508D01*
X2518656Y-797508D02*
X2528180Y-807031D01*
X2528180Y-807031D02*
X2537704Y-826079D01*
X2537704Y-826079D02*
X2547227Y-864174D01*
X2547227Y-864174D02*
X2547227Y-911793D01*
X2547227Y-911793D02*
X2537704Y-949888D01*
X2537704Y-949888D02*
X2528180Y-968936D01*
X2528180Y-968936D02*
X2518656Y-978460D01*
X2518656Y-978460D02*
X2499608Y-987984D01*
X2499608Y-987984D02*
X2480561Y-987984D01*
X2480561Y-987984D02*
X2461513Y-978460D01*
X2461513Y-978460D02*
X2451989Y-968936D01*
X2451989Y-968936D02*
X2442466Y-949888D01*
X2442466Y-949888D02*
X2432942Y-911793D01*
X2432942Y-911793D02*
X2432942Y-864174D01*
X2432942Y-864174D02*
X2442466Y-826079D01*
X2442466Y-826079D02*
X2451989Y-807031D01*
X2451989Y-807031D02*
X2461513Y-797508D01*
X2461513Y-797508D02*
X2480561Y-787984D01*
X2613894Y-787984D02*
X2747227Y-787984D01*
X2747227Y-787984D02*
X2661513Y-987984D01*
X2909132Y-854650D02*
X2909132Y-987984D01*
X2861513Y-778460D02*
X2813894Y-921317D01*
X2813894Y-921317D02*
X2937704Y-921317D01*
X3042465Y-873698D02*
X3023418Y-864174D01*
X3023418Y-864174D02*
X3013894Y-854650D01*
X3013894Y-854650D02*
X3004370Y-835603D01*
X3004370Y-835603D02*
X3004370Y-826079D01*
X3004370Y-826079D02*
X3013894Y-807031D01*
X3013894Y-807031D02*
X3023418Y-797508D01*
X3023418Y-797508D02*
X3042465Y-787984D01*
X3042465Y-787984D02*
X3080561Y-787984D01*
X3080561Y-787984D02*
X3099608Y-797508D01*
X3099608Y-797508D02*
X3109132Y-807031D01*
X3109132Y-807031D02*
X3118656Y-826079D01*
X3118656Y-826079D02*
X3118656Y-835603D01*
X3118656Y-835603D02*
X3109132Y-854650D01*
X3109132Y-854650D02*
X3099608Y-864174D01*
X3099608Y-864174D02*
X3080561Y-873698D01*
X3080561Y-873698D02*
X3042465Y-873698D01*
X3042465Y-873698D02*
X3023418Y-883222D01*
X3023418Y-883222D02*
X3013894Y-892746D01*
X3013894Y-892746D02*
X3004370Y-911793D01*
X3004370Y-911793D02*
X3004370Y-949888D01*
X3004370Y-949888D02*
X3013894Y-968936D01*
X3013894Y-968936D02*
X3023418Y-978460D01*
X3023418Y-978460D02*
X3042465Y-987984D01*
X3042465Y-987984D02*
X3080561Y-987984D01*
X3080561Y-987984D02*
X3099608Y-978460D01*
X3099608Y-978460D02*
X3109132Y-968936D01*
X3109132Y-968936D02*
X3118656Y-949888D01*
X3118656Y-949888D02*
X3118656Y-911793D01*
X3118656Y-911793D02*
X3109132Y-892746D01*
X3109132Y-892746D02*
X3099608Y-883222D01*
X3099608Y-883222D02*
X3080561Y-873698D01*
X3194846Y-787984D02*
X3194846Y-826079D01*
X3271037Y-787984D02*
X3271037Y-826079D01*
X3566275Y-1064174D02*
X3556751Y-1054650D01*
X3556751Y-1054650D02*
X3537704Y-1026079D01*
X3537704Y-1026079D02*
X3528180Y-1007031D01*
X3528180Y-1007031D02*
X3518656Y-978460D01*
X3518656Y-978460D02*
X3509132Y-930841D01*
X3509132Y-930841D02*
X3509132Y-892746D01*
X3509132Y-892746D02*
X3518656Y-845127D01*
X3518656Y-845127D02*
X3528180Y-816555D01*
X3528180Y-816555D02*
X3537704Y-797508D01*
X3537704Y-797508D02*
X3556751Y-768936D01*
X3556751Y-768936D02*
X3566275Y-759412D01*
X3632942Y-807031D02*
X3642466Y-797508D01*
X3642466Y-797508D02*
X3661513Y-787984D01*
X3661513Y-787984D02*
X3709132Y-787984D01*
X3709132Y-787984D02*
X3728180Y-797508D01*
X3728180Y-797508D02*
X3737704Y-807031D01*
X3737704Y-807031D02*
X3747227Y-826079D01*
X3747227Y-826079D02*
X3747227Y-845127D01*
X3747227Y-845127D02*
X3737704Y-873698D01*
X3737704Y-873698D02*
X3623418Y-987984D01*
X3623418Y-987984D02*
X3747227Y-987984D01*
X3985323Y-987984D02*
X3985323Y-787984D01*
X4071037Y-987984D02*
X4071037Y-883222D01*
X4071037Y-883222D02*
X4061513Y-864174D01*
X4061513Y-864174D02*
X4042466Y-854650D01*
X4042466Y-854650D02*
X4013894Y-854650D01*
X4013894Y-854650D02*
X3994847Y-864174D01*
X3994847Y-864174D02*
X3985323Y-873698D01*
X4194847Y-987984D02*
X4175799Y-978460D01*
X4175799Y-978460D02*
X4166275Y-968936D01*
X4166275Y-968936D02*
X4156751Y-949888D01*
X4156751Y-949888D02*
X4156751Y-892746D01*
X4156751Y-892746D02*
X4166275Y-873698D01*
X4166275Y-873698D02*
X4175799Y-864174D01*
X4175799Y-864174D02*
X4194847Y-854650D01*
X4194847Y-854650D02*
X4223418Y-854650D01*
X4223418Y-854650D02*
X4242466Y-864174D01*
X4242466Y-864174D02*
X4251990Y-873698D01*
X4251990Y-873698D02*
X4261513Y-892746D01*
X4261513Y-892746D02*
X4261513Y-949888D01*
X4261513Y-949888D02*
X4251990Y-968936D01*
X4251990Y-968936D02*
X4242466Y-978460D01*
X4242466Y-978460D02*
X4223418Y-987984D01*
X4223418Y-987984D02*
X4194847Y-987984D01*
X4375799Y-987984D02*
X4356751Y-978460D01*
X4356751Y-978460D02*
X4347228Y-959412D01*
X4347228Y-959412D02*
X4347228Y-787984D01*
X4528180Y-978460D02*
X4509132Y-987984D01*
X4509132Y-987984D02*
X4471037Y-987984D01*
X4471037Y-987984D02*
X4451990Y-978460D01*
X4451990Y-978460D02*
X4442466Y-959412D01*
X4442466Y-959412D02*
X4442466Y-883222D01*
X4442466Y-883222D02*
X4451990Y-864174D01*
X4451990Y-864174D02*
X4471037Y-854650D01*
X4471037Y-854650D02*
X4509132Y-854650D01*
X4509132Y-854650D02*
X4528180Y-864174D01*
X4528180Y-864174D02*
X4537704Y-883222D01*
X4537704Y-883222D02*
X4537704Y-902269D01*
X4537704Y-902269D02*
X4442466Y-921317D01*
X4613894Y-978460D02*
X4632942Y-987984D01*
X4632942Y-987984D02*
X4671037Y-987984D01*
X4671037Y-987984D02*
X4690085Y-978460D01*
X4690085Y-978460D02*
X4699609Y-959412D01*
X4699609Y-959412D02*
X4699609Y-949888D01*
X4699609Y-949888D02*
X4690085Y-930841D01*
X4690085Y-930841D02*
X4671037Y-921317D01*
X4671037Y-921317D02*
X4642466Y-921317D01*
X4642466Y-921317D02*
X4623418Y-911793D01*
X4623418Y-911793D02*
X4613894Y-892746D01*
X4613894Y-892746D02*
X4613894Y-883222D01*
X4613894Y-883222D02*
X4623418Y-864174D01*
X4623418Y-864174D02*
X4642466Y-854650D01*
X4642466Y-854650D02*
X4671037Y-854650D01*
X4671037Y-854650D02*
X4690085Y-864174D01*
X4766275Y-1064174D02*
X4775799Y-1054650D01*
X4775799Y-1054650D02*
X4794847Y-1026079D01*
X4794847Y-1026079D02*
X4804371Y-1007031D01*
X4804371Y-1007031D02*
X4813894Y-978460D01*
X4813894Y-978460D02*
X4823418Y-930841D01*
X4823418Y-930841D02*
X4823418Y-892746D01*
X4823418Y-892746D02*
X4813894Y-845127D01*
X4813894Y-845127D02*
X4804371Y-816555D01*
X4804371Y-816555D02*
X4794847Y-797508D01*
X4794847Y-797508D02*
X4775799Y-768936D01*
X4775799Y-768936D02*
X4766275Y-759412D01*
X5128180Y-1064174D02*
X5118656Y-1054650D01*
X5118656Y-1054650D02*
X5099609Y-1026079D01*
X5099609Y-1026079D02*
X5090085Y-1007031D01*
X5090085Y-1007031D02*
X5080561Y-978460D01*
X5080561Y-978460D02*
X5071037Y-930841D01*
X5071037Y-930841D02*
X5071037Y-892746D01*
X5071037Y-892746D02*
X5080561Y-845127D01*
X5080561Y-845127D02*
X5090085Y-816555D01*
X5090085Y-816555D02*
X5099609Y-797508D01*
X5099609Y-797508D02*
X5118656Y-768936D01*
X5118656Y-768936D02*
X5128180Y-759412D01*
X5204371Y-854650D02*
X5204371Y-987984D01*
X5204371Y-873698D02*
X5213894Y-864174D01*
X5213894Y-864174D02*
X5232942Y-854650D01*
X5232942Y-854650D02*
X5261513Y-854650D01*
X5261513Y-854650D02*
X5280561Y-864174D01*
X5280561Y-864174D02*
X5290085Y-883222D01*
X5290085Y-883222D02*
X5290085Y-987984D01*
X5413894Y-987984D02*
X5394847Y-978460D01*
X5394847Y-978460D02*
X5385323Y-968936D01*
X5385323Y-968936D02*
X5375799Y-949888D01*
X5375799Y-949888D02*
X5375799Y-892746D01*
X5375799Y-892746D02*
X5385323Y-873698D01*
X5385323Y-873698D02*
X5394847Y-864174D01*
X5394847Y-864174D02*
X5413894Y-854650D01*
X5413894Y-854650D02*
X5442466Y-854650D01*
X5442466Y-854650D02*
X5461513Y-864174D01*
X5461513Y-864174D02*
X5471037Y-873698D01*
X5471037Y-873698D02*
X5480561Y-892746D01*
X5480561Y-892746D02*
X5480561Y-949888D01*
X5480561Y-949888D02*
X5471037Y-968936D01*
X5471037Y-968936D02*
X5461513Y-978460D01*
X5461513Y-978460D02*
X5442466Y-987984D01*
X5442466Y-987984D02*
X5413894Y-987984D01*
X5537704Y-854650D02*
X5613894Y-854650D01*
X5566275Y-787984D02*
X5566275Y-959412D01*
X5566275Y-959412D02*
X5575799Y-978460D01*
X5575799Y-978460D02*
X5594847Y-987984D01*
X5594847Y-987984D02*
X5613894Y-987984D01*
X5832942Y-854650D02*
X5832942Y-1054650D01*
X5832942Y-864174D02*
X5851990Y-854650D01*
X5851990Y-854650D02*
X5890085Y-854650D01*
X5890085Y-854650D02*
X5909132Y-864174D01*
X5909132Y-864174D02*
X5918656Y-873698D01*
X5918656Y-873698D02*
X5928180Y-892746D01*
X5928180Y-892746D02*
X5928180Y-949888D01*
X5928180Y-949888D02*
X5918656Y-968936D01*
X5918656Y-968936D02*
X5909132Y-978460D01*
X5909132Y-978460D02*
X5890085Y-987984D01*
X5890085Y-987984D02*
X5851990Y-987984D01*
X5851990Y-987984D02*
X5832942Y-978460D01*
X6042466Y-987984D02*
X6023418Y-978460D01*
X6023418Y-978460D02*
X6013894Y-959412D01*
X6013894Y-959412D02*
X6013894Y-787984D01*
X6204371Y-987984D02*
X6204371Y-883222D01*
X6204371Y-883222D02*
X6194847Y-864174D01*
X6194847Y-864174D02*
X6175799Y-854650D01*
X6175799Y-854650D02*
X6137704Y-854650D01*
X6137704Y-854650D02*
X6118656Y-864174D01*
X6204371Y-978460D02*
X6185323Y-987984D01*
X6185323Y-987984D02*
X6137704Y-987984D01*
X6137704Y-987984D02*
X6118656Y-978460D01*
X6118656Y-978460D02*
X6109132Y-959412D01*
X6109132Y-959412D02*
X6109132Y-940365D01*
X6109132Y-940365D02*
X6118656Y-921317D01*
X6118656Y-921317D02*
X6137704Y-911793D01*
X6137704Y-911793D02*
X6185323Y-911793D01*
X6185323Y-911793D02*
X6204371Y-902269D01*
X6271037Y-854650D02*
X6347228Y-854650D01*
X6299609Y-787984D02*
X6299609Y-959412D01*
X6299609Y-959412D02*
X6309132Y-978460D01*
X6309132Y-978460D02*
X6328180Y-987984D01*
X6328180Y-987984D02*
X6347228Y-987984D01*
X6490085Y-978460D02*
X6471037Y-987984D01*
X6471037Y-987984D02*
X6432942Y-987984D01*
X6432942Y-987984D02*
X6413894Y-978460D01*
X6413894Y-978460D02*
X6404371Y-959412D01*
X6404371Y-959412D02*
X6404371Y-883222D01*
X6404371Y-883222D02*
X6413894Y-864174D01*
X6413894Y-864174D02*
X6432942Y-854650D01*
X6432942Y-854650D02*
X6471037Y-854650D01*
X6471037Y-854650D02*
X6490085Y-864174D01*
X6490085Y-864174D02*
X6499609Y-883222D01*
X6499609Y-883222D02*
X6499609Y-902269D01*
X6499609Y-902269D02*
X6404371Y-921317D01*
X6671037Y-987984D02*
X6671037Y-787984D01*
X6671037Y-978460D02*
X6651990Y-987984D01*
X6651990Y-987984D02*
X6613894Y-987984D01*
X6613894Y-987984D02*
X6594847Y-978460D01*
X6594847Y-978460D02*
X6585323Y-968936D01*
X6585323Y-968936D02*
X6575799Y-949888D01*
X6575799Y-949888D02*
X6575799Y-892746D01*
X6575799Y-892746D02*
X6585323Y-873698D01*
X6585323Y-873698D02*
X6594847Y-864174D01*
X6594847Y-864174D02*
X6613894Y-854650D01*
X6613894Y-854650D02*
X6651990Y-854650D01*
X6651990Y-854650D02*
X6671037Y-864174D01*
X6747228Y-1064174D02*
X6756752Y-1054650D01*
X6756752Y-1054650D02*
X6775799Y-1026079D01*
X6775799Y-1026079D02*
X6785323Y-1007031D01*
X6785323Y-1007031D02*
X6794847Y-978460D01*
X6794847Y-978460D02*
X6804371Y-930841D01*
X6804371Y-930841D02*
X6804371Y-892746D01*
X6804371Y-892746D02*
X6794847Y-845127D01*
X6794847Y-845127D02*
X6785323Y-816555D01*
X6785323Y-816555D02*
X6775799Y-797508D01*
X6775799Y-797508D02*
X6756752Y-768936D01*
X6756752Y-768936D02*
X6747228Y-759412D01*
X-8788Y-1206500D02*
G75*
G02*
X-208788Y-1206500I-100000J0D01*
G01*
X-208788Y-1206500D02*
G75*
G02*
X-8788Y-1206500I100000J0D01*
G01*
X242465Y-1117031D02*
X251989Y-1107508D01*
X251989Y-1107508D02*
X271037Y-1097984D01*
X271037Y-1097984D02*
X318656Y-1097984D01*
X318656Y-1097984D02*
X337703Y-1107508D01*
X337703Y-1107508D02*
X347227Y-1117031D01*
X347227Y-1117031D02*
X356751Y-1136079D01*
X356751Y-1136079D02*
X356751Y-1155127D01*
X356751Y-1155127D02*
X347227Y-1183698D01*
X347227Y-1183698D02*
X232941Y-1297984D01*
X232941Y-1297984D02*
X356751Y-1297984D01*
X442465Y-1278936D02*
X451989Y-1288460D01*
X451989Y-1288460D02*
X442465Y-1297984D01*
X442465Y-1297984D02*
X432941Y-1288460D01*
X432941Y-1288460D02*
X442465Y-1278936D01*
X442465Y-1278936D02*
X442465Y-1297984D01*
X632942Y-1097984D02*
X537703Y-1097984D01*
X537703Y-1097984D02*
X528180Y-1193222D01*
X528180Y-1193222D02*
X537703Y-1183698D01*
X537703Y-1183698D02*
X556751Y-1174174D01*
X556751Y-1174174D02*
X604370Y-1174174D01*
X604370Y-1174174D02*
X623418Y-1183698D01*
X623418Y-1183698D02*
X632942Y-1193222D01*
X632942Y-1193222D02*
X642465Y-1212270D01*
X642465Y-1212270D02*
X642465Y-1259889D01*
X642465Y-1259889D02*
X632942Y-1278936D01*
X632942Y-1278936D02*
X623418Y-1288460D01*
X623418Y-1288460D02*
X604370Y-1297984D01*
X604370Y-1297984D02*
X556751Y-1297984D01*
X556751Y-1297984D02*
X537703Y-1288460D01*
X537703Y-1288460D02*
X528180Y-1278936D01*
X813894Y-1164650D02*
X813894Y-1297984D01*
X766275Y-1088460D02*
X718656Y-1231317D01*
X718656Y-1231317D02*
X842465Y-1231317D01*
X956751Y-1097984D02*
X975799Y-1097984D01*
X975799Y-1097984D02*
X994846Y-1107508D01*
X994846Y-1107508D02*
X1004370Y-1117031D01*
X1004370Y-1117031D02*
X1013894Y-1136079D01*
X1013894Y-1136079D02*
X1023418Y-1174174D01*
X1023418Y-1174174D02*
X1023418Y-1221793D01*
X1023418Y-1221793D02*
X1013894Y-1259889D01*
X1013894Y-1259889D02*
X1004370Y-1278936D01*
X1004370Y-1278936D02*
X994846Y-1288460D01*
X994846Y-1288460D02*
X975799Y-1297984D01*
X975799Y-1297984D02*
X956751Y-1297984D01*
X956751Y-1297984D02*
X937703Y-1288460D01*
X937703Y-1288460D02*
X928180Y-1278936D01*
X928180Y-1278936D02*
X918656Y-1259889D01*
X918656Y-1259889D02*
X909132Y-1221793D01*
X909132Y-1221793D02*
X909132Y-1174174D01*
X909132Y-1174174D02*
X918656Y-1136079D01*
X918656Y-1136079D02*
X928180Y-1117031D01*
X928180Y-1117031D02*
X937703Y-1107508D01*
X937703Y-1107508D02*
X956751Y-1097984D01*
X1109132Y-1297984D02*
X1109132Y-1164650D01*
X1109132Y-1183698D02*
X1118656Y-1174174D01*
X1118656Y-1174174D02*
X1137703Y-1164650D01*
X1137703Y-1164650D02*
X1166275Y-1164650D01*
X1166275Y-1164650D02*
X1185323Y-1174174D01*
X1185323Y-1174174D02*
X1194846Y-1193222D01*
X1194846Y-1193222D02*
X1194846Y-1297984D01*
X1194846Y-1193222D02*
X1204370Y-1174174D01*
X1204370Y-1174174D02*
X1223418Y-1164650D01*
X1223418Y-1164650D02*
X1251989Y-1164650D01*
X1251989Y-1164650D02*
X1271037Y-1174174D01*
X1271037Y-1174174D02*
X1280561Y-1193222D01*
X1280561Y-1193222D02*
X1280561Y-1297984D01*
X1375799Y-1297984D02*
X1375799Y-1164650D01*
X1375799Y-1183698D02*
X1385323Y-1174174D01*
X1385323Y-1174174D02*
X1404370Y-1164650D01*
X1404370Y-1164650D02*
X1432942Y-1164650D01*
X1432942Y-1164650D02*
X1451989Y-1174174D01*
X1451989Y-1174174D02*
X1461513Y-1193222D01*
X1461513Y-1193222D02*
X1461513Y-1297984D01*
X1461513Y-1193222D02*
X1471037Y-1174174D01*
X1471037Y-1174174D02*
X1490084Y-1164650D01*
X1490084Y-1164650D02*
X1518656Y-1164650D01*
X1518656Y-1164650D02*
X1537703Y-1174174D01*
X1537703Y-1174174D02*
X1547227Y-1193222D01*
X1547227Y-1193222D02*
X1547227Y-1297984D01*
X1937703Y-1088460D02*
X1766275Y-1345603D01*
X2194846Y-1097984D02*
X2213894Y-1097984D01*
X2213894Y-1097984D02*
X2232942Y-1107508D01*
X2232942Y-1107508D02*
X2242466Y-1117031D01*
X2242466Y-1117031D02*
X2251989Y-1136079D01*
X2251989Y-1136079D02*
X2261513Y-1174174D01*
X2261513Y-1174174D02*
X2261513Y-1221793D01*
X2261513Y-1221793D02*
X2251989Y-1259889D01*
X2251989Y-1259889D02*
X2242466Y-1278936D01*
X2242466Y-1278936D02*
X2232942Y-1288460D01*
X2232942Y-1288460D02*
X2213894Y-1297984D01*
X2213894Y-1297984D02*
X2194846Y-1297984D01*
X2194846Y-1297984D02*
X2175799Y-1288460D01*
X2175799Y-1288460D02*
X2166275Y-1278936D01*
X2166275Y-1278936D02*
X2156751Y-1259889D01*
X2156751Y-1259889D02*
X2147227Y-1221793D01*
X2147227Y-1221793D02*
X2147227Y-1174174D01*
X2147227Y-1174174D02*
X2156751Y-1136079D01*
X2156751Y-1136079D02*
X2166275Y-1117031D01*
X2166275Y-1117031D02*
X2175799Y-1107508D01*
X2175799Y-1107508D02*
X2194846Y-1097984D01*
X2347227Y-1278936D02*
X2356751Y-1288460D01*
X2356751Y-1288460D02*
X2347227Y-1297984D01*
X2347227Y-1297984D02*
X2337704Y-1288460D01*
X2337704Y-1288460D02*
X2347227Y-1278936D01*
X2347227Y-1278936D02*
X2347227Y-1297984D01*
X2547227Y-1297984D02*
X2432942Y-1297984D01*
X2490085Y-1297984D02*
X2490085Y-1097984D01*
X2490085Y-1097984D02*
X2471037Y-1126555D01*
X2471037Y-1126555D02*
X2451989Y-1145603D01*
X2451989Y-1145603D02*
X2432942Y-1155127D01*
X2671037Y-1097984D02*
X2690085Y-1097984D01*
X2690085Y-1097984D02*
X2709132Y-1107508D01*
X2709132Y-1107508D02*
X2718656Y-1117031D01*
X2718656Y-1117031D02*
X2728180Y-1136079D01*
X2728180Y-1136079D02*
X2737704Y-1174174D01*
X2737704Y-1174174D02*
X2737704Y-1221793D01*
X2737704Y-1221793D02*
X2728180Y-1259889D01*
X2728180Y-1259889D02*
X2718656Y-1278936D01*
X2718656Y-1278936D02*
X2709132Y-1288460D01*
X2709132Y-1288460D02*
X2690085Y-1297984D01*
X2690085Y-1297984D02*
X2671037Y-1297984D01*
X2671037Y-1297984D02*
X2651989Y-1288460D01*
X2651989Y-1288460D02*
X2642466Y-1278936D01*
X2642466Y-1278936D02*
X2632942Y-1259889D01*
X2632942Y-1259889D02*
X2623418Y-1221793D01*
X2623418Y-1221793D02*
X2623418Y-1174174D01*
X2623418Y-1174174D02*
X2632942Y-1136079D01*
X2632942Y-1136079D02*
X2642466Y-1117031D01*
X2642466Y-1117031D02*
X2651989Y-1107508D01*
X2651989Y-1107508D02*
X2671037Y-1097984D01*
X2861513Y-1097984D02*
X2880561Y-1097984D01*
X2880561Y-1097984D02*
X2899608Y-1107508D01*
X2899608Y-1107508D02*
X2909132Y-1117031D01*
X2909132Y-1117031D02*
X2918656Y-1136079D01*
X2918656Y-1136079D02*
X2928180Y-1174174D01*
X2928180Y-1174174D02*
X2928180Y-1221793D01*
X2928180Y-1221793D02*
X2918656Y-1259889D01*
X2918656Y-1259889D02*
X2909132Y-1278936D01*
X2909132Y-1278936D02*
X2899608Y-1288460D01*
X2899608Y-1288460D02*
X2880561Y-1297984D01*
X2880561Y-1297984D02*
X2861513Y-1297984D01*
X2861513Y-1297984D02*
X2842465Y-1288460D01*
X2842465Y-1288460D02*
X2832942Y-1278936D01*
X2832942Y-1278936D02*
X2823418Y-1259889D01*
X2823418Y-1259889D02*
X2813894Y-1221793D01*
X2813894Y-1221793D02*
X2813894Y-1174174D01*
X2813894Y-1174174D02*
X2823418Y-1136079D01*
X2823418Y-1136079D02*
X2832942Y-1117031D01*
X2832942Y-1117031D02*
X2842465Y-1107508D01*
X2842465Y-1107508D02*
X2861513Y-1097984D01*
X3051989Y-1097984D02*
X3071037Y-1097984D01*
X3071037Y-1097984D02*
X3090085Y-1107508D01*
X3090085Y-1107508D02*
X3099608Y-1117031D01*
X3099608Y-1117031D02*
X3109132Y-1136079D01*
X3109132Y-1136079D02*
X3118656Y-1174174D01*
X3118656Y-1174174D02*
X3118656Y-1221793D01*
X3118656Y-1221793D02*
X3109132Y-1259889D01*
X3109132Y-1259889D02*
X3099608Y-1278936D01*
X3099608Y-1278936D02*
X3090085Y-1288460D01*
X3090085Y-1288460D02*
X3071037Y-1297984D01*
X3071037Y-1297984D02*
X3051989Y-1297984D01*
X3051989Y-1297984D02*
X3032942Y-1288460D01*
X3032942Y-1288460D02*
X3023418Y-1278936D01*
X3023418Y-1278936D02*
X3013894Y-1259889D01*
X3013894Y-1259889D02*
X3004370Y-1221793D01*
X3004370Y-1221793D02*
X3004370Y-1174174D01*
X3004370Y-1174174D02*
X3013894Y-1136079D01*
X3013894Y-1136079D02*
X3023418Y-1117031D01*
X3023418Y-1117031D02*
X3032942Y-1107508D01*
X3032942Y-1107508D02*
X3051989Y-1097984D01*
X3194846Y-1097984D02*
X3194846Y-1136079D01*
X3271037Y-1097984D02*
X3271037Y-1136079D01*
X3566275Y-1374174D02*
X3556751Y-1364650D01*
X3556751Y-1364650D02*
X3537704Y-1336079D01*
X3537704Y-1336079D02*
X3528180Y-1317031D01*
X3528180Y-1317031D02*
X3518656Y-1288460D01*
X3518656Y-1288460D02*
X3509132Y-1240841D01*
X3509132Y-1240841D02*
X3509132Y-1202746D01*
X3509132Y-1202746D02*
X3518656Y-1155127D01*
X3518656Y-1155127D02*
X3528180Y-1126555D01*
X3528180Y-1126555D02*
X3537704Y-1107508D01*
X3537704Y-1107508D02*
X3556751Y-1078936D01*
X3556751Y-1078936D02*
X3566275Y-1069412D01*
X3632942Y-1117031D02*
X3642466Y-1107508D01*
X3642466Y-1107508D02*
X3661513Y-1097984D01*
X3661513Y-1097984D02*
X3709132Y-1097984D01*
X3709132Y-1097984D02*
X3728180Y-1107508D01*
X3728180Y-1107508D02*
X3737704Y-1117031D01*
X3737704Y-1117031D02*
X3747227Y-1136079D01*
X3747227Y-1136079D02*
X3747227Y-1155127D01*
X3747227Y-1155127D02*
X3737704Y-1183698D01*
X3737704Y-1183698D02*
X3623418Y-1297984D01*
X3623418Y-1297984D02*
X3747227Y-1297984D01*
X3985323Y-1297984D02*
X3985323Y-1097984D01*
X4071037Y-1297984D02*
X4071037Y-1193222D01*
X4071037Y-1193222D02*
X4061513Y-1174174D01*
X4061513Y-1174174D02*
X4042466Y-1164650D01*
X4042466Y-1164650D02*
X4013894Y-1164650D01*
X4013894Y-1164650D02*
X3994847Y-1174174D01*
X3994847Y-1174174D02*
X3985323Y-1183698D01*
X4194847Y-1297984D02*
X4175799Y-1288460D01*
X4175799Y-1288460D02*
X4166275Y-1278936D01*
X4166275Y-1278936D02*
X4156751Y-1259889D01*
X4156751Y-1259889D02*
X4156751Y-1202746D01*
X4156751Y-1202746D02*
X4166275Y-1183698D01*
X4166275Y-1183698D02*
X4175799Y-1174174D01*
X4175799Y-1174174D02*
X4194847Y-1164650D01*
X4194847Y-1164650D02*
X4223418Y-1164650D01*
X4223418Y-1164650D02*
X4242466Y-1174174D01*
X4242466Y-1174174D02*
X4251990Y-1183698D01*
X4251990Y-1183698D02*
X4261513Y-1202746D01*
X4261513Y-1202746D02*
X4261513Y-1259889D01*
X4261513Y-1259889D02*
X4251990Y-1278936D01*
X4251990Y-1278936D02*
X4242466Y-1288460D01*
X4242466Y-1288460D02*
X4223418Y-1297984D01*
X4223418Y-1297984D02*
X4194847Y-1297984D01*
X4375799Y-1297984D02*
X4356751Y-1288460D01*
X4356751Y-1288460D02*
X4347228Y-1269412D01*
X4347228Y-1269412D02*
X4347228Y-1097984D01*
X4528180Y-1288460D02*
X4509132Y-1297984D01*
X4509132Y-1297984D02*
X4471037Y-1297984D01*
X4471037Y-1297984D02*
X4451990Y-1288460D01*
X4451990Y-1288460D02*
X4442466Y-1269412D01*
X4442466Y-1269412D02*
X4442466Y-1193222D01*
X4442466Y-1193222D02*
X4451990Y-1174174D01*
X4451990Y-1174174D02*
X4471037Y-1164650D01*
X4471037Y-1164650D02*
X4509132Y-1164650D01*
X4509132Y-1164650D02*
X4528180Y-1174174D01*
X4528180Y-1174174D02*
X4537704Y-1193222D01*
X4537704Y-1193222D02*
X4537704Y-1212270D01*
X4537704Y-1212270D02*
X4442466Y-1231317D01*
X4613894Y-1288460D02*
X4632942Y-1297984D01*
X4632942Y-1297984D02*
X4671037Y-1297984D01*
X4671037Y-1297984D02*
X4690085Y-1288460D01*
X4690085Y-1288460D02*
X4699609Y-1269412D01*
X4699609Y-1269412D02*
X4699609Y-1259889D01*
X4699609Y-1259889D02*
X4690085Y-1240841D01*
X4690085Y-1240841D02*
X4671037Y-1231317D01*
X4671037Y-1231317D02*
X4642466Y-1231317D01*
X4642466Y-1231317D02*
X4623418Y-1221793D01*
X4623418Y-1221793D02*
X4613894Y-1202746D01*
X4613894Y-1202746D02*
X4613894Y-1193222D01*
X4613894Y-1193222D02*
X4623418Y-1174174D01*
X4623418Y-1174174D02*
X4642466Y-1164650D01*
X4642466Y-1164650D02*
X4671037Y-1164650D01*
X4671037Y-1164650D02*
X4690085Y-1174174D01*
X4766275Y-1374174D02*
X4775799Y-1364650D01*
X4775799Y-1364650D02*
X4794847Y-1336079D01*
X4794847Y-1336079D02*
X4804371Y-1317031D01*
X4804371Y-1317031D02*
X4813894Y-1288460D01*
X4813894Y-1288460D02*
X4823418Y-1240841D01*
X4823418Y-1240841D02*
X4823418Y-1202746D01*
X4823418Y-1202746D02*
X4813894Y-1155127D01*
X4813894Y-1155127D02*
X4804371Y-1126555D01*
X4804371Y-1126555D02*
X4794847Y-1107508D01*
X4794847Y-1107508D02*
X4775799Y-1078936D01*
X4775799Y-1078936D02*
X4766275Y-1069412D01*
X5128180Y-1374174D02*
X5118656Y-1364650D01*
X5118656Y-1364650D02*
X5099609Y-1336079D01*
X5099609Y-1336079D02*
X5090085Y-1317031D01*
X5090085Y-1317031D02*
X5080561Y-1288460D01*
X5080561Y-1288460D02*
X5071037Y-1240841D01*
X5071037Y-1240841D02*
X5071037Y-1202746D01*
X5071037Y-1202746D02*
X5080561Y-1155127D01*
X5080561Y-1155127D02*
X5090085Y-1126555D01*
X5090085Y-1126555D02*
X5099609Y-1107508D01*
X5099609Y-1107508D02*
X5118656Y-1078936D01*
X5118656Y-1078936D02*
X5128180Y-1069412D01*
X5204371Y-1164650D02*
X5204371Y-1297984D01*
X5204371Y-1183698D02*
X5213894Y-1174174D01*
X5213894Y-1174174D02*
X5232942Y-1164650D01*
X5232942Y-1164650D02*
X5261513Y-1164650D01*
X5261513Y-1164650D02*
X5280561Y-1174174D01*
X5280561Y-1174174D02*
X5290085Y-1193222D01*
X5290085Y-1193222D02*
X5290085Y-1297984D01*
X5413894Y-1297984D02*
X5394847Y-1288460D01*
X5394847Y-1288460D02*
X5385323Y-1278936D01*
X5385323Y-1278936D02*
X5375799Y-1259889D01*
X5375799Y-1259889D02*
X5375799Y-1202746D01*
X5375799Y-1202746D02*
X5385323Y-1183698D01*
X5385323Y-1183698D02*
X5394847Y-1174174D01*
X5394847Y-1174174D02*
X5413894Y-1164650D01*
X5413894Y-1164650D02*
X5442466Y-1164650D01*
X5442466Y-1164650D02*
X5461513Y-1174174D01*
X5461513Y-1174174D02*
X5471037Y-1183698D01*
X5471037Y-1183698D02*
X5480561Y-1202746D01*
X5480561Y-1202746D02*
X5480561Y-1259889D01*
X5480561Y-1259889D02*
X5471037Y-1278936D01*
X5471037Y-1278936D02*
X5461513Y-1288460D01*
X5461513Y-1288460D02*
X5442466Y-1297984D01*
X5442466Y-1297984D02*
X5413894Y-1297984D01*
X5537704Y-1164650D02*
X5613894Y-1164650D01*
X5566275Y-1097984D02*
X5566275Y-1269412D01*
X5566275Y-1269412D02*
X5575799Y-1288460D01*
X5575799Y-1288460D02*
X5594847Y-1297984D01*
X5594847Y-1297984D02*
X5613894Y-1297984D01*
X5832942Y-1164650D02*
X5832942Y-1364650D01*
X5832942Y-1174174D02*
X5851990Y-1164650D01*
X5851990Y-1164650D02*
X5890085Y-1164650D01*
X5890085Y-1164650D02*
X5909132Y-1174174D01*
X5909132Y-1174174D02*
X5918656Y-1183698D01*
X5918656Y-1183698D02*
X5928180Y-1202746D01*
X5928180Y-1202746D02*
X5928180Y-1259889D01*
X5928180Y-1259889D02*
X5918656Y-1278936D01*
X5918656Y-1278936D02*
X5909132Y-1288460D01*
X5909132Y-1288460D02*
X5890085Y-1297984D01*
X5890085Y-1297984D02*
X5851990Y-1297984D01*
X5851990Y-1297984D02*
X5832942Y-1288460D01*
X6042466Y-1297984D02*
X6023418Y-1288460D01*
X6023418Y-1288460D02*
X6013894Y-1269412D01*
X6013894Y-1269412D02*
X6013894Y-1097984D01*
X6204371Y-1297984D02*
X6204371Y-1193222D01*
X6204371Y-1193222D02*
X6194847Y-1174174D01*
X6194847Y-1174174D02*
X6175799Y-1164650D01*
X6175799Y-1164650D02*
X6137704Y-1164650D01*
X6137704Y-1164650D02*
X6118656Y-1174174D01*
X6204371Y-1288460D02*
X6185323Y-1297984D01*
X6185323Y-1297984D02*
X6137704Y-1297984D01*
X6137704Y-1297984D02*
X6118656Y-1288460D01*
X6118656Y-1288460D02*
X6109132Y-1269412D01*
X6109132Y-1269412D02*
X6109132Y-1250365D01*
X6109132Y-1250365D02*
X6118656Y-1231317D01*
X6118656Y-1231317D02*
X6137704Y-1221793D01*
X6137704Y-1221793D02*
X6185323Y-1221793D01*
X6185323Y-1221793D02*
X6204371Y-1212270D01*
X6271037Y-1164650D02*
X6347228Y-1164650D01*
X6299609Y-1097984D02*
X6299609Y-1269412D01*
X6299609Y-1269412D02*
X6309132Y-1288460D01*
X6309132Y-1288460D02*
X6328180Y-1297984D01*
X6328180Y-1297984D02*
X6347228Y-1297984D01*
X6490085Y-1288460D02*
X6471037Y-1297984D01*
X6471037Y-1297984D02*
X6432942Y-1297984D01*
X6432942Y-1297984D02*
X6413894Y-1288460D01*
X6413894Y-1288460D02*
X6404371Y-1269412D01*
X6404371Y-1269412D02*
X6404371Y-1193222D01*
X6404371Y-1193222D02*
X6413894Y-1174174D01*
X6413894Y-1174174D02*
X6432942Y-1164650D01*
X6432942Y-1164650D02*
X6471037Y-1164650D01*
X6471037Y-1164650D02*
X6490085Y-1174174D01*
X6490085Y-1174174D02*
X6499609Y-1193222D01*
X6499609Y-1193222D02*
X6499609Y-1212270D01*
X6499609Y-1212270D02*
X6404371Y-1231317D01*
X6671037Y-1297984D02*
X6671037Y-1097984D01*
X6671037Y-1288460D02*
X6651990Y-1297984D01*
X6651990Y-1297984D02*
X6613894Y-1297984D01*
X6613894Y-1297984D02*
X6594847Y-1288460D01*
X6594847Y-1288460D02*
X6585323Y-1278936D01*
X6585323Y-1278936D02*
X6575799Y-1259889D01*
X6575799Y-1259889D02*
X6575799Y-1202746D01*
X6575799Y-1202746D02*
X6585323Y-1183698D01*
X6585323Y-1183698D02*
X6594847Y-1174174D01*
X6594847Y-1174174D02*
X6613894Y-1164650D01*
X6613894Y-1164650D02*
X6651990Y-1164650D01*
X6651990Y-1164650D02*
X6671037Y-1174174D01*
X6747228Y-1374174D02*
X6756752Y-1364650D01*
X6756752Y-1364650D02*
X6775799Y-1336079D01*
X6775799Y-1336079D02*
X6785323Y-1317031D01*
X6785323Y-1317031D02*
X6794847Y-1288460D01*
X6794847Y-1288460D02*
X6804371Y-1240841D01*
X6804371Y-1240841D02*
X6804371Y-1202746D01*
X6804371Y-1202746D02*
X6794847Y-1155127D01*
X6794847Y-1155127D02*
X6785323Y-1126555D01*
X6785323Y-1126555D02*
X6775799Y-1107508D01*
X6775799Y-1107508D02*
X6756752Y-1078936D01*
X6756752Y-1078936D02*
X6747228Y-1069412D01*
X-108788Y-1426500D02*
X-108788Y-1626500D01*
X-208788Y-1526500D02*
X-8788Y-1526500D01*
X232941Y-1417984D02*
X356751Y-1417984D01*
X356751Y-1417984D02*
X290084Y-1494174D01*
X290084Y-1494174D02*
X318656Y-1494174D01*
X318656Y-1494174D02*
X337703Y-1503698D01*
X337703Y-1503698D02*
X347227Y-1513222D01*
X347227Y-1513222D02*
X356751Y-1532269D01*
X356751Y-1532269D02*
X356751Y-1579888D01*
X356751Y-1579888D02*
X347227Y-1598936D01*
X347227Y-1598936D02*
X337703Y-1608460D01*
X337703Y-1608460D02*
X318656Y-1617984D01*
X318656Y-1617984D02*
X261513Y-1617984D01*
X261513Y-1617984D02*
X242465Y-1608460D01*
X242465Y-1608460D02*
X232941Y-1598936D01*
X442465Y-1598936D02*
X451989Y-1608460D01*
X451989Y-1608460D02*
X442465Y-1617984D01*
X442465Y-1617984D02*
X432941Y-1608460D01*
X432941Y-1608460D02*
X442465Y-1598936D01*
X442465Y-1598936D02*
X442465Y-1617984D01*
X575799Y-1417984D02*
X594846Y-1417984D01*
X594846Y-1417984D02*
X613894Y-1427508D01*
X613894Y-1427508D02*
X623418Y-1437031D01*
X623418Y-1437031D02*
X632942Y-1456079D01*
X632942Y-1456079D02*
X642465Y-1494174D01*
X642465Y-1494174D02*
X642465Y-1541793D01*
X642465Y-1541793D02*
X632942Y-1579888D01*
X632942Y-1579888D02*
X623418Y-1598936D01*
X623418Y-1598936D02*
X613894Y-1608460D01*
X613894Y-1608460D02*
X594846Y-1617984D01*
X594846Y-1617984D02*
X575799Y-1617984D01*
X575799Y-1617984D02*
X556751Y-1608460D01*
X556751Y-1608460D02*
X547227Y-1598936D01*
X547227Y-1598936D02*
X537703Y-1579888D01*
X537703Y-1579888D02*
X528180Y-1541793D01*
X528180Y-1541793D02*
X528180Y-1494174D01*
X528180Y-1494174D02*
X537703Y-1456079D01*
X537703Y-1456079D02*
X547227Y-1437031D01*
X547227Y-1437031D02*
X556751Y-1427508D01*
X556751Y-1427508D02*
X575799Y-1417984D01*
X766275Y-1417984D02*
X785322Y-1417984D01*
X785322Y-1417984D02*
X804370Y-1427508D01*
X804370Y-1427508D02*
X813894Y-1437031D01*
X813894Y-1437031D02*
X823418Y-1456079D01*
X823418Y-1456079D02*
X832941Y-1494174D01*
X832941Y-1494174D02*
X832941Y-1541793D01*
X832941Y-1541793D02*
X823418Y-1579888D01*
X823418Y-1579888D02*
X813894Y-1598936D01*
X813894Y-1598936D02*
X804370Y-1608460D01*
X804370Y-1608460D02*
X785322Y-1617984D01*
X785322Y-1617984D02*
X766275Y-1617984D01*
X766275Y-1617984D02*
X747227Y-1608460D01*
X747227Y-1608460D02*
X737703Y-1598936D01*
X737703Y-1598936D02*
X728180Y-1579888D01*
X728180Y-1579888D02*
X718656Y-1541793D01*
X718656Y-1541793D02*
X718656Y-1494174D01*
X718656Y-1494174D02*
X728180Y-1456079D01*
X728180Y-1456079D02*
X737703Y-1437031D01*
X737703Y-1437031D02*
X747227Y-1427508D01*
X747227Y-1427508D02*
X766275Y-1417984D01*
X956751Y-1417984D02*
X975799Y-1417984D01*
X975799Y-1417984D02*
X994846Y-1427508D01*
X994846Y-1427508D02*
X1004370Y-1437031D01*
X1004370Y-1437031D02*
X1013894Y-1456079D01*
X1013894Y-1456079D02*
X1023418Y-1494174D01*
X1023418Y-1494174D02*
X1023418Y-1541793D01*
X1023418Y-1541793D02*
X1013894Y-1579888D01*
X1013894Y-1579888D02*
X1004370Y-1598936D01*
X1004370Y-1598936D02*
X994846Y-1608460D01*
X994846Y-1608460D02*
X975799Y-1617984D01*
X975799Y-1617984D02*
X956751Y-1617984D01*
X956751Y-1617984D02*
X937703Y-1608460D01*
X937703Y-1608460D02*
X928180Y-1598936D01*
X928180Y-1598936D02*
X918656Y-1579888D01*
X918656Y-1579888D02*
X909132Y-1541793D01*
X909132Y-1541793D02*
X909132Y-1494174D01*
X909132Y-1494174D02*
X918656Y-1456079D01*
X918656Y-1456079D02*
X928180Y-1437031D01*
X928180Y-1437031D02*
X937703Y-1427508D01*
X937703Y-1427508D02*
X956751Y-1417984D01*
X1109132Y-1617984D02*
X1109132Y-1484650D01*
X1109132Y-1503698D02*
X1118656Y-1494174D01*
X1118656Y-1494174D02*
X1137703Y-1484650D01*
X1137703Y-1484650D02*
X1166275Y-1484650D01*
X1166275Y-1484650D02*
X1185323Y-1494174D01*
X1185323Y-1494174D02*
X1194846Y-1513222D01*
X1194846Y-1513222D02*
X1194846Y-1617984D01*
X1194846Y-1513222D02*
X1204370Y-1494174D01*
X1204370Y-1494174D02*
X1223418Y-1484650D01*
X1223418Y-1484650D02*
X1251989Y-1484650D01*
X1251989Y-1484650D02*
X1271037Y-1494174D01*
X1271037Y-1494174D02*
X1280561Y-1513222D01*
X1280561Y-1513222D02*
X1280561Y-1617984D01*
X1375799Y-1617984D02*
X1375799Y-1484650D01*
X1375799Y-1503698D02*
X1385323Y-1494174D01*
X1385323Y-1494174D02*
X1404370Y-1484650D01*
X1404370Y-1484650D02*
X1432942Y-1484650D01*
X1432942Y-1484650D02*
X1451989Y-1494174D01*
X1451989Y-1494174D02*
X1461513Y-1513222D01*
X1461513Y-1513222D02*
X1461513Y-1617984D01*
X1461513Y-1513222D02*
X1471037Y-1494174D01*
X1471037Y-1494174D02*
X1490084Y-1484650D01*
X1490084Y-1484650D02*
X1518656Y-1484650D01*
X1518656Y-1484650D02*
X1537703Y-1494174D01*
X1537703Y-1494174D02*
X1547227Y-1513222D01*
X1547227Y-1513222D02*
X1547227Y-1617984D01*
X1937703Y-1408460D02*
X1766275Y-1665603D01*
X2194846Y-1417984D02*
X2213894Y-1417984D01*
X2213894Y-1417984D02*
X2232942Y-1427508D01*
X2232942Y-1427508D02*
X2242466Y-1437031D01*
X2242466Y-1437031D02*
X2251989Y-1456079D01*
X2251989Y-1456079D02*
X2261513Y-1494174D01*
X2261513Y-1494174D02*
X2261513Y-1541793D01*
X2261513Y-1541793D02*
X2251989Y-1579888D01*
X2251989Y-1579888D02*
X2242466Y-1598936D01*
X2242466Y-1598936D02*
X2232942Y-1608460D01*
X2232942Y-1608460D02*
X2213894Y-1617984D01*
X2213894Y-1617984D02*
X2194846Y-1617984D01*
X2194846Y-1617984D02*
X2175799Y-1608460D01*
X2175799Y-1608460D02*
X2166275Y-1598936D01*
X2166275Y-1598936D02*
X2156751Y-1579888D01*
X2156751Y-1579888D02*
X2147227Y-1541793D01*
X2147227Y-1541793D02*
X2147227Y-1494174D01*
X2147227Y-1494174D02*
X2156751Y-1456079D01*
X2156751Y-1456079D02*
X2166275Y-1437031D01*
X2166275Y-1437031D02*
X2175799Y-1427508D01*
X2175799Y-1427508D02*
X2194846Y-1417984D01*
X2347227Y-1598936D02*
X2356751Y-1608460D01*
X2356751Y-1608460D02*
X2347227Y-1617984D01*
X2347227Y-1617984D02*
X2337704Y-1608460D01*
X2337704Y-1608460D02*
X2347227Y-1598936D01*
X2347227Y-1598936D02*
X2347227Y-1617984D01*
X2547227Y-1617984D02*
X2432942Y-1617984D01*
X2490085Y-1617984D02*
X2490085Y-1417984D01*
X2490085Y-1417984D02*
X2471037Y-1446555D01*
X2471037Y-1446555D02*
X2451989Y-1465603D01*
X2451989Y-1465603D02*
X2432942Y-1475127D01*
X2737704Y-1617984D02*
X2623418Y-1617984D01*
X2680561Y-1617984D02*
X2680561Y-1417984D01*
X2680561Y-1417984D02*
X2661513Y-1446555D01*
X2661513Y-1446555D02*
X2642466Y-1465603D01*
X2642466Y-1465603D02*
X2623418Y-1475127D01*
X2851989Y-1503698D02*
X2832942Y-1494174D01*
X2832942Y-1494174D02*
X2823418Y-1484650D01*
X2823418Y-1484650D02*
X2813894Y-1465603D01*
X2813894Y-1465603D02*
X2813894Y-1456079D01*
X2813894Y-1456079D02*
X2823418Y-1437031D01*
X2823418Y-1437031D02*
X2832942Y-1427508D01*
X2832942Y-1427508D02*
X2851989Y-1417984D01*
X2851989Y-1417984D02*
X2890085Y-1417984D01*
X2890085Y-1417984D02*
X2909132Y-1427508D01*
X2909132Y-1427508D02*
X2918656Y-1437031D01*
X2918656Y-1437031D02*
X2928180Y-1456079D01*
X2928180Y-1456079D02*
X2928180Y-1465603D01*
X2928180Y-1465603D02*
X2918656Y-1484650D01*
X2918656Y-1484650D02*
X2909132Y-1494174D01*
X2909132Y-1494174D02*
X2890085Y-1503698D01*
X2890085Y-1503698D02*
X2851989Y-1503698D01*
X2851989Y-1503698D02*
X2832942Y-1513222D01*
X2832942Y-1513222D02*
X2823418Y-1522746D01*
X2823418Y-1522746D02*
X2813894Y-1541793D01*
X2813894Y-1541793D02*
X2813894Y-1579888D01*
X2813894Y-1579888D02*
X2823418Y-1598936D01*
X2823418Y-1598936D02*
X2832942Y-1608460D01*
X2832942Y-1608460D02*
X2851989Y-1617984D01*
X2851989Y-1617984D02*
X2890085Y-1617984D01*
X2890085Y-1617984D02*
X2909132Y-1608460D01*
X2909132Y-1608460D02*
X2918656Y-1598936D01*
X2918656Y-1598936D02*
X2928180Y-1579888D01*
X2928180Y-1579888D02*
X2928180Y-1541793D01*
X2928180Y-1541793D02*
X2918656Y-1522746D01*
X2918656Y-1522746D02*
X2909132Y-1513222D01*
X2909132Y-1513222D02*
X2890085Y-1503698D01*
X3118656Y-1617984D02*
X3004370Y-1617984D01*
X3061513Y-1617984D02*
X3061513Y-1417984D01*
X3061513Y-1417984D02*
X3042465Y-1446555D01*
X3042465Y-1446555D02*
X3023418Y-1465603D01*
X3023418Y-1465603D02*
X3004370Y-1475127D01*
X3194846Y-1417984D02*
X3194846Y-1456079D01*
X3271037Y-1417984D02*
X3271037Y-1456079D01*
X3566275Y-1694174D02*
X3556751Y-1684650D01*
X3556751Y-1684650D02*
X3537704Y-1656079D01*
X3537704Y-1656079D02*
X3528180Y-1637031D01*
X3528180Y-1637031D02*
X3518656Y-1608460D01*
X3518656Y-1608460D02*
X3509132Y-1560841D01*
X3509132Y-1560841D02*
X3509132Y-1522746D01*
X3509132Y-1522746D02*
X3518656Y-1475127D01*
X3518656Y-1475127D02*
X3528180Y-1446555D01*
X3528180Y-1446555D02*
X3537704Y-1427508D01*
X3537704Y-1427508D02*
X3556751Y-1398936D01*
X3556751Y-1398936D02*
X3566275Y-1389412D01*
X3632942Y-1437031D02*
X3642466Y-1427508D01*
X3642466Y-1427508D02*
X3661513Y-1417984D01*
X3661513Y-1417984D02*
X3709132Y-1417984D01*
X3709132Y-1417984D02*
X3728180Y-1427508D01*
X3728180Y-1427508D02*
X3737704Y-1437031D01*
X3737704Y-1437031D02*
X3747227Y-1456079D01*
X3747227Y-1456079D02*
X3747227Y-1475127D01*
X3747227Y-1475127D02*
X3737704Y-1503698D01*
X3737704Y-1503698D02*
X3623418Y-1617984D01*
X3623418Y-1617984D02*
X3747227Y-1617984D01*
X3985323Y-1617984D02*
X3985323Y-1417984D01*
X4071037Y-1617984D02*
X4071037Y-1513222D01*
X4071037Y-1513222D02*
X4061513Y-1494174D01*
X4061513Y-1494174D02*
X4042466Y-1484650D01*
X4042466Y-1484650D02*
X4013894Y-1484650D01*
X4013894Y-1484650D02*
X3994847Y-1494174D01*
X3994847Y-1494174D02*
X3985323Y-1503698D01*
X4194847Y-1617984D02*
X4175799Y-1608460D01*
X4175799Y-1608460D02*
X4166275Y-1598936D01*
X4166275Y-1598936D02*
X4156751Y-1579888D01*
X4156751Y-1579888D02*
X4156751Y-1522746D01*
X4156751Y-1522746D02*
X4166275Y-1503698D01*
X4166275Y-1503698D02*
X4175799Y-1494174D01*
X4175799Y-1494174D02*
X4194847Y-1484650D01*
X4194847Y-1484650D02*
X4223418Y-1484650D01*
X4223418Y-1484650D02*
X4242466Y-1494174D01*
X4242466Y-1494174D02*
X4251990Y-1503698D01*
X4251990Y-1503698D02*
X4261513Y-1522746D01*
X4261513Y-1522746D02*
X4261513Y-1579888D01*
X4261513Y-1579888D02*
X4251990Y-1598936D01*
X4251990Y-1598936D02*
X4242466Y-1608460D01*
X4242466Y-1608460D02*
X4223418Y-1617984D01*
X4223418Y-1617984D02*
X4194847Y-1617984D01*
X4375799Y-1617984D02*
X4356751Y-1608460D01*
X4356751Y-1608460D02*
X4347228Y-1589412D01*
X4347228Y-1589412D02*
X4347228Y-1417984D01*
X4528180Y-1608460D02*
X4509132Y-1617984D01*
X4509132Y-1617984D02*
X4471037Y-1617984D01*
X4471037Y-1617984D02*
X4451990Y-1608460D01*
X4451990Y-1608460D02*
X4442466Y-1589412D01*
X4442466Y-1589412D02*
X4442466Y-1513222D01*
X4442466Y-1513222D02*
X4451990Y-1494174D01*
X4451990Y-1494174D02*
X4471037Y-1484650D01*
X4471037Y-1484650D02*
X4509132Y-1484650D01*
X4509132Y-1484650D02*
X4528180Y-1494174D01*
X4528180Y-1494174D02*
X4537704Y-1513222D01*
X4537704Y-1513222D02*
X4537704Y-1532269D01*
X4537704Y-1532269D02*
X4442466Y-1551317D01*
X4613894Y-1608460D02*
X4632942Y-1617984D01*
X4632942Y-1617984D02*
X4671037Y-1617984D01*
X4671037Y-1617984D02*
X4690085Y-1608460D01*
X4690085Y-1608460D02*
X4699609Y-1589412D01*
X4699609Y-1589412D02*
X4699609Y-1579888D01*
X4699609Y-1579888D02*
X4690085Y-1560841D01*
X4690085Y-1560841D02*
X4671037Y-1551317D01*
X4671037Y-1551317D02*
X4642466Y-1551317D01*
X4642466Y-1551317D02*
X4623418Y-1541793D01*
X4623418Y-1541793D02*
X4613894Y-1522746D01*
X4613894Y-1522746D02*
X4613894Y-1513222D01*
X4613894Y-1513222D02*
X4623418Y-1494174D01*
X4623418Y-1494174D02*
X4642466Y-1484650D01*
X4642466Y-1484650D02*
X4671037Y-1484650D01*
X4671037Y-1484650D02*
X4690085Y-1494174D01*
X4766275Y-1694174D02*
X4775799Y-1684650D01*
X4775799Y-1684650D02*
X4794847Y-1656079D01*
X4794847Y-1656079D02*
X4804371Y-1637031D01*
X4804371Y-1637031D02*
X4813894Y-1608460D01*
X4813894Y-1608460D02*
X4823418Y-1560841D01*
X4823418Y-1560841D02*
X4823418Y-1522746D01*
X4823418Y-1522746D02*
X4813894Y-1475127D01*
X4813894Y-1475127D02*
X4804371Y-1446555D01*
X4804371Y-1446555D02*
X4794847Y-1427508D01*
X4794847Y-1427508D02*
X4775799Y-1398936D01*
X4775799Y-1398936D02*
X4766275Y-1389412D01*
X5128180Y-1694174D02*
X5118656Y-1684650D01*
X5118656Y-1684650D02*
X5099609Y-1656079D01*
X5099609Y-1656079D02*
X5090085Y-1637031D01*
X5090085Y-1637031D02*
X5080561Y-1608460D01*
X5080561Y-1608460D02*
X5071037Y-1560841D01*
X5071037Y-1560841D02*
X5071037Y-1522746D01*
X5071037Y-1522746D02*
X5080561Y-1475127D01*
X5080561Y-1475127D02*
X5090085Y-1446555D01*
X5090085Y-1446555D02*
X5099609Y-1427508D01*
X5099609Y-1427508D02*
X5118656Y-1398936D01*
X5118656Y-1398936D02*
X5128180Y-1389412D01*
X5204371Y-1484650D02*
X5204371Y-1617984D01*
X5204371Y-1503698D02*
X5213894Y-1494174D01*
X5213894Y-1494174D02*
X5232942Y-1484650D01*
X5232942Y-1484650D02*
X5261513Y-1484650D01*
X5261513Y-1484650D02*
X5280561Y-1494174D01*
X5280561Y-1494174D02*
X5290085Y-1513222D01*
X5290085Y-1513222D02*
X5290085Y-1617984D01*
X5413894Y-1617984D02*
X5394847Y-1608460D01*
X5394847Y-1608460D02*
X5385323Y-1598936D01*
X5385323Y-1598936D02*
X5375799Y-1579888D01*
X5375799Y-1579888D02*
X5375799Y-1522746D01*
X5375799Y-1522746D02*
X5385323Y-1503698D01*
X5385323Y-1503698D02*
X5394847Y-1494174D01*
X5394847Y-1494174D02*
X5413894Y-1484650D01*
X5413894Y-1484650D02*
X5442466Y-1484650D01*
X5442466Y-1484650D02*
X5461513Y-1494174D01*
X5461513Y-1494174D02*
X5471037Y-1503698D01*
X5471037Y-1503698D02*
X5480561Y-1522746D01*
X5480561Y-1522746D02*
X5480561Y-1579888D01*
X5480561Y-1579888D02*
X5471037Y-1598936D01*
X5471037Y-1598936D02*
X5461513Y-1608460D01*
X5461513Y-1608460D02*
X5442466Y-1617984D01*
X5442466Y-1617984D02*
X5413894Y-1617984D01*
X5537704Y-1484650D02*
X5613894Y-1484650D01*
X5566275Y-1417984D02*
X5566275Y-1589412D01*
X5566275Y-1589412D02*
X5575799Y-1608460D01*
X5575799Y-1608460D02*
X5594847Y-1617984D01*
X5594847Y-1617984D02*
X5613894Y-1617984D01*
X5832942Y-1484650D02*
X5832942Y-1684650D01*
X5832942Y-1494174D02*
X5851990Y-1484650D01*
X5851990Y-1484650D02*
X5890085Y-1484650D01*
X5890085Y-1484650D02*
X5909132Y-1494174D01*
X5909132Y-1494174D02*
X5918656Y-1503698D01*
X5918656Y-1503698D02*
X5928180Y-1522746D01*
X5928180Y-1522746D02*
X5928180Y-1579888D01*
X5928180Y-1579888D02*
X5918656Y-1598936D01*
X5918656Y-1598936D02*
X5909132Y-1608460D01*
X5909132Y-1608460D02*
X5890085Y-1617984D01*
X5890085Y-1617984D02*
X5851990Y-1617984D01*
X5851990Y-1617984D02*
X5832942Y-1608460D01*
X6042466Y-1617984D02*
X6023418Y-1608460D01*
X6023418Y-1608460D02*
X6013894Y-1589412D01*
X6013894Y-1589412D02*
X6013894Y-1417984D01*
X6204371Y-1617984D02*
X6204371Y-1513222D01*
X6204371Y-1513222D02*
X6194847Y-1494174D01*
X6194847Y-1494174D02*
X6175799Y-1484650D01*
X6175799Y-1484650D02*
X6137704Y-1484650D01*
X6137704Y-1484650D02*
X6118656Y-1494174D01*
X6204371Y-1608460D02*
X6185323Y-1617984D01*
X6185323Y-1617984D02*
X6137704Y-1617984D01*
X6137704Y-1617984D02*
X6118656Y-1608460D01*
X6118656Y-1608460D02*
X6109132Y-1589412D01*
X6109132Y-1589412D02*
X6109132Y-1570365D01*
X6109132Y-1570365D02*
X6118656Y-1551317D01*
X6118656Y-1551317D02*
X6137704Y-1541793D01*
X6137704Y-1541793D02*
X6185323Y-1541793D01*
X6185323Y-1541793D02*
X6204371Y-1532269D01*
X6271037Y-1484650D02*
X6347228Y-1484650D01*
X6299609Y-1417984D02*
X6299609Y-1589412D01*
X6299609Y-1589412D02*
X6309132Y-1608460D01*
X6309132Y-1608460D02*
X6328180Y-1617984D01*
X6328180Y-1617984D02*
X6347228Y-1617984D01*
X6490085Y-1608460D02*
X6471037Y-1617984D01*
X6471037Y-1617984D02*
X6432942Y-1617984D01*
X6432942Y-1617984D02*
X6413894Y-1608460D01*
X6413894Y-1608460D02*
X6404371Y-1589412D01*
X6404371Y-1589412D02*
X6404371Y-1513222D01*
X6404371Y-1513222D02*
X6413894Y-1494174D01*
X6413894Y-1494174D02*
X6432942Y-1484650D01*
X6432942Y-1484650D02*
X6471037Y-1484650D01*
X6471037Y-1484650D02*
X6490085Y-1494174D01*
X6490085Y-1494174D02*
X6499609Y-1513222D01*
X6499609Y-1513222D02*
X6499609Y-1532269D01*
X6499609Y-1532269D02*
X6404371Y-1551317D01*
X6671037Y-1617984D02*
X6671037Y-1417984D01*
X6671037Y-1608460D02*
X6651990Y-1617984D01*
X6651990Y-1617984D02*
X6613894Y-1617984D01*
X6613894Y-1617984D02*
X6594847Y-1608460D01*
X6594847Y-1608460D02*
X6585323Y-1598936D01*
X6585323Y-1598936D02*
X6575799Y-1579888D01*
X6575799Y-1579888D02*
X6575799Y-1522746D01*
X6575799Y-1522746D02*
X6585323Y-1503698D01*
X6585323Y-1503698D02*
X6594847Y-1494174D01*
X6594847Y-1494174D02*
X6613894Y-1484650D01*
X6613894Y-1484650D02*
X6651990Y-1484650D01*
X6651990Y-1484650D02*
X6671037Y-1494174D01*
X6747228Y-1694174D02*
X6756752Y-1684650D01*
X6756752Y-1684650D02*
X6775799Y-1656079D01*
X6775799Y-1656079D02*
X6785323Y-1637031D01*
X6785323Y-1637031D02*
X6794847Y-1608460D01*
X6794847Y-1608460D02*
X6804371Y-1560841D01*
X6804371Y-1560841D02*
X6804371Y-1522746D01*
X6804371Y-1522746D02*
X6794847Y-1475127D01*
X6794847Y-1475127D02*
X6785323Y-1446555D01*
X6785323Y-1446555D02*
X6775799Y-1427508D01*
X6775799Y-1427508D02*
X6756752Y-1398936D01*
X6756752Y-1398936D02*
X6747228Y-1389412D01*
X-38076Y-1917211D02*
X-38076Y-1775789D01*
X-179499Y-1775789D01*
X-179499Y-1917211D01*
X-38076Y-1917211D01*
X232941Y-1737984D02*
X356751Y-1737984D01*
X356751Y-1737984D02*
X290084Y-1814174D01*
X290084Y-1814174D02*
X318656Y-1814174D01*
X318656Y-1814174D02*
X337703Y-1823698D01*
X337703Y-1823698D02*
X347227Y-1833222D01*
X347227Y-1833222D02*
X356751Y-1852269D01*
X356751Y-1852269D02*
X356751Y-1899888D01*
X356751Y-1899888D02*
X347227Y-1918936D01*
X347227Y-1918936D02*
X337703Y-1928460D01*
X337703Y-1928460D02*
X318656Y-1937984D01*
X318656Y-1937984D02*
X261513Y-1937984D01*
X261513Y-1937984D02*
X242465Y-1928460D01*
X242465Y-1928460D02*
X232941Y-1918936D01*
X442465Y-1918936D02*
X451989Y-1928460D01*
X451989Y-1928460D02*
X442465Y-1937984D01*
X442465Y-1937984D02*
X432941Y-1928460D01*
X432941Y-1928460D02*
X442465Y-1918936D01*
X442465Y-1918936D02*
X442465Y-1937984D01*
X623418Y-1804650D02*
X623418Y-1937984D01*
X575799Y-1728460D02*
X528180Y-1871317D01*
X528180Y-1871317D02*
X651989Y-1871317D01*
X766275Y-1737984D02*
X785322Y-1737984D01*
X785322Y-1737984D02*
X804370Y-1747508D01*
X804370Y-1747508D02*
X813894Y-1757031D01*
X813894Y-1757031D02*
X823418Y-1776079D01*
X823418Y-1776079D02*
X832941Y-1814174D01*
X832941Y-1814174D02*
X832941Y-1861793D01*
X832941Y-1861793D02*
X823418Y-1899888D01*
X823418Y-1899888D02*
X813894Y-1918936D01*
X813894Y-1918936D02*
X804370Y-1928460D01*
X804370Y-1928460D02*
X785322Y-1937984D01*
X785322Y-1937984D02*
X766275Y-1937984D01*
X766275Y-1937984D02*
X747227Y-1928460D01*
X747227Y-1928460D02*
X737703Y-1918936D01*
X737703Y-1918936D02*
X728180Y-1899888D01*
X728180Y-1899888D02*
X718656Y-1861793D01*
X718656Y-1861793D02*
X718656Y-1814174D01*
X718656Y-1814174D02*
X728180Y-1776079D01*
X728180Y-1776079D02*
X737703Y-1757031D01*
X737703Y-1757031D02*
X747227Y-1747508D01*
X747227Y-1747508D02*
X766275Y-1737984D01*
X956751Y-1737984D02*
X975799Y-1737984D01*
X975799Y-1737984D02*
X994846Y-1747508D01*
X994846Y-1747508D02*
X1004370Y-1757031D01*
X1004370Y-1757031D02*
X1013894Y-1776079D01*
X1013894Y-1776079D02*
X1023418Y-1814174D01*
X1023418Y-1814174D02*
X1023418Y-1861793D01*
X1023418Y-1861793D02*
X1013894Y-1899888D01*
X1013894Y-1899888D02*
X1004370Y-1918936D01*
X1004370Y-1918936D02*
X994846Y-1928460D01*
X994846Y-1928460D02*
X975799Y-1937984D01*
X975799Y-1937984D02*
X956751Y-1937984D01*
X956751Y-1937984D02*
X937703Y-1928460D01*
X937703Y-1928460D02*
X928180Y-1918936D01*
X928180Y-1918936D02*
X918656Y-1899888D01*
X918656Y-1899888D02*
X909132Y-1861793D01*
X909132Y-1861793D02*
X909132Y-1814174D01*
X909132Y-1814174D02*
X918656Y-1776079D01*
X918656Y-1776079D02*
X928180Y-1757031D01*
X928180Y-1757031D02*
X937703Y-1747508D01*
X937703Y-1747508D02*
X956751Y-1737984D01*
X1109132Y-1937984D02*
X1109132Y-1804650D01*
X1109132Y-1823698D02*
X1118656Y-1814174D01*
X1118656Y-1814174D02*
X1137703Y-1804650D01*
X1137703Y-1804650D02*
X1166275Y-1804650D01*
X1166275Y-1804650D02*
X1185323Y-1814174D01*
X1185323Y-1814174D02*
X1194846Y-1833222D01*
X1194846Y-1833222D02*
X1194846Y-1937984D01*
X1194846Y-1833222D02*
X1204370Y-1814174D01*
X1204370Y-1814174D02*
X1223418Y-1804650D01*
X1223418Y-1804650D02*
X1251989Y-1804650D01*
X1251989Y-1804650D02*
X1271037Y-1814174D01*
X1271037Y-1814174D02*
X1280561Y-1833222D01*
X1280561Y-1833222D02*
X1280561Y-1937984D01*
X1375799Y-1937984D02*
X1375799Y-1804650D01*
X1375799Y-1823698D02*
X1385323Y-1814174D01*
X1385323Y-1814174D02*
X1404370Y-1804650D01*
X1404370Y-1804650D02*
X1432942Y-1804650D01*
X1432942Y-1804650D02*
X1451989Y-1814174D01*
X1451989Y-1814174D02*
X1461513Y-1833222D01*
X1461513Y-1833222D02*
X1461513Y-1937984D01*
X1461513Y-1833222D02*
X1471037Y-1814174D01*
X1471037Y-1814174D02*
X1490084Y-1804650D01*
X1490084Y-1804650D02*
X1518656Y-1804650D01*
X1518656Y-1804650D02*
X1537703Y-1814174D01*
X1537703Y-1814174D02*
X1547227Y-1833222D01*
X1547227Y-1833222D02*
X1547227Y-1937984D01*
X1937703Y-1728460D02*
X1766275Y-1985603D01*
X2194846Y-1737984D02*
X2213894Y-1737984D01*
X2213894Y-1737984D02*
X2232942Y-1747508D01*
X2232942Y-1747508D02*
X2242466Y-1757031D01*
X2242466Y-1757031D02*
X2251989Y-1776079D01*
X2251989Y-1776079D02*
X2261513Y-1814174D01*
X2261513Y-1814174D02*
X2261513Y-1861793D01*
X2261513Y-1861793D02*
X2251989Y-1899888D01*
X2251989Y-1899888D02*
X2242466Y-1918936D01*
X2242466Y-1918936D02*
X2232942Y-1928460D01*
X2232942Y-1928460D02*
X2213894Y-1937984D01*
X2213894Y-1937984D02*
X2194846Y-1937984D01*
X2194846Y-1937984D02*
X2175799Y-1928460D01*
X2175799Y-1928460D02*
X2166275Y-1918936D01*
X2166275Y-1918936D02*
X2156751Y-1899888D01*
X2156751Y-1899888D02*
X2147227Y-1861793D01*
X2147227Y-1861793D02*
X2147227Y-1814174D01*
X2147227Y-1814174D02*
X2156751Y-1776079D01*
X2156751Y-1776079D02*
X2166275Y-1757031D01*
X2166275Y-1757031D02*
X2175799Y-1747508D01*
X2175799Y-1747508D02*
X2194846Y-1737984D01*
X2347227Y-1918936D02*
X2356751Y-1928460D01*
X2356751Y-1928460D02*
X2347227Y-1937984D01*
X2347227Y-1937984D02*
X2337704Y-1928460D01*
X2337704Y-1928460D02*
X2347227Y-1918936D01*
X2347227Y-1918936D02*
X2347227Y-1937984D01*
X2547227Y-1937984D02*
X2432942Y-1937984D01*
X2490085Y-1937984D02*
X2490085Y-1737984D01*
X2490085Y-1737984D02*
X2471037Y-1766555D01*
X2471037Y-1766555D02*
X2451989Y-1785603D01*
X2451989Y-1785603D02*
X2432942Y-1795127D01*
X2613894Y-1737984D02*
X2737704Y-1737984D01*
X2737704Y-1737984D02*
X2671037Y-1814174D01*
X2671037Y-1814174D02*
X2699608Y-1814174D01*
X2699608Y-1814174D02*
X2718656Y-1823698D01*
X2718656Y-1823698D02*
X2728180Y-1833222D01*
X2728180Y-1833222D02*
X2737704Y-1852269D01*
X2737704Y-1852269D02*
X2737704Y-1899888D01*
X2737704Y-1899888D02*
X2728180Y-1918936D01*
X2728180Y-1918936D02*
X2718656Y-1928460D01*
X2718656Y-1928460D02*
X2699608Y-1937984D01*
X2699608Y-1937984D02*
X2642466Y-1937984D01*
X2642466Y-1937984D02*
X2623418Y-1928460D01*
X2623418Y-1928460D02*
X2613894Y-1918936D01*
X2804370Y-1737984D02*
X2928180Y-1737984D01*
X2928180Y-1737984D02*
X2861513Y-1814174D01*
X2861513Y-1814174D02*
X2890085Y-1814174D01*
X2890085Y-1814174D02*
X2909132Y-1823698D01*
X2909132Y-1823698D02*
X2918656Y-1833222D01*
X2918656Y-1833222D02*
X2928180Y-1852269D01*
X2928180Y-1852269D02*
X2928180Y-1899888D01*
X2928180Y-1899888D02*
X2918656Y-1918936D01*
X2918656Y-1918936D02*
X2909132Y-1928460D01*
X2909132Y-1928460D02*
X2890085Y-1937984D01*
X2890085Y-1937984D02*
X2832942Y-1937984D01*
X2832942Y-1937984D02*
X2813894Y-1928460D01*
X2813894Y-1928460D02*
X2804370Y-1918936D01*
X3023418Y-1937984D02*
X3061513Y-1937984D01*
X3061513Y-1937984D02*
X3080561Y-1928460D01*
X3080561Y-1928460D02*
X3090085Y-1918936D01*
X3090085Y-1918936D02*
X3109132Y-1890365D01*
X3109132Y-1890365D02*
X3118656Y-1852269D01*
X3118656Y-1852269D02*
X3118656Y-1776079D01*
X3118656Y-1776079D02*
X3109132Y-1757031D01*
X3109132Y-1757031D02*
X3099608Y-1747508D01*
X3099608Y-1747508D02*
X3080561Y-1737984D01*
X3080561Y-1737984D02*
X3042465Y-1737984D01*
X3042465Y-1737984D02*
X3023418Y-1747508D01*
X3023418Y-1747508D02*
X3013894Y-1757031D01*
X3013894Y-1757031D02*
X3004370Y-1776079D01*
X3004370Y-1776079D02*
X3004370Y-1823698D01*
X3004370Y-1823698D02*
X3013894Y-1842746D01*
X3013894Y-1842746D02*
X3023418Y-1852269D01*
X3023418Y-1852269D02*
X3042465Y-1861793D01*
X3042465Y-1861793D02*
X3080561Y-1861793D01*
X3080561Y-1861793D02*
X3099608Y-1852269D01*
X3099608Y-1852269D02*
X3109132Y-1842746D01*
X3109132Y-1842746D02*
X3118656Y-1823698D01*
X3194846Y-1737984D02*
X3194846Y-1776079D01*
X3271037Y-1737984D02*
X3271037Y-1776079D01*
X3566275Y-2014174D02*
X3556751Y-2004650D01*
X3556751Y-2004650D02*
X3537704Y-1976079D01*
X3537704Y-1976079D02*
X3528180Y-1957031D01*
X3528180Y-1957031D02*
X3518656Y-1928460D01*
X3518656Y-1928460D02*
X3509132Y-1880841D01*
X3509132Y-1880841D02*
X3509132Y-1842746D01*
X3509132Y-1842746D02*
X3518656Y-1795127D01*
X3518656Y-1795127D02*
X3528180Y-1766555D01*
X3528180Y-1766555D02*
X3537704Y-1747508D01*
X3537704Y-1747508D02*
X3556751Y-1718936D01*
X3556751Y-1718936D02*
X3566275Y-1709412D01*
X3747227Y-1937984D02*
X3632942Y-1937984D01*
X3690085Y-1937984D02*
X3690085Y-1737984D01*
X3690085Y-1737984D02*
X3671037Y-1766555D01*
X3671037Y-1766555D02*
X3651989Y-1785603D01*
X3651989Y-1785603D02*
X3632942Y-1795127D01*
X3985323Y-1937984D02*
X3985323Y-1737984D01*
X4071037Y-1937984D02*
X4071037Y-1833222D01*
X4071037Y-1833222D02*
X4061513Y-1814174D01*
X4061513Y-1814174D02*
X4042466Y-1804650D01*
X4042466Y-1804650D02*
X4013894Y-1804650D01*
X4013894Y-1804650D02*
X3994847Y-1814174D01*
X3994847Y-1814174D02*
X3985323Y-1823698D01*
X4194847Y-1937984D02*
X4175799Y-1928460D01*
X4175799Y-1928460D02*
X4166275Y-1918936D01*
X4166275Y-1918936D02*
X4156751Y-1899888D01*
X4156751Y-1899888D02*
X4156751Y-1842746D01*
X4156751Y-1842746D02*
X4166275Y-1823698D01*
X4166275Y-1823698D02*
X4175799Y-1814174D01*
X4175799Y-1814174D02*
X4194847Y-1804650D01*
X4194847Y-1804650D02*
X4223418Y-1804650D01*
X4223418Y-1804650D02*
X4242466Y-1814174D01*
X4242466Y-1814174D02*
X4251990Y-1823698D01*
X4251990Y-1823698D02*
X4261513Y-1842746D01*
X4261513Y-1842746D02*
X4261513Y-1899888D01*
X4261513Y-1899888D02*
X4251990Y-1918936D01*
X4251990Y-1918936D02*
X4242466Y-1928460D01*
X4242466Y-1928460D02*
X4223418Y-1937984D01*
X4223418Y-1937984D02*
X4194847Y-1937984D01*
X4375799Y-1937984D02*
X4356751Y-1928460D01*
X4356751Y-1928460D02*
X4347228Y-1909412D01*
X4347228Y-1909412D02*
X4347228Y-1737984D01*
X4528180Y-1928460D02*
X4509132Y-1937984D01*
X4509132Y-1937984D02*
X4471037Y-1937984D01*
X4471037Y-1937984D02*
X4451990Y-1928460D01*
X4451990Y-1928460D02*
X4442466Y-1909412D01*
X4442466Y-1909412D02*
X4442466Y-1833222D01*
X4442466Y-1833222D02*
X4451990Y-1814174D01*
X4451990Y-1814174D02*
X4471037Y-1804650D01*
X4471037Y-1804650D02*
X4509132Y-1804650D01*
X4509132Y-1804650D02*
X4528180Y-1814174D01*
X4528180Y-1814174D02*
X4537704Y-1833222D01*
X4537704Y-1833222D02*
X4537704Y-1852269D01*
X4537704Y-1852269D02*
X4442466Y-1871317D01*
X4604371Y-2014174D02*
X4613894Y-2004650D01*
X4613894Y-2004650D02*
X4632942Y-1976079D01*
X4632942Y-1976079D02*
X4642466Y-1957031D01*
X4642466Y-1957031D02*
X4651990Y-1928460D01*
X4651990Y-1928460D02*
X4661513Y-1880841D01*
X4661513Y-1880841D02*
X4661513Y-1842746D01*
X4661513Y-1842746D02*
X4651990Y-1795127D01*
X4651990Y-1795127D02*
X4642466Y-1766555D01*
X4642466Y-1766555D02*
X4632942Y-1747508D01*
X4632942Y-1747508D02*
X4613894Y-1718936D01*
X4613894Y-1718936D02*
X4604371Y-1709412D01*
X4966275Y-2014174D02*
X4956751Y-2004650D01*
X4956751Y-2004650D02*
X4937704Y-1976079D01*
X4937704Y-1976079D02*
X4928180Y-1957031D01*
X4928180Y-1957031D02*
X4918656Y-1928460D01*
X4918656Y-1928460D02*
X4909132Y-1880841D01*
X4909132Y-1880841D02*
X4909132Y-1842746D01*
X4909132Y-1842746D02*
X4918656Y-1795127D01*
X4918656Y-1795127D02*
X4928180Y-1766555D01*
X4928180Y-1766555D02*
X4937704Y-1747508D01*
X4937704Y-1747508D02*
X4956751Y-1718936D01*
X4956751Y-1718936D02*
X4966275Y-1709412D01*
X5042466Y-1804650D02*
X5042466Y-1937984D01*
X5042466Y-1823698D02*
X5051990Y-1814174D01*
X5051990Y-1814174D02*
X5071037Y-1804650D01*
X5071037Y-1804650D02*
X5099609Y-1804650D01*
X5099609Y-1804650D02*
X5118656Y-1814174D01*
X5118656Y-1814174D02*
X5128180Y-1833222D01*
X5128180Y-1833222D02*
X5128180Y-1937984D01*
X5251990Y-1937984D02*
X5232942Y-1928460D01*
X5232942Y-1928460D02*
X5223418Y-1918936D01*
X5223418Y-1918936D02*
X5213894Y-1899888D01*
X5213894Y-1899888D02*
X5213894Y-1842746D01*
X5213894Y-1842746D02*
X5223418Y-1823698D01*
X5223418Y-1823698D02*
X5232942Y-1814174D01*
X5232942Y-1814174D02*
X5251990Y-1804650D01*
X5251990Y-1804650D02*
X5280561Y-1804650D01*
X5280561Y-1804650D02*
X5299609Y-1814174D01*
X5299609Y-1814174D02*
X5309132Y-1823698D01*
X5309132Y-1823698D02*
X5318656Y-1842746D01*
X5318656Y-1842746D02*
X5318656Y-1899888D01*
X5318656Y-1899888D02*
X5309132Y-1918936D01*
X5309132Y-1918936D02*
X5299609Y-1928460D01*
X5299609Y-1928460D02*
X5280561Y-1937984D01*
X5280561Y-1937984D02*
X5251990Y-1937984D01*
X5375799Y-1804650D02*
X5451990Y-1804650D01*
X5404371Y-1737984D02*
X5404371Y-1909412D01*
X5404371Y-1909412D02*
X5413894Y-1928460D01*
X5413894Y-1928460D02*
X5432942Y-1937984D01*
X5432942Y-1937984D02*
X5451990Y-1937984D01*
X5671037Y-1804650D02*
X5671037Y-2004650D01*
X5671037Y-1814174D02*
X5690085Y-1804650D01*
X5690085Y-1804650D02*
X5728180Y-1804650D01*
X5728180Y-1804650D02*
X5747228Y-1814174D01*
X5747228Y-1814174D02*
X5756751Y-1823698D01*
X5756751Y-1823698D02*
X5766275Y-1842746D01*
X5766275Y-1842746D02*
X5766275Y-1899888D01*
X5766275Y-1899888D02*
X5756751Y-1918936D01*
X5756751Y-1918936D02*
X5747228Y-1928460D01*
X5747228Y-1928460D02*
X5728180Y-1937984D01*
X5728180Y-1937984D02*
X5690085Y-1937984D01*
X5690085Y-1937984D02*
X5671037Y-1928460D01*
X5880561Y-1937984D02*
X5861513Y-1928460D01*
X5861513Y-1928460D02*
X5851990Y-1909412D01*
X5851990Y-1909412D02*
X5851990Y-1737984D01*
X6042466Y-1937984D02*
X6042466Y-1833222D01*
X6042466Y-1833222D02*
X6032942Y-1814174D01*
X6032942Y-1814174D02*
X6013894Y-1804650D01*
X6013894Y-1804650D02*
X5975799Y-1804650D01*
X5975799Y-1804650D02*
X5956751Y-1814174D01*
X6042466Y-1928460D02*
X6023418Y-1937984D01*
X6023418Y-1937984D02*
X5975799Y-1937984D01*
X5975799Y-1937984D02*
X5956751Y-1928460D01*
X5956751Y-1928460D02*
X5947228Y-1909412D01*
X5947228Y-1909412D02*
X5947228Y-1890365D01*
X5947228Y-1890365D02*
X5956751Y-1871317D01*
X5956751Y-1871317D02*
X5975799Y-1861793D01*
X5975799Y-1861793D02*
X6023418Y-1861793D01*
X6023418Y-1861793D02*
X6042466Y-1852269D01*
X6109132Y-1804650D02*
X6185323Y-1804650D01*
X6137704Y-1737984D02*
X6137704Y-1909412D01*
X6137704Y-1909412D02*
X6147228Y-1928460D01*
X6147228Y-1928460D02*
X6166275Y-1937984D01*
X6166275Y-1937984D02*
X6185323Y-1937984D01*
X6328180Y-1928460D02*
X6309132Y-1937984D01*
X6309132Y-1937984D02*
X6271037Y-1937984D01*
X6271037Y-1937984D02*
X6251990Y-1928460D01*
X6251990Y-1928460D02*
X6242466Y-1909412D01*
X6242466Y-1909412D02*
X6242466Y-1833222D01*
X6242466Y-1833222D02*
X6251990Y-1814174D01*
X6251990Y-1814174D02*
X6271037Y-1804650D01*
X6271037Y-1804650D02*
X6309132Y-1804650D01*
X6309132Y-1804650D02*
X6328180Y-1814174D01*
X6328180Y-1814174D02*
X6337704Y-1833222D01*
X6337704Y-1833222D02*
X6337704Y-1852269D01*
X6337704Y-1852269D02*
X6242466Y-1871317D01*
X6509132Y-1937984D02*
X6509132Y-1737984D01*
X6509132Y-1928460D02*
X6490085Y-1937984D01*
X6490085Y-1937984D02*
X6451990Y-1937984D01*
X6451990Y-1937984D02*
X6432942Y-1928460D01*
X6432942Y-1928460D02*
X6423418Y-1918936D01*
X6423418Y-1918936D02*
X6413894Y-1899888D01*
X6413894Y-1899888D02*
X6413894Y-1842746D01*
X6413894Y-1842746D02*
X6423418Y-1823698D01*
X6423418Y-1823698D02*
X6432942Y-1814174D01*
X6432942Y-1814174D02*
X6451990Y-1804650D01*
X6451990Y-1804650D02*
X6490085Y-1804650D01*
X6490085Y-1804650D02*
X6509132Y-1814174D01*
X6585323Y-2014174D02*
X6594847Y-2004650D01*
X6594847Y-2004650D02*
X6613894Y-1976079D01*
X6613894Y-1976079D02*
X6623418Y-1957031D01*
X6623418Y-1957031D02*
X6632942Y-1928460D01*
X6632942Y-1928460D02*
X6642466Y-1880841D01*
X6642466Y-1880841D02*
X6642466Y-1842746D01*
X6642466Y-1842746D02*
X6632942Y-1795127D01*
X6632942Y-1795127D02*
X6623418Y-1766555D01*
X6623418Y-1766555D02*
X6613894Y-1747508D01*
X6613894Y-1747508D02*
X6594847Y-1718936D01*
X6594847Y-1718936D02*
X6585323Y-1709412D01*
M02*
