ISO-10303-21;
HEADER;
FILE_DESCRIPTION(('KiCad electronic assembly'),'2;1');
FILE_NAME('model.step','1970-01-01T00:00:00',('Pcbnew'),('Kicad'),
  'Open CASCADE STEP processor 7.9','KiCad to STEP converter','Unknown'
  );
FILE_SCHEMA(('AUTOMOTIVE_DESIGN { 1 0 10303 214 1 1 1 1 }'));
ENDSEC;
DATA;
#1 = APPLICATION_PROTOCOL_DEFINITION('international standard',
  'automotive_design',2000,#2);
#2 = APPLICATION_CONTEXT(
  'core data for automotive mechanical design processes');
#3 = SHAPE_DEFINITION_REPRESENTATION(#4,#10);
#4 = PRODUCT_DEFINITION_SHAPE('','',#5);
#5 = PRODUCT_DEFINITION('design','',#6,#9);
#6 = PRODUCT_DEFINITION_FORMATION('','',#7);
#7 = PRODUCT('model 1','model 1','',(#8));
#8 = PRODUCT_CONTEXT('',#2,'mechanical');
#9 = PRODUCT_DEFINITION_CONTEXT('part definition',#2,'design');
#10 = SHAPE_REPRESENTATION('',(#11,#15,#19,#23),#27);
#11 = AXIS2_PLACEMENT_3D('',#12,#13,#14);
#12 = CARTESIAN_POINT('',(0.,0.,0.));
#13 = DIRECTION('',(0.,0.,1.));
#14 = DIRECTION('',(1.,0.,-0.));
#15 = AXIS2_PLACEMENT_3D('',#16,#17,#18);
#16 = CARTESIAN_POINT('',(0.,0.,1.595));
#17 = DIRECTION('',(0.,0.,1.));
#18 = DIRECTION('',(1.,0.,0.));
#19 = AXIS2_PLACEMENT_3D('',#20,#21,#22);
#20 = CARTESIAN_POINT('',(0.,0.,0.));
#21 = DIRECTION('',(0.,0.,1.));
#22 = DIRECTION('',(1.,0.,-0.));
#23 = AXIS2_PLACEMENT_3D('',#24,#25,#26);
#24 = CARTESIAN_POINT('',(0.,0.,0.));
#25 = DIRECTION('',(0.,0.,1.));
#26 = DIRECTION('',(1.,0.,-0.));
#27 = ( GEOMETRIC_REPRESENTATION_CONTEXT(3) 
GLOBAL_UNCERTAINTY_ASSIGNED_CONTEXT((#31)) GLOBAL_UNIT_ASSIGNED_CONTEXT(
(#28,#29,#30)) REPRESENTATION_CONTEXT('Context #1',
  '3D Context with UNIT and UNCERTAINTY') );
#28 = ( LENGTH_UNIT() NAMED_UNIT(*) SI_UNIT(.MILLI.,.METRE.) );
#29 = ( NAMED_UNIT(*) PLANE_ANGLE_UNIT() SI_UNIT($,.RADIAN.) );
#30 = ( NAMED_UNIT(*) SI_UNIT($,.STERADIAN.) SOLID_ANGLE_UNIT() );
#31 = UNCERTAINTY_MEASURE_WITH_UNIT(LENGTH_MEASURE(1.E-07),#28,
  'distance_accuracy_value','confusion accuracy');
#32 = PRODUCT_RELATED_PRODUCT_CATEGORY('part',$,(#7));
#33 = SHAPE_DEFINITION_REPRESENTATION(#34,#40);
#34 = PRODUCT_DEFINITION_SHAPE('','',#35);
#35 = PRODUCT_DEFINITION('design','',#36,#39);
#36 = PRODUCT_DEFINITION_FORMATION('','',#37);
#37 = PRODUCT('PinHeader_1x01_P2.54mm_Vertical',
  'PinHeader_1x01_P2.54mm_Vertical','',(#38));
#38 = PRODUCT_CONTEXT('',#2,'mechanical');
#39 = PRODUCT_DEFINITION_CONTEXT('part definition',#2,'design');
#40 = SHAPE_REPRESENTATION('',(#11,#41),#45);
#41 = AXIS2_PLACEMENT_3D('',#42,#43,#44);
#42 = CARTESIAN_POINT('',(0.,0.,0.));
#43 = DIRECTION('',(0.,0.,1.));
#44 = DIRECTION('',(1.,0.,-0.));
#45 = ( GEOMETRIC_REPRESENTATION_CONTEXT(3) 
GLOBAL_UNCERTAINTY_ASSIGNED_CONTEXT((#49)) GLOBAL_UNIT_ASSIGNED_CONTEXT(
(#46,#47,#48)) REPRESENTATION_CONTEXT('Context #1',
  '3D Context with UNIT and UNCERTAINTY') );
#46 = ( LENGTH_UNIT() NAMED_UNIT(*) SI_UNIT(.MILLI.,.METRE.) );
#47 = ( NAMED_UNIT(*) PLANE_ANGLE_UNIT() SI_UNIT($,.RADIAN.) );
#48 = ( NAMED_UNIT(*) SI_UNIT($,.STERADIAN.) SOLID_ANGLE_UNIT() );
#49 = UNCERTAINTY_MEASURE_WITH_UNIT(LENGTH_MEASURE(1.E-07),#46,
  'distance_accuracy_value','confusion accuracy');
#50 = CONTEXT_DEPENDENT_SHAPE_REPRESENTATION(#51,#53);
#51 = ( REPRESENTATION_RELATIONSHIP('','',#40,#10) 
REPRESENTATION_RELATIONSHIP_WITH_TRANSFORMATION(#52) 
SHAPE_REPRESENTATION_RELATIONSHIP() );
#52 = ITEM_DEFINED_TRANSFORMATION('','',#11,#15);
#53 = PRODUCT_DEFINITION_SHAPE('Placement','Placement of an item',#54);
#54 = NEXT_ASSEMBLY_USAGE_OCCURRENCE('2','REF**','',#5,#35,$);
#55 = PRODUCT_RELATED_PRODUCT_CATEGORY('part',$,(#37));
#56 = SHAPE_DEFINITION_REPRESENTATION(#57,#63);
#57 = PRODUCT_DEFINITION_SHAPE('','',#58);
#58 = PRODUCT_DEFINITION('design','',#59,#62);
#59 = PRODUCT_DEFINITION_FORMATION('','',#60);
#60 = PRODUCT('PinHeader_1x01_P254mm_Vertical',
  'PinHeader_1x01_P254mm_Vertical','',(#61));
#61 = PRODUCT_CONTEXT('',#2,'mechanical');
#62 = PRODUCT_DEFINITION_CONTEXT('part definition',#2,'design');
#63 = ADVANCED_BREP_SHAPE_REPRESENTATION('',(#11,#64),#822);
#64 = MANIFOLD_SOLID_BREP('',#65);
#65 = CLOSED_SHELL('',(#66,#106,#137,#168,#251,#334,#351,#368,#385,#402,
    #414,#445,#469,#493,#510,#541,#565,#589,#606,#637,#661,#685,#702,
    #733,#757,#781,#798,#810));
#66 = ADVANCED_FACE('',(#67),#101,.F.);
#67 = FACE_BOUND('',#68,.F.);
#68 = EDGE_LOOP('',(#69,#79,#87,#95));
#69 = ORIENTED_EDGE('',*,*,#70,.T.);
#70 = EDGE_CURVE('',#71,#73,#75,.T.);
#71 = VERTEX_POINT('',#72);
#72 = CARTESIAN_POINT('',(-1.016,1.27,0.));
#73 = VERTEX_POINT('',#74);
#74 = CARTESIAN_POINT('',(-1.016,1.27,2.54));
#75 = LINE('',#76,#77);
#76 = CARTESIAN_POINT('',(-1.016,1.27,0.));
#77 = VECTOR('',#78,1.);
#78 = DIRECTION('',(0.,0.,1.));
#79 = ORIENTED_EDGE('',*,*,#80,.T.);
#80 = EDGE_CURVE('',#73,#81,#83,.T.);
#81 = VERTEX_POINT('',#82);
#82 = CARTESIAN_POINT('',(-1.27,1.016,2.54));
#83 = LINE('',#84,#85);
#84 = CARTESIAN_POINT('',(-1.016,1.27,2.54));
#85 = VECTOR('',#86,1.);
#86 = DIRECTION('',(-0.707106781187,-0.707106781187,0.));
#87 = ORIENTED_EDGE('',*,*,#88,.F.);
#88 = EDGE_CURVE('',#89,#81,#91,.T.);
#89 = VERTEX_POINT('',#90);
#90 = CARTESIAN_POINT('',(-1.27,1.016,0.));
#91 = LINE('',#92,#93);
#92 = CARTESIAN_POINT('',(-1.27,1.016,0.));
#93 = VECTOR('',#94,1.);
#94 = DIRECTION('',(0.,0.,1.));
#95 = ORIENTED_EDGE('',*,*,#96,.F.);
#96 = EDGE_CURVE('',#71,#89,#97,.T.);
#97 = LINE('',#98,#99);
#98 = CARTESIAN_POINT('',(-1.016,1.27,0.));
#99 = VECTOR('',#100,1.);
#100 = DIRECTION('',(-0.707106781187,-0.707106781187,0.));
#101 = PLANE('',#102);
#102 = AXIS2_PLACEMENT_3D('',#103,#104,#105);
#103 = CARTESIAN_POINT('',(-1.016,1.27,0.));
#104 = DIRECTION('',(0.707106781187,-0.707106781187,0.));
#105 = DIRECTION('',(-0.707106781187,-0.707106781187,0.));
#106 = ADVANCED_FACE('',(#107),#132,.F.);
#107 = FACE_BOUND('',#108,.F.);
#108 = EDGE_LOOP('',(#109,#119,#125,#126));
#109 = ORIENTED_EDGE('',*,*,#110,.T.);
#110 = EDGE_CURVE('',#111,#113,#115,.T.);
#111 = VERTEX_POINT('',#112);
#112 = CARTESIAN_POINT('',(1.016,1.27,0.));
#113 = VERTEX_POINT('',#114);
#114 = CARTESIAN_POINT('',(1.016,1.27,2.54));
#115 = LINE('',#116,#117);
#116 = CARTESIAN_POINT('',(1.016,1.27,0.));
#117 = VECTOR('',#118,1.);
#118 = DIRECTION('',(0.,0.,1.));
#119 = ORIENTED_EDGE('',*,*,#120,.T.);
#120 = EDGE_CURVE('',#113,#73,#121,.T.);
#121 = LINE('',#122,#123);
#122 = CARTESIAN_POINT('',(1.016,1.27,2.54));
#123 = VECTOR('',#124,1.);
#124 = DIRECTION('',(-1.,0.,0.));
#125 = ORIENTED_EDGE('',*,*,#70,.F.);
#126 = ORIENTED_EDGE('',*,*,#127,.F.);
#127 = EDGE_CURVE('',#111,#71,#128,.T.);
#128 = LINE('',#129,#130);
#129 = CARTESIAN_POINT('',(1.016,1.27,0.));
#130 = VECTOR('',#131,1.);
#131 = DIRECTION('',(-1.,0.,0.));
#132 = PLANE('',#133);
#133 = AXIS2_PLACEMENT_3D('',#134,#135,#136);
#134 = CARTESIAN_POINT('',(1.016,1.27,0.));
#135 = DIRECTION('',(0.,-1.,0.));
#136 = DIRECTION('',(-1.,0.,0.));
#137 = ADVANCED_FACE('',(#138),#163,.F.);
#138 = FACE_BOUND('',#139,.F.);
#139 = EDGE_LOOP('',(#140,#141,#149,#157));
#140 = ORIENTED_EDGE('',*,*,#88,.T.);
#141 = ORIENTED_EDGE('',*,*,#142,.T.);
#142 = EDGE_CURVE('',#81,#143,#145,.T.);
#143 = VERTEX_POINT('',#144);
#144 = CARTESIAN_POINT('',(-1.27,-1.016,2.54));
#145 = LINE('',#146,#147);
#146 = CARTESIAN_POINT('',(-1.27,1.016,2.54));
#147 = VECTOR('',#148,1.);
#148 = DIRECTION('',(0.,-1.,0.));
#149 = ORIENTED_EDGE('',*,*,#150,.F.);
#150 = EDGE_CURVE('',#151,#143,#153,.T.);
#151 = VERTEX_POINT('',#152);
#152 = CARTESIAN_POINT('',(-1.27,-1.016,0.));
#153 = LINE('',#154,#155);
#154 = CARTESIAN_POINT('',(-1.27,-1.016,0.));
#155 = VECTOR('',#156,1.);
#156 = DIRECTION('',(0.,0.,1.));
#157 = ORIENTED_EDGE('',*,*,#158,.F.);
#158 = EDGE_CURVE('',#89,#151,#159,.T.);
#159 = LINE('',#160,#161);
#160 = CARTESIAN_POINT('',(-1.27,1.016,0.));
#161 = VECTOR('',#162,1.);
#162 = DIRECTION('',(0.,-1.,0.));
#163 = PLANE('',#164);
#164 = AXIS2_PLACEMENT_3D('',#165,#166,#167);
#165 = CARTESIAN_POINT('',(-1.27,1.016,0.));
#166 = DIRECTION('',(1.,0.,0.));
#167 = DIRECTION('',(0.,-1.,0.));
#168 = ADVANCED_FACE('',(#169,#212),#246,.F.);
#169 = FACE_BOUND('',#170,.F.);
#170 = EDGE_LOOP('',(#171,#172,#173,#181,#189,#197,#205,#211));
#171 = ORIENTED_EDGE('',*,*,#96,.T.);
#172 = ORIENTED_EDGE('',*,*,#158,.T.);
#173 = ORIENTED_EDGE('',*,*,#174,.T.);
#174 = EDGE_CURVE('',#151,#175,#177,.T.);
#175 = VERTEX_POINT('',#176);
#176 = CARTESIAN_POINT('',(-1.016,-1.27,0.));
#177 = LINE('',#178,#179);
#178 = CARTESIAN_POINT('',(-1.27,-1.016,0.));
#179 = VECTOR('',#180,1.);
#180 = DIRECTION('',(0.707106781187,-0.707106781187,0.));
#181 = ORIENTED_EDGE('',*,*,#182,.T.);
#182 = EDGE_CURVE('',#175,#183,#185,.T.);
#183 = VERTEX_POINT('',#184);
#184 = CARTESIAN_POINT('',(1.016,-1.27,0.));
#185 = LINE('',#186,#187);
#186 = CARTESIAN_POINT('',(-1.016,-1.27,0.));
#187 = VECTOR('',#188,1.);
#188 = DIRECTION('',(1.,0.,0.));
#189 = ORIENTED_EDGE('',*,*,#190,.T.);
#190 = EDGE_CURVE('',#183,#191,#193,.T.);
#191 = VERTEX_POINT('',#192);
#192 = CARTESIAN_POINT('',(1.27,-1.016,0.));
#193 = LINE('',#194,#195);
#194 = CARTESIAN_POINT('',(1.016,-1.27,0.));
#195 = VECTOR('',#196,1.);
#196 = DIRECTION('',(0.707106781187,0.707106781187,0.));
#197 = ORIENTED_EDGE('',*,*,#198,.T.);
#198 = EDGE_CURVE('',#191,#199,#201,.T.);
#199 = VERTEX_POINT('',#200);
#200 = CARTESIAN_POINT('',(1.27,1.016,0.));
#201 = LINE('',#202,#203);
#202 = CARTESIAN_POINT('',(1.27,-1.016,0.));
#203 = VECTOR('',#204,1.);
#204 = DIRECTION('',(0.,1.,0.));
#205 = ORIENTED_EDGE('',*,*,#206,.T.);
#206 = EDGE_CURVE('',#199,#111,#207,.T.);
#207 = LINE('',#208,#209);
#208 = CARTESIAN_POINT('',(1.27,1.016,0.));
#209 = VECTOR('',#210,1.);
#210 = DIRECTION('',(-0.707106781187,0.707106781187,0.));
#211 = ORIENTED_EDGE('',*,*,#127,.T.);
#212 = FACE_BOUND('',#213,.F.);
#213 = EDGE_LOOP('',(#214,#224,#232,#240));
#214 = ORIENTED_EDGE('',*,*,#215,.T.);
#215 = EDGE_CURVE('',#216,#218,#220,.T.);
#216 = VERTEX_POINT('',#217);
#217 = CARTESIAN_POINT('',(0.32,-0.32,0.));
#218 = VERTEX_POINT('',#219);
#219 = CARTESIAN_POINT('',(-0.32,-0.32,0.));
#220 = LINE('',#221,#222);
#221 = CARTESIAN_POINT('',(-0.16,-0.32,0.));
#222 = VECTOR('',#223,1.);
#223 = DIRECTION('',(-1.,0.,0.));
#224 = ORIENTED_EDGE('',*,*,#225,.T.);
#225 = EDGE_CURVE('',#218,#226,#228,.T.);
#226 = VERTEX_POINT('',#227);
#227 = CARTESIAN_POINT('',(-0.32,0.32,0.));
#228 = LINE('',#229,#230);
#229 = CARTESIAN_POINT('',(-0.32,-0.16,0.));
#230 = VECTOR('',#231,1.);
#231 = DIRECTION('',(0.,1.,0.));
#232 = ORIENTED_EDGE('',*,*,#233,.F.);
#233 = EDGE_CURVE('',#234,#226,#236,.T.);
#234 = VERTEX_POINT('',#235);
#235 = CARTESIAN_POINT('',(0.32,0.32,0.));
#236 = LINE('',#237,#238);
#237 = CARTESIAN_POINT('',(-0.16,0.32,0.));
#238 = VECTOR('',#239,1.);
#239 = DIRECTION('',(-1.,0.,0.));
#240 = ORIENTED_EDGE('',*,*,#241,.F.);
#241 = EDGE_CURVE('',#216,#234,#242,.T.);
#242 = LINE('',#243,#244);
#243 = CARTESIAN_POINT('',(0.32,-0.16,0.));
#244 = VECTOR('',#245,1.);
#245 = DIRECTION('',(0.,1.,0.));
#246 = PLANE('',#247);
#247 = AXIS2_PLACEMENT_3D('',#248,#249,#250);
#248 = CARTESIAN_POINT('',(2.321466769849E-17,4.642933539699E-17,0.));
#249 = DIRECTION('',(0.,0.,1.));
#250 = DIRECTION('',(1.,0.,-0.));
#251 = ADVANCED_FACE('',(#252,#295),#329,.T.);
#252 = FACE_BOUND('',#253,.T.);
#253 = EDGE_LOOP('',(#254,#255,#256,#264,#272,#280,#288,#294));
#254 = ORIENTED_EDGE('',*,*,#80,.T.);
#255 = ORIENTED_EDGE('',*,*,#142,.T.);
#256 = ORIENTED_EDGE('',*,*,#257,.T.);
#257 = EDGE_CURVE('',#143,#258,#260,.T.);
#258 = VERTEX_POINT('',#259);
#259 = CARTESIAN_POINT('',(-1.016,-1.27,2.54));
#260 = LINE('',#261,#262);
#261 = CARTESIAN_POINT('',(-1.27,-1.016,2.54));
#262 = VECTOR('',#263,1.);
#263 = DIRECTION('',(0.707106781187,-0.707106781187,0.));
#264 = ORIENTED_EDGE('',*,*,#265,.T.);
#265 = EDGE_CURVE('',#258,#266,#268,.T.);
#266 = VERTEX_POINT('',#267);
#267 = CARTESIAN_POINT('',(1.016,-1.27,2.54));
#268 = LINE('',#269,#270);
#269 = CARTESIAN_POINT('',(-1.016,-1.27,2.54));
#270 = VECTOR('',#271,1.);
#271 = DIRECTION('',(1.,0.,0.));
#272 = ORIENTED_EDGE('',*,*,#273,.T.);
#273 = EDGE_CURVE('',#266,#274,#276,.T.);
#274 = VERTEX_POINT('',#275);
#275 = CARTESIAN_POINT('',(1.27,-1.016,2.54));
#276 = LINE('',#277,#278);
#277 = CARTESIAN_POINT('',(1.016,-1.27,2.54));
#278 = VECTOR('',#279,1.);
#279 = DIRECTION('',(0.707106781187,0.707106781187,0.));
#280 = ORIENTED_EDGE('',*,*,#281,.T.);
#281 = EDGE_CURVE('',#274,#282,#284,.T.);
#282 = VERTEX_POINT('',#283);
#283 = CARTESIAN_POINT('',(1.27,1.016,2.54));
#284 = LINE('',#285,#286);
#285 = CARTESIAN_POINT('',(1.27,-1.016,2.54));
#286 = VECTOR('',#287,1.);
#287 = DIRECTION('',(0.,1.,0.));
#288 = ORIENTED_EDGE('',*,*,#289,.T.);
#289 = EDGE_CURVE('',#282,#113,#290,.T.);
#290 = LINE('',#291,#292);
#291 = CARTESIAN_POINT('',(1.27,1.016,2.54));
#292 = VECTOR('',#293,1.);
#293 = DIRECTION('',(-0.707106781187,0.707106781187,0.));
#294 = ORIENTED_EDGE('',*,*,#120,.T.);
#295 = FACE_BOUND('',#296,.T.);
#296 = EDGE_LOOP('',(#297,#307,#315,#323));
#297 = ORIENTED_EDGE('',*,*,#298,.T.);
#298 = EDGE_CURVE('',#299,#301,#303,.T.);
#299 = VERTEX_POINT('',#300);
#300 = CARTESIAN_POINT('',(0.32,-0.32,2.54));
#301 = VERTEX_POINT('',#302);
#302 = CARTESIAN_POINT('',(-0.32,-0.32,2.54));
#303 = LINE('',#304,#305);
#304 = CARTESIAN_POINT('',(-0.16,-0.32,2.54));
#305 = VECTOR('',#306,1.);
#306 = DIRECTION('',(-1.,0.,0.));
#307 = ORIENTED_EDGE('',*,*,#308,.T.);
#308 = EDGE_CURVE('',#301,#309,#311,.T.);
#309 = VERTEX_POINT('',#310);
#310 = CARTESIAN_POINT('',(-0.32,0.32,2.54));
#311 = LINE('',#312,#313);
#312 = CARTESIAN_POINT('',(-0.32,-0.16,2.54));
#313 = VECTOR('',#314,1.);
#314 = DIRECTION('',(0.,1.,0.));
#315 = ORIENTED_EDGE('',*,*,#316,.F.);
#316 = EDGE_CURVE('',#317,#309,#319,.T.);
#317 = VERTEX_POINT('',#318);
#318 = CARTESIAN_POINT('',(0.32,0.32,2.54));
#319 = LINE('',#320,#321);
#320 = CARTESIAN_POINT('',(-0.16,0.32,2.54));
#321 = VECTOR('',#322,1.);
#322 = DIRECTION('',(-1.,0.,0.));
#323 = ORIENTED_EDGE('',*,*,#324,.F.);
#324 = EDGE_CURVE('',#299,#317,#325,.T.);
#325 = LINE('',#326,#327);
#326 = CARTESIAN_POINT('',(0.32,-0.16,2.54));
#327 = VECTOR('',#328,1.);
#328 = DIRECTION('',(0.,1.,0.));
#329 = PLANE('',#330);
#330 = AXIS2_PLACEMENT_3D('',#331,#332,#333);
#331 = CARTESIAN_POINT('',(2.321466769849E-17,4.642933539699E-17,2.54));
#332 = DIRECTION('',(0.,0.,1.));
#333 = DIRECTION('',(1.,0.,-0.));
#334 = ADVANCED_FACE('',(#335),#346,.F.);
#335 = FACE_BOUND('',#336,.F.);
#336 = EDGE_LOOP('',(#337,#343,#344,#345));
#337 = ORIENTED_EDGE('',*,*,#338,.T.);
#338 = EDGE_CURVE('',#199,#282,#339,.T.);
#339 = LINE('',#340,#341);
#340 = CARTESIAN_POINT('',(1.27,1.016,0.));
#341 = VECTOR('',#342,1.);
#342 = DIRECTION('',(0.,0.,1.));
#343 = ORIENTED_EDGE('',*,*,#289,.T.);
#344 = ORIENTED_EDGE('',*,*,#110,.F.);
#345 = ORIENTED_EDGE('',*,*,#206,.F.);
#346 = PLANE('',#347);
#347 = AXIS2_PLACEMENT_3D('',#348,#349,#350);
#348 = CARTESIAN_POINT('',(1.27,1.016,0.));
#349 = DIRECTION('',(-0.707106781187,-0.707106781187,0.));
#350 = DIRECTION('',(-0.707106781187,0.707106781187,0.));
#351 = ADVANCED_FACE('',(#352),#363,.F.);
#352 = FACE_BOUND('',#353,.F.);
#353 = EDGE_LOOP('',(#354,#355,#356,#362));
#354 = ORIENTED_EDGE('',*,*,#150,.T.);
#355 = ORIENTED_EDGE('',*,*,#257,.T.);
#356 = ORIENTED_EDGE('',*,*,#357,.F.);
#357 = EDGE_CURVE('',#175,#258,#358,.T.);
#358 = LINE('',#359,#360);
#359 = CARTESIAN_POINT('',(-1.016,-1.27,0.));
#360 = VECTOR('',#361,1.);
#361 = DIRECTION('',(0.,0.,1.));
#362 = ORIENTED_EDGE('',*,*,#174,.F.);
#363 = PLANE('',#364);
#364 = AXIS2_PLACEMENT_3D('',#365,#366,#367);
#365 = CARTESIAN_POINT('',(-1.27,-1.016,0.));
#366 = DIRECTION('',(0.707106781187,0.707106781187,0.));
#367 = DIRECTION('',(0.707106781187,-0.707106781187,0.));
#368 = ADVANCED_FACE('',(#369),#380,.F.);
#369 = FACE_BOUND('',#370,.F.);
#370 = EDGE_LOOP('',(#371,#377,#378,#379));
#371 = ORIENTED_EDGE('',*,*,#372,.T.);
#372 = EDGE_CURVE('',#191,#274,#373,.T.);
#373 = LINE('',#374,#375);
#374 = CARTESIAN_POINT('',(1.27,-1.016,0.));
#375 = VECTOR('',#376,1.);
#376 = DIRECTION('',(0.,0.,1.));
#377 = ORIENTED_EDGE('',*,*,#281,.T.);
#378 = ORIENTED_EDGE('',*,*,#338,.F.);
#379 = ORIENTED_EDGE('',*,*,#198,.F.);
#380 = PLANE('',#381);
#381 = AXIS2_PLACEMENT_3D('',#382,#383,#384);
#382 = CARTESIAN_POINT('',(1.27,-1.016,0.));
#383 = DIRECTION('',(-1.,0.,0.));
#384 = DIRECTION('',(0.,1.,0.));
#385 = ADVANCED_FACE('',(#386),#397,.F.);
#386 = FACE_BOUND('',#387,.F.);
#387 = EDGE_LOOP('',(#388,#389,#390,#396));
#388 = ORIENTED_EDGE('',*,*,#357,.T.);
#389 = ORIENTED_EDGE('',*,*,#265,.T.);
#390 = ORIENTED_EDGE('',*,*,#391,.F.);
#391 = EDGE_CURVE('',#183,#266,#392,.T.);
#392 = LINE('',#393,#394);
#393 = CARTESIAN_POINT('',(1.016,-1.27,0.));
#394 = VECTOR('',#395,1.);
#395 = DIRECTION('',(0.,0.,1.));
#396 = ORIENTED_EDGE('',*,*,#182,.F.);
#397 = PLANE('',#398);
#398 = AXIS2_PLACEMENT_3D('',#399,#400,#401);
#399 = CARTESIAN_POINT('',(-1.016,-1.27,0.));
#400 = DIRECTION('',(0.,1.,0.));
#401 = DIRECTION('',(1.,0.,0.));
#402 = ADVANCED_FACE('',(#403),#409,.F.);
#403 = FACE_BOUND('',#404,.F.);
#404 = EDGE_LOOP('',(#405,#406,#407,#408));
#405 = ORIENTED_EDGE('',*,*,#391,.T.);
#406 = ORIENTED_EDGE('',*,*,#273,.T.);
#407 = ORIENTED_EDGE('',*,*,#372,.F.);
#408 = ORIENTED_EDGE('',*,*,#190,.F.);
#409 = PLANE('',#410);
#410 = AXIS2_PLACEMENT_3D('',#411,#412,#413);
#411 = CARTESIAN_POINT('',(1.016,-1.27,0.));
#412 = DIRECTION('',(-0.707106781187,0.707106781187,0.));
#413 = DIRECTION('',(0.707106781187,0.707106781187,0.));
#414 = ADVANCED_FACE('',(#415),#440,.F.);
#415 = FACE_BOUND('',#416,.F.);
#416 = EDGE_LOOP('',(#417,#425,#433,#439));
#417 = ORIENTED_EDGE('',*,*,#418,.F.);
#418 = EDGE_CURVE('',#419,#216,#421,.T.);
#419 = VERTEX_POINT('',#420);
#420 = CARTESIAN_POINT('',(0.32,-0.32,-2.84));
#421 = LINE('',#422,#423);
#422 = CARTESIAN_POINT('',(0.32,-0.32,-3.));
#423 = VECTOR('',#424,1.);
#424 = DIRECTION('',(0.,0.,1.));
#425 = ORIENTED_EDGE('',*,*,#426,.F.);
#426 = EDGE_CURVE('',#427,#419,#429,.T.);
#427 = VERTEX_POINT('',#428);
#428 = CARTESIAN_POINT('',(-0.32,-0.32,-2.84));
#429 = LINE('',#430,#431);
#430 = CARTESIAN_POINT('',(-0.32,-0.32,-2.84));
#431 = VECTOR('',#432,1.);
#432 = DIRECTION('',(1.,0.,0.));
#433 = ORIENTED_EDGE('',*,*,#434,.T.);
#434 = EDGE_CURVE('',#427,#218,#435,.T.);
#435 = LINE('',#436,#437);
#436 = CARTESIAN_POINT('',(-0.32,-0.32,-3.));
#437 = VECTOR('',#438,1.);
#438 = DIRECTION('',(0.,0.,1.));
#439 = ORIENTED_EDGE('',*,*,#215,.F.);
#440 = PLANE('',#441);
#441 = AXIS2_PLACEMENT_3D('',#442,#443,#444);
#442 = CARTESIAN_POINT('',(-0.32,-0.32,-3.));
#443 = DIRECTION('',(0.,1.,0.));
#444 = DIRECTION('',(0.,-0.,1.));
#445 = ADVANCED_FACE('',(#446),#464,.T.);
#446 = FACE_BOUND('',#447,.T.);
#447 = EDGE_LOOP('',(#448,#449,#457,#463));
#448 = ORIENTED_EDGE('',*,*,#418,.F.);
#449 = ORIENTED_EDGE('',*,*,#450,.T.);
#450 = EDGE_CURVE('',#419,#451,#453,.T.);
#451 = VERTEX_POINT('',#452);
#452 = CARTESIAN_POINT('',(0.32,0.32,-2.84));
#453 = LINE('',#454,#455);
#454 = CARTESIAN_POINT('',(0.32,-0.32,-2.84));
#455 = VECTOR('',#456,1.);
#456 = DIRECTION('',(0.,1.,0.));
#457 = ORIENTED_EDGE('',*,*,#458,.T.);
#458 = EDGE_CURVE('',#451,#234,#459,.T.);
#459 = LINE('',#460,#461);
#460 = CARTESIAN_POINT('',(0.32,0.32,-3.));
#461 = VECTOR('',#462,1.);
#462 = DIRECTION('',(0.,0.,1.));
#463 = ORIENTED_EDGE('',*,*,#241,.F.);
#464 = PLANE('',#465);
#465 = AXIS2_PLACEMENT_3D('',#466,#467,#468);
#466 = CARTESIAN_POINT('',(0.32,-0.32,-3.));
#467 = DIRECTION('',(1.,0.,0.));
#468 = DIRECTION('',(0.,0.,1.));
#469 = ADVANCED_FACE('',(#470),#488,.T.);
#470 = FACE_BOUND('',#471,.T.);
#471 = EDGE_LOOP('',(#472,#473,#481,#487));
#472 = ORIENTED_EDGE('',*,*,#458,.F.);
#473 = ORIENTED_EDGE('',*,*,#474,.F.);
#474 = EDGE_CURVE('',#475,#451,#477,.T.);
#475 = VERTEX_POINT('',#476);
#476 = CARTESIAN_POINT('',(-0.32,0.32,-2.84));
#477 = LINE('',#478,#479);
#478 = CARTESIAN_POINT('',(-0.32,0.32,-2.84));
#479 = VECTOR('',#480,1.);
#480 = DIRECTION('',(1.,0.,0.));
#481 = ORIENTED_EDGE('',*,*,#482,.T.);
#482 = EDGE_CURVE('',#475,#226,#483,.T.);
#483 = LINE('',#484,#485);
#484 = CARTESIAN_POINT('',(-0.32,0.32,-3.));
#485 = VECTOR('',#486,1.);
#486 = DIRECTION('',(0.,0.,1.));
#487 = ORIENTED_EDGE('',*,*,#233,.F.);
#488 = PLANE('',#489);
#489 = AXIS2_PLACEMENT_3D('',#490,#491,#492);
#490 = CARTESIAN_POINT('',(-0.32,0.32,-3.));
#491 = DIRECTION('',(0.,1.,0.));
#492 = DIRECTION('',(0.,-0.,1.));
#493 = ADVANCED_FACE('',(#494),#505,.F.);
#494 = FACE_BOUND('',#495,.F.);
#495 = EDGE_LOOP('',(#496,#497,#503,#504));
#496 = ORIENTED_EDGE('',*,*,#434,.F.);
#497 = ORIENTED_EDGE('',*,*,#498,.T.);
#498 = EDGE_CURVE('',#427,#475,#499,.T.);
#499 = LINE('',#500,#501);
#500 = CARTESIAN_POINT('',(-0.32,-0.32,-2.84));
#501 = VECTOR('',#502,1.);
#502 = DIRECTION('',(0.,1.,0.));
#503 = ORIENTED_EDGE('',*,*,#482,.T.);
#504 = ORIENTED_EDGE('',*,*,#225,.F.);
#505 = PLANE('',#506);
#506 = AXIS2_PLACEMENT_3D('',#507,#508,#509);
#507 = CARTESIAN_POINT('',(-0.32,-0.32,-3.));
#508 = DIRECTION('',(1.,0.,0.));
#509 = DIRECTION('',(0.,0.,1.));
#510 = ADVANCED_FACE('',(#511),#536,.F.);
#511 = FACE_BOUND('',#512,.F.);
#512 = EDGE_LOOP('',(#513,#521,#522,#530));
#513 = ORIENTED_EDGE('',*,*,#514,.F.);
#514 = EDGE_CURVE('',#299,#515,#517,.T.);
#515 = VERTEX_POINT('',#516);
#516 = CARTESIAN_POINT('',(0.32,-0.32,8.38));
#517 = LINE('',#518,#519);
#518 = CARTESIAN_POINT('',(0.32,-0.32,-3.));
#519 = VECTOR('',#520,1.);
#520 = DIRECTION('',(0.,0.,1.));
#521 = ORIENTED_EDGE('',*,*,#298,.T.);
#522 = ORIENTED_EDGE('',*,*,#523,.T.);
#523 = EDGE_CURVE('',#301,#524,#526,.T.);
#524 = VERTEX_POINT('',#525);
#525 = CARTESIAN_POINT('',(-0.32,-0.32,8.38));
#526 = LINE('',#527,#528);
#527 = CARTESIAN_POINT('',(-0.32,-0.32,-3.));
#528 = VECTOR('',#529,1.);
#529 = DIRECTION('',(0.,0.,1.));
#530 = ORIENTED_EDGE('',*,*,#531,.T.);
#531 = EDGE_CURVE('',#524,#515,#532,.T.);
#532 = LINE('',#533,#534);
#533 = CARTESIAN_POINT('',(-0.32,-0.32,8.38));
#534 = VECTOR('',#535,1.);
#535 = DIRECTION('',(1.,0.,0.));
#536 = PLANE('',#537);
#537 = AXIS2_PLACEMENT_3D('',#538,#539,#540);
#538 = CARTESIAN_POINT('',(-0.32,-0.32,-3.));
#539 = DIRECTION('',(0.,1.,0.));
#540 = DIRECTION('',(0.,-0.,1.));
#541 = ADVANCED_FACE('',(#542),#560,.T.);
#542 = FACE_BOUND('',#543,.T.);
#543 = EDGE_LOOP('',(#544,#545,#546,#554));
#544 = ORIENTED_EDGE('',*,*,#514,.F.);
#545 = ORIENTED_EDGE('',*,*,#324,.T.);
#546 = ORIENTED_EDGE('',*,*,#547,.T.);
#547 = EDGE_CURVE('',#317,#548,#550,.T.);
#548 = VERTEX_POINT('',#549);
#549 = CARTESIAN_POINT('',(0.32,0.32,8.38));
#550 = LINE('',#551,#552);
#551 = CARTESIAN_POINT('',(0.32,0.32,-3.));
#552 = VECTOR('',#553,1.);
#553 = DIRECTION('',(0.,0.,1.));
#554 = ORIENTED_EDGE('',*,*,#555,.F.);
#555 = EDGE_CURVE('',#515,#548,#556,.T.);
#556 = LINE('',#557,#558);
#557 = CARTESIAN_POINT('',(0.32,-0.32,8.38));
#558 = VECTOR('',#559,1.);
#559 = DIRECTION('',(0.,1.,0.));
#560 = PLANE('',#561);
#561 = AXIS2_PLACEMENT_3D('',#562,#563,#564);
#562 = CARTESIAN_POINT('',(0.32,-0.32,-3.));
#563 = DIRECTION('',(1.,0.,0.));
#564 = DIRECTION('',(0.,0.,1.));
#565 = ADVANCED_FACE('',(#566),#584,.T.);
#566 = FACE_BOUND('',#567,.T.);
#567 = EDGE_LOOP('',(#568,#569,#570,#578));
#568 = ORIENTED_EDGE('',*,*,#547,.F.);
#569 = ORIENTED_EDGE('',*,*,#316,.T.);
#570 = ORIENTED_EDGE('',*,*,#571,.T.);
#571 = EDGE_CURVE('',#309,#572,#574,.T.);
#572 = VERTEX_POINT('',#573);
#573 = CARTESIAN_POINT('',(-0.32,0.32,8.38));
#574 = LINE('',#575,#576);
#575 = CARTESIAN_POINT('',(-0.32,0.32,-3.));
#576 = VECTOR('',#577,1.);
#577 = DIRECTION('',(0.,0.,1.));
#578 = ORIENTED_EDGE('',*,*,#579,.T.);
#579 = EDGE_CURVE('',#572,#548,#580,.T.);
#580 = LINE('',#581,#582);
#581 = CARTESIAN_POINT('',(-0.32,0.32,8.38));
#582 = VECTOR('',#583,1.);
#583 = DIRECTION('',(1.,0.,0.));
#584 = PLANE('',#585);
#585 = AXIS2_PLACEMENT_3D('',#586,#587,#588);
#586 = CARTESIAN_POINT('',(-0.32,0.32,-3.));
#587 = DIRECTION('',(0.,1.,0.));
#588 = DIRECTION('',(0.,-0.,1.));
#589 = ADVANCED_FACE('',(#590),#601,.F.);
#590 = FACE_BOUND('',#591,.F.);
#591 = EDGE_LOOP('',(#592,#593,#594,#595));
#592 = ORIENTED_EDGE('',*,*,#523,.F.);
#593 = ORIENTED_EDGE('',*,*,#308,.T.);
#594 = ORIENTED_EDGE('',*,*,#571,.T.);
#595 = ORIENTED_EDGE('',*,*,#596,.F.);
#596 = EDGE_CURVE('',#524,#572,#597,.T.);
#597 = LINE('',#598,#599);
#598 = CARTESIAN_POINT('',(-0.32,-0.32,8.38));
#599 = VECTOR('',#600,1.);
#600 = DIRECTION('',(0.,1.,0.));
#601 = PLANE('',#602);
#602 = AXIS2_PLACEMENT_3D('',#603,#604,#605);
#603 = CARTESIAN_POINT('',(-0.32,-0.32,-3.));
#604 = DIRECTION('',(1.,0.,0.));
#605 = DIRECTION('',(0.,0.,1.));
#606 = ADVANCED_FACE('',(#607),#632,.T.);
#607 = FACE_BOUND('',#608,.F.);
#608 = EDGE_LOOP('',(#609,#617,#618,#626));
#609 = ORIENTED_EDGE('',*,*,#610,.F.);
#610 = EDGE_CURVE('',#427,#611,#613,.T.);
#611 = VERTEX_POINT('',#612);
#612 = CARTESIAN_POINT('',(-0.16,-0.16,-3.));
#613 = LINE('',#614,#615);
#614 = CARTESIAN_POINT('',(-0.266666666667,-0.266666666667,
    -2.893333333333));
#615 = VECTOR('',#616,1.);
#616 = DIRECTION('',(0.57735026919,0.57735026919,-0.57735026919));
#617 = ORIENTED_EDGE('',*,*,#426,.T.);
#618 = ORIENTED_EDGE('',*,*,#619,.T.);
#619 = EDGE_CURVE('',#419,#620,#622,.T.);
#620 = VERTEX_POINT('',#621);
#621 = CARTESIAN_POINT('',(0.16,-0.16,-3.));
#622 = LINE('',#623,#624);
#623 = CARTESIAN_POINT('',(0.16,-0.16,-3.));
#624 = VECTOR('',#625,1.);
#625 = DIRECTION('',(-0.57735026919,0.57735026919,-0.57735026919));
#626 = ORIENTED_EDGE('',*,*,#627,.F.);
#627 = EDGE_CURVE('',#611,#620,#628,.T.);
#628 = LINE('',#629,#630);
#629 = CARTESIAN_POINT('',(-0.32,-0.16,-3.));
#630 = VECTOR('',#631,1.);
#631 = DIRECTION('',(1.,0.,0.));
#632 = PLANE('',#633);
#633 = AXIS2_PLACEMENT_3D('',#634,#635,#636);
#634 = CARTESIAN_POINT('',(-0.32,-0.24,-2.92));
#635 = DIRECTION('',(1.735167508357E-18,-0.707106781187,-0.707106781187)
  );
#636 = DIRECTION('',(-1.,-1.226948711654E-18,-1.226948711654E-18));
#637 = ADVANCED_FACE('',(#638),#656,.F.);
#638 = FACE_BOUND('',#639,.F.);
#639 = EDGE_LOOP('',(#640,#641,#642,#650));
#640 = ORIENTED_EDGE('',*,*,#619,.F.);
#641 = ORIENTED_EDGE('',*,*,#450,.T.);
#642 = ORIENTED_EDGE('',*,*,#643,.T.);
#643 = EDGE_CURVE('',#451,#644,#646,.T.);
#644 = VERTEX_POINT('',#645);
#645 = CARTESIAN_POINT('',(0.16,0.16,-3.));
#646 = LINE('',#647,#648);
#647 = CARTESIAN_POINT('',(5.333333333333E-02,5.333333333333E-02,
    -3.106666666667));
#648 = VECTOR('',#649,1.);
#649 = DIRECTION('',(-0.57735026919,-0.57735026919,-0.57735026919));
#650 = ORIENTED_EDGE('',*,*,#651,.F.);
#651 = EDGE_CURVE('',#620,#644,#652,.T.);
#652 = LINE('',#653,#654);
#653 = CARTESIAN_POINT('',(0.16,-0.32,-3.));
#654 = VECTOR('',#655,1.);
#655 = DIRECTION('',(0.,1.,0.));
#656 = PLANE('',#657);
#657 = AXIS2_PLACEMENT_3D('',#658,#659,#660);
#658 = CARTESIAN_POINT('',(0.24,-0.32,-2.92));
#659 = DIRECTION('',(-0.707106781187,1.735167508357E-18,0.707106781187)
  );
#660 = DIRECTION('',(1.226948711654E-18,1.,-1.226948711654E-18));
#661 = ADVANCED_FACE('',(#662),#680,.F.);
#662 = FACE_BOUND('',#663,.T.);
#663 = EDGE_LOOP('',(#664,#672,#673,#674));
#664 = ORIENTED_EDGE('',*,*,#665,.F.);
#665 = EDGE_CURVE('',#475,#666,#668,.T.);
#666 = VERTEX_POINT('',#667);
#667 = CARTESIAN_POINT('',(-0.16,0.16,-3.));
#668 = LINE('',#669,#670);
#669 = CARTESIAN_POINT('',(-0.16,0.16,-3.));
#670 = VECTOR('',#671,1.);
#671 = DIRECTION('',(0.57735026919,-0.57735026919,-0.57735026919));
#672 = ORIENTED_EDGE('',*,*,#474,.T.);
#673 = ORIENTED_EDGE('',*,*,#643,.T.);
#674 = ORIENTED_EDGE('',*,*,#675,.F.);
#675 = EDGE_CURVE('',#666,#644,#676,.T.);
#676 = LINE('',#677,#678);
#677 = CARTESIAN_POINT('',(-0.32,0.16,-3.));
#678 = VECTOR('',#679,1.);
#679 = DIRECTION('',(1.,0.,0.));
#680 = PLANE('',#681);
#681 = AXIS2_PLACEMENT_3D('',#682,#683,#684);
#682 = CARTESIAN_POINT('',(-0.32,0.24,-2.92));
#683 = DIRECTION('',(-1.735167508357E-18,-0.707106781187,0.707106781187)
  );
#684 = DIRECTION('',(-1.,1.226948711654E-18,-1.226948711654E-18));
#685 = ADVANCED_FACE('',(#686),#697,.T.);
#686 = FACE_BOUND('',#687,.T.);
#687 = EDGE_LOOP('',(#688,#689,#690,#691));
#688 = ORIENTED_EDGE('',*,*,#610,.F.);
#689 = ORIENTED_EDGE('',*,*,#498,.T.);
#690 = ORIENTED_EDGE('',*,*,#665,.T.);
#691 = ORIENTED_EDGE('',*,*,#692,.F.);
#692 = EDGE_CURVE('',#611,#666,#693,.T.);
#693 = LINE('',#694,#695);
#694 = CARTESIAN_POINT('',(-0.16,-0.32,-3.));
#695 = VECTOR('',#696,1.);
#696 = DIRECTION('',(0.,1.,0.));
#697 = PLANE('',#698);
#698 = AXIS2_PLACEMENT_3D('',#699,#700,#701);
#699 = CARTESIAN_POINT('',(-0.24,-0.32,-2.92));
#700 = DIRECTION('',(-0.707106781187,-1.735167508357E-18,-0.707106781187
    ));
#701 = DIRECTION('',(-1.226948711654E-18,1.,-1.226948711654E-18));
#702 = ADVANCED_FACE('',(#703),#728,.F.);
#703 = FACE_BOUND('',#704,.T.);
#704 = EDGE_LOOP('',(#705,#713,#714,#722));
#705 = ORIENTED_EDGE('',*,*,#706,.F.);
#706 = EDGE_CURVE('',#524,#707,#709,.T.);
#707 = VERTEX_POINT('',#708);
#708 = CARTESIAN_POINT('',(-0.16,-0.16,8.54));
#709 = LINE('',#710,#711);
#710 = CARTESIAN_POINT('',(-0.266666666667,-0.266666666667,
    8.433333333333));
#711 = VECTOR('',#712,1.);
#712 = DIRECTION('',(0.57735026919,0.57735026919,0.57735026919));
#713 = ORIENTED_EDGE('',*,*,#531,.T.);
#714 = ORIENTED_EDGE('',*,*,#715,.T.);
#715 = EDGE_CURVE('',#515,#716,#718,.T.);
#716 = VERTEX_POINT('',#717);
#717 = CARTESIAN_POINT('',(0.16,-0.16,8.54));
#718 = LINE('',#719,#720);
#719 = CARTESIAN_POINT('',(0.16,-0.16,8.54));
#720 = VECTOR('',#721,1.);
#721 = DIRECTION('',(-0.57735026919,0.57735026919,0.57735026919));
#722 = ORIENTED_EDGE('',*,*,#723,.F.);
#723 = EDGE_CURVE('',#707,#716,#724,.T.);
#724 = LINE('',#725,#726);
#725 = CARTESIAN_POINT('',(-0.32,-0.16,8.54));
#726 = VECTOR('',#727,1.);
#727 = DIRECTION('',(1.,0.,0.));
#728 = PLANE('',#729);
#729 = AXIS2_PLACEMENT_3D('',#730,#731,#732);
#730 = CARTESIAN_POINT('',(-0.32,-0.24,8.46));
#731 = DIRECTION('',(-1.735167508357E-18,0.707106781187,-0.707106781187)
  );
#732 = DIRECTION('',(-1.,-1.226948711654E-18,1.226948711654E-18));
#733 = ADVANCED_FACE('',(#734),#752,.T.);
#734 = FACE_BOUND('',#735,.T.);
#735 = EDGE_LOOP('',(#736,#737,#738,#746));
#736 = ORIENTED_EDGE('',*,*,#715,.F.);
#737 = ORIENTED_EDGE('',*,*,#555,.T.);
#738 = ORIENTED_EDGE('',*,*,#739,.T.);
#739 = EDGE_CURVE('',#548,#740,#742,.T.);
#740 = VERTEX_POINT('',#741);
#741 = CARTESIAN_POINT('',(0.16,0.16,8.54));
#742 = LINE('',#743,#744);
#743 = CARTESIAN_POINT('',(5.333333333333E-02,5.333333333333E-02,
    8.646666666667));
#744 = VECTOR('',#745,1.);
#745 = DIRECTION('',(-0.57735026919,-0.57735026919,0.57735026919));
#746 = ORIENTED_EDGE('',*,*,#747,.F.);
#747 = EDGE_CURVE('',#716,#740,#748,.T.);
#748 = LINE('',#749,#750);
#749 = CARTESIAN_POINT('',(0.16,-0.32,8.54));
#750 = VECTOR('',#751,1.);
#751 = DIRECTION('',(0.,1.,0.));
#752 = PLANE('',#753);
#753 = AXIS2_PLACEMENT_3D('',#754,#755,#756);
#754 = CARTESIAN_POINT('',(0.24,-0.32,8.46));
#755 = DIRECTION('',(0.707106781187,-1.735167508357E-18,0.707106781187)
  );
#756 = DIRECTION('',(1.226948711654E-18,1.,1.226948711654E-18));
#757 = ADVANCED_FACE('',(#758),#776,.T.);
#758 = FACE_BOUND('',#759,.F.);
#759 = EDGE_LOOP('',(#760,#768,#769,#770));
#760 = ORIENTED_EDGE('',*,*,#761,.F.);
#761 = EDGE_CURVE('',#572,#762,#764,.T.);
#762 = VERTEX_POINT('',#763);
#763 = CARTESIAN_POINT('',(-0.16,0.16,8.54));
#764 = LINE('',#765,#766);
#765 = CARTESIAN_POINT('',(-0.16,0.16,8.54));
#766 = VECTOR('',#767,1.);
#767 = DIRECTION('',(0.57735026919,-0.57735026919,0.57735026919));
#768 = ORIENTED_EDGE('',*,*,#579,.T.);
#769 = ORIENTED_EDGE('',*,*,#739,.T.);
#770 = ORIENTED_EDGE('',*,*,#771,.F.);
#771 = EDGE_CURVE('',#762,#740,#772,.T.);
#772 = LINE('',#773,#774);
#773 = CARTESIAN_POINT('',(-0.32,0.16,8.54));
#774 = VECTOR('',#775,1.);
#775 = DIRECTION('',(1.,0.,0.));
#776 = PLANE('',#777);
#777 = AXIS2_PLACEMENT_3D('',#778,#779,#780);
#778 = CARTESIAN_POINT('',(-0.32,0.24,8.46));
#779 = DIRECTION('',(1.735167508357E-18,0.707106781187,0.707106781187));
#780 = DIRECTION('',(-1.,1.226948711654E-18,1.226948711654E-18));
#781 = ADVANCED_FACE('',(#782),#793,.F.);
#782 = FACE_BOUND('',#783,.F.);
#783 = EDGE_LOOP('',(#784,#785,#786,#787));
#784 = ORIENTED_EDGE('',*,*,#706,.F.);
#785 = ORIENTED_EDGE('',*,*,#596,.T.);
#786 = ORIENTED_EDGE('',*,*,#761,.T.);
#787 = ORIENTED_EDGE('',*,*,#788,.F.);
#788 = EDGE_CURVE('',#707,#762,#789,.T.);
#789 = LINE('',#790,#791);
#790 = CARTESIAN_POINT('',(-0.16,-0.32,8.54));
#791 = VECTOR('',#792,1.);
#792 = DIRECTION('',(0.,1.,0.));
#793 = PLANE('',#794);
#794 = AXIS2_PLACEMENT_3D('',#795,#796,#797);
#795 = CARTESIAN_POINT('',(-0.24,-0.32,8.46));
#796 = DIRECTION('',(0.707106781187,1.735167508357E-18,-0.707106781187)
  );
#797 = DIRECTION('',(-1.226948711654E-18,1.,1.226948711654E-18));
#798 = ADVANCED_FACE('',(#799),#805,.F.);
#799 = FACE_BOUND('',#800,.F.);
#800 = EDGE_LOOP('',(#801,#802,#803,#804));
#801 = ORIENTED_EDGE('',*,*,#675,.F.);
#802 = ORIENTED_EDGE('',*,*,#692,.F.);
#803 = ORIENTED_EDGE('',*,*,#627,.T.);
#804 = ORIENTED_EDGE('',*,*,#651,.T.);
#805 = PLANE('',#806);
#806 = AXIS2_PLACEMENT_3D('',#807,#808,#809);
#807 = CARTESIAN_POINT('',(-0.32,-0.32,-3.));
#808 = DIRECTION('',(0.,0.,1.));
#809 = DIRECTION('',(1.,0.,-0.));
#810 = ADVANCED_FACE('',(#811),#817,.T.);
#811 = FACE_BOUND('',#812,.T.);
#812 = EDGE_LOOP('',(#813,#814,#815,#816));
#813 = ORIENTED_EDGE('',*,*,#747,.T.);
#814 = ORIENTED_EDGE('',*,*,#771,.F.);
#815 = ORIENTED_EDGE('',*,*,#788,.F.);
#816 = ORIENTED_EDGE('',*,*,#723,.T.);
#817 = PLANE('',#818);
#818 = AXIS2_PLACEMENT_3D('',#819,#820,#821);
#819 = CARTESIAN_POINT('',(-0.32,-0.32,8.54));
#820 = DIRECTION('',(0.,0.,1.));
#821 = DIRECTION('',(1.,0.,-0.));
#822 = ( GEOMETRIC_REPRESENTATION_CONTEXT(3) 
GLOBAL_UNCERTAINTY_ASSIGNED_CONTEXT((#826)) GLOBAL_UNIT_ASSIGNED_CONTEXT
((#823,#824,#825)) REPRESENTATION_CONTEXT('Context #1',
  '3D Context with UNIT and UNCERTAINTY') );
#823 = ( LENGTH_UNIT() NAMED_UNIT(*) SI_UNIT(.MILLI.,.METRE.) );
#824 = ( NAMED_UNIT(*) PLANE_ANGLE_UNIT() SI_UNIT($,.RADIAN.) );
#825 = ( NAMED_UNIT(*) SI_UNIT($,.STERADIAN.) SOLID_ANGLE_UNIT() );
#826 = UNCERTAINTY_MEASURE_WITH_UNIT(LENGTH_MEASURE(1.E-07),#823,
  'distance_accuracy_value','confusion accuracy');
#827 = CONTEXT_DEPENDENT_SHAPE_REPRESENTATION(#828,#830);
#828 = ( REPRESENTATION_RELATIONSHIP('','',#63,#40) 
REPRESENTATION_RELATIONSHIP_WITH_TRANSFORMATION(#829) 
SHAPE_REPRESENTATION_RELATIONSHIP() );
#829 = ITEM_DEFINED_TRANSFORMATION('','',#11,#41);
#830 = PRODUCT_DEFINITION_SHAPE('Placement','Placement of an item',#831
  );
#831 = NEXT_ASSEMBLY_USAGE_OCCURRENCE('1','=>[0:1:1:3]','',#35,#58,$);
#832 = PRODUCT_RELATED_PRODUCT_CATEGORY('part',$,(#60));
#833 = SHAPE_DEFINITION_REPRESENTATION(#834,#840);
#834 = PRODUCT_DEFINITION_SHAPE('','',#835);
#835 = PRODUCT_DEFINITION('design','',#836,#839);
#836 = PRODUCT_DEFINITION_FORMATION('','',#837);
#837 = PRODUCT(
'electronic_connector_header_2_54_mm_pitch_through_hole_1_pin_render_
pad',
'electronic_connector_header_2_54_mm_pitch_through_hole_1_pin_render_
pad','',(#838));
#838 = PRODUCT_CONTEXT('',#2,'mechanical');
#839 = PRODUCT_DEFINITION_CONTEXT('part definition',#2,'design');
#840 = SHAPE_REPRESENTATION('',(#11,#841,#1030,#1219),#1311);
#841 = MANIFOLD_SOLID_BREP('',#842);
#842 = CLOSED_SHELL('',(#843,#883,#914,#945,#973,#1001,#1013));
#843 = ADVANCED_FACE('',(#844),#878,.T.);
#844 = FACE_BOUND('',#845,.T.);
#845 = EDGE_LOOP('',(#846,#856,#864,#872));
#846 = ORIENTED_EDGE('',*,*,#847,.T.);
#847 = EDGE_CURVE('',#848,#850,#852,.T.);
#848 = VERTEX_POINT('',#849);
#849 = CARTESIAN_POINT('',(-0.85,-0.85,1.51));
#850 = VERTEX_POINT('',#851);
#851 = CARTESIAN_POINT('',(-0.85,-0.85,1.55));
#852 = LINE('',#853,#854);
#853 = CARTESIAN_POINT('',(-0.85,-0.85,1.51));
#854 = VECTOR('',#855,1.);
#855 = DIRECTION('',(0.,0.,1.));
#856 = ORIENTED_EDGE('',*,*,#857,.T.);
#857 = EDGE_CURVE('',#850,#858,#860,.T.);
#858 = VERTEX_POINT('',#859);
#859 = CARTESIAN_POINT('',(-0.85,0.85,1.55));
#860 = LINE('',#861,#862);
#861 = CARTESIAN_POINT('',(-0.85,-0.85,1.55));
#862 = VECTOR('',#863,1.);
#863 = DIRECTION('',(0.,1.,0.));
#864 = ORIENTED_EDGE('',*,*,#865,.F.);
#865 = EDGE_CURVE('',#866,#858,#868,.T.);
#866 = VERTEX_POINT('',#867);
#867 = CARTESIAN_POINT('',(-0.85,0.85,1.51));
#868 = LINE('',#869,#870);
#869 = CARTESIAN_POINT('',(-0.85,0.85,1.51));
#870 = VECTOR('',#871,1.);
#871 = DIRECTION('',(0.,0.,1.));
#872 = ORIENTED_EDGE('',*,*,#873,.F.);
#873 = EDGE_CURVE('',#848,#866,#874,.T.);
#874 = LINE('',#875,#876);
#875 = CARTESIAN_POINT('',(-0.85,-0.85,1.51));
#876 = VECTOR('',#877,1.);
#877 = DIRECTION('',(0.,1.,0.));
#878 = PLANE('',#879);
#879 = AXIS2_PLACEMENT_3D('',#880,#881,#882);
#880 = CARTESIAN_POINT('',(-0.85,-0.85,1.51));
#881 = DIRECTION('',(-1.,0.,0.));
#882 = DIRECTION('',(0.,1.,0.));
#883 = ADVANCED_FACE('',(#884),#909,.T.);
#884 = FACE_BOUND('',#885,.T.);
#885 = EDGE_LOOP('',(#886,#896,#902,#903));
#886 = ORIENTED_EDGE('',*,*,#887,.T.);
#887 = EDGE_CURVE('',#888,#890,#892,.T.);
#888 = VERTEX_POINT('',#889);
#889 = CARTESIAN_POINT('',(0.85,-0.85,1.51));
#890 = VERTEX_POINT('',#891);
#891 = CARTESIAN_POINT('',(0.85,-0.85,1.55));
#892 = LINE('',#893,#894);
#893 = CARTESIAN_POINT('',(0.85,-0.85,1.51));
#894 = VECTOR('',#895,1.);
#895 = DIRECTION('',(0.,0.,1.));
#896 = ORIENTED_EDGE('',*,*,#897,.T.);
#897 = EDGE_CURVE('',#890,#850,#898,.T.);
#898 = LINE('',#899,#900);
#899 = CARTESIAN_POINT('',(0.85,-0.85,1.55));
#900 = VECTOR('',#901,1.);
#901 = DIRECTION('',(-1.,0.,0.));
#902 = ORIENTED_EDGE('',*,*,#847,.F.);
#903 = ORIENTED_EDGE('',*,*,#904,.F.);
#904 = EDGE_CURVE('',#888,#848,#905,.T.);
#905 = LINE('',#906,#907);
#906 = CARTESIAN_POINT('',(0.85,-0.85,1.51));
#907 = VECTOR('',#908,1.);
#908 = DIRECTION('',(-1.,0.,0.));
#909 = PLANE('',#910);
#910 = AXIS2_PLACEMENT_3D('',#911,#912,#913);
#911 = CARTESIAN_POINT('',(0.85,-0.85,1.51));
#912 = DIRECTION('',(0.,-1.,0.));
#913 = DIRECTION('',(-1.,0.,0.));
#914 = ADVANCED_FACE('',(#915),#940,.T.);
#915 = FACE_BOUND('',#916,.T.);
#916 = EDGE_LOOP('',(#917,#918,#926,#934));
#917 = ORIENTED_EDGE('',*,*,#865,.T.);
#918 = ORIENTED_EDGE('',*,*,#919,.T.);
#919 = EDGE_CURVE('',#858,#920,#922,.T.);
#920 = VERTEX_POINT('',#921);
#921 = CARTESIAN_POINT('',(0.85,0.85,1.55));
#922 = LINE('',#923,#924);
#923 = CARTESIAN_POINT('',(-0.85,0.85,1.55));
#924 = VECTOR('',#925,1.);
#925 = DIRECTION('',(1.,0.,0.));
#926 = ORIENTED_EDGE('',*,*,#927,.F.);
#927 = EDGE_CURVE('',#928,#920,#930,.T.);
#928 = VERTEX_POINT('',#929);
#929 = CARTESIAN_POINT('',(0.85,0.85,1.51));
#930 = LINE('',#931,#932);
#931 = CARTESIAN_POINT('',(0.85,0.85,1.51));
#932 = VECTOR('',#933,1.);
#933 = DIRECTION('',(0.,0.,1.));
#934 = ORIENTED_EDGE('',*,*,#935,.F.);
#935 = EDGE_CURVE('',#866,#928,#936,.T.);
#936 = LINE('',#937,#938);
#937 = CARTESIAN_POINT('',(-0.85,0.85,1.51));
#938 = VECTOR('',#939,1.);
#939 = DIRECTION('',(1.,0.,0.));
#940 = PLANE('',#941);
#941 = AXIS2_PLACEMENT_3D('',#942,#943,#944);
#942 = CARTESIAN_POINT('',(-0.85,0.85,1.51));
#943 = DIRECTION('',(0.,1.,0.));
#944 = DIRECTION('',(1.,0.,0.));
#945 = ADVANCED_FACE('',(#946,#957),#968,.F.);
#946 = FACE_BOUND('',#947,.F.);
#947 = EDGE_LOOP('',(#948,#949,#950,#956));
#948 = ORIENTED_EDGE('',*,*,#873,.F.);
#949 = ORIENTED_EDGE('',*,*,#904,.F.);
#950 = ORIENTED_EDGE('',*,*,#951,.F.);
#951 = EDGE_CURVE('',#928,#888,#952,.T.);
#952 = LINE('',#953,#954);
#953 = CARTESIAN_POINT('',(0.85,0.85,1.51));
#954 = VECTOR('',#955,1.);
#955 = DIRECTION('',(0.,-1.,0.));
#956 = ORIENTED_EDGE('',*,*,#935,.F.);
#957 = FACE_BOUND('',#958,.F.);
#958 = EDGE_LOOP('',(#959));
#959 = ORIENTED_EDGE('',*,*,#960,.T.);
#960 = EDGE_CURVE('',#961,#961,#963,.T.);
#961 = VERTEX_POINT('',#962);
#962 = CARTESIAN_POINT('',(-6.162975822039E-33,-0.475,1.51));
#963 = CIRCLE('',#964,0.475);
#964 = AXIS2_PLACEMENT_3D('',#965,#966,#967);
#965 = CARTESIAN_POINT('',(-2.775557561563E-17,5.551115123126E-17,1.51)
  );
#966 = DIRECTION('',(-0.,0.,-1.));
#967 = DIRECTION('',(5.843279076975E-17,-1.,-0.));
#968 = PLANE('',#969);
#969 = AXIS2_PLACEMENT_3D('',#970,#971,#972);
#970 = CARTESIAN_POINT('',(0.,0.,1.51));
#971 = DIRECTION('',(0.,0.,1.));
#972 = DIRECTION('',(1.,0.,-0.));
#973 = ADVANCED_FACE('',(#974,#985),#996,.T.);
#974 = FACE_BOUND('',#975,.T.);
#975 = EDGE_LOOP('',(#976,#977,#978,#984));
#976 = ORIENTED_EDGE('',*,*,#857,.F.);
#977 = ORIENTED_EDGE('',*,*,#897,.F.);
#978 = ORIENTED_EDGE('',*,*,#979,.F.);
#979 = EDGE_CURVE('',#920,#890,#980,.T.);
#980 = LINE('',#981,#982);
#981 = CARTESIAN_POINT('',(0.85,0.85,1.55));
#982 = VECTOR('',#983,1.);
#983 = DIRECTION('',(0.,-1.,0.));
#984 = ORIENTED_EDGE('',*,*,#919,.F.);
#985 = FACE_BOUND('',#986,.T.);
#986 = EDGE_LOOP('',(#987));
#987 = ORIENTED_EDGE('',*,*,#988,.T.);
#988 = EDGE_CURVE('',#989,#989,#991,.T.);
#989 = VERTEX_POINT('',#990);
#990 = CARTESIAN_POINT('',(-6.162975822039E-33,-0.475,1.55));
#991 = CIRCLE('',#992,0.475);
#992 = AXIS2_PLACEMENT_3D('',#993,#994,#995);
#993 = CARTESIAN_POINT('',(-2.775557561563E-17,5.551115123126E-17,1.55)
  );
#994 = DIRECTION('',(-0.,0.,-1.));
#995 = DIRECTION('',(5.843279076975E-17,-1.,-0.));
#996 = PLANE('',#997);
#997 = AXIS2_PLACEMENT_3D('',#998,#999,#1000);
#998 = CARTESIAN_POINT('',(0.,0.,1.55));
#999 = DIRECTION('',(0.,0.,1.));
#1000 = DIRECTION('',(1.,0.,-0.));
#1001 = ADVANCED_FACE('',(#1002),#1008,.T.);
#1002 = FACE_BOUND('',#1003,.T.);
#1003 = EDGE_LOOP('',(#1004,#1005,#1006,#1007));
#1004 = ORIENTED_EDGE('',*,*,#927,.T.);
#1005 = ORIENTED_EDGE('',*,*,#979,.T.);
#1006 = ORIENTED_EDGE('',*,*,#887,.F.);
#1007 = ORIENTED_EDGE('',*,*,#951,.F.);
#1008 = PLANE('',#1009);
#1009 = AXIS2_PLACEMENT_3D('',#1010,#1011,#1012);
#1010 = CARTESIAN_POINT('',(0.85,0.85,1.51));
#1011 = DIRECTION('',(1.,0.,-0.));
#1012 = DIRECTION('',(0.,-1.,0.));
#1013 = ADVANCED_FACE('',(#1014),#1025,.F.);
#1014 = FACE_BOUND('',#1015,.T.);
#1015 = EDGE_LOOP('',(#1016,#1017,#1023,#1024));
#1016 = ORIENTED_EDGE('',*,*,#960,.T.);
#1017 = ORIENTED_EDGE('',*,*,#1018,.T.);
#1018 = EDGE_CURVE('',#961,#989,#1019,.T.);
#1019 = LINE('',#1020,#1021);
#1020 = CARTESIAN_POINT('',(-6.162975822039E-33,-0.475,-4.6E-02));
#1021 = VECTOR('',#1022,1.);
#1022 = DIRECTION('',(0.,0.,1.));
#1023 = ORIENTED_EDGE('',*,*,#988,.F.);
#1024 = ORIENTED_EDGE('',*,*,#1018,.F.);
#1025 = CYLINDRICAL_SURFACE('',#1026,0.475);
#1026 = AXIS2_PLACEMENT_3D('',#1027,#1028,#1029);
#1027 = CARTESIAN_POINT('',(-2.775557561563E-17,5.551115123126E-17,
    -4.6E-02));
#1028 = DIRECTION('',(-0.,0.,-1.));
#1029 = DIRECTION('',(5.843279076975E-17,-1.,-0.));
#1030 = MANIFOLD_SOLID_BREP('',#1031);
#1031 = CLOSED_SHELL('',(#1032,#1072,#1103,#1134,#1162,#1190,#1202));
#1032 = ADVANCED_FACE('',(#1033),#1067,.F.);
#1033 = FACE_BOUND('',#1034,.F.);
#1034 = EDGE_LOOP('',(#1035,#1045,#1053,#1061));
#1035 = ORIENTED_EDGE('',*,*,#1036,.T.);
#1036 = EDGE_CURVE('',#1037,#1039,#1041,.T.);
#1037 = VERTEX_POINT('',#1038);
#1038 = CARTESIAN_POINT('',(-0.85,-0.85,0.));
#1039 = VERTEX_POINT('',#1040);
#1040 = CARTESIAN_POINT('',(-0.85,-0.85,-4.E-02));
#1041 = LINE('',#1042,#1043);
#1042 = CARTESIAN_POINT('',(-0.85,-0.85,0.));
#1043 = VECTOR('',#1044,1.);
#1044 = DIRECTION('',(0.,0.,-1.));
#1045 = ORIENTED_EDGE('',*,*,#1046,.T.);
#1046 = EDGE_CURVE('',#1039,#1047,#1049,.T.);
#1047 = VERTEX_POINT('',#1048);
#1048 = CARTESIAN_POINT('',(-0.85,0.85,-4.E-02));
#1049 = LINE('',#1050,#1051);
#1050 = CARTESIAN_POINT('',(-0.85,-0.85,-4.E-02));
#1051 = VECTOR('',#1052,1.);
#1052 = DIRECTION('',(0.,1.,0.));
#1053 = ORIENTED_EDGE('',*,*,#1054,.F.);
#1054 = EDGE_CURVE('',#1055,#1047,#1057,.T.);
#1055 = VERTEX_POINT('',#1056);
#1056 = CARTESIAN_POINT('',(-0.85,0.85,0.));
#1057 = LINE('',#1058,#1059);
#1058 = CARTESIAN_POINT('',(-0.85,0.85,0.));
#1059 = VECTOR('',#1060,1.);
#1060 = DIRECTION('',(0.,0.,-1.));
#1061 = ORIENTED_EDGE('',*,*,#1062,.F.);
#1062 = EDGE_CURVE('',#1037,#1055,#1063,.T.);
#1063 = LINE('',#1064,#1065);
#1064 = CARTESIAN_POINT('',(-0.85,-0.85,0.));
#1065 = VECTOR('',#1066,1.);
#1066 = DIRECTION('',(0.,1.,0.));
#1067 = PLANE('',#1068);
#1068 = AXIS2_PLACEMENT_3D('',#1069,#1070,#1071);
#1069 = CARTESIAN_POINT('',(-0.85,-0.85,0.));
#1070 = DIRECTION('',(1.,-0.,0.));
#1071 = DIRECTION('',(0.,1.,0.));
#1072 = ADVANCED_FACE('',(#1073),#1098,.F.);
#1073 = FACE_BOUND('',#1074,.F.);
#1074 = EDGE_LOOP('',(#1075,#1085,#1091,#1092));
#1075 = ORIENTED_EDGE('',*,*,#1076,.T.);
#1076 = EDGE_CURVE('',#1077,#1079,#1081,.T.);
#1077 = VERTEX_POINT('',#1078);
#1078 = CARTESIAN_POINT('',(0.85,-0.85,0.));
#1079 = VERTEX_POINT('',#1080);
#1080 = CARTESIAN_POINT('',(0.85,-0.85,-4.E-02));
#1081 = LINE('',#1082,#1083);
#1082 = CARTESIAN_POINT('',(0.85,-0.85,0.));
#1083 = VECTOR('',#1084,1.);
#1084 = DIRECTION('',(0.,0.,-1.));
#1085 = ORIENTED_EDGE('',*,*,#1086,.T.);
#1086 = EDGE_CURVE('',#1079,#1039,#1087,.T.);
#1087 = LINE('',#1088,#1089);
#1088 = CARTESIAN_POINT('',(0.85,-0.85,-4.E-02));
#1089 = VECTOR('',#1090,1.);
#1090 = DIRECTION('',(-1.,0.,0.));
#1091 = ORIENTED_EDGE('',*,*,#1036,.F.);
#1092 = ORIENTED_EDGE('',*,*,#1093,.F.);
#1093 = EDGE_CURVE('',#1077,#1037,#1094,.T.);
#1094 = LINE('',#1095,#1096);
#1095 = CARTESIAN_POINT('',(0.85,-0.85,0.));
#1096 = VECTOR('',#1097,1.);
#1097 = DIRECTION('',(-1.,0.,0.));
#1098 = PLANE('',#1099);
#1099 = AXIS2_PLACEMENT_3D('',#1100,#1101,#1102);
#1100 = CARTESIAN_POINT('',(0.85,-0.85,0.));
#1101 = DIRECTION('',(0.,1.,0.));
#1102 = DIRECTION('',(-1.,0.,0.));
#1103 = ADVANCED_FACE('',(#1104),#1129,.F.);
#1104 = FACE_BOUND('',#1105,.F.);
#1105 = EDGE_LOOP('',(#1106,#1107,#1115,#1123));
#1106 = ORIENTED_EDGE('',*,*,#1054,.T.);
#1107 = ORIENTED_EDGE('',*,*,#1108,.T.);
#1108 = EDGE_CURVE('',#1047,#1109,#1111,.T.);
#1109 = VERTEX_POINT('',#1110);
#1110 = CARTESIAN_POINT('',(0.85,0.85,-4.E-02));
#1111 = LINE('',#1112,#1113);
#1112 = CARTESIAN_POINT('',(-0.85,0.85,-4.E-02));
#1113 = VECTOR('',#1114,1.);
#1114 = DIRECTION('',(1.,0.,0.));
#1115 = ORIENTED_EDGE('',*,*,#1116,.F.);
#1116 = EDGE_CURVE('',#1117,#1109,#1119,.T.);
#1117 = VERTEX_POINT('',#1118);
#1118 = CARTESIAN_POINT('',(0.85,0.85,0.));
#1119 = LINE('',#1120,#1121);
#1120 = CARTESIAN_POINT('',(0.85,0.85,0.));
#1121 = VECTOR('',#1122,1.);
#1122 = DIRECTION('',(0.,0.,-1.));
#1123 = ORIENTED_EDGE('',*,*,#1124,.F.);
#1124 = EDGE_CURVE('',#1055,#1117,#1125,.T.);
#1125 = LINE('',#1126,#1127);
#1126 = CARTESIAN_POINT('',(-0.85,0.85,0.));
#1127 = VECTOR('',#1128,1.);
#1128 = DIRECTION('',(1.,0.,0.));
#1129 = PLANE('',#1130);
#1130 = AXIS2_PLACEMENT_3D('',#1131,#1132,#1133);
#1131 = CARTESIAN_POINT('',(-0.85,0.85,0.));
#1132 = DIRECTION('',(0.,-1.,0.));
#1133 = DIRECTION('',(1.,0.,0.));
#1134 = ADVANCED_FACE('',(#1135,#1146),#1157,.F.);
#1135 = FACE_BOUND('',#1136,.F.);
#1136 = EDGE_LOOP('',(#1137,#1138,#1139,#1145));
#1137 = ORIENTED_EDGE('',*,*,#1062,.T.);
#1138 = ORIENTED_EDGE('',*,*,#1124,.T.);
#1139 = ORIENTED_EDGE('',*,*,#1140,.T.);
#1140 = EDGE_CURVE('',#1117,#1077,#1141,.T.);
#1141 = LINE('',#1142,#1143);
#1142 = CARTESIAN_POINT('',(0.85,0.85,0.));
#1143 = VECTOR('',#1144,1.);
#1144 = DIRECTION('',(0.,-1.,0.));
#1145 = ORIENTED_EDGE('',*,*,#1093,.T.);
#1146 = FACE_BOUND('',#1147,.F.);
#1147 = EDGE_LOOP('',(#1148));
#1148 = ORIENTED_EDGE('',*,*,#1149,.F.);
#1149 = EDGE_CURVE('',#1150,#1150,#1152,.T.);
#1150 = VERTEX_POINT('',#1151);
#1151 = CARTESIAN_POINT('',(-6.162975822039E-33,-0.475,0.));
#1152 = CIRCLE('',#1153,0.475);
#1153 = AXIS2_PLACEMENT_3D('',#1154,#1155,#1156);
#1154 = CARTESIAN_POINT('',(-2.775557561563E-17,5.551115123126E-17,0.));
#1155 = DIRECTION('',(-0.,0.,-1.));
#1156 = DIRECTION('',(5.843279076975E-17,-1.,-0.));
#1157 = PLANE('',#1158);
#1158 = AXIS2_PLACEMENT_3D('',#1159,#1160,#1161);
#1159 = CARTESIAN_POINT('',(0.,0.,0.));
#1160 = DIRECTION('',(-0.,-0.,-1.));
#1161 = DIRECTION('',(-1.,0.,0.));
#1162 = ADVANCED_FACE('',(#1163,#1174),#1185,.T.);
#1163 = FACE_BOUND('',#1164,.T.);
#1164 = EDGE_LOOP('',(#1165,#1166,#1167,#1173));
#1165 = ORIENTED_EDGE('',*,*,#1046,.T.);
#1166 = ORIENTED_EDGE('',*,*,#1108,.T.);
#1167 = ORIENTED_EDGE('',*,*,#1168,.T.);
#1168 = EDGE_CURVE('',#1109,#1079,#1169,.T.);
#1169 = LINE('',#1170,#1171);
#1170 = CARTESIAN_POINT('',(0.85,0.85,-4.E-02));
#1171 = VECTOR('',#1172,1.);
#1172 = DIRECTION('',(0.,-1.,0.));
#1173 = ORIENTED_EDGE('',*,*,#1086,.T.);
#1174 = FACE_BOUND('',#1175,.T.);
#1175 = EDGE_LOOP('',(#1176));
#1176 = ORIENTED_EDGE('',*,*,#1177,.F.);
#1177 = EDGE_CURVE('',#1178,#1178,#1180,.T.);
#1178 = VERTEX_POINT('',#1179);
#1179 = CARTESIAN_POINT('',(-6.162975822039E-33,-0.475,-4.E-02));
#1180 = CIRCLE('',#1181,0.475);
#1181 = AXIS2_PLACEMENT_3D('',#1182,#1183,#1184);
#1182 = CARTESIAN_POINT('',(-2.775557561563E-17,5.551115123126E-17,
    -4.E-02));
#1183 = DIRECTION('',(-0.,0.,-1.));
#1184 = DIRECTION('',(5.843279076975E-17,-1.,-0.));
#1185 = PLANE('',#1186);
#1186 = AXIS2_PLACEMENT_3D('',#1187,#1188,#1189);
#1187 = CARTESIAN_POINT('',(0.,0.,-4.E-02));
#1188 = DIRECTION('',(-0.,-0.,-1.));
#1189 = DIRECTION('',(-1.,0.,0.));
#1190 = ADVANCED_FACE('',(#1191),#1197,.F.);
#1191 = FACE_BOUND('',#1192,.F.);
#1192 = EDGE_LOOP('',(#1193,#1194,#1195,#1196));
#1193 = ORIENTED_EDGE('',*,*,#1116,.T.);
#1194 = ORIENTED_EDGE('',*,*,#1168,.T.);
#1195 = ORIENTED_EDGE('',*,*,#1076,.F.);
#1196 = ORIENTED_EDGE('',*,*,#1140,.F.);
#1197 = PLANE('',#1198);
#1198 = AXIS2_PLACEMENT_3D('',#1199,#1200,#1201);
#1199 = CARTESIAN_POINT('',(0.85,0.85,0.));
#1200 = DIRECTION('',(-1.,-0.,-0.));
#1201 = DIRECTION('',(0.,-1.,0.));
#1202 = ADVANCED_FACE('',(#1203),#1214,.F.);
#1203 = FACE_BOUND('',#1204,.T.);
#1204 = EDGE_LOOP('',(#1205,#1206,#1212,#1213));
#1205 = ORIENTED_EDGE('',*,*,#1177,.T.);
#1206 = ORIENTED_EDGE('',*,*,#1207,.T.);
#1207 = EDGE_CURVE('',#1178,#1150,#1208,.T.);
#1208 = LINE('',#1209,#1210);
#1209 = CARTESIAN_POINT('',(-6.162975822039E-33,-0.475,-4.6E-02));
#1210 = VECTOR('',#1211,1.);
#1211 = DIRECTION('',(0.,0.,1.));
#1212 = ORIENTED_EDGE('',*,*,#1149,.F.);
#1213 = ORIENTED_EDGE('',*,*,#1207,.F.);
#1214 = CYLINDRICAL_SURFACE('',#1215,0.475);
#1215 = AXIS2_PLACEMENT_3D('',#1216,#1217,#1218);
#1216 = CARTESIAN_POINT('',(-2.775557561563E-17,5.551115123126E-17,
    -4.6E-02));
#1217 = DIRECTION('',(-0.,0.,-1.));
#1218 = DIRECTION('',(5.843279076975E-17,-1.,-0.));
#1219 = MANIFOLD_SOLID_BREP('',#1220);
#1220 = CLOSED_SHELL('',(#1221,#1254,#1274,#1294));
#1221 = ADVANCED_FACE('',(#1222),#1249,.T.);
#1222 = FACE_BOUND('',#1223,.F.);
#1223 = EDGE_LOOP('',(#1224,#1234,#1241,#1242));
#1224 = ORIENTED_EDGE('',*,*,#1225,.T.);
#1225 = EDGE_CURVE('',#1226,#1228,#1230,.T.);
#1226 = VERTEX_POINT('',#1227);
#1227 = CARTESIAN_POINT('',(-6.162975822039E-33,-0.5,-4.E-02));
#1228 = VERTEX_POINT('',#1229);
#1229 = CARTESIAN_POINT('',(-6.162975822039E-33,-0.5,1.55));
#1230 = LINE('',#1231,#1232);
#1231 = CARTESIAN_POINT('',(-6.162975822039E-33,-0.5,-4.E-02));
#1232 = VECTOR('',#1233,1.);
#1233 = DIRECTION('',(0.,0.,1.));
#1234 = ORIENTED_EDGE('',*,*,#1235,.T.);
#1235 = EDGE_CURVE('',#1228,#1228,#1236,.T.);
#1236 = CIRCLE('',#1237,0.5);
#1237 = AXIS2_PLACEMENT_3D('',#1238,#1239,#1240);
#1238 = CARTESIAN_POINT('',(-2.775557561563E-17,8.326672684689E-17,1.55)
  );
#1239 = DIRECTION('',(0.,-0.,1.));
#1240 = DIRECTION('',(5.551115123126E-17,-1.,-0.));
#1241 = ORIENTED_EDGE('',*,*,#1225,.F.);
#1242 = ORIENTED_EDGE('',*,*,#1243,.F.);
#1243 = EDGE_CURVE('',#1226,#1226,#1244,.T.);
#1244 = CIRCLE('',#1245,0.5);
#1245 = AXIS2_PLACEMENT_3D('',#1246,#1247,#1248);
#1246 = CARTESIAN_POINT('',(-2.775557561563E-17,8.326672684689E-17,
    -4.E-02));
#1247 = DIRECTION('',(0.,-0.,1.));
#1248 = DIRECTION('',(5.551115123126E-17,-1.,-0.));
#1249 = CYLINDRICAL_SURFACE('',#1250,0.5);
#1250 = AXIS2_PLACEMENT_3D('',#1251,#1252,#1253);
#1251 = CARTESIAN_POINT('',(-2.775557561563E-17,8.326672684689E-17,
    -4.E-02));
#1252 = DIRECTION('',(-0.,0.,-1.));
#1253 = DIRECTION('',(5.551115123126E-17,-1.,-0.));
#1254 = ADVANCED_FACE('',(#1255,#1258),#1269,.F.);
#1255 = FACE_BOUND('',#1256,.F.);
#1256 = EDGE_LOOP('',(#1257));
#1257 = ORIENTED_EDGE('',*,*,#1243,.T.);
#1258 = FACE_BOUND('',#1259,.F.);
#1259 = EDGE_LOOP('',(#1260));
#1260 = ORIENTED_EDGE('',*,*,#1261,.T.);
#1261 = EDGE_CURVE('',#1262,#1262,#1264,.T.);
#1262 = VERTEX_POINT('',#1263);
#1263 = CARTESIAN_POINT('',(-6.162975822039E-33,-0.475,-4.E-02));
#1264 = CIRCLE('',#1265,0.475);
#1265 = AXIS2_PLACEMENT_3D('',#1266,#1267,#1268);
#1266 = CARTESIAN_POINT('',(-2.775557561563E-17,5.551115123126E-17,
    -4.E-02));
#1267 = DIRECTION('',(-0.,0.,-1.));
#1268 = DIRECTION('',(5.843279076975E-17,-1.,-0.));
#1269 = PLANE('',#1270);
#1270 = AXIS2_PLACEMENT_3D('',#1271,#1272,#1273);
#1271 = CARTESIAN_POINT('',(0.,-0.5,-4.E-02));
#1272 = DIRECTION('',(0.,0.,1.));
#1273 = DIRECTION('',(1.,0.,-0.));
#1274 = ADVANCED_FACE('',(#1275,#1278),#1289,.T.);
#1275 = FACE_BOUND('',#1276,.T.);
#1276 = EDGE_LOOP('',(#1277));
#1277 = ORIENTED_EDGE('',*,*,#1235,.T.);
#1278 = FACE_BOUND('',#1279,.T.);
#1279 = EDGE_LOOP('',(#1280));
#1280 = ORIENTED_EDGE('',*,*,#1281,.T.);
#1281 = EDGE_CURVE('',#1282,#1282,#1284,.T.);
#1282 = VERTEX_POINT('',#1283);
#1283 = CARTESIAN_POINT('',(-6.162975822039E-33,-0.475,1.55));
#1284 = CIRCLE('',#1285,0.475);
#1285 = AXIS2_PLACEMENT_3D('',#1286,#1287,#1288);
#1286 = CARTESIAN_POINT('',(-2.775557561563E-17,5.551115123126E-17,1.55)
  );
#1287 = DIRECTION('',(-0.,0.,-1.));
#1288 = DIRECTION('',(5.843279076975E-17,-1.,-0.));
#1289 = PLANE('',#1290);
#1290 = AXIS2_PLACEMENT_3D('',#1291,#1292,#1293);
#1291 = CARTESIAN_POINT('',(0.,-0.5,1.55));
#1292 = DIRECTION('',(0.,0.,1.));
#1293 = DIRECTION('',(1.,0.,-0.));
#1294 = ADVANCED_FACE('',(#1295),#1306,.F.);
#1295 = FACE_BOUND('',#1296,.T.);
#1296 = EDGE_LOOP('',(#1297,#1298,#1304,#1305));
#1297 = ORIENTED_EDGE('',*,*,#1261,.T.);
#1298 = ORIENTED_EDGE('',*,*,#1299,.T.);
#1299 = EDGE_CURVE('',#1262,#1282,#1300,.T.);
#1300 = LINE('',#1301,#1302);
#1301 = CARTESIAN_POINT('',(-6.162975822039E-33,-0.475,-4.6E-02));
#1302 = VECTOR('',#1303,1.);
#1303 = DIRECTION('',(0.,0.,1.));
#1304 = ORIENTED_EDGE('',*,*,#1281,.F.);
#1305 = ORIENTED_EDGE('',*,*,#1299,.F.);
#1306 = CYLINDRICAL_SURFACE('',#1307,0.475);
#1307 = AXIS2_PLACEMENT_3D('',#1308,#1309,#1310);
#1308 = CARTESIAN_POINT('',(-2.775557561563E-17,5.551115123126E-17,
    -4.6E-02));
#1309 = DIRECTION('',(-0.,0.,-1.));
#1310 = DIRECTION('',(5.843279076975E-17,-1.,-0.));
#1311 = ( GEOMETRIC_REPRESENTATION_CONTEXT(3) 
GLOBAL_UNCERTAINTY_ASSIGNED_CONTEXT((#1315)) 
GLOBAL_UNIT_ASSIGNED_CONTEXT((#1312,#1313,#1314)) REPRESENTATION_CONTEXT
('Context #1','3D Context with UNIT and UNCERTAINTY') );
#1312 = ( LENGTH_UNIT() NAMED_UNIT(*) SI_UNIT(.MILLI.,.METRE.) );
#1313 = ( NAMED_UNIT(*) PLANE_ANGLE_UNIT() SI_UNIT($,.RADIAN.) );
#1314 = ( NAMED_UNIT(*) SI_UNIT($,.STERADIAN.) SOLID_ANGLE_UNIT() );
#1315 = UNCERTAINTY_MEASURE_WITH_UNIT(LENGTH_MEASURE(1.E-07),#1312,
  'distance_accuracy_value','confusion accuracy');
#1316 = CONTEXT_DEPENDENT_SHAPE_REPRESENTATION(#1317,#1319);
#1317 = ( REPRESENTATION_RELATIONSHIP('','',#840,#10) 
REPRESENTATION_RELATIONSHIP_WITH_TRANSFORMATION(#1318) 
SHAPE_REPRESENTATION_RELATIONSHIP() );
#1318 = ITEM_DEFINED_TRANSFORMATION('','',#11,#19);
#1319 = PRODUCT_DEFINITION_SHAPE('Placement','Placement of an item',
  #1320);
#1320 = NEXT_ASSEMBLY_USAGE_OCCURRENCE('3','=>[0:1:1:4]','',#5,#835,$);
#1321 = PRODUCT_RELATED_PRODUCT_CATEGORY('part',$,(#837));
#1322 = SHAPE_DEFINITION_REPRESENTATION(#1323,#1329);
#1323 = PRODUCT_DEFINITION_SHAPE('','',#1324);
#1324 = PRODUCT_DEFINITION('design','',#1325,#1328);
#1325 = PRODUCT_DEFINITION_FORMATION('','',#1326);
#1326 = PRODUCT(
'electronic_connector_header_2_54_mm_pitch_through_hole_1_pin_render_
PCB',
'electronic_connector_header_2_54_mm_pitch_through_hole_1_pin_render_
PCB','',(#1327));
#1327 = PRODUCT_CONTEXT('',#2,'mechanical');
#1328 = PRODUCT_DEFINITION_CONTEXT('part definition',#2,'design');
#1329 = ADVANCED_BREP_SHAPE_REPRESENTATION('',(#11,#1330),#1519);
#1330 = MANIFOLD_SOLID_BREP('',#1331);
#1331 = CLOSED_SHELL('',(#1332,#1372,#1403,#1434,#1462,#1490,#1502));
#1332 = ADVANCED_FACE('',(#1333),#1367,.T.);
#1333 = FACE_BOUND('',#1334,.T.);
#1334 = EDGE_LOOP('',(#1335,#1345,#1353,#1361));
#1335 = ORIENTED_EDGE('',*,*,#1336,.T.);
#1336 = EDGE_CURVE('',#1337,#1339,#1341,.T.);
#1337 = VERTEX_POINT('',#1338);
#1338 = CARTESIAN_POINT('',(3.77,-3.77,0.));
#1339 = VERTEX_POINT('',#1340);
#1340 = CARTESIAN_POINT('',(3.77,-3.77,1.51));
#1341 = LINE('',#1342,#1343);
#1342 = CARTESIAN_POINT('',(3.77,-3.77,0.));
#1343 = VECTOR('',#1344,1.);
#1344 = DIRECTION('',(0.,0.,1.));
#1345 = ORIENTED_EDGE('',*,*,#1346,.T.);
#1346 = EDGE_CURVE('',#1339,#1347,#1349,.T.);
#1347 = VERTEX_POINT('',#1348);
#1348 = CARTESIAN_POINT('',(-3.77,-3.77,1.51));
#1349 = LINE('',#1350,#1351);
#1350 = CARTESIAN_POINT('',(3.77,-3.77,1.51));
#1351 = VECTOR('',#1352,1.);
#1352 = DIRECTION('',(-1.,0.,0.));
#1353 = ORIENTED_EDGE('',*,*,#1354,.F.);
#1354 = EDGE_CURVE('',#1355,#1347,#1357,.T.);
#1355 = VERTEX_POINT('',#1356);
#1356 = CARTESIAN_POINT('',(-3.77,-3.77,0.));
#1357 = LINE('',#1358,#1359);
#1358 = CARTESIAN_POINT('',(-3.77,-3.77,0.));
#1359 = VECTOR('',#1360,1.);
#1360 = DIRECTION('',(0.,0.,1.));
#1361 = ORIENTED_EDGE('',*,*,#1362,.F.);
#1362 = EDGE_CURVE('',#1337,#1355,#1363,.T.);
#1363 = LINE('',#1364,#1365);
#1364 = CARTESIAN_POINT('',(3.77,-3.77,0.));
#1365 = VECTOR('',#1366,1.);
#1366 = DIRECTION('',(-1.,0.,0.));
#1367 = PLANE('',#1368);
#1368 = AXIS2_PLACEMENT_3D('',#1369,#1370,#1371);
#1369 = CARTESIAN_POINT('',(3.77,-3.77,0.));
#1370 = DIRECTION('',(0.,-1.,0.));
#1371 = DIRECTION('',(-1.,0.,0.));
#1372 = ADVANCED_FACE('',(#1373),#1398,.T.);
#1373 = FACE_BOUND('',#1374,.T.);
#1374 = EDGE_LOOP('',(#1375,#1385,#1391,#1392));
#1375 = ORIENTED_EDGE('',*,*,#1376,.T.);
#1376 = EDGE_CURVE('',#1377,#1379,#1381,.T.);
#1377 = VERTEX_POINT('',#1378);
#1378 = CARTESIAN_POINT('',(3.77,3.77,0.));
#1379 = VERTEX_POINT('',#1380);
#1380 = CARTESIAN_POINT('',(3.77,3.77,1.51));
#1381 = LINE('',#1382,#1383);
#1382 = CARTESIAN_POINT('',(3.77,3.77,0.));
#1383 = VECTOR('',#1384,1.);
#1384 = DIRECTION('',(0.,0.,1.));
#1385 = ORIENTED_EDGE('',*,*,#1386,.T.);
#1386 = EDGE_CURVE('',#1379,#1339,#1387,.T.);
#1387 = LINE('',#1388,#1389);
#1388 = CARTESIAN_POINT('',(3.77,3.77,1.51));
#1389 = VECTOR('',#1390,1.);
#1390 = DIRECTION('',(0.,-1.,0.));
#1391 = ORIENTED_EDGE('',*,*,#1336,.F.);
#1392 = ORIENTED_EDGE('',*,*,#1393,.F.);
#1393 = EDGE_CURVE('',#1377,#1337,#1394,.T.);
#1394 = LINE('',#1395,#1396);
#1395 = CARTESIAN_POINT('',(3.77,3.77,0.));
#1396 = VECTOR('',#1397,1.);
#1397 = DIRECTION('',(0.,-1.,0.));
#1398 = PLANE('',#1399);
#1399 = AXIS2_PLACEMENT_3D('',#1400,#1401,#1402);
#1400 = CARTESIAN_POINT('',(3.77,3.77,0.));
#1401 = DIRECTION('',(1.,0.,-0.));
#1402 = DIRECTION('',(0.,-1.,0.));
#1403 = ADVANCED_FACE('',(#1404),#1429,.T.);
#1404 = FACE_BOUND('',#1405,.T.);
#1405 = EDGE_LOOP('',(#1406,#1407,#1415,#1423));
#1406 = ORIENTED_EDGE('',*,*,#1354,.T.);
#1407 = ORIENTED_EDGE('',*,*,#1408,.T.);
#1408 = EDGE_CURVE('',#1347,#1409,#1411,.T.);
#1409 = VERTEX_POINT('',#1410);
#1410 = CARTESIAN_POINT('',(-3.77,3.77,1.51));
#1411 = LINE('',#1412,#1413);
#1412 = CARTESIAN_POINT('',(-3.77,-3.77,1.51));
#1413 = VECTOR('',#1414,1.);
#1414 = DIRECTION('',(0.,1.,0.));
#1415 = ORIENTED_EDGE('',*,*,#1416,.F.);
#1416 = EDGE_CURVE('',#1417,#1409,#1419,.T.);
#1417 = VERTEX_POINT('',#1418);
#1418 = CARTESIAN_POINT('',(-3.77,3.77,0.));
#1419 = LINE('',#1420,#1421);
#1420 = CARTESIAN_POINT('',(-3.77,3.77,0.));
#1421 = VECTOR('',#1422,1.);
#1422 = DIRECTION('',(0.,0.,1.));
#1423 = ORIENTED_EDGE('',*,*,#1424,.F.);
#1424 = EDGE_CURVE('',#1355,#1417,#1425,.T.);
#1425 = LINE('',#1426,#1427);
#1426 = CARTESIAN_POINT('',(-3.77,-3.77,0.));
#1427 = VECTOR('',#1428,1.);
#1428 = DIRECTION('',(0.,1.,0.));
#1429 = PLANE('',#1430);
#1430 = AXIS2_PLACEMENT_3D('',#1431,#1432,#1433);
#1431 = CARTESIAN_POINT('',(-3.77,-3.77,0.));
#1432 = DIRECTION('',(-1.,0.,0.));
#1433 = DIRECTION('',(0.,1.,0.));
#1434 = ADVANCED_FACE('',(#1435,#1446),#1457,.F.);
#1435 = FACE_BOUND('',#1436,.F.);
#1436 = EDGE_LOOP('',(#1437,#1438,#1439,#1445));
#1437 = ORIENTED_EDGE('',*,*,#1362,.F.);
#1438 = ORIENTED_EDGE('',*,*,#1393,.F.);
#1439 = ORIENTED_EDGE('',*,*,#1440,.F.);
#1440 = EDGE_CURVE('',#1417,#1377,#1441,.T.);
#1441 = LINE('',#1442,#1443);
#1442 = CARTESIAN_POINT('',(-3.77,3.77,0.));
#1443 = VECTOR('',#1444,1.);
#1444 = DIRECTION('',(1.,0.,0.));
#1445 = ORIENTED_EDGE('',*,*,#1424,.F.);
#1446 = FACE_BOUND('',#1447,.F.);
#1447 = EDGE_LOOP('',(#1448));
#1448 = ORIENTED_EDGE('',*,*,#1449,.T.);
#1449 = EDGE_CURVE('',#1450,#1450,#1452,.T.);
#1450 = VERTEX_POINT('',#1451);
#1451 = CARTESIAN_POINT('',(-6.162975822039E-33,-0.5,0.));
#1452 = CIRCLE('',#1453,0.5);
#1453 = AXIS2_PLACEMENT_3D('',#1454,#1455,#1456);
#1454 = CARTESIAN_POINT('',(-2.775557561563E-17,8.326672684689E-17,0.));
#1455 = DIRECTION('',(-0.,0.,-1.));
#1456 = DIRECTION('',(5.551115123126E-17,-1.,-0.));
#1457 = PLANE('',#1458);
#1458 = AXIS2_PLACEMENT_3D('',#1459,#1460,#1461);
#1459 = CARTESIAN_POINT('',(0.,0.,0.));
#1460 = DIRECTION('',(0.,0.,1.));
#1461 = DIRECTION('',(1.,0.,-0.));
#1462 = ADVANCED_FACE('',(#1463,#1474),#1485,.T.);
#1463 = FACE_BOUND('',#1464,.T.);
#1464 = EDGE_LOOP('',(#1465,#1466,#1467,#1473));
#1465 = ORIENTED_EDGE('',*,*,#1346,.F.);
#1466 = ORIENTED_EDGE('',*,*,#1386,.F.);
#1467 = ORIENTED_EDGE('',*,*,#1468,.F.);
#1468 = EDGE_CURVE('',#1409,#1379,#1469,.T.);
#1469 = LINE('',#1470,#1471);
#1470 = CARTESIAN_POINT('',(-3.77,3.77,1.51));
#1471 = VECTOR('',#1472,1.);
#1472 = DIRECTION('',(1.,0.,0.));
#1473 = ORIENTED_EDGE('',*,*,#1408,.F.);
#1474 = FACE_BOUND('',#1475,.T.);
#1475 = EDGE_LOOP('',(#1476));
#1476 = ORIENTED_EDGE('',*,*,#1477,.T.);
#1477 = EDGE_CURVE('',#1478,#1478,#1480,.T.);
#1478 = VERTEX_POINT('',#1479);
#1479 = CARTESIAN_POINT('',(-6.162975822039E-33,-0.5,1.51));
#1480 = CIRCLE('',#1481,0.5);
#1481 = AXIS2_PLACEMENT_3D('',#1482,#1483,#1484);
#1482 = CARTESIAN_POINT('',(-2.775557561563E-17,8.326672684689E-17,1.51)
  );
#1483 = DIRECTION('',(-0.,0.,-1.));
#1484 = DIRECTION('',(5.551115123126E-17,-1.,-0.));
#1485 = PLANE('',#1486);
#1486 = AXIS2_PLACEMENT_3D('',#1487,#1488,#1489);
#1487 = CARTESIAN_POINT('',(0.,0.,1.51));
#1488 = DIRECTION('',(0.,0.,1.));
#1489 = DIRECTION('',(1.,0.,-0.));
#1490 = ADVANCED_FACE('',(#1491),#1497,.T.);
#1491 = FACE_BOUND('',#1492,.T.);
#1492 = EDGE_LOOP('',(#1493,#1494,#1495,#1496));
#1493 = ORIENTED_EDGE('',*,*,#1416,.T.);
#1494 = ORIENTED_EDGE('',*,*,#1468,.T.);
#1495 = ORIENTED_EDGE('',*,*,#1376,.F.);
#1496 = ORIENTED_EDGE('',*,*,#1440,.F.);
#1497 = PLANE('',#1498);
#1498 = AXIS2_PLACEMENT_3D('',#1499,#1500,#1501);
#1499 = CARTESIAN_POINT('',(-3.77,3.77,0.));
#1500 = DIRECTION('',(0.,1.,0.));
#1501 = DIRECTION('',(1.,0.,0.));
#1502 = ADVANCED_FACE('',(#1503),#1514,.F.);
#1503 = FACE_BOUND('',#1504,.T.);
#1504 = EDGE_LOOP('',(#1505,#1506,#1512,#1513));
#1505 = ORIENTED_EDGE('',*,*,#1449,.T.);
#1506 = ORIENTED_EDGE('',*,*,#1507,.T.);
#1507 = EDGE_CURVE('',#1450,#1478,#1508,.T.);
#1508 = LINE('',#1509,#1510);
#1509 = CARTESIAN_POINT('',(-6.162975822039E-33,-0.5,-4.6E-02));
#1510 = VECTOR('',#1511,1.);
#1511 = DIRECTION('',(0.,0.,1.));
#1512 = ORIENTED_EDGE('',*,*,#1477,.F.);
#1513 = ORIENTED_EDGE('',*,*,#1507,.F.);
#1514 = CYLINDRICAL_SURFACE('',#1515,0.5);
#1515 = AXIS2_PLACEMENT_3D('',#1516,#1517,#1518);
#1516 = CARTESIAN_POINT('',(-2.775557561563E-17,8.326672684689E-17,
    -4.6E-02));
#1517 = DIRECTION('',(-0.,0.,-1.));
#1518 = DIRECTION('',(5.551115123126E-17,-1.,-0.));
#1519 = ( GEOMETRIC_REPRESENTATION_CONTEXT(3) 
GLOBAL_UNCERTAINTY_ASSIGNED_CONTEXT((#1523)) 
GLOBAL_UNIT_ASSIGNED_CONTEXT((#1520,#1521,#1522)) REPRESENTATION_CONTEXT
('Context #1','3D Context with UNIT and UNCERTAINTY') );
#1520 = ( LENGTH_UNIT() NAMED_UNIT(*) SI_UNIT(.MILLI.,.METRE.) );
#1521 = ( NAMED_UNIT(*) PLANE_ANGLE_UNIT() SI_UNIT($,.RADIAN.) );
#1522 = ( NAMED_UNIT(*) SI_UNIT($,.STERADIAN.) SOLID_ANGLE_UNIT() );
#1523 = UNCERTAINTY_MEASURE_WITH_UNIT(LENGTH_MEASURE(1.E-07),#1520,
  'distance_accuracy_value','confusion accuracy');
#1524 = CONTEXT_DEPENDENT_SHAPE_REPRESENTATION(#1525,#1527);
#1525 = ( REPRESENTATION_RELATIONSHIP('','',#1329,#10) 
REPRESENTATION_RELATIONSHIP_WITH_TRANSFORMATION(#1526) 
SHAPE_REPRESENTATION_RELATIONSHIP() );
#1526 = ITEM_DEFINED_TRANSFORMATION('','',#11,#23);
#1527 = PRODUCT_DEFINITION_SHAPE('Placement','Placement of an item',
  #1528);
#1528 = NEXT_ASSEMBLY_USAGE_OCCURRENCE('4','=>[0:1:1:5]','',#5,#1324,$);
#1529 = PRODUCT_RELATED_PRODUCT_CATEGORY('part',$,(#1326));
#1530 = MECHANICAL_DESIGN_GEOMETRIC_PRESENTATION_REPRESENTATION('',(
    #1531),#1519);
#1531 = STYLED_ITEM('color',(#1532),#1330);
#1532 = PRESENTATION_STYLE_ASSIGNMENT((#1533));
#1533 = SURFACE_STYLE_USAGE(.BOTH.,#1534);
#1534 = SURFACE_SIDE_STYLE('',(#1535));
#1535 = SURFACE_STYLE_FILL_AREA(#1536);
#1536 = FILL_AREA_STYLE('',(#1537));
#1537 = FILL_AREA_STYLE_COLOUR('',#1538);
#1538 = COLOUR_RGB('',0.313304153717,0.484529207832,0.410020903123);
#1539 = MECHANICAL_DESIGN_GEOMETRIC_PRESENTATION_REPRESENTATION('',(
    #1540,#1548,#1555),#1311);
#1540 = STYLED_ITEM('color',(#1541),#841);
#1541 = PRESENTATION_STYLE_ASSIGNMENT((#1542));
#1542 = SURFACE_STYLE_USAGE(.BOTH.,#1543);
#1543 = SURFACE_SIDE_STYLE('',(#1544));
#1544 = SURFACE_STYLE_FILL_AREA(#1545);
#1545 = FILL_AREA_STYLE('',(#1546));
#1546 = FILL_AREA_STYLE_COLOUR('',#1547);
#1547 = COLOUR_RGB('',0.735356983052,0.735356983052,0.735356983052);
#1548 = STYLED_ITEM('color',(#1549),#1030);
#1549 = PRESENTATION_STYLE_ASSIGNMENT((#1550));
#1550 = SURFACE_STYLE_USAGE(.BOTH.,#1551);
#1551 = SURFACE_SIDE_STYLE('',(#1552));
#1552 = SURFACE_STYLE_FILL_AREA(#1553);
#1553 = FILL_AREA_STYLE('',(#1554));
#1554 = FILL_AREA_STYLE_COLOUR('',#1547);
#1555 = STYLED_ITEM('color',(#1556),#1219);
#1556 = PRESENTATION_STYLE_ASSIGNMENT((#1557));
#1557 = SURFACE_STYLE_USAGE(.BOTH.,#1558);
#1558 = SURFACE_SIDE_STYLE('',(#1559));
#1559 = SURFACE_STYLE_FILL_AREA(#1560);
#1560 = FILL_AREA_STYLE('',(#1561));
#1561 = FILL_AREA_STYLE_COLOUR('',#1547);
#1562 = MECHANICAL_DESIGN_GEOMETRIC_PRESENTATION_REPRESENTATION('',(
    #1563,#1571,#1578,#1585,#1592,#1599,#1606,#1613,#1620,#1627,#1634,
    #1642,#1649,#1656,#1663,#1670,#1677,#1684,#1691,#1698,#1705,#1712,
    #1719,#1726,#1733,#1740,#1747,#1754),#822);
#1563 = STYLED_ITEM('color',(#1564),#66);
#1564 = PRESENTATION_STYLE_ASSIGNMENT((#1565));
#1565 = SURFACE_STYLE_USAGE(.BOTH.,#1566);
#1566 = SURFACE_SIDE_STYLE('',(#1567));
#1567 = SURFACE_STYLE_FILL_AREA(#1568);
#1568 = FILL_AREA_STYLE('',(#1569));
#1569 = FILL_AREA_STYLE_COLOUR('',#1570);
#1570 = COLOUR_RGB('',0.147999998088,0.144999993226,0.144999993226);
#1571 = STYLED_ITEM('color',(#1572),#106);
#1572 = PRESENTATION_STYLE_ASSIGNMENT((#1573));
#1573 = SURFACE_STYLE_USAGE(.BOTH.,#1574);
#1574 = SURFACE_SIDE_STYLE('',(#1575));
#1575 = SURFACE_STYLE_FILL_AREA(#1576);
#1576 = FILL_AREA_STYLE('',(#1577));
#1577 = FILL_AREA_STYLE_COLOUR('',#1570);
#1578 = STYLED_ITEM('color',(#1579),#137);
#1579 = PRESENTATION_STYLE_ASSIGNMENT((#1580));
#1580 = SURFACE_STYLE_USAGE(.BOTH.,#1581);
#1581 = SURFACE_SIDE_STYLE('',(#1582));
#1582 = SURFACE_STYLE_FILL_AREA(#1583);
#1583 = FILL_AREA_STYLE('',(#1584));
#1584 = FILL_AREA_STYLE_COLOUR('',#1570);
#1585 = STYLED_ITEM('color',(#1586),#168);
#1586 = PRESENTATION_STYLE_ASSIGNMENT((#1587));
#1587 = SURFACE_STYLE_USAGE(.BOTH.,#1588);
#1588 = SURFACE_SIDE_STYLE('',(#1589));
#1589 = SURFACE_STYLE_FILL_AREA(#1590);
#1590 = FILL_AREA_STYLE('',(#1591));
#1591 = FILL_AREA_STYLE_COLOUR('',#1570);
#1592 = STYLED_ITEM('color',(#1593),#251);
#1593 = PRESENTATION_STYLE_ASSIGNMENT((#1594));
#1594 = SURFACE_STYLE_USAGE(.BOTH.,#1595);
#1595 = SURFACE_SIDE_STYLE('',(#1596));
#1596 = SURFACE_STYLE_FILL_AREA(#1597);
#1597 = FILL_AREA_STYLE('',(#1598));
#1598 = FILL_AREA_STYLE_COLOUR('',#1570);
#1599 = STYLED_ITEM('color',(#1600),#334);
#1600 = PRESENTATION_STYLE_ASSIGNMENT((#1601));
#1601 = SURFACE_STYLE_USAGE(.BOTH.,#1602);
#1602 = SURFACE_SIDE_STYLE('',(#1603));
#1603 = SURFACE_STYLE_FILL_AREA(#1604);
#1604 = FILL_AREA_STYLE('',(#1605));
#1605 = FILL_AREA_STYLE_COLOUR('',#1570);
#1606 = STYLED_ITEM('color',(#1607),#351);
#1607 = PRESENTATION_STYLE_ASSIGNMENT((#1608));
#1608 = SURFACE_STYLE_USAGE(.BOTH.,#1609);
#1609 = SURFACE_SIDE_STYLE('',(#1610));
#1610 = SURFACE_STYLE_FILL_AREA(#1611);
#1611 = FILL_AREA_STYLE('',(#1612));
#1612 = FILL_AREA_STYLE_COLOUR('',#1570);
#1613 = STYLED_ITEM('color',(#1614),#368);
#1614 = PRESENTATION_STYLE_ASSIGNMENT((#1615));
#1615 = SURFACE_STYLE_USAGE(.BOTH.,#1616);
#1616 = SURFACE_SIDE_STYLE('',(#1617));
#1617 = SURFACE_STYLE_FILL_AREA(#1618);
#1618 = FILL_AREA_STYLE('',(#1619));
#1619 = FILL_AREA_STYLE_COLOUR('',#1570);
#1620 = STYLED_ITEM('color',(#1621),#385);
#1621 = PRESENTATION_STYLE_ASSIGNMENT((#1622));
#1622 = SURFACE_STYLE_USAGE(.BOTH.,#1623);
#1623 = SURFACE_SIDE_STYLE('',(#1624));
#1624 = SURFACE_STYLE_FILL_AREA(#1625);
#1625 = FILL_AREA_STYLE('',(#1626));
#1626 = FILL_AREA_STYLE_COLOUR('',#1570);
#1627 = STYLED_ITEM('color',(#1628),#402);
#1628 = PRESENTATION_STYLE_ASSIGNMENT((#1629));
#1629 = SURFACE_STYLE_USAGE(.BOTH.,#1630);
#1630 = SURFACE_SIDE_STYLE('',(#1631));
#1631 = SURFACE_STYLE_FILL_AREA(#1632);
#1632 = FILL_AREA_STYLE('',(#1633));
#1633 = FILL_AREA_STYLE_COLOUR('',#1570);
#1634 = STYLED_ITEM('color',(#1635),#414);
#1635 = PRESENTATION_STYLE_ASSIGNMENT((#1636));
#1636 = SURFACE_STYLE_USAGE(.BOTH.,#1637);
#1637 = SURFACE_SIDE_STYLE('',(#1638));
#1638 = SURFACE_STYLE_FILL_AREA(#1639);
#1639 = FILL_AREA_STYLE('',(#1640));
#1640 = FILL_AREA_STYLE_COLOUR('',#1641);
#1641 = COLOUR_RGB('',0.859000020776,0.737999965183,0.495999988746);
#1642 = STYLED_ITEM('color',(#1643),#445);
#1643 = PRESENTATION_STYLE_ASSIGNMENT((#1644));
#1644 = SURFACE_STYLE_USAGE(.BOTH.,#1645);
#1645 = SURFACE_SIDE_STYLE('',(#1646));
#1646 = SURFACE_STYLE_FILL_AREA(#1647);
#1647 = FILL_AREA_STYLE('',(#1648));
#1648 = FILL_AREA_STYLE_COLOUR('',#1641);
#1649 = STYLED_ITEM('color',(#1650),#469);
#1650 = PRESENTATION_STYLE_ASSIGNMENT((#1651));
#1651 = SURFACE_STYLE_USAGE(.BOTH.,#1652);
#1652 = SURFACE_SIDE_STYLE('',(#1653));
#1653 = SURFACE_STYLE_FILL_AREA(#1654);
#1654 = FILL_AREA_STYLE('',(#1655));
#1655 = FILL_AREA_STYLE_COLOUR('',#1641);
#1656 = STYLED_ITEM('color',(#1657),#493);
#1657 = PRESENTATION_STYLE_ASSIGNMENT((#1658));
#1658 = SURFACE_STYLE_USAGE(.BOTH.,#1659);
#1659 = SURFACE_SIDE_STYLE('',(#1660));
#1660 = SURFACE_STYLE_FILL_AREA(#1661);
#1661 = FILL_AREA_STYLE('',(#1662));
#1662 = FILL_AREA_STYLE_COLOUR('',#1641);
#1663 = STYLED_ITEM('color',(#1664),#510);
#1664 = PRESENTATION_STYLE_ASSIGNMENT((#1665));
#1665 = SURFACE_STYLE_USAGE(.BOTH.,#1666);
#1666 = SURFACE_SIDE_STYLE('',(#1667));
#1667 = SURFACE_STYLE_FILL_AREA(#1668);
#1668 = FILL_AREA_STYLE('',(#1669));
#1669 = FILL_AREA_STYLE_COLOUR('',#1641);
#1670 = STYLED_ITEM('color',(#1671),#541);
#1671 = PRESENTATION_STYLE_ASSIGNMENT((#1672));
#1672 = SURFACE_STYLE_USAGE(.BOTH.,#1673);
#1673 = SURFACE_SIDE_STYLE('',(#1674));
#1674 = SURFACE_STYLE_FILL_AREA(#1675);
#1675 = FILL_AREA_STYLE('',(#1676));
#1676 = FILL_AREA_STYLE_COLOUR('',#1641);
#1677 = STYLED_ITEM('color',(#1678),#565);
#1678 = PRESENTATION_STYLE_ASSIGNMENT((#1679));
#1679 = SURFACE_STYLE_USAGE(.BOTH.,#1680);
#1680 = SURFACE_SIDE_STYLE('',(#1681));
#1681 = SURFACE_STYLE_FILL_AREA(#1682);
#1682 = FILL_AREA_STYLE('',(#1683));
#1683 = FILL_AREA_STYLE_COLOUR('',#1641);
#1684 = STYLED_ITEM('color',(#1685),#589);
#1685 = PRESENTATION_STYLE_ASSIGNMENT((#1686));
#1686 = SURFACE_STYLE_USAGE(.BOTH.,#1687);
#1687 = SURFACE_SIDE_STYLE('',(#1688));
#1688 = SURFACE_STYLE_FILL_AREA(#1689);
#1689 = FILL_AREA_STYLE('',(#1690));
#1690 = FILL_AREA_STYLE_COLOUR('',#1641);
#1691 = STYLED_ITEM('color',(#1692),#606);
#1692 = PRESENTATION_STYLE_ASSIGNMENT((#1693));
#1693 = SURFACE_STYLE_USAGE(.BOTH.,#1694);
#1694 = SURFACE_SIDE_STYLE('',(#1695));
#1695 = SURFACE_STYLE_FILL_AREA(#1696);
#1696 = FILL_AREA_STYLE('',(#1697));
#1697 = FILL_AREA_STYLE_COLOUR('',#1641);
#1698 = STYLED_ITEM('color',(#1699),#637);
#1699 = PRESENTATION_STYLE_ASSIGNMENT((#1700));
#1700 = SURFACE_STYLE_USAGE(.BOTH.,#1701);
#1701 = SURFACE_SIDE_STYLE('',(#1702));
#1702 = SURFACE_STYLE_FILL_AREA(#1703);
#1703 = FILL_AREA_STYLE('',(#1704));
#1704 = FILL_AREA_STYLE_COLOUR('',#1641);
#1705 = STYLED_ITEM('color',(#1706),#661);
#1706 = PRESENTATION_STYLE_ASSIGNMENT((#1707));
#1707 = SURFACE_STYLE_USAGE(.BOTH.,#1708);
#1708 = SURFACE_SIDE_STYLE('',(#1709));
#1709 = SURFACE_STYLE_FILL_AREA(#1710);
#1710 = FILL_AREA_STYLE('',(#1711));
#1711 = FILL_AREA_STYLE_COLOUR('',#1641);
#1712 = STYLED_ITEM('color',(#1713),#685);
#1713 = PRESENTATION_STYLE_ASSIGNMENT((#1714));
#1714 = SURFACE_STYLE_USAGE(.BOTH.,#1715);
#1715 = SURFACE_SIDE_STYLE('',(#1716));
#1716 = SURFACE_STYLE_FILL_AREA(#1717);
#1717 = FILL_AREA_STYLE('',(#1718));
#1718 = FILL_AREA_STYLE_COLOUR('',#1641);
#1719 = STYLED_ITEM('color',(#1720),#702);
#1720 = PRESENTATION_STYLE_ASSIGNMENT((#1721));
#1721 = SURFACE_STYLE_USAGE(.BOTH.,#1722);
#1722 = SURFACE_SIDE_STYLE('',(#1723));
#1723 = SURFACE_STYLE_FILL_AREA(#1724);
#1724 = FILL_AREA_STYLE('',(#1725));
#1725 = FILL_AREA_STYLE_COLOUR('',#1641);
#1726 = STYLED_ITEM('color',(#1727),#733);
#1727 = PRESENTATION_STYLE_ASSIGNMENT((#1728));
#1728 = SURFACE_STYLE_USAGE(.BOTH.,#1729);
#1729 = SURFACE_SIDE_STYLE('',(#1730));
#1730 = SURFACE_STYLE_FILL_AREA(#1731);
#1731 = FILL_AREA_STYLE('',(#1732));
#1732 = FILL_AREA_STYLE_COLOUR('',#1641);
#1733 = STYLED_ITEM('color',(#1734),#757);
#1734 = PRESENTATION_STYLE_ASSIGNMENT((#1735));
#1735 = SURFACE_STYLE_USAGE(.BOTH.,#1736);
#1736 = SURFACE_SIDE_STYLE('',(#1737));
#1737 = SURFACE_STYLE_FILL_AREA(#1738);
#1738 = FILL_AREA_STYLE('',(#1739));
#1739 = FILL_AREA_STYLE_COLOUR('',#1641);
#1740 = STYLED_ITEM('color',(#1741),#781);
#1741 = PRESENTATION_STYLE_ASSIGNMENT((#1742));
#1742 = SURFACE_STYLE_USAGE(.BOTH.,#1743);
#1743 = SURFACE_SIDE_STYLE('',(#1744));
#1744 = SURFACE_STYLE_FILL_AREA(#1745);
#1745 = FILL_AREA_STYLE('',(#1746));
#1746 = FILL_AREA_STYLE_COLOUR('',#1641);
#1747 = STYLED_ITEM('color',(#1748),#798);
#1748 = PRESENTATION_STYLE_ASSIGNMENT((#1749));
#1749 = SURFACE_STYLE_USAGE(.BOTH.,#1750);
#1750 = SURFACE_SIDE_STYLE('',(#1751));
#1751 = SURFACE_STYLE_FILL_AREA(#1752);
#1752 = FILL_AREA_STYLE('',(#1753));
#1753 = FILL_AREA_STYLE_COLOUR('',#1641);
#1754 = STYLED_ITEM('color',(#1755),#810);
#1755 = PRESENTATION_STYLE_ASSIGNMENT((#1756));
#1756 = SURFACE_STYLE_USAGE(.BOTH.,#1757);
#1757 = SURFACE_SIDE_STYLE('',(#1758));
#1758 = SURFACE_STYLE_FILL_AREA(#1759);
#1759 = FILL_AREA_STYLE('',(#1760));
#1760 = FILL_AREA_STYLE_COLOUR('',#1641);
ENDSEC;
END-ISO-10303-21;
