%TF.GenerationSoftware,KiCad,Pcbnew,10.99.0-3671-gbe90a7e200*%
%TF.CreationDate,2026-09-10T01:11:35+01:00*%
%TF.ProjectId,kicad_file,6b696361-645f-4666-996c-652e6b696361,rev?*%
%TF.SameCoordinates,Original*%
%TF.FileFunction,Profile,NP*%
%FSLAX46Y46*%
G04 Gerber Fmt 4.6, Leading zero omitted, Abs format (unit mm)*
G04 Created by KiCad (PCBNEW 10.99.0-3671-gbe90a7e200) date 2026-09-10 01:11:35*
%MOMM*%
%LPD*%
G01*
G04 APERTURE LIST*
%TA.AperFunction,Profile*%
%ADD10C,0.050000*%
%TD*%
G04 APERTURE END LIST*
D10*
X0Y16510000D02*
G75*
G02*
X2540000Y19050000I2540000J0D01*
G01*
X0Y2540000D02*
X0Y16510000D01*
X2540000Y19050000D02*
X17780000Y19050000D01*
X2540000Y0D02*
G75*
G02*
X0Y2540000I0J2540000D01*
G01*
X17780000Y19050000D02*
G75*
G02*
X20320000Y16510000I0J-2540000D01*
G01*
X17780000Y0D02*
X2540000Y0D01*
X20320000Y16510000D02*
X20320000Y2540000D01*
X20320000Y2540000D02*
G75*
G02*
X17780000Y0I-2540000J0D01*
G01*
%TO.C,X1*%
X2118000Y13425000D02*
X2718000Y13425000D01*
X2718000Y12825000D02*
X2118000Y12825000D01*
X2118000Y6225000D02*
X2718000Y6225000D01*
X2718000Y5625000D02*
X2118000Y5625000D01*
X2718000Y13425000D02*
G75*
G02*
X2968000Y13125000I-25000J-275000D01*
G01*
X2968000Y13125000D02*
G75*
G02*
X2718000Y12825000I-275000J-25000D01*
G01*
X1868000Y13125000D02*
G75*
G02*
X2118000Y13425000I275000J25000D01*
G01*
X2118000Y12825000D02*
G75*
G02*
X1868000Y13125000I25000J275000D01*
G01*
X2718000Y6225000D02*
G75*
G02*
X2968000Y5925000I-25000J-275000D01*
G01*
X2968000Y5925000D02*
G75*
G02*
X2718000Y5625000I-275000J-25000D01*
G01*
X1868000Y5925000D02*
G75*
G02*
X2118000Y6225000I275000J25000D01*
G01*
X2118000Y5625000D02*
G75*
G02*
X1868000Y5925000I25000J275000D01*
G01*
%TD*%
M02*
