ISO-10303-21;
HEADER;
FILE_DESCRIPTION(('KiCad electronic assembly'),'2;1');
FILE_NAME('model.step','1970-01-01T00:00:00',('Pcbnew'),('Kicad'),
  'Open CASCADE STEP processor 7.9','KiCad to STEP converter','Unknown'
  );
FILE_SCHEMA(('AUTOMOTIVE_DESIGN { 1 0 10303 214 1 1 1 1 }'));
ENDSEC;
DATA;
#1 = APPLICATION_PROTOCOL_DEFINITION('international standard',
  'automotive_design',2000,#2);
#2 = APPLICATION_CONTEXT(
  'core data for automotive mechanical design processes');
#3 = SHAPE_DEFINITION_REPRESENTATION(#4,#10);
#4 = PRODUCT_DEFINITION_SHAPE('','',#5);
#5 = PRODUCT_DEFINITION('design','',#6,#9);
#6 = PRODUCT_DEFINITION_FORMATION('','',#7);
#7 = PRODUCT('model 1','model 1','',(#8));
#8 = PRODUCT_CONTEXT('',#2,'mechanical');
#9 = PRODUCT_DEFINITION_CONTEXT('part definition',#2,'design');
#10 = SHAPE_REPRESENTATION('',(#11,#15,#19,#23),#27);
#11 = AXIS2_PLACEMENT_3D('',#12,#13,#14);
#12 = CARTESIAN_POINT('',(0.,0.,0.));
#13 = DIRECTION('',(0.,0.,1.));
#14 = DIRECTION('',(1.,0.,-0.));
#15 = AXIS2_PLACEMENT_3D('',#16,#17,#18);
#16 = CARTESIAN_POINT('',(0.,0.,1.595));
#17 = DIRECTION('',(0.,0.,1.));
#18 = DIRECTION('',(1.,0.,0.));
#19 = AXIS2_PLACEMENT_3D('',#20,#21,#22);
#20 = CARTESIAN_POINT('',(0.,0.,0.));
#21 = DIRECTION('',(0.,0.,1.));
#22 = DIRECTION('',(1.,0.,-0.));
#23 = AXIS2_PLACEMENT_3D('',#24,#25,#26);
#24 = CARTESIAN_POINT('',(0.,0.,0.));
#25 = DIRECTION('',(0.,0.,1.));
#26 = DIRECTION('',(1.,0.,-0.));
#27 = ( GEOMETRIC_REPRESENTATION_CONTEXT(3) 
GLOBAL_UNCERTAINTY_ASSIGNED_CONTEXT((#31)) GLOBAL_UNIT_ASSIGNED_CONTEXT(
(#28,#29,#30)) REPRESENTATION_CONTEXT('Context #1',
  '3D Context with UNIT and UNCERTAINTY') );
#28 = ( LENGTH_UNIT() NAMED_UNIT(*) SI_UNIT(.MILLI.,.METRE.) );
#29 = ( NAMED_UNIT(*) PLANE_ANGLE_UNIT() SI_UNIT($,.RADIAN.) );
#30 = ( NAMED_UNIT(*) SI_UNIT($,.STERADIAN.) SOLID_ANGLE_UNIT() );
#31 = UNCERTAINTY_MEASURE_WITH_UNIT(LENGTH_MEASURE(1.E-07),#28,
  'distance_accuracy_value','confusion accuracy');
#32 = PRODUCT_RELATED_PRODUCT_CATEGORY('part',$,(#7));
#33 = SHAPE_DEFINITION_REPRESENTATION(#34,#40);
#34 = PRODUCT_DEFINITION_SHAPE('','',#35);
#35 = PRODUCT_DEFINITION('design','',#36,#39);
#36 = PRODUCT_DEFINITION_FORMATION('','',#37);
#37 = PRODUCT('D_SOD-523','D_SOD-523','',(#38));
#38 = PRODUCT_CONTEXT('',#2,'mechanical');
#39 = PRODUCT_DEFINITION_CONTEXT('part definition',#2,'design');
#40 = SHAPE_REPRESENTATION('',(#11,#41),#45);
#41 = AXIS2_PLACEMENT_3D('',#42,#43,#44);
#42 = CARTESIAN_POINT('',(0.,0.,0.));
#43 = DIRECTION('',(0.,0.,1.));
#44 = DIRECTION('',(1.,0.,-0.));
#45 = ( GEOMETRIC_REPRESENTATION_CONTEXT(3) 
GLOBAL_UNCERTAINTY_ASSIGNED_CONTEXT((#49)) GLOBAL_UNIT_ASSIGNED_CONTEXT(
(#46,#47,#48)) REPRESENTATION_CONTEXT('Context #1',
  '3D Context with UNIT and UNCERTAINTY') );
#46 = ( LENGTH_UNIT() NAMED_UNIT(*) SI_UNIT(.MILLI.,.METRE.) );
#47 = ( NAMED_UNIT(*) PLANE_ANGLE_UNIT() SI_UNIT($,.RADIAN.) );
#48 = ( NAMED_UNIT(*) SI_UNIT($,.STERADIAN.) SOLID_ANGLE_UNIT() );
#49 = UNCERTAINTY_MEASURE_WITH_UNIT(LENGTH_MEASURE(1.E-07),#46,
  'distance_accuracy_value','confusion accuracy');
#50 = CONTEXT_DEPENDENT_SHAPE_REPRESENTATION(#51,#53);
#51 = ( REPRESENTATION_RELATIONSHIP('','',#40,#10) 
REPRESENTATION_RELATIONSHIP_WITH_TRANSFORMATION(#52) 
SHAPE_REPRESENTATION_RELATIONSHIP() );
#52 = ITEM_DEFINED_TRANSFORMATION('','',#11,#15);
#53 = PRODUCT_DEFINITION_SHAPE('Placement','Placement of an item',#54);
#54 = NEXT_ASSEMBLY_USAGE_OCCURRENCE('2','REF**','',#5,#35,$);
#55 = PRODUCT_RELATED_PRODUCT_CATEGORY('part',$,(#37));
#56 = SHAPE_DEFINITION_REPRESENTATION(#57,#63);
#57 = PRODUCT_DEFINITION_SHAPE('','',#58);
#58 = PRODUCT_DEFINITION('design','',#59,#62);
#59 = PRODUCT_DEFINITION_FORMATION('','',#60);
#60 = PRODUCT('D_SOD_523','D_SOD_523','',(#61));
#61 = PRODUCT_CONTEXT('',#2,'mechanical');
#62 = PRODUCT_DEFINITION_CONTEXT('part definition',#2,'design');
#63 = ADVANCED_BREP_SHAPE_REPRESENTATION('',(#11,#64),#784);
#64 = MANIFOLD_SOLID_BREP('',#65);
#65 = CLOSED_SHELL('',(#66,#106,#141,#165,#193,#210,#240,#278,#301,#350,
    #373,#396,#454,#477,#493,#521,#552,#580,#599,#630,#654,#678,#695,
    #719,#743,#760,#772));
#66 = ADVANCED_FACE('',(#67),#101,.T.);
#67 = FACE_BOUND('',#68,.T.);
#68 = EDGE_LOOP('',(#69,#79,#87,#95));
#69 = ORIENTED_EDGE('',*,*,#70,.F.);
#70 = EDGE_CURVE('',#71,#73,#75,.T.);
#71 = VERTEX_POINT('',#72);
#72 = CARTESIAN_POINT('',(0.8,-0.15,0.));
#73 = VERTEX_POINT('',#74);
#74 = CARTESIAN_POINT('',(0.8,-0.15,0.14));
#75 = LINE('',#76,#77);
#76 = CARTESIAN_POINT('',(0.8,-0.15,0.));
#77 = VECTOR('',#78,1.);
#78 = DIRECTION('',(0.,0.,1.));
#79 = ORIENTED_EDGE('',*,*,#80,.T.);
#80 = EDGE_CURVE('',#71,#81,#83,.T.);
#81 = VERTEX_POINT('',#82);
#82 = CARTESIAN_POINT('',(0.8,0.15,0.));
#83 = LINE('',#84,#85);
#84 = CARTESIAN_POINT('',(0.8,-0.15,0.));
#85 = VECTOR('',#86,1.);
#86 = DIRECTION('',(3.330669073875E-16,1.,0.));
#87 = ORIENTED_EDGE('',*,*,#88,.T.);
#88 = EDGE_CURVE('',#81,#89,#91,.T.);
#89 = VERTEX_POINT('',#90);
#90 = CARTESIAN_POINT('',(0.8,0.15,0.14));
#91 = LINE('',#92,#93);
#92 = CARTESIAN_POINT('',(0.8,0.15,0.));
#93 = VECTOR('',#94,1.);
#94 = DIRECTION('',(0.,0.,1.));
#95 = ORIENTED_EDGE('',*,*,#96,.F.);
#96 = EDGE_CURVE('',#73,#89,#97,.T.);
#97 = LINE('',#98,#99);
#98 = CARTESIAN_POINT('',(0.8,-0.15,0.14));
#99 = VECTOR('',#100,1.);
#100 = DIRECTION('',(3.330669073875E-16,1.,0.));
#101 = PLANE('',#102);
#102 = AXIS2_PLACEMENT_3D('',#103,#104,#105);
#103 = CARTESIAN_POINT('',(0.8,-0.15,0.));
#104 = DIRECTION('',(1.,-3.330669073875E-16,0.));
#105 = DIRECTION('',(0.,0.,1.));
#106 = ADVANCED_FACE('',(#107),#136,.F.);
#107 = FACE_BOUND('',#108,.F.);
#108 = EDGE_LOOP('',(#109,#117,#129,#135));
#109 = ORIENTED_EDGE('',*,*,#110,.F.);
#110 = EDGE_CURVE('',#111,#71,#113,.T.);
#111 = VERTEX_POINT('',#112);
#112 = CARTESIAN_POINT('',(0.590210246328,-0.15,0.));
#113 = LINE('',#114,#115);
#114 = CARTESIAN_POINT('',(0.590210246328,-0.15,0.));
#115 = VECTOR('',#116,1.);
#116 = DIRECTION('',(1.,-3.330669073875E-16,0.));
#117 = ORIENTED_EDGE('',*,*,#118,.T.);
#118 = EDGE_CURVE('',#111,#119,#121,.T.);
#119 = VERTEX_POINT('',#120);
#120 = CARTESIAN_POINT('',(0.6,-0.15,0.14));
#121 = B_SPLINE_CURVE_WITH_KNOTS('',6,(#122,#123,#124,#125,#126,#127,
    #128),.UNSPECIFIED.,.F.,.F.,(7,7),(0.,1.),.PIECEWISE_BEZIER_KNOTS.);
#122 = CARTESIAN_POINT('',(0.590210246328,-0.15,0.));
#123 = CARTESIAN_POINT('',(0.592052839095,-0.15,2.635030420451E-02));
#124 = CARTESIAN_POINT('',(0.593440858671,-0.15,4.619990891917E-02));
#125 = CARTESIAN_POINT('',(0.595069169764,-0.15,6.948584243309E-02));
#126 = CARTESIAN_POINT('',(0.597095662504,-0.15,9.84660387753E-02));
#127 = CARTESIAN_POINT('',(0.599092991412,-0.15,0.127029172887));
#128 = CARTESIAN_POINT('',(0.6,-0.15,0.14));
#129 = ORIENTED_EDGE('',*,*,#130,.T.);
#130 = EDGE_CURVE('',#119,#73,#131,.T.);
#131 = LINE('',#132,#133);
#132 = CARTESIAN_POINT('',(0.590210246328,-0.15,0.14));
#133 = VECTOR('',#134,1.);
#134 = DIRECTION('',(1.,-3.330669073875E-16,0.));
#135 = ORIENTED_EDGE('',*,*,#70,.F.);
#136 = PLANE('',#137);
#137 = AXIS2_PLACEMENT_3D('',#138,#139,#140);
#138 = CARTESIAN_POINT('',(0.590210246328,-0.15,0.));
#139 = DIRECTION('',(3.330669073875E-16,1.,0.));
#140 = DIRECTION('',(0.,-0.,1.));
#141 = ADVANCED_FACE('',(#142),#160,.T.);
#142 = FACE_BOUND('',#143,.T.);
#143 = EDGE_LOOP('',(#144,#152,#153,#154));
#144 = ORIENTED_EDGE('',*,*,#145,.F.);
#145 = EDGE_CURVE('',#119,#146,#148,.T.);
#146 = VERTEX_POINT('',#147);
#147 = CARTESIAN_POINT('',(0.6,0.15,0.14));
#148 = LINE('',#149,#150);
#149 = CARTESIAN_POINT('',(0.6,-0.4,0.14));
#150 = VECTOR('',#151,1.);
#151 = DIRECTION('',(0.,1.,0.));
#152 = ORIENTED_EDGE('',*,*,#130,.T.);
#153 = ORIENTED_EDGE('',*,*,#96,.T.);
#154 = ORIENTED_EDGE('',*,*,#155,.F.);
#155 = EDGE_CURVE('',#146,#89,#156,.T.);
#156 = LINE('',#157,#158);
#157 = CARTESIAN_POINT('',(0.590210246328,0.15,0.14));
#158 = VECTOR('',#159,1.);
#159 = DIRECTION('',(1.,-3.330669073875E-16,0.));
#160 = PLANE('',#161);
#161 = AXIS2_PLACEMENT_3D('',#162,#163,#164);
#162 = CARTESIAN_POINT('',(0.590210246328,-0.15,0.14));
#163 = DIRECTION('',(0.,0.,1.));
#164 = DIRECTION('',(1.,-3.330669073875E-16,0.));
#165 = ADVANCED_FACE('',(#166),#188,.T.);
#166 = FACE_BOUND('',#167,.T.);
#167 = EDGE_LOOP('',(#168,#176,#186,#187));
#168 = ORIENTED_EDGE('',*,*,#169,.F.);
#169 = EDGE_CURVE('',#170,#81,#172,.T.);
#170 = VERTEX_POINT('',#171);
#171 = CARTESIAN_POINT('',(0.590210246328,0.15,0.));
#172 = LINE('',#173,#174);
#173 = CARTESIAN_POINT('',(0.590210246328,0.15,0.));
#174 = VECTOR('',#175,1.);
#175 = DIRECTION('',(1.,-3.330669073875E-16,0.));
#176 = ORIENTED_EDGE('',*,*,#177,.T.);
#177 = EDGE_CURVE('',#170,#146,#178,.T.);
#178 = B_SPLINE_CURVE_WITH_KNOTS('',6,(#179,#180,#181,#182,#183,#184,
    #185),.UNSPECIFIED.,.F.,.F.,(7,7),(0.,1.),.PIECEWISE_BEZIER_KNOTS.);
#179 = CARTESIAN_POINT('',(0.590210246328,0.15,0.));
#180 = CARTESIAN_POINT('',(0.592052839095,0.15,2.635030420451E-02));
#181 = CARTESIAN_POINT('',(0.593440858671,0.15,4.619990891917E-02));
#182 = CARTESIAN_POINT('',(0.595069169764,0.15,6.948584243308E-02));
#183 = CARTESIAN_POINT('',(0.597095662504,0.15,9.84660387753E-02));
#184 = CARTESIAN_POINT('',(0.599092991412,0.15,0.127029172887));
#185 = CARTESIAN_POINT('',(0.6,0.15,0.14));
#186 = ORIENTED_EDGE('',*,*,#155,.T.);
#187 = ORIENTED_EDGE('',*,*,#88,.F.);
#188 = PLANE('',#189);
#189 = AXIS2_PLACEMENT_3D('',#190,#191,#192);
#190 = CARTESIAN_POINT('',(0.590210246328,0.15,0.));
#191 = DIRECTION('',(3.330669073875E-16,1.,0.));
#192 = DIRECTION('',(0.,-0.,1.));
#193 = ADVANCED_FACE('',(#194),#205,.F.);
#194 = FACE_BOUND('',#195,.F.);
#195 = EDGE_LOOP('',(#196,#202,#203,#204));
#196 = ORIENTED_EDGE('',*,*,#197,.F.);
#197 = EDGE_CURVE('',#111,#170,#198,.T.);
#198 = LINE('',#199,#200);
#199 = CARTESIAN_POINT('',(0.590210246328,-0.15,0.));
#200 = VECTOR('',#201,1.);
#201 = DIRECTION('',(3.330669073875E-16,1.,0.));
#202 = ORIENTED_EDGE('',*,*,#110,.T.);
#203 = ORIENTED_EDGE('',*,*,#80,.T.);
#204 = ORIENTED_EDGE('',*,*,#169,.F.);
#205 = PLANE('',#206);
#206 = AXIS2_PLACEMENT_3D('',#207,#208,#209);
#207 = CARTESIAN_POINT('',(0.590210246328,-0.15,0.));
#208 = DIRECTION('',(0.,0.,1.));
#209 = DIRECTION('',(1.,-3.330669073875E-16,0.));
#210 = ADVANCED_FACE('',(#211),#235,.T.);
#211 = FACE_BOUND('',#212,.T.);
#212 = EDGE_LOOP('',(#213,#222,#228,#229));
#213 = ORIENTED_EDGE('',*,*,#214,.F.);
#214 = EDGE_CURVE('',#215,#217,#219,.T.);
#215 = VERTEX_POINT('',#216);
#216 = CARTESIAN_POINT('',(0.590210246328,-0.390210246328,0.));
#217 = VERTEX_POINT('',#218);
#218 = CARTESIAN_POINT('',(0.6,-0.4,0.14));
#219 = B_SPLINE_CURVE_WITH_KNOTS('',1,(#220,#221),.UNSPECIFIED.,.F.,.F.,
  (2,2),(0.,1.),.PIECEWISE_BEZIER_KNOTS.);
#220 = CARTESIAN_POINT('',(0.590210246328,-0.390210246328,0.));
#221 = CARTESIAN_POINT('',(0.6,-0.4,0.14));
#222 = ORIENTED_EDGE('',*,*,#223,.T.);
#223 = EDGE_CURVE('',#215,#111,#224,.T.);
#224 = LINE('',#225,#226);
#225 = CARTESIAN_POINT('',(0.590210246328,-0.390210246328,0.));
#226 = VECTOR('',#227,1.);
#227 = DIRECTION('',(0.,1.,0.));
#228 = ORIENTED_EDGE('',*,*,#118,.T.);
#229 = ORIENTED_EDGE('',*,*,#230,.F.);
#230 = EDGE_CURVE('',#217,#119,#231,.T.);
#231 = LINE('',#232,#233);
#232 = CARTESIAN_POINT('',(0.6,-0.4,0.14));
#233 = VECTOR('',#234,1.);
#234 = DIRECTION('',(0.,1.,0.));
#235 = B_SPLINE_SURFACE_WITH_KNOTS('',1,1,(
    (#236,#237)
    ,(#238,#239
  )),.UNSPECIFIED.,.F.,.F.,.F.,(2,2),(2,2),(0.,0.8),(0.,1.),
  .PIECEWISE_BEZIER_KNOTS.);
#236 = CARTESIAN_POINT('',(0.590210246328,-0.390210246328,0.));
#237 = CARTESIAN_POINT('',(0.6,-0.4,0.14));
#238 = CARTESIAN_POINT('',(0.590210246328,0.390210246328,0.));
#239 = CARTESIAN_POINT('',(0.6,0.4,0.14));
#240 = ADVANCED_FACE('',(#241),#273,.T.);
#241 = FACE_BOUND('',#242,.T.);
#242 = EDGE_LOOP('',(#243,#244,#245,#253,#260,#268));
#243 = ORIENTED_EDGE('',*,*,#230,.T.);
#244 = ORIENTED_EDGE('',*,*,#145,.T.);
#245 = ORIENTED_EDGE('',*,*,#246,.T.);
#246 = EDGE_CURVE('',#146,#247,#249,.T.);
#247 = VERTEX_POINT('',#248);
#248 = CARTESIAN_POINT('',(0.6,0.4,0.14));
#249 = LINE('',#250,#251);
#250 = CARTESIAN_POINT('',(0.6,-0.4,0.14));
#251 = VECTOR('',#252,1.);
#252 = DIRECTION('',(0.,1.,0.));
#253 = ORIENTED_EDGE('',*,*,#254,.T.);
#254 = EDGE_CURVE('',#247,#255,#257,.T.);
#255 = VERTEX_POINT('',#256);
#256 = CARTESIAN_POINT('',(0.565735862148,0.365735862148,0.63));
#257 = B_SPLINE_CURVE_WITH_KNOTS('',1,(#258,#259),.UNSPECIFIED.,.F.,.F.,
  (2,2),(0.,1.),.PIECEWISE_BEZIER_KNOTS.);
#258 = CARTESIAN_POINT('',(0.6,0.4,0.14));
#259 = CARTESIAN_POINT('',(0.565735862148,0.365735862148,0.63));
#260 = ORIENTED_EDGE('',*,*,#261,.F.);
#261 = EDGE_CURVE('',#262,#255,#264,.T.);
#262 = VERTEX_POINT('',#263);
#263 = CARTESIAN_POINT('',(0.565735862148,-0.365735862148,0.63));
#264 = LINE('',#265,#266);
#265 = CARTESIAN_POINT('',(0.565735862148,-0.365735862148,0.63));
#266 = VECTOR('',#267,1.);
#267 = DIRECTION('',(0.,1.,0.));
#268 = ORIENTED_EDGE('',*,*,#269,.F.);
#269 = EDGE_CURVE('',#217,#262,#270,.T.);
#270 = B_SPLINE_CURVE_WITH_KNOTS('',1,(#271,#272),.UNSPECIFIED.,.F.,.F.,
  (2,2),(0.,1.),.PIECEWISE_BEZIER_KNOTS.);
#271 = CARTESIAN_POINT('',(0.6,-0.4,0.14));
#272 = CARTESIAN_POINT('',(0.565735862148,-0.365735862148,0.63));
#273 = B_SPLINE_SURFACE_WITH_KNOTS('',1,1,(
    (#274,#275)
    ,(#276,#277
  )),.UNSPECIFIED.,.F.,.F.,.F.,(2,2),(2,2),(0.,0.8),(0.,1.),
  .PIECEWISE_BEZIER_KNOTS.);
#274 = CARTESIAN_POINT('',(0.6,-0.4,0.14));
#275 = CARTESIAN_POINT('',(0.565735862148,-0.365735862148,0.63));
#276 = CARTESIAN_POINT('',(0.6,0.4,0.14));
#277 = CARTESIAN_POINT('',(0.565735862148,0.365735862148,0.63));
#278 = ADVANCED_FACE('',(#279),#296,.T.);
#279 = FACE_BOUND('',#280,.T.);
#280 = EDGE_LOOP('',(#281,#282,#290,#295));
#281 = ORIENTED_EDGE('',*,*,#177,.F.);
#282 = ORIENTED_EDGE('',*,*,#283,.T.);
#283 = EDGE_CURVE('',#170,#284,#286,.T.);
#284 = VERTEX_POINT('',#285);
#285 = CARTESIAN_POINT('',(0.590210246328,0.390210246328,0.));
#286 = LINE('',#287,#288);
#287 = CARTESIAN_POINT('',(0.590210246328,-0.390210246328,0.));
#288 = VECTOR('',#289,1.);
#289 = DIRECTION('',(0.,1.,0.));
#290 = ORIENTED_EDGE('',*,*,#291,.T.);
#291 = EDGE_CURVE('',#284,#247,#292,.T.);
#292 = B_SPLINE_CURVE_WITH_KNOTS('',1,(#293,#294),.UNSPECIFIED.,.F.,.F.,
  (2,2),(0.,1.),.PIECEWISE_BEZIER_KNOTS.);
#293 = CARTESIAN_POINT('',(0.590210246328,0.390210246328,0.));
#294 = CARTESIAN_POINT('',(0.6,0.4,0.14));
#295 = ORIENTED_EDGE('',*,*,#246,.F.);
#296 = B_SPLINE_SURFACE_WITH_KNOTS('',1,1,(
    (#297,#298)
    ,(#299,#300
  )),.UNSPECIFIED.,.F.,.F.,.F.,(2,2),(2,2),(0.,0.8),(0.,1.),
  .PIECEWISE_BEZIER_KNOTS.);
#297 = CARTESIAN_POINT('',(0.590210246328,-0.390210246328,0.));
#298 = CARTESIAN_POINT('',(0.6,-0.4,0.14));
#299 = CARTESIAN_POINT('',(0.590210246328,0.390210246328,0.));
#300 = CARTESIAN_POINT('',(0.6,0.4,0.14));
#301 = ADVANCED_FACE('',(#302),#345,.T.);
#302 = FACE_BOUND('',#303,.T.);
#303 = EDGE_LOOP('',(#304,#312,#320,#328,#336,#342,#343,#344));
#304 = ORIENTED_EDGE('',*,*,#305,.F.);
#305 = EDGE_CURVE('',#306,#215,#308,.T.);
#306 = VERTEX_POINT('',#307);
#307 = CARTESIAN_POINT('',(-0.590210246328,-0.390210246328,0.));
#308 = LINE('',#309,#310);
#309 = CARTESIAN_POINT('',(-0.590210246328,-0.390210246328,0.));
#310 = VECTOR('',#311,1.);
#311 = DIRECTION('',(1.,0.,0.));
#312 = ORIENTED_EDGE('',*,*,#313,.F.);
#313 = EDGE_CURVE('',#314,#306,#316,.T.);
#314 = VERTEX_POINT('',#315);
#315 = CARTESIAN_POINT('',(-0.590210246328,-0.15,0.));
#316 = LINE('',#317,#318);
#317 = CARTESIAN_POINT('',(-0.590210246328,0.390210246328,0.));
#318 = VECTOR('',#319,1.);
#319 = DIRECTION('',(0.,-1.,0.));
#320 = ORIENTED_EDGE('',*,*,#321,.F.);
#321 = EDGE_CURVE('',#322,#314,#324,.T.);
#322 = VERTEX_POINT('',#323);
#323 = CARTESIAN_POINT('',(-0.590210246328,0.15,0.));
#324 = LINE('',#325,#326);
#325 = CARTESIAN_POINT('',(-0.590210246328,0.15,0.));
#326 = VECTOR('',#327,1.);
#327 = DIRECTION('',(-2.22044604925E-16,-1.,0.));
#328 = ORIENTED_EDGE('',*,*,#329,.F.);
#329 = EDGE_CURVE('',#330,#322,#332,.T.);
#330 = VERTEX_POINT('',#331);
#331 = CARTESIAN_POINT('',(-0.590210246328,0.390210246328,0.));
#332 = LINE('',#333,#334);
#333 = CARTESIAN_POINT('',(-0.590210246328,0.390210246328,0.));
#334 = VECTOR('',#335,1.);
#335 = DIRECTION('',(0.,-1.,0.));
#336 = ORIENTED_EDGE('',*,*,#337,.F.);
#337 = EDGE_CURVE('',#284,#330,#338,.T.);
#338 = LINE('',#339,#340);
#339 = CARTESIAN_POINT('',(0.590210246328,0.390210246328,0.));
#340 = VECTOR('',#341,1.);
#341 = DIRECTION('',(-1.,0.,0.));
#342 = ORIENTED_EDGE('',*,*,#283,.F.);
#343 = ORIENTED_EDGE('',*,*,#197,.F.);
#344 = ORIENTED_EDGE('',*,*,#223,.F.);
#345 = PLANE('',#346);
#346 = AXIS2_PLACEMENT_3D('',#347,#348,#349);
#347 = CARTESIAN_POINT('',(-0.590210246328,-0.390210246328,0.));
#348 = DIRECTION('',(0.,0.,-1.));
#349 = DIRECTION('',(0.834172834624,0.551503111483,0.));
#350 = ADVANCED_FACE('',(#351),#368,.T.);
#351 = FACE_BOUND('',#352,.T.);
#352 = EDGE_LOOP('',(#353,#354,#355,#363));
#353 = ORIENTED_EDGE('',*,*,#305,.T.);
#354 = ORIENTED_EDGE('',*,*,#214,.T.);
#355 = ORIENTED_EDGE('',*,*,#356,.F.);
#356 = EDGE_CURVE('',#357,#217,#359,.T.);
#357 = VERTEX_POINT('',#358);
#358 = CARTESIAN_POINT('',(-0.6,-0.4,0.14));
#359 = LINE('',#360,#361);
#360 = CARTESIAN_POINT('',(-0.6,-0.4,0.14));
#361 = VECTOR('',#362,1.);
#362 = DIRECTION('',(1.,0.,0.));
#363 = ORIENTED_EDGE('',*,*,#364,.F.);
#364 = EDGE_CURVE('',#306,#357,#365,.T.);
#365 = B_SPLINE_CURVE_WITH_KNOTS('',1,(#366,#367),.UNSPECIFIED.,.F.,.F.,
  (2,2),(0.,1.),.PIECEWISE_BEZIER_KNOTS.);
#366 = CARTESIAN_POINT('',(-0.590210246328,-0.390210246328,0.));
#367 = CARTESIAN_POINT('',(-0.6,-0.4,0.14));
#368 = B_SPLINE_SURFACE_WITH_KNOTS('',1,1,(
    (#369,#370)
    ,(#371,#372
  )),.UNSPECIFIED.,.F.,.F.,.F.,(2,2),(2,2),(0.,1.2),(0.,1.),
  .PIECEWISE_BEZIER_KNOTS.);
#369 = CARTESIAN_POINT('',(-0.590210246328,-0.390210246328,0.));
#370 = CARTESIAN_POINT('',(-0.6,-0.4,0.14));
#371 = CARTESIAN_POINT('',(0.590210246328,-0.390210246328,0.));
#372 = CARTESIAN_POINT('',(0.6,-0.4,0.14));
#373 = ADVANCED_FACE('',(#374),#391,.T.);
#374 = FACE_BOUND('',#375,.T.);
#375 = EDGE_LOOP('',(#376,#377,#378,#386));
#376 = ORIENTED_EDGE('',*,*,#356,.T.);
#377 = ORIENTED_EDGE('',*,*,#269,.T.);
#378 = ORIENTED_EDGE('',*,*,#379,.F.);
#379 = EDGE_CURVE('',#380,#262,#382,.T.);
#380 = VERTEX_POINT('',#381);
#381 = CARTESIAN_POINT('',(-0.565735862148,-0.365735862148,0.63));
#382 = LINE('',#383,#384);
#383 = CARTESIAN_POINT('',(-0.565735862148,-0.365735862148,0.63));
#384 = VECTOR('',#385,1.);
#385 = DIRECTION('',(1.,0.,0.));
#386 = ORIENTED_EDGE('',*,*,#387,.F.);
#387 = EDGE_CURVE('',#357,#380,#388,.T.);
#388 = B_SPLINE_CURVE_WITH_KNOTS('',1,(#389,#390),.UNSPECIFIED.,.F.,.F.,
  (2,2),(0.,1.),.PIECEWISE_BEZIER_KNOTS.);
#389 = CARTESIAN_POINT('',(-0.6,-0.4,0.14));
#390 = CARTESIAN_POINT('',(-0.565735862148,-0.365735862148,0.63));
#391 = B_SPLINE_SURFACE_WITH_KNOTS('',1,1,(
    (#392,#393)
    ,(#394,#395
  )),.UNSPECIFIED.,.F.,.F.,.F.,(2,2),(2,2),(0.,1.2),(0.,1.),
  .PIECEWISE_BEZIER_KNOTS.);
#392 = CARTESIAN_POINT('',(-0.6,-0.4,0.14));
#393 = CARTESIAN_POINT('',(-0.565735862148,-0.365735862148,0.63));
#394 = CARTESIAN_POINT('',(0.6,-0.4,0.14));
#395 = CARTESIAN_POINT('',(0.565735862148,-0.365735862148,0.63));
#396 = ADVANCED_FACE('',(#397,#415),#449,.F.);
#397 = FACE_BOUND('',#398,.F.);
#398 = EDGE_LOOP('',(#399,#400,#408,#414));
#399 = ORIENTED_EDGE('',*,*,#379,.F.);
#400 = ORIENTED_EDGE('',*,*,#401,.F.);
#401 = EDGE_CURVE('',#402,#380,#404,.T.);
#402 = VERTEX_POINT('',#403);
#403 = CARTESIAN_POINT('',(-0.565735862148,0.365735862148,0.63));
#404 = LINE('',#405,#406);
#405 = CARTESIAN_POINT('',(-0.565735862148,0.365735862148,0.63));
#406 = VECTOR('',#407,1.);
#407 = DIRECTION('',(0.,-1.,0.));
#408 = ORIENTED_EDGE('',*,*,#409,.F.);
#409 = EDGE_CURVE('',#255,#402,#410,.T.);
#410 = LINE('',#411,#412);
#411 = CARTESIAN_POINT('',(0.565735862148,0.365735862148,0.63));
#412 = VECTOR('',#413,1.);
#413 = DIRECTION('',(-1.,0.,0.));
#414 = ORIENTED_EDGE('',*,*,#261,.F.);
#415 = FACE_BOUND('',#416,.F.);
#416 = EDGE_LOOP('',(#417,#427,#435,#443));
#417 = ORIENTED_EDGE('',*,*,#418,.F.);
#418 = EDGE_CURVE('',#419,#421,#423,.T.);
#419 = VERTEX_POINT('',#420);
#420 = CARTESIAN_POINT('',(-0.265735862148,0.315735862148,0.63));
#421 = VERTEX_POINT('',#422);
#422 = CARTESIAN_POINT('',(-0.265735862148,-0.315735862148,0.63));
#423 = LINE('',#424,#425);
#424 = CARTESIAN_POINT('',(-0.265735862148,-0.340735862148,0.63));
#425 = VECTOR('',#426,1.);
#426 = DIRECTION('',(0.,-1.,0.));
#427 = ORIENTED_EDGE('',*,*,#428,.F.);
#428 = EDGE_CURVE('',#429,#419,#431,.T.);
#429 = VERTEX_POINT('',#430);
#430 = CARTESIAN_POINT('',(-0.515735862148,0.315735862148,0.63));
#431 = LINE('',#432,#433);
#432 = CARTESIAN_POINT('',(-0.540735862148,0.315735862148,0.63));
#433 = VECTOR('',#434,1.);
#434 = DIRECTION('',(1.,0.,0.));
#435 = ORIENTED_EDGE('',*,*,#436,.T.);
#436 = EDGE_CURVE('',#429,#437,#439,.T.);
#437 = VERTEX_POINT('',#438);
#438 = CARTESIAN_POINT('',(-0.515735862148,-0.315735862148,0.63));
#439 = LINE('',#440,#441);
#440 = CARTESIAN_POINT('',(-0.515735862148,-0.340735862148,0.63));
#441 = VECTOR('',#442,1.);
#442 = DIRECTION('',(0.,-1.,0.));
#443 = ORIENTED_EDGE('',*,*,#444,.T.);
#444 = EDGE_CURVE('',#437,#421,#445,.T.);
#445 = LINE('',#446,#447);
#446 = CARTESIAN_POINT('',(-0.540735862148,-0.315735862148,0.63));
#447 = VECTOR('',#448,1.);
#448 = DIRECTION('',(1.,0.,0.));
#449 = PLANE('',#450);
#450 = AXIS2_PLACEMENT_3D('',#451,#452,#453);
#451 = CARTESIAN_POINT('',(-0.565735862148,-0.365735862148,0.63));
#452 = DIRECTION('',(0.,0.,-1.));
#453 = DIRECTION('',(0.839792508326,0.542907490241,0.));
#454 = ADVANCED_FACE('',(#455),#472,.T.);
#455 = FACE_BOUND('',#456,.T.);
#456 = EDGE_LOOP('',(#457,#465,#470,#471));
#457 = ORIENTED_EDGE('',*,*,#458,.T.);
#458 = EDGE_CURVE('',#247,#459,#461,.T.);
#459 = VERTEX_POINT('',#460);
#460 = CARTESIAN_POINT('',(-0.6,0.4,0.14));
#461 = LINE('',#462,#463);
#462 = CARTESIAN_POINT('',(0.6,0.4,0.14));
#463 = VECTOR('',#464,1.);
#464 = DIRECTION('',(-1.,0.,0.));
#465 = ORIENTED_EDGE('',*,*,#466,.T.);
#466 = EDGE_CURVE('',#459,#402,#467,.T.);
#467 = B_SPLINE_CURVE_WITH_KNOTS('',1,(#468,#469),.UNSPECIFIED.,.F.,.F.,
  (2,2),(0.,1.),.PIECEWISE_BEZIER_KNOTS.);
#468 = CARTESIAN_POINT('',(-0.6,0.4,0.14));
#469 = CARTESIAN_POINT('',(-0.565735862148,0.365735862148,0.63));
#470 = ORIENTED_EDGE('',*,*,#409,.F.);
#471 = ORIENTED_EDGE('',*,*,#254,.F.);
#472 = B_SPLINE_SURFACE_WITH_KNOTS('',1,1,(
    (#473,#474)
    ,(#475,#476
  )),.UNSPECIFIED.,.F.,.F.,.F.,(2,2),(2,2),(0.,1.2),(0.,1.),
  .PIECEWISE_BEZIER_KNOTS.);
#473 = CARTESIAN_POINT('',(0.6,0.4,0.14));
#474 = CARTESIAN_POINT('',(0.565735862148,0.365735862148,0.63));
#475 = CARTESIAN_POINT('',(-0.6,0.4,0.14));
#476 = CARTESIAN_POINT('',(-0.565735862148,0.365735862148,0.63));
#477 = ADVANCED_FACE('',(#478),#488,.T.);
#478 = FACE_BOUND('',#479,.T.);
#479 = EDGE_LOOP('',(#480,#481,#486,#487));
#480 = ORIENTED_EDGE('',*,*,#337,.T.);
#481 = ORIENTED_EDGE('',*,*,#482,.T.);
#482 = EDGE_CURVE('',#330,#459,#483,.T.);
#483 = B_SPLINE_CURVE_WITH_KNOTS('',1,(#484,#485),.UNSPECIFIED.,.F.,.F.,
  (2,2),(0.,1.),.PIECEWISE_BEZIER_KNOTS.);
#484 = CARTESIAN_POINT('',(-0.590210246328,0.390210246328,0.));
#485 = CARTESIAN_POINT('',(-0.6,0.4,0.14));
#486 = ORIENTED_EDGE('',*,*,#458,.F.);
#487 = ORIENTED_EDGE('',*,*,#291,.F.);
#488 = B_SPLINE_SURFACE_WITH_KNOTS('',1,1,(
    (#489,#490)
    ,(#491,#492
  )),.UNSPECIFIED.,.F.,.F.,.F.,(2,2),(2,2),(0.,1.2),(0.,1.),
  .PIECEWISE_BEZIER_KNOTS.);
#489 = CARTESIAN_POINT('',(0.590210246328,0.390210246328,0.));
#490 = CARTESIAN_POINT('',(0.6,0.4,0.14));
#491 = CARTESIAN_POINT('',(-0.590210246328,0.390210246328,0.));
#492 = CARTESIAN_POINT('',(-0.6,0.4,0.14));
#493 = ADVANCED_FACE('',(#494),#516,.T.);
#494 = FACE_BOUND('',#495,.T.);
#495 = EDGE_LOOP('',(#496,#508,#509,#510));
#496 = ORIENTED_EDGE('',*,*,#497,.F.);
#497 = EDGE_CURVE('',#314,#498,#500,.T.);
#498 = VERTEX_POINT('',#499);
#499 = CARTESIAN_POINT('',(-0.6,-0.15,0.14));
#500 = B_SPLINE_CURVE_WITH_KNOTS('',6,(#501,#502,#503,#504,#505,#506,
    #507),.UNSPECIFIED.,.F.,.F.,(7,7),(0.,1.),.PIECEWISE_BEZIER_KNOTS.);
#501 = CARTESIAN_POINT('',(-0.590210246328,-0.15,0.));
#502 = CARTESIAN_POINT('',(-0.592052839095,-0.15,2.635030420451E-02));
#503 = CARTESIAN_POINT('',(-0.593440858671,-0.15,4.619990891917E-02));
#504 = CARTESIAN_POINT('',(-0.595069169764,-0.15,6.948584243309E-02));
#505 = CARTESIAN_POINT('',(-0.597095662504,-0.15,9.84660387753E-02));
#506 = CARTESIAN_POINT('',(-0.599092991412,-0.15,0.127029172887));
#507 = CARTESIAN_POINT('',(-0.6,-0.15,0.14));
#508 = ORIENTED_EDGE('',*,*,#313,.T.);
#509 = ORIENTED_EDGE('',*,*,#364,.T.);
#510 = ORIENTED_EDGE('',*,*,#511,.F.);
#511 = EDGE_CURVE('',#498,#357,#512,.T.);
#512 = LINE('',#513,#514);
#513 = CARTESIAN_POINT('',(-0.6,0.4,0.14));
#514 = VECTOR('',#515,1.);
#515 = DIRECTION('',(0.,-1.,0.));
#516 = B_SPLINE_SURFACE_WITH_KNOTS('',1,1,(
    (#517,#518)
    ,(#519,#520
  )),.UNSPECIFIED.,.F.,.F.,.F.,(2,2),(2,2),(0.,0.8),(0.,1.),
  .PIECEWISE_BEZIER_KNOTS.);
#517 = CARTESIAN_POINT('',(-0.590210246328,0.390210246328,0.));
#518 = CARTESIAN_POINT('',(-0.6,0.4,0.14));
#519 = CARTESIAN_POINT('',(-0.590210246328,-0.390210246328,0.));
#520 = CARTESIAN_POINT('',(-0.6,-0.4,0.14));
#521 = ADVANCED_FACE('',(#522),#547,.F.);
#522 = FACE_BOUND('',#523,.F.);
#523 = EDGE_LOOP('',(#524,#525,#533,#541));
#524 = ORIENTED_EDGE('',*,*,#321,.F.);
#525 = ORIENTED_EDGE('',*,*,#526,.T.);
#526 = EDGE_CURVE('',#322,#527,#529,.T.);
#527 = VERTEX_POINT('',#528);
#528 = CARTESIAN_POINT('',(-0.8,0.15,0.));
#529 = LINE('',#530,#531);
#530 = CARTESIAN_POINT('',(-0.590210246328,0.15,0.));
#531 = VECTOR('',#532,1.);
#532 = DIRECTION('',(-1.,2.22044604925E-16,0.));
#533 = ORIENTED_EDGE('',*,*,#534,.T.);
#534 = EDGE_CURVE('',#527,#535,#537,.T.);
#535 = VERTEX_POINT('',#536);
#536 = CARTESIAN_POINT('',(-0.8,-0.15,0.));
#537 = LINE('',#538,#539);
#538 = CARTESIAN_POINT('',(-0.8,0.15,0.));
#539 = VECTOR('',#540,1.);
#540 = DIRECTION('',(-2.22044604925E-16,-1.,0.));
#541 = ORIENTED_EDGE('',*,*,#542,.F.);
#542 = EDGE_CURVE('',#314,#535,#543,.T.);
#543 = LINE('',#544,#545);
#544 = CARTESIAN_POINT('',(-0.590210246328,-0.15,0.));
#545 = VECTOR('',#546,1.);
#546 = DIRECTION('',(-1.,2.22044604925E-16,0.));
#547 = PLANE('',#548);
#548 = AXIS2_PLACEMENT_3D('',#549,#550,#551);
#549 = CARTESIAN_POINT('',(-0.590210246328,0.15,0.));
#550 = DIRECTION('',(0.,0.,1.));
#551 = DIRECTION('',(-1.,2.22044604925E-16,0.));
#552 = ADVANCED_FACE('',(#553),#575,.T.);
#553 = FACE_BOUND('',#554,.T.);
#554 = EDGE_LOOP('',(#555,#556,#557,#569));
#555 = ORIENTED_EDGE('',*,*,#482,.F.);
#556 = ORIENTED_EDGE('',*,*,#329,.T.);
#557 = ORIENTED_EDGE('',*,*,#558,.T.);
#558 = EDGE_CURVE('',#322,#559,#561,.T.);
#559 = VERTEX_POINT('',#560);
#560 = CARTESIAN_POINT('',(-0.6,0.15,0.14));
#561 = B_SPLINE_CURVE_WITH_KNOTS('',6,(#562,#563,#564,#565,#566,#567,
    #568),.UNSPECIFIED.,.F.,.F.,(7,7),(0.,1.),.PIECEWISE_BEZIER_KNOTS.);
#562 = CARTESIAN_POINT('',(-0.590210246328,0.15,0.));
#563 = CARTESIAN_POINT('',(-0.592052839095,0.15,2.635030420451E-02));
#564 = CARTESIAN_POINT('',(-0.593440858671,0.15,4.619990891917E-02));
#565 = CARTESIAN_POINT('',(-0.595069169764,0.15,6.948584243309E-02));
#566 = CARTESIAN_POINT('',(-0.597095662504,0.15,9.84660387753E-02));
#567 = CARTESIAN_POINT('',(-0.599092991412,0.15,0.127029172887));
#568 = CARTESIAN_POINT('',(-0.6,0.15,0.14));
#569 = ORIENTED_EDGE('',*,*,#570,.F.);
#570 = EDGE_CURVE('',#459,#559,#571,.T.);
#571 = LINE('',#572,#573);
#572 = CARTESIAN_POINT('',(-0.6,0.4,0.14));
#573 = VECTOR('',#574,1.);
#574 = DIRECTION('',(0.,-1.,0.));
#575 = B_SPLINE_SURFACE_WITH_KNOTS('',1,1,(
    (#576,#577)
    ,(#578,#579
  )),.UNSPECIFIED.,.F.,.F.,.F.,(2,2),(2,2),(0.,0.8),(0.,1.),
  .PIECEWISE_BEZIER_KNOTS.);
#576 = CARTESIAN_POINT('',(-0.590210246328,0.390210246328,0.));
#577 = CARTESIAN_POINT('',(-0.6,0.4,0.14));
#578 = CARTESIAN_POINT('',(-0.590210246328,-0.390210246328,0.));
#579 = CARTESIAN_POINT('',(-0.6,-0.4,0.14));
#580 = ADVANCED_FACE('',(#581),#594,.T.);
#581 = FACE_BOUND('',#582,.T.);
#582 = EDGE_LOOP('',(#583,#584,#590,#591,#592,#593));
#583 = ORIENTED_EDGE('',*,*,#570,.T.);
#584 = ORIENTED_EDGE('',*,*,#585,.T.);
#585 = EDGE_CURVE('',#559,#498,#586,.T.);
#586 = LINE('',#587,#588);
#587 = CARTESIAN_POINT('',(-0.6,0.4,0.14));
#588 = VECTOR('',#589,1.);
#589 = DIRECTION('',(0.,-1.,0.));
#590 = ORIENTED_EDGE('',*,*,#511,.T.);
#591 = ORIENTED_EDGE('',*,*,#387,.T.);
#592 = ORIENTED_EDGE('',*,*,#401,.F.);
#593 = ORIENTED_EDGE('',*,*,#466,.F.);
#594 = B_SPLINE_SURFACE_WITH_KNOTS('',1,1,(
    (#595,#596)
    ,(#597,#598
  )),.UNSPECIFIED.,.F.,.F.,.F.,(2,2),(2,2),(0.,0.8),(0.,1.),
  .PIECEWISE_BEZIER_KNOTS.);
#595 = CARTESIAN_POINT('',(-0.6,0.4,0.14));
#596 = CARTESIAN_POINT('',(-0.565735862148,0.365735862148,0.63));
#597 = CARTESIAN_POINT('',(-0.6,-0.4,0.14));
#598 = CARTESIAN_POINT('',(-0.565735862148,-0.365735862148,0.63));
#599 = ADVANCED_FACE('',(#600),#625,.F.);
#600 = FACE_BOUND('',#601,.F.);
#601 = EDGE_LOOP('',(#602,#610,#618,#624));
#602 = ORIENTED_EDGE('',*,*,#603,.F.);
#603 = EDGE_CURVE('',#604,#421,#606,.T.);
#604 = VERTEX_POINT('',#605);
#605 = CARTESIAN_POINT('',(-0.265735862148,-0.315735862148,0.62));
#606 = LINE('',#607,#608);
#607 = CARTESIAN_POINT('',(-0.265735862148,-0.315735862148,0.62));
#608 = VECTOR('',#609,1.);
#609 = DIRECTION('',(0.,0.,1.));
#610 = ORIENTED_EDGE('',*,*,#611,.T.);
#611 = EDGE_CURVE('',#604,#612,#614,.T.);
#612 = VERTEX_POINT('',#613);
#613 = CARTESIAN_POINT('',(-0.265735862148,0.315735862148,0.62));
#614 = LINE('',#615,#616);
#615 = CARTESIAN_POINT('',(-0.265735862148,-0.315735862148,0.62));
#616 = VECTOR('',#617,1.);
#617 = DIRECTION('',(0.,1.,0.));
#618 = ORIENTED_EDGE('',*,*,#619,.T.);
#619 = EDGE_CURVE('',#612,#419,#620,.T.);
#620 = LINE('',#621,#622);
#621 = CARTESIAN_POINT('',(-0.265735862148,0.315735862148,0.62));
#622 = VECTOR('',#623,1.);
#623 = DIRECTION('',(0.,0.,1.));
#624 = ORIENTED_EDGE('',*,*,#418,.T.);
#625 = PLANE('',#626);
#626 = AXIS2_PLACEMENT_3D('',#627,#628,#629);
#627 = CARTESIAN_POINT('',(-0.265735862148,-0.315735862148,0.62));
#628 = DIRECTION('',(1.,0.,0.));
#629 = DIRECTION('',(0.,0.,1.));
#630 = ADVANCED_FACE('',(#631),#649,.T.);
#631 = FACE_BOUND('',#632,.T.);
#632 = EDGE_LOOP('',(#633,#634,#642,#648));
#633 = ORIENTED_EDGE('',*,*,#603,.F.);
#634 = ORIENTED_EDGE('',*,*,#635,.F.);
#635 = EDGE_CURVE('',#636,#604,#638,.T.);
#636 = VERTEX_POINT('',#637);
#637 = CARTESIAN_POINT('',(-0.515735862148,-0.315735862148,0.62));
#638 = LINE('',#639,#640);
#639 = CARTESIAN_POINT('',(-0.515735862148,-0.315735862148,0.62));
#640 = VECTOR('',#641,1.);
#641 = DIRECTION('',(1.,0.,0.));
#642 = ORIENTED_EDGE('',*,*,#643,.T.);
#643 = EDGE_CURVE('',#636,#437,#644,.T.);
#644 = LINE('',#645,#646);
#645 = CARTESIAN_POINT('',(-0.515735862148,-0.315735862148,0.62));
#646 = VECTOR('',#647,1.);
#647 = DIRECTION('',(0.,0.,1.));
#648 = ORIENTED_EDGE('',*,*,#444,.T.);
#649 = PLANE('',#650);
#650 = AXIS2_PLACEMENT_3D('',#651,#652,#653);
#651 = CARTESIAN_POINT('',(-0.515735862148,-0.315735862148,0.62));
#652 = DIRECTION('',(0.,1.,0.));
#653 = DIRECTION('',(0.,-0.,1.));
#654 = ADVANCED_FACE('',(#655),#673,.T.);
#655 = FACE_BOUND('',#656,.T.);
#656 = EDGE_LOOP('',(#657,#658,#666,#672));
#657 = ORIENTED_EDGE('',*,*,#643,.F.);
#658 = ORIENTED_EDGE('',*,*,#659,.T.);
#659 = EDGE_CURVE('',#636,#660,#662,.T.);
#660 = VERTEX_POINT('',#661);
#661 = CARTESIAN_POINT('',(-0.515735862148,0.315735862148,0.62));
#662 = LINE('',#663,#664);
#663 = CARTESIAN_POINT('',(-0.515735862148,-0.315735862148,0.62));
#664 = VECTOR('',#665,1.);
#665 = DIRECTION('',(0.,1.,0.));
#666 = ORIENTED_EDGE('',*,*,#667,.T.);
#667 = EDGE_CURVE('',#660,#429,#668,.T.);
#668 = LINE('',#669,#670);
#669 = CARTESIAN_POINT('',(-0.515735862148,0.315735862148,0.62));
#670 = VECTOR('',#671,1.);
#671 = DIRECTION('',(0.,0.,1.));
#672 = ORIENTED_EDGE('',*,*,#436,.T.);
#673 = PLANE('',#674);
#674 = AXIS2_PLACEMENT_3D('',#675,#676,#677);
#675 = CARTESIAN_POINT('',(-0.515735862148,-0.315735862148,0.62));
#676 = DIRECTION('',(1.,0.,0.));
#677 = DIRECTION('',(0.,0.,1.));
#678 = ADVANCED_FACE('',(#679),#690,.F.);
#679 = FACE_BOUND('',#680,.F.);
#680 = EDGE_LOOP('',(#681,#682,#688,#689));
#681 = ORIENTED_EDGE('',*,*,#619,.F.);
#682 = ORIENTED_EDGE('',*,*,#683,.F.);
#683 = EDGE_CURVE('',#660,#612,#684,.T.);
#684 = LINE('',#685,#686);
#685 = CARTESIAN_POINT('',(-0.515735862148,0.315735862148,0.62));
#686 = VECTOR('',#687,1.);
#687 = DIRECTION('',(1.,0.,0.));
#688 = ORIENTED_EDGE('',*,*,#667,.T.);
#689 = ORIENTED_EDGE('',*,*,#428,.T.);
#690 = PLANE('',#691);
#691 = AXIS2_PLACEMENT_3D('',#692,#693,#694);
#692 = CARTESIAN_POINT('',(-0.515735862148,0.315735862148,0.62));
#693 = DIRECTION('',(0.,1.,0.));
#694 = DIRECTION('',(0.,-0.,1.));
#695 = ADVANCED_FACE('',(#696),#714,.T.);
#696 = FACE_BOUND('',#697,.T.);
#697 = EDGE_LOOP('',(#698,#699,#700,#708));
#698 = ORIENTED_EDGE('',*,*,#542,.F.);
#699 = ORIENTED_EDGE('',*,*,#497,.T.);
#700 = ORIENTED_EDGE('',*,*,#701,.T.);
#701 = EDGE_CURVE('',#498,#702,#704,.T.);
#702 = VERTEX_POINT('',#703);
#703 = CARTESIAN_POINT('',(-0.8,-0.15,0.14));
#704 = LINE('',#705,#706);
#705 = CARTESIAN_POINT('',(-0.590210246328,-0.15,0.14));
#706 = VECTOR('',#707,1.);
#707 = DIRECTION('',(-1.,2.22044604925E-16,0.));
#708 = ORIENTED_EDGE('',*,*,#709,.F.);
#709 = EDGE_CURVE('',#535,#702,#710,.T.);
#710 = LINE('',#711,#712);
#711 = CARTESIAN_POINT('',(-0.8,-0.15,0.));
#712 = VECTOR('',#713,1.);
#713 = DIRECTION('',(0.,0.,1.));
#714 = PLANE('',#715);
#715 = AXIS2_PLACEMENT_3D('',#716,#717,#718);
#716 = CARTESIAN_POINT('',(-0.590210246328,-0.15,0.));
#717 = DIRECTION('',(-2.22044604925E-16,-1.,0.));
#718 = DIRECTION('',(0.,0.,1.));
#719 = ADVANCED_FACE('',(#720),#738,.F.);
#720 = FACE_BOUND('',#721,.F.);
#721 = EDGE_LOOP('',(#722,#723,#724,#732));
#722 = ORIENTED_EDGE('',*,*,#526,.F.);
#723 = ORIENTED_EDGE('',*,*,#558,.T.);
#724 = ORIENTED_EDGE('',*,*,#725,.T.);
#725 = EDGE_CURVE('',#559,#726,#728,.T.);
#726 = VERTEX_POINT('',#727);
#727 = CARTESIAN_POINT('',(-0.8,0.15,0.14));
#728 = LINE('',#729,#730);
#729 = CARTESIAN_POINT('',(-0.590210246328,0.15,0.14));
#730 = VECTOR('',#731,1.);
#731 = DIRECTION('',(-1.,2.22044604925E-16,0.));
#732 = ORIENTED_EDGE('',*,*,#733,.F.);
#733 = EDGE_CURVE('',#527,#726,#734,.T.);
#734 = LINE('',#735,#736);
#735 = CARTESIAN_POINT('',(-0.8,0.15,0.));
#736 = VECTOR('',#737,1.);
#737 = DIRECTION('',(0.,0.,1.));
#738 = PLANE('',#739);
#739 = AXIS2_PLACEMENT_3D('',#740,#741,#742);
#740 = CARTESIAN_POINT('',(-0.590210246328,0.15,0.));
#741 = DIRECTION('',(-2.22044604925E-16,-1.,0.));
#742 = DIRECTION('',(0.,0.,1.));
#743 = ADVANCED_FACE('',(#744),#755,.T.);
#744 = FACE_BOUND('',#745,.T.);
#745 = EDGE_LOOP('',(#746,#747,#748,#749));
#746 = ORIENTED_EDGE('',*,*,#733,.F.);
#747 = ORIENTED_EDGE('',*,*,#534,.T.);
#748 = ORIENTED_EDGE('',*,*,#709,.T.);
#749 = ORIENTED_EDGE('',*,*,#750,.F.);
#750 = EDGE_CURVE('',#726,#702,#751,.T.);
#751 = LINE('',#752,#753);
#752 = CARTESIAN_POINT('',(-0.8,0.15,0.14));
#753 = VECTOR('',#754,1.);
#754 = DIRECTION('',(-2.22044604925E-16,-1.,0.));
#755 = PLANE('',#756);
#756 = AXIS2_PLACEMENT_3D('',#757,#758,#759);
#757 = CARTESIAN_POINT('',(-0.8,0.15,0.));
#758 = DIRECTION('',(-1.,2.22044604925E-16,0.));
#759 = DIRECTION('',(0.,0.,1.));
#760 = ADVANCED_FACE('',(#761),#767,.T.);
#761 = FACE_BOUND('',#762,.T.);
#762 = EDGE_LOOP('',(#763,#764,#765,#766));
#763 = ORIENTED_EDGE('',*,*,#585,.F.);
#764 = ORIENTED_EDGE('',*,*,#725,.T.);
#765 = ORIENTED_EDGE('',*,*,#750,.T.);
#766 = ORIENTED_EDGE('',*,*,#701,.F.);
#767 = PLANE('',#768);
#768 = AXIS2_PLACEMENT_3D('',#769,#770,#771);
#769 = CARTESIAN_POINT('',(-0.590210246328,0.15,0.14));
#770 = DIRECTION('',(0.,0.,1.));
#771 = DIRECTION('',(-1.,2.22044604925E-16,0.));
#772 = ADVANCED_FACE('',(#773),#779,.T.);
#773 = FACE_BOUND('',#774,.T.);
#774 = EDGE_LOOP('',(#775,#776,#777,#778));
#775 = ORIENTED_EDGE('',*,*,#659,.F.);
#776 = ORIENTED_EDGE('',*,*,#635,.T.);
#777 = ORIENTED_EDGE('',*,*,#611,.T.);
#778 = ORIENTED_EDGE('',*,*,#683,.F.);
#779 = PLANE('',#780);
#780 = AXIS2_PLACEMENT_3D('',#781,#782,#783);
#781 = CARTESIAN_POINT('',(-0.515735862148,-0.315735862148,0.62));
#782 = DIRECTION('',(0.,0.,1.));
#783 = DIRECTION('',(1.,0.,-0.));
#784 = ( GEOMETRIC_REPRESENTATION_CONTEXT(3) 
GLOBAL_UNCERTAINTY_ASSIGNED_CONTEXT((#788)) GLOBAL_UNIT_ASSIGNED_CONTEXT
((#785,#786,#787)) REPRESENTATION_CONTEXT('Context #1',
  '3D Context with UNIT and UNCERTAINTY') );
#785 = ( LENGTH_UNIT() NAMED_UNIT(*) SI_UNIT(.MILLI.,.METRE.) );
#786 = ( NAMED_UNIT(*) PLANE_ANGLE_UNIT() SI_UNIT($,.RADIAN.) );
#787 = ( NAMED_UNIT(*) SI_UNIT($,.STERADIAN.) SOLID_ANGLE_UNIT() );
#788 = UNCERTAINTY_MEASURE_WITH_UNIT(LENGTH_MEASURE(1.E-07),#785,
  'distance_accuracy_value','confusion accuracy');
#789 = CONTEXT_DEPENDENT_SHAPE_REPRESENTATION(#790,#792);
#790 = ( REPRESENTATION_RELATIONSHIP('','',#63,#40) 
REPRESENTATION_RELATIONSHIP_WITH_TRANSFORMATION(#791) 
SHAPE_REPRESENTATION_RELATIONSHIP() );
#791 = ITEM_DEFINED_TRANSFORMATION('','',#11,#41);
#792 = PRODUCT_DEFINITION_SHAPE('Placement','Placement of an item',#793
  );
#793 = NEXT_ASSEMBLY_USAGE_OCCURRENCE('1','=>[0:1:1:3]','',#35,#58,$);
#794 = PRODUCT_RELATED_PRODUCT_CATEGORY('part',$,(#60));
#795 = SHAPE_DEFINITION_REPRESENTATION(#796,#802);
#796 = PRODUCT_DEFINITION_SHAPE('','',#797);
#797 = PRODUCT_DEFINITION('design','',#798,#801);
#798 = PRODUCT_DEFINITION_FORMATION('','',#799);
#799 = PRODUCT('electronic_diode_schottky_sod_523_1ss400_render_pad',
  'electronic_diode_schottky_sod_523_1ss400_render_pad','',(#800));
#800 = PRODUCT_CONTEXT('',#2,'mechanical');
#801 = PRODUCT_DEFINITION_CONTEXT('part definition',#2,'design');
#802 = SHAPE_REPRESENTATION('',(#11,#803,#1093),#1383);
#803 = MANIFOLD_SOLID_BREP('',#804);
#804 = CLOSED_SHELL('',(#805,#847,#878,#911,#942,#975,#1006,#1039,#1061,
    #1077));
#805 = ADVANCED_FACE('',(#806),#842,.T.);
#806 = FACE_BOUND('',#807,.T.);
#807 = EDGE_LOOP('',(#808,#818,#827,#835));
#808 = ORIENTED_EDGE('',*,*,#809,.T.);
#809 = EDGE_CURVE('',#810,#812,#814,.T.);
#810 = VERTEX_POINT('',#811);
#811 = CARTESIAN_POINT('',(-1.,0.2,1.51));
#812 = VERTEX_POINT('',#813);
#813 = CARTESIAN_POINT('',(-1.,0.2,1.55));
#814 = LINE('',#815,#816);
#815 = CARTESIAN_POINT('',(-1.,0.2,1.51));
#816 = VECTOR('',#817,1.);
#817 = DIRECTION('',(0.,0.,1.));
#818 = ORIENTED_EDGE('',*,*,#819,.T.);
#819 = EDGE_CURVE('',#812,#820,#822,.T.);
#820 = VERTEX_POINT('',#821);
#821 = CARTESIAN_POINT('',(-0.85,0.35,1.55));
#822 = CIRCLE('',#823,0.150000058649);
#823 = AXIS2_PLACEMENT_3D('',#824,#825,#826);
#824 = CARTESIAN_POINT('',(-0.849999941351,0.199999941351,1.55));
#825 = DIRECTION('',(0.,0.,-1.));
#826 = DIRECTION('',(-1.,3.909953623466E-07,0.));
#827 = ORIENTED_EDGE('',*,*,#828,.F.);
#828 = EDGE_CURVE('',#829,#820,#831,.T.);
#829 = VERTEX_POINT('',#830);
#830 = CARTESIAN_POINT('',(-0.85,0.35,1.51));
#831 = LINE('',#832,#833);
#832 = CARTESIAN_POINT('',(-0.85,0.35,1.51));
#833 = VECTOR('',#834,1.);
#834 = DIRECTION('',(0.,0.,1.));
#835 = ORIENTED_EDGE('',*,*,#836,.F.);
#836 = EDGE_CURVE('',#810,#829,#837,.T.);
#837 = CIRCLE('',#838,0.150000058649);
#838 = AXIS2_PLACEMENT_3D('',#839,#840,#841);
#839 = CARTESIAN_POINT('',(-0.849999941351,0.199999941351,1.51));
#840 = DIRECTION('',(0.,0.,-1.));
#841 = DIRECTION('',(-1.,3.909953623466E-07,0.));
#842 = CYLINDRICAL_SURFACE('',#843,0.150000058649);
#843 = AXIS2_PLACEMENT_3D('',#844,#845,#846);
#844 = CARTESIAN_POINT('',(-0.849999941351,0.199999941351,1.51));
#845 = DIRECTION('',(0.,0.,-1.));
#846 = DIRECTION('',(-1.,3.909953623466E-07,0.));
#847 = ADVANCED_FACE('',(#848),#873,.T.);
#848 = FACE_BOUND('',#849,.T.);
#849 = EDGE_LOOP('',(#850,#851,#859,#867));
#850 = ORIENTED_EDGE('',*,*,#828,.T.);
#851 = ORIENTED_EDGE('',*,*,#852,.T.);
#852 = EDGE_CURVE('',#820,#853,#855,.T.);
#853 = VERTEX_POINT('',#854);
#854 = CARTESIAN_POINT('',(-0.55,0.35,1.55));
#855 = LINE('',#856,#857);
#856 = CARTESIAN_POINT('',(-0.85,0.35,1.55));
#857 = VECTOR('',#858,1.);
#858 = DIRECTION('',(1.,0.,0.));
#859 = ORIENTED_EDGE('',*,*,#860,.F.);
#860 = EDGE_CURVE('',#861,#853,#863,.T.);
#861 = VERTEX_POINT('',#862);
#862 = CARTESIAN_POINT('',(-0.55,0.35,1.51));
#863 = LINE('',#864,#865);
#864 = CARTESIAN_POINT('',(-0.55,0.35,1.51));
#865 = VECTOR('',#866,1.);
#866 = DIRECTION('',(0.,0.,1.));
#867 = ORIENTED_EDGE('',*,*,#868,.F.);
#868 = EDGE_CURVE('',#829,#861,#869,.T.);
#869 = LINE('',#870,#871);
#870 = CARTESIAN_POINT('',(-0.85,0.35,1.51));
#871 = VECTOR('',#872,1.);
#872 = DIRECTION('',(1.,0.,0.));
#873 = PLANE('',#874);
#874 = AXIS2_PLACEMENT_3D('',#875,#876,#877);
#875 = CARTESIAN_POINT('',(-0.85,0.35,1.51));
#876 = DIRECTION('',(0.,1.,0.));
#877 = DIRECTION('',(1.,0.,0.));
#878 = ADVANCED_FACE('',(#879),#906,.T.);
#879 = FACE_BOUND('',#880,.T.);
#880 = EDGE_LOOP('',(#881,#882,#891,#899));
#881 = ORIENTED_EDGE('',*,*,#860,.T.);
#882 = ORIENTED_EDGE('',*,*,#883,.T.);
#883 = EDGE_CURVE('',#853,#884,#886,.T.);
#884 = VERTEX_POINT('',#885);
#885 = CARTESIAN_POINT('',(-0.4,0.2,1.55));
#886 = CIRCLE('',#887,0.150000058649);
#887 = AXIS2_PLACEMENT_3D('',#888,#889,#890);
#888 = CARTESIAN_POINT('',(-0.550000058649,0.199999941351,1.55));
#889 = DIRECTION('',(0.,0.,-1.));
#890 = DIRECTION('',(3.909953616065E-07,1.,0.));
#891 = ORIENTED_EDGE('',*,*,#892,.F.);
#892 = EDGE_CURVE('',#893,#884,#895,.T.);
#893 = VERTEX_POINT('',#894);
#894 = CARTESIAN_POINT('',(-0.4,0.2,1.51));
#895 = LINE('',#896,#897);
#896 = CARTESIAN_POINT('',(-0.4,0.2,1.51));
#897 = VECTOR('',#898,1.);
#898 = DIRECTION('',(0.,0.,1.));
#899 = ORIENTED_EDGE('',*,*,#900,.F.);
#900 = EDGE_CURVE('',#861,#893,#901,.T.);
#901 = CIRCLE('',#902,0.150000058649);
#902 = AXIS2_PLACEMENT_3D('',#903,#904,#905);
#903 = CARTESIAN_POINT('',(-0.550000058649,0.199999941351,1.51));
#904 = DIRECTION('',(0.,0.,-1.));
#905 = DIRECTION('',(3.909953616065E-07,1.,0.));
#906 = CYLINDRICAL_SURFACE('',#907,0.150000058649);
#907 = AXIS2_PLACEMENT_3D('',#908,#909,#910);
#908 = CARTESIAN_POINT('',(-0.550000058649,0.199999941351,1.51));
#909 = DIRECTION('',(0.,0.,-1.));
#910 = DIRECTION('',(3.909953616065E-07,1.,0.));
#911 = ADVANCED_FACE('',(#912),#937,.T.);
#912 = FACE_BOUND('',#913,.T.);
#913 = EDGE_LOOP('',(#914,#915,#923,#931));
#914 = ORIENTED_EDGE('',*,*,#892,.T.);
#915 = ORIENTED_EDGE('',*,*,#916,.T.);
#916 = EDGE_CURVE('',#884,#917,#919,.T.);
#917 = VERTEX_POINT('',#918);
#918 = CARTESIAN_POINT('',(-0.4,-0.2,1.55));
#919 = LINE('',#920,#921);
#920 = CARTESIAN_POINT('',(-0.4,0.2,1.55));
#921 = VECTOR('',#922,1.);
#922 = DIRECTION('',(0.,-1.,0.));
#923 = ORIENTED_EDGE('',*,*,#924,.F.);
#924 = EDGE_CURVE('',#925,#917,#927,.T.);
#925 = VERTEX_POINT('',#926);
#926 = CARTESIAN_POINT('',(-0.4,-0.2,1.51));
#927 = LINE('',#928,#929);
#928 = CARTESIAN_POINT('',(-0.4,-0.2,1.51));
#929 = VECTOR('',#930,1.);
#930 = DIRECTION('',(0.,0.,1.));
#931 = ORIENTED_EDGE('',*,*,#932,.F.);
#932 = EDGE_CURVE('',#893,#925,#933,.T.);
#933 = LINE('',#934,#935);
#934 = CARTESIAN_POINT('',(-0.4,0.2,1.51));
#935 = VECTOR('',#936,1.);
#936 = DIRECTION('',(0.,-1.,0.));
#937 = PLANE('',#938);
#938 = AXIS2_PLACEMENT_3D('',#939,#940,#941);
#939 = CARTESIAN_POINT('',(-0.4,0.2,1.51));
#940 = DIRECTION('',(1.,0.,-0.));
#941 = DIRECTION('',(0.,-1.,0.));
#942 = ADVANCED_FACE('',(#943),#970,.T.);
#943 = FACE_BOUND('',#944,.T.);
#944 = EDGE_LOOP('',(#945,#946,#955,#963));
#945 = ORIENTED_EDGE('',*,*,#924,.T.);
#946 = ORIENTED_EDGE('',*,*,#947,.T.);
#947 = EDGE_CURVE('',#917,#948,#950,.T.);
#948 = VERTEX_POINT('',#949);
#949 = CARTESIAN_POINT('',(-0.55,-0.35,1.55));
#950 = CIRCLE('',#951,0.150000058649);
#951 = AXIS2_PLACEMENT_3D('',#952,#953,#954);
#952 = CARTESIAN_POINT('',(-0.550000058649,-0.199999941351,1.55));
#953 = DIRECTION('',(0.,0.,-1.));
#954 = DIRECTION('',(1.,-3.909953619765E-07,0.));
#955 = ORIENTED_EDGE('',*,*,#956,.F.);
#956 = EDGE_CURVE('',#957,#948,#959,.T.);
#957 = VERTEX_POINT('',#958);
#958 = CARTESIAN_POINT('',(-0.55,-0.35,1.51));
#959 = LINE('',#960,#961);
#960 = CARTESIAN_POINT('',(-0.55,-0.35,1.51));
#961 = VECTOR('',#962,1.);
#962 = DIRECTION('',(0.,0.,1.));
#963 = ORIENTED_EDGE('',*,*,#964,.F.);
#964 = EDGE_CURVE('',#925,#957,#965,.T.);
#965 = CIRCLE('',#966,0.150000058649);
#966 = AXIS2_PLACEMENT_3D('',#967,#968,#969);
#967 = CARTESIAN_POINT('',(-0.550000058649,-0.199999941351,1.51));
#968 = DIRECTION('',(0.,0.,-1.));
#969 = DIRECTION('',(1.,-3.909953619765E-07,0.));
#970 = CYLINDRICAL_SURFACE('',#971,0.150000058649);
#971 = AXIS2_PLACEMENT_3D('',#972,#973,#974);
#972 = CARTESIAN_POINT('',(-0.550000058649,-0.199999941351,1.51));
#973 = DIRECTION('',(0.,0.,-1.));
#974 = DIRECTION('',(1.,-3.909953619765E-07,0.));
#975 = ADVANCED_FACE('',(#976),#1001,.T.);
#976 = FACE_BOUND('',#977,.T.);
#977 = EDGE_LOOP('',(#978,#979,#987,#995));
#978 = ORIENTED_EDGE('',*,*,#956,.T.);
#979 = ORIENTED_EDGE('',*,*,#980,.T.);
#980 = EDGE_CURVE('',#948,#981,#983,.T.);
#981 = VERTEX_POINT('',#982);
#982 = CARTESIAN_POINT('',(-0.85,-0.35,1.55));
#983 = LINE('',#984,#985);
#984 = CARTESIAN_POINT('',(-0.55,-0.35,1.55));
#985 = VECTOR('',#986,1.);
#986 = DIRECTION('',(-1.,0.,0.));
#987 = ORIENTED_EDGE('',*,*,#988,.F.);
#988 = EDGE_CURVE('',#989,#981,#991,.T.);
#989 = VERTEX_POINT('',#990);
#990 = CARTESIAN_POINT('',(-0.85,-0.35,1.51));
#991 = LINE('',#992,#993);
#992 = CARTESIAN_POINT('',(-0.85,-0.35,1.51));
#993 = VECTOR('',#994,1.);
#994 = DIRECTION('',(0.,0.,1.));
#995 = ORIENTED_EDGE('',*,*,#996,.F.);
#996 = EDGE_CURVE('',#957,#989,#997,.T.);
#997 = LINE('',#998,#999);
#998 = CARTESIAN_POINT('',(-0.55,-0.35,1.51));
#999 = VECTOR('',#1000,1.);
#1000 = DIRECTION('',(-1.,0.,0.));
#1001 = PLANE('',#1002);
#1002 = AXIS2_PLACEMENT_3D('',#1003,#1004,#1005);
#1003 = CARTESIAN_POINT('',(-0.55,-0.35,1.51));
#1004 = DIRECTION('',(0.,-1.,0.));
#1005 = DIRECTION('',(-1.,0.,0.));
#1006 = ADVANCED_FACE('',(#1007),#1034,.T.);
#1007 = FACE_BOUND('',#1008,.T.);
#1008 = EDGE_LOOP('',(#1009,#1010,#1019,#1027));
#1009 = ORIENTED_EDGE('',*,*,#988,.T.);
#1010 = ORIENTED_EDGE('',*,*,#1011,.T.);
#1011 = EDGE_CURVE('',#981,#1012,#1014,.T.);
#1012 = VERTEX_POINT('',#1013);
#1013 = CARTESIAN_POINT('',(-1.,-0.2,1.55));
#1014 = CIRCLE('',#1015,0.150000058649);
#1015 = AXIS2_PLACEMENT_3D('',#1016,#1017,#1018);
#1016 = CARTESIAN_POINT('',(-0.849999941351,-0.199999941351,1.55));
#1017 = DIRECTION('',(0.,0.,-1.));
#1018 = DIRECTION('',(-3.909953623466E-07,-1.,-0.));
#1019 = ORIENTED_EDGE('',*,*,#1020,.F.);
#1020 = EDGE_CURVE('',#1021,#1012,#1023,.T.);
#1021 = VERTEX_POINT('',#1022);
#1022 = CARTESIAN_POINT('',(-1.,-0.2,1.51));
#1023 = LINE('',#1024,#1025);
#1024 = CARTESIAN_POINT('',(-1.,-0.2,1.51));
#1025 = VECTOR('',#1026,1.);
#1026 = DIRECTION('',(0.,0.,1.));
#1027 = ORIENTED_EDGE('',*,*,#1028,.F.);
#1028 = EDGE_CURVE('',#989,#1021,#1029,.T.);
#1029 = CIRCLE('',#1030,0.150000058649);
#1030 = AXIS2_PLACEMENT_3D('',#1031,#1032,#1033);
#1031 = CARTESIAN_POINT('',(-0.849999941351,-0.199999941351,1.51));
#1032 = DIRECTION('',(0.,0.,-1.));
#1033 = DIRECTION('',(-3.909953623466E-07,-1.,-0.));
#1034 = CYLINDRICAL_SURFACE('',#1035,0.150000058649);
#1035 = AXIS2_PLACEMENT_3D('',#1036,#1037,#1038);
#1036 = CARTESIAN_POINT('',(-0.849999941351,-0.199999941351,1.51));
#1037 = DIRECTION('',(0.,0.,-1.));
#1038 = DIRECTION('',(-3.909953623466E-07,-1.,-0.));
#1039 = ADVANCED_FACE('',(#1040),#1056,.T.);
#1040 = FACE_BOUND('',#1041,.T.);
#1041 = EDGE_LOOP('',(#1042,#1043,#1049,#1050));
#1042 = ORIENTED_EDGE('',*,*,#1020,.T.);
#1043 = ORIENTED_EDGE('',*,*,#1044,.T.);
#1044 = EDGE_CURVE('',#1012,#812,#1045,.T.);
#1045 = LINE('',#1046,#1047);
#1046 = CARTESIAN_POINT('',(-1.,-0.2,1.55));
#1047 = VECTOR('',#1048,1.);
#1048 = DIRECTION('',(0.,1.,0.));
#1049 = ORIENTED_EDGE('',*,*,#809,.F.);
#1050 = ORIENTED_EDGE('',*,*,#1051,.F.);
#1051 = EDGE_CURVE('',#1021,#810,#1052,.T.);
#1052 = LINE('',#1053,#1054);
#1053 = CARTESIAN_POINT('',(-1.,-0.2,1.51));
#1054 = VECTOR('',#1055,1.);
#1055 = DIRECTION('',(0.,1.,0.));
#1056 = PLANE('',#1057);
#1057 = AXIS2_PLACEMENT_3D('',#1058,#1059,#1060);
#1058 = CARTESIAN_POINT('',(-1.,-0.2,1.51));
#1059 = DIRECTION('',(-1.,0.,0.));
#1060 = DIRECTION('',(0.,1.,0.));
#1061 = ADVANCED_FACE('',(#1062),#1072,.F.);
#1062 = FACE_BOUND('',#1063,.T.);
#1063 = EDGE_LOOP('',(#1064,#1065,#1066,#1067,#1068,#1069,#1070,#1071));
#1064 = ORIENTED_EDGE('',*,*,#836,.T.);
#1065 = ORIENTED_EDGE('',*,*,#868,.T.);
#1066 = ORIENTED_EDGE('',*,*,#900,.T.);
#1067 = ORIENTED_EDGE('',*,*,#932,.T.);
#1068 = ORIENTED_EDGE('',*,*,#964,.T.);
#1069 = ORIENTED_EDGE('',*,*,#996,.T.);
#1070 = ORIENTED_EDGE('',*,*,#1028,.T.);
#1071 = ORIENTED_EDGE('',*,*,#1051,.T.);
#1072 = PLANE('',#1073);
#1073 = AXIS2_PLACEMENT_3D('',#1074,#1075,#1076);
#1074 = CARTESIAN_POINT('',(0.,0.,1.51));
#1075 = DIRECTION('',(0.,0.,1.));
#1076 = DIRECTION('',(1.,0.,-0.));
#1077 = ADVANCED_FACE('',(#1078),#1088,.T.);
#1078 = FACE_BOUND('',#1079,.F.);
#1079 = EDGE_LOOP('',(#1080,#1081,#1082,#1083,#1084,#1085,#1086,#1087));
#1080 = ORIENTED_EDGE('',*,*,#819,.T.);
#1081 = ORIENTED_EDGE('',*,*,#852,.T.);
#1082 = ORIENTED_EDGE('',*,*,#883,.T.);
#1083 = ORIENTED_EDGE('',*,*,#916,.T.);
#1084 = ORIENTED_EDGE('',*,*,#947,.T.);
#1085 = ORIENTED_EDGE('',*,*,#980,.T.);
#1086 = ORIENTED_EDGE('',*,*,#1011,.T.);
#1087 = ORIENTED_EDGE('',*,*,#1044,.T.);
#1088 = PLANE('',#1089);
#1089 = AXIS2_PLACEMENT_3D('',#1090,#1091,#1092);
#1090 = CARTESIAN_POINT('',(0.,0.,1.55));
#1091 = DIRECTION('',(0.,0.,1.));
#1092 = DIRECTION('',(1.,0.,-0.));
#1093 = MANIFOLD_SOLID_BREP('',#1094);
#1094 = CLOSED_SHELL('',(#1095,#1137,#1168,#1201,#1232,#1265,#1296,#1329
    ,#1351,#1367));
#1095 = ADVANCED_FACE('',(#1096),#1132,.T.);
#1096 = FACE_BOUND('',#1097,.T.);
#1097 = EDGE_LOOP('',(#1098,#1108,#1117,#1125));
#1098 = ORIENTED_EDGE('',*,*,#1099,.T.);
#1099 = EDGE_CURVE('',#1100,#1102,#1104,.T.);
#1100 = VERTEX_POINT('',#1101);
#1101 = CARTESIAN_POINT('',(0.4,0.2,1.51));
#1102 = VERTEX_POINT('',#1103);
#1103 = CARTESIAN_POINT('',(0.4,0.2,1.55));
#1104 = LINE('',#1105,#1106);
#1105 = CARTESIAN_POINT('',(0.4,0.2,1.51));
#1106 = VECTOR('',#1107,1.);
#1107 = DIRECTION('',(0.,0.,1.));
#1108 = ORIENTED_EDGE('',*,*,#1109,.T.);
#1109 = EDGE_CURVE('',#1102,#1110,#1112,.T.);
#1110 = VERTEX_POINT('',#1111);
#1111 = CARTESIAN_POINT('',(0.55,0.35,1.55));
#1112 = CIRCLE('',#1113,0.150000058649);
#1113 = AXIS2_PLACEMENT_3D('',#1114,#1115,#1116);
#1114 = CARTESIAN_POINT('',(0.550000058649,0.199999941351,1.55));
#1115 = DIRECTION('',(0.,0.,-1.));
#1116 = DIRECTION('',(-1.,3.909953619765E-07,0.));
#1117 = ORIENTED_EDGE('',*,*,#1118,.F.);
#1118 = EDGE_CURVE('',#1119,#1110,#1121,.T.);
#1119 = VERTEX_POINT('',#1120);
#1120 = CARTESIAN_POINT('',(0.55,0.35,1.51));
#1121 = LINE('',#1122,#1123);
#1122 = CARTESIAN_POINT('',(0.55,0.35,1.51));
#1123 = VECTOR('',#1124,1.);
#1124 = DIRECTION('',(0.,0.,1.));
#1125 = ORIENTED_EDGE('',*,*,#1126,.F.);
#1126 = EDGE_CURVE('',#1100,#1119,#1127,.T.);
#1127 = CIRCLE('',#1128,0.150000058649);
#1128 = AXIS2_PLACEMENT_3D('',#1129,#1130,#1131);
#1129 = CARTESIAN_POINT('',(0.550000058649,0.199999941351,1.51));
#1130 = DIRECTION('',(0.,0.,-1.));
#1131 = DIRECTION('',(-1.,3.909953619765E-07,0.));
#1132 = CYLINDRICAL_SURFACE('',#1133,0.150000058649);
#1133 = AXIS2_PLACEMENT_3D('',#1134,#1135,#1136);
#1134 = CARTESIAN_POINT('',(0.550000058649,0.199999941351,1.51));
#1135 = DIRECTION('',(0.,0.,-1.));
#1136 = DIRECTION('',(-1.,3.909953619765E-07,0.));
#1137 = ADVANCED_FACE('',(#1138),#1163,.T.);
#1138 = FACE_BOUND('',#1139,.T.);
#1139 = EDGE_LOOP('',(#1140,#1141,#1149,#1157));
#1140 = ORIENTED_EDGE('',*,*,#1118,.T.);
#1141 = ORIENTED_EDGE('',*,*,#1142,.T.);
#1142 = EDGE_CURVE('',#1110,#1143,#1145,.T.);
#1143 = VERTEX_POINT('',#1144);
#1144 = CARTESIAN_POINT('',(0.85,0.35,1.55));
#1145 = LINE('',#1146,#1147);
#1146 = CARTESIAN_POINT('',(0.55,0.35,1.55));
#1147 = VECTOR('',#1148,1.);
#1148 = DIRECTION('',(1.,0.,0.));
#1149 = ORIENTED_EDGE('',*,*,#1150,.F.);
#1150 = EDGE_CURVE('',#1151,#1143,#1153,.T.);
#1151 = VERTEX_POINT('',#1152);
#1152 = CARTESIAN_POINT('',(0.85,0.35,1.51));
#1153 = LINE('',#1154,#1155);
#1154 = CARTESIAN_POINT('',(0.85,0.35,1.51));
#1155 = VECTOR('',#1156,1.);
#1156 = DIRECTION('',(0.,0.,1.));
#1157 = ORIENTED_EDGE('',*,*,#1158,.F.);
#1158 = EDGE_CURVE('',#1119,#1151,#1159,.T.);
#1159 = LINE('',#1160,#1161);
#1160 = CARTESIAN_POINT('',(0.55,0.35,1.51));
#1161 = VECTOR('',#1162,1.);
#1162 = DIRECTION('',(1.,0.,0.));
#1163 = PLANE('',#1164);
#1164 = AXIS2_PLACEMENT_3D('',#1165,#1166,#1167);
#1165 = CARTESIAN_POINT('',(0.55,0.35,1.51));
#1166 = DIRECTION('',(0.,1.,0.));
#1167 = DIRECTION('',(1.,0.,0.));
#1168 = ADVANCED_FACE('',(#1169),#1196,.T.);
#1169 = FACE_BOUND('',#1170,.T.);
#1170 = EDGE_LOOP('',(#1171,#1172,#1181,#1189));
#1171 = ORIENTED_EDGE('',*,*,#1150,.T.);
#1172 = ORIENTED_EDGE('',*,*,#1173,.T.);
#1173 = EDGE_CURVE('',#1143,#1174,#1176,.T.);
#1174 = VERTEX_POINT('',#1175);
#1175 = CARTESIAN_POINT('',(1.,0.2,1.55));
#1176 = CIRCLE('',#1177,0.150000058649);
#1177 = AXIS2_PLACEMENT_3D('',#1178,#1179,#1180);
#1178 = CARTESIAN_POINT('',(0.849999941351,0.199999941351,1.55));
#1179 = DIRECTION('',(0.,0.,-1.));
#1180 = DIRECTION('',(3.909953623466E-07,1.,0.));
#1181 = ORIENTED_EDGE('',*,*,#1182,.F.);
#1182 = EDGE_CURVE('',#1183,#1174,#1185,.T.);
#1183 = VERTEX_POINT('',#1184);
#1184 = CARTESIAN_POINT('',(1.,0.2,1.51));
#1185 = LINE('',#1186,#1187);
#1186 = CARTESIAN_POINT('',(1.,0.2,1.51));
#1187 = VECTOR('',#1188,1.);
#1188 = DIRECTION('',(0.,0.,1.));
#1189 = ORIENTED_EDGE('',*,*,#1190,.F.);
#1190 = EDGE_CURVE('',#1151,#1183,#1191,.T.);
#1191 = CIRCLE('',#1192,0.150000058649);
#1192 = AXIS2_PLACEMENT_3D('',#1193,#1194,#1195);
#1193 = CARTESIAN_POINT('',(0.849999941351,0.199999941351,1.51));
#1194 = DIRECTION('',(0.,0.,-1.));
#1195 = DIRECTION('',(3.909953623466E-07,1.,0.));
#1196 = CYLINDRICAL_SURFACE('',#1197,0.150000058649);
#1197 = AXIS2_PLACEMENT_3D('',#1198,#1199,#1200);
#1198 = CARTESIAN_POINT('',(0.849999941351,0.199999941351,1.51));
#1199 = DIRECTION('',(0.,0.,-1.));
#1200 = DIRECTION('',(3.909953623466E-07,1.,0.));
#1201 = ADVANCED_FACE('',(#1202),#1227,.T.);
#1202 = FACE_BOUND('',#1203,.T.);
#1203 = EDGE_LOOP('',(#1204,#1205,#1213,#1221));
#1204 = ORIENTED_EDGE('',*,*,#1182,.T.);
#1205 = ORIENTED_EDGE('',*,*,#1206,.T.);
#1206 = EDGE_CURVE('',#1174,#1207,#1209,.T.);
#1207 = VERTEX_POINT('',#1208);
#1208 = CARTESIAN_POINT('',(1.,-0.2,1.55));
#1209 = LINE('',#1210,#1211);
#1210 = CARTESIAN_POINT('',(1.,0.2,1.55));
#1211 = VECTOR('',#1212,1.);
#1212 = DIRECTION('',(0.,-1.,0.));
#1213 = ORIENTED_EDGE('',*,*,#1214,.F.);
#1214 = EDGE_CURVE('',#1215,#1207,#1217,.T.);
#1215 = VERTEX_POINT('',#1216);
#1216 = CARTESIAN_POINT('',(1.,-0.2,1.51));
#1217 = LINE('',#1218,#1219);
#1218 = CARTESIAN_POINT('',(1.,-0.2,1.51));
#1219 = VECTOR('',#1220,1.);
#1220 = DIRECTION('',(0.,0.,1.));
#1221 = ORIENTED_EDGE('',*,*,#1222,.F.);
#1222 = EDGE_CURVE('',#1183,#1215,#1223,.T.);
#1223 = LINE('',#1224,#1225);
#1224 = CARTESIAN_POINT('',(1.,0.2,1.51));
#1225 = VECTOR('',#1226,1.);
#1226 = DIRECTION('',(0.,-1.,0.));
#1227 = PLANE('',#1228);
#1228 = AXIS2_PLACEMENT_3D('',#1229,#1230,#1231);
#1229 = CARTESIAN_POINT('',(1.,0.2,1.51));
#1230 = DIRECTION('',(1.,0.,-0.));
#1231 = DIRECTION('',(0.,-1.,0.));
#1232 = ADVANCED_FACE('',(#1233),#1260,.T.);
#1233 = FACE_BOUND('',#1234,.T.);
#1234 = EDGE_LOOP('',(#1235,#1236,#1245,#1253));
#1235 = ORIENTED_EDGE('',*,*,#1214,.T.);
#1236 = ORIENTED_EDGE('',*,*,#1237,.T.);
#1237 = EDGE_CURVE('',#1207,#1238,#1240,.T.);
#1238 = VERTEX_POINT('',#1239);
#1239 = CARTESIAN_POINT('',(0.85,-0.35,1.55));
#1240 = CIRCLE('',#1241,0.150000058649);
#1241 = AXIS2_PLACEMENT_3D('',#1242,#1243,#1244);
#1242 = CARTESIAN_POINT('',(0.849999941351,-0.199999941351,1.55));
#1243 = DIRECTION('',(0.,0.,-1.));
#1244 = DIRECTION('',(1.,-3.909953623466E-07,0.));
#1245 = ORIENTED_EDGE('',*,*,#1246,.F.);
#1246 = EDGE_CURVE('',#1247,#1238,#1249,.T.);
#1247 = VERTEX_POINT('',#1248);
#1248 = CARTESIAN_POINT('',(0.85,-0.35,1.51));
#1249 = LINE('',#1250,#1251);
#1250 = CARTESIAN_POINT('',(0.85,-0.35,1.51));
#1251 = VECTOR('',#1252,1.);
#1252 = DIRECTION('',(0.,0.,1.));
#1253 = ORIENTED_EDGE('',*,*,#1254,.F.);
#1254 = EDGE_CURVE('',#1215,#1247,#1255,.T.);
#1255 = CIRCLE('',#1256,0.150000058649);
#1256 = AXIS2_PLACEMENT_3D('',#1257,#1258,#1259);
#1257 = CARTESIAN_POINT('',(0.849999941351,-0.199999941351,1.51));
#1258 = DIRECTION('',(0.,0.,-1.));
#1259 = DIRECTION('',(1.,-3.909953623466E-07,0.));
#1260 = CYLINDRICAL_SURFACE('',#1261,0.150000058649);
#1261 = AXIS2_PLACEMENT_3D('',#1262,#1263,#1264);
#1262 = CARTESIAN_POINT('',(0.849999941351,-0.199999941351,1.51));
#1263 = DIRECTION('',(0.,0.,-1.));
#1264 = DIRECTION('',(1.,-3.909953623466E-07,0.));
#1265 = ADVANCED_FACE('',(#1266),#1291,.T.);
#1266 = FACE_BOUND('',#1267,.T.);
#1267 = EDGE_LOOP('',(#1268,#1269,#1277,#1285));
#1268 = ORIENTED_EDGE('',*,*,#1246,.T.);
#1269 = ORIENTED_EDGE('',*,*,#1270,.T.);
#1270 = EDGE_CURVE('',#1238,#1271,#1273,.T.);
#1271 = VERTEX_POINT('',#1272);
#1272 = CARTESIAN_POINT('',(0.55,-0.35,1.55));
#1273 = LINE('',#1274,#1275);
#1274 = CARTESIAN_POINT('',(0.85,-0.35,1.55));
#1275 = VECTOR('',#1276,1.);
#1276 = DIRECTION('',(-1.,0.,0.));
#1277 = ORIENTED_EDGE('',*,*,#1278,.F.);
#1278 = EDGE_CURVE('',#1279,#1271,#1281,.T.);
#1279 = VERTEX_POINT('',#1280);
#1280 = CARTESIAN_POINT('',(0.55,-0.35,1.51));
#1281 = LINE('',#1282,#1283);
#1282 = CARTESIAN_POINT('',(0.55,-0.35,1.51));
#1283 = VECTOR('',#1284,1.);
#1284 = DIRECTION('',(0.,0.,1.));
#1285 = ORIENTED_EDGE('',*,*,#1286,.F.);
#1286 = EDGE_CURVE('',#1247,#1279,#1287,.T.);
#1287 = LINE('',#1288,#1289);
#1288 = CARTESIAN_POINT('',(0.85,-0.35,1.51));
#1289 = VECTOR('',#1290,1.);
#1290 = DIRECTION('',(-1.,0.,0.));
#1291 = PLANE('',#1292);
#1292 = AXIS2_PLACEMENT_3D('',#1293,#1294,#1295);
#1293 = CARTESIAN_POINT('',(0.85,-0.35,1.51));
#1294 = DIRECTION('',(0.,-1.,0.));
#1295 = DIRECTION('',(-1.,0.,0.));
#1296 = ADVANCED_FACE('',(#1297),#1324,.T.);
#1297 = FACE_BOUND('',#1298,.T.);
#1298 = EDGE_LOOP('',(#1299,#1300,#1309,#1317));
#1299 = ORIENTED_EDGE('',*,*,#1278,.T.);
#1300 = ORIENTED_EDGE('',*,*,#1301,.T.);
#1301 = EDGE_CURVE('',#1271,#1302,#1304,.T.);
#1302 = VERTEX_POINT('',#1303);
#1303 = CARTESIAN_POINT('',(0.4,-0.2,1.55));
#1304 = CIRCLE('',#1305,0.150000058649);
#1305 = AXIS2_PLACEMENT_3D('',#1306,#1307,#1308);
#1306 = CARTESIAN_POINT('',(0.550000058649,-0.199999941351,1.55));
#1307 = DIRECTION('',(0.,0.,-1.));
#1308 = DIRECTION('',(-3.909953616065E-07,-1.,-0.));
#1309 = ORIENTED_EDGE('',*,*,#1310,.F.);
#1310 = EDGE_CURVE('',#1311,#1302,#1313,.T.);
#1311 = VERTEX_POINT('',#1312);
#1312 = CARTESIAN_POINT('',(0.4,-0.2,1.51));
#1313 = LINE('',#1314,#1315);
#1314 = CARTESIAN_POINT('',(0.4,-0.2,1.51));
#1315 = VECTOR('',#1316,1.);
#1316 = DIRECTION('',(0.,0.,1.));
#1317 = ORIENTED_EDGE('',*,*,#1318,.F.);
#1318 = EDGE_CURVE('',#1279,#1311,#1319,.T.);
#1319 = CIRCLE('',#1320,0.150000058649);
#1320 = AXIS2_PLACEMENT_3D('',#1321,#1322,#1323);
#1321 = CARTESIAN_POINT('',(0.550000058649,-0.199999941351,1.51));
#1322 = DIRECTION('',(0.,0.,-1.));
#1323 = DIRECTION('',(-3.909953616065E-07,-1.,-0.));
#1324 = CYLINDRICAL_SURFACE('',#1325,0.150000058649);
#1325 = AXIS2_PLACEMENT_3D('',#1326,#1327,#1328);
#1326 = CARTESIAN_POINT('',(0.550000058649,-0.199999941351,1.51));
#1327 = DIRECTION('',(0.,0.,-1.));
#1328 = DIRECTION('',(-3.909953616065E-07,-1.,-0.));
#1329 = ADVANCED_FACE('',(#1330),#1346,.T.);
#1330 = FACE_BOUND('',#1331,.T.);
#1331 = EDGE_LOOP('',(#1332,#1333,#1339,#1340));
#1332 = ORIENTED_EDGE('',*,*,#1310,.T.);
#1333 = ORIENTED_EDGE('',*,*,#1334,.T.);
#1334 = EDGE_CURVE('',#1302,#1102,#1335,.T.);
#1335 = LINE('',#1336,#1337);
#1336 = CARTESIAN_POINT('',(0.4,-0.2,1.55));
#1337 = VECTOR('',#1338,1.);
#1338 = DIRECTION('',(0.,1.,0.));
#1339 = ORIENTED_EDGE('',*,*,#1099,.F.);
#1340 = ORIENTED_EDGE('',*,*,#1341,.F.);
#1341 = EDGE_CURVE('',#1311,#1100,#1342,.T.);
#1342 = LINE('',#1343,#1344);
#1343 = CARTESIAN_POINT('',(0.4,-0.2,1.51));
#1344 = VECTOR('',#1345,1.);
#1345 = DIRECTION('',(0.,1.,0.));
#1346 = PLANE('',#1347);
#1347 = AXIS2_PLACEMENT_3D('',#1348,#1349,#1350);
#1348 = CARTESIAN_POINT('',(0.4,-0.2,1.51));
#1349 = DIRECTION('',(-1.,0.,0.));
#1350 = DIRECTION('',(0.,1.,0.));
#1351 = ADVANCED_FACE('',(#1352),#1362,.F.);
#1352 = FACE_BOUND('',#1353,.T.);
#1353 = EDGE_LOOP('',(#1354,#1355,#1356,#1357,#1358,#1359,#1360,#1361));
#1354 = ORIENTED_EDGE('',*,*,#1126,.T.);
#1355 = ORIENTED_EDGE('',*,*,#1158,.T.);
#1356 = ORIENTED_EDGE('',*,*,#1190,.T.);
#1357 = ORIENTED_EDGE('',*,*,#1222,.T.);
#1358 = ORIENTED_EDGE('',*,*,#1254,.T.);
#1359 = ORIENTED_EDGE('',*,*,#1286,.T.);
#1360 = ORIENTED_EDGE('',*,*,#1318,.T.);
#1361 = ORIENTED_EDGE('',*,*,#1341,.T.);
#1362 = PLANE('',#1363);
#1363 = AXIS2_PLACEMENT_3D('',#1364,#1365,#1366);
#1364 = CARTESIAN_POINT('',(0.,0.,1.51));
#1365 = DIRECTION('',(0.,0.,1.));
#1366 = DIRECTION('',(1.,0.,-0.));
#1367 = ADVANCED_FACE('',(#1368),#1378,.T.);
#1368 = FACE_BOUND('',#1369,.F.);
#1369 = EDGE_LOOP('',(#1370,#1371,#1372,#1373,#1374,#1375,#1376,#1377));
#1370 = ORIENTED_EDGE('',*,*,#1109,.T.);
#1371 = ORIENTED_EDGE('',*,*,#1142,.T.);
#1372 = ORIENTED_EDGE('',*,*,#1173,.T.);
#1373 = ORIENTED_EDGE('',*,*,#1206,.T.);
#1374 = ORIENTED_EDGE('',*,*,#1237,.T.);
#1375 = ORIENTED_EDGE('',*,*,#1270,.T.);
#1376 = ORIENTED_EDGE('',*,*,#1301,.T.);
#1377 = ORIENTED_EDGE('',*,*,#1334,.T.);
#1378 = PLANE('',#1379);
#1379 = AXIS2_PLACEMENT_3D('',#1380,#1381,#1382);
#1380 = CARTESIAN_POINT('',(0.,0.,1.55));
#1381 = DIRECTION('',(0.,0.,1.));
#1382 = DIRECTION('',(1.,0.,-0.));
#1383 = ( GEOMETRIC_REPRESENTATION_CONTEXT(3) 
GLOBAL_UNCERTAINTY_ASSIGNED_CONTEXT((#1387)) 
GLOBAL_UNIT_ASSIGNED_CONTEXT((#1384,#1385,#1386)) REPRESENTATION_CONTEXT
('Context #1','3D Context with UNIT and UNCERTAINTY') );
#1384 = ( LENGTH_UNIT() NAMED_UNIT(*) SI_UNIT(.MILLI.,.METRE.) );
#1385 = ( NAMED_UNIT(*) PLANE_ANGLE_UNIT() SI_UNIT($,.RADIAN.) );
#1386 = ( NAMED_UNIT(*) SI_UNIT($,.STERADIAN.) SOLID_ANGLE_UNIT() );
#1387 = UNCERTAINTY_MEASURE_WITH_UNIT(LENGTH_MEASURE(1.E-07),#1384,
  'distance_accuracy_value','confusion accuracy');
#1388 = CONTEXT_DEPENDENT_SHAPE_REPRESENTATION(#1389,#1391);
#1389 = ( REPRESENTATION_RELATIONSHIP('','',#802,#10) 
REPRESENTATION_RELATIONSHIP_WITH_TRANSFORMATION(#1390) 
SHAPE_REPRESENTATION_RELATIONSHIP() );
#1390 = ITEM_DEFINED_TRANSFORMATION('','',#11,#19);
#1391 = PRODUCT_DEFINITION_SHAPE('Placement','Placement of an item',
  #1392);
#1392 = NEXT_ASSEMBLY_USAGE_OCCURRENCE('3','=>[0:1:1:4]','',#5,#797,$);
#1393 = PRODUCT_RELATED_PRODUCT_CATEGORY('part',$,(#799));
#1394 = SHAPE_DEFINITION_REPRESENTATION(#1395,#1401);
#1395 = PRODUCT_DEFINITION_SHAPE('','',#1396);
#1396 = PRODUCT_DEFINITION('design','',#1397,#1400);
#1397 = PRODUCT_DEFINITION_FORMATION('','',#1398);
#1398 = PRODUCT('electronic_diode_schottky_sod_523_1ss400_render_PCB',
  'electronic_diode_schottky_sod_523_1ss400_render_PCB','',(#1399));
#1399 = PRODUCT_CONTEXT('',#2,'mechanical');
#1400 = PRODUCT_DEFINITION_CONTEXT('part definition',#2,'design');
#1401 = ADVANCED_BREP_SHAPE_REPRESENTATION('',(#11,#1402),#1552);
#1402 = MANIFOLD_SOLID_BREP('',#1403);
#1403 = CLOSED_SHELL('',(#1404,#1444,#1475,#1506,#1528,#1540));
#1404 = ADVANCED_FACE('',(#1405),#1439,.T.);
#1405 = FACE_BOUND('',#1406,.T.);
#1406 = EDGE_LOOP('',(#1407,#1417,#1425,#1433));
#1407 = ORIENTED_EDGE('',*,*,#1408,.T.);
#1408 = EDGE_CURVE('',#1409,#1411,#1413,.T.);
#1409 = VERTEX_POINT('',#1410);
#1410 = CARTESIAN_POINT('',(3.25,-2.7,0.));
#1411 = VERTEX_POINT('',#1412);
#1412 = CARTESIAN_POINT('',(3.25,-2.7,1.51));
#1413 = LINE('',#1414,#1415);
#1414 = CARTESIAN_POINT('',(3.25,-2.7,0.));
#1415 = VECTOR('',#1416,1.);
#1416 = DIRECTION('',(0.,0.,1.));
#1417 = ORIENTED_EDGE('',*,*,#1418,.T.);
#1418 = EDGE_CURVE('',#1411,#1419,#1421,.T.);
#1419 = VERTEX_POINT('',#1420);
#1420 = CARTESIAN_POINT('',(-3.25,-2.7,1.51));
#1421 = LINE('',#1422,#1423);
#1422 = CARTESIAN_POINT('',(3.25,-2.7,1.51));
#1423 = VECTOR('',#1424,1.);
#1424 = DIRECTION('',(-1.,0.,0.));
#1425 = ORIENTED_EDGE('',*,*,#1426,.F.);
#1426 = EDGE_CURVE('',#1427,#1419,#1429,.T.);
#1427 = VERTEX_POINT('',#1428);
#1428 = CARTESIAN_POINT('',(-3.25,-2.7,0.));
#1429 = LINE('',#1430,#1431);
#1430 = CARTESIAN_POINT('',(-3.25,-2.7,0.));
#1431 = VECTOR('',#1432,1.);
#1432 = DIRECTION('',(0.,0.,1.));
#1433 = ORIENTED_EDGE('',*,*,#1434,.F.);
#1434 = EDGE_CURVE('',#1409,#1427,#1435,.T.);
#1435 = LINE('',#1436,#1437);
#1436 = CARTESIAN_POINT('',(3.25,-2.7,0.));
#1437 = VECTOR('',#1438,1.);
#1438 = DIRECTION('',(-1.,0.,0.));
#1439 = PLANE('',#1440);
#1440 = AXIS2_PLACEMENT_3D('',#1441,#1442,#1443);
#1441 = CARTESIAN_POINT('',(3.25,-2.7,0.));
#1442 = DIRECTION('',(0.,-1.,0.));
#1443 = DIRECTION('',(-1.,0.,0.));
#1444 = ADVANCED_FACE('',(#1445),#1470,.T.);
#1445 = FACE_BOUND('',#1446,.T.);
#1446 = EDGE_LOOP('',(#1447,#1448,#1456,#1464));
#1447 = ORIENTED_EDGE('',*,*,#1426,.T.);
#1448 = ORIENTED_EDGE('',*,*,#1449,.T.);
#1449 = EDGE_CURVE('',#1419,#1450,#1452,.T.);
#1450 = VERTEX_POINT('',#1451);
#1451 = CARTESIAN_POINT('',(-3.25,2.7,1.51));
#1452 = LINE('',#1453,#1454);
#1453 = CARTESIAN_POINT('',(-3.25,-2.7,1.51));
#1454 = VECTOR('',#1455,1.);
#1455 = DIRECTION('',(0.,1.,0.));
#1456 = ORIENTED_EDGE('',*,*,#1457,.F.);
#1457 = EDGE_CURVE('',#1458,#1450,#1460,.T.);
#1458 = VERTEX_POINT('',#1459);
#1459 = CARTESIAN_POINT('',(-3.25,2.7,0.));
#1460 = LINE('',#1461,#1462);
#1461 = CARTESIAN_POINT('',(-3.25,2.7,0.));
#1462 = VECTOR('',#1463,1.);
#1463 = DIRECTION('',(0.,0.,1.));
#1464 = ORIENTED_EDGE('',*,*,#1465,.F.);
#1465 = EDGE_CURVE('',#1427,#1458,#1466,.T.);
#1466 = LINE('',#1467,#1468);
#1467 = CARTESIAN_POINT('',(-3.25,-2.7,0.));
#1468 = VECTOR('',#1469,1.);
#1469 = DIRECTION('',(0.,1.,0.));
#1470 = PLANE('',#1471);
#1471 = AXIS2_PLACEMENT_3D('',#1472,#1473,#1474);
#1472 = CARTESIAN_POINT('',(-3.25,-2.7,0.));
#1473 = DIRECTION('',(-1.,0.,0.));
#1474 = DIRECTION('',(0.,1.,0.));
#1475 = ADVANCED_FACE('',(#1476),#1501,.T.);
#1476 = FACE_BOUND('',#1477,.T.);
#1477 = EDGE_LOOP('',(#1478,#1479,#1487,#1495));
#1478 = ORIENTED_EDGE('',*,*,#1457,.T.);
#1479 = ORIENTED_EDGE('',*,*,#1480,.T.);
#1480 = EDGE_CURVE('',#1450,#1481,#1483,.T.);
#1481 = VERTEX_POINT('',#1482);
#1482 = CARTESIAN_POINT('',(3.25,2.7,1.51));
#1483 = LINE('',#1484,#1485);
#1484 = CARTESIAN_POINT('',(-3.25,2.7,1.51));
#1485 = VECTOR('',#1486,1.);
#1486 = DIRECTION('',(1.,0.,0.));
#1487 = ORIENTED_EDGE('',*,*,#1488,.F.);
#1488 = EDGE_CURVE('',#1489,#1481,#1491,.T.);
#1489 = VERTEX_POINT('',#1490);
#1490 = CARTESIAN_POINT('',(3.25,2.7,0.));
#1491 = LINE('',#1492,#1493);
#1492 = CARTESIAN_POINT('',(3.25,2.7,0.));
#1493 = VECTOR('',#1494,1.);
#1494 = DIRECTION('',(0.,0.,1.));
#1495 = ORIENTED_EDGE('',*,*,#1496,.F.);
#1496 = EDGE_CURVE('',#1458,#1489,#1497,.T.);
#1497 = LINE('',#1498,#1499);
#1498 = CARTESIAN_POINT('',(-3.25,2.7,0.));
#1499 = VECTOR('',#1500,1.);
#1500 = DIRECTION('',(1.,0.,0.));
#1501 = PLANE('',#1502);
#1502 = AXIS2_PLACEMENT_3D('',#1503,#1504,#1505);
#1503 = CARTESIAN_POINT('',(-3.25,2.7,0.));
#1504 = DIRECTION('',(0.,1.,0.));
#1505 = DIRECTION('',(1.,0.,0.));
#1506 = ADVANCED_FACE('',(#1507),#1523,.T.);
#1507 = FACE_BOUND('',#1508,.T.);
#1508 = EDGE_LOOP('',(#1509,#1510,#1516,#1517));
#1509 = ORIENTED_EDGE('',*,*,#1488,.T.);
#1510 = ORIENTED_EDGE('',*,*,#1511,.T.);
#1511 = EDGE_CURVE('',#1481,#1411,#1512,.T.);
#1512 = LINE('',#1513,#1514);
#1513 = CARTESIAN_POINT('',(3.25,2.7,1.51));
#1514 = VECTOR('',#1515,1.);
#1515 = DIRECTION('',(0.,-1.,0.));
#1516 = ORIENTED_EDGE('',*,*,#1408,.F.);
#1517 = ORIENTED_EDGE('',*,*,#1518,.F.);
#1518 = EDGE_CURVE('',#1489,#1409,#1519,.T.);
#1519 = LINE('',#1520,#1521);
#1520 = CARTESIAN_POINT('',(3.25,2.7,0.));
#1521 = VECTOR('',#1522,1.);
#1522 = DIRECTION('',(0.,-1.,0.));
#1523 = PLANE('',#1524);
#1524 = AXIS2_PLACEMENT_3D('',#1525,#1526,#1527);
#1525 = CARTESIAN_POINT('',(3.25,2.7,0.));
#1526 = DIRECTION('',(1.,0.,-0.));
#1527 = DIRECTION('',(0.,-1.,0.));
#1528 = ADVANCED_FACE('',(#1529),#1535,.F.);
#1529 = FACE_BOUND('',#1530,.T.);
#1530 = EDGE_LOOP('',(#1531,#1532,#1533,#1534));
#1531 = ORIENTED_EDGE('',*,*,#1434,.T.);
#1532 = ORIENTED_EDGE('',*,*,#1465,.T.);
#1533 = ORIENTED_EDGE('',*,*,#1496,.T.);
#1534 = ORIENTED_EDGE('',*,*,#1518,.T.);
#1535 = PLANE('',#1536);
#1536 = AXIS2_PLACEMENT_3D('',#1537,#1538,#1539);
#1537 = CARTESIAN_POINT('',(0.,0.,0.));
#1538 = DIRECTION('',(0.,0.,1.));
#1539 = DIRECTION('',(1.,0.,-0.));
#1540 = ADVANCED_FACE('',(#1541),#1547,.T.);
#1541 = FACE_BOUND('',#1542,.F.);
#1542 = EDGE_LOOP('',(#1543,#1544,#1545,#1546));
#1543 = ORIENTED_EDGE('',*,*,#1418,.T.);
#1544 = ORIENTED_EDGE('',*,*,#1449,.T.);
#1545 = ORIENTED_EDGE('',*,*,#1480,.T.);
#1546 = ORIENTED_EDGE('',*,*,#1511,.T.);
#1547 = PLANE('',#1548);
#1548 = AXIS2_PLACEMENT_3D('',#1549,#1550,#1551);
#1549 = CARTESIAN_POINT('',(0.,0.,1.51));
#1550 = DIRECTION('',(0.,0.,1.));
#1551 = DIRECTION('',(1.,0.,-0.));
#1552 = ( GEOMETRIC_REPRESENTATION_CONTEXT(3) 
GLOBAL_UNCERTAINTY_ASSIGNED_CONTEXT((#1556)) 
GLOBAL_UNIT_ASSIGNED_CONTEXT((#1553,#1554,#1555)) REPRESENTATION_CONTEXT
('Context #1','3D Context with UNIT and UNCERTAINTY') );
#1553 = ( LENGTH_UNIT() NAMED_UNIT(*) SI_UNIT(.MILLI.,.METRE.) );
#1554 = ( NAMED_UNIT(*) PLANE_ANGLE_UNIT() SI_UNIT($,.RADIAN.) );
#1555 = ( NAMED_UNIT(*) SI_UNIT($,.STERADIAN.) SOLID_ANGLE_UNIT() );
#1556 = UNCERTAINTY_MEASURE_WITH_UNIT(LENGTH_MEASURE(1.E-07),#1553,
  'distance_accuracy_value','confusion accuracy');
#1557 = CONTEXT_DEPENDENT_SHAPE_REPRESENTATION(#1558,#1560);
#1558 = ( REPRESENTATION_RELATIONSHIP('','',#1401,#10) 
REPRESENTATION_RELATIONSHIP_WITH_TRANSFORMATION(#1559) 
SHAPE_REPRESENTATION_RELATIONSHIP() );
#1559 = ITEM_DEFINED_TRANSFORMATION('','',#11,#23);
#1560 = PRODUCT_DEFINITION_SHAPE('Placement','Placement of an item',
  #1561);
#1561 = NEXT_ASSEMBLY_USAGE_OCCURRENCE('4','=>[0:1:1:5]','',#5,#1396,$);
#1562 = PRODUCT_RELATED_PRODUCT_CATEGORY('part',$,(#1398));
#1563 = MECHANICAL_DESIGN_GEOMETRIC_PRESENTATION_REPRESENTATION('',(
    #1564,#1572),#1383);
#1564 = STYLED_ITEM('color',(#1565),#803);
#1565 = PRESENTATION_STYLE_ASSIGNMENT((#1566));
#1566 = SURFACE_STYLE_USAGE(.BOTH.,#1567);
#1567 = SURFACE_SIDE_STYLE('',(#1568));
#1568 = SURFACE_STYLE_FILL_AREA(#1569);
#1569 = FILL_AREA_STYLE('',(#1570));
#1570 = FILL_AREA_STYLE_COLOUR('',#1571);
#1571 = COLOUR_RGB('',0.735356983052,0.735356983052,0.735356983052);
#1572 = STYLED_ITEM('color',(#1573),#1093);
#1573 = PRESENTATION_STYLE_ASSIGNMENT((#1574));
#1574 = SURFACE_STYLE_USAGE(.BOTH.,#1575);
#1575 = SURFACE_SIDE_STYLE('',(#1576));
#1576 = SURFACE_STYLE_FILL_AREA(#1577);
#1577 = FILL_AREA_STYLE('',(#1578));
#1578 = FILL_AREA_STYLE_COLOUR('',#1571);
#1579 = MECHANICAL_DESIGN_GEOMETRIC_PRESENTATION_REPRESENTATION('',(
    #1580),#1552);
#1580 = STYLED_ITEM('color',(#1581),#1402);
#1581 = PRESENTATION_STYLE_ASSIGNMENT((#1582));
#1582 = SURFACE_STYLE_USAGE(.BOTH.,#1583);
#1583 = SURFACE_SIDE_STYLE('',(#1584));
#1584 = SURFACE_STYLE_FILL_AREA(#1585);
#1585 = FILL_AREA_STYLE('',(#1586));
#1586 = FILL_AREA_STYLE_COLOUR('',#1587);
#1587 = COLOUR_RGB('',0.313304153717,0.484529207832,0.410020903123);
#1588 = MECHANICAL_DESIGN_GEOMETRIC_PRESENTATION_REPRESENTATION('',(
    #1589,#1597,#1604,#1611,#1618,#1625,#1633,#1640,#1647,#1654,#1661,
    #1668,#1675,#1682,#1689,#1696,#1703,#1710,#1717,#1725,#1732,#1739,
    #1746,#1753,#1760,#1767,#1774),#784);
#1589 = STYLED_ITEM('color',(#1590),#66);
#1590 = PRESENTATION_STYLE_ASSIGNMENT((#1591));
#1591 = SURFACE_STYLE_USAGE(.BOTH.,#1592);
#1592 = SURFACE_SIDE_STYLE('',(#1593));
#1593 = SURFACE_STYLE_FILL_AREA(#1594);
#1594 = FILL_AREA_STYLE('',(#1595));
#1595 = FILL_AREA_STYLE_COLOUR('',#1596);
#1596 = COLOUR_RGB('',0.823999987314,0.819999987296,0.781000009244);
#1597 = STYLED_ITEM('color',(#1598),#106);
#1598 = PRESENTATION_STYLE_ASSIGNMENT((#1599));
#1599 = SURFACE_STYLE_USAGE(.BOTH.,#1600);
#1600 = SURFACE_SIDE_STYLE('',(#1601));
#1601 = SURFACE_STYLE_FILL_AREA(#1602);
#1602 = FILL_AREA_STYLE('',(#1603));
#1603 = FILL_AREA_STYLE_COLOUR('',#1596);
#1604 = STYLED_ITEM('color',(#1605),#141);
#1605 = PRESENTATION_STYLE_ASSIGNMENT((#1606));
#1606 = SURFACE_STYLE_USAGE(.BOTH.,#1607);
#1607 = SURFACE_SIDE_STYLE('',(#1608));
#1608 = SURFACE_STYLE_FILL_AREA(#1609);
#1609 = FILL_AREA_STYLE('',(#1610));
#1610 = FILL_AREA_STYLE_COLOUR('',#1596);
#1611 = STYLED_ITEM('color',(#1612),#165);
#1612 = PRESENTATION_STYLE_ASSIGNMENT((#1613));
#1613 = SURFACE_STYLE_USAGE(.BOTH.,#1614);
#1614 = SURFACE_SIDE_STYLE('',(#1615));
#1615 = SURFACE_STYLE_FILL_AREA(#1616);
#1616 = FILL_AREA_STYLE('',(#1617));
#1617 = FILL_AREA_STYLE_COLOUR('',#1596);
#1618 = STYLED_ITEM('color',(#1619),#193);
#1619 = PRESENTATION_STYLE_ASSIGNMENT((#1620));
#1620 = SURFACE_STYLE_USAGE(.BOTH.,#1621);
#1621 = SURFACE_SIDE_STYLE('',(#1622));
#1622 = SURFACE_STYLE_FILL_AREA(#1623);
#1623 = FILL_AREA_STYLE('',(#1624));
#1624 = FILL_AREA_STYLE_COLOUR('',#1596);
#1625 = STYLED_ITEM('color',(#1626),#210);
#1626 = PRESENTATION_STYLE_ASSIGNMENT((#1627));
#1627 = SURFACE_STYLE_USAGE(.BOTH.,#1628);
#1628 = SURFACE_SIDE_STYLE('',(#1629));
#1629 = SURFACE_STYLE_FILL_AREA(#1630);
#1630 = FILL_AREA_STYLE('',(#1631));
#1631 = FILL_AREA_STYLE_COLOUR('',#1632);
#1632 = COLOUR_RGB('',0.147999998088,0.144999993226,0.144999993226);
#1633 = STYLED_ITEM('color',(#1634),#240);
#1634 = PRESENTATION_STYLE_ASSIGNMENT((#1635));
#1635 = SURFACE_STYLE_USAGE(.BOTH.,#1636);
#1636 = SURFACE_SIDE_STYLE('',(#1637));
#1637 = SURFACE_STYLE_FILL_AREA(#1638);
#1638 = FILL_AREA_STYLE('',(#1639));
#1639 = FILL_AREA_STYLE_COLOUR('',#1632);
#1640 = STYLED_ITEM('color',(#1641),#278);
#1641 = PRESENTATION_STYLE_ASSIGNMENT((#1642));
#1642 = SURFACE_STYLE_USAGE(.BOTH.,#1643);
#1643 = SURFACE_SIDE_STYLE('',(#1644));
#1644 = SURFACE_STYLE_FILL_AREA(#1645);
#1645 = FILL_AREA_STYLE('',(#1646));
#1646 = FILL_AREA_STYLE_COLOUR('',#1632);
#1647 = STYLED_ITEM('color',(#1648),#301);
#1648 = PRESENTATION_STYLE_ASSIGNMENT((#1649));
#1649 = SURFACE_STYLE_USAGE(.BOTH.,#1650);
#1650 = SURFACE_SIDE_STYLE('',(#1651));
#1651 = SURFACE_STYLE_FILL_AREA(#1652);
#1652 = FILL_AREA_STYLE('',(#1653));
#1653 = FILL_AREA_STYLE_COLOUR('',#1632);
#1654 = STYLED_ITEM('color',(#1655),#350);
#1655 = PRESENTATION_STYLE_ASSIGNMENT((#1656));
#1656 = SURFACE_STYLE_USAGE(.BOTH.,#1657);
#1657 = SURFACE_SIDE_STYLE('',(#1658));
#1658 = SURFACE_STYLE_FILL_AREA(#1659);
#1659 = FILL_AREA_STYLE('',(#1660));
#1660 = FILL_AREA_STYLE_COLOUR('',#1632);
#1661 = STYLED_ITEM('color',(#1662),#373);
#1662 = PRESENTATION_STYLE_ASSIGNMENT((#1663));
#1663 = SURFACE_STYLE_USAGE(.BOTH.,#1664);
#1664 = SURFACE_SIDE_STYLE('',(#1665));
#1665 = SURFACE_STYLE_FILL_AREA(#1666);
#1666 = FILL_AREA_STYLE('',(#1667));
#1667 = FILL_AREA_STYLE_COLOUR('',#1632);
#1668 = STYLED_ITEM('color',(#1669),#396);
#1669 = PRESENTATION_STYLE_ASSIGNMENT((#1670));
#1670 = SURFACE_STYLE_USAGE(.BOTH.,#1671);
#1671 = SURFACE_SIDE_STYLE('',(#1672));
#1672 = SURFACE_STYLE_FILL_AREA(#1673);
#1673 = FILL_AREA_STYLE('',(#1674));
#1674 = FILL_AREA_STYLE_COLOUR('',#1632);
#1675 = STYLED_ITEM('color',(#1676),#454);
#1676 = PRESENTATION_STYLE_ASSIGNMENT((#1677));
#1677 = SURFACE_STYLE_USAGE(.BOTH.,#1678);
#1678 = SURFACE_SIDE_STYLE('',(#1679));
#1679 = SURFACE_STYLE_FILL_AREA(#1680);
#1680 = FILL_AREA_STYLE('',(#1681));
#1681 = FILL_AREA_STYLE_COLOUR('',#1632);
#1682 = STYLED_ITEM('color',(#1683),#477);
#1683 = PRESENTATION_STYLE_ASSIGNMENT((#1684));
#1684 = SURFACE_STYLE_USAGE(.BOTH.,#1685);
#1685 = SURFACE_SIDE_STYLE('',(#1686));
#1686 = SURFACE_STYLE_FILL_AREA(#1687);
#1687 = FILL_AREA_STYLE('',(#1688));
#1688 = FILL_AREA_STYLE_COLOUR('',#1632);
#1689 = STYLED_ITEM('color',(#1690),#493);
#1690 = PRESENTATION_STYLE_ASSIGNMENT((#1691));
#1691 = SURFACE_STYLE_USAGE(.BOTH.,#1692);
#1692 = SURFACE_SIDE_STYLE('',(#1693));
#1693 = SURFACE_STYLE_FILL_AREA(#1694);
#1694 = FILL_AREA_STYLE('',(#1695));
#1695 = FILL_AREA_STYLE_COLOUR('',#1632);
#1696 = STYLED_ITEM('color',(#1697),#521);
#1697 = PRESENTATION_STYLE_ASSIGNMENT((#1698));
#1698 = SURFACE_STYLE_USAGE(.BOTH.,#1699);
#1699 = SURFACE_SIDE_STYLE('',(#1700));
#1700 = SURFACE_STYLE_FILL_AREA(#1701);
#1701 = FILL_AREA_STYLE('',(#1702));
#1702 = FILL_AREA_STYLE_COLOUR('',#1596);
#1703 = STYLED_ITEM('color',(#1704),#552);
#1704 = PRESENTATION_STYLE_ASSIGNMENT((#1705));
#1705 = SURFACE_STYLE_USAGE(.BOTH.,#1706);
#1706 = SURFACE_SIDE_STYLE('',(#1707));
#1707 = SURFACE_STYLE_FILL_AREA(#1708);
#1708 = FILL_AREA_STYLE('',(#1709));
#1709 = FILL_AREA_STYLE_COLOUR('',#1632);
#1710 = STYLED_ITEM('color',(#1711),#580);
#1711 = PRESENTATION_STYLE_ASSIGNMENT((#1712));
#1712 = SURFACE_STYLE_USAGE(.BOTH.,#1713);
#1713 = SURFACE_SIDE_STYLE('',(#1714));
#1714 = SURFACE_STYLE_FILL_AREA(#1715);
#1715 = FILL_AREA_STYLE('',(#1716));
#1716 = FILL_AREA_STYLE_COLOUR('',#1632);
#1717 = STYLED_ITEM('color',(#1718),#599);
#1718 = PRESENTATION_STYLE_ASSIGNMENT((#1719));
#1719 = SURFACE_STYLE_USAGE(.BOTH.,#1720);
#1720 = SURFACE_SIDE_STYLE('',(#1721));
#1721 = SURFACE_STYLE_FILL_AREA(#1722);
#1722 = FILL_AREA_STYLE('',(#1723));
#1723 = FILL_AREA_STYLE_COLOUR('',#1724);
#1724 = COLOUR_RGB('',0.690999977303,0.663999984767,0.597999987832);
#1725 = STYLED_ITEM('color',(#1726),#630);
#1726 = PRESENTATION_STYLE_ASSIGNMENT((#1727));
#1727 = SURFACE_STYLE_USAGE(.BOTH.,#1728);
#1728 = SURFACE_SIDE_STYLE('',(#1729));
#1729 = SURFACE_STYLE_FILL_AREA(#1730);
#1730 = FILL_AREA_STYLE('',(#1731));
#1731 = FILL_AREA_STYLE_COLOUR('',#1724);
#1732 = STYLED_ITEM('color',(#1733),#654);
#1733 = PRESENTATION_STYLE_ASSIGNMENT((#1734));
#1734 = SURFACE_STYLE_USAGE(.BOTH.,#1735);
#1735 = SURFACE_SIDE_STYLE('',(#1736));
#1736 = SURFACE_STYLE_FILL_AREA(#1737);
#1737 = FILL_AREA_STYLE('',(#1738));
#1738 = FILL_AREA_STYLE_COLOUR('',#1724);
#1739 = STYLED_ITEM('color',(#1740),#678);
#1740 = PRESENTATION_STYLE_ASSIGNMENT((#1741));
#1741 = SURFACE_STYLE_USAGE(.BOTH.,#1742);
#1742 = SURFACE_SIDE_STYLE('',(#1743));
#1743 = SURFACE_STYLE_FILL_AREA(#1744);
#1744 = FILL_AREA_STYLE('',(#1745));
#1745 = FILL_AREA_STYLE_COLOUR('',#1724);
#1746 = STYLED_ITEM('color',(#1747),#695);
#1747 = PRESENTATION_STYLE_ASSIGNMENT((#1748));
#1748 = SURFACE_STYLE_USAGE(.BOTH.,#1749);
#1749 = SURFACE_SIDE_STYLE('',(#1750));
#1750 = SURFACE_STYLE_FILL_AREA(#1751);
#1751 = FILL_AREA_STYLE('',(#1752));
#1752 = FILL_AREA_STYLE_COLOUR('',#1596);
#1753 = STYLED_ITEM('color',(#1754),#719);
#1754 = PRESENTATION_STYLE_ASSIGNMENT((#1755));
#1755 = SURFACE_STYLE_USAGE(.BOTH.,#1756);
#1756 = SURFACE_SIDE_STYLE('',(#1757));
#1757 = SURFACE_STYLE_FILL_AREA(#1758);
#1758 = FILL_AREA_STYLE('',(#1759));
#1759 = FILL_AREA_STYLE_COLOUR('',#1596);
#1760 = STYLED_ITEM('color',(#1761),#743);
#1761 = PRESENTATION_STYLE_ASSIGNMENT((#1762));
#1762 = SURFACE_STYLE_USAGE(.BOTH.,#1763);
#1763 = SURFACE_SIDE_STYLE('',(#1764));
#1764 = SURFACE_STYLE_FILL_AREA(#1765);
#1765 = FILL_AREA_STYLE('',(#1766));
#1766 = FILL_AREA_STYLE_COLOUR('',#1596);
#1767 = STYLED_ITEM('color',(#1768),#760);
#1768 = PRESENTATION_STYLE_ASSIGNMENT((#1769));
#1769 = SURFACE_STYLE_USAGE(.BOTH.,#1770);
#1770 = SURFACE_SIDE_STYLE('',(#1771));
#1771 = SURFACE_STYLE_FILL_AREA(#1772);
#1772 = FILL_AREA_STYLE('',(#1773));
#1773 = FILL_AREA_STYLE_COLOUR('',#1596);
#1774 = STYLED_ITEM('color',(#1775),#772);
#1775 = PRESENTATION_STYLE_ASSIGNMENT((#1776));
#1776 = SURFACE_STYLE_USAGE(.BOTH.,#1777);
#1777 = SURFACE_SIDE_STYLE('',(#1778));
#1778 = SURFACE_STYLE_FILL_AREA(#1779);
#1779 = FILL_AREA_STYLE('',(#1780));
#1780 = FILL_AREA_STYLE_COLOUR('',#1724);
ENDSEC;
END-ISO-10303-21;
