M48
; DRILL file KiCad 10.99.0-3758-g2f18d95be7 date 2026-09-21T19:59:59
; FORMAT={-:-/ absolute / metric / decimal}
; #@! TF.CreationDate,2026-09-21T19:59:59+01:00
; #@! TF.GenerationSoftware,Kicad,Pcbnew,10.99.0-3758-g2f18d95be7
; #@! TF.FileFunction,Plated,1,2,PTH
FMAT,2
METRIC
; #@! TA.AperFunction,Plated,PTH,ViaDrill
T1C0.394
; #@! TA.AperFunction,Plated,PTH,ViaDrill
T2C0.450
; #@! TA.AperFunction,Plated,PTH,ViaDrill
T3C0.500
; #@! TA.AperFunction,Plated,PTH,ComponentDrill
T4C0.800
; #@! TA.AperFunction,Plated,PTH,ComponentDrill
T5C0.900
; #@! TA.AperFunction,Plated,PTH,ComponentDrill
T6C3.000
%
G90
G05
T1
X-3.734Y1.067
T2
X-2.042Y22.272
T3
X-46.863Y18.491
X-45.38Y9.906
X-43.688Y12.84
X-42.545Y7.62
X-40.513Y15.888
X-40.069Y-17.462
X-39.814Y23.063
X-38.227Y-15.769
X-37.719Y7.95
X-37.655Y-10.033
X-37.465Y0.254
X-37.465Y-3.81
X-37.465Y-14.732
X-36.957Y20.066
X-36.83Y-11.43
X-36.83Y-17.145
X-36.576Y22.619
X-35.772Y-1.397
X-35.496Y10.871
X-35.306Y14.859
X-35.22Y3.429
X-34.48Y-1.905
X-33.909Y-19.939
X-33.528Y27.635
X-32.703Y-16.573
X-32.322Y-8.826
X-32.194Y-1.905
X-32.131Y6.871
X-31.813Y3.81
X-29.573Y18.796
X-29.273Y21.272
X-28.956Y-23.495
X-28.448Y16.637
X-27.813Y7.125
X-27.368Y-10.477
X-26.162Y10.046
X-26.035Y-6.477
X-26.035Y-23.114
X-25.019Y-13.716
X-25.019Y-18.923
X-24.892Y-4.064
X-24.765Y19.558
X-24.765Y-21.717
X-23.368Y-18.796
X-21.526Y2.095
X-21.526Y-12.636
X-21.463Y-14.224
X-21.336Y24.765
X-20.828Y8.903
X-20.511Y-6.159
X-19.812Y4.652
X-18.085Y6.388
X-17.928Y0.508
X-17.882Y18.902
X-17.78Y-20.828
X-17.653Y5.207
X-17.526Y13.144
X-17.145Y-18.669
X-17.081Y21.699
X-17.018Y-2.857
X-17.018Y-16.764
X-16.637Y24.701
X-16.256Y-21.145
X-16.171Y-6.096
X-16.002Y-4.826
X-15.875Y13.652
X-13.97Y-24.337
X-11.601Y15.831
X-11.472Y-6.985
X-11.43Y13.144
X-11.43Y5.715
X-11.43Y3.492
X-11.43Y1.333
X-11.43Y-1.587
X-11.43Y-3.683
X-11.43Y-5.715
X-11.43Y-8.255
X-11.43Y-12.002
X-11.424Y10.852
X-11.409Y8.321
X-11.367Y-9.652
X-11.112Y-14.287
X-10.541Y-24.765
X-9.906Y24.765
X-8.636Y-17.399
X-8.382Y-19.939
X-8.191Y27.559
X-8.128Y24.892
X-7.112Y13.271
X-6.979Y-3.55
X-6.646Y1.487
X-6.413Y16.891
X-6.252Y0.377
X-6.252Y-0.813
X-6.138Y11.619
X-5.715Y10.033
X-5.143Y15.621
X-4.826Y-8.191
X-4.826Y-9.335
X-4.763Y22.098
X-4.72Y19.558
X-4.635Y16.828
X-4.318Y-11.303
X-3.81Y-13.843
X-3.744Y5.81
X-3.338Y21.173
X-3.302Y3.175
X-2.794Y14.287
X-2.286Y20.066
X-2.222Y-24.955
X-2.032Y-13.716
X-1.808Y12.871
X-1.651Y-8.445
X-1.397Y17.272
X-1.27Y11.79
X-0.716Y-6.749
X-0.559Y-3.48
X-0.133Y20.701
X0.025Y6.384
X0.445Y-6.985
X0.508Y-15.942
X0.554Y9.063
X0.97Y-8.117
X1.016Y3.048
X1.016Y-24.363
X1.122Y18.726
X1.333Y19.875
X1.718Y9.066
X2.159Y-24.13
X2.286Y-14.986
X2.667Y-3.302
X2.794Y13.843
X2.795Y-7.366
X2.921Y-25.019
X2.984Y5.905
X2.984Y-1.587
X3.048Y0.635
X3.81Y21.463
X4.191Y13.843
X4.318Y12.7
X4.318Y-10.16
X4.335Y-4.958
X4.488Y4.806
X4.572Y-18.161
X4.78Y-11.857
X4.935Y5.906
X5.08Y-14.478
X5.715Y20.193
X5.715Y17.018
X5.842Y5.207
X6.032Y-5.942
X6.096Y-12.319
X6.188Y-3.363
X6.583Y-1.389
X6.633Y-0.216
X6.731Y-21.463
X6.837Y12.383
X6.858Y3.873
X6.964Y5.183
X6.985Y-13.335
X7.131Y19.05
X7.302Y8.255
X8.382Y25.781
X9.398Y23.495
X10.287Y-24.765
X10.922Y15.113
X11.049Y20.701
X11.303Y-14.668
X11.367Y-6.985
X11.367Y-12.319
X11.43Y12.065
X11.43Y9.525
X11.43Y4.445
X11.43Y0.572
X11.493Y-9.398
X11.938Y-24.32
X13.589Y17.78
X13.695Y15.621
X14.478Y-26.352
X14.986Y22.352
X16.129Y17.78
X16.129Y12.065
X16.129Y-5.969
X16.383Y-16.51
X17.272Y-2.159
X17.78Y-11.557
X18.351Y-8.382
X18.415Y-4.191
X19.113Y8.572
X19.113Y3.111
X21.018Y24.194
X21.463Y-1.333
X22.225Y20.193
X22.543Y1.194
X23.431Y8.064
X23.812Y10.604
X24.194Y4.508
X26.147Y20.955
X28.067Y20.892
X30.035Y15.176
X30.29Y4.0
X33.591Y25.336
X33.655Y20.193
X35.496Y8.954
X41.846Y9.97
T4
X-3.3Y23.484
X3.3Y23.484
T5
X-3.6Y26.284
X3.6Y26.284
X33.052Y13.445
X35.052Y13.445
X37.052Y13.445
X44.052Y6.445
X44.052Y4.445
X44.052Y2.445
T6
X-38.1Y25.4
X-20.955Y-25.4
X20.955Y-25.4
X38.1Y25.4
M30
