ISO-10303-21;
HEADER;
FILE_DESCRIPTION(('KiCad electronic assembly'),'2;1');
FILE_NAME('model.step','1970-01-01T00:00:00',('Pcbnew'),('Kicad'),
  'Open CASCADE STEP processor 7.9','KiCad to STEP converter','Unknown'
  );
FILE_SCHEMA(('AUTOMOTIVE_DESIGN { 1 0 10303 214 1 1 1 1 }'));
ENDSEC;
DATA;
#1 = APPLICATION_PROTOCOL_DEFINITION('international standard',
  'automotive_design',2000,#2);
#2 = APPLICATION_CONTEXT(
  'core data for automotive mechanical design processes');
#3 = SHAPE_DEFINITION_REPRESENTATION(#4,#10);
#4 = PRODUCT_DEFINITION_SHAPE('','',#5);
#5 = PRODUCT_DEFINITION('design','',#6,#9);
#6 = PRODUCT_DEFINITION_FORMATION('','',#7);
#7 = PRODUCT('model 1','model 1','',(#8));
#8 = PRODUCT_CONTEXT('',#2,'mechanical');
#9 = PRODUCT_DEFINITION_CONTEXT('part definition',#2,'design');
#10 = SHAPE_REPRESENTATION('',(#11,#15,#19,#23),#27);
#11 = AXIS2_PLACEMENT_3D('',#12,#13,#14);
#12 = CARTESIAN_POINT('',(0.,0.,0.));
#13 = DIRECTION('',(0.,0.,1.));
#14 = DIRECTION('',(1.,0.,-0.));
#15 = AXIS2_PLACEMENT_3D('',#16,#17,#18);
#16 = CARTESIAN_POINT('',(0.,0.,1.595));
#17 = DIRECTION('',(0.,0.,1.));
#18 = DIRECTION('',(1.,0.,0.));
#19 = AXIS2_PLACEMENT_3D('',#20,#21,#22);
#20 = CARTESIAN_POINT('',(0.,0.,0.));
#21 = DIRECTION('',(0.,0.,1.));
#22 = DIRECTION('',(1.,0.,-0.));
#23 = AXIS2_PLACEMENT_3D('',#24,#25,#26);
#24 = CARTESIAN_POINT('',(0.,0.,0.));
#25 = DIRECTION('',(0.,0.,1.));
#26 = DIRECTION('',(1.,0.,-0.));
#27 = ( GEOMETRIC_REPRESENTATION_CONTEXT(3) 
GLOBAL_UNCERTAINTY_ASSIGNED_CONTEXT((#31)) GLOBAL_UNIT_ASSIGNED_CONTEXT(
(#28,#29,#30)) REPRESENTATION_CONTEXT('Context #1',
  '3D Context with UNIT and UNCERTAINTY') );
#28 = ( LENGTH_UNIT() NAMED_UNIT(*) SI_UNIT(.MILLI.,.METRE.) );
#29 = ( NAMED_UNIT(*) PLANE_ANGLE_UNIT() SI_UNIT($,.RADIAN.) );
#30 = ( NAMED_UNIT(*) SI_UNIT($,.STERADIAN.) SOLID_ANGLE_UNIT() );
#31 = UNCERTAINTY_MEASURE_WITH_UNIT(LENGTH_MEASURE(1.E-07),#28,
  'distance_accuracy_value','confusion accuracy');
#32 = PRODUCT_RELATED_PRODUCT_CATEGORY('part',$,(#7));
#33 = SHAPE_DEFINITION_REPRESENTATION(#34,#40);
#34 = PRODUCT_DEFINITION_SHAPE('','',#35);
#35 = PRODUCT_DEFINITION('design','',#36,#39);
#36 = PRODUCT_DEFINITION_FORMATION('','',#37);
#37 = PRODUCT('LED_0201_0603Metric','LED_0201_0603Metric','',(#38));
#38 = PRODUCT_CONTEXT('',#2,'mechanical');
#39 = PRODUCT_DEFINITION_CONTEXT('part definition',#2,'design');
#40 = SHAPE_REPRESENTATION('',(#11,#41),#45);
#41 = AXIS2_PLACEMENT_3D('',#42,#43,#44);
#42 = CARTESIAN_POINT('',(0.,0.,0.));
#43 = DIRECTION('',(0.,0.,1.));
#44 = DIRECTION('',(1.,0.,-0.));
#45 = ( GEOMETRIC_REPRESENTATION_CONTEXT(3) 
GLOBAL_UNCERTAINTY_ASSIGNED_CONTEXT((#49)) GLOBAL_UNIT_ASSIGNED_CONTEXT(
(#46,#47,#48)) REPRESENTATION_CONTEXT('Context #1',
  '3D Context with UNIT and UNCERTAINTY') );
#46 = ( LENGTH_UNIT() NAMED_UNIT(*) SI_UNIT(.MILLI.,.METRE.) );
#47 = ( NAMED_UNIT(*) PLANE_ANGLE_UNIT() SI_UNIT($,.RADIAN.) );
#48 = ( NAMED_UNIT(*) SI_UNIT($,.STERADIAN.) SOLID_ANGLE_UNIT() );
#49 = UNCERTAINTY_MEASURE_WITH_UNIT(LENGTH_MEASURE(1.E-07),#46,
  'distance_accuracy_value','confusion accuracy');
#50 = CONTEXT_DEPENDENT_SHAPE_REPRESENTATION(#51,#53);
#51 = ( REPRESENTATION_RELATIONSHIP('','',#40,#10) 
REPRESENTATION_RELATIONSHIP_WITH_TRANSFORMATION(#52) 
SHAPE_REPRESENTATION_RELATIONSHIP() );
#52 = ITEM_DEFINED_TRANSFORMATION('','',#11,#15);
#53 = PRODUCT_DEFINITION_SHAPE('Placement','Placement of an item',#54);
#54 = NEXT_ASSEMBLY_USAGE_OCCURRENCE('2','REF**','',#5,#35,$);
#55 = PRODUCT_RELATED_PRODUCT_CATEGORY('part',$,(#37));
#56 = SHAPE_DEFINITION_REPRESENTATION(#57,#63);
#57 = PRODUCT_DEFINITION_SHAPE('','',#58);
#58 = PRODUCT_DEFINITION('design','',#59,#62);
#59 = PRODUCT_DEFINITION_FORMATION('','',#60);
#60 = PRODUCT('LED_0201_0603Metric','LED_0201_0603Metric','',(#61));
#61 = PRODUCT_CONTEXT('',#2,'mechanical');
#62 = PRODUCT_DEFINITION_CONTEXT('part definition',#2,'design');
#63 = ADVANCED_BREP_SHAPE_REPRESENTATION('',(#11,#64),#703);
#64 = MANIFOLD_SOLID_BREP('',#65);
#65 = CLOSED_SHELL('',(#66,#106,#137,#255,#286,#310,#327,#351,#382,#406,
    #430,#447,#478,#502,#526,#543,#574,#598,#615,#639,#656,#668,#680,
    #692));
#66 = ADVANCED_FACE('',(#67),#101,.F.);
#67 = FACE_BOUND('',#68,.F.);
#68 = EDGE_LOOP('',(#69,#79,#87,#95));
#69 = ORIENTED_EDGE('',*,*,#70,.F.);
#70 = EDGE_CURVE('',#71,#73,#75,.T.);
#71 = VERTEX_POINT('',#72);
#72 = CARTESIAN_POINT('',(-0.325,-0.175,1.7E-02));
#73 = VERTEX_POINT('',#74);
#74 = CARTESIAN_POINT('',(-0.325,-0.175,0.107));
#75 = LINE('',#76,#77);
#76 = CARTESIAN_POINT('',(-0.325,-0.175,1.7E-02));
#77 = VECTOR('',#78,1.);
#78 = DIRECTION('',(0.,0.,1.));
#79 = ORIENTED_EDGE('',*,*,#80,.T.);
#80 = EDGE_CURVE('',#71,#81,#83,.T.);
#81 = VERTEX_POINT('',#82);
#82 = CARTESIAN_POINT('',(-0.325,0.175,1.7E-02));
#83 = LINE('',#84,#85);
#84 = CARTESIAN_POINT('',(-0.325,-0.175,1.7E-02));
#85 = VECTOR('',#86,1.);
#86 = DIRECTION('',(0.,1.,0.));
#87 = ORIENTED_EDGE('',*,*,#88,.T.);
#88 = EDGE_CURVE('',#81,#89,#91,.T.);
#89 = VERTEX_POINT('',#90);
#90 = CARTESIAN_POINT('',(-0.325,0.175,0.107));
#91 = LINE('',#92,#93);
#92 = CARTESIAN_POINT('',(-0.325,0.175,1.7E-02));
#93 = VECTOR('',#94,1.);
#94 = DIRECTION('',(0.,0.,1.));
#95 = ORIENTED_EDGE('',*,*,#96,.T.);
#96 = EDGE_CURVE('',#89,#73,#97,.T.);
#97 = LINE('',#98,#99);
#98 = CARTESIAN_POINT('',(-0.325,0.175,0.107));
#99 = VECTOR('',#100,1.);
#100 = DIRECTION('',(0.,-1.,0.));
#101 = PLANE('',#102);
#102 = AXIS2_PLACEMENT_3D('',#103,#104,#105);
#103 = CARTESIAN_POINT('',(-0.325,-0.175,1.7E-02));
#104 = DIRECTION('',(1.,0.,0.));
#105 = DIRECTION('',(0.,0.,1.));
#106 = ADVANCED_FACE('',(#107),#132,.F.);
#107 = FACE_BOUND('',#108,.F.);
#108 = EDGE_LOOP('',(#109,#117,#118,#126));
#109 = ORIENTED_EDGE('',*,*,#110,.F.);
#110 = EDGE_CURVE('',#71,#111,#113,.T.);
#111 = VERTEX_POINT('',#112);
#112 = CARTESIAN_POINT('',(0.325,-0.175,1.7E-02));
#113 = LINE('',#114,#115);
#114 = CARTESIAN_POINT('',(-0.325,-0.175,1.7E-02));
#115 = VECTOR('',#116,1.);
#116 = DIRECTION('',(1.,0.,0.));
#117 = ORIENTED_EDGE('',*,*,#70,.T.);
#118 = ORIENTED_EDGE('',*,*,#119,.F.);
#119 = EDGE_CURVE('',#120,#73,#122,.T.);
#120 = VERTEX_POINT('',#121);
#121 = CARTESIAN_POINT('',(0.325,-0.175,0.107));
#122 = LINE('',#123,#124);
#123 = CARTESIAN_POINT('',(0.325,-0.175,0.107));
#124 = VECTOR('',#125,1.);
#125 = DIRECTION('',(-1.,0.,0.));
#126 = ORIENTED_EDGE('',*,*,#127,.F.);
#127 = EDGE_CURVE('',#111,#120,#128,.T.);
#128 = LINE('',#129,#130);
#129 = CARTESIAN_POINT('',(0.325,-0.175,1.7E-02));
#130 = VECTOR('',#131,1.);
#131 = DIRECTION('',(0.,0.,1.));
#132 = PLANE('',#133);
#133 = AXIS2_PLACEMENT_3D('',#134,#135,#136);
#134 = CARTESIAN_POINT('',(-0.325,-0.175,1.7E-02));
#135 = DIRECTION('',(0.,1.,0.));
#136 = DIRECTION('',(0.,-0.,1.));
#137 = ADVANCED_FACE('',(#138,#156,#190,#224),#250,.F.);
#138 = FACE_BOUND('',#139,.F.);
#139 = EDGE_LOOP('',(#140,#141,#142,#150));
#140 = ORIENTED_EDGE('',*,*,#80,.F.);
#141 = ORIENTED_EDGE('',*,*,#110,.T.);
#142 = ORIENTED_EDGE('',*,*,#143,.T.);
#143 = EDGE_CURVE('',#111,#144,#146,.T.);
#144 = VERTEX_POINT('',#145);
#145 = CARTESIAN_POINT('',(0.325,0.175,1.7E-02));
#146 = LINE('',#147,#148);
#147 = CARTESIAN_POINT('',(0.325,-0.175,1.7E-02));
#148 = VECTOR('',#149,1.);
#149 = DIRECTION('',(0.,1.,0.));
#150 = ORIENTED_EDGE('',*,*,#151,.F.);
#151 = EDGE_CURVE('',#81,#144,#152,.T.);
#152 = LINE('',#153,#154);
#153 = CARTESIAN_POINT('',(-0.325,0.175,1.7E-02));
#154 = VECTOR('',#155,1.);
#155 = DIRECTION('',(1.,0.,0.));
#156 = FACE_BOUND('',#157,.F.);
#157 = EDGE_LOOP('',(#158,#168,#176,#184));
#158 = ORIENTED_EDGE('',*,*,#159,.T.);
#159 = EDGE_CURVE('',#160,#162,#164,.T.);
#160 = VERTEX_POINT('',#161);
#161 = CARTESIAN_POINT('',(0.105,0.125,1.7E-02));
#162 = VERTEX_POINT('',#163);
#163 = CARTESIAN_POINT('',(0.275,0.125,1.7E-02));
#164 = LINE('',#165,#166);
#165 = CARTESIAN_POINT('',(0.105,0.125,1.7E-02));
#166 = VECTOR('',#167,1.);
#167 = DIRECTION('',(1.,0.,0.));
#168 = ORIENTED_EDGE('',*,*,#169,.F.);
#169 = EDGE_CURVE('',#170,#162,#172,.T.);
#170 = VERTEX_POINT('',#171);
#171 = CARTESIAN_POINT('',(0.275,-0.125,1.7E-02));
#172 = LINE('',#173,#174);
#173 = CARTESIAN_POINT('',(0.275,-0.125,1.7E-02));
#174 = VECTOR('',#175,1.);
#175 = DIRECTION('',(0.,1.,0.));
#176 = ORIENTED_EDGE('',*,*,#177,.F.);
#177 = EDGE_CURVE('',#178,#170,#180,.T.);
#178 = VERTEX_POINT('',#179);
#179 = CARTESIAN_POINT('',(0.105,-0.125,1.7E-02));
#180 = LINE('',#181,#182);
#181 = CARTESIAN_POINT('',(0.105,-0.125,1.7E-02));
#182 = VECTOR('',#183,1.);
#183 = DIRECTION('',(1.,0.,0.));
#184 = ORIENTED_EDGE('',*,*,#185,.T.);
#185 = EDGE_CURVE('',#178,#160,#186,.T.);
#186 = LINE('',#187,#188);
#187 = CARTESIAN_POINT('',(0.105,-0.125,1.7E-02));
#188 = VECTOR('',#189,1.);
#189 = DIRECTION('',(0.,1.,0.));
#190 = FACE_BOUND('',#191,.F.);
#191 = EDGE_LOOP('',(#192,#202,#210,#218));
#192 = ORIENTED_EDGE('',*,*,#193,.T.);
#193 = EDGE_CURVE('',#194,#196,#198,.T.);
#194 = VERTEX_POINT('',#195);
#195 = CARTESIAN_POINT('',(-0.275,0.125,1.7E-02));
#196 = VERTEX_POINT('',#197);
#197 = CARTESIAN_POINT('',(-0.105,0.125,1.7E-02));
#198 = LINE('',#199,#200);
#199 = CARTESIAN_POINT('',(-0.275,0.125,1.7E-02));
#200 = VECTOR('',#201,1.);
#201 = DIRECTION('',(1.,0.,0.));
#202 = ORIENTED_EDGE('',*,*,#203,.F.);
#203 = EDGE_CURVE('',#204,#196,#206,.T.);
#204 = VERTEX_POINT('',#205);
#205 = CARTESIAN_POINT('',(-0.105,-0.125,1.7E-02));
#206 = LINE('',#207,#208);
#207 = CARTESIAN_POINT('',(-0.105,-0.125,1.7E-02));
#208 = VECTOR('',#209,1.);
#209 = DIRECTION('',(0.,1.,0.));
#210 = ORIENTED_EDGE('',*,*,#211,.F.);
#211 = EDGE_CURVE('',#212,#204,#214,.T.);
#212 = VERTEX_POINT('',#213);
#213 = CARTESIAN_POINT('',(-0.275,-0.125,1.7E-02));
#214 = LINE('',#215,#216);
#215 = CARTESIAN_POINT('',(-0.275,-0.125,1.7E-02));
#216 = VECTOR('',#217,1.);
#217 = DIRECTION('',(1.,0.,0.));
#218 = ORIENTED_EDGE('',*,*,#219,.T.);
#219 = EDGE_CURVE('',#212,#194,#220,.T.);
#220 = LINE('',#221,#222);
#221 = CARTESIAN_POINT('',(-0.275,-0.125,1.7E-02));
#222 = VECTOR('',#223,1.);
#223 = DIRECTION('',(0.,1.,0.));
#224 = FACE_BOUND('',#225,.F.);
#225 = EDGE_LOOP('',(#226,#236,#244));
#226 = ORIENTED_EDGE('',*,*,#227,.T.);
#227 = EDGE_CURVE('',#228,#230,#232,.T.);
#228 = VERTEX_POINT('',#229);
#229 = CARTESIAN_POINT('',(7.274613391789E-02,8.4E-02,1.7E-02));
#230 = VERTEX_POINT('',#231);
#231 = CARTESIAN_POINT('',(7.274613391789E-02,-8.4E-02,1.7E-02));
#232 = LINE('',#233,#234);
#233 = CARTESIAN_POINT('',(7.274613391789E-02,8.4E-02,1.7E-02));
#234 = VECTOR('',#235,1.);
#235 = DIRECTION('',(0.,-1.,0.));
#236 = ORIENTED_EDGE('',*,*,#237,.T.);
#237 = EDGE_CURVE('',#230,#238,#240,.T.);
#238 = VERTEX_POINT('',#239);
#239 = CARTESIAN_POINT('',(-7.274613391789E-02,0.,1.7E-02));
#240 = LINE('',#241,#242);
#241 = CARTESIAN_POINT('',(7.274613391789E-02,-8.4E-02,1.7E-02));
#242 = VECTOR('',#243,1.);
#243 = DIRECTION('',(-0.866025403784,0.5,0.));
#244 = ORIENTED_EDGE('',*,*,#245,.T.);
#245 = EDGE_CURVE('',#238,#228,#246,.T.);
#246 = LINE('',#247,#248);
#247 = CARTESIAN_POINT('',(-7.274613391789E-02,0.,1.7E-02));
#248 = VECTOR('',#249,1.);
#249 = DIRECTION('',(0.866025403784,0.5,0.));
#250 = PLANE('',#251);
#251 = AXIS2_PLACEMENT_3D('',#252,#253,#254);
#252 = CARTESIAN_POINT('',(-0.325,-0.175,1.7E-02));
#253 = DIRECTION('',(0.,0.,1.));
#254 = DIRECTION('',(1.,0.,-0.));
#255 = ADVANCED_FACE('',(#256),#281,.T.);
#256 = FACE_BOUND('',#257,.T.);
#257 = EDGE_LOOP('',(#258,#259,#267,#275));
#258 = ORIENTED_EDGE('',*,*,#96,.T.);
#259 = ORIENTED_EDGE('',*,*,#260,.T.);
#260 = EDGE_CURVE('',#73,#261,#263,.T.);
#261 = VERTEX_POINT('',#262);
#262 = CARTESIAN_POINT('',(-0.2925,-0.175,0.2));
#263 = LINE('',#264,#265);
#264 = CARTESIAN_POINT('',(-0.325,-0.175,0.107));
#265 = VECTOR('',#266,1.);
#266 = DIRECTION('',(0.32989823916,0.,0.944016499749));
#267 = ORIENTED_EDGE('',*,*,#268,.F.);
#268 = EDGE_CURVE('',#269,#261,#271,.T.);
#269 = VERTEX_POINT('',#270);
#270 = CARTESIAN_POINT('',(-0.2925,0.175,0.2));
#271 = LINE('',#272,#273);
#272 = CARTESIAN_POINT('',(-0.2925,0.175,0.2));
#273 = VECTOR('',#274,1.);
#274 = DIRECTION('',(0.,-1.,0.));
#275 = ORIENTED_EDGE('',*,*,#276,.F.);
#276 = EDGE_CURVE('',#89,#269,#277,.T.);
#277 = LINE('',#278,#279);
#278 = CARTESIAN_POINT('',(-0.325,0.175,0.107));
#279 = VECTOR('',#280,1.);
#280 = DIRECTION('',(0.32989823916,0.,0.944016499749));
#281 = PLANE('',#282);
#282 = AXIS2_PLACEMENT_3D('',#283,#284,#285);
#283 = CARTESIAN_POINT('',(-0.325,0.175,0.107));
#284 = DIRECTION('',(-0.944016499749,0.,0.32989823916));
#285 = DIRECTION('',(0.32989823916,0.,0.944016499749));
#286 = ADVANCED_FACE('',(#287),#305,.T.);
#287 = FACE_BOUND('',#288,.T.);
#288 = EDGE_LOOP('',(#289,#290,#291,#299));
#289 = ORIENTED_EDGE('',*,*,#151,.F.);
#290 = ORIENTED_EDGE('',*,*,#88,.T.);
#291 = ORIENTED_EDGE('',*,*,#292,.F.);
#292 = EDGE_CURVE('',#293,#89,#295,.T.);
#293 = VERTEX_POINT('',#294);
#294 = CARTESIAN_POINT('',(0.325,0.175,0.107));
#295 = LINE('',#296,#297);
#296 = CARTESIAN_POINT('',(0.325,0.175,0.107));
#297 = VECTOR('',#298,1.);
#298 = DIRECTION('',(-1.,0.,0.));
#299 = ORIENTED_EDGE('',*,*,#300,.F.);
#300 = EDGE_CURVE('',#144,#293,#301,.T.);
#301 = LINE('',#302,#303);
#302 = CARTESIAN_POINT('',(0.325,0.175,1.7E-02));
#303 = VECTOR('',#304,1.);
#304 = DIRECTION('',(0.,0.,1.));
#305 = PLANE('',#306);
#306 = AXIS2_PLACEMENT_3D('',#307,#308,#309);
#307 = CARTESIAN_POINT('',(-0.325,0.175,1.7E-02));
#308 = DIRECTION('',(0.,1.,0.));
#309 = DIRECTION('',(0.,-0.,1.));
#310 = ADVANCED_FACE('',(#311),#322,.T.);
#311 = FACE_BOUND('',#312,.T.);
#312 = EDGE_LOOP('',(#313,#314,#315,#316));
#313 = ORIENTED_EDGE('',*,*,#127,.F.);
#314 = ORIENTED_EDGE('',*,*,#143,.T.);
#315 = ORIENTED_EDGE('',*,*,#300,.T.);
#316 = ORIENTED_EDGE('',*,*,#317,.T.);
#317 = EDGE_CURVE('',#293,#120,#318,.T.);
#318 = LINE('',#319,#320);
#319 = CARTESIAN_POINT('',(0.325,0.175,0.107));
#320 = VECTOR('',#321,1.);
#321 = DIRECTION('',(0.,-1.,0.));
#322 = PLANE('',#323);
#323 = AXIS2_PLACEMENT_3D('',#324,#325,#326);
#324 = CARTESIAN_POINT('',(0.325,-0.175,1.7E-02));
#325 = DIRECTION('',(1.,0.,0.));
#326 = DIRECTION('',(0.,0.,1.));
#327 = ADVANCED_FACE('',(#328),#346,.F.);
#328 = FACE_BOUND('',#329,.F.);
#329 = EDGE_LOOP('',(#330,#331,#339,#345));
#330 = ORIENTED_EDGE('',*,*,#260,.T.);
#331 = ORIENTED_EDGE('',*,*,#332,.T.);
#332 = EDGE_CURVE('',#261,#333,#335,.T.);
#333 = VERTEX_POINT('',#334);
#334 = CARTESIAN_POINT('',(0.2925,-0.175,0.2));
#335 = LINE('',#336,#337);
#336 = CARTESIAN_POINT('',(-0.2925,-0.175,0.2));
#337 = VECTOR('',#338,1.);
#338 = DIRECTION('',(1.,0.,0.));
#339 = ORIENTED_EDGE('',*,*,#340,.T.);
#340 = EDGE_CURVE('',#333,#120,#341,.T.);
#341 = LINE('',#342,#343);
#342 = CARTESIAN_POINT('',(0.2925,-0.175,0.2));
#343 = VECTOR('',#344,1.);
#344 = DIRECTION('',(0.32989823916,0.,-0.944016499749));
#345 = ORIENTED_EDGE('',*,*,#119,.T.);
#346 = PLANE('',#347);
#347 = AXIS2_PLACEMENT_3D('',#348,#349,#350);
#348 = CARTESIAN_POINT('',(9.690986503965E-18,-0.175,0.15138936053));
#349 = DIRECTION('',(3.640674961141E-33,1.,-8.102543307743E-32));
#350 = DIRECTION('',(0.,8.102543307743E-32,1.));
#351 = ADVANCED_FACE('',(#352),#377,.T.);
#352 = FACE_BOUND('',#353,.T.);
#353 = EDGE_LOOP('',(#354,#364,#370,#371));
#354 = ORIENTED_EDGE('',*,*,#355,.F.);
#355 = EDGE_CURVE('',#356,#358,#360,.T.);
#356 = VERTEX_POINT('',#357);
#357 = CARTESIAN_POINT('',(0.105,0.125,0.));
#358 = VERTEX_POINT('',#359);
#359 = CARTESIAN_POINT('',(0.275,0.125,0.));
#360 = LINE('',#361,#362);
#361 = CARTESIAN_POINT('',(0.105,0.125,0.));
#362 = VECTOR('',#363,1.);
#363 = DIRECTION('',(1.,0.,0.));
#364 = ORIENTED_EDGE('',*,*,#365,.T.);
#365 = EDGE_CURVE('',#356,#160,#366,.T.);
#366 = LINE('',#367,#368);
#367 = CARTESIAN_POINT('',(0.105,0.125,0.));
#368 = VECTOR('',#369,1.);
#369 = DIRECTION('',(0.,0.,1.));
#370 = ORIENTED_EDGE('',*,*,#159,.T.);
#371 = ORIENTED_EDGE('',*,*,#372,.F.);
#372 = EDGE_CURVE('',#358,#162,#373,.T.);
#373 = LINE('',#374,#375);
#374 = CARTESIAN_POINT('',(0.275,0.125,0.));
#375 = VECTOR('',#376,1.);
#376 = DIRECTION('',(0.,0.,1.));
#377 = PLANE('',#378);
#378 = AXIS2_PLACEMENT_3D('',#379,#380,#381);
#379 = CARTESIAN_POINT('',(0.105,0.125,0.));
#380 = DIRECTION('',(0.,1.,0.));
#381 = DIRECTION('',(0.,-0.,1.));
#382 = ADVANCED_FACE('',(#383),#401,.F.);
#383 = FACE_BOUND('',#384,.F.);
#384 = EDGE_LOOP('',(#385,#393,#399,#400));
#385 = ORIENTED_EDGE('',*,*,#386,.F.);
#386 = EDGE_CURVE('',#387,#178,#389,.T.);
#387 = VERTEX_POINT('',#388);
#388 = CARTESIAN_POINT('',(0.105,-0.125,0.));
#389 = LINE('',#390,#391);
#390 = CARTESIAN_POINT('',(0.105,-0.125,0.));
#391 = VECTOR('',#392,1.);
#392 = DIRECTION('',(0.,0.,1.));
#393 = ORIENTED_EDGE('',*,*,#394,.T.);
#394 = EDGE_CURVE('',#387,#356,#395,.T.);
#395 = LINE('',#396,#397);
#396 = CARTESIAN_POINT('',(0.105,-0.125,0.));
#397 = VECTOR('',#398,1.);
#398 = DIRECTION('',(0.,1.,0.));
#399 = ORIENTED_EDGE('',*,*,#365,.T.);
#400 = ORIENTED_EDGE('',*,*,#185,.F.);
#401 = PLANE('',#402);
#402 = AXIS2_PLACEMENT_3D('',#403,#404,#405);
#403 = CARTESIAN_POINT('',(0.105,-0.125,0.));
#404 = DIRECTION('',(1.,0.,0.));
#405 = DIRECTION('',(0.,0.,1.));
#406 = ADVANCED_FACE('',(#407),#425,.F.);
#407 = FACE_BOUND('',#408,.F.);
#408 = EDGE_LOOP('',(#409,#417,#418,#419));
#409 = ORIENTED_EDGE('',*,*,#410,.F.);
#410 = EDGE_CURVE('',#387,#411,#413,.T.);
#411 = VERTEX_POINT('',#412);
#412 = CARTESIAN_POINT('',(0.275,-0.125,0.));
#413 = LINE('',#414,#415);
#414 = CARTESIAN_POINT('',(0.105,-0.125,0.));
#415 = VECTOR('',#416,1.);
#416 = DIRECTION('',(1.,0.,0.));
#417 = ORIENTED_EDGE('',*,*,#386,.T.);
#418 = ORIENTED_EDGE('',*,*,#177,.T.);
#419 = ORIENTED_EDGE('',*,*,#420,.F.);
#420 = EDGE_CURVE('',#411,#170,#421,.T.);
#421 = LINE('',#422,#423);
#422 = CARTESIAN_POINT('',(0.275,-0.125,0.));
#423 = VECTOR('',#424,1.);
#424 = DIRECTION('',(0.,0.,1.));
#425 = PLANE('',#426);
#426 = AXIS2_PLACEMENT_3D('',#427,#428,#429);
#427 = CARTESIAN_POINT('',(0.105,-0.125,0.));
#428 = DIRECTION('',(0.,1.,0.));
#429 = DIRECTION('',(0.,-0.,1.));
#430 = ADVANCED_FACE('',(#431),#442,.T.);
#431 = FACE_BOUND('',#432,.T.);
#432 = EDGE_LOOP('',(#433,#434,#440,#441));
#433 = ORIENTED_EDGE('',*,*,#420,.F.);
#434 = ORIENTED_EDGE('',*,*,#435,.T.);
#435 = EDGE_CURVE('',#411,#358,#436,.T.);
#436 = LINE('',#437,#438);
#437 = CARTESIAN_POINT('',(0.275,-0.125,0.));
#438 = VECTOR('',#439,1.);
#439 = DIRECTION('',(0.,1.,0.));
#440 = ORIENTED_EDGE('',*,*,#372,.T.);
#441 = ORIENTED_EDGE('',*,*,#169,.F.);
#442 = PLANE('',#443);
#443 = AXIS2_PLACEMENT_3D('',#444,#445,#446);
#444 = CARTESIAN_POINT('',(0.275,-0.125,0.));
#445 = DIRECTION('',(1.,0.,0.));
#446 = DIRECTION('',(0.,0.,1.));
#447 = ADVANCED_FACE('',(#448),#473,.T.);
#448 = FACE_BOUND('',#449,.T.);
#449 = EDGE_LOOP('',(#450,#460,#466,#467));
#450 = ORIENTED_EDGE('',*,*,#451,.F.);
#451 = EDGE_CURVE('',#452,#454,#456,.T.);
#452 = VERTEX_POINT('',#453);
#453 = CARTESIAN_POINT('',(-0.275,0.125,0.));
#454 = VERTEX_POINT('',#455);
#455 = CARTESIAN_POINT('',(-0.105,0.125,0.));
#456 = LINE('',#457,#458);
#457 = CARTESIAN_POINT('',(-0.275,0.125,0.));
#458 = VECTOR('',#459,1.);
#459 = DIRECTION('',(1.,0.,0.));
#460 = ORIENTED_EDGE('',*,*,#461,.T.);
#461 = EDGE_CURVE('',#452,#194,#462,.T.);
#462 = LINE('',#463,#464);
#463 = CARTESIAN_POINT('',(-0.275,0.125,0.));
#464 = VECTOR('',#465,1.);
#465 = DIRECTION('',(0.,0.,1.));
#466 = ORIENTED_EDGE('',*,*,#193,.T.);
#467 = ORIENTED_EDGE('',*,*,#468,.F.);
#468 = EDGE_CURVE('',#454,#196,#469,.T.);
#469 = LINE('',#470,#471);
#470 = CARTESIAN_POINT('',(-0.105,0.125,0.));
#471 = VECTOR('',#472,1.);
#472 = DIRECTION('',(0.,0.,1.));
#473 = PLANE('',#474);
#474 = AXIS2_PLACEMENT_3D('',#475,#476,#477);
#475 = CARTESIAN_POINT('',(-0.275,0.125,0.));
#476 = DIRECTION('',(0.,1.,0.));
#477 = DIRECTION('',(0.,-0.,1.));
#478 = ADVANCED_FACE('',(#479),#497,.F.);
#479 = FACE_BOUND('',#480,.F.);
#480 = EDGE_LOOP('',(#481,#489,#495,#496));
#481 = ORIENTED_EDGE('',*,*,#482,.F.);
#482 = EDGE_CURVE('',#483,#212,#485,.T.);
#483 = VERTEX_POINT('',#484);
#484 = CARTESIAN_POINT('',(-0.275,-0.125,0.));
#485 = LINE('',#486,#487);
#486 = CARTESIAN_POINT('',(-0.275,-0.125,0.));
#487 = VECTOR('',#488,1.);
#488 = DIRECTION('',(0.,0.,1.));
#489 = ORIENTED_EDGE('',*,*,#490,.T.);
#490 = EDGE_CURVE('',#483,#452,#491,.T.);
#491 = LINE('',#492,#493);
#492 = CARTESIAN_POINT('',(-0.275,-0.125,0.));
#493 = VECTOR('',#494,1.);
#494 = DIRECTION('',(0.,1.,0.));
#495 = ORIENTED_EDGE('',*,*,#461,.T.);
#496 = ORIENTED_EDGE('',*,*,#219,.F.);
#497 = PLANE('',#498);
#498 = AXIS2_PLACEMENT_3D('',#499,#500,#501);
#499 = CARTESIAN_POINT('',(-0.275,-0.125,0.));
#500 = DIRECTION('',(1.,0.,0.));
#501 = DIRECTION('',(0.,0.,1.));
#502 = ADVANCED_FACE('',(#503),#521,.F.);
#503 = FACE_BOUND('',#504,.F.);
#504 = EDGE_LOOP('',(#505,#513,#514,#515));
#505 = ORIENTED_EDGE('',*,*,#506,.F.);
#506 = EDGE_CURVE('',#483,#507,#509,.T.);
#507 = VERTEX_POINT('',#508);
#508 = CARTESIAN_POINT('',(-0.105,-0.125,0.));
#509 = LINE('',#510,#511);
#510 = CARTESIAN_POINT('',(-0.275,-0.125,0.));
#511 = VECTOR('',#512,1.);
#512 = DIRECTION('',(1.,0.,0.));
#513 = ORIENTED_EDGE('',*,*,#482,.T.);
#514 = ORIENTED_EDGE('',*,*,#211,.T.);
#515 = ORIENTED_EDGE('',*,*,#516,.F.);
#516 = EDGE_CURVE('',#507,#204,#517,.T.);
#517 = LINE('',#518,#519);
#518 = CARTESIAN_POINT('',(-0.105,-0.125,0.));
#519 = VECTOR('',#520,1.);
#520 = DIRECTION('',(0.,0.,1.));
#521 = PLANE('',#522);
#522 = AXIS2_PLACEMENT_3D('',#523,#524,#525);
#523 = CARTESIAN_POINT('',(-0.275,-0.125,0.));
#524 = DIRECTION('',(0.,1.,0.));
#525 = DIRECTION('',(0.,-0.,1.));
#526 = ADVANCED_FACE('',(#527),#538,.T.);
#527 = FACE_BOUND('',#528,.T.);
#528 = EDGE_LOOP('',(#529,#530,#536,#537));
#529 = ORIENTED_EDGE('',*,*,#516,.F.);
#530 = ORIENTED_EDGE('',*,*,#531,.T.);
#531 = EDGE_CURVE('',#507,#454,#532,.T.);
#532 = LINE('',#533,#534);
#533 = CARTESIAN_POINT('',(-0.105,-0.125,0.));
#534 = VECTOR('',#535,1.);
#535 = DIRECTION('',(0.,1.,0.));
#536 = ORIENTED_EDGE('',*,*,#468,.T.);
#537 = ORIENTED_EDGE('',*,*,#203,.F.);
#538 = PLANE('',#539);
#539 = AXIS2_PLACEMENT_3D('',#540,#541,#542);
#540 = CARTESIAN_POINT('',(-0.105,-0.125,0.));
#541 = DIRECTION('',(1.,0.,0.));
#542 = DIRECTION('',(0.,0.,1.));
#543 = ADVANCED_FACE('',(#544),#569,.T.);
#544 = FACE_BOUND('',#545,.T.);
#545 = EDGE_LOOP('',(#546,#554,#555,#563));
#546 = ORIENTED_EDGE('',*,*,#547,.T.);
#547 = EDGE_CURVE('',#548,#228,#550,.T.);
#548 = VERTEX_POINT('',#549);
#549 = CARTESIAN_POINT('',(7.274613391789E-02,8.4E-02,8.5E-03));
#550 = LINE('',#551,#552);
#551 = CARTESIAN_POINT('',(7.274613391789E-02,8.4E-02,8.5E-03));
#552 = VECTOR('',#553,1.);
#553 = DIRECTION('',(0.,0.,1.));
#554 = ORIENTED_EDGE('',*,*,#227,.T.);
#555 = ORIENTED_EDGE('',*,*,#556,.F.);
#556 = EDGE_CURVE('',#557,#230,#559,.T.);
#557 = VERTEX_POINT('',#558);
#558 = CARTESIAN_POINT('',(7.274613391789E-02,-8.4E-02,8.5E-03));
#559 = LINE('',#560,#561);
#560 = CARTESIAN_POINT('',(7.274613391789E-02,-8.4E-02,8.5E-03));
#561 = VECTOR('',#562,1.);
#562 = DIRECTION('',(0.,0.,1.));
#563 = ORIENTED_EDGE('',*,*,#564,.F.);
#564 = EDGE_CURVE('',#548,#557,#565,.T.);
#565 = LINE('',#566,#567);
#566 = CARTESIAN_POINT('',(7.274613391789E-02,8.4E-02,8.5E-03));
#567 = VECTOR('',#568,1.);
#568 = DIRECTION('',(0.,-1.,0.));
#569 = PLANE('',#570);
#570 = AXIS2_PLACEMENT_3D('',#571,#572,#573);
#571 = CARTESIAN_POINT('',(7.274613391789E-02,8.4E-02,8.5E-03));
#572 = DIRECTION('',(1.,0.,0.));
#573 = DIRECTION('',(0.,-1.,0.));
#574 = ADVANCED_FACE('',(#575),#593,.T.);
#575 = FACE_BOUND('',#576,.T.);
#576 = EDGE_LOOP('',(#577,#585,#586,#587));
#577 = ORIENTED_EDGE('',*,*,#578,.T.);
#578 = EDGE_CURVE('',#579,#238,#581,.T.);
#579 = VERTEX_POINT('',#580);
#580 = CARTESIAN_POINT('',(-7.274613391789E-02,0.,8.5E-03));
#581 = LINE('',#582,#583);
#582 = CARTESIAN_POINT('',(-7.274613391789E-02,0.,8.5E-03));
#583 = VECTOR('',#584,1.);
#584 = DIRECTION('',(0.,0.,1.));
#585 = ORIENTED_EDGE('',*,*,#245,.T.);
#586 = ORIENTED_EDGE('',*,*,#547,.F.);
#587 = ORIENTED_EDGE('',*,*,#588,.F.);
#588 = EDGE_CURVE('',#579,#548,#589,.T.);
#589 = LINE('',#590,#591);
#590 = CARTESIAN_POINT('',(-7.274613391789E-02,0.,8.5E-03));
#591 = VECTOR('',#592,1.);
#592 = DIRECTION('',(0.866025403784,0.5,0.));
#593 = PLANE('',#594);
#594 = AXIS2_PLACEMENT_3D('',#595,#596,#597);
#595 = CARTESIAN_POINT('',(-7.274613391789E-02,0.,8.5E-03));
#596 = DIRECTION('',(-0.5,0.866025403784,0.));
#597 = DIRECTION('',(0.866025403784,0.5,0.));
#598 = ADVANCED_FACE('',(#599),#610,.T.);
#599 = FACE_BOUND('',#600,.T.);
#600 = EDGE_LOOP('',(#601,#602,#603,#604));
#601 = ORIENTED_EDGE('',*,*,#556,.T.);
#602 = ORIENTED_EDGE('',*,*,#237,.T.);
#603 = ORIENTED_EDGE('',*,*,#578,.F.);
#604 = ORIENTED_EDGE('',*,*,#605,.F.);
#605 = EDGE_CURVE('',#557,#579,#606,.T.);
#606 = LINE('',#607,#608);
#607 = CARTESIAN_POINT('',(7.274613391789E-02,-8.4E-02,8.5E-03));
#608 = VECTOR('',#609,1.);
#609 = DIRECTION('',(-0.866025403784,0.5,0.));
#610 = PLANE('',#611);
#611 = AXIS2_PLACEMENT_3D('',#612,#613,#614);
#612 = CARTESIAN_POINT('',(7.274613391789E-02,-8.4E-02,8.5E-03));
#613 = DIRECTION('',(-0.5,-0.866025403784,0.));
#614 = DIRECTION('',(-0.866025403784,0.5,0.));
#615 = ADVANCED_FACE('',(#616),#634,.T.);
#616 = FACE_BOUND('',#617,.T.);
#617 = EDGE_LOOP('',(#618,#619,#627,#633));
#618 = ORIENTED_EDGE('',*,*,#276,.T.);
#619 = ORIENTED_EDGE('',*,*,#620,.T.);
#620 = EDGE_CURVE('',#269,#621,#623,.T.);
#621 = VERTEX_POINT('',#622);
#622 = CARTESIAN_POINT('',(0.2925,0.175,0.2));
#623 = LINE('',#624,#625);
#624 = CARTESIAN_POINT('',(-0.2925,0.175,0.2));
#625 = VECTOR('',#626,1.);
#626 = DIRECTION('',(1.,0.,0.));
#627 = ORIENTED_EDGE('',*,*,#628,.T.);
#628 = EDGE_CURVE('',#621,#293,#629,.T.);
#629 = LINE('',#630,#631);
#630 = CARTESIAN_POINT('',(0.2925,0.175,0.2));
#631 = VECTOR('',#632,1.);
#632 = DIRECTION('',(0.32989823916,0.,-0.944016499749));
#633 = ORIENTED_EDGE('',*,*,#292,.T.);
#634 = PLANE('',#635);
#635 = AXIS2_PLACEMENT_3D('',#636,#637,#638);
#636 = CARTESIAN_POINT('',(9.690986503965E-18,0.175,0.15138936053));
#637 = DIRECTION('',(3.640674961141E-33,1.,-8.102543307743E-32));
#638 = DIRECTION('',(0.,8.102543307743E-32,1.));
#639 = ADVANCED_FACE('',(#640),#651,.T.);
#640 = FACE_BOUND('',#641,.T.);
#641 = EDGE_LOOP('',(#642,#643,#644,#650));
#642 = ORIENTED_EDGE('',*,*,#268,.T.);
#643 = ORIENTED_EDGE('',*,*,#332,.T.);
#644 = ORIENTED_EDGE('',*,*,#645,.F.);
#645 = EDGE_CURVE('',#621,#333,#646,.T.);
#646 = LINE('',#647,#648);
#647 = CARTESIAN_POINT('',(0.2925,0.175,0.2));
#648 = VECTOR('',#649,1.);
#649 = DIRECTION('',(0.,-1.,0.));
#650 = ORIENTED_EDGE('',*,*,#620,.F.);
#651 = PLANE('',#652);
#652 = AXIS2_PLACEMENT_3D('',#653,#654,#655);
#653 = CARTESIAN_POINT('',(-0.2925,0.175,0.2));
#654 = DIRECTION('',(0.,0.,1.));
#655 = DIRECTION('',(1.,0.,-0.));
#656 = ADVANCED_FACE('',(#657),#663,.T.);
#657 = FACE_BOUND('',#658,.T.);
#658 = EDGE_LOOP('',(#659,#660,#661,#662));
#659 = ORIENTED_EDGE('',*,*,#645,.T.);
#660 = ORIENTED_EDGE('',*,*,#340,.T.);
#661 = ORIENTED_EDGE('',*,*,#317,.F.);
#662 = ORIENTED_EDGE('',*,*,#628,.F.);
#663 = PLANE('',#664);
#664 = AXIS2_PLACEMENT_3D('',#665,#666,#667);
#665 = CARTESIAN_POINT('',(0.2925,0.175,0.2));
#666 = DIRECTION('',(0.944016499749,0.,0.32989823916));
#667 = DIRECTION('',(0.32989823916,0.,-0.944016499749));
#668 = ADVANCED_FACE('',(#669),#675,.F.);
#669 = FACE_BOUND('',#670,.F.);
#670 = EDGE_LOOP('',(#671,#672,#673,#674));
#671 = ORIENTED_EDGE('',*,*,#394,.F.);
#672 = ORIENTED_EDGE('',*,*,#410,.T.);
#673 = ORIENTED_EDGE('',*,*,#435,.T.);
#674 = ORIENTED_EDGE('',*,*,#355,.F.);
#675 = PLANE('',#676);
#676 = AXIS2_PLACEMENT_3D('',#677,#678,#679);
#677 = CARTESIAN_POINT('',(0.105,-0.125,0.));
#678 = DIRECTION('',(0.,0.,1.));
#679 = DIRECTION('',(1.,0.,-0.));
#680 = ADVANCED_FACE('',(#681),#687,.F.);
#681 = FACE_BOUND('',#682,.F.);
#682 = EDGE_LOOP('',(#683,#684,#685,#686));
#683 = ORIENTED_EDGE('',*,*,#490,.F.);
#684 = ORIENTED_EDGE('',*,*,#506,.T.);
#685 = ORIENTED_EDGE('',*,*,#531,.T.);
#686 = ORIENTED_EDGE('',*,*,#451,.F.);
#687 = PLANE('',#688);
#688 = AXIS2_PLACEMENT_3D('',#689,#690,#691);
#689 = CARTESIAN_POINT('',(-0.275,-0.125,0.));
#690 = DIRECTION('',(0.,0.,1.));
#691 = DIRECTION('',(1.,0.,-0.));
#692 = ADVANCED_FACE('',(#693),#698,.T.);
#693 = FACE_BOUND('',#694,.T.);
#694 = EDGE_LOOP('',(#695,#696,#697));
#695 = ORIENTED_EDGE('',*,*,#588,.T.);
#696 = ORIENTED_EDGE('',*,*,#564,.T.);
#697 = ORIENTED_EDGE('',*,*,#605,.T.);
#698 = PLANE('',#699);
#699 = AXIS2_PLACEMENT_3D('',#700,#701,#702);
#700 = CARTESIAN_POINT('',(2.424871130596E-02,0.,8.5E-03));
#701 = DIRECTION('',(-0.,-0.,-1.));
#702 = DIRECTION('',(-1.,0.,0.));
#703 = ( GEOMETRIC_REPRESENTATION_CONTEXT(3) 
GLOBAL_UNCERTAINTY_ASSIGNED_CONTEXT((#707)) GLOBAL_UNIT_ASSIGNED_CONTEXT
((#704,#705,#706)) REPRESENTATION_CONTEXT('Context #1',
  '3D Context with UNIT and UNCERTAINTY') );
#704 = ( LENGTH_UNIT() NAMED_UNIT(*) SI_UNIT(.MILLI.,.METRE.) );
#705 = ( NAMED_UNIT(*) PLANE_ANGLE_UNIT() SI_UNIT($,.RADIAN.) );
#706 = ( NAMED_UNIT(*) SI_UNIT($,.STERADIAN.) SOLID_ANGLE_UNIT() );
#707 = UNCERTAINTY_MEASURE_WITH_UNIT(LENGTH_MEASURE(1.E-07),#704,
  'distance_accuracy_value','confusion accuracy');
#708 = CONTEXT_DEPENDENT_SHAPE_REPRESENTATION(#709,#711);
#709 = ( REPRESENTATION_RELATIONSHIP('','',#63,#40) 
REPRESENTATION_RELATIONSHIP_WITH_TRANSFORMATION(#710) 
SHAPE_REPRESENTATION_RELATIONSHIP() );
#710 = ITEM_DEFINED_TRANSFORMATION('','',#11,#41);
#711 = PRODUCT_DEFINITION_SHAPE('Placement','Placement of an item',#712
  );
#712 = NEXT_ASSEMBLY_USAGE_OCCURRENCE('1','=>[0:1:1:3]','',#35,#58,$);
#713 = PRODUCT_RELATED_PRODUCT_CATEGORY('part',$,(#60));
#714 = SHAPE_DEFINITION_REPRESENTATION(#715,#721);
#715 = PRODUCT_DEFINITION_SHAPE('','',#716);
#716 = PRODUCT_DEFINITION('design','',#717,#720);
#717 = PRODUCT_DEFINITION_FORMATION('','',#718);
#718 = PRODUCT('electronic_led_0201_green_tint_render_pad',
  'electronic_led_0201_green_tint_render_pad','',(#719));
#719 = PRODUCT_CONTEXT('',#2,'mechanical');
#720 = PRODUCT_DEFINITION_CONTEXT('part definition',#2,'design');
#721 = SHAPE_REPRESENTATION('',(#11,#722,#1012),#1302);
#722 = MANIFOLD_SOLID_BREP('',#723);
#723 = CLOSED_SHELL('',(#724,#766,#797,#830,#861,#894,#925,#958,#980,
    #996));
#724 = ADVANCED_FACE('',(#725),#761,.T.);
#725 = FACE_BOUND('',#726,.T.);
#726 = EDGE_LOOP('',(#727,#737,#746,#754));
#727 = ORIENTED_EDGE('',*,*,#728,.T.);
#728 = EDGE_CURVE('',#729,#731,#733,.T.);
#729 = VERTEX_POINT('',#730);
#730 = CARTESIAN_POINT('',(-0.55,0.1,1.51));
#731 = VERTEX_POINT('',#732);
#732 = CARTESIAN_POINT('',(-0.55,0.1,1.55));
#733 = LINE('',#734,#735);
#734 = CARTESIAN_POINT('',(-0.55,0.1,1.51));
#735 = VECTOR('',#736,1.);
#736 = DIRECTION('',(0.,0.,1.));
#737 = ORIENTED_EDGE('',*,*,#738,.T.);
#738 = EDGE_CURVE('',#731,#739,#741,.T.);
#739 = VERTEX_POINT('',#740);
#740 = CARTESIAN_POINT('',(-0.45,0.2,1.55));
#741 = CIRCLE('',#742,9.999890104896E-02);
#742 = AXIS2_PLACEMENT_3D('',#743,#744,#745);
#743 = CARTESIAN_POINT('',(-0.450001098957,0.100001098957,1.55));
#744 = DIRECTION('',(0.,0.,-1.));
#745 = DIRECTION('',(-0.99999999994,-1.098969153029E-05,-0.));
#746 = ORIENTED_EDGE('',*,*,#747,.F.);
#747 = EDGE_CURVE('',#748,#739,#750,.T.);
#748 = VERTEX_POINT('',#749);
#749 = CARTESIAN_POINT('',(-0.45,0.2,1.51));
#750 = LINE('',#751,#752);
#751 = CARTESIAN_POINT('',(-0.45,0.2,1.51));
#752 = VECTOR('',#753,1.);
#753 = DIRECTION('',(0.,0.,1.));
#754 = ORIENTED_EDGE('',*,*,#755,.F.);
#755 = EDGE_CURVE('',#729,#748,#756,.T.);
#756 = CIRCLE('',#757,9.999890104896E-02);
#757 = AXIS2_PLACEMENT_3D('',#758,#759,#760);
#758 = CARTESIAN_POINT('',(-0.450001098957,0.100001098957,1.51));
#759 = DIRECTION('',(0.,0.,-1.));
#760 = DIRECTION('',(-0.99999999994,-1.098969153029E-05,-0.));
#761 = CYLINDRICAL_SURFACE('',#762,9.999890104896E-02);
#762 = AXIS2_PLACEMENT_3D('',#763,#764,#765);
#763 = CARTESIAN_POINT('',(-0.450001098957,0.100001098957,1.51));
#764 = DIRECTION('',(0.,0.,-1.));
#765 = DIRECTION('',(-0.99999999994,-1.098969153029E-05,-0.));
#766 = ADVANCED_FACE('',(#767),#792,.T.);
#767 = FACE_BOUND('',#768,.T.);
#768 = EDGE_LOOP('',(#769,#770,#778,#786));
#769 = ORIENTED_EDGE('',*,*,#747,.T.);
#770 = ORIENTED_EDGE('',*,*,#771,.T.);
#771 = EDGE_CURVE('',#739,#772,#774,.T.);
#772 = VERTEX_POINT('',#773);
#773 = CARTESIAN_POINT('',(-0.19,0.2,1.55));
#774 = LINE('',#775,#776);
#775 = CARTESIAN_POINT('',(-0.45,0.2,1.55));
#776 = VECTOR('',#777,1.);
#777 = DIRECTION('',(1.,0.,0.));
#778 = ORIENTED_EDGE('',*,*,#779,.F.);
#779 = EDGE_CURVE('',#780,#772,#782,.T.);
#780 = VERTEX_POINT('',#781);
#781 = CARTESIAN_POINT('',(-0.19,0.2,1.51));
#782 = LINE('',#783,#784);
#783 = CARTESIAN_POINT('',(-0.19,0.2,1.51));
#784 = VECTOR('',#785,1.);
#785 = DIRECTION('',(0.,0.,1.));
#786 = ORIENTED_EDGE('',*,*,#787,.F.);
#787 = EDGE_CURVE('',#748,#780,#788,.T.);
#788 = LINE('',#789,#790);
#789 = CARTESIAN_POINT('',(-0.45,0.2,1.51));
#790 = VECTOR('',#791,1.);
#791 = DIRECTION('',(1.,0.,0.));
#792 = PLANE('',#793);
#793 = AXIS2_PLACEMENT_3D('',#794,#795,#796);
#794 = CARTESIAN_POINT('',(-0.45,0.2,1.51));
#795 = DIRECTION('',(0.,1.,0.));
#796 = DIRECTION('',(1.,0.,0.));
#797 = ADVANCED_FACE('',(#798),#825,.T.);
#798 = FACE_BOUND('',#799,.T.);
#799 = EDGE_LOOP('',(#800,#801,#810,#818));
#800 = ORIENTED_EDGE('',*,*,#779,.T.);
#801 = ORIENTED_EDGE('',*,*,#802,.T.);
#802 = EDGE_CURVE('',#772,#803,#805,.T.);
#803 = VERTEX_POINT('',#804);
#804 = CARTESIAN_POINT('',(-9.E-02,0.1,1.55));
#805 = CIRCLE('',#806,9.999890104896E-02);
#806 = AXIS2_PLACEMENT_3D('',#807,#808,#809);
#807 = CARTESIAN_POINT('',(-0.189998901043,0.100001098957,1.55));
#808 = DIRECTION('',(0.,0.,-1.));
#809 = DIRECTION('',(-1.098969152973E-05,0.99999999994,0.));
#810 = ORIENTED_EDGE('',*,*,#811,.F.);
#811 = EDGE_CURVE('',#812,#803,#814,.T.);
#812 = VERTEX_POINT('',#813);
#813 = CARTESIAN_POINT('',(-9.E-02,0.1,1.51));
#814 = LINE('',#815,#816);
#815 = CARTESIAN_POINT('',(-9.E-02,0.1,1.51));
#816 = VECTOR('',#817,1.);
#817 = DIRECTION('',(0.,0.,1.));
#818 = ORIENTED_EDGE('',*,*,#819,.F.);
#819 = EDGE_CURVE('',#780,#812,#820,.T.);
#820 = CIRCLE('',#821,9.999890104896E-02);
#821 = AXIS2_PLACEMENT_3D('',#822,#823,#824);
#822 = CARTESIAN_POINT('',(-0.189998901043,0.100001098957,1.51));
#823 = DIRECTION('',(0.,0.,-1.));
#824 = DIRECTION('',(-1.098969152973E-05,0.99999999994,0.));
#825 = CYLINDRICAL_SURFACE('',#826,9.999890104896E-02);
#826 = AXIS2_PLACEMENT_3D('',#827,#828,#829);
#827 = CARTESIAN_POINT('',(-0.189998901043,0.100001098957,1.51));
#828 = DIRECTION('',(0.,0.,-1.));
#829 = DIRECTION('',(-1.098969152973E-05,0.99999999994,0.));
#830 = ADVANCED_FACE('',(#831),#856,.T.);
#831 = FACE_BOUND('',#832,.T.);
#832 = EDGE_LOOP('',(#833,#834,#842,#850));
#833 = ORIENTED_EDGE('',*,*,#811,.T.);
#834 = ORIENTED_EDGE('',*,*,#835,.T.);
#835 = EDGE_CURVE('',#803,#836,#838,.T.);
#836 = VERTEX_POINT('',#837);
#837 = CARTESIAN_POINT('',(-9.E-02,-0.1,1.55));
#838 = LINE('',#839,#840);
#839 = CARTESIAN_POINT('',(-9.E-02,0.1,1.55));
#840 = VECTOR('',#841,1.);
#841 = DIRECTION('',(0.,-1.,0.));
#842 = ORIENTED_EDGE('',*,*,#843,.F.);
#843 = EDGE_CURVE('',#844,#836,#846,.T.);
#844 = VERTEX_POINT('',#845);
#845 = CARTESIAN_POINT('',(-9.E-02,-0.1,1.51));
#846 = LINE('',#847,#848);
#847 = CARTESIAN_POINT('',(-9.E-02,-0.1,1.51));
#848 = VECTOR('',#849,1.);
#849 = DIRECTION('',(0.,0.,1.));
#850 = ORIENTED_EDGE('',*,*,#851,.F.);
#851 = EDGE_CURVE('',#812,#844,#852,.T.);
#852 = LINE('',#853,#854);
#853 = CARTESIAN_POINT('',(-9.E-02,0.1,1.51));
#854 = VECTOR('',#855,1.);
#855 = DIRECTION('',(0.,-1.,0.));
#856 = PLANE('',#857);
#857 = AXIS2_PLACEMENT_3D('',#858,#859,#860);
#858 = CARTESIAN_POINT('',(-9.E-02,0.1,1.51));
#859 = DIRECTION('',(1.,0.,-0.));
#860 = DIRECTION('',(0.,-1.,0.));
#861 = ADVANCED_FACE('',(#862),#889,.T.);
#862 = FACE_BOUND('',#863,.T.);
#863 = EDGE_LOOP('',(#864,#865,#874,#882));
#864 = ORIENTED_EDGE('',*,*,#843,.T.);
#865 = ORIENTED_EDGE('',*,*,#866,.T.);
#866 = EDGE_CURVE('',#836,#867,#869,.T.);
#867 = VERTEX_POINT('',#868);
#868 = CARTESIAN_POINT('',(-0.19,-0.2,1.55));
#869 = CIRCLE('',#870,9.999890104896E-02);
#870 = AXIS2_PLACEMENT_3D('',#871,#872,#873);
#871 = CARTESIAN_POINT('',(-0.189998901043,-0.100001098957,1.55));
#872 = DIRECTION('',(0.,0.,-1.));
#873 = DIRECTION('',(0.99999999994,1.098969153001E-05,0.));
#874 = ORIENTED_EDGE('',*,*,#875,.F.);
#875 = EDGE_CURVE('',#876,#867,#878,.T.);
#876 = VERTEX_POINT('',#877);
#877 = CARTESIAN_POINT('',(-0.19,-0.2,1.51));
#878 = LINE('',#879,#880);
#879 = CARTESIAN_POINT('',(-0.19,-0.2,1.51));
#880 = VECTOR('',#881,1.);
#881 = DIRECTION('',(0.,0.,1.));
#882 = ORIENTED_EDGE('',*,*,#883,.F.);
#883 = EDGE_CURVE('',#844,#876,#884,.T.);
#884 = CIRCLE('',#885,9.999890104896E-02);
#885 = AXIS2_PLACEMENT_3D('',#886,#887,#888);
#886 = CARTESIAN_POINT('',(-0.189998901043,-0.100001098957,1.51));
#887 = DIRECTION('',(0.,0.,-1.));
#888 = DIRECTION('',(0.99999999994,1.098969153001E-05,0.));
#889 = CYLINDRICAL_SURFACE('',#890,9.999890104896E-02);
#890 = AXIS2_PLACEMENT_3D('',#891,#892,#893);
#891 = CARTESIAN_POINT('',(-0.189998901043,-0.100001098957,1.51));
#892 = DIRECTION('',(0.,0.,-1.));
#893 = DIRECTION('',(0.99999999994,1.098969153001E-05,0.));
#894 = ADVANCED_FACE('',(#895),#920,.T.);
#895 = FACE_BOUND('',#896,.T.);
#896 = EDGE_LOOP('',(#897,#898,#906,#914));
#897 = ORIENTED_EDGE('',*,*,#875,.T.);
#898 = ORIENTED_EDGE('',*,*,#899,.T.);
#899 = EDGE_CURVE('',#867,#900,#902,.T.);
#900 = VERTEX_POINT('',#901);
#901 = CARTESIAN_POINT('',(-0.45,-0.2,1.55));
#902 = LINE('',#903,#904);
#903 = CARTESIAN_POINT('',(-0.19,-0.2,1.55));
#904 = VECTOR('',#905,1.);
#905 = DIRECTION('',(-1.,0.,0.));
#906 = ORIENTED_EDGE('',*,*,#907,.F.);
#907 = EDGE_CURVE('',#908,#900,#910,.T.);
#908 = VERTEX_POINT('',#909);
#909 = CARTESIAN_POINT('',(-0.45,-0.2,1.51));
#910 = LINE('',#911,#912);
#911 = CARTESIAN_POINT('',(-0.45,-0.2,1.51));
#912 = VECTOR('',#913,1.);
#913 = DIRECTION('',(0.,0.,1.));
#914 = ORIENTED_EDGE('',*,*,#915,.F.);
#915 = EDGE_CURVE('',#876,#908,#916,.T.);
#916 = LINE('',#917,#918);
#917 = CARTESIAN_POINT('',(-0.19,-0.2,1.51));
#918 = VECTOR('',#919,1.);
#919 = DIRECTION('',(-1.,0.,0.));
#920 = PLANE('',#921);
#921 = AXIS2_PLACEMENT_3D('',#922,#923,#924);
#922 = CARTESIAN_POINT('',(-0.19,-0.2,1.51));
#923 = DIRECTION('',(0.,-1.,0.));
#924 = DIRECTION('',(-1.,0.,0.));
#925 = ADVANCED_FACE('',(#926),#953,.T.);
#926 = FACE_BOUND('',#927,.T.);
#927 = EDGE_LOOP('',(#928,#929,#938,#946));
#928 = ORIENTED_EDGE('',*,*,#907,.T.);
#929 = ORIENTED_EDGE('',*,*,#930,.T.);
#930 = EDGE_CURVE('',#900,#931,#933,.T.);
#931 = VERTEX_POINT('',#932);
#932 = CARTESIAN_POINT('',(-0.55,-0.1,1.55));
#933 = CIRCLE('',#934,9.999890104896E-02);
#934 = AXIS2_PLACEMENT_3D('',#935,#936,#937);
#935 = CARTESIAN_POINT('',(-0.450001098957,-0.100001098957,1.55));
#936 = DIRECTION('',(0.,0.,-1.));
#937 = DIRECTION('',(1.098969153084E-05,-0.99999999994,0.));
#938 = ORIENTED_EDGE('',*,*,#939,.F.);
#939 = EDGE_CURVE('',#940,#931,#942,.T.);
#940 = VERTEX_POINT('',#941);
#941 = CARTESIAN_POINT('',(-0.55,-0.1,1.51));
#942 = LINE('',#943,#944);
#943 = CARTESIAN_POINT('',(-0.55,-0.1,1.51));
#944 = VECTOR('',#945,1.);
#945 = DIRECTION('',(0.,0.,1.));
#946 = ORIENTED_EDGE('',*,*,#947,.F.);
#947 = EDGE_CURVE('',#908,#940,#948,.T.);
#948 = CIRCLE('',#949,9.999890104896E-02);
#949 = AXIS2_PLACEMENT_3D('',#950,#951,#952);
#950 = CARTESIAN_POINT('',(-0.450001098957,-0.100001098957,1.51));
#951 = DIRECTION('',(0.,0.,-1.));
#952 = DIRECTION('',(1.098969153084E-05,-0.99999999994,0.));
#953 = CYLINDRICAL_SURFACE('',#954,9.999890104896E-02);
#954 = AXIS2_PLACEMENT_3D('',#955,#956,#957);
#955 = CARTESIAN_POINT('',(-0.450001098957,-0.100001098957,1.51));
#956 = DIRECTION('',(0.,0.,-1.));
#957 = DIRECTION('',(1.098969153084E-05,-0.99999999994,0.));
#958 = ADVANCED_FACE('',(#959),#975,.T.);
#959 = FACE_BOUND('',#960,.T.);
#960 = EDGE_LOOP('',(#961,#962,#968,#969));
#961 = ORIENTED_EDGE('',*,*,#939,.T.);
#962 = ORIENTED_EDGE('',*,*,#963,.T.);
#963 = EDGE_CURVE('',#931,#731,#964,.T.);
#964 = LINE('',#965,#966);
#965 = CARTESIAN_POINT('',(-0.55,-0.1,1.55));
#966 = VECTOR('',#967,1.);
#967 = DIRECTION('',(0.,1.,0.));
#968 = ORIENTED_EDGE('',*,*,#728,.F.);
#969 = ORIENTED_EDGE('',*,*,#970,.F.);
#970 = EDGE_CURVE('',#940,#729,#971,.T.);
#971 = LINE('',#972,#973);
#972 = CARTESIAN_POINT('',(-0.55,-0.1,1.51));
#973 = VECTOR('',#974,1.);
#974 = DIRECTION('',(0.,1.,0.));
#975 = PLANE('',#976);
#976 = AXIS2_PLACEMENT_3D('',#977,#978,#979);
#977 = CARTESIAN_POINT('',(-0.55,-0.1,1.51));
#978 = DIRECTION('',(-1.,0.,0.));
#979 = DIRECTION('',(0.,1.,0.));
#980 = ADVANCED_FACE('',(#981),#991,.F.);
#981 = FACE_BOUND('',#982,.T.);
#982 = EDGE_LOOP('',(#983,#984,#985,#986,#987,#988,#989,#990));
#983 = ORIENTED_EDGE('',*,*,#755,.T.);
#984 = ORIENTED_EDGE('',*,*,#787,.T.);
#985 = ORIENTED_EDGE('',*,*,#819,.T.);
#986 = ORIENTED_EDGE('',*,*,#851,.T.);
#987 = ORIENTED_EDGE('',*,*,#883,.T.);
#988 = ORIENTED_EDGE('',*,*,#915,.T.);
#989 = ORIENTED_EDGE('',*,*,#947,.T.);
#990 = ORIENTED_EDGE('',*,*,#970,.T.);
#991 = PLANE('',#992);
#992 = AXIS2_PLACEMENT_3D('',#993,#994,#995);
#993 = CARTESIAN_POINT('',(0.,0.,1.51));
#994 = DIRECTION('',(0.,0.,1.));
#995 = DIRECTION('',(1.,0.,-0.));
#996 = ADVANCED_FACE('',(#997),#1007,.T.);
#997 = FACE_BOUND('',#998,.F.);
#998 = EDGE_LOOP('',(#999,#1000,#1001,#1002,#1003,#1004,#1005,#1006));
#999 = ORIENTED_EDGE('',*,*,#738,.T.);
#1000 = ORIENTED_EDGE('',*,*,#771,.T.);
#1001 = ORIENTED_EDGE('',*,*,#802,.T.);
#1002 = ORIENTED_EDGE('',*,*,#835,.T.);
#1003 = ORIENTED_EDGE('',*,*,#866,.T.);
#1004 = ORIENTED_EDGE('',*,*,#899,.T.);
#1005 = ORIENTED_EDGE('',*,*,#930,.T.);
#1006 = ORIENTED_EDGE('',*,*,#963,.T.);
#1007 = PLANE('',#1008);
#1008 = AXIS2_PLACEMENT_3D('',#1009,#1010,#1011);
#1009 = CARTESIAN_POINT('',(0.,0.,1.55));
#1010 = DIRECTION('',(0.,0.,1.));
#1011 = DIRECTION('',(1.,0.,-0.));
#1012 = MANIFOLD_SOLID_BREP('',#1013);
#1013 = CLOSED_SHELL('',(#1014,#1056,#1087,#1120,#1151,#1184,#1215,#1248
    ,#1270,#1286));
#1014 = ADVANCED_FACE('',(#1015),#1051,.T.);
#1015 = FACE_BOUND('',#1016,.T.);
#1016 = EDGE_LOOP('',(#1017,#1027,#1036,#1044));
#1017 = ORIENTED_EDGE('',*,*,#1018,.T.);
#1018 = EDGE_CURVE('',#1019,#1021,#1023,.T.);
#1019 = VERTEX_POINT('',#1020);
#1020 = CARTESIAN_POINT('',(9.E-02,0.1,1.51));
#1021 = VERTEX_POINT('',#1022);
#1022 = CARTESIAN_POINT('',(9.E-02,0.1,1.55));
#1023 = LINE('',#1024,#1025);
#1024 = CARTESIAN_POINT('',(9.E-02,0.1,1.51));
#1025 = VECTOR('',#1026,1.);
#1026 = DIRECTION('',(0.,0.,1.));
#1027 = ORIENTED_EDGE('',*,*,#1028,.T.);
#1028 = EDGE_CURVE('',#1021,#1029,#1031,.T.);
#1029 = VERTEX_POINT('',#1030);
#1030 = CARTESIAN_POINT('',(0.19,0.2,1.55));
#1031 = CIRCLE('',#1032,9.999890104896E-02);
#1032 = AXIS2_PLACEMENT_3D('',#1033,#1034,#1035);
#1033 = CARTESIAN_POINT('',(0.189998901043,0.100001098957,1.55));
#1034 = DIRECTION('',(0.,0.,-1.));
#1035 = DIRECTION('',(-0.99999999994,-1.098969153001E-05,-0.));
#1036 = ORIENTED_EDGE('',*,*,#1037,.F.);
#1037 = EDGE_CURVE('',#1038,#1029,#1040,.T.);
#1038 = VERTEX_POINT('',#1039);
#1039 = CARTESIAN_POINT('',(0.19,0.2,1.51));
#1040 = LINE('',#1041,#1042);
#1041 = CARTESIAN_POINT('',(0.19,0.2,1.51));
#1042 = VECTOR('',#1043,1.);
#1043 = DIRECTION('',(0.,0.,1.));
#1044 = ORIENTED_EDGE('',*,*,#1045,.F.);
#1045 = EDGE_CURVE('',#1019,#1038,#1046,.T.);
#1046 = CIRCLE('',#1047,9.999890104896E-02);
#1047 = AXIS2_PLACEMENT_3D('',#1048,#1049,#1050);
#1048 = CARTESIAN_POINT('',(0.189998901043,0.100001098957,1.51));
#1049 = DIRECTION('',(0.,0.,-1.));
#1050 = DIRECTION('',(-0.99999999994,-1.098969153001E-05,-0.));
#1051 = CYLINDRICAL_SURFACE('',#1052,9.999890104896E-02);
#1052 = AXIS2_PLACEMENT_3D('',#1053,#1054,#1055);
#1053 = CARTESIAN_POINT('',(0.189998901043,0.100001098957,1.51));
#1054 = DIRECTION('',(0.,0.,-1.));
#1055 = DIRECTION('',(-0.99999999994,-1.098969153001E-05,-0.));
#1056 = ADVANCED_FACE('',(#1057),#1082,.T.);
#1057 = FACE_BOUND('',#1058,.T.);
#1058 = EDGE_LOOP('',(#1059,#1060,#1068,#1076));
#1059 = ORIENTED_EDGE('',*,*,#1037,.T.);
#1060 = ORIENTED_EDGE('',*,*,#1061,.T.);
#1061 = EDGE_CURVE('',#1029,#1062,#1064,.T.);
#1062 = VERTEX_POINT('',#1063);
#1063 = CARTESIAN_POINT('',(0.45,0.2,1.55));
#1064 = LINE('',#1065,#1066);
#1065 = CARTESIAN_POINT('',(0.19,0.2,1.55));
#1066 = VECTOR('',#1067,1.);
#1067 = DIRECTION('',(1.,0.,0.));
#1068 = ORIENTED_EDGE('',*,*,#1069,.F.);
#1069 = EDGE_CURVE('',#1070,#1062,#1072,.T.);
#1070 = VERTEX_POINT('',#1071);
#1071 = CARTESIAN_POINT('',(0.45,0.2,1.51));
#1072 = LINE('',#1073,#1074);
#1073 = CARTESIAN_POINT('',(0.45,0.2,1.51));
#1074 = VECTOR('',#1075,1.);
#1075 = DIRECTION('',(0.,0.,1.));
#1076 = ORIENTED_EDGE('',*,*,#1077,.F.);
#1077 = EDGE_CURVE('',#1038,#1070,#1078,.T.);
#1078 = LINE('',#1079,#1080);
#1079 = CARTESIAN_POINT('',(0.19,0.2,1.51));
#1080 = VECTOR('',#1081,1.);
#1081 = DIRECTION('',(1.,0.,0.));
#1082 = PLANE('',#1083);
#1083 = AXIS2_PLACEMENT_3D('',#1084,#1085,#1086);
#1084 = CARTESIAN_POINT('',(0.19,0.2,1.51));
#1085 = DIRECTION('',(0.,1.,0.));
#1086 = DIRECTION('',(1.,0.,0.));
#1087 = ADVANCED_FACE('',(#1088),#1115,.T.);
#1088 = FACE_BOUND('',#1089,.T.);
#1089 = EDGE_LOOP('',(#1090,#1091,#1100,#1108));
#1090 = ORIENTED_EDGE('',*,*,#1069,.T.);
#1091 = ORIENTED_EDGE('',*,*,#1092,.T.);
#1092 = EDGE_CURVE('',#1062,#1093,#1095,.T.);
#1093 = VERTEX_POINT('',#1094);
#1094 = CARTESIAN_POINT('',(0.55,0.1,1.55));
#1095 = CIRCLE('',#1096,9.999890104896E-02);
#1096 = AXIS2_PLACEMENT_3D('',#1097,#1098,#1099);
#1097 = CARTESIAN_POINT('',(0.450001098957,0.100001098957,1.55));
#1098 = DIRECTION('',(0.,0.,-1.));
#1099 = DIRECTION('',(-1.098969153084E-05,0.99999999994,0.));
#1100 = ORIENTED_EDGE('',*,*,#1101,.F.);
#1101 = EDGE_CURVE('',#1102,#1093,#1104,.T.);
#1102 = VERTEX_POINT('',#1103);
#1103 = CARTESIAN_POINT('',(0.55,0.1,1.51));
#1104 = LINE('',#1105,#1106);
#1105 = CARTESIAN_POINT('',(0.55,0.1,1.51));
#1106 = VECTOR('',#1107,1.);
#1107 = DIRECTION('',(0.,0.,1.));
#1108 = ORIENTED_EDGE('',*,*,#1109,.F.);
#1109 = EDGE_CURVE('',#1070,#1102,#1110,.T.);
#1110 = CIRCLE('',#1111,9.999890104896E-02);
#1111 = AXIS2_PLACEMENT_3D('',#1112,#1113,#1114);
#1112 = CARTESIAN_POINT('',(0.450001098957,0.100001098957,1.51));
#1113 = DIRECTION('',(0.,0.,-1.));
#1114 = DIRECTION('',(-1.098969153084E-05,0.99999999994,0.));
#1115 = CYLINDRICAL_SURFACE('',#1116,9.999890104896E-02);
#1116 = AXIS2_PLACEMENT_3D('',#1117,#1118,#1119);
#1117 = CARTESIAN_POINT('',(0.450001098957,0.100001098957,1.51));
#1118 = DIRECTION('',(0.,0.,-1.));
#1119 = DIRECTION('',(-1.098969153084E-05,0.99999999994,0.));
#1120 = ADVANCED_FACE('',(#1121),#1146,.T.);
#1121 = FACE_BOUND('',#1122,.T.);
#1122 = EDGE_LOOP('',(#1123,#1124,#1132,#1140));
#1123 = ORIENTED_EDGE('',*,*,#1101,.T.);
#1124 = ORIENTED_EDGE('',*,*,#1125,.T.);
#1125 = EDGE_CURVE('',#1093,#1126,#1128,.T.);
#1126 = VERTEX_POINT('',#1127);
#1127 = CARTESIAN_POINT('',(0.55,-0.1,1.55));
#1128 = LINE('',#1129,#1130);
#1129 = CARTESIAN_POINT('',(0.55,0.1,1.55));
#1130 = VECTOR('',#1131,1.);
#1131 = DIRECTION('',(0.,-1.,0.));
#1132 = ORIENTED_EDGE('',*,*,#1133,.F.);
#1133 = EDGE_CURVE('',#1134,#1126,#1136,.T.);
#1134 = VERTEX_POINT('',#1135);
#1135 = CARTESIAN_POINT('',(0.55,-0.1,1.51));
#1136 = LINE('',#1137,#1138);
#1137 = CARTESIAN_POINT('',(0.55,-0.1,1.51));
#1138 = VECTOR('',#1139,1.);
#1139 = DIRECTION('',(0.,0.,1.));
#1140 = ORIENTED_EDGE('',*,*,#1141,.F.);
#1141 = EDGE_CURVE('',#1102,#1134,#1142,.T.);
#1142 = LINE('',#1143,#1144);
#1143 = CARTESIAN_POINT('',(0.55,0.1,1.51));
#1144 = VECTOR('',#1145,1.);
#1145 = DIRECTION('',(0.,-1.,0.));
#1146 = PLANE('',#1147);
#1147 = AXIS2_PLACEMENT_3D('',#1148,#1149,#1150);
#1148 = CARTESIAN_POINT('',(0.55,0.1,1.51));
#1149 = DIRECTION('',(1.,0.,-0.));
#1150 = DIRECTION('',(0.,-1.,0.));
#1151 = ADVANCED_FACE('',(#1152),#1179,.T.);
#1152 = FACE_BOUND('',#1153,.T.);
#1153 = EDGE_LOOP('',(#1154,#1155,#1164,#1172));
#1154 = ORIENTED_EDGE('',*,*,#1133,.T.);
#1155 = ORIENTED_EDGE('',*,*,#1156,.T.);
#1156 = EDGE_CURVE('',#1126,#1157,#1159,.T.);
#1157 = VERTEX_POINT('',#1158);
#1158 = CARTESIAN_POINT('',(0.45,-0.2,1.55));
#1159 = CIRCLE('',#1160,9.999890104896E-02);
#1160 = AXIS2_PLACEMENT_3D('',#1161,#1162,#1163);
#1161 = CARTESIAN_POINT('',(0.450001098957,-0.100001098957,1.55));
#1162 = DIRECTION('',(0.,0.,-1.));
#1163 = DIRECTION('',(0.99999999994,1.098969153029E-05,0.));
#1164 = ORIENTED_EDGE('',*,*,#1165,.F.);
#1165 = EDGE_CURVE('',#1166,#1157,#1168,.T.);
#1166 = VERTEX_POINT('',#1167);
#1167 = CARTESIAN_POINT('',(0.45,-0.2,1.51));
#1168 = LINE('',#1169,#1170);
#1169 = CARTESIAN_POINT('',(0.45,-0.2,1.51));
#1170 = VECTOR('',#1171,1.);
#1171 = DIRECTION('',(0.,0.,1.));
#1172 = ORIENTED_EDGE('',*,*,#1173,.F.);
#1173 = EDGE_CURVE('',#1134,#1166,#1174,.T.);
#1174 = CIRCLE('',#1175,9.999890104896E-02);
#1175 = AXIS2_PLACEMENT_3D('',#1176,#1177,#1178);
#1176 = CARTESIAN_POINT('',(0.450001098957,-0.100001098957,1.51));
#1177 = DIRECTION('',(0.,0.,-1.));
#1178 = DIRECTION('',(0.99999999994,1.098969153029E-05,0.));
#1179 = CYLINDRICAL_SURFACE('',#1180,9.999890104896E-02);
#1180 = AXIS2_PLACEMENT_3D('',#1181,#1182,#1183);
#1181 = CARTESIAN_POINT('',(0.450001098957,-0.100001098957,1.51));
#1182 = DIRECTION('',(0.,0.,-1.));
#1183 = DIRECTION('',(0.99999999994,1.098969153029E-05,0.));
#1184 = ADVANCED_FACE('',(#1185),#1210,.T.);
#1185 = FACE_BOUND('',#1186,.T.);
#1186 = EDGE_LOOP('',(#1187,#1188,#1196,#1204));
#1187 = ORIENTED_EDGE('',*,*,#1165,.T.);
#1188 = ORIENTED_EDGE('',*,*,#1189,.T.);
#1189 = EDGE_CURVE('',#1157,#1190,#1192,.T.);
#1190 = VERTEX_POINT('',#1191);
#1191 = CARTESIAN_POINT('',(0.19,-0.2,1.55));
#1192 = LINE('',#1193,#1194);
#1193 = CARTESIAN_POINT('',(0.45,-0.2,1.55));
#1194 = VECTOR('',#1195,1.);
#1195 = DIRECTION('',(-1.,0.,0.));
#1196 = ORIENTED_EDGE('',*,*,#1197,.F.);
#1197 = EDGE_CURVE('',#1198,#1190,#1200,.T.);
#1198 = VERTEX_POINT('',#1199);
#1199 = CARTESIAN_POINT('',(0.19,-0.2,1.51));
#1200 = LINE('',#1201,#1202);
#1201 = CARTESIAN_POINT('',(0.19,-0.2,1.51));
#1202 = VECTOR('',#1203,1.);
#1203 = DIRECTION('',(0.,0.,1.));
#1204 = ORIENTED_EDGE('',*,*,#1205,.F.);
#1205 = EDGE_CURVE('',#1166,#1198,#1206,.T.);
#1206 = LINE('',#1207,#1208);
#1207 = CARTESIAN_POINT('',(0.45,-0.2,1.51));
#1208 = VECTOR('',#1209,1.);
#1209 = DIRECTION('',(-1.,0.,0.));
#1210 = PLANE('',#1211);
#1211 = AXIS2_PLACEMENT_3D('',#1212,#1213,#1214);
#1212 = CARTESIAN_POINT('',(0.45,-0.2,1.51));
#1213 = DIRECTION('',(0.,-1.,0.));
#1214 = DIRECTION('',(-1.,0.,0.));
#1215 = ADVANCED_FACE('',(#1216),#1243,.T.);
#1216 = FACE_BOUND('',#1217,.T.);
#1217 = EDGE_LOOP('',(#1218,#1219,#1228,#1236));
#1218 = ORIENTED_EDGE('',*,*,#1197,.T.);
#1219 = ORIENTED_EDGE('',*,*,#1220,.T.);
#1220 = EDGE_CURVE('',#1190,#1221,#1223,.T.);
#1221 = VERTEX_POINT('',#1222);
#1222 = CARTESIAN_POINT('',(9.E-02,-0.1,1.55));
#1223 = CIRCLE('',#1224,9.999890104896E-02);
#1224 = AXIS2_PLACEMENT_3D('',#1225,#1226,#1227);
#1225 = CARTESIAN_POINT('',(0.189998901043,-0.100001098957,1.55));
#1226 = DIRECTION('',(0.,0.,-1.));
#1227 = DIRECTION('',(1.098969152973E-05,-0.99999999994,0.));
#1228 = ORIENTED_EDGE('',*,*,#1229,.F.);
#1229 = EDGE_CURVE('',#1230,#1221,#1232,.T.);
#1230 = VERTEX_POINT('',#1231);
#1231 = CARTESIAN_POINT('',(9.E-02,-0.1,1.51));
#1232 = LINE('',#1233,#1234);
#1233 = CARTESIAN_POINT('',(9.E-02,-0.1,1.51));
#1234 = VECTOR('',#1235,1.);
#1235 = DIRECTION('',(0.,0.,1.));
#1236 = ORIENTED_EDGE('',*,*,#1237,.F.);
#1237 = EDGE_CURVE('',#1198,#1230,#1238,.T.);
#1238 = CIRCLE('',#1239,9.999890104896E-02);
#1239 = AXIS2_PLACEMENT_3D('',#1240,#1241,#1242);
#1240 = CARTESIAN_POINT('',(0.189998901043,-0.100001098957,1.51));
#1241 = DIRECTION('',(0.,0.,-1.));
#1242 = DIRECTION('',(1.098969152973E-05,-0.99999999994,0.));
#1243 = CYLINDRICAL_SURFACE('',#1244,9.999890104896E-02);
#1244 = AXIS2_PLACEMENT_3D('',#1245,#1246,#1247);
#1245 = CARTESIAN_POINT('',(0.189998901043,-0.100001098957,1.51));
#1246 = DIRECTION('',(0.,0.,-1.));
#1247 = DIRECTION('',(1.098969152973E-05,-0.99999999994,0.));
#1248 = ADVANCED_FACE('',(#1249),#1265,.T.);
#1249 = FACE_BOUND('',#1250,.T.);
#1250 = EDGE_LOOP('',(#1251,#1252,#1258,#1259));
#1251 = ORIENTED_EDGE('',*,*,#1229,.T.);
#1252 = ORIENTED_EDGE('',*,*,#1253,.T.);
#1253 = EDGE_CURVE('',#1221,#1021,#1254,.T.);
#1254 = LINE('',#1255,#1256);
#1255 = CARTESIAN_POINT('',(9.E-02,-0.1,1.55));
#1256 = VECTOR('',#1257,1.);
#1257 = DIRECTION('',(0.,1.,0.));
#1258 = ORIENTED_EDGE('',*,*,#1018,.F.);
#1259 = ORIENTED_EDGE('',*,*,#1260,.F.);
#1260 = EDGE_CURVE('',#1230,#1019,#1261,.T.);
#1261 = LINE('',#1262,#1263);
#1262 = CARTESIAN_POINT('',(9.E-02,-0.1,1.51));
#1263 = VECTOR('',#1264,1.);
#1264 = DIRECTION('',(0.,1.,0.));
#1265 = PLANE('',#1266);
#1266 = AXIS2_PLACEMENT_3D('',#1267,#1268,#1269);
#1267 = CARTESIAN_POINT('',(9.E-02,-0.1,1.51));
#1268 = DIRECTION('',(-1.,0.,0.));
#1269 = DIRECTION('',(0.,1.,0.));
#1270 = ADVANCED_FACE('',(#1271),#1281,.F.);
#1271 = FACE_BOUND('',#1272,.T.);
#1272 = EDGE_LOOP('',(#1273,#1274,#1275,#1276,#1277,#1278,#1279,#1280));
#1273 = ORIENTED_EDGE('',*,*,#1045,.T.);
#1274 = ORIENTED_EDGE('',*,*,#1077,.T.);
#1275 = ORIENTED_EDGE('',*,*,#1109,.T.);
#1276 = ORIENTED_EDGE('',*,*,#1141,.T.);
#1277 = ORIENTED_EDGE('',*,*,#1173,.T.);
#1278 = ORIENTED_EDGE('',*,*,#1205,.T.);
#1279 = ORIENTED_EDGE('',*,*,#1237,.T.);
#1280 = ORIENTED_EDGE('',*,*,#1260,.T.);
#1281 = PLANE('',#1282);
#1282 = AXIS2_PLACEMENT_3D('',#1283,#1284,#1285);
#1283 = CARTESIAN_POINT('',(0.,0.,1.51));
#1284 = DIRECTION('',(0.,0.,1.));
#1285 = DIRECTION('',(1.,0.,-0.));
#1286 = ADVANCED_FACE('',(#1287),#1297,.T.);
#1287 = FACE_BOUND('',#1288,.F.);
#1288 = EDGE_LOOP('',(#1289,#1290,#1291,#1292,#1293,#1294,#1295,#1296));
#1289 = ORIENTED_EDGE('',*,*,#1028,.T.);
#1290 = ORIENTED_EDGE('',*,*,#1061,.T.);
#1291 = ORIENTED_EDGE('',*,*,#1092,.T.);
#1292 = ORIENTED_EDGE('',*,*,#1125,.T.);
#1293 = ORIENTED_EDGE('',*,*,#1156,.T.);
#1294 = ORIENTED_EDGE('',*,*,#1189,.T.);
#1295 = ORIENTED_EDGE('',*,*,#1220,.T.);
#1296 = ORIENTED_EDGE('',*,*,#1253,.T.);
#1297 = PLANE('',#1298);
#1298 = AXIS2_PLACEMENT_3D('',#1299,#1300,#1301);
#1299 = CARTESIAN_POINT('',(0.,0.,1.55));
#1300 = DIRECTION('',(0.,0.,1.));
#1301 = DIRECTION('',(1.,0.,-0.));
#1302 = ( GEOMETRIC_REPRESENTATION_CONTEXT(3) 
GLOBAL_UNCERTAINTY_ASSIGNED_CONTEXT((#1306)) 
GLOBAL_UNIT_ASSIGNED_CONTEXT((#1303,#1304,#1305)) REPRESENTATION_CONTEXT
('Context #1','3D Context with UNIT and UNCERTAINTY') );
#1303 = ( LENGTH_UNIT() NAMED_UNIT(*) SI_UNIT(.MILLI.,.METRE.) );
#1304 = ( NAMED_UNIT(*) PLANE_ANGLE_UNIT() SI_UNIT($,.RADIAN.) );
#1305 = ( NAMED_UNIT(*) SI_UNIT($,.STERADIAN.) SOLID_ANGLE_UNIT() );
#1306 = UNCERTAINTY_MEASURE_WITH_UNIT(LENGTH_MEASURE(1.E-07),#1303,
  'distance_accuracy_value','confusion accuracy');
#1307 = CONTEXT_DEPENDENT_SHAPE_REPRESENTATION(#1308,#1310);
#1308 = ( REPRESENTATION_RELATIONSHIP('','',#721,#10) 
REPRESENTATION_RELATIONSHIP_WITH_TRANSFORMATION(#1309) 
SHAPE_REPRESENTATION_RELATIONSHIP() );
#1309 = ITEM_DEFINED_TRANSFORMATION('','',#11,#19);
#1310 = PRODUCT_DEFINITION_SHAPE('Placement','Placement of an item',
  #1311);
#1311 = NEXT_ASSEMBLY_USAGE_OCCURRENCE('3','=>[0:1:1:4]','',#5,#716,$);
#1312 = PRODUCT_RELATED_PRODUCT_CATEGORY('part',$,(#718));
#1313 = SHAPE_DEFINITION_REPRESENTATION(#1314,#1320);
#1314 = PRODUCT_DEFINITION_SHAPE('','',#1315);
#1315 = PRODUCT_DEFINITION('design','',#1316,#1319);
#1316 = PRODUCT_DEFINITION_FORMATION('','',#1317);
#1317 = PRODUCT('electronic_led_0201_green_tint_render_PCB',
  'electronic_led_0201_green_tint_render_PCB','',(#1318));
#1318 = PRODUCT_CONTEXT('',#2,'mechanical');
#1319 = PRODUCT_DEFINITION_CONTEXT('part definition',#2,'design');
#1320 = ADVANCED_BREP_SHAPE_REPRESENTATION('',(#11,#1321),#1471);
#1321 = MANIFOLD_SOLID_BREP('',#1322);
#1322 = CLOSED_SHELL('',(#1323,#1363,#1394,#1425,#1447,#1459));
#1323 = ADVANCED_FACE('',(#1324),#1358,.T.);
#1324 = FACE_BOUND('',#1325,.T.);
#1325 = EDGE_LOOP('',(#1326,#1336,#1344,#1352));
#1326 = ORIENTED_EDGE('',*,*,#1327,.T.);
#1327 = EDGE_CURVE('',#1328,#1330,#1332,.T.);
#1328 = VERTEX_POINT('',#1329);
#1329 = CARTESIAN_POINT('',(2.7,-2.35,0.));
#1330 = VERTEX_POINT('',#1331);
#1331 = CARTESIAN_POINT('',(2.7,-2.35,1.51));
#1332 = LINE('',#1333,#1334);
#1333 = CARTESIAN_POINT('',(2.7,-2.35,0.));
#1334 = VECTOR('',#1335,1.);
#1335 = DIRECTION('',(0.,0.,1.));
#1336 = ORIENTED_EDGE('',*,*,#1337,.T.);
#1337 = EDGE_CURVE('',#1330,#1338,#1340,.T.);
#1338 = VERTEX_POINT('',#1339);
#1339 = CARTESIAN_POINT('',(-2.7,-2.35,1.51));
#1340 = LINE('',#1341,#1342);
#1341 = CARTESIAN_POINT('',(2.7,-2.35,1.51));
#1342 = VECTOR('',#1343,1.);
#1343 = DIRECTION('',(-1.,0.,0.));
#1344 = ORIENTED_EDGE('',*,*,#1345,.F.);
#1345 = EDGE_CURVE('',#1346,#1338,#1348,.T.);
#1346 = VERTEX_POINT('',#1347);
#1347 = CARTESIAN_POINT('',(-2.7,-2.35,0.));
#1348 = LINE('',#1349,#1350);
#1349 = CARTESIAN_POINT('',(-2.7,-2.35,0.));
#1350 = VECTOR('',#1351,1.);
#1351 = DIRECTION('',(0.,0.,1.));
#1352 = ORIENTED_EDGE('',*,*,#1353,.F.);
#1353 = EDGE_CURVE('',#1328,#1346,#1354,.T.);
#1354 = LINE('',#1355,#1356);
#1355 = CARTESIAN_POINT('',(2.7,-2.35,0.));
#1356 = VECTOR('',#1357,1.);
#1357 = DIRECTION('',(-1.,0.,0.));
#1358 = PLANE('',#1359);
#1359 = AXIS2_PLACEMENT_3D('',#1360,#1361,#1362);
#1360 = CARTESIAN_POINT('',(2.7,-2.35,0.));
#1361 = DIRECTION('',(0.,-1.,0.));
#1362 = DIRECTION('',(-1.,0.,0.));
#1363 = ADVANCED_FACE('',(#1364),#1389,.T.);
#1364 = FACE_BOUND('',#1365,.T.);
#1365 = EDGE_LOOP('',(#1366,#1367,#1375,#1383));
#1366 = ORIENTED_EDGE('',*,*,#1345,.T.);
#1367 = ORIENTED_EDGE('',*,*,#1368,.T.);
#1368 = EDGE_CURVE('',#1338,#1369,#1371,.T.);
#1369 = VERTEX_POINT('',#1370);
#1370 = CARTESIAN_POINT('',(-2.7,2.35,1.51));
#1371 = LINE('',#1372,#1373);
#1372 = CARTESIAN_POINT('',(-2.7,-2.35,1.51));
#1373 = VECTOR('',#1374,1.);
#1374 = DIRECTION('',(0.,1.,0.));
#1375 = ORIENTED_EDGE('',*,*,#1376,.F.);
#1376 = EDGE_CURVE('',#1377,#1369,#1379,.T.);
#1377 = VERTEX_POINT('',#1378);
#1378 = CARTESIAN_POINT('',(-2.7,2.35,0.));
#1379 = LINE('',#1380,#1381);
#1380 = CARTESIAN_POINT('',(-2.7,2.35,0.));
#1381 = VECTOR('',#1382,1.);
#1382 = DIRECTION('',(0.,0.,1.));
#1383 = ORIENTED_EDGE('',*,*,#1384,.F.);
#1384 = EDGE_CURVE('',#1346,#1377,#1385,.T.);
#1385 = LINE('',#1386,#1387);
#1386 = CARTESIAN_POINT('',(-2.7,-2.35,0.));
#1387 = VECTOR('',#1388,1.);
#1388 = DIRECTION('',(0.,1.,0.));
#1389 = PLANE('',#1390);
#1390 = AXIS2_PLACEMENT_3D('',#1391,#1392,#1393);
#1391 = CARTESIAN_POINT('',(-2.7,-2.35,0.));
#1392 = DIRECTION('',(-1.,0.,0.));
#1393 = DIRECTION('',(0.,1.,0.));
#1394 = ADVANCED_FACE('',(#1395),#1420,.T.);
#1395 = FACE_BOUND('',#1396,.T.);
#1396 = EDGE_LOOP('',(#1397,#1398,#1406,#1414));
#1397 = ORIENTED_EDGE('',*,*,#1376,.T.);
#1398 = ORIENTED_EDGE('',*,*,#1399,.T.);
#1399 = EDGE_CURVE('',#1369,#1400,#1402,.T.);
#1400 = VERTEX_POINT('',#1401);
#1401 = CARTESIAN_POINT('',(2.7,2.35,1.51));
#1402 = LINE('',#1403,#1404);
#1403 = CARTESIAN_POINT('',(-2.7,2.35,1.51));
#1404 = VECTOR('',#1405,1.);
#1405 = DIRECTION('',(1.,0.,0.));
#1406 = ORIENTED_EDGE('',*,*,#1407,.F.);
#1407 = EDGE_CURVE('',#1408,#1400,#1410,.T.);
#1408 = VERTEX_POINT('',#1409);
#1409 = CARTESIAN_POINT('',(2.7,2.35,0.));
#1410 = LINE('',#1411,#1412);
#1411 = CARTESIAN_POINT('',(2.7,2.35,0.));
#1412 = VECTOR('',#1413,1.);
#1413 = DIRECTION('',(0.,0.,1.));
#1414 = ORIENTED_EDGE('',*,*,#1415,.F.);
#1415 = EDGE_CURVE('',#1377,#1408,#1416,.T.);
#1416 = LINE('',#1417,#1418);
#1417 = CARTESIAN_POINT('',(-2.7,2.35,0.));
#1418 = VECTOR('',#1419,1.);
#1419 = DIRECTION('',(1.,0.,0.));
#1420 = PLANE('',#1421);
#1421 = AXIS2_PLACEMENT_3D('',#1422,#1423,#1424);
#1422 = CARTESIAN_POINT('',(-2.7,2.35,0.));
#1423 = DIRECTION('',(0.,1.,0.));
#1424 = DIRECTION('',(1.,0.,0.));
#1425 = ADVANCED_FACE('',(#1426),#1442,.T.);
#1426 = FACE_BOUND('',#1427,.T.);
#1427 = EDGE_LOOP('',(#1428,#1429,#1435,#1436));
#1428 = ORIENTED_EDGE('',*,*,#1407,.T.);
#1429 = ORIENTED_EDGE('',*,*,#1430,.T.);
#1430 = EDGE_CURVE('',#1400,#1330,#1431,.T.);
#1431 = LINE('',#1432,#1433);
#1432 = CARTESIAN_POINT('',(2.7,2.35,1.51));
#1433 = VECTOR('',#1434,1.);
#1434 = DIRECTION('',(0.,-1.,0.));
#1435 = ORIENTED_EDGE('',*,*,#1327,.F.);
#1436 = ORIENTED_EDGE('',*,*,#1437,.F.);
#1437 = EDGE_CURVE('',#1408,#1328,#1438,.T.);
#1438 = LINE('',#1439,#1440);
#1439 = CARTESIAN_POINT('',(2.7,2.35,0.));
#1440 = VECTOR('',#1441,1.);
#1441 = DIRECTION('',(0.,-1.,0.));
#1442 = PLANE('',#1443);
#1443 = AXIS2_PLACEMENT_3D('',#1444,#1445,#1446);
#1444 = CARTESIAN_POINT('',(2.7,2.35,0.));
#1445 = DIRECTION('',(1.,0.,-0.));
#1446 = DIRECTION('',(0.,-1.,0.));
#1447 = ADVANCED_FACE('',(#1448),#1454,.F.);
#1448 = FACE_BOUND('',#1449,.T.);
#1449 = EDGE_LOOP('',(#1450,#1451,#1452,#1453));
#1450 = ORIENTED_EDGE('',*,*,#1353,.T.);
#1451 = ORIENTED_EDGE('',*,*,#1384,.T.);
#1452 = ORIENTED_EDGE('',*,*,#1415,.T.);
#1453 = ORIENTED_EDGE('',*,*,#1437,.T.);
#1454 = PLANE('',#1455);
#1455 = AXIS2_PLACEMENT_3D('',#1456,#1457,#1458);
#1456 = CARTESIAN_POINT('',(0.,0.,0.));
#1457 = DIRECTION('',(0.,0.,1.));
#1458 = DIRECTION('',(1.,0.,-0.));
#1459 = ADVANCED_FACE('',(#1460),#1466,.T.);
#1460 = FACE_BOUND('',#1461,.F.);
#1461 = EDGE_LOOP('',(#1462,#1463,#1464,#1465));
#1462 = ORIENTED_EDGE('',*,*,#1337,.T.);
#1463 = ORIENTED_EDGE('',*,*,#1368,.T.);
#1464 = ORIENTED_EDGE('',*,*,#1399,.T.);
#1465 = ORIENTED_EDGE('',*,*,#1430,.T.);
#1466 = PLANE('',#1467);
#1467 = AXIS2_PLACEMENT_3D('',#1468,#1469,#1470);
#1468 = CARTESIAN_POINT('',(0.,0.,1.51));
#1469 = DIRECTION('',(0.,0.,1.));
#1470 = DIRECTION('',(1.,0.,-0.));
#1471 = ( GEOMETRIC_REPRESENTATION_CONTEXT(3) 
GLOBAL_UNCERTAINTY_ASSIGNED_CONTEXT((#1475)) 
GLOBAL_UNIT_ASSIGNED_CONTEXT((#1472,#1473,#1474)) REPRESENTATION_CONTEXT
('Context #1','3D Context with UNIT and UNCERTAINTY') );
#1472 = ( LENGTH_UNIT() NAMED_UNIT(*) SI_UNIT(.MILLI.,.METRE.) );
#1473 = ( NAMED_UNIT(*) PLANE_ANGLE_UNIT() SI_UNIT($,.RADIAN.) );
#1474 = ( NAMED_UNIT(*) SI_UNIT($,.STERADIAN.) SOLID_ANGLE_UNIT() );
#1475 = UNCERTAINTY_MEASURE_WITH_UNIT(LENGTH_MEASURE(1.E-07),#1472,
  'distance_accuracy_value','confusion accuracy');
#1476 = CONTEXT_DEPENDENT_SHAPE_REPRESENTATION(#1477,#1479);
#1477 = ( REPRESENTATION_RELATIONSHIP('','',#1320,#10) 
REPRESENTATION_RELATIONSHIP_WITH_TRANSFORMATION(#1478) 
SHAPE_REPRESENTATION_RELATIONSHIP() );
#1478 = ITEM_DEFINED_TRANSFORMATION('','',#11,#23);
#1479 = PRODUCT_DEFINITION_SHAPE('Placement','Placement of an item',
  #1480);
#1480 = NEXT_ASSEMBLY_USAGE_OCCURRENCE('4','=>[0:1:1:5]','',#5,#1315,$);
#1481 = PRODUCT_RELATED_PRODUCT_CATEGORY('part',$,(#1317));
#1482 = MECHANICAL_DESIGN_GEOMETRIC_PRESENTATION_REPRESENTATION('',(
    #1483),#1471);
#1483 = STYLED_ITEM('color',(#1484),#1321);
#1484 = PRESENTATION_STYLE_ASSIGNMENT((#1485));
#1485 = SURFACE_STYLE_USAGE(.BOTH.,#1486);
#1486 = SURFACE_SIDE_STYLE('',(#1487));
#1487 = SURFACE_STYLE_FILL_AREA(#1488);
#1488 = FILL_AREA_STYLE('',(#1489));
#1489 = FILL_AREA_STYLE_COLOUR('',#1490);
#1490 = COLOUR_RGB('',0.313304153717,0.484529207832,0.410020903123);
#1491 = MECHANICAL_DESIGN_GEOMETRIC_PRESENTATION_REPRESENTATION('',(
    #1492,#1500),#1302);
#1492 = STYLED_ITEM('color',(#1493),#722);
#1493 = PRESENTATION_STYLE_ASSIGNMENT((#1494));
#1494 = SURFACE_STYLE_USAGE(.BOTH.,#1495);
#1495 = SURFACE_SIDE_STYLE('',(#1496));
#1496 = SURFACE_STYLE_FILL_AREA(#1497);
#1497 = FILL_AREA_STYLE('',(#1498));
#1498 = FILL_AREA_STYLE_COLOUR('',#1499);
#1499 = COLOUR_RGB('',0.735356983052,0.735356983052,0.735356983052);
#1500 = STYLED_ITEM('color',(#1501),#1012);
#1501 = PRESENTATION_STYLE_ASSIGNMENT((#1502));
#1502 = SURFACE_STYLE_USAGE(.BOTH.,#1503);
#1503 = SURFACE_SIDE_STYLE('',(#1504));
#1504 = SURFACE_STYLE_FILL_AREA(#1505);
#1505 = FILL_AREA_STYLE('',(#1506));
#1506 = FILL_AREA_STYLE_COLOUR('',#1499);
#1507 = MECHANICAL_DESIGN_GEOMETRIC_PRESENTATION_REPRESENTATION('',(
    #1508,#1516,#1523,#1530,#1537,#1544,#1551,#1558,#1566,#1573,#1580,
    #1587,#1594,#1601,#1608,#1615,#1623,#1630,#1637,#1644,#1651,#1658,
    #1665,#1672),#703);
#1508 = STYLED_ITEM('color',(#1509),#66);
#1509 = PRESENTATION_STYLE_ASSIGNMENT((#1510));
#1510 = SURFACE_STYLE_USAGE(.BOTH.,#1511);
#1511 = SURFACE_SIDE_STYLE('',(#1512));
#1512 = SURFACE_STYLE_FILL_AREA(#1513);
#1513 = FILL_AREA_STYLE('',(#1514));
#1514 = FILL_AREA_STYLE_COLOUR('',#1515);
#1515 = COLOUR_RGB('',0.894999966383,0.890999961016,0.813000030345);
#1516 = STYLED_ITEM('color',(#1517),#106);
#1517 = PRESENTATION_STYLE_ASSIGNMENT((#1518));
#1518 = SURFACE_STYLE_USAGE(.BOTH.,#1519);
#1519 = SURFACE_SIDE_STYLE('',(#1520));
#1520 = SURFACE_STYLE_FILL_AREA(#1521);
#1521 = FILL_AREA_STYLE('',(#1522));
#1522 = FILL_AREA_STYLE_COLOUR('',#1515);
#1523 = STYLED_ITEM('color',(#1524),#137);
#1524 = PRESENTATION_STYLE_ASSIGNMENT((#1525));
#1525 = SURFACE_STYLE_USAGE(.BOTH.,#1526);
#1526 = SURFACE_SIDE_STYLE('',(#1527));
#1527 = SURFACE_STYLE_FILL_AREA(#1528);
#1528 = FILL_AREA_STYLE('',(#1529));
#1529 = FILL_AREA_STYLE_COLOUR('',#1515);
#1530 = STYLED_ITEM('color',(#1531),#255);
#1531 = PRESENTATION_STYLE_ASSIGNMENT((#1532));
#1532 = SURFACE_STYLE_USAGE(.BOTH.,#1533);
#1533 = SURFACE_SIDE_STYLE('',(#1534));
#1534 = SURFACE_STYLE_FILL_AREA(#1535);
#1535 = FILL_AREA_STYLE('',(#1536));
#1536 = FILL_AREA_STYLE_COLOUR('',#1515);
#1537 = STYLED_ITEM('color',(#1538),#286);
#1538 = PRESENTATION_STYLE_ASSIGNMENT((#1539));
#1539 = SURFACE_STYLE_USAGE(.BOTH.,#1540);
#1540 = SURFACE_SIDE_STYLE('',(#1541));
#1541 = SURFACE_STYLE_FILL_AREA(#1542);
#1542 = FILL_AREA_STYLE('',(#1543));
#1543 = FILL_AREA_STYLE_COLOUR('',#1515);
#1544 = STYLED_ITEM('color',(#1545),#310);
#1545 = PRESENTATION_STYLE_ASSIGNMENT((#1546));
#1546 = SURFACE_STYLE_USAGE(.BOTH.,#1547);
#1547 = SURFACE_SIDE_STYLE('',(#1548));
#1548 = SURFACE_STYLE_FILL_AREA(#1549);
#1549 = FILL_AREA_STYLE('',(#1550));
#1550 = FILL_AREA_STYLE_COLOUR('',#1515);
#1551 = STYLED_ITEM('color',(#1552),#327);
#1552 = PRESENTATION_STYLE_ASSIGNMENT((#1553));
#1553 = SURFACE_STYLE_USAGE(.BOTH.,#1554);
#1554 = SURFACE_SIDE_STYLE('',(#1555));
#1555 = SURFACE_STYLE_FILL_AREA(#1556);
#1556 = FILL_AREA_STYLE('',(#1557));
#1557 = FILL_AREA_STYLE_COLOUR('',#1515);
#1558 = STYLED_ITEM('color',(#1559),#351);
#1559 = PRESENTATION_STYLE_ASSIGNMENT((#1560));
#1560 = SURFACE_STYLE_USAGE(.BOTH.,#1561);
#1561 = SURFACE_SIDE_STYLE('',(#1562));
#1562 = SURFACE_STYLE_FILL_AREA(#1563);
#1563 = FILL_AREA_STYLE('',(#1564));
#1564 = FILL_AREA_STYLE_COLOUR('',#1565);
#1565 = COLOUR_RGB('',0.859000020776,0.737999965183,0.495999988746);
#1566 = STYLED_ITEM('color',(#1567),#382);
#1567 = PRESENTATION_STYLE_ASSIGNMENT((#1568));
#1568 = SURFACE_STYLE_USAGE(.BOTH.,#1569);
#1569 = SURFACE_SIDE_STYLE('',(#1570));
#1570 = SURFACE_STYLE_FILL_AREA(#1571);
#1571 = FILL_AREA_STYLE('',(#1572));
#1572 = FILL_AREA_STYLE_COLOUR('',#1565);
#1573 = STYLED_ITEM('color',(#1574),#406);
#1574 = PRESENTATION_STYLE_ASSIGNMENT((#1575));
#1575 = SURFACE_STYLE_USAGE(.BOTH.,#1576);
#1576 = SURFACE_SIDE_STYLE('',(#1577));
#1577 = SURFACE_STYLE_FILL_AREA(#1578);
#1578 = FILL_AREA_STYLE('',(#1579));
#1579 = FILL_AREA_STYLE_COLOUR('',#1565);
#1580 = STYLED_ITEM('color',(#1581),#430);
#1581 = PRESENTATION_STYLE_ASSIGNMENT((#1582));
#1582 = SURFACE_STYLE_USAGE(.BOTH.,#1583);
#1583 = SURFACE_SIDE_STYLE('',(#1584));
#1584 = SURFACE_STYLE_FILL_AREA(#1585);
#1585 = FILL_AREA_STYLE('',(#1586));
#1586 = FILL_AREA_STYLE_COLOUR('',#1565);
#1587 = STYLED_ITEM('color',(#1588),#447);
#1588 = PRESENTATION_STYLE_ASSIGNMENT((#1589));
#1589 = SURFACE_STYLE_USAGE(.BOTH.,#1590);
#1590 = SURFACE_SIDE_STYLE('',(#1591));
#1591 = SURFACE_STYLE_FILL_AREA(#1592);
#1592 = FILL_AREA_STYLE('',(#1593));
#1593 = FILL_AREA_STYLE_COLOUR('',#1565);
#1594 = STYLED_ITEM('color',(#1595),#478);
#1595 = PRESENTATION_STYLE_ASSIGNMENT((#1596));
#1596 = SURFACE_STYLE_USAGE(.BOTH.,#1597);
#1597 = SURFACE_SIDE_STYLE('',(#1598));
#1598 = SURFACE_STYLE_FILL_AREA(#1599);
#1599 = FILL_AREA_STYLE('',(#1600));
#1600 = FILL_AREA_STYLE_COLOUR('',#1565);
#1601 = STYLED_ITEM('color',(#1602),#502);
#1602 = PRESENTATION_STYLE_ASSIGNMENT((#1603));
#1603 = SURFACE_STYLE_USAGE(.BOTH.,#1604);
#1604 = SURFACE_SIDE_STYLE('',(#1605));
#1605 = SURFACE_STYLE_FILL_AREA(#1606);
#1606 = FILL_AREA_STYLE('',(#1607));
#1607 = FILL_AREA_STYLE_COLOUR('',#1565);
#1608 = STYLED_ITEM('color',(#1609),#526);
#1609 = PRESENTATION_STYLE_ASSIGNMENT((#1610));
#1610 = SURFACE_STYLE_USAGE(.BOTH.,#1611);
#1611 = SURFACE_SIDE_STYLE('',(#1612));
#1612 = SURFACE_STYLE_FILL_AREA(#1613);
#1613 = FILL_AREA_STYLE('',(#1614));
#1614 = FILL_AREA_STYLE_COLOUR('',#1565);
#1615 = STYLED_ITEM('color',(#1616),#543);
#1616 = PRESENTATION_STYLE_ASSIGNMENT((#1617));
#1617 = SURFACE_STYLE_USAGE(.BOTH.,#1618);
#1618 = SURFACE_SIDE_STYLE('',(#1619));
#1619 = SURFACE_STYLE_FILL_AREA(#1620);
#1620 = FILL_AREA_STYLE('',(#1621));
#1621 = FILL_AREA_STYLE_COLOUR('',#1622);
#1622 = COLOUR_RGB('',0.340000006699,0.68000001254,0.444999988852);
#1623 = STYLED_ITEM('color',(#1624),#574);
#1624 = PRESENTATION_STYLE_ASSIGNMENT((#1625));
#1625 = SURFACE_STYLE_USAGE(.BOTH.,#1626);
#1626 = SURFACE_SIDE_STYLE('',(#1627));
#1627 = SURFACE_STYLE_FILL_AREA(#1628);
#1628 = FILL_AREA_STYLE('',(#1629));
#1629 = FILL_AREA_STYLE_COLOUR('',#1622);
#1630 = STYLED_ITEM('color',(#1631),#598);
#1631 = PRESENTATION_STYLE_ASSIGNMENT((#1632));
#1632 = SURFACE_STYLE_USAGE(.BOTH.,#1633);
#1633 = SURFACE_SIDE_STYLE('',(#1634));
#1634 = SURFACE_STYLE_FILL_AREA(#1635);
#1635 = FILL_AREA_STYLE('',(#1636));
#1636 = FILL_AREA_STYLE_COLOUR('',#1622);
#1637 = STYLED_ITEM('color',(#1638),#615);
#1638 = PRESENTATION_STYLE_ASSIGNMENT((#1639));
#1639 = SURFACE_STYLE_USAGE(.BOTH.,#1640);
#1640 = SURFACE_SIDE_STYLE('',(#1641));
#1641 = SURFACE_STYLE_FILL_AREA(#1642);
#1642 = FILL_AREA_STYLE('',(#1643));
#1643 = FILL_AREA_STYLE_COLOUR('',#1515);
#1644 = STYLED_ITEM('color',(#1645),#639);
#1645 = PRESENTATION_STYLE_ASSIGNMENT((#1646));
#1646 = SURFACE_STYLE_USAGE(.BOTH.,#1647);
#1647 = SURFACE_SIDE_STYLE('',(#1648));
#1648 = SURFACE_STYLE_FILL_AREA(#1649);
#1649 = FILL_AREA_STYLE('',(#1650));
#1650 = FILL_AREA_STYLE_COLOUR('',#1515);
#1651 = STYLED_ITEM('color',(#1652),#656);
#1652 = PRESENTATION_STYLE_ASSIGNMENT((#1653));
#1653 = SURFACE_STYLE_USAGE(.BOTH.,#1654);
#1654 = SURFACE_SIDE_STYLE('',(#1655));
#1655 = SURFACE_STYLE_FILL_AREA(#1656);
#1656 = FILL_AREA_STYLE('',(#1657));
#1657 = FILL_AREA_STYLE_COLOUR('',#1515);
#1658 = STYLED_ITEM('color',(#1659),#668);
#1659 = PRESENTATION_STYLE_ASSIGNMENT((#1660));
#1660 = SURFACE_STYLE_USAGE(.BOTH.,#1661);
#1661 = SURFACE_SIDE_STYLE('',(#1662));
#1662 = SURFACE_STYLE_FILL_AREA(#1663);
#1663 = FILL_AREA_STYLE('',(#1664));
#1664 = FILL_AREA_STYLE_COLOUR('',#1565);
#1665 = STYLED_ITEM('color',(#1666),#680);
#1666 = PRESENTATION_STYLE_ASSIGNMENT((#1667));
#1667 = SURFACE_STYLE_USAGE(.BOTH.,#1668);
#1668 = SURFACE_SIDE_STYLE('',(#1669));
#1669 = SURFACE_STYLE_FILL_AREA(#1670);
#1670 = FILL_AREA_STYLE('',(#1671));
#1671 = FILL_AREA_STYLE_COLOUR('',#1565);
#1672 = STYLED_ITEM('color',(#1673),#692);
#1673 = PRESENTATION_STYLE_ASSIGNMENT((#1674));
#1674 = SURFACE_STYLE_USAGE(.BOTH.,#1675);
#1675 = SURFACE_SIDE_STYLE('',(#1676));
#1676 = SURFACE_STYLE_FILL_AREA(#1677);
#1677 = FILL_AREA_STYLE('',(#1678));
#1678 = FILL_AREA_STYLE_COLOUR('',#1622);
ENDSEC;
END-ISO-10303-21;
