<?xml version="1.0" encoding="utf-8"?>
<svg xmlns="http://www.w3.org/2000/svg" xmlns:xlink="http://www.w3.org/1999/xlink" viewBox="-8.0320 -28.6060 34.8600 34.6060">
<defs>
<style>
.page { fill: var(--brd-page, #FFFFFF); }
.board { fill: var(--brd-board-fill, #FFFFFF); stroke: var(--brd-board-outline, #000000); stroke-width: 0.35; }
.edge-cut { fill: none; stroke: var(--brd-board-outline, #000000); stroke-width: 0.25; }
.component { fill: var(--brd-component-fill, #FFFFFF); stroke: var(--brd-component-outline, #000000); stroke-width: 0.18; }
.mechanical-pad { fill: var(--brd-page, #FFFFFF); stroke: var(--brd-component-outline, #000000); stroke-width: 0.18; }
.mounting-hole { fill: var(--brd-page, #FFFFFF); stroke: var(--brd-component-outline, #000000); stroke-width: 0.22; }
.reference { fill: var(--brd-text, #000000); font-family: Arial, sans-serif; font-size: 0.72px; text-anchor: middle; paint-order: stroke; stroke: var(--brd-plate, #FFFFFF); stroke-width: 0.35px; }
.indicator-plate { fill: var(--brd-plate, #FFFFFF); fill-opacity: .55; }
.indicator-text { fill: var(--brd-plate-text, #000000); }
</style>
</defs>
<rect class="page" x="-8.0320" y="-28.6060" width="34.8600" height="34.6060" />
<rect class="board" x="-2.0320" y="-22.6060" width="22.8600" height="22.6060" rx="1.0" />
<polyline class="edge-cut" points="-1.0160,-9.9060 -0.5080,-10.4140" />
<polyline class="edge-cut" points="-0.7620,-10.4140 -2.0320,-10.4140" />
<polyline class="edge-cut" points="-0.5080,-10.4140 -1.0160,-10.9220" />
<polyline class="edge-cut" points="0.0000,-20.8280 0.0000,-10.6680" />
<polyline class="edge-cut" points="0.0000,-10.6680 0.0000,0.0000" />
<polyline class="edge-cut" points="0.0000,-10.6680 20.8280,-10.6680" />
<polyline class="edge-cut" points="0.0000,-10.1600 20.8280,-10.1600" />
<polyline class="edge-cut" points="0.0000,0.0000 10.6680,0.0000" />
<polyline class="edge-cut" points="9.9060,-21.5900 10.4140,-21.0820" />
<polyline class="edge-cut" points="10.1600,-20.8280 10.1600,0.0000" />
<polyline class="edge-cut" points="10.4140,-21.3360 10.4140,-22.6060" />
<polyline class="edge-cut" points="10.4140,-21.0820 10.9220,-21.5900" />
<polyline class="edge-cut" points="10.6680,-20.8280 0.0000,-20.8280" />
<polyline class="edge-cut" points="10.6680,-20.8280 10.6680,0.0000" />
<polyline class="edge-cut" points="10.6680,0.0000 20.8280,0.0000" />
<polyline class="edge-cut" points="20.8280,-20.8280 10.6680,-20.8280" />
<polyline class="edge-cut" points="20.8280,-10.6680 20.8280,-20.8280" />
<polyline class="edge-cut" points="20.8280,0.0000 20.8280,-10.6680" />
<g class="board-component" data-reference="U1" data-oomp-id="" tabindex="0" transform="translate(5.0800 -15.7480) rotate(-180.0000)">
<rect class="component" x="-2.4382" y="-4.7498" width="4.8764" height="9.4996" rx="0.2" />
</g>
<g class="board-component" data-reference="U2" data-oomp-id="" tabindex="0" transform="translate(15.7480 -15.7480) rotate(-180.0000)">
<rect class="component" x="-2.4382" y="-4.7498" width="4.8764" height="9.4996" rx="0.2" />
</g>
<g class="board-component" data-reference="U3" data-oomp-id="" tabindex="0" transform="translate(5.0800 -5.0800) rotate(-180.0000)">
<rect class="component" x="-2.4382" y="-4.7498" width="4.8764" height="9.4996" rx="0.2" />
</g>
<g class="board-component" data-reference="U4" data-oomp-id="" tabindex="0" transform="translate(15.7480 -5.0800) rotate(-180.0000)">
<rect class="component" x="-2.4382" y="-4.7498" width="4.8764" height="9.4996" rx="0.2" />
</g>
<g class="board-component" data-reference="JP2" data-oomp-id="electronic_connector_header_2_54_mm_pitch_through_hole_4_pin" tabindex="0" transform="translate(8.8900 -19.5580) rotate(90.0000)">
<g transform="translate(3.8100 0.0000) rotate(-90)"><svg x="-1.2500" y="-5.0800" width="2.5000" height="10.1600" viewBox="0 0 2.5000 10.1600" preserveAspectRatio="xMidYMid meet"><rect x="0.0100" y="0.0000" width="2.4800" height="10.1600"  fill="none" stroke="none" />
  <polygon points="0.2500,0.0200 2.2500,0.0200 2.5000,0.2700 2.5000,2.2700 2.2500,2.5200 0.2500,2.5200 0.0000,2.2700 0.0000,0.2700"  fill="#FFFFFF" stroke="#000000" stroke-width="0.0582" />
  <rect x="0.7500" y="0.7700" width="1.0000" height="1.0000"  fill="#FFFFFF" stroke="#000000" stroke-width="0.0224" />
  <polygon points="0.2500,2.5600 2.2500,2.5600 2.5000,2.8100 2.5000,4.8100 2.2500,5.0600 0.2500,5.0600 0.0000,4.8100 0.0000,2.8100"  fill="#FFFFFF" stroke="#000000" stroke-width="0.0582" />
  <rect x="0.7500" y="3.3100" width="1.0000" height="1.0000"  fill="#FFFFFF" stroke="#000000" stroke-width="0.0224" />
  <polygon points="0.2500,5.1000 2.2500,5.1000 2.5000,5.3500 2.5000,7.3500 2.2500,7.6000 0.2500,7.6000 0.0000,7.3500 0.0000,5.3500"  fill="#FFFFFF" stroke="#000000" stroke-width="0.0582" />
  <rect x="0.7500" y="5.8500" width="1.0000" height="1.0000"  fill="#FFFFFF" stroke="#000000" stroke-width="0.0224" />
  <polygon points="0.2500,7.6400 2.2500,7.6400 2.5000,7.8900 2.5000,9.8900 2.2500,10.1400 0.2500,10.1400 0.0000,9.8900 0.0000,7.8900"  fill="#FFFFFF" stroke="#000000" stroke-width="0.0582" />
  <rect x="0.7500" y="8.3900" width="1.0000" height="1.0000"  fill="#FFFFFF" stroke="#000000" stroke-width="0.0224" />
  <rect x="0.9300" y="0.9500" width="0.6400" height="0.6400"  fill="#FFFFFF" stroke="#000000" stroke-width="0.0358" class="pad" />
  <rect x="0.9300" y="3.4900" width="0.6400" height="0.6400"  fill="#FFFFFF" stroke="#000000" stroke-width="0.0358" class="pad" />
  <rect x="0.9300" y="6.0300" width="0.6400" height="0.6400"  fill="#FFFFFF" stroke="#000000" stroke-width="0.0358" class="pad" />
  <rect x="0.9300" y="8.5700" width="0.6400" height="0.6400"  fill="#FFFFFF" stroke="#000000" stroke-width="0.0358" class="pad" /></svg></g>
</g>
<g class="board-component" data-reference="JP6" data-oomp-id="electronic_connector_header_2_54_mm_pitch_through_hole_4_pin" tabindex="0" transform="translate(8.8900 -8.8900) rotate(90.0000)">
<g transform="translate(3.8100 0.0000) rotate(-90)"><svg x="-1.2500" y="-5.0800" width="2.5000" height="10.1600" viewBox="0 0 2.5000 10.1600" preserveAspectRatio="xMidYMid meet"><rect x="0.0100" y="0.0000" width="2.4800" height="10.1600"  fill="none" stroke="none" />
  <polygon points="0.2500,0.0200 2.2500,0.0200 2.5000,0.2700 2.5000,2.2700 2.2500,2.5200 0.2500,2.5200 0.0000,2.2700 0.0000,0.2700"  fill="#FFFFFF" stroke="#000000" stroke-width="0.0582" />
  <rect x="0.7500" y="0.7700" width="1.0000" height="1.0000"  fill="#FFFFFF" stroke="#000000" stroke-width="0.0224" />
  <polygon points="0.2500,2.5600 2.2500,2.5600 2.5000,2.8100 2.5000,4.8100 2.2500,5.0600 0.2500,5.0600 0.0000,4.8100 0.0000,2.8100"  fill="#FFFFFF" stroke="#000000" stroke-width="0.0582" />
  <rect x="0.7500" y="3.3100" width="1.0000" height="1.0000"  fill="#FFFFFF" stroke="#000000" stroke-width="0.0224" />
  <polygon points="0.2500,5.1000 2.2500,5.1000 2.5000,5.3500 2.5000,7.3500 2.2500,7.6000 0.2500,7.6000 0.0000,7.3500 0.0000,5.3500"  fill="#FFFFFF" stroke="#000000" stroke-width="0.0582" />
  <rect x="0.7500" y="5.8500" width="1.0000" height="1.0000"  fill="#FFFFFF" stroke="#000000" stroke-width="0.0224" />
  <polygon points="0.2500,7.6400 2.2500,7.6400 2.5000,7.8900 2.5000,9.8900 2.2500,10.1400 0.2500,10.1400 0.0000,9.8900 0.0000,7.8900"  fill="#FFFFFF" stroke="#000000" stroke-width="0.0582" />
  <rect x="0.7500" y="8.3900" width="1.0000" height="1.0000"  fill="#FFFFFF" stroke="#000000" stroke-width="0.0224" />
  <rect x="0.9300" y="0.9500" width="0.6400" height="0.6400"  fill="#FFFFFF" stroke="#000000" stroke-width="0.0358" class="pad" />
  <rect x="0.9300" y="3.4900" width="0.6400" height="0.6400"  fill="#FFFFFF" stroke="#000000" stroke-width="0.0358" class="pad" />
  <rect x="0.9300" y="6.0300" width="0.6400" height="0.6400"  fill="#FFFFFF" stroke="#000000" stroke-width="0.0358" class="pad" />
  <rect x="0.9300" y="8.5700" width="0.6400" height="0.6400"  fill="#FFFFFF" stroke="#000000" stroke-width="0.0358" class="pad" /></svg></g>
</g>
<g class="board-component" data-reference="JP1" data-oomp-id="electronic_connector_header_2_54_mm_pitch_through_hole_4_pin" tabindex="0" transform="translate(1.2700 -19.5580) rotate(90.0000)">
<g transform="translate(3.8100 0.0000) rotate(-90)"><svg x="-1.2500" y="-5.0800" width="2.5000" height="10.1600" viewBox="0 0 2.5000 10.1600" preserveAspectRatio="xMidYMid meet"><rect x="0.0100" y="0.0000" width="2.4800" height="10.1600"  fill="none" stroke="none" />
  <polygon points="0.2500,0.0200 2.2500,0.0200 2.5000,0.2700 2.5000,2.2700 2.2500,2.5200 0.2500,2.5200 0.0000,2.2700 0.0000,0.2700"  fill="#FFFFFF" stroke="#000000" stroke-width="0.0582" />
  <rect x="0.7500" y="0.7700" width="1.0000" height="1.0000"  fill="#FFFFFF" stroke="#000000" stroke-width="0.0224" />
  <polygon points="0.2500,2.5600 2.2500,2.5600 2.5000,2.8100 2.5000,4.8100 2.2500,5.0600 0.2500,5.0600 0.0000,4.8100 0.0000,2.8100"  fill="#FFFFFF" stroke="#000000" stroke-width="0.0582" />
  <rect x="0.7500" y="3.3100" width="1.0000" height="1.0000"  fill="#FFFFFF" stroke="#000000" stroke-width="0.0224" />
  <polygon points="0.2500,5.1000 2.2500,5.1000 2.5000,5.3500 2.5000,7.3500 2.2500,7.6000 0.2500,7.6000 0.0000,7.3500 0.0000,5.3500"  fill="#FFFFFF" stroke="#000000" stroke-width="0.0582" />
  <rect x="0.7500" y="5.8500" width="1.0000" height="1.0000"  fill="#FFFFFF" stroke="#000000" stroke-width="0.0224" />
  <polygon points="0.2500,7.6400 2.2500,7.6400 2.5000,7.8900 2.5000,9.8900 2.2500,10.1400 0.2500,10.1400 0.0000,9.8900 0.0000,7.8900"  fill="#FFFFFF" stroke="#000000" stroke-width="0.0582" />
  <rect x="0.7500" y="8.3900" width="1.0000" height="1.0000"  fill="#FFFFFF" stroke="#000000" stroke-width="0.0224" />
  <rect x="0.9300" y="0.9500" width="0.6400" height="0.6400"  fill="#FFFFFF" stroke="#000000" stroke-width="0.0358" class="pad" />
  <rect x="0.9300" y="3.4900" width="0.6400" height="0.6400"  fill="#FFFFFF" stroke="#000000" stroke-width="0.0358" class="pad" />
  <rect x="0.9300" y="6.0300" width="0.6400" height="0.6400"  fill="#FFFFFF" stroke="#000000" stroke-width="0.0358" class="pad" />
  <rect x="0.9300" y="8.5700" width="0.6400" height="0.6400"  fill="#FFFFFF" stroke="#000000" stroke-width="0.0358" class="pad" /></svg></g>
</g>
<g class="board-component" data-reference="JP3" data-oomp-id="electronic_connector_header_2_54_mm_pitch_through_hole_4_pin" tabindex="0" transform="translate(11.9380 -19.5580) rotate(90.0000)">
<g transform="translate(3.8100 0.0000) rotate(-90)"><svg x="-1.2500" y="-5.0800" width="2.5000" height="10.1600" viewBox="0 0 2.5000 10.1600" preserveAspectRatio="xMidYMid meet"><rect x="0.0100" y="0.0000" width="2.4800" height="10.1600"  fill="none" stroke="none" />
  <polygon points="0.2500,0.0200 2.2500,0.0200 2.5000,0.2700 2.5000,2.2700 2.2500,2.5200 0.2500,2.5200 0.0000,2.2700 0.0000,0.2700"  fill="#FFFFFF" stroke="#000000" stroke-width="0.0582" />
  <rect x="0.7500" y="0.7700" width="1.0000" height="1.0000"  fill="#FFFFFF" stroke="#000000" stroke-width="0.0224" />
  <polygon points="0.2500,2.5600 2.2500,2.5600 2.5000,2.8100 2.5000,4.8100 2.2500,5.0600 0.2500,5.0600 0.0000,4.8100 0.0000,2.8100"  fill="#FFFFFF" stroke="#000000" stroke-width="0.0582" />
  <rect x="0.7500" y="3.3100" width="1.0000" height="1.0000"  fill="#FFFFFF" stroke="#000000" stroke-width="0.0224" />
  <polygon points="0.2500,5.1000 2.2500,5.1000 2.5000,5.3500 2.5000,7.3500 2.2500,7.6000 0.2500,7.6000 0.0000,7.3500 0.0000,5.3500"  fill="#FFFFFF" stroke="#000000" stroke-width="0.0582" />
  <rect x="0.7500" y="5.8500" width="1.0000" height="1.0000"  fill="#FFFFFF" stroke="#000000" stroke-width="0.0224" />
  <polygon points="0.2500,7.6400 2.2500,7.6400 2.5000,7.8900 2.5000,9.8900 2.2500,10.1400 0.2500,10.1400 0.0000,9.8900 0.0000,7.8900"  fill="#FFFFFF" stroke="#000000" stroke-width="0.0582" />
  <rect x="0.7500" y="8.3900" width="1.0000" height="1.0000"  fill="#FFFFFF" stroke="#000000" stroke-width="0.0224" />
  <rect x="0.9300" y="0.9500" width="0.6400" height="0.6400"  fill="#FFFFFF" stroke="#000000" stroke-width="0.0358" class="pad" />
  <rect x="0.9300" y="3.4900" width="0.6400" height="0.6400"  fill="#FFFFFF" stroke="#000000" stroke-width="0.0358" class="pad" />
  <rect x="0.9300" y="6.0300" width="0.6400" height="0.6400"  fill="#FFFFFF" stroke="#000000" stroke-width="0.0358" class="pad" />
  <rect x="0.9300" y="8.5700" width="0.6400" height="0.6400"  fill="#FFFFFF" stroke="#000000" stroke-width="0.0358" class="pad" /></svg></g>
</g>
<g class="board-component" data-reference="JP4" data-oomp-id="electronic_connector_header_2_54_mm_pitch_through_hole_4_pin" tabindex="0" transform="translate(19.5580 -19.5580) rotate(90.0000)">
<g transform="translate(3.8100 0.0000) rotate(-90)"><svg x="-1.2500" y="-5.0800" width="2.5000" height="10.1600" viewBox="0 0 2.5000 10.1600" preserveAspectRatio="xMidYMid meet"><rect x="0.0100" y="0.0000" width="2.4800" height="10.1600"  fill="none" stroke="none" />
  <polygon points="0.2500,0.0200 2.2500,0.0200 2.5000,0.2700 2.5000,2.2700 2.2500,2.5200 0.2500,2.5200 0.0000,2.2700 0.0000,0.2700"  fill="#FFFFFF" stroke="#000000" stroke-width="0.0582" />
  <rect x="0.7500" y="0.7700" width="1.0000" height="1.0000"  fill="#FFFFFF" stroke="#000000" stroke-width="0.0224" />
  <polygon points="0.2500,2.5600 2.2500,2.5600 2.5000,2.8100 2.5000,4.8100 2.2500,5.0600 0.2500,5.0600 0.0000,4.8100 0.0000,2.8100"  fill="#FFFFFF" stroke="#000000" stroke-width="0.0582" />
  <rect x="0.7500" y="3.3100" width="1.0000" height="1.0000"  fill="#FFFFFF" stroke="#000000" stroke-width="0.0224" />
  <polygon points="0.2500,5.1000 2.2500,5.1000 2.5000,5.3500 2.5000,7.3500 2.2500,7.6000 0.2500,7.6000 0.0000,7.3500 0.0000,5.3500"  fill="#FFFFFF" stroke="#000000" stroke-width="0.0582" />
  <rect x="0.7500" y="5.8500" width="1.0000" height="1.0000"  fill="#FFFFFF" stroke="#000000" stroke-width="0.0224" />
  <polygon points="0.2500,7.6400 2.2500,7.6400 2.5000,7.8900 2.5000,9.8900 2.2500,10.1400 0.2500,10.1400 0.0000,9.8900 0.0000,7.8900"  fill="#FFFFFF" stroke="#000000" stroke-width="0.0582" />
  <rect x="0.7500" y="8.3900" width="1.0000" height="1.0000"  fill="#FFFFFF" stroke="#000000" stroke-width="0.0224" />
  <rect x="0.9300" y="0.9500" width="0.6400" height="0.6400"  fill="#FFFFFF" stroke="#000000" stroke-width="0.0358" class="pad" />
  <rect x="0.9300" y="3.4900" width="0.6400" height="0.6400"  fill="#FFFFFF" stroke="#000000" stroke-width="0.0358" class="pad" />
  <rect x="0.9300" y="6.0300" width="0.6400" height="0.6400"  fill="#FFFFFF" stroke="#000000" stroke-width="0.0358" class="pad" />
  <rect x="0.9300" y="8.5700" width="0.6400" height="0.6400"  fill="#FFFFFF" stroke="#000000" stroke-width="0.0358" class="pad" /></svg></g>
</g>
<g class="board-component" data-reference="JP5" data-oomp-id="electronic_connector_header_2_54_mm_pitch_through_hole_4_pin" tabindex="0" transform="translate(1.2700 -8.8900) rotate(90.0000)">
<g transform="translate(3.8100 0.0000) rotate(-90)"><svg x="-1.2500" y="-5.0800" width="2.5000" height="10.1600" viewBox="0 0 2.5000 10.1600" preserveAspectRatio="xMidYMid meet"><rect x="0.0100" y="0.0000" width="2.4800" height="10.1600"  fill="none" stroke="none" />
  <polygon points="0.2500,0.0200 2.2500,0.0200 2.5000,0.2700 2.5000,2.2700 2.2500,2.5200 0.2500,2.5200 0.0000,2.2700 0.0000,0.2700"  fill="#FFFFFF" stroke="#000000" stroke-width="0.0582" />
  <rect x="0.7500" y="0.7700" width="1.0000" height="1.0000"  fill="#FFFFFF" stroke="#000000" stroke-width="0.0224" />
  <polygon points="0.2500,2.5600 2.2500,2.5600 2.5000,2.8100 2.5000,4.8100 2.2500,5.0600 0.2500,5.0600 0.0000,4.8100 0.0000,2.8100"  fill="#FFFFFF" stroke="#000000" stroke-width="0.0582" />
  <rect x="0.7500" y="3.3100" width="1.0000" height="1.0000"  fill="#FFFFFF" stroke="#000000" stroke-width="0.0224" />
  <polygon points="0.2500,5.1000 2.2500,5.1000 2.5000,5.3500 2.5000,7.3500 2.2500,7.6000 0.2500,7.6000 0.0000,7.3500 0.0000,5.3500"  fill="#FFFFFF" stroke="#000000" stroke-width="0.0582" />
  <rect x="0.7500" y="5.8500" width="1.0000" height="1.0000"  fill="#FFFFFF" stroke="#000000" stroke-width="0.0224" />
  <polygon points="0.2500,7.6400 2.2500,7.6400 2.5000,7.8900 2.5000,9.8900 2.2500,10.1400 0.2500,10.1400 0.0000,9.8900 0.0000,7.8900"  fill="#FFFFFF" stroke="#000000" stroke-width="0.0582" />
  <rect x="0.7500" y="8.3900" width="1.0000" height="1.0000"  fill="#FFFFFF" stroke="#000000" stroke-width="0.0224" />
  <rect x="0.9300" y="0.9500" width="0.6400" height="0.6400"  fill="#FFFFFF" stroke="#000000" stroke-width="0.0358" class="pad" />
  <rect x="0.9300" y="3.4900" width="0.6400" height="0.6400"  fill="#FFFFFF" stroke="#000000" stroke-width="0.0358" class="pad" />
  <rect x="0.9300" y="6.0300" width="0.6400" height="0.6400"  fill="#FFFFFF" stroke="#000000" stroke-width="0.0358" class="pad" />
  <rect x="0.9300" y="8.5700" width="0.6400" height="0.6400"  fill="#FFFFFF" stroke="#000000" stroke-width="0.0358" class="pad" /></svg></g>
</g>
<g class="board-component" data-reference="JP7" data-oomp-id="electronic_connector_header_2_54_mm_pitch_through_hole_4_pin" tabindex="0" transform="translate(11.9380 -8.8900) rotate(90.0000)">
<g transform="translate(3.8100 0.0000) rotate(-90)"><svg x="-1.2500" y="-5.0800" width="2.5000" height="10.1600" viewBox="0 0 2.5000 10.1600" preserveAspectRatio="xMidYMid meet"><rect x="0.0100" y="0.0000" width="2.4800" height="10.1600"  fill="none" stroke="none" />
  <polygon points="0.2500,0.0200 2.2500,0.0200 2.5000,0.2700 2.5000,2.2700 2.2500,2.5200 0.2500,2.5200 0.0000,2.2700 0.0000,0.2700"  fill="#FFFFFF" stroke="#000000" stroke-width="0.0582" />
  <rect x="0.7500" y="0.7700" width="1.0000" height="1.0000"  fill="#FFFFFF" stroke="#000000" stroke-width="0.0224" />
  <polygon points="0.2500,2.5600 2.2500,2.5600 2.5000,2.8100 2.5000,4.8100 2.2500,5.0600 0.2500,5.0600 0.0000,4.8100 0.0000,2.8100"  fill="#FFFFFF" stroke="#000000" stroke-width="0.0582" />
  <rect x="0.7500" y="3.3100" width="1.0000" height="1.0000"  fill="#FFFFFF" stroke="#000000" stroke-width="0.0224" />
  <polygon points="0.2500,5.1000 2.2500,5.1000 2.5000,5.3500 2.5000,7.3500 2.2500,7.6000 0.2500,7.6000 0.0000,7.3500 0.0000,5.3500"  fill="#FFFFFF" stroke="#000000" stroke-width="0.0582" />
  <rect x="0.7500" y="5.8500" width="1.0000" height="1.0000"  fill="#FFFFFF" stroke="#000000" stroke-width="0.0224" />
  <polygon points="0.2500,7.6400 2.2500,7.6400 2.5000,7.8900 2.5000,9.8900 2.2500,10.1400 0.2500,10.1400 0.0000,9.8900 0.0000,7.8900"  fill="#FFFFFF" stroke="#000000" stroke-width="0.0582" />
  <rect x="0.7500" y="8.3900" width="1.0000" height="1.0000"  fill="#FFFFFF" stroke="#000000" stroke-width="0.0224" />
  <rect x="0.9300" y="0.9500" width="0.6400" height="0.6400"  fill="#FFFFFF" stroke="#000000" stroke-width="0.0358" class="pad" />
  <rect x="0.9300" y="3.4900" width="0.6400" height="0.6400"  fill="#FFFFFF" stroke="#000000" stroke-width="0.0358" class="pad" />
  <rect x="0.9300" y="6.0300" width="0.6400" height="0.6400"  fill="#FFFFFF" stroke="#000000" stroke-width="0.0358" class="pad" />
  <rect x="0.9300" y="8.5700" width="0.6400" height="0.6400"  fill="#FFFFFF" stroke="#000000" stroke-width="0.0358" class="pad" /></svg></g>
</g>
<g class="board-component" data-reference="JP8" data-oomp-id="electronic_connector_header_2_54_mm_pitch_through_hole_4_pin" tabindex="0" transform="translate(19.5580 -8.8900) rotate(90.0000)">
<g transform="translate(3.8100 0.0000) rotate(-90)"><svg x="-1.2500" y="-5.0800" width="2.5000" height="10.1600" viewBox="0 0 2.5000 10.1600" preserveAspectRatio="xMidYMid meet"><rect x="0.0100" y="0.0000" width="2.4800" height="10.1600"  fill="none" stroke="none" />
  <polygon points="0.2500,0.0200 2.2500,0.0200 2.5000,0.2700 2.5000,2.2700 2.2500,2.5200 0.2500,2.5200 0.0000,2.2700 0.0000,0.2700"  fill="#FFFFFF" stroke="#000000" stroke-width="0.0582" />
  <rect x="0.7500" y="0.7700" width="1.0000" height="1.0000"  fill="#FFFFFF" stroke="#000000" stroke-width="0.0224" />
  <polygon points="0.2500,2.5600 2.2500,2.5600 2.5000,2.8100 2.5000,4.8100 2.2500,5.0600 0.2500,5.0600 0.0000,4.8100 0.0000,2.8100"  fill="#FFFFFF" stroke="#000000" stroke-width="0.0582" />
  <rect x="0.7500" y="3.3100" width="1.0000" height="1.0000"  fill="#FFFFFF" stroke="#000000" stroke-width="0.0224" />
  <polygon points="0.2500,5.1000 2.2500,5.1000 2.5000,5.3500 2.5000,7.3500 2.2500,7.6000 0.2500,7.6000 0.0000,7.3500 0.0000,5.3500"  fill="#FFFFFF" stroke="#000000" stroke-width="0.0582" />
  <rect x="0.7500" y="5.8500" width="1.0000" height="1.0000"  fill="#FFFFFF" stroke="#000000" stroke-width="0.0224" />
  <polygon points="0.2500,7.6400 2.2500,7.6400 2.5000,7.8900 2.5000,9.8900 2.2500,10.1400 0.2500,10.1400 0.0000,9.8900 0.0000,7.8900"  fill="#FFFFFF" stroke="#000000" stroke-width="0.0582" />
  <rect x="0.7500" y="8.3900" width="1.0000" height="1.0000"  fill="#FFFFFF" stroke="#000000" stroke-width="0.0224" />
  <rect x="0.9300" y="0.9500" width="0.6400" height="0.6400"  fill="#FFFFFF" stroke="#000000" stroke-width="0.0358" class="pad" />
  <rect x="0.9300" y="3.4900" width="0.6400" height="0.6400"  fill="#FFFFFF" stroke="#000000" stroke-width="0.0358" class="pad" />
  <rect x="0.9300" y="6.0300" width="0.6400" height="0.6400"  fill="#FFFFFF" stroke="#000000" stroke-width="0.0358" class="pad" />
  <rect x="0.9300" y="8.5700" width="0.6400" height="0.6400"  fill="#FFFFFF" stroke="#000000" stroke-width="0.0358" class="pad" /></svg></g>
</g>
<g class="board-component" data-reference="FRAME1" data-oomp-id="" tabindex="0" transform="translate(-15.2400 17.7800) rotate(0.0000)">
<rect class="component" x="-1.0000" y="-0.7000" width="2.0000" height="1.4000" rx="0.2" />
</g>
<g class="indicator" transform="translate(5.0800 -15.7480)"><rect class="indicator-plate" x="-1.8995" y="-0.8640" width="3.7990" height="1.4573" rx="0.0864" stroke="none" /><text class="indicator-text" x="0" y="-0.2448" font-family="Arial, sans-serif" font-size="0.7200" font-weight="bold" text-anchor="middle">U1</text><text class="indicator-text" x="0" y="0.4176" font-family="Arial, sans-serif" font-size="0.4220" text-anchor="middle">GENERIC-SOIC8</text></g>
<g class="indicator" transform="translate(15.7480 -15.7480)"><rect class="indicator-plate" x="-1.8995" y="-0.8640" width="3.7990" height="1.4573" rx="0.0864" stroke="none" /><text class="indicator-text" x="0" y="-0.2448" font-family="Arial, sans-serif" font-size="0.7200" font-weight="bold" text-anchor="middle">U2</text><text class="indicator-text" x="0" y="0.4176" font-family="Arial, sans-serif" font-size="0.4220" text-anchor="middle">GENERIC-SOIC8</text></g>
<g class="indicator" transform="translate(5.0800 -5.0800)"><rect class="indicator-plate" x="-1.8995" y="-0.8640" width="3.7990" height="1.4573" rx="0.0864" stroke="none" /><text class="indicator-text" x="0" y="-0.2448" font-family="Arial, sans-serif" font-size="0.7200" font-weight="bold" text-anchor="middle">U3</text><text class="indicator-text" x="0" y="0.4176" font-family="Arial, sans-serif" font-size="0.4220" text-anchor="middle">GENERIC-SOIC8</text></g>
<g class="indicator" transform="translate(15.7480 -5.0800)"><rect class="indicator-plate" x="-1.8995" y="-0.8640" width="3.7990" height="1.4573" rx="0.0864" stroke="none" /><text class="indicator-text" x="0" y="-0.2448" font-family="Arial, sans-serif" font-size="0.7200" font-weight="bold" text-anchor="middle">U4</text><text class="indicator-text" x="0" y="0.4176" font-family="Arial, sans-serif" font-size="0.4220" text-anchor="middle">GENERIC-SOIC8</text></g>
<g class="indicator" transform="translate(8.8900 -15.7480)"><rect class="indicator-plate" x="-0.9648" y="-0.8948" width="1.9296" height="1.5031" rx="0.0864" stroke="none" /><text class="indicator-text" x="0" y="-0.2756" font-family="Arial, sans-serif" font-size="0.7200" font-weight="bold" text-anchor="middle">JP2</text><text class="indicator-text" x="0" y="0.4176" font-family="Arial, sans-serif" font-size="0.4752" text-anchor="middle">1x4</text></g>
<g class="indicator" transform="translate(8.8900 -5.0800)"><rect class="indicator-plate" x="-0.9648" y="-0.8948" width="1.9296" height="1.5031" rx="0.0864" stroke="none" /><text class="indicator-text" x="0" y="-0.2756" font-family="Arial, sans-serif" font-size="0.7200" font-weight="bold" text-anchor="middle">JP6</text><text class="indicator-text" x="0" y="0.4176" font-family="Arial, sans-serif" font-size="0.4752" text-anchor="middle">1x4</text></g>
<g class="indicator" transform="translate(1.2700 -15.7480)"><rect class="indicator-plate" x="-0.9648" y="-0.8948" width="1.9296" height="1.5031" rx="0.0864" stroke="none" /><text class="indicator-text" x="0" y="-0.2756" font-family="Arial, sans-serif" font-size="0.7200" font-weight="bold" text-anchor="middle">JP1</text><text class="indicator-text" x="0" y="0.4176" font-family="Arial, sans-serif" font-size="0.4752" text-anchor="middle">1x4</text></g>
<g class="indicator" transform="translate(11.9380 -15.7480)"><rect class="indicator-plate" x="-0.9648" y="-0.8948" width="1.9296" height="1.5031" rx="0.0864" stroke="none" /><text class="indicator-text" x="0" y="-0.2756" font-family="Arial, sans-serif" font-size="0.7200" font-weight="bold" text-anchor="middle">JP3</text><text class="indicator-text" x="0" y="0.4176" font-family="Arial, sans-serif" font-size="0.4752" text-anchor="middle">1x4</text></g>
<g class="indicator" transform="translate(19.5580 -15.7480)"><rect class="indicator-plate" x="-0.9648" y="-0.8948" width="1.9296" height="1.5031" rx="0.0864" stroke="none" /><text class="indicator-text" x="0" y="-0.2756" font-family="Arial, sans-serif" font-size="0.7200" font-weight="bold" text-anchor="middle">JP4</text><text class="indicator-text" x="0" y="0.4176" font-family="Arial, sans-serif" font-size="0.4752" text-anchor="middle">1x4</text></g>
<g class="indicator" transform="translate(1.2700 -5.0800)"><rect class="indicator-plate" x="-0.9648" y="-0.8948" width="1.9296" height="1.5031" rx="0.0864" stroke="none" /><text class="indicator-text" x="0" y="-0.2756" font-family="Arial, sans-serif" font-size="0.7200" font-weight="bold" text-anchor="middle">JP5</text><text class="indicator-text" x="0" y="0.4176" font-family="Arial, sans-serif" font-size="0.4752" text-anchor="middle">1x4</text></g>
<g class="indicator" transform="translate(11.9380 -5.0800)"><rect class="indicator-plate" x="-0.9648" y="-0.8948" width="1.9296" height="1.5031" rx="0.0864" stroke="none" /><text class="indicator-text" x="0" y="-0.2756" font-family="Arial, sans-serif" font-size="0.7200" font-weight="bold" text-anchor="middle">JP7</text><text class="indicator-text" x="0" y="0.4176" font-family="Arial, sans-serif" font-size="0.4752" text-anchor="middle">1x4</text></g>
<g class="indicator" transform="translate(19.5580 -5.0800)"><rect class="indicator-plate" x="-0.9648" y="-0.8948" width="1.9296" height="1.5031" rx="0.0864" stroke="none" /><text class="indicator-text" x="0" y="-0.2756" font-family="Arial, sans-serif" font-size="0.7200" font-weight="bold" text-anchor="middle">JP8</text><text class="indicator-text" x="0" y="0.4176" font-family="Arial, sans-serif" font-size="0.4752" text-anchor="middle">1x4</text></g>
<g class="indicator" transform="translate(-15.2400 17.7800)"><rect class="indicator-plate" x="-0.7832" y="-0.3925" width="1.5663" height="0.6592" rx="0.0379" stroke="none" /><text class="indicator-text" x="0" y="-0.1209" font-family="Arial, sans-serif" font-size="0.3158" font-weight="bold" text-anchor="middle">FRAME1</text><text class="indicator-text" x="0" y="0.1832" font-family="Arial, sans-serif" font-size="0.2084" text-anchor="middle">frame</text></g>
</svg>
