%TF.GenerationSoftware,KiCad,Pcbnew,10.99.0-3671-gbe90a7e200*%
%TF.CreationDate,2026-09-08T16:07:36+01:00*%
%TF.ProjectId,kicad_file,6b696361-645f-4666-996c-652e6b696361,V1.1.1.*%
%TF.SameCoordinates,PX337f980PY9157080*%
%TF.FileFunction,Legend,Bot*%
%TF.FilePolarity,Positive*%
%FSLAX46Y46*%
G04 Gerber Fmt 4.6, Leading zero omitted, Abs format (unit mm)*
G04 Created by KiCad (PCBNEW 10.99.0-3671-gbe90a7e200) date 2026-09-08 16:07:36*
%MOMM*%
%LPD*%
G01*
G04 APERTURE LIST*
%ADD10C,0.000000*%
%ADD11C,3.200000*%
%ADD12C,1.900000*%
%ADD13C,1.724000*%
G04 APERTURE END LIST*
D10*
%TO.C,REF\u002A\u002A*%
G36*
X64768075Y-137770878D02*
G01*
X64847578Y-137777268D01*
X64917697Y-137783400D01*
X65046920Y-137802842D01*
X65150325Y-137833219D01*
X65237415Y-137877816D01*
X65317689Y-137939923D01*
X65332883Y-137953907D01*
X65415421Y-138047646D01*
X65470155Y-138150733D01*
X65500696Y-138272173D01*
X65510656Y-138420970D01*
X65510609Y-138474144D01*
X65507412Y-138550422D01*
X65497552Y-138609572D01*
X65477944Y-138666535D01*
X65445500Y-138736251D01*
X65373592Y-138855173D01*
X65282485Y-138950443D01*
X65169428Y-139020603D01*
X65029468Y-139068698D01*
X64899875Y-139090630D01*
X64857650Y-139097776D01*
X64744005Y-139106358D01*
X64579630Y-139106243D01*
X64425098Y-139092097D01*
X64289995Y-139064942D01*
X64183906Y-139025805D01*
X64096120Y-138968787D01*
X64007725Y-138889379D01*
X63932492Y-138800797D01*
X63882363Y-138715337D01*
X63874010Y-138693247D01*
X63852646Y-138618376D01*
X63837770Y-138540995D01*
X63831340Y-138404222D01*
X63851954Y-138249165D01*
X63900401Y-138107341D01*
X63974252Y-137988583D01*
X63974416Y-137988384D01*
X64041870Y-137924569D01*
X64128352Y-137867039D01*
X64219150Y-137824133D01*
X64299553Y-137804190D01*
X64368009Y-137798657D01*
X64373896Y-137932100D01*
X64379784Y-138065542D01*
X64294669Y-138112669D01*
X64238475Y-138149638D01*
X64174287Y-138220912D01*
X64138703Y-138312846D01*
X64128333Y-138431947D01*
X64138915Y-138533055D01*
X64180012Y-138639561D01*
X64251021Y-138719654D01*
X64350838Y-138772185D01*
X64478357Y-138796003D01*
X64568641Y-138801817D01*
X64568750Y-138791785D01*
X64838589Y-138791785D01*
X64899875Y-138791785D01*
X64973877Y-138782061D01*
X65071476Y-138737355D01*
X65152347Y-138660701D01*
X65162150Y-138646847D01*
X65203244Y-138554130D01*
X65221166Y-138444953D01*
X65214860Y-138333839D01*
X65183271Y-138235313D01*
X65182100Y-138233042D01*
X65116978Y-138147869D01*
X65028556Y-138089342D01*
X64926826Y-138064134D01*
X64849526Y-138059479D01*
X64844057Y-138425632D01*
X64838589Y-138791785D01*
X64568750Y-138791785D01*
X64574006Y-138305772D01*
X64575083Y-138189468D01*
X64576690Y-138051767D01*
X64580326Y-137946969D01*
X64588193Y-137870819D01*
X64602494Y-137819063D01*
X64625429Y-137787445D01*
X64659203Y-137771712D01*
X64706018Y-137767607D01*
X64768075Y-137770878D01*
G37*
G36*
X64555275Y-145063173D02*
G01*
X64693865Y-145069626D01*
X64812583Y-145083855D01*
X64923142Y-145107987D01*
X65037257Y-145144150D01*
X65166641Y-145194473D01*
X65258316Y-145237311D01*
X65386064Y-145309277D01*
X65514337Y-145392931D01*
X65630380Y-145479835D01*
X65721436Y-145561550D01*
X65766147Y-145605039D01*
X65807291Y-145639992D01*
X65830537Y-145653397D01*
X65831915Y-145653118D01*
X65856393Y-145636221D01*
X65902306Y-145596979D01*
X65963625Y-145540734D01*
X66034320Y-145472828D01*
X66071329Y-145436709D01*
X66139250Y-145372448D01*
X66188745Y-145330470D01*
X66226383Y-145306177D01*
X66258735Y-145294972D01*
X66292369Y-145292259D01*
X66294837Y-145292275D01*
X66362304Y-145301013D01*
X66421839Y-145320985D01*
X66424099Y-145322253D01*
X66457774Y-145348326D01*
X66513147Y-145398000D01*
X66584963Y-145466291D01*
X66667966Y-145548214D01*
X66756901Y-145638786D01*
X66868753Y-145757857D01*
X67009399Y-145922352D01*
X67122502Y-146077767D01*
X67212047Y-146231223D01*
X67282017Y-146389843D01*
X67336398Y-146560748D01*
X67379174Y-146751062D01*
X67389936Y-146815035D01*
X67407387Y-147065316D01*
X67387776Y-147315453D01*
X67333264Y-147561160D01*
X67246014Y-147798152D01*
X67128190Y-148022143D01*
X66981953Y-148228850D01*
X66809466Y-148413986D01*
X66612891Y-148573268D01*
X66394391Y-148702409D01*
X66290940Y-148749751D01*
X66033283Y-148838112D01*
X65771601Y-148887867D01*
X65583327Y-148896180D01*
X65509005Y-148899462D01*
X65248607Y-148873342D01*
X64993517Y-148809954D01*
X64746848Y-148709746D01*
X64511709Y-148573162D01*
X64291213Y-148400650D01*
X64174290Y-148295748D01*
X64020359Y-148446370D01*
X63972594Y-148492408D01*
X63906512Y-148553877D01*
X63851753Y-148602276D01*
X63816823Y-148629933D01*
X63804281Y-148637584D01*
X63722049Y-148661955D01*
X63699028Y-148659188D01*
X63632229Y-148651161D01*
X63543413Y-148605956D01*
X63537900Y-148601833D01*
X63485983Y-148557406D01*
X63415143Y-148490407D01*
X63331853Y-148407587D01*
X63242584Y-148315694D01*
X63153806Y-148221477D01*
X63071991Y-148131686D01*
X63003609Y-148053070D01*
X62955132Y-147992378D01*
X62941463Y-147973541D01*
X62799485Y-147741215D01*
X62693114Y-147490424D01*
X62622429Y-147221351D01*
X62621008Y-147213675D01*
X62604258Y-147070332D01*
X62600345Y-146932588D01*
X62919825Y-146932588D01*
X62925016Y-147078549D01*
X62942038Y-147205889D01*
X62972983Y-147327768D01*
X63019944Y-147457348D01*
X63021559Y-147461334D01*
X63074400Y-147578983D01*
X63134902Y-147686498D01*
X63209100Y-147792530D01*
X63303027Y-147905731D01*
X63422721Y-148034753D01*
X63424108Y-148036193D01*
X63519355Y-148133100D01*
X63593473Y-148201816D01*
X63651638Y-148244365D01*
X63699028Y-148262773D01*
X63740818Y-148259064D01*
X63782186Y-148235264D01*
X63828309Y-148193397D01*
X63868731Y-148148886D01*
X63893909Y-148105909D01*
X63898973Y-148062161D01*
X63882060Y-148012339D01*
X63841309Y-147951141D01*
X63774857Y-147873264D01*
X63680845Y-147773406D01*
X63656138Y-147747527D01*
X63539557Y-147616939D01*
X63450783Y-147498946D01*
X63385018Y-147385502D01*
X63337466Y-147268557D01*
X63303327Y-147140063D01*
X63290730Y-147070799D01*
X63282903Y-146946323D01*
X63598852Y-146946323D01*
X63610784Y-147069148D01*
X63634815Y-147169854D01*
X63642799Y-147191629D01*
X63667591Y-147250569D01*
X63697939Y-147307853D01*
X63737219Y-147367653D01*
X63788807Y-147434137D01*
X63856078Y-147511476D01*
X63942410Y-147603840D01*
X64051179Y-147715399D01*
X64185760Y-147850322D01*
X64198053Y-147862555D01*
X64351637Y-148013361D01*
X64483565Y-148137803D01*
X64598617Y-148239151D01*
X64701576Y-148320673D01*
X64797222Y-148385639D01*
X64890338Y-148437317D01*
X64985704Y-148478977D01*
X65088103Y-148513886D01*
X65202315Y-148545316D01*
X65272247Y-148559917D01*
X65420868Y-148576981D01*
X65583327Y-148581421D01*
X65746530Y-148573600D01*
X65897382Y-148553880D01*
X66022789Y-148522622D01*
X66060909Y-148509176D01*
X66296124Y-148403578D01*
X66504435Y-148269121D01*
X66684346Y-148107618D01*
X66834363Y-147920885D01*
X66952988Y-147710736D01*
X67038728Y-147478986D01*
X67090087Y-147227450D01*
X67099505Y-147103854D01*
X67089144Y-146887881D01*
X67048284Y-146668482D01*
X66979259Y-146456594D01*
X66884400Y-146263152D01*
X66848560Y-146211257D01*
X66793473Y-146142023D01*
X66724900Y-146061731D01*
X66648430Y-145976370D01*
X66569652Y-145891930D01*
X66494154Y-145814401D01*
X66427525Y-145749772D01*
X66375355Y-145704033D01*
X66343232Y-145683174D01*
X66333106Y-145680838D01*
X66276916Y-145689080D01*
X66215929Y-145723236D01*
X66160074Y-145774577D01*
X66119280Y-145834377D01*
X66103475Y-145893909D01*
X66115058Y-145923177D01*
X66155611Y-145979822D01*
X66224095Y-146059839D01*
X66319252Y-146161665D01*
X66337964Y-146181229D01*
X66471629Y-146332011D01*
X66573566Y-146471975D01*
X66647038Y-146608330D01*
X66695309Y-146748288D01*
X66721640Y-146899058D01*
X66729294Y-147067852D01*
X66712752Y-147260870D01*
X66660364Y-147459354D01*
X66575306Y-147641845D01*
X66460829Y-147805135D01*
X66320184Y-147946011D01*
X66156623Y-148061265D01*
X65973399Y-148147686D01*
X65773764Y-148202064D01*
X65560968Y-148221188D01*
X65415155Y-148212424D01*
X65208865Y-148166990D01*
X65014024Y-148083451D01*
X64832651Y-147962524D01*
X64794965Y-147931235D01*
X64713820Y-147859069D01*
X64620203Y-147771173D01*
X64518748Y-147672349D01*
X64414090Y-147567397D01*
X64310866Y-147461118D01*
X64213708Y-147358312D01*
X64127254Y-147263780D01*
X64056138Y-147182322D01*
X64004995Y-147118740D01*
X63978460Y-147077833D01*
X63951802Y-147004970D01*
X63936237Y-146878370D01*
X63960286Y-146754672D01*
X64023629Y-146635079D01*
X64125949Y-146520795D01*
X64227791Y-146442227D01*
X64340476Y-146391499D01*
X64458156Y-146377732D01*
X64586376Y-146399466D01*
X64590008Y-146400564D01*
X64620865Y-146413870D01*
X64658532Y-146437696D01*
X64706522Y-146475097D01*
X64768351Y-146529127D01*
X64847531Y-146602840D01*
X64947577Y-146699289D01*
X65072002Y-146821530D01*
X65139590Y-146888167D01*
X65248145Y-146994157D01*
X65334057Y-147076094D01*
X65400856Y-147137023D01*
X65452076Y-147179990D01*
X65491247Y-147208039D01*
X65521902Y-147224217D01*
X65547573Y-147231568D01*
X65595492Y-147235170D01*
X65635840Y-147221375D01*
X65681217Y-147182216D01*
X65698114Y-147164324D01*
X65732761Y-147109270D01*
X65742338Y-147044464D01*
X65742025Y-147031083D01*
X65738550Y-147007601D01*
X65728631Y-146982444D01*
X65709094Y-146951837D01*
X65676767Y-146912006D01*
X65628479Y-146859178D01*
X65561056Y-146789578D01*
X65471328Y-146699432D01*
X65356121Y-146584966D01*
X65257566Y-146488497D01*
X65154102Y-146389825D01*
X65059341Y-146302054D01*
X64978146Y-146229605D01*
X64915381Y-146176901D01*
X64875910Y-146148363D01*
X64820160Y-146119585D01*
X64656664Y-146063626D01*
X64481998Y-146039748D01*
X64306627Y-146048759D01*
X64141010Y-146091470D01*
X64047838Y-146134802D01*
X63908242Y-146230861D01*
X63786328Y-146353019D01*
X63689560Y-146493284D01*
X63625400Y-146643664D01*
X63612445Y-146699229D01*
X63599309Y-146817607D01*
X63598852Y-146946323D01*
X63282903Y-146946323D01*
X63277633Y-146862502D01*
X63300480Y-146661345D01*
X63356445Y-146470837D01*
X63442704Y-146294489D01*
X63556431Y-146135808D01*
X63694803Y-145998304D01*
X63854993Y-145885486D01*
X64034178Y-145800864D01*
X64229532Y-145747946D01*
X64438230Y-145730242D01*
X64541502Y-145733614D01*
X64702808Y-145754785D01*
X64852979Y-145798774D01*
X65008181Y-145869532D01*
X65054413Y-145895756D01*
X65106324Y-145930506D01*
X65164543Y-145975574D01*
X65233382Y-146034672D01*
X65317151Y-146111512D01*
X65420159Y-146209806D01*
X65546719Y-146333266D01*
X65652434Y-146438188D01*
X65753379Y-146540482D01*
X65843298Y-146633695D01*
X65917723Y-146713135D01*
X65972190Y-146774110D01*
X66002234Y-146811928D01*
X66045901Y-146891664D01*
X66078239Y-147012536D01*
X66070741Y-147133629D01*
X66023545Y-147253758D01*
X65936790Y-147371742D01*
X65904972Y-147405127D01*
X65798335Y-147494643D01*
X65692345Y-147547293D01*
X65582989Y-147565274D01*
X65575036Y-147565353D01*
X65519836Y-147564054D01*
X65470314Y-147557344D01*
X65422244Y-147542321D01*
X65371403Y-147516083D01*
X65313568Y-147475727D01*
X65244513Y-147418350D01*
X65160016Y-147341050D01*
X65055852Y-147240925D01*
X64927797Y-147115073D01*
X64856242Y-147044471D01*
X64752327Y-146942581D01*
X64670969Y-146864240D01*
X64608486Y-146806376D01*
X64561199Y-146765920D01*
X64525425Y-146739800D01*
X64497486Y-146724945D01*
X64473699Y-146718284D01*
X64450384Y-146716746D01*
X64408167Y-146720845D01*
X64338207Y-146753312D01*
X64293472Y-146814794D01*
X64277725Y-146901270D01*
X64278281Y-146925585D01*
X64282082Y-146949696D01*
X64292281Y-146975197D01*
X64312029Y-147005930D01*
X64344479Y-147045737D01*
X64392783Y-147098462D01*
X64460091Y-147167945D01*
X64549557Y-147258029D01*
X64664333Y-147372558D01*
X64716672Y-147424615D01*
X64827096Y-147533381D01*
X64915729Y-147618505D01*
X64986883Y-147683704D01*
X65044868Y-147732695D01*
X65093997Y-147769193D01*
X65138581Y-147796915D01*
X65182931Y-147819578D01*
X65301319Y-147866514D01*
X65483071Y-147906293D01*
X65661708Y-147907120D01*
X65834279Y-147869419D01*
X65997834Y-147793616D01*
X66149422Y-147680137D01*
X66176532Y-147654147D01*
X66286216Y-147517007D01*
X66365152Y-147360342D01*
X66411243Y-147191247D01*
X66422391Y-147016818D01*
X66396499Y-146844151D01*
X66392566Y-146829675D01*
X66373298Y-146768049D01*
X66349412Y-146710100D01*
X66317837Y-146651925D01*
X66275503Y-146589623D01*
X66219340Y-146519291D01*
X66146277Y-146437025D01*
X66053243Y-146338925D01*
X65937170Y-146221087D01*
X65794985Y-146079608D01*
X65727428Y-146012809D01*
X65611908Y-145899051D01*
X65518606Y-145808381D01*
X65443390Y-145737312D01*
X65382126Y-145682355D01*
X65330681Y-145640021D01*
X65284923Y-145606823D01*
X65240719Y-145579273D01*
X65193936Y-145553882D01*
X65140442Y-145527163D01*
X65069671Y-145493663D01*
X64916258Y-145432120D01*
X64770024Y-145392523D01*
X64615754Y-145371361D01*
X64438230Y-145365123D01*
X64352371Y-145366168D01*
X64240782Y-145372698D01*
X64144391Y-145386724D01*
X64048133Y-145409979D01*
X64012483Y-145420429D01*
X63779025Y-145511881D01*
X63567332Y-145635971D01*
X63379921Y-145790323D01*
X63219305Y-145972561D01*
X63088000Y-146180307D01*
X62988522Y-146411187D01*
X62966767Y-146477903D01*
X62946667Y-146553895D01*
X62933787Y-146630266D01*
X62926036Y-146720260D01*
X62921325Y-146837125D01*
X62919825Y-146932588D01*
X62600345Y-146932588D01*
X62599557Y-146904848D01*
X62606344Y-146732251D01*
X62624057Y-146567569D01*
X62652135Y-146425829D01*
X62736715Y-146181244D01*
X62857349Y-145948519D01*
X63009999Y-145734113D01*
X63191228Y-145542201D01*
X63397598Y-145376964D01*
X63625671Y-145242579D01*
X63725465Y-145195148D01*
X63859002Y-145140507D01*
X63985336Y-145102488D01*
X64116177Y-145078488D01*
X64263239Y-145065907D01*
X64438230Y-145062145D01*
X64555275Y-145063173D01*
G37*
G36*
X66159566Y-134031793D02*
G01*
X66153633Y-134167220D01*
X65814702Y-134177251D01*
X65719378Y-134180250D01*
X65606716Y-134185486D01*
X65527147Y-134193565D01*
X65476452Y-134206704D01*
X65450415Y-134227122D01*
X65444815Y-134257036D01*
X65455434Y-134298663D01*
X65478055Y-134354221D01*
X65512151Y-134465684D01*
X65519919Y-134603408D01*
X65493166Y-134738005D01*
X65434631Y-134863895D01*
X65347052Y-134975497D01*
X65233166Y-135067232D01*
X65095711Y-135133520D01*
X65056583Y-135144300D01*
X64960801Y-135159488D01*
X64841687Y-135169141D01*
X64709754Y-135173251D01*
X64680307Y-135172935D01*
X64575512Y-135171811D01*
X64449472Y-135164812D01*
X64342147Y-135152248D01*
X64264046Y-135134111D01*
X64167164Y-135091920D01*
X64037499Y-135001570D01*
X63935349Y-134883639D01*
X63864033Y-134741382D01*
X63851388Y-134698535D01*
X63836795Y-134572179D01*
X63838480Y-134553809D01*
X64128152Y-134553809D01*
X64144981Y-134643538D01*
X64163771Y-134690743D01*
X64204628Y-134766338D01*
X64255732Y-134821839D01*
X64322968Y-134860056D01*
X64412220Y-134883797D01*
X64529372Y-134895870D01*
X64680307Y-134899085D01*
X64753349Y-134898199D01*
X64893925Y-134889579D01*
X65002473Y-134869661D01*
X65084127Y-134835831D01*
X65144020Y-134785474D01*
X65187286Y-134715976D01*
X65219057Y-134624723D01*
X65232531Y-134546432D01*
X65223429Y-134429798D01*
X65180530Y-134326034D01*
X65107579Y-134240534D01*
X65008320Y-134178690D01*
X64886498Y-134145894D01*
X64855575Y-134142717D01*
X64764164Y-134138413D01*
X64660960Y-134138852D01*
X64556337Y-134143456D01*
X64460673Y-134151646D01*
X64384341Y-134162845D01*
X64337717Y-134176473D01*
X64301657Y-134197748D01*
X64222870Y-134263520D01*
X64167413Y-134338021D01*
X64158261Y-134357647D01*
X64133077Y-134451727D01*
X64128152Y-134553809D01*
X63838480Y-134553809D01*
X63848868Y-134440547D01*
X63886688Y-134320717D01*
X63901816Y-134287778D01*
X63926471Y-134226468D01*
X63933443Y-134184430D01*
X63923278Y-134150019D01*
X63896524Y-134111587D01*
X63881336Y-134088867D01*
X63857296Y-134009744D01*
X63868576Y-133928102D01*
X63871367Y-133923775D01*
X63881653Y-133917628D01*
X63901719Y-133912462D01*
X63934599Y-133908194D01*
X63983329Y-133904741D01*
X64050943Y-133902019D01*
X64140475Y-133899944D01*
X64254961Y-133898434D01*
X64397434Y-133897404D01*
X64570929Y-133896772D01*
X64778482Y-133896454D01*
X65023126Y-133896367D01*
X66165498Y-133896367D01*
X66159566Y-134031793D01*
G37*
G36*
X65165101Y-141275448D02*
G01*
X65186573Y-141286389D01*
X65316023Y-141373583D01*
X65413714Y-141483188D01*
X65483259Y-141619103D01*
X65501101Y-141671877D01*
X65514839Y-141736696D01*
X65519785Y-141811671D01*
X65517680Y-141911611D01*
X65517547Y-141914664D01*
X65511359Y-142009857D01*
X65500486Y-142079507D01*
X65481668Y-142137793D01*
X65451647Y-142198893D01*
X65376542Y-142309688D01*
X65274267Y-142404302D01*
X65141357Y-142481384D01*
X65103835Y-142498338D01*
X65065209Y-142512599D01*
X65023620Y-142522386D01*
X64971636Y-142528537D01*
X64901825Y-142531893D01*
X64806753Y-142533291D01*
X64678989Y-142533570D01*
X64676119Y-142533570D01*
X64675679Y-142533570D01*
X64549271Y-142533323D01*
X64455432Y-142532005D01*
X64386774Y-142528742D01*
X64335909Y-142522656D01*
X64295446Y-142512873D01*
X64257999Y-142498516D01*
X64216177Y-142478711D01*
X64127741Y-142427702D01*
X64005401Y-142322964D01*
X63914237Y-142195122D01*
X63856889Y-142047350D01*
X63849189Y-142006248D01*
X63843295Y-141903255D01*
X63843551Y-141898572D01*
X64136421Y-141898572D01*
X64157249Y-142009539D01*
X64205264Y-142107663D01*
X64278789Y-142183222D01*
X64329694Y-142208806D01*
X64423073Y-142233879D01*
X64541274Y-142249900D01*
X64676119Y-142255846D01*
X64819431Y-142250698D01*
X64921151Y-142239193D01*
X65025869Y-142212909D01*
X65104097Y-142170021D01*
X65162990Y-142106249D01*
X65209705Y-142017314D01*
X65222654Y-141980828D01*
X65237758Y-141869388D01*
X65220996Y-141759102D01*
X65175792Y-141658625D01*
X65105566Y-141576611D01*
X65013741Y-141521716D01*
X65008536Y-141520057D01*
X64960977Y-141512375D01*
X64884559Y-141506201D01*
X64788670Y-141502130D01*
X64682698Y-141500757D01*
X64650499Y-141500896D01*
X64515137Y-141504593D01*
X64411860Y-141514898D01*
X64334157Y-141533989D01*
X64275515Y-141564044D01*
X64229422Y-141607240D01*
X64189366Y-141665757D01*
X64183051Y-141676989D01*
X64144462Y-141784482D01*
X64136421Y-141898572D01*
X63843551Y-141898572D01*
X63849540Y-141788921D01*
X63866578Y-141680126D01*
X63893064Y-141593750D01*
X63903319Y-141571960D01*
X63984010Y-141450622D01*
X64093527Y-141346006D01*
X64222602Y-141267291D01*
X64268070Y-141246873D01*
X64309183Y-141231410D01*
X64351586Y-141220917D01*
X64403047Y-141214434D01*
X64471331Y-141210995D01*
X64564207Y-141209638D01*
X64689442Y-141209400D01*
X65030938Y-141209400D01*
X65165101Y-141275448D01*
G37*
G36*
X64928430Y-135345338D02*
G01*
X65049530Y-135357076D01*
X65148543Y-135383548D01*
X65234392Y-135427255D01*
X65316000Y-135490696D01*
X65318803Y-135493233D01*
X65414041Y-135605572D01*
X65478631Y-135736300D01*
X65513021Y-135878631D01*
X65517658Y-136025779D01*
X65492990Y-136170958D01*
X65439465Y-136307381D01*
X65357531Y-136428262D01*
X65247636Y-136526814D01*
X65238195Y-136533217D01*
X65149468Y-136583604D01*
X65052503Y-136618998D01*
X64936822Y-136642385D01*
X64838568Y-136652131D01*
X64791947Y-136656755D01*
X64728300Y-136659844D01*
X64567432Y-136657818D01*
X64416461Y-136642567D01*
X64285088Y-136615352D01*
X64183014Y-136577438D01*
X64056671Y-136493746D01*
X63951413Y-136380679D01*
X63877250Y-136246702D01*
X63838043Y-136097193D01*
X63831364Y-135960683D01*
X63851435Y-135803618D01*
X63899806Y-135660653D01*
X63974252Y-135540874D01*
X63974416Y-135540675D01*
X64041870Y-135476860D01*
X64128352Y-135419330D01*
X64219150Y-135376424D01*
X64299553Y-135356481D01*
X64368009Y-135350948D01*
X64373896Y-135484390D01*
X64379784Y-135617833D01*
X64295323Y-135664959D01*
X64261184Y-135686578D01*
X64186250Y-135763489D01*
X64141937Y-135865189D01*
X64127560Y-135993018D01*
X64137205Y-136086946D01*
X64178322Y-136192730D01*
X64249540Y-136273341D01*
X64348468Y-136326313D01*
X64472715Y-136349180D01*
X64568641Y-136354107D01*
X64568735Y-136349399D01*
X64838568Y-136349399D01*
X64931607Y-136338912D01*
X64995947Y-136326009D01*
X65088817Y-136279067D01*
X65168677Y-136196737D01*
X65192170Y-136152731D01*
X65213878Y-136066412D01*
X65219976Y-135967131D01*
X65209945Y-135869367D01*
X65183271Y-135787604D01*
X65182100Y-135785333D01*
X65116978Y-135700160D01*
X65028556Y-135641633D01*
X64926826Y-135616424D01*
X64849526Y-135611769D01*
X64838568Y-136349399D01*
X64568735Y-136349399D01*
X64578673Y-135852528D01*
X64588704Y-135350948D01*
X64796744Y-135345204D01*
X64928430Y-135345338D01*
G37*
G36*
X64642367Y-142673499D02*
G01*
X64764030Y-142703519D01*
X64883964Y-142764759D01*
X64987787Y-142854807D01*
X65074212Y-142975160D01*
X65145168Y-143128519D01*
X65202584Y-143317587D01*
X65234191Y-143434142D01*
X65276262Y-143551204D01*
X65323272Y-143636133D01*
X65378651Y-143693409D01*
X65445829Y-143727514D01*
X65528238Y-143742926D01*
X65591818Y-143743405D01*
X65693091Y-143718271D01*
X65771863Y-143660541D01*
X65826564Y-143571603D01*
X65855630Y-143452845D01*
X65855692Y-143328866D01*
X65825768Y-143217985D01*
X65768494Y-143128637D01*
X65686949Y-143065580D01*
X65584213Y-143033572D01*
X65523211Y-143021796D01*
X65472599Y-142995079D01*
X65447903Y-142947359D01*
X65441390Y-142869767D01*
X65441390Y-142869646D01*
X65448754Y-142792984D01*
X65474847Y-142747476D01*
X65525718Y-142728012D01*
X65607415Y-142729480D01*
X65609496Y-142729698D01*
X65763596Y-142764186D01*
X65896365Y-142832645D01*
X66007604Y-142934939D01*
X66097120Y-143070931D01*
X66119213Y-143121707D01*
X66151637Y-143248445D01*
X66163764Y-143388735D01*
X66154903Y-143527865D01*
X66124363Y-143651123D01*
X66087013Y-143731098D01*
X66006660Y-143846303D01*
X65907182Y-143942243D01*
X65798102Y-144008488D01*
X65672247Y-144046078D01*
X65528323Y-144055362D01*
X65385934Y-144033388D01*
X65254576Y-143981703D01*
X65143750Y-143901855D01*
X65111105Y-143868403D01*
X65053848Y-143794155D01*
X65005853Y-143705030D01*
X64963008Y-143592653D01*
X64921197Y-143448645D01*
X64906967Y-143395564D01*
X64867034Y-143262909D01*
X64827587Y-143162920D01*
X64784982Y-143090288D01*
X64735573Y-143039703D01*
X64675714Y-143005856D01*
X64601761Y-142983438D01*
X64549088Y-142975775D01*
X64436003Y-142986337D01*
X64331819Y-143030929D01*
X64244347Y-143105422D01*
X64181392Y-143205687D01*
X64157960Y-143294613D01*
X64152067Y-143402349D01*
X64163911Y-143509346D01*
X64192964Y-143597726D01*
X64227559Y-143656344D01*
X64306107Y-143741413D01*
X64402468Y-143791302D01*
X64519083Y-143807583D01*
X64519492Y-143807583D01*
X64578198Y-143815502D01*
X64614781Y-143843356D01*
X64633562Y-143897521D01*
X64638862Y-143984376D01*
X64638203Y-144015621D01*
X64627740Y-144078117D01*
X64599244Y-144113180D01*
X64545930Y-144126061D01*
X64461013Y-144122012D01*
X64437362Y-144119147D01*
X64279005Y-144078126D01*
X64138338Y-144003104D01*
X64019360Y-143897515D01*
X63926073Y-143764792D01*
X63862477Y-143608369D01*
X63851986Y-143556101D01*
X63843765Y-143460046D01*
X63844158Y-143351957D01*
X63861139Y-143218635D01*
X63912211Y-143060563D01*
X63993288Y-142921630D01*
X64101220Y-142806943D01*
X64232859Y-142721609D01*
X64251506Y-142713184D01*
X64370626Y-142678859D01*
X64506073Y-142665454D01*
X64642367Y-142673499D01*
G37*
G36*
X64583794Y-139276359D02*
G01*
X64788451Y-139277040D01*
X65030094Y-139278096D01*
X66153633Y-139283333D01*
X66159689Y-139411917D01*
X66160912Y-139468274D01*
X66155216Y-139528966D01*
X66139626Y-139557068D01*
X66125575Y-139560768D01*
X66075457Y-139565920D01*
X65997374Y-139570069D01*
X65898710Y-139572861D01*
X65786850Y-139573942D01*
X65714256Y-139574176D01*
X65608362Y-139575630D01*
X65534277Y-139578812D01*
X65486612Y-139584190D01*
X65459983Y-139592234D01*
X65449002Y-139603414D01*
X65448289Y-139626915D01*
X65458906Y-139679578D01*
X65479727Y-139744609D01*
X65514276Y-139888014D01*
X65512261Y-140032926D01*
X65474736Y-140170753D01*
X65403949Y-140296071D01*
X65302150Y-140403457D01*
X65171588Y-140487489D01*
X65149523Y-140497454D01*
X65034686Y-140532607D01*
X64894683Y-140555588D01*
X64740081Y-140566392D01*
X64669319Y-140565779D01*
X64581445Y-140565017D01*
X64429341Y-140551460D01*
X64294336Y-140525717D01*
X64186993Y-140487785D01*
X64182276Y-140485440D01*
X64085793Y-140422616D01*
X63993965Y-140338059D01*
X63917849Y-140243476D01*
X63868503Y-140150573D01*
X63861765Y-140130065D01*
X63843254Y-140024203D01*
X63842666Y-139910141D01*
X64123577Y-139910141D01*
X64139653Y-140028119D01*
X64193131Y-140133654D01*
X64282742Y-140223041D01*
X64337972Y-140251210D01*
X64431059Y-140275717D01*
X64544814Y-140290672D01*
X64669319Y-140296083D01*
X64794656Y-140291957D01*
X64910906Y-140278302D01*
X65008152Y-140255126D01*
X65076475Y-140222436D01*
X65088923Y-140212809D01*
X65165407Y-140128985D01*
X65212817Y-140029845D01*
X65231678Y-139923044D01*
X65222512Y-139816239D01*
X65185842Y-139717085D01*
X65122190Y-139633238D01*
X65032079Y-139572352D01*
X64996380Y-139558479D01*
X64947712Y-139546874D01*
X64884201Y-139539686D01*
X64797431Y-139536027D01*
X64678989Y-139535004D01*
X64607392Y-139535733D01*
X64466493Y-139543956D01*
X64357643Y-139563400D01*
X64275689Y-139596645D01*
X64215477Y-139646270D01*
X64171855Y-139714854D01*
X64139671Y-139804976D01*
X64123577Y-139910141D01*
X63842666Y-139910141D01*
X63842645Y-139906124D01*
X63859093Y-139792256D01*
X63891750Y-139699027D01*
X63918314Y-139644047D01*
X63933682Y-139589850D01*
X63926317Y-139545930D01*
X63896524Y-139499472D01*
X63865981Y-139441270D01*
X63858426Y-139369488D01*
X63881477Y-139307009D01*
X63888461Y-139300167D01*
X63901463Y-139293913D01*
X63923207Y-139288745D01*
X63956830Y-139284585D01*
X64005471Y-139281354D01*
X64072269Y-139278972D01*
X64160362Y-139277360D01*
X64272888Y-139276440D01*
X64412986Y-139276133D01*
X64583794Y-139276359D01*
G37*
G36*
X65384249Y-136645713D02*
G01*
X65446125Y-136658428D01*
X65482281Y-136691572D01*
X65496634Y-136750873D01*
X65493100Y-136842063D01*
X65474621Y-136957477D01*
X65434435Y-137075310D01*
X65370548Y-137179295D01*
X65341861Y-137220773D01*
X65323642Y-137268472D01*
X65338257Y-137299337D01*
X65386216Y-137317863D01*
X65401443Y-137321326D01*
X65462491Y-137344272D01*
X65493161Y-137380447D01*
X65501579Y-137438335D01*
X65502073Y-137464468D01*
X65502150Y-137492021D01*
X65498253Y-137514216D01*
X65486767Y-137531631D01*
X65464077Y-137544840D01*
X65426568Y-137554421D01*
X65370624Y-137560948D01*
X65292632Y-137564997D01*
X65188976Y-137567144D01*
X65056040Y-137567965D01*
X64890210Y-137568035D01*
X64687871Y-137567930D01*
X64685331Y-137567930D01*
X64486286Y-137567822D01*
X64323562Y-137567393D01*
X64193400Y-137566479D01*
X64092037Y-137564917D01*
X64015715Y-137562545D01*
X63960671Y-137559200D01*
X63923145Y-137554717D01*
X63899376Y-137548935D01*
X63885604Y-137541691D01*
X63878068Y-137532820D01*
X63874225Y-137524754D01*
X63862170Y-137475742D01*
X63857008Y-137413874D01*
X63857388Y-137371461D01*
X63862181Y-137337027D01*
X63875863Y-137311131D01*
X63902896Y-137292549D01*
X63947743Y-137280059D01*
X64014867Y-137272436D01*
X64108730Y-137268457D01*
X64233793Y-137266900D01*
X64394521Y-137266542D01*
X64492611Y-137266300D01*
X64641032Y-137264672D01*
X64757735Y-137260551D01*
X64848122Y-137252807D01*
X64917594Y-137240310D01*
X64971553Y-137221931D01*
X65015403Y-137196541D01*
X65054543Y-137163009D01*
X65094377Y-137120207D01*
X65153030Y-137033658D01*
X65189018Y-136925085D01*
X65200520Y-136791188D01*
X65206738Y-136718038D01*
X65230320Y-136673029D01*
X65278468Y-136650913D01*
X65358385Y-136645024D01*
X65384249Y-136645713D01*
G37*
G36*
X65135242Y-140738352D02*
G01*
X65335629Y-140739025D01*
X65522131Y-140740217D01*
X65690999Y-140741870D01*
X65838485Y-140743929D01*
X65960839Y-140746338D01*
X66054313Y-140749039D01*
X66115158Y-140751978D01*
X66139626Y-140755096D01*
X66150572Y-140769086D01*
X66159904Y-140817118D01*
X66159689Y-140900247D01*
X66153633Y-141028831D01*
X65030094Y-141034069D01*
X64804638Y-141035060D01*
X64597414Y-141035770D01*
X64424264Y-141036032D01*
X64282052Y-141035766D01*
X64167638Y-141034893D01*
X64077885Y-141033334D01*
X64009653Y-141031010D01*
X63959804Y-141027843D01*
X63925201Y-141023753D01*
X63902704Y-141018660D01*
X63889175Y-141012488D01*
X63881477Y-141005155D01*
X63877456Y-140998980D01*
X63860715Y-140945481D01*
X63857200Y-140877693D01*
X63866431Y-140813164D01*
X63887926Y-140769443D01*
X63889638Y-140767873D01*
X63901506Y-140761211D01*
X63922056Y-140755603D01*
X63954430Y-140750963D01*
X64001774Y-140747202D01*
X64067233Y-140744236D01*
X64153951Y-140741975D01*
X64265072Y-140740334D01*
X64403741Y-140739225D01*
X64573102Y-140738561D01*
X64776300Y-140738256D01*
X65016480Y-140738222D01*
X65135242Y-140738352D01*
G37*
%TO.C,G\u002A\u002A\u002A*%
G36*
X55751699Y-144046185D02*
G01*
X55797051Y-144046529D01*
X55840019Y-144047169D01*
X55879032Y-144048105D01*
X55912521Y-144049334D01*
X55938916Y-144050854D01*
X55956649Y-144052664D01*
X55964148Y-144054762D01*
X55964358Y-144055087D01*
X55967131Y-144063883D01*
X55971697Y-144082804D01*
X55977780Y-144110527D01*
X55985104Y-144145727D01*
X55993393Y-144187080D01*
X56002370Y-144233263D01*
X56011758Y-144282951D01*
X56021244Y-144333034D01*
X56030628Y-144380887D01*
X56039234Y-144423062D01*
X56046807Y-144458371D01*
X56053090Y-144485622D01*
X56057830Y-144503627D01*
X56060769Y-144511196D01*
X56066710Y-144514842D01*
X56082307Y-144522614D01*
X56105656Y-144533506D01*
X56135073Y-144546794D01*
X56168874Y-144561754D01*
X56205375Y-144577664D01*
X56242893Y-144593800D01*
X56279744Y-144609439D01*
X56314245Y-144623856D01*
X56344711Y-144636329D01*
X56369460Y-144646134D01*
X56386808Y-144652547D01*
X56395070Y-144654846D01*
X56395753Y-144654704D01*
X56404599Y-144650157D01*
X56421790Y-144639744D01*
X56446211Y-144624193D01*
X56476744Y-144604231D01*
X56512275Y-144580588D01*
X56551687Y-144553990D01*
X56593866Y-144525166D01*
X56602887Y-144518971D01*
X56644498Y-144490563D01*
X56683043Y-144464523D01*
X56717415Y-144441578D01*
X56746511Y-144422456D01*
X56769224Y-144407884D01*
X56784450Y-144398591D01*
X56791085Y-144395304D01*
X56797059Y-144399297D01*
X56810167Y-144410648D01*
X56829298Y-144428255D01*
X56853344Y-144451019D01*
X56881196Y-144477838D01*
X56911748Y-144507614D01*
X56943889Y-144539246D01*
X56976513Y-144571634D01*
X57008510Y-144603677D01*
X57038774Y-144634275D01*
X57066195Y-144662329D01*
X57089665Y-144686738D01*
X57108077Y-144706402D01*
X57120322Y-144720220D01*
X57125292Y-144727093D01*
X57124754Y-144730771D01*
X57119034Y-144743003D01*
X57107210Y-144763387D01*
X57089108Y-144792198D01*
X57064554Y-144829711D01*
X57033373Y-144876199D01*
X56995392Y-144931939D01*
X56985922Y-144945775D01*
X56957372Y-144987746D01*
X56931256Y-145026518D01*
X56908288Y-145061007D01*
X56889180Y-145090128D01*
X56874648Y-145112796D01*
X56865406Y-145127925D01*
X56862166Y-145134431D01*
X56862938Y-145138175D01*
X56867593Y-145152191D01*
X56875836Y-145174287D01*
X56886946Y-145202730D01*
X56900202Y-145235789D01*
X56914884Y-145271731D01*
X56930270Y-145308823D01*
X56945639Y-145345332D01*
X56960271Y-145379527D01*
X56973445Y-145409673D01*
X56984439Y-145434040D01*
X56992533Y-145450894D01*
X56997007Y-145458502D01*
X57001584Y-145461057D01*
X57015466Y-145465589D01*
X57038619Y-145471445D01*
X57071520Y-145478729D01*
X57114647Y-145487546D01*
X57168479Y-145497999D01*
X57233493Y-145510195D01*
X57245333Y-145512394D01*
X57295069Y-145521786D01*
X57341008Y-145530704D01*
X57381848Y-145538879D01*
X57416284Y-145546041D01*
X57443013Y-145551920D01*
X57460730Y-145556246D01*
X57468132Y-145558749D01*
X57470145Y-145565680D01*
X57471972Y-145582986D01*
X57473509Y-145609027D01*
X57474754Y-145642232D01*
X57475706Y-145681031D01*
X57476362Y-145723856D01*
X57476722Y-145769136D01*
X57476783Y-145815303D01*
X57476543Y-145860785D01*
X57476001Y-145904014D01*
X57475154Y-145943420D01*
X57474001Y-145977433D01*
X57472539Y-146004484D01*
X57470768Y-146023004D01*
X57468685Y-146031421D01*
X57464705Y-146033945D01*
X57452341Y-146038205D01*
X57431334Y-146043637D01*
X57401080Y-146050375D01*
X57360977Y-146058551D01*
X57310419Y-146068298D01*
X57248803Y-146079749D01*
X57218630Y-146085286D01*
X57162553Y-146095636D01*
X57116593Y-146104241D01*
X57079725Y-146111334D01*
X57050927Y-146117145D01*
X57029175Y-146121904D01*
X57013446Y-146125842D01*
X57002716Y-146129189D01*
X56995963Y-146132177D01*
X56992163Y-146135034D01*
X56990293Y-146137993D01*
X56990154Y-146138333D01*
X56986683Y-146146809D01*
X56979402Y-146164549D01*
X56968915Y-146190085D01*
X56955823Y-146221949D01*
X56940729Y-146258674D01*
X56924238Y-146298792D01*
X56915363Y-146320430D01*
X56898326Y-146362446D01*
X56885351Y-146395389D01*
X56876016Y-146420486D01*
X56869901Y-146438969D01*
X56866584Y-146452066D01*
X56865646Y-146461008D01*
X56866666Y-146467023D01*
X56866769Y-146467279D01*
X56871720Y-146475993D01*
X56882568Y-146493153D01*
X56898530Y-146517584D01*
X56918827Y-146548111D01*
X56942677Y-146583560D01*
X56969300Y-146622755D01*
X56997915Y-146664523D01*
X57000573Y-146668387D01*
X57028850Y-146709664D01*
X57054928Y-146748017D01*
X57078052Y-146782316D01*
X57097468Y-146811430D01*
X57112422Y-146834229D01*
X57122160Y-146849585D01*
X57125929Y-146856366D01*
X57124850Y-146859287D01*
X57116450Y-146870475D01*
X57100120Y-146889133D01*
X57076252Y-146914843D01*
X57045241Y-146947183D01*
X57007477Y-146985735D01*
X56963354Y-147030079D01*
X56961892Y-147031538D01*
X56919755Y-147073498D01*
X56885065Y-147107758D01*
X56857034Y-147135031D01*
X56834875Y-147156030D01*
X56817799Y-147171468D01*
X56805020Y-147182057D01*
X56795749Y-147188511D01*
X56789199Y-147191543D01*
X56784582Y-147191865D01*
X56784391Y-147191819D01*
X56775995Y-147187570D01*
X56759143Y-147177385D01*
X56735003Y-147162026D01*
X56704746Y-147142259D01*
X56669542Y-147118847D01*
X56630562Y-147092554D01*
X56588975Y-147064145D01*
X56548259Y-147036370D01*
X56508344Y-147009585D01*
X56472680Y-146986114D01*
X56442349Y-146966650D01*
X56418435Y-146951887D01*
X56402018Y-146942519D01*
X56394181Y-146939240D01*
X56390307Y-146939959D01*
X56375882Y-146944648D01*
X56353379Y-146953074D01*
X56324524Y-146964499D01*
X56291039Y-146978186D01*
X56254647Y-146993400D01*
X56217072Y-147009402D01*
X56180037Y-147025457D01*
X56145266Y-147040827D01*
X56114481Y-147054775D01*
X56089406Y-147066565D01*
X56071765Y-147075460D01*
X56063280Y-147080723D01*
X56060842Y-147084207D01*
X56056987Y-147093647D01*
X56052404Y-147109260D01*
X56046890Y-147131956D01*
X56040241Y-147162649D01*
X56032250Y-147202250D01*
X56022715Y-147251670D01*
X56011430Y-147311821D01*
X56007159Y-147334725D01*
X55996318Y-147391913D01*
X55987165Y-147438507D01*
X55979527Y-147475288D01*
X55973230Y-147503036D01*
X55968101Y-147522528D01*
X55963966Y-147534546D01*
X55960652Y-147539868D01*
X55958489Y-147540945D01*
X55949925Y-147542788D01*
X55934927Y-147544265D01*
X55912602Y-147545405D01*
X55882054Y-147546237D01*
X55842387Y-147546788D01*
X55792706Y-147547088D01*
X55732116Y-147547166D01*
X55730809Y-147547165D01*
X55680702Y-147547049D01*
X55633971Y-147546762D01*
X55592020Y-147546326D01*
X55556256Y-147545764D01*
X55528082Y-147545097D01*
X55508904Y-147544348D01*
X55500127Y-147543538D01*
X55499044Y-147543249D01*
X55495105Y-147541958D01*
X55491662Y-147539677D01*
X55488450Y-147535341D01*
X55485205Y-147527891D01*
X55481663Y-147516264D01*
X55477561Y-147499398D01*
X55472633Y-147476231D01*
X55466617Y-147445703D01*
X55459248Y-147406750D01*
X55450261Y-147358312D01*
X55439394Y-147299326D01*
X55435809Y-147279943D01*
X55425023Y-147222968D01*
X55415873Y-147176968D01*
X55408238Y-147141412D01*
X55402001Y-147115766D01*
X55397042Y-147099498D01*
X55393243Y-147092074D01*
X55393205Y-147092037D01*
X55385092Y-147087341D01*
X55367642Y-147079151D01*
X55342539Y-147068139D01*
X55311466Y-147054981D01*
X55276106Y-147040348D01*
X55238142Y-147024915D01*
X55199256Y-147009355D01*
X55161131Y-146994342D01*
X55125452Y-146980549D01*
X55093900Y-146968649D01*
X55068158Y-146959316D01*
X55049909Y-146953224D01*
X55040838Y-146951047D01*
X55033809Y-146954038D01*
X55018109Y-146963048D01*
X54995023Y-146977328D01*
X54965725Y-146996125D01*
X54931391Y-147018683D01*
X54893196Y-147044248D01*
X54852315Y-147072066D01*
X54813087Y-147098768D01*
X54774754Y-147124441D01*
X54740232Y-147147138D01*
X54710696Y-147166104D01*
X54687322Y-147180585D01*
X54671285Y-147189827D01*
X54663760Y-147193075D01*
X54663042Y-147192967D01*
X54653872Y-147187296D01*
X54636767Y-147173072D01*
X54611813Y-147150375D01*
X54579097Y-147119287D01*
X54538708Y-147079889D01*
X54490732Y-147032262D01*
X54476715Y-147018228D01*
X54431357Y-146972415D01*
X54394505Y-146934477D01*
X54366042Y-146904291D01*
X54345853Y-146881733D01*
X54333824Y-146866680D01*
X54329840Y-146859007D01*
X54332417Y-146852682D01*
X54341034Y-146837463D01*
X54354970Y-146814814D01*
X54373461Y-146785924D01*
X54395744Y-146751985D01*
X54421057Y-146714187D01*
X54448635Y-146673721D01*
X54473224Y-146637670D01*
X54498823Y-146599510D01*
X54521475Y-146565074D01*
X54540418Y-146535551D01*
X54554888Y-146512133D01*
X54564123Y-146496012D01*
X54567359Y-146488377D01*
X54566774Y-146485264D01*
X54561761Y-146471893D01*
X54552449Y-146451359D01*
X54539849Y-146425828D01*
X54524968Y-146397462D01*
X54522061Y-146392047D01*
X54506142Y-146361139D01*
X54494389Y-146336018D01*
X54487439Y-146318130D01*
X54485929Y-146308919D01*
X54490616Y-146305072D01*
X54505226Y-146297181D01*
X54529884Y-146285429D01*
X54564747Y-146269747D01*
X54609975Y-146250063D01*
X54665728Y-146226308D01*
X54732165Y-146198411D01*
X54809444Y-146166303D01*
X54874442Y-146139412D01*
X54945951Y-146109835D01*
X55007835Y-146084260D01*
X55060804Y-146062405D01*
X55105570Y-146043989D01*
X55142845Y-146028730D01*
X55173339Y-146016345D01*
X55197766Y-146006552D01*
X55216835Y-145999070D01*
X55231259Y-145993617D01*
X55241749Y-145989910D01*
X55249017Y-145987669D01*
X55253773Y-145986609D01*
X55256730Y-145986451D01*
X55258599Y-145986911D01*
X55260092Y-145987708D01*
X55260496Y-145987980D01*
X55267237Y-145995200D01*
X55278975Y-146009903D01*
X55294174Y-146030105D01*
X55311297Y-146053823D01*
X55353462Y-146107980D01*
X55406915Y-146162561D01*
X55464353Y-146206481D01*
X55526504Y-146240199D01*
X55594096Y-146264176D01*
X55667857Y-146278870D01*
X55726445Y-146282776D01*
X55796983Y-146277395D01*
X55865313Y-146261497D01*
X55930410Y-146235790D01*
X55991247Y-146200979D01*
X56046801Y-146157771D01*
X56096045Y-146106873D01*
X56137955Y-146048992D01*
X56171504Y-145984834D01*
X56195669Y-145915106D01*
X56201972Y-145885299D01*
X56207620Y-145833854D01*
X56208477Y-145779248D01*
X56204542Y-145726091D01*
X56195811Y-145678992D01*
X56174495Y-145615083D01*
X56140960Y-145548079D01*
X56098196Y-145487631D01*
X56046953Y-145434500D01*
X55987977Y-145389450D01*
X55922019Y-145353242D01*
X55849826Y-145326638D01*
X55832331Y-145321958D01*
X55810561Y-145317545D01*
X55787372Y-145314884D01*
X55759308Y-145313611D01*
X55722915Y-145313366D01*
X55692957Y-145313808D01*
X55652066Y-145316278D01*
X55616587Y-145321700D01*
X55582709Y-145330969D01*
X55546620Y-145344980D01*
X55504509Y-145364626D01*
X55499129Y-145367279D01*
X55472730Y-145380968D01*
X55451496Y-145393831D01*
X55432157Y-145408263D01*
X55411444Y-145426661D01*
X55386085Y-145451423D01*
X55363190Y-145475493D01*
X55337909Y-145504399D01*
X55315175Y-145532624D01*
X55298055Y-145556507D01*
X55289664Y-145569165D01*
X55274442Y-145589897D01*
X55262993Y-145601556D01*
X55254363Y-145605206D01*
X55247251Y-145603161D01*
X55230223Y-145596958D01*
X55204461Y-145587044D01*
X55171058Y-145573872D01*
X55131106Y-145557893D01*
X55085699Y-145539560D01*
X55035930Y-145519324D01*
X54982891Y-145497638D01*
X54927676Y-145474953D01*
X54871376Y-145451722D01*
X54815086Y-145428395D01*
X54759898Y-145405427D01*
X54706905Y-145383267D01*
X54657200Y-145362369D01*
X54611876Y-145343184D01*
X54572025Y-145326164D01*
X54538741Y-145311761D01*
X54513116Y-145300428D01*
X54496244Y-145292616D01*
X54489217Y-145288777D01*
X54488326Y-145287825D01*
X54486159Y-145283237D01*
X54486611Y-145276154D01*
X54490289Y-145265001D01*
X54497799Y-145248205D01*
X54509748Y-145224192D01*
X54526743Y-145191388D01*
X54573123Y-145102659D01*
X54534949Y-145045508D01*
X54528567Y-145035996D01*
X54511267Y-145010418D01*
X54489547Y-144978502D01*
X54464952Y-144942510D01*
X54439027Y-144904705D01*
X54413315Y-144867349D01*
X54395738Y-144841597D01*
X54374471Y-144809659D01*
X54356329Y-144781517D01*
X54342232Y-144758633D01*
X54333098Y-144742471D01*
X54329848Y-144734495D01*
X54330054Y-144733574D01*
X54335824Y-144724861D01*
X54348708Y-144709470D01*
X54367618Y-144688489D01*
X54391463Y-144663006D01*
X54419154Y-144634110D01*
X54449603Y-144602889D01*
X54481720Y-144570430D01*
X54514415Y-144537821D01*
X54546600Y-144506151D01*
X54577185Y-144476507D01*
X54605080Y-144449978D01*
X54629196Y-144427651D01*
X54648445Y-144410615D01*
X54661736Y-144399957D01*
X54667981Y-144396766D01*
X54674440Y-144400605D01*
X54689548Y-144410408D01*
X54712105Y-144425385D01*
X54740962Y-144444763D01*
X54774968Y-144467770D01*
X54812972Y-144493633D01*
X54853826Y-144521581D01*
X54893866Y-144548874D01*
X54931977Y-144574521D01*
X54966152Y-144597188D01*
X54995239Y-144616123D01*
X55018086Y-144630577D01*
X55033540Y-144639799D01*
X55040448Y-144643040D01*
X55042571Y-144642676D01*
X55054688Y-144638878D01*
X55075289Y-144631477D01*
X55102750Y-144621128D01*
X55135445Y-144608486D01*
X55171750Y-144594204D01*
X55210040Y-144578937D01*
X55248690Y-144563338D01*
X55286075Y-144548063D01*
X55320570Y-144533765D01*
X55350549Y-144521098D01*
X55374389Y-144510717D01*
X55390464Y-144503276D01*
X55397148Y-144499429D01*
X55397216Y-144499333D01*
X55399595Y-144491575D01*
X55403782Y-144473599D01*
X55409506Y-144446736D01*
X55416497Y-144412318D01*
X55424483Y-144371679D01*
X55433193Y-144326150D01*
X55442357Y-144277063D01*
X55451872Y-144226021D01*
X55462068Y-144172960D01*
X55470649Y-144130472D01*
X55477749Y-144097956D01*
X55483499Y-144074811D01*
X55488033Y-144060436D01*
X55491482Y-144054230D01*
X55499295Y-144052236D01*
X55517394Y-144050453D01*
X55544096Y-144048980D01*
X55577830Y-144047813D01*
X55617027Y-144046952D01*
X55660117Y-144046395D01*
X55705531Y-144046140D01*
X55751699Y-144046185D01*
G37*
G36*
X55780563Y-132656015D02*
G01*
X55807075Y-132665591D01*
X55828285Y-132681640D01*
X55849179Y-132709511D01*
X55859735Y-132741425D01*
X55859124Y-132774448D01*
X55846521Y-132805644D01*
X55844963Y-132807828D01*
X55833550Y-132821124D01*
X55814004Y-132842015D01*
X55787714Y-132869082D01*
X55756073Y-132900907D01*
X55720470Y-132936071D01*
X55682297Y-132973155D01*
X55533826Y-133116205D01*
X55665204Y-133119623D01*
X55710407Y-133120894D01*
X55744978Y-133122217D01*
X55770070Y-133123825D01*
X55787798Y-133125979D01*
X55800278Y-133128935D01*
X55809627Y-133132953D01*
X55817959Y-133138291D01*
X55830844Y-133149311D01*
X55849685Y-133176650D01*
X55858766Y-133208064D01*
X55858343Y-133240593D01*
X55848674Y-133271275D01*
X55830015Y-133297150D01*
X55802622Y-133315255D01*
X55800614Y-133315890D01*
X55784943Y-133318121D01*
X55757725Y-133320067D01*
X55720537Y-133321727D01*
X55674954Y-133323101D01*
X55622552Y-133324191D01*
X55564908Y-133324996D01*
X55503598Y-133325517D01*
X55440198Y-133325753D01*
X55376284Y-133325705D01*
X55313433Y-133325374D01*
X55253219Y-133324759D01*
X55197220Y-133323861D01*
X55147012Y-133322680D01*
X55104171Y-133321216D01*
X55070273Y-133319470D01*
X55046893Y-133317442D01*
X55035609Y-133315131D01*
X55017056Y-133302936D01*
X54993771Y-133278871D01*
X54979564Y-133252132D01*
X54975268Y-133226820D01*
X54980582Y-133192812D01*
X54998199Y-133161564D01*
X55027333Y-133135007D01*
X55027610Y-133134818D01*
X55036274Y-133129443D01*
X55045537Y-133125506D01*
X55057580Y-133122780D01*
X55074581Y-133121039D01*
X55098719Y-133120058D01*
X55132172Y-133119610D01*
X55177121Y-133119470D01*
X55304307Y-133119317D01*
X55142307Y-132960506D01*
X55130590Y-132949017D01*
X55088548Y-132907667D01*
X55055074Y-132874410D01*
X55029157Y-132848107D01*
X55009790Y-132827616D01*
X54995962Y-132811797D01*
X54986666Y-132799511D01*
X54980892Y-132789618D01*
X54977630Y-132780976D01*
X54975873Y-132772447D01*
X54975932Y-132747343D01*
X54985161Y-132715116D01*
X55002464Y-132686467D01*
X55025591Y-132666207D01*
X55040555Y-132659836D01*
X55069781Y-132654350D01*
X55099789Y-132654985D01*
X55124217Y-132662009D01*
X55124713Y-132662294D01*
X55134626Y-132670034D01*
X55152764Y-132685865D01*
X55177697Y-132708475D01*
X55207994Y-132736553D01*
X55242226Y-132768790D01*
X55278963Y-132803874D01*
X55417711Y-132937287D01*
X55449832Y-132907096D01*
X55452342Y-132904729D01*
X55468951Y-132888878D01*
X55492857Y-132865881D01*
X55522022Y-132837705D01*
X55554411Y-132806315D01*
X55587989Y-132773676D01*
X55598901Y-132763091D01*
X55630452Y-132732905D01*
X55659040Y-132706151D01*
X55682977Y-132684376D01*
X55700571Y-132669125D01*
X55710133Y-132661944D01*
X55720550Y-132657698D01*
X55749540Y-132653302D01*
X55780563Y-132656015D01*
G37*
G36*
X54729986Y-130945940D02*
G01*
X54736265Y-130946658D01*
X54757034Y-130949671D01*
X54789560Y-130954779D01*
X54832770Y-130961794D01*
X54885586Y-130970530D01*
X54946936Y-130980800D01*
X55015742Y-130992417D01*
X55090931Y-131005196D01*
X55171426Y-131018949D01*
X55256153Y-131033489D01*
X55344037Y-131048630D01*
X55434001Y-131064186D01*
X55524972Y-131079969D01*
X55615874Y-131095793D01*
X55705632Y-131111471D01*
X55793170Y-131126816D01*
X55877414Y-131141643D01*
X55957287Y-131155763D01*
X56031716Y-131168992D01*
X56099625Y-131181141D01*
X56159938Y-131192024D01*
X56211580Y-131201455D01*
X56253477Y-131209246D01*
X56284553Y-131215212D01*
X56303733Y-131219166D01*
X56312225Y-131221147D01*
X56390966Y-131246998D01*
X56466666Y-131284952D01*
X56537782Y-131333647D01*
X56602769Y-131391722D01*
X56660083Y-131457816D01*
X56708179Y-131530567D01*
X56745513Y-131608614D01*
X56747981Y-131614968D01*
X56757815Y-131641966D01*
X56765830Y-131667966D01*
X56772244Y-131694804D01*
X56777276Y-131724314D01*
X56781145Y-131758328D01*
X56784070Y-131798681D01*
X56786270Y-131847206D01*
X56787963Y-131905738D01*
X56789368Y-131976110D01*
X56789960Y-132008515D01*
X56791008Y-132059273D01*
X56792093Y-132104416D01*
X56793167Y-132142333D01*
X56794181Y-132171411D01*
X56795090Y-132190040D01*
X56795845Y-132196608D01*
X56797530Y-132196011D01*
X56807961Y-132190410D01*
X56823999Y-132180825D01*
X56828878Y-132177846D01*
X56882772Y-132150434D01*
X56939832Y-132131891D01*
X57002978Y-132121492D01*
X57075128Y-132118514D01*
X57100720Y-132118846D01*
X57133541Y-132120300D01*
X57160005Y-132123424D01*
X57184614Y-132128831D01*
X57211871Y-132137134D01*
X57225532Y-132141837D01*
X57291483Y-132170847D01*
X57350617Y-132208856D01*
X57406680Y-132258192D01*
X57416764Y-132268500D01*
X57463855Y-132324885D01*
X57500095Y-132385115D01*
X57527856Y-132453001D01*
X57530755Y-132461846D01*
X57537528Y-132484985D01*
X57541975Y-132506563D01*
X57544568Y-132530387D01*
X57545777Y-132560263D01*
X57546075Y-132600000D01*
X57546047Y-132614770D01*
X57545494Y-132650748D01*
X57543870Y-132678152D01*
X57540703Y-132700791D01*
X57535523Y-132722471D01*
X57527856Y-132746999D01*
X57523254Y-132760301D01*
X57494104Y-132826484D01*
X57456036Y-132885716D01*
X57406680Y-132941807D01*
X57396052Y-132952198D01*
X57339693Y-132999195D01*
X57279548Y-133035308D01*
X57211871Y-133062866D01*
X57194371Y-133068402D01*
X57169290Y-133074832D01*
X57144057Y-133078747D01*
X57114170Y-133080761D01*
X57075128Y-133081486D01*
X57068068Y-133081503D01*
X57050715Y-133080619D01*
X56996864Y-133077875D01*
X56934397Y-133066761D01*
X56877748Y-133047435D01*
X56823999Y-133019175D01*
X56817282Y-133015161D01*
X56801222Y-133006744D01*
X56791522Y-133003392D01*
X56789878Y-133007001D01*
X56787974Y-133023653D01*
X56786483Y-133053690D01*
X56785412Y-133096947D01*
X56784766Y-133153261D01*
X56784549Y-133222469D01*
X56784541Y-133239280D01*
X56784247Y-133307201D01*
X56783392Y-133363676D01*
X56781784Y-133410524D01*
X56779228Y-133449566D01*
X56775534Y-133482622D01*
X56770509Y-133511512D01*
X56763959Y-133538056D01*
X56755693Y-133564074D01*
X56745517Y-133591386D01*
X56742118Y-133599862D01*
X56703561Y-133677423D01*
X56654408Y-133749540D01*
X56596203Y-133814852D01*
X56530489Y-133871998D01*
X56458810Y-133919618D01*
X56382710Y-133956350D01*
X56303733Y-133980834D01*
X56293988Y-133982898D01*
X56267701Y-133988054D01*
X56230149Y-133995114D01*
X56182406Y-134003889D01*
X56125548Y-134014195D01*
X56060650Y-134025843D01*
X55988787Y-134038648D01*
X55911034Y-134052422D01*
X55828467Y-134066979D01*
X55742161Y-134082133D01*
X55653191Y-134097696D01*
X55562632Y-134113482D01*
X55471559Y-134129305D01*
X55381048Y-134144977D01*
X55292173Y-134160312D01*
X55206010Y-134175123D01*
X55123635Y-134189224D01*
X55046121Y-134202428D01*
X54974545Y-134214549D01*
X54909982Y-134225399D01*
X54853507Y-134234792D01*
X54806194Y-134242541D01*
X54769120Y-134248460D01*
X54743359Y-134252362D01*
X54729986Y-134254060D01*
X54683619Y-134254697D01*
X54640107Y-134255294D01*
X54551806Y-134243934D01*
X54467092Y-134219584D01*
X54385159Y-134182078D01*
X54305870Y-134131491D01*
X54235665Y-134071274D01*
X54175846Y-134002516D01*
X54126890Y-133925858D01*
X54089274Y-133841939D01*
X54063478Y-133751400D01*
X54062206Y-133745123D01*
X54060634Y-133736263D01*
X54059210Y-133726303D01*
X54057926Y-133714581D01*
X54056775Y-133700436D01*
X54055750Y-133683206D01*
X54054842Y-133662229D01*
X54054044Y-133636843D01*
X54053348Y-133606386D01*
X54052746Y-133570197D01*
X54052232Y-133527613D01*
X54051796Y-133477974D01*
X54051432Y-133420616D01*
X54051132Y-133354879D01*
X54050888Y-133280100D01*
X54050692Y-133195618D01*
X54050537Y-133100770D01*
X54050415Y-132994896D01*
X54050319Y-132877333D01*
X54050240Y-132747419D01*
X54050171Y-132604493D01*
X54050161Y-132580495D01*
X54050154Y-132564214D01*
X54255604Y-132564214D01*
X54255628Y-132671086D01*
X54255713Y-132777369D01*
X54255858Y-132882131D01*
X54256063Y-132984435D01*
X54256328Y-133083347D01*
X54256653Y-133177932D01*
X54257038Y-133267257D01*
X54257482Y-133350385D01*
X54257986Y-133426382D01*
X54258550Y-133494313D01*
X54259172Y-133553244D01*
X54259854Y-133602240D01*
X54260594Y-133640366D01*
X54261393Y-133666687D01*
X54262251Y-133680269D01*
X54270760Y-133725313D01*
X54294376Y-133793509D01*
X54329305Y-133856818D01*
X54374221Y-133913663D01*
X54427799Y-133962466D01*
X54488714Y-134001647D01*
X54555639Y-134029630D01*
X54560337Y-134031030D01*
X54590855Y-134038004D01*
X54626891Y-134043734D01*
X54661615Y-134047095D01*
X54662427Y-134047140D01*
X54672647Y-134047548D01*
X54683619Y-134047580D01*
X54696138Y-134047110D01*
X54710999Y-134046010D01*
X54728995Y-134044156D01*
X54750921Y-134041419D01*
X54777571Y-134037673D01*
X54809739Y-134032792D01*
X54848220Y-134026649D01*
X54893809Y-134019117D01*
X54947299Y-134010070D01*
X55009485Y-133999382D01*
X55081161Y-133986925D01*
X55163122Y-133972574D01*
X55256161Y-133956201D01*
X55361074Y-133937680D01*
X55478654Y-133916884D01*
X55504176Y-133912366D01*
X55603779Y-133894706D01*
X55699792Y-133877639D01*
X55791317Y-133861327D01*
X55877456Y-133845931D01*
X55957311Y-133831614D01*
X56029984Y-133818537D01*
X56094578Y-133806862D01*
X56150194Y-133796751D01*
X56195935Y-133788365D01*
X56230902Y-133781867D01*
X56254199Y-133777418D01*
X56264926Y-133775180D01*
X56287999Y-133767634D01*
X56325377Y-133751390D01*
X56364895Y-133730692D01*
X56401768Y-133708104D01*
X56431208Y-133686185D01*
X56452437Y-133666408D01*
X56497828Y-133611915D01*
X56535258Y-133548490D01*
X56563176Y-133478573D01*
X56563723Y-133476797D01*
X56565578Y-133470108D01*
X56567237Y-133462466D01*
X56568710Y-133453123D01*
X56570009Y-133441331D01*
X56571144Y-133426341D01*
X56572128Y-133407406D01*
X56572969Y-133383776D01*
X56573680Y-133354703D01*
X56574272Y-133319440D01*
X56574754Y-133277237D01*
X56575139Y-133227346D01*
X56575438Y-133169020D01*
X56575660Y-133101509D01*
X56575817Y-133024066D01*
X56575921Y-132935942D01*
X56575981Y-132836388D01*
X56576009Y-132724657D01*
X56576015Y-132615850D01*
X56792986Y-132615850D01*
X56794447Y-132648163D01*
X56799403Y-132675196D01*
X56809023Y-132702241D01*
X56824473Y-132734589D01*
X56841505Y-132761216D01*
X56871925Y-132794977D01*
X56908366Y-132825116D01*
X56946747Y-132847855D01*
X56993645Y-132865143D01*
X57050715Y-132874545D01*
X57106523Y-132872089D01*
X57159615Y-132858691D01*
X57208533Y-132835272D01*
X57251821Y-132802749D01*
X57288025Y-132762042D01*
X57315687Y-132714069D01*
X57333353Y-132659749D01*
X57339565Y-132600000D01*
X57336204Y-132553897D01*
X57321270Y-132498485D01*
X57293690Y-132446274D01*
X57264265Y-132408919D01*
X57226028Y-132376401D01*
X57177997Y-132349708D01*
X57155925Y-132340742D01*
X57099094Y-132327213D01*
X57041984Y-132326124D01*
X56986413Y-132336804D01*
X56934199Y-132358579D01*
X56887159Y-132390777D01*
X56847112Y-132432725D01*
X56815876Y-132483749D01*
X56812114Y-132491827D01*
X56803016Y-132514171D01*
X56797532Y-132535174D01*
X56794627Y-132559837D01*
X56793267Y-132593163D01*
X56792986Y-132615850D01*
X56576015Y-132615850D01*
X56576016Y-132600000D01*
X56576016Y-132564299D01*
X56576004Y-132443280D01*
X56575968Y-132334981D01*
X56575897Y-132238653D01*
X56575780Y-132153548D01*
X56575606Y-132078918D01*
X56575364Y-132014014D01*
X56575042Y-131958088D01*
X56574632Y-131910392D01*
X56574120Y-131870177D01*
X56573497Y-131836695D01*
X56572751Y-131809198D01*
X56571871Y-131786937D01*
X56570847Y-131769164D01*
X56569667Y-131755130D01*
X56568322Y-131744088D01*
X56566798Y-131735289D01*
X56565087Y-131727985D01*
X56563176Y-131721427D01*
X56552622Y-131691202D01*
X56520489Y-131623735D01*
X56479500Y-131563792D01*
X56431208Y-131513814D01*
X56410772Y-131498074D01*
X56375460Y-131475415D01*
X56336190Y-131453944D01*
X56297750Y-131436225D01*
X56264926Y-131424820D01*
X56263459Y-131424474D01*
X56249485Y-131421664D01*
X56223167Y-131416685D01*
X56185404Y-131409696D01*
X56137094Y-131400861D01*
X56079135Y-131390341D01*
X56012424Y-131378298D01*
X55937859Y-131364894D01*
X55856338Y-131350290D01*
X55768759Y-131334648D01*
X55676021Y-131318131D01*
X55579020Y-131300899D01*
X55478654Y-131283116D01*
X55468721Y-131281358D01*
X55352188Y-131260750D01*
X55248258Y-131242406D01*
X55156138Y-131226200D01*
X55075033Y-131212005D01*
X55004149Y-131199695D01*
X54942691Y-131189144D01*
X54889865Y-131180223D01*
X54844877Y-131172808D01*
X54806932Y-131166771D01*
X54775236Y-131161986D01*
X54748995Y-131158326D01*
X54727414Y-131155664D01*
X54709700Y-131153875D01*
X54695057Y-131152831D01*
X54682691Y-131152405D01*
X54671809Y-131152472D01*
X54661615Y-131152905D01*
X54650961Y-131153620D01*
X54575513Y-131165733D01*
X54506220Y-131190002D01*
X54442554Y-131226661D01*
X54383988Y-131275943D01*
X54345188Y-131319821D01*
X54305508Y-131382437D01*
X54277778Y-131451649D01*
X54261914Y-131527627D01*
X54261698Y-131529773D01*
X54260860Y-131546723D01*
X54260085Y-131576171D01*
X54259372Y-131617184D01*
X54258721Y-131668826D01*
X54258132Y-131730162D01*
X54257605Y-131800258D01*
X54257141Y-131878180D01*
X54256737Y-131962992D01*
X54256395Y-132053759D01*
X54256115Y-132149547D01*
X54255896Y-132249422D01*
X54255737Y-132352448D01*
X54255640Y-132457690D01*
X54255604Y-132564214D01*
X54050154Y-132564214D01*
X54050104Y-132439910D01*
X54050067Y-132312226D01*
X54050058Y-132196778D01*
X54050084Y-132092901D01*
X54050153Y-131999928D01*
X54050271Y-131917195D01*
X54050447Y-131844035D01*
X54050688Y-131779785D01*
X54051001Y-131723777D01*
X54051395Y-131675347D01*
X54051876Y-131633830D01*
X54052452Y-131598559D01*
X54053130Y-131568870D01*
X54053919Y-131544096D01*
X54054825Y-131523574D01*
X54055856Y-131506636D01*
X54057019Y-131492618D01*
X54058323Y-131480854D01*
X54059773Y-131470679D01*
X54061379Y-131461427D01*
X54063147Y-131452433D01*
X54063746Y-131449526D01*
X54089339Y-131358673D01*
X54126664Y-131274656D01*
X54175316Y-131198023D01*
X54234887Y-131129324D01*
X54304970Y-131069107D01*
X54385159Y-131017921D01*
X54464630Y-130981336D01*
X54549250Y-130956600D01*
X54637434Y-130944857D01*
X54729986Y-130945940D01*
G37*
G36*
X55368797Y-131876418D02*
G01*
X55403684Y-131879919D01*
X55431548Y-131885428D01*
X55449122Y-131892841D01*
X55453384Y-131896066D01*
X55467794Y-131909404D01*
X55478230Y-131925003D01*
X55485296Y-131945136D01*
X55489596Y-131972082D01*
X55491735Y-132008117D01*
X55492318Y-132055516D01*
X55492181Y-132079380D01*
X55490643Y-132122972D01*
X55486817Y-132155982D01*
X55479981Y-132180498D01*
X55469415Y-132198607D01*
X55454399Y-132212397D01*
X55434214Y-132223956D01*
X55432196Y-132224921D01*
X55400888Y-132235662D01*
X55372552Y-132235408D01*
X55342328Y-132224169D01*
X55334686Y-132219926D01*
X55308123Y-132196712D01*
X55292394Y-132165479D01*
X55287214Y-132125721D01*
X55286699Y-132110269D01*
X55282767Y-132092831D01*
X55273732Y-132086821D01*
X55258148Y-132091725D01*
X55234564Y-132107029D01*
X55215974Y-132123726D01*
X55195578Y-132155275D01*
X55185918Y-132190919D01*
X55187172Y-132227778D01*
X55199517Y-132262966D01*
X55223128Y-132293603D01*
X55229949Y-132299725D01*
X55242273Y-132308855D01*
X55256176Y-132315655D01*
X55273673Y-132320463D01*
X55296779Y-132323616D01*
X55327510Y-132325451D01*
X55367881Y-132326304D01*
X55419908Y-132326514D01*
X55438415Y-132326507D01*
X55481255Y-132326348D01*
X55513365Y-132325827D01*
X55536908Y-132324738D01*
X55554048Y-132322880D01*
X55566948Y-132320048D01*
X55577771Y-132316039D01*
X55588682Y-132310650D01*
X55599610Y-132304120D01*
X55627344Y-132277639D01*
X55644765Y-132243421D01*
X55650632Y-132203612D01*
X55646782Y-132170382D01*
X55633404Y-132139978D01*
X55608560Y-132111144D01*
X55586467Y-132086406D01*
X55571979Y-132057404D01*
X55567563Y-132024310D01*
X55569216Y-132005895D01*
X55581359Y-131973009D01*
X55603453Y-131946793D01*
X55633307Y-131929441D01*
X55668724Y-131923148D01*
X55673870Y-131923216D01*
X55698141Y-131926395D01*
X55720144Y-131935624D01*
X55743128Y-131952704D01*
X55770340Y-131979434D01*
X55773969Y-131983331D01*
X55813371Y-132035736D01*
X55841322Y-132093578D01*
X55857312Y-132154953D01*
X55860826Y-132217956D01*
X55851353Y-132280683D01*
X55839850Y-132317026D01*
X55810280Y-132377515D01*
X55770445Y-132429931D01*
X55721419Y-132473218D01*
X55664274Y-132506317D01*
X55600084Y-132528172D01*
X55597598Y-132528718D01*
X55573288Y-132532125D01*
X55538687Y-132534852D01*
X55496735Y-132536865D01*
X55450376Y-132538131D01*
X55402551Y-132538617D01*
X55356203Y-132538289D01*
X55314274Y-132537113D01*
X55279706Y-132535057D01*
X55255441Y-132532086D01*
X55246168Y-132530206D01*
X55180770Y-132509521D01*
X55122291Y-132477753D01*
X55071838Y-132435988D01*
X55030517Y-132385312D01*
X54999433Y-132326808D01*
X54979693Y-132261561D01*
X54974193Y-132208181D01*
X54979841Y-132147918D01*
X54997119Y-132089621D01*
X55024964Y-132034944D01*
X55062315Y-131985543D01*
X55108109Y-131943075D01*
X55161286Y-131909194D01*
X55220784Y-131885558D01*
X55224333Y-131884586D01*
X55254654Y-131879010D01*
X55291016Y-131875860D01*
X55330152Y-131875031D01*
X55368797Y-131876418D01*
G37*
%TD*%
%LPC*%
D11*
%TO.C,H2*%
X73000000Y-149400000D03*
%TD*%
%TO.C,H1*%
X57000000Y-149400000D03*
%TD*%
D12*
%TO.C,K1*%
X63730000Y-132510000D03*
X66270000Y-132510000D03*
X68810000Y-132510000D03*
X71350000Y-132510000D03*
X73890000Y-132510000D03*
%TD*%
D13*
%TO.C,K2*%
X58650000Y-132510000D03*
X61190000Y-132510000D03*
%TD*%
D12*
%TO.C,K3*%
X61190000Y-150290000D03*
X63730000Y-150290000D03*
X66270000Y-150290000D03*
X68810000Y-150290000D03*
%TD*%
%LPD*%
M02*
