%TF.GenerationSoftware,KiCad,Pcbnew,10.99.0-3671-gbe90a7e200*%
%TF.CreationDate,2026-09-10T00:10:33+01:00*%
%TF.ProjectId,kicad_file,6b696361-645f-4666-996c-652e6b696361,rev?*%
%TF.SameCoordinates,Original*%
%TF.FileFunction,Soldermask,Bot*%
%TF.FilePolarity,Negative*%
%FSLAX46Y46*%
G04 Gerber Fmt 4.6, Leading zero omitted, Abs format (unit mm)*
G04 Created by KiCad (PCBNEW 10.99.0-3671-gbe90a7e200) date 2026-09-10 00:10:33*
%MOMM*%
%LPD*%
G01*
G04 APERTURE LIST*
G04 Aperture macros list*
%AMRoundRect*
0 Rectangle with rounded corners*
0 $1 Rounding radius*
0 $2 $3 $4 $5 $6 $7 $8 $9 X,Y pos of 4 corners*
0 Add a 4 corners polygon primitive as box body*
4,1,4,$2,$3,$4,$5,$6,$7,$8,$9,$2,$3,0*
0 Add four circle primitives for the rounded corners*
1,1,$1+$1,$2,$3*
1,1,$1+$1,$4,$5*
1,1,$1+$1,$6,$7*
1,1,$1+$1,$8,$9*
0 Add four rect primitives between the rounded corners*
20,1,$1+$1,$2,$3,$4,$5,0*
20,1,$1+$1,$4,$5,$6,$7,0*
20,1,$1+$1,$6,$7,$8,$9,0*
20,1,$1+$1,$8,$9,$2,$3,0*%
%AMFreePoly0*
4,1,25,0.427955,0.971196,0.440078,0.960842,0.960842,0.440078,0.989349,0.384130,0.990600,0.368236,0.990600,-0.368236,0.971196,-0.427955,0.960842,-0.440078,0.440078,-0.960842,0.384130,-0.989349,0.368236,-0.990600,-0.368236,-0.990600,-0.427955,-0.971196,-0.440078,-0.960842,-0.960842,-0.440078,-0.989349,-0.384130,-0.990600,-0.368236,-0.990600,0.368236,-0.971196,0.427955,-0.960842,0.440078,
-0.440078,0.960842,-0.384130,0.989349,-0.368236,0.990600,0.368236,0.990600,0.427955,0.971196,0.427955,0.971196,$1*%
G04 Aperture macros list end*
%ADD10C,0.000000*%
%ADD11C,1.408000*%
%ADD12FreePoly0,90.000000*%
%ADD13RoundRect,0.101600X0.584200X0.800100X-0.584200X0.800100X-0.584200X-0.800100X0.584200X-0.800100X0*%
%ADD14RoundRect,0.101600X-0.584200X-0.800100X0.584200X-0.800100X0.584200X0.800100X-0.584200X0.800100X0*%
G04 APERTURE END LIST*
D10*
%TO.C,SJ2*%
G36*
X11480800Y16992600D02*
G01*
X11328400Y16992600D01*
X11328400Y18821400D01*
X11480800Y18821400D01*
X11480800Y16992600D01*
G37*
%TO.C,SJ3*%
G36*
X6146800Y12420600D02*
G01*
X5994400Y12420600D01*
X5994400Y14249400D01*
X6146800Y14249400D01*
X6146800Y12420600D01*
G37*
%TO.C,SJ4*%
G36*
X6146800Y21183600D02*
G01*
X5994400Y21183600D01*
X5994400Y23012400D01*
X6146800Y23012400D01*
X6146800Y21183600D01*
G37*
%TO.C,SJ6*%
G36*
X11480800Y12420600D02*
G01*
X11328400Y12420600D01*
X11328400Y14249400D01*
X11480800Y14249400D01*
X11480800Y12420600D01*
G37*
%TO.C,SJ5*%
G36*
X6146800Y16992600D02*
G01*
X5994400Y16992600D01*
X5994400Y18821400D01*
X6146800Y18821400D01*
X6146800Y16992600D01*
G37*
%TO.C,SJ1*%
G36*
X11480800Y21183600D02*
G01*
X11328400Y21183600D01*
X11328400Y23012400D01*
X11480800Y23012400D01*
X11480800Y21183600D01*
G37*
%TD*%
D11*
%TO.C,CN1*%
X10810600Y24781000D03*
X6410600Y24781000D03*
%TD*%
D12*
%TO.C,FTDI0*%
X2514600Y2413000D03*
X5054600Y2413000D03*
X7594600Y2413000D03*
X10134600Y2413000D03*
X12674600Y2413000D03*
X15214600Y2413000D03*
%TD*%
D13*
%TO.C,SJ2*%
X12166600Y17907000D03*
X10642600Y17907000D03*
%TD*%
D14*
%TO.C,SJ3*%
X5308600Y13335000D03*
X6832600Y13335000D03*
%TD*%
D13*
%TO.C,SJ4*%
X6832600Y22098000D03*
X5308600Y22098000D03*
%TD*%
D14*
%TO.C,SJ6*%
X10642600Y13335000D03*
X12166600Y13335000D03*
%TD*%
D13*
%TO.C,SJ5*%
X6832600Y17907000D03*
X5308600Y17907000D03*
%TD*%
%TO.C,SJ1*%
X12166600Y22098000D03*
X10642600Y22098000D03*
%TD*%
M02*
