ISO-10303-21;
HEADER;
FILE_DESCRIPTION(('KiCad electronic assembly'),'2;1');
FILE_NAME('model.step','1970-01-01T00:00:00',('Pcbnew'),('Kicad'),
  'Open CASCADE STEP processor 7.9','KiCad to STEP converter','Unknown'
  );
FILE_SCHEMA(('AUTOMOTIVE_DESIGN { 1 0 10303 214 1 1 1 1 }'));
ENDSEC;
DATA;
#1 = APPLICATION_PROTOCOL_DEFINITION('international standard',
  'automotive_design',2000,#2);
#2 = APPLICATION_CONTEXT(
  'core data for automotive mechanical design processes');
#3 = SHAPE_DEFINITION_REPRESENTATION(#4,#10);
#4 = PRODUCT_DEFINITION_SHAPE('','',#5);
#5 = PRODUCT_DEFINITION('design','',#6,#9);
#6 = PRODUCT_DEFINITION_FORMATION('','',#7);
#7 = PRODUCT('model 1','model 1','',(#8));
#8 = PRODUCT_CONTEXT('',#2,'mechanical');
#9 = PRODUCT_DEFINITION_CONTEXT('part definition',#2,'design');
#10 = SHAPE_REPRESENTATION('',(#11,#15,#19),#23);
#11 = AXIS2_PLACEMENT_3D('',#12,#13,#14);
#12 = CARTESIAN_POINT('',(0.,0.,0.));
#13 = DIRECTION('',(0.,0.,1.));
#14 = DIRECTION('',(1.,0.,-0.));
#15 = AXIS2_PLACEMENT_3D('',#16,#17,#18);
#16 = CARTESIAN_POINT('',(0.,0.,1.595));
#17 = DIRECTION('',(0.,0.,1.));
#18 = DIRECTION('',(1.,0.,0.));
#19 = AXIS2_PLACEMENT_3D('',#20,#21,#22);
#20 = CARTESIAN_POINT('',(0.,0.,0.));
#21 = DIRECTION('',(0.,0.,1.));
#22 = DIRECTION('',(1.,0.,-0.));
#23 = ( GEOMETRIC_REPRESENTATION_CONTEXT(3) 
GLOBAL_UNCERTAINTY_ASSIGNED_CONTEXT((#27)) GLOBAL_UNIT_ASSIGNED_CONTEXT(
(#24,#25,#26)) REPRESENTATION_CONTEXT('Context #1',
  '3D Context with UNIT and UNCERTAINTY') );
#24 = ( LENGTH_UNIT() NAMED_UNIT(*) SI_UNIT(.MILLI.,.METRE.) );
#25 = ( NAMED_UNIT(*) PLANE_ANGLE_UNIT() SI_UNIT($,.RADIAN.) );
#26 = ( NAMED_UNIT(*) SI_UNIT($,.STERADIAN.) SOLID_ANGLE_UNIT() );
#27 = UNCERTAINTY_MEASURE_WITH_UNIT(LENGTH_MEASURE(1.E-07),#24,
  'distance_accuracy_value','confusion accuracy');
#28 = PRODUCT_RELATED_PRODUCT_CATEGORY('part',$,(#7));
#29 = SHAPE_DEFINITION_REPRESENTATION(#30,#36);
#30 = PRODUCT_DEFINITION_SHAPE('','',#31);
#31 = PRODUCT_DEFINITION('design','',#32,#35);
#32 = PRODUCT_DEFINITION_FORMATION('','',#33);
#33 = PRODUCT('C_0402_1005Metric','C_0402_1005Metric','',(#34));
#34 = PRODUCT_CONTEXT('',#2,'mechanical');
#35 = PRODUCT_DEFINITION_CONTEXT('part definition',#2,'design');
#36 = SHAPE_REPRESENTATION('',(#11,#37),#41);
#37 = AXIS2_PLACEMENT_3D('',#38,#39,#40);
#38 = CARTESIAN_POINT('',(0.,0.,0.));
#39 = DIRECTION('',(0.,0.,1.));
#40 = DIRECTION('',(1.,0.,-0.));
#41 = ( GEOMETRIC_REPRESENTATION_CONTEXT(3) 
GLOBAL_UNCERTAINTY_ASSIGNED_CONTEXT((#45)) GLOBAL_UNIT_ASSIGNED_CONTEXT(
(#42,#43,#44)) REPRESENTATION_CONTEXT('Context #1',
  '3D Context with UNIT and UNCERTAINTY') );
#42 = ( LENGTH_UNIT() NAMED_UNIT(*) SI_UNIT(.MILLI.,.METRE.) );
#43 = ( NAMED_UNIT(*) PLANE_ANGLE_UNIT() SI_UNIT($,.RADIAN.) );
#44 = ( NAMED_UNIT(*) SI_UNIT($,.STERADIAN.) SOLID_ANGLE_UNIT() );
#45 = UNCERTAINTY_MEASURE_WITH_UNIT(LENGTH_MEASURE(1.E-07),#42,
  'distance_accuracy_value','confusion accuracy');
#46 = CONTEXT_DEPENDENT_SHAPE_REPRESENTATION(#47,#49);
#47 = ( REPRESENTATION_RELATIONSHIP('','',#36,#10) 
REPRESENTATION_RELATIONSHIP_WITH_TRANSFORMATION(#48) 
SHAPE_REPRESENTATION_RELATIONSHIP() );
#48 = ITEM_DEFINED_TRANSFORMATION('','',#11,#15);
#49 = PRODUCT_DEFINITION_SHAPE('Placement','Placement of an item',#50);
#50 = NEXT_ASSEMBLY_USAGE_OCCURRENCE('2','REF**','',#5,#31,$);
#51 = PRODUCT_RELATED_PRODUCT_CATEGORY('part',$,(#33));
#52 = SHAPE_DEFINITION_REPRESENTATION(#53,#59);
#53 = PRODUCT_DEFINITION_SHAPE('','',#54);
#54 = PRODUCT_DEFINITION('design','',#55,#58);
#55 = PRODUCT_DEFINITION_FORMATION('','',#56);
#56 = PRODUCT('C_0402_1005Metric','C_0402_1005Metric','',(#57));
#57 = PRODUCT_CONTEXT('',#2,'mechanical');
#58 = PRODUCT_DEFINITION_CONTEXT('part definition',#2,'design');
#59 = ADVANCED_BREP_SHAPE_REPRESENTATION('',(#11,#60),#914);
#60 = MANIFOLD_SOLID_BREP('',#61);
#61 = CLOSED_SHELL('',(#62,#138,#169,#194,#219,#243,#267,#292,#317,#334,
    #420,#452,#476,#501,#525,#550,#574,#599,#616,#702,#733,#758,#783,
    #807,#831,#856,#881,#898));
#62 = ADVANCED_FACE('',(#63),#133,.F.);
#63 = FACE_BOUND('',#64,.F.);
#64 = EDGE_LOOP('',(#65,#75,#84,#92,#101,#109,#118,#126));
#65 = ORIENTED_EDGE('',*,*,#66,.F.);
#66 = EDGE_CURVE('',#67,#69,#71,.T.);
#67 = VERTEX_POINT('',#68);
#68 = CARTESIAN_POINT('',(-0.5,-0.25,2.E-02));
#69 = VERTEX_POINT('',#70);
#70 = CARTESIAN_POINT('',(-0.5,-0.25,0.48));
#71 = LINE('',#72,#73);
#72 = CARTESIAN_POINT('',(-0.5,-0.25,0.));
#73 = VECTOR('',#74,1.);
#74 = DIRECTION('',(0.,0.,1.));
#75 = ORIENTED_EDGE('',*,*,#76,.T.);
#76 = EDGE_CURVE('',#67,#77,#79,.T.);
#77 = VERTEX_POINT('',#78);
#78 = CARTESIAN_POINT('',(-0.5,-0.23,0.));
#79 = CIRCLE('',#80,2.E-02);
#80 = AXIS2_PLACEMENT_3D('',#81,#82,#83);
#81 = CARTESIAN_POINT('',(-0.5,-0.23,2.E-02));
#82 = DIRECTION('',(1.,0.,-0.));
#83 = DIRECTION('',(0.,0.,1.));
#84 = ORIENTED_EDGE('',*,*,#85,.T.);
#85 = EDGE_CURVE('',#77,#86,#88,.T.);
#86 = VERTEX_POINT('',#87);
#87 = CARTESIAN_POINT('',(-0.5,0.23,0.));
#88 = LINE('',#89,#90);
#89 = CARTESIAN_POINT('',(-0.5,-0.25,0.));
#90 = VECTOR('',#91,1.);
#91 = DIRECTION('',(0.,1.,0.));
#92 = ORIENTED_EDGE('',*,*,#93,.F.);
#93 = EDGE_CURVE('',#94,#86,#96,.T.);
#94 = VERTEX_POINT('',#95);
#95 = CARTESIAN_POINT('',(-0.5,0.25,2.E-02));
#96 = CIRCLE('',#97,2.E-02);
#97 = AXIS2_PLACEMENT_3D('',#98,#99,#100);
#98 = CARTESIAN_POINT('',(-0.5,0.23,2.E-02));
#99 = DIRECTION('',(-1.,0.,0.));
#100 = DIRECTION('',(0.,0.,1.));
#101 = ORIENTED_EDGE('',*,*,#102,.T.);
#102 = EDGE_CURVE('',#94,#103,#105,.T.);
#103 = VERTEX_POINT('',#104);
#104 = CARTESIAN_POINT('',(-0.5,0.25,0.48));
#105 = LINE('',#106,#107);
#106 = CARTESIAN_POINT('',(-0.5,0.25,0.));
#107 = VECTOR('',#108,1.);
#108 = DIRECTION('',(0.,0.,1.));
#109 = ORIENTED_EDGE('',*,*,#110,.T.);
#110 = EDGE_CURVE('',#103,#111,#113,.T.);
#111 = VERTEX_POINT('',#112);
#112 = CARTESIAN_POINT('',(-0.5,0.23,0.5));
#113 = CIRCLE('',#114,2.E-02);
#114 = AXIS2_PLACEMENT_3D('',#115,#116,#117);
#115 = CARTESIAN_POINT('',(-0.5,0.23,0.48));
#116 = DIRECTION('',(1.,0.,-0.));
#117 = DIRECTION('',(0.,0.,1.));
#118 = ORIENTED_EDGE('',*,*,#119,.F.);
#119 = EDGE_CURVE('',#120,#111,#122,.T.);
#120 = VERTEX_POINT('',#121);
#121 = CARTESIAN_POINT('',(-0.5,-0.23,0.5));
#122 = LINE('',#123,#124);
#123 = CARTESIAN_POINT('',(-0.5,-0.25,0.5));
#124 = VECTOR('',#125,1.);
#125 = DIRECTION('',(0.,1.,0.));
#126 = ORIENTED_EDGE('',*,*,#127,.F.);
#127 = EDGE_CURVE('',#69,#120,#128,.T.);
#128 = CIRCLE('',#129,2.E-02);
#129 = AXIS2_PLACEMENT_3D('',#130,#131,#132);
#130 = CARTESIAN_POINT('',(-0.5,-0.23,0.48));
#131 = DIRECTION('',(-1.,0.,0.));
#132 = DIRECTION('',(0.,0.,1.));
#133 = PLANE('',#134);
#134 = AXIS2_PLACEMENT_3D('',#135,#136,#137);
#135 = CARTESIAN_POINT('',(-0.5,-0.25,0.));
#136 = DIRECTION('',(1.,0.,0.));
#137 = DIRECTION('',(0.,0.,1.));
#138 = ADVANCED_FACE('',(#139),#164,.F.);
#139 = FACE_BOUND('',#140,.F.);
#140 = EDGE_LOOP('',(#141,#151,#157,#158));
#141 = ORIENTED_EDGE('',*,*,#142,.F.);
#142 = EDGE_CURVE('',#143,#145,#147,.T.);
#143 = VERTEX_POINT('',#144);
#144 = CARTESIAN_POINT('',(-0.3,-0.25,2.E-02));
#145 = VERTEX_POINT('',#146);
#146 = CARTESIAN_POINT('',(-0.3,-0.25,0.48));
#147 = LINE('',#148,#149);
#148 = CARTESIAN_POINT('',(-0.3,-0.25,0.));
#149 = VECTOR('',#150,1.);
#150 = DIRECTION('',(0.,0.,1.));
#151 = ORIENTED_EDGE('',*,*,#152,.F.);
#152 = EDGE_CURVE('',#67,#143,#153,.T.);
#153 = LINE('',#154,#155);
#154 = CARTESIAN_POINT('',(-0.5,-0.25,2.E-02));
#155 = VECTOR('',#156,1.);
#156 = DIRECTION('',(1.,0.,0.));
#157 = ORIENTED_EDGE('',*,*,#66,.T.);
#158 = ORIENTED_EDGE('',*,*,#159,.T.);
#159 = EDGE_CURVE('',#69,#145,#160,.T.);
#160 = LINE('',#161,#162);
#161 = CARTESIAN_POINT('',(-0.5,-0.25,0.48));
#162 = VECTOR('',#163,1.);
#163 = DIRECTION('',(1.,0.,0.));
#164 = PLANE('',#165);
#165 = AXIS2_PLACEMENT_3D('',#166,#167,#168);
#166 = CARTESIAN_POINT('',(-0.5,-0.25,0.));
#167 = DIRECTION('',(0.,1.,0.));
#168 = DIRECTION('',(0.,-0.,1.));
#169 = ADVANCED_FACE('',(#170),#189,.T.);
#170 = FACE_BOUND('',#171,.T.);
#171 = EDGE_LOOP('',(#172,#173,#181,#188));
#172 = ORIENTED_EDGE('',*,*,#76,.T.);
#173 = ORIENTED_EDGE('',*,*,#174,.T.);
#174 = EDGE_CURVE('',#77,#175,#177,.T.);
#175 = VERTEX_POINT('',#176);
#176 = CARTESIAN_POINT('',(-0.3,-0.23,0.));
#177 = LINE('',#178,#179);
#178 = CARTESIAN_POINT('',(-0.5,-0.23,0.));
#179 = VECTOR('',#180,1.);
#180 = DIRECTION('',(1.,0.,0.));
#181 = ORIENTED_EDGE('',*,*,#182,.F.);
#182 = EDGE_CURVE('',#143,#175,#183,.T.);
#183 = CIRCLE('',#184,2.E-02);
#184 = AXIS2_PLACEMENT_3D('',#185,#186,#187);
#185 = CARTESIAN_POINT('',(-0.3,-0.23,2.E-02));
#186 = DIRECTION('',(1.,0.,-0.));
#187 = DIRECTION('',(0.,0.,1.));
#188 = ORIENTED_EDGE('',*,*,#152,.F.);
#189 = CYLINDRICAL_SURFACE('',#190,2.E-02);
#190 = AXIS2_PLACEMENT_3D('',#191,#192,#193);
#191 = CARTESIAN_POINT('',(-0.5,-0.23,2.E-02));
#192 = DIRECTION('',(1.,0.,0.));
#193 = DIRECTION('',(0.,-1.,0.));
#194 = ADVANCED_FACE('',(#195),#214,.T.);
#195 = FACE_BOUND('',#196,.T.);
#196 = EDGE_LOOP('',(#197,#198,#207,#213));
#197 = ORIENTED_EDGE('',*,*,#159,.T.);
#198 = ORIENTED_EDGE('',*,*,#199,.T.);
#199 = EDGE_CURVE('',#145,#200,#202,.T.);
#200 = VERTEX_POINT('',#201);
#201 = CARTESIAN_POINT('',(-0.3,-0.23,0.5));
#202 = CIRCLE('',#203,2.E-02);
#203 = AXIS2_PLACEMENT_3D('',#204,#205,#206);
#204 = CARTESIAN_POINT('',(-0.3,-0.23,0.48));
#205 = DIRECTION('',(-1.,0.,0.));
#206 = DIRECTION('',(0.,0.,1.));
#207 = ORIENTED_EDGE('',*,*,#208,.F.);
#208 = EDGE_CURVE('',#120,#200,#209,.T.);
#209 = LINE('',#210,#211);
#210 = CARTESIAN_POINT('',(-0.5,-0.23,0.5));
#211 = VECTOR('',#212,1.);
#212 = DIRECTION('',(1.,0.,0.));
#213 = ORIENTED_EDGE('',*,*,#127,.F.);
#214 = CYLINDRICAL_SURFACE('',#215,2.E-02);
#215 = AXIS2_PLACEMENT_3D('',#216,#217,#218);
#216 = CARTESIAN_POINT('',(-0.5,-0.23,0.48));
#217 = DIRECTION('',(1.,0.,0.));
#218 = DIRECTION('',(0.,-1.,0.));
#219 = ADVANCED_FACE('',(#220),#238,.F.);
#220 = FACE_BOUND('',#221,.F.);
#221 = EDGE_LOOP('',(#222,#223,#224,#232));
#222 = ORIENTED_EDGE('',*,*,#85,.F.);
#223 = ORIENTED_EDGE('',*,*,#174,.T.);
#224 = ORIENTED_EDGE('',*,*,#225,.T.);
#225 = EDGE_CURVE('',#175,#226,#228,.T.);
#226 = VERTEX_POINT('',#227);
#227 = CARTESIAN_POINT('',(-0.3,0.23,0.));
#228 = LINE('',#229,#230);
#229 = CARTESIAN_POINT('',(-0.3,-0.25,0.));
#230 = VECTOR('',#231,1.);
#231 = DIRECTION('',(0.,1.,0.));
#232 = ORIENTED_EDGE('',*,*,#233,.F.);
#233 = EDGE_CURVE('',#86,#226,#234,.T.);
#234 = LINE('',#235,#236);
#235 = CARTESIAN_POINT('',(-0.5,0.23,0.));
#236 = VECTOR('',#237,1.);
#237 = DIRECTION('',(1.,0.,0.));
#238 = PLANE('',#239);
#239 = AXIS2_PLACEMENT_3D('',#240,#241,#242);
#240 = CARTESIAN_POINT('',(-0.5,-0.25,0.));
#241 = DIRECTION('',(0.,0.,1.));
#242 = DIRECTION('',(1.,0.,-0.));
#243 = ADVANCED_FACE('',(#244),#262,.T.);
#244 = FACE_BOUND('',#245,.T.);
#245 = EDGE_LOOP('',(#246,#247,#248,#256));
#246 = ORIENTED_EDGE('',*,*,#119,.F.);
#247 = ORIENTED_EDGE('',*,*,#208,.T.);
#248 = ORIENTED_EDGE('',*,*,#249,.T.);
#249 = EDGE_CURVE('',#200,#250,#252,.T.);
#250 = VERTEX_POINT('',#251);
#251 = CARTESIAN_POINT('',(-0.3,0.23,0.5));
#252 = LINE('',#253,#254);
#253 = CARTESIAN_POINT('',(-0.3,-0.25,0.5));
#254 = VECTOR('',#255,1.);
#255 = DIRECTION('',(0.,1.,0.));
#256 = ORIENTED_EDGE('',*,*,#257,.F.);
#257 = EDGE_CURVE('',#111,#250,#258,.T.);
#258 = LINE('',#259,#260);
#259 = CARTESIAN_POINT('',(-0.5,0.23,0.5));
#260 = VECTOR('',#261,1.);
#261 = DIRECTION('',(1.,0.,0.));
#262 = PLANE('',#263);
#263 = AXIS2_PLACEMENT_3D('',#264,#265,#266);
#264 = CARTESIAN_POINT('',(-0.5,-0.25,0.5));
#265 = DIRECTION('',(0.,0.,1.));
#266 = DIRECTION('',(1.,0.,-0.));
#267 = ADVANCED_FACE('',(#268),#287,.T.);
#268 = FACE_BOUND('',#269,.T.);
#269 = EDGE_LOOP('',(#270,#278,#285,#286));
#270 = ORIENTED_EDGE('',*,*,#271,.T.);
#271 = EDGE_CURVE('',#94,#272,#274,.T.);
#272 = VERTEX_POINT('',#273);
#273 = CARTESIAN_POINT('',(-0.3,0.25,2.E-02));
#274 = LINE('',#275,#276);
#275 = CARTESIAN_POINT('',(-0.5,0.25,2.E-02));
#276 = VECTOR('',#277,1.);
#277 = DIRECTION('',(1.,0.,0.));
#278 = ORIENTED_EDGE('',*,*,#279,.T.);
#279 = EDGE_CURVE('',#272,#226,#280,.T.);
#280 = CIRCLE('',#281,2.E-02);
#281 = AXIS2_PLACEMENT_3D('',#282,#283,#284);
#282 = CARTESIAN_POINT('',(-0.3,0.23,2.E-02));
#283 = DIRECTION('',(-1.,0.,0.));
#284 = DIRECTION('',(0.,0.,1.));
#285 = ORIENTED_EDGE('',*,*,#233,.F.);
#286 = ORIENTED_EDGE('',*,*,#93,.F.);
#287 = CYLINDRICAL_SURFACE('',#288,2.E-02);
#288 = AXIS2_PLACEMENT_3D('',#289,#290,#291);
#289 = CARTESIAN_POINT('',(-0.5,0.23,2.E-02));
#290 = DIRECTION('',(1.,0.,0.));
#291 = DIRECTION('',(-0.,1.,0.));
#292 = ADVANCED_FACE('',(#293),#312,.T.);
#293 = FACE_BOUND('',#294,.T.);
#294 = EDGE_LOOP('',(#295,#296,#297,#306));
#295 = ORIENTED_EDGE('',*,*,#110,.T.);
#296 = ORIENTED_EDGE('',*,*,#257,.T.);
#297 = ORIENTED_EDGE('',*,*,#298,.F.);
#298 = EDGE_CURVE('',#299,#250,#301,.T.);
#299 = VERTEX_POINT('',#300);
#300 = CARTESIAN_POINT('',(-0.3,0.25,0.48));
#301 = CIRCLE('',#302,2.E-02);
#302 = AXIS2_PLACEMENT_3D('',#303,#304,#305);
#303 = CARTESIAN_POINT('',(-0.3,0.23,0.48));
#304 = DIRECTION('',(1.,0.,-0.));
#305 = DIRECTION('',(0.,0.,1.));
#306 = ORIENTED_EDGE('',*,*,#307,.F.);
#307 = EDGE_CURVE('',#103,#299,#308,.T.);
#308 = LINE('',#309,#310);
#309 = CARTESIAN_POINT('',(-0.5,0.25,0.48));
#310 = VECTOR('',#311,1.);
#311 = DIRECTION('',(1.,0.,0.));
#312 = CYLINDRICAL_SURFACE('',#313,2.E-02);
#313 = AXIS2_PLACEMENT_3D('',#314,#315,#316);
#314 = CARTESIAN_POINT('',(-0.5,0.23,0.48));
#315 = DIRECTION('',(1.,0.,0.));
#316 = DIRECTION('',(-0.,1.,0.));
#317 = ADVANCED_FACE('',(#318),#329,.T.);
#318 = FACE_BOUND('',#319,.T.);
#319 = EDGE_LOOP('',(#320,#326,#327,#328));
#320 = ORIENTED_EDGE('',*,*,#321,.F.);
#321 = EDGE_CURVE('',#272,#299,#322,.T.);
#322 = LINE('',#323,#324);
#323 = CARTESIAN_POINT('',(-0.3,0.25,0.));
#324 = VECTOR('',#325,1.);
#325 = DIRECTION('',(0.,0.,1.));
#326 = ORIENTED_EDGE('',*,*,#271,.F.);
#327 = ORIENTED_EDGE('',*,*,#102,.T.);
#328 = ORIENTED_EDGE('',*,*,#307,.T.);
#329 = PLANE('',#330);
#330 = AXIS2_PLACEMENT_3D('',#331,#332,#333);
#331 = CARTESIAN_POINT('',(-0.5,0.25,0.));
#332 = DIRECTION('',(0.,1.,0.));
#333 = DIRECTION('',(0.,-0.,1.));
#334 = ADVANCED_FACE('',(#335,#345),#415,.T.);
#335 = FACE_BOUND('',#336,.T.);
#336 = EDGE_LOOP('',(#337,#338,#339,#340,#341,#342,#343,#344));
#337 = ORIENTED_EDGE('',*,*,#142,.F.);
#338 = ORIENTED_EDGE('',*,*,#182,.T.);
#339 = ORIENTED_EDGE('',*,*,#225,.T.);
#340 = ORIENTED_EDGE('',*,*,#279,.F.);
#341 = ORIENTED_EDGE('',*,*,#321,.T.);
#342 = ORIENTED_EDGE('',*,*,#298,.T.);
#343 = ORIENTED_EDGE('',*,*,#249,.F.);
#344 = ORIENTED_EDGE('',*,*,#199,.F.);
#345 = FACE_BOUND('',#346,.T.);
#346 = EDGE_LOOP('',(#347,#358,#366,#375,#383,#392,#400,#409));
#347 = ORIENTED_EDGE('',*,*,#348,.F.);
#348 = EDGE_CURVE('',#349,#351,#353,.T.);
#349 = VERTEX_POINT('',#350);
#350 = CARTESIAN_POINT('',(-0.3,-0.23,4.E-02));
#351 = VERTEX_POINT('',#352);
#352 = CARTESIAN_POINT('',(-0.3,-0.21,2.E-02));
#353 = CIRCLE('',#354,2.E-02);
#354 = AXIS2_PLACEMENT_3D('',#355,#356,#357);
#355 = CARTESIAN_POINT('',(-0.3,-0.21,4.E-02));
#356 = DIRECTION('',(1.,0.,-0.));
#357 = DIRECTION('',(0.,0.,1.));
#358 = ORIENTED_EDGE('',*,*,#359,.T.);
#359 = EDGE_CURVE('',#349,#360,#362,.T.);
#360 = VERTEX_POINT('',#361);
#361 = CARTESIAN_POINT('',(-0.3,-0.23,0.46));
#362 = LINE('',#363,#364);
#363 = CARTESIAN_POINT('',(-0.3,-0.23,2.E-02));
#364 = VECTOR('',#365,1.);
#365 = DIRECTION('',(0.,0.,1.));
#366 = ORIENTED_EDGE('',*,*,#367,.T.);
#367 = EDGE_CURVE('',#360,#368,#370,.T.);
#368 = VERTEX_POINT('',#369);
#369 = CARTESIAN_POINT('',(-0.3,-0.21,0.48));
#370 = CIRCLE('',#371,2.E-02);
#371 = AXIS2_PLACEMENT_3D('',#372,#373,#374);
#372 = CARTESIAN_POINT('',(-0.3,-0.21,0.46));
#373 = DIRECTION('',(-1.,0.,0.));
#374 = DIRECTION('',(0.,0.,1.));
#375 = ORIENTED_EDGE('',*,*,#376,.T.);
#376 = EDGE_CURVE('',#368,#377,#379,.T.);
#377 = VERTEX_POINT('',#378);
#378 = CARTESIAN_POINT('',(-0.3,0.21,0.48));
#379 = LINE('',#380,#381);
#380 = CARTESIAN_POINT('',(-0.3,-0.23,0.48));
#381 = VECTOR('',#382,1.);
#382 = DIRECTION('',(0.,1.,0.));
#383 = ORIENTED_EDGE('',*,*,#384,.F.);
#384 = EDGE_CURVE('',#385,#377,#387,.T.);
#385 = VERTEX_POINT('',#386);
#386 = CARTESIAN_POINT('',(-0.3,0.23,0.46));
#387 = CIRCLE('',#388,2.E-02);
#388 = AXIS2_PLACEMENT_3D('',#389,#390,#391);
#389 = CARTESIAN_POINT('',(-0.3,0.21,0.46));
#390 = DIRECTION('',(1.,0.,-0.));
#391 = DIRECTION('',(0.,0.,1.));
#392 = ORIENTED_EDGE('',*,*,#393,.F.);
#393 = EDGE_CURVE('',#394,#385,#396,.T.);
#394 = VERTEX_POINT('',#395);
#395 = CARTESIAN_POINT('',(-0.3,0.23,4.E-02));
#396 = LINE('',#397,#398);
#397 = CARTESIAN_POINT('',(-0.3,0.23,2.E-02));
#398 = VECTOR('',#399,1.);
#399 = DIRECTION('',(0.,0.,1.));
#400 = ORIENTED_EDGE('',*,*,#401,.T.);
#401 = EDGE_CURVE('',#394,#402,#404,.T.);
#402 = VERTEX_POINT('',#403);
#403 = CARTESIAN_POINT('',(-0.3,0.21,2.E-02));
#404 = CIRCLE('',#405,2.E-02);
#405 = AXIS2_PLACEMENT_3D('',#406,#407,#408);
#406 = CARTESIAN_POINT('',(-0.3,0.21,4.E-02));
#407 = DIRECTION('',(-1.,0.,0.));
#408 = DIRECTION('',(0.,0.,1.));
#409 = ORIENTED_EDGE('',*,*,#410,.F.);
#410 = EDGE_CURVE('',#351,#402,#411,.T.);
#411 = LINE('',#412,#413);
#412 = CARTESIAN_POINT('',(-0.3,-0.23,2.E-02));
#413 = VECTOR('',#414,1.);
#414 = DIRECTION('',(0.,1.,0.));
#415 = PLANE('',#416);
#416 = AXIS2_PLACEMENT_3D('',#417,#418,#419);
#417 = CARTESIAN_POINT('',(-0.3,-0.25,0.));
#418 = DIRECTION('',(1.,0.,0.));
#419 = DIRECTION('',(0.,0.,1.));
#420 = ADVANCED_FACE('',(#421),#447,.T.);
#421 = FACE_BOUND('',#422,.T.);
#422 = EDGE_LOOP('',(#423,#424,#432,#441));
#423 = ORIENTED_EDGE('',*,*,#348,.T.);
#424 = ORIENTED_EDGE('',*,*,#425,.T.);
#425 = EDGE_CURVE('',#351,#426,#428,.T.);
#426 = VERTEX_POINT('',#427);
#427 = CARTESIAN_POINT('',(0.3,-0.21,2.E-02));
#428 = LINE('',#429,#430);
#429 = CARTESIAN_POINT('',(-0.3,-0.21,2.E-02));
#430 = VECTOR('',#431,1.);
#431 = DIRECTION('',(1.,0.,0.));
#432 = ORIENTED_EDGE('',*,*,#433,.F.);
#433 = EDGE_CURVE('',#434,#426,#436,.T.);
#434 = VERTEX_POINT('',#435);
#435 = CARTESIAN_POINT('',(0.3,-0.23,4.E-02));
#436 = CIRCLE('',#437,2.E-02);
#437 = AXIS2_PLACEMENT_3D('',#438,#439,#440);
#438 = CARTESIAN_POINT('',(0.3,-0.21,4.E-02));
#439 = DIRECTION('',(1.,0.,-0.));
#440 = DIRECTION('',(0.,0.,1.));
#441 = ORIENTED_EDGE('',*,*,#442,.F.);
#442 = EDGE_CURVE('',#349,#434,#443,.T.);
#443 = LINE('',#444,#445);
#444 = CARTESIAN_POINT('',(-0.3,-0.23,4.E-02));
#445 = VECTOR('',#446,1.);
#446 = DIRECTION('',(1.,0.,0.));
#447 = CYLINDRICAL_SURFACE('',#448,2.E-02);
#448 = AXIS2_PLACEMENT_3D('',#449,#450,#451);
#449 = CARTESIAN_POINT('',(-0.3,-0.21,4.E-02));
#450 = DIRECTION('',(1.,0.,0.));
#451 = DIRECTION('',(0.,-1.,0.));
#452 = ADVANCED_FACE('',(#453),#471,.F.);
#453 = FACE_BOUND('',#454,.F.);
#454 = EDGE_LOOP('',(#455,#456,#457,#465));
#455 = ORIENTED_EDGE('',*,*,#410,.F.);
#456 = ORIENTED_EDGE('',*,*,#425,.T.);
#457 = ORIENTED_EDGE('',*,*,#458,.T.);
#458 = EDGE_CURVE('',#426,#459,#461,.T.);
#459 = VERTEX_POINT('',#460);
#460 = CARTESIAN_POINT('',(0.3,0.21,2.E-02));
#461 = LINE('',#462,#463);
#462 = CARTESIAN_POINT('',(0.3,-0.23,2.E-02));
#463 = VECTOR('',#464,1.);
#464 = DIRECTION('',(0.,1.,0.));
#465 = ORIENTED_EDGE('',*,*,#466,.F.);
#466 = EDGE_CURVE('',#402,#459,#467,.T.);
#467 = LINE('',#468,#469);
#468 = CARTESIAN_POINT('',(-0.3,0.21,2.E-02));
#469 = VECTOR('',#470,1.);
#470 = DIRECTION('',(1.,0.,0.));
#471 = PLANE('',#472);
#472 = AXIS2_PLACEMENT_3D('',#473,#474,#475);
#473 = CARTESIAN_POINT('',(-0.3,-0.23,2.E-02));
#474 = DIRECTION('',(0.,0.,1.));
#475 = DIRECTION('',(1.,0.,-0.));
#476 = ADVANCED_FACE('',(#477),#496,.T.);
#477 = FACE_BOUND('',#478,.T.);
#478 = EDGE_LOOP('',(#479,#487,#494,#495));
#479 = ORIENTED_EDGE('',*,*,#480,.T.);
#480 = EDGE_CURVE('',#394,#481,#483,.T.);
#481 = VERTEX_POINT('',#482);
#482 = CARTESIAN_POINT('',(0.3,0.23,4.E-02));
#483 = LINE('',#484,#485);
#484 = CARTESIAN_POINT('',(-0.3,0.23,4.E-02));
#485 = VECTOR('',#486,1.);
#486 = DIRECTION('',(1.,0.,0.));
#487 = ORIENTED_EDGE('',*,*,#488,.T.);
#488 = EDGE_CURVE('',#481,#459,#489,.T.);
#489 = CIRCLE('',#490,2.E-02);
#490 = AXIS2_PLACEMENT_3D('',#491,#492,#493);
#491 = CARTESIAN_POINT('',(0.3,0.21,4.E-02));
#492 = DIRECTION('',(-1.,0.,0.));
#493 = DIRECTION('',(0.,0.,1.));
#494 = ORIENTED_EDGE('',*,*,#466,.F.);
#495 = ORIENTED_EDGE('',*,*,#401,.F.);
#496 = CYLINDRICAL_SURFACE('',#497,2.E-02);
#497 = AXIS2_PLACEMENT_3D('',#498,#499,#500);
#498 = CARTESIAN_POINT('',(-0.3,0.21,4.E-02));
#499 = DIRECTION('',(1.,0.,0.));
#500 = DIRECTION('',(-0.,1.,0.));
#501 = ADVANCED_FACE('',(#502),#520,.T.);
#502 = FACE_BOUND('',#503,.T.);
#503 = EDGE_LOOP('',(#504,#512,#513,#514));
#504 = ORIENTED_EDGE('',*,*,#505,.F.);
#505 = EDGE_CURVE('',#481,#506,#508,.T.);
#506 = VERTEX_POINT('',#507);
#507 = CARTESIAN_POINT('',(0.3,0.23,0.46));
#508 = LINE('',#509,#510);
#509 = CARTESIAN_POINT('',(0.3,0.23,2.E-02));
#510 = VECTOR('',#511,1.);
#511 = DIRECTION('',(0.,0.,1.));
#512 = ORIENTED_EDGE('',*,*,#480,.F.);
#513 = ORIENTED_EDGE('',*,*,#393,.T.);
#514 = ORIENTED_EDGE('',*,*,#515,.T.);
#515 = EDGE_CURVE('',#385,#506,#516,.T.);
#516 = LINE('',#517,#518);
#517 = CARTESIAN_POINT('',(-0.3,0.23,0.46));
#518 = VECTOR('',#519,1.);
#519 = DIRECTION('',(1.,0.,0.));
#520 = PLANE('',#521);
#521 = AXIS2_PLACEMENT_3D('',#522,#523,#524);
#522 = CARTESIAN_POINT('',(-0.3,0.23,2.E-02));
#523 = DIRECTION('',(0.,1.,0.));
#524 = DIRECTION('',(0.,-0.,1.));
#525 = ADVANCED_FACE('',(#526),#545,.T.);
#526 = FACE_BOUND('',#527,.T.);
#527 = EDGE_LOOP('',(#528,#529,#537,#544));
#528 = ORIENTED_EDGE('',*,*,#384,.T.);
#529 = ORIENTED_EDGE('',*,*,#530,.T.);
#530 = EDGE_CURVE('',#377,#531,#533,.T.);
#531 = VERTEX_POINT('',#532);
#532 = CARTESIAN_POINT('',(0.3,0.21,0.48));
#533 = LINE('',#534,#535);
#534 = CARTESIAN_POINT('',(-0.3,0.21,0.48));
#535 = VECTOR('',#536,1.);
#536 = DIRECTION('',(1.,0.,0.));
#537 = ORIENTED_EDGE('',*,*,#538,.F.);
#538 = EDGE_CURVE('',#506,#531,#539,.T.);
#539 = CIRCLE('',#540,2.E-02);
#540 = AXIS2_PLACEMENT_3D('',#541,#542,#543);
#541 = CARTESIAN_POINT('',(0.3,0.21,0.46));
#542 = DIRECTION('',(1.,0.,-0.));
#543 = DIRECTION('',(0.,0.,1.));
#544 = ORIENTED_EDGE('',*,*,#515,.F.);
#545 = CYLINDRICAL_SURFACE('',#546,2.E-02);
#546 = AXIS2_PLACEMENT_3D('',#547,#548,#549);
#547 = CARTESIAN_POINT('',(-0.3,0.21,0.46));
#548 = DIRECTION('',(1.,0.,0.));
#549 = DIRECTION('',(-0.,1.,0.));
#550 = ADVANCED_FACE('',(#551),#569,.T.);
#551 = FACE_BOUND('',#552,.T.);
#552 = EDGE_LOOP('',(#553,#554,#562,#568));
#553 = ORIENTED_EDGE('',*,*,#376,.F.);
#554 = ORIENTED_EDGE('',*,*,#555,.T.);
#555 = EDGE_CURVE('',#368,#556,#558,.T.);
#556 = VERTEX_POINT('',#557);
#557 = CARTESIAN_POINT('',(0.3,-0.21,0.48));
#558 = LINE('',#559,#560);
#559 = CARTESIAN_POINT('',(-0.3,-0.21,0.48));
#560 = VECTOR('',#561,1.);
#561 = DIRECTION('',(1.,0.,0.));
#562 = ORIENTED_EDGE('',*,*,#563,.T.);
#563 = EDGE_CURVE('',#556,#531,#564,.T.);
#564 = LINE('',#565,#566);
#565 = CARTESIAN_POINT('',(0.3,-0.23,0.48));
#566 = VECTOR('',#567,1.);
#567 = DIRECTION('',(0.,1.,0.));
#568 = ORIENTED_EDGE('',*,*,#530,.F.);
#569 = PLANE('',#570);
#570 = AXIS2_PLACEMENT_3D('',#571,#572,#573);
#571 = CARTESIAN_POINT('',(-0.3,-0.23,0.48));
#572 = DIRECTION('',(0.,0.,1.));
#573 = DIRECTION('',(1.,0.,-0.));
#574 = ADVANCED_FACE('',(#575),#594,.T.);
#575 = FACE_BOUND('',#576,.T.);
#576 = EDGE_LOOP('',(#577,#585,#592,#593));
#577 = ORIENTED_EDGE('',*,*,#578,.T.);
#578 = EDGE_CURVE('',#360,#579,#581,.T.);
#579 = VERTEX_POINT('',#580);
#580 = CARTESIAN_POINT('',(0.3,-0.23,0.46));
#581 = LINE('',#582,#583);
#582 = CARTESIAN_POINT('',(-0.3,-0.23,0.46));
#583 = VECTOR('',#584,1.);
#584 = DIRECTION('',(1.,0.,0.));
#585 = ORIENTED_EDGE('',*,*,#586,.T.);
#586 = EDGE_CURVE('',#579,#556,#587,.T.);
#587 = CIRCLE('',#588,2.E-02);
#588 = AXIS2_PLACEMENT_3D('',#589,#590,#591);
#589 = CARTESIAN_POINT('',(0.3,-0.21,0.46));
#590 = DIRECTION('',(-1.,0.,0.));
#591 = DIRECTION('',(0.,0.,1.));
#592 = ORIENTED_EDGE('',*,*,#555,.F.);
#593 = ORIENTED_EDGE('',*,*,#367,.F.);
#594 = CYLINDRICAL_SURFACE('',#595,2.E-02);
#595 = AXIS2_PLACEMENT_3D('',#596,#597,#598);
#596 = CARTESIAN_POINT('',(-0.3,-0.21,0.46));
#597 = DIRECTION('',(1.,0.,0.));
#598 = DIRECTION('',(0.,-1.,0.));
#599 = ADVANCED_FACE('',(#600),#611,.F.);
#600 = FACE_BOUND('',#601,.F.);
#601 = EDGE_LOOP('',(#602,#608,#609,#610));
#602 = ORIENTED_EDGE('',*,*,#603,.F.);
#603 = EDGE_CURVE('',#434,#579,#604,.T.);
#604 = LINE('',#605,#606);
#605 = CARTESIAN_POINT('',(0.3,-0.23,2.E-02));
#606 = VECTOR('',#607,1.);
#607 = DIRECTION('',(0.,0.,1.));
#608 = ORIENTED_EDGE('',*,*,#442,.F.);
#609 = ORIENTED_EDGE('',*,*,#359,.T.);
#610 = ORIENTED_EDGE('',*,*,#578,.T.);
#611 = PLANE('',#612);
#612 = AXIS2_PLACEMENT_3D('',#613,#614,#615);
#613 = CARTESIAN_POINT('',(-0.3,-0.23,2.E-02));
#614 = DIRECTION('',(0.,1.,0.));
#615 = DIRECTION('',(0.,-0.,1.));
#616 = ADVANCED_FACE('',(#617,#687),#697,.F.);
#617 = FACE_BOUND('',#618,.F.);
#618 = EDGE_LOOP('',(#619,#629,#638,#646,#655,#663,#672,#680));
#619 = ORIENTED_EDGE('',*,*,#620,.F.);
#620 = EDGE_CURVE('',#621,#623,#625,.T.);
#621 = VERTEX_POINT('',#622);
#622 = CARTESIAN_POINT('',(0.3,-0.25,2.E-02));
#623 = VERTEX_POINT('',#624);
#624 = CARTESIAN_POINT('',(0.3,-0.25,0.48));
#625 = LINE('',#626,#627);
#626 = CARTESIAN_POINT('',(0.3,-0.25,0.));
#627 = VECTOR('',#628,1.);
#628 = DIRECTION('',(0.,0.,1.));
#629 = ORIENTED_EDGE('',*,*,#630,.T.);
#630 = EDGE_CURVE('',#621,#631,#633,.T.);
#631 = VERTEX_POINT('',#632);
#632 = CARTESIAN_POINT('',(0.3,-0.23,0.));
#633 = CIRCLE('',#634,2.E-02);
#634 = AXIS2_PLACEMENT_3D('',#635,#636,#637);
#635 = CARTESIAN_POINT('',(0.3,-0.23,2.E-02));
#636 = DIRECTION('',(1.,0.,-0.));
#637 = DIRECTION('',(0.,0.,1.));
#638 = ORIENTED_EDGE('',*,*,#639,.T.);
#639 = EDGE_CURVE('',#631,#640,#642,.T.);
#640 = VERTEX_POINT('',#641);
#641 = CARTESIAN_POINT('',(0.3,0.23,0.));
#642 = LINE('',#643,#644);
#643 = CARTESIAN_POINT('',(0.3,-0.25,0.));
#644 = VECTOR('',#645,1.);
#645 = DIRECTION('',(0.,1.,0.));
#646 = ORIENTED_EDGE('',*,*,#647,.F.);
#647 = EDGE_CURVE('',#648,#640,#650,.T.);
#648 = VERTEX_POINT('',#649);
#649 = CARTESIAN_POINT('',(0.3,0.25,2.E-02));
#650 = CIRCLE('',#651,2.E-02);
#651 = AXIS2_PLACEMENT_3D('',#652,#653,#654);
#652 = CARTESIAN_POINT('',(0.3,0.23,2.E-02));
#653 = DIRECTION('',(-1.,0.,0.));
#654 = DIRECTION('',(0.,0.,1.));
#655 = ORIENTED_EDGE('',*,*,#656,.T.);
#656 = EDGE_CURVE('',#648,#657,#659,.T.);
#657 = VERTEX_POINT('',#658);
#658 = CARTESIAN_POINT('',(0.3,0.25,0.48));
#659 = LINE('',#660,#661);
#660 = CARTESIAN_POINT('',(0.3,0.25,0.));
#661 = VECTOR('',#662,1.);
#662 = DIRECTION('',(0.,0.,1.));
#663 = ORIENTED_EDGE('',*,*,#664,.T.);
#664 = EDGE_CURVE('',#657,#665,#667,.T.);
#665 = VERTEX_POINT('',#666);
#666 = CARTESIAN_POINT('',(0.3,0.23,0.5));
#667 = CIRCLE('',#668,2.E-02);
#668 = AXIS2_PLACEMENT_3D('',#669,#670,#671);
#669 = CARTESIAN_POINT('',(0.3,0.23,0.48));
#670 = DIRECTION('',(1.,0.,-0.));
#671 = DIRECTION('',(0.,0.,1.));
#672 = ORIENTED_EDGE('',*,*,#673,.F.);
#673 = EDGE_CURVE('',#674,#665,#676,.T.);
#674 = VERTEX_POINT('',#675);
#675 = CARTESIAN_POINT('',(0.3,-0.23,0.5));
#676 = LINE('',#677,#678);
#677 = CARTESIAN_POINT('',(0.3,-0.25,0.5));
#678 = VECTOR('',#679,1.);
#679 = DIRECTION('',(0.,1.,0.));
#680 = ORIENTED_EDGE('',*,*,#681,.F.);
#681 = EDGE_CURVE('',#623,#674,#682,.T.);
#682 = CIRCLE('',#683,2.E-02);
#683 = AXIS2_PLACEMENT_3D('',#684,#685,#686);
#684 = CARTESIAN_POINT('',(0.3,-0.23,0.48));
#685 = DIRECTION('',(-1.,0.,0.));
#686 = DIRECTION('',(0.,0.,1.));
#687 = FACE_BOUND('',#688,.F.);
#688 = EDGE_LOOP('',(#689,#690,#691,#692,#693,#694,#695,#696));
#689 = ORIENTED_EDGE('',*,*,#433,.F.);
#690 = ORIENTED_EDGE('',*,*,#603,.T.);
#691 = ORIENTED_EDGE('',*,*,#586,.T.);
#692 = ORIENTED_EDGE('',*,*,#563,.T.);
#693 = ORIENTED_EDGE('',*,*,#538,.F.);
#694 = ORIENTED_EDGE('',*,*,#505,.F.);
#695 = ORIENTED_EDGE('',*,*,#488,.T.);
#696 = ORIENTED_EDGE('',*,*,#458,.F.);
#697 = PLANE('',#698);
#698 = AXIS2_PLACEMENT_3D('',#699,#700,#701);
#699 = CARTESIAN_POINT('',(0.3,-0.25,0.));
#700 = DIRECTION('',(1.,0.,0.));
#701 = DIRECTION('',(0.,0.,1.));
#702 = ADVANCED_FACE('',(#703),#728,.F.);
#703 = FACE_BOUND('',#704,.F.);
#704 = EDGE_LOOP('',(#705,#715,#721,#722));
#705 = ORIENTED_EDGE('',*,*,#706,.F.);
#706 = EDGE_CURVE('',#707,#709,#711,.T.);
#707 = VERTEX_POINT('',#708);
#708 = CARTESIAN_POINT('',(0.5,-0.25,2.E-02));
#709 = VERTEX_POINT('',#710);
#710 = CARTESIAN_POINT('',(0.5,-0.25,0.48));
#711 = LINE('',#712,#713);
#712 = CARTESIAN_POINT('',(0.5,-0.25,0.));
#713 = VECTOR('',#714,1.);
#714 = DIRECTION('',(0.,0.,1.));
#715 = ORIENTED_EDGE('',*,*,#716,.F.);
#716 = EDGE_CURVE('',#621,#707,#717,.T.);
#717 = LINE('',#718,#719);
#718 = CARTESIAN_POINT('',(0.3,-0.25,2.E-02));
#719 = VECTOR('',#720,1.);
#720 = DIRECTION('',(1.,0.,0.));
#721 = ORIENTED_EDGE('',*,*,#620,.T.);
#722 = ORIENTED_EDGE('',*,*,#723,.T.);
#723 = EDGE_CURVE('',#623,#709,#724,.T.);
#724 = LINE('',#725,#726);
#725 = CARTESIAN_POINT('',(0.3,-0.25,0.48));
#726 = VECTOR('',#727,1.);
#727 = DIRECTION('',(1.,0.,0.));
#728 = PLANE('',#729);
#729 = AXIS2_PLACEMENT_3D('',#730,#731,#732);
#730 = CARTESIAN_POINT('',(0.3,-0.25,0.));
#731 = DIRECTION('',(0.,1.,0.));
#732 = DIRECTION('',(0.,-0.,1.));
#733 = ADVANCED_FACE('',(#734),#753,.T.);
#734 = FACE_BOUND('',#735,.T.);
#735 = EDGE_LOOP('',(#736,#737,#745,#752));
#736 = ORIENTED_EDGE('',*,*,#630,.T.);
#737 = ORIENTED_EDGE('',*,*,#738,.T.);
#738 = EDGE_CURVE('',#631,#739,#741,.T.);
#739 = VERTEX_POINT('',#740);
#740 = CARTESIAN_POINT('',(0.5,-0.23,0.));
#741 = LINE('',#742,#743);
#742 = CARTESIAN_POINT('',(0.3,-0.23,0.));
#743 = VECTOR('',#744,1.);
#744 = DIRECTION('',(1.,0.,0.));
#745 = ORIENTED_EDGE('',*,*,#746,.F.);
#746 = EDGE_CURVE('',#707,#739,#747,.T.);
#747 = CIRCLE('',#748,2.E-02);
#748 = AXIS2_PLACEMENT_3D('',#749,#750,#751);
#749 = CARTESIAN_POINT('',(0.5,-0.23,2.E-02));
#750 = DIRECTION('',(1.,0.,-0.));
#751 = DIRECTION('',(0.,0.,1.));
#752 = ORIENTED_EDGE('',*,*,#716,.F.);
#753 = CYLINDRICAL_SURFACE('',#754,2.E-02);
#754 = AXIS2_PLACEMENT_3D('',#755,#756,#757);
#755 = CARTESIAN_POINT('',(0.3,-0.23,2.E-02));
#756 = DIRECTION('',(1.,0.,0.));
#757 = DIRECTION('',(0.,-1.,0.));
#758 = ADVANCED_FACE('',(#759),#778,.T.);
#759 = FACE_BOUND('',#760,.T.);
#760 = EDGE_LOOP('',(#761,#762,#771,#777));
#761 = ORIENTED_EDGE('',*,*,#723,.T.);
#762 = ORIENTED_EDGE('',*,*,#763,.T.);
#763 = EDGE_CURVE('',#709,#764,#766,.T.);
#764 = VERTEX_POINT('',#765);
#765 = CARTESIAN_POINT('',(0.5,-0.23,0.5));
#766 = CIRCLE('',#767,2.E-02);
#767 = AXIS2_PLACEMENT_3D('',#768,#769,#770);
#768 = CARTESIAN_POINT('',(0.5,-0.23,0.48));
#769 = DIRECTION('',(-1.,0.,0.));
#770 = DIRECTION('',(0.,0.,1.));
#771 = ORIENTED_EDGE('',*,*,#772,.F.);
#772 = EDGE_CURVE('',#674,#764,#773,.T.);
#773 = LINE('',#774,#775);
#774 = CARTESIAN_POINT('',(0.3,-0.23,0.5));
#775 = VECTOR('',#776,1.);
#776 = DIRECTION('',(1.,0.,0.));
#777 = ORIENTED_EDGE('',*,*,#681,.F.);
#778 = CYLINDRICAL_SURFACE('',#779,2.E-02);
#779 = AXIS2_PLACEMENT_3D('',#780,#781,#782);
#780 = CARTESIAN_POINT('',(0.3,-0.23,0.48));
#781 = DIRECTION('',(1.,0.,0.));
#782 = DIRECTION('',(0.,-1.,0.));
#783 = ADVANCED_FACE('',(#784),#802,.F.);
#784 = FACE_BOUND('',#785,.F.);
#785 = EDGE_LOOP('',(#786,#787,#788,#796));
#786 = ORIENTED_EDGE('',*,*,#639,.F.);
#787 = ORIENTED_EDGE('',*,*,#738,.T.);
#788 = ORIENTED_EDGE('',*,*,#789,.T.);
#789 = EDGE_CURVE('',#739,#790,#792,.T.);
#790 = VERTEX_POINT('',#791);
#791 = CARTESIAN_POINT('',(0.5,0.23,0.));
#792 = LINE('',#793,#794);
#793 = CARTESIAN_POINT('',(0.5,-0.25,0.));
#794 = VECTOR('',#795,1.);
#795 = DIRECTION('',(0.,1.,0.));
#796 = ORIENTED_EDGE('',*,*,#797,.F.);
#797 = EDGE_CURVE('',#640,#790,#798,.T.);
#798 = LINE('',#799,#800);
#799 = CARTESIAN_POINT('',(0.3,0.23,0.));
#800 = VECTOR('',#801,1.);
#801 = DIRECTION('',(1.,0.,0.));
#802 = PLANE('',#803);
#803 = AXIS2_PLACEMENT_3D('',#804,#805,#806);
#804 = CARTESIAN_POINT('',(0.3,-0.25,0.));
#805 = DIRECTION('',(0.,0.,1.));
#806 = DIRECTION('',(1.,0.,-0.));
#807 = ADVANCED_FACE('',(#808),#826,.T.);
#808 = FACE_BOUND('',#809,.T.);
#809 = EDGE_LOOP('',(#810,#811,#812,#820));
#810 = ORIENTED_EDGE('',*,*,#673,.F.);
#811 = ORIENTED_EDGE('',*,*,#772,.T.);
#812 = ORIENTED_EDGE('',*,*,#813,.T.);
#813 = EDGE_CURVE('',#764,#814,#816,.T.);
#814 = VERTEX_POINT('',#815);
#815 = CARTESIAN_POINT('',(0.5,0.23,0.5));
#816 = LINE('',#817,#818);
#817 = CARTESIAN_POINT('',(0.5,-0.25,0.5));
#818 = VECTOR('',#819,1.);
#819 = DIRECTION('',(0.,1.,0.));
#820 = ORIENTED_EDGE('',*,*,#821,.F.);
#821 = EDGE_CURVE('',#665,#814,#822,.T.);
#822 = LINE('',#823,#824);
#823 = CARTESIAN_POINT('',(0.3,0.23,0.5));
#824 = VECTOR('',#825,1.);
#825 = DIRECTION('',(1.,0.,0.));
#826 = PLANE('',#827);
#827 = AXIS2_PLACEMENT_3D('',#828,#829,#830);
#828 = CARTESIAN_POINT('',(0.3,-0.25,0.5));
#829 = DIRECTION('',(0.,0.,1.));
#830 = DIRECTION('',(1.,0.,-0.));
#831 = ADVANCED_FACE('',(#832),#851,.T.);
#832 = FACE_BOUND('',#833,.T.);
#833 = EDGE_LOOP('',(#834,#842,#849,#850));
#834 = ORIENTED_EDGE('',*,*,#835,.T.);
#835 = EDGE_CURVE('',#648,#836,#838,.T.);
#836 = VERTEX_POINT('',#837);
#837 = CARTESIAN_POINT('',(0.5,0.25,2.E-02));
#838 = LINE('',#839,#840);
#839 = CARTESIAN_POINT('',(0.3,0.25,2.E-02));
#840 = VECTOR('',#841,1.);
#841 = DIRECTION('',(1.,0.,0.));
#842 = ORIENTED_EDGE('',*,*,#843,.T.);
#843 = EDGE_CURVE('',#836,#790,#844,.T.);
#844 = CIRCLE('',#845,2.E-02);
#845 = AXIS2_PLACEMENT_3D('',#846,#847,#848);
#846 = CARTESIAN_POINT('',(0.5,0.23,2.E-02));
#847 = DIRECTION('',(-1.,0.,0.));
#848 = DIRECTION('',(0.,0.,1.));
#849 = ORIENTED_EDGE('',*,*,#797,.F.);
#850 = ORIENTED_EDGE('',*,*,#647,.F.);
#851 = CYLINDRICAL_SURFACE('',#852,2.E-02);
#852 = AXIS2_PLACEMENT_3D('',#853,#854,#855);
#853 = CARTESIAN_POINT('',(0.3,0.23,2.E-02));
#854 = DIRECTION('',(1.,0.,0.));
#855 = DIRECTION('',(-0.,1.,0.));
#856 = ADVANCED_FACE('',(#857),#876,.T.);
#857 = FACE_BOUND('',#858,.T.);
#858 = EDGE_LOOP('',(#859,#860,#861,#870));
#859 = ORIENTED_EDGE('',*,*,#664,.T.);
#860 = ORIENTED_EDGE('',*,*,#821,.T.);
#861 = ORIENTED_EDGE('',*,*,#862,.F.);
#862 = EDGE_CURVE('',#863,#814,#865,.T.);
#863 = VERTEX_POINT('',#864);
#864 = CARTESIAN_POINT('',(0.5,0.25,0.48));
#865 = CIRCLE('',#866,2.E-02);
#866 = AXIS2_PLACEMENT_3D('',#867,#868,#869);
#867 = CARTESIAN_POINT('',(0.5,0.23,0.48));
#868 = DIRECTION('',(1.,0.,-0.));
#869 = DIRECTION('',(0.,0.,1.));
#870 = ORIENTED_EDGE('',*,*,#871,.F.);
#871 = EDGE_CURVE('',#657,#863,#872,.T.);
#872 = LINE('',#873,#874);
#873 = CARTESIAN_POINT('',(0.3,0.25,0.48));
#874 = VECTOR('',#875,1.);
#875 = DIRECTION('',(1.,0.,0.));
#876 = CYLINDRICAL_SURFACE('',#877,2.E-02);
#877 = AXIS2_PLACEMENT_3D('',#878,#879,#880);
#878 = CARTESIAN_POINT('',(0.3,0.23,0.48));
#879 = DIRECTION('',(1.,0.,0.));
#880 = DIRECTION('',(-0.,1.,0.));
#881 = ADVANCED_FACE('',(#882),#893,.T.);
#882 = FACE_BOUND('',#883,.T.);
#883 = EDGE_LOOP('',(#884,#890,#891,#892));
#884 = ORIENTED_EDGE('',*,*,#885,.F.);
#885 = EDGE_CURVE('',#836,#863,#886,.T.);
#886 = LINE('',#887,#888);
#887 = CARTESIAN_POINT('',(0.5,0.25,0.));
#888 = VECTOR('',#889,1.);
#889 = DIRECTION('',(0.,0.,1.));
#890 = ORIENTED_EDGE('',*,*,#835,.F.);
#891 = ORIENTED_EDGE('',*,*,#656,.T.);
#892 = ORIENTED_EDGE('',*,*,#871,.T.);
#893 = PLANE('',#894);
#894 = AXIS2_PLACEMENT_3D('',#895,#896,#897);
#895 = CARTESIAN_POINT('',(0.3,0.25,0.));
#896 = DIRECTION('',(0.,1.,0.));
#897 = DIRECTION('',(0.,-0.,1.));
#898 = ADVANCED_FACE('',(#899),#909,.T.);
#899 = FACE_BOUND('',#900,.T.);
#900 = EDGE_LOOP('',(#901,#902,#903,#904,#905,#906,#907,#908));
#901 = ORIENTED_EDGE('',*,*,#706,.F.);
#902 = ORIENTED_EDGE('',*,*,#746,.T.);
#903 = ORIENTED_EDGE('',*,*,#789,.T.);
#904 = ORIENTED_EDGE('',*,*,#843,.F.);
#905 = ORIENTED_EDGE('',*,*,#885,.T.);
#906 = ORIENTED_EDGE('',*,*,#862,.T.);
#907 = ORIENTED_EDGE('',*,*,#813,.F.);
#908 = ORIENTED_EDGE('',*,*,#763,.F.);
#909 = PLANE('',#910);
#910 = AXIS2_PLACEMENT_3D('',#911,#912,#913);
#911 = CARTESIAN_POINT('',(0.5,-0.25,0.));
#912 = DIRECTION('',(1.,0.,0.));
#913 = DIRECTION('',(0.,0.,1.));
#914 = ( GEOMETRIC_REPRESENTATION_CONTEXT(3) 
GLOBAL_UNCERTAINTY_ASSIGNED_CONTEXT((#918)) GLOBAL_UNIT_ASSIGNED_CONTEXT
((#915,#916,#917)) REPRESENTATION_CONTEXT('Context #1',
  '3D Context with UNIT and UNCERTAINTY') );
#915 = ( LENGTH_UNIT() NAMED_UNIT(*) SI_UNIT(.MILLI.,.METRE.) );
#916 = ( NAMED_UNIT(*) PLANE_ANGLE_UNIT() SI_UNIT($,.RADIAN.) );
#917 = ( NAMED_UNIT(*) SI_UNIT($,.STERADIAN.) SOLID_ANGLE_UNIT() );
#918 = UNCERTAINTY_MEASURE_WITH_UNIT(LENGTH_MEASURE(1.E-07),#915,
  'distance_accuracy_value','confusion accuracy');
#919 = CONTEXT_DEPENDENT_SHAPE_REPRESENTATION(#920,#922);
#920 = ( REPRESENTATION_RELATIONSHIP('','',#59,#36) 
REPRESENTATION_RELATIONSHIP_WITH_TRANSFORMATION(#921) 
SHAPE_REPRESENTATION_RELATIONSHIP() );
#921 = ITEM_DEFINED_TRANSFORMATION('','',#11,#37);
#922 = PRODUCT_DEFINITION_SHAPE('Placement','Placement of an item',#923
  );
#923 = NEXT_ASSEMBLY_USAGE_OCCURRENCE('1','=>[0:1:1:3]','',#31,#54,$);
#924 = PRODUCT_RELATED_PRODUCT_CATEGORY('part',$,(#56));
#925 = SHAPE_DEFINITION_REPRESENTATION(#926,#932);
#926 = PRODUCT_DEFINITION_SHAPE('','',#927);
#927 = PRODUCT_DEFINITION('design','',#928,#931);
#928 = PRODUCT_DEFINITION_FORMATION('','',#929);
#929 = PRODUCT('electronic_capacitor_0402_4_7_nano_farad_render_PCB',
  'electronic_capacitor_0402_4_7_nano_farad_render_PCB','',(#930));
#930 = PRODUCT_CONTEXT('',#2,'mechanical');
#931 = PRODUCT_DEFINITION_CONTEXT('part definition',#2,'design');
#932 = ADVANCED_BREP_SHAPE_REPRESENTATION('',(#11,#933),#1083);
#933 = MANIFOLD_SOLID_BREP('',#934);
#934 = CLOSED_SHELL('',(#935,#975,#1006,#1037,#1059,#1071));
#935 = ADVANCED_FACE('',(#936),#970,.T.);
#936 = FACE_BOUND('',#937,.T.);
#937 = EDGE_LOOP('',(#938,#948,#956,#964));
#938 = ORIENTED_EDGE('',*,*,#939,.T.);
#939 = EDGE_CURVE('',#940,#942,#944,.T.);
#940 = VERTEX_POINT('',#941);
#941 = CARTESIAN_POINT('',(2.91,-2.46,0.));
#942 = VERTEX_POINT('',#943);
#943 = CARTESIAN_POINT('',(2.91,-2.46,1.51));
#944 = LINE('',#945,#946);
#945 = CARTESIAN_POINT('',(2.91,-2.46,0.));
#946 = VECTOR('',#947,1.);
#947 = DIRECTION('',(0.,0.,1.));
#948 = ORIENTED_EDGE('',*,*,#949,.T.);
#949 = EDGE_CURVE('',#942,#950,#952,.T.);
#950 = VERTEX_POINT('',#951);
#951 = CARTESIAN_POINT('',(-2.91,-2.46,1.51));
#952 = LINE('',#953,#954);
#953 = CARTESIAN_POINT('',(2.91,-2.46,1.51));
#954 = VECTOR('',#955,1.);
#955 = DIRECTION('',(-1.,0.,0.));
#956 = ORIENTED_EDGE('',*,*,#957,.F.);
#957 = EDGE_CURVE('',#958,#950,#960,.T.);
#958 = VERTEX_POINT('',#959);
#959 = CARTESIAN_POINT('',(-2.91,-2.46,0.));
#960 = LINE('',#961,#962);
#961 = CARTESIAN_POINT('',(-2.91,-2.46,0.));
#962 = VECTOR('',#963,1.);
#963 = DIRECTION('',(0.,0.,1.));
#964 = ORIENTED_EDGE('',*,*,#965,.F.);
#965 = EDGE_CURVE('',#940,#958,#966,.T.);
#966 = LINE('',#967,#968);
#967 = CARTESIAN_POINT('',(2.91,-2.46,0.));
#968 = VECTOR('',#969,1.);
#969 = DIRECTION('',(-1.,0.,0.));
#970 = PLANE('',#971);
#971 = AXIS2_PLACEMENT_3D('',#972,#973,#974);
#972 = CARTESIAN_POINT('',(2.91,-2.46,0.));
#973 = DIRECTION('',(0.,-1.,0.));
#974 = DIRECTION('',(-1.,0.,0.));
#975 = ADVANCED_FACE('',(#976),#1001,.T.);
#976 = FACE_BOUND('',#977,.T.);
#977 = EDGE_LOOP('',(#978,#979,#987,#995));
#978 = ORIENTED_EDGE('',*,*,#957,.T.);
#979 = ORIENTED_EDGE('',*,*,#980,.T.);
#980 = EDGE_CURVE('',#950,#981,#983,.T.);
#981 = VERTEX_POINT('',#982);
#982 = CARTESIAN_POINT('',(-2.91,2.46,1.51));
#983 = LINE('',#984,#985);
#984 = CARTESIAN_POINT('',(-2.91,-2.46,1.51));
#985 = VECTOR('',#986,1.);
#986 = DIRECTION('',(0.,1.,0.));
#987 = ORIENTED_EDGE('',*,*,#988,.F.);
#988 = EDGE_CURVE('',#989,#981,#991,.T.);
#989 = VERTEX_POINT('',#990);
#990 = CARTESIAN_POINT('',(-2.91,2.46,0.));
#991 = LINE('',#992,#993);
#992 = CARTESIAN_POINT('',(-2.91,2.46,0.));
#993 = VECTOR('',#994,1.);
#994 = DIRECTION('',(0.,0.,1.));
#995 = ORIENTED_EDGE('',*,*,#996,.F.);
#996 = EDGE_CURVE('',#958,#989,#997,.T.);
#997 = LINE('',#998,#999);
#998 = CARTESIAN_POINT('',(-2.91,-2.46,0.));
#999 = VECTOR('',#1000,1.);
#1000 = DIRECTION('',(0.,1.,0.));
#1001 = PLANE('',#1002);
#1002 = AXIS2_PLACEMENT_3D('',#1003,#1004,#1005);
#1003 = CARTESIAN_POINT('',(-2.91,-2.46,0.));
#1004 = DIRECTION('',(-1.,0.,0.));
#1005 = DIRECTION('',(0.,1.,0.));
#1006 = ADVANCED_FACE('',(#1007),#1032,.T.);
#1007 = FACE_BOUND('',#1008,.T.);
#1008 = EDGE_LOOP('',(#1009,#1010,#1018,#1026));
#1009 = ORIENTED_EDGE('',*,*,#988,.T.);
#1010 = ORIENTED_EDGE('',*,*,#1011,.T.);
#1011 = EDGE_CURVE('',#981,#1012,#1014,.T.);
#1012 = VERTEX_POINT('',#1013);
#1013 = CARTESIAN_POINT('',(2.91,2.46,1.51));
#1014 = LINE('',#1015,#1016);
#1015 = CARTESIAN_POINT('',(-2.91,2.46,1.51));
#1016 = VECTOR('',#1017,1.);
#1017 = DIRECTION('',(1.,0.,0.));
#1018 = ORIENTED_EDGE('',*,*,#1019,.F.);
#1019 = EDGE_CURVE('',#1020,#1012,#1022,.T.);
#1020 = VERTEX_POINT('',#1021);
#1021 = CARTESIAN_POINT('',(2.91,2.46,0.));
#1022 = LINE('',#1023,#1024);
#1023 = CARTESIAN_POINT('',(2.91,2.46,0.));
#1024 = VECTOR('',#1025,1.);
#1025 = DIRECTION('',(0.,0.,1.));
#1026 = ORIENTED_EDGE('',*,*,#1027,.F.);
#1027 = EDGE_CURVE('',#989,#1020,#1028,.T.);
#1028 = LINE('',#1029,#1030);
#1029 = CARTESIAN_POINT('',(-2.91,2.46,0.));
#1030 = VECTOR('',#1031,1.);
#1031 = DIRECTION('',(1.,0.,0.));
#1032 = PLANE('',#1033);
#1033 = AXIS2_PLACEMENT_3D('',#1034,#1035,#1036);
#1034 = CARTESIAN_POINT('',(-2.91,2.46,0.));
#1035 = DIRECTION('',(0.,1.,0.));
#1036 = DIRECTION('',(1.,0.,0.));
#1037 = ADVANCED_FACE('',(#1038),#1054,.T.);
#1038 = FACE_BOUND('',#1039,.T.);
#1039 = EDGE_LOOP('',(#1040,#1041,#1047,#1048));
#1040 = ORIENTED_EDGE('',*,*,#1019,.T.);
#1041 = ORIENTED_EDGE('',*,*,#1042,.T.);
#1042 = EDGE_CURVE('',#1012,#942,#1043,.T.);
#1043 = LINE('',#1044,#1045);
#1044 = CARTESIAN_POINT('',(2.91,2.46,1.51));
#1045 = VECTOR('',#1046,1.);
#1046 = DIRECTION('',(0.,-1.,0.));
#1047 = ORIENTED_EDGE('',*,*,#939,.F.);
#1048 = ORIENTED_EDGE('',*,*,#1049,.F.);
#1049 = EDGE_CURVE('',#1020,#940,#1050,.T.);
#1050 = LINE('',#1051,#1052);
#1051 = CARTESIAN_POINT('',(2.91,2.46,0.));
#1052 = VECTOR('',#1053,1.);
#1053 = DIRECTION('',(0.,-1.,0.));
#1054 = PLANE('',#1055);
#1055 = AXIS2_PLACEMENT_3D('',#1056,#1057,#1058);
#1056 = CARTESIAN_POINT('',(2.91,2.46,0.));
#1057 = DIRECTION('',(1.,0.,-0.));
#1058 = DIRECTION('',(0.,-1.,0.));
#1059 = ADVANCED_FACE('',(#1060),#1066,.F.);
#1060 = FACE_BOUND('',#1061,.T.);
#1061 = EDGE_LOOP('',(#1062,#1063,#1064,#1065));
#1062 = ORIENTED_EDGE('',*,*,#965,.T.);
#1063 = ORIENTED_EDGE('',*,*,#996,.T.);
#1064 = ORIENTED_EDGE('',*,*,#1027,.T.);
#1065 = ORIENTED_EDGE('',*,*,#1049,.T.);
#1066 = PLANE('',#1067);
#1067 = AXIS2_PLACEMENT_3D('',#1068,#1069,#1070);
#1068 = CARTESIAN_POINT('',(0.,0.,0.));
#1069 = DIRECTION('',(0.,0.,1.));
#1070 = DIRECTION('',(1.,0.,-0.));
#1071 = ADVANCED_FACE('',(#1072),#1078,.T.);
#1072 = FACE_BOUND('',#1073,.F.);
#1073 = EDGE_LOOP('',(#1074,#1075,#1076,#1077));
#1074 = ORIENTED_EDGE('',*,*,#949,.T.);
#1075 = ORIENTED_EDGE('',*,*,#980,.T.);
#1076 = ORIENTED_EDGE('',*,*,#1011,.T.);
#1077 = ORIENTED_EDGE('',*,*,#1042,.T.);
#1078 = PLANE('',#1079);
#1079 = AXIS2_PLACEMENT_3D('',#1080,#1081,#1082);
#1080 = CARTESIAN_POINT('',(0.,0.,1.51));
#1081 = DIRECTION('',(0.,0.,1.));
#1082 = DIRECTION('',(1.,0.,-0.));
#1083 = ( GEOMETRIC_REPRESENTATION_CONTEXT(3) 
GLOBAL_UNCERTAINTY_ASSIGNED_CONTEXT((#1087)) 
GLOBAL_UNIT_ASSIGNED_CONTEXT((#1084,#1085,#1086)) REPRESENTATION_CONTEXT
('Context #1','3D Context with UNIT and UNCERTAINTY') );
#1084 = ( LENGTH_UNIT() NAMED_UNIT(*) SI_UNIT(.MILLI.,.METRE.) );
#1085 = ( NAMED_UNIT(*) PLANE_ANGLE_UNIT() SI_UNIT($,.RADIAN.) );
#1086 = ( NAMED_UNIT(*) SI_UNIT($,.STERADIAN.) SOLID_ANGLE_UNIT() );
#1087 = UNCERTAINTY_MEASURE_WITH_UNIT(LENGTH_MEASURE(1.E-07),#1084,
  'distance_accuracy_value','confusion accuracy');
#1088 = CONTEXT_DEPENDENT_SHAPE_REPRESENTATION(#1089,#1091);
#1089 = ( REPRESENTATION_RELATIONSHIP('','',#932,#10) 
REPRESENTATION_RELATIONSHIP_WITH_TRANSFORMATION(#1090) 
SHAPE_REPRESENTATION_RELATIONSHIP() );
#1090 = ITEM_DEFINED_TRANSFORMATION('','',#11,#19);
#1091 = PRODUCT_DEFINITION_SHAPE('Placement','Placement of an item',
  #1092);
#1092 = NEXT_ASSEMBLY_USAGE_OCCURRENCE('3','=>[0:1:1:4]','',#5,#927,$);
#1093 = PRODUCT_RELATED_PRODUCT_CATEGORY('part',$,(#929));
#1094 = MECHANICAL_DESIGN_GEOMETRIC_PRESENTATION_REPRESENTATION('',(
    #1095,#1103,#1110,#1117,#1124,#1131,#1138,#1145,#1152,#1159,#1166,
    #1174,#1181,#1188,#1195,#1202,#1209,#1216,#1223,#1230,#1237,#1244,
    #1251,#1258,#1265,#1272,#1279,#1286),#914);
#1095 = STYLED_ITEM('color',(#1096),#62);
#1096 = PRESENTATION_STYLE_ASSIGNMENT((#1097));
#1097 = SURFACE_STYLE_USAGE(.BOTH.,#1098);
#1098 = SURFACE_SIDE_STYLE('',(#1099));
#1099 = SURFACE_STYLE_FILL_AREA(#1100);
#1100 = FILL_AREA_STYLE('',(#1101));
#1101 = FILL_AREA_STYLE_COLOUR('',#1102);
#1102 = COLOUR_RGB('',0.823999987314,0.819999987296,0.781000009244);
#1103 = STYLED_ITEM('color',(#1104),#138);
#1104 = PRESENTATION_STYLE_ASSIGNMENT((#1105));
#1105 = SURFACE_STYLE_USAGE(.BOTH.,#1106);
#1106 = SURFACE_SIDE_STYLE('',(#1107));
#1107 = SURFACE_STYLE_FILL_AREA(#1108);
#1108 = FILL_AREA_STYLE('',(#1109));
#1109 = FILL_AREA_STYLE_COLOUR('',#1102);
#1110 = STYLED_ITEM('color',(#1111),#169);
#1111 = PRESENTATION_STYLE_ASSIGNMENT((#1112));
#1112 = SURFACE_STYLE_USAGE(.BOTH.,#1113);
#1113 = SURFACE_SIDE_STYLE('',(#1114));
#1114 = SURFACE_STYLE_FILL_AREA(#1115);
#1115 = FILL_AREA_STYLE('',(#1116));
#1116 = FILL_AREA_STYLE_COLOUR('',#1102);
#1117 = STYLED_ITEM('color',(#1118),#194);
#1118 = PRESENTATION_STYLE_ASSIGNMENT((#1119));
#1119 = SURFACE_STYLE_USAGE(.BOTH.,#1120);
#1120 = SURFACE_SIDE_STYLE('',(#1121));
#1121 = SURFACE_STYLE_FILL_AREA(#1122);
#1122 = FILL_AREA_STYLE('',(#1123));
#1123 = FILL_AREA_STYLE_COLOUR('',#1102);
#1124 = STYLED_ITEM('color',(#1125),#219);
#1125 = PRESENTATION_STYLE_ASSIGNMENT((#1126));
#1126 = SURFACE_STYLE_USAGE(.BOTH.,#1127);
#1127 = SURFACE_SIDE_STYLE('',(#1128));
#1128 = SURFACE_STYLE_FILL_AREA(#1129);
#1129 = FILL_AREA_STYLE('',(#1130));
#1130 = FILL_AREA_STYLE_COLOUR('',#1102);
#1131 = STYLED_ITEM('color',(#1132),#243);
#1132 = PRESENTATION_STYLE_ASSIGNMENT((#1133));
#1133 = SURFACE_STYLE_USAGE(.BOTH.,#1134);
#1134 = SURFACE_SIDE_STYLE('',(#1135));
#1135 = SURFACE_STYLE_FILL_AREA(#1136);
#1136 = FILL_AREA_STYLE('',(#1137));
#1137 = FILL_AREA_STYLE_COLOUR('',#1102);
#1138 = STYLED_ITEM('color',(#1139),#267);
#1139 = PRESENTATION_STYLE_ASSIGNMENT((#1140));
#1140 = SURFACE_STYLE_USAGE(.BOTH.,#1141);
#1141 = SURFACE_SIDE_STYLE('',(#1142));
#1142 = SURFACE_STYLE_FILL_AREA(#1143);
#1143 = FILL_AREA_STYLE('',(#1144));
#1144 = FILL_AREA_STYLE_COLOUR('',#1102);
#1145 = STYLED_ITEM('color',(#1146),#292);
#1146 = PRESENTATION_STYLE_ASSIGNMENT((#1147));
#1147 = SURFACE_STYLE_USAGE(.BOTH.,#1148);
#1148 = SURFACE_SIDE_STYLE('',(#1149));
#1149 = SURFACE_STYLE_FILL_AREA(#1150);
#1150 = FILL_AREA_STYLE('',(#1151));
#1151 = FILL_AREA_STYLE_COLOUR('',#1102);
#1152 = STYLED_ITEM('color',(#1153),#317);
#1153 = PRESENTATION_STYLE_ASSIGNMENT((#1154));
#1154 = SURFACE_STYLE_USAGE(.BOTH.,#1155);
#1155 = SURFACE_SIDE_STYLE('',(#1156));
#1156 = SURFACE_STYLE_FILL_AREA(#1157);
#1157 = FILL_AREA_STYLE('',(#1158));
#1158 = FILL_AREA_STYLE_COLOUR('',#1102);
#1159 = STYLED_ITEM('color',(#1160),#334);
#1160 = PRESENTATION_STYLE_ASSIGNMENT((#1161));
#1161 = SURFACE_STYLE_USAGE(.BOTH.,#1162);
#1162 = SURFACE_SIDE_STYLE('',(#1163));
#1163 = SURFACE_STYLE_FILL_AREA(#1164);
#1164 = FILL_AREA_STYLE('',(#1165));
#1165 = FILL_AREA_STYLE_COLOUR('',#1102);
#1166 = STYLED_ITEM('color',(#1167),#420);
#1167 = PRESENTATION_STYLE_ASSIGNMENT((#1168));
#1168 = SURFACE_STYLE_USAGE(.BOTH.,#1169);
#1169 = SURFACE_SIDE_STYLE('',(#1170));
#1170 = SURFACE_STYLE_FILL_AREA(#1171);
#1171 = FILL_AREA_STYLE('',(#1172));
#1172 = FILL_AREA_STYLE_COLOUR('',#1173);
#1173 = COLOUR_RGB('',0.379000005575,0.270000008848,0.214999999939);
#1174 = STYLED_ITEM('color',(#1175),#452);
#1175 = PRESENTATION_STYLE_ASSIGNMENT((#1176));
#1176 = SURFACE_STYLE_USAGE(.BOTH.,#1177);
#1177 = SURFACE_SIDE_STYLE('',(#1178));
#1178 = SURFACE_STYLE_FILL_AREA(#1179);
#1179 = FILL_AREA_STYLE('',(#1180));
#1180 = FILL_AREA_STYLE_COLOUR('',#1173);
#1181 = STYLED_ITEM('color',(#1182),#476);
#1182 = PRESENTATION_STYLE_ASSIGNMENT((#1183));
#1183 = SURFACE_STYLE_USAGE(.BOTH.,#1184);
#1184 = SURFACE_SIDE_STYLE('',(#1185));
#1185 = SURFACE_STYLE_FILL_AREA(#1186);
#1186 = FILL_AREA_STYLE('',(#1187));
#1187 = FILL_AREA_STYLE_COLOUR('',#1173);
#1188 = STYLED_ITEM('color',(#1189),#501);
#1189 = PRESENTATION_STYLE_ASSIGNMENT((#1190));
#1190 = SURFACE_STYLE_USAGE(.BOTH.,#1191);
#1191 = SURFACE_SIDE_STYLE('',(#1192));
#1192 = SURFACE_STYLE_FILL_AREA(#1193);
#1193 = FILL_AREA_STYLE('',(#1194));
#1194 = FILL_AREA_STYLE_COLOUR('',#1173);
#1195 = STYLED_ITEM('color',(#1196),#525);
#1196 = PRESENTATION_STYLE_ASSIGNMENT((#1197));
#1197 = SURFACE_STYLE_USAGE(.BOTH.,#1198);
#1198 = SURFACE_SIDE_STYLE('',(#1199));
#1199 = SURFACE_STYLE_FILL_AREA(#1200);
#1200 = FILL_AREA_STYLE('',(#1201));
#1201 = FILL_AREA_STYLE_COLOUR('',#1173);
#1202 = STYLED_ITEM('color',(#1203),#550);
#1203 = PRESENTATION_STYLE_ASSIGNMENT((#1204));
#1204 = SURFACE_STYLE_USAGE(.BOTH.,#1205);
#1205 = SURFACE_SIDE_STYLE('',(#1206));
#1206 = SURFACE_STYLE_FILL_AREA(#1207);
#1207 = FILL_AREA_STYLE('',(#1208));
#1208 = FILL_AREA_STYLE_COLOUR('',#1173);
#1209 = STYLED_ITEM('color',(#1210),#574);
#1210 = PRESENTATION_STYLE_ASSIGNMENT((#1211));
#1211 = SURFACE_STYLE_USAGE(.BOTH.,#1212);
#1212 = SURFACE_SIDE_STYLE('',(#1213));
#1213 = SURFACE_STYLE_FILL_AREA(#1214);
#1214 = FILL_AREA_STYLE('',(#1215));
#1215 = FILL_AREA_STYLE_COLOUR('',#1173);
#1216 = STYLED_ITEM('color',(#1217),#599);
#1217 = PRESENTATION_STYLE_ASSIGNMENT((#1218));
#1218 = SURFACE_STYLE_USAGE(.BOTH.,#1219);
#1219 = SURFACE_SIDE_STYLE('',(#1220));
#1220 = SURFACE_STYLE_FILL_AREA(#1221);
#1221 = FILL_AREA_STYLE('',(#1222));
#1222 = FILL_AREA_STYLE_COLOUR('',#1173);
#1223 = STYLED_ITEM('color',(#1224),#616);
#1224 = PRESENTATION_STYLE_ASSIGNMENT((#1225));
#1225 = SURFACE_STYLE_USAGE(.BOTH.,#1226);
#1226 = SURFACE_SIDE_STYLE('',(#1227));
#1227 = SURFACE_STYLE_FILL_AREA(#1228);
#1228 = FILL_AREA_STYLE('',(#1229));
#1229 = FILL_AREA_STYLE_COLOUR('',#1102);
#1230 = STYLED_ITEM('color',(#1231),#702);
#1231 = PRESENTATION_STYLE_ASSIGNMENT((#1232));
#1232 = SURFACE_STYLE_USAGE(.BOTH.,#1233);
#1233 = SURFACE_SIDE_STYLE('',(#1234));
#1234 = SURFACE_STYLE_FILL_AREA(#1235);
#1235 = FILL_AREA_STYLE('',(#1236));
#1236 = FILL_AREA_STYLE_COLOUR('',#1102);
#1237 = STYLED_ITEM('color',(#1238),#733);
#1238 = PRESENTATION_STYLE_ASSIGNMENT((#1239));
#1239 = SURFACE_STYLE_USAGE(.BOTH.,#1240);
#1240 = SURFACE_SIDE_STYLE('',(#1241));
#1241 = SURFACE_STYLE_FILL_AREA(#1242);
#1242 = FILL_AREA_STYLE('',(#1243));
#1243 = FILL_AREA_STYLE_COLOUR('',#1102);
#1244 = STYLED_ITEM('color',(#1245),#758);
#1245 = PRESENTATION_STYLE_ASSIGNMENT((#1246));
#1246 = SURFACE_STYLE_USAGE(.BOTH.,#1247);
#1247 = SURFACE_SIDE_STYLE('',(#1248));
#1248 = SURFACE_STYLE_FILL_AREA(#1249);
#1249 = FILL_AREA_STYLE('',(#1250));
#1250 = FILL_AREA_STYLE_COLOUR('',#1102);
#1251 = STYLED_ITEM('color',(#1252),#783);
#1252 = PRESENTATION_STYLE_ASSIGNMENT((#1253));
#1253 = SURFACE_STYLE_USAGE(.BOTH.,#1254);
#1254 = SURFACE_SIDE_STYLE('',(#1255));
#1255 = SURFACE_STYLE_FILL_AREA(#1256);
#1256 = FILL_AREA_STYLE('',(#1257));
#1257 = FILL_AREA_STYLE_COLOUR('',#1102);
#1258 = STYLED_ITEM('color',(#1259),#807);
#1259 = PRESENTATION_STYLE_ASSIGNMENT((#1260));
#1260 = SURFACE_STYLE_USAGE(.BOTH.,#1261);
#1261 = SURFACE_SIDE_STYLE('',(#1262));
#1262 = SURFACE_STYLE_FILL_AREA(#1263);
#1263 = FILL_AREA_STYLE('',(#1264));
#1264 = FILL_AREA_STYLE_COLOUR('',#1102);
#1265 = STYLED_ITEM('color',(#1266),#831);
#1266 = PRESENTATION_STYLE_ASSIGNMENT((#1267));
#1267 = SURFACE_STYLE_USAGE(.BOTH.,#1268);
#1268 = SURFACE_SIDE_STYLE('',(#1269));
#1269 = SURFACE_STYLE_FILL_AREA(#1270);
#1270 = FILL_AREA_STYLE('',(#1271));
#1271 = FILL_AREA_STYLE_COLOUR('',#1102);
#1272 = STYLED_ITEM('color',(#1273),#856);
#1273 = PRESENTATION_STYLE_ASSIGNMENT((#1274));
#1274 = SURFACE_STYLE_USAGE(.BOTH.,#1275);
#1275 = SURFACE_SIDE_STYLE('',(#1276));
#1276 = SURFACE_STYLE_FILL_AREA(#1277);
#1277 = FILL_AREA_STYLE('',(#1278));
#1278 = FILL_AREA_STYLE_COLOUR('',#1102);
#1279 = STYLED_ITEM('color',(#1280),#881);
#1280 = PRESENTATION_STYLE_ASSIGNMENT((#1281));
#1281 = SURFACE_STYLE_USAGE(.BOTH.,#1282);
#1282 = SURFACE_SIDE_STYLE('',(#1283));
#1283 = SURFACE_STYLE_FILL_AREA(#1284);
#1284 = FILL_AREA_STYLE('',(#1285));
#1285 = FILL_AREA_STYLE_COLOUR('',#1102);
#1286 = STYLED_ITEM('color',(#1287),#898);
#1287 = PRESENTATION_STYLE_ASSIGNMENT((#1288));
#1288 = SURFACE_STYLE_USAGE(.BOTH.,#1289);
#1289 = SURFACE_SIDE_STYLE('',(#1290));
#1290 = SURFACE_STYLE_FILL_AREA(#1291);
#1291 = FILL_AREA_STYLE('',(#1292));
#1292 = FILL_AREA_STYLE_COLOUR('',#1102);
#1293 = MECHANICAL_DESIGN_GEOMETRIC_PRESENTATION_REPRESENTATION('',(
    #1294),#1083);
#1294 = STYLED_ITEM('color',(#1295),#933);
#1295 = PRESENTATION_STYLE_ASSIGNMENT((#1296));
#1296 = SURFACE_STYLE_USAGE(.BOTH.,#1297);
#1297 = SURFACE_SIDE_STYLE('',(#1298));
#1298 = SURFACE_STYLE_FILL_AREA(#1299);
#1299 = FILL_AREA_STYLE('',(#1300));
#1300 = FILL_AREA_STYLE_COLOUR('',#1301);
#1301 = COLOUR_RGB('',0.313304153717,0.484529207832,0.410020903123);
ENDSEC;
END-ISO-10303-21;
