ISO-10303-21;
HEADER;
FILE_DESCRIPTION(('KiCad electronic assembly'),'2;1');
FILE_NAME('model.step','1970-01-01T00:00:00',('Pcbnew'),('Kicad'),
  'Open CASCADE STEP processor 7.9','KiCad to STEP converter','Unknown'
  );
FILE_SCHEMA(('AUTOMOTIVE_DESIGN { 1 0 10303 214 1 1 1 1 }'));
ENDSEC;
DATA;
#1 = APPLICATION_PROTOCOL_DEFINITION('international standard',
  'automotive_design',2000,#2);
#2 = APPLICATION_CONTEXT(
  'core data for automotive mechanical design processes');
#3 = SHAPE_DEFINITION_REPRESENTATION(#4,#10);
#4 = PRODUCT_DEFINITION_SHAPE('','',#5);
#5 = PRODUCT_DEFINITION('design','',#6,#9);
#6 = PRODUCT_DEFINITION_FORMATION('','',#7);
#7 = PRODUCT('model 1','model 1','',(#8));
#8 = PRODUCT_CONTEXT('',#2,'mechanical');
#9 = PRODUCT_DEFINITION_CONTEXT('part definition',#2,'design');
#10 = SHAPE_REPRESENTATION('',(#11,#15,#19),#23);
#11 = AXIS2_PLACEMENT_3D('',#12,#13,#14);
#12 = CARTESIAN_POINT('',(0.,0.,0.));
#13 = DIRECTION('',(0.,0.,1.));
#14 = DIRECTION('',(1.,0.,-0.));
#15 = AXIS2_PLACEMENT_3D('',#16,#17,#18);
#16 = CARTESIAN_POINT('',(0.,0.,0.));
#17 = DIRECTION('',(0.,0.,1.));
#18 = DIRECTION('',(1.,0.,-0.));
#19 = AXIS2_PLACEMENT_3D('',#20,#21,#22);
#20 = CARTESIAN_POINT('',(0.,0.,0.));
#21 = DIRECTION('',(0.,0.,1.));
#22 = DIRECTION('',(1.,0.,-0.));
#23 = ( GEOMETRIC_REPRESENTATION_CONTEXT(3) 
GLOBAL_UNCERTAINTY_ASSIGNED_CONTEXT((#27)) GLOBAL_UNIT_ASSIGNED_CONTEXT(
(#24,#25,#26)) REPRESENTATION_CONTEXT('Context #1',
  '3D Context with UNIT and UNCERTAINTY') );
#24 = ( LENGTH_UNIT() NAMED_UNIT(*) SI_UNIT(.MILLI.,.METRE.) );
#25 = ( NAMED_UNIT(*) PLANE_ANGLE_UNIT() SI_UNIT($,.RADIAN.) );
#26 = ( NAMED_UNIT(*) SI_UNIT($,.STERADIAN.) SOLID_ANGLE_UNIT() );
#27 = UNCERTAINTY_MEASURE_WITH_UNIT(LENGTH_MEASURE(1.E-07),#24,
  'distance_accuracy_value','confusion accuracy');
#28 = PRODUCT_RELATED_PRODUCT_CATEGORY('part',$,(#7));
#29 = SHAPE_DEFINITION_REPRESENTATION(#30,#36);
#30 = PRODUCT_DEFINITION_SHAPE('','',#31);
#31 = PRODUCT_DEFINITION('design','',#32,#35);
#32 = PRODUCT_DEFINITION_FORMATION('','',#33);
#33 = PRODUCT(
'electronic_fuse_5_2_x_20_mm_glass_plugin_disposable_xucheng_elec_5f_
0010220000r1_render_pad',
'electronic_fuse_5_2_x_20_mm_glass_plugin_disposable_xucheng_elec_5f_
0010220000r1_render_pad','',(#34));
#34 = PRODUCT_CONTEXT('',#2,'mechanical');
#35 = PRODUCT_DEFINITION_CONTEXT('part definition',#2,'design');
#36 = SHAPE_REPRESENTATION('',(#11,#37,#129,#221,#313,#405,#497,#589,
    #681,#773,#865,#957,#1049),#1141);
#37 = MANIFOLD_SOLID_BREP('',#38);
#38 = CLOSED_SHELL('',(#39,#72,#92,#112));
#39 = ADVANCED_FACE('',(#40),#67,.T.);
#40 = FACE_BOUND('',#41,.F.);
#41 = EDGE_LOOP('',(#42,#52,#59,#60));
#42 = ORIENTED_EDGE('',*,*,#43,.T.);
#43 = EDGE_CURVE('',#44,#46,#48,.T.);
#44 = VERTEX_POINT('',#45);
#45 = CARTESIAN_POINT('',(1.149999,0.,1.51));
#46 = VERTEX_POINT('',#47);
#47 = CARTESIAN_POINT('',(1.149999,0.,1.55));
#48 = LINE('',#49,#50);
#49 = CARTESIAN_POINT('',(1.149999,0.,1.51));
#50 = VECTOR('',#51,1.);
#51 = DIRECTION('',(0.,0.,1.));
#52 = ORIENTED_EDGE('',*,*,#53,.T.);
#53 = EDGE_CURVE('',#46,#46,#54,.T.);
#54 = CIRCLE('',#55,1.149999);
#55 = AXIS2_PLACEMENT_3D('',#56,#57,#58);
#56 = CARTESIAN_POINT('',(0.,0.,1.55));
#57 = DIRECTION('',(0.,0.,1.));
#58 = DIRECTION('',(1.,0.,-0.));
#59 = ORIENTED_EDGE('',*,*,#43,.F.);
#60 = ORIENTED_EDGE('',*,*,#61,.F.);
#61 = EDGE_CURVE('',#44,#44,#62,.T.);
#62 = CIRCLE('',#63,1.149999);
#63 = AXIS2_PLACEMENT_3D('',#64,#65,#66);
#64 = CARTESIAN_POINT('',(0.,-0.,1.51));
#65 = DIRECTION('',(0.,0.,1.));
#66 = DIRECTION('',(1.,0.,-0.));
#67 = CYLINDRICAL_SURFACE('',#68,1.149999);
#68 = AXIS2_PLACEMENT_3D('',#69,#70,#71);
#69 = CARTESIAN_POINT('',(0.,-0.,1.51));
#70 = DIRECTION('',(-0.,-0.,-1.));
#71 = DIRECTION('',(1.,0.,-0.));
#72 = ADVANCED_FACE('',(#73,#76),#87,.F.);
#73 = FACE_BOUND('',#74,.F.);
#74 = EDGE_LOOP('',(#75));
#75 = ORIENTED_EDGE('',*,*,#61,.T.);
#76 = FACE_BOUND('',#77,.F.);
#77 = EDGE_LOOP('',(#78));
#78 = ORIENTED_EDGE('',*,*,#79,.T.);
#79 = EDGE_CURVE('',#80,#80,#82,.T.);
#80 = VERTEX_POINT('',#81);
#81 = CARTESIAN_POINT('',(-1.232595164408E-32,-0.625,1.51));
#82 = CIRCLE('',#83,0.625);
#83 = AXIS2_PLACEMENT_3D('',#84,#85,#86);
#84 = CARTESIAN_POINT('',(-5.551115123126E-17,1.110223024625E-16,1.51));
#85 = DIRECTION('',(-0.,0.,-1.));
#86 = DIRECTION('',(8.881784197001E-17,-1.,-0.));
#87 = PLANE('',#88);
#88 = AXIS2_PLACEMENT_3D('',#89,#90,#91);
#89 = CARTESIAN_POINT('',(0.,0.,1.51));
#90 = DIRECTION('',(0.,0.,1.));
#91 = DIRECTION('',(1.,0.,-0.));
#92 = ADVANCED_FACE('',(#93,#96),#107,.T.);
#93 = FACE_BOUND('',#94,.T.);
#94 = EDGE_LOOP('',(#95));
#95 = ORIENTED_EDGE('',*,*,#53,.T.);
#96 = FACE_BOUND('',#97,.T.);
#97 = EDGE_LOOP('',(#98));
#98 = ORIENTED_EDGE('',*,*,#99,.T.);
#99 = EDGE_CURVE('',#100,#100,#102,.T.);
#100 = VERTEX_POINT('',#101);
#101 = CARTESIAN_POINT('',(-1.232595164408E-32,-0.625,1.55));
#102 = CIRCLE('',#103,0.625);
#103 = AXIS2_PLACEMENT_3D('',#104,#105,#106);
#104 = CARTESIAN_POINT('',(-5.551115123126E-17,1.110223024625E-16,1.55)
  );
#105 = DIRECTION('',(-0.,0.,-1.));
#106 = DIRECTION('',(8.881784197001E-17,-1.,-0.));
#107 = PLANE('',#108);
#108 = AXIS2_PLACEMENT_3D('',#109,#110,#111);
#109 = CARTESIAN_POINT('',(0.,0.,1.55));
#110 = DIRECTION('',(0.,0.,1.));
#111 = DIRECTION('',(1.,0.,-0.));
#112 = ADVANCED_FACE('',(#113),#124,.F.);
#113 = FACE_BOUND('',#114,.T.);
#114 = EDGE_LOOP('',(#115,#116,#122,#123));
#115 = ORIENTED_EDGE('',*,*,#79,.T.);
#116 = ORIENTED_EDGE('',*,*,#117,.T.);
#117 = EDGE_CURVE('',#80,#100,#118,.T.);
#118 = LINE('',#119,#120);
#119 = CARTESIAN_POINT('',(-1.232595164408E-32,-0.625,-4.6E-02));
#120 = VECTOR('',#121,1.);
#121 = DIRECTION('',(0.,0.,1.));
#122 = ORIENTED_EDGE('',*,*,#99,.F.);
#123 = ORIENTED_EDGE('',*,*,#117,.F.);
#124 = CYLINDRICAL_SURFACE('',#125,0.625);
#125 = AXIS2_PLACEMENT_3D('',#126,#127,#128);
#126 = CARTESIAN_POINT('',(-5.551115123126E-17,1.110223024625E-16,
    -4.6E-02));
#127 = DIRECTION('',(-0.,0.,-1.));
#128 = DIRECTION('',(8.881784197001E-17,-1.,-0.));
#129 = MANIFOLD_SOLID_BREP('',#130);
#130 = CLOSED_SHELL('',(#131,#164,#184,#204));
#131 = ADVANCED_FACE('',(#132),#159,.T.);
#132 = FACE_BOUND('',#133,.T.);
#133 = EDGE_LOOP('',(#134,#144,#151,#152));
#134 = ORIENTED_EDGE('',*,*,#135,.T.);
#135 = EDGE_CURVE('',#136,#138,#140,.T.);
#136 = VERTEX_POINT('',#137);
#137 = CARTESIAN_POINT('',(1.149999,0.,0.));
#138 = VERTEX_POINT('',#139);
#139 = CARTESIAN_POINT('',(1.149999,0.,-4.E-02));
#140 = LINE('',#141,#142);
#141 = CARTESIAN_POINT('',(1.149999,0.,0.));
#142 = VECTOR('',#143,1.);
#143 = DIRECTION('',(0.,0.,-1.));
#144 = ORIENTED_EDGE('',*,*,#145,.T.);
#145 = EDGE_CURVE('',#138,#138,#146,.T.);
#146 = CIRCLE('',#147,1.149999);
#147 = AXIS2_PLACEMENT_3D('',#148,#149,#150);
#148 = CARTESIAN_POINT('',(0.,0.,-4.E-02));
#149 = DIRECTION('',(0.,0.,1.));
#150 = DIRECTION('',(1.,0.,-0.));
#151 = ORIENTED_EDGE('',*,*,#135,.F.);
#152 = ORIENTED_EDGE('',*,*,#153,.F.);
#153 = EDGE_CURVE('',#136,#136,#154,.T.);
#154 = CIRCLE('',#155,1.149999);
#155 = AXIS2_PLACEMENT_3D('',#156,#157,#158);
#156 = CARTESIAN_POINT('',(0.,-0.,0.));
#157 = DIRECTION('',(0.,0.,1.));
#158 = DIRECTION('',(1.,0.,-0.));
#159 = CYLINDRICAL_SURFACE('',#160,1.149999);
#160 = AXIS2_PLACEMENT_3D('',#161,#162,#163);
#161 = CARTESIAN_POINT('',(0.,-0.,0.));
#162 = DIRECTION('',(0.,0.,1.));
#163 = DIRECTION('',(1.,0.,-0.));
#164 = ADVANCED_FACE('',(#165,#168),#179,.F.);
#165 = FACE_BOUND('',#166,.F.);
#166 = EDGE_LOOP('',(#167));
#167 = ORIENTED_EDGE('',*,*,#153,.F.);
#168 = FACE_BOUND('',#169,.F.);
#169 = EDGE_LOOP('',(#170));
#170 = ORIENTED_EDGE('',*,*,#171,.F.);
#171 = EDGE_CURVE('',#172,#172,#174,.T.);
#172 = VERTEX_POINT('',#173);
#173 = CARTESIAN_POINT('',(-1.232595164408E-32,-0.625,0.));
#174 = CIRCLE('',#175,0.625);
#175 = AXIS2_PLACEMENT_3D('',#176,#177,#178);
#176 = CARTESIAN_POINT('',(-5.551115123126E-17,1.110223024625E-16,0.));
#177 = DIRECTION('',(-0.,0.,-1.));
#178 = DIRECTION('',(8.881784197001E-17,-1.,-0.));
#179 = PLANE('',#180);
#180 = AXIS2_PLACEMENT_3D('',#181,#182,#183);
#181 = CARTESIAN_POINT('',(0.,0.,0.));
#182 = DIRECTION('',(-0.,-0.,-1.));
#183 = DIRECTION('',(-1.,0.,0.));
#184 = ADVANCED_FACE('',(#185,#188),#199,.T.);
#185 = FACE_BOUND('',#186,.T.);
#186 = EDGE_LOOP('',(#187));
#187 = ORIENTED_EDGE('',*,*,#145,.F.);
#188 = FACE_BOUND('',#189,.T.);
#189 = EDGE_LOOP('',(#190));
#190 = ORIENTED_EDGE('',*,*,#191,.F.);
#191 = EDGE_CURVE('',#192,#192,#194,.T.);
#192 = VERTEX_POINT('',#193);
#193 = CARTESIAN_POINT('',(-1.232595164408E-32,-0.625,-4.E-02));
#194 = CIRCLE('',#195,0.625);
#195 = AXIS2_PLACEMENT_3D('',#196,#197,#198);
#196 = CARTESIAN_POINT('',(-5.551115123126E-17,1.110223024625E-16,
    -4.E-02));
#197 = DIRECTION('',(-0.,0.,-1.));
#198 = DIRECTION('',(8.881784197001E-17,-1.,-0.));
#199 = PLANE('',#200);
#200 = AXIS2_PLACEMENT_3D('',#201,#202,#203);
#201 = CARTESIAN_POINT('',(0.,0.,-4.E-02));
#202 = DIRECTION('',(-0.,-0.,-1.));
#203 = DIRECTION('',(-1.,0.,0.));
#204 = ADVANCED_FACE('',(#205),#216,.F.);
#205 = FACE_BOUND('',#206,.T.);
#206 = EDGE_LOOP('',(#207,#208,#214,#215));
#207 = ORIENTED_EDGE('',*,*,#191,.T.);
#208 = ORIENTED_EDGE('',*,*,#209,.T.);
#209 = EDGE_CURVE('',#192,#172,#210,.T.);
#210 = LINE('',#211,#212);
#211 = CARTESIAN_POINT('',(-1.232595164408E-32,-0.625,-4.6E-02));
#212 = VECTOR('',#213,1.);
#213 = DIRECTION('',(0.,0.,1.));
#214 = ORIENTED_EDGE('',*,*,#171,.F.);
#215 = ORIENTED_EDGE('',*,*,#209,.F.);
#216 = CYLINDRICAL_SURFACE('',#217,0.625);
#217 = AXIS2_PLACEMENT_3D('',#218,#219,#220);
#218 = CARTESIAN_POINT('',(-5.551115123126E-17,1.110223024625E-16,
    -4.6E-02));
#219 = DIRECTION('',(-0.,0.,-1.));
#220 = DIRECTION('',(8.881784197001E-17,-1.,-0.));
#221 = MANIFOLD_SOLID_BREP('',#222);
#222 = CLOSED_SHELL('',(#223,#256,#276,#296));
#223 = ADVANCED_FACE('',(#224),#251,.T.);
#224 = FACE_BOUND('',#225,.F.);
#225 = EDGE_LOOP('',(#226,#236,#243,#244));
#226 = ORIENTED_EDGE('',*,*,#227,.T.);
#227 = EDGE_CURVE('',#228,#230,#232,.T.);
#228 = VERTEX_POINT('',#229);
#229 = CARTESIAN_POINT('',(-1.232595164408E-32,-0.65,-4.E-02));
#230 = VERTEX_POINT('',#231);
#231 = CARTESIAN_POINT('',(-1.232595164408E-32,-0.65,1.55));
#232 = LINE('',#233,#234);
#233 = CARTESIAN_POINT('',(-1.232595164408E-32,-0.65,-4.E-02));
#234 = VECTOR('',#235,1.);
#235 = DIRECTION('',(0.,0.,1.));
#236 = ORIENTED_EDGE('',*,*,#237,.T.);
#237 = EDGE_CURVE('',#230,#230,#238,.T.);
#238 = CIRCLE('',#239,0.65);
#239 = AXIS2_PLACEMENT_3D('',#240,#241,#242);
#240 = CARTESIAN_POINT('',(-5.551115123126E-17,1.110223024625E-16,1.55)
  );
#241 = DIRECTION('',(0.,-0.,1.));
#242 = DIRECTION('',(8.540177112501E-17,-1.,-0.));
#243 = ORIENTED_EDGE('',*,*,#227,.F.);
#244 = ORIENTED_EDGE('',*,*,#245,.F.);
#245 = EDGE_CURVE('',#228,#228,#246,.T.);
#246 = CIRCLE('',#247,0.65);
#247 = AXIS2_PLACEMENT_3D('',#248,#249,#250);
#248 = CARTESIAN_POINT('',(-5.551115123126E-17,1.110223024625E-16,
    -4.E-02));
#249 = DIRECTION('',(0.,-0.,1.));
#250 = DIRECTION('',(8.540177112501E-17,-1.,-0.));
#251 = CYLINDRICAL_SURFACE('',#252,0.65);
#252 = AXIS2_PLACEMENT_3D('',#253,#254,#255);
#253 = CARTESIAN_POINT('',(-5.551115123126E-17,1.110223024625E-16,
    -4.E-02));
#254 = DIRECTION('',(-0.,0.,-1.));
#255 = DIRECTION('',(8.540177112501E-17,-1.,-0.));
#256 = ADVANCED_FACE('',(#257,#260),#271,.F.);
#257 = FACE_BOUND('',#258,.F.);
#258 = EDGE_LOOP('',(#259));
#259 = ORIENTED_EDGE('',*,*,#245,.T.);
#260 = FACE_BOUND('',#261,.F.);
#261 = EDGE_LOOP('',(#262));
#262 = ORIENTED_EDGE('',*,*,#263,.T.);
#263 = EDGE_CURVE('',#264,#264,#266,.T.);
#264 = VERTEX_POINT('',#265);
#265 = CARTESIAN_POINT('',(-1.232595164408E-32,-0.625,-4.E-02));
#266 = CIRCLE('',#267,0.625);
#267 = AXIS2_PLACEMENT_3D('',#268,#269,#270);
#268 = CARTESIAN_POINT('',(-5.551115123126E-17,1.110223024625E-16,
    -4.E-02));
#269 = DIRECTION('',(-0.,0.,-1.));
#270 = DIRECTION('',(8.881784197001E-17,-1.,-0.));
#271 = PLANE('',#272);
#272 = AXIS2_PLACEMENT_3D('',#273,#274,#275);
#273 = CARTESIAN_POINT('',(0.,-0.65,-4.E-02));
#274 = DIRECTION('',(0.,0.,1.));
#275 = DIRECTION('',(1.,0.,-0.));
#276 = ADVANCED_FACE('',(#277,#280),#291,.T.);
#277 = FACE_BOUND('',#278,.T.);
#278 = EDGE_LOOP('',(#279));
#279 = ORIENTED_EDGE('',*,*,#237,.T.);
#280 = FACE_BOUND('',#281,.T.);
#281 = EDGE_LOOP('',(#282));
#282 = ORIENTED_EDGE('',*,*,#283,.T.);
#283 = EDGE_CURVE('',#284,#284,#286,.T.);
#284 = VERTEX_POINT('',#285);
#285 = CARTESIAN_POINT('',(-1.232595164408E-32,-0.625,1.55));
#286 = CIRCLE('',#287,0.625);
#287 = AXIS2_PLACEMENT_3D('',#288,#289,#290);
#288 = CARTESIAN_POINT('',(-5.551115123126E-17,1.110223024625E-16,1.55)
  );
#289 = DIRECTION('',(-0.,0.,-1.));
#290 = DIRECTION('',(8.881784197001E-17,-1.,-0.));
#291 = PLANE('',#292);
#292 = AXIS2_PLACEMENT_3D('',#293,#294,#295);
#293 = CARTESIAN_POINT('',(0.,-0.65,1.55));
#294 = DIRECTION('',(0.,0.,1.));
#295 = DIRECTION('',(1.,0.,-0.));
#296 = ADVANCED_FACE('',(#297),#308,.F.);
#297 = FACE_BOUND('',#298,.T.);
#298 = EDGE_LOOP('',(#299,#300,#306,#307));
#299 = ORIENTED_EDGE('',*,*,#263,.T.);
#300 = ORIENTED_EDGE('',*,*,#301,.T.);
#301 = EDGE_CURVE('',#264,#284,#302,.T.);
#302 = LINE('',#303,#304);
#303 = CARTESIAN_POINT('',(-1.232595164408E-32,-0.625,-4.6E-02));
#304 = VECTOR('',#305,1.);
#305 = DIRECTION('',(0.,0.,1.));
#306 = ORIENTED_EDGE('',*,*,#283,.F.);
#307 = ORIENTED_EDGE('',*,*,#301,.F.);
#308 = CYLINDRICAL_SURFACE('',#309,0.625);
#309 = AXIS2_PLACEMENT_3D('',#310,#311,#312);
#310 = CARTESIAN_POINT('',(-5.551115123126E-17,1.110223024625E-16,
    -4.6E-02));
#311 = DIRECTION('',(-0.,0.,-1.));
#312 = DIRECTION('',(8.881784197001E-17,-1.,-0.));
#313 = MANIFOLD_SOLID_BREP('',#314);
#314 = CLOSED_SHELL('',(#315,#348,#368,#388));
#315 = ADVANCED_FACE('',(#316),#343,.T.);
#316 = FACE_BOUND('',#317,.F.);
#317 = EDGE_LOOP('',(#318,#328,#335,#336));
#318 = ORIENTED_EDGE('',*,*,#319,.T.);
#319 = EDGE_CURVE('',#320,#322,#324,.T.);
#320 = VERTEX_POINT('',#321);
#321 = CARTESIAN_POINT('',(5.749999,0.,1.51));
#322 = VERTEX_POINT('',#323);
#323 = CARTESIAN_POINT('',(5.749999,0.,1.55));
#324 = LINE('',#325,#326);
#325 = CARTESIAN_POINT('',(5.749999,0.,1.51));
#326 = VECTOR('',#327,1.);
#327 = DIRECTION('',(0.,0.,1.));
#328 = ORIENTED_EDGE('',*,*,#329,.T.);
#329 = EDGE_CURVE('',#322,#322,#330,.T.);
#330 = CIRCLE('',#331,1.149999);
#331 = AXIS2_PLACEMENT_3D('',#332,#333,#334);
#332 = CARTESIAN_POINT('',(4.6,0.,1.55));
#333 = DIRECTION('',(0.,0.,1.));
#334 = DIRECTION('',(1.,0.,-0.));
#335 = ORIENTED_EDGE('',*,*,#319,.F.);
#336 = ORIENTED_EDGE('',*,*,#337,.F.);
#337 = EDGE_CURVE('',#320,#320,#338,.T.);
#338 = CIRCLE('',#339,1.149999);
#339 = AXIS2_PLACEMENT_3D('',#340,#341,#342);
#340 = CARTESIAN_POINT('',(4.6,-0.,1.51));
#341 = DIRECTION('',(0.,0.,1.));
#342 = DIRECTION('',(1.,0.,-0.));
#343 = CYLINDRICAL_SURFACE('',#344,1.149999);
#344 = AXIS2_PLACEMENT_3D('',#345,#346,#347);
#345 = CARTESIAN_POINT('',(4.6,-0.,1.51));
#346 = DIRECTION('',(-0.,-0.,-1.));
#347 = DIRECTION('',(1.,0.,-0.));
#348 = ADVANCED_FACE('',(#349,#352),#363,.F.);
#349 = FACE_BOUND('',#350,.F.);
#350 = EDGE_LOOP('',(#351));
#351 = ORIENTED_EDGE('',*,*,#337,.T.);
#352 = FACE_BOUND('',#353,.F.);
#353 = EDGE_LOOP('',(#354));
#354 = ORIENTED_EDGE('',*,*,#355,.T.);
#355 = EDGE_CURVE('',#356,#356,#358,.T.);
#356 = VERTEX_POINT('',#357);
#357 = CARTESIAN_POINT('',(4.6,-0.625,1.51));
#358 = CIRCLE('',#359,0.625);
#359 = AXIS2_PLACEMENT_3D('',#360,#361,#362);
#360 = CARTESIAN_POINT('',(4.6,1.110223024625E-16,1.51));
#361 = DIRECTION('',(-0.,0.,-1.));
#362 = DIRECTION('',(-0.,-1.,0.));
#363 = PLANE('',#364);
#364 = AXIS2_PLACEMENT_3D('',#365,#366,#367);
#365 = CARTESIAN_POINT('',(0.,0.,1.51));
#366 = DIRECTION('',(0.,0.,1.));
#367 = DIRECTION('',(1.,0.,-0.));
#368 = ADVANCED_FACE('',(#369,#372),#383,.T.);
#369 = FACE_BOUND('',#370,.T.);
#370 = EDGE_LOOP('',(#371));
#371 = ORIENTED_EDGE('',*,*,#329,.T.);
#372 = FACE_BOUND('',#373,.T.);
#373 = EDGE_LOOP('',(#374));
#374 = ORIENTED_EDGE('',*,*,#375,.T.);
#375 = EDGE_CURVE('',#376,#376,#378,.T.);
#376 = VERTEX_POINT('',#377);
#377 = CARTESIAN_POINT('',(4.6,-0.625,1.55));
#378 = CIRCLE('',#379,0.625);
#379 = AXIS2_PLACEMENT_3D('',#380,#381,#382);
#380 = CARTESIAN_POINT('',(4.6,1.110223024625E-16,1.55));
#381 = DIRECTION('',(-0.,0.,-1.));
#382 = DIRECTION('',(-0.,-1.,0.));
#383 = PLANE('',#384);
#384 = AXIS2_PLACEMENT_3D('',#385,#386,#387);
#385 = CARTESIAN_POINT('',(0.,0.,1.55));
#386 = DIRECTION('',(0.,0.,1.));
#387 = DIRECTION('',(1.,0.,-0.));
#388 = ADVANCED_FACE('',(#389),#400,.F.);
#389 = FACE_BOUND('',#390,.T.);
#390 = EDGE_LOOP('',(#391,#392,#398,#399));
#391 = ORIENTED_EDGE('',*,*,#355,.T.);
#392 = ORIENTED_EDGE('',*,*,#393,.T.);
#393 = EDGE_CURVE('',#356,#376,#394,.T.);
#394 = LINE('',#395,#396);
#395 = CARTESIAN_POINT('',(4.6,-0.625,-4.6E-02));
#396 = VECTOR('',#397,1.);
#397 = DIRECTION('',(0.,0.,1.));
#398 = ORIENTED_EDGE('',*,*,#375,.F.);
#399 = ORIENTED_EDGE('',*,*,#393,.F.);
#400 = CYLINDRICAL_SURFACE('',#401,0.625);
#401 = AXIS2_PLACEMENT_3D('',#402,#403,#404);
#402 = CARTESIAN_POINT('',(4.6,1.110223024625E-16,-4.6E-02));
#403 = DIRECTION('',(-0.,-0.,-1.));
#404 = DIRECTION('',(-0.,-1.,0.));
#405 = MANIFOLD_SOLID_BREP('',#406);
#406 = CLOSED_SHELL('',(#407,#440,#460,#480));
#407 = ADVANCED_FACE('',(#408),#435,.T.);
#408 = FACE_BOUND('',#409,.T.);
#409 = EDGE_LOOP('',(#410,#420,#427,#428));
#410 = ORIENTED_EDGE('',*,*,#411,.T.);
#411 = EDGE_CURVE('',#412,#414,#416,.T.);
#412 = VERTEX_POINT('',#413);
#413 = CARTESIAN_POINT('',(5.749999,0.,0.));
#414 = VERTEX_POINT('',#415);
#415 = CARTESIAN_POINT('',(5.749999,0.,-4.E-02));
#416 = LINE('',#417,#418);
#417 = CARTESIAN_POINT('',(5.749999,0.,0.));
#418 = VECTOR('',#419,1.);
#419 = DIRECTION('',(0.,0.,-1.));
#420 = ORIENTED_EDGE('',*,*,#421,.T.);
#421 = EDGE_CURVE('',#414,#414,#422,.T.);
#422 = CIRCLE('',#423,1.149999);
#423 = AXIS2_PLACEMENT_3D('',#424,#425,#426);
#424 = CARTESIAN_POINT('',(4.6,0.,-4.E-02));
#425 = DIRECTION('',(0.,0.,1.));
#426 = DIRECTION('',(1.,0.,-0.));
#427 = ORIENTED_EDGE('',*,*,#411,.F.);
#428 = ORIENTED_EDGE('',*,*,#429,.F.);
#429 = EDGE_CURVE('',#412,#412,#430,.T.);
#430 = CIRCLE('',#431,1.149999);
#431 = AXIS2_PLACEMENT_3D('',#432,#433,#434);
#432 = CARTESIAN_POINT('',(4.6,-0.,0.));
#433 = DIRECTION('',(0.,0.,1.));
#434 = DIRECTION('',(1.,0.,-0.));
#435 = CYLINDRICAL_SURFACE('',#436,1.149999);
#436 = AXIS2_PLACEMENT_3D('',#437,#438,#439);
#437 = CARTESIAN_POINT('',(4.6,-0.,0.));
#438 = DIRECTION('',(0.,0.,1.));
#439 = DIRECTION('',(1.,0.,-0.));
#440 = ADVANCED_FACE('',(#441,#444),#455,.F.);
#441 = FACE_BOUND('',#442,.F.);
#442 = EDGE_LOOP('',(#443));
#443 = ORIENTED_EDGE('',*,*,#429,.F.);
#444 = FACE_BOUND('',#445,.F.);
#445 = EDGE_LOOP('',(#446));
#446 = ORIENTED_EDGE('',*,*,#447,.F.);
#447 = EDGE_CURVE('',#448,#448,#450,.T.);
#448 = VERTEX_POINT('',#449);
#449 = CARTESIAN_POINT('',(4.6,-0.625,0.));
#450 = CIRCLE('',#451,0.625);
#451 = AXIS2_PLACEMENT_3D('',#452,#453,#454);
#452 = CARTESIAN_POINT('',(4.6,1.110223024625E-16,0.));
#453 = DIRECTION('',(-0.,0.,-1.));
#454 = DIRECTION('',(-0.,-1.,0.));
#455 = PLANE('',#456);
#456 = AXIS2_PLACEMENT_3D('',#457,#458,#459);
#457 = CARTESIAN_POINT('',(0.,0.,0.));
#458 = DIRECTION('',(-0.,-0.,-1.));
#459 = DIRECTION('',(-1.,0.,0.));
#460 = ADVANCED_FACE('',(#461,#464),#475,.T.);
#461 = FACE_BOUND('',#462,.T.);
#462 = EDGE_LOOP('',(#463));
#463 = ORIENTED_EDGE('',*,*,#421,.F.);
#464 = FACE_BOUND('',#465,.T.);
#465 = EDGE_LOOP('',(#466));
#466 = ORIENTED_EDGE('',*,*,#467,.F.);
#467 = EDGE_CURVE('',#468,#468,#470,.T.);
#468 = VERTEX_POINT('',#469);
#469 = CARTESIAN_POINT('',(4.6,-0.625,-4.E-02));
#470 = CIRCLE('',#471,0.625);
#471 = AXIS2_PLACEMENT_3D('',#472,#473,#474);
#472 = CARTESIAN_POINT('',(4.6,1.110223024625E-16,-4.E-02));
#473 = DIRECTION('',(-0.,0.,-1.));
#474 = DIRECTION('',(-0.,-1.,0.));
#475 = PLANE('',#476);
#476 = AXIS2_PLACEMENT_3D('',#477,#478,#479);
#477 = CARTESIAN_POINT('',(0.,0.,-4.E-02));
#478 = DIRECTION('',(-0.,-0.,-1.));
#479 = DIRECTION('',(-1.,0.,0.));
#480 = ADVANCED_FACE('',(#481),#492,.F.);
#481 = FACE_BOUND('',#482,.T.);
#482 = EDGE_LOOP('',(#483,#484,#490,#491));
#483 = ORIENTED_EDGE('',*,*,#467,.T.);
#484 = ORIENTED_EDGE('',*,*,#485,.T.);
#485 = EDGE_CURVE('',#468,#448,#486,.T.);
#486 = LINE('',#487,#488);
#487 = CARTESIAN_POINT('',(4.6,-0.625,-4.6E-02));
#488 = VECTOR('',#489,1.);
#489 = DIRECTION('',(0.,0.,1.));
#490 = ORIENTED_EDGE('',*,*,#447,.F.);
#491 = ORIENTED_EDGE('',*,*,#485,.F.);
#492 = CYLINDRICAL_SURFACE('',#493,0.625);
#493 = AXIS2_PLACEMENT_3D('',#494,#495,#496);
#494 = CARTESIAN_POINT('',(4.6,1.110223024625E-16,-4.6E-02));
#495 = DIRECTION('',(-0.,-0.,-1.));
#496 = DIRECTION('',(-0.,-1.,0.));
#497 = MANIFOLD_SOLID_BREP('',#498);
#498 = CLOSED_SHELL('',(#499,#532,#552,#572));
#499 = ADVANCED_FACE('',(#500),#527,.T.);
#500 = FACE_BOUND('',#501,.F.);
#501 = EDGE_LOOP('',(#502,#512,#519,#520));
#502 = ORIENTED_EDGE('',*,*,#503,.T.);
#503 = EDGE_CURVE('',#504,#506,#508,.T.);
#504 = VERTEX_POINT('',#505);
#505 = CARTESIAN_POINT('',(4.6,-0.65,-4.E-02));
#506 = VERTEX_POINT('',#507);
#507 = CARTESIAN_POINT('',(4.6,-0.65,1.55));
#508 = LINE('',#509,#510);
#509 = CARTESIAN_POINT('',(4.6,-0.65,-4.E-02));
#510 = VECTOR('',#511,1.);
#511 = DIRECTION('',(0.,0.,1.));
#512 = ORIENTED_EDGE('',*,*,#513,.T.);
#513 = EDGE_CURVE('',#506,#506,#514,.T.);
#514 = CIRCLE('',#515,0.65);
#515 = AXIS2_PLACEMENT_3D('',#516,#517,#518);
#516 = CARTESIAN_POINT('',(4.6,2.498001805407E-16,1.55));
#517 = DIRECTION('',(0.,0.,1.));
#518 = DIRECTION('',(-0.,-1.,0.));
#519 = ORIENTED_EDGE('',*,*,#503,.F.);
#520 = ORIENTED_EDGE('',*,*,#521,.F.);
#521 = EDGE_CURVE('',#504,#504,#522,.T.);
#522 = CIRCLE('',#523,0.65);
#523 = AXIS2_PLACEMENT_3D('',#524,#525,#526);
#524 = CARTESIAN_POINT('',(4.6,2.498001805407E-16,-4.E-02));
#525 = DIRECTION('',(0.,0.,1.));
#526 = DIRECTION('',(-0.,-1.,0.));
#527 = CYLINDRICAL_SURFACE('',#528,0.65);
#528 = AXIS2_PLACEMENT_3D('',#529,#530,#531);
#529 = CARTESIAN_POINT('',(4.6,2.498001805407E-16,-4.E-02));
#530 = DIRECTION('',(-0.,-0.,-1.));
#531 = DIRECTION('',(-0.,-1.,0.));
#532 = ADVANCED_FACE('',(#533,#536),#547,.F.);
#533 = FACE_BOUND('',#534,.F.);
#534 = EDGE_LOOP('',(#535));
#535 = ORIENTED_EDGE('',*,*,#521,.T.);
#536 = FACE_BOUND('',#537,.F.);
#537 = EDGE_LOOP('',(#538));
#538 = ORIENTED_EDGE('',*,*,#539,.T.);
#539 = EDGE_CURVE('',#540,#540,#542,.T.);
#540 = VERTEX_POINT('',#541);
#541 = CARTESIAN_POINT('',(4.6,-0.625,-4.E-02));
#542 = CIRCLE('',#543,0.625);
#543 = AXIS2_PLACEMENT_3D('',#544,#545,#546);
#544 = CARTESIAN_POINT('',(4.6,1.110223024625E-16,-4.E-02));
#545 = DIRECTION('',(-0.,0.,-1.));
#546 = DIRECTION('',(-0.,-1.,0.));
#547 = PLANE('',#548);
#548 = AXIS2_PLACEMENT_3D('',#549,#550,#551);
#549 = CARTESIAN_POINT('',(4.6,-0.65,-4.E-02));
#550 = DIRECTION('',(0.,0.,1.));
#551 = DIRECTION('',(1.,0.,-0.));
#552 = ADVANCED_FACE('',(#553,#556),#567,.T.);
#553 = FACE_BOUND('',#554,.T.);
#554 = EDGE_LOOP('',(#555));
#555 = ORIENTED_EDGE('',*,*,#513,.T.);
#556 = FACE_BOUND('',#557,.T.);
#557 = EDGE_LOOP('',(#558));
#558 = ORIENTED_EDGE('',*,*,#559,.T.);
#559 = EDGE_CURVE('',#560,#560,#562,.T.);
#560 = VERTEX_POINT('',#561);
#561 = CARTESIAN_POINT('',(4.6,-0.625,1.55));
#562 = CIRCLE('',#563,0.625);
#563 = AXIS2_PLACEMENT_3D('',#564,#565,#566);
#564 = CARTESIAN_POINT('',(4.6,1.110223024625E-16,1.55));
#565 = DIRECTION('',(-0.,0.,-1.));
#566 = DIRECTION('',(-0.,-1.,0.));
#567 = PLANE('',#568);
#568 = AXIS2_PLACEMENT_3D('',#569,#570,#571);
#569 = CARTESIAN_POINT('',(4.6,-0.65,1.55));
#570 = DIRECTION('',(0.,0.,1.));
#571 = DIRECTION('',(1.,0.,-0.));
#572 = ADVANCED_FACE('',(#573),#584,.F.);
#573 = FACE_BOUND('',#574,.T.);
#574 = EDGE_LOOP('',(#575,#576,#582,#583));
#575 = ORIENTED_EDGE('',*,*,#539,.T.);
#576 = ORIENTED_EDGE('',*,*,#577,.T.);
#577 = EDGE_CURVE('',#540,#560,#578,.T.);
#578 = LINE('',#579,#580);
#579 = CARTESIAN_POINT('',(4.6,-0.625,-4.6E-02));
#580 = VECTOR('',#581,1.);
#581 = DIRECTION('',(0.,0.,1.));
#582 = ORIENTED_EDGE('',*,*,#559,.F.);
#583 = ORIENTED_EDGE('',*,*,#577,.F.);
#584 = CYLINDRICAL_SURFACE('',#585,0.625);
#585 = AXIS2_PLACEMENT_3D('',#586,#587,#588);
#586 = CARTESIAN_POINT('',(4.6,1.110223024625E-16,-4.6E-02));
#587 = DIRECTION('',(-0.,-0.,-1.));
#588 = DIRECTION('',(-0.,-1.,0.));
#589 = MANIFOLD_SOLID_BREP('',#590);
#590 = CLOSED_SHELL('',(#591,#624,#644,#664));
#591 = ADVANCED_FACE('',(#592),#619,.T.);
#592 = FACE_BOUND('',#593,.F.);
#593 = EDGE_LOOP('',(#594,#604,#611,#612));
#594 = ORIENTED_EDGE('',*,*,#595,.T.);
#595 = EDGE_CURVE('',#596,#598,#600,.T.);
#596 = VERTEX_POINT('',#597);
#597 = CARTESIAN_POINT('',(17.049999,0.,1.51));
#598 = VERTEX_POINT('',#599);
#599 = CARTESIAN_POINT('',(17.049999,0.,1.55));
#600 = LINE('',#601,#602);
#601 = CARTESIAN_POINT('',(17.049999,0.,1.51));
#602 = VECTOR('',#603,1.);
#603 = DIRECTION('',(0.,0.,1.));
#604 = ORIENTED_EDGE('',*,*,#605,.T.);
#605 = EDGE_CURVE('',#598,#598,#606,.T.);
#606 = CIRCLE('',#607,1.149999);
#607 = AXIS2_PLACEMENT_3D('',#608,#609,#610);
#608 = CARTESIAN_POINT('',(15.9,0.,1.55));
#609 = DIRECTION('',(0.,0.,1.));
#610 = DIRECTION('',(1.,0.,-0.));
#611 = ORIENTED_EDGE('',*,*,#595,.F.);
#612 = ORIENTED_EDGE('',*,*,#613,.F.);
#613 = EDGE_CURVE('',#596,#596,#614,.T.);
#614 = CIRCLE('',#615,1.149999);
#615 = AXIS2_PLACEMENT_3D('',#616,#617,#618);
#616 = CARTESIAN_POINT('',(15.9,-0.,1.51));
#617 = DIRECTION('',(0.,0.,1.));
#618 = DIRECTION('',(1.,0.,-0.));
#619 = CYLINDRICAL_SURFACE('',#620,1.149999);
#620 = AXIS2_PLACEMENT_3D('',#621,#622,#623);
#621 = CARTESIAN_POINT('',(15.9,-0.,1.51));
#622 = DIRECTION('',(-0.,-0.,-1.));
#623 = DIRECTION('',(1.,0.,-0.));
#624 = ADVANCED_FACE('',(#625,#628),#639,.F.);
#625 = FACE_BOUND('',#626,.F.);
#626 = EDGE_LOOP('',(#627));
#627 = ORIENTED_EDGE('',*,*,#613,.T.);
#628 = FACE_BOUND('',#629,.F.);
#629 = EDGE_LOOP('',(#630));
#630 = ORIENTED_EDGE('',*,*,#631,.T.);
#631 = EDGE_CURVE('',#632,#632,#634,.T.);
#632 = VERTEX_POINT('',#633);
#633 = CARTESIAN_POINT('',(15.9,-0.625,1.51));
#634 = CIRCLE('',#635,0.625);
#635 = AXIS2_PLACEMENT_3D('',#636,#637,#638);
#636 = CARTESIAN_POINT('',(15.9,-7.771561172376E-16,1.51));
#637 = DIRECTION('',(-0.,0.,-1.));
#638 = DIRECTION('',(2.84217094304E-15,-1.,-0.));
#639 = PLANE('',#640);
#640 = AXIS2_PLACEMENT_3D('',#641,#642,#643);
#641 = CARTESIAN_POINT('',(0.,0.,1.51));
#642 = DIRECTION('',(0.,0.,1.));
#643 = DIRECTION('',(1.,0.,-0.));
#644 = ADVANCED_FACE('',(#645,#648),#659,.T.);
#645 = FACE_BOUND('',#646,.T.);
#646 = EDGE_LOOP('',(#647));
#647 = ORIENTED_EDGE('',*,*,#605,.T.);
#648 = FACE_BOUND('',#649,.T.);
#649 = EDGE_LOOP('',(#650));
#650 = ORIENTED_EDGE('',*,*,#651,.T.);
#651 = EDGE_CURVE('',#652,#652,#654,.T.);
#652 = VERTEX_POINT('',#653);
#653 = CARTESIAN_POINT('',(15.9,-0.625,1.55));
#654 = CIRCLE('',#655,0.625);
#655 = AXIS2_PLACEMENT_3D('',#656,#657,#658);
#656 = CARTESIAN_POINT('',(15.9,-7.771561172376E-16,1.55));
#657 = DIRECTION('',(-0.,0.,-1.));
#658 = DIRECTION('',(2.84217094304E-15,-1.,-0.));
#659 = PLANE('',#660);
#660 = AXIS2_PLACEMENT_3D('',#661,#662,#663);
#661 = CARTESIAN_POINT('',(0.,0.,1.55));
#662 = DIRECTION('',(0.,0.,1.));
#663 = DIRECTION('',(1.,0.,-0.));
#664 = ADVANCED_FACE('',(#665),#676,.F.);
#665 = FACE_BOUND('',#666,.T.);
#666 = EDGE_LOOP('',(#667,#668,#674,#675));
#667 = ORIENTED_EDGE('',*,*,#631,.T.);
#668 = ORIENTED_EDGE('',*,*,#669,.T.);
#669 = EDGE_CURVE('',#632,#652,#670,.T.);
#670 = LINE('',#671,#672);
#671 = CARTESIAN_POINT('',(15.9,-0.625,-4.6E-02));
#672 = VECTOR('',#673,1.);
#673 = DIRECTION('',(0.,0.,1.));
#674 = ORIENTED_EDGE('',*,*,#651,.F.);
#675 = ORIENTED_EDGE('',*,*,#669,.F.);
#676 = CYLINDRICAL_SURFACE('',#677,0.625);
#677 = AXIS2_PLACEMENT_3D('',#678,#679,#680);
#678 = CARTESIAN_POINT('',(15.9,-7.771561172376E-16,-4.6E-02));
#679 = DIRECTION('',(-0.,0.,-1.));
#680 = DIRECTION('',(2.84217094304E-15,-1.,-0.));
#681 = MANIFOLD_SOLID_BREP('',#682);
#682 = CLOSED_SHELL('',(#683,#716,#736,#756));
#683 = ADVANCED_FACE('',(#684),#711,.T.);
#684 = FACE_BOUND('',#685,.T.);
#685 = EDGE_LOOP('',(#686,#696,#703,#704));
#686 = ORIENTED_EDGE('',*,*,#687,.T.);
#687 = EDGE_CURVE('',#688,#690,#692,.T.);
#688 = VERTEX_POINT('',#689);
#689 = CARTESIAN_POINT('',(17.049999,0.,0.));
#690 = VERTEX_POINT('',#691);
#691 = CARTESIAN_POINT('',(17.049999,0.,-4.E-02));
#692 = LINE('',#693,#694);
#693 = CARTESIAN_POINT('',(17.049999,0.,0.));
#694 = VECTOR('',#695,1.);
#695 = DIRECTION('',(0.,0.,-1.));
#696 = ORIENTED_EDGE('',*,*,#697,.T.);
#697 = EDGE_CURVE('',#690,#690,#698,.T.);
#698 = CIRCLE('',#699,1.149999);
#699 = AXIS2_PLACEMENT_3D('',#700,#701,#702);
#700 = CARTESIAN_POINT('',(15.9,0.,-4.E-02));
#701 = DIRECTION('',(0.,0.,1.));
#702 = DIRECTION('',(1.,0.,-0.));
#703 = ORIENTED_EDGE('',*,*,#687,.F.);
#704 = ORIENTED_EDGE('',*,*,#705,.F.);
#705 = EDGE_CURVE('',#688,#688,#706,.T.);
#706 = CIRCLE('',#707,1.149999);
#707 = AXIS2_PLACEMENT_3D('',#708,#709,#710);
#708 = CARTESIAN_POINT('',(15.9,-0.,0.));
#709 = DIRECTION('',(0.,0.,1.));
#710 = DIRECTION('',(1.,0.,-0.));
#711 = CYLINDRICAL_SURFACE('',#712,1.149999);
#712 = AXIS2_PLACEMENT_3D('',#713,#714,#715);
#713 = CARTESIAN_POINT('',(15.9,-0.,0.));
#714 = DIRECTION('',(0.,0.,1.));
#715 = DIRECTION('',(1.,0.,-0.));
#716 = ADVANCED_FACE('',(#717,#720),#731,.F.);
#717 = FACE_BOUND('',#718,.F.);
#718 = EDGE_LOOP('',(#719));
#719 = ORIENTED_EDGE('',*,*,#705,.F.);
#720 = FACE_BOUND('',#721,.F.);
#721 = EDGE_LOOP('',(#722));
#722 = ORIENTED_EDGE('',*,*,#723,.F.);
#723 = EDGE_CURVE('',#724,#724,#726,.T.);
#724 = VERTEX_POINT('',#725);
#725 = CARTESIAN_POINT('',(15.9,-0.625,0.));
#726 = CIRCLE('',#727,0.625);
#727 = AXIS2_PLACEMENT_3D('',#728,#729,#730);
#728 = CARTESIAN_POINT('',(15.9,-7.771561172376E-16,0.));
#729 = DIRECTION('',(-0.,0.,-1.));
#730 = DIRECTION('',(2.84217094304E-15,-1.,-0.));
#731 = PLANE('',#732);
#732 = AXIS2_PLACEMENT_3D('',#733,#734,#735);
#733 = CARTESIAN_POINT('',(0.,0.,0.));
#734 = DIRECTION('',(-0.,-0.,-1.));
#735 = DIRECTION('',(-1.,0.,0.));
#736 = ADVANCED_FACE('',(#737,#740),#751,.T.);
#737 = FACE_BOUND('',#738,.T.);
#738 = EDGE_LOOP('',(#739));
#739 = ORIENTED_EDGE('',*,*,#697,.F.);
#740 = FACE_BOUND('',#741,.T.);
#741 = EDGE_LOOP('',(#742));
#742 = ORIENTED_EDGE('',*,*,#743,.F.);
#743 = EDGE_CURVE('',#744,#744,#746,.T.);
#744 = VERTEX_POINT('',#745);
#745 = CARTESIAN_POINT('',(15.9,-0.625,-4.E-02));
#746 = CIRCLE('',#747,0.625);
#747 = AXIS2_PLACEMENT_3D('',#748,#749,#750);
#748 = CARTESIAN_POINT('',(15.9,-7.771561172376E-16,-4.E-02));
#749 = DIRECTION('',(-0.,0.,-1.));
#750 = DIRECTION('',(2.84217094304E-15,-1.,-0.));
#751 = PLANE('',#752);
#752 = AXIS2_PLACEMENT_3D('',#753,#754,#755);
#753 = CARTESIAN_POINT('',(0.,0.,-4.E-02));
#754 = DIRECTION('',(-0.,-0.,-1.));
#755 = DIRECTION('',(-1.,0.,0.));
#756 = ADVANCED_FACE('',(#757),#768,.F.);
#757 = FACE_BOUND('',#758,.T.);
#758 = EDGE_LOOP('',(#759,#760,#766,#767));
#759 = ORIENTED_EDGE('',*,*,#743,.T.);
#760 = ORIENTED_EDGE('',*,*,#761,.T.);
#761 = EDGE_CURVE('',#744,#724,#762,.T.);
#762 = LINE('',#763,#764);
#763 = CARTESIAN_POINT('',(15.9,-0.625,-4.6E-02));
#764 = VECTOR('',#765,1.);
#765 = DIRECTION('',(0.,0.,1.));
#766 = ORIENTED_EDGE('',*,*,#723,.F.);
#767 = ORIENTED_EDGE('',*,*,#761,.F.);
#768 = CYLINDRICAL_SURFACE('',#769,0.625);
#769 = AXIS2_PLACEMENT_3D('',#770,#771,#772);
#770 = CARTESIAN_POINT('',(15.9,-7.771561172376E-16,-4.6E-02));
#771 = DIRECTION('',(-0.,0.,-1.));
#772 = DIRECTION('',(2.84217094304E-15,-1.,-0.));
#773 = MANIFOLD_SOLID_BREP('',#774);
#774 = CLOSED_SHELL('',(#775,#808,#828,#848));
#775 = ADVANCED_FACE('',(#776),#803,.T.);
#776 = FACE_BOUND('',#777,.F.);
#777 = EDGE_LOOP('',(#778,#788,#795,#796));
#778 = ORIENTED_EDGE('',*,*,#779,.T.);
#779 = EDGE_CURVE('',#780,#782,#784,.T.);
#780 = VERTEX_POINT('',#781);
#781 = CARTESIAN_POINT('',(15.9,-0.65,-4.E-02));
#782 = VERTEX_POINT('',#783);
#783 = CARTESIAN_POINT('',(15.9,-0.65,1.55));
#784 = LINE('',#785,#786);
#785 = CARTESIAN_POINT('',(15.9,-0.65,-4.E-02));
#786 = VECTOR('',#787,1.);
#787 = DIRECTION('',(0.,0.,1.));
#788 = ORIENTED_EDGE('',*,*,#789,.T.);
#789 = EDGE_CURVE('',#782,#782,#790,.T.);
#790 = CIRCLE('',#791,0.65);
#791 = AXIS2_PLACEMENT_3D('',#792,#793,#794);
#792 = CARTESIAN_POINT('',(15.9,1.221245327088E-15,1.55));
#793 = DIRECTION('',(0.,0.,1.));
#794 = DIRECTION('',(-0.,-1.,0.));
#795 = ORIENTED_EDGE('',*,*,#779,.F.);
#796 = ORIENTED_EDGE('',*,*,#797,.F.);
#797 = EDGE_CURVE('',#780,#780,#798,.T.);
#798 = CIRCLE('',#799,0.65);
#799 = AXIS2_PLACEMENT_3D('',#800,#801,#802);
#800 = CARTESIAN_POINT('',(15.9,1.221245327088E-15,-4.E-02));
#801 = DIRECTION('',(0.,0.,1.));
#802 = DIRECTION('',(-0.,-1.,0.));
#803 = CYLINDRICAL_SURFACE('',#804,0.65);
#804 = AXIS2_PLACEMENT_3D('',#805,#806,#807);
#805 = CARTESIAN_POINT('',(15.9,1.221245327088E-15,-4.E-02));
#806 = DIRECTION('',(-0.,-0.,-1.));
#807 = DIRECTION('',(-0.,-1.,0.));
#808 = ADVANCED_FACE('',(#809,#812),#823,.F.);
#809 = FACE_BOUND('',#810,.F.);
#810 = EDGE_LOOP('',(#811));
#811 = ORIENTED_EDGE('',*,*,#797,.T.);
#812 = FACE_BOUND('',#813,.F.);
#813 = EDGE_LOOP('',(#814));
#814 = ORIENTED_EDGE('',*,*,#815,.T.);
#815 = EDGE_CURVE('',#816,#816,#818,.T.);
#816 = VERTEX_POINT('',#817);
#817 = CARTESIAN_POINT('',(15.9,-0.625,-4.E-02));
#818 = CIRCLE('',#819,0.625);
#819 = AXIS2_PLACEMENT_3D('',#820,#821,#822);
#820 = CARTESIAN_POINT('',(15.9,-7.771561172376E-16,-4.E-02));
#821 = DIRECTION('',(-0.,0.,-1.));
#822 = DIRECTION('',(2.84217094304E-15,-1.,-0.));
#823 = PLANE('',#824);
#824 = AXIS2_PLACEMENT_3D('',#825,#826,#827);
#825 = CARTESIAN_POINT('',(15.9,-0.65,-4.E-02));
#826 = DIRECTION('',(0.,0.,1.));
#827 = DIRECTION('',(1.,0.,-0.));
#828 = ADVANCED_FACE('',(#829,#832),#843,.T.);
#829 = FACE_BOUND('',#830,.T.);
#830 = EDGE_LOOP('',(#831));
#831 = ORIENTED_EDGE('',*,*,#789,.T.);
#832 = FACE_BOUND('',#833,.T.);
#833 = EDGE_LOOP('',(#834));
#834 = ORIENTED_EDGE('',*,*,#835,.T.);
#835 = EDGE_CURVE('',#836,#836,#838,.T.);
#836 = VERTEX_POINT('',#837);
#837 = CARTESIAN_POINT('',(15.9,-0.625,1.55));
#838 = CIRCLE('',#839,0.625);
#839 = AXIS2_PLACEMENT_3D('',#840,#841,#842);
#840 = CARTESIAN_POINT('',(15.9,-7.771561172376E-16,1.55));
#841 = DIRECTION('',(-0.,0.,-1.));
#842 = DIRECTION('',(2.84217094304E-15,-1.,-0.));
#843 = PLANE('',#844);
#844 = AXIS2_PLACEMENT_3D('',#845,#846,#847);
#845 = CARTESIAN_POINT('',(15.9,-0.65,1.55));
#846 = DIRECTION('',(0.,0.,1.));
#847 = DIRECTION('',(1.,0.,-0.));
#848 = ADVANCED_FACE('',(#849),#860,.F.);
#849 = FACE_BOUND('',#850,.T.);
#850 = EDGE_LOOP('',(#851,#852,#858,#859));
#851 = ORIENTED_EDGE('',*,*,#815,.T.);
#852 = ORIENTED_EDGE('',*,*,#853,.T.);
#853 = EDGE_CURVE('',#816,#836,#854,.T.);
#854 = LINE('',#855,#856);
#855 = CARTESIAN_POINT('',(15.9,-0.625,-4.6E-02));
#856 = VECTOR('',#857,1.);
#857 = DIRECTION('',(0.,0.,1.));
#858 = ORIENTED_EDGE('',*,*,#835,.F.);
#859 = ORIENTED_EDGE('',*,*,#853,.F.);
#860 = CYLINDRICAL_SURFACE('',#861,0.625);
#861 = AXIS2_PLACEMENT_3D('',#862,#863,#864);
#862 = CARTESIAN_POINT('',(15.9,-7.771561172376E-16,-4.6E-02));
#863 = DIRECTION('',(-0.,0.,-1.));
#864 = DIRECTION('',(2.84217094304E-15,-1.,-0.));
#865 = MANIFOLD_SOLID_BREP('',#866);
#866 = CLOSED_SHELL('',(#867,#900,#920,#940));
#867 = ADVANCED_FACE('',(#868),#895,.T.);
#868 = FACE_BOUND('',#869,.F.);
#869 = EDGE_LOOP('',(#870,#880,#887,#888));
#870 = ORIENTED_EDGE('',*,*,#871,.T.);
#871 = EDGE_CURVE('',#872,#874,#876,.T.);
#872 = VERTEX_POINT('',#873);
#873 = CARTESIAN_POINT('',(21.649999,0.,1.51));
#874 = VERTEX_POINT('',#875);
#875 = CARTESIAN_POINT('',(21.649999,0.,1.55));
#876 = LINE('',#877,#878);
#877 = CARTESIAN_POINT('',(21.649999,0.,1.51));
#878 = VECTOR('',#879,1.);
#879 = DIRECTION('',(0.,0.,1.));
#880 = ORIENTED_EDGE('',*,*,#881,.T.);
#881 = EDGE_CURVE('',#874,#874,#882,.T.);
#882 = CIRCLE('',#883,1.149999);
#883 = AXIS2_PLACEMENT_3D('',#884,#885,#886);
#884 = CARTESIAN_POINT('',(20.5,0.,1.55));
#885 = DIRECTION('',(0.,0.,1.));
#886 = DIRECTION('',(1.,0.,-0.));
#887 = ORIENTED_EDGE('',*,*,#871,.F.);
#888 = ORIENTED_EDGE('',*,*,#889,.F.);
#889 = EDGE_CURVE('',#872,#872,#890,.T.);
#890 = CIRCLE('',#891,1.149999);
#891 = AXIS2_PLACEMENT_3D('',#892,#893,#894);
#892 = CARTESIAN_POINT('',(20.5,-0.,1.51));
#893 = DIRECTION('',(0.,0.,1.));
#894 = DIRECTION('',(1.,0.,-0.));
#895 = CYLINDRICAL_SURFACE('',#896,1.149999);
#896 = AXIS2_PLACEMENT_3D('',#897,#898,#899);
#897 = CARTESIAN_POINT('',(20.5,-0.,1.51));
#898 = DIRECTION('',(-0.,-0.,-1.));
#899 = DIRECTION('',(1.,0.,-0.));
#900 = ADVANCED_FACE('',(#901,#904),#915,.F.);
#901 = FACE_BOUND('',#902,.F.);
#902 = EDGE_LOOP('',(#903));
#903 = ORIENTED_EDGE('',*,*,#889,.T.);
#904 = FACE_BOUND('',#905,.F.);
#905 = EDGE_LOOP('',(#906));
#906 = ORIENTED_EDGE('',*,*,#907,.T.);
#907 = EDGE_CURVE('',#908,#908,#910,.T.);
#908 = VERTEX_POINT('',#909);
#909 = CARTESIAN_POINT('',(20.5,-0.625,1.51));
#910 = CIRCLE('',#911,0.625);
#911 = AXIS2_PLACEMENT_3D('',#912,#913,#914);
#912 = CARTESIAN_POINT('',(20.5,1.110223024625E-16,1.51));
#913 = DIRECTION('',(-0.,0.,-1.));
#914 = DIRECTION('',(-0.,-1.,0.));
#915 = PLANE('',#916);
#916 = AXIS2_PLACEMENT_3D('',#917,#918,#919);
#917 = CARTESIAN_POINT('',(0.,0.,1.51));
#918 = DIRECTION('',(0.,0.,1.));
#919 = DIRECTION('',(1.,0.,-0.));
#920 = ADVANCED_FACE('',(#921,#924),#935,.T.);
#921 = FACE_BOUND('',#922,.T.);
#922 = EDGE_LOOP('',(#923));
#923 = ORIENTED_EDGE('',*,*,#881,.T.);
#924 = FACE_BOUND('',#925,.T.);
#925 = EDGE_LOOP('',(#926));
#926 = ORIENTED_EDGE('',*,*,#927,.T.);
#927 = EDGE_CURVE('',#928,#928,#930,.T.);
#928 = VERTEX_POINT('',#929);
#929 = CARTESIAN_POINT('',(20.5,-0.625,1.55));
#930 = CIRCLE('',#931,0.625);
#931 = AXIS2_PLACEMENT_3D('',#932,#933,#934);
#932 = CARTESIAN_POINT('',(20.5,1.110223024625E-16,1.55));
#933 = DIRECTION('',(-0.,0.,-1.));
#934 = DIRECTION('',(-0.,-1.,0.));
#935 = PLANE('',#936);
#936 = AXIS2_PLACEMENT_3D('',#937,#938,#939);
#937 = CARTESIAN_POINT('',(0.,0.,1.55));
#938 = DIRECTION('',(0.,0.,1.));
#939 = DIRECTION('',(1.,0.,-0.));
#940 = ADVANCED_FACE('',(#941),#952,.F.);
#941 = FACE_BOUND('',#942,.T.);
#942 = EDGE_LOOP('',(#943,#944,#950,#951));
#943 = ORIENTED_EDGE('',*,*,#907,.T.);
#944 = ORIENTED_EDGE('',*,*,#945,.T.);
#945 = EDGE_CURVE('',#908,#928,#946,.T.);
#946 = LINE('',#947,#948);
#947 = CARTESIAN_POINT('',(20.5,-0.625,-4.6E-02));
#948 = VECTOR('',#949,1.);
#949 = DIRECTION('',(0.,0.,1.));
#950 = ORIENTED_EDGE('',*,*,#927,.F.);
#951 = ORIENTED_EDGE('',*,*,#945,.F.);
#952 = CYLINDRICAL_SURFACE('',#953,0.625);
#953 = AXIS2_PLACEMENT_3D('',#954,#955,#956);
#954 = CARTESIAN_POINT('',(20.5,1.110223024625E-16,-4.6E-02));
#955 = DIRECTION('',(-0.,-0.,-1.));
#956 = DIRECTION('',(-0.,-1.,0.));
#957 = MANIFOLD_SOLID_BREP('',#958);
#958 = CLOSED_SHELL('',(#959,#992,#1012,#1032));
#959 = ADVANCED_FACE('',(#960),#987,.T.);
#960 = FACE_BOUND('',#961,.T.);
#961 = EDGE_LOOP('',(#962,#972,#979,#980));
#962 = ORIENTED_EDGE('',*,*,#963,.T.);
#963 = EDGE_CURVE('',#964,#966,#968,.T.);
#964 = VERTEX_POINT('',#965);
#965 = CARTESIAN_POINT('',(21.649999,0.,0.));
#966 = VERTEX_POINT('',#967);
#967 = CARTESIAN_POINT('',(21.649999,0.,-4.E-02));
#968 = LINE('',#969,#970);
#969 = CARTESIAN_POINT('',(21.649999,0.,0.));
#970 = VECTOR('',#971,1.);
#971 = DIRECTION('',(0.,0.,-1.));
#972 = ORIENTED_EDGE('',*,*,#973,.T.);
#973 = EDGE_CURVE('',#966,#966,#974,.T.);
#974 = CIRCLE('',#975,1.149999);
#975 = AXIS2_PLACEMENT_3D('',#976,#977,#978);
#976 = CARTESIAN_POINT('',(20.5,0.,-4.E-02));
#977 = DIRECTION('',(0.,0.,1.));
#978 = DIRECTION('',(1.,0.,-0.));
#979 = ORIENTED_EDGE('',*,*,#963,.F.);
#980 = ORIENTED_EDGE('',*,*,#981,.F.);
#981 = EDGE_CURVE('',#964,#964,#982,.T.);
#982 = CIRCLE('',#983,1.149999);
#983 = AXIS2_PLACEMENT_3D('',#984,#985,#986);
#984 = CARTESIAN_POINT('',(20.5,-0.,0.));
#985 = DIRECTION('',(0.,0.,1.));
#986 = DIRECTION('',(1.,0.,-0.));
#987 = CYLINDRICAL_SURFACE('',#988,1.149999);
#988 = AXIS2_PLACEMENT_3D('',#989,#990,#991);
#989 = CARTESIAN_POINT('',(20.5,-0.,0.));
#990 = DIRECTION('',(0.,0.,1.));
#991 = DIRECTION('',(1.,0.,-0.));
#992 = ADVANCED_FACE('',(#993,#996),#1007,.F.);
#993 = FACE_BOUND('',#994,.F.);
#994 = EDGE_LOOP('',(#995));
#995 = ORIENTED_EDGE('',*,*,#981,.F.);
#996 = FACE_BOUND('',#997,.F.);
#997 = EDGE_LOOP('',(#998));
#998 = ORIENTED_EDGE('',*,*,#999,.F.);
#999 = EDGE_CURVE('',#1000,#1000,#1002,.T.);
#1000 = VERTEX_POINT('',#1001);
#1001 = CARTESIAN_POINT('',(20.5,-0.625,0.));
#1002 = CIRCLE('',#1003,0.625);
#1003 = AXIS2_PLACEMENT_3D('',#1004,#1005,#1006);
#1004 = CARTESIAN_POINT('',(20.5,1.110223024625E-16,0.));
#1005 = DIRECTION('',(-0.,0.,-1.));
#1006 = DIRECTION('',(-0.,-1.,0.));
#1007 = PLANE('',#1008);
#1008 = AXIS2_PLACEMENT_3D('',#1009,#1010,#1011);
#1009 = CARTESIAN_POINT('',(0.,0.,0.));
#1010 = DIRECTION('',(-0.,-0.,-1.));
#1011 = DIRECTION('',(-1.,0.,0.));
#1012 = ADVANCED_FACE('',(#1013,#1016),#1027,.T.);
#1013 = FACE_BOUND('',#1014,.T.);
#1014 = EDGE_LOOP('',(#1015));
#1015 = ORIENTED_EDGE('',*,*,#973,.F.);
#1016 = FACE_BOUND('',#1017,.T.);
#1017 = EDGE_LOOP('',(#1018));
#1018 = ORIENTED_EDGE('',*,*,#1019,.F.);
#1019 = EDGE_CURVE('',#1020,#1020,#1022,.T.);
#1020 = VERTEX_POINT('',#1021);
#1021 = CARTESIAN_POINT('',(20.5,-0.625,-4.E-02));
#1022 = CIRCLE('',#1023,0.625);
#1023 = AXIS2_PLACEMENT_3D('',#1024,#1025,#1026);
#1024 = CARTESIAN_POINT('',(20.5,1.110223024625E-16,-4.E-02));
#1025 = DIRECTION('',(-0.,0.,-1.));
#1026 = DIRECTION('',(-0.,-1.,0.));
#1027 = PLANE('',#1028);
#1028 = AXIS2_PLACEMENT_3D('',#1029,#1030,#1031);
#1029 = CARTESIAN_POINT('',(0.,0.,-4.E-02));
#1030 = DIRECTION('',(-0.,-0.,-1.));
#1031 = DIRECTION('',(-1.,0.,0.));
#1032 = ADVANCED_FACE('',(#1033),#1044,.F.);
#1033 = FACE_BOUND('',#1034,.T.);
#1034 = EDGE_LOOP('',(#1035,#1036,#1042,#1043));
#1035 = ORIENTED_EDGE('',*,*,#1019,.T.);
#1036 = ORIENTED_EDGE('',*,*,#1037,.T.);
#1037 = EDGE_CURVE('',#1020,#1000,#1038,.T.);
#1038 = LINE('',#1039,#1040);
#1039 = CARTESIAN_POINT('',(20.5,-0.625,-4.6E-02));
#1040 = VECTOR('',#1041,1.);
#1041 = DIRECTION('',(0.,0.,1.));
#1042 = ORIENTED_EDGE('',*,*,#999,.F.);
#1043 = ORIENTED_EDGE('',*,*,#1037,.F.);
#1044 = CYLINDRICAL_SURFACE('',#1045,0.625);
#1045 = AXIS2_PLACEMENT_3D('',#1046,#1047,#1048);
#1046 = CARTESIAN_POINT('',(20.5,1.110223024625E-16,-4.6E-02));
#1047 = DIRECTION('',(-0.,-0.,-1.));
#1048 = DIRECTION('',(-0.,-1.,0.));
#1049 = MANIFOLD_SOLID_BREP('',#1050);
#1050 = CLOSED_SHELL('',(#1051,#1084,#1104,#1124));
#1051 = ADVANCED_FACE('',(#1052),#1079,.T.);
#1052 = FACE_BOUND('',#1053,.F.);
#1053 = EDGE_LOOP('',(#1054,#1064,#1071,#1072));
#1054 = ORIENTED_EDGE('',*,*,#1055,.T.);
#1055 = EDGE_CURVE('',#1056,#1058,#1060,.T.);
#1056 = VERTEX_POINT('',#1057);
#1057 = CARTESIAN_POINT('',(20.5,-0.65,-4.E-02));
#1058 = VERTEX_POINT('',#1059);
#1059 = CARTESIAN_POINT('',(20.5,-0.65,1.55));
#1060 = LINE('',#1061,#1062);
#1061 = CARTESIAN_POINT('',(20.5,-0.65,-4.E-02));
#1062 = VECTOR('',#1063,1.);
#1063 = DIRECTION('',(0.,0.,1.));
#1064 = ORIENTED_EDGE('',*,*,#1065,.T.);
#1065 = EDGE_CURVE('',#1058,#1058,#1066,.T.);
#1066 = CIRCLE('',#1067,0.65);
#1067 = AXIS2_PLACEMENT_3D('',#1068,#1069,#1070);
#1068 = CARTESIAN_POINT('',(20.5,-1.360023205166E-15,1.55));
#1069 = DIRECTION('',(0.,0.,1.));
#1070 = DIRECTION('',(-0.,-1.,0.));
#1071 = ORIENTED_EDGE('',*,*,#1055,.F.);
#1072 = ORIENTED_EDGE('',*,*,#1073,.F.);
#1073 = EDGE_CURVE('',#1056,#1056,#1074,.T.);
#1074 = CIRCLE('',#1075,0.65);
#1075 = AXIS2_PLACEMENT_3D('',#1076,#1077,#1078);
#1076 = CARTESIAN_POINT('',(20.5,-1.360023205166E-15,-4.E-02));
#1077 = DIRECTION('',(0.,0.,1.));
#1078 = DIRECTION('',(-0.,-1.,0.));
#1079 = CYLINDRICAL_SURFACE('',#1080,0.65);
#1080 = AXIS2_PLACEMENT_3D('',#1081,#1082,#1083);
#1081 = CARTESIAN_POINT('',(20.5,-1.360023205166E-15,-4.E-02));
#1082 = DIRECTION('',(-0.,-0.,-1.));
#1083 = DIRECTION('',(-0.,-1.,0.));
#1084 = ADVANCED_FACE('',(#1085,#1088),#1099,.F.);
#1085 = FACE_BOUND('',#1086,.F.);
#1086 = EDGE_LOOP('',(#1087));
#1087 = ORIENTED_EDGE('',*,*,#1073,.T.);
#1088 = FACE_BOUND('',#1089,.F.);
#1089 = EDGE_LOOP('',(#1090));
#1090 = ORIENTED_EDGE('',*,*,#1091,.T.);
#1091 = EDGE_CURVE('',#1092,#1092,#1094,.T.);
#1092 = VERTEX_POINT('',#1093);
#1093 = CARTESIAN_POINT('',(20.5,-0.625,-4.E-02));
#1094 = CIRCLE('',#1095,0.625);
#1095 = AXIS2_PLACEMENT_3D('',#1096,#1097,#1098);
#1096 = CARTESIAN_POINT('',(20.5,1.110223024625E-16,-4.E-02));
#1097 = DIRECTION('',(-0.,0.,-1.));
#1098 = DIRECTION('',(-0.,-1.,0.));
#1099 = PLANE('',#1100);
#1100 = AXIS2_PLACEMENT_3D('',#1101,#1102,#1103);
#1101 = CARTESIAN_POINT('',(20.5,-0.65,-4.E-02));
#1102 = DIRECTION('',(0.,0.,1.));
#1103 = DIRECTION('',(1.,0.,-0.));
#1104 = ADVANCED_FACE('',(#1105,#1108),#1119,.T.);
#1105 = FACE_BOUND('',#1106,.T.);
#1106 = EDGE_LOOP('',(#1107));
#1107 = ORIENTED_EDGE('',*,*,#1065,.T.);
#1108 = FACE_BOUND('',#1109,.T.);
#1109 = EDGE_LOOP('',(#1110));
#1110 = ORIENTED_EDGE('',*,*,#1111,.T.);
#1111 = EDGE_CURVE('',#1112,#1112,#1114,.T.);
#1112 = VERTEX_POINT('',#1113);
#1113 = CARTESIAN_POINT('',(20.5,-0.625,1.55));
#1114 = CIRCLE('',#1115,0.625);
#1115 = AXIS2_PLACEMENT_3D('',#1116,#1117,#1118);
#1116 = CARTESIAN_POINT('',(20.5,1.110223024625E-16,1.55));
#1117 = DIRECTION('',(-0.,0.,-1.));
#1118 = DIRECTION('',(-0.,-1.,0.));
#1119 = PLANE('',#1120);
#1120 = AXIS2_PLACEMENT_3D('',#1121,#1122,#1123);
#1121 = CARTESIAN_POINT('',(20.5,-0.65,1.55));
#1122 = DIRECTION('',(0.,0.,1.));
#1123 = DIRECTION('',(1.,0.,-0.));
#1124 = ADVANCED_FACE('',(#1125),#1136,.F.);
#1125 = FACE_BOUND('',#1126,.T.);
#1126 = EDGE_LOOP('',(#1127,#1128,#1134,#1135));
#1127 = ORIENTED_EDGE('',*,*,#1091,.T.);
#1128 = ORIENTED_EDGE('',*,*,#1129,.T.);
#1129 = EDGE_CURVE('',#1092,#1112,#1130,.T.);
#1130 = LINE('',#1131,#1132);
#1131 = CARTESIAN_POINT('',(20.5,-0.625,-4.6E-02));
#1132 = VECTOR('',#1133,1.);
#1133 = DIRECTION('',(0.,0.,1.));
#1134 = ORIENTED_EDGE('',*,*,#1111,.F.);
#1135 = ORIENTED_EDGE('',*,*,#1129,.F.);
#1136 = CYLINDRICAL_SURFACE('',#1137,0.625);
#1137 = AXIS2_PLACEMENT_3D('',#1138,#1139,#1140);
#1138 = CARTESIAN_POINT('',(20.5,1.110223024625E-16,-4.6E-02));
#1139 = DIRECTION('',(-0.,-0.,-1.));
#1140 = DIRECTION('',(-0.,-1.,0.));
#1141 = ( GEOMETRIC_REPRESENTATION_CONTEXT(3) 
GLOBAL_UNCERTAINTY_ASSIGNED_CONTEXT((#1145)) 
GLOBAL_UNIT_ASSIGNED_CONTEXT((#1142,#1143,#1144)) REPRESENTATION_CONTEXT
('Context #1','3D Context with UNIT and UNCERTAINTY') );
#1142 = ( LENGTH_UNIT() NAMED_UNIT(*) SI_UNIT(.MILLI.,.METRE.) );
#1143 = ( NAMED_UNIT(*) PLANE_ANGLE_UNIT() SI_UNIT($,.RADIAN.) );
#1144 = ( NAMED_UNIT(*) SI_UNIT($,.STERADIAN.) SOLID_ANGLE_UNIT() );
#1145 = UNCERTAINTY_MEASURE_WITH_UNIT(LENGTH_MEASURE(1.E-07),#1142,
  'distance_accuracy_value','confusion accuracy');
#1146 = CONTEXT_DEPENDENT_SHAPE_REPRESENTATION(#1147,#1149);
#1147 = ( REPRESENTATION_RELATIONSHIP('','',#36,#10) 
REPRESENTATION_RELATIONSHIP_WITH_TRANSFORMATION(#1148) 
SHAPE_REPRESENTATION_RELATIONSHIP() );
#1148 = ITEM_DEFINED_TRANSFORMATION('','',#11,#15);
#1149 = PRODUCT_DEFINITION_SHAPE('Placement','Placement of an item',
  #1150);
#1150 = NEXT_ASSEMBLY_USAGE_OCCURRENCE('1','=>[0:1:1:2]','',#5,#31,$);
#1151 = PRODUCT_RELATED_PRODUCT_CATEGORY('part',$,(#33));
#1152 = SHAPE_DEFINITION_REPRESENTATION(#1153,#1159);
#1153 = PRODUCT_DEFINITION_SHAPE('','',#1154);
#1154 = PRODUCT_DEFINITION('design','',#1155,#1158);
#1155 = PRODUCT_DEFINITION_FORMATION('','',#1156);
#1156 = PRODUCT(
'electronic_fuse_5_2_x_20_mm_glass_plugin_disposable_xucheng_elec_5f_
0010220000r1_render_PCB',
'electronic_fuse_5_2_x_20_mm_glass_plugin_disposable_xucheng_elec_5f_
0010220000r1_render_PCB','',(#1157));
#1157 = PRODUCT_CONTEXT('',#2,'mechanical');
#1158 = PRODUCT_DEFINITION_CONTEXT('part definition',#2,'design');
#1159 = ADVANCED_BREP_SHAPE_REPRESENTATION('',(#11,#1160),#1466);
#1160 = MANIFOLD_SOLID_BREP('',#1161);
#1161 = CLOSED_SHELL('',(#1162,#1202,#1233,#1264,#1325,#1386,#1398,#1415
    ,#1432,#1449));
#1162 = ADVANCED_FACE('',(#1163),#1197,.T.);
#1163 = FACE_BOUND('',#1164,.T.);
#1164 = EDGE_LOOP('',(#1165,#1175,#1183,#1191));
#1165 = ORIENTED_EDGE('',*,*,#1166,.T.);
#1166 = EDGE_CURVE('',#1167,#1169,#1171,.T.);
#1167 = VERTEX_POINT('',#1168);
#1168 = CARTESIAN_POINT('',(24.4,-5.2,0.));
#1169 = VERTEX_POINT('',#1170);
#1170 = CARTESIAN_POINT('',(24.4,-5.2,1.51));
#1171 = LINE('',#1172,#1173);
#1172 = CARTESIAN_POINT('',(24.4,-5.2,0.));
#1173 = VECTOR('',#1174,1.);
#1174 = DIRECTION('',(0.,0.,1.));
#1175 = ORIENTED_EDGE('',*,*,#1176,.T.);
#1176 = EDGE_CURVE('',#1169,#1177,#1179,.T.);
#1177 = VERTEX_POINT('',#1178);
#1178 = CARTESIAN_POINT('',(-3.9,-5.2,1.51));
#1179 = LINE('',#1180,#1181);
#1180 = CARTESIAN_POINT('',(24.4,-5.2,1.51));
#1181 = VECTOR('',#1182,1.);
#1182 = DIRECTION('',(-1.,0.,0.));
#1183 = ORIENTED_EDGE('',*,*,#1184,.F.);
#1184 = EDGE_CURVE('',#1185,#1177,#1187,.T.);
#1185 = VERTEX_POINT('',#1186);
#1186 = CARTESIAN_POINT('',(-3.9,-5.2,0.));
#1187 = LINE('',#1188,#1189);
#1188 = CARTESIAN_POINT('',(-3.9,-5.2,0.));
#1189 = VECTOR('',#1190,1.);
#1190 = DIRECTION('',(0.,0.,1.));
#1191 = ORIENTED_EDGE('',*,*,#1192,.F.);
#1192 = EDGE_CURVE('',#1167,#1185,#1193,.T.);
#1193 = LINE('',#1194,#1195);
#1194 = CARTESIAN_POINT('',(24.4,-5.2,0.));
#1195 = VECTOR('',#1196,1.);
#1196 = DIRECTION('',(-1.,0.,0.));
#1197 = PLANE('',#1198);
#1198 = AXIS2_PLACEMENT_3D('',#1199,#1200,#1201);
#1199 = CARTESIAN_POINT('',(24.4,-5.2,0.));
#1200 = DIRECTION('',(0.,-1.,0.));
#1201 = DIRECTION('',(-1.,0.,0.));
#1202 = ADVANCED_FACE('',(#1203),#1228,.T.);
#1203 = FACE_BOUND('',#1204,.T.);
#1204 = EDGE_LOOP('',(#1205,#1215,#1221,#1222));
#1205 = ORIENTED_EDGE('',*,*,#1206,.T.);
#1206 = EDGE_CURVE('',#1207,#1209,#1211,.T.);
#1207 = VERTEX_POINT('',#1208);
#1208 = CARTESIAN_POINT('',(24.4,5.2,0.));
#1209 = VERTEX_POINT('',#1210);
#1210 = CARTESIAN_POINT('',(24.4,5.2,1.51));
#1211 = LINE('',#1212,#1213);
#1212 = CARTESIAN_POINT('',(24.4,5.2,0.));
#1213 = VECTOR('',#1214,1.);
#1214 = DIRECTION('',(0.,0.,1.));
#1215 = ORIENTED_EDGE('',*,*,#1216,.T.);
#1216 = EDGE_CURVE('',#1209,#1169,#1217,.T.);
#1217 = LINE('',#1218,#1219);
#1218 = CARTESIAN_POINT('',(24.4,5.2,1.51));
#1219 = VECTOR('',#1220,1.);
#1220 = DIRECTION('',(0.,-1.,0.));
#1221 = ORIENTED_EDGE('',*,*,#1166,.F.);
#1222 = ORIENTED_EDGE('',*,*,#1223,.F.);
#1223 = EDGE_CURVE('',#1207,#1167,#1224,.T.);
#1224 = LINE('',#1225,#1226);
#1225 = CARTESIAN_POINT('',(24.4,5.2,0.));
#1226 = VECTOR('',#1227,1.);
#1227 = DIRECTION('',(0.,-1.,0.));
#1228 = PLANE('',#1229);
#1229 = AXIS2_PLACEMENT_3D('',#1230,#1231,#1232);
#1230 = CARTESIAN_POINT('',(24.4,5.2,0.));
#1231 = DIRECTION('',(1.,0.,-0.));
#1232 = DIRECTION('',(0.,-1.,0.));
#1233 = ADVANCED_FACE('',(#1234),#1259,.T.);
#1234 = FACE_BOUND('',#1235,.T.);
#1235 = EDGE_LOOP('',(#1236,#1237,#1245,#1253));
#1236 = ORIENTED_EDGE('',*,*,#1184,.T.);
#1237 = ORIENTED_EDGE('',*,*,#1238,.T.);
#1238 = EDGE_CURVE('',#1177,#1239,#1241,.T.);
#1239 = VERTEX_POINT('',#1240);
#1240 = CARTESIAN_POINT('',(-3.9,5.2,1.51));
#1241 = LINE('',#1242,#1243);
#1242 = CARTESIAN_POINT('',(-3.9,-5.2,1.51));
#1243 = VECTOR('',#1244,1.);
#1244 = DIRECTION('',(0.,1.,0.));
#1245 = ORIENTED_EDGE('',*,*,#1246,.F.);
#1246 = EDGE_CURVE('',#1247,#1239,#1249,.T.);
#1247 = VERTEX_POINT('',#1248);
#1248 = CARTESIAN_POINT('',(-3.9,5.2,0.));
#1249 = LINE('',#1250,#1251);
#1250 = CARTESIAN_POINT('',(-3.9,5.2,0.));
#1251 = VECTOR('',#1252,1.);
#1252 = DIRECTION('',(0.,0.,1.));
#1253 = ORIENTED_EDGE('',*,*,#1254,.F.);
#1254 = EDGE_CURVE('',#1185,#1247,#1255,.T.);
#1255 = LINE('',#1256,#1257);
#1256 = CARTESIAN_POINT('',(-3.9,-5.2,0.));
#1257 = VECTOR('',#1258,1.);
#1258 = DIRECTION('',(0.,1.,0.));
#1259 = PLANE('',#1260);
#1260 = AXIS2_PLACEMENT_3D('',#1261,#1262,#1263);
#1261 = CARTESIAN_POINT('',(-3.9,-5.2,0.));
#1262 = DIRECTION('',(-1.,0.,0.));
#1263 = DIRECTION('',(0.,1.,0.));
#1264 = ADVANCED_FACE('',(#1265,#1276,#1287,#1298,#1309),#1320,.F.);
#1265 = FACE_BOUND('',#1266,.F.);
#1266 = EDGE_LOOP('',(#1267,#1268,#1269,#1275));
#1267 = ORIENTED_EDGE('',*,*,#1192,.F.);
#1268 = ORIENTED_EDGE('',*,*,#1223,.F.);
#1269 = ORIENTED_EDGE('',*,*,#1270,.F.);
#1270 = EDGE_CURVE('',#1247,#1207,#1271,.T.);
#1271 = LINE('',#1272,#1273);
#1272 = CARTESIAN_POINT('',(-3.9,5.2,0.));
#1273 = VECTOR('',#1274,1.);
#1274 = DIRECTION('',(1.,0.,0.));
#1275 = ORIENTED_EDGE('',*,*,#1254,.F.);
#1276 = FACE_BOUND('',#1277,.F.);
#1277 = EDGE_LOOP('',(#1278));
#1278 = ORIENTED_EDGE('',*,*,#1279,.T.);
#1279 = EDGE_CURVE('',#1280,#1280,#1282,.T.);
#1280 = VERTEX_POINT('',#1281);
#1281 = CARTESIAN_POINT('',(-1.232595164408E-32,-0.65,0.));
#1282 = CIRCLE('',#1283,0.65);
#1283 = AXIS2_PLACEMENT_3D('',#1284,#1285,#1286);
#1284 = CARTESIAN_POINT('',(-5.551115123126E-17,1.110223024625E-16,0.));
#1285 = DIRECTION('',(-0.,0.,-1.));
#1286 = DIRECTION('',(8.540177112501E-17,-1.,-0.));
#1287 = FACE_BOUND('',#1288,.F.);
#1288 = EDGE_LOOP('',(#1289));
#1289 = ORIENTED_EDGE('',*,*,#1290,.T.);
#1290 = EDGE_CURVE('',#1291,#1291,#1293,.T.);
#1291 = VERTEX_POINT('',#1292);
#1292 = CARTESIAN_POINT('',(4.6,-0.65,0.));
#1293 = CIRCLE('',#1294,0.65);
#1294 = AXIS2_PLACEMENT_3D('',#1295,#1296,#1297);
#1295 = CARTESIAN_POINT('',(4.6,2.498001805407E-16,0.));
#1296 = DIRECTION('',(-0.,0.,-1.));
#1297 = DIRECTION('',(-0.,-1.,0.));
#1298 = FACE_BOUND('',#1299,.F.);
#1299 = EDGE_LOOP('',(#1300));
#1300 = ORIENTED_EDGE('',*,*,#1301,.T.);
#1301 = EDGE_CURVE('',#1302,#1302,#1304,.T.);
#1302 = VERTEX_POINT('',#1303);
#1303 = CARTESIAN_POINT('',(20.5,-0.65,0.));
#1304 = CIRCLE('',#1305,0.65);
#1305 = AXIS2_PLACEMENT_3D('',#1306,#1307,#1308);
#1306 = CARTESIAN_POINT('',(20.5,-1.360023205166E-15,0.));
#1307 = DIRECTION('',(-0.,0.,-1.));
#1308 = DIRECTION('',(-0.,-1.,0.));
#1309 = FACE_BOUND('',#1310,.F.);
#1310 = EDGE_LOOP('',(#1311));
#1311 = ORIENTED_EDGE('',*,*,#1312,.T.);
#1312 = EDGE_CURVE('',#1313,#1313,#1315,.T.);
#1313 = VERTEX_POINT('',#1314);
#1314 = CARTESIAN_POINT('',(15.9,-0.65,0.));
#1315 = CIRCLE('',#1316,0.65);
#1316 = AXIS2_PLACEMENT_3D('',#1317,#1318,#1319);
#1317 = CARTESIAN_POINT('',(15.9,1.221245327088E-15,0.));
#1318 = DIRECTION('',(-0.,0.,-1.));
#1319 = DIRECTION('',(-0.,-1.,0.));
#1320 = PLANE('',#1321);
#1321 = AXIS2_PLACEMENT_3D('',#1322,#1323,#1324);
#1322 = CARTESIAN_POINT('',(0.,0.,0.));
#1323 = DIRECTION('',(0.,0.,1.));
#1324 = DIRECTION('',(1.,0.,-0.));
#1325 = ADVANCED_FACE('',(#1326,#1337,#1348,#1359,#1370),#1381,.T.);
#1326 = FACE_BOUND('',#1327,.T.);
#1327 = EDGE_LOOP('',(#1328,#1329,#1330,#1336));
#1328 = ORIENTED_EDGE('',*,*,#1176,.F.);
#1329 = ORIENTED_EDGE('',*,*,#1216,.F.);
#1330 = ORIENTED_EDGE('',*,*,#1331,.F.);
#1331 = EDGE_CURVE('',#1239,#1209,#1332,.T.);
#1332 = LINE('',#1333,#1334);
#1333 = CARTESIAN_POINT('',(-3.9,5.2,1.51));
#1334 = VECTOR('',#1335,1.);
#1335 = DIRECTION('',(1.,0.,0.));
#1336 = ORIENTED_EDGE('',*,*,#1238,.F.);
#1337 = FACE_BOUND('',#1338,.T.);
#1338 = EDGE_LOOP('',(#1339));
#1339 = ORIENTED_EDGE('',*,*,#1340,.T.);
#1340 = EDGE_CURVE('',#1341,#1341,#1343,.T.);
#1341 = VERTEX_POINT('',#1342);
#1342 = CARTESIAN_POINT('',(-1.232595164408E-32,-0.65,1.51));
#1343 = CIRCLE('',#1344,0.65);
#1344 = AXIS2_PLACEMENT_3D('',#1345,#1346,#1347);
#1345 = CARTESIAN_POINT('',(-5.551115123126E-17,1.110223024625E-16,1.51)
  );
#1346 = DIRECTION('',(-0.,0.,-1.));
#1347 = DIRECTION('',(8.540177112501E-17,-1.,-0.));
#1348 = FACE_BOUND('',#1349,.T.);
#1349 = EDGE_LOOP('',(#1350));
#1350 = ORIENTED_EDGE('',*,*,#1351,.T.);
#1351 = EDGE_CURVE('',#1352,#1352,#1354,.T.);
#1352 = VERTEX_POINT('',#1353);
#1353 = CARTESIAN_POINT('',(4.6,-0.65,1.51));
#1354 = CIRCLE('',#1355,0.65);
#1355 = AXIS2_PLACEMENT_3D('',#1356,#1357,#1358);
#1356 = CARTESIAN_POINT('',(4.6,2.498001805407E-16,1.51));
#1357 = DIRECTION('',(-0.,0.,-1.));
#1358 = DIRECTION('',(-0.,-1.,0.));
#1359 = FACE_BOUND('',#1360,.T.);
#1360 = EDGE_LOOP('',(#1361));
#1361 = ORIENTED_EDGE('',*,*,#1362,.T.);
#1362 = EDGE_CURVE('',#1363,#1363,#1365,.T.);
#1363 = VERTEX_POINT('',#1364);
#1364 = CARTESIAN_POINT('',(20.5,-0.65,1.51));
#1365 = CIRCLE('',#1366,0.65);
#1366 = AXIS2_PLACEMENT_3D('',#1367,#1368,#1369);
#1367 = CARTESIAN_POINT('',(20.5,-1.360023205166E-15,1.51));
#1368 = DIRECTION('',(-0.,0.,-1.));
#1369 = DIRECTION('',(-0.,-1.,0.));
#1370 = FACE_BOUND('',#1371,.T.);
#1371 = EDGE_LOOP('',(#1372));
#1372 = ORIENTED_EDGE('',*,*,#1373,.T.);
#1373 = EDGE_CURVE('',#1374,#1374,#1376,.T.);
#1374 = VERTEX_POINT('',#1375);
#1375 = CARTESIAN_POINT('',(15.9,-0.65,1.51));
#1376 = CIRCLE('',#1377,0.65);
#1377 = AXIS2_PLACEMENT_3D('',#1378,#1379,#1380);
#1378 = CARTESIAN_POINT('',(15.9,1.221245327088E-15,1.51));
#1379 = DIRECTION('',(-0.,0.,-1.));
#1380 = DIRECTION('',(-0.,-1.,0.));
#1381 = PLANE('',#1382);
#1382 = AXIS2_PLACEMENT_3D('',#1383,#1384,#1385);
#1383 = CARTESIAN_POINT('',(0.,0.,1.51));
#1384 = DIRECTION('',(0.,0.,1.));
#1385 = DIRECTION('',(1.,0.,-0.));
#1386 = ADVANCED_FACE('',(#1387),#1393,.T.);
#1387 = FACE_BOUND('',#1388,.T.);
#1388 = EDGE_LOOP('',(#1389,#1390,#1391,#1392));
#1389 = ORIENTED_EDGE('',*,*,#1246,.T.);
#1390 = ORIENTED_EDGE('',*,*,#1331,.T.);
#1391 = ORIENTED_EDGE('',*,*,#1206,.F.);
#1392 = ORIENTED_EDGE('',*,*,#1270,.F.);
#1393 = PLANE('',#1394);
#1394 = AXIS2_PLACEMENT_3D('',#1395,#1396,#1397);
#1395 = CARTESIAN_POINT('',(-3.9,5.2,0.));
#1396 = DIRECTION('',(0.,1.,0.));
#1397 = DIRECTION('',(1.,0.,0.));
#1398 = ADVANCED_FACE('',(#1399),#1410,.F.);
#1399 = FACE_BOUND('',#1400,.T.);
#1400 = EDGE_LOOP('',(#1401,#1402,#1408,#1409));
#1401 = ORIENTED_EDGE('',*,*,#1279,.T.);
#1402 = ORIENTED_EDGE('',*,*,#1403,.T.);
#1403 = EDGE_CURVE('',#1280,#1341,#1404,.T.);
#1404 = LINE('',#1405,#1406);
#1405 = CARTESIAN_POINT('',(-1.232595164408E-32,-0.65,-4.6E-02));
#1406 = VECTOR('',#1407,1.);
#1407 = DIRECTION('',(0.,0.,1.));
#1408 = ORIENTED_EDGE('',*,*,#1340,.F.);
#1409 = ORIENTED_EDGE('',*,*,#1403,.F.);
#1410 = CYLINDRICAL_SURFACE('',#1411,0.65);
#1411 = AXIS2_PLACEMENT_3D('',#1412,#1413,#1414);
#1412 = CARTESIAN_POINT('',(-5.551115123126E-17,1.110223024625E-16,
    -4.6E-02));
#1413 = DIRECTION('',(-0.,0.,-1.));
#1414 = DIRECTION('',(8.540177112501E-17,-1.,-0.));
#1415 = ADVANCED_FACE('',(#1416),#1427,.F.);
#1416 = FACE_BOUND('',#1417,.T.);
#1417 = EDGE_LOOP('',(#1418,#1419,#1425,#1426));
#1418 = ORIENTED_EDGE('',*,*,#1290,.T.);
#1419 = ORIENTED_EDGE('',*,*,#1420,.T.);
#1420 = EDGE_CURVE('',#1291,#1352,#1421,.T.);
#1421 = LINE('',#1422,#1423);
#1422 = CARTESIAN_POINT('',(4.6,-0.65,-4.6E-02));
#1423 = VECTOR('',#1424,1.);
#1424 = DIRECTION('',(0.,0.,1.));
#1425 = ORIENTED_EDGE('',*,*,#1351,.F.);
#1426 = ORIENTED_EDGE('',*,*,#1420,.F.);
#1427 = CYLINDRICAL_SURFACE('',#1428,0.65);
#1428 = AXIS2_PLACEMENT_3D('',#1429,#1430,#1431);
#1429 = CARTESIAN_POINT('',(4.6,2.498001805407E-16,-4.6E-02));
#1430 = DIRECTION('',(-0.,-0.,-1.));
#1431 = DIRECTION('',(-0.,-1.,0.));
#1432 = ADVANCED_FACE('',(#1433),#1444,.F.);
#1433 = FACE_BOUND('',#1434,.T.);
#1434 = EDGE_LOOP('',(#1435,#1436,#1442,#1443));
#1435 = ORIENTED_EDGE('',*,*,#1301,.T.);
#1436 = ORIENTED_EDGE('',*,*,#1437,.T.);
#1437 = EDGE_CURVE('',#1302,#1363,#1438,.T.);
#1438 = LINE('',#1439,#1440);
#1439 = CARTESIAN_POINT('',(20.5,-0.65,-4.6E-02));
#1440 = VECTOR('',#1441,1.);
#1441 = DIRECTION('',(0.,0.,1.));
#1442 = ORIENTED_EDGE('',*,*,#1362,.F.);
#1443 = ORIENTED_EDGE('',*,*,#1437,.F.);
#1444 = CYLINDRICAL_SURFACE('',#1445,0.65);
#1445 = AXIS2_PLACEMENT_3D('',#1446,#1447,#1448);
#1446 = CARTESIAN_POINT('',(20.5,-1.360023205166E-15,-4.6E-02));
#1447 = DIRECTION('',(-0.,-0.,-1.));
#1448 = DIRECTION('',(-0.,-1.,0.));
#1449 = ADVANCED_FACE('',(#1450),#1461,.F.);
#1450 = FACE_BOUND('',#1451,.T.);
#1451 = EDGE_LOOP('',(#1452,#1453,#1459,#1460));
#1452 = ORIENTED_EDGE('',*,*,#1312,.T.);
#1453 = ORIENTED_EDGE('',*,*,#1454,.T.);
#1454 = EDGE_CURVE('',#1313,#1374,#1455,.T.);
#1455 = LINE('',#1456,#1457);
#1456 = CARTESIAN_POINT('',(15.9,-0.65,-4.6E-02));
#1457 = VECTOR('',#1458,1.);
#1458 = DIRECTION('',(0.,0.,1.));
#1459 = ORIENTED_EDGE('',*,*,#1373,.F.);
#1460 = ORIENTED_EDGE('',*,*,#1454,.F.);
#1461 = CYLINDRICAL_SURFACE('',#1462,0.65);
#1462 = AXIS2_PLACEMENT_3D('',#1463,#1464,#1465);
#1463 = CARTESIAN_POINT('',(15.9,1.221245327088E-15,-4.6E-02));
#1464 = DIRECTION('',(-0.,-0.,-1.));
#1465 = DIRECTION('',(-0.,-1.,0.));
#1466 = ( GEOMETRIC_REPRESENTATION_CONTEXT(3) 
GLOBAL_UNCERTAINTY_ASSIGNED_CONTEXT((#1470)) 
GLOBAL_UNIT_ASSIGNED_CONTEXT((#1467,#1468,#1469)) REPRESENTATION_CONTEXT
('Context #1','3D Context with UNIT and UNCERTAINTY') );
#1467 = ( LENGTH_UNIT() NAMED_UNIT(*) SI_UNIT(.MILLI.,.METRE.) );
#1468 = ( NAMED_UNIT(*) PLANE_ANGLE_UNIT() SI_UNIT($,.RADIAN.) );
#1469 = ( NAMED_UNIT(*) SI_UNIT($,.STERADIAN.) SOLID_ANGLE_UNIT() );
#1470 = UNCERTAINTY_MEASURE_WITH_UNIT(LENGTH_MEASURE(1.E-07),#1467,
  'distance_accuracy_value','confusion accuracy');
#1471 = CONTEXT_DEPENDENT_SHAPE_REPRESENTATION(#1472,#1474);
#1472 = ( REPRESENTATION_RELATIONSHIP('','',#1159,#10) 
REPRESENTATION_RELATIONSHIP_WITH_TRANSFORMATION(#1473) 
SHAPE_REPRESENTATION_RELATIONSHIP() );
#1473 = ITEM_DEFINED_TRANSFORMATION('','',#11,#19);
#1474 = PRODUCT_DEFINITION_SHAPE('Placement','Placement of an item',
  #1475);
#1475 = NEXT_ASSEMBLY_USAGE_OCCURRENCE('2','=>[0:1:1:3]','',#5,#1154,$);
#1476 = PRODUCT_RELATED_PRODUCT_CATEGORY('part',$,(#1156));
#1477 = MECHANICAL_DESIGN_GEOMETRIC_PRESENTATION_REPRESENTATION('',(
    #1478,#1486,#1493,#1500,#1507,#1514,#1521,#1528,#1535,#1542,#1549,
    #1556),#1141);
#1478 = STYLED_ITEM('color',(#1479),#37);
#1479 = PRESENTATION_STYLE_ASSIGNMENT((#1480));
#1480 = SURFACE_STYLE_USAGE(.BOTH.,#1481);
#1481 = SURFACE_SIDE_STYLE('',(#1482));
#1482 = SURFACE_STYLE_FILL_AREA(#1483);
#1483 = FILL_AREA_STYLE('',(#1484));
#1484 = FILL_AREA_STYLE_COLOUR('',#1485);
#1485 = COLOUR_RGB('',0.735356983052,0.735356983052,0.735356983052);
#1486 = STYLED_ITEM('color',(#1487),#129);
#1487 = PRESENTATION_STYLE_ASSIGNMENT((#1488));
#1488 = SURFACE_STYLE_USAGE(.BOTH.,#1489);
#1489 = SURFACE_SIDE_STYLE('',(#1490));
#1490 = SURFACE_STYLE_FILL_AREA(#1491);
#1491 = FILL_AREA_STYLE('',(#1492));
#1492 = FILL_AREA_STYLE_COLOUR('',#1485);
#1493 = STYLED_ITEM('color',(#1494),#221);
#1494 = PRESENTATION_STYLE_ASSIGNMENT((#1495));
#1495 = SURFACE_STYLE_USAGE(.BOTH.,#1496);
#1496 = SURFACE_SIDE_STYLE('',(#1497));
#1497 = SURFACE_STYLE_FILL_AREA(#1498);
#1498 = FILL_AREA_STYLE('',(#1499));
#1499 = FILL_AREA_STYLE_COLOUR('',#1485);
#1500 = STYLED_ITEM('color',(#1501),#313);
#1501 = PRESENTATION_STYLE_ASSIGNMENT((#1502));
#1502 = SURFACE_STYLE_USAGE(.BOTH.,#1503);
#1503 = SURFACE_SIDE_STYLE('',(#1504));
#1504 = SURFACE_STYLE_FILL_AREA(#1505);
#1505 = FILL_AREA_STYLE('',(#1506));
#1506 = FILL_AREA_STYLE_COLOUR('',#1485);
#1507 = STYLED_ITEM('color',(#1508),#405);
#1508 = PRESENTATION_STYLE_ASSIGNMENT((#1509));
#1509 = SURFACE_STYLE_USAGE(.BOTH.,#1510);
#1510 = SURFACE_SIDE_STYLE('',(#1511));
#1511 = SURFACE_STYLE_FILL_AREA(#1512);
#1512 = FILL_AREA_STYLE('',(#1513));
#1513 = FILL_AREA_STYLE_COLOUR('',#1485);
#1514 = STYLED_ITEM('color',(#1515),#497);
#1515 = PRESENTATION_STYLE_ASSIGNMENT((#1516));
#1516 = SURFACE_STYLE_USAGE(.BOTH.,#1517);
#1517 = SURFACE_SIDE_STYLE('',(#1518));
#1518 = SURFACE_STYLE_FILL_AREA(#1519);
#1519 = FILL_AREA_STYLE('',(#1520));
#1520 = FILL_AREA_STYLE_COLOUR('',#1485);
#1521 = STYLED_ITEM('color',(#1522),#589);
#1522 = PRESENTATION_STYLE_ASSIGNMENT((#1523));
#1523 = SURFACE_STYLE_USAGE(.BOTH.,#1524);
#1524 = SURFACE_SIDE_STYLE('',(#1525));
#1525 = SURFACE_STYLE_FILL_AREA(#1526);
#1526 = FILL_AREA_STYLE('',(#1527));
#1527 = FILL_AREA_STYLE_COLOUR('',#1485);
#1528 = STYLED_ITEM('color',(#1529),#681);
#1529 = PRESENTATION_STYLE_ASSIGNMENT((#1530));
#1530 = SURFACE_STYLE_USAGE(.BOTH.,#1531);
#1531 = SURFACE_SIDE_STYLE('',(#1532));
#1532 = SURFACE_STYLE_FILL_AREA(#1533);
#1533 = FILL_AREA_STYLE('',(#1534));
#1534 = FILL_AREA_STYLE_COLOUR('',#1485);
#1535 = STYLED_ITEM('color',(#1536),#773);
#1536 = PRESENTATION_STYLE_ASSIGNMENT((#1537));
#1537 = SURFACE_STYLE_USAGE(.BOTH.,#1538);
#1538 = SURFACE_SIDE_STYLE('',(#1539));
#1539 = SURFACE_STYLE_FILL_AREA(#1540);
#1540 = FILL_AREA_STYLE('',(#1541));
#1541 = FILL_AREA_STYLE_COLOUR('',#1485);
#1542 = STYLED_ITEM('color',(#1543),#865);
#1543 = PRESENTATION_STYLE_ASSIGNMENT((#1544));
#1544 = SURFACE_STYLE_USAGE(.BOTH.,#1545);
#1545 = SURFACE_SIDE_STYLE('',(#1546));
#1546 = SURFACE_STYLE_FILL_AREA(#1547);
#1547 = FILL_AREA_STYLE('',(#1548));
#1548 = FILL_AREA_STYLE_COLOUR('',#1485);
#1549 = STYLED_ITEM('color',(#1550),#957);
#1550 = PRESENTATION_STYLE_ASSIGNMENT((#1551));
#1551 = SURFACE_STYLE_USAGE(.BOTH.,#1552);
#1552 = SURFACE_SIDE_STYLE('',(#1553));
#1553 = SURFACE_STYLE_FILL_AREA(#1554);
#1554 = FILL_AREA_STYLE('',(#1555));
#1555 = FILL_AREA_STYLE_COLOUR('',#1485);
#1556 = STYLED_ITEM('color',(#1557),#1049);
#1557 = PRESENTATION_STYLE_ASSIGNMENT((#1558));
#1558 = SURFACE_STYLE_USAGE(.BOTH.,#1559);
#1559 = SURFACE_SIDE_STYLE('',(#1560));
#1560 = SURFACE_STYLE_FILL_AREA(#1561);
#1561 = FILL_AREA_STYLE('',(#1562));
#1562 = FILL_AREA_STYLE_COLOUR('',#1485);
#1563 = MECHANICAL_DESIGN_GEOMETRIC_PRESENTATION_REPRESENTATION('',(
    #1564),#1466);
#1564 = STYLED_ITEM('color',(#1565),#1160);
#1565 = PRESENTATION_STYLE_ASSIGNMENT((#1566));
#1566 = SURFACE_STYLE_USAGE(.BOTH.,#1567);
#1567 = SURFACE_SIDE_STYLE('',(#1568));
#1568 = SURFACE_STYLE_FILL_AREA(#1569);
#1569 = FILL_AREA_STYLE('',(#1570));
#1570 = FILL_AREA_STYLE_COLOUR('',#1571);
#1571 = COLOUR_RGB('',0.313304153717,0.484529207832,0.410020903123);
ENDSEC;
END-ISO-10303-21;
