%TF.GenerationSoftware,KiCad,Pcbnew,10.99.0-3758-g2f18d95be7*%
%TF.CreationDate,2026-09-13T07:33:21+01:00*%
%TF.ProjectId,kicad_file,6b696361-645f-4666-996c-652e6b696361,rev?*%
%TF.SameCoordinates,Original*%
%TF.FileFunction,Drillmap*%
%TF.FilePolarity,Positive*%
%FSLAX45Y45*%
G04 Gerber Fmt 4.5, Leading zero omitted, Abs format (unit mm)*
G04 Created by KiCad (PCBNEW 10.99.0-3758-g2f18d95be7) date 2026-09-13 07:33:21*
%MOMM*%
%LPD*%
G01*
G04 APERTURE LIST*
%ADD10C,0.100000*%
%ADD11C,0.200000*%
G04 APERTURE END LIST*
D10*
X12275000Y-8000000D02*
X12275000Y-10100000D01*
X14200000Y-10100000D02*
X14200000Y-8000000D01*
X12275000Y-10100000D02*
X14200000Y-10100000D01*
X14200000Y-8000000D02*
X12275000Y-8000000D01*
D11*
X12530777Y-10416484D02*
X12530777Y-10216484D01*
X12530777Y-10216484D02*
X12578396Y-10216484D01*
X12578396Y-10216484D02*
X12606967Y-10226008D01*
X12606967Y-10226008D02*
X12626015Y-10245055D01*
X12626015Y-10245055D02*
X12635539Y-10264103D01*
X12635539Y-10264103D02*
X12645062Y-10302198D01*
X12645062Y-10302198D02*
X12645062Y-10330770D01*
X12645062Y-10330770D02*
X12635539Y-10368865D01*
X12635539Y-10368865D02*
X12626015Y-10387912D01*
X12626015Y-10387912D02*
X12606967Y-10406960D01*
X12606967Y-10406960D02*
X12578396Y-10416484D01*
X12578396Y-10416484D02*
X12530777Y-10416484D01*
X12730777Y-10416484D02*
X12730777Y-10283150D01*
X12730777Y-10321246D02*
X12740301Y-10302198D01*
X12740301Y-10302198D02*
X12749824Y-10292674D01*
X12749824Y-10292674D02*
X12768872Y-10283150D01*
X12768872Y-10283150D02*
X12787920Y-10283150D01*
X12854586Y-10416484D02*
X12854586Y-10283150D01*
X12854586Y-10216484D02*
X12845062Y-10226008D01*
X12845062Y-10226008D02*
X12854586Y-10235531D01*
X12854586Y-10235531D02*
X12864110Y-10226008D01*
X12864110Y-10226008D02*
X12854586Y-10216484D01*
X12854586Y-10216484D02*
X12854586Y-10235531D01*
X12978396Y-10416484D02*
X12959348Y-10406960D01*
X12959348Y-10406960D02*
X12949824Y-10387912D01*
X12949824Y-10387912D02*
X12949824Y-10216484D01*
X13083158Y-10416484D02*
X13064110Y-10406960D01*
X13064110Y-10406960D02*
X13054586Y-10387912D01*
X13054586Y-10387912D02*
X13054586Y-10216484D01*
X13311729Y-10416484D02*
X13311729Y-10216484D01*
X13311729Y-10216484D02*
X13378396Y-10359341D01*
X13378396Y-10359341D02*
X13445062Y-10216484D01*
X13445062Y-10216484D02*
X13445062Y-10416484D01*
X13626015Y-10416484D02*
X13626015Y-10311722D01*
X13626015Y-10311722D02*
X13616491Y-10292674D01*
X13616491Y-10292674D02*
X13597443Y-10283150D01*
X13597443Y-10283150D02*
X13559348Y-10283150D01*
X13559348Y-10283150D02*
X13540301Y-10292674D01*
X13626015Y-10406960D02*
X13606967Y-10416484D01*
X13606967Y-10416484D02*
X13559348Y-10416484D01*
X13559348Y-10416484D02*
X13540301Y-10406960D01*
X13540301Y-10406960D02*
X13530777Y-10387912D01*
X13530777Y-10387912D02*
X13530777Y-10368865D01*
X13530777Y-10368865D02*
X13540301Y-10349817D01*
X13540301Y-10349817D02*
X13559348Y-10340293D01*
X13559348Y-10340293D02*
X13606967Y-10340293D01*
X13606967Y-10340293D02*
X13626015Y-10330770D01*
X13721253Y-10283150D02*
X13721253Y-10483150D01*
X13721253Y-10292674D02*
X13740301Y-10283150D01*
X13740301Y-10283150D02*
X13778396Y-10283150D01*
X13778396Y-10283150D02*
X13797443Y-10292674D01*
X13797443Y-10292674D02*
X13806967Y-10302198D01*
X13806967Y-10302198D02*
X13816491Y-10321246D01*
X13816491Y-10321246D02*
X13816491Y-10378389D01*
X13816491Y-10378389D02*
X13806967Y-10397436D01*
X13806967Y-10397436D02*
X13797443Y-10406960D01*
X13797443Y-10406960D02*
X13778396Y-10416484D01*
X13778396Y-10416484D02*
X13740301Y-10416484D01*
X13740301Y-10416484D02*
X13721253Y-10406960D01*
X13902205Y-10397436D02*
X13911729Y-10406960D01*
X13911729Y-10406960D02*
X13902205Y-10416484D01*
X13902205Y-10416484D02*
X13892682Y-10406960D01*
X13892682Y-10406960D02*
X13902205Y-10397436D01*
X13902205Y-10397436D02*
X13902205Y-10416484D01*
X13902205Y-10292674D02*
X13911729Y-10302198D01*
X13911729Y-10302198D02*
X13902205Y-10311722D01*
X13902205Y-10311722D02*
X13892682Y-10302198D01*
X13892682Y-10302198D02*
X13902205Y-10292674D01*
X13902205Y-10292674D02*
X13902205Y-10311722D01*
M02*
