%TF.GenerationSoftware,KiCad,Pcbnew,10.99.0-3758-g2f18d95be7*%
%TF.CreationDate,2026-09-22T02:43:09+01:00*%
%TF.ProjectId,kicad_file,6b696361-645f-4666-996c-652e6b696361,rev?*%
%TF.SameCoordinates,Original*%
%TF.FileFunction,Paste,Top*%
%TF.FilePolarity,Positive*%
%FSLAX46Y46*%
G04 Gerber Fmt 4.6, Leading zero omitted, Abs format (unit mm)*
G04 Created by KiCad (PCBNEW 10.99.0-3758-g2f18d95be7) date 2026-09-22 02:43:09*
%MOMM*%
%LPD*%
G01*
G04 APERTURE LIST*
%ADD10R,0.550000X1.200000*%
%ADD11R,0.550000X0.350000*%
%ADD12R,1.000000X1.075000*%
%ADD13R,1.550000X0.600000*%
%ADD14R,1.800000X1.200000*%
%ADD15R,1.240000X1.500000*%
%ADD16R,0.450000X0.900000*%
%ADD17R,0.500000X0.500000*%
%ADD18R,0.500000X0.400000*%
%ADD19R,1.075000X1.000000*%
%ADD20R,0.800000X0.800000*%
G04 APERTURE END LIST*
D10*
%TO.C,U2*%
X6924000Y8224900D03*
X7874000Y8224900D03*
X8824000Y8224900D03*
X8824000Y10825100D03*
X6924000Y10825100D03*
%TD*%
D11*
%TO.C,X1*%
X13400000Y8490000D03*
X13400000Y9290000D03*
X12000000Y9290000D03*
X12000000Y8490000D03*
%TD*%
D12*
%TO.C,R1*%
X5588000Y13296000D03*
X5588000Y11596000D03*
%TD*%
D13*
%TO.C,CONN3*%
X20219000Y7390000D03*
X20219000Y8390000D03*
X20219000Y9390000D03*
X20219000Y10390000D03*
D14*
X24119000Y6090000D03*
X24119000Y11690000D03*
%TD*%
D13*
%TO.C,CONN4*%
X5181000Y10390000D03*
X5181000Y9390000D03*
X5181000Y8390000D03*
X5181000Y7390000D03*
D14*
X1281000Y11690000D03*
X1281000Y6090000D03*
%TD*%
D15*
%TO.C,C2*%
X6670000Y6096000D03*
X8570000Y6096000D03*
%TD*%
D16*
%TO.C,R3*%
X18826000Y12280000D03*
X17926000Y12280000D03*
X17126000Y12280000D03*
X16226000Y12280000D03*
X16226000Y10580000D03*
X17126000Y10580000D03*
X17926000Y10580000D03*
X18826000Y10580000D03*
%TD*%
D17*
%TO.C,Q2*%
X17981500Y5346000D03*
D18*
X17981500Y6096000D03*
D17*
X17981500Y6846000D03*
X16181500Y6846000D03*
D18*
X16181500Y6096000D03*
D17*
X16181500Y5346000D03*
%TD*%
D19*
%TO.C,C1*%
X10199000Y5588000D03*
X11899000Y5588000D03*
%TD*%
D15*
%TO.C,C3*%
X7051000Y12827000D03*
X8951000Y12827000D03*
%TD*%
D20*
%TO.C,D1*%
X4306000Y12573000D03*
X2806000Y12573000D03*
%TD*%
M02*
