%TF.GenerationSoftware,KiCad,Pcbnew,10.99.0-3671-gbe90a7e200*%
%TF.CreationDate,2026-09-09T23:05:57+01:00*%
%TF.ProjectId,kicad_file,6b696361-645f-4666-996c-652e6b696361,rev?*%
%TF.SameCoordinates,Original*%
%TF.FileFunction,Soldermask,Top*%
%TF.FilePolarity,Negative*%
%FSLAX46Y46*%
G04 Gerber Fmt 4.6, Leading zero omitted, Abs format (unit mm)*
G04 Created by KiCad (PCBNEW 10.99.0-3671-gbe90a7e200) date 2026-09-09 23:05:57*
%MOMM*%
%LPD*%
G01*
G04 APERTURE LIST*
G04 Aperture macros list*
%AMRoundRect*
0 Rectangle with rounded corners*
0 $1 Rounding radius*
0 $2 $3 $4 $5 $6 $7 $8 $9 X,Y pos of 4 corners*
0 Add a 4 corners polygon primitive as box body*
4,1,4,$2,$3,$4,$5,$6,$7,$8,$9,$2,$3,0*
0 Add four circle primitives for the rounded corners*
1,1,$1+$1,$2,$3*
1,1,$1+$1,$4,$5*
1,1,$1+$1,$6,$7*
1,1,$1+$1,$8,$9*
0 Add four rect primitives between the rounded corners*
20,1,$1+$1,$2,$3,$4,$5,0*
20,1,$1+$1,$4,$5,$6,$7,0*
20,1,$1+$1,$6,$7,$8,$9,0*
20,1,$1+$1,$8,$9,$2,$3,0*%
G04 Aperture macros list end*
%ADD10C,0.250000*%
%ADD11RoundRect,0.050800X-0.537500X-0.500000X0.537500X-0.500000X0.537500X0.500000X-0.537500X0.500000X0*%
%ADD12RoundRect,0.300800X-0.000010X-0.000010X0.000010X-0.000010X0.000010X0.000010X-0.000010X0.000010X0*%
%ADD13C,3.301600*%
%ADD14RoundRect,0.050800X0.750000X-0.620000X0.750000X0.620000X-0.750000X0.620000X-0.750000X-0.620000X0*%
%ADD15RoundRect,0.050800X0.250000X-0.250000X0.250000X0.250000X-0.250000X0.250000X-0.250000X-0.250000X0*%
%ADD16RoundRect,0.050800X0.250000X-0.200000X0.250000X0.200000X-0.250000X0.200000X-0.250000X-0.200000X0*%
%ADD17RoundRect,0.050800X0.225000X0.450000X-0.225000X0.450000X-0.225000X-0.450000X0.225000X-0.450000X0*%
%ADD18RoundRect,0.050800X-0.620000X-0.750000X0.620000X-0.750000X0.620000X0.750000X-0.620000X0.750000X0*%
%ADD19RoundRect,0.050800X0.750000X1.100000X-0.750000X1.100000X-0.750000X-1.100000X0.750000X-1.100000X0*%
%ADD20RoundRect,0.050800X0.500000X-0.537500X0.500000X0.537500X-0.500000X0.537500X-0.500000X-0.537500X0*%
%ADD21RoundRect,0.050800X0.400000X-0.400000X0.400000X0.400000X-0.400000X0.400000X-0.400000X-0.400000X0*%
%ADD22C,1.879600*%
%ADD23RoundRect,0.050800X-0.287500X-0.244000X0.287500X-0.244000X0.287500X0.244000X-0.287500X0.244000X0*%
%ADD24RoundRect,0.050800X0.537500X0.500000X-0.537500X0.500000X-0.537500X-0.500000X0.537500X-0.500000X0*%
%ADD25RoundRect,0.050800X-0.600000X0.275000X-0.600000X-0.275000X0.600000X-0.275000X0.600000X0.275000X0*%
%ADD26RoundRect,0.050800X0.775000X0.300000X-0.775000X0.300000X-0.775000X-0.300000X0.775000X-0.300000X0*%
%ADD27RoundRect,0.050800X0.900000X0.600000X-0.900000X0.600000X-0.900000X-0.600000X0.900000X-0.600000X0*%
%ADD28RoundRect,0.050800X-0.775000X-0.300000X0.775000X-0.300000X0.775000X0.300000X-0.775000X0.300000X0*%
%ADD29RoundRect,0.050800X-0.900000X-0.600000X0.900000X-0.600000X0.900000X0.600000X-0.900000X0.600000X0*%
G04 APERTURE END LIST*
%TO.C,FID4*%
D10*
X8288000Y16637000D02*
G75*
G02*
X8763000Y17112000I475000J0D01*
G01*
X8763000Y17112000D02*
G75*
G02*
X9238000Y16612000I-12500J-487500D01*
G01*
X8763000Y16162000D02*
G75*
G02*
X8288000Y16637000I0J475000D01*
G01*
X9238000Y16612000D02*
G75*
G02*
X8762998Y16162000I-462500J12500D01*
G01*
%TO.C,FID3*%
X20480000Y4953000D02*
G75*
G02*
X20955000Y5428000I475000J0D01*
G01*
X20955000Y5428000D02*
G75*
G02*
X21430000Y4928000I-12500J-487500D01*
G01*
X20955000Y4478000D02*
G75*
G02*
X20480000Y4953000I0J475000D01*
G01*
X21430000Y4928000D02*
G75*
G02*
X20954998Y4478000I-462500J12500D01*
G01*
%TD*%
D11*
%TO.C,R2*%
X16676000Y5207000D03*
X18376000Y5207000D03*
%TD*%
D12*
%TO.C,FID4*%
X8763000Y16637000D03*
%TD*%
D13*
%TO.C,U$17*%
X22860000Y15240000D03*
%TD*%
D12*
%TO.C,FID3*%
X20955000Y4953000D03*
%TD*%
D14*
%TO.C,C3*%
X9271000Y10607000D03*
X9271000Y12507000D03*
%TD*%
D15*
%TO.C,Q2*%
X18553000Y7378000D03*
D16*
X18553000Y8128000D03*
D15*
X18553000Y8878000D03*
X16753000Y8878000D03*
D16*
X16753000Y8128000D03*
D15*
X16753000Y7378000D03*
%TD*%
D14*
%TO.C,C4*%
X7239000Y10607000D03*
X7239000Y12507000D03*
%TD*%
D17*
%TO.C,R3*%
X18699000Y12280000D03*
X17799000Y12280000D03*
X16999000Y12280000D03*
X16099000Y12280000D03*
X16099000Y10580000D03*
X16999000Y10580000D03*
X17799000Y10580000D03*
X18699000Y10580000D03*
%TD*%
D18*
%TO.C,C2*%
X6797000Y5715000D03*
X8697000Y5715000D03*
%TD*%
D19*
%TO.C,LED1*%
X14250000Y15875000D03*
X11150000Y15875000D03*
%TD*%
D20*
%TO.C,R1*%
X5588000Y11596000D03*
X5588000Y13296000D03*
%TD*%
D21*
%TO.C,D1*%
X4306000Y12573000D03*
X2806000Y12573000D03*
%TD*%
D13*
%TO.C,U$1*%
X2540000Y15240000D03*
%TD*%
D22*
%TO.C,JP1*%
X6350000Y2540000D03*
X8890000Y2540000D03*
X11430000Y2540000D03*
X13970000Y2540000D03*
X16510000Y2540000D03*
X19050000Y2540000D03*
%TD*%
D23*
%TO.C,X1*%
X12065000Y9709000D03*
X12065000Y8909000D03*
X12065000Y8109000D03*
X12065000Y7309000D03*
X13335000Y7309000D03*
X13335000Y8109000D03*
X13335000Y8909000D03*
X13335000Y9709000D03*
%TD*%
D24*
%TO.C,C1*%
X11899000Y5588000D03*
X10199000Y5588000D03*
%TD*%
D25*
%TO.C,U1*%
X6955000Y9205000D03*
X6955000Y8255000D03*
X6955000Y7305000D03*
X9555000Y7305000D03*
X9555000Y8255000D03*
X9555000Y9205000D03*
%TD*%
D13*
%TO.C,U$21*%
X22860000Y2540000D03*
%TD*%
D26*
%TO.C,CONN3*%
X20346000Y7390000D03*
X20346000Y8390000D03*
X20346000Y9390000D03*
X20346000Y10390000D03*
D27*
X24246000Y6090000D03*
X24246000Y11690000D03*
%TD*%
D13*
%TO.C,U$19*%
X2540000Y2540000D03*
%TD*%
D28*
%TO.C,CONN4*%
X5054000Y10390000D03*
X5054000Y9390000D03*
X5054000Y8390000D03*
X5054000Y7390000D03*
D29*
X1154000Y11690000D03*
X1154000Y6090000D03*
%TD*%
M02*
