M48
; DRILL file KiCad 10.99.0-3671-gbe90a7e200 date 2026-09-10T00:04:54
; FORMAT={-:-/ absolute / metric / decimal}
; #@! TF.CreationDate,2026-09-10T00:04:54+01:00
; #@! TF.GenerationSoftware,Kicad,Pcbnew,10.99.0-3671-gbe90a7e200
; #@! TF.FileFunction,Plated,1,16,PTH
FMAT,2
METRIC
; #@! TA.AperFunction,Plated,PTH,ComponentDrill
T1C1.016
%
G90
G05
T1
X-26.67Y50.8
X-26.67Y48.26
X-26.67Y45.72
X-26.67Y43.18
X-26.67Y40.64
X-26.67Y38.1
X-26.67Y35.56
X-26.67Y33.02
X-26.67Y30.48
X-26.67Y27.94
X-26.67Y25.4
X-26.67Y22.86
X-26.67Y20.32
X-26.67Y17.78
X-26.67Y15.24
X-26.67Y12.7
X-26.67Y10.16
X-26.67Y7.62
X-26.67Y5.08
X-26.67Y2.54
X-24.13Y-1.27
X-24.13Y-3.81
X-21.59Y-1.27
X-21.59Y-3.81
X-19.05Y-1.27
X-19.05Y-3.81
X-16.51Y-1.27
X-16.51Y-3.81
X-13.97Y-1.27
X-13.97Y-3.81
X-11.43Y-1.27
X-11.43Y-3.81
X-8.89Y-1.27
X-8.89Y-3.81
X-6.35Y-1.27
X-6.35Y-3.81
X-3.81Y-1.27
X-3.81Y-3.81
X-1.27Y-1.27
X-1.27Y-3.81
X1.27Y-1.27
X1.27Y-3.81
X3.81Y-1.27
X3.81Y-3.81
X6.35Y-1.27
X6.35Y-3.81
X8.89Y-1.27
X8.89Y-3.81
X11.43Y-1.27
X11.43Y-3.81
X13.97Y-1.27
X13.97Y-3.81
X16.51Y-1.27
X16.51Y-3.81
X19.05Y-1.27
X19.05Y-3.81
X21.59Y-1.27
X21.59Y-3.81
X24.13Y-1.27
X24.13Y-3.81
X26.67Y50.8
X26.67Y48.26
X26.67Y45.72
X26.67Y43.18
X26.67Y40.64
X26.67Y38.1
X26.67Y35.56
X26.67Y33.02
X26.67Y30.48
X26.67Y27.94
X26.67Y25.4
X26.67Y22.86
X26.67Y20.32
X26.67Y17.78
X26.67Y15.24
X26.67Y12.7
X26.67Y10.16
X26.67Y7.62
X26.67Y5.08
X26.67Y2.54
M30
