<?xml version="1.0" encoding="utf-8"?>
<svg xmlns="http://www.w3.org/2000/svg" xmlns:xlink="http://www.w3.org/1999/xlink" viewBox="-6.0000 -44.1000 50.1000 50.1000">
<defs>
<style>
.page { fill: var(--brd-page, #FFFFFF); }
.board { fill: var(--brd-board-fill, #FFFFFF); stroke: var(--brd-board-outline, #000000); stroke-width: 0.35; }
.edge-cut { fill: none; stroke: var(--brd-board-outline, #000000); stroke-width: 0.25; }
.component { fill: var(--brd-component-fill, #FFFFFF); stroke: var(--brd-component-outline, #000000); stroke-width: 0.18; }
.mechanical-pad { fill: var(--brd-page, #FFFFFF); stroke: var(--brd-component-outline, #000000); stroke-width: 0.18; }
.mounting-hole { fill: var(--brd-page, #FFFFFF); stroke: var(--brd-component-outline, #000000); stroke-width: 0.22; }
.reference { fill: var(--brd-text, #000000); font-family: Arial, sans-serif; font-size: 0.72px; text-anchor: middle; paint-order: stroke; stroke: var(--brd-plate, #FFFFFF); stroke-width: 0.35px; }
.indicator-plate { fill: var(--brd-plate, #FFFFFF); fill-opacity: .55; }
.indicator-text { fill: var(--brd-plate-text, #000000); }
</style>
</defs>
<rect class="page" x="-6.0000" y="-44.1000" width="50.1000" height="50.1000" />
<rect class="board" x="0.0000" y="-38.1000" width="38.1000" height="38.1000" rx="1.0" />
<polyline class="edge-cut" points="38.1000,-34.2900 38.1000,-3.8100" />
<polyline class="edge-cut" points="34.2900,0.0000 3.8100,0.0000" />
<polyline class="edge-cut" points="3.8100,-38.1000 34.2900,-38.1000" />
<polyline class="edge-cut" points="0.0000,-3.8100 0.0000,-34.2900" />
<polyline class="edge-cut" points="38.1000,-34.2900 38.0674,-34.7873 37.9702,-35.2761 37.8100,-35.7480 37.5896,-36.1950 37.3127,-36.6094 36.9841,-36.9841 36.6094,-37.3127 36.1950,-37.5896 35.7480,-37.8100 35.2761,-37.9702 34.7873,-38.0674 34.2900,-38.1000" />
<polyline class="edge-cut" points="34.2900,0.0000 34.7873,-0.0326 35.2761,-0.1298 35.7480,-0.2900 36.1950,-0.5104 36.6094,-0.7873 36.9841,-1.1159 37.3127,-1.4906 37.5896,-1.9050 37.8100,-2.3520 37.9702,-2.8239 38.0674,-3.3127 38.1000,-3.8100" />
<polyline class="edge-cut" points="3.8100,-38.1000 3.3127,-38.0674 2.8239,-37.9702 2.3520,-37.8100 1.9050,-37.5896 1.4906,-37.3127 1.1159,-36.9841 0.7873,-36.6094 0.5104,-36.1950 0.2900,-35.7480 0.1298,-35.2761 0.0326,-34.7873 0.0000,-34.2900" />
<polyline class="edge-cut" points="0.0000,-3.8100 0.0326,-3.3127 0.1298,-2.8239 0.2900,-2.3520 0.5104,-1.9050 0.7873,-1.4906 1.1159,-1.1159 1.4906,-0.7873 1.9050,-0.5104 2.3520,-0.2900 2.8239,-0.1298 3.3127,-0.0326 3.8100,0.0000" />
<circle class="mechanical-pad" cx="26.6700" cy="-25.7175" r="1.2700" />
<circle class="mounting-hole" cx="26.6700" cy="-25.7175" r="0.6985" />
<circle class="mechanical-pad" cx="26.6700" cy="-12.3825" r="1.2700" />
<circle class="mounting-hole" cx="26.6700" cy="-12.3825" r="0.6985" />
<circle class="mechanical-pad" cx="11.4300" cy="-25.7175" r="1.2700" />
<circle class="mounting-hole" cx="11.4300" cy="-25.7175" r="0.6985" />
<circle class="mechanical-pad" cx="11.4300" cy="-12.3825" r="1.2700" />
<circle class="mounting-hole" cx="11.4300" cy="-12.3825" r="0.6985" />
<circle class="mounting-hole" cx="34.2900" cy="-3.8100" r="1.6000" />
<circle class="mounting-hole" cx="34.2900" cy="-34.2900" r="1.6000" />
<circle class="mounting-hole" cx="3.8100" cy="-34.2900" r="1.6000" />
<circle class="mounting-hole" cx="3.8100" cy="-3.8100" r="1.6000" />
</svg>
