%TF.GenerationSoftware,KiCad,Pcbnew,10.99.0-3671-gbe90a7e200*%
%TF.CreationDate,2026-09-09T23:00:00+01:00*%
%TF.ProjectId,kicad_file,6b696361-645f-4666-996c-652e6b696361,rev?*%
%TF.SameCoordinates,Original*%
%TF.FileFunction,Paste,Top*%
%TF.FilePolarity,Positive*%
%FSLAX46Y46*%
G04 Gerber Fmt 4.6, Leading zero omitted, Abs format (unit mm)*
G04 Created by KiCad (PCBNEW 10.99.0-3671-gbe90a7e200) date 2026-09-09 23:00:00*
%MOMM*%
%LPD*%
G01*
G04 APERTURE LIST*
%ADD10R,1.200000X0.550000*%
%ADD11R,1.075000X1.000000*%
%ADD12R,0.635000X1.016000*%
%ADD13R,1.240000X1.500000*%
%ADD14R,2.209800X0.609600*%
%ADD15R,1.000000X1.075000*%
%ADD16R,1.000000X0.700000*%
%ADD17R,1.600000X0.700000*%
%ADD18R,1.550000X0.600000*%
%ADD19R,1.800000X1.200000*%
%ADD20R,1.400000X1.400000*%
%ADD21R,0.406400X0.812800*%
%ADD22R,0.812800X0.406400*%
%ADD23R,0.990600X0.990600*%
G04 APERTURE END LIST*
D10*
%TO.C,U2*%
X17546700Y13243600D03*
X17546700Y12293600D03*
X17546700Y11343600D03*
X20146900Y11343600D03*
X20146900Y13243600D03*
%TD*%
D11*
%TO.C,R6*%
X13296000Y10287000D03*
X11596000Y10287000D03*
%TD*%
D10*
%TO.C,IC2*%
X20391600Y6207800D03*
X20391600Y5257800D03*
X20391600Y4307800D03*
X22991600Y4307800D03*
X22991600Y6207800D03*
%TD*%
D12*
%TO.C,Q3*%
X16093400Y16856200D03*
X17993400Y16856200D03*
X17043400Y18856200D03*
%TD*%
D11*
%TO.C,R3*%
X7405000Y6731000D03*
X9105000Y6731000D03*
%TD*%
D13*
%TO.C,C1*%
X21529000Y14986000D03*
X23429000Y14986000D03*
%TD*%
D14*
%TO.C,ECC1*%
X7543800Y15367000D03*
X7543800Y14097000D03*
X7543800Y12827000D03*
X7543800Y11557000D03*
X12776200Y11557000D03*
X12776200Y12827000D03*
X12776200Y14097000D03*
X12776200Y15367000D03*
%TD*%
D15*
%TO.C,R12*%
X14732000Y14974200D03*
X14732000Y16674200D03*
%TD*%
D11*
%TO.C,C12*%
X21654400Y11303000D03*
X23354400Y11303000D03*
%TD*%
D16*
%TO.C,SW2*%
X11904400Y21496600D03*
X7958400Y21496600D03*
X11904400Y19346600D03*
X7958400Y19346600D03*
%TD*%
D13*
%TO.C,C2*%
X40591700Y19151600D03*
X42491700Y19151600D03*
%TD*%
D15*
%TO.C,R7*%
X16065500Y11469000D03*
X16065500Y13169000D03*
%TD*%
D13*
%TO.C,C10*%
X21579800Y13030200D03*
X23479800Y13030200D03*
%TD*%
D11*
%TO.C,R4*%
X7405000Y8382000D03*
X9105000Y8382000D03*
%TD*%
%TO.C,R2*%
X7405000Y5080000D03*
X9105000Y5080000D03*
%TD*%
D17*
%TO.C,D3*%
X10861000Y7831000D03*
X10861000Y6731000D03*
X10861000Y5631000D03*
X13827000Y5631000D03*
X13827000Y6731000D03*
X13827000Y7831000D03*
%TD*%
D18*
%TO.C,CONN1*%
X5054000Y12930000D03*
X5054000Y11930000D03*
X5054000Y10930000D03*
X5054000Y9930000D03*
D19*
X1154000Y14230000D03*
X1154000Y8630000D03*
%TD*%
D20*
%TO.C,D4*%
X19761200Y18639400D03*
X19761200Y14939400D03*
%TD*%
D13*
%TO.C,C8*%
X21563600Y16956800D03*
X23463600Y16956800D03*
%TD*%
D11*
%TO.C,R5*%
X8548000Y10287000D03*
X10248000Y10287000D03*
%TD*%
%TO.C,R8*%
X21425800Y7493000D03*
X23125800Y7493000D03*
%TD*%
D13*
%TO.C,C6*%
X18064600Y14920600D03*
X16164600Y14920600D03*
%TD*%
D21*
%TO.C,X1*%
X43000000Y17329996D03*
X42200000Y17329996D03*
X41400000Y17329996D03*
X40600000Y17329996D03*
X39800000Y17329996D03*
X39000000Y17329996D03*
X38200000Y17329996D03*
X37400000Y17329996D03*
X36600000Y17329996D03*
X35800000Y17329996D03*
X35000004Y17329996D03*
X34200000Y17329996D03*
X33400000Y17329996D03*
D22*
X32150000Y16630000D03*
X32150000Y15830000D03*
X32150000Y15030000D03*
X32150000Y14230000D03*
X32150000Y13430000D03*
X32150000Y12630000D03*
X32150000Y11830000D03*
X32150000Y11030000D03*
X32150000Y10230000D03*
X32150000Y9430000D03*
X32150000Y8630000D03*
X32150000Y7830000D03*
X32150000Y7030000D03*
X32150000Y6230000D03*
D21*
X33400000Y5530004D03*
X34200000Y5530004D03*
X35000004Y5530004D03*
X35800000Y5530004D03*
X36600000Y5530004D03*
X37400000Y5530004D03*
X38200000Y5530004D03*
X39000000Y5530004D03*
X39800000Y5530004D03*
X40600000Y5530004D03*
X41400000Y5530004D03*
X42200000Y5530004D03*
X42999996Y5530004D03*
D22*
X44250000Y6230000D03*
X44250000Y7030000D03*
X44250000Y7830000D03*
X44250000Y8630000D03*
X44250000Y9430000D03*
X44250000Y10230000D03*
X44250000Y11030000D03*
X44250000Y11830000D03*
X44250000Y12630000D03*
X44250000Y13430000D03*
X44250000Y14230000D03*
X44250000Y15030000D03*
X44250000Y15830000D03*
X44250000Y16630000D03*
D23*
X39700000Y12930000D03*
X39700000Y11430000D03*
X39700000Y9930000D03*
X38200000Y12930000D03*
X38200000Y11430000D03*
X38200000Y9930000D03*
X36700000Y12930000D03*
X36700000Y11430000D03*
X36700000Y9930000D03*
%TD*%
M02*
