M48
; DRILL file KiCad 10.99.0-3758-g2f18d95be7 date 2026-09-21T20:46:17
; FORMAT={-:-/ absolute / metric / decimal}
; #@! TF.CreationDate,2026-09-21T20:46:17+01:00
; #@! TF.GenerationSoftware,Kicad,Pcbnew,10.99.0-3758-g2f18d95be7
; #@! TF.FileFunction,Plated,1,4,PTH
FMAT,2
METRIC
; #@! TA.AperFunction,Plated,PTH,ViaDrill
T1C0.350
; #@! TA.AperFunction,Plated,PTH,ComponentDrill
T2C0.600
; #@! TA.AperFunction,Plated,PTH,ComponentDrill
T3C1.000
%
G90
G05
T1
X2.095Y9.08
X2.426Y0.737
X2.812Y11.435
X3.198Y12.306
X3.34Y8.319
X3.365Y19.241
X3.442Y14.707
X3.708Y6.134
X4.803Y13.251
X5.016Y5.742
X5.334Y3.118
X5.537Y16.358
X5.768Y13.218
X6.143Y6.683
X6.223Y9.652
X6.236Y2.705
X6.685Y16.237
X7.011Y6.186
X7.112Y13.081
X7.62Y12.144
X7.633Y8.173
X8.237Y15.766
X8.554Y11.842
X8.586Y8.096
X8.826Y18.098
X8.966Y2.832
X9.093Y4.928
X9.322Y9.2
X9.325Y16.011
X9.335Y10.712
X10.16Y9.848
X10.801Y15.609
X10.922Y3.683
X11.684Y12.954
X11.874Y3.702
X11.938Y2.73
X12.199Y9.899
X12.967Y2.832
X13.03Y0.927
X14.478Y19.812
X14.999Y5.944
X15.57Y11.722
T2
X4.57Y19.117
X4.57Y14.937
X13.21Y19.117
X13.21Y14.937
T3
X0.0Y17.97
X0.0Y15.43
X0.0Y12.89
X0.0Y10.351
X0.0Y7.81
X0.0Y5.271
X0.0Y2.73
X1.27Y17.97
X1.27Y15.43
X1.27Y12.89
X1.27Y10.351
X1.27Y7.81
X1.27Y5.271
X1.27Y2.73
X16.51Y17.97
X16.51Y15.43
X16.51Y12.89
X16.51Y10.351
X16.51Y7.81
X16.51Y5.271
X16.51Y2.73
X17.78Y17.97
X17.78Y15.43
X17.78Y12.89
X17.78Y10.351
X17.78Y7.81
X17.78Y5.271
X17.78Y2.73
M30
