%TF.GenerationSoftware,KiCad,Pcbnew,10.99.0-3758-g2f18d95be7*%
%TF.CreationDate,2026-09-21T20:46:16+01:00*%
%TF.ProjectId,kicad_file,6b696361-645f-4666-996c-652e6b696361,rev?*%
%TF.SameCoordinates,Original*%
%TF.FileFunction,Legend,Top*%
%TF.FilePolarity,Positive*%
%FSLAX46Y46*%
G04 Gerber Fmt 4.6, Leading zero omitted, Abs format (unit mm)*
G04 Created by KiCad (PCBNEW 10.99.0-3758-g2f18d95be7) date 2026-09-21 20:46:16*
%MOMM*%
%LPD*%
G01*
G04 APERTURE LIST*
G04 Aperture macros list*
%AMRoundRect*
0 Rectangle with rounded corners*
0 $1 Rounding radius*
0 $2 $3 $4 $5 $6 $7 $8 $9 X,Y pos of 4 corners*
0 Add a 4 corners polygon primitive as box body*
4,1,4,$2,$3,$4,$5,$6,$7,$8,$9,$2,$3,0*
0 Add four circle primitives for the rounded corners*
1,1,$1+$1,$2,$3*
1,1,$1+$1,$4,$5*
1,1,$1+$1,$6,$7*
1,1,$1+$1,$8,$9*
0 Add four rect primitives between the rounded corners*
20,1,$1+$1,$2,$3,$4,$5,0*
20,1,$1+$1,$4,$5,$6,$7,0*
20,1,$1+$1,$6,$7,$8,$9,0*
20,1,$1+$1,$8,$9,$2,$3,0*%
G04 Aperture macros list end*
%ADD10C,0.177800*%
%ADD11C,0.074778*%
%ADD12C,0.119969*%
%ADD13C,0.053320*%
%ADD14C,0.152400*%
%ADD15C,0.203200*%
%ADD16C,0.127000*%
%ADD17C,0.406400*%
%ADD18C,0.101600*%
%ADD19C,0.000000*%
%ADD20C,0.469900*%
%ADD21RoundRect,0.050800X0.250000X-0.775000X0.250000X0.775000X-0.250000X0.775000X-0.250000X-0.775000X0*%
%ADD22RoundRect,0.050800X0.600000X-0.900000X0.600000X0.900000X-0.600000X0.900000X-0.600000X-0.900000X0*%
%ADD23RoundRect,0.050800X-0.300000X-0.300000X0.300000X-0.300000X0.300000X0.300000X-0.300000X0.300000X0*%
%ADD24RoundRect,0.140800X0.000010X0.210000X-0.000010X0.210000X-0.000010X-0.210000X0.000010X-0.210000X0*%
%ADD25RoundRect,0.140800X-0.210000X0.000010X-0.210000X-0.000010X0.210000X-0.000010X0.210000X0.000010X0*%
%ADD26RoundRect,0.140800X-0.000010X-0.210000X0.000010X-0.210000X0.000010X0.210000X-0.000010X0.210000X0*%
%ADD27RoundRect,0.140800X0.210000X-0.000010X0.210000X0.000010X-0.210000X0.000010X-0.210000X-0.000010X0*%
%ADD28RoundRect,0.050800X1.150000X-1.150000X1.150000X1.150000X-1.150000X1.150000X-1.150000X-1.150000X0*%
%ADD29RoundRect,0.050800X0.275000X0.600000X-0.275000X0.600000X-0.275000X-0.600000X0.275000X-0.600000X0*%
%ADD30RoundRect,0.050800X0.300000X0.300000X-0.300000X0.300000X-0.300000X-0.300000X0.300000X-0.300000X0*%
%ADD31C,1.879600*%
%ADD32O,3.657600X1.879600*%
%ADD33RoundRect,0.550800X-0.000010X-0.000010X0.000010X-0.000010X0.000010X0.000010X-0.000010X0.000010X0*%
%ADD34RoundRect,0.050800X0.500000X0.350000X-0.500000X0.350000X-0.500000X-0.350000X0.500000X-0.350000X0*%
%ADD35RoundRect,0.050800X-0.650000X0.600000X-0.650000X-0.600000X0.650000X-0.600000X0.650000X0.600000X0*%
%ADD36RoundRect,0.050800X0.250000X0.250000X-0.250000X0.250000X-0.250000X-0.250000X0.250000X-0.250000X0*%
%ADD37RoundRect,0.050800X-0.300000X0.300000X-0.300000X-0.300000X0.300000X-0.300000X0.300000X0.300000X0*%
%ADD38C,1.158000*%
%ADD39RoundRect,0.050800X0.287500X0.575000X-0.287500X0.575000X-0.287500X-0.575000X0.287500X-0.575000X0*%
%ADD40RoundRect,0.050800X0.137500X0.575000X-0.137500X0.575000X-0.137500X-0.575000X0.137500X-0.575000X0*%
%ADD41O,1.101600X2.101600*%
%ADD42RoundRect,0.050800X-0.600000X-0.650000X0.600000X-0.650000X0.600000X0.650000X-0.600000X0.650000X0*%
%ADD43RoundRect,0.050800X0.450000X0.400000X-0.450000X0.400000X-0.450000X-0.400000X0.450000X-0.400000X0*%
G04 APERTURE END LIST*
D10*
X4127500Y8445500D02*
G75*
G02*
X3873500Y8445500I-127000J0D01*
G01*
X3873500Y8445500D02*
G75*
G02*
X4127500Y8445500I127000J0D01*
G01*
D11*
X7844337Y6350016D02*
X7799517Y6305196D01*
X7799517Y6305196D02*
X7665057Y6260375D01*
X7665057Y6260375D02*
X7575417Y6260375D01*
X7575417Y6260375D02*
X7440956Y6305196D01*
X7440956Y6305196D02*
X7351316Y6394836D01*
X7351316Y6394836D02*
X7306496Y6484476D01*
X7306496Y6484476D02*
X7261676Y6663756D01*
X7261676Y6663756D02*
X7261676Y6798217D01*
X7261676Y6798217D02*
X7306496Y6977497D01*
X7306496Y6977497D02*
X7351316Y7067137D01*
X7351316Y7067137D02*
X7440956Y7156777D01*
X7440956Y7156777D02*
X7575417Y7201597D01*
X7575417Y7201597D02*
X7665057Y7201597D01*
X7665057Y7201597D02*
X7799517Y7156777D01*
X7799517Y7156777D02*
X7844337Y7111957D01*
X8426998Y7201597D02*
X8606279Y7201597D01*
X8606279Y7201597D02*
X8695919Y7156777D01*
X8695919Y7156777D02*
X8785559Y7067137D01*
X8785559Y7067137D02*
X8830379Y6887857D01*
X8830379Y6887857D02*
X8830379Y6574116D01*
X8830379Y6574116D02*
X8785559Y6394836D01*
X8785559Y6394836D02*
X8695919Y6305196D01*
X8695919Y6305196D02*
X8606279Y6260375D01*
X8606279Y6260375D02*
X8426998Y6260375D01*
X8426998Y6260375D02*
X8337358Y6305196D01*
X8337358Y6305196D02*
X8247718Y6394836D01*
X8247718Y6394836D02*
X8202898Y6574116D01*
X8202898Y6574116D02*
X8202898Y6887857D01*
X8202898Y6887857D02*
X8247718Y7067137D01*
X8247718Y7067137D02*
X8337358Y7156777D01*
X8337358Y7156777D02*
X8426998Y7201597D01*
X9233760Y6260375D02*
X9233760Y7201597D01*
X9233760Y7201597D02*
X9771601Y6260375D01*
X9771601Y6260375D02*
X9771601Y7201597D01*
X10219802Y6260375D02*
X10219802Y7201597D01*
X10219802Y7201597D02*
X10757643Y6260375D01*
X10757643Y6260375D02*
X10757643Y7201597D01*
X11698865Y6260375D02*
X11161024Y6260375D01*
X11429944Y6260375D02*
X11429944Y7201597D01*
X11429944Y7201597D02*
X11340304Y7067137D01*
X11340304Y7067137D02*
X11250664Y6977497D01*
X11250664Y6977497D02*
X11161024Y6932677D01*
D12*
X8640789Y13777911D02*
X8607797Y13744920D01*
X8607797Y13744920D02*
X8508821Y13711928D01*
X8508821Y13711928D02*
X8442837Y13711928D01*
X8442837Y13711928D02*
X8343861Y13744920D01*
X8343861Y13744920D02*
X8277877Y13810903D01*
X8277877Y13810903D02*
X8244885Y13876887D01*
X8244885Y13876887D02*
X8211893Y14008855D01*
X8211893Y14008855D02*
X8211893Y14107831D01*
X8211893Y14107831D02*
X8244885Y14239799D01*
X8244885Y14239799D02*
X8277877Y14305783D01*
X8277877Y14305783D02*
X8343861Y14371767D01*
X8343861Y14371767D02*
X8442837Y14404759D01*
X8442837Y14404759D02*
X8508821Y14404759D01*
X8508821Y14404759D02*
X8607797Y14371767D01*
X8607797Y14371767D02*
X8640789Y14338775D01*
X9234644Y14173815D02*
X9234644Y13711928D01*
X9069684Y14437751D02*
X8904724Y13942871D01*
X8904724Y13942871D02*
X9333620Y13942871D01*
X5224489Y4923528D02*
X4993545Y5253447D01*
X4828585Y4923528D02*
X4828585Y5616359D01*
X4828585Y5616359D02*
X5092521Y5616359D01*
X5092521Y5616359D02*
X5158505Y5583367D01*
X5158505Y5583367D02*
X5191497Y5550375D01*
X5191497Y5550375D02*
X5224489Y5484391D01*
X5224489Y5484391D02*
X5224489Y5385415D01*
X5224489Y5385415D02*
X5191497Y5319431D01*
X5191497Y5319431D02*
X5158505Y5286439D01*
X5158505Y5286439D02*
X5092521Y5253447D01*
X5092521Y5253447D02*
X4828585Y5253447D01*
X5884328Y4923528D02*
X5488424Y4923528D01*
X5686376Y4923528D02*
X5686376Y5616359D01*
X5686376Y5616359D02*
X5620392Y5517383D01*
X5620392Y5517383D02*
X5554408Y5451399D01*
X5554408Y5451399D02*
X5488424Y5418407D01*
X16006789Y11815611D02*
X15973797Y11782620D01*
X15973797Y11782620D02*
X15874821Y11749628D01*
X15874821Y11749628D02*
X15808837Y11749628D01*
X15808837Y11749628D02*
X15709861Y11782620D01*
X15709861Y11782620D02*
X15643877Y11848603D01*
X15643877Y11848603D02*
X15610885Y11914587D01*
X15610885Y11914587D02*
X15577893Y12046555D01*
X15577893Y12046555D02*
X15577893Y12145531D01*
X15577893Y12145531D02*
X15610885Y12277499D01*
X15610885Y12277499D02*
X15643877Y12343483D01*
X15643877Y12343483D02*
X15709861Y12409467D01*
X15709861Y12409467D02*
X15808837Y12442459D01*
X15808837Y12442459D02*
X15874821Y12442459D01*
X15874821Y12442459D02*
X15973797Y12409467D01*
X15973797Y12409467D02*
X16006789Y12376475D01*
X16237732Y12442459D02*
X16666628Y12442459D01*
X16666628Y12442459D02*
X16435684Y12178523D01*
X16435684Y12178523D02*
X16534660Y12178523D01*
X16534660Y12178523D02*
X16600644Y12145531D01*
X16600644Y12145531D02*
X16633636Y12112539D01*
X16633636Y12112539D02*
X16666628Y12046555D01*
X16666628Y12046555D02*
X16666628Y11881595D01*
X16666628Y11881595D02*
X16633636Y11815611D01*
X16633636Y11815611D02*
X16600644Y11782620D01*
X16600644Y11782620D02*
X16534660Y11749628D01*
X16534660Y11749628D02*
X16336708Y11749628D01*
X16336708Y11749628D02*
X16270724Y11782620D01*
X16270724Y11782620D02*
X16237732Y11815611D01*
X3023971Y8453885D02*
X2331140Y8453885D01*
X2957988Y9179709D02*
X2990980Y9146717D01*
X2990980Y9146717D02*
X3023971Y9047741D01*
X3023971Y9047741D02*
X3023971Y8981757D01*
X3023971Y8981757D02*
X2990980Y8882781D01*
X2990980Y8882781D02*
X2924996Y8816797D01*
X2924996Y8816797D02*
X2859012Y8783805D01*
X2859012Y8783805D02*
X2727044Y8750813D01*
X2727044Y8750813D02*
X2628068Y8750813D01*
X2628068Y8750813D02*
X2496100Y8783805D01*
X2496100Y8783805D02*
X2430116Y8816797D01*
X2430116Y8816797D02*
X2364132Y8882781D01*
X2364132Y8882781D02*
X2331140Y8981757D01*
X2331140Y8981757D02*
X2331140Y9047741D01*
X2331140Y9047741D02*
X2364132Y9146717D01*
X2364132Y9146717D02*
X2397124Y9179709D01*
X2397124Y9443644D02*
X2364132Y9476636D01*
X2364132Y9476636D02*
X2331140Y9542620D01*
X2331140Y9542620D02*
X2331140Y9707580D01*
X2331140Y9707580D02*
X2364132Y9773564D01*
X2364132Y9773564D02*
X2397124Y9806556D01*
X2397124Y9806556D02*
X2463108Y9839548D01*
X2463108Y9839548D02*
X2529092Y9839548D01*
X2529092Y9839548D02*
X2628068Y9806556D01*
X2628068Y9806556D02*
X3023971Y9410652D01*
X3023971Y9410652D02*
X3023971Y9839548D01*
X7847571Y9917347D02*
X7847571Y9356483D01*
X7847571Y9356483D02*
X7880563Y9290499D01*
X7880563Y9290499D02*
X7913555Y9257508D01*
X7913555Y9257508D02*
X7979539Y9224516D01*
X7979539Y9224516D02*
X8111507Y9224516D01*
X8111507Y9224516D02*
X8177491Y9257508D01*
X8177491Y9257508D02*
X8210483Y9290499D01*
X8210483Y9290499D02*
X8243475Y9356483D01*
X8243475Y9356483D02*
X8243475Y9917347D01*
X8936306Y9224516D02*
X8540402Y9224516D01*
X8738354Y9224516D02*
X8738354Y9917347D01*
X8738354Y9917347D02*
X8672370Y9818371D01*
X8672370Y9818371D02*
X8606386Y9752387D01*
X8606386Y9752387D02*
X8540402Y9719395D01*
X4907767Y3473899D02*
X4874775Y3440908D01*
X4874775Y3440908D02*
X4775799Y3407916D01*
X4775799Y3407916D02*
X4709815Y3407916D01*
X4709815Y3407916D02*
X4610839Y3440908D01*
X4610839Y3440908D02*
X4544855Y3506891D01*
X4544855Y3506891D02*
X4511863Y3572875D01*
X4511863Y3572875D02*
X4478871Y3704843D01*
X4478871Y3704843D02*
X4478871Y3803819D01*
X4478871Y3803819D02*
X4511863Y3935787D01*
X4511863Y3935787D02*
X4544855Y4001771D01*
X4544855Y4001771D02*
X4610839Y4067755D01*
X4610839Y4067755D02*
X4709815Y4100747D01*
X4709815Y4100747D02*
X4775799Y4100747D01*
X4775799Y4100747D02*
X4874775Y4067755D01*
X4874775Y4067755D02*
X4907767Y4034763D01*
X5171702Y4034763D02*
X5204694Y4067755D01*
X5204694Y4067755D02*
X5270678Y4100747D01*
X5270678Y4100747D02*
X5435638Y4100747D01*
X5435638Y4100747D02*
X5501622Y4067755D01*
X5501622Y4067755D02*
X5534614Y4034763D01*
X5534614Y4034763D02*
X5567606Y3968779D01*
X5567606Y3968779D02*
X5567606Y3902795D01*
X5567606Y3902795D02*
X5534614Y3803819D01*
X5534614Y3803819D02*
X5138710Y3407916D01*
X5138710Y3407916D02*
X5567606Y3407916D01*
X13897340Y1826137D02*
X14392220Y1826137D01*
X14392220Y1826137D02*
X14491196Y1793145D01*
X14491196Y1793145D02*
X14557180Y1727161D01*
X14557180Y1727161D02*
X14590171Y1628185D01*
X14590171Y1628185D02*
X14590171Y1562201D01*
X14590171Y2156056D02*
X13897340Y2156056D01*
X13897340Y2156056D02*
X13897340Y2419992D01*
X13897340Y2419992D02*
X13930332Y2485976D01*
X13930332Y2485976D02*
X13963324Y2518968D01*
X13963324Y2518968D02*
X14029308Y2551960D01*
X14029308Y2551960D02*
X14128284Y2551960D01*
X14128284Y2551960D02*
X14194268Y2518968D01*
X14194268Y2518968D02*
X14227260Y2485976D01*
X14227260Y2485976D02*
X14260252Y2419992D01*
X14260252Y2419992D02*
X14260252Y2156056D01*
X13897340Y2782903D02*
X13897340Y3211799D01*
X13897340Y3211799D02*
X14161276Y2980855D01*
X14161276Y2980855D02*
X14161276Y3079831D01*
X14161276Y3079831D02*
X14194268Y3145815D01*
X14194268Y3145815D02*
X14227260Y3178807D01*
X14227260Y3178807D02*
X14293244Y3211799D01*
X14293244Y3211799D02*
X14458204Y3211799D01*
X14458204Y3211799D02*
X14524188Y3178807D01*
X14524188Y3178807D02*
X14557180Y3145815D01*
X14557180Y3145815D02*
X14590171Y3079831D01*
X14590171Y3079831D02*
X14590171Y2881879D01*
X14590171Y2881879D02*
X14557180Y2815895D01*
X14557180Y2815895D02*
X14524188Y2782903D01*
X3125552Y17720144D02*
X3620432Y17720144D01*
X3620432Y17720144D02*
X3719408Y17687152D01*
X3719408Y17687152D02*
X3785392Y17621168D01*
X3785392Y17621168D02*
X3818383Y17522192D01*
X3818383Y17522192D02*
X3818383Y17456208D01*
X3818383Y18050063D02*
X3125552Y18050063D01*
X3125552Y18050063D02*
X3125552Y18313999D01*
X3125552Y18313999D02*
X3158544Y18379983D01*
X3158544Y18379983D02*
X3191536Y18412975D01*
X3191536Y18412975D02*
X3257520Y18445967D01*
X3257520Y18445967D02*
X3356496Y18445967D01*
X3356496Y18445967D02*
X3422480Y18412975D01*
X3422480Y18412975D02*
X3455472Y18379983D01*
X3455472Y18379983D02*
X3488464Y18313999D01*
X3488464Y18313999D02*
X3488464Y18050063D01*
X3818383Y19105806D02*
X3818383Y18709902D01*
X3818383Y18907854D02*
X3125552Y18907854D01*
X3125552Y18907854D02*
X3224528Y18841870D01*
X3224528Y18841870D02*
X3290512Y18775886D01*
X3290512Y18775886D02*
X3323504Y18709902D01*
X6558907Y-229672D02*
X6657883Y-262664D01*
X6657883Y-262664D02*
X6690875Y-295656D01*
X6690875Y-295656D02*
X6723867Y-361640D01*
X6723867Y-361640D02*
X6723867Y-460616D01*
X6723867Y-460616D02*
X6690875Y-526600D01*
X6690875Y-526600D02*
X6657883Y-559592D01*
X6657883Y-559592D02*
X6591899Y-592583D01*
X6591899Y-592583D02*
X6327963Y-592583D01*
X6327963Y-592583D02*
X6327963Y100247D01*
X6327963Y100247D02*
X6558907Y100247D01*
X6558907Y100247D02*
X6624891Y67255D01*
X6624891Y67255D02*
X6657883Y34263D01*
X6657883Y34263D02*
X6690875Y-31720D01*
X6690875Y-31720D02*
X6690875Y-97704D01*
X6690875Y-97704D02*
X6657883Y-163688D01*
X6657883Y-163688D02*
X6624891Y-196680D01*
X6624891Y-196680D02*
X6558907Y-229672D01*
X6558907Y-229672D02*
X6327963Y-229672D01*
X7383706Y-592583D02*
X6987802Y-592583D01*
X7185754Y-592583D02*
X7185754Y100247D01*
X7185754Y100247D02*
X7119770Y1271D01*
X7119770Y1271D02*
X7053786Y-64712D01*
X7053786Y-64712D02*
X6987802Y-97704D01*
X14115600Y6685767D02*
X14148592Y6652775D01*
X14148592Y6652775D02*
X14181583Y6553799D01*
X14181583Y6553799D02*
X14181583Y6487815D01*
X14181583Y6487815D02*
X14148592Y6388839D01*
X14148592Y6388839D02*
X14082608Y6322855D01*
X14082608Y6322855D02*
X14016624Y6289863D01*
X14016624Y6289863D02*
X13884656Y6256871D01*
X13884656Y6256871D02*
X13785680Y6256871D01*
X13785680Y6256871D02*
X13653712Y6289863D01*
X13653712Y6289863D02*
X13587728Y6322855D01*
X13587728Y6322855D02*
X13521744Y6388839D01*
X13521744Y6388839D02*
X13488752Y6487815D01*
X13488752Y6487815D02*
X13488752Y6553799D01*
X13488752Y6553799D02*
X13521744Y6652775D01*
X13521744Y6652775D02*
X13554736Y6685767D01*
X14181583Y7345606D02*
X14181583Y6949702D01*
X14181583Y7147654D02*
X13488752Y7147654D01*
X13488752Y7147654D02*
X13587728Y7081670D01*
X13587728Y7081670D02*
X13653712Y7015686D01*
X13653712Y7015686D02*
X13686704Y6949702D01*
X6851007Y3986727D02*
X6949983Y3953735D01*
X6949983Y3953735D02*
X6982975Y3920743D01*
X6982975Y3920743D02*
X7015967Y3854759D01*
X7015967Y3854759D02*
X7015967Y3755783D01*
X7015967Y3755783D02*
X6982975Y3689799D01*
X6982975Y3689799D02*
X6949983Y3656808D01*
X6949983Y3656808D02*
X6883999Y3623816D01*
X6883999Y3623816D02*
X6620063Y3623816D01*
X6620063Y3623816D02*
X6620063Y4316647D01*
X6620063Y4316647D02*
X6851007Y4316647D01*
X6851007Y4316647D02*
X6916991Y4283655D01*
X6916991Y4283655D02*
X6949983Y4250663D01*
X6949983Y4250663D02*
X6982975Y4184679D01*
X6982975Y4184679D02*
X6982975Y4118695D01*
X6982975Y4118695D02*
X6949983Y4052711D01*
X6949983Y4052711D02*
X6916991Y4019719D01*
X6916991Y4019719D02*
X6851007Y3986727D01*
X6851007Y3986727D02*
X6620063Y3986727D01*
X7279902Y4250663D02*
X7312894Y4283655D01*
X7312894Y4283655D02*
X7378878Y4316647D01*
X7378878Y4316647D02*
X7543838Y4316647D01*
X7543838Y4316647D02*
X7609822Y4283655D01*
X7609822Y4283655D02*
X7642814Y4250663D01*
X7642814Y4250663D02*
X7675806Y4184679D01*
X7675806Y4184679D02*
X7675806Y4118695D01*
X7675806Y4118695D02*
X7642814Y4019719D01*
X7642814Y4019719D02*
X7246910Y3623816D01*
X7246910Y3623816D02*
X7675806Y3623816D01*
D11*
X9465557Y4669346D02*
X9017356Y4669346D01*
X9017356Y4669346D02*
X9017356Y5610568D01*
X9779298Y5162367D02*
X10093039Y5162367D01*
X10227499Y4669346D02*
X9779298Y4669346D01*
X9779298Y4669346D02*
X9779298Y5610568D01*
X9779298Y5610568D02*
X10227499Y5610568D01*
X10630880Y4669346D02*
X10630880Y5610568D01*
X10630880Y5610568D02*
X10854980Y5610568D01*
X10854980Y5610568D02*
X10989441Y5565748D01*
X10989441Y5565748D02*
X11079081Y5476108D01*
X11079081Y5476108D02*
X11123901Y5386468D01*
X11123901Y5386468D02*
X11168721Y5207188D01*
X11168721Y5207188D02*
X11168721Y5072727D01*
X11168721Y5072727D02*
X11123901Y4893447D01*
X11123901Y4893447D02*
X11079081Y4803807D01*
X11079081Y4803807D02*
X10989441Y4714167D01*
X10989441Y4714167D02*
X10854980Y4669346D01*
X10854980Y4669346D02*
X10630880Y4669346D01*
X12065123Y4669346D02*
X11527282Y4669346D01*
X11796202Y4669346D02*
X11796202Y5610568D01*
X11796202Y5610568D02*
X11706562Y5476108D01*
X11706562Y5476108D02*
X11616922Y5386468D01*
X11616922Y5386468D02*
X11527282Y5341648D01*
D12*
X3205189Y4898128D02*
X2974245Y5228047D01*
X2809285Y4898128D02*
X2809285Y5590959D01*
X2809285Y5590959D02*
X3073221Y5590959D01*
X3073221Y5590959D02*
X3139205Y5557967D01*
X3139205Y5557967D02*
X3172197Y5524975D01*
X3172197Y5524975D02*
X3205189Y5458991D01*
X3205189Y5458991D02*
X3205189Y5360015D01*
X3205189Y5360015D02*
X3172197Y5294031D01*
X3172197Y5294031D02*
X3139205Y5261039D01*
X3139205Y5261039D02*
X3073221Y5228047D01*
X3073221Y5228047D02*
X2809285Y5228047D01*
X3469124Y5524975D02*
X3502116Y5557967D01*
X3502116Y5557967D02*
X3568100Y5590959D01*
X3568100Y5590959D02*
X3733060Y5590959D01*
X3733060Y5590959D02*
X3799044Y5557967D01*
X3799044Y5557967D02*
X3832036Y5524975D01*
X3832036Y5524975D02*
X3865028Y5458991D01*
X3865028Y5458991D02*
X3865028Y5393007D01*
X3865028Y5393007D02*
X3832036Y5294031D01*
X3832036Y5294031D02*
X3436132Y4898128D01*
X3436132Y4898128D02*
X3865028Y4898128D01*
X14473683Y14369267D02*
X14143764Y14138323D01*
X14473683Y13973363D02*
X13780852Y13973363D01*
X13780852Y13973363D02*
X13780852Y14237299D01*
X13780852Y14237299D02*
X13813844Y14303283D01*
X13813844Y14303283D02*
X13846836Y14336275D01*
X13846836Y14336275D02*
X13912820Y14369267D01*
X13912820Y14369267D02*
X14011796Y14369267D01*
X14011796Y14369267D02*
X14077780Y14336275D01*
X14077780Y14336275D02*
X14110772Y14303283D01*
X14110772Y14303283D02*
X14143764Y14237299D01*
X14143764Y14237299D02*
X14143764Y13973363D01*
X13780852Y14963122D02*
X13780852Y14831154D01*
X13780852Y14831154D02*
X13813844Y14765170D01*
X13813844Y14765170D02*
X13846836Y14732178D01*
X13846836Y14732178D02*
X13945812Y14666194D01*
X13945812Y14666194D02*
X14077780Y14633202D01*
X14077780Y14633202D02*
X14341716Y14633202D01*
X14341716Y14633202D02*
X14407700Y14666194D01*
X14407700Y14666194D02*
X14440692Y14699186D01*
X14440692Y14699186D02*
X14473683Y14765170D01*
X14473683Y14765170D02*
X14473683Y14897138D01*
X14473683Y14897138D02*
X14440692Y14963122D01*
X14440692Y14963122D02*
X14407700Y14996114D01*
X14407700Y14996114D02*
X14341716Y15029106D01*
X14341716Y15029106D02*
X14176756Y15029106D01*
X14176756Y15029106D02*
X14110772Y14996114D01*
X14110772Y14996114D02*
X14077780Y14963122D01*
X14077780Y14963122D02*
X14044788Y14897138D01*
X14044788Y14897138D02*
X14044788Y14765170D01*
X14044788Y14765170D02*
X14077780Y14699186D01*
X14077780Y14699186D02*
X14110772Y14666194D01*
X14110772Y14666194D02*
X14176756Y14633202D01*
X4427983Y14369267D02*
X4098064Y14138323D01*
X4427983Y13973363D02*
X3735152Y13973363D01*
X3735152Y13973363D02*
X3735152Y14237299D01*
X3735152Y14237299D02*
X3768144Y14303283D01*
X3768144Y14303283D02*
X3801136Y14336275D01*
X3801136Y14336275D02*
X3867120Y14369267D01*
X3867120Y14369267D02*
X3966096Y14369267D01*
X3966096Y14369267D02*
X4032080Y14336275D01*
X4032080Y14336275D02*
X4065072Y14303283D01*
X4065072Y14303283D02*
X4098064Y14237299D01*
X4098064Y14237299D02*
X4098064Y13973363D01*
X3735152Y14996114D02*
X3735152Y14666194D01*
X3735152Y14666194D02*
X4065072Y14633202D01*
X4065072Y14633202D02*
X4032080Y14666194D01*
X4032080Y14666194D02*
X3999088Y14732178D01*
X3999088Y14732178D02*
X3999088Y14897138D01*
X3999088Y14897138D02*
X4032080Y14963122D01*
X4032080Y14963122D02*
X4065072Y14996114D01*
X4065072Y14996114D02*
X4131056Y15029106D01*
X4131056Y15029106D02*
X4296016Y15029106D01*
X4296016Y15029106D02*
X4362000Y14996114D01*
X4362000Y14996114D02*
X4394992Y14963122D01*
X4394992Y14963122D02*
X4427983Y14897138D01*
X4427983Y14897138D02*
X4427983Y14732178D01*
X4427983Y14732178D02*
X4394992Y14666194D01*
X4394992Y14666194D02*
X4362000Y14633202D01*
X11666752Y18897371D02*
X12359583Y19359259D01*
X11666752Y19359259D02*
X12359583Y18897371D01*
X11666752Y19920122D02*
X11666752Y19788154D01*
X11666752Y19788154D02*
X11699744Y19722170D01*
X11699744Y19722170D02*
X11732736Y19689178D01*
X11732736Y19689178D02*
X11831712Y19623194D01*
X11831712Y19623194D02*
X11963680Y19590202D01*
X11963680Y19590202D02*
X12227616Y19590202D01*
X12227616Y19590202D02*
X12293600Y19623194D01*
X12293600Y19623194D02*
X12326592Y19656186D01*
X12326592Y19656186D02*
X12359583Y19722170D01*
X12359583Y19722170D02*
X12359583Y19854138D01*
X12359583Y19854138D02*
X12326592Y19920122D01*
X12326592Y19920122D02*
X12293600Y19953114D01*
X12293600Y19953114D02*
X12227616Y19986106D01*
X12227616Y19986106D02*
X12062656Y19986106D01*
X12062656Y19986106D02*
X11996672Y19953114D01*
X11996672Y19953114D02*
X11963680Y19920122D01*
X11963680Y19920122D02*
X11930688Y19854138D01*
X11930688Y19854138D02*
X11930688Y19722170D01*
X11930688Y19722170D02*
X11963680Y19656186D01*
X11963680Y19656186D02*
X11996672Y19623194D01*
X11996672Y19623194D02*
X12062656Y19590202D01*
D13*
X12374690Y7970669D02*
X12328848Y7924828D01*
X12328848Y7924828D02*
X12191322Y7878986D01*
X12191322Y7878986D02*
X12099638Y7878986D01*
X12099638Y7878986D02*
X11962113Y7924828D01*
X11962113Y7924828D02*
X11870429Y8016511D01*
X11870429Y8016511D02*
X11824587Y8108195D01*
X11824587Y8108195D02*
X11778745Y8291563D01*
X11778745Y8291563D02*
X11778745Y8429088D01*
X11778745Y8429088D02*
X11824587Y8612456D01*
X11824587Y8612456D02*
X11870429Y8704140D01*
X11870429Y8704140D02*
X11962113Y8795824D01*
X11962113Y8795824D02*
X12099638Y8841666D01*
X12099638Y8841666D02*
X12191322Y8841666D01*
X12191322Y8841666D02*
X12328848Y8795824D01*
X12328848Y8795824D02*
X12374690Y8749982D01*
X12924793Y8429088D02*
X12833109Y8474930D01*
X12833109Y8474930D02*
X12787267Y8520772D01*
X12787267Y8520772D02*
X12741425Y8612456D01*
X12741425Y8612456D02*
X12741425Y8658298D01*
X12741425Y8658298D02*
X12787267Y8749982D01*
X12787267Y8749982D02*
X12833109Y8795824D01*
X12833109Y8795824D02*
X12924793Y8841666D01*
X12924793Y8841666D02*
X13108160Y8841666D01*
X13108160Y8841666D02*
X13199844Y8795824D01*
X13199844Y8795824D02*
X13245686Y8749982D01*
X13245686Y8749982D02*
X13291528Y8658298D01*
X13291528Y8658298D02*
X13291528Y8612456D01*
X13291528Y8612456D02*
X13245686Y8520772D01*
X13245686Y8520772D02*
X13199844Y8474930D01*
X13199844Y8474930D02*
X13108160Y8429088D01*
X13108160Y8429088D02*
X12924793Y8429088D01*
X12924793Y8429088D02*
X12833109Y8383247D01*
X12833109Y8383247D02*
X12787267Y8337405D01*
X12787267Y8337405D02*
X12741425Y8245721D01*
X12741425Y8245721D02*
X12741425Y8062353D01*
X12741425Y8062353D02*
X12787267Y7970669D01*
X12787267Y7970669D02*
X12833109Y7924828D01*
X12833109Y7924828D02*
X12924793Y7878986D01*
X12924793Y7878986D02*
X13108160Y7878986D01*
X13108160Y7878986D02*
X13199844Y7924828D01*
X13199844Y7924828D02*
X13245686Y7970669D01*
X13245686Y7970669D02*
X13291528Y8062353D01*
X13291528Y8062353D02*
X13291528Y8245721D01*
X13291528Y8245721D02*
X13245686Y8337405D01*
X13245686Y8337405D02*
X13199844Y8383247D01*
X13199844Y8383247D02*
X13108160Y8429088D01*
D12*
X11542763Y11170916D02*
X11542763Y11863747D01*
X11542763Y11863747D02*
X11707723Y11863747D01*
X11707723Y11863747D02*
X11806699Y11830755D01*
X11806699Y11830755D02*
X11872683Y11764771D01*
X11872683Y11764771D02*
X11905675Y11698787D01*
X11905675Y11698787D02*
X11938667Y11566819D01*
X11938667Y11566819D02*
X11938667Y11467843D01*
X11938667Y11467843D02*
X11905675Y11335875D01*
X11905675Y11335875D02*
X11872683Y11269891D01*
X11872683Y11269891D02*
X11806699Y11203908D01*
X11806699Y11203908D02*
X11707723Y11170916D01*
X11707723Y11170916D02*
X11542763Y11170916D01*
X12598506Y11170916D02*
X12202602Y11170916D01*
X12400554Y11170916D02*
X12400554Y11863747D01*
X12400554Y11863747D02*
X12334570Y11764771D01*
X12334570Y11764771D02*
X12268586Y11698787D01*
X12268586Y11698787D02*
X12202602Y11665795D01*
%TO.C,CONN1*%
D14*
X8633200Y4741300D02*
X9733200Y4741300D01*
X8633200Y2141300D02*
X8633200Y4741300D01*
X9533200Y441300D02*
X13733200Y441300D01*
X13533200Y4741300D02*
X14733200Y4741300D01*
X14733200Y4741300D02*
X14733200Y2141300D01*
%TO.C,C4*%
D15*
X8953500Y13081000D02*
X8953500Y12573000D01*
%TO.C,R1*%
X5537200Y4292600D02*
X5537200Y3784600D01*
%TO.C,C3*%
X13589000Y12039600D02*
X13589000Y11531600D01*
%TO.C,IC2*%
D16*
X3615000Y8060000D02*
X4215000Y8060000D01*
X7815000Y8060000D02*
X7215000Y8060000D01*
X3615000Y8660000D02*
X3615000Y8060000D01*
X7815000Y8660000D02*
X7815000Y8060000D01*
X3615000Y11660000D02*
X3615000Y12260000D01*
X7815000Y11660000D02*
X7815000Y12260000D01*
X3615000Y12260000D02*
X4215000Y12260000D01*
X7815000Y12260000D02*
X7215000Y12260000D01*
D17*
X4015000Y7560000D02*
G75*
G02*
X3815000Y7560000I-100000J0D01*
G01*
X3815000Y7560000D02*
G75*
G02*
X4015000Y7560000I100000J0D01*
G01*
%TO.C,U1*%
D15*
X12775200Y9144100D02*
X12775200Y10744100D01*
X11525200Y8894100D02*
X10725200Y8894100D01*
X9475200Y9144100D02*
X9475200Y10744100D01*
%TO.C,C2*%
X7556500Y3746500D02*
X7556500Y4254500D01*
%TO.C,B1*%
X7662600Y379600D02*
X3462600Y379600D01*
X3462600Y3430400D02*
X7662600Y3430400D01*
%TO.C,C1*%
X14097000Y9588500D02*
X13081000Y9588500D01*
%TO.C,B2*%
X7954700Y4596000D02*
X3754700Y4596000D01*
X3754700Y7646800D02*
X7954700Y7646800D01*
%TO.C,LED1*%
D14*
X10553600Y6021500D02*
X8953600Y6021500D01*
X10553600Y7821500D02*
X8953600Y7821500D01*
X10515600Y6921500D02*
X9753600Y6921500D01*
X9942600Y6921500D02*
X10492600Y6921500D01*
X9753600Y6921500D02*
X9753600Y7810500D01*
D16*
X9347200Y6845300D02*
X9093200Y6845300D01*
X9220200Y6997700D02*
X9347200Y6845300D01*
X9093200Y6845300D02*
X9220200Y6997700D01*
%TO.C,R2*%
D15*
X3517900Y4267200D02*
X3517900Y3759200D01*
%TO.C,R6*%
X14135100Y17018000D02*
X13627100Y17018000D01*
%TO.C,R5*%
X4089400Y17018000D02*
X3581400Y17018000D01*
%TO.C,X6*%
D18*
X13360000Y17717000D02*
X13360000Y16367000D01*
X13360000Y21717000D02*
X13360000Y20367000D01*
X4420000Y16367000D02*
X4420000Y17717000D01*
X4420000Y20367000D02*
X4420000Y21717000D01*
X4420000Y21717000D02*
X13360000Y21717000D01*
%TO.C,C8*%
D15*
X12560300Y7391400D02*
X12560300Y6375400D01*
%TO.C,D1*%
X12709400Y12190500D02*
X10709400Y12190500D01*
X11959400Y12890500D02*
X11359400Y12490500D01*
X11359400Y12490500D02*
X11359400Y13290500D01*
X11359400Y13290500D02*
X11959400Y12890500D01*
X10709400Y13590500D02*
X12709400Y13590500D01*
D19*
G36*
X11809400Y12890500D02*
G01*
X11509400Y12690500D01*
X11509400Y13090500D01*
X11809400Y12890500D01*
G37*
G36*
X12159400Y12390500D02*
G01*
X11959400Y12390500D01*
X11959400Y13390500D01*
X12159400Y13390500D01*
X12159400Y12390500D01*
G37*
%TD*%
%LPC*%
%TO.C,U$6*%
D20*
X10883200Y990600D02*
G75*
G02*
X11633200Y1740600I750000J0D01*
G01*
X11633200Y1740600D02*
G75*
G02*
X12383200Y990600I0J-750000D01*
G01*
X11633200Y240600D02*
G75*
G02*
X10883200Y990600I0J750000D01*
G01*
X12383200Y990600D02*
G75*
G02*
X11633200Y240600I-750000J0D01*
G01*
%TO.C,U$8*%
X8140000Y19685000D02*
G75*
G02*
X8890000Y20435000I750000J0D01*
G01*
X8890000Y20435000D02*
G75*
G02*
X9640000Y19685000I0J-750000D01*
G01*
X8890000Y18935000D02*
G75*
G02*
X8140000Y19685000I0J750000D01*
G01*
X9640000Y19685000D02*
G75*
G02*
X8890000Y18935000I-750000J0D01*
G01*
%TD*%
D21*
%TO.C,CONN1*%
X10133200Y5041300D03*
X11133200Y5041300D03*
X12133200Y5041300D03*
X13133200Y5041300D03*
D22*
X8833200Y1141300D03*
X14433200Y1141300D03*
%TD*%
D23*
%TO.C,C4*%
X8445500Y12827000D03*
X9461500Y12827000D03*
%TD*%
%TO.C,R1*%
X5029200Y4038600D03*
X6045200Y4038600D03*
%TD*%
%TO.C,C3*%
X13081000Y11785600D03*
X14097000Y11785600D03*
%TD*%
D24*
%TO.C,IC2*%
X4515000Y8160000D03*
X4915000Y8160000D03*
X5315000Y8160000D03*
X5715000Y8160000D03*
X6115000Y8160000D03*
X6515000Y8160000D03*
X6915000Y8160000D03*
D25*
X7715000Y8960000D03*
X7715000Y9360000D03*
X7715000Y9760000D03*
X7715000Y10160000D03*
X7715000Y10560000D03*
X7715000Y10960000D03*
X7715000Y11360000D03*
D26*
X6915000Y12160000D03*
X6515000Y12160000D03*
X6115000Y12160000D03*
X5715000Y12160000D03*
X5315000Y12160000D03*
X4915000Y12160000D03*
X4515000Y12160000D03*
D27*
X3715000Y11360000D03*
X3715000Y10960000D03*
X3715000Y10560000D03*
X3715000Y10160000D03*
X3715000Y9760000D03*
X3715000Y9360000D03*
X3715000Y8960000D03*
D28*
X5715000Y10160000D03*
%TD*%
D29*
%TO.C,U1*%
X12075200Y11244200D03*
X11125200Y11244200D03*
X10175200Y11244200D03*
X10175200Y8644000D03*
X12075200Y8644000D03*
%TD*%
D30*
%TO.C,C2*%
X8064500Y4000500D03*
X7048500Y4000500D03*
%TD*%
D31*
%TO.C,JP3*%
X16510000Y2730500D03*
D32*
X17780000Y2730500D03*
D31*
X16510000Y5270500D03*
D32*
X17780000Y5270500D03*
D31*
X16510000Y7810500D03*
D32*
X17780000Y7810500D03*
D31*
X16510000Y10350500D03*
D32*
X17780000Y10350500D03*
D31*
X16510000Y12890500D03*
D32*
X17780000Y12890500D03*
D31*
X16510000Y15430500D03*
D32*
X17780000Y15430500D03*
D31*
X16510000Y17970500D03*
D32*
X17780000Y17970500D03*
%TD*%
D33*
%TO.C,U$6*%
X11633200Y990600D03*
%TD*%
D31*
%TO.C,JP1*%
X1270000Y17970500D03*
D32*
X0Y17970500D03*
D31*
X1270000Y15430500D03*
D32*
X0Y15430500D03*
D31*
X1270000Y12890500D03*
D32*
X0Y12890500D03*
D31*
X1270000Y10350500D03*
D32*
X0Y10350500D03*
D31*
X1270000Y7810500D03*
D32*
X0Y7810500D03*
D31*
X1270000Y5270500D03*
D32*
X0Y5270500D03*
D31*
X1270000Y2730500D03*
D32*
X0Y2730500D03*
%TD*%
D34*
%TO.C,B1*%
X3589600Y830000D03*
X7535600Y830000D03*
X3589600Y2980000D03*
X7535600Y2980000D03*
%TD*%
D33*
%TO.C,U$8*%
X8890000Y19685000D03*
%TD*%
D35*
%TO.C,C1*%
X13589000Y10604500D03*
X13589000Y8572500D03*
%TD*%
D34*
%TO.C,B2*%
X3881700Y5046400D03*
X7827700Y5046400D03*
X3881700Y7196400D03*
X7827700Y7196400D03*
%TD*%
D36*
%TO.C,LED1*%
X10253600Y7371500D03*
X9253600Y7371500D03*
X9253600Y6471500D03*
X10253600Y6471500D03*
%TD*%
D23*
%TO.C,R2*%
X3009900Y4013200D03*
X4025900Y4013200D03*
%TD*%
D37*
%TO.C,R6*%
X13881100Y17526000D03*
X13881100Y16510000D03*
%TD*%
%TO.C,R5*%
X3835400Y17526000D03*
X3835400Y16510000D03*
%TD*%
D38*
%TO.C,X6*%
X11780000Y15437000D03*
X6000000Y15437000D03*
D39*
X12090000Y14362000D03*
X11290000Y14362000D03*
D40*
X10140000Y14362000D03*
X9140000Y14362000D03*
X8640000Y14362000D03*
X7640000Y14362000D03*
D39*
X5690000Y14362000D03*
X6490000Y14362000D03*
D40*
X7140000Y14362000D03*
X8140000Y14362000D03*
X9640000Y14362000D03*
X10640000Y14362000D03*
D41*
X13210000Y14937000D03*
X4570000Y14937000D03*
X13210000Y19117000D03*
X4570000Y19117000D03*
%TD*%
D42*
%TO.C,C8*%
X11544300Y6883400D03*
X13576300Y6883400D03*
%TD*%
D43*
%TO.C,D1*%
X10639400Y12890500D03*
X12779400Y12890500D03*
%TD*%
%LPD*%
M02*
