<?xml version="1.0" encoding="utf-8"?>
<svg xmlns="http://www.w3.org/2000/svg"
     width="38.0000mm" height="24.0000mm"
     viewBox="0 0 38.0000 24.0000">
  <rect x="0.0000" y="0.0000" width="38.0000" height="24.0000"  fill="#FFFFFF" stroke="none" />
  <rect x="5.3333" y="3.8000" width="27.3333" height="16.4000"  fill="#FFFFFF" stroke="#000000" stroke-width="0.3" />
  <rect x="2.3333" y="18.3750" width="3.3333" height="2.2500"  fill="#FFFFFF" stroke="#000000" stroke-width="0.3" class="pad" />
  <rect x="2.3333" y="13.3750" width="3.3333" height="2.2500"  fill="#FFFFFF" stroke="#000000" stroke-width="0.3" class="pad" />
  <rect x="2.3333" y="8.3750" width="3.3333" height="2.2500"  fill="#FFFFFF" stroke="#000000" stroke-width="0.3" class="pad" />
  <rect x="2.3333" y="3.3750" width="3.3333" height="2.2500"  fill="#FFFFFF" stroke="#000000" stroke-width="0.3" class="pad" />
  <rect x="4.6250" y="18.6667" width="3.7500" height="3.3333"  fill="#FFFFFF" stroke="#000000" stroke-width="0.3" class="pad" />
  <rect x="12.9583" y="18.6667" width="3.7500" height="3.3333"  fill="#FFFFFF" stroke="#000000" stroke-width="0.3" class="pad" />
  <rect x="21.2917" y="18.6667" width="3.7500" height="3.3333"  fill="#FFFFFF" stroke="#000000" stroke-width="0.3" class="pad" />
  <rect x="29.6250" y="18.6667" width="3.7500" height="3.3333"  fill="#FFFFFF" stroke="#000000" stroke-width="0.3" class="pad" />
  <rect x="32.3333" y="17.1667" width="3.3333" height="3.0000"  fill="#FFFFFF" stroke="#000000" stroke-width="0.3" class="pad" />
  <rect x="32.3333" y="10.5000" width="3.3333" height="3.0000"  fill="#FFFFFF" stroke="#000000" stroke-width="0.3" class="pad" />
  <rect x="32.3333" y="3.8333" width="3.3333" height="3.0000"  fill="#FFFFFF" stroke="#000000" stroke-width="0.3" class="pad" />
  <rect x="5.3889" y="2.0000" width="5.0000" height="3.3333"  fill="#FFFFFF" stroke="#000000" stroke-width="0.3" class="pad" />
  <rect x="16.5000" y="2.0000" width="5.0000" height="3.3333"  fill="#FFFFFF" stroke="#000000" stroke-width="0.3" class="pad" />
  <rect x="27.6111" y="2.0000" width="5.0000" height="3.3333"  fill="#FFFFFF" stroke="#000000" stroke-width="0.3" class="pad" />
  <circle cx="6.3333" cy="18.0000" r="0.8000"  fill="#FFFFFF" stroke="#000000" stroke-width="0.3" />
  <text x="19.0000" y="7.0000" font-family="Consolas, monospace" font-size="3.2000" text-anchor="middle" dominant-baseline="middle" fill="#000000">cook</text>
  <text x="19.0000" y="12.0000" font-family="Consolas, monospace" font-size="3.2000" text-anchor="middle" dominant-baseline="middle" fill="#000000">number</text>
  <text x="19.0000" y="17.0000" font-family="Consolas, monospace" font-size="3.2000" text-anchor="middle" dominant-baseline="middle" fill="#000000">assist</text>
</svg>
