M48
; DRILL file KiCad 10.99.0-3758-g2f18d95be7 date 2026-09-12T18:35:11
; FORMAT={-:-/ absolute / metric / decimal}
; #@! TF.CreationDate,2026-09-12T18:35:11+01:00
; #@! TF.GenerationSoftware,Kicad,Pcbnew,10.99.0-3758-g2f18d95be7
; #@! TF.FileFunction,Plated,1,16,PTH
FMAT,2
METRIC
; #@! TA.AperFunction,Plated,PTH,ViaDrill
T1C0.500
; #@! TA.AperFunction,Plated,PTH,ComponentDrill
T2C1.016
; #@! TA.AperFunction,Plated,PTH,ComponentDrill
T3C1.500
%
G90
G05
T1
X-14.859Y-3.81
X-14.351Y5.334
X-11.938Y-10.287
X-11.303Y-3.302
X-9.271Y3.937
X-8.636Y12.319
X-8.128Y-1.27
X-8.001Y-7.874
X-7.874Y-6.477
X-7.62Y3.556
X-6.477Y-14.859
X-5.715Y3.81
X-5.588Y6.096
X-5.207Y-14.732
X-4.191Y-8.763
X-3.937Y-2.667
X-3.556Y1.27
X-3.429Y-11.049
X-2.667Y11.176
X-1.905Y-3.048
X-1.016Y2.413
X-0.889Y6.731
X-0.762Y-5.461
X-0.254Y-9.144
X0.0Y-10.541
X0.254Y1.397
X0.254Y-4.445
X0.508Y0.127
X0.864Y6.858
X1.016Y-3.429
X2.286Y-14.859
X3.556Y-2.032
X3.81Y-9.652
X5.334Y-14.097
X5.461Y-6.985
X6.477Y4.445
X6.858Y6.096
X7.493Y-0.381
X7.493Y-1.651
X11.684Y7.747
X13.589Y7.366
X13.843Y4.699
X13.843Y-8.001
X16.002Y0.0
T2
X10.668Y0.635
X10.668Y-1.905
X10.668Y-4.445
X13.208Y0.635
X13.208Y-1.905
X13.208Y-4.445
T3
X-19.685Y0.0
X-18.542Y6.604
X-18.542Y-6.604
X-14.986Y12.7
X-14.986Y-12.7
X-9.906Y17.018
X-9.906Y-17.018
X9.906Y17.018
X9.906Y-17.018
X14.986Y12.7
X14.986Y-12.7
X18.542Y6.604
X18.542Y-6.604
X19.558Y0.0
M30
