%TF.GenerationSoftware,KiCad,Pcbnew,10.99.0-3671-gbe90a7e200*%
%TF.CreationDate,2026-09-10T01:11:34+01:00*%
%TF.ProjectId,kicad_file,6b696361-645f-4666-996c-652e6b696361,rev?*%
%TF.SameCoordinates,Original*%
%TF.FileFunction,Legend,Bot*%
%TF.FilePolarity,Positive*%
%FSLAX46Y46*%
G04 Gerber Fmt 4.6, Leading zero omitted, Abs format (unit mm)*
G04 Created by KiCad (PCBNEW 10.99.0-3671-gbe90a7e200) date 2026-09-10 01:11:34*
%MOMM*%
%LPD*%
G01*
G04 APERTURE LIST*
%ADD10C,0.121920*%
%ADD11C,0.081280*%
%ADD12C,0.000000*%
%ADD13C,1.879600*%
%ADD14C,3.301600*%
%ADD15C,1.508000*%
G04 APERTURE END LIST*
D10*
X15835913Y17768757D02*
X15835913Y18662837D01*
X15835913Y18662837D02*
X15537887Y18024209D01*
X15537887Y18024209D02*
X15239860Y18662837D01*
X15239860Y18662837D02*
X15239860Y17768757D01*
X14814107Y17768757D02*
X14814107Y18364811D01*
X14814107Y18662837D02*
X14856683Y18620262D01*
X14856683Y18620262D02*
X14814107Y18577687D01*
X14814107Y18577687D02*
X14771532Y18620262D01*
X14771532Y18620262D02*
X14814107Y18662837D01*
X14814107Y18662837D02*
X14814107Y18577687D01*
X14388355Y18364811D02*
X14388355Y17768757D01*
X14388355Y18279660D02*
X14345780Y18322235D01*
X14345780Y18322235D02*
X14260630Y18364811D01*
X14260630Y18364811D02*
X14132904Y18364811D01*
X14132904Y18364811D02*
X14047753Y18322235D01*
X14047753Y18322235D02*
X14005178Y18237085D01*
X14005178Y18237085D02*
X14005178Y17768757D01*
X13579425Y17768757D02*
X13579425Y18364811D01*
X13579425Y18662837D02*
X13622001Y18620262D01*
X13622001Y18620262D02*
X13579425Y18577687D01*
X13579425Y18577687D02*
X13536850Y18620262D01*
X13536850Y18620262D02*
X13579425Y18662837D01*
X13579425Y18662837D02*
X13579425Y18577687D01*
X12727921Y17768757D02*
X13153673Y17768757D01*
X13153673Y17768757D02*
X13153673Y18662837D01*
X12429894Y17768757D02*
X12429894Y18364811D01*
X12429894Y18662837D02*
X12472470Y18620262D01*
X12472470Y18620262D02*
X12429894Y18577687D01*
X12429894Y18577687D02*
X12387319Y18620262D01*
X12387319Y18620262D02*
X12429894Y18662837D01*
X12429894Y18662837D02*
X12429894Y18577687D01*
X12004142Y18364811D02*
X12004142Y17470731D01*
X12004142Y18322235D02*
X11918992Y18364811D01*
X11918992Y18364811D02*
X11748691Y18364811D01*
X11748691Y18364811D02*
X11663540Y18322235D01*
X11663540Y18322235D02*
X11620965Y18279660D01*
X11620965Y18279660D02*
X11578390Y18194510D01*
X11578390Y18194510D02*
X11578390Y17939058D01*
X11578390Y17939058D02*
X11620965Y17853908D01*
X11620965Y17853908D02*
X11663540Y17811333D01*
X11663540Y17811333D02*
X11748691Y17768757D01*
X11748691Y17768757D02*
X11918992Y17768757D01*
X11918992Y17768757D02*
X12004142Y17811333D01*
X11067487Y17768757D02*
X11152637Y17811333D01*
X11152637Y17811333D02*
X11195212Y17853908D01*
X11195212Y17853908D02*
X11237788Y17939058D01*
X11237788Y17939058D02*
X11237788Y18194510D01*
X11237788Y18194510D02*
X11195212Y18279660D01*
X11195212Y18279660D02*
X11152637Y18322235D01*
X11152637Y18322235D02*
X11067487Y18364811D01*
X11067487Y18364811D02*
X10939761Y18364811D01*
X10939761Y18364811D02*
X10854610Y18322235D01*
X10854610Y18322235D02*
X10812035Y18279660D01*
X10812035Y18279660D02*
X10769460Y18194510D01*
X10769460Y18194510D02*
X10769460Y17939058D01*
X10769460Y17939058D02*
X10812035Y17853908D01*
X10812035Y17853908D02*
X10854610Y17811333D01*
X10854610Y17811333D02*
X10939761Y17768757D01*
X10939761Y17768757D02*
X11067487Y17768757D01*
X17359913Y3925757D02*
X17359913Y4521811D01*
X17359913Y4351510D02*
X17317338Y4436660D01*
X17317338Y4436660D02*
X17274763Y4479235D01*
X17274763Y4479235D02*
X17189612Y4521811D01*
X17189612Y4521811D02*
X17104462Y4521811D01*
X16423258Y3925757D02*
X16423258Y4394085D01*
X16423258Y4394085D02*
X16465833Y4479235D01*
X16465833Y4479235D02*
X16550984Y4521811D01*
X16550984Y4521811D02*
X16721285Y4521811D01*
X16721285Y4521811D02*
X16806435Y4479235D01*
X16423258Y3968333D02*
X16508409Y3925757D01*
X16508409Y3925757D02*
X16721285Y3925757D01*
X16721285Y3925757D02*
X16806435Y3968333D01*
X16806435Y3968333D02*
X16849011Y4053483D01*
X16849011Y4053483D02*
X16849011Y4138633D01*
X16849011Y4138633D02*
X16806435Y4223784D01*
X16806435Y4223784D02*
X16721285Y4266359D01*
X16721285Y4266359D02*
X16508409Y4266359D01*
X16508409Y4266359D02*
X16423258Y4308934D01*
X16125231Y4521811D02*
X15784629Y4521811D01*
X15997505Y4819837D02*
X15997505Y4053483D01*
X15997505Y4053483D02*
X15954930Y3968333D01*
X15954930Y3968333D02*
X15869780Y3925757D01*
X15869780Y3925757D02*
X15784629Y3925757D01*
X15146000Y3968333D02*
X15231151Y3925757D01*
X15231151Y3925757D02*
X15401452Y3925757D01*
X15401452Y3925757D02*
X15486602Y3968333D01*
X15486602Y3968333D02*
X15529178Y4053483D01*
X15529178Y4053483D02*
X15529178Y4394085D01*
X15529178Y4394085D02*
X15486602Y4479235D01*
X15486602Y4479235D02*
X15401452Y4521811D01*
X15401452Y4521811D02*
X15231151Y4521811D01*
X15231151Y4521811D02*
X15146000Y4479235D01*
X15146000Y4479235D02*
X15103425Y4394085D01*
X15103425Y4394085D02*
X15103425Y4308934D01*
X15103425Y4308934D02*
X15529178Y4223784D01*
X13655867Y3925757D02*
X13655867Y4819837D01*
X13655867Y3968333D02*
X13741018Y3925757D01*
X13741018Y3925757D02*
X13911319Y3925757D01*
X13911319Y3925757D02*
X13996469Y3968333D01*
X13996469Y3968333D02*
X14039044Y4010908D01*
X14039044Y4010908D02*
X14081620Y4096058D01*
X14081620Y4096058D02*
X14081620Y4351510D01*
X14081620Y4351510D02*
X14039044Y4436660D01*
X14039044Y4436660D02*
X13996469Y4479235D01*
X13996469Y4479235D02*
X13911319Y4521811D01*
X13911319Y4521811D02*
X13741018Y4521811D01*
X13741018Y4521811D02*
X13655867Y4479235D01*
X12889512Y3968333D02*
X12974663Y3925757D01*
X12974663Y3925757D02*
X13144964Y3925757D01*
X13144964Y3925757D02*
X13230114Y3968333D01*
X13230114Y3968333D02*
X13272690Y4053483D01*
X13272690Y4053483D02*
X13272690Y4394085D01*
X13272690Y4394085D02*
X13230114Y4479235D01*
X13230114Y4479235D02*
X13144964Y4521811D01*
X13144964Y4521811D02*
X12974663Y4521811D01*
X12974663Y4521811D02*
X12889512Y4479235D01*
X12889512Y4479235D02*
X12846937Y4394085D01*
X12846937Y4394085D02*
X12846937Y4308934D01*
X12846937Y4308934D02*
X13272690Y4223784D01*
X12591486Y4521811D02*
X12250884Y4521811D01*
X12463760Y3925757D02*
X12463760Y4692112D01*
X12463760Y4692112D02*
X12421185Y4777262D01*
X12421185Y4777262D02*
X12336035Y4819837D01*
X12336035Y4819837D02*
X12250884Y4819837D01*
X11569680Y3925757D02*
X11569680Y4394085D01*
X11569680Y4394085D02*
X11612255Y4479235D01*
X11612255Y4479235D02*
X11697406Y4521811D01*
X11697406Y4521811D02*
X11867707Y4521811D01*
X11867707Y4521811D02*
X11952857Y4479235D01*
X11569680Y3968333D02*
X11654831Y3925757D01*
X11654831Y3925757D02*
X11867707Y3925757D01*
X11867707Y3925757D02*
X11952857Y3968333D01*
X11952857Y3968333D02*
X11995433Y4053483D01*
X11995433Y4053483D02*
X11995433Y4138633D01*
X11995433Y4138633D02*
X11952857Y4223784D01*
X11952857Y4223784D02*
X11867707Y4266359D01*
X11867707Y4266359D02*
X11654831Y4266359D01*
X11654831Y4266359D02*
X11569680Y4308934D01*
X10760750Y4521811D02*
X10760750Y3925757D01*
X11143927Y4521811D02*
X11143927Y4053483D01*
X11143927Y4053483D02*
X11101352Y3968333D01*
X11101352Y3968333D02*
X11016202Y3925757D01*
X11016202Y3925757D02*
X10888476Y3925757D01*
X10888476Y3925757D02*
X10803325Y3968333D01*
X10803325Y3968333D02*
X10760750Y4010908D01*
X10207272Y3925757D02*
X10292422Y3968333D01*
X10292422Y3968333D02*
X10334997Y4053483D01*
X10334997Y4053483D02*
X10334997Y4819837D01*
X9994395Y4521811D02*
X9653793Y4521811D01*
X9866669Y4819837D02*
X9866669Y4053483D01*
X9866669Y4053483D02*
X9824094Y3968333D01*
X9824094Y3968333D02*
X9738944Y3925757D01*
X9738944Y3925757D02*
X9653793Y3925757D01*
X18034586Y5449757D02*
X18545489Y5449757D01*
X18290037Y5449757D02*
X18290037Y6343837D01*
X18290037Y6343837D02*
X18375188Y6216112D01*
X18375188Y6216112D02*
X18460338Y6130961D01*
X18460338Y6130961D02*
X18545489Y6088386D01*
X17481107Y6343837D02*
X17395957Y6343837D01*
X17395957Y6343837D02*
X17310806Y6301262D01*
X17310806Y6301262D02*
X17268231Y6258687D01*
X17268231Y6258687D02*
X17225656Y6173536D01*
X17225656Y6173536D02*
X17183081Y6003235D01*
X17183081Y6003235D02*
X17183081Y5790359D01*
X17183081Y5790359D02*
X17225656Y5620058D01*
X17225656Y5620058D02*
X17268231Y5534908D01*
X17268231Y5534908D02*
X17310806Y5492333D01*
X17310806Y5492333D02*
X17395957Y5449757D01*
X17395957Y5449757D02*
X17481107Y5449757D01*
X17481107Y5449757D02*
X17566258Y5492333D01*
X17566258Y5492333D02*
X17608833Y5534908D01*
X17608833Y5534908D02*
X17651408Y5620058D01*
X17651408Y5620058D02*
X17693984Y5790359D01*
X17693984Y5790359D02*
X17693984Y6003235D01*
X17693984Y6003235D02*
X17651408Y6173536D01*
X17651408Y6173536D02*
X17608833Y6258687D01*
X17608833Y6258687D02*
X17566258Y6301262D01*
X17566258Y6301262D02*
X17481107Y6343837D01*
X16629602Y6343837D02*
X16544452Y6343837D01*
X16544452Y6343837D02*
X16459301Y6301262D01*
X16459301Y6301262D02*
X16416726Y6258687D01*
X16416726Y6258687D02*
X16374151Y6173536D01*
X16374151Y6173536D02*
X16331576Y6003235D01*
X16331576Y6003235D02*
X16331576Y5790359D01*
X16331576Y5790359D02*
X16374151Y5620058D01*
X16374151Y5620058D02*
X16416726Y5534908D01*
X16416726Y5534908D02*
X16459301Y5492333D01*
X16459301Y5492333D02*
X16544452Y5449757D01*
X16544452Y5449757D02*
X16629602Y5449757D01*
X16629602Y5449757D02*
X16714753Y5492333D01*
X16714753Y5492333D02*
X16757328Y5534908D01*
X16757328Y5534908D02*
X16799903Y5620058D01*
X16799903Y5620058D02*
X16842479Y5790359D01*
X16842479Y5790359D02*
X16842479Y6003235D01*
X16842479Y6003235D02*
X16799903Y6173536D01*
X16799903Y6173536D02*
X16757328Y6258687D01*
X16757328Y6258687D02*
X16714753Y6301262D01*
X16714753Y6301262D02*
X16629602Y6343837D01*
X15948398Y5449757D02*
X15948398Y6045811D01*
X15948398Y5960660D02*
X15905823Y6003235D01*
X15905823Y6003235D02*
X15820673Y6045811D01*
X15820673Y6045811D02*
X15692947Y6045811D01*
X15692947Y6045811D02*
X15607796Y6003235D01*
X15607796Y6003235D02*
X15565221Y5918085D01*
X15565221Y5918085D02*
X15565221Y5449757D01*
X15565221Y5918085D02*
X15522646Y6003235D01*
X15522646Y6003235D02*
X15437495Y6045811D01*
X15437495Y6045811D02*
X15309770Y6045811D01*
X15309770Y6045811D02*
X15224619Y6003235D01*
X15224619Y6003235D02*
X15182044Y5918085D01*
X15182044Y5918085D02*
X15182044Y5449757D01*
X14798867Y5705209D02*
X14373114Y5705209D01*
X14884017Y5449757D02*
X14585990Y6343837D01*
X14585990Y6343837D02*
X14287964Y5449757D01*
X12925556Y5492333D02*
X13010707Y5449757D01*
X13010707Y5449757D02*
X13181008Y5449757D01*
X13181008Y5449757D02*
X13266158Y5492333D01*
X13266158Y5492333D02*
X13308733Y5534908D01*
X13308733Y5534908D02*
X13351309Y5620058D01*
X13351309Y5620058D02*
X13351309Y5875510D01*
X13351309Y5875510D02*
X13308733Y5960660D01*
X13308733Y5960660D02*
X13266158Y6003235D01*
X13266158Y6003235D02*
X13181008Y6045811D01*
X13181008Y6045811D02*
X13010707Y6045811D01*
X13010707Y6045811D02*
X12925556Y6003235D01*
X12542379Y5449757D02*
X12542379Y6343837D01*
X12159202Y5449757D02*
X12159202Y5918085D01*
X12159202Y5918085D02*
X12201777Y6003235D01*
X12201777Y6003235D02*
X12286928Y6045811D01*
X12286928Y6045811D02*
X12414654Y6045811D01*
X12414654Y6045811D02*
X12499804Y6003235D01*
X12499804Y6003235D02*
X12542379Y5960660D01*
X11350272Y5449757D02*
X11350272Y5918085D01*
X11350272Y5918085D02*
X11392847Y6003235D01*
X11392847Y6003235D02*
X11477998Y6045811D01*
X11477998Y6045811D02*
X11648299Y6045811D01*
X11648299Y6045811D02*
X11733449Y6003235D01*
X11350272Y5492333D02*
X11435423Y5449757D01*
X11435423Y5449757D02*
X11648299Y5449757D01*
X11648299Y5449757D02*
X11733449Y5492333D01*
X11733449Y5492333D02*
X11776025Y5577483D01*
X11776025Y5577483D02*
X11776025Y5662633D01*
X11776025Y5662633D02*
X11733449Y5747784D01*
X11733449Y5747784D02*
X11648299Y5790359D01*
X11648299Y5790359D02*
X11435423Y5790359D01*
X11435423Y5790359D02*
X11350272Y5832934D01*
X10924519Y5449757D02*
X10924519Y6045811D01*
X10924519Y5875510D02*
X10881944Y5960660D01*
X10881944Y5960660D02*
X10839369Y6003235D01*
X10839369Y6003235D02*
X10754218Y6045811D01*
X10754218Y6045811D02*
X10669068Y6045811D01*
X9987864Y6045811D02*
X9987864Y5322032D01*
X9987864Y5322032D02*
X10030439Y5236881D01*
X10030439Y5236881D02*
X10073015Y5194306D01*
X10073015Y5194306D02*
X10158165Y5151731D01*
X10158165Y5151731D02*
X10285891Y5151731D01*
X10285891Y5151731D02*
X10371041Y5194306D01*
X9987864Y5492333D02*
X10073015Y5449757D01*
X10073015Y5449757D02*
X10243316Y5449757D01*
X10243316Y5449757D02*
X10328466Y5492333D01*
X10328466Y5492333D02*
X10371041Y5534908D01*
X10371041Y5534908D02*
X10413617Y5620058D01*
X10413617Y5620058D02*
X10413617Y5875510D01*
X10413617Y5875510D02*
X10371041Y5960660D01*
X10371041Y5960660D02*
X10328466Y6003235D01*
X10328466Y6003235D02*
X10243316Y6045811D01*
X10243316Y6045811D02*
X10073015Y6045811D01*
X10073015Y6045811D02*
X9987864Y6003235D01*
X9221509Y5492333D02*
X9306660Y5449757D01*
X9306660Y5449757D02*
X9476961Y5449757D01*
X9476961Y5449757D02*
X9562111Y5492333D01*
X9562111Y5492333D02*
X9604687Y5577483D01*
X9604687Y5577483D02*
X9604687Y5918085D01*
X9604687Y5918085D02*
X9562111Y6003235D01*
X9562111Y6003235D02*
X9476961Y6045811D01*
X9476961Y6045811D02*
X9306660Y6045811D01*
X9306660Y6045811D02*
X9221509Y6003235D01*
X9221509Y6003235D02*
X9178934Y5918085D01*
X9178934Y5918085D02*
X9178934Y5832934D01*
X9178934Y5832934D02*
X9604687Y5747784D01*
X21255064Y9645837D02*
X20701586Y9645837D01*
X20701586Y9645837D02*
X20999612Y9305235D01*
X20999612Y9305235D02*
X20871887Y9305235D01*
X20871887Y9305235D02*
X20786736Y9262660D01*
X20786736Y9262660D02*
X20744161Y9220085D01*
X20744161Y9220085D02*
X20701586Y9134934D01*
X20701586Y9134934D02*
X20701586Y8922058D01*
X20701586Y8922058D02*
X20744161Y8836908D01*
X20744161Y8836908D02*
X20786736Y8794333D01*
X20786736Y8794333D02*
X20871887Y8751757D01*
X20871887Y8751757D02*
X21127338Y8751757D01*
X21127338Y8751757D02*
X21212489Y8794333D01*
X21212489Y8794333D02*
X21255064Y8836908D01*
X20318408Y8836908D02*
X20275833Y8794333D01*
X20275833Y8794333D02*
X20318408Y8751757D01*
X20318408Y8751757D02*
X20360984Y8794333D01*
X20360984Y8794333D02*
X20318408Y8836908D01*
X20318408Y8836908D02*
X20318408Y8751757D01*
X19977807Y9645837D02*
X19381753Y9645837D01*
X19381753Y9645837D02*
X19764931Y8751757D01*
X19168877Y9645837D02*
X18870850Y8751757D01*
X18870850Y8751757D02*
X18572824Y9645837D01*
X17636169Y9688413D02*
X18402523Y8538881D01*
X16954965Y9347811D02*
X16954965Y8751757D01*
X17167841Y9688413D02*
X17380718Y9049784D01*
X17380718Y9049784D02*
X16827239Y9049784D01*
X16486637Y8836908D02*
X16444062Y8794333D01*
X16444062Y8794333D02*
X16486637Y8751757D01*
X16486637Y8751757D02*
X16529213Y8794333D01*
X16529213Y8794333D02*
X16486637Y8836908D01*
X16486637Y8836908D02*
X16486637Y8751757D01*
X16103461Y9560687D02*
X16060885Y9603262D01*
X16060885Y9603262D02*
X15975735Y9645837D01*
X15975735Y9645837D02*
X15762859Y9645837D01*
X15762859Y9645837D02*
X15677708Y9603262D01*
X15677708Y9603262D02*
X15635133Y9560687D01*
X15635133Y9560687D02*
X15592558Y9475536D01*
X15592558Y9475536D02*
X15592558Y9390386D01*
X15592558Y9390386D02*
X15635133Y9262660D01*
X15635133Y9262660D02*
X16146036Y8751757D01*
X16146036Y8751757D02*
X15592558Y8751757D01*
X15337106Y9645837D02*
X15039079Y8751757D01*
X15039079Y8751757D02*
X14741053Y9645837D01*
X13336070Y8751757D02*
X13761822Y8751757D01*
X13761822Y8751757D02*
X13761822Y9645837D01*
X13038043Y8751757D02*
X13038043Y9347811D01*
X13038043Y9645837D02*
X13080619Y9603262D01*
X13080619Y9603262D02*
X13038043Y9560687D01*
X13038043Y9560687D02*
X12995468Y9603262D01*
X12995468Y9603262D02*
X13038043Y9645837D01*
X13038043Y9645837D02*
X13038043Y9560687D01*
X12612291Y8751757D02*
X12612291Y9645837D01*
X12612291Y9645837D02*
X12271689Y9645837D01*
X12271689Y9645837D02*
X12186539Y9603262D01*
X12186539Y9603262D02*
X12143964Y9560687D01*
X12143964Y9560687D02*
X12101388Y9475536D01*
X12101388Y9475536D02*
X12101388Y9347811D01*
X12101388Y9347811D02*
X12143964Y9262660D01*
X12143964Y9262660D02*
X12186539Y9220085D01*
X12186539Y9220085D02*
X12271689Y9177510D01*
X12271689Y9177510D02*
X12612291Y9177510D01*
X11590486Y8751757D02*
X11675636Y8794333D01*
X11675636Y8794333D02*
X11718211Y8836908D01*
X11718211Y8836908D02*
X11760787Y8922058D01*
X11760787Y8922058D02*
X11760787Y9177510D01*
X11760787Y9177510D02*
X11718211Y9262660D01*
X11718211Y9262660D02*
X11675636Y9305235D01*
X11675636Y9305235D02*
X11590486Y9347811D01*
X11590486Y9347811D02*
X11462760Y9347811D01*
X11462760Y9347811D02*
X11377609Y9305235D01*
X11377609Y9305235D02*
X11335034Y9262660D01*
X11335034Y9262660D02*
X11292459Y9177510D01*
X11292459Y9177510D02*
X11292459Y8922058D01*
X11292459Y8922058D02*
X11335034Y8836908D01*
X11335034Y8836908D02*
X11377609Y8794333D01*
X11377609Y8794333D02*
X11462760Y8751757D01*
X11462760Y8751757D02*
X11590486Y8751757D01*
X10781556Y8751757D02*
X10866706Y8794333D01*
X10866706Y8794333D02*
X10909281Y8879483D01*
X10909281Y8879483D02*
X10909281Y9645837D01*
X10526104Y9347811D02*
X10313228Y8751757D01*
X10100351Y9347811D02*
X10313228Y8751757D01*
X10313228Y8751757D02*
X10398378Y8538881D01*
X10398378Y8538881D02*
X10440953Y8496306D01*
X10440953Y8496306D02*
X10526104Y8453731D01*
X9121121Y9688413D02*
X9887475Y8538881D01*
X8397342Y8751757D02*
X8823094Y8751757D01*
X8823094Y8751757D02*
X8823094Y9645837D01*
X8099315Y8751757D02*
X8099315Y9347811D01*
X8099315Y9645837D02*
X8141891Y9603262D01*
X8141891Y9603262D02*
X8099315Y9560687D01*
X8099315Y9560687D02*
X8056740Y9603262D01*
X8056740Y9603262D02*
X8099315Y9645837D01*
X8099315Y9645837D02*
X8099315Y9560687D01*
X7673563Y8751757D02*
X7673563Y9645837D01*
X7120086Y8751757D02*
X7205236Y8794333D01*
X7205236Y8794333D02*
X7247811Y8836908D01*
X7247811Y8836908D02*
X7290387Y8922058D01*
X7290387Y8922058D02*
X7290387Y9177510D01*
X7290387Y9177510D02*
X7247811Y9262660D01*
X7247811Y9262660D02*
X7205236Y9305235D01*
X7205236Y9305235D02*
X7120086Y9347811D01*
X7120086Y9347811D02*
X6992360Y9347811D01*
X6992360Y9347811D02*
X6907209Y9305235D01*
X6907209Y9305235D02*
X6864634Y9262660D01*
X6864634Y9262660D02*
X6822059Y9177510D01*
X6822059Y9177510D02*
X6822059Y8922058D01*
X6822059Y8922058D02*
X6864634Y8836908D01*
X6864634Y8836908D02*
X6907209Y8794333D01*
X6907209Y8794333D02*
X6992360Y8751757D01*
X6992360Y8751757D02*
X7120086Y8751757D01*
X6438881Y9347811D02*
X6438881Y8751757D01*
X6438881Y9262660D02*
X6396306Y9305235D01*
X6396306Y9305235D02*
X6311156Y9347811D01*
X6311156Y9347811D02*
X6183430Y9347811D01*
X6183430Y9347811D02*
X6098279Y9305235D01*
X6098279Y9305235D02*
X6055704Y9220085D01*
X6055704Y9220085D02*
X6055704Y8751757D01*
X22609489Y12944209D02*
X22183736Y12944209D01*
X22694639Y12688757D02*
X22396612Y13582837D01*
X22396612Y13582837D02*
X22098586Y12688757D01*
X21417382Y12688757D02*
X21417382Y13582837D01*
X21417382Y12731333D02*
X21502533Y12688757D01*
X21502533Y12688757D02*
X21672834Y12688757D01*
X21672834Y12688757D02*
X21757984Y12731333D01*
X21757984Y12731333D02*
X21800559Y12773908D01*
X21800559Y12773908D02*
X21843135Y12859058D01*
X21843135Y12859058D02*
X21843135Y13114510D01*
X21843135Y13114510D02*
X21800559Y13199660D01*
X21800559Y13199660D02*
X21757984Y13242235D01*
X21757984Y13242235D02*
X21672834Y13284811D01*
X21672834Y13284811D02*
X21502533Y13284811D01*
X21502533Y13284811D02*
X21417382Y13242235D01*
X20608452Y12688757D02*
X20608452Y13157085D01*
X20608452Y13157085D02*
X20651027Y13242235D01*
X20651027Y13242235D02*
X20736178Y13284811D01*
X20736178Y13284811D02*
X20906479Y13284811D01*
X20906479Y13284811D02*
X20991629Y13242235D01*
X20608452Y12731333D02*
X20693603Y12688757D01*
X20693603Y12688757D02*
X20906479Y12688757D01*
X20906479Y12688757D02*
X20991629Y12731333D01*
X20991629Y12731333D02*
X21034205Y12816483D01*
X21034205Y12816483D02*
X21034205Y12901633D01*
X21034205Y12901633D02*
X20991629Y12986784D01*
X20991629Y12986784D02*
X20906479Y13029359D01*
X20906479Y13029359D02*
X20693603Y13029359D01*
X20693603Y13029359D02*
X20608452Y13071934D01*
X20310425Y13284811D02*
X19969823Y13284811D01*
X20182699Y12688757D02*
X20182699Y13455112D01*
X20182699Y13455112D02*
X20140124Y13540262D01*
X20140124Y13540262D02*
X20054974Y13582837D01*
X20054974Y13582837D02*
X19969823Y13582837D01*
X19671796Y12688757D02*
X19671796Y13284811D01*
X19671796Y13114510D02*
X19629221Y13199660D01*
X19629221Y13199660D02*
X19586646Y13242235D01*
X19586646Y13242235D02*
X19501495Y13284811D01*
X19501495Y13284811D02*
X19416345Y13284811D01*
X18735141Y13284811D02*
X18735141Y12688757D01*
X19118318Y13284811D02*
X19118318Y12816483D01*
X19118318Y12816483D02*
X19075743Y12731333D01*
X19075743Y12731333D02*
X18990593Y12688757D01*
X18990593Y12688757D02*
X18862867Y12688757D01*
X18862867Y12688757D02*
X18777716Y12731333D01*
X18777716Y12731333D02*
X18735141Y12773908D01*
X18309388Y12688757D02*
X18309388Y13284811D01*
X18309388Y13582837D02*
X18351964Y13540262D01*
X18351964Y13540262D02*
X18309388Y13497687D01*
X18309388Y13497687D02*
X18266813Y13540262D01*
X18266813Y13540262D02*
X18309388Y13582837D01*
X18309388Y13582837D02*
X18309388Y13497687D01*
X18011362Y13284811D02*
X17670760Y13284811D01*
X17883636Y13582837D02*
X17883636Y12816483D01*
X17883636Y12816483D02*
X17841061Y12731333D01*
X17841061Y12731333D02*
X17755911Y12688757D01*
X17755911Y12688757D02*
X17670760Y12688757D01*
X17295949Y2387005D02*
X17168223Y2344429D01*
X17168223Y2344429D02*
X16955347Y2344429D01*
X16955347Y2344429D02*
X16870196Y2387005D01*
X16870196Y2387005D02*
X16827621Y2429580D01*
X16827621Y2429580D02*
X16785046Y2514730D01*
X16785046Y2514730D02*
X16785046Y2599881D01*
X16785046Y2599881D02*
X16827621Y2685031D01*
X16827621Y2685031D02*
X16870196Y2727606D01*
X16870196Y2727606D02*
X16955347Y2770182D01*
X16955347Y2770182D02*
X17125648Y2812757D01*
X17125648Y2812757D02*
X17210798Y2855332D01*
X17210798Y2855332D02*
X17253373Y2897907D01*
X17253373Y2897907D02*
X17295949Y2983058D01*
X17295949Y2983058D02*
X17295949Y3068208D01*
X17295949Y3068208D02*
X17253373Y3153359D01*
X17253373Y3153359D02*
X17210798Y3195934D01*
X17210798Y3195934D02*
X17125648Y3238509D01*
X17125648Y3238509D02*
X16912771Y3238509D01*
X16912771Y3238509D02*
X16785046Y3195934D01*
X16401868Y2344429D02*
X16401868Y3238509D01*
X16018691Y2344429D02*
X16018691Y2812757D01*
X16018691Y2812757D02*
X16061266Y2897907D01*
X16061266Y2897907D02*
X16146417Y2940483D01*
X16146417Y2940483D02*
X16274143Y2940483D01*
X16274143Y2940483D02*
X16359293Y2897907D01*
X16359293Y2897907D02*
X16401868Y2855332D01*
X15465213Y2344429D02*
X15550363Y2387005D01*
X15550363Y2387005D02*
X15592938Y2429580D01*
X15592938Y2429580D02*
X15635514Y2514730D01*
X15635514Y2514730D02*
X15635514Y2770182D01*
X15635514Y2770182D02*
X15592938Y2855332D01*
X15592938Y2855332D02*
X15550363Y2897907D01*
X15550363Y2897907D02*
X15465213Y2940483D01*
X15465213Y2940483D02*
X15337487Y2940483D01*
X15337487Y2940483D02*
X15252336Y2897907D01*
X15252336Y2897907D02*
X15209761Y2855332D01*
X15209761Y2855332D02*
X15167186Y2770182D01*
X15167186Y2770182D02*
X15167186Y2514730D01*
X15167186Y2514730D02*
X15209761Y2429580D01*
X15209761Y2429580D02*
X15252336Y2387005D01*
X15252336Y2387005D02*
X15337487Y2344429D01*
X15337487Y2344429D02*
X15465213Y2344429D01*
X14784008Y2344429D02*
X14784008Y2940483D01*
X14784008Y2770182D02*
X14741433Y2855332D01*
X14741433Y2855332D02*
X14698858Y2897907D01*
X14698858Y2897907D02*
X14613707Y2940483D01*
X14613707Y2940483D02*
X14528557Y2940483D01*
X14358256Y2940483D02*
X14017654Y2940483D01*
X14230530Y3238509D02*
X14230530Y2472155D01*
X14230530Y2472155D02*
X14187955Y2387005D01*
X14187955Y2387005D02*
X14102805Y2344429D01*
X14102805Y2344429D02*
X14017654Y2344429D01*
X13038423Y2940483D02*
X13038423Y2174128D01*
X13038423Y2174128D02*
X13080999Y2088978D01*
X13080999Y2088978D02*
X13166149Y2046403D01*
X13166149Y2046403D02*
X13208724Y2046403D01*
X13038423Y3238509D02*
X13080999Y3195934D01*
X13080999Y3195934D02*
X13038423Y3153359D01*
X13038423Y3153359D02*
X12995848Y3195934D01*
X12995848Y3195934D02*
X13038423Y3238509D01*
X13038423Y3238509D02*
X13038423Y3153359D01*
X12229494Y2940483D02*
X12229494Y2344429D01*
X12612671Y2940483D02*
X12612671Y2472155D01*
X12612671Y2472155D02*
X12570096Y2387005D01*
X12570096Y2387005D02*
X12484946Y2344429D01*
X12484946Y2344429D02*
X12357220Y2344429D01*
X12357220Y2344429D02*
X12272069Y2387005D01*
X12272069Y2387005D02*
X12229494Y2429580D01*
X11803741Y2344429D02*
X11803741Y2940483D01*
X11803741Y2855332D02*
X11761166Y2897907D01*
X11761166Y2897907D02*
X11676016Y2940483D01*
X11676016Y2940483D02*
X11548290Y2940483D01*
X11548290Y2940483D02*
X11463139Y2897907D01*
X11463139Y2897907D02*
X11420564Y2812757D01*
X11420564Y2812757D02*
X11420564Y2344429D01*
X11420564Y2812757D02*
X11377989Y2897907D01*
X11377989Y2897907D02*
X11292838Y2940483D01*
X11292838Y2940483D02*
X11165113Y2940483D01*
X11165113Y2940483D02*
X11079962Y2897907D01*
X11079962Y2897907D02*
X11037387Y2812757D01*
X11037387Y2812757D02*
X11037387Y2344429D01*
X10611634Y2940483D02*
X10611634Y2046403D01*
X10611634Y2897907D02*
X10526484Y2940483D01*
X10526484Y2940483D02*
X10356183Y2940483D01*
X10356183Y2940483D02*
X10271032Y2897907D01*
X10271032Y2897907D02*
X10228457Y2855332D01*
X10228457Y2855332D02*
X10185882Y2770182D01*
X10185882Y2770182D02*
X10185882Y2514730D01*
X10185882Y2514730D02*
X10228457Y2429580D01*
X10228457Y2429580D02*
X10271032Y2387005D01*
X10271032Y2387005D02*
X10356183Y2344429D01*
X10356183Y2344429D02*
X10526484Y2344429D01*
X10526484Y2344429D02*
X10611634Y2387005D01*
X9462102Y2387005D02*
X9547253Y2344429D01*
X9547253Y2344429D02*
X9717554Y2344429D01*
X9717554Y2344429D02*
X9802704Y2387005D01*
X9802704Y2387005D02*
X9845280Y2472155D01*
X9845280Y2472155D02*
X9845280Y2812757D01*
X9845280Y2812757D02*
X9802704Y2897907D01*
X9802704Y2897907D02*
X9717554Y2940483D01*
X9717554Y2940483D02*
X9547253Y2940483D01*
X9547253Y2940483D02*
X9462102Y2897907D01*
X9462102Y2897907D02*
X9419527Y2812757D01*
X9419527Y2812757D02*
X9419527Y2727606D01*
X9419527Y2727606D02*
X9845280Y2642456D01*
X9036350Y2344429D02*
X9036350Y2940483D01*
X9036350Y2770182D02*
X8993775Y2855332D01*
X8993775Y2855332D02*
X8951200Y2897907D01*
X8951200Y2897907D02*
X8866049Y2940483D01*
X8866049Y2940483D02*
X8780899Y2940483D01*
X15720664Y1501064D02*
X15380062Y1501064D01*
X15592938Y905010D02*
X15592938Y1671365D01*
X15592938Y1671365D02*
X15550363Y1756515D01*
X15550363Y1756515D02*
X15465213Y1799090D01*
X15465213Y1799090D02*
X15380062Y1799090D01*
X14954310Y905010D02*
X15039460Y947586D01*
X15039460Y947586D02*
X15082035Y990161D01*
X15082035Y990161D02*
X15124611Y1075311D01*
X15124611Y1075311D02*
X15124611Y1330763D01*
X15124611Y1330763D02*
X15082035Y1415913D01*
X15082035Y1415913D02*
X15039460Y1458488D01*
X15039460Y1458488D02*
X14954310Y1501064D01*
X14954310Y1501064D02*
X14826584Y1501064D01*
X14826584Y1501064D02*
X14741433Y1458488D01*
X14741433Y1458488D02*
X14698858Y1415913D01*
X14698858Y1415913D02*
X14656283Y1330763D01*
X14656283Y1330763D02*
X14656283Y1075311D01*
X14656283Y1075311D02*
X14698858Y990161D01*
X14698858Y990161D02*
X14741433Y947586D01*
X14741433Y947586D02*
X14826584Y905010D01*
X14826584Y905010D02*
X14954310Y905010D01*
X14273105Y905010D02*
X14273105Y1501064D01*
X14273105Y1330763D02*
X14230530Y1415913D01*
X14230530Y1415913D02*
X14187955Y1458488D01*
X14187955Y1458488D02*
X14102804Y1501064D01*
X14102804Y1501064D02*
X14017654Y1501064D01*
X12868122Y1799090D02*
X12782972Y1799090D01*
X12782972Y1799090D02*
X12697821Y1756515D01*
X12697821Y1756515D02*
X12655246Y1713940D01*
X12655246Y1713940D02*
X12612671Y1628789D01*
X12612671Y1628789D02*
X12570096Y1458488D01*
X12570096Y1458488D02*
X12570096Y1245612D01*
X12570096Y1245612D02*
X12612671Y1075311D01*
X12612671Y1075311D02*
X12655246Y990161D01*
X12655246Y990161D02*
X12697821Y947586D01*
X12697821Y947586D02*
X12782972Y905010D01*
X12782972Y905010D02*
X12868122Y905010D01*
X12868122Y905010D02*
X12953273Y947586D01*
X12953273Y947586D02*
X12995848Y990161D01*
X12995848Y990161D02*
X13038423Y1075311D01*
X13038423Y1075311D02*
X13080999Y1245612D01*
X13080999Y1245612D02*
X13080999Y1458488D01*
X13080999Y1458488D02*
X13038423Y1628789D01*
X13038423Y1628789D02*
X12995848Y1713940D01*
X12995848Y1713940D02*
X12953273Y1756515D01*
X12953273Y1756515D02*
X12868122Y1799090D01*
X12186918Y990161D02*
X12144343Y947586D01*
X12144343Y947586D02*
X12186918Y905010D01*
X12186918Y905010D02*
X12229494Y947586D01*
X12229494Y947586D02*
X12186918Y990161D01*
X12186918Y990161D02*
X12186918Y905010D01*
X11335414Y1799090D02*
X11761166Y1799090D01*
X11761166Y1799090D02*
X11803742Y1373338D01*
X11803742Y1373338D02*
X11761166Y1415913D01*
X11761166Y1415913D02*
X11676016Y1458488D01*
X11676016Y1458488D02*
X11463140Y1458488D01*
X11463140Y1458488D02*
X11377989Y1415913D01*
X11377989Y1415913D02*
X11335414Y1373338D01*
X11335414Y1373338D02*
X11292839Y1288187D01*
X11292839Y1288187D02*
X11292839Y1075311D01*
X11292839Y1075311D02*
X11335414Y990161D01*
X11335414Y990161D02*
X11377989Y947586D01*
X11377989Y947586D02*
X11463140Y905010D01*
X11463140Y905010D02*
X11676016Y905010D01*
X11676016Y905010D02*
X11761166Y947586D01*
X11761166Y947586D02*
X11803742Y990161D01*
X10952237Y1160462D02*
X10526484Y1160462D01*
X11037387Y905010D02*
X10739360Y1799090D01*
X10739360Y1799090D02*
X10441334Y905010D01*
D11*
X18716401Y7720233D02*
X18582869Y7675723D01*
X18582869Y7675723D02*
X18538359Y7631212D01*
X18538359Y7631212D02*
X18493848Y7542191D01*
X18493848Y7542191D02*
X18493848Y7408660D01*
X18493848Y7408660D02*
X18538359Y7319639D01*
X18538359Y7319639D02*
X18582869Y7275129D01*
X18582869Y7275129D02*
X18671890Y7230618D01*
X18671890Y7230618D02*
X19027974Y7230618D01*
X19027974Y7230618D02*
X19027974Y8165338D01*
X19027974Y8165338D02*
X18716401Y8165338D01*
X18716401Y8165338D02*
X18627380Y8120828D01*
X18627380Y8120828D02*
X18582869Y8076317D01*
X18582869Y8076317D02*
X18538359Y7987296D01*
X18538359Y7987296D02*
X18538359Y7898275D01*
X18538359Y7898275D02*
X18582869Y7809254D01*
X18582869Y7809254D02*
X18627380Y7764744D01*
X18627380Y7764744D02*
X18716401Y7720233D01*
X18716401Y7720233D02*
X19027974Y7720233D01*
X17692660Y7230618D02*
X17692660Y7720233D01*
X17692660Y7720233D02*
X17737170Y7809254D01*
X17737170Y7809254D02*
X17826191Y7853765D01*
X17826191Y7853765D02*
X18004233Y7853765D01*
X18004233Y7853765D02*
X18093254Y7809254D01*
X17692660Y7275129D02*
X17781681Y7230618D01*
X17781681Y7230618D02*
X18004233Y7230618D01*
X18004233Y7230618D02*
X18093254Y7275129D01*
X18093254Y7275129D02*
X18137765Y7364149D01*
X18137765Y7364149D02*
X18137765Y7453170D01*
X18137765Y7453170D02*
X18093254Y7542191D01*
X18093254Y7542191D02*
X18004233Y7586702D01*
X18004233Y7586702D02*
X17781681Y7586702D01*
X17781681Y7586702D02*
X17692660Y7631212D01*
X17381087Y7853765D02*
X17025003Y7853765D01*
X17247555Y8165338D02*
X17247555Y7364149D01*
X17247555Y7364149D02*
X17203045Y7275129D01*
X17203045Y7275129D02*
X17114024Y7230618D01*
X17114024Y7230618D02*
X17025003Y7230618D01*
X16846961Y7853765D02*
X16490877Y7853765D01*
X16713429Y8165338D02*
X16713429Y7364149D01*
X16713429Y7364149D02*
X16668919Y7275129D01*
X16668919Y7275129D02*
X16579898Y7230618D01*
X16579898Y7230618D02*
X16490877Y7230618D01*
X15823219Y7275129D02*
X15912240Y7230618D01*
X15912240Y7230618D02*
X16090282Y7230618D01*
X16090282Y7230618D02*
X16179303Y7275129D01*
X16179303Y7275129D02*
X16223814Y7364149D01*
X16223814Y7364149D02*
X16223814Y7720233D01*
X16223814Y7720233D02*
X16179303Y7809254D01*
X16179303Y7809254D02*
X16090282Y7853765D01*
X16090282Y7853765D02*
X15912240Y7853765D01*
X15912240Y7853765D02*
X15823219Y7809254D01*
X15823219Y7809254D02*
X15778709Y7720233D01*
X15778709Y7720233D02*
X15778709Y7631212D01*
X15778709Y7631212D02*
X16223814Y7542191D01*
X15378114Y7230618D02*
X15378114Y7853765D01*
X15378114Y7675723D02*
X15333604Y7764744D01*
X15333604Y7764744D02*
X15289093Y7809254D01*
X15289093Y7809254D02*
X15200072Y7853765D01*
X15200072Y7853765D02*
X15111051Y7853765D01*
X14888499Y7853765D02*
X14665947Y7230618D01*
X14443394Y7853765D02*
X14665947Y7230618D01*
X14665947Y7230618D02*
X14754968Y7008066D01*
X14754968Y7008066D02*
X14799478Y6963555D01*
X14799478Y6963555D02*
X14888499Y6919045D01*
X12841016Y7319639D02*
X12885527Y7275129D01*
X12885527Y7275129D02*
X13019058Y7230618D01*
X13019058Y7230618D02*
X13108079Y7230618D01*
X13108079Y7230618D02*
X13241611Y7275129D01*
X13241611Y7275129D02*
X13330632Y7364149D01*
X13330632Y7364149D02*
X13375142Y7453170D01*
X13375142Y7453170D02*
X13419653Y7631212D01*
X13419653Y7631212D02*
X13419653Y7764744D01*
X13419653Y7764744D02*
X13375142Y7942786D01*
X13375142Y7942786D02*
X13330632Y8031807D01*
X13330632Y8031807D02*
X13241611Y8120828D01*
X13241611Y8120828D02*
X13108079Y8165338D01*
X13108079Y8165338D02*
X13019058Y8165338D01*
X13019058Y8165338D02*
X12885527Y8120828D01*
X12885527Y8120828D02*
X12841016Y8076317D01*
X12440422Y7230618D02*
X12440422Y8165338D01*
X12039828Y7230618D02*
X12039828Y7720233D01*
X12039828Y7720233D02*
X12084338Y7809254D01*
X12084338Y7809254D02*
X12173359Y7853765D01*
X12173359Y7853765D02*
X12306891Y7853765D01*
X12306891Y7853765D02*
X12395912Y7809254D01*
X12395912Y7809254D02*
X12440422Y7764744D01*
X11194129Y7230618D02*
X11194129Y7720233D01*
X11194129Y7720233D02*
X11238639Y7809254D01*
X11238639Y7809254D02*
X11327660Y7853765D01*
X11327660Y7853765D02*
X11505702Y7853765D01*
X11505702Y7853765D02*
X11594723Y7809254D01*
X11194129Y7275129D02*
X11283150Y7230618D01*
X11283150Y7230618D02*
X11505702Y7230618D01*
X11505702Y7230618D02*
X11594723Y7275129D01*
X11594723Y7275129D02*
X11639234Y7364149D01*
X11639234Y7364149D02*
X11639234Y7453170D01*
X11639234Y7453170D02*
X11594723Y7542191D01*
X11594723Y7542191D02*
X11505702Y7586702D01*
X11505702Y7586702D02*
X11283150Y7586702D01*
X11283150Y7586702D02*
X11194129Y7631212D01*
X10749024Y7230618D02*
X10749024Y7853765D01*
X10749024Y7675723D02*
X10704514Y7764744D01*
X10704514Y7764744D02*
X10660003Y7809254D01*
X10660003Y7809254D02*
X10570982Y7853765D01*
X10570982Y7853765D02*
X10481961Y7853765D01*
X9769794Y7853765D02*
X9769794Y7097087D01*
X9769794Y7097087D02*
X9814304Y7008066D01*
X9814304Y7008066D02*
X9858815Y6963555D01*
X9858815Y6963555D02*
X9947836Y6919045D01*
X9947836Y6919045D02*
X10081367Y6919045D01*
X10081367Y6919045D02*
X10170388Y6963555D01*
X9769794Y7275129D02*
X9858815Y7230618D01*
X9858815Y7230618D02*
X10036857Y7230618D01*
X10036857Y7230618D02*
X10125878Y7275129D01*
X10125878Y7275129D02*
X10170388Y7319639D01*
X10170388Y7319639D02*
X10214899Y7408660D01*
X10214899Y7408660D02*
X10214899Y7675723D01*
X10214899Y7675723D02*
X10170388Y7764744D01*
X10170388Y7764744D02*
X10125878Y7809254D01*
X10125878Y7809254D02*
X10036857Y7853765D01*
X10036857Y7853765D02*
X9858815Y7853765D01*
X9858815Y7853765D02*
X9769794Y7809254D01*
X8968605Y7275129D02*
X9057626Y7230618D01*
X9057626Y7230618D02*
X9235668Y7230618D01*
X9235668Y7230618D02*
X9324689Y7275129D01*
X9324689Y7275129D02*
X9369200Y7364149D01*
X9369200Y7364149D02*
X9369200Y7720233D01*
X9369200Y7720233D02*
X9324689Y7809254D01*
X9324689Y7809254D02*
X9235668Y7853765D01*
X9235668Y7853765D02*
X9057626Y7853765D01*
X9057626Y7853765D02*
X8968605Y7809254D01*
X8968605Y7809254D02*
X8924095Y7720233D01*
X8924095Y7720233D02*
X8924095Y7631212D01*
X8924095Y7631212D02*
X9369200Y7542191D01*
X8523500Y7230618D02*
X8523500Y7853765D01*
X8523500Y7675723D02*
X8478990Y7764744D01*
X8478990Y7764744D02*
X8434479Y7809254D01*
X8434479Y7809254D02*
X8345458Y7853765D01*
X8345458Y7853765D02*
X8256437Y7853765D01*
D12*
%TO.C,U$13*%
G36*
X15624800Y13935700D02*
G01*
X13940800Y13935700D01*
X13940800Y13943300D01*
X15624800Y13943300D01*
X15624800Y13935700D01*
G37*
G36*
X15617200Y13897600D02*
G01*
X13895100Y13897600D01*
X13895100Y13905200D01*
X15617200Y13905200D01*
X15617200Y13897600D01*
G37*
G36*
X15617200Y13905200D02*
G01*
X13902700Y13905200D01*
X13902700Y13912900D01*
X15617200Y13912900D01*
X15617200Y13905200D01*
G37*
G36*
X15617200Y13912900D02*
G01*
X13910300Y13912900D01*
X13910300Y13920500D01*
X15617200Y13920500D01*
X15617200Y13912900D01*
G37*
G36*
X15617200Y13920500D02*
G01*
X13925500Y13920500D01*
X13925500Y13928100D01*
X15617200Y13928100D01*
X15617200Y13920500D01*
G37*
G36*
X15617200Y13928100D02*
G01*
X13933200Y13928100D01*
X13933200Y13935700D01*
X15617200Y13935700D01*
X15617200Y13928100D01*
G37*
G36*
X15617200Y13943300D02*
G01*
X13948400Y13943300D01*
X13948400Y13951000D01*
X15617200Y13951000D01*
X15617200Y13943300D01*
G37*
G36*
X15617200Y13951000D02*
G01*
X13963600Y13951000D01*
X13963600Y13958600D01*
X15617200Y13958600D01*
X15617200Y13951000D01*
G37*
G36*
X15617200Y13958600D02*
G01*
X13971300Y13958600D01*
X13971300Y13966200D01*
X15617200Y13966200D01*
X15617200Y13958600D01*
G37*
G36*
X15617200Y13966200D02*
G01*
X13986500Y13966200D01*
X13986500Y13973800D01*
X15617200Y13973800D01*
X15617200Y13966200D01*
G37*
G36*
X15617200Y13973800D02*
G01*
X13994100Y13973800D01*
X13994100Y13981400D01*
X15617200Y13981400D01*
X15617200Y13973800D01*
G37*
G36*
X15617200Y13981400D02*
G01*
X14009400Y13981400D01*
X14009400Y13989100D01*
X15617200Y13989100D01*
X15617200Y13981400D01*
G37*
G36*
X15609600Y13874800D02*
G01*
X13872200Y13874800D01*
X13872200Y13882400D01*
X15609600Y13882400D01*
X15609600Y13874800D01*
G37*
G36*
X15609600Y13882400D02*
G01*
X13879800Y13882400D01*
X13879800Y13890000D01*
X15609600Y13890000D01*
X15609600Y13882400D01*
G37*
G36*
X15609600Y13890000D02*
G01*
X13887400Y13890000D01*
X13887400Y13897600D01*
X15609600Y13897600D01*
X15609600Y13890000D01*
G37*
G36*
X15609600Y13989100D02*
G01*
X14024600Y13989100D01*
X14024600Y13996700D01*
X15609600Y13996700D01*
X15609600Y13989100D01*
G37*
G36*
X15609600Y13996700D02*
G01*
X14032200Y13996700D01*
X14032200Y14004300D01*
X15609600Y14004300D01*
X15609600Y13996700D01*
G37*
G36*
X15601900Y13859500D02*
G01*
X13857000Y13859500D01*
X13857000Y13867100D01*
X15601900Y13867100D01*
X15601900Y13859500D01*
G37*
G36*
X15601900Y13867100D02*
G01*
X13864600Y13867100D01*
X13864600Y13874800D01*
X15601900Y13874800D01*
X15601900Y13867100D01*
G37*
G36*
X15601900Y14004300D02*
G01*
X14047500Y14004300D01*
X14047500Y14011900D01*
X15601900Y14011900D01*
X15601900Y14004300D01*
G37*
G36*
X15601900Y14011900D02*
G01*
X14062700Y14011900D01*
X14062700Y14019500D01*
X15601900Y14019500D01*
X15601900Y14011900D01*
G37*
G36*
X15601900Y14019500D02*
G01*
X14077900Y14019500D01*
X14077900Y14027200D01*
X15601900Y14027200D01*
X15601900Y14019500D01*
G37*
G36*
X15594300Y13844300D02*
G01*
X13841700Y13844300D01*
X13841700Y13851900D01*
X15594300Y13851900D01*
X15594300Y13844300D01*
G37*
G36*
X15594300Y13851900D02*
G01*
X13849300Y13851900D01*
X13849300Y13859500D01*
X15594300Y13859500D01*
X15594300Y13851900D01*
G37*
G36*
X15594300Y14027200D02*
G01*
X14093200Y14027200D01*
X14093200Y14034800D01*
X15594300Y14034800D01*
X15594300Y14027200D01*
G37*
G36*
X15586700Y13836700D02*
G01*
X13834100Y13836700D01*
X13834100Y13844300D01*
X15586700Y13844300D01*
X15586700Y13836700D01*
G37*
G36*
X15586700Y14034800D02*
G01*
X14116000Y14034800D01*
X14116000Y14042400D01*
X15586700Y14042400D01*
X15586700Y14034800D01*
G37*
G36*
X15586700Y14042400D02*
G01*
X14131300Y14042400D01*
X14131300Y14050000D01*
X15586700Y14050000D01*
X15586700Y14042400D01*
G37*
G36*
X15579100Y13821400D02*
G01*
X13826500Y13821400D01*
X13826500Y13829000D01*
X15579100Y13829000D01*
X15579100Y13821400D01*
G37*
G36*
X15579100Y13829000D02*
G01*
X13826500Y13829000D01*
X13826500Y13836700D01*
X15579100Y13836700D01*
X15579100Y13829000D01*
G37*
G36*
X15579100Y14050000D02*
G01*
X14154100Y14050000D01*
X14154100Y14057600D01*
X15579100Y14057600D01*
X15579100Y14050000D01*
G37*
G36*
X15571500Y13813800D02*
G01*
X13818900Y13813800D01*
X13818900Y13821400D01*
X15571500Y13821400D01*
X15571500Y13813800D01*
G37*
G36*
X15571500Y14057600D02*
G01*
X14177000Y14057600D01*
X14177000Y14065300D01*
X15571500Y14065300D01*
X15571500Y14057600D01*
G37*
G36*
X15571500Y14065300D02*
G01*
X14199900Y14065300D01*
X14199900Y14072900D01*
X15571500Y14072900D01*
X15571500Y14065300D01*
G37*
G36*
X15563800Y13798600D02*
G01*
X13803600Y13798600D01*
X13803600Y13806200D01*
X15563800Y13806200D01*
X15563800Y13798600D01*
G37*
G36*
X15563800Y13806200D02*
G01*
X13811200Y13806200D01*
X13811200Y13813800D01*
X15563800Y13813800D01*
X15563800Y13806200D01*
G37*
G36*
X15563800Y14072900D02*
G01*
X14222700Y14072900D01*
X14222700Y14080500D01*
X15563800Y14080500D01*
X15563800Y14072900D01*
G37*
G36*
X15556200Y13790900D02*
G01*
X13803600Y13790900D01*
X13803600Y13798600D01*
X15556200Y13798600D01*
X15556200Y13790900D01*
G37*
G36*
X15548600Y13775700D02*
G01*
X13788400Y13775700D01*
X13788400Y13783300D01*
X15548600Y13783300D01*
X15548600Y13775700D01*
G37*
G36*
X15548600Y13783300D02*
G01*
X13796000Y13783300D01*
X13796000Y13790900D01*
X15548600Y13790900D01*
X15548600Y13783300D01*
G37*
G36*
X15548600Y14080500D02*
G01*
X14253200Y14080500D01*
X14253200Y14088100D01*
X15548600Y14088100D01*
X15548600Y14080500D01*
G37*
G36*
X15541000Y13768100D02*
G01*
X13780800Y13768100D01*
X13780800Y13775700D01*
X15541000Y13775700D01*
X15541000Y13768100D01*
G37*
G36*
X15541000Y14088100D02*
G01*
X14283700Y14088100D01*
X14283700Y14095700D01*
X15541000Y14095700D01*
X15541000Y14088100D01*
G37*
G36*
X15533400Y13760500D02*
G01*
X13780800Y13760500D01*
X13780800Y13768100D01*
X15533400Y13768100D01*
X15533400Y13760500D01*
G37*
G36*
X15525700Y13745200D02*
G01*
X13765500Y13745200D01*
X13765500Y13752800D01*
X15525700Y13752800D01*
X15525700Y13745200D01*
G37*
G36*
X15525700Y13752800D02*
G01*
X13773100Y13752800D01*
X13773100Y13760500D01*
X15525700Y13760500D01*
X15525700Y13752800D01*
G37*
G36*
X15525700Y14095700D02*
G01*
X14314200Y14095700D01*
X14314200Y14103400D01*
X15525700Y14103400D01*
X15525700Y14095700D01*
G37*
G36*
X15518100Y13737600D02*
G01*
X13765500Y13737600D01*
X13765500Y13745200D01*
X15518100Y13745200D01*
X15518100Y13737600D01*
G37*
G36*
X15510500Y13730000D02*
G01*
X13757900Y13730000D01*
X13757900Y13737600D01*
X15510500Y13737600D01*
X15510500Y13730000D01*
G37*
G36*
X15510500Y14103400D02*
G01*
X14359900Y14103400D01*
X14359900Y14111000D01*
X15510500Y14111000D01*
X15510500Y14103400D01*
G37*
G36*
X15502900Y13714700D02*
G01*
X13750300Y13714700D01*
X13750300Y13722400D01*
X15502900Y13722400D01*
X15502900Y13714700D01*
G37*
G36*
X15502900Y13722400D02*
G01*
X13750300Y13722400D01*
X13750300Y13730000D01*
X15502900Y13730000D01*
X15502900Y13722400D01*
G37*
G36*
X15495300Y13707100D02*
G01*
X13742700Y13707100D01*
X13742700Y13714700D01*
X15495300Y13714700D01*
X15495300Y13707100D01*
G37*
G36*
X15487600Y13691900D02*
G01*
X13735000Y13691900D01*
X13735000Y13699500D01*
X15487600Y13699500D01*
X15487600Y13691900D01*
G37*
G36*
X15487600Y13699500D02*
G01*
X13735000Y13699500D01*
X13735000Y13707100D01*
X15487600Y13707100D01*
X15487600Y13699500D01*
G37*
G36*
X15487600Y14111000D02*
G01*
X14413200Y14111000D01*
X14413200Y14118600D01*
X15487600Y14118600D01*
X15487600Y14111000D01*
G37*
G36*
X15480000Y13684300D02*
G01*
X13727400Y13684300D01*
X13727400Y13691900D01*
X15480000Y13691900D01*
X15480000Y13684300D01*
G37*
G36*
X15472400Y13676600D02*
G01*
X13270200Y13676600D01*
X13270200Y13684300D01*
X15472400Y13684300D01*
X15472400Y13676600D01*
G37*
G36*
X15464800Y13661400D02*
G01*
X13277800Y13661400D01*
X13277800Y13669000D01*
X15464800Y13669000D01*
X15464800Y13661400D01*
G37*
G36*
X15464800Y13669000D02*
G01*
X13277800Y13669000D01*
X13277800Y13676600D01*
X15464800Y13676600D01*
X15464800Y13669000D01*
G37*
G36*
X15457200Y13653800D02*
G01*
X13285500Y13653800D01*
X13285500Y13661400D01*
X15457200Y13661400D01*
X15457200Y13653800D01*
G37*
G36*
X15449500Y13646200D02*
G01*
X13285500Y13646200D01*
X13285500Y13653800D01*
X15449500Y13653800D01*
X15449500Y13646200D01*
G37*
G36*
X15441900Y13630900D02*
G01*
X13293100Y13630900D01*
X13293100Y13638500D01*
X15441900Y13638500D01*
X15441900Y13630900D01*
G37*
G36*
X15441900Y13638500D02*
G01*
X13293100Y13638500D01*
X13293100Y13646200D01*
X15441900Y13646200D01*
X15441900Y13638500D01*
G37*
G36*
X15434300Y13623300D02*
G01*
X13300700Y13623300D01*
X13300700Y13630900D01*
X15434300Y13630900D01*
X15434300Y13623300D01*
G37*
G36*
X15426700Y13615700D02*
G01*
X13300700Y13615700D01*
X13300700Y13623300D01*
X15426700Y13623300D01*
X15426700Y13615700D01*
G37*
G36*
X15426700Y14118600D02*
G01*
X14824700Y14118600D01*
X14824700Y14126200D01*
X15426700Y14126200D01*
X15426700Y14118600D01*
G37*
G36*
X15419100Y13600400D02*
G01*
X13308300Y13600400D01*
X13308300Y13608100D01*
X15419100Y13608100D01*
X15419100Y13600400D01*
G37*
G36*
X15419100Y13608100D02*
G01*
X13300700Y13608100D01*
X13300700Y13615700D01*
X15419100Y13615700D01*
X15419100Y13608100D01*
G37*
G36*
X15411400Y13592800D02*
G01*
X13308300Y13592800D01*
X13308300Y13600400D01*
X15411400Y13600400D01*
X15411400Y13592800D01*
G37*
G36*
X15403800Y13577600D02*
G01*
X13315900Y13577600D01*
X13315900Y13585200D01*
X15403800Y13585200D01*
X15403800Y13577600D01*
G37*
G36*
X15403800Y13585200D02*
G01*
X13315900Y13585200D01*
X13315900Y13592800D01*
X15403800Y13592800D01*
X15403800Y13585200D01*
G37*
G36*
X15396200Y13570000D02*
G01*
X13315900Y13570000D01*
X13315900Y13577600D01*
X15396200Y13577600D01*
X15396200Y13570000D01*
G37*
G36*
X15388600Y13562300D02*
G01*
X13323600Y13562300D01*
X13323600Y13570000D01*
X15388600Y13570000D01*
X15388600Y13562300D01*
G37*
G36*
X15381000Y13547100D02*
G01*
X13323600Y13547100D01*
X13323600Y13554700D01*
X15381000Y13554700D01*
X15381000Y13547100D01*
G37*
G36*
X15381000Y13554700D02*
G01*
X13323600Y13554700D01*
X13323600Y13562300D01*
X15381000Y13562300D01*
X15381000Y13554700D01*
G37*
G36*
X15373300Y13539500D02*
G01*
X13323600Y13539500D01*
X13323600Y13547100D01*
X15373300Y13547100D01*
X15373300Y13539500D01*
G37*
G36*
X15365700Y13531900D02*
G01*
X13331200Y13531900D01*
X13331200Y13539500D01*
X15365700Y13539500D01*
X15365700Y13531900D01*
G37*
G36*
X15358100Y13516600D02*
G01*
X13331200Y13516600D01*
X13331200Y13524200D01*
X15358100Y13524200D01*
X15358100Y13516600D01*
G37*
G36*
X15358100Y13524200D02*
G01*
X13331200Y13524200D01*
X13331200Y13531900D01*
X15358100Y13531900D01*
X15358100Y13524200D01*
G37*
G36*
X15350500Y13509000D02*
G01*
X13331200Y13509000D01*
X13331200Y13516600D01*
X15350500Y13516600D01*
X15350500Y13509000D01*
G37*
G36*
X15342900Y13501400D02*
G01*
X13338800Y13501400D01*
X13338800Y13509000D01*
X15342900Y13509000D01*
X15342900Y13501400D01*
G37*
G36*
X15335200Y13486100D02*
G01*
X13338800Y13486100D01*
X13338800Y13493800D01*
X15335200Y13493800D01*
X15335200Y13486100D01*
G37*
G36*
X15335200Y13493800D02*
G01*
X13338800Y13493800D01*
X13338800Y13501400D01*
X15335200Y13501400D01*
X15335200Y13493800D01*
G37*
G36*
X15327600Y13478500D02*
G01*
X13338800Y13478500D01*
X13338800Y13486100D01*
X15327600Y13486100D01*
X15327600Y13478500D01*
G37*
G36*
X15320000Y13463300D02*
G01*
X13346400Y13463300D01*
X13346400Y13470900D01*
X15320000Y13470900D01*
X15320000Y13463300D01*
G37*
G36*
X15320000Y13470900D02*
G01*
X13338800Y13470900D01*
X13338800Y13478500D01*
X15320000Y13478500D01*
X15320000Y13470900D01*
G37*
G36*
X15312400Y13455700D02*
G01*
X13346400Y13455700D01*
X13346400Y13463300D01*
X15312400Y13463300D01*
X15312400Y13455700D01*
G37*
G36*
X15304800Y13448000D02*
G01*
X13346400Y13448000D01*
X13346400Y13455700D01*
X15304800Y13455700D01*
X15304800Y13448000D01*
G37*
G36*
X15297100Y13432800D02*
G01*
X13346400Y13432800D01*
X13346400Y13440400D01*
X15297100Y13440400D01*
X15297100Y13432800D01*
G37*
G36*
X15297100Y13440400D02*
G01*
X13346400Y13440400D01*
X13346400Y13448000D01*
X15297100Y13448000D01*
X15297100Y13440400D01*
G37*
G36*
X15289500Y13425200D02*
G01*
X13346400Y13425200D01*
X13346400Y13432800D01*
X15289500Y13432800D01*
X15289500Y13425200D01*
G37*
G36*
X15281900Y13417600D02*
G01*
X13346400Y13417600D01*
X13346400Y13425200D01*
X15281900Y13425200D01*
X15281900Y13417600D01*
G37*
G36*
X15274300Y13402300D02*
G01*
X13354000Y13402300D01*
X13354000Y13409900D01*
X15274300Y13409900D01*
X15274300Y13402300D01*
G37*
G36*
X15274300Y13409900D02*
G01*
X13354000Y13409900D01*
X13354000Y13417600D01*
X15274300Y13417600D01*
X15274300Y13409900D01*
G37*
G36*
X15266700Y13394700D02*
G01*
X13354000Y13394700D01*
X13354000Y13402300D01*
X15266700Y13402300D01*
X15266700Y13394700D01*
G37*
G36*
X15259000Y13387100D02*
G01*
X13354000Y13387100D01*
X13354000Y13394700D01*
X15259000Y13394700D01*
X15259000Y13387100D01*
G37*
G36*
X15251400Y13371800D02*
G01*
X13354000Y13371800D01*
X13354000Y13379500D01*
X15251400Y13379500D01*
X15251400Y13371800D01*
G37*
G36*
X15251400Y13379500D02*
G01*
X13354000Y13379500D01*
X13354000Y13387100D01*
X15251400Y13387100D01*
X15251400Y13379500D01*
G37*
G36*
X15243800Y13364200D02*
G01*
X13354000Y13364200D01*
X13354000Y13371800D01*
X15243800Y13371800D01*
X15243800Y13364200D01*
G37*
G36*
X15236200Y13356600D02*
G01*
X13354000Y13356600D01*
X13354000Y13364200D01*
X15236200Y13364200D01*
X15236200Y13356600D01*
G37*
G36*
X15228600Y13341400D02*
G01*
X13354000Y13341400D01*
X13354000Y13349000D01*
X15228600Y13349000D01*
X15228600Y13341400D01*
G37*
G36*
X15228600Y13349000D02*
G01*
X13354000Y13349000D01*
X13354000Y13356600D01*
X15228600Y13356600D01*
X15228600Y13349000D01*
G37*
G36*
X15220900Y13333700D02*
G01*
X13354000Y13333700D01*
X13354000Y13341400D01*
X15220900Y13341400D01*
X15220900Y13333700D01*
G37*
G36*
X15213300Y13318500D02*
G01*
X13354000Y13318500D01*
X13354000Y13326100D01*
X15213300Y13326100D01*
X15213300Y13318500D01*
G37*
G36*
X15213300Y13326100D02*
G01*
X13354000Y13326100D01*
X13354000Y13333700D01*
X15213300Y13333700D01*
X15213300Y13326100D01*
G37*
G36*
X15205700Y13310900D02*
G01*
X14062700Y13310900D01*
X14062700Y13318500D01*
X15205700Y13318500D01*
X15205700Y13310900D01*
G37*
G36*
X15198100Y13303300D02*
G01*
X14093200Y13303300D01*
X14093200Y13310900D01*
X15198100Y13310900D01*
X15198100Y13303300D01*
G37*
G36*
X15190500Y13288000D02*
G01*
X14116000Y13288000D01*
X14116000Y13295600D01*
X15190500Y13295600D01*
X15190500Y13288000D01*
G37*
G36*
X15190500Y13295600D02*
G01*
X14108400Y13295600D01*
X14108400Y13303300D01*
X15190500Y13303300D01*
X15190500Y13295600D01*
G37*
G36*
X15182800Y13280400D02*
G01*
X14123700Y13280400D01*
X14123700Y13288000D01*
X15182800Y13288000D01*
X15182800Y13280400D01*
G37*
G36*
X15175200Y11116300D02*
G01*
X14527500Y11116300D01*
X14527500Y11123900D01*
X15175200Y11123900D01*
X15175200Y11116300D01*
G37*
G36*
X15175200Y11123900D02*
G01*
X14504700Y11123900D01*
X14504700Y11131600D01*
X15175200Y11131600D01*
X15175200Y11123900D01*
G37*
G36*
X15175200Y11131600D02*
G01*
X14481800Y11131600D01*
X14481800Y11139200D01*
X15175200Y11139200D01*
X15175200Y11131600D01*
G37*
G36*
X15175200Y11139200D02*
G01*
X14458900Y11139200D01*
X14458900Y11146800D01*
X15175200Y11146800D01*
X15175200Y11139200D01*
G37*
G36*
X15175200Y11146800D02*
G01*
X14436100Y11146800D01*
X14436100Y11154400D01*
X15175200Y11154400D01*
X15175200Y11146800D01*
G37*
G36*
X15175200Y11154400D02*
G01*
X14413200Y11154400D01*
X14413200Y11162000D01*
X15175200Y11162000D01*
X15175200Y11154400D01*
G37*
G36*
X15175200Y11162000D02*
G01*
X14390400Y11162000D01*
X14390400Y11169700D01*
X15175200Y11169700D01*
X15175200Y11162000D01*
G37*
G36*
X15175200Y11169700D02*
G01*
X14367500Y11169700D01*
X14367500Y11177300D01*
X15175200Y11177300D01*
X15175200Y11169700D01*
G37*
G36*
X15175200Y11177300D02*
G01*
X14344600Y11177300D01*
X14344600Y11184900D01*
X15175200Y11184900D01*
X15175200Y11177300D01*
G37*
G36*
X15175200Y13272800D02*
G01*
X14123700Y13272800D01*
X14123700Y13280400D01*
X15175200Y13280400D01*
X15175200Y13272800D01*
G37*
G36*
X15167600Y11085800D02*
G01*
X14619000Y11085800D01*
X14619000Y11093500D01*
X15167600Y11093500D01*
X15167600Y11085800D01*
G37*
G36*
X15167600Y11093500D02*
G01*
X14596100Y11093500D01*
X14596100Y11101100D01*
X15167600Y11101100D01*
X15167600Y11093500D01*
G37*
G36*
X15167600Y11101100D02*
G01*
X14573200Y11101100D01*
X14573200Y11108700D01*
X15167600Y11108700D01*
X15167600Y11101100D01*
G37*
G36*
X15167600Y11108700D02*
G01*
X14550400Y11108700D01*
X14550400Y11116300D01*
X15167600Y11116300D01*
X15167600Y11108700D01*
G37*
G36*
X15167600Y11184900D02*
G01*
X14321800Y11184900D01*
X14321800Y11192500D01*
X15167600Y11192500D01*
X15167600Y11184900D01*
G37*
G36*
X15167600Y11192500D02*
G01*
X14298900Y11192500D01*
X14298900Y11200100D01*
X15167600Y11200100D01*
X15167600Y11192500D01*
G37*
G36*
X15167600Y11200100D02*
G01*
X14276100Y11200100D01*
X14276100Y11207800D01*
X15167600Y11207800D01*
X15167600Y11200100D01*
G37*
G36*
X15167600Y11207800D02*
G01*
X14245600Y11207800D01*
X14245600Y11215400D01*
X15167600Y11215400D01*
X15167600Y11207800D01*
G37*
G36*
X15167600Y11215400D02*
G01*
X14222700Y11215400D01*
X14222700Y11223000D01*
X15167600Y11223000D01*
X15167600Y11215400D01*
G37*
G36*
X15167600Y13257500D02*
G01*
X14131300Y13257500D01*
X14131300Y13265200D01*
X15167600Y13265200D01*
X15167600Y13257500D01*
G37*
G36*
X15167600Y13265200D02*
G01*
X14131300Y13265200D01*
X14131300Y13272800D01*
X15167600Y13272800D01*
X15167600Y13265200D01*
G37*
G36*
X15160000Y11070600D02*
G01*
X14664700Y11070600D01*
X14664700Y11078200D01*
X15160000Y11078200D01*
X15160000Y11070600D01*
G37*
G36*
X15160000Y11078200D02*
G01*
X14641800Y11078200D01*
X14641800Y11085800D01*
X15160000Y11085800D01*
X15160000Y11078200D01*
G37*
G36*
X15160000Y11223000D02*
G01*
X14199900Y11223000D01*
X14199900Y11230600D01*
X15160000Y11230600D01*
X15160000Y11223000D01*
G37*
G36*
X15160000Y11230600D02*
G01*
X14177000Y11230600D01*
X14177000Y11238200D01*
X15160000Y11238200D01*
X15160000Y11230600D01*
G37*
G36*
X15160000Y11238200D02*
G01*
X14154100Y11238200D01*
X14154100Y11245900D01*
X15160000Y11245900D01*
X15160000Y11238200D01*
G37*
G36*
X15160000Y13249900D02*
G01*
X14131300Y13249900D01*
X14131300Y13257500D01*
X15160000Y13257500D01*
X15160000Y13249900D01*
G37*
G36*
X15152400Y11063000D02*
G01*
X14687500Y11063000D01*
X14687500Y11070600D01*
X15152400Y11070600D01*
X15152400Y11063000D01*
G37*
G36*
X15152400Y11245900D02*
G01*
X14131300Y11245900D01*
X14131300Y11253500D01*
X15152400Y11253500D01*
X15152400Y11245900D01*
G37*
G36*
X15152400Y11253500D02*
G01*
X14108400Y11253500D01*
X14108400Y11261100D01*
X15152400Y11261100D01*
X15152400Y11253500D01*
G37*
G36*
X15152400Y11261100D02*
G01*
X14085600Y11261100D01*
X14085600Y11268700D01*
X15152400Y11268700D01*
X15152400Y11261100D01*
G37*
G36*
X15152400Y13242300D02*
G01*
X14131300Y13242300D01*
X14131300Y13249900D01*
X15152400Y13249900D01*
X15152400Y13242300D01*
G37*
G36*
X15144700Y11047700D02*
G01*
X14733300Y11047700D01*
X14733300Y11055400D01*
X15144700Y11055400D01*
X15144700Y11047700D01*
G37*
G36*
X15144700Y11055400D02*
G01*
X14710400Y11055400D01*
X14710400Y11063000D01*
X15144700Y11063000D01*
X15144700Y11055400D01*
G37*
G36*
X15144700Y11268700D02*
G01*
X14062700Y11268700D01*
X14062700Y11276300D01*
X15144700Y11276300D01*
X15144700Y11268700D01*
G37*
G36*
X15144700Y11276300D02*
G01*
X14039800Y11276300D01*
X14039800Y11284000D01*
X15144700Y11284000D01*
X15144700Y11276300D01*
G37*
G36*
X15144700Y11284000D02*
G01*
X14024600Y11284000D01*
X14024600Y11291600D01*
X15144700Y11291600D01*
X15144700Y11284000D01*
G37*
G36*
X15144700Y11291600D02*
G01*
X14001700Y11291600D01*
X14001700Y11299200D01*
X15144700Y11299200D01*
X15144700Y11291600D01*
G37*
G36*
X15144700Y13227100D02*
G01*
X14131300Y13227100D01*
X14131300Y13234700D01*
X15144700Y13234700D01*
X15144700Y13227100D01*
G37*
G36*
X15144700Y13234700D02*
G01*
X14131300Y13234700D01*
X14131300Y13242300D01*
X15144700Y13242300D01*
X15144700Y13234700D01*
G37*
G36*
X15137100Y11040100D02*
G01*
X14756100Y11040100D01*
X14756100Y11047700D01*
X15137100Y11047700D01*
X15137100Y11040100D01*
G37*
G36*
X15137100Y11299200D02*
G01*
X13986500Y11299200D01*
X13986500Y11306800D01*
X15137100Y11306800D01*
X15137100Y11299200D01*
G37*
G36*
X15137100Y11306800D02*
G01*
X13971300Y11306800D01*
X13971300Y11314400D01*
X15137100Y11314400D01*
X15137100Y11306800D01*
G37*
G36*
X15137100Y11314400D02*
G01*
X13948400Y11314400D01*
X13948400Y11322100D01*
X15137100Y11322100D01*
X15137100Y11314400D01*
G37*
G36*
X15137100Y13219400D02*
G01*
X14131300Y13219400D01*
X14131300Y13227100D01*
X15137100Y13227100D01*
X15137100Y13219400D01*
G37*
G36*
X15129500Y11032500D02*
G01*
X14779000Y11032500D01*
X14779000Y11040100D01*
X15129500Y11040100D01*
X15129500Y11032500D01*
G37*
G36*
X15129500Y11322100D02*
G01*
X13933200Y11322100D01*
X13933200Y11329700D01*
X15129500Y11329700D01*
X15129500Y11322100D01*
G37*
G36*
X15129500Y11329700D02*
G01*
X13917900Y11329700D01*
X13917900Y11337300D01*
X15129500Y11337300D01*
X15129500Y11329700D01*
G37*
G36*
X15129500Y11337300D02*
G01*
X13902700Y11337300D01*
X13902700Y11344900D01*
X15129500Y11344900D01*
X15129500Y11337300D01*
G37*
G36*
X15129500Y13204200D02*
G01*
X14123700Y13204200D01*
X14123700Y13211800D01*
X15129500Y13211800D01*
X15129500Y13204200D01*
G37*
G36*
X15129500Y13211800D02*
G01*
X14131300Y13211800D01*
X14131300Y13219400D01*
X15129500Y13219400D01*
X15129500Y13211800D01*
G37*
G36*
X15121900Y11024900D02*
G01*
X14801800Y11024900D01*
X14801800Y11032500D01*
X15121900Y11032500D01*
X15121900Y11024900D01*
G37*
G36*
X15121900Y11344900D02*
G01*
X13895100Y11344900D01*
X13895100Y11352500D01*
X15121900Y11352500D01*
X15121900Y11344900D01*
G37*
G36*
X15121900Y11352500D02*
G01*
X13879800Y11352500D01*
X13879800Y11360200D01*
X15121900Y11360200D01*
X15121900Y11352500D01*
G37*
G36*
X15121900Y11360200D02*
G01*
X13864600Y11360200D01*
X13864600Y11367800D01*
X15121900Y11367800D01*
X15121900Y11360200D01*
G37*
G36*
X15121900Y13196600D02*
G01*
X14123700Y13196600D01*
X14123700Y13204200D01*
X15121900Y13204200D01*
X15121900Y13196600D01*
G37*
G36*
X15114300Y11017300D02*
G01*
X14824700Y11017300D01*
X14824700Y11024900D01*
X15114300Y11024900D01*
X15114300Y11017300D01*
G37*
G36*
X15114300Y11367800D02*
G01*
X13849300Y11367800D01*
X13849300Y11375400D01*
X15114300Y11375400D01*
X15114300Y11367800D01*
G37*
G36*
X15114300Y11375400D02*
G01*
X13841700Y11375400D01*
X13841700Y11383000D01*
X15114300Y11383000D01*
X15114300Y11375400D01*
G37*
G36*
X15114300Y11383000D02*
G01*
X13826500Y11383000D01*
X13826500Y11390600D01*
X15114300Y11390600D01*
X15114300Y11383000D01*
G37*
G36*
X15114300Y13189000D02*
G01*
X14116000Y13189000D01*
X14116000Y13196600D01*
X15114300Y13196600D01*
X15114300Y13189000D01*
G37*
G36*
X15106600Y11009600D02*
G01*
X14847600Y11009600D01*
X14847600Y11017300D01*
X15106600Y11017300D01*
X15106600Y11009600D01*
G37*
G36*
X15106600Y11390600D02*
G01*
X13811200Y11390600D01*
X13811200Y11398300D01*
X15106600Y11398300D01*
X15106600Y11390600D01*
G37*
G36*
X15106600Y11398300D02*
G01*
X13803600Y11398300D01*
X13803600Y11405900D01*
X15106600Y11405900D01*
X15106600Y11398300D01*
G37*
G36*
X15106600Y11405900D02*
G01*
X13788400Y11405900D01*
X13788400Y11413500D01*
X15106600Y11413500D01*
X15106600Y11405900D01*
G37*
G36*
X15106600Y13173700D02*
G01*
X14108400Y13173700D01*
X14108400Y13181300D01*
X15106600Y13181300D01*
X15106600Y13173700D01*
G37*
G36*
X15106600Y13181300D02*
G01*
X14116000Y13181300D01*
X14116000Y13189000D01*
X15106600Y13189000D01*
X15106600Y13181300D01*
G37*
G36*
X15099000Y11413500D02*
G01*
X13780800Y11413500D01*
X13780800Y11421100D01*
X15099000Y11421100D01*
X15099000Y11413500D01*
G37*
G36*
X15099000Y11421100D02*
G01*
X13773100Y11421100D01*
X13773100Y11428700D01*
X15099000Y11428700D01*
X15099000Y11421100D01*
G37*
G36*
X15099000Y11428700D02*
G01*
X13757900Y11428700D01*
X13757900Y11436400D01*
X15099000Y11436400D01*
X15099000Y11428700D01*
G37*
G36*
X15099000Y13166100D02*
G01*
X14100800Y13166100D01*
X14100800Y13173700D01*
X15099000Y13173700D01*
X15099000Y13166100D01*
G37*
G36*
X15091400Y11002000D02*
G01*
X14870400Y11002000D01*
X14870400Y11009600D01*
X15091400Y11009600D01*
X15091400Y11002000D01*
G37*
G36*
X15091400Y11436400D02*
G01*
X13750300Y11436400D01*
X13750300Y11444000D01*
X15091400Y11444000D01*
X15091400Y11436400D01*
G37*
G36*
X15091400Y11444000D02*
G01*
X13742700Y11444000D01*
X13742700Y11451600D01*
X15091400Y11451600D01*
X15091400Y11444000D01*
G37*
G36*
X15091400Y11451600D02*
G01*
X13727400Y11451600D01*
X13727400Y11459200D01*
X15091400Y11459200D01*
X15091400Y11451600D01*
G37*
G36*
X15091400Y13158500D02*
G01*
X14100800Y13158500D01*
X14100800Y13166100D01*
X15091400Y13166100D01*
X15091400Y13158500D01*
G37*
G36*
X15083800Y10994400D02*
G01*
X14893300Y10994400D01*
X14893300Y11002000D01*
X15083800Y11002000D01*
X15083800Y10994400D01*
G37*
G36*
X15083800Y11459200D02*
G01*
X13719800Y11459200D01*
X13719800Y11466800D01*
X15083800Y11466800D01*
X15083800Y11459200D01*
G37*
G36*
X15083800Y11466800D02*
G01*
X13712200Y11466800D01*
X13712200Y11474500D01*
X15083800Y11474500D01*
X15083800Y11466800D01*
G37*
G36*
X15083800Y11474500D02*
G01*
X13704600Y11474500D01*
X13704600Y11482100D01*
X15083800Y11482100D01*
X15083800Y11474500D01*
G37*
G36*
X15083800Y13143200D02*
G01*
X14085600Y13143200D01*
X14085600Y13150900D01*
X15083800Y13150900D01*
X15083800Y13143200D01*
G37*
G36*
X15083800Y13150900D02*
G01*
X14093200Y13150900D01*
X14093200Y13158500D01*
X15083800Y13158500D01*
X15083800Y13150900D01*
G37*
G36*
X15076200Y11482100D02*
G01*
X13696900Y11482100D01*
X13696900Y11489700D01*
X15076200Y11489700D01*
X15076200Y11482100D01*
G37*
G36*
X15076200Y11489700D02*
G01*
X13689300Y11489700D01*
X13689300Y11497300D01*
X15076200Y11497300D01*
X15076200Y11489700D01*
G37*
G36*
X15076200Y11497300D02*
G01*
X13681700Y11497300D01*
X13681700Y11504900D01*
X15076200Y11504900D01*
X15076200Y11497300D01*
G37*
G36*
X15076200Y13135600D02*
G01*
X14077900Y13135600D01*
X14077900Y13143200D01*
X15076200Y13143200D01*
X15076200Y13135600D01*
G37*
G36*
X15068500Y10986800D02*
G01*
X14923800Y10986800D01*
X14923800Y10994400D01*
X15068500Y10994400D01*
X15068500Y10986800D01*
G37*
G36*
X15068500Y11504900D02*
G01*
X13674100Y11504900D01*
X13674100Y11512600D01*
X15068500Y11512600D01*
X15068500Y11504900D01*
G37*
G36*
X15068500Y11512600D02*
G01*
X13666500Y11512600D01*
X13666500Y11520200D01*
X15068500Y11520200D01*
X15068500Y11512600D01*
G37*
G36*
X15068500Y11520200D02*
G01*
X13658800Y11520200D01*
X13658800Y11527800D01*
X15068500Y11527800D01*
X15068500Y11520200D01*
G37*
G36*
X15068500Y13128000D02*
G01*
X14070300Y13128000D01*
X14070300Y13135600D01*
X15068500Y13135600D01*
X15068500Y13128000D01*
G37*
G36*
X15060900Y11527800D02*
G01*
X13651200Y11527800D01*
X13651200Y11535400D01*
X15060900Y11535400D01*
X15060900Y11527800D01*
G37*
G36*
X15060900Y11535400D02*
G01*
X13643600Y11535400D01*
X13643600Y11543000D01*
X15060900Y11543000D01*
X15060900Y11535400D01*
G37*
G36*
X15060900Y11543000D02*
G01*
X13636000Y11543000D01*
X13636000Y11550700D01*
X15060900Y11550700D01*
X15060900Y11543000D01*
G37*
G36*
X15060900Y13112800D02*
G01*
X14055100Y13112800D01*
X14055100Y13120400D01*
X15060900Y13120400D01*
X15060900Y13112800D01*
G37*
G36*
X15060900Y13120400D02*
G01*
X14062700Y13120400D01*
X14062700Y13128000D01*
X15060900Y13128000D01*
X15060900Y13120400D01*
G37*
G36*
X15053300Y11550700D02*
G01*
X13628400Y11550700D01*
X13628400Y11558300D01*
X15053300Y11558300D01*
X15053300Y11550700D01*
G37*
G36*
X15053300Y11558300D02*
G01*
X13620700Y11558300D01*
X13620700Y11565900D01*
X15053300Y11565900D01*
X15053300Y11558300D01*
G37*
G36*
X15053300Y11565900D02*
G01*
X13613100Y11565900D01*
X13613100Y11573500D01*
X15053300Y11573500D01*
X15053300Y11565900D01*
G37*
G36*
X15053300Y13105100D02*
G01*
X14047500Y13105100D01*
X14047500Y13112800D01*
X15053300Y13112800D01*
X15053300Y13105100D01*
G37*
G36*
X15045700Y10979200D02*
G01*
X14954200Y10979200D01*
X14954200Y10986800D01*
X15045700Y10986800D01*
X15045700Y10979200D01*
G37*
G36*
X15045700Y11573500D02*
G01*
X13605500Y11573500D01*
X13605500Y11581100D01*
X15045700Y11581100D01*
X15045700Y11573500D01*
G37*
G36*
X15045700Y11581100D02*
G01*
X13597900Y11581100D01*
X13597900Y11588800D01*
X15045700Y11588800D01*
X15045700Y11581100D01*
G37*
G36*
X15045700Y11588800D02*
G01*
X13597900Y11588800D01*
X13597900Y11596400D01*
X15045700Y11596400D01*
X15045700Y11588800D01*
G37*
G36*
X15045700Y13089900D02*
G01*
X14032200Y13089900D01*
X14032200Y13097500D01*
X15045700Y13097500D01*
X15045700Y13089900D01*
G37*
G36*
X15045700Y13097500D02*
G01*
X14039800Y13097500D01*
X14039800Y13105100D01*
X15045700Y13105100D01*
X15045700Y13097500D01*
G37*
G36*
X15038100Y11596400D02*
G01*
X13590300Y11596400D01*
X13590300Y11604000D01*
X15038100Y11604000D01*
X15038100Y11596400D01*
G37*
G36*
X15038100Y11604000D02*
G01*
X13582600Y11604000D01*
X13582600Y11611600D01*
X15038100Y11611600D01*
X15038100Y11604000D01*
G37*
G36*
X15038100Y11611600D02*
G01*
X13575000Y11611600D01*
X13575000Y11619200D01*
X15038100Y11619200D01*
X15038100Y11611600D01*
G37*
G36*
X15038100Y13082300D02*
G01*
X14024600Y13082300D01*
X14024600Y13089900D01*
X15038100Y13089900D01*
X15038100Y13082300D01*
G37*
G36*
X15030400Y11619200D02*
G01*
X13575000Y11619200D01*
X13575000Y11626900D01*
X15030400Y11626900D01*
X15030400Y11619200D01*
G37*
G36*
X15030400Y11626900D02*
G01*
X13567400Y11626900D01*
X13567400Y11634500D01*
X15030400Y11634500D01*
X15030400Y11626900D01*
G37*
G36*
X15030400Y11634500D02*
G01*
X13559800Y11634500D01*
X13559800Y11642100D01*
X15030400Y11642100D01*
X15030400Y11634500D01*
G37*
G36*
X15030400Y13074700D02*
G01*
X14017000Y13074700D01*
X14017000Y13082300D01*
X15030400Y13082300D01*
X15030400Y13074700D01*
G37*
G36*
X15022800Y11642100D02*
G01*
X13559800Y11642100D01*
X13559800Y11649700D01*
X15022800Y11649700D01*
X15022800Y11642100D01*
G37*
G36*
X15022800Y11649700D02*
G01*
X13552200Y11649700D01*
X13552200Y11657300D01*
X15022800Y11657300D01*
X15022800Y11649700D01*
G37*
G36*
X15022800Y11657300D02*
G01*
X13552200Y11657300D01*
X13552200Y11665000D01*
X15022800Y11665000D01*
X15022800Y11657300D01*
G37*
G36*
X15022800Y13067000D02*
G01*
X14001700Y13067000D01*
X14001700Y13074700D01*
X15022800Y13074700D01*
X15022800Y13067000D01*
G37*
G36*
X15015200Y11665000D02*
G01*
X13544500Y11665000D01*
X13544500Y11672600D01*
X15015200Y11672600D01*
X15015200Y11665000D01*
G37*
G36*
X15015200Y11672600D02*
G01*
X13536900Y11672600D01*
X13536900Y11680200D01*
X15015200Y11680200D01*
X15015200Y11672600D01*
G37*
G36*
X15015200Y11680200D02*
G01*
X13536900Y11680200D01*
X13536900Y11687800D01*
X15015200Y11687800D01*
X15015200Y11680200D01*
G37*
G36*
X15015200Y13051800D02*
G01*
X13978900Y13051800D01*
X13978900Y13059400D01*
X15015200Y13059400D01*
X15015200Y13051800D01*
G37*
G36*
X15015200Y13059400D02*
G01*
X13994100Y13059400D01*
X13994100Y13067000D01*
X15015200Y13067000D01*
X15015200Y13059400D01*
G37*
G36*
X15007600Y11687800D02*
G01*
X13529300Y11687800D01*
X13529300Y11695400D01*
X15007600Y11695400D01*
X15007600Y11687800D01*
G37*
G36*
X15007600Y11695400D02*
G01*
X13529300Y11695400D01*
X13529300Y11703100D01*
X15007600Y11703100D01*
X15007600Y11695400D01*
G37*
G36*
X15007600Y11703100D02*
G01*
X13521700Y11703100D01*
X13521700Y11710700D01*
X15007600Y11710700D01*
X15007600Y11703100D01*
G37*
G36*
X15007600Y13044200D02*
G01*
X13971300Y13044200D01*
X13971300Y13051800D01*
X15007600Y13051800D01*
X15007600Y13044200D01*
G37*
G36*
X15000000Y11710700D02*
G01*
X13521700Y11710700D01*
X13521700Y11718300D01*
X15000000Y11718300D01*
X15000000Y11710700D01*
G37*
G36*
X15000000Y11718300D02*
G01*
X13514100Y11718300D01*
X13514100Y11725900D01*
X15000000Y11725900D01*
X15000000Y11718300D01*
G37*
G36*
X15000000Y11725900D02*
G01*
X13514100Y11725900D01*
X13514100Y11733500D01*
X15000000Y11733500D01*
X15000000Y11725900D01*
G37*
G36*
X15000000Y13036600D02*
G01*
X13956000Y13036600D01*
X13956000Y13044200D01*
X15000000Y13044200D01*
X15000000Y13036600D01*
G37*
G36*
X14992300Y11733500D02*
G01*
X13506400Y11733500D01*
X13506400Y11741200D01*
X14992300Y11741200D01*
X14992300Y11733500D01*
G37*
G36*
X14992300Y11741200D02*
G01*
X13506400Y11741200D01*
X13506400Y11748800D01*
X14992300Y11748800D01*
X14992300Y11741200D01*
G37*
G36*
X14992300Y11748800D02*
G01*
X13506400Y11748800D01*
X13506400Y11756400D01*
X14992300Y11756400D01*
X14992300Y11748800D01*
G37*
G36*
X14992300Y13028900D02*
G01*
X13948400Y13028900D01*
X13948400Y13036600D01*
X14992300Y13036600D01*
X14992300Y13028900D01*
G37*
G36*
X14984700Y11756400D02*
G01*
X13498800Y11756400D01*
X13498800Y11764000D01*
X14984700Y11764000D01*
X14984700Y11756400D01*
G37*
G36*
X14984700Y11764000D02*
G01*
X13498800Y11764000D01*
X13498800Y11771600D01*
X14984700Y11771600D01*
X14984700Y11764000D01*
G37*
G36*
X14984700Y11771600D02*
G01*
X13491200Y11771600D01*
X13491200Y11779300D01*
X14984700Y11779300D01*
X14984700Y11771600D01*
G37*
G36*
X14984700Y13021300D02*
G01*
X13933200Y13021300D01*
X13933200Y13028900D01*
X14984700Y13028900D01*
X14984700Y13021300D01*
G37*
G36*
X14977100Y11779300D02*
G01*
X13491200Y11779300D01*
X13491200Y11786900D01*
X14977100Y11786900D01*
X14977100Y11779300D01*
G37*
G36*
X14977100Y11786900D02*
G01*
X13491200Y11786900D01*
X13491200Y11794500D01*
X14977100Y11794500D01*
X14977100Y11786900D01*
G37*
G36*
X14977100Y11794500D02*
G01*
X13483600Y11794500D01*
X13483600Y11802100D01*
X14977100Y11802100D01*
X14977100Y11794500D01*
G37*
G36*
X14977100Y13013700D02*
G01*
X13925500Y13013700D01*
X13925500Y13021300D01*
X14977100Y13021300D01*
X14977100Y13013700D01*
G37*
G36*
X14969500Y11802100D02*
G01*
X13483600Y11802100D01*
X13483600Y11809700D01*
X14969500Y11809700D01*
X14969500Y11802100D01*
G37*
G36*
X14969500Y11809700D02*
G01*
X13483600Y11809700D01*
X13483600Y11817400D01*
X14969500Y11817400D01*
X14969500Y11809700D01*
G37*
G36*
X14969500Y11817400D02*
G01*
X13476000Y11817400D01*
X13476000Y11825000D01*
X14969500Y11825000D01*
X14969500Y11817400D01*
G37*
G36*
X14969500Y13006100D02*
G01*
X13910300Y13006100D01*
X13910300Y13013700D01*
X14969500Y13013700D01*
X14969500Y13006100D01*
G37*
G36*
X14961900Y11825000D02*
G01*
X13476000Y11825000D01*
X13476000Y11832600D01*
X14961900Y11832600D01*
X14961900Y11825000D01*
G37*
G36*
X14961900Y11832600D02*
G01*
X13476000Y11832600D01*
X13476000Y11840200D01*
X14961900Y11840200D01*
X14961900Y11832600D01*
G37*
G36*
X14961900Y11840200D02*
G01*
X13476000Y11840200D01*
X13476000Y11847800D01*
X14961900Y11847800D01*
X14961900Y11840200D01*
G37*
G36*
X14961900Y11847800D02*
G01*
X13468300Y11847800D01*
X13468300Y11855500D01*
X14961900Y11855500D01*
X14961900Y11847800D01*
G37*
G36*
X14961900Y12998500D02*
G01*
X13895100Y12998500D01*
X13895100Y13006100D01*
X14961900Y13006100D01*
X14961900Y12998500D01*
G37*
G36*
X14954200Y11855500D02*
G01*
X13468300Y11855500D01*
X13468300Y11863100D01*
X14954200Y11863100D01*
X14954200Y11855500D01*
G37*
G36*
X14954200Y11863100D02*
G01*
X13468300Y11863100D01*
X13468300Y11870700D01*
X14954200Y11870700D01*
X14954200Y11863100D01*
G37*
G36*
X14954200Y11870700D02*
G01*
X13460700Y11870700D01*
X13460700Y11878300D01*
X14954200Y11878300D01*
X14954200Y11870700D01*
G37*
G36*
X14954200Y12990800D02*
G01*
X13879800Y12990800D01*
X13879800Y12998500D01*
X14954200Y12998500D01*
X14954200Y12990800D01*
G37*
G36*
X14946600Y11878300D02*
G01*
X13460700Y11878300D01*
X13460700Y11885900D01*
X14946600Y11885900D01*
X14946600Y11878300D01*
G37*
G36*
X14946600Y11885900D02*
G01*
X13460700Y11885900D01*
X13460700Y11893600D01*
X14946600Y11893600D01*
X14946600Y11885900D01*
G37*
G36*
X14946600Y11893600D02*
G01*
X13453100Y11893600D01*
X13453100Y11901200D01*
X14946600Y11901200D01*
X14946600Y11893600D01*
G37*
G36*
X14946600Y12975600D02*
G01*
X13849300Y12975600D01*
X13849300Y12983200D01*
X14946600Y12983200D01*
X14946600Y12975600D01*
G37*
G36*
X14946600Y12983200D02*
G01*
X13864600Y12983200D01*
X13864600Y12990800D01*
X14946600Y12990800D01*
X14946600Y12983200D01*
G37*
G36*
X14939000Y11901200D02*
G01*
X13453100Y11901200D01*
X13453100Y11908800D01*
X14939000Y11908800D01*
X14939000Y11901200D01*
G37*
G36*
X14939000Y11908800D02*
G01*
X13453100Y11908800D01*
X13453100Y11916400D01*
X14939000Y11916400D01*
X14939000Y11908800D01*
G37*
G36*
X14939000Y11916400D02*
G01*
X13453100Y11916400D01*
X13453100Y11924000D01*
X14939000Y11924000D01*
X14939000Y11916400D01*
G37*
G36*
X14939000Y12968000D02*
G01*
X13826500Y12968000D01*
X13826500Y12975600D01*
X14939000Y12975600D01*
X14939000Y12968000D01*
G37*
G36*
X14931400Y11924000D02*
G01*
X12073900Y11924000D01*
X12073900Y11931700D01*
X14931400Y11931700D01*
X14931400Y11924000D01*
G37*
G36*
X14931400Y11931700D02*
G01*
X12073900Y11931700D01*
X12073900Y11939300D01*
X14931400Y11939300D01*
X14931400Y11931700D01*
G37*
G36*
X14931400Y11939300D02*
G01*
X12081500Y11939300D01*
X12081500Y11946900D01*
X14931400Y11946900D01*
X14931400Y11939300D01*
G37*
G36*
X14931400Y12960400D02*
G01*
X13811200Y12960400D01*
X13811200Y12968000D01*
X14931400Y12968000D01*
X14931400Y12960400D01*
G37*
G36*
X14923800Y11946900D02*
G01*
X12081500Y11946900D01*
X12081500Y11954500D01*
X14923800Y11954500D01*
X14923800Y11946900D01*
G37*
G36*
X14923800Y11954500D02*
G01*
X12081500Y11954500D01*
X12081500Y11962100D01*
X14923800Y11962100D01*
X14923800Y11954500D01*
G37*
G36*
X14923800Y11962100D02*
G01*
X12089100Y11962100D01*
X12089100Y11969800D01*
X14923800Y11969800D01*
X14923800Y11962100D01*
G37*
G36*
X14916100Y11969800D02*
G01*
X12089100Y11969800D01*
X12089100Y11977400D01*
X14916100Y11977400D01*
X14916100Y11969800D01*
G37*
G36*
X14916100Y11977400D02*
G01*
X12089100Y11977400D01*
X12089100Y11985000D01*
X14916100Y11985000D01*
X14916100Y11977400D01*
G37*
G36*
X14916100Y11985000D02*
G01*
X12096700Y11985000D01*
X12096700Y11992600D01*
X14916100Y11992600D01*
X14916100Y11985000D01*
G37*
G36*
X14916100Y12952700D02*
G01*
X13788400Y12952700D01*
X13788400Y12960400D01*
X14916100Y12960400D01*
X14916100Y12952700D01*
G37*
G36*
X14908500Y11992600D02*
G01*
X12096700Y11992600D01*
X12096700Y12000200D01*
X14908500Y12000200D01*
X14908500Y11992600D01*
G37*
G36*
X14908500Y12000200D02*
G01*
X12096700Y12000200D01*
X12096700Y12007900D01*
X14908500Y12007900D01*
X14908500Y12000200D01*
G37*
G36*
X14908500Y12007900D02*
G01*
X12104400Y12007900D01*
X12104400Y12015500D01*
X14908500Y12015500D01*
X14908500Y12007900D01*
G37*
G36*
X14908500Y12945100D02*
G01*
X13773100Y12945100D01*
X13773100Y12952700D01*
X14908500Y12952700D01*
X14908500Y12945100D01*
G37*
G36*
X14900900Y12015500D02*
G01*
X12104400Y12015500D01*
X12104400Y12023100D01*
X14900900Y12023100D01*
X14900900Y12015500D01*
G37*
G36*
X14900900Y12023100D02*
G01*
X12934900Y12023100D01*
X12934900Y12030700D01*
X14900900Y12030700D01*
X14900900Y12023100D01*
G37*
G36*
X14900900Y12030700D02*
G01*
X12957800Y12030700D01*
X12957800Y12038300D01*
X14900900Y12038300D01*
X14900900Y12030700D01*
G37*
G36*
X14900900Y12937500D02*
G01*
X13742700Y12937500D01*
X13742700Y12945100D01*
X14900900Y12945100D01*
X14900900Y12937500D01*
G37*
G36*
X14893300Y12038300D02*
G01*
X12965400Y12038300D01*
X12965400Y12046000D01*
X14893300Y12046000D01*
X14893300Y12038300D01*
G37*
G36*
X14893300Y12046000D02*
G01*
X12980700Y12046000D01*
X12980700Y12053600D01*
X14893300Y12053600D01*
X14893300Y12046000D01*
G37*
G36*
X14893300Y12053600D02*
G01*
X12988300Y12053600D01*
X12988300Y12061200D01*
X14893300Y12061200D01*
X14893300Y12053600D01*
G37*
G36*
X14893300Y12929900D02*
G01*
X13712200Y12929900D01*
X13712200Y12937500D01*
X14893300Y12937500D01*
X14893300Y12929900D01*
G37*
G36*
X14885700Y12061200D02*
G01*
X13003500Y12061200D01*
X13003500Y12068800D01*
X14885700Y12068800D01*
X14885700Y12061200D01*
G37*
G36*
X14885700Y12068800D02*
G01*
X13011100Y12068800D01*
X13011100Y12076400D01*
X14885700Y12076400D01*
X14885700Y12068800D01*
G37*
G36*
X14885700Y12076400D02*
G01*
X13018800Y12076400D01*
X13018800Y12084100D01*
X14885700Y12084100D01*
X14885700Y12076400D01*
G37*
G36*
X14885700Y12922300D02*
G01*
X13666500Y12922300D01*
X13666500Y12929900D01*
X14885700Y12929900D01*
X14885700Y12922300D01*
G37*
G36*
X14878000Y12084100D02*
G01*
X13026400Y12084100D01*
X13026400Y12091700D01*
X14878000Y12091700D01*
X14878000Y12084100D01*
G37*
G36*
X14878000Y12091700D02*
G01*
X13034000Y12091700D01*
X13034000Y12099300D01*
X14878000Y12099300D01*
X14878000Y12091700D01*
G37*
G36*
X14878000Y12099300D02*
G01*
X13041600Y12099300D01*
X13041600Y12106900D01*
X14878000Y12106900D01*
X14878000Y12099300D01*
G37*
G36*
X14878000Y12914600D02*
G01*
X13056900Y12914600D01*
X13056900Y12922300D01*
X14878000Y12922300D01*
X14878000Y12914600D01*
G37*
G36*
X14870400Y12106900D02*
G01*
X13049200Y12106900D01*
X13049200Y12114500D01*
X14870400Y12114500D01*
X14870400Y12106900D01*
G37*
G36*
X14870400Y12114500D02*
G01*
X13056900Y12114500D01*
X13056900Y12122200D01*
X14870400Y12122200D01*
X14870400Y12114500D01*
G37*
G36*
X14870400Y12122200D02*
G01*
X13064500Y12122200D01*
X13064500Y12129800D01*
X14870400Y12129800D01*
X14870400Y12122200D01*
G37*
G36*
X14870400Y12907000D02*
G01*
X13056900Y12907000D01*
X13056900Y12914600D01*
X14870400Y12914600D01*
X14870400Y12907000D01*
G37*
G36*
X14862800Y12129800D02*
G01*
X13072100Y12129800D01*
X13072100Y12137400D01*
X14862800Y12137400D01*
X14862800Y12129800D01*
G37*
G36*
X14862800Y12137400D02*
G01*
X13072100Y12137400D01*
X13072100Y12145000D01*
X14862800Y12145000D01*
X14862800Y12137400D01*
G37*
G36*
X14862800Y12899400D02*
G01*
X13056900Y12899400D01*
X13056900Y12907000D01*
X14862800Y12907000D01*
X14862800Y12899400D01*
G37*
G36*
X14855200Y12145000D02*
G01*
X13079700Y12145000D01*
X13079700Y12152600D01*
X14855200Y12152600D01*
X14855200Y12145000D01*
G37*
G36*
X14855200Y12152600D02*
G01*
X13087300Y12152600D01*
X13087300Y12160300D01*
X14855200Y12160300D01*
X14855200Y12152600D01*
G37*
G36*
X14855200Y12160300D02*
G01*
X13095000Y12160300D01*
X13095000Y12167900D01*
X14855200Y12167900D01*
X14855200Y12160300D01*
G37*
G36*
X14847600Y12167900D02*
G01*
X13095000Y12167900D01*
X13095000Y12175500D01*
X14847600Y12175500D01*
X14847600Y12167900D01*
G37*
G36*
X14847600Y12175500D02*
G01*
X13910300Y12175500D01*
X13910300Y12183100D01*
X14847600Y12183100D01*
X14847600Y12175500D01*
G37*
G36*
X14847600Y12891800D02*
G01*
X13056900Y12891800D01*
X13056900Y12899400D01*
X14847600Y12899400D01*
X14847600Y12891800D01*
G37*
G36*
X14839900Y12183100D02*
G01*
X13940800Y12183100D01*
X13940800Y12190700D01*
X14839900Y12190700D01*
X14839900Y12183100D01*
G37*
G36*
X14839900Y12190700D02*
G01*
X13956000Y12190700D01*
X13956000Y12198400D01*
X14839900Y12198400D01*
X14839900Y12190700D01*
G37*
G36*
X14839900Y12884200D02*
G01*
X13056900Y12884200D01*
X13056900Y12891800D01*
X14839900Y12891800D01*
X14839900Y12884200D01*
G37*
G36*
X14832300Y12198400D02*
G01*
X13963600Y12198400D01*
X13963600Y12206000D01*
X14832300Y12206000D01*
X14832300Y12198400D01*
G37*
G36*
X14832300Y12206000D02*
G01*
X13963600Y12206000D01*
X13963600Y12213600D01*
X14832300Y12213600D01*
X14832300Y12206000D01*
G37*
G36*
X14832300Y12876500D02*
G01*
X13056900Y12876500D01*
X13056900Y12884200D01*
X14832300Y12884200D01*
X14832300Y12876500D01*
G37*
G36*
X14824700Y12213600D02*
G01*
X13971300Y12213600D01*
X13971300Y12221200D01*
X14824700Y12221200D01*
X14824700Y12213600D01*
G37*
G36*
X14824700Y12221200D02*
G01*
X13971300Y12221200D01*
X13971300Y12228800D01*
X14824700Y12228800D01*
X14824700Y12221200D01*
G37*
G36*
X14824700Y12868900D02*
G01*
X13049200Y12868900D01*
X13049200Y12876500D01*
X14824700Y12876500D01*
X14824700Y12868900D01*
G37*
G36*
X14817100Y12228800D02*
G01*
X13971300Y12228800D01*
X13971300Y12236500D01*
X14817100Y12236500D01*
X14817100Y12228800D01*
G37*
G36*
X14817100Y12236500D02*
G01*
X13971300Y12236500D01*
X13971300Y12244100D01*
X14817100Y12244100D01*
X14817100Y12236500D01*
G37*
G36*
X14809500Y12244100D02*
G01*
X13971300Y12244100D01*
X13971300Y12251700D01*
X14809500Y12251700D01*
X14809500Y12244100D01*
G37*
G36*
X14809500Y12251700D02*
G01*
X13971300Y12251700D01*
X13971300Y12259300D01*
X14809500Y12259300D01*
X14809500Y12251700D01*
G37*
G36*
X14809500Y12861300D02*
G01*
X13049200Y12861300D01*
X13049200Y12868900D01*
X14809500Y12868900D01*
X14809500Y12861300D01*
G37*
G36*
X14801800Y12259300D02*
G01*
X13971300Y12259300D01*
X13971300Y12266900D01*
X14801800Y12266900D01*
X14801800Y12259300D01*
G37*
G36*
X14801800Y12266900D02*
G01*
X13971300Y12266900D01*
X13971300Y12274600D01*
X14801800Y12274600D01*
X14801800Y12266900D01*
G37*
G36*
X14801800Y12853700D02*
G01*
X13041600Y12853700D01*
X13041600Y12861300D01*
X14801800Y12861300D01*
X14801800Y12853700D01*
G37*
G36*
X14794200Y12274600D02*
G01*
X13971300Y12274600D01*
X13971300Y12282200D01*
X14794200Y12282200D01*
X14794200Y12274600D01*
G37*
G36*
X14794200Y12282200D02*
G01*
X13971300Y12282200D01*
X13971300Y12289800D01*
X14794200Y12289800D01*
X14794200Y12282200D01*
G37*
G36*
X14794200Y12846100D02*
G01*
X13034000Y12846100D01*
X13034000Y12853700D01*
X14794200Y12853700D01*
X14794200Y12846100D01*
G37*
G36*
X14786600Y12289800D02*
G01*
X13971300Y12289800D01*
X13971300Y12297400D01*
X14786600Y12297400D01*
X14786600Y12289800D01*
G37*
G36*
X14779000Y12297400D02*
G01*
X13963600Y12297400D01*
X13963600Y12305000D01*
X14779000Y12305000D01*
X14779000Y12297400D01*
G37*
G36*
X14779000Y12305000D02*
G01*
X13963600Y12305000D01*
X13963600Y12312700D01*
X14779000Y12312700D01*
X14779000Y12305000D01*
G37*
G36*
X14779000Y12838400D02*
G01*
X13018800Y12838400D01*
X13018800Y12846100D01*
X14779000Y12846100D01*
X14779000Y12838400D01*
G37*
G36*
X14771400Y12312700D02*
G01*
X13963600Y12312700D01*
X13963600Y12320300D01*
X14771400Y12320300D01*
X14771400Y12312700D01*
G37*
G36*
X14771400Y12320300D02*
G01*
X13956000Y12320300D01*
X13956000Y12327900D01*
X14771400Y12327900D01*
X14771400Y12320300D01*
G37*
G36*
X14771400Y12830800D02*
G01*
X13003500Y12830800D01*
X13003500Y12838400D01*
X14771400Y12838400D01*
X14771400Y12830800D01*
G37*
G36*
X14763700Y12327900D02*
G01*
X13956000Y12327900D01*
X13956000Y12335500D01*
X14763700Y12335500D01*
X14763700Y12327900D01*
G37*
G36*
X14756100Y12335500D02*
G01*
X13956000Y12335500D01*
X13956000Y12343100D01*
X14756100Y12343100D01*
X14756100Y12335500D01*
G37*
G36*
X14756100Y12343100D02*
G01*
X13948400Y12343100D01*
X13948400Y12350800D01*
X14756100Y12350800D01*
X14756100Y12343100D01*
G37*
G36*
X14756100Y12823200D02*
G01*
X12988300Y12823200D01*
X12988300Y12830800D01*
X14756100Y12830800D01*
X14756100Y12823200D01*
G37*
G36*
X14748500Y12350800D02*
G01*
X13948400Y12350800D01*
X13948400Y12358400D01*
X14748500Y12358400D01*
X14748500Y12350800D01*
G37*
G36*
X14740900Y12358400D02*
G01*
X13940800Y12358400D01*
X13940800Y12366000D01*
X14740900Y12366000D01*
X14740900Y12358400D01*
G37*
G36*
X14740900Y12366000D02*
G01*
X13940800Y12366000D01*
X13940800Y12373600D01*
X14740900Y12373600D01*
X14740900Y12366000D01*
G37*
G36*
X14740900Y12815600D02*
G01*
X12973000Y12815600D01*
X12973000Y12823200D01*
X14740900Y12823200D01*
X14740900Y12815600D01*
G37*
G36*
X14733300Y12373600D02*
G01*
X13933200Y12373600D01*
X13933200Y12381200D01*
X14733300Y12381200D01*
X14733300Y12373600D01*
G37*
G36*
X14733300Y12808000D02*
G01*
X12942600Y12808000D01*
X12942600Y12815600D01*
X14733300Y12815600D01*
X14733300Y12808000D01*
G37*
G36*
X14725600Y12381200D02*
G01*
X13933200Y12381200D01*
X13933200Y12388900D01*
X14725600Y12388900D01*
X14725600Y12381200D01*
G37*
G36*
X14718000Y12388900D02*
G01*
X13925500Y12388900D01*
X13925500Y12396500D01*
X14718000Y12396500D01*
X14718000Y12388900D01*
G37*
G36*
X14718000Y12396500D02*
G01*
X13917900Y12396500D01*
X13917900Y12404100D01*
X14718000Y12404100D01*
X14718000Y12396500D01*
G37*
G36*
X14718000Y12800300D02*
G01*
X12889200Y12800300D01*
X12889200Y12808000D01*
X14718000Y12808000D01*
X14718000Y12800300D01*
G37*
G36*
X14710400Y12404100D02*
G01*
X13917900Y12404100D01*
X13917900Y12411700D01*
X14710400Y12411700D01*
X14710400Y12404100D01*
G37*
G36*
X14702800Y12411700D02*
G01*
X13910300Y12411700D01*
X13910300Y12419300D01*
X14702800Y12419300D01*
X14702800Y12411700D01*
G37*
G36*
X14702800Y12792700D02*
G01*
X11220400Y12792700D01*
X11220400Y12800300D01*
X14702800Y12800300D01*
X14702800Y12792700D01*
G37*
G36*
X14695200Y12419300D02*
G01*
X13902700Y12419300D01*
X13902700Y12427000D01*
X14695200Y12427000D01*
X14695200Y12419300D01*
G37*
G36*
X14687500Y12427000D02*
G01*
X13902700Y12427000D01*
X13902700Y12434600D01*
X14687500Y12434600D01*
X14687500Y12427000D01*
G37*
G36*
X14687500Y12434600D02*
G01*
X13895100Y12434600D01*
X13895100Y12442200D01*
X14687500Y12442200D01*
X14687500Y12434600D01*
G37*
G36*
X14687500Y12785100D02*
G01*
X11235700Y12785100D01*
X11235700Y12792700D01*
X14687500Y12792700D01*
X14687500Y12785100D01*
G37*
G36*
X14679900Y12442200D02*
G01*
X13887400Y12442200D01*
X13887400Y12449800D01*
X14679900Y12449800D01*
X14679900Y12442200D01*
G37*
G36*
X14672300Y12449800D02*
G01*
X13887400Y12449800D01*
X13887400Y12457400D01*
X14672300Y12457400D01*
X14672300Y12449800D01*
G37*
G36*
X14672300Y12777500D02*
G01*
X11243300Y12777500D01*
X11243300Y12785100D01*
X14672300Y12785100D01*
X14672300Y12777500D01*
G37*
G36*
X14664700Y12457400D02*
G01*
X13879800Y12457400D01*
X13879800Y12465100D01*
X14664700Y12465100D01*
X14664700Y12457400D01*
G37*
G36*
X14657100Y12465100D02*
G01*
X13872200Y12465100D01*
X13872200Y12472700D01*
X14657100Y12472700D01*
X14657100Y12465100D01*
G37*
G36*
X14657100Y12769900D02*
G01*
X11250900Y12769900D01*
X11250900Y12777500D01*
X14657100Y12777500D01*
X14657100Y12769900D01*
G37*
G36*
X14649400Y12472700D02*
G01*
X13864600Y12472700D01*
X13864600Y12480300D01*
X14649400Y12480300D01*
X14649400Y12472700D01*
G37*
G36*
X14641800Y12480300D02*
G01*
X13857000Y12480300D01*
X13857000Y12487900D01*
X14641800Y12487900D01*
X14641800Y12480300D01*
G37*
G36*
X14641800Y12762200D02*
G01*
X11266200Y12762200D01*
X11266200Y12769900D01*
X14641800Y12769900D01*
X14641800Y12762200D01*
G37*
G36*
X14634200Y12487900D02*
G01*
X13857000Y12487900D01*
X13857000Y12495500D01*
X14634200Y12495500D01*
X14634200Y12487900D01*
G37*
G36*
X14626600Y12495500D02*
G01*
X13849300Y12495500D01*
X13849300Y12503200D01*
X14626600Y12503200D01*
X14626600Y12495500D01*
G37*
G36*
X14626600Y12754600D02*
G01*
X11273800Y12754600D01*
X11273800Y12762200D01*
X14626600Y12762200D01*
X14626600Y12754600D01*
G37*
G36*
X14619000Y12503200D02*
G01*
X13841700Y12503200D01*
X13841700Y12510800D01*
X14619000Y12510800D01*
X14619000Y12503200D01*
G37*
G36*
X14611300Y12510800D02*
G01*
X13834100Y12510800D01*
X13834100Y12518400D01*
X14611300Y12518400D01*
X14611300Y12510800D01*
G37*
G36*
X14603700Y12518400D02*
G01*
X13826500Y12518400D01*
X13826500Y12526000D01*
X14603700Y12526000D01*
X14603700Y12518400D01*
G37*
G36*
X14603700Y12747000D02*
G01*
X11289000Y12747000D01*
X11289000Y12754600D01*
X14603700Y12754600D01*
X14603700Y12747000D01*
G37*
G36*
X14596100Y12526000D02*
G01*
X13818900Y12526000D01*
X13818900Y12533600D01*
X14596100Y12533600D01*
X14596100Y12526000D01*
G37*
G36*
X14588500Y12533600D02*
G01*
X13811200Y12533600D01*
X13811200Y12541300D01*
X14588500Y12541300D01*
X14588500Y12533600D01*
G37*
G36*
X14580900Y12739400D02*
G01*
X11296600Y12739400D01*
X11296600Y12747000D01*
X14580900Y12747000D01*
X14580900Y12739400D01*
G37*
G36*
X14573200Y12541300D02*
G01*
X13803600Y12541300D01*
X13803600Y12548900D01*
X14573200Y12548900D01*
X14573200Y12541300D01*
G37*
G36*
X14565600Y12548900D02*
G01*
X13796000Y12548900D01*
X13796000Y12556500D01*
X14565600Y12556500D01*
X14565600Y12548900D01*
G37*
G36*
X14558000Y12556500D02*
G01*
X13788400Y12556500D01*
X13788400Y12564100D01*
X14558000Y12564100D01*
X14558000Y12556500D01*
G37*
G36*
X14558000Y12731800D02*
G01*
X11304300Y12731800D01*
X11304300Y12739400D01*
X14558000Y12739400D01*
X14558000Y12731800D01*
G37*
G36*
X14550400Y12564100D02*
G01*
X13780800Y12564100D01*
X13780800Y12571700D01*
X14550400Y12571700D01*
X14550400Y12564100D01*
G37*
G36*
X14535100Y12571700D02*
G01*
X13773100Y12571700D01*
X13773100Y12579400D01*
X14535100Y12579400D01*
X14535100Y12571700D01*
G37*
G36*
X14535100Y12724100D02*
G01*
X11319500Y12724100D01*
X11319500Y12731800D01*
X14535100Y12731800D01*
X14535100Y12724100D01*
G37*
G36*
X14527500Y12579400D02*
G01*
X13765500Y12579400D01*
X13765500Y12587000D01*
X14527500Y12587000D01*
X14527500Y12579400D01*
G37*
G36*
X14512300Y12587000D02*
G01*
X13750300Y12587000D01*
X13750300Y12594600D01*
X14512300Y12594600D01*
X14512300Y12587000D01*
G37*
G36*
X14504700Y12594600D02*
G01*
X13742700Y12594600D01*
X13742700Y12602200D01*
X14504700Y12602200D01*
X14504700Y12594600D01*
G37*
G36*
X14504700Y12716500D02*
G01*
X11327100Y12716500D01*
X11327100Y12724100D01*
X14504700Y12724100D01*
X14504700Y12716500D01*
G37*
G36*
X14489400Y12602200D02*
G01*
X13735000Y12602200D01*
X13735000Y12609800D01*
X14489400Y12609800D01*
X14489400Y12602200D01*
G37*
G36*
X14474200Y12609800D02*
G01*
X13727400Y12609800D01*
X13727400Y12617500D01*
X14474200Y12617500D01*
X14474200Y12609800D01*
G37*
G36*
X14466600Y12708900D02*
G01*
X11342400Y12708900D01*
X11342400Y12716500D01*
X14466600Y12716500D01*
X14466600Y12708900D01*
G37*
G36*
X14458900Y12617500D02*
G01*
X13712200Y12617500D01*
X13712200Y12625100D01*
X14458900Y12625100D01*
X14458900Y12617500D01*
G37*
G36*
X14451300Y12625100D02*
G01*
X13704600Y12625100D01*
X13704600Y12632700D01*
X14451300Y12632700D01*
X14451300Y12625100D01*
G37*
G36*
X14428500Y12632700D02*
G01*
X13689300Y12632700D01*
X13689300Y12640300D01*
X14428500Y12640300D01*
X14428500Y12632700D01*
G37*
G36*
X14413200Y12640300D02*
G01*
X13681700Y12640300D01*
X13681700Y12647900D01*
X14413200Y12647900D01*
X14413200Y12640300D01*
G37*
G36*
X14398000Y12647900D02*
G01*
X13666500Y12647900D01*
X13666500Y12655600D01*
X14398000Y12655600D01*
X14398000Y12647900D01*
G37*
G36*
X14382700Y12701300D02*
G01*
X14321800Y12701300D01*
X14321800Y12708900D01*
X14382700Y12708900D01*
X14382700Y12701300D01*
G37*
G36*
X14375100Y12655600D02*
G01*
X13651200Y12655600D01*
X13651200Y12663200D01*
X14375100Y12663200D01*
X14375100Y12655600D01*
G37*
G36*
X14352300Y12663200D02*
G01*
X13636000Y12663200D01*
X13636000Y12670800D01*
X14352300Y12670800D01*
X14352300Y12663200D01*
G37*
G36*
X14329400Y12670800D02*
G01*
X13620700Y12670800D01*
X13620700Y12678400D01*
X14329400Y12678400D01*
X14329400Y12670800D01*
G37*
G36*
X14306500Y12678400D02*
G01*
X13605500Y12678400D01*
X13605500Y12686000D01*
X14306500Y12686000D01*
X14306500Y12678400D01*
G37*
G36*
X14276100Y12686000D02*
G01*
X13582600Y12686000D01*
X13582600Y12693700D01*
X14276100Y12693700D01*
X14276100Y12686000D01*
G37*
G36*
X14253200Y12693700D02*
G01*
X13559800Y12693700D01*
X13559800Y12701300D01*
X14253200Y12701300D01*
X14253200Y12693700D01*
G37*
G36*
X14222700Y12701300D02*
G01*
X11350000Y12701300D01*
X11350000Y12708900D01*
X14222700Y12708900D01*
X14222700Y12701300D01*
G37*
G36*
X13978900Y13310900D02*
G01*
X13354000Y13310900D01*
X13354000Y13318500D01*
X13978900Y13318500D01*
X13978900Y13310900D01*
G37*
G36*
X13933200Y13303300D02*
G01*
X13354000Y13303300D01*
X13354000Y13310900D01*
X13933200Y13310900D01*
X13933200Y13303300D01*
G37*
G36*
X13902700Y13295600D02*
G01*
X13354000Y13295600D01*
X13354000Y13303300D01*
X13902700Y13303300D01*
X13902700Y13295600D01*
G37*
G36*
X13895100Y12175500D02*
G01*
X13102600Y12175500D01*
X13102600Y12183100D01*
X13895100Y12183100D01*
X13895100Y12175500D01*
G37*
G36*
X13879800Y13288000D02*
G01*
X13354000Y13288000D01*
X13354000Y13295600D01*
X13879800Y13295600D01*
X13879800Y13288000D01*
G37*
G36*
X13857000Y13280400D02*
G01*
X13354000Y13280400D01*
X13354000Y13288000D01*
X13857000Y13288000D01*
X13857000Y13280400D01*
G37*
G36*
X13849300Y12183100D02*
G01*
X13110200Y12183100D01*
X13110200Y12190700D01*
X13849300Y12190700D01*
X13849300Y12183100D01*
G37*
G36*
X13834100Y13272800D02*
G01*
X13354000Y13272800D01*
X13354000Y13280400D01*
X13834100Y13280400D01*
X13834100Y13272800D01*
G37*
G36*
X13826500Y12190700D02*
G01*
X13110200Y12190700D01*
X13110200Y12198400D01*
X13826500Y12198400D01*
X13826500Y12190700D01*
G37*
G36*
X13818900Y13265200D02*
G01*
X13354000Y13265200D01*
X13354000Y13272800D01*
X13818900Y13272800D01*
X13818900Y13265200D01*
G37*
G36*
X13811200Y12198400D02*
G01*
X13117800Y12198400D01*
X13117800Y12206000D01*
X13811200Y12206000D01*
X13811200Y12198400D01*
G37*
G36*
X13803600Y13958600D02*
G01*
X12432000Y13958600D01*
X12432000Y13966200D01*
X13803600Y13966200D01*
X13803600Y13958600D01*
G37*
G36*
X13803600Y13966200D02*
G01*
X12424400Y13966200D01*
X12424400Y13973800D01*
X13803600Y13973800D01*
X13803600Y13966200D01*
G37*
G36*
X13803600Y13973800D02*
G01*
X12424400Y13973800D01*
X12424400Y13981400D01*
X13803600Y13981400D01*
X13803600Y13973800D01*
G37*
G36*
X13803600Y13981400D02*
G01*
X12424400Y13981400D01*
X12424400Y13989100D01*
X13803600Y13989100D01*
X13803600Y13981400D01*
G37*
G36*
X13803600Y13989100D02*
G01*
X12424400Y13989100D01*
X12424400Y13996700D01*
X13803600Y13996700D01*
X13803600Y13989100D01*
G37*
G36*
X13803600Y13996700D02*
G01*
X12424400Y13996700D01*
X12424400Y14004300D01*
X13803600Y14004300D01*
X13803600Y13996700D01*
G37*
G36*
X13803600Y14004300D02*
G01*
X12424400Y14004300D01*
X12424400Y14011900D01*
X13803600Y14011900D01*
X13803600Y14004300D01*
G37*
G36*
X13803600Y14011900D02*
G01*
X12424400Y14011900D01*
X12424400Y14019500D01*
X13803600Y14019500D01*
X13803600Y14011900D01*
G37*
G36*
X13803600Y14019500D02*
G01*
X12424400Y14019500D01*
X12424400Y14027200D01*
X13803600Y14027200D01*
X13803600Y14019500D01*
G37*
G36*
X13803600Y14027200D02*
G01*
X12424400Y14027200D01*
X12424400Y14034800D01*
X13803600Y14034800D01*
X13803600Y14027200D01*
G37*
G36*
X13803600Y14034800D02*
G01*
X12424400Y14034800D01*
X12424400Y14042400D01*
X13803600Y14042400D01*
X13803600Y14034800D01*
G37*
G36*
X13803600Y14042400D02*
G01*
X12424400Y14042400D01*
X12424400Y14050000D01*
X13803600Y14050000D01*
X13803600Y14042400D01*
G37*
G36*
X13803600Y14050000D02*
G01*
X12424400Y14050000D01*
X12424400Y14057600D01*
X13803600Y14057600D01*
X13803600Y14050000D01*
G37*
G36*
X13803600Y14057600D02*
G01*
X12424400Y14057600D01*
X12424400Y14065300D01*
X13803600Y14065300D01*
X13803600Y14057600D01*
G37*
G36*
X13803600Y14065300D02*
G01*
X12424400Y14065300D01*
X12424400Y14072900D01*
X13803600Y14072900D01*
X13803600Y14065300D01*
G37*
G36*
X13803600Y14072900D02*
G01*
X12424400Y14072900D01*
X12424400Y14080500D01*
X13803600Y14080500D01*
X13803600Y14072900D01*
G37*
G36*
X13803600Y14080500D02*
G01*
X12424400Y14080500D01*
X12424400Y14088100D01*
X13803600Y14088100D01*
X13803600Y14080500D01*
G37*
G36*
X13803600Y14088100D02*
G01*
X12424400Y14088100D01*
X12424400Y14095700D01*
X13803600Y14095700D01*
X13803600Y14088100D01*
G37*
G36*
X13803600Y14095700D02*
G01*
X12424400Y14095700D01*
X12424400Y14103400D01*
X13803600Y14103400D01*
X13803600Y14095700D01*
G37*
G36*
X13796000Y12206000D02*
G01*
X13125400Y12206000D01*
X13125400Y12213600D01*
X13796000Y12213600D01*
X13796000Y12206000D01*
G37*
G36*
X13796000Y13257500D02*
G01*
X13354000Y13257500D01*
X13354000Y13265200D01*
X13796000Y13265200D01*
X13796000Y13257500D01*
G37*
G36*
X13796000Y13905200D02*
G01*
X12439600Y13905200D01*
X12439600Y13912900D01*
X13796000Y13912900D01*
X13796000Y13905200D01*
G37*
G36*
X13796000Y13912900D02*
G01*
X12439600Y13912900D01*
X12439600Y13920500D01*
X13796000Y13920500D01*
X13796000Y13912900D01*
G37*
G36*
X13796000Y13920500D02*
G01*
X12432000Y13920500D01*
X12432000Y13928100D01*
X13796000Y13928100D01*
X13796000Y13920500D01*
G37*
G36*
X13796000Y13928100D02*
G01*
X12432000Y13928100D01*
X12432000Y13935700D01*
X13796000Y13935700D01*
X13796000Y13928100D01*
G37*
G36*
X13796000Y13935700D02*
G01*
X12432000Y13935700D01*
X12432000Y13943300D01*
X13796000Y13943300D01*
X13796000Y13935700D01*
G37*
G36*
X13796000Y13943300D02*
G01*
X12432000Y13943300D01*
X12432000Y13951000D01*
X13796000Y13951000D01*
X13796000Y13943300D01*
G37*
G36*
X13796000Y13951000D02*
G01*
X12432000Y13951000D01*
X12432000Y13958600D01*
X13796000Y13958600D01*
X13796000Y13951000D01*
G37*
G36*
X13796000Y14103400D02*
G01*
X12424400Y14103400D01*
X12424400Y14111000D01*
X13796000Y14111000D01*
X13796000Y14103400D01*
G37*
G36*
X13796000Y14111000D02*
G01*
X12424400Y14111000D01*
X12424400Y14118600D01*
X13796000Y14118600D01*
X13796000Y14111000D01*
G37*
G36*
X13796000Y14118600D02*
G01*
X12424400Y14118600D01*
X12424400Y14126200D01*
X13796000Y14126200D01*
X13796000Y14118600D01*
G37*
G36*
X13796000Y14126200D02*
G01*
X12424400Y14126200D01*
X12424400Y14133800D01*
X13796000Y14133800D01*
X13796000Y14126200D01*
G37*
G36*
X13796000Y14133800D02*
G01*
X12424400Y14133800D01*
X12424400Y14141500D01*
X13796000Y14141500D01*
X13796000Y14133800D01*
G37*
G36*
X13796000Y14141500D02*
G01*
X12424400Y14141500D01*
X12424400Y14149100D01*
X13796000Y14149100D01*
X13796000Y14141500D01*
G37*
G36*
X13796000Y14149100D02*
G01*
X12424400Y14149100D01*
X12424400Y14156700D01*
X13796000Y14156700D01*
X13796000Y14149100D01*
G37*
G36*
X13788400Y13867100D02*
G01*
X12447300Y13867100D01*
X12447300Y13874800D01*
X13788400Y13874800D01*
X13788400Y13867100D01*
G37*
G36*
X13788400Y13874800D02*
G01*
X12447300Y13874800D01*
X12447300Y13882400D01*
X13788400Y13882400D01*
X13788400Y13874800D01*
G37*
G36*
X13788400Y13882400D02*
G01*
X12439600Y13882400D01*
X12439600Y13890000D01*
X13788400Y13890000D01*
X13788400Y13882400D01*
G37*
G36*
X13788400Y13890000D02*
G01*
X12439600Y13890000D01*
X12439600Y13897600D01*
X13788400Y13897600D01*
X13788400Y13890000D01*
G37*
G36*
X13788400Y13897600D02*
G01*
X12439600Y13897600D01*
X12439600Y13905200D01*
X13788400Y13905200D01*
X13788400Y13897600D01*
G37*
G36*
X13788400Y14156700D02*
G01*
X12424400Y14156700D01*
X12424400Y14164300D01*
X13788400Y14164300D01*
X13788400Y14156700D01*
G37*
G36*
X13788400Y14164300D02*
G01*
X12424400Y14164300D01*
X12424400Y14171900D01*
X13788400Y14171900D01*
X13788400Y14164300D01*
G37*
G36*
X13788400Y14171900D02*
G01*
X12424400Y14171900D01*
X12424400Y14179600D01*
X13788400Y14179600D01*
X13788400Y14171900D01*
G37*
G36*
X13788400Y14179600D02*
G01*
X12424400Y14179600D01*
X12424400Y14187200D01*
X13788400Y14187200D01*
X13788400Y14179600D01*
G37*
G36*
X13788400Y14187200D02*
G01*
X12432000Y14187200D01*
X12432000Y14194800D01*
X13788400Y14194800D01*
X13788400Y14187200D01*
G37*
G36*
X13780800Y12213600D02*
G01*
X13125400Y12213600D01*
X13125400Y12221200D01*
X13780800Y12221200D01*
X13780800Y12213600D01*
G37*
G36*
X13780800Y13249900D02*
G01*
X13354000Y13249900D01*
X13354000Y13257500D01*
X13780800Y13257500D01*
X13780800Y13249900D01*
G37*
G36*
X13780800Y13844300D02*
G01*
X12454900Y13844300D01*
X12454900Y13851900D01*
X13780800Y13851900D01*
X13780800Y13844300D01*
G37*
G36*
X13780800Y13851900D02*
G01*
X12447300Y13851900D01*
X12447300Y13859500D01*
X13780800Y13859500D01*
X13780800Y13851900D01*
G37*
G36*
X13780800Y13859500D02*
G01*
X12447300Y13859500D01*
X12447300Y13867100D01*
X13780800Y13867100D01*
X13780800Y13859500D01*
G37*
G36*
X13780800Y14194800D02*
G01*
X12432000Y14194800D01*
X12432000Y14202400D01*
X13780800Y14202400D01*
X13780800Y14194800D01*
G37*
G36*
X13780800Y14202400D02*
G01*
X12432000Y14202400D01*
X12432000Y14210000D01*
X13780800Y14210000D01*
X13780800Y14202400D01*
G37*
G36*
X13780800Y14210000D02*
G01*
X12432000Y14210000D01*
X12432000Y14217700D01*
X13780800Y14217700D01*
X13780800Y14210000D01*
G37*
G36*
X13780800Y14217700D02*
G01*
X12432000Y14217700D01*
X12432000Y14225300D01*
X13780800Y14225300D01*
X13780800Y14217700D01*
G37*
G36*
X13773100Y13813800D02*
G01*
X12462500Y13813800D01*
X12462500Y13821400D01*
X13773100Y13821400D01*
X13773100Y13813800D01*
G37*
G36*
X13773100Y13821400D02*
G01*
X12454900Y13821400D01*
X12454900Y13829000D01*
X13773100Y13829000D01*
X13773100Y13821400D01*
G37*
G36*
X13773100Y13829000D02*
G01*
X12454900Y13829000D01*
X12454900Y13836700D01*
X13773100Y13836700D01*
X13773100Y13829000D01*
G37*
G36*
X13773100Y13836700D02*
G01*
X12454900Y13836700D01*
X12454900Y13844300D01*
X13773100Y13844300D01*
X13773100Y13836700D01*
G37*
G36*
X13773100Y14225300D02*
G01*
X12432000Y14225300D01*
X12432000Y14232900D01*
X13773100Y14232900D01*
X13773100Y14225300D01*
G37*
G36*
X13773100Y14232900D02*
G01*
X12432000Y14232900D01*
X12432000Y14240500D01*
X13773100Y14240500D01*
X13773100Y14232900D01*
G37*
G36*
X13773100Y14240500D02*
G01*
X12432000Y14240500D01*
X12432000Y14248100D01*
X13773100Y14248100D01*
X13773100Y14240500D01*
G37*
G36*
X13773100Y14248100D02*
G01*
X12439600Y14248100D01*
X12439600Y14255800D01*
X13773100Y14255800D01*
X13773100Y14248100D01*
G37*
G36*
X13765500Y12221200D02*
G01*
X13133100Y12221200D01*
X13133100Y12228800D01*
X13765500Y12228800D01*
X13765500Y12221200D01*
G37*
G36*
X13765500Y13242300D02*
G01*
X13346400Y13242300D01*
X13346400Y13249900D01*
X13765500Y13249900D01*
X13765500Y13242300D01*
G37*
G36*
X13765500Y13790900D02*
G01*
X12470100Y13790900D01*
X12470100Y13798600D01*
X13765500Y13798600D01*
X13765500Y13790900D01*
G37*
G36*
X13765500Y13798600D02*
G01*
X12462500Y13798600D01*
X12462500Y13806200D01*
X13765500Y13806200D01*
X13765500Y13798600D01*
G37*
G36*
X13765500Y13806200D02*
G01*
X12462500Y13806200D01*
X12462500Y13813800D01*
X13765500Y13813800D01*
X13765500Y13806200D01*
G37*
G36*
X13765500Y14255800D02*
G01*
X12439600Y14255800D01*
X12439600Y14263400D01*
X13765500Y14263400D01*
X13765500Y14255800D01*
G37*
G36*
X13765500Y14263400D02*
G01*
X12439600Y14263400D01*
X12439600Y14271000D01*
X13765500Y14271000D01*
X13765500Y14263400D01*
G37*
G36*
X13765500Y14271000D02*
G01*
X12439600Y14271000D01*
X12439600Y14278600D01*
X13765500Y14278600D01*
X13765500Y14271000D01*
G37*
G36*
X13757900Y13768100D02*
G01*
X12477700Y13768100D01*
X12477700Y13775700D01*
X13757900Y13775700D01*
X13757900Y13768100D01*
G37*
G36*
X13757900Y13775700D02*
G01*
X12477700Y13775700D01*
X12477700Y13783300D01*
X13757900Y13783300D01*
X13757900Y13775700D01*
G37*
G36*
X13757900Y13783300D02*
G01*
X12470100Y13783300D01*
X12470100Y13790900D01*
X13757900Y13790900D01*
X13757900Y13783300D01*
G37*
G36*
X13757900Y14278600D02*
G01*
X12439600Y14278600D01*
X12439600Y14286200D01*
X13757900Y14286200D01*
X13757900Y14278600D01*
G37*
G36*
X13757900Y14286200D02*
G01*
X12447300Y14286200D01*
X12447300Y14293900D01*
X13757900Y14293900D01*
X13757900Y14286200D01*
G37*
G36*
X13757900Y14293900D02*
G01*
X12447300Y14293900D01*
X12447300Y14301500D01*
X13757900Y14301500D01*
X13757900Y14293900D01*
G37*
G36*
X13750300Y12228800D02*
G01*
X13133100Y12228800D01*
X13133100Y12236500D01*
X13750300Y12236500D01*
X13750300Y12228800D01*
G37*
G36*
X13750300Y13234700D02*
G01*
X13346400Y13234700D01*
X13346400Y13242300D01*
X13750300Y13242300D01*
X13750300Y13234700D01*
G37*
G36*
X13750300Y13752800D02*
G01*
X13209300Y13752800D01*
X13209300Y13760500D01*
X13750300Y13760500D01*
X13750300Y13752800D01*
G37*
G36*
X13750300Y13760500D02*
G01*
X13194000Y13760500D01*
X13194000Y13768100D01*
X13750300Y13768100D01*
X13750300Y13760500D01*
G37*
G36*
X13750300Y14301500D02*
G01*
X12447300Y14301500D01*
X12447300Y14309100D01*
X13750300Y14309100D01*
X13750300Y14301500D01*
G37*
G36*
X13750300Y14309100D02*
G01*
X12447300Y14309100D01*
X12447300Y14316700D01*
X13750300Y14316700D01*
X13750300Y14309100D01*
G37*
G36*
X13750300Y14316700D02*
G01*
X12447300Y14316700D01*
X12447300Y14324300D01*
X13750300Y14324300D01*
X13750300Y14316700D01*
G37*
G36*
X13742700Y12236500D02*
G01*
X13140700Y12236500D01*
X13140700Y12244100D01*
X13742700Y12244100D01*
X13742700Y12236500D01*
G37*
G36*
X13742700Y13730000D02*
G01*
X13232100Y13730000D01*
X13232100Y13737600D01*
X13742700Y13737600D01*
X13742700Y13730000D01*
G37*
G36*
X13742700Y13737600D02*
G01*
X13224500Y13737600D01*
X13224500Y13745200D01*
X13742700Y13745200D01*
X13742700Y13737600D01*
G37*
G36*
X13742700Y13745200D02*
G01*
X13216900Y13745200D01*
X13216900Y13752800D01*
X13742700Y13752800D01*
X13742700Y13745200D01*
G37*
G36*
X13742700Y14324300D02*
G01*
X12454900Y14324300D01*
X12454900Y14332000D01*
X13742700Y14332000D01*
X13742700Y14324300D01*
G37*
G36*
X13742700Y14332000D02*
G01*
X12454900Y14332000D01*
X12454900Y14339600D01*
X13742700Y14339600D01*
X13742700Y14332000D01*
G37*
G36*
X13742700Y14339600D02*
G01*
X12454900Y14339600D01*
X12454900Y14347200D01*
X13742700Y14347200D01*
X13742700Y14339600D01*
G37*
G36*
X13735000Y13227100D02*
G01*
X13346400Y13227100D01*
X13346400Y13234700D01*
X13735000Y13234700D01*
X13735000Y13227100D01*
G37*
G36*
X13735000Y13707100D02*
G01*
X13255000Y13707100D01*
X13255000Y13714700D01*
X13735000Y13714700D01*
X13735000Y13707100D01*
G37*
G36*
X13735000Y13714700D02*
G01*
X13247400Y13714700D01*
X13247400Y13722400D01*
X13735000Y13722400D01*
X13735000Y13714700D01*
G37*
G36*
X13735000Y13722400D02*
G01*
X13239700Y13722400D01*
X13239700Y13730000D01*
X13735000Y13730000D01*
X13735000Y13722400D01*
G37*
G36*
X13735000Y14347200D02*
G01*
X12454900Y14347200D01*
X12454900Y14354800D01*
X13735000Y14354800D01*
X13735000Y14347200D01*
G37*
G36*
X13735000Y14354800D02*
G01*
X12462500Y14354800D01*
X12462500Y14362400D01*
X13735000Y14362400D01*
X13735000Y14354800D01*
G37*
G36*
X13727400Y12244100D02*
G01*
X13140700Y12244100D01*
X13140700Y12251700D01*
X13727400Y12251700D01*
X13727400Y12244100D01*
G37*
G36*
X13727400Y13219400D02*
G01*
X13346400Y13219400D01*
X13346400Y13227100D01*
X13727400Y13227100D01*
X13727400Y13219400D01*
G37*
G36*
X13727400Y13691900D02*
G01*
X13262600Y13691900D01*
X13262600Y13699500D01*
X13727400Y13699500D01*
X13727400Y13691900D01*
G37*
G36*
X13727400Y13699500D02*
G01*
X13255000Y13699500D01*
X13255000Y13707100D01*
X13727400Y13707100D01*
X13727400Y13699500D01*
G37*
G36*
X13727400Y14362400D02*
G01*
X12462500Y14362400D01*
X12462500Y14370100D01*
X13727400Y14370100D01*
X13727400Y14362400D01*
G37*
G36*
X13727400Y14370100D02*
G01*
X12462500Y14370100D01*
X12462500Y14377700D01*
X13727400Y14377700D01*
X13727400Y14370100D01*
G37*
G36*
X13727400Y14377700D02*
G01*
X12462500Y14377700D01*
X12462500Y14385300D01*
X13727400Y14385300D01*
X13727400Y14377700D01*
G37*
G36*
X13719800Y12251700D02*
G01*
X13148300Y12251700D01*
X13148300Y12259300D01*
X13719800Y12259300D01*
X13719800Y12251700D01*
G37*
G36*
X13719800Y13684300D02*
G01*
X13270200Y13684300D01*
X13270200Y13691900D01*
X13719800Y13691900D01*
X13719800Y13684300D01*
G37*
G36*
X13719800Y14385300D02*
G01*
X12470100Y14385300D01*
X12470100Y14392900D01*
X13719800Y14392900D01*
X13719800Y14385300D01*
G37*
G36*
X13719800Y14392900D02*
G01*
X12470100Y14392900D01*
X12470100Y14400500D01*
X13719800Y14400500D01*
X13719800Y14392900D01*
G37*
G36*
X13712200Y13211800D02*
G01*
X13346400Y13211800D01*
X13346400Y13219400D01*
X13712200Y13219400D01*
X13712200Y13211800D01*
G37*
G36*
X13712200Y14400500D02*
G01*
X12470100Y14400500D01*
X12470100Y14408200D01*
X13712200Y14408200D01*
X13712200Y14400500D01*
G37*
G36*
X13712200Y14408200D02*
G01*
X12477700Y14408200D01*
X12477700Y14415800D01*
X13712200Y14415800D01*
X13712200Y14408200D01*
G37*
G36*
X13704600Y12259300D02*
G01*
X13155900Y12259300D01*
X13155900Y12266900D01*
X13704600Y12266900D01*
X13704600Y12259300D01*
G37*
G36*
X13704600Y14415800D02*
G01*
X12477700Y14415800D01*
X12477700Y14423400D01*
X13704600Y14423400D01*
X13704600Y14415800D01*
G37*
G36*
X13704600Y14423400D02*
G01*
X12477700Y14423400D01*
X12477700Y14431000D01*
X13704600Y14431000D01*
X13704600Y14423400D01*
G37*
G36*
X13696900Y12266900D02*
G01*
X13155900Y12266900D01*
X13155900Y12274600D01*
X13696900Y12274600D01*
X13696900Y12266900D01*
G37*
G36*
X13696900Y13204200D02*
G01*
X13338800Y13204200D01*
X13338800Y13211800D01*
X13696900Y13211800D01*
X13696900Y13204200D01*
G37*
G36*
X13696900Y14431000D02*
G01*
X12485400Y14431000D01*
X12485400Y14438600D01*
X13696900Y14438600D01*
X13696900Y14431000D01*
G37*
G36*
X13696900Y14438600D02*
G01*
X12485400Y14438600D01*
X12485400Y14446300D01*
X13696900Y14446300D01*
X13696900Y14438600D01*
G37*
G36*
X13689300Y12274600D02*
G01*
X13163500Y12274600D01*
X13163500Y12282200D01*
X13689300Y12282200D01*
X13689300Y12274600D01*
G37*
G36*
X13689300Y13196600D02*
G01*
X13338800Y13196600D01*
X13338800Y13204200D01*
X13689300Y13204200D01*
X13689300Y13196600D01*
G37*
G36*
X13689300Y14446300D02*
G01*
X12485400Y14446300D01*
X12485400Y14453900D01*
X13689300Y14453900D01*
X13689300Y14446300D01*
G37*
G36*
X13689300Y14453900D02*
G01*
X12493000Y14453900D01*
X12493000Y14461500D01*
X13689300Y14461500D01*
X13689300Y14453900D01*
G37*
G36*
X13681700Y12282200D02*
G01*
X13163500Y12282200D01*
X13163500Y12289800D01*
X13681700Y12289800D01*
X13681700Y12282200D01*
G37*
G36*
X13681700Y14461500D02*
G01*
X12493000Y14461500D01*
X12493000Y14469100D01*
X13681700Y14469100D01*
X13681700Y14461500D01*
G37*
G36*
X13681700Y14469100D02*
G01*
X12493000Y14469100D01*
X12493000Y14476700D01*
X13681700Y14476700D01*
X13681700Y14469100D01*
G37*
G36*
X13674100Y13189000D02*
G01*
X13338800Y13189000D01*
X13338800Y13196600D01*
X13674100Y13196600D01*
X13674100Y13189000D01*
G37*
G36*
X13674100Y14476700D02*
G01*
X12500600Y14476700D01*
X12500600Y14484400D01*
X13674100Y14484400D01*
X13674100Y14476700D01*
G37*
G36*
X13674100Y14484400D02*
G01*
X12500600Y14484400D01*
X12500600Y14492000D01*
X13674100Y14492000D01*
X13674100Y14484400D01*
G37*
G36*
X13666500Y12289800D02*
G01*
X13171200Y12289800D01*
X13171200Y12297400D01*
X13666500Y12297400D01*
X13666500Y12289800D01*
G37*
G36*
X13666500Y13181300D02*
G01*
X13338800Y13181300D01*
X13338800Y13189000D01*
X13666500Y13189000D01*
X13666500Y13181300D01*
G37*
G36*
X13666500Y14492000D02*
G01*
X12500600Y14492000D01*
X12500600Y14499600D01*
X13666500Y14499600D01*
X13666500Y14492000D01*
G37*
G36*
X13666500Y14499600D02*
G01*
X12500600Y14499600D01*
X12500600Y14507200D01*
X13666500Y14507200D01*
X13666500Y14499600D01*
G37*
G36*
X13658800Y12297400D02*
G01*
X13171200Y12297400D01*
X13171200Y12305000D01*
X13658800Y12305000D01*
X13658800Y12297400D01*
G37*
G36*
X13658800Y14507200D02*
G01*
X12508200Y14507200D01*
X12508200Y14514800D01*
X13658800Y14514800D01*
X13658800Y14507200D01*
G37*
G36*
X13651200Y12305000D02*
G01*
X13171200Y12305000D01*
X13171200Y12312700D01*
X13651200Y12312700D01*
X13651200Y12305000D01*
G37*
G36*
X13651200Y13173700D02*
G01*
X13331200Y13173700D01*
X13331200Y13181300D01*
X13651200Y13181300D01*
X13651200Y13173700D01*
G37*
G36*
X13651200Y14514800D02*
G01*
X12508200Y14514800D01*
X12508200Y14522500D01*
X13651200Y14522500D01*
X13651200Y14514800D01*
G37*
G36*
X13651200Y14522500D02*
G01*
X12508200Y14522500D01*
X12508200Y14530100D01*
X13651200Y14530100D01*
X13651200Y14522500D01*
G37*
G36*
X13643600Y12312700D02*
G01*
X13178800Y12312700D01*
X13178800Y12320300D01*
X13643600Y12320300D01*
X13643600Y12312700D01*
G37*
G36*
X13643600Y13166100D02*
G01*
X13331200Y13166100D01*
X13331200Y13173700D01*
X13643600Y13173700D01*
X13643600Y13166100D01*
G37*
G36*
X13643600Y14530100D02*
G01*
X12515800Y14530100D01*
X12515800Y14537700D01*
X13643600Y14537700D01*
X13643600Y14530100D01*
G37*
G36*
X13643600Y14537700D02*
G01*
X12515800Y14537700D01*
X12515800Y14545300D01*
X13643600Y14545300D01*
X13643600Y14537700D01*
G37*
G36*
X13636000Y12320300D02*
G01*
X13178800Y12320300D01*
X13178800Y12327900D01*
X13636000Y12327900D01*
X13636000Y12320300D01*
G37*
G36*
X13636000Y13158500D02*
G01*
X13331200Y13158500D01*
X13331200Y13166100D01*
X13636000Y13166100D01*
X13636000Y13158500D01*
G37*
G36*
X13636000Y14545300D02*
G01*
X12515800Y14545300D01*
X12515800Y14552900D01*
X13636000Y14552900D01*
X13636000Y14545300D01*
G37*
G36*
X13628400Y12327900D02*
G01*
X13186400Y12327900D01*
X13186400Y12335500D01*
X13628400Y12335500D01*
X13628400Y12327900D01*
G37*
G36*
X13628400Y14552900D02*
G01*
X12523500Y14552900D01*
X12523500Y14560600D01*
X13628400Y14560600D01*
X13628400Y14552900D01*
G37*
G36*
X13628400Y14560600D02*
G01*
X12523500Y14560600D01*
X12523500Y14568200D01*
X13628400Y14568200D01*
X13628400Y14560600D01*
G37*
G36*
X13620700Y12335500D02*
G01*
X13186400Y12335500D01*
X13186400Y12343100D01*
X13620700Y12343100D01*
X13620700Y12335500D01*
G37*
G36*
X13620700Y13150900D02*
G01*
X13323600Y13150900D01*
X13323600Y13158500D01*
X13620700Y13158500D01*
X13620700Y13150900D01*
G37*
G36*
X13620700Y14568200D02*
G01*
X12523500Y14568200D01*
X12523500Y14575800D01*
X13620700Y14575800D01*
X13620700Y14568200D01*
G37*
G36*
X13613100Y12343100D02*
G01*
X13194000Y12343100D01*
X13194000Y12350800D01*
X13613100Y12350800D01*
X13613100Y12343100D01*
G37*
G36*
X13613100Y13143200D02*
G01*
X13323600Y13143200D01*
X13323600Y13150900D01*
X13613100Y13150900D01*
X13613100Y13143200D01*
G37*
G36*
X13613100Y14575800D02*
G01*
X12531100Y14575800D01*
X12531100Y14583400D01*
X13613100Y14583400D01*
X13613100Y14575800D01*
G37*
G36*
X13613100Y14583400D02*
G01*
X12531100Y14583400D01*
X12531100Y14591000D01*
X13613100Y14591000D01*
X13613100Y14583400D01*
G37*
G36*
X13605500Y12350800D02*
G01*
X13194000Y12350800D01*
X13194000Y12358400D01*
X13605500Y12358400D01*
X13605500Y12350800D01*
G37*
G36*
X13605500Y13135600D02*
G01*
X13315900Y13135600D01*
X13315900Y13143200D01*
X13605500Y13143200D01*
X13605500Y13135600D01*
G37*
G36*
X13605500Y14591000D02*
G01*
X12531100Y14591000D01*
X12531100Y14598700D01*
X13605500Y14598700D01*
X13605500Y14591000D01*
G37*
G36*
X13597900Y12358400D02*
G01*
X13194000Y12358400D01*
X13194000Y12366000D01*
X13597900Y12366000D01*
X13597900Y12358400D01*
G37*
G36*
X13597900Y13128000D02*
G01*
X13308300Y13128000D01*
X13308300Y13135600D01*
X13597900Y13135600D01*
X13597900Y13128000D01*
G37*
G36*
X13597900Y14598700D02*
G01*
X12538700Y14598700D01*
X12538700Y14606300D01*
X13597900Y14606300D01*
X13597900Y14598700D01*
G37*
G36*
X13590300Y12366000D02*
G01*
X13201600Y12366000D01*
X13201600Y12373600D01*
X13590300Y12373600D01*
X13590300Y12366000D01*
G37*
G36*
X13590300Y13120400D02*
G01*
X13308300Y13120400D01*
X13308300Y13128000D01*
X13590300Y13128000D01*
X13590300Y13120400D01*
G37*
G36*
X13590300Y14606300D02*
G01*
X12538700Y14606300D01*
X12538700Y14613900D01*
X13590300Y14613900D01*
X13590300Y14606300D01*
G37*
G36*
X13590300Y14613900D02*
G01*
X12538700Y14613900D01*
X12538700Y14621500D01*
X13590300Y14621500D01*
X13590300Y14613900D01*
G37*
G36*
X13582600Y12373600D02*
G01*
X13201600Y12373600D01*
X13201600Y12381200D01*
X13582600Y12381200D01*
X13582600Y12373600D01*
G37*
G36*
X13582600Y12922300D02*
G01*
X13056900Y12922300D01*
X13056900Y12929900D01*
X13582600Y12929900D01*
X13582600Y12922300D01*
G37*
G36*
X13582600Y13112800D02*
G01*
X13300700Y13112800D01*
X13300700Y13120400D01*
X13582600Y13120400D01*
X13582600Y13112800D01*
G37*
G36*
X13582600Y14621500D02*
G01*
X12546300Y14621500D01*
X12546300Y14629100D01*
X13582600Y14629100D01*
X13582600Y14621500D01*
G37*
G36*
X13575000Y12381200D02*
G01*
X13201600Y12381200D01*
X13201600Y12388900D01*
X13575000Y12388900D01*
X13575000Y12381200D01*
G37*
G36*
X13575000Y13105100D02*
G01*
X13293100Y13105100D01*
X13293100Y13112800D01*
X13575000Y13112800D01*
X13575000Y13105100D01*
G37*
G36*
X13575000Y14629100D02*
G01*
X12546300Y14629100D01*
X12546300Y14636800D01*
X13575000Y14636800D01*
X13575000Y14629100D01*
G37*
G36*
X13567400Y12388900D02*
G01*
X13209300Y12388900D01*
X13209300Y12396500D01*
X13567400Y12396500D01*
X13567400Y12388900D01*
G37*
G36*
X13567400Y12396500D02*
G01*
X13209300Y12396500D01*
X13209300Y12404100D01*
X13567400Y12404100D01*
X13567400Y12396500D01*
G37*
G36*
X13567400Y13097500D02*
G01*
X13277800Y13097500D01*
X13277800Y13105100D01*
X13567400Y13105100D01*
X13567400Y13097500D01*
G37*
G36*
X13567400Y14636800D02*
G01*
X12546300Y14636800D01*
X12546300Y14644400D01*
X13567400Y14644400D01*
X13567400Y14636800D01*
G37*
G36*
X13567400Y14644400D02*
G01*
X12553900Y14644400D01*
X12553900Y14652000D01*
X13567400Y14652000D01*
X13567400Y14644400D01*
G37*
G36*
X13559800Y12404100D02*
G01*
X13209300Y12404100D01*
X13209300Y12411700D01*
X13559800Y12411700D01*
X13559800Y12404100D01*
G37*
G36*
X13559800Y13089900D02*
G01*
X10816600Y13089900D01*
X10816600Y13097500D01*
X13559800Y13097500D01*
X13559800Y13089900D01*
G37*
G36*
X13559800Y14652000D02*
G01*
X12553900Y14652000D01*
X12553900Y14659600D01*
X13559800Y14659600D01*
X13559800Y14652000D01*
G37*
G36*
X13552200Y12411700D02*
G01*
X13216900Y12411700D01*
X13216900Y12419300D01*
X13552200Y12419300D01*
X13552200Y12411700D01*
G37*
G36*
X13552200Y12929900D02*
G01*
X13049200Y12929900D01*
X13049200Y12937500D01*
X13552200Y12937500D01*
X13552200Y12929900D01*
G37*
G36*
X13552200Y13082300D02*
G01*
X12721600Y13082300D01*
X12721600Y13089900D01*
X13552200Y13089900D01*
X13552200Y13082300D01*
G37*
G36*
X13552200Y14659600D02*
G01*
X12553900Y14659600D01*
X12553900Y14667200D01*
X13552200Y14667200D01*
X13552200Y14659600D01*
G37*
G36*
X13552200Y14667200D02*
G01*
X12561600Y14667200D01*
X12561600Y14674900D01*
X13552200Y14674900D01*
X13552200Y14667200D01*
G37*
G36*
X13544500Y12419300D02*
G01*
X13216900Y12419300D01*
X13216900Y12427000D01*
X13544500Y12427000D01*
X13544500Y12419300D01*
G37*
G36*
X13544500Y13067000D02*
G01*
X12805400Y13067000D01*
X12805400Y13074700D01*
X13544500Y13074700D01*
X13544500Y13067000D01*
G37*
G36*
X13544500Y13074700D02*
G01*
X12767300Y13074700D01*
X12767300Y13082300D01*
X13544500Y13082300D01*
X13544500Y13074700D01*
G37*
G36*
X13544500Y14674900D02*
G01*
X12561600Y14674900D01*
X12561600Y14682500D01*
X13544500Y14682500D01*
X13544500Y14674900D01*
G37*
G36*
X13536900Y12427000D02*
G01*
X13216900Y12427000D01*
X13216900Y12434600D01*
X13536900Y12434600D01*
X13536900Y12427000D01*
G37*
G36*
X13536900Y12434600D02*
G01*
X13216900Y12434600D01*
X13216900Y12442200D01*
X13536900Y12442200D01*
X13536900Y12434600D01*
G37*
G36*
X13536900Y12937500D02*
G01*
X13049200Y12937500D01*
X13049200Y12945100D01*
X13536900Y12945100D01*
X13536900Y12937500D01*
G37*
G36*
X13536900Y13059400D02*
G01*
X12835900Y13059400D01*
X12835900Y13067000D01*
X13536900Y13067000D01*
X13536900Y13059400D01*
G37*
G36*
X13536900Y14682500D02*
G01*
X12561600Y14682500D01*
X12561600Y14690100D01*
X13536900Y14690100D01*
X13536900Y14682500D01*
G37*
G36*
X13529300Y12442200D02*
G01*
X13224500Y12442200D01*
X13224500Y12449800D01*
X13529300Y12449800D01*
X13529300Y12442200D01*
G37*
G36*
X13529300Y12945100D02*
G01*
X13041600Y12945100D01*
X13041600Y12952700D01*
X13529300Y12952700D01*
X13529300Y12945100D01*
G37*
G36*
X13529300Y13044200D02*
G01*
X12881600Y13044200D01*
X12881600Y13051800D01*
X13529300Y13051800D01*
X13529300Y13044200D01*
G37*
G36*
X13529300Y13051800D02*
G01*
X12858700Y13051800D01*
X12858700Y13059400D01*
X13529300Y13059400D01*
X13529300Y13051800D01*
G37*
G36*
X13529300Y14690100D02*
G01*
X12569200Y14690100D01*
X12569200Y14697700D01*
X13529300Y14697700D01*
X13529300Y14690100D01*
G37*
G36*
X13529300Y14697700D02*
G01*
X12569200Y14697700D01*
X12569200Y14705300D01*
X13529300Y14705300D01*
X13529300Y14697700D01*
G37*
G36*
X13521700Y12449800D02*
G01*
X13224500Y12449800D01*
X13224500Y12457400D01*
X13521700Y12457400D01*
X13521700Y12449800D01*
G37*
G36*
X13521700Y12457400D02*
G01*
X13224500Y12457400D01*
X13224500Y12465100D01*
X13521700Y12465100D01*
X13521700Y12457400D01*
G37*
G36*
X13521700Y12952700D02*
G01*
X13034000Y12952700D01*
X13034000Y12960400D01*
X13521700Y12960400D01*
X13521700Y12952700D01*
G37*
G36*
X13521700Y12960400D02*
G01*
X13026400Y12960400D01*
X13026400Y12968000D01*
X13521700Y12968000D01*
X13521700Y12960400D01*
G37*
G36*
X13521700Y13028900D02*
G01*
X12919700Y13028900D01*
X12919700Y13036600D01*
X13521700Y13036600D01*
X13521700Y13028900D01*
G37*
G36*
X13521700Y13036600D02*
G01*
X12904500Y13036600D01*
X12904500Y13044200D01*
X13521700Y13044200D01*
X13521700Y13036600D01*
G37*
G36*
X13521700Y14705300D02*
G01*
X12569200Y14705300D01*
X12569200Y14713000D01*
X13521700Y14713000D01*
X13521700Y14705300D01*
G37*
G36*
X13514100Y12465100D02*
G01*
X13224500Y12465100D01*
X13224500Y12472700D01*
X13514100Y12472700D01*
X13514100Y12465100D01*
G37*
G36*
X13514100Y12968000D02*
G01*
X13018800Y12968000D01*
X13018800Y12975600D01*
X13514100Y12975600D01*
X13514100Y12968000D01*
G37*
G36*
X13514100Y12975600D02*
G01*
X13011100Y12975600D01*
X13011100Y12983200D01*
X13514100Y12983200D01*
X13514100Y12975600D01*
G37*
G36*
X13514100Y12983200D02*
G01*
X13003500Y12983200D01*
X13003500Y12990800D01*
X13514100Y12990800D01*
X13514100Y12983200D01*
G37*
G36*
X13514100Y12990800D02*
G01*
X12988300Y12990800D01*
X12988300Y12998500D01*
X13514100Y12998500D01*
X13514100Y12990800D01*
G37*
G36*
X13514100Y12998500D02*
G01*
X12980700Y12998500D01*
X12980700Y13006100D01*
X13514100Y13006100D01*
X13514100Y12998500D01*
G37*
G36*
X13514100Y13006100D02*
G01*
X12965400Y13006100D01*
X12965400Y13013700D01*
X13514100Y13013700D01*
X13514100Y13006100D01*
G37*
G36*
X13514100Y13013700D02*
G01*
X12950200Y13013700D01*
X12950200Y13021300D01*
X13514100Y13021300D01*
X13514100Y13013700D01*
G37*
G36*
X13514100Y13021300D02*
G01*
X12934900Y13021300D01*
X12934900Y13028900D01*
X13514100Y13028900D01*
X13514100Y13021300D01*
G37*
G36*
X13514100Y14713000D02*
G01*
X12569200Y14713000D01*
X12569200Y14720600D01*
X13514100Y14720600D01*
X13514100Y14713000D01*
G37*
G36*
X13514100Y14720600D02*
G01*
X12576800Y14720600D01*
X12576800Y14728200D01*
X13514100Y14728200D01*
X13514100Y14720600D01*
G37*
G36*
X13506400Y12472700D02*
G01*
X13224500Y12472700D01*
X13224500Y12480300D01*
X13506400Y12480300D01*
X13506400Y12472700D01*
G37*
G36*
X13506400Y12480300D02*
G01*
X13224500Y12480300D01*
X13224500Y12487900D01*
X13506400Y12487900D01*
X13506400Y12480300D01*
G37*
G36*
X13506400Y14728200D02*
G01*
X12576800Y14728200D01*
X12576800Y14735800D01*
X13506400Y14735800D01*
X13506400Y14728200D01*
G37*
G36*
X13498800Y12487900D02*
G01*
X13232100Y12487900D01*
X13232100Y12495500D01*
X13498800Y12495500D01*
X13498800Y12487900D01*
G37*
G36*
X13498800Y12495500D02*
G01*
X13232100Y12495500D01*
X13232100Y12503200D01*
X13498800Y12503200D01*
X13498800Y12495500D01*
G37*
G36*
X13498800Y12693700D02*
G01*
X11357600Y12693700D01*
X11357600Y12701300D01*
X13498800Y12701300D01*
X13498800Y12693700D01*
G37*
G36*
X13498800Y14735800D02*
G01*
X12576800Y14735800D01*
X12576800Y14743400D01*
X13498800Y14743400D01*
X13498800Y14735800D01*
G37*
G36*
X13491200Y12503200D02*
G01*
X13232100Y12503200D01*
X13232100Y12510800D01*
X13491200Y12510800D01*
X13491200Y12503200D01*
G37*
G36*
X13491200Y12510800D02*
G01*
X13232100Y12510800D01*
X13232100Y12518400D01*
X13491200Y12518400D01*
X13491200Y12510800D01*
G37*
G36*
X13491200Y14743400D02*
G01*
X12584400Y14743400D01*
X12584400Y14751100D01*
X13491200Y14751100D01*
X13491200Y14743400D01*
G37*
G36*
X13491200Y14751100D02*
G01*
X12584400Y14751100D01*
X12584400Y14758700D01*
X13491200Y14758700D01*
X13491200Y14751100D01*
G37*
G36*
X13483600Y12518400D02*
G01*
X13232100Y12518400D01*
X13232100Y12526000D01*
X13483600Y12526000D01*
X13483600Y12518400D01*
G37*
G36*
X13483600Y12526000D02*
G01*
X13232100Y12526000D01*
X13232100Y12533600D01*
X13483600Y12533600D01*
X13483600Y12526000D01*
G37*
G36*
X13483600Y12686000D02*
G01*
X11372800Y12686000D01*
X11372800Y12693700D01*
X13483600Y12693700D01*
X13483600Y12686000D01*
G37*
G36*
X13483600Y14758700D02*
G01*
X12584400Y14758700D01*
X12584400Y14766300D01*
X13483600Y14766300D01*
X13483600Y14758700D01*
G37*
G36*
X13476000Y12533600D02*
G01*
X13232100Y12533600D01*
X13232100Y12541300D01*
X13476000Y12541300D01*
X13476000Y12533600D01*
G37*
G36*
X13476000Y12541300D02*
G01*
X13232100Y12541300D01*
X13232100Y12548900D01*
X13476000Y12548900D01*
X13476000Y12541300D01*
G37*
G36*
X13476000Y12678400D02*
G01*
X11380500Y12678400D01*
X11380500Y12686000D01*
X13476000Y12686000D01*
X13476000Y12678400D01*
G37*
G36*
X13476000Y14766300D02*
G01*
X12592000Y14766300D01*
X12592000Y14773900D01*
X13476000Y14773900D01*
X13476000Y14766300D01*
G37*
G36*
X13476000Y14773900D02*
G01*
X12592000Y14773900D01*
X12592000Y14781500D01*
X13476000Y14781500D01*
X13476000Y14773900D01*
G37*
G36*
X13468300Y12548900D02*
G01*
X13232100Y12548900D01*
X13232100Y12556500D01*
X13468300Y12556500D01*
X13468300Y12548900D01*
G37*
G36*
X13468300Y12556500D02*
G01*
X13232100Y12556500D01*
X13232100Y12564100D01*
X13468300Y12564100D01*
X13468300Y12556500D01*
G37*
G36*
X13468300Y12670800D02*
G01*
X11395700Y12670800D01*
X11395700Y12678400D01*
X13468300Y12678400D01*
X13468300Y12670800D01*
G37*
G36*
X13468300Y14781500D02*
G01*
X12592000Y14781500D01*
X12592000Y14789200D01*
X13468300Y14789200D01*
X13468300Y14781500D01*
G37*
G36*
X13460700Y12564100D02*
G01*
X13232100Y12564100D01*
X13232100Y12571700D01*
X13460700Y12571700D01*
X13460700Y12564100D01*
G37*
G36*
X13460700Y12571700D02*
G01*
X13224500Y12571700D01*
X13224500Y12579400D01*
X13460700Y12579400D01*
X13460700Y12571700D01*
G37*
G36*
X13460700Y12579400D02*
G01*
X13224500Y12579400D01*
X13224500Y12587000D01*
X13460700Y12587000D01*
X13460700Y12579400D01*
G37*
G36*
X13460700Y12587000D02*
G01*
X13224500Y12587000D01*
X13224500Y12594600D01*
X13460700Y12594600D01*
X13460700Y12587000D01*
G37*
G36*
X13460700Y12655600D02*
G01*
X11410900Y12655600D01*
X11410900Y12663200D01*
X13460700Y12663200D01*
X13460700Y12655600D01*
G37*
G36*
X13460700Y12663200D02*
G01*
X11403300Y12663200D01*
X11403300Y12670800D01*
X13460700Y12670800D01*
X13460700Y12663200D01*
G37*
G36*
X13460700Y14789200D02*
G01*
X12599700Y14789200D01*
X12599700Y14796800D01*
X13460700Y14796800D01*
X13460700Y14789200D01*
G37*
G36*
X13453100Y12594600D02*
G01*
X13224500Y12594600D01*
X13224500Y12602200D01*
X13453100Y12602200D01*
X13453100Y12594600D01*
G37*
G36*
X13453100Y12602200D02*
G01*
X13216900Y12602200D01*
X13216900Y12609800D01*
X13453100Y12609800D01*
X13453100Y12602200D01*
G37*
G36*
X13453100Y12609800D02*
G01*
X13216900Y12609800D01*
X13216900Y12617500D01*
X13453100Y12617500D01*
X13453100Y12609800D01*
G37*
G36*
X13453100Y12617500D02*
G01*
X13209300Y12617500D01*
X13209300Y12625100D01*
X13453100Y12625100D01*
X13453100Y12617500D01*
G37*
G36*
X13453100Y12625100D02*
G01*
X13201600Y12625100D01*
X13201600Y12632700D01*
X13453100Y12632700D01*
X13453100Y12625100D01*
G37*
G36*
X13453100Y12632700D02*
G01*
X13186400Y12632700D01*
X13186400Y12640300D01*
X13453100Y12640300D01*
X13453100Y12632700D01*
G37*
G36*
X13453100Y12640300D02*
G01*
X11433800Y12640300D01*
X11433800Y12647900D01*
X13453100Y12647900D01*
X13453100Y12640300D01*
G37*
G36*
X13453100Y12647900D02*
G01*
X11426200Y12647900D01*
X11426200Y12655600D01*
X13453100Y12655600D01*
X13453100Y12647900D01*
G37*
G36*
X13453100Y14796800D02*
G01*
X12599700Y14796800D01*
X12599700Y14804400D01*
X13453100Y14804400D01*
X13453100Y14796800D01*
G37*
G36*
X13453100Y14804400D02*
G01*
X12599700Y14804400D01*
X12599700Y14812000D01*
X13453100Y14812000D01*
X13453100Y14804400D01*
G37*
G36*
X13445500Y11703100D02*
G01*
X12035800Y11703100D01*
X12035800Y11710700D01*
X13445500Y11710700D01*
X13445500Y11703100D01*
G37*
G36*
X13445500Y11710700D02*
G01*
X12035800Y11710700D01*
X12035800Y11718300D01*
X13445500Y11718300D01*
X13445500Y11710700D01*
G37*
G36*
X13445500Y11718300D02*
G01*
X12035800Y11718300D01*
X12035800Y11725900D01*
X13445500Y11725900D01*
X13445500Y11718300D01*
G37*
G36*
X13445500Y11725900D02*
G01*
X12035800Y11725900D01*
X12035800Y11733500D01*
X13445500Y11733500D01*
X13445500Y11725900D01*
G37*
G36*
X13445500Y11733500D02*
G01*
X12035800Y11733500D01*
X12035800Y11741200D01*
X13445500Y11741200D01*
X13445500Y11733500D01*
G37*
G36*
X13445500Y11741200D02*
G01*
X12035800Y11741200D01*
X12035800Y11748800D01*
X13445500Y11748800D01*
X13445500Y11741200D01*
G37*
G36*
X13445500Y11748800D02*
G01*
X12035800Y11748800D01*
X12035800Y11756400D01*
X13445500Y11756400D01*
X13445500Y11748800D01*
G37*
G36*
X13445500Y11756400D02*
G01*
X12043400Y11756400D01*
X12043400Y11764000D01*
X13445500Y11764000D01*
X13445500Y11756400D01*
G37*
G36*
X13445500Y11764000D02*
G01*
X12043400Y11764000D01*
X12043400Y11771600D01*
X13445500Y11771600D01*
X13445500Y11764000D01*
G37*
G36*
X13445500Y11771600D02*
G01*
X12043400Y11771600D01*
X12043400Y11779300D01*
X13445500Y11779300D01*
X13445500Y11771600D01*
G37*
G36*
X13445500Y11779300D02*
G01*
X12043400Y11779300D01*
X12043400Y11786900D01*
X13445500Y11786900D01*
X13445500Y11779300D01*
G37*
G36*
X13445500Y11786900D02*
G01*
X12043400Y11786900D01*
X12043400Y11794500D01*
X13445500Y11794500D01*
X13445500Y11786900D01*
G37*
G36*
X13445500Y11794500D02*
G01*
X12043400Y11794500D01*
X12043400Y11802100D01*
X13445500Y11802100D01*
X13445500Y11794500D01*
G37*
G36*
X13445500Y11802100D02*
G01*
X12043400Y11802100D01*
X12043400Y11809700D01*
X13445500Y11809700D01*
X13445500Y11802100D01*
G37*
G36*
X13445500Y11809700D02*
G01*
X12051000Y11809700D01*
X12051000Y11817400D01*
X13445500Y11817400D01*
X13445500Y11809700D01*
G37*
G36*
X13445500Y11817400D02*
G01*
X12051000Y11817400D01*
X12051000Y11825000D01*
X13445500Y11825000D01*
X13445500Y11817400D01*
G37*
G36*
X13445500Y11825000D02*
G01*
X12051000Y11825000D01*
X12051000Y11832600D01*
X13445500Y11832600D01*
X13445500Y11825000D01*
G37*
G36*
X13445500Y11832600D02*
G01*
X12051000Y11832600D01*
X12051000Y11840200D01*
X13445500Y11840200D01*
X13445500Y11832600D01*
G37*
G36*
X13445500Y11840200D02*
G01*
X12051000Y11840200D01*
X12051000Y11847800D01*
X13445500Y11847800D01*
X13445500Y11840200D01*
G37*
G36*
X13445500Y11847800D02*
G01*
X12058600Y11847800D01*
X12058600Y11855500D01*
X13445500Y11855500D01*
X13445500Y11847800D01*
G37*
G36*
X13445500Y11855500D02*
G01*
X12058600Y11855500D01*
X12058600Y11863100D01*
X13445500Y11863100D01*
X13445500Y11855500D01*
G37*
G36*
X13445500Y11863100D02*
G01*
X12058600Y11863100D01*
X12058600Y11870700D01*
X13445500Y11870700D01*
X13445500Y11863100D01*
G37*
G36*
X13445500Y11870700D02*
G01*
X12058600Y11870700D01*
X12058600Y11878300D01*
X13445500Y11878300D01*
X13445500Y11870700D01*
G37*
G36*
X13445500Y11878300D02*
G01*
X12066300Y11878300D01*
X12066300Y11885900D01*
X13445500Y11885900D01*
X13445500Y11878300D01*
G37*
G36*
X13445500Y11885900D02*
G01*
X12066300Y11885900D01*
X12066300Y11893600D01*
X13445500Y11893600D01*
X13445500Y11885900D01*
G37*
G36*
X13445500Y11893600D02*
G01*
X12066300Y11893600D01*
X12066300Y11901200D01*
X13445500Y11901200D01*
X13445500Y11893600D01*
G37*
G36*
X13445500Y11901200D02*
G01*
X12066300Y11901200D01*
X12066300Y11908800D01*
X13445500Y11908800D01*
X13445500Y11901200D01*
G37*
G36*
X13445500Y11908800D02*
G01*
X12073900Y11908800D01*
X12073900Y11916400D01*
X13445500Y11916400D01*
X13445500Y11908800D01*
G37*
G36*
X13445500Y11916400D02*
G01*
X12073900Y11916400D01*
X12073900Y11924000D01*
X13445500Y11924000D01*
X13445500Y11916400D01*
G37*
G36*
X13445500Y14812000D02*
G01*
X12607300Y14812000D01*
X12607300Y14819600D01*
X13445500Y14819600D01*
X13445500Y14812000D01*
G37*
G36*
X13437900Y11657300D02*
G01*
X12028200Y11657300D01*
X12028200Y11665000D01*
X13437900Y11665000D01*
X13437900Y11657300D01*
G37*
G36*
X13437900Y11665000D02*
G01*
X12035800Y11665000D01*
X12035800Y11672600D01*
X13437900Y11672600D01*
X13437900Y11665000D01*
G37*
G36*
X13437900Y11672600D02*
G01*
X12035800Y11672600D01*
X12035800Y11680200D01*
X13437900Y11680200D01*
X13437900Y11672600D01*
G37*
G36*
X13437900Y11680200D02*
G01*
X12035800Y11680200D01*
X12035800Y11687800D01*
X13437900Y11687800D01*
X13437900Y11680200D01*
G37*
G36*
X13437900Y11687800D02*
G01*
X12035800Y11687800D01*
X12035800Y11695400D01*
X13437900Y11695400D01*
X13437900Y11687800D01*
G37*
G36*
X13437900Y11695400D02*
G01*
X12035800Y11695400D01*
X12035800Y11703100D01*
X13437900Y11703100D01*
X13437900Y11695400D01*
G37*
G36*
X13437900Y14819600D02*
G01*
X12607300Y14819600D01*
X12607300Y14827300D01*
X13437900Y14827300D01*
X13437900Y14819600D01*
G37*
G36*
X13437900Y14827300D02*
G01*
X12607300Y14827300D01*
X12607300Y14834900D01*
X13437900Y14834900D01*
X13437900Y14827300D01*
G37*
G36*
X13430200Y11626900D02*
G01*
X12028200Y11626900D01*
X12028200Y11634500D01*
X13430200Y11634500D01*
X13430200Y11626900D01*
G37*
G36*
X13430200Y11634500D02*
G01*
X12028200Y11634500D01*
X12028200Y11642100D01*
X13430200Y11642100D01*
X13430200Y11634500D01*
G37*
G36*
X13430200Y11642100D02*
G01*
X12028200Y11642100D01*
X12028200Y11649700D01*
X13430200Y11649700D01*
X13430200Y11642100D01*
G37*
G36*
X13430200Y11649700D02*
G01*
X12028200Y11649700D01*
X12028200Y11657300D01*
X13430200Y11657300D01*
X13430200Y11649700D01*
G37*
G36*
X13430200Y14834900D02*
G01*
X12614900Y14834900D01*
X12614900Y14842500D01*
X13430200Y14842500D01*
X13430200Y14834900D01*
G37*
G36*
X13422600Y11604000D02*
G01*
X12028200Y11604000D01*
X12028200Y11611600D01*
X13422600Y11611600D01*
X13422600Y11604000D01*
G37*
G36*
X13422600Y11611600D02*
G01*
X12028200Y11611600D01*
X12028200Y11619200D01*
X13422600Y11619200D01*
X13422600Y11611600D01*
G37*
G36*
X13422600Y11619200D02*
G01*
X12028200Y11619200D01*
X12028200Y11626900D01*
X13422600Y11626900D01*
X13422600Y11619200D01*
G37*
G36*
X13422600Y14842500D02*
G01*
X12614900Y14842500D01*
X12614900Y14850100D01*
X13422600Y14850100D01*
X13422600Y14842500D01*
G37*
G36*
X13415000Y11573500D02*
G01*
X12028200Y11573500D01*
X12028200Y11581100D01*
X13415000Y11581100D01*
X13415000Y11573500D01*
G37*
G36*
X13415000Y11581100D02*
G01*
X12028200Y11581100D01*
X12028200Y11588800D01*
X13415000Y11588800D01*
X13415000Y11581100D01*
G37*
G36*
X13415000Y11588800D02*
G01*
X12028200Y11588800D01*
X12028200Y11596400D01*
X13415000Y11596400D01*
X13415000Y11588800D01*
G37*
G36*
X13415000Y11596400D02*
G01*
X12028200Y11596400D01*
X12028200Y11604000D01*
X13415000Y11604000D01*
X13415000Y11596400D01*
G37*
G36*
X13415000Y14850100D02*
G01*
X12614900Y14850100D01*
X12614900Y14857700D01*
X13415000Y14857700D01*
X13415000Y14850100D01*
G37*
G36*
X13415000Y14857700D02*
G01*
X12622500Y14857700D01*
X12622500Y14865400D01*
X13415000Y14865400D01*
X13415000Y14857700D01*
G37*
G36*
X13407400Y11558300D02*
G01*
X12028200Y11558300D01*
X12028200Y11565900D01*
X13407400Y11565900D01*
X13407400Y11558300D01*
G37*
G36*
X13407400Y11565900D02*
G01*
X12028200Y11565900D01*
X12028200Y11573500D01*
X13407400Y11573500D01*
X13407400Y11565900D01*
G37*
G36*
X13407400Y14865400D02*
G01*
X12622500Y14865400D01*
X12622500Y14873000D01*
X13407400Y14873000D01*
X13407400Y14865400D01*
G37*
G36*
X13399800Y11535400D02*
G01*
X12028200Y11535400D01*
X12028200Y11543000D01*
X13399800Y11543000D01*
X13399800Y11535400D01*
G37*
G36*
X13399800Y11543000D02*
G01*
X12028200Y11543000D01*
X12028200Y11550700D01*
X13399800Y11550700D01*
X13399800Y11543000D01*
G37*
G36*
X13399800Y11550700D02*
G01*
X12028200Y11550700D01*
X12028200Y11558300D01*
X13399800Y11558300D01*
X13399800Y11550700D01*
G37*
G36*
X13399800Y14873000D02*
G01*
X12622500Y14873000D01*
X12622500Y14880600D01*
X13399800Y14880600D01*
X13399800Y14873000D01*
G37*
G36*
X13392100Y11520200D02*
G01*
X12028200Y11520200D01*
X12028200Y11527800D01*
X13392100Y11527800D01*
X13392100Y11520200D01*
G37*
G36*
X13392100Y11527800D02*
G01*
X12028200Y11527800D01*
X12028200Y11535400D01*
X13392100Y11535400D01*
X13392100Y11527800D01*
G37*
G36*
X13392100Y14880600D02*
G01*
X12630100Y14880600D01*
X12630100Y14888200D01*
X13392100Y14888200D01*
X13392100Y14880600D01*
G37*
G36*
X13392100Y14888200D02*
G01*
X12630100Y14888200D01*
X12630100Y14895800D01*
X13392100Y14895800D01*
X13392100Y14888200D01*
G37*
G36*
X13384500Y11497300D02*
G01*
X12028200Y11497300D01*
X12028200Y11504900D01*
X13384500Y11504900D01*
X13384500Y11497300D01*
G37*
G36*
X13384500Y11504900D02*
G01*
X12028200Y11504900D01*
X12028200Y11512600D01*
X13384500Y11512600D01*
X13384500Y11504900D01*
G37*
G36*
X13384500Y11512600D02*
G01*
X12028200Y11512600D01*
X12028200Y11520200D01*
X13384500Y11520200D01*
X13384500Y11512600D01*
G37*
G36*
X13384500Y14895800D02*
G01*
X12630100Y14895800D01*
X12630100Y14903500D01*
X13384500Y14903500D01*
X13384500Y14895800D01*
G37*
G36*
X13376900Y11482100D02*
G01*
X12028200Y11482100D01*
X12028200Y11489700D01*
X13376900Y11489700D01*
X13376900Y11482100D01*
G37*
G36*
X13376900Y11489700D02*
G01*
X12028200Y11489700D01*
X12028200Y11497300D01*
X13376900Y11497300D01*
X13376900Y11489700D01*
G37*
G36*
X13376900Y14903500D02*
G01*
X12630100Y14903500D01*
X12630100Y14911100D01*
X13376900Y14911100D01*
X13376900Y14903500D01*
G37*
G36*
X13376900Y14911100D02*
G01*
X12637800Y14911100D01*
X12637800Y14918700D01*
X13376900Y14918700D01*
X13376900Y14911100D01*
G37*
G36*
X13369300Y11466800D02*
G01*
X12028200Y11466800D01*
X12028200Y11474500D01*
X13369300Y11474500D01*
X13369300Y11466800D01*
G37*
G36*
X13369300Y11474500D02*
G01*
X12028200Y11474500D01*
X12028200Y11482100D01*
X13369300Y11482100D01*
X13369300Y11474500D01*
G37*
G36*
X13369300Y14918700D02*
G01*
X12637800Y14918700D01*
X12637800Y14926300D01*
X13369300Y14926300D01*
X13369300Y14918700D01*
G37*
G36*
X13361700Y11451600D02*
G01*
X12028200Y11451600D01*
X12028200Y11459200D01*
X13361700Y11459200D01*
X13361700Y11451600D01*
G37*
G36*
X13361700Y11459200D02*
G01*
X12028200Y11459200D01*
X12028200Y11466800D01*
X13361700Y11466800D01*
X13361700Y11459200D01*
G37*
G36*
X13361700Y14926300D02*
G01*
X12637800Y14926300D01*
X12637800Y14933900D01*
X13361700Y14933900D01*
X13361700Y14926300D01*
G37*
G36*
X13354000Y11436400D02*
G01*
X12028200Y11436400D01*
X12028200Y11444000D01*
X13354000Y11444000D01*
X13354000Y11436400D01*
G37*
G36*
X13354000Y11444000D02*
G01*
X12028200Y11444000D01*
X12028200Y11451600D01*
X13354000Y11451600D01*
X13354000Y11444000D01*
G37*
G36*
X13354000Y14933900D02*
G01*
X12645400Y14933900D01*
X12645400Y14941600D01*
X13354000Y14941600D01*
X13354000Y14933900D01*
G37*
G36*
X13354000Y14941600D02*
G01*
X12645400Y14941600D01*
X12645400Y14949200D01*
X13354000Y14949200D01*
X13354000Y14941600D01*
G37*
G36*
X13346400Y11428700D02*
G01*
X12028200Y11428700D01*
X12028200Y11436400D01*
X13346400Y11436400D01*
X13346400Y11428700D01*
G37*
G36*
X13346400Y14949200D02*
G01*
X12645400Y14949200D01*
X12645400Y14956800D01*
X13346400Y14956800D01*
X13346400Y14949200D01*
G37*
G36*
X13338800Y11413500D02*
G01*
X12028200Y11413500D01*
X12028200Y11421100D01*
X13338800Y11421100D01*
X13338800Y11413500D01*
G37*
G36*
X13338800Y11421100D02*
G01*
X12028200Y11421100D01*
X12028200Y11428700D01*
X13338800Y11428700D01*
X13338800Y11421100D01*
G37*
G36*
X13338800Y14956800D02*
G01*
X12653000Y14956800D01*
X12653000Y14964400D01*
X13338800Y14964400D01*
X13338800Y14956800D01*
G37*
G36*
X13338800Y14964400D02*
G01*
X12653000Y14964400D01*
X12653000Y14972000D01*
X13338800Y14972000D01*
X13338800Y14964400D01*
G37*
G36*
X13331200Y11398300D02*
G01*
X12028200Y11398300D01*
X12028200Y11405900D01*
X13331200Y11405900D01*
X13331200Y11398300D01*
G37*
G36*
X13331200Y11405900D02*
G01*
X12028200Y11405900D01*
X12028200Y11413500D01*
X13331200Y11413500D01*
X13331200Y11405900D01*
G37*
G36*
X13331200Y14972000D02*
G01*
X12653000Y14972000D01*
X12653000Y14979700D01*
X13331200Y14979700D01*
X13331200Y14972000D01*
G37*
G36*
X13323600Y11390600D02*
G01*
X12028200Y11390600D01*
X12028200Y11398300D01*
X13323600Y11398300D01*
X13323600Y11390600D01*
G37*
G36*
X13323600Y14979700D02*
G01*
X12660600Y14979700D01*
X12660600Y14987300D01*
X13323600Y14987300D01*
X13323600Y14979700D01*
G37*
G36*
X13315900Y11375400D02*
G01*
X12028200Y11375400D01*
X12028200Y11383000D01*
X13315900Y11383000D01*
X13315900Y11375400D01*
G37*
G36*
X13315900Y11383000D02*
G01*
X12028200Y11383000D01*
X12028200Y11390600D01*
X13315900Y11390600D01*
X13315900Y11383000D01*
G37*
G36*
X13315900Y14987300D02*
G01*
X12660600Y14987300D01*
X12660600Y14994900D01*
X13315900Y14994900D01*
X13315900Y14987300D01*
G37*
G36*
X13315900Y14994900D02*
G01*
X12660600Y14994900D01*
X12660600Y15002500D01*
X13315900Y15002500D01*
X13315900Y14994900D01*
G37*
G36*
X13308300Y11367800D02*
G01*
X12028200Y11367800D01*
X12028200Y11375400D01*
X13308300Y11375400D01*
X13308300Y11367800D01*
G37*
G36*
X13308300Y15002500D02*
G01*
X12668200Y15002500D01*
X12668200Y15010100D01*
X13308300Y15010100D01*
X13308300Y15002500D01*
G37*
G36*
X13300700Y11360200D02*
G01*
X12028200Y11360200D01*
X12028200Y11367800D01*
X13300700Y11367800D01*
X13300700Y11360200D01*
G37*
G36*
X13300700Y15010100D02*
G01*
X12668200Y15010100D01*
X12668200Y15017800D01*
X13300700Y15017800D01*
X13300700Y15010100D01*
G37*
G36*
X13300700Y15017800D02*
G01*
X12668200Y15017800D01*
X12668200Y15025400D01*
X13300700Y15025400D01*
X13300700Y15017800D01*
G37*
G36*
X13293100Y11344900D02*
G01*
X12028200Y11344900D01*
X12028200Y11352500D01*
X13293100Y11352500D01*
X13293100Y11344900D01*
G37*
G36*
X13293100Y11352500D02*
G01*
X12028200Y11352500D01*
X12028200Y11360200D01*
X13293100Y11360200D01*
X13293100Y11352500D01*
G37*
G36*
X13293100Y15025400D02*
G01*
X12675900Y15025400D01*
X12675900Y15033000D01*
X13293100Y15033000D01*
X13293100Y15025400D01*
G37*
G36*
X13285500Y11337300D02*
G01*
X12028200Y11337300D01*
X12028200Y11344900D01*
X13285500Y11344900D01*
X13285500Y11337300D01*
G37*
G36*
X13285500Y15033000D02*
G01*
X12675900Y15033000D01*
X12675900Y15040600D01*
X13285500Y15040600D01*
X13285500Y15033000D01*
G37*
G36*
X13277800Y11329700D02*
G01*
X12028200Y11329700D01*
X12028200Y11337300D01*
X13277800Y11337300D01*
X13277800Y11329700D01*
G37*
G36*
X13277800Y15040600D02*
G01*
X12675900Y15040600D01*
X12675900Y15048200D01*
X13277800Y15048200D01*
X13277800Y15040600D01*
G37*
G36*
X13277800Y15048200D02*
G01*
X12683500Y15048200D01*
X12683500Y15055900D01*
X13277800Y15055900D01*
X13277800Y15048200D01*
G37*
G36*
X13270200Y11314400D02*
G01*
X12028200Y11314400D01*
X12028200Y11322100D01*
X13270200Y11322100D01*
X13270200Y11314400D01*
G37*
G36*
X13270200Y11322100D02*
G01*
X12028200Y11322100D01*
X12028200Y11329700D01*
X13270200Y11329700D01*
X13270200Y11322100D01*
G37*
G36*
X13270200Y15055900D02*
G01*
X12683500Y15055900D01*
X12683500Y15063500D01*
X13270200Y15063500D01*
X13270200Y15055900D01*
G37*
G36*
X13262600Y11306800D02*
G01*
X12028200Y11306800D01*
X12028200Y11314400D01*
X13262600Y11314400D01*
X13262600Y11306800D01*
G37*
G36*
X13262600Y15063500D02*
G01*
X12683500Y15063500D01*
X12683500Y15071100D01*
X13262600Y15071100D01*
X13262600Y15063500D01*
G37*
G36*
X13262600Y15071100D02*
G01*
X12691100Y15071100D01*
X12691100Y15078700D01*
X13262600Y15078700D01*
X13262600Y15071100D01*
G37*
G36*
X13255000Y11299200D02*
G01*
X12028200Y11299200D01*
X12028200Y11306800D01*
X13255000Y11306800D01*
X13255000Y11299200D01*
G37*
G36*
X13255000Y15078700D02*
G01*
X12691100Y15078700D01*
X12691100Y15086300D01*
X13255000Y15086300D01*
X13255000Y15078700D01*
G37*
G36*
X13247400Y11291600D02*
G01*
X12028200Y11291600D01*
X12028200Y11299200D01*
X13247400Y11299200D01*
X13247400Y11291600D01*
G37*
G36*
X13247400Y15086300D02*
G01*
X12691100Y15086300D01*
X12691100Y15094000D01*
X13247400Y15094000D01*
X13247400Y15086300D01*
G37*
G36*
X13239700Y11276300D02*
G01*
X12028200Y11276300D01*
X12028200Y11284000D01*
X13239700Y11284000D01*
X13239700Y11276300D01*
G37*
G36*
X13239700Y11284000D02*
G01*
X12028200Y11284000D01*
X12028200Y11291600D01*
X13239700Y11291600D01*
X13239700Y11284000D01*
G37*
G36*
X13239700Y15094000D02*
G01*
X12698700Y15094000D01*
X12698700Y15101600D01*
X13239700Y15101600D01*
X13239700Y15094000D01*
G37*
G36*
X13239700Y15101600D02*
G01*
X12698700Y15101600D01*
X12698700Y15109200D01*
X13239700Y15109200D01*
X13239700Y15101600D01*
G37*
G36*
X13232100Y11268700D02*
G01*
X12028200Y11268700D01*
X12028200Y11276300D01*
X13232100Y11276300D01*
X13232100Y11268700D01*
G37*
G36*
X13232100Y15109200D02*
G01*
X12698700Y15109200D01*
X12698700Y15116800D01*
X13232100Y15116800D01*
X13232100Y15109200D01*
G37*
G36*
X13224500Y11261100D02*
G01*
X12028200Y11261100D01*
X12028200Y11268700D01*
X13224500Y11268700D01*
X13224500Y11261100D01*
G37*
G36*
X13224500Y13097500D02*
G01*
X10809000Y13097500D01*
X10809000Y13105100D01*
X13224500Y13105100D01*
X13224500Y13097500D01*
G37*
G36*
X13224500Y15116800D02*
G01*
X12698700Y15116800D01*
X12698700Y15124400D01*
X13224500Y15124400D01*
X13224500Y15116800D01*
G37*
G36*
X13224500Y15124400D02*
G01*
X12706300Y15124400D01*
X12706300Y15132100D01*
X13224500Y15132100D01*
X13224500Y15124400D01*
G37*
G36*
X13216900Y11253500D02*
G01*
X12028200Y11253500D01*
X12028200Y11261100D01*
X13216900Y11261100D01*
X13216900Y11253500D01*
G37*
G36*
X13216900Y15132100D02*
G01*
X12706300Y15132100D01*
X12706300Y15139700D01*
X13216900Y15139700D01*
X13216900Y15132100D01*
G37*
G36*
X13209300Y11245900D02*
G01*
X12028200Y11245900D01*
X12028200Y11253500D01*
X13209300Y11253500D01*
X13209300Y11245900D01*
G37*
G36*
X13209300Y13105100D02*
G01*
X10801300Y13105100D01*
X10801300Y13112800D01*
X13209300Y13112800D01*
X13209300Y13105100D01*
G37*
G36*
X13209300Y15139700D02*
G01*
X12706300Y15139700D01*
X12706300Y15147300D01*
X13209300Y15147300D01*
X13209300Y15139700D01*
G37*
G36*
X13201600Y11238200D02*
G01*
X12028200Y11238200D01*
X12028200Y11245900D01*
X13201600Y11245900D01*
X13201600Y11238200D01*
G37*
G36*
X13201600Y13112800D02*
G01*
X10793700Y13112800D01*
X10793700Y13120400D01*
X13201600Y13120400D01*
X13201600Y13112800D01*
G37*
G36*
X13201600Y15147300D02*
G01*
X12714000Y15147300D01*
X12714000Y15154900D01*
X13201600Y15154900D01*
X13201600Y15147300D01*
G37*
G36*
X13201600Y15154900D02*
G01*
X12714000Y15154900D01*
X12714000Y15162500D01*
X13201600Y15162500D01*
X13201600Y15154900D01*
G37*
G36*
X13194000Y11230600D02*
G01*
X12028200Y11230600D01*
X12028200Y11238200D01*
X13194000Y11238200D01*
X13194000Y11230600D01*
G37*
G36*
X13194000Y13120400D02*
G01*
X10786100Y13120400D01*
X10786100Y13128000D01*
X13194000Y13128000D01*
X13194000Y13120400D01*
G37*
G36*
X13194000Y15162500D02*
G01*
X12714000Y15162500D01*
X12714000Y15170200D01*
X13194000Y15170200D01*
X13194000Y15162500D01*
G37*
G36*
X13186400Y11223000D02*
G01*
X12028200Y11223000D01*
X12028200Y11230600D01*
X13186400Y11230600D01*
X13186400Y11223000D01*
G37*
G36*
X13186400Y13128000D02*
G01*
X10778500Y13128000D01*
X10778500Y13135600D01*
X13186400Y13135600D01*
X13186400Y13128000D01*
G37*
G36*
X13186400Y15170200D02*
G01*
X12721600Y15170200D01*
X12721600Y15177800D01*
X13186400Y15177800D01*
X13186400Y15170200D01*
G37*
G36*
X13178800Y11215400D02*
G01*
X12028200Y11215400D01*
X12028200Y11223000D01*
X13178800Y11223000D01*
X13178800Y11215400D01*
G37*
G36*
X13178800Y13135600D02*
G01*
X10778500Y13135600D01*
X10778500Y13143200D01*
X13178800Y13143200D01*
X13178800Y13135600D01*
G37*
G36*
X13178800Y15177800D02*
G01*
X12721600Y15177800D01*
X12721600Y15185400D01*
X13178800Y15185400D01*
X13178800Y15177800D01*
G37*
G36*
X13178800Y15185400D02*
G01*
X12721600Y15185400D01*
X12721600Y15193000D01*
X13178800Y15193000D01*
X13178800Y15185400D01*
G37*
G36*
X13171200Y11207800D02*
G01*
X12028200Y11207800D01*
X12028200Y11215400D01*
X13171200Y11215400D01*
X13171200Y11207800D01*
G37*
G36*
X13171200Y13143200D02*
G01*
X10770900Y13143200D01*
X10770900Y13150900D01*
X13171200Y13150900D01*
X13171200Y13143200D01*
G37*
G36*
X13171200Y15193000D02*
G01*
X12729200Y15193000D01*
X12729200Y15200600D01*
X13171200Y15200600D01*
X13171200Y15193000D01*
G37*
G36*
X13163500Y11200100D02*
G01*
X12028200Y11200100D01*
X12028200Y11207800D01*
X13163500Y11207800D01*
X13163500Y11200100D01*
G37*
G36*
X13163500Y13150900D02*
G01*
X10763200Y13150900D01*
X10763200Y13158500D01*
X13163500Y13158500D01*
X13163500Y13150900D01*
G37*
G36*
X13163500Y13158500D02*
G01*
X10763200Y13158500D01*
X10763200Y13166100D01*
X13163500Y13166100D01*
X13163500Y13158500D01*
G37*
G36*
X13163500Y15200600D02*
G01*
X12729200Y15200600D01*
X12729200Y15208300D01*
X13163500Y15208300D01*
X13163500Y15200600D01*
G37*
G36*
X13163500Y15208300D02*
G01*
X12729200Y15208300D01*
X12729200Y15215900D01*
X13163500Y15215900D01*
X13163500Y15208300D01*
G37*
G36*
X13155900Y11192500D02*
G01*
X12028200Y11192500D01*
X12028200Y11200100D01*
X13155900Y11200100D01*
X13155900Y11192500D01*
G37*
G36*
X13155900Y13166100D02*
G01*
X10763200Y13166100D01*
X10763200Y13173700D01*
X13155900Y13173700D01*
X13155900Y13166100D01*
G37*
G36*
X13155900Y15215900D02*
G01*
X12736800Y15215900D01*
X12736800Y15223500D01*
X13155900Y15223500D01*
X13155900Y15215900D01*
G37*
G36*
X13148300Y11184900D02*
G01*
X12028200Y11184900D01*
X12028200Y11192500D01*
X13148300Y11192500D01*
X13148300Y11184900D01*
G37*
G36*
X13148300Y13173700D02*
G01*
X10755600Y13173700D01*
X10755600Y13181300D01*
X13148300Y13181300D01*
X13148300Y13173700D01*
G37*
G36*
X13148300Y13181300D02*
G01*
X10755600Y13181300D01*
X10755600Y13189000D01*
X13148300Y13189000D01*
X13148300Y13181300D01*
G37*
G36*
X13148300Y15223500D02*
G01*
X12736800Y15223500D01*
X12736800Y15231100D01*
X13148300Y15231100D01*
X13148300Y15223500D01*
G37*
G36*
X13140700Y11177300D02*
G01*
X12028200Y11177300D01*
X12028200Y11184900D01*
X13140700Y11184900D01*
X13140700Y11177300D01*
G37*
G36*
X13140700Y13189000D02*
G01*
X10755600Y13189000D01*
X10755600Y13196600D01*
X13140700Y13196600D01*
X13140700Y13189000D01*
G37*
G36*
X13140700Y13196600D02*
G01*
X10755600Y13196600D01*
X10755600Y13204200D01*
X13140700Y13204200D01*
X13140700Y13196600D01*
G37*
G36*
X13140700Y15231100D02*
G01*
X12736800Y15231100D01*
X12736800Y15238700D01*
X13140700Y15238700D01*
X13140700Y15231100D01*
G37*
G36*
X13140700Y15238700D02*
G01*
X12744400Y15238700D01*
X12744400Y15246400D01*
X13140700Y15246400D01*
X13140700Y15238700D01*
G37*
G36*
X13133100Y11169700D02*
G01*
X12028200Y11169700D01*
X12028200Y11177300D01*
X13133100Y11177300D01*
X13133100Y11169700D01*
G37*
G36*
X13133100Y13204200D02*
G01*
X10748000Y13204200D01*
X10748000Y13211800D01*
X13133100Y13211800D01*
X13133100Y13204200D01*
G37*
G36*
X13133100Y13211800D02*
G01*
X10748000Y13211800D01*
X10748000Y13219400D01*
X13133100Y13219400D01*
X13133100Y13211800D01*
G37*
G36*
X13133100Y13760500D02*
G01*
X12477700Y13760500D01*
X12477700Y13768100D01*
X13133100Y13768100D01*
X13133100Y13760500D01*
G37*
G36*
X13133100Y15246400D02*
G01*
X12744400Y15246400D01*
X12744400Y15254000D01*
X13133100Y15254000D01*
X13133100Y15246400D01*
G37*
G36*
X13125400Y11162000D02*
G01*
X12028200Y11162000D01*
X12028200Y11169700D01*
X13125400Y11169700D01*
X13125400Y11162000D01*
G37*
G36*
X13125400Y12632700D02*
G01*
X11441400Y12632700D01*
X11441400Y12640300D01*
X13125400Y12640300D01*
X13125400Y12632700D01*
G37*
G36*
X13125400Y13219400D02*
G01*
X10748000Y13219400D01*
X10748000Y13227100D01*
X13125400Y13227100D01*
X13125400Y13219400D01*
G37*
G36*
X13125400Y13227100D02*
G01*
X10748000Y13227100D01*
X10748000Y13234700D01*
X13125400Y13234700D01*
X13125400Y13227100D01*
G37*
G36*
X13125400Y13752800D02*
G01*
X12485400Y13752800D01*
X12485400Y13760500D01*
X13125400Y13760500D01*
X13125400Y13752800D01*
G37*
G36*
X13125400Y15254000D02*
G01*
X12744400Y15254000D01*
X12744400Y15261600D01*
X13125400Y15261600D01*
X13125400Y15254000D01*
G37*
G36*
X13125400Y15261600D02*
G01*
X12752100Y15261600D01*
X12752100Y15269200D01*
X13125400Y15269200D01*
X13125400Y15261600D01*
G37*
G36*
X13117800Y11154400D02*
G01*
X12028200Y11154400D01*
X12028200Y11162000D01*
X13117800Y11162000D01*
X13117800Y11154400D01*
G37*
G36*
X13117800Y13234700D02*
G01*
X10748000Y13234700D01*
X10748000Y13242300D01*
X13117800Y13242300D01*
X13117800Y13234700D01*
G37*
G36*
X13117800Y13242300D02*
G01*
X10755600Y13242300D01*
X10755600Y13249900D01*
X13117800Y13249900D01*
X13117800Y13242300D01*
G37*
G36*
X13117800Y13249900D02*
G01*
X10755600Y13249900D01*
X10755600Y13257500D01*
X13117800Y13257500D01*
X13117800Y13249900D01*
G37*
G36*
X13117800Y13745200D02*
G01*
X12485400Y13745200D01*
X12485400Y13752800D01*
X13117800Y13752800D01*
X13117800Y13745200D01*
G37*
G36*
X13117800Y15269200D02*
G01*
X12752100Y15269200D01*
X12752100Y15276800D01*
X13117800Y15276800D01*
X13117800Y15269200D01*
G37*
G36*
X13110200Y12625100D02*
G01*
X11456700Y12625100D01*
X11456700Y12632700D01*
X13110200Y12632700D01*
X13110200Y12625100D01*
G37*
G36*
X13110200Y13257500D02*
G01*
X10755600Y13257500D01*
X10755600Y13265200D01*
X13110200Y13265200D01*
X13110200Y13257500D01*
G37*
G36*
X13110200Y13265200D02*
G01*
X10755600Y13265200D01*
X10755600Y13272800D01*
X13110200Y13272800D01*
X13110200Y13265200D01*
G37*
G36*
X13110200Y13737600D02*
G01*
X12493000Y13737600D01*
X12493000Y13745200D01*
X13110200Y13745200D01*
X13110200Y13737600D01*
G37*
G36*
X13110200Y15276800D02*
G01*
X12759700Y15276800D01*
X12759700Y15284500D01*
X13110200Y15284500D01*
X13110200Y15276800D01*
G37*
G36*
X13102600Y11146800D02*
G01*
X12028200Y11146800D01*
X12028200Y11154400D01*
X13102600Y11154400D01*
X13102600Y11146800D01*
G37*
G36*
X13102600Y13272800D02*
G01*
X10755600Y13272800D01*
X10755600Y13280400D01*
X13102600Y13280400D01*
X13102600Y13272800D01*
G37*
G36*
X13102600Y13280400D02*
G01*
X10755600Y13280400D01*
X10755600Y13288000D01*
X13102600Y13288000D01*
X13102600Y13280400D01*
G37*
G36*
X13102600Y13288000D02*
G01*
X10763200Y13288000D01*
X10763200Y13295600D01*
X13102600Y13295600D01*
X13102600Y13288000D01*
G37*
G36*
X13102600Y13722400D02*
G01*
X12500600Y13722400D01*
X12500600Y13730000D01*
X13102600Y13730000D01*
X13102600Y13722400D01*
G37*
G36*
X13102600Y13730000D02*
G01*
X12493000Y13730000D01*
X12493000Y13737600D01*
X13102600Y13737600D01*
X13102600Y13730000D01*
G37*
G36*
X13102600Y15284500D02*
G01*
X12759700Y15284500D01*
X12759700Y15292100D01*
X13102600Y15292100D01*
X13102600Y15284500D01*
G37*
G36*
X13102600Y15292100D02*
G01*
X12759700Y15292100D01*
X12759700Y15299700D01*
X13102600Y15299700D01*
X13102600Y15292100D01*
G37*
G36*
X13095000Y11139200D02*
G01*
X12028200Y11139200D01*
X12028200Y11146800D01*
X13095000Y11146800D01*
X13095000Y11139200D01*
G37*
G36*
X13095000Y12617500D02*
G01*
X11464300Y12617500D01*
X11464300Y12625100D01*
X13095000Y12625100D01*
X13095000Y12617500D01*
G37*
G36*
X13095000Y13295600D02*
G01*
X10763200Y13295600D01*
X10763200Y13303300D01*
X13095000Y13303300D01*
X13095000Y13295600D01*
G37*
G36*
X13095000Y13303300D02*
G01*
X10763200Y13303300D01*
X10763200Y13310900D01*
X13095000Y13310900D01*
X13095000Y13303300D01*
G37*
G36*
X13095000Y13310900D02*
G01*
X10770900Y13310900D01*
X10770900Y13318500D01*
X13095000Y13318500D01*
X13095000Y13310900D01*
G37*
G36*
X13095000Y13318500D02*
G01*
X10770900Y13318500D01*
X10770900Y13326100D01*
X13095000Y13326100D01*
X13095000Y13318500D01*
G37*
G36*
X13095000Y13707100D02*
G01*
X12508200Y13707100D01*
X12508200Y13714700D01*
X13095000Y13714700D01*
X13095000Y13707100D01*
G37*
G36*
X13095000Y13714700D02*
G01*
X12500600Y13714700D01*
X12500600Y13722400D01*
X13095000Y13722400D01*
X13095000Y13714700D01*
G37*
G36*
X13095000Y15299700D02*
G01*
X12767300Y15299700D01*
X12767300Y15307300D01*
X13095000Y15307300D01*
X13095000Y15299700D01*
G37*
G36*
X13087300Y11131600D02*
G01*
X12028200Y11131600D01*
X12028200Y11139200D01*
X13087300Y11139200D01*
X13087300Y11131600D01*
G37*
G36*
X13087300Y12609800D02*
G01*
X11479500Y12609800D01*
X11479500Y12617500D01*
X13087300Y12617500D01*
X13087300Y12609800D01*
G37*
G36*
X13087300Y13326100D02*
G01*
X10778500Y13326100D01*
X10778500Y13333700D01*
X13087300Y13333700D01*
X13087300Y13326100D01*
G37*
G36*
X13087300Y13333700D02*
G01*
X10786100Y13333700D01*
X10786100Y13341400D01*
X13087300Y13341400D01*
X13087300Y13333700D01*
G37*
G36*
X13087300Y13341400D02*
G01*
X10786100Y13341400D01*
X10786100Y13349000D01*
X13087300Y13349000D01*
X13087300Y13341400D01*
G37*
G36*
X13087300Y13349000D02*
G01*
X10793700Y13349000D01*
X10793700Y13356600D01*
X13087300Y13356600D01*
X13087300Y13349000D01*
G37*
G36*
X13087300Y13684300D02*
G01*
X12515800Y13684300D01*
X12515800Y13691900D01*
X13087300Y13691900D01*
X13087300Y13684300D01*
G37*
G36*
X13087300Y13691900D02*
G01*
X12515800Y13691900D01*
X12515800Y13699500D01*
X13087300Y13699500D01*
X13087300Y13691900D01*
G37*
G36*
X13087300Y13699500D02*
G01*
X12508200Y13699500D01*
X12508200Y13707100D01*
X13087300Y13707100D01*
X13087300Y13699500D01*
G37*
G36*
X13087300Y15307300D02*
G01*
X12767300Y15307300D01*
X12767300Y15314900D01*
X13087300Y15314900D01*
X13087300Y15307300D01*
G37*
G36*
X13079700Y11123900D02*
G01*
X12028200Y11123900D01*
X12028200Y11131600D01*
X13079700Y11131600D01*
X13079700Y11123900D01*
G37*
G36*
X13079700Y13356600D02*
G01*
X10801300Y13356600D01*
X10801300Y13364200D01*
X13079700Y13364200D01*
X13079700Y13356600D01*
G37*
G36*
X13079700Y13364200D02*
G01*
X10809000Y13364200D01*
X10809000Y13371800D01*
X13079700Y13371800D01*
X13079700Y13364200D01*
G37*
G36*
X13079700Y13371800D02*
G01*
X10824200Y13371800D01*
X10824200Y13379500D01*
X13079700Y13379500D01*
X13079700Y13371800D01*
G37*
G36*
X13079700Y13379500D02*
G01*
X10831800Y13379500D01*
X10831800Y13387100D01*
X13079700Y13387100D01*
X13079700Y13379500D01*
G37*
G36*
X13079700Y13387100D02*
G01*
X10847100Y13387100D01*
X10847100Y13394700D01*
X13079700Y13394700D01*
X13079700Y13387100D01*
G37*
G36*
X13079700Y13661400D02*
G01*
X12531100Y13661400D01*
X12531100Y13669000D01*
X13079700Y13669000D01*
X13079700Y13661400D01*
G37*
G36*
X13079700Y13669000D02*
G01*
X12523500Y13669000D01*
X12523500Y13676600D01*
X13079700Y13676600D01*
X13079700Y13669000D01*
G37*
G36*
X13079700Y13676600D02*
G01*
X12523500Y13676600D01*
X12523500Y13684300D01*
X13079700Y13684300D01*
X13079700Y13676600D01*
G37*
G36*
X13079700Y15314900D02*
G01*
X12774900Y15314900D01*
X12774900Y15322600D01*
X13079700Y15322600D01*
X13079700Y15314900D01*
G37*
G36*
X13072100Y12602200D02*
G01*
X11487100Y12602200D01*
X11487100Y12609800D01*
X13072100Y12609800D01*
X13072100Y12602200D01*
G37*
G36*
X13072100Y13394700D02*
G01*
X10862300Y13394700D01*
X10862300Y13402300D01*
X13072100Y13402300D01*
X13072100Y13394700D01*
G37*
G36*
X13072100Y13402300D02*
G01*
X10885200Y13402300D01*
X10885200Y13409900D01*
X13072100Y13409900D01*
X13072100Y13402300D01*
G37*
G36*
X13072100Y13409900D02*
G01*
X10900400Y13409900D01*
X10900400Y13417600D01*
X13072100Y13417600D01*
X13072100Y13409900D01*
G37*
G36*
X13072100Y13417600D02*
G01*
X10923300Y13417600D01*
X10923300Y13425200D01*
X13072100Y13425200D01*
X13072100Y13417600D01*
G37*
G36*
X13072100Y13425200D02*
G01*
X10946100Y13425200D01*
X10946100Y13432800D01*
X13072100Y13432800D01*
X13072100Y13425200D01*
G37*
G36*
X13072100Y13432800D02*
G01*
X10976600Y13432800D01*
X10976600Y13440400D01*
X13072100Y13440400D01*
X13072100Y13432800D01*
G37*
G36*
X13072100Y13440400D02*
G01*
X10999500Y13440400D01*
X10999500Y13448000D01*
X13072100Y13448000D01*
X13072100Y13440400D01*
G37*
G36*
X13072100Y13615700D02*
G01*
X12561600Y13615700D01*
X12561600Y13623300D01*
X13072100Y13623300D01*
X13072100Y13615700D01*
G37*
G36*
X13072100Y13623300D02*
G01*
X12553900Y13623300D01*
X12553900Y13630900D01*
X13072100Y13630900D01*
X13072100Y13623300D01*
G37*
G36*
X13072100Y13630900D02*
G01*
X12553900Y13630900D01*
X12553900Y13638500D01*
X13072100Y13638500D01*
X13072100Y13630900D01*
G37*
G36*
X13072100Y13638500D02*
G01*
X12546300Y13638500D01*
X12546300Y13646200D01*
X13072100Y13646200D01*
X13072100Y13638500D01*
G37*
G36*
X13072100Y13646200D02*
G01*
X12538700Y13646200D01*
X12538700Y13653800D01*
X13072100Y13653800D01*
X13072100Y13646200D01*
G37*
G36*
X13072100Y13653800D02*
G01*
X12538700Y13653800D01*
X12538700Y13661400D01*
X13072100Y13661400D01*
X13072100Y13653800D01*
G37*
G36*
X13072100Y15322600D02*
G01*
X12782500Y15322600D01*
X12782500Y15330200D01*
X13072100Y15330200D01*
X13072100Y15322600D01*
G37*
G36*
X13072100Y15330200D02*
G01*
X12782500Y15330200D01*
X12782500Y15337800D01*
X13072100Y15337800D01*
X13072100Y15330200D01*
G37*
G36*
X13064500Y11116300D02*
G01*
X12028200Y11116300D01*
X12028200Y11123900D01*
X13064500Y11123900D01*
X13064500Y11116300D01*
G37*
G36*
X13064500Y12594600D02*
G01*
X11494800Y12594600D01*
X11494800Y12602200D01*
X13064500Y12602200D01*
X13064500Y12594600D01*
G37*
G36*
X13064500Y13448000D02*
G01*
X11022300Y13448000D01*
X11022300Y13455700D01*
X13064500Y13455700D01*
X13064500Y13448000D01*
G37*
G36*
X13064500Y13455700D02*
G01*
X11045200Y13455700D01*
X11045200Y13463300D01*
X13064500Y13463300D01*
X13064500Y13455700D01*
G37*
G36*
X13064500Y13463300D02*
G01*
X11068000Y13463300D01*
X11068000Y13470900D01*
X13064500Y13470900D01*
X13064500Y13463300D01*
G37*
G36*
X13064500Y13470900D02*
G01*
X11090900Y13470900D01*
X11090900Y13478500D01*
X13064500Y13478500D01*
X13064500Y13470900D01*
G37*
G36*
X13064500Y13478500D02*
G01*
X11113800Y13478500D01*
X11113800Y13486100D01*
X13064500Y13486100D01*
X13064500Y13478500D01*
G37*
G36*
X13064500Y13486100D02*
G01*
X11136600Y13486100D01*
X11136600Y13493800D01*
X13064500Y13493800D01*
X13064500Y13486100D01*
G37*
G36*
X13064500Y13493800D02*
G01*
X11167100Y13493800D01*
X11167100Y13501400D01*
X13064500Y13501400D01*
X13064500Y13493800D01*
G37*
G36*
X13064500Y13501400D02*
G01*
X11190000Y13501400D01*
X11190000Y13509000D01*
X13064500Y13509000D01*
X13064500Y13501400D01*
G37*
G36*
X13064500Y13509000D02*
G01*
X12645400Y13509000D01*
X12645400Y13516600D01*
X13064500Y13516600D01*
X13064500Y13509000D01*
G37*
G36*
X13064500Y13516600D02*
G01*
X12637800Y13516600D01*
X12637800Y13524200D01*
X13064500Y13524200D01*
X13064500Y13516600D01*
G37*
G36*
X13064500Y13524200D02*
G01*
X12630100Y13524200D01*
X12630100Y13531900D01*
X13064500Y13531900D01*
X13064500Y13524200D01*
G37*
G36*
X13064500Y13531900D02*
G01*
X12630100Y13531900D01*
X12630100Y13539500D01*
X13064500Y13539500D01*
X13064500Y13531900D01*
G37*
G36*
X13064500Y13539500D02*
G01*
X12622500Y13539500D01*
X12622500Y13547100D01*
X13064500Y13547100D01*
X13064500Y13539500D01*
G37*
G36*
X13064500Y13547100D02*
G01*
X12614900Y13547100D01*
X12614900Y13554700D01*
X13064500Y13554700D01*
X13064500Y13547100D01*
G37*
G36*
X13064500Y13554700D02*
G01*
X12607300Y13554700D01*
X12607300Y13562300D01*
X13064500Y13562300D01*
X13064500Y13554700D01*
G37*
G36*
X13064500Y13562300D02*
G01*
X12599700Y13562300D01*
X12599700Y13570000D01*
X13064500Y13570000D01*
X13064500Y13562300D01*
G37*
G36*
X13064500Y13570000D02*
G01*
X12599700Y13570000D01*
X12599700Y13577600D01*
X13064500Y13577600D01*
X13064500Y13570000D01*
G37*
G36*
X13064500Y13577600D02*
G01*
X12592000Y13577600D01*
X12592000Y13585200D01*
X13064500Y13585200D01*
X13064500Y13577600D01*
G37*
G36*
X13064500Y13585200D02*
G01*
X12584400Y13585200D01*
X12584400Y13592800D01*
X13064500Y13592800D01*
X13064500Y13585200D01*
G37*
G36*
X13064500Y13592800D02*
G01*
X12576800Y13592800D01*
X12576800Y13600400D01*
X13064500Y13600400D01*
X13064500Y13592800D01*
G37*
G36*
X13064500Y13600400D02*
G01*
X12576800Y13600400D01*
X12576800Y13608100D01*
X13064500Y13608100D01*
X13064500Y13600400D01*
G37*
G36*
X13064500Y13608100D02*
G01*
X12569200Y13608100D01*
X12569200Y13615700D01*
X13064500Y13615700D01*
X13064500Y13608100D01*
G37*
G36*
X13064500Y15337800D02*
G01*
X12790200Y15337800D01*
X12790200Y15345400D01*
X13064500Y15345400D01*
X13064500Y15337800D01*
G37*
G36*
X13056900Y11108700D02*
G01*
X12028200Y11108700D01*
X12028200Y11116300D01*
X13056900Y11116300D01*
X13056900Y11108700D01*
G37*
G36*
X13056900Y12587000D02*
G01*
X11510000Y12587000D01*
X11510000Y12594600D01*
X13056900Y12594600D01*
X13056900Y12587000D01*
G37*
G36*
X13056900Y15345400D02*
G01*
X12797800Y15345400D01*
X12797800Y15353000D01*
X13056900Y15353000D01*
X13056900Y15345400D01*
G37*
G36*
X13049200Y11101100D02*
G01*
X12028200Y11101100D01*
X12028200Y11108700D01*
X13049200Y11108700D01*
X13049200Y11101100D01*
G37*
G36*
X13049200Y12579400D02*
G01*
X11517600Y12579400D01*
X11517600Y12587000D01*
X13049200Y12587000D01*
X13049200Y12579400D01*
G37*
G36*
X13049200Y15353000D02*
G01*
X12805400Y15353000D01*
X12805400Y15360700D01*
X13049200Y15360700D01*
X13049200Y15353000D01*
G37*
G36*
X13041600Y12571700D02*
G01*
X11532900Y12571700D01*
X11532900Y12579400D01*
X13041600Y12579400D01*
X13041600Y12571700D01*
G37*
G36*
X13041600Y15360700D02*
G01*
X12813000Y15360700D01*
X12813000Y15368300D01*
X13041600Y15368300D01*
X13041600Y15360700D01*
G37*
G36*
X13034000Y11093500D02*
G01*
X12028200Y11093500D01*
X12028200Y11101100D01*
X13034000Y11101100D01*
X13034000Y11093500D01*
G37*
G36*
X13034000Y12564100D02*
G01*
X11540500Y12564100D01*
X11540500Y12571700D01*
X13034000Y12571700D01*
X13034000Y12564100D01*
G37*
G36*
X13026400Y11085800D02*
G01*
X12028200Y11085800D01*
X12028200Y11093500D01*
X13026400Y11093500D01*
X13026400Y11085800D01*
G37*
G36*
X13026400Y12556500D02*
G01*
X11548100Y12556500D01*
X11548100Y12564100D01*
X13026400Y12564100D01*
X13026400Y12556500D01*
G37*
G36*
X13026400Y15368300D02*
G01*
X12820600Y15368300D01*
X12820600Y15375900D01*
X13026400Y15375900D01*
X13026400Y15368300D01*
G37*
G36*
X13018800Y11078200D02*
G01*
X12028200Y11078200D01*
X12028200Y11085800D01*
X13018800Y11085800D01*
X13018800Y11078200D01*
G37*
G36*
X13018800Y12548900D02*
G01*
X11563300Y12548900D01*
X11563300Y12556500D01*
X13018800Y12556500D01*
X13018800Y12548900D01*
G37*
G36*
X13018800Y15375900D02*
G01*
X12835900Y15375900D01*
X12835900Y15383500D01*
X13018800Y15383500D01*
X13018800Y15375900D01*
G37*
G36*
X13011100Y12541300D02*
G01*
X11571000Y12541300D01*
X11571000Y12548900D01*
X13011100Y12548900D01*
X13011100Y12541300D01*
G37*
G36*
X13003500Y11070600D02*
G01*
X12028200Y11070600D01*
X12028200Y11078200D01*
X13003500Y11078200D01*
X13003500Y11070600D01*
G37*
G36*
X13003500Y12533600D02*
G01*
X11578600Y12533600D01*
X11578600Y12541300D01*
X13003500Y12541300D01*
X13003500Y12533600D01*
G37*
G36*
X13003500Y15383500D02*
G01*
X12851100Y15383500D01*
X12851100Y15391100D01*
X13003500Y15391100D01*
X13003500Y15383500D01*
G37*
G36*
X12995900Y11063000D02*
G01*
X12028200Y11063000D01*
X12028200Y11070600D01*
X12995900Y11070600D01*
X12995900Y11063000D01*
G37*
G36*
X12995900Y12526000D02*
G01*
X11593800Y12526000D01*
X11593800Y12533600D01*
X12995900Y12533600D01*
X12995900Y12526000D01*
G37*
G36*
X12988300Y12510800D02*
G01*
X11616700Y12510800D01*
X11616700Y12518400D01*
X12988300Y12518400D01*
X12988300Y12510800D01*
G37*
G36*
X12988300Y12518400D02*
G01*
X11601400Y12518400D01*
X11601400Y12526000D01*
X12988300Y12526000D01*
X12988300Y12518400D01*
G37*
G36*
X12988300Y15391100D02*
G01*
X12866400Y15391100D01*
X12866400Y15398800D01*
X12988300Y15398800D01*
X12988300Y15391100D01*
G37*
G36*
X12980700Y11055400D02*
G01*
X12028200Y11055400D01*
X12028200Y11063000D01*
X12980700Y11063000D01*
X12980700Y11055400D01*
G37*
G36*
X12980700Y12503200D02*
G01*
X11631900Y12503200D01*
X11631900Y12510800D01*
X12980700Y12510800D01*
X12980700Y12503200D01*
G37*
G36*
X12973000Y11047700D02*
G01*
X12028200Y11047700D01*
X12028200Y11055400D01*
X12973000Y11055400D01*
X12973000Y11047700D01*
G37*
G36*
X12973000Y12495500D02*
G01*
X11639500Y12495500D01*
X11639500Y12503200D01*
X12973000Y12503200D01*
X12973000Y12495500D01*
G37*
G36*
X12965400Y11040100D02*
G01*
X12028200Y11040100D01*
X12028200Y11047700D01*
X12965400Y11047700D01*
X12965400Y11040100D01*
G37*
G36*
X12965400Y12480300D02*
G01*
X11670000Y12480300D01*
X11670000Y12487900D01*
X12965400Y12487900D01*
X12965400Y12480300D01*
G37*
G36*
X12965400Y12487900D02*
G01*
X11654800Y12487900D01*
X11654800Y12495500D01*
X12965400Y12495500D01*
X12965400Y12487900D01*
G37*
G36*
X12965400Y15398800D02*
G01*
X12904500Y15398800D01*
X12904500Y15406400D01*
X12965400Y15406400D01*
X12965400Y15398800D01*
G37*
G36*
X12957800Y12472700D02*
G01*
X11685300Y12472700D01*
X11685300Y12480300D01*
X12957800Y12480300D01*
X12957800Y12472700D01*
G37*
G36*
X12950200Y11032500D02*
G01*
X12028200Y11032500D01*
X12028200Y11040100D01*
X12950200Y11040100D01*
X12950200Y11032500D01*
G37*
G36*
X12950200Y12457400D02*
G01*
X11708100Y12457400D01*
X11708100Y12465100D01*
X12950200Y12465100D01*
X12950200Y12457400D01*
G37*
G36*
X12950200Y12465100D02*
G01*
X11700500Y12465100D01*
X11700500Y12472700D01*
X12950200Y12472700D01*
X12950200Y12465100D01*
G37*
G36*
X12942600Y11024900D02*
G01*
X12028200Y11024900D01*
X12028200Y11032500D01*
X12942600Y11032500D01*
X12942600Y11024900D01*
G37*
G36*
X12942600Y12442200D02*
G01*
X11746200Y12442200D01*
X11746200Y12449800D01*
X12942600Y12449800D01*
X12942600Y12442200D01*
G37*
G36*
X12942600Y12449800D02*
G01*
X11731000Y12449800D01*
X11731000Y12457400D01*
X12942600Y12457400D01*
X12942600Y12449800D01*
G37*
G36*
X12934900Y11017300D02*
G01*
X12028200Y11017300D01*
X12028200Y11024900D01*
X12934900Y11024900D01*
X12934900Y11017300D01*
G37*
G36*
X12934900Y12434600D02*
G01*
X11761500Y12434600D01*
X11761500Y12442200D01*
X12934900Y12442200D01*
X12934900Y12434600D01*
G37*
G36*
X12927300Y12419300D02*
G01*
X12454900Y12419300D01*
X12454900Y12427000D01*
X12927300Y12427000D01*
X12927300Y12419300D01*
G37*
G36*
X12927300Y12427000D02*
G01*
X12470100Y12427000D01*
X12470100Y12434600D01*
X12927300Y12434600D01*
X12927300Y12427000D01*
G37*
G36*
X12919700Y11009600D02*
G01*
X12028200Y11009600D01*
X12028200Y11017300D01*
X12919700Y11017300D01*
X12919700Y11009600D01*
G37*
G36*
X12919700Y12404100D02*
G01*
X12432000Y12404100D01*
X12432000Y12411700D01*
X12919700Y12411700D01*
X12919700Y12404100D01*
G37*
G36*
X12919700Y12411700D02*
G01*
X12447300Y12411700D01*
X12447300Y12419300D01*
X12919700Y12419300D01*
X12919700Y12411700D01*
G37*
G36*
X12912100Y11002000D02*
G01*
X12028200Y11002000D01*
X12028200Y11009600D01*
X12912100Y11009600D01*
X12912100Y11002000D01*
G37*
G36*
X12912100Y12388900D02*
G01*
X12409200Y12388900D01*
X12409200Y12396500D01*
X12912100Y12396500D01*
X12912100Y12388900D01*
G37*
G36*
X12912100Y12396500D02*
G01*
X12424400Y12396500D01*
X12424400Y12404100D01*
X12912100Y12404100D01*
X12912100Y12396500D01*
G37*
G36*
X12904500Y10994400D02*
G01*
X12028200Y10994400D01*
X12028200Y11002000D01*
X12904500Y11002000D01*
X12904500Y10994400D01*
G37*
G36*
X12904500Y12373600D02*
G01*
X12386300Y12373600D01*
X12386300Y12381200D01*
X12904500Y12381200D01*
X12904500Y12373600D01*
G37*
G36*
X12904500Y12381200D02*
G01*
X12401500Y12381200D01*
X12401500Y12388900D01*
X12904500Y12388900D01*
X12904500Y12381200D01*
G37*
G36*
X12896800Y12358400D02*
G01*
X12371100Y12358400D01*
X12371100Y12366000D01*
X12896800Y12366000D01*
X12896800Y12358400D01*
G37*
G36*
X12896800Y12366000D02*
G01*
X12378700Y12366000D01*
X12378700Y12373600D01*
X12896800Y12373600D01*
X12896800Y12366000D01*
G37*
G36*
X12889200Y10986800D02*
G01*
X12028200Y10986800D01*
X12028200Y10994400D01*
X12889200Y10994400D01*
X12889200Y10986800D01*
G37*
G36*
X12889200Y12343100D02*
G01*
X12348200Y12343100D01*
X12348200Y12350800D01*
X12889200Y12350800D01*
X12889200Y12343100D01*
G37*
G36*
X12889200Y12350800D02*
G01*
X12355800Y12350800D01*
X12355800Y12358400D01*
X12889200Y12358400D01*
X12889200Y12350800D01*
G37*
G36*
X12881600Y10979200D02*
G01*
X12028200Y10979200D01*
X12028200Y10986800D01*
X12881600Y10986800D01*
X12881600Y10979200D01*
G37*
G36*
X12881600Y12023100D02*
G01*
X12112000Y12023100D01*
X12112000Y12030700D01*
X12881600Y12030700D01*
X12881600Y12023100D01*
G37*
G36*
X12881600Y12320300D02*
G01*
X12317700Y12320300D01*
X12317700Y12327900D01*
X12881600Y12327900D01*
X12881600Y12320300D01*
G37*
G36*
X12881600Y12327900D02*
G01*
X12325300Y12327900D01*
X12325300Y12335500D01*
X12881600Y12335500D01*
X12881600Y12327900D01*
G37*
G36*
X12881600Y12335500D02*
G01*
X12340600Y12335500D01*
X12340600Y12343100D01*
X12881600Y12343100D01*
X12881600Y12335500D01*
G37*
G36*
X12874000Y12305000D02*
G01*
X12302500Y12305000D01*
X12302500Y12312700D01*
X12874000Y12312700D01*
X12874000Y12305000D01*
G37*
G36*
X12874000Y12312700D02*
G01*
X12310100Y12312700D01*
X12310100Y12320300D01*
X12874000Y12320300D01*
X12874000Y12312700D01*
G37*
G36*
X12866400Y10971500D02*
G01*
X12028200Y10971500D01*
X12028200Y10979200D01*
X12866400Y10979200D01*
X12866400Y10971500D01*
G37*
G36*
X12866400Y12030700D02*
G01*
X12112000Y12030700D01*
X12112000Y12038300D01*
X12866400Y12038300D01*
X12866400Y12030700D01*
G37*
G36*
X12866400Y12282200D02*
G01*
X12279600Y12282200D01*
X12279600Y12289800D01*
X12866400Y12289800D01*
X12866400Y12282200D01*
G37*
G36*
X12866400Y12289800D02*
G01*
X12287200Y12289800D01*
X12287200Y12297400D01*
X12866400Y12297400D01*
X12866400Y12289800D01*
G37*
G36*
X12866400Y12297400D02*
G01*
X12294900Y12297400D01*
X12294900Y12305000D01*
X12866400Y12305000D01*
X12866400Y12297400D01*
G37*
G36*
X12858700Y10963900D02*
G01*
X12028200Y10963900D01*
X12028200Y10971500D01*
X12858700Y10971500D01*
X12858700Y10963900D01*
G37*
G36*
X12858700Y12038300D02*
G01*
X12112000Y12038300D01*
X12112000Y12046000D01*
X12858700Y12046000D01*
X12858700Y12038300D01*
G37*
G36*
X12858700Y12259300D02*
G01*
X12256800Y12259300D01*
X12256800Y12266900D01*
X12858700Y12266900D01*
X12858700Y12259300D01*
G37*
G36*
X12858700Y12266900D02*
G01*
X12264400Y12266900D01*
X12264400Y12274600D01*
X12858700Y12274600D01*
X12858700Y12266900D01*
G37*
G36*
X12858700Y12274600D02*
G01*
X12272000Y12274600D01*
X12272000Y12282200D01*
X12858700Y12282200D01*
X12858700Y12274600D01*
G37*
G36*
X12851100Y10956300D02*
G01*
X12028200Y10956300D01*
X12028200Y10963900D01*
X12851100Y10963900D01*
X12851100Y10956300D01*
G37*
G36*
X12851100Y12046000D02*
G01*
X12119600Y12046000D01*
X12119600Y12053600D01*
X12851100Y12053600D01*
X12851100Y12046000D01*
G37*
G36*
X12851100Y12053600D02*
G01*
X12119600Y12053600D01*
X12119600Y12061200D01*
X12851100Y12061200D01*
X12851100Y12053600D01*
G37*
G36*
X12851100Y12228800D02*
G01*
X12226300Y12228800D01*
X12226300Y12236500D01*
X12851100Y12236500D01*
X12851100Y12228800D01*
G37*
G36*
X12851100Y12236500D02*
G01*
X12233900Y12236500D01*
X12233900Y12244100D01*
X12851100Y12244100D01*
X12851100Y12236500D01*
G37*
G36*
X12851100Y12244100D02*
G01*
X12241500Y12244100D01*
X12241500Y12251700D01*
X12851100Y12251700D01*
X12851100Y12244100D01*
G37*
G36*
X12851100Y12251700D02*
G01*
X12249100Y12251700D01*
X12249100Y12259300D01*
X12851100Y12259300D01*
X12851100Y12251700D01*
G37*
G36*
X12843500Y12061200D02*
G01*
X12127200Y12061200D01*
X12127200Y12068800D01*
X12843500Y12068800D01*
X12843500Y12061200D01*
G37*
G36*
X12843500Y12068800D02*
G01*
X12127200Y12068800D01*
X12127200Y12076400D01*
X12843500Y12076400D01*
X12843500Y12068800D01*
G37*
G36*
X12843500Y12076400D02*
G01*
X12134800Y12076400D01*
X12134800Y12084100D01*
X12843500Y12084100D01*
X12843500Y12076400D01*
G37*
G36*
X12843500Y12183100D02*
G01*
X12195800Y12183100D01*
X12195800Y12190700D01*
X12843500Y12190700D01*
X12843500Y12183100D01*
G37*
G36*
X12843500Y12190700D02*
G01*
X12195800Y12190700D01*
X12195800Y12198400D01*
X12843500Y12198400D01*
X12843500Y12190700D01*
G37*
G36*
X12843500Y12198400D02*
G01*
X12203400Y12198400D01*
X12203400Y12206000D01*
X12843500Y12206000D01*
X12843500Y12198400D01*
G37*
G36*
X12843500Y12206000D02*
G01*
X12211000Y12206000D01*
X12211000Y12213600D01*
X12843500Y12213600D01*
X12843500Y12206000D01*
G37*
G36*
X12843500Y12213600D02*
G01*
X12218700Y12213600D01*
X12218700Y12221200D01*
X12843500Y12221200D01*
X12843500Y12213600D01*
G37*
G36*
X12843500Y12221200D02*
G01*
X12218700Y12221200D01*
X12218700Y12228800D01*
X12843500Y12228800D01*
X12843500Y12221200D01*
G37*
G36*
X12835900Y10948700D02*
G01*
X12028200Y10948700D01*
X12028200Y10956300D01*
X12835900Y10956300D01*
X12835900Y10948700D01*
G37*
G36*
X12835900Y12084100D02*
G01*
X12134800Y12084100D01*
X12134800Y12091700D01*
X12835900Y12091700D01*
X12835900Y12084100D01*
G37*
G36*
X12835900Y12091700D02*
G01*
X12142500Y12091700D01*
X12142500Y12099300D01*
X12835900Y12099300D01*
X12835900Y12091700D01*
G37*
G36*
X12835900Y12099300D02*
G01*
X12142500Y12099300D01*
X12142500Y12106900D01*
X12835900Y12106900D01*
X12835900Y12099300D01*
G37*
G36*
X12835900Y12106900D02*
G01*
X12150100Y12106900D01*
X12150100Y12114500D01*
X12835900Y12114500D01*
X12835900Y12106900D01*
G37*
G36*
X12835900Y12114500D02*
G01*
X12150100Y12114500D01*
X12150100Y12122200D01*
X12835900Y12122200D01*
X12835900Y12114500D01*
G37*
G36*
X12835900Y12122200D02*
G01*
X12157700Y12122200D01*
X12157700Y12129800D01*
X12835900Y12129800D01*
X12835900Y12122200D01*
G37*
G36*
X12835900Y12129800D02*
G01*
X12157700Y12129800D01*
X12157700Y12137400D01*
X12835900Y12137400D01*
X12835900Y12129800D01*
G37*
G36*
X12835900Y12137400D02*
G01*
X12165300Y12137400D01*
X12165300Y12145000D01*
X12835900Y12145000D01*
X12835900Y12137400D01*
G37*
G36*
X12835900Y12145000D02*
G01*
X12165300Y12145000D01*
X12165300Y12152600D01*
X12835900Y12152600D01*
X12835900Y12145000D01*
G37*
G36*
X12835900Y12152600D02*
G01*
X12172900Y12152600D01*
X12172900Y12160300D01*
X12835900Y12160300D01*
X12835900Y12152600D01*
G37*
G36*
X12835900Y12160300D02*
G01*
X12180600Y12160300D01*
X12180600Y12167900D01*
X12835900Y12167900D01*
X12835900Y12160300D01*
G37*
G36*
X12835900Y12167900D02*
G01*
X12180600Y12167900D01*
X12180600Y12175500D01*
X12835900Y12175500D01*
X12835900Y12167900D01*
G37*
G36*
X12835900Y12175500D02*
G01*
X12188200Y12175500D01*
X12188200Y12183100D01*
X12835900Y12183100D01*
X12835900Y12175500D01*
G37*
G36*
X12828300Y10941100D02*
G01*
X12028200Y10941100D01*
X12028200Y10948700D01*
X12828300Y10948700D01*
X12828300Y10941100D01*
G37*
G36*
X12820600Y10933400D02*
G01*
X12028200Y10933400D01*
X12028200Y10941100D01*
X12820600Y10941100D01*
X12820600Y10933400D01*
G37*
G36*
X12805400Y10925800D02*
G01*
X12028200Y10925800D01*
X12028200Y10933400D01*
X12805400Y10933400D01*
X12805400Y10925800D01*
G37*
G36*
X12797800Y10918200D02*
G01*
X12028200Y10918200D01*
X12028200Y10925800D01*
X12797800Y10925800D01*
X12797800Y10918200D01*
G37*
G36*
X12782500Y10910600D02*
G01*
X12028200Y10910600D01*
X12028200Y10918200D01*
X12782500Y10918200D01*
X12782500Y10910600D01*
G37*
G36*
X12774900Y10903000D02*
G01*
X12028200Y10903000D01*
X12028200Y10910600D01*
X12774900Y10910600D01*
X12774900Y10903000D01*
G37*
G36*
X12767300Y10895300D02*
G01*
X12028200Y10895300D01*
X12028200Y10903000D01*
X12767300Y10903000D01*
X12767300Y10895300D01*
G37*
G36*
X12752100Y10887700D02*
G01*
X12028200Y10887700D01*
X12028200Y10895300D01*
X12752100Y10895300D01*
X12752100Y10887700D01*
G37*
G36*
X12752100Y12800300D02*
G01*
X11212800Y12800300D01*
X11212800Y12808000D01*
X12752100Y12808000D01*
X12752100Y12800300D01*
G37*
G36*
X12744400Y10880100D02*
G01*
X12028200Y10880100D01*
X12028200Y10887700D01*
X12744400Y10887700D01*
X12744400Y10880100D01*
G37*
G36*
X12736800Y10872500D02*
G01*
X12028200Y10872500D01*
X12028200Y10880100D01*
X12736800Y10880100D01*
X12736800Y10872500D01*
G37*
G36*
X12721600Y10864900D02*
G01*
X12028200Y10864900D01*
X12028200Y10872500D01*
X12721600Y10872500D01*
X12721600Y10864900D01*
G37*
G36*
X12714000Y10857200D02*
G01*
X12028200Y10857200D01*
X12028200Y10864900D01*
X12714000Y10864900D01*
X12714000Y10857200D01*
G37*
G36*
X12706300Y10849600D02*
G01*
X12028200Y10849600D01*
X12028200Y10857200D01*
X12706300Y10857200D01*
X12706300Y10849600D01*
G37*
G36*
X12691100Y10842000D02*
G01*
X12028200Y10842000D01*
X12028200Y10849600D01*
X12691100Y10849600D01*
X12691100Y10842000D01*
G37*
G36*
X12691100Y12808000D02*
G01*
X11205200Y12808000D01*
X11205200Y12815600D01*
X12691100Y12815600D01*
X12691100Y12808000D01*
G37*
G36*
X12683500Y10834400D02*
G01*
X12028200Y10834400D01*
X12028200Y10842000D01*
X12683500Y10842000D01*
X12683500Y10834400D01*
G37*
G36*
X12668200Y10826800D02*
G01*
X12028200Y10826800D01*
X12028200Y10834400D01*
X12668200Y10834400D01*
X12668200Y10826800D01*
G37*
G36*
X12660600Y10819100D02*
G01*
X12028200Y10819100D01*
X12028200Y10826800D01*
X12660600Y10826800D01*
X12660600Y10819100D01*
G37*
G36*
X12653000Y10811500D02*
G01*
X12028200Y10811500D01*
X12028200Y10819100D01*
X12653000Y10819100D01*
X12653000Y10811500D01*
G37*
G36*
X12653000Y12815600D02*
G01*
X11190000Y12815600D01*
X11190000Y12823200D01*
X12653000Y12823200D01*
X12653000Y12815600D01*
G37*
G36*
X12637800Y10803900D02*
G01*
X12028200Y10803900D01*
X12028200Y10811500D01*
X12637800Y10811500D01*
X12637800Y10803900D01*
G37*
G36*
X12637800Y13509000D02*
G01*
X11212800Y13509000D01*
X11212800Y13516600D01*
X12637800Y13516600D01*
X12637800Y13509000D01*
G37*
G36*
X12630100Y10796300D02*
G01*
X12028200Y10796300D01*
X12028200Y10803900D01*
X12630100Y10803900D01*
X12630100Y10796300D01*
G37*
G36*
X12630100Y13516600D02*
G01*
X11235700Y13516600D01*
X11235700Y13524200D01*
X12630100Y13524200D01*
X12630100Y13516600D01*
G37*
G36*
X12622500Y10788700D02*
G01*
X12028200Y10788700D01*
X12028200Y10796300D01*
X12622500Y10796300D01*
X12622500Y10788700D01*
G37*
G36*
X12622500Y12823200D02*
G01*
X11182300Y12823200D01*
X11182300Y12830800D01*
X12622500Y12830800D01*
X12622500Y12823200D01*
G37*
G36*
X12622500Y13524200D02*
G01*
X11258500Y13524200D01*
X11258500Y13531900D01*
X12622500Y13531900D01*
X12622500Y13524200D01*
G37*
G36*
X12614900Y13531900D02*
G01*
X11281400Y13531900D01*
X11281400Y13539500D01*
X12614900Y13539500D01*
X12614900Y13531900D01*
G37*
G36*
X12607300Y10781000D02*
G01*
X12028200Y10781000D01*
X12028200Y10788700D01*
X12607300Y10788700D01*
X12607300Y10781000D01*
G37*
G36*
X12599700Y10773400D02*
G01*
X12028200Y10773400D01*
X12028200Y10781000D01*
X12599700Y10781000D01*
X12599700Y10773400D01*
G37*
G36*
X12599700Y13539500D02*
G01*
X11304300Y13539500D01*
X11304300Y13547100D01*
X12599700Y13547100D01*
X12599700Y13539500D01*
G37*
G36*
X12592000Y10765800D02*
G01*
X12028200Y10765800D01*
X12028200Y10773400D01*
X12592000Y10773400D01*
X12592000Y10765800D01*
G37*
G36*
X12592000Y12830800D02*
G01*
X11167100Y12830800D01*
X11167100Y12838400D01*
X12592000Y12838400D01*
X12592000Y12830800D01*
G37*
G36*
X12592000Y13547100D02*
G01*
X11334700Y13547100D01*
X11334700Y13554700D01*
X12592000Y13554700D01*
X12592000Y13547100D01*
G37*
G36*
X12584400Y13554700D02*
G01*
X11357600Y13554700D01*
X11357600Y13562300D01*
X12584400Y13562300D01*
X12584400Y13554700D01*
G37*
G36*
X12576800Y10758200D02*
G01*
X12028200Y10758200D01*
X12028200Y10765800D01*
X12576800Y10765800D01*
X12576800Y10758200D01*
G37*
G36*
X12576800Y13562300D02*
G01*
X11380500Y13562300D01*
X11380500Y13570000D01*
X12576800Y13570000D01*
X12576800Y13562300D01*
G37*
G36*
X12569200Y10750600D02*
G01*
X12028200Y10750600D01*
X12028200Y10758200D01*
X12569200Y10758200D01*
X12569200Y10750600D01*
G37*
G36*
X12569200Y12838400D02*
G01*
X11159500Y12838400D01*
X11159500Y12846100D01*
X12569200Y12846100D01*
X12569200Y12838400D01*
G37*
G36*
X12561600Y13570000D02*
G01*
X11403300Y13570000D01*
X11403300Y13577600D01*
X12561600Y13577600D01*
X12561600Y13570000D01*
G37*
G36*
X12553900Y10742900D02*
G01*
X12028200Y10742900D01*
X12028200Y10750600D01*
X12553900Y10750600D01*
X12553900Y10742900D01*
G37*
G36*
X12553900Y13577600D02*
G01*
X11426200Y13577600D01*
X11426200Y13585200D01*
X12553900Y13585200D01*
X12553900Y13577600D01*
G37*
G36*
X12546300Y10735300D02*
G01*
X12028200Y10735300D01*
X12028200Y10742900D01*
X12546300Y10742900D01*
X12546300Y10735300D01*
G37*
G36*
X12546300Y12846100D02*
G01*
X11151900Y12846100D01*
X11151900Y12853700D01*
X12546300Y12853700D01*
X12546300Y12846100D01*
G37*
G36*
X12546300Y13585200D02*
G01*
X11449000Y13585200D01*
X11449000Y13592800D01*
X12546300Y13592800D01*
X12546300Y13585200D01*
G37*
G36*
X12538700Y10727700D02*
G01*
X12028200Y10727700D01*
X12028200Y10735300D01*
X12538700Y10735300D01*
X12538700Y10727700D01*
G37*
G36*
X12531100Y12853700D02*
G01*
X11136600Y12853700D01*
X11136600Y12861300D01*
X12531100Y12861300D01*
X12531100Y12853700D01*
G37*
G36*
X12531100Y13592800D02*
G01*
X11471900Y13592800D01*
X11471900Y13600400D01*
X12531100Y13600400D01*
X12531100Y13592800D01*
G37*
G36*
X12523500Y10720100D02*
G01*
X12028200Y10720100D01*
X12028200Y10727700D01*
X12523500Y10727700D01*
X12523500Y10720100D01*
G37*
G36*
X12523500Y13082300D02*
G01*
X10824200Y13082300D01*
X10824200Y13089900D01*
X12523500Y13089900D01*
X12523500Y13082300D01*
G37*
G36*
X12523500Y13600400D02*
G01*
X11502400Y13600400D01*
X11502400Y13608100D01*
X12523500Y13608100D01*
X12523500Y13600400D01*
G37*
G36*
X12515800Y10712500D02*
G01*
X12028200Y10712500D01*
X12028200Y10720100D01*
X12515800Y10720100D01*
X12515800Y10712500D01*
G37*
G36*
X12515800Y12861300D02*
G01*
X11129000Y12861300D01*
X11129000Y12868900D01*
X12515800Y12868900D01*
X12515800Y12861300D01*
G37*
G36*
X12508200Y10704800D02*
G01*
X12028200Y10704800D01*
X12028200Y10712500D01*
X12508200Y10712500D01*
X12508200Y10704800D01*
G37*
G36*
X12508200Y13608100D02*
G01*
X11525200Y13608100D01*
X11525200Y13615700D01*
X12508200Y13615700D01*
X12508200Y13608100D01*
G37*
G36*
X12500600Y13615700D02*
G01*
X11548100Y13615700D01*
X11548100Y13623300D01*
X12500600Y13623300D01*
X12500600Y13615700D01*
G37*
G36*
X12493000Y10697200D02*
G01*
X12028200Y10697200D01*
X12028200Y10704800D01*
X12493000Y10704800D01*
X12493000Y10697200D01*
G37*
G36*
X12493000Y12868900D02*
G01*
X11113800Y12868900D01*
X11113800Y12876500D01*
X12493000Y12876500D01*
X12493000Y12868900D01*
G37*
G36*
X12485400Y10689600D02*
G01*
X12035800Y10689600D01*
X12035800Y10697200D01*
X12485400Y10697200D01*
X12485400Y10689600D01*
G37*
G36*
X12485400Y12876500D02*
G01*
X11106100Y12876500D01*
X11106100Y12884200D01*
X12485400Y12884200D01*
X12485400Y12876500D01*
G37*
G36*
X12485400Y13074700D02*
G01*
X10831800Y13074700D01*
X10831800Y13082300D01*
X12485400Y13082300D01*
X12485400Y13074700D01*
G37*
G36*
X12485400Y13623300D02*
G01*
X11571000Y13623300D01*
X11571000Y13630900D01*
X12485400Y13630900D01*
X12485400Y13623300D01*
G37*
G36*
X12477700Y10682000D02*
G01*
X12035800Y10682000D01*
X12035800Y10689600D01*
X12477700Y10689600D01*
X12477700Y10682000D01*
G37*
G36*
X12477700Y13630900D02*
G01*
X11593800Y13630900D01*
X11593800Y13638500D01*
X12477700Y13638500D01*
X12477700Y13630900D01*
G37*
G36*
X12470100Y12884200D02*
G01*
X11098500Y12884200D01*
X11098500Y12891800D01*
X12470100Y12891800D01*
X12470100Y12884200D01*
G37*
G36*
X12462500Y10674400D02*
G01*
X12035800Y10674400D01*
X12035800Y10682000D01*
X12462500Y10682000D01*
X12462500Y10674400D01*
G37*
G36*
X12462500Y12427000D02*
G01*
X11776700Y12427000D01*
X11776700Y12434600D01*
X12462500Y12434600D01*
X12462500Y12427000D01*
G37*
G36*
X12462500Y13067000D02*
G01*
X10847100Y13067000D01*
X10847100Y13074700D01*
X12462500Y13074700D01*
X12462500Y13067000D01*
G37*
G36*
X12462500Y13638500D02*
G01*
X11616700Y13638500D01*
X11616700Y13646200D01*
X12462500Y13646200D01*
X12462500Y13638500D01*
G37*
G36*
X12454900Y10666700D02*
G01*
X12035800Y10666700D01*
X12035800Y10674400D01*
X12454900Y10674400D01*
X12454900Y10666700D01*
G37*
G36*
X12454900Y12891800D02*
G01*
X11083300Y12891800D01*
X11083300Y12899400D01*
X12454900Y12899400D01*
X12454900Y12891800D01*
G37*
G36*
X12447300Y12899400D02*
G01*
X11075700Y12899400D01*
X11075700Y12907000D01*
X12447300Y12907000D01*
X12447300Y12899400D01*
G37*
G36*
X12447300Y13059400D02*
G01*
X10854700Y13059400D01*
X10854700Y13067000D01*
X12447300Y13067000D01*
X12447300Y13059400D01*
G37*
G36*
X12447300Y13646200D02*
G01*
X11639500Y13646200D01*
X11639500Y13653800D01*
X12447300Y13653800D01*
X12447300Y13646200D01*
G37*
G36*
X12439600Y10659100D02*
G01*
X12035800Y10659100D01*
X12035800Y10666700D01*
X12439600Y10666700D01*
X12439600Y10659100D01*
G37*
G36*
X12439600Y12419300D02*
G01*
X11799600Y12419300D01*
X11799600Y12427000D01*
X12439600Y12427000D01*
X12439600Y12419300D01*
G37*
G36*
X12432000Y10651500D02*
G01*
X12043400Y10651500D01*
X12043400Y10659100D01*
X12432000Y10659100D01*
X12432000Y10651500D01*
G37*
G36*
X12432000Y12907000D02*
G01*
X11068000Y12907000D01*
X11068000Y12914600D01*
X12432000Y12914600D01*
X12432000Y12907000D01*
G37*
G36*
X12432000Y13051800D02*
G01*
X10862300Y13051800D01*
X10862300Y13059400D01*
X12432000Y13059400D01*
X12432000Y13051800D01*
G37*
G36*
X12432000Y13653800D02*
G01*
X11662400Y13653800D01*
X11662400Y13661400D01*
X12432000Y13661400D01*
X12432000Y13653800D01*
G37*
G36*
X12424400Y10643900D02*
G01*
X12043400Y10643900D01*
X12043400Y10651500D01*
X12424400Y10651500D01*
X12424400Y10643900D01*
G37*
G36*
X12424400Y12914600D02*
G01*
X11052800Y12914600D01*
X11052800Y12922300D01*
X12424400Y12922300D01*
X12424400Y12914600D01*
G37*
G36*
X12416800Y12411700D02*
G01*
X11814800Y12411700D01*
X11814800Y12419300D01*
X12416800Y12419300D01*
X12416800Y12411700D01*
G37*
G36*
X12416800Y12922300D02*
G01*
X11045200Y12922300D01*
X11045200Y12929900D01*
X12416800Y12929900D01*
X12416800Y12922300D01*
G37*
G36*
X12416800Y13044200D02*
G01*
X10877500Y13044200D01*
X10877500Y13051800D01*
X12416800Y13051800D01*
X12416800Y13044200D01*
G37*
G36*
X12416800Y13661400D02*
G01*
X11692900Y13661400D01*
X11692900Y13669000D01*
X12416800Y13669000D01*
X12416800Y13661400D01*
G37*
G36*
X12409200Y10636300D02*
G01*
X12043400Y10636300D01*
X12043400Y10643900D01*
X12409200Y10643900D01*
X12409200Y10636300D01*
G37*
G36*
X12409200Y12929900D02*
G01*
X11029900Y12929900D01*
X11029900Y12937500D01*
X12409200Y12937500D01*
X12409200Y12929900D01*
G37*
G36*
X12409200Y13036600D02*
G01*
X10885200Y13036600D01*
X10885200Y13044200D01*
X12409200Y13044200D01*
X12409200Y13036600D01*
G37*
G36*
X12401500Y10628600D02*
G01*
X12051000Y10628600D01*
X12051000Y10636300D01*
X12401500Y10636300D01*
X12401500Y10628600D01*
G37*
G36*
X12401500Y12404100D02*
G01*
X11837700Y12404100D01*
X11837700Y12411700D01*
X12401500Y12411700D01*
X12401500Y12404100D01*
G37*
G36*
X12401500Y12937500D02*
G01*
X11022300Y12937500D01*
X11022300Y12945100D01*
X12401500Y12945100D01*
X12401500Y12937500D01*
G37*
G36*
X12401500Y12945100D02*
G01*
X11014700Y12945100D01*
X11014700Y12952700D01*
X12401500Y12952700D01*
X12401500Y12945100D01*
G37*
G36*
X12401500Y13028900D02*
G01*
X10892800Y13028900D01*
X10892800Y13036600D01*
X12401500Y13036600D01*
X12401500Y13028900D01*
G37*
G36*
X12401500Y13669000D02*
G01*
X11715700Y13669000D01*
X11715700Y13676600D01*
X12401500Y13676600D01*
X12401500Y13669000D01*
G37*
G36*
X12393900Y10621000D02*
G01*
X12051000Y10621000D01*
X12051000Y10628600D01*
X12393900Y10628600D01*
X12393900Y10621000D01*
G37*
G36*
X12393900Y12952700D02*
G01*
X10999500Y12952700D01*
X10999500Y12960400D01*
X12393900Y12960400D01*
X12393900Y12952700D01*
G37*
G36*
X12393900Y13021300D02*
G01*
X10908000Y13021300D01*
X10908000Y13028900D01*
X12393900Y13028900D01*
X12393900Y13021300D01*
G37*
G36*
X12386300Y12960400D02*
G01*
X10991800Y12960400D01*
X10991800Y12968000D01*
X12386300Y12968000D01*
X12386300Y12960400D01*
G37*
G36*
X12386300Y12968000D02*
G01*
X10976600Y12968000D01*
X10976600Y12975600D01*
X12386300Y12975600D01*
X12386300Y12968000D01*
G37*
G36*
X12386300Y12975600D02*
G01*
X10969000Y12975600D01*
X10969000Y12983200D01*
X12386300Y12983200D01*
X12386300Y12975600D01*
G37*
G36*
X12386300Y12983200D02*
G01*
X10961400Y12983200D01*
X10961400Y12990800D01*
X12386300Y12990800D01*
X12386300Y12983200D01*
G37*
G36*
X12386300Y12990800D02*
G01*
X10946100Y12990800D01*
X10946100Y12998500D01*
X12386300Y12998500D01*
X12386300Y12990800D01*
G37*
G36*
X12386300Y12998500D02*
G01*
X10938500Y12998500D01*
X10938500Y13006100D01*
X12386300Y13006100D01*
X12386300Y12998500D01*
G37*
G36*
X12386300Y13006100D02*
G01*
X10923300Y13006100D01*
X10923300Y13013700D01*
X12386300Y13013700D01*
X12386300Y13006100D01*
G37*
G36*
X12386300Y13013700D02*
G01*
X10915600Y13013700D01*
X10915600Y13021300D01*
X12386300Y13021300D01*
X12386300Y13013700D01*
G37*
G36*
X12378700Y10613400D02*
G01*
X12058600Y10613400D01*
X12058600Y10621000D01*
X12378700Y10621000D01*
X12378700Y10613400D01*
G37*
G36*
X12378700Y12396500D02*
G01*
X11860500Y12396500D01*
X11860500Y12404100D01*
X12378700Y12404100D01*
X12378700Y12396500D01*
G37*
G36*
X12378700Y13676600D02*
G01*
X11738600Y13676600D01*
X11738600Y13684300D01*
X12378700Y13684300D01*
X12378700Y13676600D01*
G37*
G36*
X12371100Y10605800D02*
G01*
X12066300Y10605800D01*
X12066300Y10613400D01*
X12371100Y10613400D01*
X12371100Y10605800D01*
G37*
G36*
X12363400Y13684300D02*
G01*
X11761500Y13684300D01*
X11761500Y13691900D01*
X12363400Y13691900D01*
X12363400Y13684300D01*
G37*
G36*
X12355800Y10598200D02*
G01*
X12066300Y10598200D01*
X12066300Y10605800D01*
X12355800Y10605800D01*
X12355800Y10598200D01*
G37*
G36*
X12355800Y12388900D02*
G01*
X11883400Y12388900D01*
X11883400Y12396500D01*
X12355800Y12396500D01*
X12355800Y12388900D01*
G37*
G36*
X12348200Y10590500D02*
G01*
X12073900Y10590500D01*
X12073900Y10598200D01*
X12348200Y10598200D01*
X12348200Y10590500D01*
G37*
G36*
X12340600Y10582900D02*
G01*
X12081500Y10582900D01*
X12081500Y10590500D01*
X12340600Y10590500D01*
X12340600Y10582900D01*
G37*
G36*
X12340600Y13691900D02*
G01*
X11784300Y13691900D01*
X11784300Y13699500D01*
X12340600Y13699500D01*
X12340600Y13691900D01*
G37*
G36*
X12333000Y12381200D02*
G01*
X11906200Y12381200D01*
X11906200Y12388900D01*
X12333000Y12388900D01*
X12333000Y12381200D01*
G37*
G36*
X12325300Y10575300D02*
G01*
X12096700Y10575300D01*
X12096700Y10582900D01*
X12325300Y10582900D01*
X12325300Y10575300D01*
G37*
G36*
X12310100Y10567700D02*
G01*
X12104400Y10567700D01*
X12104400Y10575300D01*
X12310100Y10575300D01*
X12310100Y10567700D01*
G37*
G36*
X12310100Y13699500D02*
G01*
X11814800Y13699500D01*
X11814800Y13707100D01*
X12310100Y13707100D01*
X12310100Y13699500D01*
G37*
G36*
X12302500Y10560100D02*
G01*
X12119600Y10560100D01*
X12119600Y10567700D01*
X12302500Y10567700D01*
X12302500Y10560100D01*
G37*
G36*
X12302500Y12373600D02*
G01*
X11936700Y12373600D01*
X11936700Y12381200D01*
X12302500Y12381200D01*
X12302500Y12373600D01*
G37*
G36*
X12287200Y10552400D02*
G01*
X12134800Y10552400D01*
X12134800Y10560100D01*
X12287200Y10560100D01*
X12287200Y10552400D01*
G37*
G36*
X12287200Y13707100D02*
G01*
X11852900Y13707100D01*
X11852900Y13714700D01*
X12287200Y13714700D01*
X12287200Y13707100D01*
G37*
G36*
X12272000Y12366000D02*
G01*
X11974800Y12366000D01*
X11974800Y12373600D01*
X12272000Y12373600D01*
X12272000Y12366000D01*
G37*
G36*
X12264400Y10544800D02*
G01*
X12150100Y10544800D01*
X12150100Y10552400D01*
X12264400Y10552400D01*
X12264400Y10544800D01*
G37*
G36*
X12249100Y13714700D02*
G01*
X11891000Y13714700D01*
X11891000Y13722400D01*
X12249100Y13722400D01*
X12249100Y13714700D01*
G37*
G36*
X12241500Y10537200D02*
G01*
X12172900Y10537200D01*
X12172900Y10544800D01*
X12241500Y10544800D01*
X12241500Y10537200D01*
G37*
G36*
X12233900Y12358400D02*
G01*
X12012900Y12358400D01*
X12012900Y12366000D01*
X12233900Y12366000D01*
X12233900Y12358400D01*
G37*
G36*
X12203400Y13722400D02*
G01*
X11944300Y13722400D01*
X11944300Y13730000D01*
X12203400Y13730000D01*
X12203400Y13722400D01*
G37*
G36*
X12165300Y12350800D02*
G01*
X12089100Y12350800D01*
X12089100Y12358400D01*
X12165300Y12358400D01*
X12165300Y12350800D01*
G37*
G36*
X12127200Y13730000D02*
G01*
X12028200Y13730000D01*
X12028200Y13737600D01*
X12127200Y13737600D01*
X12127200Y13730000D01*
G37*
%TD*%
%LPC*%
D13*
%TO.C,JP3*%
X1905000Y16510000D03*
%TD*%
D14*
%TO.C,U$9*%
X20955000Y2540000D03*
%TD*%
%TO.C,U$11*%
X5207000Y2540000D03*
%TD*%
D13*
%TO.C,JP2*%
X9525000Y16510000D03*
X12065000Y16510000D03*
%TD*%
D14*
%TO.C,U$10*%
X20955000Y16510000D03*
%TD*%
D15*
%TO.C,X1*%
X5191000Y11725000D03*
X5191000Y7325000D03*
%TD*%
D13*
%TO.C,JP1*%
X17145000Y16510000D03*
X14605000Y16510000D03*
%TD*%
D14*
%TO.C,U$12*%
X5207000Y16510000D03*
%TD*%
%LPD*%
M02*
