%TF.GenerationSoftware,KiCad,Pcbnew,10.99.0-3671-gbe90a7e200*%
%TF.CreationDate,2026-09-10T01:15:00+01:00*%
%TF.ProjectId,kicad_file,6b696361-645f-4666-996c-652e6b696361,rev?*%
%TF.SameCoordinates,Original*%
%TF.FileFunction,Copper,L1,Top*%
%TF.FilePolarity,Positive*%
%FSLAX46Y46*%
G04 Gerber Fmt 4.6, Leading zero omitted, Abs format (unit mm)*
G04 Created by KiCad (PCBNEW 10.99.0-3671-gbe90a7e200) date 2026-09-10 01:15:00*
%MOMM*%
%LPD*%
G01*
G04 APERTURE LIST*
G04 Aperture macros list*
%AMRoundRect*
0 Rectangle with rounded corners*
0 $1 Rounding radius*
0 $2 $3 $4 $5 $6 $7 $8 $9 X,Y pos of 4 corners*
0 Add a 4 corners polygon primitive as box body*
4,1,4,$2,$3,$4,$5,$6,$7,$8,$9,$2,$3,0*
0 Add four circle primitives for the rounded corners*
1,1,$1+$1,$2,$3*
1,1,$1+$1,$4,$5*
1,1,$1+$1,$6,$7*
1,1,$1+$1,$8,$9*
0 Add four rect primitives between the rounded corners*
20,1,$1+$1,$2,$3,$4,$5,0*
20,1,$1+$1,$4,$5,$6,$7,0*
20,1,$1+$1,$6,$7,$8,$9,0*
20,1,$1+$1,$8,$9,$2,$3,0*%
%AMRotRect*
0 Rectangle, with rotation*
0 The origin of the aperture is its center*
0 $1 length*
0 $2 width*
0 $3 Rotation angle, in degrees counterclockwise*
0 Add horizontal line*
21,1,$1,$2,0,0,$3*%
G04 Aperture macros list end*
%TA.AperFunction,SMDPad,CuDef*%
%ADD10RotRect,2.000000X2.000000X45.000000*%
%TD*%
%TA.AperFunction,SMDPad,CuDef*%
%ADD11RoundRect,0.050000X-0.050000X0.300000X-0.050000X-0.300000X0.050000X-0.300000X0.050000X0.300000X0*%
%TD*%
%TA.AperFunction,SMDPad,CuDef*%
%ADD12RoundRect,0.050000X0.300000X0.050000X-0.300000X0.050000X-0.300000X-0.050000X0.300000X-0.050000X0*%
%TD*%
%TA.AperFunction,SMDPad,CuDef*%
%ADD13RoundRect,0.200000X0.600000X-0.600000X0.600000X0.600000X-0.600000X0.600000X-0.600000X-0.600000X0*%
%TD*%
%TA.AperFunction,SMDPad,CuDef*%
%ADD14R,0.450000X0.900000*%
%TD*%
%TA.AperFunction,SMDPad,CuDef*%
%ADD15R,0.800000X0.800000*%
%TD*%
%TA.AperFunction,SMDPad,CuDef*%
%ADD16RotRect,1.000000X0.700000X-135.000000*%
%TD*%
%TA.AperFunction,SMDPad,CuDef*%
%ADD17RotRect,2.000000X2.000000X-45.000000*%
%TD*%
%TA.AperFunction,SMDPad,CuDef*%
%ADD18RoundRect,0.500000X-0.000010X-0.000010X0.000010X-0.000010X0.000010X0.000010X-0.000010X0.000010X0*%
%TD*%
%TA.AperFunction,ComponentPad*%
%ADD19C,3.200000*%
%TD*%
%TA.AperFunction,SMDPad,CuDef*%
%ADD20RotRect,2.000000X2.000000X135.000000*%
%TD*%
%TA.AperFunction,SMDPad,CuDef*%
%ADD21R,1.075000X1.000000*%
%TD*%
%TA.AperFunction,SMDPad,CuDef*%
%ADD22R,0.600000X1.550000*%
%TD*%
%TA.AperFunction,SMDPad,CuDef*%
%ADD23R,1.200000X1.800000*%
%TD*%
%TA.AperFunction,ComponentPad*%
%ADD24C,1.676400*%
%TD*%
%TA.AperFunction,WasherPad*%
%ADD25C,1.955600*%
%TD*%
%TA.AperFunction,ComponentPad*%
%ADD26O,1.500000X3.000000*%
%TD*%
%TA.AperFunction,ComponentPad*%
%ADD27O,3.000000X1.500000*%
%TD*%
%TA.AperFunction,SMDPad,CuDef*%
%ADD28R,1.500000X1.240000*%
%TD*%
%TA.AperFunction,ViaPad*%
%ADD29C,0.889000*%
%TD*%
%TA.AperFunction,ViaPad*%
%ADD30C,0.906400*%
%TD*%
%TA.AperFunction,Conductor*%
%ADD31C,0.203200*%
%TD*%
%TA.AperFunction,Conductor*%
%ADD32C,0.254000*%
%TD*%
%TA.AperFunction,Conductor*%
%ADD33C,0.177800*%
%TD*%
G04 APERTURE END LIST*
D10*
%TO.P,SW2,P$1*%
%TO.N,GND*%
X42126320Y18758320D03*
%TO.P,SW2,P$2*%
%TO.N,BUTT_X*%
X37883680Y14515680D03*
%TD*%
D11*
%TO.P,X1,1*%
%TO.N,JOY_X*%
X24600000Y12824000D03*
%TO.P,X1,2*%
%TO.N,BUTT_START*%
X25000000Y12824000D03*
%TO.P,X1,3*%
%TO.N,GND*%
X25400000Y12824000D03*
%TO.P,X1,4*%
%TO.N,VCC*%
X25800000Y12824000D03*
%TO.P,X1,5*%
%TO.N,BUTT_SEL*%
X26200000Y12824000D03*
D12*
%TO.P,X1,6*%
%TO.N,BUTT_B*%
X26800000Y13424000D03*
%TO.P,X1,7*%
%TO.N,BUTT_Y*%
X26800000Y13824000D03*
%TO.P,X1,8*%
%TO.N,ADDR0*%
X26800000Y14224000D03*
%TO.P,X1,9*%
%TO.N,ADDR1*%
X26800000Y14624000D03*
%TO.P,X1,10*%
%TO.N,BUTT_A*%
X26800000Y15024000D03*
D11*
%TO.P,X1,11*%
%TO.N,BUTT_X*%
X26200000Y15624000D03*
%TO.P,X1,12*%
%TO.N,IRQ*%
X25800000Y15624000D03*
%TO.P,X1,13*%
%TO.N,SDA*%
X25400000Y15624000D03*
%TO.P,X1,14*%
%TO.N,SCL*%
X25000000Y15624000D03*
%TO.P,X1,15*%
%TO.N,N/C*%
X24600000Y15624000D03*
D12*
%TO.P,X1,16*%
X24000000Y15024000D03*
%TO.P,X1,17*%
X24000000Y14624000D03*
%TO.P,X1,18*%
X24000000Y14224000D03*
%TO.P,X1,19*%
%TO.N,UPDI*%
X24000000Y13824000D03*
%TO.P,X1,20*%
%TO.N,JOY_Y*%
X24000000Y13424000D03*
D13*
%TO.P,X1,PAD*%
%TO.N,GND*%
X25400000Y14224000D03*
%TD*%
D14*
%TO.P,R1,1*%
%TO.N,GND*%
X34447000Y18630000D03*
%TO.P,R1,2*%
%TO.N,VCC*%
X33547000Y18630000D03*
%TO.P,R1,3*%
%TO.N,GND*%
X32747000Y18630000D03*
%TO.P,R1,4*%
X31847000Y18630000D03*
%TO.P,R1,5*%
%TO.N,N$3*%
X31847000Y16930000D03*
%TO.P,R1,6*%
%TO.N,N$2*%
X32747000Y16930000D03*
%TO.P,R1,7*%
%TO.N,UPDI*%
X33547000Y16930000D03*
%TO.P,R1,8*%
%TO.N,GND*%
X34447000Y16930000D03*
%TD*%
D15*
%TO.P,D3,A*%
%TO.N,N$1*%
X21082000Y20332000D03*
%TO.P,D3,C*%
%TO.N,GND*%
X21082000Y21832000D03*
%TD*%
D16*
%TO.P,SW6,A*%
%TO.N,GND*%
X28956018Y4702739D03*
%TO.P,SW6,A'*%
X31746261Y7492982D03*
%TO.P,SW6,B*%
%TO.N,BUTT_SEL*%
X27435739Y6223018D03*
%TO.P,SW6,B'*%
X30225982Y9013261D03*
%TD*%
D17*
%TO.P,SW4,P$1*%
%TO.N,GND*%
X47206320Y9308680D03*
%TO.P,SW4,P$2*%
%TO.N,BUTT_A*%
X42963680Y13551320D03*
%TD*%
D15*
%TO.P,D4,A*%
%TO.N,N$4*%
X29972000Y21705000D03*
%TO.P,D4,C*%
%TO.N,IRQ*%
X29972000Y20205000D03*
%TD*%
D10*
%TO.P,SW3,P$1*%
%TO.N,GND*%
X42126320Y8344320D03*
%TO.P,SW3,P$2*%
%TO.N,BUTT_B*%
X37883680Y4101680D03*
%TD*%
D18*
%TO.P,FID2,1*%
%TO.N,N/C*%
X49149000Y6096000D03*
%TD*%
D19*
%TO.P,U$1,P$1*%
%TO.N,N/C*%
X2540000Y20320000D03*
%TD*%
D20*
%TO.P,SW1,P$1*%
%TO.N,GND*%
X32676680Y13551320D03*
%TO.P,SW1,P$2*%
%TO.N,BUTT_Y*%
X36919320Y9308680D03*
%TD*%
D21*
%TO.P,C5,1*%
%TO.N,VCC*%
X25869000Y10922000D03*
%TO.P,C5,2*%
%TO.N,GND*%
X24169000Y10922000D03*
%TD*%
D22*
%TO.P,CONN3,1*%
%TO.N,GND*%
X26900000Y17806000D03*
%TO.P,CONN3,2*%
%TO.N,VCC*%
X25900000Y17806000D03*
%TO.P,CONN3,3*%
%TO.N,SDA*%
X24900000Y17806000D03*
%TO.P,CONN3,4*%
%TO.N,SCL*%
X23900000Y17806000D03*
D23*
%TO.P,CONN3,MT1*%
%TO.N,GND*%
X28200000Y21706000D03*
%TO.P,CONN3,MT2*%
X22600000Y21706000D03*
%TD*%
D19*
%TO.P,U$3,P$1*%
%TO.N,N/C*%
X48260000Y20320000D03*
%TD*%
D18*
%TO.P,FID1,1*%
%TO.N,N/C*%
X3810000Y15748000D03*
%TD*%
D19*
%TO.P,U$4,P$1*%
%TO.N,N/C*%
X48260000Y2540000D03*
%TD*%
D14*
%TO.P,R6,1*%
%TO.N,VCC*%
X34447000Y21805000D03*
%TO.P,R6,2*%
X33547000Y21805000D03*
%TO.P,R6,3*%
%TO.N,N$1*%
X32747000Y21805000D03*
%TO.P,R6,4*%
%TO.N,N$4*%
X31847000Y21805000D03*
%TO.P,R6,5*%
%TO.N,VCC*%
X31847000Y20105000D03*
%TO.P,R6,6*%
X32747000Y20105000D03*
%TO.P,R6,7*%
%TO.N,SDA*%
X33547000Y20105000D03*
%TO.P,R6,8*%
%TO.N,SCL*%
X34447000Y20105000D03*
%TD*%
D24*
%TO.P,JP2,1*%
%TO.N,VCC*%
X19050000Y1905000D03*
%TO.P,JP2,2*%
%TO.N,GND*%
X21590000Y1905000D03*
%TO.P,JP2,3*%
%TO.N,SCL*%
X24130000Y1905000D03*
%TO.P,JP2,4*%
%TO.N,SDA*%
X26670000Y1905000D03*
%TO.P,JP2,5*%
%TO.N,IRQ*%
X29210000Y1905000D03*
%TO.P,JP2,6*%
%TO.N,UPDI*%
X31750000Y1905000D03*
%TD*%
D25*
%TO.P,JOY2,*%
%TO.N,*%
X5430000Y17430000D03*
X17430000Y5430000D03*
D26*
%TO.P,JOY2,X*%
%TO.N,JOY_X*%
X11430000Y20430000D03*
%TO.P,JOY2,X+*%
%TO.N,VCC*%
X13430000Y20430000D03*
%TO.P,JOY2,X-*%
%TO.N,GND*%
X9430000Y20430000D03*
D27*
%TO.P,JOY2,Y*%
%TO.N,JOY_Y*%
X20430000Y11430000D03*
%TO.P,JOY2,Y+*%
%TO.N,VCC*%
X20430000Y13430000D03*
%TO.P,JOY2,Y-*%
%TO.N,GND*%
X20430000Y9430000D03*
%TD*%
D19*
%TO.P,U$2,P$1*%
%TO.N,N/C*%
X2540000Y2540000D03*
%TD*%
D16*
%TO.P,SW7,A*%
%TO.N,GND*%
X23114018Y4067739D03*
%TO.P,SW7,A'*%
X25904261Y6857982D03*
%TO.P,SW7,B*%
%TO.N,BUTT_START*%
X21593739Y5588018D03*
%TO.P,SW7,B'*%
X24383982Y8378261D03*
%TD*%
D28*
%TO.P,C1,1*%
%TO.N,VCC*%
X22542500Y17079000D03*
%TO.P,C1,2*%
%TO.N,GND*%
X22542500Y15179000D03*
%TD*%
D29*
%TO.N,GND*%
X25463500Y14224000D03*
X30035500Y16573500D03*
X45339000Y11557000D03*
X39814500Y5651500D03*
X24193500Y21717000D03*
X39751000Y17208500D03*
X27813000Y18796000D03*
X24320500Y9715500D03*
X35496500Y12382500D03*
%TO.N,ADDR0*%
X29044900Y13144500D03*
%TO.N,ADDR1*%
X28956000Y14236600D03*
%TO.N,SDA*%
X35687000Y20955000D03*
X24841200Y19253200D03*
%TO.N,SCL*%
X35737800Y19812000D03*
X23749000Y19253200D03*
%TO.N,VCC*%
X25908000Y19558000D03*
X30607000Y19177000D03*
X25781000Y9652000D03*
%TO.N,UPDI*%
X35052000Y14732000D03*
D30*
X20320000Y4064000D03*
X22860000Y13462000D03*
D29*
%TO.N,IRQ*%
X29083000Y17145000D03*
%TO.N,N$2*%
X33061662Y15662662D03*
%TO.N,N$3*%
X31877000Y15748000D03*
%TD*%
%TO.N,GND*%
D31*
X25400000Y12001500D02*
X24320500Y10922000D01*
X25400000Y12824000D02*
X25400000Y14224000D01*
X24320500Y10922000D02*
X24169000Y10922000D01*
X25400000Y12824000D02*
X25400000Y12001500D01*
%TO.N,BUTT_START*%
X24555500Y11874500D02*
X23431500Y11874500D01*
D32*
X21593737Y5588015D02*
X21597268Y5583640D01*
X24383981Y8378259D02*
X24447646Y8180018D01*
X21844000Y5576371D02*
X21844000Y5830371D01*
X24447646Y8180018D02*
X23241000Y6973371D01*
X21844000Y5830371D02*
X21597268Y5583640D01*
D31*
X25000000Y12824000D02*
X25000000Y12319000D01*
D32*
X23241000Y11684000D02*
X23241000Y6973371D01*
X23431500Y11874500D02*
X23241000Y11684000D01*
D31*
X25000000Y12319000D02*
X24555500Y11874500D01*
D32*
X23241000Y6973371D02*
X21844000Y5576371D01*
%TO.N,JOY_Y*%
D31*
X24000000Y12916000D02*
X23746000Y12662000D01*
X22857000Y12662000D02*
X21625000Y11430000D01*
X21625000Y11430000D02*
X20430000Y11430000D01*
X23746000Y12662000D02*
X22857000Y12662000D01*
X24000000Y13424000D02*
X24000000Y12916000D01*
%TO.N,JOY_X*%
X11430000Y20430000D02*
X11430000Y14986000D01*
X22606000Y9017000D02*
X21463000Y7874000D01*
X21463000Y7874000D02*
X18542000Y7874000D01*
X24600000Y12824000D02*
X24600000Y12570000D01*
X24600000Y12570000D02*
X24310900Y12280900D01*
X22606000Y11623737D02*
X22606000Y9017000D01*
X24310900Y12280900D02*
X23263162Y12280900D01*
X23263162Y12280900D02*
X22606000Y11623737D01*
X18542000Y7874000D02*
X11430000Y14986000D01*
%TO.N,BUTT_A*%
D33*
X29426000Y15024000D02*
X29972000Y14478000D01*
X29972000Y11633356D02*
X30650262Y10955093D01*
X30650262Y10955093D02*
X36355093Y10955093D01*
D31*
X37846000Y12446000D02*
X41910000Y12446000D01*
D33*
X36355093Y10955093D02*
X37846000Y12446000D01*
X26800000Y15024000D02*
X29426000Y15024000D01*
X29972000Y14478000D02*
X29972000Y11633356D01*
D31*
X41910000Y12446000D02*
X42963678Y13499678D01*
X42963678Y13499678D02*
X42963678Y13551318D01*
%TO.N,BUTT_B*%
X37883678Y4101678D02*
X37883678Y4101681D01*
X26800000Y13424000D02*
X30229000Y9995000D01*
X37883678Y4445000D02*
X37883678Y4101681D01*
X30229000Y9995000D02*
X32477253Y9995000D01*
X32477253Y9995000D02*
X37883678Y4588575D01*
X37883678Y4588575D02*
X37883678Y4445000D01*
%TO.N,BUTT_Y*%
X26800000Y13824000D02*
X27260500Y13824000D01*
X27260500Y13824000D02*
X30497706Y10586793D01*
X30497706Y10586793D02*
X33101206Y10586793D01*
X34379321Y9308678D02*
X36919318Y9308678D01*
X33101206Y10586793D02*
X34379321Y9308678D01*
%TO.N,BUTT_X*%
X37883678Y14388678D02*
X37719000Y14224000D01*
X37883678Y14515678D02*
X37883678Y14388678D01*
D33*
X37477700Y12598556D02*
X37719000Y12839856D01*
X29455900Y15497000D02*
X26924000Y15497000D01*
X37719000Y12839856D02*
X37719000Y14224000D01*
X30327600Y11780656D02*
X30797562Y11310693D01*
X37477700Y12580600D02*
X37477700Y12598556D01*
X36207793Y11310693D02*
X37477700Y12580600D01*
X30327600Y14625300D02*
X30327600Y11780656D01*
X29455900Y15497000D02*
X30327600Y14625300D01*
D31*
X26200000Y15624000D02*
X26327000Y15497000D01*
D33*
X30797562Y11310693D02*
X36207793Y11310693D01*
D31*
X26924000Y15497000D02*
X26327000Y15497000D01*
%TO.N,BUTT_SEL*%
D32*
X27435737Y6223015D02*
X30225981Y9013259D01*
D31*
X26200000Y12824000D02*
X26292000Y12824000D01*
D32*
X27575743Y11540256D02*
X27435737Y6223015D01*
X27368500Y11747500D02*
X27575743Y11540256D01*
D31*
X27368500Y11747500D02*
X26292000Y12824000D01*
%TO.N,ADDR0*%
X28514500Y13144500D02*
X27435000Y14224000D01*
X29044900Y13144500D02*
X28514500Y13144500D01*
X26800000Y14224000D02*
X27435000Y14224000D01*
%TO.N,ADDR1*%
X27679600Y14624000D02*
X26800000Y14624000D01*
X28067000Y14236600D02*
X27679600Y14624000D01*
X28067000Y14236600D02*
X28956000Y14236600D01*
%TO.N,SDA*%
X34036000Y20955000D02*
X33547000Y20466000D01*
X24900000Y19194400D02*
X24900000Y17806000D01*
X24900000Y17137000D02*
X24900000Y17806000D01*
X25400000Y16637000D02*
X24900000Y17137000D01*
X33547000Y20105000D02*
X33547000Y20466000D01*
X24841200Y19253200D02*
X24900000Y19194400D01*
X25400000Y15624000D02*
X25400000Y16637000D01*
X35687000Y20955000D02*
X34036000Y20955000D01*
%TO.N,SCL*%
X23900000Y17806000D02*
X23900000Y19102200D01*
X23900000Y16867000D02*
X23900000Y17806000D01*
X24040800Y16726200D02*
X23900000Y16867000D01*
X35737800Y19812000D02*
X34740000Y19812000D01*
X24675800Y16726200D02*
X24040800Y16726200D01*
X34447000Y20105000D02*
X34740000Y19812000D01*
X25000000Y16402000D02*
X24675800Y16726200D01*
X25000000Y15624000D02*
X25000000Y16402000D01*
X23900000Y19102200D02*
X23749000Y19253200D01*
%TO.N,VCC*%
D32*
X31847000Y20105000D02*
X30919000Y19177000D01*
X25900000Y17806000D02*
X25900000Y19550000D01*
X32747000Y20682000D02*
X32747000Y20105000D01*
X25869000Y9740000D02*
X25781000Y9652000D01*
X33547000Y21805000D02*
X33547000Y21482000D01*
X32747000Y20105000D02*
X32747000Y19736050D01*
X33547000Y21805000D02*
X34447000Y21805000D01*
X25869000Y10922000D02*
X25869000Y9740000D01*
X25400000Y20066000D02*
X25908000Y19558000D01*
X25400000Y20066000D02*
X23241000Y20066000D01*
X32747000Y20105000D02*
X31847000Y20105000D01*
X33276800Y18900200D02*
X33547000Y18630000D01*
D31*
X25800000Y12824000D02*
X25800000Y10991000D01*
D32*
X25800000Y10991000D02*
X25869000Y10922000D01*
X22542500Y19367500D02*
X22542500Y17079000D01*
X30919000Y19177000D02*
X30607000Y19177000D01*
X23241000Y20066000D02*
X22542500Y19367500D01*
X32747000Y19736050D02*
X33276800Y19206250D01*
X25900000Y19550000D02*
X25908000Y19558000D01*
X33547000Y21482000D02*
X32747000Y20682000D01*
X33276800Y19206250D02*
X33276800Y18900200D01*
%TO.N,N$1*%
D31*
X22415500Y20510500D02*
X22225000Y20320000D01*
X32747000Y21805000D02*
X32747000Y21571000D01*
X32131000Y20955000D02*
X29464000Y20955000D01*
X29464000Y20955000D02*
X29019500Y20510500D01*
X32747000Y21571000D02*
X32131000Y20955000D01*
X21094000Y20320000D02*
X21082000Y20332000D01*
X22225000Y20320000D02*
X21094000Y20320000D01*
X29019500Y20510500D02*
X22415500Y20510500D01*
%TO.N,UPDI*%
X24000000Y13824000D02*
X22900700Y13824000D01*
D32*
X33547000Y16237000D02*
X35052000Y14732000D01*
D31*
X31750000Y1905000D02*
X30480000Y635000D01*
X20320000Y4064000D02*
X20320000Y1460500D01*
X22900700Y13824000D02*
X22860000Y13783300D01*
X20320000Y1460500D02*
X21145500Y635000D01*
X21145500Y635000D02*
X30480000Y635000D01*
D32*
X33547000Y16930000D02*
X33547000Y16237000D01*
D31*
X22860000Y13783300D02*
X22860000Y13462000D01*
%TO.N,N$4*%
X30072000Y21805000D02*
X29972000Y21705000D01*
X31847000Y21805000D02*
X30072000Y21805000D01*
%TO.N,IRQ*%
X29718000Y19951000D02*
X29718000Y17780000D01*
X26162000Y16510000D02*
X27114500Y16510000D01*
X27749500Y17145000D02*
X27114500Y16510000D01*
X27749500Y17145000D02*
X29083000Y17145000D01*
X25800000Y16148000D02*
X26162000Y16510000D01*
X25800000Y15624000D02*
X25800000Y16148000D01*
X29718000Y19951000D02*
X29972000Y20205000D01*
X29083000Y17145000D02*
X29718000Y17780000D01*
%TO.N,N$2*%
X32747000Y15977325D02*
X32747000Y16930000D01*
X33061662Y15662662D02*
X32747000Y15977325D01*
%TO.N,N$3*%
X31877000Y16900000D02*
X31847000Y16930000D01*
X31877000Y15748000D02*
X31877000Y16900000D01*
%TD*%
%TA.AperFunction,Conductor*%
%TO.N,GND*%
G36*
X20361550Y22341194D02*
G01*
X20379856Y22297000D01*
X20379439Y22289795D01*
X20378000Y22277394D01*
X20378000Y21984000D01*
X21792000Y21984000D01*
X21836194Y21965694D01*
X21854500Y21921500D01*
X21854500Y21858000D01*
X23503999Y21858000D01*
X23503999Y22297000D01*
X23522305Y22341194D01*
X23566499Y22359500D01*
X27233500Y22359500D01*
X27277694Y22341194D01*
X27296000Y22297000D01*
X27296000Y21858000D01*
X29103999Y21858000D01*
X29103999Y22297000D01*
X29122305Y22341194D01*
X29166499Y22359500D01*
X29386507Y22359500D01*
X29430701Y22341194D01*
X29449007Y22297000D01*
X29430701Y22252806D01*
X29427448Y22249553D01*
X29383133Y22183232D01*
X29383132Y22183230D01*
X29371500Y22124748D01*
X29371500Y21286515D01*
X29353194Y21242321D01*
X29340250Y21232389D01*
X29278506Y21196740D01*
X29278501Y21196735D01*
X29210693Y21128927D01*
X29166499Y21110621D01*
X29122305Y21128927D01*
X29103999Y21173121D01*
X29104000Y21554000D01*
X27296001Y21554000D01*
X27296001Y20875100D01*
X27277695Y20830906D01*
X27233501Y20812600D01*
X23566500Y20812600D01*
X23522306Y20830906D01*
X23504000Y20875100D01*
X23504000Y21554000D01*
X21690000Y21554000D01*
X21645806Y21572306D01*
X21627500Y21616500D01*
X21627500Y21680000D01*
X21234000Y21680000D01*
X21234000Y21128000D01*
X21527388Y21128000D01*
X21552807Y21130949D01*
X21552808Y21130949D01*
X21608255Y21155432D01*
X21656077Y21156537D01*
X21690675Y21123502D01*
X21696000Y21098257D01*
X21696000Y20947077D01*
X21677694Y20902883D01*
X21633500Y20884577D01*
X21598777Y20895110D01*
X21560231Y20920867D01*
X21501748Y20932500D01*
X20662252Y20932500D01*
X20603769Y20920867D01*
X20603767Y20920866D01*
X20537447Y20876552D01*
X20493133Y20810232D01*
X20493132Y20810230D01*
X20481500Y20751748D01*
X20481500Y19912251D01*
X20493132Y19853769D01*
X20493133Y19853767D01*
X20537447Y19787447D01*
X20603767Y19743133D01*
X20603769Y19743132D01*
X20662251Y19731500D01*
X20662252Y19731500D01*
X21501748Y19731500D01*
X21560230Y19743132D01*
X21560232Y19743133D01*
X21626552Y19787447D01*
X21670866Y19853767D01*
X21670867Y19853769D01*
X21675195Y19875527D01*
X21682500Y19912252D01*
X21682500Y19955400D01*
X21700806Y19999594D01*
X21745000Y20017900D01*
X22264771Y20017900D01*
X22264772Y20017900D01*
X22264773Y20017900D01*
X22264778Y20017901D01*
X22341606Y20038486D01*
X22341608Y20038487D01*
X22410493Y20078259D01*
X22410499Y20078264D01*
X22522328Y20190094D01*
X22566522Y20208400D01*
X22769357Y20208400D01*
X22813551Y20190094D01*
X22831857Y20145900D01*
X22813551Y20101706D01*
X22341410Y19629565D01*
X22280435Y19568590D01*
X22256461Y19527065D01*
X22237318Y19493909D01*
X22237318Y19493907D01*
X22215000Y19410621D01*
X22215000Y17962000D01*
X22196694Y17917806D01*
X22152500Y17899500D01*
X21772752Y17899500D01*
X21714269Y17887867D01*
X21714267Y17887866D01*
X21647947Y17843552D01*
X21603633Y17777232D01*
X21603632Y17777230D01*
X21592000Y17718748D01*
X21592000Y16439251D01*
X21603632Y16380769D01*
X21603633Y16380767D01*
X21647947Y16314447D01*
X21714267Y16270133D01*
X21714269Y16270132D01*
X21772751Y16258500D01*
X21772752Y16258500D01*
X23312248Y16258500D01*
X23370730Y16270132D01*
X23370732Y16270133D01*
X23437052Y16314447D01*
X23481366Y16380767D01*
X23481367Y16380769D01*
X23483497Y16391478D01*
X23493000Y16439252D01*
X23493000Y16743983D01*
X23511306Y16788177D01*
X23555500Y16806483D01*
X23599694Y16788177D01*
X23615870Y16760159D01*
X23618486Y16750393D01*
X23618487Y16750391D01*
X23658259Y16681506D01*
X23658264Y16681500D01*
X23799060Y16540706D01*
X23814979Y16524787D01*
X23855305Y16484460D01*
X23855309Y16484457D01*
X23924188Y16444689D01*
X23924197Y16444685D01*
X24001021Y16424101D01*
X24001027Y16424100D01*
X24001028Y16424100D01*
X24524778Y16424100D01*
X24568972Y16405794D01*
X24679594Y16295172D01*
X24697900Y16250978D01*
X24697900Y16237000D01*
X24679594Y16192806D01*
X24635400Y16174500D01*
X24525326Y16174500D01*
X24452260Y16159966D01*
X24452258Y16159965D01*
X24431403Y16146030D01*
X24369399Y16104601D01*
X24356725Y16085632D01*
X24314034Y16021741D01*
X24314033Y16021739D01*
X24299500Y15948674D01*
X24299500Y15387000D01*
X24281194Y15342806D01*
X24237000Y15324500D01*
X23675326Y15324500D01*
X23671196Y15323678D01*
X23624281Y15333006D01*
X23597701Y15372776D01*
X23596499Y15384976D01*
X23596499Y15844388D01*
X23593550Y15869807D01*
X23593550Y15869808D01*
X23547642Y15973778D01*
X23467278Y16054142D01*
X23363305Y16100051D01*
X23337888Y16102999D01*
X22694500Y16102999D01*
X22694500Y14255000D01*
X23337888Y14255000D01*
X23363310Y14257949D01*
X23367848Y14259184D01*
X23368328Y14257418D01*
X23409592Y14258362D01*
X23444181Y14225319D01*
X23449500Y14200088D01*
X23449500Y14188600D01*
X23431194Y14144406D01*
X23387000Y14126100D01*
X22860928Y14126100D01*
X22860926Y14126099D01*
X22860923Y14126099D01*
X22839911Y14120468D01*
X22830062Y14117829D01*
X22813887Y14115700D01*
X22795616Y14115700D01*
X22669323Y14090579D01*
X22585201Y14055734D01*
X22550359Y14041302D01*
X22550354Y14041299D01*
X22443291Y13969762D01*
X22352237Y13878708D01*
X22280700Y13771645D01*
X22280697Y13771640D01*
X22231421Y13652677D01*
X22229423Y13642633D01*
X22202845Y13602861D01*
X22155928Y13593530D01*
X22116156Y13620108D01*
X22106825Y13642637D01*
X22093973Y13707251D01*
X22022322Y13880231D01*
X21918302Y14035908D01*
X21805904Y14148306D01*
X21787598Y14192500D01*
X21805904Y14236694D01*
X21850098Y14255000D01*
X22390500Y14255000D01*
X22390500Y15027000D01*
X21488501Y15027000D01*
X21488501Y14513611D01*
X21491449Y14488192D01*
X21491449Y14488191D01*
X21515981Y14432633D01*
X21517085Y14384810D01*
X21484051Y14350213D01*
X21446613Y14346089D01*
X21386098Y14358126D01*
X21273616Y14380500D01*
X19586384Y14380500D01*
X19402749Y14343973D01*
X19229769Y14272322D01*
X19229768Y14272321D01*
X19229766Y14272320D01*
X19074092Y14168302D01*
X18941697Y14035907D01*
X18837679Y13880233D01*
X18837678Y13880231D01*
X18766026Y13707249D01*
X18729500Y13523616D01*
X18729500Y13336383D01*
X18766026Y13152750D01*
X18837678Y12979768D01*
X18837679Y12979766D01*
X18941697Y12824092D01*
X19074092Y12691697D01*
X19229766Y12587679D01*
X19229768Y12587678D01*
X19402750Y12516026D01*
X19527065Y12491299D01*
X19566839Y12464723D01*
X19576171Y12417807D01*
X19549595Y12378033D01*
X19527065Y12368701D01*
X19477149Y12358772D01*
X19402749Y12343973D01*
X19229769Y12272322D01*
X19229768Y12272321D01*
X19229766Y12272320D01*
X19074092Y12168302D01*
X18941697Y12035907D01*
X18837679Y11880233D01*
X18837678Y11880231D01*
X18766026Y11707249D01*
X18729500Y11523616D01*
X18729500Y11336383D01*
X18766026Y11152750D01*
X18837678Y10979768D01*
X18837679Y10979766D01*
X18941697Y10824092D01*
X19074092Y10691697D01*
X19229766Y10587679D01*
X19229768Y10587678D01*
X19335805Y10543756D01*
X19369630Y10509931D01*
X19369629Y10462096D01*
X19335805Y10428272D01*
X19180746Y10364044D01*
X19180742Y10364041D01*
X19008114Y10248695D01*
X18861304Y10101885D01*
X18745958Y9929257D01*
X18745955Y9929253D01*
X18666503Y9737439D01*
X18635584Y9582000D01*
X20004854Y9582000D01*
X19980000Y9489244D01*
X19980000Y9370756D01*
X20004854Y9278000D01*
X18635585Y9278000D01*
X18666503Y9122560D01*
X18745955Y8930746D01*
X18745958Y8930742D01*
X18861304Y8758114D01*
X19008114Y8611304D01*
X19180742Y8495958D01*
X19180746Y8495955D01*
X19372557Y8416504D01*
X19372560Y8416503D01*
X19576189Y8376000D01*
X20278000Y8376000D01*
X20278000Y9004854D01*
X20370756Y8980000D01*
X20489244Y8980000D01*
X20582000Y9004854D01*
X20582000Y8376000D01*
X21283810Y8376000D01*
X21398748Y8398862D01*
X21445664Y8389530D01*
X21472240Y8349756D01*
X21462908Y8302840D01*
X21455135Y8293369D01*
X21356172Y8194406D01*
X21311978Y8176100D01*
X18693022Y8176100D01*
X18648828Y8194406D01*
X11750406Y15092828D01*
X11732100Y15137022D01*
X11732100Y15844388D01*
X21488500Y15844388D01*
X21488500Y15331000D01*
X22390500Y15331000D01*
X22390500Y16102999D01*
X21747112Y16102999D01*
X21721692Y16100050D01*
X21721691Y16100050D01*
X21617721Y16054142D01*
X21537357Y15973778D01*
X21491448Y15869805D01*
X21488500Y15844388D01*
X11732100Y15844388D01*
X11732100Y18734558D01*
X11750406Y18778752D01*
X11770682Y18792300D01*
X11880228Y18837676D01*
X11880232Y18837679D01*
X12035907Y18941697D01*
X12168302Y19074092D01*
X12272320Y19229766D01*
X12272321Y19229768D01*
X12272322Y19229769D01*
X12343973Y19402749D01*
X12358568Y19476124D01*
X12368701Y19527065D01*
X12395277Y19566839D01*
X12442193Y19576171D01*
X12481967Y19549595D01*
X12491299Y19527065D01*
X12516026Y19402750D01*
X12587678Y19229768D01*
X12587679Y19229766D01*
X12691697Y19074092D01*
X12824092Y18941697D01*
X12979766Y18837679D01*
X12979768Y18837678D01*
X13152750Y18766026D01*
X13336383Y18729500D01*
X13336384Y18729500D01*
X13523616Y18729500D01*
X13707249Y18766026D01*
X13880231Y18837678D01*
X13880233Y18837679D01*
X14035907Y18941697D01*
X14168302Y19074092D01*
X14272320Y19229766D01*
X14272321Y19229768D01*
X14272322Y19229769D01*
X14343973Y19402749D01*
X14380500Y19586384D01*
X14380500Y21273616D01*
X14358024Y21386611D01*
X20378001Y21386611D01*
X20380949Y21361192D01*
X20380949Y21361191D01*
X20426857Y21257221D01*
X20507221Y21176857D01*
X20611194Y21130948D01*
X20636611Y21128000D01*
X20930000Y21128000D01*
X20930000Y21680000D01*
X20378001Y21680000D01*
X20378001Y21386611D01*
X14358024Y21386611D01*
X14343973Y21457251D01*
X14272322Y21630231D01*
X14239067Y21680000D01*
X14212052Y21720431D01*
X14168302Y21785908D01*
X14035908Y21918302D01*
X13880231Y22022322D01*
X13707251Y22093973D01*
X13523616Y22130500D01*
X13336384Y22130500D01*
X13152749Y22093973D01*
X12979769Y22022322D01*
X12979768Y22022321D01*
X12979766Y22022320D01*
X12824092Y21918302D01*
X12691697Y21785907D01*
X12587679Y21630233D01*
X12587678Y21630231D01*
X12516026Y21457249D01*
X12491299Y21332934D01*
X12464723Y21293160D01*
X12417807Y21283828D01*
X12378033Y21310404D01*
X12368701Y21332934D01*
X12357686Y21388310D01*
X12343973Y21457251D01*
X12272322Y21630231D01*
X12168302Y21785908D01*
X12035908Y21918302D01*
X11880231Y22022322D01*
X11707251Y22093973D01*
X11523616Y22130500D01*
X11336384Y22130500D01*
X11152749Y22093973D01*
X10979769Y22022322D01*
X10979768Y22022321D01*
X10979766Y22022320D01*
X10824092Y21918302D01*
X10691697Y21785907D01*
X10587679Y21630233D01*
X10587678Y21630231D01*
X10543756Y21524194D01*
X10509932Y21490369D01*
X10462096Y21490370D01*
X10428272Y21524194D01*
X10364044Y21679253D01*
X10364041Y21679257D01*
X10248695Y21851885D01*
X10101885Y21998695D01*
X9929257Y22114041D01*
X9929253Y22114044D01*
X9737442Y22193495D01*
X9737439Y22193496D01*
X9582000Y22224414D01*
X9582000Y20855145D01*
X9489244Y20880000D01*
X9370756Y20880000D01*
X9278000Y20855145D01*
X9278000Y22224414D01*
X9277999Y22224414D01*
X9122560Y22193496D01*
X9122557Y22193495D01*
X8930746Y22114044D01*
X8930742Y22114041D01*
X8758114Y21998695D01*
X8611304Y21851885D01*
X8495958Y21679257D01*
X8495955Y21679253D01*
X8416504Y21487442D01*
X8416503Y21487439D01*
X8376000Y21283810D01*
X8376000Y20582000D01*
X9004854Y20582000D01*
X8980000Y20489244D01*
X8980000Y20370756D01*
X9004854Y20278000D01*
X8376000Y20278000D01*
X8376000Y19576189D01*
X8416503Y19372560D01*
X8416504Y19372557D01*
X8495955Y19180746D01*
X8495958Y19180742D01*
X8611304Y19008114D01*
X8758114Y18861304D01*
X8930742Y18745958D01*
X8930746Y18745955D01*
X9122560Y18666503D01*
X9277999Y18635584D01*
X9278000Y18635585D01*
X9278000Y20004854D01*
X9370756Y19980000D01*
X9489244Y19980000D01*
X9582000Y20004854D01*
X9582000Y18635584D01*
X9737439Y18666503D01*
X9929253Y18745955D01*
X9929257Y18745958D01*
X10101885Y18861304D01*
X10248695Y19008114D01*
X10364041Y19180742D01*
X10364044Y19180746D01*
X10428272Y19335805D01*
X10462096Y19369630D01*
X10509932Y19369629D01*
X10543756Y19335805D01*
X10587678Y19229768D01*
X10587679Y19229766D01*
X10691697Y19074092D01*
X10824092Y18941697D01*
X10979767Y18837679D01*
X10979771Y18837676D01*
X11089318Y18792300D01*
X11123143Y18758475D01*
X11127900Y18734558D01*
X11127900Y14946229D01*
X11127901Y14946221D01*
X11148486Y14869393D01*
X11148487Y14869391D01*
X11188259Y14800506D01*
X11188264Y14800500D01*
X18356500Y7632264D01*
X18356506Y7632259D01*
X18425391Y7592487D01*
X18425393Y7592486D01*
X18502221Y7571901D01*
X18502227Y7571900D01*
X18502228Y7571900D01*
X18502229Y7571900D01*
X21502771Y7571900D01*
X21502772Y7571900D01*
X21502773Y7571900D01*
X21502778Y7571901D01*
X21579606Y7592486D01*
X21579608Y7592487D01*
X21648493Y7632259D01*
X21648499Y7632264D01*
X22806806Y8790571D01*
X22851000Y8808877D01*
X22895194Y8790571D01*
X22913500Y8746377D01*
X22913500Y7134914D01*
X22895194Y7090720D01*
X22032638Y6228164D01*
X21988444Y6209858D01*
X21944250Y6228164D01*
X21921560Y6250854D01*
X21827616Y6344798D01*
X21778036Y6377926D01*
X21699805Y6393486D01*
X21621574Y6377926D01*
X21621573Y6377925D01*
X21571994Y6344798D01*
X20836958Y5609762D01*
X20803831Y5560183D01*
X20803830Y5560181D01*
X20788271Y5481952D01*
X20788271Y5481951D01*
X20803830Y5403722D01*
X20803831Y5403720D01*
X20836958Y5354141D01*
X21359862Y4831237D01*
X21409441Y4798110D01*
X21409443Y4798109D01*
X21487673Y4782550D01*
X21565902Y4798109D01*
X21565904Y4798110D01*
X21615483Y4831237D01*
X22056913Y5272667D01*
X28601050Y5272667D01*
X28956017Y4917699D01*
X29417051Y5378732D01*
X29417051Y5378733D01*
X29244957Y5550826D01*
X29244951Y5550832D01*
X29224888Y5566724D01*
X29118914Y5607780D01*
X29005254Y5607780D01*
X28899279Y5566723D01*
X28899274Y5566721D01*
X28879218Y5550835D01*
X28879206Y5550824D01*
X28601050Y5272667D01*
X22056913Y5272667D01*
X22350519Y5566273D01*
X22383647Y5615853D01*
X22389136Y5643454D01*
X22406241Y5675457D01*
X22912771Y6181987D01*
X25443227Y6181987D01*
X25443227Y6181986D01*
X25615321Y6009893D01*
X25615333Y6009883D01*
X25635387Y5993998D01*
X25635390Y5993996D01*
X25741365Y5952941D01*
X25855024Y5952941D01*
X25960999Y5993997D01*
X25961004Y5993999D01*
X25981060Y6009885D01*
X25981072Y6009896D01*
X26259227Y6288052D01*
X26259227Y6288053D01*
X25904260Y6643020D01*
X25443227Y6181987D01*
X22912771Y6181987D01*
X23539529Y6808745D01*
X24999220Y6808745D01*
X24999220Y6695086D01*
X25040276Y6589111D01*
X25040278Y6589106D01*
X25056161Y6569055D01*
X25056171Y6569043D01*
X25228266Y6396948D01*
X25689299Y6857981D01*
X26119221Y6857981D01*
X26119221Y6857980D01*
X26474188Y6503013D01*
X26752349Y6781174D01*
X26752359Y6781186D01*
X26768244Y6801240D01*
X26768246Y6801243D01*
X26809301Y6907218D01*
X26809302Y6907218D01*
X26809302Y7020877D01*
X26768245Y7126852D01*
X26768243Y7126857D01*
X26752357Y7146913D01*
X26752354Y7146916D01*
X26580253Y7319014D01*
X26119221Y6857981D01*
X25689299Y6857981D01*
X25334332Y7212948D01*
X25056167Y6934783D01*
X25040275Y6914720D01*
X24999220Y6808745D01*
X23539529Y6808745D01*
X24158693Y7427909D01*
X25549292Y7427909D01*
X25904260Y7072942D01*
X26365294Y7533975D01*
X26193194Y7706075D01*
X26173131Y7721967D01*
X26067157Y7763023D01*
X25953497Y7763023D01*
X25847522Y7721966D01*
X25847517Y7721964D01*
X25827461Y7706078D01*
X25827449Y7706067D01*
X25549292Y7427909D01*
X24158693Y7427909D01*
X24296540Y7565756D01*
X24328539Y7582861D01*
X24356147Y7588353D01*
X24356148Y7588353D01*
X24405726Y7621480D01*
X25140762Y8356516D01*
X25169821Y8400006D01*
X25173890Y8406096D01*
X25189450Y8484327D01*
X25173890Y8562558D01*
X25140762Y8612138D01*
X24617859Y9135041D01*
X24568279Y9168169D01*
X24490048Y9183729D01*
X24411817Y9168169D01*
X24378447Y9145872D01*
X24362237Y9135041D01*
X23675194Y8447998D01*
X23631000Y8429692D01*
X23586806Y8447998D01*
X23568500Y8492192D01*
X23568500Y10055500D01*
X23586806Y10099694D01*
X23631000Y10118000D01*
X24017000Y10118000D01*
X24017000Y10859500D01*
X24035306Y10903694D01*
X24079500Y10922000D01*
X24258500Y10922000D01*
X24302694Y10903694D01*
X24321000Y10859500D01*
X24321000Y10118000D01*
X24751888Y10118000D01*
X24777307Y10120949D01*
X24777308Y10120949D01*
X24881278Y10166857D01*
X24961642Y10247221D01*
X25007551Y10351194D01*
X25010499Y10376606D01*
X25010543Y10377363D01*
X25010601Y10377483D01*
X25010708Y10378404D01*
X25011028Y10378366D01*
X25031358Y10420433D01*
X25076530Y10436170D01*
X25119600Y10415355D01*
X25134239Y10385967D01*
X25142633Y10343768D01*
X25142633Y10343767D01*
X25186947Y10277447D01*
X25253268Y10233133D01*
X25302649Y10223310D01*
X25342422Y10196733D01*
X25351754Y10149817D01*
X25334649Y10117817D01*
X25279995Y10063163D01*
X25209409Y9957524D01*
X25209408Y9957522D01*
X25160786Y9840139D01*
X25160786Y9840138D01*
X25136000Y9715527D01*
X25136000Y9588472D01*
X25160786Y9463861D01*
X25160786Y9463860D01*
X25209408Y9346477D01*
X25209409Y9346475D01*
X25279995Y9240836D01*
X25369836Y9150995D01*
X25475475Y9080409D01*
X25475477Y9080408D01*
X25592861Y9031786D01*
X25717472Y9007000D01*
X25717473Y9007000D01*
X25844527Y9007000D01*
X25969138Y9031786D01*
X25969139Y9031786D01*
X26086522Y9080408D01*
X26086524Y9080409D01*
X26192163Y9150995D01*
X26282004Y9240836D01*
X26352590Y9346475D01*
X26352591Y9346477D01*
X26352592Y9346478D01*
X26401213Y9463860D01*
X26426000Y9588473D01*
X26426000Y9715527D01*
X26401213Y9840140D01*
X26352592Y9957522D01*
X26282004Y10063164D01*
X26230362Y10114806D01*
X26212056Y10159000D01*
X26230362Y10203194D01*
X26274556Y10221500D01*
X26426248Y10221500D01*
X26484730Y10233132D01*
X26484732Y10233133D01*
X26551052Y10277447D01*
X26595366Y10343767D01*
X26595367Y10343769D01*
X26599400Y10364044D01*
X26607000Y10402252D01*
X26607000Y11441748D01*
X26595367Y11500231D01*
X26551052Y11566552D01*
X26484731Y11610867D01*
X26426248Y11622500D01*
X26164600Y11622500D01*
X26120406Y11640806D01*
X26102100Y11685000D01*
X26102100Y12211000D01*
X26120406Y12255194D01*
X26164600Y12273500D01*
X26274674Y12273500D01*
X26353778Y12289235D01*
X26354108Y12287575D01*
X26394475Y12287568D01*
X26414740Y12274024D01*
X27051552Y11637212D01*
X27061485Y11624267D01*
X27106431Y11546414D01*
X27106434Y11546411D01*
X27225661Y11427181D01*
X27243966Y11382988D01*
X27243944Y11381344D01*
X27120973Y6711042D01*
X27102689Y6668493D01*
X26678958Y6244762D01*
X26645831Y6195183D01*
X26645830Y6195181D01*
X26630271Y6116952D01*
X26630271Y6116951D01*
X26645830Y6038722D01*
X26645831Y6038720D01*
X26678958Y5989141D01*
X27201862Y5466237D01*
X27251441Y5433110D01*
X27251443Y5433109D01*
X27329673Y5417550D01*
X27407902Y5433109D01*
X27407904Y5433110D01*
X27457483Y5466237D01*
X28192519Y6201273D01*
X28225646Y6250852D01*
X28225647Y6250853D01*
X28241207Y6329084D01*
X28225647Y6407315D01*
X28197083Y6450063D01*
X28187751Y6496977D01*
X28204856Y6528979D01*
X28492864Y6816987D01*
X31285227Y6816987D01*
X31285227Y6816986D01*
X31457321Y6644893D01*
X31457333Y6644883D01*
X31477387Y6628998D01*
X31477390Y6628996D01*
X31583365Y6587941D01*
X31697024Y6587941D01*
X31802999Y6628997D01*
X31803004Y6628999D01*
X31823060Y6644885D01*
X31823072Y6644896D01*
X32101228Y6923052D01*
X32101228Y6923053D01*
X31746260Y7278021D01*
X31285227Y6816987D01*
X28492864Y6816987D01*
X29119622Y7443745D01*
X30841220Y7443745D01*
X30841220Y7330086D01*
X30882276Y7224111D01*
X30882278Y7224106D01*
X30898161Y7204055D01*
X30898171Y7204043D01*
X31070265Y7031948D01*
X31070266Y7031948D01*
X31531300Y7492981D01*
X31961221Y7492981D01*
X32316189Y7138014D01*
X32594349Y7416174D01*
X32594359Y7416186D01*
X32610244Y7436240D01*
X32610246Y7436243D01*
X32651301Y7542218D01*
X32651302Y7542218D01*
X32651302Y7655877D01*
X32610245Y7761852D01*
X32610243Y7761857D01*
X32594357Y7781913D01*
X32594346Y7781925D01*
X32422255Y7954015D01*
X31961221Y7492981D01*
X31531300Y7492981D01*
X31176332Y7847949D01*
X30898172Y7569789D01*
X30898162Y7569777D01*
X30882277Y7549723D01*
X30882275Y7549720D01*
X30841220Y7443745D01*
X29119622Y7443745D01*
X29738787Y8062910D01*
X31391293Y8062910D01*
X31746260Y7707942D01*
X32207294Y8168975D01*
X32207294Y8168976D01*
X32035200Y8341069D01*
X32035194Y8341075D01*
X32015131Y8356967D01*
X31909157Y8398023D01*
X31795497Y8398023D01*
X31689522Y8356966D01*
X31689517Y8356964D01*
X31669461Y8341078D01*
X31669449Y8341067D01*
X31391293Y8062910D01*
X29738787Y8062910D01*
X29920020Y8244143D01*
X29964214Y8262449D01*
X29998937Y8251916D01*
X30041684Y8223353D01*
X30041686Y8223352D01*
X30119916Y8207793D01*
X30198145Y8223352D01*
X30198147Y8223353D01*
X30247726Y8256480D01*
X30982762Y8991516D01*
X31006581Y9027164D01*
X31015890Y9041096D01*
X31031450Y9119327D01*
X31015890Y9197558D01*
X30982762Y9247138D01*
X30643694Y9586206D01*
X30625388Y9630400D01*
X30643694Y9674594D01*
X30687888Y9692900D01*
X32326231Y9692900D01*
X32370425Y9674594D01*
X37020434Y5024585D01*
X37038740Y4980391D01*
X37020434Y4936197D01*
X36313727Y4229490D01*
X36280601Y4179913D01*
X36280599Y4179909D01*
X36265039Y4101680D01*
X36265039Y4101679D01*
X36280599Y4023450D01*
X36280601Y4023446D01*
X36313727Y3973869D01*
X37755869Y2531727D01*
X37805446Y2498601D01*
X37805450Y2498599D01*
X37883679Y2483039D01*
X37883680Y2483039D01*
X37883681Y2483039D01*
X37961909Y2498599D01*
X37961913Y2498601D01*
X38011490Y2531727D01*
X39453632Y3973869D01*
X39486758Y4023446D01*
X39486760Y4023450D01*
X39502321Y4101679D01*
X39502321Y4101680D01*
X39496129Y4132810D01*
X39486760Y4179911D01*
X39453632Y4229491D01*
X38011491Y5671632D01*
X37961911Y5704760D01*
X37909757Y5715134D01*
X37883681Y5720321D01*
X37883679Y5720321D01*
X37844564Y5712540D01*
X37805449Y5704760D01*
X37805446Y5704758D01*
X37755869Y5671632D01*
X37536056Y5451819D01*
X37491862Y5433513D01*
X37447668Y5451819D01*
X36746862Y6152625D01*
X48448500Y6152625D01*
X48448500Y6039374D01*
X48454913Y5968805D01*
X48505522Y5806393D01*
X48593528Y5660814D01*
X48713814Y5540528D01*
X48859393Y5452522D01*
X49021806Y5401913D01*
X49021804Y5401913D01*
X49092374Y5395500D01*
X49092384Y5395500D01*
X49205625Y5395500D01*
X49276194Y5401913D01*
X49438606Y5452522D01*
X49584185Y5540528D01*
X49704471Y5660814D01*
X49731037Y5704758D01*
X49792478Y5806394D01*
X49843086Y5968804D01*
X49849499Y6039374D01*
X49849500Y6039377D01*
X49849500Y6152623D01*
X49849499Y6152625D01*
X49843086Y6223194D01*
X49843086Y6223196D01*
X49792478Y6385606D01*
X49704472Y6531185D01*
X49584185Y6651472D01*
X49438606Y6739478D01*
X49276196Y6790086D01*
X49205624Y6796499D01*
X49205623Y6796500D01*
X49205616Y6796500D01*
X49092384Y6796500D01*
X49092377Y6796500D01*
X49092374Y6796499D01*
X49021804Y6790086D01*
X48859394Y6739478D01*
X48713815Y6651472D01*
X48713814Y6651471D01*
X48593528Y6531185D01*
X48505522Y6385606D01*
X48454913Y6223194D01*
X48448500Y6152625D01*
X36746862Y6152625D01*
X35603020Y7296467D01*
X35584714Y7314773D01*
X41311733Y7314773D01*
X41943453Y6683053D01*
X41963512Y6667164D01*
X41963520Y6667159D01*
X42069490Y6626106D01*
X42183149Y6626106D01*
X42289124Y6667162D01*
X42289129Y6667164D01*
X42309185Y6683050D01*
X42309197Y6683061D01*
X42940907Y7314771D01*
X42940907Y7314772D01*
X42126320Y8129360D01*
X41311733Y7314773D01*
X35584714Y7314773D01*
X32721489Y10177999D01*
X32703183Y10222193D01*
X32721489Y10266387D01*
X32765683Y10284693D01*
X32950184Y10284693D01*
X32994378Y10266387D01*
X34193821Y9066942D01*
X34193827Y9066937D01*
X34262712Y9027165D01*
X34262714Y9027164D01*
X34339542Y9006579D01*
X34339548Y9006578D01*
X34339549Y9006578D01*
X34419093Y9006578D01*
X35497771Y9006578D01*
X35541965Y8988272D01*
X36791507Y7738729D01*
X36791509Y7738727D01*
X36841086Y7705601D01*
X36841090Y7705599D01*
X36919319Y7690039D01*
X36919320Y7690039D01*
X36919321Y7690039D01*
X36997549Y7705599D01*
X36997553Y7705601D01*
X37047130Y7738727D01*
X37709552Y8401149D01*
X40408106Y8401149D01*
X40408106Y8287490D01*
X40449162Y8181515D01*
X40449164Y8181510D01*
X40465050Y8161454D01*
X40465061Y8161442D01*
X41096772Y7529732D01*
X41911359Y8344319D01*
X41911358Y8344320D01*
X42341280Y8344320D01*
X42341280Y8344319D01*
X43155866Y7529733D01*
X43787586Y8161453D01*
X43803475Y8181512D01*
X43803480Y8181520D01*
X43841295Y8279133D01*
X46391733Y8279133D01*
X47023453Y7647413D01*
X47043512Y7631524D01*
X47043520Y7631519D01*
X47149490Y7590466D01*
X47263149Y7590466D01*
X47369124Y7631522D01*
X47369129Y7631524D01*
X47389185Y7647410D01*
X47389197Y7647421D01*
X48020907Y8279131D01*
X48020907Y8279132D01*
X47206320Y9093720D01*
X46391733Y8279133D01*
X43841295Y8279133D01*
X43844533Y8287490D01*
X43844534Y8287490D01*
X43844534Y8401149D01*
X43803477Y8507124D01*
X43803475Y8507129D01*
X43787589Y8527185D01*
X43787578Y8527197D01*
X43155867Y9158907D01*
X42341280Y8344320D01*
X41911358Y8344320D01*
X41096773Y9158906D01*
X40465053Y8527186D01*
X40449164Y8507127D01*
X40449159Y8507119D01*
X40408106Y8401149D01*
X37709552Y8401149D01*
X38489272Y9180869D01*
X38522398Y9230446D01*
X38522400Y9230450D01*
X38537961Y9308679D01*
X38530443Y9346475D01*
X38524995Y9373867D01*
X41311732Y9373867D01*
X42126320Y8559280D01*
X42932549Y9365509D01*
X45488106Y9365509D01*
X45488106Y9251850D01*
X45529162Y9145875D01*
X45529164Y9145870D01*
X45545050Y9125814D01*
X45545061Y9125802D01*
X46176772Y8494092D01*
X46991359Y9308679D01*
X46991358Y9308680D01*
X47421280Y9308680D01*
X47421280Y9308679D01*
X48235866Y8494093D01*
X48867586Y9125813D01*
X48883475Y9145872D01*
X48883480Y9145880D01*
X48924533Y9251850D01*
X48924534Y9251850D01*
X48924534Y9365509D01*
X48883477Y9471484D01*
X48883475Y9471489D01*
X48867589Y9491545D01*
X48867578Y9491557D01*
X48235867Y10123267D01*
X47421280Y9308680D01*
X46991358Y9308680D01*
X46176773Y10123266D01*
X45545053Y9491546D01*
X45529164Y9471487D01*
X45529159Y9471479D01*
X45488106Y9365509D01*
X42932549Y9365509D01*
X42940906Y9373866D01*
X42309186Y10005586D01*
X42289127Y10021475D01*
X42289119Y10021480D01*
X42183150Y10062534D01*
X42069490Y10062534D01*
X41963515Y10021477D01*
X41963510Y10021475D01*
X41943454Y10005589D01*
X41943442Y10005578D01*
X41311732Y9373867D01*
X38524995Y9373867D01*
X38522400Y9386911D01*
X38489272Y9436491D01*
X37587536Y10338227D01*
X46391732Y10338227D01*
X47206320Y9523640D01*
X48020906Y10338226D01*
X47389186Y10969946D01*
X47369127Y10985835D01*
X47369119Y10985840D01*
X47263150Y11026894D01*
X47149490Y11026894D01*
X47043515Y10985837D01*
X47043510Y10985835D01*
X47023454Y10969949D01*
X47023442Y10969938D01*
X46391732Y10338227D01*
X37587536Y10338227D01*
X37047131Y10878632D01*
X36997551Y10911760D01*
X36945342Y10922145D01*
X36919321Y10927321D01*
X36919320Y10927321D01*
X36893299Y10922145D01*
X36846383Y10931477D01*
X36819807Y10971250D01*
X36829139Y11018167D01*
X36836912Y11027638D01*
X37934868Y12125594D01*
X37979062Y12143900D01*
X41949771Y12143900D01*
X41949772Y12143900D01*
X41949773Y12143900D01*
X41949778Y12143901D01*
X42026606Y12164486D01*
X42026608Y12164487D01*
X42095493Y12204259D01*
X42095499Y12204264D01*
X42310041Y12418806D01*
X42354235Y12437112D01*
X42398429Y12418806D01*
X42835867Y11981369D01*
X42835869Y11981367D01*
X42885446Y11948241D01*
X42885450Y11948239D01*
X42963679Y11932679D01*
X42963680Y11932679D01*
X42963681Y11932679D01*
X43041909Y11948239D01*
X43041913Y11948241D01*
X43091490Y11981367D01*
X44533632Y13423509D01*
X44566758Y13473086D01*
X44566760Y13473090D01*
X44571043Y13494619D01*
X44582321Y13551320D01*
X44566760Y13629551D01*
X44533632Y13679131D01*
X43091491Y15121272D01*
X43041911Y15154400D01*
X42989757Y15164774D01*
X42963681Y15169961D01*
X42963679Y15169961D01*
X42924564Y15162180D01*
X42885449Y15154400D01*
X42885446Y15154398D01*
X42835869Y15121272D01*
X41393727Y13679130D01*
X41360601Y13629553D01*
X41360599Y13629549D01*
X41345039Y13551320D01*
X41345039Y13551319D01*
X41360599Y13473090D01*
X41360601Y13473086D01*
X41393727Y13423509D01*
X41882807Y12934429D01*
X41901113Y12890235D01*
X41882807Y12846041D01*
X41803172Y12766406D01*
X41758978Y12748100D01*
X38070900Y12748100D01*
X38026706Y12766406D01*
X38008400Y12810600D01*
X38008400Y12916748D01*
X38026706Y12960942D01*
X39453630Y14387867D01*
X39453632Y14387869D01*
X39486758Y14437446D01*
X39486760Y14437450D01*
X39502321Y14515679D01*
X39502321Y14515680D01*
X39492217Y14566476D01*
X39486760Y14593911D01*
X39453632Y14643491D01*
X38011491Y16085632D01*
X37961911Y16118760D01*
X37909757Y16129134D01*
X37883681Y16134321D01*
X37883679Y16134321D01*
X37844564Y16126540D01*
X37805449Y16118760D01*
X37805446Y16118758D01*
X37755869Y16085632D01*
X36313727Y14643490D01*
X36280601Y14593913D01*
X36280599Y14593909D01*
X36265039Y14515680D01*
X36265039Y14515679D01*
X36280599Y14437450D01*
X36280601Y14437446D01*
X36313727Y14387869D01*
X36313729Y14387867D01*
X37411294Y13290303D01*
X37429600Y13246109D01*
X37429600Y12985617D01*
X37411294Y12941423D01*
X37300004Y12830133D01*
X37271628Y12801757D01*
X37246123Y12776252D01*
X37246120Y12776248D01*
X37225709Y12740895D01*
X37215777Y12727951D01*
X36656127Y12168300D01*
X36106226Y11618399D01*
X36062032Y11600093D01*
X30943323Y11600093D01*
X30899129Y11618399D01*
X30635306Y11882222D01*
X30617000Y11926416D01*
X30617000Y12521773D01*
X31862093Y12521773D01*
X32493813Y11890053D01*
X32513872Y11874164D01*
X32513880Y11874159D01*
X32619850Y11833106D01*
X32733509Y11833106D01*
X32839484Y11874162D01*
X32839489Y11874164D01*
X32859545Y11890050D01*
X32859557Y11890061D01*
X33491267Y12521771D01*
X33491267Y12521772D01*
X32676680Y13336360D01*
X31862093Y12521773D01*
X30617000Y12521773D01*
X30617000Y13608149D01*
X30958466Y13608149D01*
X30958466Y13494490D01*
X30999522Y13388515D01*
X30999524Y13388510D01*
X31015410Y13368454D01*
X31015421Y13368442D01*
X31647132Y12736732D01*
X32461719Y13551319D01*
X32461718Y13551320D01*
X32891640Y13551320D01*
X32891640Y13551319D01*
X33706226Y12736733D01*
X34337946Y13368453D01*
X34353835Y13388512D01*
X34353840Y13388520D01*
X34394893Y13494490D01*
X34394894Y13494490D01*
X34394894Y13608149D01*
X34353837Y13714124D01*
X34353835Y13714129D01*
X34337949Y13734185D01*
X34337938Y13734197D01*
X33706227Y14365907D01*
X32891640Y13551320D01*
X32461718Y13551320D01*
X31647133Y14365906D01*
X31015413Y13734186D01*
X30999524Y13714127D01*
X30999519Y13714119D01*
X30958466Y13608149D01*
X30617000Y13608149D01*
X30617000Y14663398D01*
X30616998Y14663406D01*
X30615640Y14668473D01*
X30597278Y14737004D01*
X30559177Y14802996D01*
X30505296Y14856877D01*
X29633596Y15728577D01*
X29567604Y15766678D01*
X29494000Y15786400D01*
X29493999Y15786400D01*
X27019397Y15786400D01*
X27003221Y15788529D01*
X26963772Y15799100D01*
X26963771Y15799100D01*
X26563000Y15799100D01*
X26532999Y15811527D01*
X31232000Y15811527D01*
X31232000Y15684472D01*
X31256786Y15559861D01*
X31256786Y15559860D01*
X31305408Y15442477D01*
X31305409Y15442475D01*
X31375995Y15336836D01*
X31465836Y15246995D01*
X31571475Y15176409D01*
X31571477Y15176408D01*
X31688861Y15127786D01*
X31813472Y15103000D01*
X31813473Y15103000D01*
X31940527Y15103000D01*
X32065138Y15127786D01*
X32065139Y15127786D01*
X32182522Y15176408D01*
X32182524Y15176409D01*
X32288163Y15246995D01*
X32378004Y15336836D01*
X32381993Y15342806D01*
X32388853Y15353073D01*
X32428627Y15379649D01*
X32475543Y15370317D01*
X32492787Y15353073D01*
X32522501Y15308603D01*
X32531833Y15261687D01*
X32509341Y15224888D01*
X32493816Y15212591D01*
X32493802Y15212578D01*
X31862092Y14580867D01*
X32676680Y13766280D01*
X33491266Y14580866D01*
X33148885Y14923247D01*
X33130579Y14967441D01*
X33148885Y15011635D01*
X33180885Y15028740D01*
X33249801Y15042448D01*
X33367184Y15091070D01*
X33367186Y15091071D01*
X33472825Y15161657D01*
X33562666Y15251498D01*
X33633252Y15357137D01*
X33633253Y15357139D01*
X33633254Y15357140D01*
X33681875Y15474522D01*
X33686347Y15497003D01*
X33712923Y15536777D01*
X33759839Y15546109D01*
X33791840Y15529004D01*
X34403007Y14917836D01*
X34421313Y14873642D01*
X34420112Y14861449D01*
X34407000Y14795528D01*
X34407000Y14668472D01*
X34431786Y14543861D01*
X34431786Y14543860D01*
X34480408Y14426477D01*
X34480409Y14426475D01*
X34550995Y14320836D01*
X34640836Y14230995D01*
X34746475Y14160409D01*
X34746477Y14160408D01*
X34863861Y14111786D01*
X34988472Y14087000D01*
X34988473Y14087000D01*
X35115527Y14087000D01*
X35240138Y14111786D01*
X35240139Y14111786D01*
X35357522Y14160408D01*
X35357524Y14160409D01*
X35463163Y14230995D01*
X35553004Y14320836D01*
X35623590Y14426475D01*
X35623591Y14426477D01*
X35623592Y14426478D01*
X35672213Y14543860D01*
X35697000Y14668473D01*
X35697000Y14795527D01*
X35672213Y14920140D01*
X35623592Y15037522D01*
X35553004Y15143164D01*
X35463164Y15233004D01*
X35357522Y15303592D01*
X35240140Y15352213D01*
X35115527Y15377000D01*
X34988473Y15377000D01*
X34922548Y15363886D01*
X34875634Y15373218D01*
X34866167Y15380986D01*
X34177848Y16069306D01*
X34159542Y16113500D01*
X34177848Y16157694D01*
X34222042Y16176000D01*
X34295000Y16176000D01*
X34599000Y16176000D01*
X34717388Y16176000D01*
X34742807Y16178949D01*
X34742808Y16178949D01*
X34846778Y16224857D01*
X34927142Y16305221D01*
X34973051Y16409194D01*
X34976000Y16434611D01*
X34976000Y16778000D01*
X34599000Y16778000D01*
X34599000Y16176000D01*
X34295000Y16176000D01*
X34295000Y17082000D01*
X34599000Y17082000D01*
X34975999Y17082000D01*
X34975999Y17425388D01*
X34973050Y17450807D01*
X34973050Y17450808D01*
X34927142Y17554778D01*
X34846778Y17635142D01*
X34742805Y17681051D01*
X34717388Y17683999D01*
X34599000Y17683999D01*
X34599000Y17082000D01*
X34295000Y17082000D01*
X34295000Y17683999D01*
X34176612Y17683999D01*
X34151192Y17681050D01*
X34151191Y17681050D01*
X34047221Y17635142D01*
X33964858Y17552779D01*
X33920664Y17534473D01*
X33885940Y17545007D01*
X33869239Y17556166D01*
X33850231Y17568867D01*
X33791748Y17580500D01*
X33302252Y17580500D01*
X33243769Y17568867D01*
X33243766Y17568865D01*
X33181724Y17527409D01*
X33134808Y17518076D01*
X33112276Y17527409D01*
X33085939Y17545007D01*
X33050231Y17568867D01*
X32991748Y17580500D01*
X32502252Y17580500D01*
X32443769Y17568867D01*
X32443767Y17568866D01*
X32377447Y17524552D01*
X32348967Y17481928D01*
X32309193Y17455352D01*
X32262277Y17464684D01*
X32245033Y17481928D01*
X32216552Y17524552D01*
X32169239Y17556166D01*
X32150231Y17568867D01*
X32091748Y17580500D01*
X31602252Y17580500D01*
X31543769Y17568867D01*
X31543767Y17568866D01*
X31477447Y17524552D01*
X31433133Y17458232D01*
X31433132Y17458230D01*
X31421500Y17399748D01*
X31421500Y16460251D01*
X31433132Y16401769D01*
X31433133Y16401767D01*
X31479168Y16332873D01*
X31488500Y16285957D01*
X31467786Y16251395D01*
X31468007Y16251175D01*
X31467127Y16250295D01*
X31466855Y16249841D01*
X31465839Y16249007D01*
X31375995Y16159163D01*
X31305409Y16053524D01*
X31305408Y16053522D01*
X31256786Y15936139D01*
X31256786Y15936138D01*
X31232000Y15811527D01*
X26532999Y15811527D01*
X26518806Y15817406D01*
X26500500Y15861600D01*
X26500500Y15948674D01*
X26485966Y16021739D01*
X26485965Y16021741D01*
X26461038Y16059047D01*
X26430601Y16104601D01*
X26430600Y16104601D01*
X26427181Y16109719D01*
X26429756Y16111440D01*
X26415690Y16145400D01*
X26433996Y16189594D01*
X26478190Y16207900D01*
X27154271Y16207900D01*
X27154272Y16207900D01*
X27154273Y16207900D01*
X27154278Y16207901D01*
X27231106Y16228486D01*
X27231108Y16228487D01*
X27299993Y16268259D01*
X27299999Y16268264D01*
X27856328Y16824594D01*
X27900522Y16842900D01*
X28475714Y16842900D01*
X28519908Y16824594D01*
X28527680Y16815124D01*
X28570934Y16750391D01*
X28581997Y16733835D01*
X28671834Y16643997D01*
X28671836Y16643995D01*
X28777475Y16573409D01*
X28777477Y16573408D01*
X28894861Y16524786D01*
X29019472Y16500000D01*
X29019473Y16500000D01*
X29146527Y16500000D01*
X29271138Y16524786D01*
X29271139Y16524786D01*
X29388522Y16573408D01*
X29388524Y16573409D01*
X29494163Y16643995D01*
X29584003Y16733835D01*
X29584006Y16733839D01*
X29654590Y16839475D01*
X29654591Y16839477D01*
X29654592Y16839478D01*
X29703213Y16956860D01*
X29728000Y17081473D01*
X29728000Y17208527D01*
X29708927Y17304412D01*
X29718259Y17351327D01*
X29726032Y17360798D01*
X29959735Y17594500D01*
X29959740Y17594506D01*
X29999512Y17663391D01*
X29999513Y17663393D01*
X30017030Y17728771D01*
X30017031Y17728773D01*
X41311733Y17728773D01*
X41943453Y17097053D01*
X41963512Y17081164D01*
X41963520Y17081159D01*
X42069490Y17040106D01*
X42183149Y17040106D01*
X42289124Y17081162D01*
X42289129Y17081164D01*
X42309185Y17097050D01*
X42309197Y17097061D01*
X42940907Y17728771D01*
X42940907Y17728772D01*
X42126320Y18543360D01*
X41311733Y17728773D01*
X30017031Y17728773D01*
X30020100Y17740228D01*
X30020100Y17819772D01*
X30020100Y18134611D01*
X31318001Y18134611D01*
X31320949Y18109192D01*
X31320949Y18109191D01*
X31366857Y18005221D01*
X31447221Y17924857D01*
X31551194Y17878948D01*
X31576611Y17876000D01*
X31695000Y17876000D01*
X31999000Y17876000D01*
X32117388Y17876000D01*
X32142807Y17878949D01*
X32142808Y17878949D01*
X32246778Y17924857D01*
X32252806Y17930885D01*
X32297000Y17949191D01*
X32341194Y17930885D01*
X32347221Y17924857D01*
X32451194Y17878948D01*
X32476611Y17876000D01*
X32595000Y17876000D01*
X32595000Y18478000D01*
X31999000Y18478000D01*
X31999000Y17876000D01*
X31695000Y17876000D01*
X31695000Y18478000D01*
X31318001Y18478000D01*
X31318001Y18134611D01*
X30020100Y18134611D01*
X30020100Y18700844D01*
X30038406Y18745038D01*
X30082600Y18763344D01*
X30126794Y18745038D01*
X30195834Y18675997D01*
X30195836Y18675995D01*
X30301475Y18605409D01*
X30301477Y18605408D01*
X30418861Y18556786D01*
X30543472Y18532000D01*
X30543473Y18532000D01*
X30670527Y18532000D01*
X30795136Y18556786D01*
X30795140Y18556787D01*
X30836914Y18574090D01*
X30912522Y18605408D01*
X30912524Y18605409D01*
X31018163Y18675995D01*
X31108004Y18765836D01*
X31178590Y18871475D01*
X31178592Y18871478D01*
X31194352Y18909526D01*
X31197758Y18917748D01*
X31231583Y18951573D01*
X31279418Y18951572D01*
X31313243Y18917747D01*
X31318000Y18893830D01*
X31318000Y18782000D01*
X32684500Y18782000D01*
X32728694Y18763694D01*
X32747000Y18719500D01*
X32747000Y18630000D01*
X32836500Y18630000D01*
X32880694Y18611694D01*
X32899000Y18567500D01*
X32899000Y17876000D01*
X33017388Y17876000D01*
X33042807Y17878949D01*
X33042808Y17878949D01*
X33146778Y17924857D01*
X33194527Y17972606D01*
X33238721Y17990912D01*
X33250913Y17989711D01*
X33302248Y17979500D01*
X33302252Y17979500D01*
X33791748Y17979500D01*
X33850230Y17991132D01*
X33850232Y17991133D01*
X33885941Y18014993D01*
X33932858Y18024325D01*
X33964858Y18007220D01*
X34047221Y17924857D01*
X34151194Y17878948D01*
X34176611Y17876000D01*
X34295000Y17876000D01*
X34599000Y17876000D01*
X34717388Y17876000D01*
X34742807Y17878949D01*
X34742808Y17878949D01*
X34846778Y17924857D01*
X34927142Y18005221D01*
X34973051Y18109194D01*
X34976000Y18134611D01*
X34976000Y18478000D01*
X34599000Y18478000D01*
X34599000Y17876000D01*
X34295000Y17876000D01*
X34295000Y18567500D01*
X34313306Y18611694D01*
X34357500Y18630000D01*
X34447000Y18630000D01*
X34447000Y18719500D01*
X34465306Y18763694D01*
X34509500Y18782000D01*
X34975999Y18782000D01*
X34975999Y18815149D01*
X40408106Y18815149D01*
X40408106Y18701490D01*
X40449162Y18595515D01*
X40449164Y18595510D01*
X40465050Y18575454D01*
X40465061Y18575442D01*
X41096772Y17943732D01*
X41911359Y18758319D01*
X41911358Y18758320D01*
X42341280Y18758320D01*
X42341280Y18758319D01*
X43155866Y17943733D01*
X43787586Y18575453D01*
X43803475Y18595512D01*
X43803480Y18595520D01*
X43844533Y18701490D01*
X43844534Y18701490D01*
X43844534Y18815149D01*
X43803477Y18921124D01*
X43803475Y18921129D01*
X43787589Y18941185D01*
X43787578Y18941197D01*
X43155867Y19572907D01*
X42341280Y18758320D01*
X41911358Y18758320D01*
X41096773Y19572906D01*
X40465053Y18941186D01*
X40449164Y18921127D01*
X40449159Y18921119D01*
X40408106Y18815149D01*
X34975999Y18815149D01*
X34975999Y19125388D01*
X34973050Y19150807D01*
X34973050Y19150808D01*
X34927142Y19254778D01*
X34846777Y19335143D01*
X34774665Y19366983D01*
X34741630Y19401580D01*
X34742734Y19449402D01*
X34765185Y19476124D01*
X34799968Y19499366D01*
X34834692Y19509900D01*
X35130514Y19509900D01*
X35174708Y19491594D01*
X35182480Y19482124D01*
X35200939Y19454500D01*
X35236798Y19400833D01*
X35326636Y19310995D01*
X35432275Y19240409D01*
X35432277Y19240408D01*
X35549661Y19191786D01*
X35674272Y19167000D01*
X35674273Y19167000D01*
X35801327Y19167000D01*
X35925938Y19191786D01*
X35925939Y19191786D01*
X36043322Y19240408D01*
X36043324Y19240409D01*
X36148963Y19310995D01*
X36238804Y19400836D01*
X36309390Y19506475D01*
X36309391Y19506477D01*
X36309392Y19506478D01*
X36358013Y19623860D01*
X36382800Y19748473D01*
X36382800Y19787867D01*
X41311732Y19787867D01*
X42126320Y18973280D01*
X42940906Y19787866D01*
X42309186Y20419586D01*
X42289127Y20435475D01*
X42289119Y20435480D01*
X42183150Y20476534D01*
X42069490Y20476534D01*
X41963515Y20435477D01*
X41963510Y20435475D01*
X41943454Y20419589D01*
X41943442Y20419578D01*
X41311732Y19787867D01*
X36382800Y19787867D01*
X36382800Y19875527D01*
X36358013Y20000140D01*
X36309392Y20117522D01*
X36238804Y20223164D01*
X36148964Y20313004D01*
X36095831Y20348506D01*
X36069257Y20388277D01*
X36078589Y20435194D01*
X36095828Y20452435D01*
X36098163Y20453995D01*
X36188004Y20543836D01*
X36258590Y20649475D01*
X36258591Y20649477D01*
X36258592Y20649478D01*
X36307213Y20766860D01*
X36332000Y20891473D01*
X36332000Y21018527D01*
X36307213Y21143140D01*
X36258592Y21260522D01*
X36188004Y21366164D01*
X36098164Y21456004D01*
X35992522Y21526592D01*
X35875140Y21575213D01*
X35750527Y21600000D01*
X35623473Y21600000D01*
X35498860Y21575213D01*
X35381478Y21526592D01*
X35275836Y21456004D01*
X35185996Y21366164D01*
X35137216Y21293160D01*
X35131681Y21284876D01*
X35091907Y21258301D01*
X35079714Y21257100D01*
X34933111Y21257100D01*
X34888917Y21275406D01*
X34870611Y21319600D01*
X34871812Y21331793D01*
X34872039Y21332934D01*
X34872500Y21335252D01*
X34872500Y22274748D01*
X34870499Y22284806D01*
X34879831Y22331722D01*
X34919604Y22358299D01*
X34931798Y22359500D01*
X47634305Y22359500D01*
X47678499Y22341194D01*
X47696805Y22297000D01*
X47678499Y22252806D01*
X47653618Y22237559D01*
X47504798Y22189205D01*
X47504795Y22189203D01*
X47504793Y22189203D01*
X47252000Y22065907D01*
X47033166Y21918302D01*
X47018822Y21908627D01*
X46809814Y21720435D01*
X46809810Y21720430D01*
X46768472Y21671165D01*
X46629022Y21504975D01*
X46588671Y21440400D01*
X46479979Y21266458D01*
X46440086Y21176857D01*
X46365580Y21009513D01*
X46291667Y20751748D01*
X46288053Y20739146D01*
X46248911Y20460631D01*
X46248911Y20179368D01*
X46288053Y19900853D01*
X46365579Y19630489D01*
X46479979Y19373541D01*
X46629023Y19135023D01*
X46809810Y18919569D01*
X46809814Y18919564D01*
X47018823Y18731372D01*
X47018822Y18731372D01*
X47251996Y18574095D01*
X47252005Y18574090D01*
X47504798Y18450794D01*
X47772281Y18363885D01*
X47772283Y18363884D01*
X47772285Y18363884D01*
X47772287Y18363883D01*
X47772290Y18363883D01*
X48049263Y18315045D01*
X48049279Y18315043D01*
X48330356Y18305228D01*
X48330357Y18305228D01*
X48610075Y18334628D01*
X48882978Y18402670D01*
X48882979Y18402670D01*
X48882985Y18402672D01*
X49143755Y18508030D01*
X49143757Y18508031D01*
X49295283Y18595515D01*
X49387333Y18648660D01*
X49608967Y18821820D01*
X49618074Y18831250D01*
X49804346Y19024140D01*
X49884908Y19135025D01*
X49969665Y19251683D01*
X49969667Y19251686D01*
X49969669Y19251689D01*
X50098460Y19493910D01*
X50101708Y19500019D01*
X50178269Y19710369D01*
X50210586Y19745637D01*
X50258376Y19747724D01*
X50293644Y19715407D01*
X50299500Y19688993D01*
X50299500Y3171006D01*
X50281194Y3126812D01*
X50237000Y3108506D01*
X50192806Y3126812D01*
X50178270Y3149627D01*
X50101708Y3359981D01*
X49969665Y3608317D01*
X49804346Y3835860D01*
X49608967Y4038180D01*
X49387333Y4211340D01*
X49143756Y4351969D01*
X48882978Y4457330D01*
X48610075Y4525372D01*
X48330357Y4554772D01*
X48049271Y4544956D01*
X47772285Y4496116D01*
X47598143Y4439534D01*
X47504798Y4409205D01*
X47504795Y4409203D01*
X47504793Y4409203D01*
X47252000Y4285907D01*
X47025024Y4132810D01*
X47018822Y4128627D01*
X46809814Y3940435D01*
X46809810Y3940430D01*
X46737824Y3854640D01*
X46629022Y3724975D01*
X46584285Y3653380D01*
X46479979Y3486458D01*
X46365579Y3229510D01*
X46288053Y2959146D01*
X46248911Y2680631D01*
X46248911Y2399368D01*
X46288053Y2120853D01*
X46365579Y1850489D01*
X46479979Y1593541D01*
X46629023Y1355023D01*
X46809810Y1139569D01*
X46809814Y1139564D01*
X47018823Y951372D01*
X47018822Y951372D01*
X47251996Y794095D01*
X47252005Y794090D01*
X47504798Y670794D01*
X47653618Y622441D01*
X47689993Y591375D01*
X47693746Y543687D01*
X47662680Y507312D01*
X47634305Y500500D01*
X30923622Y500500D01*
X30879428Y518806D01*
X30861122Y563000D01*
X30879428Y607194D01*
X31227583Y955349D01*
X31271777Y973655D01*
X31295694Y968898D01*
X31372462Y937100D01*
X31447022Y906216D01*
X31447023Y906215D01*
X31647696Y866300D01*
X31647697Y866300D01*
X31852303Y866300D01*
X32052976Y906215D01*
X32052979Y906216D01*
X32242006Y984514D01*
X32242011Y984517D01*
X32412132Y1098188D01*
X32556811Y1242867D01*
X32670482Y1412988D01*
X32670485Y1412993D01*
X32748783Y1602020D01*
X32748784Y1602023D01*
X32755848Y1637536D01*
X32788700Y1802697D01*
X32788700Y2007303D01*
X32748784Y2207978D01*
X32670484Y2397009D01*
X32556811Y2567133D01*
X32412133Y2711811D01*
X32242009Y2825484D01*
X32052978Y2903784D01*
X31852303Y2943700D01*
X31647697Y2943700D01*
X31447022Y2903784D01*
X31447020Y2903783D01*
X31257993Y2825485D01*
X31257988Y2825482D01*
X31087867Y2711811D01*
X30943188Y2567132D01*
X30829517Y2397011D01*
X30829514Y2397006D01*
X30751216Y2207979D01*
X30751215Y2207976D01*
X30711300Y2007303D01*
X30711300Y1802696D01*
X30751215Y1602024D01*
X30813898Y1450694D01*
X30813897Y1402859D01*
X30800349Y1382583D01*
X30373172Y955406D01*
X30328978Y937100D01*
X29837081Y937100D01*
X29792887Y955406D01*
X29774581Y999600D01*
X29792887Y1043794D01*
X29802358Y1051567D01*
X29872132Y1098188D01*
X30016811Y1242867D01*
X30130482Y1412988D01*
X30130485Y1412993D01*
X30208783Y1602020D01*
X30208784Y1602023D01*
X30215848Y1637536D01*
X30248700Y1802697D01*
X30248700Y2007303D01*
X30208784Y2207978D01*
X30130484Y2397009D01*
X30016811Y2567133D01*
X29872133Y2711811D01*
X29702009Y2825484D01*
X29512978Y2903784D01*
X29312303Y2943700D01*
X29107697Y2943700D01*
X28907022Y2903784D01*
X28907020Y2903783D01*
X28717993Y2825485D01*
X28717988Y2825482D01*
X28547867Y2711811D01*
X28403188Y2567132D01*
X28289517Y2397011D01*
X28289514Y2397006D01*
X28211216Y2207979D01*
X28211215Y2207976D01*
X28171300Y2007303D01*
X28171300Y1802696D01*
X28211215Y1602023D01*
X28211216Y1602020D01*
X28289514Y1412993D01*
X28289517Y1412988D01*
X28403188Y1242867D01*
X28547867Y1098188D01*
X28617642Y1051567D01*
X28644218Y1011793D01*
X28634886Y964877D01*
X28595112Y938301D01*
X28582919Y937100D01*
X27297081Y937100D01*
X27252887Y955406D01*
X27234581Y999600D01*
X27252887Y1043794D01*
X27262358Y1051567D01*
X27332132Y1098188D01*
X27476811Y1242867D01*
X27590482Y1412988D01*
X27590485Y1412993D01*
X27668783Y1602020D01*
X27668784Y1602023D01*
X27675848Y1637536D01*
X27708700Y1802697D01*
X27708700Y2007303D01*
X27668784Y2207978D01*
X27590484Y2397009D01*
X27476811Y2567133D01*
X27332133Y2711811D01*
X27162009Y2825484D01*
X26972978Y2903784D01*
X26772303Y2943700D01*
X26567697Y2943700D01*
X26367022Y2903784D01*
X26367020Y2903783D01*
X26177993Y2825485D01*
X26177988Y2825482D01*
X26007867Y2711811D01*
X25863188Y2567132D01*
X25749517Y2397011D01*
X25749514Y2397006D01*
X25671216Y2207979D01*
X25671215Y2207976D01*
X25631300Y2007303D01*
X25631300Y1802696D01*
X25671215Y1602023D01*
X25671216Y1602020D01*
X25749514Y1412993D01*
X25749517Y1412988D01*
X25863188Y1242867D01*
X26007867Y1098188D01*
X26077642Y1051567D01*
X26104218Y1011793D01*
X26094886Y964877D01*
X26055112Y938301D01*
X26042919Y937100D01*
X24757081Y937100D01*
X24712887Y955406D01*
X24694581Y999600D01*
X24712887Y1043794D01*
X24722358Y1051567D01*
X24792132Y1098188D01*
X24936811Y1242867D01*
X25050482Y1412988D01*
X25050485Y1412993D01*
X25128783Y1602020D01*
X25128784Y1602023D01*
X25135848Y1637536D01*
X25168700Y1802697D01*
X25168700Y2007303D01*
X25128784Y2207978D01*
X25050484Y2397009D01*
X24936811Y2567133D01*
X24792133Y2711811D01*
X24622009Y2825484D01*
X24432978Y2903784D01*
X24232303Y2943700D01*
X24027697Y2943700D01*
X23827022Y2903784D01*
X23827020Y2903783D01*
X23637993Y2825485D01*
X23637988Y2825482D01*
X23467867Y2711811D01*
X23323188Y2567132D01*
X23209517Y2397011D01*
X23209514Y2397006D01*
X23131216Y2207979D01*
X23131215Y2207976D01*
X23091300Y2007303D01*
X23091300Y1802696D01*
X23131215Y1602023D01*
X23131216Y1602020D01*
X23209514Y1412993D01*
X23209517Y1412988D01*
X23323188Y1242867D01*
X23467867Y1098188D01*
X23537642Y1051567D01*
X23564218Y1011793D01*
X23554886Y964877D01*
X23515112Y938301D01*
X23502919Y937100D01*
X22388303Y937100D01*
X22344109Y955406D01*
X22325803Y999600D01*
X22344109Y1043794D01*
X22461214Y1160899D01*
X22461221Y1160907D01*
X22566893Y1306352D01*
X22648517Y1466545D01*
X22648518Y1466548D01*
X22704075Y1637535D01*
X22704075Y1637536D01*
X22722363Y1752999D01*
X22722363Y1753000D01*
X22066909Y1753000D01*
X22090000Y1839174D01*
X22090000Y1970826D01*
X22066909Y2057000D01*
X22722363Y2057000D01*
X22704075Y2172463D01*
X22704075Y2172464D01*
X22648518Y2343451D01*
X22648517Y2343454D01*
X22566893Y2503647D01*
X22461221Y2649092D01*
X22461214Y2649100D01*
X22334100Y2776214D01*
X22334092Y2776221D01*
X22188647Y2881893D01*
X22028454Y2963517D01*
X22028451Y2963518D01*
X21857464Y3019075D01*
X21742000Y3037363D01*
X21742000Y2381909D01*
X21655826Y2405000D01*
X21524174Y2405000D01*
X21438000Y2381909D01*
X21438000Y3037363D01*
X21437999Y3037363D01*
X21322536Y3019075D01*
X21322535Y3019075D01*
X21151548Y2963518D01*
X21151545Y2963517D01*
X20991352Y2881893D01*
X20845907Y2776221D01*
X20845899Y2776214D01*
X20728794Y2659109D01*
X20684600Y2640803D01*
X20640406Y2659109D01*
X20622100Y2703303D01*
X20622100Y3391744D01*
X22652984Y3391744D01*
X22652984Y3391743D01*
X22825078Y3219650D01*
X22825090Y3219640D01*
X22845144Y3203755D01*
X22845147Y3203753D01*
X22951122Y3162698D01*
X23064781Y3162698D01*
X23170756Y3203754D01*
X23170761Y3203756D01*
X23190817Y3219642D01*
X23190829Y3219653D01*
X23468984Y3497809D01*
X23468984Y3497810D01*
X23114017Y3852777D01*
X22652984Y3391744D01*
X20622100Y3391744D01*
X20622100Y3446252D01*
X20640406Y3490446D01*
X20649877Y3498219D01*
X20736708Y3556237D01*
X20827762Y3647291D01*
X20899299Y3754354D01*
X20899302Y3754359D01*
X20917738Y3798868D01*
X20948579Y3873323D01*
X20973700Y3999616D01*
X20973700Y4018502D01*
X22208977Y4018502D01*
X22208977Y3904843D01*
X22250033Y3798868D01*
X22250035Y3798863D01*
X22265918Y3778812D01*
X22265928Y3778800D01*
X22438023Y3606705D01*
X22899056Y4067738D01*
X23328978Y4067738D01*
X23328978Y4067737D01*
X23683945Y3712770D01*
X23962106Y3990931D01*
X23962116Y3990943D01*
X23978001Y4010997D01*
X23978003Y4011001D01*
X23984102Y4026744D01*
X28494984Y4026744D01*
X28494984Y4026743D01*
X28667078Y3854650D01*
X28667090Y3854640D01*
X28687144Y3838755D01*
X28687147Y3838753D01*
X28793122Y3797698D01*
X28906781Y3797698D01*
X29012756Y3838754D01*
X29012761Y3838756D01*
X29032817Y3854642D01*
X29032829Y3854653D01*
X29310985Y4132809D01*
X29310985Y4132810D01*
X28956017Y4487778D01*
X28494984Y4026744D01*
X23984102Y4026744D01*
X24002877Y4075205D01*
X24002878Y4075210D01*
X24019059Y4116977D01*
X24019059Y4230634D01*
X23978002Y4336609D01*
X23978000Y4336614D01*
X23962114Y4356670D01*
X23962111Y4356673D01*
X23790010Y4528771D01*
X23328978Y4067738D01*
X22899056Y4067738D01*
X22544089Y4422705D01*
X22265924Y4144540D01*
X22250032Y4124477D01*
X22208977Y4018502D01*
X20973700Y4018502D01*
X20973700Y4128384D01*
X20948579Y4254677D01*
X20899301Y4373643D01*
X20827762Y4480709D01*
X20736709Y4571762D01*
X20697048Y4598261D01*
X20677107Y4611587D01*
X20638076Y4637666D01*
X22759049Y4637666D01*
X23114017Y4282699D01*
X23484821Y4653502D01*
X28050977Y4653502D01*
X28050977Y4539843D01*
X28092033Y4433868D01*
X28092035Y4433863D01*
X28107918Y4413812D01*
X28107928Y4413800D01*
X28280022Y4241705D01*
X28280023Y4241705D01*
X28741057Y4702738D01*
X29170978Y4702738D01*
X29525946Y4347771D01*
X29804106Y4625931D01*
X29804116Y4625943D01*
X29820001Y4645997D01*
X29820003Y4646000D01*
X29861058Y4751975D01*
X29861059Y4751975D01*
X29861059Y4865634D01*
X29820002Y4971609D01*
X29820000Y4971614D01*
X29804114Y4991670D01*
X29804103Y4991682D01*
X29632012Y5163772D01*
X29170978Y4702738D01*
X28741057Y4702738D01*
X28386089Y5057706D01*
X28107929Y4779546D01*
X28107919Y4779534D01*
X28092034Y4759480D01*
X28092032Y4759477D01*
X28050977Y4653502D01*
X23484821Y4653502D01*
X23534806Y4703487D01*
X23575051Y4743732D01*
X23402951Y4915832D01*
X23382888Y4931724D01*
X23276914Y4972780D01*
X23163254Y4972780D01*
X23057279Y4931723D01*
X23057274Y4931721D01*
X23037218Y4915835D01*
X23037206Y4915824D01*
X22759049Y4637666D01*
X20638076Y4637666D01*
X20629643Y4643301D01*
X20510677Y4692579D01*
X20384384Y4717700D01*
X20255616Y4717700D01*
X20129323Y4692579D01*
X20056439Y4662389D01*
X20010359Y4643302D01*
X20010354Y4643299D01*
X19903291Y4571762D01*
X19812237Y4480708D01*
X19740700Y4373645D01*
X19740697Y4373640D01*
X19691420Y4254675D01*
X19666300Y4128384D01*
X19666300Y3999615D01*
X19691420Y3873324D01*
X19740697Y3754359D01*
X19740700Y3754354D01*
X19812237Y3647291D01*
X19903291Y3556237D01*
X19990123Y3498219D01*
X20016699Y3458445D01*
X20017900Y3446252D01*
X20017900Y2532081D01*
X19999594Y2487887D01*
X19955400Y2469581D01*
X19911206Y2487887D01*
X19903433Y2497358D01*
X19902603Y2498600D01*
X19856811Y2567133D01*
X19712133Y2711811D01*
X19542009Y2825484D01*
X19352978Y2903784D01*
X19152303Y2943700D01*
X18947697Y2943700D01*
X18747022Y2903784D01*
X18747020Y2903783D01*
X18557993Y2825485D01*
X18557988Y2825482D01*
X18387867Y2711811D01*
X18243188Y2567132D01*
X18129517Y2397011D01*
X18129514Y2397006D01*
X18051216Y2207979D01*
X18051215Y2207976D01*
X18011300Y2007303D01*
X18011300Y1802696D01*
X18051215Y1602023D01*
X18051216Y1602020D01*
X18129514Y1412993D01*
X18129517Y1412988D01*
X18243188Y1242867D01*
X18387867Y1098188D01*
X18557988Y984517D01*
X18557993Y984514D01*
X18747020Y906216D01*
X18747023Y906215D01*
X18947696Y866300D01*
X18947697Y866300D01*
X19152303Y866300D01*
X19352976Y906215D01*
X19352979Y906216D01*
X19542006Y984514D01*
X19542011Y984517D01*
X19712132Y1098188D01*
X19856811Y1242867D01*
X19924314Y1343893D01*
X19929832Y1352151D01*
X19969606Y1378727D01*
X20016522Y1369395D01*
X20035151Y1346698D01*
X20036438Y1347441D01*
X20078259Y1275006D01*
X20078264Y1275000D01*
X20746072Y607194D01*
X20764378Y563000D01*
X20746072Y518806D01*
X20701878Y500500D01*
X3181586Y500500D01*
X3137392Y518806D01*
X3119086Y563000D01*
X3137392Y607194D01*
X3161025Y621674D01*
X3160954Y621852D01*
X3162017Y622281D01*
X3162284Y622445D01*
X3162985Y622672D01*
X3423755Y728030D01*
X3423757Y728031D01*
X3545544Y798345D01*
X3667333Y868660D01*
X3888967Y1041820D01*
X4084346Y1244140D01*
X4249665Y1471683D01*
X4249667Y1471686D01*
X4249669Y1471689D01*
X4381703Y1720010D01*
X4381707Y1720017D01*
X4393341Y1751981D01*
X4477904Y1984315D01*
X4536380Y2259427D01*
X4556000Y2540000D01*
X4536380Y2820573D01*
X4477904Y3095685D01*
X4381708Y3359981D01*
X4249665Y3608317D01*
X4084346Y3835860D01*
X3888967Y4038180D01*
X3667333Y4211340D01*
X3423756Y4351969D01*
X3162978Y4457330D01*
X2890075Y4525372D01*
X2610357Y4554772D01*
X2329271Y4544956D01*
X2052285Y4496116D01*
X1878143Y4439534D01*
X1784798Y4409205D01*
X1784795Y4409203D01*
X1784793Y4409203D01*
X1532000Y4285907D01*
X1305024Y4132810D01*
X1298822Y4128627D01*
X1089814Y3940435D01*
X1089810Y3940430D01*
X1017824Y3854640D01*
X909022Y3724975D01*
X864285Y3653380D01*
X759979Y3486458D01*
X645579Y3229510D01*
X642749Y3219640D01*
X623077Y3151039D01*
X593301Y3113604D01*
X545773Y3108189D01*
X508336Y3137967D01*
X500500Y3168268D01*
X500500Y5522735D01*
X16251700Y5522735D01*
X16251700Y5337264D01*
X16280714Y5154075D01*
X16338025Y4977691D01*
X16338029Y4977683D01*
X16422228Y4812433D01*
X16531242Y4662389D01*
X16531249Y4662381D01*
X16662381Y4531249D01*
X16662389Y4531242D01*
X16812433Y4422228D01*
X16977683Y4338029D01*
X16977691Y4338025D01*
X17154075Y4280714D01*
X17337264Y4251700D01*
X17337266Y4251700D01*
X17522735Y4251700D01*
X17601904Y4264239D01*
X17705919Y4280713D01*
X17705920Y4280713D01*
X17705924Y4280714D01*
X17882308Y4338025D01*
X17882316Y4338029D01*
X18047566Y4422228D01*
X18197610Y4531242D01*
X18197618Y4531249D01*
X18328750Y4662381D01*
X18328757Y4662389D01*
X18437771Y4812433D01*
X18447353Y4831237D01*
X18521974Y4977690D01*
X18579287Y5154081D01*
X18608300Y5337266D01*
X18608300Y5522734D01*
X18579287Y5705919D01*
X18521974Y5882310D01*
X18437773Y6047564D01*
X18328757Y6197611D01*
X18197611Y6328757D01*
X18047564Y6437773D01*
X17882310Y6521974D01*
X17705919Y6579287D01*
X17522734Y6608300D01*
X17337266Y6608300D01*
X17154081Y6579287D01*
X16977690Y6521974D01*
X16812436Y6437773D01*
X16812433Y6437771D01*
X16662389Y6328757D01*
X16662381Y6328750D01*
X16531249Y6197618D01*
X16531242Y6197610D01*
X16422228Y6047566D01*
X16338029Y5882316D01*
X16338025Y5882308D01*
X16280714Y5705924D01*
X16280713Y5705920D01*
X16280713Y5705919D01*
X16266448Y5615853D01*
X16251700Y5522735D01*
X500500Y5522735D01*
X500500Y15804625D01*
X3109500Y15804625D01*
X3109500Y15691374D01*
X3115913Y15620805D01*
X3166522Y15458393D01*
X3254528Y15312814D01*
X3374814Y15192528D01*
X3520393Y15104522D01*
X3682806Y15053913D01*
X3682804Y15053913D01*
X3753374Y15047500D01*
X3753384Y15047500D01*
X3866625Y15047500D01*
X3937194Y15053913D01*
X4099606Y15104522D01*
X4245185Y15192528D01*
X4365471Y15312814D01*
X4372536Y15324500D01*
X4453478Y15458394D01*
X4504086Y15620804D01*
X4510499Y15691374D01*
X4510500Y15691377D01*
X4510500Y15804623D01*
X4510499Y15804625D01*
X4505321Y15861600D01*
X4504086Y15875196D01*
X4453478Y16037606D01*
X4365472Y16183185D01*
X4245185Y16303472D01*
X4099606Y16391478D01*
X3937196Y16442086D01*
X3866624Y16448499D01*
X3866623Y16448500D01*
X3866616Y16448500D01*
X3753384Y16448500D01*
X3753377Y16448500D01*
X3753374Y16448499D01*
X3682804Y16442086D01*
X3520394Y16391478D01*
X3374815Y16303472D01*
X3374814Y16303471D01*
X3254528Y16183185D01*
X3166522Y16037606D01*
X3115913Y15875194D01*
X3109500Y15804625D01*
X500500Y15804625D01*
X500500Y17522735D01*
X4251700Y17522735D01*
X4251700Y17337264D01*
X4280714Y17154075D01*
X4338025Y16977691D01*
X4338029Y16977683D01*
X4422228Y16812433D01*
X4531242Y16662389D01*
X4531249Y16662381D01*
X4662381Y16531249D01*
X4662389Y16531242D01*
X4812433Y16422228D01*
X4977683Y16338029D01*
X4977691Y16338025D01*
X5154075Y16280714D01*
X5337264Y16251700D01*
X5337266Y16251700D01*
X5522735Y16251700D01*
X5601904Y16264239D01*
X5705919Y16280713D01*
X5705920Y16280713D01*
X5705924Y16280714D01*
X5882308Y16338025D01*
X5882316Y16338029D01*
X6047566Y16422228D01*
X6197610Y16531242D01*
X6197618Y16531249D01*
X6328750Y16662381D01*
X6328757Y16662389D01*
X6437771Y16812433D01*
X6439143Y16815124D01*
X6521974Y16977690D01*
X6579287Y17154081D01*
X6608300Y17337266D01*
X6608300Y17522734D01*
X6579287Y17705919D01*
X6521974Y17882310D01*
X6437773Y18047564D01*
X6328757Y18197611D01*
X6197611Y18328757D01*
X6047564Y18437773D01*
X5882310Y18521974D01*
X5705919Y18579287D01*
X5522734Y18608300D01*
X5337266Y18608300D01*
X5154081Y18579287D01*
X4977690Y18521974D01*
X4812436Y18437773D01*
X4812433Y18437771D01*
X4662389Y18328757D01*
X4662381Y18328750D01*
X4531249Y18197618D01*
X4531242Y18197610D01*
X4422228Y18047566D01*
X4338029Y17882316D01*
X4338025Y17882308D01*
X4280714Y17705924D01*
X4280713Y17705920D01*
X4280713Y17705919D01*
X4272490Y17654000D01*
X4251700Y17522735D01*
X500500Y17522735D01*
X500500Y19691731D01*
X518806Y19735925D01*
X563000Y19754231D01*
X607194Y19735925D01*
X623078Y19708959D01*
X628804Y19688993D01*
X645579Y19630489D01*
X759979Y19373541D01*
X909023Y19135023D01*
X1089810Y18919569D01*
X1089814Y18919564D01*
X1298823Y18731372D01*
X1298822Y18731372D01*
X1531996Y18574095D01*
X1532005Y18574090D01*
X1784798Y18450794D01*
X2052281Y18363885D01*
X2052283Y18363884D01*
X2052285Y18363884D01*
X2052287Y18363883D01*
X2052290Y18363883D01*
X2329263Y18315045D01*
X2329279Y18315043D01*
X2610356Y18305228D01*
X2610357Y18305228D01*
X2890075Y18334628D01*
X3162978Y18402670D01*
X3162979Y18402670D01*
X3162985Y18402672D01*
X3423755Y18508030D01*
X3423757Y18508031D01*
X3575283Y18595515D01*
X3667333Y18648660D01*
X3888967Y18821820D01*
X3898074Y18831250D01*
X4084346Y19024140D01*
X4164908Y19135025D01*
X4249665Y19251683D01*
X4249667Y19251686D01*
X4249669Y19251689D01*
X4378460Y19493910D01*
X4381708Y19500019D01*
X4477904Y19764315D01*
X4536380Y20039427D01*
X4556000Y20320000D01*
X4536380Y20600573D01*
X4477904Y20875685D01*
X4381708Y21139981D01*
X4319435Y21257100D01*
X4319202Y21257538D01*
X4249669Y21388310D01*
X4249667Y21388313D01*
X4249665Y21388317D01*
X4084346Y21615860D01*
X3888967Y21818180D01*
X3667333Y21991340D01*
X3423756Y22131969D01*
X3162978Y22237330D01*
X3162968Y22237332D01*
X3162284Y22237555D01*
X3162160Y22237660D01*
X3160954Y22238148D01*
X3161116Y22238551D01*
X3125904Y22268615D01*
X3122141Y22316302D01*
X3153201Y22352682D01*
X3181586Y22359500D01*
X20317356Y22359500D01*
X20361550Y22341194D01*
G37*
%TD.AperFunction*%
%TA.AperFunction,Conductor*%
G36*
X25533694Y14205694D02*
G01*
X25552000Y14161500D01*
X25552000Y13297520D01*
X25541467Y13262797D01*
X25514034Y13221741D01*
X25514033Y13221739D01*
X25499500Y13148674D01*
X25499500Y12877973D01*
X25498169Y12867871D01*
X25498435Y12867837D01*
X25497900Y12863771D01*
X25497900Y11685000D01*
X25479594Y11640806D01*
X25435400Y11622500D01*
X25311752Y11622500D01*
X25253269Y11610867D01*
X25253267Y11610866D01*
X25186947Y11566552D01*
X25142633Y11500232D01*
X25142633Y11500231D01*
X25134238Y11458028D01*
X25107662Y11418255D01*
X25060745Y11408923D01*
X25020972Y11435499D01*
X25010883Y11465615D01*
X25010707Y11465595D01*
X25010610Y11466430D01*
X25010542Y11466634D01*
X25010498Y11467394D01*
X25007550Y11492807D01*
X25007550Y11492808D01*
X24961642Y11596778D01*
X24877522Y11680899D01*
X24859216Y11725093D01*
X24877522Y11769287D01*
X25241735Y12133500D01*
X25241740Y12133506D01*
X25245773Y12140492D01*
X25283722Y12169613D01*
X25297739Y12170434D01*
X25300000Y12172389D01*
X25300000Y12263161D01*
X25301579Y12275164D01*
X25301565Y12275166D01*
X25302100Y12279230D01*
X25302100Y12863771D01*
X25301565Y12867837D01*
X25301830Y12867871D01*
X25300500Y12877973D01*
X25300500Y13148674D01*
X25285966Y13221739D01*
X25285965Y13221741D01*
X25270607Y13244726D01*
X25258532Y13262797D01*
X25248000Y13297520D01*
X25248000Y14161500D01*
X25266306Y14205694D01*
X25310500Y14224000D01*
X25489500Y14224000D01*
X25533694Y14205694D01*
G37*
%TD.AperFunction*%
%TA.AperFunction,Conductor*%
G36*
X29353194Y20328571D02*
G01*
X29371500Y20284377D01*
X29371500Y19785251D01*
X29383132Y19726769D01*
X29383133Y19726767D01*
X29405367Y19693493D01*
X29415900Y19658770D01*
X29415900Y17931022D01*
X29397594Y17886828D01*
X29298798Y17788032D01*
X29254604Y17769726D01*
X29242416Y17770926D01*
X29146527Y17790000D01*
X29019473Y17790000D01*
X28894860Y17765213D01*
X28777478Y17716592D01*
X28671836Y17646004D01*
X28581996Y17556164D01*
X28532393Y17481928D01*
X28527681Y17474876D01*
X28487907Y17448301D01*
X28475714Y17447100D01*
X27789272Y17447100D01*
X27709728Y17447100D01*
X27709721Y17447098D01*
X27632893Y17426513D01*
X27632890Y17426512D01*
X27597750Y17406223D01*
X27550324Y17399978D01*
X27512373Y17429098D01*
X27503999Y17460349D01*
X27504000Y17654000D01*
X26962500Y17654000D01*
X26918306Y17672306D01*
X26900000Y17716500D01*
X26900000Y17806000D01*
X26810500Y17806000D01*
X26766306Y17824306D01*
X26748000Y17868500D01*
X26748000Y17958000D01*
X27052000Y17958000D01*
X27503999Y17958000D01*
X27503999Y18626388D01*
X27501050Y18651807D01*
X27501050Y18651808D01*
X27455142Y18755778D01*
X27374778Y18836142D01*
X27270805Y18882051D01*
X27245388Y18884999D01*
X27052000Y18884999D01*
X27052000Y17958000D01*
X26748000Y17958000D01*
X26748000Y18884999D01*
X26554612Y18884999D01*
X26529192Y18882050D01*
X26529191Y18882050D01*
X26425221Y18836142D01*
X26362885Y18773806D01*
X26318691Y18755500D01*
X26283968Y18766033D01*
X26278231Y18769867D01*
X26277808Y18769951D01*
X26277450Y18770189D01*
X26272543Y18772223D01*
X26272947Y18773198D01*
X26238035Y18796524D01*
X26227500Y18831250D01*
X26227500Y18962339D01*
X26245806Y19006533D01*
X26255276Y19014305D01*
X26319160Y19056993D01*
X26319165Y19056997D01*
X26409004Y19146836D01*
X26479590Y19252475D01*
X26479591Y19252477D01*
X26479592Y19252478D01*
X26528213Y19369860D01*
X26553000Y19494473D01*
X26553000Y19621527D01*
X26528213Y19746140D01*
X26479592Y19863522D01*
X26409004Y19969164D01*
X26319164Y20059004D01*
X26266888Y20093933D01*
X26240313Y20133707D01*
X26249645Y20180623D01*
X26289419Y20207199D01*
X26301612Y20208400D01*
X29059271Y20208400D01*
X29059272Y20208400D01*
X29059273Y20208400D01*
X29059278Y20208401D01*
X29136106Y20228986D01*
X29136108Y20228987D01*
X29204993Y20268759D01*
X29204999Y20268764D01*
X29264806Y20328571D01*
X29309000Y20346877D01*
X29353194Y20328571D01*
G37*
%TD.AperFunction*%
%TD*%
M02*
