%TF.GenerationSoftware,KiCad,Pcbnew,10.99.0-3671-gbe90a7e200*%
%TF.CreationDate,2026-09-10T00:56:22+01:00*%
%TF.ProjectId,kicad_file,6b696361-645f-4666-996c-652e6b696361,rev?*%
%TF.SameCoordinates,Original*%
%TF.FileFunction,Soldermask,Top*%
%TF.FilePolarity,Negative*%
%FSLAX46Y46*%
G04 Gerber Fmt 4.6, Leading zero omitted, Abs format (unit mm)*
G04 Created by KiCad (PCBNEW 10.99.0-3671-gbe90a7e200) date 2026-09-10 00:56:22*
%MOMM*%
%LPD*%
G01*
G04 APERTURE LIST*
G04 Aperture macros list*
%AMRoundRect*
0 Rectangle with rounded corners*
0 $1 Rounding radius*
0 $2 $3 $4 $5 $6 $7 $8 $9 X,Y pos of 4 corners*
0 Add a 4 corners polygon primitive as box body*
4,1,4,$2,$3,$4,$5,$6,$7,$8,$9,$2,$3,0*
0 Add four circle primitives for the rounded corners*
1,1,$1+$1,$2,$3*
1,1,$1+$1,$4,$5*
1,1,$1+$1,$6,$7*
1,1,$1+$1,$8,$9*
0 Add four rect primitives between the rounded corners*
20,1,$1+$1,$2,$3,$4,$5,0*
20,1,$1+$1,$4,$5,$6,$7,0*
20,1,$1+$1,$6,$7,$8,$9,0*
20,1,$1+$1,$8,$9,$2,$3,0*%
G04 Aperture macros list end*
%ADD10C,0.000000*%
%ADD11RoundRect,0.101600X0.750000X-0.650000X0.750000X0.650000X-0.750000X0.650000X-0.750000X-0.650000X0*%
%ADD12RoundRect,0.101600X-0.635000X-1.175000X0.635000X-1.175000X0.635000X1.175000X-0.635000X1.175000X0*%
%ADD13C,3.203200*%
%ADD14RoundRect,0.101600X0.700000X-0.550000X0.700000X0.550000X-0.700000X0.550000X-0.700000X-0.550000X0*%
%ADD15RoundRect,0.101600X-0.700000X0.550000X-0.700000X-0.550000X0.700000X-0.550000X0.700000X0.550000X0*%
%ADD16RoundRect,0.101600X-0.550000X-0.700000X0.550000X-0.700000X0.550000X0.700000X-0.550000X0.700000X0*%
%ADD17C,2.133600*%
%ADD18RoundRect,0.101600X0.550000X0.700000X-0.550000X0.700000X-0.550000X-0.700000X0.550000X-0.700000X0*%
%ADD19C,1.981200*%
G04 APERTURE END LIST*
D10*
%TO.C,U$1*%
G36*
X10761000Y4975000D02*
G01*
X9911000Y4975000D01*
X9911000Y7725000D01*
X10761000Y7725000D01*
X10761000Y4975000D01*
G37*
G36*
X13711000Y4975000D02*
G01*
X12861000Y4975000D01*
X12861000Y7725000D01*
X13711000Y7725000D01*
X13711000Y4975000D01*
G37*
%TO.C,U$3*%
G36*
X15876683Y13369880D02*
G01*
X16049570Y13277470D01*
X16201107Y13153107D01*
X16325470Y13001570D01*
X16417880Y12828683D01*
X16474785Y12641090D01*
X16494000Y12446000D01*
X16417880Y12063317D01*
X16325470Y11890430D01*
X16201107Y11738893D01*
X16049570Y11614530D01*
X15876683Y11522120D01*
X15689090Y11465215D01*
X15494000Y11446000D01*
X15111317Y11522120D01*
X14938430Y11614530D01*
X14786893Y11738893D01*
X14662530Y11890430D01*
X14570120Y12063317D01*
X14513215Y12250910D01*
X14494000Y12446000D01*
X14570120Y12828683D01*
X14662530Y13001570D01*
X14786893Y13153107D01*
X14938430Y13277470D01*
X15111317Y13369880D01*
X15298910Y13426785D01*
X15494000Y13446000D01*
X15876683Y13369880D01*
G37*
%TO.C,U$2*%
G36*
X5843683Y2828880D02*
G01*
X6016570Y2736470D01*
X6168107Y2612107D01*
X6292470Y2460570D01*
X6384880Y2287683D01*
X6441785Y2100090D01*
X6461000Y1905000D01*
X6384880Y1522317D01*
X6292470Y1349430D01*
X6168107Y1197893D01*
X6016570Y1073530D01*
X5843683Y981120D01*
X5656090Y924215D01*
X5461000Y905000D01*
X5078317Y981120D01*
X4905430Y1073530D01*
X4753893Y1197893D01*
X4629530Y1349430D01*
X4537120Y1522317D01*
X4480215Y1709910D01*
X4461000Y1905000D01*
X4537120Y2287683D01*
X4629530Y2460570D01*
X4753893Y2612107D01*
X4905430Y2736470D01*
X5078317Y2828880D01*
X5265910Y2885785D01*
X5461000Y2905000D01*
X5843683Y2828880D01*
G37*
%TD*%
D11*
%TO.C,FB1*%
X5207000Y5527000D03*
X5207000Y7427000D03*
%TD*%
D12*
%TO.C,U$1*%
X11811000Y6350000D03*
%TD*%
D13*
%TO.C,U$5*%
X23368000Y2032000D03*
%TD*%
D14*
%TO.C,C1*%
X7493000Y9541000D03*
X7493000Y11541000D03*
%TD*%
D15*
%TO.C,R2*%
X13081000Y11541000D03*
X13081000Y9541000D03*
%TD*%
D16*
%TO.C,R1*%
X16018000Y10287000D03*
X18018000Y10287000D03*
%TD*%
D13*
%TO.C,U$4*%
X23368000Y12065000D03*
%TD*%
D11*
%TO.C,FB2*%
X5207000Y9591000D03*
X5207000Y11491000D03*
%TD*%
D16*
%TO.C,C9*%
X15256000Y2032000D03*
X17256000Y2032000D03*
%TD*%
D17*
%TO.C,J2*%
X1397000Y11938000D03*
X1397000Y9398000D03*
X1397000Y6858000D03*
X1397000Y4318000D03*
X1397000Y1778000D03*
%TD*%
D14*
%TO.C,C2*%
X10922000Y9541000D03*
X10922000Y11541000D03*
%TD*%
D15*
%TO.C,C5*%
X7493000Y6969000D03*
X7493000Y4969000D03*
%TD*%
D16*
%TO.C,C8*%
X16018000Y6096000D03*
X18018000Y6096000D03*
%TD*%
D18*
%TO.C,R3*%
X18018000Y8255000D03*
X16018000Y8255000D03*
%TD*%
D19*
%TO.C,Q1*%
X20161000Y8412000D03*
X20161000Y5812000D03*
%TD*%
M02*
