ISO-10303-21;
HEADER;
FILE_DESCRIPTION(('KiCad electronic assembly'),'2;1');
FILE_NAME('model.step','1970-01-01T00:00:00',('Pcbnew'),('Kicad'),
  'Open CASCADE STEP processor 7.9','KiCad to STEP converter','Unknown'
  );
FILE_SCHEMA(('AUTOMOTIVE_DESIGN { 1 0 10303 214 1 1 1 1 }'));
ENDSEC;
DATA;
#1 = APPLICATION_PROTOCOL_DEFINITION('international standard',
  'automotive_design',2000,#2);
#2 = APPLICATION_CONTEXT(
  'core data for automotive mechanical design processes');
#3 = SHAPE_DEFINITION_REPRESENTATION(#4,#10);
#4 = PRODUCT_DEFINITION_SHAPE('','',#5);
#5 = PRODUCT_DEFINITION('design','',#6,#9);
#6 = PRODUCT_DEFINITION_FORMATION('','',#7);
#7 = PRODUCT('model 1','model 1','',(#8));
#8 = PRODUCT_CONTEXT('',#2,'mechanical');
#9 = PRODUCT_DEFINITION_CONTEXT('part definition',#2,'design');
#10 = SHAPE_REPRESENTATION('',(#11,#15,#19),#23);
#11 = AXIS2_PLACEMENT_3D('',#12,#13,#14);
#12 = CARTESIAN_POINT('',(0.,0.,0.));
#13 = DIRECTION('',(0.,0.,1.));
#14 = DIRECTION('',(1.,0.,-0.));
#15 = AXIS2_PLACEMENT_3D('',#16,#17,#18);
#16 = CARTESIAN_POINT('',(0.,0.,0.));
#17 = DIRECTION('',(0.,0.,1.));
#18 = DIRECTION('',(1.,0.,-0.));
#19 = AXIS2_PLACEMENT_3D('',#20,#21,#22);
#20 = CARTESIAN_POINT('',(0.,0.,0.));
#21 = DIRECTION('',(0.,0.,1.));
#22 = DIRECTION('',(1.,0.,-0.));
#23 = ( GEOMETRIC_REPRESENTATION_CONTEXT(3) 
GLOBAL_UNCERTAINTY_ASSIGNED_CONTEXT((#27)) GLOBAL_UNIT_ASSIGNED_CONTEXT(
(#24,#25,#26)) REPRESENTATION_CONTEXT('Context #1',
  '3D Context with UNIT and UNCERTAINTY') );
#24 = ( LENGTH_UNIT() NAMED_UNIT(*) SI_UNIT(.MILLI.,.METRE.) );
#25 = ( NAMED_UNIT(*) PLANE_ANGLE_UNIT() SI_UNIT($,.RADIAN.) );
#26 = ( NAMED_UNIT(*) SI_UNIT($,.STERADIAN.) SOLID_ANGLE_UNIT() );
#27 = UNCERTAINTY_MEASURE_WITH_UNIT(LENGTH_MEASURE(1.E-07),#24,
  'distance_accuracy_value','confusion accuracy');
#28 = PRODUCT_RELATED_PRODUCT_CATEGORY('part',$,(#7));
#29 = SHAPE_DEFINITION_REPRESENTATION(#30,#36);
#30 = PRODUCT_DEFINITION_SHAPE('','',#31);
#31 = PRODUCT_DEFINITION('design','',#32,#35);
#32 = PRODUCT_DEFINITION_FORMATION('','',#33);
#33 = PRODUCT(
'electronic_fuse_radial_5_08_mm_pitch_resettable_littelfuse_rxef010_
render_pad',
'electronic_fuse_radial_5_08_mm_pitch_resettable_littelfuse_rxef010_
render_pad','',(#34));
#34 = PRODUCT_CONTEXT('',#2,'mechanical');
#35 = PRODUCT_DEFINITION_CONTEXT('part definition',#2,'design');
#36 = SHAPE_REPRESENTATION('',(#11,#37,#129,#221,#313,#405,#497),#589);
#37 = MANIFOLD_SOLID_BREP('',#38);
#38 = CLOSED_SHELL('',(#39,#72,#92,#112));
#39 = ADVANCED_FACE('',(#40),#67,.T.);
#40 = FACE_BOUND('',#41,.F.);
#41 = EDGE_LOOP('',(#42,#52,#59,#60));
#42 = ORIENTED_EDGE('',*,*,#43,.T.);
#43 = EDGE_CURVE('',#44,#46,#48,.T.);
#44 = VERTEX_POINT('',#45);
#45 = CARTESIAN_POINT('',(1.004999,0.,1.51));
#46 = VERTEX_POINT('',#47);
#47 = CARTESIAN_POINT('',(1.004999,0.,1.55));
#48 = LINE('',#49,#50);
#49 = CARTESIAN_POINT('',(1.004999,0.,1.51));
#50 = VECTOR('',#51,1.);
#51 = DIRECTION('',(0.,0.,1.));
#52 = ORIENTED_EDGE('',*,*,#53,.T.);
#53 = EDGE_CURVE('',#46,#46,#54,.T.);
#54 = CIRCLE('',#55,1.004999);
#55 = AXIS2_PLACEMENT_3D('',#56,#57,#58);
#56 = CARTESIAN_POINT('',(0.,0.,1.55));
#57 = DIRECTION('',(0.,0.,1.));
#58 = DIRECTION('',(1.,0.,-0.));
#59 = ORIENTED_EDGE('',*,*,#43,.F.);
#60 = ORIENTED_EDGE('',*,*,#61,.F.);
#61 = EDGE_CURVE('',#44,#44,#62,.T.);
#62 = CIRCLE('',#63,1.004999);
#63 = AXIS2_PLACEMENT_3D('',#64,#65,#66);
#64 = CARTESIAN_POINT('',(0.,-0.,1.51));
#65 = DIRECTION('',(0.,0.,1.));
#66 = DIRECTION('',(1.,0.,-0.));
#67 = CYLINDRICAL_SURFACE('',#68,1.004999);
#68 = AXIS2_PLACEMENT_3D('',#69,#70,#71);
#69 = CARTESIAN_POINT('',(0.,-0.,1.51));
#70 = DIRECTION('',(-0.,-0.,-1.));
#71 = DIRECTION('',(1.,0.,-0.));
#72 = ADVANCED_FACE('',(#73,#76),#87,.F.);
#73 = FACE_BOUND('',#74,.F.);
#74 = EDGE_LOOP('',(#75));
#75 = ORIENTED_EDGE('',*,*,#61,.T.);
#76 = FACE_BOUND('',#77,.F.);
#77 = EDGE_LOOP('',(#78));
#78 = ORIENTED_EDGE('',*,*,#79,.T.);
#79 = EDGE_CURVE('',#80,#80,#82,.T.);
#80 = VERTEX_POINT('',#81);
#81 = CARTESIAN_POINT('',(-6.162975822039E-33,-0.48,1.51));
#82 = CIRCLE('',#83,0.48);
#83 = AXIS2_PLACEMENT_3D('',#84,#85,#86);
#84 = CARTESIAN_POINT('',(-4.163336342344E-17,6.938893903907E-17,1.51));
#85 = DIRECTION('',(-0.,0.,-1.));
#86 = DIRECTION('',(8.673617379884E-17,-1.,-0.));
#87 = PLANE('',#88);
#88 = AXIS2_PLACEMENT_3D('',#89,#90,#91);
#89 = CARTESIAN_POINT('',(0.,0.,1.51));
#90 = DIRECTION('',(0.,0.,1.));
#91 = DIRECTION('',(1.,0.,-0.));
#92 = ADVANCED_FACE('',(#93,#96),#107,.T.);
#93 = FACE_BOUND('',#94,.T.);
#94 = EDGE_LOOP('',(#95));
#95 = ORIENTED_EDGE('',*,*,#53,.T.);
#96 = FACE_BOUND('',#97,.T.);
#97 = EDGE_LOOP('',(#98));
#98 = ORIENTED_EDGE('',*,*,#99,.T.);
#99 = EDGE_CURVE('',#100,#100,#102,.T.);
#100 = VERTEX_POINT('',#101);
#101 = CARTESIAN_POINT('',(-6.162975822039E-33,-0.48,1.55));
#102 = CIRCLE('',#103,0.48);
#103 = AXIS2_PLACEMENT_3D('',#104,#105,#106);
#104 = CARTESIAN_POINT('',(-4.163336342344E-17,6.938893903907E-17,1.55)
  );
#105 = DIRECTION('',(-0.,0.,-1.));
#106 = DIRECTION('',(8.673617379884E-17,-1.,-0.));
#107 = PLANE('',#108);
#108 = AXIS2_PLACEMENT_3D('',#109,#110,#111);
#109 = CARTESIAN_POINT('',(0.,0.,1.55));
#110 = DIRECTION('',(0.,0.,1.));
#111 = DIRECTION('',(1.,0.,-0.));
#112 = ADVANCED_FACE('',(#113),#124,.F.);
#113 = FACE_BOUND('',#114,.T.);
#114 = EDGE_LOOP('',(#115,#116,#122,#123));
#115 = ORIENTED_EDGE('',*,*,#79,.T.);
#116 = ORIENTED_EDGE('',*,*,#117,.T.);
#117 = EDGE_CURVE('',#80,#100,#118,.T.);
#118 = LINE('',#119,#120);
#119 = CARTESIAN_POINT('',(-6.162975822039E-33,-0.48,-4.6E-02));
#120 = VECTOR('',#121,1.);
#121 = DIRECTION('',(0.,0.,1.));
#122 = ORIENTED_EDGE('',*,*,#99,.F.);
#123 = ORIENTED_EDGE('',*,*,#117,.F.);
#124 = CYLINDRICAL_SURFACE('',#125,0.48);
#125 = AXIS2_PLACEMENT_3D('',#126,#127,#128);
#126 = CARTESIAN_POINT('',(-4.163336342344E-17,6.938893903907E-17,
    -4.6E-02));
#127 = DIRECTION('',(-0.,0.,-1.));
#128 = DIRECTION('',(8.673617379884E-17,-1.,-0.));
#129 = MANIFOLD_SOLID_BREP('',#130);
#130 = CLOSED_SHELL('',(#131,#164,#184,#204));
#131 = ADVANCED_FACE('',(#132),#159,.T.);
#132 = FACE_BOUND('',#133,.T.);
#133 = EDGE_LOOP('',(#134,#144,#151,#152));
#134 = ORIENTED_EDGE('',*,*,#135,.T.);
#135 = EDGE_CURVE('',#136,#138,#140,.T.);
#136 = VERTEX_POINT('',#137);
#137 = CARTESIAN_POINT('',(1.004999,0.,0.));
#138 = VERTEX_POINT('',#139);
#139 = CARTESIAN_POINT('',(1.004999,0.,-4.E-02));
#140 = LINE('',#141,#142);
#141 = CARTESIAN_POINT('',(1.004999,0.,0.));
#142 = VECTOR('',#143,1.);
#143 = DIRECTION('',(0.,0.,-1.));
#144 = ORIENTED_EDGE('',*,*,#145,.T.);
#145 = EDGE_CURVE('',#138,#138,#146,.T.);
#146 = CIRCLE('',#147,1.004999);
#147 = AXIS2_PLACEMENT_3D('',#148,#149,#150);
#148 = CARTESIAN_POINT('',(0.,0.,-4.E-02));
#149 = DIRECTION('',(0.,0.,1.));
#150 = DIRECTION('',(1.,0.,-0.));
#151 = ORIENTED_EDGE('',*,*,#135,.F.);
#152 = ORIENTED_EDGE('',*,*,#153,.F.);
#153 = EDGE_CURVE('',#136,#136,#154,.T.);
#154 = CIRCLE('',#155,1.004999);
#155 = AXIS2_PLACEMENT_3D('',#156,#157,#158);
#156 = CARTESIAN_POINT('',(0.,-0.,0.));
#157 = DIRECTION('',(0.,0.,1.));
#158 = DIRECTION('',(1.,0.,-0.));
#159 = CYLINDRICAL_SURFACE('',#160,1.004999);
#160 = AXIS2_PLACEMENT_3D('',#161,#162,#163);
#161 = CARTESIAN_POINT('',(0.,-0.,0.));
#162 = DIRECTION('',(0.,0.,1.));
#163 = DIRECTION('',(1.,0.,-0.));
#164 = ADVANCED_FACE('',(#165,#168),#179,.F.);
#165 = FACE_BOUND('',#166,.F.);
#166 = EDGE_LOOP('',(#167));
#167 = ORIENTED_EDGE('',*,*,#153,.F.);
#168 = FACE_BOUND('',#169,.F.);
#169 = EDGE_LOOP('',(#170));
#170 = ORIENTED_EDGE('',*,*,#171,.F.);
#171 = EDGE_CURVE('',#172,#172,#174,.T.);
#172 = VERTEX_POINT('',#173);
#173 = CARTESIAN_POINT('',(-6.162975822039E-33,-0.48,0.));
#174 = CIRCLE('',#175,0.48);
#175 = AXIS2_PLACEMENT_3D('',#176,#177,#178);
#176 = CARTESIAN_POINT('',(-4.163336342344E-17,6.938893903907E-17,0.));
#177 = DIRECTION('',(-0.,0.,-1.));
#178 = DIRECTION('',(8.673617379884E-17,-1.,-0.));
#179 = PLANE('',#180);
#180 = AXIS2_PLACEMENT_3D('',#181,#182,#183);
#181 = CARTESIAN_POINT('',(0.,0.,0.));
#182 = DIRECTION('',(-0.,-0.,-1.));
#183 = DIRECTION('',(-1.,0.,0.));
#184 = ADVANCED_FACE('',(#185,#188),#199,.T.);
#185 = FACE_BOUND('',#186,.T.);
#186 = EDGE_LOOP('',(#187));
#187 = ORIENTED_EDGE('',*,*,#145,.F.);
#188 = FACE_BOUND('',#189,.T.);
#189 = EDGE_LOOP('',(#190));
#190 = ORIENTED_EDGE('',*,*,#191,.F.);
#191 = EDGE_CURVE('',#192,#192,#194,.T.);
#192 = VERTEX_POINT('',#193);
#193 = CARTESIAN_POINT('',(-6.162975822039E-33,-0.48,-4.E-02));
#194 = CIRCLE('',#195,0.48);
#195 = AXIS2_PLACEMENT_3D('',#196,#197,#198);
#196 = CARTESIAN_POINT('',(-4.163336342344E-17,6.938893903907E-17,
    -4.E-02));
#197 = DIRECTION('',(-0.,0.,-1.));
#198 = DIRECTION('',(8.673617379884E-17,-1.,-0.));
#199 = PLANE('',#200);
#200 = AXIS2_PLACEMENT_3D('',#201,#202,#203);
#201 = CARTESIAN_POINT('',(0.,0.,-4.E-02));
#202 = DIRECTION('',(-0.,-0.,-1.));
#203 = DIRECTION('',(-1.,0.,0.));
#204 = ADVANCED_FACE('',(#205),#216,.F.);
#205 = FACE_BOUND('',#206,.T.);
#206 = EDGE_LOOP('',(#207,#208,#214,#215));
#207 = ORIENTED_EDGE('',*,*,#191,.T.);
#208 = ORIENTED_EDGE('',*,*,#209,.T.);
#209 = EDGE_CURVE('',#192,#172,#210,.T.);
#210 = LINE('',#211,#212);
#211 = CARTESIAN_POINT('',(-6.162975822039E-33,-0.48,-4.6E-02));
#212 = VECTOR('',#213,1.);
#213 = DIRECTION('',(0.,0.,1.));
#214 = ORIENTED_EDGE('',*,*,#171,.F.);
#215 = ORIENTED_EDGE('',*,*,#209,.F.);
#216 = CYLINDRICAL_SURFACE('',#217,0.48);
#217 = AXIS2_PLACEMENT_3D('',#218,#219,#220);
#218 = CARTESIAN_POINT('',(-4.163336342344E-17,6.938893903907E-17,
    -4.6E-02));
#219 = DIRECTION('',(-0.,0.,-1.));
#220 = DIRECTION('',(8.673617379884E-17,-1.,-0.));
#221 = MANIFOLD_SOLID_BREP('',#222);
#222 = CLOSED_SHELL('',(#223,#256,#276,#296));
#223 = ADVANCED_FACE('',(#224),#251,.T.);
#224 = FACE_BOUND('',#225,.F.);
#225 = EDGE_LOOP('',(#226,#236,#243,#244));
#226 = ORIENTED_EDGE('',*,*,#227,.T.);
#227 = EDGE_CURVE('',#228,#230,#232,.T.);
#228 = VERTEX_POINT('',#229);
#229 = CARTESIAN_POINT('',(-6.162975822039E-33,-0.505,-4.E-02));
#230 = VERTEX_POINT('',#231);
#231 = CARTESIAN_POINT('',(-6.162975822039E-33,-0.505,1.55));
#232 = LINE('',#233,#234);
#233 = CARTESIAN_POINT('',(-6.162975822039E-33,-0.505,-4.E-02));
#234 = VECTOR('',#235,1.);
#235 = DIRECTION('',(0.,0.,1.));
#236 = ORIENTED_EDGE('',*,*,#237,.T.);
#237 = EDGE_CURVE('',#230,#230,#238,.T.);
#238 = CIRCLE('',#239,0.505);
#239 = AXIS2_PLACEMENT_3D('',#240,#241,#242);
#240 = CARTESIAN_POINT('',(-2.775557561563E-17,8.326672684689E-17,1.55)
  );
#241 = DIRECTION('',(0.,-0.,1.));
#242 = DIRECTION('',(5.496153587253E-17,-1.,-0.));
#243 = ORIENTED_EDGE('',*,*,#227,.F.);
#244 = ORIENTED_EDGE('',*,*,#245,.F.);
#245 = EDGE_CURVE('',#228,#228,#246,.T.);
#246 = CIRCLE('',#247,0.505);
#247 = AXIS2_PLACEMENT_3D('',#248,#249,#250);
#248 = CARTESIAN_POINT('',(-2.775557561563E-17,8.326672684689E-17,
    -4.E-02));
#249 = DIRECTION('',(0.,-0.,1.));
#250 = DIRECTION('',(5.496153587253E-17,-1.,-0.));
#251 = CYLINDRICAL_SURFACE('',#252,0.505);
#252 = AXIS2_PLACEMENT_3D('',#253,#254,#255);
#253 = CARTESIAN_POINT('',(-2.775557561563E-17,8.326672684689E-17,
    -4.E-02));
#254 = DIRECTION('',(-0.,0.,-1.));
#255 = DIRECTION('',(5.496153587253E-17,-1.,-0.));
#256 = ADVANCED_FACE('',(#257,#260),#271,.F.);
#257 = FACE_BOUND('',#258,.F.);
#258 = EDGE_LOOP('',(#259));
#259 = ORIENTED_EDGE('',*,*,#245,.T.);
#260 = FACE_BOUND('',#261,.F.);
#261 = EDGE_LOOP('',(#262));
#262 = ORIENTED_EDGE('',*,*,#263,.T.);
#263 = EDGE_CURVE('',#264,#264,#266,.T.);
#264 = VERTEX_POINT('',#265);
#265 = CARTESIAN_POINT('',(-6.162975822039E-33,-0.48,-4.E-02));
#266 = CIRCLE('',#267,0.48);
#267 = AXIS2_PLACEMENT_3D('',#268,#269,#270);
#268 = CARTESIAN_POINT('',(-4.163336342344E-17,6.938893903907E-17,
    -4.E-02));
#269 = DIRECTION('',(-0.,0.,-1.));
#270 = DIRECTION('',(8.673617379884E-17,-1.,-0.));
#271 = PLANE('',#272);
#272 = AXIS2_PLACEMENT_3D('',#273,#274,#275);
#273 = CARTESIAN_POINT('',(0.,-0.505,-4.E-02));
#274 = DIRECTION('',(0.,0.,1.));
#275 = DIRECTION('',(1.,0.,-0.));
#276 = ADVANCED_FACE('',(#277,#280),#291,.T.);
#277 = FACE_BOUND('',#278,.T.);
#278 = EDGE_LOOP('',(#279));
#279 = ORIENTED_EDGE('',*,*,#237,.T.);
#280 = FACE_BOUND('',#281,.T.);
#281 = EDGE_LOOP('',(#282));
#282 = ORIENTED_EDGE('',*,*,#283,.T.);
#283 = EDGE_CURVE('',#284,#284,#286,.T.);
#284 = VERTEX_POINT('',#285);
#285 = CARTESIAN_POINT('',(-6.162975822039E-33,-0.48,1.55));
#286 = CIRCLE('',#287,0.48);
#287 = AXIS2_PLACEMENT_3D('',#288,#289,#290);
#288 = CARTESIAN_POINT('',(-4.163336342344E-17,6.938893903907E-17,1.55)
  );
#289 = DIRECTION('',(-0.,0.,-1.));
#290 = DIRECTION('',(8.673617379884E-17,-1.,-0.));
#291 = PLANE('',#292);
#292 = AXIS2_PLACEMENT_3D('',#293,#294,#295);
#293 = CARTESIAN_POINT('',(0.,-0.505,1.55));
#294 = DIRECTION('',(0.,0.,1.));
#295 = DIRECTION('',(1.,0.,-0.));
#296 = ADVANCED_FACE('',(#297),#308,.F.);
#297 = FACE_BOUND('',#298,.T.);
#298 = EDGE_LOOP('',(#299,#300,#306,#307));
#299 = ORIENTED_EDGE('',*,*,#263,.T.);
#300 = ORIENTED_EDGE('',*,*,#301,.T.);
#301 = EDGE_CURVE('',#264,#284,#302,.T.);
#302 = LINE('',#303,#304);
#303 = CARTESIAN_POINT('',(-6.162975822039E-33,-0.48,-4.6E-02));
#304 = VECTOR('',#305,1.);
#305 = DIRECTION('',(0.,0.,1.));
#306 = ORIENTED_EDGE('',*,*,#283,.F.);
#307 = ORIENTED_EDGE('',*,*,#301,.F.);
#308 = CYLINDRICAL_SURFACE('',#309,0.48);
#309 = AXIS2_PLACEMENT_3D('',#310,#311,#312);
#310 = CARTESIAN_POINT('',(-4.163336342344E-17,6.938893903907E-17,
    -4.6E-02));
#311 = DIRECTION('',(-0.,0.,-1.));
#312 = DIRECTION('',(8.673617379884E-17,-1.,-0.));
#313 = MANIFOLD_SOLID_BREP('',#314);
#314 = CLOSED_SHELL('',(#315,#348,#368,#388));
#315 = ADVANCED_FACE('',(#316),#343,.T.);
#316 = FACE_BOUND('',#317,.F.);
#317 = EDGE_LOOP('',(#318,#328,#335,#336));
#318 = ORIENTED_EDGE('',*,*,#319,.T.);
#319 = EDGE_CURVE('',#320,#322,#324,.T.);
#320 = VERTEX_POINT('',#321);
#321 = CARTESIAN_POINT('',(6.104999,-1.2,1.51));
#322 = VERTEX_POINT('',#323);
#323 = CARTESIAN_POINT('',(6.104999,-1.2,1.55));
#324 = LINE('',#325,#326);
#325 = CARTESIAN_POINT('',(6.104999,-1.2,1.51));
#326 = VECTOR('',#327,1.);
#327 = DIRECTION('',(0.,0.,1.));
#328 = ORIENTED_EDGE('',*,*,#329,.T.);
#329 = EDGE_CURVE('',#322,#322,#330,.T.);
#330 = CIRCLE('',#331,1.004999);
#331 = AXIS2_PLACEMENT_3D('',#332,#333,#334);
#332 = CARTESIAN_POINT('',(5.1,-1.2,1.55));
#333 = DIRECTION('',(0.,0.,1.));
#334 = DIRECTION('',(1.,0.,-0.));
#335 = ORIENTED_EDGE('',*,*,#319,.F.);
#336 = ORIENTED_EDGE('',*,*,#337,.F.);
#337 = EDGE_CURVE('',#320,#320,#338,.T.);
#338 = CIRCLE('',#339,1.004999);
#339 = AXIS2_PLACEMENT_3D('',#340,#341,#342);
#340 = CARTESIAN_POINT('',(5.1,-1.2,1.51));
#341 = DIRECTION('',(0.,0.,1.));
#342 = DIRECTION('',(1.,0.,-0.));
#343 = CYLINDRICAL_SURFACE('',#344,1.004999);
#344 = AXIS2_PLACEMENT_3D('',#345,#346,#347);
#345 = CARTESIAN_POINT('',(5.1,-1.2,1.51));
#346 = DIRECTION('',(-0.,-0.,-1.));
#347 = DIRECTION('',(1.,0.,-0.));
#348 = ADVANCED_FACE('',(#349,#352),#363,.F.);
#349 = FACE_BOUND('',#350,.F.);
#350 = EDGE_LOOP('',(#351));
#351 = ORIENTED_EDGE('',*,*,#337,.T.);
#352 = FACE_BOUND('',#353,.F.);
#353 = EDGE_LOOP('',(#354));
#354 = ORIENTED_EDGE('',*,*,#355,.T.);
#355 = EDGE_CURVE('',#356,#356,#358,.T.);
#356 = VERTEX_POINT('',#357);
#357 = CARTESIAN_POINT('',(5.1,-1.68,1.51));
#358 = CIRCLE('',#359,0.48);
#359 = AXIS2_PLACEMENT_3D('',#360,#361,#362);
#360 = CARTESIAN_POINT('',(5.1,-1.2,1.51));
#361 = DIRECTION('',(-0.,0.,-1.));
#362 = DIRECTION('',(-0.,-1.,0.));
#363 = PLANE('',#364);
#364 = AXIS2_PLACEMENT_3D('',#365,#366,#367);
#365 = CARTESIAN_POINT('',(0.,0.,1.51));
#366 = DIRECTION('',(0.,0.,1.));
#367 = DIRECTION('',(1.,0.,-0.));
#368 = ADVANCED_FACE('',(#369,#372),#383,.T.);
#369 = FACE_BOUND('',#370,.T.);
#370 = EDGE_LOOP('',(#371));
#371 = ORIENTED_EDGE('',*,*,#329,.T.);
#372 = FACE_BOUND('',#373,.T.);
#373 = EDGE_LOOP('',(#374));
#374 = ORIENTED_EDGE('',*,*,#375,.T.);
#375 = EDGE_CURVE('',#376,#376,#378,.T.);
#376 = VERTEX_POINT('',#377);
#377 = CARTESIAN_POINT('',(5.1,-1.68,1.55));
#378 = CIRCLE('',#379,0.48);
#379 = AXIS2_PLACEMENT_3D('',#380,#381,#382);
#380 = CARTESIAN_POINT('',(5.1,-1.2,1.55));
#381 = DIRECTION('',(-0.,0.,-1.));
#382 = DIRECTION('',(-0.,-1.,0.));
#383 = PLANE('',#384);
#384 = AXIS2_PLACEMENT_3D('',#385,#386,#387);
#385 = CARTESIAN_POINT('',(0.,0.,1.55));
#386 = DIRECTION('',(0.,0.,1.));
#387 = DIRECTION('',(1.,0.,-0.));
#388 = ADVANCED_FACE('',(#389),#400,.F.);
#389 = FACE_BOUND('',#390,.T.);
#390 = EDGE_LOOP('',(#391,#392,#398,#399));
#391 = ORIENTED_EDGE('',*,*,#355,.T.);
#392 = ORIENTED_EDGE('',*,*,#393,.T.);
#393 = EDGE_CURVE('',#356,#376,#394,.T.);
#394 = LINE('',#395,#396);
#395 = CARTESIAN_POINT('',(5.1,-1.68,-4.6E-02));
#396 = VECTOR('',#397,1.);
#397 = DIRECTION('',(0.,0.,1.));
#398 = ORIENTED_EDGE('',*,*,#375,.F.);
#399 = ORIENTED_EDGE('',*,*,#393,.F.);
#400 = CYLINDRICAL_SURFACE('',#401,0.48);
#401 = AXIS2_PLACEMENT_3D('',#402,#403,#404);
#402 = CARTESIAN_POINT('',(5.1,-1.2,-4.6E-02));
#403 = DIRECTION('',(-0.,-0.,-1.));
#404 = DIRECTION('',(-0.,-1.,0.));
#405 = MANIFOLD_SOLID_BREP('',#406);
#406 = CLOSED_SHELL('',(#407,#440,#460,#480));
#407 = ADVANCED_FACE('',(#408),#435,.T.);
#408 = FACE_BOUND('',#409,.T.);
#409 = EDGE_LOOP('',(#410,#420,#427,#428));
#410 = ORIENTED_EDGE('',*,*,#411,.T.);
#411 = EDGE_CURVE('',#412,#414,#416,.T.);
#412 = VERTEX_POINT('',#413);
#413 = CARTESIAN_POINT('',(6.104999,-1.2,0.));
#414 = VERTEX_POINT('',#415);
#415 = CARTESIAN_POINT('',(6.104999,-1.2,-4.E-02));
#416 = LINE('',#417,#418);
#417 = CARTESIAN_POINT('',(6.104999,-1.2,0.));
#418 = VECTOR('',#419,1.);
#419 = DIRECTION('',(0.,0.,-1.));
#420 = ORIENTED_EDGE('',*,*,#421,.T.);
#421 = EDGE_CURVE('',#414,#414,#422,.T.);
#422 = CIRCLE('',#423,1.004999);
#423 = AXIS2_PLACEMENT_3D('',#424,#425,#426);
#424 = CARTESIAN_POINT('',(5.1,-1.2,-4.E-02));
#425 = DIRECTION('',(0.,0.,1.));
#426 = DIRECTION('',(1.,0.,-0.));
#427 = ORIENTED_EDGE('',*,*,#411,.F.);
#428 = ORIENTED_EDGE('',*,*,#429,.F.);
#429 = EDGE_CURVE('',#412,#412,#430,.T.);
#430 = CIRCLE('',#431,1.004999);
#431 = AXIS2_PLACEMENT_3D('',#432,#433,#434);
#432 = CARTESIAN_POINT('',(5.1,-1.2,0.));
#433 = DIRECTION('',(0.,0.,1.));
#434 = DIRECTION('',(1.,0.,-0.));
#435 = CYLINDRICAL_SURFACE('',#436,1.004999);
#436 = AXIS2_PLACEMENT_3D('',#437,#438,#439);
#437 = CARTESIAN_POINT('',(5.1,-1.2,0.));
#438 = DIRECTION('',(0.,0.,1.));
#439 = DIRECTION('',(1.,0.,-0.));
#440 = ADVANCED_FACE('',(#441,#444),#455,.F.);
#441 = FACE_BOUND('',#442,.F.);
#442 = EDGE_LOOP('',(#443));
#443 = ORIENTED_EDGE('',*,*,#429,.F.);
#444 = FACE_BOUND('',#445,.F.);
#445 = EDGE_LOOP('',(#446));
#446 = ORIENTED_EDGE('',*,*,#447,.F.);
#447 = EDGE_CURVE('',#448,#448,#450,.T.);
#448 = VERTEX_POINT('',#449);
#449 = CARTESIAN_POINT('',(5.1,-1.68,0.));
#450 = CIRCLE('',#451,0.48);
#451 = AXIS2_PLACEMENT_3D('',#452,#453,#454);
#452 = CARTESIAN_POINT('',(5.1,-1.2,0.));
#453 = DIRECTION('',(-0.,0.,-1.));
#454 = DIRECTION('',(-0.,-1.,0.));
#455 = PLANE('',#456);
#456 = AXIS2_PLACEMENT_3D('',#457,#458,#459);
#457 = CARTESIAN_POINT('',(0.,0.,0.));
#458 = DIRECTION('',(-0.,-0.,-1.));
#459 = DIRECTION('',(-1.,0.,0.));
#460 = ADVANCED_FACE('',(#461,#464),#475,.T.);
#461 = FACE_BOUND('',#462,.T.);
#462 = EDGE_LOOP('',(#463));
#463 = ORIENTED_EDGE('',*,*,#421,.F.);
#464 = FACE_BOUND('',#465,.T.);
#465 = EDGE_LOOP('',(#466));
#466 = ORIENTED_EDGE('',*,*,#467,.F.);
#467 = EDGE_CURVE('',#468,#468,#470,.T.);
#468 = VERTEX_POINT('',#469);
#469 = CARTESIAN_POINT('',(5.1,-1.68,-4.E-02));
#470 = CIRCLE('',#471,0.48);
#471 = AXIS2_PLACEMENT_3D('',#472,#473,#474);
#472 = CARTESIAN_POINT('',(5.1,-1.2,-4.E-02));
#473 = DIRECTION('',(-0.,0.,-1.));
#474 = DIRECTION('',(-0.,-1.,0.));
#475 = PLANE('',#476);
#476 = AXIS2_PLACEMENT_3D('',#477,#478,#479);
#477 = CARTESIAN_POINT('',(0.,0.,-4.E-02));
#478 = DIRECTION('',(-0.,-0.,-1.));
#479 = DIRECTION('',(-1.,0.,0.));
#480 = ADVANCED_FACE('',(#481),#492,.F.);
#481 = FACE_BOUND('',#482,.T.);
#482 = EDGE_LOOP('',(#483,#484,#490,#491));
#483 = ORIENTED_EDGE('',*,*,#467,.T.);
#484 = ORIENTED_EDGE('',*,*,#485,.T.);
#485 = EDGE_CURVE('',#468,#448,#486,.T.);
#486 = LINE('',#487,#488);
#487 = CARTESIAN_POINT('',(5.1,-1.68,-4.6E-02));
#488 = VECTOR('',#489,1.);
#489 = DIRECTION('',(0.,0.,1.));
#490 = ORIENTED_EDGE('',*,*,#447,.F.);
#491 = ORIENTED_EDGE('',*,*,#485,.F.);
#492 = CYLINDRICAL_SURFACE('',#493,0.48);
#493 = AXIS2_PLACEMENT_3D('',#494,#495,#496);
#494 = CARTESIAN_POINT('',(5.1,-1.2,-4.6E-02));
#495 = DIRECTION('',(-0.,-0.,-1.));
#496 = DIRECTION('',(-0.,-1.,0.));
#497 = MANIFOLD_SOLID_BREP('',#498);
#498 = CLOSED_SHELL('',(#499,#532,#552,#572));
#499 = ADVANCED_FACE('',(#500),#527,.T.);
#500 = FACE_BOUND('',#501,.F.);
#501 = EDGE_LOOP('',(#502,#512,#519,#520));
#502 = ORIENTED_EDGE('',*,*,#503,.T.);
#503 = EDGE_CURVE('',#504,#506,#508,.T.);
#504 = VERTEX_POINT('',#505);
#505 = CARTESIAN_POINT('',(5.1,-1.705,-4.E-02));
#506 = VERTEX_POINT('',#507);
#507 = CARTESIAN_POINT('',(5.1,-1.705,1.55));
#508 = LINE('',#509,#510);
#509 = CARTESIAN_POINT('',(5.1,-1.705,-4.E-02));
#510 = VECTOR('',#511,1.);
#511 = DIRECTION('',(0.,0.,1.));
#512 = ORIENTED_EDGE('',*,*,#513,.T.);
#513 = EDGE_CURVE('',#506,#506,#514,.T.);
#514 = CIRCLE('',#515,0.505);
#515 = AXIS2_PLACEMENT_3D('',#516,#517,#518);
#516 = CARTESIAN_POINT('',(5.1,-1.2,1.55));
#517 = DIRECTION('',(0.,0.,1.));
#518 = DIRECTION('',(-0.,-1.,0.));
#519 = ORIENTED_EDGE('',*,*,#503,.F.);
#520 = ORIENTED_EDGE('',*,*,#521,.F.);
#521 = EDGE_CURVE('',#504,#504,#522,.T.);
#522 = CIRCLE('',#523,0.505);
#523 = AXIS2_PLACEMENT_3D('',#524,#525,#526);
#524 = CARTESIAN_POINT('',(5.1,-1.2,-4.E-02));
#525 = DIRECTION('',(0.,0.,1.));
#526 = DIRECTION('',(-0.,-1.,0.));
#527 = CYLINDRICAL_SURFACE('',#528,0.505);
#528 = AXIS2_PLACEMENT_3D('',#529,#530,#531);
#529 = CARTESIAN_POINT('',(5.1,-1.2,-4.E-02));
#530 = DIRECTION('',(-0.,-0.,-1.));
#531 = DIRECTION('',(-0.,-1.,0.));
#532 = ADVANCED_FACE('',(#533,#536),#547,.F.);
#533 = FACE_BOUND('',#534,.F.);
#534 = EDGE_LOOP('',(#535));
#535 = ORIENTED_EDGE('',*,*,#521,.T.);
#536 = FACE_BOUND('',#537,.F.);
#537 = EDGE_LOOP('',(#538));
#538 = ORIENTED_EDGE('',*,*,#539,.T.);
#539 = EDGE_CURVE('',#540,#540,#542,.T.);
#540 = VERTEX_POINT('',#541);
#541 = CARTESIAN_POINT('',(5.1,-1.68,-4.E-02));
#542 = CIRCLE('',#543,0.48);
#543 = AXIS2_PLACEMENT_3D('',#544,#545,#546);
#544 = CARTESIAN_POINT('',(5.1,-1.2,-4.E-02));
#545 = DIRECTION('',(-0.,0.,-1.));
#546 = DIRECTION('',(-0.,-1.,0.));
#547 = PLANE('',#548);
#548 = AXIS2_PLACEMENT_3D('',#549,#550,#551);
#549 = CARTESIAN_POINT('',(5.1,-1.705,-4.E-02));
#550 = DIRECTION('',(0.,0.,1.));
#551 = DIRECTION('',(1.,0.,-0.));
#552 = ADVANCED_FACE('',(#553,#556),#567,.T.);
#553 = FACE_BOUND('',#554,.T.);
#554 = EDGE_LOOP('',(#555));
#555 = ORIENTED_EDGE('',*,*,#513,.T.);
#556 = FACE_BOUND('',#557,.T.);
#557 = EDGE_LOOP('',(#558));
#558 = ORIENTED_EDGE('',*,*,#559,.T.);
#559 = EDGE_CURVE('',#560,#560,#562,.T.);
#560 = VERTEX_POINT('',#561);
#561 = CARTESIAN_POINT('',(5.1,-1.68,1.55));
#562 = CIRCLE('',#563,0.48);
#563 = AXIS2_PLACEMENT_3D('',#564,#565,#566);
#564 = CARTESIAN_POINT('',(5.1,-1.2,1.55));
#565 = DIRECTION('',(-0.,0.,-1.));
#566 = DIRECTION('',(-0.,-1.,0.));
#567 = PLANE('',#568);
#568 = AXIS2_PLACEMENT_3D('',#569,#570,#571);
#569 = CARTESIAN_POINT('',(5.1,-1.705,1.55));
#570 = DIRECTION('',(0.,0.,1.));
#571 = DIRECTION('',(1.,0.,-0.));
#572 = ADVANCED_FACE('',(#573),#584,.F.);
#573 = FACE_BOUND('',#574,.T.);
#574 = EDGE_LOOP('',(#575,#576,#582,#583));
#575 = ORIENTED_EDGE('',*,*,#539,.T.);
#576 = ORIENTED_EDGE('',*,*,#577,.T.);
#577 = EDGE_CURVE('',#540,#560,#578,.T.);
#578 = LINE('',#579,#580);
#579 = CARTESIAN_POINT('',(5.1,-1.68,-4.6E-02));
#580 = VECTOR('',#581,1.);
#581 = DIRECTION('',(0.,0.,1.));
#582 = ORIENTED_EDGE('',*,*,#559,.F.);
#583 = ORIENTED_EDGE('',*,*,#577,.F.);
#584 = CYLINDRICAL_SURFACE('',#585,0.48);
#585 = AXIS2_PLACEMENT_3D('',#586,#587,#588);
#586 = CARTESIAN_POINT('',(5.1,-1.2,-4.6E-02));
#587 = DIRECTION('',(-0.,-0.,-1.));
#588 = DIRECTION('',(-0.,-1.,0.));
#589 = ( GEOMETRIC_REPRESENTATION_CONTEXT(3) 
GLOBAL_UNCERTAINTY_ASSIGNED_CONTEXT((#593)) GLOBAL_UNIT_ASSIGNED_CONTEXT
((#590,#591,#592)) REPRESENTATION_CONTEXT('Context #1',
  '3D Context with UNIT and UNCERTAINTY') );
#590 = ( LENGTH_UNIT() NAMED_UNIT(*) SI_UNIT(.MILLI.,.METRE.) );
#591 = ( NAMED_UNIT(*) PLANE_ANGLE_UNIT() SI_UNIT($,.RADIAN.) );
#592 = ( NAMED_UNIT(*) SI_UNIT($,.STERADIAN.) SOLID_ANGLE_UNIT() );
#593 = UNCERTAINTY_MEASURE_WITH_UNIT(LENGTH_MEASURE(1.E-07),#590,
  'distance_accuracy_value','confusion accuracy');
#594 = CONTEXT_DEPENDENT_SHAPE_REPRESENTATION(#595,#597);
#595 = ( REPRESENTATION_RELATIONSHIP('','',#36,#10) 
REPRESENTATION_RELATIONSHIP_WITH_TRANSFORMATION(#596) 
SHAPE_REPRESENTATION_RELATIONSHIP() );
#596 = ITEM_DEFINED_TRANSFORMATION('','',#11,#15);
#597 = PRODUCT_DEFINITION_SHAPE('Placement','Placement of an item',#598
  );
#598 = NEXT_ASSEMBLY_USAGE_OCCURRENCE('1','=>[0:1:1:2]','',#5,#31,$);
#599 = PRODUCT_RELATED_PRODUCT_CATEGORY('part',$,(#33));
#600 = SHAPE_DEFINITION_REPRESENTATION(#601,#607);
#601 = PRODUCT_DEFINITION_SHAPE('','',#602);
#602 = PRODUCT_DEFINITION('design','',#603,#606);
#603 = PRODUCT_DEFINITION_FORMATION('','',#604);
#604 = PRODUCT(
'electronic_fuse_radial_5_08_mm_pitch_resettable_littelfuse_rxef010_
render_PCB',
'electronic_fuse_radial_5_08_mm_pitch_resettable_littelfuse_rxef010_
render_PCB','',(#605));
#605 = PRODUCT_CONTEXT('',#2,'mechanical');
#606 = PRODUCT_DEFINITION_CONTEXT('part definition',#2,'design');
#607 = ADVANCED_BREP_SHAPE_REPRESENTATION('',(#11,#608),#836);
#608 = MANIFOLD_SOLID_BREP('',#609);
#609 = CLOSED_SHELL('',(#610,#650,#681,#712,#751,#790,#802,#819));
#610 = ADVANCED_FACE('',(#611),#645,.T.);
#611 = FACE_BOUND('',#612,.T.);
#612 = EDGE_LOOP('',(#613,#623,#631,#639));
#613 = ORIENTED_EDGE('',*,*,#614,.T.);
#614 = EDGE_CURVE('',#615,#617,#619,.T.);
#615 = VERTEX_POINT('',#616);
#616 = CARTESIAN_POINT('',(10.,-4.35,0.));
#617 = VERTEX_POINT('',#618);
#618 = CARTESIAN_POINT('',(10.,-4.35,1.51));
#619 = LINE('',#620,#621);
#620 = CARTESIAN_POINT('',(10.,-4.35,0.));
#621 = VECTOR('',#622,1.);
#622 = DIRECTION('',(0.,0.,1.));
#623 = ORIENTED_EDGE('',*,*,#624,.T.);
#624 = EDGE_CURVE('',#617,#625,#627,.T.);
#625 = VERTEX_POINT('',#626);
#626 = CARTESIAN_POINT('',(-4.9,-4.35,1.51));
#627 = LINE('',#628,#629);
#628 = CARTESIAN_POINT('',(10.,-4.35,1.51));
#629 = VECTOR('',#630,1.);
#630 = DIRECTION('',(-1.,0.,0.));
#631 = ORIENTED_EDGE('',*,*,#632,.F.);
#632 = EDGE_CURVE('',#633,#625,#635,.T.);
#633 = VERTEX_POINT('',#634);
#634 = CARTESIAN_POINT('',(-4.9,-4.35,0.));
#635 = LINE('',#636,#637);
#636 = CARTESIAN_POINT('',(-4.9,-4.35,0.));
#637 = VECTOR('',#638,1.);
#638 = DIRECTION('',(0.,0.,1.));
#639 = ORIENTED_EDGE('',*,*,#640,.F.);
#640 = EDGE_CURVE('',#615,#633,#641,.T.);
#641 = LINE('',#642,#643);
#642 = CARTESIAN_POINT('',(10.,-4.35,0.));
#643 = VECTOR('',#644,1.);
#644 = DIRECTION('',(-1.,0.,0.));
#645 = PLANE('',#646);
#646 = AXIS2_PLACEMENT_3D('',#647,#648,#649);
#647 = CARTESIAN_POINT('',(10.,-4.35,0.));
#648 = DIRECTION('',(0.,-1.,0.));
#649 = DIRECTION('',(-1.,0.,0.));
#650 = ADVANCED_FACE('',(#651),#676,.T.);
#651 = FACE_BOUND('',#652,.T.);
#652 = EDGE_LOOP('',(#653,#663,#669,#670));
#653 = ORIENTED_EDGE('',*,*,#654,.T.);
#654 = EDGE_CURVE('',#655,#657,#659,.T.);
#655 = VERTEX_POINT('',#656);
#656 = CARTESIAN_POINT('',(10.,3.15,0.));
#657 = VERTEX_POINT('',#658);
#658 = CARTESIAN_POINT('',(10.,3.15,1.51));
#659 = LINE('',#660,#661);
#660 = CARTESIAN_POINT('',(10.,3.15,0.));
#661 = VECTOR('',#662,1.);
#662 = DIRECTION('',(0.,0.,1.));
#663 = ORIENTED_EDGE('',*,*,#664,.T.);
#664 = EDGE_CURVE('',#657,#617,#665,.T.);
#665 = LINE('',#666,#667);
#666 = CARTESIAN_POINT('',(10.,3.15,1.51));
#667 = VECTOR('',#668,1.);
#668 = DIRECTION('',(0.,-1.,0.));
#669 = ORIENTED_EDGE('',*,*,#614,.F.);
#670 = ORIENTED_EDGE('',*,*,#671,.F.);
#671 = EDGE_CURVE('',#655,#615,#672,.T.);
#672 = LINE('',#673,#674);
#673 = CARTESIAN_POINT('',(10.,3.15,0.));
#674 = VECTOR('',#675,1.);
#675 = DIRECTION('',(0.,-1.,0.));
#676 = PLANE('',#677);
#677 = AXIS2_PLACEMENT_3D('',#678,#679,#680);
#678 = CARTESIAN_POINT('',(10.,3.15,0.));
#679 = DIRECTION('',(1.,0.,-0.));
#680 = DIRECTION('',(0.,-1.,0.));
#681 = ADVANCED_FACE('',(#682),#707,.T.);
#682 = FACE_BOUND('',#683,.T.);
#683 = EDGE_LOOP('',(#684,#685,#693,#701));
#684 = ORIENTED_EDGE('',*,*,#632,.T.);
#685 = ORIENTED_EDGE('',*,*,#686,.T.);
#686 = EDGE_CURVE('',#625,#687,#689,.T.);
#687 = VERTEX_POINT('',#688);
#688 = CARTESIAN_POINT('',(-4.9,3.15,1.51));
#689 = LINE('',#690,#691);
#690 = CARTESIAN_POINT('',(-4.9,-4.35,1.51));
#691 = VECTOR('',#692,1.);
#692 = DIRECTION('',(0.,1.,0.));
#693 = ORIENTED_EDGE('',*,*,#694,.F.);
#694 = EDGE_CURVE('',#695,#687,#697,.T.);
#695 = VERTEX_POINT('',#696);
#696 = CARTESIAN_POINT('',(-4.9,3.15,0.));
#697 = LINE('',#698,#699);
#698 = CARTESIAN_POINT('',(-4.9,3.15,0.));
#699 = VECTOR('',#700,1.);
#700 = DIRECTION('',(0.,0.,1.));
#701 = ORIENTED_EDGE('',*,*,#702,.F.);
#702 = EDGE_CURVE('',#633,#695,#703,.T.);
#703 = LINE('',#704,#705);
#704 = CARTESIAN_POINT('',(-4.9,-4.35,0.));
#705 = VECTOR('',#706,1.);
#706 = DIRECTION('',(0.,1.,0.));
#707 = PLANE('',#708);
#708 = AXIS2_PLACEMENT_3D('',#709,#710,#711);
#709 = CARTESIAN_POINT('',(-4.9,-4.35,0.));
#710 = DIRECTION('',(-1.,0.,0.));
#711 = DIRECTION('',(0.,1.,0.));
#712 = ADVANCED_FACE('',(#713,#724,#735),#746,.F.);
#713 = FACE_BOUND('',#714,.F.);
#714 = EDGE_LOOP('',(#715,#716,#717,#723));
#715 = ORIENTED_EDGE('',*,*,#640,.F.);
#716 = ORIENTED_EDGE('',*,*,#671,.F.);
#717 = ORIENTED_EDGE('',*,*,#718,.F.);
#718 = EDGE_CURVE('',#695,#655,#719,.T.);
#719 = LINE('',#720,#721);
#720 = CARTESIAN_POINT('',(-4.9,3.15,0.));
#721 = VECTOR('',#722,1.);
#722 = DIRECTION('',(1.,0.,0.));
#723 = ORIENTED_EDGE('',*,*,#702,.F.);
#724 = FACE_BOUND('',#725,.F.);
#725 = EDGE_LOOP('',(#726));
#726 = ORIENTED_EDGE('',*,*,#727,.T.);
#727 = EDGE_CURVE('',#728,#728,#730,.T.);
#728 = VERTEX_POINT('',#729);
#729 = CARTESIAN_POINT('',(5.1,-1.705,0.));
#730 = CIRCLE('',#731,0.505);
#731 = AXIS2_PLACEMENT_3D('',#732,#733,#734);
#732 = CARTESIAN_POINT('',(5.1,-1.2,0.));
#733 = DIRECTION('',(-0.,0.,-1.));
#734 = DIRECTION('',(-0.,-1.,0.));
#735 = FACE_BOUND('',#736,.F.);
#736 = EDGE_LOOP('',(#737));
#737 = ORIENTED_EDGE('',*,*,#738,.T.);
#738 = EDGE_CURVE('',#739,#739,#741,.T.);
#739 = VERTEX_POINT('',#740);
#740 = CARTESIAN_POINT('',(-6.162975822039E-33,-0.505,0.));
#741 = CIRCLE('',#742,0.505);
#742 = AXIS2_PLACEMENT_3D('',#743,#744,#745);
#743 = CARTESIAN_POINT('',(-2.775557561563E-17,8.326672684689E-17,0.));
#744 = DIRECTION('',(-0.,0.,-1.));
#745 = DIRECTION('',(5.496153587253E-17,-1.,-0.));
#746 = PLANE('',#747);
#747 = AXIS2_PLACEMENT_3D('',#748,#749,#750);
#748 = CARTESIAN_POINT('',(0.,0.,0.));
#749 = DIRECTION('',(0.,0.,1.));
#750 = DIRECTION('',(1.,0.,-0.));
#751 = ADVANCED_FACE('',(#752,#763,#774),#785,.T.);
#752 = FACE_BOUND('',#753,.T.);
#753 = EDGE_LOOP('',(#754,#755,#756,#762));
#754 = ORIENTED_EDGE('',*,*,#624,.F.);
#755 = ORIENTED_EDGE('',*,*,#664,.F.);
#756 = ORIENTED_EDGE('',*,*,#757,.F.);
#757 = EDGE_CURVE('',#687,#657,#758,.T.);
#758 = LINE('',#759,#760);
#759 = CARTESIAN_POINT('',(-4.9,3.15,1.51));
#760 = VECTOR('',#761,1.);
#761 = DIRECTION('',(1.,0.,0.));
#762 = ORIENTED_EDGE('',*,*,#686,.F.);
#763 = FACE_BOUND('',#764,.T.);
#764 = EDGE_LOOP('',(#765));
#765 = ORIENTED_EDGE('',*,*,#766,.T.);
#766 = EDGE_CURVE('',#767,#767,#769,.T.);
#767 = VERTEX_POINT('',#768);
#768 = CARTESIAN_POINT('',(5.1,-1.705,1.51));
#769 = CIRCLE('',#770,0.505);
#770 = AXIS2_PLACEMENT_3D('',#771,#772,#773);
#771 = CARTESIAN_POINT('',(5.1,-1.2,1.51));
#772 = DIRECTION('',(-0.,0.,-1.));
#773 = DIRECTION('',(-0.,-1.,0.));
#774 = FACE_BOUND('',#775,.T.);
#775 = EDGE_LOOP('',(#776));
#776 = ORIENTED_EDGE('',*,*,#777,.T.);
#777 = EDGE_CURVE('',#778,#778,#780,.T.);
#778 = VERTEX_POINT('',#779);
#779 = CARTESIAN_POINT('',(-6.162975822039E-33,-0.505,1.51));
#780 = CIRCLE('',#781,0.505);
#781 = AXIS2_PLACEMENT_3D('',#782,#783,#784);
#782 = CARTESIAN_POINT('',(-2.775557561563E-17,8.326672684689E-17,1.51)
  );
#783 = DIRECTION('',(-0.,0.,-1.));
#784 = DIRECTION('',(5.496153587253E-17,-1.,-0.));
#785 = PLANE('',#786);
#786 = AXIS2_PLACEMENT_3D('',#787,#788,#789);
#787 = CARTESIAN_POINT('',(0.,0.,1.51));
#788 = DIRECTION('',(0.,0.,1.));
#789 = DIRECTION('',(1.,0.,-0.));
#790 = ADVANCED_FACE('',(#791),#797,.T.);
#791 = FACE_BOUND('',#792,.T.);
#792 = EDGE_LOOP('',(#793,#794,#795,#796));
#793 = ORIENTED_EDGE('',*,*,#694,.T.);
#794 = ORIENTED_EDGE('',*,*,#757,.T.);
#795 = ORIENTED_EDGE('',*,*,#654,.F.);
#796 = ORIENTED_EDGE('',*,*,#718,.F.);
#797 = PLANE('',#798);
#798 = AXIS2_PLACEMENT_3D('',#799,#800,#801);
#799 = CARTESIAN_POINT('',(-4.9,3.15,0.));
#800 = DIRECTION('',(0.,1.,0.));
#801 = DIRECTION('',(1.,0.,0.));
#802 = ADVANCED_FACE('',(#803),#814,.F.);
#803 = FACE_BOUND('',#804,.T.);
#804 = EDGE_LOOP('',(#805,#806,#812,#813));
#805 = ORIENTED_EDGE('',*,*,#727,.T.);
#806 = ORIENTED_EDGE('',*,*,#807,.T.);
#807 = EDGE_CURVE('',#728,#767,#808,.T.);
#808 = LINE('',#809,#810);
#809 = CARTESIAN_POINT('',(5.1,-1.705,-4.6E-02));
#810 = VECTOR('',#811,1.);
#811 = DIRECTION('',(0.,0.,1.));
#812 = ORIENTED_EDGE('',*,*,#766,.F.);
#813 = ORIENTED_EDGE('',*,*,#807,.F.);
#814 = CYLINDRICAL_SURFACE('',#815,0.505);
#815 = AXIS2_PLACEMENT_3D('',#816,#817,#818);
#816 = CARTESIAN_POINT('',(5.1,-1.2,-4.6E-02));
#817 = DIRECTION('',(-0.,-0.,-1.));
#818 = DIRECTION('',(-0.,-1.,0.));
#819 = ADVANCED_FACE('',(#820),#831,.F.);
#820 = FACE_BOUND('',#821,.T.);
#821 = EDGE_LOOP('',(#822,#823,#829,#830));
#822 = ORIENTED_EDGE('',*,*,#738,.T.);
#823 = ORIENTED_EDGE('',*,*,#824,.T.);
#824 = EDGE_CURVE('',#739,#778,#825,.T.);
#825 = LINE('',#826,#827);
#826 = CARTESIAN_POINT('',(-6.162975822039E-33,-0.505,-4.6E-02));
#827 = VECTOR('',#828,1.);
#828 = DIRECTION('',(0.,0.,1.));
#829 = ORIENTED_EDGE('',*,*,#777,.F.);
#830 = ORIENTED_EDGE('',*,*,#824,.F.);
#831 = CYLINDRICAL_SURFACE('',#832,0.505);
#832 = AXIS2_PLACEMENT_3D('',#833,#834,#835);
#833 = CARTESIAN_POINT('',(-2.775557561563E-17,8.326672684689E-17,
    -4.6E-02));
#834 = DIRECTION('',(-0.,0.,-1.));
#835 = DIRECTION('',(5.496153587253E-17,-1.,-0.));
#836 = ( GEOMETRIC_REPRESENTATION_CONTEXT(3) 
GLOBAL_UNCERTAINTY_ASSIGNED_CONTEXT((#840)) GLOBAL_UNIT_ASSIGNED_CONTEXT
((#837,#838,#839)) REPRESENTATION_CONTEXT('Context #1',
  '3D Context with UNIT and UNCERTAINTY') );
#837 = ( LENGTH_UNIT() NAMED_UNIT(*) SI_UNIT(.MILLI.,.METRE.) );
#838 = ( NAMED_UNIT(*) PLANE_ANGLE_UNIT() SI_UNIT($,.RADIAN.) );
#839 = ( NAMED_UNIT(*) SI_UNIT($,.STERADIAN.) SOLID_ANGLE_UNIT() );
#840 = UNCERTAINTY_MEASURE_WITH_UNIT(LENGTH_MEASURE(1.E-07),#837,
  'distance_accuracy_value','confusion accuracy');
#841 = CONTEXT_DEPENDENT_SHAPE_REPRESENTATION(#842,#844);
#842 = ( REPRESENTATION_RELATIONSHIP('','',#607,#10) 
REPRESENTATION_RELATIONSHIP_WITH_TRANSFORMATION(#843) 
SHAPE_REPRESENTATION_RELATIONSHIP() );
#843 = ITEM_DEFINED_TRANSFORMATION('','',#11,#19);
#844 = PRODUCT_DEFINITION_SHAPE('Placement','Placement of an item',#845
  );
#845 = NEXT_ASSEMBLY_USAGE_OCCURRENCE('2','=>[0:1:1:3]','',#5,#602,$);
#846 = PRODUCT_RELATED_PRODUCT_CATEGORY('part',$,(#604));
#847 = MECHANICAL_DESIGN_GEOMETRIC_PRESENTATION_REPRESENTATION('',(#848,
    #856,#863,#870,#877,#884),#589);
#848 = STYLED_ITEM('color',(#849),#37);
#849 = PRESENTATION_STYLE_ASSIGNMENT((#850));
#850 = SURFACE_STYLE_USAGE(.BOTH.,#851);
#851 = SURFACE_SIDE_STYLE('',(#852));
#852 = SURFACE_STYLE_FILL_AREA(#853);
#853 = FILL_AREA_STYLE('',(#854));
#854 = FILL_AREA_STYLE_COLOUR('',#855);
#855 = COLOUR_RGB('',0.735356983052,0.735356983052,0.735356983052);
#856 = STYLED_ITEM('color',(#857),#129);
#857 = PRESENTATION_STYLE_ASSIGNMENT((#858));
#858 = SURFACE_STYLE_USAGE(.BOTH.,#859);
#859 = SURFACE_SIDE_STYLE('',(#860));
#860 = SURFACE_STYLE_FILL_AREA(#861);
#861 = FILL_AREA_STYLE('',(#862));
#862 = FILL_AREA_STYLE_COLOUR('',#855);
#863 = STYLED_ITEM('color',(#864),#221);
#864 = PRESENTATION_STYLE_ASSIGNMENT((#865));
#865 = SURFACE_STYLE_USAGE(.BOTH.,#866);
#866 = SURFACE_SIDE_STYLE('',(#867));
#867 = SURFACE_STYLE_FILL_AREA(#868);
#868 = FILL_AREA_STYLE('',(#869));
#869 = FILL_AREA_STYLE_COLOUR('',#855);
#870 = STYLED_ITEM('color',(#871),#313);
#871 = PRESENTATION_STYLE_ASSIGNMENT((#872));
#872 = SURFACE_STYLE_USAGE(.BOTH.,#873);
#873 = SURFACE_SIDE_STYLE('',(#874));
#874 = SURFACE_STYLE_FILL_AREA(#875);
#875 = FILL_AREA_STYLE('',(#876));
#876 = FILL_AREA_STYLE_COLOUR('',#855);
#877 = STYLED_ITEM('color',(#878),#405);
#878 = PRESENTATION_STYLE_ASSIGNMENT((#879));
#879 = SURFACE_STYLE_USAGE(.BOTH.,#880);
#880 = SURFACE_SIDE_STYLE('',(#881));
#881 = SURFACE_STYLE_FILL_AREA(#882);
#882 = FILL_AREA_STYLE('',(#883));
#883 = FILL_AREA_STYLE_COLOUR('',#855);
#884 = STYLED_ITEM('color',(#885),#497);
#885 = PRESENTATION_STYLE_ASSIGNMENT((#886));
#886 = SURFACE_STYLE_USAGE(.BOTH.,#887);
#887 = SURFACE_SIDE_STYLE('',(#888));
#888 = SURFACE_STYLE_FILL_AREA(#889);
#889 = FILL_AREA_STYLE('',(#890));
#890 = FILL_AREA_STYLE_COLOUR('',#855);
#891 = MECHANICAL_DESIGN_GEOMETRIC_PRESENTATION_REPRESENTATION('',(#892)
  ,#836);
#892 = STYLED_ITEM('color',(#893),#608);
#893 = PRESENTATION_STYLE_ASSIGNMENT((#894));
#894 = SURFACE_STYLE_USAGE(.BOTH.,#895);
#895 = SURFACE_SIDE_STYLE('',(#896));
#896 = SURFACE_STYLE_FILL_AREA(#897);
#897 = FILL_AREA_STYLE('',(#898));
#898 = FILL_AREA_STYLE_COLOUR('',#899);
#899 = COLOUR_RGB('',0.313304153717,0.484529207832,0.410020903123);
ENDSEC;
END-ISO-10303-21;
