%TF.GenerationSoftware,KiCad,Pcbnew,10.99.0-3758-g2f18d95be7*%
%TF.CreationDate,2026-09-21T17:58:10+01:00*%
%TF.ProjectId,kicad_file,6b696361-645f-4666-996c-652e6b696361,rev?*%
%TF.SameCoordinates,Original*%
%TF.FileFunction,Paste,Top*%
%TF.FilePolarity,Positive*%
%FSLAX46Y46*%
G04 Gerber Fmt 4.6, Leading zero omitted, Abs format (unit mm)*
G04 Created by KiCad (PCBNEW 10.99.0-3758-g2f18d95be7) date 2026-09-21 17:58:10*
%MOMM*%
%LPD*%
G01*
G04 APERTURE LIST*
G04 Aperture macros list*
%AMRoundRect*
0 Rectangle with rounded corners*
0 $1 Rounding radius*
0 $2 $3 $4 $5 $6 $7 $8 $9 X,Y pos of 4 corners*
0 Add a 4 corners polygon primitive as box body*
4,1,4,$2,$3,$4,$5,$6,$7,$8,$9,$2,$3,0*
0 Add four circle primitives for the rounded corners*
1,1,$1+$1,$2,$3*
1,1,$1+$1,$4,$5*
1,1,$1+$1,$6,$7*
1,1,$1+$1,$8,$9*
0 Add four rect primitives between the rounded corners*
20,1,$1+$1,$2,$3,$4,$5,0*
20,1,$1+$1,$4,$5,$6,$7,0*
20,1,$1+$1,$6,$7,$8,$9,0*
20,1,$1+$1,$8,$9,$2,$3,0*%
G04 Aperture macros list end*
%ADD10C,0.000000*%
%ADD11R,1.300000X1.500000*%
%ADD12R,1.500000X1.300000*%
%ADD13R,2.200000X0.600000*%
%ADD14R,1.400000X1.000000*%
%ADD15R,0.800000X0.280000*%
%ADD16R,0.280000X0.800000*%
%ADD17R,3.048000X1.524000*%
%ADD18R,0.800000X1.350000*%
%ADD19R,1.000000X1.200000*%
%ADD20R,1.350000X0.800000*%
%ADD21R,0.275000X1.200000*%
%ADD22RoundRect,0.300000X-0.900000X-0.900000X0.900000X-0.900000X0.900000X0.900000X-0.900000X0.900000X0*%
G04 APERTURE END LIST*
D10*
%TO.C,U2*%
G36*
X42418000Y39878000D02*
G01*
X41402000Y39878000D01*
X41402000Y40894000D01*
X42418000Y40894000D01*
X42418000Y39878000D01*
G37*
%TD*%
D11*
%TO.C,C3*%
X30287000Y43688000D03*
X28387000Y43688000D03*
%TD*%
D12*
%TO.C,R16*%
X51562000Y43881000D03*
X51562000Y45781000D03*
%TD*%
D13*
%TO.C,U1*%
X27746000Y63627000D03*
X27746000Y64897000D03*
X27746000Y66167000D03*
X27746000Y67437000D03*
X22546000Y67437000D03*
X22546000Y66167000D03*
X22546000Y64897000D03*
X22546000Y63627000D03*
%TD*%
D12*
%TO.C,R7*%
X43434000Y44643000D03*
X43434000Y46543000D03*
%TD*%
D14*
%TO.C,IC5*%
X28364000Y41844000D03*
X28364000Y39944000D03*
X30564000Y40894000D03*
%TD*%
D15*
%TO.C,U2*%
X43410000Y39636000D03*
X43410000Y40136000D03*
X43410000Y40636000D03*
X43410000Y41136000D03*
D16*
X42660000Y41886000D03*
X42160000Y41886000D03*
X41660000Y41886000D03*
X41160000Y41886000D03*
D15*
X40410000Y41136000D03*
X40410000Y40636000D03*
X40410000Y40136000D03*
X40410000Y39636000D03*
D16*
X41160000Y38886000D03*
X41660000Y38886000D03*
X42160000Y38886000D03*
X42660000Y38886000D03*
%TD*%
D17*
%TO.C,JP3*%
X9144000Y76835000D03*
X13462000Y76835000D03*
X9144000Y74295000D03*
X13462000Y74295000D03*
X9144000Y71755000D03*
X13462000Y71755000D03*
X9144000Y69215000D03*
X13462000Y69215000D03*
X9144000Y66675000D03*
X13462000Y66675000D03*
X9144000Y64135000D03*
X13462000Y64135000D03*
X9144000Y61595000D03*
X13462000Y61595000D03*
X9144000Y59055000D03*
X13462000Y59055000D03*
X9144000Y56515000D03*
X13462000Y56515000D03*
X9144000Y53975000D03*
X13462000Y53975000D03*
X9144000Y51435000D03*
X13462000Y51435000D03*
X9144000Y48895000D03*
X13462000Y48895000D03*
X9144000Y46355000D03*
X13462000Y46355000D03*
X9144000Y43815000D03*
X13462000Y43815000D03*
X9144000Y41275000D03*
X13462000Y41275000D03*
X9144000Y38735000D03*
X13462000Y38735000D03*
X9144000Y36195000D03*
X13462000Y36195000D03*
X9144000Y33655000D03*
X13462000Y33655000D03*
X9144000Y31115000D03*
X13462000Y31115000D03*
X9144000Y28575000D03*
X13462000Y28575000D03*
%TD*%
D12*
%TO.C,C4*%
X38100000Y37658000D03*
X38100000Y39558000D03*
%TD*%
%TO.C,R4*%
X23749000Y40066000D03*
X23749000Y38166000D03*
%TD*%
%TO.C,C2*%
X41275000Y44643000D03*
X41275000Y46543000D03*
%TD*%
D18*
%TO.C,D2*%
X21463000Y44069000D03*
X21463000Y46609000D03*
%TD*%
D11*
%TO.C,R12*%
X20127000Y63881000D03*
X18227000Y63881000D03*
%TD*%
D12*
%TO.C,R2*%
X19685000Y40066000D03*
X19685000Y38166000D03*
%TD*%
D19*
%TO.C,Q2*%
X19492000Y43926000D03*
X17592000Y43926000D03*
X18542000Y41926000D03*
%TD*%
D20*
%TO.C,D1*%
X21336000Y42164000D03*
X23876000Y42164000D03*
%TD*%
D12*
%TO.C,R17*%
X53721000Y43881000D03*
X53721000Y45781000D03*
%TD*%
%TO.C,R9*%
X23368000Y44389000D03*
X23368000Y46289000D03*
%TD*%
D11*
%TO.C,R10*%
X28768000Y52578000D03*
X30668000Y52578000D03*
%TD*%
D12*
%TO.C,R15*%
X47371000Y43881000D03*
X47371000Y45781000D03*
%TD*%
D11*
%TO.C,R6*%
X28387000Y38227000D03*
X30287000Y38227000D03*
%TD*%
%TO.C,R11*%
X28768000Y50038000D03*
X30668000Y50038000D03*
%TD*%
D12*
%TO.C,R18*%
X49403000Y43881000D03*
X49403000Y45781000D03*
%TD*%
%TO.C,C1*%
X25781000Y38166000D03*
X25781000Y40066000D03*
%TD*%
%TO.C,R8*%
X46228000Y38293000D03*
X46228000Y40193000D03*
%TD*%
D11*
%TO.C,C5*%
X17465000Y46609000D03*
X19365000Y46609000D03*
%TD*%
%TO.C,R14*%
X20127000Y65786000D03*
X18227000Y65786000D03*
%TD*%
D12*
%TO.C,R1*%
X17653000Y40066000D03*
X17653000Y38166000D03*
%TD*%
D11*
%TO.C,R13*%
X20127000Y67691000D03*
X18227000Y67691000D03*
%TD*%
D12*
%TO.C,R3*%
X21717000Y40066000D03*
X21717000Y38166000D03*
%TD*%
D21*
%TO.C,U$2*%
X18865000Y34822000D03*
X19365000Y34822000D03*
X19865000Y34822000D03*
X20365000Y34822000D03*
X20865000Y34822000D03*
X21365000Y34822000D03*
X21865000Y34822000D03*
X22365000Y34822000D03*
X22865000Y34822000D03*
X23365000Y34822000D03*
X23865000Y34822000D03*
X24365000Y34822000D03*
X24865000Y34822000D03*
X25365000Y34822000D03*
X25865000Y34822000D03*
X26365000Y34822000D03*
X26865000Y34822000D03*
X27365000Y34822000D03*
X27865000Y34822000D03*
X28365000Y34822000D03*
X28865000Y34822000D03*
X29365000Y34822000D03*
X29865000Y34822000D03*
X30365000Y34822000D03*
X30865000Y34822000D03*
X31365000Y34822000D03*
X31865000Y34822000D03*
X32365000Y34822000D03*
X32865000Y34822000D03*
X33365000Y34822000D03*
X33865000Y34822000D03*
X34365000Y34822000D03*
X34865000Y34822000D03*
X35365000Y34822000D03*
X35865000Y34822000D03*
X36365000Y34822000D03*
X36865000Y34822000D03*
X37365000Y34822000D03*
X37865000Y34822000D03*
X38365000Y34822000D03*
X38865000Y34822000D03*
X39365000Y34822000D03*
X39865000Y34822000D03*
X40365000Y34822000D03*
X40865000Y34822000D03*
X41365000Y34822000D03*
X41865000Y34822000D03*
X42365000Y34822000D03*
X42865000Y34822000D03*
X43365000Y34822000D03*
D22*
X16765000Y32122000D03*
X45465000Y32122000D03*
%TD*%
M02*
