%TF.GenerationSoftware,KiCad,Pcbnew,10.99.0-3671-gbe90a7e200*%
%TF.CreationDate,2026-09-10T01:13:24+01:00*%
%TF.ProjectId,kicad_file,6b696361-645f-4666-996c-652e6b696361,rev?*%
%TF.SameCoordinates,Original*%
%TF.FileFunction,Soldermask,Top*%
%TF.FilePolarity,Negative*%
%FSLAX46Y46*%
G04 Gerber Fmt 4.6, Leading zero omitted, Abs format (unit mm)*
G04 Created by KiCad (PCBNEW 10.99.0-3671-gbe90a7e200) date 2026-09-10 01:13:24*
%MOMM*%
%LPD*%
G01*
G04 APERTURE LIST*
G04 Aperture macros list*
%AMRoundRect*
0 Rectangle with rounded corners*
0 $1 Rounding radius*
0 $2 $3 $4 $5 $6 $7 $8 $9 X,Y pos of 4 corners*
0 Add a 4 corners polygon primitive as box body*
4,1,4,$2,$3,$4,$5,$6,$7,$8,$9,$2,$3,0*
0 Add four circle primitives for the rounded corners*
1,1,$1+$1,$2,$3*
1,1,$1+$1,$4,$5*
1,1,$1+$1,$6,$7*
1,1,$1+$1,$8,$9*
0 Add four rect primitives between the rounded corners*
20,1,$1+$1,$2,$3,$4,$5,0*
20,1,$1+$1,$4,$5,$6,$7,0*
20,1,$1+$1,$6,$7,$8,$9,0*
20,1,$1+$1,$8,$9,$2,$3,0*%
G04 Aperture macros list end*
%ADD10C,0.500000*%
%ADD11C,0.000000*%
%ADD12C,3.301600*%
%ADD13C,1.158000*%
%ADD14RoundRect,0.050800X-0.575000X0.287500X-0.575000X-0.287500X0.575000X-0.287500X0.575000X0.287500X0*%
%ADD15RoundRect,0.050800X-0.575000X0.137500X-0.575000X-0.137500X0.575000X-0.137500X0.575000X0.137500X0*%
%ADD16O,2.101600X1.101600*%
%ADD17RoundRect,0.550800X-0.000010X-0.000010X0.000010X-0.000010X0.000010X0.000010X-0.000010X0.000010X0*%
%ADD18RoundRect,0.050800X0.600000X-0.275000X0.600000X0.275000X-0.600000X0.275000X-0.600000X-0.275000X0*%
%ADD19RoundRect,0.050800X0.500000X-0.537500X0.500000X0.537500X-0.500000X0.537500X-0.500000X-0.537500X0*%
%ADD20RoundRect,0.050800X0.537500X0.500000X-0.537500X0.500000X-0.537500X-0.500000X0.537500X-0.500000X0*%
%ADD21RoundRect,0.050800X-2.300000X0.500000X-2.300000X-0.500000X2.300000X-0.500000X2.300000X0.500000X0*%
%ADD22RoundRect,0.050800X-1.700000X-0.800000X1.700000X-0.800000X1.700000X0.800000X-1.700000X0.800000X0*%
%ADD23RoundRect,0.050800X0.750000X-0.650000X0.750000X0.650000X-0.750000X0.650000X-0.750000X-0.650000X0*%
%ADD24RoundRect,0.050800X0.600000X0.600000X-0.600000X0.600000X-0.600000X-0.600000X0.600000X-0.600000X0*%
%ADD25C,1.879600*%
%ADD26RoundRect,0.050800X-0.537500X-0.500000X0.537500X-0.500000X0.537500X0.500000X-0.537500X0.500000X0*%
G04 APERTURE END LIST*
%TO.C,FID2*%
D10*
X17030000Y14605000D02*
G75*
G02*
X17780000Y15355000I750000J0D01*
G01*
X17780000Y15355000D02*
G75*
G02*
X18530000Y14605000I0J-750000D01*
G01*
X17780000Y13855000D02*
G75*
G02*
X17030000Y14605000I0J750000D01*
G01*
X18530000Y14605000D02*
G75*
G02*
X17780000Y13855000I-750000J0D01*
G01*
D11*
%TO.C,SJ1*%
G36*
X11239500Y317500D02*
G01*
X8318500Y317500D01*
X8318500Y1968500D01*
X11239500Y1968500D01*
X11239500Y317500D01*
G37*
%TO.C,FID1*%
D10*
X4457000Y952500D02*
G75*
G02*
X5207000Y1702500I750000J0D01*
G01*
X5207000Y1702500D02*
G75*
G02*
X5957000Y952500I0J-750000D01*
G01*
X5207000Y202500D02*
G75*
G02*
X4457000Y952500I0J750000D01*
G01*
X5957000Y952500D02*
G75*
G02*
X5207000Y202500I-750000J0D01*
G01*
%TD*%
D12*
%TO.C,U$9*%
X20320000Y2540000D03*
%TD*%
D13*
%TO.C,X2*%
X5137000Y12415000D03*
X5137000Y6635000D03*
D14*
X6212000Y12725000D03*
X6212000Y11925000D03*
D15*
X6212000Y10775000D03*
X6212000Y9775000D03*
X6212000Y9275000D03*
X6212000Y8275000D03*
D14*
X6212000Y6325000D03*
X6212000Y7125000D03*
D15*
X6212000Y7775000D03*
X6212000Y8775000D03*
X6212000Y10275000D03*
X6212000Y11275000D03*
D16*
X5637000Y13845000D03*
X5637000Y5205000D03*
X1457000Y13845000D03*
X1457000Y5205000D03*
%TD*%
D12*
%TO.C,U$11*%
X2540000Y2540000D03*
%TD*%
D17*
%TO.C,FID2*%
X17780000Y14605000D03*
%TD*%
D18*
%TO.C,U1*%
X11587100Y8956000D03*
X11587100Y9906000D03*
X11587100Y10856000D03*
X8986900Y10856000D03*
X8986900Y8956000D03*
%TD*%
D19*
%TO.C,R2*%
X12192000Y5055500D03*
X12192000Y6755500D03*
%TD*%
D20*
%TO.C,R6*%
X10375000Y4191000D03*
X8675000Y4191000D03*
%TD*%
D17*
%TO.C,FID1*%
X5207000Y952500D03*
%TD*%
D19*
%TO.C,R4*%
X6985000Y1182000D03*
X6985000Y2882000D03*
%TD*%
D21*
%TO.C,CN2*%
X15604000Y10525000D03*
X15604000Y8525000D03*
D22*
X20804000Y12925000D03*
X20804000Y6125000D03*
%TD*%
D23*
%TO.C,C2*%
X11303000Y12448500D03*
X11303000Y14348500D03*
%TD*%
D19*
%TO.C,R1*%
X13716000Y5055500D03*
X13716000Y6755500D03*
%TD*%
D20*
%TO.C,R5*%
X10375000Y5715000D03*
X8675000Y5715000D03*
%TD*%
D12*
%TO.C,U$10*%
X20320000Y16510000D03*
%TD*%
D24*
%TO.C,LED2*%
X14478000Y3399500D03*
X14478000Y1299500D03*
%TD*%
%TO.C,LED1*%
X17145000Y3399500D03*
X17145000Y1299500D03*
%TD*%
D23*
%TO.C,C1*%
X9144000Y12448500D03*
X9144000Y14348500D03*
%TD*%
D25*
%TO.C,JP4*%
X6350000Y16510000D03*
X8890000Y16510000D03*
X11430000Y16510000D03*
X13970000Y16510000D03*
X16510000Y16510000D03*
%TD*%
D26*
%TO.C,R3*%
X8992500Y7493000D03*
X10692500Y7493000D03*
%TD*%
D12*
%TO.C,U$12*%
X2540000Y16510000D03*
%TD*%
M02*
