%TF.GenerationSoftware,KiCad,Pcbnew,10.99.0-3671-gbe90a7e200*%
%TF.CreationDate,2026-09-09T23:36:07+01:00*%
%TF.ProjectId,kicad_file,6b696361-645f-4666-996c-652e6b696361,rev?*%
%TF.SameCoordinates,Original*%
%TF.FileFunction,Drillmap*%
%TF.FilePolarity,Positive*%
%FSLAX45Y45*%
G04 Gerber Fmt 4.5, Leading zero omitted, Abs format (unit mm)*
G04 Created by KiCad (PCBNEW 10.99.0-3671-gbe90a7e200) date 2026-09-09 23:36:07*
%MOMM*%
%LPD*%
G01*
G04 APERTURE LIST*
%ADD10C,0.050000*%
%ADD11C,0.200000*%
%ADD12C,0.100000*%
%ADD13C,0.250000*%
G04 APERTURE END LIST*
D10*
X-508000Y4064000D02*
G75*
G02*
X-254000Y4318000I254000J0D01*
G01*
X-508000Y254000D02*
G75*
G02*
X-254000Y508000I254000J0D01*
G01*
X-254000Y3810000D02*
G75*
G02*
X-508000Y4064000I0J254000D01*
G01*
X-254000Y3810000D02*
X0Y3810000D01*
X-254000Y508000D02*
X0Y508000D01*
X-254000Y0D02*
G75*
G02*
X-508000Y254000I0J254000D01*
G01*
X-254000Y0D02*
X3556000Y0D01*
X0Y508000D02*
X0Y3810000D01*
X3302000Y3810000D02*
X3302000Y508000D01*
X3302000Y3810000D02*
X3556000Y3810000D01*
X3302000Y508000D02*
X3556000Y508000D01*
X3556000Y4318000D02*
X-254000Y4318000D01*
X3556000Y4318000D02*
G75*
G02*
X3810000Y4064000I0J-254000D01*
G01*
X3556000Y508000D02*
G75*
G02*
X3810000Y254000I0J-254000D01*
G01*
X3810000Y4064000D02*
G75*
G02*
X3556000Y3810000I-254000J0D01*
G01*
X3810000Y254000D02*
G75*
G02*
X3556000Y0I-254000J0D01*
G01*
D11*
D12*
X1313815Y2204085D02*
X1353185Y2164715D01*
X1353185Y2204085D02*
X1313815Y2164715D01*
X1968097Y1344930D02*
X2007467Y1305560D01*
X2007467Y1344930D02*
X1968097Y1305560D01*
X2369873Y1182370D02*
X2409243Y1143000D01*
X2409243Y1182370D02*
X2369873Y1143000D01*
X2470203Y1161997D02*
X2509573Y1122627D01*
X2509573Y1161997D02*
X2470203Y1122627D01*
X2609215Y3194685D02*
X2648585Y3155315D01*
X2648585Y3194685D02*
X2609215Y3155315D01*
X2761615Y2286635D02*
X2800985Y2247265D01*
X2800985Y2286635D02*
X2761615Y2247265D01*
X2922905Y2661285D02*
X2962275Y2621915D01*
X2962275Y2661285D02*
X2922905Y2621915D01*
X2932430Y3150235D02*
X2971800Y3110865D01*
X2971800Y3150235D02*
X2932430Y3110865D01*
X2979420Y2833770D02*
X3018790Y2794400D01*
X3018790Y2833770D02*
X2979420Y2794400D01*
X3004820Y2578735D02*
X3044190Y2539365D01*
X3044190Y2578735D02*
X3004820Y2539365D01*
X3104515Y2648585D02*
X3143885Y2609215D01*
X3143885Y2648585D02*
X3104515Y2609215D01*
X3142615Y2407285D02*
X3181985Y2367915D01*
X3181985Y2407285D02*
X3142615Y2367915D01*
X3158490Y2546985D02*
X3197860Y2507615D01*
X3197860Y2546985D02*
X3158490Y2507615D01*
X202800Y1028700D02*
G75*
G02*
X152800Y1028700I-25000J0D01*
G01*
X152800Y1028700D02*
G75*
G02*
X202800Y1028700I25000J0D01*
G01*
X266300Y2603500D02*
G75*
G02*
X216300Y2603500I-25000J0D01*
G01*
X216300Y2603500D02*
G75*
G02*
X266300Y2603500I25000J0D01*
G01*
X279000Y1866900D02*
G75*
G02*
X229000Y1866900I-25000J0D01*
G01*
X229000Y1866900D02*
G75*
G02*
X279000Y1866900I25000J0D01*
G01*
X342500Y3530600D02*
G75*
G02*
X292500Y3530600I-25000J0D01*
G01*
X292500Y3530600D02*
G75*
G02*
X342500Y3530600I25000J0D01*
G01*
X710800Y2768600D02*
G75*
G02*
X660800Y2768600I-25000J0D01*
G01*
X660800Y2768600D02*
G75*
G02*
X710800Y2768600I25000J0D01*
G01*
X710800Y1854200D02*
G75*
G02*
X660800Y1854200I-25000J0D01*
G01*
X660800Y1854200D02*
G75*
G02*
X710800Y1854200I25000J0D01*
G01*
X748900Y3083560D02*
G75*
G02*
X698900Y3083560I-25000J0D01*
G01*
X698900Y3083560D02*
G75*
G02*
X748900Y3083560I25000J0D01*
G01*
X812400Y1054100D02*
G75*
G02*
X762400Y1054100I-25000J0D01*
G01*
X762400Y1054100D02*
G75*
G02*
X812400Y1054100I25000J0D01*
G01*
X914000Y2413000D02*
G75*
G02*
X864000Y2413000I-25000J0D01*
G01*
X864000Y2413000D02*
G75*
G02*
X914000Y2413000I25000J0D01*
G01*
X1028300Y2946400D02*
G75*
G02*
X978300Y2946400I-25000J0D01*
G01*
X978300Y2946400D02*
G75*
G02*
X1028300Y2946400I25000J0D01*
G01*
X1028300Y1638300D02*
G75*
G02*
X978300Y1638300I-25000J0D01*
G01*
X978300Y1638300D02*
G75*
G02*
X1028300Y1638300I25000J0D01*
G01*
X1028300Y1143000D02*
G75*
G02*
X978300Y1143000I-25000J0D01*
G01*
X978300Y1143000D02*
G75*
G02*
X1028300Y1143000I25000J0D01*
G01*
X1091800Y3746500D02*
G75*
G02*
X1041800Y3746500I-25000J0D01*
G01*
X1041800Y3746500D02*
G75*
G02*
X1091800Y3746500I25000J0D01*
G01*
X1091800Y769620D02*
G75*
G02*
X1041800Y769620I-25000J0D01*
G01*
X1041800Y769620D02*
G75*
G02*
X1091800Y769620I25000J0D01*
G01*
X1155300Y3289300D02*
G75*
G02*
X1105300Y3289300I-25000J0D01*
G01*
X1105300Y3289300D02*
G75*
G02*
X1155300Y3289300I25000J0D01*
G01*
X1218800Y1231900D02*
G75*
G02*
X1168800Y1231900I-25000J0D01*
G01*
X1168800Y1231900D02*
G75*
G02*
X1218800Y1231900I25000J0D01*
G01*
X1282300Y3251200D02*
G75*
G02*
X1232300Y3251200I-25000J0D01*
G01*
X1232300Y3251200D02*
G75*
G02*
X1282300Y3251200I25000J0D01*
G01*
X1282300Y1379220D02*
G75*
G02*
X1232300Y1379220I-25000J0D01*
G01*
X1232300Y1379220D02*
G75*
G02*
X1282300Y1379220I25000J0D01*
G01*
X1320400Y845820D02*
G75*
G02*
X1270400Y845820I-25000J0D01*
G01*
X1270400Y845820D02*
G75*
G02*
X1320400Y845820I25000J0D01*
G01*
X1333100Y2857500D02*
G75*
G02*
X1283100Y2857500I-25000J0D01*
G01*
X1283100Y2857500D02*
G75*
G02*
X1333100Y2857500I25000J0D01*
G01*
X1333100Y2679700D02*
G75*
G02*
X1283100Y2679700I-25000J0D01*
G01*
X1283100Y2679700D02*
G75*
G02*
X1333100Y2679700I25000J0D01*
G01*
X1409300Y1308100D02*
G75*
G02*
X1359300Y1308100I-25000J0D01*
G01*
X1359300Y1308100D02*
G75*
G02*
X1409300Y1308100I25000J0D01*
G01*
X1536300Y3543300D02*
G75*
G02*
X1486300Y3543300I-25000J0D01*
G01*
X1486300Y3543300D02*
G75*
G02*
X1536300Y3543300I25000J0D01*
G01*
X1536300Y3416300D02*
G75*
G02*
X1486300Y3416300I-25000J0D01*
G01*
X1486300Y3416300D02*
G75*
G02*
X1536300Y3416300I25000J0D01*
G01*
X1688700Y2260600D02*
G75*
G02*
X1638700Y2260600I-25000J0D01*
G01*
X1638700Y2260600D02*
G75*
G02*
X1688700Y2260600I25000J0D01*
G01*
X1688700Y1600200D02*
G75*
G02*
X1638700Y1600200I-25000J0D01*
G01*
X1638700Y1600200D02*
G75*
G02*
X1688700Y1600200I25000J0D01*
G01*
X1688700Y977900D02*
G75*
G02*
X1638700Y977900I-25000J0D01*
G01*
X1638700Y977900D02*
G75*
G02*
X1688700Y977900I25000J0D01*
G01*
X1739500Y2959100D02*
G75*
G02*
X1689500Y2959100I-25000J0D01*
G01*
X1689500Y2959100D02*
G75*
G02*
X1739500Y2959100I25000J0D01*
G01*
X1764900Y3492500D02*
G75*
G02*
X1714900Y3492500I-25000J0D01*
G01*
X1714900Y3492500D02*
G75*
G02*
X1764900Y3492500I25000J0D01*
G01*
X1790300Y1397000D02*
G75*
G02*
X1740300Y1397000I-25000J0D01*
G01*
X1740300Y1397000D02*
G75*
G02*
X1790300Y1397000I25000J0D01*
G01*
X1841100Y3644900D02*
G75*
G02*
X1791100Y3644900I-25000J0D01*
G01*
X1791100Y3644900D02*
G75*
G02*
X1841100Y3644900I25000J0D01*
G01*
X1863960Y3350260D02*
G75*
G02*
X1813960Y3350260I-25000J0D01*
G01*
X1813960Y3350260D02*
G75*
G02*
X1863960Y3350260I25000J0D01*
G01*
X1891900Y3492500D02*
G75*
G02*
X1841900Y3492500I-25000J0D01*
G01*
X1841900Y3492500D02*
G75*
G02*
X1891900Y3492500I25000J0D01*
G01*
X1937620Y1404620D02*
G75*
G02*
X1887620Y1404620I-25000J0D01*
G01*
X1887620Y1404620D02*
G75*
G02*
X1937620Y1404620I25000J0D01*
G01*
X2031600Y3390900D02*
G75*
G02*
X1981600Y3390900I-25000J0D01*
G01*
X1981600Y3390900D02*
G75*
G02*
X2031600Y3390900I25000J0D01*
G01*
X2100180Y2100580D02*
G75*
G02*
X2050180Y2100580I-25000J0D01*
G01*
X2050180Y2100580D02*
G75*
G02*
X2100180Y2100580I25000J0D01*
G01*
X2107800Y3302000D02*
G75*
G02*
X2057800Y3302000I-25000J0D01*
G01*
X2057800Y3302000D02*
G75*
G02*
X2107800Y3302000I25000J0D01*
G01*
X2139550Y1155700D02*
G75*
G02*
X2089550Y1155700I-25000J0D01*
G01*
X2089550Y1155700D02*
G75*
G02*
X2139550Y1155700I25000J0D01*
G01*
X2145900Y1409700D02*
G75*
G02*
X2095900Y1409700I-25000J0D01*
G01*
X2095900Y1409700D02*
G75*
G02*
X2145900Y1409700I25000J0D01*
G01*
X2158600Y2438400D02*
G75*
G02*
X2108600Y2438400I-25000J0D01*
G01*
X2108600Y2438400D02*
G75*
G02*
X2158600Y2438400I25000J0D01*
G01*
X2196700Y3517900D02*
G75*
G02*
X2146700Y3517900I-25000J0D01*
G01*
X2146700Y3517900D02*
G75*
G02*
X2196700Y3517900I25000J0D01*
G01*
X2285600Y2260600D02*
G75*
G02*
X2235600Y2260600I-25000J0D01*
G01*
X2235600Y2260600D02*
G75*
G02*
X2285600Y2260600I25000J0D01*
G01*
X2285600Y1371600D02*
G75*
G02*
X2235600Y1371600I-25000J0D01*
G01*
X2235600Y1371600D02*
G75*
G02*
X2285600Y1371600I25000J0D01*
G01*
X2311000Y1676400D02*
G75*
G02*
X2261000Y1676400I-25000J0D01*
G01*
X2261000Y1676400D02*
G75*
G02*
X2311000Y1676400I25000J0D01*
G01*
X2349100Y584200D02*
G75*
G02*
X2299100Y584200I-25000J0D01*
G01*
X2299100Y584200D02*
G75*
G02*
X2349100Y584200I25000J0D01*
G01*
X2387200Y1422400D02*
G75*
G02*
X2337200Y1422400I-25000J0D01*
G01*
X2337200Y1422400D02*
G75*
G02*
X2387200Y1422400I25000J0D01*
G01*
X2394820Y795020D02*
G75*
G02*
X2344820Y795020I-25000J0D01*
G01*
X2344820Y795020D02*
G75*
G02*
X2394820Y795020I25000J0D01*
G01*
X2488800Y1765300D02*
G75*
G02*
X2438800Y1765300I-25000J0D01*
G01*
X2438800Y1765300D02*
G75*
G02*
X2488800Y1765300I25000J0D01*
G01*
X2495150Y2273300D02*
G75*
G02*
X2445150Y2273300I-25000J0D01*
G01*
X2445150Y2273300D02*
G75*
G02*
X2495150Y2273300I25000J0D01*
G01*
X2646280Y1992630D02*
G75*
G02*
X2596280Y1992630I-25000J0D01*
G01*
X2596280Y1992630D02*
G75*
G02*
X2646280Y1992630I25000J0D01*
G01*
X2693270Y3378200D02*
G75*
G02*
X2643270Y3378200I-25000J0D01*
G01*
X2643270Y3378200D02*
G75*
G02*
X2693270Y3378200I25000J0D01*
G01*
X2775820Y566420D02*
G75*
G02*
X2725820Y566420I-25000J0D01*
G01*
X2725820Y566420D02*
G75*
G02*
X2775820Y566420I25000J0D01*
G01*
X2793600Y1600200D02*
G75*
G02*
X2743600Y1600200I-25000J0D01*
G01*
X2743600Y1600200D02*
G75*
G02*
X2793600Y1600200I25000J0D01*
G01*
X2813920Y1061720D02*
G75*
G02*
X2763920Y1061720I-25000J0D01*
G01*
X2763920Y1061720D02*
G75*
G02*
X2813920Y1061720I25000J0D01*
G01*
X2912980Y1986280D02*
G75*
G02*
X2862980Y1986280I-25000J0D01*
G01*
X2862980Y1986280D02*
G75*
G02*
X2912980Y1986280I25000J0D01*
G01*
X2958700Y1587500D02*
G75*
G02*
X2908700Y1587500I-25000J0D01*
G01*
X2908700Y1587500D02*
G75*
G02*
X2958700Y1587500I25000J0D01*
G01*
X2965050Y762000D02*
G75*
G02*
X2915050Y762000I-25000J0D01*
G01*
X2915050Y762000D02*
G75*
G02*
X2965050Y762000I25000J0D01*
G01*
X3073000Y1054100D02*
G75*
G02*
X3023000Y1054100I-25000J0D01*
G01*
X3023000Y1054100D02*
G75*
G02*
X3073000Y1054100I25000J0D01*
G01*
X3187300Y1047750D02*
G75*
G02*
X3137300Y1047750I-25000J0D01*
G01*
X3137300Y1047750D02*
G75*
G02*
X3187300Y1047750I25000J0D01*
G01*
X3238100Y736600D02*
G75*
G02*
X3188100Y736600I-25000J0D01*
G01*
X3188100Y736600D02*
G75*
G02*
X3238100Y736600I25000J0D01*
G01*
X127000Y304000D02*
X127000Y204000D01*
X77000Y254000D02*
X177000Y254000D01*
X381000Y304000D02*
X381000Y204000D01*
X331000Y254000D02*
X431000Y254000D01*
X635000Y304000D02*
X635000Y204000D01*
X585000Y254000D02*
X685000Y254000D01*
X889000Y304000D02*
X889000Y204000D01*
X839000Y254000D02*
X939000Y254000D01*
X1143000Y304000D02*
X1143000Y204000D01*
X1093000Y254000D02*
X1193000Y254000D01*
X1397000Y304000D02*
X1397000Y204000D01*
X1347000Y254000D02*
X1447000Y254000D01*
X1651000Y304000D02*
X1651000Y204000D01*
X1601000Y254000D02*
X1701000Y254000D01*
X1905000Y304000D02*
X1905000Y204000D01*
X1855000Y254000D02*
X1955000Y254000D01*
X2159000Y304000D02*
X2159000Y204000D01*
X2109000Y254000D02*
X2209000Y254000D01*
X2413000Y304000D02*
X2413000Y204000D01*
X2363000Y254000D02*
X2463000Y254000D01*
X2667000Y304000D02*
X2667000Y204000D01*
X2617000Y254000D02*
X2717000Y254000D01*
X2921000Y304000D02*
X2921000Y204000D01*
X2871000Y254000D02*
X2971000Y254000D01*
X3175000Y304000D02*
X3175000Y204000D01*
X3125000Y254000D02*
X3225000Y254000D01*
D13*
X-165611Y3975611D02*
X-165611Y4152389D01*
X-342389Y4152389D01*
X-342389Y3975611D01*
X-165611Y3975611D01*
X-165611Y165611D02*
X-165611Y342389D01*
X-342389Y342389D01*
X-342389Y165611D01*
X-165611Y165611D01*
X3644389Y3975611D02*
X3644389Y4152389D01*
X3467611Y4152389D01*
X3467611Y3975611D01*
X3644389Y3975611D01*
X3644389Y165611D02*
X3644389Y342389D01*
X3467611Y342389D01*
X3467611Y165611D01*
X3644389Y165611D01*
D11*
X-249723Y-313984D02*
X-249723Y-113984D01*
X-249723Y-113984D02*
X-202104Y-113984D01*
X-202104Y-113984D02*
X-173533Y-123508D01*
X-173533Y-123508D02*
X-154485Y-142555D01*
X-154485Y-142555D02*
X-144961Y-161603D01*
X-144961Y-161603D02*
X-135437Y-199698D01*
X-135437Y-199698D02*
X-135437Y-228269D01*
X-135437Y-228269D02*
X-144961Y-266365D01*
X-144961Y-266365D02*
X-154485Y-285412D01*
X-154485Y-285412D02*
X-173533Y-304460D01*
X-173533Y-304460D02*
X-202104Y-313984D01*
X-202104Y-313984D02*
X-249723Y-313984D01*
X-49723Y-313984D02*
X-49723Y-180650D01*
X-49723Y-218746D02*
X-40199Y-199698D01*
X-40199Y-199698D02*
X-30675Y-190174D01*
X-30675Y-190174D02*
X-11628Y-180650D01*
X-11628Y-180650D02*
X7420Y-180650D01*
X74086Y-313984D02*
X74086Y-180650D01*
X74086Y-113984D02*
X64562Y-123508D01*
X64562Y-123508D02*
X74086Y-133031D01*
X74086Y-133031D02*
X83610Y-123508D01*
X83610Y-123508D02*
X74086Y-113984D01*
X74086Y-113984D02*
X74086Y-133031D01*
X197896Y-313984D02*
X178848Y-304460D01*
X178848Y-304460D02*
X169324Y-285412D01*
X169324Y-285412D02*
X169324Y-113984D01*
X302658Y-313984D02*
X283610Y-304460D01*
X283610Y-304460D02*
X274086Y-285412D01*
X274086Y-285412D02*
X274086Y-113984D01*
X531229Y-313984D02*
X531229Y-113984D01*
X531229Y-113984D02*
X597896Y-256841D01*
X597896Y-256841D02*
X664563Y-113984D01*
X664563Y-113984D02*
X664563Y-313984D01*
X845515Y-313984D02*
X845515Y-209222D01*
X845515Y-209222D02*
X835991Y-190174D01*
X835991Y-190174D02*
X816943Y-180650D01*
X816943Y-180650D02*
X778848Y-180650D01*
X778848Y-180650D02*
X759801Y-190174D01*
X845515Y-304460D02*
X826467Y-313984D01*
X826467Y-313984D02*
X778848Y-313984D01*
X778848Y-313984D02*
X759801Y-304460D01*
X759801Y-304460D02*
X750277Y-285412D01*
X750277Y-285412D02*
X750277Y-266365D01*
X750277Y-266365D02*
X759801Y-247317D01*
X759801Y-247317D02*
X778848Y-237793D01*
X778848Y-237793D02*
X826467Y-237793D01*
X826467Y-237793D02*
X845515Y-228269D01*
X940753Y-180650D02*
X940753Y-380650D01*
X940753Y-190174D02*
X959801Y-180650D01*
X959801Y-180650D02*
X997896Y-180650D01*
X997896Y-180650D02*
X1016943Y-190174D01*
X1016943Y-190174D02*
X1026467Y-199698D01*
X1026467Y-199698D02*
X1035991Y-218746D01*
X1035991Y-218746D02*
X1035991Y-275889D01*
X1035991Y-275889D02*
X1026467Y-294936D01*
X1026467Y-294936D02*
X1016943Y-304460D01*
X1016943Y-304460D02*
X997896Y-313984D01*
X997896Y-313984D02*
X959801Y-313984D01*
X959801Y-313984D02*
X940753Y-304460D01*
X1121705Y-294936D02*
X1131229Y-304460D01*
X1131229Y-304460D02*
X1121705Y-313984D01*
X1121705Y-313984D02*
X1112182Y-304460D01*
X1112182Y-304460D02*
X1121705Y-294936D01*
X1121705Y-294936D02*
X1121705Y-313984D01*
X1121705Y-190174D02*
X1131229Y-199698D01*
X1131229Y-199698D02*
X1121705Y-209222D01*
X1121705Y-209222D02*
X1112182Y-199698D01*
X1112182Y-199698D02*
X1121705Y-190174D01*
X1121705Y-190174D02*
X1121705Y-209222D01*
D12*
X-549870Y-622815D02*
X-510500Y-662185D01*
X-510500Y-622815D02*
X-549870Y-662185D01*
D11*
X-211628Y-533984D02*
X-192580Y-533984D01*
X-192580Y-533984D02*
X-173533Y-543508D01*
X-173533Y-543508D02*
X-164009Y-553031D01*
X-164009Y-553031D02*
X-154485Y-572079D01*
X-154485Y-572079D02*
X-144961Y-610174D01*
X-144961Y-610174D02*
X-144961Y-657793D01*
X-144961Y-657793D02*
X-154485Y-695889D01*
X-154485Y-695889D02*
X-164009Y-714936D01*
X-164009Y-714936D02*
X-173533Y-724460D01*
X-173533Y-724460D02*
X-192580Y-733984D01*
X-192580Y-733984D02*
X-211628Y-733984D01*
X-211628Y-733984D02*
X-230675Y-724460D01*
X-230675Y-724460D02*
X-240199Y-714936D01*
X-240199Y-714936D02*
X-249723Y-695889D01*
X-249723Y-695889D02*
X-259247Y-657793D01*
X-259247Y-657793D02*
X-259247Y-610174D01*
X-259247Y-610174D02*
X-249723Y-572079D01*
X-249723Y-572079D02*
X-240199Y-553031D01*
X-240199Y-553031D02*
X-230675Y-543508D01*
X-230675Y-543508D02*
X-211628Y-533984D01*
X-59247Y-714936D02*
X-49723Y-724460D01*
X-49723Y-724460D02*
X-59247Y-733984D01*
X-59247Y-733984D02*
X-68771Y-724460D01*
X-68771Y-724460D02*
X-59247Y-714936D01*
X-59247Y-714936D02*
X-59247Y-733984D01*
X16944Y-533984D02*
X140753Y-533984D01*
X140753Y-533984D02*
X74086Y-610174D01*
X74086Y-610174D02*
X102658Y-610174D01*
X102658Y-610174D02*
X121705Y-619698D01*
X121705Y-619698D02*
X131229Y-629222D01*
X131229Y-629222D02*
X140753Y-648270D01*
X140753Y-648270D02*
X140753Y-695889D01*
X140753Y-695889D02*
X131229Y-714936D01*
X131229Y-714936D02*
X121705Y-724460D01*
X121705Y-724460D02*
X102658Y-733984D01*
X102658Y-733984D02*
X45515Y-733984D01*
X45515Y-733984D02*
X26467Y-724460D01*
X26467Y-724460D02*
X16944Y-714936D01*
X235991Y-733984D02*
X274086Y-733984D01*
X274086Y-733984D02*
X293134Y-724460D01*
X293134Y-724460D02*
X302658Y-714936D01*
X302658Y-714936D02*
X321705Y-686365D01*
X321705Y-686365D02*
X331229Y-648270D01*
X331229Y-648270D02*
X331229Y-572079D01*
X331229Y-572079D02*
X321705Y-553031D01*
X321705Y-553031D02*
X312182Y-543508D01*
X312182Y-543508D02*
X293134Y-533984D01*
X293134Y-533984D02*
X255039Y-533984D01*
X255039Y-533984D02*
X235991Y-543508D01*
X235991Y-543508D02*
X226467Y-553031D01*
X226467Y-553031D02*
X216943Y-572079D01*
X216943Y-572079D02*
X216943Y-619698D01*
X216943Y-619698D02*
X226467Y-638746D01*
X226467Y-638746D02*
X235991Y-648270D01*
X235991Y-648270D02*
X255039Y-657793D01*
X255039Y-657793D02*
X293134Y-657793D01*
X293134Y-657793D02*
X312182Y-648270D01*
X312182Y-648270D02*
X321705Y-638746D01*
X321705Y-638746D02*
X331229Y-619698D01*
X502658Y-600650D02*
X502658Y-733984D01*
X455039Y-524460D02*
X407420Y-667317D01*
X407420Y-667317D02*
X531229Y-667317D01*
X607420Y-733984D02*
X607420Y-600650D01*
X607420Y-619698D02*
X616944Y-610174D01*
X616944Y-610174D02*
X635991Y-600650D01*
X635991Y-600650D02*
X664563Y-600650D01*
X664563Y-600650D02*
X683610Y-610174D01*
X683610Y-610174D02*
X693134Y-629222D01*
X693134Y-629222D02*
X693134Y-733984D01*
X693134Y-629222D02*
X702658Y-610174D01*
X702658Y-610174D02*
X721705Y-600650D01*
X721705Y-600650D02*
X750277Y-600650D01*
X750277Y-600650D02*
X769324Y-610174D01*
X769324Y-610174D02*
X778848Y-629222D01*
X778848Y-629222D02*
X778848Y-733984D01*
X874086Y-733984D02*
X874086Y-600650D01*
X874086Y-619698D02*
X883610Y-610174D01*
X883610Y-610174D02*
X902658Y-600650D01*
X902658Y-600650D02*
X931229Y-600650D01*
X931229Y-600650D02*
X950277Y-610174D01*
X950277Y-610174D02*
X959801Y-629222D01*
X959801Y-629222D02*
X959801Y-733984D01*
X959801Y-629222D02*
X969324Y-610174D01*
X969324Y-610174D02*
X988372Y-600650D01*
X988372Y-600650D02*
X1016943Y-600650D01*
X1016943Y-600650D02*
X1035991Y-610174D01*
X1035991Y-610174D02*
X1045515Y-629222D01*
X1045515Y-629222D02*
X1045515Y-733984D01*
X1435991Y-524460D02*
X1264563Y-781603D01*
X1693134Y-533984D02*
X1712182Y-533984D01*
X1712182Y-533984D02*
X1731229Y-543508D01*
X1731229Y-543508D02*
X1740753Y-553031D01*
X1740753Y-553031D02*
X1750277Y-572079D01*
X1750277Y-572079D02*
X1759801Y-610174D01*
X1759801Y-610174D02*
X1759801Y-657793D01*
X1759801Y-657793D02*
X1750277Y-695889D01*
X1750277Y-695889D02*
X1740753Y-714936D01*
X1740753Y-714936D02*
X1731229Y-724460D01*
X1731229Y-724460D02*
X1712182Y-733984D01*
X1712182Y-733984D02*
X1693134Y-733984D01*
X1693134Y-733984D02*
X1674086Y-724460D01*
X1674086Y-724460D02*
X1664563Y-714936D01*
X1664563Y-714936D02*
X1655039Y-695889D01*
X1655039Y-695889D02*
X1645515Y-657793D01*
X1645515Y-657793D02*
X1645515Y-610174D01*
X1645515Y-610174D02*
X1655039Y-572079D01*
X1655039Y-572079D02*
X1664563Y-553031D01*
X1664563Y-553031D02*
X1674086Y-543508D01*
X1674086Y-543508D02*
X1693134Y-533984D01*
X1845515Y-714936D02*
X1855039Y-724460D01*
X1855039Y-724460D02*
X1845515Y-733984D01*
X1845515Y-733984D02*
X1835991Y-724460D01*
X1835991Y-724460D02*
X1845515Y-714936D01*
X1845515Y-714936D02*
X1845515Y-733984D01*
X1978848Y-533984D02*
X1997896Y-533984D01*
X1997896Y-533984D02*
X2016944Y-543508D01*
X2016944Y-543508D02*
X2026467Y-553031D01*
X2026467Y-553031D02*
X2035991Y-572079D01*
X2035991Y-572079D02*
X2045515Y-610174D01*
X2045515Y-610174D02*
X2045515Y-657793D01*
X2045515Y-657793D02*
X2035991Y-695889D01*
X2035991Y-695889D02*
X2026467Y-714936D01*
X2026467Y-714936D02*
X2016944Y-724460D01*
X2016944Y-724460D02*
X1997896Y-733984D01*
X1997896Y-733984D02*
X1978848Y-733984D01*
X1978848Y-733984D02*
X1959801Y-724460D01*
X1959801Y-724460D02*
X1950277Y-714936D01*
X1950277Y-714936D02*
X1940753Y-695889D01*
X1940753Y-695889D02*
X1931229Y-657793D01*
X1931229Y-657793D02*
X1931229Y-610174D01*
X1931229Y-610174D02*
X1940753Y-572079D01*
X1940753Y-572079D02*
X1950277Y-553031D01*
X1950277Y-553031D02*
X1959801Y-543508D01*
X1959801Y-543508D02*
X1978848Y-533984D01*
X2235991Y-733984D02*
X2121706Y-733984D01*
X2178848Y-733984D02*
X2178848Y-533984D01*
X2178848Y-533984D02*
X2159801Y-562555D01*
X2159801Y-562555D02*
X2140753Y-581603D01*
X2140753Y-581603D02*
X2121706Y-591127D01*
X2416944Y-533984D02*
X2321706Y-533984D01*
X2321706Y-533984D02*
X2312182Y-629222D01*
X2312182Y-629222D02*
X2321706Y-619698D01*
X2321706Y-619698D02*
X2340753Y-610174D01*
X2340753Y-610174D02*
X2388372Y-610174D01*
X2388372Y-610174D02*
X2407420Y-619698D01*
X2407420Y-619698D02*
X2416944Y-629222D01*
X2416944Y-629222D02*
X2426468Y-648270D01*
X2426468Y-648270D02*
X2426468Y-695889D01*
X2426468Y-695889D02*
X2416944Y-714936D01*
X2416944Y-714936D02*
X2407420Y-724460D01*
X2407420Y-724460D02*
X2388372Y-733984D01*
X2388372Y-733984D02*
X2340753Y-733984D01*
X2340753Y-733984D02*
X2321706Y-724460D01*
X2321706Y-724460D02*
X2312182Y-714936D01*
X2607420Y-533984D02*
X2512182Y-533984D01*
X2512182Y-533984D02*
X2502658Y-629222D01*
X2502658Y-629222D02*
X2512182Y-619698D01*
X2512182Y-619698D02*
X2531229Y-610174D01*
X2531229Y-610174D02*
X2578849Y-610174D01*
X2578849Y-610174D02*
X2597896Y-619698D01*
X2597896Y-619698D02*
X2607420Y-629222D01*
X2607420Y-629222D02*
X2616944Y-648270D01*
X2616944Y-648270D02*
X2616944Y-695889D01*
X2616944Y-695889D02*
X2607420Y-714936D01*
X2607420Y-714936D02*
X2597896Y-724460D01*
X2597896Y-724460D02*
X2578849Y-733984D01*
X2578849Y-733984D02*
X2531229Y-733984D01*
X2531229Y-733984D02*
X2512182Y-724460D01*
X2512182Y-724460D02*
X2502658Y-714936D01*
X2693134Y-533984D02*
X2693134Y-572079D01*
X2769325Y-533984D02*
X2769325Y-572079D01*
X3064563Y-810174D02*
X3055039Y-800650D01*
X3055039Y-800650D02*
X3035991Y-772079D01*
X3035991Y-772079D02*
X3026468Y-753031D01*
X3026468Y-753031D02*
X3016944Y-724460D01*
X3016944Y-724460D02*
X3007420Y-676841D01*
X3007420Y-676841D02*
X3007420Y-638746D01*
X3007420Y-638746D02*
X3016944Y-591127D01*
X3016944Y-591127D02*
X3026468Y-562555D01*
X3026468Y-562555D02*
X3035991Y-543508D01*
X3035991Y-543508D02*
X3055039Y-514936D01*
X3055039Y-514936D02*
X3064563Y-505412D01*
X3245515Y-733984D02*
X3131229Y-733984D01*
X3188372Y-733984D02*
X3188372Y-533984D01*
X3188372Y-533984D02*
X3169325Y-562555D01*
X3169325Y-562555D02*
X3150277Y-581603D01*
X3150277Y-581603D02*
X3131229Y-591127D01*
X3312182Y-533984D02*
X3435991Y-533984D01*
X3435991Y-533984D02*
X3369325Y-610174D01*
X3369325Y-610174D02*
X3397896Y-610174D01*
X3397896Y-610174D02*
X3416944Y-619698D01*
X3416944Y-619698D02*
X3426468Y-629222D01*
X3426468Y-629222D02*
X3435991Y-648270D01*
X3435991Y-648270D02*
X3435991Y-695889D01*
X3435991Y-695889D02*
X3426468Y-714936D01*
X3426468Y-714936D02*
X3416944Y-724460D01*
X3416944Y-724460D02*
X3397896Y-733984D01*
X3397896Y-733984D02*
X3340753Y-733984D01*
X3340753Y-733984D02*
X3321706Y-724460D01*
X3321706Y-724460D02*
X3312182Y-714936D01*
X3674087Y-733984D02*
X3674087Y-533984D01*
X3759801Y-733984D02*
X3759801Y-629222D01*
X3759801Y-629222D02*
X3750277Y-610174D01*
X3750277Y-610174D02*
X3731230Y-600650D01*
X3731230Y-600650D02*
X3702658Y-600650D01*
X3702658Y-600650D02*
X3683610Y-610174D01*
X3683610Y-610174D02*
X3674087Y-619698D01*
X3883610Y-733984D02*
X3864563Y-724460D01*
X3864563Y-724460D02*
X3855039Y-714936D01*
X3855039Y-714936D02*
X3845515Y-695889D01*
X3845515Y-695889D02*
X3845515Y-638746D01*
X3845515Y-638746D02*
X3855039Y-619698D01*
X3855039Y-619698D02*
X3864563Y-610174D01*
X3864563Y-610174D02*
X3883610Y-600650D01*
X3883610Y-600650D02*
X3912182Y-600650D01*
X3912182Y-600650D02*
X3931230Y-610174D01*
X3931230Y-610174D02*
X3940753Y-619698D01*
X3940753Y-619698D02*
X3950277Y-638746D01*
X3950277Y-638746D02*
X3950277Y-695889D01*
X3950277Y-695889D02*
X3940753Y-714936D01*
X3940753Y-714936D02*
X3931230Y-724460D01*
X3931230Y-724460D02*
X3912182Y-733984D01*
X3912182Y-733984D02*
X3883610Y-733984D01*
X4064563Y-733984D02*
X4045515Y-724460D01*
X4045515Y-724460D02*
X4035991Y-705412D01*
X4035991Y-705412D02*
X4035991Y-533984D01*
X4216944Y-724460D02*
X4197896Y-733984D01*
X4197896Y-733984D02*
X4159801Y-733984D01*
X4159801Y-733984D02*
X4140753Y-724460D01*
X4140753Y-724460D02*
X4131230Y-705412D01*
X4131230Y-705412D02*
X4131230Y-629222D01*
X4131230Y-629222D02*
X4140753Y-610174D01*
X4140753Y-610174D02*
X4159801Y-600650D01*
X4159801Y-600650D02*
X4197896Y-600650D01*
X4197896Y-600650D02*
X4216944Y-610174D01*
X4216944Y-610174D02*
X4226468Y-629222D01*
X4226468Y-629222D02*
X4226468Y-648270D01*
X4226468Y-648270D02*
X4131230Y-667317D01*
X4302658Y-724460D02*
X4321706Y-733984D01*
X4321706Y-733984D02*
X4359801Y-733984D01*
X4359801Y-733984D02*
X4378849Y-724460D01*
X4378849Y-724460D02*
X4388373Y-705412D01*
X4388373Y-705412D02*
X4388373Y-695889D01*
X4388373Y-695889D02*
X4378849Y-676841D01*
X4378849Y-676841D02*
X4359801Y-667317D01*
X4359801Y-667317D02*
X4331230Y-667317D01*
X4331230Y-667317D02*
X4312182Y-657793D01*
X4312182Y-657793D02*
X4302658Y-638746D01*
X4302658Y-638746D02*
X4302658Y-629222D01*
X4302658Y-629222D02*
X4312182Y-610174D01*
X4312182Y-610174D02*
X4331230Y-600650D01*
X4331230Y-600650D02*
X4359801Y-600650D01*
X4359801Y-600650D02*
X4378849Y-610174D01*
X4455039Y-810174D02*
X4464563Y-800650D01*
X4464563Y-800650D02*
X4483611Y-772079D01*
X4483611Y-772079D02*
X4493134Y-753031D01*
X4493134Y-753031D02*
X4502658Y-724460D01*
X4502658Y-724460D02*
X4512182Y-676841D01*
X4512182Y-676841D02*
X4512182Y-638746D01*
X4512182Y-638746D02*
X4502658Y-591127D01*
X4502658Y-591127D02*
X4493134Y-562555D01*
X4493134Y-562555D02*
X4483611Y-543508D01*
X4483611Y-543508D02*
X4464563Y-514936D01*
X4464563Y-514936D02*
X4455039Y-505412D01*
D12*
X-510500Y-906500D02*
G75*
G02*
X-560500Y-906500I-25000J0D01*
G01*
X-560500Y-906500D02*
G75*
G02*
X-510500Y-906500I25000J0D01*
G01*
D11*
X-211628Y-797984D02*
X-192580Y-797984D01*
X-192580Y-797984D02*
X-173533Y-807508D01*
X-173533Y-807508D02*
X-164009Y-817031D01*
X-164009Y-817031D02*
X-154485Y-836079D01*
X-154485Y-836079D02*
X-144961Y-874174D01*
X-144961Y-874174D02*
X-144961Y-921793D01*
X-144961Y-921793D02*
X-154485Y-959888D01*
X-154485Y-959888D02*
X-164009Y-978936D01*
X-164009Y-978936D02*
X-173533Y-988460D01*
X-173533Y-988460D02*
X-192580Y-997984D01*
X-192580Y-997984D02*
X-211628Y-997984D01*
X-211628Y-997984D02*
X-230675Y-988460D01*
X-230675Y-988460D02*
X-240199Y-978936D01*
X-240199Y-978936D02*
X-249723Y-959888D01*
X-249723Y-959888D02*
X-259247Y-921793D01*
X-259247Y-921793D02*
X-259247Y-874174D01*
X-259247Y-874174D02*
X-249723Y-836079D01*
X-249723Y-836079D02*
X-240199Y-817031D01*
X-240199Y-817031D02*
X-230675Y-807508D01*
X-230675Y-807508D02*
X-211628Y-797984D01*
X-59247Y-978936D02*
X-49723Y-988460D01*
X-49723Y-988460D02*
X-59247Y-997984D01*
X-59247Y-997984D02*
X-68771Y-988460D01*
X-68771Y-988460D02*
X-59247Y-978936D01*
X-59247Y-978936D02*
X-59247Y-997984D01*
X131229Y-797984D02*
X35991Y-797984D01*
X35991Y-797984D02*
X26467Y-893222D01*
X26467Y-893222D02*
X35991Y-883698D01*
X35991Y-883698D02*
X55039Y-874174D01*
X55039Y-874174D02*
X102658Y-874174D01*
X102658Y-874174D02*
X121705Y-883698D01*
X121705Y-883698D02*
X131229Y-893222D01*
X131229Y-893222D02*
X140753Y-912269D01*
X140753Y-912269D02*
X140753Y-959888D01*
X140753Y-959888D02*
X131229Y-978936D01*
X131229Y-978936D02*
X121705Y-988460D01*
X121705Y-988460D02*
X102658Y-997984D01*
X102658Y-997984D02*
X55039Y-997984D01*
X55039Y-997984D02*
X35991Y-988460D01*
X35991Y-988460D02*
X26467Y-978936D01*
X264563Y-797984D02*
X283610Y-797984D01*
X283610Y-797984D02*
X302658Y-807508D01*
X302658Y-807508D02*
X312182Y-817031D01*
X312182Y-817031D02*
X321705Y-836079D01*
X321705Y-836079D02*
X331229Y-874174D01*
X331229Y-874174D02*
X331229Y-921793D01*
X331229Y-921793D02*
X321705Y-959888D01*
X321705Y-959888D02*
X312182Y-978936D01*
X312182Y-978936D02*
X302658Y-988460D01*
X302658Y-988460D02*
X283610Y-997984D01*
X283610Y-997984D02*
X264563Y-997984D01*
X264563Y-997984D02*
X245515Y-988460D01*
X245515Y-988460D02*
X235991Y-978936D01*
X235991Y-978936D02*
X226467Y-959888D01*
X226467Y-959888D02*
X216943Y-921793D01*
X216943Y-921793D02*
X216943Y-874174D01*
X216943Y-874174D02*
X226467Y-836079D01*
X226467Y-836079D02*
X235991Y-817031D01*
X235991Y-817031D02*
X245515Y-807508D01*
X245515Y-807508D02*
X264563Y-797984D01*
X455039Y-797984D02*
X474086Y-797984D01*
X474086Y-797984D02*
X493134Y-807508D01*
X493134Y-807508D02*
X502658Y-817031D01*
X502658Y-817031D02*
X512182Y-836079D01*
X512182Y-836079D02*
X521705Y-874174D01*
X521705Y-874174D02*
X521705Y-921793D01*
X521705Y-921793D02*
X512182Y-959888D01*
X512182Y-959888D02*
X502658Y-978936D01*
X502658Y-978936D02*
X493134Y-988460D01*
X493134Y-988460D02*
X474086Y-997984D01*
X474086Y-997984D02*
X455039Y-997984D01*
X455039Y-997984D02*
X435991Y-988460D01*
X435991Y-988460D02*
X426467Y-978936D01*
X426467Y-978936D02*
X416943Y-959888D01*
X416943Y-959888D02*
X407420Y-921793D01*
X407420Y-921793D02*
X407420Y-874174D01*
X407420Y-874174D02*
X416943Y-836079D01*
X416943Y-836079D02*
X426467Y-817031D01*
X426467Y-817031D02*
X435991Y-807508D01*
X435991Y-807508D02*
X455039Y-797984D01*
X607420Y-997984D02*
X607420Y-864650D01*
X607420Y-883698D02*
X616944Y-874174D01*
X616944Y-874174D02*
X635991Y-864650D01*
X635991Y-864650D02*
X664563Y-864650D01*
X664563Y-864650D02*
X683610Y-874174D01*
X683610Y-874174D02*
X693134Y-893222D01*
X693134Y-893222D02*
X693134Y-997984D01*
X693134Y-893222D02*
X702658Y-874174D01*
X702658Y-874174D02*
X721705Y-864650D01*
X721705Y-864650D02*
X750277Y-864650D01*
X750277Y-864650D02*
X769324Y-874174D01*
X769324Y-874174D02*
X778848Y-893222D01*
X778848Y-893222D02*
X778848Y-997984D01*
X874086Y-997984D02*
X874086Y-864650D01*
X874086Y-883698D02*
X883610Y-874174D01*
X883610Y-874174D02*
X902658Y-864650D01*
X902658Y-864650D02*
X931229Y-864650D01*
X931229Y-864650D02*
X950277Y-874174D01*
X950277Y-874174D02*
X959801Y-893222D01*
X959801Y-893222D02*
X959801Y-997984D01*
X959801Y-893222D02*
X969324Y-874174D01*
X969324Y-874174D02*
X988372Y-864650D01*
X988372Y-864650D02*
X1016943Y-864650D01*
X1016943Y-864650D02*
X1035991Y-874174D01*
X1035991Y-874174D02*
X1045515Y-893222D01*
X1045515Y-893222D02*
X1045515Y-997984D01*
X1435991Y-788460D02*
X1264563Y-1045603D01*
X1693134Y-797984D02*
X1712182Y-797984D01*
X1712182Y-797984D02*
X1731229Y-807508D01*
X1731229Y-807508D02*
X1740753Y-817031D01*
X1740753Y-817031D02*
X1750277Y-836079D01*
X1750277Y-836079D02*
X1759801Y-874174D01*
X1759801Y-874174D02*
X1759801Y-921793D01*
X1759801Y-921793D02*
X1750277Y-959888D01*
X1750277Y-959888D02*
X1740753Y-978936D01*
X1740753Y-978936D02*
X1731229Y-988460D01*
X1731229Y-988460D02*
X1712182Y-997984D01*
X1712182Y-997984D02*
X1693134Y-997984D01*
X1693134Y-997984D02*
X1674086Y-988460D01*
X1674086Y-988460D02*
X1664563Y-978936D01*
X1664563Y-978936D02*
X1655039Y-959888D01*
X1655039Y-959888D02*
X1645515Y-921793D01*
X1645515Y-921793D02*
X1645515Y-874174D01*
X1645515Y-874174D02*
X1655039Y-836079D01*
X1655039Y-836079D02*
X1664563Y-817031D01*
X1664563Y-817031D02*
X1674086Y-807508D01*
X1674086Y-807508D02*
X1693134Y-797984D01*
X1845515Y-978936D02*
X1855039Y-988460D01*
X1855039Y-988460D02*
X1845515Y-997984D01*
X1845515Y-997984D02*
X1835991Y-988460D01*
X1835991Y-988460D02*
X1845515Y-978936D01*
X1845515Y-978936D02*
X1845515Y-997984D01*
X1978848Y-797984D02*
X1997896Y-797984D01*
X1997896Y-797984D02*
X2016944Y-807508D01*
X2016944Y-807508D02*
X2026467Y-817031D01*
X2026467Y-817031D02*
X2035991Y-836079D01*
X2035991Y-836079D02*
X2045515Y-874174D01*
X2045515Y-874174D02*
X2045515Y-921793D01*
X2045515Y-921793D02*
X2035991Y-959888D01*
X2035991Y-959888D02*
X2026467Y-978936D01*
X2026467Y-978936D02*
X2016944Y-988460D01*
X2016944Y-988460D02*
X1997896Y-997984D01*
X1997896Y-997984D02*
X1978848Y-997984D01*
X1978848Y-997984D02*
X1959801Y-988460D01*
X1959801Y-988460D02*
X1950277Y-978936D01*
X1950277Y-978936D02*
X1940753Y-959888D01*
X1940753Y-959888D02*
X1931229Y-921793D01*
X1931229Y-921793D02*
X1931229Y-874174D01*
X1931229Y-874174D02*
X1940753Y-836079D01*
X1940753Y-836079D02*
X1950277Y-817031D01*
X1950277Y-817031D02*
X1959801Y-807508D01*
X1959801Y-807508D02*
X1978848Y-797984D01*
X2235991Y-997984D02*
X2121706Y-997984D01*
X2178848Y-997984D02*
X2178848Y-797984D01*
X2178848Y-797984D02*
X2159801Y-826555D01*
X2159801Y-826555D02*
X2140753Y-845603D01*
X2140753Y-845603D02*
X2121706Y-855127D01*
X2331229Y-997984D02*
X2369325Y-997984D01*
X2369325Y-997984D02*
X2388372Y-988460D01*
X2388372Y-988460D02*
X2397896Y-978936D01*
X2397896Y-978936D02*
X2416944Y-950365D01*
X2416944Y-950365D02*
X2426468Y-912269D01*
X2426468Y-912269D02*
X2426468Y-836079D01*
X2426468Y-836079D02*
X2416944Y-817031D01*
X2416944Y-817031D02*
X2407420Y-807508D01*
X2407420Y-807508D02*
X2388372Y-797984D01*
X2388372Y-797984D02*
X2350277Y-797984D01*
X2350277Y-797984D02*
X2331229Y-807508D01*
X2331229Y-807508D02*
X2321706Y-817031D01*
X2321706Y-817031D02*
X2312182Y-836079D01*
X2312182Y-836079D02*
X2312182Y-883698D01*
X2312182Y-883698D02*
X2321706Y-902746D01*
X2321706Y-902746D02*
X2331229Y-912269D01*
X2331229Y-912269D02*
X2350277Y-921793D01*
X2350277Y-921793D02*
X2388372Y-921793D01*
X2388372Y-921793D02*
X2407420Y-912269D01*
X2407420Y-912269D02*
X2416944Y-902746D01*
X2416944Y-902746D02*
X2426468Y-883698D01*
X2493134Y-797984D02*
X2626468Y-797984D01*
X2626468Y-797984D02*
X2540753Y-997984D01*
X2693134Y-797984D02*
X2693134Y-836079D01*
X2769325Y-797984D02*
X2769325Y-836079D01*
X3064563Y-1074174D02*
X3055039Y-1064650D01*
X3055039Y-1064650D02*
X3035991Y-1036079D01*
X3035991Y-1036079D02*
X3026468Y-1017031D01*
X3026468Y-1017031D02*
X3016944Y-988460D01*
X3016944Y-988460D02*
X3007420Y-940841D01*
X3007420Y-940841D02*
X3007420Y-902746D01*
X3007420Y-902746D02*
X3016944Y-855127D01*
X3016944Y-855127D02*
X3026468Y-826555D01*
X3026468Y-826555D02*
X3035991Y-807508D01*
X3035991Y-807508D02*
X3055039Y-778936D01*
X3055039Y-778936D02*
X3064563Y-769412D01*
X3226468Y-797984D02*
X3188372Y-797984D01*
X3188372Y-797984D02*
X3169325Y-807508D01*
X3169325Y-807508D02*
X3159801Y-817031D01*
X3159801Y-817031D02*
X3140753Y-845603D01*
X3140753Y-845603D02*
X3131229Y-883698D01*
X3131229Y-883698D02*
X3131229Y-959888D01*
X3131229Y-959888D02*
X3140753Y-978936D01*
X3140753Y-978936D02*
X3150277Y-988460D01*
X3150277Y-988460D02*
X3169325Y-997984D01*
X3169325Y-997984D02*
X3207420Y-997984D01*
X3207420Y-997984D02*
X3226468Y-988460D01*
X3226468Y-988460D02*
X3235991Y-978936D01*
X3235991Y-978936D02*
X3245515Y-959888D01*
X3245515Y-959888D02*
X3245515Y-912269D01*
X3245515Y-912269D02*
X3235991Y-893222D01*
X3235991Y-893222D02*
X3226468Y-883698D01*
X3226468Y-883698D02*
X3207420Y-874174D01*
X3207420Y-874174D02*
X3169325Y-874174D01*
X3169325Y-874174D02*
X3150277Y-883698D01*
X3150277Y-883698D02*
X3140753Y-893222D01*
X3140753Y-893222D02*
X3131229Y-912269D01*
X3369325Y-797984D02*
X3388372Y-797984D01*
X3388372Y-797984D02*
X3407420Y-807508D01*
X3407420Y-807508D02*
X3416944Y-817031D01*
X3416944Y-817031D02*
X3426468Y-836079D01*
X3426468Y-836079D02*
X3435991Y-874174D01*
X3435991Y-874174D02*
X3435991Y-921793D01*
X3435991Y-921793D02*
X3426468Y-959888D01*
X3426468Y-959888D02*
X3416944Y-978936D01*
X3416944Y-978936D02*
X3407420Y-988460D01*
X3407420Y-988460D02*
X3388372Y-997984D01*
X3388372Y-997984D02*
X3369325Y-997984D01*
X3369325Y-997984D02*
X3350277Y-988460D01*
X3350277Y-988460D02*
X3340753Y-978936D01*
X3340753Y-978936D02*
X3331229Y-959888D01*
X3331229Y-959888D02*
X3321706Y-921793D01*
X3321706Y-921793D02*
X3321706Y-874174D01*
X3321706Y-874174D02*
X3331229Y-836079D01*
X3331229Y-836079D02*
X3340753Y-817031D01*
X3340753Y-817031D02*
X3350277Y-807508D01*
X3350277Y-807508D02*
X3369325Y-797984D01*
X3674087Y-997984D02*
X3674087Y-797984D01*
X3759801Y-997984D02*
X3759801Y-893222D01*
X3759801Y-893222D02*
X3750277Y-874174D01*
X3750277Y-874174D02*
X3731230Y-864650D01*
X3731230Y-864650D02*
X3702658Y-864650D01*
X3702658Y-864650D02*
X3683610Y-874174D01*
X3683610Y-874174D02*
X3674087Y-883698D01*
X3883610Y-997984D02*
X3864563Y-988460D01*
X3864563Y-988460D02*
X3855039Y-978936D01*
X3855039Y-978936D02*
X3845515Y-959888D01*
X3845515Y-959888D02*
X3845515Y-902746D01*
X3845515Y-902746D02*
X3855039Y-883698D01*
X3855039Y-883698D02*
X3864563Y-874174D01*
X3864563Y-874174D02*
X3883610Y-864650D01*
X3883610Y-864650D02*
X3912182Y-864650D01*
X3912182Y-864650D02*
X3931230Y-874174D01*
X3931230Y-874174D02*
X3940753Y-883698D01*
X3940753Y-883698D02*
X3950277Y-902746D01*
X3950277Y-902746D02*
X3950277Y-959888D01*
X3950277Y-959888D02*
X3940753Y-978936D01*
X3940753Y-978936D02*
X3931230Y-988460D01*
X3931230Y-988460D02*
X3912182Y-997984D01*
X3912182Y-997984D02*
X3883610Y-997984D01*
X4064563Y-997984D02*
X4045515Y-988460D01*
X4045515Y-988460D02*
X4035991Y-969412D01*
X4035991Y-969412D02*
X4035991Y-797984D01*
X4216944Y-988460D02*
X4197896Y-997984D01*
X4197896Y-997984D02*
X4159801Y-997984D01*
X4159801Y-997984D02*
X4140753Y-988460D01*
X4140753Y-988460D02*
X4131230Y-969412D01*
X4131230Y-969412D02*
X4131230Y-893222D01*
X4131230Y-893222D02*
X4140753Y-874174D01*
X4140753Y-874174D02*
X4159801Y-864650D01*
X4159801Y-864650D02*
X4197896Y-864650D01*
X4197896Y-864650D02*
X4216944Y-874174D01*
X4216944Y-874174D02*
X4226468Y-893222D01*
X4226468Y-893222D02*
X4226468Y-912269D01*
X4226468Y-912269D02*
X4131230Y-931317D01*
X4302658Y-988460D02*
X4321706Y-997984D01*
X4321706Y-997984D02*
X4359801Y-997984D01*
X4359801Y-997984D02*
X4378849Y-988460D01*
X4378849Y-988460D02*
X4388373Y-969412D01*
X4388373Y-969412D02*
X4388373Y-959888D01*
X4388373Y-959888D02*
X4378849Y-940841D01*
X4378849Y-940841D02*
X4359801Y-931317D01*
X4359801Y-931317D02*
X4331230Y-931317D01*
X4331230Y-931317D02*
X4312182Y-921793D01*
X4312182Y-921793D02*
X4302658Y-902746D01*
X4302658Y-902746D02*
X4302658Y-893222D01*
X4302658Y-893222D02*
X4312182Y-874174D01*
X4312182Y-874174D02*
X4331230Y-864650D01*
X4331230Y-864650D02*
X4359801Y-864650D01*
X4359801Y-864650D02*
X4378849Y-874174D01*
X4455039Y-1074174D02*
X4464563Y-1064650D01*
X4464563Y-1064650D02*
X4483611Y-1036079D01*
X4483611Y-1036079D02*
X4493134Y-1017031D01*
X4493134Y-1017031D02*
X4502658Y-988460D01*
X4502658Y-988460D02*
X4512182Y-940841D01*
X4512182Y-940841D02*
X4512182Y-902746D01*
X4512182Y-902746D02*
X4502658Y-855127D01*
X4502658Y-855127D02*
X4493134Y-826555D01*
X4493134Y-826555D02*
X4483611Y-807508D01*
X4483611Y-807508D02*
X4464563Y-778936D01*
X4464563Y-778936D02*
X4455039Y-769412D01*
D12*
X-560500Y-1120500D02*
X-560500Y-1220500D01*
X-610500Y-1170500D02*
X-510500Y-1170500D01*
D11*
X-144961Y-1261984D02*
X-259247Y-1261984D01*
X-202104Y-1261984D02*
X-202104Y-1061984D01*
X-202104Y-1061984D02*
X-221152Y-1090555D01*
X-221152Y-1090555D02*
X-240199Y-1109603D01*
X-240199Y-1109603D02*
X-259247Y-1119127D01*
X-59247Y-1242936D02*
X-49723Y-1252460D01*
X-49723Y-1252460D02*
X-59247Y-1261984D01*
X-59247Y-1261984D02*
X-68771Y-1252460D01*
X-68771Y-1252460D02*
X-59247Y-1242936D01*
X-59247Y-1242936D02*
X-59247Y-1261984D01*
X74086Y-1061984D02*
X93134Y-1061984D01*
X93134Y-1061984D02*
X112182Y-1071508D01*
X112182Y-1071508D02*
X121705Y-1081031D01*
X121705Y-1081031D02*
X131229Y-1100079D01*
X131229Y-1100079D02*
X140753Y-1138174D01*
X140753Y-1138174D02*
X140753Y-1185793D01*
X140753Y-1185793D02*
X131229Y-1223889D01*
X131229Y-1223889D02*
X121705Y-1242936D01*
X121705Y-1242936D02*
X112182Y-1252460D01*
X112182Y-1252460D02*
X93134Y-1261984D01*
X93134Y-1261984D02*
X74086Y-1261984D01*
X74086Y-1261984D02*
X55039Y-1252460D01*
X55039Y-1252460D02*
X45515Y-1242936D01*
X45515Y-1242936D02*
X35991Y-1223889D01*
X35991Y-1223889D02*
X26467Y-1185793D01*
X26467Y-1185793D02*
X26467Y-1138174D01*
X26467Y-1138174D02*
X35991Y-1100079D01*
X35991Y-1100079D02*
X45515Y-1081031D01*
X45515Y-1081031D02*
X55039Y-1071508D01*
X55039Y-1071508D02*
X74086Y-1061984D01*
X264563Y-1061984D02*
X283610Y-1061984D01*
X283610Y-1061984D02*
X302658Y-1071508D01*
X302658Y-1071508D02*
X312182Y-1081031D01*
X312182Y-1081031D02*
X321705Y-1100079D01*
X321705Y-1100079D02*
X331229Y-1138174D01*
X331229Y-1138174D02*
X331229Y-1185793D01*
X331229Y-1185793D02*
X321705Y-1223889D01*
X321705Y-1223889D02*
X312182Y-1242936D01*
X312182Y-1242936D02*
X302658Y-1252460D01*
X302658Y-1252460D02*
X283610Y-1261984D01*
X283610Y-1261984D02*
X264563Y-1261984D01*
X264563Y-1261984D02*
X245515Y-1252460D01*
X245515Y-1252460D02*
X235991Y-1242936D01*
X235991Y-1242936D02*
X226467Y-1223889D01*
X226467Y-1223889D02*
X216943Y-1185793D01*
X216943Y-1185793D02*
X216943Y-1138174D01*
X216943Y-1138174D02*
X226467Y-1100079D01*
X226467Y-1100079D02*
X235991Y-1081031D01*
X235991Y-1081031D02*
X245515Y-1071508D01*
X245515Y-1071508D02*
X264563Y-1061984D01*
X455039Y-1061984D02*
X474086Y-1061984D01*
X474086Y-1061984D02*
X493134Y-1071508D01*
X493134Y-1071508D02*
X502658Y-1081031D01*
X502658Y-1081031D02*
X512182Y-1100079D01*
X512182Y-1100079D02*
X521705Y-1138174D01*
X521705Y-1138174D02*
X521705Y-1185793D01*
X521705Y-1185793D02*
X512182Y-1223889D01*
X512182Y-1223889D02*
X502658Y-1242936D01*
X502658Y-1242936D02*
X493134Y-1252460D01*
X493134Y-1252460D02*
X474086Y-1261984D01*
X474086Y-1261984D02*
X455039Y-1261984D01*
X455039Y-1261984D02*
X435991Y-1252460D01*
X435991Y-1252460D02*
X426467Y-1242936D01*
X426467Y-1242936D02*
X416943Y-1223889D01*
X416943Y-1223889D02*
X407420Y-1185793D01*
X407420Y-1185793D02*
X407420Y-1138174D01*
X407420Y-1138174D02*
X416943Y-1100079D01*
X416943Y-1100079D02*
X426467Y-1081031D01*
X426467Y-1081031D02*
X435991Y-1071508D01*
X435991Y-1071508D02*
X455039Y-1061984D01*
X607420Y-1261984D02*
X607420Y-1128650D01*
X607420Y-1147698D02*
X616944Y-1138174D01*
X616944Y-1138174D02*
X635991Y-1128650D01*
X635991Y-1128650D02*
X664563Y-1128650D01*
X664563Y-1128650D02*
X683610Y-1138174D01*
X683610Y-1138174D02*
X693134Y-1157222D01*
X693134Y-1157222D02*
X693134Y-1261984D01*
X693134Y-1157222D02*
X702658Y-1138174D01*
X702658Y-1138174D02*
X721705Y-1128650D01*
X721705Y-1128650D02*
X750277Y-1128650D01*
X750277Y-1128650D02*
X769324Y-1138174D01*
X769324Y-1138174D02*
X778848Y-1157222D01*
X778848Y-1157222D02*
X778848Y-1261984D01*
X874086Y-1261984D02*
X874086Y-1128650D01*
X874086Y-1147698D02*
X883610Y-1138174D01*
X883610Y-1138174D02*
X902658Y-1128650D01*
X902658Y-1128650D02*
X931229Y-1128650D01*
X931229Y-1128650D02*
X950277Y-1138174D01*
X950277Y-1138174D02*
X959801Y-1157222D01*
X959801Y-1157222D02*
X959801Y-1261984D01*
X959801Y-1157222D02*
X969324Y-1138174D01*
X969324Y-1138174D02*
X988372Y-1128650D01*
X988372Y-1128650D02*
X1016943Y-1128650D01*
X1016943Y-1128650D02*
X1035991Y-1138174D01*
X1035991Y-1138174D02*
X1045515Y-1157222D01*
X1045515Y-1157222D02*
X1045515Y-1261984D01*
X1435991Y-1052460D02*
X1264563Y-1309603D01*
X1693134Y-1061984D02*
X1712182Y-1061984D01*
X1712182Y-1061984D02*
X1731229Y-1071508D01*
X1731229Y-1071508D02*
X1740753Y-1081031D01*
X1740753Y-1081031D02*
X1750277Y-1100079D01*
X1750277Y-1100079D02*
X1759801Y-1138174D01*
X1759801Y-1138174D02*
X1759801Y-1185793D01*
X1759801Y-1185793D02*
X1750277Y-1223889D01*
X1750277Y-1223889D02*
X1740753Y-1242936D01*
X1740753Y-1242936D02*
X1731229Y-1252460D01*
X1731229Y-1252460D02*
X1712182Y-1261984D01*
X1712182Y-1261984D02*
X1693134Y-1261984D01*
X1693134Y-1261984D02*
X1674086Y-1252460D01*
X1674086Y-1252460D02*
X1664563Y-1242936D01*
X1664563Y-1242936D02*
X1655039Y-1223889D01*
X1655039Y-1223889D02*
X1645515Y-1185793D01*
X1645515Y-1185793D02*
X1645515Y-1138174D01*
X1645515Y-1138174D02*
X1655039Y-1100079D01*
X1655039Y-1100079D02*
X1664563Y-1081031D01*
X1664563Y-1081031D02*
X1674086Y-1071508D01*
X1674086Y-1071508D02*
X1693134Y-1061984D01*
X1845515Y-1242936D02*
X1855039Y-1252460D01*
X1855039Y-1252460D02*
X1845515Y-1261984D01*
X1845515Y-1261984D02*
X1835991Y-1252460D01*
X1835991Y-1252460D02*
X1845515Y-1242936D01*
X1845515Y-1242936D02*
X1845515Y-1261984D01*
X1978848Y-1061984D02*
X1997896Y-1061984D01*
X1997896Y-1061984D02*
X2016944Y-1071508D01*
X2016944Y-1071508D02*
X2026467Y-1081031D01*
X2026467Y-1081031D02*
X2035991Y-1100079D01*
X2035991Y-1100079D02*
X2045515Y-1138174D01*
X2045515Y-1138174D02*
X2045515Y-1185793D01*
X2045515Y-1185793D02*
X2035991Y-1223889D01*
X2035991Y-1223889D02*
X2026467Y-1242936D01*
X2026467Y-1242936D02*
X2016944Y-1252460D01*
X2016944Y-1252460D02*
X1997896Y-1261984D01*
X1997896Y-1261984D02*
X1978848Y-1261984D01*
X1978848Y-1261984D02*
X1959801Y-1252460D01*
X1959801Y-1252460D02*
X1950277Y-1242936D01*
X1950277Y-1242936D02*
X1940753Y-1223889D01*
X1940753Y-1223889D02*
X1931229Y-1185793D01*
X1931229Y-1185793D02*
X1931229Y-1138174D01*
X1931229Y-1138174D02*
X1940753Y-1100079D01*
X1940753Y-1100079D02*
X1950277Y-1081031D01*
X1950277Y-1081031D02*
X1959801Y-1071508D01*
X1959801Y-1071508D02*
X1978848Y-1061984D01*
X2112182Y-1061984D02*
X2235991Y-1061984D01*
X2235991Y-1061984D02*
X2169325Y-1138174D01*
X2169325Y-1138174D02*
X2197896Y-1138174D01*
X2197896Y-1138174D02*
X2216944Y-1147698D01*
X2216944Y-1147698D02*
X2226468Y-1157222D01*
X2226468Y-1157222D02*
X2235991Y-1176270D01*
X2235991Y-1176270D02*
X2235991Y-1223889D01*
X2235991Y-1223889D02*
X2226468Y-1242936D01*
X2226468Y-1242936D02*
X2216944Y-1252460D01*
X2216944Y-1252460D02*
X2197896Y-1261984D01*
X2197896Y-1261984D02*
X2140753Y-1261984D01*
X2140753Y-1261984D02*
X2121706Y-1252460D01*
X2121706Y-1252460D02*
X2112182Y-1242936D01*
X2331229Y-1261984D02*
X2369325Y-1261984D01*
X2369325Y-1261984D02*
X2388372Y-1252460D01*
X2388372Y-1252460D02*
X2397896Y-1242936D01*
X2397896Y-1242936D02*
X2416944Y-1214365D01*
X2416944Y-1214365D02*
X2426468Y-1176270D01*
X2426468Y-1176270D02*
X2426468Y-1100079D01*
X2426468Y-1100079D02*
X2416944Y-1081031D01*
X2416944Y-1081031D02*
X2407420Y-1071508D01*
X2407420Y-1071508D02*
X2388372Y-1061984D01*
X2388372Y-1061984D02*
X2350277Y-1061984D01*
X2350277Y-1061984D02*
X2331229Y-1071508D01*
X2331229Y-1071508D02*
X2321706Y-1081031D01*
X2321706Y-1081031D02*
X2312182Y-1100079D01*
X2312182Y-1100079D02*
X2312182Y-1147698D01*
X2312182Y-1147698D02*
X2321706Y-1166746D01*
X2321706Y-1166746D02*
X2331229Y-1176270D01*
X2331229Y-1176270D02*
X2350277Y-1185793D01*
X2350277Y-1185793D02*
X2388372Y-1185793D01*
X2388372Y-1185793D02*
X2407420Y-1176270D01*
X2407420Y-1176270D02*
X2416944Y-1166746D01*
X2416944Y-1166746D02*
X2426468Y-1147698D01*
X2597896Y-1128650D02*
X2597896Y-1261984D01*
X2550277Y-1052460D02*
X2502658Y-1195317D01*
X2502658Y-1195317D02*
X2626468Y-1195317D01*
X2693134Y-1061984D02*
X2693134Y-1100079D01*
X2769325Y-1061984D02*
X2769325Y-1100079D01*
X3064563Y-1338174D02*
X3055039Y-1328650D01*
X3055039Y-1328650D02*
X3035991Y-1300079D01*
X3035991Y-1300079D02*
X3026468Y-1281031D01*
X3026468Y-1281031D02*
X3016944Y-1252460D01*
X3016944Y-1252460D02*
X3007420Y-1204841D01*
X3007420Y-1204841D02*
X3007420Y-1166746D01*
X3007420Y-1166746D02*
X3016944Y-1119127D01*
X3016944Y-1119127D02*
X3026468Y-1090555D01*
X3026468Y-1090555D02*
X3035991Y-1071508D01*
X3035991Y-1071508D02*
X3055039Y-1042936D01*
X3055039Y-1042936D02*
X3064563Y-1033412D01*
X3245515Y-1261984D02*
X3131229Y-1261984D01*
X3188372Y-1261984D02*
X3188372Y-1061984D01*
X3188372Y-1061984D02*
X3169325Y-1090555D01*
X3169325Y-1090555D02*
X3150277Y-1109603D01*
X3150277Y-1109603D02*
X3131229Y-1119127D01*
X3312182Y-1061984D02*
X3435991Y-1061984D01*
X3435991Y-1061984D02*
X3369325Y-1138174D01*
X3369325Y-1138174D02*
X3397896Y-1138174D01*
X3397896Y-1138174D02*
X3416944Y-1147698D01*
X3416944Y-1147698D02*
X3426468Y-1157222D01*
X3426468Y-1157222D02*
X3435991Y-1176270D01*
X3435991Y-1176270D02*
X3435991Y-1223889D01*
X3435991Y-1223889D02*
X3426468Y-1242936D01*
X3426468Y-1242936D02*
X3416944Y-1252460D01*
X3416944Y-1252460D02*
X3397896Y-1261984D01*
X3397896Y-1261984D02*
X3340753Y-1261984D01*
X3340753Y-1261984D02*
X3321706Y-1252460D01*
X3321706Y-1252460D02*
X3312182Y-1242936D01*
X3674087Y-1261984D02*
X3674087Y-1061984D01*
X3759801Y-1261984D02*
X3759801Y-1157222D01*
X3759801Y-1157222D02*
X3750277Y-1138174D01*
X3750277Y-1138174D02*
X3731230Y-1128650D01*
X3731230Y-1128650D02*
X3702658Y-1128650D01*
X3702658Y-1128650D02*
X3683610Y-1138174D01*
X3683610Y-1138174D02*
X3674087Y-1147698D01*
X3883610Y-1261984D02*
X3864563Y-1252460D01*
X3864563Y-1252460D02*
X3855039Y-1242936D01*
X3855039Y-1242936D02*
X3845515Y-1223889D01*
X3845515Y-1223889D02*
X3845515Y-1166746D01*
X3845515Y-1166746D02*
X3855039Y-1147698D01*
X3855039Y-1147698D02*
X3864563Y-1138174D01*
X3864563Y-1138174D02*
X3883610Y-1128650D01*
X3883610Y-1128650D02*
X3912182Y-1128650D01*
X3912182Y-1128650D02*
X3931230Y-1138174D01*
X3931230Y-1138174D02*
X3940753Y-1147698D01*
X3940753Y-1147698D02*
X3950277Y-1166746D01*
X3950277Y-1166746D02*
X3950277Y-1223889D01*
X3950277Y-1223889D02*
X3940753Y-1242936D01*
X3940753Y-1242936D02*
X3931230Y-1252460D01*
X3931230Y-1252460D02*
X3912182Y-1261984D01*
X3912182Y-1261984D02*
X3883610Y-1261984D01*
X4064563Y-1261984D02*
X4045515Y-1252460D01*
X4045515Y-1252460D02*
X4035991Y-1233412D01*
X4035991Y-1233412D02*
X4035991Y-1061984D01*
X4216944Y-1252460D02*
X4197896Y-1261984D01*
X4197896Y-1261984D02*
X4159801Y-1261984D01*
X4159801Y-1261984D02*
X4140753Y-1252460D01*
X4140753Y-1252460D02*
X4131230Y-1233412D01*
X4131230Y-1233412D02*
X4131230Y-1157222D01*
X4131230Y-1157222D02*
X4140753Y-1138174D01*
X4140753Y-1138174D02*
X4159801Y-1128650D01*
X4159801Y-1128650D02*
X4197896Y-1128650D01*
X4197896Y-1128650D02*
X4216944Y-1138174D01*
X4216944Y-1138174D02*
X4226468Y-1157222D01*
X4226468Y-1157222D02*
X4226468Y-1176270D01*
X4226468Y-1176270D02*
X4131230Y-1195317D01*
X4302658Y-1252460D02*
X4321706Y-1261984D01*
X4321706Y-1261984D02*
X4359801Y-1261984D01*
X4359801Y-1261984D02*
X4378849Y-1252460D01*
X4378849Y-1252460D02*
X4388373Y-1233412D01*
X4388373Y-1233412D02*
X4388373Y-1223889D01*
X4388373Y-1223889D02*
X4378849Y-1204841D01*
X4378849Y-1204841D02*
X4359801Y-1195317D01*
X4359801Y-1195317D02*
X4331230Y-1195317D01*
X4331230Y-1195317D02*
X4312182Y-1185793D01*
X4312182Y-1185793D02*
X4302658Y-1166746D01*
X4302658Y-1166746D02*
X4302658Y-1157222D01*
X4302658Y-1157222D02*
X4312182Y-1138174D01*
X4312182Y-1138174D02*
X4331230Y-1128650D01*
X4331230Y-1128650D02*
X4359801Y-1128650D01*
X4359801Y-1128650D02*
X4378849Y-1138174D01*
X4455039Y-1338174D02*
X4464563Y-1328650D01*
X4464563Y-1328650D02*
X4483611Y-1300079D01*
X4483611Y-1300079D02*
X4493134Y-1281031D01*
X4493134Y-1281031D02*
X4502658Y-1252460D01*
X4502658Y-1252460D02*
X4512182Y-1204841D01*
X4512182Y-1204841D02*
X4512182Y-1166746D01*
X4512182Y-1166746D02*
X4502658Y-1119127D01*
X4502658Y-1119127D02*
X4493134Y-1090555D01*
X4493134Y-1090555D02*
X4483611Y-1071508D01*
X4483611Y-1071508D02*
X4464563Y-1042936D01*
X4464563Y-1042936D02*
X4455039Y-1033412D01*
X-539789Y-1505211D02*
X-539789Y-1363789D01*
X-681211Y-1363789D01*
X-681211Y-1505211D01*
X-539789Y-1505211D01*
X-259247Y-1345031D02*
X-249723Y-1335508D01*
X-249723Y-1335508D02*
X-230675Y-1325984D01*
X-230675Y-1325984D02*
X-183056Y-1325984D01*
X-183056Y-1325984D02*
X-164009Y-1335508D01*
X-164009Y-1335508D02*
X-154485Y-1345031D01*
X-154485Y-1345031D02*
X-144961Y-1364079D01*
X-144961Y-1364079D02*
X-144961Y-1383127D01*
X-144961Y-1383127D02*
X-154485Y-1411698D01*
X-154485Y-1411698D02*
X-268771Y-1525984D01*
X-268771Y-1525984D02*
X-144961Y-1525984D01*
X-59247Y-1506936D02*
X-49723Y-1516460D01*
X-49723Y-1516460D02*
X-59247Y-1525984D01*
X-59247Y-1525984D02*
X-68771Y-1516460D01*
X-68771Y-1516460D02*
X-59247Y-1506936D01*
X-59247Y-1506936D02*
X-59247Y-1525984D01*
X131229Y-1325984D02*
X35991Y-1325984D01*
X35991Y-1325984D02*
X26467Y-1421222D01*
X26467Y-1421222D02*
X35991Y-1411698D01*
X35991Y-1411698D02*
X55039Y-1402174D01*
X55039Y-1402174D02*
X102658Y-1402174D01*
X102658Y-1402174D02*
X121705Y-1411698D01*
X121705Y-1411698D02*
X131229Y-1421222D01*
X131229Y-1421222D02*
X140753Y-1440269D01*
X140753Y-1440269D02*
X140753Y-1487888D01*
X140753Y-1487888D02*
X131229Y-1506936D01*
X131229Y-1506936D02*
X121705Y-1516460D01*
X121705Y-1516460D02*
X102658Y-1525984D01*
X102658Y-1525984D02*
X55039Y-1525984D01*
X55039Y-1525984D02*
X35991Y-1516460D01*
X35991Y-1516460D02*
X26467Y-1506936D01*
X264563Y-1325984D02*
X283610Y-1325984D01*
X283610Y-1325984D02*
X302658Y-1335508D01*
X302658Y-1335508D02*
X312182Y-1345031D01*
X312182Y-1345031D02*
X321705Y-1364079D01*
X321705Y-1364079D02*
X331229Y-1402174D01*
X331229Y-1402174D02*
X331229Y-1449793D01*
X331229Y-1449793D02*
X321705Y-1487888D01*
X321705Y-1487888D02*
X312182Y-1506936D01*
X312182Y-1506936D02*
X302658Y-1516460D01*
X302658Y-1516460D02*
X283610Y-1525984D01*
X283610Y-1525984D02*
X264563Y-1525984D01*
X264563Y-1525984D02*
X245515Y-1516460D01*
X245515Y-1516460D02*
X235991Y-1506936D01*
X235991Y-1506936D02*
X226467Y-1487888D01*
X226467Y-1487888D02*
X216943Y-1449793D01*
X216943Y-1449793D02*
X216943Y-1402174D01*
X216943Y-1402174D02*
X226467Y-1364079D01*
X226467Y-1364079D02*
X235991Y-1345031D01*
X235991Y-1345031D02*
X245515Y-1335508D01*
X245515Y-1335508D02*
X264563Y-1325984D01*
X455039Y-1325984D02*
X474086Y-1325984D01*
X474086Y-1325984D02*
X493134Y-1335508D01*
X493134Y-1335508D02*
X502658Y-1345031D01*
X502658Y-1345031D02*
X512182Y-1364079D01*
X512182Y-1364079D02*
X521705Y-1402174D01*
X521705Y-1402174D02*
X521705Y-1449793D01*
X521705Y-1449793D02*
X512182Y-1487888D01*
X512182Y-1487888D02*
X502658Y-1506936D01*
X502658Y-1506936D02*
X493134Y-1516460D01*
X493134Y-1516460D02*
X474086Y-1525984D01*
X474086Y-1525984D02*
X455039Y-1525984D01*
X455039Y-1525984D02*
X435991Y-1516460D01*
X435991Y-1516460D02*
X426467Y-1506936D01*
X426467Y-1506936D02*
X416943Y-1487888D01*
X416943Y-1487888D02*
X407420Y-1449793D01*
X407420Y-1449793D02*
X407420Y-1402174D01*
X407420Y-1402174D02*
X416943Y-1364079D01*
X416943Y-1364079D02*
X426467Y-1345031D01*
X426467Y-1345031D02*
X435991Y-1335508D01*
X435991Y-1335508D02*
X455039Y-1325984D01*
X607420Y-1525984D02*
X607420Y-1392650D01*
X607420Y-1411698D02*
X616944Y-1402174D01*
X616944Y-1402174D02*
X635991Y-1392650D01*
X635991Y-1392650D02*
X664563Y-1392650D01*
X664563Y-1392650D02*
X683610Y-1402174D01*
X683610Y-1402174D02*
X693134Y-1421222D01*
X693134Y-1421222D02*
X693134Y-1525984D01*
X693134Y-1421222D02*
X702658Y-1402174D01*
X702658Y-1402174D02*
X721705Y-1392650D01*
X721705Y-1392650D02*
X750277Y-1392650D01*
X750277Y-1392650D02*
X769324Y-1402174D01*
X769324Y-1402174D02*
X778848Y-1421222D01*
X778848Y-1421222D02*
X778848Y-1525984D01*
X874086Y-1525984D02*
X874086Y-1392650D01*
X874086Y-1411698D02*
X883610Y-1402174D01*
X883610Y-1402174D02*
X902658Y-1392650D01*
X902658Y-1392650D02*
X931229Y-1392650D01*
X931229Y-1392650D02*
X950277Y-1402174D01*
X950277Y-1402174D02*
X959801Y-1421222D01*
X959801Y-1421222D02*
X959801Y-1525984D01*
X959801Y-1421222D02*
X969324Y-1402174D01*
X969324Y-1402174D02*
X988372Y-1392650D01*
X988372Y-1392650D02*
X1016943Y-1392650D01*
X1016943Y-1392650D02*
X1035991Y-1402174D01*
X1035991Y-1402174D02*
X1045515Y-1421222D01*
X1045515Y-1421222D02*
X1045515Y-1525984D01*
X1435991Y-1316460D02*
X1264563Y-1573603D01*
X1693134Y-1325984D02*
X1712182Y-1325984D01*
X1712182Y-1325984D02*
X1731229Y-1335508D01*
X1731229Y-1335508D02*
X1740753Y-1345031D01*
X1740753Y-1345031D02*
X1750277Y-1364079D01*
X1750277Y-1364079D02*
X1759801Y-1402174D01*
X1759801Y-1402174D02*
X1759801Y-1449793D01*
X1759801Y-1449793D02*
X1750277Y-1487888D01*
X1750277Y-1487888D02*
X1740753Y-1506936D01*
X1740753Y-1506936D02*
X1731229Y-1516460D01*
X1731229Y-1516460D02*
X1712182Y-1525984D01*
X1712182Y-1525984D02*
X1693134Y-1525984D01*
X1693134Y-1525984D02*
X1674086Y-1516460D01*
X1674086Y-1516460D02*
X1664563Y-1506936D01*
X1664563Y-1506936D02*
X1655039Y-1487888D01*
X1655039Y-1487888D02*
X1645515Y-1449793D01*
X1645515Y-1449793D02*
X1645515Y-1402174D01*
X1645515Y-1402174D02*
X1655039Y-1364079D01*
X1655039Y-1364079D02*
X1664563Y-1345031D01*
X1664563Y-1345031D02*
X1674086Y-1335508D01*
X1674086Y-1335508D02*
X1693134Y-1325984D01*
X1845515Y-1506936D02*
X1855039Y-1516460D01*
X1855039Y-1516460D02*
X1845515Y-1525984D01*
X1845515Y-1525984D02*
X1835991Y-1516460D01*
X1835991Y-1516460D02*
X1845515Y-1506936D01*
X1845515Y-1506936D02*
X1845515Y-1525984D01*
X1978848Y-1325984D02*
X1997896Y-1325984D01*
X1997896Y-1325984D02*
X2016944Y-1335508D01*
X2016944Y-1335508D02*
X2026467Y-1345031D01*
X2026467Y-1345031D02*
X2035991Y-1364079D01*
X2035991Y-1364079D02*
X2045515Y-1402174D01*
X2045515Y-1402174D02*
X2045515Y-1449793D01*
X2045515Y-1449793D02*
X2035991Y-1487888D01*
X2035991Y-1487888D02*
X2026467Y-1506936D01*
X2026467Y-1506936D02*
X2016944Y-1516460D01*
X2016944Y-1516460D02*
X1997896Y-1525984D01*
X1997896Y-1525984D02*
X1978848Y-1525984D01*
X1978848Y-1525984D02*
X1959801Y-1516460D01*
X1959801Y-1516460D02*
X1950277Y-1506936D01*
X1950277Y-1506936D02*
X1940753Y-1487888D01*
X1940753Y-1487888D02*
X1931229Y-1449793D01*
X1931229Y-1449793D02*
X1931229Y-1402174D01*
X1931229Y-1402174D02*
X1940753Y-1364079D01*
X1940753Y-1364079D02*
X1950277Y-1345031D01*
X1950277Y-1345031D02*
X1959801Y-1335508D01*
X1959801Y-1335508D02*
X1978848Y-1325984D01*
X2140753Y-1525984D02*
X2178848Y-1525984D01*
X2178848Y-1525984D02*
X2197896Y-1516460D01*
X2197896Y-1516460D02*
X2207420Y-1506936D01*
X2207420Y-1506936D02*
X2226468Y-1478365D01*
X2226468Y-1478365D02*
X2235991Y-1440269D01*
X2235991Y-1440269D02*
X2235991Y-1364079D01*
X2235991Y-1364079D02*
X2226468Y-1345031D01*
X2226468Y-1345031D02*
X2216944Y-1335508D01*
X2216944Y-1335508D02*
X2197896Y-1325984D01*
X2197896Y-1325984D02*
X2159801Y-1325984D01*
X2159801Y-1325984D02*
X2140753Y-1335508D01*
X2140753Y-1335508D02*
X2131229Y-1345031D01*
X2131229Y-1345031D02*
X2121706Y-1364079D01*
X2121706Y-1364079D02*
X2121706Y-1411698D01*
X2121706Y-1411698D02*
X2131229Y-1430746D01*
X2131229Y-1430746D02*
X2140753Y-1440269D01*
X2140753Y-1440269D02*
X2159801Y-1449793D01*
X2159801Y-1449793D02*
X2197896Y-1449793D01*
X2197896Y-1449793D02*
X2216944Y-1440269D01*
X2216944Y-1440269D02*
X2226468Y-1430746D01*
X2226468Y-1430746D02*
X2235991Y-1411698D01*
X2350277Y-1411698D02*
X2331229Y-1402174D01*
X2331229Y-1402174D02*
X2321706Y-1392650D01*
X2321706Y-1392650D02*
X2312182Y-1373603D01*
X2312182Y-1373603D02*
X2312182Y-1364079D01*
X2312182Y-1364079D02*
X2321706Y-1345031D01*
X2321706Y-1345031D02*
X2331229Y-1335508D01*
X2331229Y-1335508D02*
X2350277Y-1325984D01*
X2350277Y-1325984D02*
X2388372Y-1325984D01*
X2388372Y-1325984D02*
X2407420Y-1335508D01*
X2407420Y-1335508D02*
X2416944Y-1345031D01*
X2416944Y-1345031D02*
X2426468Y-1364079D01*
X2426468Y-1364079D02*
X2426468Y-1373603D01*
X2426468Y-1373603D02*
X2416944Y-1392650D01*
X2416944Y-1392650D02*
X2407420Y-1402174D01*
X2407420Y-1402174D02*
X2388372Y-1411698D01*
X2388372Y-1411698D02*
X2350277Y-1411698D01*
X2350277Y-1411698D02*
X2331229Y-1421222D01*
X2331229Y-1421222D02*
X2321706Y-1430746D01*
X2321706Y-1430746D02*
X2312182Y-1449793D01*
X2312182Y-1449793D02*
X2312182Y-1487888D01*
X2312182Y-1487888D02*
X2321706Y-1506936D01*
X2321706Y-1506936D02*
X2331229Y-1516460D01*
X2331229Y-1516460D02*
X2350277Y-1525984D01*
X2350277Y-1525984D02*
X2388372Y-1525984D01*
X2388372Y-1525984D02*
X2407420Y-1516460D01*
X2407420Y-1516460D02*
X2416944Y-1506936D01*
X2416944Y-1506936D02*
X2426468Y-1487888D01*
X2426468Y-1487888D02*
X2426468Y-1449793D01*
X2426468Y-1449793D02*
X2416944Y-1430746D01*
X2416944Y-1430746D02*
X2407420Y-1421222D01*
X2407420Y-1421222D02*
X2388372Y-1411698D01*
X2597896Y-1392650D02*
X2597896Y-1525984D01*
X2550277Y-1316460D02*
X2502658Y-1459317D01*
X2502658Y-1459317D02*
X2626468Y-1459317D01*
X2693134Y-1325984D02*
X2693134Y-1364079D01*
X2769325Y-1325984D02*
X2769325Y-1364079D01*
X3064563Y-1602174D02*
X3055039Y-1592650D01*
X3055039Y-1592650D02*
X3035991Y-1564079D01*
X3035991Y-1564079D02*
X3026468Y-1545031D01*
X3026468Y-1545031D02*
X3016944Y-1516460D01*
X3016944Y-1516460D02*
X3007420Y-1468841D01*
X3007420Y-1468841D02*
X3007420Y-1430746D01*
X3007420Y-1430746D02*
X3016944Y-1383127D01*
X3016944Y-1383127D02*
X3026468Y-1354555D01*
X3026468Y-1354555D02*
X3035991Y-1335508D01*
X3035991Y-1335508D02*
X3055039Y-1306936D01*
X3055039Y-1306936D02*
X3064563Y-1297412D01*
X3226468Y-1392650D02*
X3226468Y-1525984D01*
X3178848Y-1316460D02*
X3131229Y-1459317D01*
X3131229Y-1459317D02*
X3255039Y-1459317D01*
X3483610Y-1525984D02*
X3483610Y-1325984D01*
X3569325Y-1525984D02*
X3569325Y-1421222D01*
X3569325Y-1421222D02*
X3559801Y-1402174D01*
X3559801Y-1402174D02*
X3540753Y-1392650D01*
X3540753Y-1392650D02*
X3512182Y-1392650D01*
X3512182Y-1392650D02*
X3493134Y-1402174D01*
X3493134Y-1402174D02*
X3483610Y-1411698D01*
X3693134Y-1525984D02*
X3674087Y-1516460D01*
X3674087Y-1516460D02*
X3664563Y-1506936D01*
X3664563Y-1506936D02*
X3655039Y-1487888D01*
X3655039Y-1487888D02*
X3655039Y-1430746D01*
X3655039Y-1430746D02*
X3664563Y-1411698D01*
X3664563Y-1411698D02*
X3674087Y-1402174D01*
X3674087Y-1402174D02*
X3693134Y-1392650D01*
X3693134Y-1392650D02*
X3721706Y-1392650D01*
X3721706Y-1392650D02*
X3740753Y-1402174D01*
X3740753Y-1402174D02*
X3750277Y-1411698D01*
X3750277Y-1411698D02*
X3759801Y-1430746D01*
X3759801Y-1430746D02*
X3759801Y-1487888D01*
X3759801Y-1487888D02*
X3750277Y-1506936D01*
X3750277Y-1506936D02*
X3740753Y-1516460D01*
X3740753Y-1516460D02*
X3721706Y-1525984D01*
X3721706Y-1525984D02*
X3693134Y-1525984D01*
X3874087Y-1525984D02*
X3855039Y-1516460D01*
X3855039Y-1516460D02*
X3845515Y-1497412D01*
X3845515Y-1497412D02*
X3845515Y-1325984D01*
X4026468Y-1516460D02*
X4007420Y-1525984D01*
X4007420Y-1525984D02*
X3969325Y-1525984D01*
X3969325Y-1525984D02*
X3950277Y-1516460D01*
X3950277Y-1516460D02*
X3940753Y-1497412D01*
X3940753Y-1497412D02*
X3940753Y-1421222D01*
X3940753Y-1421222D02*
X3950277Y-1402174D01*
X3950277Y-1402174D02*
X3969325Y-1392650D01*
X3969325Y-1392650D02*
X4007420Y-1392650D01*
X4007420Y-1392650D02*
X4026468Y-1402174D01*
X4026468Y-1402174D02*
X4035991Y-1421222D01*
X4035991Y-1421222D02*
X4035991Y-1440269D01*
X4035991Y-1440269D02*
X3940753Y-1459317D01*
X4112182Y-1516460D02*
X4131230Y-1525984D01*
X4131230Y-1525984D02*
X4169325Y-1525984D01*
X4169325Y-1525984D02*
X4188372Y-1516460D01*
X4188372Y-1516460D02*
X4197896Y-1497412D01*
X4197896Y-1497412D02*
X4197896Y-1487888D01*
X4197896Y-1487888D02*
X4188372Y-1468841D01*
X4188372Y-1468841D02*
X4169325Y-1459317D01*
X4169325Y-1459317D02*
X4140753Y-1459317D01*
X4140753Y-1459317D02*
X4121706Y-1449793D01*
X4121706Y-1449793D02*
X4112182Y-1430746D01*
X4112182Y-1430746D02*
X4112182Y-1421222D01*
X4112182Y-1421222D02*
X4121706Y-1402174D01*
X4121706Y-1402174D02*
X4140753Y-1392650D01*
X4140753Y-1392650D02*
X4169325Y-1392650D01*
X4169325Y-1392650D02*
X4188372Y-1402174D01*
X4264563Y-1602174D02*
X4274087Y-1592650D01*
X4274087Y-1592650D02*
X4293134Y-1564079D01*
X4293134Y-1564079D02*
X4302658Y-1545031D01*
X4302658Y-1545031D02*
X4312182Y-1516460D01*
X4312182Y-1516460D02*
X4321706Y-1468841D01*
X4321706Y-1468841D02*
X4321706Y-1430746D01*
X4321706Y-1430746D02*
X4312182Y-1383127D01*
X4312182Y-1383127D02*
X4302658Y-1354555D01*
X4302658Y-1354555D02*
X4293134Y-1335508D01*
X4293134Y-1335508D02*
X4274087Y-1306936D01*
X4274087Y-1306936D02*
X4264563Y-1297412D01*
M02*
