ISO-10303-21;
HEADER;
FILE_DESCRIPTION(('KiCad electronic assembly'),'2;1');
FILE_NAME('model.step','1970-01-01T00:00:00',('Pcbnew'),('Kicad'),
  'Open CASCADE STEP processor 7.9','KiCad to STEP converter','Unknown'
  );
FILE_SCHEMA(('AUTOMOTIVE_DESIGN { 1 0 10303 214 1 1 1 1 }'));
ENDSEC;
DATA;
#1 = APPLICATION_PROTOCOL_DEFINITION('international standard',
  'automotive_design',2000,#2);
#2 = APPLICATION_CONTEXT(
  'core data for automotive mechanical design processes');
#3 = SHAPE_DEFINITION_REPRESENTATION(#4,#10);
#4 = PRODUCT_DEFINITION_SHAPE('','',#5);
#5 = PRODUCT_DEFINITION('design','',#6,#9);
#6 = PRODUCT_DEFINITION_FORMATION('','',#7);
#7 = PRODUCT('model 1','model 1','',(#8));
#8 = PRODUCT_CONTEXT('',#2,'mechanical');
#9 = PRODUCT_DEFINITION_CONTEXT('part definition',#2,'design');
#10 = SHAPE_REPRESENTATION('',(#11,#15,#19,#23),#27);
#11 = AXIS2_PLACEMENT_3D('',#12,#13,#14);
#12 = CARTESIAN_POINT('',(0.,0.,0.));
#13 = DIRECTION('',(0.,0.,1.));
#14 = DIRECTION('',(1.,0.,-0.));
#15 = AXIS2_PLACEMENT_3D('',#16,#17,#18);
#16 = CARTESIAN_POINT('',(0.,0.,1.595));
#17 = DIRECTION('',(0.,0.,1.));
#18 = DIRECTION('',(1.,0.,0.));
#19 = AXIS2_PLACEMENT_3D('',#20,#21,#22);
#20 = CARTESIAN_POINT('',(0.,0.,0.));
#21 = DIRECTION('',(0.,0.,1.));
#22 = DIRECTION('',(1.,0.,-0.));
#23 = AXIS2_PLACEMENT_3D('',#24,#25,#26);
#24 = CARTESIAN_POINT('',(0.,0.,0.));
#25 = DIRECTION('',(0.,0.,1.));
#26 = DIRECTION('',(1.,0.,-0.));
#27 = ( GEOMETRIC_REPRESENTATION_CONTEXT(3) 
GLOBAL_UNCERTAINTY_ASSIGNED_CONTEXT((#31)) GLOBAL_UNIT_ASSIGNED_CONTEXT(
(#28,#29,#30)) REPRESENTATION_CONTEXT('Context #1',
  '3D Context with UNIT and UNCERTAINTY') );
#28 = ( LENGTH_UNIT() NAMED_UNIT(*) SI_UNIT(.MILLI.,.METRE.) );
#29 = ( NAMED_UNIT(*) PLANE_ANGLE_UNIT() SI_UNIT($,.RADIAN.) );
#30 = ( NAMED_UNIT(*) SI_UNIT($,.STERADIAN.) SOLID_ANGLE_UNIT() );
#31 = UNCERTAINTY_MEASURE_WITH_UNIT(LENGTH_MEASURE(1.E-07),#28,
  'distance_accuracy_value','confusion accuracy');
#32 = PRODUCT_RELATED_PRODUCT_CATEGORY('part',$,(#7));
#33 = SHAPE_DEFINITION_REPRESENTATION(#34,#40);
#34 = PRODUCT_DEFINITION_SHAPE('','',#35);
#35 = PRODUCT_DEFINITION('design','',#36,#39);
#36 = PRODUCT_DEFINITION_FORMATION('','',#37);
#37 = PRODUCT('D_DO-15_P10.16mm_Horizontal',
  'D_DO-15_P10.16mm_Horizontal','',(#38));
#38 = PRODUCT_CONTEXT('',#2,'mechanical');
#39 = PRODUCT_DEFINITION_CONTEXT('part definition',#2,'design');
#40 = SHAPE_REPRESENTATION('',(#11,#41),#45);
#41 = AXIS2_PLACEMENT_3D('',#42,#43,#44);
#42 = CARTESIAN_POINT('',(0.,0.,0.));
#43 = DIRECTION('',(0.,0.,1.));
#44 = DIRECTION('',(1.,0.,-0.));
#45 = ( GEOMETRIC_REPRESENTATION_CONTEXT(3) 
GLOBAL_UNCERTAINTY_ASSIGNED_CONTEXT((#49)) GLOBAL_UNIT_ASSIGNED_CONTEXT(
(#46,#47,#48)) REPRESENTATION_CONTEXT('Context #1',
  '3D Context with UNIT and UNCERTAINTY') );
#46 = ( LENGTH_UNIT() NAMED_UNIT(*) SI_UNIT(.MILLI.,.METRE.) );
#47 = ( NAMED_UNIT(*) PLANE_ANGLE_UNIT() SI_UNIT($,.RADIAN.) );
#48 = ( NAMED_UNIT(*) SI_UNIT($,.STERADIAN.) SOLID_ANGLE_UNIT() );
#49 = UNCERTAINTY_MEASURE_WITH_UNIT(LENGTH_MEASURE(1.E-07),#46,
  'distance_accuracy_value','confusion accuracy');
#50 = CONTEXT_DEPENDENT_SHAPE_REPRESENTATION(#51,#53);
#51 = ( REPRESENTATION_RELATIONSHIP('','',#40,#10) 
REPRESENTATION_RELATIONSHIP_WITH_TRANSFORMATION(#52) 
SHAPE_REPRESENTATION_RELATIONSHIP() );
#52 = ITEM_DEFINED_TRANSFORMATION('','',#11,#15);
#53 = PRODUCT_DEFINITION_SHAPE('Placement','Placement of an item',#54);
#54 = NEXT_ASSEMBLY_USAGE_OCCURRENCE('2','REF**','',#5,#35,$);
#55 = PRODUCT_RELATED_PRODUCT_CATEGORY('part',$,(#37));
#56 = SHAPE_DEFINITION_REPRESENTATION(#57,#63);
#57 = PRODUCT_DEFINITION_SHAPE('','',#58);
#58 = PRODUCT_DEFINITION('design','',#59,#62);
#59 = PRODUCT_DEFINITION_FORMATION('','',#60);
#60 = PRODUCT('D_DO-15_P10.16mm_Horizontal',
  'D_DO-15_P10.16mm_Horizontal','',(#61));
#61 = PRODUCT_CONTEXT('',#2,'mechanical');
#62 = PRODUCT_DEFINITION_CONTEXT('part definition',#2,'design');
#63 = ADVANCED_BREP_SHAPE_REPRESENTATION('',(#11,#64),#399);
#64 = MANIFOLD_SOLID_BREP('',#65);
#65 = CLOSED_SHELL('',(#66,#99,#108,#134,#159,#179,#204,#224,#249,#269,
    #294,#314,#339,#365,#390));
#66 = ADVANCED_FACE('',(#67),#94,.T.);
#67 = FACE_BOUND('',#68,.T.);
#68 = EDGE_LOOP('',(#69,#79,#86,#87));
#69 = ORIENTED_EDGE('',*,*,#70,.T.);
#70 = EDGE_CURVE('',#71,#73,#75,.T.);
#71 = VERTEX_POINT('',#72);
#72 = CARTESIAN_POINT('',(0.45,-2.212405143858E-16,-2.5));
#73 = VERTEX_POINT('',#74);
#74 = CARTESIAN_POINT('',(0.45,7.549516567451E-16,1.4));
#75 = LINE('',#76,#77);
#76 = CARTESIAN_POINT('',(0.45,7.549516567451E-16,1.4));
#77 = VECTOR('',#78,1.);
#78 = DIRECTION('',(0.,2.22044604925E-16,1.));
#79 = ORIENTED_EDGE('',*,*,#80,.F.);
#80 = EDGE_CURVE('',#73,#73,#81,.T.);
#81 = CIRCLE('',#82,0.45);
#82 = AXIS2_PLACEMENT_3D('',#83,#84,#85);
#83 = CARTESIAN_POINT('',(0.,7.549516567451E-16,1.4));
#84 = DIRECTION('',(-0.,2.22044604925E-16,1.));
#85 = DIRECTION('',(1.,0.,0.));
#86 = ORIENTED_EDGE('',*,*,#70,.F.);
#87 = ORIENTED_EDGE('',*,*,#88,.T.);
#88 = EDGE_CURVE('',#71,#71,#89,.T.);
#89 = CIRCLE('',#90,0.45);
#90 = AXIS2_PLACEMENT_3D('',#91,#92,#93);
#91 = CARTESIAN_POINT('',(0.,-1.110223024625E-16,-2.5));
#92 = DIRECTION('',(-0.,2.22044604925E-16,1.));
#93 = DIRECTION('',(1.,0.,0.));
#94 = CYLINDRICAL_SURFACE('',#95,0.45);
#95 = AXIS2_PLACEMENT_3D('',#96,#97,#98);
#96 = CARTESIAN_POINT('',(0.,7.549516567451E-16,1.4));
#97 = DIRECTION('',(0.,2.22044604925E-16,1.));
#98 = DIRECTION('',(1.,0.,-0.));
#99 = ADVANCED_FACE('',(#100),#103,.T.);
#100 = FACE_BOUND('',#101,.F.);
#101 = EDGE_LOOP('',(#102));
#102 = ORIENTED_EDGE('',*,*,#88,.T.);
#103 = PLANE('',#104);
#104 = AXIS2_PLACEMENT_3D('',#105,#106,#107);
#105 = CARTESIAN_POINT('',(0.45,-1.110223024625E-16,-2.5));
#106 = DIRECTION('',(0.,0.,-1.));
#107 = DIRECTION('',(-1.,0.,0.));
#108 = ADVANCED_FACE('',(#109),#129,.T.);
#109 = FACE_BOUND('',#110,.T.);
#110 = EDGE_LOOP('',(#111,#120,#127,#128));
#111 = ORIENTED_EDGE('',*,*,#112,.T.);
#112 = EDGE_CURVE('',#73,#113,#115,.T.);
#113 = VERTEX_POINT('',#114);
#114 = CARTESIAN_POINT('',(0.9,8.548717289614E-16,1.85));
#115 = CIRCLE('',#116,0.45);
#116 = AXIS2_PLACEMENT_3D('',#117,#118,#119);
#117 = CARTESIAN_POINT('',(0.9,9.2027897463E-16,1.4));
#118 = DIRECTION('',(0.,1.,-2.22044604925E-16));
#119 = DIRECTION('',(1.,0.,0.));
#120 = ORIENTED_EDGE('',*,*,#121,.T.);
#121 = EDGE_CURVE('',#113,#113,#122,.T.);
#122 = CIRCLE('',#123,0.45);
#123 = AXIS2_PLACEMENT_3D('',#124,#125,#126);
#124 = CARTESIAN_POINT('',(0.9,9.547918011776E-16,2.3));
#125 = DIRECTION('',(-1.,-4.078893220341E-32,-1.836970198721E-16));
#126 = DIRECTION('',(-1.836970198721E-16,2.22044604925E-16,1.));
#127 = ORIENTED_EDGE('',*,*,#112,.F.);
#128 = ORIENTED_EDGE('',*,*,#80,.T.);
#129 = TOROIDAL_SURFACE('',#130,0.9,0.45);
#130 = AXIS2_PLACEMENT_3D('',#131,#132,#133);
#131 = CARTESIAN_POINT('',(0.9,7.549516567451E-16,1.4));
#132 = DIRECTION('',(0.,1.,-2.22044604925E-16));
#133 = DIRECTION('',(1.,0.,0.));
#134 = ADVANCED_FACE('',(#135),#154,.T.);
#135 = FACE_BOUND('',#136,.T.);
#136 = EDGE_LOOP('',(#137,#138,#146,#153));
#137 = ORIENTED_EDGE('',*,*,#121,.F.);
#138 = ORIENTED_EDGE('',*,*,#139,.T.);
#139 = EDGE_CURVE('',#113,#140,#142,.T.);
#140 = VERTEX_POINT('',#141);
#141 = CARTESIAN_POINT('',(1.28,8.548717289614E-16,1.85));
#142 = LINE('',#143,#144);
#143 = CARTESIAN_POINT('',(0.9,8.548717289614E-16,1.85));
#144 = VECTOR('',#145,1.);
#145 = DIRECTION('',(1.,0.,0.));
#146 = ORIENTED_EDGE('',*,*,#147,.F.);
#147 = EDGE_CURVE('',#140,#140,#148,.T.);
#148 = CIRCLE('',#149,0.45);
#149 = AXIS2_PLACEMENT_3D('',#150,#151,#152);
#150 = CARTESIAN_POINT('',(1.28,9.547918011776E-16,2.3));
#151 = DIRECTION('',(1.,0.,0.));
#152 = DIRECTION('',(0.,-2.22044604925E-16,-1.));
#153 = ORIENTED_EDGE('',*,*,#139,.F.);
#154 = CYLINDRICAL_SURFACE('',#155,0.45);
#155 = AXIS2_PLACEMENT_3D('',#156,#157,#158);
#156 = CARTESIAN_POINT('',(0.9,9.547918011776E-16,2.3));
#157 = DIRECTION('',(1.,0.,0.));
#158 = DIRECTION('',(0.,-2.22044604925E-16,-1.));
#159 = ADVANCED_FACE('',(#160,#171),#174,.F.);
#160 = FACE_BOUND('',#161,.T.);
#161 = EDGE_LOOP('',(#162));
#162 = ORIENTED_EDGE('',*,*,#163,.F.);
#163 = EDGE_CURVE('',#164,#164,#166,.T.);
#164 = VERTEX_POINT('',#165);
#165 = CARTESIAN_POINT('',(1.28,2.731148640578E-15,4.1));
#166 = CIRCLE('',#167,1.8);
#167 = AXIS2_PLACEMENT_3D('',#168,#169,#170);
#168 = CARTESIAN_POINT('',(1.28,1.021405182655E-15,2.3));
#169 = DIRECTION('',(1.,0.,-0.));
#170 = DIRECTION('',(0.,9.498574766237E-16,1.));
#171 = FACE_BOUND('',#172,.T.);
#172 = EDGE_LOOP('',(#173));
#173 = ORIENTED_EDGE('',*,*,#147,.T.);
#174 = PLANE('',#175);
#175 = AXIS2_PLACEMENT_3D('',#176,#177,#178);
#176 = CARTESIAN_POINT('',(1.28,1.021405182655E-15,2.3));
#177 = DIRECTION('',(1.,0.,0.));
#178 = DIRECTION('',(-0.,9.498574766237E-16,1.));
#179 = ADVANCED_FACE('',(#180),#199,.T.);
#180 = FACE_BOUND('',#181,.T.);
#181 = EDGE_LOOP('',(#182,#190,#191,#192));
#182 = ORIENTED_EDGE('',*,*,#183,.F.);
#183 = EDGE_CURVE('',#164,#184,#186,.T.);
#184 = VERTEX_POINT('',#185);
#185 = CARTESIAN_POINT('',(2.42,2.731148640578E-15,4.1));
#186 = LINE('',#187,#188);
#187 = CARTESIAN_POINT('',(1.28,2.731148640578E-15,4.1));
#188 = VECTOR('',#189,1.);
#189 = DIRECTION('',(1.,0.,0.));
#190 = ORIENTED_EDGE('',*,*,#163,.T.);
#191 = ORIENTED_EDGE('',*,*,#183,.T.);
#192 = ORIENTED_EDGE('',*,*,#193,.F.);
#193 = EDGE_CURVE('',#184,#184,#194,.T.);
#194 = CIRCLE('',#195,1.8);
#195 = AXIS2_PLACEMENT_3D('',#196,#197,#198);
#196 = CARTESIAN_POINT('',(2.42,1.021405182655E-15,2.3));
#197 = DIRECTION('',(1.,0.,-0.));
#198 = DIRECTION('',(0.,9.498574766237E-16,1.));
#199 = CYLINDRICAL_SURFACE('',#200,1.8);
#200 = AXIS2_PLACEMENT_3D('',#201,#202,#203);
#201 = CARTESIAN_POINT('',(1.28,1.021405182655E-15,2.3));
#202 = DIRECTION('',(1.,0.,0.));
#203 = DIRECTION('',(-0.,9.498574766237E-16,1.));
#204 = ADVANCED_FACE('',(#205,#216),#219,.F.);
#205 = FACE_BOUND('',#206,.T.);
#206 = EDGE_LOOP('',(#207));
#207 = ORIENTED_EDGE('',*,*,#208,.F.);
#208 = EDGE_CURVE('',#209,#209,#211,.T.);
#209 = VERTEX_POINT('',#210);
#210 = CARTESIAN_POINT('',(2.42,2.737809978726E-15,4.11));
#211 = CIRCLE('',#212,1.81);
#212 = AXIS2_PLACEMENT_3D('',#213,#214,#215);
#213 = CARTESIAN_POINT('',(2.42,1.021405182655E-15,2.3));
#214 = DIRECTION('',(1.,0.,-0.));
#215 = DIRECTION('',(0.,9.482899425804E-16,1.));
#216 = FACE_BOUND('',#217,.T.);
#217 = EDGE_LOOP('',(#218));
#218 = ORIENTED_EDGE('',*,*,#193,.T.);
#219 = PLANE('',#220);
#220 = AXIS2_PLACEMENT_3D('',#221,#222,#223);
#221 = CARTESIAN_POINT('',(2.42,1.021405182655E-15,2.3));
#222 = DIRECTION('',(1.,0.,0.));
#223 = DIRECTION('',(-0.,9.51442525014E-16,1.));
#224 = ADVANCED_FACE('',(#225),#244,.T.);
#225 = FACE_BOUND('',#226,.T.);
#226 = EDGE_LOOP('',(#227,#228,#236,#243));
#227 = ORIENTED_EDGE('',*,*,#208,.T.);
#228 = ORIENTED_EDGE('',*,*,#229,.T.);
#229 = EDGE_CURVE('',#209,#230,#232,.T.);
#230 = VERTEX_POINT('',#231);
#231 = CARTESIAN_POINT('',(4.32,2.737809978726E-15,4.11));
#232 = LINE('',#233,#234);
#233 = CARTESIAN_POINT('',(2.42,2.737809978726E-15,4.11));
#234 = VECTOR('',#235,1.);
#235 = DIRECTION('',(1.,0.,0.));
#236 = ORIENTED_EDGE('',*,*,#237,.F.);
#237 = EDGE_CURVE('',#230,#230,#238,.T.);
#238 = CIRCLE('',#239,1.81);
#239 = AXIS2_PLACEMENT_3D('',#240,#241,#242);
#240 = CARTESIAN_POINT('',(4.32,1.021405182655E-15,2.3));
#241 = DIRECTION('',(1.,0.,-0.));
#242 = DIRECTION('',(0.,9.482899425804E-16,1.));
#243 = ORIENTED_EDGE('',*,*,#229,.F.);
#244 = CYLINDRICAL_SURFACE('',#245,1.81);
#245 = AXIS2_PLACEMENT_3D('',#246,#247,#248);
#246 = CARTESIAN_POINT('',(2.42,1.021405182655E-15,2.3));
#247 = DIRECTION('',(1.,0.,0.));
#248 = DIRECTION('',(-0.,9.482899425804E-16,1.));
#249 = ADVANCED_FACE('',(#250,#253),#264,.T.);
#250 = FACE_BOUND('',#251,.T.);
#251 = EDGE_LOOP('',(#252));
#252 = ORIENTED_EDGE('',*,*,#237,.T.);
#253 = FACE_BOUND('',#254,.T.);
#254 = EDGE_LOOP('',(#255));
#255 = ORIENTED_EDGE('',*,*,#256,.F.);
#256 = EDGE_CURVE('',#257,#257,#259,.T.);
#257 = VERTEX_POINT('',#258);
#258 = CARTESIAN_POINT('',(4.32,2.731148640578E-15,4.1));
#259 = CIRCLE('',#260,1.8);
#260 = AXIS2_PLACEMENT_3D('',#261,#262,#263);
#261 = CARTESIAN_POINT('',(4.32,1.021405182655E-15,2.3));
#262 = DIRECTION('',(1.,0.,-0.));
#263 = DIRECTION('',(0.,9.498574766237E-16,1.));
#264 = PLANE('',#265);
#265 = AXIS2_PLACEMENT_3D('',#266,#267,#268);
#266 = CARTESIAN_POINT('',(4.32,1.021405182655E-15,2.3));
#267 = DIRECTION('',(1.,0.,0.));
#268 = DIRECTION('',(-0.,9.482899425804E-16,1.));
#269 = ADVANCED_FACE('',(#270),#289,.T.);
#270 = FACE_BOUND('',#271,.T.);
#271 = EDGE_LOOP('',(#272,#273,#281,#288));
#272 = ORIENTED_EDGE('',*,*,#256,.T.);
#273 = ORIENTED_EDGE('',*,*,#274,.T.);
#274 = EDGE_CURVE('',#257,#275,#277,.T.);
#275 = VERTEX_POINT('',#276);
#276 = CARTESIAN_POINT('',(8.88,2.731148640578E-15,4.1));
#277 = LINE('',#278,#279);
#278 = CARTESIAN_POINT('',(1.28,2.731148640578E-15,4.1));
#279 = VECTOR('',#280,1.);
#280 = DIRECTION('',(1.,0.,0.));
#281 = ORIENTED_EDGE('',*,*,#282,.F.);
#282 = EDGE_CURVE('',#275,#275,#283,.T.);
#283 = CIRCLE('',#284,1.8);
#284 = AXIS2_PLACEMENT_3D('',#285,#286,#287);
#285 = CARTESIAN_POINT('',(8.88,1.021405182655E-15,2.3));
#286 = DIRECTION('',(1.,0.,-0.));
#287 = DIRECTION('',(0.,9.498574766237E-16,1.));
#288 = ORIENTED_EDGE('',*,*,#274,.F.);
#289 = CYLINDRICAL_SURFACE('',#290,1.8);
#290 = AXIS2_PLACEMENT_3D('',#291,#292,#293);
#291 = CARTESIAN_POINT('',(1.28,1.021405182655E-15,2.3));
#292 = DIRECTION('',(1.,0.,0.));
#293 = DIRECTION('',(-0.,9.498574766237E-16,1.));
#294 = ADVANCED_FACE('',(#295,#298),#309,.T.);
#295 = FACE_BOUND('',#296,.F.);
#296 = EDGE_LOOP('',(#297));
#297 = ORIENTED_EDGE('',*,*,#282,.F.);
#298 = FACE_BOUND('',#299,.F.);
#299 = EDGE_LOOP('',(#300));
#300 = ORIENTED_EDGE('',*,*,#301,.T.);
#301 = EDGE_CURVE('',#302,#302,#304,.T.);
#302 = VERTEX_POINT('',#303);
#303 = CARTESIAN_POINT('',(8.88,8.548717289614E-16,1.85));
#304 = CIRCLE('',#305,0.45);
#305 = AXIS2_PLACEMENT_3D('',#306,#307,#308);
#306 = CARTESIAN_POINT('',(8.88,9.547918011776E-16,2.3));
#307 = DIRECTION('',(1.,0.,0.));
#308 = DIRECTION('',(0.,-2.22044604925E-16,-1.));
#309 = PLANE('',#310);
#310 = AXIS2_PLACEMENT_3D('',#311,#312,#313);
#311 = CARTESIAN_POINT('',(8.88,1.021405182655E-15,2.3));
#312 = DIRECTION('',(1.,0.,0.));
#313 = DIRECTION('',(-0.,9.498574766237E-16,1.));
#314 = ADVANCED_FACE('',(#315),#334,.T.);
#315 = FACE_BOUND('',#316,.T.);
#316 = EDGE_LOOP('',(#317,#318,#326,#333));
#317 = ORIENTED_EDGE('',*,*,#301,.T.);
#318 = ORIENTED_EDGE('',*,*,#319,.T.);
#319 = EDGE_CURVE('',#302,#320,#322,.T.);
#320 = VERTEX_POINT('',#321);
#321 = CARTESIAN_POINT('',(9.26,8.548717289614E-16,1.85));
#322 = LINE('',#323,#324);
#323 = CARTESIAN_POINT('',(0.9,8.548717289614E-16,1.85));
#324 = VECTOR('',#325,1.);
#325 = DIRECTION('',(1.,0.,0.));
#326 = ORIENTED_EDGE('',*,*,#327,.F.);
#327 = EDGE_CURVE('',#320,#320,#328,.T.);
#328 = CIRCLE('',#329,0.45);
#329 = AXIS2_PLACEMENT_3D('',#330,#331,#332);
#330 = CARTESIAN_POINT('',(9.26,9.547918011776E-16,2.3));
#331 = DIRECTION('',(1.,0.,0.));
#332 = DIRECTION('',(0.,-2.22044604925E-16,-1.));
#333 = ORIENTED_EDGE('',*,*,#319,.F.);
#334 = CYLINDRICAL_SURFACE('',#335,0.45);
#335 = AXIS2_PLACEMENT_3D('',#336,#337,#338);
#336 = CARTESIAN_POINT('',(0.9,9.547918011776E-16,2.3));
#337 = DIRECTION('',(1.,0.,0.));
#338 = DIRECTION('',(0.,-2.22044604925E-16,-1.));
#339 = ADVANCED_FACE('',(#340),#360,.T.);
#340 = FACE_BOUND('',#341,.T.);
#341 = EDGE_LOOP('',(#342,#351,#358,#359));
#342 = ORIENTED_EDGE('',*,*,#343,.T.);
#343 = EDGE_CURVE('',#320,#344,#346,.T.);
#344 = VERTEX_POINT('',#345);
#345 = CARTESIAN_POINT('',(9.71,7.549516567451E-16,1.4));
#346 = CIRCLE('',#347,0.45);
#347 = AXIS2_PLACEMENT_3D('',#348,#349,#350);
#348 = CARTESIAN_POINT('',(9.26,9.2027897463E-16,1.4));
#349 = DIRECTION('',(0.,1.,-2.22044604925E-16));
#350 = DIRECTION('',(1.,0.,0.));
#351 = ORIENTED_EDGE('',*,*,#352,.T.);
#352 = EDGE_CURVE('',#344,#344,#353,.T.);
#353 = CIRCLE('',#354,0.45);
#354 = AXIS2_PLACEMENT_3D('',#355,#356,#357);
#355 = CARTESIAN_POINT('',(10.16,7.549516567451E-16,1.4));
#356 = DIRECTION('',(-2.449293598295E-16,2.22044604925E-16,1.));
#357 = DIRECTION('',(1.,5.438524293788E-32,2.449293598295E-16));
#358 = ORIENTED_EDGE('',*,*,#343,.F.);
#359 = ORIENTED_EDGE('',*,*,#327,.T.);
#360 = TOROIDAL_SURFACE('',#361,0.9,0.45);
#361 = AXIS2_PLACEMENT_3D('',#362,#363,#364);
#362 = CARTESIAN_POINT('',(9.26,7.549516567451E-16,1.4));
#363 = DIRECTION('',(0.,1.,-2.22044604925E-16));
#364 = DIRECTION('',(1.,0.,0.));
#365 = ADVANCED_FACE('',(#366),#385,.T.);
#366 = FACE_BOUND('',#367,.T.);
#367 = EDGE_LOOP('',(#368,#376,#383,#384));
#368 = ORIENTED_EDGE('',*,*,#369,.T.);
#369 = EDGE_CURVE('',#344,#370,#372,.T.);
#370 = VERTEX_POINT('',#371);
#371 = CARTESIAN_POINT('',(9.71,-2.212405143858E-16,-2.5));
#372 = LINE('',#373,#374);
#373 = CARTESIAN_POINT('',(9.71,7.549516567451E-16,1.4));
#374 = VECTOR('',#375,1.);
#375 = DIRECTION('',(0.,-2.22044604925E-16,-1.));
#376 = ORIENTED_EDGE('',*,*,#377,.F.);
#377 = EDGE_CURVE('',#370,#370,#378,.T.);
#378 = CIRCLE('',#379,0.45);
#379 = AXIS2_PLACEMENT_3D('',#380,#381,#382);
#380 = CARTESIAN_POINT('',(10.16,-1.110223024625E-16,-2.5));
#381 = DIRECTION('',(-0.,-2.22044604925E-16,-1.));
#382 = DIRECTION('',(-1.,0.,0.));
#383 = ORIENTED_EDGE('',*,*,#369,.F.);
#384 = ORIENTED_EDGE('',*,*,#352,.F.);
#385 = CYLINDRICAL_SURFACE('',#386,0.45);
#386 = AXIS2_PLACEMENT_3D('',#387,#388,#389);
#387 = CARTESIAN_POINT('',(10.16,7.549516567451E-16,1.4));
#388 = DIRECTION('',(0.,-2.22044604925E-16,-1.));
#389 = DIRECTION('',(-1.,-0.,0.));
#390 = ADVANCED_FACE('',(#391),#394,.F.);
#391 = FACE_BOUND('',#392,.T.);
#392 = EDGE_LOOP('',(#393));
#393 = ORIENTED_EDGE('',*,*,#377,.T.);
#394 = PLANE('',#395);
#395 = AXIS2_PLACEMENT_3D('',#396,#397,#398);
#396 = CARTESIAN_POINT('',(9.71,-1.110223024625E-16,-2.5));
#397 = DIRECTION('',(0.,0.,1.));
#398 = DIRECTION('',(1.,0.,-0.));
#399 = ( GEOMETRIC_REPRESENTATION_CONTEXT(3) 
GLOBAL_UNCERTAINTY_ASSIGNED_CONTEXT((#403)) GLOBAL_UNIT_ASSIGNED_CONTEXT
((#400,#401,#402)) REPRESENTATION_CONTEXT('Context #1',
  '3D Context with UNIT and UNCERTAINTY') );
#400 = ( LENGTH_UNIT() NAMED_UNIT(*) SI_UNIT(.MILLI.,.METRE.) );
#401 = ( NAMED_UNIT(*) PLANE_ANGLE_UNIT() SI_UNIT($,.RADIAN.) );
#402 = ( NAMED_UNIT(*) SI_UNIT($,.STERADIAN.) SOLID_ANGLE_UNIT() );
#403 = UNCERTAINTY_MEASURE_WITH_UNIT(LENGTH_MEASURE(1.E-07),#400,
  'distance_accuracy_value','confusion accuracy');
#404 = CONTEXT_DEPENDENT_SHAPE_REPRESENTATION(#405,#407);
#405 = ( REPRESENTATION_RELATIONSHIP('','',#63,#40) 
REPRESENTATION_RELATIONSHIP_WITH_TRANSFORMATION(#406) 
SHAPE_REPRESENTATION_RELATIONSHIP() );
#406 = ITEM_DEFINED_TRANSFORMATION('','',#11,#41);
#407 = PRODUCT_DEFINITION_SHAPE('Placement','Placement of an item',#408
  );
#408 = NEXT_ASSEMBLY_USAGE_OCCURRENCE('1','=>[0:1:1:3]','',#35,#58,$);
#409 = PRODUCT_RELATED_PRODUCT_CATEGORY('part',$,(#60));
#410 = SHAPE_DEFINITION_REPRESENTATION(#411,#417);
#411 = PRODUCT_DEFINITION_SHAPE('','',#412);
#412 = PRODUCT_DEFINITION('design','',#413,#416);
#413 = PRODUCT_DEFINITION_FORMATION('','',#414);
#414 = PRODUCT(
'electronic_diode_fast_recovery_do_15_mdd_microdiode_semiconductor_
her204_render_pad',
'electronic_diode_fast_recovery_do_15_mdd_microdiode_semiconductor_
her204_render_pad','',(#415));
#415 = PRODUCT_CONTEXT('',#2,'mechanical');
#416 = PRODUCT_DEFINITION_CONTEXT('part definition',#2,'design');
#417 = SHAPE_REPRESENTATION('',(#11,#418,#747,#1076,#1168,#1260,#1352),
  #1444);
#418 = MANIFOLD_SOLID_BREP('',#419);
#419 = CLOSED_SHELL('',(#420,#462,#493,#524,#587,#650,#667,#684,#701,
    #718,#730));
#420 = ADVANCED_FACE('',(#421),#457,.T.);
#421 = FACE_BOUND('',#422,.T.);
#422 = EDGE_LOOP('',(#423,#433,#442,#450));
#423 = ORIENTED_EDGE('',*,*,#424,.T.);
#424 = EDGE_CURVE('',#425,#427,#429,.T.);
#425 = VERTEX_POINT('',#426);
#426 = CARTESIAN_POINT('',(-1.2,0.949999,1.51));
#427 = VERTEX_POINT('',#428);
#428 = CARTESIAN_POINT('',(-1.2,0.949999,1.55));
#429 = LINE('',#430,#431);
#430 = CARTESIAN_POINT('',(-1.2,0.949999,1.51));
#431 = VECTOR('',#432,1.);
#432 = DIRECTION('',(0.,0.,1.));
#433 = ORIENTED_EDGE('',*,*,#434,.T.);
#434 = EDGE_CURVE('',#427,#435,#437,.T.);
#435 = VERTEX_POINT('',#436);
#436 = CARTESIAN_POINT('',(-0.949998,1.199999,1.55));
#437 = CIRCLE('',#438,0.25000066679);
#438 = AXIS2_PLACEMENT_3D('',#439,#440,#441);
#439 = CARTESIAN_POINT('',(-0.949999333211,0.949998333214,1.55));
#440 = DIRECTION('',(0.,0.,-1.));
#441 = DIRECTION('',(-0.999999999996,2.667137061173E-06,0.));
#442 = ORIENTED_EDGE('',*,*,#443,.F.);
#443 = EDGE_CURVE('',#444,#435,#446,.T.);
#444 = VERTEX_POINT('',#445);
#445 = CARTESIAN_POINT('',(-0.949998,1.199999,1.51));
#446 = LINE('',#447,#448);
#447 = CARTESIAN_POINT('',(-0.949998,1.199999,1.51));
#448 = VECTOR('',#449,1.);
#449 = DIRECTION('',(0.,0.,1.));
#450 = ORIENTED_EDGE('',*,*,#451,.F.);
#451 = EDGE_CURVE('',#425,#444,#452,.T.);
#452 = CIRCLE('',#453,0.25000066679);
#453 = AXIS2_PLACEMENT_3D('',#454,#455,#456);
#454 = CARTESIAN_POINT('',(-0.949999333211,0.949998333214,1.51));
#455 = DIRECTION('',(0.,0.,-1.));
#456 = DIRECTION('',(-0.999999999996,2.667137061173E-06,0.));
#457 = CYLINDRICAL_SURFACE('',#458,0.25000066679);
#458 = AXIS2_PLACEMENT_3D('',#459,#460,#461);
#459 = CARTESIAN_POINT('',(-0.949999333211,0.949998333214,1.51));
#460 = DIRECTION('',(0.,0.,-1.));
#461 = DIRECTION('',(-0.999999999996,2.667137061173E-06,0.));
#462 = ADVANCED_FACE('',(#463),#488,.T.);
#463 = FACE_BOUND('',#464,.T.);
#464 = EDGE_LOOP('',(#465,#475,#481,#482));
#465 = ORIENTED_EDGE('',*,*,#466,.T.);
#466 = EDGE_CURVE('',#467,#469,#471,.T.);
#467 = VERTEX_POINT('',#468);
#468 = CARTESIAN_POINT('',(-1.199999,-0.949998,1.51));
#469 = VERTEX_POINT('',#470);
#470 = CARTESIAN_POINT('',(-1.199999,-0.949998,1.55));
#471 = LINE('',#472,#473);
#472 = CARTESIAN_POINT('',(-1.199999,-0.949998,1.51));
#473 = VECTOR('',#474,1.);
#474 = DIRECTION('',(0.,0.,1.));
#475 = ORIENTED_EDGE('',*,*,#476,.T.);
#476 = EDGE_CURVE('',#469,#427,#477,.T.);
#477 = LINE('',#478,#479);
#478 = CARTESIAN_POINT('',(-1.199999,-0.949998,1.55));
#479 = VECTOR('',#480,1.);
#480 = DIRECTION('',(-5.263166204566E-07,1.,0.));
#481 = ORIENTED_EDGE('',*,*,#424,.F.);
#482 = ORIENTED_EDGE('',*,*,#483,.F.);
#483 = EDGE_CURVE('',#467,#425,#484,.T.);
#484 = LINE('',#485,#486);
#485 = CARTESIAN_POINT('',(-1.199999,-0.949998,1.51));
#486 = VECTOR('',#487,1.);
#487 = DIRECTION('',(-5.263166204566E-07,1.,0.));
#488 = PLANE('',#489);
#489 = AXIS2_PLACEMENT_3D('',#490,#491,#492);
#490 = CARTESIAN_POINT('',(-1.199999,-0.949998,1.51));
#491 = DIRECTION('',(-1.,-5.263166204566E-07,0.));
#492 = DIRECTION('',(-5.263166204566E-07,1.,0.));
#493 = ADVANCED_FACE('',(#494),#519,.T.);
#494 = FACE_BOUND('',#495,.T.);
#495 = EDGE_LOOP('',(#496,#497,#505,#513));
#496 = ORIENTED_EDGE('',*,*,#443,.T.);
#497 = ORIENTED_EDGE('',*,*,#498,.T.);
#498 = EDGE_CURVE('',#435,#499,#501,.T.);
#499 = VERTEX_POINT('',#500);
#500 = CARTESIAN_POINT('',(0.949999,1.2,1.55));
#501 = LINE('',#502,#503);
#502 = CARTESIAN_POINT('',(-0.949998,1.199999,1.55));
#503 = VECTOR('',#504,1.);
#504 = DIRECTION('',(1.,5.263166204566E-07,0.));
#505 = ORIENTED_EDGE('',*,*,#506,.F.);
#506 = EDGE_CURVE('',#507,#499,#509,.T.);
#507 = VERTEX_POINT('',#508);
#508 = CARTESIAN_POINT('',(0.949999,1.2,1.51));
#509 = LINE('',#510,#511);
#510 = CARTESIAN_POINT('',(0.949999,1.2,1.51));
#511 = VECTOR('',#512,1.);
#512 = DIRECTION('',(0.,0.,1.));
#513 = ORIENTED_EDGE('',*,*,#514,.F.);
#514 = EDGE_CURVE('',#444,#507,#515,.T.);
#515 = LINE('',#516,#517);
#516 = CARTESIAN_POINT('',(-0.949998,1.199999,1.51));
#517 = VECTOR('',#518,1.);
#518 = DIRECTION('',(1.,5.263166204566E-07,0.));
#519 = PLANE('',#520);
#520 = AXIS2_PLACEMENT_3D('',#521,#522,#523);
#521 = CARTESIAN_POINT('',(-0.949998,1.199999,1.51));
#522 = DIRECTION('',(-5.263166204566E-07,1.,0.));
#523 = DIRECTION('',(1.,5.263166204566E-07,0.));
#524 = ADVANCED_FACE('',(#525,#571),#582,.F.);
#525 = FACE_BOUND('',#526,.F.);
#526 = EDGE_LOOP('',(#527,#528,#529,#538,#546,#555,#563,#570));
#527 = ORIENTED_EDGE('',*,*,#451,.F.);
#528 = ORIENTED_EDGE('',*,*,#483,.F.);
#529 = ORIENTED_EDGE('',*,*,#530,.F.);
#530 = EDGE_CURVE('',#531,#467,#533,.T.);
#531 = VERTEX_POINT('',#532);
#532 = CARTESIAN_POINT('',(-0.949999,-1.2,1.51));
#533 = CIRCLE('',#534,0.25000066679);
#534 = AXIS2_PLACEMENT_3D('',#535,#536,#537);
#535 = CARTESIAN_POINT('',(-0.949998333214,-0.949999333211,1.51));
#536 = DIRECTION('',(0.,0.,-1.));
#537 = DIRECTION('',(-2.667137061173E-06,-0.999999999996,-0.));
#538 = ORIENTED_EDGE('',*,*,#539,.F.);
#539 = EDGE_CURVE('',#540,#531,#542,.T.);
#540 = VERTEX_POINT('',#541);
#541 = CARTESIAN_POINT('',(0.949998,-1.199999,1.51));
#542 = LINE('',#543,#544);
#543 = CARTESIAN_POINT('',(0.949998,-1.199999,1.51));
#544 = VECTOR('',#545,1.);
#545 = DIRECTION('',(-1.,-5.263166204566E-07,0.));
#546 = ORIENTED_EDGE('',*,*,#547,.F.);
#547 = EDGE_CURVE('',#548,#540,#550,.T.);
#548 = VERTEX_POINT('',#549);
#549 = CARTESIAN_POINT('',(1.2,-0.949999,1.51));
#550 = CIRCLE('',#551,0.25000066679);
#551 = AXIS2_PLACEMENT_3D('',#552,#553,#554);
#552 = CARTESIAN_POINT('',(0.949999333211,-0.949998333214,1.51));
#553 = DIRECTION('',(0.,0.,-1.));
#554 = DIRECTION('',(0.999999999996,-2.667137061173E-06,0.));
#555 = ORIENTED_EDGE('',*,*,#556,.F.);
#556 = EDGE_CURVE('',#557,#548,#559,.T.);
#557 = VERTEX_POINT('',#558);
#558 = CARTESIAN_POINT('',(1.199999,0.949998,1.51));
#559 = LINE('',#560,#561);
#560 = CARTESIAN_POINT('',(1.199999,0.949998,1.51));
#561 = VECTOR('',#562,1.);
#562 = DIRECTION('',(5.263166204566E-07,-1.,0.));
#563 = ORIENTED_EDGE('',*,*,#564,.F.);
#564 = EDGE_CURVE('',#507,#557,#565,.T.);
#565 = CIRCLE('',#566,0.25000066679);
#566 = AXIS2_PLACEMENT_3D('',#567,#568,#569);
#567 = CARTESIAN_POINT('',(0.949998333214,0.949999333211,1.51));
#568 = DIRECTION('',(0.,0.,-1.));
#569 = DIRECTION('',(2.667137061173E-06,0.999999999996,0.));
#570 = ORIENTED_EDGE('',*,*,#514,.F.);
#571 = FACE_BOUND('',#572,.F.);
#572 = EDGE_LOOP('',(#573));
#573 = ORIENTED_EDGE('',*,*,#574,.T.);
#574 = EDGE_CURVE('',#575,#575,#577,.T.);
#575 = VERTEX_POINT('',#576);
#576 = CARTESIAN_POINT('',(0.,-0.575,1.51));
#577 = CIRCLE('',#578,0.575);
#578 = AXIS2_PLACEMENT_3D('',#579,#580,#581);
#579 = CARTESIAN_POINT('',(-5.551115123126E-17,5.551115123126E-17,1.51)
  );
#580 = DIRECTION('',(-0.,0.,-1.));
#581 = DIRECTION('',(9.65411325761E-17,-1.,-0.));
#582 = PLANE('',#583);
#583 = AXIS2_PLACEMENT_3D('',#584,#585,#586);
#584 = CARTESIAN_POINT('',(0.,0.,1.51));
#585 = DIRECTION('',(0.,0.,1.));
#586 = DIRECTION('',(1.,0.,-0.));
#587 = ADVANCED_FACE('',(#588,#634),#645,.T.);
#588 = FACE_BOUND('',#589,.T.);
#589 = EDGE_LOOP('',(#590,#591,#592,#601,#609,#618,#626,#633));
#590 = ORIENTED_EDGE('',*,*,#434,.F.);
#591 = ORIENTED_EDGE('',*,*,#476,.F.);
#592 = ORIENTED_EDGE('',*,*,#593,.F.);
#593 = EDGE_CURVE('',#594,#469,#596,.T.);
#594 = VERTEX_POINT('',#595);
#595 = CARTESIAN_POINT('',(-0.949999,-1.2,1.55));
#596 = CIRCLE('',#597,0.25000066679);
#597 = AXIS2_PLACEMENT_3D('',#598,#599,#600);
#598 = CARTESIAN_POINT('',(-0.949998333214,-0.949999333211,1.55));
#599 = DIRECTION('',(0.,0.,-1.));
#600 = DIRECTION('',(-2.667137061173E-06,-0.999999999996,-0.));
#601 = ORIENTED_EDGE('',*,*,#602,.F.);
#602 = EDGE_CURVE('',#603,#594,#605,.T.);
#603 = VERTEX_POINT('',#604);
#604 = CARTESIAN_POINT('',(0.949998,-1.199999,1.55));
#605 = LINE('',#606,#607);
#606 = CARTESIAN_POINT('',(0.949998,-1.199999,1.55));
#607 = VECTOR('',#608,1.);
#608 = DIRECTION('',(-1.,-5.263166204566E-07,0.));
#609 = ORIENTED_EDGE('',*,*,#610,.F.);
#610 = EDGE_CURVE('',#611,#603,#613,.T.);
#611 = VERTEX_POINT('',#612);
#612 = CARTESIAN_POINT('',(1.2,-0.949999,1.55));
#613 = CIRCLE('',#614,0.25000066679);
#614 = AXIS2_PLACEMENT_3D('',#615,#616,#617);
#615 = CARTESIAN_POINT('',(0.949999333211,-0.949998333214,1.55));
#616 = DIRECTION('',(0.,0.,-1.));
#617 = DIRECTION('',(0.999999999996,-2.667137061173E-06,0.));
#618 = ORIENTED_EDGE('',*,*,#619,.F.);
#619 = EDGE_CURVE('',#620,#611,#622,.T.);
#620 = VERTEX_POINT('',#621);
#621 = CARTESIAN_POINT('',(1.199999,0.949998,1.55));
#622 = LINE('',#623,#624);
#623 = CARTESIAN_POINT('',(1.199999,0.949998,1.55));
#624 = VECTOR('',#625,1.);
#625 = DIRECTION('',(5.263166204566E-07,-1.,0.));
#626 = ORIENTED_EDGE('',*,*,#627,.F.);
#627 = EDGE_CURVE('',#499,#620,#628,.T.);
#628 = CIRCLE('',#629,0.25000066679);
#629 = AXIS2_PLACEMENT_3D('',#630,#631,#632);
#630 = CARTESIAN_POINT('',(0.949998333214,0.949999333211,1.55));
#631 = DIRECTION('',(0.,0.,-1.));
#632 = DIRECTION('',(2.667137061173E-06,0.999999999996,0.));
#633 = ORIENTED_EDGE('',*,*,#498,.F.);
#634 = FACE_BOUND('',#635,.T.);
#635 = EDGE_LOOP('',(#636));
#636 = ORIENTED_EDGE('',*,*,#637,.T.);
#637 = EDGE_CURVE('',#638,#638,#640,.T.);
#638 = VERTEX_POINT('',#639);
#639 = CARTESIAN_POINT('',(0.,-0.575,1.55));
#640 = CIRCLE('',#641,0.575);
#641 = AXIS2_PLACEMENT_3D('',#642,#643,#644);
#642 = CARTESIAN_POINT('',(-5.551115123126E-17,5.551115123126E-17,1.55)
  );
#643 = DIRECTION('',(-0.,0.,-1.));
#644 = DIRECTION('',(9.65411325761E-17,-1.,-0.));
#645 = PLANE('',#646);
#646 = AXIS2_PLACEMENT_3D('',#647,#648,#649);
#647 = CARTESIAN_POINT('',(0.,0.,1.55));
#648 = DIRECTION('',(0.,0.,1.));
#649 = DIRECTION('',(1.,0.,-0.));
#650 = ADVANCED_FACE('',(#651),#662,.T.);
#651 = FACE_BOUND('',#652,.T.);
#652 = EDGE_LOOP('',(#653,#659,#660,#661));
#653 = ORIENTED_EDGE('',*,*,#654,.T.);
#654 = EDGE_CURVE('',#531,#594,#655,.T.);
#655 = LINE('',#656,#657);
#656 = CARTESIAN_POINT('',(-0.949999,-1.2,1.51));
#657 = VECTOR('',#658,1.);
#658 = DIRECTION('',(0.,0.,1.));
#659 = ORIENTED_EDGE('',*,*,#593,.T.);
#660 = ORIENTED_EDGE('',*,*,#466,.F.);
#661 = ORIENTED_EDGE('',*,*,#530,.F.);
#662 = CYLINDRICAL_SURFACE('',#663,0.25000066679);
#663 = AXIS2_PLACEMENT_3D('',#664,#665,#666);
#664 = CARTESIAN_POINT('',(-0.949998333214,-0.949999333211,1.51));
#665 = DIRECTION('',(0.,0.,-1.));
#666 = DIRECTION('',(-2.667137061173E-06,-0.999999999996,-0.));
#667 = ADVANCED_FACE('',(#668),#679,.T.);
#668 = FACE_BOUND('',#669,.T.);
#669 = EDGE_LOOP('',(#670,#671,#672,#678));
#670 = ORIENTED_EDGE('',*,*,#506,.T.);
#671 = ORIENTED_EDGE('',*,*,#627,.T.);
#672 = ORIENTED_EDGE('',*,*,#673,.F.);
#673 = EDGE_CURVE('',#557,#620,#674,.T.);
#674 = LINE('',#675,#676);
#675 = CARTESIAN_POINT('',(1.199999,0.949998,1.51));
#676 = VECTOR('',#677,1.);
#677 = DIRECTION('',(0.,0.,1.));
#678 = ORIENTED_EDGE('',*,*,#564,.F.);
#679 = CYLINDRICAL_SURFACE('',#680,0.25000066679);
#680 = AXIS2_PLACEMENT_3D('',#681,#682,#683);
#681 = CARTESIAN_POINT('',(0.949998333214,0.949999333211,1.51));
#682 = DIRECTION('',(0.,0.,-1.));
#683 = DIRECTION('',(2.667137061173E-06,0.999999999996,0.));
#684 = ADVANCED_FACE('',(#685),#696,.T.);
#685 = FACE_BOUND('',#686,.T.);
#686 = EDGE_LOOP('',(#687,#693,#694,#695));
#687 = ORIENTED_EDGE('',*,*,#688,.T.);
#688 = EDGE_CURVE('',#540,#603,#689,.T.);
#689 = LINE('',#690,#691);
#690 = CARTESIAN_POINT('',(0.949998,-1.199999,1.51));
#691 = VECTOR('',#692,1.);
#692 = DIRECTION('',(0.,0.,1.));
#693 = ORIENTED_EDGE('',*,*,#602,.T.);
#694 = ORIENTED_EDGE('',*,*,#654,.F.);
#695 = ORIENTED_EDGE('',*,*,#539,.F.);
#696 = PLANE('',#697);
#697 = AXIS2_PLACEMENT_3D('',#698,#699,#700);
#698 = CARTESIAN_POINT('',(0.949998,-1.199999,1.51));
#699 = DIRECTION('',(5.263166204566E-07,-1.,0.));
#700 = DIRECTION('',(-1.,-5.263166204566E-07,0.));
#701 = ADVANCED_FACE('',(#702),#713,.T.);
#702 = FACE_BOUND('',#703,.T.);
#703 = EDGE_LOOP('',(#704,#705,#706,#712));
#704 = ORIENTED_EDGE('',*,*,#673,.T.);
#705 = ORIENTED_EDGE('',*,*,#619,.T.);
#706 = ORIENTED_EDGE('',*,*,#707,.F.);
#707 = EDGE_CURVE('',#548,#611,#708,.T.);
#708 = LINE('',#709,#710);
#709 = CARTESIAN_POINT('',(1.2,-0.949999,1.51));
#710 = VECTOR('',#711,1.);
#711 = DIRECTION('',(0.,0.,1.));
#712 = ORIENTED_EDGE('',*,*,#556,.F.);
#713 = PLANE('',#714);
#714 = AXIS2_PLACEMENT_3D('',#715,#716,#717);
#715 = CARTESIAN_POINT('',(1.199999,0.949998,1.51));
#716 = DIRECTION('',(1.,5.263166204566E-07,-0.));
#717 = DIRECTION('',(5.263166204566E-07,-1.,0.));
#718 = ADVANCED_FACE('',(#719),#725,.T.);
#719 = FACE_BOUND('',#720,.T.);
#720 = EDGE_LOOP('',(#721,#722,#723,#724));
#721 = ORIENTED_EDGE('',*,*,#707,.T.);
#722 = ORIENTED_EDGE('',*,*,#610,.T.);
#723 = ORIENTED_EDGE('',*,*,#688,.F.);
#724 = ORIENTED_EDGE('',*,*,#547,.F.);
#725 = CYLINDRICAL_SURFACE('',#726,0.25000066679);
#726 = AXIS2_PLACEMENT_3D('',#727,#728,#729);
#727 = CARTESIAN_POINT('',(0.949999333211,-0.949998333214,1.51));
#728 = DIRECTION('',(0.,0.,-1.));
#729 = DIRECTION('',(0.999999999996,-2.667137061173E-06,0.));
#730 = ADVANCED_FACE('',(#731),#742,.F.);
#731 = FACE_BOUND('',#732,.T.);
#732 = EDGE_LOOP('',(#733,#734,#740,#741));
#733 = ORIENTED_EDGE('',*,*,#574,.T.);
#734 = ORIENTED_EDGE('',*,*,#735,.T.);
#735 = EDGE_CURVE('',#575,#638,#736,.T.);
#736 = LINE('',#737,#738);
#737 = CARTESIAN_POINT('',(0.,-0.575,-4.6E-02));
#738 = VECTOR('',#739,1.);
#739 = DIRECTION('',(0.,0.,1.));
#740 = ORIENTED_EDGE('',*,*,#637,.F.);
#741 = ORIENTED_EDGE('',*,*,#735,.F.);
#742 = CYLINDRICAL_SURFACE('',#743,0.575);
#743 = AXIS2_PLACEMENT_3D('',#744,#745,#746);
#744 = CARTESIAN_POINT('',(-5.551115123126E-17,5.551115123126E-17,
    -4.6E-02));
#745 = DIRECTION('',(-0.,0.,-1.));
#746 = DIRECTION('',(9.65411325761E-17,-1.,-0.));
#747 = MANIFOLD_SOLID_BREP('',#748);
#748 = CLOSED_SHELL('',(#749,#791,#822,#853,#916,#979,#996,#1013,#1030,
    #1047,#1059));
#749 = ADVANCED_FACE('',(#750),#786,.T.);
#750 = FACE_BOUND('',#751,.F.);
#751 = EDGE_LOOP('',(#752,#762,#771,#779));
#752 = ORIENTED_EDGE('',*,*,#753,.T.);
#753 = EDGE_CURVE('',#754,#756,#758,.T.);
#754 = VERTEX_POINT('',#755);
#755 = CARTESIAN_POINT('',(-1.2,0.949999,0.));
#756 = VERTEX_POINT('',#757);
#757 = CARTESIAN_POINT('',(-1.2,0.949999,-4.E-02));
#758 = LINE('',#759,#760);
#759 = CARTESIAN_POINT('',(-1.2,0.949999,0.));
#760 = VECTOR('',#761,1.);
#761 = DIRECTION('',(0.,0.,-1.));
#762 = ORIENTED_EDGE('',*,*,#763,.T.);
#763 = EDGE_CURVE('',#756,#764,#766,.T.);
#764 = VERTEX_POINT('',#765);
#765 = CARTESIAN_POINT('',(-0.949998,1.199999,-4.E-02));
#766 = CIRCLE('',#767,0.25000066679);
#767 = AXIS2_PLACEMENT_3D('',#768,#769,#770);
#768 = CARTESIAN_POINT('',(-0.949999333211,0.949998333214,-4.E-02));
#769 = DIRECTION('',(0.,0.,-1.));
#770 = DIRECTION('',(-0.999999999996,2.667137061173E-06,0.));
#771 = ORIENTED_EDGE('',*,*,#772,.F.);
#772 = EDGE_CURVE('',#773,#764,#775,.T.);
#773 = VERTEX_POINT('',#774);
#774 = CARTESIAN_POINT('',(-0.949998,1.199999,0.));
#775 = LINE('',#776,#777);
#776 = CARTESIAN_POINT('',(-0.949998,1.199999,0.));
#777 = VECTOR('',#778,1.);
#778 = DIRECTION('',(0.,0.,-1.));
#779 = ORIENTED_EDGE('',*,*,#780,.F.);
#780 = EDGE_CURVE('',#754,#773,#781,.T.);
#781 = CIRCLE('',#782,0.25000066679);
#782 = AXIS2_PLACEMENT_3D('',#783,#784,#785);
#783 = CARTESIAN_POINT('',(-0.949999333211,0.949998333214,0.));
#784 = DIRECTION('',(0.,0.,-1.));
#785 = DIRECTION('',(-0.999999999996,2.667137061173E-06,0.));
#786 = CYLINDRICAL_SURFACE('',#787,0.25000066679);
#787 = AXIS2_PLACEMENT_3D('',#788,#789,#790);
#788 = CARTESIAN_POINT('',(-0.949999333211,0.949998333214,0.));
#789 = DIRECTION('',(-0.,-0.,1.));
#790 = DIRECTION('',(-0.999999999996,2.667137061173E-06,0.));
#791 = ADVANCED_FACE('',(#792),#817,.F.);
#792 = FACE_BOUND('',#793,.F.);
#793 = EDGE_LOOP('',(#794,#804,#810,#811));
#794 = ORIENTED_EDGE('',*,*,#795,.T.);
#795 = EDGE_CURVE('',#796,#798,#800,.T.);
#796 = VERTEX_POINT('',#797);
#797 = CARTESIAN_POINT('',(-1.199999,-0.949998,0.));
#798 = VERTEX_POINT('',#799);
#799 = CARTESIAN_POINT('',(-1.199999,-0.949998,-4.E-02));
#800 = LINE('',#801,#802);
#801 = CARTESIAN_POINT('',(-1.199999,-0.949998,0.));
#802 = VECTOR('',#803,1.);
#803 = DIRECTION('',(0.,0.,-1.));
#804 = ORIENTED_EDGE('',*,*,#805,.T.);
#805 = EDGE_CURVE('',#798,#756,#806,.T.);
#806 = LINE('',#807,#808);
#807 = CARTESIAN_POINT('',(-1.199999,-0.949998,-4.E-02));
#808 = VECTOR('',#809,1.);
#809 = DIRECTION('',(-5.263166204566E-07,1.,0.));
#810 = ORIENTED_EDGE('',*,*,#753,.F.);
#811 = ORIENTED_EDGE('',*,*,#812,.F.);
#812 = EDGE_CURVE('',#796,#754,#813,.T.);
#813 = LINE('',#814,#815);
#814 = CARTESIAN_POINT('',(-1.199999,-0.949998,0.));
#815 = VECTOR('',#816,1.);
#816 = DIRECTION('',(-5.263166204566E-07,1.,0.));
#817 = PLANE('',#818);
#818 = AXIS2_PLACEMENT_3D('',#819,#820,#821);
#819 = CARTESIAN_POINT('',(-1.199999,-0.949998,0.));
#820 = DIRECTION('',(1.,5.263166204566E-07,0.));
#821 = DIRECTION('',(-5.263166204566E-07,1.,0.));
#822 = ADVANCED_FACE('',(#823),#848,.F.);
#823 = FACE_BOUND('',#824,.F.);
#824 = EDGE_LOOP('',(#825,#826,#834,#842));
#825 = ORIENTED_EDGE('',*,*,#772,.T.);
#826 = ORIENTED_EDGE('',*,*,#827,.T.);
#827 = EDGE_CURVE('',#764,#828,#830,.T.);
#828 = VERTEX_POINT('',#829);
#829 = CARTESIAN_POINT('',(0.949999,1.2,-4.E-02));
#830 = LINE('',#831,#832);
#831 = CARTESIAN_POINT('',(-0.949998,1.199999,-4.E-02));
#832 = VECTOR('',#833,1.);
#833 = DIRECTION('',(1.,5.263166204566E-07,0.));
#834 = ORIENTED_EDGE('',*,*,#835,.F.);
#835 = EDGE_CURVE('',#836,#828,#838,.T.);
#836 = VERTEX_POINT('',#837);
#837 = CARTESIAN_POINT('',(0.949999,1.2,0.));
#838 = LINE('',#839,#840);
#839 = CARTESIAN_POINT('',(0.949999,1.2,0.));
#840 = VECTOR('',#841,1.);
#841 = DIRECTION('',(0.,0.,-1.));
#842 = ORIENTED_EDGE('',*,*,#843,.F.);
#843 = EDGE_CURVE('',#773,#836,#844,.T.);
#844 = LINE('',#845,#846);
#845 = CARTESIAN_POINT('',(-0.949998,1.199999,0.));
#846 = VECTOR('',#847,1.);
#847 = DIRECTION('',(1.,5.263166204566E-07,0.));
#848 = PLANE('',#849);
#849 = AXIS2_PLACEMENT_3D('',#850,#851,#852);
#850 = CARTESIAN_POINT('',(-0.949998,1.199999,0.));
#851 = DIRECTION('',(5.263166204566E-07,-1.,0.));
#852 = DIRECTION('',(1.,5.263166204566E-07,0.));
#853 = ADVANCED_FACE('',(#854,#900),#911,.F.);
#854 = FACE_BOUND('',#855,.F.);
#855 = EDGE_LOOP('',(#856,#857,#858,#867,#875,#884,#892,#899));
#856 = ORIENTED_EDGE('',*,*,#780,.T.);
#857 = ORIENTED_EDGE('',*,*,#843,.T.);
#858 = ORIENTED_EDGE('',*,*,#859,.T.);
#859 = EDGE_CURVE('',#836,#860,#862,.T.);
#860 = VERTEX_POINT('',#861);
#861 = CARTESIAN_POINT('',(1.199999,0.949998,0.));
#862 = CIRCLE('',#863,0.25000066679);
#863 = AXIS2_PLACEMENT_3D('',#864,#865,#866);
#864 = CARTESIAN_POINT('',(0.949998333214,0.949999333211,0.));
#865 = DIRECTION('',(0.,0.,-1.));
#866 = DIRECTION('',(2.667137061173E-06,0.999999999996,0.));
#867 = ORIENTED_EDGE('',*,*,#868,.T.);
#868 = EDGE_CURVE('',#860,#869,#871,.T.);
#869 = VERTEX_POINT('',#870);
#870 = CARTESIAN_POINT('',(1.2,-0.949999,0.));
#871 = LINE('',#872,#873);
#872 = CARTESIAN_POINT('',(1.199999,0.949998,0.));
#873 = VECTOR('',#874,1.);
#874 = DIRECTION('',(5.263166204566E-07,-1.,0.));
#875 = ORIENTED_EDGE('',*,*,#876,.T.);
#876 = EDGE_CURVE('',#869,#877,#879,.T.);
#877 = VERTEX_POINT('',#878);
#878 = CARTESIAN_POINT('',(0.949998,-1.199999,0.));
#879 = CIRCLE('',#880,0.25000066679);
#880 = AXIS2_PLACEMENT_3D('',#881,#882,#883);
#881 = CARTESIAN_POINT('',(0.949999333211,-0.949998333214,0.));
#882 = DIRECTION('',(0.,0.,-1.));
#883 = DIRECTION('',(0.999999999996,-2.667137061173E-06,0.));
#884 = ORIENTED_EDGE('',*,*,#885,.T.);
#885 = EDGE_CURVE('',#877,#886,#888,.T.);
#886 = VERTEX_POINT('',#887);
#887 = CARTESIAN_POINT('',(-0.949999,-1.2,0.));
#888 = LINE('',#889,#890);
#889 = CARTESIAN_POINT('',(0.949998,-1.199999,0.));
#890 = VECTOR('',#891,1.);
#891 = DIRECTION('',(-1.,-5.263166204566E-07,0.));
#892 = ORIENTED_EDGE('',*,*,#893,.T.);
#893 = EDGE_CURVE('',#886,#796,#894,.T.);
#894 = CIRCLE('',#895,0.25000066679);
#895 = AXIS2_PLACEMENT_3D('',#896,#897,#898);
#896 = CARTESIAN_POINT('',(-0.949998333214,-0.949999333211,0.));
#897 = DIRECTION('',(0.,0.,-1.));
#898 = DIRECTION('',(-2.667137061173E-06,-0.999999999996,-0.));
#899 = ORIENTED_EDGE('',*,*,#812,.T.);
#900 = FACE_BOUND('',#901,.F.);
#901 = EDGE_LOOP('',(#902));
#902 = ORIENTED_EDGE('',*,*,#903,.F.);
#903 = EDGE_CURVE('',#904,#904,#906,.T.);
#904 = VERTEX_POINT('',#905);
#905 = CARTESIAN_POINT('',(0.,-0.575,0.));
#906 = CIRCLE('',#907,0.575);
#907 = AXIS2_PLACEMENT_3D('',#908,#909,#910);
#908 = CARTESIAN_POINT('',(-5.551115123126E-17,5.551115123126E-17,0.));
#909 = DIRECTION('',(-0.,0.,-1.));
#910 = DIRECTION('',(9.65411325761E-17,-1.,-0.));
#911 = PLANE('',#912);
#912 = AXIS2_PLACEMENT_3D('',#913,#914,#915);
#913 = CARTESIAN_POINT('',(0.,0.,0.));
#914 = DIRECTION('',(-0.,-0.,-1.));
#915 = DIRECTION('',(-1.,0.,0.));
#916 = ADVANCED_FACE('',(#917,#963),#974,.T.);
#917 = FACE_BOUND('',#918,.T.);
#918 = EDGE_LOOP('',(#919,#920,#921,#930,#938,#947,#955,#962));
#919 = ORIENTED_EDGE('',*,*,#763,.T.);
#920 = ORIENTED_EDGE('',*,*,#827,.T.);
#921 = ORIENTED_EDGE('',*,*,#922,.T.);
#922 = EDGE_CURVE('',#828,#923,#925,.T.);
#923 = VERTEX_POINT('',#924);
#924 = CARTESIAN_POINT('',(1.199999,0.949998,-4.E-02));
#925 = CIRCLE('',#926,0.25000066679);
#926 = AXIS2_PLACEMENT_3D('',#927,#928,#929);
#927 = CARTESIAN_POINT('',(0.949998333214,0.949999333211,-4.E-02));
#928 = DIRECTION('',(0.,0.,-1.));
#929 = DIRECTION('',(2.667137061173E-06,0.999999999996,0.));
#930 = ORIENTED_EDGE('',*,*,#931,.T.);
#931 = EDGE_CURVE('',#923,#932,#934,.T.);
#932 = VERTEX_POINT('',#933);
#933 = CARTESIAN_POINT('',(1.2,-0.949999,-4.E-02));
#934 = LINE('',#935,#936);
#935 = CARTESIAN_POINT('',(1.199999,0.949998,-4.E-02));
#936 = VECTOR('',#937,1.);
#937 = DIRECTION('',(5.263166204566E-07,-1.,0.));
#938 = ORIENTED_EDGE('',*,*,#939,.T.);
#939 = EDGE_CURVE('',#932,#940,#942,.T.);
#940 = VERTEX_POINT('',#941);
#941 = CARTESIAN_POINT('',(0.949998,-1.199999,-4.E-02));
#942 = CIRCLE('',#943,0.25000066679);
#943 = AXIS2_PLACEMENT_3D('',#944,#945,#946);
#944 = CARTESIAN_POINT('',(0.949999333211,-0.949998333214,-4.E-02));
#945 = DIRECTION('',(0.,0.,-1.));
#946 = DIRECTION('',(0.999999999996,-2.667137061173E-06,0.));
#947 = ORIENTED_EDGE('',*,*,#948,.T.);
#948 = EDGE_CURVE('',#940,#949,#951,.T.);
#949 = VERTEX_POINT('',#950);
#950 = CARTESIAN_POINT('',(-0.949999,-1.2,-4.E-02));
#951 = LINE('',#952,#953);
#952 = CARTESIAN_POINT('',(0.949998,-1.199999,-4.E-02));
#953 = VECTOR('',#954,1.);
#954 = DIRECTION('',(-1.,-5.263166204566E-07,0.));
#955 = ORIENTED_EDGE('',*,*,#956,.T.);
#956 = EDGE_CURVE('',#949,#798,#957,.T.);
#957 = CIRCLE('',#958,0.25000066679);
#958 = AXIS2_PLACEMENT_3D('',#959,#960,#961);
#959 = CARTESIAN_POINT('',(-0.949998333214,-0.949999333211,-4.E-02));
#960 = DIRECTION('',(0.,0.,-1.));
#961 = DIRECTION('',(-2.667137061173E-06,-0.999999999996,-0.));
#962 = ORIENTED_EDGE('',*,*,#805,.T.);
#963 = FACE_BOUND('',#964,.T.);
#964 = EDGE_LOOP('',(#965));
#965 = ORIENTED_EDGE('',*,*,#966,.F.);
#966 = EDGE_CURVE('',#967,#967,#969,.T.);
#967 = VERTEX_POINT('',#968);
#968 = CARTESIAN_POINT('',(0.,-0.575,-4.E-02));
#969 = CIRCLE('',#970,0.575);
#970 = AXIS2_PLACEMENT_3D('',#971,#972,#973);
#971 = CARTESIAN_POINT('',(-5.551115123126E-17,5.551115123126E-17,
    -4.E-02));
#972 = DIRECTION('',(-0.,0.,-1.));
#973 = DIRECTION('',(9.65411325761E-17,-1.,-0.));
#974 = PLANE('',#975);
#975 = AXIS2_PLACEMENT_3D('',#976,#977,#978);
#976 = CARTESIAN_POINT('',(0.,0.,-4.E-02));
#977 = DIRECTION('',(-0.,-0.,-1.));
#978 = DIRECTION('',(-1.,0.,0.));
#979 = ADVANCED_FACE('',(#980),#991,.T.);
#980 = FACE_BOUND('',#981,.F.);
#981 = EDGE_LOOP('',(#982,#988,#989,#990));
#982 = ORIENTED_EDGE('',*,*,#983,.T.);
#983 = EDGE_CURVE('',#886,#949,#984,.T.);
#984 = LINE('',#985,#986);
#985 = CARTESIAN_POINT('',(-0.949999,-1.2,0.));
#986 = VECTOR('',#987,1.);
#987 = DIRECTION('',(0.,0.,-1.));
#988 = ORIENTED_EDGE('',*,*,#956,.T.);
#989 = ORIENTED_EDGE('',*,*,#795,.F.);
#990 = ORIENTED_EDGE('',*,*,#893,.F.);
#991 = CYLINDRICAL_SURFACE('',#992,0.25000066679);
#992 = AXIS2_PLACEMENT_3D('',#993,#994,#995);
#993 = CARTESIAN_POINT('',(-0.949998333214,-0.949999333211,0.));
#994 = DIRECTION('',(-0.,-0.,1.));
#995 = DIRECTION('',(-2.667137061173E-06,-0.999999999996,-0.));
#996 = ADVANCED_FACE('',(#997),#1008,.T.);
#997 = FACE_BOUND('',#998,.F.);
#998 = EDGE_LOOP('',(#999,#1000,#1001,#1007));
#999 = ORIENTED_EDGE('',*,*,#835,.T.);
#1000 = ORIENTED_EDGE('',*,*,#922,.T.);
#1001 = ORIENTED_EDGE('',*,*,#1002,.F.);
#1002 = EDGE_CURVE('',#860,#923,#1003,.T.);
#1003 = LINE('',#1004,#1005);
#1004 = CARTESIAN_POINT('',(1.199999,0.949998,0.));
#1005 = VECTOR('',#1006,1.);
#1006 = DIRECTION('',(0.,0.,-1.));
#1007 = ORIENTED_EDGE('',*,*,#859,.F.);
#1008 = CYLINDRICAL_SURFACE('',#1009,0.25000066679);
#1009 = AXIS2_PLACEMENT_3D('',#1010,#1011,#1012);
#1010 = CARTESIAN_POINT('',(0.949998333214,0.949999333211,0.));
#1011 = DIRECTION('',(-0.,-0.,1.));
#1012 = DIRECTION('',(2.667137061173E-06,0.999999999996,0.));
#1013 = ADVANCED_FACE('',(#1014),#1025,.F.);
#1014 = FACE_BOUND('',#1015,.F.);
#1015 = EDGE_LOOP('',(#1016,#1022,#1023,#1024));
#1016 = ORIENTED_EDGE('',*,*,#1017,.T.);
#1017 = EDGE_CURVE('',#877,#940,#1018,.T.);
#1018 = LINE('',#1019,#1020);
#1019 = CARTESIAN_POINT('',(0.949998,-1.199999,0.));
#1020 = VECTOR('',#1021,1.);
#1021 = DIRECTION('',(0.,0.,-1.));
#1022 = ORIENTED_EDGE('',*,*,#948,.T.);
#1023 = ORIENTED_EDGE('',*,*,#983,.F.);
#1024 = ORIENTED_EDGE('',*,*,#885,.F.);
#1025 = PLANE('',#1026);
#1026 = AXIS2_PLACEMENT_3D('',#1027,#1028,#1029);
#1027 = CARTESIAN_POINT('',(0.949998,-1.199999,0.));
#1028 = DIRECTION('',(-5.263166204566E-07,1.,0.));
#1029 = DIRECTION('',(-1.,-5.263166204566E-07,0.));
#1030 = ADVANCED_FACE('',(#1031),#1042,.F.);
#1031 = FACE_BOUND('',#1032,.F.);
#1032 = EDGE_LOOP('',(#1033,#1034,#1035,#1041));
#1033 = ORIENTED_EDGE('',*,*,#1002,.T.);
#1034 = ORIENTED_EDGE('',*,*,#931,.T.);
#1035 = ORIENTED_EDGE('',*,*,#1036,.F.);
#1036 = EDGE_CURVE('',#869,#932,#1037,.T.);
#1037 = LINE('',#1038,#1039);
#1038 = CARTESIAN_POINT('',(1.2,-0.949999,0.));
#1039 = VECTOR('',#1040,1.);
#1040 = DIRECTION('',(0.,0.,-1.));
#1041 = ORIENTED_EDGE('',*,*,#868,.F.);
#1042 = PLANE('',#1043);
#1043 = AXIS2_PLACEMENT_3D('',#1044,#1045,#1046);
#1044 = CARTESIAN_POINT('',(1.199999,0.949998,0.));
#1045 = DIRECTION('',(-1.,-5.263166204566E-07,-0.));
#1046 = DIRECTION('',(5.263166204566E-07,-1.,0.));
#1047 = ADVANCED_FACE('',(#1048),#1054,.T.);
#1048 = FACE_BOUND('',#1049,.F.);
#1049 = EDGE_LOOP('',(#1050,#1051,#1052,#1053));
#1050 = ORIENTED_EDGE('',*,*,#1036,.T.);
#1051 = ORIENTED_EDGE('',*,*,#939,.T.);
#1052 = ORIENTED_EDGE('',*,*,#1017,.F.);
#1053 = ORIENTED_EDGE('',*,*,#876,.F.);
#1054 = CYLINDRICAL_SURFACE('',#1055,0.25000066679);
#1055 = AXIS2_PLACEMENT_3D('',#1056,#1057,#1058);
#1056 = CARTESIAN_POINT('',(0.949999333211,-0.949998333214,0.));
#1057 = DIRECTION('',(-0.,-0.,1.));
#1058 = DIRECTION('',(0.999999999996,-2.667137061173E-06,0.));
#1059 = ADVANCED_FACE('',(#1060),#1071,.F.);
#1060 = FACE_BOUND('',#1061,.T.);
#1061 = EDGE_LOOP('',(#1062,#1063,#1069,#1070));
#1062 = ORIENTED_EDGE('',*,*,#966,.T.);
#1063 = ORIENTED_EDGE('',*,*,#1064,.T.);
#1064 = EDGE_CURVE('',#967,#904,#1065,.T.);
#1065 = LINE('',#1066,#1067);
#1066 = CARTESIAN_POINT('',(0.,-0.575,-4.6E-02));
#1067 = VECTOR('',#1068,1.);
#1068 = DIRECTION('',(0.,0.,1.));
#1069 = ORIENTED_EDGE('',*,*,#903,.F.);
#1070 = ORIENTED_EDGE('',*,*,#1064,.F.);
#1071 = CYLINDRICAL_SURFACE('',#1072,0.575);
#1072 = AXIS2_PLACEMENT_3D('',#1073,#1074,#1075);
#1073 = CARTESIAN_POINT('',(-5.551115123126E-17,5.551115123126E-17,
    -4.6E-02));
#1074 = DIRECTION('',(-0.,0.,-1.));
#1075 = DIRECTION('',(9.65411325761E-17,-1.,-0.));
#1076 = MANIFOLD_SOLID_BREP('',#1077);
#1077 = CLOSED_SHELL('',(#1078,#1111,#1131,#1151));
#1078 = ADVANCED_FACE('',(#1079),#1106,.T.);
#1079 = FACE_BOUND('',#1080,.F.);
#1080 = EDGE_LOOP('',(#1081,#1091,#1098,#1099));
#1081 = ORIENTED_EDGE('',*,*,#1082,.T.);
#1082 = EDGE_CURVE('',#1083,#1085,#1087,.T.);
#1083 = VERTEX_POINT('',#1084);
#1084 = CARTESIAN_POINT('',(-6.162975822039E-33,-0.6,-4.E-02));
#1085 = VERTEX_POINT('',#1086);
#1086 = CARTESIAN_POINT('',(-6.162975822039E-33,-0.6,1.55));
#1087 = LINE('',#1088,#1089);
#1088 = CARTESIAN_POINT('',(-6.162975822039E-33,-0.6,-4.E-02));
#1089 = VECTOR('',#1090,1.);
#1090 = DIRECTION('',(0.,0.,1.));
#1091 = ORIENTED_EDGE('',*,*,#1092,.T.);
#1092 = EDGE_CURVE('',#1085,#1085,#1093,.T.);
#1093 = CIRCLE('',#1094,0.6);
#1094 = AXIS2_PLACEMENT_3D('',#1095,#1096,#1097);
#1095 = CARTESIAN_POINT('',(-5.551115123126E-17,1.110223024625E-16,1.55)
  );
#1096 = DIRECTION('',(0.,-0.,1.));
#1097 = DIRECTION('',(9.251858538543E-17,-1.,-0.));
#1098 = ORIENTED_EDGE('',*,*,#1082,.F.);
#1099 = ORIENTED_EDGE('',*,*,#1100,.F.);
#1100 = EDGE_CURVE('',#1083,#1083,#1101,.T.);
#1101 = CIRCLE('',#1102,0.6);
#1102 = AXIS2_PLACEMENT_3D('',#1103,#1104,#1105);
#1103 = CARTESIAN_POINT('',(-5.551115123126E-17,1.110223024625E-16,
    -4.E-02));
#1104 = DIRECTION('',(0.,-0.,1.));
#1105 = DIRECTION('',(9.251858538543E-17,-1.,-0.));
#1106 = CYLINDRICAL_SURFACE('',#1107,0.6);
#1107 = AXIS2_PLACEMENT_3D('',#1108,#1109,#1110);
#1108 = CARTESIAN_POINT('',(-5.551115123126E-17,1.110223024625E-16,
    -4.E-02));
#1109 = DIRECTION('',(-0.,0.,-1.));
#1110 = DIRECTION('',(9.251858538543E-17,-1.,-0.));
#1111 = ADVANCED_FACE('',(#1112,#1115),#1126,.F.);
#1112 = FACE_BOUND('',#1113,.F.);
#1113 = EDGE_LOOP('',(#1114));
#1114 = ORIENTED_EDGE('',*,*,#1100,.T.);
#1115 = FACE_BOUND('',#1116,.F.);
#1116 = EDGE_LOOP('',(#1117));
#1117 = ORIENTED_EDGE('',*,*,#1118,.T.);
#1118 = EDGE_CURVE('',#1119,#1119,#1121,.T.);
#1119 = VERTEX_POINT('',#1120);
#1120 = CARTESIAN_POINT('',(0.,-0.575,-4.E-02));
#1121 = CIRCLE('',#1122,0.575);
#1122 = AXIS2_PLACEMENT_3D('',#1123,#1124,#1125);
#1123 = CARTESIAN_POINT('',(-5.551115123126E-17,5.551115123126E-17,
    -4.E-02));
#1124 = DIRECTION('',(-0.,0.,-1.));
#1125 = DIRECTION('',(9.65411325761E-17,-1.,-0.));
#1126 = PLANE('',#1127);
#1127 = AXIS2_PLACEMENT_3D('',#1128,#1129,#1130);
#1128 = CARTESIAN_POINT('',(0.,-0.6,-4.E-02));
#1129 = DIRECTION('',(0.,0.,1.));
#1130 = DIRECTION('',(1.,0.,-0.));
#1131 = ADVANCED_FACE('',(#1132,#1135),#1146,.T.);
#1132 = FACE_BOUND('',#1133,.T.);
#1133 = EDGE_LOOP('',(#1134));
#1134 = ORIENTED_EDGE('',*,*,#1092,.T.);
#1135 = FACE_BOUND('',#1136,.T.);
#1136 = EDGE_LOOP('',(#1137));
#1137 = ORIENTED_EDGE('',*,*,#1138,.T.);
#1138 = EDGE_CURVE('',#1139,#1139,#1141,.T.);
#1139 = VERTEX_POINT('',#1140);
#1140 = CARTESIAN_POINT('',(0.,-0.575,1.55));
#1141 = CIRCLE('',#1142,0.575);
#1142 = AXIS2_PLACEMENT_3D('',#1143,#1144,#1145);
#1143 = CARTESIAN_POINT('',(-5.551115123126E-17,5.551115123126E-17,1.55)
  );
#1144 = DIRECTION('',(-0.,0.,-1.));
#1145 = DIRECTION('',(9.65411325761E-17,-1.,-0.));
#1146 = PLANE('',#1147);
#1147 = AXIS2_PLACEMENT_3D('',#1148,#1149,#1150);
#1148 = CARTESIAN_POINT('',(0.,-0.6,1.55));
#1149 = DIRECTION('',(0.,0.,1.));
#1150 = DIRECTION('',(1.,0.,-0.));
#1151 = ADVANCED_FACE('',(#1152),#1163,.F.);
#1152 = FACE_BOUND('',#1153,.T.);
#1153 = EDGE_LOOP('',(#1154,#1155,#1161,#1162));
#1154 = ORIENTED_EDGE('',*,*,#1118,.T.);
#1155 = ORIENTED_EDGE('',*,*,#1156,.T.);
#1156 = EDGE_CURVE('',#1119,#1139,#1157,.T.);
#1157 = LINE('',#1158,#1159);
#1158 = CARTESIAN_POINT('',(0.,-0.575,-4.6E-02));
#1159 = VECTOR('',#1160,1.);
#1160 = DIRECTION('',(0.,0.,1.));
#1161 = ORIENTED_EDGE('',*,*,#1138,.F.);
#1162 = ORIENTED_EDGE('',*,*,#1156,.F.);
#1163 = CYLINDRICAL_SURFACE('',#1164,0.575);
#1164 = AXIS2_PLACEMENT_3D('',#1165,#1166,#1167);
#1165 = CARTESIAN_POINT('',(-5.551115123126E-17,5.551115123126E-17,
    -4.6E-02));
#1166 = DIRECTION('',(-0.,0.,-1.));
#1167 = DIRECTION('',(9.65411325761E-17,-1.,-0.));
#1168 = MANIFOLD_SOLID_BREP('',#1169);
#1169 = CLOSED_SHELL('',(#1170,#1203,#1223,#1243));
#1170 = ADVANCED_FACE('',(#1171),#1198,.T.);
#1171 = FACE_BOUND('',#1172,.F.);
#1172 = EDGE_LOOP('',(#1173,#1183,#1190,#1191));
#1173 = ORIENTED_EDGE('',*,*,#1174,.T.);
#1174 = EDGE_CURVE('',#1175,#1177,#1179,.T.);
#1175 = VERTEX_POINT('',#1176);
#1176 = CARTESIAN_POINT('',(11.359999,0.,1.51));
#1177 = VERTEX_POINT('',#1178);
#1178 = CARTESIAN_POINT('',(11.359999,0.,1.55));
#1179 = LINE('',#1180,#1181);
#1180 = CARTESIAN_POINT('',(11.359999,0.,1.51));
#1181 = VECTOR('',#1182,1.);
#1182 = DIRECTION('',(0.,0.,1.));
#1183 = ORIENTED_EDGE('',*,*,#1184,.T.);
#1184 = EDGE_CURVE('',#1177,#1177,#1185,.T.);
#1185 = CIRCLE('',#1186,1.199999);
#1186 = AXIS2_PLACEMENT_3D('',#1187,#1188,#1189);
#1187 = CARTESIAN_POINT('',(10.16,0.,1.55));
#1188 = DIRECTION('',(0.,0.,1.));
#1189 = DIRECTION('',(1.,0.,-0.));
#1190 = ORIENTED_EDGE('',*,*,#1174,.F.);
#1191 = ORIENTED_EDGE('',*,*,#1192,.F.);
#1192 = EDGE_CURVE('',#1175,#1175,#1193,.T.);
#1193 = CIRCLE('',#1194,1.199999);
#1194 = AXIS2_PLACEMENT_3D('',#1195,#1196,#1197);
#1195 = CARTESIAN_POINT('',(10.16,-0.,1.51));
#1196 = DIRECTION('',(0.,0.,1.));
#1197 = DIRECTION('',(1.,0.,-0.));
#1198 = CYLINDRICAL_SURFACE('',#1199,1.199999);
#1199 = AXIS2_PLACEMENT_3D('',#1200,#1201,#1202);
#1200 = CARTESIAN_POINT('',(10.16,-0.,1.51));
#1201 = DIRECTION('',(-0.,-0.,-1.));
#1202 = DIRECTION('',(1.,0.,-0.));
#1203 = ADVANCED_FACE('',(#1204,#1207),#1218,.F.);
#1204 = FACE_BOUND('',#1205,.F.);
#1205 = EDGE_LOOP('',(#1206));
#1206 = ORIENTED_EDGE('',*,*,#1192,.T.);
#1207 = FACE_BOUND('',#1208,.F.);
#1208 = EDGE_LOOP('',(#1209));
#1209 = ORIENTED_EDGE('',*,*,#1210,.T.);
#1210 = EDGE_CURVE('',#1211,#1211,#1213,.T.);
#1211 = VERTEX_POINT('',#1212);
#1212 = CARTESIAN_POINT('',(10.16,-0.575,1.51));
#1213 = CIRCLE('',#1214,0.575);
#1214 = AXIS2_PLACEMENT_3D('',#1215,#1216,#1217);
#1215 = CARTESIAN_POINT('',(10.16,-6.383782391595E-16,1.51));
#1216 = DIRECTION('',(-0.,0.,-1.));
#1217 = DIRECTION('',(-0.,-1.,0.));
#1218 = PLANE('',#1219);
#1219 = AXIS2_PLACEMENT_3D('',#1220,#1221,#1222);
#1220 = CARTESIAN_POINT('',(0.,0.,1.51));
#1221 = DIRECTION('',(0.,0.,1.));
#1222 = DIRECTION('',(1.,0.,-0.));
#1223 = ADVANCED_FACE('',(#1224,#1227),#1238,.T.);
#1224 = FACE_BOUND('',#1225,.T.);
#1225 = EDGE_LOOP('',(#1226));
#1226 = ORIENTED_EDGE('',*,*,#1184,.T.);
#1227 = FACE_BOUND('',#1228,.T.);
#1228 = EDGE_LOOP('',(#1229));
#1229 = ORIENTED_EDGE('',*,*,#1230,.T.);
#1230 = EDGE_CURVE('',#1231,#1231,#1233,.T.);
#1231 = VERTEX_POINT('',#1232);
#1232 = CARTESIAN_POINT('',(10.16,-0.575,1.55));
#1233 = CIRCLE('',#1234,0.575);
#1234 = AXIS2_PLACEMENT_3D('',#1235,#1236,#1237);
#1235 = CARTESIAN_POINT('',(10.16,-6.383782391595E-16,1.55));
#1236 = DIRECTION('',(-0.,0.,-1.));
#1237 = DIRECTION('',(-0.,-1.,0.));
#1238 = PLANE('',#1239);
#1239 = AXIS2_PLACEMENT_3D('',#1240,#1241,#1242);
#1240 = CARTESIAN_POINT('',(0.,0.,1.55));
#1241 = DIRECTION('',(0.,0.,1.));
#1242 = DIRECTION('',(1.,0.,-0.));
#1243 = ADVANCED_FACE('',(#1244),#1255,.F.);
#1244 = FACE_BOUND('',#1245,.T.);
#1245 = EDGE_LOOP('',(#1246,#1247,#1253,#1254));
#1246 = ORIENTED_EDGE('',*,*,#1210,.T.);
#1247 = ORIENTED_EDGE('',*,*,#1248,.T.);
#1248 = EDGE_CURVE('',#1211,#1231,#1249,.T.);
#1249 = LINE('',#1250,#1251);
#1250 = CARTESIAN_POINT('',(10.16,-0.575,-4.6E-02));
#1251 = VECTOR('',#1252,1.);
#1252 = DIRECTION('',(0.,0.,1.));
#1253 = ORIENTED_EDGE('',*,*,#1230,.F.);
#1254 = ORIENTED_EDGE('',*,*,#1248,.F.);
#1255 = CYLINDRICAL_SURFACE('',#1256,0.575);
#1256 = AXIS2_PLACEMENT_3D('',#1257,#1258,#1259);
#1257 = CARTESIAN_POINT('',(10.16,-6.383782391595E-16,-4.6E-02));
#1258 = DIRECTION('',(-0.,-0.,-1.));
#1259 = DIRECTION('',(-0.,-1.,0.));
#1260 = MANIFOLD_SOLID_BREP('',#1261);
#1261 = CLOSED_SHELL('',(#1262,#1295,#1315,#1335));
#1262 = ADVANCED_FACE('',(#1263),#1290,.T.);
#1263 = FACE_BOUND('',#1264,.T.);
#1264 = EDGE_LOOP('',(#1265,#1275,#1282,#1283));
#1265 = ORIENTED_EDGE('',*,*,#1266,.T.);
#1266 = EDGE_CURVE('',#1267,#1269,#1271,.T.);
#1267 = VERTEX_POINT('',#1268);
#1268 = CARTESIAN_POINT('',(11.359999,0.,0.));
#1269 = VERTEX_POINT('',#1270);
#1270 = CARTESIAN_POINT('',(11.359999,0.,-4.E-02));
#1271 = LINE('',#1272,#1273);
#1272 = CARTESIAN_POINT('',(11.359999,0.,0.));
#1273 = VECTOR('',#1274,1.);
#1274 = DIRECTION('',(0.,0.,-1.));
#1275 = ORIENTED_EDGE('',*,*,#1276,.T.);
#1276 = EDGE_CURVE('',#1269,#1269,#1277,.T.);
#1277 = CIRCLE('',#1278,1.199999);
#1278 = AXIS2_PLACEMENT_3D('',#1279,#1280,#1281);
#1279 = CARTESIAN_POINT('',(10.16,0.,-4.E-02));
#1280 = DIRECTION('',(0.,0.,1.));
#1281 = DIRECTION('',(1.,0.,-0.));
#1282 = ORIENTED_EDGE('',*,*,#1266,.F.);
#1283 = ORIENTED_EDGE('',*,*,#1284,.F.);
#1284 = EDGE_CURVE('',#1267,#1267,#1285,.T.);
#1285 = CIRCLE('',#1286,1.199999);
#1286 = AXIS2_PLACEMENT_3D('',#1287,#1288,#1289);
#1287 = CARTESIAN_POINT('',(10.16,-0.,0.));
#1288 = DIRECTION('',(0.,0.,1.));
#1289 = DIRECTION('',(1.,0.,-0.));
#1290 = CYLINDRICAL_SURFACE('',#1291,1.199999);
#1291 = AXIS2_PLACEMENT_3D('',#1292,#1293,#1294);
#1292 = CARTESIAN_POINT('',(10.16,-0.,0.));
#1293 = DIRECTION('',(0.,0.,1.));
#1294 = DIRECTION('',(1.,0.,-0.));
#1295 = ADVANCED_FACE('',(#1296,#1299),#1310,.F.);
#1296 = FACE_BOUND('',#1297,.F.);
#1297 = EDGE_LOOP('',(#1298));
#1298 = ORIENTED_EDGE('',*,*,#1284,.F.);
#1299 = FACE_BOUND('',#1300,.F.);
#1300 = EDGE_LOOP('',(#1301));
#1301 = ORIENTED_EDGE('',*,*,#1302,.F.);
#1302 = EDGE_CURVE('',#1303,#1303,#1305,.T.);
#1303 = VERTEX_POINT('',#1304);
#1304 = CARTESIAN_POINT('',(10.16,-0.575,0.));
#1305 = CIRCLE('',#1306,0.575);
#1306 = AXIS2_PLACEMENT_3D('',#1307,#1308,#1309);
#1307 = CARTESIAN_POINT('',(10.16,-6.383782391595E-16,0.));
#1308 = DIRECTION('',(-0.,0.,-1.));
#1309 = DIRECTION('',(-0.,-1.,0.));
#1310 = PLANE('',#1311);
#1311 = AXIS2_PLACEMENT_3D('',#1312,#1313,#1314);
#1312 = CARTESIAN_POINT('',(0.,0.,0.));
#1313 = DIRECTION('',(-0.,-0.,-1.));
#1314 = DIRECTION('',(-1.,0.,0.));
#1315 = ADVANCED_FACE('',(#1316,#1319),#1330,.T.);
#1316 = FACE_BOUND('',#1317,.T.);
#1317 = EDGE_LOOP('',(#1318));
#1318 = ORIENTED_EDGE('',*,*,#1276,.F.);
#1319 = FACE_BOUND('',#1320,.T.);
#1320 = EDGE_LOOP('',(#1321));
#1321 = ORIENTED_EDGE('',*,*,#1322,.F.);
#1322 = EDGE_CURVE('',#1323,#1323,#1325,.T.);
#1323 = VERTEX_POINT('',#1324);
#1324 = CARTESIAN_POINT('',(10.16,-0.575,-4.E-02));
#1325 = CIRCLE('',#1326,0.575);
#1326 = AXIS2_PLACEMENT_3D('',#1327,#1328,#1329);
#1327 = CARTESIAN_POINT('',(10.16,-6.383782391595E-16,-4.E-02));
#1328 = DIRECTION('',(-0.,0.,-1.));
#1329 = DIRECTION('',(-0.,-1.,0.));
#1330 = PLANE('',#1331);
#1331 = AXIS2_PLACEMENT_3D('',#1332,#1333,#1334);
#1332 = CARTESIAN_POINT('',(0.,0.,-4.E-02));
#1333 = DIRECTION('',(-0.,-0.,-1.));
#1334 = DIRECTION('',(-1.,0.,0.));
#1335 = ADVANCED_FACE('',(#1336),#1347,.F.);
#1336 = FACE_BOUND('',#1337,.T.);
#1337 = EDGE_LOOP('',(#1338,#1339,#1345,#1346));
#1338 = ORIENTED_EDGE('',*,*,#1322,.T.);
#1339 = ORIENTED_EDGE('',*,*,#1340,.T.);
#1340 = EDGE_CURVE('',#1323,#1303,#1341,.T.);
#1341 = LINE('',#1342,#1343);
#1342 = CARTESIAN_POINT('',(10.16,-0.575,-4.6E-02));
#1343 = VECTOR('',#1344,1.);
#1344 = DIRECTION('',(0.,0.,1.));
#1345 = ORIENTED_EDGE('',*,*,#1302,.F.);
#1346 = ORIENTED_EDGE('',*,*,#1340,.F.);
#1347 = CYLINDRICAL_SURFACE('',#1348,0.575);
#1348 = AXIS2_PLACEMENT_3D('',#1349,#1350,#1351);
#1349 = CARTESIAN_POINT('',(10.16,-6.383782391595E-16,-4.6E-02));
#1350 = DIRECTION('',(-0.,-0.,-1.));
#1351 = DIRECTION('',(-0.,-1.,0.));
#1352 = MANIFOLD_SOLID_BREP('',#1353);
#1353 = CLOSED_SHELL('',(#1354,#1387,#1407,#1427));
#1354 = ADVANCED_FACE('',(#1355),#1382,.T.);
#1355 = FACE_BOUND('',#1356,.F.);
#1356 = EDGE_LOOP('',(#1357,#1367,#1374,#1375));
#1357 = ORIENTED_EDGE('',*,*,#1358,.T.);
#1358 = EDGE_CURVE('',#1359,#1361,#1363,.T.);
#1359 = VERTEX_POINT('',#1360);
#1360 = CARTESIAN_POINT('',(10.16,-0.6,-4.E-02));
#1361 = VERTEX_POINT('',#1362);
#1362 = CARTESIAN_POINT('',(10.16,-0.6,1.55));
#1363 = LINE('',#1364,#1365);
#1364 = CARTESIAN_POINT('',(10.16,-0.6,-4.E-02));
#1365 = VECTOR('',#1366,1.);
#1366 = DIRECTION('',(0.,0.,1.));
#1367 = ORIENTED_EDGE('',*,*,#1368,.T.);
#1368 = EDGE_CURVE('',#1361,#1361,#1369,.T.);
#1369 = CIRCLE('',#1370,0.6);
#1370 = AXIS2_PLACEMENT_3D('',#1371,#1372,#1373);
#1371 = CARTESIAN_POINT('',(10.16,5.828670879282E-16,1.55));
#1372 = DIRECTION('',(0.,0.,1.));
#1373 = DIRECTION('',(-0.,-1.,0.));
#1374 = ORIENTED_EDGE('',*,*,#1358,.F.);
#1375 = ORIENTED_EDGE('',*,*,#1376,.F.);
#1376 = EDGE_CURVE('',#1359,#1359,#1377,.T.);
#1377 = CIRCLE('',#1378,0.6);
#1378 = AXIS2_PLACEMENT_3D('',#1379,#1380,#1381);
#1379 = CARTESIAN_POINT('',(10.16,5.828670879282E-16,-4.E-02));
#1380 = DIRECTION('',(0.,0.,1.));
#1381 = DIRECTION('',(-0.,-1.,0.));
#1382 = CYLINDRICAL_SURFACE('',#1383,0.6);
#1383 = AXIS2_PLACEMENT_3D('',#1384,#1385,#1386);
#1384 = CARTESIAN_POINT('',(10.16,5.828670879282E-16,-4.E-02));
#1385 = DIRECTION('',(-0.,-0.,-1.));
#1386 = DIRECTION('',(-0.,-1.,0.));
#1387 = ADVANCED_FACE('',(#1388,#1391),#1402,.F.);
#1388 = FACE_BOUND('',#1389,.F.);
#1389 = EDGE_LOOP('',(#1390));
#1390 = ORIENTED_EDGE('',*,*,#1376,.T.);
#1391 = FACE_BOUND('',#1392,.F.);
#1392 = EDGE_LOOP('',(#1393));
#1393 = ORIENTED_EDGE('',*,*,#1394,.T.);
#1394 = EDGE_CURVE('',#1395,#1395,#1397,.T.);
#1395 = VERTEX_POINT('',#1396);
#1396 = CARTESIAN_POINT('',(10.16,-0.575,-4.E-02));
#1397 = CIRCLE('',#1398,0.575);
#1398 = AXIS2_PLACEMENT_3D('',#1399,#1400,#1401);
#1399 = CARTESIAN_POINT('',(10.16,-6.383782391595E-16,-4.E-02));
#1400 = DIRECTION('',(-0.,0.,-1.));
#1401 = DIRECTION('',(-0.,-1.,0.));
#1402 = PLANE('',#1403);
#1403 = AXIS2_PLACEMENT_3D('',#1404,#1405,#1406);
#1404 = CARTESIAN_POINT('',(10.16,-0.6,-4.E-02));
#1405 = DIRECTION('',(0.,0.,1.));
#1406 = DIRECTION('',(1.,0.,-0.));
#1407 = ADVANCED_FACE('',(#1408,#1411),#1422,.T.);
#1408 = FACE_BOUND('',#1409,.T.);
#1409 = EDGE_LOOP('',(#1410));
#1410 = ORIENTED_EDGE('',*,*,#1368,.T.);
#1411 = FACE_BOUND('',#1412,.T.);
#1412 = EDGE_LOOP('',(#1413));
#1413 = ORIENTED_EDGE('',*,*,#1414,.T.);
#1414 = EDGE_CURVE('',#1415,#1415,#1417,.T.);
#1415 = VERTEX_POINT('',#1416);
#1416 = CARTESIAN_POINT('',(10.16,-0.575,1.55));
#1417 = CIRCLE('',#1418,0.575);
#1418 = AXIS2_PLACEMENT_3D('',#1419,#1420,#1421);
#1419 = CARTESIAN_POINT('',(10.16,-6.383782391595E-16,1.55));
#1420 = DIRECTION('',(-0.,0.,-1.));
#1421 = DIRECTION('',(-0.,-1.,0.));
#1422 = PLANE('',#1423);
#1423 = AXIS2_PLACEMENT_3D('',#1424,#1425,#1426);
#1424 = CARTESIAN_POINT('',(10.16,-0.6,1.55));
#1425 = DIRECTION('',(0.,0.,1.));
#1426 = DIRECTION('',(1.,0.,-0.));
#1427 = ADVANCED_FACE('',(#1428),#1439,.F.);
#1428 = FACE_BOUND('',#1429,.T.);
#1429 = EDGE_LOOP('',(#1430,#1431,#1437,#1438));
#1430 = ORIENTED_EDGE('',*,*,#1394,.T.);
#1431 = ORIENTED_EDGE('',*,*,#1432,.T.);
#1432 = EDGE_CURVE('',#1395,#1415,#1433,.T.);
#1433 = LINE('',#1434,#1435);
#1434 = CARTESIAN_POINT('',(10.16,-0.575,-4.6E-02));
#1435 = VECTOR('',#1436,1.);
#1436 = DIRECTION('',(0.,0.,1.));
#1437 = ORIENTED_EDGE('',*,*,#1414,.F.);
#1438 = ORIENTED_EDGE('',*,*,#1432,.F.);
#1439 = CYLINDRICAL_SURFACE('',#1440,0.575);
#1440 = AXIS2_PLACEMENT_3D('',#1441,#1442,#1443);
#1441 = CARTESIAN_POINT('',(10.16,-6.383782391595E-16,-4.6E-02));
#1442 = DIRECTION('',(-0.,-0.,-1.));
#1443 = DIRECTION('',(-0.,-1.,0.));
#1444 = ( GEOMETRIC_REPRESENTATION_CONTEXT(3) 
GLOBAL_UNCERTAINTY_ASSIGNED_CONTEXT((#1448)) 
GLOBAL_UNIT_ASSIGNED_CONTEXT((#1445,#1446,#1447)) REPRESENTATION_CONTEXT
('Context #1','3D Context with UNIT and UNCERTAINTY') );
#1445 = ( LENGTH_UNIT() NAMED_UNIT(*) SI_UNIT(.MILLI.,.METRE.) );
#1446 = ( NAMED_UNIT(*) PLANE_ANGLE_UNIT() SI_UNIT($,.RADIAN.) );
#1447 = ( NAMED_UNIT(*) SI_UNIT($,.STERADIAN.) SOLID_ANGLE_UNIT() );
#1448 = UNCERTAINTY_MEASURE_WITH_UNIT(LENGTH_MEASURE(1.E-07),#1445,
  'distance_accuracy_value','confusion accuracy');
#1449 = CONTEXT_DEPENDENT_SHAPE_REPRESENTATION(#1450,#1452);
#1450 = ( REPRESENTATION_RELATIONSHIP('','',#417,#10) 
REPRESENTATION_RELATIONSHIP_WITH_TRANSFORMATION(#1451) 
SHAPE_REPRESENTATION_RELATIONSHIP() );
#1451 = ITEM_DEFINED_TRANSFORMATION('','',#11,#19);
#1452 = PRODUCT_DEFINITION_SHAPE('Placement','Placement of an item',
  #1453);
#1453 = NEXT_ASSEMBLY_USAGE_OCCURRENCE('3','=>[0:1:1:4]','',#5,#412,$);
#1454 = PRODUCT_RELATED_PRODUCT_CATEGORY('part',$,(#414));
#1455 = SHAPE_DEFINITION_REPRESENTATION(#1456,#1462);
#1456 = PRODUCT_DEFINITION_SHAPE('','',#1457);
#1457 = PRODUCT_DEFINITION('design','',#1458,#1461);
#1458 = PRODUCT_DEFINITION_FORMATION('','',#1459);
#1459 = PRODUCT(
'electronic_diode_fast_recovery_do_15_mdd_microdiode_semiconductor_
her204_render_PCB',
'electronic_diode_fast_recovery_do_15_mdd_microdiode_semiconductor_
her204_render_PCB','',(#1460));
#1460 = PRODUCT_CONTEXT('',#2,'mechanical');
#1461 = PRODUCT_DEFINITION_CONTEXT('part definition',#2,'design');
#1462 = ADVANCED_BREP_SHAPE_REPRESENTATION('',(#11,#1463),#1691);
#1463 = MANIFOLD_SOLID_BREP('',#1464);
#1464 = CLOSED_SHELL('',(#1465,#1505,#1536,#1567,#1606,#1645,#1657,#1674
    ));
#1465 = ADVANCED_FACE('',(#1466),#1500,.T.);
#1466 = FACE_BOUND('',#1467,.T.);
#1467 = EDGE_LOOP('',(#1468,#1478,#1486,#1494));
#1468 = ORIENTED_EDGE('',*,*,#1469,.T.);
#1469 = EDGE_CURVE('',#1470,#1472,#1474,.T.);
#1470 = VERTEX_POINT('',#1471);
#1471 = CARTESIAN_POINT('',(13.61,-4.05,0.));
#1472 = VERTEX_POINT('',#1473);
#1473 = CARTESIAN_POINT('',(13.61,-4.05,1.51));
#1474 = LINE('',#1475,#1476);
#1475 = CARTESIAN_POINT('',(13.61,-4.05,0.));
#1476 = VECTOR('',#1477,1.);
#1477 = DIRECTION('',(0.,0.,1.));
#1478 = ORIENTED_EDGE('',*,*,#1479,.T.);
#1479 = EDGE_CURVE('',#1472,#1480,#1482,.T.);
#1480 = VERTEX_POINT('',#1481);
#1481 = CARTESIAN_POINT('',(-3.45,-4.05,1.51));
#1482 = LINE('',#1483,#1484);
#1483 = CARTESIAN_POINT('',(13.61,-4.05,1.51));
#1484 = VECTOR('',#1485,1.);
#1485 = DIRECTION('',(-1.,0.,0.));
#1486 = ORIENTED_EDGE('',*,*,#1487,.F.);
#1487 = EDGE_CURVE('',#1488,#1480,#1490,.T.);
#1488 = VERTEX_POINT('',#1489);
#1489 = CARTESIAN_POINT('',(-3.45,-4.05,0.));
#1490 = LINE('',#1491,#1492);
#1491 = CARTESIAN_POINT('',(-3.45,-4.05,0.));
#1492 = VECTOR('',#1493,1.);
#1493 = DIRECTION('',(0.,0.,1.));
#1494 = ORIENTED_EDGE('',*,*,#1495,.F.);
#1495 = EDGE_CURVE('',#1470,#1488,#1496,.T.);
#1496 = LINE('',#1497,#1498);
#1497 = CARTESIAN_POINT('',(13.61,-4.05,0.));
#1498 = VECTOR('',#1499,1.);
#1499 = DIRECTION('',(-1.,0.,0.));
#1500 = PLANE('',#1501);
#1501 = AXIS2_PLACEMENT_3D('',#1502,#1503,#1504);
#1502 = CARTESIAN_POINT('',(13.61,-4.05,0.));
#1503 = DIRECTION('',(0.,-1.,0.));
#1504 = DIRECTION('',(-1.,0.,0.));
#1505 = ADVANCED_FACE('',(#1506),#1531,.T.);
#1506 = FACE_BOUND('',#1507,.T.);
#1507 = EDGE_LOOP('',(#1508,#1518,#1524,#1525));
#1508 = ORIENTED_EDGE('',*,*,#1509,.T.);
#1509 = EDGE_CURVE('',#1510,#1512,#1514,.T.);
#1510 = VERTEX_POINT('',#1511);
#1511 = CARTESIAN_POINT('',(13.61,4.05,0.));
#1512 = VERTEX_POINT('',#1513);
#1513 = CARTESIAN_POINT('',(13.61,4.05,1.51));
#1514 = LINE('',#1515,#1516);
#1515 = CARTESIAN_POINT('',(13.61,4.05,0.));
#1516 = VECTOR('',#1517,1.);
#1517 = DIRECTION('',(0.,0.,1.));
#1518 = ORIENTED_EDGE('',*,*,#1519,.T.);
#1519 = EDGE_CURVE('',#1512,#1472,#1520,.T.);
#1520 = LINE('',#1521,#1522);
#1521 = CARTESIAN_POINT('',(13.61,4.05,1.51));
#1522 = VECTOR('',#1523,1.);
#1523 = DIRECTION('',(0.,-1.,0.));
#1524 = ORIENTED_EDGE('',*,*,#1469,.F.);
#1525 = ORIENTED_EDGE('',*,*,#1526,.F.);
#1526 = EDGE_CURVE('',#1510,#1470,#1527,.T.);
#1527 = LINE('',#1528,#1529);
#1528 = CARTESIAN_POINT('',(13.61,4.05,0.));
#1529 = VECTOR('',#1530,1.);
#1530 = DIRECTION('',(0.,-1.,0.));
#1531 = PLANE('',#1532);
#1532 = AXIS2_PLACEMENT_3D('',#1533,#1534,#1535);
#1533 = CARTESIAN_POINT('',(13.61,4.05,0.));
#1534 = DIRECTION('',(1.,0.,-0.));
#1535 = DIRECTION('',(0.,-1.,0.));
#1536 = ADVANCED_FACE('',(#1537),#1562,.T.);
#1537 = FACE_BOUND('',#1538,.T.);
#1538 = EDGE_LOOP('',(#1539,#1540,#1548,#1556));
#1539 = ORIENTED_EDGE('',*,*,#1487,.T.);
#1540 = ORIENTED_EDGE('',*,*,#1541,.T.);
#1541 = EDGE_CURVE('',#1480,#1542,#1544,.T.);
#1542 = VERTEX_POINT('',#1543);
#1543 = CARTESIAN_POINT('',(-3.45,4.05,1.51));
#1544 = LINE('',#1545,#1546);
#1545 = CARTESIAN_POINT('',(-3.45,-4.05,1.51));
#1546 = VECTOR('',#1547,1.);
#1547 = DIRECTION('',(0.,1.,0.));
#1548 = ORIENTED_EDGE('',*,*,#1549,.F.);
#1549 = EDGE_CURVE('',#1550,#1542,#1552,.T.);
#1550 = VERTEX_POINT('',#1551);
#1551 = CARTESIAN_POINT('',(-3.45,4.05,0.));
#1552 = LINE('',#1553,#1554);
#1553 = CARTESIAN_POINT('',(-3.45,4.05,0.));
#1554 = VECTOR('',#1555,1.);
#1555 = DIRECTION('',(0.,0.,1.));
#1556 = ORIENTED_EDGE('',*,*,#1557,.F.);
#1557 = EDGE_CURVE('',#1488,#1550,#1558,.T.);
#1558 = LINE('',#1559,#1560);
#1559 = CARTESIAN_POINT('',(-3.45,-4.05,0.));
#1560 = VECTOR('',#1561,1.);
#1561 = DIRECTION('',(0.,1.,0.));
#1562 = PLANE('',#1563);
#1563 = AXIS2_PLACEMENT_3D('',#1564,#1565,#1566);
#1564 = CARTESIAN_POINT('',(-3.45,-4.05,0.));
#1565 = DIRECTION('',(-1.,0.,0.));
#1566 = DIRECTION('',(0.,1.,0.));
#1567 = ADVANCED_FACE('',(#1568,#1579,#1590),#1601,.F.);
#1568 = FACE_BOUND('',#1569,.F.);
#1569 = EDGE_LOOP('',(#1570,#1571,#1572,#1578));
#1570 = ORIENTED_EDGE('',*,*,#1495,.F.);
#1571 = ORIENTED_EDGE('',*,*,#1526,.F.);
#1572 = ORIENTED_EDGE('',*,*,#1573,.F.);
#1573 = EDGE_CURVE('',#1550,#1510,#1574,.T.);
#1574 = LINE('',#1575,#1576);
#1575 = CARTESIAN_POINT('',(-3.45,4.05,0.));
#1576 = VECTOR('',#1577,1.);
#1577 = DIRECTION('',(1.,0.,0.));
#1578 = ORIENTED_EDGE('',*,*,#1557,.F.);
#1579 = FACE_BOUND('',#1580,.F.);
#1580 = EDGE_LOOP('',(#1581));
#1581 = ORIENTED_EDGE('',*,*,#1582,.T.);
#1582 = EDGE_CURVE('',#1583,#1583,#1585,.T.);
#1583 = VERTEX_POINT('',#1584);
#1584 = CARTESIAN_POINT('',(-6.162975822039E-33,-0.6,0.));
#1585 = CIRCLE('',#1586,0.6);
#1586 = AXIS2_PLACEMENT_3D('',#1587,#1588,#1589);
#1587 = CARTESIAN_POINT('',(-5.551115123126E-17,1.110223024625E-16,0.));
#1588 = DIRECTION('',(-0.,0.,-1.));
#1589 = DIRECTION('',(9.251858538543E-17,-1.,-0.));
#1590 = FACE_BOUND('',#1591,.F.);
#1591 = EDGE_LOOP('',(#1592));
#1592 = ORIENTED_EDGE('',*,*,#1593,.T.);
#1593 = EDGE_CURVE('',#1594,#1594,#1596,.T.);
#1594 = VERTEX_POINT('',#1595);
#1595 = CARTESIAN_POINT('',(10.16,-0.6,0.));
#1596 = CIRCLE('',#1597,0.6);
#1597 = AXIS2_PLACEMENT_3D('',#1598,#1599,#1600);
#1598 = CARTESIAN_POINT('',(10.16,5.828670879282E-16,0.));
#1599 = DIRECTION('',(-0.,0.,-1.));
#1600 = DIRECTION('',(-0.,-1.,0.));
#1601 = PLANE('',#1602);
#1602 = AXIS2_PLACEMENT_3D('',#1603,#1604,#1605);
#1603 = CARTESIAN_POINT('',(0.,0.,0.));
#1604 = DIRECTION('',(0.,0.,1.));
#1605 = DIRECTION('',(1.,0.,-0.));
#1606 = ADVANCED_FACE('',(#1607,#1618,#1629),#1640,.T.);
#1607 = FACE_BOUND('',#1608,.T.);
#1608 = EDGE_LOOP('',(#1609,#1610,#1611,#1617));
#1609 = ORIENTED_EDGE('',*,*,#1479,.F.);
#1610 = ORIENTED_EDGE('',*,*,#1519,.F.);
#1611 = ORIENTED_EDGE('',*,*,#1612,.F.);
#1612 = EDGE_CURVE('',#1542,#1512,#1613,.T.);
#1613 = LINE('',#1614,#1615);
#1614 = CARTESIAN_POINT('',(-3.45,4.05,1.51));
#1615 = VECTOR('',#1616,1.);
#1616 = DIRECTION('',(1.,0.,0.));
#1617 = ORIENTED_EDGE('',*,*,#1541,.F.);
#1618 = FACE_BOUND('',#1619,.T.);
#1619 = EDGE_LOOP('',(#1620));
#1620 = ORIENTED_EDGE('',*,*,#1621,.T.);
#1621 = EDGE_CURVE('',#1622,#1622,#1624,.T.);
#1622 = VERTEX_POINT('',#1623);
#1623 = CARTESIAN_POINT('',(-6.162975822039E-33,-0.6,1.51));
#1624 = CIRCLE('',#1625,0.6);
#1625 = AXIS2_PLACEMENT_3D('',#1626,#1627,#1628);
#1626 = CARTESIAN_POINT('',(-5.551115123126E-17,1.110223024625E-16,1.51)
  );
#1627 = DIRECTION('',(-0.,0.,-1.));
#1628 = DIRECTION('',(9.251858538543E-17,-1.,-0.));
#1629 = FACE_BOUND('',#1630,.T.);
#1630 = EDGE_LOOP('',(#1631));
#1631 = ORIENTED_EDGE('',*,*,#1632,.T.);
#1632 = EDGE_CURVE('',#1633,#1633,#1635,.T.);
#1633 = VERTEX_POINT('',#1634);
#1634 = CARTESIAN_POINT('',(10.16,-0.6,1.51));
#1635 = CIRCLE('',#1636,0.6);
#1636 = AXIS2_PLACEMENT_3D('',#1637,#1638,#1639);
#1637 = CARTESIAN_POINT('',(10.16,5.828670879282E-16,1.51));
#1638 = DIRECTION('',(-0.,0.,-1.));
#1639 = DIRECTION('',(-0.,-1.,0.));
#1640 = PLANE('',#1641);
#1641 = AXIS2_PLACEMENT_3D('',#1642,#1643,#1644);
#1642 = CARTESIAN_POINT('',(0.,0.,1.51));
#1643 = DIRECTION('',(0.,0.,1.));
#1644 = DIRECTION('',(1.,0.,-0.));
#1645 = ADVANCED_FACE('',(#1646),#1652,.T.);
#1646 = FACE_BOUND('',#1647,.T.);
#1647 = EDGE_LOOP('',(#1648,#1649,#1650,#1651));
#1648 = ORIENTED_EDGE('',*,*,#1549,.T.);
#1649 = ORIENTED_EDGE('',*,*,#1612,.T.);
#1650 = ORIENTED_EDGE('',*,*,#1509,.F.);
#1651 = ORIENTED_EDGE('',*,*,#1573,.F.);
#1652 = PLANE('',#1653);
#1653 = AXIS2_PLACEMENT_3D('',#1654,#1655,#1656);
#1654 = CARTESIAN_POINT('',(-3.45,4.05,0.));
#1655 = DIRECTION('',(0.,1.,0.));
#1656 = DIRECTION('',(1.,0.,0.));
#1657 = ADVANCED_FACE('',(#1658),#1669,.F.);
#1658 = FACE_BOUND('',#1659,.T.);
#1659 = EDGE_LOOP('',(#1660,#1661,#1667,#1668));
#1660 = ORIENTED_EDGE('',*,*,#1582,.T.);
#1661 = ORIENTED_EDGE('',*,*,#1662,.T.);
#1662 = EDGE_CURVE('',#1583,#1622,#1663,.T.);
#1663 = LINE('',#1664,#1665);
#1664 = CARTESIAN_POINT('',(-6.162975822039E-33,-0.6,-4.6E-02));
#1665 = VECTOR('',#1666,1.);
#1666 = DIRECTION('',(0.,0.,1.));
#1667 = ORIENTED_EDGE('',*,*,#1621,.F.);
#1668 = ORIENTED_EDGE('',*,*,#1662,.F.);
#1669 = CYLINDRICAL_SURFACE('',#1670,0.6);
#1670 = AXIS2_PLACEMENT_3D('',#1671,#1672,#1673);
#1671 = CARTESIAN_POINT('',(-5.551115123126E-17,1.110223024625E-16,
    -4.6E-02));
#1672 = DIRECTION('',(-0.,0.,-1.));
#1673 = DIRECTION('',(9.251858538543E-17,-1.,-0.));
#1674 = ADVANCED_FACE('',(#1675),#1686,.F.);
#1675 = FACE_BOUND('',#1676,.T.);
#1676 = EDGE_LOOP('',(#1677,#1678,#1684,#1685));
#1677 = ORIENTED_EDGE('',*,*,#1593,.T.);
#1678 = ORIENTED_EDGE('',*,*,#1679,.T.);
#1679 = EDGE_CURVE('',#1594,#1633,#1680,.T.);
#1680 = LINE('',#1681,#1682);
#1681 = CARTESIAN_POINT('',(10.16,-0.6,-4.6E-02));
#1682 = VECTOR('',#1683,1.);
#1683 = DIRECTION('',(0.,0.,1.));
#1684 = ORIENTED_EDGE('',*,*,#1632,.F.);
#1685 = ORIENTED_EDGE('',*,*,#1679,.F.);
#1686 = CYLINDRICAL_SURFACE('',#1687,0.6);
#1687 = AXIS2_PLACEMENT_3D('',#1688,#1689,#1690);
#1688 = CARTESIAN_POINT('',(10.16,5.828670879282E-16,-4.6E-02));
#1689 = DIRECTION('',(-0.,-0.,-1.));
#1690 = DIRECTION('',(-0.,-1.,0.));
#1691 = ( GEOMETRIC_REPRESENTATION_CONTEXT(3) 
GLOBAL_UNCERTAINTY_ASSIGNED_CONTEXT((#1695)) 
GLOBAL_UNIT_ASSIGNED_CONTEXT((#1692,#1693,#1694)) REPRESENTATION_CONTEXT
('Context #1','3D Context with UNIT and UNCERTAINTY') );
#1692 = ( LENGTH_UNIT() NAMED_UNIT(*) SI_UNIT(.MILLI.,.METRE.) );
#1693 = ( NAMED_UNIT(*) PLANE_ANGLE_UNIT() SI_UNIT($,.RADIAN.) );
#1694 = ( NAMED_UNIT(*) SI_UNIT($,.STERADIAN.) SOLID_ANGLE_UNIT() );
#1695 = UNCERTAINTY_MEASURE_WITH_UNIT(LENGTH_MEASURE(1.E-07),#1692,
  'distance_accuracy_value','confusion accuracy');
#1696 = CONTEXT_DEPENDENT_SHAPE_REPRESENTATION(#1697,#1699);
#1697 = ( REPRESENTATION_RELATIONSHIP('','',#1462,#10) 
REPRESENTATION_RELATIONSHIP_WITH_TRANSFORMATION(#1698) 
SHAPE_REPRESENTATION_RELATIONSHIP() );
#1698 = ITEM_DEFINED_TRANSFORMATION('','',#11,#23);
#1699 = PRODUCT_DEFINITION_SHAPE('Placement','Placement of an item',
  #1700);
#1700 = NEXT_ASSEMBLY_USAGE_OCCURRENCE('4','=>[0:1:1:5]','',#5,#1457,$);
#1701 = PRODUCT_RELATED_PRODUCT_CATEGORY('part',$,(#1459));
#1702 = MECHANICAL_DESIGN_GEOMETRIC_PRESENTATION_REPRESENTATION('',(
    #1703),#1691);
#1703 = STYLED_ITEM('color',(#1704),#1463);
#1704 = PRESENTATION_STYLE_ASSIGNMENT((#1705));
#1705 = SURFACE_STYLE_USAGE(.BOTH.,#1706);
#1706 = SURFACE_SIDE_STYLE('',(#1707));
#1707 = SURFACE_STYLE_FILL_AREA(#1708);
#1708 = FILL_AREA_STYLE('',(#1709));
#1709 = FILL_AREA_STYLE_COLOUR('',#1710);
#1710 = COLOUR_RGB('',0.313304153717,0.484529207832,0.410020903123);
#1711 = MECHANICAL_DESIGN_GEOMETRIC_PRESENTATION_REPRESENTATION('',(
    #1712,#1720,#1727,#1734,#1741,#1748),#1444);
#1712 = STYLED_ITEM('color',(#1713),#418);
#1713 = PRESENTATION_STYLE_ASSIGNMENT((#1714));
#1714 = SURFACE_STYLE_USAGE(.BOTH.,#1715);
#1715 = SURFACE_SIDE_STYLE('',(#1716));
#1716 = SURFACE_STYLE_FILL_AREA(#1717);
#1717 = FILL_AREA_STYLE('',(#1718));
#1718 = FILL_AREA_STYLE_COLOUR('',#1719);
#1719 = COLOUR_RGB('',0.735356983052,0.735356983052,0.735356983052);
#1720 = STYLED_ITEM('color',(#1721),#747);
#1721 = PRESENTATION_STYLE_ASSIGNMENT((#1722));
#1722 = SURFACE_STYLE_USAGE(.BOTH.,#1723);
#1723 = SURFACE_SIDE_STYLE('',(#1724));
#1724 = SURFACE_STYLE_FILL_AREA(#1725);
#1725 = FILL_AREA_STYLE('',(#1726));
#1726 = FILL_AREA_STYLE_COLOUR('',#1719);
#1727 = STYLED_ITEM('color',(#1728),#1076);
#1728 = PRESENTATION_STYLE_ASSIGNMENT((#1729));
#1729 = SURFACE_STYLE_USAGE(.BOTH.,#1730);
#1730 = SURFACE_SIDE_STYLE('',(#1731));
#1731 = SURFACE_STYLE_FILL_AREA(#1732);
#1732 = FILL_AREA_STYLE('',(#1733));
#1733 = FILL_AREA_STYLE_COLOUR('',#1719);
#1734 = STYLED_ITEM('color',(#1735),#1168);
#1735 = PRESENTATION_STYLE_ASSIGNMENT((#1736));
#1736 = SURFACE_STYLE_USAGE(.BOTH.,#1737);
#1737 = SURFACE_SIDE_STYLE('',(#1738));
#1738 = SURFACE_STYLE_FILL_AREA(#1739);
#1739 = FILL_AREA_STYLE('',(#1740));
#1740 = FILL_AREA_STYLE_COLOUR('',#1719);
#1741 = STYLED_ITEM('color',(#1742),#1260);
#1742 = PRESENTATION_STYLE_ASSIGNMENT((#1743));
#1743 = SURFACE_STYLE_USAGE(.BOTH.,#1744);
#1744 = SURFACE_SIDE_STYLE('',(#1745));
#1745 = SURFACE_STYLE_FILL_AREA(#1746);
#1746 = FILL_AREA_STYLE('',(#1747));
#1747 = FILL_AREA_STYLE_COLOUR('',#1719);
#1748 = STYLED_ITEM('color',(#1749),#1352);
#1749 = PRESENTATION_STYLE_ASSIGNMENT((#1750));
#1750 = SURFACE_STYLE_USAGE(.BOTH.,#1751);
#1751 = SURFACE_SIDE_STYLE('',(#1752));
#1752 = SURFACE_STYLE_FILL_AREA(#1753);
#1753 = FILL_AREA_STYLE('',(#1754));
#1754 = FILL_AREA_STYLE_COLOUR('',#1719);
#1755 = MECHANICAL_DESIGN_GEOMETRIC_PRESENTATION_REPRESENTATION('',(
    #1756,#1764,#1771,#1778,#1785,#1793,#1800,#1808,#1815,#1822,#1829,
    #1836,#1843,#1850,#1857),#399);
#1756 = STYLED_ITEM('color',(#1757),#66);
#1757 = PRESENTATION_STYLE_ASSIGNMENT((#1758));
#1758 = SURFACE_STYLE_USAGE(.BOTH.,#1759);
#1759 = SURFACE_SIDE_STYLE('',(#1760));
#1760 = SURFACE_STYLE_FILL_AREA(#1761);
#1761 = FILL_AREA_STYLE('',(#1762));
#1762 = FILL_AREA_STYLE_COLOUR('',#1763);
#1763 = COLOUR_RGB('',0.823999987314,0.819999987296,0.781000009244);
#1764 = STYLED_ITEM('color',(#1765),#99);
#1765 = PRESENTATION_STYLE_ASSIGNMENT((#1766));
#1766 = SURFACE_STYLE_USAGE(.BOTH.,#1767);
#1767 = SURFACE_SIDE_STYLE('',(#1768));
#1768 = SURFACE_STYLE_FILL_AREA(#1769);
#1769 = FILL_AREA_STYLE('',(#1770));
#1770 = FILL_AREA_STYLE_COLOUR('',#1763);
#1771 = STYLED_ITEM('color',(#1772),#108);
#1772 = PRESENTATION_STYLE_ASSIGNMENT((#1773));
#1773 = SURFACE_STYLE_USAGE(.BOTH.,#1774);
#1774 = SURFACE_SIDE_STYLE('',(#1775));
#1775 = SURFACE_STYLE_FILL_AREA(#1776);
#1776 = FILL_AREA_STYLE('',(#1777));
#1777 = FILL_AREA_STYLE_COLOUR('',#1763);
#1778 = STYLED_ITEM('color',(#1779),#134);
#1779 = PRESENTATION_STYLE_ASSIGNMENT((#1780));
#1780 = SURFACE_STYLE_USAGE(.BOTH.,#1781);
#1781 = SURFACE_SIDE_STYLE('',(#1782));
#1782 = SURFACE_STYLE_FILL_AREA(#1783);
#1783 = FILL_AREA_STYLE('',(#1784));
#1784 = FILL_AREA_STYLE_COLOUR('',#1763);
#1785 = STYLED_ITEM('color',(#1786),#159);
#1786 = PRESENTATION_STYLE_ASSIGNMENT((#1787));
#1787 = SURFACE_STYLE_USAGE(.BOTH.,#1788);
#1788 = SURFACE_SIDE_STYLE('',(#1789));
#1789 = SURFACE_STYLE_FILL_AREA(#1790);
#1790 = FILL_AREA_STYLE('',(#1791));
#1791 = FILL_AREA_STYLE_COLOUR('',#1792);
#1792 = COLOUR_RGB('',0.147999998088,0.144999993226,0.144999993226);
#1793 = STYLED_ITEM('color',(#1794),#179);
#1794 = PRESENTATION_STYLE_ASSIGNMENT((#1795));
#1795 = SURFACE_STYLE_USAGE(.BOTH.,#1796);
#1796 = SURFACE_SIDE_STYLE('',(#1797));
#1797 = SURFACE_STYLE_FILL_AREA(#1798);
#1798 = FILL_AREA_STYLE('',(#1799));
#1799 = FILL_AREA_STYLE_COLOUR('',#1792);
#1800 = STYLED_ITEM('color',(#1801),#204);
#1801 = PRESENTATION_STYLE_ASSIGNMENT((#1802));
#1802 = SURFACE_STYLE_USAGE(.BOTH.,#1803);
#1803 = SURFACE_SIDE_STYLE('',(#1804));
#1804 = SURFACE_STYLE_FILL_AREA(#1805);
#1805 = FILL_AREA_STYLE('',(#1806));
#1806 = FILL_AREA_STYLE_COLOUR('',#1807);
#1807 = COLOUR_RGB('',0.894999966383,0.890999961016,0.813000030345);
#1808 = STYLED_ITEM('color',(#1809),#224);
#1809 = PRESENTATION_STYLE_ASSIGNMENT((#1810));
#1810 = SURFACE_STYLE_USAGE(.BOTH.,#1811);
#1811 = SURFACE_SIDE_STYLE('',(#1812));
#1812 = SURFACE_STYLE_FILL_AREA(#1813);
#1813 = FILL_AREA_STYLE('',(#1814));
#1814 = FILL_AREA_STYLE_COLOUR('',#1807);
#1815 = STYLED_ITEM('color',(#1816),#249);
#1816 = PRESENTATION_STYLE_ASSIGNMENT((#1817));
#1817 = SURFACE_STYLE_USAGE(.BOTH.,#1818);
#1818 = SURFACE_SIDE_STYLE('',(#1819));
#1819 = SURFACE_STYLE_FILL_AREA(#1820);
#1820 = FILL_AREA_STYLE('',(#1821));
#1821 = FILL_AREA_STYLE_COLOUR('',#1807);
#1822 = STYLED_ITEM('color',(#1823),#269);
#1823 = PRESENTATION_STYLE_ASSIGNMENT((#1824));
#1824 = SURFACE_STYLE_USAGE(.BOTH.,#1825);
#1825 = SURFACE_SIDE_STYLE('',(#1826));
#1826 = SURFACE_STYLE_FILL_AREA(#1827);
#1827 = FILL_AREA_STYLE('',(#1828));
#1828 = FILL_AREA_STYLE_COLOUR('',#1792);
#1829 = STYLED_ITEM('color',(#1830),#294);
#1830 = PRESENTATION_STYLE_ASSIGNMENT((#1831));
#1831 = SURFACE_STYLE_USAGE(.BOTH.,#1832);
#1832 = SURFACE_SIDE_STYLE('',(#1833));
#1833 = SURFACE_STYLE_FILL_AREA(#1834);
#1834 = FILL_AREA_STYLE('',(#1835));
#1835 = FILL_AREA_STYLE_COLOUR('',#1792);
#1836 = STYLED_ITEM('color',(#1837),#314);
#1837 = PRESENTATION_STYLE_ASSIGNMENT((#1838));
#1838 = SURFACE_STYLE_USAGE(.BOTH.,#1839);
#1839 = SURFACE_SIDE_STYLE('',(#1840));
#1840 = SURFACE_STYLE_FILL_AREA(#1841);
#1841 = FILL_AREA_STYLE('',(#1842));
#1842 = FILL_AREA_STYLE_COLOUR('',#1763);
#1843 = STYLED_ITEM('color',(#1844),#339);
#1844 = PRESENTATION_STYLE_ASSIGNMENT((#1845));
#1845 = SURFACE_STYLE_USAGE(.BOTH.,#1846);
#1846 = SURFACE_SIDE_STYLE('',(#1847));
#1847 = SURFACE_STYLE_FILL_AREA(#1848);
#1848 = FILL_AREA_STYLE('',(#1849));
#1849 = FILL_AREA_STYLE_COLOUR('',#1763);
#1850 = STYLED_ITEM('color',(#1851),#365);
#1851 = PRESENTATION_STYLE_ASSIGNMENT((#1852));
#1852 = SURFACE_STYLE_USAGE(.BOTH.,#1853);
#1853 = SURFACE_SIDE_STYLE('',(#1854));
#1854 = SURFACE_STYLE_FILL_AREA(#1855);
#1855 = FILL_AREA_STYLE('',(#1856));
#1856 = FILL_AREA_STYLE_COLOUR('',#1763);
#1857 = STYLED_ITEM('color',(#1858),#390);
#1858 = PRESENTATION_STYLE_ASSIGNMENT((#1859));
#1859 = SURFACE_STYLE_USAGE(.BOTH.,#1860);
#1860 = SURFACE_SIDE_STYLE('',(#1861));
#1861 = SURFACE_STYLE_FILL_AREA(#1862);
#1862 = FILL_AREA_STYLE('',(#1863));
#1863 = FILL_AREA_STYLE_COLOUR('',#1763);
ENDSEC;
END-ISO-10303-21;
