<?xml version="1.0" encoding="utf-8"?>
<svg xmlns="http://www.w3.org/2000/svg"
     width="58.0000mm" height="44.0000mm"
     viewBox="0 0 58.0000 44.0000">
  <rect x="0.0000" y="0.0000" width="58.0000" height="44.0000"  fill="#FFFFFF" stroke="none" />
  <rect x="13.8101" y="19.0633" width="30.3797" height="5.8734"  fill="#FFFFFF" stroke="#000000" stroke-width="0.16202531645569618" />
  <rect x="13.0000" y="21.6962" width="2.4304" height="3.6456"  fill="#FFFFFF" stroke="#000000" stroke-width="0.16202531645569618" />
  <rect x="42.5696" y="21.6962" width="2.4304" height="3.6456"  fill="#FFFFFF" stroke="#000000" stroke-width="0.16202531645569618" />
  <rect x="16.2405" y="16.8354" width="1.2152" height="3.1392"  fill="#FFFFFF" stroke="#000000" stroke-width="0.16202531645569618" class="pad" />
  <rect x="18.2658" y="16.8354" width="1.2152" height="3.1392"  fill="#FFFFFF" stroke="#000000" stroke-width="0.16202531645569618" class="pad" />
  <rect x="20.2911" y="16.8354" width="1.2152" height="3.1392"  fill="#FFFFFF" stroke="#000000" stroke-width="0.16202531645569618" class="pad" />
  <rect x="22.3165" y="16.8354" width="1.2152" height="3.1392"  fill="#FFFFFF" stroke="#000000" stroke-width="0.16202531645569618" class="pad" />
  <rect x="24.3418" y="16.8354" width="1.2152" height="3.1392"  fill="#FFFFFF" stroke="#000000" stroke-width="0.16202531645569618" class="pad" />
  <rect x="26.3671" y="16.8354" width="1.2152" height="3.1392"  fill="#FFFFFF" stroke="#000000" stroke-width="0.16202531645569618" class="pad" />
  <rect x="28.3924" y="16.8354" width="1.2152" height="3.1392"  fill="#FFFFFF" stroke="#000000" stroke-width="0.16202531645569618" class="pad" />
  <rect x="30.4177" y="16.8354" width="1.2152" height="3.1392"  fill="#FFFFFF" stroke="#000000" stroke-width="0.16202531645569618" class="pad" />
  <rect x="32.4430" y="16.8354" width="1.2152" height="3.1392"  fill="#FFFFFF" stroke="#000000" stroke-width="0.16202531645569618" class="pad" />
  <rect x="34.4684" y="16.8354" width="1.2152" height="3.1392"  fill="#FFFFFF" stroke="#000000" stroke-width="0.16202531645569618" class="pad" />
  <rect x="36.4937" y="16.8354" width="1.2152" height="3.1392"  fill="#FFFFFF" stroke="#000000" stroke-width="0.16202531645569618" class="pad" />
  <rect x="38.5190" y="16.8354" width="1.2152" height="3.1392"  fill="#FFFFFF" stroke="#000000" stroke-width="0.16202531645569618" class="pad" />
  <rect x="40.5443" y="16.8354" width="1.2152" height="3.1392"  fill="#FFFFFF" stroke="#000000" stroke-width="0.16202531645569618" class="pad" />
  <circle cx="16.8481" cy="20.5823" r="0.2430"  fill="#FFFFFF" stroke="#000000" stroke-width="0.16202531645569618" />
  <line x1="13.8101" y1="24.9367" x2="13.8101" y2="31.9367"  fill="#000000" stroke="#000000" stroke-width="0.45" />
  <line x1="44.1899" y1="24.9367" x2="44.1899" y2="31.9367"  fill="#000000" stroke="#000000" stroke-width="0.45" />
  <line x1="13.8101" y1="30.9367" x2="44.1899" y2="30.9367"  fill="#000000" stroke="#000000" stroke-width="0.45" />
  <line x1="12.8101" y1="31.9367" x2="14.8101" y2="29.9367"  fill="#000000" stroke="#000000" stroke-width="0.45" />
  <line x1="43.1899" y1="31.9367" x2="45.1899" y2="29.9367"  fill="#000000" stroke="#000000" stroke-width="0.45" />
  <line x1="44.1899" y1="24.9367" x2="51.1899" y2="24.9367"  fill="#000000" stroke="#000000" stroke-width="0.45" />
  <line x1="44.1899" y1="19.0633" x2="51.1899" y2="19.0633"  fill="#000000" stroke="#000000" stroke-width="0.45" />
  <line x1="50.1899" y1="24.9367" x2="50.1899" y2="19.0633"  fill="#000000" stroke="#000000" stroke-width="0.45" />
  <line x1="49.1899" y1="25.9367" x2="51.1899" y2="23.9367"  fill="#000000" stroke="#000000" stroke-width="0.45" />
  <line x1="49.1899" y1="20.0633" x2="51.1899" y2="18.0633"  fill="#000000" stroke="#000000" stroke-width="0.45" />
  <text x="29.0000" y="35.4367" font-family="Arial, sans-serif" font-size="3.0000" text-anchor="middle" dominant-baseline="middle" fill="#000000">15 mm</text>
  <text x="55.1899" y="22.0000" font-family="Arial, sans-serif" font-size="3.0000" text-anchor="middle" dominant-baseline="middle" fill="#000000" transform="rotate(-90.000,55.1899,22.0000)">2.9 mm</text>
</svg>
