%TF.GenerationSoftware,KiCad,Pcbnew,10.99.0-3671-gbe90a7e200*%
%TF.CreationDate,2026-09-10T00:48:05+01:00*%
%TF.ProjectId,kicad_file,6b696361-645f-4666-996c-652e6b696361,rev?*%
%TF.SameCoordinates,Original*%
%TF.FileFunction,Copper,L1,Top*%
%TF.FilePolarity,Positive*%
%FSLAX46Y46*%
G04 Gerber Fmt 4.6, Leading zero omitted, Abs format (unit mm)*
G04 Created by KiCad (PCBNEW 10.99.0-3671-gbe90a7e200) date 2026-09-10 00:48:05*
%MOMM*%
%LPD*%
G01*
G04 APERTURE LIST*
G04 Aperture macros list*
%AMRoundRect*
0 Rectangle with rounded corners*
0 $1 Rounding radius*
0 $2 $3 $4 $5 $6 $7 $8 $9 X,Y pos of 4 corners*
0 Add a 4 corners polygon primitive as box body*
4,1,4,$2,$3,$4,$5,$6,$7,$8,$9,$2,$3,0*
0 Add four circle primitives for the rounded corners*
1,1,$1+$1,$2,$3*
1,1,$1+$1,$4,$5*
1,1,$1+$1,$6,$7*
1,1,$1+$1,$8,$9*
0 Add four rect primitives between the rounded corners*
20,1,$1+$1,$2,$3,$4,$5,0*
20,1,$1+$1,$4,$5,$6,$7,0*
20,1,$1+$1,$6,$7,$8,$9,0*
20,1,$1+$1,$8,$9,$2,$3,0*%
G04 Aperture macros list end*
%TA.AperFunction,SMDPad,CuDef*%
%ADD10R,1.300000X1.500000*%
%TD*%
%TA.AperFunction,ComponentPad*%
%ADD11C,1.676400*%
%TD*%
%TA.AperFunction,SMDPad,CuDef*%
%ADD12RoundRect,0.500000X-0.000010X-0.000010X0.000010X-0.000010X0.000010X0.000010X-0.000010X0.000010X0*%
%TD*%
%TA.AperFunction,SMDPad,CuDef*%
%ADD13R,1.200000X0.550000*%
%TD*%
%TA.AperFunction,SMDPad,CuDef*%
%ADD14R,2.000000X1.000000*%
%TD*%
%TA.AperFunction,ComponentPad*%
%ADD15C,3.200000*%
%TD*%
%TA.AperFunction,SMDPad,CuDef*%
%ADD16R,1.500000X1.300000*%
%TD*%
%TA.AperFunction,ViaPad*%
%ADD17C,0.906400*%
%TD*%
%TA.AperFunction,Conductor*%
%ADD18C,0.609600*%
%TD*%
%TA.AperFunction,Conductor*%
%ADD19C,1.016000*%
%TD*%
%TA.AperFunction,Conductor*%
%ADD20C,0.254000*%
%TD*%
G04 APERTURE END LIST*
D10*
%TO.P,C1,1*%
%TO.N,3.3V*%
X3998000Y9144000D03*
%TO.P,C1,2*%
%TO.N,GND*%
X2098000Y9144000D03*
%TD*%
D11*
%TO.P,JP1,1*%
%TO.N,EN*%
X8890000Y2540000D03*
%TO.P,JP1,2*%
%TO.N,VIN*%
X6350000Y2540000D03*
%TO.P,JP1,3*%
%TO.N,3.3V*%
X3810000Y2540000D03*
%TO.P,JP1,4*%
%TO.N,GND*%
X1270000Y2540000D03*
%TD*%
D12*
%TO.P,FID1,1*%
%TO.N,N/C*%
X1524000Y12700000D03*
%TD*%
D13*
%TO.P,U1,1*%
%TO.N,VIN*%
X6761100Y5654000D03*
%TO.P,U1,2*%
%TO.N,GND*%
X6761100Y6604000D03*
%TO.P,U1,3*%
%TO.N,EN*%
X6761100Y7554000D03*
%TO.P,U1,4*%
%TO.N,3.3V*%
X4160900Y7554000D03*
%TO.P,U1,5*%
%TO.N,N$1*%
X4160900Y5654000D03*
%TD*%
D14*
%TO.P,L1,1*%
%TO.N,N$1*%
X1905000Y5879000D03*
%TO.P,L1,2*%
%TO.N,3.3V*%
X1905000Y7329000D03*
%TD*%
D15*
%TO.P,U$9,P$1*%
%TO.N,N/C*%
X5080000Y12700000D03*
%TD*%
D16*
%TO.P,C2,1*%
%TO.N,VIN*%
X8509000Y5146000D03*
%TO.P,C2,2*%
%TO.N,GND*%
X8509000Y7046000D03*
%TD*%
D10*
%TO.P,R1,1*%
%TO.N,VIN*%
X9205000Y9906000D03*
%TO.P,R1,2*%
%TO.N,EN*%
X7305000Y9906000D03*
%TD*%
D17*
%TO.N,GND*%
X762000Y9017000D03*
X5080000Y3556000D03*
X762000Y10414000D03*
X5461000Y6350000D03*
X3175000Y10668000D03*
X8382000Y8509000D03*
X5461000Y7620000D03*
X6223000Y8636000D03*
X2032000Y10795000D03*
%TO.N,3.3V*%
X5334000Y9398000D03*
%TO.N,EN*%
X7366000Y11430000D03*
%TD*%
%TO.N,GND*%
D18*
X6761100Y6604000D02*
X7874000Y6604000D01*
X7874000Y6604000D02*
X8509000Y7239000D01*
%TO.N,3.3V*%
D19*
X5334000Y9398000D02*
X5080000Y9144000D01*
X5080000Y9144000D02*
X3998000Y9144000D01*
%TO.N,VIN*%
D20*
X9779000Y9398000D02*
X9779000Y5588000D01*
X8509000Y5588000D02*
X8509000Y5146000D01*
X9779000Y9398000D02*
X9271000Y9906000D01*
X9779000Y5588000D02*
X8509000Y5588000D01*
X9271000Y9906000D02*
X9205000Y9906000D01*
%TO.N,EN*%
X7305000Y8097900D02*
X6761100Y7554000D01*
X7366000Y9967000D02*
X7366000Y11430000D01*
X7305000Y9906000D02*
X7305000Y8097900D01*
X7305000Y9906000D02*
X7366000Y9967000D01*
%TD*%
%TA.AperFunction,Conductor*%
%TO.N,N$1*%
G36*
X4483201Y6472242D02*
G01*
X4504427Y6463451D01*
X4524701Y6449903D01*
X4798903Y6175701D01*
X4812451Y6155426D01*
X4821242Y6134204D01*
X4826000Y6110285D01*
X4826000Y5319714D01*
X4821242Y5295797D01*
X4812451Y5274573D01*
X4798903Y5254298D01*
X4651701Y5107096D01*
X4631426Y5093548D01*
X4618994Y5088399D01*
X4610204Y5084758D01*
X4586286Y5080000D01*
X963931Y5080000D01*
X940013Y5084758D01*
X931223Y5088399D01*
X897399Y5122223D01*
X893758Y5131013D01*
X889000Y5154931D01*
X889000Y6402068D01*
X893758Y6425986D01*
X897399Y6434776D01*
X931217Y6468598D01*
X934628Y6470011D01*
X940009Y6472240D01*
X963931Y6477000D01*
X4459286Y6477000D01*
X4483201Y6472242D01*
G37*
%TD.AperFunction*%
%TD*%
%TA.AperFunction,Conductor*%
%TO.N,GND*%
G36*
X4465796Y14734739D02*
G01*
X4470541Y14732774D01*
X4471245Y14732483D01*
X4505064Y14698652D01*
X4505057Y14650817D01*
X4480252Y14621625D01*
X4480202Y14621594D01*
X4466585Y14615273D01*
X4342087Y14574822D01*
X4327380Y14570044D01*
X4325385Y14569490D01*
X4324802Y14569206D01*
X4324798Y14569205D01*
X4324795Y14569203D01*
X4324793Y14569203D01*
X4324416Y14569019D01*
X4321163Y14567444D01*
X4321038Y14567371D01*
X4072000Y14445907D01*
X4071996Y14445904D01*
X3878435Y14315347D01*
X3878430Y14315342D01*
X3878429Y14315342D01*
X3858975Y14302220D01*
X3838821Y14288627D01*
X3629816Y14100437D01*
X3629736Y14100353D01*
X3629375Y14099912D01*
X3449024Y13884977D01*
X3299979Y13646459D01*
X3299080Y13644550D01*
X3298745Y13643686D01*
X3185580Y13389513D01*
X3147203Y13255675D01*
X3122966Y13171152D01*
X3108054Y13119150D01*
X3068911Y12840633D01*
X3068911Y12559365D01*
X3108052Y12280856D01*
X3185578Y12010491D01*
X3299976Y11753547D01*
X3299980Y11753539D01*
X3449024Y11515021D01*
X3629350Y11300117D01*
X3629730Y11299652D01*
X3629816Y11299561D01*
X3809232Y11138014D01*
X3813932Y11128159D01*
X4071988Y10954100D01*
X4071998Y10954093D01*
X4072000Y10954092D01*
X4324804Y10830791D01*
X4587827Y10745331D01*
X4590105Y10744398D01*
X4595506Y10743123D01*
X4597678Y10742933D01*
X4869246Y10695047D01*
X4869276Y10695043D01*
X5150354Y10685228D01*
X5150357Y10685228D01*
X5150359Y10685228D01*
X5290216Y10699928D01*
X5430075Y10714628D01*
X5639563Y10766859D01*
X5700448Y10782039D01*
X5702107Y10782379D01*
X5702988Y10782673D01*
X5878251Y10853485D01*
X5878252Y10853485D01*
X5960209Y10886597D01*
X5962743Y10887445D01*
X6120909Y10978763D01*
X6120910Y10978763D01*
X6207328Y11028656D01*
X6313199Y11111372D01*
X6428967Y11201820D01*
X6455804Y11229610D01*
X6553674Y11330957D01*
X6573712Y11344857D01*
X6582010Y11348465D01*
X6629838Y11349300D01*
X6661790Y11321095D01*
X6663991Y11317063D01*
X6670431Y11299310D01*
X6684295Y11229610D01*
X6685496Y11223569D01*
X6738843Y11094780D01*
X6738848Y11094770D01*
X6790107Y11018056D01*
X6799439Y10995525D01*
X6801243Y10986455D01*
X6791910Y10939539D01*
X6758078Y10914452D01*
X6753909Y10913188D01*
X6735775Y10910499D01*
X6629934Y10910499D01*
X6555699Y10895734D01*
X6555698Y10895733D01*
X6555660Y10895726D01*
X6555470Y10895628D01*
X6554727Y10895214D01*
X6552970Y10894275D01*
X6550581Y10892314D01*
X6471515Y10839484D01*
X6471512Y10839481D01*
X6415269Y10755308D01*
X6415266Y10755302D01*
X6415266Y10755301D01*
X6415264Y10755298D01*
X6415264Y10755297D01*
X6400500Y10681069D01*
X6400500Y9130935D01*
X6400546Y9130557D01*
X6400797Y9129439D01*
X6415264Y9056701D01*
X6415269Y9056692D01*
X6471514Y8972515D01*
X6471517Y8972512D01*
X6555690Y8916269D01*
X6555700Y8916264D01*
X6629929Y8901500D01*
X6629932Y8901500D01*
X6629933Y8901500D01*
X6848569Y8901500D01*
X6872492Y8896739D01*
X6875257Y8895594D01*
X6881284Y8893097D01*
X6915098Y8859282D01*
X6918740Y8850492D01*
X6923500Y8826568D01*
X6923500Y8294242D01*
X6918742Y8270325D01*
X6909951Y8249101D01*
X6896403Y8228826D01*
X6778172Y8110595D01*
X6757897Y8097047D01*
X6736675Y8088257D01*
X6712757Y8083499D01*
X6136034Y8083499D01*
X6061799Y8068734D01*
X6061798Y8068733D01*
X6061760Y8068726D01*
X6061570Y8068628D01*
X6060827Y8068214D01*
X6059070Y8067275D01*
X6056682Y8065315D01*
X6022121Y8042222D01*
X5977615Y8012484D01*
X5977612Y8012481D01*
X5921369Y7928308D01*
X5921364Y7928298D01*
X5921364Y7928297D01*
X5906600Y7854067D01*
X5906600Y7253935D01*
X5906601Y7253931D01*
X5921365Y7179700D01*
X5921368Y7179692D01*
X5933527Y7161494D01*
X5936466Y7151369D01*
X5939559Y7143905D01*
X5942103Y7131118D01*
X5935922Y7089457D01*
X5933728Y7085353D01*
X5922804Y7070625D01*
X5905957Y7053778D01*
X5860049Y6949809D01*
X5860048Y6949805D01*
X5857100Y6924388D01*
X5857100Y6756000D01*
X6686169Y6756000D01*
X6710092Y6751239D01*
X6712857Y6750094D01*
X6718884Y6747597D01*
X6752698Y6713782D01*
X6756340Y6704992D01*
X6761100Y6681068D01*
X6761100Y6526931D01*
X6756340Y6503009D01*
X6754111Y6497628D01*
X6752698Y6494217D01*
X6718878Y6460400D01*
X6710089Y6456759D01*
X6686169Y6452000D01*
X5857101Y6452000D01*
X5857101Y6283609D01*
X5859633Y6261778D01*
X5859761Y6259556D01*
X5860050Y6258187D01*
X5875085Y6224134D01*
X5876189Y6176311D01*
X5862104Y6154697D01*
X5676811Y5969404D01*
X5620561Y5885219D01*
X5620558Y5885215D01*
X5603431Y5843866D01*
X5602374Y5841631D01*
X5582500Y5741717D01*
X5582500Y3343700D01*
X5564194Y3299506D01*
X5516541Y3251853D01*
X5516534Y3251845D01*
X5415440Y3112702D01*
X5376288Y3035861D01*
X5337356Y2959454D01*
X5337353Y2959447D01*
X5284204Y2795871D01*
X5283435Y2791014D01*
X5283435Y2791009D01*
X5257301Y2626015D01*
X5257300Y2626004D01*
X5257300Y2453994D01*
X5257301Y2453983D01*
X5283435Y2288989D01*
X5283435Y2288985D01*
X5284204Y2284127D01*
X5337353Y2120551D01*
X5337356Y2120544D01*
X5415443Y1967292D01*
X5516527Y1828162D01*
X5516556Y1828129D01*
X5638129Y1706556D01*
X5638162Y1706527D01*
X5777294Y1605441D01*
X5914600Y1535479D01*
X5930418Y1523986D01*
X5968589Y1485815D01*
X5968592Y1485813D01*
X6052780Y1429561D01*
X6052781Y1429560D01*
X6094134Y1412431D01*
X6096368Y1411374D01*
X6196282Y1391500D01*
X6196283Y1391500D01*
X6757717Y1391500D01*
X6757718Y1391500D01*
X6777471Y1395429D01*
X6857023Y1411253D01*
X6888270Y1424197D01*
X6901218Y1429560D01*
X6966882Y1473435D01*
X6985404Y1485811D01*
X7531188Y2031595D01*
X7587438Y2115779D01*
X7587440Y2115782D01*
X7604574Y2157148D01*
X7605626Y2159371D01*
X7605747Y2159977D01*
X7625500Y2259283D01*
X7625500Y2989018D01*
X7643806Y3033212D01*
X8650788Y4040194D01*
X8694982Y4058500D01*
X9597000Y4058500D01*
X9641194Y4040194D01*
X9659500Y3996000D01*
X9659500Y3466671D01*
X9654741Y3442752D01*
X9651376Y3434627D01*
X9617548Y3400805D01*
X9574320Y3399109D01*
X9569668Y3400620D01*
X9552255Y3409495D01*
X9549889Y3411214D01*
X9490669Y3454240D01*
X9465994Y3472168D01*
X9462703Y3474559D01*
X9462702Y3474559D01*
X9462700Y3474561D01*
X9309451Y3552645D01*
X9145875Y3605794D01*
X9002678Y3628474D01*
X8976010Y3632698D01*
X8976007Y3632698D01*
X8975997Y3632700D01*
X8975995Y3632700D01*
X8803868Y3632700D01*
X8802903Y3632564D01*
X8802466Y3632510D01*
X8801298Y3632272D01*
X8762646Y3626149D01*
X8734861Y3621749D01*
X8734859Y3621749D01*
X8634125Y3605794D01*
X8470549Y3552645D01*
X8317300Y3474561D01*
X8317297Y3474559D01*
X8178154Y3373465D01*
X8178146Y3373458D01*
X8178137Y3373449D01*
X8178129Y3373442D01*
X8056556Y3251869D01*
X8056549Y3251861D01*
X8056541Y3251853D01*
X8056534Y3251845D01*
X7955440Y3112702D01*
X7916288Y3035861D01*
X7877356Y2959454D01*
X7877353Y2959447D01*
X7824204Y2795871D01*
X7823435Y2791014D01*
X7823435Y2791009D01*
X7797301Y2626015D01*
X7797300Y2626004D01*
X7797300Y2453994D01*
X7797301Y2453983D01*
X7823435Y2288989D01*
X7823435Y2288985D01*
X7824204Y2284127D01*
X7877353Y2120551D01*
X7877356Y2120544D01*
X7955443Y1967292D01*
X8056527Y1828162D01*
X8056556Y1828129D01*
X8178129Y1706556D01*
X8178162Y1706527D01*
X8317292Y1605443D01*
X8317294Y1605441D01*
X8317297Y1605440D01*
X8359020Y1584181D01*
X8470544Y1527356D01*
X8470549Y1527354D01*
X8634121Y1474206D01*
X8634124Y1474205D01*
X8634126Y1474205D01*
X8719057Y1460753D01*
X8803994Y1447300D01*
X8804001Y1447300D01*
X8804003Y1447300D01*
X8804005Y1447300D01*
X8975994Y1447300D01*
X8975995Y1447300D01*
X8975997Y1447300D01*
X8975998Y1447300D01*
X8976010Y1447301D01*
X8976014Y1447301D01*
X8976018Y1447302D01*
X9141011Y1473435D01*
X9141016Y1473435D01*
X9145871Y1474204D01*
X9309447Y1527353D01*
X9309508Y1527383D01*
X9462703Y1605440D01*
X9541231Y1662495D01*
X9550206Y1669015D01*
X9572354Y1679225D01*
X9575090Y1679882D01*
X9580904Y1681278D01*
X9628150Y1673792D01*
X9654932Y1639818D01*
X9656441Y1635174D01*
X9659500Y1615860D01*
X9659500Y575431D01*
X9654740Y551509D01*
X9652511Y546128D01*
X9651098Y542717D01*
X9617278Y508900D01*
X9608489Y505259D01*
X9584569Y500500D01*
X575431Y500500D01*
X551513Y505258D01*
X542723Y508899D01*
X508899Y542723D01*
X505257Y551513D01*
X500500Y575431D01*
X500500Y1552143D01*
X505257Y1576059D01*
X508621Y1584181D01*
X542445Y1618007D01*
X585686Y1619703D01*
X590331Y1618193D01*
X607746Y1609319D01*
X671354Y1563104D01*
X831544Y1481482D01*
X831560Y1481476D01*
X955675Y1441149D01*
X966891Y1431569D01*
X1117987Y1407636D01*
X1117998Y1407635D01*
X1117999Y1407635D01*
X1118000Y1407635D01*
X1118000Y1981638D01*
X1136306Y2025832D01*
X1180500Y2044138D01*
X1196674Y2042009D01*
X1204169Y2040000D01*
X1335826Y2040000D01*
X1335830Y2040000D01*
X1343326Y2042009D01*
X1390752Y2035764D01*
X1419871Y1997812D01*
X1422000Y1981638D01*
X1422000Y1407634D01*
X1537464Y1425923D01*
X1708438Y1481476D01*
X1708454Y1481482D01*
X1868644Y1563104D01*
X1926913Y1605439D01*
X2014092Y1668778D01*
X2014100Y1668785D01*
X2014107Y1668792D01*
X2014116Y1668800D01*
X2141198Y1795882D01*
X2141205Y1795890D01*
X2141214Y1795899D01*
X2141221Y1795907D01*
X2246893Y1941352D01*
X2328517Y2101545D01*
X2328518Y2101548D01*
X2334691Y2120544D01*
X2384075Y2272536D01*
X2384845Y2277394D01*
X2384845Y2277398D01*
X2402363Y2387999D01*
X2402363Y2388000D01*
X1828362Y2388000D01*
X1784168Y2406306D01*
X1765862Y2450500D01*
X1767992Y2466676D01*
X1769998Y2474166D01*
X1770000Y2474174D01*
X1770000Y2605825D01*
X1769999Y2605831D01*
X1768670Y2610792D01*
X1768669Y2610797D01*
X1767991Y2613328D01*
X1769660Y2626004D01*
X2717300Y2626004D01*
X2717300Y2453994D01*
X2717301Y2453983D01*
X2743435Y2288989D01*
X2743435Y2288985D01*
X2744204Y2284127D01*
X2797353Y2120551D01*
X2797356Y2120544D01*
X2875443Y1967292D01*
X2976527Y1828162D01*
X2976556Y1828129D01*
X3098129Y1706556D01*
X3098162Y1706527D01*
X3237292Y1605443D01*
X3237294Y1605441D01*
X3237297Y1605440D01*
X3279020Y1584181D01*
X3390544Y1527356D01*
X3390549Y1527354D01*
X3554121Y1474206D01*
X3554124Y1474205D01*
X3554126Y1474205D01*
X3639057Y1460753D01*
X3723994Y1447300D01*
X3724001Y1447300D01*
X3724003Y1447300D01*
X3724005Y1447300D01*
X3895994Y1447300D01*
X3895995Y1447300D01*
X3895997Y1447300D01*
X3895998Y1447300D01*
X3896010Y1447301D01*
X3896014Y1447301D01*
X3896018Y1447302D01*
X4061011Y1473435D01*
X4061016Y1473435D01*
X4065871Y1474204D01*
X4229447Y1527353D01*
X4229454Y1527356D01*
X4279859Y1553039D01*
X4382702Y1605440D01*
X4461231Y1662495D01*
X4521836Y1706527D01*
X4521839Y1706529D01*
X4521845Y1706534D01*
X4521853Y1706541D01*
X4521860Y1706548D01*
X4521869Y1706556D01*
X4643442Y1828129D01*
X4643449Y1828137D01*
X4643458Y1828146D01*
X4643465Y1828154D01*
X4744556Y1967292D01*
X4744557Y1967294D01*
X4774384Y2025832D01*
X4812964Y2101548D01*
X4822645Y2120549D01*
X4875794Y2284125D01*
X4902700Y2454003D01*
X4902700Y2625997D01*
X4875794Y2795875D01*
X4822645Y2959451D01*
X4744561Y3112700D01*
X4643465Y3251846D01*
X4521846Y3373465D01*
X4382700Y3474561D01*
X4229451Y3552645D01*
X4065875Y3605794D01*
X3922678Y3628474D01*
X3896010Y3632698D01*
X3896007Y3632698D01*
X3895997Y3632700D01*
X3895995Y3632700D01*
X3723868Y3632700D01*
X3722903Y3632564D01*
X3722466Y3632510D01*
X3721298Y3632272D01*
X3682646Y3626149D01*
X3654861Y3621749D01*
X3654859Y3621749D01*
X3554125Y3605794D01*
X3390549Y3552645D01*
X3237300Y3474561D01*
X3237297Y3474559D01*
X3098154Y3373465D01*
X3098146Y3373458D01*
X3098137Y3373449D01*
X3098129Y3373442D01*
X2976556Y3251869D01*
X2976549Y3251861D01*
X2976541Y3251853D01*
X2976534Y3251845D01*
X2875440Y3112702D01*
X2836288Y3035861D01*
X2797356Y2959454D01*
X2797353Y2959447D01*
X2744204Y2795871D01*
X2743435Y2791014D01*
X2743435Y2791009D01*
X2717301Y2626015D01*
X2717300Y2626004D01*
X1769660Y2626004D01*
X1774237Y2660754D01*
X1812190Y2689871D01*
X1828362Y2692000D01*
X2402363Y2692000D01*
X2385911Y2795872D01*
X2384845Y2802601D01*
X2384845Y2802605D01*
X2384075Y2807462D01*
X2384075Y2807463D01*
X2384075Y2807464D01*
X2334691Y2959451D01*
X2328535Y2978399D01*
X2328533Y2978404D01*
X2328518Y2978451D01*
X2328517Y2978454D01*
X2246893Y3138647D01*
X2141221Y3284092D01*
X2141214Y3284100D01*
X2014100Y3411214D01*
X2014092Y3411221D01*
X1868647Y3516893D01*
X1708454Y3598517D01*
X1708451Y3598518D01*
X1537464Y3654075D01*
X1422000Y3672363D01*
X1422000Y3098361D01*
X1403694Y3054167D01*
X1359500Y3035861D01*
X1343320Y3037991D01*
X1335826Y3040000D01*
X1204174Y3040000D01*
X1196680Y3037992D01*
X1149254Y3044232D01*
X1120131Y3082180D01*
X1118000Y3098361D01*
X1118000Y3672362D01*
X1118000Y3672363D01*
X1117999Y3672363D01*
X1007395Y3654844D01*
X1007390Y3654844D01*
X1002536Y3654075D01*
X1002535Y3654075D01*
X936743Y3632698D01*
X831599Y3598535D01*
X831569Y3598525D01*
X831548Y3598518D01*
X831545Y3598517D01*
X671352Y3516894D01*
X609791Y3472166D01*
X587646Y3461958D01*
X579098Y3459906D01*
X531852Y3467390D01*
X505068Y3501365D01*
X503559Y3506009D01*
X500500Y3525323D01*
X500500Y6793499D01*
X629499Y6793499D01*
X649253Y6694193D01*
X667560Y6649998D01*
X667563Y6649992D01*
X678131Y6634176D01*
X687462Y6587259D01*
X678131Y6564734D01*
X664472Y6544291D01*
X657653Y6534084D01*
X657653Y6534083D01*
X654013Y6525297D01*
X654012Y6525295D01*
X650606Y6514068D01*
X644585Y6494217D01*
X639241Y6476602D01*
X634486Y6452695D01*
X634485Y6452692D01*
X629500Y6402065D01*
X629500Y5154933D01*
X634485Y5104306D01*
X634486Y5104303D01*
X639241Y5080396D01*
X654012Y5031703D01*
X654016Y5031693D01*
X657651Y5022918D01*
X713904Y4938729D01*
X747729Y4904904D01*
X831918Y4848651D01*
X840693Y4845016D01*
X840703Y4845012D01*
X889396Y4830241D01*
X913303Y4825486D01*
X913306Y4825485D01*
X955636Y4821316D01*
X963931Y4820500D01*
X4586283Y4820500D01*
X4586286Y4820500D01*
X4595059Y4821364D01*
X4636910Y4825485D01*
X4636913Y4825486D01*
X4660820Y4830241D01*
X4660831Y4830244D01*
X4660834Y4830245D01*
X4682675Y4836870D01*
X4709513Y4845012D01*
X4709514Y4845013D01*
X4718297Y4848651D01*
X4718299Y4848651D01*
X4718302Y4848653D01*
X4718301Y4848653D01*
X4730724Y4853798D01*
X4730728Y4853800D01*
X4732140Y4854385D01*
X4732147Y4854388D01*
X4752433Y4862790D01*
X4759451Y4869152D01*
X4775596Y4877781D01*
X4775600Y4877784D01*
X4795864Y4891324D01*
X4795873Y4891331D01*
X4795876Y4891333D01*
X4835195Y4923602D01*
X4982397Y5070804D01*
X5014666Y5110123D01*
X5028214Y5130398D01*
X5052199Y5175269D01*
X5060990Y5196493D01*
X5075755Y5245165D01*
X5080513Y5269082D01*
X5085500Y5319714D01*
X5085500Y6110285D01*
X5083408Y6131517D01*
X5080514Y6160907D01*
X5080513Y6160910D01*
X5080513Y6160913D01*
X5075755Y6184832D01*
X5060987Y6233516D01*
X5052196Y6254738D01*
X5028214Y6299601D01*
X5014666Y6319876D01*
X4982397Y6359195D01*
X4915909Y6425681D01*
X4897605Y6469873D01*
X4915910Y6514068D01*
X4925381Y6521841D01*
X4991188Y6565812D01*
X4991189Y6565813D01*
X5047438Y6649996D01*
X5047439Y6649998D01*
X5047440Y6649999D01*
X5064574Y6691365D01*
X5065626Y6693588D01*
X5065747Y6694194D01*
X5085500Y6793500D01*
X5085500Y7455447D01*
X5084250Y7480884D01*
X5083049Y7493077D01*
X5079313Y7518265D01*
X5068000Y7575135D01*
X5066800Y7587328D01*
X5066800Y7652668D01*
X5068001Y7664861D01*
X5079311Y7721722D01*
X5079313Y7721732D01*
X5083049Y7746921D01*
X5084250Y7759114D01*
X5085500Y7784551D01*
X5085500Y8319000D01*
X5103806Y8363194D01*
X5148000Y8381500D01*
X5155100Y8381500D01*
X5302409Y8410801D01*
X5439122Y8467430D01*
X5440461Y8467930D01*
X5441181Y8468282D01*
X5457820Y8479401D01*
X5457821Y8479402D01*
X5566063Y8551725D01*
X5566066Y8551728D01*
X5926270Y8911933D01*
X5926272Y8911935D01*
X6009717Y9036819D01*
X6017041Y9054500D01*
X6067197Y9175587D01*
X6096499Y9322900D01*
X6096499Y9473100D01*
X6067197Y9620412D01*
X6009718Y9759179D01*
X5926272Y9884065D01*
X5820065Y9990272D01*
X5695179Y10073718D01*
X5556412Y10131197D01*
X5409100Y10160499D01*
X5258900Y10160499D01*
X5111587Y10131197D01*
X5012684Y10090229D01*
X4964851Y10090229D01*
X4954044Y10096006D01*
X4907005Y10127437D01*
X4907001Y10127440D01*
X4865626Y10144578D01*
X4863409Y10145626D01*
X4862808Y10145745D01*
X4862807Y10145746D01*
X4862806Y10145747D01*
X4763500Y10165500D01*
X3364500Y10165500D01*
X3364499Y10165500D01*
X3265193Y10145746D01*
X3220999Y10127440D01*
X3165310Y10090230D01*
X3136813Y10071189D01*
X3136810Y10071186D01*
X3118882Y10044354D01*
X3079108Y10017778D01*
X3032192Y10027110D01*
X3009742Y10053830D01*
X3003143Y10068777D01*
X2922778Y10149142D01*
X2818805Y10195051D01*
X2793388Y10197999D01*
X2793387Y10197999D01*
X2250000Y10197999D01*
X2250000Y9218931D01*
X2245240Y9195009D01*
X2243011Y9189628D01*
X2241598Y9186217D01*
X2207778Y9152400D01*
X2198989Y9148759D01*
X2175069Y9144000D01*
X2098000Y9144000D01*
X2098000Y9066931D01*
X2093240Y9043009D01*
X2092658Y9041603D01*
X2089598Y9034217D01*
X2055778Y9000400D01*
X2046989Y8996759D01*
X2023069Y8992000D01*
X1144001Y8992000D01*
X1144001Y8450000D01*
X1125695Y8405806D01*
X1081501Y8387500D01*
X951499Y8387500D01*
X852193Y8367746D01*
X807999Y8349440D01*
X725389Y8294242D01*
X723813Y8293189D01*
X723810Y8293186D01*
X667561Y8209002D01*
X667558Y8208998D01*
X650431Y8167649D01*
X649374Y8165414D01*
X629500Y8065500D01*
X629500Y6793499D01*
X629499Y6793499D01*
X500500Y6793499D01*
X500500Y9939388D01*
X1144000Y9939388D01*
X1144000Y9296000D01*
X1946000Y9296000D01*
X1946000Y10197999D01*
X1402612Y10197999D01*
X1380778Y10195466D01*
X1378554Y10195337D01*
X1377191Y10195050D01*
X1273221Y10149142D01*
X1273220Y10149141D01*
X1192857Y10068778D01*
X1146949Y9964809D01*
X1146948Y9964805D01*
X1144000Y9939388D01*
X500500Y9939388D01*
X500500Y12696945D01*
X500562Y12698900D01*
X500533Y12698982D01*
X500601Y12701066D01*
X500700Y12703055D01*
X503796Y12750285D01*
X769500Y12750285D01*
X769500Y12649731D01*
X769503Y12649686D01*
X780054Y12546410D01*
X780056Y12546391D01*
X835535Y12378963D01*
X928128Y12228847D01*
X1052847Y12104128D01*
X1202963Y12011535D01*
X1370393Y11956055D01*
X1370400Y11956054D01*
X1473716Y11945500D01*
X1473726Y11945500D01*
X1473729Y11945500D01*
X1574267Y11945500D01*
X1574312Y11945503D01*
X1677588Y11956054D01*
X1677607Y11956056D01*
X1845035Y12011535D01*
X1995151Y12104128D01*
X2119870Y12228847D01*
X2208627Y12372744D01*
X2208631Y12372749D01*
X2212463Y12378962D01*
X2225873Y12419429D01*
X2267942Y12546388D01*
X2267942Y12546389D01*
X2267943Y12546392D01*
X2267998Y12546558D01*
X2268031Y12546657D01*
X2268174Y12547744D01*
X2268266Y12549547D01*
X2278427Y12649021D01*
X2278489Y12649574D01*
X2278496Y12649698D01*
X2278499Y12649721D01*
X2278500Y12649729D01*
X2278499Y12750270D01*
X2267942Y12853612D01*
X2212464Y13021036D01*
X2119870Y13171153D01*
X1995153Y13295870D01*
X1845036Y13388464D01*
X1681869Y13442531D01*
X1680456Y13443114D01*
X1678749Y13443611D01*
X1677436Y13444018D01*
X1676266Y13444172D01*
X1674454Y13444265D01*
X1674444Y13444266D01*
X1638265Y13447961D01*
X1574271Y13454500D01*
X1473730Y13454499D01*
X1473724Y13454498D01*
X1473718Y13454498D01*
X1473703Y13454497D01*
X1473417Y13454467D01*
X1373549Y13444266D01*
X1371870Y13444180D01*
X1370679Y13443988D01*
X1370391Y13443943D01*
X1370388Y13443942D01*
X1202964Y13388464D01*
X1052847Y13295870D01*
X928130Y13171153D01*
X835535Y13021035D01*
X780055Y12853603D01*
X769500Y12750285D01*
X503796Y12750285D01*
X504168Y12755957D01*
X504232Y12756945D01*
X504233Y12756944D01*
X504234Y12756974D01*
X510568Y12853603D01*
X517546Y12960078D01*
X517946Y12964141D01*
X517946Y12964144D01*
X518480Y12968203D01*
X519141Y12972210D01*
X548370Y13119150D01*
X568795Y13221840D01*
X569725Y13225826D01*
X570781Y13229765D01*
X571966Y13233671D01*
X579436Y13255675D01*
X653773Y13474665D01*
X655212Y13478487D01*
X656773Y13482256D01*
X658461Y13485984D01*
X737596Y13646455D01*
X737597Y13646455D01*
X771028Y13714246D01*
X772954Y13717851D01*
X774993Y13721383D01*
X777154Y13724858D01*
X918545Y13936464D01*
X920925Y13939786D01*
X923418Y13943035D01*
X926004Y13946185D01*
X969568Y13995860D01*
X1093813Y14137534D01*
X1096609Y14140519D01*
X1099479Y14143389D01*
X1102464Y14146185D01*
X1293813Y14313994D01*
X1296967Y14316582D01*
X1300215Y14319075D01*
X1303534Y14321453D01*
X1515146Y14462848D01*
X1518611Y14465003D01*
X1522143Y14467042D01*
X1525746Y14468969D01*
X1754014Y14581537D01*
X1757742Y14583225D01*
X1761511Y14584786D01*
X1765336Y14586226D01*
X2006325Y14668032D01*
X2010234Y14669218D01*
X2012498Y14669824D01*
X2014174Y14670273D01*
X2018158Y14671203D01*
X2267769Y14720853D01*
X2271810Y14721520D01*
X2275854Y14722052D01*
X2279918Y14722452D01*
X2536944Y14739299D01*
X2538963Y14739399D01*
X2538987Y14739399D01*
X2541027Y14739466D01*
X2543055Y14739500D01*
X4441874Y14739500D01*
X4465796Y14734739D01*
G37*
%TD.AperFunction*%
%TA.AperFunction,Conductor*%
G36*
X8291030Y9084684D02*
G01*
X8291054Y9084668D01*
X8291220Y9084557D01*
X8314219Y9056525D01*
X8316506Y9051003D01*
X8322180Y9046348D01*
X8371513Y8972516D01*
X8371517Y8972512D01*
X8455690Y8916269D01*
X8455700Y8916264D01*
X8529929Y8901500D01*
X8529932Y8901500D01*
X8529933Y8901500D01*
X9322569Y8901500D01*
X9346492Y8896739D01*
X9349257Y8895594D01*
X9355284Y8893097D01*
X9389098Y8859282D01*
X9392740Y8850492D01*
X9397500Y8826568D01*
X9397500Y8071799D01*
X9392740Y8047877D01*
X9390511Y8042496D01*
X9389098Y8039085D01*
X9355278Y8005268D01*
X9349207Y8002753D01*
X9318086Y7998410D01*
X9304388Y7999999D01*
X9304387Y7999999D01*
X8661000Y7999999D01*
X8661000Y7120931D01*
X8656240Y7097009D01*
X8654011Y7091628D01*
X8652598Y7088217D01*
X8618778Y7054400D01*
X8609989Y7050759D01*
X8586069Y7046000D01*
X8431931Y7046000D01*
X8408013Y7050758D01*
X8399223Y7054399D01*
X8365399Y7088223D01*
X8364888Y7089457D01*
X8361757Y7097013D01*
X8357000Y7120931D01*
X8357000Y7999999D01*
X7761432Y7999999D01*
X7737514Y8004757D01*
X7736280Y8005268D01*
X7728723Y8008398D01*
X7694900Y8042222D01*
X7691258Y8051012D01*
X7686501Y8074930D01*
X7686501Y8154329D01*
X7686500Y8154382D01*
X7686500Y8826568D01*
X7691258Y8850486D01*
X7694899Y8859276D01*
X7728717Y8893098D01*
X7732128Y8894511D01*
X7737509Y8896740D01*
X7761431Y8901500D01*
X7980064Y8901500D01*
X7980441Y8901546D01*
X7981559Y8901797D01*
X8054297Y8916264D01*
X8054301Y8916266D01*
X8054303Y8916267D01*
X8138484Y8972515D01*
X8138485Y8972516D01*
X8138486Y8972517D01*
X8181450Y9036818D01*
X8184647Y9041603D01*
X8189487Y9045192D01*
X8204342Y9067430D01*
X8244113Y9094011D01*
X8291030Y9084684D01*
G37*
%TD.AperFunction*%
%TD*%
%TA.AperFunction,Conductor*%
%TO.N,VIN*%
G36*
X9641194Y6077694D02*
G01*
X9659500Y6033500D01*
X9659500Y4380500D01*
X9641194Y4336306D01*
X9597000Y4318000D01*
X8561606Y4318000D01*
X7366000Y3122394D01*
X7366000Y2259283D01*
X7347694Y2215089D01*
X6801911Y1669306D01*
X6757717Y1651000D01*
X6196283Y1651000D01*
X6152089Y1669306D01*
X5860306Y1961089D01*
X5842000Y2005283D01*
X5842000Y5741717D01*
X5860306Y5785911D01*
X6152089Y6077694D01*
X6196283Y6096000D01*
X9597000Y6096000D01*
X9641194Y6077694D01*
G37*
%TD.AperFunction*%
%TD*%
%TA.AperFunction,Conductor*%
%TO.N,3.3V*%
G36*
X4807694Y9887694D02*
G01*
X4826000Y9843500D01*
X4826000Y7784551D01*
X4824799Y7772358D01*
X4807300Y7684384D01*
X4807300Y7555615D01*
X4824799Y7467640D01*
X4826000Y7455447D01*
X4826000Y6793500D01*
X4807694Y6749306D01*
X4763500Y6731000D01*
X951500Y6731000D01*
X907306Y6749306D01*
X889000Y6793500D01*
X889000Y8065500D01*
X907306Y8109694D01*
X951500Y8128000D01*
X2976093Y8128000D01*
X3301999Y8671175D01*
X3302000Y8671178D01*
X3302000Y9843500D01*
X3320306Y9887694D01*
X3364500Y9906000D01*
X4763500Y9906000D01*
X4807694Y9887694D01*
G37*
%TD.AperFunction*%
%TD*%
M02*
