M48
; DRILL file KiCad 10.99.0-3671-gbe90a7e200 date 2026-09-10T00:29:36
; FORMAT={-:-/ absolute / metric / decimal}
; #@! TF.CreationDate,2026-09-10T00:29:36+01:00
; #@! TF.GenerationSoftware,Kicad,Pcbnew,10.99.0-3671-gbe90a7e200
; #@! TF.FileFunction,Plated,1,2,PTH
FMAT,2
METRIC
; #@! TA.AperFunction,Plated,PTH,ViaDrill
T1C0.483
; #@! TA.AperFunction,Plated,PTH,ComponentDrill
T2C1.000
; #@! TA.AperFunction,Plated,PTH,ComponentDrill
T3C2.500
%
G90
G05
T1
X10.668Y20.066
X20.828Y14.732
X21.844Y9.017
X23.749Y9.652
X24.511Y7.747
X25.641Y12.573
X25.641Y11.397
X25.898Y6.741
X26.416Y9.398
X27.093Y13.547
X27.94Y5.08
X28.321Y9.398
X34.163Y8.636
X34.29Y13.843
X34.798Y16.129
X34.798Y7.493
X43.688Y13.843
T2
X6.35Y3.81
X6.35Y1.27
X8.89Y3.81
X8.89Y1.27
X11.43Y3.81
X11.43Y1.27
X13.97Y3.81
X13.97Y1.27
X16.51Y21.59
X16.51Y19.05
X16.51Y3.81
X16.51Y1.27
X19.05Y21.59
X19.05Y19.05
X19.05Y15.24
X19.05Y12.7
X19.05Y10.16
X19.05Y7.62
X19.05Y3.81
X19.05Y1.27
X21.59Y21.59
X21.59Y19.05
X21.59Y3.81
X21.59Y1.27
X24.13Y21.59
X24.13Y19.05
X24.13Y3.81
X24.13Y1.27
X26.67Y21.59
X26.67Y19.05
X26.67Y3.81
X26.67Y1.27
X29.21Y21.59
X29.21Y19.05
X29.21Y3.81
X29.21Y1.27
X31.75Y21.59
X31.75Y19.05
X31.75Y15.24
X31.75Y12.7
X31.75Y10.16
X31.75Y7.62
X31.75Y3.81
X31.75Y1.27
X34.29Y21.59
X34.29Y19.05
X34.29Y3.81
X34.29Y1.27
X36.83Y21.59
X36.83Y19.05
X36.83Y15.24
X36.83Y12.7
X36.83Y10.16
X36.83Y7.62
X36.83Y3.81
X36.83Y1.27
X39.37Y21.59
X39.37Y19.05
X39.37Y3.81
X39.37Y1.27
X41.91Y21.59
X41.91Y19.05
X41.91Y3.81
X41.91Y1.27
X44.45Y21.59
X44.45Y19.05
X44.45Y3.81
X44.45Y1.27
T3
X2.54Y20.32
X2.54Y2.54
M30
