%TF.GenerationSoftware,KiCad,Pcbnew,10.99.0-3671-gbe90a7e200*%
%TF.CreationDate,2026-09-09T23:34:48+01:00*%
%TF.ProjectId,kicad_file,6b696361-645f-4666-996c-652e6b696361,rev?*%
%TF.SameCoordinates,Original*%
%TF.FileFunction,Copper,L1,Top*%
%TF.FilePolarity,Positive*%
%FSLAX46Y46*%
G04 Gerber Fmt 4.6, Leading zero omitted, Abs format (unit mm)*
G04 Created by KiCad (PCBNEW 10.99.0-3671-gbe90a7e200) date 2026-09-09 23:34:48*
%MOMM*%
%LPD*%
G01*
G04 APERTURE LIST*
G04 Aperture macros list*
%AMRoundRect*
0 Rectangle with rounded corners*
0 $1 Rounding radius*
0 $2 $3 $4 $5 $6 $7 $8 $9 X,Y pos of 4 corners*
0 Add a 4 corners polygon primitive as box body*
4,1,4,$2,$3,$4,$5,$6,$7,$8,$9,$2,$3,0*
0 Add four circle primitives for the rounded corners*
1,1,$1+$1,$2,$3*
1,1,$1+$1,$4,$5*
1,1,$1+$1,$6,$7*
1,1,$1+$1,$8,$9*
0 Add four rect primitives between the rounded corners*
20,1,$1+$1,$2,$3,$4,$5,0*
20,1,$1+$1,$4,$5,$6,$7,0*
20,1,$1+$1,$6,$7,$8,$9,0*
20,1,$1+$1,$8,$9,$2,$3,0*%
%AMOutline5P*
0 Free polygon, 5 corners , with rotation*
0 The origin of the aperture is its center*
0 number of corners: always 5*
0 $1 to $10 corner X, Y*
0 $11 Rotation angle, in degrees counterclockwise*
0 create outline with 5 corners*
4,1,5,$1,$2,$3,$4,$5,$6,$7,$8,$9,$10,$1,$2,$11*%
%AMOutline6P*
0 Free polygon, 6 corners , with rotation*
0 The origin of the aperture is its center*
0 number of corners: always 6*
0 $1 to $12 corner X, Y*
0 $13 Rotation angle, in degrees counterclockwise*
0 create outline with 6 corners*
4,1,6,$1,$2,$3,$4,$5,$6,$7,$8,$9,$10,$11,$12,$1,$2,$13*%
%AMOutline7P*
0 Free polygon, 7 corners , with rotation*
0 The origin of the aperture is its center*
0 number of corners: always 7*
0 $1 to $14 corner X, Y*
0 $15 Rotation angle, in degrees counterclockwise*
0 create outline with 7 corners*
4,1,7,$1,$2,$3,$4,$5,$6,$7,$8,$9,$10,$11,$12,$13,$14,$1,$2,$15*%
%AMOutline8P*
0 Free polygon, 8 corners , with rotation*
0 The origin of the aperture is its center*
0 number of corners: always 8*
0 $1 to $16 corner X, Y*
0 $17 Rotation angle, in degrees counterclockwise*
0 create outline with 8 corners*
4,1,8,$1,$2,$3,$4,$5,$6,$7,$8,$9,$10,$11,$12,$13,$14,$15,$16,$1,$2,$17*%
G04 Aperture macros list end*
%TA.AperFunction,EtchedComponent*%
%ADD10C,0.304800*%
%TD*%
%TA.AperFunction,EtchedComponent*%
%ADD11C,0.000000*%
%TD*%
%TA.AperFunction,ComponentPad*%
%ADD12C,2.184400*%
%TD*%
%TA.AperFunction,ComponentPad*%
%ADD13C,3.200000*%
%TD*%
%TA.AperFunction,SMDPad,CuDef*%
%ADD14R,1.500000X1.240000*%
%TD*%
%TA.AperFunction,SMDPad,CuDef*%
%ADD15RoundRect,0.500000X0.000010X-0.000010X0.000010X0.000010X-0.000010X0.000010X-0.000010X-0.000010X0*%
%TD*%
%TA.AperFunction,ComponentPad*%
%ADD16Outline8P,-0.838200X0.347194X-0.347194X0.838200X0.347194X0.838200X0.838200X0.347194X0.838200X-0.347194X0.347194X-0.838200X-0.347194X-0.838200X-0.838200X-0.347194X180.000000*%
%TD*%
%TA.AperFunction,ComponentPad*%
%ADD17C,1.930400*%
%TD*%
%TA.AperFunction,SMDPad,CuDef*%
%ADD18R,0.450000X2.150000*%
%TD*%
%TA.AperFunction,SMDPad,CuDef*%
%ADD19R,4.900000X2.950000*%
%TD*%
%TA.AperFunction,ComponentPad*%
%ADD20C,0.908000*%
%TD*%
%TA.AperFunction,SMDPad,CuDef*%
%ADD21R,3.556000X1.400000*%
%TD*%
%TA.AperFunction,ViaPad*%
%ADD22C,0.906400*%
%TD*%
%TA.AperFunction,ViaPad*%
%ADD23C,1.006400*%
%TD*%
%TA.AperFunction,Conductor*%
%ADD24C,0.406400*%
%TD*%
%TA.AperFunction,Conductor*%
%ADD25C,1.270000*%
%TD*%
G04 APERTURE END LIST*
%TO.C,R1*%
D10*
X17581000Y6350000D02*
X14181000Y6350000D01*
X12081000Y6350000D02*
X7981000Y6350000D01*
D11*
%TA.AperFunction,EtchedComponent*%
G36*
X14706400Y5650000D02*
G01*
X13506400Y5650000D01*
X13506400Y7050000D01*
X14706400Y7050000D01*
X14706400Y5650000D01*
G37*
%TD.AperFunction*%
%TA.AperFunction,EtchedComponent*%
G36*
X12655600Y5650000D02*
G01*
X11455600Y5650000D01*
X11455600Y7050000D01*
X12655600Y7050000D01*
X12655600Y5650000D01*
G37*
%TD.AperFunction*%
%TD*%
D12*
%TO.P,X1,1*%
%TO.N,OUT2*%
X4042000Y20320000D03*
%TO.P,X1,2*%
%TO.N,OUT1*%
X7542000Y20320000D03*
%TD*%
D13*
%TO.P,U$10,P$1*%
%TO.N,N/C*%
X17780000Y2540000D03*
%TD*%
D14*
%TO.P,C1,1*%
%TO.N,VMOTOR*%
X8763000Y13396000D03*
%TO.P,C1,2*%
%TO.N,GND*%
X8763000Y11496000D03*
%TD*%
D15*
%TO.P,FID1,1*%
%TO.N,N/C*%
X19050000Y21590000D03*
%TD*%
D16*
%TO.P,R1,1*%
%TO.N,GND*%
X18161000Y6350000D03*
%TO.P,R1,2*%
%TO.N,N$1*%
X8001000Y6350000D03*
%TD*%
D13*
%TO.P,U$9,P$1*%
%TO.N,N/C*%
X2540000Y2540000D03*
%TD*%
D12*
%TO.P,X2,1*%
%TO.N,VMOTOR*%
X12678000Y20320000D03*
%TO.P,X2,2*%
%TO.N,GND*%
X16178000Y20320000D03*
%TD*%
D17*
%TO.P,JP2,1*%
%TO.N,GND*%
X13970000Y2540000D03*
%TO.P,JP2,2*%
%TO.N,VMOTOR*%
X11430000Y2540000D03*
%TO.P,JP2,3*%
%TO.N,IN1*%
X8890000Y2540000D03*
%TO.P,JP2,4*%
%TO.N,IN2*%
X6350000Y2540000D03*
%TD*%
D15*
%TO.P,FID2,1*%
%TO.N,N/C*%
X1397000Y5461000D03*
%TD*%
D18*
%TO.P,U1,1*%
%TO.N,GND*%
X2794000Y8047000D03*
%TO.P,U1,2*%
%TO.N,IN2*%
X4064000Y8047000D03*
%TO.P,U1,3*%
%TO.N,IN1*%
X5334000Y8047000D03*
%TO.P,U1,4*%
%TO.N,N$1*%
X6604000Y8047000D03*
%TO.P,U1,5*%
%TO.N,VMOTOR*%
X6604000Y13797000D03*
%TO.P,U1,6*%
%TO.N,OUT1*%
X5334000Y13797000D03*
%TO.P,U1,7*%
%TO.N,GND*%
X4064000Y13797000D03*
%TO.P,U1,8*%
%TO.N,OUT2*%
X2794000Y13797000D03*
D19*
%TO.P,U1,GND*%
%TO.N,GND*%
X4699000Y10922000D03*
D20*
%TO.P,U1,P$1*%
X3699000Y11672000D03*
%TO.P,U1,P$2*%
X3699000Y10172000D03*
%TO.P,U1,P$3*%
X5699000Y10172000D03*
%TO.P,U1,P$4*%
X5699000Y11672000D03*
%TD*%
D21*
%TO.P,C2,+*%
%TO.N,VMOTOR*%
X11824000Y11176000D03*
%TO.P,C2,-*%
%TO.N,GND*%
X17132000Y11176000D03*
%TD*%
D22*
%TO.N,GND*%
X15367000Y4318000D03*
X16891000Y9017000D03*
X762000Y9398000D03*
X2667000Y10922000D03*
X2286000Y11938000D03*
X16129000Y17907000D03*
X3937000Y4953000D03*
X18923000Y13335000D03*
X2921000Y6096000D03*
X2286000Y9779000D03*
X7239000Y11938000D03*
X16383000Y13208000D03*
X6731000Y10795000D03*
X7112000Y9779000D03*
X5334000Y17272000D03*
X13208000Y8890000D03*
X4445000Y16383000D03*
D23*
%TO.N,VMOTOR*%
X12827000Y12954000D03*
%TD*%
%TO.N,N$1*%
D24*
X6604000Y8047000D02*
X6604000Y7747000D01*
X6604000Y7747000D02*
X8001000Y6350000D01*
%TO.N,IN2*%
X6350000Y2540000D02*
X6350000Y3937000D01*
X6350000Y3937000D02*
X4064000Y6096000D01*
X4064000Y6096000D02*
X4064000Y8047000D01*
%TO.N,IN1*%
X8890000Y2921000D02*
X5334000Y6477000D01*
X5334000Y6477000D02*
X5334000Y8047000D01*
X8890000Y2540000D02*
X8890000Y2921000D01*
%TO.N,VMOTOR*%
D25*
X12827000Y12954000D02*
X12827000Y12827000D01*
X12827000Y12827000D02*
X12700000Y12954000D01*
%TD*%
%TA.AperFunction,Conductor*%
%TO.N,OUT1*%
G36*
X8965992Y21839239D02*
G01*
X8968757Y21838094D01*
X8974784Y21835597D01*
X9008598Y21801782D01*
X9012240Y21792992D01*
X9017000Y21769068D01*
X9017000Y18020152D01*
X9012483Y17996824D01*
X9004102Y17975993D01*
X8991206Y17956038D01*
X6699438Y15568779D01*
X5969000Y14807906D01*
X5969000Y12672431D01*
X5964240Y12648509D01*
X5962011Y12643128D01*
X5960598Y12639717D01*
X5926778Y12605900D01*
X5917989Y12602259D01*
X5894069Y12597500D01*
X4773931Y12597500D01*
X4750013Y12602258D01*
X4741223Y12605899D01*
X4707399Y12639723D01*
X4703757Y12648513D01*
X4699000Y12672431D01*
X4699000Y15510101D01*
X4703757Y15534018D01*
X4712018Y15553960D01*
X4727717Y15576287D01*
X6095977Y16820159D01*
X6096000Y16820180D01*
X6096000Y21769068D01*
X6100758Y21792986D01*
X6104399Y21801776D01*
X6138217Y21835598D01*
X6141628Y21837011D01*
X6147009Y21839240D01*
X6170931Y21844000D01*
X8942069Y21844000D01*
X8965992Y21839239D01*
G37*
%TD.AperFunction*%
%TD*%
%TA.AperFunction,Conductor*%
%TO.N,GND*%
G36*
X17778971Y23629466D02*
G01*
X17781013Y23629399D01*
X17781037Y23629399D01*
X17783055Y23629299D01*
X18040080Y23612452D01*
X18044144Y23612052D01*
X18048188Y23611520D01*
X18052229Y23610853D01*
X18301840Y23561203D01*
X18305828Y23560273D01*
X18309764Y23559218D01*
X18313673Y23558032D01*
X18554662Y23476226D01*
X18558487Y23474786D01*
X18562256Y23473225D01*
X18565984Y23471537D01*
X18794252Y23358969D01*
X18797867Y23357036D01*
X18801387Y23355003D01*
X18804852Y23352848D01*
X19016464Y23211453D01*
X19019786Y23209073D01*
X19023021Y23206591D01*
X19026185Y23203994D01*
X19217527Y23036192D01*
X19220512Y23033396D01*
X19223396Y23030512D01*
X19226192Y23027527D01*
X19393994Y22836185D01*
X19396591Y22833021D01*
X19399073Y22829786D01*
X19401453Y22826464D01*
X19542848Y22614852D01*
X19545003Y22611387D01*
X19547036Y22607867D01*
X19548969Y22604252D01*
X19661537Y22375984D01*
X19663225Y22372256D01*
X19664786Y22368487D01*
X19666226Y22364662D01*
X19748032Y22123673D01*
X19749218Y22119764D01*
X19750273Y22115828D01*
X19751203Y22111840D01*
X19764389Y22045549D01*
X19770357Y22015546D01*
X19776444Y21984948D01*
X19776444Y21960563D01*
X19775218Y21954400D01*
X19748641Y21914630D01*
X19701724Y21905299D01*
X19661952Y21931877D01*
X19660467Y21934210D01*
X19605472Y22025185D01*
X19485185Y22145472D01*
X19339606Y22233478D01*
X19177196Y22284086D01*
X19116091Y22289638D01*
X19112599Y22290500D01*
X19106623Y22290500D01*
X19106616Y22290500D01*
X18993384Y22290500D01*
X18993377Y22290500D01*
X18992761Y22290500D01*
X18991186Y22290301D01*
X18929531Y22284697D01*
X18922804Y22284086D01*
X18760394Y22233478D01*
X18614815Y22145472D01*
X18614814Y22145471D01*
X18494528Y22025185D01*
X18406522Y21879606D01*
X18355914Y21717198D01*
X18355912Y21717188D01*
X18349500Y21646634D01*
X18349500Y21533364D01*
X18355912Y21462810D01*
X18355914Y21462800D01*
X18406522Y21300392D01*
X18494528Y21154813D01*
X18614813Y21034528D01*
X18760392Y20946522D01*
X18876778Y20910255D01*
X18890459Y20898852D01*
X18971128Y20891521D01*
X18993374Y20889500D01*
X18993375Y20889500D01*
X19106625Y20889500D01*
X19106634Y20889500D01*
X19177188Y20895912D01*
X19177192Y20895912D01*
X19177194Y20895913D01*
X19177195Y20895913D01*
X19177198Y20895914D01*
X19339606Y20946522D01*
X19485185Y21034528D01*
X19605471Y21154814D01*
X19685122Y21286571D01*
X19693478Y21300394D01*
X19693631Y21300885D01*
X19694022Y21301603D01*
X19695031Y21303845D01*
X19695200Y21303768D01*
X19705290Y21322308D01*
X19708957Y21326708D01*
X19751313Y21348938D01*
X19796983Y21334706D01*
X19817574Y21301968D01*
X19817605Y21301845D01*
X19819500Y21286571D01*
X19819500Y3194017D01*
X19814740Y3170094D01*
X19812484Y3164649D01*
X19778656Y3130827D01*
X19730821Y3130832D01*
X19701447Y3155928D01*
X19700419Y3157606D01*
X19695778Y3166817D01*
X19591969Y3423756D01*
X19451340Y3667333D01*
X19278180Y3888967D01*
X19075860Y4084346D01*
X18848317Y4249665D01*
X18848315Y4249666D01*
X18848297Y4249679D01*
X18847842Y4249926D01*
X18846011Y4250937D01*
X18845336Y4251249D01*
X18780911Y4285505D01*
X18599981Y4381708D01*
X18335685Y4477904D01*
X18060573Y4536380D01*
X17780000Y4556000D01*
X17499427Y4536380D01*
X17224315Y4477904D01*
X16960019Y4381708D01*
X16960017Y4381707D01*
X16960015Y4381706D01*
X16960000Y4381698D01*
X16959958Y4381676D01*
X16959799Y4381591D01*
X16711694Y4249672D01*
X16711692Y4249670D01*
X16711689Y4249669D01*
X16711686Y4249667D01*
X16501075Y4096650D01*
X16484140Y4084346D01*
X16288482Y3895400D01*
X16288480Y3895399D01*
X16281823Y3888971D01*
X16108656Y3667328D01*
X16081502Y3620295D01*
X16081503Y3620295D01*
X15968031Y3423757D01*
X15968030Y3423755D01*
X15968026Y3423747D01*
X15917788Y3299403D01*
X15863345Y3164649D01*
X15862671Y3162982D01*
X15862379Y3162107D01*
X15862039Y3160448D01*
X15852488Y3122141D01*
X15818913Y2987474D01*
X15794628Y2890073D01*
X15765228Y2610357D01*
X15767685Y2540000D01*
X15775043Y2329281D01*
X15775043Y2329271D01*
X15775047Y2329246D01*
X15823881Y2052295D01*
X15823883Y2052285D01*
X15910791Y1784803D01*
X16034092Y1532000D01*
X16034093Y1531998D01*
X16034100Y1531988D01*
X16191374Y1298818D01*
X16379561Y1089816D01*
X16379652Y1089730D01*
X16380117Y1089350D01*
X16595021Y909024D01*
X16833539Y759980D01*
X16833547Y759976D01*
X17090489Y645579D01*
X17131581Y633796D01*
X17131582Y633795D01*
X17157010Y626503D01*
X17178692Y615335D01*
X17182923Y611969D01*
X17206111Y570130D01*
X17192922Y524148D01*
X17159480Y502504D01*
X17159248Y502444D01*
X17143781Y500500D01*
X3180700Y500500D01*
X3156788Y505255D01*
X3151788Y507326D01*
X3117963Y541147D01*
X3117960Y588983D01*
X3143935Y618893D01*
X3144143Y619015D01*
X3158681Y625269D01*
X3188414Y633795D01*
X3229513Y645580D01*
X3357984Y702779D01*
X3486461Y759980D01*
X3681334Y881752D01*
X3724975Y909022D01*
X3939126Y1088716D01*
X3939946Y1089367D01*
X3940435Y1089813D01*
X4128624Y1298819D01*
X4128627Y1298822D01*
X4179539Y1374300D01*
X4285904Y1531996D01*
X4285907Y1532000D01*
X4409203Y1784793D01*
X4409207Y1784803D01*
X4456072Y1929042D01*
X4496116Y2052285D01*
X4544956Y2329271D01*
X4554772Y2610357D01*
X4525372Y2890075D01*
X4457330Y3162978D01*
X4351969Y3423756D01*
X4211340Y3667333D01*
X4038180Y3888967D01*
X3835860Y4084346D01*
X3608317Y4249665D01*
X3608315Y4249666D01*
X3608297Y4249679D01*
X3607842Y4249926D01*
X3606011Y4250937D01*
X3605336Y4251249D01*
X3540911Y4285505D01*
X3359981Y4381708D01*
X3095685Y4477904D01*
X2820573Y4536380D01*
X2540000Y4556000D01*
X2259427Y4536380D01*
X1984315Y4477904D01*
X1720019Y4381708D01*
X1720017Y4381707D01*
X1720015Y4381706D01*
X1720000Y4381698D01*
X1719958Y4381676D01*
X1719799Y4381591D01*
X1471694Y4249672D01*
X1471692Y4249670D01*
X1471689Y4249669D01*
X1471686Y4249667D01*
X1261075Y4096650D01*
X1244140Y4084346D01*
X1048482Y3895400D01*
X1048480Y3895399D01*
X1041823Y3888971D01*
X868656Y3667328D01*
X841502Y3620295D01*
X841503Y3620295D01*
X728031Y3423757D01*
X728030Y3423755D01*
X728026Y3423747D01*
X682508Y3311085D01*
X626148Y3171589D01*
X615732Y3154421D01*
X610544Y3148345D01*
X567925Y3126622D01*
X522429Y3141398D01*
X502189Y3174550D01*
X502175Y3174609D01*
X500500Y3188984D01*
X500500Y5517634D01*
X696500Y5517634D01*
X696500Y5404364D01*
X702912Y5333810D01*
X702914Y5333800D01*
X753522Y5171393D01*
X841528Y5025813D01*
X961813Y4905528D01*
X1107392Y4817522D01*
X1223778Y4781255D01*
X1237459Y4769852D01*
X1318128Y4762521D01*
X1340374Y4760500D01*
X1340375Y4760500D01*
X1453625Y4760500D01*
X1453634Y4760500D01*
X1524188Y4766912D01*
X1524192Y4766912D01*
X1524194Y4766913D01*
X1524195Y4766913D01*
X1524198Y4766914D01*
X1686606Y4817522D01*
X1832185Y4905528D01*
X1952470Y5025813D01*
X2040477Y5171393D01*
X2040478Y5171394D01*
X2091086Y5333804D01*
X2093108Y5356055D01*
X2097301Y5402186D01*
X2097500Y5403761D01*
X2097500Y5519561D01*
X2097098Y5522032D01*
X2093820Y5558097D01*
X2093572Y5560834D01*
X2091086Y5588196D01*
X2040478Y5750606D01*
X1952472Y5896185D01*
X1832185Y6016472D01*
X1686606Y6104478D01*
X1524196Y6155086D01*
X1463091Y6160638D01*
X1459599Y6161500D01*
X1453623Y6161500D01*
X1453616Y6161500D01*
X1340384Y6161500D01*
X1340377Y6161500D01*
X1339761Y6161500D01*
X1338186Y6161301D01*
X1276531Y6155697D01*
X1269804Y6155086D01*
X1107394Y6104478D01*
X961815Y6016472D01*
X961814Y6016471D01*
X841528Y5896185D01*
X753522Y5750606D01*
X702914Y5588198D01*
X702912Y5588188D01*
X696500Y5517634D01*
X500500Y5517634D01*
X500500Y9141748D01*
X3638500Y9141748D01*
X3638500Y6952251D01*
X3638501Y6952248D01*
X3647424Y6907381D01*
X3646956Y6903582D01*
X3657609Y6868463D01*
X3660300Y6850321D01*
X3660300Y6154268D01*
X3659875Y6146992D01*
X3657468Y6126464D01*
X3659414Y6121188D01*
X3659892Y6104478D01*
X3660261Y6091579D01*
X3660279Y6090723D01*
X3660293Y6089781D01*
X3660300Y6088852D01*
X3660300Y6059101D01*
X3658528Y6053799D01*
X3663438Y6020211D01*
X3666677Y6015626D01*
X3675176Y5987183D01*
X3675435Y5986291D01*
X3675675Y5985442D01*
X3675902Y5984616D01*
X3683589Y5955927D01*
X3683245Y5950349D01*
X3696683Y5919159D01*
X3700994Y5915568D01*
X3716542Y5890331D01*
X3717041Y5889506D01*
X3717517Y5888706D01*
X3717932Y5887999D01*
X3732802Y5862245D01*
X3733913Y5856771D01*
X3754955Y5830133D01*
X3760043Y5827780D01*
X3781667Y5807357D01*
X3782311Y5806740D01*
X3782879Y5806188D01*
X3783513Y5805563D01*
X3804598Y5784480D01*
X3807093Y5779471D01*
X3823596Y5767177D01*
X3829170Y5762496D01*
X5917674Y3790020D01*
X5931795Y3770141D01*
X5940835Y3749968D01*
X5946300Y3724409D01*
X5946300Y3692359D01*
X5941542Y3668441D01*
X5941083Y3667332D01*
X5935767Y3654499D01*
X5910673Y3625123D01*
X5906216Y3622392D01*
X5901960Y3620008D01*
X5739040Y3536996D01*
X5739037Y3536994D01*
X5591594Y3429870D01*
X5590752Y3429284D01*
X5590640Y3429190D01*
X5460863Y3299414D01*
X5460860Y3299410D01*
X5460857Y3299406D01*
X5460854Y3299403D01*
X5360383Y3161116D01*
X5353002Y3150957D01*
X5353001Y3150955D01*
X5269702Y2987474D01*
X5213004Y2812971D01*
X5213001Y2812959D01*
X5212998Y2812944D01*
X5184301Y2631764D01*
X5184300Y2631750D01*
X5184300Y2448248D01*
X5184301Y2448234D01*
X5212998Y2267054D01*
X5213001Y2267039D01*
X5213004Y2267027D01*
X5269702Y2092525D01*
X5269702Y2092524D01*
X5353002Y1929041D01*
X5386793Y1882530D01*
X5433304Y1818515D01*
X5457805Y1784793D01*
X5457806Y1784790D01*
X5460863Y1780584D01*
X5590581Y1650866D01*
X5590589Y1650859D01*
X5739039Y1543003D01*
X5902523Y1459703D01*
X6072574Y1404450D01*
X6077060Y1402612D01*
X6081897Y1402232D01*
X6258234Y1374302D01*
X6258239Y1374301D01*
X6258243Y1374301D01*
X6258255Y1374300D01*
X6258257Y1374300D01*
X6258259Y1374300D01*
X6441740Y1374300D01*
X6441741Y1374300D01*
X6441743Y1374300D01*
X6441744Y1374300D01*
X6441756Y1374301D01*
X6441760Y1374301D01*
X6441764Y1374302D01*
X6622892Y1402990D01*
X6622967Y1403002D01*
X6622971Y1403003D01*
X6631357Y1405728D01*
X6635551Y1407091D01*
X6797473Y1459702D01*
X6797474Y1459702D01*
X6960955Y1543001D01*
X6960957Y1543002D01*
X6960960Y1543004D01*
X7109403Y1650854D01*
X7109406Y1650857D01*
X7109410Y1650860D01*
X7109414Y1650863D01*
X7239190Y1780640D01*
X7239284Y1780752D01*
X7239870Y1781594D01*
X7242195Y1784793D01*
X7346996Y1929040D01*
X7430297Y2092526D01*
X7486997Y2267031D01*
X7509517Y2409218D01*
X7515698Y2448243D01*
X7515700Y2448259D01*
X7515700Y2631740D01*
X7515698Y2631756D01*
X7514021Y2642343D01*
X7486997Y2812969D01*
X7430297Y2987474D01*
X7346996Y3150960D01*
X7239146Y3299403D01*
X7109403Y3429146D01*
X6960960Y3536996D01*
X6803171Y3617393D01*
X6790972Y3625542D01*
X6775963Y3638356D01*
X6755767Y3671322D01*
X6755419Y3672769D01*
X6753700Y3687328D01*
X6753700Y3878729D01*
X6754124Y3885999D01*
X6756510Y3906376D01*
X6754590Y3911620D01*
X6753734Y3941537D01*
X6753718Y3942294D01*
X6753704Y3943344D01*
X6753700Y3944093D01*
X6753700Y3973696D01*
X6755497Y3979026D01*
X6753276Y3994221D01*
X6753277Y3994222D01*
X6752779Y3997629D01*
X6752778Y3997628D01*
X6750587Y4012621D01*
X6747374Y4017193D01*
X6738778Y4045960D01*
X6738604Y4046559D01*
X6738326Y4047539D01*
X6738120Y4048290D01*
X6730449Y4076922D01*
X6730807Y4082550D01*
X6724726Y4096649D01*
X6724727Y4096650D01*
X6723365Y4099808D01*
X6723364Y4099807D01*
X6721363Y4104448D01*
X6720734Y4106034D01*
X6720406Y4106666D01*
X6717350Y4113750D01*
X6713065Y4117331D01*
X6697300Y4142918D01*
X6697062Y4143311D01*
X6696481Y4144283D01*
X6696169Y4144815D01*
X6681242Y4170671D01*
X6680131Y4176185D01*
X6670638Y4188196D01*
X6670639Y4188197D01*
X6668506Y4190896D01*
X6668505Y4190895D01*
X6659067Y4202839D01*
X6653978Y4205195D01*
X6632335Y4225634D01*
X6631726Y4226217D01*
X6631046Y4226878D01*
X6630492Y4227426D01*
X6609394Y4248524D01*
X6606896Y4253539D01*
X6594694Y4262624D01*
X6594695Y4262625D01*
X6590397Y4265825D01*
X6584838Y4270492D01*
X4496320Y6242981D01*
X4482202Y6262856D01*
X4473162Y6283032D01*
X4467700Y6308586D01*
X4467700Y6850323D01*
X4470391Y6868465D01*
X4481041Y6903577D01*
X4480573Y6907374D01*
X4489500Y6952252D01*
X4489500Y9141748D01*
X4908500Y9141748D01*
X4908500Y6952251D01*
X4908501Y6952248D01*
X4917424Y6907381D01*
X4916956Y6903582D01*
X4927609Y6868463D01*
X4930300Y6850321D01*
X4930300Y6536405D01*
X4930299Y6536352D01*
X4930299Y6423846D01*
X4936577Y6400419D01*
X4936578Y6400416D01*
X4957802Y6321204D01*
X4957809Y6321177D01*
X4957813Y6321170D01*
X5010959Y6229120D01*
X5010963Y6229117D01*
X5086122Y6153959D01*
X5086124Y6153957D01*
X7928994Y3311085D01*
X7942541Y3290811D01*
X7947267Y3279403D01*
X7948966Y3236171D01*
X7947214Y3230779D01*
X7938337Y3213357D01*
X7900265Y3160954D01*
X7895519Y3154421D01*
X7893002Y3150957D01*
X7853736Y3073894D01*
X7809702Y2987474D01*
X7753004Y2812971D01*
X7753001Y2812959D01*
X7752998Y2812944D01*
X7724301Y2631764D01*
X7724300Y2631750D01*
X7724300Y2448248D01*
X7724301Y2448234D01*
X7752998Y2267054D01*
X7753001Y2267039D01*
X7753004Y2267027D01*
X7809702Y2092525D01*
X7809702Y2092524D01*
X7893002Y1929041D01*
X7926793Y1882530D01*
X7973304Y1818515D01*
X7997805Y1784793D01*
X7997806Y1784790D01*
X8000863Y1780584D01*
X8130581Y1650866D01*
X8130589Y1650859D01*
X8279039Y1543003D01*
X8442523Y1459703D01*
X8612574Y1404450D01*
X8617060Y1402612D01*
X8621897Y1402232D01*
X8798234Y1374302D01*
X8798239Y1374301D01*
X8798243Y1374301D01*
X8798255Y1374300D01*
X8798257Y1374300D01*
X8798259Y1374300D01*
X8981740Y1374300D01*
X8981741Y1374300D01*
X8981743Y1374300D01*
X8981744Y1374300D01*
X8981756Y1374301D01*
X8981760Y1374301D01*
X8981764Y1374302D01*
X9162892Y1402990D01*
X9162967Y1403002D01*
X9162971Y1403003D01*
X9171357Y1405728D01*
X9175551Y1407091D01*
X9337473Y1459702D01*
X9337474Y1459702D01*
X9500955Y1543001D01*
X9500957Y1543002D01*
X9500960Y1543004D01*
X9649403Y1650854D01*
X9649406Y1650857D01*
X9649410Y1650860D01*
X9649414Y1650863D01*
X9779190Y1780640D01*
X9779284Y1780752D01*
X9779870Y1781594D01*
X9782195Y1784793D01*
X9886996Y1929040D01*
X9970297Y2092526D01*
X10026997Y2267031D01*
X10049517Y2409218D01*
X10055698Y2448243D01*
X10055700Y2448259D01*
X10055700Y2631740D01*
X10055699Y2631750D01*
X10264300Y2631750D01*
X10264300Y2448248D01*
X10264301Y2448234D01*
X10292998Y2267054D01*
X10293001Y2267039D01*
X10293004Y2267027D01*
X10349702Y2092525D01*
X10349702Y2092524D01*
X10433002Y1929041D01*
X10466793Y1882530D01*
X10513304Y1818515D01*
X10537805Y1784793D01*
X10537806Y1784790D01*
X10540863Y1780584D01*
X10670581Y1650866D01*
X10670589Y1650859D01*
X10819039Y1543003D01*
X10982523Y1459703D01*
X11152574Y1404450D01*
X11157060Y1402612D01*
X11161897Y1402232D01*
X11338234Y1374302D01*
X11338239Y1374301D01*
X11338243Y1374301D01*
X11338255Y1374300D01*
X11338257Y1374300D01*
X11338259Y1374300D01*
X11521740Y1374300D01*
X11521741Y1374300D01*
X11521743Y1374300D01*
X11521744Y1374300D01*
X11521756Y1374301D01*
X11521760Y1374301D01*
X11521764Y1374302D01*
X11702892Y1402990D01*
X11702967Y1403002D01*
X11702971Y1403003D01*
X11711357Y1405728D01*
X11715551Y1407091D01*
X11877473Y1459702D01*
X11877474Y1459702D01*
X12040955Y1543001D01*
X12040957Y1543002D01*
X12040960Y1543004D01*
X12189403Y1650854D01*
X12189406Y1650857D01*
X12189410Y1650860D01*
X12189414Y1650863D01*
X12319190Y1780640D01*
X12319284Y1780752D01*
X12319870Y1781594D01*
X12322195Y1784793D01*
X12426996Y1929040D01*
X12510297Y2092526D01*
X12566997Y2267031D01*
X12589517Y2409218D01*
X12595698Y2448243D01*
X12595700Y2448259D01*
X12595700Y2631740D01*
X12595698Y2631756D01*
X12594021Y2642343D01*
X12566997Y2812969D01*
X12510297Y2987474D01*
X12426996Y3150960D01*
X12319146Y3299403D01*
X12189403Y3429146D01*
X12040960Y3536996D01*
X11877474Y3620297D01*
X11702969Y3676997D01*
X11521743Y3705700D01*
X11521741Y3705700D01*
X11338123Y3705700D01*
X11337158Y3705564D01*
X11336726Y3705510D01*
X11335564Y3705273D01*
X11306555Y3700679D01*
X11299217Y3699517D01*
X11299216Y3699517D01*
X11264353Y3693995D01*
X11157031Y3676997D01*
X10982526Y3620297D01*
X10819040Y3536996D01*
X10819037Y3536994D01*
X10671594Y3429870D01*
X10670752Y3429284D01*
X10670640Y3429190D01*
X10540863Y3299414D01*
X10540860Y3299410D01*
X10540857Y3299406D01*
X10540854Y3299403D01*
X10440383Y3161116D01*
X10433002Y3150957D01*
X10433001Y3150955D01*
X10349702Y2987474D01*
X10293004Y2812971D01*
X10293001Y2812959D01*
X10292998Y2812944D01*
X10264301Y2631764D01*
X10264300Y2631750D01*
X10055699Y2631750D01*
X10055698Y2631756D01*
X10054021Y2642343D01*
X10026997Y2812969D01*
X9970297Y2987474D01*
X9886996Y3150960D01*
X9779146Y3299403D01*
X9649403Y3429146D01*
X9500960Y3536996D01*
X9337474Y3620297D01*
X9162969Y3676997D01*
X8981743Y3705700D01*
X8981741Y3705700D01*
X8798258Y3705700D01*
X8798257Y3705700D01*
X8764486Y3700350D01*
X8764483Y3700351D01*
X8764484Y3700350D01*
X8736632Y3695939D01*
X8712273Y3696895D01*
X8693549Y3701390D01*
X8663949Y3717966D01*
X5764793Y6617123D01*
X5751247Y6637398D01*
X5742457Y6658621D01*
X5737700Y6682537D01*
X5737700Y6850323D01*
X5740391Y6868465D01*
X5751041Y6903577D01*
X5750573Y6907374D01*
X5759500Y6952252D01*
X5759500Y9141748D01*
X5759500Y9141750D01*
X6178500Y9141750D01*
X6178500Y6952248D01*
X6190131Y6893771D01*
X6190137Y6893759D01*
X6234446Y6827446D01*
X6300759Y6783137D01*
X6300765Y6783133D01*
X6300767Y6783133D01*
X6300769Y6783132D01*
X6300770Y6783131D01*
X6359248Y6771500D01*
X6848751Y6771500D01*
X6848754Y6771500D01*
X6875414Y6776803D01*
X6899798Y6776803D01*
X6909130Y6774947D01*
X6948904Y6748373D01*
X6951766Y6744090D01*
X6962300Y6709365D01*
X6962300Y5983050D01*
X6973930Y5924577D01*
X6975390Y5921845D01*
X6977350Y5919457D01*
X7007057Y5874998D01*
X7007061Y5874993D01*
X7525996Y5356058D01*
X7575571Y5322934D01*
X7575577Y5322931D01*
X7634056Y5311300D01*
X8367946Y5311300D01*
X8367948Y5311300D01*
X8426421Y5322930D01*
X8426422Y5322930D01*
X8426424Y5322931D01*
X8426426Y5322932D01*
X8426431Y5322935D01*
X8426434Y5322937D01*
X8475998Y5356055D01*
X8476003Y5356059D01*
X8994940Y5874996D01*
X9003881Y5888377D01*
X9028067Y5924575D01*
X9030061Y5934601D01*
X9039392Y5957129D01*
X9046637Y5967972D01*
X9080455Y5993056D01*
X9084907Y5994407D01*
X9103056Y5997100D01*
X11175169Y5997100D01*
X11199092Y5992339D01*
X11201857Y5991194D01*
X11207884Y5988697D01*
X11241698Y5954882D01*
X11243576Y5950349D01*
X11245049Y5946793D01*
X11245340Y5946092D01*
X11250100Y5922168D01*
X11250100Y5650002D01*
X11255250Y5604274D01*
X11255252Y5604266D01*
X11294931Y5521873D01*
X11366434Y5464851D01*
X11366433Y5464851D01*
X11455600Y5444500D01*
X12655598Y5444500D01*
X12655599Y5444500D01*
X12655600Y5444500D01*
X12656450Y5444595D01*
X12664007Y5445446D01*
X12664007Y5445447D01*
X12701325Y5449650D01*
X12701332Y5449652D01*
X12783725Y5489331D01*
X12809677Y5521873D01*
X12838566Y5558100D01*
X12840441Y5560197D01*
X12840447Y5560207D01*
X12840727Y5560739D01*
X12850663Y5604274D01*
X12861100Y5650000D01*
X12861100Y7050000D01*
X12861100Y7050001D01*
X13300900Y7050001D01*
X13300900Y5650002D01*
X13306050Y5604274D01*
X13306052Y5604266D01*
X13345731Y5521873D01*
X13417234Y5464851D01*
X13417233Y5464851D01*
X13506400Y5444500D01*
X14706398Y5444500D01*
X14706399Y5444500D01*
X14706400Y5444500D01*
X14707250Y5444595D01*
X14714807Y5445446D01*
X14714807Y5445447D01*
X14752125Y5449650D01*
X14752132Y5449652D01*
X14834525Y5489331D01*
X14860477Y5521873D01*
X14889366Y5558100D01*
X14891241Y5560197D01*
X14891247Y5560207D01*
X14891527Y5560739D01*
X14901463Y5604274D01*
X14911900Y5650000D01*
X14911900Y5922168D01*
X14916658Y5946086D01*
X14920299Y5954876D01*
X14954117Y5988698D01*
X14957528Y5990111D01*
X14962909Y5992340D01*
X14986831Y5997100D01*
X17627465Y5997100D01*
X17696600Y6015626D01*
X17709262Y6019019D01*
X17709266Y6019019D01*
X17709266Y6019020D01*
X17717214Y6021149D01*
X17747769Y6038791D01*
X17747771Y6038791D01*
X17747771Y6038792D01*
X17797686Y6067610D01*
X17863385Y6133309D01*
X17863390Y6133314D01*
X17909850Y6213786D01*
X17931657Y6295168D01*
X17933899Y6303534D01*
X17933900Y6303540D01*
X17933900Y6396461D01*
X17933899Y6396465D01*
X17926560Y6423852D01*
X17909850Y6486214D01*
X17863390Y6566686D01*
X17797686Y6632390D01*
X17717214Y6678850D01*
X17662287Y6693567D01*
X17627465Y6702899D01*
X17627460Y6702900D01*
X17627458Y6702900D01*
X14986831Y6702900D01*
X14962913Y6707658D01*
X14954123Y6711299D01*
X14920299Y6745123D01*
X14916950Y6753208D01*
X14916657Y6753913D01*
X14911900Y6777831D01*
X14911900Y7049995D01*
X14911899Y7050000D01*
X14906748Y7095728D01*
X14867066Y7178127D01*
X14795563Y7235149D01*
X14706400Y7255500D01*
X13506402Y7255500D01*
X13506400Y7255500D01*
X13486076Y7253210D01*
X13475913Y7252065D01*
X13475912Y7252064D01*
X13460671Y7250348D01*
X13460667Y7250346D01*
X13460666Y7250346D01*
X13378273Y7210667D01*
X13321251Y7139164D01*
X13321251Y7139163D01*
X13300900Y7050001D01*
X12861100Y7050001D01*
X12855948Y7095728D01*
X12816266Y7178127D01*
X12744763Y7235149D01*
X12655600Y7255500D01*
X11455602Y7255500D01*
X11455600Y7255500D01*
X11435276Y7253210D01*
X11425113Y7252065D01*
X11425112Y7252064D01*
X11409871Y7250348D01*
X11409867Y7250346D01*
X11409866Y7250346D01*
X11327473Y7210667D01*
X11270451Y7139164D01*
X11270451Y7139163D01*
X11250100Y7050001D01*
X11250100Y6777831D01*
X11245340Y6753909D01*
X11245050Y6753208D01*
X11241698Y6745117D01*
X11207878Y6711300D01*
X11199089Y6707659D01*
X11175169Y6702900D01*
X9106217Y6702900D01*
X9082304Y6707656D01*
X9082297Y6707659D01*
X9070254Y6712647D01*
X9039049Y6740929D01*
X9036850Y6745044D01*
X9030678Y6762299D01*
X9029267Y6769392D01*
X9028964Y6772470D01*
X9028068Y6775424D01*
X9028068Y6775426D01*
X8994942Y6825002D01*
X8476004Y7343940D01*
X8426425Y7377067D01*
X8367942Y7388700D01*
X7634055Y7388700D01*
X7634054Y7388700D01*
X7594900Y7380912D01*
X7570518Y7380912D01*
X7552269Y7384542D01*
X7520271Y7401644D01*
X7056594Y7865322D01*
X7043047Y7885598D01*
X7034257Y7906821D01*
X7029500Y7930737D01*
X7029500Y9141748D01*
X7029500Y9141750D01*
X7017867Y9200230D01*
X7017866Y9200232D01*
X6973552Y9266552D01*
X6912347Y9307448D01*
X6909956Y9309410D01*
X6907232Y9310866D01*
X6907231Y9310867D01*
X6848748Y9322500D01*
X6359252Y9322500D01*
X6300769Y9310867D01*
X6300767Y9310866D01*
X6300763Y9310863D01*
X6300760Y9310862D01*
X6234446Y9266552D01*
X6190137Y9200239D01*
X6190137Y9200238D01*
X6190133Y9200232D01*
X6190132Y9200230D01*
X6190131Y9200228D01*
X6190131Y9200227D01*
X6178500Y9141750D01*
X5759500Y9141750D01*
X5747867Y9200231D01*
X5703552Y9266552D01*
X5637231Y9310867D01*
X5578748Y9322500D01*
X5089252Y9322500D01*
X5030769Y9310867D01*
X5030767Y9310866D01*
X5030763Y9310863D01*
X5030760Y9310862D01*
X4964446Y9266552D01*
X4920137Y9200239D01*
X4920137Y9200238D01*
X4920133Y9200232D01*
X4920132Y9200230D01*
X4908500Y9141748D01*
X4489500Y9141748D01*
X4477867Y9200231D01*
X4433552Y9266552D01*
X4367231Y9310867D01*
X4308748Y9322500D01*
X3819252Y9322500D01*
X3760769Y9310867D01*
X3760767Y9310866D01*
X3760763Y9310863D01*
X3760760Y9310862D01*
X3694446Y9266552D01*
X3650137Y9200239D01*
X3650137Y9200238D01*
X3650133Y9200232D01*
X3650132Y9200230D01*
X3638500Y9141748D01*
X500500Y9141748D01*
X500500Y21586945D01*
X500532Y21588942D01*
X500601Y21591065D01*
X500700Y21593055D01*
X508836Y21717188D01*
X513051Y21781500D01*
X2080500Y21781500D01*
X2080500Y12659999D01*
X2096142Y12581359D01*
X2114446Y12537170D01*
X2114453Y12537157D01*
X2151076Y12478871D01*
X2225660Y12425951D01*
X2225662Y12425949D01*
X2225664Y12425949D01*
X2269858Y12407643D01*
X2269863Y12407641D01*
X2348499Y12392000D01*
X2348500Y12392000D01*
X3493500Y12392000D01*
X3572140Y12407642D01*
X3616329Y12425946D01*
X3616336Y12425949D01*
X3638992Y12440185D01*
X3674628Y12462576D01*
X3727548Y12537160D01*
X3727551Y12537164D01*
X3745857Y12581358D01*
X3761500Y12660000D01*
X3761500Y16584759D01*
X3779806Y16628953D01*
X3782843Y16631795D01*
X4133630Y16938734D01*
X5701994Y18311053D01*
X5704254Y18313099D01*
X5707090Y18315665D01*
X5710109Y18318490D01*
X5710110Y18318492D01*
X5759548Y18389891D01*
X5759551Y18389895D01*
X5764678Y18402274D01*
X5770258Y18415743D01*
X5804083Y18449568D01*
X5851918Y18449567D01*
X5885743Y18415742D01*
X5890500Y18391825D01*
X5890500Y16938734D01*
X5872194Y16894540D01*
X5870060Y16892505D01*
X4819682Y15937616D01*
X4589485Y15728347D01*
X4589482Y15728344D01*
X4559614Y15694488D01*
X4543919Y15672167D01*
X4543915Y15672161D01*
X4522163Y15632608D01*
X4522158Y15632598D01*
X4513906Y15612677D01*
X4513904Y15612671D01*
X4513902Y15612666D01*
X4507271Y15590806D01*
X4502205Y15574106D01*
X4502201Y15574090D01*
X4497447Y15550190D01*
X4497447Y15550189D01*
X4493500Y15510098D01*
X4493500Y12672433D01*
X4497447Y12632344D01*
X4497448Y12632339D01*
X4502203Y12608431D01*
X4502204Y12608429D01*
X4513910Y12569845D01*
X4517549Y12561063D01*
X4562090Y12494411D01*
X4595915Y12460587D01*
X4662582Y12416040D01*
X4662585Y12416039D01*
X4671357Y12412406D01*
X4671364Y12412403D01*
X4671368Y12412401D01*
X4671370Y12412401D01*
X4700726Y12403495D01*
X4709932Y12400703D01*
X4733827Y12395950D01*
X4733854Y12395946D01*
X4766628Y12392719D01*
X4773931Y12392000D01*
X5894066Y12392000D01*
X5894069Y12392000D01*
X5900955Y12392678D01*
X5934152Y12395947D01*
X5934161Y12395949D01*
X5934164Y12395949D01*
X5934168Y12395950D01*
X5958088Y12400709D01*
X5958096Y12400711D01*
X5958103Y12400713D01*
X5996628Y12412401D01*
X5996633Y12412403D01*
X5996634Y12412403D01*
X5996639Y12412405D01*
X6005428Y12416046D01*
X6072082Y12460583D01*
X6072083Y12460584D01*
X6072087Y12460587D01*
X6105900Y12494397D01*
X6105901Y12494398D01*
X6106241Y12494907D01*
X6106412Y12495021D01*
X6107850Y12496773D01*
X6108381Y12496336D01*
X6146017Y12521479D01*
X6192933Y12512143D01*
X6202398Y12504374D01*
X6227482Y12479290D01*
X6227492Y12479281D01*
X6258628Y12453727D01*
X6258635Y12453722D01*
X6278894Y12440185D01*
X6314423Y12421194D01*
X6335656Y12412399D01*
X6335670Y12412394D01*
X6374204Y12400706D01*
X6374227Y12400700D01*
X6398124Y12395947D01*
X6398130Y12395946D01*
X6438208Y12392000D01*
X6438214Y12392000D01*
X7143087Y12392000D01*
X7153756Y12391082D01*
X7158742Y12390218D01*
X7158751Y12390216D01*
X7158778Y12390212D01*
X7164773Y12389323D01*
X7174810Y12388086D01*
X7180842Y12387493D01*
X7180848Y12387492D01*
X7180874Y12387490D01*
X7186585Y12387068D01*
X7190928Y12386748D01*
X7197058Y12386447D01*
X7207131Y12386200D01*
X7207133Y12386200D01*
X7276991Y12386200D01*
X7289184Y12384999D01*
X7348257Y12373248D01*
X7358197Y12371523D01*
X7364293Y12370619D01*
X7374284Y12369388D01*
X7380332Y12368793D01*
X7380334Y12368792D01*
X7380363Y12368790D01*
X7386342Y12368348D01*
X7390417Y12368048D01*
X7396547Y12367747D01*
X7406620Y12367500D01*
X7406622Y12367500D01*
X9488386Y12367500D01*
X9532580Y12349194D01*
X9682194Y12199580D01*
X9700500Y12155386D01*
X9700500Y10145707D01*
X9704446Y10105630D01*
X9704447Y10105624D01*
X9709200Y10081727D01*
X9709206Y10081704D01*
X9720894Y10043170D01*
X9720899Y10043156D01*
X9729694Y10021923D01*
X9748685Y9986394D01*
X9762227Y9966127D01*
X9787773Y9935001D01*
X9787789Y9934983D01*
X10061983Y9660789D01*
X10062001Y9660773D01*
X10093127Y9635227D01*
X10113394Y9621685D01*
X10148923Y9602694D01*
X10170156Y9593899D01*
X10170170Y9593894D01*
X10208704Y9582206D01*
X10208727Y9582200D01*
X10232624Y9577447D01*
X10232630Y9577446D01*
X10272708Y9573500D01*
X10272714Y9573500D01*
X14238283Y9573500D01*
X14238286Y9573500D01*
X14246060Y9574265D01*
X14278362Y9577446D01*
X14278389Y9577450D01*
X14302291Y9582204D01*
X14340841Y9593898D01*
X14362048Y9602681D01*
X14362059Y9602687D01*
X14362064Y9602689D01*
X14397600Y9621684D01*
X14397605Y9621687D01*
X14397608Y9621689D01*
X14417879Y9635234D01*
X14449009Y9660784D01*
X14449018Y9660792D01*
X14723206Y9934980D01*
X14723214Y9934989D01*
X14748767Y9966123D01*
X14748767Y9966124D01*
X14762314Y9986397D01*
X14763931Y9989423D01*
X14781309Y10021934D01*
X14790100Y10043158D01*
X14801792Y10081701D01*
X14806550Y10105618D01*
X14810500Y10145714D01*
X14810500Y22404068D01*
X14806549Y22444169D01*
X14801789Y22468093D01*
X14790089Y22506653D01*
X14786447Y22515443D01*
X14741911Y22582090D01*
X14708097Y22615905D01*
X14641430Y22660452D01*
X14641423Y22660455D01*
X14632651Y22664089D01*
X14632646Y22664090D01*
X14632638Y22664094D01*
X14610101Y22670931D01*
X14594104Y22675786D01*
X14594099Y22675787D01*
X14590634Y22676476D01*
X14570180Y22680547D01*
X14530069Y22684500D01*
X14530063Y22684500D01*
X10742936Y22684500D01*
X10742931Y22684500D01*
X10702827Y22680549D01*
X10694585Y22678909D01*
X10678913Y22675791D01*
X10678909Y22675789D01*
X10678905Y22675789D01*
X10640363Y22664095D01*
X10640353Y22664091D01*
X10640349Y22664090D01*
X10631575Y22660455D01*
X10631573Y22660454D01*
X10631571Y22660453D01*
X10564898Y22615900D01*
X10564894Y22615896D01*
X10564893Y22615896D01*
X10553251Y22604252D01*
X10531080Y22582078D01*
X10486542Y22515419D01*
X10486542Y22515418D01*
X10482903Y22506634D01*
X10471203Y22468066D01*
X10466450Y22444171D01*
X10466446Y22444144D01*
X10462500Y22404065D01*
X10462500Y17308614D01*
X10444194Y17264420D01*
X8770580Y15590806D01*
X8726386Y15572500D01*
X7134517Y15572500D01*
X7090323Y15590806D01*
X7072017Y15635000D01*
X7089430Y15678283D01*
X9139452Y17813724D01*
X9163794Y17844489D01*
X9163794Y17844490D01*
X9163801Y17844498D01*
X9176697Y17864453D01*
X9176706Y17864470D01*
X9194745Y17899278D01*
X9194747Y17899284D01*
X9194750Y17899289D01*
X9203131Y17920120D01*
X9214236Y17957759D01*
X9218753Y17981087D01*
X9222500Y18020152D01*
X9222500Y21769068D01*
X9218549Y21809169D01*
X9213789Y21833093D01*
X9202089Y21871653D01*
X9198447Y21880443D01*
X9153911Y21947090D01*
X9120097Y21980905D01*
X9053430Y22025452D01*
X9053423Y22025455D01*
X9044651Y22029089D01*
X9044646Y22029090D01*
X9044638Y22029094D01*
X9022101Y22035931D01*
X9006104Y22040786D01*
X9006099Y22040787D01*
X9002634Y22041476D01*
X8982180Y22045547D01*
X8942069Y22049500D01*
X8942063Y22049500D01*
X6170936Y22049500D01*
X6170931Y22049500D01*
X6130827Y22045549D01*
X6122585Y22043909D01*
X6106913Y22040791D01*
X6106909Y22040789D01*
X6106905Y22040789D01*
X6068363Y22029095D01*
X6068353Y22029091D01*
X6068349Y22029090D01*
X6059575Y22025455D01*
X6059573Y22025454D01*
X6059571Y22025453D01*
X5992898Y21980900D01*
X5992894Y21980896D01*
X5992893Y21980896D01*
X5974628Y21962628D01*
X5959080Y21947078D01*
X5914542Y21880419D01*
X5910901Y21871629D01*
X5910897Y21871617D01*
X5910897Y21871616D01*
X5901596Y21840957D01*
X5871249Y21803980D01*
X5823644Y21799293D01*
X5786667Y21829640D01*
X5780489Y21846910D01*
X5777858Y21860137D01*
X5777857Y21860140D01*
X5777857Y21860142D01*
X5759551Y21904336D01*
X5722924Y21962627D01*
X5648336Y22015551D01*
X5604142Y22033857D01*
X5525500Y22049500D01*
X2348500Y22049500D01*
X2269858Y22033857D01*
X2225664Y22015551D01*
X2184803Y21989876D01*
X2167371Y21978923D01*
X2131399Y21928225D01*
X2114449Y21904336D01*
X2096143Y21860142D01*
X2096141Y21860136D01*
X2080500Y21781500D01*
X513051Y21781500D01*
X517546Y21850088D01*
X517946Y21854144D01*
X518482Y21858212D01*
X519142Y21862211D01*
X531798Y21925839D01*
X568796Y22111846D01*
X569725Y22115826D01*
X570781Y22119765D01*
X571966Y22123671D01*
X579367Y22145472D01*
X653773Y22364665D01*
X655212Y22368487D01*
X656773Y22372256D01*
X658461Y22375984D01*
X672310Y22404068D01*
X771035Y22604264D01*
X772949Y22607844D01*
X775000Y22611396D01*
X777150Y22614852D01*
X918545Y22826464D01*
X920925Y22829786D01*
X923418Y22833035D01*
X926004Y22836185D01*
X1093813Y23027534D01*
X1096609Y23030519D01*
X1099479Y23033389D01*
X1102464Y23036185D01*
X1293813Y23203994D01*
X1296967Y23206582D01*
X1300215Y23209075D01*
X1303534Y23211453D01*
X1515146Y23352848D01*
X1518611Y23355003D01*
X1522143Y23357042D01*
X1525746Y23358969D01*
X1754014Y23471537D01*
X1757742Y23473225D01*
X1761511Y23474786D01*
X1765336Y23476226D01*
X2006325Y23558032D01*
X2010234Y23559218D01*
X2012498Y23559824D01*
X2014174Y23560273D01*
X2018158Y23561203D01*
X2267769Y23610853D01*
X2271810Y23611520D01*
X2275854Y23612052D01*
X2279918Y23612452D01*
X2536944Y23629299D01*
X2538963Y23629399D01*
X2538987Y23629399D01*
X2541027Y23629466D01*
X2543055Y23629500D01*
X17776945Y23629500D01*
X17778971Y23629466D01*
G37*
%TD.AperFunction*%
%TD*%
%TA.AperFunction,Conductor*%
%TO.N,VMOTOR*%
G36*
X14553992Y22474239D02*
G01*
X14556757Y22473094D01*
X14562784Y22470597D01*
X14596598Y22436782D01*
X14600240Y22427992D01*
X14605000Y22404068D01*
X14605000Y10145714D01*
X14600242Y10121797D01*
X14591452Y10100575D01*
X14591451Y10100573D01*
X14577903Y10080298D01*
X14303701Y9806096D01*
X14283426Y9792548D01*
X14262204Y9783758D01*
X14238286Y9779000D01*
X10272714Y9779000D01*
X10248800Y9783756D01*
X10227569Y9792550D01*
X10207301Y9806093D01*
X9933093Y10080301D01*
X9919550Y10100569D01*
X9910756Y10121800D01*
X9906000Y10145714D01*
X9906000Y12266394D01*
X9599394Y12573000D01*
X7406622Y12573000D01*
X7400498Y12573301D01*
X7394414Y12573900D01*
X7388351Y12574799D01*
X7303384Y12591700D01*
X7207133Y12591700D01*
X7201009Y12592001D01*
X7194925Y12592600D01*
X7188865Y12593498D01*
X7168748Y12597500D01*
X7168747Y12597500D01*
X6438214Y12597500D01*
X6414300Y12602256D01*
X6393069Y12611050D01*
X6372801Y12624593D01*
X6192806Y12804589D01*
X6174500Y12848783D01*
X6174500Y14700086D01*
X6191913Y14743369D01*
X6772150Y15347783D01*
X6815962Y15366987D01*
X6817237Y15367000D01*
X8837394Y15367000D01*
X10668000Y17197606D01*
X10668000Y22404068D01*
X10672758Y22427986D01*
X10676399Y22436776D01*
X10710217Y22470598D01*
X10713628Y22472011D01*
X10719009Y22474240D01*
X10742931Y22479000D01*
X14530069Y22479000D01*
X14553992Y22474239D01*
G37*
%TD.AperFunction*%
%TD*%
%TA.AperFunction,Conductor*%
%TO.N,OUT2*%
G36*
X5569694Y21825694D02*
G01*
X5588000Y21781500D01*
X5588000Y18512731D01*
X5569694Y18468537D01*
X5566671Y18465708D01*
X3556000Y16706371D01*
X3556000Y16706370D01*
X3556000Y12660000D01*
X3537694Y12615806D01*
X3493500Y12597500D01*
X2348500Y12597500D01*
X2304306Y12615806D01*
X2286000Y12660000D01*
X2286000Y21781500D01*
X2304306Y21825694D01*
X2348500Y21844000D01*
X5525500Y21844000D01*
X5569694Y21825694D01*
G37*
%TD.AperFunction*%
%TD*%
M02*
