%TF.GenerationSoftware,KiCad,Pcbnew,10.99.0-3758-g2f18d95be7*%
%TF.CreationDate,2026-09-21T19:35:00+01:00*%
%TF.ProjectId,kicad_file,6b696361-645f-4666-996c-652e6b696361,rev?*%
%TF.SameCoordinates,Original*%
%TF.FileFunction,Copper,L1,Top*%
%TF.FilePolarity,Positive*%
%FSLAX46Y46*%
G04 Gerber Fmt 4.6, Leading zero omitted, Abs format (unit mm)*
G04 Created by KiCad (PCBNEW 10.99.0-3758-g2f18d95be7) date 2026-09-21 19:35:00*
%MOMM*%
%LPD*%
G01*
G04 APERTURE LIST*
G04 Aperture macros list*
%AMRoundRect*
0 Rectangle with rounded corners*
0 $1 Rounding radius*
0 $2 $3 $4 $5 $6 $7 $8 $9 X,Y pos of 4 corners*
0 Add a 4 corners polygon primitive as box body*
4,1,4,$2,$3,$4,$5,$6,$7,$8,$9,$2,$3,0*
0 Add four circle primitives for the rounded corners*
1,1,$1+$1,$2,$3*
1,1,$1+$1,$4,$5*
1,1,$1+$1,$6,$7*
1,1,$1+$1,$8,$9*
0 Add four rect primitives between the rounded corners*
20,1,$1+$1,$2,$3,$4,$5,0*
20,1,$1+$1,$4,$5,$6,$7,0*
20,1,$1+$1,$6,$7,$8,$9,0*
20,1,$1+$1,$8,$9,$2,$3,0*%
G04 Aperture macros list end*
%TA.AperFunction,SMDPad,CuDef*%
%ADD10RoundRect,0.500000X-0.000010X-0.000010X0.000010X-0.000010X0.000010X0.000010X-0.000010X0.000010X0*%
%TD*%
%TA.AperFunction,SMDPad,CuDef*%
%ADD11R,1.500000X1.300000*%
%TD*%
%TA.AperFunction,SMDPad,CuDef*%
%ADD12R,1.400000X1.000000*%
%TD*%
%TA.AperFunction,SMDPad,CuDef*%
%ADD13R,0.360000X1.260000*%
%TD*%
%TA.AperFunction,SMDPad,CuDef*%
%ADD14R,1.200000X1.000000*%
%TD*%
%TA.AperFunction,SMDPad,CuDef*%
%ADD15R,1.100000X1.400000*%
%TD*%
%TA.AperFunction,SMDPad,CuDef*%
%ADD16R,1.200000X1.200000*%
%TD*%
%TA.AperFunction,ComponentPad*%
%ADD17C,1.778000*%
%TD*%
%TA.AperFunction,WasherPad*%
%ADD18C,2.311400*%
%TD*%
%TA.AperFunction,ComponentPad*%
%ADD19C,2.540000*%
%TD*%
%TA.AperFunction,ViaPad*%
%ADD20C,0.906400*%
%TD*%
%TA.AperFunction,ViaPad*%
%ADD21C,0.812800*%
%TD*%
%TA.AperFunction,Conductor*%
%ADD22C,0.254000*%
%TD*%
%TA.AperFunction,Conductor*%
%ADD23C,0.609600*%
%TD*%
%TA.AperFunction,Conductor*%
%ADD24C,0.812800*%
%TD*%
G04 APERTURE END LIST*
D10*
%TO.P,FID3,1*%
%TO.N,N/C*%
X3302000Y4445000D03*
%TD*%
D11*
%TO.P,R2,1*%
%TO.N,GATE*%
X15494000Y14290000D03*
%TO.P,R2,2*%
%TO.N,N$7*%
X15494000Y16190000D03*
%TD*%
D12*
%TO.P,Q1,B*%
%TO.N,N$1*%
X16340000Y10353000D03*
%TO.P,Q1,C*%
%TO.N,N$2*%
X14140000Y11303000D03*
%TO.P,Q1,E*%
%TO.N,GND*%
X16340000Y12253000D03*
%TD*%
D13*
%TO.P,IC1,1*%
%TO.N,GND*%
X8210000Y5965000D03*
%TO.P,IC1,2*%
X8860000Y5965000D03*
%TO.P,IC1,3*%
%TO.N,N/C*%
X9510000Y5965000D03*
%TO.P,IC1,4*%
X10160000Y5965000D03*
%TO.P,IC1,5*%
%TO.N,GND*%
X10810000Y5965000D03*
%TO.P,IC1,6*%
X11460000Y5965000D03*
%TO.P,IC1,7*%
X12110000Y5965000D03*
%TO.P,IC1,8*%
%TO.N,N$7*%
X12110000Y11815000D03*
%TO.P,IC1,9*%
X11460000Y11815000D03*
%TO.P,IC1,10*%
%TO.N,N$2*%
X10810000Y11815000D03*
%TO.P,IC1,11*%
%TO.N,GATE*%
X10160000Y11815000D03*
%TO.P,IC1,12*%
%TO.N,N$2*%
X9510000Y11815000D03*
%TO.P,IC1,13*%
X8860000Y11815000D03*
%TO.P,IC1,14*%
%TO.N,+18V*%
X8210000Y11815000D03*
%TD*%
D14*
%TO.P,Q2,1*%
%TO.N,GATE*%
X5826000Y10734000D03*
%TO.P,Q2,2*%
%TO.N,+18V*%
X5826000Y12634000D03*
%TO.P,Q2,3*%
%TO.N,OUT*%
X3826000Y11684000D03*
%TD*%
D11*
%TO.P,C1,1*%
%TO.N,N$5*%
X5461000Y4484000D03*
%TO.P,C1,2*%
%TO.N,GND*%
X5461000Y6184000D03*
%TD*%
D10*
%TO.P,FID1,1*%
%TO.N,N/C*%
X17272000Y4318000D03*
%TD*%
D15*
%TO.P,R4,1*%
%TO.N,KILL*%
X16494000Y6350000D03*
%TO.P,R4,2*%
%TO.N,N$1*%
X14494000Y6350000D03*
%TD*%
D16*
%TO.P,LED0,A*%
%TO.N,N$3*%
X10160000Y1236000D03*
%TO.P,LED0,C*%
%TO.N,GND*%
X10160000Y3336000D03*
%TD*%
D10*
%TO.P,FID2,1*%
%TO.N,N/C*%
X4572000Y16383000D03*
%TD*%
D11*
%TO.P,R3,1*%
%TO.N,N$2*%
X10160000Y14290000D03*
%TO.P,R3,2*%
%TO.N,N$5*%
X10160000Y16190000D03*
%TD*%
%TO.P,R1,1*%
%TO.N,N$3*%
X15240000Y1590000D03*
%TO.P,R1,2*%
%TO.N,OUT*%
X15240000Y3490000D03*
%TD*%
D17*
%TO.P,CN1,1*%
%TO.N,KILL*%
X1270000Y5080000D03*
%TO.P,CN1,2*%
%TO.N,GND*%
X1270000Y7620000D03*
%TO.P,CN1,3*%
%TO.N,OUT*%
X1270000Y10160000D03*
%TO.P,CN1,4*%
%TO.N,+18V*%
X1270000Y12700000D03*
%TD*%
%TO.P,CN2,1*%
%TO.N,KILL*%
X19050000Y5080000D03*
%TO.P,CN2,2*%
%TO.N,GND*%
X19050000Y7620000D03*
%TO.P,CN2,3*%
%TO.N,OUT*%
X19050000Y10160000D03*
%TO.P,CN2,4*%
%TO.N,+18V*%
X19050000Y12700000D03*
%TD*%
D18*
%TO.P,S1,*%
%TO.N,*%
X5664200Y8890000D03*
X14655800Y8890000D03*
D19*
%TO.P,S1,1*%
%TO.N,N$7*%
X12649200Y2641600D03*
%TO.P,S1,2*%
X12649200Y15138400D03*
%TO.P,S1,3*%
%TO.N,N$5*%
X7670800Y2641600D03*
%TO.P,S1,4*%
X7670800Y15138400D03*
%TD*%
D20*
%TO.N,+18V*%
X5969000Y13843000D03*
D21*
%TO.N,GND*%
X17805400Y11404600D03*
D20*
X7493000Y9017000D03*
X17145000Y8763000D03*
X7112000Y5969000D03*
%TO.N,N$7*%
X9779000Y9271000D03*
X11938000Y8255000D03*
%TD*%
%TO.N,+18V*%
D22*
X5969000Y12573000D02*
X5887000Y12573000D01*
X8210000Y11815000D02*
X6645000Y11815000D01*
X6645000Y11815000D02*
X5826000Y12634000D01*
X5887000Y12573000D02*
X5826000Y12634000D01*
D23*
X5969000Y12573000D02*
X5969000Y13843000D01*
%TO.N,N$2*%
D22*
X11430000Y9652000D02*
X10033000Y8255000D01*
X9510000Y11815000D02*
X8860000Y11815000D01*
X9510000Y13590000D02*
X9510000Y12954000D01*
X12489000Y9652000D02*
X11430000Y9652000D01*
X10795000Y11303000D02*
X10810000Y11318000D01*
X8905000Y9779000D02*
X9413000Y10287000D01*
X8905000Y8255000D02*
X8905000Y9779000D01*
X10810000Y11815000D02*
X10810000Y12954000D01*
X10795000Y10668000D02*
X10795000Y11303000D01*
X10414000Y10287000D02*
X10795000Y10668000D01*
X10160000Y14240000D02*
X10160000Y14290000D01*
X10810000Y12954000D02*
X9510000Y12954000D01*
X10033000Y8255000D02*
X8905000Y8255000D01*
X9510000Y12954000D02*
X9510000Y11815000D01*
X9413000Y10287000D02*
X10414000Y10287000D01*
X10810000Y11318000D02*
X10810000Y11815000D01*
X9510000Y13590000D02*
X10160000Y14240000D01*
X14140000Y11303000D02*
X12489000Y9652000D01*
%TO.N,N$3*%
X15163000Y1590000D02*
X15240000Y1590000D01*
X13954000Y381000D02*
X15163000Y1590000D01*
X13954000Y381000D02*
X11015000Y381000D01*
X11015000Y381000D02*
X10160000Y1236000D01*
%TO.N,GATE*%
X14986000Y10287000D02*
X13970000Y10287000D01*
X10160000Y11815000D02*
X10160000Y11049000D01*
X5887000Y10795000D02*
X5826000Y10734000D01*
X13970000Y10287000D02*
X12827000Y9144000D01*
X14986000Y10287000D02*
X15240000Y10541000D01*
X11684000Y9144000D02*
X10287000Y7747000D01*
X8382000Y7747000D02*
X8382000Y10795000D01*
X15494000Y13462000D02*
X15494000Y14290000D01*
X15240000Y13208000D02*
X15494000Y13462000D01*
X8382000Y10795000D02*
X9906000Y10795000D01*
X10160000Y11049000D02*
X9906000Y10795000D01*
X10287000Y7747000D02*
X8382000Y7747000D01*
X12827000Y9144000D02*
X11684000Y9144000D01*
X8382000Y10795000D02*
X5887000Y10795000D01*
X15240000Y10541000D02*
X15240000Y13208000D01*
%TO.N,N$5*%
X8722400Y16190000D02*
X10160000Y16190000D01*
X7670800Y15138400D02*
X8722400Y16190000D01*
X7670800Y2641600D02*
X5828400Y4484000D01*
X7518400Y14986000D02*
X7670800Y15138400D01*
X4992000Y4445000D02*
X5366846Y4445000D01*
X4992000Y4445000D02*
X3048000Y6389000D01*
X5842000Y14986000D02*
X7518400Y14986000D01*
X4826000Y13970000D02*
X5842000Y14986000D01*
X5828400Y4484000D02*
X5461000Y4484000D01*
X3048000Y9144000D02*
X4826000Y10922000D01*
X3048000Y6389000D02*
X3048000Y9144000D01*
X4826000Y10922000D02*
X4826000Y13970000D01*
X5366846Y4445000D02*
G75*
G03*
X5460987Y4484013I-46J133200D01*
G01*
%TO.N,N$7*%
X12110000Y14599200D02*
X12110000Y11815000D01*
X11460000Y11815000D02*
X12110000Y11815000D01*
X10287000Y9271000D02*
X9779000Y9271000D01*
X12110000Y11094000D02*
X10287000Y9271000D01*
X12110000Y11094000D02*
X12110000Y11815000D01*
X12649200Y15138400D02*
X13700800Y16190000D01*
X13208000Y6985000D02*
X11938000Y8255000D01*
X12649200Y15138400D02*
X12110000Y14599200D01*
X13208000Y3200400D02*
X13208000Y6985000D01*
X13700800Y16190000D02*
X15494000Y16190000D01*
X12649200Y2641600D02*
X13208000Y3200400D01*
%TO.N,N$1*%
X16213000Y8593000D02*
X16213000Y10353000D01*
X14494000Y6350000D02*
X14494000Y6874000D01*
X16213000Y10353000D02*
X16340000Y10353000D01*
X14494000Y6874000D02*
X16213000Y8593000D01*
%TO.N,KILL*%
X17791312Y6338687D02*
X19050000Y5080000D01*
X17764000Y6350000D02*
X16494000Y6350000D01*
X17764000Y6350000D02*
G75*
G02*
X17791307Y6338682I0J-38600D01*
G01*
%TO.N,OUT*%
X17145000Y7620000D02*
X18415000Y8890000D01*
D24*
X3826000Y11684000D02*
X2302000Y10160000D01*
D22*
X18415000Y9525000D02*
X19050000Y10160000D01*
X18415000Y8890000D02*
X18415000Y9525000D01*
X15494000Y7112000D02*
X16002000Y7620000D01*
X15494000Y3794000D02*
X15494000Y7112000D01*
X16002000Y7620000D02*
X17145000Y7620000D01*
X15240000Y3540000D02*
X15240000Y3490000D01*
D24*
X2302000Y10160000D02*
X1270000Y10160000D01*
D22*
X15494000Y3794000D02*
X15240000Y3540000D01*
D24*
X2311400Y10160000D02*
X2302000Y10160000D01*
%TD*%
%TA.AperFunction,Conductor*%
%TO.N,GND*%
G36*
X4317651Y10965194D02*
G01*
X4335957Y10921000D01*
X4317651Y10876806D01*
X2846910Y9406065D01*
X2785935Y9345090D01*
X2760064Y9300279D01*
X2742818Y9270409D01*
X2742818Y9270407D01*
X2720500Y9187121D01*
X2720500Y6345878D01*
X2742818Y6262592D01*
X2742818Y6262590D01*
X2785936Y6187909D01*
X2785939Y6187905D01*
X4492194Y4481651D01*
X4510500Y4437457D01*
X4510500Y3814251D01*
X4522132Y3755769D01*
X4522133Y3755767D01*
X4566447Y3689447D01*
X4632767Y3645133D01*
X4632769Y3645132D01*
X4691251Y3633500D01*
X4691252Y3633500D01*
X6189857Y3633500D01*
X6234051Y3615194D01*
X6389046Y3460197D01*
X6407352Y3416003D01*
X6400540Y3387629D01*
X6308037Y3206082D01*
X6308033Y3206074D01*
X6236508Y2985941D01*
X6236508Y2985940D01*
X6200301Y2757344D01*
X6200300Y2757328D01*
X6200300Y2525871D01*
X6200301Y2525855D01*
X6236508Y2297259D01*
X6236508Y2297258D01*
X6308033Y2077125D01*
X6308034Y2077122D01*
X6413116Y1870889D01*
X6549171Y1683626D01*
X6712826Y1519971D01*
X6900089Y1383916D01*
X7106322Y1278834D01*
X7106325Y1278833D01*
X7326458Y1207308D01*
X7555055Y1171101D01*
X7555067Y1171100D01*
X7555069Y1171100D01*
X7555071Y1171100D01*
X7786529Y1171100D01*
X7786531Y1171100D01*
X7786532Y1171100D01*
X7786544Y1171101D01*
X8015140Y1207308D01*
X8015141Y1207308D01*
X8235274Y1278833D01*
X8235277Y1278834D01*
X8441510Y1383916D01*
X8628766Y1519965D01*
X8628769Y1519968D01*
X8628773Y1519971D01*
X8792428Y1683626D01*
X8792430Y1683629D01*
X8792435Y1683634D01*
X8928484Y1870890D01*
X9033566Y2077124D01*
X9105091Y2297257D01*
X9141300Y2525869D01*
X9141300Y2635360D01*
X9159606Y2679553D01*
X9203800Y2697859D01*
X9247994Y2679553D01*
X9260974Y2660604D01*
X9304855Y2561224D01*
X9304856Y2561223D01*
X9385221Y2480857D01*
X9489194Y2434948D01*
X9514611Y2432000D01*
X10008000Y2432000D01*
X10008000Y3184000D01*
X9256001Y3184000D01*
X9256001Y2827275D01*
X9237695Y2783081D01*
X9193501Y2764775D01*
X9149307Y2783081D01*
X9131771Y2817498D01*
X9105091Y2985940D01*
X9105091Y2985941D01*
X9105091Y2985943D01*
X9033566Y3206076D01*
X8928484Y3412310D01*
X8792435Y3599566D01*
X8628766Y3763235D01*
X8441510Y3899284D01*
X8280373Y3981388D01*
X9256000Y3981388D01*
X9256000Y3488000D01*
X10008000Y3488000D01*
X10312000Y3488000D01*
X11063999Y3488000D01*
X11063999Y3981388D01*
X11061050Y4006807D01*
X11061050Y4006808D01*
X11015142Y4110778D01*
X10934778Y4191142D01*
X10830805Y4237051D01*
X10805388Y4239999D01*
X10312000Y4239999D01*
X10312000Y3488000D01*
X10008000Y3488000D01*
X10008000Y4239999D01*
X9514612Y4239999D01*
X9489192Y4237050D01*
X9489191Y4237050D01*
X9385221Y4191142D01*
X9304857Y4110778D01*
X9258948Y4006805D01*
X9256000Y3981388D01*
X8280373Y3981388D01*
X8235276Y4004366D01*
X8015143Y4075891D01*
X7786531Y4112100D01*
X7555069Y4112100D01*
X7555063Y4112099D01*
X7555055Y4112098D01*
X7462018Y4097362D01*
X7326457Y4075891D01*
X7106324Y4004366D01*
X7006929Y3953721D01*
X6924769Y3911859D01*
X6877082Y3908106D01*
X6852201Y3923353D01*
X6652775Y4122779D01*
X6429805Y4345749D01*
X6411500Y4389942D01*
X6411500Y5153748D01*
X6404200Y5190448D01*
X6399867Y5212231D01*
X6396033Y5217967D01*
X6386700Y5264882D01*
X6399918Y5289611D01*
X7726001Y5289611D01*
X7728949Y5264192D01*
X7728949Y5264191D01*
X7774857Y5160221D01*
X7855221Y5079857D01*
X7959194Y5033948D01*
X7984611Y5031000D01*
X8058000Y5031000D01*
X8362000Y5031000D01*
X8435388Y5031000D01*
X8460807Y5033949D01*
X8460811Y5033950D01*
X8509756Y5055561D01*
X8557578Y5056665D01*
X8560244Y5055561D01*
X8609196Y5033947D01*
X8634601Y5031000D01*
X8708000Y5031000D01*
X9012000Y5031000D01*
X9085388Y5031000D01*
X9110807Y5033949D01*
X9110808Y5033949D01*
X9214778Y5079857D01*
X9252573Y5117652D01*
X9296767Y5135958D01*
X9308959Y5134757D01*
X9310248Y5134500D01*
X9310252Y5134500D01*
X9709748Y5134500D01*
X9768230Y5146132D01*
X9768232Y5146133D01*
X9800277Y5167545D01*
X9847193Y5176877D01*
X9869723Y5167545D01*
X9901767Y5146133D01*
X9901769Y5146132D01*
X9960251Y5134500D01*
X9960252Y5134500D01*
X10359747Y5134500D01*
X10359748Y5134500D01*
X10361045Y5134758D01*
X10361482Y5134670D01*
X10362804Y5134801D01*
X10362843Y5134400D01*
X10407960Y5125420D01*
X10417424Y5117652D01*
X10455219Y5079858D01*
X10559194Y5033948D01*
X10584611Y5031000D01*
X10658000Y5031000D01*
X10962000Y5031000D01*
X11035388Y5031000D01*
X11060807Y5033949D01*
X11060811Y5033950D01*
X11109756Y5055561D01*
X11157578Y5056665D01*
X11160244Y5055561D01*
X11209196Y5033947D01*
X11234601Y5031000D01*
X11308000Y5031000D01*
X11612000Y5031000D01*
X11685388Y5031000D01*
X11710807Y5033949D01*
X11710811Y5033950D01*
X11759756Y5055561D01*
X11807578Y5056665D01*
X11810244Y5055561D01*
X11859196Y5033947D01*
X11884601Y5031000D01*
X11958000Y5031000D01*
X12262000Y5031000D01*
X12335388Y5031000D01*
X12360807Y5033949D01*
X12360808Y5033949D01*
X12464778Y5079857D01*
X12545142Y5160221D01*
X12591051Y5264194D01*
X12594000Y5289611D01*
X12594000Y5813000D01*
X12262000Y5813000D01*
X12262000Y5031000D01*
X11958000Y5031000D01*
X11958000Y5813000D01*
X11612000Y5813000D01*
X11612000Y5031000D01*
X11308000Y5031000D01*
X11308000Y5813000D01*
X10962000Y5813000D01*
X10962000Y5031000D01*
X10658000Y5031000D01*
X10658000Y6117000D01*
X10962000Y6117000D01*
X11308000Y6117000D01*
X11612000Y6117000D01*
X11958000Y6117000D01*
X12262000Y6117000D01*
X12593999Y6117000D01*
X12593999Y6640388D01*
X12591050Y6665807D01*
X12591050Y6665808D01*
X12545142Y6769778D01*
X12464778Y6850142D01*
X12360805Y6896051D01*
X12335388Y6898999D01*
X12262000Y6898999D01*
X12262000Y6117000D01*
X11958000Y6117000D01*
X11958000Y6898999D01*
X11884612Y6898999D01*
X11859192Y6896050D01*
X11859188Y6896049D01*
X11810245Y6874438D01*
X11762422Y6873332D01*
X11759753Y6874438D01*
X11710806Y6896050D01*
X11685388Y6898999D01*
X11612000Y6898999D01*
X11612000Y6117000D01*
X11308000Y6117000D01*
X11308000Y6898999D01*
X11234612Y6898999D01*
X11209192Y6896050D01*
X11209188Y6896049D01*
X11160245Y6874438D01*
X11112422Y6873332D01*
X11109753Y6874438D01*
X11060806Y6896050D01*
X11035388Y6898999D01*
X10962000Y6898999D01*
X10962000Y6117000D01*
X10658000Y6117000D01*
X10658000Y6898999D01*
X10584612Y6898999D01*
X10559192Y6896050D01*
X10559191Y6896050D01*
X10455221Y6850142D01*
X10417427Y6812348D01*
X10373233Y6794042D01*
X10361036Y6795244D01*
X10359749Y6795500D01*
X10359748Y6795500D01*
X9960252Y6795500D01*
X9901769Y6783867D01*
X9901766Y6783865D01*
X9869724Y6762455D01*
X9822808Y6753122D01*
X9800276Y6762455D01*
X9789316Y6769778D01*
X9768231Y6783867D01*
X9709748Y6795500D01*
X9310252Y6795500D01*
X9308960Y6795243D01*
X9308523Y6795329D01*
X9307195Y6795199D01*
X9307155Y6795601D01*
X9262044Y6804575D01*
X9252571Y6812348D01*
X9214776Y6850143D01*
X9110805Y6896051D01*
X9085388Y6898999D01*
X9012000Y6898999D01*
X9012000Y5031000D01*
X8708000Y5031000D01*
X8708000Y5813000D01*
X8362000Y5813000D01*
X8362000Y5031000D01*
X8058000Y5031000D01*
X8058000Y5813000D01*
X7726001Y5813000D01*
X7726001Y5289611D01*
X6399918Y5289611D01*
X6403806Y5296885D01*
X6466142Y5359221D01*
X6512051Y5463194D01*
X6515000Y5488611D01*
X6515000Y6032000D01*
X4407001Y6032000D01*
X4407000Y5644040D01*
X4388694Y5599846D01*
X4344500Y5581540D01*
X4300309Y5599844D01*
X3393805Y6506349D01*
X3375500Y6550542D01*
X3375500Y6879388D01*
X4407000Y6879388D01*
X4407000Y6336000D01*
X5309000Y6336000D01*
X5613000Y6336000D01*
X6514999Y6336000D01*
X6514999Y6640388D01*
X7726000Y6640388D01*
X7726000Y6117000D01*
X8058000Y6117000D01*
X8362000Y6117000D01*
X8708000Y6117000D01*
X8708000Y6898999D01*
X8634612Y6898999D01*
X8609192Y6896050D01*
X8609188Y6896049D01*
X8560245Y6874438D01*
X8512422Y6873332D01*
X8509753Y6874438D01*
X8460806Y6896050D01*
X8435388Y6898999D01*
X8362000Y6898999D01*
X8362000Y6117000D01*
X8058000Y6117000D01*
X8058000Y6898999D01*
X7984612Y6898999D01*
X7959192Y6896050D01*
X7959191Y6896050D01*
X7855221Y6850142D01*
X7774857Y6769778D01*
X7728948Y6665805D01*
X7726000Y6640388D01*
X6514999Y6640388D01*
X6514999Y6879388D01*
X6512050Y6904807D01*
X6512050Y6904808D01*
X6466142Y7008778D01*
X6385778Y7089142D01*
X6281805Y7135051D01*
X6256388Y7137999D01*
X5613000Y7137999D01*
X5613000Y6336000D01*
X5309000Y6336000D01*
X5309000Y7137999D01*
X4665612Y7137999D01*
X4640192Y7135050D01*
X4640191Y7135050D01*
X4536221Y7089142D01*
X4455857Y7008778D01*
X4409948Y6904805D01*
X4407000Y6879388D01*
X3375500Y6879388D01*
X3375500Y8982457D01*
X3393806Y9026651D01*
X4918806Y10551651D01*
X4963000Y10569957D01*
X5007194Y10551651D01*
X5025500Y10507457D01*
X5025500Y10214251D01*
X5038334Y10149731D01*
X5036632Y10149392D01*
X5036629Y10109139D01*
X5007263Y10077373D01*
X4953396Y10049927D01*
X4953393Y10049925D01*
X4780695Y9924452D01*
X4780687Y9924445D01*
X4629754Y9773512D01*
X4629747Y9773504D01*
X4504274Y9600806D01*
X4407363Y9410606D01*
X4407359Y9410598D01*
X4341395Y9207582D01*
X4341394Y9207578D01*
X4326627Y9114344D01*
X4308000Y8996736D01*
X4308000Y8783263D01*
X4322944Y8688910D01*
X4337704Y8595717D01*
X4341395Y8572417D01*
X4407359Y8369401D01*
X4407363Y8369393D01*
X4504274Y8179193D01*
X4629747Y8006495D01*
X4629754Y8006487D01*
X4780687Y7855554D01*
X4780695Y7855547D01*
X4953393Y7730074D01*
X5143593Y7633163D01*
X5143601Y7633159D01*
X5346617Y7567195D01*
X5346620Y7567194D01*
X5346622Y7567194D01*
X5430209Y7553955D01*
X5557463Y7533800D01*
X5557465Y7533800D01*
X5770936Y7533800D01*
X5834562Y7543877D01*
X5981778Y7567194D01*
X5981780Y7567194D01*
X5981782Y7567195D01*
X6184798Y7633159D01*
X6184806Y7633163D01*
X6375006Y7730074D01*
X6547704Y7855547D01*
X6547712Y7855554D01*
X6698645Y8006487D01*
X6698652Y8006495D01*
X6824125Y8179193D01*
X6826291Y8183443D01*
X6921040Y8369400D01*
X6987006Y8572422D01*
X7020400Y8783265D01*
X7020400Y8996735D01*
X6987006Y9207578D01*
X6921040Y9410600D01*
X6824127Y9600804D01*
X6698652Y9773505D01*
X6547705Y9924452D01*
X6512897Y9949741D01*
X6487905Y9990525D01*
X6499071Y10037039D01*
X6514912Y10052270D01*
X6570552Y10089447D01*
X6614866Y10155767D01*
X6614867Y10155769D01*
X6623176Y10197543D01*
X6626500Y10214252D01*
X6626500Y10405000D01*
X6644806Y10449194D01*
X6689000Y10467500D01*
X7992000Y10467500D01*
X8036194Y10449194D01*
X8054500Y10405000D01*
X8054500Y7703878D01*
X8076818Y7620592D01*
X8076818Y7620590D01*
X8089510Y7598608D01*
X8115772Y7553120D01*
X8119936Y7545909D01*
X8119939Y7545905D01*
X8180905Y7484939D01*
X8180909Y7484936D01*
X8180910Y7484935D01*
X8218250Y7463377D01*
X8255591Y7441818D01*
X8338878Y7419500D01*
X8338884Y7419500D01*
X10330121Y7419500D01*
X10413407Y7441818D01*
X10413409Y7441818D01*
X10435595Y7454627D01*
X10488090Y7484935D01*
X11186598Y8183443D01*
X11230792Y8201749D01*
X11274986Y8183443D01*
X11292091Y8151443D01*
X11309420Y8064323D01*
X11358697Y7945359D01*
X11358700Y7945354D01*
X11430237Y7838291D01*
X11521291Y7747237D01*
X11628354Y7675700D01*
X11628359Y7675697D01*
X11747324Y7626420D01*
X11873615Y7601300D01*
X11873616Y7601300D01*
X12002387Y7601300D01*
X12074849Y7615713D01*
X12121765Y7606380D01*
X12131235Y7598608D01*
X12862194Y6867650D01*
X12880500Y6823456D01*
X12880500Y4166973D01*
X12862194Y4122779D01*
X12818000Y4104473D01*
X12808224Y4105242D01*
X12790782Y4108005D01*
X12764940Y4112099D01*
X12764933Y4112099D01*
X12764931Y4112100D01*
X12533469Y4112100D01*
X12533463Y4112099D01*
X12533455Y4112098D01*
X12440418Y4097362D01*
X12304857Y4075891D01*
X12084724Y4004366D01*
X11878490Y3899284D01*
X11691234Y3763235D01*
X11691229Y3763230D01*
X11691226Y3763228D01*
X11527571Y3599573D01*
X11527568Y3599569D01*
X11527565Y3599566D01*
X11401539Y3426105D01*
X11391516Y3412310D01*
X11286434Y3206077D01*
X11286433Y3206074D01*
X11214908Y2985941D01*
X11214908Y2985940D01*
X11188230Y2817504D01*
X11163236Y2776717D01*
X11116723Y2765551D01*
X11075936Y2790545D01*
X11064000Y2827281D01*
X11064000Y3184000D01*
X10312000Y3184000D01*
X10312000Y2432000D01*
X10805388Y2432000D01*
X10830807Y2434949D01*
X10830808Y2434949D01*
X10934778Y2480857D01*
X11015142Y2561221D01*
X11059025Y2660605D01*
X11093623Y2693640D01*
X11141445Y2692535D01*
X11174480Y2657937D01*
X11178700Y2635360D01*
X11178700Y2525871D01*
X11178701Y2525855D01*
X11214908Y2297259D01*
X11214908Y2297258D01*
X11286433Y2077125D01*
X11286434Y2077122D01*
X11391516Y1870889D01*
X11527571Y1683626D01*
X11691226Y1519971D01*
X11878489Y1383916D01*
X12084722Y1278834D01*
X12084725Y1278833D01*
X12304858Y1207308D01*
X12533455Y1171101D01*
X12533467Y1171100D01*
X12533469Y1171100D01*
X12533471Y1171100D01*
X12764929Y1171100D01*
X12764931Y1171100D01*
X12764932Y1171100D01*
X12764944Y1171101D01*
X12993540Y1207308D01*
X12993541Y1207308D01*
X13213674Y1278833D01*
X13213677Y1278834D01*
X13419910Y1383916D01*
X13607166Y1519965D01*
X13607169Y1519968D01*
X13607173Y1519971D01*
X13770828Y1683626D01*
X13770830Y1683629D01*
X13770835Y1683634D01*
X13906884Y1870890D01*
X14011966Y2077124D01*
X14083491Y2297257D01*
X14119700Y2525869D01*
X14119700Y2757331D01*
X14083491Y2985943D01*
X14011966Y3206076D01*
X13906884Y3412310D01*
X13770835Y3599566D01*
X13607166Y3763235D01*
X13561263Y3796584D01*
X13536270Y3837371D01*
X13535500Y3847148D01*
X13535500Y7028115D01*
X13535499Y7028121D01*
X13528868Y7052865D01*
X13513181Y7111410D01*
X13470065Y7186090D01*
X13409090Y7247065D01*
X12594389Y8061764D01*
X12576084Y8105957D01*
X12577284Y8118145D01*
X12591700Y8190616D01*
X12591700Y8319384D01*
X12566579Y8445677D01*
X12517301Y8564643D01*
X12445762Y8671709D01*
X12407665Y8709806D01*
X12389359Y8754000D01*
X12407665Y8798194D01*
X12451859Y8816500D01*
X12870121Y8816500D01*
X12953407Y8838818D01*
X12953409Y8838818D01*
X12976838Y8852345D01*
X13028090Y8881935D01*
X13193193Y9047038D01*
X13237387Y9065344D01*
X13281581Y9047038D01*
X13299887Y9002844D01*
X13299695Y8997949D01*
X13299600Y8996739D01*
X13299600Y8783263D01*
X13314544Y8688910D01*
X13329304Y8595717D01*
X13332995Y8572417D01*
X13398959Y8369401D01*
X13398963Y8369393D01*
X13495874Y8179193D01*
X13621347Y8006495D01*
X13621354Y8006487D01*
X13772287Y7855554D01*
X13772295Y7855547D01*
X13944993Y7730074D01*
X14135193Y7633163D01*
X14135201Y7633159D01*
X14338223Y7567193D01*
X14338222Y7567193D01*
X14550134Y7533629D01*
X14590920Y7508635D01*
X14602086Y7462121D01*
X14584550Y7427705D01*
X14425651Y7268806D01*
X14381457Y7250500D01*
X13924252Y7250500D01*
X13865769Y7238867D01*
X13865767Y7238866D01*
X13799447Y7194552D01*
X13755133Y7128232D01*
X13755132Y7128230D01*
X13743500Y7069748D01*
X13743500Y5630251D01*
X13755132Y5571769D01*
X13755133Y5571767D01*
X13799447Y5505447D01*
X13865767Y5461133D01*
X13865769Y5461132D01*
X13924251Y5449500D01*
X13924252Y5449500D01*
X15063748Y5449500D01*
X15091807Y5455081D01*
X15138723Y5445749D01*
X15165299Y5405975D01*
X15166500Y5393782D01*
X15166500Y4403000D01*
X15148194Y4358806D01*
X15104000Y4340500D01*
X14470252Y4340500D01*
X14411769Y4328867D01*
X14411767Y4328866D01*
X14345447Y4284552D01*
X14301133Y4218232D01*
X14301132Y4218230D01*
X14289500Y4159748D01*
X14289500Y2820251D01*
X14301132Y2761769D01*
X14301133Y2761767D01*
X14345447Y2695447D01*
X14411767Y2651133D01*
X14411769Y2651132D01*
X14470251Y2639500D01*
X14470252Y2639500D01*
X16009748Y2639500D01*
X16068230Y2651132D01*
X16068232Y2651133D01*
X16134552Y2695447D01*
X16178866Y2761767D01*
X16178867Y2761769D01*
X16184591Y2790545D01*
X16190500Y2820252D01*
X16190500Y4159748D01*
X16178867Y4218231D01*
X16134552Y4284552D01*
X16084788Y4317804D01*
X16075418Y4324065D01*
X16068232Y4328866D01*
X16068231Y4328867D01*
X16009748Y4340500D01*
X15884000Y4340500D01*
X15839806Y4358806D01*
X15833253Y4374625D01*
X16571500Y4374625D01*
X16571500Y4261374D01*
X16577913Y4190805D01*
X16628522Y4028393D01*
X16716528Y3882814D01*
X16836814Y3762528D01*
X16982393Y3674522D01*
X17144806Y3623913D01*
X17144804Y3623913D01*
X17215374Y3617500D01*
X17215384Y3617500D01*
X17328625Y3617500D01*
X17399194Y3623913D01*
X17561606Y3674522D01*
X17707185Y3762528D01*
X17827471Y3882814D01*
X17845030Y3911859D01*
X17915478Y4028394D01*
X17966086Y4190804D01*
X17972499Y4261374D01*
X17972500Y4261377D01*
X17972500Y4374623D01*
X17972499Y4374625D01*
X17969920Y4403000D01*
X17966086Y4445196D01*
X17915478Y4607606D01*
X17827472Y4753185D01*
X17707185Y4873472D01*
X17561606Y4961478D01*
X17399196Y5012086D01*
X17328624Y5018499D01*
X17328623Y5018500D01*
X17328616Y5018500D01*
X17215384Y5018500D01*
X17215377Y5018500D01*
X17215374Y5018499D01*
X17144804Y5012086D01*
X16982394Y4961478D01*
X16836815Y4873472D01*
X16836814Y4873471D01*
X16716528Y4753185D01*
X16628522Y4607606D01*
X16577913Y4445194D01*
X16571500Y4374625D01*
X15833253Y4374625D01*
X15821500Y4403000D01*
X15821500Y5393782D01*
X15839806Y5437976D01*
X15884000Y5456282D01*
X15896193Y5455081D01*
X15924251Y5449500D01*
X15924252Y5449500D01*
X17063748Y5449500D01*
X17122230Y5461132D01*
X17122232Y5461133D01*
X17188552Y5505447D01*
X17232866Y5571767D01*
X17232867Y5571769D01*
X17244500Y5630252D01*
X17244500Y5960000D01*
X17262806Y6004194D01*
X17307000Y6022500D01*
X17618456Y6022500D01*
X17662650Y6004194D01*
X18051518Y5615324D01*
X18069824Y5571130D01*
X18063012Y5542758D01*
X18044002Y5505448D01*
X18040321Y5498223D01*
X18040320Y5498221D01*
X17987326Y5335123D01*
X17987326Y5335122D01*
X17960501Y5165759D01*
X17960500Y5165743D01*
X17960500Y4994256D01*
X17960501Y4994240D01*
X17987326Y4824877D01*
X17987326Y4824876D01*
X18040320Y4661778D01*
X18040321Y4661775D01*
X18118176Y4508977D01*
X18170139Y4437457D01*
X18205799Y4388374D01*
X18218982Y4370230D01*
X18340230Y4248982D01*
X18340237Y4248976D01*
X18340238Y4248976D01*
X18368714Y4228286D01*
X18478977Y4148176D01*
X18631775Y4070321D01*
X18631778Y4070320D01*
X18794876Y4017326D01*
X18964240Y3990501D01*
X18964252Y3990500D01*
X18964254Y3990500D01*
X18964256Y3990500D01*
X19135744Y3990500D01*
X19135746Y3990500D01*
X19135747Y3990500D01*
X19135759Y3990501D01*
X19305122Y4017326D01*
X19305123Y4017326D01*
X19468221Y4070320D01*
X19468224Y4070321D01*
X19550219Y4112100D01*
X19621022Y4148176D01*
X19630956Y4155393D01*
X19720264Y4220279D01*
X19766777Y4231445D01*
X19807564Y4206451D01*
X19819500Y4169715D01*
X19819500Y2922131D01*
X19801194Y2877937D01*
X19757000Y2859631D01*
X19712806Y2877937D01*
X19701313Y2893753D01*
X19699634Y2897051D01*
X19546931Y3107229D01*
X19363229Y3290931D01*
X19153051Y3443634D01*
X18921572Y3561579D01*
X18674493Y3641860D01*
X18417897Y3682500D01*
X18158103Y3682500D01*
X17901507Y3641860D01*
X17654428Y3561579D01*
X17422949Y3443634D01*
X17212771Y3290931D01*
X17212766Y3290926D01*
X17212763Y3290924D01*
X17029075Y3107236D01*
X17029072Y3107232D01*
X17029069Y3107229D01*
X16940948Y2985940D01*
X16876366Y2897051D01*
X16758422Y2665575D01*
X16758421Y2665573D01*
X16678141Y2418498D01*
X16678140Y2418494D01*
X16678140Y2418493D01*
X16655064Y2272794D01*
X16637500Y2161898D01*
X16637500Y1902101D01*
X16678141Y1645501D01*
X16758421Y1398426D01*
X16758422Y1398424D01*
X16876366Y1166948D01*
X17029075Y956763D01*
X17212763Y773075D01*
X17422948Y620366D01*
X17424160Y619748D01*
X17426243Y618687D01*
X17457309Y582315D01*
X17453558Y534627D01*
X17417184Y503560D01*
X17397869Y500500D01*
X14687543Y500500D01*
X14643349Y518806D01*
X14625043Y563000D01*
X14643349Y607194D01*
X14757349Y721194D01*
X14801543Y739500D01*
X16009748Y739500D01*
X16068230Y751132D01*
X16068232Y751133D01*
X16134552Y795447D01*
X16178866Y861767D01*
X16178867Y861769D01*
X16186204Y898655D01*
X16190500Y920252D01*
X16190500Y2259748D01*
X16178867Y2318231D01*
X16134552Y2384552D01*
X16068231Y2428867D01*
X16009748Y2440500D01*
X14470252Y2440500D01*
X14411769Y2428867D01*
X14411767Y2428866D01*
X14345447Y2384552D01*
X14301133Y2318232D01*
X14301132Y2318230D01*
X14289500Y2259748D01*
X14289500Y1205543D01*
X14271194Y1161349D01*
X13836651Y726806D01*
X13792457Y708500D01*
X11176543Y708500D01*
X11132349Y726806D01*
X10978806Y880349D01*
X10960500Y924543D01*
X10960500Y1855748D01*
X10948867Y1914230D01*
X10948866Y1914232D01*
X10904552Y1980552D01*
X10838232Y2024866D01*
X10838231Y2024867D01*
X10779748Y2036500D01*
X9540252Y2036500D01*
X9481769Y2024867D01*
X9481767Y2024866D01*
X9415447Y1980552D01*
X9371133Y1914232D01*
X9371132Y1914230D01*
X9359500Y1855748D01*
X9359500Y616251D01*
X9367667Y575193D01*
X9358335Y528277D01*
X9318561Y501701D01*
X9306368Y500500D01*
X2922131Y500500D01*
X2877937Y518806D01*
X2859631Y563000D01*
X2877937Y607194D01*
X2893753Y618686D01*
X2897051Y620366D01*
X3107229Y773069D01*
X3107232Y773072D01*
X3107236Y773075D01*
X3290924Y956763D01*
X3290926Y956766D01*
X3290931Y956771D01*
X3443634Y1166949D01*
X3561579Y1398428D01*
X3641860Y1645507D01*
X3682500Y1902103D01*
X3682500Y2161897D01*
X3641860Y2418493D01*
X3561579Y2665572D01*
X3443634Y2897051D01*
X3290931Y3107229D01*
X3107229Y3290931D01*
X2897051Y3443634D01*
X2665572Y3561579D01*
X2418493Y3641860D01*
X2161897Y3682500D01*
X1902103Y3682500D01*
X1645507Y3641860D01*
X1398428Y3561579D01*
X1166949Y3443634D01*
X956771Y3290931D01*
X956766Y3290926D01*
X956763Y3290924D01*
X773075Y3107236D01*
X773072Y3107232D01*
X773069Y3107229D01*
X620366Y2897051D01*
X618687Y2893756D01*
X582315Y2862691D01*
X534627Y2866442D01*
X503560Y2902816D01*
X500500Y2922131D01*
X500500Y4169715D01*
X518806Y4213909D01*
X563000Y4232215D01*
X599736Y4220279D01*
X698974Y4148178D01*
X851775Y4070321D01*
X851778Y4070320D01*
X1014876Y4017326D01*
X1184240Y3990501D01*
X1184252Y3990500D01*
X1184254Y3990500D01*
X1184256Y3990500D01*
X1355744Y3990500D01*
X1355746Y3990500D01*
X1355747Y3990500D01*
X1355759Y3990501D01*
X1525122Y4017326D01*
X1525123Y4017326D01*
X1688221Y4070320D01*
X1688224Y4070321D01*
X1841022Y4148176D01*
X1850957Y4155394D01*
X1979762Y4248976D01*
X1979765Y4248979D01*
X1979769Y4248982D01*
X2101017Y4370230D01*
X2101019Y4370233D01*
X2101024Y4370238D01*
X2196482Y4501625D01*
X2601500Y4501625D01*
X2601500Y4388374D01*
X2607913Y4317805D01*
X2658522Y4155393D01*
X2746528Y4009814D01*
X2866814Y3889528D01*
X3012393Y3801522D01*
X3174806Y3750913D01*
X3174804Y3750913D01*
X3245374Y3744500D01*
X3245384Y3744500D01*
X3358625Y3744500D01*
X3429194Y3750913D01*
X3591606Y3801522D01*
X3737185Y3889528D01*
X3857471Y4009814D01*
X3862013Y4017326D01*
X3945478Y4155394D01*
X3996086Y4317804D01*
X4002499Y4388374D01*
X4002500Y4388377D01*
X4002500Y4501623D01*
X4002499Y4501625D01*
X4001830Y4508982D01*
X3996086Y4572196D01*
X3945478Y4734606D01*
X3857472Y4880185D01*
X3737185Y5000472D01*
X3591606Y5088478D01*
X3429196Y5139086D01*
X3358624Y5145499D01*
X3358623Y5145500D01*
X3358616Y5145500D01*
X3245384Y5145500D01*
X3245377Y5145500D01*
X3245374Y5145499D01*
X3174804Y5139086D01*
X3012394Y5088478D01*
X2866815Y5000472D01*
X2866814Y5000471D01*
X2746528Y4880185D01*
X2658522Y4734606D01*
X2607913Y4572194D01*
X2601500Y4501625D01*
X2196482Y4501625D01*
X2201824Y4508978D01*
X2202315Y4509943D01*
X2213253Y4531407D01*
X2279675Y4661770D01*
X2279679Y4661777D01*
X2332673Y4824875D01*
X2359500Y4994254D01*
X2359500Y5165746D01*
X2332673Y5335125D01*
X2279679Y5498223D01*
X2201824Y5651022D01*
X2101024Y5789762D01*
X1979762Y5911024D01*
X1841022Y6011824D01*
X1688223Y6089679D01*
X1525125Y6142673D01*
X1355746Y6169500D01*
X1184254Y6169500D01*
X1184246Y6169498D01*
X1184240Y6169498D01*
X1115314Y6158581D01*
X1014875Y6142673D01*
X851777Y6089679D01*
X698978Y6011824D01*
X599735Y5939720D01*
X553223Y5928553D01*
X512437Y5953547D01*
X500500Y5990284D01*
X500500Y6581782D01*
X518806Y6625976D01*
X563000Y6644282D01*
X599736Y6632346D01*
X644730Y6599655D01*
X812040Y6514407D01*
X812048Y6514403D01*
X990640Y6456375D01*
X990639Y6456375D01*
X1117999Y6436202D01*
X1118000Y6436202D01*
X1118000Y7134807D01*
X1203120Y7112000D01*
X1336880Y7112000D01*
X1422000Y7134807D01*
X1422000Y6436202D01*
X1549360Y6456375D01*
X1727951Y6514403D01*
X1727959Y6514407D01*
X1895270Y6599656D01*
X2047186Y6710030D01*
X2047194Y6710037D01*
X2179962Y6842805D01*
X2179969Y6842813D01*
X2290343Y6994729D01*
X2375592Y7162040D01*
X2375596Y7162048D01*
X2433624Y7340640D01*
X2433624Y7340641D01*
X2453796Y7467999D01*
X2453796Y7468000D01*
X1755192Y7468000D01*
X1778000Y7553120D01*
X1778000Y7686880D01*
X1755192Y7772000D01*
X2453796Y7772000D01*
X2433624Y7899358D01*
X2433624Y7899359D01*
X2375596Y8077951D01*
X2375592Y8077959D01*
X2290343Y8245270D01*
X2179969Y8397186D01*
X2179962Y8397194D01*
X2047194Y8529962D01*
X2047186Y8529969D01*
X1895270Y8640343D01*
X1727959Y8725592D01*
X1727951Y8725596D01*
X1549359Y8783624D01*
X1422000Y8803796D01*
X1422000Y8105192D01*
X1336880Y8128000D01*
X1203120Y8128000D01*
X1118000Y8105192D01*
X1118000Y8803796D01*
X1117999Y8803796D01*
X990641Y8783624D01*
X990640Y8783624D01*
X812048Y8725596D01*
X812040Y8725592D01*
X644729Y8640343D01*
X599737Y8607654D01*
X553223Y8596486D01*
X512437Y8621480D01*
X500500Y8658217D01*
X500500Y9249715D01*
X518806Y9293909D01*
X563000Y9312215D01*
X599736Y9300279D01*
X698974Y9228178D01*
X851775Y9150321D01*
X851778Y9150320D01*
X1014876Y9097326D01*
X1184240Y9070501D01*
X1184252Y9070500D01*
X1184254Y9070500D01*
X1184256Y9070500D01*
X1355744Y9070500D01*
X1355746Y9070500D01*
X1355747Y9070500D01*
X1355759Y9070501D01*
X1525122Y9097326D01*
X1525123Y9097326D01*
X1688221Y9150320D01*
X1688224Y9150321D01*
X1841022Y9228176D01*
X1899152Y9270410D01*
X1979762Y9328976D01*
X1979765Y9328979D01*
X1979769Y9328982D01*
X2101022Y9450235D01*
X2115548Y9470229D01*
X2157038Y9527336D01*
X2197825Y9552330D01*
X2207602Y9553100D01*
X2391299Y9553100D01*
X2391300Y9553100D01*
X2391301Y9553100D01*
X2391306Y9553101D01*
X2545651Y9594457D01*
X2545660Y9594461D01*
X2684041Y9674356D01*
X2684050Y9674363D01*
X2797041Y9787355D01*
X2805767Y9802469D01*
X2815700Y9815414D01*
X3965481Y10965194D01*
X4009675Y10983500D01*
X4273457Y10983500D01*
X4317651Y10965194D01*
G37*
%TD.AperFunction*%
%TA.AperFunction,Conductor*%
G36*
X17857931Y7781388D02*
G01*
X17861261Y7777786D01*
X17866203Y7772000D01*
X18564808Y7772000D01*
X18542000Y7686880D01*
X18542000Y7553120D01*
X18564808Y7468000D01*
X17866204Y7468000D01*
X17866203Y7467999D01*
X17886375Y7340641D01*
X17886375Y7340640D01*
X17944403Y7162048D01*
X17944407Y7162040D01*
X18029656Y6994729D01*
X18140030Y6842813D01*
X18140037Y6842805D01*
X18272805Y6710037D01*
X18272813Y6710030D01*
X18424729Y6599656D01*
X18592040Y6514407D01*
X18592048Y6514403D01*
X18770640Y6456375D01*
X18770639Y6456375D01*
X18897999Y6436202D01*
X18898000Y6436202D01*
X18898000Y7134807D01*
X18983120Y7112000D01*
X19116880Y7112000D01*
X19202000Y7134807D01*
X19202000Y6436202D01*
X19329360Y6456375D01*
X19507951Y6514403D01*
X19507959Y6514407D01*
X19675269Y6599655D01*
X19720264Y6632346D01*
X19766778Y6643512D01*
X19807564Y6618518D01*
X19819500Y6581782D01*
X19819500Y5990284D01*
X19801194Y5946090D01*
X19757000Y5927784D01*
X19720264Y5939720D01*
X19621022Y6011824D01*
X19468223Y6089679D01*
X19305125Y6142673D01*
X19135746Y6169500D01*
X18964254Y6169500D01*
X18964246Y6169498D01*
X18964240Y6169498D01*
X18895314Y6158581D01*
X18794875Y6142673D01*
X18631777Y6089679D01*
X18587241Y6066986D01*
X18539554Y6063233D01*
X18514675Y6078478D01*
X18063422Y6529730D01*
X18063385Y6529775D01*
X18059547Y6533611D01*
X18059546Y6533615D01*
X18022864Y6570290D01*
X17992402Y6600752D01*
X17992400Y6600753D01*
X17989189Y6603964D01*
X17989152Y6603995D01*
X17988786Y6604362D01*
X17905319Y6652548D01*
X17812225Y6677496D01*
X17812223Y6677496D01*
X17811816Y6677496D01*
X17811762Y6677500D01*
X17807116Y6677500D01*
X17764037Y6677500D01*
X17764033Y6677500D01*
X17712165Y6677505D01*
X17712160Y6677503D01*
X17707162Y6677504D01*
X17707100Y6677500D01*
X17307000Y6677500D01*
X17262806Y6695806D01*
X17244500Y6740000D01*
X17244500Y7069748D01*
X17240642Y7089142D01*
X17232867Y7128231D01*
X17188552Y7194552D01*
X17187762Y7195342D01*
X17187333Y7196376D01*
X17185132Y7199671D01*
X17185787Y7200108D01*
X17169452Y7239534D01*
X17187754Y7283730D01*
X17215774Y7299910D01*
X17271409Y7314818D01*
X17293595Y7327627D01*
X17346090Y7357935D01*
X17769543Y7781388D01*
X17813737Y7799694D01*
X17857931Y7781388D01*
G37*
%TD.AperFunction*%
%TA.AperFunction,Conductor*%
G36*
X17442063Y17261194D02*
G01*
X17460369Y17217000D01*
X17442063Y17172806D01*
X17426246Y17161313D01*
X17422949Y17159634D01*
X17212771Y17006931D01*
X17212766Y17006926D01*
X17212763Y17006924D01*
X17029075Y16823236D01*
X17029072Y16823232D01*
X17029069Y16823229D01*
X16919635Y16672606D01*
X16876366Y16613051D01*
X16758422Y16381575D01*
X16758421Y16381573D01*
X16678141Y16134498D01*
X16678140Y16134494D01*
X16678140Y16134493D01*
X16671631Y16093394D01*
X16637500Y15877898D01*
X16637500Y15618101D01*
X16678141Y15361501D01*
X16758421Y15114426D01*
X16758422Y15114424D01*
X16876366Y14882948D01*
X17029075Y14672763D01*
X17212763Y14489075D01*
X17212770Y14489069D01*
X17212771Y14489069D01*
X17255909Y14457726D01*
X17422948Y14336366D01*
X17654424Y14218422D01*
X17654426Y14218421D01*
X17901501Y14138141D01*
X18158101Y14097500D01*
X18158103Y14097500D01*
X18417898Y14097500D01*
X18528794Y14115064D01*
X18674493Y14138140D01*
X18674494Y14138140D01*
X18674498Y14138141D01*
X18921573Y14218421D01*
X18921575Y14218422D01*
X19153051Y14336366D01*
X19196165Y14367690D01*
X19363229Y14489069D01*
X19363232Y14489072D01*
X19363236Y14489075D01*
X19546924Y14672763D01*
X19546926Y14672766D01*
X19546931Y14672771D01*
X19699634Y14882949D01*
X19701313Y14886245D01*
X19737689Y14917310D01*
X19785377Y14913555D01*
X19816442Y14877179D01*
X19819500Y14857868D01*
X19819500Y13610284D01*
X19801194Y13566090D01*
X19757000Y13547784D01*
X19720264Y13559720D01*
X19621022Y13631824D01*
X19468223Y13709679D01*
X19305125Y13762673D01*
X19135746Y13789500D01*
X18964254Y13789500D01*
X18964246Y13789498D01*
X18964240Y13789498D01*
X18895535Y13778616D01*
X18794875Y13762673D01*
X18631777Y13709679D01*
X18478978Y13631824D01*
X18340238Y13531024D01*
X18340233Y13531019D01*
X18340230Y13531017D01*
X18218982Y13409769D01*
X18218979Y13409765D01*
X18218976Y13409762D01*
X18139089Y13299806D01*
X18118176Y13271022D01*
X18040321Y13118224D01*
X18040320Y13118221D01*
X17987326Y12955123D01*
X17987326Y12955122D01*
X17960501Y12785759D01*
X17960500Y12785743D01*
X17960500Y12614256D01*
X17960501Y12614240D01*
X17987326Y12444877D01*
X17987326Y12444876D01*
X18040320Y12281778D01*
X18040321Y12281775D01*
X18118176Y12128977D01*
X18138503Y12101000D01*
X18217792Y11991867D01*
X18218982Y11990230D01*
X18340230Y11868982D01*
X18340237Y11868976D01*
X18340238Y11868976D01*
X18368714Y11848286D01*
X18478977Y11768176D01*
X18631775Y11690321D01*
X18631778Y11690320D01*
X18794876Y11637326D01*
X18964240Y11610501D01*
X18964252Y11610500D01*
X18964254Y11610500D01*
X18964256Y11610500D01*
X19135744Y11610500D01*
X19135746Y11610500D01*
X19135747Y11610500D01*
X19135759Y11610501D01*
X19305122Y11637326D01*
X19305123Y11637326D01*
X19468221Y11690320D01*
X19468224Y11690321D01*
X19547592Y11730761D01*
X19621022Y11768176D01*
X19696135Y11822748D01*
X19720264Y11840279D01*
X19766777Y11851445D01*
X19807564Y11826451D01*
X19819500Y11789715D01*
X19819500Y11070284D01*
X19801194Y11026090D01*
X19757000Y11007784D01*
X19720264Y11019720D01*
X19621022Y11091824D01*
X19468223Y11169679D01*
X19305125Y11222673D01*
X19135746Y11249500D01*
X18964254Y11249500D01*
X18964246Y11249498D01*
X18964240Y11249498D01*
X18895314Y11238581D01*
X18794875Y11222673D01*
X18631777Y11169679D01*
X18478978Y11091824D01*
X18340238Y10991024D01*
X18340233Y10991019D01*
X18340230Y10991017D01*
X18218982Y10869769D01*
X18218979Y10869765D01*
X18218976Y10869762D01*
X18196904Y10839382D01*
X18118176Y10731022D01*
X18040321Y10578224D01*
X18040320Y10578221D01*
X17987326Y10415123D01*
X17987326Y10415122D01*
X17960501Y10245759D01*
X17960500Y10245743D01*
X17960500Y10074256D01*
X17960501Y10074240D01*
X17987326Y9904877D01*
X17987326Y9904876D01*
X18040320Y9741778D01*
X18040324Y9741770D01*
X18090843Y9642619D01*
X18095525Y9598069D01*
X18087501Y9568122D01*
X18087500Y9568114D01*
X18087500Y9051543D01*
X18069194Y9007349D01*
X17027651Y7965806D01*
X16983457Y7947500D01*
X16181543Y7947500D01*
X16137349Y7965806D01*
X16119043Y8010000D01*
X16137349Y8054194D01*
X16475060Y8391905D01*
X16475065Y8391910D01*
X16518181Y8466590D01*
X16535164Y8529969D01*
X16540499Y8549878D01*
X16540500Y8549884D01*
X16540500Y9590000D01*
X16558806Y9634194D01*
X16603000Y9652500D01*
X17059748Y9652500D01*
X17118230Y9664132D01*
X17118232Y9664133D01*
X17184552Y9708447D01*
X17228866Y9774767D01*
X17228867Y9774769D01*
X17229661Y9778762D01*
X17240500Y9833252D01*
X17240500Y10872748D01*
X17228867Y10931231D01*
X17184552Y10997552D01*
X17118231Y11041867D01*
X17059748Y11053500D01*
X15630000Y11053500D01*
X15585806Y11071806D01*
X15567500Y11116000D01*
X15567500Y11386500D01*
X15585806Y11430694D01*
X15630000Y11449000D01*
X16188000Y11449000D01*
X16492000Y11449000D01*
X17085388Y11449000D01*
X17110807Y11451949D01*
X17110808Y11451949D01*
X17214778Y11497857D01*
X17295142Y11578221D01*
X17341051Y11682194D01*
X17344000Y11707611D01*
X17344000Y12101000D01*
X16492000Y12101000D01*
X16492000Y11449000D01*
X16188000Y11449000D01*
X16188000Y12405000D01*
X16492000Y12405000D01*
X17343999Y12405000D01*
X17343999Y12798388D01*
X17341050Y12823807D01*
X17341050Y12823808D01*
X17295142Y12927778D01*
X17214778Y13008142D01*
X17110805Y13054051D01*
X17085388Y13056999D01*
X16492000Y13056999D01*
X16492000Y12405000D01*
X16188000Y12405000D01*
X16188000Y13056999D01*
X15703042Y13056999D01*
X15658848Y13075305D01*
X15640542Y13119499D01*
X15658848Y13163693D01*
X15756060Y13260905D01*
X15756065Y13260910D01*
X15799181Y13335590D01*
X15814612Y13393177D01*
X15843732Y13431127D01*
X15874982Y13439500D01*
X16263748Y13439500D01*
X16322230Y13451132D01*
X16322232Y13451133D01*
X16388552Y13495447D01*
X16432866Y13561767D01*
X16432867Y13561769D01*
X16444500Y13620252D01*
X16444500Y14959748D01*
X16432867Y15018231D01*
X16388552Y15084552D01*
X16322231Y15128867D01*
X16263748Y15140500D01*
X14724252Y15140500D01*
X14665769Y15128867D01*
X14665767Y15128866D01*
X14599447Y15084552D01*
X14555133Y15018232D01*
X14555132Y15018230D01*
X14543500Y14959748D01*
X14543500Y13620251D01*
X14555132Y13561769D01*
X14555133Y13561767D01*
X14599447Y13495447D01*
X14665767Y13451133D01*
X14665769Y13451132D01*
X14724251Y13439500D01*
X14724252Y13439500D01*
X14887240Y13439500D01*
X14931434Y13421194D01*
X14949740Y13377000D01*
X14941366Y13345750D01*
X14940356Y13344000D01*
X14934819Y13334411D01*
X14934818Y13334407D01*
X14912500Y13251121D01*
X14912500Y12066000D01*
X14894194Y12021806D01*
X14850000Y12003500D01*
X13420252Y12003500D01*
X13361769Y11991867D01*
X13361767Y11991866D01*
X13295447Y11947552D01*
X13251133Y11881232D01*
X13251132Y11881230D01*
X13239500Y11822748D01*
X13239500Y10891543D01*
X13221194Y10847349D01*
X12371651Y9997806D01*
X12327457Y9979500D01*
X11609543Y9979500D01*
X11565349Y9997806D01*
X11547043Y10042000D01*
X11565349Y10086194D01*
X12372060Y10892905D01*
X12372065Y10892910D01*
X12415181Y10967590D01*
X12432134Y11030858D01*
X12440537Y11049404D01*
X12478866Y11106767D01*
X12478867Y11106769D01*
X12485637Y11140806D01*
X12490500Y11165252D01*
X12490500Y12464748D01*
X12478867Y12523231D01*
X12448033Y12569377D01*
X12437500Y12604100D01*
X12437500Y13609921D01*
X12455806Y13654115D01*
X12500000Y13672421D01*
X12509776Y13671652D01*
X12533465Y13667900D01*
X12533469Y13667900D01*
X12764929Y13667900D01*
X12764931Y13667900D01*
X12764932Y13667900D01*
X12764944Y13667901D01*
X12993540Y13704108D01*
X12993541Y13704108D01*
X13213674Y13775633D01*
X13213677Y13775634D01*
X13419910Y13880716D01*
X13515899Y13950456D01*
X13607166Y14016765D01*
X13607169Y14016768D01*
X13607173Y14016771D01*
X13770828Y14180426D01*
X13770830Y14180429D01*
X13770835Y14180434D01*
X13906884Y14367690D01*
X14011966Y14573924D01*
X14083491Y14794057D01*
X14119700Y15022669D01*
X14119700Y15254131D01*
X14083491Y15482743D01*
X14011966Y15702876D01*
X13976935Y15771625D01*
X13973183Y15819313D01*
X14004249Y15855688D01*
X14032624Y15862500D01*
X14481000Y15862500D01*
X14525194Y15844194D01*
X14543500Y15800000D01*
X14543500Y15520251D01*
X14555132Y15461769D01*
X14555133Y15461767D01*
X14599447Y15395447D01*
X14665767Y15351133D01*
X14665769Y15351132D01*
X14724251Y15339500D01*
X14724252Y15339500D01*
X16263748Y15339500D01*
X16322230Y15351132D01*
X16322232Y15351133D01*
X16388552Y15395447D01*
X16432866Y15461767D01*
X16432867Y15461769D01*
X16433165Y15463269D01*
X16444500Y15520252D01*
X16444500Y16859748D01*
X16432867Y16918231D01*
X16388552Y16984552D01*
X16322231Y17028867D01*
X16263748Y17040500D01*
X14724252Y17040500D01*
X14665769Y17028867D01*
X14665767Y17028866D01*
X14599447Y16984552D01*
X14555133Y16918232D01*
X14555132Y16918230D01*
X14543500Y16859748D01*
X14543500Y16580000D01*
X14525194Y16535806D01*
X14481000Y16517500D01*
X13657684Y16517500D01*
X13657678Y16517499D01*
X13613419Y16505639D01*
X13574390Y16495181D01*
X13499710Y16452065D01*
X13499705Y16452060D01*
X13467798Y16420153D01*
X13423604Y16401847D01*
X13395231Y16408658D01*
X13213676Y16501166D01*
X12993543Y16572691D01*
X12764931Y16608900D01*
X12533469Y16608900D01*
X12533461Y16608898D01*
X12533455Y16608898D01*
X12440418Y16594162D01*
X12304857Y16572691D01*
X12084724Y16501166D01*
X11878490Y16396084D01*
X11691234Y16260035D01*
X11691229Y16260030D01*
X11691226Y16260028D01*
X11527571Y16096373D01*
X11527568Y16096369D01*
X11527565Y16096366D01*
X11472450Y16020506D01*
X11391516Y15909110D01*
X11286434Y15702877D01*
X11286432Y15702870D01*
X11232441Y15536702D01*
X11201374Y15500327D01*
X11153687Y15496574D01*
X11117312Y15527641D01*
X11110500Y15556015D01*
X11110500Y16859748D01*
X11098867Y16918230D01*
X11098866Y16918232D01*
X11054552Y16984552D01*
X11021060Y17006931D01*
X10988231Y17028867D01*
X10929748Y17040500D01*
X9390252Y17040500D01*
X9331769Y17028867D01*
X9331767Y17028866D01*
X9265447Y16984552D01*
X9221133Y16918232D01*
X9221132Y16918230D01*
X9209500Y16859748D01*
X9209500Y16580000D01*
X9191194Y16535806D01*
X9147000Y16517500D01*
X8679284Y16517500D01*
X8679278Y16517499D01*
X8635019Y16505639D01*
X8595990Y16495181D01*
X8521310Y16452065D01*
X8521305Y16452060D01*
X8489398Y16420153D01*
X8445204Y16401847D01*
X8416831Y16408658D01*
X8235276Y16501166D01*
X8015143Y16572691D01*
X7786531Y16608900D01*
X7555069Y16608900D01*
X7555061Y16608898D01*
X7555055Y16608898D01*
X7462018Y16594162D01*
X7326457Y16572691D01*
X7106324Y16501166D01*
X6900090Y16396084D01*
X6712834Y16260035D01*
X6712829Y16260030D01*
X6712826Y16260028D01*
X6549171Y16096373D01*
X6549168Y16096369D01*
X6549165Y16096366D01*
X6494050Y16020506D01*
X6413116Y15909110D01*
X6308034Y15702877D01*
X6308033Y15702874D01*
X6280489Y15618101D01*
X6236509Y15482743D01*
X6218053Y15366220D01*
X6193061Y15325436D01*
X6156324Y15313500D01*
X5798884Y15313500D01*
X5798878Y15313499D01*
X5754619Y15301639D01*
X5715590Y15291181D01*
X5640910Y15248065D01*
X4624910Y14232065D01*
X4563935Y14171090D01*
X4553285Y14152643D01*
X4520818Y14096409D01*
X4520818Y14096407D01*
X4498500Y14013121D01*
X4498500Y12447000D01*
X4480194Y12402806D01*
X4436000Y12384500D01*
X3206252Y12384500D01*
X3147769Y12372867D01*
X3147767Y12372866D01*
X3081447Y12328552D01*
X3037133Y12262232D01*
X3037132Y12262230D01*
X3025500Y12203748D01*
X3025500Y11767674D01*
X3007194Y11723480D01*
X2171444Y10887730D01*
X2127250Y10869424D01*
X2083056Y10887730D01*
X1979769Y10991017D01*
X1979762Y10991024D01*
X1841022Y11091824D01*
X1688223Y11169679D01*
X1525125Y11222673D01*
X1355746Y11249500D01*
X1184254Y11249500D01*
X1184246Y11249498D01*
X1184240Y11249498D01*
X1115314Y11238581D01*
X1014875Y11222673D01*
X851777Y11169679D01*
X698978Y11091824D01*
X599735Y11019720D01*
X553223Y11008553D01*
X512437Y11033547D01*
X500500Y11070284D01*
X500500Y11789715D01*
X518806Y11833909D01*
X563000Y11852215D01*
X599736Y11840279D01*
X698974Y11768178D01*
X851775Y11690321D01*
X851778Y11690320D01*
X1014876Y11637326D01*
X1184240Y11610501D01*
X1184252Y11610500D01*
X1184254Y11610500D01*
X1184256Y11610500D01*
X1355744Y11610500D01*
X1355746Y11610500D01*
X1355747Y11610500D01*
X1355759Y11610501D01*
X1525122Y11637326D01*
X1525123Y11637326D01*
X1688221Y11690320D01*
X1688224Y11690321D01*
X1841022Y11768176D01*
X1916134Y11822748D01*
X1979762Y11868976D01*
X1979765Y11868979D01*
X1979769Y11868982D01*
X2101017Y11990230D01*
X2101019Y11990233D01*
X2101024Y11990238D01*
X2201824Y12128978D01*
X2279679Y12281777D01*
X2332673Y12444875D01*
X2359500Y12614254D01*
X2359500Y12785746D01*
X2332673Y12955125D01*
X2279679Y13118223D01*
X2201824Y13271022D01*
X2101024Y13409762D01*
X1979762Y13531024D01*
X1841022Y13631824D01*
X1688223Y13709679D01*
X1525125Y13762673D01*
X1355746Y13789500D01*
X1184254Y13789500D01*
X1184246Y13789498D01*
X1184240Y13789498D01*
X1115535Y13778616D01*
X1014875Y13762673D01*
X851777Y13709679D01*
X698978Y13631824D01*
X599735Y13559720D01*
X553223Y13548553D01*
X512437Y13573547D01*
X500500Y13610284D01*
X500500Y14857868D01*
X518806Y14902062D01*
X563000Y14920368D01*
X607194Y14902062D01*
X618687Y14886245D01*
X620366Y14882949D01*
X773075Y14672763D01*
X956763Y14489075D01*
X956770Y14489069D01*
X956771Y14489069D01*
X999909Y14457726D01*
X1166948Y14336366D01*
X1398424Y14218422D01*
X1398426Y14218421D01*
X1645501Y14138141D01*
X1902101Y14097500D01*
X1902103Y14097500D01*
X2161898Y14097500D01*
X2272794Y14115064D01*
X2418493Y14138140D01*
X2418494Y14138140D01*
X2418498Y14138141D01*
X2665573Y14218421D01*
X2665575Y14218422D01*
X2897051Y14336366D01*
X2940165Y14367690D01*
X3107229Y14489069D01*
X3107232Y14489072D01*
X3107236Y14489075D01*
X3290924Y14672763D01*
X3290926Y14672766D01*
X3290931Y14672771D01*
X3443634Y14882949D01*
X3561579Y15114428D01*
X3641860Y15361507D01*
X3682500Y15618103D01*
X3682500Y15877897D01*
X3641860Y16134493D01*
X3561579Y16381572D01*
X3531999Y16439625D01*
X3871500Y16439625D01*
X3871500Y16326374D01*
X3877913Y16255805D01*
X3928522Y16093393D01*
X4016528Y15947814D01*
X4136814Y15827528D01*
X4282393Y15739522D01*
X4444806Y15688913D01*
X4444804Y15688913D01*
X4515374Y15682500D01*
X4515384Y15682500D01*
X4628625Y15682500D01*
X4699194Y15688913D01*
X4861606Y15739522D01*
X5007185Y15827528D01*
X5127471Y15947814D01*
X5215477Y16093393D01*
X5215478Y16093394D01*
X5266086Y16255804D01*
X5272499Y16326374D01*
X5272500Y16326377D01*
X5272500Y16439623D01*
X5272499Y16439625D01*
X5266906Y16501166D01*
X5266086Y16510196D01*
X5215478Y16672606D01*
X5127472Y16818185D01*
X5007185Y16938472D01*
X4861606Y17026478D01*
X4699196Y17077086D01*
X4628624Y17083499D01*
X4628623Y17083500D01*
X4628616Y17083500D01*
X4515384Y17083500D01*
X4515377Y17083500D01*
X4515374Y17083499D01*
X4444804Y17077086D01*
X4282394Y17026478D01*
X4136815Y16938472D01*
X4136814Y16938471D01*
X4016528Y16818185D01*
X3928522Y16672606D01*
X3877913Y16510194D01*
X3871500Y16439625D01*
X3531999Y16439625D01*
X3443634Y16613051D01*
X3290931Y16823229D01*
X3107229Y17006931D01*
X2897051Y17159634D01*
X2893756Y17161312D01*
X2862691Y17197685D01*
X2866442Y17245373D01*
X2902816Y17276440D01*
X2922131Y17279500D01*
X17397869Y17279500D01*
X17442063Y17261194D01*
G37*
%TD.AperFunction*%
%TA.AperFunction,Conductor*%
G36*
X19807564Y9286451D02*
G01*
X19819500Y9249715D01*
X19819500Y8658217D01*
X19801194Y8614023D01*
X19757000Y8595717D01*
X19720263Y8607654D01*
X19675270Y8640343D01*
X19507959Y8725592D01*
X19507951Y8725596D01*
X19329359Y8783624D01*
X19202000Y8803796D01*
X19202000Y8105192D01*
X19116880Y8128000D01*
X18983120Y8128000D01*
X18898000Y8105192D01*
X18898000Y8803796D01*
X18897999Y8803796D01*
X18814777Y8790615D01*
X18768264Y8801781D01*
X18743270Y8842568D01*
X18742500Y8852345D01*
X18742500Y9032444D01*
X18760806Y9076638D01*
X18805000Y9094944D01*
X18814774Y9094175D01*
X18866447Y9085990D01*
X18964252Y9070500D01*
X18964254Y9070500D01*
X19135744Y9070500D01*
X19135746Y9070500D01*
X19135747Y9070500D01*
X19135759Y9070501D01*
X19305122Y9097326D01*
X19305123Y9097326D01*
X19468221Y9150320D01*
X19468224Y9150321D01*
X19580604Y9207582D01*
X19621022Y9228176D01*
X19679149Y9270407D01*
X19720264Y9300279D01*
X19766777Y9311445D01*
X19807564Y9286451D01*
G37*
%TD.AperFunction*%
%TD*%
M02*
