%TF.GenerationSoftware,KiCad,Pcbnew,10.99.0-3758-g2f18d95be7*%
%TF.CreationDate,2026-09-22T13:57:31+01:00*%
%TF.ProjectId,kicad_file,6b696361-645f-4666-996c-652e6b696361,rev?*%
%TF.SameCoordinates,Original*%
%TF.FileFunction,Drillmap*%
%TF.FilePolarity,Positive*%
%FSLAX45Y45*%
G04 Gerber Fmt 4.5, Leading zero omitted, Abs format (unit mm)*
G04 Created by KiCad (PCBNEW 10.99.0-3758-g2f18d95be7) date 2026-09-22 13:57:31*
%MOMM*%
%LPD*%
G01*
G04 APERTURE LIST*
%ADD10C,0.050000*%
%ADD11C,0.200000*%
%ADD12C,0.100000*%
%ADD13C,0.250000*%
G04 APERTURE END LIST*
D10*
X-152400Y1612900D02*
G75*
G02*
X101600Y1866900I254000J0D01*
G01*
X-152400Y215900D02*
X-152400Y1612900D01*
X101600Y1866900D02*
X1371600Y1866900D01*
X101600Y-38100D02*
G75*
G02*
X-152400Y215900I0J254000D01*
G01*
X1371600Y1866900D02*
G75*
G02*
X1625600Y1612900I0J-254000D01*
G01*
X1371600Y-38100D02*
X101600Y-38100D01*
X1625600Y1612900D02*
X1625600Y215900D01*
X1625600Y215900D02*
G75*
G02*
X1371600Y-38100I-254000J0D01*
G01*
D11*
D12*
X89300Y850500D02*
X139300Y800500D01*
X139300Y850500D02*
X89300Y800500D01*
X648100Y1104500D02*
X698100Y1054500D01*
X698100Y1104500D02*
X648100Y1054500D01*
X686200Y787000D02*
X736200Y737000D01*
X736200Y787000D02*
X686200Y737000D01*
X965600Y545700D02*
X1015600Y495700D01*
X1015600Y545700D02*
X965600Y495700D01*
X1079900Y1117200D02*
X1129900Y1067200D01*
X1129900Y1117200D02*
X1079900Y1067200D01*
X1092600Y1307700D02*
X1142600Y1257700D01*
X1142600Y1307700D02*
X1092600Y1257700D01*
X1321200Y660000D02*
X1371200Y610000D01*
X1371200Y660000D02*
X1321200Y610000D01*
X278600Y215900D02*
G75*
G02*
X178600Y215900I-50000J0D01*
G01*
X178600Y215900D02*
G75*
G02*
X278600Y215900I50000J0D01*
G01*
X532600Y215900D02*
G75*
G02*
X432600Y215900I-50000J0D01*
G01*
X432600Y215900D02*
G75*
G02*
X532600Y215900I50000J0D01*
G01*
X786600Y215900D02*
G75*
G02*
X686600Y215900I-50000J0D01*
G01*
X686600Y215900D02*
G75*
G02*
X786600Y215900I50000J0D01*
G01*
X1040600Y215900D02*
G75*
G02*
X940600Y215900I-50000J0D01*
G01*
X940600Y215900D02*
G75*
G02*
X1040600Y215900I50000J0D01*
G01*
X1294600Y215900D02*
G75*
G02*
X1194600Y215900I-50000J0D01*
G01*
X1194600Y215900D02*
G75*
G02*
X1294600Y215900I50000J0D01*
G01*
D13*
X101600Y1737900D02*
X101600Y1487900D01*
X-23400Y1612900D02*
X226600Y1612900D01*
X1371600Y1737900D02*
X1371600Y1487900D01*
X1246600Y1612900D02*
X1496600Y1612900D01*
D11*
X105877Y-352084D02*
X105877Y-152084D01*
X105877Y-152084D02*
X153496Y-152084D01*
X153496Y-152084D02*
X182067Y-161608D01*
X182067Y-161608D02*
X201115Y-180655D01*
X201115Y-180655D02*
X210639Y-199703D01*
X210639Y-199703D02*
X220162Y-237798D01*
X220162Y-237798D02*
X220162Y-266370D01*
X220162Y-266370D02*
X210639Y-304465D01*
X210639Y-304465D02*
X201115Y-323512D01*
X201115Y-323512D02*
X182067Y-342560D01*
X182067Y-342560D02*
X153496Y-352084D01*
X153496Y-352084D02*
X105877Y-352084D01*
X305877Y-352084D02*
X305877Y-218750D01*
X305877Y-256846D02*
X315401Y-237798D01*
X315401Y-237798D02*
X324924Y-228274D01*
X324924Y-228274D02*
X343972Y-218750D01*
X343972Y-218750D02*
X363020Y-218750D01*
X429686Y-352084D02*
X429686Y-218750D01*
X429686Y-152084D02*
X420162Y-161608D01*
X420162Y-161608D02*
X429686Y-171131D01*
X429686Y-171131D02*
X439210Y-161608D01*
X439210Y-161608D02*
X429686Y-152084D01*
X429686Y-152084D02*
X429686Y-171131D01*
X553496Y-352084D02*
X534448Y-342560D01*
X534448Y-342560D02*
X524924Y-323512D01*
X524924Y-323512D02*
X524924Y-152084D01*
X658258Y-352084D02*
X639210Y-342560D01*
X639210Y-342560D02*
X629686Y-323512D01*
X629686Y-323512D02*
X629686Y-152084D01*
X886829Y-352084D02*
X886829Y-152084D01*
X886829Y-152084D02*
X953496Y-294941D01*
X953496Y-294941D02*
X1020162Y-152084D01*
X1020162Y-152084D02*
X1020162Y-352084D01*
X1201115Y-352084D02*
X1201115Y-247322D01*
X1201115Y-247322D02*
X1191591Y-228274D01*
X1191591Y-228274D02*
X1172544Y-218750D01*
X1172544Y-218750D02*
X1134448Y-218750D01*
X1134448Y-218750D02*
X1115401Y-228274D01*
X1201115Y-342560D02*
X1182067Y-352084D01*
X1182067Y-352084D02*
X1134448Y-352084D01*
X1134448Y-352084D02*
X1115401Y-342560D01*
X1115401Y-342560D02*
X1105877Y-323512D01*
X1105877Y-323512D02*
X1105877Y-304465D01*
X1105877Y-304465D02*
X1115401Y-285417D01*
X1115401Y-285417D02*
X1134448Y-275893D01*
X1134448Y-275893D02*
X1182067Y-275893D01*
X1182067Y-275893D02*
X1201115Y-266370D01*
X1296353Y-218750D02*
X1296353Y-418750D01*
X1296353Y-228274D02*
X1315401Y-218750D01*
X1315401Y-218750D02*
X1353496Y-218750D01*
X1353496Y-218750D02*
X1372544Y-228274D01*
X1372544Y-228274D02*
X1382067Y-237798D01*
X1382067Y-237798D02*
X1391591Y-256846D01*
X1391591Y-256846D02*
X1391591Y-313989D01*
X1391591Y-313989D02*
X1382067Y-333036D01*
X1382067Y-333036D02*
X1372544Y-342560D01*
X1372544Y-342560D02*
X1353496Y-352084D01*
X1353496Y-352084D02*
X1315401Y-352084D01*
X1315401Y-352084D02*
X1296353Y-342560D01*
X1477305Y-333036D02*
X1486829Y-342560D01*
X1486829Y-342560D02*
X1477305Y-352084D01*
X1477305Y-352084D02*
X1467782Y-342560D01*
X1467782Y-342560D02*
X1477305Y-333036D01*
X1477305Y-333036D02*
X1477305Y-352084D01*
X1477305Y-228274D02*
X1486829Y-237798D01*
X1486829Y-237798D02*
X1477305Y-247322D01*
X1477305Y-247322D02*
X1467782Y-237798D01*
X1467782Y-237798D02*
X1477305Y-228274D01*
X1477305Y-228274D02*
X1477305Y-247322D01*
D12*
X-204900Y-655600D02*
X-154900Y-705600D01*
X-154900Y-655600D02*
X-204900Y-705600D01*
D11*
X143972Y-572084D02*
X163020Y-572084D01*
X163020Y-572084D02*
X182067Y-581608D01*
X182067Y-581608D02*
X191591Y-591131D01*
X191591Y-591131D02*
X201115Y-610179D01*
X201115Y-610179D02*
X210639Y-648274D01*
X210639Y-648274D02*
X210639Y-695893D01*
X210639Y-695893D02*
X201115Y-733988D01*
X201115Y-733988D02*
X191591Y-753036D01*
X191591Y-753036D02*
X182067Y-762560D01*
X182067Y-762560D02*
X163020Y-772084D01*
X163020Y-772084D02*
X143972Y-772084D01*
X143972Y-772084D02*
X124924Y-762560D01*
X124924Y-762560D02*
X115401Y-753036D01*
X115401Y-753036D02*
X105877Y-733988D01*
X105877Y-733988D02*
X96353Y-695893D01*
X96353Y-695893D02*
X96353Y-648274D01*
X96353Y-648274D02*
X105877Y-610179D01*
X105877Y-610179D02*
X115401Y-591131D01*
X115401Y-591131D02*
X124924Y-581608D01*
X124924Y-581608D02*
X143972Y-572084D01*
X296353Y-753036D02*
X305877Y-762560D01*
X305877Y-762560D02*
X296353Y-772084D01*
X296353Y-772084D02*
X286829Y-762560D01*
X286829Y-762560D02*
X296353Y-753036D01*
X296353Y-753036D02*
X296353Y-772084D01*
X486829Y-572084D02*
X391591Y-572084D01*
X391591Y-572084D02*
X382067Y-667322D01*
X382067Y-667322D02*
X391591Y-657798D01*
X391591Y-657798D02*
X410639Y-648274D01*
X410639Y-648274D02*
X458258Y-648274D01*
X458258Y-648274D02*
X477305Y-657798D01*
X477305Y-657798D02*
X486829Y-667322D01*
X486829Y-667322D02*
X496353Y-686370D01*
X496353Y-686370D02*
X496353Y-733988D01*
X496353Y-733988D02*
X486829Y-753036D01*
X486829Y-753036D02*
X477305Y-762560D01*
X477305Y-762560D02*
X458258Y-772084D01*
X458258Y-772084D02*
X410639Y-772084D01*
X410639Y-772084D02*
X391591Y-762560D01*
X391591Y-762560D02*
X382067Y-753036D01*
X620163Y-572084D02*
X639210Y-572084D01*
X639210Y-572084D02*
X658258Y-581608D01*
X658258Y-581608D02*
X667782Y-591131D01*
X667782Y-591131D02*
X677305Y-610179D01*
X677305Y-610179D02*
X686829Y-648274D01*
X686829Y-648274D02*
X686829Y-695893D01*
X686829Y-695893D02*
X677305Y-733988D01*
X677305Y-733988D02*
X667782Y-753036D01*
X667782Y-753036D02*
X658258Y-762560D01*
X658258Y-762560D02*
X639210Y-772084D01*
X639210Y-772084D02*
X620163Y-772084D01*
X620163Y-772084D02*
X601115Y-762560D01*
X601115Y-762560D02*
X591591Y-753036D01*
X591591Y-753036D02*
X582067Y-733988D01*
X582067Y-733988D02*
X572544Y-695893D01*
X572544Y-695893D02*
X572544Y-648274D01*
X572544Y-648274D02*
X582067Y-610179D01*
X582067Y-610179D02*
X591591Y-591131D01*
X591591Y-591131D02*
X601115Y-581608D01*
X601115Y-581608D02*
X620163Y-572084D01*
X810639Y-572084D02*
X829686Y-572084D01*
X829686Y-572084D02*
X848734Y-581608D01*
X848734Y-581608D02*
X858258Y-591131D01*
X858258Y-591131D02*
X867782Y-610179D01*
X867782Y-610179D02*
X877305Y-648274D01*
X877305Y-648274D02*
X877305Y-695893D01*
X877305Y-695893D02*
X867782Y-733988D01*
X867782Y-733988D02*
X858258Y-753036D01*
X858258Y-753036D02*
X848734Y-762560D01*
X848734Y-762560D02*
X829686Y-772084D01*
X829686Y-772084D02*
X810639Y-772084D01*
X810639Y-772084D02*
X791591Y-762560D01*
X791591Y-762560D02*
X782067Y-753036D01*
X782067Y-753036D02*
X772543Y-733988D01*
X772543Y-733988D02*
X763020Y-695893D01*
X763020Y-695893D02*
X763020Y-648274D01*
X763020Y-648274D02*
X772543Y-610179D01*
X772543Y-610179D02*
X782067Y-591131D01*
X782067Y-591131D02*
X791591Y-581608D01*
X791591Y-581608D02*
X810639Y-572084D01*
X963020Y-772084D02*
X963020Y-638750D01*
X963020Y-657798D02*
X972543Y-648274D01*
X972543Y-648274D02*
X991591Y-638750D01*
X991591Y-638750D02*
X1020163Y-638750D01*
X1020163Y-638750D02*
X1039210Y-648274D01*
X1039210Y-648274D02*
X1048734Y-667322D01*
X1048734Y-667322D02*
X1048734Y-772084D01*
X1048734Y-667322D02*
X1058258Y-648274D01*
X1058258Y-648274D02*
X1077305Y-638750D01*
X1077305Y-638750D02*
X1105877Y-638750D01*
X1105877Y-638750D02*
X1124925Y-648274D01*
X1124925Y-648274D02*
X1134448Y-667322D01*
X1134448Y-667322D02*
X1134448Y-772084D01*
X1229686Y-772084D02*
X1229686Y-638750D01*
X1229686Y-657798D02*
X1239210Y-648274D01*
X1239210Y-648274D02*
X1258258Y-638750D01*
X1258258Y-638750D02*
X1286829Y-638750D01*
X1286829Y-638750D02*
X1305877Y-648274D01*
X1305877Y-648274D02*
X1315401Y-667322D01*
X1315401Y-667322D02*
X1315401Y-772084D01*
X1315401Y-667322D02*
X1324925Y-648274D01*
X1324925Y-648274D02*
X1343972Y-638750D01*
X1343972Y-638750D02*
X1372544Y-638750D01*
X1372544Y-638750D02*
X1391591Y-648274D01*
X1391591Y-648274D02*
X1401115Y-667322D01*
X1401115Y-667322D02*
X1401115Y-772084D01*
X1791591Y-562560D02*
X1620163Y-819703D01*
X2048734Y-572084D02*
X2067782Y-572084D01*
X2067782Y-572084D02*
X2086829Y-581608D01*
X2086829Y-581608D02*
X2096353Y-591131D01*
X2096353Y-591131D02*
X2105877Y-610179D01*
X2105877Y-610179D02*
X2115401Y-648274D01*
X2115401Y-648274D02*
X2115401Y-695893D01*
X2115401Y-695893D02*
X2105877Y-733988D01*
X2105877Y-733988D02*
X2096353Y-753036D01*
X2096353Y-753036D02*
X2086829Y-762560D01*
X2086829Y-762560D02*
X2067782Y-772084D01*
X2067782Y-772084D02*
X2048734Y-772084D01*
X2048734Y-772084D02*
X2029686Y-762560D01*
X2029686Y-762560D02*
X2020163Y-753036D01*
X2020163Y-753036D02*
X2010639Y-733988D01*
X2010639Y-733988D02*
X2001115Y-695893D01*
X2001115Y-695893D02*
X2001115Y-648274D01*
X2001115Y-648274D02*
X2010639Y-610179D01*
X2010639Y-610179D02*
X2020163Y-591131D01*
X2020163Y-591131D02*
X2029686Y-581608D01*
X2029686Y-581608D02*
X2048734Y-572084D01*
X2201115Y-753036D02*
X2210639Y-762560D01*
X2210639Y-762560D02*
X2201115Y-772084D01*
X2201115Y-772084D02*
X2191591Y-762560D01*
X2191591Y-762560D02*
X2201115Y-753036D01*
X2201115Y-753036D02*
X2201115Y-772084D01*
X2334448Y-572084D02*
X2353496Y-572084D01*
X2353496Y-572084D02*
X2372544Y-581608D01*
X2372544Y-581608D02*
X2382068Y-591131D01*
X2382068Y-591131D02*
X2391591Y-610179D01*
X2391591Y-610179D02*
X2401115Y-648274D01*
X2401115Y-648274D02*
X2401115Y-695893D01*
X2401115Y-695893D02*
X2391591Y-733988D01*
X2391591Y-733988D02*
X2382068Y-753036D01*
X2382068Y-753036D02*
X2372544Y-762560D01*
X2372544Y-762560D02*
X2353496Y-772084D01*
X2353496Y-772084D02*
X2334448Y-772084D01*
X2334448Y-772084D02*
X2315401Y-762560D01*
X2315401Y-762560D02*
X2305877Y-753036D01*
X2305877Y-753036D02*
X2296353Y-733988D01*
X2296353Y-733988D02*
X2286829Y-695893D01*
X2286829Y-695893D02*
X2286829Y-648274D01*
X2286829Y-648274D02*
X2296353Y-610179D01*
X2296353Y-610179D02*
X2305877Y-591131D01*
X2305877Y-591131D02*
X2315401Y-581608D01*
X2315401Y-581608D02*
X2334448Y-572084D01*
X2591591Y-772084D02*
X2477306Y-772084D01*
X2534448Y-772084D02*
X2534448Y-572084D01*
X2534448Y-572084D02*
X2515401Y-600655D01*
X2515401Y-600655D02*
X2496353Y-619703D01*
X2496353Y-619703D02*
X2477306Y-629227D01*
X2686829Y-772084D02*
X2724925Y-772084D01*
X2724925Y-772084D02*
X2743972Y-762560D01*
X2743972Y-762560D02*
X2753496Y-753036D01*
X2753496Y-753036D02*
X2772544Y-724465D01*
X2772544Y-724465D02*
X2782068Y-686370D01*
X2782068Y-686370D02*
X2782068Y-610179D01*
X2782068Y-610179D02*
X2772544Y-591131D01*
X2772544Y-591131D02*
X2763020Y-581608D01*
X2763020Y-581608D02*
X2743972Y-572084D01*
X2743972Y-572084D02*
X2705877Y-572084D01*
X2705877Y-572084D02*
X2686829Y-581608D01*
X2686829Y-581608D02*
X2677306Y-591131D01*
X2677306Y-591131D02*
X2667782Y-610179D01*
X2667782Y-610179D02*
X2667782Y-657798D01*
X2667782Y-657798D02*
X2677306Y-676846D01*
X2677306Y-676846D02*
X2686829Y-686370D01*
X2686829Y-686370D02*
X2705877Y-695893D01*
X2705877Y-695893D02*
X2743972Y-695893D01*
X2743972Y-695893D02*
X2763020Y-686370D01*
X2763020Y-686370D02*
X2772544Y-676846D01*
X2772544Y-676846D02*
X2782068Y-657798D01*
X2848734Y-572084D02*
X2982067Y-572084D01*
X2982067Y-572084D02*
X2896353Y-772084D01*
X3048734Y-572084D02*
X3048734Y-610179D01*
X3124925Y-572084D02*
X3124925Y-610179D01*
X3420163Y-848274D02*
X3410639Y-838750D01*
X3410639Y-838750D02*
X3391591Y-810179D01*
X3391591Y-810179D02*
X3382068Y-791131D01*
X3382068Y-791131D02*
X3372544Y-762560D01*
X3372544Y-762560D02*
X3363020Y-714941D01*
X3363020Y-714941D02*
X3363020Y-676846D01*
X3363020Y-676846D02*
X3372544Y-629227D01*
X3372544Y-629227D02*
X3382068Y-600655D01*
X3382068Y-600655D02*
X3391591Y-581608D01*
X3391591Y-581608D02*
X3410639Y-553036D01*
X3410639Y-553036D02*
X3420163Y-543512D01*
X3477306Y-572084D02*
X3610639Y-572084D01*
X3610639Y-572084D02*
X3524925Y-772084D01*
X3839210Y-772084D02*
X3839210Y-572084D01*
X3924925Y-772084D02*
X3924925Y-667322D01*
X3924925Y-667322D02*
X3915401Y-648274D01*
X3915401Y-648274D02*
X3896353Y-638750D01*
X3896353Y-638750D02*
X3867782Y-638750D01*
X3867782Y-638750D02*
X3848734Y-648274D01*
X3848734Y-648274D02*
X3839210Y-657798D01*
X4048734Y-772084D02*
X4029687Y-762560D01*
X4029687Y-762560D02*
X4020163Y-753036D01*
X4020163Y-753036D02*
X4010639Y-733988D01*
X4010639Y-733988D02*
X4010639Y-676846D01*
X4010639Y-676846D02*
X4020163Y-657798D01*
X4020163Y-657798D02*
X4029687Y-648274D01*
X4029687Y-648274D02*
X4048734Y-638750D01*
X4048734Y-638750D02*
X4077306Y-638750D01*
X4077306Y-638750D02*
X4096353Y-648274D01*
X4096353Y-648274D02*
X4105877Y-657798D01*
X4105877Y-657798D02*
X4115401Y-676846D01*
X4115401Y-676846D02*
X4115401Y-733988D01*
X4115401Y-733988D02*
X4105877Y-753036D01*
X4105877Y-753036D02*
X4096353Y-762560D01*
X4096353Y-762560D02*
X4077306Y-772084D01*
X4077306Y-772084D02*
X4048734Y-772084D01*
X4229687Y-772084D02*
X4210639Y-762560D01*
X4210639Y-762560D02*
X4201115Y-743512D01*
X4201115Y-743512D02*
X4201115Y-572084D01*
X4382068Y-762560D02*
X4363020Y-772084D01*
X4363020Y-772084D02*
X4324925Y-772084D01*
X4324925Y-772084D02*
X4305877Y-762560D01*
X4305877Y-762560D02*
X4296353Y-743512D01*
X4296353Y-743512D02*
X4296353Y-667322D01*
X4296353Y-667322D02*
X4305877Y-648274D01*
X4305877Y-648274D02*
X4324925Y-638750D01*
X4324925Y-638750D02*
X4363020Y-638750D01*
X4363020Y-638750D02*
X4382068Y-648274D01*
X4382068Y-648274D02*
X4391592Y-667322D01*
X4391592Y-667322D02*
X4391592Y-686370D01*
X4391592Y-686370D02*
X4296353Y-705417D01*
X4467782Y-762560D02*
X4486830Y-772084D01*
X4486830Y-772084D02*
X4524925Y-772084D01*
X4524925Y-772084D02*
X4543973Y-762560D01*
X4543973Y-762560D02*
X4553496Y-743512D01*
X4553496Y-743512D02*
X4553496Y-733988D01*
X4553496Y-733988D02*
X4543973Y-714941D01*
X4543973Y-714941D02*
X4524925Y-705417D01*
X4524925Y-705417D02*
X4496353Y-705417D01*
X4496353Y-705417D02*
X4477306Y-695893D01*
X4477306Y-695893D02*
X4467782Y-676846D01*
X4467782Y-676846D02*
X4467782Y-667322D01*
X4467782Y-667322D02*
X4477306Y-648274D01*
X4477306Y-648274D02*
X4496353Y-638750D01*
X4496353Y-638750D02*
X4524925Y-638750D01*
X4524925Y-638750D02*
X4543973Y-648274D01*
X4620163Y-848274D02*
X4629687Y-838750D01*
X4629687Y-838750D02*
X4648734Y-810179D01*
X4648734Y-810179D02*
X4658258Y-791131D01*
X4658258Y-791131D02*
X4667782Y-762560D01*
X4667782Y-762560D02*
X4677306Y-714941D01*
X4677306Y-714941D02*
X4677306Y-676846D01*
X4677306Y-676846D02*
X4667782Y-629227D01*
X4667782Y-629227D02*
X4658258Y-600655D01*
X4658258Y-600655D02*
X4648734Y-581608D01*
X4648734Y-581608D02*
X4629687Y-553036D01*
X4629687Y-553036D02*
X4620163Y-543512D01*
D12*
X-154900Y-944600D02*
G75*
G02*
X-254900Y-944600I-50000J0D01*
G01*
X-254900Y-944600D02*
G75*
G02*
X-154900Y-944600I50000J0D01*
G01*
D11*
X210639Y-1036084D02*
X96353Y-1036084D01*
X153496Y-1036084D02*
X153496Y-836084D01*
X153496Y-836084D02*
X134448Y-864655D01*
X134448Y-864655D02*
X115401Y-883703D01*
X115401Y-883703D02*
X96353Y-893227D01*
X296353Y-1017036D02*
X305877Y-1026560D01*
X305877Y-1026560D02*
X296353Y-1036084D01*
X296353Y-1036084D02*
X286829Y-1026560D01*
X286829Y-1026560D02*
X296353Y-1017036D01*
X296353Y-1017036D02*
X296353Y-1036084D01*
X429686Y-836084D02*
X448734Y-836084D01*
X448734Y-836084D02*
X467782Y-845608D01*
X467782Y-845608D02*
X477305Y-855131D01*
X477305Y-855131D02*
X486829Y-874179D01*
X486829Y-874179D02*
X496353Y-912274D01*
X496353Y-912274D02*
X496353Y-959893D01*
X496353Y-959893D02*
X486829Y-997988D01*
X486829Y-997988D02*
X477305Y-1017036D01*
X477305Y-1017036D02*
X467782Y-1026560D01*
X467782Y-1026560D02*
X448734Y-1036084D01*
X448734Y-1036084D02*
X429686Y-1036084D01*
X429686Y-1036084D02*
X410639Y-1026560D01*
X410639Y-1026560D02*
X401115Y-1017036D01*
X401115Y-1017036D02*
X391591Y-997988D01*
X391591Y-997988D02*
X382067Y-959893D01*
X382067Y-959893D02*
X382067Y-912274D01*
X382067Y-912274D02*
X391591Y-874179D01*
X391591Y-874179D02*
X401115Y-855131D01*
X401115Y-855131D02*
X410639Y-845608D01*
X410639Y-845608D02*
X429686Y-836084D01*
X620163Y-836084D02*
X639210Y-836084D01*
X639210Y-836084D02*
X658258Y-845608D01*
X658258Y-845608D02*
X667782Y-855131D01*
X667782Y-855131D02*
X677305Y-874179D01*
X677305Y-874179D02*
X686829Y-912274D01*
X686829Y-912274D02*
X686829Y-959893D01*
X686829Y-959893D02*
X677305Y-997988D01*
X677305Y-997988D02*
X667782Y-1017036D01*
X667782Y-1017036D02*
X658258Y-1026560D01*
X658258Y-1026560D02*
X639210Y-1036084D01*
X639210Y-1036084D02*
X620163Y-1036084D01*
X620163Y-1036084D02*
X601115Y-1026560D01*
X601115Y-1026560D02*
X591591Y-1017036D01*
X591591Y-1017036D02*
X582067Y-997988D01*
X582067Y-997988D02*
X572544Y-959893D01*
X572544Y-959893D02*
X572544Y-912274D01*
X572544Y-912274D02*
X582067Y-874179D01*
X582067Y-874179D02*
X591591Y-855131D01*
X591591Y-855131D02*
X601115Y-845608D01*
X601115Y-845608D02*
X620163Y-836084D01*
X810639Y-836084D02*
X829686Y-836084D01*
X829686Y-836084D02*
X848734Y-845608D01*
X848734Y-845608D02*
X858258Y-855131D01*
X858258Y-855131D02*
X867782Y-874179D01*
X867782Y-874179D02*
X877305Y-912274D01*
X877305Y-912274D02*
X877305Y-959893D01*
X877305Y-959893D02*
X867782Y-997988D01*
X867782Y-997988D02*
X858258Y-1017036D01*
X858258Y-1017036D02*
X848734Y-1026560D01*
X848734Y-1026560D02*
X829686Y-1036084D01*
X829686Y-1036084D02*
X810639Y-1036084D01*
X810639Y-1036084D02*
X791591Y-1026560D01*
X791591Y-1026560D02*
X782067Y-1017036D01*
X782067Y-1017036D02*
X772543Y-997988D01*
X772543Y-997988D02*
X763020Y-959893D01*
X763020Y-959893D02*
X763020Y-912274D01*
X763020Y-912274D02*
X772543Y-874179D01*
X772543Y-874179D02*
X782067Y-855131D01*
X782067Y-855131D02*
X791591Y-845608D01*
X791591Y-845608D02*
X810639Y-836084D01*
X963020Y-1036084D02*
X963020Y-902750D01*
X963020Y-921798D02*
X972543Y-912274D01*
X972543Y-912274D02*
X991591Y-902750D01*
X991591Y-902750D02*
X1020163Y-902750D01*
X1020163Y-902750D02*
X1039210Y-912274D01*
X1039210Y-912274D02*
X1048734Y-931322D01*
X1048734Y-931322D02*
X1048734Y-1036084D01*
X1048734Y-931322D02*
X1058258Y-912274D01*
X1058258Y-912274D02*
X1077305Y-902750D01*
X1077305Y-902750D02*
X1105877Y-902750D01*
X1105877Y-902750D02*
X1124925Y-912274D01*
X1124925Y-912274D02*
X1134448Y-931322D01*
X1134448Y-931322D02*
X1134448Y-1036084D01*
X1229686Y-1036084D02*
X1229686Y-902750D01*
X1229686Y-921798D02*
X1239210Y-912274D01*
X1239210Y-912274D02*
X1258258Y-902750D01*
X1258258Y-902750D02*
X1286829Y-902750D01*
X1286829Y-902750D02*
X1305877Y-912274D01*
X1305877Y-912274D02*
X1315401Y-931322D01*
X1315401Y-931322D02*
X1315401Y-1036084D01*
X1315401Y-931322D02*
X1324925Y-912274D01*
X1324925Y-912274D02*
X1343972Y-902750D01*
X1343972Y-902750D02*
X1372544Y-902750D01*
X1372544Y-902750D02*
X1391591Y-912274D01*
X1391591Y-912274D02*
X1401115Y-931322D01*
X1401115Y-931322D02*
X1401115Y-1036084D01*
X1791591Y-826560D02*
X1620163Y-1083703D01*
X2048734Y-836084D02*
X2067782Y-836084D01*
X2067782Y-836084D02*
X2086829Y-845608D01*
X2086829Y-845608D02*
X2096353Y-855131D01*
X2096353Y-855131D02*
X2105877Y-874179D01*
X2105877Y-874179D02*
X2115401Y-912274D01*
X2115401Y-912274D02*
X2115401Y-959893D01*
X2115401Y-959893D02*
X2105877Y-997988D01*
X2105877Y-997988D02*
X2096353Y-1017036D01*
X2096353Y-1017036D02*
X2086829Y-1026560D01*
X2086829Y-1026560D02*
X2067782Y-1036084D01*
X2067782Y-1036084D02*
X2048734Y-1036084D01*
X2048734Y-1036084D02*
X2029686Y-1026560D01*
X2029686Y-1026560D02*
X2020163Y-1017036D01*
X2020163Y-1017036D02*
X2010639Y-997988D01*
X2010639Y-997988D02*
X2001115Y-959893D01*
X2001115Y-959893D02*
X2001115Y-912274D01*
X2001115Y-912274D02*
X2010639Y-874179D01*
X2010639Y-874179D02*
X2020163Y-855131D01*
X2020163Y-855131D02*
X2029686Y-845608D01*
X2029686Y-845608D02*
X2048734Y-836084D01*
X2201115Y-1017036D02*
X2210639Y-1026560D01*
X2210639Y-1026560D02*
X2201115Y-1036084D01*
X2201115Y-1036084D02*
X2191591Y-1026560D01*
X2191591Y-1026560D02*
X2201115Y-1017036D01*
X2201115Y-1017036D02*
X2201115Y-1036084D01*
X2334448Y-836084D02*
X2353496Y-836084D01*
X2353496Y-836084D02*
X2372544Y-845608D01*
X2372544Y-845608D02*
X2382068Y-855131D01*
X2382068Y-855131D02*
X2391591Y-874179D01*
X2391591Y-874179D02*
X2401115Y-912274D01*
X2401115Y-912274D02*
X2401115Y-959893D01*
X2401115Y-959893D02*
X2391591Y-997988D01*
X2391591Y-997988D02*
X2382068Y-1017036D01*
X2382068Y-1017036D02*
X2372544Y-1026560D01*
X2372544Y-1026560D02*
X2353496Y-1036084D01*
X2353496Y-1036084D02*
X2334448Y-1036084D01*
X2334448Y-1036084D02*
X2315401Y-1026560D01*
X2315401Y-1026560D02*
X2305877Y-1017036D01*
X2305877Y-1017036D02*
X2296353Y-997988D01*
X2296353Y-997988D02*
X2286829Y-959893D01*
X2286829Y-959893D02*
X2286829Y-912274D01*
X2286829Y-912274D02*
X2296353Y-874179D01*
X2296353Y-874179D02*
X2305877Y-855131D01*
X2305877Y-855131D02*
X2315401Y-845608D01*
X2315401Y-845608D02*
X2334448Y-836084D01*
X2467782Y-836084D02*
X2591591Y-836084D01*
X2591591Y-836084D02*
X2524925Y-912274D01*
X2524925Y-912274D02*
X2553496Y-912274D01*
X2553496Y-912274D02*
X2572544Y-921798D01*
X2572544Y-921798D02*
X2582068Y-931322D01*
X2582068Y-931322D02*
X2591591Y-950369D01*
X2591591Y-950369D02*
X2591591Y-997988D01*
X2591591Y-997988D02*
X2582068Y-1017036D01*
X2582068Y-1017036D02*
X2572544Y-1026560D01*
X2572544Y-1026560D02*
X2553496Y-1036084D01*
X2553496Y-1036084D02*
X2496353Y-1036084D01*
X2496353Y-1036084D02*
X2477306Y-1026560D01*
X2477306Y-1026560D02*
X2467782Y-1017036D01*
X2686829Y-1036084D02*
X2724925Y-1036084D01*
X2724925Y-1036084D02*
X2743972Y-1026560D01*
X2743972Y-1026560D02*
X2753496Y-1017036D01*
X2753496Y-1017036D02*
X2772544Y-988465D01*
X2772544Y-988465D02*
X2782068Y-950369D01*
X2782068Y-950369D02*
X2782068Y-874179D01*
X2782068Y-874179D02*
X2772544Y-855131D01*
X2772544Y-855131D02*
X2763020Y-845608D01*
X2763020Y-845608D02*
X2743972Y-836084D01*
X2743972Y-836084D02*
X2705877Y-836084D01*
X2705877Y-836084D02*
X2686829Y-845608D01*
X2686829Y-845608D02*
X2677306Y-855131D01*
X2677306Y-855131D02*
X2667782Y-874179D01*
X2667782Y-874179D02*
X2667782Y-921798D01*
X2667782Y-921798D02*
X2677306Y-940846D01*
X2677306Y-940846D02*
X2686829Y-950369D01*
X2686829Y-950369D02*
X2705877Y-959893D01*
X2705877Y-959893D02*
X2743972Y-959893D01*
X2743972Y-959893D02*
X2763020Y-950369D01*
X2763020Y-950369D02*
X2772544Y-940846D01*
X2772544Y-940846D02*
X2782068Y-921798D01*
X2953496Y-902750D02*
X2953496Y-1036084D01*
X2905877Y-826560D02*
X2858258Y-969417D01*
X2858258Y-969417D02*
X2982067Y-969417D01*
X3048734Y-836084D02*
X3048734Y-874179D01*
X3124925Y-836084D02*
X3124925Y-874179D01*
X3420163Y-1112274D02*
X3410639Y-1102750D01*
X3410639Y-1102750D02*
X3391591Y-1074179D01*
X3391591Y-1074179D02*
X3382068Y-1055131D01*
X3382068Y-1055131D02*
X3372544Y-1026560D01*
X3372544Y-1026560D02*
X3363020Y-978941D01*
X3363020Y-978941D02*
X3363020Y-940846D01*
X3363020Y-940846D02*
X3372544Y-893227D01*
X3372544Y-893227D02*
X3382068Y-864655D01*
X3382068Y-864655D02*
X3391591Y-845608D01*
X3391591Y-845608D02*
X3410639Y-817036D01*
X3410639Y-817036D02*
X3420163Y-807512D01*
X3591591Y-836084D02*
X3496353Y-836084D01*
X3496353Y-836084D02*
X3486829Y-931322D01*
X3486829Y-931322D02*
X3496353Y-921798D01*
X3496353Y-921798D02*
X3515401Y-912274D01*
X3515401Y-912274D02*
X3563020Y-912274D01*
X3563020Y-912274D02*
X3582068Y-921798D01*
X3582068Y-921798D02*
X3591591Y-931322D01*
X3591591Y-931322D02*
X3601115Y-950369D01*
X3601115Y-950369D02*
X3601115Y-997988D01*
X3601115Y-997988D02*
X3591591Y-1017036D01*
X3591591Y-1017036D02*
X3582068Y-1026560D01*
X3582068Y-1026560D02*
X3563020Y-1036084D01*
X3563020Y-1036084D02*
X3515401Y-1036084D01*
X3515401Y-1036084D02*
X3496353Y-1026560D01*
X3496353Y-1026560D02*
X3486829Y-1017036D01*
X3839210Y-1036084D02*
X3839210Y-836084D01*
X3924925Y-1036084D02*
X3924925Y-931322D01*
X3924925Y-931322D02*
X3915401Y-912274D01*
X3915401Y-912274D02*
X3896353Y-902750D01*
X3896353Y-902750D02*
X3867782Y-902750D01*
X3867782Y-902750D02*
X3848734Y-912274D01*
X3848734Y-912274D02*
X3839210Y-921798D01*
X4048734Y-1036084D02*
X4029687Y-1026560D01*
X4029687Y-1026560D02*
X4020163Y-1017036D01*
X4020163Y-1017036D02*
X4010639Y-997988D01*
X4010639Y-997988D02*
X4010639Y-940846D01*
X4010639Y-940846D02*
X4020163Y-921798D01*
X4020163Y-921798D02*
X4029687Y-912274D01*
X4029687Y-912274D02*
X4048734Y-902750D01*
X4048734Y-902750D02*
X4077306Y-902750D01*
X4077306Y-902750D02*
X4096353Y-912274D01*
X4096353Y-912274D02*
X4105877Y-921798D01*
X4105877Y-921798D02*
X4115401Y-940846D01*
X4115401Y-940846D02*
X4115401Y-997988D01*
X4115401Y-997988D02*
X4105877Y-1017036D01*
X4105877Y-1017036D02*
X4096353Y-1026560D01*
X4096353Y-1026560D02*
X4077306Y-1036084D01*
X4077306Y-1036084D02*
X4048734Y-1036084D01*
X4229687Y-1036084D02*
X4210639Y-1026560D01*
X4210639Y-1026560D02*
X4201115Y-1007512D01*
X4201115Y-1007512D02*
X4201115Y-836084D01*
X4382068Y-1026560D02*
X4363020Y-1036084D01*
X4363020Y-1036084D02*
X4324925Y-1036084D01*
X4324925Y-1036084D02*
X4305877Y-1026560D01*
X4305877Y-1026560D02*
X4296353Y-1007512D01*
X4296353Y-1007512D02*
X4296353Y-931322D01*
X4296353Y-931322D02*
X4305877Y-912274D01*
X4305877Y-912274D02*
X4324925Y-902750D01*
X4324925Y-902750D02*
X4363020Y-902750D01*
X4363020Y-902750D02*
X4382068Y-912274D01*
X4382068Y-912274D02*
X4391592Y-931322D01*
X4391592Y-931322D02*
X4391592Y-950369D01*
X4391592Y-950369D02*
X4296353Y-969417D01*
X4467782Y-1026560D02*
X4486830Y-1036084D01*
X4486830Y-1036084D02*
X4524925Y-1036084D01*
X4524925Y-1036084D02*
X4543973Y-1026560D01*
X4543973Y-1026560D02*
X4553496Y-1007512D01*
X4553496Y-1007512D02*
X4553496Y-997988D01*
X4553496Y-997988D02*
X4543973Y-978941D01*
X4543973Y-978941D02*
X4524925Y-969417D01*
X4524925Y-969417D02*
X4496353Y-969417D01*
X4496353Y-969417D02*
X4477306Y-959893D01*
X4477306Y-959893D02*
X4467782Y-940846D01*
X4467782Y-940846D02*
X4467782Y-931322D01*
X4467782Y-931322D02*
X4477306Y-912274D01*
X4477306Y-912274D02*
X4496353Y-902750D01*
X4496353Y-902750D02*
X4524925Y-902750D01*
X4524925Y-902750D02*
X4543973Y-912274D01*
X4620163Y-1112274D02*
X4629687Y-1102750D01*
X4629687Y-1102750D02*
X4648734Y-1074179D01*
X4648734Y-1074179D02*
X4658258Y-1055131D01*
X4658258Y-1055131D02*
X4667782Y-1026560D01*
X4667782Y-1026560D02*
X4677306Y-978941D01*
X4677306Y-978941D02*
X4677306Y-940846D01*
X4677306Y-940846D02*
X4667782Y-893227D01*
X4667782Y-893227D02*
X4658258Y-864655D01*
X4658258Y-864655D02*
X4648734Y-845608D01*
X4648734Y-845608D02*
X4629687Y-817036D01*
X4629687Y-817036D02*
X4620163Y-807512D01*
X-254900Y-1108600D02*
X-254900Y-1308600D01*
X-354900Y-1208600D02*
X-154900Y-1208600D01*
X96353Y-1119131D02*
X105877Y-1109608D01*
X105877Y-1109608D02*
X124924Y-1100084D01*
X124924Y-1100084D02*
X172544Y-1100084D01*
X172544Y-1100084D02*
X191591Y-1109608D01*
X191591Y-1109608D02*
X201115Y-1119131D01*
X201115Y-1119131D02*
X210639Y-1138179D01*
X210639Y-1138179D02*
X210639Y-1157227D01*
X210639Y-1157227D02*
X201115Y-1185798D01*
X201115Y-1185798D02*
X86829Y-1300084D01*
X86829Y-1300084D02*
X210639Y-1300084D01*
X296353Y-1281036D02*
X305877Y-1290560D01*
X305877Y-1290560D02*
X296353Y-1300084D01*
X296353Y-1300084D02*
X286829Y-1290560D01*
X286829Y-1290560D02*
X296353Y-1281036D01*
X296353Y-1281036D02*
X296353Y-1300084D01*
X486829Y-1100084D02*
X391591Y-1100084D01*
X391591Y-1100084D02*
X382067Y-1195322D01*
X382067Y-1195322D02*
X391591Y-1185798D01*
X391591Y-1185798D02*
X410639Y-1176274D01*
X410639Y-1176274D02*
X458258Y-1176274D01*
X458258Y-1176274D02*
X477305Y-1185798D01*
X477305Y-1185798D02*
X486829Y-1195322D01*
X486829Y-1195322D02*
X496353Y-1214370D01*
X496353Y-1214370D02*
X496353Y-1261989D01*
X496353Y-1261989D02*
X486829Y-1281036D01*
X486829Y-1281036D02*
X477305Y-1290560D01*
X477305Y-1290560D02*
X458258Y-1300084D01*
X458258Y-1300084D02*
X410639Y-1300084D01*
X410639Y-1300084D02*
X391591Y-1290560D01*
X391591Y-1290560D02*
X382067Y-1281036D01*
X620163Y-1100084D02*
X639210Y-1100084D01*
X639210Y-1100084D02*
X658258Y-1109608D01*
X658258Y-1109608D02*
X667782Y-1119131D01*
X667782Y-1119131D02*
X677305Y-1138179D01*
X677305Y-1138179D02*
X686829Y-1176274D01*
X686829Y-1176274D02*
X686829Y-1223893D01*
X686829Y-1223893D02*
X677305Y-1261989D01*
X677305Y-1261989D02*
X667782Y-1281036D01*
X667782Y-1281036D02*
X658258Y-1290560D01*
X658258Y-1290560D02*
X639210Y-1300084D01*
X639210Y-1300084D02*
X620163Y-1300084D01*
X620163Y-1300084D02*
X601115Y-1290560D01*
X601115Y-1290560D02*
X591591Y-1281036D01*
X591591Y-1281036D02*
X582067Y-1261989D01*
X582067Y-1261989D02*
X572544Y-1223893D01*
X572544Y-1223893D02*
X572544Y-1176274D01*
X572544Y-1176274D02*
X582067Y-1138179D01*
X582067Y-1138179D02*
X591591Y-1119131D01*
X591591Y-1119131D02*
X601115Y-1109608D01*
X601115Y-1109608D02*
X620163Y-1100084D01*
X810639Y-1100084D02*
X829686Y-1100084D01*
X829686Y-1100084D02*
X848734Y-1109608D01*
X848734Y-1109608D02*
X858258Y-1119131D01*
X858258Y-1119131D02*
X867782Y-1138179D01*
X867782Y-1138179D02*
X877305Y-1176274D01*
X877305Y-1176274D02*
X877305Y-1223893D01*
X877305Y-1223893D02*
X867782Y-1261989D01*
X867782Y-1261989D02*
X858258Y-1281036D01*
X858258Y-1281036D02*
X848734Y-1290560D01*
X848734Y-1290560D02*
X829686Y-1300084D01*
X829686Y-1300084D02*
X810639Y-1300084D01*
X810639Y-1300084D02*
X791591Y-1290560D01*
X791591Y-1290560D02*
X782067Y-1281036D01*
X782067Y-1281036D02*
X772543Y-1261989D01*
X772543Y-1261989D02*
X763020Y-1223893D01*
X763020Y-1223893D02*
X763020Y-1176274D01*
X763020Y-1176274D02*
X772543Y-1138179D01*
X772543Y-1138179D02*
X782067Y-1119131D01*
X782067Y-1119131D02*
X791591Y-1109608D01*
X791591Y-1109608D02*
X810639Y-1100084D01*
X963020Y-1300084D02*
X963020Y-1166750D01*
X963020Y-1185798D02*
X972543Y-1176274D01*
X972543Y-1176274D02*
X991591Y-1166750D01*
X991591Y-1166750D02*
X1020163Y-1166750D01*
X1020163Y-1166750D02*
X1039210Y-1176274D01*
X1039210Y-1176274D02*
X1048734Y-1195322D01*
X1048734Y-1195322D02*
X1048734Y-1300084D01*
X1048734Y-1195322D02*
X1058258Y-1176274D01*
X1058258Y-1176274D02*
X1077305Y-1166750D01*
X1077305Y-1166750D02*
X1105877Y-1166750D01*
X1105877Y-1166750D02*
X1124925Y-1176274D01*
X1124925Y-1176274D02*
X1134448Y-1195322D01*
X1134448Y-1195322D02*
X1134448Y-1300084D01*
X1229686Y-1300084D02*
X1229686Y-1166750D01*
X1229686Y-1185798D02*
X1239210Y-1176274D01*
X1239210Y-1176274D02*
X1258258Y-1166750D01*
X1258258Y-1166750D02*
X1286829Y-1166750D01*
X1286829Y-1166750D02*
X1305877Y-1176274D01*
X1305877Y-1176274D02*
X1315401Y-1195322D01*
X1315401Y-1195322D02*
X1315401Y-1300084D01*
X1315401Y-1195322D02*
X1324925Y-1176274D01*
X1324925Y-1176274D02*
X1343972Y-1166750D01*
X1343972Y-1166750D02*
X1372544Y-1166750D01*
X1372544Y-1166750D02*
X1391591Y-1176274D01*
X1391591Y-1176274D02*
X1401115Y-1195322D01*
X1401115Y-1195322D02*
X1401115Y-1300084D01*
X1791591Y-1090560D02*
X1620163Y-1347703D01*
X2048734Y-1100084D02*
X2067782Y-1100084D01*
X2067782Y-1100084D02*
X2086829Y-1109608D01*
X2086829Y-1109608D02*
X2096353Y-1119131D01*
X2096353Y-1119131D02*
X2105877Y-1138179D01*
X2105877Y-1138179D02*
X2115401Y-1176274D01*
X2115401Y-1176274D02*
X2115401Y-1223893D01*
X2115401Y-1223893D02*
X2105877Y-1261989D01*
X2105877Y-1261989D02*
X2096353Y-1281036D01*
X2096353Y-1281036D02*
X2086829Y-1290560D01*
X2086829Y-1290560D02*
X2067782Y-1300084D01*
X2067782Y-1300084D02*
X2048734Y-1300084D01*
X2048734Y-1300084D02*
X2029686Y-1290560D01*
X2029686Y-1290560D02*
X2020163Y-1281036D01*
X2020163Y-1281036D02*
X2010639Y-1261989D01*
X2010639Y-1261989D02*
X2001115Y-1223893D01*
X2001115Y-1223893D02*
X2001115Y-1176274D01*
X2001115Y-1176274D02*
X2010639Y-1138179D01*
X2010639Y-1138179D02*
X2020163Y-1119131D01*
X2020163Y-1119131D02*
X2029686Y-1109608D01*
X2029686Y-1109608D02*
X2048734Y-1100084D01*
X2201115Y-1281036D02*
X2210639Y-1290560D01*
X2210639Y-1290560D02*
X2201115Y-1300084D01*
X2201115Y-1300084D02*
X2191591Y-1290560D01*
X2191591Y-1290560D02*
X2201115Y-1281036D01*
X2201115Y-1281036D02*
X2201115Y-1300084D01*
X2334448Y-1100084D02*
X2353496Y-1100084D01*
X2353496Y-1100084D02*
X2372544Y-1109608D01*
X2372544Y-1109608D02*
X2382068Y-1119131D01*
X2382068Y-1119131D02*
X2391591Y-1138179D01*
X2391591Y-1138179D02*
X2401115Y-1176274D01*
X2401115Y-1176274D02*
X2401115Y-1223893D01*
X2401115Y-1223893D02*
X2391591Y-1261989D01*
X2391591Y-1261989D02*
X2382068Y-1281036D01*
X2382068Y-1281036D02*
X2372544Y-1290560D01*
X2372544Y-1290560D02*
X2353496Y-1300084D01*
X2353496Y-1300084D02*
X2334448Y-1300084D01*
X2334448Y-1300084D02*
X2315401Y-1290560D01*
X2315401Y-1290560D02*
X2305877Y-1281036D01*
X2305877Y-1281036D02*
X2296353Y-1261989D01*
X2296353Y-1261989D02*
X2286829Y-1223893D01*
X2286829Y-1223893D02*
X2286829Y-1176274D01*
X2286829Y-1176274D02*
X2296353Y-1138179D01*
X2296353Y-1138179D02*
X2305877Y-1119131D01*
X2305877Y-1119131D02*
X2315401Y-1109608D01*
X2315401Y-1109608D02*
X2334448Y-1100084D01*
X2496353Y-1300084D02*
X2534448Y-1300084D01*
X2534448Y-1300084D02*
X2553496Y-1290560D01*
X2553496Y-1290560D02*
X2563020Y-1281036D01*
X2563020Y-1281036D02*
X2582068Y-1252465D01*
X2582068Y-1252465D02*
X2591591Y-1214370D01*
X2591591Y-1214370D02*
X2591591Y-1138179D01*
X2591591Y-1138179D02*
X2582068Y-1119131D01*
X2582068Y-1119131D02*
X2572544Y-1109608D01*
X2572544Y-1109608D02*
X2553496Y-1100084D01*
X2553496Y-1100084D02*
X2515401Y-1100084D01*
X2515401Y-1100084D02*
X2496353Y-1109608D01*
X2496353Y-1109608D02*
X2486829Y-1119131D01*
X2486829Y-1119131D02*
X2477306Y-1138179D01*
X2477306Y-1138179D02*
X2477306Y-1185798D01*
X2477306Y-1185798D02*
X2486829Y-1204846D01*
X2486829Y-1204846D02*
X2496353Y-1214370D01*
X2496353Y-1214370D02*
X2515401Y-1223893D01*
X2515401Y-1223893D02*
X2553496Y-1223893D01*
X2553496Y-1223893D02*
X2572544Y-1214370D01*
X2572544Y-1214370D02*
X2582068Y-1204846D01*
X2582068Y-1204846D02*
X2591591Y-1185798D01*
X2705877Y-1185798D02*
X2686829Y-1176274D01*
X2686829Y-1176274D02*
X2677306Y-1166750D01*
X2677306Y-1166750D02*
X2667782Y-1147703D01*
X2667782Y-1147703D02*
X2667782Y-1138179D01*
X2667782Y-1138179D02*
X2677306Y-1119131D01*
X2677306Y-1119131D02*
X2686829Y-1109608D01*
X2686829Y-1109608D02*
X2705877Y-1100084D01*
X2705877Y-1100084D02*
X2743972Y-1100084D01*
X2743972Y-1100084D02*
X2763020Y-1109608D01*
X2763020Y-1109608D02*
X2772544Y-1119131D01*
X2772544Y-1119131D02*
X2782068Y-1138179D01*
X2782068Y-1138179D02*
X2782068Y-1147703D01*
X2782068Y-1147703D02*
X2772544Y-1166750D01*
X2772544Y-1166750D02*
X2763020Y-1176274D01*
X2763020Y-1176274D02*
X2743972Y-1185798D01*
X2743972Y-1185798D02*
X2705877Y-1185798D01*
X2705877Y-1185798D02*
X2686829Y-1195322D01*
X2686829Y-1195322D02*
X2677306Y-1204846D01*
X2677306Y-1204846D02*
X2667782Y-1223893D01*
X2667782Y-1223893D02*
X2667782Y-1261989D01*
X2667782Y-1261989D02*
X2677306Y-1281036D01*
X2677306Y-1281036D02*
X2686829Y-1290560D01*
X2686829Y-1290560D02*
X2705877Y-1300084D01*
X2705877Y-1300084D02*
X2743972Y-1300084D01*
X2743972Y-1300084D02*
X2763020Y-1290560D01*
X2763020Y-1290560D02*
X2772544Y-1281036D01*
X2772544Y-1281036D02*
X2782068Y-1261989D01*
X2782068Y-1261989D02*
X2782068Y-1223893D01*
X2782068Y-1223893D02*
X2772544Y-1204846D01*
X2772544Y-1204846D02*
X2763020Y-1195322D01*
X2763020Y-1195322D02*
X2743972Y-1185798D01*
X2953496Y-1166750D02*
X2953496Y-1300084D01*
X2905877Y-1090560D02*
X2858258Y-1233417D01*
X2858258Y-1233417D02*
X2982067Y-1233417D01*
X3048734Y-1100084D02*
X3048734Y-1138179D01*
X3124925Y-1100084D02*
X3124925Y-1138179D01*
X3420163Y-1376274D02*
X3410639Y-1366750D01*
X3410639Y-1366750D02*
X3391591Y-1338179D01*
X3391591Y-1338179D02*
X3382068Y-1319131D01*
X3382068Y-1319131D02*
X3372544Y-1290560D01*
X3372544Y-1290560D02*
X3363020Y-1242941D01*
X3363020Y-1242941D02*
X3363020Y-1204846D01*
X3363020Y-1204846D02*
X3372544Y-1157227D01*
X3372544Y-1157227D02*
X3382068Y-1128655D01*
X3382068Y-1128655D02*
X3391591Y-1109608D01*
X3391591Y-1109608D02*
X3410639Y-1081036D01*
X3410639Y-1081036D02*
X3420163Y-1071512D01*
X3486829Y-1119131D02*
X3496353Y-1109608D01*
X3496353Y-1109608D02*
X3515401Y-1100084D01*
X3515401Y-1100084D02*
X3563020Y-1100084D01*
X3563020Y-1100084D02*
X3582068Y-1109608D01*
X3582068Y-1109608D02*
X3591591Y-1119131D01*
X3591591Y-1119131D02*
X3601115Y-1138179D01*
X3601115Y-1138179D02*
X3601115Y-1157227D01*
X3601115Y-1157227D02*
X3591591Y-1185798D01*
X3591591Y-1185798D02*
X3477306Y-1300084D01*
X3477306Y-1300084D02*
X3601115Y-1300084D01*
X3839210Y-1300084D02*
X3839210Y-1100084D01*
X3924925Y-1300084D02*
X3924925Y-1195322D01*
X3924925Y-1195322D02*
X3915401Y-1176274D01*
X3915401Y-1176274D02*
X3896353Y-1166750D01*
X3896353Y-1166750D02*
X3867782Y-1166750D01*
X3867782Y-1166750D02*
X3848734Y-1176274D01*
X3848734Y-1176274D02*
X3839210Y-1185798D01*
X4048734Y-1300084D02*
X4029687Y-1290560D01*
X4029687Y-1290560D02*
X4020163Y-1281036D01*
X4020163Y-1281036D02*
X4010639Y-1261989D01*
X4010639Y-1261989D02*
X4010639Y-1204846D01*
X4010639Y-1204846D02*
X4020163Y-1185798D01*
X4020163Y-1185798D02*
X4029687Y-1176274D01*
X4029687Y-1176274D02*
X4048734Y-1166750D01*
X4048734Y-1166750D02*
X4077306Y-1166750D01*
X4077306Y-1166750D02*
X4096353Y-1176274D01*
X4096353Y-1176274D02*
X4105877Y-1185798D01*
X4105877Y-1185798D02*
X4115401Y-1204846D01*
X4115401Y-1204846D02*
X4115401Y-1261989D01*
X4115401Y-1261989D02*
X4105877Y-1281036D01*
X4105877Y-1281036D02*
X4096353Y-1290560D01*
X4096353Y-1290560D02*
X4077306Y-1300084D01*
X4077306Y-1300084D02*
X4048734Y-1300084D01*
X4229687Y-1300084D02*
X4210639Y-1290560D01*
X4210639Y-1290560D02*
X4201115Y-1271512D01*
X4201115Y-1271512D02*
X4201115Y-1100084D01*
X4382068Y-1290560D02*
X4363020Y-1300084D01*
X4363020Y-1300084D02*
X4324925Y-1300084D01*
X4324925Y-1300084D02*
X4305877Y-1290560D01*
X4305877Y-1290560D02*
X4296353Y-1271512D01*
X4296353Y-1271512D02*
X4296353Y-1195322D01*
X4296353Y-1195322D02*
X4305877Y-1176274D01*
X4305877Y-1176274D02*
X4324925Y-1166750D01*
X4324925Y-1166750D02*
X4363020Y-1166750D01*
X4363020Y-1166750D02*
X4382068Y-1176274D01*
X4382068Y-1176274D02*
X4391592Y-1195322D01*
X4391592Y-1195322D02*
X4391592Y-1214370D01*
X4391592Y-1214370D02*
X4296353Y-1233417D01*
X4467782Y-1290560D02*
X4486830Y-1300084D01*
X4486830Y-1300084D02*
X4524925Y-1300084D01*
X4524925Y-1300084D02*
X4543973Y-1290560D01*
X4543973Y-1290560D02*
X4553496Y-1271512D01*
X4553496Y-1271512D02*
X4553496Y-1261989D01*
X4553496Y-1261989D02*
X4543973Y-1242941D01*
X4543973Y-1242941D02*
X4524925Y-1233417D01*
X4524925Y-1233417D02*
X4496353Y-1233417D01*
X4496353Y-1233417D02*
X4477306Y-1223893D01*
X4477306Y-1223893D02*
X4467782Y-1204846D01*
X4467782Y-1204846D02*
X4467782Y-1195322D01*
X4467782Y-1195322D02*
X4477306Y-1176274D01*
X4477306Y-1176274D02*
X4496353Y-1166750D01*
X4496353Y-1166750D02*
X4524925Y-1166750D01*
X4524925Y-1166750D02*
X4543973Y-1176274D01*
X4620163Y-1376274D02*
X4629687Y-1366750D01*
X4629687Y-1366750D02*
X4648734Y-1338179D01*
X4648734Y-1338179D02*
X4658258Y-1319131D01*
X4658258Y-1319131D02*
X4667782Y-1290560D01*
X4667782Y-1290560D02*
X4677306Y-1242941D01*
X4677306Y-1242941D02*
X4677306Y-1204846D01*
X4677306Y-1204846D02*
X4667782Y-1157227D01*
X4667782Y-1157227D02*
X4658258Y-1128655D01*
X4658258Y-1128655D02*
X4648734Y-1109608D01*
X4648734Y-1109608D02*
X4629687Y-1081036D01*
X4629687Y-1081036D02*
X4620163Y-1071512D01*
M02*
