%TF.GenerationSoftware,KiCad,Pcbnew,10.99.0-3758-g2f18d95be7*%
%TF.CreationDate,2026-09-25T21:22:49+01:00*%
%TF.ProjectId,kicad_file,6b696361-645f-4666-996c-652e6b696361,rev?*%
%TF.SameCoordinates,Original*%
%TF.FileFunction,Legend,Top*%
%TF.FilePolarity,Positive*%
%FSLAX46Y46*%
G04 Gerber Fmt 4.6, Leading zero omitted, Abs format (unit mm)*
G04 Created by KiCad (PCBNEW 10.99.0-3758-g2f18d95be7) date 2026-09-25 21:22:49*
%MOMM*%
%LPD*%
G01*
G04 APERTURE LIST*
G04 Aperture macros list*
%AMRoundRect*
0 Rectangle with rounded corners*
0 $1 Rounding radius*
0 $2 $3 $4 $5 $6 $7 $8 $9 X,Y pos of 4 corners*
0 Add a 4 corners polygon primitive as box body*
4,1,4,$2,$3,$4,$5,$6,$7,$8,$9,$2,$3,0*
0 Add four circle primitives for the rounded corners*
1,1,$1+$1,$2,$3*
1,1,$1+$1,$4,$5*
1,1,$1+$1,$6,$7*
1,1,$1+$1,$8,$9*
0 Add four rect primitives between the rounded corners*
20,1,$1+$1,$2,$3,$4,$5,0*
20,1,$1+$1,$4,$5,$6,$7,0*
20,1,$1+$1,$6,$7,$8,$9,0*
20,1,$1+$1,$8,$9,$2,$3,0*%
G04 Aperture macros list end*
%ADD10C,0.140970*%
%ADD11C,0.152400*%
%ADD12C,0.190500*%
%ADD13C,0.119969*%
%ADD14C,0.053320*%
%ADD15C,0.130861*%
%ADD16C,0.074778*%
%ADD17C,0.064374*%
%ADD18C,0.304800*%
%ADD19C,0.203200*%
%ADD20C,0.127000*%
%ADD21C,0.000000*%
%ADD22C,0.469900*%
%ADD23RoundRect,0.050800X0.537500X0.500000X-0.537500X0.500000X-0.537500X-0.500000X0.537500X-0.500000X0*%
%ADD24RoundRect,0.050800X-0.537500X-0.500000X0.537500X-0.500000X0.537500X0.500000X-0.537500X0.500000X0*%
%ADD25RoundRect,0.050800X-0.400000X-0.400000X0.400000X-0.400000X0.400000X0.400000X-0.400000X0.400000X0*%
%ADD26RoundRect,0.050800X-0.750000X0.620000X-0.750000X-0.620000X0.750000X-0.620000X0.750000X0.620000X0*%
%ADD27C,1.508000*%
%ADD28RoundRect,0.050800X0.550000X-0.750000X0.550000X0.750000X-0.550000X0.750000X-0.550000X-0.750000X0*%
%ADD29RoundRect,0.050800X0.875000X0.500000X-0.875000X0.500000X-0.875000X-0.500000X0.875000X-0.500000X0*%
%ADD30RoundRect,0.550800X0.000010X-0.000010X0.000010X0.000010X-0.000010X0.000010X-0.000010X-0.000010X0*%
%ADD31RoundRect,0.050800X0.450000X0.375000X-0.450000X0.375000X-0.450000X-0.375000X0.450000X-0.375000X0*%
%ADD32C,3.301600*%
%ADD33RoundRect,0.050800X0.775000X0.250000X-0.775000X0.250000X-0.775000X-0.250000X0.775000X-0.250000X0*%
%ADD34RoundRect,0.050800X0.900000X0.600000X-0.900000X0.600000X-0.900000X-0.600000X0.900000X-0.600000X0*%
%ADD35RoundRect,0.050800X-0.600000X0.275000X-0.600000X-0.275000X0.600000X-0.275000X0.600000X0.275000X0*%
%ADD36RoundRect,0.050800X-0.550000X0.750000X-0.550000X-0.750000X0.550000X-0.750000X0.550000X0.750000X0*%
%ADD37RoundRect,0.050800X-0.875000X-0.500000X0.875000X-0.500000X0.875000X0.500000X-0.875000X0.500000X0*%
%ADD38RoundRect,0.050800X0.250000X-0.250000X0.250000X0.250000X-0.250000X0.250000X-0.250000X-0.250000X0*%
%ADD39RoundRect,0.050800X0.450000X0.400000X-0.450000X0.400000X-0.450000X-0.400000X0.450000X-0.400000X0*%
%ADD40RoundRect,0.050800X-0.100000X0.437500X-0.100000X-0.437500X0.100000X-0.437500X0.100000X0.437500X0*%
%ADD41RoundRect,0.050800X-0.437500X-0.100000X0.437500X-0.100000X0.437500X0.100000X-0.437500X0.100000X0*%
%ADD42RoundRect,0.050800X0.100000X-0.437500X0.100000X0.437500X-0.100000X0.437500X-0.100000X-0.437500X0*%
%ADD43RoundRect,0.050800X0.437500X0.100000X-0.437500X0.100000X-0.437500X-0.100000X0.437500X-0.100000X0*%
%ADD44RoundRect,0.210800X1.440000X-1.440000X1.440000X1.440000X-1.440000X1.440000X-1.440000X-1.440000X0*%
%ADD45RoundRect,0.550800X-0.000010X0.000010X-0.000010X-0.000010X0.000010X-0.000010X0.000010X0.000010X0*%
%ADD46RoundRect,0.050800X-3.750000X-0.750000X3.750000X-0.750000X3.750000X0.750000X-3.750000X0.750000X0*%
%ADD47RoundRect,0.050800X-3.250000X-0.500000X3.250000X-0.500000X3.250000X0.500000X-3.250000X0.500000X0*%
%ADD48RoundRect,0.050800X-0.500000X0.537500X-0.500000X-0.537500X0.500000X-0.537500X0.500000X0.537500X0*%
%ADD49RoundRect,0.050800X-0.225000X-0.450000X0.225000X-0.450000X0.225000X0.450000X-0.225000X0.450000X0*%
%ADD50RoundRect,0.050800X0.500000X-0.537500X0.500000X0.537500X-0.500000X0.537500X-0.500000X-0.537500X0*%
%ADD51RoundRect,0.050800X-0.300000X0.200000X-0.300000X-0.200000X0.300000X-0.200000X0.300000X0.200000X0*%
%ADD52RoundRect,0.050800X1.000000X1.500000X-1.000000X1.500000X-1.000000X-1.500000X1.000000X-1.500000X0*%
G04 APERTURE END LIST*
D10*
X16251373Y-5341288D02*
X16365491Y-5379328D01*
X16365491Y-5379328D02*
X16403531Y-5417367D01*
X16403531Y-5417367D02*
X16441570Y-5493446D01*
X16441570Y-5493446D02*
X16441570Y-5607565D01*
X16441570Y-5607565D02*
X16403531Y-5683644D01*
X16403531Y-5683644D02*
X16365491Y-5721684D01*
X16365491Y-5721684D02*
X16289412Y-5759723D01*
X16289412Y-5759723D02*
X15985096Y-5759723D01*
X15985096Y-5759723D02*
X15985096Y-4960893D01*
X15985096Y-4960893D02*
X16251373Y-4960893D01*
X16251373Y-4960893D02*
X16327452Y-4998933D01*
X16327452Y-4998933D02*
X16365491Y-5036972D01*
X16365491Y-5036972D02*
X16403531Y-5113051D01*
X16403531Y-5113051D02*
X16403531Y-5189130D01*
X16403531Y-5189130D02*
X16365491Y-5265209D01*
X16365491Y-5265209D02*
X16327452Y-5303249D01*
X16327452Y-5303249D02*
X16251373Y-5341288D01*
X16251373Y-5341288D02*
X15985096Y-5341288D01*
X16936084Y-4960893D02*
X17088242Y-4960893D01*
X17088242Y-4960893D02*
X17164321Y-4998933D01*
X17164321Y-4998933D02*
X17240400Y-5075012D01*
X17240400Y-5075012D02*
X17278440Y-5227170D01*
X17278440Y-5227170D02*
X17278440Y-5493446D01*
X17278440Y-5493446D02*
X17240400Y-5645604D01*
X17240400Y-5645604D02*
X17164321Y-5721684D01*
X17164321Y-5721684D02*
X17088242Y-5759723D01*
X17088242Y-5759723D02*
X16936084Y-5759723D01*
X16936084Y-5759723D02*
X16860005Y-5721684D01*
X16860005Y-5721684D02*
X16783926Y-5645604D01*
X16783926Y-5645604D02*
X16745887Y-5493446D01*
X16745887Y-5493446D02*
X16745887Y-5227170D01*
X16745887Y-5227170D02*
X16783926Y-5075012D01*
X16783926Y-5075012D02*
X16860005Y-4998933D01*
X16860005Y-4998933D02*
X16936084Y-4960893D01*
X17772954Y-4960893D02*
X17925112Y-4960893D01*
X17925112Y-4960893D02*
X18001191Y-4998933D01*
X18001191Y-4998933D02*
X18077270Y-5075012D01*
X18077270Y-5075012D02*
X18115310Y-5227170D01*
X18115310Y-5227170D02*
X18115310Y-5493446D01*
X18115310Y-5493446D02*
X18077270Y-5645604D01*
X18077270Y-5645604D02*
X18001191Y-5721684D01*
X18001191Y-5721684D02*
X17925112Y-5759723D01*
X17925112Y-5759723D02*
X17772954Y-5759723D01*
X17772954Y-5759723D02*
X17696875Y-5721684D01*
X17696875Y-5721684D02*
X17620796Y-5645604D01*
X17620796Y-5645604D02*
X17582757Y-5493446D01*
X17582757Y-5493446D02*
X17582757Y-5227170D01*
X17582757Y-5227170D02*
X17620796Y-5075012D01*
X17620796Y-5075012D02*
X17696875Y-4998933D01*
X17696875Y-4998933D02*
X17772954Y-4960893D01*
X18343548Y-4960893D02*
X18800022Y-4960893D01*
X18571785Y-5759723D02*
X18571785Y-4960893D01*
D11*
X16799076Y5120206D02*
X16511210Y5531444D01*
X16305591Y5120206D02*
X16305591Y5983806D01*
X16305591Y5983806D02*
X16634581Y5983806D01*
X16634581Y5983806D02*
X16716829Y5942682D01*
X16716829Y5942682D02*
X16757952Y5901558D01*
X16757952Y5901558D02*
X16799076Y5819310D01*
X16799076Y5819310D02*
X16799076Y5695939D01*
X16799076Y5695939D02*
X16757952Y5613691D01*
X16757952Y5613691D02*
X16716829Y5572568D01*
X16716829Y5572568D02*
X16634581Y5531444D01*
X16634581Y5531444D02*
X16305591Y5531444D01*
X17128067Y5161330D02*
X17251438Y5120206D01*
X17251438Y5120206D02*
X17457057Y5120206D01*
X17457057Y5120206D02*
X17539305Y5161330D01*
X17539305Y5161330D02*
X17580429Y5202453D01*
X17580429Y5202453D02*
X17621552Y5284701D01*
X17621552Y5284701D02*
X17621552Y5366949D01*
X17621552Y5366949D02*
X17580429Y5449196D01*
X17580429Y5449196D02*
X17539305Y5490320D01*
X17539305Y5490320D02*
X17457057Y5531444D01*
X17457057Y5531444D02*
X17292562Y5572568D01*
X17292562Y5572568D02*
X17210314Y5613691D01*
X17210314Y5613691D02*
X17169191Y5654815D01*
X17169191Y5654815D02*
X17128067Y5737063D01*
X17128067Y5737063D02*
X17128067Y5819310D01*
X17128067Y5819310D02*
X17169191Y5901558D01*
X17169191Y5901558D02*
X17210314Y5942682D01*
X17210314Y5942682D02*
X17292562Y5983806D01*
X17292562Y5983806D02*
X17498181Y5983806D01*
X17498181Y5983806D02*
X17621552Y5942682D01*
X17868295Y5983806D02*
X18361781Y5983806D01*
X18115038Y5120206D02*
X18115038Y5983806D01*
X20175462Y3481906D02*
X20175462Y4345506D01*
X20545576Y4263258D02*
X20586700Y4304382D01*
X20586700Y4304382D02*
X20668947Y4345506D01*
X20668947Y4345506D02*
X20874566Y4345506D01*
X20874566Y4345506D02*
X20956814Y4304382D01*
X20956814Y4304382D02*
X20997938Y4263258D01*
X20997938Y4263258D02*
X21039061Y4181010D01*
X21039061Y4181010D02*
X21039061Y4098763D01*
X21039061Y4098763D02*
X20997938Y3975391D01*
X20997938Y3975391D02*
X20504452Y3481906D01*
X20504452Y3481906D02*
X21039061Y3481906D01*
X21902661Y3564153D02*
X21861537Y3523030D01*
X21861537Y3523030D02*
X21738166Y3481906D01*
X21738166Y3481906D02*
X21655918Y3481906D01*
X21655918Y3481906D02*
X21532547Y3523030D01*
X21532547Y3523030D02*
X21450299Y3605277D01*
X21450299Y3605277D02*
X21409176Y3687525D01*
X21409176Y3687525D02*
X21368052Y3852020D01*
X21368052Y3852020D02*
X21368052Y3975391D01*
X21368052Y3975391D02*
X21409176Y4139887D01*
X21409176Y4139887D02*
X21450299Y4222134D01*
X21450299Y4222134D02*
X21532547Y4304382D01*
X21532547Y4304382D02*
X21655918Y4345506D01*
X21655918Y4345506D02*
X21738166Y4345506D01*
X21738166Y4345506D02*
X21861537Y4304382D01*
X21861537Y4304382D02*
X21902661Y4263258D01*
D12*
X-9999737Y4590508D02*
X-10359570Y5104555D01*
X-10616594Y4590508D02*
X-10616594Y5670008D01*
X-10616594Y5670008D02*
X-10205356Y5670008D01*
X-10205356Y5670008D02*
X-10102546Y5618603D01*
X-10102546Y5618603D02*
X-10051141Y5567198D01*
X-10051141Y5567198D02*
X-9999737Y5464389D01*
X-9999737Y5464389D02*
X-9999737Y5310174D01*
X-9999737Y5310174D02*
X-10051141Y5207365D01*
X-10051141Y5207365D02*
X-10102546Y5155960D01*
X-10102546Y5155960D02*
X-10205356Y5104555D01*
X-10205356Y5104555D02*
X-10616594Y5104555D01*
X-9537094Y4590508D02*
X-9537094Y5670008D01*
X-9537094Y5670008D02*
X-9125856Y5670008D01*
X-9125856Y5670008D02*
X-9023046Y5618603D01*
X-9023046Y5618603D02*
X-8971641Y5567198D01*
X-8971641Y5567198D02*
X-8920237Y5464389D01*
X-8920237Y5464389D02*
X-8920237Y5310174D01*
X-8920237Y5310174D02*
X-8971641Y5207365D01*
X-8971641Y5207365D02*
X-9023046Y5155960D01*
X-9023046Y5155960D02*
X-9125856Y5104555D01*
X-9125856Y5104555D02*
X-9537094Y5104555D01*
X-8508998Y5567198D02*
X-8457594Y5618603D01*
X-8457594Y5618603D02*
X-8354784Y5670008D01*
X-8354784Y5670008D02*
X-8097760Y5670008D01*
X-8097760Y5670008D02*
X-7994951Y5618603D01*
X-7994951Y5618603D02*
X-7943546Y5567198D01*
X-7943546Y5567198D02*
X-7892141Y5464389D01*
X-7892141Y5464389D02*
X-7892141Y5361579D01*
X-7892141Y5361579D02*
X-7943546Y5207365D01*
X-7943546Y5207365D02*
X-8560403Y4590508D01*
X-8560403Y4590508D02*
X-7892141Y4590508D01*
X-7223880Y5670008D02*
X-7121070Y5670008D01*
X-7121070Y5670008D02*
X-7018261Y5618603D01*
X-7018261Y5618603D02*
X-6966856Y5567198D01*
X-6966856Y5567198D02*
X-6915451Y5464389D01*
X-6915451Y5464389D02*
X-6864046Y5258770D01*
X-6864046Y5258770D02*
X-6864046Y5001746D01*
X-6864046Y5001746D02*
X-6915451Y4796127D01*
X-6915451Y4796127D02*
X-6966856Y4693317D01*
X-6966856Y4693317D02*
X-7018261Y4641913D01*
X-7018261Y4641913D02*
X-7121070Y4590508D01*
X-7121070Y4590508D02*
X-7223880Y4590508D01*
X-7223880Y4590508D02*
X-7326689Y4641913D01*
X-7326689Y4641913D02*
X-7378094Y4693317D01*
X-7378094Y4693317D02*
X-7429499Y4796127D01*
X-7429499Y4796127D02*
X-7480903Y5001746D01*
X-7480903Y5001746D02*
X-7480903Y5258770D01*
X-7480903Y5258770D02*
X-7429499Y5464389D01*
X-7429499Y5464389D02*
X-7378094Y5567198D01*
X-7378094Y5567198D02*
X-7326689Y5618603D01*
X-7326689Y5618603D02*
X-7223880Y5670008D01*
X-5938761Y5310174D02*
X-5938761Y4590508D01*
X-6195785Y5721413D02*
X-6452808Y4950341D01*
X-6452808Y4950341D02*
X-5784547Y4950341D01*
X-5167690Y5670008D02*
X-5064880Y5670008D01*
X-5064880Y5670008D02*
X-4962071Y5618603D01*
X-4962071Y5618603D02*
X-4910666Y5567198D01*
X-4910666Y5567198D02*
X-4859261Y5464389D01*
X-4859261Y5464389D02*
X-4807856Y5258770D01*
X-4807856Y5258770D02*
X-4807856Y5001746D01*
X-4807856Y5001746D02*
X-4859261Y4796127D01*
X-4859261Y4796127D02*
X-4910666Y4693317D01*
X-4910666Y4693317D02*
X-4962071Y4641913D01*
X-4962071Y4641913D02*
X-5064880Y4590508D01*
X-5064880Y4590508D02*
X-5167690Y4590508D01*
X-5167690Y4590508D02*
X-5270499Y4641913D01*
X-5270499Y4641913D02*
X-5321904Y4693317D01*
X-5321904Y4693317D02*
X-5373309Y4796127D01*
X-5373309Y4796127D02*
X-5424713Y5001746D01*
X-5424713Y5001746D02*
X-5424713Y5258770D01*
X-5424713Y5258770D02*
X-5373309Y5464389D01*
X-5373309Y5464389D02*
X-5321904Y5567198D01*
X-5321904Y5567198D02*
X-5270499Y5618603D01*
X-5270499Y5618603D02*
X-5167690Y5670008D01*
X-2803071Y4487698D02*
X-2905881Y4539103D01*
X-2905881Y4539103D02*
X-3008690Y4641913D01*
X-3008690Y4641913D02*
X-3162904Y4796127D01*
X-3162904Y4796127D02*
X-3265714Y4847532D01*
X-3265714Y4847532D02*
X-3368523Y4847532D01*
X-3317119Y4590508D02*
X-3419928Y4641913D01*
X-3419928Y4641913D02*
X-3522738Y4744722D01*
X-3522738Y4744722D02*
X-3574142Y4950341D01*
X-3574142Y4950341D02*
X-3574142Y5310174D01*
X-3574142Y5310174D02*
X-3522738Y5515793D01*
X-3522738Y5515793D02*
X-3419928Y5618603D01*
X-3419928Y5618603D02*
X-3317119Y5670008D01*
X-3317119Y5670008D02*
X-3111500Y5670008D01*
X-3111500Y5670008D02*
X-3008690Y5618603D01*
X-3008690Y5618603D02*
X-2905881Y5515793D01*
X-2905881Y5515793D02*
X-2854476Y5310174D01*
X-2854476Y5310174D02*
X-2854476Y4950341D01*
X-2854476Y4950341D02*
X-2905881Y4744722D01*
X-2905881Y4744722D02*
X-3008690Y4641913D01*
X-3008690Y4641913D02*
X-3111500Y4590508D01*
X-3111500Y4590508D02*
X-3317119Y4590508D01*
X-2546047Y5670008D02*
X-1929190Y5670008D01*
X-2237618Y4590508D02*
X-2237618Y5670008D01*
X-9048749Y-4489991D02*
X-8431892Y-4489991D01*
X-8740320Y-5569491D02*
X-8740320Y-4489991D01*
X-8072059Y-5569491D02*
X-8072059Y-4849825D01*
X-8072059Y-5055444D02*
X-8020654Y-4952634D01*
X-8020654Y-4952634D02*
X-7969249Y-4901229D01*
X-7969249Y-4901229D02*
X-7866440Y-4849825D01*
X-7866440Y-4849825D02*
X-7763630Y-4849825D01*
X-7403797Y-5569491D02*
X-7403797Y-4849825D01*
X-7403797Y-4489991D02*
X-7455201Y-4541396D01*
X-7455201Y-4541396D02*
X-7403797Y-4592801D01*
X-7403797Y-4592801D02*
X-7352392Y-4541396D01*
X-7352392Y-4541396D02*
X-7403797Y-4489991D01*
X-7403797Y-4489991D02*
X-7403797Y-4592801D01*
X-6889749Y-4849825D02*
X-6889749Y-5569491D01*
X-6889749Y-4952634D02*
X-6838344Y-4901229D01*
X-6838344Y-4901229D02*
X-6735534Y-4849825D01*
X-6735534Y-4849825D02*
X-6581320Y-4849825D01*
X-6581320Y-4849825D02*
X-6478511Y-4901229D01*
X-6478511Y-4901229D02*
X-6427106Y-5004039D01*
X-6427106Y-5004039D02*
X-6427106Y-5569491D01*
X-5913059Y-5569491D02*
X-5913059Y-4489991D01*
X-5810249Y-5158253D02*
X-5501821Y-5569491D01*
X-5501821Y-4849825D02*
X-5913059Y-5261063D01*
X-4627940Y-5518087D02*
X-4730749Y-5569491D01*
X-4730749Y-5569491D02*
X-4936368Y-5569491D01*
X-4936368Y-5569491D02*
X-5039178Y-5518087D01*
X-5039178Y-5518087D02*
X-5090582Y-5415277D01*
X-5090582Y-5415277D02*
X-5090582Y-5004039D01*
X-5090582Y-5004039D02*
X-5039178Y-4901229D01*
X-5039178Y-4901229D02*
X-4936368Y-4849825D01*
X-4936368Y-4849825D02*
X-4730749Y-4849825D01*
X-4730749Y-4849825D02*
X-4627940Y-4901229D01*
X-4627940Y-4901229D02*
X-4576535Y-5004039D01*
X-4576535Y-5004039D02*
X-4576535Y-5106848D01*
X-4576535Y-5106848D02*
X-5090582Y-5209658D01*
X-4216701Y-4849825D02*
X-3959677Y-5569491D01*
X-3702654Y-4849825D02*
X-3959677Y-5569491D01*
X-3959677Y-5569491D02*
X-4062487Y-5826515D01*
X-4062487Y-5826515D02*
X-4113892Y-5877920D01*
X-4113892Y-5877920D02*
X-4216701Y-5929325D01*
D13*
X14051767Y-338583D02*
X13820823Y-8664D01*
X13655863Y-338583D02*
X13655863Y354247D01*
X13655863Y354247D02*
X13919799Y354247D01*
X13919799Y354247D02*
X13985783Y321255D01*
X13985783Y321255D02*
X14018775Y288263D01*
X14018775Y288263D02*
X14051767Y222279D01*
X14051767Y222279D02*
X14051767Y123303D01*
X14051767Y123303D02*
X14018775Y57319D01*
X14018775Y57319D02*
X13985783Y24327D01*
X13985783Y24327D02*
X13919799Y-8664D01*
X13919799Y-8664D02*
X13655863Y-8664D01*
X14645622Y354247D02*
X14513654Y354247D01*
X14513654Y354247D02*
X14447670Y321255D01*
X14447670Y321255D02*
X14414678Y288263D01*
X14414678Y288263D02*
X14348694Y189287D01*
X14348694Y189287D02*
X14315702Y57319D01*
X14315702Y57319D02*
X14315702Y-206616D01*
X14315702Y-206616D02*
X14348694Y-272600D01*
X14348694Y-272600D02*
X14381686Y-305592D01*
X14381686Y-305592D02*
X14447670Y-338583D01*
X14447670Y-338583D02*
X14579638Y-338583D01*
X14579638Y-338583D02*
X14645622Y-305592D01*
X14645622Y-305592D02*
X14678614Y-272600D01*
X14678614Y-272600D02*
X14711606Y-206616D01*
X14711606Y-206616D02*
X14711606Y-41656D01*
X14711606Y-41656D02*
X14678614Y24327D01*
X14678614Y24327D02*
X14645622Y57319D01*
X14645622Y57319D02*
X14579638Y90311D01*
X14579638Y90311D02*
X14447670Y90311D01*
X14447670Y90311D02*
X14381686Y57319D01*
X14381686Y57319D02*
X14348694Y24327D01*
X14348694Y24327D02*
X14315702Y-41656D01*
X4068789Y1932528D02*
X3837845Y2262447D01*
X3672885Y1932528D02*
X3672885Y2625359D01*
X3672885Y2625359D02*
X3936821Y2625359D01*
X3936821Y2625359D02*
X4002805Y2592367D01*
X4002805Y2592367D02*
X4035797Y2559375D01*
X4035797Y2559375D02*
X4068789Y2493391D01*
X4068789Y2493391D02*
X4068789Y2394415D01*
X4068789Y2394415D02*
X4035797Y2328431D01*
X4035797Y2328431D02*
X4002805Y2295439D01*
X4002805Y2295439D02*
X3936821Y2262447D01*
X3936821Y2262447D02*
X3672885Y2262447D01*
X4728628Y1932528D02*
X4332724Y1932528D01*
X4530676Y1932528D02*
X4530676Y2625359D01*
X4530676Y2625359D02*
X4464692Y2526383D01*
X4464692Y2526383D02*
X4398708Y2460399D01*
X4398708Y2460399D02*
X4332724Y2427407D01*
X5355475Y2625359D02*
X5025555Y2625359D01*
X5025555Y2625359D02*
X4992563Y2295439D01*
X4992563Y2295439D02*
X5025555Y2328431D01*
X5025555Y2328431D02*
X5091539Y2361423D01*
X5091539Y2361423D02*
X5256499Y2361423D01*
X5256499Y2361423D02*
X5322483Y2328431D01*
X5322483Y2328431D02*
X5355475Y2295439D01*
X5355475Y2295439D02*
X5388467Y2229455D01*
X5388467Y2229455D02*
X5388467Y2064495D01*
X5388467Y2064495D02*
X5355475Y1998511D01*
X5355475Y1998511D02*
X5322483Y1965520D01*
X5322483Y1965520D02*
X5256499Y1932528D01*
X5256499Y1932528D02*
X5091539Y1932528D01*
X5091539Y1932528D02*
X5025555Y1965520D01*
X5025555Y1965520D02*
X4992563Y1998511D01*
X6989789Y1871511D02*
X6956797Y1838520D01*
X6956797Y1838520D02*
X6857821Y1805528D01*
X6857821Y1805528D02*
X6791837Y1805528D01*
X6791837Y1805528D02*
X6692861Y1838520D01*
X6692861Y1838520D02*
X6626877Y1904503D01*
X6626877Y1904503D02*
X6593885Y1970487D01*
X6593885Y1970487D02*
X6560893Y2102455D01*
X6560893Y2102455D02*
X6560893Y2201431D01*
X6560893Y2201431D02*
X6593885Y2333399D01*
X6593885Y2333399D02*
X6626877Y2399383D01*
X6626877Y2399383D02*
X6692861Y2465367D01*
X6692861Y2465367D02*
X6791837Y2498359D01*
X6791837Y2498359D02*
X6857821Y2498359D01*
X6857821Y2498359D02*
X6956797Y2465367D01*
X6956797Y2465367D02*
X6989789Y2432375D01*
X7220732Y2498359D02*
X7682620Y2498359D01*
X7682620Y2498359D02*
X7385692Y1805528D01*
X16133789Y-4099971D02*
X15902845Y-3770052D01*
X15737885Y-4099971D02*
X15737885Y-3407140D01*
X15737885Y-3407140D02*
X16001821Y-3407140D01*
X16001821Y-3407140D02*
X16067805Y-3440132D01*
X16067805Y-3440132D02*
X16100797Y-3473124D01*
X16100797Y-3473124D02*
X16133789Y-3539108D01*
X16133789Y-3539108D02*
X16133789Y-3638084D01*
X16133789Y-3638084D02*
X16100797Y-3704068D01*
X16100797Y-3704068D02*
X16067805Y-3737060D01*
X16067805Y-3737060D02*
X16001821Y-3770052D01*
X16001821Y-3770052D02*
X15737885Y-3770052D01*
X16793628Y-4099971D02*
X16397724Y-4099971D01*
X16595676Y-4099971D02*
X16595676Y-3407140D01*
X16595676Y-3407140D02*
X16529692Y-3506116D01*
X16529692Y-3506116D02*
X16463708Y-3572100D01*
X16463708Y-3572100D02*
X16397724Y-3605092D01*
X17387483Y-3407140D02*
X17255515Y-3407140D01*
X17255515Y-3407140D02*
X17189531Y-3440132D01*
X17189531Y-3440132D02*
X17156539Y-3473124D01*
X17156539Y-3473124D02*
X17090555Y-3572100D01*
X17090555Y-3572100D02*
X17057563Y-3704068D01*
X17057563Y-3704068D02*
X17057563Y-3968004D01*
X17057563Y-3968004D02*
X17090555Y-4033988D01*
X17090555Y-4033988D02*
X17123547Y-4066980D01*
X17123547Y-4066980D02*
X17189531Y-4099971D01*
X17189531Y-4099971D02*
X17321499Y-4099971D01*
X17321499Y-4099971D02*
X17387483Y-4066980D01*
X17387483Y-4066980D02*
X17420475Y-4033988D01*
X17420475Y-4033988D02*
X17453467Y-3968004D01*
X17453467Y-3968004D02*
X17453467Y-3803044D01*
X17453467Y-3803044D02*
X17420475Y-3737060D01*
X17420475Y-3737060D02*
X17387483Y-3704068D01*
X17387483Y-3704068D02*
X17321499Y-3671076D01*
X17321499Y-3671076D02*
X17189531Y-3671076D01*
X17189531Y-3671076D02*
X17123547Y-3704068D01*
X17123547Y-3704068D02*
X17090555Y-3737060D01*
X17090555Y-3737060D02*
X17057563Y-3803044D01*
D14*
X13727065Y-7120283D02*
X13772907Y-7166125D01*
X13772907Y-7166125D02*
X13818748Y-7303651D01*
X13818748Y-7303651D02*
X13818748Y-7395335D01*
X13818748Y-7395335D02*
X13772907Y-7532860D01*
X13772907Y-7532860D02*
X13681223Y-7624544D01*
X13681223Y-7624544D02*
X13589539Y-7670386D01*
X13589539Y-7670386D02*
X13406171Y-7716228D01*
X13406171Y-7716228D02*
X13268646Y-7716228D01*
X13268646Y-7716228D02*
X13085278Y-7670386D01*
X13085278Y-7670386D02*
X12993594Y-7624544D01*
X12993594Y-7624544D02*
X12901910Y-7532860D01*
X12901910Y-7532860D02*
X12856068Y-7395335D01*
X12856068Y-7395335D02*
X12856068Y-7303651D01*
X12856068Y-7303651D02*
X12901910Y-7166125D01*
X12901910Y-7166125D02*
X12947752Y-7120283D01*
X13268646Y-6570180D02*
X13222804Y-6661864D01*
X13222804Y-6661864D02*
X13176962Y-6707706D01*
X13176962Y-6707706D02*
X13085278Y-6753548D01*
X13085278Y-6753548D02*
X13039436Y-6753548D01*
X13039436Y-6753548D02*
X12947752Y-6707706D01*
X12947752Y-6707706D02*
X12901910Y-6661864D01*
X12901910Y-6661864D02*
X12856068Y-6570180D01*
X12856068Y-6570180D02*
X12856068Y-6386813D01*
X12856068Y-6386813D02*
X12901910Y-6295129D01*
X12901910Y-6295129D02*
X12947752Y-6249287D01*
X12947752Y-6249287D02*
X13039436Y-6203445D01*
X13039436Y-6203445D02*
X13085278Y-6203445D01*
X13085278Y-6203445D02*
X13176962Y-6249287D01*
X13176962Y-6249287D02*
X13222804Y-6295129D01*
X13222804Y-6295129D02*
X13268646Y-6386813D01*
X13268646Y-6386813D02*
X13268646Y-6570180D01*
X13268646Y-6570180D02*
X13314487Y-6661864D01*
X13314487Y-6661864D02*
X13360329Y-6707706D01*
X13360329Y-6707706D02*
X13452013Y-6753548D01*
X13452013Y-6753548D02*
X13635381Y-6753548D01*
X13635381Y-6753548D02*
X13727065Y-6707706D01*
X13727065Y-6707706D02*
X13772907Y-6661864D01*
X13772907Y-6661864D02*
X13818748Y-6570180D01*
X13818748Y-6570180D02*
X13818748Y-6386813D01*
X13818748Y-6386813D02*
X13772907Y-6295129D01*
X13772907Y-6295129D02*
X13727065Y-6249287D01*
X13727065Y-6249287D02*
X13635381Y-6203445D01*
X13635381Y-6203445D02*
X13452013Y-6203445D01*
X13452013Y-6203445D02*
X13360329Y-6249287D01*
X13360329Y-6249287D02*
X13314487Y-6295129D01*
X13314487Y-6295129D02*
X13268646Y-6386813D01*
D15*
X13350332Y-4739682D02*
X13585638Y-4818117D01*
X13585638Y-4818117D02*
X13977814Y-4818117D01*
X13977814Y-4818117D02*
X14134684Y-4739682D01*
X14134684Y-4739682D02*
X14213119Y-4661246D01*
X14213119Y-4661246D02*
X14291555Y-4504376D01*
X14291555Y-4504376D02*
X14291555Y-4347506D01*
X14291555Y-4347506D02*
X14213119Y-4190635D01*
X14213119Y-4190635D02*
X14134684Y-4112200D01*
X14134684Y-4112200D02*
X13977814Y-4033765D01*
X13977814Y-4033765D02*
X13664073Y-3955330D01*
X13664073Y-3955330D02*
X13507203Y-3876894D01*
X13507203Y-3876894D02*
X13428767Y-3798459D01*
X13428767Y-3798459D02*
X13350332Y-3641589D01*
X13350332Y-3641589D02*
X13350332Y-3484718D01*
X13350332Y-3484718D02*
X13428767Y-3327848D01*
X13428767Y-3327848D02*
X13507203Y-3249413D01*
X13507203Y-3249413D02*
X13664073Y-3170978D01*
X13664073Y-3170978D02*
X14056249Y-3170978D01*
X14056249Y-3170978D02*
X14291555Y-3249413D01*
X14840601Y-3170978D02*
X15232777Y-4818117D01*
X15232777Y-4818117D02*
X15546518Y-3641589D01*
X15546518Y-3641589D02*
X15860259Y-4818117D01*
X15860259Y-4818117D02*
X16252435Y-3170978D01*
X16723046Y-3170978D02*
X17742704Y-3170978D01*
X17742704Y-3170978D02*
X17193657Y-3798459D01*
X17193657Y-3798459D02*
X17428963Y-3798459D01*
X17428963Y-3798459D02*
X17585833Y-3876894D01*
X17585833Y-3876894D02*
X17664268Y-3955330D01*
X17664268Y-3955330D02*
X17742704Y-4112200D01*
X17742704Y-4112200D02*
X17742704Y-4504376D01*
X17742704Y-4504376D02*
X17664268Y-4661246D01*
X17664268Y-4661246D02*
X17585833Y-4739682D01*
X17585833Y-4739682D02*
X17428963Y-4818117D01*
X17428963Y-4818117D02*
X16958352Y-4818117D01*
X16958352Y-4818117D02*
X16801481Y-4739682D01*
X16801481Y-4739682D02*
X16723046Y-4661246D01*
D13*
X4336828Y4997899D02*
X4303836Y4964908D01*
X4303836Y4964908D02*
X4204860Y4931916D01*
X4204860Y4931916D02*
X4138876Y4931916D01*
X4138876Y4931916D02*
X4039900Y4964908D01*
X4039900Y4964908D02*
X3973916Y5030891D01*
X3973916Y5030891D02*
X3940924Y5096875D01*
X3940924Y5096875D02*
X3907932Y5228843D01*
X3907932Y5228843D02*
X3907932Y5327819D01*
X3907932Y5327819D02*
X3940924Y5459787D01*
X3940924Y5459787D02*
X3973916Y5525771D01*
X3973916Y5525771D02*
X4039900Y5591755D01*
X4039900Y5591755D02*
X4138876Y5624747D01*
X4138876Y5624747D02*
X4204860Y5624747D01*
X4204860Y5624747D02*
X4303836Y5591755D01*
X4303836Y5591755D02*
X4336828Y5558763D01*
X4996667Y4931916D02*
X4600763Y4931916D01*
X4798715Y4931916D02*
X4798715Y5624747D01*
X4798715Y5624747D02*
X4732731Y5525771D01*
X4732731Y5525771D02*
X4666747Y5459787D01*
X4666747Y5459787D02*
X4600763Y5426795D01*
X5227610Y5624747D02*
X5656506Y5624747D01*
X5656506Y5624747D02*
X5425562Y5360811D01*
X5425562Y5360811D02*
X5524538Y5360811D01*
X5524538Y5360811D02*
X5590522Y5327819D01*
X5590522Y5327819D02*
X5623514Y5294827D01*
X5623514Y5294827D02*
X5656506Y5228843D01*
X5656506Y5228843D02*
X5656506Y5063883D01*
X5656506Y5063883D02*
X5623514Y4997899D01*
X5623514Y4997899D02*
X5590522Y4964908D01*
X5590522Y4964908D02*
X5524538Y4931916D01*
X5524538Y4931916D02*
X5326586Y4931916D01*
X5326586Y4931916D02*
X5260602Y4964908D01*
X5260602Y4964908D02*
X5227610Y4997899D01*
X17069807Y-3632164D02*
X17069807Y-3962083D01*
X16838863Y-3269252D02*
X17069807Y-3632164D01*
X17069807Y-3632164D02*
X17300751Y-3269252D01*
X17894606Y-3962083D02*
X17498702Y-3962083D01*
X17696654Y-3962083D02*
X17696654Y-3269252D01*
X17696654Y-3269252D02*
X17630670Y-3368228D01*
X17630670Y-3368228D02*
X17564686Y-3434212D01*
X17564686Y-3434212D02*
X17498702Y-3467204D01*
D16*
X19037283Y-3788862D02*
X19082104Y-3833682D01*
X19082104Y-3833682D02*
X19126924Y-3968142D01*
X19126924Y-3968142D02*
X19126924Y-4057782D01*
X19126924Y-4057782D02*
X19082104Y-4192243D01*
X19082104Y-4192243D02*
X18992463Y-4281883D01*
X18992463Y-4281883D02*
X18902823Y-4326703D01*
X18902823Y-4326703D02*
X18723543Y-4371523D01*
X18723543Y-4371523D02*
X18589082Y-4371523D01*
X18589082Y-4371523D02*
X18409802Y-4326703D01*
X18409802Y-4326703D02*
X18320162Y-4281883D01*
X18320162Y-4281883D02*
X18230522Y-4192243D01*
X18230522Y-4192243D02*
X18185702Y-4057782D01*
X18185702Y-4057782D02*
X18185702Y-3968142D01*
X18185702Y-3968142D02*
X18230522Y-3833682D01*
X18230522Y-3833682D02*
X18275342Y-3788862D01*
X18185702Y-3206201D02*
X18185702Y-3026920D01*
X18185702Y-3026920D02*
X18230522Y-2937280D01*
X18230522Y-2937280D02*
X18320162Y-2847640D01*
X18320162Y-2847640D02*
X18499442Y-2802820D01*
X18499442Y-2802820D02*
X18813183Y-2802820D01*
X18813183Y-2802820D02*
X18992463Y-2847640D01*
X18992463Y-2847640D02*
X19082104Y-2937280D01*
X19082104Y-2937280D02*
X19126924Y-3026920D01*
X19126924Y-3026920D02*
X19126924Y-3206201D01*
X19126924Y-3206201D02*
X19082104Y-3295841D01*
X19082104Y-3295841D02*
X18992463Y-3385481D01*
X18992463Y-3385481D02*
X18813183Y-3430301D01*
X18813183Y-3430301D02*
X18499442Y-3430301D01*
X18499442Y-3430301D02*
X18320162Y-3385481D01*
X18320162Y-3385481D02*
X18230522Y-3295841D01*
X18230522Y-3295841D02*
X18185702Y-3206201D01*
X19126924Y-2399439D02*
X18185702Y-2399439D01*
X18185702Y-2399439D02*
X19126924Y-1861598D01*
X19126924Y-1861598D02*
X18185702Y-1861598D01*
X19126924Y-1413397D02*
X18185702Y-1413397D01*
X18185702Y-1413397D02*
X19126924Y-875556D01*
X19126924Y-875556D02*
X18185702Y-875556D01*
X19126924Y65665D02*
X19126924Y-472175D01*
X19126924Y-203255D02*
X18185702Y-203255D01*
X18185702Y-203255D02*
X18320162Y-292895D01*
X18320162Y-292895D02*
X18409802Y-382535D01*
X18409802Y-382535D02*
X18454622Y-472175D01*
D13*
X8916752Y-10135628D02*
X9477616Y-10135628D01*
X9477616Y-10135628D02*
X9543600Y-10102636D01*
X9543600Y-10102636D02*
X9576592Y-10069644D01*
X9576592Y-10069644D02*
X9609583Y-10003660D01*
X9609583Y-10003660D02*
X9609583Y-9871692D01*
X9609583Y-9871692D02*
X9576592Y-9805708D01*
X9576592Y-9805708D02*
X9543600Y-9772716D01*
X9543600Y-9772716D02*
X9477616Y-9739724D01*
X9477616Y-9739724D02*
X8916752Y-9739724D01*
X9609583Y-9046893D02*
X9609583Y-9442797D01*
X9609583Y-9244845D02*
X8916752Y-9244845D01*
X8916752Y-9244845D02*
X9015728Y-9310829D01*
X9015728Y-9310829D02*
X9081712Y-9376813D01*
X9081712Y-9376813D02*
X9114704Y-9442797D01*
D15*
X16420295Y3386166D02*
X16655601Y3307730D01*
X16655601Y3307730D02*
X17047777Y3307730D01*
X17047777Y3307730D02*
X17204647Y3386166D01*
X17204647Y3386166D02*
X17283082Y3464601D01*
X17283082Y3464601D02*
X17361518Y3621471D01*
X17361518Y3621471D02*
X17361518Y3778341D01*
X17361518Y3778341D02*
X17283082Y3935212D01*
X17283082Y3935212D02*
X17204647Y4013647D01*
X17204647Y4013647D02*
X17047777Y4092082D01*
X17047777Y4092082D02*
X16734036Y4170517D01*
X16734036Y4170517D02*
X16577166Y4248953D01*
X16577166Y4248953D02*
X16498730Y4327388D01*
X16498730Y4327388D02*
X16420295Y4484258D01*
X16420295Y4484258D02*
X16420295Y4641129D01*
X16420295Y4641129D02*
X16498730Y4797999D01*
X16498730Y4797999D02*
X16577166Y4876434D01*
X16577166Y4876434D02*
X16734036Y4954869D01*
X16734036Y4954869D02*
X17126212Y4954869D01*
X17126212Y4954869D02*
X17361518Y4876434D01*
X17910564Y4954869D02*
X18302740Y3307730D01*
X18302740Y3307730D02*
X18616481Y4484258D01*
X18616481Y4484258D02*
X18930222Y3307730D01*
X18930222Y3307730D02*
X19322398Y4954869D01*
X19871444Y4797999D02*
X19949879Y4876434D01*
X19949879Y4876434D02*
X20106750Y4954869D01*
X20106750Y4954869D02*
X20498926Y4954869D01*
X20498926Y4954869D02*
X20655796Y4876434D01*
X20655796Y4876434D02*
X20734231Y4797999D01*
X20734231Y4797999D02*
X20812667Y4641129D01*
X20812667Y4641129D02*
X20812667Y4484258D01*
X20812667Y4484258D02*
X20734231Y4248953D01*
X20734231Y4248953D02*
X19793009Y3307730D01*
X19793009Y3307730D02*
X20812667Y3307730D01*
D13*
X7624789Y3776511D02*
X7591797Y3743520D01*
X7591797Y3743520D02*
X7492821Y3710528D01*
X7492821Y3710528D02*
X7426837Y3710528D01*
X7426837Y3710528D02*
X7327861Y3743520D01*
X7327861Y3743520D02*
X7261877Y3809503D01*
X7261877Y3809503D02*
X7228885Y3875487D01*
X7228885Y3875487D02*
X7195893Y4007455D01*
X7195893Y4007455D02*
X7195893Y4106431D01*
X7195893Y4106431D02*
X7228885Y4238399D01*
X7228885Y4238399D02*
X7261877Y4304383D01*
X7261877Y4304383D02*
X7327861Y4370367D01*
X7327861Y4370367D02*
X7426837Y4403359D01*
X7426837Y4403359D02*
X7492821Y4403359D01*
X7492821Y4403359D02*
X7591797Y4370367D01*
X7591797Y4370367D02*
X7624789Y4337375D01*
X8284628Y3710528D02*
X7888724Y3710528D01*
X8086676Y3710528D02*
X8086676Y4403359D01*
X8086676Y4403359D02*
X8020692Y4304383D01*
X8020692Y4304383D02*
X7954708Y4238399D01*
X7954708Y4238399D02*
X7888724Y4205407D01*
X8944467Y3710528D02*
X8548563Y3710528D01*
X8746515Y3710528D02*
X8746515Y4403359D01*
X8746515Y4403359D02*
X8680531Y4304383D01*
X8680531Y4304383D02*
X8614547Y4238399D01*
X8614547Y4238399D02*
X8548563Y4205407D01*
D16*
X6421424Y5420497D02*
X6421424Y4972296D01*
X6421424Y4972296D02*
X5480202Y4972296D01*
X5928403Y5734238D02*
X5928403Y6047979D01*
X6421424Y6182439D02*
X6421424Y5734238D01*
X6421424Y5734238D02*
X5480202Y5734238D01*
X5480202Y5734238D02*
X5480202Y6182439D01*
X6421424Y6585820D02*
X5480202Y6585820D01*
X5480202Y6585820D02*
X5480202Y6809920D01*
X5480202Y6809920D02*
X5525022Y6944381D01*
X5525022Y6944381D02*
X5614662Y7034021D01*
X5614662Y7034021D02*
X5704302Y7078841D01*
X5704302Y7078841D02*
X5883582Y7123661D01*
X5883582Y7123661D02*
X6018043Y7123661D01*
X6018043Y7123661D02*
X6197323Y7078841D01*
X6197323Y7078841D02*
X6286963Y7034021D01*
X6286963Y7034021D02*
X6376604Y6944381D01*
X6376604Y6944381D02*
X6421424Y6809920D01*
X6421424Y6809920D02*
X6421424Y6585820D01*
X6421424Y8020063D02*
X6421424Y7482222D01*
X6421424Y7751142D02*
X5480202Y7751142D01*
X5480202Y7751142D02*
X5614662Y7661502D01*
X5614662Y7661502D02*
X5704302Y7571862D01*
X5704302Y7571862D02*
X5749122Y7482222D01*
D13*
X16749763Y-5707383D02*
X16749763Y-5014552D01*
X16749763Y-5014552D02*
X16914723Y-5014552D01*
X16914723Y-5014552D02*
X17013699Y-5047544D01*
X17013699Y-5047544D02*
X17079683Y-5113528D01*
X17079683Y-5113528D02*
X17112675Y-5179512D01*
X17112675Y-5179512D02*
X17145667Y-5311480D01*
X17145667Y-5311480D02*
X17145667Y-5410456D01*
X17145667Y-5410456D02*
X17112675Y-5542424D01*
X17112675Y-5542424D02*
X17079683Y-5608408D01*
X17079683Y-5608408D02*
X17013699Y-5674392D01*
X17013699Y-5674392D02*
X16914723Y-5707383D01*
X16914723Y-5707383D02*
X16749763Y-5707383D01*
X17409602Y-5080536D02*
X17442594Y-5047544D01*
X17442594Y-5047544D02*
X17508578Y-5014552D01*
X17508578Y-5014552D02*
X17673538Y-5014552D01*
X17673538Y-5014552D02*
X17739522Y-5047544D01*
X17739522Y-5047544D02*
X17772514Y-5080536D01*
X17772514Y-5080536D02*
X17805506Y-5146520D01*
X17805506Y-5146520D02*
X17805506Y-5212504D01*
X17805506Y-5212504D02*
X17772514Y-5311480D01*
X17772514Y-5311480D02*
X17376610Y-5707383D01*
X17376610Y-5707383D02*
X17805506Y-5707383D01*
X4513289Y3456528D02*
X4282345Y3786447D01*
X4117385Y3456528D02*
X4117385Y4149359D01*
X4117385Y4149359D02*
X4381321Y4149359D01*
X4381321Y4149359D02*
X4447305Y4116367D01*
X4447305Y4116367D02*
X4480297Y4083375D01*
X4480297Y4083375D02*
X4513289Y4017391D01*
X4513289Y4017391D02*
X4513289Y3918415D01*
X4513289Y3918415D02*
X4480297Y3852431D01*
X4480297Y3852431D02*
X4447305Y3819439D01*
X4447305Y3819439D02*
X4381321Y3786447D01*
X4381321Y3786447D02*
X4117385Y3786447D01*
X5173128Y3456528D02*
X4777224Y3456528D01*
X4975176Y3456528D02*
X4975176Y4149359D01*
X4975176Y4149359D02*
X4909192Y4050383D01*
X4909192Y4050383D02*
X4843208Y3984399D01*
X4843208Y3984399D02*
X4777224Y3951407D01*
X5766983Y3918415D02*
X5766983Y3456528D01*
X5602023Y4182351D02*
X5437063Y3687471D01*
X5437063Y3687471D02*
X5865959Y3687471D01*
X6368600Y-9760732D02*
X6401592Y-9793724D01*
X6401592Y-9793724D02*
X6434583Y-9892700D01*
X6434583Y-9892700D02*
X6434583Y-9958684D01*
X6434583Y-9958684D02*
X6401592Y-10057660D01*
X6401592Y-10057660D02*
X6335608Y-10123644D01*
X6335608Y-10123644D02*
X6269624Y-10156636D01*
X6269624Y-10156636D02*
X6137656Y-10189628D01*
X6137656Y-10189628D02*
X6038680Y-10189628D01*
X6038680Y-10189628D02*
X5906712Y-10156636D01*
X5906712Y-10156636D02*
X5840728Y-10123644D01*
X5840728Y-10123644D02*
X5774744Y-10057660D01*
X5774744Y-10057660D02*
X5741752Y-9958684D01*
X5741752Y-9958684D02*
X5741752Y-9892700D01*
X5741752Y-9892700D02*
X5774744Y-9793724D01*
X5774744Y-9793724D02*
X5807736Y-9760732D01*
X6434583Y-9100893D02*
X6434583Y-9496797D01*
X6434583Y-9298845D02*
X5741752Y-9298845D01*
X5741752Y-9298845D02*
X5840728Y-9364829D01*
X5840728Y-9364829D02*
X5906712Y-9430813D01*
X5906712Y-9430813D02*
X5939704Y-9496797D01*
X20134289Y1681011D02*
X20101297Y1648020D01*
X20101297Y1648020D02*
X20002321Y1615028D01*
X20002321Y1615028D02*
X19936337Y1615028D01*
X19936337Y1615028D02*
X19837361Y1648020D01*
X19837361Y1648020D02*
X19771377Y1714003D01*
X19771377Y1714003D02*
X19738385Y1779987D01*
X19738385Y1779987D02*
X19705393Y1911955D01*
X19705393Y1911955D02*
X19705393Y2010931D01*
X19705393Y2010931D02*
X19738385Y2142899D01*
X19738385Y2142899D02*
X19771377Y2208883D01*
X19771377Y2208883D02*
X19837361Y2274867D01*
X19837361Y2274867D02*
X19936337Y2307859D01*
X19936337Y2307859D02*
X20002321Y2307859D01*
X20002321Y2307859D02*
X20101297Y2274867D01*
X20101297Y2274867D02*
X20134289Y2241875D01*
X20398224Y2241875D02*
X20431216Y2274867D01*
X20431216Y2274867D02*
X20497200Y2307859D01*
X20497200Y2307859D02*
X20662160Y2307859D01*
X20662160Y2307859D02*
X20728144Y2274867D01*
X20728144Y2274867D02*
X20761136Y2241875D01*
X20761136Y2241875D02*
X20794128Y2175891D01*
X20794128Y2175891D02*
X20794128Y2109907D01*
X20794128Y2109907D02*
X20761136Y2010931D01*
X20761136Y2010931D02*
X20365232Y1615028D01*
X20365232Y1615028D02*
X20794128Y1615028D01*
X-12522098Y7133859D02*
X-12060210Y6441028D01*
X-12060210Y7133859D02*
X-12522098Y6441028D01*
X-11433363Y6441028D02*
X-11829267Y6441028D01*
X-11631315Y6441028D02*
X-11631315Y7133859D01*
X-11631315Y7133859D02*
X-11697299Y7034883D01*
X-11697299Y7034883D02*
X-11763283Y6968899D01*
X-11763283Y6968899D02*
X-11829267Y6935907D01*
X16757428Y-4400100D02*
X16724436Y-4433092D01*
X16724436Y-4433092D02*
X16625460Y-4466083D01*
X16625460Y-4466083D02*
X16559476Y-4466083D01*
X16559476Y-4466083D02*
X16460500Y-4433092D01*
X16460500Y-4433092D02*
X16394516Y-4367108D01*
X16394516Y-4367108D02*
X16361524Y-4301124D01*
X16361524Y-4301124D02*
X16328532Y-4169156D01*
X16328532Y-4169156D02*
X16328532Y-4070180D01*
X16328532Y-4070180D02*
X16361524Y-3938212D01*
X16361524Y-3938212D02*
X16394516Y-3872228D01*
X16394516Y-3872228D02*
X16460500Y-3806244D01*
X16460500Y-3806244D02*
X16559476Y-3773252D01*
X16559476Y-3773252D02*
X16625460Y-3773252D01*
X16625460Y-3773252D02*
X16724436Y-3806244D01*
X16724436Y-3806244D02*
X16757428Y-3839236D01*
X17417267Y-4466083D02*
X17021363Y-4466083D01*
X17219315Y-4466083D02*
X17219315Y-3773252D01*
X17219315Y-3773252D02*
X17153331Y-3872228D01*
X17153331Y-3872228D02*
X17087347Y-3938212D01*
X17087347Y-3938212D02*
X17021363Y-3971204D01*
X17747186Y-4466083D02*
X17879154Y-4466083D01*
X17879154Y-4466083D02*
X17945138Y-4433092D01*
X17945138Y-4433092D02*
X17978130Y-4400100D01*
X17978130Y-4400100D02*
X18044114Y-4301124D01*
X18044114Y-4301124D02*
X18077106Y-4169156D01*
X18077106Y-4169156D02*
X18077106Y-3905220D01*
X18077106Y-3905220D02*
X18044114Y-3839236D01*
X18044114Y-3839236D02*
X18011122Y-3806244D01*
X18011122Y-3806244D02*
X17945138Y-3773252D01*
X17945138Y-3773252D02*
X17813170Y-3773252D01*
X17813170Y-3773252D02*
X17747186Y-3806244D01*
X17747186Y-3806244D02*
X17714194Y-3839236D01*
X17714194Y-3839236D02*
X17681202Y-3905220D01*
X17681202Y-3905220D02*
X17681202Y-4070180D01*
X17681202Y-4070180D02*
X17714194Y-4136164D01*
X17714194Y-4136164D02*
X17747186Y-4169156D01*
X17747186Y-4169156D02*
X17813170Y-4202148D01*
X17813170Y-4202148D02*
X17945138Y-4202148D01*
X17945138Y-4202148D02*
X18011122Y-4169156D01*
X18011122Y-4169156D02*
X18044114Y-4136164D01*
X18044114Y-4136164D02*
X18077106Y-4070180D01*
X5860600Y3549428D02*
X5893592Y3516436D01*
X5893592Y3516436D02*
X5926583Y3417460D01*
X5926583Y3417460D02*
X5926583Y3351476D01*
X5926583Y3351476D02*
X5893592Y3252500D01*
X5893592Y3252500D02*
X5827608Y3186516D01*
X5827608Y3186516D02*
X5761624Y3153524D01*
X5761624Y3153524D02*
X5629656Y3120532D01*
X5629656Y3120532D02*
X5530680Y3120532D01*
X5530680Y3120532D02*
X5398712Y3153524D01*
X5398712Y3153524D02*
X5332728Y3186516D01*
X5332728Y3186516D02*
X5266744Y3252500D01*
X5266744Y3252500D02*
X5233752Y3351476D01*
X5233752Y3351476D02*
X5233752Y3417460D01*
X5233752Y3417460D02*
X5266744Y3516436D01*
X5266744Y3516436D02*
X5299736Y3549428D01*
X5926583Y4209267D02*
X5926583Y3813363D01*
X5926583Y4011315D02*
X5233752Y4011315D01*
X5233752Y4011315D02*
X5332728Y3945331D01*
X5332728Y3945331D02*
X5398712Y3879347D01*
X5398712Y3879347D02*
X5431704Y3813363D01*
X5233752Y4803122D02*
X5233752Y4671154D01*
X5233752Y4671154D02*
X5266744Y4605170D01*
X5266744Y4605170D02*
X5299736Y4572178D01*
X5299736Y4572178D02*
X5398712Y4506194D01*
X5398712Y4506194D02*
X5530680Y4473202D01*
X5530680Y4473202D02*
X5794616Y4473202D01*
X5794616Y4473202D02*
X5860600Y4506194D01*
X5860600Y4506194D02*
X5893592Y4539186D01*
X5893592Y4539186D02*
X5926583Y4605170D01*
X5926583Y4605170D02*
X5926583Y4737138D01*
X5926583Y4737138D02*
X5893592Y4803122D01*
X5893592Y4803122D02*
X5860600Y4836114D01*
X5860600Y4836114D02*
X5794616Y4869106D01*
X5794616Y4869106D02*
X5629656Y4869106D01*
X5629656Y4869106D02*
X5563672Y4836114D01*
X5563672Y4836114D02*
X5530680Y4803122D01*
X5530680Y4803122D02*
X5497688Y4737138D01*
X5497688Y4737138D02*
X5497688Y4605170D01*
X5497688Y4605170D02*
X5530680Y4539186D01*
X5530680Y4539186D02*
X5563672Y4506194D01*
X5563672Y4506194D02*
X5629656Y4473202D01*
X7359428Y-4590600D02*
X7326436Y-4623592D01*
X7326436Y-4623592D02*
X7227460Y-4656583D01*
X7227460Y-4656583D02*
X7161476Y-4656583D01*
X7161476Y-4656583D02*
X7062500Y-4623592D01*
X7062500Y-4623592D02*
X6996516Y-4557608D01*
X6996516Y-4557608D02*
X6963524Y-4491624D01*
X6963524Y-4491624D02*
X6930532Y-4359656D01*
X6930532Y-4359656D02*
X6930532Y-4260680D01*
X6930532Y-4260680D02*
X6963524Y-4128712D01*
X6963524Y-4128712D02*
X6996516Y-4062728D01*
X6996516Y-4062728D02*
X7062500Y-3996744D01*
X7062500Y-3996744D02*
X7161476Y-3963752D01*
X7161476Y-3963752D02*
X7227460Y-3963752D01*
X7227460Y-3963752D02*
X7326436Y-3996744D01*
X7326436Y-3996744D02*
X7359428Y-4029736D01*
X8019267Y-4656583D02*
X7623363Y-4656583D01*
X7821315Y-4656583D02*
X7821315Y-3963752D01*
X7821315Y-3963752D02*
X7755331Y-4062728D01*
X7755331Y-4062728D02*
X7689347Y-4128712D01*
X7689347Y-4128712D02*
X7623363Y-4161704D01*
X8613122Y-4194696D02*
X8613122Y-4656583D01*
X8448162Y-3930761D02*
X8283202Y-4425640D01*
X8283202Y-4425640D02*
X8712098Y-4425640D01*
X10037789Y-4033988D02*
X10004797Y-4066980D01*
X10004797Y-4066980D02*
X9905821Y-4099971D01*
X9905821Y-4099971D02*
X9839837Y-4099971D01*
X9839837Y-4099971D02*
X9740861Y-4066980D01*
X9740861Y-4066980D02*
X9674877Y-4000996D01*
X9674877Y-4000996D02*
X9641885Y-3935012D01*
X9641885Y-3935012D02*
X9608893Y-3803044D01*
X9608893Y-3803044D02*
X9608893Y-3704068D01*
X9608893Y-3704068D02*
X9641885Y-3572100D01*
X9641885Y-3572100D02*
X9674877Y-3506116D01*
X9674877Y-3506116D02*
X9740861Y-3440132D01*
X9740861Y-3440132D02*
X9839837Y-3407140D01*
X9839837Y-3407140D02*
X9905821Y-3407140D01*
X9905821Y-3407140D02*
X10004797Y-3440132D01*
X10004797Y-3440132D02*
X10037789Y-3473124D01*
X10367708Y-4099971D02*
X10499676Y-4099971D01*
X10499676Y-4099971D02*
X10565660Y-4066980D01*
X10565660Y-4066980D02*
X10598652Y-4033988D01*
X10598652Y-4033988D02*
X10664636Y-3935012D01*
X10664636Y-3935012D02*
X10697628Y-3803044D01*
X10697628Y-3803044D02*
X10697628Y-3539108D01*
X10697628Y-3539108D02*
X10664636Y-3473124D01*
X10664636Y-3473124D02*
X10631644Y-3440132D01*
X10631644Y-3440132D02*
X10565660Y-3407140D01*
X10565660Y-3407140D02*
X10433692Y-3407140D01*
X10433692Y-3407140D02*
X10367708Y-3440132D01*
X10367708Y-3440132D02*
X10334716Y-3473124D01*
X10334716Y-3473124D02*
X10301724Y-3539108D01*
X10301724Y-3539108D02*
X10301724Y-3704068D01*
X10301724Y-3704068D02*
X10334716Y-3770052D01*
X10334716Y-3770052D02*
X10367708Y-3803044D01*
X10367708Y-3803044D02*
X10433692Y-3836036D01*
X10433692Y-3836036D02*
X10565660Y-3836036D01*
X10565660Y-3836036D02*
X10631644Y-3803044D01*
X10631644Y-3803044D02*
X10664636Y-3770052D01*
X10664636Y-3770052D02*
X10697628Y-3704068D01*
X20134289Y3078011D02*
X20101297Y3045020D01*
X20101297Y3045020D02*
X20002321Y3012028D01*
X20002321Y3012028D02*
X19936337Y3012028D01*
X19936337Y3012028D02*
X19837361Y3045020D01*
X19837361Y3045020D02*
X19771377Y3111003D01*
X19771377Y3111003D02*
X19738385Y3176987D01*
X19738385Y3176987D02*
X19705393Y3308955D01*
X19705393Y3308955D02*
X19705393Y3407931D01*
X19705393Y3407931D02*
X19738385Y3539899D01*
X19738385Y3539899D02*
X19771377Y3605883D01*
X19771377Y3605883D02*
X19837361Y3671867D01*
X19837361Y3671867D02*
X19936337Y3704859D01*
X19936337Y3704859D02*
X20002321Y3704859D01*
X20002321Y3704859D02*
X20101297Y3671867D01*
X20101297Y3671867D02*
X20134289Y3638875D01*
X20794128Y3012028D02*
X20398224Y3012028D01*
X20596176Y3012028D02*
X20596176Y3704859D01*
X20596176Y3704859D02*
X20530192Y3605883D01*
X20530192Y3605883D02*
X20464208Y3539899D01*
X20464208Y3539899D02*
X20398224Y3506907D01*
X21025071Y3704859D02*
X21486959Y3704859D01*
X21486959Y3704859D02*
X21190031Y3012028D01*
X20451789Y4411511D02*
X20418797Y4378520D01*
X20418797Y4378520D02*
X20319821Y4345528D01*
X20319821Y4345528D02*
X20253837Y4345528D01*
X20253837Y4345528D02*
X20154861Y4378520D01*
X20154861Y4378520D02*
X20088877Y4444503D01*
X20088877Y4444503D02*
X20055885Y4510487D01*
X20055885Y4510487D02*
X20022893Y4642455D01*
X20022893Y4642455D02*
X20022893Y4741431D01*
X20022893Y4741431D02*
X20055885Y4873399D01*
X20055885Y4873399D02*
X20088877Y4939383D01*
X20088877Y4939383D02*
X20154861Y5005367D01*
X20154861Y5005367D02*
X20253837Y5038359D01*
X20253837Y5038359D02*
X20319821Y5038359D01*
X20319821Y5038359D02*
X20418797Y5005367D01*
X20418797Y5005367D02*
X20451789Y4972375D01*
X21111628Y4345528D02*
X20715724Y4345528D01*
X20913676Y4345528D02*
X20913676Y5038359D01*
X20913676Y5038359D02*
X20847692Y4939383D01*
X20847692Y4939383D02*
X20781708Y4873399D01*
X20781708Y4873399D02*
X20715724Y4840407D01*
X21375563Y4972375D02*
X21408555Y5005367D01*
X21408555Y5005367D02*
X21474539Y5038359D01*
X21474539Y5038359D02*
X21639499Y5038359D01*
X21639499Y5038359D02*
X21705483Y5005367D01*
X21705483Y5005367D02*
X21738475Y4972375D01*
X21738475Y4972375D02*
X21771467Y4906391D01*
X21771467Y4906391D02*
X21771467Y4840407D01*
X21771467Y4840407D02*
X21738475Y4741431D01*
X21738475Y4741431D02*
X21342571Y4345528D01*
X21342571Y4345528D02*
X21771467Y4345528D01*
X10152289Y8930028D02*
X9921345Y9259947D01*
X9756385Y8930028D02*
X9756385Y9622859D01*
X9756385Y9622859D02*
X10020321Y9622859D01*
X10020321Y9622859D02*
X10086305Y9589867D01*
X10086305Y9589867D02*
X10119297Y9556875D01*
X10119297Y9556875D02*
X10152289Y9490891D01*
X10152289Y9490891D02*
X10152289Y9391915D01*
X10152289Y9391915D02*
X10119297Y9325931D01*
X10119297Y9325931D02*
X10086305Y9292939D01*
X10086305Y9292939D02*
X10020321Y9259947D01*
X10020321Y9259947D02*
X9756385Y9259947D01*
X10812128Y8930028D02*
X10416224Y8930028D01*
X10614176Y8930028D02*
X10614176Y9622859D01*
X10614176Y9622859D02*
X10548192Y9523883D01*
X10548192Y9523883D02*
X10482208Y9457899D01*
X10482208Y9457899D02*
X10416224Y9424907D01*
X18765988Y830289D02*
X18798980Y797297D01*
X18798980Y797297D02*
X18831971Y698321D01*
X18831971Y698321D02*
X18831971Y632337D01*
X18831971Y632337D02*
X18798980Y533361D01*
X18798980Y533361D02*
X18732996Y467377D01*
X18732996Y467377D02*
X18667012Y434385D01*
X18667012Y434385D02*
X18535044Y401393D01*
X18535044Y401393D02*
X18436068Y401393D01*
X18436068Y401393D02*
X18304100Y434385D01*
X18304100Y434385D02*
X18238116Y467377D01*
X18238116Y467377D02*
X18172132Y533361D01*
X18172132Y533361D02*
X18139140Y632337D01*
X18139140Y632337D02*
X18139140Y698321D01*
X18139140Y698321D02*
X18172132Y797297D01*
X18172132Y797297D02*
X18205124Y830289D01*
X18205124Y1094224D02*
X18172132Y1127216D01*
X18172132Y1127216D02*
X18139140Y1193200D01*
X18139140Y1193200D02*
X18139140Y1358160D01*
X18139140Y1358160D02*
X18172132Y1424144D01*
X18172132Y1424144D02*
X18205124Y1457136D01*
X18205124Y1457136D02*
X18271108Y1490128D01*
X18271108Y1490128D02*
X18337092Y1490128D01*
X18337092Y1490128D02*
X18436068Y1457136D01*
X18436068Y1457136D02*
X18831971Y1061232D01*
X18831971Y1061232D02*
X18831971Y1490128D01*
X18139140Y1919023D02*
X18139140Y1985007D01*
X18139140Y1985007D02*
X18172132Y2050991D01*
X18172132Y2050991D02*
X18205124Y2083983D01*
X18205124Y2083983D02*
X18271108Y2116975D01*
X18271108Y2116975D02*
X18403076Y2149967D01*
X18403076Y2149967D02*
X18568036Y2149967D01*
X18568036Y2149967D02*
X18700004Y2116975D01*
X18700004Y2116975D02*
X18765988Y2083983D01*
X18765988Y2083983D02*
X18798980Y2050991D01*
X18798980Y2050991D02*
X18831971Y1985007D01*
X18831971Y1985007D02*
X18831971Y1919023D01*
X18831971Y1919023D02*
X18798980Y1853039D01*
X18798980Y1853039D02*
X18765988Y1820047D01*
X18765988Y1820047D02*
X18700004Y1787055D01*
X18700004Y1787055D02*
X18568036Y1754063D01*
X18568036Y1754063D02*
X18403076Y1754063D01*
X18403076Y1754063D02*
X18271108Y1787055D01*
X18271108Y1787055D02*
X18205124Y1820047D01*
X18205124Y1820047D02*
X18172132Y1853039D01*
X18172132Y1853039D02*
X18139140Y1919023D01*
D17*
X4036493Y-2572291D02*
X4036493Y-3178160D01*
X4036493Y-3178160D02*
X4072133Y-3249438D01*
X4072133Y-3249438D02*
X4107772Y-3285078D01*
X4107772Y-3285078D02*
X4179051Y-3320717D01*
X4179051Y-3320717D02*
X4321608Y-3320717D01*
X4321608Y-3320717D02*
X4392887Y-3285078D01*
X4392887Y-3285078D02*
X4428526Y-3249438D01*
X4428526Y-3249438D02*
X4464165Y-3178160D01*
X4464165Y-3178160D02*
X4464165Y-2572291D01*
X5176952Y-2572291D02*
X4820558Y-2572291D01*
X4820558Y-2572291D02*
X4784919Y-2928684D01*
X4784919Y-2928684D02*
X4820558Y-2893045D01*
X4820558Y-2893045D02*
X4891837Y-2857406D01*
X4891837Y-2857406D02*
X5070034Y-2857406D01*
X5070034Y-2857406D02*
X5141312Y-2893045D01*
X5141312Y-2893045D02*
X5176952Y-2928684D01*
X5176952Y-2928684D02*
X5212591Y-2999963D01*
X5212591Y-2999963D02*
X5212591Y-3178160D01*
X5212591Y-3178160D02*
X5176952Y-3249438D01*
X5176952Y-3249438D02*
X5141312Y-3285078D01*
X5141312Y-3285078D02*
X5070034Y-3320717D01*
X5070034Y-3320717D02*
X4891837Y-3320717D01*
X4891837Y-3320717D02*
X4820558Y-3285078D01*
X4820558Y-3285078D02*
X4784919Y-3249438D01*
%TO.C,R6*%
D18*
X16700500Y-146000D02*
X16700500Y654000D01*
%TO.C,R15*%
X1651000Y2368500D02*
X1651000Y1568500D01*
%TO.C,C7*%
D19*
X4572000Y2095500D02*
X4572000Y1587500D01*
%TO.C,R16*%
D18*
X13716000Y-3664000D02*
X13716000Y-4464000D01*
%TO.C,C8*%
X12446000Y-6985000D02*
X11430000Y-6985000D01*
%TO.C,SW3*%
D11*
X13581500Y-6175500D02*
X14381500Y-6175500D01*
X13581500Y-7675500D02*
X13581500Y-6175500D01*
X14581500Y-8575500D02*
X15581500Y-8575500D01*
X15581500Y-6175500D02*
X18581500Y-6175500D01*
X15581500Y-8575500D02*
X15581500Y-9575500D01*
X15581500Y-8575500D02*
X18581500Y-8575500D01*
X15581500Y-9575500D02*
X18581500Y-9575500D01*
X18581500Y-8575500D02*
X19581500Y-8575500D01*
X18581500Y-9575500D02*
X18581500Y-8575500D01*
X19781500Y-6175500D02*
X20581500Y-6175500D01*
X20581500Y-6175500D02*
X20581500Y-7575500D01*
%TO.C,C13*%
D18*
X7645400Y5124500D02*
X7645400Y5924500D01*
%TO.C,Y1*%
D20*
X18073500Y-2964500D02*
X15073500Y-2964500D01*
X18073500Y-464500D02*
X18073500Y-2964500D01*
X15073500Y-2964500D02*
X15073500Y-464500D01*
X15073500Y-464500D02*
X18073500Y-464500D01*
%TO.C,U$5*%
D19*
X24860000Y6350000D02*
G75*
G02*
X20860000Y6350000I-2000000J0D01*
G01*
X20860000Y6350000D02*
G75*
G02*
X24860000Y6350000I2000000J0D01*
G01*
%TO.C,CONN1*%
D11*
X20646000Y-3000000D02*
X20646000Y-1900000D01*
X23246000Y-3000000D02*
X20646000Y-3000000D01*
X24946000Y-2100000D02*
X24946000Y2100000D01*
X20646000Y1900000D02*
X20646000Y3100000D01*
X20646000Y3100000D02*
X23246000Y3100000D01*
%TO.C,U1*%
D19*
X9690000Y-5208000D02*
X8090000Y-5208000D01*
X9940000Y-6458000D02*
X9940000Y-7258000D01*
X9690000Y-8508000D02*
X8090000Y-8508000D01*
%TO.C,SW2*%
D11*
X20581500Y6175500D02*
X19781500Y6175500D01*
X20581500Y7675500D02*
X20581500Y6175500D01*
X19581500Y8575500D02*
X18581500Y8575500D01*
X18581500Y6175500D02*
X15581500Y6175500D01*
X18581500Y8575500D02*
X18581500Y9575500D01*
X18581500Y8575500D02*
X15581500Y8575500D01*
X18581500Y9575500D02*
X15581500Y9575500D01*
X15581500Y8575500D02*
X14581500Y8575500D01*
X15581500Y9575500D02*
X15581500Y8575500D01*
X14381500Y6175500D02*
X13581500Y6175500D01*
X13581500Y6175500D02*
X13581500Y7575500D01*
%TO.C,C11*%
D18*
X5207000Y4146500D02*
X5207000Y3346500D01*
%TO.C,LED1*%
D11*
X6910500Y6439000D02*
X6910500Y8039000D01*
X8710500Y6439000D02*
X8710500Y8039000D01*
X7810500Y7939000D02*
X7810500Y7389000D01*
%TO.C,D2*%
D19*
X17916400Y-4687800D02*
X15916400Y-4687800D01*
X17166400Y-3987800D02*
X16566400Y-4387800D01*
X16566400Y-4387800D02*
X16566400Y-3587800D01*
X16566400Y-3587800D02*
X17166400Y-3987800D01*
X15916400Y-3287800D02*
X17916400Y-3287800D01*
D21*
G36*
X17016400Y-3987800D02*
G01*
X16716400Y-4187800D01*
X16716400Y-3787800D01*
X17016400Y-3987800D01*
G37*
G36*
X17366400Y-4487800D02*
G01*
X17166400Y-4487800D01*
X17166400Y-3487800D01*
X17366400Y-3487800D01*
X17366400Y-4487800D01*
G37*
%TO.C,IC2*%
D11*
X7307700Y-2687200D02*
X7307700Y-2087200D01*
X7957700Y-2687200D02*
X7307700Y-2687200D01*
X13707700Y-2687200D02*
X14307700Y-2687200D01*
X14307700Y-2687200D02*
X14307700Y-2087200D01*
X7307700Y3712800D02*
X7307700Y4312800D01*
X14307700Y3712800D02*
X14307700Y4312800D01*
X7307700Y4312800D02*
X7907700Y4312800D01*
X14307700Y4312800D02*
X13707700Y4312800D01*
X7643109Y-2687200D02*
G75*
G02*
X6972291Y-2687200I-335409J0D01*
G01*
X6972291Y-2687200D02*
G75*
G02*
X7643109Y-2687200I335409J0D01*
G01*
%TO.C,R14*%
D18*
X2095500Y3892500D02*
X2095500Y3092500D01*
%TO.C,C1*%
X6350000Y-6858000D02*
X5334000Y-6858000D01*
%TO.C,C2*%
X17716500Y2051000D02*
X17716500Y1251000D01*
%TO.C,C19*%
X20066000Y-4273500D02*
X20066000Y-3473500D01*
%TO.C,C16*%
X5734000Y6858000D02*
X4934000Y6858000D01*
%TO.C,C14*%
X10668000Y-4464000D02*
X10668000Y-3664000D01*
%TO.C,U$4*%
D19*
X24860000Y-6350000D02*
G75*
G02*
X20860000Y-6350000I-2000000J0D01*
G01*
X20860000Y-6350000D02*
G75*
G02*
X24860000Y-6350000I2000000J0D01*
G01*
%TO.C,U$2*%
X4540000Y-6350000D02*
G75*
G02*
X540000Y-6350000I-2000000J0D01*
G01*
X540000Y-6350000D02*
G75*
G02*
X4540000Y-6350000I2000000J0D01*
G01*
%TO.C,C9*%
D18*
X7620000Y-3664000D02*
X7620000Y-4464000D01*
%TO.C,U$1*%
D19*
X4540000Y6350000D02*
G75*
G02*
X540000Y6350000I-2000000J0D01*
G01*
X540000Y6350000D02*
G75*
G02*
X4540000Y6350000I2000000J0D01*
G01*
%TO.C,C17*%
D18*
X17716500Y3448000D02*
X17716500Y2648000D01*
%TO.C,C12*%
X18034000Y4781500D02*
X18034000Y3981500D01*
%TO.C,R1*%
D19*
X9212500Y5839000D02*
X9212500Y8639000D01*
X13012500Y8639000D02*
X13012500Y5839000D01*
%TO.C,C20*%
D18*
X18396000Y-1587500D02*
X19196000Y-1587500D01*
%TO.C,U5*%
D20*
X5492500Y-3905000D02*
X1492500Y-3905000D01*
X5492500Y95000D02*
X5492500Y-3905000D01*
X1492500Y-3905000D02*
X1492500Y95000D01*
X1492500Y95000D02*
X5492500Y95000D01*
X5692500Y-3905000D02*
G75*
G02*
X5292500Y-3905000I-200000J0D01*
G01*
X5292500Y-3905000D02*
G75*
G02*
X5692500Y-3905000I200000J0D01*
G01*
%TD*%
%LPC*%
%TO.C,U$8*%
D22*
X-1460500Y2818700D02*
G75*
G02*
X-2210500Y3568700I0J750000D01*
G01*
X-2210500Y3568700D02*
G75*
G02*
X-1460500Y4318700I750000J0D01*
G01*
X-710500Y3568700D02*
G75*
G02*
X-1460500Y2818700I-750000J0D01*
G01*
X-1460500Y4318700D02*
G75*
G02*
X-710500Y3568700I0J-750000D01*
G01*
%TO.C,U$6*%
X23799800Y648400D02*
G75*
G02*
X24549800Y-101600I0J-750000D01*
G01*
X24549800Y-101600D02*
G75*
G02*
X23799800Y-851600I-750000J0D01*
G01*
X23049800Y-101600D02*
G75*
G02*
X23799800Y648400I750000J0D01*
G01*
X23799800Y-851600D02*
G75*
G02*
X23049800Y-101600I0J750000D01*
G01*
%TD*%
D23*
%TO.C,R6*%
X17550500Y254000D03*
X15850500Y254000D03*
%TD*%
D24*
%TO.C,R15*%
X801000Y1968500D03*
X2501000Y1968500D03*
%TD*%
D25*
%TO.C,C7*%
X3810000Y1841500D03*
X5334000Y1841500D03*
%TD*%
D24*
%TO.C,R16*%
X12866000Y-4064000D03*
X14566000Y-4064000D03*
%TD*%
D26*
%TO.C,C8*%
X11938000Y-6035000D03*
X11938000Y-7935000D03*
%TD*%
D27*
%TO.C,SW3*%
X15931500Y-7475500D03*
X18231500Y-7475500D03*
D28*
X14981500Y-6275500D03*
X19181500Y-6275500D03*
D29*
X13906500Y-8075500D03*
X20156500Y-8075500D03*
%TD*%
D23*
%TO.C,C13*%
X8495400Y5524500D03*
X6795400Y5524500D03*
%TD*%
D30*
%TO.C,U$8*%
X-1460500Y3568700D03*
%TD*%
D31*
%TO.C,Y1*%
X17398500Y-1089500D03*
X15748500Y-1089500D03*
X15748500Y-2339500D03*
X17398500Y-2339500D03*
%TD*%
D32*
%TO.C,U$5*%
X22860000Y6350000D03*
%TD*%
D33*
%TO.C,CONN1*%
X20346000Y-1500000D03*
X20346000Y-500000D03*
X20346000Y500000D03*
X20346000Y1500000D03*
D34*
X24246000Y-2800000D03*
X24246000Y2800000D03*
%TD*%
D35*
%TO.C,U1*%
X7589900Y-5908000D03*
X7589900Y-6858000D03*
X7589900Y-7808000D03*
X10190100Y-7808000D03*
X10190100Y-5908000D03*
%TD*%
D27*
%TO.C,SW2*%
X18231500Y7475500D03*
X15931500Y7475500D03*
D36*
X19181500Y6275500D03*
X14981500Y6275500D03*
D37*
X20256500Y8075500D03*
X14006500Y8075500D03*
%TD*%
D24*
%TO.C,C11*%
X4357000Y3746500D03*
X6057000Y3746500D03*
%TD*%
D38*
%TO.C,LED1*%
X8260500Y6739000D03*
X8260500Y7739000D03*
X7360500Y7739000D03*
X7360500Y6739000D03*
%TD*%
D39*
%TO.C,D2*%
X15846400Y-3987800D03*
X17986400Y-3987800D03*
%TD*%
D40*
%TO.C,IC2*%
X8207700Y-2637200D03*
X8607700Y-2637200D03*
X9007700Y-2637200D03*
X9407700Y-2637200D03*
X9807700Y-2637200D03*
X10207700Y-2637200D03*
X10607700Y-2637200D03*
X11007700Y-2637200D03*
X11407700Y-2637200D03*
X11807700Y-2637200D03*
X12207700Y-2637200D03*
X12607700Y-2637200D03*
X13007700Y-2637200D03*
X13407700Y-2637200D03*
D41*
X14257700Y-1787200D03*
X14257700Y-1387200D03*
X14257700Y-987200D03*
X14257700Y-587200D03*
X14257700Y-187200D03*
X14257700Y212800D03*
X14257700Y612800D03*
X14257700Y1012800D03*
X14257700Y1412800D03*
X14257700Y1812800D03*
X14257700Y2212800D03*
X14257700Y2612800D03*
X14257700Y3012800D03*
X14257700Y3412800D03*
D42*
X13407700Y4262800D03*
X13007700Y4262800D03*
X12607700Y4262800D03*
X12207700Y4262800D03*
X11807700Y4262800D03*
X11407700Y4262800D03*
X11007700Y4262800D03*
X10607700Y4262800D03*
X10207700Y4262800D03*
X9807700Y4262800D03*
X9407700Y4262800D03*
X9007700Y4262800D03*
X8607700Y4262800D03*
X8207700Y4262800D03*
D43*
X7357700Y3412800D03*
X7357700Y3012800D03*
X7357700Y2612800D03*
X7357700Y2212800D03*
X7357700Y1812800D03*
X7357700Y1412800D03*
X7357700Y1012800D03*
X7357700Y612800D03*
X7357700Y212800D03*
X7357700Y-187200D03*
X7357700Y-587200D03*
X7357700Y-987200D03*
X7357700Y-1387200D03*
X7357700Y-1787200D03*
D44*
X10807700Y812800D03*
%TD*%
D24*
%TO.C,R14*%
X1245500Y3492500D03*
X2945500Y3492500D03*
%TD*%
D45*
%TO.C,U$6*%
X23799800Y-101600D03*
%TD*%
D26*
%TO.C,C1*%
X5842000Y-5908000D03*
X5842000Y-7808000D03*
%TD*%
D24*
%TO.C,C2*%
X16866500Y1651000D03*
X18566500Y1651000D03*
%TD*%
D46*
%TO.C,X1*%
X-7820000Y3500000D03*
D47*
X-7320000Y-1000000D03*
X-7320000Y1000000D03*
D46*
X-7820000Y-3500000D03*
%TD*%
D23*
%TO.C,C19*%
X20916000Y-3873500D03*
X19216000Y-3873500D03*
%TD*%
D48*
%TO.C,C16*%
X5334000Y7708000D03*
X5334000Y6008000D03*
%TD*%
D23*
%TO.C,C14*%
X11518000Y-4064000D03*
X9818000Y-4064000D03*
%TD*%
D32*
%TO.C,U$4*%
X22860000Y-6350000D03*
%TD*%
%TO.C,U$2*%
X2540000Y-6350000D03*
%TD*%
D24*
%TO.C,C9*%
X6770000Y-4064000D03*
X8470000Y-4064000D03*
%TD*%
D32*
%TO.C,U$1*%
X2540000Y6350000D03*
%TD*%
D24*
%TO.C,C17*%
X16866500Y3048000D03*
X18566500Y3048000D03*
%TD*%
%TO.C,C12*%
X17184000Y4381500D03*
X18884000Y4381500D03*
%TD*%
D49*
%TO.C,R1*%
X9812500Y6389000D03*
X10712500Y6389000D03*
X11512500Y6389000D03*
X12412500Y6389000D03*
X12412500Y8089000D03*
X11512500Y8089000D03*
X10712500Y8089000D03*
X9812500Y8089000D03*
%TD*%
D50*
%TO.C,C20*%
X18796000Y-2437500D03*
X18796000Y-737500D03*
%TD*%
D51*
%TO.C,U5*%
X5342500Y-3105000D03*
X5342500Y-2305000D03*
X5342500Y-1505000D03*
X5342500Y-705000D03*
X1642500Y-705000D03*
X1642500Y-1505000D03*
X1642500Y-2305000D03*
X1642500Y-3105000D03*
D52*
X3492500Y-1905000D03*
%TD*%
%LPD*%
M02*
