%TF.GenerationSoftware,KiCad,Pcbnew,10.99.0-3758-g2f18d95be7*%
%TF.CreationDate,2026-09-22T12:02:54+01:00*%
%TF.ProjectId,kicad_file,6b696361-645f-4666-996c-652e6b696361,rev?*%
%TF.SameCoordinates,Original*%
%TF.FileFunction,Drillmap*%
%TF.FilePolarity,Positive*%
%FSLAX45Y45*%
G04 Gerber Fmt 4.5, Leading zero omitted, Abs format (unit mm)*
G04 Created by KiCad (PCBNEW 10.99.0-3758-g2f18d95be7) date 2026-09-22 12:02:54*
%MOMM*%
%LPD*%
G01*
G04 APERTURE LIST*
%ADD10C,0.050000*%
%ADD11C,0.200000*%
%ADD12C,0.100000*%
%ADD13C,0.250000*%
G04 APERTURE END LIST*
D10*
X-2159000Y835050D02*
G75*
G02*
X-1959000Y1035050I200000J0D01*
G01*
X-2159000Y-835050D02*
X-2159000Y835050D01*
X-1959000Y1035050D02*
X-1905000Y1035050D01*
X-1959000Y-1035050D02*
G75*
G02*
X-2159000Y-835050I0J200000D01*
G01*
X-1905000Y1270000D02*
G75*
G02*
X-1651000Y1524000I254000J0D01*
G01*
X-1905000Y1035050D02*
X-1905000Y1270000D01*
X-1905000Y-1035050D02*
X-1959000Y-1035050D01*
X-1905000Y-1270000D02*
X-1905000Y-1035050D01*
X-1651000Y1524000D02*
G75*
G02*
X-1397000Y1270000I0J-254000D01*
G01*
X-1651000Y-1524000D02*
G75*
G02*
X-1905000Y-1270000I0J254000D01*
G01*
X-1397000Y1270000D02*
X-1397000Y1035050D01*
X-1397000Y1035050D02*
X1397000Y1035050D01*
X-1397000Y-1035050D02*
X-1397000Y-1270000D01*
X-1397000Y-1270000D02*
G75*
G02*
X-1651000Y-1524000I-254000J0D01*
G01*
X1397000Y1270000D02*
G75*
G02*
X1651000Y1524000I254000J0D01*
G01*
X1397000Y1035050D02*
X1397000Y1270000D01*
X1397000Y-1035050D02*
X-1397000Y-1035050D01*
X1397000Y-1270000D02*
X1397000Y-1035050D01*
X1651000Y1524000D02*
G75*
G02*
X1905000Y1270000I0J-254000D01*
G01*
X1651000Y-1524000D02*
G75*
G02*
X1397000Y-1270000I0J254000D01*
G01*
X1905000Y1270000D02*
X1905000Y1035050D01*
X1905000Y1035050D02*
X1959000Y1035050D01*
X1905000Y-1035050D02*
X1905000Y-1270000D01*
X1905000Y-1270000D02*
G75*
G02*
X1651000Y-1524000I-254000J0D01*
G01*
X1959000Y1035050D02*
G75*
G02*
X2159000Y835050I0J-200000D01*
G01*
X1959000Y-1035050D02*
X1905000Y-1035050D01*
X2159000Y835050D02*
X2159000Y-835050D01*
X2159000Y-835050D02*
G75*
G02*
X1959000Y-1035050I-200000J0D01*
G01*
D11*
D12*
X-1296035Y-932815D02*
X-1256665Y-972185D01*
X-1256665Y-932815D02*
X-1296035Y-972185D01*
X-908685Y870585D02*
X-869315Y831215D01*
X-869315Y870585D02*
X-908685Y831215D01*
X-546735Y946785D02*
X-507365Y907415D01*
X-507365Y946785D02*
X-546735Y907415D01*
X-489585Y-107315D02*
X-450215Y-146685D01*
X-450215Y-107315D02*
X-489585Y-146685D01*
X-343535Y273685D02*
X-304165Y234315D01*
X-304165Y273685D02*
X-343535Y234315D01*
X-318135Y-513715D02*
X-278765Y-553085D01*
X-278765Y-513715D02*
X-318135Y-553085D01*
X-254635Y426085D02*
X-215265Y386715D01*
X-215265Y426085D02*
X-254635Y386715D01*
X-133985Y-297815D02*
X-94615Y-337185D01*
X-94615Y-297815D02*
X-133985Y-337185D01*
X-89535Y-894715D02*
X-50165Y-934085D01*
X-50165Y-894715D02*
X-89535Y-934085D01*
X-76835Y-648970D02*
X-37465Y-688340D01*
X-37465Y-648970D02*
X-76835Y-688340D01*
X-38735Y-94615D02*
X635Y-133985D01*
X635Y-94615D02*
X-38735Y-133985D01*
X-32385Y6985D02*
X6985Y-32385D01*
X6985Y6985D02*
X-32385Y-32385D01*
X50165Y-278765D02*
X89535Y-318135D01*
X89535Y-278765D02*
X50165Y-318135D01*
X215265Y172085D02*
X254635Y132715D01*
X254635Y172085D02*
X215265Y132715D01*
X266065Y-475615D02*
X305435Y-514985D01*
X305435Y-475615D02*
X266065Y-514985D01*
X501015Y946785D02*
X540385Y907415D01*
X540385Y946785D02*
X501015Y907415D01*
X869315Y273685D02*
X908685Y234315D01*
X908685Y273685D02*
X869315Y234315D01*
X875665Y616585D02*
X915035Y577215D01*
X915035Y616585D02*
X875665Y577215D01*
X875665Y426085D02*
X915035Y386715D01*
X915035Y426085D02*
X875665Y386715D01*
X1243965Y-945515D02*
X1283335Y-984885D01*
X1283335Y-945515D02*
X1243965Y-984885D01*
X-1601000Y762000D02*
G75*
G02*
X-1701000Y762000I-50000J0D01*
G01*
X-1701000Y762000D02*
G75*
G02*
X-1601000Y762000I50000J0D01*
G01*
X-1601000Y508000D02*
G75*
G02*
X-1701000Y508000I-50000J0D01*
G01*
X-1701000Y508000D02*
G75*
G02*
X-1601000Y508000I50000J0D01*
G01*
X-1601000Y254000D02*
G75*
G02*
X-1701000Y254000I-50000J0D01*
G01*
X-1701000Y254000D02*
G75*
G02*
X-1601000Y254000I50000J0D01*
G01*
X-1601000Y0D02*
G75*
G02*
X-1701000Y0I-50000J0D01*
G01*
X-1701000Y0D02*
G75*
G02*
X-1601000Y0I50000J0D01*
G01*
X-1601000Y-254000D02*
G75*
G02*
X-1701000Y-254000I-50000J0D01*
G01*
X-1701000Y-254000D02*
G75*
G02*
X-1601000Y-254000I50000J0D01*
G01*
X-1601000Y-508000D02*
G75*
G02*
X-1701000Y-508000I-50000J0D01*
G01*
X-1701000Y-508000D02*
G75*
G02*
X-1601000Y-508000I50000J0D01*
G01*
X-1601000Y-762000D02*
G75*
G02*
X-1701000Y-762000I-50000J0D01*
G01*
X-1701000Y-762000D02*
G75*
G02*
X-1601000Y-762000I50000J0D01*
G01*
X1701000Y762000D02*
G75*
G02*
X1601000Y762000I-50000J0D01*
G01*
X1601000Y762000D02*
G75*
G02*
X1701000Y762000I50000J0D01*
G01*
X1701000Y508000D02*
G75*
G02*
X1601000Y508000I-50000J0D01*
G01*
X1601000Y508000D02*
G75*
G02*
X1701000Y508000I50000J0D01*
G01*
X1701000Y254000D02*
G75*
G02*
X1601000Y254000I-50000J0D01*
G01*
X1601000Y254000D02*
G75*
G02*
X1701000Y254000I50000J0D01*
G01*
X1701000Y0D02*
G75*
G02*
X1601000Y0I-50000J0D01*
G01*
X1601000Y0D02*
G75*
G02*
X1701000Y0I50000J0D01*
G01*
X1701000Y-254000D02*
G75*
G02*
X1601000Y-254000I-50000J0D01*
G01*
X1601000Y-254000D02*
G75*
G02*
X1701000Y-254000I50000J0D01*
G01*
X1701000Y-508000D02*
G75*
G02*
X1601000Y-508000I-50000J0D01*
G01*
X1601000Y-508000D02*
G75*
G02*
X1701000Y-508000I50000J0D01*
G01*
X1701000Y-762000D02*
G75*
G02*
X1601000Y-762000I-50000J0D01*
G01*
X1601000Y-762000D02*
G75*
G02*
X1701000Y-762000I50000J0D01*
G01*
D13*
X-1651000Y1395000D02*
X-1651000Y1145000D01*
X-1776000Y1270000D02*
X-1526000Y1270000D01*
X-1651000Y-1145000D02*
X-1651000Y-1395000D01*
X-1776000Y-1270000D02*
X-1526000Y-1270000D01*
X1651000Y1395000D02*
X1651000Y1145000D01*
X1526000Y1270000D02*
X1776000Y1270000D01*
X1651000Y-1145000D02*
X1651000Y-1395000D01*
X1526000Y-1270000D02*
X1776000Y-1270000D01*
D11*
X-1900723Y-1837984D02*
X-1900723Y-1637984D01*
X-1900723Y-1637984D02*
X-1853104Y-1637984D01*
X-1853104Y-1637984D02*
X-1824533Y-1647508D01*
X-1824533Y-1647508D02*
X-1805485Y-1666555D01*
X-1805485Y-1666555D02*
X-1795961Y-1685603D01*
X-1795961Y-1685603D02*
X-1786437Y-1723698D01*
X-1786437Y-1723698D02*
X-1786437Y-1752269D01*
X-1786437Y-1752269D02*
X-1795961Y-1790365D01*
X-1795961Y-1790365D02*
X-1805485Y-1809412D01*
X-1805485Y-1809412D02*
X-1824533Y-1828460D01*
X-1824533Y-1828460D02*
X-1853104Y-1837984D01*
X-1853104Y-1837984D02*
X-1900723Y-1837984D01*
X-1700723Y-1837984D02*
X-1700723Y-1704650D01*
X-1700723Y-1742746D02*
X-1691199Y-1723698D01*
X-1691199Y-1723698D02*
X-1681675Y-1714174D01*
X-1681675Y-1714174D02*
X-1662628Y-1704650D01*
X-1662628Y-1704650D02*
X-1643580Y-1704650D01*
X-1576914Y-1837984D02*
X-1576914Y-1704650D01*
X-1576914Y-1637984D02*
X-1586437Y-1647508D01*
X-1586437Y-1647508D02*
X-1576914Y-1657031D01*
X-1576914Y-1657031D02*
X-1567390Y-1647508D01*
X-1567390Y-1647508D02*
X-1576914Y-1637984D01*
X-1576914Y-1637984D02*
X-1576914Y-1657031D01*
X-1453104Y-1837984D02*
X-1472152Y-1828460D01*
X-1472152Y-1828460D02*
X-1481675Y-1809412D01*
X-1481675Y-1809412D02*
X-1481675Y-1637984D01*
X-1348342Y-1837984D02*
X-1367390Y-1828460D01*
X-1367390Y-1828460D02*
X-1376914Y-1809412D01*
X-1376914Y-1809412D02*
X-1376914Y-1637984D01*
X-1119771Y-1837984D02*
X-1119771Y-1637984D01*
X-1119771Y-1637984D02*
X-1053104Y-1780841D01*
X-1053104Y-1780841D02*
X-986437Y-1637984D01*
X-986437Y-1637984D02*
X-986437Y-1837984D01*
X-805485Y-1837984D02*
X-805485Y-1733222D01*
X-805485Y-1733222D02*
X-815009Y-1714174D01*
X-815009Y-1714174D02*
X-834056Y-1704650D01*
X-834056Y-1704650D02*
X-872152Y-1704650D01*
X-872152Y-1704650D02*
X-891199Y-1714174D01*
X-805485Y-1828460D02*
X-824533Y-1837984D01*
X-824533Y-1837984D02*
X-872152Y-1837984D01*
X-872152Y-1837984D02*
X-891199Y-1828460D01*
X-891199Y-1828460D02*
X-900723Y-1809412D01*
X-900723Y-1809412D02*
X-900723Y-1790365D01*
X-900723Y-1790365D02*
X-891199Y-1771317D01*
X-891199Y-1771317D02*
X-872152Y-1761793D01*
X-872152Y-1761793D02*
X-824533Y-1761793D01*
X-824533Y-1761793D02*
X-805485Y-1752269D01*
X-710247Y-1704650D02*
X-710247Y-1904650D01*
X-710247Y-1714174D02*
X-691199Y-1704650D01*
X-691199Y-1704650D02*
X-653104Y-1704650D01*
X-653104Y-1704650D02*
X-634056Y-1714174D01*
X-634056Y-1714174D02*
X-624533Y-1723698D01*
X-624533Y-1723698D02*
X-615009Y-1742746D01*
X-615009Y-1742746D02*
X-615009Y-1799888D01*
X-615009Y-1799888D02*
X-624533Y-1818936D01*
X-624533Y-1818936D02*
X-634056Y-1828460D01*
X-634056Y-1828460D02*
X-653104Y-1837984D01*
X-653104Y-1837984D02*
X-691199Y-1837984D01*
X-691199Y-1837984D02*
X-710247Y-1828460D01*
X-529295Y-1818936D02*
X-519771Y-1828460D01*
X-519771Y-1828460D02*
X-529295Y-1837984D01*
X-529295Y-1837984D02*
X-538818Y-1828460D01*
X-538818Y-1828460D02*
X-529295Y-1818936D01*
X-529295Y-1818936D02*
X-529295Y-1837984D01*
X-529295Y-1714174D02*
X-519771Y-1723698D01*
X-519771Y-1723698D02*
X-529295Y-1733222D01*
X-529295Y-1733222D02*
X-538818Y-1723698D01*
X-538818Y-1723698D02*
X-529295Y-1714174D01*
X-529295Y-1714174D02*
X-529295Y-1733222D01*
D12*
X-2200870Y-2146815D02*
X-2161500Y-2186185D01*
X-2161500Y-2146815D02*
X-2200870Y-2186185D01*
D11*
X-1862628Y-2057984D02*
X-1843580Y-2057984D01*
X-1843580Y-2057984D02*
X-1824533Y-2067508D01*
X-1824533Y-2067508D02*
X-1815009Y-2077031D01*
X-1815009Y-2077031D02*
X-1805485Y-2096079D01*
X-1805485Y-2096079D02*
X-1795961Y-2134174D01*
X-1795961Y-2134174D02*
X-1795961Y-2181793D01*
X-1795961Y-2181793D02*
X-1805485Y-2219889D01*
X-1805485Y-2219889D02*
X-1815009Y-2238936D01*
X-1815009Y-2238936D02*
X-1824533Y-2248460D01*
X-1824533Y-2248460D02*
X-1843580Y-2257984D01*
X-1843580Y-2257984D02*
X-1862628Y-2257984D01*
X-1862628Y-2257984D02*
X-1881675Y-2248460D01*
X-1881675Y-2248460D02*
X-1891199Y-2238936D01*
X-1891199Y-2238936D02*
X-1900723Y-2219889D01*
X-1900723Y-2219889D02*
X-1910247Y-2181793D01*
X-1910247Y-2181793D02*
X-1910247Y-2134174D01*
X-1910247Y-2134174D02*
X-1900723Y-2096079D01*
X-1900723Y-2096079D02*
X-1891199Y-2077031D01*
X-1891199Y-2077031D02*
X-1881675Y-2067508D01*
X-1881675Y-2067508D02*
X-1862628Y-2057984D01*
X-1710247Y-2238936D02*
X-1700723Y-2248460D01*
X-1700723Y-2248460D02*
X-1710247Y-2257984D01*
X-1710247Y-2257984D02*
X-1719771Y-2248460D01*
X-1719771Y-2248460D02*
X-1710247Y-2238936D01*
X-1710247Y-2238936D02*
X-1710247Y-2257984D01*
X-1634056Y-2057984D02*
X-1510247Y-2057984D01*
X-1510247Y-2057984D02*
X-1576914Y-2134174D01*
X-1576914Y-2134174D02*
X-1548342Y-2134174D01*
X-1548342Y-2134174D02*
X-1529294Y-2143698D01*
X-1529294Y-2143698D02*
X-1519771Y-2153222D01*
X-1519771Y-2153222D02*
X-1510247Y-2172270D01*
X-1510247Y-2172270D02*
X-1510247Y-2219889D01*
X-1510247Y-2219889D02*
X-1519771Y-2238936D01*
X-1519771Y-2238936D02*
X-1529294Y-2248460D01*
X-1529294Y-2248460D02*
X-1548342Y-2257984D01*
X-1548342Y-2257984D02*
X-1605485Y-2257984D01*
X-1605485Y-2257984D02*
X-1624533Y-2248460D01*
X-1624533Y-2248460D02*
X-1634056Y-2238936D01*
X-1415009Y-2257984D02*
X-1376914Y-2257984D01*
X-1376914Y-2257984D02*
X-1357866Y-2248460D01*
X-1357866Y-2248460D02*
X-1348342Y-2238936D01*
X-1348342Y-2238936D02*
X-1329295Y-2210365D01*
X-1329295Y-2210365D02*
X-1319771Y-2172270D01*
X-1319771Y-2172270D02*
X-1319771Y-2096079D01*
X-1319771Y-2096079D02*
X-1329295Y-2077031D01*
X-1329295Y-2077031D02*
X-1338818Y-2067508D01*
X-1338818Y-2067508D02*
X-1357866Y-2057984D01*
X-1357866Y-2057984D02*
X-1395961Y-2057984D01*
X-1395961Y-2057984D02*
X-1415009Y-2067508D01*
X-1415009Y-2067508D02*
X-1424533Y-2077031D01*
X-1424533Y-2077031D02*
X-1434056Y-2096079D01*
X-1434056Y-2096079D02*
X-1434056Y-2143698D01*
X-1434056Y-2143698D02*
X-1424533Y-2162746D01*
X-1424533Y-2162746D02*
X-1415009Y-2172270D01*
X-1415009Y-2172270D02*
X-1395961Y-2181793D01*
X-1395961Y-2181793D02*
X-1357866Y-2181793D01*
X-1357866Y-2181793D02*
X-1338818Y-2172270D01*
X-1338818Y-2172270D02*
X-1329295Y-2162746D01*
X-1329295Y-2162746D02*
X-1319771Y-2143698D01*
X-1148342Y-2124650D02*
X-1148342Y-2257984D01*
X-1195961Y-2048460D02*
X-1243580Y-2191317D01*
X-1243580Y-2191317D02*
X-1119771Y-2191317D01*
X-1043580Y-2257984D02*
X-1043580Y-2124650D01*
X-1043580Y-2143698D02*
X-1034056Y-2134174D01*
X-1034056Y-2134174D02*
X-1015009Y-2124650D01*
X-1015009Y-2124650D02*
X-986437Y-2124650D01*
X-986437Y-2124650D02*
X-967390Y-2134174D01*
X-967390Y-2134174D02*
X-957866Y-2153222D01*
X-957866Y-2153222D02*
X-957866Y-2257984D01*
X-957866Y-2153222D02*
X-948342Y-2134174D01*
X-948342Y-2134174D02*
X-929294Y-2124650D01*
X-929294Y-2124650D02*
X-900723Y-2124650D01*
X-900723Y-2124650D02*
X-881675Y-2134174D01*
X-881675Y-2134174D02*
X-872152Y-2153222D01*
X-872152Y-2153222D02*
X-872152Y-2257984D01*
X-776913Y-2257984D02*
X-776913Y-2124650D01*
X-776913Y-2143698D02*
X-767390Y-2134174D01*
X-767390Y-2134174D02*
X-748342Y-2124650D01*
X-748342Y-2124650D02*
X-719771Y-2124650D01*
X-719771Y-2124650D02*
X-700723Y-2134174D01*
X-700723Y-2134174D02*
X-691199Y-2153222D01*
X-691199Y-2153222D02*
X-691199Y-2257984D01*
X-691199Y-2153222D02*
X-681675Y-2134174D01*
X-681675Y-2134174D02*
X-662628Y-2124650D01*
X-662628Y-2124650D02*
X-634056Y-2124650D01*
X-634056Y-2124650D02*
X-615009Y-2134174D01*
X-615009Y-2134174D02*
X-605485Y-2153222D01*
X-605485Y-2153222D02*
X-605485Y-2257984D01*
X-215009Y-2048460D02*
X-386437Y-2305603D01*
X42134Y-2057984D02*
X61182Y-2057984D01*
X61182Y-2057984D02*
X80229Y-2067508D01*
X80229Y-2067508D02*
X89753Y-2077031D01*
X89753Y-2077031D02*
X99277Y-2096079D01*
X99277Y-2096079D02*
X108801Y-2134174D01*
X108801Y-2134174D02*
X108801Y-2181793D01*
X108801Y-2181793D02*
X99277Y-2219889D01*
X99277Y-2219889D02*
X89753Y-2238936D01*
X89753Y-2238936D02*
X80229Y-2248460D01*
X80229Y-2248460D02*
X61182Y-2257984D01*
X61182Y-2257984D02*
X42134Y-2257984D01*
X42134Y-2257984D02*
X23086Y-2248460D01*
X23086Y-2248460D02*
X13563Y-2238936D01*
X13563Y-2238936D02*
X4039Y-2219889D01*
X4039Y-2219889D02*
X-5485Y-2181793D01*
X-5485Y-2181793D02*
X-5485Y-2134174D01*
X-5485Y-2134174D02*
X4039Y-2096079D01*
X4039Y-2096079D02*
X13563Y-2077031D01*
X13563Y-2077031D02*
X23086Y-2067508D01*
X23086Y-2067508D02*
X42134Y-2057984D01*
X194515Y-2238936D02*
X204039Y-2248460D01*
X204039Y-2248460D02*
X194515Y-2257984D01*
X194515Y-2257984D02*
X184991Y-2248460D01*
X184991Y-2248460D02*
X194515Y-2238936D01*
X194515Y-2238936D02*
X194515Y-2257984D01*
X327848Y-2057984D02*
X346896Y-2057984D01*
X346896Y-2057984D02*
X365944Y-2067508D01*
X365944Y-2067508D02*
X375467Y-2077031D01*
X375467Y-2077031D02*
X384991Y-2096079D01*
X384991Y-2096079D02*
X394515Y-2134174D01*
X394515Y-2134174D02*
X394515Y-2181793D01*
X394515Y-2181793D02*
X384991Y-2219889D01*
X384991Y-2219889D02*
X375467Y-2238936D01*
X375467Y-2238936D02*
X365944Y-2248460D01*
X365944Y-2248460D02*
X346896Y-2257984D01*
X346896Y-2257984D02*
X327848Y-2257984D01*
X327848Y-2257984D02*
X308801Y-2248460D01*
X308801Y-2248460D02*
X299277Y-2238936D01*
X299277Y-2238936D02*
X289753Y-2219889D01*
X289753Y-2219889D02*
X280229Y-2181793D01*
X280229Y-2181793D02*
X280229Y-2134174D01*
X280229Y-2134174D02*
X289753Y-2096079D01*
X289753Y-2096079D02*
X299277Y-2077031D01*
X299277Y-2077031D02*
X308801Y-2067508D01*
X308801Y-2067508D02*
X327848Y-2057984D01*
X584991Y-2257984D02*
X470706Y-2257984D01*
X527848Y-2257984D02*
X527848Y-2057984D01*
X527848Y-2057984D02*
X508801Y-2086555D01*
X508801Y-2086555D02*
X489753Y-2105603D01*
X489753Y-2105603D02*
X470706Y-2115127D01*
X765944Y-2057984D02*
X670706Y-2057984D01*
X670706Y-2057984D02*
X661182Y-2153222D01*
X661182Y-2153222D02*
X670706Y-2143698D01*
X670706Y-2143698D02*
X689753Y-2134174D01*
X689753Y-2134174D02*
X737372Y-2134174D01*
X737372Y-2134174D02*
X756420Y-2143698D01*
X756420Y-2143698D02*
X765944Y-2153222D01*
X765944Y-2153222D02*
X775467Y-2172270D01*
X775467Y-2172270D02*
X775467Y-2219889D01*
X775467Y-2219889D02*
X765944Y-2238936D01*
X765944Y-2238936D02*
X756420Y-2248460D01*
X756420Y-2248460D02*
X737372Y-2257984D01*
X737372Y-2257984D02*
X689753Y-2257984D01*
X689753Y-2257984D02*
X670706Y-2248460D01*
X670706Y-2248460D02*
X661182Y-2238936D01*
X956420Y-2057984D02*
X861182Y-2057984D01*
X861182Y-2057984D02*
X851658Y-2153222D01*
X851658Y-2153222D02*
X861182Y-2143698D01*
X861182Y-2143698D02*
X880229Y-2134174D01*
X880229Y-2134174D02*
X927848Y-2134174D01*
X927848Y-2134174D02*
X946896Y-2143698D01*
X946896Y-2143698D02*
X956420Y-2153222D01*
X956420Y-2153222D02*
X965944Y-2172270D01*
X965944Y-2172270D02*
X965944Y-2219889D01*
X965944Y-2219889D02*
X956420Y-2238936D01*
X956420Y-2238936D02*
X946896Y-2248460D01*
X946896Y-2248460D02*
X927848Y-2257984D01*
X927848Y-2257984D02*
X880229Y-2257984D01*
X880229Y-2257984D02*
X861182Y-2248460D01*
X861182Y-2248460D02*
X851658Y-2238936D01*
X1042134Y-2057984D02*
X1042134Y-2096079D01*
X1118325Y-2057984D02*
X1118325Y-2096079D01*
X1413563Y-2334174D02*
X1404039Y-2324650D01*
X1404039Y-2324650D02*
X1384991Y-2296079D01*
X1384991Y-2296079D02*
X1375468Y-2277031D01*
X1375468Y-2277031D02*
X1365944Y-2248460D01*
X1365944Y-2248460D02*
X1356420Y-2200841D01*
X1356420Y-2200841D02*
X1356420Y-2162746D01*
X1356420Y-2162746D02*
X1365944Y-2115127D01*
X1365944Y-2115127D02*
X1375468Y-2086555D01*
X1375468Y-2086555D02*
X1384991Y-2067508D01*
X1384991Y-2067508D02*
X1404039Y-2038936D01*
X1404039Y-2038936D02*
X1413563Y-2029412D01*
X1480229Y-2077031D02*
X1489753Y-2067508D01*
X1489753Y-2067508D02*
X1508801Y-2057984D01*
X1508801Y-2057984D02*
X1556420Y-2057984D01*
X1556420Y-2057984D02*
X1575468Y-2067508D01*
X1575468Y-2067508D02*
X1584991Y-2077031D01*
X1584991Y-2077031D02*
X1594515Y-2096079D01*
X1594515Y-2096079D02*
X1594515Y-2115127D01*
X1594515Y-2115127D02*
X1584991Y-2143698D01*
X1584991Y-2143698D02*
X1470706Y-2257984D01*
X1470706Y-2257984D02*
X1594515Y-2257984D01*
X1718325Y-2057984D02*
X1737372Y-2057984D01*
X1737372Y-2057984D02*
X1756420Y-2067508D01*
X1756420Y-2067508D02*
X1765944Y-2077031D01*
X1765944Y-2077031D02*
X1775468Y-2096079D01*
X1775468Y-2096079D02*
X1784991Y-2134174D01*
X1784991Y-2134174D02*
X1784991Y-2181793D01*
X1784991Y-2181793D02*
X1775468Y-2219889D01*
X1775468Y-2219889D02*
X1765944Y-2238936D01*
X1765944Y-2238936D02*
X1756420Y-2248460D01*
X1756420Y-2248460D02*
X1737372Y-2257984D01*
X1737372Y-2257984D02*
X1718325Y-2257984D01*
X1718325Y-2257984D02*
X1699277Y-2248460D01*
X1699277Y-2248460D02*
X1689753Y-2238936D01*
X1689753Y-2238936D02*
X1680229Y-2219889D01*
X1680229Y-2219889D02*
X1670706Y-2181793D01*
X1670706Y-2181793D02*
X1670706Y-2134174D01*
X1670706Y-2134174D02*
X1680229Y-2096079D01*
X1680229Y-2096079D02*
X1689753Y-2077031D01*
X1689753Y-2077031D02*
X1699277Y-2067508D01*
X1699277Y-2067508D02*
X1718325Y-2057984D01*
X2023087Y-2257984D02*
X2023087Y-2057984D01*
X2108801Y-2257984D02*
X2108801Y-2153222D01*
X2108801Y-2153222D02*
X2099277Y-2134174D01*
X2099277Y-2134174D02*
X2080230Y-2124650D01*
X2080230Y-2124650D02*
X2051658Y-2124650D01*
X2051658Y-2124650D02*
X2032610Y-2134174D01*
X2032610Y-2134174D02*
X2023087Y-2143698D01*
X2232611Y-2257984D02*
X2213563Y-2248460D01*
X2213563Y-2248460D02*
X2204039Y-2238936D01*
X2204039Y-2238936D02*
X2194515Y-2219889D01*
X2194515Y-2219889D02*
X2194515Y-2162746D01*
X2194515Y-2162746D02*
X2204039Y-2143698D01*
X2204039Y-2143698D02*
X2213563Y-2134174D01*
X2213563Y-2134174D02*
X2232611Y-2124650D01*
X2232611Y-2124650D02*
X2261182Y-2124650D01*
X2261182Y-2124650D02*
X2280230Y-2134174D01*
X2280230Y-2134174D02*
X2289753Y-2143698D01*
X2289753Y-2143698D02*
X2299277Y-2162746D01*
X2299277Y-2162746D02*
X2299277Y-2219889D01*
X2299277Y-2219889D02*
X2289753Y-2238936D01*
X2289753Y-2238936D02*
X2280230Y-2248460D01*
X2280230Y-2248460D02*
X2261182Y-2257984D01*
X2261182Y-2257984D02*
X2232611Y-2257984D01*
X2413563Y-2257984D02*
X2394515Y-2248460D01*
X2394515Y-2248460D02*
X2384992Y-2229412D01*
X2384992Y-2229412D02*
X2384992Y-2057984D01*
X2565944Y-2248460D02*
X2546896Y-2257984D01*
X2546896Y-2257984D02*
X2508801Y-2257984D01*
X2508801Y-2257984D02*
X2489753Y-2248460D01*
X2489753Y-2248460D02*
X2480230Y-2229412D01*
X2480230Y-2229412D02*
X2480230Y-2153222D01*
X2480230Y-2153222D02*
X2489753Y-2134174D01*
X2489753Y-2134174D02*
X2508801Y-2124650D01*
X2508801Y-2124650D02*
X2546896Y-2124650D01*
X2546896Y-2124650D02*
X2565944Y-2134174D01*
X2565944Y-2134174D02*
X2575468Y-2153222D01*
X2575468Y-2153222D02*
X2575468Y-2172270D01*
X2575468Y-2172270D02*
X2480230Y-2191317D01*
X2651658Y-2248460D02*
X2670706Y-2257984D01*
X2670706Y-2257984D02*
X2708801Y-2257984D01*
X2708801Y-2257984D02*
X2727849Y-2248460D01*
X2727849Y-2248460D02*
X2737373Y-2229412D01*
X2737373Y-2229412D02*
X2737373Y-2219889D01*
X2737373Y-2219889D02*
X2727849Y-2200841D01*
X2727849Y-2200841D02*
X2708801Y-2191317D01*
X2708801Y-2191317D02*
X2680230Y-2191317D01*
X2680230Y-2191317D02*
X2661182Y-2181793D01*
X2661182Y-2181793D02*
X2651658Y-2162746D01*
X2651658Y-2162746D02*
X2651658Y-2153222D01*
X2651658Y-2153222D02*
X2661182Y-2134174D01*
X2661182Y-2134174D02*
X2680230Y-2124650D01*
X2680230Y-2124650D02*
X2708801Y-2124650D01*
X2708801Y-2124650D02*
X2727849Y-2134174D01*
X2804039Y-2334174D02*
X2813563Y-2324650D01*
X2813563Y-2324650D02*
X2832611Y-2296079D01*
X2832611Y-2296079D02*
X2842134Y-2277031D01*
X2842134Y-2277031D02*
X2851658Y-2248460D01*
X2851658Y-2248460D02*
X2861182Y-2200841D01*
X2861182Y-2200841D02*
X2861182Y-2162746D01*
X2861182Y-2162746D02*
X2851658Y-2115127D01*
X2851658Y-2115127D02*
X2842134Y-2086555D01*
X2842134Y-2086555D02*
X2832611Y-2067508D01*
X2832611Y-2067508D02*
X2813563Y-2038936D01*
X2813563Y-2038936D02*
X2804039Y-2029412D01*
D12*
X-2161500Y-2430500D02*
G75*
G02*
X-2261500Y-2430500I-50000J0D01*
G01*
X-2261500Y-2430500D02*
G75*
G02*
X-2161500Y-2430500I50000J0D01*
G01*
D11*
X-1795961Y-2521984D02*
X-1910247Y-2521984D01*
X-1853104Y-2521984D02*
X-1853104Y-2321984D01*
X-1853104Y-2321984D02*
X-1872152Y-2350555D01*
X-1872152Y-2350555D02*
X-1891199Y-2369603D01*
X-1891199Y-2369603D02*
X-1910247Y-2379127D01*
X-1710247Y-2502936D02*
X-1700723Y-2512460D01*
X-1700723Y-2512460D02*
X-1710247Y-2521984D01*
X-1710247Y-2521984D02*
X-1719771Y-2512460D01*
X-1719771Y-2512460D02*
X-1710247Y-2502936D01*
X-1710247Y-2502936D02*
X-1710247Y-2521984D01*
X-1576914Y-2321984D02*
X-1557866Y-2321984D01*
X-1557866Y-2321984D02*
X-1538818Y-2331508D01*
X-1538818Y-2331508D02*
X-1529294Y-2341031D01*
X-1529294Y-2341031D02*
X-1519771Y-2360079D01*
X-1519771Y-2360079D02*
X-1510247Y-2398174D01*
X-1510247Y-2398174D02*
X-1510247Y-2445793D01*
X-1510247Y-2445793D02*
X-1519771Y-2483889D01*
X-1519771Y-2483889D02*
X-1529294Y-2502936D01*
X-1529294Y-2502936D02*
X-1538818Y-2512460D01*
X-1538818Y-2512460D02*
X-1557866Y-2521984D01*
X-1557866Y-2521984D02*
X-1576914Y-2521984D01*
X-1576914Y-2521984D02*
X-1595961Y-2512460D01*
X-1595961Y-2512460D02*
X-1605485Y-2502936D01*
X-1605485Y-2502936D02*
X-1615009Y-2483889D01*
X-1615009Y-2483889D02*
X-1624533Y-2445793D01*
X-1624533Y-2445793D02*
X-1624533Y-2398174D01*
X-1624533Y-2398174D02*
X-1615009Y-2360079D01*
X-1615009Y-2360079D02*
X-1605485Y-2341031D01*
X-1605485Y-2341031D02*
X-1595961Y-2331508D01*
X-1595961Y-2331508D02*
X-1576914Y-2321984D01*
X-1386437Y-2321984D02*
X-1367390Y-2321984D01*
X-1367390Y-2321984D02*
X-1348342Y-2331508D01*
X-1348342Y-2331508D02*
X-1338818Y-2341031D01*
X-1338818Y-2341031D02*
X-1329295Y-2360079D01*
X-1329295Y-2360079D02*
X-1319771Y-2398174D01*
X-1319771Y-2398174D02*
X-1319771Y-2445793D01*
X-1319771Y-2445793D02*
X-1329295Y-2483889D01*
X-1329295Y-2483889D02*
X-1338818Y-2502936D01*
X-1338818Y-2502936D02*
X-1348342Y-2512460D01*
X-1348342Y-2512460D02*
X-1367390Y-2521984D01*
X-1367390Y-2521984D02*
X-1386437Y-2521984D01*
X-1386437Y-2521984D02*
X-1405485Y-2512460D01*
X-1405485Y-2512460D02*
X-1415009Y-2502936D01*
X-1415009Y-2502936D02*
X-1424533Y-2483889D01*
X-1424533Y-2483889D02*
X-1434056Y-2445793D01*
X-1434056Y-2445793D02*
X-1434056Y-2398174D01*
X-1434056Y-2398174D02*
X-1424533Y-2360079D01*
X-1424533Y-2360079D02*
X-1415009Y-2341031D01*
X-1415009Y-2341031D02*
X-1405485Y-2331508D01*
X-1405485Y-2331508D02*
X-1386437Y-2321984D01*
X-1195961Y-2321984D02*
X-1176914Y-2321984D01*
X-1176914Y-2321984D02*
X-1157866Y-2331508D01*
X-1157866Y-2331508D02*
X-1148342Y-2341031D01*
X-1148342Y-2341031D02*
X-1138818Y-2360079D01*
X-1138818Y-2360079D02*
X-1129295Y-2398174D01*
X-1129295Y-2398174D02*
X-1129295Y-2445793D01*
X-1129295Y-2445793D02*
X-1138818Y-2483889D01*
X-1138818Y-2483889D02*
X-1148342Y-2502936D01*
X-1148342Y-2502936D02*
X-1157866Y-2512460D01*
X-1157866Y-2512460D02*
X-1176914Y-2521984D01*
X-1176914Y-2521984D02*
X-1195961Y-2521984D01*
X-1195961Y-2521984D02*
X-1215009Y-2512460D01*
X-1215009Y-2512460D02*
X-1224533Y-2502936D01*
X-1224533Y-2502936D02*
X-1234056Y-2483889D01*
X-1234056Y-2483889D02*
X-1243580Y-2445793D01*
X-1243580Y-2445793D02*
X-1243580Y-2398174D01*
X-1243580Y-2398174D02*
X-1234056Y-2360079D01*
X-1234056Y-2360079D02*
X-1224533Y-2341031D01*
X-1224533Y-2341031D02*
X-1215009Y-2331508D01*
X-1215009Y-2331508D02*
X-1195961Y-2321984D01*
X-1043580Y-2521984D02*
X-1043580Y-2388650D01*
X-1043580Y-2407698D02*
X-1034056Y-2398174D01*
X-1034056Y-2398174D02*
X-1015009Y-2388650D01*
X-1015009Y-2388650D02*
X-986437Y-2388650D01*
X-986437Y-2388650D02*
X-967390Y-2398174D01*
X-967390Y-2398174D02*
X-957866Y-2417222D01*
X-957866Y-2417222D02*
X-957866Y-2521984D01*
X-957866Y-2417222D02*
X-948342Y-2398174D01*
X-948342Y-2398174D02*
X-929294Y-2388650D01*
X-929294Y-2388650D02*
X-900723Y-2388650D01*
X-900723Y-2388650D02*
X-881675Y-2398174D01*
X-881675Y-2398174D02*
X-872152Y-2417222D01*
X-872152Y-2417222D02*
X-872152Y-2521984D01*
X-776913Y-2521984D02*
X-776913Y-2388650D01*
X-776913Y-2407698D02*
X-767390Y-2398174D01*
X-767390Y-2398174D02*
X-748342Y-2388650D01*
X-748342Y-2388650D02*
X-719771Y-2388650D01*
X-719771Y-2388650D02*
X-700723Y-2398174D01*
X-700723Y-2398174D02*
X-691199Y-2417222D01*
X-691199Y-2417222D02*
X-691199Y-2521984D01*
X-691199Y-2417222D02*
X-681675Y-2398174D01*
X-681675Y-2398174D02*
X-662628Y-2388650D01*
X-662628Y-2388650D02*
X-634056Y-2388650D01*
X-634056Y-2388650D02*
X-615009Y-2398174D01*
X-615009Y-2398174D02*
X-605485Y-2417222D01*
X-605485Y-2417222D02*
X-605485Y-2521984D01*
X-215009Y-2312460D02*
X-386437Y-2569603D01*
X42134Y-2321984D02*
X61182Y-2321984D01*
X61182Y-2321984D02*
X80229Y-2331508D01*
X80229Y-2331508D02*
X89753Y-2341031D01*
X89753Y-2341031D02*
X99277Y-2360079D01*
X99277Y-2360079D02*
X108801Y-2398174D01*
X108801Y-2398174D02*
X108801Y-2445793D01*
X108801Y-2445793D02*
X99277Y-2483889D01*
X99277Y-2483889D02*
X89753Y-2502936D01*
X89753Y-2502936D02*
X80229Y-2512460D01*
X80229Y-2512460D02*
X61182Y-2521984D01*
X61182Y-2521984D02*
X42134Y-2521984D01*
X42134Y-2521984D02*
X23086Y-2512460D01*
X23086Y-2512460D02*
X13563Y-2502936D01*
X13563Y-2502936D02*
X4039Y-2483889D01*
X4039Y-2483889D02*
X-5485Y-2445793D01*
X-5485Y-2445793D02*
X-5485Y-2398174D01*
X-5485Y-2398174D02*
X4039Y-2360079D01*
X4039Y-2360079D02*
X13563Y-2341031D01*
X13563Y-2341031D02*
X23086Y-2331508D01*
X23086Y-2331508D02*
X42134Y-2321984D01*
X194515Y-2502936D02*
X204039Y-2512460D01*
X204039Y-2512460D02*
X194515Y-2521984D01*
X194515Y-2521984D02*
X184991Y-2512460D01*
X184991Y-2512460D02*
X194515Y-2502936D01*
X194515Y-2502936D02*
X194515Y-2521984D01*
X327848Y-2321984D02*
X346896Y-2321984D01*
X346896Y-2321984D02*
X365944Y-2331508D01*
X365944Y-2331508D02*
X375467Y-2341031D01*
X375467Y-2341031D02*
X384991Y-2360079D01*
X384991Y-2360079D02*
X394515Y-2398174D01*
X394515Y-2398174D02*
X394515Y-2445793D01*
X394515Y-2445793D02*
X384991Y-2483889D01*
X384991Y-2483889D02*
X375467Y-2502936D01*
X375467Y-2502936D02*
X365944Y-2512460D01*
X365944Y-2512460D02*
X346896Y-2521984D01*
X346896Y-2521984D02*
X327848Y-2521984D01*
X327848Y-2521984D02*
X308801Y-2512460D01*
X308801Y-2512460D02*
X299277Y-2502936D01*
X299277Y-2502936D02*
X289753Y-2483889D01*
X289753Y-2483889D02*
X280229Y-2445793D01*
X280229Y-2445793D02*
X280229Y-2398174D01*
X280229Y-2398174D02*
X289753Y-2360079D01*
X289753Y-2360079D02*
X299277Y-2341031D01*
X299277Y-2341031D02*
X308801Y-2331508D01*
X308801Y-2331508D02*
X327848Y-2321984D01*
X461182Y-2321984D02*
X584991Y-2321984D01*
X584991Y-2321984D02*
X518325Y-2398174D01*
X518325Y-2398174D02*
X546896Y-2398174D01*
X546896Y-2398174D02*
X565944Y-2407698D01*
X565944Y-2407698D02*
X575468Y-2417222D01*
X575468Y-2417222D02*
X584991Y-2436270D01*
X584991Y-2436270D02*
X584991Y-2483889D01*
X584991Y-2483889D02*
X575468Y-2502936D01*
X575468Y-2502936D02*
X565944Y-2512460D01*
X565944Y-2512460D02*
X546896Y-2521984D01*
X546896Y-2521984D02*
X489753Y-2521984D01*
X489753Y-2521984D02*
X470706Y-2512460D01*
X470706Y-2512460D02*
X461182Y-2502936D01*
X680229Y-2521984D02*
X718325Y-2521984D01*
X718325Y-2521984D02*
X737372Y-2512460D01*
X737372Y-2512460D02*
X746896Y-2502936D01*
X746896Y-2502936D02*
X765944Y-2474365D01*
X765944Y-2474365D02*
X775467Y-2436270D01*
X775467Y-2436270D02*
X775467Y-2360079D01*
X775467Y-2360079D02*
X765944Y-2341031D01*
X765944Y-2341031D02*
X756420Y-2331508D01*
X756420Y-2331508D02*
X737372Y-2321984D01*
X737372Y-2321984D02*
X699277Y-2321984D01*
X699277Y-2321984D02*
X680229Y-2331508D01*
X680229Y-2331508D02*
X670706Y-2341031D01*
X670706Y-2341031D02*
X661182Y-2360079D01*
X661182Y-2360079D02*
X661182Y-2407698D01*
X661182Y-2407698D02*
X670706Y-2426746D01*
X670706Y-2426746D02*
X680229Y-2436270D01*
X680229Y-2436270D02*
X699277Y-2445793D01*
X699277Y-2445793D02*
X737372Y-2445793D01*
X737372Y-2445793D02*
X756420Y-2436270D01*
X756420Y-2436270D02*
X765944Y-2426746D01*
X765944Y-2426746D02*
X775467Y-2407698D01*
X946896Y-2388650D02*
X946896Y-2521984D01*
X899277Y-2312460D02*
X851658Y-2455317D01*
X851658Y-2455317D02*
X975467Y-2455317D01*
X1042134Y-2321984D02*
X1042134Y-2360079D01*
X1118325Y-2321984D02*
X1118325Y-2360079D01*
X1413563Y-2598174D02*
X1404039Y-2588650D01*
X1404039Y-2588650D02*
X1384991Y-2560079D01*
X1384991Y-2560079D02*
X1375468Y-2541031D01*
X1375468Y-2541031D02*
X1365944Y-2512460D01*
X1365944Y-2512460D02*
X1356420Y-2464841D01*
X1356420Y-2464841D02*
X1356420Y-2426746D01*
X1356420Y-2426746D02*
X1365944Y-2379127D01*
X1365944Y-2379127D02*
X1375468Y-2350555D01*
X1375468Y-2350555D02*
X1384991Y-2331508D01*
X1384991Y-2331508D02*
X1404039Y-2302936D01*
X1404039Y-2302936D02*
X1413563Y-2293412D01*
X1594515Y-2521984D02*
X1480229Y-2521984D01*
X1537372Y-2521984D02*
X1537372Y-2321984D01*
X1537372Y-2321984D02*
X1518325Y-2350555D01*
X1518325Y-2350555D02*
X1499277Y-2369603D01*
X1499277Y-2369603D02*
X1480229Y-2379127D01*
X1765944Y-2388650D02*
X1765944Y-2521984D01*
X1718325Y-2312460D02*
X1670706Y-2455317D01*
X1670706Y-2455317D02*
X1794515Y-2455317D01*
X2023087Y-2521984D02*
X2023087Y-2321984D01*
X2108801Y-2521984D02*
X2108801Y-2417222D01*
X2108801Y-2417222D02*
X2099277Y-2398174D01*
X2099277Y-2398174D02*
X2080230Y-2388650D01*
X2080230Y-2388650D02*
X2051658Y-2388650D01*
X2051658Y-2388650D02*
X2032610Y-2398174D01*
X2032610Y-2398174D02*
X2023087Y-2407698D01*
X2232611Y-2521984D02*
X2213563Y-2512460D01*
X2213563Y-2512460D02*
X2204039Y-2502936D01*
X2204039Y-2502936D02*
X2194515Y-2483889D01*
X2194515Y-2483889D02*
X2194515Y-2426746D01*
X2194515Y-2426746D02*
X2204039Y-2407698D01*
X2204039Y-2407698D02*
X2213563Y-2398174D01*
X2213563Y-2398174D02*
X2232611Y-2388650D01*
X2232611Y-2388650D02*
X2261182Y-2388650D01*
X2261182Y-2388650D02*
X2280230Y-2398174D01*
X2280230Y-2398174D02*
X2289753Y-2407698D01*
X2289753Y-2407698D02*
X2299277Y-2426746D01*
X2299277Y-2426746D02*
X2299277Y-2483889D01*
X2299277Y-2483889D02*
X2289753Y-2502936D01*
X2289753Y-2502936D02*
X2280230Y-2512460D01*
X2280230Y-2512460D02*
X2261182Y-2521984D01*
X2261182Y-2521984D02*
X2232611Y-2521984D01*
X2413563Y-2521984D02*
X2394515Y-2512460D01*
X2394515Y-2512460D02*
X2384992Y-2493412D01*
X2384992Y-2493412D02*
X2384992Y-2321984D01*
X2565944Y-2512460D02*
X2546896Y-2521984D01*
X2546896Y-2521984D02*
X2508801Y-2521984D01*
X2508801Y-2521984D02*
X2489753Y-2512460D01*
X2489753Y-2512460D02*
X2480230Y-2493412D01*
X2480230Y-2493412D02*
X2480230Y-2417222D01*
X2480230Y-2417222D02*
X2489753Y-2398174D01*
X2489753Y-2398174D02*
X2508801Y-2388650D01*
X2508801Y-2388650D02*
X2546896Y-2388650D01*
X2546896Y-2388650D02*
X2565944Y-2398174D01*
X2565944Y-2398174D02*
X2575468Y-2417222D01*
X2575468Y-2417222D02*
X2575468Y-2436270D01*
X2575468Y-2436270D02*
X2480230Y-2455317D01*
X2651658Y-2512460D02*
X2670706Y-2521984D01*
X2670706Y-2521984D02*
X2708801Y-2521984D01*
X2708801Y-2521984D02*
X2727849Y-2512460D01*
X2727849Y-2512460D02*
X2737373Y-2493412D01*
X2737373Y-2493412D02*
X2737373Y-2483889D01*
X2737373Y-2483889D02*
X2727849Y-2464841D01*
X2727849Y-2464841D02*
X2708801Y-2455317D01*
X2708801Y-2455317D02*
X2680230Y-2455317D01*
X2680230Y-2455317D02*
X2661182Y-2445793D01*
X2661182Y-2445793D02*
X2651658Y-2426746D01*
X2651658Y-2426746D02*
X2651658Y-2417222D01*
X2651658Y-2417222D02*
X2661182Y-2398174D01*
X2661182Y-2398174D02*
X2680230Y-2388650D01*
X2680230Y-2388650D02*
X2708801Y-2388650D01*
X2708801Y-2388650D02*
X2727849Y-2398174D01*
X2804039Y-2598174D02*
X2813563Y-2588650D01*
X2813563Y-2588650D02*
X2832611Y-2560079D01*
X2832611Y-2560079D02*
X2842134Y-2541031D01*
X2842134Y-2541031D02*
X2851658Y-2512460D01*
X2851658Y-2512460D02*
X2861182Y-2464841D01*
X2861182Y-2464841D02*
X2861182Y-2426746D01*
X2861182Y-2426746D02*
X2851658Y-2379127D01*
X2851658Y-2379127D02*
X2842134Y-2350555D01*
X2842134Y-2350555D02*
X2832611Y-2331508D01*
X2832611Y-2331508D02*
X2813563Y-2302936D01*
X2813563Y-2302936D02*
X2804039Y-2293412D01*
X-2261500Y-2594500D02*
X-2261500Y-2794500D01*
X-2361500Y-2694500D02*
X-2161500Y-2694500D01*
X-1910247Y-2605031D02*
X-1900723Y-2595508D01*
X-1900723Y-2595508D02*
X-1881675Y-2585984D01*
X-1881675Y-2585984D02*
X-1834056Y-2585984D01*
X-1834056Y-2585984D02*
X-1815009Y-2595508D01*
X-1815009Y-2595508D02*
X-1805485Y-2605031D01*
X-1805485Y-2605031D02*
X-1795961Y-2624079D01*
X-1795961Y-2624079D02*
X-1795961Y-2643127D01*
X-1795961Y-2643127D02*
X-1805485Y-2671698D01*
X-1805485Y-2671698D02*
X-1919771Y-2785984D01*
X-1919771Y-2785984D02*
X-1795961Y-2785984D01*
X-1710247Y-2766936D02*
X-1700723Y-2776460D01*
X-1700723Y-2776460D02*
X-1710247Y-2785984D01*
X-1710247Y-2785984D02*
X-1719771Y-2776460D01*
X-1719771Y-2776460D02*
X-1710247Y-2766936D01*
X-1710247Y-2766936D02*
X-1710247Y-2785984D01*
X-1519771Y-2585984D02*
X-1615009Y-2585984D01*
X-1615009Y-2585984D02*
X-1624533Y-2681222D01*
X-1624533Y-2681222D02*
X-1615009Y-2671698D01*
X-1615009Y-2671698D02*
X-1595961Y-2662174D01*
X-1595961Y-2662174D02*
X-1548342Y-2662174D01*
X-1548342Y-2662174D02*
X-1529294Y-2671698D01*
X-1529294Y-2671698D02*
X-1519771Y-2681222D01*
X-1519771Y-2681222D02*
X-1510247Y-2700270D01*
X-1510247Y-2700270D02*
X-1510247Y-2747889D01*
X-1510247Y-2747889D02*
X-1519771Y-2766936D01*
X-1519771Y-2766936D02*
X-1529294Y-2776460D01*
X-1529294Y-2776460D02*
X-1548342Y-2785984D01*
X-1548342Y-2785984D02*
X-1595961Y-2785984D01*
X-1595961Y-2785984D02*
X-1615009Y-2776460D01*
X-1615009Y-2776460D02*
X-1624533Y-2766936D01*
X-1386437Y-2585984D02*
X-1367390Y-2585984D01*
X-1367390Y-2585984D02*
X-1348342Y-2595508D01*
X-1348342Y-2595508D02*
X-1338818Y-2605031D01*
X-1338818Y-2605031D02*
X-1329295Y-2624079D01*
X-1329295Y-2624079D02*
X-1319771Y-2662174D01*
X-1319771Y-2662174D02*
X-1319771Y-2709793D01*
X-1319771Y-2709793D02*
X-1329295Y-2747889D01*
X-1329295Y-2747889D02*
X-1338818Y-2766936D01*
X-1338818Y-2766936D02*
X-1348342Y-2776460D01*
X-1348342Y-2776460D02*
X-1367390Y-2785984D01*
X-1367390Y-2785984D02*
X-1386437Y-2785984D01*
X-1386437Y-2785984D02*
X-1405485Y-2776460D01*
X-1405485Y-2776460D02*
X-1415009Y-2766936D01*
X-1415009Y-2766936D02*
X-1424533Y-2747889D01*
X-1424533Y-2747889D02*
X-1434056Y-2709793D01*
X-1434056Y-2709793D02*
X-1434056Y-2662174D01*
X-1434056Y-2662174D02*
X-1424533Y-2624079D01*
X-1424533Y-2624079D02*
X-1415009Y-2605031D01*
X-1415009Y-2605031D02*
X-1405485Y-2595508D01*
X-1405485Y-2595508D02*
X-1386437Y-2585984D01*
X-1195961Y-2585984D02*
X-1176914Y-2585984D01*
X-1176914Y-2585984D02*
X-1157866Y-2595508D01*
X-1157866Y-2595508D02*
X-1148342Y-2605031D01*
X-1148342Y-2605031D02*
X-1138818Y-2624079D01*
X-1138818Y-2624079D02*
X-1129295Y-2662174D01*
X-1129295Y-2662174D02*
X-1129295Y-2709793D01*
X-1129295Y-2709793D02*
X-1138818Y-2747889D01*
X-1138818Y-2747889D02*
X-1148342Y-2766936D01*
X-1148342Y-2766936D02*
X-1157866Y-2776460D01*
X-1157866Y-2776460D02*
X-1176914Y-2785984D01*
X-1176914Y-2785984D02*
X-1195961Y-2785984D01*
X-1195961Y-2785984D02*
X-1215009Y-2776460D01*
X-1215009Y-2776460D02*
X-1224533Y-2766936D01*
X-1224533Y-2766936D02*
X-1234056Y-2747889D01*
X-1234056Y-2747889D02*
X-1243580Y-2709793D01*
X-1243580Y-2709793D02*
X-1243580Y-2662174D01*
X-1243580Y-2662174D02*
X-1234056Y-2624079D01*
X-1234056Y-2624079D02*
X-1224533Y-2605031D01*
X-1224533Y-2605031D02*
X-1215009Y-2595508D01*
X-1215009Y-2595508D02*
X-1195961Y-2585984D01*
X-1043580Y-2785984D02*
X-1043580Y-2652650D01*
X-1043580Y-2671698D02*
X-1034056Y-2662174D01*
X-1034056Y-2662174D02*
X-1015009Y-2652650D01*
X-1015009Y-2652650D02*
X-986437Y-2652650D01*
X-986437Y-2652650D02*
X-967390Y-2662174D01*
X-967390Y-2662174D02*
X-957866Y-2681222D01*
X-957866Y-2681222D02*
X-957866Y-2785984D01*
X-957866Y-2681222D02*
X-948342Y-2662174D01*
X-948342Y-2662174D02*
X-929294Y-2652650D01*
X-929294Y-2652650D02*
X-900723Y-2652650D01*
X-900723Y-2652650D02*
X-881675Y-2662174D01*
X-881675Y-2662174D02*
X-872152Y-2681222D01*
X-872152Y-2681222D02*
X-872152Y-2785984D01*
X-776913Y-2785984D02*
X-776913Y-2652650D01*
X-776913Y-2671698D02*
X-767390Y-2662174D01*
X-767390Y-2662174D02*
X-748342Y-2652650D01*
X-748342Y-2652650D02*
X-719771Y-2652650D01*
X-719771Y-2652650D02*
X-700723Y-2662174D01*
X-700723Y-2662174D02*
X-691199Y-2681222D01*
X-691199Y-2681222D02*
X-691199Y-2785984D01*
X-691199Y-2681222D02*
X-681675Y-2662174D01*
X-681675Y-2662174D02*
X-662628Y-2652650D01*
X-662628Y-2652650D02*
X-634056Y-2652650D01*
X-634056Y-2652650D02*
X-615009Y-2662174D01*
X-615009Y-2662174D02*
X-605485Y-2681222D01*
X-605485Y-2681222D02*
X-605485Y-2785984D01*
X-215009Y-2576460D02*
X-386437Y-2833603D01*
X42134Y-2585984D02*
X61182Y-2585984D01*
X61182Y-2585984D02*
X80229Y-2595508D01*
X80229Y-2595508D02*
X89753Y-2605031D01*
X89753Y-2605031D02*
X99277Y-2624079D01*
X99277Y-2624079D02*
X108801Y-2662174D01*
X108801Y-2662174D02*
X108801Y-2709793D01*
X108801Y-2709793D02*
X99277Y-2747889D01*
X99277Y-2747889D02*
X89753Y-2766936D01*
X89753Y-2766936D02*
X80229Y-2776460D01*
X80229Y-2776460D02*
X61182Y-2785984D01*
X61182Y-2785984D02*
X42134Y-2785984D01*
X42134Y-2785984D02*
X23086Y-2776460D01*
X23086Y-2776460D02*
X13563Y-2766936D01*
X13563Y-2766936D02*
X4039Y-2747889D01*
X4039Y-2747889D02*
X-5485Y-2709793D01*
X-5485Y-2709793D02*
X-5485Y-2662174D01*
X-5485Y-2662174D02*
X4039Y-2624079D01*
X4039Y-2624079D02*
X13563Y-2605031D01*
X13563Y-2605031D02*
X23086Y-2595508D01*
X23086Y-2595508D02*
X42134Y-2585984D01*
X194515Y-2766936D02*
X204039Y-2776460D01*
X204039Y-2776460D02*
X194515Y-2785984D01*
X194515Y-2785984D02*
X184991Y-2776460D01*
X184991Y-2776460D02*
X194515Y-2766936D01*
X194515Y-2766936D02*
X194515Y-2785984D01*
X327848Y-2585984D02*
X346896Y-2585984D01*
X346896Y-2585984D02*
X365944Y-2595508D01*
X365944Y-2595508D02*
X375467Y-2605031D01*
X375467Y-2605031D02*
X384991Y-2624079D01*
X384991Y-2624079D02*
X394515Y-2662174D01*
X394515Y-2662174D02*
X394515Y-2709793D01*
X394515Y-2709793D02*
X384991Y-2747889D01*
X384991Y-2747889D02*
X375467Y-2766936D01*
X375467Y-2766936D02*
X365944Y-2776460D01*
X365944Y-2776460D02*
X346896Y-2785984D01*
X346896Y-2785984D02*
X327848Y-2785984D01*
X327848Y-2785984D02*
X308801Y-2776460D01*
X308801Y-2776460D02*
X299277Y-2766936D01*
X299277Y-2766936D02*
X289753Y-2747889D01*
X289753Y-2747889D02*
X280229Y-2709793D01*
X280229Y-2709793D02*
X280229Y-2662174D01*
X280229Y-2662174D02*
X289753Y-2624079D01*
X289753Y-2624079D02*
X299277Y-2605031D01*
X299277Y-2605031D02*
X308801Y-2595508D01*
X308801Y-2595508D02*
X327848Y-2585984D01*
X489753Y-2785984D02*
X527848Y-2785984D01*
X527848Y-2785984D02*
X546896Y-2776460D01*
X546896Y-2776460D02*
X556420Y-2766936D01*
X556420Y-2766936D02*
X575468Y-2738365D01*
X575468Y-2738365D02*
X584991Y-2700270D01*
X584991Y-2700270D02*
X584991Y-2624079D01*
X584991Y-2624079D02*
X575468Y-2605031D01*
X575468Y-2605031D02*
X565944Y-2595508D01*
X565944Y-2595508D02*
X546896Y-2585984D01*
X546896Y-2585984D02*
X508801Y-2585984D01*
X508801Y-2585984D02*
X489753Y-2595508D01*
X489753Y-2595508D02*
X480229Y-2605031D01*
X480229Y-2605031D02*
X470706Y-2624079D01*
X470706Y-2624079D02*
X470706Y-2671698D01*
X470706Y-2671698D02*
X480229Y-2690746D01*
X480229Y-2690746D02*
X489753Y-2700270D01*
X489753Y-2700270D02*
X508801Y-2709793D01*
X508801Y-2709793D02*
X546896Y-2709793D01*
X546896Y-2709793D02*
X565944Y-2700270D01*
X565944Y-2700270D02*
X575468Y-2690746D01*
X575468Y-2690746D02*
X584991Y-2671698D01*
X699277Y-2671698D02*
X680229Y-2662174D01*
X680229Y-2662174D02*
X670706Y-2652650D01*
X670706Y-2652650D02*
X661182Y-2633603D01*
X661182Y-2633603D02*
X661182Y-2624079D01*
X661182Y-2624079D02*
X670706Y-2605031D01*
X670706Y-2605031D02*
X680229Y-2595508D01*
X680229Y-2595508D02*
X699277Y-2585984D01*
X699277Y-2585984D02*
X737372Y-2585984D01*
X737372Y-2585984D02*
X756420Y-2595508D01*
X756420Y-2595508D02*
X765944Y-2605031D01*
X765944Y-2605031D02*
X775467Y-2624079D01*
X775467Y-2624079D02*
X775467Y-2633603D01*
X775467Y-2633603D02*
X765944Y-2652650D01*
X765944Y-2652650D02*
X756420Y-2662174D01*
X756420Y-2662174D02*
X737372Y-2671698D01*
X737372Y-2671698D02*
X699277Y-2671698D01*
X699277Y-2671698D02*
X680229Y-2681222D01*
X680229Y-2681222D02*
X670706Y-2690746D01*
X670706Y-2690746D02*
X661182Y-2709793D01*
X661182Y-2709793D02*
X661182Y-2747889D01*
X661182Y-2747889D02*
X670706Y-2766936D01*
X670706Y-2766936D02*
X680229Y-2776460D01*
X680229Y-2776460D02*
X699277Y-2785984D01*
X699277Y-2785984D02*
X737372Y-2785984D01*
X737372Y-2785984D02*
X756420Y-2776460D01*
X756420Y-2776460D02*
X765944Y-2766936D01*
X765944Y-2766936D02*
X775467Y-2747889D01*
X775467Y-2747889D02*
X775467Y-2709793D01*
X775467Y-2709793D02*
X765944Y-2690746D01*
X765944Y-2690746D02*
X756420Y-2681222D01*
X756420Y-2681222D02*
X737372Y-2671698D01*
X946896Y-2652650D02*
X946896Y-2785984D01*
X899277Y-2576460D02*
X851658Y-2719317D01*
X851658Y-2719317D02*
X975467Y-2719317D01*
X1042134Y-2585984D02*
X1042134Y-2624079D01*
X1118325Y-2585984D02*
X1118325Y-2624079D01*
X1413563Y-2862174D02*
X1404039Y-2852650D01*
X1404039Y-2852650D02*
X1384991Y-2824079D01*
X1384991Y-2824079D02*
X1375468Y-2805031D01*
X1375468Y-2805031D02*
X1365944Y-2776460D01*
X1365944Y-2776460D02*
X1356420Y-2728841D01*
X1356420Y-2728841D02*
X1356420Y-2690746D01*
X1356420Y-2690746D02*
X1365944Y-2643127D01*
X1365944Y-2643127D02*
X1375468Y-2614555D01*
X1375468Y-2614555D02*
X1384991Y-2595508D01*
X1384991Y-2595508D02*
X1404039Y-2566936D01*
X1404039Y-2566936D02*
X1413563Y-2557412D01*
X1575468Y-2652650D02*
X1575468Y-2785984D01*
X1527848Y-2576460D02*
X1480229Y-2719317D01*
X1480229Y-2719317D02*
X1604039Y-2719317D01*
X1832610Y-2785984D02*
X1832610Y-2585984D01*
X1918325Y-2785984D02*
X1918325Y-2681222D01*
X1918325Y-2681222D02*
X1908801Y-2662174D01*
X1908801Y-2662174D02*
X1889753Y-2652650D01*
X1889753Y-2652650D02*
X1861182Y-2652650D01*
X1861182Y-2652650D02*
X1842134Y-2662174D01*
X1842134Y-2662174D02*
X1832610Y-2671698D01*
X2042134Y-2785984D02*
X2023087Y-2776460D01*
X2023087Y-2776460D02*
X2013563Y-2766936D01*
X2013563Y-2766936D02*
X2004039Y-2747889D01*
X2004039Y-2747889D02*
X2004039Y-2690746D01*
X2004039Y-2690746D02*
X2013563Y-2671698D01*
X2013563Y-2671698D02*
X2023087Y-2662174D01*
X2023087Y-2662174D02*
X2042134Y-2652650D01*
X2042134Y-2652650D02*
X2070706Y-2652650D01*
X2070706Y-2652650D02*
X2089753Y-2662174D01*
X2089753Y-2662174D02*
X2099277Y-2671698D01*
X2099277Y-2671698D02*
X2108801Y-2690746D01*
X2108801Y-2690746D02*
X2108801Y-2747889D01*
X2108801Y-2747889D02*
X2099277Y-2766936D01*
X2099277Y-2766936D02*
X2089753Y-2776460D01*
X2089753Y-2776460D02*
X2070706Y-2785984D01*
X2070706Y-2785984D02*
X2042134Y-2785984D01*
X2223087Y-2785984D02*
X2204039Y-2776460D01*
X2204039Y-2776460D02*
X2194515Y-2757412D01*
X2194515Y-2757412D02*
X2194515Y-2585984D01*
X2375468Y-2776460D02*
X2356420Y-2785984D01*
X2356420Y-2785984D02*
X2318325Y-2785984D01*
X2318325Y-2785984D02*
X2299277Y-2776460D01*
X2299277Y-2776460D02*
X2289753Y-2757412D01*
X2289753Y-2757412D02*
X2289753Y-2681222D01*
X2289753Y-2681222D02*
X2299277Y-2662174D01*
X2299277Y-2662174D02*
X2318325Y-2652650D01*
X2318325Y-2652650D02*
X2356420Y-2652650D01*
X2356420Y-2652650D02*
X2375468Y-2662174D01*
X2375468Y-2662174D02*
X2384992Y-2681222D01*
X2384992Y-2681222D02*
X2384992Y-2700270D01*
X2384992Y-2700270D02*
X2289753Y-2719317D01*
X2461182Y-2776460D02*
X2480230Y-2785984D01*
X2480230Y-2785984D02*
X2518325Y-2785984D01*
X2518325Y-2785984D02*
X2537373Y-2776460D01*
X2537373Y-2776460D02*
X2546896Y-2757412D01*
X2546896Y-2757412D02*
X2546896Y-2747889D01*
X2546896Y-2747889D02*
X2537373Y-2728841D01*
X2537373Y-2728841D02*
X2518325Y-2719317D01*
X2518325Y-2719317D02*
X2489753Y-2719317D01*
X2489753Y-2719317D02*
X2470706Y-2709793D01*
X2470706Y-2709793D02*
X2461182Y-2690746D01*
X2461182Y-2690746D02*
X2461182Y-2681222D01*
X2461182Y-2681222D02*
X2470706Y-2662174D01*
X2470706Y-2662174D02*
X2489753Y-2652650D01*
X2489753Y-2652650D02*
X2518325Y-2652650D01*
X2518325Y-2652650D02*
X2537373Y-2662174D01*
X2613563Y-2862174D02*
X2623087Y-2852650D01*
X2623087Y-2852650D02*
X2642134Y-2824079D01*
X2642134Y-2824079D02*
X2651658Y-2805031D01*
X2651658Y-2805031D02*
X2661182Y-2776460D01*
X2661182Y-2776460D02*
X2670706Y-2728841D01*
X2670706Y-2728841D02*
X2670706Y-2690746D01*
X2670706Y-2690746D02*
X2661182Y-2643127D01*
X2661182Y-2643127D02*
X2651658Y-2614555D01*
X2651658Y-2614555D02*
X2642134Y-2595508D01*
X2642134Y-2595508D02*
X2623087Y-2566936D01*
X2623087Y-2566936D02*
X2613563Y-2557412D01*
M02*
