%TF.GenerationSoftware,KiCad,Pcbnew,10.99.0-3671-gbe90a7e200*%
%TF.CreationDate,2026-09-09T22:52:18+01:00*%
%TF.ProjectId,kicad_file,6b696361-645f-4666-996c-652e6b696361,rev?*%
%TF.SameCoordinates,Original*%
%TF.FileFunction,Copper,L1,Top*%
%TF.FilePolarity,Positive*%
%FSLAX46Y46*%
G04 Gerber Fmt 4.6, Leading zero omitted, Abs format (unit mm)*
G04 Created by KiCad (PCBNEW 10.99.0-3671-gbe90a7e200) date 2026-09-09 22:52:18*
%MOMM*%
%LPD*%
G01*
G04 APERTURE LIST*
G04 Aperture macros list*
%AMRoundRect*
0 Rectangle with rounded corners*
0 $1 Rounding radius*
0 $2 $3 $4 $5 $6 $7 $8 $9 X,Y pos of 4 corners*
0 Add a 4 corners polygon primitive as box body*
4,1,4,$2,$3,$4,$5,$6,$7,$8,$9,$2,$3,0*
0 Add four circle primitives for the rounded corners*
1,1,$1+$1,$2,$3*
1,1,$1+$1,$4,$5*
1,1,$1+$1,$6,$7*
1,1,$1+$1,$8,$9*
0 Add four rect primitives between the rounded corners*
20,1,$1+$1,$2,$3,$4,$5,0*
20,1,$1+$1,$4,$5,$6,$7,0*
20,1,$1+$1,$6,$7,$8,$9,0*
20,1,$1+$1,$8,$9,$2,$3,0*%
G04 Aperture macros list end*
%TA.AperFunction,SMDPad,CuDef*%
%ADD10R,1.600200X1.168400*%
%TD*%
%TA.AperFunction,SMDPad,CuDef*%
%ADD11R,0.203200X0.635000*%
%TD*%
%TA.AperFunction,SMDPad,CuDef*%
%ADD12R,1.100000X1.400000*%
%TD*%
%TA.AperFunction,SMDPad,CuDef*%
%ADD13R,1.168400X1.600200*%
%TD*%
%TA.AperFunction,SMDPad,CuDef*%
%ADD14R,1.300000X1.500000*%
%TD*%
%TA.AperFunction,SMDPad,CuDef*%
%ADD15R,1.500000X0.700000*%
%TD*%
%TA.AperFunction,SMDPad,CuDef*%
%ADD16R,1.400000X1.800000*%
%TD*%
%TA.AperFunction,SMDPad,CuDef*%
%ADD17R,1.900000X1.400000*%
%TD*%
%TA.AperFunction,SMDPad,CuDef*%
%ADD18R,1.500000X1.300000*%
%TD*%
%TA.AperFunction,SMDPad,CuDef*%
%ADD19R,0.550000X1.200000*%
%TD*%
%TA.AperFunction,SMDPad,CuDef*%
%ADD20R,0.280000X0.800000*%
%TD*%
%TA.AperFunction,SMDPad,CuDef*%
%ADD21R,0.800000X0.280000*%
%TD*%
%TA.AperFunction,SMDPad,CuDef*%
%ADD22R,1.500000X1.500000*%
%TD*%
%TA.AperFunction,SMDPad,CuDef*%
%ADD23RoundRect,0.500000X0.000010X0.000010X-0.000010X0.000010X-0.000010X-0.000010X0.000010X-0.000010X0*%
%TD*%
%TA.AperFunction,SMDPad,CuDef*%
%ADD24R,2.200000X0.600000*%
%TD*%
%TA.AperFunction,SMDPad,CuDef*%
%ADD25R,0.800000X1.000000*%
%TD*%
%TA.AperFunction,SMDPad,CuDef*%
%ADD26R,1.000000X1.400000*%
%TD*%
%TA.AperFunction,SMDPad,CuDef*%
%ADD27R,1.400000X1.000000*%
%TD*%
%TA.AperFunction,SMDPad,CuDef*%
%ADD28R,3.200000X1.200000*%
%TD*%
%TA.AperFunction,SMDPad,CuDef*%
%ADD29R,1.400000X1.100000*%
%TD*%
%TA.AperFunction,SMDPad,CuDef*%
%ADD30RoundRect,0.500000X-0.000010X-0.000010X0.000010X-0.000010X0.000010X0.000010X-0.000010X0.000010X0*%
%TD*%
%TA.AperFunction,SMDPad,CuDef*%
%ADD31R,1.200000X0.275000*%
%TD*%
%TA.AperFunction,SMDPad,CuDef*%
%ADD32RoundRect,0.300000X0.900000X-0.900000X0.900000X0.900000X-0.900000X0.900000X-0.900000X-0.900000X0*%
%TD*%
%TA.AperFunction,WasherPad*%
%ADD33C,2.508000*%
%TD*%
%TA.AperFunction,SMDPad,CuDef*%
%ADD34R,1.016000X2.794000*%
%TD*%
%TA.AperFunction,SMDPad,CuDef*%
%ADD35R,2.794000X1.016000*%
%TD*%
%TA.AperFunction,ViaPad*%
%ADD36C,0.906400*%
%TD*%
%TA.AperFunction,Conductor*%
%ADD37C,0.254000*%
%TD*%
%TA.AperFunction,Conductor*%
%ADD38C,0.609600*%
%TD*%
%TA.AperFunction,Conductor*%
%ADD39C,0.406400*%
%TD*%
G04 APERTURE END LIST*
D10*
%TO.P,SJ1,1*%
%TO.N,N$15*%
X63500000Y10922000D03*
%TO.P,SJ1,2*%
%TO.N,MOSI_5V*%
X63500000Y12446000D03*
D11*
%TO.P,SJ1,WIRE*%
%TO.N,N/C*%
X63500000Y11684000D03*
%TD*%
D12*
%TO.P,C4,1*%
%TO.N,VCC*%
X5096000Y41656000D03*
%TO.P,C4,2*%
%TO.N,GND*%
X7096000Y41656000D03*
%TD*%
D10*
%TO.P,ICSP_CLK0,1*%
%TO.N,SCLK_5V*%
X58928000Y16764000D03*
%TO.P,ICSP_CLK0,2*%
%TO.N,N$12*%
X58928000Y18288000D03*
%TD*%
D13*
%TO.P,PIN3,1*%
%TO.N,N$5*%
X54356000Y7620000D03*
%TO.P,PIN3,2*%
%TO.N,N$7*%
X55880000Y7620000D03*
%TD*%
D14*
%TO.P,R1,1*%
%TO.N,+5V*%
X36642000Y12954000D03*
%TO.P,R1,2*%
%TO.N,N$2*%
X38542000Y12954000D03*
%TD*%
D15*
%TO.P,U$3,1*%
%TO.N,N/C*%
X6124000Y29608000D03*
%TO.P,U$3,2*%
%TO.N,CARD_CS_3V*%
X6524000Y30708000D03*
%TO.P,U$3,3*%
%TO.N,MOSI_3V*%
X6124000Y31808000D03*
%TO.P,U$3,4*%
%TO.N,VCC*%
X5724000Y32908000D03*
%TO.P,U$3,5*%
%TO.N,SCLK_3V*%
X6124000Y34008000D03*
%TO.P,U$3,6*%
%TO.N,GND*%
X5724000Y35108000D03*
%TO.P,U$3,7*%
%TO.N,MISO*%
X6124000Y36208000D03*
%TO.P,U$3,8*%
%TO.N,N/C*%
X6124000Y37308000D03*
D16*
%TO.P,U$3,CD1*%
X16324000Y36608000D03*
%TO.P,U$3,CD2*%
X16324000Y30608000D03*
D17*
%TO.P,U$3,MT1*%
%TO.N,GND*%
X3224000Y38208000D03*
%TO.P,U$3,MT2*%
X2324000Y25008000D03*
%TD*%
D18*
%TO.P,R9,1*%
%TO.N,N$5*%
X34544000Y10988000D03*
%TO.P,R9,2*%
%TO.N,+5V*%
X34544000Y12888000D03*
%TD*%
D14*
%TO.P,R5,1*%
%TO.N,N$5*%
X36642000Y9906000D03*
%TO.P,R5,2*%
%TO.N,N$16*%
X38542000Y9906000D03*
%TD*%
D19*
%TO.P,IC4,1*%
%TO.N,+5V*%
X39304000Y46512000D03*
%TO.P,IC4,2*%
%TO.N,GND*%
X38354000Y46512000D03*
%TO.P,IC4,3*%
%TO.N,+5V*%
X37404000Y46512000D03*
%TO.P,IC4,4*%
%TO.N,N/C*%
X37404000Y43912000D03*
%TO.P,IC4,5*%
%TO.N,VCC*%
X39304000Y43912000D03*
%TD*%
D20*
%TO.P,U2,1*%
%TO.N,YU*%
X36818000Y37060000D03*
%TO.P,U2,2*%
%TO.N,TS_INT*%
X36318000Y37060000D03*
%TO.P,U2,3*%
%TO.N,MISO*%
X35818000Y37060000D03*
%TO.P,U2,4*%
%TO.N,SCLK_3V*%
X35318000Y37060000D03*
D21*
%TO.P,U2,5*%
%TO.N,RT_CS_3V*%
X34568000Y36310000D03*
%TO.P,U2,6*%
%TO.N,VCC*%
X34568000Y35810000D03*
%TO.P,U2,7*%
%TO.N,MOSI_3V*%
X34568000Y35310000D03*
%TO.P,U2,8*%
%TO.N,N/C*%
X34568000Y34810000D03*
D20*
%TO.P,U2,9*%
%TO.N,VCC*%
X35318000Y34060000D03*
%TO.P,U2,10*%
%TO.N,GND*%
X35818000Y34060000D03*
%TO.P,U2,11*%
%TO.N,N/C*%
X36318000Y34060000D03*
%TO.P,U2,12*%
X36818000Y34060000D03*
D21*
%TO.P,U2,13*%
%TO.N,XR*%
X37568000Y34810000D03*
%TO.P,U2,14*%
%TO.N,VCC*%
X37568000Y35310000D03*
%TO.P,U2,15*%
%TO.N,YD*%
X37568000Y35810000D03*
%TO.P,U2,16*%
%TO.N,XL*%
X37568000Y36310000D03*
D22*
%TO.P,U2,THERMAL*%
%TO.N,N/C*%
X36068000Y35560000D03*
%TD*%
D13*
%TO.P,ICSP_SI1,1*%
%TO.N,TS_INT*%
X45974000Y7366000D03*
%TO.P,ICSP_SI1,2*%
%TO.N,D7*%
X47498000Y7366000D03*
%TD*%
D23*
%TO.P,U$10,1*%
%TO.N,N/C*%
X66294000Y47498000D03*
%TD*%
D10*
%TO.P,ICSP_SI0,1*%
%TO.N,MOSI_5V*%
X63500000Y16764000D03*
%TO.P,ICSP_SI0,2*%
%TO.N,N$6*%
X63500000Y18288000D03*
%TD*%
D12*
%TO.P,C2,1*%
%TO.N,VCC*%
X39354000Y39878000D03*
%TO.P,C2,2*%
%TO.N,GND*%
X37354000Y39878000D03*
%TD*%
D10*
%TO.P,SJ3,1*%
%TO.N,N$13*%
X58928000Y10922000D03*
%TO.P,SJ3,2*%
%TO.N,SCLK_5V*%
X58928000Y12446000D03*
D11*
%TO.P,SJ3,WIRE*%
%TO.N,N/C*%
X58928000Y11684000D03*
%TD*%
D24*
%TO.P,U3,1*%
%TO.N,VCC*%
X27626000Y32639000D03*
%TO.P,U3,2*%
%TO.N,SCLK_3V*%
X27626000Y31369000D03*
%TO.P,U3,3*%
%TO.N,SCLK_5V*%
X27626000Y30099000D03*
%TO.P,U3,4*%
%TO.N,CARD_CS_3V*%
X27626000Y28829000D03*
%TO.P,U3,5*%
%TO.N,CARDCS_5V*%
X27626000Y27559000D03*
%TO.P,U3,6*%
%TO.N,TFT_DC_3V*%
X27626000Y26289000D03*
%TO.P,U3,7*%
%TO.N,TFT_DC_5V*%
X27626000Y25019000D03*
%TO.P,U3,8*%
%TO.N,GND*%
X27626000Y23749000D03*
%TO.P,U3,9*%
%TO.N,TFT_CS_5V*%
X32826000Y23749000D03*
%TO.P,U3,10*%
%TO.N,TFT_CS_3V*%
X32826000Y25019000D03*
%TO.P,U3,11*%
%TO.N,MOSI_5V*%
X32826000Y26289000D03*
%TO.P,U3,12*%
%TO.N,MOSI_3V*%
X32826000Y27559000D03*
%TO.P,U3,13*%
%TO.N,N/C*%
X32826000Y28829000D03*
%TO.P,U3,14*%
%TO.N,RT_CS_5V*%
X32826000Y30099000D03*
%TO.P,U3,15*%
%TO.N,RT_CS_3V*%
X32826000Y31369000D03*
%TO.P,U3,16*%
%TO.N,N/C*%
X32826000Y32639000D03*
%TD*%
D14*
%TO.P,R2,1*%
%TO.N,+5V*%
X36642000Y14986000D03*
%TO.P,R2,2*%
%TO.N,N$3*%
X38542000Y14986000D03*
%TD*%
D25*
%TO.P,D1,A*%
%TO.N,TFT_RST*%
X33274000Y44720000D03*
%TO.P,D1,C*%
%TO.N,N$8*%
X33274000Y46720000D03*
%TD*%
D12*
%TO.P,C1,1*%
%TO.N,VCC*%
X39354000Y41656000D03*
%TO.P,C1,2*%
%TO.N,GND*%
X37354000Y41656000D03*
%TD*%
D26*
%TO.P,IC5,1*%
%TO.N,GND*%
X34986000Y42756000D03*
%TO.P,IC5,2*%
%TO.N,TFT_RST*%
X33086000Y42756000D03*
%TO.P,IC5,3*%
%TO.N,VCC*%
X34036000Y40556000D03*
%TD*%
D23*
%TO.P,U$11,1*%
%TO.N,N/C*%
X5842000Y3302000D03*
%TD*%
D14*
%TO.P,R4,1*%
%TO.N,+5V*%
X36642000Y19050000D03*
%TO.P,R4,2*%
%TO.N,N$10*%
X38542000Y19050000D03*
%TD*%
D10*
%TO.P,ICSP_SO0,1*%
%TO.N,MISO*%
X61214000Y16764000D03*
%TO.P,ICSP_SO0,2*%
%TO.N,N$11*%
X61214000Y18288000D03*
%TD*%
D27*
%TO.P,Q1,B*%
%TO.N,N$16*%
X40556000Y10348000D03*
%TO.P,Q1,C*%
%TO.N,N$1*%
X42756000Y9398000D03*
%TO.P,Q1,E*%
%TO.N,GND*%
X40556000Y8448000D03*
%TD*%
D10*
%TO.P,SJ2,1*%
%TO.N,N$14*%
X61214000Y10922000D03*
%TO.P,SJ2,2*%
%TO.N,MISO*%
X61214000Y12446000D03*
D11*
%TO.P,SJ2,WIRE*%
%TO.N,N/C*%
X61214000Y11684000D03*
%TD*%
D28*
%TO.P,SW1,A*%
%TO.N,GND*%
X2442000Y1302000D03*
%TO.P,SW1,A'*%
X9242000Y1302000D03*
%TO.P,SW1,B*%
%TO.N,N$8*%
X2442000Y5302000D03*
%TO.P,SW1,B'*%
X9242000Y5302000D03*
%TD*%
D14*
%TO.P,R8,1*%
%TO.N,CARDCS_5V*%
X52258000Y9398000D03*
%TO.P,R8,2*%
%TO.N,VCC*%
X50358000Y9398000D03*
%TD*%
D18*
%TO.P,R6,1*%
%TO.N,TFT_RST*%
X30734000Y42606000D03*
%TO.P,R6,2*%
%TO.N,VCC*%
X30734000Y40706000D03*
%TD*%
D14*
%TO.P,R7,1*%
%TO.N,RT_CS_5V*%
X45278000Y9398000D03*
%TO.P,R7,2*%
%TO.N,VCC*%
X47178000Y9398000D03*
%TD*%
D29*
%TO.P,C3,1*%
%TO.N,VCC*%
X38608000Y23352000D03*
%TO.P,C3,2*%
%TO.N,GND*%
X38608000Y21352000D03*
%TD*%
D30*
%TO.P,U$19,1*%
%TO.N,N/C*%
X2540000Y51308000D03*
%TD*%
D14*
%TO.P,R3,1*%
%TO.N,+5V*%
X36642000Y17018000D03*
%TO.P,R3,2*%
%TO.N,N$4*%
X38542000Y17018000D03*
%TD*%
D29*
%TO.P,C5,1*%
%TO.N,+5V*%
X41656000Y47228000D03*
%TO.P,C5,2*%
%TO.N,GND*%
X41656000Y45228000D03*
%TD*%
D31*
%TO.P,U$2,1*%
%TO.N,N$1*%
X42394000Y14928000D03*
%TO.P,U$2,2*%
%TO.N,N$2*%
X42394000Y15428000D03*
%TO.P,U$2,3*%
%TO.N,N$3*%
X42394000Y15928000D03*
%TO.P,U$2,4*%
%TO.N,N$4*%
X42394000Y16428000D03*
%TO.P,U$2,5*%
%TO.N,N$10*%
X42394000Y16928000D03*
%TO.P,U$2,6*%
%TO.N,GND*%
X42394000Y17428000D03*
%TO.P,U$2,7*%
%TO.N,VCC*%
X42394000Y17928000D03*
%TO.P,U$2,8*%
X42394000Y18428000D03*
%TO.P,U$2,9*%
X42394000Y18928000D03*
%TO.P,U$2,10*%
%TO.N,TFT_RST*%
X42394000Y19428000D03*
%TO.P,U$2,11*%
%TO.N,N/C*%
X42394000Y19928000D03*
%TO.P,U$2,12*%
X42394000Y20428000D03*
%TO.P,U$2,13*%
X42394000Y20928000D03*
%TO.P,U$2,14*%
X42394000Y21428000D03*
%TO.P,U$2,15*%
%TO.N,N$9*%
X42394000Y21928000D03*
%TO.P,U$2,16*%
X42394000Y22428000D03*
%TO.P,U$2,17*%
X42394000Y22928000D03*
%TO.P,U$2,18*%
X42394000Y23428000D03*
%TO.P,U$2,19*%
X42394000Y23928000D03*
%TO.P,U$2,20*%
X42394000Y24428000D03*
%TO.P,U$2,21*%
X42394000Y24928000D03*
%TO.P,U$2,22*%
X42394000Y25428000D03*
%TO.P,U$2,23*%
X42394000Y25928000D03*
%TO.P,U$2,24*%
X42394000Y26428000D03*
%TO.P,U$2,25*%
X42394000Y26928000D03*
%TO.P,U$2,26*%
X42394000Y27428000D03*
%TO.P,U$2,27*%
X42394000Y27928000D03*
%TO.P,U$2,28*%
X42394000Y28428000D03*
%TO.P,U$2,29*%
X42394000Y28928000D03*
%TO.P,U$2,30*%
X42394000Y29428000D03*
%TO.P,U$2,31*%
X42394000Y29928000D03*
%TO.P,U$2,32*%
X42394000Y30428000D03*
%TO.P,U$2,33*%
%TO.N,MISO*%
X42394000Y30928000D03*
%TO.P,U$2,34*%
%TO.N,MOSI_3V*%
X42394000Y31428000D03*
%TO.P,U$2,35*%
%TO.N,N/C*%
X42394000Y31928000D03*
%TO.P,U$2,36*%
%TO.N,TFT_DC_3V*%
X42394000Y32428000D03*
%TO.P,U$2,37*%
%TO.N,SCLK_3V*%
X42394000Y32928000D03*
%TO.P,U$2,38*%
%TO.N,TFT_CS_3V*%
X42394000Y33428000D03*
%TO.P,U$2,39*%
%TO.N,N/C*%
X42394000Y33928000D03*
%TO.P,U$2,40*%
%TO.N,VCC*%
X42394000Y34428000D03*
%TO.P,U$2,41*%
X42394000Y34928000D03*
%TO.P,U$2,42*%
X42394000Y35428000D03*
%TO.P,U$2,43*%
%TO.N,GND*%
X42394000Y35928000D03*
%TO.P,U$2,44*%
%TO.N,XR*%
X42394000Y36428000D03*
%TO.P,U$2,45*%
%TO.N,YD*%
X42394000Y36928000D03*
%TO.P,U$2,46*%
%TO.N,XL*%
X42394000Y37428000D03*
%TO.P,U$2,47*%
%TO.N,YU*%
X42394000Y37928000D03*
%TO.P,U$2,48*%
%TO.N,GND*%
X42394000Y38428000D03*
%TO.P,U$2,49*%
X42394000Y38928000D03*
%TO.P,U$2,50*%
X42394000Y39428000D03*
D32*
%TO.P,U$2,PAD1*%
%TO.N,N/C*%
X45094000Y12828000D03*
%TO.P,U$2,PAD2*%
X45094000Y41528000D03*
%TD*%
D33*
%TO.P,U$17,*%
%TO.N,*%
X65405000Y27178000D03*
X65405000Y24638000D03*
D34*
%TO.P,U$17,3V*%
%TO.N,3V*%
X36068000Y52705000D03*
%TO.P,U$17,5V*%
%TO.N,+5V*%
X38608000Y49911000D03*
D35*
%TO.P,U$17,5V_ICSP*%
%TO.N,N/C*%
X67818000Y23368000D03*
D34*
%TO.P,U$17,A0*%
X51308000Y49911000D03*
%TO.P,U$17,A1*%
X53848000Y52705000D03*
%TO.P,U$17,A2*%
X56388000Y49911000D03*
%TO.P,U$17,A3*%
X58928000Y52705000D03*
%TO.P,U$17,A4*%
X61468000Y49911000D03*
%TO.P,U$17,A5*%
X64008000Y52705000D03*
%TO.P,U$17,AREF*%
X24384000Y1651000D03*
%TO.P,U$17,D0*%
X64008000Y4445000D03*
%TO.P,U$17,D1*%
X61468000Y1651000D03*
%TO.P,U$17,D2*%
X58928000Y4445000D03*
%TO.P,U$17,D3*%
%TO.N,N$7*%
X56388000Y1651000D03*
%TO.P,U$17,D4*%
%TO.N,CARDCS_5V*%
X53848000Y4445000D03*
%TO.P,U$17,D5*%
%TO.N,N/C*%
X51308000Y1651000D03*
%TO.P,U$17,D6*%
X48768000Y4445000D03*
%TO.P,U$17,D7*%
%TO.N,D7*%
X46228000Y1651000D03*
%TO.P,U$17,D8*%
%TO.N,RT_CS_5V*%
X42164000Y4445000D03*
%TO.P,U$17,D9*%
%TO.N,TFT_DC_5V*%
X39624000Y1651000D03*
%TO.P,U$17,D10*%
%TO.N,TFT_CS_5V*%
X37084000Y4445000D03*
%TO.P,U$17,D11*%
%TO.N,N$15*%
X34544000Y1651000D03*
%TO.P,U$17,D12*%
%TO.N,N$14*%
X32004000Y4445000D03*
%TO.P,U$17,D13*%
%TO.N,N$13*%
X29464000Y1651000D03*
%TO.P,U$17,GND*%
%TO.N,GND*%
X26924000Y4445000D03*
%TO.P,U$17,GND@1*%
X43688000Y49911000D03*
%TO.P,U$17,GND@2*%
X41148000Y52705000D03*
D35*
%TO.P,U$17,GND@3*%
X67818000Y28448000D03*
D34*
%TO.P,U$17,IOREF*%
%TO.N,N/C*%
X30988000Y52705000D03*
D35*
%TO.P,U$17,MISO*%
%TO.N,N$11*%
X62992000Y23368000D03*
%TO.P,U$17,MOSI*%
%TO.N,N$6*%
X67818000Y25908000D03*
D34*
%TO.P,U$17,RESERVED*%
%TO.N,N/C*%
X28448000Y49911000D03*
%TO.P,U$17,RESET*%
%TO.N,N$8*%
X33528000Y49911000D03*
D35*
%TO.P,U$17,RESET_ICSP*%
%TO.N,N/C*%
X62992000Y28448000D03*
%TO.P,U$17,SCK*%
%TO.N,N$12*%
X62992000Y25908000D03*
D34*
%TO.P,U$17,SCL*%
%TO.N,N/C*%
X19304000Y1651000D03*
%TO.P,U$17,SDA*%
X21844000Y4445000D03*
%TO.P,U$17,VIN*%
%TO.N,VIN*%
X46228000Y52705000D03*
%TD*%
D36*
%TO.N,GND*%
X29972000Y19812000D03*
X42164000Y42672000D03*
X33274000Y19558000D03*
X43942000Y38354000D03*
X3556000Y35052000D03*
X2540000Y30480000D03*
X35814000Y41402000D03*
%TO.N,VCC*%
X28194000Y33782000D03*
X40894000Y40894000D03*
X35560000Y32258000D03*
X32512000Y35052000D03*
X48768000Y10160000D03*
X45720000Y17780000D03*
X38862000Y35052000D03*
%TO.N,+5V*%
X44958000Y47244000D03*
X36068000Y11430000D03*
%TO.N,MISO*%
X61214000Y14986000D03*
X57150000Y14986000D03*
%TO.N,CARDCS_5V*%
X27686000Y22352000D03*
X51816000Y4826000D03*
%TO.N,CARD_CS_3V*%
X30226000Y28956000D03*
X22098000Y29210000D03*
%TO.N,MOSI_3V*%
X30226000Y27686000D03*
X24892000Y30226000D03*
%TO.N,TFT_DC_3V*%
X38354000Y30480000D03*
X29718000Y26416000D03*
%TO.N,SCLK_3V*%
X29972000Y31242000D03*
X37084000Y31750000D03*
%TO.N,TFT_CS_3V*%
X44196000Y33782000D03*
X34798000Y25400000D03*
%TO.N,TFT_RST*%
X32004000Y43942000D03*
X44704000Y20320000D03*
%TO.N,N$8*%
X9398000Y7620000D03*
X16510000Y45212000D03*
%TO.N,MOSI_5V*%
X30480000Y25146000D03*
X50038000Y47244000D03*
%TO.N,TFT_DC_5V*%
X29972000Y22606000D03*
X38862000Y4064000D03*
%TO.N,SCLK_5V*%
X48006000Y46482000D03*
X25146000Y31496000D03*
%TO.N,RT_CS_5V*%
X34798000Y30226000D03*
X36576000Y28448000D03*
%TO.N,N$6*%
X67818000Y21590000D03*
X67818000Y24638000D03*
%TO.N,N$13*%
X32004000Y1778000D03*
X58928000Y8382000D03*
%TO.N,N$14*%
X60960000Y6858000D03*
X34036000Y4318000D03*
%TO.N,N$15*%
X37338000Y2032000D03*
X63500000Y7112000D03*
%TO.N,TS_INT*%
X44450000Y7112000D03*
X22606000Y35814000D03*
%TD*%
%TO.N,GND*%
D37*
X28702000Y23114000D02*
X28702000Y22606000D01*
X28067000Y23749000D02*
X28702000Y23114000D01*
X42164000Y42672000D02*
X42164000Y43180000D01*
X43249000Y39428000D02*
X43434000Y39243000D01*
X27626000Y23749000D02*
X28067000Y23749000D01*
X42394000Y17428000D02*
X44606000Y17428000D01*
X43434000Y38862000D02*
X43942000Y38354000D01*
D38*
X3556000Y35108000D02*
X3556000Y35052000D01*
D37*
X35818000Y34060000D02*
X35818000Y33524000D01*
X42394000Y38928000D02*
X43368000Y38928000D01*
D38*
X2540000Y30480000D02*
X2540000Y29718000D01*
D37*
X41246000Y17428000D02*
X40894000Y17780000D01*
X42394000Y38428000D02*
X43868000Y38428000D01*
D39*
X29972000Y20574000D02*
X29718000Y20828000D01*
D37*
X42394000Y17428000D02*
X41246000Y17428000D01*
X42394000Y39428000D02*
X43249000Y39428000D01*
X40640000Y34544000D02*
X39370000Y33274000D01*
X43942000Y38354000D02*
X43942000Y35814000D01*
D38*
X5724000Y35108000D02*
X3556000Y35108000D01*
D37*
X40640000Y35052000D02*
X40640000Y34544000D01*
D38*
X37100000Y41402000D02*
X35814000Y41402000D01*
D39*
X29972000Y19812000D02*
X29972000Y20574000D01*
D37*
X43828000Y35928000D02*
X43942000Y35814000D01*
D39*
X35068000Y21352000D02*
X33274000Y19558000D01*
D37*
X35818000Y33524000D02*
X36068000Y33274000D01*
D39*
X38608000Y21352000D02*
X35068000Y21352000D01*
D37*
X41516000Y35928000D02*
X42394000Y35928000D01*
X43868000Y38428000D02*
X43942000Y38354000D01*
X42164000Y43180000D02*
X41910000Y43434000D01*
X36068000Y33274000D02*
X39370000Y33274000D01*
X44606000Y17428000D02*
X44450000Y17272000D01*
D38*
X37354000Y41656000D02*
X37100000Y41402000D01*
D37*
X43434000Y39243000D02*
X43434000Y38862000D01*
X42394000Y35928000D02*
X43828000Y35928000D01*
X43368000Y38928000D02*
X43942000Y38354000D01*
X41516000Y35928000D02*
X40640000Y35052000D01*
%TO.N,VCC*%
D38*
X25974000Y43180000D02*
X28598000Y40556000D01*
D37*
X43566000Y35428000D02*
X43688000Y35306000D01*
X36576000Y42926000D02*
X39354000Y42926000D01*
X41016000Y18428000D02*
X41016000Y18928000D01*
X1778000Y40386000D02*
X3048000Y41656000D01*
X33270000Y35810000D02*
X32512000Y35052000D01*
D38*
X5080000Y43180000D02*
X5080000Y41672000D01*
D37*
X35318000Y34060000D02*
X35318000Y32766000D01*
D39*
X40132000Y41656000D02*
X40894000Y40894000D01*
D37*
X42394000Y18928000D02*
X41016000Y18928000D01*
X39354000Y43862000D02*
X39354000Y43608000D01*
X41148000Y18428000D02*
X41016000Y18428000D01*
X43685000Y34928000D02*
X43688000Y34925000D01*
X40640000Y22098000D02*
X39116000Y23622000D01*
D38*
X5080000Y41672000D02*
X5096000Y41656000D01*
X28598000Y40556000D02*
X31242000Y40556000D01*
D37*
X48768000Y10160000D02*
X48768000Y9398000D01*
X47178000Y9398000D02*
X48768000Y9398000D01*
X39304000Y43912000D02*
X39354000Y43862000D01*
X43688000Y34925000D02*
X43688000Y34544000D01*
X43688000Y35306000D02*
X43688000Y34925000D01*
X3048000Y41656000D02*
X5096000Y41656000D01*
D39*
X39354000Y39878000D02*
X39878000Y39878000D01*
D37*
X35814000Y44196000D02*
X36576000Y43434000D01*
X1778000Y34544000D02*
X1778000Y40386000D01*
X42394000Y18428000D02*
X41148000Y18428000D01*
X42394000Y17928000D02*
X41648000Y17928000D01*
X34568000Y35810000D02*
X33270000Y35810000D01*
X34544000Y44196000D02*
X35814000Y44196000D01*
X40640000Y19304000D02*
X40640000Y22098000D01*
X42394000Y35428000D02*
X43566000Y35428000D01*
X41148000Y34290000D02*
X39624000Y32766000D01*
X31242000Y40556000D02*
X34036000Y40556000D01*
X30884000Y40556000D02*
X31242000Y40556000D01*
X27626000Y32639000D02*
X27626000Y33214000D01*
X3414000Y32908000D02*
X1778000Y34544000D01*
X39116000Y23622000D02*
X38878000Y23622000D01*
X35318000Y32766000D02*
X35560000Y32766000D01*
X37568000Y35310000D02*
X38604000Y35310000D01*
X41532000Y34928000D02*
X42394000Y34928000D01*
X38878000Y23622000D02*
X38608000Y23352000D01*
X38604000Y35310000D02*
X38862000Y35052000D01*
D39*
X39354000Y42926000D02*
X39354000Y41656000D01*
D38*
X25974000Y43180000D02*
X5080000Y43180000D01*
D39*
X39878000Y39878000D02*
X40894000Y40894000D01*
D37*
X35560000Y32258000D02*
X35560000Y32766000D01*
X41148000Y34544000D02*
X41148000Y34290000D01*
X30734000Y40706000D02*
X30884000Y40556000D01*
D39*
X39354000Y41656000D02*
X40132000Y41656000D01*
D37*
X41016000Y18928000D02*
X40640000Y19304000D01*
X42405000Y34417000D02*
X42394000Y34428000D01*
X36576000Y43434000D02*
X36576000Y42926000D01*
X42394000Y34928000D02*
X43685000Y34928000D01*
X34036000Y43688000D02*
X34544000Y44196000D01*
X45572000Y17928000D02*
X45720000Y17780000D01*
X43561000Y34417000D02*
X42405000Y34417000D01*
X27626000Y33214000D02*
X28194000Y33782000D01*
X43688000Y34544000D02*
X43561000Y34417000D01*
X42394000Y17928000D02*
X45572000Y17928000D01*
X41532000Y34928000D02*
X41148000Y34544000D01*
X41648000Y17928000D02*
X41148000Y18428000D01*
X5724000Y32908000D02*
X3414000Y32908000D01*
X48768000Y9398000D02*
X50358000Y9398000D01*
D39*
X39354000Y43608000D02*
X39354000Y42926000D01*
D37*
X34036000Y40556000D02*
X34036000Y43688000D01*
X39624000Y32766000D02*
X35560000Y32766000D01*
%TO.N,N$16*%
X38862000Y10348000D02*
X38542000Y10028000D01*
X38542000Y10028000D02*
X38542000Y9906000D01*
X40556000Y10348000D02*
X38862000Y10348000D01*
%TO.N,+5V*%
X36642000Y14986000D02*
X36642000Y17018000D01*
D39*
X38862000Y45212000D02*
X39304000Y45654000D01*
D37*
X36642000Y17018000D02*
X36642000Y19050000D01*
D39*
X37404000Y49088000D02*
X38608000Y50292000D01*
D38*
X36642000Y12004000D02*
X36642000Y12954000D01*
D39*
X41672000Y47244000D02*
X41656000Y47228000D01*
X40020000Y47228000D02*
X39304000Y46512000D01*
X37404000Y46512000D02*
X37404000Y49088000D01*
X41656000Y47228000D02*
X40020000Y47228000D01*
X37404000Y45212000D02*
X38862000Y45212000D01*
X37404000Y46512000D02*
X37404000Y45212000D01*
X44958000Y47244000D02*
X41672000Y47244000D01*
D38*
X36068000Y11430000D02*
X36642000Y12004000D01*
D37*
X36576000Y12888000D02*
X36642000Y12954000D01*
D39*
X39304000Y45654000D02*
X39304000Y46512000D01*
X38608000Y50292000D02*
X38608000Y49911000D01*
D37*
X34544000Y12888000D02*
X36576000Y12888000D01*
X36642000Y12954000D02*
X36642000Y14986000D01*
%TO.N,MISO*%
X43434000Y40132000D02*
X41656000Y40132000D01*
X41656000Y40132000D02*
X40132000Y38608000D01*
X35818000Y37060000D02*
X35818000Y37588000D01*
X57150000Y14986000D02*
X57150000Y15494000D01*
X47498000Y39116000D02*
X45466000Y37084000D01*
X36576000Y38608000D02*
X36068000Y39116000D01*
X26416000Y34798000D02*
X29718000Y38100000D01*
X61214000Y16764000D02*
X61214000Y14986000D01*
X8550000Y34798000D02*
X7140000Y36208000D01*
X35818000Y37588000D02*
X35306000Y38100000D01*
X45466000Y37084000D02*
X45466000Y38100000D01*
X20320000Y35052000D02*
X20066000Y34798000D01*
X56896000Y15748000D02*
X56896000Y43688000D01*
X44136000Y30928000D02*
X45466000Y32258000D01*
X36068000Y39116000D02*
X23114000Y39116000D01*
X7140000Y36208000D02*
X6124000Y36208000D01*
X23114000Y39116000D02*
X20320000Y36322000D01*
X29718000Y38100000D02*
X35306000Y38100000D01*
X57150000Y15494000D02*
X56896000Y15748000D01*
X56896000Y43688000D02*
X47498000Y43688000D01*
X8550000Y34798000D02*
X20066000Y34798000D01*
X47498000Y43688000D02*
X47498000Y39116000D01*
X45466000Y38100000D02*
X43434000Y40132000D01*
X20066000Y34798000D02*
X26416000Y34798000D01*
X42394000Y30928000D02*
X44136000Y30928000D01*
X20320000Y36322000D02*
X20320000Y35052000D01*
X45466000Y37084000D02*
X45466000Y32258000D01*
X40132000Y38608000D02*
X36576000Y38608000D01*
X61214000Y14986000D02*
X61214000Y12446000D01*
X42394000Y30928000D02*
X42418000Y30904000D01*
%TO.N,N$7*%
X56388000Y7112000D02*
X56388000Y1651000D01*
X55880000Y7620000D02*
X56388000Y7112000D01*
%TO.N,CARDCS_5V*%
X25908000Y23114000D02*
X26670000Y22352000D01*
X26670000Y22352000D02*
X27686000Y22352000D01*
X52197000Y4445000D02*
X51816000Y4826000D01*
X25908000Y27559000D02*
X25908000Y23114000D01*
X27626000Y27559000D02*
X25908000Y27559000D01*
X53848000Y4445000D02*
X52197000Y4445000D01*
X52258000Y9398000D02*
X52258000Y5268000D01*
X52258000Y5268000D02*
X51816000Y4826000D01*
%TO.N,CARD_CS_3V*%
X6524000Y30708000D02*
X12928000Y30708000D01*
X14478000Y32258000D02*
X19050000Y32258000D01*
X30099000Y28829000D02*
X27626000Y28829000D01*
X19050000Y32258000D02*
X22098000Y29210000D01*
X12928000Y30708000D02*
X14478000Y32258000D01*
X30226000Y28956000D02*
X30099000Y28829000D01*
%TO.N,N$9*%
X42394000Y23928000D02*
X44450000Y23928000D01*
X44450000Y30428000D02*
X42394000Y30428000D01*
X42394000Y26428000D02*
X44450000Y26428000D01*
X44450000Y21928000D02*
X44450000Y22428000D01*
X42394000Y29928000D02*
X44450000Y29928000D01*
X42394000Y27928000D02*
X44450000Y27928000D01*
X42394000Y25928000D02*
X44450000Y25928000D01*
X44450000Y24928000D02*
X44450000Y24428000D01*
X44450000Y22428000D02*
X44450000Y22928000D01*
X42394000Y29428000D02*
X44450000Y29428000D01*
X42394000Y28928000D02*
X44450000Y28928000D01*
X42394000Y21928000D02*
X44450000Y21928000D01*
X42394000Y28428000D02*
X44450000Y28428000D01*
X42394000Y24428000D02*
X44450000Y24428000D01*
X44450000Y23428000D02*
X44450000Y23928000D01*
X44450000Y22928000D02*
X44450000Y23428000D01*
X44450000Y27428000D02*
X44450000Y27928000D01*
X44450000Y25428000D02*
X44450000Y25928000D01*
X44450000Y28428000D02*
X44450000Y28928000D01*
X44450000Y26928000D02*
X44450000Y27428000D01*
X44450000Y29928000D02*
X44450000Y30428000D01*
X42394000Y26928000D02*
X44450000Y26928000D01*
X44450000Y24928000D02*
X44450000Y25428000D01*
X42394000Y27428000D02*
X44450000Y27428000D01*
X42394000Y23428000D02*
X44450000Y23428000D01*
X42394000Y22928000D02*
X44450000Y22928000D01*
X44450000Y25928000D02*
X44450000Y26428000D01*
X44450000Y26428000D02*
X44450000Y26928000D01*
X44450000Y29428000D02*
X44450000Y29928000D01*
X42394000Y24928000D02*
X44450000Y24928000D01*
X44450000Y23928000D02*
X44450000Y24428000D01*
X42394000Y25428000D02*
X44450000Y25428000D01*
X42394000Y22428000D02*
X44450000Y22428000D01*
X44450000Y27928000D02*
X44450000Y28428000D01*
X44450000Y28928000D02*
X44450000Y29428000D01*
%TO.N,N$1*%
X42756000Y14566000D02*
X42394000Y14928000D01*
X42756000Y9398000D02*
X42756000Y14566000D01*
%TO.N,N$2*%
X42394000Y15428000D02*
X41082000Y15428000D01*
X41082000Y15428000D02*
X38608000Y12954000D01*
X38608000Y12954000D02*
X38542000Y12954000D01*
%TO.N,N$3*%
X42394000Y15928000D02*
X40820000Y15928000D01*
X38796000Y15240000D02*
X38542000Y14986000D01*
X40132000Y15240000D02*
X38796000Y15240000D01*
X40820000Y15928000D02*
X40132000Y15240000D01*
%TO.N,N$4*%
X39132000Y16428000D02*
X38542000Y17018000D01*
X42394000Y16428000D02*
X39132000Y16428000D01*
%TO.N,N$10*%
X42394000Y16928000D02*
X40730000Y16928000D01*
X40730000Y16928000D02*
X38608000Y19050000D01*
X38608000Y19050000D02*
X38542000Y19050000D01*
%TO.N,MOSI_3V*%
X10218000Y31808000D02*
X6124000Y31808000D01*
X32826000Y27559000D02*
X32699000Y27686000D01*
X33782000Y33782000D02*
X33782000Y35306000D01*
X36322000Y29972000D02*
X34544000Y31750000D01*
X34544000Y31750000D02*
X34544000Y33020000D01*
X33782000Y35306000D02*
X34564000Y35306000D01*
X36322000Y29464000D02*
X36322000Y29972000D01*
X11430000Y33020000D02*
X20320000Y33020000D01*
X34417000Y27559000D02*
X36322000Y29464000D01*
X40572000Y31428000D02*
X38608000Y29464000D01*
X42394000Y31428000D02*
X40572000Y31428000D01*
X23114000Y30226000D02*
X24892000Y30226000D01*
X34544000Y33020000D02*
X33782000Y33782000D01*
X34564000Y35306000D02*
X34568000Y35310000D01*
X32826000Y27559000D02*
X34417000Y27559000D01*
X38608000Y29464000D02*
X36322000Y29464000D01*
X32699000Y27686000D02*
X30226000Y27686000D01*
X10218000Y31808000D02*
X11430000Y33020000D01*
X20320000Y33020000D02*
X23114000Y30226000D01*
%TO.N,TFT_DC_3V*%
X29718000Y26416000D02*
X27753000Y26416000D01*
X40810000Y32428000D02*
X40132000Y31750000D01*
X42394000Y32428000D02*
X40810000Y32428000D01*
X40132000Y31750000D02*
X39624000Y31750000D01*
X39624000Y31750000D02*
X38354000Y30480000D01*
X27753000Y26416000D02*
X27626000Y26289000D01*
%TO.N,SCLK_3V*%
X29972000Y31242000D02*
X29718000Y31496000D01*
X26670000Y31496000D02*
X27499000Y31496000D01*
X31980000Y37060000D02*
X29718000Y34798000D01*
X39878000Y32258000D02*
X37592000Y32258000D01*
X35318000Y37060000D02*
X31980000Y37060000D01*
X27753000Y31496000D02*
X27626000Y31369000D01*
X37592000Y32258000D02*
X37084000Y31750000D01*
X29718000Y32004000D02*
X29210000Y31496000D01*
X27499000Y31496000D02*
X27626000Y31369000D01*
X6124000Y34008000D02*
X24158000Y34008000D01*
X42394000Y32928000D02*
X40548000Y32928000D01*
X24158000Y34008000D02*
X26670000Y31496000D01*
X40548000Y32928000D02*
X39878000Y32258000D01*
X29718000Y34798000D02*
X29718000Y32004000D01*
X29718000Y31496000D02*
X29210000Y31496000D01*
X29210000Y31496000D02*
X27753000Y31496000D01*
%TO.N,TFT_CS_3V*%
X43842000Y33428000D02*
X42394000Y33428000D01*
X32826000Y25019000D02*
X34417000Y25019000D01*
X34417000Y25019000D02*
X34798000Y25400000D01*
X44196000Y33782000D02*
X43842000Y33428000D01*
%TO.N,TFT_RST*%
X33274000Y44720000D02*
X33086000Y44532000D01*
X32512000Y43434000D02*
X33086000Y43434000D01*
X33086000Y43434000D02*
X33086000Y42756000D01*
X43812000Y19428000D02*
X44704000Y20320000D01*
X32004000Y43942000D02*
X32512000Y43434000D01*
X30884000Y42756000D02*
X33086000Y42756000D01*
X30734000Y42606000D02*
X30884000Y42756000D01*
X42394000Y19428000D02*
X43812000Y19428000D01*
X33086000Y44532000D02*
X33086000Y43434000D01*
%TO.N,N$8*%
D39*
X9242000Y5302000D02*
X9398000Y5302000D01*
X9398000Y5302000D02*
X9398000Y7620000D01*
X33020000Y46720000D02*
X33274000Y46720000D01*
X31512000Y45212000D02*
X33020000Y46720000D01*
X33274000Y46720000D02*
X33274000Y49657000D01*
X33274000Y49657000D02*
X33528000Y49911000D01*
X16510000Y45212000D02*
X31512000Y45212000D01*
X9242000Y5302000D02*
X2442000Y5302000D01*
%TO.N,MOSI_5V*%
D37*
X30480000Y25146000D02*
X31623000Y26289000D01*
X69596000Y20320000D02*
X69596000Y34290000D01*
X31623000Y26289000D02*
X32826000Y26289000D01*
X63500000Y16764000D02*
X66040000Y16764000D01*
X66040000Y16764000D02*
X69596000Y20320000D01*
X63500000Y16764000D02*
X63500000Y12446000D01*
X69596000Y34290000D02*
X56642000Y47244000D01*
X56642000Y47244000D02*
X50038000Y47244000D01*
%TO.N,TFT_DC_5V*%
X29972000Y23368000D02*
X28194000Y25146000D01*
X27753000Y25146000D02*
X27626000Y25019000D01*
X29972000Y22606000D02*
X29972000Y23368000D01*
X28194000Y25146000D02*
X27753000Y25146000D01*
X39624000Y1651000D02*
X39624000Y3302000D01*
X39624000Y3302000D02*
X38862000Y4064000D01*
%TO.N,TFT_CS_5V*%
X37084000Y4318000D02*
X31750000Y9652000D01*
X31750000Y22673000D02*
X32826000Y23749000D01*
X37084000Y4318000D02*
X37084000Y4445000D01*
X31750000Y9652000D02*
X31750000Y22673000D01*
%TO.N,SCLK_5V*%
X56134000Y45212000D02*
X49276000Y45212000D01*
X26162000Y30226000D02*
X27499000Y30226000D01*
X58928000Y16510000D02*
X58928000Y12446000D01*
X27499000Y30226000D02*
X27626000Y30099000D01*
X57658000Y43688000D02*
X56134000Y45212000D01*
X58928000Y16764000D02*
X58928000Y16510000D01*
X25146000Y31496000D02*
X25146000Y31242000D01*
X49276000Y45212000D02*
X48006000Y46482000D01*
X57658000Y17018000D02*
X57658000Y43688000D01*
X58928000Y16510000D02*
X58166000Y16510000D01*
X25146000Y31242000D02*
X26162000Y30226000D01*
X58166000Y16510000D02*
X57658000Y17018000D01*
%TO.N,XL*%
X38342000Y37084000D02*
X37568000Y36310000D01*
X42394000Y37428000D02*
X40476000Y37428000D01*
X40132000Y37084000D02*
X38342000Y37084000D01*
X40476000Y37428000D02*
X40132000Y37084000D01*
%TO.N,XR*%
X37580000Y34798000D02*
X37568000Y34810000D01*
X39878000Y35306000D02*
X39878000Y34544000D01*
X42394000Y36428000D02*
X41000000Y36428000D01*
X39878000Y34544000D02*
X39116000Y33782000D01*
X37592000Y34786000D02*
X37568000Y34810000D01*
X38100000Y33782000D02*
X37592000Y34290000D01*
X41000000Y36428000D02*
X39878000Y35306000D01*
X37592000Y34290000D02*
X37592000Y34786000D01*
X39116000Y33782000D02*
X38100000Y33782000D01*
%TO.N,YU*%
X36818000Y37592000D02*
X39878000Y37592000D01*
X40214000Y37928000D02*
X42394000Y37928000D01*
X36818000Y37060000D02*
X36818000Y37592000D01*
X39878000Y37592000D02*
X40214000Y37928000D01*
%TO.N,YD*%
X40738000Y36928000D02*
X42394000Y36928000D01*
X40386000Y36576000D02*
X40738000Y36928000D01*
X38350000Y35810000D02*
X39116000Y36576000D01*
X39116000Y36576000D02*
X40386000Y36576000D01*
X37568000Y35810000D02*
X38350000Y35810000D01*
%TO.N,RT_CS_3V*%
X32953000Y31242000D02*
X32826000Y31369000D01*
X31242000Y35306000D02*
X31242000Y31242000D01*
X32246000Y36310000D02*
X31242000Y35306000D01*
X34568000Y36310000D02*
X32246000Y36310000D01*
X31242000Y31242000D02*
X32953000Y31242000D01*
%TO.N,RT_CS_5V*%
X35814000Y23876000D02*
X35814000Y27686000D01*
X34798000Y30226000D02*
X32953000Y30226000D01*
X42164000Y6858000D02*
X35306000Y6858000D01*
X42164000Y6858000D02*
X42926000Y6858000D01*
X42164000Y4445000D02*
X42164000Y6858000D01*
X32258000Y9906000D02*
X32258000Y20320000D01*
X35306000Y6858000D02*
X32258000Y9906000D01*
X32258000Y20320000D02*
X35814000Y23876000D01*
X45212000Y9144000D02*
X45212000Y9332000D01*
X32953000Y30226000D02*
X32826000Y30099000D01*
X42926000Y6858000D02*
X45212000Y9144000D01*
X45212000Y9332000D02*
X45278000Y9398000D01*
X35814000Y27686000D02*
X36576000Y28448000D01*
%TO.N,N$5*%
X53594000Y8382000D02*
X54356000Y7620000D01*
X37338000Y11430000D02*
X41148000Y11430000D01*
X41656000Y10922000D02*
X41656000Y8382000D01*
X34544000Y10988000D02*
X35626000Y9906000D01*
X41148000Y11430000D02*
X41656000Y10922000D01*
X52832000Y11176000D02*
X44196000Y11176000D01*
X44196000Y11176000D02*
X44196000Y8890000D01*
X41910000Y8128000D02*
X41656000Y8382000D01*
X53594000Y8382000D02*
X53594000Y10414000D01*
X36642000Y10734000D02*
X37338000Y11430000D01*
X44196000Y8890000D02*
X43434000Y8128000D01*
X36642000Y9906000D02*
X36642000Y10734000D01*
X43434000Y8128000D02*
X41910000Y8128000D01*
X53594000Y10414000D02*
X52832000Y11176000D01*
X35626000Y9906000D02*
X36642000Y9906000D01*
%TO.N,N$6*%
X63500000Y18288000D02*
X64516000Y18288000D01*
X67818000Y24638000D02*
X67818000Y25908000D01*
X64516000Y18288000D02*
X67818000Y21590000D01*
%TO.N,N$12*%
X60706000Y25908000D02*
X62992000Y25908000D01*
X58928000Y24130000D02*
X60706000Y25908000D01*
X58928000Y18288000D02*
X58928000Y24130000D01*
%TO.N,N$11*%
X61214000Y21590000D02*
X62992000Y23368000D01*
X61214000Y18288000D02*
X61214000Y21590000D01*
%TO.N,N$13*%
X58928000Y8382000D02*
X58928000Y10922000D01*
X29464000Y1651000D02*
X29591000Y1778000D01*
X29591000Y1778000D02*
X32004000Y1778000D01*
%TO.N,N$14*%
X61214000Y10922000D02*
X61214000Y7112000D01*
X61214000Y7112000D02*
X60960000Y6858000D01*
X34036000Y4318000D02*
X33909000Y4445000D01*
X33909000Y4445000D02*
X32004000Y4445000D01*
%TO.N,N$15*%
X37338000Y2032000D02*
X36957000Y1651000D01*
X36957000Y1651000D02*
X34544000Y1651000D01*
X63500000Y10922000D02*
X63500000Y7112000D01*
%TO.N,D7*%
X46228000Y1651000D02*
X46228000Y4572000D01*
X46228000Y4572000D02*
X47498000Y5842000D01*
X47498000Y5842000D02*
X47498000Y7366000D01*
%TO.N,TS_INT*%
X22860000Y35560000D02*
X22606000Y35814000D01*
X44704000Y7366000D02*
X45974000Y7366000D01*
X44450000Y7112000D02*
X44704000Y7366000D01*
X36318000Y37850000D02*
X35560000Y38608000D01*
X35560000Y38608000D02*
X29210000Y38608000D01*
X36318000Y37060000D02*
X36318000Y37850000D01*
X29210000Y38608000D02*
X26162000Y35560000D01*
X26162000Y35560000D02*
X22860000Y35560000D01*
%TD*%
%TA.AperFunction,Conductor*%
%TO.N,GND*%
G36*
X30156394Y53837194D02*
G01*
X30174700Y53793000D01*
X30174700Y51262421D01*
X30177662Y51236890D01*
X30177662Y51236889D01*
X30223767Y51132473D01*
X30304473Y51051767D01*
X30408892Y51005661D01*
X30434421Y51002700D01*
X31541578Y51002700D01*
X31567109Y51005662D01*
X31567110Y51005662D01*
X31613214Y51026019D01*
X31671525Y51051766D01*
X31752234Y51132475D01*
X31798338Y51236891D01*
X31801300Y51262421D01*
X31801299Y53793000D01*
X31819605Y53837194D01*
X31863799Y53855500D01*
X35192200Y53855500D01*
X35236394Y53837194D01*
X35254700Y53793000D01*
X35254700Y51262421D01*
X35257662Y51236890D01*
X35257662Y51236889D01*
X35303767Y51132473D01*
X35384473Y51051767D01*
X35488892Y51005661D01*
X35514421Y51002700D01*
X36621578Y51002700D01*
X36647109Y51005662D01*
X36647110Y51005662D01*
X36693214Y51026019D01*
X36751525Y51051766D01*
X36832234Y51132475D01*
X36878338Y51236891D01*
X36881300Y51262421D01*
X36881299Y53793000D01*
X36899605Y53837194D01*
X36943799Y53855500D01*
X40273500Y53855500D01*
X40317694Y53837194D01*
X40336000Y53793000D01*
X40336000Y52857000D01*
X41959999Y52857000D01*
X41959999Y53793000D01*
X41978305Y53837194D01*
X42022499Y53855500D01*
X45352200Y53855500D01*
X45396394Y53837194D01*
X45414700Y53793000D01*
X45414700Y51262421D01*
X45417662Y51236890D01*
X45417662Y51236889D01*
X45463767Y51132473D01*
X45544473Y51051767D01*
X45648892Y51005661D01*
X45674421Y51002700D01*
X46781578Y51002700D01*
X46807109Y51005662D01*
X46807110Y51005662D01*
X46853214Y51026019D01*
X46911525Y51051766D01*
X46992234Y51132475D01*
X47038338Y51236891D01*
X47041300Y51262421D01*
X47041300Y51353578D01*
X50494700Y51353578D01*
X50494700Y48468421D01*
X50497662Y48442890D01*
X50497662Y48442889D01*
X50543767Y48338473D01*
X50624473Y48257767D01*
X50728892Y48211661D01*
X50754421Y48208700D01*
X51861578Y48208700D01*
X51887109Y48211662D01*
X51887110Y48211662D01*
X51933214Y48232019D01*
X51991525Y48257766D01*
X52072234Y48338475D01*
X52118338Y48442891D01*
X52121300Y48468421D01*
X52121299Y51353578D01*
X52118338Y51379109D01*
X52072234Y51483525D01*
X51991525Y51564234D01*
X51887109Y51610338D01*
X51861579Y51613300D01*
X50754422Y51613299D01*
X50754421Y51613299D01*
X50751460Y51612955D01*
X50728891Y51610338D01*
X50624475Y51564234D01*
X50543766Y51483525D01*
X50505642Y51397183D01*
X50497661Y51379107D01*
X50494700Y51353578D01*
X47041300Y51353578D01*
X47041299Y53793000D01*
X47059605Y53837194D01*
X47103799Y53855500D01*
X52972200Y53855500D01*
X53016394Y53837194D01*
X53034700Y53793000D01*
X53034700Y51262421D01*
X53037662Y51236890D01*
X53037662Y51236889D01*
X53083767Y51132473D01*
X53164473Y51051767D01*
X53268892Y51005661D01*
X53294421Y51002700D01*
X54401578Y51002700D01*
X54427109Y51005662D01*
X54427110Y51005662D01*
X54473214Y51026019D01*
X54531525Y51051766D01*
X54612234Y51132475D01*
X54658338Y51236891D01*
X54661300Y51262421D01*
X54661300Y51353578D01*
X55574700Y51353578D01*
X55574700Y48468421D01*
X55577662Y48442890D01*
X55577662Y48442889D01*
X55623767Y48338473D01*
X55704473Y48257767D01*
X55808892Y48211661D01*
X55834421Y48208700D01*
X56941578Y48208700D01*
X56967109Y48211662D01*
X56967110Y48211662D01*
X57013214Y48232019D01*
X57071525Y48257766D01*
X57152234Y48338475D01*
X57198338Y48442891D01*
X57201300Y48468421D01*
X57201299Y51353578D01*
X57198338Y51379109D01*
X57152234Y51483525D01*
X57071525Y51564234D01*
X56967109Y51610338D01*
X56941579Y51613300D01*
X55834422Y51613299D01*
X55834421Y51613299D01*
X55831460Y51612955D01*
X55808891Y51610338D01*
X55704475Y51564234D01*
X55623766Y51483525D01*
X55585642Y51397183D01*
X55577661Y51379107D01*
X55574700Y51353578D01*
X54661300Y51353578D01*
X54661299Y53793000D01*
X54679605Y53837194D01*
X54723799Y53855500D01*
X58052200Y53855500D01*
X58096394Y53837194D01*
X58114700Y53793000D01*
X58114700Y51262421D01*
X58117662Y51236890D01*
X58117662Y51236889D01*
X58163767Y51132473D01*
X58244473Y51051767D01*
X58348892Y51005661D01*
X58374421Y51002700D01*
X59481578Y51002700D01*
X59507109Y51005662D01*
X59507110Y51005662D01*
X59553214Y51026019D01*
X59611525Y51051766D01*
X59692234Y51132475D01*
X59738338Y51236891D01*
X59741300Y51262421D01*
X59741300Y51353578D01*
X60654700Y51353578D01*
X60654700Y48468421D01*
X60657662Y48442890D01*
X60657662Y48442889D01*
X60703767Y48338473D01*
X60784473Y48257767D01*
X60888892Y48211661D01*
X60914421Y48208700D01*
X62021578Y48208700D01*
X62047109Y48211662D01*
X62047110Y48211662D01*
X62093214Y48232019D01*
X62151525Y48257766D01*
X62232234Y48338475D01*
X62278338Y48442891D01*
X62281300Y48468421D01*
X62281299Y51353578D01*
X62278338Y51379109D01*
X62232234Y51483525D01*
X62151525Y51564234D01*
X62047109Y51610338D01*
X62021579Y51613300D01*
X60914422Y51613299D01*
X60914421Y51613299D01*
X60911460Y51612955D01*
X60888891Y51610338D01*
X60784475Y51564234D01*
X60703766Y51483525D01*
X60665642Y51397183D01*
X60657661Y51379107D01*
X60654700Y51353578D01*
X59741300Y51353578D01*
X59741299Y53793000D01*
X59759605Y53837194D01*
X59803799Y53855500D01*
X63132200Y53855500D01*
X63176394Y53837194D01*
X63194700Y53793000D01*
X63194700Y51262421D01*
X63197662Y51236890D01*
X63197662Y51236889D01*
X63243767Y51132473D01*
X63324473Y51051767D01*
X63428892Y51005661D01*
X63454421Y51002700D01*
X64561578Y51002700D01*
X64587109Y51005662D01*
X64587110Y51005662D01*
X64633214Y51026019D01*
X64691525Y51051766D01*
X64772234Y51132475D01*
X64818338Y51236891D01*
X64821300Y51262421D01*
X64821299Y53793000D01*
X64839605Y53837194D01*
X64883799Y53855500D01*
X69795000Y53855500D01*
X69839194Y53837194D01*
X69857500Y53793000D01*
X69857500Y34790752D01*
X69839194Y34746558D01*
X69795000Y34728252D01*
X69750806Y34746558D01*
X57045097Y47452268D01*
X56999365Y47498000D01*
X65293999Y47498000D01*
X65313214Y47302913D01*
X65313215Y47302908D01*
X65370118Y47115321D01*
X65462526Y46942435D01*
X65462530Y46942429D01*
X65586893Y46790893D01*
X65738429Y46666530D01*
X65738435Y46666526D01*
X65911316Y46574120D01*
X65911322Y46574118D01*
X66293997Y46498000D01*
X66293999Y46497999D01*
X66489086Y46517214D01*
X66489091Y46517215D01*
X66676678Y46574118D01*
X66676680Y46574119D01*
X66676683Y46574120D01*
X66785757Y46632421D01*
X66849564Y46666526D01*
X66849570Y46666530D01*
X66891808Y46701194D01*
X67001107Y46790893D01*
X67125470Y46942430D01*
X67217880Y47115317D01*
X67294000Y47498000D01*
X67274785Y47693090D01*
X67217880Y47880683D01*
X67125470Y48053570D01*
X67001107Y48205107D01*
X66849570Y48329470D01*
X66676683Y48421880D01*
X66294000Y48498000D01*
X66098910Y48478785D01*
X65911317Y48421880D01*
X65777064Y48350120D01*
X65738435Y48329473D01*
X65738432Y48329471D01*
X65738430Y48329470D01*
X65586893Y48205107D01*
X65486929Y48083300D01*
X65462530Y48053570D01*
X65462526Y48053564D01*
X65370120Y47880683D01*
X65370118Y47880677D01*
X65294000Y47498002D01*
X65293999Y47498000D01*
X56999365Y47498000D01*
X56991537Y47505828D01*
X56907439Y47589926D01*
X56808862Y47646839D01*
X56741576Y47664868D01*
X56698919Y47676299D01*
X56698914Y47676300D01*
X56698913Y47676300D01*
X50694793Y47676300D01*
X50650599Y47694606D01*
X50642826Y47704077D01*
X50627165Y47727516D01*
X50521516Y47833165D01*
X50397284Y47916174D01*
X50259246Y47973351D01*
X50112706Y48002500D01*
X49963294Y48002500D01*
X49816754Y47973351D01*
X49678716Y47916174D01*
X49678715Y47916173D01*
X49678714Y47916173D01*
X49554484Y47833165D01*
X49448834Y47727515D01*
X49365826Y47603285D01*
X49365826Y47603284D01*
X49308649Y47465246D01*
X49308648Y47465242D01*
X49279500Y47318706D01*
X49279500Y47169293D01*
X49308648Y47022757D01*
X49365825Y46884717D01*
X49365826Y46884714D01*
X49448834Y46760484D01*
X49554484Y46654834D01*
X49678714Y46571826D01*
X49678717Y46571825D01*
X49776326Y46531394D01*
X49816754Y46514649D01*
X49816755Y46514648D01*
X49816757Y46514648D01*
X49963293Y46485500D01*
X49963294Y46485500D01*
X50112706Y46485500D01*
X50259242Y46514648D01*
X50259246Y46514649D01*
X50397282Y46571825D01*
X50397285Y46571826D01*
X50521515Y46654834D01*
X50627165Y46760484D01*
X50642826Y46783923D01*
X50682599Y46810499D01*
X50694793Y46811700D01*
X56437047Y46811700D01*
X56481241Y46793394D01*
X69145394Y34129241D01*
X69163700Y34085047D01*
X69163700Y29322499D01*
X69145394Y29278305D01*
X69101200Y29259999D01*
X67970000Y29259999D01*
X67970000Y27636000D01*
X69101200Y27636000D01*
X69145394Y27617694D01*
X69163700Y27573500D01*
X69163700Y26783799D01*
X69145394Y26739605D01*
X69101200Y26721299D01*
X66982178Y26721299D01*
X66937984Y26739605D01*
X66919678Y26783799D01*
X66922737Y26803113D01*
X66925905Y26812863D01*
X66964300Y27055280D01*
X66964300Y27300720D01*
X66925905Y27543137D01*
X66922315Y27554185D01*
X66926068Y27601873D01*
X66962441Y27632941D01*
X66981756Y27636000D01*
X67666000Y27636000D01*
X67666000Y29259999D01*
X66375612Y29259999D01*
X66350192Y29257050D01*
X66350191Y29257050D01*
X66246221Y29211142D01*
X66165857Y29130778D01*
X66119948Y29026805D01*
X66117000Y29001388D01*
X66117000Y28667252D01*
X66098694Y28623058D01*
X66054500Y28604752D01*
X66026124Y28611565D01*
X66003572Y28623056D01*
X66003571Y28623056D01*
X66003564Y28623060D01*
X65770137Y28698905D01*
X65527720Y28737300D01*
X65282280Y28737300D01*
X65282272Y28737298D01*
X65282266Y28737298D01*
X65213990Y28726484D01*
X65039863Y28698905D01*
X64806436Y28623060D01*
X64806434Y28623059D01*
X64806427Y28623056D01*
X64785175Y28612227D01*
X64737487Y28608473D01*
X64701112Y28639538D01*
X64694299Y28667914D01*
X64694299Y29001578D01*
X64694277Y29001767D01*
X64691338Y29027109D01*
X64645234Y29131525D01*
X64564525Y29212234D01*
X64460109Y29258338D01*
X64434579Y29261300D01*
X61549422Y29261299D01*
X61549421Y29261299D01*
X61546460Y29260955D01*
X61523891Y29258338D01*
X61419475Y29212234D01*
X61338766Y29131525D01*
X61317108Y29082473D01*
X61292661Y29027107D01*
X61289700Y29001578D01*
X61289700Y27894421D01*
X61292662Y27868890D01*
X61292662Y27868889D01*
X61318924Y27809413D01*
X61338437Y27765219D01*
X61338767Y27764473D01*
X61419473Y27683767D01*
X61523892Y27637661D01*
X61549421Y27634700D01*
X63827822Y27634700D01*
X63872016Y27616394D01*
X63890322Y27572200D01*
X63887263Y27552889D01*
X63884095Y27543137D01*
X63884095Y27543136D01*
X63884094Y27543131D01*
X63845701Y27300733D01*
X63845700Y27300717D01*
X63845700Y27055282D01*
X63845701Y27055266D01*
X63884094Y26812868D01*
X63884096Y26812859D01*
X63887263Y26803113D01*
X63883510Y26755425D01*
X63847136Y26724358D01*
X63827822Y26721299D01*
X61549422Y26721299D01*
X61523891Y26718338D01*
X61419475Y26672234D01*
X61338766Y26591525D01*
X61300642Y26505183D01*
X61292661Y26487107D01*
X61289700Y26461578D01*
X61289700Y26402800D01*
X61271394Y26358606D01*
X61227200Y26340300D01*
X60649087Y26340300D01*
X60649081Y26340299D01*
X60590659Y26324644D01*
X60539139Y26310839D01*
X60440562Y26253926D01*
X60440560Y26253924D01*
X58582078Y24395444D01*
X58582075Y24395440D01*
X58582074Y24395439D01*
X58553617Y24346150D01*
X58525160Y24296861D01*
X58525159Y24296858D01*
X58501163Y24207300D01*
X58495700Y24186914D01*
X58495700Y19239999D01*
X58477394Y19195805D01*
X58433200Y19177499D01*
X58152800Y19177499D01*
X58108606Y19195805D01*
X58090300Y19239999D01*
X58090300Y43744912D01*
X58090299Y43744918D01*
X58076165Y43797664D01*
X58060839Y43854861D01*
X58003926Y43953438D01*
X57923438Y44033926D01*
X56399439Y45557926D01*
X56300862Y45614839D01*
X56233576Y45632868D01*
X56190919Y45644299D01*
X56190914Y45644300D01*
X56190913Y45644300D01*
X49480953Y45644300D01*
X49436759Y45662606D01*
X49275977Y45823388D01*
X48776104Y46323259D01*
X48757799Y46367452D01*
X48759000Y46379646D01*
X48764500Y46407294D01*
X48764500Y46556706D01*
X48761036Y46574120D01*
X48735351Y46703246D01*
X48678174Y46841284D01*
X48595165Y46965516D01*
X48489516Y47071165D01*
X48365284Y47154174D01*
X48227246Y47211351D01*
X48080706Y47240500D01*
X47931294Y47240500D01*
X47784754Y47211351D01*
X47646716Y47154174D01*
X47646715Y47154173D01*
X47646714Y47154173D01*
X47522484Y47071165D01*
X47416834Y46965515D01*
X47333826Y46841285D01*
X47333826Y46841284D01*
X47276649Y46703246D01*
X47276648Y46703242D01*
X47247500Y46556706D01*
X47247500Y46407293D01*
X47276648Y46260757D01*
X47333825Y46122717D01*
X47333826Y46122714D01*
X47416834Y45998484D01*
X47522484Y45892834D01*
X47646714Y45809826D01*
X47646717Y45809825D01*
X47744326Y45769394D01*
X47784754Y45752649D01*
X47784755Y45752648D01*
X47784757Y45752648D01*
X47931293Y45723500D01*
X47931294Y45723500D01*
X48080706Y45723500D01*
X48108352Y45728998D01*
X48155269Y45719667D01*
X48164739Y45711894D01*
X49010559Y44866075D01*
X49109137Y44809161D01*
X49113199Y44808072D01*
X49124298Y44805099D01*
X49140096Y44800865D01*
X49219082Y44779700D01*
X49219087Y44779700D01*
X55929047Y44779700D01*
X55973241Y44761394D01*
X56281135Y44453500D01*
X56507642Y44226994D01*
X56525948Y44182800D01*
X56507642Y44138606D01*
X56463448Y44120300D01*
X47441087Y44120300D01*
X47441081Y44120299D01*
X47382659Y44104644D01*
X47331139Y44090839D01*
X47232562Y44033926D01*
X47232560Y44033924D01*
X47152075Y43953439D01*
X47095160Y43854860D01*
X47095160Y43854858D01*
X47065700Y43744918D01*
X47065700Y39320953D01*
X47047394Y39276759D01*
X45981027Y38210392D01*
X45936833Y38192086D01*
X45892639Y38210392D01*
X45876463Y38238410D01*
X45868840Y38266858D01*
X45868839Y38266861D01*
X45868839Y38266862D01*
X45811926Y38365439D01*
X44261357Y39916006D01*
X44243052Y39960200D01*
X44261358Y40004394D01*
X44305552Y40022700D01*
X46033665Y40022700D01*
X46033679Y40022701D01*
X46152007Y40038278D01*
X46152013Y40038279D01*
X46152015Y40038280D01*
X46152016Y40038280D01*
X46152018Y40038281D01*
X46299259Y40099270D01*
X46299262Y40099272D01*
X46425705Y40196294D01*
X46522727Y40322737D01*
X46522729Y40322740D01*
X46583718Y40469981D01*
X46583720Y40469985D01*
X46584766Y40477926D01*
X46595317Y40558073D01*
X46599300Y40588327D01*
X46599299Y42467672D01*
X46583720Y42586015D01*
X46522728Y42733262D01*
X46425705Y42859705D01*
X46299262Y42956728D01*
X46152015Y43017720D01*
X46152008Y43017720D01*
X46152008Y43017721D01*
X46144337Y43018730D01*
X46033673Y43033300D01*
X44154328Y43033299D01*
X44154320Y43033298D01*
X44035992Y43017721D01*
X44035991Y43017720D01*
X44035985Y43017720D01*
X43888738Y42956728D01*
X43888737Y42956727D01*
X43762294Y42859705D01*
X43665272Y42733262D01*
X43665270Y42733259D01*
X43604281Y42586018D01*
X43604278Y42586008D01*
X43588700Y42467677D01*
X43588700Y40619548D01*
X43570394Y40575354D01*
X43526200Y40557048D01*
X43510029Y40559177D01*
X43490914Y40564300D01*
X43490913Y40564300D01*
X41671965Y40564300D01*
X41627771Y40582606D01*
X41609465Y40626800D01*
X41614223Y40650718D01*
X41615442Y40653661D01*
X41623351Y40672754D01*
X41652500Y40819294D01*
X41652500Y40968706D01*
X41623351Y41115246D01*
X41566174Y41253284D01*
X41483165Y41377516D01*
X41377516Y41483165D01*
X41253284Y41566174D01*
X41115246Y41623351D01*
X40968706Y41652500D01*
X40880516Y41652500D01*
X40836322Y41670806D01*
X40444232Y42062896D01*
X40444227Y42062901D01*
X40328274Y42129847D01*
X40255622Y42149313D01*
X40217673Y42178432D01*
X40209299Y42209683D01*
X40209299Y42401578D01*
X40209299Y42401579D01*
X40206338Y42427109D01*
X40160234Y42531525D01*
X40079525Y42612234D01*
X39975109Y42658338D01*
X39949579Y42661300D01*
X39925000Y42661299D01*
X39880808Y42679603D01*
X39862500Y42723797D01*
X39862500Y43185041D01*
X39867825Y43210285D01*
X39881338Y43240890D01*
X39881339Y43240893D01*
X39884299Y43266411D01*
X39884299Y43266412D01*
X39884300Y43266421D01*
X39884299Y44557578D01*
X39881338Y44583109D01*
X39859481Y44632611D01*
X40652001Y44632611D01*
X40654949Y44607192D01*
X40654949Y44607191D01*
X40700857Y44503221D01*
X40781221Y44422857D01*
X40885194Y44376948D01*
X40910611Y44374000D01*
X41504000Y44374000D01*
X41808000Y44374000D01*
X42401388Y44374000D01*
X42426807Y44376949D01*
X42426808Y44376949D01*
X42530778Y44422857D01*
X42611142Y44503221D01*
X42657051Y44607194D01*
X42660000Y44632611D01*
X42660000Y45076000D01*
X41808000Y45076000D01*
X41808000Y44374000D01*
X41504000Y44374000D01*
X41504000Y45076000D01*
X40652001Y45076000D01*
X40652001Y44632611D01*
X39859481Y44632611D01*
X39835234Y44687525D01*
X39754525Y44768234D01*
X39650109Y44814338D01*
X39624579Y44817300D01*
X39337314Y44817299D01*
X39293121Y44835605D01*
X39274815Y44879799D01*
X39293121Y44923993D01*
X39515211Y45146082D01*
X39710896Y45341767D01*
X39710903Y45341776D01*
X39777844Y45457720D01*
X39777848Y45457729D01*
X39795663Y45524217D01*
X39795665Y45524227D01*
X39795953Y45525299D01*
X39808274Y45571284D01*
X39812499Y45587050D01*
X39812500Y45587056D01*
X39812500Y45687853D01*
X39830806Y45732047D01*
X39835232Y45736473D01*
X39835234Y45736475D01*
X39873610Y45823388D01*
X40652000Y45823388D01*
X40652000Y45380000D01*
X41504000Y45380000D01*
X41808000Y45380000D01*
X42659999Y45380000D01*
X42659999Y45823388D01*
X42657050Y45848807D01*
X42657050Y45848808D01*
X42611142Y45952778D01*
X42530778Y46033142D01*
X42426805Y46079051D01*
X42401388Y46081999D01*
X41808000Y46081999D01*
X41808000Y45380000D01*
X41504000Y45380000D01*
X41504000Y46081999D01*
X40910612Y46081999D01*
X40885192Y46079050D01*
X40885191Y46079050D01*
X40781221Y46033142D01*
X40700857Y45952778D01*
X40654948Y45848805D01*
X40652000Y45823388D01*
X39873610Y45823388D01*
X39881338Y45840891D01*
X39884300Y45866421D01*
X39884299Y46347283D01*
X39902605Y46391477D01*
X40212321Y46701194D01*
X40256515Y46719500D01*
X40588201Y46719500D01*
X40632395Y46701194D01*
X40650701Y46657000D01*
X40650701Y46632421D01*
X40653662Y46606890D01*
X40653662Y46606889D01*
X40699767Y46502473D01*
X40780473Y46421767D01*
X40884892Y46375661D01*
X40910421Y46372700D01*
X42401578Y46372700D01*
X42427109Y46375662D01*
X42427110Y46375662D01*
X42473214Y46396019D01*
X42531525Y46421766D01*
X42612234Y46502475D01*
X42658338Y46606891D01*
X42661300Y46632421D01*
X42661300Y46673000D01*
X42679606Y46717194D01*
X42723800Y46735500D01*
X44367931Y46735500D01*
X44412125Y46717194D01*
X44474482Y46654836D01*
X44474484Y46654834D01*
X44598714Y46571826D01*
X44598717Y46571825D01*
X44696326Y46531394D01*
X44736754Y46514649D01*
X44736755Y46514648D01*
X44736757Y46514648D01*
X44883293Y46485500D01*
X44883294Y46485500D01*
X45032706Y46485500D01*
X45179242Y46514648D01*
X45179246Y46514649D01*
X45317282Y46571825D01*
X45317285Y46571826D01*
X45441515Y46654834D01*
X45547165Y46760484D01*
X45630173Y46884714D01*
X45630174Y46884717D01*
X45654079Y46942429D01*
X45687351Y47022754D01*
X45716500Y47169294D01*
X45716500Y47318706D01*
X45687351Y47465246D01*
X45630174Y47603284D01*
X45547165Y47727516D01*
X45441516Y47833165D01*
X45317284Y47916174D01*
X45179246Y47973351D01*
X45032706Y48002500D01*
X44883294Y48002500D01*
X44736754Y47973351D01*
X44598716Y47916174D01*
X44598715Y47916173D01*
X44598714Y47916173D01*
X44474484Y47833165D01*
X44412125Y47770806D01*
X44367931Y47752500D01*
X42723799Y47752500D01*
X42679605Y47770806D01*
X42661299Y47815000D01*
X42661299Y47823578D01*
X42660187Y47833165D01*
X42658338Y47849109D01*
X42612234Y47953525D01*
X42531525Y48034234D01*
X42427109Y48080338D01*
X42401579Y48083300D01*
X40910422Y48083299D01*
X40910421Y48083299D01*
X40907460Y48082955D01*
X40884891Y48080338D01*
X40780475Y48034234D01*
X40699766Y47953525D01*
X40683274Y47916174D01*
X40653661Y47849107D01*
X40650700Y47823578D01*
X40650700Y47799000D01*
X40632394Y47754806D01*
X40588200Y47736500D01*
X40086945Y47736500D01*
X39953055Y47736500D01*
X39953048Y47736498D01*
X39823726Y47701847D01*
X39823723Y47701846D01*
X39707774Y47634901D01*
X39707768Y47634896D01*
X39508478Y47435605D01*
X39464284Y47417299D01*
X38983422Y47417299D01*
X38957891Y47414338D01*
X38853475Y47368234D01*
X38853474Y47368233D01*
X38852636Y47367863D01*
X38804814Y47366758D01*
X38802146Y47367863D01*
X38699805Y47413051D01*
X38674388Y47415999D01*
X38506000Y47415999D01*
X38506000Y46574500D01*
X38487694Y46530306D01*
X38443500Y46512000D01*
X38264500Y46512000D01*
X38220306Y46530306D01*
X38202000Y46574500D01*
X38202000Y47415999D01*
X38033612Y47415999D01*
X38008192Y47413050D01*
X38008191Y47413050D01*
X38000247Y47409542D01*
X37952425Y47408436D01*
X37917826Y47441469D01*
X37912500Y47466716D01*
X37912500Y48167136D01*
X37930806Y48211330D01*
X37975000Y48229636D01*
X38000242Y48224311D01*
X38015099Y48217751D01*
X38028892Y48211661D01*
X38054421Y48208700D01*
X39161578Y48208700D01*
X39187109Y48211662D01*
X39187110Y48211662D01*
X39233214Y48232019D01*
X39291525Y48257766D01*
X39372234Y48338475D01*
X39418338Y48442891D01*
X39421300Y48468421D01*
X39421300Y48468611D01*
X42876001Y48468611D01*
X42878949Y48443192D01*
X42878949Y48443191D01*
X42924857Y48339221D01*
X43005221Y48258857D01*
X43109194Y48212948D01*
X43134611Y48210000D01*
X43536000Y48210000D01*
X43840000Y48210000D01*
X44241388Y48210000D01*
X44266807Y48212949D01*
X44266808Y48212949D01*
X44370778Y48258857D01*
X44451142Y48339221D01*
X44497051Y48443194D01*
X44500000Y48468611D01*
X44500000Y49759000D01*
X43840000Y49759000D01*
X43840000Y48210000D01*
X43536000Y48210000D01*
X43536000Y49759000D01*
X42876001Y49759000D01*
X42876001Y48468611D01*
X39421300Y48468611D01*
X39421299Y50063000D01*
X39421299Y51262611D01*
X40336001Y51262611D01*
X40338949Y51237192D01*
X40338949Y51237191D01*
X40384857Y51133221D01*
X40465221Y51052857D01*
X40569194Y51006948D01*
X40594611Y51004000D01*
X40996000Y51004000D01*
X41300000Y51004000D01*
X41701388Y51004000D01*
X41726807Y51006949D01*
X41726808Y51006949D01*
X41830778Y51052857D01*
X41911142Y51133221D01*
X41957051Y51237194D01*
X41960000Y51262611D01*
X41960000Y51353388D01*
X42876000Y51353388D01*
X42876000Y50063000D01*
X43536000Y50063000D01*
X43840000Y50063000D01*
X44499999Y50063000D01*
X44499999Y51353388D01*
X44497050Y51378807D01*
X44497050Y51378808D01*
X44451142Y51482778D01*
X44370778Y51563142D01*
X44266805Y51609051D01*
X44241388Y51611999D01*
X43840000Y51611999D01*
X43840000Y50063000D01*
X43536000Y50063000D01*
X43536000Y51611999D01*
X43134612Y51611999D01*
X43109192Y51609050D01*
X43109191Y51609050D01*
X43005221Y51563142D01*
X42924857Y51482778D01*
X42878948Y51378805D01*
X42876000Y51353388D01*
X41960000Y51353388D01*
X41960000Y52553000D01*
X41300000Y52553000D01*
X41300000Y51004000D01*
X40996000Y51004000D01*
X40996000Y52553000D01*
X40336001Y52553000D01*
X40336001Y51262611D01*
X39421299Y51262611D01*
X39421299Y51353578D01*
X39421299Y51353579D01*
X39418338Y51379109D01*
X39372234Y51483525D01*
X39291525Y51564234D01*
X39187109Y51610338D01*
X39161579Y51613300D01*
X38054422Y51613299D01*
X38054421Y51613299D01*
X38051460Y51612955D01*
X38028891Y51610338D01*
X37924475Y51564234D01*
X37843766Y51483525D01*
X37805642Y51397183D01*
X37797661Y51379107D01*
X37794700Y51353578D01*
X37794700Y50223716D01*
X37776394Y50179522D01*
X36997103Y49400232D01*
X36997096Y49400223D01*
X36930155Y49284279D01*
X36930151Y49284270D01*
X36895501Y49154951D01*
X36895500Y49154943D01*
X36895500Y47336147D01*
X36877194Y47291953D01*
X36872766Y47287525D01*
X36852003Y47240500D01*
X36826661Y47183107D01*
X36823700Y47157578D01*
X36823700Y45866421D01*
X36826662Y45840890D01*
X36826662Y45840889D01*
X36872767Y45736473D01*
X36877194Y45732047D01*
X36895500Y45687853D01*
X36895500Y45145056D01*
X36895501Y45145048D01*
X36930152Y45015726D01*
X36930153Y45015723D01*
X36997099Y44899772D01*
X37010473Y44886398D01*
X37028776Y44842203D01*
X37010467Y44798010D01*
X36991524Y44785034D01*
X36953475Y44768234D01*
X36872766Y44687525D01*
X36840378Y44614173D01*
X36826661Y44583107D01*
X36823700Y44557578D01*
X36823700Y43948552D01*
X36805394Y43904358D01*
X36761200Y43886052D01*
X36717006Y43904358D01*
X36438564Y44182800D01*
X36079439Y44541926D01*
X35980862Y44598839D01*
X35913576Y44616868D01*
X35870919Y44628299D01*
X35870914Y44628300D01*
X35870913Y44628300D01*
X34487087Y44628300D01*
X34487081Y44628299D01*
X34440269Y44615755D01*
X34377139Y44598839D01*
X34278562Y44541926D01*
X34278561Y44541925D01*
X34085991Y44349356D01*
X34041799Y44331051D01*
X33997605Y44349357D01*
X33979299Y44393551D01*
X33979299Y45265578D01*
X33979299Y45265579D01*
X33976338Y45291109D01*
X33930234Y45395525D01*
X33849525Y45476234D01*
X33745109Y45522338D01*
X33719579Y45525300D01*
X32828422Y45525299D01*
X32828421Y45525299D01*
X32825460Y45524955D01*
X32802891Y45522338D01*
X32698475Y45476234D01*
X32617766Y45395525D01*
X32594034Y45341776D01*
X32571661Y45291107D01*
X32568700Y45265578D01*
X32568700Y44593848D01*
X32550394Y44549654D01*
X32506200Y44531348D01*
X32471479Y44541880D01*
X32363284Y44614174D01*
X32225246Y44671351D01*
X32078706Y44700500D01*
X31929294Y44700500D01*
X31863886Y44687489D01*
X31816971Y44696821D01*
X31790395Y44736594D01*
X31799727Y44783511D01*
X31820442Y44802913D01*
X31824223Y44805096D01*
X31824232Y44805103D01*
X32915522Y45896394D01*
X32959716Y45914700D01*
X33719578Y45914700D01*
X33745109Y45917662D01*
X33745110Y45917662D01*
X33824639Y45952778D01*
X33849525Y45963766D01*
X33930234Y46044475D01*
X33976338Y46148891D01*
X33979300Y46174421D01*
X33979299Y47265578D01*
X33976338Y47291109D01*
X33930234Y47395525D01*
X33849525Y47476234D01*
X33819754Y47489378D01*
X33786721Y47523975D01*
X33782500Y47546553D01*
X33782500Y48146200D01*
X33800806Y48190394D01*
X33845000Y48208700D01*
X34081578Y48208700D01*
X34107109Y48211662D01*
X34107110Y48211662D01*
X34153214Y48232019D01*
X34211525Y48257766D01*
X34292234Y48338475D01*
X34338338Y48442891D01*
X34341300Y48468421D01*
X34341299Y51353578D01*
X34338338Y51379109D01*
X34292234Y51483525D01*
X34211525Y51564234D01*
X34107109Y51610338D01*
X34081579Y51613300D01*
X32974422Y51613299D01*
X32974421Y51613299D01*
X32971460Y51612955D01*
X32948891Y51610338D01*
X32844475Y51564234D01*
X32763766Y51483525D01*
X32725642Y51397183D01*
X32717661Y51379107D01*
X32714700Y51353578D01*
X32714700Y48468421D01*
X32717662Y48442890D01*
X32717662Y48442889D01*
X32760175Y48346609D01*
X32765500Y48321364D01*
X32765500Y47546553D01*
X32747194Y47502359D01*
X32728247Y47489379D01*
X32698475Y47476234D01*
X32617766Y47395525D01*
X32591548Y47336147D01*
X32571661Y47291107D01*
X32568700Y47265578D01*
X32568700Y47013716D01*
X32550394Y46969522D01*
X31319678Y45738806D01*
X31275484Y45720500D01*
X17100069Y45720500D01*
X17055875Y45738806D01*
X17042032Y45752649D01*
X16993516Y45801165D01*
X16869284Y45884174D01*
X16731246Y45941351D01*
X16584706Y45970500D01*
X16435294Y45970500D01*
X16288754Y45941351D01*
X16150716Y45884174D01*
X16150715Y45884173D01*
X16150714Y45884173D01*
X16026484Y45801165D01*
X15920834Y45695515D01*
X15837826Y45571285D01*
X15837826Y45571284D01*
X15780649Y45433246D01*
X15780648Y45433242D01*
X15751500Y45286706D01*
X15751500Y45137293D01*
X15780648Y44990757D01*
X15837825Y44852717D01*
X15837826Y44852714D01*
X15920834Y44728484D01*
X16026484Y44622834D01*
X16150714Y44539826D01*
X16150717Y44539825D01*
X16248326Y44499394D01*
X16288754Y44482649D01*
X16288755Y44482648D01*
X16288757Y44482648D01*
X16435293Y44453500D01*
X16435294Y44453500D01*
X16584706Y44453500D01*
X16731242Y44482648D01*
X16731246Y44482649D01*
X16840692Y44527983D01*
X16869282Y44539825D01*
X16869285Y44539826D01*
X16993515Y44622834D01*
X17055875Y44685194D01*
X17100069Y44703500D01*
X31572367Y44703500D01*
X31616561Y44685194D01*
X31634867Y44641000D01*
X31616561Y44596806D01*
X31607091Y44589033D01*
X31560014Y44557578D01*
X31520484Y44531165D01*
X31414834Y44425515D01*
X31331826Y44301285D01*
X31331826Y44301284D01*
X31274649Y44163246D01*
X31274648Y44163242D01*
X31245500Y44016706D01*
X31245500Y43867293D01*
X31271987Y43734134D01*
X31274649Y43720754D01*
X31274687Y43720663D01*
X31304902Y43647716D01*
X31304901Y43599881D01*
X31271076Y43566056D01*
X31247159Y43561299D01*
X29938422Y43561299D01*
X29912891Y43558338D01*
X29808475Y43512234D01*
X29727766Y43431525D01*
X29703517Y43376606D01*
X29681661Y43327107D01*
X29678700Y43301578D01*
X29678700Y41910421D01*
X29681662Y41884890D01*
X29681662Y41884889D01*
X29727767Y41780473D01*
X29808047Y41700194D01*
X29826353Y41656000D01*
X29808047Y41611806D01*
X29727766Y41531525D01*
X29715613Y41504000D01*
X29681661Y41427107D01*
X29678700Y41401578D01*
X29678700Y41228600D01*
X29660394Y41184406D01*
X29616200Y41166100D01*
X28876600Y41166100D01*
X28832406Y41184406D01*
X27615233Y42401579D01*
X26362916Y43653896D01*
X26331414Y43674945D01*
X26262991Y43720664D01*
X26230470Y43734134D01*
X26151960Y43766655D01*
X26034090Y43790100D01*
X5140090Y43790100D01*
X5019910Y43790100D01*
X4902040Y43766654D01*
X4791009Y43720664D01*
X4791007Y43720663D01*
X4691084Y43653896D01*
X4606103Y43568915D01*
X4539336Y43468992D01*
X4493345Y43357958D01*
X4469900Y43240090D01*
X4469900Y42696859D01*
X4451594Y42652665D01*
X4432646Y42639685D01*
X4370475Y42612234D01*
X4289766Y42531525D01*
X4261573Y42467673D01*
X4243661Y42427107D01*
X4240700Y42401578D01*
X4240700Y42150800D01*
X4222394Y42106606D01*
X4178200Y42088300D01*
X2991087Y42088300D01*
X2910599Y42066732D01*
X2881140Y42058840D01*
X2881138Y42058839D01*
X2782561Y42001926D01*
X1432074Y40651439D01*
X1417849Y40626800D01*
X1375160Y40552861D01*
X1375159Y40552858D01*
X1355082Y40477926D01*
X1355082Y40477925D01*
X1345700Y40442914D01*
X1345700Y34487080D01*
X1375160Y34377140D01*
X1375160Y34377138D01*
X1432075Y34278559D01*
X3148560Y32562074D01*
X3196727Y32534266D01*
X3196726Y32534265D01*
X3247136Y32505162D01*
X3247141Y32505160D01*
X3357081Y32475700D01*
X3357087Y32475700D01*
X4635878Y32475700D01*
X4680072Y32457394D01*
X4693052Y32438445D01*
X4717765Y32382476D01*
X4717766Y32382475D01*
X4798473Y32301767D01*
X4902892Y32255661D01*
X4928421Y32252700D01*
X5006200Y32252700D01*
X5050394Y32234394D01*
X5068700Y32190200D01*
X5068700Y31412421D01*
X5071662Y31386890D01*
X5071662Y31386889D01*
X5117767Y31282473D01*
X5198473Y31201767D01*
X5302892Y31155661D01*
X5328421Y31152700D01*
X5406200Y31152700D01*
X5450394Y31134394D01*
X5468700Y31090200D01*
X5468701Y30325799D01*
X5450395Y30281605D01*
X5406201Y30263299D01*
X5328422Y30263299D01*
X5302891Y30260338D01*
X5198475Y30214234D01*
X5117766Y30133525D01*
X5083386Y30055662D01*
X5071661Y30029107D01*
X5068700Y30003578D01*
X5068700Y29212421D01*
X5071662Y29186890D01*
X5071662Y29186889D01*
X5117767Y29082473D01*
X5198473Y29001767D01*
X5302892Y28955661D01*
X5328421Y28952700D01*
X6919578Y28952700D01*
X6945109Y28955662D01*
X6945110Y28955662D01*
X7011356Y28984913D01*
X7049525Y29001766D01*
X7130234Y29082475D01*
X7176338Y29186891D01*
X7179300Y29212421D01*
X7179299Y29990200D01*
X7197605Y30034394D01*
X7241798Y30052700D01*
X7319578Y30052700D01*
X7345109Y30055662D01*
X7345110Y30055662D01*
X7391214Y30076019D01*
X7449525Y30101766D01*
X7530234Y30182475D01*
X7554503Y30237438D01*
X7554948Y30238445D01*
X7589545Y30271480D01*
X7612122Y30275700D01*
X12984919Y30275700D01*
X13094859Y30305160D01*
X13094861Y30305160D01*
X13144150Y30333617D01*
X13193439Y30362074D01*
X14638759Y31807394D01*
X14682953Y31825700D01*
X15359053Y31825700D01*
X15403247Y31807394D01*
X15421553Y31763200D01*
X15403247Y31719006D01*
X15367766Y31683525D01*
X15354179Y31652753D01*
X15321661Y31579107D01*
X15318700Y31553578D01*
X15318700Y29662421D01*
X15321662Y29636890D01*
X15321662Y29636889D01*
X15367767Y29532473D01*
X15448473Y29451767D01*
X15552892Y29405661D01*
X15578421Y29402700D01*
X17069578Y29402700D01*
X17095109Y29405662D01*
X17095110Y29405662D01*
X17153260Y29431338D01*
X17199525Y29451766D01*
X17280234Y29532475D01*
X17326338Y29636891D01*
X17329300Y29662421D01*
X17329299Y31553578D01*
X17326338Y31579109D01*
X17280234Y31683525D01*
X17244753Y31719006D01*
X17226447Y31763200D01*
X17244753Y31807394D01*
X17288947Y31825700D01*
X18845047Y31825700D01*
X18889241Y31807394D01*
X21327894Y29368739D01*
X21346200Y29324545D01*
X21344999Y29312352D01*
X21339500Y29284706D01*
X21339500Y29135293D01*
X21368648Y28988757D01*
X21425825Y28850717D01*
X21425826Y28850714D01*
X21508834Y28726484D01*
X21614484Y28620834D01*
X21738714Y28537826D01*
X21738717Y28537825D01*
X21836326Y28497394D01*
X21876754Y28480649D01*
X21876755Y28480648D01*
X21876757Y28480648D01*
X22023293Y28451500D01*
X22023294Y28451500D01*
X22172706Y28451500D01*
X22319242Y28480648D01*
X22319246Y28480649D01*
X22457282Y28537825D01*
X22457285Y28537826D01*
X22581515Y28620834D01*
X22687165Y28726484D01*
X22770173Y28850714D01*
X22770174Y28850717D01*
X22782839Y28881293D01*
X22827351Y28988754D01*
X22856500Y29135294D01*
X22856500Y29284706D01*
X22827351Y29431246D01*
X22770174Y29569284D01*
X22687165Y29693516D01*
X22581516Y29799165D01*
X22457284Y29882174D01*
X22319246Y29939351D01*
X22172706Y29968500D01*
X22023294Y29968500D01*
X21995644Y29963000D01*
X21948729Y29972332D01*
X21939263Y29980100D01*
X19438359Y32481006D01*
X19420053Y32525200D01*
X19438359Y32569394D01*
X19482553Y32587700D01*
X20115047Y32587700D01*
X20159241Y32569394D01*
X22848560Y29880075D01*
X22947140Y29823160D01*
X23057081Y29793700D01*
X23057087Y29793700D01*
X23170914Y29793700D01*
X24235207Y29793700D01*
X24279401Y29775394D01*
X24287174Y29765923D01*
X24302834Y29742484D01*
X24408484Y29636834D01*
X24532714Y29553826D01*
X24532717Y29553825D01*
X24630326Y29513394D01*
X24670754Y29496649D01*
X24670755Y29496648D01*
X24670757Y29496648D01*
X24817293Y29467500D01*
X24817294Y29467500D01*
X24966706Y29467500D01*
X25113242Y29496648D01*
X25113246Y29496649D01*
X25224585Y29542767D01*
X25251282Y29553825D01*
X25251285Y29553826D01*
X25375515Y29636834D01*
X25481165Y29742484D01*
X25564173Y29866714D01*
X25564177Y29866722D01*
X25621348Y30004745D01*
X25621348Y30004746D01*
X25621348Y30004747D01*
X25621351Y30004754D01*
X25623513Y30015626D01*
X25650087Y30055399D01*
X25697003Y30064733D01*
X25729006Y30047627D01*
X25896556Y29880078D01*
X25896559Y29880075D01*
X25896561Y29880074D01*
X25945849Y29851617D01*
X25995139Y29823160D01*
X26105080Y29793700D01*
X26105086Y29793700D01*
X26105087Y29793700D01*
X26160359Y29793700D01*
X26204553Y29775394D01*
X26222443Y29738402D01*
X26223662Y29727890D01*
X26223662Y29727889D01*
X26269767Y29623473D01*
X26350473Y29542767D01*
X26350474Y29542766D01*
X26350475Y29542766D01*
X26399375Y29521174D01*
X26432410Y29486577D01*
X26431305Y29438755D01*
X26399375Y29406825D01*
X26350475Y29385234D01*
X26269766Y29304525D01*
X26232176Y29219392D01*
X26223661Y29200107D01*
X26220700Y29174578D01*
X26220700Y28483421D01*
X26223662Y28457890D01*
X26223662Y28457889D01*
X26269767Y28353473D01*
X26350473Y28272767D01*
X26350474Y28272766D01*
X26350475Y28272766D01*
X26399375Y28251174D01*
X26432410Y28216577D01*
X26431305Y28168755D01*
X26399375Y28136825D01*
X26350475Y28115234D01*
X26269766Y28034525D01*
X26267129Y28028554D01*
X26232535Y27995521D01*
X26209956Y27991300D01*
X25851087Y27991300D01*
X25851081Y27991299D01*
X25792659Y27975644D01*
X25741139Y27961839D01*
X25642562Y27904926D01*
X25562074Y27824438D01*
X25533617Y27775149D01*
X25505160Y27725860D01*
X25505160Y27725858D01*
X25475700Y27615918D01*
X25475700Y23057080D01*
X25505160Y22947140D01*
X25505160Y22947138D01*
X25562075Y22848559D01*
X26404560Y22006074D01*
X26441214Y21984913D01*
X26441213Y21984912D01*
X26503136Y21949162D01*
X26503141Y21949160D01*
X26613081Y21919700D01*
X26613087Y21919700D01*
X27029207Y21919700D01*
X27073401Y21901394D01*
X27081174Y21891923D01*
X27096834Y21868484D01*
X27202484Y21762834D01*
X27326714Y21679826D01*
X27326717Y21679825D01*
X27385635Y21655421D01*
X27464754Y21622649D01*
X27464755Y21622648D01*
X27464757Y21622648D01*
X27611293Y21593500D01*
X27611294Y21593500D01*
X27760706Y21593500D01*
X27907242Y21622648D01*
X27907246Y21622649D01*
X28045282Y21679825D01*
X28045285Y21679826D01*
X28169515Y21762834D01*
X28275165Y21868484D01*
X28358173Y21992714D01*
X28358174Y21992717D01*
X28363707Y22006074D01*
X28415351Y22130754D01*
X28444500Y22277294D01*
X28444500Y22426706D01*
X28415351Y22573246D01*
X28358174Y22711284D01*
X28275165Y22835516D01*
X28169516Y22941165D01*
X28045284Y23024174D01*
X28043882Y23024754D01*
X28043520Y23025116D01*
X28042575Y23025622D01*
X28042728Y23025908D01*
X28010053Y23058574D01*
X28010046Y23106409D01*
X28043866Y23140239D01*
X28067792Y23145000D01*
X28771388Y23145000D01*
X28796807Y23147949D01*
X28796808Y23147949D01*
X28900778Y23193857D01*
X28981142Y23274221D01*
X29027051Y23378194D01*
X29029999Y23403611D01*
X29029999Y23547746D01*
X29048305Y23591940D01*
X29092499Y23610246D01*
X29136693Y23591940D01*
X29466782Y23261851D01*
X29485088Y23217657D01*
X29466782Y23173463D01*
X29382834Y23089515D01*
X29299826Y22965285D01*
X29299825Y22965282D01*
X29292310Y22947138D01*
X29242649Y22827246D01*
X29242648Y22827242D01*
X29213500Y22680706D01*
X29213500Y22531293D01*
X29242648Y22384757D01*
X29299825Y22246715D01*
X29382834Y22122484D01*
X29488484Y22016834D01*
X29612714Y21933826D01*
X29612717Y21933825D01*
X29691014Y21901394D01*
X29750754Y21876649D01*
X29750755Y21876648D01*
X29750757Y21876648D01*
X29897293Y21847500D01*
X29897294Y21847500D01*
X30046706Y21847500D01*
X30193242Y21876648D01*
X30193246Y21876649D01*
X30331282Y21933825D01*
X30331285Y21933826D01*
X30455515Y22016834D01*
X30561165Y22122484D01*
X30644174Y22246715D01*
X30674260Y22319351D01*
X30701351Y22384754D01*
X30730500Y22531294D01*
X30730500Y22680706D01*
X30701351Y22827246D01*
X30644174Y22965284D01*
X30561165Y23089516D01*
X30455516Y23195165D01*
X30432076Y23210826D01*
X30405501Y23250599D01*
X30404300Y23262793D01*
X30404300Y23424912D01*
X30404299Y23424918D01*
X30395546Y23457580D01*
X30374839Y23534861D01*
X30317926Y23633438D01*
X30237438Y23713926D01*
X29049605Y24901759D01*
X29031299Y24945953D01*
X29031299Y25364578D01*
X29030990Y25367242D01*
X29028338Y25390109D01*
X28982234Y25494525D01*
X28901525Y25575234D01*
X28852622Y25596826D01*
X28819590Y25631420D01*
X28820694Y25679243D01*
X28852623Y25711173D01*
X28901525Y25732766D01*
X28982232Y25813473D01*
X28982234Y25813475D01*
X29026736Y25914264D01*
X29061333Y25947299D01*
X29109156Y25946194D01*
X29128105Y25933213D01*
X29234484Y25826834D01*
X29358714Y25743826D01*
X29358717Y25743825D01*
X29456326Y25703394D01*
X29496754Y25686649D01*
X29496755Y25686648D01*
X29496757Y25686648D01*
X29643293Y25657500D01*
X29792604Y25657500D01*
X29836798Y25639194D01*
X29855104Y25595000D01*
X29844571Y25560277D01*
X29807826Y25505285D01*
X29807826Y25505284D01*
X29750649Y25367246D01*
X29750648Y25367242D01*
X29721500Y25220706D01*
X29721500Y25071293D01*
X29750648Y24924757D01*
X29807825Y24786717D01*
X29807826Y24786714D01*
X29890834Y24662484D01*
X29996484Y24556834D01*
X30120714Y24473826D01*
X30120717Y24473825D01*
X30218326Y24433394D01*
X30258754Y24416649D01*
X30258755Y24416648D01*
X30258757Y24416648D01*
X30405293Y24387500D01*
X30405294Y24387500D01*
X30554706Y24387500D01*
X30701242Y24416648D01*
X30701246Y24416649D01*
X30818440Y24465192D01*
X30839282Y24473825D01*
X30839285Y24473826D01*
X30963515Y24556834D01*
X31069165Y24662484D01*
X31152173Y24786714D01*
X31152174Y24786717D01*
X31152821Y24788279D01*
X31209351Y24924754D01*
X31238500Y25071294D01*
X31238500Y25220706D01*
X31233000Y25248353D01*
X31242331Y25295268D01*
X31250105Y25304740D01*
X31314006Y25368641D01*
X31358200Y25386947D01*
X31402394Y25368641D01*
X31420700Y25324447D01*
X31420700Y24673421D01*
X31423662Y24647890D01*
X31423662Y24647889D01*
X31469767Y24543473D01*
X31550473Y24462767D01*
X31550474Y24462766D01*
X31550475Y24462766D01*
X31599375Y24441174D01*
X31632410Y24406577D01*
X31631305Y24358755D01*
X31599375Y24326825D01*
X31550475Y24305234D01*
X31469766Y24224525D01*
X31440496Y24158234D01*
X31423661Y24120107D01*
X31420700Y24094578D01*
X31420700Y23403421D01*
X31423662Y23377890D01*
X31423662Y23377889D01*
X31469767Y23273473D01*
X31550477Y23192763D01*
X31552437Y23191421D01*
X31553590Y23189650D01*
X31554570Y23188671D01*
X31554363Y23188464D01*
X31578547Y23151340D01*
X31568668Y23104536D01*
X31561304Y23095669D01*
X31404075Y22938440D01*
X31347160Y22839861D01*
X31347159Y22839858D01*
X31320678Y22741028D01*
X31317700Y22729916D01*
X31317700Y9595080D01*
X31347160Y9485140D01*
X31347160Y9485138D01*
X31404075Y9386559D01*
X36252394Y4538239D01*
X36270700Y4494045D01*
X36270700Y3002421D01*
X36273662Y2976890D01*
X36273662Y2976889D01*
X36319767Y2872473D01*
X36400473Y2791767D01*
X36504892Y2745661D01*
X36530421Y2742700D01*
X36830339Y2742700D01*
X36874533Y2724394D01*
X36892839Y2680200D01*
X36874533Y2636006D01*
X36865067Y2628236D01*
X36854484Y2621165D01*
X36854481Y2621162D01*
X36748834Y2515515D01*
X36665826Y2391285D01*
X36665826Y2391284D01*
X36608649Y2253246D01*
X36608648Y2253242D01*
X36584851Y2133607D01*
X36558275Y2093833D01*
X36523552Y2083300D01*
X35419799Y2083300D01*
X35375605Y2101606D01*
X35357299Y2145800D01*
X35357299Y3093578D01*
X35355753Y3106908D01*
X35354338Y3119109D01*
X35308234Y3223525D01*
X35227525Y3304234D01*
X35123109Y3350338D01*
X35097579Y3353300D01*
X33990422Y3353299D01*
X33990421Y3353299D01*
X33987460Y3352955D01*
X33964891Y3350338D01*
X33860475Y3304234D01*
X33779766Y3223525D01*
X33741642Y3137183D01*
X33733661Y3119107D01*
X33732246Y3106908D01*
X33730700Y3093579D01*
X33730700Y1810754D01*
X33730701Y563000D01*
X33712395Y518806D01*
X33668201Y500500D01*
X30339800Y500500D01*
X30295606Y518806D01*
X30277300Y563000D01*
X30277300Y1283200D01*
X30295606Y1327394D01*
X30339800Y1345700D01*
X31347207Y1345700D01*
X31391401Y1327394D01*
X31399174Y1317923D01*
X31414834Y1294484D01*
X31520484Y1188834D01*
X31644714Y1105826D01*
X31644717Y1105825D01*
X31742326Y1065394D01*
X31782754Y1048649D01*
X31782755Y1048648D01*
X31782757Y1048648D01*
X31929293Y1019500D01*
X31929294Y1019500D01*
X32078706Y1019500D01*
X32225242Y1048648D01*
X32225246Y1048649D01*
X32363282Y1105825D01*
X32363285Y1105826D01*
X32487515Y1188834D01*
X32593165Y1294484D01*
X32676173Y1418714D01*
X32676174Y1418717D01*
X32733351Y1556754D01*
X32762500Y1703294D01*
X32762500Y1852706D01*
X32733351Y1999246D01*
X32676174Y2137284D01*
X32593165Y2261516D01*
X32487516Y2367165D01*
X32363284Y2450174D01*
X32225246Y2507351D01*
X32078706Y2536500D01*
X31929294Y2536500D01*
X31782754Y2507351D01*
X31644716Y2450174D01*
X31644715Y2450173D01*
X31644714Y2450173D01*
X31520484Y2367165D01*
X31414834Y2261515D01*
X31399174Y2238077D01*
X31359401Y2211501D01*
X31347207Y2210300D01*
X30339799Y2210300D01*
X30295605Y2228606D01*
X30277299Y2272800D01*
X30277299Y3093578D01*
X30275753Y3106908D01*
X30274338Y3119109D01*
X30228234Y3223525D01*
X30147525Y3304234D01*
X30043109Y3350338D01*
X30017579Y3353300D01*
X28910422Y3353299D01*
X28910421Y3353299D01*
X28907460Y3352955D01*
X28884891Y3350338D01*
X28780475Y3304234D01*
X28699766Y3223525D01*
X28661642Y3137183D01*
X28653661Y3119107D01*
X28652246Y3106908D01*
X28650700Y3093579D01*
X28650700Y1810754D01*
X28650701Y563000D01*
X28632395Y518806D01*
X28588201Y500500D01*
X25259800Y500500D01*
X25215606Y518806D01*
X25197300Y563000D01*
X25197299Y3002611D01*
X26112001Y3002611D01*
X26114949Y2977192D01*
X26114949Y2977191D01*
X26160857Y2873221D01*
X26241221Y2792857D01*
X26345194Y2746948D01*
X26370611Y2744000D01*
X26772000Y2744000D01*
X27076000Y2744000D01*
X27477388Y2744000D01*
X27502807Y2746949D01*
X27502808Y2746949D01*
X27606778Y2792857D01*
X27687142Y2873221D01*
X27733051Y2977194D01*
X27736000Y3002611D01*
X27736000Y4293000D01*
X27076000Y4293000D01*
X27076000Y2744000D01*
X26772000Y2744000D01*
X26772000Y4293000D01*
X26112001Y4293000D01*
X26112001Y3002611D01*
X25197299Y3002611D01*
X25197299Y3093578D01*
X25195753Y3106908D01*
X25194338Y3119109D01*
X25148234Y3223525D01*
X25067525Y3304234D01*
X24963109Y3350338D01*
X24937579Y3353300D01*
X23830422Y3353299D01*
X23830421Y3353299D01*
X23827460Y3352955D01*
X23804891Y3350338D01*
X23700475Y3304234D01*
X23619766Y3223525D01*
X23581642Y3137183D01*
X23573661Y3119107D01*
X23572246Y3106908D01*
X23570700Y3093579D01*
X23570700Y1810754D01*
X23570701Y563000D01*
X23552395Y518806D01*
X23508201Y500500D01*
X20179800Y500500D01*
X20135606Y518806D01*
X20117300Y563000D01*
X20117299Y3093578D01*
X20115753Y3106908D01*
X20114338Y3119109D01*
X20068234Y3223525D01*
X19987525Y3304234D01*
X19883109Y3350338D01*
X19857579Y3353300D01*
X18750422Y3353299D01*
X18750421Y3353299D01*
X18747460Y3352955D01*
X18724891Y3350338D01*
X18620475Y3304234D01*
X18539766Y3223525D01*
X18501642Y3137183D01*
X18493661Y3119107D01*
X18492246Y3106908D01*
X18490700Y3093579D01*
X18490700Y1810754D01*
X18490701Y563000D01*
X18472395Y518806D01*
X18428201Y500500D01*
X11181262Y500500D01*
X11137068Y518806D01*
X11118762Y563000D01*
X11124087Y588245D01*
X11143051Y631194D01*
X11146000Y656611D01*
X11146000Y1150000D01*
X7338001Y1150000D01*
X7338001Y656611D01*
X7340949Y631192D01*
X7340950Y631188D01*
X7359912Y588246D01*
X7361018Y540423D01*
X7327984Y505826D01*
X7302738Y500500D01*
X4381262Y500500D01*
X4337068Y518806D01*
X4318762Y563000D01*
X4324087Y588245D01*
X4343051Y631194D01*
X4346000Y656611D01*
X4346000Y1150000D01*
X2504500Y1150000D01*
X2460306Y1168306D01*
X2442000Y1212500D01*
X2442000Y1302000D01*
X2352500Y1302000D01*
X2308306Y1320306D01*
X2290000Y1364500D01*
X2290000Y1454000D01*
X2594000Y1454000D01*
X4345999Y1454000D01*
X4345999Y1947388D01*
X7338000Y1947388D01*
X7338000Y1454000D01*
X9090000Y1454000D01*
X9394000Y1454000D01*
X11145999Y1454000D01*
X11145999Y1947388D01*
X11143050Y1972807D01*
X11143050Y1972808D01*
X11097142Y2076778D01*
X11016778Y2157142D01*
X10912805Y2203051D01*
X10887388Y2205999D01*
X9394000Y2205999D01*
X9394000Y1454000D01*
X9090000Y1454000D01*
X9090000Y2205999D01*
X7596612Y2205999D01*
X7571192Y2203050D01*
X7571191Y2203050D01*
X7467221Y2157142D01*
X7386857Y2076778D01*
X7340948Y1972805D01*
X7338000Y1947388D01*
X4345999Y1947388D01*
X4343050Y1972807D01*
X4343050Y1972808D01*
X4297142Y2076778D01*
X4216778Y2157142D01*
X4112805Y2203051D01*
X4087388Y2205999D01*
X2594000Y2205999D01*
X2594000Y1454000D01*
X2290000Y1454000D01*
X2290000Y2205999D01*
X796612Y2205999D01*
X771192Y2203050D01*
X771191Y2203050D01*
X667221Y2157142D01*
X607194Y2097115D01*
X563000Y2078809D01*
X518806Y2097115D01*
X500500Y2141309D01*
X500500Y3302000D01*
X4841999Y3302000D01*
X4861214Y3106913D01*
X4861215Y3106908D01*
X4918118Y2919321D01*
X5010526Y2746435D01*
X5010530Y2746429D01*
X5134893Y2594893D01*
X5286429Y2470530D01*
X5286435Y2470526D01*
X5459316Y2378120D01*
X5459322Y2378118D01*
X5841997Y2302000D01*
X5841999Y2301999D01*
X6037086Y2321214D01*
X6037091Y2321215D01*
X6224678Y2378118D01*
X6224680Y2378119D01*
X6224683Y2378120D01*
X6304020Y2420526D01*
X6397564Y2470526D01*
X6397570Y2470530D01*
X6549107Y2594893D01*
X6673470Y2746430D01*
X6673748Y2746949D01*
X6765879Y2919316D01*
X6765880Y2919317D01*
X6842000Y3302000D01*
X6822785Y3497090D01*
X6765880Y3684683D01*
X6673470Y3857570D01*
X6549107Y4009107D01*
X6397570Y4133470D01*
X6224683Y4225880D01*
X5842000Y4302000D01*
X5646910Y4282785D01*
X5459317Y4225880D01*
X5325064Y4154120D01*
X5286435Y4133473D01*
X5286432Y4133471D01*
X5286430Y4133470D01*
X5134893Y4009107D01*
X5010530Y3857570D01*
X5010526Y3857564D01*
X4918120Y3684683D01*
X4918118Y3684677D01*
X4842000Y3302002D01*
X4841999Y3302000D01*
X500500Y3302000D01*
X500500Y4460853D01*
X518806Y4505047D01*
X563000Y4523353D01*
X607194Y4505047D01*
X666473Y4445767D01*
X770892Y4399661D01*
X796421Y4396700D01*
X4087578Y4396700D01*
X4113109Y4399662D01*
X4113110Y4399662D01*
X4166610Y4423285D01*
X4217525Y4445766D01*
X4298234Y4526475D01*
X4344338Y4630891D01*
X4347300Y4656421D01*
X4347300Y4731000D01*
X4365606Y4775194D01*
X4409800Y4793500D01*
X7274201Y4793500D01*
X7318395Y4775194D01*
X7336701Y4731000D01*
X7336701Y4656421D01*
X7339662Y4630890D01*
X7339662Y4630889D01*
X7385767Y4526473D01*
X7466473Y4445767D01*
X7570892Y4399661D01*
X7596421Y4396700D01*
X10887578Y4396700D01*
X10913109Y4399662D01*
X10913110Y4399662D01*
X10966610Y4423285D01*
X11017525Y4445766D01*
X11098234Y4526475D01*
X11144338Y4630891D01*
X11147300Y4656421D01*
X11147299Y5887578D01*
X21030700Y5887578D01*
X21030700Y3002421D01*
X21033662Y2976890D01*
X21033662Y2976889D01*
X21079767Y2872473D01*
X21160473Y2791767D01*
X21264892Y2745661D01*
X21290421Y2742700D01*
X22397578Y2742700D01*
X22423109Y2745662D01*
X22423110Y2745662D01*
X22469214Y2766019D01*
X22527525Y2791766D01*
X22608234Y2872475D01*
X22654338Y2976891D01*
X22657300Y3002421D01*
X22657299Y4445766D01*
X22657299Y5887388D01*
X26112000Y5887388D01*
X26112000Y4597000D01*
X26772000Y4597000D01*
X27076000Y4597000D01*
X27735999Y4597000D01*
X27735999Y5887388D01*
X27735977Y5887578D01*
X31190700Y5887578D01*
X31190700Y3002421D01*
X31193662Y2976890D01*
X31193662Y2976889D01*
X31239767Y2872473D01*
X31320473Y2791767D01*
X31424892Y2745661D01*
X31450421Y2742700D01*
X32557578Y2742700D01*
X32583109Y2745662D01*
X32583110Y2745662D01*
X32629214Y2766019D01*
X32687525Y2791766D01*
X32768234Y2872475D01*
X32814338Y2976891D01*
X32817300Y3002421D01*
X32817300Y3950200D01*
X32835606Y3994394D01*
X32879800Y4012700D01*
X33299704Y4012700D01*
X33343898Y3994394D01*
X33357446Y3974119D01*
X33363827Y3958713D01*
X33446834Y3834484D01*
X33552484Y3728834D01*
X33676714Y3645826D01*
X33676717Y3645825D01*
X33774326Y3605394D01*
X33814754Y3588649D01*
X33814755Y3588648D01*
X33814757Y3588648D01*
X33961293Y3559500D01*
X33961294Y3559500D01*
X34110706Y3559500D01*
X34257242Y3588648D01*
X34257246Y3588649D01*
X34395282Y3645825D01*
X34395285Y3645826D01*
X34519515Y3728834D01*
X34625165Y3834484D01*
X34708173Y3958714D01*
X34708174Y3958717D01*
X34765351Y4096754D01*
X34794500Y4243294D01*
X34794500Y4392706D01*
X34765351Y4539246D01*
X34708174Y4677284D01*
X34625165Y4801516D01*
X34519516Y4907165D01*
X34395284Y4990174D01*
X34257246Y5047351D01*
X34110706Y5076500D01*
X33961294Y5076500D01*
X33814754Y5047351D01*
X33676716Y4990174D01*
X33676715Y4990173D01*
X33676714Y4990173D01*
X33552484Y4907165D01*
X33540925Y4895606D01*
X33496731Y4877300D01*
X32879799Y4877300D01*
X32835605Y4895606D01*
X32817299Y4939800D01*
X32817299Y5887578D01*
X32817299Y5887579D01*
X32814338Y5913109D01*
X32768234Y6017525D01*
X32687525Y6098234D01*
X32583109Y6144338D01*
X32557579Y6147300D01*
X31450422Y6147299D01*
X31450421Y6147299D01*
X31447460Y6146955D01*
X31424891Y6144338D01*
X31320475Y6098234D01*
X31239766Y6017525D01*
X31201642Y5931183D01*
X31193661Y5913107D01*
X31190700Y5887578D01*
X27735977Y5887578D01*
X27733050Y5912807D01*
X27733050Y5912808D01*
X27687142Y6016778D01*
X27606778Y6097142D01*
X27502805Y6143051D01*
X27477388Y6145999D01*
X27076000Y6145999D01*
X27076000Y4597000D01*
X26772000Y4597000D01*
X26772000Y6145999D01*
X26370612Y6145999D01*
X26345192Y6143050D01*
X26345191Y6143050D01*
X26241221Y6097142D01*
X26160857Y6016778D01*
X26114948Y5912805D01*
X26112000Y5887388D01*
X22657299Y5887388D01*
X22657299Y5887578D01*
X22657299Y5887579D01*
X22654338Y5913109D01*
X22608234Y6017525D01*
X22527525Y6098234D01*
X22423109Y6144338D01*
X22397579Y6147300D01*
X21290422Y6147299D01*
X21290421Y6147299D01*
X21287460Y6146955D01*
X21264891Y6144338D01*
X21160475Y6098234D01*
X21079766Y6017525D01*
X21041642Y5931183D01*
X21033661Y5913107D01*
X21030700Y5887578D01*
X11147299Y5887578D01*
X11147299Y5947578D01*
X11144338Y5973109D01*
X11098234Y6077525D01*
X11017525Y6158234D01*
X10913109Y6204338D01*
X10887579Y6207300D01*
X9968999Y6207299D01*
X9924806Y6225605D01*
X9906500Y6269799D01*
X9906500Y7029931D01*
X9924806Y7074125D01*
X9987165Y7136484D01*
X10070173Y7260714D01*
X10070174Y7260717D01*
X10077689Y7278860D01*
X10127351Y7398754D01*
X10156500Y7545294D01*
X10156500Y7694706D01*
X10127351Y7841246D01*
X10070174Y7979284D01*
X9987165Y8103516D01*
X9881516Y8209165D01*
X9757284Y8292174D01*
X9619246Y8349351D01*
X9472706Y8378500D01*
X9323294Y8378500D01*
X9176754Y8349351D01*
X9038716Y8292174D01*
X9038715Y8292173D01*
X9038714Y8292173D01*
X8914484Y8209165D01*
X8808834Y8103515D01*
X8725826Y7979285D01*
X8725826Y7979284D01*
X8668649Y7841246D01*
X8668648Y7841242D01*
X8639500Y7694706D01*
X8639500Y7545293D01*
X8668648Y7398757D01*
X8725825Y7260717D01*
X8725826Y7260714D01*
X8808834Y7136484D01*
X8808836Y7136482D01*
X8871194Y7074125D01*
X8889500Y7029931D01*
X8889500Y6269799D01*
X8871194Y6225605D01*
X8827000Y6207299D01*
X7596422Y6207299D01*
X7570891Y6204338D01*
X7466475Y6158234D01*
X7385766Y6077525D01*
X7365862Y6032447D01*
X7339661Y5973107D01*
X7336700Y5947578D01*
X7336700Y5873000D01*
X7318394Y5828806D01*
X7274200Y5810500D01*
X4409799Y5810500D01*
X4365605Y5828806D01*
X4347299Y5873000D01*
X4347299Y5947578D01*
X4347299Y5947579D01*
X4344338Y5973109D01*
X4298234Y6077525D01*
X4217525Y6158234D01*
X4113109Y6204338D01*
X4087579Y6207300D01*
X796422Y6207299D01*
X796421Y6207299D01*
X793460Y6206955D01*
X770891Y6204338D01*
X666475Y6158234D01*
X666473Y6158232D01*
X607194Y6098953D01*
X563000Y6080647D01*
X518806Y6098953D01*
X500500Y6143147D01*
X500500Y24262611D01*
X1070001Y24262611D01*
X1072949Y24237192D01*
X1072949Y24237191D01*
X1118857Y24133221D01*
X1199221Y24052857D01*
X1303194Y24006948D01*
X1328611Y24004000D01*
X2172000Y24004000D01*
X2476000Y24004000D01*
X3319388Y24004000D01*
X3344807Y24006949D01*
X3344808Y24006949D01*
X3448778Y24052857D01*
X3529142Y24133221D01*
X3575051Y24237194D01*
X3578000Y24262611D01*
X3578000Y24856000D01*
X2476000Y24856000D01*
X2476000Y24004000D01*
X2172000Y24004000D01*
X2172000Y24856000D01*
X1070001Y24856000D01*
X1070001Y24262611D01*
X500500Y24262611D01*
X500500Y25753388D01*
X1070000Y25753388D01*
X1070000Y25160000D01*
X2172000Y25160000D01*
X2476000Y25160000D01*
X3577999Y25160000D01*
X3577999Y25753388D01*
X3575050Y25778807D01*
X3575050Y25778808D01*
X3529142Y25882778D01*
X3448778Y25963142D01*
X3344805Y26009051D01*
X3319388Y26011999D01*
X2476000Y26011999D01*
X2476000Y25160000D01*
X2172000Y25160000D01*
X2172000Y26011999D01*
X1328612Y26011999D01*
X1303192Y26009050D01*
X1303191Y26009050D01*
X1199221Y25963142D01*
X1118857Y25882778D01*
X1072948Y25778805D01*
X1070000Y25753388D01*
X500500Y25753388D01*
X500500Y51308000D01*
X1539999Y51308000D01*
X1559214Y51112913D01*
X1559215Y51112908D01*
X1616118Y50925321D01*
X1708526Y50752435D01*
X1708530Y50752429D01*
X1832893Y50600893D01*
X1984429Y50476530D01*
X1984435Y50476526D01*
X2157316Y50384120D01*
X2157322Y50384118D01*
X2539997Y50308000D01*
X2539999Y50307999D01*
X2735086Y50327214D01*
X2735091Y50327215D01*
X2922678Y50384118D01*
X2922680Y50384119D01*
X2922683Y50384120D01*
X3002020Y50426526D01*
X3095564Y50476526D01*
X3095570Y50476530D01*
X3247107Y50600893D01*
X3371470Y50752430D01*
X3463880Y50925317D01*
X3540000Y51308000D01*
X3535511Y51353578D01*
X27634700Y51353578D01*
X27634700Y48468421D01*
X27637662Y48442890D01*
X27637662Y48442889D01*
X27683767Y48338473D01*
X27764473Y48257767D01*
X27868892Y48211661D01*
X27894421Y48208700D01*
X29001578Y48208700D01*
X29027109Y48211662D01*
X29027110Y48211662D01*
X29073214Y48232019D01*
X29131525Y48257766D01*
X29212234Y48338475D01*
X29258338Y48442891D01*
X29261300Y48468421D01*
X29261299Y51353578D01*
X29258338Y51379109D01*
X29212234Y51483525D01*
X29131525Y51564234D01*
X29027109Y51610338D01*
X29001579Y51613300D01*
X27894422Y51613299D01*
X27894421Y51613299D01*
X27891460Y51612955D01*
X27868891Y51610338D01*
X27764475Y51564234D01*
X27683766Y51483525D01*
X27645642Y51397183D01*
X27637661Y51379107D01*
X27634700Y51353578D01*
X3535511Y51353578D01*
X3520785Y51503090D01*
X3463880Y51690683D01*
X3371470Y51863570D01*
X3247107Y52015107D01*
X3095570Y52139470D01*
X2922683Y52231880D01*
X2540000Y52308000D01*
X2344910Y52288785D01*
X2157317Y52231880D01*
X2023064Y52160120D01*
X1984435Y52139473D01*
X1984432Y52139471D01*
X1984430Y52139470D01*
X1832893Y52015107D01*
X1708530Y51863570D01*
X1708526Y51863564D01*
X1616120Y51690683D01*
X1616118Y51690677D01*
X1540000Y51308002D01*
X1539999Y51308000D01*
X500500Y51308000D01*
X500500Y53793000D01*
X518806Y53837194D01*
X563000Y53855500D01*
X30112200Y53855500D01*
X30156394Y53837194D01*
G37*
%TD.AperFunction*%
%TA.AperFunction,Conductor*%
G36*
X56445394Y43237394D02*
G01*
X56463700Y43193200D01*
X56463700Y15691080D01*
X56493160Y15581140D01*
X56493162Y15581135D01*
X56539670Y15500580D01*
X56545913Y15453154D01*
X56537510Y15434608D01*
X56477826Y15345285D01*
X56477826Y15345284D01*
X56420649Y15207246D01*
X56420648Y15207242D01*
X56391500Y15060706D01*
X56391500Y14911293D01*
X56420648Y14764757D01*
X56477825Y14626717D01*
X56477826Y14626714D01*
X56560834Y14502484D01*
X56666484Y14396834D01*
X56790714Y14313826D01*
X56790717Y14313825D01*
X56888326Y14273394D01*
X56928754Y14256649D01*
X56928755Y14256648D01*
X56928757Y14256648D01*
X57075293Y14227500D01*
X57075294Y14227500D01*
X57224706Y14227500D01*
X57371242Y14256648D01*
X57371246Y14256649D01*
X57509282Y14313825D01*
X57509285Y14313826D01*
X57633515Y14396834D01*
X57739165Y14502484D01*
X57822173Y14626714D01*
X57822174Y14626717D01*
X57879351Y14764754D01*
X57908500Y14911294D01*
X57908500Y15060706D01*
X57879351Y15207246D01*
X57822174Y15345284D01*
X57739165Y15469516D01*
X57633516Y15575165D01*
X57582773Y15609069D01*
X57557126Y15644860D01*
X57552839Y15660861D01*
X57552839Y15660862D01*
X57495926Y15759439D01*
X57346606Y15908759D01*
X57328300Y15952953D01*
X57328300Y16585447D01*
X57346606Y16629641D01*
X57390800Y16647947D01*
X57434994Y16629641D01*
X57804294Y16260341D01*
X57822600Y16216148D01*
X57822600Y16134221D01*
X57825562Y16108690D01*
X57825562Y16108689D01*
X57871667Y16004273D01*
X57952373Y15923567D01*
X58056792Y15877461D01*
X58082321Y15874500D01*
X58433200Y15874500D01*
X58477394Y15856194D01*
X58495700Y15812000D01*
X58495700Y13397999D01*
X58477394Y13353805D01*
X58433200Y13335499D01*
X58082322Y13335499D01*
X58056791Y13332538D01*
X57952375Y13286434D01*
X57871666Y13205725D01*
X57842174Y13138932D01*
X57825561Y13101307D01*
X57822600Y13075778D01*
X57822600Y11816221D01*
X57825562Y11790690D01*
X57825562Y11790689D01*
X57861524Y11709245D01*
X57862629Y11661422D01*
X57861527Y11658762D01*
X57825562Y11577309D01*
X57822600Y11551779D01*
X57822600Y11551778D01*
X57822600Y10292221D01*
X57825562Y10266690D01*
X57825562Y10266689D01*
X57871667Y10162273D01*
X57952373Y10081567D01*
X58056792Y10035461D01*
X58082321Y10032500D01*
X58433200Y10032500D01*
X58477394Y10014194D01*
X58495700Y9970000D01*
X58495700Y9038793D01*
X58477394Y8994599D01*
X58467924Y8986827D01*
X58444484Y8971165D01*
X58338834Y8865515D01*
X58255826Y8741285D01*
X58255825Y8741282D01*
X58243983Y8712692D01*
X58198649Y8603246D01*
X58198648Y8603242D01*
X58169500Y8456706D01*
X58169500Y8307293D01*
X58198648Y8160757D01*
X58255825Y8022717D01*
X58255826Y8022714D01*
X58338834Y7898484D01*
X58444484Y7792834D01*
X58568714Y7709826D01*
X58568717Y7709825D01*
X58647014Y7677394D01*
X58706754Y7652649D01*
X58706755Y7652648D01*
X58706757Y7652648D01*
X58853293Y7623500D01*
X58853294Y7623500D01*
X59002706Y7623500D01*
X59149242Y7652648D01*
X59149246Y7652649D01*
X59258692Y7697983D01*
X59287282Y7709825D01*
X59287285Y7709826D01*
X59411515Y7792834D01*
X59517165Y7898484D01*
X59600173Y8022714D01*
X59600174Y8022717D01*
X59657351Y8160754D01*
X59686500Y8307294D01*
X59686500Y8456706D01*
X59657351Y8603246D01*
X59600174Y8741284D01*
X59517165Y8865516D01*
X59411516Y8971165D01*
X59388076Y8986826D01*
X59361501Y9026599D01*
X59360300Y9038793D01*
X59360300Y9970000D01*
X59378606Y10014194D01*
X59422800Y10032500D01*
X59773678Y10032500D01*
X59799209Y10035462D01*
X59799210Y10035462D01*
X59870090Y10066759D01*
X59903625Y10081566D01*
X59984334Y10162275D01*
X60013826Y10229068D01*
X60048421Y10262101D01*
X60096243Y10260997D01*
X60128173Y10229068D01*
X60157666Y10162274D01*
X60238373Y10081567D01*
X60342792Y10035461D01*
X60368321Y10032500D01*
X60719200Y10032500D01*
X60763394Y10014194D01*
X60781700Y9970000D01*
X60781700Y7646732D01*
X60763394Y7602538D01*
X60741277Y7589283D01*
X60741591Y7588527D01*
X60600722Y7530177D01*
X60600714Y7530173D01*
X60476484Y7447165D01*
X60370834Y7341515D01*
X60287826Y7217285D01*
X60287826Y7217284D01*
X60230649Y7079246D01*
X60230649Y7079245D01*
X60230648Y7079242D01*
X60201500Y6932706D01*
X60201500Y6783293D01*
X60230648Y6636757D01*
X60287825Y6498717D01*
X60287826Y6498714D01*
X60370834Y6374484D01*
X60476484Y6268834D01*
X60600714Y6185826D01*
X60600717Y6185825D01*
X60649536Y6165604D01*
X60738754Y6128649D01*
X60738755Y6128648D01*
X60738757Y6128648D01*
X60885293Y6099500D01*
X60885294Y6099500D01*
X61034706Y6099500D01*
X61181242Y6128648D01*
X61181246Y6128649D01*
X61319282Y6185825D01*
X61319285Y6185826D01*
X61443515Y6268834D01*
X61549165Y6374484D01*
X61632173Y6498714D01*
X61632174Y6498717D01*
X61638753Y6514600D01*
X61689351Y6636754D01*
X61718500Y6783294D01*
X61718500Y6932706D01*
X61689351Y7079246D01*
X61651057Y7171693D01*
X61646300Y7195611D01*
X61646300Y9970000D01*
X61664606Y10014194D01*
X61708800Y10032500D01*
X62059678Y10032500D01*
X62085209Y10035462D01*
X62085210Y10035462D01*
X62156090Y10066759D01*
X62189625Y10081566D01*
X62270334Y10162275D01*
X62299826Y10229068D01*
X62334421Y10262101D01*
X62382243Y10260997D01*
X62414173Y10229068D01*
X62443666Y10162274D01*
X62524373Y10081567D01*
X62628792Y10035461D01*
X62654321Y10032500D01*
X63005200Y10032500D01*
X63049394Y10014194D01*
X63067700Y9970000D01*
X63067700Y7768793D01*
X63049394Y7724599D01*
X63039923Y7716826D01*
X63016484Y7701165D01*
X62910834Y7595515D01*
X62827826Y7471285D01*
X62827826Y7471284D01*
X62770649Y7333246D01*
X62770648Y7333242D01*
X62741500Y7186706D01*
X62741500Y7037293D01*
X62770648Y6890757D01*
X62827825Y6752717D01*
X62827826Y6752714D01*
X62910834Y6628484D01*
X63016484Y6522834D01*
X63140714Y6439826D01*
X63140717Y6439825D01*
X63219014Y6407394D01*
X63278754Y6382649D01*
X63278755Y6382648D01*
X63278757Y6382648D01*
X63425293Y6353500D01*
X63425294Y6353500D01*
X63574706Y6353500D01*
X63721242Y6382648D01*
X63721246Y6382649D01*
X63859282Y6439825D01*
X63859285Y6439826D01*
X63983515Y6522834D01*
X64089165Y6628484D01*
X64172173Y6752714D01*
X64172174Y6752717D01*
X64184839Y6783293D01*
X64229351Y6890754D01*
X64258500Y7037294D01*
X64258500Y7186706D01*
X64229351Y7333246D01*
X64172174Y7471284D01*
X64089165Y7595516D01*
X63983516Y7701165D01*
X63960076Y7716826D01*
X63933501Y7756599D01*
X63932300Y7768793D01*
X63932300Y9970000D01*
X63950606Y10014194D01*
X63994800Y10032500D01*
X64345678Y10032500D01*
X64371209Y10035462D01*
X64371210Y10035462D01*
X64442090Y10066759D01*
X64475625Y10081566D01*
X64556334Y10162275D01*
X64602438Y10266691D01*
X64605400Y10292221D01*
X64605399Y11551778D01*
X64602438Y11577309D01*
X64566475Y11658755D01*
X64565370Y11706577D01*
X64566456Y11709200D01*
X64602438Y11790691D01*
X64605400Y11816221D01*
X64605399Y13075778D01*
X64602438Y13101309D01*
X64556334Y13205725D01*
X64475625Y13286434D01*
X64371209Y13332538D01*
X64345679Y13335500D01*
X63994799Y13335499D01*
X63950606Y13353805D01*
X63932300Y13397999D01*
X63932300Y15812000D01*
X63950606Y15856194D01*
X63994800Y15874500D01*
X64345678Y15874500D01*
X64371209Y15877462D01*
X64371210Y15877462D01*
X64442090Y15908759D01*
X64475625Y15923566D01*
X64556334Y16004275D01*
X64602438Y16108691D01*
X64605400Y16134221D01*
X64605400Y16269200D01*
X64623706Y16313394D01*
X64667900Y16331700D01*
X66096919Y16331700D01*
X66206859Y16361160D01*
X66206861Y16361160D01*
X66256150Y16389617D01*
X66305439Y16418074D01*
X69750806Y19863441D01*
X69795000Y19881747D01*
X69839194Y19863441D01*
X69857500Y19819247D01*
X69857500Y563000D01*
X69839194Y518806D01*
X69795000Y500500D01*
X62343800Y500500D01*
X62299606Y518806D01*
X62281300Y563000D01*
X62281299Y3093578D01*
X62279753Y3106908D01*
X62278338Y3119109D01*
X62232234Y3223525D01*
X62151525Y3304234D01*
X62047109Y3350338D01*
X62021579Y3353300D01*
X60914422Y3353299D01*
X60914421Y3353299D01*
X60911460Y3352955D01*
X60888891Y3350338D01*
X60784475Y3304234D01*
X60703766Y3223525D01*
X60665642Y3137183D01*
X60657661Y3119107D01*
X60656246Y3106908D01*
X60654700Y3093579D01*
X60654700Y1810754D01*
X60654701Y563000D01*
X60636395Y518806D01*
X60592201Y500500D01*
X57263800Y500500D01*
X57219606Y518806D01*
X57201300Y563000D01*
X57201299Y3093578D01*
X57199753Y3106908D01*
X57198338Y3119109D01*
X57152234Y3223525D01*
X57071525Y3304234D01*
X56967109Y3350338D01*
X56941579Y3353300D01*
X56882799Y3353299D01*
X56838607Y3371604D01*
X56820300Y3415798D01*
X56820300Y5887578D01*
X58114700Y5887578D01*
X58114700Y3002421D01*
X58117662Y2976890D01*
X58117662Y2976889D01*
X58163767Y2872473D01*
X58244473Y2791767D01*
X58348892Y2745661D01*
X58374421Y2742700D01*
X59481578Y2742700D01*
X59507109Y2745662D01*
X59507110Y2745662D01*
X59553214Y2766019D01*
X59611525Y2791766D01*
X59692234Y2872475D01*
X59738338Y2976891D01*
X59741300Y3002421D01*
X59741299Y5887578D01*
X63194700Y5887578D01*
X63194700Y3002421D01*
X63197662Y2976890D01*
X63197662Y2976889D01*
X63243767Y2872473D01*
X63324473Y2791767D01*
X63428892Y2745661D01*
X63454421Y2742700D01*
X64561578Y2742700D01*
X64587109Y2745662D01*
X64587110Y2745662D01*
X64633214Y2766019D01*
X64691525Y2791766D01*
X64772234Y2872475D01*
X64818338Y2976891D01*
X64821300Y3002421D01*
X64821299Y5887578D01*
X64818338Y5913109D01*
X64772234Y6017525D01*
X64691525Y6098234D01*
X64587109Y6144338D01*
X64561579Y6147300D01*
X63454422Y6147299D01*
X63454421Y6147299D01*
X63451460Y6146955D01*
X63428891Y6144338D01*
X63324475Y6098234D01*
X63243766Y6017525D01*
X63205642Y5931183D01*
X63197661Y5913107D01*
X63194700Y5887578D01*
X59741299Y5887578D01*
X59738338Y5913109D01*
X59692234Y6017525D01*
X59611525Y6098234D01*
X59507109Y6144338D01*
X59481579Y6147300D01*
X58374422Y6147299D01*
X58374421Y6147299D01*
X58371460Y6146955D01*
X58348891Y6144338D01*
X58244475Y6098234D01*
X58163766Y6017525D01*
X58125642Y5931183D01*
X58117661Y5913107D01*
X58114700Y5887578D01*
X56820300Y5887578D01*
X56820300Y7168912D01*
X56820299Y7168918D01*
X56803828Y7230385D01*
X56790839Y7278861D01*
X56777872Y7301319D01*
X56769499Y7332569D01*
X56769499Y8465678D01*
X56769070Y8469374D01*
X56766538Y8491209D01*
X56720434Y8595625D01*
X56639725Y8676334D01*
X56535309Y8722438D01*
X56509779Y8725400D01*
X55250222Y8725399D01*
X55250221Y8725399D01*
X55247260Y8725055D01*
X55224691Y8722438D01*
X55224686Y8722435D01*
X55224683Y8722435D01*
X55143244Y8686476D01*
X55095422Y8685370D01*
X55092793Y8686459D01*
X55011309Y8722438D01*
X54985779Y8725400D01*
X54088799Y8725399D01*
X54044606Y8743705D01*
X54026300Y8787899D01*
X54026300Y10470912D01*
X54026299Y10470918D01*
X54017546Y10503580D01*
X53996839Y10580861D01*
X53978031Y10613438D01*
X53939926Y10679439D01*
X53097439Y11521926D01*
X53005730Y11574873D01*
X52976611Y11612824D01*
X52982854Y11660250D01*
X53020805Y11689370D01*
X53036981Y11691500D01*
X55691891Y11691500D01*
X55691892Y11691500D01*
X55691893Y11691500D01*
X55691898Y11691501D01*
X55819182Y11725606D01*
X55819185Y11725607D01*
X55906330Y11775921D01*
X55933314Y11791500D01*
X55933315Y11791501D01*
X55933319Y11791504D01*
X56026495Y11884680D01*
X56026498Y11884684D01*
X56026500Y11884686D01*
X56092392Y11998814D01*
X56126500Y12126108D01*
X56126500Y42229892D01*
X56092392Y42357186D01*
X56026500Y42471314D01*
X55933314Y42564500D01*
X55819186Y42630392D01*
X55691892Y42664500D01*
X49087892Y42664500D01*
X48956108Y42664500D01*
X48911939Y42652665D01*
X48828817Y42630393D01*
X48828814Y42630392D01*
X48714686Y42564500D01*
X48714684Y42564498D01*
X48714680Y42564495D01*
X48621504Y42471319D01*
X48621501Y42471315D01*
X48621500Y42471314D01*
X48588554Y42414250D01*
X48555607Y42357185D01*
X48555606Y42357182D01*
X48521501Y42229898D01*
X48521500Y42229890D01*
X48521500Y12126109D01*
X48521501Y12126101D01*
X48555606Y11998817D01*
X48555607Y11998814D01*
X48621501Y11884684D01*
X48621504Y11884680D01*
X48714680Y11791504D01*
X48714689Y11791497D01*
X48829994Y11724926D01*
X48859114Y11686976D01*
X48852870Y11639550D01*
X48814920Y11610430D01*
X48798744Y11608300D01*
X46610286Y11608300D01*
X46566092Y11626606D01*
X46547786Y11670800D01*
X46552543Y11694717D01*
X46558504Y11709109D01*
X46583720Y11769985D01*
X46584502Y11775921D01*
X46595873Y11862300D01*
X46599300Y11888327D01*
X46599299Y13767672D01*
X46583720Y13886015D01*
X46522728Y14033262D01*
X46425705Y14159705D01*
X46299262Y14256728D01*
X46152015Y14317720D01*
X46152008Y14317720D01*
X46152008Y14317721D01*
X46144337Y14318730D01*
X46033673Y14333300D01*
X44154328Y14333299D01*
X44154320Y14333298D01*
X44035992Y14317721D01*
X44035991Y14317720D01*
X44035985Y14317720D01*
X43888738Y14256728D01*
X43888737Y14256727D01*
X43762294Y14159705D01*
X43665272Y14033262D01*
X43665270Y14033259D01*
X43604281Y13886018D01*
X43604278Y13886008D01*
X43588700Y13767677D01*
X43588700Y11888334D01*
X43588701Y11888320D01*
X43604278Y11769992D01*
X43604281Y11769981D01*
X43665270Y11622741D01*
X43665271Y11622738D01*
X43665272Y11622738D01*
X43742628Y11521926D01*
X43762298Y11496291D01*
X43801589Y11466142D01*
X43825506Y11424715D01*
X43817668Y11385308D01*
X43793160Y11342860D01*
X43793160Y11342858D01*
X43763700Y11232918D01*
X43763700Y10172947D01*
X43745394Y10128753D01*
X43701200Y10110447D01*
X43657006Y10128753D01*
X43631525Y10154234D01*
X43527109Y10200338D01*
X43501579Y10203300D01*
X43250799Y10203299D01*
X43206606Y10221605D01*
X43188300Y10265799D01*
X43188300Y14527153D01*
X43206606Y14571347D01*
X43250232Y14614973D01*
X43250234Y14614975D01*
X43296338Y14719391D01*
X43299300Y14744921D01*
X43299299Y15111078D01*
X43296338Y15136609D01*
X43289208Y15152754D01*
X43288103Y15200576D01*
X43289209Y15203246D01*
X43296338Y15219391D01*
X43299300Y15244921D01*
X43299299Y15611078D01*
X43296338Y15636609D01*
X43289208Y15652754D01*
X43288103Y15700576D01*
X43289209Y15703246D01*
X43296338Y15719391D01*
X43299300Y15744921D01*
X43299299Y16111078D01*
X43296338Y16136609D01*
X43289208Y16152754D01*
X43288103Y16200576D01*
X43289209Y16203246D01*
X43294906Y16216148D01*
X43296338Y16219391D01*
X43299300Y16244921D01*
X43299299Y16611078D01*
X43296338Y16636609D01*
X43289208Y16652754D01*
X43288103Y16700576D01*
X43289209Y16703246D01*
X43296338Y16719391D01*
X43299300Y16744921D01*
X43299299Y17111078D01*
X43296338Y17136609D01*
X43288498Y17154362D01*
X43287391Y17202183D01*
X43288498Y17204855D01*
X43295051Y17219694D01*
X43298000Y17245111D01*
X43298000Y17290500D01*
X43226647Y17290500D01*
X43182453Y17308806D01*
X43169525Y17321734D01*
X43065109Y17367838D01*
X43065106Y17367838D01*
X43060809Y17369736D01*
X43061368Y17371002D01*
X43027812Y17396947D01*
X43021741Y17444395D01*
X43051000Y17482239D01*
X43062298Y17486921D01*
X43070121Y17490375D01*
X43095366Y17495700D01*
X44975005Y17495700D01*
X45019199Y17477394D01*
X45032747Y17457118D01*
X45047822Y17420722D01*
X45047826Y17420714D01*
X45130834Y17296484D01*
X45236484Y17190834D01*
X45360714Y17107826D01*
X45360717Y17107825D01*
X45458326Y17067394D01*
X45498754Y17050649D01*
X45498755Y17050648D01*
X45498757Y17050648D01*
X45645293Y17021500D01*
X45645294Y17021500D01*
X45794706Y17021500D01*
X45941242Y17050648D01*
X45941246Y17050649D01*
X46079282Y17107825D01*
X46079285Y17107826D01*
X46203515Y17190834D01*
X46309165Y17296484D01*
X46392173Y17420714D01*
X46392174Y17420717D01*
X46407252Y17457118D01*
X46449351Y17558754D01*
X46478500Y17705294D01*
X46478500Y17854706D01*
X46449351Y18001246D01*
X46392174Y18139284D01*
X46309165Y18263516D01*
X46203516Y18369165D01*
X46079284Y18452174D01*
X45941246Y18509351D01*
X45794706Y18538500D01*
X45645294Y18538500D01*
X45498754Y18509351D01*
X45360716Y18452174D01*
X45360715Y18452173D01*
X45360714Y18452173D01*
X45316755Y18422800D01*
X45238979Y18370832D01*
X45204258Y18360300D01*
X43361800Y18360300D01*
X43317606Y18378606D01*
X43299300Y18422800D01*
X43299299Y18611078D01*
X43296338Y18636609D01*
X43289208Y18652754D01*
X43288103Y18700576D01*
X43289209Y18703246D01*
X43296338Y18719391D01*
X43299300Y18744921D01*
X43299299Y18933200D01*
X43317605Y18977394D01*
X43361799Y18995700D01*
X43868919Y18995700D01*
X43978859Y19025160D01*
X43978861Y19025160D01*
X44028150Y19053617D01*
X44077439Y19082074D01*
X44545259Y19549894D01*
X44589453Y19568200D01*
X44601645Y19566999D01*
X44629291Y19561500D01*
X44629294Y19561500D01*
X44778706Y19561500D01*
X44925242Y19590648D01*
X44925246Y19590649D01*
X45063282Y19647825D01*
X45063285Y19647826D01*
X45187515Y19730834D01*
X45293165Y19836484D01*
X45376173Y19960714D01*
X45376174Y19960717D01*
X45382485Y19975953D01*
X45433351Y20098754D01*
X45462500Y20245294D01*
X45462500Y20394706D01*
X45433351Y20541246D01*
X45376174Y20679284D01*
X45293165Y20803516D01*
X45187516Y20909165D01*
X45063284Y20992174D01*
X44925246Y21049351D01*
X44778706Y21078500D01*
X44629294Y21078500D01*
X44482754Y21049351D01*
X44344716Y20992174D01*
X44344715Y20992173D01*
X44344714Y20992173D01*
X44220484Y20909165D01*
X44114834Y20803515D01*
X44031826Y20679285D01*
X44031826Y20679284D01*
X43974649Y20541246D01*
X43974648Y20541242D01*
X43945500Y20394706D01*
X43945500Y20245291D01*
X43950999Y20217645D01*
X43941666Y20170729D01*
X43933894Y20161259D01*
X43651241Y19878606D01*
X43607047Y19860300D01*
X43361800Y19860300D01*
X43317606Y19878606D01*
X43299300Y19922800D01*
X43299299Y20111078D01*
X43298839Y20115047D01*
X43296338Y20136609D01*
X43289209Y20152755D01*
X43288103Y20200576D01*
X43289209Y20203246D01*
X43295567Y20217645D01*
X43296338Y20219391D01*
X43299300Y20244921D01*
X43299299Y20611078D01*
X43296338Y20636609D01*
X43289209Y20652755D01*
X43288103Y20700576D01*
X43289209Y20703246D01*
X43296338Y20719391D01*
X43299300Y20744921D01*
X43299299Y21111078D01*
X43296338Y21136609D01*
X43289209Y21152755D01*
X43288103Y21200576D01*
X43289209Y21203246D01*
X43296338Y21219391D01*
X43299300Y21244921D01*
X43299299Y21433200D01*
X43317605Y21477394D01*
X43361799Y21495700D01*
X44506918Y21495700D01*
X44616858Y21525160D01*
X44616860Y21525160D01*
X44666149Y21553617D01*
X44715438Y21582074D01*
X44795926Y21662562D01*
X44852839Y21761139D01*
X44875980Y21847500D01*
X44882299Y21871081D01*
X44882300Y21871087D01*
X44882300Y30484912D01*
X44882299Y30484918D01*
X44873546Y30517580D01*
X44852839Y30594861D01*
X44795926Y30693438D01*
X44715438Y30773926D01*
X44708542Y30777907D01*
X44679419Y30815852D01*
X44685658Y30863279D01*
X44695594Y30876229D01*
X45811924Y31992559D01*
X45811926Y31992561D01*
X45868839Y32091138D01*
X45885349Y32152753D01*
X45898299Y32201080D01*
X45898300Y32201086D01*
X45898300Y36879047D01*
X45916606Y36923241D01*
X47843924Y38850559D01*
X47843926Y38850561D01*
X47900839Y38949138D01*
X47914644Y39000658D01*
X47930299Y39059080D01*
X47930300Y39059086D01*
X47930300Y43193200D01*
X47948606Y43237394D01*
X47992800Y43255700D01*
X56401200Y43255700D01*
X56445394Y43237394D01*
G37*
%TD.AperFunction*%
%TA.AperFunction,Conductor*%
G36*
X41470394Y30977394D02*
G01*
X41488700Y30933200D01*
X41488700Y30744921D01*
X41491662Y30719392D01*
X41491664Y30719384D01*
X41498791Y30703243D01*
X41499895Y30655421D01*
X41498791Y30652755D01*
X41491661Y30636607D01*
X41491660Y30636606D01*
X41488700Y30611088D01*
X41488700Y30244921D01*
X41491662Y30219392D01*
X41491664Y30219384D01*
X41498791Y30203243D01*
X41499895Y30155421D01*
X41498791Y30152755D01*
X41491661Y30136607D01*
X41491660Y30136606D01*
X41488700Y30111088D01*
X41488700Y29744921D01*
X41491662Y29719392D01*
X41491664Y29719384D01*
X41498791Y29703243D01*
X41499895Y29655421D01*
X41498791Y29652755D01*
X41491661Y29636607D01*
X41491660Y29636606D01*
X41488700Y29611088D01*
X41488700Y29244921D01*
X41491662Y29219392D01*
X41491664Y29219384D01*
X41498791Y29203243D01*
X41499895Y29155421D01*
X41498791Y29152755D01*
X41491661Y29136607D01*
X41491660Y29136606D01*
X41488700Y29111088D01*
X41488700Y28744921D01*
X41491662Y28719392D01*
X41491664Y28719384D01*
X41498791Y28703243D01*
X41499895Y28655421D01*
X41498791Y28652755D01*
X41491661Y28636607D01*
X41491660Y28636606D01*
X41488700Y28611088D01*
X41488700Y28244921D01*
X41491662Y28219392D01*
X41491664Y28219384D01*
X41498791Y28203243D01*
X41499895Y28155421D01*
X41498791Y28152755D01*
X41491661Y28136607D01*
X41491660Y28136606D01*
X41488700Y28111088D01*
X41488700Y27744921D01*
X41491662Y27719392D01*
X41491664Y27719384D01*
X41498791Y27703243D01*
X41499895Y27655421D01*
X41498791Y27652755D01*
X41491661Y27636607D01*
X41491660Y27636606D01*
X41488700Y27611088D01*
X41488700Y27244921D01*
X41491662Y27219392D01*
X41491664Y27219384D01*
X41498791Y27203243D01*
X41499895Y27155421D01*
X41498791Y27152755D01*
X41491661Y27136607D01*
X41491660Y27136606D01*
X41488700Y27111088D01*
X41488700Y26744921D01*
X41491662Y26719392D01*
X41491664Y26719384D01*
X41498791Y26703243D01*
X41499895Y26655421D01*
X41498791Y26652755D01*
X41491661Y26636607D01*
X41491660Y26636606D01*
X41488700Y26611088D01*
X41488700Y26244921D01*
X41491662Y26219392D01*
X41491664Y26219384D01*
X41498791Y26203243D01*
X41499895Y26155421D01*
X41498791Y26152755D01*
X41491661Y26136607D01*
X41491660Y26136606D01*
X41488700Y26111088D01*
X41488700Y25744921D01*
X41491662Y25719392D01*
X41491664Y25719384D01*
X41498791Y25703243D01*
X41499895Y25655421D01*
X41498791Y25652755D01*
X41491661Y25636607D01*
X41491660Y25636606D01*
X41488700Y25611088D01*
X41488700Y25244921D01*
X41491383Y25221795D01*
X41491509Y25220706D01*
X41491662Y25219392D01*
X41491664Y25219384D01*
X41498791Y25203243D01*
X41499895Y25155421D01*
X41498791Y25152755D01*
X41491661Y25136607D01*
X41491660Y25136606D01*
X41488700Y25111088D01*
X41488700Y24744921D01*
X41491662Y24719392D01*
X41491664Y24719384D01*
X41498791Y24703243D01*
X41499895Y24655421D01*
X41498791Y24652755D01*
X41491661Y24636607D01*
X41491660Y24636606D01*
X41488700Y24611088D01*
X41488700Y24244921D01*
X41491662Y24219392D01*
X41491664Y24219384D01*
X41498791Y24203243D01*
X41499895Y24155421D01*
X41498791Y24152755D01*
X41491661Y24136607D01*
X41491660Y24136606D01*
X41488700Y24111088D01*
X41488700Y23744921D01*
X41491662Y23719392D01*
X41491664Y23719384D01*
X41498791Y23703243D01*
X41499895Y23655421D01*
X41498791Y23652755D01*
X41491661Y23636607D01*
X41491660Y23636606D01*
X41488700Y23611088D01*
X41488700Y23244921D01*
X41491662Y23219392D01*
X41491664Y23219384D01*
X41498791Y23203243D01*
X41499895Y23155421D01*
X41498791Y23152755D01*
X41491661Y23136607D01*
X41491660Y23136606D01*
X41488700Y23111088D01*
X41488700Y22744921D01*
X41491662Y22719392D01*
X41491664Y22719384D01*
X41498791Y22703243D01*
X41499895Y22655421D01*
X41498791Y22652755D01*
X41491661Y22636607D01*
X41491660Y22636606D01*
X41488700Y22611088D01*
X41488700Y22244921D01*
X41491662Y22219392D01*
X41491664Y22219384D01*
X41498791Y22203243D01*
X41499895Y22155421D01*
X41498791Y22152755D01*
X41491661Y22136607D01*
X41491660Y22136606D01*
X41488700Y22111088D01*
X41488700Y21744921D01*
X41491662Y21719392D01*
X41491664Y21719384D01*
X41498791Y21703243D01*
X41499895Y21655421D01*
X41498794Y21652762D01*
X41494289Y21642560D01*
X41491661Y21636607D01*
X41491660Y21636606D01*
X41488700Y21611088D01*
X41488700Y21244921D01*
X41491662Y21219392D01*
X41491664Y21219384D01*
X41498791Y21203243D01*
X41499895Y21155421D01*
X41498791Y21152755D01*
X41491661Y21136607D01*
X41491660Y21136606D01*
X41488700Y21111088D01*
X41488700Y20744921D01*
X41491662Y20719392D01*
X41491664Y20719384D01*
X41498791Y20703243D01*
X41499895Y20655421D01*
X41498791Y20652755D01*
X41491661Y20636607D01*
X41491660Y20636606D01*
X41488700Y20611088D01*
X41488700Y20244921D01*
X41491662Y20219392D01*
X41491664Y20219384D01*
X41498791Y20203243D01*
X41499895Y20155421D01*
X41498791Y20152755D01*
X41491661Y20136607D01*
X41491660Y20136606D01*
X41488700Y20111088D01*
X41488700Y19744921D01*
X41491662Y19719392D01*
X41491664Y19719384D01*
X41498791Y19703243D01*
X41499895Y19655421D01*
X41498791Y19652755D01*
X41491661Y19636607D01*
X41491660Y19636606D01*
X41488700Y19611088D01*
X41488700Y19611086D01*
X41488700Y19611079D01*
X41488700Y19508953D01*
X41488701Y19422800D01*
X41470395Y19378606D01*
X41426201Y19360300D01*
X41220953Y19360300D01*
X41176759Y19378606D01*
X41090606Y19464759D01*
X41072300Y19508953D01*
X41072300Y22154912D01*
X41072299Y22154918D01*
X41063546Y22187580D01*
X41042839Y22264861D01*
X40985926Y22363438D01*
X40905438Y22443926D01*
X39631605Y23717759D01*
X39613299Y23761953D01*
X39613299Y23947578D01*
X39612910Y23950935D01*
X39610338Y23973109D01*
X39564234Y24077525D01*
X39483525Y24158234D01*
X39379109Y24204338D01*
X39353579Y24207300D01*
X37862422Y24207299D01*
X37862421Y24207299D01*
X37859460Y24206955D01*
X37836891Y24204338D01*
X37732475Y24158234D01*
X37651766Y24077525D01*
X37640286Y24051525D01*
X37605661Y23973107D01*
X37602700Y23947578D01*
X37602700Y22756421D01*
X37605662Y22730890D01*
X37605662Y22730889D01*
X37651767Y22626473D01*
X37732473Y22545767D01*
X37836892Y22499661D01*
X37862421Y22496700D01*
X39353578Y22496700D01*
X39379109Y22499662D01*
X39379110Y22499662D01*
X39425214Y22520019D01*
X39483525Y22545766D01*
X39488003Y22550244D01*
X39532197Y22568550D01*
X39576391Y22550244D01*
X40189394Y21937241D01*
X40207700Y21893047D01*
X40207700Y19247080D01*
X40237160Y19137140D01*
X40237160Y19137138D01*
X40294075Y19038559D01*
X40565394Y18767241D01*
X40583700Y18723047D01*
X40583700Y18371081D01*
X40613160Y18261141D01*
X40670075Y18162560D01*
X40750560Y18082075D01*
X40849140Y18025160D01*
X40956365Y17996428D01*
X40984382Y17980252D01*
X41382561Y17582073D01*
X41481136Y17525162D01*
X41481141Y17525160D01*
X41591081Y17495700D01*
X41591087Y17495700D01*
X41692635Y17495700D01*
X41717879Y17490375D01*
X41727190Y17486264D01*
X41726632Y17485001D01*
X41760196Y17459036D01*
X41766253Y17411586D01*
X41736983Y17373751D01*
X41725692Y17369074D01*
X41722892Y17367838D01*
X41722891Y17367838D01*
X41717950Y17365656D01*
X41717879Y17365625D01*
X41692634Y17360300D01*
X40934953Y17360300D01*
X40890759Y17378606D01*
X39515605Y18753759D01*
X39497299Y18797953D01*
X39497299Y19845578D01*
X39497299Y19845579D01*
X39494338Y19871109D01*
X39448234Y19975525D01*
X39367525Y20056234D01*
X39263109Y20102338D01*
X39237579Y20105300D01*
X37846422Y20105299D01*
X37846421Y20105299D01*
X37843460Y20104955D01*
X37820891Y20102338D01*
X37716475Y20056234D01*
X37716473Y20056232D01*
X37636194Y19975953D01*
X37592000Y19957647D01*
X37547806Y19975953D01*
X37467525Y20056234D01*
X37363109Y20102338D01*
X37337579Y20105300D01*
X35946422Y20105299D01*
X35946421Y20105299D01*
X35943460Y20104955D01*
X35920891Y20102338D01*
X35816475Y20056234D01*
X35735766Y19975525D01*
X35712486Y19922800D01*
X35689661Y19871107D01*
X35686700Y19845578D01*
X35686700Y18254421D01*
X35689662Y18228890D01*
X35689662Y18228889D01*
X35735767Y18124473D01*
X35782047Y18078194D01*
X35800353Y18034000D01*
X35782047Y17989806D01*
X35735766Y17943525D01*
X35706311Y17876816D01*
X35689661Y17839107D01*
X35686700Y17813578D01*
X35686700Y16222421D01*
X35689662Y16196890D01*
X35689662Y16196889D01*
X35735767Y16092473D01*
X35782047Y16046194D01*
X35800353Y16002000D01*
X35782047Y15957806D01*
X35735766Y15911525D01*
X35719418Y15874500D01*
X35689661Y15807107D01*
X35686700Y15781578D01*
X35686700Y14190421D01*
X35689662Y14164890D01*
X35689662Y14164889D01*
X35735767Y14060473D01*
X35782047Y14014194D01*
X35800353Y13970000D01*
X35782047Y13925806D01*
X35735766Y13879525D01*
X35718463Y13840337D01*
X35689661Y13775107D01*
X35686700Y13749578D01*
X35686700Y13700740D01*
X35668394Y13656546D01*
X35624200Y13638240D01*
X35580006Y13656546D01*
X35567027Y13675491D01*
X35550234Y13713525D01*
X35469525Y13794234D01*
X35365109Y13840338D01*
X35339579Y13843300D01*
X33748422Y13843299D01*
X33748421Y13843299D01*
X33745460Y13842955D01*
X33722891Y13840338D01*
X33618475Y13794234D01*
X33537766Y13713525D01*
X33504525Y13638240D01*
X33491661Y13609107D01*
X33488700Y13583578D01*
X33488700Y12192421D01*
X33491662Y12166890D01*
X33491662Y12166889D01*
X33537767Y12062473D01*
X33618047Y11982194D01*
X33636353Y11938000D01*
X33618047Y11893806D01*
X33537766Y11813525D01*
X33518540Y11769981D01*
X33491661Y11709107D01*
X33488700Y11683578D01*
X33488700Y10292421D01*
X33491662Y10266890D01*
X33491662Y10266889D01*
X33537767Y10162473D01*
X33618473Y10081767D01*
X33722892Y10035661D01*
X33748421Y10032700D01*
X34862046Y10032700D01*
X34906240Y10014394D01*
X35360556Y9560078D01*
X35360559Y9560075D01*
X35360561Y9560074D01*
X35390654Y9542700D01*
X35459139Y9503160D01*
X35569080Y9473700D01*
X35569086Y9473700D01*
X35569087Y9473700D01*
X35624201Y9473700D01*
X35668395Y9455394D01*
X35686701Y9411200D01*
X35686701Y9110421D01*
X35689662Y9084890D01*
X35689662Y9084889D01*
X35735767Y8980473D01*
X35816473Y8899767D01*
X35920892Y8853661D01*
X35946421Y8850700D01*
X37337578Y8850700D01*
X37363109Y8853662D01*
X37363110Y8853662D01*
X37409214Y8874019D01*
X37467525Y8899766D01*
X37547806Y8980047D01*
X37592000Y8998353D01*
X37636194Y8980047D01*
X37716473Y8899767D01*
X37820892Y8853661D01*
X37846421Y8850700D01*
X39237578Y8850700D01*
X39263109Y8853662D01*
X39263110Y8853662D01*
X39309214Y8874019D01*
X39367525Y8899766D01*
X39445306Y8977547D01*
X39489500Y8995853D01*
X39533694Y8977547D01*
X39552000Y8933353D01*
X39552000Y8600000D01*
X40404000Y8600000D01*
X40404000Y9251999D01*
X39810612Y9251999D01*
X39785192Y9249050D01*
X39785191Y9249050D01*
X39681221Y9203142D01*
X39603993Y9125914D01*
X39559799Y9107608D01*
X39515605Y9125914D01*
X39497299Y9170105D01*
X39497299Y9624053D01*
X39515605Y9668247D01*
X39559799Y9686553D01*
X39603993Y9668247D01*
X39680473Y9591767D01*
X39784892Y9545661D01*
X39810421Y9542700D01*
X41161200Y9542700D01*
X41205394Y9524394D01*
X41223700Y9480200D01*
X41223700Y9314499D01*
X41205394Y9270305D01*
X41161200Y9251999D01*
X40708000Y9251999D01*
X40708000Y7644000D01*
X41301388Y7644000D01*
X41326807Y7646949D01*
X41326808Y7646949D01*
X41430778Y7692857D01*
X41511142Y7773221D01*
X41517866Y7788449D01*
X41552463Y7821483D01*
X41600286Y7820379D01*
X41619234Y7807400D01*
X41633800Y7792835D01*
X41644561Y7782074D01*
X41743138Y7725161D01*
X41772599Y7717267D01*
X41786013Y7713672D01*
X41853082Y7695700D01*
X41853087Y7695700D01*
X43001447Y7695700D01*
X43045641Y7677394D01*
X43063947Y7633200D01*
X43045641Y7589006D01*
X42765241Y7308606D01*
X42721047Y7290300D01*
X35510953Y7290300D01*
X35466759Y7308606D01*
X34872754Y7902611D01*
X39552001Y7902611D01*
X39554949Y7877192D01*
X39554949Y7877191D01*
X39600857Y7773221D01*
X39681221Y7692857D01*
X39785194Y7646948D01*
X39810611Y7644000D01*
X40404000Y7644000D01*
X40404000Y8296000D01*
X39552001Y8296000D01*
X39552001Y7902611D01*
X34872754Y7902611D01*
X32708606Y10066759D01*
X32690300Y10110953D01*
X32690300Y20115047D01*
X32708606Y20159241D01*
X33305976Y20756611D01*
X37604001Y20756611D01*
X37606949Y20731192D01*
X37606949Y20731191D01*
X37652857Y20627221D01*
X37733221Y20546857D01*
X37837194Y20500948D01*
X37862611Y20498000D01*
X38456000Y20498000D01*
X38760000Y20498000D01*
X39353388Y20498000D01*
X39378807Y20500949D01*
X39378808Y20500949D01*
X39482778Y20546857D01*
X39563142Y20627221D01*
X39609051Y20731194D01*
X39612000Y20756611D01*
X39612000Y21200000D01*
X38760000Y21200000D01*
X38760000Y20498000D01*
X38456000Y20498000D01*
X38456000Y21200000D01*
X37604001Y21200000D01*
X37604001Y20756611D01*
X33305976Y20756611D01*
X34496753Y21947388D01*
X37604000Y21947388D01*
X37604000Y21504000D01*
X38456000Y21504000D01*
X38760000Y21504000D01*
X39611999Y21504000D01*
X39611999Y21947388D01*
X39609050Y21972807D01*
X39609050Y21972808D01*
X39563142Y22076778D01*
X39482778Y22157142D01*
X39378805Y22203051D01*
X39353388Y22205999D01*
X38760000Y22205999D01*
X38760000Y21504000D01*
X38456000Y21504000D01*
X38456000Y22205999D01*
X37862612Y22205999D01*
X37837192Y22203050D01*
X37837191Y22203050D01*
X37733221Y22157142D01*
X37652857Y22076778D01*
X37606948Y21972805D01*
X37604000Y21947388D01*
X34496753Y21947388D01*
X36159926Y23610561D01*
X36207773Y23693437D01*
X36207774Y23693438D01*
X36216837Y23709135D01*
X36216837Y23709136D01*
X36216839Y23709139D01*
X36230991Y23761953D01*
X36246299Y23819081D01*
X36246300Y23819087D01*
X36246300Y27481047D01*
X36264606Y27525241D01*
X36417259Y27677894D01*
X36461453Y27696200D01*
X36473645Y27694999D01*
X36501291Y27689500D01*
X36501294Y27689500D01*
X36650706Y27689500D01*
X36797242Y27718648D01*
X36797246Y27718649D01*
X36935282Y27775825D01*
X36935285Y27775826D01*
X37059515Y27858834D01*
X37165165Y27964484D01*
X37248173Y28088714D01*
X37248174Y28088717D01*
X37305351Y28226754D01*
X37334500Y28373294D01*
X37334500Y28522706D01*
X37305351Y28669246D01*
X37248174Y28807284D01*
X37165165Y28931516D01*
X37165164Y28931516D01*
X37163459Y28934069D01*
X37165082Y28935153D01*
X37152890Y28975311D01*
X37175430Y29017504D01*
X37215091Y29031700D01*
X38664919Y29031700D01*
X38774859Y29061160D01*
X38774861Y29061160D01*
X38861323Y29111079D01*
X38873439Y29118074D01*
X40732759Y30977394D01*
X40776953Y30995700D01*
X41426200Y30995700D01*
X41470394Y30977394D01*
G37*
%TD.AperFunction*%
%TA.AperFunction,Conductor*%
G36*
X41717879Y35990375D02*
G01*
X41727190Y35986264D01*
X41726632Y35985001D01*
X41760196Y35959036D01*
X41766253Y35911586D01*
X41736983Y35873751D01*
X41725693Y35869075D01*
X41722891Y35867838D01*
X41618475Y35821734D01*
X41618473Y35821732D01*
X41605547Y35808806D01*
X41561353Y35790500D01*
X41490001Y35790500D01*
X41490001Y35745111D01*
X41492949Y35719691D01*
X41499502Y35704850D01*
X41500605Y35657027D01*
X41499501Y35654363D01*
X41491662Y35636609D01*
X41488700Y35611078D01*
X41488700Y35411906D01*
X41470394Y35367712D01*
X41442377Y35351536D01*
X41404886Y35341489D01*
X41365138Y35330839D01*
X41266561Y35273926D01*
X40802074Y34809439D01*
X40791285Y34790752D01*
X40745160Y34710861D01*
X40745159Y34710858D01*
X40718424Y34611080D01*
X40715700Y34600916D01*
X40715700Y34494952D01*
X40697394Y34450758D01*
X39463241Y33216606D01*
X39419047Y33198300D01*
X35812800Y33198300D01*
X35768606Y33216606D01*
X35750300Y33260800D01*
X35750300Y33552972D01*
X35755623Y33578213D01*
X35755625Y33578217D01*
X35760338Y33588891D01*
X35760338Y33588894D01*
X35760822Y33589990D01*
X35795417Y33623027D01*
X35843240Y33621926D01*
X35875173Y33589995D01*
X35921766Y33484474D01*
X35939694Y33466547D01*
X35958000Y33422353D01*
X35958000Y33355999D01*
X36003387Y33356000D01*
X36028807Y33358949D01*
X36028811Y33358950D01*
X36041147Y33364397D01*
X36088969Y33365501D01*
X36091634Y33364398D01*
X36106892Y33357661D01*
X36106893Y33357660D01*
X36132412Y33354700D01*
X36132421Y33354700D01*
X36503578Y33354700D01*
X36524300Y33357104D01*
X36529109Y33357662D01*
X36529110Y33357662D01*
X36529112Y33357663D01*
X36542755Y33363687D01*
X36590578Y33364791D01*
X36593242Y33363688D01*
X36606892Y33357661D01*
X36606893Y33357660D01*
X36632412Y33354700D01*
X36632421Y33354700D01*
X37003578Y33354700D01*
X37029109Y33357662D01*
X37029110Y33357662D01*
X37076543Y33378606D01*
X37133525Y33403766D01*
X37214234Y33484475D01*
X37260338Y33588891D01*
X37263300Y33614421D01*
X37263299Y33856447D01*
X37281605Y33900641D01*
X37325799Y33918947D01*
X37369993Y33900641D01*
X37754074Y33516562D01*
X37834560Y33436075D01*
X37933140Y33379160D01*
X38043081Y33349700D01*
X38043087Y33349700D01*
X39172919Y33349700D01*
X39282859Y33379160D01*
X39282861Y33379160D01*
X39357673Y33422353D01*
X39381439Y33436074D01*
X40223926Y34278561D01*
X40280839Y34377139D01*
X40300918Y34452074D01*
X40310299Y34487081D01*
X40310300Y34487087D01*
X40310300Y35101047D01*
X40328606Y35145241D01*
X41160758Y35977394D01*
X41204952Y35995700D01*
X41692635Y35995700D01*
X41717879Y35990375D01*
G37*
%TD.AperFunction*%
%TA.AperFunction,Conductor*%
G36*
X6256407Y42551594D02*
G01*
X6274713Y42507400D01*
X6269388Y42482155D01*
X6244948Y42426805D01*
X6242000Y42401388D01*
X6242000Y41808000D01*
X7949999Y41808000D01*
X7949999Y42401388D01*
X7947050Y42426807D01*
X7947048Y42426814D01*
X7922613Y42482155D01*
X7921507Y42529977D01*
X7954542Y42564574D01*
X7979787Y42569900D01*
X25695400Y42569900D01*
X25739594Y42551594D01*
X28209082Y40082105D01*
X28209084Y40082103D01*
X28309007Y40015336D01*
X28420041Y39969345D01*
X28537909Y39945900D01*
X28537910Y39945900D01*
X29658153Y39945900D01*
X29702347Y39927594D01*
X29715327Y39908646D01*
X29727766Y39880474D01*
X29808473Y39799767D01*
X29912892Y39753661D01*
X29938421Y39750700D01*
X31529578Y39750700D01*
X31555109Y39753662D01*
X31555110Y39753662D01*
X31601214Y39774019D01*
X31659525Y39799766D01*
X31740234Y39880475D01*
X31786338Y39984891D01*
X31789300Y40010421D01*
X31789300Y40061200D01*
X31807606Y40105394D01*
X31851800Y40123700D01*
X33168201Y40123700D01*
X33212395Y40105394D01*
X33230701Y40061200D01*
X33230701Y39810421D01*
X33233662Y39784890D01*
X33233662Y39784889D01*
X33279767Y39680473D01*
X33305247Y39654994D01*
X33323553Y39610800D01*
X33305247Y39566606D01*
X33261053Y39548300D01*
X23057087Y39548300D01*
X23057081Y39548299D01*
X22998659Y39532644D01*
X22947139Y39518839D01*
X22848562Y39461926D01*
X22848560Y39461924D01*
X19974078Y36587444D01*
X19974075Y36587440D01*
X19974074Y36587439D01*
X19917161Y36488862D01*
X19917160Y36488859D01*
X19917158Y36488855D01*
X19913030Y36473443D01*
X19913029Y36473439D01*
X19887700Y36378918D01*
X19887700Y35292800D01*
X19869394Y35248606D01*
X19825200Y35230300D01*
X8754953Y35230300D01*
X8710759Y35248606D01*
X8062418Y35896947D01*
X7405439Y36553926D01*
X7306862Y36610839D01*
X7210685Y36636610D01*
X7196881Y36640309D01*
X7158931Y36669429D01*
X7155888Y36675422D01*
X7130572Y36732757D01*
X7129468Y36780577D01*
X7130558Y36783208D01*
X7176338Y36886891D01*
X7179300Y36912421D01*
X7179299Y37553578D01*
X15318700Y37553578D01*
X15318700Y35662421D01*
X15321662Y35636890D01*
X15321662Y35636889D01*
X15367767Y35532473D01*
X15448473Y35451767D01*
X15552892Y35405661D01*
X15578421Y35402700D01*
X17069578Y35402700D01*
X17095109Y35405662D01*
X17095110Y35405662D01*
X17141214Y35426019D01*
X17199525Y35451766D01*
X17280234Y35532475D01*
X17326338Y35636891D01*
X17329300Y35662421D01*
X17329299Y37553578D01*
X17326338Y37579109D01*
X17280234Y37683525D01*
X17199525Y37764234D01*
X17095109Y37810338D01*
X17069579Y37813300D01*
X15578422Y37813299D01*
X15578421Y37813299D01*
X15575460Y37812955D01*
X15552891Y37810338D01*
X15448475Y37764234D01*
X15367766Y37683525D01*
X15360779Y37667700D01*
X15321661Y37579107D01*
X15318700Y37553578D01*
X7179299Y37553578D01*
X7179299Y37703578D01*
X7176338Y37729109D01*
X7130234Y37833525D01*
X7049525Y37914234D01*
X6945109Y37960338D01*
X6919579Y37963300D01*
X5328422Y37963299D01*
X5328421Y37963299D01*
X5325460Y37962955D01*
X5302891Y37960338D01*
X5198475Y37914234D01*
X5117766Y37833525D01*
X5107528Y37810338D01*
X5071661Y37729107D01*
X5068700Y37703578D01*
X5068700Y36912421D01*
X5071662Y36886890D01*
X5071664Y36886883D01*
X5117426Y36783245D01*
X5118532Y36735423D01*
X5117441Y36732791D01*
X5089465Y36669429D01*
X5071661Y36629107D01*
X5068700Y36603578D01*
X5068701Y35824499D01*
X5050395Y35780305D01*
X5006201Y35761999D01*
X4928612Y35761999D01*
X4903192Y35759050D01*
X4903191Y35759050D01*
X4799221Y35713142D01*
X4718857Y35632778D01*
X4672948Y35528805D01*
X4670000Y35503388D01*
X4670000Y35260000D01*
X6777999Y35260000D01*
X6777999Y35490200D01*
X6796305Y35534394D01*
X6840498Y35552700D01*
X6919578Y35552700D01*
X6945109Y35555662D01*
X6945110Y35555662D01*
X7029121Y35592757D01*
X7049525Y35601766D01*
X7049527Y35601767D01*
X7054303Y35605039D01*
X7055469Y35603336D01*
X7092196Y35618549D01*
X7136390Y35600243D01*
X8189640Y34546994D01*
X8207946Y34502800D01*
X8189640Y34458606D01*
X8145446Y34440300D01*
X7212122Y34440300D01*
X7167928Y34458606D01*
X7154948Y34477555D01*
X7143631Y34503182D01*
X7130234Y34533525D01*
X7049525Y34614234D01*
X6945109Y34660338D01*
X6919579Y34663300D01*
X6840498Y34663299D01*
X6796306Y34681604D01*
X6778000Y34725798D01*
X6778000Y34956000D01*
X4670001Y34956000D01*
X4670001Y34712611D01*
X4672949Y34687192D01*
X4672949Y34687191D01*
X4718857Y34583221D01*
X4799221Y34502857D01*
X4903194Y34456948D01*
X4928611Y34454000D01*
X5006200Y34454000D01*
X5050394Y34435694D01*
X5068700Y34391500D01*
X5068701Y33625799D01*
X5050395Y33581605D01*
X5006201Y33563299D01*
X4928422Y33563299D01*
X4902891Y33560338D01*
X4798475Y33514234D01*
X4798473Y33514232D01*
X4717766Y33433525D01*
X4717765Y33433523D01*
X4693052Y33377555D01*
X4658455Y33344520D01*
X4635878Y33340300D01*
X3618953Y33340300D01*
X3574759Y33358606D01*
X2228606Y34704759D01*
X2210300Y34748953D01*
X2210300Y37141500D01*
X2228606Y37185694D01*
X2272800Y37204000D01*
X3072000Y37204000D01*
X3376000Y37204000D01*
X4219388Y37204000D01*
X4244807Y37206949D01*
X4244808Y37206949D01*
X4348778Y37252857D01*
X4429142Y37333221D01*
X4475051Y37437194D01*
X4478000Y37462611D01*
X4478000Y38056000D01*
X3376000Y38056000D01*
X3376000Y37204000D01*
X3072000Y37204000D01*
X3072000Y38360000D01*
X3376000Y38360000D01*
X4477999Y38360000D01*
X4477999Y38953388D01*
X4475050Y38978807D01*
X4475050Y38978808D01*
X4429142Y39082778D01*
X4348778Y39163142D01*
X4244805Y39209051D01*
X4219388Y39211999D01*
X3376000Y39211999D01*
X3376000Y38360000D01*
X3072000Y38360000D01*
X3072000Y39211999D01*
X2272800Y39211999D01*
X2228606Y39230305D01*
X2210300Y39274499D01*
X2210300Y40181047D01*
X2228606Y40225241D01*
X3208759Y41205394D01*
X3252953Y41223700D01*
X4178201Y41223700D01*
X4222395Y41205394D01*
X4240701Y41161200D01*
X4240701Y40910421D01*
X4243662Y40884890D01*
X4243662Y40884889D01*
X4289767Y40780473D01*
X4370473Y40699767D01*
X4474892Y40653661D01*
X4500421Y40650700D01*
X5691578Y40650700D01*
X5717109Y40653662D01*
X5717110Y40653662D01*
X5763214Y40674019D01*
X5821525Y40699766D01*
X5902234Y40780475D01*
X5948338Y40884891D01*
X5951300Y40910421D01*
X5951300Y40910611D01*
X6242001Y40910611D01*
X6244949Y40885192D01*
X6244949Y40885191D01*
X6290857Y40781221D01*
X6371221Y40700857D01*
X6475194Y40654948D01*
X6500611Y40652000D01*
X6944000Y40652000D01*
X7248000Y40652000D01*
X7691388Y40652000D01*
X7716807Y40654949D01*
X7716808Y40654949D01*
X7820778Y40700857D01*
X7901142Y40781221D01*
X7947051Y40885194D01*
X7950000Y40910611D01*
X7950000Y41504000D01*
X7248000Y41504000D01*
X7248000Y40652000D01*
X6944000Y40652000D01*
X6944000Y41504000D01*
X6242001Y41504000D01*
X6242001Y40910611D01*
X5951300Y40910611D01*
X5951299Y41656000D01*
X5951299Y42401578D01*
X5951299Y42401579D01*
X5948338Y42427109D01*
X5927018Y42475394D01*
X5924033Y42482155D01*
X5922929Y42529978D01*
X5955963Y42564575D01*
X5981208Y42569900D01*
X6212213Y42569900D01*
X6256407Y42551594D01*
G37*
%TD.AperFunction*%
%TA.AperFunction,Conductor*%
G36*
X43387760Y39566873D02*
G01*
X45015394Y37939240D01*
X45033700Y37895046D01*
X45033700Y34055876D01*
X45015394Y34011682D01*
X44971200Y33993376D01*
X44927006Y34011682D01*
X44913458Y34031956D01*
X44868174Y34141284D01*
X44785165Y34265516D01*
X44679516Y34371165D01*
X44555284Y34454174D01*
X44417246Y34511351D01*
X44270706Y34540500D01*
X44182800Y34540500D01*
X44138606Y34558806D01*
X44120300Y34603000D01*
X44120300Y35362911D01*
X44120300Y35362913D01*
X44119028Y35367662D01*
X44090839Y35472862D01*
X44033926Y35571439D01*
X43831439Y35773926D01*
X43732862Y35830839D01*
X43665576Y35848868D01*
X43622919Y35860299D01*
X43622914Y35860300D01*
X43622913Y35860300D01*
X43095365Y35860300D01*
X43070121Y35865625D01*
X43060810Y35869736D01*
X43061369Y35871002D01*
X43027812Y35896947D01*
X43021741Y35944395D01*
X43051000Y35982239D01*
X43062297Y35986920D01*
X43115940Y36010606D01*
X43169525Y36034266D01*
X43182453Y36047194D01*
X43226647Y36065500D01*
X43297999Y36065500D01*
X43297999Y36110888D01*
X43295050Y36136307D01*
X43288499Y36151143D01*
X43287391Y36198965D01*
X43288478Y36201590D01*
X43296338Y36219391D01*
X43299300Y36244921D01*
X43299299Y36611078D01*
X43296338Y36636609D01*
X43289208Y36652754D01*
X43288103Y36700576D01*
X43289209Y36703246D01*
X43296338Y36719391D01*
X43299300Y36744921D01*
X43299299Y37111078D01*
X43296338Y37136609D01*
X43289208Y37152754D01*
X43288103Y37200576D01*
X43289209Y37203246D01*
X43290844Y37206949D01*
X43296338Y37219391D01*
X43299300Y37244921D01*
X43299299Y37611078D01*
X43296338Y37636609D01*
X43289208Y37652754D01*
X43288103Y37700576D01*
X43289209Y37703246D01*
X43289356Y37703579D01*
X43296338Y37719391D01*
X43299300Y37744921D01*
X43299299Y38111078D01*
X43296338Y38136609D01*
X43288498Y38154362D01*
X43287391Y38202183D01*
X43288498Y38204855D01*
X43295051Y38219694D01*
X43298000Y38245111D01*
X43298000Y38290500D01*
X43226647Y38290500D01*
X43182453Y38308806D01*
X43169525Y38321734D01*
X43065109Y38367838D01*
X43039579Y38370800D01*
X41748422Y38370799D01*
X41722891Y38367838D01*
X41722889Y38367837D01*
X41717879Y38365625D01*
X41692634Y38360300D01*
X40646553Y38360300D01*
X40602359Y38378606D01*
X40584053Y38422800D01*
X40602359Y38466994D01*
X40740727Y38605362D01*
X41490000Y38605362D01*
X41490000Y38565500D01*
X42256500Y38565500D01*
X42270642Y38579642D01*
X42274806Y38589694D01*
X42319000Y38608000D01*
X42469000Y38608000D01*
X42513194Y38589694D01*
X42517357Y38579642D01*
X42531500Y38565500D01*
X43297999Y38565500D01*
X43297999Y38610888D01*
X43295050Y38636305D01*
X43287788Y38652753D01*
X43286682Y38700576D01*
X43287788Y38703247D01*
X43295051Y38719694D01*
X43298000Y38745111D01*
X43298000Y38790500D01*
X42531500Y38790500D01*
X42526550Y38785550D01*
X42513194Y38753306D01*
X42469000Y38735000D01*
X42319000Y38735000D01*
X42274806Y38753306D01*
X42261449Y38785550D01*
X42256500Y38790500D01*
X41490001Y38790500D01*
X41490001Y38745111D01*
X41492949Y38719690D01*
X41500211Y38703244D01*
X41500672Y38683264D01*
X41503839Y38663535D01*
X41490000Y38605362D01*
X40740727Y38605362D01*
X40792253Y38656888D01*
X41088753Y38953388D01*
X41387248Y39251884D01*
X41431442Y39270190D01*
X41475636Y39251884D01*
X41491749Y39224101D01*
X41492948Y39219693D01*
X41500211Y39203244D01*
X41501315Y39155421D01*
X41500211Y39152756D01*
X41492949Y39136308D01*
X41492947Y39136304D01*
X41490000Y39110898D01*
X41490000Y39065500D01*
X42256500Y39065500D01*
X42264985Y39073985D01*
X42274806Y39097694D01*
X42319000Y39116000D01*
X42469000Y39116000D01*
X42513194Y39097694D01*
X42523014Y39073985D01*
X42531500Y39065500D01*
X43297999Y39065500D01*
X43297999Y39110888D01*
X43295050Y39136305D01*
X43287788Y39152753D01*
X43286682Y39200576D01*
X43287788Y39203247D01*
X43295051Y39219694D01*
X43298000Y39245111D01*
X43298000Y39290500D01*
X42531500Y39290500D01*
X42520893Y39279893D01*
X42513194Y39261306D01*
X42469000Y39243000D01*
X42319000Y39243000D01*
X42274806Y39261306D01*
X42256500Y39305500D01*
X42256500Y39365500D01*
X42274806Y39409694D01*
X42319000Y39428000D01*
X42394000Y39428000D01*
X42394000Y39503000D01*
X42412306Y39547194D01*
X42456500Y39565500D01*
X43297999Y39565500D01*
X43299372Y39566873D01*
X43343566Y39585179D01*
X43387760Y39566873D01*
G37*
%TD.AperFunction*%
%TA.AperFunction,Conductor*%
G36*
X35896693Y43501942D02*
G01*
X36125394Y43273241D01*
X36143700Y43229047D01*
X36143700Y42869081D01*
X36173160Y42759141D01*
X36173160Y42759139D01*
X36230075Y42660560D01*
X36310560Y42580075D01*
X36409140Y42523160D01*
X36460604Y42509370D01*
X36498554Y42480249D01*
X36504797Y42432823D01*
X36503869Y42430192D01*
X36502949Y42426810D01*
X36500000Y42401388D01*
X36500000Y41808000D01*
X38207999Y41808000D01*
X38207999Y42401387D01*
X38205376Y42423998D01*
X38218468Y42470007D01*
X38260258Y42493284D01*
X38267460Y42493700D01*
X38439217Y42493700D01*
X38483411Y42475394D01*
X38501717Y42431200D01*
X38501301Y42423997D01*
X38498700Y42401578D01*
X38498700Y40910421D01*
X38501662Y40884890D01*
X38501664Y40884883D01*
X38542569Y40792245D01*
X38543675Y40744423D01*
X38542584Y40741789D01*
X38512103Y40672755D01*
X38501661Y40649107D01*
X38498700Y40623578D01*
X38498700Y39132423D01*
X38500063Y39120676D01*
X38501301Y39109999D01*
X38488210Y39063993D01*
X38446420Y39040716D01*
X38439218Y39040300D01*
X38267461Y39040300D01*
X38223267Y39058606D01*
X38204961Y39102800D01*
X38205377Y39110003D01*
X38208000Y39132611D01*
X38208000Y39726000D01*
X36500001Y39726000D01*
X36500000Y39446252D01*
X36481694Y39402058D01*
X36437500Y39383752D01*
X36393307Y39402057D01*
X36333439Y39461926D01*
X36234862Y39518839D01*
X36167576Y39536868D01*
X36124919Y39548299D01*
X36124914Y39548300D01*
X36124913Y39548300D01*
X34810947Y39548300D01*
X34766753Y39566606D01*
X34748447Y39610800D01*
X34766753Y39654994D01*
X34792232Y39680473D01*
X34792234Y39680475D01*
X34838338Y39784891D01*
X34841300Y39810421D01*
X34841299Y40623388D01*
X36500000Y40623388D01*
X36500000Y40030000D01*
X37202000Y40030000D01*
X37506000Y40030000D01*
X38207999Y40030000D01*
X38207999Y40623388D01*
X38205050Y40648807D01*
X38205049Y40648811D01*
X38164010Y40741754D01*
X38162904Y40789577D01*
X38164010Y40792245D01*
X38205050Y40885191D01*
X38208000Y40910611D01*
X38208000Y41504000D01*
X37506000Y41504000D01*
X37506000Y40030000D01*
X37202000Y40030000D01*
X37202000Y41504000D01*
X36500001Y41504000D01*
X36500001Y40910611D01*
X36502949Y40885192D01*
X36502949Y40885191D01*
X36543990Y40792245D01*
X36545095Y40744423D01*
X36543990Y40741755D01*
X36502948Y40648805D01*
X36500000Y40623388D01*
X34841299Y40623388D01*
X34841299Y41301578D01*
X34838338Y41327109D01*
X34792234Y41431525D01*
X34711525Y41512234D01*
X34607109Y41558338D01*
X34581579Y41561300D01*
X34530799Y41561299D01*
X34486607Y41579604D01*
X34468300Y41623798D01*
X34468300Y41689500D01*
X34486606Y41733694D01*
X34530800Y41752000D01*
X34834000Y41752000D01*
X35138000Y41752000D01*
X35531388Y41752000D01*
X35556807Y41754949D01*
X35556808Y41754949D01*
X35660778Y41800857D01*
X35741142Y41881221D01*
X35787051Y41985194D01*
X35790000Y42010611D01*
X35790000Y42604000D01*
X35138000Y42604000D01*
X35138000Y41752000D01*
X34834000Y41752000D01*
X34834000Y42693500D01*
X34852306Y42737694D01*
X34896500Y42756000D01*
X34986000Y42756000D01*
X34986000Y42845500D01*
X35004306Y42889694D01*
X35048500Y42908000D01*
X35789999Y42908000D01*
X35789999Y43457748D01*
X35808305Y43501942D01*
X35852499Y43520248D01*
X35896693Y43501942D01*
G37*
%TD.AperFunction*%
%TD*%
M02*
