M48
; DRILL file KiCad 10.99.0-3671-gbe90a7e200 date 2026-09-10T00:11:08
; FORMAT={-:-/ absolute / metric / decimal}
; #@! TF.CreationDate,2026-09-10T00:11:08+01:00
; #@! TF.GenerationSoftware,Kicad,Pcbnew,10.99.0-3671-gbe90a7e200
; #@! TF.FileFunction,Plated,1,16,PTH
FMAT,2
METRIC
; #@! TA.AperFunction,Plated,PTH,ViaDrill
T1C0.394
; #@! TA.AperFunction,Plated,PTH,ViaDrill
T2C0.500
; #@! TA.AperFunction,Plated,PTH,ComponentDrill
T3C0.800
; #@! TA.AperFunction,Plated,PTH,ComponentDrill
T4C0.900
; #@! TA.AperFunction,Plated,PTH,ComponentDrill
T5C3.200
%
G90
G05
T1
X-7.62Y4.127
X-6.667Y-0.826
X-6.604Y4.191
X-5.461Y-2.54
X-5.397Y1.778
X-5.334Y6.096
X-4.255Y0.432
X-3.683Y6.477
X-2.794Y7.048
X-1.651Y6.858
X-0.127Y6.54
X1.778Y1.27
X2.857Y-1.079
T2
X4.0Y-0.191
X4.127Y6.286
X4.381Y-4.318
T3
X-3.3Y8.244
X3.3Y8.244
T4
X-3.6Y11.044
X3.6Y11.044
T5
X-11.811Y0.0
X-8.36Y8.36
X-8.36Y-8.36
X8.36Y8.36
X8.36Y-8.36
X11.811Y0.0
M30
