M48
; DRILL file KiCad 10.99.0-3671-gbe90a7e200 date 2026-09-09T22:53:13
; FORMAT={-:-/ absolute / metric / decimal}
; #@! TF.CreationDate,2026-09-09T22:53:13+01:00
; #@! TF.GenerationSoftware,Kicad,Pcbnew,10.99.0-3671-gbe90a7e200
; #@! TF.FileFunction,Plated,1,16,PTH
FMAT,2
METRIC
; #@! TA.AperFunction,Plated,PTH,ViaDrill
T1C0.500
; #@! TA.AperFunction,Plated,PTH,ComponentDrill
T2C1.000
; #@! TA.AperFunction,Plated,PTH,ComponentDrill
T3C2.500
%
G90
G05
T1
X8.001Y20.066
X8.128Y4.064
X10.414Y15.621
X12.192Y17.78
X12.573Y22.987
X13.462Y24.892
X14.097Y17.907
X15.367Y9.144
X17.653Y10.668
X18.034Y17.653
X18.034Y9.144
X18.415Y2.921
X20.066Y2.921
X20.701Y18.034
X21.717Y2.921
X21.971Y23.241
X21.971Y16.637
X23.622Y18.034
X25.019Y9.144
X25.146Y16.764
X25.273Y12.827
X26.416Y17.526
X28.702Y9.652
X28.829Y6.35
X28.956Y21.717
X30.607Y4.445
X32.131Y21.717
T2
X6.3Y26.749
X8.84Y26.749
X11.38Y26.749
X13.92Y26.749
X16.46Y26.749
X19.0Y26.749
X21.54Y26.749
X24.08Y26.749
X26.62Y26.749
X29.16Y26.749
T3
X2.54Y26.67
X2.54Y2.54
X33.02Y26.67
X33.02Y2.54
M30
