M48
; DRILL file KiCad 10.99.0-3671-gbe90a7e200 date 2026-09-10T00:46:36
; FORMAT={-:-/ absolute / metric / decimal}
; #@! TF.CreationDate,2026-09-10T00:46:36+01:00
; #@! TF.GenerationSoftware,Kicad,Pcbnew,10.99.0-3671-gbe90a7e200
; #@! TF.FileFunction,Plated,1,16,PTH
FMAT,2
METRIC
; #@! TA.AperFunction,Plated,PTH,ViaDrill
T1C0.500
; #@! TA.AperFunction,Plated,PTH,ComponentDrill
T2C0.800
; #@! TA.AperFunction,Plated,PTH,ComponentDrill
T3C1.016
%
G90
G05
T1
X-6.731Y10.287
X-3.175Y6.223
X-2.667Y-7.239
X-2.032Y5.842
X-2.032Y-6.096
X-1.524Y4.699
X-1.27Y3.556
X-1.27Y-8.382
X-1.016Y-5.08
X-1.016Y-6.858
X-0.381Y-1.905
X-0.127Y3.302
X-0.127Y-0.381
X0.127Y9.906
X1.143Y-2.921
X1.27Y-4.318
X1.397Y0.762
X2.54Y2.54
X2.54Y1.143
X5.969Y-9.906
T2
X-7.5Y8.75
X-7.5Y6.25
X-7.5Y3.75
X-7.5Y1.25
X-7.5Y-1.25
X-7.5Y-3.75
X-7.5Y-6.25
X-7.5Y-8.75
X7.5Y8.75
X7.5Y6.25
X7.5Y3.75
X7.5Y1.25
X7.5Y-1.25
X7.5Y-3.75
X7.5Y-6.25
X7.5Y-8.75
T3
X-3.556Y12.065
X-1.016Y12.065
X1.524Y12.065
X4.064Y12.065
M30
