%TF.GenerationSoftware,KiCad,Pcbnew,10.99.0-3671-gbe90a7e200*%
%TF.CreationDate,2026-09-09T23:55:21+01:00*%
%TF.ProjectId,kicad_file,6b696361-645f-4666-996c-652e6b696361,rev?*%
%TF.SameCoordinates,Original*%
%TF.FileFunction,Drillmap*%
%TF.FilePolarity,Positive*%
%FSLAX45Y45*%
G04 Gerber Fmt 4.5, Leading zero omitted, Abs format (unit mm)*
G04 Created by KiCad (PCBNEW 10.99.0-3671-gbe90a7e200) date 2026-09-09 23:55:21*
%MOMM*%
%LPD*%
G01*
G04 APERTURE LIST*
%ADD10C,0.050000*%
%ADD11C,0.200000*%
%ADD12C,0.100000*%
%ADD13C,0.250000*%
G04 APERTURE END LIST*
D10*
X0Y2032000D02*
X0Y254000D01*
X0Y2032000D02*
G75*
G02*
X254000Y2286000I254000J0D01*
G01*
X254000Y0D02*
G75*
G02*
X0Y254000I0J254000D01*
G01*
X254000Y0D02*
X4826000Y0D01*
X4826000Y2286000D02*
X254000Y2286000D01*
X4826000Y2286000D02*
G75*
G02*
X5080000Y2032000I0J-254000D01*
G01*
X5080000Y254000D02*
G75*
G02*
X4826000Y0I-254000J0D01*
G01*
X5080000Y254000D02*
X5080000Y2032000D01*
D11*
D12*
X250039Y1039011D02*
X280039Y1009011D01*
X280039Y1039011D02*
X250039Y1009011D01*
X251700Y1278650D02*
X281700Y1248650D01*
X281700Y1278650D02*
X251700Y1248650D01*
X639050Y1793000D02*
X669050Y1763000D01*
X669050Y1793000D02*
X639050Y1763000D01*
X757160Y1062750D02*
X787160Y1032750D01*
X787160Y1062750D02*
X757160Y1032750D01*
X835900Y1412000D02*
X865900Y1382000D01*
X865900Y1412000D02*
X835900Y1382000D01*
X1369300Y503950D02*
X1399300Y473950D01*
X1399300Y503950D02*
X1369300Y473950D01*
X1775038Y798070D02*
X1805038Y768070D01*
X1805038Y798070D02*
X1775038Y768070D01*
X1782050Y724891D02*
X1812050Y694891D01*
X1812050Y724891D02*
X1782050Y694891D01*
X1847355Y1478090D02*
X1877355Y1448090D01*
X1877355Y1478090D02*
X1847355Y1448090D01*
X1858250Y1405650D02*
X1888250Y1375650D01*
X1888250Y1405650D02*
X1858250Y1375650D01*
X1858250Y707150D02*
X1888250Y677150D01*
X1888250Y707150D02*
X1858250Y677150D01*
X1892101Y641220D02*
X1922101Y611220D01*
X1922101Y641220D02*
X1892101Y611220D01*
X1896350Y1532650D02*
X1926350Y1502650D01*
X1926350Y1532650D02*
X1896350Y1502650D01*
X1902021Y561210D02*
X1932021Y531210D01*
X1932021Y561210D02*
X1902021Y531210D01*
X1966200Y897650D02*
X1996200Y867650D01*
X1996200Y897650D02*
X1966200Y867650D01*
X1972550Y1519950D02*
X2002550Y1489950D01*
X2002550Y1519950D02*
X1972550Y1489950D01*
X1974661Y506840D02*
X2004661Y476840D01*
X2004661Y506840D02*
X1974661Y476840D01*
X1997950Y1246900D02*
X2027950Y1216900D01*
X2027950Y1246900D02*
X1997950Y1216900D01*
X2036050Y1570750D02*
X2066050Y1540750D01*
X2066050Y1570750D02*
X2036050Y1540750D01*
X2071421Y506880D02*
X2101421Y476880D01*
X2101421Y506880D02*
X2071421Y476880D01*
X2092700Y1257868D02*
X2122700Y1227868D01*
X2122700Y1257868D02*
X2092700Y1227868D01*
X2128220Y1465580D02*
X2158220Y1435580D01*
X2158220Y1465580D02*
X2128220Y1435580D01*
X2140290Y1538315D02*
X2170290Y1508315D01*
X2170290Y1538315D02*
X2140290Y1508315D01*
X2176470Y524030D02*
X2206470Y494030D01*
X2206470Y524030D02*
X2176470Y494030D01*
X2210520Y786130D02*
X2240520Y756130D01*
X2240520Y786130D02*
X2210520Y756130D01*
X2213850Y1539000D02*
X2243850Y1509000D01*
X2243850Y1539000D02*
X2213850Y1509000D01*
X2257030Y591580D02*
X2287030Y561580D01*
X2287030Y591580D02*
X2257030Y561580D01*
X2257205Y1696410D02*
X2287205Y1666410D01*
X2287205Y1696410D02*
X2257205Y1666410D01*
X2257820Y1615200D02*
X2287820Y1585200D01*
X2287820Y1615200D02*
X2257820Y1585200D01*
X2283700Y786130D02*
X2313700Y756130D01*
X2313700Y786130D02*
X2283700Y756130D01*
X2332925Y1701030D02*
X2362925Y1671030D01*
X2362925Y1701030D02*
X2332925Y1671030D01*
X2347200Y1275870D02*
X2377200Y1245870D01*
X2377200Y1275870D02*
X2347200Y1245870D01*
X2410903Y1483469D02*
X2440903Y1453469D01*
X2440903Y1483469D02*
X2410903Y1453469D01*
X2465070Y1208800D02*
X2495070Y1178800D01*
X2495070Y1208800D02*
X2465070Y1178800D01*
X2469620Y897650D02*
X2499620Y867650D01*
X2499620Y897650D02*
X2469620Y867650D01*
X2501306Y1465230D02*
X2531306Y1435230D01*
X2531306Y1465230D02*
X2501306Y1435230D01*
X2532670Y639168D02*
X2562670Y609168D01*
X2562670Y639168D02*
X2532670Y609168D01*
X2578340Y703340D02*
X2608340Y673340D01*
X2608340Y703340D02*
X2578340Y673340D01*
X2664150Y960155D02*
X2694150Y930155D01*
X2694150Y960155D02*
X2664150Y930155D01*
X2677400Y871735D02*
X2707400Y841735D01*
X2707400Y871735D02*
X2677400Y841735D01*
X2940290Y572530D02*
X2970290Y542530D01*
X2970290Y572530D02*
X2940290Y542530D01*
X3110737Y1130371D02*
X3140737Y1100371D01*
X3140737Y1130371D02*
X3110737Y1100371D01*
X3162484Y1078625D02*
X3192484Y1048625D01*
X3192484Y1078625D02*
X3162484Y1048625D01*
X3167747Y1000632D02*
X3197747Y970632D01*
X3197747Y1000632D02*
X3167747Y970632D01*
X3229850Y1897380D02*
X3259850Y1867380D01*
X3259850Y1897380D02*
X3229850Y1867380D01*
X3240927Y1000181D02*
X3270927Y970181D01*
X3270927Y1000181D02*
X3240927Y970181D01*
X3247899Y927001D02*
X3277899Y897001D01*
X3277899Y927001D02*
X3247899Y897001D01*
X3321079Y920030D02*
X3351079Y890030D01*
X3351079Y920030D02*
X3321079Y890030D01*
X3321530Y846850D02*
X3351530Y816850D01*
X3351530Y846850D02*
X3321530Y816850D01*
X3321530Y770650D02*
X3351530Y740650D01*
X3351530Y770650D02*
X3321530Y740650D01*
X3671040Y1751860D02*
X3701040Y1721860D01*
X3701040Y1751860D02*
X3671040Y1721860D01*
X3691449Y1995960D02*
X3721449Y1965960D01*
X3721449Y1995960D02*
X3691449Y1965960D01*
X4296650Y1034676D02*
X4326650Y1004676D01*
X4326650Y1034676D02*
X4296650Y1004676D01*
X4296996Y961496D02*
X4326996Y931496D01*
X4326996Y961496D02*
X4296996Y931496D01*
X4423650Y1608850D02*
X4453650Y1578850D01*
X4453650Y1608850D02*
X4423650Y1578850D01*
X4451879Y971021D02*
X4481879Y941021D01*
X4481879Y971021D02*
X4451879Y941021D01*
X4588750Y1526300D02*
X4618750Y1496300D01*
X4618750Y1526300D02*
X4588750Y1496300D01*
X901700Y965200D02*
G75*
G02*
X863600Y965200I-19050J0D01*
G01*
X863600Y965200D02*
G75*
G02*
X901700Y965200I19050J0D01*
G01*
X1562100Y831850D02*
G75*
G02*
X1524000Y831850I-19050J0D01*
G01*
X1524000Y831850D02*
G75*
G02*
X1562100Y831850I19050J0D01*
G01*
X1885950Y1733550D02*
G75*
G02*
X1847850Y1733550I-19050J0D01*
G01*
X1847850Y1733550D02*
G75*
G02*
X1885950Y1733550I19050J0D01*
G01*
X2463780Y1040130D02*
G75*
G02*
X2425680Y1040130I-19050J0D01*
G01*
X2425680Y1040130D02*
G75*
G02*
X2463780Y1040130I19050J0D01*
G01*
X469900Y2153285D02*
X469900Y2113915D01*
X450215Y2133600D02*
X489585Y2133600D01*
X1666175Y1253010D02*
X1666175Y1213640D01*
X1646490Y1233325D02*
X1685860Y1233325D01*
X1775308Y2028976D02*
X1775308Y1989606D01*
X1755623Y2009291D02*
X1794993Y2009291D01*
X2009775Y1057910D02*
X2009775Y1018540D01*
X1990090Y1038225D02*
X2029460Y1038225D01*
X128442Y1408258D02*
X128442Y1436542D01*
X100158Y1436542D01*
X100158Y1408258D01*
X128442Y1408258D01*
X147492Y817708D02*
X147492Y845992D01*
X119208Y845992D01*
X119208Y817708D01*
X147492Y817708D01*
X236392Y1147908D02*
X236392Y1176192D01*
X208108Y1176192D01*
X208108Y1147908D01*
X236392Y1147908D01*
X407842Y1370158D02*
X407842Y1398442D01*
X379558Y1398442D01*
X379558Y1370158D01*
X407842Y1370158D01*
X407842Y1052658D02*
X407842Y1080942D01*
X379558Y1080942D01*
X379558Y1052658D01*
X407842Y1052658D01*
X407842Y862158D02*
X407842Y890442D01*
X379558Y890442D01*
X379558Y862158D01*
X407842Y862158D01*
X490392Y1859108D02*
X490392Y1887392D01*
X462108Y1887392D01*
X462108Y1859108D01*
X490392Y1859108D01*
X513682Y1998808D02*
X513682Y2027092D01*
X485397Y2027092D01*
X485397Y1998808D01*
X513682Y1998808D01*
X738042Y1674958D02*
X738042Y1703242D01*
X709758Y1703242D01*
X709758Y1674958D01*
X738042Y1674958D01*
X744392Y1490808D02*
X744392Y1519092D01*
X716108Y1519092D01*
X716108Y1490808D01*
X744392Y1490808D01*
X871392Y633558D02*
X871392Y661842D01*
X843108Y661842D01*
X843108Y633558D01*
X871392Y633558D01*
X877742Y455758D02*
X877742Y484042D01*
X849458Y484042D01*
X849458Y455758D01*
X877742Y455758D01*
X1011092Y906608D02*
X1011092Y934892D01*
X982808Y934892D01*
X982808Y906608D01*
X1011092Y906608D01*
X1011092Y449408D02*
X1011092Y477692D01*
X982808Y477692D01*
X982808Y449408D01*
X1011092Y449408D01*
X1044112Y1079328D02*
X1044112Y1107612D01*
X1015828Y1107612D01*
X1015828Y1079328D01*
X1044112Y1079328D01*
X1176192Y2176608D02*
X1176192Y2204892D01*
X1147908Y2204892D01*
X1147908Y2176608D01*
X1176192Y2176608D01*
X1258742Y1903558D02*
X1258742Y1931842D01*
X1230458Y1931842D01*
X1230458Y1903558D01*
X1258742Y1903558D01*
X1277792Y805008D02*
X1277792Y833292D01*
X1249508Y833292D01*
X1249508Y805008D01*
X1277792Y805008D01*
X1284142Y608158D02*
X1284142Y636442D01*
X1255858Y636442D01*
X1255858Y608158D01*
X1284142Y608158D01*
X1398442Y1586058D02*
X1398442Y1614342D01*
X1370158Y1614342D01*
X1370158Y1586058D01*
X1398442Y1586058D01*
X1449242Y1738458D02*
X1449242Y1766742D01*
X1420958Y1766742D01*
X1420958Y1738458D01*
X1449242Y1738458D01*
X1474642Y506558D02*
X1474642Y534842D01*
X1446358Y534842D01*
X1446358Y506558D01*
X1474642Y506558D01*
X1487342Y1452708D02*
X1487342Y1480992D01*
X1459058Y1480992D01*
X1459058Y1452708D01*
X1487342Y1452708D01*
X1627042Y563708D02*
X1627042Y591992D01*
X1598758Y591992D01*
X1598758Y563708D01*
X1627042Y563708D01*
X1703242Y1643208D02*
X1703242Y1671492D01*
X1674958Y1671492D01*
X1674958Y1643208D01*
X1703242Y1643208D01*
X1728642Y1412068D02*
X1728642Y1440352D01*
X1700358Y1440352D01*
X1700358Y1412068D01*
X1728642Y1412068D01*
X2008042Y1973408D02*
X2008042Y2001692D01*
X1979758Y2001692D01*
X1979758Y1973408D01*
X2008042Y1973408D01*
X2128692Y951058D02*
X2128692Y979342D01*
X2100408Y979342D01*
X2100408Y951058D01*
X2128692Y951058D01*
X2242992Y1212678D02*
X2242992Y1240962D01*
X2214708Y1240962D01*
X2214708Y1212678D01*
X2242992Y1212678D01*
X2363642Y951058D02*
X2363642Y979342D01*
X2335358Y979342D01*
X2335358Y951058D01*
X2363642Y951058D01*
X2443185Y1532506D02*
X2443185Y1560791D01*
X2414900Y1560791D01*
X2414900Y1532506D01*
X2443185Y1532506D01*
X2770042Y1687658D02*
X2770042Y1715942D01*
X2741758Y1715942D01*
X2741758Y1687658D01*
X2770042Y1687658D01*
X2890692Y639908D02*
X2890692Y668192D01*
X2862408Y668192D01*
X2862408Y639908D01*
X2890692Y639908D01*
X2992292Y938358D02*
X2992292Y966642D01*
X2964008Y966642D01*
X2964008Y938358D01*
X2992292Y938358D01*
X3049442Y1166958D02*
X3049442Y1195242D01*
X3021158Y1195242D01*
X3021158Y1166958D01*
X3049442Y1166958D01*
X3119292Y1630508D02*
X3119292Y1658792D01*
X3091008Y1658792D01*
X3091008Y1630508D01*
X3119292Y1630508D01*
X3176442Y1751158D02*
X3176442Y1779442D01*
X3148158Y1779442D01*
X3148158Y1751158D01*
X3176442Y1751158D01*
X3201842Y1548758D02*
X3201842Y1577042D01*
X3173558Y1577042D01*
X3173558Y1548758D01*
X3201842Y1548758D01*
X3214542Y1452708D02*
X3214542Y1480992D01*
X3186258Y1480992D01*
X3186258Y1452708D01*
X3214542Y1452708D01*
X3309792Y1332058D02*
X3309792Y1360342D01*
X3281508Y1360342D01*
X3281508Y1332058D01*
X3309792Y1332058D01*
X3341542Y1833708D02*
X3341542Y1861992D01*
X3313258Y1861992D01*
X3313258Y1833708D01*
X3341542Y1833708D01*
X3703492Y1249508D02*
X3703492Y1277792D01*
X3675208Y1277792D01*
X3675208Y1249508D01*
X3703492Y1249508D01*
X3874942Y1636858D02*
X3874942Y1665142D01*
X3846658Y1665142D01*
X3846658Y1636858D01*
X3874942Y1636858D01*
X3881292Y1763858D02*
X3881292Y1792142D01*
X3853008Y1792142D01*
X3853008Y1763858D01*
X3881292Y1763858D01*
X4236892Y1376508D02*
X4236892Y1404792D01*
X4208608Y1404792D01*
X4208608Y1376508D01*
X4236892Y1376508D01*
X4236892Y1230458D02*
X4236892Y1258742D01*
X4208608Y1258742D01*
X4208608Y1230458D01*
X4236892Y1230458D01*
X4236892Y1078058D02*
X4236892Y1106342D01*
X4208608Y1106342D01*
X4208608Y1078058D01*
X4236892Y1078058D01*
X4243242Y1541608D02*
X4243242Y1569892D01*
X4214958Y1569892D01*
X4214958Y1541608D01*
X4243242Y1541608D01*
X3708400Y1798320D02*
X3732530Y1822450D01*
X3708400Y1846580D01*
X3684270Y1822450D01*
X3708400Y1798320D01*
X109350Y1605000D02*
X169350Y1545000D01*
X169350Y1605000D02*
X109350Y1545000D01*
X169350Y1575000D02*
G75*
G02*
X109350Y1575000I-30000J0D01*
G01*
X109350Y1575000D02*
G75*
G02*
X169350Y1575000I30000J0D01*
G01*
X109350Y741000D02*
X169350Y681000D01*
X169350Y741000D02*
X109350Y681000D01*
X169350Y711000D02*
G75*
G02*
X109350Y711000I-30000J0D01*
G01*
X109350Y711000D02*
G75*
G02*
X169350Y711000I30000J0D01*
G01*
X527350Y1605000D02*
X587350Y1545000D01*
X587350Y1605000D02*
X527350Y1545000D01*
X587350Y1575000D02*
G75*
G02*
X527350Y1575000I-30000J0D01*
G01*
X527350Y1575000D02*
G75*
G02*
X587350Y1575000I30000J0D01*
G01*
X527350Y741000D02*
X587350Y681000D01*
X587350Y741000D02*
X527350Y681000D01*
X587350Y711000D02*
G75*
G02*
X527350Y711000I-30000J0D01*
G01*
X527350Y711000D02*
G75*
G02*
X587350Y711000I30000J0D01*
G01*
X4084600Y1898000D02*
X4144600Y1838000D01*
X4144600Y1898000D02*
X4084600Y1838000D01*
X4144600Y1868000D02*
G75*
G02*
X4084600Y1868000I-30000J0D01*
G01*
X4084600Y1868000D02*
G75*
G02*
X4144600Y1868000I30000J0D01*
G01*
X4084600Y448000D02*
X4144600Y388000D01*
X4144600Y448000D02*
X4084600Y388000D01*
X4144600Y418000D02*
G75*
G02*
X4084600Y418000I-30000J0D01*
G01*
X4084600Y418000D02*
G75*
G02*
X4144600Y418000I30000J0D01*
G01*
X4680600Y1898000D02*
X4740600Y1838000D01*
X4740600Y1898000D02*
X4680600Y1838000D01*
X4740600Y1868000D02*
G75*
G02*
X4680600Y1868000I-30000J0D01*
G01*
X4680600Y1868000D02*
G75*
G02*
X4740600Y1868000I30000J0D01*
G01*
X4680600Y448000D02*
X4740600Y388000D01*
X4740600Y448000D02*
X4680600Y388000D01*
X4740600Y418000D02*
G75*
G02*
X4680600Y418000I-30000J0D01*
G01*
X4680600Y418000D02*
G75*
G02*
X4740600Y418000I30000J0D01*
G01*
X585000Y177000D02*
X685000Y77000D01*
X685000Y177000D02*
X585000Y77000D01*
X635000Y177000D02*
X635000Y77000D01*
X585000Y127000D02*
X685000Y127000D01*
X839000Y177000D02*
X939000Y77000D01*
X939000Y177000D02*
X839000Y77000D01*
X889000Y177000D02*
X889000Y77000D01*
X839000Y127000D02*
X939000Y127000D01*
X1093000Y177000D02*
X1193000Y77000D01*
X1193000Y177000D02*
X1093000Y77000D01*
X1143000Y177000D02*
X1143000Y77000D01*
X1093000Y127000D02*
X1193000Y127000D01*
X1347000Y177000D02*
X1447000Y77000D01*
X1447000Y177000D02*
X1347000Y77000D01*
X1397000Y177000D02*
X1397000Y77000D01*
X1347000Y127000D02*
X1447000Y127000D01*
X1601000Y2215350D02*
X1701000Y2115350D01*
X1701000Y2215350D02*
X1601000Y2115350D01*
X1651000Y2215350D02*
X1651000Y2115350D01*
X1601000Y2165350D02*
X1701000Y2165350D01*
X1601000Y177000D02*
X1701000Y77000D01*
X1701000Y177000D02*
X1601000Y77000D01*
X1651000Y177000D02*
X1651000Y77000D01*
X1601000Y127000D02*
X1701000Y127000D01*
X1855000Y2215350D02*
X1955000Y2115350D01*
X1955000Y2215350D02*
X1855000Y2115350D01*
X1905000Y2215350D02*
X1905000Y2115350D01*
X1855000Y2165350D02*
X1955000Y2165350D01*
X1855000Y177000D02*
X1955000Y77000D01*
X1955000Y177000D02*
X1855000Y77000D01*
X1905000Y177000D02*
X1905000Y77000D01*
X1855000Y127000D02*
X1955000Y127000D01*
X2109000Y2215350D02*
X2209000Y2115350D01*
X2209000Y2215350D02*
X2109000Y2115350D01*
X2159000Y2215350D02*
X2159000Y2115350D01*
X2109000Y2165350D02*
X2209000Y2165350D01*
X2109000Y177000D02*
X2209000Y77000D01*
X2209000Y177000D02*
X2109000Y77000D01*
X2159000Y177000D02*
X2159000Y77000D01*
X2109000Y127000D02*
X2209000Y127000D01*
X2363000Y2215350D02*
X2463000Y2115350D01*
X2463000Y2215350D02*
X2363000Y2115350D01*
X2413000Y2215350D02*
X2413000Y2115350D01*
X2363000Y2165350D02*
X2463000Y2165350D01*
X2363000Y177000D02*
X2463000Y77000D01*
X2463000Y177000D02*
X2363000Y77000D01*
X2413000Y177000D02*
X2413000Y77000D01*
X2363000Y127000D02*
X2463000Y127000D01*
X2617000Y2215350D02*
X2717000Y2115350D01*
X2717000Y2215350D02*
X2617000Y2115350D01*
X2667000Y2215350D02*
X2667000Y2115350D01*
X2617000Y2165350D02*
X2717000Y2165350D01*
X2617000Y177000D02*
X2717000Y77000D01*
X2717000Y177000D02*
X2617000Y77000D01*
X2667000Y177000D02*
X2667000Y77000D01*
X2617000Y127000D02*
X2717000Y127000D01*
X2871000Y2215350D02*
X2971000Y2115350D01*
X2971000Y2215350D02*
X2871000Y2115350D01*
X2921000Y2215350D02*
X2921000Y2115350D01*
X2871000Y2165350D02*
X2971000Y2165350D01*
X2871000Y177000D02*
X2971000Y77000D01*
X2971000Y177000D02*
X2871000Y77000D01*
X2921000Y177000D02*
X2921000Y77000D01*
X2871000Y127000D02*
X2971000Y127000D01*
X3125000Y2215350D02*
X3225000Y2115350D01*
X3225000Y2215350D02*
X3125000Y2115350D01*
X3175000Y2215350D02*
X3175000Y2115350D01*
X3125000Y2165350D02*
X3225000Y2165350D01*
X3125000Y177000D02*
X3225000Y77000D01*
X3225000Y177000D02*
X3125000Y77000D01*
X3175000Y177000D02*
X3175000Y77000D01*
X3125000Y127000D02*
X3225000Y127000D01*
X3379000Y2215350D02*
X3479000Y2115350D01*
X3479000Y2215350D02*
X3379000Y2115350D01*
X3429000Y2215350D02*
X3429000Y2115350D01*
X3379000Y2165350D02*
X3479000Y2165350D01*
X3379000Y177000D02*
X3479000Y77000D01*
X3479000Y177000D02*
X3379000Y77000D01*
X3429000Y177000D02*
X3429000Y77000D01*
X3379000Y127000D02*
X3479000Y127000D01*
X3633000Y2215350D02*
X3733000Y2115350D01*
X3733000Y2215350D02*
X3633000Y2115350D01*
X3683000Y2215350D02*
X3683000Y2115350D01*
X3633000Y2165350D02*
X3733000Y2165350D01*
X3633000Y812000D02*
X3733000Y712000D01*
X3733000Y812000D02*
X3633000Y712000D01*
X3683000Y812000D02*
X3683000Y712000D01*
X3633000Y762000D02*
X3733000Y762000D01*
X3633000Y558000D02*
X3733000Y458000D01*
X3733000Y558000D02*
X3633000Y458000D01*
X3683000Y558000D02*
X3683000Y458000D01*
X3633000Y508000D02*
X3733000Y508000D01*
X3633000Y177000D02*
X3733000Y77000D01*
X3733000Y177000D02*
X3633000Y77000D01*
X3683000Y177000D02*
X3683000Y77000D01*
X3633000Y127000D02*
X3733000Y127000D01*
X3887000Y2215350D02*
X3987000Y2115350D01*
X3987000Y2215350D02*
X3887000Y2115350D01*
X3937000Y2215350D02*
X3937000Y2115350D01*
X3887000Y2165350D02*
X3987000Y2165350D01*
X3887000Y177000D02*
X3987000Y77000D01*
X3987000Y177000D02*
X3887000Y77000D01*
X3937000Y177000D02*
X3937000Y77000D01*
X3887000Y127000D02*
X3987000Y127000D01*
X4141000Y2215350D02*
X4241000Y2115350D01*
X4241000Y2215350D02*
X4141000Y2115350D01*
X4191000Y2215350D02*
X4191000Y2115350D01*
X4141000Y2165350D02*
X4241000Y2165350D01*
X4141000Y177000D02*
X4241000Y77000D01*
X4241000Y177000D02*
X4141000Y77000D01*
X4191000Y177000D02*
X4191000Y77000D01*
X4141000Y127000D02*
X4241000Y127000D01*
X4395000Y2215350D02*
X4495000Y2115350D01*
X4495000Y2215350D02*
X4395000Y2115350D01*
X4445000Y2215350D02*
X4445000Y2115350D01*
X4395000Y2165350D02*
X4495000Y2165350D01*
X4395000Y177000D02*
X4495000Y77000D01*
X4495000Y177000D02*
X4395000Y77000D01*
X4445000Y177000D02*
X4445000Y77000D01*
X4395000Y127000D02*
X4495000Y127000D01*
D13*
X129000Y2157000D02*
X379000Y1907000D01*
X379000Y2157000D02*
X129000Y1907000D01*
X342389Y1943611D02*
X342389Y2120389D01*
X165611Y2120389D01*
X165611Y1943611D01*
X342389Y1943611D01*
X129000Y379000D02*
X379000Y129000D01*
X379000Y379000D02*
X129000Y129000D01*
X342389Y165611D02*
X342389Y342389D01*
X165611Y342389D01*
X165611Y165611D01*
X342389Y165611D01*
D11*
X258277Y-313984D02*
X258277Y-113984D01*
X258277Y-113984D02*
X305896Y-113984D01*
X305896Y-113984D02*
X334467Y-123508D01*
X334467Y-123508D02*
X353515Y-142555D01*
X353515Y-142555D02*
X363039Y-161603D01*
X363039Y-161603D02*
X372562Y-199698D01*
X372562Y-199698D02*
X372562Y-228269D01*
X372562Y-228269D02*
X363039Y-266365D01*
X363039Y-266365D02*
X353515Y-285412D01*
X353515Y-285412D02*
X334467Y-304460D01*
X334467Y-304460D02*
X305896Y-313984D01*
X305896Y-313984D02*
X258277Y-313984D01*
X458277Y-313984D02*
X458277Y-180650D01*
X458277Y-218746D02*
X467801Y-199698D01*
X467801Y-199698D02*
X477324Y-190174D01*
X477324Y-190174D02*
X496372Y-180650D01*
X496372Y-180650D02*
X515420Y-180650D01*
X582086Y-313984D02*
X582086Y-180650D01*
X582086Y-113984D02*
X572563Y-123508D01*
X572563Y-123508D02*
X582086Y-133031D01*
X582086Y-133031D02*
X591610Y-123508D01*
X591610Y-123508D02*
X582086Y-113984D01*
X582086Y-113984D02*
X582086Y-133031D01*
X705896Y-313984D02*
X686848Y-304460D01*
X686848Y-304460D02*
X677324Y-285412D01*
X677324Y-285412D02*
X677324Y-113984D01*
X810658Y-313984D02*
X791610Y-304460D01*
X791610Y-304460D02*
X782086Y-285412D01*
X782086Y-285412D02*
X782086Y-113984D01*
X1039229Y-313984D02*
X1039229Y-113984D01*
X1039229Y-113984D02*
X1105896Y-256841D01*
X1105896Y-256841D02*
X1172563Y-113984D01*
X1172563Y-113984D02*
X1172563Y-313984D01*
X1353515Y-313984D02*
X1353515Y-209222D01*
X1353515Y-209222D02*
X1343991Y-190174D01*
X1343991Y-190174D02*
X1324944Y-180650D01*
X1324944Y-180650D02*
X1286848Y-180650D01*
X1286848Y-180650D02*
X1267801Y-190174D01*
X1353515Y-304460D02*
X1334467Y-313984D01*
X1334467Y-313984D02*
X1286848Y-313984D01*
X1286848Y-313984D02*
X1267801Y-304460D01*
X1267801Y-304460D02*
X1258277Y-285412D01*
X1258277Y-285412D02*
X1258277Y-266365D01*
X1258277Y-266365D02*
X1267801Y-247317D01*
X1267801Y-247317D02*
X1286848Y-237793D01*
X1286848Y-237793D02*
X1334467Y-237793D01*
X1334467Y-237793D02*
X1353515Y-228269D01*
X1448753Y-180650D02*
X1448753Y-380650D01*
X1448753Y-190174D02*
X1467801Y-180650D01*
X1467801Y-180650D02*
X1505896Y-180650D01*
X1505896Y-180650D02*
X1524943Y-190174D01*
X1524943Y-190174D02*
X1534467Y-199698D01*
X1534467Y-199698D02*
X1543991Y-218746D01*
X1543991Y-218746D02*
X1543991Y-275889D01*
X1543991Y-275889D02*
X1534467Y-294936D01*
X1534467Y-294936D02*
X1524943Y-304460D01*
X1524943Y-304460D02*
X1505896Y-313984D01*
X1505896Y-313984D02*
X1467801Y-313984D01*
X1467801Y-313984D02*
X1448753Y-304460D01*
X1629705Y-294936D02*
X1639229Y-304460D01*
X1639229Y-304460D02*
X1629705Y-313984D01*
X1629705Y-313984D02*
X1620182Y-304460D01*
X1620182Y-304460D02*
X1629705Y-294936D01*
X1629705Y-294936D02*
X1629705Y-313984D01*
X1629705Y-190174D02*
X1639229Y-199698D01*
X1639229Y-199698D02*
X1629705Y-209222D01*
X1629705Y-209222D02*
X1620182Y-199698D01*
X1620182Y-199698D02*
X1629705Y-190174D01*
X1629705Y-190174D02*
X1629705Y-209222D01*
D12*
X-32500Y-627500D02*
X-2500Y-657500D01*
X-2500Y-627500D02*
X-32500Y-657500D01*
D11*
X296372Y-533984D02*
X315420Y-533984D01*
X315420Y-533984D02*
X334467Y-543508D01*
X334467Y-543508D02*
X343991Y-553031D01*
X343991Y-553031D02*
X353515Y-572079D01*
X353515Y-572079D02*
X363039Y-610174D01*
X363039Y-610174D02*
X363039Y-657793D01*
X363039Y-657793D02*
X353515Y-695889D01*
X353515Y-695889D02*
X343991Y-714936D01*
X343991Y-714936D02*
X334467Y-724460D01*
X334467Y-724460D02*
X315420Y-733984D01*
X315420Y-733984D02*
X296372Y-733984D01*
X296372Y-733984D02*
X277324Y-724460D01*
X277324Y-724460D02*
X267801Y-714936D01*
X267801Y-714936D02*
X258277Y-695889D01*
X258277Y-695889D02*
X248753Y-657793D01*
X248753Y-657793D02*
X248753Y-610174D01*
X248753Y-610174D02*
X258277Y-572079D01*
X258277Y-572079D02*
X267801Y-553031D01*
X267801Y-553031D02*
X277324Y-543508D01*
X277324Y-543508D02*
X296372Y-533984D01*
X448753Y-714936D02*
X458277Y-724460D01*
X458277Y-724460D02*
X448753Y-733984D01*
X448753Y-733984D02*
X439229Y-724460D01*
X439229Y-724460D02*
X448753Y-714936D01*
X448753Y-714936D02*
X448753Y-733984D01*
X524944Y-533984D02*
X648753Y-533984D01*
X648753Y-533984D02*
X582086Y-610174D01*
X582086Y-610174D02*
X610658Y-610174D01*
X610658Y-610174D02*
X629705Y-619698D01*
X629705Y-619698D02*
X639229Y-629222D01*
X639229Y-629222D02*
X648753Y-648270D01*
X648753Y-648270D02*
X648753Y-695889D01*
X648753Y-695889D02*
X639229Y-714936D01*
X639229Y-714936D02*
X629705Y-724460D01*
X629705Y-724460D02*
X610658Y-733984D01*
X610658Y-733984D02*
X553515Y-733984D01*
X553515Y-733984D02*
X534467Y-724460D01*
X534467Y-724460D02*
X524944Y-714936D01*
X772562Y-533984D02*
X791610Y-533984D01*
X791610Y-533984D02*
X810658Y-543508D01*
X810658Y-543508D02*
X820182Y-553031D01*
X820182Y-553031D02*
X829705Y-572079D01*
X829705Y-572079D02*
X839229Y-610174D01*
X839229Y-610174D02*
X839229Y-657793D01*
X839229Y-657793D02*
X829705Y-695889D01*
X829705Y-695889D02*
X820182Y-714936D01*
X820182Y-714936D02*
X810658Y-724460D01*
X810658Y-724460D02*
X791610Y-733984D01*
X791610Y-733984D02*
X772562Y-733984D01*
X772562Y-733984D02*
X753515Y-724460D01*
X753515Y-724460D02*
X743991Y-714936D01*
X743991Y-714936D02*
X734467Y-695889D01*
X734467Y-695889D02*
X724943Y-657793D01*
X724943Y-657793D02*
X724943Y-610174D01*
X724943Y-610174D02*
X734467Y-572079D01*
X734467Y-572079D02*
X743991Y-553031D01*
X743991Y-553031D02*
X753515Y-543508D01*
X753515Y-543508D02*
X772562Y-533984D01*
X963039Y-533984D02*
X982086Y-533984D01*
X982086Y-533984D02*
X1001134Y-543508D01*
X1001134Y-543508D02*
X1010658Y-553031D01*
X1010658Y-553031D02*
X1020182Y-572079D01*
X1020182Y-572079D02*
X1029705Y-610174D01*
X1029705Y-610174D02*
X1029705Y-657793D01*
X1029705Y-657793D02*
X1020182Y-695889D01*
X1020182Y-695889D02*
X1010658Y-714936D01*
X1010658Y-714936D02*
X1001134Y-724460D01*
X1001134Y-724460D02*
X982086Y-733984D01*
X982086Y-733984D02*
X963039Y-733984D01*
X963039Y-733984D02*
X943991Y-724460D01*
X943991Y-724460D02*
X934467Y-714936D01*
X934467Y-714936D02*
X924943Y-695889D01*
X924943Y-695889D02*
X915420Y-657793D01*
X915420Y-657793D02*
X915420Y-610174D01*
X915420Y-610174D02*
X924943Y-572079D01*
X924943Y-572079D02*
X934467Y-553031D01*
X934467Y-553031D02*
X943991Y-543508D01*
X943991Y-543508D02*
X963039Y-533984D01*
X1115420Y-733984D02*
X1115420Y-600650D01*
X1115420Y-619698D02*
X1124944Y-610174D01*
X1124944Y-610174D02*
X1143991Y-600650D01*
X1143991Y-600650D02*
X1172563Y-600650D01*
X1172563Y-600650D02*
X1191610Y-610174D01*
X1191610Y-610174D02*
X1201134Y-629222D01*
X1201134Y-629222D02*
X1201134Y-733984D01*
X1201134Y-629222D02*
X1210658Y-610174D01*
X1210658Y-610174D02*
X1229705Y-600650D01*
X1229705Y-600650D02*
X1258277Y-600650D01*
X1258277Y-600650D02*
X1277325Y-610174D01*
X1277325Y-610174D02*
X1286848Y-629222D01*
X1286848Y-629222D02*
X1286848Y-733984D01*
X1382086Y-733984D02*
X1382086Y-600650D01*
X1382086Y-619698D02*
X1391610Y-610174D01*
X1391610Y-610174D02*
X1410658Y-600650D01*
X1410658Y-600650D02*
X1439229Y-600650D01*
X1439229Y-600650D02*
X1458277Y-610174D01*
X1458277Y-610174D02*
X1467801Y-629222D01*
X1467801Y-629222D02*
X1467801Y-733984D01*
X1467801Y-629222D02*
X1477324Y-610174D01*
X1477324Y-610174D02*
X1496372Y-600650D01*
X1496372Y-600650D02*
X1524943Y-600650D01*
X1524943Y-600650D02*
X1543991Y-610174D01*
X1543991Y-610174D02*
X1553515Y-629222D01*
X1553515Y-629222D02*
X1553515Y-733984D01*
X1943991Y-524460D02*
X1772563Y-781603D01*
X2201134Y-533984D02*
X2220182Y-533984D01*
X2220182Y-533984D02*
X2239229Y-543508D01*
X2239229Y-543508D02*
X2248753Y-553031D01*
X2248753Y-553031D02*
X2258277Y-572079D01*
X2258277Y-572079D02*
X2267801Y-610174D01*
X2267801Y-610174D02*
X2267801Y-657793D01*
X2267801Y-657793D02*
X2258277Y-695889D01*
X2258277Y-695889D02*
X2248753Y-714936D01*
X2248753Y-714936D02*
X2239229Y-724460D01*
X2239229Y-724460D02*
X2220182Y-733984D01*
X2220182Y-733984D02*
X2201134Y-733984D01*
X2201134Y-733984D02*
X2182087Y-724460D01*
X2182087Y-724460D02*
X2172563Y-714936D01*
X2172563Y-714936D02*
X2163039Y-695889D01*
X2163039Y-695889D02*
X2153515Y-657793D01*
X2153515Y-657793D02*
X2153515Y-610174D01*
X2153515Y-610174D02*
X2163039Y-572079D01*
X2163039Y-572079D02*
X2172563Y-553031D01*
X2172563Y-553031D02*
X2182087Y-543508D01*
X2182087Y-543508D02*
X2201134Y-533984D01*
X2353515Y-714936D02*
X2363039Y-724460D01*
X2363039Y-724460D02*
X2353515Y-733984D01*
X2353515Y-733984D02*
X2343991Y-724460D01*
X2343991Y-724460D02*
X2353515Y-714936D01*
X2353515Y-714936D02*
X2353515Y-733984D01*
X2486848Y-533984D02*
X2505896Y-533984D01*
X2505896Y-533984D02*
X2524944Y-543508D01*
X2524944Y-543508D02*
X2534468Y-553031D01*
X2534468Y-553031D02*
X2543991Y-572079D01*
X2543991Y-572079D02*
X2553515Y-610174D01*
X2553515Y-610174D02*
X2553515Y-657793D01*
X2553515Y-657793D02*
X2543991Y-695889D01*
X2543991Y-695889D02*
X2534468Y-714936D01*
X2534468Y-714936D02*
X2524944Y-724460D01*
X2524944Y-724460D02*
X2505896Y-733984D01*
X2505896Y-733984D02*
X2486848Y-733984D01*
X2486848Y-733984D02*
X2467801Y-724460D01*
X2467801Y-724460D02*
X2458277Y-714936D01*
X2458277Y-714936D02*
X2448753Y-695889D01*
X2448753Y-695889D02*
X2439229Y-657793D01*
X2439229Y-657793D02*
X2439229Y-610174D01*
X2439229Y-610174D02*
X2448753Y-572079D01*
X2448753Y-572079D02*
X2458277Y-553031D01*
X2458277Y-553031D02*
X2467801Y-543508D01*
X2467801Y-543508D02*
X2486848Y-533984D01*
X2743991Y-733984D02*
X2629706Y-733984D01*
X2686848Y-733984D02*
X2686848Y-533984D01*
X2686848Y-533984D02*
X2667801Y-562555D01*
X2667801Y-562555D02*
X2648753Y-581603D01*
X2648753Y-581603D02*
X2629706Y-591127D01*
X2934467Y-733984D02*
X2820182Y-733984D01*
X2877325Y-733984D02*
X2877325Y-533984D01*
X2877325Y-533984D02*
X2858277Y-562555D01*
X2858277Y-562555D02*
X2839229Y-581603D01*
X2839229Y-581603D02*
X2820182Y-591127D01*
X3048753Y-619698D02*
X3029706Y-610174D01*
X3029706Y-610174D02*
X3020182Y-600650D01*
X3020182Y-600650D02*
X3010658Y-581603D01*
X3010658Y-581603D02*
X3010658Y-572079D01*
X3010658Y-572079D02*
X3020182Y-553031D01*
X3020182Y-553031D02*
X3029706Y-543508D01*
X3029706Y-543508D02*
X3048753Y-533984D01*
X3048753Y-533984D02*
X3086848Y-533984D01*
X3086848Y-533984D02*
X3105896Y-543508D01*
X3105896Y-543508D02*
X3115420Y-553031D01*
X3115420Y-553031D02*
X3124944Y-572079D01*
X3124944Y-572079D02*
X3124944Y-581603D01*
X3124944Y-581603D02*
X3115420Y-600650D01*
X3115420Y-600650D02*
X3105896Y-610174D01*
X3105896Y-610174D02*
X3086848Y-619698D01*
X3086848Y-619698D02*
X3048753Y-619698D01*
X3048753Y-619698D02*
X3029706Y-629222D01*
X3029706Y-629222D02*
X3020182Y-638746D01*
X3020182Y-638746D02*
X3010658Y-657793D01*
X3010658Y-657793D02*
X3010658Y-695889D01*
X3010658Y-695889D02*
X3020182Y-714936D01*
X3020182Y-714936D02*
X3029706Y-724460D01*
X3029706Y-724460D02*
X3048753Y-733984D01*
X3048753Y-733984D02*
X3086848Y-733984D01*
X3086848Y-733984D02*
X3105896Y-724460D01*
X3105896Y-724460D02*
X3115420Y-714936D01*
X3115420Y-714936D02*
X3124944Y-695889D01*
X3124944Y-695889D02*
X3124944Y-657793D01*
X3124944Y-657793D02*
X3115420Y-638746D01*
X3115420Y-638746D02*
X3105896Y-629222D01*
X3105896Y-629222D02*
X3086848Y-619698D01*
X3201134Y-533984D02*
X3201134Y-572079D01*
X3277325Y-533984D02*
X3277325Y-572079D01*
X3572563Y-810174D02*
X3563039Y-800650D01*
X3563039Y-800650D02*
X3543991Y-772079D01*
X3543991Y-772079D02*
X3534468Y-753031D01*
X3534468Y-753031D02*
X3524944Y-724460D01*
X3524944Y-724460D02*
X3515420Y-676841D01*
X3515420Y-676841D02*
X3515420Y-638746D01*
X3515420Y-638746D02*
X3524944Y-591127D01*
X3524944Y-591127D02*
X3534468Y-562555D01*
X3534468Y-562555D02*
X3543991Y-543508D01*
X3543991Y-543508D02*
X3563039Y-514936D01*
X3563039Y-514936D02*
X3572563Y-505412D01*
X3743991Y-533984D02*
X3648753Y-533984D01*
X3648753Y-533984D02*
X3639229Y-629222D01*
X3639229Y-629222D02*
X3648753Y-619698D01*
X3648753Y-619698D02*
X3667801Y-610174D01*
X3667801Y-610174D02*
X3715420Y-610174D01*
X3715420Y-610174D02*
X3734468Y-619698D01*
X3734468Y-619698D02*
X3743991Y-629222D01*
X3743991Y-629222D02*
X3753515Y-648270D01*
X3753515Y-648270D02*
X3753515Y-695889D01*
X3753515Y-695889D02*
X3743991Y-714936D01*
X3743991Y-714936D02*
X3734468Y-724460D01*
X3734468Y-724460D02*
X3715420Y-733984D01*
X3715420Y-733984D02*
X3667801Y-733984D01*
X3667801Y-733984D02*
X3648753Y-724460D01*
X3648753Y-724460D02*
X3639229Y-714936D01*
X3820182Y-533984D02*
X3953515Y-533984D01*
X3953515Y-533984D02*
X3867801Y-733984D01*
X4182087Y-733984D02*
X4182087Y-533984D01*
X4267801Y-733984D02*
X4267801Y-629222D01*
X4267801Y-629222D02*
X4258277Y-610174D01*
X4258277Y-610174D02*
X4239230Y-600650D01*
X4239230Y-600650D02*
X4210658Y-600650D01*
X4210658Y-600650D02*
X4191610Y-610174D01*
X4191610Y-610174D02*
X4182087Y-619698D01*
X4391611Y-733984D02*
X4372563Y-724460D01*
X4372563Y-724460D02*
X4363039Y-714936D01*
X4363039Y-714936D02*
X4353515Y-695889D01*
X4353515Y-695889D02*
X4353515Y-638746D01*
X4353515Y-638746D02*
X4363039Y-619698D01*
X4363039Y-619698D02*
X4372563Y-610174D01*
X4372563Y-610174D02*
X4391611Y-600650D01*
X4391611Y-600650D02*
X4420182Y-600650D01*
X4420182Y-600650D02*
X4439230Y-610174D01*
X4439230Y-610174D02*
X4448753Y-619698D01*
X4448753Y-619698D02*
X4458277Y-638746D01*
X4458277Y-638746D02*
X4458277Y-695889D01*
X4458277Y-695889D02*
X4448753Y-714936D01*
X4448753Y-714936D02*
X4439230Y-724460D01*
X4439230Y-724460D02*
X4420182Y-733984D01*
X4420182Y-733984D02*
X4391611Y-733984D01*
X4572563Y-733984D02*
X4553515Y-724460D01*
X4553515Y-724460D02*
X4543992Y-705412D01*
X4543992Y-705412D02*
X4543992Y-533984D01*
X4724944Y-724460D02*
X4705896Y-733984D01*
X4705896Y-733984D02*
X4667801Y-733984D01*
X4667801Y-733984D02*
X4648753Y-724460D01*
X4648753Y-724460D02*
X4639230Y-705412D01*
X4639230Y-705412D02*
X4639230Y-629222D01*
X4639230Y-629222D02*
X4648753Y-610174D01*
X4648753Y-610174D02*
X4667801Y-600650D01*
X4667801Y-600650D02*
X4705896Y-600650D01*
X4705896Y-600650D02*
X4724944Y-610174D01*
X4724944Y-610174D02*
X4734468Y-629222D01*
X4734468Y-629222D02*
X4734468Y-648270D01*
X4734468Y-648270D02*
X4639230Y-667317D01*
X4810658Y-724460D02*
X4829706Y-733984D01*
X4829706Y-733984D02*
X4867801Y-733984D01*
X4867801Y-733984D02*
X4886849Y-724460D01*
X4886849Y-724460D02*
X4896373Y-705412D01*
X4896373Y-705412D02*
X4896373Y-695889D01*
X4896373Y-695889D02*
X4886849Y-676841D01*
X4886849Y-676841D02*
X4867801Y-667317D01*
X4867801Y-667317D02*
X4839230Y-667317D01*
X4839230Y-667317D02*
X4820182Y-657793D01*
X4820182Y-657793D02*
X4810658Y-638746D01*
X4810658Y-638746D02*
X4810658Y-629222D01*
X4810658Y-629222D02*
X4820182Y-610174D01*
X4820182Y-610174D02*
X4839230Y-600650D01*
X4839230Y-600650D02*
X4867801Y-600650D01*
X4867801Y-600650D02*
X4886849Y-610174D01*
X4963039Y-810174D02*
X4972563Y-800650D01*
X4972563Y-800650D02*
X4991611Y-772079D01*
X4991611Y-772079D02*
X5001134Y-753031D01*
X5001134Y-753031D02*
X5010658Y-724460D01*
X5010658Y-724460D02*
X5020182Y-676841D01*
X5020182Y-676841D02*
X5020182Y-638746D01*
X5020182Y-638746D02*
X5010658Y-591127D01*
X5010658Y-591127D02*
X5001134Y-562555D01*
X5001134Y-562555D02*
X4991611Y-543508D01*
X4991611Y-543508D02*
X4972563Y-514936D01*
X4972563Y-514936D02*
X4963039Y-505412D01*
D12*
X-2500Y-906500D02*
G75*
G02*
X-40600Y-906500I-19050J0D01*
G01*
X-40600Y-906500D02*
G75*
G02*
X-2500Y-906500I19050J0D01*
G01*
D11*
X296372Y-797984D02*
X315420Y-797984D01*
X315420Y-797984D02*
X334467Y-807508D01*
X334467Y-807508D02*
X343991Y-817031D01*
X343991Y-817031D02*
X353515Y-836079D01*
X353515Y-836079D02*
X363039Y-874174D01*
X363039Y-874174D02*
X363039Y-921793D01*
X363039Y-921793D02*
X353515Y-959888D01*
X353515Y-959888D02*
X343991Y-978936D01*
X343991Y-978936D02*
X334467Y-988460D01*
X334467Y-988460D02*
X315420Y-997984D01*
X315420Y-997984D02*
X296372Y-997984D01*
X296372Y-997984D02*
X277324Y-988460D01*
X277324Y-988460D02*
X267801Y-978936D01*
X267801Y-978936D02*
X258277Y-959888D01*
X258277Y-959888D02*
X248753Y-921793D01*
X248753Y-921793D02*
X248753Y-874174D01*
X248753Y-874174D02*
X258277Y-836079D01*
X258277Y-836079D02*
X267801Y-817031D01*
X267801Y-817031D02*
X277324Y-807508D01*
X277324Y-807508D02*
X296372Y-797984D01*
X448753Y-978936D02*
X458277Y-988460D01*
X458277Y-988460D02*
X448753Y-997984D01*
X448753Y-997984D02*
X439229Y-988460D01*
X439229Y-988460D02*
X448753Y-978936D01*
X448753Y-978936D02*
X448753Y-997984D01*
X524944Y-797984D02*
X648753Y-797984D01*
X648753Y-797984D02*
X582086Y-874174D01*
X582086Y-874174D02*
X610658Y-874174D01*
X610658Y-874174D02*
X629705Y-883698D01*
X629705Y-883698D02*
X639229Y-893222D01*
X639229Y-893222D02*
X648753Y-912269D01*
X648753Y-912269D02*
X648753Y-959888D01*
X648753Y-959888D02*
X639229Y-978936D01*
X639229Y-978936D02*
X629705Y-988460D01*
X629705Y-988460D02*
X610658Y-997984D01*
X610658Y-997984D02*
X553515Y-997984D01*
X553515Y-997984D02*
X534467Y-988460D01*
X534467Y-988460D02*
X524944Y-978936D01*
X763039Y-883698D02*
X743991Y-874174D01*
X743991Y-874174D02*
X734467Y-864650D01*
X734467Y-864650D02*
X724943Y-845603D01*
X724943Y-845603D02*
X724943Y-836079D01*
X724943Y-836079D02*
X734467Y-817031D01*
X734467Y-817031D02*
X743991Y-807508D01*
X743991Y-807508D02*
X763039Y-797984D01*
X763039Y-797984D02*
X801134Y-797984D01*
X801134Y-797984D02*
X820182Y-807508D01*
X820182Y-807508D02*
X829705Y-817031D01*
X829705Y-817031D02*
X839229Y-836079D01*
X839229Y-836079D02*
X839229Y-845603D01*
X839229Y-845603D02*
X829705Y-864650D01*
X829705Y-864650D02*
X820182Y-874174D01*
X820182Y-874174D02*
X801134Y-883698D01*
X801134Y-883698D02*
X763039Y-883698D01*
X763039Y-883698D02*
X743991Y-893222D01*
X743991Y-893222D02*
X734467Y-902746D01*
X734467Y-902746D02*
X724943Y-921793D01*
X724943Y-921793D02*
X724943Y-959888D01*
X724943Y-959888D02*
X734467Y-978936D01*
X734467Y-978936D02*
X743991Y-988460D01*
X743991Y-988460D02*
X763039Y-997984D01*
X763039Y-997984D02*
X801134Y-997984D01*
X801134Y-997984D02*
X820182Y-988460D01*
X820182Y-988460D02*
X829705Y-978936D01*
X829705Y-978936D02*
X839229Y-959888D01*
X839229Y-959888D02*
X839229Y-921793D01*
X839229Y-921793D02*
X829705Y-902746D01*
X829705Y-902746D02*
X820182Y-893222D01*
X820182Y-893222D02*
X801134Y-883698D01*
X1029705Y-997984D02*
X915420Y-997984D01*
X972562Y-997984D02*
X972562Y-797984D01*
X972562Y-797984D02*
X953515Y-826555D01*
X953515Y-826555D02*
X934467Y-845603D01*
X934467Y-845603D02*
X915420Y-855127D01*
X1115420Y-997984D02*
X1115420Y-864650D01*
X1115420Y-883698D02*
X1124944Y-874174D01*
X1124944Y-874174D02*
X1143991Y-864650D01*
X1143991Y-864650D02*
X1172563Y-864650D01*
X1172563Y-864650D02*
X1191610Y-874174D01*
X1191610Y-874174D02*
X1201134Y-893222D01*
X1201134Y-893222D02*
X1201134Y-997984D01*
X1201134Y-893222D02*
X1210658Y-874174D01*
X1210658Y-874174D02*
X1229705Y-864650D01*
X1229705Y-864650D02*
X1258277Y-864650D01*
X1258277Y-864650D02*
X1277325Y-874174D01*
X1277325Y-874174D02*
X1286848Y-893222D01*
X1286848Y-893222D02*
X1286848Y-997984D01*
X1382086Y-997984D02*
X1382086Y-864650D01*
X1382086Y-883698D02*
X1391610Y-874174D01*
X1391610Y-874174D02*
X1410658Y-864650D01*
X1410658Y-864650D02*
X1439229Y-864650D01*
X1439229Y-864650D02*
X1458277Y-874174D01*
X1458277Y-874174D02*
X1467801Y-893222D01*
X1467801Y-893222D02*
X1467801Y-997984D01*
X1467801Y-893222D02*
X1477324Y-874174D01*
X1477324Y-874174D02*
X1496372Y-864650D01*
X1496372Y-864650D02*
X1524943Y-864650D01*
X1524943Y-864650D02*
X1543991Y-874174D01*
X1543991Y-874174D02*
X1553515Y-893222D01*
X1553515Y-893222D02*
X1553515Y-997984D01*
X1943991Y-788460D02*
X1772563Y-1045603D01*
X2201134Y-797984D02*
X2220182Y-797984D01*
X2220182Y-797984D02*
X2239229Y-807508D01*
X2239229Y-807508D02*
X2248753Y-817031D01*
X2248753Y-817031D02*
X2258277Y-836079D01*
X2258277Y-836079D02*
X2267801Y-874174D01*
X2267801Y-874174D02*
X2267801Y-921793D01*
X2267801Y-921793D02*
X2258277Y-959888D01*
X2258277Y-959888D02*
X2248753Y-978936D01*
X2248753Y-978936D02*
X2239229Y-988460D01*
X2239229Y-988460D02*
X2220182Y-997984D01*
X2220182Y-997984D02*
X2201134Y-997984D01*
X2201134Y-997984D02*
X2182087Y-988460D01*
X2182087Y-988460D02*
X2172563Y-978936D01*
X2172563Y-978936D02*
X2163039Y-959888D01*
X2163039Y-959888D02*
X2153515Y-921793D01*
X2153515Y-921793D02*
X2153515Y-874174D01*
X2153515Y-874174D02*
X2163039Y-836079D01*
X2163039Y-836079D02*
X2172563Y-817031D01*
X2172563Y-817031D02*
X2182087Y-807508D01*
X2182087Y-807508D02*
X2201134Y-797984D01*
X2353515Y-978936D02*
X2363039Y-988460D01*
X2363039Y-988460D02*
X2353515Y-997984D01*
X2353515Y-997984D02*
X2343991Y-988460D01*
X2343991Y-988460D02*
X2353515Y-978936D01*
X2353515Y-978936D02*
X2353515Y-997984D01*
X2486848Y-797984D02*
X2505896Y-797984D01*
X2505896Y-797984D02*
X2524944Y-807508D01*
X2524944Y-807508D02*
X2534468Y-817031D01*
X2534468Y-817031D02*
X2543991Y-836079D01*
X2543991Y-836079D02*
X2553515Y-874174D01*
X2553515Y-874174D02*
X2553515Y-921793D01*
X2553515Y-921793D02*
X2543991Y-959888D01*
X2543991Y-959888D02*
X2534468Y-978936D01*
X2534468Y-978936D02*
X2524944Y-988460D01*
X2524944Y-988460D02*
X2505896Y-997984D01*
X2505896Y-997984D02*
X2486848Y-997984D01*
X2486848Y-997984D02*
X2467801Y-988460D01*
X2467801Y-988460D02*
X2458277Y-978936D01*
X2458277Y-978936D02*
X2448753Y-959888D01*
X2448753Y-959888D02*
X2439229Y-921793D01*
X2439229Y-921793D02*
X2439229Y-874174D01*
X2439229Y-874174D02*
X2448753Y-836079D01*
X2448753Y-836079D02*
X2458277Y-817031D01*
X2458277Y-817031D02*
X2467801Y-807508D01*
X2467801Y-807508D02*
X2486848Y-797984D01*
X2743991Y-997984D02*
X2629706Y-997984D01*
X2686848Y-997984D02*
X2686848Y-797984D01*
X2686848Y-797984D02*
X2667801Y-826555D01*
X2667801Y-826555D02*
X2648753Y-845603D01*
X2648753Y-845603D02*
X2629706Y-855127D01*
X2924944Y-797984D02*
X2829706Y-797984D01*
X2829706Y-797984D02*
X2820182Y-893222D01*
X2820182Y-893222D02*
X2829706Y-883698D01*
X2829706Y-883698D02*
X2848753Y-874174D01*
X2848753Y-874174D02*
X2896372Y-874174D01*
X2896372Y-874174D02*
X2915420Y-883698D01*
X2915420Y-883698D02*
X2924944Y-893222D01*
X2924944Y-893222D02*
X2934467Y-912269D01*
X2934467Y-912269D02*
X2934467Y-959888D01*
X2934467Y-959888D02*
X2924944Y-978936D01*
X2924944Y-978936D02*
X2915420Y-988460D01*
X2915420Y-988460D02*
X2896372Y-997984D01*
X2896372Y-997984D02*
X2848753Y-997984D01*
X2848753Y-997984D02*
X2829706Y-988460D01*
X2829706Y-988460D02*
X2820182Y-978936D01*
X3058277Y-797984D02*
X3077325Y-797984D01*
X3077325Y-797984D02*
X3096372Y-807508D01*
X3096372Y-807508D02*
X3105896Y-817031D01*
X3105896Y-817031D02*
X3115420Y-836079D01*
X3115420Y-836079D02*
X3124944Y-874174D01*
X3124944Y-874174D02*
X3124944Y-921793D01*
X3124944Y-921793D02*
X3115420Y-959888D01*
X3115420Y-959888D02*
X3105896Y-978936D01*
X3105896Y-978936D02*
X3096372Y-988460D01*
X3096372Y-988460D02*
X3077325Y-997984D01*
X3077325Y-997984D02*
X3058277Y-997984D01*
X3058277Y-997984D02*
X3039229Y-988460D01*
X3039229Y-988460D02*
X3029706Y-978936D01*
X3029706Y-978936D02*
X3020182Y-959888D01*
X3020182Y-959888D02*
X3010658Y-921793D01*
X3010658Y-921793D02*
X3010658Y-874174D01*
X3010658Y-874174D02*
X3020182Y-836079D01*
X3020182Y-836079D02*
X3029706Y-817031D01*
X3029706Y-817031D02*
X3039229Y-807508D01*
X3039229Y-807508D02*
X3058277Y-797984D01*
X3201134Y-797984D02*
X3201134Y-836079D01*
X3277325Y-797984D02*
X3277325Y-836079D01*
X3572563Y-1074174D02*
X3563039Y-1064650D01*
X3563039Y-1064650D02*
X3543991Y-1036079D01*
X3543991Y-1036079D02*
X3534468Y-1017031D01*
X3534468Y-1017031D02*
X3524944Y-988460D01*
X3524944Y-988460D02*
X3515420Y-940841D01*
X3515420Y-940841D02*
X3515420Y-902746D01*
X3515420Y-902746D02*
X3524944Y-855127D01*
X3524944Y-855127D02*
X3534468Y-826555D01*
X3534468Y-826555D02*
X3543991Y-807508D01*
X3543991Y-807508D02*
X3563039Y-778936D01*
X3563039Y-778936D02*
X3572563Y-769412D01*
X3734468Y-864650D02*
X3734468Y-997984D01*
X3686848Y-788460D02*
X3639229Y-931317D01*
X3639229Y-931317D02*
X3763039Y-931317D01*
X3991610Y-997984D02*
X3991610Y-797984D01*
X4077325Y-997984D02*
X4077325Y-893222D01*
X4077325Y-893222D02*
X4067801Y-874174D01*
X4067801Y-874174D02*
X4048753Y-864650D01*
X4048753Y-864650D02*
X4020182Y-864650D01*
X4020182Y-864650D02*
X4001134Y-874174D01*
X4001134Y-874174D02*
X3991610Y-883698D01*
X4201134Y-997984D02*
X4182087Y-988460D01*
X4182087Y-988460D02*
X4172563Y-978936D01*
X4172563Y-978936D02*
X4163039Y-959888D01*
X4163039Y-959888D02*
X4163039Y-902746D01*
X4163039Y-902746D02*
X4172563Y-883698D01*
X4172563Y-883698D02*
X4182087Y-874174D01*
X4182087Y-874174D02*
X4201134Y-864650D01*
X4201134Y-864650D02*
X4229706Y-864650D01*
X4229706Y-864650D02*
X4248753Y-874174D01*
X4248753Y-874174D02*
X4258277Y-883698D01*
X4258277Y-883698D02*
X4267801Y-902746D01*
X4267801Y-902746D02*
X4267801Y-959888D01*
X4267801Y-959888D02*
X4258277Y-978936D01*
X4258277Y-978936D02*
X4248753Y-988460D01*
X4248753Y-988460D02*
X4229706Y-997984D01*
X4229706Y-997984D02*
X4201134Y-997984D01*
X4382087Y-997984D02*
X4363039Y-988460D01*
X4363039Y-988460D02*
X4353515Y-969412D01*
X4353515Y-969412D02*
X4353515Y-797984D01*
X4534468Y-988460D02*
X4515420Y-997984D01*
X4515420Y-997984D02*
X4477325Y-997984D01*
X4477325Y-997984D02*
X4458277Y-988460D01*
X4458277Y-988460D02*
X4448753Y-969412D01*
X4448753Y-969412D02*
X4448753Y-893222D01*
X4448753Y-893222D02*
X4458277Y-874174D01*
X4458277Y-874174D02*
X4477325Y-864650D01*
X4477325Y-864650D02*
X4515420Y-864650D01*
X4515420Y-864650D02*
X4534468Y-874174D01*
X4534468Y-874174D02*
X4543992Y-893222D01*
X4543992Y-893222D02*
X4543992Y-912269D01*
X4543992Y-912269D02*
X4448753Y-931317D01*
X4620182Y-988460D02*
X4639230Y-997984D01*
X4639230Y-997984D02*
X4677325Y-997984D01*
X4677325Y-997984D02*
X4696373Y-988460D01*
X4696373Y-988460D02*
X4705896Y-969412D01*
X4705896Y-969412D02*
X4705896Y-959888D01*
X4705896Y-959888D02*
X4696373Y-940841D01*
X4696373Y-940841D02*
X4677325Y-931317D01*
X4677325Y-931317D02*
X4648753Y-931317D01*
X4648753Y-931317D02*
X4629706Y-921793D01*
X4629706Y-921793D02*
X4620182Y-902746D01*
X4620182Y-902746D02*
X4620182Y-893222D01*
X4620182Y-893222D02*
X4629706Y-874174D01*
X4629706Y-874174D02*
X4648753Y-864650D01*
X4648753Y-864650D02*
X4677325Y-864650D01*
X4677325Y-864650D02*
X4696373Y-874174D01*
X4772563Y-1074174D02*
X4782087Y-1064650D01*
X4782087Y-1064650D02*
X4801134Y-1036079D01*
X4801134Y-1036079D02*
X4810658Y-1017031D01*
X4810658Y-1017031D02*
X4820182Y-988460D01*
X4820182Y-988460D02*
X4829706Y-940841D01*
X4829706Y-940841D02*
X4829706Y-902746D01*
X4829706Y-902746D02*
X4820182Y-855127D01*
X4820182Y-855127D02*
X4810658Y-826555D01*
X4810658Y-826555D02*
X4801134Y-807508D01*
X4801134Y-807508D02*
X4782087Y-778936D01*
X4782087Y-778936D02*
X4772563Y-769412D01*
D12*
X-22185Y-1150815D02*
X-22185Y-1190185D01*
X-41870Y-1170500D02*
X-2500Y-1170500D01*
D11*
X296372Y-1061984D02*
X315420Y-1061984D01*
X315420Y-1061984D02*
X334467Y-1071508D01*
X334467Y-1071508D02*
X343991Y-1081031D01*
X343991Y-1081031D02*
X353515Y-1100079D01*
X353515Y-1100079D02*
X363039Y-1138174D01*
X363039Y-1138174D02*
X363039Y-1185793D01*
X363039Y-1185793D02*
X353515Y-1223889D01*
X353515Y-1223889D02*
X343991Y-1242936D01*
X343991Y-1242936D02*
X334467Y-1252460D01*
X334467Y-1252460D02*
X315420Y-1261984D01*
X315420Y-1261984D02*
X296372Y-1261984D01*
X296372Y-1261984D02*
X277324Y-1252460D01*
X277324Y-1252460D02*
X267801Y-1242936D01*
X267801Y-1242936D02*
X258277Y-1223889D01*
X258277Y-1223889D02*
X248753Y-1185793D01*
X248753Y-1185793D02*
X248753Y-1138174D01*
X248753Y-1138174D02*
X258277Y-1100079D01*
X258277Y-1100079D02*
X267801Y-1081031D01*
X267801Y-1081031D02*
X277324Y-1071508D01*
X277324Y-1071508D02*
X296372Y-1061984D01*
X448753Y-1242936D02*
X458277Y-1252460D01*
X458277Y-1252460D02*
X448753Y-1261984D01*
X448753Y-1261984D02*
X439229Y-1252460D01*
X439229Y-1252460D02*
X448753Y-1242936D01*
X448753Y-1242936D02*
X448753Y-1261984D01*
X524944Y-1061984D02*
X648753Y-1061984D01*
X648753Y-1061984D02*
X582086Y-1138174D01*
X582086Y-1138174D02*
X610658Y-1138174D01*
X610658Y-1138174D02*
X629705Y-1147698D01*
X629705Y-1147698D02*
X639229Y-1157222D01*
X639229Y-1157222D02*
X648753Y-1176270D01*
X648753Y-1176270D02*
X648753Y-1223889D01*
X648753Y-1223889D02*
X639229Y-1242936D01*
X639229Y-1242936D02*
X629705Y-1252460D01*
X629705Y-1252460D02*
X610658Y-1261984D01*
X610658Y-1261984D02*
X553515Y-1261984D01*
X553515Y-1261984D02*
X534467Y-1252460D01*
X534467Y-1252460D02*
X524944Y-1242936D01*
X743991Y-1261984D02*
X782086Y-1261984D01*
X782086Y-1261984D02*
X801134Y-1252460D01*
X801134Y-1252460D02*
X810658Y-1242936D01*
X810658Y-1242936D02*
X829705Y-1214365D01*
X829705Y-1214365D02*
X839229Y-1176270D01*
X839229Y-1176270D02*
X839229Y-1100079D01*
X839229Y-1100079D02*
X829705Y-1081031D01*
X829705Y-1081031D02*
X820182Y-1071508D01*
X820182Y-1071508D02*
X801134Y-1061984D01*
X801134Y-1061984D02*
X763039Y-1061984D01*
X763039Y-1061984D02*
X743991Y-1071508D01*
X743991Y-1071508D02*
X734467Y-1081031D01*
X734467Y-1081031D02*
X724943Y-1100079D01*
X724943Y-1100079D02*
X724943Y-1147698D01*
X724943Y-1147698D02*
X734467Y-1166746D01*
X734467Y-1166746D02*
X743991Y-1176270D01*
X743991Y-1176270D02*
X763039Y-1185793D01*
X763039Y-1185793D02*
X801134Y-1185793D01*
X801134Y-1185793D02*
X820182Y-1176270D01*
X820182Y-1176270D02*
X829705Y-1166746D01*
X829705Y-1166746D02*
X839229Y-1147698D01*
X1010658Y-1128650D02*
X1010658Y-1261984D01*
X963039Y-1052460D02*
X915420Y-1195317D01*
X915420Y-1195317D02*
X1039229Y-1195317D01*
X1115420Y-1261984D02*
X1115420Y-1128650D01*
X1115420Y-1147698D02*
X1124944Y-1138174D01*
X1124944Y-1138174D02*
X1143991Y-1128650D01*
X1143991Y-1128650D02*
X1172563Y-1128650D01*
X1172563Y-1128650D02*
X1191610Y-1138174D01*
X1191610Y-1138174D02*
X1201134Y-1157222D01*
X1201134Y-1157222D02*
X1201134Y-1261984D01*
X1201134Y-1157222D02*
X1210658Y-1138174D01*
X1210658Y-1138174D02*
X1229705Y-1128650D01*
X1229705Y-1128650D02*
X1258277Y-1128650D01*
X1258277Y-1128650D02*
X1277325Y-1138174D01*
X1277325Y-1138174D02*
X1286848Y-1157222D01*
X1286848Y-1157222D02*
X1286848Y-1261984D01*
X1382086Y-1261984D02*
X1382086Y-1128650D01*
X1382086Y-1147698D02*
X1391610Y-1138174D01*
X1391610Y-1138174D02*
X1410658Y-1128650D01*
X1410658Y-1128650D02*
X1439229Y-1128650D01*
X1439229Y-1128650D02*
X1458277Y-1138174D01*
X1458277Y-1138174D02*
X1467801Y-1157222D01*
X1467801Y-1157222D02*
X1467801Y-1261984D01*
X1467801Y-1157222D02*
X1477324Y-1138174D01*
X1477324Y-1138174D02*
X1496372Y-1128650D01*
X1496372Y-1128650D02*
X1524943Y-1128650D01*
X1524943Y-1128650D02*
X1543991Y-1138174D01*
X1543991Y-1138174D02*
X1553515Y-1157222D01*
X1553515Y-1157222D02*
X1553515Y-1261984D01*
X1943991Y-1052460D02*
X1772563Y-1309603D01*
X2201134Y-1061984D02*
X2220182Y-1061984D01*
X2220182Y-1061984D02*
X2239229Y-1071508D01*
X2239229Y-1071508D02*
X2248753Y-1081031D01*
X2248753Y-1081031D02*
X2258277Y-1100079D01*
X2258277Y-1100079D02*
X2267801Y-1138174D01*
X2267801Y-1138174D02*
X2267801Y-1185793D01*
X2267801Y-1185793D02*
X2258277Y-1223889D01*
X2258277Y-1223889D02*
X2248753Y-1242936D01*
X2248753Y-1242936D02*
X2239229Y-1252460D01*
X2239229Y-1252460D02*
X2220182Y-1261984D01*
X2220182Y-1261984D02*
X2201134Y-1261984D01*
X2201134Y-1261984D02*
X2182087Y-1252460D01*
X2182087Y-1252460D02*
X2172563Y-1242936D01*
X2172563Y-1242936D02*
X2163039Y-1223889D01*
X2163039Y-1223889D02*
X2153515Y-1185793D01*
X2153515Y-1185793D02*
X2153515Y-1138174D01*
X2153515Y-1138174D02*
X2163039Y-1100079D01*
X2163039Y-1100079D02*
X2172563Y-1081031D01*
X2172563Y-1081031D02*
X2182087Y-1071508D01*
X2182087Y-1071508D02*
X2201134Y-1061984D01*
X2353515Y-1242936D02*
X2363039Y-1252460D01*
X2363039Y-1252460D02*
X2353515Y-1261984D01*
X2353515Y-1261984D02*
X2343991Y-1252460D01*
X2343991Y-1252460D02*
X2353515Y-1242936D01*
X2353515Y-1242936D02*
X2353515Y-1261984D01*
X2486848Y-1061984D02*
X2505896Y-1061984D01*
X2505896Y-1061984D02*
X2524944Y-1071508D01*
X2524944Y-1071508D02*
X2534468Y-1081031D01*
X2534468Y-1081031D02*
X2543991Y-1100079D01*
X2543991Y-1100079D02*
X2553515Y-1138174D01*
X2553515Y-1138174D02*
X2553515Y-1185793D01*
X2553515Y-1185793D02*
X2543991Y-1223889D01*
X2543991Y-1223889D02*
X2534468Y-1242936D01*
X2534468Y-1242936D02*
X2524944Y-1252460D01*
X2524944Y-1252460D02*
X2505896Y-1261984D01*
X2505896Y-1261984D02*
X2486848Y-1261984D01*
X2486848Y-1261984D02*
X2467801Y-1252460D01*
X2467801Y-1252460D02*
X2458277Y-1242936D01*
X2458277Y-1242936D02*
X2448753Y-1223889D01*
X2448753Y-1223889D02*
X2439229Y-1185793D01*
X2439229Y-1185793D02*
X2439229Y-1138174D01*
X2439229Y-1138174D02*
X2448753Y-1100079D01*
X2448753Y-1100079D02*
X2458277Y-1081031D01*
X2458277Y-1081031D02*
X2467801Y-1071508D01*
X2467801Y-1071508D02*
X2486848Y-1061984D01*
X2743991Y-1261984D02*
X2629706Y-1261984D01*
X2686848Y-1261984D02*
X2686848Y-1061984D01*
X2686848Y-1061984D02*
X2667801Y-1090555D01*
X2667801Y-1090555D02*
X2648753Y-1109603D01*
X2648753Y-1109603D02*
X2629706Y-1119127D01*
X2924944Y-1061984D02*
X2829706Y-1061984D01*
X2829706Y-1061984D02*
X2820182Y-1157222D01*
X2820182Y-1157222D02*
X2829706Y-1147698D01*
X2829706Y-1147698D02*
X2848753Y-1138174D01*
X2848753Y-1138174D02*
X2896372Y-1138174D01*
X2896372Y-1138174D02*
X2915420Y-1147698D01*
X2915420Y-1147698D02*
X2924944Y-1157222D01*
X2924944Y-1157222D02*
X2934467Y-1176270D01*
X2934467Y-1176270D02*
X2934467Y-1223889D01*
X2934467Y-1223889D02*
X2924944Y-1242936D01*
X2924944Y-1242936D02*
X2915420Y-1252460D01*
X2915420Y-1252460D02*
X2896372Y-1261984D01*
X2896372Y-1261984D02*
X2848753Y-1261984D01*
X2848753Y-1261984D02*
X2829706Y-1252460D01*
X2829706Y-1252460D02*
X2820182Y-1242936D01*
X3115420Y-1061984D02*
X3020182Y-1061984D01*
X3020182Y-1061984D02*
X3010658Y-1157222D01*
X3010658Y-1157222D02*
X3020182Y-1147698D01*
X3020182Y-1147698D02*
X3039229Y-1138174D01*
X3039229Y-1138174D02*
X3086848Y-1138174D01*
X3086848Y-1138174D02*
X3105896Y-1147698D01*
X3105896Y-1147698D02*
X3115420Y-1157222D01*
X3115420Y-1157222D02*
X3124944Y-1176270D01*
X3124944Y-1176270D02*
X3124944Y-1223889D01*
X3124944Y-1223889D02*
X3115420Y-1242936D01*
X3115420Y-1242936D02*
X3105896Y-1252460D01*
X3105896Y-1252460D02*
X3086848Y-1261984D01*
X3086848Y-1261984D02*
X3039229Y-1261984D01*
X3039229Y-1261984D02*
X3020182Y-1252460D01*
X3020182Y-1252460D02*
X3010658Y-1242936D01*
X3201134Y-1061984D02*
X3201134Y-1100079D01*
X3277325Y-1061984D02*
X3277325Y-1100079D01*
X3572563Y-1338174D02*
X3563039Y-1328650D01*
X3563039Y-1328650D02*
X3543991Y-1300079D01*
X3543991Y-1300079D02*
X3534468Y-1281031D01*
X3534468Y-1281031D02*
X3524944Y-1252460D01*
X3524944Y-1252460D02*
X3515420Y-1204841D01*
X3515420Y-1204841D02*
X3515420Y-1166746D01*
X3515420Y-1166746D02*
X3524944Y-1119127D01*
X3524944Y-1119127D02*
X3534468Y-1090555D01*
X3534468Y-1090555D02*
X3543991Y-1071508D01*
X3543991Y-1071508D02*
X3563039Y-1042936D01*
X3563039Y-1042936D02*
X3572563Y-1033412D01*
X3734468Y-1128650D02*
X3734468Y-1261984D01*
X3686848Y-1052460D02*
X3639229Y-1195317D01*
X3639229Y-1195317D02*
X3763039Y-1195317D01*
X3991610Y-1261984D02*
X3991610Y-1061984D01*
X4077325Y-1261984D02*
X4077325Y-1157222D01*
X4077325Y-1157222D02*
X4067801Y-1138174D01*
X4067801Y-1138174D02*
X4048753Y-1128650D01*
X4048753Y-1128650D02*
X4020182Y-1128650D01*
X4020182Y-1128650D02*
X4001134Y-1138174D01*
X4001134Y-1138174D02*
X3991610Y-1147698D01*
X4201134Y-1261984D02*
X4182087Y-1252460D01*
X4182087Y-1252460D02*
X4172563Y-1242936D01*
X4172563Y-1242936D02*
X4163039Y-1223889D01*
X4163039Y-1223889D02*
X4163039Y-1166746D01*
X4163039Y-1166746D02*
X4172563Y-1147698D01*
X4172563Y-1147698D02*
X4182087Y-1138174D01*
X4182087Y-1138174D02*
X4201134Y-1128650D01*
X4201134Y-1128650D02*
X4229706Y-1128650D01*
X4229706Y-1128650D02*
X4248753Y-1138174D01*
X4248753Y-1138174D02*
X4258277Y-1147698D01*
X4258277Y-1147698D02*
X4267801Y-1166746D01*
X4267801Y-1166746D02*
X4267801Y-1223889D01*
X4267801Y-1223889D02*
X4258277Y-1242936D01*
X4258277Y-1242936D02*
X4248753Y-1252460D01*
X4248753Y-1252460D02*
X4229706Y-1261984D01*
X4229706Y-1261984D02*
X4201134Y-1261984D01*
X4382087Y-1261984D02*
X4363039Y-1252460D01*
X4363039Y-1252460D02*
X4353515Y-1233412D01*
X4353515Y-1233412D02*
X4353515Y-1061984D01*
X4534468Y-1252460D02*
X4515420Y-1261984D01*
X4515420Y-1261984D02*
X4477325Y-1261984D01*
X4477325Y-1261984D02*
X4458277Y-1252460D01*
X4458277Y-1252460D02*
X4448753Y-1233412D01*
X4448753Y-1233412D02*
X4448753Y-1157222D01*
X4448753Y-1157222D02*
X4458277Y-1138174D01*
X4458277Y-1138174D02*
X4477325Y-1128650D01*
X4477325Y-1128650D02*
X4515420Y-1128650D01*
X4515420Y-1128650D02*
X4534468Y-1138174D01*
X4534468Y-1138174D02*
X4543992Y-1157222D01*
X4543992Y-1157222D02*
X4543992Y-1176270D01*
X4543992Y-1176270D02*
X4448753Y-1195317D01*
X4620182Y-1252460D02*
X4639230Y-1261984D01*
X4639230Y-1261984D02*
X4677325Y-1261984D01*
X4677325Y-1261984D02*
X4696373Y-1252460D01*
X4696373Y-1252460D02*
X4705896Y-1233412D01*
X4705896Y-1233412D02*
X4705896Y-1223889D01*
X4705896Y-1223889D02*
X4696373Y-1204841D01*
X4696373Y-1204841D02*
X4677325Y-1195317D01*
X4677325Y-1195317D02*
X4648753Y-1195317D01*
X4648753Y-1195317D02*
X4629706Y-1185793D01*
X4629706Y-1185793D02*
X4620182Y-1166746D01*
X4620182Y-1166746D02*
X4620182Y-1157222D01*
X4620182Y-1157222D02*
X4629706Y-1138174D01*
X4629706Y-1138174D02*
X4648753Y-1128650D01*
X4648753Y-1128650D02*
X4677325Y-1128650D01*
X4677325Y-1128650D02*
X4696373Y-1138174D01*
X4772563Y-1338174D02*
X4782087Y-1328650D01*
X4782087Y-1328650D02*
X4801134Y-1300079D01*
X4801134Y-1300079D02*
X4810658Y-1281031D01*
X4810658Y-1281031D02*
X4820182Y-1252460D01*
X4820182Y-1252460D02*
X4829706Y-1204841D01*
X4829706Y-1204841D02*
X4829706Y-1166746D01*
X4829706Y-1166746D02*
X4820182Y-1119127D01*
X4820182Y-1119127D02*
X4810658Y-1090555D01*
X4810658Y-1090555D02*
X4801134Y-1071508D01*
X4801134Y-1071508D02*
X4782087Y-1042936D01*
X4782087Y-1042936D02*
X4772563Y-1033412D01*
D12*
X-8358Y-1448642D02*
X-8358Y-1420358D01*
X-36642Y-1420358D01*
X-36642Y-1448642D01*
X-8358Y-1448642D01*
D11*
X296372Y-1325984D02*
X315420Y-1325984D01*
X315420Y-1325984D02*
X334467Y-1335508D01*
X334467Y-1335508D02*
X343991Y-1345031D01*
X343991Y-1345031D02*
X353515Y-1364079D01*
X353515Y-1364079D02*
X363039Y-1402174D01*
X363039Y-1402174D02*
X363039Y-1449793D01*
X363039Y-1449793D02*
X353515Y-1487888D01*
X353515Y-1487888D02*
X343991Y-1506936D01*
X343991Y-1506936D02*
X334467Y-1516460D01*
X334467Y-1516460D02*
X315420Y-1525984D01*
X315420Y-1525984D02*
X296372Y-1525984D01*
X296372Y-1525984D02*
X277324Y-1516460D01*
X277324Y-1516460D02*
X267801Y-1506936D01*
X267801Y-1506936D02*
X258277Y-1487888D01*
X258277Y-1487888D02*
X248753Y-1449793D01*
X248753Y-1449793D02*
X248753Y-1402174D01*
X248753Y-1402174D02*
X258277Y-1364079D01*
X258277Y-1364079D02*
X267801Y-1345031D01*
X267801Y-1345031D02*
X277324Y-1335508D01*
X277324Y-1335508D02*
X296372Y-1325984D01*
X448753Y-1506936D02*
X458277Y-1516460D01*
X458277Y-1516460D02*
X448753Y-1525984D01*
X448753Y-1525984D02*
X439229Y-1516460D01*
X439229Y-1516460D02*
X448753Y-1506936D01*
X448753Y-1506936D02*
X448753Y-1525984D01*
X629705Y-1392650D02*
X629705Y-1525984D01*
X582086Y-1316460D02*
X534467Y-1459317D01*
X534467Y-1459317D02*
X658277Y-1459317D01*
X772562Y-1325984D02*
X791610Y-1325984D01*
X791610Y-1325984D02*
X810658Y-1335508D01*
X810658Y-1335508D02*
X820182Y-1345031D01*
X820182Y-1345031D02*
X829705Y-1364079D01*
X829705Y-1364079D02*
X839229Y-1402174D01*
X839229Y-1402174D02*
X839229Y-1449793D01*
X839229Y-1449793D02*
X829705Y-1487888D01*
X829705Y-1487888D02*
X820182Y-1506936D01*
X820182Y-1506936D02*
X810658Y-1516460D01*
X810658Y-1516460D02*
X791610Y-1525984D01*
X791610Y-1525984D02*
X772562Y-1525984D01*
X772562Y-1525984D02*
X753515Y-1516460D01*
X753515Y-1516460D02*
X743991Y-1506936D01*
X743991Y-1506936D02*
X734467Y-1487888D01*
X734467Y-1487888D02*
X724943Y-1449793D01*
X724943Y-1449793D02*
X724943Y-1402174D01*
X724943Y-1402174D02*
X734467Y-1364079D01*
X734467Y-1364079D02*
X743991Y-1345031D01*
X743991Y-1345031D02*
X753515Y-1335508D01*
X753515Y-1335508D02*
X772562Y-1325984D01*
X963039Y-1325984D02*
X982086Y-1325984D01*
X982086Y-1325984D02*
X1001134Y-1335508D01*
X1001134Y-1335508D02*
X1010658Y-1345031D01*
X1010658Y-1345031D02*
X1020182Y-1364079D01*
X1020182Y-1364079D02*
X1029705Y-1402174D01*
X1029705Y-1402174D02*
X1029705Y-1449793D01*
X1029705Y-1449793D02*
X1020182Y-1487888D01*
X1020182Y-1487888D02*
X1010658Y-1506936D01*
X1010658Y-1506936D02*
X1001134Y-1516460D01*
X1001134Y-1516460D02*
X982086Y-1525984D01*
X982086Y-1525984D02*
X963039Y-1525984D01*
X963039Y-1525984D02*
X943991Y-1516460D01*
X943991Y-1516460D02*
X934467Y-1506936D01*
X934467Y-1506936D02*
X924943Y-1487888D01*
X924943Y-1487888D02*
X915420Y-1449793D01*
X915420Y-1449793D02*
X915420Y-1402174D01*
X915420Y-1402174D02*
X924943Y-1364079D01*
X924943Y-1364079D02*
X934467Y-1345031D01*
X934467Y-1345031D02*
X943991Y-1335508D01*
X943991Y-1335508D02*
X963039Y-1325984D01*
X1115420Y-1525984D02*
X1115420Y-1392650D01*
X1115420Y-1411698D02*
X1124944Y-1402174D01*
X1124944Y-1402174D02*
X1143991Y-1392650D01*
X1143991Y-1392650D02*
X1172563Y-1392650D01*
X1172563Y-1392650D02*
X1191610Y-1402174D01*
X1191610Y-1402174D02*
X1201134Y-1421222D01*
X1201134Y-1421222D02*
X1201134Y-1525984D01*
X1201134Y-1421222D02*
X1210658Y-1402174D01*
X1210658Y-1402174D02*
X1229705Y-1392650D01*
X1229705Y-1392650D02*
X1258277Y-1392650D01*
X1258277Y-1392650D02*
X1277325Y-1402174D01*
X1277325Y-1402174D02*
X1286848Y-1421222D01*
X1286848Y-1421222D02*
X1286848Y-1525984D01*
X1382086Y-1525984D02*
X1382086Y-1392650D01*
X1382086Y-1411698D02*
X1391610Y-1402174D01*
X1391610Y-1402174D02*
X1410658Y-1392650D01*
X1410658Y-1392650D02*
X1439229Y-1392650D01*
X1439229Y-1392650D02*
X1458277Y-1402174D01*
X1458277Y-1402174D02*
X1467801Y-1421222D01*
X1467801Y-1421222D02*
X1467801Y-1525984D01*
X1467801Y-1421222D02*
X1477324Y-1402174D01*
X1477324Y-1402174D02*
X1496372Y-1392650D01*
X1496372Y-1392650D02*
X1524943Y-1392650D01*
X1524943Y-1392650D02*
X1543991Y-1402174D01*
X1543991Y-1402174D02*
X1553515Y-1421222D01*
X1553515Y-1421222D02*
X1553515Y-1525984D01*
X1943991Y-1316460D02*
X1772563Y-1573603D01*
X2201134Y-1325984D02*
X2220182Y-1325984D01*
X2220182Y-1325984D02*
X2239229Y-1335508D01*
X2239229Y-1335508D02*
X2248753Y-1345031D01*
X2248753Y-1345031D02*
X2258277Y-1364079D01*
X2258277Y-1364079D02*
X2267801Y-1402174D01*
X2267801Y-1402174D02*
X2267801Y-1449793D01*
X2267801Y-1449793D02*
X2258277Y-1487888D01*
X2258277Y-1487888D02*
X2248753Y-1506936D01*
X2248753Y-1506936D02*
X2239229Y-1516460D01*
X2239229Y-1516460D02*
X2220182Y-1525984D01*
X2220182Y-1525984D02*
X2201134Y-1525984D01*
X2201134Y-1525984D02*
X2182087Y-1516460D01*
X2182087Y-1516460D02*
X2172563Y-1506936D01*
X2172563Y-1506936D02*
X2163039Y-1487888D01*
X2163039Y-1487888D02*
X2153515Y-1449793D01*
X2153515Y-1449793D02*
X2153515Y-1402174D01*
X2153515Y-1402174D02*
X2163039Y-1364079D01*
X2163039Y-1364079D02*
X2172563Y-1345031D01*
X2172563Y-1345031D02*
X2182087Y-1335508D01*
X2182087Y-1335508D02*
X2201134Y-1325984D01*
X2353515Y-1506936D02*
X2363039Y-1516460D01*
X2363039Y-1516460D02*
X2353515Y-1525984D01*
X2353515Y-1525984D02*
X2343991Y-1516460D01*
X2343991Y-1516460D02*
X2353515Y-1506936D01*
X2353515Y-1506936D02*
X2353515Y-1525984D01*
X2486848Y-1325984D02*
X2505896Y-1325984D01*
X2505896Y-1325984D02*
X2524944Y-1335508D01*
X2524944Y-1335508D02*
X2534468Y-1345031D01*
X2534468Y-1345031D02*
X2543991Y-1364079D01*
X2543991Y-1364079D02*
X2553515Y-1402174D01*
X2553515Y-1402174D02*
X2553515Y-1449793D01*
X2553515Y-1449793D02*
X2543991Y-1487888D01*
X2543991Y-1487888D02*
X2534468Y-1506936D01*
X2534468Y-1506936D02*
X2524944Y-1516460D01*
X2524944Y-1516460D02*
X2505896Y-1525984D01*
X2505896Y-1525984D02*
X2486848Y-1525984D01*
X2486848Y-1525984D02*
X2467801Y-1516460D01*
X2467801Y-1516460D02*
X2458277Y-1506936D01*
X2458277Y-1506936D02*
X2448753Y-1487888D01*
X2448753Y-1487888D02*
X2439229Y-1449793D01*
X2439229Y-1449793D02*
X2439229Y-1402174D01*
X2439229Y-1402174D02*
X2448753Y-1364079D01*
X2448753Y-1364079D02*
X2458277Y-1345031D01*
X2458277Y-1345031D02*
X2467801Y-1335508D01*
X2467801Y-1335508D02*
X2486848Y-1325984D01*
X2743991Y-1525984D02*
X2629706Y-1525984D01*
X2686848Y-1525984D02*
X2686848Y-1325984D01*
X2686848Y-1325984D02*
X2667801Y-1354555D01*
X2667801Y-1354555D02*
X2648753Y-1373603D01*
X2648753Y-1373603D02*
X2629706Y-1383127D01*
X2924944Y-1325984D02*
X2829706Y-1325984D01*
X2829706Y-1325984D02*
X2820182Y-1421222D01*
X2820182Y-1421222D02*
X2829706Y-1411698D01*
X2829706Y-1411698D02*
X2848753Y-1402174D01*
X2848753Y-1402174D02*
X2896372Y-1402174D01*
X2896372Y-1402174D02*
X2915420Y-1411698D01*
X2915420Y-1411698D02*
X2924944Y-1421222D01*
X2924944Y-1421222D02*
X2934467Y-1440269D01*
X2934467Y-1440269D02*
X2934467Y-1487888D01*
X2934467Y-1487888D02*
X2924944Y-1506936D01*
X2924944Y-1506936D02*
X2915420Y-1516460D01*
X2915420Y-1516460D02*
X2896372Y-1525984D01*
X2896372Y-1525984D02*
X2848753Y-1525984D01*
X2848753Y-1525984D02*
X2829706Y-1516460D01*
X2829706Y-1516460D02*
X2820182Y-1506936D01*
X3001134Y-1325984D02*
X3134467Y-1325984D01*
X3134467Y-1325984D02*
X3048753Y-1525984D01*
X3201134Y-1325984D02*
X3201134Y-1364079D01*
X3277325Y-1325984D02*
X3277325Y-1364079D01*
X3572563Y-1602174D02*
X3563039Y-1592650D01*
X3563039Y-1592650D02*
X3543991Y-1564079D01*
X3543991Y-1564079D02*
X3534468Y-1545031D01*
X3534468Y-1545031D02*
X3524944Y-1516460D01*
X3524944Y-1516460D02*
X3515420Y-1468841D01*
X3515420Y-1468841D02*
X3515420Y-1430746D01*
X3515420Y-1430746D02*
X3524944Y-1383127D01*
X3524944Y-1383127D02*
X3534468Y-1354555D01*
X3534468Y-1354555D02*
X3543991Y-1335508D01*
X3543991Y-1335508D02*
X3563039Y-1306936D01*
X3563039Y-1306936D02*
X3572563Y-1297412D01*
X3734468Y-1392650D02*
X3734468Y-1525984D01*
X3686848Y-1316460D02*
X3639229Y-1459317D01*
X3639229Y-1459317D02*
X3763039Y-1459317D01*
X3867801Y-1411698D02*
X3848753Y-1402174D01*
X3848753Y-1402174D02*
X3839229Y-1392650D01*
X3839229Y-1392650D02*
X3829706Y-1373603D01*
X3829706Y-1373603D02*
X3829706Y-1364079D01*
X3829706Y-1364079D02*
X3839229Y-1345031D01*
X3839229Y-1345031D02*
X3848753Y-1335508D01*
X3848753Y-1335508D02*
X3867801Y-1325984D01*
X3867801Y-1325984D02*
X3905896Y-1325984D01*
X3905896Y-1325984D02*
X3924944Y-1335508D01*
X3924944Y-1335508D02*
X3934468Y-1345031D01*
X3934468Y-1345031D02*
X3943991Y-1364079D01*
X3943991Y-1364079D02*
X3943991Y-1373603D01*
X3943991Y-1373603D02*
X3934468Y-1392650D01*
X3934468Y-1392650D02*
X3924944Y-1402174D01*
X3924944Y-1402174D02*
X3905896Y-1411698D01*
X3905896Y-1411698D02*
X3867801Y-1411698D01*
X3867801Y-1411698D02*
X3848753Y-1421222D01*
X3848753Y-1421222D02*
X3839229Y-1430746D01*
X3839229Y-1430746D02*
X3829706Y-1449793D01*
X3829706Y-1449793D02*
X3829706Y-1487888D01*
X3829706Y-1487888D02*
X3839229Y-1506936D01*
X3839229Y-1506936D02*
X3848753Y-1516460D01*
X3848753Y-1516460D02*
X3867801Y-1525984D01*
X3867801Y-1525984D02*
X3905896Y-1525984D01*
X3905896Y-1525984D02*
X3924944Y-1516460D01*
X3924944Y-1516460D02*
X3934468Y-1506936D01*
X3934468Y-1506936D02*
X3943991Y-1487888D01*
X3943991Y-1487888D02*
X3943991Y-1449793D01*
X3943991Y-1449793D02*
X3934468Y-1430746D01*
X3934468Y-1430746D02*
X3924944Y-1421222D01*
X3924944Y-1421222D02*
X3905896Y-1411698D01*
X4182087Y-1525984D02*
X4182087Y-1325984D01*
X4267801Y-1525984D02*
X4267801Y-1421222D01*
X4267801Y-1421222D02*
X4258277Y-1402174D01*
X4258277Y-1402174D02*
X4239230Y-1392650D01*
X4239230Y-1392650D02*
X4210658Y-1392650D01*
X4210658Y-1392650D02*
X4191610Y-1402174D01*
X4191610Y-1402174D02*
X4182087Y-1411698D01*
X4391611Y-1525984D02*
X4372563Y-1516460D01*
X4372563Y-1516460D02*
X4363039Y-1506936D01*
X4363039Y-1506936D02*
X4353515Y-1487888D01*
X4353515Y-1487888D02*
X4353515Y-1430746D01*
X4353515Y-1430746D02*
X4363039Y-1411698D01*
X4363039Y-1411698D02*
X4372563Y-1402174D01*
X4372563Y-1402174D02*
X4391611Y-1392650D01*
X4391611Y-1392650D02*
X4420182Y-1392650D01*
X4420182Y-1392650D02*
X4439230Y-1402174D01*
X4439230Y-1402174D02*
X4448753Y-1411698D01*
X4448753Y-1411698D02*
X4458277Y-1430746D01*
X4458277Y-1430746D02*
X4458277Y-1487888D01*
X4458277Y-1487888D02*
X4448753Y-1506936D01*
X4448753Y-1506936D02*
X4439230Y-1516460D01*
X4439230Y-1516460D02*
X4420182Y-1525984D01*
X4420182Y-1525984D02*
X4391611Y-1525984D01*
X4572563Y-1525984D02*
X4553515Y-1516460D01*
X4553515Y-1516460D02*
X4543992Y-1497412D01*
X4543992Y-1497412D02*
X4543992Y-1325984D01*
X4724944Y-1516460D02*
X4705896Y-1525984D01*
X4705896Y-1525984D02*
X4667801Y-1525984D01*
X4667801Y-1525984D02*
X4648753Y-1516460D01*
X4648753Y-1516460D02*
X4639230Y-1497412D01*
X4639230Y-1497412D02*
X4639230Y-1421222D01*
X4639230Y-1421222D02*
X4648753Y-1402174D01*
X4648753Y-1402174D02*
X4667801Y-1392650D01*
X4667801Y-1392650D02*
X4705896Y-1392650D01*
X4705896Y-1392650D02*
X4724944Y-1402174D01*
X4724944Y-1402174D02*
X4734468Y-1421222D01*
X4734468Y-1421222D02*
X4734468Y-1440269D01*
X4734468Y-1440269D02*
X4639230Y-1459317D01*
X4810658Y-1516460D02*
X4829706Y-1525984D01*
X4829706Y-1525984D02*
X4867801Y-1525984D01*
X4867801Y-1525984D02*
X4886849Y-1516460D01*
X4886849Y-1516460D02*
X4896373Y-1497412D01*
X4896373Y-1497412D02*
X4896373Y-1487888D01*
X4896373Y-1487888D02*
X4886849Y-1468841D01*
X4886849Y-1468841D02*
X4867801Y-1459317D01*
X4867801Y-1459317D02*
X4839230Y-1459317D01*
X4839230Y-1459317D02*
X4820182Y-1449793D01*
X4820182Y-1449793D02*
X4810658Y-1430746D01*
X4810658Y-1430746D02*
X4810658Y-1421222D01*
X4810658Y-1421222D02*
X4820182Y-1402174D01*
X4820182Y-1402174D02*
X4839230Y-1392650D01*
X4839230Y-1392650D02*
X4867801Y-1392650D01*
X4867801Y-1392650D02*
X4886849Y-1402174D01*
X4963039Y-1602174D02*
X4972563Y-1592650D01*
X4972563Y-1592650D02*
X4991611Y-1564079D01*
X4991611Y-1564079D02*
X5001134Y-1545031D01*
X5001134Y-1545031D02*
X5010658Y-1516460D01*
X5010658Y-1516460D02*
X5020182Y-1468841D01*
X5020182Y-1468841D02*
X5020182Y-1430746D01*
X5020182Y-1430746D02*
X5010658Y-1383127D01*
X5010658Y-1383127D02*
X5001134Y-1354555D01*
X5001134Y-1354555D02*
X4991611Y-1335508D01*
X4991611Y-1335508D02*
X4972563Y-1306936D01*
X4972563Y-1306936D02*
X4963039Y-1297412D01*
D12*
X-26630Y-1722630D02*
X-2500Y-1698500D01*
X-26630Y-1674370D01*
X-50760Y-1698500D01*
X-26630Y-1722630D01*
D11*
X296372Y-1589984D02*
X315420Y-1589984D01*
X315420Y-1589984D02*
X334467Y-1599508D01*
X334467Y-1599508D02*
X343991Y-1609031D01*
X343991Y-1609031D02*
X353515Y-1628079D01*
X353515Y-1628079D02*
X363039Y-1666174D01*
X363039Y-1666174D02*
X363039Y-1713793D01*
X363039Y-1713793D02*
X353515Y-1751888D01*
X353515Y-1751888D02*
X343991Y-1770936D01*
X343991Y-1770936D02*
X334467Y-1780460D01*
X334467Y-1780460D02*
X315420Y-1789984D01*
X315420Y-1789984D02*
X296372Y-1789984D01*
X296372Y-1789984D02*
X277324Y-1780460D01*
X277324Y-1780460D02*
X267801Y-1770936D01*
X267801Y-1770936D02*
X258277Y-1751888D01*
X258277Y-1751888D02*
X248753Y-1713793D01*
X248753Y-1713793D02*
X248753Y-1666174D01*
X248753Y-1666174D02*
X258277Y-1628079D01*
X258277Y-1628079D02*
X267801Y-1609031D01*
X267801Y-1609031D02*
X277324Y-1599508D01*
X277324Y-1599508D02*
X296372Y-1589984D01*
X448753Y-1770936D02*
X458277Y-1780460D01*
X458277Y-1780460D02*
X448753Y-1789984D01*
X448753Y-1789984D02*
X439229Y-1780460D01*
X439229Y-1780460D02*
X448753Y-1770936D01*
X448753Y-1770936D02*
X448753Y-1789984D01*
X629705Y-1656650D02*
X629705Y-1789984D01*
X582086Y-1580460D02*
X534467Y-1723317D01*
X534467Y-1723317D02*
X658277Y-1723317D01*
X763039Y-1675698D02*
X743991Y-1666174D01*
X743991Y-1666174D02*
X734467Y-1656650D01*
X734467Y-1656650D02*
X724943Y-1637603D01*
X724943Y-1637603D02*
X724943Y-1628079D01*
X724943Y-1628079D02*
X734467Y-1609031D01*
X734467Y-1609031D02*
X743991Y-1599508D01*
X743991Y-1599508D02*
X763039Y-1589984D01*
X763039Y-1589984D02*
X801134Y-1589984D01*
X801134Y-1589984D02*
X820182Y-1599508D01*
X820182Y-1599508D02*
X829705Y-1609031D01*
X829705Y-1609031D02*
X839229Y-1628079D01*
X839229Y-1628079D02*
X839229Y-1637603D01*
X839229Y-1637603D02*
X829705Y-1656650D01*
X829705Y-1656650D02*
X820182Y-1666174D01*
X820182Y-1666174D02*
X801134Y-1675698D01*
X801134Y-1675698D02*
X763039Y-1675698D01*
X763039Y-1675698D02*
X743991Y-1685222D01*
X743991Y-1685222D02*
X734467Y-1694746D01*
X734467Y-1694746D02*
X724943Y-1713793D01*
X724943Y-1713793D02*
X724943Y-1751888D01*
X724943Y-1751888D02*
X734467Y-1770936D01*
X734467Y-1770936D02*
X743991Y-1780460D01*
X743991Y-1780460D02*
X763039Y-1789984D01*
X763039Y-1789984D02*
X801134Y-1789984D01*
X801134Y-1789984D02*
X820182Y-1780460D01*
X820182Y-1780460D02*
X829705Y-1770936D01*
X829705Y-1770936D02*
X839229Y-1751888D01*
X839229Y-1751888D02*
X839229Y-1713793D01*
X839229Y-1713793D02*
X829705Y-1694746D01*
X829705Y-1694746D02*
X820182Y-1685222D01*
X820182Y-1685222D02*
X801134Y-1675698D01*
X905896Y-1589984D02*
X1029705Y-1589984D01*
X1029705Y-1589984D02*
X963039Y-1666174D01*
X963039Y-1666174D02*
X991610Y-1666174D01*
X991610Y-1666174D02*
X1010658Y-1675698D01*
X1010658Y-1675698D02*
X1020182Y-1685222D01*
X1020182Y-1685222D02*
X1029705Y-1704269D01*
X1029705Y-1704269D02*
X1029705Y-1751888D01*
X1029705Y-1751888D02*
X1020182Y-1770936D01*
X1020182Y-1770936D02*
X1010658Y-1780460D01*
X1010658Y-1780460D02*
X991610Y-1789984D01*
X991610Y-1789984D02*
X934467Y-1789984D01*
X934467Y-1789984D02*
X915420Y-1780460D01*
X915420Y-1780460D02*
X905896Y-1770936D01*
X1115420Y-1789984D02*
X1115420Y-1656650D01*
X1115420Y-1675698D02*
X1124944Y-1666174D01*
X1124944Y-1666174D02*
X1143991Y-1656650D01*
X1143991Y-1656650D02*
X1172563Y-1656650D01*
X1172563Y-1656650D02*
X1191610Y-1666174D01*
X1191610Y-1666174D02*
X1201134Y-1685222D01*
X1201134Y-1685222D02*
X1201134Y-1789984D01*
X1201134Y-1685222D02*
X1210658Y-1666174D01*
X1210658Y-1666174D02*
X1229705Y-1656650D01*
X1229705Y-1656650D02*
X1258277Y-1656650D01*
X1258277Y-1656650D02*
X1277325Y-1666174D01*
X1277325Y-1666174D02*
X1286848Y-1685222D01*
X1286848Y-1685222D02*
X1286848Y-1789984D01*
X1382086Y-1789984D02*
X1382086Y-1656650D01*
X1382086Y-1675698D02*
X1391610Y-1666174D01*
X1391610Y-1666174D02*
X1410658Y-1656650D01*
X1410658Y-1656650D02*
X1439229Y-1656650D01*
X1439229Y-1656650D02*
X1458277Y-1666174D01*
X1458277Y-1666174D02*
X1467801Y-1685222D01*
X1467801Y-1685222D02*
X1467801Y-1789984D01*
X1467801Y-1685222D02*
X1477324Y-1666174D01*
X1477324Y-1666174D02*
X1496372Y-1656650D01*
X1496372Y-1656650D02*
X1524943Y-1656650D01*
X1524943Y-1656650D02*
X1543991Y-1666174D01*
X1543991Y-1666174D02*
X1553515Y-1685222D01*
X1553515Y-1685222D02*
X1553515Y-1789984D01*
X1943991Y-1580460D02*
X1772563Y-1837603D01*
X2201134Y-1589984D02*
X2220182Y-1589984D01*
X2220182Y-1589984D02*
X2239229Y-1599508D01*
X2239229Y-1599508D02*
X2248753Y-1609031D01*
X2248753Y-1609031D02*
X2258277Y-1628079D01*
X2258277Y-1628079D02*
X2267801Y-1666174D01*
X2267801Y-1666174D02*
X2267801Y-1713793D01*
X2267801Y-1713793D02*
X2258277Y-1751888D01*
X2258277Y-1751888D02*
X2248753Y-1770936D01*
X2248753Y-1770936D02*
X2239229Y-1780460D01*
X2239229Y-1780460D02*
X2220182Y-1789984D01*
X2220182Y-1789984D02*
X2201134Y-1789984D01*
X2201134Y-1789984D02*
X2182087Y-1780460D01*
X2182087Y-1780460D02*
X2172563Y-1770936D01*
X2172563Y-1770936D02*
X2163039Y-1751888D01*
X2163039Y-1751888D02*
X2153515Y-1713793D01*
X2153515Y-1713793D02*
X2153515Y-1666174D01*
X2153515Y-1666174D02*
X2163039Y-1628079D01*
X2163039Y-1628079D02*
X2172563Y-1609031D01*
X2172563Y-1609031D02*
X2182087Y-1599508D01*
X2182087Y-1599508D02*
X2201134Y-1589984D01*
X2353515Y-1770936D02*
X2363039Y-1780460D01*
X2363039Y-1780460D02*
X2353515Y-1789984D01*
X2353515Y-1789984D02*
X2343991Y-1780460D01*
X2343991Y-1780460D02*
X2353515Y-1770936D01*
X2353515Y-1770936D02*
X2353515Y-1789984D01*
X2486848Y-1589984D02*
X2505896Y-1589984D01*
X2505896Y-1589984D02*
X2524944Y-1599508D01*
X2524944Y-1599508D02*
X2534468Y-1609031D01*
X2534468Y-1609031D02*
X2543991Y-1628079D01*
X2543991Y-1628079D02*
X2553515Y-1666174D01*
X2553515Y-1666174D02*
X2553515Y-1713793D01*
X2553515Y-1713793D02*
X2543991Y-1751888D01*
X2543991Y-1751888D02*
X2534468Y-1770936D01*
X2534468Y-1770936D02*
X2524944Y-1780460D01*
X2524944Y-1780460D02*
X2505896Y-1789984D01*
X2505896Y-1789984D02*
X2486848Y-1789984D01*
X2486848Y-1789984D02*
X2467801Y-1780460D01*
X2467801Y-1780460D02*
X2458277Y-1770936D01*
X2458277Y-1770936D02*
X2448753Y-1751888D01*
X2448753Y-1751888D02*
X2439229Y-1713793D01*
X2439229Y-1713793D02*
X2439229Y-1666174D01*
X2439229Y-1666174D02*
X2448753Y-1628079D01*
X2448753Y-1628079D02*
X2458277Y-1609031D01*
X2458277Y-1609031D02*
X2467801Y-1599508D01*
X2467801Y-1599508D02*
X2486848Y-1589984D01*
X2743991Y-1789984D02*
X2629706Y-1789984D01*
X2686848Y-1789984D02*
X2686848Y-1589984D01*
X2686848Y-1589984D02*
X2667801Y-1618555D01*
X2667801Y-1618555D02*
X2648753Y-1637603D01*
X2648753Y-1637603D02*
X2629706Y-1647127D01*
X2839229Y-1789984D02*
X2877325Y-1789984D01*
X2877325Y-1789984D02*
X2896372Y-1780460D01*
X2896372Y-1780460D02*
X2905896Y-1770936D01*
X2905896Y-1770936D02*
X2924944Y-1742365D01*
X2924944Y-1742365D02*
X2934467Y-1704269D01*
X2934467Y-1704269D02*
X2934467Y-1628079D01*
X2934467Y-1628079D02*
X2924944Y-1609031D01*
X2924944Y-1609031D02*
X2915420Y-1599508D01*
X2915420Y-1599508D02*
X2896372Y-1589984D01*
X2896372Y-1589984D02*
X2858277Y-1589984D01*
X2858277Y-1589984D02*
X2839229Y-1599508D01*
X2839229Y-1599508D02*
X2829706Y-1609031D01*
X2829706Y-1609031D02*
X2820182Y-1628079D01*
X2820182Y-1628079D02*
X2820182Y-1675698D01*
X2820182Y-1675698D02*
X2829706Y-1694746D01*
X2829706Y-1694746D02*
X2839229Y-1704269D01*
X2839229Y-1704269D02*
X2858277Y-1713793D01*
X2858277Y-1713793D02*
X2896372Y-1713793D01*
X2896372Y-1713793D02*
X2915420Y-1704269D01*
X2915420Y-1704269D02*
X2924944Y-1694746D01*
X2924944Y-1694746D02*
X2934467Y-1675698D01*
X3058277Y-1589984D02*
X3077325Y-1589984D01*
X3077325Y-1589984D02*
X3096372Y-1599508D01*
X3096372Y-1599508D02*
X3105896Y-1609031D01*
X3105896Y-1609031D02*
X3115420Y-1628079D01*
X3115420Y-1628079D02*
X3124944Y-1666174D01*
X3124944Y-1666174D02*
X3124944Y-1713793D01*
X3124944Y-1713793D02*
X3115420Y-1751888D01*
X3115420Y-1751888D02*
X3105896Y-1770936D01*
X3105896Y-1770936D02*
X3096372Y-1780460D01*
X3096372Y-1780460D02*
X3077325Y-1789984D01*
X3077325Y-1789984D02*
X3058277Y-1789984D01*
X3058277Y-1789984D02*
X3039229Y-1780460D01*
X3039229Y-1780460D02*
X3029706Y-1770936D01*
X3029706Y-1770936D02*
X3020182Y-1751888D01*
X3020182Y-1751888D02*
X3010658Y-1713793D01*
X3010658Y-1713793D02*
X3010658Y-1666174D01*
X3010658Y-1666174D02*
X3020182Y-1628079D01*
X3020182Y-1628079D02*
X3029706Y-1609031D01*
X3029706Y-1609031D02*
X3039229Y-1599508D01*
X3039229Y-1599508D02*
X3058277Y-1589984D01*
X3201134Y-1589984D02*
X3201134Y-1628079D01*
X3277325Y-1589984D02*
X3277325Y-1628079D01*
X3572563Y-1866174D02*
X3563039Y-1856650D01*
X3563039Y-1856650D02*
X3543991Y-1828079D01*
X3543991Y-1828079D02*
X3534468Y-1809031D01*
X3534468Y-1809031D02*
X3524944Y-1780460D01*
X3524944Y-1780460D02*
X3515420Y-1732841D01*
X3515420Y-1732841D02*
X3515420Y-1694746D01*
X3515420Y-1694746D02*
X3524944Y-1647127D01*
X3524944Y-1647127D02*
X3534468Y-1618555D01*
X3534468Y-1618555D02*
X3543991Y-1599508D01*
X3543991Y-1599508D02*
X3563039Y-1570936D01*
X3563039Y-1570936D02*
X3572563Y-1561412D01*
X3753515Y-1789984D02*
X3639229Y-1789984D01*
X3696372Y-1789984D02*
X3696372Y-1589984D01*
X3696372Y-1589984D02*
X3677325Y-1618555D01*
X3677325Y-1618555D02*
X3658277Y-1637603D01*
X3658277Y-1637603D02*
X3639229Y-1647127D01*
X3991610Y-1789984D02*
X3991610Y-1589984D01*
X4077325Y-1789984D02*
X4077325Y-1685222D01*
X4077325Y-1685222D02*
X4067801Y-1666174D01*
X4067801Y-1666174D02*
X4048753Y-1656650D01*
X4048753Y-1656650D02*
X4020182Y-1656650D01*
X4020182Y-1656650D02*
X4001134Y-1666174D01*
X4001134Y-1666174D02*
X3991610Y-1675698D01*
X4201134Y-1789984D02*
X4182087Y-1780460D01*
X4182087Y-1780460D02*
X4172563Y-1770936D01*
X4172563Y-1770936D02*
X4163039Y-1751888D01*
X4163039Y-1751888D02*
X4163039Y-1694746D01*
X4163039Y-1694746D02*
X4172563Y-1675698D01*
X4172563Y-1675698D02*
X4182087Y-1666174D01*
X4182087Y-1666174D02*
X4201134Y-1656650D01*
X4201134Y-1656650D02*
X4229706Y-1656650D01*
X4229706Y-1656650D02*
X4248753Y-1666174D01*
X4248753Y-1666174D02*
X4258277Y-1675698D01*
X4258277Y-1675698D02*
X4267801Y-1694746D01*
X4267801Y-1694746D02*
X4267801Y-1751888D01*
X4267801Y-1751888D02*
X4258277Y-1770936D01*
X4258277Y-1770936D02*
X4248753Y-1780460D01*
X4248753Y-1780460D02*
X4229706Y-1789984D01*
X4229706Y-1789984D02*
X4201134Y-1789984D01*
X4382087Y-1789984D02*
X4363039Y-1780460D01*
X4363039Y-1780460D02*
X4353515Y-1761412D01*
X4353515Y-1761412D02*
X4353515Y-1589984D01*
X4534468Y-1780460D02*
X4515420Y-1789984D01*
X4515420Y-1789984D02*
X4477325Y-1789984D01*
X4477325Y-1789984D02*
X4458277Y-1780460D01*
X4458277Y-1780460D02*
X4448753Y-1761412D01*
X4448753Y-1761412D02*
X4448753Y-1685222D01*
X4448753Y-1685222D02*
X4458277Y-1666174D01*
X4458277Y-1666174D02*
X4477325Y-1656650D01*
X4477325Y-1656650D02*
X4515420Y-1656650D01*
X4515420Y-1656650D02*
X4534468Y-1666174D01*
X4534468Y-1666174D02*
X4543992Y-1685222D01*
X4543992Y-1685222D02*
X4543992Y-1704269D01*
X4543992Y-1704269D02*
X4448753Y-1723317D01*
X4610658Y-1866174D02*
X4620182Y-1856650D01*
X4620182Y-1856650D02*
X4639230Y-1828079D01*
X4639230Y-1828079D02*
X4648753Y-1809031D01*
X4648753Y-1809031D02*
X4658277Y-1780460D01*
X4658277Y-1780460D02*
X4667801Y-1732841D01*
X4667801Y-1732841D02*
X4667801Y-1694746D01*
X4667801Y-1694746D02*
X4658277Y-1647127D01*
X4658277Y-1647127D02*
X4648753Y-1618555D01*
X4648753Y-1618555D02*
X4639230Y-1599508D01*
X4639230Y-1599508D02*
X4620182Y-1570936D01*
X4620182Y-1570936D02*
X4610658Y-1561412D01*
D12*
X-62500Y-1932500D02*
X-2500Y-1992500D01*
X-2500Y-1932500D02*
X-62500Y-1992500D01*
X-2500Y-1962500D02*
G75*
G02*
X-62500Y-1962500I-30000J0D01*
G01*
X-62500Y-1962500D02*
G75*
G02*
X-2500Y-1962500I30000J0D01*
G01*
D11*
X296372Y-1853984D02*
X315420Y-1853984D01*
X315420Y-1853984D02*
X334467Y-1863508D01*
X334467Y-1863508D02*
X343991Y-1873031D01*
X343991Y-1873031D02*
X353515Y-1892079D01*
X353515Y-1892079D02*
X363039Y-1930174D01*
X363039Y-1930174D02*
X363039Y-1977793D01*
X363039Y-1977793D02*
X353515Y-2015888D01*
X353515Y-2015888D02*
X343991Y-2034936D01*
X343991Y-2034936D02*
X334467Y-2044460D01*
X334467Y-2044460D02*
X315420Y-2053984D01*
X315420Y-2053984D02*
X296372Y-2053984D01*
X296372Y-2053984D02*
X277324Y-2044460D01*
X277324Y-2044460D02*
X267801Y-2034936D01*
X267801Y-2034936D02*
X258277Y-2015888D01*
X258277Y-2015888D02*
X248753Y-1977793D01*
X248753Y-1977793D02*
X248753Y-1930174D01*
X248753Y-1930174D02*
X258277Y-1892079D01*
X258277Y-1892079D02*
X267801Y-1873031D01*
X267801Y-1873031D02*
X277324Y-1863508D01*
X277324Y-1863508D02*
X296372Y-1853984D01*
X448753Y-2034936D02*
X458277Y-2044460D01*
X458277Y-2044460D02*
X448753Y-2053984D01*
X448753Y-2053984D02*
X439229Y-2044460D01*
X439229Y-2044460D02*
X448753Y-2034936D01*
X448753Y-2034936D02*
X448753Y-2053984D01*
X629705Y-1853984D02*
X591610Y-1853984D01*
X591610Y-1853984D02*
X572563Y-1863508D01*
X572563Y-1863508D02*
X563039Y-1873031D01*
X563039Y-1873031D02*
X543991Y-1901603D01*
X543991Y-1901603D02*
X534467Y-1939698D01*
X534467Y-1939698D02*
X534467Y-2015888D01*
X534467Y-2015888D02*
X543991Y-2034936D01*
X543991Y-2034936D02*
X553515Y-2044460D01*
X553515Y-2044460D02*
X572563Y-2053984D01*
X572563Y-2053984D02*
X610658Y-2053984D01*
X610658Y-2053984D02*
X629705Y-2044460D01*
X629705Y-2044460D02*
X639229Y-2034936D01*
X639229Y-2034936D02*
X648753Y-2015888D01*
X648753Y-2015888D02*
X648753Y-1968269D01*
X648753Y-1968269D02*
X639229Y-1949222D01*
X639229Y-1949222D02*
X629705Y-1939698D01*
X629705Y-1939698D02*
X610658Y-1930174D01*
X610658Y-1930174D02*
X572563Y-1930174D01*
X572563Y-1930174D02*
X553515Y-1939698D01*
X553515Y-1939698D02*
X543991Y-1949222D01*
X543991Y-1949222D02*
X534467Y-1968269D01*
X772562Y-1853984D02*
X791610Y-1853984D01*
X791610Y-1853984D02*
X810658Y-1863508D01*
X810658Y-1863508D02*
X820182Y-1873031D01*
X820182Y-1873031D02*
X829705Y-1892079D01*
X829705Y-1892079D02*
X839229Y-1930174D01*
X839229Y-1930174D02*
X839229Y-1977793D01*
X839229Y-1977793D02*
X829705Y-2015888D01*
X829705Y-2015888D02*
X820182Y-2034936D01*
X820182Y-2034936D02*
X810658Y-2044460D01*
X810658Y-2044460D02*
X791610Y-2053984D01*
X791610Y-2053984D02*
X772562Y-2053984D01*
X772562Y-2053984D02*
X753515Y-2044460D01*
X753515Y-2044460D02*
X743991Y-2034936D01*
X743991Y-2034936D02*
X734467Y-2015888D01*
X734467Y-2015888D02*
X724943Y-1977793D01*
X724943Y-1977793D02*
X724943Y-1930174D01*
X724943Y-1930174D02*
X734467Y-1892079D01*
X734467Y-1892079D02*
X743991Y-1873031D01*
X743991Y-1873031D02*
X753515Y-1863508D01*
X753515Y-1863508D02*
X772562Y-1853984D01*
X963039Y-1853984D02*
X982086Y-1853984D01*
X982086Y-1853984D02*
X1001134Y-1863508D01*
X1001134Y-1863508D02*
X1010658Y-1873031D01*
X1010658Y-1873031D02*
X1020182Y-1892079D01*
X1020182Y-1892079D02*
X1029705Y-1930174D01*
X1029705Y-1930174D02*
X1029705Y-1977793D01*
X1029705Y-1977793D02*
X1020182Y-2015888D01*
X1020182Y-2015888D02*
X1010658Y-2034936D01*
X1010658Y-2034936D02*
X1001134Y-2044460D01*
X1001134Y-2044460D02*
X982086Y-2053984D01*
X982086Y-2053984D02*
X963039Y-2053984D01*
X963039Y-2053984D02*
X943991Y-2044460D01*
X943991Y-2044460D02*
X934467Y-2034936D01*
X934467Y-2034936D02*
X924943Y-2015888D01*
X924943Y-2015888D02*
X915420Y-1977793D01*
X915420Y-1977793D02*
X915420Y-1930174D01*
X915420Y-1930174D02*
X924943Y-1892079D01*
X924943Y-1892079D02*
X934467Y-1873031D01*
X934467Y-1873031D02*
X943991Y-1863508D01*
X943991Y-1863508D02*
X963039Y-1853984D01*
X1115420Y-2053984D02*
X1115420Y-1920650D01*
X1115420Y-1939698D02*
X1124944Y-1930174D01*
X1124944Y-1930174D02*
X1143991Y-1920650D01*
X1143991Y-1920650D02*
X1172563Y-1920650D01*
X1172563Y-1920650D02*
X1191610Y-1930174D01*
X1191610Y-1930174D02*
X1201134Y-1949222D01*
X1201134Y-1949222D02*
X1201134Y-2053984D01*
X1201134Y-1949222D02*
X1210658Y-1930174D01*
X1210658Y-1930174D02*
X1229705Y-1920650D01*
X1229705Y-1920650D02*
X1258277Y-1920650D01*
X1258277Y-1920650D02*
X1277325Y-1930174D01*
X1277325Y-1930174D02*
X1286848Y-1949222D01*
X1286848Y-1949222D02*
X1286848Y-2053984D01*
X1382086Y-2053984D02*
X1382086Y-1920650D01*
X1382086Y-1939698D02*
X1391610Y-1930174D01*
X1391610Y-1930174D02*
X1410658Y-1920650D01*
X1410658Y-1920650D02*
X1439229Y-1920650D01*
X1439229Y-1920650D02*
X1458277Y-1930174D01*
X1458277Y-1930174D02*
X1467801Y-1949222D01*
X1467801Y-1949222D02*
X1467801Y-2053984D01*
X1467801Y-1949222D02*
X1477324Y-1930174D01*
X1477324Y-1930174D02*
X1496372Y-1920650D01*
X1496372Y-1920650D02*
X1524943Y-1920650D01*
X1524943Y-1920650D02*
X1543991Y-1930174D01*
X1543991Y-1930174D02*
X1553515Y-1949222D01*
X1553515Y-1949222D02*
X1553515Y-2053984D01*
X1943991Y-1844460D02*
X1772563Y-2101603D01*
X2201134Y-1853984D02*
X2220182Y-1853984D01*
X2220182Y-1853984D02*
X2239229Y-1863508D01*
X2239229Y-1863508D02*
X2248753Y-1873031D01*
X2248753Y-1873031D02*
X2258277Y-1892079D01*
X2258277Y-1892079D02*
X2267801Y-1930174D01*
X2267801Y-1930174D02*
X2267801Y-1977793D01*
X2267801Y-1977793D02*
X2258277Y-2015888D01*
X2258277Y-2015888D02*
X2248753Y-2034936D01*
X2248753Y-2034936D02*
X2239229Y-2044460D01*
X2239229Y-2044460D02*
X2220182Y-2053984D01*
X2220182Y-2053984D02*
X2201134Y-2053984D01*
X2201134Y-2053984D02*
X2182087Y-2044460D01*
X2182087Y-2044460D02*
X2172563Y-2034936D01*
X2172563Y-2034936D02*
X2163039Y-2015888D01*
X2163039Y-2015888D02*
X2153515Y-1977793D01*
X2153515Y-1977793D02*
X2153515Y-1930174D01*
X2153515Y-1930174D02*
X2163039Y-1892079D01*
X2163039Y-1892079D02*
X2172563Y-1873031D01*
X2172563Y-1873031D02*
X2182087Y-1863508D01*
X2182087Y-1863508D02*
X2201134Y-1853984D01*
X2353515Y-2034936D02*
X2363039Y-2044460D01*
X2363039Y-2044460D02*
X2353515Y-2053984D01*
X2353515Y-2053984D02*
X2343991Y-2044460D01*
X2343991Y-2044460D02*
X2353515Y-2034936D01*
X2353515Y-2034936D02*
X2353515Y-2053984D01*
X2486848Y-1853984D02*
X2505896Y-1853984D01*
X2505896Y-1853984D02*
X2524944Y-1863508D01*
X2524944Y-1863508D02*
X2534468Y-1873031D01*
X2534468Y-1873031D02*
X2543991Y-1892079D01*
X2543991Y-1892079D02*
X2553515Y-1930174D01*
X2553515Y-1930174D02*
X2553515Y-1977793D01*
X2553515Y-1977793D02*
X2543991Y-2015888D01*
X2543991Y-2015888D02*
X2534468Y-2034936D01*
X2534468Y-2034936D02*
X2524944Y-2044460D01*
X2524944Y-2044460D02*
X2505896Y-2053984D01*
X2505896Y-2053984D02*
X2486848Y-2053984D01*
X2486848Y-2053984D02*
X2467801Y-2044460D01*
X2467801Y-2044460D02*
X2458277Y-2034936D01*
X2458277Y-2034936D02*
X2448753Y-2015888D01*
X2448753Y-2015888D02*
X2439229Y-1977793D01*
X2439229Y-1977793D02*
X2439229Y-1930174D01*
X2439229Y-1930174D02*
X2448753Y-1892079D01*
X2448753Y-1892079D02*
X2458277Y-1873031D01*
X2458277Y-1873031D02*
X2467801Y-1863508D01*
X2467801Y-1863508D02*
X2486848Y-1853984D01*
X2629706Y-1873031D02*
X2639229Y-1863508D01*
X2639229Y-1863508D02*
X2658277Y-1853984D01*
X2658277Y-1853984D02*
X2705896Y-1853984D01*
X2705896Y-1853984D02*
X2724944Y-1863508D01*
X2724944Y-1863508D02*
X2734468Y-1873031D01*
X2734468Y-1873031D02*
X2743991Y-1892079D01*
X2743991Y-1892079D02*
X2743991Y-1911127D01*
X2743991Y-1911127D02*
X2734468Y-1939698D01*
X2734468Y-1939698D02*
X2620182Y-2053984D01*
X2620182Y-2053984D02*
X2743991Y-2053984D01*
X2810658Y-1853984D02*
X2934467Y-1853984D01*
X2934467Y-1853984D02*
X2867801Y-1930174D01*
X2867801Y-1930174D02*
X2896372Y-1930174D01*
X2896372Y-1930174D02*
X2915420Y-1939698D01*
X2915420Y-1939698D02*
X2924944Y-1949222D01*
X2924944Y-1949222D02*
X2934467Y-1968269D01*
X2934467Y-1968269D02*
X2934467Y-2015888D01*
X2934467Y-2015888D02*
X2924944Y-2034936D01*
X2924944Y-2034936D02*
X2915420Y-2044460D01*
X2915420Y-2044460D02*
X2896372Y-2053984D01*
X2896372Y-2053984D02*
X2839229Y-2053984D01*
X2839229Y-2053984D02*
X2820182Y-2044460D01*
X2820182Y-2044460D02*
X2810658Y-2034936D01*
X3105896Y-1853984D02*
X3067801Y-1853984D01*
X3067801Y-1853984D02*
X3048753Y-1863508D01*
X3048753Y-1863508D02*
X3039229Y-1873031D01*
X3039229Y-1873031D02*
X3020182Y-1901603D01*
X3020182Y-1901603D02*
X3010658Y-1939698D01*
X3010658Y-1939698D02*
X3010658Y-2015888D01*
X3010658Y-2015888D02*
X3020182Y-2034936D01*
X3020182Y-2034936D02*
X3029706Y-2044460D01*
X3029706Y-2044460D02*
X3048753Y-2053984D01*
X3048753Y-2053984D02*
X3086848Y-2053984D01*
X3086848Y-2053984D02*
X3105896Y-2044460D01*
X3105896Y-2044460D02*
X3115420Y-2034936D01*
X3115420Y-2034936D02*
X3124944Y-2015888D01*
X3124944Y-2015888D02*
X3124944Y-1968269D01*
X3124944Y-1968269D02*
X3115420Y-1949222D01*
X3115420Y-1949222D02*
X3105896Y-1939698D01*
X3105896Y-1939698D02*
X3086848Y-1930174D01*
X3086848Y-1930174D02*
X3048753Y-1930174D01*
X3048753Y-1930174D02*
X3029706Y-1939698D01*
X3029706Y-1939698D02*
X3020182Y-1949222D01*
X3020182Y-1949222D02*
X3010658Y-1968269D01*
X3201134Y-1853984D02*
X3201134Y-1892079D01*
X3277325Y-1853984D02*
X3277325Y-1892079D01*
X3572563Y-2130174D02*
X3563039Y-2120650D01*
X3563039Y-2120650D02*
X3543991Y-2092079D01*
X3543991Y-2092079D02*
X3534468Y-2073031D01*
X3534468Y-2073031D02*
X3524944Y-2044460D01*
X3524944Y-2044460D02*
X3515420Y-1996841D01*
X3515420Y-1996841D02*
X3515420Y-1958746D01*
X3515420Y-1958746D02*
X3524944Y-1911127D01*
X3524944Y-1911127D02*
X3534468Y-1882555D01*
X3534468Y-1882555D02*
X3543991Y-1863508D01*
X3543991Y-1863508D02*
X3563039Y-1834936D01*
X3563039Y-1834936D02*
X3572563Y-1825412D01*
X3677325Y-1939698D02*
X3658277Y-1930174D01*
X3658277Y-1930174D02*
X3648753Y-1920650D01*
X3648753Y-1920650D02*
X3639229Y-1901603D01*
X3639229Y-1901603D02*
X3639229Y-1892079D01*
X3639229Y-1892079D02*
X3648753Y-1873031D01*
X3648753Y-1873031D02*
X3658277Y-1863508D01*
X3658277Y-1863508D02*
X3677325Y-1853984D01*
X3677325Y-1853984D02*
X3715420Y-1853984D01*
X3715420Y-1853984D02*
X3734468Y-1863508D01*
X3734468Y-1863508D02*
X3743991Y-1873031D01*
X3743991Y-1873031D02*
X3753515Y-1892079D01*
X3753515Y-1892079D02*
X3753515Y-1901603D01*
X3753515Y-1901603D02*
X3743991Y-1920650D01*
X3743991Y-1920650D02*
X3734468Y-1930174D01*
X3734468Y-1930174D02*
X3715420Y-1939698D01*
X3715420Y-1939698D02*
X3677325Y-1939698D01*
X3677325Y-1939698D02*
X3658277Y-1949222D01*
X3658277Y-1949222D02*
X3648753Y-1958746D01*
X3648753Y-1958746D02*
X3639229Y-1977793D01*
X3639229Y-1977793D02*
X3639229Y-2015888D01*
X3639229Y-2015888D02*
X3648753Y-2034936D01*
X3648753Y-2034936D02*
X3658277Y-2044460D01*
X3658277Y-2044460D02*
X3677325Y-2053984D01*
X3677325Y-2053984D02*
X3715420Y-2053984D01*
X3715420Y-2053984D02*
X3734468Y-2044460D01*
X3734468Y-2044460D02*
X3743991Y-2034936D01*
X3743991Y-2034936D02*
X3753515Y-2015888D01*
X3753515Y-2015888D02*
X3753515Y-1977793D01*
X3753515Y-1977793D02*
X3743991Y-1958746D01*
X3743991Y-1958746D02*
X3734468Y-1949222D01*
X3734468Y-1949222D02*
X3715420Y-1939698D01*
X3991610Y-2053984D02*
X3991610Y-1853984D01*
X4077325Y-2053984D02*
X4077325Y-1949222D01*
X4077325Y-1949222D02*
X4067801Y-1930174D01*
X4067801Y-1930174D02*
X4048753Y-1920650D01*
X4048753Y-1920650D02*
X4020182Y-1920650D01*
X4020182Y-1920650D02*
X4001134Y-1930174D01*
X4001134Y-1930174D02*
X3991610Y-1939698D01*
X4201134Y-2053984D02*
X4182087Y-2044460D01*
X4182087Y-2044460D02*
X4172563Y-2034936D01*
X4172563Y-2034936D02*
X4163039Y-2015888D01*
X4163039Y-2015888D02*
X4163039Y-1958746D01*
X4163039Y-1958746D02*
X4172563Y-1939698D01*
X4172563Y-1939698D02*
X4182087Y-1930174D01*
X4182087Y-1930174D02*
X4201134Y-1920650D01*
X4201134Y-1920650D02*
X4229706Y-1920650D01*
X4229706Y-1920650D02*
X4248753Y-1930174D01*
X4248753Y-1930174D02*
X4258277Y-1939698D01*
X4258277Y-1939698D02*
X4267801Y-1958746D01*
X4267801Y-1958746D02*
X4267801Y-2015888D01*
X4267801Y-2015888D02*
X4258277Y-2034936D01*
X4258277Y-2034936D02*
X4248753Y-2044460D01*
X4248753Y-2044460D02*
X4229706Y-2053984D01*
X4229706Y-2053984D02*
X4201134Y-2053984D01*
X4382087Y-2053984D02*
X4363039Y-2044460D01*
X4363039Y-2044460D02*
X4353515Y-2025412D01*
X4353515Y-2025412D02*
X4353515Y-1853984D01*
X4534468Y-2044460D02*
X4515420Y-2053984D01*
X4515420Y-2053984D02*
X4477325Y-2053984D01*
X4477325Y-2053984D02*
X4458277Y-2044460D01*
X4458277Y-2044460D02*
X4448753Y-2025412D01*
X4448753Y-2025412D02*
X4448753Y-1949222D01*
X4448753Y-1949222D02*
X4458277Y-1930174D01*
X4458277Y-1930174D02*
X4477325Y-1920650D01*
X4477325Y-1920650D02*
X4515420Y-1920650D01*
X4515420Y-1920650D02*
X4534468Y-1930174D01*
X4534468Y-1930174D02*
X4543992Y-1949222D01*
X4543992Y-1949222D02*
X4543992Y-1968269D01*
X4543992Y-1968269D02*
X4448753Y-1987317D01*
X4620182Y-2044460D02*
X4639230Y-2053984D01*
X4639230Y-2053984D02*
X4677325Y-2053984D01*
X4677325Y-2053984D02*
X4696373Y-2044460D01*
X4696373Y-2044460D02*
X4705896Y-2025412D01*
X4705896Y-2025412D02*
X4705896Y-2015888D01*
X4705896Y-2015888D02*
X4696373Y-1996841D01*
X4696373Y-1996841D02*
X4677325Y-1987317D01*
X4677325Y-1987317D02*
X4648753Y-1987317D01*
X4648753Y-1987317D02*
X4629706Y-1977793D01*
X4629706Y-1977793D02*
X4620182Y-1958746D01*
X4620182Y-1958746D02*
X4620182Y-1949222D01*
X4620182Y-1949222D02*
X4629706Y-1930174D01*
X4629706Y-1930174D02*
X4648753Y-1920650D01*
X4648753Y-1920650D02*
X4677325Y-1920650D01*
X4677325Y-1920650D02*
X4696373Y-1930174D01*
X4772563Y-2130174D02*
X4782087Y-2120650D01*
X4782087Y-2120650D02*
X4801134Y-2092079D01*
X4801134Y-2092079D02*
X4810658Y-2073031D01*
X4810658Y-2073031D02*
X4820182Y-2044460D01*
X4820182Y-2044460D02*
X4829706Y-1996841D01*
X4829706Y-1996841D02*
X4829706Y-1958746D01*
X4829706Y-1958746D02*
X4820182Y-1911127D01*
X4820182Y-1911127D02*
X4810658Y-1882555D01*
X4810658Y-1882555D02*
X4801134Y-1863508D01*
X4801134Y-1863508D02*
X4782087Y-1834936D01*
X4782087Y-1834936D02*
X4772563Y-1825412D01*
D12*
X-102500Y-2176500D02*
X-2500Y-2276500D01*
X-2500Y-2176500D02*
X-102500Y-2276500D01*
X-52500Y-2176500D02*
X-52500Y-2276500D01*
X-102500Y-2226500D02*
X-2500Y-2226500D01*
D11*
X363039Y-2317984D02*
X248753Y-2317984D01*
X305896Y-2317984D02*
X305896Y-2117984D01*
X305896Y-2117984D02*
X286848Y-2146555D01*
X286848Y-2146555D02*
X267801Y-2165603D01*
X267801Y-2165603D02*
X248753Y-2175127D01*
X448753Y-2298936D02*
X458277Y-2308460D01*
X458277Y-2308460D02*
X448753Y-2317984D01*
X448753Y-2317984D02*
X439229Y-2308460D01*
X439229Y-2308460D02*
X448753Y-2298936D01*
X448753Y-2298936D02*
X448753Y-2317984D01*
X582086Y-2117984D02*
X601134Y-2117984D01*
X601134Y-2117984D02*
X620182Y-2127508D01*
X620182Y-2127508D02*
X629705Y-2137031D01*
X629705Y-2137031D02*
X639229Y-2156079D01*
X639229Y-2156079D02*
X648753Y-2194174D01*
X648753Y-2194174D02*
X648753Y-2241793D01*
X648753Y-2241793D02*
X639229Y-2279889D01*
X639229Y-2279889D02*
X629705Y-2298936D01*
X629705Y-2298936D02*
X620182Y-2308460D01*
X620182Y-2308460D02*
X601134Y-2317984D01*
X601134Y-2317984D02*
X582086Y-2317984D01*
X582086Y-2317984D02*
X563039Y-2308460D01*
X563039Y-2308460D02*
X553515Y-2298936D01*
X553515Y-2298936D02*
X543991Y-2279889D01*
X543991Y-2279889D02*
X534467Y-2241793D01*
X534467Y-2241793D02*
X534467Y-2194174D01*
X534467Y-2194174D02*
X543991Y-2156079D01*
X543991Y-2156079D02*
X553515Y-2137031D01*
X553515Y-2137031D02*
X563039Y-2127508D01*
X563039Y-2127508D02*
X582086Y-2117984D01*
X772562Y-2117984D02*
X791610Y-2117984D01*
X791610Y-2117984D02*
X810658Y-2127508D01*
X810658Y-2127508D02*
X820182Y-2137031D01*
X820182Y-2137031D02*
X829705Y-2156079D01*
X829705Y-2156079D02*
X839229Y-2194174D01*
X839229Y-2194174D02*
X839229Y-2241793D01*
X839229Y-2241793D02*
X829705Y-2279889D01*
X829705Y-2279889D02*
X820182Y-2298936D01*
X820182Y-2298936D02*
X810658Y-2308460D01*
X810658Y-2308460D02*
X791610Y-2317984D01*
X791610Y-2317984D02*
X772562Y-2317984D01*
X772562Y-2317984D02*
X753515Y-2308460D01*
X753515Y-2308460D02*
X743991Y-2298936D01*
X743991Y-2298936D02*
X734467Y-2279889D01*
X734467Y-2279889D02*
X724943Y-2241793D01*
X724943Y-2241793D02*
X724943Y-2194174D01*
X724943Y-2194174D02*
X734467Y-2156079D01*
X734467Y-2156079D02*
X743991Y-2137031D01*
X743991Y-2137031D02*
X753515Y-2127508D01*
X753515Y-2127508D02*
X772562Y-2117984D01*
X963039Y-2117984D02*
X982086Y-2117984D01*
X982086Y-2117984D02*
X1001134Y-2127508D01*
X1001134Y-2127508D02*
X1010658Y-2137031D01*
X1010658Y-2137031D02*
X1020182Y-2156079D01*
X1020182Y-2156079D02*
X1029705Y-2194174D01*
X1029705Y-2194174D02*
X1029705Y-2241793D01*
X1029705Y-2241793D02*
X1020182Y-2279889D01*
X1020182Y-2279889D02*
X1010658Y-2298936D01*
X1010658Y-2298936D02*
X1001134Y-2308460D01*
X1001134Y-2308460D02*
X982086Y-2317984D01*
X982086Y-2317984D02*
X963039Y-2317984D01*
X963039Y-2317984D02*
X943991Y-2308460D01*
X943991Y-2308460D02*
X934467Y-2298936D01*
X934467Y-2298936D02*
X924943Y-2279889D01*
X924943Y-2279889D02*
X915420Y-2241793D01*
X915420Y-2241793D02*
X915420Y-2194174D01*
X915420Y-2194174D02*
X924943Y-2156079D01*
X924943Y-2156079D02*
X934467Y-2137031D01*
X934467Y-2137031D02*
X943991Y-2127508D01*
X943991Y-2127508D02*
X963039Y-2117984D01*
X1115420Y-2317984D02*
X1115420Y-2184650D01*
X1115420Y-2203698D02*
X1124944Y-2194174D01*
X1124944Y-2194174D02*
X1143991Y-2184650D01*
X1143991Y-2184650D02*
X1172563Y-2184650D01*
X1172563Y-2184650D02*
X1191610Y-2194174D01*
X1191610Y-2194174D02*
X1201134Y-2213222D01*
X1201134Y-2213222D02*
X1201134Y-2317984D01*
X1201134Y-2213222D02*
X1210658Y-2194174D01*
X1210658Y-2194174D02*
X1229705Y-2184650D01*
X1229705Y-2184650D02*
X1258277Y-2184650D01*
X1258277Y-2184650D02*
X1277325Y-2194174D01*
X1277325Y-2194174D02*
X1286848Y-2213222D01*
X1286848Y-2213222D02*
X1286848Y-2317984D01*
X1382086Y-2317984D02*
X1382086Y-2184650D01*
X1382086Y-2203698D02*
X1391610Y-2194174D01*
X1391610Y-2194174D02*
X1410658Y-2184650D01*
X1410658Y-2184650D02*
X1439229Y-2184650D01*
X1439229Y-2184650D02*
X1458277Y-2194174D01*
X1458277Y-2194174D02*
X1467801Y-2213222D01*
X1467801Y-2213222D02*
X1467801Y-2317984D01*
X1467801Y-2213222D02*
X1477324Y-2194174D01*
X1477324Y-2194174D02*
X1496372Y-2184650D01*
X1496372Y-2184650D02*
X1524943Y-2184650D01*
X1524943Y-2184650D02*
X1543991Y-2194174D01*
X1543991Y-2194174D02*
X1553515Y-2213222D01*
X1553515Y-2213222D02*
X1553515Y-2317984D01*
X1943991Y-2108460D02*
X1772563Y-2365603D01*
X2201134Y-2117984D02*
X2220182Y-2117984D01*
X2220182Y-2117984D02*
X2239229Y-2127508D01*
X2239229Y-2127508D02*
X2248753Y-2137031D01*
X2248753Y-2137031D02*
X2258277Y-2156079D01*
X2258277Y-2156079D02*
X2267801Y-2194174D01*
X2267801Y-2194174D02*
X2267801Y-2241793D01*
X2267801Y-2241793D02*
X2258277Y-2279889D01*
X2258277Y-2279889D02*
X2248753Y-2298936D01*
X2248753Y-2298936D02*
X2239229Y-2308460D01*
X2239229Y-2308460D02*
X2220182Y-2317984D01*
X2220182Y-2317984D02*
X2201134Y-2317984D01*
X2201134Y-2317984D02*
X2182087Y-2308460D01*
X2182087Y-2308460D02*
X2172563Y-2298936D01*
X2172563Y-2298936D02*
X2163039Y-2279889D01*
X2163039Y-2279889D02*
X2153515Y-2241793D01*
X2153515Y-2241793D02*
X2153515Y-2194174D01*
X2153515Y-2194174D02*
X2163039Y-2156079D01*
X2163039Y-2156079D02*
X2172563Y-2137031D01*
X2172563Y-2137031D02*
X2182087Y-2127508D01*
X2182087Y-2127508D02*
X2201134Y-2117984D01*
X2353515Y-2298936D02*
X2363039Y-2308460D01*
X2363039Y-2308460D02*
X2353515Y-2317984D01*
X2353515Y-2317984D02*
X2343991Y-2308460D01*
X2343991Y-2308460D02*
X2353515Y-2298936D01*
X2353515Y-2298936D02*
X2353515Y-2317984D01*
X2486848Y-2117984D02*
X2505896Y-2117984D01*
X2505896Y-2117984D02*
X2524944Y-2127508D01*
X2524944Y-2127508D02*
X2534468Y-2137031D01*
X2534468Y-2137031D02*
X2543991Y-2156079D01*
X2543991Y-2156079D02*
X2553515Y-2194174D01*
X2553515Y-2194174D02*
X2553515Y-2241793D01*
X2553515Y-2241793D02*
X2543991Y-2279889D01*
X2543991Y-2279889D02*
X2534468Y-2298936D01*
X2534468Y-2298936D02*
X2524944Y-2308460D01*
X2524944Y-2308460D02*
X2505896Y-2317984D01*
X2505896Y-2317984D02*
X2486848Y-2317984D01*
X2486848Y-2317984D02*
X2467801Y-2308460D01*
X2467801Y-2308460D02*
X2458277Y-2298936D01*
X2458277Y-2298936D02*
X2448753Y-2279889D01*
X2448753Y-2279889D02*
X2439229Y-2241793D01*
X2439229Y-2241793D02*
X2439229Y-2194174D01*
X2439229Y-2194174D02*
X2448753Y-2156079D01*
X2448753Y-2156079D02*
X2458277Y-2137031D01*
X2458277Y-2137031D02*
X2467801Y-2127508D01*
X2467801Y-2127508D02*
X2486848Y-2117984D01*
X2620182Y-2117984D02*
X2743991Y-2117984D01*
X2743991Y-2117984D02*
X2677325Y-2194174D01*
X2677325Y-2194174D02*
X2705896Y-2194174D01*
X2705896Y-2194174D02*
X2724944Y-2203698D01*
X2724944Y-2203698D02*
X2734468Y-2213222D01*
X2734468Y-2213222D02*
X2743991Y-2232270D01*
X2743991Y-2232270D02*
X2743991Y-2279889D01*
X2743991Y-2279889D02*
X2734468Y-2298936D01*
X2734468Y-2298936D02*
X2724944Y-2308460D01*
X2724944Y-2308460D02*
X2705896Y-2317984D01*
X2705896Y-2317984D02*
X2648753Y-2317984D01*
X2648753Y-2317984D02*
X2629706Y-2308460D01*
X2629706Y-2308460D02*
X2620182Y-2298936D01*
X2839229Y-2317984D02*
X2877325Y-2317984D01*
X2877325Y-2317984D02*
X2896372Y-2308460D01*
X2896372Y-2308460D02*
X2905896Y-2298936D01*
X2905896Y-2298936D02*
X2924944Y-2270365D01*
X2924944Y-2270365D02*
X2934467Y-2232270D01*
X2934467Y-2232270D02*
X2934467Y-2156079D01*
X2934467Y-2156079D02*
X2924944Y-2137031D01*
X2924944Y-2137031D02*
X2915420Y-2127508D01*
X2915420Y-2127508D02*
X2896372Y-2117984D01*
X2896372Y-2117984D02*
X2858277Y-2117984D01*
X2858277Y-2117984D02*
X2839229Y-2127508D01*
X2839229Y-2127508D02*
X2829706Y-2137031D01*
X2829706Y-2137031D02*
X2820182Y-2156079D01*
X2820182Y-2156079D02*
X2820182Y-2203698D01*
X2820182Y-2203698D02*
X2829706Y-2222746D01*
X2829706Y-2222746D02*
X2839229Y-2232270D01*
X2839229Y-2232270D02*
X2858277Y-2241793D01*
X2858277Y-2241793D02*
X2896372Y-2241793D01*
X2896372Y-2241793D02*
X2915420Y-2232270D01*
X2915420Y-2232270D02*
X2924944Y-2222746D01*
X2924944Y-2222746D02*
X2934467Y-2203698D01*
X3105896Y-2184650D02*
X3105896Y-2317984D01*
X3058277Y-2108460D02*
X3010658Y-2251317D01*
X3010658Y-2251317D02*
X3134467Y-2251317D01*
X3201134Y-2117984D02*
X3201134Y-2156079D01*
X3277325Y-2117984D02*
X3277325Y-2156079D01*
X3572563Y-2394174D02*
X3563039Y-2384650D01*
X3563039Y-2384650D02*
X3543991Y-2356079D01*
X3543991Y-2356079D02*
X3534468Y-2337031D01*
X3534468Y-2337031D02*
X3524944Y-2308460D01*
X3524944Y-2308460D02*
X3515420Y-2260841D01*
X3515420Y-2260841D02*
X3515420Y-2222746D01*
X3515420Y-2222746D02*
X3524944Y-2175127D01*
X3524944Y-2175127D02*
X3534468Y-2146555D01*
X3534468Y-2146555D02*
X3543991Y-2127508D01*
X3543991Y-2127508D02*
X3563039Y-2098936D01*
X3563039Y-2098936D02*
X3572563Y-2089412D01*
X3629706Y-2117984D02*
X3753515Y-2117984D01*
X3753515Y-2117984D02*
X3686848Y-2194174D01*
X3686848Y-2194174D02*
X3715420Y-2194174D01*
X3715420Y-2194174D02*
X3734468Y-2203698D01*
X3734468Y-2203698D02*
X3743991Y-2213222D01*
X3743991Y-2213222D02*
X3753515Y-2232270D01*
X3753515Y-2232270D02*
X3753515Y-2279889D01*
X3753515Y-2279889D02*
X3743991Y-2298936D01*
X3743991Y-2298936D02*
X3734468Y-2308460D01*
X3734468Y-2308460D02*
X3715420Y-2317984D01*
X3715420Y-2317984D02*
X3658277Y-2317984D01*
X3658277Y-2317984D02*
X3639229Y-2308460D01*
X3639229Y-2308460D02*
X3629706Y-2298936D01*
X3877325Y-2117984D02*
X3896372Y-2117984D01*
X3896372Y-2117984D02*
X3915420Y-2127508D01*
X3915420Y-2127508D02*
X3924944Y-2137031D01*
X3924944Y-2137031D02*
X3934468Y-2156079D01*
X3934468Y-2156079D02*
X3943991Y-2194174D01*
X3943991Y-2194174D02*
X3943991Y-2241793D01*
X3943991Y-2241793D02*
X3934468Y-2279889D01*
X3934468Y-2279889D02*
X3924944Y-2298936D01*
X3924944Y-2298936D02*
X3915420Y-2308460D01*
X3915420Y-2308460D02*
X3896372Y-2317984D01*
X3896372Y-2317984D02*
X3877325Y-2317984D01*
X3877325Y-2317984D02*
X3858277Y-2308460D01*
X3858277Y-2308460D02*
X3848753Y-2298936D01*
X3848753Y-2298936D02*
X3839229Y-2279889D01*
X3839229Y-2279889D02*
X3829706Y-2241793D01*
X3829706Y-2241793D02*
X3829706Y-2194174D01*
X3829706Y-2194174D02*
X3839229Y-2156079D01*
X3839229Y-2156079D02*
X3848753Y-2137031D01*
X3848753Y-2137031D02*
X3858277Y-2127508D01*
X3858277Y-2127508D02*
X3877325Y-2117984D01*
X4182087Y-2317984D02*
X4182087Y-2117984D01*
X4267801Y-2317984D02*
X4267801Y-2213222D01*
X4267801Y-2213222D02*
X4258277Y-2194174D01*
X4258277Y-2194174D02*
X4239230Y-2184650D01*
X4239230Y-2184650D02*
X4210658Y-2184650D01*
X4210658Y-2184650D02*
X4191610Y-2194174D01*
X4191610Y-2194174D02*
X4182087Y-2203698D01*
X4391611Y-2317984D02*
X4372563Y-2308460D01*
X4372563Y-2308460D02*
X4363039Y-2298936D01*
X4363039Y-2298936D02*
X4353515Y-2279889D01*
X4353515Y-2279889D02*
X4353515Y-2222746D01*
X4353515Y-2222746D02*
X4363039Y-2203698D01*
X4363039Y-2203698D02*
X4372563Y-2194174D01*
X4372563Y-2194174D02*
X4391611Y-2184650D01*
X4391611Y-2184650D02*
X4420182Y-2184650D01*
X4420182Y-2184650D02*
X4439230Y-2194174D01*
X4439230Y-2194174D02*
X4448753Y-2203698D01*
X4448753Y-2203698D02*
X4458277Y-2222746D01*
X4458277Y-2222746D02*
X4458277Y-2279889D01*
X4458277Y-2279889D02*
X4448753Y-2298936D01*
X4448753Y-2298936D02*
X4439230Y-2308460D01*
X4439230Y-2308460D02*
X4420182Y-2317984D01*
X4420182Y-2317984D02*
X4391611Y-2317984D01*
X4572563Y-2317984D02*
X4553515Y-2308460D01*
X4553515Y-2308460D02*
X4543992Y-2289412D01*
X4543992Y-2289412D02*
X4543992Y-2117984D01*
X4724944Y-2308460D02*
X4705896Y-2317984D01*
X4705896Y-2317984D02*
X4667801Y-2317984D01*
X4667801Y-2317984D02*
X4648753Y-2308460D01*
X4648753Y-2308460D02*
X4639230Y-2289412D01*
X4639230Y-2289412D02*
X4639230Y-2213222D01*
X4639230Y-2213222D02*
X4648753Y-2194174D01*
X4648753Y-2194174D02*
X4667801Y-2184650D01*
X4667801Y-2184650D02*
X4705896Y-2184650D01*
X4705896Y-2184650D02*
X4724944Y-2194174D01*
X4724944Y-2194174D02*
X4734468Y-2213222D01*
X4734468Y-2213222D02*
X4734468Y-2232270D01*
X4734468Y-2232270D02*
X4639230Y-2251317D01*
X4810658Y-2308460D02*
X4829706Y-2317984D01*
X4829706Y-2317984D02*
X4867801Y-2317984D01*
X4867801Y-2317984D02*
X4886849Y-2308460D01*
X4886849Y-2308460D02*
X4896373Y-2289412D01*
X4896373Y-2289412D02*
X4896373Y-2279889D01*
X4896373Y-2279889D02*
X4886849Y-2260841D01*
X4886849Y-2260841D02*
X4867801Y-2251317D01*
X4867801Y-2251317D02*
X4839230Y-2251317D01*
X4839230Y-2251317D02*
X4820182Y-2241793D01*
X4820182Y-2241793D02*
X4810658Y-2222746D01*
X4810658Y-2222746D02*
X4810658Y-2213222D01*
X4810658Y-2213222D02*
X4820182Y-2194174D01*
X4820182Y-2194174D02*
X4839230Y-2184650D01*
X4839230Y-2184650D02*
X4867801Y-2184650D01*
X4867801Y-2184650D02*
X4886849Y-2194174D01*
X4963039Y-2394174D02*
X4972563Y-2384650D01*
X4972563Y-2384650D02*
X4991611Y-2356079D01*
X4991611Y-2356079D02*
X5001134Y-2337031D01*
X5001134Y-2337031D02*
X5010658Y-2308460D01*
X5010658Y-2308460D02*
X5020182Y-2260841D01*
X5020182Y-2260841D02*
X5020182Y-2222746D01*
X5020182Y-2222746D02*
X5010658Y-2175127D01*
X5010658Y-2175127D02*
X5001134Y-2146555D01*
X5001134Y-2146555D02*
X4991611Y-2127508D01*
X4991611Y-2127508D02*
X4972563Y-2098936D01*
X4972563Y-2098936D02*
X4963039Y-2089412D01*
X-202500Y-2390500D02*
X-2500Y-2590500D01*
X-2500Y-2390500D02*
X-202500Y-2590500D01*
X-31789Y-2561211D02*
X-31789Y-2419789D01*
X-173211Y-2419789D01*
X-173211Y-2561211D01*
X-31789Y-2561211D01*
X248753Y-2401031D02*
X258277Y-2391508D01*
X258277Y-2391508D02*
X277324Y-2381984D01*
X277324Y-2381984D02*
X324944Y-2381984D01*
X324944Y-2381984D02*
X343991Y-2391508D01*
X343991Y-2391508D02*
X353515Y-2401031D01*
X353515Y-2401031D02*
X363039Y-2420079D01*
X363039Y-2420079D02*
X363039Y-2439127D01*
X363039Y-2439127D02*
X353515Y-2467698D01*
X353515Y-2467698D02*
X239229Y-2581984D01*
X239229Y-2581984D02*
X363039Y-2581984D01*
X448753Y-2562936D02*
X458277Y-2572460D01*
X458277Y-2572460D02*
X448753Y-2581984D01*
X448753Y-2581984D02*
X439229Y-2572460D01*
X439229Y-2572460D02*
X448753Y-2562936D01*
X448753Y-2562936D02*
X448753Y-2581984D01*
X639229Y-2381984D02*
X543991Y-2381984D01*
X543991Y-2381984D02*
X534467Y-2477222D01*
X534467Y-2477222D02*
X543991Y-2467698D01*
X543991Y-2467698D02*
X563039Y-2458174D01*
X563039Y-2458174D02*
X610658Y-2458174D01*
X610658Y-2458174D02*
X629705Y-2467698D01*
X629705Y-2467698D02*
X639229Y-2477222D01*
X639229Y-2477222D02*
X648753Y-2496270D01*
X648753Y-2496270D02*
X648753Y-2543889D01*
X648753Y-2543889D02*
X639229Y-2562936D01*
X639229Y-2562936D02*
X629705Y-2572460D01*
X629705Y-2572460D02*
X610658Y-2581984D01*
X610658Y-2581984D02*
X563039Y-2581984D01*
X563039Y-2581984D02*
X543991Y-2572460D01*
X543991Y-2572460D02*
X534467Y-2562936D01*
X772562Y-2381984D02*
X791610Y-2381984D01*
X791610Y-2381984D02*
X810658Y-2391508D01*
X810658Y-2391508D02*
X820182Y-2401031D01*
X820182Y-2401031D02*
X829705Y-2420079D01*
X829705Y-2420079D02*
X839229Y-2458174D01*
X839229Y-2458174D02*
X839229Y-2505793D01*
X839229Y-2505793D02*
X829705Y-2543889D01*
X829705Y-2543889D02*
X820182Y-2562936D01*
X820182Y-2562936D02*
X810658Y-2572460D01*
X810658Y-2572460D02*
X791610Y-2581984D01*
X791610Y-2581984D02*
X772562Y-2581984D01*
X772562Y-2581984D02*
X753515Y-2572460D01*
X753515Y-2572460D02*
X743991Y-2562936D01*
X743991Y-2562936D02*
X734467Y-2543889D01*
X734467Y-2543889D02*
X724943Y-2505793D01*
X724943Y-2505793D02*
X724943Y-2458174D01*
X724943Y-2458174D02*
X734467Y-2420079D01*
X734467Y-2420079D02*
X743991Y-2401031D01*
X743991Y-2401031D02*
X753515Y-2391508D01*
X753515Y-2391508D02*
X772562Y-2381984D01*
X963039Y-2381984D02*
X982086Y-2381984D01*
X982086Y-2381984D02*
X1001134Y-2391508D01*
X1001134Y-2391508D02*
X1010658Y-2401031D01*
X1010658Y-2401031D02*
X1020182Y-2420079D01*
X1020182Y-2420079D02*
X1029705Y-2458174D01*
X1029705Y-2458174D02*
X1029705Y-2505793D01*
X1029705Y-2505793D02*
X1020182Y-2543889D01*
X1020182Y-2543889D02*
X1010658Y-2562936D01*
X1010658Y-2562936D02*
X1001134Y-2572460D01*
X1001134Y-2572460D02*
X982086Y-2581984D01*
X982086Y-2581984D02*
X963039Y-2581984D01*
X963039Y-2581984D02*
X943991Y-2572460D01*
X943991Y-2572460D02*
X934467Y-2562936D01*
X934467Y-2562936D02*
X924943Y-2543889D01*
X924943Y-2543889D02*
X915420Y-2505793D01*
X915420Y-2505793D02*
X915420Y-2458174D01*
X915420Y-2458174D02*
X924943Y-2420079D01*
X924943Y-2420079D02*
X934467Y-2401031D01*
X934467Y-2401031D02*
X943991Y-2391508D01*
X943991Y-2391508D02*
X963039Y-2381984D01*
X1115420Y-2581984D02*
X1115420Y-2448650D01*
X1115420Y-2467698D02*
X1124944Y-2458174D01*
X1124944Y-2458174D02*
X1143991Y-2448650D01*
X1143991Y-2448650D02*
X1172563Y-2448650D01*
X1172563Y-2448650D02*
X1191610Y-2458174D01*
X1191610Y-2458174D02*
X1201134Y-2477222D01*
X1201134Y-2477222D02*
X1201134Y-2581984D01*
X1201134Y-2477222D02*
X1210658Y-2458174D01*
X1210658Y-2458174D02*
X1229705Y-2448650D01*
X1229705Y-2448650D02*
X1258277Y-2448650D01*
X1258277Y-2448650D02*
X1277325Y-2458174D01*
X1277325Y-2458174D02*
X1286848Y-2477222D01*
X1286848Y-2477222D02*
X1286848Y-2581984D01*
X1382086Y-2581984D02*
X1382086Y-2448650D01*
X1382086Y-2467698D02*
X1391610Y-2458174D01*
X1391610Y-2458174D02*
X1410658Y-2448650D01*
X1410658Y-2448650D02*
X1439229Y-2448650D01*
X1439229Y-2448650D02*
X1458277Y-2458174D01*
X1458277Y-2458174D02*
X1467801Y-2477222D01*
X1467801Y-2477222D02*
X1467801Y-2581984D01*
X1467801Y-2477222D02*
X1477324Y-2458174D01*
X1477324Y-2458174D02*
X1496372Y-2448650D01*
X1496372Y-2448650D02*
X1524943Y-2448650D01*
X1524943Y-2448650D02*
X1543991Y-2458174D01*
X1543991Y-2458174D02*
X1553515Y-2477222D01*
X1553515Y-2477222D02*
X1553515Y-2581984D01*
X1943991Y-2372460D02*
X1772563Y-2629603D01*
X2201134Y-2381984D02*
X2220182Y-2381984D01*
X2220182Y-2381984D02*
X2239229Y-2391508D01*
X2239229Y-2391508D02*
X2248753Y-2401031D01*
X2248753Y-2401031D02*
X2258277Y-2420079D01*
X2258277Y-2420079D02*
X2267801Y-2458174D01*
X2267801Y-2458174D02*
X2267801Y-2505793D01*
X2267801Y-2505793D02*
X2258277Y-2543889D01*
X2258277Y-2543889D02*
X2248753Y-2562936D01*
X2248753Y-2562936D02*
X2239229Y-2572460D01*
X2239229Y-2572460D02*
X2220182Y-2581984D01*
X2220182Y-2581984D02*
X2201134Y-2581984D01*
X2201134Y-2581984D02*
X2182087Y-2572460D01*
X2182087Y-2572460D02*
X2172563Y-2562936D01*
X2172563Y-2562936D02*
X2163039Y-2543889D01*
X2163039Y-2543889D02*
X2153515Y-2505793D01*
X2153515Y-2505793D02*
X2153515Y-2458174D01*
X2153515Y-2458174D02*
X2163039Y-2420079D01*
X2163039Y-2420079D02*
X2172563Y-2401031D01*
X2172563Y-2401031D02*
X2182087Y-2391508D01*
X2182087Y-2391508D02*
X2201134Y-2381984D01*
X2353515Y-2562936D02*
X2363039Y-2572460D01*
X2363039Y-2572460D02*
X2353515Y-2581984D01*
X2353515Y-2581984D02*
X2343991Y-2572460D01*
X2343991Y-2572460D02*
X2353515Y-2562936D01*
X2353515Y-2562936D02*
X2353515Y-2581984D01*
X2486848Y-2381984D02*
X2505896Y-2381984D01*
X2505896Y-2381984D02*
X2524944Y-2391508D01*
X2524944Y-2391508D02*
X2534468Y-2401031D01*
X2534468Y-2401031D02*
X2543991Y-2420079D01*
X2543991Y-2420079D02*
X2553515Y-2458174D01*
X2553515Y-2458174D02*
X2553515Y-2505793D01*
X2553515Y-2505793D02*
X2543991Y-2543889D01*
X2543991Y-2543889D02*
X2534468Y-2562936D01*
X2534468Y-2562936D02*
X2524944Y-2572460D01*
X2524944Y-2572460D02*
X2505896Y-2581984D01*
X2505896Y-2581984D02*
X2486848Y-2581984D01*
X2486848Y-2581984D02*
X2467801Y-2572460D01*
X2467801Y-2572460D02*
X2458277Y-2562936D01*
X2458277Y-2562936D02*
X2448753Y-2543889D01*
X2448753Y-2543889D02*
X2439229Y-2505793D01*
X2439229Y-2505793D02*
X2439229Y-2458174D01*
X2439229Y-2458174D02*
X2448753Y-2420079D01*
X2448753Y-2420079D02*
X2458277Y-2401031D01*
X2458277Y-2401031D02*
X2467801Y-2391508D01*
X2467801Y-2391508D02*
X2486848Y-2381984D01*
X2648753Y-2581984D02*
X2686848Y-2581984D01*
X2686848Y-2581984D02*
X2705896Y-2572460D01*
X2705896Y-2572460D02*
X2715420Y-2562936D01*
X2715420Y-2562936D02*
X2734468Y-2534365D01*
X2734468Y-2534365D02*
X2743991Y-2496270D01*
X2743991Y-2496270D02*
X2743991Y-2420079D01*
X2743991Y-2420079D02*
X2734468Y-2401031D01*
X2734468Y-2401031D02*
X2724944Y-2391508D01*
X2724944Y-2391508D02*
X2705896Y-2381984D01*
X2705896Y-2381984D02*
X2667801Y-2381984D01*
X2667801Y-2381984D02*
X2648753Y-2391508D01*
X2648753Y-2391508D02*
X2639229Y-2401031D01*
X2639229Y-2401031D02*
X2629706Y-2420079D01*
X2629706Y-2420079D02*
X2629706Y-2467698D01*
X2629706Y-2467698D02*
X2639229Y-2486746D01*
X2639229Y-2486746D02*
X2648753Y-2496270D01*
X2648753Y-2496270D02*
X2667801Y-2505793D01*
X2667801Y-2505793D02*
X2705896Y-2505793D01*
X2705896Y-2505793D02*
X2724944Y-2496270D01*
X2724944Y-2496270D02*
X2734468Y-2486746D01*
X2734468Y-2486746D02*
X2743991Y-2467698D01*
X2858277Y-2467698D02*
X2839229Y-2458174D01*
X2839229Y-2458174D02*
X2829706Y-2448650D01*
X2829706Y-2448650D02*
X2820182Y-2429603D01*
X2820182Y-2429603D02*
X2820182Y-2420079D01*
X2820182Y-2420079D02*
X2829706Y-2401031D01*
X2829706Y-2401031D02*
X2839229Y-2391508D01*
X2839229Y-2391508D02*
X2858277Y-2381984D01*
X2858277Y-2381984D02*
X2896372Y-2381984D01*
X2896372Y-2381984D02*
X2915420Y-2391508D01*
X2915420Y-2391508D02*
X2924944Y-2401031D01*
X2924944Y-2401031D02*
X2934467Y-2420079D01*
X2934467Y-2420079D02*
X2934467Y-2429603D01*
X2934467Y-2429603D02*
X2924944Y-2448650D01*
X2924944Y-2448650D02*
X2915420Y-2458174D01*
X2915420Y-2458174D02*
X2896372Y-2467698D01*
X2896372Y-2467698D02*
X2858277Y-2467698D01*
X2858277Y-2467698D02*
X2839229Y-2477222D01*
X2839229Y-2477222D02*
X2829706Y-2486746D01*
X2829706Y-2486746D02*
X2820182Y-2505793D01*
X2820182Y-2505793D02*
X2820182Y-2543889D01*
X2820182Y-2543889D02*
X2829706Y-2562936D01*
X2829706Y-2562936D02*
X2839229Y-2572460D01*
X2839229Y-2572460D02*
X2858277Y-2581984D01*
X2858277Y-2581984D02*
X2896372Y-2581984D01*
X2896372Y-2581984D02*
X2915420Y-2572460D01*
X2915420Y-2572460D02*
X2924944Y-2562936D01*
X2924944Y-2562936D02*
X2934467Y-2543889D01*
X2934467Y-2543889D02*
X2934467Y-2505793D01*
X2934467Y-2505793D02*
X2924944Y-2486746D01*
X2924944Y-2486746D02*
X2915420Y-2477222D01*
X2915420Y-2477222D02*
X2896372Y-2467698D01*
X3105896Y-2448650D02*
X3105896Y-2581984D01*
X3058277Y-2372460D02*
X3010658Y-2515317D01*
X3010658Y-2515317D02*
X3134467Y-2515317D01*
X3201134Y-2381984D02*
X3201134Y-2420079D01*
X3277325Y-2381984D02*
X3277325Y-2420079D01*
X3572563Y-2658174D02*
X3563039Y-2648650D01*
X3563039Y-2648650D02*
X3543991Y-2620079D01*
X3543991Y-2620079D02*
X3534468Y-2601031D01*
X3534468Y-2601031D02*
X3524944Y-2572460D01*
X3524944Y-2572460D02*
X3515420Y-2524841D01*
X3515420Y-2524841D02*
X3515420Y-2486746D01*
X3515420Y-2486746D02*
X3524944Y-2439127D01*
X3524944Y-2439127D02*
X3534468Y-2410555D01*
X3534468Y-2410555D02*
X3543991Y-2391508D01*
X3543991Y-2391508D02*
X3563039Y-2362936D01*
X3563039Y-2362936D02*
X3572563Y-2353412D01*
X3639229Y-2401031D02*
X3648753Y-2391508D01*
X3648753Y-2391508D02*
X3667801Y-2381984D01*
X3667801Y-2381984D02*
X3715420Y-2381984D01*
X3715420Y-2381984D02*
X3734468Y-2391508D01*
X3734468Y-2391508D02*
X3743991Y-2401031D01*
X3743991Y-2401031D02*
X3753515Y-2420079D01*
X3753515Y-2420079D02*
X3753515Y-2439127D01*
X3753515Y-2439127D02*
X3743991Y-2467698D01*
X3743991Y-2467698D02*
X3629706Y-2581984D01*
X3629706Y-2581984D02*
X3753515Y-2581984D01*
X3991610Y-2581984D02*
X3991610Y-2381984D01*
X4077325Y-2581984D02*
X4077325Y-2477222D01*
X4077325Y-2477222D02*
X4067801Y-2458174D01*
X4067801Y-2458174D02*
X4048753Y-2448650D01*
X4048753Y-2448650D02*
X4020182Y-2448650D01*
X4020182Y-2448650D02*
X4001134Y-2458174D01*
X4001134Y-2458174D02*
X3991610Y-2467698D01*
X4201134Y-2581984D02*
X4182087Y-2572460D01*
X4182087Y-2572460D02*
X4172563Y-2562936D01*
X4172563Y-2562936D02*
X4163039Y-2543889D01*
X4163039Y-2543889D02*
X4163039Y-2486746D01*
X4163039Y-2486746D02*
X4172563Y-2467698D01*
X4172563Y-2467698D02*
X4182087Y-2458174D01*
X4182087Y-2458174D02*
X4201134Y-2448650D01*
X4201134Y-2448650D02*
X4229706Y-2448650D01*
X4229706Y-2448650D02*
X4248753Y-2458174D01*
X4248753Y-2458174D02*
X4258277Y-2467698D01*
X4258277Y-2467698D02*
X4267801Y-2486746D01*
X4267801Y-2486746D02*
X4267801Y-2543889D01*
X4267801Y-2543889D02*
X4258277Y-2562936D01*
X4258277Y-2562936D02*
X4248753Y-2572460D01*
X4248753Y-2572460D02*
X4229706Y-2581984D01*
X4229706Y-2581984D02*
X4201134Y-2581984D01*
X4382087Y-2581984D02*
X4363039Y-2572460D01*
X4363039Y-2572460D02*
X4353515Y-2553412D01*
X4353515Y-2553412D02*
X4353515Y-2381984D01*
X4534468Y-2572460D02*
X4515420Y-2581984D01*
X4515420Y-2581984D02*
X4477325Y-2581984D01*
X4477325Y-2581984D02*
X4458277Y-2572460D01*
X4458277Y-2572460D02*
X4448753Y-2553412D01*
X4448753Y-2553412D02*
X4448753Y-2477222D01*
X4448753Y-2477222D02*
X4458277Y-2458174D01*
X4458277Y-2458174D02*
X4477325Y-2448650D01*
X4477325Y-2448650D02*
X4515420Y-2448650D01*
X4515420Y-2448650D02*
X4534468Y-2458174D01*
X4534468Y-2458174D02*
X4543992Y-2477222D01*
X4543992Y-2477222D02*
X4543992Y-2496270D01*
X4543992Y-2496270D02*
X4448753Y-2515317D01*
X4620182Y-2572460D02*
X4639230Y-2581984D01*
X4639230Y-2581984D02*
X4677325Y-2581984D01*
X4677325Y-2581984D02*
X4696373Y-2572460D01*
X4696373Y-2572460D02*
X4705896Y-2553412D01*
X4705896Y-2553412D02*
X4705896Y-2543889D01*
X4705896Y-2543889D02*
X4696373Y-2524841D01*
X4696373Y-2524841D02*
X4677325Y-2515317D01*
X4677325Y-2515317D02*
X4648753Y-2515317D01*
X4648753Y-2515317D02*
X4629706Y-2505793D01*
X4629706Y-2505793D02*
X4620182Y-2486746D01*
X4620182Y-2486746D02*
X4620182Y-2477222D01*
X4620182Y-2477222D02*
X4629706Y-2458174D01*
X4629706Y-2458174D02*
X4648753Y-2448650D01*
X4648753Y-2448650D02*
X4677325Y-2448650D01*
X4677325Y-2448650D02*
X4696373Y-2458174D01*
X4772563Y-2658174D02*
X4782087Y-2648650D01*
X4782087Y-2648650D02*
X4801134Y-2620079D01*
X4801134Y-2620079D02*
X4810658Y-2601031D01*
X4810658Y-2601031D02*
X4820182Y-2572460D01*
X4820182Y-2572460D02*
X4829706Y-2524841D01*
X4829706Y-2524841D02*
X4829706Y-2486746D01*
X4829706Y-2486746D02*
X4820182Y-2439127D01*
X4820182Y-2439127D02*
X4810658Y-2410555D01*
X4810658Y-2410555D02*
X4801134Y-2391508D01*
X4801134Y-2391508D02*
X4782087Y-2362936D01*
X4782087Y-2362936D02*
X4772563Y-2353412D01*
M02*
