M48
; DRILL file KiCad 10.99.0-3758-g2f18d95be7 date 2026-09-21T21:41:28
; FORMAT={-:-/ absolute / metric / decimal}
; #@! TF.CreationDate,2026-09-21T21:41:28+01:00
; #@! TF.GenerationSoftware,Kicad,Pcbnew,10.99.0-3758-g2f18d95be7
; #@! TF.FileFunction,Plated,1,2,PTH
FMAT,2
METRIC
; #@! TA.AperFunction,Plated,PTH,ViaDrill
T1C0.400
; #@! TA.AperFunction,Plated,PTH,ViaDrill
T2C0.500
; #@! TA.AperFunction,Plated,PTH,ComponentDrill
T3C0.700
; #@! TA.AperFunction,Plated,PTH,ComponentDrill
T4C0.900
; #@! TA.AperFunction,Plated,PTH,ComponentDrill
T5C1.016
; #@! TA.AperFunction,Plated,PTH,ComponentDrill
T6C3.000
%
G90
G05
T1
X3.0Y18.9
X4.8Y14.2
X5.8Y18.0
X6.0Y19.2
X7.0Y14.1
X8.8Y16.1
X8.8Y13.2
X9.4Y20.1
X9.4Y17.8
X11.0Y15.5
X11.1Y20.5
X11.1Y18.6
X12.2Y22.0
X12.2Y20.1
X13.4Y23.3
X13.4Y21.5
T2
X1.05Y79.0
X1.25Y10.5
X2.0Y24.25
X2.0Y22.75
X2.0Y21.25
X2.95Y39.4
X3.414Y73.696
X3.75Y58.85
X6.0Y31.8
X6.7Y41.0
X7.9Y40.05
X9.0Y31.8
X9.6Y45.3
X10.8Y45.3
X11.0Y31.8
X13.0Y31.8
X13.45Y51.8
X13.45Y50.2
X14.4Y38.3
X14.6Y46.05
X15.0Y31.8
X15.85Y42.0
X16.524Y67.32
X17.1Y43.25
X17.1Y42.0
X17.1Y40.75
X18.1Y50.0
X18.35Y42.0
X18.7Y38.3
X19.024Y76.52
X19.424Y69.92
X19.9Y50.0
X20.5Y31.3
X20.6Y62.1
X21.6Y38.9
X21.7Y64.5
X21.7Y50.0
X23.5Y50.0
X25.3Y50.0
X26.55Y63.05
X26.55Y60.45
X27.813Y70.358
X27.9Y40.75
X28.493Y63.484
X28.956Y50.292
X30.4Y49.3
X31.496Y70.358
X33.655Y67.818
X34.15Y48.45
X34.4Y45.5
X34.475Y51.575
X34.65Y42.8
X35.5Y49.6
X36.322Y29.972
X36.322Y14.732
X36.75Y62.95
X37.592Y32.004
X38.75Y62.95
X38.862Y77.724
X40.65Y31.944
X40.75Y62.95
X40.75Y47.95
X41.5Y26.95
X42.15Y31.944
X42.25Y47.95
X42.75Y62.95
X43.65Y31.944
X43.75Y47.95
T3
X34.32Y25.25
X34.32Y8.75
X41.1Y25.25
X41.1Y8.75
T4
X37.466Y70.738
X37.466Y68.198
X40.006Y70.738
X40.006Y68.198
X42.546Y70.738
X42.546Y68.198
T5
X21.844Y67.056
T6
X3.0Y82.0
X3.0Y3.0
X42.0Y82.0
X42.0Y3.0
M30
