%TF.GenerationSoftware,KiCad,Pcbnew,10.99.0-3671-gbe90a7e200*%
%TF.CreationDate,2026-09-09T23:49:06+01:00*%
%TF.ProjectId,kicad_file,6b696361-645f-4666-996c-652e6b696361,rev?*%
%TF.SameCoordinates,Original*%
%TF.FileFunction,Copper,L2,Bot*%
%TF.FilePolarity,Positive*%
%FSLAX46Y46*%
G04 Gerber Fmt 4.6, Leading zero omitted, Abs format (unit mm)*
G04 Created by KiCad (PCBNEW 10.99.0-3671-gbe90a7e200) date 2026-09-09 23:49:06*
%MOMM*%
%LPD*%
G01*
G04 APERTURE LIST*
G04 Aperture macros list*
%AMRoundRect*
0 Rectangle with rounded corners*
0 $1 Rounding radius*
0 $2 $3 $4 $5 $6 $7 $8 $9 X,Y pos of 4 corners*
0 Add a 4 corners polygon primitive as box body*
4,1,4,$2,$3,$4,$5,$6,$7,$8,$9,$2,$3,0*
0 Add four circle primitives for the rounded corners*
1,1,$1+$1,$2,$3*
1,1,$1+$1,$4,$5*
1,1,$1+$1,$6,$7*
1,1,$1+$1,$8,$9*
0 Add four rect primitives between the rounded corners*
20,1,$1+$1,$2,$3,$4,$5,0*
20,1,$1+$1,$4,$5,$6,$7,0*
20,1,$1+$1,$6,$7,$8,$9,0*
20,1,$1+$1,$8,$9,$2,$3,0*%
G04 Aperture macros list end*
%TA.AperFunction,ComponentPad*%
%ADD10C,3.200000*%
%TD*%
%TA.AperFunction,ComponentPad*%
%ADD11C,1.676400*%
%TD*%
%TA.AperFunction,WasherPad*%
%ADD12C,1.158000*%
%TD*%
%TA.AperFunction,ComponentPad*%
%ADD13O,2.000000X1.000000*%
%TD*%
%TA.AperFunction,SMDPad,CuDef*%
%ADD14RoundRect,0.750000X0.000010X0.000010X-0.000010X0.000010X-0.000010X-0.000010X0.000010X-0.000010X0*%
%TD*%
%TA.AperFunction,ViaPad*%
%ADD15C,0.906400*%
%TD*%
%TA.AperFunction,Conductor*%
%ADD16C,0.406400*%
%TD*%
%TA.AperFunction,Conductor*%
%ADD17C,0.203200*%
%TD*%
%TA.AperFunction,Conductor*%
%ADD18C,0.254000*%
%TD*%
G04 APERTURE END LIST*
D10*
%TO.P,U$31,P$1*%
%TO.N,N/C*%
X2540000Y20320000D03*
%TD*%
D11*
%TO.P,JP3,1*%
%TO.N,VBAT*%
X16510000Y21590000D03*
%TO.P,JP3,2*%
%TO.N,EN*%
X19050000Y21590000D03*
%TO.P,JP3,3*%
%TO.N,VBUS*%
X21590000Y21590000D03*
%TO.P,JP3,4*%
%TO.N,D13*%
X24130000Y21590000D03*
%TO.P,JP3,5*%
%TO.N,D12*%
X26670000Y21590000D03*
%TO.P,JP3,6*%
%TO.N,D11*%
X29210000Y21590000D03*
%TO.P,JP3,7*%
%TO.N,D10*%
X31750000Y21590000D03*
%TO.P,JP3,8*%
%TO.N,D9*%
X34290000Y21590000D03*
%TO.P,JP3,9*%
%TO.N,D6*%
X36830000Y21590000D03*
%TO.P,JP3,10*%
%TO.N,D5*%
X39370000Y21590000D03*
%TO.P,JP3,11*%
%TO.N,SCL*%
X41910000Y21590000D03*
%TO.P,JP3,12*%
%TO.N,SDA*%
X44450000Y21590000D03*
%TD*%
D12*
%TO.P,X3,*%
%TO.N,*%
X5137000Y14320000D03*
X5137000Y8540000D03*
D13*
%TO.P,X3,M1*%
%TO.N,N/C*%
X5637000Y15750000D03*
%TO.P,X3,M2*%
X5637000Y7110000D03*
%TO.P,X3,M3*%
X1457000Y15750000D03*
%TO.P,X3,M4*%
X1457000Y7110000D03*
%TD*%
D11*
%TO.P,JP1,1*%
%TO.N,TXD0*%
X44450000Y1270000D03*
%TO.P,JP1,2*%
%TO.N,TX*%
X41910000Y1270000D03*
%TO.P,JP1,3*%
%TO.N,RX*%
X39370000Y1270000D03*
%TO.P,JP1,4*%
%TO.N,MISO*%
X36830000Y1270000D03*
%TO.P,JP1,5*%
%TO.N,MOSI*%
X34290000Y1270000D03*
%TO.P,JP1,6*%
%TO.N,SCK*%
X31750000Y1270000D03*
%TO.P,JP1,7*%
%TO.N,A5*%
X29210000Y1270000D03*
%TO.P,JP1,8*%
%TO.N,A4*%
X26670000Y1270000D03*
%TO.P,JP1,9*%
%TO.N,A3*%
X24130000Y1270000D03*
%TO.P,JP1,10*%
%TO.N,A2*%
X21590000Y1270000D03*
%TO.P,JP1,11*%
%TO.N,A1*%
X19050000Y1270000D03*
%TO.P,JP1,12*%
%TO.N,A0*%
X16510000Y1270000D03*
%TO.P,JP1,13*%
%TO.N,GND*%
X13970000Y1270000D03*
%TO.P,JP1,14*%
%TO.N,3.3V*%
X11430000Y1270000D03*
%TO.P,JP1,15*%
X8890000Y1270000D03*
%TO.P,JP1,16*%
%TO.N,RESET*%
X6350000Y1270000D03*
%TD*%
D10*
%TO.P,U$32,P$1*%
%TO.N,N/C*%
X2540000Y2540000D03*
%TD*%
D14*
%TO.P,TP1,P$1*%
%TO.N,BOOT0*%
X20447000Y5410200D03*
%TD*%
D15*
%TO.N,GND*%
X32385000Y16764000D03*
X25146000Y20320000D03*
X39497000Y8001000D03*
X12446000Y19685000D03*
X43688000Y12446000D03*
X9271000Y19812000D03*
X2159000Y13970000D03*
X2286000Y9398000D03*
X39179500Y12255500D03*
X22288500Y18986500D03*
X41402000Y5842000D03*
X26860500Y10160000D03*
X35433000Y7874000D03*
X36766500Y14668500D03*
X27813000Y7302500D03*
X24384000Y8890000D03*
X30035500Y12954000D03*
X13271500Y14668500D03*
X28575000Y14986000D03*
X37528500Y10604500D03*
X43815000Y10160000D03*
X41783000Y8509000D03*
X43815000Y8001000D03*
X38163500Y14922500D03*
X22733000Y7366000D03*
X39179500Y10604500D03*
X37528500Y12255500D03*
X21844000Y4445000D03*
X43688000Y16891000D03*
X40322500Y14922500D03*
X22479000Y10795000D03*
X42291000Y15621000D03*
X36068000Y5969000D03*
X29146500Y9652000D03*
X43815000Y5715000D03*
X33401000Y5715000D03*
X21717000Y6350000D03*
X21844000Y12954000D03*
X37211000Y8001000D03*
X27940000Y20828000D03*
X23368000Y14986000D03*
X27178000Y12954000D03*
X11557000Y10350500D03*
X14859000Y7493000D03*
X41910000Y11303000D03*
X38735000Y5842000D03*
X10033000Y6223000D03*
X43815000Y14605000D03*
X30099000Y15240000D03*
%TO.N,VBUS*%
X8522000Y15481000D03*
X19672300Y18757900D03*
%TO.N,N$3*%
X17145000Y16325100D03*
X7683500Y2921000D03*
%TO.N,3.3V*%
X15938500Y7366000D03*
X19558000Y10033000D03*
X13716000Y13652500D03*
X42481500Y19612800D03*
X23876000Y19177000D03*
%TO.N,RESET*%
X42926000Y3069400D03*
X31681800Y3048000D03*
%TO.N,EN*%
X17653000Y7747000D03*
X18484450Y19015900D03*
%TO.N,MOSI*%
X32766000Y2984500D03*
%TO.N,SDA*%
X39624000Y17272000D03*
X23876000Y13970000D03*
%TO.N,SCL*%
X24989600Y15230656D03*
X38354000Y17272000D03*
%TO.N,D+*%
X8836528Y10297028D03*
X30289500Y10160000D03*
%TO.N,D-*%
X7747000Y11038800D03*
X30289500Y11527600D03*
%TO.N,N$8*%
X7757028Y13599028D03*
X7239000Y17272000D03*
%TO.N,A0*%
X32389000Y11742800D03*
%TO.N,A1*%
X32541400Y12827000D03*
%TO.N,BOOT0*%
X29337000Y13843000D03*
X20447000Y5410200D03*
X41656000Y17272000D03*
%TO.N,D13*%
X4572000Y22152800D03*
%TO.N,A2*%
X32893000Y14097000D03*
%TO.N,A3*%
X32580146Y15181146D03*
%TO.N,A4*%
X33587306Y15626100D03*
%TO.N,A5*%
X35433850Y14868350D03*
%TO.N,I2C_PWR*%
X25336500Y5778500D03*
X35941000Y15850656D03*
%TD*%
%TO.N,VBUS*%
D16*
X8522000Y15481000D02*
X11417000Y15481000D01*
X13208000Y17272000D02*
X18186400Y17272000D01*
X19672300Y18757900D02*
X18186400Y17272000D01*
X13208000Y17272000D02*
X11417000Y15481000D01*
%TO.N,N$3*%
D17*
X9017000Y12319000D02*
X13023100Y16325100D01*
X7683500Y8701106D02*
X7683500Y2921000D01*
X7683500Y8701106D02*
X6477000Y9907606D01*
X6477000Y9907606D02*
X6477000Y11557000D01*
X17145000Y16325100D02*
X13023100Y16325100D01*
X7239000Y12319000D02*
X9017000Y12319000D01*
X6477000Y11557000D02*
X7239000Y12319000D01*
%TO.N,3.3V*%
D16*
X24384000Y19177000D02*
X25273000Y19177000D01*
X8890000Y1397000D02*
X13589000Y6096000D01*
X15938500Y6413500D02*
X15621000Y6096000D01*
X13589000Y6096000D02*
X15621000Y6096000D01*
D17*
X23876000Y19177000D02*
X24384000Y19177000D01*
D16*
X19558000Y10033000D02*
X19558000Y7366000D01*
X25708800Y19612800D02*
X25273000Y19177000D01*
D17*
X23876000Y19177000D02*
X23876000Y19050000D01*
D16*
X19177000Y14351000D02*
X14414500Y14351000D01*
X42481500Y19612800D02*
X25708800Y19612800D01*
X19558000Y7366000D02*
X18288000Y6096000D01*
X18288000Y6096000D02*
X15621000Y6096000D01*
X15938500Y7366000D02*
X15938500Y6413500D01*
X23876000Y19050000D02*
X19177000Y14351000D01*
X14414500Y14351000D02*
X13716000Y13652500D01*
X8890000Y1397000D02*
X8890000Y1270000D01*
%TO.N,RESET*%
D17*
X32081543Y3780600D02*
X42214800Y3780600D01*
X31681800Y3048000D02*
X31681800Y3380856D01*
X31681800Y3380856D02*
X32081543Y3780600D01*
X42214800Y3780600D02*
X42926000Y3069400D01*
%TO.N,EN*%
X6985000Y10160000D02*
X6985000Y11312856D01*
X9104400Y11771400D02*
X13251700Y15918700D01*
X16383000Y9017000D02*
X8128000Y9017000D01*
X18967050Y19498500D02*
X18484450Y19015900D01*
X20447000Y19498500D02*
X18967050Y19498500D01*
X17586400Y15592500D02*
X20447000Y18453100D01*
X7443543Y11771400D02*
X9104400Y11771400D01*
X17653000Y7747000D02*
X16383000Y9017000D01*
X16841543Y15592500D02*
X17586400Y15592500D01*
X16515343Y15918700D02*
X16841543Y15592500D01*
X8128000Y9017000D02*
X6985000Y10160000D01*
X13251700Y15918700D02*
X16515343Y15918700D01*
X20447000Y18453100D02*
X20447000Y19498500D01*
X6985000Y11312856D02*
X7443543Y11771400D01*
%TO.N,MOSI*%
D18*
X34290000Y1270000D02*
X32766000Y2794000D01*
X32766000Y2984500D02*
X32766000Y2794000D01*
%TO.N,SDA*%
D17*
X36606743Y17983200D02*
X38050543Y16539400D01*
X23876000Y13970000D02*
X25654000Y13970000D01*
X29667200Y17983200D02*
X25654000Y13970000D01*
X38050543Y16539400D02*
X38891400Y16539400D01*
X29667200Y17983200D02*
X36606743Y17983200D01*
X38891400Y16539400D02*
X39624000Y17272000D01*
%TO.N,SCL*%
X26132600Y15230656D02*
X24989600Y15230656D01*
X37236400Y18389600D02*
X29291543Y18389600D01*
X38354000Y17272000D02*
X37236400Y18389600D01*
X29291543Y18389600D02*
X26132600Y15230656D01*
%TO.N,D+*%
X30289500Y10160000D02*
X28765500Y11684000D01*
X28765500Y11684000D02*
X10350500Y11684000D01*
X10350500Y11684000D02*
X8963528Y10297028D01*
X8836528Y10297028D02*
X8963528Y10297028D01*
%TO.N,D-*%
X29635300Y12181800D02*
X10160000Y12181800D01*
X30289500Y11527600D02*
X29635300Y12181800D01*
X10160000Y12181800D02*
X9017000Y11038800D01*
X9017000Y11038800D02*
X7747000Y11038800D01*
%TO.N,N$8*%
X7239000Y17272000D02*
X7249028Y17261971D01*
X7249028Y17261971D02*
X7249028Y14107028D01*
X7757028Y13599028D02*
X7249028Y14107028D01*
%TO.N,A0*%
X32715200Y9353675D02*
X27095325Y3733800D01*
X32715200Y11416600D02*
X32715200Y9353675D01*
X22780562Y3733800D02*
X22018562Y2971800D01*
X32389000Y11742800D02*
X32715200Y11416600D01*
X27095325Y3733800D02*
X22780562Y3733800D01*
X19052612Y2971800D02*
X17350812Y1270000D01*
X22018562Y2971800D02*
X19052612Y2971800D01*
X17350812Y1270000D02*
X16510000Y1270000D01*
%TO.N,A1*%
X32766000Y12827000D02*
X32541400Y12827000D01*
X22948900Y3327400D02*
X27263662Y3327400D01*
X19050000Y1270000D02*
X20320000Y2540000D01*
X22161500Y2540000D02*
X20320000Y2540000D01*
X22948900Y3327400D02*
X22161500Y2540000D01*
X27263662Y3327400D02*
X33121600Y9185337D01*
X33121600Y9185337D02*
X33121600Y12471400D01*
X33121600Y12471400D02*
X32766000Y12827000D01*
%TO.N,BOOT0*%
X39624000Y16129000D02*
X37886206Y16129000D01*
X29804840Y17546103D02*
X29337000Y17078262D01*
X37886206Y16129000D02*
X36469103Y17546103D01*
X40767000Y17272000D02*
X39624000Y16129000D01*
X41656000Y17272000D02*
X40767000Y17272000D01*
X29337000Y13843000D02*
X29337000Y17078262D01*
X36469103Y17546103D02*
X29804840Y17546103D01*
%TO.N,D13*%
X22987000Y20447000D02*
X24130000Y21590000D01*
X4572000Y22152800D02*
X14296200Y22152800D01*
X16002000Y20447000D02*
X22987000Y20447000D01*
X14296200Y22152800D02*
X16002000Y20447000D01*
%TO.N,A2*%
X27368500Y2857500D02*
X23177500Y2857500D01*
X21590000Y1270000D02*
X23177500Y2857500D01*
X32893000Y14097000D02*
X33528000Y13462000D01*
X33528000Y13462000D02*
X33528000Y9017000D01*
X33528000Y9017000D02*
X27368500Y2857500D01*
%TO.N,A3*%
X32580146Y15181146D02*
X32897646Y15181146D01*
X34006600Y14072193D02*
X34006600Y8920862D01*
X24130000Y1270000D02*
X25273000Y2413000D01*
X34006600Y14072193D02*
X32897646Y15181146D01*
X27498737Y2413000D02*
X25273000Y2413000D01*
X34006600Y8920862D02*
X27498737Y2413000D01*
%TO.N,A4*%
X34455750Y14468606D02*
X33587306Y15337050D01*
X26670000Y1270000D02*
X26930475Y1270000D01*
X34455750Y14468606D02*
X34455750Y8795275D01*
X34455750Y8795275D02*
X26930475Y1270000D01*
X33587306Y15626100D02*
X33587306Y15337050D01*
%TO.N,A5*%
X28829000Y1651000D02*
X29210000Y1270000D01*
X35433850Y14868350D02*
X34862150Y14296650D01*
X34862150Y8626937D02*
X28829000Y2593787D01*
X28829000Y2593787D02*
X28829000Y1651000D01*
X34862150Y14296650D02*
X34862150Y8626937D01*
%TO.N,I2C_PWR*%
X31656400Y11439343D02*
X31656400Y12978056D01*
X32004000Y13325656D02*
X32004000Y14721243D01*
X31847550Y15484606D02*
X32276693Y15913750D01*
X32004000Y14721243D02*
X31847550Y14877693D01*
X34480500Y15850656D02*
X35941000Y15850656D01*
X33045056Y16377706D02*
X33953450Y16377706D01*
X25336500Y5778500D02*
X28565287Y5778500D01*
X31847550Y14877693D02*
X31847550Y15484606D01*
X32581100Y15913750D02*
X33045056Y16377706D01*
X31656400Y12978056D02*
X32004000Y13325656D01*
X32276693Y15913750D02*
X32581100Y15913750D01*
X32094393Y9307606D02*
X32094393Y11001350D01*
X28565287Y5778500D02*
X32094393Y9307606D01*
X34480500Y15850656D02*
X33953450Y16377706D01*
X32094393Y11001350D02*
X31656400Y11439343D01*
%TD*%
%TA.AperFunction,Conductor*%
%TO.N,GND*%
G36*
X25863862Y22341194D02*
G01*
X25882168Y22297000D01*
X25864710Y22254854D01*
X25865136Y22254505D01*
X25863984Y22253102D01*
X25863862Y22252806D01*
X25863188Y22252132D01*
X25749517Y22082011D01*
X25749514Y22082006D01*
X25671216Y21892979D01*
X25671215Y21892976D01*
X25631300Y21692303D01*
X25631300Y21487696D01*
X25671215Y21287023D01*
X25671216Y21287020D01*
X25749514Y21097993D01*
X25749517Y21097988D01*
X25863188Y20927867D01*
X26007867Y20783188D01*
X26177988Y20669517D01*
X26177993Y20669514D01*
X26367020Y20591216D01*
X26367023Y20591215D01*
X26567696Y20551300D01*
X26567697Y20551300D01*
X26772303Y20551300D01*
X26972976Y20591215D01*
X26972979Y20591216D01*
X27162006Y20669514D01*
X27162011Y20669517D01*
X27332132Y20783188D01*
X27476811Y20927867D01*
X27590482Y21097988D01*
X27590485Y21097993D01*
X27668783Y21287020D01*
X27668784Y21287023D01*
X27668784Y21287024D01*
X27708700Y21487697D01*
X27708700Y21692303D01*
X27668784Y21892978D01*
X27590484Y22082009D01*
X27476811Y22252133D01*
X27476138Y22252806D01*
X27476015Y22253102D01*
X27474864Y22254505D01*
X27475289Y22254854D01*
X27457832Y22297000D01*
X27476138Y22341194D01*
X27520332Y22359500D01*
X28359668Y22359500D01*
X28403862Y22341194D01*
X28422168Y22297000D01*
X28404710Y22254854D01*
X28405136Y22254505D01*
X28403984Y22253102D01*
X28403862Y22252806D01*
X28403188Y22252132D01*
X28289517Y22082011D01*
X28289514Y22082006D01*
X28211216Y21892979D01*
X28211215Y21892976D01*
X28171300Y21692303D01*
X28171300Y21487696D01*
X28211215Y21287023D01*
X28211216Y21287020D01*
X28289514Y21097993D01*
X28289517Y21097988D01*
X28403188Y20927867D01*
X28547867Y20783188D01*
X28717988Y20669517D01*
X28717993Y20669514D01*
X28907020Y20591216D01*
X28907023Y20591215D01*
X29107696Y20551300D01*
X29107697Y20551300D01*
X29312303Y20551300D01*
X29512976Y20591215D01*
X29512979Y20591216D01*
X29702006Y20669514D01*
X29702011Y20669517D01*
X29872132Y20783188D01*
X30016811Y20927867D01*
X30130482Y21097988D01*
X30130485Y21097993D01*
X30208783Y21287020D01*
X30208784Y21287023D01*
X30208784Y21287024D01*
X30248700Y21487697D01*
X30248700Y21692303D01*
X30208784Y21892978D01*
X30130484Y22082009D01*
X30016811Y22252133D01*
X30016138Y22252806D01*
X30016015Y22253102D01*
X30014864Y22254505D01*
X30015289Y22254854D01*
X29997832Y22297000D01*
X30016138Y22341194D01*
X30060332Y22359500D01*
X30899668Y22359500D01*
X30943862Y22341194D01*
X30962168Y22297000D01*
X30944710Y22254854D01*
X30945136Y22254505D01*
X30943984Y22253102D01*
X30943862Y22252806D01*
X30943188Y22252132D01*
X30829517Y22082011D01*
X30829514Y22082006D01*
X30751216Y21892979D01*
X30751215Y21892976D01*
X30711300Y21692303D01*
X30711300Y21487696D01*
X30751215Y21287023D01*
X30751216Y21287020D01*
X30829514Y21097993D01*
X30829517Y21097988D01*
X30943188Y20927867D01*
X31087867Y20783188D01*
X31257988Y20669517D01*
X31257993Y20669514D01*
X31447020Y20591216D01*
X31447023Y20591215D01*
X31647696Y20551300D01*
X31647697Y20551300D01*
X31852303Y20551300D01*
X32052976Y20591215D01*
X32052979Y20591216D01*
X32242006Y20669514D01*
X32242011Y20669517D01*
X32412132Y20783188D01*
X32556811Y20927867D01*
X32670482Y21097988D01*
X32670485Y21097993D01*
X32748783Y21287020D01*
X32748784Y21287023D01*
X32748784Y21287024D01*
X32788700Y21487697D01*
X32788700Y21692303D01*
X32748784Y21892978D01*
X32670484Y22082009D01*
X32556811Y22252133D01*
X32556138Y22252806D01*
X32556015Y22253102D01*
X32554864Y22254505D01*
X32555289Y22254854D01*
X32537832Y22297000D01*
X32556138Y22341194D01*
X32600332Y22359500D01*
X33439668Y22359500D01*
X33483862Y22341194D01*
X33502168Y22297000D01*
X33484710Y22254854D01*
X33485136Y22254505D01*
X33483984Y22253102D01*
X33483862Y22252806D01*
X33483188Y22252132D01*
X33369517Y22082011D01*
X33369514Y22082006D01*
X33291216Y21892979D01*
X33291215Y21892976D01*
X33251300Y21692303D01*
X33251300Y21487696D01*
X33291215Y21287023D01*
X33291216Y21287020D01*
X33369514Y21097993D01*
X33369517Y21097988D01*
X33483188Y20927867D01*
X33627867Y20783188D01*
X33797988Y20669517D01*
X33797993Y20669514D01*
X33987020Y20591216D01*
X33987023Y20591215D01*
X34187696Y20551300D01*
X34187697Y20551300D01*
X34392303Y20551300D01*
X34592976Y20591215D01*
X34592979Y20591216D01*
X34782006Y20669514D01*
X34782011Y20669517D01*
X34952132Y20783188D01*
X35096811Y20927867D01*
X35210482Y21097988D01*
X35210485Y21097993D01*
X35288783Y21287020D01*
X35288784Y21287023D01*
X35288784Y21287024D01*
X35328700Y21487697D01*
X35328700Y21692303D01*
X35288784Y21892978D01*
X35210484Y22082009D01*
X35096811Y22252133D01*
X35096138Y22252806D01*
X35096015Y22253102D01*
X35094864Y22254505D01*
X35095289Y22254854D01*
X35077832Y22297000D01*
X35096138Y22341194D01*
X35140332Y22359500D01*
X35979668Y22359500D01*
X36023862Y22341194D01*
X36042168Y22297000D01*
X36024710Y22254854D01*
X36025136Y22254505D01*
X36023984Y22253102D01*
X36023862Y22252806D01*
X36023188Y22252132D01*
X35909517Y22082011D01*
X35909514Y22082006D01*
X35831216Y21892979D01*
X35831215Y21892976D01*
X35791300Y21692303D01*
X35791300Y21487696D01*
X35831215Y21287023D01*
X35831216Y21287020D01*
X35909514Y21097993D01*
X35909517Y21097988D01*
X36023188Y20927867D01*
X36167867Y20783188D01*
X36337988Y20669517D01*
X36337993Y20669514D01*
X36527020Y20591216D01*
X36527023Y20591215D01*
X36727696Y20551300D01*
X36727697Y20551300D01*
X36932303Y20551300D01*
X37132976Y20591215D01*
X37132979Y20591216D01*
X37322006Y20669514D01*
X37322011Y20669517D01*
X37492132Y20783188D01*
X37636811Y20927867D01*
X37750482Y21097988D01*
X37750485Y21097993D01*
X37828783Y21287020D01*
X37828784Y21287023D01*
X37828784Y21287024D01*
X37868700Y21487697D01*
X37868700Y21692303D01*
X37828784Y21892978D01*
X37750484Y22082009D01*
X37636811Y22252133D01*
X37636138Y22252806D01*
X37636015Y22253102D01*
X37634864Y22254505D01*
X37635289Y22254854D01*
X37617832Y22297000D01*
X37636138Y22341194D01*
X37680332Y22359500D01*
X38519668Y22359500D01*
X38563862Y22341194D01*
X38582168Y22297000D01*
X38564710Y22254854D01*
X38565136Y22254505D01*
X38563984Y22253102D01*
X38563862Y22252806D01*
X38563188Y22252132D01*
X38449517Y22082011D01*
X38449514Y22082006D01*
X38371216Y21892979D01*
X38371215Y21892976D01*
X38331300Y21692303D01*
X38331300Y21487696D01*
X38371215Y21287023D01*
X38371216Y21287020D01*
X38449514Y21097993D01*
X38449517Y21097988D01*
X38563188Y20927867D01*
X38707867Y20783188D01*
X38877988Y20669517D01*
X38877993Y20669514D01*
X39067020Y20591216D01*
X39067023Y20591215D01*
X39267696Y20551300D01*
X39267697Y20551300D01*
X39472303Y20551300D01*
X39672976Y20591215D01*
X39672979Y20591216D01*
X39862006Y20669514D01*
X39862011Y20669517D01*
X40032132Y20783188D01*
X40176811Y20927867D01*
X40290482Y21097988D01*
X40290485Y21097993D01*
X40368783Y21287020D01*
X40368784Y21287023D01*
X40368784Y21287024D01*
X40408700Y21487697D01*
X40408700Y21692303D01*
X40368784Y21892978D01*
X40290484Y22082009D01*
X40176811Y22252133D01*
X40176138Y22252806D01*
X40176015Y22253102D01*
X40174864Y22254505D01*
X40175289Y22254854D01*
X40157832Y22297000D01*
X40176138Y22341194D01*
X40220332Y22359500D01*
X41059668Y22359500D01*
X41103862Y22341194D01*
X41122168Y22297000D01*
X41104710Y22254854D01*
X41105136Y22254505D01*
X41103984Y22253102D01*
X41103862Y22252806D01*
X41103188Y22252132D01*
X40989517Y22082011D01*
X40989514Y22082006D01*
X40911216Y21892979D01*
X40911215Y21892976D01*
X40871300Y21692303D01*
X40871300Y21487696D01*
X40911215Y21287023D01*
X40911216Y21287020D01*
X40989514Y21097993D01*
X40989517Y21097988D01*
X41103188Y20927867D01*
X41247867Y20783188D01*
X41417988Y20669517D01*
X41417993Y20669514D01*
X41607020Y20591216D01*
X41607023Y20591215D01*
X41807696Y20551300D01*
X41807697Y20551300D01*
X42012303Y20551300D01*
X42212976Y20591215D01*
X42212979Y20591216D01*
X42402006Y20669514D01*
X42402011Y20669517D01*
X42572132Y20783188D01*
X42716811Y20927867D01*
X42830482Y21097988D01*
X42830485Y21097993D01*
X42908783Y21287020D01*
X42908784Y21287023D01*
X42908784Y21287024D01*
X42948700Y21487697D01*
X42948700Y21692303D01*
X42908784Y21892978D01*
X42830484Y22082009D01*
X42716811Y22252133D01*
X42716138Y22252806D01*
X42716015Y22253102D01*
X42714864Y22254505D01*
X42715289Y22254854D01*
X42697832Y22297000D01*
X42716138Y22341194D01*
X42760332Y22359500D01*
X43599668Y22359500D01*
X43643862Y22341194D01*
X43662168Y22297000D01*
X43644710Y22254854D01*
X43645136Y22254505D01*
X43643984Y22253102D01*
X43643862Y22252806D01*
X43643188Y22252132D01*
X43529517Y22082011D01*
X43529514Y22082006D01*
X43451216Y21892979D01*
X43451215Y21892976D01*
X43411300Y21692303D01*
X43411300Y21487696D01*
X43451215Y21287023D01*
X43451216Y21287020D01*
X43529514Y21097993D01*
X43529517Y21097988D01*
X43643188Y20927867D01*
X43787867Y20783188D01*
X43957988Y20669517D01*
X43957993Y20669514D01*
X44147020Y20591216D01*
X44147023Y20591215D01*
X44347696Y20551300D01*
X44347697Y20551300D01*
X44552303Y20551300D01*
X44752976Y20591215D01*
X44752979Y20591216D01*
X44942006Y20669514D01*
X44942011Y20669517D01*
X45112132Y20783188D01*
X45256811Y20927867D01*
X45370482Y21097988D01*
X45370485Y21097993D01*
X45448783Y21287020D01*
X45448784Y21287023D01*
X45448784Y21287024D01*
X45488700Y21487697D01*
X45488700Y21692303D01*
X45448784Y21892978D01*
X45370484Y22082009D01*
X45256811Y22252133D01*
X45256138Y22252806D01*
X45256015Y22253102D01*
X45254864Y22254505D01*
X45255289Y22254854D01*
X45237832Y22297000D01*
X45256138Y22341194D01*
X45300332Y22359500D01*
X45784500Y22359500D01*
X45828694Y22341194D01*
X45847000Y22297000D01*
X45847000Y563000D01*
X45828694Y518806D01*
X45784500Y500500D01*
X45300332Y500500D01*
X45256138Y518806D01*
X45237832Y563000D01*
X45255289Y605145D01*
X45254864Y605495D01*
X45256015Y606897D01*
X45256138Y607194D01*
X45256811Y607867D01*
X45370482Y777988D01*
X45370485Y777993D01*
X45448783Y967020D01*
X45448784Y967023D01*
X45458974Y1018253D01*
X45488700Y1167697D01*
X45488700Y1372303D01*
X45448784Y1572978D01*
X45370484Y1762009D01*
X45256811Y1932133D01*
X45112133Y2076811D01*
X44942009Y2190484D01*
X44752978Y2268784D01*
X44552303Y2308700D01*
X44347697Y2308700D01*
X44147022Y2268784D01*
X44094173Y2246893D01*
X43957993Y2190485D01*
X43957988Y2190482D01*
X43787867Y2076811D01*
X43643188Y1932132D01*
X43529517Y1762011D01*
X43529514Y1762006D01*
X43451216Y1572979D01*
X43451215Y1572976D01*
X43411300Y1372303D01*
X43411300Y1167696D01*
X43451215Y967023D01*
X43451216Y967020D01*
X43529514Y777993D01*
X43529517Y777988D01*
X43643188Y607867D01*
X43643190Y607865D01*
X43643862Y607194D01*
X43643984Y606897D01*
X43645136Y605495D01*
X43644710Y605145D01*
X43662168Y563000D01*
X43643862Y518806D01*
X43599668Y500500D01*
X42760332Y500500D01*
X42716138Y518806D01*
X42697832Y563000D01*
X42715289Y605145D01*
X42714864Y605495D01*
X42716015Y606897D01*
X42716138Y607194D01*
X42716811Y607867D01*
X42830482Y777988D01*
X42830485Y777993D01*
X42908783Y967020D01*
X42908784Y967023D01*
X42918974Y1018253D01*
X42948700Y1167697D01*
X42948700Y1372303D01*
X42908784Y1572978D01*
X42830484Y1762009D01*
X42716811Y1932133D01*
X42572133Y2076811D01*
X42402009Y2190484D01*
X42212978Y2268784D01*
X42012303Y2308700D01*
X41807697Y2308700D01*
X41607022Y2268784D01*
X41554173Y2246893D01*
X41417993Y2190485D01*
X41417988Y2190482D01*
X41247867Y2076811D01*
X41103188Y1932132D01*
X40989517Y1762011D01*
X40989514Y1762006D01*
X40911216Y1572979D01*
X40911215Y1572976D01*
X40871300Y1372303D01*
X40871300Y1167696D01*
X40911215Y967023D01*
X40911216Y967020D01*
X40989514Y777993D01*
X40989517Y777988D01*
X41103188Y607867D01*
X41103190Y607865D01*
X41103862Y607194D01*
X41103984Y606897D01*
X41105136Y605495D01*
X41104710Y605145D01*
X41122168Y563000D01*
X41103862Y518806D01*
X41059668Y500500D01*
X40220332Y500500D01*
X40176138Y518806D01*
X40157832Y563000D01*
X40175289Y605145D01*
X40174864Y605495D01*
X40176015Y606897D01*
X40176138Y607194D01*
X40176811Y607867D01*
X40290482Y777988D01*
X40290485Y777993D01*
X40368783Y967020D01*
X40368784Y967023D01*
X40378974Y1018253D01*
X40408700Y1167697D01*
X40408700Y1372303D01*
X40368784Y1572978D01*
X40290484Y1762009D01*
X40176811Y1932133D01*
X40032133Y2076811D01*
X39862009Y2190484D01*
X39672978Y2268784D01*
X39472303Y2308700D01*
X39267697Y2308700D01*
X39067022Y2268784D01*
X39014173Y2246893D01*
X38877993Y2190485D01*
X38877988Y2190482D01*
X38707867Y2076811D01*
X38563188Y1932132D01*
X38449517Y1762011D01*
X38449514Y1762006D01*
X38371216Y1572979D01*
X38371215Y1572976D01*
X38331300Y1372303D01*
X38331300Y1167696D01*
X38371215Y967023D01*
X38371216Y967020D01*
X38449514Y777993D01*
X38449517Y777988D01*
X38563188Y607867D01*
X38563190Y607865D01*
X38563862Y607194D01*
X38563984Y606897D01*
X38565136Y605495D01*
X38564710Y605145D01*
X38582168Y563000D01*
X38563862Y518806D01*
X38519668Y500500D01*
X37680332Y500500D01*
X37636138Y518806D01*
X37617832Y563000D01*
X37635289Y605145D01*
X37634864Y605495D01*
X37636015Y606897D01*
X37636138Y607194D01*
X37636811Y607867D01*
X37750482Y777988D01*
X37750485Y777993D01*
X37828783Y967020D01*
X37828784Y967023D01*
X37838974Y1018253D01*
X37868700Y1167697D01*
X37868700Y1372303D01*
X37828784Y1572978D01*
X37750484Y1762009D01*
X37636811Y1932133D01*
X37492133Y2076811D01*
X37322009Y2190484D01*
X37132978Y2268784D01*
X36932303Y2308700D01*
X36727697Y2308700D01*
X36527022Y2268784D01*
X36474173Y2246893D01*
X36337993Y2190485D01*
X36337988Y2190482D01*
X36167867Y2076811D01*
X36023188Y1932132D01*
X35909517Y1762011D01*
X35909514Y1762006D01*
X35831216Y1572979D01*
X35831215Y1572976D01*
X35791300Y1372303D01*
X35791300Y1167696D01*
X35831215Y967023D01*
X35831216Y967020D01*
X35909514Y777993D01*
X35909517Y777988D01*
X36023188Y607867D01*
X36023190Y607865D01*
X36023862Y607194D01*
X36023984Y606897D01*
X36025136Y605495D01*
X36024710Y605145D01*
X36042168Y563000D01*
X36023862Y518806D01*
X35979668Y500500D01*
X35140332Y500500D01*
X35096138Y518806D01*
X35077832Y563000D01*
X35095289Y605145D01*
X35094864Y605495D01*
X35096015Y606897D01*
X35096138Y607194D01*
X35096811Y607867D01*
X35210482Y777988D01*
X35210485Y777993D01*
X35288783Y967020D01*
X35288784Y967023D01*
X35298974Y1018253D01*
X35328700Y1167697D01*
X35328700Y1372303D01*
X35288784Y1572978D01*
X35210484Y1762009D01*
X35096811Y1932133D01*
X34952133Y2076811D01*
X34782009Y2190484D01*
X34592978Y2268784D01*
X34392303Y2308700D01*
X34187697Y2308700D01*
X33987022Y2268784D01*
X33861093Y2216621D01*
X33813260Y2216621D01*
X33792986Y2230167D01*
X33375706Y2647447D01*
X33357401Y2691640D01*
X33362158Y2715554D01*
X33394579Y2793823D01*
X33419700Y2920116D01*
X33419700Y3048884D01*
X33394579Y3175177D01*
X33345301Y3294143D01*
X33287079Y3381277D01*
X33277748Y3428193D01*
X33304324Y3467967D01*
X33339047Y3478500D01*
X42063778Y3478500D01*
X42107972Y3460194D01*
X42275568Y3292596D01*
X42293874Y3248402D01*
X42292673Y3236209D01*
X42272300Y3133784D01*
X42272300Y3005015D01*
X42297420Y2878724D01*
X42346697Y2759759D01*
X42346700Y2759754D01*
X42418237Y2652691D01*
X42509291Y2561637D01*
X42616354Y2490100D01*
X42616359Y2490097D01*
X42735324Y2440820D01*
X42861615Y2415700D01*
X42861616Y2415700D01*
X42990384Y2415700D01*
X43116675Y2440820D01*
X43235640Y2490097D01*
X43235645Y2490100D01*
X43342708Y2561637D01*
X43433762Y2652691D01*
X43505299Y2759754D01*
X43505302Y2759759D01*
X43545422Y2856616D01*
X43554579Y2878723D01*
X43579700Y3005016D01*
X43579700Y3133784D01*
X43554579Y3260077D01*
X43505301Y3379043D01*
X43433762Y3486109D01*
X43342709Y3577162D01*
X43235643Y3648701D01*
X43116677Y3697979D01*
X42990384Y3723100D01*
X42861616Y3723100D01*
X42759188Y3702726D01*
X42712272Y3712058D01*
X42702807Y3719826D01*
X42400294Y4022340D01*
X42331407Y4062113D01*
X42254572Y4082700D01*
X32121315Y4082700D01*
X32041771Y4082700D01*
X32041764Y4082698D01*
X31964936Y4062113D01*
X31964934Y4062112D01*
X31896049Y4022340D01*
X31896043Y4022335D01*
X31578385Y3704675D01*
X31546383Y3687570D01*
X31491123Y3676579D01*
X31491121Y3676578D01*
X31372159Y3627302D01*
X31372154Y3627299D01*
X31265091Y3555762D01*
X31174037Y3464708D01*
X31102500Y3357645D01*
X31102497Y3357640D01*
X31053220Y3238675D01*
X31028100Y3112384D01*
X31028100Y2983615D01*
X31053220Y2857324D01*
X31102497Y2738359D01*
X31102500Y2738354D01*
X31174037Y2631291D01*
X31265091Y2540237D01*
X31372154Y2468700D01*
X31372159Y2468697D01*
X31491123Y2419420D01*
X31539555Y2409787D01*
X31579328Y2383211D01*
X31588660Y2336294D01*
X31562084Y2296521D01*
X31539555Y2287189D01*
X31447022Y2268784D01*
X31394173Y2246893D01*
X31257993Y2190485D01*
X31257988Y2190482D01*
X31087867Y2076811D01*
X30943188Y1932132D01*
X30829517Y1762011D01*
X30829514Y1762006D01*
X30751216Y1572979D01*
X30751215Y1572976D01*
X30711300Y1372303D01*
X30711300Y1167696D01*
X30751215Y967023D01*
X30751216Y967020D01*
X30829514Y777993D01*
X30829517Y777988D01*
X30943188Y607867D01*
X30943190Y607865D01*
X30943862Y607194D01*
X30943984Y606897D01*
X30945136Y605495D01*
X30944710Y605145D01*
X30962168Y563000D01*
X30943862Y518806D01*
X30899668Y500500D01*
X30060332Y500500D01*
X30016138Y518806D01*
X29997832Y563000D01*
X30015289Y605145D01*
X30014864Y605495D01*
X30016015Y606897D01*
X30016138Y607194D01*
X30016811Y607867D01*
X30130482Y777988D01*
X30130485Y777993D01*
X30208783Y967020D01*
X30208784Y967023D01*
X30218974Y1018253D01*
X30248700Y1167697D01*
X30248700Y1372303D01*
X30208784Y1572978D01*
X30130484Y1762009D01*
X30016811Y1932133D01*
X29872133Y2076811D01*
X29702009Y2190484D01*
X29512978Y2268784D01*
X29312303Y2308700D01*
X29193600Y2308700D01*
X29149406Y2327006D01*
X29131100Y2371200D01*
X29131100Y2442764D01*
X29149406Y2486958D01*
X35103885Y8441437D01*
X35103890Y8441443D01*
X35143662Y8510328D01*
X35143663Y8510330D01*
X35164248Y8587158D01*
X35164250Y8587166D01*
X35164250Y14145628D01*
X35182556Y14189822D01*
X35210652Y14217918D01*
X35254846Y14236224D01*
X35267039Y14235023D01*
X35369464Y14214650D01*
X35369466Y14214650D01*
X35498234Y14214650D01*
X35624525Y14239770D01*
X35743490Y14289047D01*
X35743495Y14289050D01*
X35850558Y14360587D01*
X35941612Y14451641D01*
X36013149Y14558704D01*
X36013152Y14558709D01*
X36047771Y14642287D01*
X36062429Y14677673D01*
X36087550Y14803966D01*
X36087550Y14932734D01*
X36062429Y15059027D01*
X36034446Y15126580D01*
X36034446Y15174415D01*
X36068271Y15208240D01*
X36079996Y15211797D01*
X36131675Y15222076D01*
X36250640Y15271353D01*
X36250645Y15271356D01*
X36357708Y15342893D01*
X36448762Y15433947D01*
X36520299Y15541010D01*
X36520302Y15541015D01*
X36539934Y15588410D01*
X36569579Y15659979D01*
X36594700Y15786272D01*
X36594700Y15915040D01*
X36569579Y16041333D01*
X36520301Y16160299D01*
X36448762Y16267365D01*
X36357709Y16358418D01*
X36250643Y16429957D01*
X36131677Y16479235D01*
X36005384Y16504356D01*
X35876616Y16504356D01*
X35750323Y16479235D01*
X35666201Y16444390D01*
X35631359Y16429958D01*
X35631354Y16429955D01*
X35524291Y16358418D01*
X35433237Y16267364D01*
X35375219Y16180533D01*
X35335445Y16153957D01*
X35323252Y16152756D01*
X34631522Y16152756D01*
X34587328Y16171062D01*
X34138949Y16619441D01*
X34138944Y16619446D01*
X34070057Y16659219D01*
X33993222Y16679806D01*
X33084828Y16679806D01*
X33005284Y16679806D01*
X33005277Y16679804D01*
X32928449Y16659219D01*
X32928447Y16659218D01*
X32859562Y16619446D01*
X32859556Y16619441D01*
X32474272Y16234156D01*
X32430078Y16215850D01*
X32316465Y16215850D01*
X32236921Y16215850D01*
X32164856Y16196541D01*
X32160086Y16195263D01*
X32160084Y16195262D01*
X32091199Y16155490D01*
X32091193Y16155485D01*
X31605814Y15670105D01*
X31605809Y15670099D01*
X31566037Y15601214D01*
X31566036Y15601212D01*
X31551077Y15545385D01*
X31551078Y15545385D01*
X31545450Y15524381D01*
X31545450Y14837922D01*
X31545451Y14837914D01*
X31566036Y14761086D01*
X31566037Y14761084D01*
X31605809Y14692199D01*
X31605814Y14692193D01*
X31683594Y14614414D01*
X31701900Y14570220D01*
X31701900Y13476678D01*
X31683594Y13432484D01*
X31414664Y13163555D01*
X31414659Y13163549D01*
X31374887Y13094664D01*
X31374887Y13094663D01*
X31369135Y13073200D01*
X31369136Y13073200D01*
X31354300Y13017829D01*
X31354300Y11399572D01*
X31354301Y11399564D01*
X31374886Y11322736D01*
X31374887Y11322734D01*
X31414659Y11253849D01*
X31414664Y11253843D01*
X31773987Y10894521D01*
X31792293Y10850327D01*
X31792293Y9458628D01*
X31773987Y9414434D01*
X28458459Y6098906D01*
X28414265Y6080600D01*
X25954248Y6080600D01*
X25910054Y6098906D01*
X25902281Y6108377D01*
X25844262Y6195209D01*
X25753209Y6286262D01*
X25646143Y6357801D01*
X25527177Y6407079D01*
X25400884Y6432200D01*
X25272116Y6432200D01*
X25145823Y6407079D01*
X25061701Y6372234D01*
X25026859Y6357802D01*
X25026854Y6357799D01*
X24919791Y6286262D01*
X24828737Y6195208D01*
X24757200Y6088145D01*
X24757197Y6088140D01*
X24707920Y5969175D01*
X24682800Y5842884D01*
X24682800Y5714115D01*
X24707920Y5587824D01*
X24757197Y5468859D01*
X24757200Y5468854D01*
X24828737Y5361791D01*
X24919791Y5270737D01*
X25026854Y5199200D01*
X25026859Y5199197D01*
X25145824Y5149920D01*
X25272115Y5124800D01*
X25272116Y5124800D01*
X25400884Y5124800D01*
X25527175Y5149920D01*
X25646140Y5199197D01*
X25646145Y5199200D01*
X25753208Y5270737D01*
X25844262Y5361791D01*
X25902281Y5448623D01*
X25942055Y5475199D01*
X25954248Y5476400D01*
X28259803Y5476400D01*
X28303997Y5458094D01*
X28322303Y5413900D01*
X28303997Y5369706D01*
X26988497Y4054206D01*
X26944303Y4035900D01*
X22820334Y4035900D01*
X22740790Y4035900D01*
X22740783Y4035898D01*
X22663955Y4015313D01*
X22663953Y4015312D01*
X22595068Y3975540D01*
X22595062Y3975535D01*
X21911734Y3292206D01*
X21867540Y3273900D01*
X19092384Y3273900D01*
X19012840Y3273900D01*
X19012833Y3273898D01*
X18936005Y3253313D01*
X18936003Y3253312D01*
X18867118Y3213540D01*
X18867112Y3213535D01*
X17478367Y1824789D01*
X17434173Y1806483D01*
X17389979Y1824789D01*
X17382213Y1834250D01*
X17316811Y1932133D01*
X17172133Y2076811D01*
X17002009Y2190484D01*
X16812978Y2268784D01*
X16612303Y2308700D01*
X16407697Y2308700D01*
X16207022Y2268784D01*
X16154173Y2246893D01*
X16017993Y2190485D01*
X16017988Y2190482D01*
X15847867Y2076811D01*
X15703188Y1932132D01*
X15589517Y1762011D01*
X15589514Y1762006D01*
X15511216Y1572979D01*
X15511215Y1572976D01*
X15471300Y1372303D01*
X15471300Y1167696D01*
X15511215Y967023D01*
X15511216Y967020D01*
X15589514Y777993D01*
X15589517Y777988D01*
X15703188Y607867D01*
X15703190Y607865D01*
X15703862Y607194D01*
X15703984Y606897D01*
X15705136Y605495D01*
X15704710Y605145D01*
X15722168Y563000D01*
X15703862Y518806D01*
X15659668Y500500D01*
X14945425Y500500D01*
X14901231Y518806D01*
X14882925Y563000D01*
X14894862Y599737D01*
X14946893Y671352D01*
X15028517Y831545D01*
X15028518Y831548D01*
X15084075Y1002535D01*
X15084075Y1002536D01*
X15102363Y1117999D01*
X15102363Y1118000D01*
X14446909Y1118000D01*
X14470000Y1204174D01*
X14470000Y1335826D01*
X14446909Y1422000D01*
X15102363Y1422000D01*
X15084075Y1537463D01*
X15084075Y1537464D01*
X15028518Y1708451D01*
X15028517Y1708454D01*
X14946893Y1868647D01*
X14841221Y2014092D01*
X14841214Y2014100D01*
X14714100Y2141214D01*
X14714092Y2141221D01*
X14568647Y2246893D01*
X14408454Y2328517D01*
X14408451Y2328518D01*
X14237464Y2384075D01*
X14122000Y2402363D01*
X14122000Y1746909D01*
X14035826Y1770000D01*
X13904174Y1770000D01*
X13818000Y1746909D01*
X13818000Y2402363D01*
X13817999Y2402363D01*
X13702536Y2384075D01*
X13702535Y2384075D01*
X13531548Y2328518D01*
X13531545Y2328517D01*
X13371352Y2246893D01*
X13225907Y2141221D01*
X13225899Y2141214D01*
X13098785Y2014100D01*
X13098778Y2014092D01*
X12993106Y1868647D01*
X12911482Y1708454D01*
X12911481Y1708451D01*
X12855924Y1537464D01*
X12855924Y1537463D01*
X12837636Y1422000D01*
X13493091Y1422000D01*
X13470000Y1335826D01*
X13470000Y1204174D01*
X13493091Y1118000D01*
X12837637Y1118000D01*
X12837636Y1117999D01*
X12855924Y1002536D01*
X12855924Y1002535D01*
X12911481Y831548D01*
X12911482Y831545D01*
X12993106Y671352D01*
X13045138Y599737D01*
X13056306Y553223D01*
X13031312Y512437D01*
X12994575Y500500D01*
X12280332Y500500D01*
X12236138Y518806D01*
X12217832Y563000D01*
X12235289Y605145D01*
X12234864Y605495D01*
X12236015Y606897D01*
X12236138Y607194D01*
X12236811Y607867D01*
X12350482Y777988D01*
X12350485Y777993D01*
X12428783Y967020D01*
X12428784Y967023D01*
X12438974Y1018253D01*
X12468700Y1167697D01*
X12468700Y1372303D01*
X12428784Y1572978D01*
X12350484Y1762009D01*
X12236811Y1932133D01*
X12092133Y2076811D01*
X11922009Y2190484D01*
X11732978Y2268784D01*
X11532303Y2308700D01*
X11327697Y2308700D01*
X11127022Y2268784D01*
X11074173Y2246893D01*
X10937993Y2190485D01*
X10937988Y2190482D01*
X10767867Y2076811D01*
X10623188Y1932132D01*
X10509517Y1762011D01*
X10509514Y1762006D01*
X10431216Y1572979D01*
X10431215Y1572976D01*
X10391300Y1372303D01*
X10391300Y1167696D01*
X10431215Y967023D01*
X10431216Y967020D01*
X10509514Y777993D01*
X10509517Y777988D01*
X10623188Y607867D01*
X10623190Y607865D01*
X10623862Y607194D01*
X10623984Y606897D01*
X10625136Y605495D01*
X10624710Y605145D01*
X10642168Y563000D01*
X10623862Y518806D01*
X10579668Y500500D01*
X9740332Y500500D01*
X9696138Y518806D01*
X9677832Y563000D01*
X9695289Y605145D01*
X9694864Y605495D01*
X9696015Y606897D01*
X9696138Y607194D01*
X9696811Y607867D01*
X9810482Y777988D01*
X9810485Y777993D01*
X9888783Y967020D01*
X9888784Y967023D01*
X9898974Y1018253D01*
X9928700Y1167697D01*
X9928700Y1372303D01*
X9888784Y1572978D01*
X9830987Y1712507D01*
X9830987Y1760341D01*
X9844536Y1780618D01*
X13529258Y5465340D01*
X19496500Y5465340D01*
X19496500Y5355059D01*
X19506582Y5241655D01*
X19506583Y5241646D01*
X19559762Y5055794D01*
X19649265Y4884451D01*
X19649266Y4884448D01*
X19771429Y4734629D01*
X19921248Y4612466D01*
X19921251Y4612465D01*
X20092594Y4522962D01*
X20278446Y4469783D01*
X20278455Y4469782D01*
X20391860Y4459700D01*
X20391862Y4459700D01*
X20502140Y4459700D01*
X20615544Y4469782D01*
X20615553Y4469783D01*
X20801405Y4522962D01*
X20879743Y4563883D01*
X20972751Y4612466D01*
X21122571Y4734629D01*
X21244734Y4884449D01*
X21334237Y5055794D01*
X21387417Y5241648D01*
X21397500Y5355062D01*
X21397500Y5465338D01*
X21397187Y5468854D01*
X21395483Y5488020D01*
X21387417Y5578752D01*
X21334237Y5764606D01*
X21244734Y5935951D01*
X21122571Y6085771D01*
X20972751Y6207934D01*
X20801406Y6297437D01*
X20615552Y6350617D01*
X20524820Y6358683D01*
X20502140Y6360700D01*
X20502138Y6360700D01*
X20391862Y6360700D01*
X20391860Y6360700D01*
X20366658Y6358459D01*
X20278448Y6350617D01*
X20092594Y6297437D01*
X19921249Y6207934D01*
X19771429Y6085771D01*
X19649266Y5935951D01*
X19605252Y5851691D01*
X19559762Y5764605D01*
X19506583Y5578753D01*
X19506582Y5578744D01*
X19496500Y5465340D01*
X13529258Y5465340D01*
X13737912Y5673994D01*
X13782106Y5692300D01*
X15564011Y5692300D01*
X15564027Y5692299D01*
X15567852Y5692299D01*
X15677973Y5692299D01*
X15677989Y5692300D01*
X18231011Y5692300D01*
X18231027Y5692299D01*
X18234852Y5692299D01*
X18341153Y5692299D01*
X18435246Y5717512D01*
X18435246Y5717513D01*
X18443823Y5719811D01*
X18521410Y5764606D01*
X18535878Y5772959D01*
X18535879Y5772960D01*
X18535883Y5772963D01*
X18614597Y5851677D01*
X18614609Y5851691D01*
X19803689Y7040771D01*
X19803700Y7040781D01*
X19881039Y7118120D01*
X19881041Y7118122D01*
X19934189Y7210177D01*
X19941976Y7239238D01*
X19958690Y7301615D01*
X19961700Y7312847D01*
X19961701Y7312853D01*
X19961701Y7424179D01*
X19961700Y7424192D01*
X19961700Y9486341D01*
X19980006Y9530535D01*
X20065762Y9616291D01*
X20137299Y9723354D01*
X20137302Y9723359D01*
X20165319Y9790997D01*
X20186579Y9842323D01*
X20211700Y9968616D01*
X20211700Y10097384D01*
X20186579Y10223677D01*
X20137301Y10342643D01*
X20065762Y10449709D01*
X19974709Y10540762D01*
X19867643Y10612301D01*
X19748677Y10661579D01*
X19622384Y10686700D01*
X19493616Y10686700D01*
X19367323Y10661579D01*
X19283201Y10626734D01*
X19248359Y10612302D01*
X19248354Y10612299D01*
X19141291Y10540762D01*
X19050237Y10449708D01*
X18978700Y10342645D01*
X18978697Y10342640D01*
X18929420Y10223675D01*
X18904300Y10097384D01*
X18904300Y9968615D01*
X18929420Y9842324D01*
X18978697Y9723359D01*
X18978700Y9723354D01*
X19050237Y9616291D01*
X19050239Y9616289D01*
X19135994Y9530535D01*
X19154300Y9486341D01*
X19154300Y7559106D01*
X19135994Y7514912D01*
X18139088Y6518006D01*
X18094894Y6499700D01*
X16404700Y6499700D01*
X16360506Y6518006D01*
X16342200Y6562200D01*
X16342200Y6819341D01*
X16360506Y6863535D01*
X16446262Y6949291D01*
X16517799Y7056354D01*
X16517802Y7056359D01*
X16567079Y7175324D01*
X16567809Y7178993D01*
X16592200Y7301616D01*
X16592200Y7430384D01*
X16567079Y7556677D01*
X16517801Y7675643D01*
X16446262Y7782709D01*
X16355209Y7873762D01*
X16248143Y7945301D01*
X16129177Y7994579D01*
X16002884Y8019700D01*
X15874116Y8019700D01*
X15747823Y7994579D01*
X15688958Y7970196D01*
X15628859Y7945302D01*
X15628854Y7945299D01*
X15521791Y7873762D01*
X15430737Y7782708D01*
X15359200Y7675645D01*
X15359197Y7675640D01*
X15309920Y7556675D01*
X15284800Y7430384D01*
X15284800Y7301615D01*
X15309920Y7175324D01*
X15359197Y7056359D01*
X15359200Y7056354D01*
X15430737Y6949291D01*
X15430739Y6949289D01*
X15516494Y6863535D01*
X15534800Y6819341D01*
X15534800Y6606606D01*
X15516494Y6562412D01*
X15472088Y6518006D01*
X15427894Y6499700D01*
X13645990Y6499700D01*
X13645974Y6499701D01*
X13642149Y6499701D01*
X13535852Y6499701D01*
X13535850Y6499700D01*
X13535846Y6499700D01*
X13496758Y6489226D01*
X13433178Y6472190D01*
X13394271Y6449726D01*
X13341122Y6419041D01*
X13341121Y6419040D01*
X13263776Y6341695D01*
X13263771Y6341689D01*
X9214838Y2292756D01*
X9170644Y2274450D01*
X9158454Y2275650D01*
X8992303Y2308700D01*
X8787697Y2308700D01*
X8587022Y2268784D01*
X8534173Y2246893D01*
X8397993Y2190485D01*
X8397988Y2190482D01*
X8227867Y2076811D01*
X8083188Y1932132D01*
X7969517Y1762011D01*
X7969514Y1762006D01*
X7891216Y1572979D01*
X7891215Y1572976D01*
X7851300Y1372303D01*
X7851300Y1167696D01*
X7891215Y967023D01*
X7891216Y967020D01*
X7969514Y777993D01*
X7969517Y777988D01*
X8083188Y607867D01*
X8083190Y607865D01*
X8083862Y607194D01*
X8083984Y606897D01*
X8085136Y605495D01*
X8084710Y605145D01*
X8102168Y563000D01*
X8083862Y518806D01*
X8039668Y500500D01*
X7200332Y500500D01*
X7156138Y518806D01*
X7137832Y563000D01*
X7155289Y605145D01*
X7154864Y605495D01*
X7156015Y606897D01*
X7156138Y607194D01*
X7156811Y607867D01*
X7270482Y777988D01*
X7270485Y777993D01*
X7348783Y967020D01*
X7348784Y967023D01*
X7358974Y1018253D01*
X7388700Y1167697D01*
X7388700Y1372303D01*
X7348784Y1572978D01*
X7270484Y1762009D01*
X7156811Y1932133D01*
X7012133Y2076811D01*
X6842009Y2190484D01*
X6652978Y2268784D01*
X6452303Y2308700D01*
X6247697Y2308700D01*
X6047022Y2268784D01*
X5994173Y2246893D01*
X5857993Y2190485D01*
X5857988Y2190482D01*
X5687867Y2076811D01*
X5543188Y1932132D01*
X5429517Y1762011D01*
X5429514Y1762006D01*
X5351216Y1572979D01*
X5351215Y1572976D01*
X5311300Y1372303D01*
X5311300Y1167696D01*
X5351215Y967023D01*
X5351216Y967020D01*
X5429514Y777993D01*
X5429517Y777988D01*
X5543188Y607867D01*
X5543190Y607865D01*
X5543862Y607194D01*
X5543984Y606897D01*
X5545136Y605495D01*
X5544710Y605145D01*
X5562168Y563000D01*
X5543862Y518806D01*
X5499668Y500500D01*
X3171006Y500500D01*
X3126812Y518806D01*
X3108506Y563000D01*
X3126812Y607194D01*
X3149627Y621729D01*
X3359981Y698292D01*
X3359989Y698296D01*
X3608310Y830330D01*
X3608313Y830332D01*
X3835859Y995653D01*
X4038178Y1191031D01*
X4038180Y1191033D01*
X4211340Y1412667D01*
X4351969Y1656244D01*
X4406986Y1792416D01*
X4457327Y1917014D01*
X4457327Y1917015D01*
X4457330Y1917022D01*
X4525372Y2189925D01*
X4554772Y2469643D01*
X4544956Y2750729D01*
X4496116Y3027715D01*
X4409203Y3295207D01*
X4285907Y3548000D01*
X4128630Y3781174D01*
X3940431Y3990189D01*
X3724975Y4170978D01*
X3486455Y4320022D01*
X3229513Y4434420D01*
X2959150Y4511946D01*
X2773469Y4538041D01*
X2680631Y4551089D01*
X2680629Y4551089D01*
X2399371Y4551089D01*
X2399369Y4551089D01*
X2287962Y4535431D01*
X2120850Y4511946D01*
X1850487Y4434420D01*
X1593545Y4320022D01*
X1593541Y4320020D01*
X1498213Y4260452D01*
X1355025Y4170978D01*
X1249817Y4082698D01*
X1139569Y3990189D01*
X1139564Y3990185D01*
X951372Y3781177D01*
X794095Y3548003D01*
X794090Y3547994D01*
X670794Y3295201D01*
X622441Y3146382D01*
X591375Y3110007D01*
X543687Y3106254D01*
X507312Y3137320D01*
X500500Y3165695D01*
X500500Y6455610D01*
X518806Y6499804D01*
X563000Y6518110D01*
X597723Y6507577D01*
X625185Y6489226D01*
X625188Y6489225D01*
X752673Y6436419D01*
X888006Y6409500D01*
X888007Y6409500D01*
X2025993Y6409500D01*
X2161326Y6436419D01*
X2161327Y6436419D01*
X2288811Y6489225D01*
X2288813Y6489226D01*
X2403541Y6565885D01*
X2501114Y6663458D01*
X2577773Y6778186D01*
X2577774Y6778188D01*
X2577775Y6778189D01*
X2630580Y6905672D01*
X2657500Y7041007D01*
X2657500Y7178993D01*
X2630580Y7314328D01*
X2577775Y7441811D01*
X2501114Y7556542D01*
X2403542Y7654114D01*
X2288811Y7730775D01*
X2161328Y7783580D01*
X2025993Y7810500D01*
X888007Y7810500D01*
X752672Y7783580D01*
X625189Y7730775D01*
X625188Y7730774D01*
X625184Y7730772D01*
X612987Y7722622D01*
X597723Y7712422D01*
X550808Y7703090D01*
X511034Y7729665D01*
X500500Y7764389D01*
X500500Y8616774D01*
X4357500Y8616774D01*
X4357500Y8463225D01*
X4387454Y8312629D01*
X4387455Y8312626D01*
X4446214Y8170770D01*
X4446217Y8170766D01*
X4531522Y8043098D01*
X4640098Y7934522D01*
X4767766Y7849217D01*
X4767767Y7849216D01*
X4792266Y7839068D01*
X4826090Y7805242D01*
X4826089Y7757407D01*
X4803070Y7729359D01*
X4763756Y7703090D01*
X4690458Y7654114D01*
X4592885Y7556541D01*
X4516226Y7441813D01*
X4516225Y7441811D01*
X4463419Y7314327D01*
X4463419Y7314326D01*
X4436500Y7178993D01*
X4436500Y7041006D01*
X4463419Y6905673D01*
X4463419Y6905672D01*
X4516225Y6778188D01*
X4516226Y6778186D01*
X4592885Y6663458D01*
X4690458Y6565885D01*
X4805186Y6489226D01*
X4805188Y6489225D01*
X4932673Y6436419D01*
X5068006Y6409500D01*
X5068007Y6409500D01*
X6205993Y6409500D01*
X6341326Y6436419D01*
X6341327Y6436419D01*
X6468811Y6489225D01*
X6468813Y6489226D01*
X6583541Y6565885D01*
X6681114Y6663458D01*
X6757773Y6778186D01*
X6757774Y6778188D01*
X6757775Y6778189D01*
X6810580Y6905672D01*
X6837500Y7041007D01*
X6837500Y7178993D01*
X6810580Y7314328D01*
X6757775Y7441811D01*
X6681114Y7556542D01*
X6583542Y7654114D01*
X6468811Y7730775D01*
X6341328Y7783580D01*
X6205993Y7810500D01*
X5654323Y7810500D01*
X5610129Y7828806D01*
X5591823Y7873000D01*
X5610129Y7917194D01*
X5619597Y7924965D01*
X5633902Y7934523D01*
X5742477Y8043098D01*
X5827784Y8170768D01*
X5886545Y8312628D01*
X5916500Y8463226D01*
X5916500Y8616774D01*
X5886545Y8767372D01*
X5827784Y8909232D01*
X5742477Y9036902D01*
X5633902Y9145477D01*
X5506232Y9230784D01*
X5364372Y9289545D01*
X5213774Y9319500D01*
X5060226Y9319500D01*
X4909628Y9289545D01*
X4767768Y9230784D01*
X4640098Y9145477D01*
X4531522Y9036901D01*
X4446217Y8909233D01*
X4446214Y8909229D01*
X4387455Y8767373D01*
X4387454Y8767370D01*
X4357500Y8616774D01*
X500500Y8616774D01*
X500500Y11596772D01*
X6174900Y11596772D01*
X6174900Y11593110D01*
X6174900Y9867835D01*
X6174901Y9867827D01*
X6195486Y9790999D01*
X6195487Y9790997D01*
X6235259Y9722112D01*
X6235264Y9722106D01*
X7363094Y8594277D01*
X7381400Y8550083D01*
X7381400Y3538748D01*
X7363094Y3494554D01*
X7353623Y3486781D01*
X7266791Y3428762D01*
X7175737Y3337708D01*
X7104200Y3230645D01*
X7104197Y3230640D01*
X7054920Y3111675D01*
X7029800Y2985384D01*
X7029800Y2856615D01*
X7054920Y2730324D01*
X7104197Y2611359D01*
X7104200Y2611354D01*
X7175737Y2504291D01*
X7266791Y2413237D01*
X7373854Y2341700D01*
X7373859Y2341697D01*
X7492824Y2292420D01*
X7619115Y2267300D01*
X7619116Y2267300D01*
X7747884Y2267300D01*
X7874175Y2292420D01*
X7993140Y2341697D01*
X7993145Y2341700D01*
X8100208Y2413237D01*
X8191262Y2504291D01*
X8262799Y2611354D01*
X8262802Y2611359D01*
X8286968Y2669700D01*
X8312079Y2730323D01*
X8337200Y2856616D01*
X8337200Y2985384D01*
X8312079Y3111677D01*
X8262801Y3230643D01*
X8191262Y3337709D01*
X8100209Y3428762D01*
X8013376Y3486781D01*
X7986801Y3526555D01*
X7985600Y3538748D01*
X7985600Y8660947D01*
X8003906Y8705141D01*
X8048100Y8723447D01*
X8064276Y8721317D01*
X8088221Y8714901D01*
X8088227Y8714900D01*
X8088228Y8714900D01*
X8167772Y8714900D01*
X16231978Y8714900D01*
X16276172Y8696594D01*
X17002568Y7970196D01*
X17020874Y7926002D01*
X17019673Y7913809D01*
X16999300Y7811384D01*
X16999300Y7682615D01*
X17024420Y7556324D01*
X17073697Y7437359D01*
X17073700Y7437354D01*
X17145237Y7330291D01*
X17145239Y7330289D01*
X17236290Y7239239D01*
X17343354Y7167700D01*
X17343359Y7167697D01*
X17462324Y7118420D01*
X17588615Y7093300D01*
X17588616Y7093300D01*
X17717384Y7093300D01*
X17843675Y7118420D01*
X17962640Y7167697D01*
X17962645Y7167700D01*
X18069710Y7239239D01*
X18160762Y7330291D01*
X18232299Y7437354D01*
X18232302Y7437359D01*
X18281579Y7556324D01*
X18281622Y7556541D01*
X18306700Y7682616D01*
X18306700Y7811384D01*
X18281579Y7937677D01*
X18232301Y8056643D01*
X18160762Y8163709D01*
X18069709Y8254762D01*
X17962643Y8326301D01*
X17843677Y8375579D01*
X17717384Y8400700D01*
X17588616Y8400700D01*
X17486188Y8380326D01*
X17439272Y8389658D01*
X17429806Y8397426D01*
X16568494Y9258740D01*
X16499607Y9298513D01*
X16422772Y9319100D01*
X16422771Y9319100D01*
X8279022Y9319100D01*
X8234828Y9337406D01*
X7305406Y10266828D01*
X7287100Y10311022D01*
X7287100Y10442968D01*
X7305406Y10487162D01*
X7349600Y10505468D01*
X7384323Y10494935D01*
X7437354Y10459500D01*
X7437359Y10459497D01*
X7556324Y10410220D01*
X7682615Y10385100D01*
X7682616Y10385100D01*
X7811384Y10385100D01*
X7937675Y10410220D01*
X8056640Y10459497D01*
X8056645Y10459500D01*
X8099212Y10487942D01*
X8146129Y10497274D01*
X8185902Y10470698D01*
X8195234Y10423782D01*
X8182828Y10361412D01*
X8182828Y10232643D01*
X8207948Y10106352D01*
X8257225Y9987387D01*
X8257228Y9987382D01*
X8328765Y9880319D01*
X8419819Y9789265D01*
X8526882Y9717728D01*
X8526887Y9717725D01*
X8645852Y9668448D01*
X8772143Y9643328D01*
X8772144Y9643328D01*
X8900912Y9643328D01*
X9027203Y9668448D01*
X9146168Y9717725D01*
X9146173Y9717728D01*
X9253236Y9789265D01*
X9344290Y9880319D01*
X9415827Y9987382D01*
X9415830Y9987387D01*
X9460660Y10095616D01*
X9465107Y10106351D01*
X9490228Y10232644D01*
X9490228Y10361412D01*
X9490226Y10361418D01*
X9489980Y10363918D01*
X9503857Y10409696D01*
X9507984Y10414250D01*
X10457328Y11363594D01*
X10501522Y11381900D01*
X28614478Y11381900D01*
X28658672Y11363594D01*
X29639068Y10383196D01*
X29657374Y10339002D01*
X29656173Y10326809D01*
X29635800Y10224384D01*
X29635800Y10095615D01*
X29660920Y9969324D01*
X29710197Y9850359D01*
X29710200Y9850354D01*
X29781737Y9743291D01*
X29872791Y9652237D01*
X29979854Y9580700D01*
X29979859Y9580697D01*
X30098824Y9531420D01*
X30225115Y9506300D01*
X30225116Y9506300D01*
X30353884Y9506300D01*
X30480175Y9531420D01*
X30599140Y9580697D01*
X30599145Y9580700D01*
X30706208Y9652237D01*
X30797262Y9743291D01*
X30868799Y9850354D01*
X30868802Y9850359D01*
X30908989Y9947378D01*
X30918079Y9969323D01*
X30943200Y10095616D01*
X30943200Y10224384D01*
X30918079Y10350677D01*
X30868801Y10469643D01*
X30797262Y10576709D01*
X30706209Y10667762D01*
X30599143Y10739301D01*
X30486261Y10786058D01*
X30452438Y10819882D01*
X30452438Y10867718D01*
X30486261Y10901541D01*
X30529839Y10919592D01*
X30599140Y10948297D01*
X30599145Y10948300D01*
X30706208Y11019837D01*
X30797262Y11110891D01*
X30868799Y11217954D01*
X30868802Y11217959D01*
X30883668Y11253849D01*
X30918079Y11336923D01*
X30943200Y11463216D01*
X30943200Y11591984D01*
X30918079Y11718277D01*
X30868801Y11837243D01*
X30797262Y11944309D01*
X30706209Y12035362D01*
X30599143Y12106901D01*
X30480177Y12156179D01*
X30353884Y12181300D01*
X30225116Y12181300D01*
X30122688Y12160926D01*
X30075772Y12170258D01*
X30066307Y12178025D01*
X29820794Y12423540D01*
X29751907Y12463313D01*
X29675072Y12483900D01*
X29675071Y12483900D01*
X10395022Y12483900D01*
X10350828Y12502206D01*
X10332522Y12546400D01*
X10350828Y12590594D01*
X11477118Y13716884D01*
X13062300Y13716884D01*
X13062300Y13588115D01*
X13087420Y13461824D01*
X13136697Y13342859D01*
X13136700Y13342854D01*
X13208237Y13235791D01*
X13299291Y13144737D01*
X13406354Y13073200D01*
X13406359Y13073198D01*
X13525324Y13023920D01*
X13651615Y12998800D01*
X13651616Y12998800D01*
X13780384Y12998800D01*
X13906675Y13023920D01*
X14025641Y13073198D01*
X14025645Y13073200D01*
X14132708Y13144737D01*
X14223762Y13235791D01*
X14295299Y13342854D01*
X14295302Y13342859D01*
X14322430Y13408352D01*
X14344579Y13461823D01*
X14369700Y13588116D01*
X14369700Y13709394D01*
X14388006Y13753588D01*
X14563412Y13928994D01*
X14607606Y13947300D01*
X19120011Y13947300D01*
X19120027Y13947299D01*
X19123852Y13947299D01*
X19230153Y13947299D01*
X19311122Y13968996D01*
X19311123Y13968996D01*
X19332820Y13974810D01*
X19332822Y13974810D01*
X19403707Y14015736D01*
X19424878Y14027959D01*
X19424879Y14027960D01*
X19424883Y14027963D01*
X19431304Y14034384D01*
X23222300Y14034384D01*
X23222300Y13905615D01*
X23247420Y13779324D01*
X23296697Y13660359D01*
X23296699Y13660357D01*
X23302067Y13652323D01*
X23368237Y13553291D01*
X23459291Y13462237D01*
X23566354Y13390700D01*
X23566359Y13390697D01*
X23685324Y13341420D01*
X23811615Y13316300D01*
X23811616Y13316300D01*
X23940384Y13316300D01*
X24066675Y13341420D01*
X24185640Y13390697D01*
X24185645Y13390700D01*
X24292708Y13462237D01*
X24383762Y13553291D01*
X24441781Y13640123D01*
X24481555Y13666699D01*
X24493748Y13667900D01*
X25693771Y13667900D01*
X25693772Y13667900D01*
X25693773Y13667900D01*
X25693778Y13667901D01*
X25770606Y13688486D01*
X25770608Y13688487D01*
X25839493Y13728259D01*
X25839499Y13728264D01*
X28928206Y16816971D01*
X28972400Y16835277D01*
X29016594Y16816971D01*
X29034900Y16772777D01*
X29034900Y14460748D01*
X29016594Y14416554D01*
X29007123Y14408781D01*
X28920291Y14350762D01*
X28829237Y14259708D01*
X28757700Y14152645D01*
X28757697Y14152640D01*
X28708420Y14033675D01*
X28683300Y13907384D01*
X28683300Y13778615D01*
X28708420Y13652324D01*
X28757697Y13533359D01*
X28757700Y13533354D01*
X28829237Y13426291D01*
X28920291Y13335237D01*
X29027354Y13263700D01*
X29027359Y13263697D01*
X29146324Y13214420D01*
X29272615Y13189300D01*
X29272616Y13189300D01*
X29401384Y13189300D01*
X29527675Y13214420D01*
X29646640Y13263697D01*
X29646645Y13263700D01*
X29753708Y13335237D01*
X29844762Y13426291D01*
X29916299Y13533354D01*
X29916302Y13533359D01*
X29956007Y13629214D01*
X29965579Y13652323D01*
X29990700Y13778616D01*
X29990700Y13907384D01*
X29965579Y14033677D01*
X29916301Y14152643D01*
X29844762Y14259709D01*
X29753709Y14350762D01*
X29666876Y14408781D01*
X29640301Y14448555D01*
X29639100Y14460748D01*
X29639100Y16927240D01*
X29657406Y16971434D01*
X29911668Y17225697D01*
X29955862Y17244003D01*
X36318081Y17244003D01*
X36362275Y17225697D01*
X37644466Y15943506D01*
X37672589Y15915383D01*
X37700711Y15887260D01*
X37700715Y15887257D01*
X37769594Y15847489D01*
X37769603Y15847485D01*
X37846427Y15826901D01*
X37846433Y15826900D01*
X37846434Y15826900D01*
X37846435Y15826900D01*
X39663771Y15826900D01*
X39663772Y15826900D01*
X39663773Y15826900D01*
X39663778Y15826901D01*
X39740606Y15847486D01*
X39740608Y15847487D01*
X39809493Y15887259D01*
X39809499Y15887264D01*
X40873828Y16951594D01*
X40918022Y16969900D01*
X41038252Y16969900D01*
X41082446Y16951594D01*
X41090219Y16942123D01*
X41148237Y16855291D01*
X41239291Y16764237D01*
X41346354Y16692700D01*
X41346359Y16692697D01*
X41465324Y16643420D01*
X41591615Y16618300D01*
X41591616Y16618300D01*
X41720384Y16618300D01*
X41846675Y16643420D01*
X41965640Y16692697D01*
X41965645Y16692700D01*
X42072708Y16764237D01*
X42163762Y16855291D01*
X42235299Y16962354D01*
X42235302Y16962359D01*
X42284579Y17081324D01*
X42309700Y17207616D01*
X42309700Y17336384D01*
X42284579Y17462677D01*
X42235301Y17581643D01*
X42163762Y17688709D01*
X42072709Y17779762D01*
X41965643Y17851301D01*
X41846677Y17900579D01*
X41720384Y17925700D01*
X41591616Y17925700D01*
X41465323Y17900579D01*
X41381201Y17865734D01*
X41346359Y17851302D01*
X41346354Y17851299D01*
X41239291Y17779762D01*
X41148237Y17688708D01*
X41090219Y17601877D01*
X41050445Y17575301D01*
X41038252Y17574100D01*
X40806772Y17574100D01*
X40727228Y17574100D01*
X40727221Y17574098D01*
X40650393Y17553513D01*
X40650391Y17553512D01*
X40581506Y17513740D01*
X40581500Y17513735D01*
X40381360Y17313595D01*
X40337166Y17295289D01*
X40292972Y17313595D01*
X40275868Y17345594D01*
X40252579Y17462677D01*
X40203301Y17581643D01*
X40131762Y17688709D01*
X40040709Y17779762D01*
X39933643Y17851301D01*
X39814677Y17900579D01*
X39688384Y17925700D01*
X39559616Y17925700D01*
X39433323Y17900579D01*
X39349201Y17865734D01*
X39314359Y17851302D01*
X39314354Y17851299D01*
X39207291Y17779762D01*
X39116237Y17688708D01*
X39044700Y17581645D01*
X39044122Y17580563D01*
X39043801Y17580299D01*
X39042993Y17579090D01*
X39042626Y17579335D01*
X39007147Y17550214D01*
X38959541Y17554900D01*
X38935213Y17579227D01*
X38935007Y17579090D01*
X38934314Y17580126D01*
X38933878Y17580563D01*
X38933302Y17581640D01*
X38933301Y17581643D01*
X38861762Y17688709D01*
X38770709Y17779762D01*
X38663643Y17851301D01*
X38544677Y17900579D01*
X38418384Y17925700D01*
X38289616Y17925700D01*
X38187188Y17905326D01*
X38140272Y17914658D01*
X38130806Y17922426D01*
X37421894Y18631340D01*
X37353007Y18671113D01*
X37276172Y18691700D01*
X29331315Y18691700D01*
X29251771Y18691700D01*
X29251764Y18691698D01*
X29174936Y18671113D01*
X29174934Y18671112D01*
X29106049Y18631340D01*
X29106043Y18631335D01*
X26025772Y15551062D01*
X25981578Y15532756D01*
X25607348Y15532756D01*
X25563154Y15551062D01*
X25555381Y15560533D01*
X25549628Y15569143D01*
X25497362Y15647365D01*
X25406309Y15738418D01*
X25299243Y15809957D01*
X25180277Y15859235D01*
X25053984Y15884356D01*
X24925216Y15884356D01*
X24798923Y15859235D01*
X24714801Y15824390D01*
X24679959Y15809958D01*
X24679954Y15809955D01*
X24572891Y15738418D01*
X24481837Y15647364D01*
X24410300Y15540301D01*
X24410297Y15540296D01*
X24361020Y15421331D01*
X24335900Y15295040D01*
X24335900Y15166271D01*
X24361020Y15039980D01*
X24410297Y14921015D01*
X24410300Y14921010D01*
X24481837Y14813947D01*
X24572891Y14722893D01*
X24679954Y14651356D01*
X24679959Y14651353D01*
X24798924Y14602076D01*
X24925215Y14576956D01*
X24925216Y14576956D01*
X25053984Y14576956D01*
X25180275Y14602076D01*
X25299240Y14651353D01*
X25299245Y14651356D01*
X25406308Y14722893D01*
X25497362Y14813947D01*
X25555381Y14900779D01*
X25595155Y14927355D01*
X25607348Y14928556D01*
X26034434Y14928556D01*
X26078628Y14910250D01*
X26096934Y14866056D01*
X26078628Y14821862D01*
X25547172Y14290406D01*
X25502978Y14272100D01*
X24493748Y14272100D01*
X24449554Y14290406D01*
X24441781Y14299877D01*
X24437556Y14306200D01*
X24383762Y14386709D01*
X24292709Y14477762D01*
X24185643Y14549301D01*
X24066677Y14598579D01*
X23940384Y14623700D01*
X23811616Y14623700D01*
X23685323Y14598579D01*
X23616859Y14570220D01*
X23566359Y14549302D01*
X23566354Y14549299D01*
X23459291Y14477762D01*
X23368237Y14386708D01*
X23296700Y14279645D01*
X23296697Y14279640D01*
X23247420Y14160675D01*
X23222300Y14034384D01*
X19431304Y14034384D01*
X19503597Y14106677D01*
X19503609Y14106691D01*
X23902201Y18505283D01*
X23937514Y18521989D01*
X23937373Y18522701D01*
X23940210Y18523265D01*
X23940256Y18523287D01*
X23940381Y18523299D01*
X24066675Y18548420D01*
X24185640Y18597697D01*
X24185645Y18597700D01*
X24292708Y18669237D01*
X24378465Y18754994D01*
X24422659Y18773300D01*
X25216011Y18773300D01*
X25216027Y18773299D01*
X25219852Y18773299D01*
X25326153Y18773299D01*
X25407122Y18794996D01*
X25407123Y18794996D01*
X25428820Y18800810D01*
X25428822Y18800810D01*
X25474850Y18827385D01*
X25520878Y18853959D01*
X25520879Y18853960D01*
X25520883Y18853963D01*
X25599597Y18932677D01*
X25599609Y18932691D01*
X25857712Y19190794D01*
X25901906Y19209100D01*
X41934841Y19209100D01*
X41979035Y19190794D01*
X42064789Y19105039D01*
X42064791Y19105037D01*
X42171854Y19033500D01*
X42171859Y19033497D01*
X42290824Y18984220D01*
X42417115Y18959100D01*
X42417116Y18959100D01*
X42545884Y18959100D01*
X42672175Y18984220D01*
X42791140Y19033497D01*
X42791145Y19033500D01*
X42898208Y19105037D01*
X42989262Y19196091D01*
X43060799Y19303154D01*
X43060802Y19303159D01*
X43075234Y19338001D01*
X43110079Y19422123D01*
X43135200Y19548416D01*
X43135200Y19677184D01*
X43110079Y19803477D01*
X43060801Y19922443D01*
X42989262Y20029509D01*
X42898209Y20120562D01*
X42791143Y20192101D01*
X42672177Y20241379D01*
X42545884Y20266500D01*
X42417116Y20266500D01*
X42290823Y20241379D01*
X42206701Y20206534D01*
X42171859Y20192102D01*
X42171854Y20192099D01*
X42064791Y20120562D01*
X41979035Y20034806D01*
X41934841Y20016500D01*
X25765789Y20016500D01*
X25765773Y20016501D01*
X25761948Y20016501D01*
X25655652Y20016501D01*
X25574675Y19994802D01*
X25574674Y19994802D01*
X25552983Y19988991D01*
X25552981Y19988990D01*
X25552977Y19988989D01*
X25460922Y19935841D01*
X25460920Y19935839D01*
X25383576Y19858495D01*
X25383571Y19858489D01*
X25124088Y19599006D01*
X25079894Y19580700D01*
X24422659Y19580700D01*
X24378465Y19599006D01*
X24336117Y19641354D01*
X24292709Y19684762D01*
X24185643Y19756301D01*
X24066677Y19805579D01*
X23940384Y19830700D01*
X23811616Y19830700D01*
X23685323Y19805579D01*
X23623602Y19780013D01*
X23566359Y19756302D01*
X23566357Y19756301D01*
X23459291Y19684762D01*
X23368237Y19593708D01*
X23296700Y19486645D01*
X23296697Y19486640D01*
X23247420Y19367675D01*
X23222300Y19241384D01*
X23222300Y19112613D01*
X23239905Y19024104D01*
X23230572Y18977188D01*
X23222800Y18967718D01*
X19028088Y14773006D01*
X18983894Y14754700D01*
X14471489Y14754700D01*
X14471473Y14754701D01*
X14467648Y14754701D01*
X14361352Y14754701D01*
X14280375Y14733002D01*
X14280374Y14733002D01*
X14258683Y14727191D01*
X14258681Y14727190D01*
X14258677Y14727189D01*
X14166622Y14674041D01*
X14166620Y14674039D01*
X14089276Y14596695D01*
X14089271Y14596689D01*
X13817088Y14324506D01*
X13772894Y14306200D01*
X13651616Y14306200D01*
X13525323Y14281079D01*
X13473732Y14259709D01*
X13406359Y14231802D01*
X13406354Y14231799D01*
X13299291Y14160262D01*
X13208237Y14069208D01*
X13136700Y13962145D01*
X13136697Y13962140D01*
X13087420Y13843175D01*
X13062300Y13716884D01*
X11477118Y13716884D01*
X13358528Y15598294D01*
X13402722Y15616600D01*
X16364321Y15616600D01*
X16408515Y15598294D01*
X16599803Y15407006D01*
X16627926Y15378883D01*
X16656048Y15350760D01*
X16656052Y15350757D01*
X16724931Y15310989D01*
X16724940Y15310985D01*
X16801764Y15290401D01*
X16801770Y15290400D01*
X16801771Y15290400D01*
X16801772Y15290400D01*
X17626171Y15290400D01*
X17626172Y15290400D01*
X17626173Y15290400D01*
X17626178Y15290401D01*
X17703006Y15310986D01*
X17703008Y15310987D01*
X17771893Y15350759D01*
X17771899Y15350764D01*
X20688735Y18267600D01*
X20688742Y18267609D01*
X20724398Y18329366D01*
X20724399Y18329368D01*
X20728513Y18336494D01*
X20749098Y18413321D01*
X20749100Y18413329D01*
X20749100Y19538270D01*
X20749098Y19538278D01*
X20728514Y19615102D01*
X20728513Y19615106D01*
X20688740Y19683994D01*
X20632494Y19740240D01*
X20563606Y19780013D01*
X20486772Y19800600D01*
X18927278Y19800600D01*
X18927271Y19800598D01*
X18850447Y19780014D01*
X18850445Y19780013D01*
X18850444Y19780013D01*
X18809374Y19756301D01*
X18781556Y19740240D01*
X18781553Y19740238D01*
X18781551Y19740235D01*
X18707647Y19666331D01*
X18663453Y19648025D01*
X18651263Y19649225D01*
X18548834Y19669600D01*
X18420066Y19669600D01*
X18293773Y19644479D01*
X18222873Y19615111D01*
X18174809Y19595202D01*
X18174804Y19595199D01*
X18067741Y19523662D01*
X17976687Y19432608D01*
X17905150Y19325545D01*
X17905147Y19325540D01*
X17855870Y19206575D01*
X17830750Y19080284D01*
X17830750Y18951515D01*
X17855870Y18825224D01*
X17905147Y18706259D01*
X17905150Y18706254D01*
X17976687Y18599191D01*
X18067741Y18508137D01*
X18174804Y18436600D01*
X18174809Y18436597D01*
X18293774Y18387320D01*
X18420065Y18362200D01*
X18420066Y18362200D01*
X18548843Y18362200D01*
X18548996Y18362215D01*
X18549045Y18362200D01*
X18551904Y18362200D01*
X18551904Y18361332D01*
X18594769Y18348320D01*
X18617309Y18306128D01*
X18603414Y18260355D01*
X18599303Y18255821D01*
X18037488Y17694006D01*
X17993294Y17675700D01*
X13261148Y17675700D01*
X13154851Y17675700D01*
X13154844Y17675698D01*
X13052180Y17648190D01*
X13052177Y17648189D01*
X12960122Y17595041D01*
X12960120Y17595039D01*
X12882776Y17517695D01*
X12882771Y17517689D01*
X11268088Y15903006D01*
X11223894Y15884700D01*
X9068659Y15884700D01*
X9024465Y15903006D01*
X8983965Y15943506D01*
X8938709Y15988762D01*
X8831643Y16060301D01*
X8712677Y16109579D01*
X8586384Y16134700D01*
X8457616Y16134700D01*
X8331323Y16109579D01*
X8264291Y16081813D01*
X8212359Y16060302D01*
X8212354Y16060299D01*
X8105291Y15988762D01*
X8014237Y15897708D01*
X7942700Y15790645D01*
X7942697Y15790640D01*
X7893420Y15671675D01*
X7868300Y15545385D01*
X7868300Y15416615D01*
X7893420Y15290324D01*
X7942697Y15171359D01*
X7942700Y15171354D01*
X8014237Y15064291D01*
X8105291Y14973237D01*
X8212354Y14901700D01*
X8212359Y14901697D01*
X8331324Y14852420D01*
X8457615Y14827300D01*
X8457616Y14827300D01*
X8586384Y14827300D01*
X8712675Y14852420D01*
X8831640Y14901697D01*
X8831645Y14901700D01*
X8938708Y14973237D01*
X9024465Y15058994D01*
X9068659Y15077300D01*
X11197178Y15077300D01*
X11241372Y15058994D01*
X11259678Y15014800D01*
X11241372Y14970606D01*
X8910172Y12639406D01*
X8865978Y12621100D01*
X7278772Y12621100D01*
X7199228Y12621100D01*
X7199221Y12621098D01*
X7122393Y12600513D01*
X7122391Y12600512D01*
X7053506Y12560740D01*
X7053500Y12560735D01*
X6235264Y11742499D01*
X6235259Y11742493D01*
X6195487Y11673608D01*
X6195486Y11673606D01*
X6190570Y11655258D01*
X6190446Y11654794D01*
X6174900Y11596772D01*
X500500Y11596772D01*
X500500Y14396774D01*
X4357500Y14396774D01*
X4357500Y14243225D01*
X4387454Y14092629D01*
X4387455Y14092626D01*
X4446214Y13950770D01*
X4446217Y13950766D01*
X4531522Y13823098D01*
X4640098Y13714522D01*
X4767766Y13629217D01*
X4767770Y13629214D01*
X4909626Y13570455D01*
X4909629Y13570454D01*
X5060225Y13540500D01*
X5060226Y13540500D01*
X5213774Y13540500D01*
X5364370Y13570454D01*
X5364373Y13570455D01*
X5506229Y13629214D01*
X5506233Y13629217D01*
X5557410Y13663412D01*
X5633902Y13714523D01*
X5742477Y13823098D01*
X5827784Y13950768D01*
X5832495Y13962140D01*
X5862419Y14034384D01*
X5886545Y14092628D01*
X5916500Y14243226D01*
X5916500Y14396774D01*
X5886545Y14547372D01*
X5827784Y14689232D01*
X5742477Y14816902D01*
X5633902Y14925477D01*
X5619599Y14935033D01*
X5593024Y14974806D01*
X5602356Y15021723D01*
X5642129Y15048299D01*
X5654323Y15049500D01*
X6205993Y15049500D01*
X6341326Y15076419D01*
X6341327Y15076419D01*
X6468811Y15129225D01*
X6468813Y15129226D01*
X6583541Y15205885D01*
X6681114Y15303458D01*
X6757773Y15418186D01*
X6757774Y15418188D01*
X6757775Y15418189D01*
X6810580Y15545672D01*
X6823129Y15608759D01*
X6849705Y15648533D01*
X6896621Y15657865D01*
X6936395Y15631289D01*
X6946928Y15596566D01*
X6946928Y14067257D01*
X6946929Y14067249D01*
X6967514Y13990421D01*
X6967515Y13990419D01*
X7007287Y13921534D01*
X7007292Y13921528D01*
X7106596Y13822224D01*
X7124902Y13778030D01*
X7123701Y13765837D01*
X7103328Y13663412D01*
X7103328Y13534643D01*
X7128448Y13408352D01*
X7177725Y13289387D01*
X7177728Y13289382D01*
X7249265Y13182319D01*
X7340319Y13091265D01*
X7447382Y13019728D01*
X7447387Y13019725D01*
X7566352Y12970448D01*
X7692643Y12945328D01*
X7692644Y12945328D01*
X7821412Y12945328D01*
X7947703Y12970448D01*
X8066668Y13019725D01*
X8066673Y13019728D01*
X8173736Y13091265D01*
X8264790Y13182319D01*
X8336327Y13289382D01*
X8336330Y13289387D01*
X8355932Y13336711D01*
X8385607Y13408351D01*
X8410728Y13534644D01*
X8410728Y13663412D01*
X8385607Y13789705D01*
X8336329Y13908671D01*
X8264790Y14015737D01*
X8173737Y14106790D01*
X8066671Y14178329D01*
X7947705Y14227607D01*
X7821412Y14252728D01*
X7692644Y14252728D01*
X7625820Y14239436D01*
X7578905Y14248768D01*
X7552329Y14288542D01*
X7551128Y14300735D01*
X7551128Y16660952D01*
X7569434Y16705146D01*
X7578905Y16712919D01*
X7655708Y16764237D01*
X7746762Y16855291D01*
X7818299Y16962354D01*
X7818302Y16962359D01*
X7867579Y17081324D01*
X7892700Y17207616D01*
X7892700Y17336384D01*
X7867579Y17462677D01*
X7818301Y17581643D01*
X7746762Y17688709D01*
X7655709Y17779762D01*
X7548643Y17851301D01*
X7429677Y17900579D01*
X7303384Y17925700D01*
X7174616Y17925700D01*
X7048323Y17900579D01*
X6964201Y17865734D01*
X6929359Y17851302D01*
X6929354Y17851299D01*
X6822291Y17779762D01*
X6731237Y17688708D01*
X6659700Y17581645D01*
X6659697Y17581640D01*
X6610420Y17462675D01*
X6585300Y17336384D01*
X6585300Y17207615D01*
X6610420Y17081324D01*
X6659697Y16962359D01*
X6659700Y16962354D01*
X6731237Y16855291D01*
X6822291Y16764237D01*
X6919151Y16699518D01*
X6945727Y16659744D01*
X6946928Y16647551D01*
X6946928Y15903433D01*
X6928622Y15859239D01*
X6884428Y15840933D01*
X6840234Y15859239D01*
X6823129Y15891240D01*
X6818395Y15915040D01*
X6810580Y15954328D01*
X6757775Y16081811D01*
X6681114Y16196542D01*
X6583542Y16294114D01*
X6468811Y16370775D01*
X6341328Y16423580D01*
X6205993Y16450500D01*
X5068007Y16450500D01*
X4932672Y16423580D01*
X4805189Y16370775D01*
X4805188Y16370774D01*
X4805186Y16370773D01*
X4690458Y16294114D01*
X4592885Y16196541D01*
X4516226Y16081813D01*
X4516225Y16081811D01*
X4463419Y15954327D01*
X4463419Y15954326D01*
X4436500Y15818993D01*
X4436500Y15681006D01*
X4463419Y15545673D01*
X4463419Y15545672D01*
X4516225Y15418188D01*
X4516226Y15418186D01*
X4592885Y15303458D01*
X4690455Y15205888D01*
X4803071Y15130640D01*
X4829646Y15090866D01*
X4820314Y15043949D01*
X4792267Y15020932D01*
X4767768Y15010784D01*
X4651798Y14933295D01*
X4640098Y14925477D01*
X4531522Y14816901D01*
X4502192Y14773006D01*
X4448195Y14692193D01*
X4446217Y14689233D01*
X4446214Y14689229D01*
X4387455Y14547373D01*
X4387454Y14547370D01*
X4357500Y14396774D01*
X500500Y14396774D01*
X500500Y15095610D01*
X518806Y15139804D01*
X563000Y15158110D01*
X597723Y15147577D01*
X625185Y15129226D01*
X625188Y15129225D01*
X752673Y15076419D01*
X888006Y15049500D01*
X888007Y15049500D01*
X2025993Y15049500D01*
X2161326Y15076419D01*
X2161327Y15076419D01*
X2288811Y15129225D01*
X2288813Y15129226D01*
X2403541Y15205885D01*
X2501114Y15303458D01*
X2577773Y15418186D01*
X2577774Y15418188D01*
X2577775Y15418189D01*
X2630580Y15545672D01*
X2657500Y15681007D01*
X2657500Y15818993D01*
X2630580Y15954328D01*
X2577775Y16081811D01*
X2501114Y16196542D01*
X2403542Y16294114D01*
X2288811Y16370775D01*
X2161328Y16423580D01*
X2025993Y16450500D01*
X888007Y16450500D01*
X752672Y16423580D01*
X625189Y16370775D01*
X625188Y16370774D01*
X625184Y16370772D01*
X612987Y16362622D01*
X597723Y16352422D01*
X550808Y16343090D01*
X511034Y16369665D01*
X500500Y16404389D01*
X500500Y19678413D01*
X518806Y19722607D01*
X563000Y19740913D01*
X607194Y19722607D01*
X621674Y19698974D01*
X621852Y19699046D01*
X622279Y19697987D01*
X622443Y19697721D01*
X622671Y19697018D01*
X728030Y19436244D01*
X728031Y19436242D01*
X868660Y19192667D01*
X1041821Y18971031D01*
X1244140Y18775653D01*
X1471686Y18610332D01*
X1471689Y18610330D01*
X1720010Y18478296D01*
X1720017Y18478292D01*
X1984309Y18382098D01*
X1984310Y18382097D01*
X1984315Y18382096D01*
X1984322Y18382094D01*
X1984324Y18382094D01*
X2259422Y18323620D01*
X2259429Y18323619D01*
X2540000Y18304000D01*
X2820570Y18323619D01*
X2820577Y18323620D01*
X3060282Y18374571D01*
X3095685Y18382096D01*
X3245431Y18436599D01*
X3359982Y18478292D01*
X3359989Y18478296D01*
X3608310Y18610330D01*
X3608313Y18610332D01*
X3835859Y18775653D01*
X4038178Y18971031D01*
X4038180Y18971033D01*
X4211340Y19192667D01*
X4351969Y19436244D01*
X4372330Y19486640D01*
X4457327Y19697014D01*
X4457328Y19697018D01*
X4457330Y19697022D01*
X4525372Y19969925D01*
X4554772Y20249643D01*
X4544956Y20530729D01*
X4496116Y20807715D01*
X4409203Y21075207D01*
X4285907Y21328000D01*
X4181061Y21483440D01*
X4171525Y21530314D01*
X4197927Y21570203D01*
X4244803Y21579740D01*
X4259461Y21574532D01*
X4259520Y21574674D01*
X4262273Y21573533D01*
X4262331Y21573513D01*
X4262359Y21573498D01*
X4381324Y21524220D01*
X4507615Y21499100D01*
X4507616Y21499100D01*
X4636384Y21499100D01*
X4762675Y21524220D01*
X4881640Y21573497D01*
X4881645Y21573500D01*
X4988708Y21645037D01*
X5079762Y21736091D01*
X5137781Y21822923D01*
X5177555Y21849499D01*
X5189748Y21850700D01*
X14145178Y21850700D01*
X14189372Y21832394D01*
X15760260Y20261506D01*
X15780387Y20241379D01*
X15816505Y20205260D01*
X15816509Y20205257D01*
X15885388Y20165489D01*
X15885397Y20165485D01*
X15962221Y20144901D01*
X15962227Y20144900D01*
X15962228Y20144900D01*
X15962229Y20144900D01*
X23026771Y20144900D01*
X23026772Y20144900D01*
X23026773Y20144900D01*
X23026778Y20144901D01*
X23103606Y20165486D01*
X23103608Y20165487D01*
X23172493Y20205259D01*
X23172499Y20205264D01*
X23607583Y20640349D01*
X23651777Y20658655D01*
X23675694Y20653898D01*
X23789930Y20606580D01*
X23827022Y20591216D01*
X23827023Y20591215D01*
X24027696Y20551300D01*
X24027697Y20551300D01*
X24232303Y20551300D01*
X24432976Y20591215D01*
X24432979Y20591216D01*
X24622006Y20669514D01*
X24622011Y20669517D01*
X24792132Y20783188D01*
X24936811Y20927867D01*
X25050482Y21097988D01*
X25050485Y21097993D01*
X25128783Y21287020D01*
X25128784Y21287023D01*
X25128784Y21287024D01*
X25168700Y21487697D01*
X25168700Y21692303D01*
X25128784Y21892978D01*
X25050484Y22082009D01*
X24936811Y22252133D01*
X24936138Y22252806D01*
X24936015Y22253102D01*
X24934864Y22254505D01*
X24935289Y22254854D01*
X24917832Y22297000D01*
X24936138Y22341194D01*
X24980332Y22359500D01*
X25819668Y22359500D01*
X25863862Y22341194D01*
G37*
%TD.AperFunction*%
%TD*%
M02*
