%TF.GenerationSoftware,KiCad,Pcbnew,10.99.0-3671-gbe90a7e200*%
%TF.CreationDate,2026-09-08T00:13:21+01:00*%
%TF.ProjectId,kicad_file,6b696361-645f-4666-996c-652e6b696361,v10*%
%TF.SameCoordinates,Original*%
%TF.FileFunction,Copper,L1,Top*%
%TF.FilePolarity,Positive*%
%FSLAX46Y46*%
G04 Gerber Fmt 4.6, Leading zero omitted, Abs format (unit mm)*
G04 Created by KiCad (PCBNEW 10.99.0-3671-gbe90a7e200) date 2026-09-08 00:13:21*
%MOMM*%
%LPD*%
G01*
G04 APERTURE LIST*
G04 Aperture macros list*
%AMRoundRect*
0 Rectangle with rounded corners*
0 $1 Rounding radius*
0 $2 $3 $4 $5 $6 $7 $8 $9 X,Y pos of 4 corners*
0 Add a 4 corners polygon primitive as box body*
4,1,4,$2,$3,$4,$5,$6,$7,$8,$9,$2,$3,0*
0 Add four circle primitives for the rounded corners*
1,1,$1+$1,$2,$3*
1,1,$1+$1,$4,$5*
1,1,$1+$1,$6,$7*
1,1,$1+$1,$8,$9*
0 Add four rect primitives between the rounded corners*
20,1,$1+$1,$2,$3,$4,$5,0*
20,1,$1+$1,$4,$5,$6,$7,0*
20,1,$1+$1,$6,$7,$8,$9,0*
20,1,$1+$1,$8,$9,$2,$3,0*%
G04 Aperture macros list end*
%TA.AperFunction,EtchedComponent*%
%ADD10C,0.000000*%
%TD*%
%TA.AperFunction,SMDPad,CuDef*%
%ADD11C,0.500000*%
%TD*%
%TA.AperFunction,SMDPad,CuDef*%
%ADD12R,1.200000X0.550000*%
%TD*%
%TA.AperFunction,ComponentPad*%
%ADD13C,1.879600*%
%TD*%
%TA.AperFunction,SMDPad,CuDef*%
%ADD14R,0.660400X1.270000*%
%TD*%
%TA.AperFunction,SMDPad,CuDef*%
%ADD15RoundRect,0.200000X0.275000X-0.200000X0.275000X0.200000X-0.275000X0.200000X-0.275000X-0.200000X0*%
%TD*%
%TA.AperFunction,SMDPad,CuDef*%
%ADD16R,1.200000X0.600000*%
%TD*%
%TA.AperFunction,SMDPad,CuDef*%
%ADD17R,2.500000X1.200000*%
%TD*%
%TA.AperFunction,SMDPad,CuDef*%
%ADD18R,0.830000X0.630000*%
%TD*%
%TA.AperFunction,SMDPad,CuDef*%
%ADD19RoundRect,0.200000X-0.275000X0.200000X-0.275000X-0.200000X0.275000X-0.200000X0.275000X0.200000X0*%
%TD*%
%TA.AperFunction,SMDPad,CuDef*%
%ADD20RoundRect,0.200000X-0.200000X-0.275000X0.200000X-0.275000X0.200000X0.275000X-0.200000X0.275000X0*%
%TD*%
%TA.AperFunction,SMDPad,CuDef*%
%ADD21R,0.800000X0.900000*%
%TD*%
%TA.AperFunction,SMDPad,CuDef*%
%ADD22RoundRect,0.218750X-0.218750X-0.256250X0.218750X-0.256250X0.218750X0.256250X-0.218750X0.256250X0*%
%TD*%
%TA.AperFunction,SMDPad,CuDef*%
%ADD23RoundRect,0.218750X0.218750X0.256250X-0.218750X0.256250X-0.218750X-0.256250X0.218750X-0.256250X0*%
%TD*%
%TA.AperFunction,SMDPad,CuDef*%
%ADD24R,0.300000X1.000000*%
%TD*%
%TA.AperFunction,SMDPad,CuDef*%
%ADD25R,0.600000X1.000000*%
%TD*%
%TA.AperFunction,ComponentPad*%
%ADD26O,1.000000X1.600000*%
%TD*%
%TA.AperFunction,ComponentPad*%
%ADD27O,1.000000X2.100000*%
%TD*%
%TA.AperFunction,ViaPad*%
%ADD28C,0.560000*%
%TD*%
%TA.AperFunction,Conductor*%
%ADD29C,0.254000*%
%TD*%
%TA.AperFunction,Conductor*%
%ADD30C,0.558800*%
%TD*%
%TA.AperFunction,Conductor*%
%ADD31C,0.276860*%
%TD*%
%TA.AperFunction,Conductor*%
%ADD32C,0.246380*%
%TD*%
%TA.AperFunction,Conductor*%
%ADD33C,0.406400*%
%TD*%
G04 APERTURE END LIST*
D10*
%TA.AperFunction,EtchedComponent*%
%TO.C,JP3*%
G36*
X152418300Y-99538000D02*
G01*
X151918300Y-99538000D01*
X151918300Y-99238000D01*
X152418300Y-99238000D01*
X152418300Y-99538000D01*
G37*
%TD.AperFunction*%
%TA.AperFunction,EtchedComponent*%
%TO.C,JP2*%
G36*
X140045000Y-98046000D02*
G01*
X139545000Y-98046000D01*
X139545000Y-97746000D01*
X140045000Y-97746000D01*
X140045000Y-98046000D01*
G37*
%TD.AperFunction*%
%TD*%
D11*
%TO.P,FID3,*%
%TO.N,*%
X135398000Y-116073000D03*
%TD*%
D12*
%TO.P,D6,1,I/O1*%
%TO.N,Net-(D6-I{slash}O1)*%
X148724100Y-107871000D03*
%TO.P,D6,2,GND*%
%TO.N,GND*%
X148724100Y-106921000D03*
%TO.P,D6,3,I/O2*%
%TO.N,Net-(D6-I{slash}O2)*%
X148724100Y-105971000D03*
%TO.P,D6,4,I/O3*%
%TO.N,unconnected-(D6-I{slash}O3-Pad4)*%
X146123900Y-105971000D03*
%TO.P,D6,5,VCC*%
%TO.N,VUSB*%
X146124000Y-106921000D03*
%TO.P,D6,6,I/O4*%
%TO.N,unconnected-(D6-I{slash}O4-Pad6)*%
X146123900Y-107871000D03*
%TD*%
D13*
%TO.P,J5,1,Pin_1*%
%TO.N,GND*%
X135890000Y-97790000D03*
%TO.P,J5,2,Pin_2*%
%TO.N,VIN*%
X135890000Y-100330000D03*
%TO.P,J5,3,Pin_3*%
%TO.N,MY_RX*%
X135890000Y-102870000D03*
%TO.P,J5,4,Pin_4*%
%TO.N,MY_TX*%
X135890000Y-105410000D03*
%TO.P,J5,5,Pin_5*%
%TO.N,~{SD_DET}*%
X135890000Y-107950000D03*
%TO.P,J5,6,Pin_6*%
%TO.N,BUSY*%
X135890000Y-110490000D03*
%TD*%
D14*
%TO.P,JP3,1,A*%
%TO.N,GND*%
X152689000Y-99388000D03*
%TO.P,JP3,2,B*%
%TO.N,Net-(JP3-B)*%
X151647600Y-99388000D03*
%TD*%
D15*
%TO.P,R1,1*%
%TO.N,MY_RX_LV*%
X143468000Y-106597000D03*
%TO.P,R1,2*%
%TO.N,3.3V_P*%
X143468000Y-104947000D03*
%TD*%
D16*
%TO.P,U2,1,DACR*%
%TO.N,Net-(U2-DACR)*%
X159095000Y-115160000D03*
%TO.P,U2,2,BUSY*%
%TO.N,BUSY*%
X159095000Y-113890000D03*
%TO.P,U2,3,GND*%
%TO.N,GND*%
X159095000Y-112620000D03*
%TO.P,U2,4,VCC*%
%TO.N,VCC*%
X159095000Y-111350000D03*
%TO.P,U2,5,3V3_Reg*%
%TO.N,3.3V_P*%
X159095000Y-110080000D03*
%TO.P,U2,6,SDCLK*%
%TO.N,SD_CLK*%
X159095000Y-108810000D03*
%TO.P,U2,7,SDCMD*%
%TO.N,SD_CMD*%
X159095000Y-107540000D03*
%TO.P,U2,8,SDDAT*%
%TO.N,SD_DAT*%
X159095000Y-106270000D03*
%TO.P,U2,9,VCOM*%
%TO.N,Net-(U2-VCOM)*%
X153495000Y-106270000D03*
%TO.P,U2,10,DM*%
%TO.N,Net-(D6-I{slash}O2)*%
X153495000Y-107540000D03*
%TO.P,U2,11,DP*%
%TO.N,Net-(D6-I{slash}O1)*%
X153495000Y-108810000D03*
%TO.P,U2,12,RX*%
%TO.N,MY_RX_LV*%
X153495000Y-110080000D03*
%TO.P,U2,13,TX*%
%TO.N,MY_TX*%
X153495000Y-111350000D03*
%TO.P,U2,14,GND*%
%TO.N,GND*%
X153495000Y-112620000D03*
%TO.P,U2,15,VPN*%
%TO.N,Net-(U2-VPN)*%
X153495000Y-113890000D03*
%TO.P,U2,16,DACL*%
%TO.N,Net-(U2-DACL)*%
X153495000Y-115160000D03*
%TD*%
D13*
%TO.P,J3,1,Pin_1*%
%TO.N,VUSB*%
X140970000Y-113030000D03*
%TO.P,J3,2,Pin_2*%
%TO.N,GND*%
X140970000Y-115570000D03*
%TD*%
D11*
%TO.P,FID4,*%
%TO.N,*%
X159247000Y-92223000D03*
%TD*%
D17*
%TO.P,J1,R1*%
%TO.N,DAC_R*%
X150570000Y-97366000D03*
%TO.P,J1,R2*%
%TO.N,GND*%
X150570000Y-94366000D03*
%TO.P,J1,S*%
%TO.N,Net-(JP3-B)*%
X144070000Y-102466000D03*
%TO.P,J1,T*%
%TO.N,DAC_L*%
X150570000Y-101366000D03*
%TD*%
D18*
%TO.P,D3,1,K*%
%TO.N,Net-(D2-K)*%
X140971000Y-108991000D03*
%TO.P,D3,2,A*%
%TO.N,VUSB*%
X140971000Y-111291000D03*
%TD*%
D19*
%TO.P,R5,1*%
%TO.N,Net-(D1-A)*%
X153343000Y-94484000D03*
%TO.P,R5,2*%
%TO.N,Net-(JP1-A)*%
X153343000Y-96134000D03*
%TD*%
D20*
%TO.P,R2,1*%
%TO.N,Net-(J4-CC2)*%
X149156000Y-109228000D03*
%TO.P,R2,2*%
%TO.N,GND*%
X150806000Y-109228000D03*
%TD*%
D13*
%TO.P,J2,1,Pin_1*%
%TO.N,DAC_R*%
X158750000Y-97790000D03*
%TO.P,J2,2,Pin_2*%
%TO.N,DAC_L*%
X158750000Y-100330000D03*
%TO.P,J2,3,Pin_3*%
%TO.N,GND*%
X158750000Y-102870000D03*
%TD*%
D19*
%TO.P,R9,1*%
%TO.N,Net-(D4-A)*%
X141113000Y-94426000D03*
%TO.P,R9,2*%
%TO.N,Net-(JP2-A)*%
X141113000Y-96076000D03*
%TD*%
D21*
%TO.P,Q1,1,G*%
%TO.N,3.3V_P*%
X139969000Y-106771000D03*
%TO.P,Q1,2,S*%
%TO.N,MY_RX_LV*%
X141869000Y-106771000D03*
%TO.P,Q1,3,D*%
%TO.N,MY_RX*%
X140919000Y-104671000D03*
%TD*%
D22*
%TO.P,D1,1,K*%
%TO.N,GND*%
X151832500Y-93082000D03*
%TO.P,D1,2,A*%
%TO.N,Net-(D1-A)*%
X153407500Y-93082000D03*
%TD*%
D20*
%TO.P,R4,1*%
%TO.N,MY_RX*%
X140094000Y-103115000D03*
%TO.P,R4,2*%
%TO.N,VCC*%
X141744000Y-103115000D03*
%TD*%
D18*
%TO.P,D2,1,K*%
%TO.N,Net-(D2-K)*%
X141976000Y-100495000D03*
%TO.P,D2,2,A*%
%TO.N,VIN*%
X141976000Y-98195000D03*
%TD*%
D23*
%TO.P,D4,1,K*%
%TO.N,GND*%
X143022500Y-92998000D03*
%TO.P,D4,2,A*%
%TO.N,Net-(D4-A)*%
X141447500Y-92998000D03*
%TD*%
D20*
%TO.P,R3,1*%
%TO.N,GND*%
X144369000Y-109280000D03*
%TO.P,R3,2*%
%TO.N,Net-(J4-CC1)*%
X146019000Y-109280000D03*
%TD*%
D24*
%TO.P,J4,A5,CC1*%
%TO.N,Net-(J4-CC1)*%
X146070000Y-111084000D03*
%TO.P,J4,A6,D+*%
%TO.N,Net-(D6-I{slash}O1)*%
X147070000Y-111084000D03*
%TO.P,J4,A7,D-*%
%TO.N,Net-(D6-I{slash}O2)*%
X147570000Y-111084000D03*
%TO.P,J4,A8,NC*%
%TO.N,unconnected-(J4-NC-PadA8)*%
X148570000Y-111084000D03*
%TO.P,J4,B5,CC2*%
%TO.N,Net-(J4-CC2)*%
X149070000Y-111084000D03*
%TO.P,J4,B6,D+*%
%TO.N,Net-(D6-I{slash}O1)*%
X148070000Y-111084000D03*
%TO.P,J4,B7,D-*%
%TO.N,Net-(D6-I{slash}O2)*%
X146570000Y-111084000D03*
%TO.P,J4,B8,NC*%
%TO.N,unconnected-(J4-NC-PadB8)*%
X145570000Y-111084000D03*
D25*
%TO.P,J4,GND,GND*%
%TO.N,GND*%
X144095000Y-111084000D03*
X150545000Y-111084000D03*
D26*
%TO.P,J4,NC1,NC*%
%TO.N,unconnected-(J4-NC-PadNC1)*%
X143002000Y-115839000D03*
D27*
%TO.P,J4,NC2,NC*%
%TO.N,unconnected-(J4-NC-PadNC2)*%
X143002000Y-111659000D03*
%TO.P,J4,NC3,NC*%
%TO.N,unconnected-(J4-NC-PadNC3)*%
X151638000Y-111659000D03*
D26*
%TO.P,J4,S,SHIELD*%
%TO.N,GND*%
X151638000Y-115839000D03*
D25*
%TO.P,J4,VBUS,VBUS*%
%TO.N,VUSB*%
X144870000Y-111084000D03*
X149770000Y-111084000D03*
%TD*%
D14*
%TO.P,JP2,1,A*%
%TO.N,Net-(JP2-A)*%
X140315700Y-97896000D03*
%TO.P,JP2,2,B*%
%TO.N,VCC*%
X139274300Y-97896000D03*
%TD*%
D28*
%TO.N,GND*%
X134985000Y-114564000D03*
X138104000Y-111666000D03*
X159644000Y-116447000D03*
X147818709Y-98656801D03*
X144135000Y-116309000D03*
X157381000Y-112709000D03*
X157965000Y-114571000D03*
X144565000Y-99277000D03*
X149861000Y-110142000D03*
X136572000Y-116437000D03*
X152329000Y-108856000D03*
X144552000Y-107406000D03*
X149837000Y-91879000D03*
X150408000Y-116399000D03*
X137428000Y-91875000D03*
X150610000Y-94605000D03*
X154644000Y-110344000D03*
X145153000Y-96182000D03*
X153671000Y-103433600D03*
X148650000Y-95900000D03*
X156503148Y-91882038D03*
X154631000Y-108567000D03*
X156216000Y-108488000D03*
X152472731Y-105876941D03*
X145590000Y-116322000D03*
X142789000Y-109241000D03*
X158072000Y-116387000D03*
X137060000Y-109521000D03*
X152400000Y-95899000D03*
X138740000Y-106920000D03*
X134946000Y-94003000D03*
X150352402Y-106586000D03*
X154627000Y-112480000D03*
X144010900Y-91802745D03*
X149343000Y-116373000D03*
X159718664Y-94317318D03*
X156685000Y-105739000D03*
%TO.N,3.3V_P*%
X154690000Y-109498500D03*
X141173000Y-107675000D03*
X157629856Y-109619256D03*
X146513000Y-104650000D03*
%TO.N,BUSY*%
X157703000Y-111357000D03*
X143016000Y-114121000D03*
%TO.N,~{SD_DET}*%
X138660000Y-108935000D03*
%TO.N,Net-(U2-VPN)*%
X152343178Y-113408754D03*
%TO.N,Net-(U2-VCOM)*%
X156289800Y-107464000D03*
%TO.N,DAC_L*%
X154664000Y-101267000D03*
%TO.N,SD_CMD*%
X150670000Y-104594000D03*
%TO.N,SD_CLK*%
X152774000Y-105075000D03*
%TO.N,SD_DAT*%
X153105000Y-103919000D03*
%TO.N,MY_RX_LV*%
X143467000Y-108562000D03*
X152605000Y-110090000D03*
%TO.N,Net-(JP1-A)*%
X156299000Y-101939000D03*
X153960000Y-102500000D03*
X153357000Y-96969000D03*
%TO.N,Net-(D2-K)*%
X137894000Y-101825000D03*
X139025000Y-109749000D03*
%TO.N,VUSB*%
X145512332Y-112328930D03*
X146209000Y-112336000D03*
%TO.N,VCC*%
X138505000Y-98533000D03*
X138940000Y-111665000D03*
X141838000Y-104126000D03*
X158032000Y-112293000D03*
X139628000Y-111661000D03*
%TO.N,Net-(U2-DACR)*%
X159130000Y-115838000D03*
%TO.N,Net-(U2-DACL)*%
X155283000Y-114863000D03*
%TD*%
%TO.N,3.3V_P*%
D29*
X144887000Y-104650000D02*
X146513000Y-104650000D01*
X142441000Y-105974000D02*
X140766000Y-105974000D01*
X158090600Y-110080000D02*
X159095000Y-110080000D01*
X141173000Y-107675000D02*
X140873000Y-107675000D01*
X143468000Y-104947000D02*
X144590000Y-104947000D01*
X140873000Y-107675000D02*
X139969000Y-106771000D01*
X144590000Y-104947000D02*
X144887000Y-104650000D01*
X143468000Y-104947000D02*
X142441000Y-105974000D01*
X140766000Y-105974000D02*
X139969000Y-106771000D01*
X157629856Y-109619256D02*
X158090600Y-110080000D01*
%TO.N,MY_RX*%
X138807000Y-102870000D02*
X139052000Y-103115000D01*
X140919000Y-104671000D02*
X140094000Y-103846000D01*
X139052000Y-103115000D02*
X140094000Y-103115000D01*
X135890000Y-102870000D02*
X138807000Y-102870000D01*
X140094000Y-103846000D02*
X140094000Y-103115000D01*
%TO.N,BUSY*%
X156681000Y-113890000D02*
X156680000Y-113889000D01*
X152615600Y-114469400D02*
X154523600Y-114469400D01*
X157703000Y-111357000D02*
X156680000Y-112380000D01*
X159095000Y-113890000D02*
X156681000Y-113890000D01*
X156680000Y-112380000D02*
X156680000Y-113889000D01*
X155104000Y-113889000D02*
X156680000Y-113889000D01*
X154523600Y-114469400D02*
X155104000Y-113889000D01*
X152267200Y-114121000D02*
X152615600Y-114469400D01*
X143016000Y-114121000D02*
X152267200Y-114121000D01*
%TO.N,MY_TX*%
X141596800Y-108328000D02*
X138808000Y-108328000D01*
X151468000Y-113482000D02*
X143167000Y-113482000D01*
X152503000Y-112447000D02*
X151468000Y-113482000D01*
X152503000Y-111631000D02*
X152503000Y-112447000D01*
X153495000Y-111350000D02*
X152784000Y-111350000D01*
X138808000Y-108328000D02*
X135890000Y-105410000D01*
X143167000Y-113482000D02*
X141723000Y-112038000D01*
X141723000Y-112038000D02*
X141723000Y-108454200D01*
X152784000Y-111350000D02*
X152503000Y-111631000D01*
X141723000Y-108454200D02*
X141596800Y-108328000D01*
%TO.N,~{SD_DET}*%
X137675000Y-107950000D02*
X135890000Y-107950000D01*
X138660000Y-108935000D02*
X137675000Y-107950000D01*
%TO.N,Net-(JP3-B)*%
X151647600Y-99388000D02*
X149710000Y-99388000D01*
X149710000Y-99388000D02*
X146632000Y-102466000D01*
X146632000Y-102466000D02*
X144070000Y-102466000D01*
%TO.N,VIN*%
D30*
X140478000Y-100330000D02*
X141976000Y-98832000D01*
X141976000Y-98832000D02*
X141976000Y-98195000D01*
X135890000Y-100330000D02*
X140478000Y-100330000D01*
%TO.N,Net-(D6-I{slash}O2)*%
D31*
X146844399Y-110134000D02*
X146565000Y-110413399D01*
D32*
X147570000Y-110134000D02*
X147605000Y-110099000D01*
D31*
X148240300Y-105971000D02*
X148724100Y-105971000D01*
X147570000Y-111084000D02*
X147570000Y-110466000D01*
X147605000Y-110099000D02*
X147616000Y-110088000D01*
X147570000Y-110134000D02*
X146844399Y-110134000D01*
X150962000Y-105971000D02*
X148724100Y-105971000D01*
X147617000Y-110419000D02*
X147617000Y-110111000D01*
X146565000Y-110413399D02*
X146565000Y-111079000D01*
X147616000Y-106595300D02*
X148240300Y-105971000D01*
D32*
X147609000Y-110103000D02*
X147605000Y-110099000D01*
D31*
X147570000Y-110466000D02*
X147617000Y-110419000D01*
X147617000Y-110111000D02*
X147609000Y-110103000D01*
D32*
X146565000Y-111079000D02*
X146570000Y-111084000D01*
D31*
X147616000Y-110088000D02*
X147616000Y-106595300D01*
X153495000Y-107540000D02*
X152531000Y-107540000D01*
X152531000Y-107540000D02*
X150962000Y-105971000D01*
%TO.N,Net-(D6-I{slash}O1)*%
X153155000Y-108810000D02*
X151536000Y-107191000D01*
X147070000Y-111780000D02*
X147070000Y-111084000D01*
X148724100Y-107871000D02*
X148457000Y-107871000D01*
X148070000Y-111733000D02*
X147869000Y-111934000D01*
X151536000Y-107191000D02*
X150112335Y-107191000D01*
X150112335Y-107191000D02*
X149432335Y-107871000D01*
X153495000Y-108810000D02*
X153155000Y-108810000D01*
X147869000Y-111934000D02*
X147224000Y-111934000D01*
X147224000Y-111934000D02*
X147070000Y-111780000D01*
X148070000Y-108258000D02*
X148070000Y-111084000D01*
X148070000Y-111084000D02*
X148070000Y-111733000D01*
X148457000Y-107871000D02*
X148070000Y-108258000D01*
X149432335Y-107871000D02*
X148724100Y-107871000D01*
%TO.N,Net-(U2-VPN)*%
D29*
X153306200Y-113890000D02*
X153495000Y-113890000D01*
X152343178Y-113408754D02*
X152824954Y-113408754D01*
X152824954Y-113408754D02*
X153306200Y-113890000D01*
%TO.N,Net-(U2-VCOM)*%
X155095800Y-106270000D02*
X153495000Y-106270000D01*
X156289800Y-107464000D02*
X155095800Y-106270000D01*
%TO.N,Net-(D4-A)*%
X141113000Y-93332500D02*
X141447500Y-92998000D01*
X141113000Y-94426000D02*
X141113000Y-93332500D01*
%TO.N,DAC_L*%
D33*
X154664000Y-101267000D02*
X154565000Y-101366000D01*
X154565000Y-101366000D02*
X150570000Y-101366000D01*
X154664000Y-101267000D02*
X155601000Y-100330000D01*
X155601000Y-100330000D02*
X158750000Y-100330000D01*
%TO.N,DAC_R*%
X150994000Y-97790000D02*
X158750000Y-97790000D01*
X150570000Y-97366000D02*
X150994000Y-97790000D01*
%TO.N,Net-(J4-CC1)*%
D29*
X146070000Y-111084000D02*
X146070000Y-109331000D01*
X146070000Y-109331000D02*
X146019000Y-109280000D01*
%TO.N,Net-(J4-CC2)*%
X149070000Y-111084000D02*
X149070000Y-109314000D01*
X149070000Y-109314000D02*
X149156000Y-109228000D01*
%TO.N,SD_CMD*%
X158215600Y-106849400D02*
X158906200Y-107540000D01*
X158215600Y-105486600D02*
X158215600Y-106849400D01*
X157207400Y-104478400D02*
X158215600Y-105486600D01*
X150670000Y-104594000D02*
X150785600Y-104478400D01*
X150785600Y-104478400D02*
X157207400Y-104478400D01*
X158906200Y-107540000D02*
X159095000Y-107540000D01*
%TO.N,SD_CLK*%
X152812000Y-105037000D02*
X156917000Y-105037000D01*
X158906200Y-108810000D02*
X159095000Y-108810000D01*
X157809200Y-107713000D02*
X158906200Y-108810000D01*
X152774000Y-105075000D02*
X152812000Y-105037000D01*
X156917000Y-105037000D02*
X157809200Y-105929200D01*
X157809200Y-105929200D02*
X157809200Y-107713000D01*
%TO.N,SD_DAT*%
X157343000Y-103993000D02*
X159095000Y-105745000D01*
X153179000Y-103993000D02*
X157343000Y-103993000D01*
X153105000Y-103919000D02*
X153179000Y-103993000D01*
X159095000Y-105745000D02*
X159095000Y-106270000D01*
%TO.N,Net-(JP2-A)*%
X140315700Y-96873300D02*
X141113000Y-96076000D01*
X140315700Y-97896000D02*
X140315700Y-96873300D01*
%TO.N,MY_RX_LV*%
X153495000Y-110080000D02*
X152615000Y-110080000D01*
X143468000Y-108561000D02*
X143467000Y-108562000D01*
X152615000Y-110080000D02*
X152605000Y-110090000D01*
X143468000Y-106597000D02*
X143468000Y-108561000D01*
X142542000Y-106771000D02*
X142716000Y-106597000D01*
X141869000Y-106771000D02*
X142542000Y-106771000D01*
X142716000Y-106597000D02*
X143468000Y-106597000D01*
%TO.N,Net-(D1-A)*%
X153407500Y-94419500D02*
X153343000Y-94484000D01*
X153407500Y-93082000D02*
X153407500Y-94419500D01*
%TO.N,Net-(JP1-A)*%
X153343000Y-96134000D02*
X153343000Y-96955000D01*
X155738000Y-102500000D02*
X156299000Y-101939000D01*
X153960000Y-102500000D02*
X155738000Y-102500000D01*
X153343000Y-96955000D02*
X153357000Y-96969000D01*
%TO.N,Net-(D2-K)*%
D30*
X140213000Y-109749000D02*
X140971000Y-108991000D01*
X141976000Y-101471000D02*
X141976000Y-100495000D01*
X139025000Y-109749000D02*
X140213000Y-109749000D01*
X141617000Y-101830000D02*
X141976000Y-101471000D01*
X141617000Y-101830000D02*
X137899000Y-101830000D01*
X137899000Y-101830000D02*
X137894000Y-101825000D01*
%TO.N,VUSB*%
D29*
X145153000Y-110047000D02*
X145153000Y-107127000D01*
X144870000Y-111084000D02*
X144870000Y-110330000D01*
X144870000Y-110330000D02*
X145153000Y-110047000D01*
D30*
X140970000Y-113030000D02*
X140970000Y-111292000D01*
D29*
X145359000Y-106921000D02*
X146124000Y-106921000D01*
D30*
X140970000Y-111292000D02*
X140971000Y-111291000D01*
D29*
X145153000Y-107127000D02*
X145359000Y-106921000D01*
%TO.N,VCC*%
X159095000Y-111350000D02*
X158975000Y-111350000D01*
X138513000Y-98525000D02*
X138505000Y-98533000D01*
X139274300Y-97896000D02*
X138639000Y-97896000D01*
X158975000Y-111350000D02*
X158032000Y-112293000D01*
X138513000Y-98022000D02*
X138513000Y-98525000D01*
X141838000Y-103209000D02*
X141838000Y-104126000D01*
X138639000Y-97896000D02*
X138513000Y-98022000D01*
X141744000Y-103115000D02*
X141838000Y-103209000D01*
%TO.N,Net-(U2-DACR)*%
X159095000Y-115803000D02*
X159130000Y-115838000D01*
X159095000Y-115160000D02*
X159095000Y-115803000D01*
%TO.N,Net-(U2-DACL)*%
X155283000Y-114863000D02*
X154986000Y-115160000D01*
X154986000Y-115160000D02*
X153495000Y-115160000D01*
%TD*%
%TA.AperFunction,Conductor*%
%TO.N,VUSB*%
G36*
X145143192Y-110582415D02*
G01*
X145210215Y-110602148D01*
X145255932Y-110654985D01*
X145267100Y-110706415D01*
X145267100Y-111599054D01*
X145275972Y-111643658D01*
X145275973Y-111643661D01*
X145282024Y-111652716D01*
X145309766Y-111694234D01*
X145360342Y-111728028D01*
X145360343Y-111728028D01*
X145360345Y-111728029D01*
X145382642Y-111732464D01*
X145404943Y-111736900D01*
X145735056Y-111736899D01*
X145779658Y-111728028D01*
X145779658Y-111728027D01*
X145791637Y-111725645D01*
X145792275Y-111728853D01*
X145842003Y-111723502D01*
X145851279Y-111726225D01*
X145860341Y-111728027D01*
X145860342Y-111728028D01*
X145904943Y-111736900D01*
X146235056Y-111736899D01*
X146279658Y-111728028D01*
X146279658Y-111728027D01*
X146291637Y-111725645D01*
X146292275Y-111728853D01*
X146342003Y-111723502D01*
X146351279Y-111726225D01*
X146360341Y-111728027D01*
X146360342Y-111728028D01*
X146404943Y-111736900D01*
X146661696Y-111736899D01*
X146728735Y-111756583D01*
X146774490Y-111809387D01*
X146781468Y-111828798D01*
X146798524Y-111892449D01*
X146836878Y-111958881D01*
X147045119Y-112167122D01*
X147111551Y-112205476D01*
X147185646Y-112225330D01*
X147185649Y-112225330D01*
X147907351Y-112225330D01*
X147907354Y-112225330D01*
X147981449Y-112205476D01*
X148047881Y-112167122D01*
X148303122Y-111911881D01*
X148341476Y-111845449D01*
X148345935Y-111828807D01*
X148382295Y-111769149D01*
X148445141Y-111738617D01*
X148465699Y-111736899D01*
X148735056Y-111736899D01*
X148779658Y-111728028D01*
X148779658Y-111728027D01*
X148791637Y-111725645D01*
X148792275Y-111728853D01*
X148842003Y-111723502D01*
X148851279Y-111726225D01*
X148860341Y-111728027D01*
X148860342Y-111728028D01*
X148904943Y-111736900D01*
X149235056Y-111736899D01*
X149279658Y-111728028D01*
X149330234Y-111694234D01*
X149364028Y-111643658D01*
X149372900Y-111599057D01*
X149372899Y-110709584D01*
X149392583Y-110642546D01*
X149445387Y-110596791D01*
X149496985Y-110585585D01*
X149942639Y-110585910D01*
X150009665Y-110605643D01*
X150055381Y-110658481D01*
X150066548Y-110709358D01*
X150070223Y-111535198D01*
X150050837Y-111602325D01*
X149998237Y-111648314D01*
X149993679Y-111650310D01*
X149987869Y-111652716D01*
X149856635Y-111728485D01*
X149856632Y-111728487D01*
X149749487Y-111835632D01*
X149749485Y-111835635D01*
X149673719Y-111966863D01*
X149634500Y-112113234D01*
X149634500Y-112264765D01*
X149673719Y-112411136D01*
X149711602Y-112476750D01*
X149749485Y-112542365D01*
X149749487Y-112542367D01*
X149827949Y-112620829D01*
X149861434Y-112682152D01*
X149856450Y-112751844D01*
X149814578Y-112807777D01*
X149749114Y-112832194D01*
X149740087Y-112832510D01*
X144906600Y-112825460D01*
X144839589Y-112805678D01*
X144793912Y-112752807D01*
X144784069Y-112683634D01*
X144813187Y-112620121D01*
X144819072Y-112613807D01*
X144890515Y-112542365D01*
X144966281Y-112411135D01*
X145005500Y-112264766D01*
X145005500Y-112113234D01*
X144966281Y-111966865D01*
X144961671Y-111958881D01*
X144934536Y-111911881D01*
X144890515Y-111835635D01*
X144783365Y-111728485D01*
X144652135Y-111652719D01*
X144652134Y-111652718D01*
X144645096Y-111648655D01*
X144646426Y-111646349D01*
X144602246Y-111610728D01*
X144580198Y-111544428D01*
X144580124Y-111541084D01*
X144573060Y-110707141D01*
X144592176Y-110639938D01*
X144644591Y-110593737D01*
X144697145Y-110582091D01*
X145143192Y-110582415D01*
G37*
%TD.AperFunction*%
%TD*%
%TA.AperFunction,Conductor*%
%TO.N,GND*%
G36*
X134777442Y-108153263D02*
G01*
X134796928Y-108196017D01*
X134799430Y-108211816D01*
X134846178Y-108355695D01*
X134853816Y-108379202D01*
X134911446Y-108492307D01*
X134933715Y-108536012D01*
X135037161Y-108678393D01*
X135161607Y-108802839D01*
X135303988Y-108906285D01*
X135460799Y-108986184D01*
X135628178Y-109040568D01*
X135802004Y-109068100D01*
X135802006Y-109068100D01*
X135977994Y-109068100D01*
X135977996Y-109068100D01*
X136151822Y-109040568D01*
X136319201Y-108986184D01*
X136476012Y-108906285D01*
X136618393Y-108802839D01*
X136742839Y-108678393D01*
X136846285Y-108536012D01*
X136926184Y-108379201D01*
X136936948Y-108346071D01*
X136941919Y-108330770D01*
X136956245Y-108303830D01*
X136961515Y-108297084D01*
X136966140Y-108291164D01*
X137011186Y-108260782D01*
X137012612Y-108260373D01*
X137018440Y-108258703D01*
X137042660Y-108255300D01*
X137496631Y-108255300D01*
X137526695Y-108260601D01*
X137548828Y-108268657D01*
X137551065Y-108269471D01*
X137583156Y-108289915D01*
X138164997Y-108871756D01*
X138182505Y-108896760D01*
X138193464Y-108920263D01*
X138201700Y-108957410D01*
X138201700Y-108995335D01*
X138232930Y-109111893D01*
X138232931Y-109111895D01*
X138232932Y-109111897D01*
X138293268Y-109216403D01*
X138378597Y-109301732D01*
X138483103Y-109362068D01*
X138483105Y-109362068D01*
X138483106Y-109362069D01*
X138561944Y-109383193D01*
X138589609Y-109396093D01*
X138599961Y-109403341D01*
X138634449Y-109452594D01*
X138634449Y-109452596D01*
X138635099Y-109455022D01*
X138634024Y-109504209D01*
X138633181Y-109506882D01*
X138625476Y-109524391D01*
X138597930Y-109572104D01*
X138597930Y-109572105D01*
X138566700Y-109688662D01*
X138566700Y-109809336D01*
X138597925Y-109925878D01*
X138597934Y-109925906D01*
X138597959Y-109925981D01*
X138598583Y-109927024D01*
X138658268Y-110030403D01*
X138743597Y-110115732D01*
X138848103Y-110176068D01*
X138848104Y-110176068D01*
X138848105Y-110176068D01*
X138848106Y-110176069D01*
X138964664Y-110207300D01*
X139086503Y-110207300D01*
X139092790Y-110206888D01*
X139098538Y-110206700D01*
X140273257Y-110206700D01*
X140273258Y-110206700D01*
X140389666Y-110175508D01*
X140494035Y-110115251D01*
X141088282Y-109521001D01*
X141101239Y-109514959D01*
X141113289Y-109503492D01*
X141136793Y-109492533D01*
X141173938Y-109484299D01*
X141314300Y-109484299D01*
X141344358Y-109489597D01*
X141356235Y-109493920D01*
X141366872Y-109502845D01*
X141380094Y-109507100D01*
X141389197Y-109521576D01*
X141402295Y-109532566D01*
X141402296Y-109532568D01*
X141405922Y-109538848D01*
X141410276Y-109555099D01*
X141412101Y-109558000D01*
X141411745Y-109560580D01*
X141417700Y-109582800D01*
X141417700Y-110694300D01*
X141412398Y-110724365D01*
X141408076Y-110736239D01*
X141369435Y-110782293D01*
X141363156Y-110785919D01*
X141319199Y-110797700D01*
X140538304Y-110797700D01*
X140536877Y-110798010D01*
X140508748Y-110803604D01*
X140494924Y-110806354D01*
X140490592Y-110806781D01*
X140486433Y-110808042D01*
X140427456Y-110847450D01*
X140427454Y-110847452D01*
X140427452Y-110847454D01*
X140404339Y-110882045D01*
X140393211Y-110898700D01*
X140388044Y-110906432D01*
X140385508Y-110919189D01*
X140385507Y-110919192D01*
X140377700Y-110958440D01*
X140377700Y-111623695D01*
X140378010Y-111625121D01*
X140386354Y-111667075D01*
X140386581Y-111669375D01*
X140388042Y-111675564D01*
X140388130Y-111675740D01*
X140388910Y-111676863D01*
X140427453Y-111734547D01*
X140460351Y-111756529D01*
X140482396Y-111777632D01*
X140495286Y-111795212D01*
X140496330Y-111798793D01*
X140499255Y-111801110D01*
X140512300Y-111847187D01*
X140512300Y-111938971D01*
X140506998Y-111969037D01*
X140500212Y-111987680D01*
X140472334Y-112026405D01*
X140471234Y-112027280D01*
X140456419Y-112036809D01*
X140384304Y-112073553D01*
X140384002Y-112073705D01*
X140383991Y-112073713D01*
X140383989Y-112073714D01*
X140383987Y-112073715D01*
X140378637Y-112077572D01*
X140378394Y-112077779D01*
X140363003Y-112088962D01*
X140363000Y-112088964D01*
X140241605Y-112177161D01*
X140117161Y-112301605D01*
X140013716Y-112443985D01*
X140013701Y-112444009D01*
X140013576Y-112444258D01*
X139933817Y-112600795D01*
X139933812Y-112600808D01*
X139933799Y-112600847D01*
X139879430Y-112768180D01*
X139872791Y-112810104D01*
X139852613Y-112937504D01*
X139852611Y-112937513D01*
X139851900Y-112941999D01*
X139851900Y-112942005D01*
X139851900Y-113117994D01*
X139859303Y-113164734D01*
X139879430Y-113291818D01*
X139921741Y-113422041D01*
X139928003Y-113441313D01*
X139933816Y-113459201D01*
X140013715Y-113616012D01*
X140117161Y-113758393D01*
X140241607Y-113882839D01*
X140383988Y-113986285D01*
X140540799Y-114066184D01*
X140708178Y-114120568D01*
X140882004Y-114148100D01*
X140882006Y-114148100D01*
X141057994Y-114148100D01*
X141057996Y-114148100D01*
X141231822Y-114120568D01*
X141399201Y-114066184D01*
X141556012Y-113986285D01*
X141698393Y-113882839D01*
X141822839Y-113758393D01*
X141926285Y-113616012D01*
X142006184Y-113459201D01*
X142060568Y-113291822D01*
X142088100Y-113117996D01*
X142088100Y-113062568D01*
X142093401Y-113032504D01*
X142094209Y-113030286D01*
X142096861Y-113022997D01*
X142135511Y-112976938D01*
X142194718Y-112966496D01*
X142197793Y-112967038D01*
X142244690Y-112991449D01*
X142815657Y-113562416D01*
X142833167Y-113587425D01*
X142838505Y-113598873D01*
X142843750Y-113658750D01*
X142843100Y-113661178D01*
X142817573Y-113703255D01*
X142815506Y-113705149D01*
X142800074Y-113716464D01*
X142772719Y-113732258D01*
X142772718Y-113732258D01*
X142734596Y-113754267D01*
X142649270Y-113839593D01*
X142588929Y-113944106D01*
X142557700Y-114060662D01*
X142557700Y-114181335D01*
X142557874Y-114181985D01*
X142557876Y-114181994D01*
X142588925Y-114297877D01*
X142588934Y-114297906D01*
X142588959Y-114297981D01*
X142589583Y-114299024D01*
X142649268Y-114402403D01*
X142734597Y-114487732D01*
X142839103Y-114548068D01*
X142839104Y-114548068D01*
X142839105Y-114548068D01*
X142839106Y-114548069D01*
X142955664Y-114579300D01*
X143076335Y-114579300D01*
X143076336Y-114579300D01*
X143192897Y-114548068D01*
X143297403Y-114487732D01*
X143322134Y-114463000D01*
X143347137Y-114445494D01*
X143370640Y-114434534D01*
X143407786Y-114426300D01*
X152088831Y-114426300D01*
X152118895Y-114431601D01*
X152143265Y-114440471D01*
X152175356Y-114460915D01*
X152428142Y-114713701D01*
X152458894Y-114731456D01*
X152492647Y-114750943D01*
X152492646Y-114750943D01*
X152492650Y-114750944D01*
X152497759Y-114753894D01*
X152497761Y-114753894D01*
X152497762Y-114753895D01*
X152575407Y-114774700D01*
X152613300Y-114774700D01*
X152643358Y-114779998D01*
X152655235Y-114784321D01*
X152701295Y-114822967D01*
X152701296Y-114822969D01*
X152704922Y-114829249D01*
X152716700Y-114873201D01*
X152716700Y-115477695D01*
X152717010Y-115479121D01*
X152718112Y-115484659D01*
X152725354Y-115521075D01*
X152725581Y-115523375D01*
X152727042Y-115529564D01*
X152727130Y-115529740D01*
X152727910Y-115530863D01*
X152766453Y-115588547D01*
X152825431Y-115627955D01*
X152877439Y-115638300D01*
X154112560Y-115638299D01*
X154112563Y-115638299D01*
X154112689Y-115638299D01*
X154114062Y-115638000D01*
X154156082Y-115629643D01*
X154164906Y-115628774D01*
X154171758Y-115623151D01*
X154223547Y-115588547D01*
X154249874Y-115549145D01*
X154257015Y-115543727D01*
X154269613Y-115522956D01*
X154269614Y-115522957D01*
X154276531Y-115511553D01*
X154322520Y-115474219D01*
X154328798Y-115472010D01*
X154333720Y-115470280D01*
X154362885Y-115465300D01*
X155026191Y-115465300D01*
X155026192Y-115465300D01*
X155026193Y-115465300D01*
X155103841Y-115444494D01*
X155106275Y-115443088D01*
X155111522Y-115440059D01*
X155111526Y-115440067D01*
X155111560Y-115440036D01*
X155115956Y-115437500D01*
X155140716Y-115423204D01*
X155173459Y-115404300D01*
X155219756Y-115358003D01*
X155244761Y-115340494D01*
X155268264Y-115329534D01*
X155305410Y-115321300D01*
X155343335Y-115321300D01*
X155343336Y-115321300D01*
X155459897Y-115290068D01*
X155564403Y-115229732D01*
X155649732Y-115144403D01*
X155710068Y-115039897D01*
X155741300Y-114923336D01*
X155741300Y-114802664D01*
X155717463Y-114713701D01*
X155710069Y-114686106D01*
X155710068Y-114686105D01*
X155710068Y-114686103D01*
X155649732Y-114581597D01*
X155564403Y-114496268D01*
X155461024Y-114436583D01*
X155459981Y-114435959D01*
X155459906Y-114435934D01*
X155459878Y-114435925D01*
X155343337Y-114404700D01*
X155343336Y-114404700D01*
X155247770Y-114404700D01*
X155217701Y-114399397D01*
X155208194Y-114395936D01*
X155162136Y-114357284D01*
X155151697Y-114298081D01*
X155151728Y-114297906D01*
X155152239Y-114295005D01*
X155176648Y-114248111D01*
X155193760Y-114230999D01*
X155218762Y-114213494D01*
X155242265Y-114202534D01*
X155279411Y-114194300D01*
X156624569Y-114194300D01*
X156630301Y-114194486D01*
X156636068Y-114194864D01*
X156639827Y-114195236D01*
X156640803Y-114195300D01*
X156640807Y-114195300D01*
X158226623Y-114195300D01*
X158256683Y-114200599D01*
X158269067Y-114205107D01*
X158314645Y-114242931D01*
X158320539Y-114252888D01*
X158332562Y-114273200D01*
X158339888Y-114278790D01*
X158346605Y-114288842D01*
X158366453Y-114318547D01*
X158425431Y-114357955D01*
X158477439Y-114368300D01*
X159712560Y-114368299D01*
X159712563Y-114368299D01*
X159712689Y-114368299D01*
X159714062Y-114368000D01*
X159756082Y-114359643D01*
X159764906Y-114358774D01*
X159771758Y-114353151D01*
X159823547Y-114318547D01*
X159849904Y-114279099D01*
X159871012Y-114257050D01*
X159874292Y-114254645D01*
X159878918Y-114251252D01*
X159936643Y-114234427D01*
X159991679Y-114258643D01*
X160016498Y-114302175D01*
X160017203Y-114305198D01*
X160019500Y-114325162D01*
X160019500Y-114719450D01*
X160014197Y-114749519D01*
X160010843Y-114758732D01*
X159972191Y-114804790D01*
X159912976Y-114815227D01*
X159868167Y-114792826D01*
X159865897Y-114790700D01*
X159852846Y-114775302D01*
X159852446Y-114774702D01*
X159823549Y-114731456D01*
X159823547Y-114731453D01*
X159764569Y-114692045D01*
X159712561Y-114681700D01*
X159712559Y-114681700D01*
X158477304Y-114681700D01*
X158475877Y-114682010D01*
X158455285Y-114686106D01*
X158433924Y-114690354D01*
X158429592Y-114690781D01*
X158425433Y-114692042D01*
X158366456Y-114731450D01*
X158366450Y-114731456D01*
X158327045Y-114790431D01*
X158316700Y-114842438D01*
X158316700Y-115477695D01*
X158317010Y-115479121D01*
X158318112Y-115484659D01*
X158325354Y-115521075D01*
X158325581Y-115523375D01*
X158327042Y-115529564D01*
X158327130Y-115529740D01*
X158327910Y-115530863D01*
X158366453Y-115588547D01*
X158425431Y-115627955D01*
X158477439Y-115638300D01*
X158578989Y-115638299D01*
X158609053Y-115643600D01*
X158620925Y-115647921D01*
X158666969Y-115686541D01*
X158668227Y-115688721D01*
X158679935Y-115736556D01*
X158679812Y-115739355D01*
X158676903Y-115758242D01*
X158671700Y-115777662D01*
X158671700Y-115898336D01*
X158702925Y-116014878D01*
X158702934Y-116014906D01*
X158702959Y-116014981D01*
X158703583Y-116016024D01*
X158763268Y-116119403D01*
X158848597Y-116204732D01*
X158953103Y-116265068D01*
X158953104Y-116265068D01*
X158953105Y-116265068D01*
X158953106Y-116265069D01*
X159069664Y-116296300D01*
X159190335Y-116296300D01*
X159190336Y-116296300D01*
X159306897Y-116265068D01*
X159411403Y-116204732D01*
X159496732Y-116119403D01*
X159557068Y-116014897D01*
X159588300Y-115898336D01*
X159588300Y-115777664D01*
X159584616Y-115763918D01*
X159581956Y-115733514D01*
X159583058Y-115720919D01*
X159608467Y-115666429D01*
X159610248Y-115664649D01*
X159653382Y-115640988D01*
X159656121Y-115640381D01*
X159675139Y-115638299D01*
X159715485Y-115638299D01*
X159721051Y-115636610D01*
X159756081Y-115629643D01*
X159764906Y-115628774D01*
X159771758Y-115623151D01*
X159823547Y-115588547D01*
X159849904Y-115549099D01*
X159871012Y-115527050D01*
X159876024Y-115523375D01*
X159878918Y-115521252D01*
X159936643Y-115504427D01*
X159991679Y-115528643D01*
X160016498Y-115572175D01*
X160017203Y-115575198D01*
X160019500Y-115595162D01*
X160019500Y-116736100D01*
X160014198Y-116766165D01*
X160009876Y-116778039D01*
X159971235Y-116824093D01*
X159964956Y-116827719D01*
X159920999Y-116839500D01*
X152114904Y-116839500D01*
X152084837Y-116834198D01*
X152075623Y-116830844D01*
X152029565Y-116792193D01*
X152019126Y-116732979D01*
X152041539Y-116688154D01*
X152043669Y-116685880D01*
X152058976Y-116672896D01*
X152058982Y-116672892D01*
X152070070Y-116665483D01*
X152164485Y-116571068D01*
X152238658Y-116460060D01*
X152238660Y-116460057D01*
X152288567Y-116339567D01*
X152289389Y-116337765D01*
X152289747Y-116336717D01*
X152289752Y-116336707D01*
X152289754Y-116336703D01*
X152303781Y-116266184D01*
X152315800Y-116205759D01*
X152315800Y-115927902D01*
X152315800Y-115927901D01*
X152315799Y-115927900D01*
X152315798Y-115927900D01*
X152025900Y-115927900D01*
X151969399Y-115907335D01*
X151939335Y-115855264D01*
X151938000Y-115840000D01*
X151938000Y-115838000D01*
X151958565Y-115781499D01*
X152010636Y-115751435D01*
X152025900Y-115750100D01*
X152315798Y-115750100D01*
X152315799Y-115750100D01*
X152315800Y-115750099D01*
X152315800Y-115472243D01*
X152315800Y-115472239D01*
X152292438Y-115354792D01*
X152289754Y-115341296D01*
X152289752Y-115341292D01*
X152289749Y-115341286D01*
X152289389Y-115340232D01*
X152288567Y-115338431D01*
X152238660Y-115217942D01*
X152238658Y-115217939D01*
X152164485Y-115106931D01*
X152070068Y-115012514D01*
X151959060Y-114938341D01*
X151959057Y-114938339D01*
X151959056Y-114938338D01*
X151959054Y-114938337D01*
X151959051Y-114938335D01*
X151838591Y-114888441D01*
X151836776Y-114887613D01*
X151835703Y-114887245D01*
X151726900Y-114865602D01*
X151726900Y-115151100D01*
X151706335Y-115207601D01*
X151654264Y-115237665D01*
X151639000Y-115239000D01*
X151637000Y-115239000D01*
X151580499Y-115218435D01*
X151550435Y-115166364D01*
X151549100Y-115151100D01*
X151549100Y-114865604D01*
X151549099Y-114865603D01*
X151549098Y-114865603D01*
X151440296Y-114887245D01*
X151439222Y-114887613D01*
X151437407Y-114888441D01*
X151316947Y-114938335D01*
X151316944Y-114938337D01*
X151205933Y-115012512D01*
X151111512Y-115106933D01*
X151037337Y-115217944D01*
X151037335Y-115217947D01*
X150987441Y-115338407D01*
X150986610Y-115340227D01*
X150986243Y-115341298D01*
X150960200Y-115472239D01*
X150960200Y-115472243D01*
X150960200Y-115750099D01*
X150960201Y-115750100D01*
X151250100Y-115750100D01*
X151306601Y-115770665D01*
X151336665Y-115822736D01*
X151338000Y-115838000D01*
X151338000Y-115840000D01*
X151317435Y-115896501D01*
X151265364Y-115926565D01*
X151250100Y-115927900D01*
X150960201Y-115927900D01*
X150960200Y-115927901D01*
X150960200Y-115927902D01*
X150960200Y-116205759D01*
X150986243Y-116336700D01*
X150986610Y-116337772D01*
X150987441Y-116339591D01*
X151037335Y-116460051D01*
X151037337Y-116460054D01*
X151037338Y-116460055D01*
X151037339Y-116460057D01*
X151037341Y-116460060D01*
X151111514Y-116571068D01*
X151205929Y-116665483D01*
X151205932Y-116665485D01*
X151205935Y-116665487D01*
X151212544Y-116669904D01*
X151234592Y-116691010D01*
X151240390Y-116698917D01*
X151257217Y-116756641D01*
X151233003Y-116811677D01*
X151189475Y-116836496D01*
X151186453Y-116837201D01*
X151166483Y-116839500D01*
X143479803Y-116839500D01*
X143449736Y-116834198D01*
X143440522Y-116830844D01*
X143394464Y-116792193D01*
X143384025Y-116732979D01*
X143406426Y-116688167D01*
X143408559Y-116685890D01*
X143423873Y-116672897D01*
X143434391Y-116665870D01*
X143528870Y-116571391D01*
X143603102Y-116460296D01*
X143654233Y-116336853D01*
X143654264Y-116336700D01*
X143668515Y-116265054D01*
X143680300Y-116205807D01*
X143680300Y-115472193D01*
X143656948Y-115354795D01*
X143654234Y-115341150D01*
X143654231Y-115341142D01*
X143604759Y-115221704D01*
X143603587Y-115218430D01*
X143554126Y-115144407D01*
X143554125Y-115144406D01*
X143554123Y-115144403D01*
X143528870Y-115106609D01*
X143434391Y-115012130D01*
X143400320Y-114989364D01*
X143323290Y-114937893D01*
X143199864Y-114886770D01*
X143199856Y-114886767D01*
X143199849Y-114886765D01*
X143101344Y-114867172D01*
X143093451Y-114865602D01*
X143068807Y-114860700D01*
X143068805Y-114860700D01*
X142935192Y-114860700D01*
X142920721Y-114863578D01*
X142906249Y-114866457D01*
X142804151Y-114886764D01*
X142804142Y-114886767D01*
X142804134Y-114886770D01*
X142684703Y-114936239D01*
X142681433Y-114937409D01*
X142569613Y-115012126D01*
X142475126Y-115106613D01*
X142400409Y-115218433D01*
X142399239Y-115221703D01*
X142349770Y-115341134D01*
X142349767Y-115341142D01*
X142349765Y-115341149D01*
X142323700Y-115472190D01*
X142323700Y-116205808D01*
X142349765Y-116336849D01*
X142349767Y-116336856D01*
X142349770Y-116336864D01*
X142399239Y-116456295D01*
X142400409Y-116459566D01*
X142409720Y-116473500D01*
X142453749Y-116539392D01*
X142475130Y-116571391D01*
X142569609Y-116665870D01*
X142574295Y-116669001D01*
X142575618Y-116669885D01*
X142597695Y-116691011D01*
X142603492Y-116698917D01*
X142620318Y-116756642D01*
X142596102Y-116811678D01*
X142552596Y-116836491D01*
X142549573Y-116837197D01*
X142529583Y-116839500D01*
X141231276Y-116839500D01*
X141201204Y-116834196D01*
X141199434Y-116833552D01*
X141196501Y-116832484D01*
X141150445Y-116793829D01*
X141140011Y-116734614D01*
X141170081Y-116682546D01*
X141212820Y-116663072D01*
X141231702Y-116660081D01*
X141399005Y-116605722D01*
X141399012Y-116605719D01*
X141555747Y-116525858D01*
X141555754Y-116525854D01*
X141698068Y-116422457D01*
X141822457Y-116298068D01*
X141925854Y-116155754D01*
X141925858Y-116155747D01*
X142005719Y-115999012D01*
X142005722Y-115999005D01*
X142060081Y-115831703D01*
X142087451Y-115658900D01*
X141565900Y-115658900D01*
X141509399Y-115638335D01*
X141479335Y-115586264D01*
X141478000Y-115571000D01*
X141478000Y-115569000D01*
X141498565Y-115512499D01*
X141550636Y-115482435D01*
X141565900Y-115481100D01*
X142087450Y-115481100D01*
X142087450Y-115481099D01*
X142066218Y-115347045D01*
X142060081Y-115308296D01*
X142006830Y-115144403D01*
X142005723Y-115140996D01*
X142005713Y-115140976D01*
X141988367Y-115106933D01*
X141925858Y-114984252D01*
X141925854Y-114984245D01*
X141822457Y-114841931D01*
X141698068Y-114717542D01*
X141555754Y-114614145D01*
X141555747Y-114614141D01*
X141555737Y-114614136D01*
X141555723Y-114614128D01*
X141399022Y-114534285D01*
X141399002Y-114534275D01*
X141231700Y-114479917D01*
X141231702Y-114479917D01*
X141058900Y-114452548D01*
X141058900Y-114974100D01*
X141038335Y-115030601D01*
X140986264Y-115060665D01*
X140971000Y-115062000D01*
X140969000Y-115062000D01*
X140912499Y-115041435D01*
X140882435Y-114989364D01*
X140881100Y-114974100D01*
X140881100Y-114452548D01*
X140881099Y-114452548D01*
X140708297Y-114479917D01*
X140540996Y-114534275D01*
X140540976Y-114534285D01*
X140384275Y-114614128D01*
X140384243Y-114614146D01*
X140241930Y-114717542D01*
X140117542Y-114841930D01*
X140014146Y-114984243D01*
X140014128Y-114984275D01*
X139934285Y-115140976D01*
X139934275Y-115140996D01*
X139879917Y-115308297D01*
X139852548Y-115481099D01*
X139852549Y-115481100D01*
X140374100Y-115481100D01*
X140430601Y-115501665D01*
X140460665Y-115553736D01*
X140462000Y-115569000D01*
X140462000Y-115571000D01*
X140441435Y-115627501D01*
X140389364Y-115657565D01*
X140374100Y-115658900D01*
X139852549Y-115658900D01*
X139879917Y-115831701D01*
X139934275Y-115999002D01*
X139934285Y-115999022D01*
X140014128Y-116155723D01*
X140014136Y-116155737D01*
X140014141Y-116155747D01*
X140014145Y-116155754D01*
X140117542Y-116298068D01*
X140241931Y-116422457D01*
X140384245Y-116525854D01*
X140384252Y-116525858D01*
X140384269Y-116525867D01*
X140384275Y-116525870D01*
X140449372Y-116559038D01*
X140540987Y-116605719D01*
X140540994Y-116605722D01*
X140540996Y-116605723D01*
X140621732Y-116631954D01*
X140708297Y-116660081D01*
X140711399Y-116660572D01*
X140722669Y-116662358D01*
X140751526Y-116672294D01*
X140755904Y-116674721D01*
X140795352Y-116720098D01*
X140796403Y-116780216D01*
X140758564Y-116826944D01*
X140713291Y-116839500D01*
X134723900Y-116839500D01*
X134693837Y-116834199D01*
X134681962Y-116829877D01*
X134635902Y-116791229D01*
X134632271Y-116784940D01*
X134620500Y-116740998D01*
X134620500Y-116007106D01*
X134897500Y-116007106D01*
X134897500Y-116007108D01*
X134897500Y-116138891D01*
X134915430Y-116205808D01*
X134931304Y-116265054D01*
X134931608Y-116266188D01*
X134997498Y-116380312D01*
X134997500Y-116380314D01*
X135090686Y-116473500D01*
X135204814Y-116539392D01*
X135332108Y-116573500D01*
X135463891Y-116573500D01*
X135463892Y-116573500D01*
X135591186Y-116539392D01*
X135705314Y-116473500D01*
X135798500Y-116380314D01*
X135864392Y-116266186D01*
X135898500Y-116138892D01*
X135898500Y-116007108D01*
X135864392Y-115879814D01*
X135798500Y-115765686D01*
X135705314Y-115672500D01*
X135691719Y-115664651D01*
X135601206Y-115612392D01*
X135596577Y-115608840D01*
X135585793Y-115604373D01*
X135580006Y-115603612D01*
X135523781Y-115588547D01*
X135463892Y-115572500D01*
X135332106Y-115572500D01*
X135204817Y-115606605D01*
X135090686Y-115672499D01*
X134997499Y-115765686D01*
X134931605Y-115879817D01*
X134897500Y-116007106D01*
X134620500Y-116007106D01*
X134620500Y-114181984D01*
X135359500Y-114181984D01*
X135359500Y-114418014D01*
X135390306Y-114652011D01*
X135447537Y-114865602D01*
X135451390Y-114879980D01*
X135451392Y-114879986D01*
X135451394Y-114879993D01*
X135475378Y-114937895D01*
X135529227Y-115067900D01*
X135541713Y-115098042D01*
X135541716Y-115098050D01*
X135541722Y-115098059D01*
X135568478Y-115144402D01*
X135568478Y-115144403D01*
X135568479Y-115144403D01*
X135630736Y-115252237D01*
X135659728Y-115302452D01*
X135714567Y-115373919D01*
X135803408Y-115489699D01*
X135970301Y-115656592D01*
X135970304Y-115656594D01*
X135970314Y-115656601D01*
X135971457Y-115657539D01*
X135972618Y-115658370D01*
X136090663Y-115748949D01*
X136112472Y-115765684D01*
X136157550Y-115800273D01*
X136361951Y-115918284D01*
X136580007Y-116008606D01*
X136807986Y-116069693D01*
X136987541Y-116093331D01*
X137041987Y-116100500D01*
X137041989Y-116100500D01*
X137278009Y-116100500D01*
X137278013Y-116100500D01*
X137326784Y-116094078D01*
X137512014Y-116069693D01*
X137739993Y-116008606D01*
X137958049Y-115918284D01*
X138162450Y-115800273D01*
X138349699Y-115656592D01*
X138516592Y-115489699D01*
X138660273Y-115302450D01*
X138778284Y-115098049D01*
X138868606Y-114879993D01*
X138929693Y-114652014D01*
X138960500Y-114418011D01*
X138960500Y-114181989D01*
X138960500Y-114181987D01*
X138960500Y-114181985D01*
X138956930Y-114154877D01*
X138956038Y-114148100D01*
X138934735Y-113986286D01*
X138929693Y-113947986D01*
X138868606Y-113720007D01*
X138778284Y-113501951D01*
X138660273Y-113297550D01*
X138660271Y-113297548D01*
X138660271Y-113297547D01*
X138658807Y-113295640D01*
X138655876Y-113291820D01*
X138558145Y-113164454D01*
X138516592Y-113110301D01*
X138349699Y-112943408D01*
X138276578Y-112887300D01*
X138258165Y-112873171D01*
X138162454Y-112799729D01*
X138024478Y-112720069D01*
X138005136Y-112708902D01*
X137958049Y-112681716D01*
X137958047Y-112681715D01*
X137958045Y-112681714D01*
X137958043Y-112681713D01*
X137838666Y-112632266D01*
X137739993Y-112591394D01*
X137676586Y-112574404D01*
X137512026Y-112530310D01*
X137512024Y-112530309D01*
X137512011Y-112530306D01*
X137278016Y-112499500D01*
X137278013Y-112499500D01*
X137278011Y-112499500D01*
X137041989Y-112499500D01*
X137041987Y-112499500D01*
X137041984Y-112499500D01*
X136807987Y-112530306D01*
X136580747Y-112591195D01*
X136580074Y-112591369D01*
X136578595Y-112591916D01*
X136577130Y-112592585D01*
X136558642Y-112600242D01*
X136546010Y-112605475D01*
X136497935Y-112625388D01*
X136361958Y-112681711D01*
X136157551Y-112799725D01*
X136157548Y-112799727D01*
X135970307Y-112943402D01*
X135803402Y-113110307D01*
X135659727Y-113297548D01*
X135659725Y-113297551D01*
X135541713Y-113501956D01*
X135451393Y-113720007D01*
X135390306Y-113947987D01*
X135359500Y-114181984D01*
X134620500Y-114181984D01*
X134620500Y-110754467D01*
X134625799Y-110724408D01*
X134625815Y-110724365D01*
X134627510Y-110719707D01*
X134666156Y-110673647D01*
X134725369Y-110663203D01*
X134777442Y-110693263D01*
X134796928Y-110736017D01*
X134799430Y-110751816D01*
X134851195Y-110911137D01*
X134853815Y-110919199D01*
X134933715Y-111076013D01*
X135030305Y-111208956D01*
X135037161Y-111218393D01*
X135161607Y-111342839D01*
X135303988Y-111446285D01*
X135460799Y-111526184D01*
X135628178Y-111580568D01*
X135802004Y-111608100D01*
X135802006Y-111608100D01*
X135977994Y-111608100D01*
X135977996Y-111608100D01*
X135999715Y-111604660D01*
X138481700Y-111604660D01*
X138481700Y-111725337D01*
X138487651Y-111747547D01*
X138512925Y-111841878D01*
X138512934Y-111841906D01*
X138512959Y-111841981D01*
X138513583Y-111843024D01*
X138573268Y-111946403D01*
X138658597Y-112031732D01*
X138763103Y-112092068D01*
X138763104Y-112092068D01*
X138763105Y-112092068D01*
X138763106Y-112092069D01*
X138879664Y-112123300D01*
X139000335Y-112123300D01*
X139000336Y-112123300D01*
X139116897Y-112092068D01*
X139221403Y-112031732D01*
X139221404Y-112031730D01*
X139226392Y-112028851D01*
X139226557Y-112029136D01*
X139234456Y-112024341D01*
X139249345Y-112017398D01*
X139309238Y-112012159D01*
X139318570Y-112014659D01*
X139341083Y-112025761D01*
X139341609Y-112024852D01*
X139345260Y-112026960D01*
X139347496Y-112028304D01*
X139348852Y-112029034D01*
X139451103Y-112088068D01*
X139451104Y-112088068D01*
X139451105Y-112088068D01*
X139451106Y-112088069D01*
X139567664Y-112119300D01*
X139688335Y-112119300D01*
X139688336Y-112119300D01*
X139804897Y-112088068D01*
X139909403Y-112027732D01*
X139994732Y-111942403D01*
X140055068Y-111837897D01*
X140086300Y-111721336D01*
X140086300Y-111600664D01*
X140066344Y-111526185D01*
X140055069Y-111484106D01*
X140055068Y-111484105D01*
X140055068Y-111484103D01*
X139994732Y-111379597D01*
X139909403Y-111294268D01*
X139806024Y-111234583D01*
X139804981Y-111233959D01*
X139804906Y-111233934D01*
X139804878Y-111233925D01*
X139688337Y-111202700D01*
X139688336Y-111202700D01*
X139567664Y-111202700D01*
X139567662Y-111202700D01*
X139451106Y-111233929D01*
X139367629Y-111282124D01*
X139362515Y-111285078D01*
X139341602Y-111297152D01*
X139341438Y-111296868D01*
X139333544Y-111301656D01*
X139318658Y-111308598D01*
X139258761Y-111313840D01*
X139249314Y-111311309D01*
X139223227Y-111299487D01*
X139221409Y-111298272D01*
X139220466Y-111297727D01*
X139220459Y-111297723D01*
X139118024Y-111238583D01*
X139116981Y-111237959D01*
X139116906Y-111237934D01*
X139116878Y-111237925D01*
X139000337Y-111206700D01*
X139000336Y-111206700D01*
X138879664Y-111206700D01*
X138879662Y-111206700D01*
X138763106Y-111237929D01*
X138658593Y-111298270D01*
X138573270Y-111383593D01*
X138573269Y-111383595D01*
X138512930Y-111488106D01*
X138512929Y-111488108D01*
X138512929Y-111488109D01*
X138488156Y-111580568D01*
X138481700Y-111604660D01*
X135999715Y-111604660D01*
X136151822Y-111580568D01*
X136319201Y-111526184D01*
X136476012Y-111446285D01*
X136618393Y-111342839D01*
X136742839Y-111218393D01*
X136846285Y-111076012D01*
X136926184Y-110919201D01*
X136928803Y-110911142D01*
X136938256Y-110882047D01*
X136980568Y-110751822D01*
X137008100Y-110577996D01*
X137008100Y-110402004D01*
X136980568Y-110228178D01*
X136926184Y-110060799D01*
X136846285Y-109903988D01*
X136742839Y-109761607D01*
X136618393Y-109637161D01*
X136584606Y-109612613D01*
X136476013Y-109533715D01*
X136397908Y-109493919D01*
X136319201Y-109453816D01*
X136319198Y-109453815D01*
X136319196Y-109453814D01*
X136319195Y-109453813D01*
X136319194Y-109453813D01*
X136151817Y-109399430D01*
X136033059Y-109380621D01*
X135977996Y-109371900D01*
X135802004Y-109371900D01*
X135802003Y-109371900D01*
X135754470Y-109379427D01*
X135754470Y-109379428D01*
X135746938Y-109380621D01*
X135628180Y-109399430D01*
X135460847Y-109453799D01*
X135460808Y-109453812D01*
X135460795Y-109453817D01*
X135304258Y-109533576D01*
X135304009Y-109533701D01*
X135303985Y-109533716D01*
X135161605Y-109637161D01*
X135037161Y-109761605D01*
X134933716Y-109903985D01*
X134933701Y-109904009D01*
X134933576Y-109904258D01*
X134853817Y-110060795D01*
X134853812Y-110060808D01*
X134853799Y-110060847D01*
X134799430Y-110228181D01*
X134797642Y-110239474D01*
X134787703Y-110268339D01*
X134785279Y-110272712D01*
X134739900Y-110312159D01*
X134679782Y-110313208D01*
X134633055Y-110275369D01*
X134620500Y-110230097D01*
X134620500Y-108214467D01*
X134625799Y-108184408D01*
X134626037Y-108183755D01*
X134627510Y-108179707D01*
X134666156Y-108133647D01*
X134725369Y-108123203D01*
X134777442Y-108153263D01*
G37*
%TD.AperFunction*%
%TA.AperFunction,Conductor*%
G36*
X159946158Y-91445798D02*
G01*
X159958035Y-91450121D01*
X160004095Y-91488767D01*
X160004096Y-91488769D01*
X160007722Y-91495049D01*
X160019500Y-91539001D01*
X160019500Y-97525531D01*
X160014197Y-97555600D01*
X160012486Y-97560300D01*
X159973834Y-97606357D01*
X159914620Y-97616795D01*
X159862550Y-97586728D01*
X159843072Y-97543984D01*
X159840587Y-97528297D01*
X159840568Y-97528179D01*
X159801682Y-97408500D01*
X159786184Y-97360799D01*
X159706285Y-97203988D01*
X159706284Y-97203986D01*
X159622252Y-97088327D01*
X159602839Y-97061607D01*
X159478393Y-96937161D01*
X159477213Y-96936304D01*
X159336013Y-96833715D01*
X159261766Y-96795885D01*
X159179201Y-96753816D01*
X159179198Y-96753815D01*
X159179196Y-96753814D01*
X159179195Y-96753813D01*
X159179194Y-96753813D01*
X159011817Y-96699430D01*
X159011819Y-96699430D01*
X158889420Y-96680045D01*
X158837996Y-96671900D01*
X158837994Y-96671900D01*
X158662003Y-96671900D01*
X158614470Y-96679427D01*
X158614470Y-96679428D01*
X158594468Y-96682596D01*
X158488180Y-96699430D01*
X158323698Y-96752872D01*
X158317858Y-96754549D01*
X158311271Y-96756195D01*
X158303420Y-96762670D01*
X158164206Y-96833602D01*
X158164012Y-96833699D01*
X158163985Y-96833716D01*
X158021605Y-96937161D01*
X157897161Y-97061605D01*
X157833388Y-97149382D01*
X157796666Y-97199926D01*
X157793718Y-97203983D01*
X157793701Y-97204009D01*
X157793576Y-97204258D01*
X157721002Y-97346694D01*
X157702630Y-97371075D01*
X157688121Y-97384605D01*
X157645748Y-97406444D01*
X157644665Y-97406664D01*
X157644369Y-97406725D01*
X157626796Y-97408500D01*
X153793345Y-97408500D01*
X153763276Y-97403197D01*
X153753769Y-97399736D01*
X153707711Y-97361084D01*
X153697272Y-97301881D01*
X153697814Y-97298806D01*
X153720514Y-97255202D01*
X153720222Y-97254978D01*
X153721493Y-97253320D01*
X153722231Y-97251904D01*
X153723730Y-97250405D01*
X153723731Y-97250404D01*
X153723732Y-97250403D01*
X153784068Y-97145897D01*
X153815300Y-97029336D01*
X153815300Y-96908664D01*
X153784068Y-96792103D01*
X153784065Y-96792097D01*
X153781864Y-96786784D01*
X153782616Y-96786472D01*
X153775240Y-96766211D01*
X153774107Y-96759788D01*
X153773046Y-96753767D01*
X153783486Y-96694559D01*
X153786463Y-96689402D01*
X153823978Y-96654389D01*
X153840861Y-96646136D01*
X153930136Y-96556861D01*
X153985587Y-96443435D01*
X153996300Y-96369904D01*
X153996300Y-95898096D01*
X153985587Y-95824565D01*
X153964045Y-95780500D01*
X153960905Y-95774078D01*
X153931327Y-95713574D01*
X153930305Y-95711309D01*
X153930136Y-95711140D01*
X153930136Y-95711139D01*
X153840861Y-95621864D01*
X153840859Y-95621863D01*
X153840857Y-95621861D01*
X153840856Y-95621860D01*
X153727754Y-95566568D01*
X153727443Y-95566414D01*
X153724617Y-95565747D01*
X153721135Y-95565495D01*
X153705723Y-95563249D01*
X153653904Y-95555700D01*
X153653901Y-95555700D01*
X153032098Y-95555700D01*
X153032096Y-95555700D01*
X152985605Y-95562473D01*
X152964865Y-95565495D01*
X152961380Y-95565747D01*
X152958553Y-95566414D01*
X152958245Y-95566567D01*
X152845145Y-95621858D01*
X152755858Y-95711145D01*
X152700567Y-95824245D01*
X152700414Y-95824553D01*
X152699747Y-95827380D01*
X152699495Y-95830865D01*
X152698150Y-95840096D01*
X152689700Y-95898096D01*
X152689700Y-96369904D01*
X152697951Y-96426534D01*
X152699495Y-96437134D01*
X152699747Y-96440618D01*
X152700414Y-96443443D01*
X152700568Y-96443754D01*
X152755860Y-96556856D01*
X152755861Y-96556857D01*
X152755863Y-96556859D01*
X152755864Y-96556861D01*
X152845139Y-96646136D01*
X152845140Y-96646136D01*
X152845309Y-96646305D01*
X152847561Y-96647321D01*
X152878465Y-96662429D01*
X152903140Y-96680392D01*
X152908395Y-96685843D01*
X152911912Y-96689492D01*
X152936316Y-96744444D01*
X152936316Y-96744447D01*
X152936801Y-96751483D01*
X152930623Y-96789290D01*
X152930858Y-96789370D01*
X152930381Y-96790773D01*
X152930317Y-96791168D01*
X152929932Y-96792097D01*
X152898700Y-96908662D01*
X152898700Y-97029336D01*
X152929925Y-97145878D01*
X152929934Y-97145906D01*
X152929960Y-97145984D01*
X152930605Y-97147063D01*
X152986245Y-97243436D01*
X152990268Y-97250403D01*
X152993773Y-97254970D01*
X152993004Y-97255559D01*
X153004860Y-97272491D01*
X153009136Y-97281661D01*
X153014376Y-97341559D01*
X152979905Y-97390800D01*
X152978823Y-97391557D01*
X152977345Y-97392592D01*
X152926913Y-97408500D01*
X152101700Y-97408500D01*
X152071637Y-97403199D01*
X152059762Y-97398877D01*
X152013703Y-97360230D01*
X152010077Y-97353950D01*
X151998299Y-97310001D01*
X151998299Y-96748436D01*
X151998299Y-96748307D01*
X151997988Y-96746875D01*
X151989645Y-96704926D01*
X151989218Y-96700593D01*
X151987956Y-96696433D01*
X151971997Y-96672549D01*
X151971996Y-96672547D01*
X151948548Y-96637454D01*
X151948547Y-96637453D01*
X151889569Y-96598045D01*
X151837561Y-96587700D01*
X151837559Y-96587700D01*
X150783935Y-96587700D01*
X150753870Y-96582398D01*
X150746139Y-96579584D01*
X150700080Y-96540935D01*
X150689640Y-96481721D01*
X150715073Y-96433824D01*
X150721988Y-96427132D01*
X150734269Y-96417221D01*
X150790032Y-96379962D01*
X150848416Y-96340951D01*
X150952951Y-96236416D01*
X151035084Y-96113495D01*
X151091658Y-95976913D01*
X151120500Y-95831918D01*
X151120500Y-95684082D01*
X151103433Y-95598284D01*
X151097125Y-95566568D01*
X151091566Y-95538620D01*
X151090466Y-95536209D01*
X151036748Y-95406520D01*
X151035576Y-95403242D01*
X151035059Y-95402467D01*
X151035059Y-95402466D01*
X150962197Y-95293420D01*
X150949903Y-95265481D01*
X150947498Y-95255654D01*
X150954042Y-95195884D01*
X150997472Y-95154305D01*
X151004435Y-95151241D01*
X151039833Y-95143799D01*
X151837511Y-95143799D01*
X151854719Y-95140375D01*
X151889375Y-95133483D01*
X151948182Y-95094188D01*
X151948188Y-95094182D01*
X151987483Y-95035375D01*
X151997800Y-94983512D01*
X151997800Y-94454901D01*
X151997799Y-94454900D01*
X151997798Y-94454900D01*
X149142203Y-94454900D01*
X149142202Y-94454900D01*
X149142201Y-94454901D01*
X149142201Y-94983508D01*
X149152516Y-95035375D01*
X149191811Y-95094182D01*
X149191817Y-95094188D01*
X149250624Y-95133483D01*
X149302486Y-95143799D01*
X149697828Y-95143799D01*
X149727892Y-95149100D01*
X149737398Y-95152560D01*
X149783458Y-95191210D01*
X149793899Y-95250420D01*
X149792580Y-95257902D01*
X149779101Y-95291475D01*
X149704940Y-95402464D01*
X149704941Y-95402465D01*
X149704913Y-95402505D01*
X149704910Y-95402511D01*
X149649536Y-95536201D01*
X149648708Y-95538016D01*
X149648340Y-95539090D01*
X149619500Y-95684079D01*
X149619500Y-95831919D01*
X149648340Y-95976908D01*
X149648708Y-95977982D01*
X149649536Y-95979797D01*
X149704910Y-96113487D01*
X149704912Y-96113490D01*
X149787049Y-96236417D01*
X149891583Y-96340950D01*
X149891591Y-96340957D01*
X150003325Y-96415614D01*
X150019929Y-96430013D01*
X150028830Y-96439938D01*
X150051239Y-96495734D01*
X150032540Y-96552880D01*
X149987545Y-96583135D01*
X149986428Y-96583454D01*
X149983412Y-96584315D01*
X149959258Y-96587700D01*
X149302304Y-96587700D01*
X149300877Y-96588010D01*
X149272748Y-96593604D01*
X149258924Y-96596354D01*
X149254592Y-96596781D01*
X149250433Y-96598042D01*
X149191456Y-96637450D01*
X149191450Y-96637456D01*
X149152045Y-96696431D01*
X149141700Y-96748438D01*
X149141700Y-97983695D01*
X149142010Y-97985121D01*
X149150354Y-98027075D01*
X149150581Y-98029375D01*
X149152042Y-98035564D01*
X149152130Y-98035740D01*
X149152910Y-98036863D01*
X149191453Y-98094547D01*
X149250431Y-98133955D01*
X149302439Y-98144300D01*
X150824923Y-98144299D01*
X150836388Y-98145049D01*
X150847728Y-98146542D01*
X150858982Y-98148780D01*
X150943775Y-98171501D01*
X150943777Y-98171501D01*
X151049607Y-98171501D01*
X151050947Y-98171501D01*
X151051011Y-98171500D01*
X157620146Y-98171500D01*
X157650209Y-98176801D01*
X157668851Y-98183586D01*
X157707572Y-98211457D01*
X157708448Y-98212558D01*
X157717979Y-98227373D01*
X157750959Y-98292099D01*
X157793715Y-98376013D01*
X157863935Y-98472662D01*
X157897161Y-98518393D01*
X158021607Y-98642839D01*
X158163988Y-98746285D01*
X158320799Y-98826184D01*
X158488178Y-98880568D01*
X158662004Y-98908100D01*
X158662006Y-98908100D01*
X158837994Y-98908100D01*
X158837996Y-98908100D01*
X159011822Y-98880568D01*
X159179201Y-98826184D01*
X159336012Y-98746285D01*
X159478393Y-98642839D01*
X159602839Y-98518393D01*
X159706285Y-98376012D01*
X159786184Y-98219201D01*
X159840568Y-98051822D01*
X159842358Y-98040519D01*
X159852296Y-98011661D01*
X159854725Y-98007278D01*
X159900106Y-97967837D01*
X159960224Y-97966792D01*
X160006949Y-98004635D01*
X160019500Y-98049901D01*
X160019500Y-100065531D01*
X160014197Y-100095600D01*
X160012486Y-100100300D01*
X159973834Y-100146357D01*
X159914620Y-100156795D01*
X159862550Y-100126728D01*
X159843072Y-100083984D01*
X159840568Y-100068181D01*
X159840568Y-100068179D01*
X159835133Y-100051453D01*
X159786184Y-99900799D01*
X159706285Y-99743988D01*
X159602839Y-99601607D01*
X159478393Y-99477161D01*
X159478034Y-99476900D01*
X159336013Y-99373715D01*
X159261766Y-99335885D01*
X159179201Y-99293816D01*
X159179198Y-99293815D01*
X159179196Y-99293814D01*
X159179195Y-99293813D01*
X159179194Y-99293813D01*
X159011817Y-99239430D01*
X158893059Y-99220621D01*
X158837996Y-99211900D01*
X158662004Y-99211900D01*
X158662003Y-99211900D01*
X158614470Y-99219427D01*
X158614470Y-99219428D01*
X158606938Y-99220621D01*
X158488180Y-99239430D01*
X158320847Y-99293799D01*
X158320808Y-99293812D01*
X158320795Y-99293817D01*
X158164258Y-99373576D01*
X158164009Y-99373701D01*
X158163985Y-99373716D01*
X158021605Y-99477161D01*
X157897161Y-99601605D01*
X157793716Y-99743985D01*
X157793701Y-99744009D01*
X157793576Y-99744258D01*
X157721002Y-99886694D01*
X157702630Y-99911075D01*
X157688121Y-99924605D01*
X157645748Y-99946444D01*
X157644665Y-99946664D01*
X157644369Y-99946725D01*
X157626796Y-99948500D01*
X155550775Y-99948500D01*
X155453747Y-99974497D01*
X155453744Y-99974499D01*
X155366753Y-100024721D01*
X154599965Y-100791509D01*
X154581760Y-100805478D01*
X154562401Y-100816655D01*
X154541200Y-100825436D01*
X154487109Y-100839929D01*
X154487108Y-100839929D01*
X154487106Y-100839930D01*
X154388950Y-100896600D01*
X154382595Y-100900269D01*
X154335069Y-100947796D01*
X154310064Y-100965304D01*
X154286564Y-100976263D01*
X154249414Y-100984500D01*
X152101699Y-100984500D01*
X152071636Y-100979199D01*
X152059761Y-100974877D01*
X152013701Y-100936229D01*
X152010070Y-100929940D01*
X151998299Y-100885998D01*
X151998299Y-100748307D01*
X151997988Y-100746875D01*
X151989645Y-100704926D01*
X151989418Y-100702625D01*
X151987956Y-100696434D01*
X151987955Y-100696431D01*
X151948547Y-100637453D01*
X151889569Y-100598045D01*
X151837561Y-100587700D01*
X151837559Y-100587700D01*
X149302304Y-100587700D01*
X149300877Y-100588010D01*
X149272748Y-100593604D01*
X149258924Y-100596354D01*
X149254592Y-100596781D01*
X149250433Y-100598042D01*
X149191456Y-100637450D01*
X149191450Y-100637456D01*
X149152045Y-100696431D01*
X149141700Y-100748438D01*
X149141700Y-101983695D01*
X149142010Y-101985121D01*
X149145000Y-102000154D01*
X149150354Y-102027075D01*
X149150581Y-102029375D01*
X149152042Y-102035564D01*
X149152130Y-102035740D01*
X149152910Y-102036863D01*
X149191453Y-102094547D01*
X149250431Y-102133955D01*
X149302439Y-102144300D01*
X151837560Y-102144299D01*
X151837563Y-102144299D01*
X151837689Y-102144299D01*
X151839062Y-102144000D01*
X151881082Y-102135643D01*
X151889906Y-102134774D01*
X151896758Y-102129151D01*
X151948547Y-102094547D01*
X151987955Y-102035569D01*
X151998300Y-101983561D01*
X151998300Y-101850899D01*
X152003599Y-101820840D01*
X152007922Y-101808963D01*
X152046565Y-101762905D01*
X152052859Y-101759271D01*
X152096801Y-101747500D01*
X154615223Y-101747500D01*
X154615224Y-101747500D01*
X154615225Y-101747500D01*
X154681353Y-101729780D01*
X154692604Y-101727543D01*
X154703105Y-101726161D01*
X154703945Y-101726051D01*
X154715410Y-101725300D01*
X154724335Y-101725300D01*
X154724336Y-101725300D01*
X154840897Y-101694068D01*
X154945403Y-101633732D01*
X155030732Y-101548403D01*
X155091068Y-101443897D01*
X155105563Y-101389795D01*
X155114342Y-101368599D01*
X155123286Y-101353106D01*
X155125518Y-101349239D01*
X155139482Y-101331038D01*
X155722323Y-100748199D01*
X155747325Y-100730694D01*
X155770828Y-100719734D01*
X155807974Y-100711500D01*
X157620146Y-100711500D01*
X157650209Y-100716801D01*
X157668851Y-100723586D01*
X157707572Y-100751457D01*
X157708448Y-100752558D01*
X157717979Y-100767373D01*
X157749442Y-100829121D01*
X157793715Y-100916013D01*
X157845002Y-100986603D01*
X157897161Y-101058393D01*
X158021607Y-101182839D01*
X158163988Y-101286285D01*
X158320799Y-101366184D01*
X158488178Y-101420568D01*
X158662004Y-101448100D01*
X158662006Y-101448100D01*
X158837994Y-101448100D01*
X158837996Y-101448100D01*
X159011822Y-101420568D01*
X159179201Y-101366184D01*
X159336012Y-101286285D01*
X159478393Y-101182839D01*
X159602839Y-101058393D01*
X159706285Y-100916012D01*
X159786184Y-100759201D01*
X159840568Y-100591822D01*
X159842358Y-100580519D01*
X159852296Y-100551661D01*
X159854725Y-100547278D01*
X159900106Y-100507837D01*
X159960224Y-100506792D01*
X160006949Y-100544635D01*
X160019500Y-100589901D01*
X160019500Y-102608723D01*
X160014197Y-102638792D01*
X160012486Y-102643492D01*
X159973834Y-102689549D01*
X159914620Y-102699987D01*
X159862550Y-102669920D01*
X159843072Y-102627176D01*
X159840082Y-102608303D01*
X159840081Y-102608296D01*
X159793462Y-102464815D01*
X159785723Y-102440996D01*
X159785713Y-102440976D01*
X159785647Y-102440847D01*
X159729474Y-102330601D01*
X159705870Y-102284275D01*
X159705867Y-102284269D01*
X159705858Y-102284252D01*
X159705854Y-102284245D01*
X159602457Y-102141931D01*
X159478068Y-102017542D01*
X159335754Y-101914145D01*
X159335747Y-101914141D01*
X159335737Y-101914136D01*
X159335723Y-101914128D01*
X159179022Y-101834285D01*
X159179002Y-101834275D01*
X159011700Y-101779917D01*
X159011702Y-101779917D01*
X158838900Y-101752548D01*
X158838900Y-102274100D01*
X158818335Y-102330601D01*
X158766264Y-102360665D01*
X158751000Y-102362000D01*
X158749000Y-102362000D01*
X158692499Y-102341435D01*
X158662435Y-102289364D01*
X158661100Y-102274100D01*
X158661100Y-101752548D01*
X158661099Y-101752548D01*
X158488297Y-101779917D01*
X158320996Y-101834275D01*
X158320976Y-101834285D01*
X158164275Y-101914128D01*
X158164243Y-101914146D01*
X158021930Y-102017542D01*
X157897542Y-102141930D01*
X157794146Y-102284243D01*
X157794128Y-102284275D01*
X157714285Y-102440976D01*
X157714275Y-102440996D01*
X157659917Y-102608297D01*
X157632548Y-102781099D01*
X157632549Y-102781100D01*
X158154100Y-102781100D01*
X158210601Y-102801665D01*
X158240665Y-102853736D01*
X158242000Y-102869000D01*
X158242000Y-102871000D01*
X158221435Y-102927501D01*
X158169364Y-102957565D01*
X158154100Y-102958900D01*
X157632549Y-102958900D01*
X157659917Y-103131701D01*
X157714275Y-103299002D01*
X157714285Y-103299022D01*
X157794128Y-103455723D01*
X157794136Y-103455737D01*
X157794141Y-103455747D01*
X157794145Y-103455754D01*
X157897542Y-103598068D01*
X158021931Y-103722457D01*
X158164245Y-103825854D01*
X158164252Y-103825858D01*
X158164269Y-103825867D01*
X158164275Y-103825870D01*
X158197306Y-103842700D01*
X158320987Y-103905719D01*
X158320994Y-103905722D01*
X158320996Y-103905723D01*
X158379942Y-103924875D01*
X158422391Y-103938667D01*
X158440011Y-103952433D01*
X158488294Y-103960080D01*
X158488297Y-103960081D01*
X158488295Y-103960081D01*
X158661099Y-103987450D01*
X158661100Y-103987450D01*
X158661100Y-103987449D01*
X158661100Y-103465900D01*
X158681665Y-103409399D01*
X158733736Y-103379335D01*
X158749000Y-103378000D01*
X158751000Y-103378000D01*
X158807501Y-103398565D01*
X158837565Y-103450636D01*
X158838900Y-103465900D01*
X158838900Y-103987450D01*
X159011703Y-103960081D01*
X159179005Y-103905722D01*
X159179012Y-103905719D01*
X159335747Y-103825858D01*
X159335754Y-103825854D01*
X159478068Y-103722457D01*
X159602457Y-103598068D01*
X159705854Y-103455754D01*
X159705858Y-103455747D01*
X159785719Y-103299012D01*
X159785722Y-103299005D01*
X159840081Y-103131702D01*
X159842357Y-103117330D01*
X159852294Y-103088472D01*
X159854724Y-103084088D01*
X159900104Y-103044645D01*
X159960222Y-103043600D01*
X160006948Y-103081442D01*
X160019500Y-103126709D01*
X160019500Y-105829450D01*
X160014197Y-105859519D01*
X160010843Y-105868732D01*
X159972191Y-105914790D01*
X159912976Y-105925227D01*
X159868151Y-105902811D01*
X159865884Y-105900688D01*
X159852896Y-105885377D01*
X159830721Y-105852190D01*
X159823547Y-105841453D01*
X159764569Y-105802045D01*
X159712561Y-105791700D01*
X159712559Y-105791700D01*
X159503700Y-105791700D01*
X159473637Y-105786399D01*
X159461762Y-105782077D01*
X159415702Y-105743429D01*
X159411077Y-105735418D01*
X159401604Y-105707492D01*
X159400863Y-105707640D01*
X159400302Y-105704827D01*
X159400300Y-105704807D01*
X159381127Y-105633252D01*
X159381127Y-105633251D01*
X159379494Y-105627157D01*
X159379075Y-105626431D01*
X159340612Y-105559812D01*
X159339562Y-105557862D01*
X159339396Y-105557638D01*
X159339300Y-105557542D01*
X159339300Y-105557541D01*
X157530459Y-103748700D01*
X157470861Y-103714290D01*
X157466232Y-103710738D01*
X157455448Y-103706271D01*
X157449661Y-103705510D01*
X157438625Y-103702553D01*
X157400267Y-103692275D01*
X157383193Y-103687700D01*
X153566908Y-103687700D01*
X153536844Y-103682399D01*
X153517219Y-103675256D01*
X153476563Y-103641142D01*
X153475235Y-103642162D01*
X153471733Y-103637598D01*
X153386404Y-103552269D01*
X153386403Y-103552268D01*
X153283024Y-103492583D01*
X153281981Y-103491959D01*
X153281906Y-103491934D01*
X153281878Y-103491925D01*
X153165337Y-103460700D01*
X153165336Y-103460700D01*
X153044664Y-103460700D01*
X153044662Y-103460700D01*
X152928106Y-103491929D01*
X152823593Y-103552270D01*
X152738270Y-103637593D01*
X152738269Y-103637595D01*
X152677930Y-103742106D01*
X152677929Y-103742108D01*
X152677929Y-103742109D01*
X152653913Y-103831743D01*
X152646700Y-103858662D01*
X152646700Y-103858664D01*
X152646700Y-103979336D01*
X152649624Y-103990249D01*
X152656780Y-104016955D01*
X152656780Y-104016957D01*
X152664958Y-104047481D01*
X152667619Y-104077889D01*
X152666518Y-104090475D01*
X152641107Y-104144969D01*
X152641107Y-104144970D01*
X152639329Y-104146748D01*
X152596206Y-104170408D01*
X152593469Y-104171015D01*
X152574437Y-104173100D01*
X150887931Y-104173100D01*
X150870779Y-104171410D01*
X150855765Y-104168423D01*
X150845755Y-104166431D01*
X150840161Y-104165126D01*
X150730337Y-104135700D01*
X150730336Y-104135700D01*
X150609664Y-104135700D01*
X150609662Y-104135700D01*
X150493106Y-104166929D01*
X150388593Y-104227270D01*
X150303270Y-104312593D01*
X150242929Y-104417106D01*
X150211700Y-104533662D01*
X150211700Y-104654336D01*
X150242925Y-104770878D01*
X150242934Y-104770906D01*
X150242959Y-104770981D01*
X150243583Y-104772024D01*
X150303268Y-104875403D01*
X150388597Y-104960732D01*
X150493103Y-105021068D01*
X150493104Y-105021068D01*
X150493105Y-105021068D01*
X150493106Y-105021069D01*
X150609664Y-105052300D01*
X150730335Y-105052300D01*
X150730336Y-105052300D01*
X150846897Y-105021068D01*
X150951403Y-104960732D01*
X151036732Y-104875403D01*
X151039917Y-104869884D01*
X151039920Y-104869886D01*
X151039923Y-104869873D01*
X151056557Y-104841065D01*
X151076172Y-104817690D01*
X151092174Y-104804262D01*
X151148673Y-104783700D01*
X152247532Y-104783700D01*
X152277590Y-104788998D01*
X152289467Y-104793321D01*
X152335527Y-104831967D01*
X152335528Y-104831968D01*
X152336785Y-104834145D01*
X152348479Y-104881925D01*
X152348356Y-104884731D01*
X152345446Y-104903644D01*
X152315700Y-105014660D01*
X152315700Y-105135336D01*
X152346925Y-105251878D01*
X152346934Y-105251906D01*
X152346959Y-105251981D01*
X152347583Y-105253024D01*
X152407268Y-105356403D01*
X152492597Y-105441732D01*
X152597103Y-105502068D01*
X152597104Y-105502068D01*
X152597105Y-105502068D01*
X152597106Y-105502069D01*
X152713664Y-105533300D01*
X152834335Y-105533300D01*
X152834336Y-105533300D01*
X152950897Y-105502068D01*
X153055403Y-105441732D01*
X153118132Y-105379003D01*
X153143137Y-105361494D01*
X153166640Y-105350534D01*
X153203786Y-105342300D01*
X156738631Y-105342300D01*
X156768695Y-105347601D01*
X156793065Y-105356471D01*
X156825156Y-105376915D01*
X157467197Y-106018956D01*
X157484705Y-106043960D01*
X157495664Y-106067463D01*
X157503900Y-106104610D01*
X157503900Y-107753196D01*
X157513470Y-107788915D01*
X157513471Y-107788915D01*
X157513472Y-107788918D01*
X157523006Y-107824496D01*
X157523008Y-107824502D01*
X157524704Y-107830833D01*
X157524706Y-107830840D01*
X157524706Y-107830841D01*
X157524712Y-107830854D01*
X157564895Y-107900452D01*
X157564897Y-107900455D01*
X157564898Y-107900456D01*
X157564900Y-107900459D01*
X157923144Y-108258703D01*
X158279997Y-108615556D01*
X158297505Y-108640560D01*
X158308464Y-108664063D01*
X158316700Y-108701210D01*
X158316700Y-109127694D01*
X158317010Y-109129121D01*
X158318995Y-109139098D01*
X158325354Y-109171075D01*
X158325581Y-109173375D01*
X158327042Y-109179564D01*
X158327130Y-109179740D01*
X158327910Y-109180863D01*
X158366453Y-109238547D01*
X158425431Y-109277955D01*
X158477439Y-109288300D01*
X159712560Y-109288299D01*
X159712563Y-109288299D01*
X159712689Y-109288299D01*
X159714062Y-109288000D01*
X159756082Y-109279643D01*
X159764906Y-109278774D01*
X159771758Y-109273151D01*
X159823547Y-109238547D01*
X159849904Y-109199099D01*
X159871012Y-109177050D01*
X159876024Y-109173375D01*
X159878918Y-109171252D01*
X159936643Y-109154427D01*
X159991679Y-109178643D01*
X160016498Y-109222175D01*
X160017203Y-109225198D01*
X160019500Y-109245162D01*
X160019500Y-109639450D01*
X160014197Y-109669519D01*
X160010843Y-109678732D01*
X159972191Y-109724790D01*
X159912976Y-109735227D01*
X159868151Y-109712811D01*
X159865884Y-109710688D01*
X159852896Y-109695377D01*
X159851797Y-109693732D01*
X159823547Y-109651453D01*
X159764569Y-109612045D01*
X159712561Y-109601700D01*
X159712559Y-109601700D01*
X158477304Y-109601700D01*
X158475877Y-109602010D01*
X158447748Y-109607604D01*
X158433924Y-109610354D01*
X158429592Y-109610781D01*
X158425433Y-109612042D01*
X158366456Y-109651450D01*
X158366450Y-109651456D01*
X158328511Y-109708236D01*
X158320225Y-109718793D01*
X158307595Y-109732573D01*
X158254258Y-109760330D01*
X158200514Y-109750244D01*
X158197793Y-109748751D01*
X158193987Y-109746662D01*
X158174115Y-109731756D01*
X158124858Y-109682499D01*
X158107348Y-109657490D01*
X158104534Y-109651456D01*
X158096391Y-109633991D01*
X158088156Y-109596845D01*
X158088156Y-109558920D01*
X158082778Y-109538848D01*
X158056925Y-109442362D01*
X158056924Y-109442361D01*
X158056924Y-109442359D01*
X157996588Y-109337853D01*
X157911259Y-109252524D01*
X157807880Y-109192839D01*
X157806837Y-109192215D01*
X157806762Y-109192190D01*
X157806734Y-109192181D01*
X157690193Y-109160956D01*
X157690192Y-109160956D01*
X157569520Y-109160956D01*
X157569518Y-109160956D01*
X157452962Y-109192185D01*
X157348449Y-109252526D01*
X157263126Y-109337849D01*
X157202785Y-109442362D01*
X157171556Y-109558918D01*
X157171556Y-109679591D01*
X157202781Y-109796134D01*
X157202790Y-109796162D01*
X157202815Y-109796237D01*
X157203439Y-109797280D01*
X157263124Y-109900659D01*
X157348453Y-109985988D01*
X157452959Y-110046324D01*
X157452960Y-110046324D01*
X157452961Y-110046324D01*
X157452962Y-110046325D01*
X157569520Y-110077556D01*
X157604487Y-110077556D01*
X157634551Y-110082857D01*
X157658921Y-110091727D01*
X157691012Y-110112171D01*
X157903141Y-110324300D01*
X157903142Y-110324300D01*
X157903260Y-110324418D01*
X157903489Y-110324577D01*
X157905407Y-110325609D01*
X157972754Y-110364492D01*
X157972758Y-110364494D01*
X157977146Y-110365669D01*
X157990675Y-110372248D01*
X158007824Y-110373890D01*
X158021984Y-110377684D01*
X158021985Y-110377684D01*
X158050407Y-110385300D01*
X158226623Y-110385300D01*
X158256683Y-110390599D01*
X158269067Y-110395107D01*
X158314645Y-110432931D01*
X158320539Y-110442888D01*
X158332562Y-110463200D01*
X158339888Y-110468790D01*
X158357533Y-110495198D01*
X158366453Y-110508547D01*
X158425431Y-110547955D01*
X158477439Y-110558300D01*
X159712560Y-110558299D01*
X159712563Y-110558299D01*
X159712689Y-110558299D01*
X159714062Y-110558000D01*
X159756082Y-110549643D01*
X159764906Y-110548774D01*
X159771758Y-110543151D01*
X159823547Y-110508547D01*
X159849904Y-110469099D01*
X159871012Y-110447050D01*
X159878918Y-110441252D01*
X159936643Y-110424427D01*
X159991679Y-110448643D01*
X160016498Y-110492175D01*
X160017203Y-110495198D01*
X160019500Y-110515162D01*
X160019500Y-110909450D01*
X160014197Y-110939519D01*
X160010843Y-110948732D01*
X159972191Y-110994790D01*
X159912976Y-111005227D01*
X159868165Y-110982824D01*
X159865894Y-110980697D01*
X159852895Y-110965375D01*
X159848260Y-110958439D01*
X159823547Y-110921453D01*
X159764569Y-110882045D01*
X159712561Y-110871700D01*
X159712559Y-110871700D01*
X158477304Y-110871700D01*
X158475877Y-110872010D01*
X158447748Y-110877604D01*
X158433924Y-110880354D01*
X158429592Y-110880781D01*
X158425433Y-110882042D01*
X158366456Y-110921450D01*
X158366450Y-110921456D01*
X158327045Y-110980431D01*
X158316700Y-111032438D01*
X158316700Y-111193456D01*
X158311395Y-111223529D01*
X158309553Y-111228588D01*
X158270899Y-111274644D01*
X158211684Y-111285078D01*
X158159630Y-111255024D01*
X158158225Y-111253350D01*
X158140648Y-111219589D01*
X158130069Y-111180105D01*
X158087111Y-111105699D01*
X158069732Y-111075597D01*
X157984403Y-110990268D01*
X157881024Y-110930583D01*
X157879981Y-110929959D01*
X157879906Y-110929934D01*
X157879878Y-110929925D01*
X157763337Y-110898700D01*
X157763336Y-110898700D01*
X157642664Y-110898700D01*
X157642662Y-110898700D01*
X157526106Y-110929929D01*
X157421593Y-110990270D01*
X157336270Y-111075593D01*
X157275929Y-111180106D01*
X157244700Y-111296662D01*
X157244700Y-111331631D01*
X157239398Y-111361698D01*
X157230527Y-111386068D01*
X157210084Y-111418156D01*
X156435698Y-112192542D01*
X156401778Y-112251290D01*
X156401776Y-112251298D01*
X156395504Y-112262160D01*
X156374700Y-112339807D01*
X156374700Y-113480300D01*
X156369398Y-113510365D01*
X156365076Y-113522239D01*
X156326435Y-113568293D01*
X156320156Y-113571919D01*
X156276199Y-113583700D01*
X155063806Y-113583700D01*
X155056525Y-113585651D01*
X154986161Y-113604504D01*
X154916539Y-113644700D01*
X154434311Y-114126928D01*
X154409303Y-114144438D01*
X154400137Y-114148712D01*
X154340238Y-114153952D01*
X154290986Y-114119463D01*
X154290976Y-114119449D01*
X154289185Y-114116890D01*
X154273299Y-114066488D01*
X154273299Y-113572307D01*
X154272988Y-113570875D01*
X154264645Y-113528926D01*
X154264218Y-113524595D01*
X154262957Y-113520440D01*
X154262956Y-113520434D01*
X154262956Y-113520433D01*
X154243295Y-113491008D01*
X154223547Y-113461453D01*
X154164569Y-113422045D01*
X154112561Y-113411700D01*
X154112559Y-113411700D01*
X153311570Y-113411700D01*
X153281504Y-113406398D01*
X153257133Y-113397527D01*
X153251349Y-113393689D01*
X153247125Y-113393162D01*
X153225045Y-113377084D01*
X153106773Y-113258813D01*
X153089261Y-113233802D01*
X153084986Y-113224633D01*
X153082632Y-113197724D01*
X153079420Y-113190110D01*
X153081403Y-113183670D01*
X153079748Y-113164734D01*
X153093121Y-113145636D01*
X153097123Y-113132649D01*
X153106429Y-113126633D01*
X153114236Y-113115484D01*
X153116800Y-113113690D01*
X153135647Y-113107748D01*
X153147620Y-113100010D01*
X153156625Y-113101135D01*
X153167209Y-113097799D01*
X153406098Y-113097799D01*
X153406099Y-113097799D01*
X153406100Y-113097798D01*
X153406100Y-112708901D01*
X153583900Y-112708901D01*
X153583900Y-113097798D01*
X153583901Y-113097799D01*
X153583902Y-113097799D01*
X154112509Y-113097799D01*
X154112511Y-113097799D01*
X154129719Y-113094375D01*
X154164375Y-113087483D01*
X154223182Y-113048188D01*
X154223188Y-113048182D01*
X154262483Y-112989375D01*
X154272800Y-112937512D01*
X154272800Y-112708901D01*
X154272799Y-112708900D01*
X154272798Y-112708900D01*
X153583902Y-112708900D01*
X153583901Y-112708900D01*
X153583900Y-112708901D01*
X153406100Y-112708901D01*
X153406100Y-112142201D01*
X153583900Y-112142201D01*
X153583900Y-112531099D01*
X153583901Y-112531100D01*
X154272797Y-112531100D01*
X154272798Y-112531100D01*
X154272799Y-112531099D01*
X154272799Y-112302491D01*
X154272799Y-112302488D01*
X154265479Y-112265689D01*
X154262483Y-112250624D01*
X154223188Y-112191817D01*
X154223182Y-112191811D01*
X154164375Y-112152516D01*
X154164372Y-112152515D01*
X154138265Y-112147322D01*
X154112513Y-112142200D01*
X154112511Y-112142200D01*
X153583902Y-112142200D01*
X153583901Y-112142200D01*
X153583900Y-112142201D01*
X153406100Y-112142201D01*
X153406099Y-112142200D01*
X153406098Y-112142200D01*
X152911700Y-112142200D01*
X152881637Y-112136899D01*
X152869762Y-112132577D01*
X152823702Y-112093929D01*
X152820071Y-112087640D01*
X152808300Y-112043698D01*
X152808300Y-111931698D01*
X152813599Y-111901639D01*
X152814292Y-111899735D01*
X152817922Y-111889762D01*
X152856565Y-111843704D01*
X152862859Y-111840070D01*
X152906801Y-111828299D01*
X154115485Y-111828299D01*
X154121051Y-111826610D01*
X154156081Y-111819643D01*
X154164906Y-111818774D01*
X154171758Y-111813151D01*
X154223547Y-111778547D01*
X154262955Y-111719569D01*
X154273300Y-111667561D01*
X154273299Y-111032440D01*
X154273299Y-111032439D01*
X154273299Y-111032436D01*
X154273299Y-111032307D01*
X154272988Y-111030875D01*
X154264645Y-110988926D01*
X154264218Y-110984595D01*
X154262957Y-110980440D01*
X154262956Y-110980434D01*
X154262956Y-110980433D01*
X154248260Y-110958439D01*
X154223547Y-110921453D01*
X154164569Y-110882045D01*
X154112561Y-110871700D01*
X154112559Y-110871700D01*
X152877304Y-110871700D01*
X152875877Y-110872010D01*
X152847748Y-110877604D01*
X152833924Y-110880354D01*
X152829592Y-110880781D01*
X152825433Y-110882042D01*
X152766456Y-110921450D01*
X152766450Y-110921456D01*
X152727044Y-110980431D01*
X152726258Y-110984383D01*
X152715194Y-111012831D01*
X152703811Y-111031589D01*
X152668556Y-111063897D01*
X152668654Y-111064066D01*
X152667896Y-111064503D01*
X152667553Y-111064818D01*
X152666168Y-111065501D01*
X152666164Y-111065502D01*
X152666162Y-111065504D01*
X152647969Y-111076008D01*
X152596541Y-111105699D01*
X152477314Y-111224927D01*
X152452306Y-111242437D01*
X152443138Y-111246712D01*
X152383240Y-111251952D01*
X152333988Y-111217465D01*
X152333480Y-111216739D01*
X152332186Y-111214890D01*
X152316300Y-111164488D01*
X152316300Y-111042195D01*
X152314360Y-111032439D01*
X152290234Y-110911150D01*
X152290231Y-110911142D01*
X152240758Y-110791702D01*
X152239586Y-110788429D01*
X152197350Y-110725217D01*
X152197350Y-110725218D01*
X152164870Y-110676609D01*
X152070391Y-110582130D01*
X152064201Y-110577994D01*
X151959290Y-110507893D01*
X151835864Y-110456770D01*
X151835856Y-110456767D01*
X151835849Y-110456765D01*
X151737344Y-110437172D01*
X151733749Y-110436457D01*
X151704807Y-110430700D01*
X151704805Y-110430700D01*
X151571192Y-110430700D01*
X151559971Y-110432932D01*
X151542249Y-110436457D01*
X151440151Y-110456764D01*
X151440142Y-110456767D01*
X151440134Y-110456770D01*
X151320703Y-110506239D01*
X151317433Y-110507409D01*
X151205613Y-110582126D01*
X151111126Y-110676613D01*
X151036409Y-110788433D01*
X151035239Y-110791703D01*
X150985770Y-110911134D01*
X150985767Y-110911142D01*
X150985765Y-110911149D01*
X150959700Y-111042190D01*
X150959700Y-112080190D01*
X150954395Y-112110263D01*
X150952553Y-112115322D01*
X150913899Y-112161378D01*
X150854684Y-112171812D01*
X150802630Y-112141758D01*
X150801225Y-112140084D01*
X150783648Y-112106323D01*
X150774911Y-112073714D01*
X150774911Y-112073715D01*
X150746281Y-111966865D01*
X150670515Y-111835635D01*
X150563365Y-111728485D01*
X150563362Y-111728483D01*
X150563361Y-111728482D01*
X150559432Y-111726214D01*
X150559431Y-111726213D01*
X150457842Y-111667560D01*
X150442155Y-111658503D01*
X150437526Y-111654952D01*
X150426742Y-111650484D01*
X150420955Y-111649723D01*
X150328420Y-111624928D01*
X150300752Y-111612026D01*
X150290998Y-111605196D01*
X150256511Y-111555942D01*
X150253517Y-111533584D01*
X150253484Y-111526186D01*
X150249846Y-110708542D01*
X150248832Y-110699390D01*
X150248299Y-110689719D01*
X150248299Y-110566307D01*
X150247988Y-110564875D01*
X150239645Y-110522926D01*
X150239218Y-110518595D01*
X150237955Y-110514430D01*
X150234023Y-110508546D01*
X150207667Y-110469102D01*
X150198547Y-110455453D01*
X150139569Y-110416045D01*
X150087561Y-110405700D01*
X150087559Y-110405700D01*
X149970472Y-110405700D01*
X149957900Y-110404796D01*
X149942774Y-110402610D01*
X149942767Y-110402609D01*
X149497120Y-110402284D01*
X149483918Y-110403697D01*
X149444507Y-110398896D01*
X149436764Y-110396078D01*
X149390704Y-110357431D01*
X149387071Y-110351140D01*
X149375300Y-110307198D01*
X149375300Y-109975239D01*
X149380599Y-109945180D01*
X149381075Y-109943873D01*
X149384922Y-109933303D01*
X149423565Y-109887245D01*
X149433432Y-109881548D01*
X149458939Y-109872695D01*
X149458911Y-109872603D01*
X149461585Y-109871776D01*
X149464706Y-109870693D01*
X149465435Y-109870587D01*
X149578861Y-109815136D01*
X149668136Y-109725861D01*
X149723587Y-109612435D01*
X149734300Y-109538904D01*
X149734300Y-109316901D01*
X150228200Y-109316901D01*
X150228200Y-109538851D01*
X150231112Y-109558836D01*
X150238900Y-109612298D01*
X150238902Y-109612303D01*
X150239056Y-109612613D01*
X150294271Y-109725559D01*
X150294272Y-109725560D01*
X150294273Y-109725562D01*
X150383437Y-109814726D01*
X150383438Y-109814726D01*
X150383439Y-109814727D01*
X150496388Y-109869944D01*
X150496696Y-109870096D01*
X150496701Y-109870098D01*
X150496703Y-109870098D01*
X150496705Y-109870099D01*
X150570148Y-109880800D01*
X150717098Y-109880800D01*
X150717099Y-109880800D01*
X150717100Y-109880799D01*
X150717100Y-109316901D01*
X150894900Y-109316901D01*
X150894900Y-109880799D01*
X150894901Y-109880800D01*
X151041847Y-109880800D01*
X151041851Y-109880800D01*
X151115294Y-109870099D01*
X151115295Y-109870098D01*
X151115297Y-109870098D01*
X151115301Y-109870097D01*
X151115531Y-109869983D01*
X151228562Y-109814726D01*
X151317726Y-109725562D01*
X151372983Y-109612531D01*
X151373097Y-109612301D01*
X151373098Y-109612297D01*
X151373098Y-109612295D01*
X151373099Y-109612294D01*
X151383800Y-109538851D01*
X151383800Y-109316901D01*
X151383799Y-109316900D01*
X151383798Y-109316900D01*
X150894902Y-109316900D01*
X150894901Y-109316900D01*
X150894900Y-109316901D01*
X150717100Y-109316901D01*
X150717099Y-109316900D01*
X150717098Y-109316900D01*
X150228202Y-109316900D01*
X150228201Y-109316900D01*
X150228200Y-109316901D01*
X149734300Y-109316901D01*
X149734300Y-108917148D01*
X150228200Y-108917148D01*
X150228200Y-109139099D01*
X150228201Y-109139100D01*
X150717098Y-109139100D01*
X150717099Y-109139100D01*
X150717100Y-109139099D01*
X150717100Y-108575201D01*
X150894900Y-108575201D01*
X150894900Y-109139099D01*
X150894901Y-109139100D01*
X151383798Y-109139100D01*
X151383799Y-109139100D01*
X151383800Y-109139099D01*
X151383800Y-108917148D01*
X151373099Y-108843705D01*
X151373098Y-108843703D01*
X151373098Y-108843701D01*
X151373096Y-108843696D01*
X151372944Y-108843388D01*
X151317727Y-108730439D01*
X151317726Y-108730438D01*
X151317726Y-108730437D01*
X151228562Y-108641273D01*
X151228560Y-108641272D01*
X151228559Y-108641271D01*
X151115613Y-108586056D01*
X151115305Y-108585903D01*
X151115294Y-108585900D01*
X151104799Y-108584371D01*
X151041852Y-108575200D01*
X151041849Y-108575200D01*
X150894902Y-108575200D01*
X150894901Y-108575200D01*
X150894900Y-108575201D01*
X150717100Y-108575201D01*
X150717099Y-108575200D01*
X150717098Y-108575200D01*
X150570150Y-108575200D01*
X150570148Y-108575200D01*
X150549164Y-108578257D01*
X150496700Y-108585900D01*
X150496694Y-108585902D01*
X150496385Y-108586056D01*
X150383439Y-108641271D01*
X150294271Y-108730439D01*
X150244405Y-108832442D01*
X150244404Y-108832445D01*
X150238901Y-108843703D01*
X150238900Y-108843705D01*
X150228200Y-108917148D01*
X149734300Y-108917148D01*
X149734300Y-108917096D01*
X149723587Y-108843565D01*
X149693559Y-108782142D01*
X149693559Y-108782141D01*
X149693559Y-108782140D01*
X149669327Y-108732574D01*
X149668305Y-108730309D01*
X149668136Y-108730140D01*
X149668136Y-108730139D01*
X149578861Y-108640864D01*
X149578859Y-108640863D01*
X149578857Y-108640861D01*
X149578856Y-108640860D01*
X149465754Y-108585568D01*
X149465653Y-108585464D01*
X149462617Y-108584747D01*
X149459135Y-108584495D01*
X149443723Y-108582249D01*
X149391904Y-108574700D01*
X149391901Y-108574700D01*
X148920098Y-108574700D01*
X148920096Y-108574700D01*
X148873605Y-108581473D01*
X148852865Y-108584495D01*
X148849380Y-108584747D01*
X148846553Y-108585414D01*
X148846245Y-108585567D01*
X148733145Y-108640858D01*
X148643858Y-108730145D01*
X148588567Y-108843245D01*
X148588414Y-108843553D01*
X148587747Y-108846380D01*
X148587495Y-108849865D01*
X148577700Y-108917096D01*
X148577700Y-109538904D01*
X148586141Y-109596839D01*
X148587495Y-109606134D01*
X148587747Y-109609618D01*
X148588414Y-109612443D01*
X148588568Y-109612754D01*
X148643860Y-109725856D01*
X148643861Y-109725857D01*
X148643863Y-109725859D01*
X148643864Y-109725861D01*
X148718776Y-109800773D01*
X148729041Y-109813111D01*
X148735733Y-109822841D01*
X148735733Y-109822842D01*
X148749224Y-109842458D01*
X148764700Y-109892268D01*
X148764700Y-110302300D01*
X148759398Y-110332365D01*
X148755076Y-110344239D01*
X148716435Y-110390293D01*
X148710156Y-110393919D01*
X148666199Y-110405700D01*
X148490130Y-110405700D01*
X148460067Y-110400399D01*
X148448192Y-110396077D01*
X148402132Y-110357429D01*
X148398501Y-110351140D01*
X148386730Y-110307198D01*
X148386730Y-108441101D01*
X148392030Y-108411040D01*
X148392870Y-108408732D01*
X148399397Y-108390797D01*
X148438043Y-108344739D01*
X148444832Y-108341204D01*
X148463432Y-108332532D01*
X148500575Y-108324299D01*
X149344585Y-108324299D01*
X149350151Y-108322610D01*
X149385181Y-108315643D01*
X149394006Y-108314774D01*
X149400858Y-108309151D01*
X149452647Y-108274547D01*
X149483844Y-108227856D01*
X149492111Y-108217321D01*
X149499002Y-108209797D01*
X149499003Y-108209798D01*
X149516604Y-108190582D01*
X149550062Y-108170292D01*
X149549259Y-108168352D01*
X149554585Y-108166146D01*
X149554585Y-108166145D01*
X149554588Y-108166145D01*
X149626812Y-108124447D01*
X150206829Y-107544429D01*
X150231831Y-107526924D01*
X150255334Y-107515964D01*
X150292480Y-107507730D01*
X151352896Y-107507730D01*
X151382960Y-107513031D01*
X151404321Y-107520806D01*
X151407330Y-107521901D01*
X151439421Y-107542345D01*
X152679997Y-108782921D01*
X152697505Y-108807925D01*
X152708464Y-108831428D01*
X152716700Y-108868575D01*
X152716700Y-109127694D01*
X152717010Y-109129121D01*
X152718995Y-109139098D01*
X152725354Y-109171075D01*
X152725581Y-109173375D01*
X152727042Y-109179564D01*
X152727130Y-109179740D01*
X152727910Y-109180863D01*
X152766453Y-109238547D01*
X152825431Y-109277955D01*
X152877439Y-109288300D01*
X154112560Y-109288299D01*
X154112562Y-109288299D01*
X154112564Y-109288299D01*
X154119203Y-109286977D01*
X154126981Y-109285430D01*
X154157505Y-109284765D01*
X154166832Y-109286200D01*
X154168601Y-109286473D01*
X154221314Y-109315397D01*
X154242992Y-109368557D01*
X154243473Y-109377367D01*
X154240610Y-109404906D01*
X154231700Y-109438163D01*
X154231700Y-109502792D01*
X154226398Y-109532857D01*
X154222076Y-109544731D01*
X154217477Y-109550211D01*
X154216358Y-109557279D01*
X154198576Y-109572736D01*
X154183430Y-109590788D01*
X154179909Y-109592821D01*
X154173561Y-109594482D01*
X154170980Y-109596727D01*
X154164559Y-109596839D01*
X154134941Y-109604593D01*
X154134768Y-109604591D01*
X154118642Y-109602909D01*
X154112561Y-109601700D01*
X154112560Y-109601700D01*
X152877303Y-109601700D01*
X152875877Y-109602010D01*
X152825450Y-109612039D01*
X152825432Y-109612043D01*
X152825429Y-109612044D01*
X152804609Y-109625956D01*
X152776664Y-109638250D01*
X152771763Y-109639450D01*
X152753133Y-109644008D01*
X152709496Y-109643531D01*
X152665340Y-109631700D01*
X152665337Y-109631700D01*
X152665336Y-109631700D01*
X152544664Y-109631700D01*
X152544662Y-109631700D01*
X152428106Y-109662929D01*
X152323593Y-109723270D01*
X152238270Y-109808593D01*
X152177929Y-109913106D01*
X152146700Y-110029662D01*
X152146700Y-110150336D01*
X152177925Y-110266878D01*
X152177934Y-110266906D01*
X152177959Y-110266981D01*
X152178593Y-110268042D01*
X152181289Y-110272712D01*
X152238268Y-110371403D01*
X152323597Y-110456732D01*
X152428103Y-110517068D01*
X152428104Y-110517068D01*
X152428105Y-110517068D01*
X152428106Y-110517069D01*
X152544664Y-110548300D01*
X152665334Y-110548300D01*
X152665335Y-110548300D01*
X152665336Y-110548300D01*
X152726538Y-110531900D01*
X152756947Y-110529241D01*
X152781082Y-110531353D01*
X152822252Y-110545831D01*
X152825431Y-110547955D01*
X152877439Y-110558300D01*
X154112560Y-110558299D01*
X154112563Y-110558299D01*
X154112689Y-110558299D01*
X154114062Y-110558000D01*
X154156082Y-110549643D01*
X154164906Y-110548774D01*
X154171758Y-110543151D01*
X154223547Y-110508547D01*
X154262955Y-110449569D01*
X154273300Y-110397561D01*
X154273299Y-109954862D01*
X154278599Y-109924801D01*
X154279405Y-109922587D01*
X154282060Y-109915292D01*
X154320707Y-109869233D01*
X154379919Y-109858791D01*
X154389890Y-109860549D01*
X154418565Y-109870987D01*
X154513103Y-109925568D01*
X154513104Y-109925568D01*
X154513105Y-109925568D01*
X154513106Y-109925569D01*
X154629664Y-109956800D01*
X154750335Y-109956800D01*
X154750336Y-109956800D01*
X154866897Y-109925568D01*
X154971403Y-109865232D01*
X155056732Y-109779903D01*
X155117068Y-109675397D01*
X155148300Y-109558836D01*
X155148300Y-109438164D01*
X155135079Y-109388823D01*
X155132882Y-109380621D01*
X155117069Y-109321605D01*
X155113485Y-109315397D01*
X155056732Y-109217097D01*
X154971403Y-109131768D01*
X154868024Y-109072083D01*
X154866981Y-109071459D01*
X154866906Y-109071434D01*
X154866878Y-109071425D01*
X154750337Y-109040200D01*
X154750336Y-109040200D01*
X154629664Y-109040200D01*
X154629662Y-109040200D01*
X154513103Y-109071431D01*
X154513100Y-109071432D01*
X154418571Y-109126008D01*
X154389878Y-109136450D01*
X154379914Y-109138206D01*
X154320701Y-109127760D01*
X154282059Y-109081702D01*
X154278600Y-109072198D01*
X154273299Y-109042136D01*
X154273299Y-108492307D01*
X154272988Y-108490875D01*
X154264645Y-108448926D01*
X154264218Y-108444595D01*
X154262957Y-108440440D01*
X154262956Y-108440434D01*
X154262956Y-108440433D01*
X154258514Y-108433785D01*
X154223547Y-108381453D01*
X154164569Y-108342045D01*
X154112561Y-108331700D01*
X154112559Y-108331700D01*
X153176534Y-108331700D01*
X153146468Y-108326398D01*
X153122097Y-108317527D01*
X153116308Y-108313685D01*
X153112076Y-108313156D01*
X153090008Y-108297084D01*
X152972235Y-108179311D01*
X152954727Y-108154306D01*
X152950450Y-108145135D01*
X152948095Y-108118208D01*
X152944885Y-108110597D01*
X152946866Y-108104167D01*
X152945211Y-108085238D01*
X152958592Y-108066128D01*
X152962597Y-108053137D01*
X152971898Y-108047127D01*
X152979698Y-108035987D01*
X152982273Y-108034184D01*
X153001125Y-108028242D01*
X153013100Y-108020506D01*
X153022099Y-108021632D01*
X153032675Y-108018299D01*
X154115485Y-108018299D01*
X154121051Y-108016610D01*
X154156081Y-108009643D01*
X154164906Y-108008774D01*
X154171758Y-108003151D01*
X154223547Y-107968547D01*
X154262955Y-107909569D01*
X154273300Y-107857561D01*
X154273299Y-107222440D01*
X154273299Y-107222439D01*
X154273299Y-107222436D01*
X154273299Y-107222307D01*
X154272988Y-107220875D01*
X154264645Y-107178926D01*
X154264218Y-107174595D01*
X154262957Y-107170440D01*
X154262956Y-107170434D01*
X154262956Y-107170433D01*
X154259708Y-107165572D01*
X154235138Y-107128800D01*
X154223548Y-107111454D01*
X154223547Y-107111453D01*
X154164569Y-107072045D01*
X154112561Y-107061700D01*
X154112559Y-107061700D01*
X152877304Y-107061700D01*
X152875877Y-107062010D01*
X152853464Y-107066468D01*
X152853463Y-107066468D01*
X152825434Y-107072043D01*
X152825433Y-107072043D01*
X152766454Y-107111452D01*
X152766453Y-107111453D01*
X152739647Y-107151571D01*
X152727572Y-107160600D01*
X152727300Y-107160681D01*
X152726910Y-107161090D01*
X152716722Y-107168560D01*
X152659002Y-107185385D01*
X152654941Y-107185119D01*
X152611217Y-107170065D01*
X152611076Y-107169969D01*
X152598390Y-107159466D01*
X151391362Y-105952438D01*
X152716700Y-105952438D01*
X152716700Y-106587695D01*
X152717010Y-106589121D01*
X152718716Y-106597698D01*
X152725354Y-106631075D01*
X152725581Y-106633375D01*
X152727042Y-106639564D01*
X152727130Y-106639740D01*
X152727910Y-106640863D01*
X152766453Y-106698547D01*
X152825431Y-106737955D01*
X152877439Y-106748300D01*
X154112560Y-106748299D01*
X154112563Y-106748299D01*
X154112689Y-106748299D01*
X154114062Y-106748000D01*
X154156082Y-106739643D01*
X154164906Y-106738774D01*
X154171758Y-106733151D01*
X154223547Y-106698547D01*
X154249874Y-106659145D01*
X154257015Y-106653727D01*
X154269613Y-106632956D01*
X154269614Y-106632957D01*
X154276531Y-106621553D01*
X154322520Y-106584219D01*
X154328798Y-106582010D01*
X154333720Y-106580280D01*
X154362885Y-106575300D01*
X154917431Y-106575300D01*
X154947495Y-106580601D01*
X154955817Y-106583630D01*
X154966985Y-106587695D01*
X154971865Y-106589471D01*
X155003956Y-106609915D01*
X155794797Y-107400756D01*
X155812305Y-107425760D01*
X155823264Y-107449263D01*
X155831500Y-107486410D01*
X155831500Y-107524336D01*
X155831656Y-107524918D01*
X155832063Y-107526438D01*
X155862725Y-107640878D01*
X155862734Y-107640906D01*
X155862759Y-107640981D01*
X155863383Y-107642024D01*
X155923068Y-107745403D01*
X156008397Y-107830732D01*
X156112903Y-107891068D01*
X156112904Y-107891068D01*
X156112905Y-107891068D01*
X156112906Y-107891069D01*
X156229464Y-107922300D01*
X156350135Y-107922300D01*
X156350136Y-107922300D01*
X156466697Y-107891068D01*
X156571203Y-107830732D01*
X156656532Y-107745403D01*
X156716868Y-107640897D01*
X156748100Y-107524336D01*
X156748100Y-107403664D01*
X156726901Y-107324547D01*
X156716869Y-107287106D01*
X156716868Y-107287105D01*
X156716868Y-107287103D01*
X156656532Y-107182597D01*
X156571203Y-107097268D01*
X156467824Y-107037583D01*
X156466781Y-107036959D01*
X156466706Y-107036934D01*
X156466678Y-107036925D01*
X156350137Y-107005700D01*
X156350136Y-107005700D01*
X156315169Y-107005700D01*
X156285103Y-107000398D01*
X156260732Y-106991527D01*
X156228643Y-106971084D01*
X155283259Y-106025700D01*
X155223661Y-105991290D01*
X155219032Y-105987738D01*
X155208248Y-105983271D01*
X155202461Y-105982510D01*
X155164413Y-105972315D01*
X155135993Y-105964700D01*
X155135992Y-105964700D01*
X154363377Y-105964700D01*
X154333312Y-105959398D01*
X154320930Y-105954891D01*
X154275353Y-105917067D01*
X154274005Y-105914790D01*
X154269460Y-105907111D01*
X154257431Y-105886790D01*
X154250105Y-105881201D01*
X154223547Y-105841453D01*
X154164569Y-105802045D01*
X154112561Y-105791700D01*
X154112559Y-105791700D01*
X152877304Y-105791700D01*
X152875877Y-105792010D01*
X152847748Y-105797604D01*
X152833924Y-105800354D01*
X152829592Y-105800781D01*
X152825433Y-105802042D01*
X152766456Y-105841450D01*
X152766450Y-105841456D01*
X152727045Y-105900431D01*
X152716700Y-105952438D01*
X151391362Y-105952438D01*
X151156477Y-105717553D01*
X151134400Y-105704806D01*
X151134400Y-105704807D01*
X151094272Y-105681639D01*
X151089642Y-105678087D01*
X151078860Y-105673620D01*
X151073073Y-105672859D01*
X151069195Y-105671820D01*
X151003698Y-105654270D01*
X149573140Y-105654270D01*
X149543076Y-105648969D01*
X149522594Y-105641514D01*
X149479572Y-105607749D01*
X149455954Y-105572402D01*
X149455951Y-105572398D01*
X149452649Y-105567456D01*
X149452647Y-105567453D01*
X149393669Y-105528045D01*
X149341661Y-105517700D01*
X149341659Y-105517700D01*
X148106404Y-105517700D01*
X148104977Y-105518010D01*
X148076848Y-105523604D01*
X148063024Y-105526354D01*
X148058692Y-105526781D01*
X148054533Y-105528042D01*
X147995556Y-105567450D01*
X147995550Y-105567456D01*
X147985270Y-105582843D01*
X147985269Y-105582844D01*
X147956145Y-105626430D01*
X147950608Y-105654269D01*
X147945800Y-105678440D01*
X147945800Y-105765665D01*
X147940498Y-105795732D01*
X147931627Y-105820102D01*
X147911184Y-105852190D01*
X147421523Y-106341853D01*
X147362551Y-106400824D01*
X147320853Y-106473049D01*
X147299270Y-106553601D01*
X147299270Y-109713870D01*
X147293968Y-109743935D01*
X147289646Y-109755809D01*
X147251005Y-109801863D01*
X147244726Y-109805489D01*
X147200769Y-109817270D01*
X146802701Y-109817270D01*
X146722147Y-109838853D01*
X146722146Y-109838854D01*
X146677298Y-109864746D01*
X146648615Y-109875185D01*
X146638912Y-109876896D01*
X146579698Y-109866456D01*
X146541048Y-109820396D01*
X146538007Y-109770527D01*
X146538696Y-109767547D01*
X146545367Y-109748751D01*
X146546388Y-109746664D01*
X146579178Y-109679591D01*
X146586474Y-109664665D01*
X146586790Y-109664027D01*
X146586831Y-109663943D01*
X146587240Y-109661773D01*
X146587503Y-109658146D01*
X146588478Y-109651453D01*
X146597300Y-109590904D01*
X146597300Y-108969096D01*
X146586587Y-108895565D01*
X146576369Y-108874664D01*
X146561088Y-108843405D01*
X146532327Y-108784574D01*
X146531305Y-108782309D01*
X146531136Y-108782140D01*
X146531136Y-108782139D01*
X146441861Y-108692864D01*
X146441859Y-108692863D01*
X146441857Y-108692861D01*
X146441856Y-108692860D01*
X146328754Y-108637568D01*
X146328443Y-108637414D01*
X146325617Y-108636747D01*
X146322135Y-108636495D01*
X146306723Y-108634249D01*
X146254904Y-108626700D01*
X146254901Y-108626700D01*
X145783098Y-108626700D01*
X145783096Y-108626700D01*
X145736605Y-108633473D01*
X145715865Y-108636495D01*
X145712380Y-108636747D01*
X145709554Y-108637414D01*
X145709199Y-108637590D01*
X145605768Y-108688155D01*
X145590694Y-108693879D01*
X145572598Y-108698907D01*
X145512654Y-108694218D01*
X145469749Y-108652098D01*
X145466874Y-108646077D01*
X145458300Y-108608211D01*
X145458300Y-108427698D01*
X145463599Y-108397639D01*
X145467922Y-108385762D01*
X145506565Y-108339704D01*
X145512859Y-108336070D01*
X145556801Y-108324299D01*
X146744385Y-108324299D01*
X146749951Y-108322610D01*
X146784981Y-108315643D01*
X146793806Y-108314774D01*
X146800658Y-108309151D01*
X146852447Y-108274547D01*
X146891855Y-108215569D01*
X146902200Y-108163561D01*
X146902199Y-107578440D01*
X146902199Y-107578439D01*
X146902199Y-107578436D01*
X146902199Y-107578307D01*
X146901888Y-107576875D01*
X146900961Y-107572214D01*
X146891856Y-107526434D01*
X146891856Y-107526433D01*
X146888094Y-107520803D01*
X146864792Y-107485929D01*
X146863417Y-107480685D01*
X146838531Y-107446740D01*
X146821709Y-107389014D01*
X146842088Y-107338264D01*
X146847533Y-107331776D01*
X146847532Y-107331775D01*
X146856868Y-107320651D01*
X146856941Y-107319818D01*
X146860849Y-107315907D01*
X146861597Y-107315015D01*
X146863528Y-107308112D01*
X146891955Y-107265569D01*
X146902300Y-107213561D01*
X146902299Y-106628440D01*
X146902299Y-106628436D01*
X146902299Y-106628307D01*
X146901988Y-106626875D01*
X146896185Y-106597698D01*
X146891956Y-106576434D01*
X146891956Y-106576433D01*
X146864867Y-106535892D01*
X146863523Y-106530761D01*
X146848070Y-106509685D01*
X146848071Y-106509685D01*
X146838530Y-106496671D01*
X146821708Y-106438948D01*
X146842089Y-106388196D01*
X146847457Y-106381800D01*
X146847456Y-106381799D01*
X146856749Y-106370726D01*
X146856824Y-106369866D01*
X146860908Y-106365771D01*
X146861493Y-106365073D01*
X146863449Y-106358081D01*
X146891855Y-106315569D01*
X146902200Y-106263561D01*
X146902199Y-105678440D01*
X146902199Y-105678439D01*
X146902199Y-105678436D01*
X146902199Y-105678307D01*
X146901888Y-105676875D01*
X146893545Y-105634926D01*
X146893118Y-105630595D01*
X146891857Y-105626440D01*
X146891856Y-105626434D01*
X146891856Y-105626433D01*
X146875971Y-105602659D01*
X146852447Y-105567453D01*
X146793469Y-105528045D01*
X146741461Y-105517700D01*
X146741459Y-105517700D01*
X145506204Y-105517700D01*
X145504777Y-105518010D01*
X145476648Y-105523604D01*
X145462824Y-105526354D01*
X145458492Y-105526781D01*
X145454333Y-105528042D01*
X145395356Y-105567450D01*
X145395350Y-105567456D01*
X145385070Y-105582843D01*
X145385069Y-105582844D01*
X145355945Y-105626430D01*
X145350408Y-105654269D01*
X145345600Y-105678440D01*
X145345600Y-106263695D01*
X145345910Y-106265121D01*
X145353682Y-106304198D01*
X145355943Y-106315565D01*
X145355943Y-106315566D01*
X145355944Y-106315568D01*
X145355945Y-106315569D01*
X145357283Y-106317572D01*
X145357284Y-106317574D01*
X145363963Y-106327569D01*
X145383021Y-106356091D01*
X145384368Y-106361231D01*
X145409365Y-106395323D01*
X145426190Y-106453049D01*
X145405816Y-106503797D01*
X145391147Y-106521279D01*
X145391074Y-106522136D01*
X145387015Y-106526204D01*
X145386403Y-106526934D01*
X145384449Y-106533922D01*
X145369269Y-106556640D01*
X145360932Y-106567252D01*
X145332979Y-106597698D01*
X145290980Y-106623156D01*
X145241161Y-106636504D01*
X145171541Y-106676699D01*
X144908697Y-106939543D01*
X144867644Y-107010647D01*
X144866050Y-107013407D01*
X144865624Y-107019909D01*
X144847700Y-107086805D01*
X144847700Y-108564404D01*
X144842398Y-108594469D01*
X144838540Y-108605068D01*
X144799890Y-108651128D01*
X144743661Y-108662040D01*
X144742512Y-108661878D01*
X144734993Y-108660818D01*
X144708670Y-108652749D01*
X144678297Y-108637901D01*
X144678295Y-108637900D01*
X144678294Y-108637900D01*
X144604852Y-108627200D01*
X144604848Y-108627200D01*
X144457902Y-108627200D01*
X144457901Y-108627200D01*
X144457900Y-108627201D01*
X144457900Y-109932799D01*
X144457901Y-109932800D01*
X144457902Y-109932800D01*
X144609037Y-109932800D01*
X144626874Y-109934629D01*
X144637683Y-109936869D01*
X144688835Y-109968471D01*
X144707707Y-110025560D01*
X144707707Y-110025561D01*
X144707686Y-110026265D01*
X144693256Y-110071959D01*
X144692373Y-110073301D01*
X144681098Y-110087140D01*
X144625697Y-110142541D01*
X144625695Y-110142545D01*
X144591639Y-110201530D01*
X144591638Y-110201537D01*
X144585504Y-110212160D01*
X144564700Y-110289807D01*
X144564700Y-110315622D01*
X144559398Y-110345690D01*
X144554887Y-110358082D01*
X144517083Y-110403644D01*
X144486774Y-110421594D01*
X144481210Y-110428887D01*
X144441454Y-110455452D01*
X144441450Y-110455456D01*
X144408314Y-110505049D01*
X144408313Y-110505050D01*
X144402045Y-110514429D01*
X144402045Y-110514430D01*
X144393321Y-110558292D01*
X144393320Y-110558299D01*
X144391700Y-110566436D01*
X144391700Y-110688477D01*
X144390908Y-110700250D01*
X144389767Y-110708686D01*
X144389767Y-110708690D01*
X144391697Y-110936540D01*
X144391700Y-110937284D01*
X144391700Y-111520512D01*
X144386398Y-111550578D01*
X144381339Y-111564476D01*
X144345970Y-111608544D01*
X144337960Y-111613647D01*
X144313481Y-111624418D01*
X144207867Y-111652717D01*
X144076635Y-111728484D01*
X143969484Y-111835635D01*
X143893716Y-111966869D01*
X143857116Y-112103468D01*
X143844214Y-112131136D01*
X143841126Y-112135546D01*
X143791872Y-112170033D01*
X143731974Y-112164792D01*
X143689460Y-112122277D01*
X143688516Y-112120253D01*
X143680300Y-112083146D01*
X143680300Y-111042195D01*
X143678360Y-111032439D01*
X143654234Y-110911150D01*
X143654231Y-110911142D01*
X143604758Y-110791702D01*
X143603586Y-110788429D01*
X143561350Y-110725217D01*
X143561350Y-110725218D01*
X143528870Y-110676609D01*
X143434391Y-110582130D01*
X143428201Y-110577994D01*
X143323290Y-110507893D01*
X143199864Y-110456770D01*
X143199856Y-110456767D01*
X143199849Y-110456765D01*
X143101344Y-110437172D01*
X143097749Y-110436457D01*
X143068807Y-110430700D01*
X143068805Y-110430700D01*
X142935192Y-110430700D01*
X142923971Y-110432932D01*
X142906249Y-110436457D01*
X142804151Y-110456764D01*
X142804142Y-110456767D01*
X142804134Y-110456770D01*
X142684703Y-110506239D01*
X142681433Y-110507409D01*
X142569613Y-110582126D01*
X142475126Y-110676613D01*
X142400409Y-110788433D01*
X142399239Y-110791703D01*
X142349770Y-110911134D01*
X142349767Y-110911142D01*
X142349765Y-110911149D01*
X142323700Y-111042190D01*
X142323700Y-111979231D01*
X142321359Y-111985662D01*
X142318396Y-112009303D01*
X142314935Y-112018809D01*
X142304975Y-112030675D01*
X142303135Y-112035732D01*
X142298472Y-112038423D01*
X142276281Y-112064865D01*
X142217081Y-112075303D01*
X142214006Y-112074761D01*
X142167109Y-112050350D01*
X142065002Y-111948243D01*
X142047492Y-111923234D01*
X142036535Y-111899735D01*
X142031524Y-111877133D01*
X142028737Y-111871346D01*
X142029541Y-111868187D01*
X142028300Y-111862589D01*
X142028300Y-109368901D01*
X143791200Y-109368901D01*
X143791200Y-109590851D01*
X143794345Y-109612435D01*
X143801900Y-109664298D01*
X143801902Y-109664303D01*
X143802056Y-109664613D01*
X143857271Y-109777559D01*
X143857272Y-109777560D01*
X143857273Y-109777562D01*
X143946437Y-109866726D01*
X143946438Y-109866726D01*
X143946439Y-109866727D01*
X144059388Y-109921944D01*
X144059696Y-109922096D01*
X144059701Y-109922098D01*
X144059703Y-109922098D01*
X144059705Y-109922099D01*
X144133148Y-109932800D01*
X144280098Y-109932800D01*
X144280099Y-109932800D01*
X144280100Y-109932799D01*
X144280100Y-109368901D01*
X144280099Y-109368900D01*
X144280098Y-109368900D01*
X143791202Y-109368900D01*
X143791201Y-109368900D01*
X143791200Y-109368901D01*
X142028300Y-109368901D01*
X142028300Y-108414007D01*
X142007494Y-108336357D01*
X142007493Y-108336355D01*
X141991679Y-108308965D01*
X141991674Y-108308958D01*
X141967305Y-108266746D01*
X141967304Y-108266745D01*
X141967303Y-108266743D01*
X141784260Y-108083701D01*
X141784259Y-108083700D01*
X141714641Y-108043506D01*
X141714638Y-108043505D01*
X141714635Y-108043503D01*
X141653140Y-108027026D01*
X141635285Y-108020080D01*
X141616825Y-108010465D01*
X141576213Y-107966125D01*
X141572050Y-107911610D01*
X141573820Y-107904378D01*
X141583073Y-107881331D01*
X141600068Y-107851897D01*
X141631300Y-107735336D01*
X141631300Y-107614664D01*
X141607252Y-107524917D01*
X141604592Y-107494513D01*
X141605694Y-107481918D01*
X141631104Y-107427429D01*
X141632884Y-107425649D01*
X141676018Y-107401988D01*
X141678757Y-107401381D01*
X141697775Y-107399299D01*
X142289485Y-107399299D01*
X142295051Y-107397610D01*
X142330081Y-107390643D01*
X142338906Y-107389774D01*
X142345758Y-107384151D01*
X142397547Y-107349547D01*
X142436955Y-107290569D01*
X142447300Y-107238561D01*
X142447300Y-107179699D01*
X142452599Y-107149640D01*
X142456922Y-107137763D01*
X142495565Y-107091705D01*
X142501859Y-107088071D01*
X142545801Y-107076300D01*
X142582192Y-107076300D01*
X142582193Y-107076300D01*
X142659841Y-107055494D01*
X142729459Y-107015300D01*
X142731635Y-107013123D01*
X142756644Y-106995609D01*
X142768097Y-106990269D01*
X142774326Y-106989724D01*
X142779308Y-106985948D01*
X142827917Y-106985009D01*
X142827992Y-106985029D01*
X142827995Y-106985029D01*
X142827996Y-106985029D01*
X142827999Y-106985031D01*
X142828771Y-106985237D01*
X142831623Y-106987033D01*
X142865010Y-107005479D01*
X142871918Y-107011884D01*
X142874791Y-107015242D01*
X142875213Y-107014940D01*
X142885245Y-107024242D01*
X142970139Y-107109136D01*
X142970140Y-107109136D01*
X142970142Y-107109138D01*
X143057667Y-107151926D01*
X143057668Y-107151926D01*
X143072131Y-107158997D01*
X143085898Y-107165728D01*
X143097789Y-107170709D01*
X143112244Y-107178488D01*
X143152250Y-107223367D01*
X143156461Y-107233940D01*
X143162700Y-107266464D01*
X143162700Y-108166255D01*
X143157398Y-108196322D01*
X143148527Y-108220692D01*
X143128085Y-108252779D01*
X143100269Y-108280595D01*
X143039929Y-108385106D01*
X143008700Y-108501662D01*
X143008700Y-108622337D01*
X143013774Y-108641274D01*
X143039925Y-108738878D01*
X143039934Y-108738906D01*
X143039959Y-108738981D01*
X143040583Y-108740024D01*
X143100268Y-108843403D01*
X143185597Y-108928732D01*
X143290103Y-108989068D01*
X143290104Y-108989068D01*
X143290105Y-108989068D01*
X143290106Y-108989069D01*
X143406664Y-109020300D01*
X143527335Y-109020300D01*
X143527336Y-109020300D01*
X143643897Y-108989068D01*
X143645923Y-108987898D01*
X143674610Y-108977454D01*
X143684575Y-108975697D01*
X143743788Y-108986136D01*
X143782438Y-109032195D01*
X143782439Y-109032197D01*
X143785899Y-109041703D01*
X143791200Y-109071767D01*
X143791200Y-109191099D01*
X143791201Y-109191100D01*
X144280098Y-109191100D01*
X144280099Y-109191100D01*
X144280100Y-109191099D01*
X144280100Y-108627201D01*
X144280099Y-108627200D01*
X144280098Y-108627200D01*
X144133150Y-108627200D01*
X144133148Y-108627200D01*
X144095135Y-108632738D01*
X144059710Y-108637899D01*
X144059708Y-108637899D01*
X144059685Y-108637905D01*
X144058129Y-108638473D01*
X144037287Y-108643301D01*
X144025176Y-108644585D01*
X143966822Y-108630092D01*
X143932322Y-108584371D01*
X143929613Y-108576045D01*
X143925300Y-108548849D01*
X143925300Y-108501664D01*
X143911169Y-108448926D01*
X143894069Y-108385106D01*
X143894068Y-108385105D01*
X143894068Y-108385103D01*
X143833732Y-108280597D01*
X143810002Y-108256867D01*
X143792492Y-108231858D01*
X143781535Y-108208359D01*
X143773300Y-108171213D01*
X143773300Y-107267636D01*
X143778599Y-107237577D01*
X143782922Y-107225700D01*
X143821565Y-107179642D01*
X143833572Y-107172710D01*
X143851587Y-107164848D01*
X143852426Y-107164588D01*
X143852435Y-107164587D01*
X143957440Y-107113251D01*
X143957581Y-107113236D01*
X143960538Y-107112149D01*
X143963540Y-107110450D01*
X143968234Y-107107976D01*
X143972944Y-107102052D01*
X144055136Y-107019861D01*
X144110587Y-106906435D01*
X144121300Y-106832904D01*
X144121300Y-106361096D01*
X144110587Y-106287565D01*
X144092922Y-106251431D01*
X144064091Y-106192455D01*
X144064091Y-106192454D01*
X144056330Y-106176581D01*
X144055305Y-106174309D01*
X144055136Y-106174140D01*
X144055136Y-106174139D01*
X143965861Y-106084864D01*
X143965859Y-106084863D01*
X143965857Y-106084861D01*
X143965856Y-106084860D01*
X143852754Y-106029568D01*
X143852443Y-106029414D01*
X143849617Y-106028747D01*
X143846135Y-106028495D01*
X143825234Y-106025450D01*
X143778904Y-106018700D01*
X143778901Y-106018700D01*
X143157098Y-106018700D01*
X143157096Y-106018700D01*
X143110766Y-106025450D01*
X143089865Y-106028495D01*
X143086380Y-106028747D01*
X143083555Y-106029414D01*
X143083202Y-106029589D01*
X143049880Y-106045880D01*
X143020532Y-106054323D01*
X143015179Y-106054890D01*
X142956826Y-106040391D01*
X142921445Y-105991776D01*
X142925586Y-105931803D01*
X142927449Y-105927608D01*
X142945625Y-105901132D01*
X143284759Y-105561999D01*
X143309761Y-105544494D01*
X143333264Y-105533534D01*
X143370410Y-105525300D01*
X143778899Y-105525300D01*
X143778904Y-105525300D01*
X143852435Y-105514587D01*
X143965861Y-105459136D01*
X144055136Y-105369861D01*
X144061715Y-105356404D01*
X144081706Y-105315511D01*
X144099662Y-105290844D01*
X144113673Y-105277339D01*
X144156475Y-105254633D01*
X144158211Y-105254265D01*
X144158506Y-105254203D01*
X144176698Y-105252300D01*
X144630192Y-105252300D01*
X144630193Y-105252300D01*
X144707841Y-105231494D01*
X144758742Y-105202106D01*
X144777459Y-105191300D01*
X144976759Y-104991999D01*
X145001761Y-104974494D01*
X145025264Y-104963534D01*
X145062410Y-104955300D01*
X146118255Y-104955300D01*
X146148319Y-104960601D01*
X146172689Y-104969471D01*
X146204780Y-104989915D01*
X146231597Y-105016732D01*
X146336103Y-105077068D01*
X146336104Y-105077068D01*
X146336105Y-105077068D01*
X146336106Y-105077069D01*
X146452664Y-105108300D01*
X146573335Y-105108300D01*
X146573336Y-105108300D01*
X146689897Y-105077068D01*
X146794403Y-105016732D01*
X146879732Y-104931403D01*
X146940068Y-104826897D01*
X146971300Y-104710336D01*
X146971300Y-104589664D01*
X146953743Y-104524139D01*
X146940069Y-104473106D01*
X146940068Y-104473105D01*
X146940068Y-104473103D01*
X146879732Y-104368597D01*
X146794403Y-104283268D01*
X146691024Y-104223583D01*
X146689981Y-104222959D01*
X146689906Y-104222934D01*
X146689878Y-104222925D01*
X146573337Y-104191700D01*
X146573336Y-104191700D01*
X146452664Y-104191700D01*
X146452662Y-104191700D01*
X146336106Y-104222929D01*
X146231593Y-104283270D01*
X146206867Y-104307997D01*
X146181863Y-104325505D01*
X146158359Y-104336464D01*
X146121214Y-104344700D01*
X144846805Y-104344700D01*
X144789966Y-104359929D01*
X144789967Y-104359930D01*
X144779561Y-104362718D01*
X144769159Y-104365505D01*
X144769158Y-104365505D01*
X144769156Y-104365506D01*
X144699543Y-104405697D01*
X144699542Y-104405698D01*
X144500242Y-104604997D01*
X144475239Y-104622505D01*
X144451735Y-104633464D01*
X144414590Y-104641700D01*
X144182979Y-104641700D01*
X144152916Y-104636399D01*
X144134642Y-104629748D01*
X144095459Y-104601290D01*
X144094180Y-104599656D01*
X144084463Y-104584127D01*
X144056327Y-104526576D01*
X144055305Y-104524309D01*
X144055136Y-104524140D01*
X144055136Y-104524139D01*
X143965861Y-104434864D01*
X143965859Y-104434863D01*
X143965857Y-104434861D01*
X143965856Y-104434860D01*
X143852754Y-104379568D01*
X143852443Y-104379414D01*
X143849617Y-104378747D01*
X143846135Y-104378495D01*
X143830723Y-104376249D01*
X143778904Y-104368700D01*
X143778901Y-104368700D01*
X143157098Y-104368700D01*
X143157096Y-104368700D01*
X143110605Y-104375473D01*
X143089865Y-104378495D01*
X143086380Y-104378747D01*
X143083553Y-104379414D01*
X143083245Y-104379567D01*
X142970145Y-104434858D01*
X142880858Y-104524145D01*
X142825567Y-104637245D01*
X142825414Y-104637553D01*
X142824747Y-104640380D01*
X142824495Y-104643865D01*
X142814700Y-104711098D01*
X142814700Y-105116631D01*
X142809398Y-105146698D01*
X142800527Y-105171068D01*
X142780084Y-105203156D01*
X142351243Y-105631997D01*
X142326239Y-105649505D01*
X142302735Y-105660464D01*
X142265590Y-105668700D01*
X140725805Y-105668700D01*
X140668966Y-105683929D01*
X140668967Y-105683930D01*
X140658561Y-105686718D01*
X140648159Y-105689505D01*
X140648158Y-105689505D01*
X140648156Y-105689506D01*
X140648155Y-105689506D01*
X140578542Y-105729698D01*
X140202242Y-106105997D01*
X140177238Y-106123505D01*
X140153734Y-106134464D01*
X140116589Y-106142700D01*
X139551304Y-106142700D01*
X139549877Y-106143010D01*
X139521748Y-106148604D01*
X139507924Y-106151354D01*
X139503592Y-106151781D01*
X139499433Y-106153042D01*
X139440456Y-106192450D01*
X139440454Y-106192451D01*
X139440454Y-106192452D01*
X139440452Y-106192454D01*
X139401045Y-106251431D01*
X139390700Y-106303438D01*
X139390700Y-107238695D01*
X139391010Y-107240121D01*
X139394477Y-107257550D01*
X139399354Y-107282075D01*
X139399581Y-107284375D01*
X139401042Y-107290564D01*
X139401130Y-107290740D01*
X139401910Y-107291863D01*
X139440453Y-107349547D01*
X139499431Y-107388955D01*
X139551439Y-107399300D01*
X140113630Y-107399299D01*
X140143694Y-107404600D01*
X140168064Y-107413470D01*
X140200155Y-107433914D01*
X140627928Y-107861687D01*
X140645436Y-107886691D01*
X140649711Y-107895858D01*
X140654954Y-107955756D01*
X140620476Y-108005004D01*
X140617917Y-108006796D01*
X140567491Y-108022700D01*
X138986369Y-108022700D01*
X138956303Y-108017398D01*
X138931932Y-108008527D01*
X138899843Y-107988084D01*
X136923153Y-106011394D01*
X136905644Y-105986387D01*
X136898854Y-105971826D01*
X136892234Y-105917909D01*
X136893674Y-105910501D01*
X136901640Y-105887369D01*
X136926180Y-105839209D01*
X136926180Y-105839208D01*
X136926184Y-105839201D01*
X136980568Y-105671822D01*
X137008100Y-105497996D01*
X137008100Y-105322004D01*
X136980568Y-105148178D01*
X136926184Y-104980799D01*
X136846285Y-104823988D01*
X136742839Y-104681607D01*
X136618393Y-104557161D01*
X136612761Y-104553069D01*
X136476013Y-104453715D01*
X136381771Y-104405697D01*
X136319201Y-104373816D01*
X136319198Y-104373815D01*
X136319196Y-104373814D01*
X136319195Y-104373813D01*
X136319194Y-104373813D01*
X136151817Y-104319430D01*
X136033059Y-104300621D01*
X135977996Y-104291900D01*
X135802004Y-104291900D01*
X135802003Y-104291900D01*
X135754470Y-104299427D01*
X135754470Y-104299428D01*
X135746938Y-104300621D01*
X135628180Y-104319430D01*
X135460847Y-104373799D01*
X135460808Y-104373812D01*
X135460795Y-104373817D01*
X135304258Y-104453576D01*
X135304009Y-104453701D01*
X135303985Y-104453716D01*
X135161605Y-104557161D01*
X135037161Y-104681605D01*
X134933716Y-104823985D01*
X134933701Y-104824009D01*
X134933576Y-104824258D01*
X134853817Y-104980795D01*
X134853812Y-104980808D01*
X134853799Y-104980847D01*
X134799430Y-105148181D01*
X134797642Y-105159474D01*
X134787703Y-105188338D01*
X134785749Y-105191865D01*
X134785279Y-105192712D01*
X134739900Y-105232159D01*
X134679782Y-105233208D01*
X134633055Y-105195369D01*
X134620500Y-105150097D01*
X134620500Y-103134467D01*
X134625799Y-103104408D01*
X134626666Y-103102026D01*
X134627510Y-103099707D01*
X134666156Y-103053647D01*
X134725369Y-103043203D01*
X134777442Y-103073263D01*
X134796928Y-103116017D01*
X134799430Y-103131816D01*
X134853715Y-103298893D01*
X134853814Y-103299197D01*
X134853816Y-103299202D01*
X134911638Y-103412684D01*
X134933715Y-103456012D01*
X135037161Y-103598393D01*
X135161607Y-103722839D01*
X135303988Y-103826285D01*
X135460799Y-103906184D01*
X135628178Y-103960568D01*
X135802004Y-103988100D01*
X135802006Y-103988100D01*
X135977994Y-103988100D01*
X135977996Y-103988100D01*
X136151822Y-103960568D01*
X136319201Y-103906184D01*
X136476012Y-103826285D01*
X136618393Y-103722839D01*
X136742839Y-103598393D01*
X136846285Y-103456012D01*
X136926184Y-103299201D01*
X136926243Y-103299022D01*
X136941916Y-103250781D01*
X136956247Y-103223827D01*
X136966141Y-103211163D01*
X137011186Y-103180782D01*
X137012612Y-103180373D01*
X137018440Y-103178703D01*
X137042660Y-103175300D01*
X138628631Y-103175300D01*
X138658695Y-103180601D01*
X138680828Y-103188657D01*
X138683065Y-103189471D01*
X138715155Y-103209915D01*
X138864540Y-103359299D01*
X138864547Y-103359304D01*
X138934154Y-103399492D01*
X138934158Y-103399494D01*
X138938546Y-103400669D01*
X138952075Y-103407248D01*
X138969224Y-103408890D01*
X138983384Y-103412684D01*
X138983385Y-103412684D01*
X139011807Y-103420300D01*
X139423362Y-103420300D01*
X139453420Y-103425598D01*
X139465297Y-103429921D01*
X139511357Y-103468567D01*
X139518276Y-103480550D01*
X139524040Y-103494216D01*
X139524155Y-103494167D01*
X139526409Y-103499428D01*
X139581860Y-103612856D01*
X139581861Y-103612857D01*
X139581863Y-103612859D01*
X139581864Y-103612861D01*
X139671139Y-103702136D01*
X139712704Y-103722456D01*
X139725481Y-103728702D01*
X139750159Y-103746666D01*
X139763656Y-103760668D01*
X139786353Y-103803412D01*
X139786783Y-103805437D01*
X139788700Y-103823695D01*
X139788700Y-103886193D01*
X139808261Y-103959193D01*
X139809506Y-103963841D01*
X139845858Y-104026804D01*
X139845859Y-104026805D01*
X139845858Y-104026805D01*
X139849699Y-104033457D01*
X139849701Y-104033460D01*
X140099509Y-104283268D01*
X140303997Y-104487756D01*
X140321505Y-104512760D01*
X140332464Y-104536263D01*
X140340700Y-104573410D01*
X140340700Y-105138695D01*
X140341010Y-105140121D01*
X140344859Y-105159474D01*
X140349354Y-105182075D01*
X140349581Y-105184375D01*
X140351042Y-105190564D01*
X140351130Y-105190740D01*
X140351910Y-105191863D01*
X140390453Y-105249547D01*
X140449431Y-105288955D01*
X140501439Y-105299300D01*
X141336560Y-105299299D01*
X141336563Y-105299299D01*
X141336689Y-105299299D01*
X141338062Y-105299000D01*
X141380082Y-105290643D01*
X141388906Y-105289774D01*
X141395758Y-105284151D01*
X141447547Y-105249547D01*
X141486955Y-105190569D01*
X141497300Y-105138561D01*
X141497299Y-104626240D01*
X141502599Y-104596179D01*
X141506060Y-104586670D01*
X141544707Y-104540611D01*
X141603919Y-104530169D01*
X141603923Y-104530169D01*
X141603924Y-104530170D01*
X141613882Y-104531926D01*
X141642566Y-104542365D01*
X141661103Y-104553068D01*
X141777664Y-104584300D01*
X141898335Y-104584300D01*
X141898336Y-104584300D01*
X142014897Y-104553068D01*
X142119403Y-104492732D01*
X142204732Y-104407403D01*
X142265068Y-104302897D01*
X142296300Y-104186336D01*
X142296300Y-104065664D01*
X142265068Y-103949103D01*
X142204732Y-103844597D01*
X142187677Y-103827542D01*
X142170167Y-103802533D01*
X142164829Y-103791085D01*
X142159588Y-103731194D01*
X142161467Y-103724181D01*
X142184216Y-103684779D01*
X142256136Y-103612861D01*
X142311431Y-103499754D01*
X142311585Y-103499440D01*
X142311585Y-103499439D01*
X142311587Y-103499435D01*
X142322300Y-103425904D01*
X142322300Y-102804096D01*
X142311587Y-102730565D01*
X142266322Y-102637974D01*
X142257327Y-102619574D01*
X142256305Y-102617309D01*
X142256136Y-102617140D01*
X142256136Y-102617139D01*
X142166861Y-102527864D01*
X142166859Y-102527863D01*
X142166857Y-102527861D01*
X142166856Y-102527860D01*
X142053754Y-102472568D01*
X142053443Y-102472414D01*
X142050617Y-102471747D01*
X142047135Y-102471495D01*
X142031723Y-102469249D01*
X141979904Y-102461700D01*
X141979901Y-102461700D01*
X141711049Y-102461700D01*
X141680981Y-102456397D01*
X141675921Y-102454555D01*
X141629863Y-102415904D01*
X141619425Y-102356690D01*
X141649491Y-102304621D01*
X141651176Y-102303207D01*
X141684911Y-102285649D01*
X141793666Y-102256508D01*
X141898035Y-102196251D01*
X142245846Y-101848439D01*
X142641700Y-101848439D01*
X142641700Y-103083695D01*
X142642010Y-103085121D01*
X142644912Y-103099709D01*
X142650354Y-103127075D01*
X142650581Y-103129375D01*
X142652042Y-103135564D01*
X142652130Y-103135740D01*
X142652910Y-103136863D01*
X142691453Y-103194547D01*
X142750431Y-103233955D01*
X142802439Y-103244300D01*
X145337560Y-103244299D01*
X145337563Y-103244299D01*
X145337689Y-103244299D01*
X145339062Y-103244000D01*
X145381082Y-103235643D01*
X145389906Y-103234774D01*
X145396758Y-103229151D01*
X145448547Y-103194547D01*
X145487955Y-103135569D01*
X145498300Y-103083561D01*
X145498300Y-102874699D01*
X145503599Y-102844640D01*
X145504559Y-102842003D01*
X145507922Y-102832763D01*
X145546565Y-102786705D01*
X145552859Y-102783071D01*
X145596801Y-102771300D01*
X146672192Y-102771300D01*
X146672193Y-102771300D01*
X146749841Y-102750494D01*
X146819459Y-102710300D01*
X147090095Y-102439664D01*
X153501700Y-102439664D01*
X153501700Y-102560336D01*
X153507998Y-102583841D01*
X153510371Y-102592700D01*
X153510372Y-102592705D01*
X153532925Y-102676878D01*
X153532934Y-102676906D01*
X153532959Y-102676981D01*
X153533583Y-102678024D01*
X153593268Y-102781403D01*
X153678597Y-102866732D01*
X153783103Y-102927068D01*
X153783104Y-102927068D01*
X153783105Y-102927068D01*
X153783106Y-102927069D01*
X153899664Y-102958300D01*
X154020335Y-102958300D01*
X154020336Y-102958300D01*
X154136897Y-102927068D01*
X154241403Y-102866732D01*
X154266134Y-102842000D01*
X154291137Y-102824494D01*
X154314640Y-102813534D01*
X154351786Y-102805300D01*
X155778192Y-102805300D01*
X155778193Y-102805300D01*
X155855841Y-102784494D01*
X155861195Y-102781403D01*
X155925459Y-102744300D01*
X156235760Y-102433999D01*
X156260762Y-102416494D01*
X156284265Y-102405534D01*
X156321411Y-102397300D01*
X156359335Y-102397300D01*
X156359336Y-102397300D01*
X156475897Y-102366068D01*
X156580403Y-102305732D01*
X156665732Y-102220403D01*
X156726068Y-102115897D01*
X156757300Y-101999336D01*
X156757300Y-101878664D01*
X156731390Y-101781966D01*
X156726069Y-101762106D01*
X156726068Y-101762105D01*
X156726068Y-101762103D01*
X156665732Y-101657597D01*
X156580403Y-101572268D01*
X156477024Y-101512583D01*
X156475981Y-101511959D01*
X156475906Y-101511934D01*
X156475878Y-101511925D01*
X156359337Y-101480700D01*
X156359336Y-101480700D01*
X156238664Y-101480700D01*
X156238662Y-101480700D01*
X156122106Y-101511929D01*
X156017593Y-101572270D01*
X155932270Y-101657593D01*
X155871929Y-101762106D01*
X155840700Y-101878662D01*
X155840700Y-101913630D01*
X155835398Y-101943697D01*
X155826527Y-101968067D01*
X155806084Y-102000154D01*
X155648245Y-102157994D01*
X155623239Y-102175504D01*
X155599736Y-102186464D01*
X155562587Y-102194700D01*
X154354745Y-102194700D01*
X154324679Y-102189398D01*
X154300308Y-102180527D01*
X154268219Y-102160084D01*
X154241404Y-102133269D01*
X154241403Y-102133268D01*
X154138024Y-102073583D01*
X154136981Y-102072959D01*
X154136906Y-102072934D01*
X154136878Y-102072925D01*
X154020337Y-102041700D01*
X154020336Y-102041700D01*
X153899664Y-102041700D01*
X153899662Y-102041700D01*
X153783106Y-102072929D01*
X153678593Y-102133270D01*
X153593270Y-102218593D01*
X153582743Y-102236826D01*
X153532930Y-102323106D01*
X153532929Y-102323108D01*
X153532929Y-102323109D01*
X153520928Y-102367900D01*
X153507089Y-102419550D01*
X153501700Y-102439664D01*
X147090095Y-102439664D01*
X149799759Y-99729999D01*
X149824761Y-99712494D01*
X149848264Y-99701534D01*
X149885410Y-99693300D01*
X151035701Y-99693300D01*
X151065759Y-99698598D01*
X151077636Y-99702921D01*
X151123696Y-99741567D01*
X151123697Y-99741569D01*
X151127323Y-99747849D01*
X151139101Y-99791801D01*
X151139101Y-100040565D01*
X151139101Y-100040567D01*
X151139100Y-100040567D01*
X151147754Y-100084072D01*
X151147980Y-100086373D01*
X151149442Y-100092564D01*
X151149530Y-100092740D01*
X151150310Y-100093863D01*
X151188853Y-100151547D01*
X151247831Y-100190955D01*
X151299839Y-100201300D01*
X151995360Y-100201299D01*
X151995363Y-100201299D01*
X151995365Y-100201298D01*
X152047365Y-100190956D01*
X152047366Y-100190956D01*
X152047366Y-100190955D01*
X152047369Y-100190955D01*
X152101187Y-100154994D01*
X152112870Y-100148418D01*
X152114240Y-100147778D01*
X152114241Y-100147779D01*
X152132005Y-100139495D01*
X152191899Y-100134256D01*
X152200574Y-100136580D01*
X152203504Y-100138005D01*
X152205184Y-100137951D01*
X152208100Y-100140240D01*
X152228236Y-100150032D01*
X152228437Y-100149732D01*
X152289422Y-100190482D01*
X152289424Y-100190483D01*
X152341286Y-100200799D01*
X152600099Y-100200799D01*
X152600100Y-100200799D01*
X152600100Y-99476901D01*
X152777900Y-99476901D01*
X152777900Y-100200798D01*
X152777901Y-100200799D01*
X152777902Y-100200799D01*
X153036709Y-100200799D01*
X153036711Y-100200799D01*
X153054658Y-100197229D01*
X153088575Y-100190483D01*
X153147382Y-100151188D01*
X153147388Y-100151182D01*
X153186683Y-100092375D01*
X153197000Y-100040512D01*
X153197000Y-99476901D01*
X153196999Y-99476900D01*
X153196998Y-99476900D01*
X152777902Y-99476900D01*
X152777901Y-99476900D01*
X152777900Y-99476901D01*
X152600100Y-99476901D01*
X152600100Y-98575201D01*
X152777900Y-98575201D01*
X152777900Y-99299099D01*
X152777901Y-99299100D01*
X153196997Y-99299100D01*
X153196998Y-99299100D01*
X153196999Y-99299099D01*
X153196999Y-98735491D01*
X153196999Y-98735488D01*
X153188776Y-98694148D01*
X153186683Y-98683624D01*
X153147388Y-98624817D01*
X153147382Y-98624811D01*
X153088575Y-98585516D01*
X153088572Y-98585515D01*
X153058652Y-98579564D01*
X153036713Y-98575200D01*
X153036711Y-98575200D01*
X152777902Y-98575200D01*
X152777901Y-98575200D01*
X152777900Y-98575201D01*
X152600100Y-98575201D01*
X152600099Y-98575200D01*
X152600098Y-98575200D01*
X152344587Y-98575200D01*
X152341286Y-98575200D01*
X152341284Y-98575201D01*
X152289428Y-98585514D01*
X152289424Y-98585516D01*
X152244666Y-98615423D01*
X152244656Y-98615428D01*
X152236735Y-98620722D01*
X152225051Y-98627299D01*
X152205319Y-98636501D01*
X152145422Y-98641743D01*
X152137404Y-98639595D01*
X152134338Y-98638206D01*
X152132888Y-98638255D01*
X152130749Y-98636580D01*
X152111320Y-98627777D01*
X152106348Y-98624454D01*
X152106347Y-98624453D01*
X152048074Y-98585516D01*
X152047368Y-98585044D01*
X152012616Y-98578132D01*
X151995361Y-98574700D01*
X151995359Y-98574700D01*
X151299704Y-98574700D01*
X151298277Y-98575010D01*
X151270148Y-98580604D01*
X151256324Y-98583354D01*
X151251992Y-98583781D01*
X151247833Y-98585042D01*
X151188856Y-98624450D01*
X151188850Y-98624456D01*
X151149445Y-98683431D01*
X151139100Y-98735438D01*
X151139100Y-98979300D01*
X151133798Y-99009365D01*
X151129476Y-99021239D01*
X151090835Y-99067293D01*
X151084556Y-99070919D01*
X151040599Y-99082700D01*
X149669805Y-99082700D01*
X149612966Y-99097929D01*
X149612967Y-99097930D01*
X149602561Y-99100718D01*
X149592159Y-99103505D01*
X149592158Y-99103505D01*
X149592156Y-99103506D01*
X149522545Y-99143696D01*
X146542243Y-102123997D01*
X146517239Y-102141505D01*
X146493735Y-102152464D01*
X146456590Y-102160700D01*
X145601699Y-102160700D01*
X145571636Y-102155399D01*
X145559761Y-102151077D01*
X145513701Y-102112429D01*
X145510070Y-102106140D01*
X145498299Y-102062198D01*
X145498299Y-101848307D01*
X145497988Y-101846875D01*
X145489645Y-101804926D01*
X145489418Y-101802625D01*
X145487956Y-101796434D01*
X145487955Y-101796431D01*
X145448547Y-101737453D01*
X145389569Y-101698045D01*
X145337561Y-101687700D01*
X145337559Y-101687700D01*
X142802304Y-101687700D01*
X142800877Y-101688010D01*
X142772748Y-101693604D01*
X142758924Y-101696354D01*
X142754592Y-101696781D01*
X142750433Y-101698042D01*
X142691456Y-101737450D01*
X142691450Y-101737456D01*
X142663404Y-101779429D01*
X142663404Y-101779431D01*
X142663079Y-101779918D01*
X142652045Y-101796431D01*
X142644517Y-101834278D01*
X142641700Y-101848439D01*
X142245846Y-101848439D01*
X142342251Y-101752034D01*
X142402508Y-101647665D01*
X142433700Y-101531257D01*
X142433700Y-101410742D01*
X142433700Y-101058390D01*
X142439001Y-101028327D01*
X142446455Y-101007847D01*
X142455919Y-100995794D01*
X142458382Y-100986603D01*
X142478898Y-100966528D01*
X142480256Y-100964800D01*
X142481551Y-100963935D01*
X142519547Y-100938547D01*
X142558955Y-100879569D01*
X142569300Y-100827561D01*
X142569299Y-100162440D01*
X142569299Y-100162439D01*
X142569299Y-100162436D01*
X142569299Y-100162307D01*
X142568988Y-100160875D01*
X142560645Y-100118926D01*
X142560218Y-100114595D01*
X142558957Y-100110440D01*
X142558956Y-100110434D01*
X142558956Y-100110433D01*
X142550517Y-100097803D01*
X142519547Y-100051453D01*
X142460569Y-100012045D01*
X142408561Y-100001700D01*
X142408559Y-100001700D01*
X141681295Y-100001700D01*
X141651226Y-99996397D01*
X141641719Y-99992936D01*
X141595661Y-99954284D01*
X141585222Y-99895081D01*
X141585764Y-99892006D01*
X141610173Y-99845111D01*
X141773051Y-99682233D01*
X146469500Y-99682233D01*
X146469500Y-99849767D01*
X146470164Y-99853106D01*
X146473495Y-99869851D01*
X146479652Y-99900806D01*
X146502181Y-100014073D01*
X146502183Y-100014079D01*
X146502183Y-100014080D01*
X146502189Y-100014095D01*
X146566296Y-100168862D01*
X146587635Y-100200798D01*
X146659374Y-100308162D01*
X146777838Y-100426626D01*
X146874301Y-100491081D01*
X146917137Y-100519703D01*
X147071917Y-100583816D01*
X147071924Y-100583817D01*
X147071926Y-100583818D01*
X147155190Y-100600379D01*
X147236233Y-100616500D01*
X147236235Y-100616500D01*
X147403765Y-100616500D01*
X147403767Y-100616500D01*
X147548556Y-100587700D01*
X147564981Y-100584432D01*
X147567677Y-100583997D01*
X147568682Y-100583764D01*
X147572034Y-100582178D01*
X147722863Y-100519703D01*
X147862162Y-100426626D01*
X147980626Y-100308162D01*
X148073703Y-100168863D01*
X148137816Y-100014082D01*
X148138222Y-100012044D01*
X148138225Y-100012030D01*
X148160349Y-99900801D01*
X148160349Y-99900800D01*
X148166505Y-99869850D01*
X148170500Y-99849767D01*
X148170500Y-99682233D01*
X148170500Y-99682230D01*
X148154463Y-99601608D01*
X148154463Y-99601607D01*
X148137816Y-99517917D01*
X148073703Y-99363137D01*
X148030913Y-99299098D01*
X147980626Y-99223838D01*
X147862162Y-99105374D01*
X147805170Y-99067293D01*
X147722862Y-99012296D01*
X147568096Y-98948189D01*
X147568086Y-98948185D01*
X147568082Y-98948184D01*
X147568079Y-98948183D01*
X147568073Y-98948181D01*
X147444424Y-98923587D01*
X147430871Y-98920891D01*
X147403769Y-98915500D01*
X147403767Y-98915500D01*
X147236233Y-98915500D01*
X147236231Y-98915500D01*
X147212112Y-98920297D01*
X147200052Y-98922696D01*
X147174568Y-98927764D01*
X147071927Y-98948180D01*
X147071919Y-98948183D01*
X146996798Y-98979300D01*
X146917140Y-99012296D01*
X146917135Y-99012298D01*
X146917134Y-99012298D01*
X146777844Y-99105368D01*
X146659368Y-99223844D01*
X146566298Y-99363134D01*
X146566298Y-99363135D01*
X146566297Y-99363137D01*
X146561915Y-99373716D01*
X146502183Y-99517919D01*
X146502177Y-99517937D01*
X146485612Y-99601224D01*
X146485587Y-99601351D01*
X146485537Y-99601607D01*
X146469500Y-99682233D01*
X141773051Y-99682233D01*
X142342251Y-99113035D01*
X142402508Y-99008666D01*
X142433700Y-98892257D01*
X142433700Y-98771742D01*
X142433700Y-98758390D01*
X142439001Y-98728327D01*
X142446455Y-98707847D01*
X142464111Y-98685351D01*
X142464952Y-98682213D01*
X142471939Y-98675376D01*
X142480223Y-98664822D01*
X142488121Y-98659545D01*
X142519547Y-98638547D01*
X142558955Y-98579569D01*
X142569300Y-98527561D01*
X142569299Y-97862440D01*
X142569299Y-97862439D01*
X142569299Y-97862436D01*
X142569299Y-97862307D01*
X142568988Y-97860875D01*
X142560645Y-97818926D01*
X142560418Y-97816625D01*
X142558956Y-97810434D01*
X142558955Y-97810431D01*
X142519547Y-97751453D01*
X142460569Y-97712045D01*
X142408561Y-97701700D01*
X142408559Y-97701700D01*
X141543304Y-97701700D01*
X141541877Y-97702010D01*
X141513748Y-97707604D01*
X141499924Y-97710354D01*
X141495592Y-97710781D01*
X141491433Y-97712042D01*
X141432456Y-97751450D01*
X141432450Y-97751456D01*
X141393045Y-97810431D01*
X141382700Y-97862438D01*
X141382700Y-98527695D01*
X141383010Y-98529121D01*
X141391354Y-98571075D01*
X141391581Y-98573375D01*
X141393042Y-98579564D01*
X141393131Y-98579742D01*
X141393911Y-98580866D01*
X141419697Y-98619458D01*
X141431992Y-98647399D01*
X141435124Y-98660198D01*
X141428999Y-98719104D01*
X141423868Y-98729802D01*
X141406767Y-98753944D01*
X140325116Y-99835597D01*
X140300112Y-99853105D01*
X140276608Y-99864064D01*
X140239463Y-99872300D01*
X136981029Y-99872300D01*
X136950963Y-99866998D01*
X136932320Y-99860212D01*
X136893620Y-99832364D01*
X136892745Y-99831265D01*
X136883192Y-99816421D01*
X136846425Y-99744262D01*
X136846294Y-99744004D01*
X136846288Y-99743995D01*
X136846285Y-99743988D01*
X136742839Y-99601607D01*
X136618393Y-99477161D01*
X136618034Y-99476900D01*
X136476013Y-99373715D01*
X136401766Y-99335885D01*
X136319201Y-99293816D01*
X136319198Y-99293815D01*
X136319196Y-99293814D01*
X136319195Y-99293813D01*
X136319194Y-99293813D01*
X136151817Y-99239430D01*
X136033059Y-99220621D01*
X135977996Y-99211900D01*
X135802004Y-99211900D01*
X135802003Y-99211900D01*
X135754470Y-99219427D01*
X135754470Y-99219428D01*
X135746938Y-99220621D01*
X135628180Y-99239430D01*
X135460847Y-99293799D01*
X135460808Y-99293812D01*
X135460795Y-99293817D01*
X135304258Y-99373576D01*
X135304009Y-99373701D01*
X135303985Y-99373716D01*
X135161605Y-99477161D01*
X135037161Y-99601605D01*
X134933716Y-99743985D01*
X134933701Y-99744009D01*
X134933576Y-99744258D01*
X134853817Y-99900795D01*
X134853815Y-99900801D01*
X134853799Y-99900847D01*
X134799430Y-100068181D01*
X134797642Y-100079474D01*
X134787703Y-100108339D01*
X134785279Y-100112712D01*
X134739900Y-100152159D01*
X134679782Y-100153208D01*
X134633055Y-100115369D01*
X134620500Y-100070097D01*
X134620500Y-98051275D01*
X134625799Y-98021216D01*
X134627510Y-98016515D01*
X134666156Y-97970455D01*
X134725369Y-97960011D01*
X134777442Y-97990071D01*
X134796928Y-98032825D01*
X134799917Y-98051701D01*
X134854275Y-98219002D01*
X134854285Y-98219022D01*
X134934128Y-98375723D01*
X134934136Y-98375737D01*
X134934141Y-98375747D01*
X134934145Y-98375754D01*
X135037542Y-98518068D01*
X135161931Y-98642457D01*
X135304245Y-98745854D01*
X135304252Y-98745858D01*
X135304269Y-98745867D01*
X135304275Y-98745870D01*
X135355052Y-98771742D01*
X135460987Y-98825719D01*
X135460994Y-98825722D01*
X135460996Y-98825723D01*
X135519942Y-98844875D01*
X135562391Y-98858667D01*
X135580011Y-98872433D01*
X135628294Y-98880080D01*
X135628297Y-98880081D01*
X135628295Y-98880081D01*
X135801099Y-98907450D01*
X135801100Y-98907450D01*
X135801100Y-98907449D01*
X135801100Y-98385900D01*
X135821665Y-98329399D01*
X135873736Y-98299335D01*
X135889000Y-98298000D01*
X135891000Y-98298000D01*
X135947501Y-98318565D01*
X135977565Y-98370636D01*
X135978900Y-98385900D01*
X135978900Y-98907450D01*
X136151703Y-98880081D01*
X136319005Y-98825722D01*
X136319012Y-98825719D01*
X136475747Y-98745858D01*
X136475754Y-98745854D01*
X136618068Y-98642457D01*
X136742457Y-98518068D01*
X136775446Y-98472662D01*
X138046700Y-98472662D01*
X138046700Y-98593336D01*
X138077925Y-98709878D01*
X138077934Y-98709906D01*
X138077959Y-98709981D01*
X138078583Y-98711024D01*
X138138268Y-98814403D01*
X138223597Y-98899732D01*
X138328103Y-98960068D01*
X138328104Y-98960068D01*
X138328105Y-98960068D01*
X138328106Y-98960069D01*
X138444664Y-98991300D01*
X138565335Y-98991300D01*
X138565336Y-98991300D01*
X138681897Y-98960068D01*
X138786403Y-98899732D01*
X138871732Y-98814403D01*
X138876248Y-98806578D01*
X138876254Y-98806574D01*
X138876252Y-98806573D01*
X138879346Y-98801212D01*
X138899293Y-98766666D01*
X138918910Y-98743288D01*
X138934913Y-98729860D01*
X138991410Y-98709299D01*
X139624985Y-98709299D01*
X139630551Y-98707610D01*
X139665581Y-98700643D01*
X139674405Y-98699774D01*
X139681251Y-98694155D01*
X139726939Y-98663627D01*
X139738622Y-98657053D01*
X139758344Y-98647857D01*
X139818238Y-98642617D01*
X139826755Y-98644899D01*
X139852656Y-98658205D01*
X139853363Y-98657148D01*
X139856952Y-98659546D01*
X139856953Y-98659547D01*
X139915931Y-98698955D01*
X139967939Y-98709300D01*
X140663460Y-98709299D01*
X140663463Y-98709299D01*
X140663589Y-98709299D01*
X140664962Y-98709000D01*
X140706982Y-98700643D01*
X140715806Y-98699774D01*
X140722658Y-98694151D01*
X140774447Y-98659547D01*
X140813855Y-98600569D01*
X140824200Y-98548561D01*
X140824199Y-97243440D01*
X140824199Y-97243439D01*
X140824199Y-97243436D01*
X140824199Y-97243307D01*
X140823888Y-97241875D01*
X140815545Y-97199926D01*
X140815318Y-97197625D01*
X140813856Y-97191434D01*
X140813855Y-97191431D01*
X140774447Y-97132453D01*
X140734485Y-97105751D01*
X140730155Y-97100043D01*
X140719666Y-97093679D01*
X140719661Y-97093675D01*
X140719651Y-97093670D01*
X140698258Y-97080690D01*
X140660620Y-97033800D01*
X140661928Y-96973688D01*
X140664686Y-96966596D01*
X140684451Y-96936306D01*
X140929759Y-96690999D01*
X140954761Y-96673494D01*
X140978264Y-96662534D01*
X141015410Y-96654300D01*
X141423899Y-96654300D01*
X141423904Y-96654300D01*
X141497435Y-96643587D01*
X141610861Y-96588136D01*
X141700136Y-96498861D01*
X141700138Y-96498857D01*
X141751470Y-96393856D01*
X141754821Y-96390626D01*
X141760389Y-96379364D01*
X141767563Y-96369901D01*
X141772444Y-96363460D01*
X141822963Y-96330857D01*
X141824773Y-96330445D01*
X141875012Y-96333790D01*
X141878664Y-96335152D01*
X141896780Y-96344423D01*
X142007309Y-96418276D01*
X142007313Y-96418279D01*
X142012559Y-96421784D01*
X142014505Y-96423084D01*
X142014506Y-96423084D01*
X142014507Y-96423085D01*
X142020564Y-96425593D01*
X142020575Y-96425599D01*
X142022831Y-96426533D01*
X142022832Y-96426533D01*
X142022834Y-96426534D01*
X142148217Y-96478469D01*
X142150620Y-96479566D01*
X142202248Y-96489834D01*
X142224072Y-96494175D01*
X142224074Y-96494176D01*
X142224075Y-96494176D01*
X142247567Y-96498849D01*
X142296082Y-96508500D01*
X142296084Y-96508500D01*
X142443916Y-96508500D01*
X142443918Y-96508500D01*
X142539708Y-96489445D01*
X142588909Y-96479659D01*
X142588909Y-96479658D01*
X142588913Y-96479658D01*
X142588917Y-96479656D01*
X142601181Y-96477217D01*
X142609247Y-96471235D01*
X142717166Y-96426534D01*
X142717167Y-96426533D01*
X142717169Y-96426533D01*
X142725487Y-96423088D01*
X142725490Y-96423086D01*
X142725493Y-96423085D01*
X142725496Y-96423083D01*
X142725512Y-96423071D01*
X142725534Y-96423058D01*
X142814727Y-96363461D01*
X142848416Y-96340951D01*
X142952951Y-96236416D01*
X143035084Y-96113495D01*
X143091658Y-95976913D01*
X143120500Y-95831918D01*
X143120500Y-95684082D01*
X143103433Y-95598284D01*
X143097125Y-95566568D01*
X143091566Y-95538620D01*
X143090466Y-95536209D01*
X143039857Y-95414027D01*
X143039856Y-95414025D01*
X143035085Y-95402507D01*
X143035085Y-95402506D01*
X143035083Y-95402503D01*
X142952954Y-95279588D01*
X142952953Y-95279587D01*
X142952951Y-95279584D01*
X142923787Y-95250420D01*
X142848417Y-95175049D01*
X142725490Y-95092912D01*
X142725487Y-95092910D01*
X142591797Y-95037536D01*
X142589982Y-95036708D01*
X142588911Y-95036341D01*
X142588909Y-95036340D01*
X142479919Y-95014661D01*
X142443918Y-95007500D01*
X142443916Y-95007500D01*
X142296081Y-95007500D01*
X142280069Y-95010685D01*
X142264056Y-95013870D01*
X142151090Y-95036340D01*
X142150016Y-95036708D01*
X142148201Y-95037536D01*
X142014511Y-95092910D01*
X142014508Y-95092912D01*
X141891590Y-95175043D01*
X141787043Y-95279590D01*
X141704919Y-95402497D01*
X141704917Y-95402499D01*
X141675217Y-95474202D01*
X141658817Y-95499945D01*
X141650281Y-95509261D01*
X141596948Y-95537026D01*
X141596944Y-95537027D01*
X141596936Y-95537028D01*
X141590923Y-95537819D01*
X141540853Y-95529638D01*
X141497797Y-95508589D01*
X141497442Y-95508414D01*
X141494617Y-95507747D01*
X141491135Y-95507495D01*
X141475723Y-95505249D01*
X141423904Y-95497700D01*
X141423901Y-95497700D01*
X140802098Y-95497700D01*
X140802096Y-95497700D01*
X140755605Y-95504473D01*
X140734865Y-95507495D01*
X140731380Y-95507747D01*
X140728553Y-95508414D01*
X140728245Y-95508567D01*
X140615145Y-95563858D01*
X140525858Y-95653145D01*
X140470567Y-95766245D01*
X140470414Y-95766553D01*
X140469747Y-95769380D01*
X140469495Y-95772865D01*
X140469318Y-95774078D01*
X140460892Y-95831919D01*
X140459700Y-95840098D01*
X140459700Y-96245631D01*
X140454398Y-96275698D01*
X140445527Y-96300068D01*
X140425084Y-96332156D01*
X140242177Y-96515064D01*
X140071398Y-96685843D01*
X140062309Y-96701587D01*
X140050923Y-96721306D01*
X140031204Y-96755460D01*
X140010400Y-96833107D01*
X140010400Y-96986616D01*
X140005098Y-97016681D01*
X140000591Y-97029063D01*
X139962767Y-97074640D01*
X139952558Y-97080683D01*
X139924934Y-97091252D01*
X139915936Y-97093041D01*
X139915933Y-97093042D01*
X139915933Y-97093043D01*
X139875797Y-97119861D01*
X139867581Y-97125350D01*
X139863075Y-97128362D01*
X139851388Y-97134941D01*
X139831656Y-97144142D01*
X139771757Y-97149381D01*
X139771755Y-97149381D01*
X139763445Y-97147154D01*
X139737377Y-97135346D01*
X139735215Y-97133902D01*
X139735145Y-97133852D01*
X139733955Y-97133060D01*
X139733840Y-97132983D01*
X139733047Y-97132453D01*
X139674069Y-97093045D01*
X139622061Y-97082700D01*
X139622059Y-97082700D01*
X138926404Y-97082700D01*
X138924977Y-97083010D01*
X138898246Y-97088327D01*
X138883024Y-97091354D01*
X138878692Y-97091781D01*
X138874533Y-97093042D01*
X138815556Y-97132450D01*
X138815548Y-97132458D01*
X138806571Y-97145895D01*
X138806570Y-97145897D01*
X138776145Y-97191431D01*
X138773649Y-97203983D01*
X138773648Y-97203986D01*
X138765800Y-97243440D01*
X138765800Y-97487300D01*
X138760498Y-97517365D01*
X138756176Y-97529239D01*
X138717535Y-97575293D01*
X138711256Y-97578919D01*
X138667299Y-97590700D01*
X138598806Y-97590700D01*
X138586793Y-97593919D01*
X138521161Y-97611504D01*
X138521159Y-97611504D01*
X138521159Y-97611505D01*
X138485470Y-97632110D01*
X138451539Y-97651700D01*
X138268697Y-97834542D01*
X138228695Y-97903825D01*
X138228695Y-97903829D01*
X138228508Y-97904151D01*
X138228504Y-97904160D01*
X138207700Y-97981807D01*
X138207700Y-98130255D01*
X138202398Y-98160321D01*
X138193527Y-98184692D01*
X138173084Y-98216781D01*
X138138269Y-98251595D01*
X138077929Y-98356106D01*
X138046700Y-98472662D01*
X136775446Y-98472662D01*
X136817168Y-98415237D01*
X136845854Y-98375753D01*
X136845858Y-98375747D01*
X136925719Y-98219012D01*
X136925722Y-98219005D01*
X136980081Y-98051703D01*
X137007451Y-97878900D01*
X136485900Y-97878900D01*
X136429399Y-97858335D01*
X136399335Y-97806264D01*
X136398000Y-97791000D01*
X136398000Y-97789000D01*
X136418565Y-97732499D01*
X136470636Y-97702435D01*
X136485900Y-97701100D01*
X137007450Y-97701100D01*
X137007450Y-97701099D01*
X136984276Y-97554782D01*
X136980081Y-97528296D01*
X136953918Y-97447775D01*
X136925723Y-97360996D01*
X136925713Y-97360976D01*
X136925622Y-97360798D01*
X136872000Y-97255559D01*
X136845870Y-97204275D01*
X136845867Y-97204269D01*
X136845858Y-97204252D01*
X136845854Y-97204245D01*
X136742457Y-97061931D01*
X136618068Y-96937542D01*
X136475754Y-96834145D01*
X136475747Y-96834141D01*
X136475737Y-96834136D01*
X136475723Y-96834128D01*
X136319022Y-96754285D01*
X136319002Y-96754275D01*
X136151700Y-96699917D01*
X136151702Y-96699917D01*
X135978900Y-96672548D01*
X135978900Y-97194100D01*
X135958335Y-97250601D01*
X135906264Y-97280665D01*
X135891000Y-97282000D01*
X135889000Y-97282000D01*
X135832499Y-97261435D01*
X135802435Y-97209364D01*
X135801100Y-97194100D01*
X135801100Y-96672548D01*
X135801099Y-96672548D01*
X135628297Y-96699917D01*
X135460996Y-96754275D01*
X135460976Y-96754285D01*
X135304275Y-96834128D01*
X135304243Y-96834146D01*
X135161930Y-96937542D01*
X135037542Y-97061930D01*
X134934146Y-97204243D01*
X134934128Y-97204275D01*
X134854285Y-97360976D01*
X134854275Y-97360996D01*
X134799917Y-97528298D01*
X134797642Y-97542666D01*
X134787703Y-97571531D01*
X134785279Y-97575904D01*
X134739900Y-97615351D01*
X134679782Y-97616400D01*
X134633055Y-97578561D01*
X134620500Y-97533289D01*
X134620500Y-93861984D01*
X135359500Y-93861984D01*
X135359500Y-94098014D01*
X135390306Y-94332011D01*
X135390307Y-94332014D01*
X135390310Y-94332026D01*
X135451392Y-94559986D01*
X135451394Y-94559993D01*
X135493605Y-94661899D01*
X135541713Y-94778043D01*
X135541714Y-94778045D01*
X135616085Y-94906859D01*
X135659729Y-94982454D01*
X135783533Y-95143798D01*
X135791593Y-95154302D01*
X135803408Y-95169699D01*
X135970301Y-95336592D01*
X136157550Y-95480273D01*
X136361951Y-95598284D01*
X136580007Y-95688606D01*
X136807986Y-95749693D01*
X136987541Y-95773331D01*
X137041987Y-95780500D01*
X137041989Y-95780500D01*
X137278009Y-95780500D01*
X137278013Y-95780500D01*
X137326784Y-95774078D01*
X137512014Y-95749693D01*
X137739993Y-95688606D01*
X137958049Y-95598284D01*
X138162450Y-95480273D01*
X138349699Y-95336592D01*
X138516592Y-95169699D01*
X138660273Y-94982450D01*
X138778284Y-94778049D01*
X138868606Y-94559993D01*
X138929693Y-94332014D01*
X138948377Y-94190096D01*
X140459700Y-94190096D01*
X140459700Y-94661904D01*
X140468150Y-94719899D01*
X140469495Y-94729134D01*
X140469747Y-94732618D01*
X140470414Y-94735443D01*
X140470568Y-94735754D01*
X140525860Y-94848856D01*
X140525861Y-94848857D01*
X140525863Y-94848859D01*
X140525864Y-94848861D01*
X140615139Y-94938136D01*
X140615140Y-94938136D01*
X140615309Y-94938305D01*
X140617561Y-94939320D01*
X140705784Y-94982450D01*
X140728565Y-94993587D01*
X140802096Y-95004300D01*
X140802100Y-95004300D01*
X141423899Y-95004300D01*
X141423904Y-95004300D01*
X141497435Y-94993587D01*
X141610861Y-94938136D01*
X141700136Y-94848861D01*
X141755587Y-94735435D01*
X141766300Y-94661904D01*
X141766300Y-94190096D01*
X141755587Y-94116565D01*
X141728491Y-94061139D01*
X141701327Y-94005574D01*
X141700305Y-94003309D01*
X141700136Y-94003140D01*
X141700136Y-94003139D01*
X141610861Y-93913864D01*
X141610859Y-93913863D01*
X141610857Y-93913861D01*
X141610856Y-93913860D01*
X141497428Y-93858409D01*
X141492167Y-93856155D01*
X141492269Y-93855916D01*
X141482932Y-93852141D01*
X141478762Y-93849897D01*
X141478761Y-93849896D01*
X141472568Y-93846563D01*
X141473460Y-93844904D01*
X141439589Y-93817333D01*
X141438279Y-93818409D01*
X141438247Y-93818370D01*
X141437172Y-93815365D01*
X141433592Y-93812451D01*
X141430777Y-93807740D01*
X141433798Y-93805934D01*
X141418300Y-93762614D01*
X141418300Y-93754698D01*
X141419395Y-93748487D01*
X149142200Y-93748487D01*
X149142200Y-94277099D01*
X149142201Y-94277100D01*
X150481098Y-94277100D01*
X150481099Y-94277100D01*
X150481100Y-94277099D01*
X150481100Y-93588201D01*
X150658900Y-93588201D01*
X150658900Y-94277099D01*
X150658901Y-94277100D01*
X151997797Y-94277100D01*
X151997798Y-94277100D01*
X151997799Y-94277099D01*
X151997799Y-94248096D01*
X152689700Y-94248096D01*
X152689700Y-94719904D01*
X152698171Y-94778045D01*
X152699495Y-94787134D01*
X152699747Y-94790618D01*
X152700414Y-94793443D01*
X152700568Y-94793754D01*
X152755860Y-94906856D01*
X152755861Y-94906857D01*
X152755863Y-94906859D01*
X152755864Y-94906861D01*
X152845139Y-94996136D01*
X152845140Y-94996136D01*
X152845309Y-94996305D01*
X152847574Y-94997327D01*
X152925400Y-95035374D01*
X152925401Y-95035374D01*
X152925403Y-95035375D01*
X152958565Y-95051587D01*
X153032096Y-95062300D01*
X153032100Y-95062300D01*
X153653899Y-95062300D01*
X153653904Y-95062300D01*
X153727435Y-95051587D01*
X153840861Y-94996136D01*
X153930136Y-94906861D01*
X153985587Y-94793435D01*
X153996300Y-94719904D01*
X153996300Y-94248096D01*
X153985587Y-94174565D01*
X153979416Y-94161942D01*
X153960060Y-94122349D01*
X153931327Y-94063574D01*
X153930305Y-94061309D01*
X153930136Y-94061140D01*
X153930136Y-94061139D01*
X153840861Y-93971864D01*
X153840859Y-93971863D01*
X153840857Y-93971861D01*
X153808650Y-93956115D01*
X153808604Y-93956092D01*
X153776016Y-93940161D01*
X153758230Y-93927214D01*
X153756112Y-93926444D01*
X153752358Y-93922940D01*
X153751340Y-93922200D01*
X153737842Y-93908197D01*
X153715134Y-93865396D01*
X153714705Y-93863369D01*
X153714560Y-93861984D01*
X155679500Y-93861984D01*
X155679500Y-94098014D01*
X155710306Y-94332011D01*
X155710307Y-94332014D01*
X155710310Y-94332026D01*
X155771392Y-94559986D01*
X155771394Y-94559993D01*
X155813605Y-94661899D01*
X155861713Y-94778043D01*
X155861714Y-94778045D01*
X155936085Y-94906859D01*
X155979729Y-94982454D01*
X156103533Y-95143798D01*
X156111593Y-95154302D01*
X156123408Y-95169699D01*
X156290301Y-95336592D01*
X156477550Y-95480273D01*
X156681951Y-95598284D01*
X156900007Y-95688606D01*
X157127986Y-95749693D01*
X157307541Y-95773331D01*
X157361987Y-95780500D01*
X157361989Y-95780500D01*
X157598009Y-95780500D01*
X157598013Y-95780500D01*
X157646784Y-95774078D01*
X157832014Y-95749693D01*
X158059993Y-95688606D01*
X158278049Y-95598284D01*
X158482450Y-95480273D01*
X158669699Y-95336592D01*
X158836592Y-95169699D01*
X158980273Y-94982450D01*
X159098284Y-94778049D01*
X159188606Y-94559993D01*
X159249693Y-94332014D01*
X159280500Y-94098011D01*
X159280500Y-93861989D01*
X159280029Y-93858415D01*
X159264334Y-93739199D01*
X159249693Y-93627986D01*
X159188606Y-93400007D01*
X159098284Y-93181951D01*
X158980273Y-92977550D01*
X158980271Y-92977548D01*
X158980271Y-92977547D01*
X158839845Y-92794541D01*
X158836592Y-92790301D01*
X158669699Y-92623408D01*
X158548378Y-92530315D01*
X158482452Y-92479728D01*
X158394069Y-92428700D01*
X158278049Y-92361716D01*
X158278047Y-92361715D01*
X158278045Y-92361714D01*
X158278043Y-92361713D01*
X158176059Y-92319470D01*
X158059993Y-92271394D01*
X158059250Y-92271195D01*
X157928842Y-92236252D01*
X157873216Y-92221347D01*
X157832022Y-92210309D01*
X157832014Y-92210307D01*
X157832013Y-92210306D01*
X157832010Y-92210306D01*
X157598016Y-92179500D01*
X157598013Y-92179500D01*
X157598011Y-92179500D01*
X157361989Y-92179500D01*
X157361987Y-92179500D01*
X157361984Y-92179500D01*
X157127987Y-92210306D01*
X156900747Y-92271195D01*
X156900074Y-92271369D01*
X156898594Y-92271916D01*
X156897125Y-92272587D01*
X156681956Y-92361713D01*
X156681954Y-92361714D01*
X156676247Y-92365009D01*
X156477551Y-92479725D01*
X156477548Y-92479727D01*
X156290307Y-92623402D01*
X156123402Y-92790307D01*
X155979727Y-92977548D01*
X155979725Y-92977551D01*
X155916592Y-93086902D01*
X155868096Y-93170901D01*
X155861713Y-93181956D01*
X155771393Y-93400007D01*
X155710306Y-93627987D01*
X155679500Y-93861984D01*
X153714560Y-93861984D01*
X153712800Y-93845169D01*
X153712800Y-93809134D01*
X153718099Y-93779075D01*
X153724887Y-93760425D01*
X153752727Y-93721731D01*
X153753832Y-93720851D01*
X153768668Y-93711303D01*
X153862539Y-93663474D01*
X153951474Y-93574539D01*
X154008574Y-93462475D01*
X154023300Y-93369497D01*
X154023299Y-92794504D01*
X154008574Y-92701525D01*
X153968771Y-92623408D01*
X153951571Y-92589650D01*
X153951478Y-92589466D01*
X153951475Y-92589463D01*
X153951474Y-92589461D01*
X153862539Y-92500526D01*
X153862536Y-92500524D01*
X153862535Y-92500523D01*
X153862533Y-92500521D01*
X153750475Y-92443424D01*
X153679862Y-92432242D01*
X153679861Y-92432241D01*
X153657497Y-92428700D01*
X153657495Y-92428700D01*
X153157505Y-92428700D01*
X153156869Y-92428700D01*
X153154248Y-92429216D01*
X153064533Y-92443423D01*
X153064517Y-92443428D01*
X153064508Y-92443432D01*
X152952467Y-92500520D01*
X152863520Y-92589467D01*
X152806426Y-92701520D01*
X152805615Y-92704898D01*
X152805343Y-92708357D01*
X152791700Y-92794503D01*
X152791700Y-93370608D01*
X152792216Y-93372750D01*
X152806423Y-93462465D01*
X152806428Y-93462481D01*
X152806432Y-93462490D01*
X152863521Y-93574533D01*
X152863523Y-93574535D01*
X152863524Y-93574536D01*
X152863526Y-93574539D01*
X152952461Y-93663474D01*
X153040400Y-93708281D01*
X153064778Y-93726652D01*
X153074552Y-93737134D01*
X153078307Y-93741161D01*
X153100149Y-93783555D01*
X153100430Y-93784934D01*
X153102200Y-93802485D01*
X153102200Y-93803965D01*
X153096898Y-93834030D01*
X153092576Y-93845904D01*
X153053927Y-93891963D01*
X153053926Y-93891964D01*
X153044070Y-93897654D01*
X153012797Y-93908510D01*
X152964868Y-93915494D01*
X152961384Y-93915746D01*
X152958553Y-93916414D01*
X152958245Y-93916567D01*
X152845145Y-93971858D01*
X152755858Y-94061145D01*
X152700567Y-94174245D01*
X152700414Y-94174553D01*
X152699747Y-94177380D01*
X152699556Y-94180019D01*
X152699568Y-94180349D01*
X152699514Y-94180729D01*
X152689700Y-94248096D01*
X151997799Y-94248096D01*
X151997799Y-93838199D01*
X152003098Y-93808140D01*
X152003901Y-93805934D01*
X152007421Y-93796263D01*
X152046064Y-93750205D01*
X152053564Y-93745875D01*
X152089848Y-93734436D01*
X152105566Y-93733060D01*
X152110210Y-93730411D01*
X152111263Y-93730237D01*
X152175316Y-93720093D01*
X152287239Y-93663066D01*
X152376066Y-93574239D01*
X152433093Y-93462316D01*
X152443331Y-93397666D01*
X152447800Y-93388897D01*
X152447800Y-93170902D01*
X152447800Y-93170901D01*
X152447799Y-93170900D01*
X152447798Y-93170900D01*
X151217202Y-93170900D01*
X151217201Y-93170900D01*
X151217200Y-93170901D01*
X151217200Y-93170902D01*
X151217200Y-93369458D01*
X151228370Y-93439991D01*
X151228797Y-93443033D01*
X151234157Y-93486708D01*
X151220628Y-93545293D01*
X151174810Y-93580770D01*
X151166190Y-93583655D01*
X151138292Y-93588200D01*
X150658901Y-93588200D01*
X150658900Y-93588201D01*
X150481100Y-93588201D01*
X150481099Y-93588200D01*
X150481098Y-93588200D01*
X149302489Y-93588200D01*
X149250622Y-93598516D01*
X149191820Y-93637809D01*
X149191819Y-93637809D01*
X149191809Y-93637819D01*
X149191809Y-93637820D01*
X149152516Y-93696622D01*
X149144807Y-93735382D01*
X149142200Y-93748487D01*
X141419395Y-93748487D01*
X141423599Y-93724639D01*
X141427913Y-93712787D01*
X141466542Y-93666718D01*
X141472859Y-93663070D01*
X141477661Y-93661784D01*
X141480197Y-93659283D01*
X141489926Y-93658498D01*
X141516801Y-93651299D01*
X141697495Y-93651299D01*
X141697496Y-93651299D01*
X141790475Y-93636574D01*
X141902539Y-93579474D01*
X141991474Y-93490539D01*
X142048574Y-93378475D01*
X142063300Y-93285497D01*
X142063299Y-93086901D01*
X142407200Y-93086901D01*
X142407200Y-93086902D01*
X142407200Y-93285458D01*
X142421905Y-93378313D01*
X142421905Y-93378314D01*
X142421906Y-93378316D01*
X142478933Y-93490239D01*
X142567760Y-93579066D01*
X142567762Y-93579067D01*
X142609589Y-93600379D01*
X142679683Y-93636093D01*
X142679682Y-93636093D01*
X142768083Y-93650093D01*
X142770444Y-93650800D01*
X142772542Y-93650800D01*
X142933598Y-93650800D01*
X142933599Y-93650800D01*
X142933600Y-93650799D01*
X142933600Y-93086901D01*
X143111400Y-93086901D01*
X143111400Y-93650799D01*
X143111401Y-93650800D01*
X143111402Y-93650800D01*
X143272458Y-93650800D01*
X143291898Y-93650800D01*
X143300666Y-93646331D01*
X143365316Y-93636093D01*
X143477239Y-93579066D01*
X143566066Y-93490239D01*
X143623093Y-93378316D01*
X143633331Y-93313666D01*
X143637800Y-93304897D01*
X143637800Y-93086902D01*
X143637800Y-93086901D01*
X143637799Y-93086900D01*
X143637798Y-93086900D01*
X143111402Y-93086900D01*
X143111401Y-93086900D01*
X143111400Y-93086901D01*
X142933600Y-93086901D01*
X142933599Y-93086900D01*
X142933598Y-93086900D01*
X142407202Y-93086900D01*
X142407201Y-93086900D01*
X142407200Y-93086901D01*
X142063299Y-93086901D01*
X142063299Y-92993100D01*
X142063299Y-92710541D01*
X142407200Y-92710541D01*
X142407200Y-92909099D01*
X142407201Y-92909100D01*
X142933598Y-92909100D01*
X142933599Y-92909100D01*
X142933600Y-92909099D01*
X142933600Y-92345201D01*
X143111400Y-92345201D01*
X143111400Y-92909099D01*
X143111401Y-92909100D01*
X143637798Y-92909100D01*
X143637799Y-92909100D01*
X143637800Y-92909099D01*
X143637800Y-92710543D01*
X143634810Y-92691667D01*
X143634810Y-92691665D01*
X143633316Y-92682230D01*
X146469500Y-92682230D01*
X146469500Y-92849767D01*
X146481302Y-92909100D01*
X146498009Y-92993100D01*
X146502181Y-93014072D01*
X146502189Y-93014095D01*
X146566296Y-93168862D01*
X146644204Y-93285458D01*
X146659374Y-93308162D01*
X146777838Y-93426626D01*
X146797840Y-93439991D01*
X146917137Y-93519703D01*
X147071917Y-93583816D01*
X147071924Y-93583817D01*
X147071926Y-93583818D01*
X147155190Y-93600379D01*
X147236233Y-93616500D01*
X147236235Y-93616500D01*
X147403765Y-93616500D01*
X147403767Y-93616500D01*
X147511339Y-93595102D01*
X147565007Y-93584427D01*
X147567681Y-93583995D01*
X147568684Y-93583763D01*
X147572044Y-93582174D01*
X147722863Y-93519703D01*
X147862162Y-93426626D01*
X147980626Y-93308162D01*
X148073703Y-93168863D01*
X148137816Y-93014082D01*
X148170500Y-92849767D01*
X148170500Y-92794541D01*
X151217200Y-92794541D01*
X151217200Y-92993099D01*
X151217201Y-92993100D01*
X151743598Y-92993100D01*
X151743599Y-92993100D01*
X151743600Y-92993099D01*
X151743600Y-92429201D01*
X151921400Y-92429201D01*
X151921400Y-92993099D01*
X151921401Y-92993100D01*
X152447798Y-92993100D01*
X152447799Y-92993100D01*
X152447800Y-92993099D01*
X152447800Y-92794541D01*
X152433093Y-92701683D01*
X152376066Y-92589760D01*
X152287239Y-92500933D01*
X152287236Y-92500931D01*
X152227647Y-92470569D01*
X152207542Y-92449009D01*
X152082459Y-92429200D01*
X151921401Y-92429200D01*
X151921400Y-92429201D01*
X151743600Y-92429201D01*
X151743599Y-92429200D01*
X151743598Y-92429200D01*
X151582540Y-92429200D01*
X151489685Y-92443905D01*
X151377761Y-92500932D01*
X151288932Y-92589761D01*
X151237010Y-92691665D01*
X151231986Y-92701527D01*
X151231905Y-92701685D01*
X151217206Y-92794503D01*
X151217200Y-92794541D01*
X148170500Y-92794541D01*
X148170500Y-92682233D01*
X148158799Y-92623408D01*
X148137818Y-92517926D01*
X148137817Y-92517923D01*
X148137816Y-92517918D01*
X148132780Y-92505761D01*
X148073703Y-92363137D01*
X148063750Y-92348241D01*
X147980626Y-92223838D01*
X147913894Y-92157106D01*
X158746500Y-92157106D01*
X158746500Y-92288892D01*
X158765399Y-92359427D01*
X158780606Y-92416183D01*
X158796612Y-92443905D01*
X158846500Y-92530314D01*
X158939686Y-92623500D01*
X159053814Y-92689392D01*
X159181108Y-92723500D01*
X159312891Y-92723500D01*
X159312892Y-92723500D01*
X159440186Y-92689392D01*
X159554314Y-92623500D01*
X159647500Y-92530314D01*
X159713392Y-92416186D01*
X159747500Y-92288892D01*
X159747500Y-92157108D01*
X159713392Y-92029814D01*
X159647500Y-91915686D01*
X159554314Y-91822500D01*
X159554312Y-91822499D01*
X159450206Y-91762392D01*
X159445577Y-91758840D01*
X159434793Y-91754373D01*
X159429006Y-91753612D01*
X159312892Y-91722500D01*
X159181108Y-91722500D01*
X159181106Y-91722500D01*
X159053817Y-91756605D01*
X158939686Y-91822499D01*
X158846499Y-91915686D01*
X158780605Y-92029817D01*
X158746500Y-92157106D01*
X147913894Y-92157106D01*
X147862162Y-92105374D01*
X147860277Y-92104114D01*
X147722862Y-92012296D01*
X147568096Y-91948189D01*
X147568086Y-91948185D01*
X147568082Y-91948184D01*
X147568079Y-91948183D01*
X147568073Y-91948181D01*
X147444424Y-91923587D01*
X147430871Y-91920891D01*
X147403769Y-91915500D01*
X147403767Y-91915500D01*
X147236233Y-91915500D01*
X147236231Y-91915500D01*
X147212112Y-91920297D01*
X147200052Y-91922696D01*
X147174568Y-91927764D01*
X147071927Y-91948180D01*
X147071919Y-91948183D01*
X146952198Y-91997773D01*
X146917140Y-92012296D01*
X146917135Y-92012298D01*
X146917134Y-92012298D01*
X146777844Y-92105368D01*
X146659368Y-92223844D01*
X146566298Y-92363134D01*
X146566298Y-92363135D01*
X146502183Y-92517919D01*
X146502177Y-92517937D01*
X146469500Y-92682230D01*
X143633316Y-92682230D01*
X143623093Y-92617682D01*
X143566066Y-92505760D01*
X143477239Y-92416933D01*
X143477236Y-92416931D01*
X143417647Y-92386569D01*
X143397542Y-92365009D01*
X143272459Y-92345200D01*
X143111401Y-92345200D01*
X143111400Y-92345201D01*
X142933600Y-92345201D01*
X142933599Y-92345200D01*
X142933598Y-92345200D01*
X142772540Y-92345200D01*
X142679685Y-92359905D01*
X142567761Y-92416932D01*
X142478932Y-92505761D01*
X142436286Y-92589461D01*
X142421986Y-92617527D01*
X142421905Y-92617685D01*
X142407546Y-92708357D01*
X142407200Y-92710541D01*
X142063299Y-92710541D01*
X142063299Y-92710505D01*
X142063299Y-92710504D01*
X142048574Y-92617525D01*
X142004138Y-92530315D01*
X141991571Y-92505651D01*
X141991478Y-92505466D01*
X141991475Y-92505463D01*
X141991474Y-92505461D01*
X141902539Y-92416526D01*
X141902536Y-92416524D01*
X141902535Y-92416523D01*
X141902533Y-92416521D01*
X141790475Y-92359424D01*
X141719862Y-92348242D01*
X141719861Y-92348241D01*
X141697497Y-92344700D01*
X141697495Y-92344700D01*
X141197505Y-92344700D01*
X141196869Y-92344700D01*
X141194248Y-92345216D01*
X141104533Y-92359423D01*
X141104517Y-92359428D01*
X141104508Y-92359432D01*
X140992467Y-92416520D01*
X140903520Y-92505467D01*
X140846426Y-92617520D01*
X140845615Y-92620898D01*
X140845343Y-92624357D01*
X140831700Y-92710503D01*
X140831700Y-93185408D01*
X140830948Y-93196881D01*
X140829458Y-93208199D01*
X140827215Y-93219476D01*
X140809525Y-93285497D01*
X140807700Y-93292306D01*
X140807700Y-93755362D01*
X140802398Y-93785427D01*
X140798076Y-93797301D01*
X140759427Y-93843360D01*
X140759426Y-93843361D01*
X140747448Y-93850276D01*
X140733779Y-93856043D01*
X140733828Y-93856157D01*
X140728571Y-93858409D01*
X140615144Y-93913859D01*
X140525858Y-94003145D01*
X140470567Y-94116245D01*
X140470414Y-94116553D01*
X140469747Y-94119380D01*
X140469556Y-94122019D01*
X140469568Y-94122349D01*
X140469514Y-94122729D01*
X140459700Y-94190096D01*
X138948377Y-94190096D01*
X138958059Y-94116553D01*
X138960500Y-94098012D01*
X138960500Y-93861994D01*
X138960500Y-93861989D01*
X138960029Y-93858415D01*
X138944334Y-93739199D01*
X138929693Y-93627986D01*
X138868606Y-93400007D01*
X138778284Y-93181951D01*
X138660273Y-92977550D01*
X138660271Y-92977548D01*
X138660271Y-92977547D01*
X138519845Y-92794541D01*
X138516592Y-92790301D01*
X138349699Y-92623408D01*
X138228378Y-92530315D01*
X138162452Y-92479728D01*
X138074069Y-92428700D01*
X137958049Y-92361716D01*
X137958047Y-92361715D01*
X137958045Y-92361714D01*
X137958043Y-92361713D01*
X137856059Y-92319470D01*
X137739993Y-92271394D01*
X137739250Y-92271195D01*
X137562520Y-92223840D01*
X137512011Y-92210306D01*
X137278016Y-92179500D01*
X137278013Y-92179500D01*
X137278011Y-92179500D01*
X137041989Y-92179500D01*
X137041987Y-92179500D01*
X137041984Y-92179500D01*
X136807987Y-92210306D01*
X136580747Y-92271195D01*
X136580074Y-92271369D01*
X136578594Y-92271916D01*
X136577125Y-92272587D01*
X136361956Y-92361713D01*
X136361954Y-92361714D01*
X136356247Y-92365009D01*
X136157551Y-92479725D01*
X136157548Y-92479727D01*
X135970307Y-92623402D01*
X135803402Y-92790307D01*
X135659727Y-92977548D01*
X135659725Y-92977551D01*
X135596592Y-93086902D01*
X135548096Y-93170901D01*
X135541713Y-93181956D01*
X135451393Y-93400007D01*
X135390306Y-93627987D01*
X135359500Y-93861984D01*
X134620500Y-93861984D01*
X134620500Y-91543899D01*
X134625799Y-91513840D01*
X134630122Y-91501963D01*
X134668765Y-91455905D01*
X134675059Y-91452271D01*
X134719001Y-91440500D01*
X159916100Y-91440500D01*
X159946158Y-91445798D01*
G37*
%TD.AperFunction*%
%TA.AperFunction,Conductor*%
G36*
X159991679Y-111718643D02*
G01*
X160016498Y-111762175D01*
X160017203Y-111765198D01*
X160019500Y-111785162D01*
X160019500Y-112180349D01*
X160014197Y-112210418D01*
X160010843Y-112219631D01*
X159972191Y-112265689D01*
X159912976Y-112276126D01*
X159868150Y-112253709D01*
X159865883Y-112251586D01*
X159852896Y-112236276D01*
X159845667Y-112225458D01*
X159823188Y-112191817D01*
X159823182Y-112191811D01*
X159764375Y-112152516D01*
X159764372Y-112152515D01*
X159738265Y-112147322D01*
X159712513Y-112142200D01*
X159712511Y-112142200D01*
X159183902Y-112142200D01*
X159183901Y-112142200D01*
X159183900Y-112142201D01*
X159183900Y-113097798D01*
X159183901Y-113097799D01*
X159183902Y-113097799D01*
X159712509Y-113097799D01*
X159712511Y-113097799D01*
X159729719Y-113094375D01*
X159764375Y-113087483D01*
X159823182Y-113048188D01*
X159823185Y-113048185D01*
X159849906Y-113008194D01*
X159871014Y-112986148D01*
X159878927Y-112980346D01*
X159936654Y-112963528D01*
X159991686Y-112987750D01*
X160016496Y-113031269D01*
X160017201Y-113034291D01*
X160019500Y-113054261D01*
X160019500Y-113449450D01*
X160014197Y-113479519D01*
X160010843Y-113488732D01*
X159972191Y-113534790D01*
X159912976Y-113545227D01*
X159868149Y-113522809D01*
X159865881Y-113520685D01*
X159852894Y-113505374D01*
X159843295Y-113491008D01*
X159823549Y-113461456D01*
X159823547Y-113461453D01*
X159764569Y-113422045D01*
X159712561Y-113411700D01*
X159712559Y-113411700D01*
X158477304Y-113411700D01*
X158475877Y-113412010D01*
X158447748Y-113417604D01*
X158433924Y-113420354D01*
X158429592Y-113420781D01*
X158425433Y-113422042D01*
X158366456Y-113461450D01*
X158366449Y-113461457D01*
X158340128Y-113500849D01*
X158332981Y-113506271D01*
X158313467Y-113538446D01*
X158267483Y-113575779D01*
X158261177Y-113577997D01*
X158256285Y-113579718D01*
X158227115Y-113584700D01*
X157088700Y-113584700D01*
X157058637Y-113579399D01*
X157046762Y-113575077D01*
X157000702Y-113536429D01*
X156997071Y-113530140D01*
X156985300Y-113486198D01*
X156985300Y-112558368D01*
X156990601Y-112528304D01*
X156999471Y-112503932D01*
X157019913Y-112471845D01*
X157232558Y-112259201D01*
X157445928Y-112045829D01*
X157470937Y-112028318D01*
X157478904Y-112024604D01*
X157538803Y-112019368D01*
X157588054Y-112053859D01*
X157603947Y-112104271D01*
X157603947Y-112108202D01*
X157600952Y-112130951D01*
X157573700Y-112232660D01*
X157573700Y-112353336D01*
X157604925Y-112469878D01*
X157604934Y-112469906D01*
X157604959Y-112469981D01*
X157605583Y-112471024D01*
X157665268Y-112574403D01*
X157750597Y-112659732D01*
X157855103Y-112720068D01*
X157855104Y-112720068D01*
X157855105Y-112720068D01*
X157855106Y-112720069D01*
X157971664Y-112751300D01*
X158092334Y-112751300D01*
X158092335Y-112751300D01*
X158092336Y-112751300D01*
X158191584Y-112724706D01*
X158221986Y-112722046D01*
X158234577Y-112723147D01*
X158289069Y-112748557D01*
X158290849Y-112750338D01*
X158314508Y-112793458D01*
X158315115Y-112796195D01*
X158317200Y-112815227D01*
X158317200Y-112937646D01*
X158317504Y-112939045D01*
X158327513Y-112989369D01*
X158327513Y-112989370D01*
X158327515Y-112989373D01*
X158327519Y-112989381D01*
X158344894Y-113015382D01*
X158366811Y-113048182D01*
X158366817Y-113048188D01*
X158425624Y-113087483D01*
X158477486Y-113097799D01*
X159006098Y-113097799D01*
X159006100Y-113097798D01*
X159006100Y-112142201D01*
X159006099Y-112142200D01*
X159006098Y-112142200D01*
X158842267Y-112142200D01*
X158833474Y-112138999D01*
X158812198Y-112136897D01*
X158802691Y-112133436D01*
X158790821Y-112123475D01*
X158785766Y-112121635D01*
X158783075Y-112116974D01*
X158756633Y-112094784D01*
X158746194Y-112035581D01*
X158746736Y-112032506D01*
X158771146Y-111985611D01*
X158891758Y-111865000D01*
X158916756Y-111847496D01*
X158940266Y-111836533D01*
X158977411Y-111828299D01*
X159715485Y-111828299D01*
X159721051Y-111826610D01*
X159756081Y-111819643D01*
X159764906Y-111818774D01*
X159771758Y-111813151D01*
X159823547Y-111778547D01*
X159849904Y-111739099D01*
X159871012Y-111717050D01*
X159878918Y-111711252D01*
X159936643Y-111694427D01*
X159991679Y-111718643D01*
G37*
%TD.AperFunction*%
%TA.AperFunction,Conductor*%
G36*
X150808960Y-106293031D02*
G01*
X150833330Y-106301901D01*
X150865421Y-106322345D01*
X151256333Y-106713257D01*
X151273843Y-106738265D01*
X151278117Y-106747431D01*
X151283357Y-106807330D01*
X151248886Y-106856570D01*
X151247804Y-106857327D01*
X151246326Y-106858362D01*
X151195894Y-106874270D01*
X150070637Y-106874270D01*
X149990083Y-106895853D01*
X149917855Y-106937554D01*
X149465953Y-107389455D01*
X149440947Y-107406963D01*
X149421196Y-107416174D01*
X149366904Y-107422720D01*
X149350555Y-107419469D01*
X149350552Y-107419468D01*
X149350551Y-107419468D01*
X149341664Y-107417700D01*
X149341661Y-107417700D01*
X149341660Y-107417700D01*
X148106536Y-107417700D01*
X148106404Y-107417700D01*
X148105002Y-107418005D01*
X148060488Y-107426858D01*
X148047173Y-107428462D01*
X148026544Y-107429362D01*
X147969201Y-107411280D01*
X147938323Y-107366137D01*
X147936238Y-107358982D01*
X147932730Y-107334397D01*
X147932730Y-106778402D01*
X147938031Y-106748338D01*
X147938045Y-106748300D01*
X147946901Y-106723966D01*
X147967343Y-106691879D01*
X148198222Y-106460999D01*
X148223226Y-106443492D01*
X148246731Y-106432533D01*
X148283876Y-106424299D01*
X149344585Y-106424299D01*
X149350151Y-106422610D01*
X149385181Y-106415643D01*
X149394006Y-106414774D01*
X149400858Y-106409151D01*
X149452647Y-106374547D01*
X149475945Y-106339677D01*
X149497051Y-106317631D01*
X149514631Y-106304742D01*
X149566605Y-106287730D01*
X150778896Y-106287730D01*
X150808960Y-106293031D01*
G37*
%TD.AperFunction*%
%TD*%
M02*
