%TF.GenerationSoftware,KiCad,Pcbnew,10.99.0-3671-gbe90a7e200*%
%TF.CreationDate,2026-09-10T00:02:39+01:00*%
%TF.ProjectId,kicad_file,6b696361-645f-4666-996c-652e6b696361,rev?*%
%TF.SameCoordinates,Original*%
%TF.FileFunction,Soldermask,Top*%
%TF.FilePolarity,Negative*%
%FSLAX46Y46*%
G04 Gerber Fmt 4.6, Leading zero omitted, Abs format (unit mm)*
G04 Created by KiCad (PCBNEW 10.99.0-3671-gbe90a7e200) date 2026-09-10 00:02:39*
%MOMM*%
%LPD*%
G01*
G04 APERTURE LIST*
G04 Aperture macros list*
%AMRoundRect*
0 Rectangle with rounded corners*
0 $1 Rounding radius*
0 $2 $3 $4 $5 $6 $7 $8 $9 X,Y pos of 4 corners*
0 Add a 4 corners polygon primitive as box body*
4,1,4,$2,$3,$4,$5,$6,$7,$8,$9,$2,$3,0*
0 Add four circle primitives for the rounded corners*
1,1,$1+$1,$2,$3*
1,1,$1+$1,$4,$5*
1,1,$1+$1,$6,$7*
1,1,$1+$1,$8,$9*
0 Add four rect primitives between the rounded corners*
20,1,$1+$1,$2,$3,$4,$5,0*
20,1,$1+$1,$4,$5,$6,$7,0*
20,1,$1+$1,$6,$7,$8,$9,0*
20,1,$1+$1,$8,$9,$2,$3,0*%
G04 Aperture macros list end*
%ADD10C,3.200000*%
%ADD11C,1.879600*%
%ADD12RoundRect,0.101600X-0.250000X-1.000000X0.250000X-1.000000X0.250000X1.000000X-0.250000X1.000000X0*%
%ADD13RoundRect,0.101600X-0.275000X-1.000000X0.275000X-1.000000X0.275000X1.000000X-0.275000X1.000000X0*%
%ADD14RoundRect,0.101600X-14.000000X-2.500000X14.000000X-2.500000X14.000000X2.500000X-14.000000X2.500000X0*%
G04 APERTURE END LIST*
D10*
%TO.C,UNK_HOLE_0*%
X2540000Y2540000D03*
%TD*%
D11*
%TO.C,JP2*%
X1270000Y12700000D03*
X3810000Y12700000D03*
X6350000Y12700000D03*
X8890000Y12700000D03*
X11430000Y12700000D03*
X13970000Y12700000D03*
X16510000Y12700000D03*
X19050000Y12700000D03*
X21590000Y12700000D03*
X24130000Y12700000D03*
X26670000Y12700000D03*
X29210000Y12700000D03*
X31750000Y12700000D03*
X34290000Y12700000D03*
X36830000Y12700000D03*
X39370000Y12700000D03*
X41910000Y12700000D03*
X44450000Y12700000D03*
X46990000Y12700000D03*
X49530000Y12700000D03*
%TD*%
D10*
%TO.C,UNK_HOLE_1*%
X48260000Y2540000D03*
%TD*%
D12*
%TO.C,JP1*%
X15900000Y7112000D03*
X16900000Y7112000D03*
X17900000Y7112000D03*
X18900000Y7112000D03*
D13*
X19900000Y7112000D03*
X20900000Y7112000D03*
X21900000Y7112000D03*
X22900000Y7112000D03*
X23900000Y7112000D03*
X24900000Y7112000D03*
X25900000Y7112000D03*
X26900000Y7112000D03*
X27900000Y7112000D03*
X28900000Y7112000D03*
X29900000Y7112000D03*
X30900000Y7112000D03*
X31900000Y7112000D03*
X32900000Y7112000D03*
X33900000Y7112000D03*
X34900000Y7112000D03*
D14*
X25400000Y3112000D03*
%TD*%
M02*
