%TF.GenerationSoftware,KiCad,Pcbnew,10.99.0-3758-g2f18d95be7*%
%TF.CreationDate,2026-09-22T08:32:24+01:00*%
%TF.ProjectId,kicad_file,6b696361-645f-4666-996c-652e6b696361,rev?*%
%TF.SameCoordinates,Original*%
%TF.FileFunction,Drillmap*%
%TF.FilePolarity,Positive*%
%FSLAX45Y45*%
G04 Gerber Fmt 4.5, Leading zero omitted, Abs format (unit mm)*
G04 Created by KiCad (PCBNEW 10.99.0-3758-g2f18d95be7) date 2026-09-22 08:32:24*
%MOMM*%
%LPD*%
G01*
G04 APERTURE LIST*
%ADD10C,0.050000*%
%ADD11C,0.200000*%
%ADD12C,0.100000*%
%ADD13C,0.101600*%
%ADD14C,0.250000*%
G04 APERTURE END LIST*
D10*
X-1104900Y1879600D02*
X-1104900Y-152400D01*
X-1104900Y1879600D02*
G75*
G02*
X-850900Y2133600I254000J0D01*
G01*
X-850900Y-406400D02*
G75*
G02*
X-1104900Y-152400I0J254000D01*
G01*
X-850900Y-406400D02*
X927100Y-406400D01*
X927100Y2133600D02*
X-850900Y2133600D01*
X927100Y2133600D02*
G75*
G02*
X1181100Y1879600I0J-254000D01*
G01*
X1181100Y-152400D02*
G75*
G02*
X927100Y-406400I-254000J0D01*
G01*
X1181100Y-152400D02*
X1181100Y1879600D01*
D11*
D12*
X-393300Y1510900D02*
X-343300Y1460900D01*
X-343300Y1510900D02*
X-393300Y1460900D01*
X-279000Y431400D02*
X-229000Y381400D01*
X-229000Y431400D02*
X-279000Y381400D01*
X-63100Y825100D02*
X-13100Y775100D01*
X-13100Y825100D02*
X-63100Y775100D01*
X-12300Y1218800D02*
X37700Y1168800D01*
X37700Y1218800D02*
X-12300Y1168800D01*
X25800Y990200D02*
X75800Y940200D01*
X75800Y990200D02*
X25800Y940200D01*
X25800Y710800D02*
X75800Y660800D01*
X75800Y710800D02*
X25800Y660800D01*
X38500Y1333100D02*
X88500Y1283100D01*
X88500Y1333100D02*
X38500Y1283100D01*
X889400Y888600D02*
X939400Y838600D01*
X939400Y888600D02*
X889400Y838600D01*
D13*
X-927100Y1485900D02*
G75*
G02*
X-1028700Y1485900I-50800J0D01*
G01*
X-1028700Y1485900D02*
G75*
G02*
X-927100Y1485900I50800J0D01*
G01*
X-927100Y1231900D02*
G75*
G02*
X-1028700Y1231900I-50800J0D01*
G01*
X-1028700Y1231900D02*
G75*
G02*
X-927100Y1231900I50800J0D01*
G01*
X-927100Y977900D02*
G75*
G02*
X-1028700Y977900I-50800J0D01*
G01*
X-1028700Y977900D02*
G75*
G02*
X-927100Y977900I50800J0D01*
G01*
X-927100Y723900D02*
G75*
G02*
X-1028700Y723900I-50800J0D01*
G01*
X-1028700Y723900D02*
G75*
G02*
X-927100Y723900I50800J0D01*
G01*
X-927100Y469900D02*
G75*
G02*
X-1028700Y469900I-50800J0D01*
G01*
X-1028700Y469900D02*
G75*
G02*
X-927100Y469900I50800J0D01*
G01*
X-927100Y215900D02*
G75*
G02*
X-1028700Y215900I-50800J0D01*
G01*
X-1028700Y215900D02*
G75*
G02*
X-927100Y215900I50800J0D01*
G01*
X1104900Y1485900D02*
G75*
G02*
X1003300Y1485900I-50800J0D01*
G01*
X1003300Y1485900D02*
G75*
G02*
X1104900Y1485900I50800J0D01*
G01*
X1104900Y1231900D02*
G75*
G02*
X1003300Y1231900I-50800J0D01*
G01*
X1003300Y1231900D02*
G75*
G02*
X1104900Y1231900I50800J0D01*
G01*
X1104900Y977900D02*
G75*
G02*
X1003300Y977900I-50800J0D01*
G01*
X1003300Y977900D02*
G75*
G02*
X1104900Y977900I50800J0D01*
G01*
X1104900Y723900D02*
G75*
G02*
X1003300Y723900I-50800J0D01*
G01*
X1003300Y723900D02*
G75*
G02*
X1104900Y723900I50800J0D01*
G01*
X1104900Y469900D02*
G75*
G02*
X1003300Y469900I-50800J0D01*
G01*
X1003300Y469900D02*
G75*
G02*
X1104900Y469900I50800J0D01*
G01*
X1104900Y215900D02*
G75*
G02*
X1003300Y215900I-50800J0D01*
G01*
X1003300Y215900D02*
G75*
G02*
X1104900Y215900I50800J0D01*
G01*
D14*
X-850900Y2004600D02*
X-850900Y1754600D01*
X-975900Y1879600D02*
X-725900Y1879600D01*
X-850900Y-27400D02*
X-850900Y-277400D01*
X-975900Y-152400D02*
X-725900Y-152400D01*
X927100Y2004600D02*
X927100Y1754600D01*
X802100Y1879600D02*
X1052100Y1879600D01*
X927100Y-27400D02*
X927100Y-277400D01*
X802100Y-152400D02*
X1052100Y-152400D01*
D11*
X-846623Y-720384D02*
X-846623Y-520384D01*
X-846623Y-520384D02*
X-799004Y-520384D01*
X-799004Y-520384D02*
X-770433Y-529908D01*
X-770433Y-529908D02*
X-751385Y-548955D01*
X-751385Y-548955D02*
X-741861Y-568003D01*
X-741861Y-568003D02*
X-732337Y-606098D01*
X-732337Y-606098D02*
X-732337Y-634670D01*
X-732337Y-634670D02*
X-741861Y-672765D01*
X-741861Y-672765D02*
X-751385Y-691812D01*
X-751385Y-691812D02*
X-770433Y-710860D01*
X-770433Y-710860D02*
X-799004Y-720384D01*
X-799004Y-720384D02*
X-846623Y-720384D01*
X-646623Y-720384D02*
X-646623Y-587050D01*
X-646623Y-625146D02*
X-637099Y-606098D01*
X-637099Y-606098D02*
X-627576Y-596574D01*
X-627576Y-596574D02*
X-608528Y-587050D01*
X-608528Y-587050D02*
X-589480Y-587050D01*
X-522814Y-720384D02*
X-522814Y-587050D01*
X-522814Y-520384D02*
X-532337Y-529908D01*
X-532337Y-529908D02*
X-522814Y-539431D01*
X-522814Y-539431D02*
X-513290Y-529908D01*
X-513290Y-529908D02*
X-522814Y-520384D01*
X-522814Y-520384D02*
X-522814Y-539431D01*
X-399004Y-720384D02*
X-418052Y-710860D01*
X-418052Y-710860D02*
X-427575Y-691812D01*
X-427575Y-691812D02*
X-427575Y-520384D01*
X-294242Y-720384D02*
X-313290Y-710860D01*
X-313290Y-710860D02*
X-322814Y-691812D01*
X-322814Y-691812D02*
X-322814Y-520384D01*
X-65671Y-720384D02*
X-65671Y-520384D01*
X-65671Y-520384D02*
X996Y-663241D01*
X996Y-663241D02*
X67663Y-520384D01*
X67663Y-520384D02*
X67663Y-720384D01*
X248615Y-720384D02*
X248615Y-615622D01*
X248615Y-615622D02*
X239091Y-596574D01*
X239091Y-596574D02*
X220043Y-587050D01*
X220043Y-587050D02*
X181948Y-587050D01*
X181948Y-587050D02*
X162901Y-596574D01*
X248615Y-710860D02*
X229567Y-720384D01*
X229567Y-720384D02*
X181948Y-720384D01*
X181948Y-720384D02*
X162901Y-710860D01*
X162901Y-710860D02*
X153377Y-691812D01*
X153377Y-691812D02*
X153377Y-672765D01*
X153377Y-672765D02*
X162901Y-653717D01*
X162901Y-653717D02*
X181948Y-644193D01*
X181948Y-644193D02*
X229567Y-644193D01*
X229567Y-644193D02*
X248615Y-634670D01*
X343853Y-587050D02*
X343853Y-787050D01*
X343853Y-596574D02*
X362901Y-587050D01*
X362901Y-587050D02*
X400996Y-587050D01*
X400996Y-587050D02*
X420043Y-596574D01*
X420043Y-596574D02*
X429567Y-606098D01*
X429567Y-606098D02*
X439091Y-625146D01*
X439091Y-625146D02*
X439091Y-682289D01*
X439091Y-682289D02*
X429567Y-701336D01*
X429567Y-701336D02*
X420043Y-710860D01*
X420043Y-710860D02*
X400996Y-720384D01*
X400996Y-720384D02*
X362901Y-720384D01*
X362901Y-720384D02*
X343853Y-710860D01*
X524805Y-701336D02*
X534329Y-710860D01*
X534329Y-710860D02*
X524805Y-720384D01*
X524805Y-720384D02*
X515282Y-710860D01*
X515282Y-710860D02*
X524805Y-701336D01*
X524805Y-701336D02*
X524805Y-720384D01*
X524805Y-596574D02*
X534329Y-606098D01*
X534329Y-606098D02*
X524805Y-615622D01*
X524805Y-615622D02*
X515282Y-606098D01*
X515282Y-606098D02*
X524805Y-596574D01*
X524805Y-596574D02*
X524805Y-615622D01*
D12*
X-1157400Y-1023900D02*
X-1107400Y-1073900D01*
X-1107400Y-1023900D02*
X-1157400Y-1073900D01*
D11*
X-808528Y-940384D02*
X-789480Y-940384D01*
X-789480Y-940384D02*
X-770433Y-949908D01*
X-770433Y-949908D02*
X-760909Y-959431D01*
X-760909Y-959431D02*
X-751385Y-978479D01*
X-751385Y-978479D02*
X-741861Y-1016574D01*
X-741861Y-1016574D02*
X-741861Y-1064193D01*
X-741861Y-1064193D02*
X-751385Y-1102289D01*
X-751385Y-1102289D02*
X-760909Y-1121336D01*
X-760909Y-1121336D02*
X-770433Y-1130860D01*
X-770433Y-1130860D02*
X-789480Y-1140384D01*
X-789480Y-1140384D02*
X-808528Y-1140384D01*
X-808528Y-1140384D02*
X-827575Y-1130860D01*
X-827575Y-1130860D02*
X-837099Y-1121336D01*
X-837099Y-1121336D02*
X-846623Y-1102289D01*
X-846623Y-1102289D02*
X-856147Y-1064193D01*
X-856147Y-1064193D02*
X-856147Y-1016574D01*
X-856147Y-1016574D02*
X-846623Y-978479D01*
X-846623Y-978479D02*
X-837099Y-959431D01*
X-837099Y-959431D02*
X-827575Y-949908D01*
X-827575Y-949908D02*
X-808528Y-940384D01*
X-656147Y-1121336D02*
X-646623Y-1130860D01*
X-646623Y-1130860D02*
X-656147Y-1140384D01*
X-656147Y-1140384D02*
X-665671Y-1130860D01*
X-665671Y-1130860D02*
X-656147Y-1121336D01*
X-656147Y-1121336D02*
X-656147Y-1140384D01*
X-465671Y-940384D02*
X-560909Y-940384D01*
X-560909Y-940384D02*
X-570433Y-1035622D01*
X-570433Y-1035622D02*
X-560909Y-1026098D01*
X-560909Y-1026098D02*
X-541861Y-1016574D01*
X-541861Y-1016574D02*
X-494242Y-1016574D01*
X-494242Y-1016574D02*
X-475194Y-1026098D01*
X-475194Y-1026098D02*
X-465671Y-1035622D01*
X-465671Y-1035622D02*
X-456147Y-1054670D01*
X-456147Y-1054670D02*
X-456147Y-1102289D01*
X-456147Y-1102289D02*
X-465671Y-1121336D01*
X-465671Y-1121336D02*
X-475194Y-1130860D01*
X-475194Y-1130860D02*
X-494242Y-1140384D01*
X-494242Y-1140384D02*
X-541861Y-1140384D01*
X-541861Y-1140384D02*
X-560909Y-1130860D01*
X-560909Y-1130860D02*
X-570433Y-1121336D01*
X-332337Y-940384D02*
X-313290Y-940384D01*
X-313290Y-940384D02*
X-294242Y-949908D01*
X-294242Y-949908D02*
X-284718Y-959431D01*
X-284718Y-959431D02*
X-275195Y-978479D01*
X-275195Y-978479D02*
X-265671Y-1016574D01*
X-265671Y-1016574D02*
X-265671Y-1064193D01*
X-265671Y-1064193D02*
X-275195Y-1102289D01*
X-275195Y-1102289D02*
X-284718Y-1121336D01*
X-284718Y-1121336D02*
X-294242Y-1130860D01*
X-294242Y-1130860D02*
X-313290Y-1140384D01*
X-313290Y-1140384D02*
X-332337Y-1140384D01*
X-332337Y-1140384D02*
X-351385Y-1130860D01*
X-351385Y-1130860D02*
X-360909Y-1121336D01*
X-360909Y-1121336D02*
X-370433Y-1102289D01*
X-370433Y-1102289D02*
X-379956Y-1064193D01*
X-379956Y-1064193D02*
X-379956Y-1016574D01*
X-379956Y-1016574D02*
X-370433Y-978479D01*
X-370433Y-978479D02*
X-360909Y-959431D01*
X-360909Y-959431D02*
X-351385Y-949908D01*
X-351385Y-949908D02*
X-332337Y-940384D01*
X-141861Y-940384D02*
X-122813Y-940384D01*
X-122813Y-940384D02*
X-103766Y-949908D01*
X-103766Y-949908D02*
X-94242Y-959431D01*
X-94242Y-959431D02*
X-84718Y-978479D01*
X-84718Y-978479D02*
X-75195Y-1016574D01*
X-75195Y-1016574D02*
X-75195Y-1064193D01*
X-75195Y-1064193D02*
X-84718Y-1102289D01*
X-84718Y-1102289D02*
X-94242Y-1121336D01*
X-94242Y-1121336D02*
X-103766Y-1130860D01*
X-103766Y-1130860D02*
X-122813Y-1140384D01*
X-122813Y-1140384D02*
X-141861Y-1140384D01*
X-141861Y-1140384D02*
X-160909Y-1130860D01*
X-160909Y-1130860D02*
X-170433Y-1121336D01*
X-170433Y-1121336D02*
X-179956Y-1102289D01*
X-179956Y-1102289D02*
X-189480Y-1064193D01*
X-189480Y-1064193D02*
X-189480Y-1016574D01*
X-189480Y-1016574D02*
X-179956Y-978479D01*
X-179956Y-978479D02*
X-170433Y-959431D01*
X-170433Y-959431D02*
X-160909Y-949908D01*
X-160909Y-949908D02*
X-141861Y-940384D01*
X10520Y-1140384D02*
X10520Y-1007050D01*
X10520Y-1026098D02*
X20044Y-1016574D01*
X20044Y-1016574D02*
X39091Y-1007050D01*
X39091Y-1007050D02*
X67663Y-1007050D01*
X67663Y-1007050D02*
X86710Y-1016574D01*
X86710Y-1016574D02*
X96234Y-1035622D01*
X96234Y-1035622D02*
X96234Y-1140384D01*
X96234Y-1035622D02*
X105758Y-1016574D01*
X105758Y-1016574D02*
X124805Y-1007050D01*
X124805Y-1007050D02*
X153377Y-1007050D01*
X153377Y-1007050D02*
X172425Y-1016574D01*
X172425Y-1016574D02*
X181948Y-1035622D01*
X181948Y-1035622D02*
X181948Y-1140384D01*
X277186Y-1140384D02*
X277186Y-1007050D01*
X277186Y-1026098D02*
X286710Y-1016574D01*
X286710Y-1016574D02*
X305758Y-1007050D01*
X305758Y-1007050D02*
X334329Y-1007050D01*
X334329Y-1007050D02*
X353377Y-1016574D01*
X353377Y-1016574D02*
X362901Y-1035622D01*
X362901Y-1035622D02*
X362901Y-1140384D01*
X362901Y-1035622D02*
X372424Y-1016574D01*
X372424Y-1016574D02*
X391472Y-1007050D01*
X391472Y-1007050D02*
X420043Y-1007050D01*
X420043Y-1007050D02*
X439091Y-1016574D01*
X439091Y-1016574D02*
X448615Y-1035622D01*
X448615Y-1035622D02*
X448615Y-1140384D01*
X839091Y-930860D02*
X667663Y-1188003D01*
X1096234Y-940384D02*
X1115282Y-940384D01*
X1115282Y-940384D02*
X1134329Y-949908D01*
X1134329Y-949908D02*
X1143853Y-959431D01*
X1143853Y-959431D02*
X1153377Y-978479D01*
X1153377Y-978479D02*
X1162901Y-1016574D01*
X1162901Y-1016574D02*
X1162901Y-1064193D01*
X1162901Y-1064193D02*
X1153377Y-1102289D01*
X1153377Y-1102289D02*
X1143853Y-1121336D01*
X1143853Y-1121336D02*
X1134329Y-1130860D01*
X1134329Y-1130860D02*
X1115282Y-1140384D01*
X1115282Y-1140384D02*
X1096234Y-1140384D01*
X1096234Y-1140384D02*
X1077187Y-1130860D01*
X1077187Y-1130860D02*
X1067663Y-1121336D01*
X1067663Y-1121336D02*
X1058139Y-1102289D01*
X1058139Y-1102289D02*
X1048615Y-1064193D01*
X1048615Y-1064193D02*
X1048615Y-1016574D01*
X1048615Y-1016574D02*
X1058139Y-978479D01*
X1058139Y-978479D02*
X1067663Y-959431D01*
X1067663Y-959431D02*
X1077187Y-949908D01*
X1077187Y-949908D02*
X1096234Y-940384D01*
X1248615Y-1121336D02*
X1258139Y-1130860D01*
X1258139Y-1130860D02*
X1248615Y-1140384D01*
X1248615Y-1140384D02*
X1239091Y-1130860D01*
X1239091Y-1130860D02*
X1248615Y-1121336D01*
X1248615Y-1121336D02*
X1248615Y-1140384D01*
X1381948Y-940384D02*
X1400996Y-940384D01*
X1400996Y-940384D02*
X1420044Y-949908D01*
X1420044Y-949908D02*
X1429567Y-959431D01*
X1429567Y-959431D02*
X1439091Y-978479D01*
X1439091Y-978479D02*
X1448615Y-1016574D01*
X1448615Y-1016574D02*
X1448615Y-1064193D01*
X1448615Y-1064193D02*
X1439091Y-1102289D01*
X1439091Y-1102289D02*
X1429567Y-1121336D01*
X1429567Y-1121336D02*
X1420044Y-1130860D01*
X1420044Y-1130860D02*
X1400996Y-1140384D01*
X1400996Y-1140384D02*
X1381948Y-1140384D01*
X1381948Y-1140384D02*
X1362901Y-1130860D01*
X1362901Y-1130860D02*
X1353377Y-1121336D01*
X1353377Y-1121336D02*
X1343853Y-1102289D01*
X1343853Y-1102289D02*
X1334329Y-1064193D01*
X1334329Y-1064193D02*
X1334329Y-1016574D01*
X1334329Y-1016574D02*
X1343853Y-978479D01*
X1343853Y-978479D02*
X1353377Y-959431D01*
X1353377Y-959431D02*
X1362901Y-949908D01*
X1362901Y-949908D02*
X1381948Y-940384D01*
X1639091Y-1140384D02*
X1524806Y-1140384D01*
X1581948Y-1140384D02*
X1581948Y-940384D01*
X1581948Y-940384D02*
X1562901Y-968955D01*
X1562901Y-968955D02*
X1543853Y-988003D01*
X1543853Y-988003D02*
X1524806Y-997527D01*
X1734329Y-1140384D02*
X1772425Y-1140384D01*
X1772425Y-1140384D02*
X1791472Y-1130860D01*
X1791472Y-1130860D02*
X1800996Y-1121336D01*
X1800996Y-1121336D02*
X1820044Y-1092765D01*
X1820044Y-1092765D02*
X1829567Y-1054670D01*
X1829567Y-1054670D02*
X1829567Y-978479D01*
X1829567Y-978479D02*
X1820044Y-959431D01*
X1820044Y-959431D02*
X1810520Y-949908D01*
X1810520Y-949908D02*
X1791472Y-940384D01*
X1791472Y-940384D02*
X1753377Y-940384D01*
X1753377Y-940384D02*
X1734329Y-949908D01*
X1734329Y-949908D02*
X1724806Y-959431D01*
X1724806Y-959431D02*
X1715282Y-978479D01*
X1715282Y-978479D02*
X1715282Y-1026098D01*
X1715282Y-1026098D02*
X1724806Y-1045146D01*
X1724806Y-1045146D02*
X1734329Y-1054670D01*
X1734329Y-1054670D02*
X1753377Y-1064193D01*
X1753377Y-1064193D02*
X1791472Y-1064193D01*
X1791472Y-1064193D02*
X1810520Y-1054670D01*
X1810520Y-1054670D02*
X1820044Y-1045146D01*
X1820044Y-1045146D02*
X1829567Y-1026098D01*
X1896234Y-940384D02*
X2029567Y-940384D01*
X2029567Y-940384D02*
X1943853Y-1140384D01*
X2096234Y-940384D02*
X2096234Y-978479D01*
X2172425Y-940384D02*
X2172425Y-978479D01*
X2467663Y-1216574D02*
X2458139Y-1207050D01*
X2458139Y-1207050D02*
X2439091Y-1178479D01*
X2439091Y-1178479D02*
X2429568Y-1159431D01*
X2429568Y-1159431D02*
X2420044Y-1130860D01*
X2420044Y-1130860D02*
X2410520Y-1083241D01*
X2410520Y-1083241D02*
X2410520Y-1045146D01*
X2410520Y-1045146D02*
X2420044Y-997527D01*
X2420044Y-997527D02*
X2429568Y-968955D01*
X2429568Y-968955D02*
X2439091Y-949908D01*
X2439091Y-949908D02*
X2458139Y-921336D01*
X2458139Y-921336D02*
X2467663Y-911812D01*
X2572425Y-1026098D02*
X2553377Y-1016574D01*
X2553377Y-1016574D02*
X2543853Y-1007050D01*
X2543853Y-1007050D02*
X2534330Y-988003D01*
X2534330Y-988003D02*
X2534330Y-978479D01*
X2534330Y-978479D02*
X2543853Y-959431D01*
X2543853Y-959431D02*
X2553377Y-949908D01*
X2553377Y-949908D02*
X2572425Y-940384D01*
X2572425Y-940384D02*
X2610520Y-940384D01*
X2610520Y-940384D02*
X2629568Y-949908D01*
X2629568Y-949908D02*
X2639091Y-959431D01*
X2639091Y-959431D02*
X2648615Y-978479D01*
X2648615Y-978479D02*
X2648615Y-988003D01*
X2648615Y-988003D02*
X2639091Y-1007050D01*
X2639091Y-1007050D02*
X2629568Y-1016574D01*
X2629568Y-1016574D02*
X2610520Y-1026098D01*
X2610520Y-1026098D02*
X2572425Y-1026098D01*
X2572425Y-1026098D02*
X2553377Y-1035622D01*
X2553377Y-1035622D02*
X2543853Y-1045146D01*
X2543853Y-1045146D02*
X2534330Y-1064193D01*
X2534330Y-1064193D02*
X2534330Y-1102289D01*
X2534330Y-1102289D02*
X2543853Y-1121336D01*
X2543853Y-1121336D02*
X2553377Y-1130860D01*
X2553377Y-1130860D02*
X2572425Y-1140384D01*
X2572425Y-1140384D02*
X2610520Y-1140384D01*
X2610520Y-1140384D02*
X2629568Y-1130860D01*
X2629568Y-1130860D02*
X2639091Y-1121336D01*
X2639091Y-1121336D02*
X2648615Y-1102289D01*
X2648615Y-1102289D02*
X2648615Y-1064193D01*
X2648615Y-1064193D02*
X2639091Y-1045146D01*
X2639091Y-1045146D02*
X2629568Y-1035622D01*
X2629568Y-1035622D02*
X2610520Y-1026098D01*
X2886710Y-1140384D02*
X2886710Y-940384D01*
X2972425Y-1140384D02*
X2972425Y-1035622D01*
X2972425Y-1035622D02*
X2962901Y-1016574D01*
X2962901Y-1016574D02*
X2943853Y-1007050D01*
X2943853Y-1007050D02*
X2915282Y-1007050D01*
X2915282Y-1007050D02*
X2896234Y-1016574D01*
X2896234Y-1016574D02*
X2886710Y-1026098D01*
X3096234Y-1140384D02*
X3077187Y-1130860D01*
X3077187Y-1130860D02*
X3067663Y-1121336D01*
X3067663Y-1121336D02*
X3058139Y-1102289D01*
X3058139Y-1102289D02*
X3058139Y-1045146D01*
X3058139Y-1045146D02*
X3067663Y-1026098D01*
X3067663Y-1026098D02*
X3077187Y-1016574D01*
X3077187Y-1016574D02*
X3096234Y-1007050D01*
X3096234Y-1007050D02*
X3124806Y-1007050D01*
X3124806Y-1007050D02*
X3143853Y-1016574D01*
X3143853Y-1016574D02*
X3153377Y-1026098D01*
X3153377Y-1026098D02*
X3162901Y-1045146D01*
X3162901Y-1045146D02*
X3162901Y-1102289D01*
X3162901Y-1102289D02*
X3153377Y-1121336D01*
X3153377Y-1121336D02*
X3143853Y-1130860D01*
X3143853Y-1130860D02*
X3124806Y-1140384D01*
X3124806Y-1140384D02*
X3096234Y-1140384D01*
X3277187Y-1140384D02*
X3258139Y-1130860D01*
X3258139Y-1130860D02*
X3248615Y-1111812D01*
X3248615Y-1111812D02*
X3248615Y-940384D01*
X3429568Y-1130860D02*
X3410520Y-1140384D01*
X3410520Y-1140384D02*
X3372425Y-1140384D01*
X3372425Y-1140384D02*
X3353377Y-1130860D01*
X3353377Y-1130860D02*
X3343853Y-1111812D01*
X3343853Y-1111812D02*
X3343853Y-1035622D01*
X3343853Y-1035622D02*
X3353377Y-1016574D01*
X3353377Y-1016574D02*
X3372425Y-1007050D01*
X3372425Y-1007050D02*
X3410520Y-1007050D01*
X3410520Y-1007050D02*
X3429568Y-1016574D01*
X3429568Y-1016574D02*
X3439091Y-1035622D01*
X3439091Y-1035622D02*
X3439091Y-1054670D01*
X3439091Y-1054670D02*
X3343853Y-1073717D01*
X3515282Y-1130860D02*
X3534330Y-1140384D01*
X3534330Y-1140384D02*
X3572425Y-1140384D01*
X3572425Y-1140384D02*
X3591472Y-1130860D01*
X3591472Y-1130860D02*
X3600996Y-1111812D01*
X3600996Y-1111812D02*
X3600996Y-1102289D01*
X3600996Y-1102289D02*
X3591472Y-1083241D01*
X3591472Y-1083241D02*
X3572425Y-1073717D01*
X3572425Y-1073717D02*
X3543853Y-1073717D01*
X3543853Y-1073717D02*
X3524806Y-1064193D01*
X3524806Y-1064193D02*
X3515282Y-1045146D01*
X3515282Y-1045146D02*
X3515282Y-1035622D01*
X3515282Y-1035622D02*
X3524806Y-1016574D01*
X3524806Y-1016574D02*
X3543853Y-1007050D01*
X3543853Y-1007050D02*
X3572425Y-1007050D01*
X3572425Y-1007050D02*
X3591472Y-1016574D01*
X3667663Y-1216574D02*
X3677187Y-1207050D01*
X3677187Y-1207050D02*
X3696234Y-1178479D01*
X3696234Y-1178479D02*
X3705758Y-1159431D01*
X3705758Y-1159431D02*
X3715282Y-1130860D01*
X3715282Y-1130860D02*
X3724806Y-1083241D01*
X3724806Y-1083241D02*
X3724806Y-1045146D01*
X3724806Y-1045146D02*
X3715282Y-997527D01*
X3715282Y-997527D02*
X3705758Y-968955D01*
X3705758Y-968955D02*
X3696234Y-949908D01*
X3696234Y-949908D02*
X3677187Y-921336D01*
X3677187Y-921336D02*
X3667663Y-911812D01*
D13*
X-1107400Y-1312900D02*
G75*
G02*
X-1209000Y-1312900I-50800J0D01*
G01*
X-1209000Y-1312900D02*
G75*
G02*
X-1107400Y-1312900I50800J0D01*
G01*
D11*
X-741861Y-1404384D02*
X-856147Y-1404384D01*
X-799004Y-1404384D02*
X-799004Y-1204384D01*
X-799004Y-1204384D02*
X-818052Y-1232955D01*
X-818052Y-1232955D02*
X-837099Y-1252003D01*
X-837099Y-1252003D02*
X-856147Y-1261527D01*
X-656147Y-1385336D02*
X-646623Y-1394860D01*
X-646623Y-1394860D02*
X-656147Y-1404384D01*
X-656147Y-1404384D02*
X-665671Y-1394860D01*
X-665671Y-1394860D02*
X-656147Y-1385336D01*
X-656147Y-1385336D02*
X-656147Y-1404384D01*
X-522814Y-1204384D02*
X-503766Y-1204384D01*
X-503766Y-1204384D02*
X-484718Y-1213908D01*
X-484718Y-1213908D02*
X-475194Y-1223431D01*
X-475194Y-1223431D02*
X-465671Y-1242479D01*
X-465671Y-1242479D02*
X-456147Y-1280574D01*
X-456147Y-1280574D02*
X-456147Y-1328193D01*
X-456147Y-1328193D02*
X-465671Y-1366289D01*
X-465671Y-1366289D02*
X-475194Y-1385336D01*
X-475194Y-1385336D02*
X-484718Y-1394860D01*
X-484718Y-1394860D02*
X-503766Y-1404384D01*
X-503766Y-1404384D02*
X-522814Y-1404384D01*
X-522814Y-1404384D02*
X-541861Y-1394860D01*
X-541861Y-1394860D02*
X-551385Y-1385336D01*
X-551385Y-1385336D02*
X-560909Y-1366289D01*
X-560909Y-1366289D02*
X-570433Y-1328193D01*
X-570433Y-1328193D02*
X-570433Y-1280574D01*
X-570433Y-1280574D02*
X-560909Y-1242479D01*
X-560909Y-1242479D02*
X-551385Y-1223431D01*
X-551385Y-1223431D02*
X-541861Y-1213908D01*
X-541861Y-1213908D02*
X-522814Y-1204384D01*
X-265671Y-1404384D02*
X-379956Y-1404384D01*
X-322814Y-1404384D02*
X-322814Y-1204384D01*
X-322814Y-1204384D02*
X-341861Y-1232955D01*
X-341861Y-1232955D02*
X-360909Y-1252003D01*
X-360909Y-1252003D02*
X-379956Y-1261527D01*
X-94242Y-1204384D02*
X-132337Y-1204384D01*
X-132337Y-1204384D02*
X-151385Y-1213908D01*
X-151385Y-1213908D02*
X-160909Y-1223431D01*
X-160909Y-1223431D02*
X-179956Y-1252003D01*
X-179956Y-1252003D02*
X-189480Y-1290098D01*
X-189480Y-1290098D02*
X-189480Y-1366289D01*
X-189480Y-1366289D02*
X-179956Y-1385336D01*
X-179956Y-1385336D02*
X-170433Y-1394860D01*
X-170433Y-1394860D02*
X-151385Y-1404384D01*
X-151385Y-1404384D02*
X-113290Y-1404384D01*
X-113290Y-1404384D02*
X-94242Y-1394860D01*
X-94242Y-1394860D02*
X-84718Y-1385336D01*
X-84718Y-1385336D02*
X-75195Y-1366289D01*
X-75195Y-1366289D02*
X-75195Y-1318670D01*
X-75195Y-1318670D02*
X-84718Y-1299622D01*
X-84718Y-1299622D02*
X-94242Y-1290098D01*
X-94242Y-1290098D02*
X-113290Y-1280574D01*
X-113290Y-1280574D02*
X-151385Y-1280574D01*
X-151385Y-1280574D02*
X-170433Y-1290098D01*
X-170433Y-1290098D02*
X-179956Y-1299622D01*
X-179956Y-1299622D02*
X-189480Y-1318670D01*
X10520Y-1404384D02*
X10520Y-1271050D01*
X10520Y-1290098D02*
X20044Y-1280574D01*
X20044Y-1280574D02*
X39091Y-1271050D01*
X39091Y-1271050D02*
X67663Y-1271050D01*
X67663Y-1271050D02*
X86710Y-1280574D01*
X86710Y-1280574D02*
X96234Y-1299622D01*
X96234Y-1299622D02*
X96234Y-1404384D01*
X96234Y-1299622D02*
X105758Y-1280574D01*
X105758Y-1280574D02*
X124805Y-1271050D01*
X124805Y-1271050D02*
X153377Y-1271050D01*
X153377Y-1271050D02*
X172425Y-1280574D01*
X172425Y-1280574D02*
X181948Y-1299622D01*
X181948Y-1299622D02*
X181948Y-1404384D01*
X277186Y-1404384D02*
X277186Y-1271050D01*
X277186Y-1290098D02*
X286710Y-1280574D01*
X286710Y-1280574D02*
X305758Y-1271050D01*
X305758Y-1271050D02*
X334329Y-1271050D01*
X334329Y-1271050D02*
X353377Y-1280574D01*
X353377Y-1280574D02*
X362901Y-1299622D01*
X362901Y-1299622D02*
X362901Y-1404384D01*
X362901Y-1299622D02*
X372424Y-1280574D01*
X372424Y-1280574D02*
X391472Y-1271050D01*
X391472Y-1271050D02*
X420043Y-1271050D01*
X420043Y-1271050D02*
X439091Y-1280574D01*
X439091Y-1280574D02*
X448615Y-1299622D01*
X448615Y-1299622D02*
X448615Y-1404384D01*
X839091Y-1194860D02*
X667663Y-1452003D01*
X1096234Y-1204384D02*
X1115282Y-1204384D01*
X1115282Y-1204384D02*
X1134329Y-1213908D01*
X1134329Y-1213908D02*
X1143853Y-1223431D01*
X1143853Y-1223431D02*
X1153377Y-1242479D01*
X1153377Y-1242479D02*
X1162901Y-1280574D01*
X1162901Y-1280574D02*
X1162901Y-1328193D01*
X1162901Y-1328193D02*
X1153377Y-1366289D01*
X1153377Y-1366289D02*
X1143853Y-1385336D01*
X1143853Y-1385336D02*
X1134329Y-1394860D01*
X1134329Y-1394860D02*
X1115282Y-1404384D01*
X1115282Y-1404384D02*
X1096234Y-1404384D01*
X1096234Y-1404384D02*
X1077187Y-1394860D01*
X1077187Y-1394860D02*
X1067663Y-1385336D01*
X1067663Y-1385336D02*
X1058139Y-1366289D01*
X1058139Y-1366289D02*
X1048615Y-1328193D01*
X1048615Y-1328193D02*
X1048615Y-1280574D01*
X1048615Y-1280574D02*
X1058139Y-1242479D01*
X1058139Y-1242479D02*
X1067663Y-1223431D01*
X1067663Y-1223431D02*
X1077187Y-1213908D01*
X1077187Y-1213908D02*
X1096234Y-1204384D01*
X1248615Y-1385336D02*
X1258139Y-1394860D01*
X1258139Y-1394860D02*
X1248615Y-1404384D01*
X1248615Y-1404384D02*
X1239091Y-1394860D01*
X1239091Y-1394860D02*
X1248615Y-1385336D01*
X1248615Y-1385336D02*
X1248615Y-1404384D01*
X1381948Y-1204384D02*
X1400996Y-1204384D01*
X1400996Y-1204384D02*
X1420044Y-1213908D01*
X1420044Y-1213908D02*
X1429567Y-1223431D01*
X1429567Y-1223431D02*
X1439091Y-1242479D01*
X1439091Y-1242479D02*
X1448615Y-1280574D01*
X1448615Y-1280574D02*
X1448615Y-1328193D01*
X1448615Y-1328193D02*
X1439091Y-1366289D01*
X1439091Y-1366289D02*
X1429567Y-1385336D01*
X1429567Y-1385336D02*
X1420044Y-1394860D01*
X1420044Y-1394860D02*
X1400996Y-1404384D01*
X1400996Y-1404384D02*
X1381948Y-1404384D01*
X1381948Y-1404384D02*
X1362901Y-1394860D01*
X1362901Y-1394860D02*
X1353377Y-1385336D01*
X1353377Y-1385336D02*
X1343853Y-1366289D01*
X1343853Y-1366289D02*
X1334329Y-1328193D01*
X1334329Y-1328193D02*
X1334329Y-1280574D01*
X1334329Y-1280574D02*
X1343853Y-1242479D01*
X1343853Y-1242479D02*
X1353377Y-1223431D01*
X1353377Y-1223431D02*
X1362901Y-1213908D01*
X1362901Y-1213908D02*
X1381948Y-1204384D01*
X1620044Y-1271050D02*
X1620044Y-1404384D01*
X1572425Y-1194860D02*
X1524806Y-1337717D01*
X1524806Y-1337717D02*
X1648615Y-1337717D01*
X1762901Y-1204384D02*
X1781948Y-1204384D01*
X1781948Y-1204384D02*
X1800996Y-1213908D01*
X1800996Y-1213908D02*
X1810520Y-1223431D01*
X1810520Y-1223431D02*
X1820044Y-1242479D01*
X1820044Y-1242479D02*
X1829567Y-1280574D01*
X1829567Y-1280574D02*
X1829567Y-1328193D01*
X1829567Y-1328193D02*
X1820044Y-1366289D01*
X1820044Y-1366289D02*
X1810520Y-1385336D01*
X1810520Y-1385336D02*
X1800996Y-1394860D01*
X1800996Y-1394860D02*
X1781948Y-1404384D01*
X1781948Y-1404384D02*
X1762901Y-1404384D01*
X1762901Y-1404384D02*
X1743853Y-1394860D01*
X1743853Y-1394860D02*
X1734329Y-1385336D01*
X1734329Y-1385336D02*
X1724806Y-1366289D01*
X1724806Y-1366289D02*
X1715282Y-1328193D01*
X1715282Y-1328193D02*
X1715282Y-1280574D01*
X1715282Y-1280574D02*
X1724806Y-1242479D01*
X1724806Y-1242479D02*
X1734329Y-1223431D01*
X1734329Y-1223431D02*
X1743853Y-1213908D01*
X1743853Y-1213908D02*
X1762901Y-1204384D01*
X1953377Y-1204384D02*
X1972425Y-1204384D01*
X1972425Y-1204384D02*
X1991472Y-1213908D01*
X1991472Y-1213908D02*
X2000996Y-1223431D01*
X2000996Y-1223431D02*
X2010520Y-1242479D01*
X2010520Y-1242479D02*
X2020044Y-1280574D01*
X2020044Y-1280574D02*
X2020044Y-1328193D01*
X2020044Y-1328193D02*
X2010520Y-1366289D01*
X2010520Y-1366289D02*
X2000996Y-1385336D01*
X2000996Y-1385336D02*
X1991472Y-1394860D01*
X1991472Y-1394860D02*
X1972425Y-1404384D01*
X1972425Y-1404384D02*
X1953377Y-1404384D01*
X1953377Y-1404384D02*
X1934329Y-1394860D01*
X1934329Y-1394860D02*
X1924806Y-1385336D01*
X1924806Y-1385336D02*
X1915282Y-1366289D01*
X1915282Y-1366289D02*
X1905758Y-1328193D01*
X1905758Y-1328193D02*
X1905758Y-1280574D01*
X1905758Y-1280574D02*
X1915282Y-1242479D01*
X1915282Y-1242479D02*
X1924806Y-1223431D01*
X1924806Y-1223431D02*
X1934329Y-1213908D01*
X1934329Y-1213908D02*
X1953377Y-1204384D01*
X2096234Y-1204384D02*
X2096234Y-1242479D01*
X2172425Y-1204384D02*
X2172425Y-1242479D01*
X2467663Y-1480574D02*
X2458139Y-1471050D01*
X2458139Y-1471050D02*
X2439091Y-1442479D01*
X2439091Y-1442479D02*
X2429568Y-1423431D01*
X2429568Y-1423431D02*
X2420044Y-1394860D01*
X2420044Y-1394860D02*
X2410520Y-1347241D01*
X2410520Y-1347241D02*
X2410520Y-1309146D01*
X2410520Y-1309146D02*
X2420044Y-1261527D01*
X2420044Y-1261527D02*
X2429568Y-1232955D01*
X2429568Y-1232955D02*
X2439091Y-1213908D01*
X2439091Y-1213908D02*
X2458139Y-1185336D01*
X2458139Y-1185336D02*
X2467663Y-1175812D01*
X2648615Y-1404384D02*
X2534330Y-1404384D01*
X2591472Y-1404384D02*
X2591472Y-1204384D01*
X2591472Y-1204384D02*
X2572425Y-1232955D01*
X2572425Y-1232955D02*
X2553377Y-1252003D01*
X2553377Y-1252003D02*
X2534330Y-1261527D01*
X2724806Y-1223431D02*
X2734330Y-1213908D01*
X2734330Y-1213908D02*
X2753377Y-1204384D01*
X2753377Y-1204384D02*
X2800996Y-1204384D01*
X2800996Y-1204384D02*
X2820044Y-1213908D01*
X2820044Y-1213908D02*
X2829568Y-1223431D01*
X2829568Y-1223431D02*
X2839091Y-1242479D01*
X2839091Y-1242479D02*
X2839091Y-1261527D01*
X2839091Y-1261527D02*
X2829568Y-1290098D01*
X2829568Y-1290098D02*
X2715282Y-1404384D01*
X2715282Y-1404384D02*
X2839091Y-1404384D01*
X3077187Y-1404384D02*
X3077187Y-1204384D01*
X3162901Y-1404384D02*
X3162901Y-1299622D01*
X3162901Y-1299622D02*
X3153377Y-1280574D01*
X3153377Y-1280574D02*
X3134330Y-1271050D01*
X3134330Y-1271050D02*
X3105758Y-1271050D01*
X3105758Y-1271050D02*
X3086710Y-1280574D01*
X3086710Y-1280574D02*
X3077187Y-1290098D01*
X3286710Y-1404384D02*
X3267663Y-1394860D01*
X3267663Y-1394860D02*
X3258139Y-1385336D01*
X3258139Y-1385336D02*
X3248615Y-1366289D01*
X3248615Y-1366289D02*
X3248615Y-1309146D01*
X3248615Y-1309146D02*
X3258139Y-1290098D01*
X3258139Y-1290098D02*
X3267663Y-1280574D01*
X3267663Y-1280574D02*
X3286710Y-1271050D01*
X3286710Y-1271050D02*
X3315282Y-1271050D01*
X3315282Y-1271050D02*
X3334330Y-1280574D01*
X3334330Y-1280574D02*
X3343853Y-1290098D01*
X3343853Y-1290098D02*
X3353377Y-1309146D01*
X3353377Y-1309146D02*
X3353377Y-1366289D01*
X3353377Y-1366289D02*
X3343853Y-1385336D01*
X3343853Y-1385336D02*
X3334330Y-1394860D01*
X3334330Y-1394860D02*
X3315282Y-1404384D01*
X3315282Y-1404384D02*
X3286710Y-1404384D01*
X3467663Y-1404384D02*
X3448615Y-1394860D01*
X3448615Y-1394860D02*
X3439091Y-1375812D01*
X3439091Y-1375812D02*
X3439091Y-1204384D01*
X3620044Y-1394860D02*
X3600996Y-1404384D01*
X3600996Y-1404384D02*
X3562901Y-1404384D01*
X3562901Y-1404384D02*
X3543853Y-1394860D01*
X3543853Y-1394860D02*
X3534330Y-1375812D01*
X3534330Y-1375812D02*
X3534330Y-1299622D01*
X3534330Y-1299622D02*
X3543853Y-1280574D01*
X3543853Y-1280574D02*
X3562901Y-1271050D01*
X3562901Y-1271050D02*
X3600996Y-1271050D01*
X3600996Y-1271050D02*
X3620044Y-1280574D01*
X3620044Y-1280574D02*
X3629568Y-1299622D01*
X3629568Y-1299622D02*
X3629568Y-1318670D01*
X3629568Y-1318670D02*
X3534330Y-1337717D01*
X3705758Y-1394860D02*
X3724806Y-1404384D01*
X3724806Y-1404384D02*
X3762901Y-1404384D01*
X3762901Y-1404384D02*
X3781949Y-1394860D01*
X3781949Y-1394860D02*
X3791472Y-1375812D01*
X3791472Y-1375812D02*
X3791472Y-1366289D01*
X3791472Y-1366289D02*
X3781949Y-1347241D01*
X3781949Y-1347241D02*
X3762901Y-1337717D01*
X3762901Y-1337717D02*
X3734330Y-1337717D01*
X3734330Y-1337717D02*
X3715282Y-1328193D01*
X3715282Y-1328193D02*
X3705758Y-1309146D01*
X3705758Y-1309146D02*
X3705758Y-1299622D01*
X3705758Y-1299622D02*
X3715282Y-1280574D01*
X3715282Y-1280574D02*
X3734330Y-1271050D01*
X3734330Y-1271050D02*
X3762901Y-1271050D01*
X3762901Y-1271050D02*
X3781949Y-1280574D01*
X3858139Y-1480574D02*
X3867663Y-1471050D01*
X3867663Y-1471050D02*
X3886711Y-1442479D01*
X3886711Y-1442479D02*
X3896234Y-1423431D01*
X3896234Y-1423431D02*
X3905758Y-1394860D01*
X3905758Y-1394860D02*
X3915282Y-1347241D01*
X3915282Y-1347241D02*
X3915282Y-1309146D01*
X3915282Y-1309146D02*
X3905758Y-1261527D01*
X3905758Y-1261527D02*
X3896234Y-1232955D01*
X3896234Y-1232955D02*
X3886711Y-1213908D01*
X3886711Y-1213908D02*
X3867663Y-1185336D01*
X3867663Y-1185336D02*
X3858139Y-1175812D01*
X-1207400Y-1476900D02*
X-1207400Y-1676900D01*
X-1307400Y-1576900D02*
X-1107400Y-1576900D01*
X-856147Y-1487431D02*
X-846623Y-1477908D01*
X-846623Y-1477908D02*
X-827575Y-1468384D01*
X-827575Y-1468384D02*
X-779956Y-1468384D01*
X-779956Y-1468384D02*
X-760909Y-1477908D01*
X-760909Y-1477908D02*
X-751385Y-1487431D01*
X-751385Y-1487431D02*
X-741861Y-1506479D01*
X-741861Y-1506479D02*
X-741861Y-1525527D01*
X-741861Y-1525527D02*
X-751385Y-1554098D01*
X-751385Y-1554098D02*
X-865671Y-1668384D01*
X-865671Y-1668384D02*
X-741861Y-1668384D01*
X-656147Y-1649336D02*
X-646623Y-1658860D01*
X-646623Y-1658860D02*
X-656147Y-1668384D01*
X-656147Y-1668384D02*
X-665671Y-1658860D01*
X-665671Y-1658860D02*
X-656147Y-1649336D01*
X-656147Y-1649336D02*
X-656147Y-1668384D01*
X-465671Y-1468384D02*
X-560909Y-1468384D01*
X-560909Y-1468384D02*
X-570433Y-1563622D01*
X-570433Y-1563622D02*
X-560909Y-1554098D01*
X-560909Y-1554098D02*
X-541861Y-1544574D01*
X-541861Y-1544574D02*
X-494242Y-1544574D01*
X-494242Y-1544574D02*
X-475194Y-1554098D01*
X-475194Y-1554098D02*
X-465671Y-1563622D01*
X-465671Y-1563622D02*
X-456147Y-1582669D01*
X-456147Y-1582669D02*
X-456147Y-1630288D01*
X-456147Y-1630288D02*
X-465671Y-1649336D01*
X-465671Y-1649336D02*
X-475194Y-1658860D01*
X-475194Y-1658860D02*
X-494242Y-1668384D01*
X-494242Y-1668384D02*
X-541861Y-1668384D01*
X-541861Y-1668384D02*
X-560909Y-1658860D01*
X-560909Y-1658860D02*
X-570433Y-1649336D01*
X-332337Y-1468384D02*
X-313290Y-1468384D01*
X-313290Y-1468384D02*
X-294242Y-1477908D01*
X-294242Y-1477908D02*
X-284718Y-1487431D01*
X-284718Y-1487431D02*
X-275195Y-1506479D01*
X-275195Y-1506479D02*
X-265671Y-1544574D01*
X-265671Y-1544574D02*
X-265671Y-1592193D01*
X-265671Y-1592193D02*
X-275195Y-1630288D01*
X-275195Y-1630288D02*
X-284718Y-1649336D01*
X-284718Y-1649336D02*
X-294242Y-1658860D01*
X-294242Y-1658860D02*
X-313290Y-1668384D01*
X-313290Y-1668384D02*
X-332337Y-1668384D01*
X-332337Y-1668384D02*
X-351385Y-1658860D01*
X-351385Y-1658860D02*
X-360909Y-1649336D01*
X-360909Y-1649336D02*
X-370433Y-1630288D01*
X-370433Y-1630288D02*
X-379956Y-1592193D01*
X-379956Y-1592193D02*
X-379956Y-1544574D01*
X-379956Y-1544574D02*
X-370433Y-1506479D01*
X-370433Y-1506479D02*
X-360909Y-1487431D01*
X-360909Y-1487431D02*
X-351385Y-1477908D01*
X-351385Y-1477908D02*
X-332337Y-1468384D01*
X-141861Y-1468384D02*
X-122813Y-1468384D01*
X-122813Y-1468384D02*
X-103766Y-1477908D01*
X-103766Y-1477908D02*
X-94242Y-1487431D01*
X-94242Y-1487431D02*
X-84718Y-1506479D01*
X-84718Y-1506479D02*
X-75195Y-1544574D01*
X-75195Y-1544574D02*
X-75195Y-1592193D01*
X-75195Y-1592193D02*
X-84718Y-1630288D01*
X-84718Y-1630288D02*
X-94242Y-1649336D01*
X-94242Y-1649336D02*
X-103766Y-1658860D01*
X-103766Y-1658860D02*
X-122813Y-1668384D01*
X-122813Y-1668384D02*
X-141861Y-1668384D01*
X-141861Y-1668384D02*
X-160909Y-1658860D01*
X-160909Y-1658860D02*
X-170433Y-1649336D01*
X-170433Y-1649336D02*
X-179956Y-1630288D01*
X-179956Y-1630288D02*
X-189480Y-1592193D01*
X-189480Y-1592193D02*
X-189480Y-1544574D01*
X-189480Y-1544574D02*
X-179956Y-1506479D01*
X-179956Y-1506479D02*
X-170433Y-1487431D01*
X-170433Y-1487431D02*
X-160909Y-1477908D01*
X-160909Y-1477908D02*
X-141861Y-1468384D01*
X10520Y-1668384D02*
X10520Y-1535050D01*
X10520Y-1554098D02*
X20044Y-1544574D01*
X20044Y-1544574D02*
X39091Y-1535050D01*
X39091Y-1535050D02*
X67663Y-1535050D01*
X67663Y-1535050D02*
X86710Y-1544574D01*
X86710Y-1544574D02*
X96234Y-1563622D01*
X96234Y-1563622D02*
X96234Y-1668384D01*
X96234Y-1563622D02*
X105758Y-1544574D01*
X105758Y-1544574D02*
X124805Y-1535050D01*
X124805Y-1535050D02*
X153377Y-1535050D01*
X153377Y-1535050D02*
X172425Y-1544574D01*
X172425Y-1544574D02*
X181948Y-1563622D01*
X181948Y-1563622D02*
X181948Y-1668384D01*
X277186Y-1668384D02*
X277186Y-1535050D01*
X277186Y-1554098D02*
X286710Y-1544574D01*
X286710Y-1544574D02*
X305758Y-1535050D01*
X305758Y-1535050D02*
X334329Y-1535050D01*
X334329Y-1535050D02*
X353377Y-1544574D01*
X353377Y-1544574D02*
X362901Y-1563622D01*
X362901Y-1563622D02*
X362901Y-1668384D01*
X362901Y-1563622D02*
X372424Y-1544574D01*
X372424Y-1544574D02*
X391472Y-1535050D01*
X391472Y-1535050D02*
X420043Y-1535050D01*
X420043Y-1535050D02*
X439091Y-1544574D01*
X439091Y-1544574D02*
X448615Y-1563622D01*
X448615Y-1563622D02*
X448615Y-1668384D01*
X839091Y-1458860D02*
X667663Y-1716003D01*
X1096234Y-1468384D02*
X1115282Y-1468384D01*
X1115282Y-1468384D02*
X1134329Y-1477908D01*
X1134329Y-1477908D02*
X1143853Y-1487431D01*
X1143853Y-1487431D02*
X1153377Y-1506479D01*
X1153377Y-1506479D02*
X1162901Y-1544574D01*
X1162901Y-1544574D02*
X1162901Y-1592193D01*
X1162901Y-1592193D02*
X1153377Y-1630288D01*
X1153377Y-1630288D02*
X1143853Y-1649336D01*
X1143853Y-1649336D02*
X1134329Y-1658860D01*
X1134329Y-1658860D02*
X1115282Y-1668384D01*
X1115282Y-1668384D02*
X1096234Y-1668384D01*
X1096234Y-1668384D02*
X1077187Y-1658860D01*
X1077187Y-1658860D02*
X1067663Y-1649336D01*
X1067663Y-1649336D02*
X1058139Y-1630288D01*
X1058139Y-1630288D02*
X1048615Y-1592193D01*
X1048615Y-1592193D02*
X1048615Y-1544574D01*
X1048615Y-1544574D02*
X1058139Y-1506479D01*
X1058139Y-1506479D02*
X1067663Y-1487431D01*
X1067663Y-1487431D02*
X1077187Y-1477908D01*
X1077187Y-1477908D02*
X1096234Y-1468384D01*
X1248615Y-1649336D02*
X1258139Y-1658860D01*
X1258139Y-1658860D02*
X1248615Y-1668384D01*
X1248615Y-1668384D02*
X1239091Y-1658860D01*
X1239091Y-1658860D02*
X1248615Y-1649336D01*
X1248615Y-1649336D02*
X1248615Y-1668384D01*
X1381948Y-1468384D02*
X1400996Y-1468384D01*
X1400996Y-1468384D02*
X1420044Y-1477908D01*
X1420044Y-1477908D02*
X1429567Y-1487431D01*
X1429567Y-1487431D02*
X1439091Y-1506479D01*
X1439091Y-1506479D02*
X1448615Y-1544574D01*
X1448615Y-1544574D02*
X1448615Y-1592193D01*
X1448615Y-1592193D02*
X1439091Y-1630288D01*
X1439091Y-1630288D02*
X1429567Y-1649336D01*
X1429567Y-1649336D02*
X1420044Y-1658860D01*
X1420044Y-1658860D02*
X1400996Y-1668384D01*
X1400996Y-1668384D02*
X1381948Y-1668384D01*
X1381948Y-1668384D02*
X1362901Y-1658860D01*
X1362901Y-1658860D02*
X1353377Y-1649336D01*
X1353377Y-1649336D02*
X1343853Y-1630288D01*
X1343853Y-1630288D02*
X1334329Y-1592193D01*
X1334329Y-1592193D02*
X1334329Y-1544574D01*
X1334329Y-1544574D02*
X1343853Y-1506479D01*
X1343853Y-1506479D02*
X1353377Y-1487431D01*
X1353377Y-1487431D02*
X1362901Y-1477908D01*
X1362901Y-1477908D02*
X1381948Y-1468384D01*
X1543853Y-1668384D02*
X1581948Y-1668384D01*
X1581948Y-1668384D02*
X1600996Y-1658860D01*
X1600996Y-1658860D02*
X1610520Y-1649336D01*
X1610520Y-1649336D02*
X1629567Y-1620765D01*
X1629567Y-1620765D02*
X1639091Y-1582669D01*
X1639091Y-1582669D02*
X1639091Y-1506479D01*
X1639091Y-1506479D02*
X1629567Y-1487431D01*
X1629567Y-1487431D02*
X1620044Y-1477908D01*
X1620044Y-1477908D02*
X1600996Y-1468384D01*
X1600996Y-1468384D02*
X1562901Y-1468384D01*
X1562901Y-1468384D02*
X1543853Y-1477908D01*
X1543853Y-1477908D02*
X1534329Y-1487431D01*
X1534329Y-1487431D02*
X1524806Y-1506479D01*
X1524806Y-1506479D02*
X1524806Y-1554098D01*
X1524806Y-1554098D02*
X1534329Y-1573146D01*
X1534329Y-1573146D02*
X1543853Y-1582669D01*
X1543853Y-1582669D02*
X1562901Y-1592193D01*
X1562901Y-1592193D02*
X1600996Y-1592193D01*
X1600996Y-1592193D02*
X1620044Y-1582669D01*
X1620044Y-1582669D02*
X1629567Y-1573146D01*
X1629567Y-1573146D02*
X1639091Y-1554098D01*
X1753377Y-1554098D02*
X1734329Y-1544574D01*
X1734329Y-1544574D02*
X1724806Y-1535050D01*
X1724806Y-1535050D02*
X1715282Y-1516003D01*
X1715282Y-1516003D02*
X1715282Y-1506479D01*
X1715282Y-1506479D02*
X1724806Y-1487431D01*
X1724806Y-1487431D02*
X1734329Y-1477908D01*
X1734329Y-1477908D02*
X1753377Y-1468384D01*
X1753377Y-1468384D02*
X1791472Y-1468384D01*
X1791472Y-1468384D02*
X1810520Y-1477908D01*
X1810520Y-1477908D02*
X1820044Y-1487431D01*
X1820044Y-1487431D02*
X1829567Y-1506479D01*
X1829567Y-1506479D02*
X1829567Y-1516003D01*
X1829567Y-1516003D02*
X1820044Y-1535050D01*
X1820044Y-1535050D02*
X1810520Y-1544574D01*
X1810520Y-1544574D02*
X1791472Y-1554098D01*
X1791472Y-1554098D02*
X1753377Y-1554098D01*
X1753377Y-1554098D02*
X1734329Y-1563622D01*
X1734329Y-1563622D02*
X1724806Y-1573146D01*
X1724806Y-1573146D02*
X1715282Y-1592193D01*
X1715282Y-1592193D02*
X1715282Y-1630288D01*
X1715282Y-1630288D02*
X1724806Y-1649336D01*
X1724806Y-1649336D02*
X1734329Y-1658860D01*
X1734329Y-1658860D02*
X1753377Y-1668384D01*
X1753377Y-1668384D02*
X1791472Y-1668384D01*
X1791472Y-1668384D02*
X1810520Y-1658860D01*
X1810520Y-1658860D02*
X1820044Y-1649336D01*
X1820044Y-1649336D02*
X1829567Y-1630288D01*
X1829567Y-1630288D02*
X1829567Y-1592193D01*
X1829567Y-1592193D02*
X1820044Y-1573146D01*
X1820044Y-1573146D02*
X1810520Y-1563622D01*
X1810520Y-1563622D02*
X1791472Y-1554098D01*
X2000996Y-1535050D02*
X2000996Y-1668384D01*
X1953377Y-1458860D02*
X1905758Y-1601717D01*
X1905758Y-1601717D02*
X2029567Y-1601717D01*
X2096234Y-1468384D02*
X2096234Y-1506479D01*
X2172425Y-1468384D02*
X2172425Y-1506479D01*
X2467663Y-1744574D02*
X2458139Y-1735050D01*
X2458139Y-1735050D02*
X2439091Y-1706479D01*
X2439091Y-1706479D02*
X2429568Y-1687431D01*
X2429568Y-1687431D02*
X2420044Y-1658860D01*
X2420044Y-1658860D02*
X2410520Y-1611241D01*
X2410520Y-1611241D02*
X2410520Y-1573146D01*
X2410520Y-1573146D02*
X2420044Y-1525527D01*
X2420044Y-1525527D02*
X2429568Y-1496955D01*
X2429568Y-1496955D02*
X2439091Y-1477908D01*
X2439091Y-1477908D02*
X2458139Y-1449336D01*
X2458139Y-1449336D02*
X2467663Y-1439812D01*
X2629568Y-1535050D02*
X2629568Y-1668384D01*
X2581949Y-1458860D02*
X2534330Y-1601717D01*
X2534330Y-1601717D02*
X2658139Y-1601717D01*
X2886710Y-1668384D02*
X2886710Y-1468384D01*
X2972425Y-1668384D02*
X2972425Y-1563622D01*
X2972425Y-1563622D02*
X2962901Y-1544574D01*
X2962901Y-1544574D02*
X2943853Y-1535050D01*
X2943853Y-1535050D02*
X2915282Y-1535050D01*
X2915282Y-1535050D02*
X2896234Y-1544574D01*
X2896234Y-1544574D02*
X2886710Y-1554098D01*
X3096234Y-1668384D02*
X3077187Y-1658860D01*
X3077187Y-1658860D02*
X3067663Y-1649336D01*
X3067663Y-1649336D02*
X3058139Y-1630288D01*
X3058139Y-1630288D02*
X3058139Y-1573146D01*
X3058139Y-1573146D02*
X3067663Y-1554098D01*
X3067663Y-1554098D02*
X3077187Y-1544574D01*
X3077187Y-1544574D02*
X3096234Y-1535050D01*
X3096234Y-1535050D02*
X3124806Y-1535050D01*
X3124806Y-1535050D02*
X3143853Y-1544574D01*
X3143853Y-1544574D02*
X3153377Y-1554098D01*
X3153377Y-1554098D02*
X3162901Y-1573146D01*
X3162901Y-1573146D02*
X3162901Y-1630288D01*
X3162901Y-1630288D02*
X3153377Y-1649336D01*
X3153377Y-1649336D02*
X3143853Y-1658860D01*
X3143853Y-1658860D02*
X3124806Y-1668384D01*
X3124806Y-1668384D02*
X3096234Y-1668384D01*
X3277187Y-1668384D02*
X3258139Y-1658860D01*
X3258139Y-1658860D02*
X3248615Y-1639812D01*
X3248615Y-1639812D02*
X3248615Y-1468384D01*
X3429568Y-1658860D02*
X3410520Y-1668384D01*
X3410520Y-1668384D02*
X3372425Y-1668384D01*
X3372425Y-1668384D02*
X3353377Y-1658860D01*
X3353377Y-1658860D02*
X3343853Y-1639812D01*
X3343853Y-1639812D02*
X3343853Y-1563622D01*
X3343853Y-1563622D02*
X3353377Y-1544574D01*
X3353377Y-1544574D02*
X3372425Y-1535050D01*
X3372425Y-1535050D02*
X3410520Y-1535050D01*
X3410520Y-1535050D02*
X3429568Y-1544574D01*
X3429568Y-1544574D02*
X3439091Y-1563622D01*
X3439091Y-1563622D02*
X3439091Y-1582669D01*
X3439091Y-1582669D02*
X3343853Y-1601717D01*
X3515282Y-1658860D02*
X3534330Y-1668384D01*
X3534330Y-1668384D02*
X3572425Y-1668384D01*
X3572425Y-1668384D02*
X3591472Y-1658860D01*
X3591472Y-1658860D02*
X3600996Y-1639812D01*
X3600996Y-1639812D02*
X3600996Y-1630288D01*
X3600996Y-1630288D02*
X3591472Y-1611241D01*
X3591472Y-1611241D02*
X3572425Y-1601717D01*
X3572425Y-1601717D02*
X3543853Y-1601717D01*
X3543853Y-1601717D02*
X3524806Y-1592193D01*
X3524806Y-1592193D02*
X3515282Y-1573146D01*
X3515282Y-1573146D02*
X3515282Y-1563622D01*
X3515282Y-1563622D02*
X3524806Y-1544574D01*
X3524806Y-1544574D02*
X3543853Y-1535050D01*
X3543853Y-1535050D02*
X3572425Y-1535050D01*
X3572425Y-1535050D02*
X3591472Y-1544574D01*
X3667663Y-1744574D02*
X3677187Y-1735050D01*
X3677187Y-1735050D02*
X3696234Y-1706479D01*
X3696234Y-1706479D02*
X3705758Y-1687431D01*
X3705758Y-1687431D02*
X3715282Y-1658860D01*
X3715282Y-1658860D02*
X3724806Y-1611241D01*
X3724806Y-1611241D02*
X3724806Y-1573146D01*
X3724806Y-1573146D02*
X3715282Y-1525527D01*
X3715282Y-1525527D02*
X3705758Y-1496955D01*
X3705758Y-1496955D02*
X3696234Y-1477908D01*
X3696234Y-1477908D02*
X3677187Y-1449336D01*
X3677187Y-1449336D02*
X3667663Y-1439812D01*
M02*
