M48
; DRILL file KiCad 10.99.0-3671-gbe90a7e200 date 2026-09-08T00:28:50
; FORMAT={-:-/ absolute / metric / decimal}
; #@! TF.CreationDate,2026-09-08T00:28:50+01:00
; #@! TF.GenerationSoftware,Kicad,Pcbnew,10.99.0-3671-gbe90a7e200
; #@! TF.FileFunction,Plated,1,4,PTH
FMAT,2
METRIC
; #@! TA.AperFunction,Plated,PTH,ViaDrill
T1C0.300
; #@! TA.AperFunction,Plated,PTH,ComponentDrill
T2C0.600
; #@! TA.AperFunction,Plated,PTH,ComponentDrill
T3C1.016
%
G90
G05
T1
X123.901Y-102.551
X124.536Y-90.168
X125.171Y-105.408
X125.806Y-90.168
X126.758Y-90.168
X126.758Y-96.201
X126.758Y-96.995
X126.758Y-100.328
X126.917Y-95.407
X126.97Y-98.107
X127.031Y-99.018
X127.393Y-103.503
X127.711Y-90.486
X127.711Y-92.391
X127.711Y-95.248
X128.981Y-86.358
X129.298Y-91.756
X129.298Y-103.503
X130.251Y-91.756
X130.886Y-93.978
X130.886Y-95.248
X130.886Y-101.916
X131.203Y-100.963
X131.838Y-95.883
X131.838Y-97.585
X132.156Y-102.551
X132.474Y-89.533
X132.791Y-93.026
X132.791Y-94.296
X132.791Y-95.685
X133.108Y-99.376
X133.743Y-88.263
X133.743Y-97.153
X134.061Y-98.741
X134.061Y-101.916
X135.013Y-89.851
X135.013Y-94.092
X135.966Y-100.011
X135.967Y-93.204
X136.515Y-97.675
X136.695Y-89.692
X138.246Y-88.263
X138.506Y-101.916
X138.903Y-93.662
X139.062Y-94.614
X139.141Y-96.201
X139.22Y-93.024
X139.458Y-89.533
X139.458Y-98.106
X140.275Y-92.422
X140.915Y-96.823
X141.046Y-94.614
X141.046Y-104.456
X141.363Y-101.916
X142.566Y-94.306
X142.57Y-89.533
X143.903Y-89.851
X143.903Y-95.874
X143.903Y-101.916
X144.221Y-94.614
X144.856Y-86.041
X144.856Y-92.709
X145.011Y-97.849
X146.116Y-98.331
X146.126Y-94.614
X146.24Y-97.63
X146.608Y-99.49
X147.166Y-96.606
X147.713Y-102.233
X148.031Y-90.486
X148.031Y-96.836
T3
X129.616Y-106.996
X129.616Y-109.536
X132.156Y-106.996
X132.156Y-109.536
X134.696Y-106.996
X134.696Y-109.536
X137.236Y-106.996
X137.236Y-109.536
X139.776Y-106.996
X139.776Y-109.536
X142.316Y-106.996
X142.316Y-109.536
T2
G00X131.648Y-86.951
M15
G01X131.648Y-86.351
M16
G05
G00X131.648Y-91.381
M15
G01X131.648Y-90.281
M16
G05
G00X140.284Y-86.951
M15
G01X140.284Y-86.351
M16
G05
G00X140.284Y-91.381
M15
G01X140.284Y-90.281
M16
G05
M30
