M48
; DRILL file KiCad 10.99.0-3671-gbe90a7e200 date 2026-09-09T22:53:20
; FORMAT={-:-/ absolute / metric / decimal}
; #@! TF.CreationDate,2026-09-09T22:53:20+01:00
; #@! TF.GenerationSoftware,Kicad,Pcbnew,10.99.0-3671-gbe90a7e200
; #@! TF.FileFunction,Plated,1,2,PTH
FMAT,2
METRIC
; #@! TA.AperFunction,Plated,PTH,ViaDrill
T1C0.400
; #@! TA.AperFunction,Plated,PTH,ComponentDrill
T2C0.400
; #@! TA.AperFunction,Plated,PTH,ViaDrill
T3C0.500
; #@! TA.AperFunction,Plated,PTH,ComponentDrill
T4C0.600
; #@! TA.AperFunction,Plated,PTH,ComponentDrill
T5C0.700
; #@! TA.AperFunction,Plated,PTH,ComponentDrill
T6C0.900
; #@! TA.AperFunction,Plated,PTH,ComponentDrill
T7C3.000
%
G90
G05
T1
X1.067Y15.331
X3.5Y64.9
X3.6Y62.1
X3.7Y38.3
X5.4Y67.7
X5.886Y21.15
X6.15Y54.5
X6.4Y70.5
X6.9Y55.6
X6.909Y35.25
X7.146Y31.946
X7.5Y45.85
X8.5Y56.6
X9.45Y38.65
X10.65Y67.35
X12.099Y31.692
X12.376Y28.65
X12.9Y43.75
X13.0Y52.75
X13.0Y51.5
X13.171Y38.55
X13.967Y22.331
X13.967Y19.931
X14.5Y43.75
X16.0Y55.75
X16.0Y54.5
X17.144Y24.911
X17.196Y31.25
X17.5Y59.4
X17.5Y54.5
X17.5Y52.75
X17.5Y51.5
X18.0Y55.7
X18.4Y32.1
X18.4Y25.75
X18.523Y37.0
X19.05Y56.2
X19.167Y11.131
X19.167Y8.331
X19.167Y4.531
X19.25Y67.95
X19.482Y31.25
X19.684Y28.573
X19.9Y64.35
X20.7Y25.8
X20.9Y66.5
X21.15Y57.85
X21.25Y42.0
X22.1Y64.45
X22.1Y37.7
X22.6Y41.8
X22.784Y32.266
X23.6Y41.004
X23.7Y37.7
X24.667Y24.931
X24.667Y22.731
X24.746Y39.154
X24.767Y20.031
X24.767Y18.231
X24.981Y31.211
X25.015Y36.7
X25.802Y25.901
X25.9Y32.2
X26.65Y41.65
X26.75Y31.15
X26.767Y20.031
X26.767Y18.231
X26.867Y24.931
X26.867Y22.731
X26.997Y26.801
X27.6Y32.2
X28.45Y31.15
X28.762Y29.79
X29.45Y60.35
X29.6Y62.1
X29.75Y30.95
X31.05Y30.45
X31.9Y38.95
X32.3Y40.05
X32.35Y29.85
X33.65Y29.25
X33.673Y66.122
X33.8Y67.9
X34.0Y63.6
X34.1Y35.0
X34.55Y28.396
X34.95Y34.2
X35.3Y63.6
X35.65Y26.396
X35.8Y68.6
X35.8Y35.0
X36.2Y28.5
X36.75Y22.096
X36.848Y66.503
X36.9Y34.15
X37.7Y58.7
X38.2Y35.0
X38.25Y52.65
X38.4Y57.5
X38.65Y67.35
X38.8Y44.25
X38.8Y42.4
X38.85Y51.35
X39.05Y34.15
X39.7Y63.6
X39.9Y35.0
X40.25Y51.5
X40.512Y26.452
X40.712Y21.952
X40.75Y34.15
X41.4Y66.5
X42.2Y54.9
X43.75Y46.0
X44.75Y44.7
X44.877Y25.31
X45.0Y57.6
X45.158Y23.642
X45.35Y38.3
X45.75Y43.9
X46.164Y21.821
X46.25Y37.5
X46.65Y43.1
X47.15Y36.7
X47.55Y42.3
X48.05Y35.9
X48.45Y41.5
X48.95Y35.1
X49.35Y40.7
X49.85Y34.3
X50.25Y39.9
X50.3Y54.9
X50.75Y33.5
X50.945Y20.09
X50.946Y67.7
X51.15Y39.1
X51.2Y55.7
X51.5Y28.7
X51.65Y32.7
X51.816Y26.841
X52.1Y56.6
X52.9Y59.2
X53.4Y54.0
X53.714Y22.414
X56.299Y22.02
X56.3Y60.1
X56.462Y67.7
X57.314Y22.614
X60.0Y25.31
X60.841Y26.841
X75.158Y49.23
X76.208Y49.53
X77.435Y44.606
X77.708Y49.53
X78.566Y44.06
X79.208Y49.53
X79.548Y44.568
X80.258Y49.98
X88.358Y57.93
X89.208Y57.08
X90.058Y56.23
X90.908Y55.38
X91.558Y61.13
X91.758Y54.53
X92.058Y59.93
X92.458Y43.898
X92.558Y58.73
X92.608Y53.68
X93.058Y57.53
X93.308Y48.93
X93.408Y52.88
X93.558Y56.33
X93.812Y44.66
X94.058Y55.13
X94.348Y48.87
X94.508Y53.98
X95.708Y47.93
T2
X25.0Y55.0
X25.0Y53.0
X25.0Y51.0
X25.0Y49.0
X25.0Y47.0
X27.0Y55.0
X27.0Y47.0
X29.0Y55.0
X29.0Y47.0
X31.0Y55.0
X31.0Y47.0
X33.0Y55.0
X33.0Y53.0
X33.0Y51.0
X33.0Y49.0
X33.0Y47.0
T3
X16.002Y25.4
X34.798Y21.336
T4
X1.85Y33.2
X1.85Y26.0
T5
X4.65Y32.9
X4.65Y26.3
T6
X2.53Y58.25
X2.53Y43.75
X8.49Y58.25
X8.49Y43.75
T7
X4.0Y79.8
X4.0Y-4.0
X116.7Y79.8
X116.7Y-4.0
M30
