ISO-10303-21;
HEADER;
FILE_DESCRIPTION(('KiCad electronic assembly'),'2;1');
FILE_NAME('model.step','1970-01-01T00:00:00',('Pcbnew'),('Kicad'),
  'Open CASCADE STEP processor 7.9','KiCad to STEP converter','Unknown'
  );
FILE_SCHEMA(('AUTOMOTIVE_DESIGN { 1 0 10303 214 1 1 1 1 }'));
ENDSEC;
DATA;
#1 = APPLICATION_PROTOCOL_DEFINITION('international standard',
  'automotive_design',2000,#2);
#2 = APPLICATION_CONTEXT(
  'core data for automotive mechanical design processes');
#3 = SHAPE_DEFINITION_REPRESENTATION(#4,#10);
#4 = PRODUCT_DEFINITION_SHAPE('','',#5);
#5 = PRODUCT_DEFINITION('design','',#6,#9);
#6 = PRODUCT_DEFINITION_FORMATION('','',#7);
#7 = PRODUCT('model 1','model 1','',(#8));
#8 = PRODUCT_CONTEXT('',#2,'mechanical');
#9 = PRODUCT_DEFINITION_CONTEXT('part definition',#2,'design');
#10 = SHAPE_REPRESENTATION('',(#11,#15,#19),#23);
#11 = AXIS2_PLACEMENT_3D('',#12,#13,#14);
#12 = CARTESIAN_POINT('',(0.,0.,0.));
#13 = DIRECTION('',(0.,0.,1.));
#14 = DIRECTION('',(1.,0.,-0.));
#15 = AXIS2_PLACEMENT_3D('',#16,#17,#18);
#16 = CARTESIAN_POINT('',(0.,0.,0.));
#17 = DIRECTION('',(0.,0.,1.));
#18 = DIRECTION('',(1.,0.,-0.));
#19 = AXIS2_PLACEMENT_3D('',#20,#21,#22);
#20 = CARTESIAN_POINT('',(0.,0.,0.));
#21 = DIRECTION('',(0.,0.,1.));
#22 = DIRECTION('',(1.,0.,-0.));
#23 = ( GEOMETRIC_REPRESENTATION_CONTEXT(3) 
GLOBAL_UNCERTAINTY_ASSIGNED_CONTEXT((#27)) GLOBAL_UNIT_ASSIGNED_CONTEXT(
(#24,#25,#26)) REPRESENTATION_CONTEXT('Context #1',
  '3D Context with UNIT and UNCERTAINTY') );
#24 = ( LENGTH_UNIT() NAMED_UNIT(*) SI_UNIT(.MILLI.,.METRE.) );
#25 = ( NAMED_UNIT(*) PLANE_ANGLE_UNIT() SI_UNIT($,.RADIAN.) );
#26 = ( NAMED_UNIT(*) SI_UNIT($,.STERADIAN.) SOLID_ANGLE_UNIT() );
#27 = UNCERTAINTY_MEASURE_WITH_UNIT(LENGTH_MEASURE(1.E-07),#24,
  'distance_accuracy_value','confusion accuracy');
#28 = PRODUCT_RELATED_PRODUCT_CATEGORY('part',$,(#7));
#29 = SHAPE_DEFINITION_REPRESENTATION(#30,#36);
#30 = PRODUCT_DEFINITION_SHAPE('','',#31);
#31 = PRODUCT_DEFINITION('design','',#32,#35);
#32 = PRODUCT_DEFINITION_FORMATION('','',#33);
#33 = PRODUCT(
'electronic_connector_jst_ph_2_mm_pitch_surface_mount_vertical_2_pin_
jst_b2b_ph_sm4_tb_render_pad',
'electronic_connector_jst_ph_2_mm_pitch_surface_mount_vertical_2_pin_
jst_b2b_ph_sm4_tb_render_pad','',(#34));
#34 = PRODUCT_CONTEXT('',#2,'mechanical');
#35 = PRODUCT_DEFINITION_CONTEXT('part definition',#2,'design');
#36 = SHAPE_REPRESENTATION('',(#11,#37,#327,#617,#907),#1197);
#37 = MANIFOLD_SOLID_BREP('',#38);
#38 = CLOSED_SHELL('',(#39,#81,#112,#145,#176,#209,#240,#273,#295,#311)
  );
#39 = ADVANCED_FACE('',(#40),#76,.T.);
#40 = FACE_BOUND('',#41,.T.);
#41 = EDGE_LOOP('',(#42,#52,#61,#69));
#42 = ORIENTED_EDGE('',*,*,#43,.T.);
#43 = EDGE_CURVE('',#44,#46,#48,.T.);
#44 = VERTEX_POINT('',#45);
#45 = CARTESIAN_POINT('',(-1.5,2.,1.51));
#46 = VERTEX_POINT('',#47);
#47 = CARTESIAN_POINT('',(-1.5,2.,1.55));
#48 = LINE('',#49,#50);
#49 = CARTESIAN_POINT('',(-1.5,2.,1.51));
#50 = VECTOR('',#51,1.);
#51 = DIRECTION('',(0.,0.,1.));
#52 = ORIENTED_EDGE('',*,*,#53,.T.);
#53 = EDGE_CURVE('',#46,#54,#56,.T.);
#54 = VERTEX_POINT('',#55);
#55 = CARTESIAN_POINT('',(-1.25,2.25,1.55));
#56 = CIRCLE('',#57,0.249998959685);
#57 = AXIS2_PLACEMENT_3D('',#58,#59,#60);
#58 = CARTESIAN_POINT('',(-1.250001040317,2.000001040317,1.55));
#59 = DIRECTION('',(0.,0.,-1.));
#60 = DIRECTION('',(-0.999999999991,-4.161285831737E-06,-0.));
#61 = ORIENTED_EDGE('',*,*,#62,.F.);
#62 = EDGE_CURVE('',#63,#54,#65,.T.);
#63 = VERTEX_POINT('',#64);
#64 = CARTESIAN_POINT('',(-1.25,2.25,1.51));
#65 = LINE('',#66,#67);
#66 = CARTESIAN_POINT('',(-1.25,2.25,1.51));
#67 = VECTOR('',#68,1.);
#68 = DIRECTION('',(0.,0.,1.));
#69 = ORIENTED_EDGE('',*,*,#70,.F.);
#70 = EDGE_CURVE('',#44,#63,#71,.T.);
#71 = CIRCLE('',#72,0.249998959685);
#72 = AXIS2_PLACEMENT_3D('',#73,#74,#75);
#73 = CARTESIAN_POINT('',(-1.250001040317,2.000001040317,1.51));
#74 = DIRECTION('',(0.,0.,-1.));
#75 = DIRECTION('',(-0.999999999991,-4.161285831737E-06,-0.));
#76 = CYLINDRICAL_SURFACE('',#77,0.249998959685);
#77 = AXIS2_PLACEMENT_3D('',#78,#79,#80);
#78 = CARTESIAN_POINT('',(-1.250001040317,2.000001040317,1.51));
#79 = DIRECTION('',(0.,0.,-1.));
#80 = DIRECTION('',(-0.999999999991,-4.161285831737E-06,-0.));
#81 = ADVANCED_FACE('',(#82),#107,.T.);
#82 = FACE_BOUND('',#83,.T.);
#83 = EDGE_LOOP('',(#84,#85,#93,#101));
#84 = ORIENTED_EDGE('',*,*,#62,.T.);
#85 = ORIENTED_EDGE('',*,*,#86,.T.);
#86 = EDGE_CURVE('',#54,#87,#89,.T.);
#87 = VERTEX_POINT('',#88);
#88 = CARTESIAN_POINT('',(-0.75,2.25,1.55));
#89 = LINE('',#90,#91);
#90 = CARTESIAN_POINT('',(-1.25,2.25,1.55));
#91 = VECTOR('',#92,1.);
#92 = DIRECTION('',(1.,0.,0.));
#93 = ORIENTED_EDGE('',*,*,#94,.F.);
#94 = EDGE_CURVE('',#95,#87,#97,.T.);
#95 = VERTEX_POINT('',#96);
#96 = CARTESIAN_POINT('',(-0.75,2.25,1.51));
#97 = LINE('',#98,#99);
#98 = CARTESIAN_POINT('',(-0.75,2.25,1.51));
#99 = VECTOR('',#100,1.);
#100 = DIRECTION('',(0.,0.,1.));
#101 = ORIENTED_EDGE('',*,*,#102,.F.);
#102 = EDGE_CURVE('',#63,#95,#103,.T.);
#103 = LINE('',#104,#105);
#104 = CARTESIAN_POINT('',(-1.25,2.25,1.51));
#105 = VECTOR('',#106,1.);
#106 = DIRECTION('',(1.,0.,0.));
#107 = PLANE('',#108);
#108 = AXIS2_PLACEMENT_3D('',#109,#110,#111);
#109 = CARTESIAN_POINT('',(-1.25,2.25,1.51));
#110 = DIRECTION('',(0.,1.,0.));
#111 = DIRECTION('',(1.,0.,0.));
#112 = ADVANCED_FACE('',(#113),#140,.T.);
#113 = FACE_BOUND('',#114,.T.);
#114 = EDGE_LOOP('',(#115,#116,#125,#133));
#115 = ORIENTED_EDGE('',*,*,#94,.T.);
#116 = ORIENTED_EDGE('',*,*,#117,.T.);
#117 = EDGE_CURVE('',#87,#118,#120,.T.);
#118 = VERTEX_POINT('',#119);
#119 = CARTESIAN_POINT('',(-0.5,2.,1.55));
#120 = CIRCLE('',#121,0.249998959685);
#121 = AXIS2_PLACEMENT_3D('',#122,#123,#124);
#122 = CARTESIAN_POINT('',(-0.749998959683,2.000001040317,1.55));
#123 = DIRECTION('',(0.,0.,-1.));
#124 = DIRECTION('',(-4.161285832626E-06,0.999999999991,0.));
#125 = ORIENTED_EDGE('',*,*,#126,.F.);
#126 = EDGE_CURVE('',#127,#118,#129,.T.);
#127 = VERTEX_POINT('',#128);
#128 = CARTESIAN_POINT('',(-0.5,2.,1.51));
#129 = LINE('',#130,#131);
#130 = CARTESIAN_POINT('',(-0.5,2.,1.51));
#131 = VECTOR('',#132,1.);
#132 = DIRECTION('',(0.,0.,1.));
#133 = ORIENTED_EDGE('',*,*,#134,.F.);
#134 = EDGE_CURVE('',#95,#127,#135,.T.);
#135 = CIRCLE('',#136,0.249998959685);
#136 = AXIS2_PLACEMENT_3D('',#137,#138,#139);
#137 = CARTESIAN_POINT('',(-0.749998959683,2.000001040317,1.51));
#138 = DIRECTION('',(0.,0.,-1.));
#139 = DIRECTION('',(-4.161285832626E-06,0.999999999991,0.));
#140 = CYLINDRICAL_SURFACE('',#141,0.249998959685);
#141 = AXIS2_PLACEMENT_3D('',#142,#143,#144);
#142 = CARTESIAN_POINT('',(-0.749998959683,2.000001040317,1.51));
#143 = DIRECTION('',(0.,0.,-1.));
#144 = DIRECTION('',(-4.161285832626E-06,0.999999999991,0.));
#145 = ADVANCED_FACE('',(#146),#171,.T.);
#146 = FACE_BOUND('',#147,.T.);
#147 = EDGE_LOOP('',(#148,#149,#157,#165));
#148 = ORIENTED_EDGE('',*,*,#126,.T.);
#149 = ORIENTED_EDGE('',*,*,#150,.T.);
#150 = EDGE_CURVE('',#118,#151,#153,.T.);
#151 = VERTEX_POINT('',#152);
#152 = CARTESIAN_POINT('',(-0.5,-3.,1.55));
#153 = LINE('',#154,#155);
#154 = CARTESIAN_POINT('',(-0.5,2.,1.55));
#155 = VECTOR('',#156,1.);
#156 = DIRECTION('',(0.,-1.,0.));
#157 = ORIENTED_EDGE('',*,*,#158,.F.);
#158 = EDGE_CURVE('',#159,#151,#161,.T.);
#159 = VERTEX_POINT('',#160);
#160 = CARTESIAN_POINT('',(-0.5,-3.,1.51));
#161 = LINE('',#162,#163);
#162 = CARTESIAN_POINT('',(-0.5,-3.,1.51));
#163 = VECTOR('',#164,1.);
#164 = DIRECTION('',(0.,0.,1.));
#165 = ORIENTED_EDGE('',*,*,#166,.F.);
#166 = EDGE_CURVE('',#127,#159,#167,.T.);
#167 = LINE('',#168,#169);
#168 = CARTESIAN_POINT('',(-0.5,2.,1.51));
#169 = VECTOR('',#170,1.);
#170 = DIRECTION('',(0.,-1.,0.));
#171 = PLANE('',#172);
#172 = AXIS2_PLACEMENT_3D('',#173,#174,#175);
#173 = CARTESIAN_POINT('',(-0.5,2.,1.51));
#174 = DIRECTION('',(1.,0.,-0.));
#175 = DIRECTION('',(0.,-1.,0.));
#176 = ADVANCED_FACE('',(#177),#204,.T.);
#177 = FACE_BOUND('',#178,.T.);
#178 = EDGE_LOOP('',(#179,#180,#189,#197));
#179 = ORIENTED_EDGE('',*,*,#158,.T.);
#180 = ORIENTED_EDGE('',*,*,#181,.T.);
#181 = EDGE_CURVE('',#151,#182,#184,.T.);
#182 = VERTEX_POINT('',#183);
#183 = CARTESIAN_POINT('',(-0.75,-3.25,1.55));
#184 = CIRCLE('',#185,0.249998959685);
#185 = AXIS2_PLACEMENT_3D('',#186,#187,#188);
#186 = CARTESIAN_POINT('',(-0.749998959683,-3.000001040317,1.55));
#187 = DIRECTION('',(0.,0.,-1.));
#188 = DIRECTION('',(0.999999999991,4.161285831737E-06,0.));
#189 = ORIENTED_EDGE('',*,*,#190,.F.);
#190 = EDGE_CURVE('',#191,#182,#193,.T.);
#191 = VERTEX_POINT('',#192);
#192 = CARTESIAN_POINT('',(-0.75,-3.25,1.51));
#193 = LINE('',#194,#195);
#194 = CARTESIAN_POINT('',(-0.75,-3.25,1.51));
#195 = VECTOR('',#196,1.);
#196 = DIRECTION('',(0.,0.,1.));
#197 = ORIENTED_EDGE('',*,*,#198,.F.);
#198 = EDGE_CURVE('',#159,#191,#199,.T.);
#199 = CIRCLE('',#200,0.249998959685);
#200 = AXIS2_PLACEMENT_3D('',#201,#202,#203);
#201 = CARTESIAN_POINT('',(-0.749998959683,-3.000001040317,1.51));
#202 = DIRECTION('',(0.,0.,-1.));
#203 = DIRECTION('',(0.999999999991,4.161285831737E-06,0.));
#204 = CYLINDRICAL_SURFACE('',#205,0.249998959685);
#205 = AXIS2_PLACEMENT_3D('',#206,#207,#208);
#206 = CARTESIAN_POINT('',(-0.749998959683,-3.000001040317,1.51));
#207 = DIRECTION('',(0.,0.,-1.));
#208 = DIRECTION('',(0.999999999991,4.161285831737E-06,0.));
#209 = ADVANCED_FACE('',(#210),#235,.T.);
#210 = FACE_BOUND('',#211,.T.);
#211 = EDGE_LOOP('',(#212,#213,#221,#229));
#212 = ORIENTED_EDGE('',*,*,#190,.T.);
#213 = ORIENTED_EDGE('',*,*,#214,.T.);
#214 = EDGE_CURVE('',#182,#215,#217,.T.);
#215 = VERTEX_POINT('',#216);
#216 = CARTESIAN_POINT('',(-1.25,-3.25,1.55));
#217 = LINE('',#218,#219);
#218 = CARTESIAN_POINT('',(-0.75,-3.25,1.55));
#219 = VECTOR('',#220,1.);
#220 = DIRECTION('',(-1.,0.,0.));
#221 = ORIENTED_EDGE('',*,*,#222,.F.);
#222 = EDGE_CURVE('',#223,#215,#225,.T.);
#223 = VERTEX_POINT('',#224);
#224 = CARTESIAN_POINT('',(-1.25,-3.25,1.51));
#225 = LINE('',#226,#227);
#226 = CARTESIAN_POINT('',(-1.25,-3.25,1.51));
#227 = VECTOR('',#228,1.);
#228 = DIRECTION('',(0.,0.,1.));
#229 = ORIENTED_EDGE('',*,*,#230,.F.);
#230 = EDGE_CURVE('',#191,#223,#231,.T.);
#231 = LINE('',#232,#233);
#232 = CARTESIAN_POINT('',(-0.75,-3.25,1.51));
#233 = VECTOR('',#234,1.);
#234 = DIRECTION('',(-1.,0.,0.));
#235 = PLANE('',#236);
#236 = AXIS2_PLACEMENT_3D('',#237,#238,#239);
#237 = CARTESIAN_POINT('',(-0.75,-3.25,1.51));
#238 = DIRECTION('',(0.,-1.,0.));
#239 = DIRECTION('',(-1.,0.,0.));
#240 = ADVANCED_FACE('',(#241),#268,.T.);
#241 = FACE_BOUND('',#242,.T.);
#242 = EDGE_LOOP('',(#243,#244,#253,#261));
#243 = ORIENTED_EDGE('',*,*,#222,.T.);
#244 = ORIENTED_EDGE('',*,*,#245,.T.);
#245 = EDGE_CURVE('',#215,#246,#248,.T.);
#246 = VERTEX_POINT('',#247);
#247 = CARTESIAN_POINT('',(-1.5,-3.,1.55));
#248 = CIRCLE('',#249,0.249998959685);
#249 = AXIS2_PLACEMENT_3D('',#250,#251,#252);
#250 = CARTESIAN_POINT('',(-1.250001040317,-3.000001040317,1.55));
#251 = DIRECTION('',(0.,0.,-1.));
#252 = DIRECTION('',(4.161285832626E-06,-0.999999999991,0.));
#253 = ORIENTED_EDGE('',*,*,#254,.F.);
#254 = EDGE_CURVE('',#255,#246,#257,.T.);
#255 = VERTEX_POINT('',#256);
#256 = CARTESIAN_POINT('',(-1.5,-3.,1.51));
#257 = LINE('',#258,#259);
#258 = CARTESIAN_POINT('',(-1.5,-3.,1.51));
#259 = VECTOR('',#260,1.);
#260 = DIRECTION('',(0.,0.,1.));
#261 = ORIENTED_EDGE('',*,*,#262,.F.);
#262 = EDGE_CURVE('',#223,#255,#263,.T.);
#263 = CIRCLE('',#264,0.249998959685);
#264 = AXIS2_PLACEMENT_3D('',#265,#266,#267);
#265 = CARTESIAN_POINT('',(-1.250001040317,-3.000001040317,1.51));
#266 = DIRECTION('',(0.,0.,-1.));
#267 = DIRECTION('',(4.161285832626E-06,-0.999999999991,0.));
#268 = CYLINDRICAL_SURFACE('',#269,0.249998959685);
#269 = AXIS2_PLACEMENT_3D('',#270,#271,#272);
#270 = CARTESIAN_POINT('',(-1.250001040317,-3.000001040317,1.51));
#271 = DIRECTION('',(0.,0.,-1.));
#272 = DIRECTION('',(4.161285832626E-06,-0.999999999991,0.));
#273 = ADVANCED_FACE('',(#274),#290,.T.);
#274 = FACE_BOUND('',#275,.T.);
#275 = EDGE_LOOP('',(#276,#277,#283,#284));
#276 = ORIENTED_EDGE('',*,*,#254,.T.);
#277 = ORIENTED_EDGE('',*,*,#278,.T.);
#278 = EDGE_CURVE('',#246,#46,#279,.T.);
#279 = LINE('',#280,#281);
#280 = CARTESIAN_POINT('',(-1.5,-3.,1.55));
#281 = VECTOR('',#282,1.);
#282 = DIRECTION('',(0.,1.,0.));
#283 = ORIENTED_EDGE('',*,*,#43,.F.);
#284 = ORIENTED_EDGE('',*,*,#285,.F.);
#285 = EDGE_CURVE('',#255,#44,#286,.T.);
#286 = LINE('',#287,#288);
#287 = CARTESIAN_POINT('',(-1.5,-3.,1.51));
#288 = VECTOR('',#289,1.);
#289 = DIRECTION('',(0.,1.,0.));
#290 = PLANE('',#291);
#291 = AXIS2_PLACEMENT_3D('',#292,#293,#294);
#292 = CARTESIAN_POINT('',(-1.5,-3.,1.51));
#293 = DIRECTION('',(-1.,0.,0.));
#294 = DIRECTION('',(0.,1.,0.));
#295 = ADVANCED_FACE('',(#296),#306,.F.);
#296 = FACE_BOUND('',#297,.T.);
#297 = EDGE_LOOP('',(#298,#299,#300,#301,#302,#303,#304,#305));
#298 = ORIENTED_EDGE('',*,*,#70,.T.);
#299 = ORIENTED_EDGE('',*,*,#102,.T.);
#300 = ORIENTED_EDGE('',*,*,#134,.T.);
#301 = ORIENTED_EDGE('',*,*,#166,.T.);
#302 = ORIENTED_EDGE('',*,*,#198,.T.);
#303 = ORIENTED_EDGE('',*,*,#230,.T.);
#304 = ORIENTED_EDGE('',*,*,#262,.T.);
#305 = ORIENTED_EDGE('',*,*,#285,.T.);
#306 = PLANE('',#307);
#307 = AXIS2_PLACEMENT_3D('',#308,#309,#310);
#308 = CARTESIAN_POINT('',(0.,0.,1.51));
#309 = DIRECTION('',(0.,0.,1.));
#310 = DIRECTION('',(1.,0.,-0.));
#311 = ADVANCED_FACE('',(#312),#322,.T.);
#312 = FACE_BOUND('',#313,.F.);
#313 = EDGE_LOOP('',(#314,#315,#316,#317,#318,#319,#320,#321));
#314 = ORIENTED_EDGE('',*,*,#53,.T.);
#315 = ORIENTED_EDGE('',*,*,#86,.T.);
#316 = ORIENTED_EDGE('',*,*,#117,.T.);
#317 = ORIENTED_EDGE('',*,*,#150,.T.);
#318 = ORIENTED_EDGE('',*,*,#181,.T.);
#319 = ORIENTED_EDGE('',*,*,#214,.T.);
#320 = ORIENTED_EDGE('',*,*,#245,.T.);
#321 = ORIENTED_EDGE('',*,*,#278,.T.);
#322 = PLANE('',#323);
#323 = AXIS2_PLACEMENT_3D('',#324,#325,#326);
#324 = CARTESIAN_POINT('',(0.,0.,1.55));
#325 = DIRECTION('',(0.,0.,1.));
#326 = DIRECTION('',(1.,0.,-0.));
#327 = MANIFOLD_SOLID_BREP('',#328);
#328 = CLOSED_SHELL('',(#329,#371,#402,#435,#466,#499,#530,#563,#585,
    #601));
#329 = ADVANCED_FACE('',(#330),#366,.T.);
#330 = FACE_BOUND('',#331,.T.);
#331 = EDGE_LOOP('',(#332,#342,#351,#359));
#332 = ORIENTED_EDGE('',*,*,#333,.T.);
#333 = EDGE_CURVE('',#334,#336,#338,.T.);
#334 = VERTEX_POINT('',#335);
#335 = CARTESIAN_POINT('',(0.5,2.,1.51));
#336 = VERTEX_POINT('',#337);
#337 = CARTESIAN_POINT('',(0.5,2.,1.55));
#338 = LINE('',#339,#340);
#339 = CARTESIAN_POINT('',(0.5,2.,1.51));
#340 = VECTOR('',#341,1.);
#341 = DIRECTION('',(0.,0.,1.));
#342 = ORIENTED_EDGE('',*,*,#343,.T.);
#343 = EDGE_CURVE('',#336,#344,#346,.T.);
#344 = VERTEX_POINT('',#345);
#345 = CARTESIAN_POINT('',(0.75,2.25,1.55));
#346 = CIRCLE('',#347,0.249998959685);
#347 = AXIS2_PLACEMENT_3D('',#348,#349,#350);
#348 = CARTESIAN_POINT('',(0.749998959683,2.000001040317,1.55));
#349 = DIRECTION('',(0.,0.,-1.));
#350 = DIRECTION('',(-0.999999999991,-4.161285831737E-06,-0.));
#351 = ORIENTED_EDGE('',*,*,#352,.F.);
#352 = EDGE_CURVE('',#353,#344,#355,.T.);
#353 = VERTEX_POINT('',#354);
#354 = CARTESIAN_POINT('',(0.75,2.25,1.51));
#355 = LINE('',#356,#357);
#356 = CARTESIAN_POINT('',(0.75,2.25,1.51));
#357 = VECTOR('',#358,1.);
#358 = DIRECTION('',(0.,0.,1.));
#359 = ORIENTED_EDGE('',*,*,#360,.F.);
#360 = EDGE_CURVE('',#334,#353,#361,.T.);
#361 = CIRCLE('',#362,0.249998959685);
#362 = AXIS2_PLACEMENT_3D('',#363,#364,#365);
#363 = CARTESIAN_POINT('',(0.749998959683,2.000001040317,1.51));
#364 = DIRECTION('',(0.,0.,-1.));
#365 = DIRECTION('',(-0.999999999991,-4.161285831737E-06,-0.));
#366 = CYLINDRICAL_SURFACE('',#367,0.249998959685);
#367 = AXIS2_PLACEMENT_3D('',#368,#369,#370);
#368 = CARTESIAN_POINT('',(0.749998959683,2.000001040317,1.51));
#369 = DIRECTION('',(0.,0.,-1.));
#370 = DIRECTION('',(-0.999999999991,-4.161285831737E-06,-0.));
#371 = ADVANCED_FACE('',(#372),#397,.T.);
#372 = FACE_BOUND('',#373,.T.);
#373 = EDGE_LOOP('',(#374,#375,#383,#391));
#374 = ORIENTED_EDGE('',*,*,#352,.T.);
#375 = ORIENTED_EDGE('',*,*,#376,.T.);
#376 = EDGE_CURVE('',#344,#377,#379,.T.);
#377 = VERTEX_POINT('',#378);
#378 = CARTESIAN_POINT('',(1.25,2.25,1.55));
#379 = LINE('',#380,#381);
#380 = CARTESIAN_POINT('',(0.75,2.25,1.55));
#381 = VECTOR('',#382,1.);
#382 = DIRECTION('',(1.,0.,0.));
#383 = ORIENTED_EDGE('',*,*,#384,.F.);
#384 = EDGE_CURVE('',#385,#377,#387,.T.);
#385 = VERTEX_POINT('',#386);
#386 = CARTESIAN_POINT('',(1.25,2.25,1.51));
#387 = LINE('',#388,#389);
#388 = CARTESIAN_POINT('',(1.25,2.25,1.51));
#389 = VECTOR('',#390,1.);
#390 = DIRECTION('',(0.,0.,1.));
#391 = ORIENTED_EDGE('',*,*,#392,.F.);
#392 = EDGE_CURVE('',#353,#385,#393,.T.);
#393 = LINE('',#394,#395);
#394 = CARTESIAN_POINT('',(0.75,2.25,1.51));
#395 = VECTOR('',#396,1.);
#396 = DIRECTION('',(1.,0.,0.));
#397 = PLANE('',#398);
#398 = AXIS2_PLACEMENT_3D('',#399,#400,#401);
#399 = CARTESIAN_POINT('',(0.75,2.25,1.51));
#400 = DIRECTION('',(0.,1.,0.));
#401 = DIRECTION('',(1.,0.,0.));
#402 = ADVANCED_FACE('',(#403),#430,.T.);
#403 = FACE_BOUND('',#404,.T.);
#404 = EDGE_LOOP('',(#405,#406,#415,#423));
#405 = ORIENTED_EDGE('',*,*,#384,.T.);
#406 = ORIENTED_EDGE('',*,*,#407,.T.);
#407 = EDGE_CURVE('',#377,#408,#410,.T.);
#408 = VERTEX_POINT('',#409);
#409 = CARTESIAN_POINT('',(1.5,2.,1.55));
#410 = CIRCLE('',#411,0.249998959685);
#411 = AXIS2_PLACEMENT_3D('',#412,#413,#414);
#412 = CARTESIAN_POINT('',(1.250001040317,2.000001040317,1.55));
#413 = DIRECTION('',(0.,0.,-1.));
#414 = DIRECTION('',(-4.161285832626E-06,0.999999999991,0.));
#415 = ORIENTED_EDGE('',*,*,#416,.F.);
#416 = EDGE_CURVE('',#417,#408,#419,.T.);
#417 = VERTEX_POINT('',#418);
#418 = CARTESIAN_POINT('',(1.5,2.,1.51));
#419 = LINE('',#420,#421);
#420 = CARTESIAN_POINT('',(1.5,2.,1.51));
#421 = VECTOR('',#422,1.);
#422 = DIRECTION('',(0.,0.,1.));
#423 = ORIENTED_EDGE('',*,*,#424,.F.);
#424 = EDGE_CURVE('',#385,#417,#425,.T.);
#425 = CIRCLE('',#426,0.249998959685);
#426 = AXIS2_PLACEMENT_3D('',#427,#428,#429);
#427 = CARTESIAN_POINT('',(1.250001040317,2.000001040317,1.51));
#428 = DIRECTION('',(0.,0.,-1.));
#429 = DIRECTION('',(-4.161285832626E-06,0.999999999991,0.));
#430 = CYLINDRICAL_SURFACE('',#431,0.249998959685);
#431 = AXIS2_PLACEMENT_3D('',#432,#433,#434);
#432 = CARTESIAN_POINT('',(1.250001040317,2.000001040317,1.51));
#433 = DIRECTION('',(0.,0.,-1.));
#434 = DIRECTION('',(-4.161285832626E-06,0.999999999991,0.));
#435 = ADVANCED_FACE('',(#436),#461,.T.);
#436 = FACE_BOUND('',#437,.T.);
#437 = EDGE_LOOP('',(#438,#439,#447,#455));
#438 = ORIENTED_EDGE('',*,*,#416,.T.);
#439 = ORIENTED_EDGE('',*,*,#440,.T.);
#440 = EDGE_CURVE('',#408,#441,#443,.T.);
#441 = VERTEX_POINT('',#442);
#442 = CARTESIAN_POINT('',(1.5,-3.,1.55));
#443 = LINE('',#444,#445);
#444 = CARTESIAN_POINT('',(1.5,2.,1.55));
#445 = VECTOR('',#446,1.);
#446 = DIRECTION('',(0.,-1.,0.));
#447 = ORIENTED_EDGE('',*,*,#448,.F.);
#448 = EDGE_CURVE('',#449,#441,#451,.T.);
#449 = VERTEX_POINT('',#450);
#450 = CARTESIAN_POINT('',(1.5,-3.,1.51));
#451 = LINE('',#452,#453);
#452 = CARTESIAN_POINT('',(1.5,-3.,1.51));
#453 = VECTOR('',#454,1.);
#454 = DIRECTION('',(0.,0.,1.));
#455 = ORIENTED_EDGE('',*,*,#456,.F.);
#456 = EDGE_CURVE('',#417,#449,#457,.T.);
#457 = LINE('',#458,#459);
#458 = CARTESIAN_POINT('',(1.5,2.,1.51));
#459 = VECTOR('',#460,1.);
#460 = DIRECTION('',(0.,-1.,0.));
#461 = PLANE('',#462);
#462 = AXIS2_PLACEMENT_3D('',#463,#464,#465);
#463 = CARTESIAN_POINT('',(1.5,2.,1.51));
#464 = DIRECTION('',(1.,0.,-0.));
#465 = DIRECTION('',(0.,-1.,0.));
#466 = ADVANCED_FACE('',(#467),#494,.T.);
#467 = FACE_BOUND('',#468,.T.);
#468 = EDGE_LOOP('',(#469,#470,#479,#487));
#469 = ORIENTED_EDGE('',*,*,#448,.T.);
#470 = ORIENTED_EDGE('',*,*,#471,.T.);
#471 = EDGE_CURVE('',#441,#472,#474,.T.);
#472 = VERTEX_POINT('',#473);
#473 = CARTESIAN_POINT('',(1.25,-3.25,1.55));
#474 = CIRCLE('',#475,0.249998959685);
#475 = AXIS2_PLACEMENT_3D('',#476,#477,#478);
#476 = CARTESIAN_POINT('',(1.250001040317,-3.000001040317,1.55));
#477 = DIRECTION('',(0.,0.,-1.));
#478 = DIRECTION('',(0.999999999991,4.161285831737E-06,0.));
#479 = ORIENTED_EDGE('',*,*,#480,.F.);
#480 = EDGE_CURVE('',#481,#472,#483,.T.);
#481 = VERTEX_POINT('',#482);
#482 = CARTESIAN_POINT('',(1.25,-3.25,1.51));
#483 = LINE('',#484,#485);
#484 = CARTESIAN_POINT('',(1.25,-3.25,1.51));
#485 = VECTOR('',#486,1.);
#486 = DIRECTION('',(0.,0.,1.));
#487 = ORIENTED_EDGE('',*,*,#488,.F.);
#488 = EDGE_CURVE('',#449,#481,#489,.T.);
#489 = CIRCLE('',#490,0.249998959685);
#490 = AXIS2_PLACEMENT_3D('',#491,#492,#493);
#491 = CARTESIAN_POINT('',(1.250001040317,-3.000001040317,1.51));
#492 = DIRECTION('',(0.,0.,-1.));
#493 = DIRECTION('',(0.999999999991,4.161285831737E-06,0.));
#494 = CYLINDRICAL_SURFACE('',#495,0.249998959685);
#495 = AXIS2_PLACEMENT_3D('',#496,#497,#498);
#496 = CARTESIAN_POINT('',(1.250001040317,-3.000001040317,1.51));
#497 = DIRECTION('',(0.,0.,-1.));
#498 = DIRECTION('',(0.999999999991,4.161285831737E-06,0.));
#499 = ADVANCED_FACE('',(#500),#525,.T.);
#500 = FACE_BOUND('',#501,.T.);
#501 = EDGE_LOOP('',(#502,#503,#511,#519));
#502 = ORIENTED_EDGE('',*,*,#480,.T.);
#503 = ORIENTED_EDGE('',*,*,#504,.T.);
#504 = EDGE_CURVE('',#472,#505,#507,.T.);
#505 = VERTEX_POINT('',#506);
#506 = CARTESIAN_POINT('',(0.75,-3.25,1.55));
#507 = LINE('',#508,#509);
#508 = CARTESIAN_POINT('',(1.25,-3.25,1.55));
#509 = VECTOR('',#510,1.);
#510 = DIRECTION('',(-1.,0.,0.));
#511 = ORIENTED_EDGE('',*,*,#512,.F.);
#512 = EDGE_CURVE('',#513,#505,#515,.T.);
#513 = VERTEX_POINT('',#514);
#514 = CARTESIAN_POINT('',(0.75,-3.25,1.51));
#515 = LINE('',#516,#517);
#516 = CARTESIAN_POINT('',(0.75,-3.25,1.51));
#517 = VECTOR('',#518,1.);
#518 = DIRECTION('',(0.,0.,1.));
#519 = ORIENTED_EDGE('',*,*,#520,.F.);
#520 = EDGE_CURVE('',#481,#513,#521,.T.);
#521 = LINE('',#522,#523);
#522 = CARTESIAN_POINT('',(1.25,-3.25,1.51));
#523 = VECTOR('',#524,1.);
#524 = DIRECTION('',(-1.,0.,0.));
#525 = PLANE('',#526);
#526 = AXIS2_PLACEMENT_3D('',#527,#528,#529);
#527 = CARTESIAN_POINT('',(1.25,-3.25,1.51));
#528 = DIRECTION('',(0.,-1.,0.));
#529 = DIRECTION('',(-1.,0.,0.));
#530 = ADVANCED_FACE('',(#531),#558,.T.);
#531 = FACE_BOUND('',#532,.T.);
#532 = EDGE_LOOP('',(#533,#534,#543,#551));
#533 = ORIENTED_EDGE('',*,*,#512,.T.);
#534 = ORIENTED_EDGE('',*,*,#535,.T.);
#535 = EDGE_CURVE('',#505,#536,#538,.T.);
#536 = VERTEX_POINT('',#537);
#537 = CARTESIAN_POINT('',(0.5,-3.,1.55));
#538 = CIRCLE('',#539,0.249998959685);
#539 = AXIS2_PLACEMENT_3D('',#540,#541,#542);
#540 = CARTESIAN_POINT('',(0.749998959683,-3.000001040317,1.55));
#541 = DIRECTION('',(0.,0.,-1.));
#542 = DIRECTION('',(4.161285832626E-06,-0.999999999991,0.));
#543 = ORIENTED_EDGE('',*,*,#544,.F.);
#544 = EDGE_CURVE('',#545,#536,#547,.T.);
#545 = VERTEX_POINT('',#546);
#546 = CARTESIAN_POINT('',(0.5,-3.,1.51));
#547 = LINE('',#548,#549);
#548 = CARTESIAN_POINT('',(0.5,-3.,1.51));
#549 = VECTOR('',#550,1.);
#550 = DIRECTION('',(0.,0.,1.));
#551 = ORIENTED_EDGE('',*,*,#552,.F.);
#552 = EDGE_CURVE('',#513,#545,#553,.T.);
#553 = CIRCLE('',#554,0.249998959685);
#554 = AXIS2_PLACEMENT_3D('',#555,#556,#557);
#555 = CARTESIAN_POINT('',(0.749998959683,-3.000001040317,1.51));
#556 = DIRECTION('',(0.,0.,-1.));
#557 = DIRECTION('',(4.161285832626E-06,-0.999999999991,0.));
#558 = CYLINDRICAL_SURFACE('',#559,0.249998959685);
#559 = AXIS2_PLACEMENT_3D('',#560,#561,#562);
#560 = CARTESIAN_POINT('',(0.749998959683,-3.000001040317,1.51));
#561 = DIRECTION('',(0.,0.,-1.));
#562 = DIRECTION('',(4.161285832626E-06,-0.999999999991,0.));
#563 = ADVANCED_FACE('',(#564),#580,.T.);
#564 = FACE_BOUND('',#565,.T.);
#565 = EDGE_LOOP('',(#566,#567,#573,#574));
#566 = ORIENTED_EDGE('',*,*,#544,.T.);
#567 = ORIENTED_EDGE('',*,*,#568,.T.);
#568 = EDGE_CURVE('',#536,#336,#569,.T.);
#569 = LINE('',#570,#571);
#570 = CARTESIAN_POINT('',(0.5,-3.,1.55));
#571 = VECTOR('',#572,1.);
#572 = DIRECTION('',(0.,1.,0.));
#573 = ORIENTED_EDGE('',*,*,#333,.F.);
#574 = ORIENTED_EDGE('',*,*,#575,.F.);
#575 = EDGE_CURVE('',#545,#334,#576,.T.);
#576 = LINE('',#577,#578);
#577 = CARTESIAN_POINT('',(0.5,-3.,1.51));
#578 = VECTOR('',#579,1.);
#579 = DIRECTION('',(0.,1.,0.));
#580 = PLANE('',#581);
#581 = AXIS2_PLACEMENT_3D('',#582,#583,#584);
#582 = CARTESIAN_POINT('',(0.5,-3.,1.51));
#583 = DIRECTION('',(-1.,0.,0.));
#584 = DIRECTION('',(0.,1.,0.));
#585 = ADVANCED_FACE('',(#586),#596,.F.);
#586 = FACE_BOUND('',#587,.T.);
#587 = EDGE_LOOP('',(#588,#589,#590,#591,#592,#593,#594,#595));
#588 = ORIENTED_EDGE('',*,*,#360,.T.);
#589 = ORIENTED_EDGE('',*,*,#392,.T.);
#590 = ORIENTED_EDGE('',*,*,#424,.T.);
#591 = ORIENTED_EDGE('',*,*,#456,.T.);
#592 = ORIENTED_EDGE('',*,*,#488,.T.);
#593 = ORIENTED_EDGE('',*,*,#520,.T.);
#594 = ORIENTED_EDGE('',*,*,#552,.T.);
#595 = ORIENTED_EDGE('',*,*,#575,.T.);
#596 = PLANE('',#597);
#597 = AXIS2_PLACEMENT_3D('',#598,#599,#600);
#598 = CARTESIAN_POINT('',(0.,0.,1.51));
#599 = DIRECTION('',(0.,0.,1.));
#600 = DIRECTION('',(1.,0.,-0.));
#601 = ADVANCED_FACE('',(#602),#612,.T.);
#602 = FACE_BOUND('',#603,.F.);
#603 = EDGE_LOOP('',(#604,#605,#606,#607,#608,#609,#610,#611));
#604 = ORIENTED_EDGE('',*,*,#343,.T.);
#605 = ORIENTED_EDGE('',*,*,#376,.T.);
#606 = ORIENTED_EDGE('',*,*,#407,.T.);
#607 = ORIENTED_EDGE('',*,*,#440,.T.);
#608 = ORIENTED_EDGE('',*,*,#471,.T.);
#609 = ORIENTED_EDGE('',*,*,#504,.T.);
#610 = ORIENTED_EDGE('',*,*,#535,.T.);
#611 = ORIENTED_EDGE('',*,*,#568,.T.);
#612 = PLANE('',#613);
#613 = AXIS2_PLACEMENT_3D('',#614,#615,#616);
#614 = CARTESIAN_POINT('',(0.,0.,1.55));
#615 = DIRECTION('',(0.,0.,1.));
#616 = DIRECTION('',(1.,0.,-0.));
#617 = MANIFOLD_SOLID_BREP('',#618);
#618 = CLOSED_SHELL('',(#619,#661,#692,#725,#756,#789,#820,#853,#875,
    #891));
#619 = ADVANCED_FACE('',(#620),#656,.T.);
#620 = FACE_BOUND('',#621,.T.);
#621 = EDGE_LOOP('',(#622,#632,#641,#649));
#622 = ORIENTED_EDGE('',*,*,#623,.T.);
#623 = EDGE_CURVE('',#624,#626,#628,.T.);
#624 = VERTEX_POINT('',#625);
#625 = CARTESIAN_POINT('',(-4.2,3.,1.51));
#626 = VERTEX_POINT('',#627);
#627 = CARTESIAN_POINT('',(-4.2,3.,1.55));
#628 = LINE('',#629,#630);
#629 = CARTESIAN_POINT('',(-4.2,3.,1.51));
#630 = VECTOR('',#631,1.);
#631 = DIRECTION('',(0.,0.,1.));
#632 = ORIENTED_EDGE('',*,*,#633,.T.);
#633 = EDGE_CURVE('',#626,#634,#636,.T.);
#634 = VERTEX_POINT('',#635);
#635 = CARTESIAN_POINT('',(-3.95,3.25,1.55));
#636 = CIRCLE('',#637,0.249998959685);
#637 = AXIS2_PLACEMENT_3D('',#638,#639,#640);
#638 = CARTESIAN_POINT('',(-3.950001040317,3.000001040317,1.55));
#639 = DIRECTION('',(0.,0.,-1.));
#640 = DIRECTION('',(-0.999999999991,-4.161285828185E-06,-0.));
#641 = ORIENTED_EDGE('',*,*,#642,.F.);
#642 = EDGE_CURVE('',#643,#634,#645,.T.);
#643 = VERTEX_POINT('',#644);
#644 = CARTESIAN_POINT('',(-3.95,3.25,1.51));
#645 = LINE('',#646,#647);
#646 = CARTESIAN_POINT('',(-3.95,3.25,1.51));
#647 = VECTOR('',#648,1.);
#648 = DIRECTION('',(0.,0.,1.));
#649 = ORIENTED_EDGE('',*,*,#650,.F.);
#650 = EDGE_CURVE('',#624,#643,#651,.T.);
#651 = CIRCLE('',#652,0.249998959685);
#652 = AXIS2_PLACEMENT_3D('',#653,#654,#655);
#653 = CARTESIAN_POINT('',(-3.950001040317,3.000001040317,1.51));
#654 = DIRECTION('',(0.,0.,-1.));
#655 = DIRECTION('',(-0.999999999991,-4.161285828185E-06,-0.));
#656 = CYLINDRICAL_SURFACE('',#657,0.249998959685);
#657 = AXIS2_PLACEMENT_3D('',#658,#659,#660);
#658 = CARTESIAN_POINT('',(-3.950001040317,3.000001040317,1.51));
#659 = DIRECTION('',(0.,0.,-1.));
#660 = DIRECTION('',(-0.999999999991,-4.161285828185E-06,-0.));
#661 = ADVANCED_FACE('',(#662),#687,.T.);
#662 = FACE_BOUND('',#663,.T.);
#663 = EDGE_LOOP('',(#664,#665,#673,#681));
#664 = ORIENTED_EDGE('',*,*,#642,.T.);
#665 = ORIENTED_EDGE('',*,*,#666,.T.);
#666 = EDGE_CURVE('',#634,#667,#669,.T.);
#667 = VERTEX_POINT('',#668);
#668 = CARTESIAN_POINT('',(-2.85,3.25,1.55));
#669 = LINE('',#670,#671);
#670 = CARTESIAN_POINT('',(-3.95,3.25,1.55));
#671 = VECTOR('',#672,1.);
#672 = DIRECTION('',(1.,0.,0.));
#673 = ORIENTED_EDGE('',*,*,#674,.F.);
#674 = EDGE_CURVE('',#675,#667,#677,.T.);
#675 = VERTEX_POINT('',#676);
#676 = CARTESIAN_POINT('',(-2.85,3.25,1.51));
#677 = LINE('',#678,#679);
#678 = CARTESIAN_POINT('',(-2.85,3.25,1.51));
#679 = VECTOR('',#680,1.);
#680 = DIRECTION('',(0.,0.,1.));
#681 = ORIENTED_EDGE('',*,*,#682,.F.);
#682 = EDGE_CURVE('',#643,#675,#683,.T.);
#683 = LINE('',#684,#685);
#684 = CARTESIAN_POINT('',(-3.95,3.25,1.51));
#685 = VECTOR('',#686,1.);
#686 = DIRECTION('',(1.,0.,0.));
#687 = PLANE('',#688);
#688 = AXIS2_PLACEMENT_3D('',#689,#690,#691);
#689 = CARTESIAN_POINT('',(-3.95,3.25,1.51));
#690 = DIRECTION('',(0.,1.,0.));
#691 = DIRECTION('',(1.,0.,0.));
#692 = ADVANCED_FACE('',(#693),#720,.T.);
#693 = FACE_BOUND('',#694,.T.);
#694 = EDGE_LOOP('',(#695,#696,#705,#713));
#695 = ORIENTED_EDGE('',*,*,#674,.T.);
#696 = ORIENTED_EDGE('',*,*,#697,.T.);
#697 = EDGE_CURVE('',#667,#698,#700,.T.);
#698 = VERTEX_POINT('',#699);
#699 = CARTESIAN_POINT('',(-2.6,3.,1.55));
#700 = CIRCLE('',#701,0.249998959685);
#701 = AXIS2_PLACEMENT_3D('',#702,#703,#704);
#702 = CARTESIAN_POINT('',(-2.849998959683,3.000001040317,1.55));
#703 = DIRECTION('',(0.,0.,-1.));
#704 = DIRECTION('',(-4.161285833514E-06,0.999999999991,0.));
#705 = ORIENTED_EDGE('',*,*,#706,.F.);
#706 = EDGE_CURVE('',#707,#698,#709,.T.);
#707 = VERTEX_POINT('',#708);
#708 = CARTESIAN_POINT('',(-2.6,3.,1.51));
#709 = LINE('',#710,#711);
#710 = CARTESIAN_POINT('',(-2.6,3.,1.51));
#711 = VECTOR('',#712,1.);
#712 = DIRECTION('',(0.,0.,1.));
#713 = ORIENTED_EDGE('',*,*,#714,.F.);
#714 = EDGE_CURVE('',#675,#707,#715,.T.);
#715 = CIRCLE('',#716,0.249998959685);
#716 = AXIS2_PLACEMENT_3D('',#717,#718,#719);
#717 = CARTESIAN_POINT('',(-2.849998959683,3.000001040317,1.51));
#718 = DIRECTION('',(0.,0.,-1.));
#719 = DIRECTION('',(-4.161285833514E-06,0.999999999991,0.));
#720 = CYLINDRICAL_SURFACE('',#721,0.249998959685);
#721 = AXIS2_PLACEMENT_3D('',#722,#723,#724);
#722 = CARTESIAN_POINT('',(-2.849998959683,3.000001040317,1.51));
#723 = DIRECTION('',(0.,0.,-1.));
#724 = DIRECTION('',(-4.161285833514E-06,0.999999999991,0.));
#725 = ADVANCED_FACE('',(#726),#751,.T.);
#726 = FACE_BOUND('',#727,.T.);
#727 = EDGE_LOOP('',(#728,#729,#737,#745));
#728 = ORIENTED_EDGE('',*,*,#706,.T.);
#729 = ORIENTED_EDGE('',*,*,#730,.T.);
#730 = EDGE_CURVE('',#698,#731,#733,.T.);
#731 = VERTEX_POINT('',#732);
#732 = CARTESIAN_POINT('',(-2.6,0.5,1.55));
#733 = LINE('',#734,#735);
#734 = CARTESIAN_POINT('',(-2.6,3.,1.55));
#735 = VECTOR('',#736,1.);
#736 = DIRECTION('',(0.,-1.,0.));
#737 = ORIENTED_EDGE('',*,*,#738,.F.);
#738 = EDGE_CURVE('',#739,#731,#741,.T.);
#739 = VERTEX_POINT('',#740);
#740 = CARTESIAN_POINT('',(-2.6,0.5,1.51));
#741 = LINE('',#742,#743);
#742 = CARTESIAN_POINT('',(-2.6,0.5,1.51));
#743 = VECTOR('',#744,1.);
#744 = DIRECTION('',(0.,0.,1.));
#745 = ORIENTED_EDGE('',*,*,#746,.F.);
#746 = EDGE_CURVE('',#707,#739,#747,.T.);
#747 = LINE('',#748,#749);
#748 = CARTESIAN_POINT('',(-2.6,3.,1.51));
#749 = VECTOR('',#750,1.);
#750 = DIRECTION('',(0.,-1.,0.));
#751 = PLANE('',#752);
#752 = AXIS2_PLACEMENT_3D('',#753,#754,#755);
#753 = CARTESIAN_POINT('',(-2.6,3.,1.51));
#754 = DIRECTION('',(1.,0.,-0.));
#755 = DIRECTION('',(0.,-1.,0.));
#756 = ADVANCED_FACE('',(#757),#784,.T.);
#757 = FACE_BOUND('',#758,.T.);
#758 = EDGE_LOOP('',(#759,#760,#769,#777));
#759 = ORIENTED_EDGE('',*,*,#738,.T.);
#760 = ORIENTED_EDGE('',*,*,#761,.T.);
#761 = EDGE_CURVE('',#731,#762,#764,.T.);
#762 = VERTEX_POINT('',#763);
#763 = CARTESIAN_POINT('',(-2.85,0.25,1.55));
#764 = CIRCLE('',#765,0.249998959685);
#765 = AXIS2_PLACEMENT_3D('',#766,#767,#768);
#766 = CARTESIAN_POINT('',(-2.849998959683,0.499998959683,1.55));
#767 = DIRECTION('',(0.,0.,-1.));
#768 = DIRECTION('',(0.999999999991,4.161285832626E-06,0.));
#769 = ORIENTED_EDGE('',*,*,#770,.F.);
#770 = EDGE_CURVE('',#771,#762,#773,.T.);
#771 = VERTEX_POINT('',#772);
#772 = CARTESIAN_POINT('',(-2.85,0.25,1.51));
#773 = LINE('',#774,#775);
#774 = CARTESIAN_POINT('',(-2.85,0.25,1.51));
#775 = VECTOR('',#776,1.);
#776 = DIRECTION('',(0.,0.,1.));
#777 = ORIENTED_EDGE('',*,*,#778,.F.);
#778 = EDGE_CURVE('',#739,#771,#779,.T.);
#779 = CIRCLE('',#780,0.249998959685);
#780 = AXIS2_PLACEMENT_3D('',#781,#782,#783);
#781 = CARTESIAN_POINT('',(-2.849998959683,0.499998959683,1.51));
#782 = DIRECTION('',(0.,0.,-1.));
#783 = DIRECTION('',(0.999999999991,4.161285832626E-06,0.));
#784 = CYLINDRICAL_SURFACE('',#785,0.249998959685);
#785 = AXIS2_PLACEMENT_3D('',#786,#787,#788);
#786 = CARTESIAN_POINT('',(-2.849998959683,0.499998959683,1.51));
#787 = DIRECTION('',(0.,0.,-1.));
#788 = DIRECTION('',(0.999999999991,4.161285832626E-06,0.));
#789 = ADVANCED_FACE('',(#790),#815,.T.);
#790 = FACE_BOUND('',#791,.T.);
#791 = EDGE_LOOP('',(#792,#793,#801,#809));
#792 = ORIENTED_EDGE('',*,*,#770,.T.);
#793 = ORIENTED_EDGE('',*,*,#794,.T.);
#794 = EDGE_CURVE('',#762,#795,#797,.T.);
#795 = VERTEX_POINT('',#796);
#796 = CARTESIAN_POINT('',(-3.95,0.25,1.55));
#797 = LINE('',#798,#799);
#798 = CARTESIAN_POINT('',(-2.85,0.25,1.55));
#799 = VECTOR('',#800,1.);
#800 = DIRECTION('',(-1.,0.,0.));
#801 = ORIENTED_EDGE('',*,*,#802,.F.);
#802 = EDGE_CURVE('',#803,#795,#805,.T.);
#803 = VERTEX_POINT('',#804);
#804 = CARTESIAN_POINT('',(-3.95,0.25,1.51));
#805 = LINE('',#806,#807);
#806 = CARTESIAN_POINT('',(-3.95,0.25,1.51));
#807 = VECTOR('',#808,1.);
#808 = DIRECTION('',(0.,0.,1.));
#809 = ORIENTED_EDGE('',*,*,#810,.F.);
#810 = EDGE_CURVE('',#771,#803,#811,.T.);
#811 = LINE('',#812,#813);
#812 = CARTESIAN_POINT('',(-2.85,0.25,1.51));
#813 = VECTOR('',#814,1.);
#814 = DIRECTION('',(-1.,0.,0.));
#815 = PLANE('',#816);
#816 = AXIS2_PLACEMENT_3D('',#817,#818,#819);
#817 = CARTESIAN_POINT('',(-2.85,0.25,1.51));
#818 = DIRECTION('',(0.,-1.,0.));
#819 = DIRECTION('',(-1.,0.,0.));
#820 = ADVANCED_FACE('',(#821),#848,.T.);
#821 = FACE_BOUND('',#822,.T.);
#822 = EDGE_LOOP('',(#823,#824,#833,#841));
#823 = ORIENTED_EDGE('',*,*,#802,.T.);
#824 = ORIENTED_EDGE('',*,*,#825,.T.);
#825 = EDGE_CURVE('',#795,#826,#828,.T.);
#826 = VERTEX_POINT('',#827);
#827 = CARTESIAN_POINT('',(-4.2,0.5,1.55));
#828 = CIRCLE('',#829,0.249998959685);
#829 = AXIS2_PLACEMENT_3D('',#830,#831,#832);
#830 = CARTESIAN_POINT('',(-3.950001040317,0.499998959683,1.55));
#831 = DIRECTION('',(0.,0.,-1.));
#832 = DIRECTION('',(4.161285829961E-06,-0.999999999991,0.));
#833 = ORIENTED_EDGE('',*,*,#834,.F.);
#834 = EDGE_CURVE('',#835,#826,#837,.T.);
#835 = VERTEX_POINT('',#836);
#836 = CARTESIAN_POINT('',(-4.2,0.5,1.51));
#837 = LINE('',#838,#839);
#838 = CARTESIAN_POINT('',(-4.2,0.5,1.51));
#839 = VECTOR('',#840,1.);
#840 = DIRECTION('',(0.,0.,1.));
#841 = ORIENTED_EDGE('',*,*,#842,.F.);
#842 = EDGE_CURVE('',#803,#835,#843,.T.);
#843 = CIRCLE('',#844,0.249998959685);
#844 = AXIS2_PLACEMENT_3D('',#845,#846,#847);
#845 = CARTESIAN_POINT('',(-3.950001040317,0.499998959683,1.51));
#846 = DIRECTION('',(0.,0.,-1.));
#847 = DIRECTION('',(4.161285829961E-06,-0.999999999991,0.));
#848 = CYLINDRICAL_SURFACE('',#849,0.249998959685);
#849 = AXIS2_PLACEMENT_3D('',#850,#851,#852);
#850 = CARTESIAN_POINT('',(-3.950001040317,0.499998959683,1.51));
#851 = DIRECTION('',(0.,0.,-1.));
#852 = DIRECTION('',(4.161285829961E-06,-0.999999999991,0.));
#853 = ADVANCED_FACE('',(#854),#870,.T.);
#854 = FACE_BOUND('',#855,.T.);
#855 = EDGE_LOOP('',(#856,#857,#863,#864));
#856 = ORIENTED_EDGE('',*,*,#834,.T.);
#857 = ORIENTED_EDGE('',*,*,#858,.T.);
#858 = EDGE_CURVE('',#826,#626,#859,.T.);
#859 = LINE('',#860,#861);
#860 = CARTESIAN_POINT('',(-4.2,0.5,1.55));
#861 = VECTOR('',#862,1.);
#862 = DIRECTION('',(0.,1.,0.));
#863 = ORIENTED_EDGE('',*,*,#623,.F.);
#864 = ORIENTED_EDGE('',*,*,#865,.F.);
#865 = EDGE_CURVE('',#835,#624,#866,.T.);
#866 = LINE('',#867,#868);
#867 = CARTESIAN_POINT('',(-4.2,0.5,1.51));
#868 = VECTOR('',#869,1.);
#869 = DIRECTION('',(0.,1.,0.));
#870 = PLANE('',#871);
#871 = AXIS2_PLACEMENT_3D('',#872,#873,#874);
#872 = CARTESIAN_POINT('',(-4.2,0.5,1.51));
#873 = DIRECTION('',(-1.,0.,0.));
#874 = DIRECTION('',(0.,1.,0.));
#875 = ADVANCED_FACE('',(#876),#886,.F.);
#876 = FACE_BOUND('',#877,.T.);
#877 = EDGE_LOOP('',(#878,#879,#880,#881,#882,#883,#884,#885));
#878 = ORIENTED_EDGE('',*,*,#650,.T.);
#879 = ORIENTED_EDGE('',*,*,#682,.T.);
#880 = ORIENTED_EDGE('',*,*,#714,.T.);
#881 = ORIENTED_EDGE('',*,*,#746,.T.);
#882 = ORIENTED_EDGE('',*,*,#778,.T.);
#883 = ORIENTED_EDGE('',*,*,#810,.T.);
#884 = ORIENTED_EDGE('',*,*,#842,.T.);
#885 = ORIENTED_EDGE('',*,*,#865,.T.);
#886 = PLANE('',#887);
#887 = AXIS2_PLACEMENT_3D('',#888,#889,#890);
#888 = CARTESIAN_POINT('',(0.,0.,1.51));
#889 = DIRECTION('',(0.,0.,1.));
#890 = DIRECTION('',(1.,0.,-0.));
#891 = ADVANCED_FACE('',(#892),#902,.T.);
#892 = FACE_BOUND('',#893,.F.);
#893 = EDGE_LOOP('',(#894,#895,#896,#897,#898,#899,#900,#901));
#894 = ORIENTED_EDGE('',*,*,#633,.T.);
#895 = ORIENTED_EDGE('',*,*,#666,.T.);
#896 = ORIENTED_EDGE('',*,*,#697,.T.);
#897 = ORIENTED_EDGE('',*,*,#730,.T.);
#898 = ORIENTED_EDGE('',*,*,#761,.T.);
#899 = ORIENTED_EDGE('',*,*,#794,.T.);
#900 = ORIENTED_EDGE('',*,*,#825,.T.);
#901 = ORIENTED_EDGE('',*,*,#858,.T.);
#902 = PLANE('',#903);
#903 = AXIS2_PLACEMENT_3D('',#904,#905,#906);
#904 = CARTESIAN_POINT('',(0.,0.,1.55));
#905 = DIRECTION('',(0.,0.,1.));
#906 = DIRECTION('',(1.,0.,-0.));
#907 = MANIFOLD_SOLID_BREP('',#908);
#908 = CLOSED_SHELL('',(#909,#951,#982,#1015,#1046,#1079,#1110,#1143,
    #1165,#1181));
#909 = ADVANCED_FACE('',(#910),#946,.T.);
#910 = FACE_BOUND('',#911,.T.);
#911 = EDGE_LOOP('',(#912,#922,#931,#939));
#912 = ORIENTED_EDGE('',*,*,#913,.T.);
#913 = EDGE_CURVE('',#914,#916,#918,.T.);
#914 = VERTEX_POINT('',#915);
#915 = CARTESIAN_POINT('',(2.6,3.,1.51));
#916 = VERTEX_POINT('',#917);
#917 = CARTESIAN_POINT('',(2.6,3.,1.55));
#918 = LINE('',#919,#920);
#919 = CARTESIAN_POINT('',(2.6,3.,1.51));
#920 = VECTOR('',#921,1.);
#921 = DIRECTION('',(0.,0.,1.));
#922 = ORIENTED_EDGE('',*,*,#923,.T.);
#923 = EDGE_CURVE('',#916,#924,#926,.T.);
#924 = VERTEX_POINT('',#925);
#925 = CARTESIAN_POINT('',(2.85,3.25,1.55));
#926 = CIRCLE('',#927,0.249998959685);
#927 = AXIS2_PLACEMENT_3D('',#928,#929,#930);
#928 = CARTESIAN_POINT('',(2.849998959683,3.000001040317,1.55));
#929 = DIRECTION('',(0.,0.,-1.));
#930 = DIRECTION('',(-0.999999999991,-4.161285831737E-06,-0.));
#931 = ORIENTED_EDGE('',*,*,#932,.F.);
#932 = EDGE_CURVE('',#933,#924,#935,.T.);
#933 = VERTEX_POINT('',#934);
#934 = CARTESIAN_POINT('',(2.85,3.25,1.51));
#935 = LINE('',#936,#937);
#936 = CARTESIAN_POINT('',(2.85,3.25,1.51));
#937 = VECTOR('',#938,1.);
#938 = DIRECTION('',(0.,0.,1.));
#939 = ORIENTED_EDGE('',*,*,#940,.F.);
#940 = EDGE_CURVE('',#914,#933,#941,.T.);
#941 = CIRCLE('',#942,0.249998959685);
#942 = AXIS2_PLACEMENT_3D('',#943,#944,#945);
#943 = CARTESIAN_POINT('',(2.849998959683,3.000001040317,1.51));
#944 = DIRECTION('',(0.,0.,-1.));
#945 = DIRECTION('',(-0.999999999991,-4.161285831737E-06,-0.));
#946 = CYLINDRICAL_SURFACE('',#947,0.249998959685);
#947 = AXIS2_PLACEMENT_3D('',#948,#949,#950);
#948 = CARTESIAN_POINT('',(2.849998959683,3.000001040317,1.51));
#949 = DIRECTION('',(0.,0.,-1.));
#950 = DIRECTION('',(-0.999999999991,-4.161285831737E-06,-0.));
#951 = ADVANCED_FACE('',(#952),#977,.T.);
#952 = FACE_BOUND('',#953,.T.);
#953 = EDGE_LOOP('',(#954,#955,#963,#971));
#954 = ORIENTED_EDGE('',*,*,#932,.T.);
#955 = ORIENTED_EDGE('',*,*,#956,.T.);
#956 = EDGE_CURVE('',#924,#957,#959,.T.);
#957 = VERTEX_POINT('',#958);
#958 = CARTESIAN_POINT('',(3.95,3.25,1.55));
#959 = LINE('',#960,#961);
#960 = CARTESIAN_POINT('',(2.85,3.25,1.55));
#961 = VECTOR('',#962,1.);
#962 = DIRECTION('',(1.,0.,0.));
#963 = ORIENTED_EDGE('',*,*,#964,.F.);
#964 = EDGE_CURVE('',#965,#957,#967,.T.);
#965 = VERTEX_POINT('',#966);
#966 = CARTESIAN_POINT('',(3.95,3.25,1.51));
#967 = LINE('',#968,#969);
#968 = CARTESIAN_POINT('',(3.95,3.25,1.51));
#969 = VECTOR('',#970,1.);
#970 = DIRECTION('',(0.,0.,1.));
#971 = ORIENTED_EDGE('',*,*,#972,.F.);
#972 = EDGE_CURVE('',#933,#965,#973,.T.);
#973 = LINE('',#974,#975);
#974 = CARTESIAN_POINT('',(2.85,3.25,1.51));
#975 = VECTOR('',#976,1.);
#976 = DIRECTION('',(1.,0.,0.));
#977 = PLANE('',#978);
#978 = AXIS2_PLACEMENT_3D('',#979,#980,#981);
#979 = CARTESIAN_POINT('',(2.85,3.25,1.51));
#980 = DIRECTION('',(0.,1.,0.));
#981 = DIRECTION('',(1.,0.,0.));
#982 = ADVANCED_FACE('',(#983),#1010,.T.);
#983 = FACE_BOUND('',#984,.T.);
#984 = EDGE_LOOP('',(#985,#986,#995,#1003));
#985 = ORIENTED_EDGE('',*,*,#964,.T.);
#986 = ORIENTED_EDGE('',*,*,#987,.T.);
#987 = EDGE_CURVE('',#957,#988,#990,.T.);
#988 = VERTEX_POINT('',#989);
#989 = CARTESIAN_POINT('',(4.2,3.,1.55));
#990 = CIRCLE('',#991,0.249998959685);
#991 = AXIS2_PLACEMENT_3D('',#992,#993,#994);
#992 = CARTESIAN_POINT('',(3.950001040317,3.000001040317,1.55));
#993 = DIRECTION('',(0.,0.,-1.));
#994 = DIRECTION('',(-4.161285829961E-06,0.999999999991,0.));
#995 = ORIENTED_EDGE('',*,*,#996,.F.);
#996 = EDGE_CURVE('',#997,#988,#999,.T.);
#997 = VERTEX_POINT('',#998);
#998 = CARTESIAN_POINT('',(4.2,3.,1.51));
#999 = LINE('',#1000,#1001);
#1000 = CARTESIAN_POINT('',(4.2,3.,1.51));
#1001 = VECTOR('',#1002,1.);
#1002 = DIRECTION('',(0.,0.,1.));
#1003 = ORIENTED_EDGE('',*,*,#1004,.F.);
#1004 = EDGE_CURVE('',#965,#997,#1005,.T.);
#1005 = CIRCLE('',#1006,0.249998959685);
#1006 = AXIS2_PLACEMENT_3D('',#1007,#1008,#1009);
#1007 = CARTESIAN_POINT('',(3.950001040317,3.000001040317,1.51));
#1008 = DIRECTION('',(0.,0.,-1.));
#1009 = DIRECTION('',(-4.161285829961E-06,0.999999999991,0.));
#1010 = CYLINDRICAL_SURFACE('',#1011,0.249998959685);
#1011 = AXIS2_PLACEMENT_3D('',#1012,#1013,#1014);
#1012 = CARTESIAN_POINT('',(3.950001040317,3.000001040317,1.51));
#1013 = DIRECTION('',(0.,0.,-1.));
#1014 = DIRECTION('',(-4.161285829961E-06,0.999999999991,0.));
#1015 = ADVANCED_FACE('',(#1016),#1041,.T.);
#1016 = FACE_BOUND('',#1017,.T.);
#1017 = EDGE_LOOP('',(#1018,#1019,#1027,#1035));
#1018 = ORIENTED_EDGE('',*,*,#996,.T.);
#1019 = ORIENTED_EDGE('',*,*,#1020,.T.);
#1020 = EDGE_CURVE('',#988,#1021,#1023,.T.);
#1021 = VERTEX_POINT('',#1022);
#1022 = CARTESIAN_POINT('',(4.2,0.5,1.55));
#1023 = LINE('',#1024,#1025);
#1024 = CARTESIAN_POINT('',(4.2,3.,1.55));
#1025 = VECTOR('',#1026,1.);
#1026 = DIRECTION('',(0.,-1.,0.));
#1027 = ORIENTED_EDGE('',*,*,#1028,.F.);
#1028 = EDGE_CURVE('',#1029,#1021,#1031,.T.);
#1029 = VERTEX_POINT('',#1030);
#1030 = CARTESIAN_POINT('',(4.2,0.5,1.51));
#1031 = LINE('',#1032,#1033);
#1032 = CARTESIAN_POINT('',(4.2,0.5,1.51));
#1033 = VECTOR('',#1034,1.);
#1034 = DIRECTION('',(0.,0.,1.));
#1035 = ORIENTED_EDGE('',*,*,#1036,.F.);
#1036 = EDGE_CURVE('',#997,#1029,#1037,.T.);
#1037 = LINE('',#1038,#1039);
#1038 = CARTESIAN_POINT('',(4.2,3.,1.51));
#1039 = VECTOR('',#1040,1.);
#1040 = DIRECTION('',(0.,-1.,0.));
#1041 = PLANE('',#1042);
#1042 = AXIS2_PLACEMENT_3D('',#1043,#1044,#1045);
#1043 = CARTESIAN_POINT('',(4.2,3.,1.51));
#1044 = DIRECTION('',(1.,0.,-0.));
#1045 = DIRECTION('',(0.,-1.,0.));
#1046 = ADVANCED_FACE('',(#1047),#1074,.T.);
#1047 = FACE_BOUND('',#1048,.T.);
#1048 = EDGE_LOOP('',(#1049,#1050,#1059,#1067));
#1049 = ORIENTED_EDGE('',*,*,#1028,.T.);
#1050 = ORIENTED_EDGE('',*,*,#1051,.T.);
#1051 = EDGE_CURVE('',#1021,#1052,#1054,.T.);
#1052 = VERTEX_POINT('',#1053);
#1053 = CARTESIAN_POINT('',(3.95,0.25,1.55));
#1054 = CIRCLE('',#1055,0.249998959685);
#1055 = AXIS2_PLACEMENT_3D('',#1056,#1057,#1058);
#1056 = CARTESIAN_POINT('',(3.950001040317,0.499998959683,1.55));
#1057 = DIRECTION('',(0.,0.,-1.));
#1058 = DIRECTION('',(0.999999999991,4.161285829517E-06,0.));
#1059 = ORIENTED_EDGE('',*,*,#1060,.F.);
#1060 = EDGE_CURVE('',#1061,#1052,#1063,.T.);
#1061 = VERTEX_POINT('',#1062);
#1062 = CARTESIAN_POINT('',(3.95,0.25,1.51));
#1063 = LINE('',#1064,#1065);
#1064 = CARTESIAN_POINT('',(3.95,0.25,1.51));
#1065 = VECTOR('',#1066,1.);
#1066 = DIRECTION('',(0.,0.,1.));
#1067 = ORIENTED_EDGE('',*,*,#1068,.F.);
#1068 = EDGE_CURVE('',#1029,#1061,#1069,.T.);
#1069 = CIRCLE('',#1070,0.249998959685);
#1070 = AXIS2_PLACEMENT_3D('',#1071,#1072,#1073);
#1071 = CARTESIAN_POINT('',(3.950001040317,0.499998959683,1.51));
#1072 = DIRECTION('',(0.,0.,-1.));
#1073 = DIRECTION('',(0.999999999991,4.161285829517E-06,0.));
#1074 = CYLINDRICAL_SURFACE('',#1075,0.249998959685);
#1075 = AXIS2_PLACEMENT_3D('',#1076,#1077,#1078);
#1076 = CARTESIAN_POINT('',(3.950001040317,0.499998959683,1.51));
#1077 = DIRECTION('',(0.,0.,-1.));
#1078 = DIRECTION('',(0.999999999991,4.161285829517E-06,0.));
#1079 = ADVANCED_FACE('',(#1080),#1105,.T.);
#1080 = FACE_BOUND('',#1081,.T.);
#1081 = EDGE_LOOP('',(#1082,#1083,#1091,#1099));
#1082 = ORIENTED_EDGE('',*,*,#1060,.T.);
#1083 = ORIENTED_EDGE('',*,*,#1084,.T.);
#1084 = EDGE_CURVE('',#1052,#1085,#1087,.T.);
#1085 = VERTEX_POINT('',#1086);
#1086 = CARTESIAN_POINT('',(2.85,0.25,1.55));
#1087 = LINE('',#1088,#1089);
#1088 = CARTESIAN_POINT('',(3.95,0.25,1.55));
#1089 = VECTOR('',#1090,1.);
#1090 = DIRECTION('',(-1.,0.,0.));
#1091 = ORIENTED_EDGE('',*,*,#1092,.F.);
#1092 = EDGE_CURVE('',#1093,#1085,#1095,.T.);
#1093 = VERTEX_POINT('',#1094);
#1094 = CARTESIAN_POINT('',(2.85,0.25,1.51));
#1095 = LINE('',#1096,#1097);
#1096 = CARTESIAN_POINT('',(2.85,0.25,1.51));
#1097 = VECTOR('',#1098,1.);
#1098 = DIRECTION('',(0.,0.,1.));
#1099 = ORIENTED_EDGE('',*,*,#1100,.F.);
#1100 = EDGE_CURVE('',#1061,#1093,#1101,.T.);
#1101 = LINE('',#1102,#1103);
#1102 = CARTESIAN_POINT('',(3.95,0.25,1.51));
#1103 = VECTOR('',#1104,1.);
#1104 = DIRECTION('',(-1.,0.,0.));
#1105 = PLANE('',#1106);
#1106 = AXIS2_PLACEMENT_3D('',#1107,#1108,#1109);
#1107 = CARTESIAN_POINT('',(3.95,0.25,1.51));
#1108 = DIRECTION('',(0.,-1.,0.));
#1109 = DIRECTION('',(-1.,0.,0.));
#1110 = ADVANCED_FACE('',(#1111),#1138,.T.);
#1111 = FACE_BOUND('',#1112,.T.);
#1112 = EDGE_LOOP('',(#1113,#1114,#1123,#1131));
#1113 = ORIENTED_EDGE('',*,*,#1092,.T.);
#1114 = ORIENTED_EDGE('',*,*,#1115,.T.);
#1115 = EDGE_CURVE('',#1085,#1116,#1118,.T.);
#1116 = VERTEX_POINT('',#1117);
#1117 = CARTESIAN_POINT('',(2.6,0.5,1.55));
#1118 = CIRCLE('',#1119,0.249998959685);
#1119 = AXIS2_PLACEMENT_3D('',#1120,#1121,#1122);
#1120 = CARTESIAN_POINT('',(2.849998959683,0.499998959683,1.55));
#1121 = DIRECTION('',(0.,0.,-1.));
#1122 = DIRECTION('',(4.161285833514E-06,-0.999999999991,0.));
#1123 = ORIENTED_EDGE('',*,*,#1124,.F.);
#1124 = EDGE_CURVE('',#1125,#1116,#1127,.T.);
#1125 = VERTEX_POINT('',#1126);
#1126 = CARTESIAN_POINT('',(2.6,0.5,1.51));
#1127 = LINE('',#1128,#1129);
#1128 = CARTESIAN_POINT('',(2.6,0.5,1.51));
#1129 = VECTOR('',#1130,1.);
#1130 = DIRECTION('',(0.,0.,1.));
#1131 = ORIENTED_EDGE('',*,*,#1132,.F.);
#1132 = EDGE_CURVE('',#1093,#1125,#1133,.T.);
#1133 = CIRCLE('',#1134,0.249998959685);
#1134 = AXIS2_PLACEMENT_3D('',#1135,#1136,#1137);
#1135 = CARTESIAN_POINT('',(2.849998959683,0.499998959683,1.51));
#1136 = DIRECTION('',(0.,0.,-1.));
#1137 = DIRECTION('',(4.161285833514E-06,-0.999999999991,0.));
#1138 = CYLINDRICAL_SURFACE('',#1139,0.249998959685);
#1139 = AXIS2_PLACEMENT_3D('',#1140,#1141,#1142);
#1140 = CARTESIAN_POINT('',(2.849998959683,0.499998959683,1.51));
#1141 = DIRECTION('',(0.,0.,-1.));
#1142 = DIRECTION('',(4.161285833514E-06,-0.999999999991,0.));
#1143 = ADVANCED_FACE('',(#1144),#1160,.T.);
#1144 = FACE_BOUND('',#1145,.T.);
#1145 = EDGE_LOOP('',(#1146,#1147,#1153,#1154));
#1146 = ORIENTED_EDGE('',*,*,#1124,.T.);
#1147 = ORIENTED_EDGE('',*,*,#1148,.T.);
#1148 = EDGE_CURVE('',#1116,#916,#1149,.T.);
#1149 = LINE('',#1150,#1151);
#1150 = CARTESIAN_POINT('',(2.6,0.5,1.55));
#1151 = VECTOR('',#1152,1.);
#1152 = DIRECTION('',(0.,1.,0.));
#1153 = ORIENTED_EDGE('',*,*,#913,.F.);
#1154 = ORIENTED_EDGE('',*,*,#1155,.F.);
#1155 = EDGE_CURVE('',#1125,#914,#1156,.T.);
#1156 = LINE('',#1157,#1158);
#1157 = CARTESIAN_POINT('',(2.6,0.5,1.51));
#1158 = VECTOR('',#1159,1.);
#1159 = DIRECTION('',(0.,1.,0.));
#1160 = PLANE('',#1161);
#1161 = AXIS2_PLACEMENT_3D('',#1162,#1163,#1164);
#1162 = CARTESIAN_POINT('',(2.6,0.5,1.51));
#1163 = DIRECTION('',(-1.,0.,0.));
#1164 = DIRECTION('',(0.,1.,0.));
#1165 = ADVANCED_FACE('',(#1166),#1176,.F.);
#1166 = FACE_BOUND('',#1167,.T.);
#1167 = EDGE_LOOP('',(#1168,#1169,#1170,#1171,#1172,#1173,#1174,#1175));
#1168 = ORIENTED_EDGE('',*,*,#940,.T.);
#1169 = ORIENTED_EDGE('',*,*,#972,.T.);
#1170 = ORIENTED_EDGE('',*,*,#1004,.T.);
#1171 = ORIENTED_EDGE('',*,*,#1036,.T.);
#1172 = ORIENTED_EDGE('',*,*,#1068,.T.);
#1173 = ORIENTED_EDGE('',*,*,#1100,.T.);
#1174 = ORIENTED_EDGE('',*,*,#1132,.T.);
#1175 = ORIENTED_EDGE('',*,*,#1155,.T.);
#1176 = PLANE('',#1177);
#1177 = AXIS2_PLACEMENT_3D('',#1178,#1179,#1180);
#1178 = CARTESIAN_POINT('',(0.,0.,1.51));
#1179 = DIRECTION('',(0.,0.,1.));
#1180 = DIRECTION('',(1.,0.,-0.));
#1181 = ADVANCED_FACE('',(#1182),#1192,.T.);
#1182 = FACE_BOUND('',#1183,.F.);
#1183 = EDGE_LOOP('',(#1184,#1185,#1186,#1187,#1188,#1189,#1190,#1191));
#1184 = ORIENTED_EDGE('',*,*,#923,.T.);
#1185 = ORIENTED_EDGE('',*,*,#956,.T.);
#1186 = ORIENTED_EDGE('',*,*,#987,.T.);
#1187 = ORIENTED_EDGE('',*,*,#1020,.T.);
#1188 = ORIENTED_EDGE('',*,*,#1051,.T.);
#1189 = ORIENTED_EDGE('',*,*,#1084,.T.);
#1190 = ORIENTED_EDGE('',*,*,#1115,.T.);
#1191 = ORIENTED_EDGE('',*,*,#1148,.T.);
#1192 = PLANE('',#1193);
#1193 = AXIS2_PLACEMENT_3D('',#1194,#1195,#1196);
#1194 = CARTESIAN_POINT('',(0.,0.,1.55));
#1195 = DIRECTION('',(0.,0.,1.));
#1196 = DIRECTION('',(1.,0.,-0.));
#1197 = ( GEOMETRIC_REPRESENTATION_CONTEXT(3) 
GLOBAL_UNCERTAINTY_ASSIGNED_CONTEXT((#1201)) 
GLOBAL_UNIT_ASSIGNED_CONTEXT((#1198,#1199,#1200)) REPRESENTATION_CONTEXT
('Context #1','3D Context with UNIT and UNCERTAINTY') );
#1198 = ( LENGTH_UNIT() NAMED_UNIT(*) SI_UNIT(.MILLI.,.METRE.) );
#1199 = ( NAMED_UNIT(*) PLANE_ANGLE_UNIT() SI_UNIT($,.RADIAN.) );
#1200 = ( NAMED_UNIT(*) SI_UNIT($,.STERADIAN.) SOLID_ANGLE_UNIT() );
#1201 = UNCERTAINTY_MEASURE_WITH_UNIT(LENGTH_MEASURE(1.E-07),#1198,
  'distance_accuracy_value','confusion accuracy');
#1202 = CONTEXT_DEPENDENT_SHAPE_REPRESENTATION(#1203,#1205);
#1203 = ( REPRESENTATION_RELATIONSHIP('','',#36,#10) 
REPRESENTATION_RELATIONSHIP_WITH_TRANSFORMATION(#1204) 
SHAPE_REPRESENTATION_RELATIONSHIP() );
#1204 = ITEM_DEFINED_TRANSFORMATION('','',#11,#15);
#1205 = PRODUCT_DEFINITION_SHAPE('Placement','Placement of an item',
  #1206);
#1206 = NEXT_ASSEMBLY_USAGE_OCCURRENCE('1','=>[0:1:1:2]','',#5,#31,$);
#1207 = PRODUCT_RELATED_PRODUCT_CATEGORY('part',$,(#33));
#1208 = SHAPE_DEFINITION_REPRESENTATION(#1209,#1215);
#1209 = PRODUCT_DEFINITION_SHAPE('','',#1210);
#1210 = PRODUCT_DEFINITION('design','',#1211,#1214);
#1211 = PRODUCT_DEFINITION_FORMATION('','',#1212);
#1212 = PRODUCT(
'electronic_connector_jst_ph_2_mm_pitch_surface_mount_vertical_2_pin_
jst_b2b_ph_sm4_tb_render_PCB',
'electronic_connector_jst_ph_2_mm_pitch_surface_mount_vertical_2_pin_
jst_b2b_ph_sm4_tb_render_PCB','',(#1213));
#1213 = PRODUCT_CONTEXT('',#2,'mechanical');
#1214 = PRODUCT_DEFINITION_CONTEXT('part definition',#2,'design');
#1215 = ADVANCED_BREP_SHAPE_REPRESENTATION('',(#11,#1216),#1366);
#1216 = MANIFOLD_SOLID_BREP('',#1217);
#1217 = CLOSED_SHELL('',(#1218,#1258,#1289,#1320,#1342,#1354));
#1218 = ADVANCED_FACE('',(#1219),#1253,.T.);
#1219 = FACE_BOUND('',#1220,.T.);
#1220 = EDGE_LOOP('',(#1221,#1231,#1239,#1247));
#1221 = ORIENTED_EDGE('',*,*,#1222,.T.);
#1222 = EDGE_CURVE('',#1223,#1225,#1227,.T.);
#1223 = VERTEX_POINT('',#1224);
#1224 = CARTESIAN_POINT('',(6.7,-5.75,0.));
#1225 = VERTEX_POINT('',#1226);
#1226 = CARTESIAN_POINT('',(6.7,-5.75,1.51));
#1227 = LINE('',#1228,#1229);
#1228 = CARTESIAN_POINT('',(6.7,-5.75,0.));
#1229 = VECTOR('',#1230,1.);
#1230 = DIRECTION('',(0.,0.,1.));
#1231 = ORIENTED_EDGE('',*,*,#1232,.T.);
#1232 = EDGE_CURVE('',#1225,#1233,#1235,.T.);
#1233 = VERTEX_POINT('',#1234);
#1234 = CARTESIAN_POINT('',(-6.7,-5.75,1.51));
#1235 = LINE('',#1236,#1237);
#1236 = CARTESIAN_POINT('',(6.7,-5.75,1.51));
#1237 = VECTOR('',#1238,1.);
#1238 = DIRECTION('',(-1.,0.,0.));
#1239 = ORIENTED_EDGE('',*,*,#1240,.F.);
#1240 = EDGE_CURVE('',#1241,#1233,#1243,.T.);
#1241 = VERTEX_POINT('',#1242);
#1242 = CARTESIAN_POINT('',(-6.7,-5.75,0.));
#1243 = LINE('',#1244,#1245);
#1244 = CARTESIAN_POINT('',(-6.7,-5.75,0.));
#1245 = VECTOR('',#1246,1.);
#1246 = DIRECTION('',(0.,0.,1.));
#1247 = ORIENTED_EDGE('',*,*,#1248,.F.);
#1248 = EDGE_CURVE('',#1223,#1241,#1249,.T.);
#1249 = LINE('',#1250,#1251);
#1250 = CARTESIAN_POINT('',(6.7,-5.75,0.));
#1251 = VECTOR('',#1252,1.);
#1252 = DIRECTION('',(-1.,0.,0.));
#1253 = PLANE('',#1254);
#1254 = AXIS2_PLACEMENT_3D('',#1255,#1256,#1257);
#1255 = CARTESIAN_POINT('',(6.7,-5.75,0.));
#1256 = DIRECTION('',(0.,-1.,0.));
#1257 = DIRECTION('',(-1.,0.,0.));
#1258 = ADVANCED_FACE('',(#1259),#1284,.T.);
#1259 = FACE_BOUND('',#1260,.T.);
#1260 = EDGE_LOOP('',(#1261,#1262,#1270,#1278));
#1261 = ORIENTED_EDGE('',*,*,#1240,.T.);
#1262 = ORIENTED_EDGE('',*,*,#1263,.T.);
#1263 = EDGE_CURVE('',#1233,#1264,#1266,.T.);
#1264 = VERTEX_POINT('',#1265);
#1265 = CARTESIAN_POINT('',(-6.7,6.75,1.51));
#1266 = LINE('',#1267,#1268);
#1267 = CARTESIAN_POINT('',(-6.7,-5.75,1.51));
#1268 = VECTOR('',#1269,1.);
#1269 = DIRECTION('',(0.,1.,0.));
#1270 = ORIENTED_EDGE('',*,*,#1271,.F.);
#1271 = EDGE_CURVE('',#1272,#1264,#1274,.T.);
#1272 = VERTEX_POINT('',#1273);
#1273 = CARTESIAN_POINT('',(-6.7,6.75,0.));
#1274 = LINE('',#1275,#1276);
#1275 = CARTESIAN_POINT('',(-6.7,6.75,0.));
#1276 = VECTOR('',#1277,1.);
#1277 = DIRECTION('',(0.,0.,1.));
#1278 = ORIENTED_EDGE('',*,*,#1279,.F.);
#1279 = EDGE_CURVE('',#1241,#1272,#1280,.T.);
#1280 = LINE('',#1281,#1282);
#1281 = CARTESIAN_POINT('',(-6.7,-5.75,0.));
#1282 = VECTOR('',#1283,1.);
#1283 = DIRECTION('',(0.,1.,0.));
#1284 = PLANE('',#1285);
#1285 = AXIS2_PLACEMENT_3D('',#1286,#1287,#1288);
#1286 = CARTESIAN_POINT('',(-6.7,-5.75,0.));
#1287 = DIRECTION('',(-1.,0.,0.));
#1288 = DIRECTION('',(0.,1.,0.));
#1289 = ADVANCED_FACE('',(#1290),#1315,.T.);
#1290 = FACE_BOUND('',#1291,.T.);
#1291 = EDGE_LOOP('',(#1292,#1293,#1301,#1309));
#1292 = ORIENTED_EDGE('',*,*,#1271,.T.);
#1293 = ORIENTED_EDGE('',*,*,#1294,.T.);
#1294 = EDGE_CURVE('',#1264,#1295,#1297,.T.);
#1295 = VERTEX_POINT('',#1296);
#1296 = CARTESIAN_POINT('',(6.7,6.75,1.51));
#1297 = LINE('',#1298,#1299);
#1298 = CARTESIAN_POINT('',(-6.7,6.75,1.51));
#1299 = VECTOR('',#1300,1.);
#1300 = DIRECTION('',(1.,0.,0.));
#1301 = ORIENTED_EDGE('',*,*,#1302,.F.);
#1302 = EDGE_CURVE('',#1303,#1295,#1305,.T.);
#1303 = VERTEX_POINT('',#1304);
#1304 = CARTESIAN_POINT('',(6.7,6.75,0.));
#1305 = LINE('',#1306,#1307);
#1306 = CARTESIAN_POINT('',(6.7,6.75,0.));
#1307 = VECTOR('',#1308,1.);
#1308 = DIRECTION('',(0.,0.,1.));
#1309 = ORIENTED_EDGE('',*,*,#1310,.F.);
#1310 = EDGE_CURVE('',#1272,#1303,#1311,.T.);
#1311 = LINE('',#1312,#1313);
#1312 = CARTESIAN_POINT('',(-6.7,6.75,0.));
#1313 = VECTOR('',#1314,1.);
#1314 = DIRECTION('',(1.,0.,0.));
#1315 = PLANE('',#1316);
#1316 = AXIS2_PLACEMENT_3D('',#1317,#1318,#1319);
#1317 = CARTESIAN_POINT('',(-6.7,6.75,0.));
#1318 = DIRECTION('',(0.,1.,0.));
#1319 = DIRECTION('',(1.,0.,0.));
#1320 = ADVANCED_FACE('',(#1321),#1337,.T.);
#1321 = FACE_BOUND('',#1322,.T.);
#1322 = EDGE_LOOP('',(#1323,#1324,#1330,#1331));
#1323 = ORIENTED_EDGE('',*,*,#1302,.T.);
#1324 = ORIENTED_EDGE('',*,*,#1325,.T.);
#1325 = EDGE_CURVE('',#1295,#1225,#1326,.T.);
#1326 = LINE('',#1327,#1328);
#1327 = CARTESIAN_POINT('',(6.7,6.75,1.51));
#1328 = VECTOR('',#1329,1.);
#1329 = DIRECTION('',(0.,-1.,0.));
#1330 = ORIENTED_EDGE('',*,*,#1222,.F.);
#1331 = ORIENTED_EDGE('',*,*,#1332,.F.);
#1332 = EDGE_CURVE('',#1303,#1223,#1333,.T.);
#1333 = LINE('',#1334,#1335);
#1334 = CARTESIAN_POINT('',(6.7,6.75,0.));
#1335 = VECTOR('',#1336,1.);
#1336 = DIRECTION('',(0.,-1.,0.));
#1337 = PLANE('',#1338);
#1338 = AXIS2_PLACEMENT_3D('',#1339,#1340,#1341);
#1339 = CARTESIAN_POINT('',(6.7,6.75,0.));
#1340 = DIRECTION('',(1.,0.,-0.));
#1341 = DIRECTION('',(0.,-1.,0.));
#1342 = ADVANCED_FACE('',(#1343),#1349,.F.);
#1343 = FACE_BOUND('',#1344,.T.);
#1344 = EDGE_LOOP('',(#1345,#1346,#1347,#1348));
#1345 = ORIENTED_EDGE('',*,*,#1248,.T.);
#1346 = ORIENTED_EDGE('',*,*,#1279,.T.);
#1347 = ORIENTED_EDGE('',*,*,#1310,.T.);
#1348 = ORIENTED_EDGE('',*,*,#1332,.T.);
#1349 = PLANE('',#1350);
#1350 = AXIS2_PLACEMENT_3D('',#1351,#1352,#1353);
#1351 = CARTESIAN_POINT('',(0.,0.,0.));
#1352 = DIRECTION('',(0.,0.,1.));
#1353 = DIRECTION('',(1.,0.,-0.));
#1354 = ADVANCED_FACE('',(#1355),#1361,.T.);
#1355 = FACE_BOUND('',#1356,.F.);
#1356 = EDGE_LOOP('',(#1357,#1358,#1359,#1360));
#1357 = ORIENTED_EDGE('',*,*,#1232,.T.);
#1358 = ORIENTED_EDGE('',*,*,#1263,.T.);
#1359 = ORIENTED_EDGE('',*,*,#1294,.T.);
#1360 = ORIENTED_EDGE('',*,*,#1325,.T.);
#1361 = PLANE('',#1362);
#1362 = AXIS2_PLACEMENT_3D('',#1363,#1364,#1365);
#1363 = CARTESIAN_POINT('',(0.,0.,1.51));
#1364 = DIRECTION('',(0.,0.,1.));
#1365 = DIRECTION('',(1.,0.,-0.));
#1366 = ( GEOMETRIC_REPRESENTATION_CONTEXT(3) 
GLOBAL_UNCERTAINTY_ASSIGNED_CONTEXT((#1370)) 
GLOBAL_UNIT_ASSIGNED_CONTEXT((#1367,#1368,#1369)) REPRESENTATION_CONTEXT
('Context #1','3D Context with UNIT and UNCERTAINTY') );
#1367 = ( LENGTH_UNIT() NAMED_UNIT(*) SI_UNIT(.MILLI.,.METRE.) );
#1368 = ( NAMED_UNIT(*) PLANE_ANGLE_UNIT() SI_UNIT($,.RADIAN.) );
#1369 = ( NAMED_UNIT(*) SI_UNIT($,.STERADIAN.) SOLID_ANGLE_UNIT() );
#1370 = UNCERTAINTY_MEASURE_WITH_UNIT(LENGTH_MEASURE(1.E-07),#1367,
  'distance_accuracy_value','confusion accuracy');
#1371 = CONTEXT_DEPENDENT_SHAPE_REPRESENTATION(#1372,#1374);
#1372 = ( REPRESENTATION_RELATIONSHIP('','',#1215,#10) 
REPRESENTATION_RELATIONSHIP_WITH_TRANSFORMATION(#1373) 
SHAPE_REPRESENTATION_RELATIONSHIP() );
#1373 = ITEM_DEFINED_TRANSFORMATION('','',#11,#19);
#1374 = PRODUCT_DEFINITION_SHAPE('Placement','Placement of an item',
  #1375);
#1375 = NEXT_ASSEMBLY_USAGE_OCCURRENCE('2','=>[0:1:1:3]','',#5,#1210,$);
#1376 = PRODUCT_RELATED_PRODUCT_CATEGORY('part',$,(#1212));
#1377 = MECHANICAL_DESIGN_GEOMETRIC_PRESENTATION_REPRESENTATION('',(
    #1378,#1386,#1393,#1400),#1197);
#1378 = STYLED_ITEM('color',(#1379),#37);
#1379 = PRESENTATION_STYLE_ASSIGNMENT((#1380));
#1380 = SURFACE_STYLE_USAGE(.BOTH.,#1381);
#1381 = SURFACE_SIDE_STYLE('',(#1382));
#1382 = SURFACE_STYLE_FILL_AREA(#1383);
#1383 = FILL_AREA_STYLE('',(#1384));
#1384 = FILL_AREA_STYLE_COLOUR('',#1385);
#1385 = COLOUR_RGB('',0.735356983052,0.735356983052,0.735356983052);
#1386 = STYLED_ITEM('color',(#1387),#327);
#1387 = PRESENTATION_STYLE_ASSIGNMENT((#1388));
#1388 = SURFACE_STYLE_USAGE(.BOTH.,#1389);
#1389 = SURFACE_SIDE_STYLE('',(#1390));
#1390 = SURFACE_STYLE_FILL_AREA(#1391);
#1391 = FILL_AREA_STYLE('',(#1392));
#1392 = FILL_AREA_STYLE_COLOUR('',#1385);
#1393 = STYLED_ITEM('color',(#1394),#617);
#1394 = PRESENTATION_STYLE_ASSIGNMENT((#1395));
#1395 = SURFACE_STYLE_USAGE(.BOTH.,#1396);
#1396 = SURFACE_SIDE_STYLE('',(#1397));
#1397 = SURFACE_STYLE_FILL_AREA(#1398);
#1398 = FILL_AREA_STYLE('',(#1399));
#1399 = FILL_AREA_STYLE_COLOUR('',#1385);
#1400 = STYLED_ITEM('color',(#1401),#907);
#1401 = PRESENTATION_STYLE_ASSIGNMENT((#1402));
#1402 = SURFACE_STYLE_USAGE(.BOTH.,#1403);
#1403 = SURFACE_SIDE_STYLE('',(#1404));
#1404 = SURFACE_STYLE_FILL_AREA(#1405);
#1405 = FILL_AREA_STYLE('',(#1406));
#1406 = FILL_AREA_STYLE_COLOUR('',#1385);
#1407 = MECHANICAL_DESIGN_GEOMETRIC_PRESENTATION_REPRESENTATION('',(
    #1408),#1366);
#1408 = STYLED_ITEM('color',(#1409),#1216);
#1409 = PRESENTATION_STYLE_ASSIGNMENT((#1410));
#1410 = SURFACE_STYLE_USAGE(.BOTH.,#1411);
#1411 = SURFACE_SIDE_STYLE('',(#1412));
#1412 = SURFACE_STYLE_FILL_AREA(#1413);
#1413 = FILL_AREA_STYLE('',(#1414));
#1414 = FILL_AREA_STYLE_COLOUR('',#1415);
#1415 = COLOUR_RGB('',0.313304153717,0.484529207832,0.410020903123);
ENDSEC;
END-ISO-10303-21;
