%TF.GenerationSoftware,KiCad,Pcbnew,10.99.0-3671-gbe90a7e200*%
%TF.CreationDate,2026-09-09T21:11:08+01:00*%
%TF.ProjectId,kicad_file,6b696361-645f-4666-996c-652e6b696361,rev?*%
%TF.SameCoordinates,Original*%
%TF.FileFunction,Soldermask,Bot*%
%TF.FilePolarity,Negative*%
%FSLAX46Y46*%
G04 Gerber Fmt 4.6, Leading zero omitted, Abs format (unit mm)*
G04 Created by KiCad (PCBNEW 10.99.0-3671-gbe90a7e200) date 2026-09-09 21:11:08*
%MOMM*%
%LPD*%
G01*
G04 APERTURE LIST*
G04 Aperture macros list*
%AMRoundRect*
0 Rectangle with rounded corners*
0 $1 Rounding radius*
0 $2 $3 $4 $5 $6 $7 $8 $9 X,Y pos of 4 corners*
0 Add a 4 corners polygon primitive as box body*
4,1,4,$2,$3,$4,$5,$6,$7,$8,$9,$2,$3,0*
0 Add four circle primitives for the rounded corners*
1,1,$1+$1,$2,$3*
1,1,$1+$1,$4,$5*
1,1,$1+$1,$6,$7*
1,1,$1+$1,$8,$9*
0 Add four rect primitives between the rounded corners*
20,1,$1+$1,$2,$3,$4,$5,0*
20,1,$1+$1,$4,$5,$6,$7,0*
20,1,$1+$1,$6,$7,$8,$9,0*
20,1,$1+$1,$8,$9,$2,$3,0*%
G04 Aperture macros list end*
%ADD10C,0.500000*%
%ADD11C,3.308000*%
%ADD12RoundRect,0.050800X-0.762000X1.524000X-0.762000X-1.524000X0.762000X-1.524000X0.762000X1.524000X0*%
%ADD13RoundRect,0.050800X0.762000X-1.524000X0.762000X1.524000X-0.762000X1.524000X-0.762000X-1.524000X0*%
%ADD14RoundRect,0.550800X0.000010X0.000010X-0.000010X0.000010X-0.000010X-0.000010X0.000010X-0.000010X0*%
%ADD15RoundRect,0.050800X0.500000X-0.537500X0.500000X0.537500X-0.500000X0.537500X-0.500000X-0.537500X0*%
%ADD16RoundRect,0.050800X-0.140000X-0.625000X0.140000X-0.625000X0.140000X0.625000X-0.140000X0.625000X0*%
%ADD17RoundRect,0.050800X1.150000X1.550000X-1.150000X1.550000X-1.150000X-1.550000X1.150000X-1.550000X0*%
%ADD18RoundRect,0.050800X-0.600000X0.500000X-0.600000X-0.500000X0.600000X-0.500000X0.600000X0.500000X0*%
%ADD19RoundRect,0.050800X0.750000X-0.620000X0.750000X0.620000X-0.750000X0.620000X-0.750000X-0.620000X0*%
%ADD20RoundRect,0.050800X0.300000X-0.775000X0.300000X0.775000X-0.300000X0.775000X-0.300000X-0.775000X0*%
%ADD21RoundRect,0.050800X0.600000X-0.900000X0.600000X0.900000X-0.600000X0.900000X-0.600000X-0.900000X0*%
%ADD22RoundRect,0.050800X-0.500000X0.537500X-0.500000X-0.537500X0.500000X-0.537500X0.500000X0.537500X0*%
G04 APERTURE END LIST*
%TO.C,RPI1*%
D10*
X1815400Y29210000D02*
G75*
G02*
X2565400Y29960000I750000J0D01*
G01*
X2565400Y29960000D02*
G75*
G02*
X3315400Y29210000I0J-750000D01*
G01*
X2565400Y28460000D02*
G75*
G02*
X1815400Y29210000I0J750000D01*
G01*
X3315400Y29210000D02*
G75*
G02*
X2565400Y28460000I-750000J0D01*
G01*
X61505400Y29210000D02*
G75*
G02*
X62255400Y29960000I750000J0D01*
G01*
X62255400Y29960000D02*
G75*
G02*
X63005400Y29210000I0J-750000D01*
G01*
X62255400Y28460000D02*
G75*
G02*
X61505400Y29210000I0J750000D01*
G01*
X63005400Y29210000D02*
G75*
G02*
X62255400Y28460000I-750000J0D01*
G01*
%TD*%
D11*
%TO.C,RPI1*%
X3525400Y26500000D03*
X3525400Y3500000D03*
X61525400Y26500000D03*
X61525400Y3500000D03*
D12*
X8395000Y24339400D03*
X8395000Y28657400D03*
D13*
X10935000Y24339400D03*
D12*
X10935000Y28657400D03*
D13*
X13475000Y24339400D03*
D12*
X13475000Y28657400D03*
D13*
X16015000Y24339400D03*
D12*
X16015000Y28657400D03*
D13*
X18555000Y24339400D03*
D12*
X18555000Y28657400D03*
D13*
X21095000Y24339400D03*
D12*
X21095000Y28657400D03*
D13*
X23635000Y24339400D03*
D12*
X23635000Y28657400D03*
D13*
X26175000Y24339400D03*
D12*
X26175000Y28657400D03*
D13*
X28715000Y24339400D03*
D12*
X28715000Y28657400D03*
D13*
X31255000Y24339400D03*
D12*
X31255000Y28657400D03*
D13*
X33795000Y24339400D03*
D12*
X33795000Y28657400D03*
D13*
X36335000Y24339400D03*
D12*
X36335000Y28657400D03*
D13*
X38875000Y24339400D03*
D12*
X38875000Y28657400D03*
D13*
X41415000Y24339400D03*
D12*
X41415000Y28657400D03*
D13*
X43955000Y24339400D03*
D12*
X43955000Y28657400D03*
D13*
X46495000Y24339400D03*
D12*
X46495000Y28657400D03*
D13*
X49035000Y24339400D03*
D12*
X49035000Y28657400D03*
D13*
X51575000Y24339400D03*
D12*
X51575000Y28657400D03*
D13*
X54115000Y24339400D03*
D12*
X54115000Y28657400D03*
D13*
X56655000Y24339400D03*
D12*
X56655000Y28657400D03*
D14*
X2565400Y29210000D03*
X62255400Y29210000D03*
%TD*%
D15*
%TO.C,R2*%
X45339000Y18073000D03*
X45339000Y19773000D03*
%TD*%
D16*
%TO.C,DISPLAY1*%
X41577000Y13270000D03*
X41077000Y13270000D03*
X40577000Y13270000D03*
X40077000Y13270000D03*
X39577000Y13270000D03*
X39077000Y13270000D03*
X38577000Y13270000D03*
X38077000Y13270000D03*
X37577000Y13270000D03*
X37077000Y13270000D03*
X36577000Y13270000D03*
X36077000Y13270000D03*
X35577000Y13270000D03*
X35077000Y13270000D03*
X34577000Y13270000D03*
X34077000Y13270000D03*
X33577000Y13270000D03*
X33077000Y13270000D03*
X32577000Y13270000D03*
X32077000Y13270000D03*
X31577000Y13270000D03*
X31077000Y13270000D03*
X30577000Y13270000D03*
X30077000Y13270000D03*
D17*
X43247000Y11614000D03*
X28407000Y11614000D03*
%TD*%
D18*
%TO.C,Q3*%
X43660000Y19920000D03*
X43660000Y18020000D03*
X41660000Y18970000D03*
%TD*%
D19*
%TO.C,C1*%
X16129000Y1971000D03*
X16129000Y3871000D03*
%TD*%
D20*
%TO.C,CONN1*%
X12803000Y5054000D03*
X11803000Y5054000D03*
X10803000Y5054000D03*
X9803000Y5054000D03*
D21*
X14103000Y1154000D03*
X8503000Y1154000D03*
%TD*%
D22*
%TO.C,R5*%
X40835000Y17518000D03*
X40835000Y15818000D03*
%TD*%
M02*
