%TF.GenerationSoftware,KiCad,Pcbnew,10.99.0-3671-gbe90a7e200*%
%TF.CreationDate,2026-09-10T00:11:10+01:00*%
%TF.ProjectId,kicad_file,6b696361-645f-4666-996c-652e6b696361,rev?*%
%TF.SameCoordinates,Original*%
%TF.FileFunction,Soldermask,Bot*%
%TF.FilePolarity,Negative*%
%FSLAX46Y46*%
G04 Gerber Fmt 4.6, Leading zero omitted, Abs format (unit mm)*
G04 Created by KiCad (PCBNEW 10.99.0-3671-gbe90a7e200) date 2026-09-10 00:11:10*
%MOMM*%
%LPD*%
G01*
G04 APERTURE LIST*
G04 Aperture macros list*
%AMRoundRect*
0 Rectangle with rounded corners*
0 $1 Rounding radius*
0 $2 $3 $4 $5 $6 $7 $8 $9 X,Y pos of 4 corners*
0 Add a 4 corners polygon primitive as box body*
4,1,4,$2,$3,$4,$5,$6,$7,$8,$9,$2,$3,0*
0 Add four circle primitives for the rounded corners*
1,1,$1+$1,$2,$3*
1,1,$1+$1,$4,$5*
1,1,$1+$1,$6,$7*
1,1,$1+$1,$8,$9*
0 Add four rect primitives between the rounded corners*
20,1,$1+$1,$2,$3,$4,$5,0*
20,1,$1+$1,$4,$5,$6,$7,0*
20,1,$1+$1,$6,$7,$8,$9,0*
20,1,$1+$1,$8,$9,$2,$3,0*%
%AMFreePoly0*
4,1,17,0.404157,0.924921,0.924921,0.404157,0.939800,0.368236,0.939800,-0.368236,0.924921,-0.404157,0.404157,-0.924921,0.368236,-0.939800,-0.368236,-0.939800,-0.404157,-0.924921,-0.924921,-0.404157,-0.939800,-0.368236,-0.939800,0.368236,-0.924921,0.404157,-0.404157,0.924921,-0.368236,0.939800,0.368236,0.939800,0.404157,0.924921,0.404157,0.924921,$1*%
G04 Aperture macros list end*
%ADD10C,0.000000*%
%ADD11FreePoly0,90.000000*%
%ADD12O,2.387600X1.244600*%
%ADD13RoundRect,0.050800X-1.206500X1.206500X-1.206500X-1.206500X1.206500X-1.206500X1.206500X1.206500X0*%
G04 APERTURE END LIST*
D10*
%TO.C,SJ2*%
G36*
X13119100Y12890500D02*
G01*
X10198100Y12890500D01*
X10198100Y14541500D01*
X13119100Y14541500D01*
X13119100Y12890500D01*
G37*
%TO.C,SJ4*%
G36*
X7531100Y16700500D02*
G01*
X4610100Y16700500D01*
X4610100Y18351500D01*
X7531100Y18351500D01*
X7531100Y16700500D01*
G37*
%TO.C,SJ6*%
G36*
X13119100Y10604500D02*
G01*
X10198100Y10604500D01*
X10198100Y12255500D01*
X13119100Y12255500D01*
X13119100Y10604500D01*
G37*
%TO.C,SJ5*%
G36*
X7213600Y12827000D02*
G01*
X4673600Y12827000D01*
X4673600Y14351000D01*
X7213600Y14351000D01*
X7213600Y12827000D01*
G37*
%TO.C,SJ1*%
G36*
X12928600Y16764000D02*
G01*
X10388600Y16764000D01*
X10388600Y18288000D01*
X12928600Y18288000D01*
X12928600Y16764000D01*
G37*
%TO.C,SJ3*%
G36*
X7213600Y10541000D02*
G01*
X4673600Y10541000D01*
X4673600Y12065000D01*
X7213600Y12065000D01*
X7213600Y10541000D01*
G37*
%TD*%
D11*
%TO.C,FTDI0*%
X2514600Y2413000D03*
X5054600Y2413000D03*
X7594600Y2413000D03*
X10134600Y2413000D03*
X12674600Y2413000D03*
X15214600Y2413000D03*
%TD*%
D12*
%TO.C,CN1*%
X11988100Y20561000D03*
X5970100Y20561000D03*
D13*
X12591600Y23236000D03*
X5366600Y23236000D03*
%TD*%
M02*
