%TF.GenerationSoftware,KiCad,Pcbnew,10.99.0-3671-gbe90a7e200*%
%TF.CreationDate,2026-09-08T00:10:32+01:00*%
%TF.ProjectId,kicad_file,6b696361-645f-4666-996c-652e6b696361,V1.0.0.*%
%TF.SameCoordinates,Original*%
%TF.FileFunction,Soldermask,Top*%
%TF.FilePolarity,Negative*%
%FSLAX46Y46*%
G04 Gerber Fmt 4.6, Leading zero omitted, Abs format (unit mm)*
G04 Created by KiCad (PCBNEW 10.99.0-3671-gbe90a7e200) date 2026-09-08 00:10:32*
%MOMM*%
%LPD*%
G01*
G04 APERTURE LIST*
G04 Aperture macros list*
%AMRoundRect*
0 Rectangle with rounded corners*
0 $1 Rounding radius*
0 $2 $3 $4 $5 $6 $7 $8 $9 X,Y pos of 4 corners*
0 Add a 4 corners polygon primitive as box body*
4,1,4,$2,$3,$4,$5,$6,$7,$8,$9,$2,$3,0*
0 Add four circle primitives for the rounded corners*
1,1,$1+$1,$2,$3*
1,1,$1+$1,$4,$5*
1,1,$1+$1,$6,$7*
1,1,$1+$1,$8,$9*
0 Add four rect primitives between the rounded corners*
20,1,$1+$1,$2,$3,$4,$5,0*
20,1,$1+$1,$4,$5,$6,$7,0*
20,1,$1+$1,$6,$7,$8,$9,0*
20,1,$1+$1,$8,$9,$2,$3,0*%
%AMFreePoly0*
4,1,17,0.308779,0.580902,0.345106,0.530902,0.350000,0.500000,0.350000,-0.500000,0.330902,-0.558779,0.280902,-0.595106,0.250000,-0.600000,-0.250000,-0.600000,-0.308779,-0.580902,-0.345106,-0.530902,-0.350000,-0.500000,-0.350000,0.500000,-0.330902,0.558779,-0.280902,0.595106,-0.250000,0.600000,0.250000,0.600000,0.308779,0.580902,0.308779,0.580902,$1*%
G04 Aperture macros list end*
%ADD10RoundRect,0.100000X0.250000X0.500000X-0.250000X0.500000X-0.250000X-0.500000X0.250000X-0.500000X0*%
%ADD11FreePoly0,180.000000*%
%ADD12RoundRect,0.100000X0.500000X0.320000X-0.500000X0.320000X-0.500000X-0.320000X0.500000X-0.320000X0*%
%ADD13RoundRect,0.100000X0.300000X0.775000X-0.300000X0.775000X-0.300000X-0.775000X0.300000X-0.775000X0*%
%ADD14RoundRect,0.100000X0.600000X0.900000X-0.600000X0.900000X-0.600000X-0.900000X0.600000X-0.900000X0*%
%ADD15RoundRect,0.100000X-0.500000X-0.320000X0.500000X-0.320000X0.500000X0.320000X-0.500000X0.320000X0*%
%ADD16RoundRect,0.100000X-0.500000X0.250000X-0.500000X-0.250000X0.500000X-0.250000X0.500000X0.250000X0*%
%ADD17RoundRect,0.100000X0.330000X0.500000X-0.330000X0.500000X-0.330000X-0.500000X0.330000X-0.500000X0*%
%ADD18C,2.200000*%
%ADD19RoundRect,0.100000X0.550000X0.225000X-0.550000X0.225000X-0.550000X-0.225000X0.550000X-0.225000X0*%
%ADD20C,3.200000*%
%ADD21RoundRect,0.100000X-0.300000X-0.775000X0.300000X-0.775000X0.300000X0.775000X-0.300000X0.775000X0*%
%ADD22RoundRect,0.100000X-0.600000X-0.900000X0.600000X-0.900000X0.600000X0.900000X-0.600000X0.900000X0*%
%ADD23R,2.650000X1.200000*%
%ADD24C,1.900000*%
G04 APERTURE END LIST*
D10*
%TO.C,JP1*%
X101700000Y-120400000D03*
D11*
X102400000Y-120400000D03*
D10*
X103100000Y-120400000D03*
%TD*%
D12*
%TO.C,R2*%
X101500000Y-123475000D03*
X101500000Y-121925000D03*
%TD*%
D13*
%TO.C,K4*%
X110900000Y-134950000D03*
X109900000Y-134950000D03*
X108900000Y-134950000D03*
X107900000Y-134950000D03*
D14*
X106800000Y-139250000D03*
X112000000Y-139250000D03*
%TD*%
D15*
%TO.C,R4*%
X103400000Y-127425000D03*
X103400000Y-128975000D03*
%TD*%
D16*
%TO.C,JP3*%
X103400000Y-130250000D03*
X103400000Y-130950000D03*
%TD*%
D17*
%TO.C,C1*%
X110130000Y-126900000D03*
X108670000Y-126900000D03*
%TD*%
D18*
%TO.C,K1*%
X118900000Y-126900000D03*
X123900000Y-126900000D03*
X118900000Y-131900000D03*
X123900000Y-131900000D03*
%TD*%
D19*
%TO.C,U1*%
X110700000Y-130375000D03*
X110700000Y-129725000D03*
X110700000Y-129075000D03*
X110700000Y-128425000D03*
X108100000Y-128425000D03*
X108100000Y-129075000D03*
X108100000Y-129725000D03*
X108100000Y-130375000D03*
%TD*%
D20*
%TO.C,FD1*%
X93400000Y-137400000D03*
%TD*%
D15*
%TO.C,R3*%
X105400000Y-127425000D03*
X105400000Y-128975000D03*
%TD*%
D21*
%TO.C,K2*%
X107900000Y-123850000D03*
X108900000Y-123850000D03*
X109900000Y-123850000D03*
X110900000Y-123850000D03*
D22*
X106800000Y-119550000D03*
X112000000Y-119550000D03*
%TD*%
D23*
%TO.C,R5*%
X113900000Y-127875000D03*
X113900000Y-130925000D03*
%TD*%
D20*
%TO.C,H1*%
X93400000Y-121400000D03*
%TD*%
%TO.C,H2*%
X125400000Y-121400000D03*
%TD*%
D15*
%TO.C,R1*%
X103300000Y-121925000D03*
X103300000Y-123475000D03*
%TD*%
D16*
%TO.C,JP2*%
X105400000Y-130250000D03*
X105400000Y-130950000D03*
%TD*%
D24*
%TO.C,K3*%
X91900000Y-133210000D03*
X91900000Y-130670000D03*
X91900000Y-128130000D03*
X91900000Y-125590000D03*
%TD*%
M02*
