%TF.GenerationSoftware,KiCad,Pcbnew,10.99.0-3671-gbe90a7e200*%
%TF.CreationDate,2026-09-08T15:57:31+01:00*%
%TF.ProjectId,kicad_file,6b696361-645f-4666-996c-652e6b696361,V1.1.1.*%
%TF.SameCoordinates,PX4c4b400PY7bfa480*%
%TF.FileFunction,Legend,Bot*%
%TF.FilePolarity,Positive*%
%FSLAX46Y46*%
G04 Gerber Fmt 4.6, Leading zero omitted, Abs format (unit mm)*
G04 Created by KiCad (PCBNEW 10.99.0-3671-gbe90a7e200) date 2026-09-08 15:57:31*
%MOMM*%
%LPD*%
G01*
G04 APERTURE LIST*
%ADD10C,0.000000*%
%ADD11C,0.010000*%
%ADD12C,3.200000*%
%ADD13C,1.900000*%
G04 APERTURE END LIST*
D10*
%TO.C,G\u002A\u002A\u002A*%
G36*
X97847318Y-109632417D02*
G01*
X97862537Y-109641034D01*
X97885186Y-109654970D01*
X97914076Y-109673461D01*
X97948015Y-109695744D01*
X97985813Y-109721057D01*
X98026279Y-109748635D01*
X98062330Y-109773224D01*
X98100490Y-109798823D01*
X98134926Y-109821475D01*
X98164449Y-109840418D01*
X98187867Y-109854888D01*
X98203988Y-109864123D01*
X98211623Y-109867359D01*
X98214736Y-109866774D01*
X98228107Y-109861761D01*
X98248641Y-109852449D01*
X98274172Y-109839849D01*
X98302538Y-109824968D01*
X98307953Y-109822061D01*
X98338861Y-109806142D01*
X98363982Y-109794389D01*
X98381870Y-109787439D01*
X98391081Y-109785929D01*
X98394928Y-109790616D01*
X98402819Y-109805226D01*
X98414571Y-109829884D01*
X98430253Y-109864747D01*
X98449937Y-109909975D01*
X98473692Y-109965728D01*
X98501589Y-110032165D01*
X98533697Y-110109444D01*
X98560588Y-110174442D01*
X98590165Y-110245951D01*
X98615740Y-110307835D01*
X98637595Y-110360804D01*
X98656011Y-110405570D01*
X98671270Y-110442845D01*
X98683655Y-110473339D01*
X98693448Y-110497766D01*
X98700930Y-110516835D01*
X98706383Y-110531259D01*
X98710090Y-110541749D01*
X98712331Y-110549017D01*
X98713391Y-110553773D01*
X98713549Y-110556730D01*
X98713089Y-110558599D01*
X98712292Y-110560092D01*
X98712020Y-110560496D01*
X98704800Y-110567237D01*
X98690097Y-110578975D01*
X98669895Y-110594174D01*
X98646177Y-110611297D01*
X98592020Y-110653462D01*
X98537439Y-110706915D01*
X98493519Y-110764353D01*
X98459801Y-110826504D01*
X98435824Y-110894096D01*
X98421130Y-110967857D01*
X98417224Y-111026445D01*
X98422605Y-111096983D01*
X98438503Y-111165313D01*
X98464210Y-111230410D01*
X98499021Y-111291247D01*
X98542229Y-111346801D01*
X98593127Y-111396045D01*
X98651008Y-111437955D01*
X98715166Y-111471504D01*
X98784894Y-111495669D01*
X98814701Y-111501972D01*
X98866146Y-111507620D01*
X98920752Y-111508477D01*
X98973909Y-111504542D01*
X99021008Y-111495811D01*
X99084917Y-111474495D01*
X99151921Y-111440960D01*
X99212369Y-111398196D01*
X99265500Y-111346953D01*
X99310550Y-111287977D01*
X99346758Y-111222019D01*
X99373362Y-111149826D01*
X99378042Y-111132331D01*
X99382455Y-111110561D01*
X99385116Y-111087372D01*
X99386389Y-111059308D01*
X99386634Y-111022915D01*
X99386192Y-110992957D01*
X99383722Y-110952066D01*
X99378300Y-110916587D01*
X99369031Y-110882709D01*
X99355020Y-110846620D01*
X99335374Y-110804509D01*
X99332721Y-110799129D01*
X99319032Y-110772730D01*
X99306169Y-110751496D01*
X99291737Y-110732157D01*
X99273339Y-110711444D01*
X99248577Y-110686085D01*
X99224507Y-110663190D01*
X99195601Y-110637909D01*
X99167376Y-110615175D01*
X99143493Y-110598055D01*
X99130835Y-110589664D01*
X99110103Y-110574442D01*
X99098444Y-110562993D01*
X99094794Y-110554363D01*
X99096839Y-110547251D01*
X99103042Y-110530223D01*
X99112956Y-110504461D01*
X99126128Y-110471058D01*
X99142107Y-110431106D01*
X99160440Y-110385699D01*
X99180676Y-110335930D01*
X99202362Y-110282891D01*
X99225047Y-110227676D01*
X99248278Y-110171376D01*
X99271605Y-110115086D01*
X99294573Y-110059898D01*
X99316733Y-110006905D01*
X99337631Y-109957200D01*
X99356816Y-109911876D01*
X99373836Y-109872025D01*
X99388239Y-109838741D01*
X99399572Y-109813116D01*
X99407384Y-109796244D01*
X99411223Y-109789217D01*
X99412175Y-109788326D01*
X99416763Y-109786159D01*
X99423846Y-109786611D01*
X99434999Y-109790289D01*
X99451795Y-109797799D01*
X99475808Y-109809748D01*
X99508612Y-109826743D01*
X99597341Y-109873123D01*
X99654492Y-109834949D01*
X99664004Y-109828567D01*
X99689582Y-109811267D01*
X99721498Y-109789547D01*
X99757490Y-109764952D01*
X99795295Y-109739027D01*
X99832651Y-109713315D01*
X99858403Y-109695738D01*
X99890341Y-109674471D01*
X99918483Y-109656329D01*
X99941367Y-109642232D01*
X99957529Y-109633098D01*
X99965505Y-109629848D01*
X99966426Y-109630054D01*
X99975139Y-109635824D01*
X99990530Y-109648708D01*
X100011511Y-109667618D01*
X100036994Y-109691463D01*
X100065890Y-109719154D01*
X100097111Y-109749603D01*
X100129570Y-109781720D01*
X100162179Y-109814415D01*
X100193849Y-109846600D01*
X100223493Y-109877185D01*
X100250022Y-109905080D01*
X100272349Y-109929196D01*
X100289385Y-109948445D01*
X100300043Y-109961736D01*
X100303234Y-109967981D01*
X100299395Y-109974440D01*
X100289592Y-109989548D01*
X100274615Y-110012105D01*
X100255237Y-110040962D01*
X100232230Y-110074968D01*
X100206367Y-110112972D01*
X100178419Y-110153826D01*
X100151126Y-110193866D01*
X100125479Y-110231977D01*
X100102812Y-110266152D01*
X100083877Y-110295239D01*
X100069423Y-110318086D01*
X100060201Y-110333540D01*
X100056960Y-110340448D01*
X100057324Y-110342571D01*
X100061122Y-110354688D01*
X100068523Y-110375289D01*
X100078872Y-110402750D01*
X100091514Y-110435445D01*
X100105796Y-110471750D01*
X100121063Y-110510040D01*
X100136662Y-110548690D01*
X100151937Y-110586075D01*
X100166235Y-110620570D01*
X100178902Y-110650549D01*
X100189283Y-110674389D01*
X100196724Y-110690464D01*
X100200571Y-110697148D01*
X100200667Y-110697216D01*
X100208425Y-110699595D01*
X100226401Y-110703782D01*
X100253264Y-110709506D01*
X100287682Y-110716497D01*
X100328321Y-110724483D01*
X100373850Y-110733193D01*
X100422937Y-110742357D01*
X100473979Y-110751872D01*
X100527040Y-110762068D01*
X100569528Y-110770649D01*
X100602044Y-110777749D01*
X100625189Y-110783499D01*
X100639564Y-110788033D01*
X100645770Y-110791482D01*
X100647764Y-110799295D01*
X100649547Y-110817394D01*
X100651020Y-110844096D01*
X100652187Y-110877830D01*
X100653048Y-110917027D01*
X100653605Y-110960117D01*
X100653860Y-111005531D01*
X100653815Y-111051699D01*
X100653471Y-111097051D01*
X100652831Y-111140019D01*
X100651895Y-111179032D01*
X100650666Y-111212521D01*
X100649146Y-111238916D01*
X100647336Y-111256649D01*
X100645238Y-111264148D01*
X100644913Y-111264358D01*
X100636117Y-111267131D01*
X100617196Y-111271697D01*
X100589473Y-111277780D01*
X100554273Y-111285104D01*
X100512920Y-111293393D01*
X100466737Y-111302370D01*
X100417049Y-111311758D01*
X100366966Y-111321244D01*
X100319113Y-111330628D01*
X100276938Y-111339234D01*
X100241629Y-111346807D01*
X100214378Y-111353090D01*
X100196373Y-111357830D01*
X100188804Y-111360769D01*
X100185158Y-111366710D01*
X100177386Y-111382307D01*
X100166494Y-111405656D01*
X100153206Y-111435073D01*
X100138246Y-111468874D01*
X100122336Y-111505375D01*
X100106200Y-111542893D01*
X100090561Y-111579744D01*
X100076144Y-111614245D01*
X100063671Y-111644711D01*
X100053866Y-111669460D01*
X100047453Y-111686808D01*
X100045154Y-111695070D01*
X100045296Y-111695753D01*
X100049843Y-111704599D01*
X100060256Y-111721790D01*
X100075807Y-111746211D01*
X100095769Y-111776744D01*
X100119412Y-111812275D01*
X100146010Y-111851687D01*
X100174834Y-111893866D01*
X100181029Y-111902887D01*
X100209437Y-111944498D01*
X100235477Y-111983043D01*
X100258422Y-112017415D01*
X100277544Y-112046511D01*
X100292116Y-112069224D01*
X100301409Y-112084450D01*
X100304696Y-112091085D01*
X100300703Y-112097059D01*
X100289352Y-112110167D01*
X100271745Y-112129298D01*
X100248981Y-112153344D01*
X100222162Y-112181196D01*
X100192386Y-112211748D01*
X100160754Y-112243889D01*
X100128366Y-112276513D01*
X100096323Y-112308510D01*
X100065725Y-112338774D01*
X100037671Y-112366195D01*
X100013262Y-112389665D01*
X99993598Y-112408077D01*
X99979780Y-112420322D01*
X99972907Y-112425292D01*
X99969229Y-112424754D01*
X99956997Y-112419034D01*
X99936613Y-112407210D01*
X99907802Y-112389108D01*
X99870289Y-112364554D01*
X99823801Y-112333373D01*
X99768061Y-112295392D01*
X99754225Y-112285922D01*
X99712254Y-112257372D01*
X99673482Y-112231256D01*
X99638993Y-112208288D01*
X99609872Y-112189180D01*
X99587204Y-112174648D01*
X99572075Y-112165406D01*
X99565569Y-112162166D01*
X99561825Y-112162938D01*
X99547809Y-112167593D01*
X99525713Y-112175836D01*
X99497270Y-112186946D01*
X99464211Y-112200202D01*
X99428269Y-112214884D01*
X99391177Y-112230270D01*
X99354668Y-112245639D01*
X99320473Y-112260271D01*
X99290327Y-112273445D01*
X99265960Y-112284439D01*
X99249106Y-112292533D01*
X99241498Y-112297007D01*
X99238943Y-112301584D01*
X99234411Y-112315466D01*
X99228555Y-112338619D01*
X99221271Y-112371520D01*
X99212454Y-112414647D01*
X99202001Y-112468479D01*
X99189805Y-112533493D01*
X99187606Y-112545333D01*
X99178214Y-112595069D01*
X99169296Y-112641008D01*
X99161121Y-112681848D01*
X99153959Y-112716284D01*
X99148080Y-112743013D01*
X99143754Y-112760730D01*
X99141251Y-112768132D01*
X99134320Y-112770145D01*
X99117014Y-112771972D01*
X99090973Y-112773509D01*
X99057768Y-112774754D01*
X99018969Y-112775706D01*
X98976144Y-112776362D01*
X98930864Y-112776722D01*
X98884697Y-112776783D01*
X98839215Y-112776543D01*
X98795986Y-112776001D01*
X98756580Y-112775154D01*
X98722567Y-112774001D01*
X98695516Y-112772539D01*
X98676996Y-112770768D01*
X98668579Y-112768685D01*
X98666055Y-112764705D01*
X98661795Y-112752341D01*
X98656363Y-112731334D01*
X98649625Y-112701080D01*
X98641449Y-112660977D01*
X98631702Y-112610419D01*
X98620251Y-112548803D01*
X98614714Y-112518630D01*
X98604364Y-112462553D01*
X98595759Y-112416593D01*
X98588666Y-112379725D01*
X98582855Y-112350927D01*
X98578096Y-112329175D01*
X98574158Y-112313446D01*
X98570811Y-112302716D01*
X98567823Y-112295963D01*
X98564966Y-112292163D01*
X98562007Y-112290293D01*
X98561667Y-112290154D01*
X98553191Y-112286683D01*
X98535451Y-112279402D01*
X98509915Y-112268915D01*
X98478051Y-112255823D01*
X98441326Y-112240729D01*
X98401208Y-112224238D01*
X98379570Y-112215363D01*
X98337554Y-112198326D01*
X98304611Y-112185351D01*
X98279514Y-112176016D01*
X98261031Y-112169901D01*
X98247934Y-112166584D01*
X98238992Y-112165646D01*
X98232977Y-112166666D01*
X98232721Y-112166769D01*
X98224007Y-112171720D01*
X98206847Y-112182568D01*
X98182416Y-112198530D01*
X98151889Y-112218827D01*
X98116440Y-112242677D01*
X98077245Y-112269300D01*
X98035477Y-112297915D01*
X98031613Y-112300573D01*
X97990336Y-112328850D01*
X97951983Y-112354928D01*
X97917684Y-112378052D01*
X97888570Y-112397468D01*
X97865771Y-112412422D01*
X97850415Y-112422160D01*
X97843634Y-112425929D01*
X97840713Y-112424850D01*
X97829525Y-112416450D01*
X97810867Y-112400120D01*
X97785157Y-112376252D01*
X97752817Y-112345241D01*
X97714265Y-112307477D01*
X97669921Y-112263354D01*
X97668462Y-112261892D01*
X97626502Y-112219755D01*
X97592242Y-112185065D01*
X97564969Y-112157034D01*
X97543970Y-112134875D01*
X97528532Y-112117799D01*
X97517943Y-112105020D01*
X97511489Y-112095749D01*
X97508457Y-112089199D01*
X97508135Y-112084582D01*
X97508181Y-112084391D01*
X97512430Y-112075995D01*
X97522615Y-112059143D01*
X97537974Y-112035003D01*
X97557741Y-112004746D01*
X97581153Y-111969542D01*
X97607446Y-111930562D01*
X97635855Y-111888975D01*
X97663630Y-111848259D01*
X97690415Y-111808344D01*
X97713886Y-111772680D01*
X97733350Y-111742349D01*
X97748113Y-111718435D01*
X97757481Y-111702018D01*
X97760760Y-111694181D01*
X97760041Y-111690307D01*
X97755352Y-111675882D01*
X97746926Y-111653379D01*
X97735501Y-111624524D01*
X97721814Y-111591039D01*
X97706600Y-111554647D01*
X97690598Y-111517072D01*
X97674543Y-111480037D01*
X97659173Y-111445266D01*
X97645225Y-111414481D01*
X97633435Y-111389406D01*
X97624540Y-111371765D01*
X97619277Y-111363280D01*
X97615793Y-111360842D01*
X97606353Y-111356987D01*
X97590740Y-111352404D01*
X97568044Y-111346890D01*
X97537351Y-111340241D01*
X97497750Y-111332250D01*
X97448330Y-111322715D01*
X97388179Y-111311430D01*
X97365275Y-111307159D01*
X97308087Y-111296318D01*
X97261493Y-111287165D01*
X97224712Y-111279527D01*
X97196964Y-111273230D01*
X97177472Y-111268101D01*
X97165454Y-111263966D01*
X97160132Y-111260652D01*
X97159055Y-111258489D01*
X97157212Y-111249925D01*
X97155735Y-111234927D01*
X97154595Y-111212602D01*
X97153763Y-111182054D01*
X97153212Y-111142387D01*
X97152912Y-111092706D01*
X97152834Y-111032116D01*
X97152835Y-111030809D01*
X97152951Y-110980702D01*
X97153238Y-110933971D01*
X97153674Y-110892020D01*
X97154236Y-110856256D01*
X97154903Y-110828082D01*
X97155652Y-110808904D01*
X97156462Y-110800127D01*
X97156751Y-110799044D01*
X97158042Y-110795105D01*
X97160323Y-110791662D01*
X97164659Y-110788450D01*
X97172109Y-110785205D01*
X97183736Y-110781663D01*
X97200602Y-110777561D01*
X97223769Y-110772633D01*
X97254297Y-110766617D01*
X97293250Y-110759248D01*
X97341688Y-110750261D01*
X97400674Y-110739394D01*
X97420057Y-110735809D01*
X97477032Y-110725023D01*
X97523032Y-110715873D01*
X97558588Y-110708238D01*
X97584234Y-110702001D01*
X97600502Y-110697042D01*
X97607926Y-110693243D01*
X97607963Y-110693205D01*
X97612659Y-110685092D01*
X97620849Y-110667642D01*
X97631861Y-110642539D01*
X97645019Y-110611466D01*
X97659652Y-110576106D01*
X97675085Y-110538142D01*
X97690645Y-110499256D01*
X97705658Y-110461131D01*
X97719451Y-110425452D01*
X97731351Y-110393900D01*
X97740684Y-110368158D01*
X97746776Y-110349909D01*
X97748953Y-110340838D01*
X97745962Y-110333809D01*
X97736952Y-110318109D01*
X97722672Y-110295023D01*
X97703875Y-110265725D01*
X97681317Y-110231391D01*
X97655752Y-110193196D01*
X97627934Y-110152315D01*
X97601232Y-110113087D01*
X97575559Y-110074754D01*
X97552862Y-110040232D01*
X97533896Y-110010696D01*
X97519415Y-109987322D01*
X97510173Y-109971285D01*
X97506925Y-109963760D01*
X97507033Y-109963042D01*
X97512704Y-109953872D01*
X97526928Y-109936767D01*
X97549625Y-109911813D01*
X97580713Y-109879097D01*
X97620111Y-109838708D01*
X97667738Y-109790732D01*
X97681772Y-109776715D01*
X97727585Y-109731357D01*
X97765523Y-109694505D01*
X97795709Y-109666042D01*
X97818267Y-109645853D01*
X97833320Y-109633824D01*
X97840993Y-109629840D01*
X97847318Y-109632417D01*
G37*
G36*
X91975728Y-114681863D02*
G01*
X92015800Y-114684154D01*
X92054796Y-114687409D01*
X92089575Y-114691448D01*
X92116996Y-114696090D01*
X92166220Y-114708621D01*
X92242407Y-114736234D01*
X92312959Y-114772196D01*
X92376902Y-114815806D01*
X92433261Y-114866363D01*
X92481063Y-114923166D01*
X92519334Y-114985516D01*
X92525489Y-114997881D01*
X92543522Y-115038484D01*
X92558174Y-115078313D01*
X92568966Y-115115520D01*
X92575415Y-115148254D01*
X92577039Y-115174669D01*
X92573357Y-115192915D01*
X92568187Y-115201911D01*
X92560565Y-115209685D01*
X92549499Y-115215253D01*
X92533366Y-115218971D01*
X92510543Y-115221197D01*
X92479405Y-115222286D01*
X92438330Y-115222597D01*
X92411576Y-115222583D01*
X92382263Y-115222322D01*
X92361176Y-115221583D01*
X92346354Y-115220151D01*
X92335839Y-115217810D01*
X92327672Y-115214344D01*
X92319895Y-115209537D01*
X92317040Y-115207512D01*
X92302961Y-115194725D01*
X92293822Y-115182060D01*
X92289585Y-115172862D01*
X92274336Y-115140991D01*
X92261391Y-115116786D01*
X92249193Y-115097754D01*
X92236185Y-115081402D01*
X92220807Y-115065239D01*
X92220063Y-115064507D01*
X92187511Y-115037956D01*
X92147392Y-115013440D01*
X92103601Y-114993049D01*
X92060032Y-114978877D01*
X92052686Y-114977300D01*
X92023149Y-114973543D01*
X91986894Y-114971642D01*
X91947485Y-114971551D01*
X91908489Y-114973224D01*
X91873473Y-114976613D01*
X91846003Y-114981673D01*
X91819412Y-114989663D01*
X91763810Y-115014352D01*
X91715642Y-115047740D01*
X91675103Y-115089554D01*
X91642390Y-115139521D01*
X91617697Y-115197366D01*
X91601220Y-115262816D01*
X91593154Y-115335598D01*
X91592355Y-115353320D01*
X91591841Y-115376852D01*
X91592620Y-115392166D01*
X91594856Y-115401375D01*
X91598717Y-115406591D01*
X91601261Y-115407628D01*
X91608809Y-115408860D01*
X91621680Y-115409927D01*
X91640498Y-115410839D01*
X91665888Y-115411605D01*
X91698474Y-115412233D01*
X91738882Y-115412734D01*
X91787735Y-115413116D01*
X91845658Y-115413389D01*
X91913277Y-115413561D01*
X91991215Y-115413642D01*
X92080097Y-115413640D01*
X92552747Y-115413444D01*
X92573020Y-115433716D01*
X92593292Y-115453989D01*
X92590820Y-115640579D01*
X92590513Y-115663462D01*
X92589808Y-115710871D01*
X92589059Y-115748927D01*
X92588149Y-115779197D01*
X92586965Y-115803244D01*
X92585393Y-115822634D01*
X92583316Y-115838931D01*
X92580621Y-115853699D01*
X92577194Y-115868505D01*
X92572918Y-115884911D01*
X92566340Y-115908759D01*
X92549766Y-115961386D01*
X92531820Y-116006549D01*
X92511087Y-116047164D01*
X92486148Y-116086150D01*
X92455585Y-116126424D01*
X92414785Y-116171020D01*
X92356279Y-116219714D01*
X92289690Y-116260525D01*
X92215465Y-116293187D01*
X92134052Y-116317435D01*
X92125004Y-116319503D01*
X92105277Y-116323424D01*
X92085407Y-116326267D01*
X92063109Y-116328199D01*
X92036099Y-116329387D01*
X92002091Y-116329995D01*
X91958802Y-116330191D01*
X91945339Y-116330198D01*
X91906932Y-116330075D01*
X91877157Y-116329578D01*
X91853750Y-116328511D01*
X91834448Y-116326679D01*
X91816988Y-116323888D01*
X91799109Y-116319942D01*
X91778546Y-116314646D01*
X91706576Y-116291160D01*
X91629935Y-116255377D01*
X91560136Y-116210650D01*
X91497624Y-116157482D01*
X91442839Y-116096375D01*
X91396223Y-116027830D01*
X91358219Y-115952350D01*
X91329269Y-115870435D01*
X91309815Y-115782588D01*
X91308490Y-115773092D01*
X91305662Y-115742806D01*
X91303938Y-115713436D01*
X91597591Y-115713436D01*
X91598214Y-115738426D01*
X91601174Y-115765478D01*
X91606412Y-115791627D01*
X91614010Y-115817784D01*
X91633142Y-115863893D01*
X91659418Y-115905399D01*
X91694903Y-115945901D01*
X91736385Y-115982468D01*
X91785093Y-116013097D01*
X91838491Y-116034390D01*
X91897846Y-116046841D01*
X91964428Y-116050944D01*
X91966374Y-116050945D01*
X92016550Y-116048898D01*
X92060367Y-116042213D01*
X92102294Y-116029913D01*
X92146800Y-116011019D01*
X92181033Y-115991331D01*
X92223200Y-115957097D01*
X92259663Y-115915763D01*
X92287923Y-115869831D01*
X92297472Y-115848504D01*
X92309549Y-115814496D01*
X92318551Y-115780155D01*
X92324139Y-115747658D01*
X92325974Y-115719178D01*
X92323718Y-115696890D01*
X92317031Y-115682968D01*
X92314863Y-115681419D01*
X92310232Y-115679745D01*
X92302652Y-115678334D01*
X92291263Y-115677165D01*
X92275203Y-115676216D01*
X92253608Y-115675464D01*
X92225617Y-115674888D01*
X92190368Y-115674466D01*
X92146998Y-115674176D01*
X92094646Y-115673996D01*
X92032449Y-115673904D01*
X91959546Y-115673878D01*
X91914660Y-115673896D01*
X91844031Y-115674023D01*
X91783952Y-115674280D01*
X91733774Y-115674681D01*
X91692847Y-115675239D01*
X91660519Y-115675966D01*
X91636142Y-115676875D01*
X91619064Y-115677978D01*
X91608636Y-115679289D01*
X91604208Y-115680820D01*
X91603593Y-115681518D01*
X91599364Y-115693478D01*
X91597591Y-115713436D01*
X91303938Y-115713436D01*
X91303362Y-115703618D01*
X91301591Y-115657390D01*
X91300348Y-115605981D01*
X91299636Y-115551250D01*
X91299455Y-115495058D01*
X91299805Y-115439265D01*
X91300688Y-115385729D01*
X91302105Y-115336310D01*
X91304056Y-115292870D01*
X91306542Y-115257266D01*
X91309564Y-115231359D01*
X91309780Y-115230024D01*
X91329460Y-115141133D01*
X91358513Y-115058992D01*
X91396990Y-114983503D01*
X91444942Y-114914563D01*
X91502420Y-114852074D01*
X91516104Y-114839397D01*
X91577133Y-114790972D01*
X91643044Y-114751551D01*
X91714902Y-114720656D01*
X91793769Y-114697812D01*
X91880710Y-114682541D01*
X91904919Y-114680892D01*
X91937721Y-114680716D01*
X91975728Y-114681863D01*
G37*
G36*
X84764828Y-114692247D02*
G01*
X84809646Y-114695068D01*
X84847113Y-114699656D01*
X84871379Y-114704146D01*
X84957763Y-114727028D01*
X85040485Y-114759692D01*
X85118132Y-114801406D01*
X85189290Y-114851442D01*
X85252546Y-114909068D01*
X85275219Y-114933591D01*
X85321446Y-114991776D01*
X85358677Y-115052578D01*
X85388425Y-115118684D01*
X85412201Y-115192779D01*
X85414985Y-115203299D01*
X85419733Y-115223199D01*
X85423100Y-115241895D01*
X85425327Y-115261941D01*
X85426656Y-115285893D01*
X85427327Y-115316303D01*
X85427581Y-115355727D01*
X85427606Y-115384343D01*
X85427305Y-115416796D01*
X85426384Y-115442204D01*
X85424593Y-115463215D01*
X85421683Y-115482480D01*
X85417405Y-115502649D01*
X85411508Y-115526372D01*
X85393664Y-115585275D01*
X85362575Y-115658345D01*
X85322976Y-115724649D01*
X85274395Y-115784752D01*
X85216358Y-115839218D01*
X85148391Y-115888612D01*
X85070022Y-115933497D01*
X85067492Y-115934779D01*
X85026031Y-115953345D01*
X84975022Y-115972421D01*
X84916301Y-115991408D01*
X84851700Y-116009712D01*
X84783056Y-116026736D01*
X84714919Y-116043444D01*
X84643499Y-116063644D01*
X84583412Y-116083990D01*
X84534739Y-116104455D01*
X84497556Y-116125011D01*
X84478882Y-116137927D01*
X84435951Y-116174847D01*
X84403564Y-116215544D01*
X84381143Y-116261081D01*
X84368111Y-116312519D01*
X84363893Y-116370917D01*
X84364107Y-116389894D01*
X84365900Y-116418852D01*
X84370022Y-116443154D01*
X84377082Y-116467247D01*
X84379265Y-116473411D01*
X84402999Y-116523327D01*
X84435238Y-116566050D01*
X84476341Y-116601903D01*
X84526672Y-116631208D01*
X84586592Y-116654288D01*
X84588464Y-116654850D01*
X84615746Y-116660601D01*
X84650690Y-116664802D01*
X84689775Y-116667306D01*
X84729481Y-116667963D01*
X84766288Y-116666625D01*
X84796673Y-116663143D01*
X84817865Y-116658833D01*
X84874255Y-116641557D01*
X84925317Y-116617312D01*
X84969609Y-116587023D01*
X85005687Y-116551615D01*
X85032110Y-116512016D01*
X85041201Y-116493247D01*
X85051343Y-116467563D01*
X85058253Y-116441253D01*
X85062810Y-116410673D01*
X85065895Y-116372182D01*
X85066904Y-116356047D01*
X85068808Y-116331583D01*
X85071066Y-116315011D01*
X85074256Y-116303897D01*
X85078952Y-116295807D01*
X85085731Y-116288306D01*
X85101443Y-116272580D01*
X85214356Y-116270788D01*
X85327270Y-116268996D01*
X85368580Y-116310306D01*
X85365816Y-116392673D01*
X85363675Y-116433628D01*
X85358145Y-116482475D01*
X85348840Y-116526430D01*
X85334918Y-116569217D01*
X85315535Y-116614556D01*
X85315448Y-116614743D01*
X85275575Y-116686563D01*
X85226780Y-116751492D01*
X85169765Y-116809060D01*
X85105232Y-116858795D01*
X85033882Y-116900227D01*
X84956417Y-116932884D01*
X84873538Y-116956296D01*
X84785948Y-116969991D01*
X84727639Y-116973292D01*
X84637440Y-116969249D01*
X84548890Y-116954289D01*
X84463137Y-116928706D01*
X84381328Y-116892794D01*
X84304611Y-116846845D01*
X84276727Y-116825436D01*
X84243922Y-116796252D01*
X84211207Y-116763726D01*
X84181792Y-116731060D01*
X84158889Y-116701460D01*
X84154430Y-116694774D01*
X84132781Y-116657034D01*
X84111835Y-116612614D01*
X84093334Y-116565484D01*
X84079023Y-116519614D01*
X84075673Y-116506613D01*
X84070666Y-116484267D01*
X84067331Y-116462966D01*
X84065344Y-116439557D01*
X84064386Y-116410889D01*
X84064132Y-116373810D01*
X84065751Y-116318325D01*
X84074542Y-116241533D01*
X84091414Y-116171274D01*
X84116875Y-116106054D01*
X84151427Y-116044379D01*
X84195577Y-115984755D01*
X84222879Y-115954521D01*
X84257387Y-115923011D01*
X84297875Y-115892765D01*
X84346943Y-115861668D01*
X84374744Y-115845698D01*
X84404950Y-115829964D01*
X84435628Y-115816064D01*
X84468598Y-115803358D01*
X84505681Y-115791207D01*
X84548697Y-115778971D01*
X84599467Y-115766009D01*
X84659810Y-115751682D01*
X84704833Y-115740947D01*
X84782921Y-115720411D01*
X84850640Y-115699562D01*
X84908774Y-115677898D01*
X84958107Y-115654917D01*
X84999422Y-115630117D01*
X85033502Y-115602996D01*
X85061132Y-115573052D01*
X85083095Y-115539783D01*
X85100175Y-115502687D01*
X85113154Y-115461262D01*
X85117824Y-115439038D01*
X85122841Y-115396406D01*
X85124178Y-115351324D01*
X85121777Y-115308244D01*
X85115581Y-115271620D01*
X85098102Y-115219881D01*
X85068592Y-115164981D01*
X85029857Y-115116401D01*
X84982637Y-115075042D01*
X84927670Y-115041808D01*
X84916372Y-115036336D01*
X84877552Y-115019489D01*
X84841378Y-115007715D01*
X84804341Y-115000252D01*
X84762932Y-114996335D01*
X84713641Y-114995199D01*
X84701081Y-114995257D01*
X84654021Y-114996986D01*
X84613949Y-115001684D01*
X84577306Y-115010120D01*
X84540531Y-115023062D01*
X84500065Y-115041277D01*
X84474397Y-115054432D01*
X84449775Y-115069681D01*
X84427540Y-115087494D01*
X84403041Y-115111225D01*
X84371304Y-115147760D01*
X84340719Y-115195946D01*
X84319509Y-115248471D01*
X84307130Y-115306754D01*
X84303038Y-115372213D01*
X84303021Y-115379705D01*
X84302697Y-115402607D01*
X84301361Y-115417695D01*
X84298212Y-115427958D01*
X84292449Y-115436386D01*
X84283270Y-115445966D01*
X84263603Y-115465634D01*
X84037735Y-115465634D01*
X84019938Y-115450658D01*
X84002141Y-115435683D01*
X84002141Y-115344569D01*
X84002359Y-115317596D01*
X84004258Y-115272578D01*
X84008654Y-115233508D01*
X84016199Y-115196756D01*
X84027549Y-115158686D01*
X84043357Y-115115668D01*
X84053825Y-115090618D01*
X84092218Y-115018194D01*
X84140118Y-114951126D01*
X84196642Y-114890100D01*
X84260907Y-114835805D01*
X84332029Y-114788929D01*
X84409125Y-114750158D01*
X84491311Y-114720182D01*
X84577704Y-114699687D01*
X84584258Y-114698610D01*
X84622376Y-114694373D01*
X84667583Y-114691899D01*
X84716270Y-114691191D01*
X84764828Y-114692247D01*
G37*
G36*
X89590025Y-114681713D02*
G01*
X89590856Y-114681736D01*
X89682084Y-114689168D01*
X89767064Y-114706323D01*
X89845857Y-114733227D01*
X89918523Y-114769906D01*
X89985123Y-114816383D01*
X90045716Y-114872685D01*
X90059101Y-114887391D01*
X90079537Y-114911501D01*
X90097309Y-114934333D01*
X90109655Y-114952441D01*
X90112824Y-114957833D01*
X90132573Y-114995354D01*
X90149931Y-115034893D01*
X90164311Y-115074455D01*
X90175128Y-115112046D01*
X90181797Y-115145672D01*
X90183730Y-115173340D01*
X90180343Y-115193053D01*
X90177005Y-115199743D01*
X90169714Y-115208155D01*
X90158573Y-115214283D01*
X90142042Y-115218462D01*
X90118579Y-115221029D01*
X90086644Y-115222321D01*
X90044696Y-115222673D01*
X90009465Y-115222514D01*
X89976121Y-115221432D01*
X89951057Y-115218569D01*
X89932477Y-115213071D01*
X89918586Y-115204082D01*
X89907588Y-115190746D01*
X89897685Y-115172208D01*
X89887081Y-115147613D01*
X89885200Y-115143237D01*
X89862839Y-115104616D01*
X89831905Y-115067719D01*
X89795023Y-115035273D01*
X89754815Y-115010008D01*
X89713873Y-114992200D01*
X89671345Y-114980186D01*
X89624386Y-114973483D01*
X89569779Y-114971420D01*
X89560515Y-114971453D01*
X89517698Y-114972705D01*
X89482353Y-114976249D01*
X89451123Y-114982744D01*
X89420646Y-114992850D01*
X89387565Y-115007228D01*
X89349078Y-115030060D01*
X89310490Y-115062065D01*
X89276556Y-115099427D01*
X89250505Y-115139041D01*
X89241701Y-115157627D01*
X89229656Y-115189688D01*
X89218967Y-115225594D01*
X89210002Y-115263241D01*
X89203131Y-115300526D01*
X89198723Y-115335347D01*
X89197148Y-115365600D01*
X89198775Y-115389181D01*
X89203973Y-115403989D01*
X89204826Y-115404964D01*
X89207386Y-115406644D01*
X89211798Y-115408100D01*
X89218811Y-115409349D01*
X89229170Y-115410404D01*
X89243624Y-115411282D01*
X89262921Y-115411996D01*
X89287807Y-115412563D01*
X89319029Y-115412998D01*
X89357337Y-115413316D01*
X89403476Y-115413531D01*
X89458195Y-115413660D01*
X89522240Y-115413716D01*
X89596359Y-115413717D01*
X89681301Y-115413675D01*
X89755061Y-115413621D01*
X89833271Y-115413571D01*
X89901269Y-115413589D01*
X89959794Y-115413730D01*
X90009587Y-115414047D01*
X90051385Y-115414595D01*
X90085928Y-115415428D01*
X90113955Y-115416600D01*
X90136206Y-115418166D01*
X90153420Y-115420180D01*
X90166335Y-115422696D01*
X90175692Y-115425768D01*
X90182229Y-115429450D01*
X90186686Y-115433798D01*
X90189802Y-115438864D01*
X90192316Y-115444704D01*
X90194967Y-115451371D01*
X90195863Y-115454145D01*
X90198373Y-115469816D01*
X90200391Y-115494517D01*
X90201904Y-115526327D01*
X90202898Y-115563324D01*
X90203360Y-115603587D01*
X90203279Y-115645197D01*
X90202639Y-115686232D01*
X90201429Y-115724770D01*
X90199636Y-115758893D01*
X90197246Y-115786677D01*
X90195001Y-115804821D01*
X90181293Y-115879617D01*
X90161246Y-115950079D01*
X90135559Y-116014066D01*
X90104932Y-116069432D01*
X90082788Y-116101123D01*
X90030436Y-116161791D01*
X89970688Y-116213623D01*
X89903458Y-116256680D01*
X89828660Y-116291019D01*
X89746208Y-116316699D01*
X89727159Y-116321177D01*
X89709069Y-116324657D01*
X89690482Y-116327115D01*
X89669185Y-116328716D01*
X89642962Y-116329624D01*
X89609601Y-116330005D01*
X89566887Y-116330021D01*
X89551712Y-116329979D01*
X89513060Y-116329722D01*
X89483046Y-116329125D01*
X89459472Y-116327996D01*
X89440140Y-116326147D01*
X89422852Y-116323387D01*
X89405410Y-116319528D01*
X89385615Y-116314378D01*
X89349219Y-116303499D01*
X89269634Y-116271553D01*
X89196913Y-116230491D01*
X89131409Y-116180695D01*
X89073476Y-116122548D01*
X89023466Y-116056434D01*
X88981732Y-115982736D01*
X88948628Y-115901836D01*
X88924507Y-115814118D01*
X88924272Y-115813017D01*
X88920828Y-115795429D01*
X88918028Y-115777341D01*
X88915775Y-115757172D01*
X88913970Y-115733339D01*
X88913083Y-115715649D01*
X89203711Y-115715649D01*
X89205668Y-115732996D01*
X89209729Y-115758992D01*
X89211945Y-115771333D01*
X89229357Y-115832499D01*
X89256002Y-115887261D01*
X89291207Y-115935078D01*
X89334298Y-115975405D01*
X89384602Y-116007702D01*
X89441445Y-116031424D01*
X89504154Y-116046029D01*
X89572055Y-116050975D01*
X89620855Y-116049071D01*
X89668514Y-116042050D01*
X89713078Y-116028990D01*
X89758567Y-116008985D01*
X89765615Y-116005328D01*
X89814796Y-115972661D01*
X89856747Y-115931663D01*
X89890297Y-115883682D01*
X89914275Y-115830061D01*
X89916651Y-115822422D01*
X89922785Y-115796475D01*
X89927348Y-115767880D01*
X89930127Y-115739418D01*
X89930908Y-115713873D01*
X89929476Y-115694026D01*
X89925617Y-115682661D01*
X89924240Y-115681491D01*
X89920116Y-115679821D01*
X89912906Y-115678410D01*
X89901762Y-115677236D01*
X89885837Y-115676278D01*
X89864282Y-115675516D01*
X89836247Y-115674928D01*
X89800886Y-115674494D01*
X89757350Y-115674193D01*
X89704790Y-115674004D01*
X89642357Y-115673906D01*
X89569204Y-115673878D01*
X89220080Y-115673878D01*
X89210371Y-115688695D01*
X89206205Y-115695976D01*
X89203882Y-115704220D01*
X89203711Y-115715649D01*
X88913083Y-115715649D01*
X88912512Y-115704263D01*
X88911305Y-115668361D01*
X88910249Y-115624052D01*
X88909246Y-115569756D01*
X88908482Y-115512873D01*
X88908304Y-115438843D01*
X88909361Y-115374102D01*
X88911799Y-115317324D01*
X88915761Y-115267181D01*
X88921390Y-115222348D01*
X88928831Y-115181497D01*
X88938227Y-115143301D01*
X88949722Y-115106435D01*
X88963460Y-115069572D01*
X88965379Y-115064825D01*
X89002221Y-114989482D01*
X89047982Y-114921105D01*
X89102013Y-114860185D01*
X89163668Y-114807209D01*
X89232298Y-114762668D01*
X89307255Y-114727048D01*
X89387892Y-114700841D01*
X89473561Y-114684534D01*
X89474059Y-114684472D01*
X89495223Y-114682767D01*
X89524093Y-114681679D01*
X89556939Y-114681298D01*
X89590025Y-114681713D01*
G37*
G36*
X90612973Y-114720195D02*
G01*
X90634152Y-114721159D01*
X90648762Y-114722832D01*
X90658553Y-114725353D01*
X90665277Y-114728859D01*
X90668027Y-114730785D01*
X90673097Y-114734620D01*
X90677486Y-114738981D01*
X90681241Y-114744658D01*
X90684413Y-114752440D01*
X90687050Y-114763114D01*
X90689203Y-114777470D01*
X90690919Y-114796297D01*
X90692249Y-114820382D01*
X90693241Y-114850516D01*
X90693946Y-114887486D01*
X90694412Y-114932082D01*
X90694689Y-114985092D01*
X90694826Y-115047305D01*
X90694871Y-115119510D01*
X90694876Y-115202495D01*
X90694877Y-115250510D01*
X90694908Y-115328554D01*
X90695023Y-115396424D01*
X90695278Y-115455017D01*
X90695727Y-115505231D01*
X90696428Y-115547962D01*
X90697434Y-115584108D01*
X90698802Y-115614566D01*
X90700587Y-115640234D01*
X90702845Y-115662008D01*
X90705630Y-115680786D01*
X90708999Y-115697466D01*
X90713007Y-115712944D01*
X90717710Y-115728117D01*
X90723162Y-115743884D01*
X90729420Y-115761140D01*
X90755274Y-115816858D01*
X90791765Y-115869748D01*
X90836999Y-115916327D01*
X90890054Y-115955790D01*
X90950002Y-115987333D01*
X91015919Y-116010152D01*
X91024672Y-116012353D01*
X91049771Y-116017319D01*
X91078548Y-116020936D01*
X91113629Y-116023484D01*
X91157640Y-116025243D01*
X91185234Y-116026119D01*
X91223568Y-116028176D01*
X91252457Y-116032105D01*
X91273238Y-116039237D01*
X91287245Y-116050907D01*
X91295813Y-116068447D01*
X91300277Y-116093190D01*
X91301972Y-116126469D01*
X91302233Y-116169617D01*
X91302106Y-116201753D01*
X91301560Y-116228583D01*
X91300383Y-116247721D01*
X91298366Y-116261213D01*
X91295299Y-116271104D01*
X91290973Y-116279441D01*
X91287510Y-116284949D01*
X91280226Y-116294502D01*
X91271642Y-116301407D01*
X91260050Y-116306017D01*
X91243739Y-116308681D01*
X91221000Y-116309751D01*
X91190124Y-116309577D01*
X91149401Y-116308512D01*
X91131525Y-116307887D01*
X91068506Y-116303841D01*
X91013840Y-116296608D01*
X90965130Y-116285377D01*
X90919983Y-116269341D01*
X90876002Y-116247688D01*
X90830794Y-116219609D01*
X90781963Y-116184295D01*
X90778116Y-116181371D01*
X90749642Y-116160449D01*
X90727958Y-116146523D01*
X90711344Y-116139036D01*
X90698082Y-116137433D01*
X90686453Y-116141159D01*
X90674738Y-116149658D01*
X90667693Y-116157286D01*
X90661030Y-116169693D01*
X90655108Y-116188341D01*
X90648903Y-116215858D01*
X90645056Y-116233571D01*
X90636237Y-116265155D01*
X90626368Y-116287399D01*
X90614657Y-116301840D01*
X90600310Y-116310014D01*
X90590589Y-116312341D01*
X90568585Y-116314785D01*
X90541053Y-116315894D01*
X90511401Y-116315714D01*
X90483039Y-116314290D01*
X90459374Y-116311670D01*
X90443818Y-116307898D01*
X90440264Y-116306557D01*
X90435164Y-116304969D01*
X90430588Y-116303484D01*
X90426507Y-116301519D01*
X90422894Y-116298491D01*
X90419720Y-116293816D01*
X90416958Y-116286910D01*
X90414578Y-116277189D01*
X90412552Y-116264071D01*
X90410853Y-116246970D01*
X90409453Y-116225305D01*
X90408322Y-116198490D01*
X90407433Y-116165943D01*
X90406757Y-116127079D01*
X90406266Y-116081315D01*
X90405933Y-116028068D01*
X90405728Y-115966754D01*
X90405624Y-115896789D01*
X90405592Y-115817589D01*
X90405604Y-115728571D01*
X90405632Y-115629152D01*
X90405648Y-115518747D01*
X90405648Y-115505501D01*
X90405658Y-115397542D01*
X90405691Y-115300491D01*
X90405753Y-115213757D01*
X90405853Y-115136748D01*
X90405997Y-115068871D01*
X90406194Y-115009536D01*
X90406449Y-114958149D01*
X90406772Y-114914119D01*
X90407169Y-114876855D01*
X90407647Y-114845764D01*
X90408215Y-114820254D01*
X90408880Y-114799733D01*
X90409648Y-114783610D01*
X90410528Y-114771293D01*
X90411526Y-114762189D01*
X90412651Y-114755707D01*
X90413909Y-114751254D01*
X90415309Y-114748240D01*
X90425477Y-114735169D01*
X90437001Y-114726046D01*
X90443827Y-114724485D01*
X90461091Y-114722721D01*
X90486047Y-114721277D01*
X90516542Y-114720269D01*
X90550421Y-114719817D01*
X90583474Y-114719803D01*
X90612973Y-114720195D01*
G37*
G36*
X86234541Y-114692277D02*
G01*
X86277658Y-114694859D01*
X86314065Y-114699154D01*
X86333071Y-114702498D01*
X86417476Y-114724061D01*
X86496007Y-114755341D01*
X86568169Y-114795860D01*
X86633466Y-114845142D01*
X86691404Y-114902708D01*
X86741488Y-114968081D01*
X86783223Y-115040784D01*
X86816114Y-115120339D01*
X86839667Y-115206268D01*
X86843726Y-115228977D01*
X86849092Y-115272479D01*
X86853312Y-115324227D01*
X86856384Y-115382245D01*
X86858310Y-115444558D01*
X86859088Y-115509190D01*
X86858720Y-115574164D01*
X86857205Y-115637506D01*
X86854542Y-115697238D01*
X86850733Y-115751386D01*
X86845776Y-115797973D01*
X86839673Y-115835024D01*
X86827867Y-115882766D01*
X86799430Y-115963444D01*
X86761936Y-116038219D01*
X86715966Y-116106387D01*
X86662096Y-116167243D01*
X86600908Y-116220081D01*
X86532978Y-116264196D01*
X86458886Y-116298884D01*
X86428431Y-116310263D01*
X86393245Y-116321873D01*
X86360441Y-116330317D01*
X86327235Y-116336047D01*
X86290846Y-116339517D01*
X86248489Y-116341180D01*
X86197381Y-116341490D01*
X86162426Y-116341278D01*
X86129457Y-116340736D01*
X86103712Y-116339680D01*
X86082832Y-116337897D01*
X86064453Y-116335175D01*
X86046215Y-116331302D01*
X86025756Y-116326066D01*
X86024745Y-116325794D01*
X85941905Y-116298167D01*
X85866399Y-116261945D01*
X85798556Y-116217313D01*
X85738704Y-116164456D01*
X85701195Y-116123604D01*
X85656199Y-116064980D01*
X85619677Y-116003603D01*
X85591004Y-115937973D01*
X85569557Y-115866589D01*
X85554712Y-115787950D01*
X85545845Y-115700556D01*
X85545042Y-115686818D01*
X85543523Y-115647883D01*
X85542584Y-115602540D01*
X85542196Y-115552784D01*
X85542231Y-115539125D01*
X85827138Y-115539125D01*
X85827918Y-115594421D01*
X85829672Y-115647568D01*
X85829702Y-115648258D01*
X85831733Y-115691822D01*
X85833677Y-115725842D01*
X85835768Y-115752312D01*
X85838242Y-115773224D01*
X85841333Y-115790573D01*
X85845277Y-115806351D01*
X85850309Y-115822551D01*
X85852130Y-115827906D01*
X85877566Y-115884244D01*
X85911995Y-115934319D01*
X85954444Y-115976937D01*
X86003935Y-116010899D01*
X86017109Y-116017973D01*
X86059029Y-116036755D01*
X86101151Y-116049112D01*
X86147043Y-116055899D01*
X86200273Y-116057971D01*
X86215033Y-116057909D01*
X86246507Y-116057045D01*
X86271425Y-116054841D01*
X86293380Y-116050888D01*
X86315964Y-116044774D01*
X86339416Y-116036894D01*
X86397975Y-116009634D01*
X86448794Y-115974107D01*
X86491430Y-115930733D01*
X86525439Y-115879935D01*
X86550377Y-115822134D01*
X86551196Y-115819646D01*
X86556060Y-115803734D01*
X86559842Y-115788206D01*
X86562771Y-115771071D01*
X86565076Y-115750337D01*
X86566985Y-115724013D01*
X86568728Y-115690106D01*
X86570533Y-115646626D01*
X86570679Y-115642796D01*
X86572146Y-115589382D01*
X86572703Y-115533946D01*
X86572409Y-115478186D01*
X86571322Y-115423799D01*
X86569502Y-115372483D01*
X86567009Y-115325937D01*
X86563901Y-115285858D01*
X86560237Y-115253944D01*
X86556077Y-115231893D01*
X86554575Y-115226434D01*
X86533104Y-115171521D01*
X86501933Y-115121020D01*
X86462414Y-115076250D01*
X86415898Y-115038526D01*
X86363739Y-115009167D01*
X86307287Y-114989490D01*
X86295817Y-114986872D01*
X86243502Y-114979403D01*
X86187871Y-114977617D01*
X86133404Y-114981486D01*
X86084582Y-114990979D01*
X86080449Y-114992232D01*
X86060920Y-114999593D01*
X86036769Y-115010177D01*
X86012275Y-115022140D01*
X85986100Y-115037377D01*
X85939279Y-115074327D01*
X85899348Y-115119461D01*
X85867486Y-115171326D01*
X85844874Y-115228467D01*
X85843884Y-115232098D01*
X85839537Y-115255699D01*
X85835740Y-115288835D01*
X85832555Y-115329837D01*
X85830042Y-115377037D01*
X85828261Y-115428764D01*
X85827273Y-115483349D01*
X85827138Y-115539125D01*
X85542231Y-115539125D01*
X85542329Y-115500614D01*
X85542955Y-115448025D01*
X85544045Y-115397016D01*
X85545568Y-115349583D01*
X85547496Y-115307723D01*
X85549799Y-115273434D01*
X85552449Y-115248713D01*
X85567984Y-115171153D01*
X85594685Y-115088724D01*
X85630570Y-115012493D01*
X85675121Y-114942987D01*
X85727818Y-114880733D01*
X85788143Y-114826259D01*
X85855578Y-114780092D01*
X85929604Y-114742759D01*
X86009703Y-114714787D01*
X86095356Y-114696704D01*
X86106584Y-114695269D01*
X86144837Y-114692435D01*
X86188878Y-114691453D01*
X86234541Y-114692277D01*
G37*
G36*
X87206443Y-114719949D02*
G01*
X87233871Y-114721255D01*
X87254939Y-114723301D01*
X87267171Y-114726102D01*
X87279683Y-114734510D01*
X87292028Y-114747794D01*
X87292322Y-114748246D01*
X87293545Y-114750715D01*
X87294666Y-114754343D01*
X87295690Y-114759626D01*
X87296621Y-114767060D01*
X87297466Y-114777140D01*
X87298229Y-114790363D01*
X87298917Y-114807224D01*
X87299533Y-114828218D01*
X87300085Y-114853841D01*
X87300576Y-114884590D01*
X87301013Y-114920959D01*
X87301400Y-114963445D01*
X87301744Y-115012543D01*
X87302048Y-115068749D01*
X87302320Y-115132558D01*
X87302563Y-115204466D01*
X87302784Y-115284970D01*
X87302988Y-115374564D01*
X87303180Y-115473744D01*
X87303365Y-115583006D01*
X87303550Y-115702847D01*
X87303738Y-115833760D01*
X87303911Y-115966903D01*
X87304042Y-116092017D01*
X87304125Y-116206409D01*
X87304156Y-116310506D01*
X87304134Y-116404735D01*
X87304056Y-116489526D01*
X87303920Y-116565305D01*
X87303724Y-116632500D01*
X87303465Y-116691540D01*
X87303142Y-116742852D01*
X87302752Y-116786864D01*
X87302292Y-116824004D01*
X87301761Y-116854700D01*
X87301156Y-116879379D01*
X87300475Y-116898470D01*
X87299716Y-116912400D01*
X87298876Y-116921597D01*
X87297953Y-116926489D01*
X87293815Y-116937523D01*
X87286367Y-116950670D01*
X87275950Y-116960158D01*
X87260847Y-116966632D01*
X87239338Y-116970737D01*
X87209706Y-116973117D01*
X87170232Y-116974418D01*
X87166853Y-116974489D01*
X87124920Y-116974822D01*
X87092714Y-116973692D01*
X87068565Y-116970795D01*
X87050805Y-116965825D01*
X87037765Y-116958480D01*
X87027775Y-116948454D01*
X87015896Y-116933352D01*
X87016101Y-115848081D01*
X87016107Y-115813215D01*
X87016124Y-115683195D01*
X87016140Y-115564132D01*
X87016166Y-115455539D01*
X87016217Y-115356926D01*
X87016304Y-115267807D01*
X87016441Y-115187693D01*
X87016640Y-115116096D01*
X87016915Y-115052528D01*
X87017277Y-114996502D01*
X87017740Y-114947528D01*
X87018316Y-114905120D01*
X87019019Y-114868790D01*
X87019860Y-114838048D01*
X87020854Y-114812408D01*
X87022012Y-114791382D01*
X87023347Y-114774481D01*
X87024872Y-114761217D01*
X87026601Y-114751103D01*
X87028545Y-114743650D01*
X87030717Y-114738371D01*
X87033131Y-114734777D01*
X87035799Y-114732381D01*
X87038734Y-114730694D01*
X87041949Y-114729229D01*
X87045455Y-114727498D01*
X87047099Y-114726768D01*
X87060646Y-114723965D01*
X87082701Y-114721807D01*
X87110786Y-114720311D01*
X87142423Y-114719492D01*
X87175135Y-114719366D01*
X87206443Y-114719949D01*
G37*
G36*
X89088704Y-118619894D02*
G01*
X89160076Y-118622320D01*
X89232365Y-118626766D01*
X89302614Y-118633070D01*
X89367866Y-118641071D01*
X89425165Y-118650607D01*
X89477681Y-118661681D01*
X89617272Y-118699040D01*
X89752273Y-118746843D01*
X89882239Y-118804783D01*
X90006726Y-118872556D01*
X90125290Y-118949855D01*
X90237486Y-119036375D01*
X90342871Y-119131810D01*
X90440999Y-119235855D01*
X90531428Y-119348203D01*
X90613712Y-119468549D01*
X90656983Y-119542161D01*
X90705881Y-119637387D01*
X90750588Y-119737737D01*
X90789581Y-119839757D01*
X90821339Y-119939991D01*
X90830435Y-119973538D01*
X90861135Y-120113694D01*
X90880525Y-120254784D01*
X90888711Y-120396182D01*
X90885799Y-120537260D01*
X90871896Y-120677390D01*
X90847108Y-120815946D01*
X90811540Y-120952300D01*
X90765300Y-121085825D01*
X90708492Y-121215893D01*
X90641224Y-121341878D01*
X90563602Y-121463152D01*
X90552062Y-121479479D01*
X90511812Y-121533072D01*
X90467630Y-121586723D01*
X90417660Y-121642619D01*
X90360051Y-121702941D01*
X90281937Y-121782584D01*
X90447636Y-121948924D01*
X90452670Y-121953977D01*
X90497136Y-121998684D01*
X90534188Y-122036315D01*
X90564503Y-122067892D01*
X90588756Y-122094435D01*
X90607625Y-122116966D01*
X90621785Y-122136506D01*
X90631911Y-122154077D01*
X90638680Y-122170698D01*
X90642768Y-122187392D01*
X90644852Y-122205180D01*
X90645606Y-122225083D01*
X90645707Y-122248121D01*
X90645688Y-122259887D01*
X90645243Y-122285149D01*
X90643711Y-122303567D01*
X90640441Y-122318590D01*
X90634785Y-122333666D01*
X90626092Y-122352243D01*
X90621784Y-122360667D01*
X90616375Y-122369884D01*
X90609547Y-122379878D01*
X90600616Y-122391383D01*
X90588900Y-122405133D01*
X90573716Y-122421861D01*
X90554383Y-122442301D01*
X90530216Y-122467187D01*
X90500534Y-122497253D01*
X90464655Y-122533233D01*
X90421895Y-122575859D01*
X90371571Y-122625868D01*
X90349665Y-122647600D01*
X90293513Y-122703094D01*
X90244215Y-122751412D01*
X90200871Y-122793372D01*
X90162578Y-122829789D01*
X90128434Y-122861479D01*
X90097540Y-122889256D01*
X90068992Y-122913937D01*
X90041889Y-122936338D01*
X90015330Y-122957273D01*
X89988413Y-122977560D01*
X89960237Y-122998012D01*
X89931775Y-123017877D01*
X89818867Y-123088129D01*
X89698692Y-123150184D01*
X89572372Y-123203604D01*
X89441028Y-123247949D01*
X89305780Y-123282782D01*
X89167752Y-123307664D01*
X89149744Y-123309916D01*
X89104920Y-123313787D01*
X89052366Y-123316536D01*
X88994488Y-123318174D01*
X88933694Y-123318713D01*
X88872390Y-123318164D01*
X88812983Y-123316539D01*
X88757879Y-123313849D01*
X88709485Y-123310105D01*
X88670207Y-123305318D01*
X88635198Y-123299551D01*
X88488925Y-123268788D01*
X88348739Y-123228197D01*
X88214568Y-123177741D01*
X88086337Y-123117382D01*
X87963973Y-123047084D01*
X87847402Y-122966808D01*
X87736552Y-122876518D01*
X87631348Y-122776175D01*
X87544110Y-122680241D01*
X87461616Y-122575102D01*
X87387922Y-122464432D01*
X87321687Y-122346367D01*
X87313024Y-122329422D01*
X87289918Y-122282727D01*
X87270450Y-122240371D01*
X87252972Y-122198473D01*
X87235840Y-122153151D01*
X87217405Y-122100523D01*
X87178375Y-121970199D01*
X87148096Y-121830660D01*
X87129010Y-121689786D01*
X87121074Y-121548227D01*
X87121992Y-121507297D01*
X87428663Y-121507297D01*
X87428947Y-121563381D01*
X87430230Y-121617574D01*
X87432512Y-121667473D01*
X87435793Y-121710674D01*
X87440074Y-121744773D01*
X87440652Y-121748231D01*
X87468541Y-121882527D01*
X87506007Y-122010457D01*
X87553192Y-122132343D01*
X87610237Y-122248506D01*
X87677281Y-122359268D01*
X87754466Y-122464951D01*
X87773502Y-122487857D01*
X87806568Y-122524811D01*
X87844212Y-122564372D01*
X87884079Y-122604208D01*
X87923816Y-122641984D01*
X87961070Y-122675365D01*
X87993486Y-122702017D01*
X88015425Y-122718633D01*
X88127173Y-122794826D01*
X88243447Y-122860456D01*
X88363976Y-122915409D01*
X88488487Y-122959573D01*
X88616709Y-122992835D01*
X88748371Y-123015083D01*
X88768827Y-123017273D01*
X88816594Y-123020454D01*
X88871303Y-123022115D01*
X88929948Y-123022299D01*
X88989523Y-123021051D01*
X89047024Y-123018418D01*
X89099444Y-123014442D01*
X89143778Y-123009170D01*
X89177941Y-123003684D01*
X89307414Y-122976094D01*
X89431518Y-122938438D01*
X89550792Y-122890477D01*
X89665776Y-122831974D01*
X89777012Y-122762690D01*
X89885037Y-122682387D01*
X89896227Y-122672942D01*
X89917018Y-122654303D01*
X89943033Y-122630143D01*
X89973136Y-122601588D01*
X90006192Y-122569760D01*
X90041069Y-122535783D01*
X90076630Y-122500781D01*
X90111741Y-122465878D01*
X90145269Y-122432197D01*
X90176078Y-122400862D01*
X90203033Y-122372997D01*
X90225001Y-122349725D01*
X90240847Y-122332170D01*
X90249437Y-122321457D01*
X90264447Y-122291328D01*
X90271111Y-122254897D01*
X90266388Y-122217440D01*
X90261895Y-122204945D01*
X90254394Y-122191539D01*
X90242620Y-122175873D01*
X90225165Y-122156084D01*
X90200622Y-122130306D01*
X90194896Y-122124426D01*
X90169178Y-122098627D01*
X90148953Y-122079941D01*
X90132376Y-122067084D01*
X90117603Y-122058773D01*
X90102790Y-122053727D01*
X90086091Y-122050661D01*
X90079931Y-122049844D01*
X90066771Y-122048583D01*
X90054693Y-122048790D01*
X90042771Y-122051133D01*
X90030076Y-122056284D01*
X90015680Y-122064911D01*
X89998657Y-122077686D01*
X89978078Y-122095277D01*
X89953016Y-122118356D01*
X89922543Y-122147593D01*
X89885731Y-122183656D01*
X89841653Y-122227217D01*
X89790296Y-122277688D01*
X89740333Y-122325772D01*
X89696008Y-122367048D01*
X89656187Y-122402422D01*
X89619735Y-122432802D01*
X89585517Y-122459094D01*
X89552399Y-122482203D01*
X89519247Y-122503036D01*
X89484927Y-122522501D01*
X89448303Y-122541502D01*
X89403762Y-122562849D01*
X89312035Y-122600519D01*
X89221037Y-122628812D01*
X89128296Y-122648306D01*
X89031339Y-122659579D01*
X88927693Y-122663208D01*
X88894004Y-122663001D01*
X88839156Y-122661394D01*
X88790665Y-122657883D01*
X88745205Y-122652096D01*
X88699448Y-122643663D01*
X88650069Y-122632211D01*
X88629088Y-122626754D01*
X88520646Y-122591648D01*
X88417359Y-122546552D01*
X88319802Y-122491997D01*
X88228549Y-122428512D01*
X88144175Y-122356629D01*
X88067254Y-122276876D01*
X87998361Y-122189785D01*
X87938069Y-122095886D01*
X87886954Y-121995707D01*
X87845590Y-121889781D01*
X87834358Y-121854953D01*
X87813935Y-121781692D01*
X87799478Y-121711634D01*
X87790476Y-121641257D01*
X87786414Y-121567038D01*
X87786783Y-121485455D01*
X87787280Y-121469490D01*
X87790330Y-121410330D01*
X87795442Y-121357963D01*
X87803179Y-121308619D01*
X87814102Y-121258527D01*
X87828775Y-121203917D01*
X87844870Y-121152242D01*
X87883609Y-121052732D01*
X87930885Y-120959622D01*
X87936763Y-120949401D01*
X87949449Y-120927809D01*
X87961985Y-120907416D01*
X87974931Y-120887600D01*
X87988845Y-120867740D01*
X88004286Y-120847214D01*
X88021816Y-120825402D01*
X88041992Y-120801682D01*
X88065375Y-120775434D01*
X88092523Y-120746035D01*
X88123997Y-120712865D01*
X88160355Y-120675303D01*
X88202157Y-120632727D01*
X88249963Y-120584516D01*
X88304331Y-120530049D01*
X88365822Y-120468705D01*
X88434995Y-120399863D01*
X88435746Y-120399116D01*
X88491289Y-120343994D01*
X88545105Y-120290805D01*
X88596548Y-120240174D01*
X88644974Y-120192726D01*
X88689738Y-120149086D01*
X88730194Y-120109880D01*
X88765698Y-120075733D01*
X88795605Y-120047268D01*
X88819269Y-120025113D01*
X88836046Y-120009891D01*
X88845291Y-120002228D01*
X88890173Y-119975504D01*
X88951212Y-119951089D01*
X89017839Y-119936297D01*
X89089277Y-119931354D01*
X89158828Y-119936909D01*
X89226004Y-119953627D01*
X89290050Y-119981463D01*
X89350833Y-120020374D01*
X89358298Y-120026206D01*
X89382305Y-120046990D01*
X89409616Y-120072896D01*
X89438225Y-120101805D01*
X89466129Y-120131598D01*
X89491322Y-120160154D01*
X89511799Y-120185355D01*
X89525554Y-120205080D01*
X89532462Y-120217014D01*
X89562830Y-120282285D01*
X89581961Y-120349255D01*
X89589820Y-120417201D01*
X89586374Y-120485402D01*
X89571586Y-120553134D01*
X89545423Y-120619676D01*
X89518775Y-120674630D01*
X89147544Y-121047734D01*
X89081892Y-121113696D01*
X89023686Y-121172195D01*
X88972669Y-121223589D01*
X88928373Y-121268443D01*
X88890331Y-121307325D01*
X88858076Y-121340802D01*
X88831140Y-121369441D01*
X88809056Y-121393809D01*
X88791356Y-121414474D01*
X88777573Y-121432002D01*
X88767239Y-121446960D01*
X88759888Y-121459916D01*
X88755051Y-121471437D01*
X88752262Y-121482089D01*
X88751053Y-121492440D01*
X88750956Y-121503057D01*
X88751505Y-121514506D01*
X88752231Y-121527356D01*
X88752747Y-121535970D01*
X88757718Y-121570447D01*
X88767434Y-121598003D01*
X88776230Y-121613956D01*
X88803588Y-121648161D01*
X88837385Y-121674003D01*
X88875948Y-121690890D01*
X88917605Y-121698226D01*
X88960683Y-121695417D01*
X89003509Y-121681869D01*
X89005286Y-121681044D01*
X89012287Y-121677374D01*
X89020108Y-121672453D01*
X89029312Y-121665745D01*
X89040461Y-121656713D01*
X89054119Y-121644821D01*
X89070850Y-121629534D01*
X89091215Y-121610314D01*
X89115778Y-121586626D01*
X89145102Y-121557933D01*
X89179750Y-121523700D01*
X89220286Y-121483390D01*
X89267272Y-121436467D01*
X89321271Y-121382394D01*
X89382846Y-121320636D01*
X89407035Y-121296356D01*
X89470384Y-121232673D01*
X89526273Y-121176286D01*
X89575264Y-121126568D01*
X89617917Y-121082893D01*
X89654794Y-121044635D01*
X89686456Y-121011167D01*
X89713464Y-120981862D01*
X89736379Y-120956094D01*
X89755763Y-120933237D01*
X89772175Y-120912664D01*
X89786177Y-120893749D01*
X89798331Y-120875865D01*
X89809197Y-120858386D01*
X89819337Y-120840685D01*
X89829311Y-120822136D01*
X89847649Y-120783932D01*
X89870362Y-120727440D01*
X89891037Y-120665718D01*
X89908395Y-120602323D01*
X89908756Y-120600828D01*
X89913574Y-120579178D01*
X89917068Y-120558691D01*
X89919446Y-120536822D01*
X89920918Y-120511025D01*
X89921695Y-120478754D01*
X89921986Y-120437463D01*
X89921979Y-120420630D01*
X89921065Y-120369297D01*
X89918418Y-120325481D01*
X89913579Y-120286089D01*
X89906088Y-120248026D01*
X89895488Y-120208199D01*
X89881318Y-120163515D01*
X89876276Y-120148902D01*
X89838822Y-120060293D01*
X89791893Y-119977464D01*
X89736259Y-119901025D01*
X89672688Y-119831590D01*
X89601951Y-119769769D01*
X89524817Y-119716174D01*
X89442056Y-119671417D01*
X89354438Y-119636110D01*
X89262732Y-119610864D01*
X89167707Y-119596291D01*
X89145172Y-119594360D01*
X89115690Y-119592318D01*
X89090140Y-119591068D01*
X89072307Y-119590826D01*
X89043574Y-119592057D01*
X88945557Y-119603430D01*
X88849922Y-119625564D01*
X88757821Y-119658075D01*
X88670405Y-119700575D01*
X88588828Y-119752679D01*
X88586276Y-119754583D01*
X88570594Y-119767526D01*
X88548041Y-119787656D01*
X88518470Y-119815114D01*
X88481735Y-119850041D01*
X88437690Y-119892579D01*
X88386188Y-119942868D01*
X88327083Y-120001050D01*
X88260228Y-120067266D01*
X88185478Y-120141657D01*
X88149584Y-120177484D01*
X88096192Y-120230907D01*
X88044824Y-120282455D01*
X87996168Y-120331430D01*
X87950911Y-120377137D01*
X87909740Y-120418876D01*
X87873343Y-120455952D01*
X87842406Y-120487666D01*
X87817618Y-120513322D01*
X87799665Y-120532221D01*
X87789235Y-120543667D01*
X87775890Y-120559180D01*
X87758257Y-120579666D01*
X87743696Y-120596570D01*
X87734442Y-120607297D01*
X87726265Y-120617168D01*
X87703488Y-120647756D01*
X87677897Y-120685625D01*
X87650884Y-120728460D01*
X87623839Y-120773950D01*
X87598155Y-120819781D01*
X87575221Y-120863641D01*
X87556431Y-120903216D01*
X87519738Y-120994627D01*
X87487157Y-121093293D01*
X87460185Y-121194401D01*
X87440125Y-121293577D01*
X87437508Y-121312124D01*
X87433800Y-121351736D01*
X87431089Y-121399071D01*
X87429377Y-121451726D01*
X87428663Y-121507297D01*
X87121992Y-121507297D01*
X87124248Y-121406634D01*
X87138490Y-121265656D01*
X87163759Y-121125945D01*
X87200013Y-120988149D01*
X87247210Y-120852919D01*
X87305310Y-120720906D01*
X87311432Y-120708458D01*
X87326611Y-120678326D01*
X87340961Y-120650773D01*
X87353102Y-120628420D01*
X87361652Y-120613892D01*
X87363323Y-120611305D01*
X87400694Y-120553943D01*
X87433476Y-120504794D01*
X87462950Y-120462204D01*
X87490397Y-120424520D01*
X87517098Y-120390086D01*
X87544336Y-120357247D01*
X87573390Y-120324349D01*
X87605542Y-120289738D01*
X87642074Y-120251758D01*
X87645654Y-120248076D01*
X87669721Y-120223051D01*
X87690579Y-120200906D01*
X87707000Y-120182982D01*
X87717754Y-120170615D01*
X87721612Y-120165144D01*
X87720900Y-120163973D01*
X87713772Y-120155764D01*
X87699684Y-120140634D01*
X87679491Y-120119471D01*
X87654053Y-120093164D01*
X87624225Y-120062602D01*
X87590866Y-120028674D01*
X87554832Y-119992267D01*
X87545486Y-119982852D01*
X87503366Y-119940305D01*
X87468528Y-119904736D01*
X87440210Y-119875153D01*
X87417647Y-119850565D01*
X87400079Y-119829984D01*
X87386741Y-119812418D01*
X87376872Y-119796878D01*
X87369708Y-119782372D01*
X87364488Y-119767912D01*
X87360448Y-119752505D01*
X87356827Y-119735163D01*
X87353228Y-119711907D01*
X87353080Y-119700978D01*
X87744906Y-119700978D01*
X87747713Y-119731393D01*
X87755892Y-119756561D01*
X87758655Y-119761180D01*
X87770876Y-119777170D01*
X87788764Y-119797438D01*
X87810127Y-119819803D01*
X87832772Y-119842081D01*
X87854506Y-119862089D01*
X87873137Y-119877645D01*
X87886472Y-119886564D01*
X87910234Y-119895718D01*
X87944088Y-119899731D01*
X87980773Y-119893455D01*
X87985600Y-119891995D01*
X87993789Y-119889019D01*
X88002128Y-119884920D01*
X88011509Y-119878914D01*
X88022827Y-119870220D01*
X88036976Y-119858054D01*
X88054850Y-119841636D01*
X88077343Y-119820180D01*
X88105349Y-119792907D01*
X88139762Y-119759031D01*
X88181476Y-119717773D01*
X88191763Y-119707602D01*
X88229360Y-119670678D01*
X88265420Y-119635632D01*
X88298837Y-119603515D01*
X88328504Y-119575378D01*
X88353316Y-119552273D01*
X88372164Y-119535251D01*
X88383944Y-119525364D01*
X88414228Y-119503120D01*
X88512633Y-119439955D01*
X88615310Y-119387395D01*
X88721866Y-119345601D01*
X88831909Y-119314734D01*
X88945046Y-119294955D01*
X88961256Y-119293229D01*
X89004442Y-119290404D01*
X89053947Y-119289030D01*
X89106208Y-119289080D01*
X89157662Y-119290521D01*
X89204747Y-119293325D01*
X89243898Y-119297462D01*
X89255275Y-119299121D01*
X89367611Y-119321619D01*
X89475835Y-119354453D01*
X89579272Y-119397268D01*
X89677244Y-119449705D01*
X89769076Y-119511406D01*
X89854091Y-119582014D01*
X89931612Y-119661171D01*
X89965995Y-119701262D01*
X90006241Y-119752486D01*
X90041173Y-119803145D01*
X90073175Y-119856760D01*
X90104629Y-119916852D01*
X90135042Y-119981561D01*
X90164371Y-120054181D01*
X90187251Y-120125263D01*
X90204770Y-120198266D01*
X90218019Y-120276647D01*
X90221285Y-120306742D01*
X90223955Y-120350405D01*
X90225231Y-120399168D01*
X90225161Y-120450262D01*
X90223789Y-120500919D01*
X90221161Y-120548368D01*
X90217323Y-120589841D01*
X90212321Y-120622569D01*
X90206128Y-120651668D01*
X90176184Y-120764436D01*
X90138091Y-120869765D01*
X90091357Y-120968729D01*
X90035490Y-121062401D01*
X89970000Y-121151856D01*
X89961307Y-121161871D01*
X89944542Y-121180018D01*
X89921090Y-121204739D01*
X89891690Y-121235291D01*
X89857082Y-121270933D01*
X89818003Y-121310923D01*
X89775194Y-121354519D01*
X89729394Y-121400978D01*
X89681342Y-121449561D01*
X89631777Y-121499523D01*
X89581437Y-121550124D01*
X89531064Y-121600621D01*
X89481394Y-121650273D01*
X89433169Y-121698338D01*
X89387126Y-121744074D01*
X89344005Y-121786739D01*
X89304546Y-121825591D01*
X89269486Y-121859888D01*
X89239567Y-121888889D01*
X89215526Y-121911851D01*
X89198103Y-121928033D01*
X89188036Y-121936692D01*
X89164187Y-121953755D01*
X89110442Y-121984604D01*
X89054594Y-122005732D01*
X88994419Y-122017868D01*
X88927693Y-122021737D01*
X88917010Y-122021646D01*
X88851603Y-122016584D01*
X88792398Y-122003284D01*
X88737100Y-121981064D01*
X88683413Y-121949243D01*
X88680327Y-121947075D01*
X88657110Y-121928751D01*
X88629266Y-121904153D01*
X88599150Y-121875574D01*
X88569118Y-121845309D01*
X88541527Y-121815652D01*
X88518732Y-121788896D01*
X88498953Y-121762572D01*
X88466035Y-121707691D01*
X88443386Y-121650652D01*
X88430308Y-121589448D01*
X88426103Y-121522068D01*
X88426129Y-121513286D01*
X88426954Y-121481444D01*
X88429368Y-121455671D01*
X88433943Y-121431533D01*
X88441248Y-121404598D01*
X88453596Y-121366674D01*
X88468644Y-121330621D01*
X88486777Y-121298020D01*
X88510111Y-121264569D01*
X88513941Y-121259969D01*
X88526568Y-121246110D01*
X88546362Y-121225181D01*
X88572665Y-121197853D01*
X88604816Y-121164800D01*
X88642156Y-121126694D01*
X88684024Y-121084207D01*
X88729761Y-121038012D01*
X88778706Y-120988783D01*
X88830200Y-120937190D01*
X88883583Y-120883908D01*
X88935060Y-120832591D01*
X88992172Y-120775541D01*
X89041943Y-120725661D01*
X89084875Y-120682429D01*
X89121472Y-120645321D01*
X89152235Y-120613813D01*
X89177668Y-120587382D01*
X89198273Y-120565505D01*
X89214552Y-120547659D01*
X89227009Y-120533320D01*
X89236146Y-120521965D01*
X89242465Y-120513071D01*
X89246470Y-120506114D01*
X89246762Y-120505514D01*
X89259859Y-120466010D01*
X89262514Y-120425363D01*
X89255468Y-120385326D01*
X89239460Y-120347649D01*
X89215231Y-120314084D01*
X89183522Y-120286382D01*
X89145073Y-120266294D01*
X89123230Y-120259886D01*
X89081944Y-120255790D01*
X89040505Y-120260685D01*
X89002892Y-120274347D01*
X88999160Y-120276772D01*
X88985852Y-120287549D01*
X88965575Y-120305509D01*
X88939073Y-120329909D01*
X88907090Y-120360010D01*
X88870373Y-120395072D01*
X88829664Y-120434352D01*
X88785710Y-120477112D01*
X88739256Y-120522610D01*
X88691044Y-120570105D01*
X88641822Y-120618858D01*
X88592333Y-120668128D01*
X88543323Y-120717173D01*
X88495535Y-120765254D01*
X88449715Y-120811629D01*
X88406609Y-120855559D01*
X88366959Y-120896303D01*
X88331512Y-120933119D01*
X88301012Y-120965268D01*
X88276204Y-120992010D01*
X88257833Y-121012602D01*
X88246643Y-121026305D01*
X88209753Y-121081294D01*
X88164695Y-121166042D01*
X88128888Y-121257723D01*
X88102327Y-121356353D01*
X88099942Y-121368423D01*
X88093424Y-121416255D01*
X88089654Y-121470546D01*
X88088634Y-121527756D01*
X88090366Y-121584347D01*
X88094854Y-121636780D01*
X88102099Y-121681517D01*
X88102401Y-121682904D01*
X88116866Y-121742445D01*
X88133273Y-121795391D01*
X88153323Y-121846605D01*
X88178714Y-121900956D01*
X88214598Y-121965832D01*
X88269788Y-122045234D01*
X88333293Y-122116961D01*
X88404589Y-122180610D01*
X88483149Y-122235775D01*
X88568447Y-122282052D01*
X88659959Y-122319036D01*
X88757159Y-122346322D01*
X88758601Y-122346639D01*
X88792120Y-122352104D01*
X88833830Y-122356174D01*
X88880589Y-122358778D01*
X88929254Y-122359844D01*
X88976683Y-122359301D01*
X89019736Y-122357077D01*
X89055269Y-122353102D01*
X89134649Y-122336849D01*
X89227012Y-122307715D01*
X89314854Y-122268133D01*
X89398717Y-122217854D01*
X89479146Y-122156624D01*
X89479461Y-122156356D01*
X89492171Y-122144835D01*
X89512147Y-122125829D01*
X89538620Y-122100120D01*
X89570817Y-122068487D01*
X89607967Y-122031710D01*
X89649300Y-121990569D01*
X89694043Y-121945845D01*
X89741426Y-121898318D01*
X89790677Y-121848767D01*
X89841024Y-121797974D01*
X89891697Y-121746718D01*
X89941924Y-121695779D01*
X89990933Y-121645938D01*
X90037954Y-121597975D01*
X90082215Y-121552670D01*
X90122945Y-121510803D01*
X90159372Y-121473154D01*
X90190725Y-121440504D01*
X90216232Y-121413632D01*
X90235124Y-121393320D01*
X90246627Y-121380346D01*
X90254648Y-121370642D01*
X90326368Y-121274225D01*
X90390503Y-121169977D01*
X90446545Y-121059128D01*
X90493984Y-120942913D01*
X90532311Y-120822562D01*
X90561018Y-120699308D01*
X90579594Y-120574383D01*
X90581243Y-120556064D01*
X90583618Y-120509542D01*
X90584431Y-120456200D01*
X90583772Y-120399095D01*
X90581732Y-120341285D01*
X90578403Y-120285826D01*
X90573877Y-120235777D01*
X90568243Y-120194195D01*
X90567738Y-120191228D01*
X90540432Y-120063657D01*
X90502988Y-119939276D01*
X90455879Y-119819159D01*
X90399575Y-119704382D01*
X90334550Y-119596019D01*
X90261275Y-119495146D01*
X90257293Y-119490204D01*
X90227284Y-119455046D01*
X90191556Y-119415978D01*
X90152672Y-119375609D01*
X90113196Y-119336549D01*
X90075692Y-119301406D01*
X90042725Y-119272788D01*
X89985590Y-119228076D01*
X89877640Y-119154356D01*
X89764797Y-119090446D01*
X89647848Y-119036690D01*
X89527582Y-118993432D01*
X89404786Y-118961015D01*
X89280248Y-118939784D01*
X89158722Y-118929353D01*
X89026476Y-118928676D01*
X88896186Y-118939191D01*
X88768315Y-118960776D01*
X88643327Y-118993308D01*
X88521686Y-119036665D01*
X88403857Y-119090723D01*
X88290301Y-119155359D01*
X88181485Y-119230452D01*
X88177087Y-119233811D01*
X88150956Y-119254895D01*
X88120083Y-119281326D01*
X88085495Y-119312098D01*
X88048220Y-119346205D01*
X88009284Y-119382641D01*
X87969715Y-119420402D01*
X87930539Y-119458481D01*
X87892784Y-119495872D01*
X87857476Y-119531570D01*
X87825644Y-119564569D01*
X87798312Y-119593863D01*
X87776510Y-119618447D01*
X87761263Y-119637315D01*
X87753599Y-119649460D01*
X87747578Y-119670368D01*
X87744906Y-119700978D01*
X87353080Y-119700978D01*
X87352903Y-119687903D01*
X87356708Y-119660274D01*
X87358216Y-119652229D01*
X87361242Y-119637878D01*
X87364921Y-119624581D01*
X87369880Y-119611567D01*
X87376746Y-119598068D01*
X87386147Y-119583315D01*
X87398711Y-119566538D01*
X87415065Y-119546968D01*
X87435836Y-119523835D01*
X87461653Y-119496371D01*
X87493142Y-119463806D01*
X87530932Y-119425371D01*
X87575650Y-119380296D01*
X87627923Y-119327813D01*
X87676661Y-119278980D01*
X87727591Y-119228168D01*
X87771990Y-119184190D01*
X87810701Y-119146267D01*
X87844565Y-119113616D01*
X87874425Y-119085455D01*
X87901121Y-119061005D01*
X87925496Y-119039483D01*
X87948393Y-119020107D01*
X87970651Y-119002098D01*
X87993115Y-118984672D01*
X88016625Y-118967050D01*
X88125510Y-118892738D01*
X88248180Y-118822398D01*
X88376349Y-118761997D01*
X88509490Y-118711735D01*
X88647076Y-118671807D01*
X88788581Y-118642411D01*
X88933477Y-118623745D01*
X88960536Y-118621748D01*
X89021205Y-118619650D01*
X89088704Y-118619894D01*
G37*
G36*
X88138920Y-114688178D02*
G01*
X88197191Y-114695477D01*
X88248808Y-114707719D01*
X88262191Y-114712542D01*
X88287418Y-114723423D01*
X88315829Y-114737195D01*
X88343452Y-114751999D01*
X88348579Y-114754881D01*
X88386421Y-114773963D01*
X88418079Y-114785316D01*
X88445267Y-114789412D01*
X88469695Y-114786721D01*
X88470945Y-114786329D01*
X88482710Y-114779557D01*
X88498815Y-114767095D01*
X88516161Y-114751307D01*
X88548556Y-114719426D01*
X88625779Y-114719426D01*
X88662023Y-114719990D01*
X88688698Y-114722042D01*
X88707698Y-114726227D01*
X88720918Y-114733190D01*
X88730251Y-114743573D01*
X88737592Y-114758022D01*
X88738545Y-114765134D01*
X88739524Y-114783342D01*
X88740438Y-114811771D01*
X88741287Y-114849718D01*
X88742070Y-114896478D01*
X88742789Y-114951351D01*
X88743443Y-115013631D01*
X88744031Y-115082618D01*
X88744555Y-115157608D01*
X88745013Y-115237897D01*
X88745407Y-115322784D01*
X88745735Y-115411565D01*
X88745999Y-115503538D01*
X88746197Y-115597999D01*
X88746330Y-115694245D01*
X88746398Y-115791575D01*
X88746401Y-115889284D01*
X88746340Y-115986671D01*
X88746213Y-116083031D01*
X88746020Y-116177663D01*
X88745763Y-116269864D01*
X88745441Y-116358930D01*
X88745054Y-116444158D01*
X88744601Y-116524847D01*
X88744084Y-116600292D01*
X88743501Y-116669791D01*
X88742854Y-116732642D01*
X88742141Y-116788141D01*
X88741363Y-116835585D01*
X88740520Y-116874272D01*
X88739612Y-116903499D01*
X88738639Y-116922562D01*
X88737601Y-116930759D01*
X88731271Y-116944418D01*
X88723783Y-116955502D01*
X88713879Y-116963298D01*
X88699727Y-116968451D01*
X88679498Y-116971605D01*
X88651362Y-116973407D01*
X88613486Y-116974501D01*
X88572117Y-116974972D01*
X88538468Y-116974119D01*
X88513105Y-116971630D01*
X88494375Y-116967241D01*
X88480627Y-116960690D01*
X88470208Y-116951715D01*
X88469791Y-116951245D01*
X88467447Y-116948020D01*
X88465457Y-116943540D01*
X88463781Y-116936865D01*
X88462380Y-116927060D01*
X88461212Y-116913185D01*
X88460239Y-116894305D01*
X88459420Y-116869481D01*
X88458717Y-116837775D01*
X88458088Y-116798251D01*
X88457494Y-116749971D01*
X88456895Y-116691997D01*
X88456251Y-116623391D01*
X88456081Y-116604811D01*
X88455429Y-116536392D01*
X88454777Y-116478411D01*
X88454040Y-116429963D01*
X88453134Y-116390140D01*
X88451976Y-116358037D01*
X88450480Y-116332746D01*
X88448564Y-116313362D01*
X88446143Y-116298977D01*
X88443134Y-116288686D01*
X88439451Y-116281582D01*
X88435012Y-116276758D01*
X88429731Y-116273308D01*
X88423526Y-116270326D01*
X88409746Y-116265628D01*
X88388244Y-116263712D01*
X88362248Y-116267325D01*
X88330039Y-116276751D01*
X88289898Y-116292272D01*
X88278626Y-116296945D01*
X88236677Y-116313374D01*
X88201040Y-116325121D01*
X88168571Y-116332804D01*
X88136123Y-116337039D01*
X88100551Y-116338445D01*
X88058710Y-116337637D01*
X88045254Y-116337090D01*
X88009533Y-116334895D01*
X87980554Y-116331571D01*
X87954668Y-116326611D01*
X87928226Y-116319509D01*
X87910531Y-116313936D01*
X87834127Y-116282723D01*
X87763857Y-116241994D01*
X87700157Y-116192248D01*
X87643464Y-116133983D01*
X87594213Y-116067697D01*
X87552841Y-115993887D01*
X87519785Y-115913051D01*
X87495480Y-115825687D01*
X87492616Y-115811877D01*
X87489779Y-115795566D01*
X87487483Y-115778006D01*
X87485643Y-115757721D01*
X87484172Y-115733237D01*
X87482986Y-115703081D01*
X87481999Y-115665779D01*
X87481125Y-115619855D01*
X87480278Y-115563837D01*
X87479712Y-115515795D01*
X87479701Y-115513333D01*
X87745458Y-115513333D01*
X87745849Y-115570869D01*
X87747230Y-115626553D01*
X87749612Y-115678567D01*
X87753001Y-115725089D01*
X87757407Y-115764299D01*
X87762838Y-115794377D01*
X87778820Y-115842385D01*
X87805765Y-115893048D01*
X87840818Y-115939015D01*
X87882316Y-115978138D01*
X87928592Y-116008268D01*
X87931868Y-116009956D01*
X87972390Y-116028789D01*
X88009835Y-116041430D01*
X88049008Y-116049186D01*
X88094716Y-116053359D01*
X88162586Y-116052518D01*
X88227395Y-116041871D01*
X88286705Y-116021473D01*
X88340032Y-115991492D01*
X88386891Y-115952097D01*
X88414679Y-115921784D01*
X88437381Y-115890629D01*
X88455192Y-115856785D01*
X88470797Y-115815897D01*
X88471553Y-115813632D01*
X88476424Y-115797945D01*
X88480193Y-115782696D01*
X88483089Y-115765884D01*
X88485338Y-115745509D01*
X88487168Y-115719570D01*
X88488808Y-115686065D01*
X88490485Y-115642996D01*
X88491764Y-115599723D01*
X88492630Y-115541205D01*
X88492600Y-115482909D01*
X88491727Y-115426453D01*
X88490066Y-115373458D01*
X88487671Y-115325542D01*
X88484595Y-115284325D01*
X88480893Y-115251427D01*
X88476620Y-115228467D01*
X88456699Y-115172550D01*
X88426600Y-115120247D01*
X88387733Y-115074538D01*
X88340958Y-115036260D01*
X88287136Y-115006253D01*
X88227128Y-114985354D01*
X88201930Y-114980148D01*
X88154506Y-114975010D01*
X88103984Y-114974215D01*
X88054975Y-114977754D01*
X88012087Y-114985623D01*
X87999094Y-114989248D01*
X87943271Y-115010903D01*
X87893982Y-115041234D01*
X87849141Y-115081470D01*
X87813958Y-115123531D01*
X87785313Y-115171212D01*
X87765550Y-115222985D01*
X87763437Y-115231191D01*
X87758064Y-115261605D01*
X87753630Y-115301090D01*
X87750144Y-115347825D01*
X87747614Y-115399991D01*
X87746049Y-115455768D01*
X87745458Y-115513333D01*
X87479701Y-115513333D01*
X87479416Y-115448501D01*
X87479922Y-115390536D01*
X87481314Y-115340539D01*
X87483672Y-115297151D01*
X87487079Y-115259012D01*
X87491616Y-115224761D01*
X87497366Y-115193039D01*
X87504409Y-115162484D01*
X87519144Y-115112208D01*
X87551221Y-115032941D01*
X87592203Y-114960034D01*
X87641550Y-114894167D01*
X87698726Y-114836019D01*
X87763193Y-114786270D01*
X87834411Y-114745600D01*
X87873158Y-114727904D01*
X87918583Y-114710600D01*
X87961870Y-114698650D01*
X88006801Y-114690853D01*
X88018143Y-114689504D01*
X88077927Y-114686096D01*
X88138920Y-114688178D01*
G37*
G36*
X93374552Y-114688051D02*
G01*
X93418634Y-114691003D01*
X93459095Y-114695770D01*
X93492005Y-114702147D01*
X93499081Y-114704109D01*
X93527506Y-114713915D01*
X93558572Y-114726871D01*
X93586721Y-114740716D01*
X93603207Y-114749672D01*
X93631855Y-114764927D01*
X93653331Y-114775638D01*
X93669605Y-114782593D01*
X93682645Y-114786581D01*
X93694422Y-114788388D01*
X93706905Y-114788802D01*
X93728320Y-114786778D01*
X93747217Y-114779656D01*
X93766327Y-114765838D01*
X93788542Y-114743726D01*
X93810976Y-114719426D01*
X93969826Y-114719426D01*
X93986735Y-114736334D01*
X94003644Y-114753243D01*
X94003644Y-116938532D01*
X93968198Y-116972512D01*
X93877662Y-116974501D01*
X93867468Y-116974704D01*
X93826215Y-116974890D01*
X93794588Y-116973600D01*
X93771029Y-116970547D01*
X93753981Y-116965445D01*
X93741887Y-116958009D01*
X93733192Y-116947952D01*
X93731888Y-116945734D01*
X93729865Y-116940781D01*
X93728146Y-116933663D01*
X93726692Y-116923440D01*
X93725467Y-116909171D01*
X93724434Y-116889917D01*
X93723556Y-116864737D01*
X93722796Y-116832690D01*
X93722117Y-116792835D01*
X93721483Y-116744234D01*
X93720856Y-116685944D01*
X93720200Y-116617025D01*
X93719935Y-116588051D01*
X93719311Y-116521954D01*
X93718690Y-116466153D01*
X93717984Y-116419730D01*
X93717105Y-116381772D01*
X93715966Y-116351364D01*
X93714479Y-116327590D01*
X93712558Y-116309536D01*
X93710113Y-116296288D01*
X93707057Y-116286929D01*
X93703304Y-116280546D01*
X93698765Y-116276223D01*
X93693352Y-116273046D01*
X93686979Y-116270099D01*
X93681756Y-116267967D01*
X93664901Y-116264292D01*
X93644775Y-116264871D01*
X93619653Y-116270017D01*
X93587806Y-116280042D01*
X93547508Y-116295255D01*
X93528566Y-116302690D01*
X93489060Y-116317220D01*
X93455561Y-116327498D01*
X93424969Y-116334100D01*
X93394181Y-116337603D01*
X93360095Y-116338585D01*
X93319611Y-116337620D01*
X93316472Y-116337495D01*
X93278121Y-116335309D01*
X93247099Y-116331912D01*
X93219462Y-116326738D01*
X93191270Y-116319222D01*
X93163001Y-116310010D01*
X93088995Y-116277872D01*
X93020667Y-116236258D01*
X92958577Y-116185899D01*
X92903285Y-116127526D01*
X92855352Y-116061870D01*
X92815336Y-115989662D01*
X92783799Y-115911634D01*
X92761300Y-115828515D01*
X92748398Y-115741038D01*
X92746881Y-115718945D01*
X92745362Y-115683414D01*
X92744216Y-115640512D01*
X92743443Y-115592343D01*
X92743074Y-115545200D01*
X93012563Y-115545200D01*
X93013178Y-115595355D01*
X93014528Y-115642063D01*
X93016185Y-115681953D01*
X93017968Y-115716578D01*
X93019940Y-115743575D01*
X93022337Y-115765005D01*
X93025394Y-115782930D01*
X93029345Y-115799411D01*
X93034427Y-115816510D01*
X93044380Y-115843834D01*
X93072719Y-115897694D01*
X93110140Y-115945061D01*
X93155854Y-115985182D01*
X93209075Y-116017306D01*
X93269014Y-116040678D01*
X93276832Y-116042701D01*
X93300738Y-116047158D01*
X93329553Y-116050928D01*
X93358665Y-116053359D01*
X93410082Y-116053455D01*
X93475156Y-116045026D01*
X93535357Y-116027275D01*
X93589878Y-116000711D01*
X93637909Y-115965844D01*
X93678642Y-115923182D01*
X93711268Y-115873234D01*
X93734979Y-115816510D01*
X93739162Y-115802624D01*
X93743377Y-115785843D01*
X93746671Y-115767847D01*
X93749286Y-115746566D01*
X93751467Y-115719929D01*
X93753458Y-115685867D01*
X93755503Y-115642310D01*
X93755725Y-115637095D01*
X93757308Y-115584924D01*
X93757925Y-115530290D01*
X93757642Y-115474944D01*
X93756520Y-115420641D01*
X93754622Y-115369132D01*
X93752013Y-115322172D01*
X93748754Y-115281512D01*
X93744909Y-115248907D01*
X93740540Y-115226108D01*
X93723205Y-115176808D01*
X93693859Y-115124222D01*
X93655542Y-115078072D01*
X93609040Y-115039125D01*
X93555139Y-115008149D01*
X93494624Y-114985910D01*
X93460406Y-114978907D01*
X93414167Y-114974527D01*
X93365101Y-114974196D01*
X93317518Y-114977920D01*
X93275725Y-114985702D01*
X93267992Y-114987827D01*
X93210940Y-115009940D01*
X93159008Y-115041427D01*
X93113383Y-115081089D01*
X93075255Y-115127728D01*
X93045813Y-115180146D01*
X93026245Y-115237144D01*
X93024541Y-115245814D01*
X93021443Y-115270694D01*
X93018722Y-115304478D01*
X93016430Y-115345401D01*
X93014616Y-115391699D01*
X93013334Y-115441607D01*
X93012632Y-115493363D01*
X93012563Y-115545200D01*
X92743074Y-115545200D01*
X92743041Y-115541010D01*
X92743012Y-115488617D01*
X92743355Y-115437268D01*
X92744069Y-115389067D01*
X92745155Y-115346118D01*
X92746612Y-115310524D01*
X92748440Y-115284390D01*
X92761611Y-115198536D01*
X92784413Y-115114794D01*
X92816114Y-115036159D01*
X92856191Y-114963452D01*
X92904123Y-114897493D01*
X92959385Y-114839103D01*
X93021456Y-114789103D01*
X93089813Y-114748313D01*
X93128737Y-114730775D01*
X93176890Y-114713203D01*
X93225244Y-114699305D01*
X93269005Y-114690623D01*
X93291250Y-114688404D01*
X93330780Y-114687117D01*
X93374552Y-114688051D01*
G37*
D11*
%TO.C,*%
X96870000Y-118680000D02*
X96950000Y-118680000D01*
X97030000Y-118710000D01*
X97070000Y-118760000D01*
X97080000Y-118810000D01*
X97090000Y-118890000D01*
X97090000Y-119000000D01*
X97090000Y-119110000D01*
X97080000Y-119200000D01*
X97070000Y-119260000D01*
X97050000Y-119310000D01*
X96990000Y-119350000D01*
X96890000Y-119350000D01*
X96830000Y-119310000D01*
X96800000Y-119270000D01*
X96790000Y-119210000D01*
X96780000Y-119120000D01*
X96780000Y-119000000D01*
X96780000Y-118890000D01*
X96790000Y-118810000D01*
X96800000Y-118760000D01*
X96830000Y-118700000D01*
X96870000Y-118680000D01*
G36*
X97030000Y-118710000D02*
G01*
X97070000Y-118760000D01*
X97080000Y-118810000D01*
X97090000Y-118890000D01*
X97090000Y-119000000D01*
X97090000Y-119110000D01*
X97080000Y-119200000D01*
X97070000Y-119260000D01*
X97050000Y-119310000D01*
X96990000Y-119350000D01*
X96890000Y-119350000D01*
X96830000Y-119310000D01*
X96800000Y-119270000D01*
X96790000Y-119210000D01*
X96780000Y-119120000D01*
X96780000Y-119000000D01*
X96780000Y-118890000D01*
X96790000Y-118810000D01*
X96800000Y-118760000D01*
X96830000Y-118700000D01*
X96870000Y-118680000D01*
X96950000Y-118680000D01*
X97030000Y-118710000D01*
G37*
X96400000Y-119790000D02*
X96320000Y-119780000D01*
X96240000Y-119770000D01*
X96170000Y-119740000D01*
X96100000Y-119710000D01*
X96030000Y-119670000D01*
X95960000Y-119620000D01*
X95900000Y-119570000D01*
X95850000Y-119510000D01*
X95800000Y-119450000D01*
X95760000Y-119380000D01*
X95730000Y-119310000D01*
X95700000Y-119230000D01*
X95680000Y-119150000D01*
X95670000Y-119070000D01*
X95670000Y-119000000D01*
X95670000Y-118920000D01*
X95680000Y-118840000D01*
X95700000Y-118760000D01*
X95730000Y-118690000D01*
X95770000Y-118610000D01*
X95810000Y-118550000D01*
X95860000Y-118480000D01*
X95910000Y-118430000D01*
X95970000Y-118370000D01*
X96040000Y-118330000D01*
X96110000Y-118290000D01*
X96180000Y-118260000D01*
X96250000Y-118230000D01*
X96330000Y-118220000D01*
X96410000Y-118210000D01*
X96490000Y-118200000D01*
X101980000Y-118200000D01*
X102000000Y-118260000D01*
X102000000Y-119770000D01*
X101950000Y-119800000D01*
X96460000Y-119800000D01*
X96740000Y-119500000D01*
X96810000Y-119530000D01*
X96890000Y-119550000D01*
X96970000Y-119550000D01*
X97050000Y-119540000D01*
X97120000Y-119500000D01*
X97180000Y-119450000D01*
X97230000Y-119390000D01*
X97250000Y-119330000D01*
X97270000Y-119270000D01*
X97280000Y-119190000D01*
X97280000Y-119100000D01*
X97280000Y-118990000D01*
X97280000Y-118890000D01*
X97520000Y-118850000D01*
X97520000Y-119480000D01*
X97540000Y-119550000D01*
X97620000Y-119550000D01*
X97700000Y-119550000D01*
X97720000Y-119480000D01*
X97720000Y-118840000D01*
X97730000Y-118760000D01*
X97770000Y-118710000D01*
X97850000Y-118680000D01*
X97930000Y-118690000D01*
X98000000Y-118730000D01*
X98030000Y-118800000D01*
X98030000Y-119520000D01*
X98090000Y-119550000D01*
X98160000Y-119550000D01*
X98220000Y-119520000D01*
X98460000Y-119480000D01*
X98470000Y-119550000D01*
X98550000Y-119550000D01*
X99030000Y-119550000D01*
X99100000Y-119530000D01*
X99100000Y-119450000D01*
X99090000Y-119370000D01*
X99020000Y-119360000D01*
X98940000Y-119360000D01*
X98870000Y-119340000D01*
X98870000Y-118540000D01*
X98850000Y-118480000D01*
X98770000Y-118480000D01*
X98690000Y-118490000D01*
X98680000Y-118560000D01*
X98680000Y-119280000D01*
X98670000Y-119360000D01*
X98510000Y-119360000D01*
X98460000Y-119390000D01*
X98460000Y-119470000D01*
X98220000Y-119520000D01*
X98220000Y-118800000D01*
X98210000Y-118720000D01*
X98180000Y-118650000D01*
X98130000Y-118590000D01*
X98070000Y-118540000D01*
X98000000Y-118500000D01*
X97920000Y-118490000D01*
X97860000Y-118480000D01*
X97780000Y-118490000D01*
X97710000Y-118520000D01*
X97640000Y-118560000D01*
X97590000Y-118620000D01*
X97550000Y-118690000D01*
X97530000Y-118760000D01*
X97520000Y-118840000D01*
X97280000Y-118890000D01*
X97270000Y-118800000D01*
X97260000Y-118730000D01*
X97240000Y-118680000D01*
X97200000Y-118610000D01*
X97150000Y-118550000D01*
X97090000Y-118510000D01*
X97020000Y-118480000D01*
X96940000Y-118480000D01*
X96860000Y-118490000D01*
X96780000Y-118510000D01*
X96720000Y-118550000D01*
X96660000Y-118610000D01*
X96620000Y-118680000D01*
X96610000Y-118730000D01*
X96590000Y-118800000D01*
X96590000Y-118880000D01*
X96580000Y-118980000D01*
X96580000Y-119090000D01*
X96590000Y-119190000D01*
X96600000Y-119270000D01*
X96610000Y-119330000D01*
X96640000Y-119390000D01*
X96680000Y-119450000D01*
X96740000Y-119500000D01*
X96460000Y-119800000D01*
X96400000Y-119790000D01*
G36*
X102000000Y-118260000D02*
G01*
X102000000Y-119770000D01*
X101950000Y-119800000D01*
X96460000Y-119800000D01*
X96400000Y-119790000D01*
X96320000Y-119780000D01*
X96240000Y-119770000D01*
X96170000Y-119740000D01*
X96100000Y-119710000D01*
X96030000Y-119670000D01*
X95960000Y-119620000D01*
X95900000Y-119570000D01*
X95850000Y-119510000D01*
X95800000Y-119450000D01*
X95760000Y-119380000D01*
X95730000Y-119310000D01*
X95700000Y-119230000D01*
X95680000Y-119150000D01*
X95670000Y-119070000D01*
X95670000Y-119000000D01*
X95670000Y-118980000D01*
X96580000Y-118980000D01*
X96580000Y-119090000D01*
X96590000Y-119190000D01*
X96600000Y-119270000D01*
X96610000Y-119330000D01*
X96640000Y-119390000D01*
X96680000Y-119450000D01*
X96740000Y-119500000D01*
X96810000Y-119530000D01*
X96890000Y-119550000D01*
X96970000Y-119550000D01*
X97050000Y-119540000D01*
X97120000Y-119500000D01*
X97180000Y-119450000D01*
X97230000Y-119390000D01*
X97250000Y-119330000D01*
X97270000Y-119270000D01*
X97280000Y-119190000D01*
X97280000Y-119100000D01*
X97280000Y-118990000D01*
X97280000Y-118890000D01*
X97520000Y-118850000D01*
X97520000Y-119480000D01*
X97540000Y-119550000D01*
X97620000Y-119550000D01*
X97700000Y-119550000D01*
X97720000Y-119480000D01*
X97720000Y-118840000D01*
X97730000Y-118760000D01*
X97770000Y-118710000D01*
X97850000Y-118680000D01*
X97930000Y-118690000D01*
X98000000Y-118730000D01*
X98030000Y-118800000D01*
X98030000Y-119520000D01*
X98090000Y-119550000D01*
X98160000Y-119550000D01*
X98220000Y-119520000D01*
X98460000Y-119480000D01*
X98470000Y-119550000D01*
X98550000Y-119550000D01*
X99030000Y-119550000D01*
X99100000Y-119530000D01*
X99100000Y-119450000D01*
X99090000Y-119370000D01*
X99020000Y-119360000D01*
X98940000Y-119360000D01*
X98870000Y-119340000D01*
X98870000Y-118540000D01*
X98850000Y-118480000D01*
X98770000Y-118480000D01*
X98690000Y-118490000D01*
X98680000Y-118560000D01*
X98680000Y-119280000D01*
X98670000Y-119360000D01*
X98510000Y-119360000D01*
X98460000Y-119390000D01*
X98460000Y-119470000D01*
X98220000Y-119520000D01*
X98220000Y-118800000D01*
X98210000Y-118720000D01*
X98180000Y-118650000D01*
X98130000Y-118590000D01*
X98070000Y-118540000D01*
X98000000Y-118500000D01*
X97920000Y-118490000D01*
X97860000Y-118480000D01*
X97780000Y-118490000D01*
X97710000Y-118520000D01*
X97640000Y-118560000D01*
X97590000Y-118620000D01*
X97550000Y-118690000D01*
X97530000Y-118760000D01*
X97520000Y-118840000D01*
X97280000Y-118890000D01*
X97270000Y-118800000D01*
X97260000Y-118730000D01*
X97240000Y-118680000D01*
X97200000Y-118610000D01*
X97150000Y-118550000D01*
X97090000Y-118510000D01*
X97020000Y-118480000D01*
X96940000Y-118480000D01*
X96860000Y-118490000D01*
X96780000Y-118510000D01*
X96720000Y-118550000D01*
X96660000Y-118610000D01*
X96620000Y-118680000D01*
X96610000Y-118730000D01*
X96590000Y-118800000D01*
X96590000Y-118880000D01*
X96580000Y-118980000D01*
X95670000Y-118980000D01*
X95670000Y-118920000D01*
X95680000Y-118840000D01*
X95700000Y-118760000D01*
X95730000Y-118690000D01*
X95770000Y-118610000D01*
X95810000Y-118550000D01*
X95860000Y-118480000D01*
X95910000Y-118430000D01*
X95970000Y-118370000D01*
X96040000Y-118330000D01*
X96110000Y-118290000D01*
X96180000Y-118260000D01*
X96250000Y-118230000D01*
X96330000Y-118220000D01*
X96410000Y-118210000D01*
X96490000Y-118200000D01*
X101980000Y-118200000D01*
X102000000Y-118260000D01*
G37*
X96270000Y-117260000D02*
X95950000Y-117260000D01*
X95930000Y-117200000D01*
X95930000Y-115690000D01*
X95990000Y-115660000D01*
X101950000Y-115660000D01*
X102000000Y-115690000D01*
X102000000Y-117200000D01*
X101970000Y-117260000D01*
X96330000Y-117260000D01*
X96580000Y-116930000D01*
X96650000Y-116970000D01*
X96720000Y-117000000D01*
X96800000Y-117010000D01*
X96890000Y-117010000D01*
X96970000Y-117000000D01*
X97040000Y-116970000D01*
X97100000Y-116930000D01*
X97160000Y-116870000D01*
X97200000Y-116810000D01*
X97450000Y-116950000D01*
X97480000Y-117010000D01*
X97640000Y-117010000D01*
X97720000Y-117000000D01*
X97920000Y-116480000D01*
X97950000Y-116410000D01*
X97960000Y-116490000D01*
X97960000Y-116970000D01*
X98000000Y-117010000D01*
X98080000Y-117010000D01*
X98150000Y-116990000D01*
X98150000Y-116030000D01*
X98390000Y-116020000D01*
X98390000Y-116970000D01*
X98440000Y-117010000D01*
X98680000Y-117010000D01*
X98770000Y-117010000D01*
X98850000Y-116990000D01*
X98910000Y-116960000D01*
X98980000Y-116920000D01*
X99030000Y-116860000D01*
X99060000Y-116800000D01*
X99080000Y-116740000D01*
X99090000Y-116660000D01*
X99100000Y-116570000D01*
X99100000Y-116470000D01*
X99090000Y-116370000D01*
X99090000Y-116280000D01*
X99080000Y-116210000D01*
X99060000Y-116150000D01*
X99020000Y-116090000D01*
X98970000Y-116030000D01*
X98900000Y-115990000D01*
X98830000Y-115960000D01*
X98750000Y-115940000D01*
X98720000Y-115940000D01*
X98480000Y-115940000D01*
X98410000Y-115950000D01*
X98390000Y-116020000D01*
X98150000Y-116030000D01*
X98140000Y-115960000D01*
X98070000Y-115940000D01*
X97990000Y-115940000D01*
X97900000Y-115950000D01*
X97860000Y-116000000D01*
X97690000Y-116450000D01*
X97650000Y-116490000D01*
X97650000Y-116020000D01*
X97630000Y-115940000D01*
X97570000Y-115940000D01*
X97490000Y-115940000D01*
X97450000Y-116000000D01*
X97450000Y-116950000D01*
X97200000Y-116810000D01*
X97210000Y-116730000D01*
X97160000Y-116680000D01*
X97010000Y-116680000D01*
X96970000Y-116750000D01*
X96910000Y-116800000D01*
X96830000Y-116810000D01*
X96740000Y-116800000D01*
X96680000Y-116760000D01*
X96660000Y-116710000D01*
X96650000Y-116650000D01*
X96650000Y-116550000D01*
X96650000Y-116430000D01*
X96650000Y-116330000D01*
X96660000Y-116250000D01*
X96670000Y-116210000D01*
X96720000Y-116160000D01*
X96800000Y-116140000D01*
X96880000Y-116150000D01*
X96930000Y-116200000D01*
X96950000Y-116280000D01*
X96950000Y-116370000D01*
X96880000Y-116380000D01*
X96820000Y-116410000D01*
X96820000Y-116490000D01*
X96830000Y-116570000D01*
X96910000Y-116570000D01*
X97150000Y-116570000D01*
X97210000Y-116540000D01*
X97210000Y-116300000D01*
X97200000Y-116210000D01*
X97180000Y-116140000D01*
X97140000Y-116070000D01*
X97090000Y-116020000D01*
X97020000Y-115980000D01*
X96950000Y-115950000D01*
X96870000Y-115940000D01*
X96770000Y-115950000D01*
X96690000Y-115970000D01*
X96620000Y-116000000D01*
X96560000Y-116040000D01*
X96510000Y-116110000D01*
X96480000Y-116180000D01*
X96460000Y-116250000D01*
X96450000Y-116320000D01*
X96450000Y-116400000D01*
X96450000Y-116500000D01*
X96450000Y-116590000D01*
X96450000Y-116660000D01*
X96460000Y-116730000D01*
X96490000Y-116810000D01*
X96530000Y-116870000D01*
X96580000Y-116930000D01*
X96330000Y-117260000D01*
X96270000Y-117260000D01*
G36*
X102000000Y-115690000D02*
G01*
X102000000Y-117200000D01*
X101970000Y-117260000D01*
X96330000Y-117260000D01*
X96270000Y-117260000D01*
X95950000Y-117260000D01*
X95930000Y-117200000D01*
X95930000Y-116320000D01*
X96450000Y-116320000D01*
X96450000Y-116400000D01*
X96450000Y-116500000D01*
X96450000Y-116590000D01*
X96450000Y-116660000D01*
X96460000Y-116730000D01*
X96490000Y-116810000D01*
X96530000Y-116870000D01*
X96580000Y-116930000D01*
X96650000Y-116970000D01*
X96720000Y-117000000D01*
X96800000Y-117010000D01*
X96890000Y-117010000D01*
X96970000Y-117000000D01*
X97040000Y-116970000D01*
X97100000Y-116930000D01*
X97160000Y-116870000D01*
X97200000Y-116810000D01*
X97210000Y-116730000D01*
X97160000Y-116680000D01*
X97010000Y-116680000D01*
X96970000Y-116750000D01*
X96910000Y-116800000D01*
X96830000Y-116810000D01*
X96740000Y-116800000D01*
X96680000Y-116760000D01*
X96660000Y-116710000D01*
X96650000Y-116650000D01*
X96650000Y-116550000D01*
X96650000Y-116430000D01*
X96650000Y-116330000D01*
X96660000Y-116250000D01*
X96670000Y-116210000D01*
X96720000Y-116160000D01*
X96800000Y-116140000D01*
X96880000Y-116150000D01*
X96930000Y-116200000D01*
X96950000Y-116280000D01*
X96950000Y-116370000D01*
X96880000Y-116380000D01*
X96820000Y-116410000D01*
X96820000Y-116490000D01*
X96830000Y-116570000D01*
X96910000Y-116570000D01*
X97150000Y-116570000D01*
X97210000Y-116540000D01*
X97210000Y-116300000D01*
X97200000Y-116210000D01*
X97180000Y-116140000D01*
X97140000Y-116070000D01*
X97090000Y-116020000D01*
X97055000Y-116000000D01*
X97450000Y-116000000D01*
X97450000Y-116950000D01*
X97480000Y-117010000D01*
X97640000Y-117010000D01*
X97720000Y-117000000D01*
X97920000Y-116480000D01*
X97950000Y-116410000D01*
X97960000Y-116490000D01*
X97960000Y-116970000D01*
X98000000Y-117010000D01*
X98080000Y-117010000D01*
X98150000Y-116990000D01*
X98150000Y-116030000D01*
X98148571Y-116020000D01*
X98390000Y-116020000D01*
X98390000Y-116970000D01*
X98440000Y-117010000D01*
X98680000Y-117010000D01*
X98770000Y-117010000D01*
X98850000Y-116990000D01*
X98910000Y-116960000D01*
X98980000Y-116920000D01*
X99030000Y-116860000D01*
X99060000Y-116800000D01*
X99080000Y-116740000D01*
X99090000Y-116660000D01*
X99100000Y-116570000D01*
X99100000Y-116470000D01*
X99090000Y-116370000D01*
X99090000Y-116280000D01*
X99080000Y-116210000D01*
X99060000Y-116150000D01*
X99020000Y-116090000D01*
X98970000Y-116030000D01*
X98900000Y-115990000D01*
X98830000Y-115960000D01*
X98750000Y-115940000D01*
X98720000Y-115940000D01*
X98480000Y-115940000D01*
X98410000Y-115950000D01*
X98390000Y-116020000D01*
X98148571Y-116020000D01*
X98140000Y-115960000D01*
X98070000Y-115940000D01*
X97990000Y-115940000D01*
X97900000Y-115950000D01*
X97860000Y-116000000D01*
X97690000Y-116450000D01*
X97650000Y-116490000D01*
X97650000Y-116020000D01*
X97630000Y-115940000D01*
X97570000Y-115940000D01*
X97490000Y-115940000D01*
X97450000Y-116000000D01*
X97055000Y-116000000D01*
X97020000Y-115980000D01*
X96950000Y-115950000D01*
X96870000Y-115940000D01*
X96770000Y-115950000D01*
X96690000Y-115970000D01*
X96620000Y-116000000D01*
X96560000Y-116040000D01*
X96510000Y-116110000D01*
X96480000Y-116180000D01*
X96460000Y-116250000D01*
X96450000Y-116320000D01*
X95930000Y-116320000D01*
X95930000Y-115690000D01*
X95990000Y-115660000D01*
X101950000Y-115660000D01*
X102000000Y-115690000D01*
G37*
X98660000Y-116140000D02*
X98740000Y-116140000D01*
X98820000Y-116160000D01*
X98870000Y-116210000D01*
X98880000Y-116250000D01*
X98890000Y-116330000D01*
X98890000Y-116430000D01*
X98890000Y-116550000D01*
X98890000Y-116640000D01*
X98880000Y-116710000D01*
X98860000Y-116760000D01*
X98810000Y-116800000D01*
X98720000Y-116820000D01*
X98640000Y-116820000D01*
X98590000Y-116790000D01*
X98590000Y-116150000D01*
X98660000Y-116140000D01*
G36*
X98820000Y-116160000D02*
G01*
X98870000Y-116210000D01*
X98880000Y-116250000D01*
X98890000Y-116330000D01*
X98890000Y-116430000D01*
X98890000Y-116550000D01*
X98890000Y-116640000D01*
X98880000Y-116710000D01*
X98860000Y-116760000D01*
X98810000Y-116800000D01*
X98720000Y-116820000D01*
X98640000Y-116820000D01*
X98590000Y-116790000D01*
X98590000Y-116150000D01*
X98660000Y-116140000D01*
X98740000Y-116140000D01*
X98820000Y-116160000D01*
G37*
X96320000Y-122340000D02*
X96000000Y-122340000D01*
X95960000Y-122280000D01*
X95600000Y-121570000D01*
X95610000Y-121500000D01*
X95960000Y-120790000D01*
X96020000Y-120740000D01*
X101980000Y-120740000D01*
X102000000Y-120800000D01*
X102000000Y-122310000D01*
X101950000Y-122340000D01*
X96380000Y-122340000D01*
X96540000Y-122090000D01*
X96610000Y-122090000D01*
X96700000Y-122090000D01*
X96710000Y-122020000D01*
X96860000Y-121320000D01*
X96890000Y-121320000D01*
X97030000Y-122020000D01*
X97060000Y-122090000D01*
X97220000Y-122090000D01*
X97240000Y-122030000D01*
X97530000Y-121890000D01*
X97560000Y-121950000D01*
X97610000Y-122010000D01*
X97680000Y-122060000D01*
X97750000Y-122080000D01*
X97830000Y-122090000D01*
X97910000Y-122090000D01*
X97990000Y-122060000D01*
X98050000Y-122020000D01*
X98110000Y-121970000D01*
X98150000Y-121900000D01*
X98170000Y-121820000D01*
X98170000Y-121740000D01*
X98420000Y-121740000D01*
X98430000Y-121810000D01*
X98440000Y-121870000D01*
X98470000Y-121930000D01*
X98520000Y-121990000D01*
X98580000Y-122040000D01*
X98650000Y-122080000D01*
X98730000Y-122090000D01*
X98810000Y-122090000D01*
X98890000Y-122070000D01*
X98960000Y-122040000D01*
X99020000Y-121990000D01*
X99060000Y-121920000D01*
X99090000Y-121850000D01*
X99100000Y-121770000D01*
X99040000Y-121730000D01*
X98960000Y-121730000D01*
X98890000Y-121750000D01*
X98870000Y-121830000D01*
X98820000Y-121880000D01*
X98730000Y-121890000D01*
X98660000Y-121860000D01*
X98630000Y-121810000D01*
X98620000Y-121760000D01*
X98610000Y-121670000D01*
X98610000Y-121560000D01*
X98610000Y-121440000D01*
X98620000Y-121360000D01*
X98630000Y-121310000D01*
X98660000Y-121260000D01*
X98740000Y-121220000D01*
X98820000Y-121230000D01*
X98870000Y-121280000D01*
X98890000Y-121360000D01*
X98960000Y-121390000D01*
X99040000Y-121390000D01*
X99100000Y-121360000D01*
X99090000Y-121270000D01*
X99060000Y-121200000D01*
X99020000Y-121140000D01*
X98960000Y-121080000D01*
X98890000Y-121050000D01*
X98820000Y-121030000D01*
X98760000Y-121020000D01*
X98680000Y-121030000D01*
X98610000Y-121060000D01*
X98540000Y-121100000D01*
X98490000Y-121160000D01*
X98450000Y-121230000D01*
X98440000Y-121280000D01*
X98420000Y-121340000D01*
X98420000Y-121430000D01*
X98410000Y-121530000D01*
X98410000Y-121640000D01*
X98420000Y-121730000D01*
X98170000Y-121740000D01*
X98090000Y-121730000D01*
X98010000Y-121730000D01*
X97970000Y-121780000D01*
X97940000Y-121850000D01*
X97870000Y-121890000D01*
X97780000Y-121880000D01*
X97720000Y-121840000D01*
X97700000Y-121800000D01*
X97690000Y-121730000D01*
X97690000Y-121640000D01*
X97690000Y-121520000D01*
X97690000Y-121410000D01*
X97700000Y-121340000D01*
X97710000Y-121300000D01*
X97760000Y-121240000D01*
X97840000Y-121220000D01*
X97920000Y-121250000D01*
X97960000Y-121310000D01*
X97990000Y-121390000D01*
X98060000Y-121390000D01*
X98140000Y-121390000D01*
X98170000Y-121330000D01*
X98160000Y-121250000D01*
X98130000Y-121180000D01*
X98080000Y-121120000D01*
X98020000Y-121070000D01*
X97950000Y-121040000D01*
X97870000Y-121020000D01*
X97810000Y-121020000D01*
X97730000Y-121040000D01*
X97660000Y-121070000D01*
X97600000Y-121120000D01*
X97550000Y-121180000D01*
X97520000Y-121240000D01*
X97510000Y-121300000D01*
X97500000Y-121370000D01*
X97490000Y-121460000D01*
X97490000Y-121570000D01*
X97490000Y-121680000D01*
X97500000Y-121760000D01*
X97510000Y-121830000D01*
X97530000Y-121890000D01*
X97240000Y-122030000D01*
X96990000Y-121030000D01*
X96910000Y-121020000D01*
X96830000Y-121020000D01*
X96760000Y-121040000D01*
X96740000Y-121110000D01*
X96500000Y-122040000D01*
X96530000Y-122090000D01*
X96380000Y-122340000D01*
X96320000Y-122340000D01*
G36*
X102000000Y-120800000D02*
G01*
X102000000Y-122310000D01*
X101950000Y-122340000D01*
X96380000Y-122340000D01*
X96540000Y-122090000D01*
X96610000Y-122090000D01*
X96700000Y-122090000D01*
X96710000Y-122020000D01*
X96860000Y-121320000D01*
X96890000Y-121320000D01*
X97030000Y-122020000D01*
X97060000Y-122090000D01*
X97220000Y-122090000D01*
X97240000Y-122030000D01*
X97097500Y-121460000D01*
X97490000Y-121460000D01*
X97490000Y-121570000D01*
X97490000Y-121680000D01*
X97500000Y-121760000D01*
X97510000Y-121830000D01*
X97530000Y-121890000D01*
X97560000Y-121950000D01*
X97610000Y-122010000D01*
X97680000Y-122060000D01*
X97750000Y-122080000D01*
X97830000Y-122090000D01*
X97910000Y-122090000D01*
X97990000Y-122060000D01*
X98050000Y-122020000D01*
X98110000Y-121970000D01*
X98150000Y-121900000D01*
X98170000Y-121820000D01*
X98170000Y-121740000D01*
X98420000Y-121740000D01*
X98430000Y-121810000D01*
X98440000Y-121870000D01*
X98470000Y-121930000D01*
X98520000Y-121990000D01*
X98580000Y-122040000D01*
X98650000Y-122080000D01*
X98730000Y-122090000D01*
X98810000Y-122090000D01*
X98890000Y-122070000D01*
X98960000Y-122040000D01*
X99020000Y-121990000D01*
X99060000Y-121920000D01*
X99090000Y-121850000D01*
X99100000Y-121770000D01*
X99040000Y-121730000D01*
X98960000Y-121730000D01*
X98890000Y-121750000D01*
X98870000Y-121830000D01*
X98820000Y-121880000D01*
X98730000Y-121890000D01*
X98660000Y-121860000D01*
X98630000Y-121810000D01*
X98620000Y-121760000D01*
X98610000Y-121670000D01*
X98610000Y-121560000D01*
X98610000Y-121440000D01*
X98620000Y-121360000D01*
X98630000Y-121310000D01*
X98660000Y-121260000D01*
X98740000Y-121220000D01*
X98820000Y-121230000D01*
X98870000Y-121280000D01*
X98890000Y-121360000D01*
X98960000Y-121390000D01*
X99040000Y-121390000D01*
X99100000Y-121360000D01*
X99090000Y-121270000D01*
X99060000Y-121200000D01*
X99020000Y-121140000D01*
X98960000Y-121080000D01*
X98890000Y-121050000D01*
X98820000Y-121030000D01*
X98760000Y-121020000D01*
X98680000Y-121030000D01*
X98610000Y-121060000D01*
X98540000Y-121100000D01*
X98490000Y-121160000D01*
X98450000Y-121230000D01*
X98440000Y-121280000D01*
X98420000Y-121340000D01*
X98420000Y-121430000D01*
X98410000Y-121530000D01*
X98410000Y-121640000D01*
X98420000Y-121730000D01*
X98170000Y-121740000D01*
X98090000Y-121730000D01*
X98010000Y-121730000D01*
X97970000Y-121780000D01*
X97940000Y-121850000D01*
X97870000Y-121890000D01*
X97780000Y-121880000D01*
X97720000Y-121840000D01*
X97700000Y-121800000D01*
X97690000Y-121730000D01*
X97690000Y-121640000D01*
X97690000Y-121520000D01*
X97690000Y-121410000D01*
X97700000Y-121340000D01*
X97710000Y-121300000D01*
X97760000Y-121240000D01*
X97840000Y-121220000D01*
X97920000Y-121250000D01*
X97960000Y-121310000D01*
X97990000Y-121390000D01*
X98060000Y-121390000D01*
X98140000Y-121390000D01*
X98170000Y-121330000D01*
X98160000Y-121250000D01*
X98130000Y-121180000D01*
X98080000Y-121120000D01*
X98020000Y-121070000D01*
X97950000Y-121040000D01*
X97870000Y-121020000D01*
X97810000Y-121020000D01*
X97730000Y-121040000D01*
X97660000Y-121070000D01*
X97600000Y-121120000D01*
X97550000Y-121180000D01*
X97520000Y-121240000D01*
X97510000Y-121300000D01*
X97500000Y-121370000D01*
X97490000Y-121460000D01*
X97097500Y-121460000D01*
X96990000Y-121030000D01*
X96910000Y-121020000D01*
X96830000Y-121020000D01*
X96760000Y-121040000D01*
X96740000Y-121110000D01*
X96500000Y-122040000D01*
X96530000Y-122090000D01*
X96380000Y-122340000D01*
X96320000Y-122340000D01*
X96000000Y-122340000D01*
X95960000Y-122280000D01*
X95600000Y-121570000D01*
X95610000Y-121500000D01*
X95960000Y-120790000D01*
X96020000Y-120740000D01*
X101980000Y-120740000D01*
X102000000Y-120800000D01*
G37*
X91260000Y-127560000D02*
X91340000Y-127560000D01*
X91390000Y-127590000D01*
X91330000Y-128060000D01*
X91310000Y-128100000D01*
X91240000Y-127620000D01*
X91260000Y-127560000D01*
G36*
X91390000Y-127590000D02*
G01*
X91330000Y-128060000D01*
X91310000Y-128100000D01*
X91240000Y-127620000D01*
X91260000Y-127560000D01*
X91340000Y-127560000D01*
X91390000Y-127590000D01*
G37*
X93040000Y-127480000D02*
X93130000Y-127490000D01*
X93190000Y-127530000D01*
X93210000Y-127580000D01*
X93210000Y-127650000D01*
X93220000Y-127740000D01*
X93220000Y-127860000D01*
X93220000Y-127970000D01*
X93210000Y-128040000D01*
X93200000Y-128080000D01*
X93150000Y-128140000D01*
X93060000Y-128150000D01*
X92980000Y-128130000D01*
X92930000Y-128080000D01*
X92920000Y-128040000D01*
X92910000Y-127960000D01*
X92910000Y-127860000D01*
X92910000Y-127740000D01*
X92920000Y-127640000D01*
X92930000Y-127580000D01*
X92940000Y-127530000D01*
X93040000Y-127480000D01*
G36*
X93130000Y-127490000D02*
G01*
X93190000Y-127530000D01*
X93210000Y-127580000D01*
X93210000Y-127650000D01*
X93220000Y-127740000D01*
X93220000Y-127860000D01*
X93220000Y-127970000D01*
X93210000Y-128040000D01*
X93200000Y-128080000D01*
X93150000Y-128140000D01*
X93060000Y-128150000D01*
X92980000Y-128130000D01*
X92930000Y-128080000D01*
X92920000Y-128040000D01*
X92910000Y-127960000D01*
X92910000Y-127860000D01*
X92910000Y-127740000D01*
X92920000Y-127640000D01*
X92930000Y-127580000D01*
X92940000Y-127530000D01*
X93040000Y-127480000D01*
X93130000Y-127490000D01*
G37*
X87430000Y-128600000D02*
X87110000Y-128600000D01*
X87070000Y-128550000D01*
X87070000Y-127040000D01*
X87110000Y-127000000D01*
X94910000Y-127000000D01*
X94930000Y-127060000D01*
X94930000Y-128580000D01*
X94870000Y-128600000D01*
X87470000Y-128600000D01*
X89260000Y-128300000D01*
X89310000Y-128350000D01*
X89470000Y-128350000D01*
X89520000Y-128310000D01*
X89770000Y-127310000D01*
X90010000Y-127360000D01*
X90010000Y-128320000D01*
X90070000Y-128350000D01*
X90220000Y-128350000D01*
X90280000Y-128310000D01*
X90480000Y-127790000D01*
X90510000Y-127780000D01*
X90510000Y-128250000D01*
X90520000Y-128330000D01*
X90590000Y-128350000D01*
X90670000Y-128350000D01*
X90710000Y-128300000D01*
X90710000Y-127350000D01*
X90950000Y-127340000D01*
X91200000Y-128340000D01*
X91280000Y-128350000D01*
X91360000Y-128350000D01*
X91430000Y-128350000D01*
X91680000Y-127340000D01*
X91930000Y-127360000D01*
X91930000Y-128320000D01*
X91990000Y-128350000D01*
X92070000Y-128350000D01*
X92130000Y-128320000D01*
X92130000Y-127520000D01*
X92170000Y-127480000D01*
X92410000Y-127480000D01*
X92470000Y-127450000D01*
X92740000Y-127510000D01*
X92730000Y-127560000D01*
X92720000Y-127640000D01*
X92710000Y-127730000D01*
X92710000Y-127840000D01*
X92710000Y-127940000D01*
X92720000Y-128030000D01*
X92730000Y-128100000D01*
X92750000Y-128150000D01*
X92790000Y-128220000D01*
X92840000Y-128280000D01*
X92900000Y-128320000D01*
X92980000Y-128340000D01*
X93060000Y-128350000D01*
X93150000Y-128340000D01*
X93220000Y-128320000D01*
X93280000Y-128280000D01*
X93340000Y-128220000D01*
X93370000Y-128150000D01*
X93390000Y-128100000D01*
X93400000Y-128030000D01*
X93410000Y-127940000D01*
X93410000Y-127840000D01*
X93650000Y-127850000D01*
X93650000Y-127930000D01*
X93660000Y-128010000D01*
X93670000Y-128080000D01*
X93700000Y-128150000D01*
X93740000Y-128220000D01*
X93790000Y-128280000D01*
X93860000Y-128320000D01*
X93930000Y-128340000D01*
X94010000Y-128350000D01*
X94100000Y-128350000D01*
X94180000Y-128330000D01*
X94250000Y-128310000D01*
X94320000Y-128260000D01*
X94370000Y-128210000D01*
X94400000Y-128140000D01*
X94410000Y-128060000D01*
X94350000Y-128020000D01*
X94280000Y-128020000D01*
X94200000Y-128030000D01*
X94160000Y-128100000D01*
X94110000Y-128140000D01*
X94020000Y-128150000D01*
X93930000Y-128130000D01*
X93880000Y-128090000D01*
X93870000Y-128050000D01*
X93860000Y-127970000D01*
X93850000Y-127880000D01*
X93850000Y-127750000D01*
X93850000Y-127650000D01*
X93860000Y-127590000D01*
X93880000Y-127540000D01*
X93940000Y-127500000D01*
X94020000Y-127480000D01*
X94090000Y-127500000D01*
X94140000Y-127550000D01*
X94160000Y-127640000D01*
X94150000Y-127720000D01*
X94070000Y-127720000D01*
X94020000Y-127760000D01*
X94020000Y-127840000D01*
X94050000Y-127910000D01*
X94130000Y-127910000D01*
X94370000Y-127910000D01*
X94410000Y-127870000D01*
X94410000Y-127620000D01*
X94400000Y-127540000D01*
X94380000Y-127470000D01*
X94340000Y-127400000D01*
X94280000Y-127350000D01*
X94210000Y-127310000D01*
X94140000Y-127290000D01*
X94060000Y-127280000D01*
X94050000Y-127280000D01*
X93960000Y-127290000D01*
X93880000Y-127310000D01*
X93820000Y-127340000D01*
X93760000Y-127390000D01*
X93710000Y-127450000D01*
X93680000Y-127520000D01*
X93660000Y-127600000D01*
X93650000Y-127670000D01*
X93650000Y-127750000D01*
X93650000Y-127850000D01*
X93410000Y-127840000D01*
X93410000Y-127730000D01*
X93400000Y-127640000D01*
X93390000Y-127560000D01*
X93380000Y-127510000D01*
X93350000Y-127440000D01*
X93310000Y-127380000D01*
X93250000Y-127330000D01*
X93180000Y-127280000D01*
X93110000Y-127280000D01*
X93030000Y-127280000D01*
X92950000Y-127300000D01*
X92880000Y-127330000D01*
X92820000Y-127380000D01*
X92770000Y-127440000D01*
X92740000Y-127500000D01*
X92470000Y-127440000D01*
X92470000Y-127370000D01*
X92460000Y-127290000D01*
X92420000Y-127280000D01*
X92020000Y-127280000D01*
X91950000Y-127290000D01*
X91930000Y-127360000D01*
X91680000Y-127340000D01*
X91670000Y-127280000D01*
X91500000Y-127280000D01*
X91460000Y-127340000D01*
X91390000Y-127370000D01*
X91230000Y-127370000D01*
X91170000Y-127330000D01*
X91060000Y-127280000D01*
X90980000Y-127280000D01*
X90950000Y-127340000D01*
X90700000Y-127340000D01*
X90670000Y-127280000D01*
X90510000Y-127280000D01*
X90440000Y-127300000D01*
X90230000Y-127810000D01*
X90200000Y-127810000D01*
X90200000Y-127330000D01*
X90180000Y-127280000D01*
X90100000Y-127280000D01*
X90020000Y-127290000D01*
X90010000Y-127360000D01*
X89770000Y-127300000D01*
X89700000Y-127280000D01*
X89620000Y-127280000D01*
X89550000Y-127310000D01*
X89500000Y-127370000D01*
X89340000Y-127370000D01*
X89260000Y-127360000D01*
X89220000Y-127300000D01*
X89170000Y-127280000D01*
X89090000Y-127280000D01*
X89020000Y-127290000D01*
X89030000Y-127370000D01*
X89260000Y-128300000D01*
X87470000Y-128600000D01*
X87430000Y-128600000D01*
G36*
X94930000Y-127060000D02*
G01*
X94930000Y-128580000D01*
X94870000Y-128600000D01*
X87470000Y-128600000D01*
X87430000Y-128600000D01*
X87110000Y-128600000D01*
X87070000Y-128550000D01*
X87070000Y-127290000D01*
X89020000Y-127290000D01*
X89030000Y-127370000D01*
X89260000Y-128300000D01*
X89310000Y-128350000D01*
X89470000Y-128350000D01*
X89520000Y-128310000D01*
X89770000Y-127310000D01*
X90010000Y-127360000D01*
X90010000Y-128320000D01*
X90070000Y-128350000D01*
X90220000Y-128350000D01*
X90280000Y-128310000D01*
X90480000Y-127790000D01*
X90510000Y-127780000D01*
X90510000Y-128250000D01*
X90520000Y-128330000D01*
X90590000Y-128350000D01*
X90670000Y-128350000D01*
X90710000Y-128300000D01*
X90710000Y-127350000D01*
X90950000Y-127340000D01*
X91200000Y-128340000D01*
X91280000Y-128350000D01*
X91360000Y-128350000D01*
X91430000Y-128350000D01*
X91675050Y-127360000D01*
X91930000Y-127360000D01*
X91930000Y-128320000D01*
X91990000Y-128350000D01*
X92070000Y-128350000D01*
X92130000Y-128320000D01*
X92130000Y-127520000D01*
X92170000Y-127480000D01*
X92410000Y-127480000D01*
X92470000Y-127450000D01*
X92740000Y-127510000D01*
X92730000Y-127560000D01*
X92720000Y-127640000D01*
X92710000Y-127730000D01*
X92710000Y-127840000D01*
X92710000Y-127940000D01*
X92720000Y-128030000D01*
X92730000Y-128100000D01*
X92750000Y-128150000D01*
X92790000Y-128220000D01*
X92840000Y-128280000D01*
X92900000Y-128320000D01*
X92980000Y-128340000D01*
X93060000Y-128350000D01*
X93150000Y-128340000D01*
X93220000Y-128320000D01*
X93280000Y-128280000D01*
X93340000Y-128220000D01*
X93370000Y-128150000D01*
X93390000Y-128100000D01*
X93400000Y-128030000D01*
X93410000Y-127940000D01*
X93410000Y-127840000D01*
X93410000Y-127730000D01*
X93403333Y-127670000D01*
X93650000Y-127670000D01*
X93650000Y-127750000D01*
X93650000Y-127850000D01*
X93650000Y-127930000D01*
X93660000Y-128010000D01*
X93670000Y-128080000D01*
X93700000Y-128150000D01*
X93740000Y-128220000D01*
X93790000Y-128280000D01*
X93860000Y-128320000D01*
X93930000Y-128340000D01*
X94010000Y-128350000D01*
X94100000Y-128350000D01*
X94180000Y-128330000D01*
X94250000Y-128310000D01*
X94320000Y-128260000D01*
X94370000Y-128210000D01*
X94400000Y-128140000D01*
X94410000Y-128060000D01*
X94350000Y-128020000D01*
X94280000Y-128020000D01*
X94200000Y-128030000D01*
X94160000Y-128100000D01*
X94110000Y-128140000D01*
X94020000Y-128150000D01*
X93930000Y-128130000D01*
X93880000Y-128090000D01*
X93870000Y-128050000D01*
X93860000Y-127970000D01*
X93850000Y-127880000D01*
X93850000Y-127750000D01*
X93850000Y-127650000D01*
X93860000Y-127590000D01*
X93880000Y-127540000D01*
X93940000Y-127500000D01*
X94020000Y-127480000D01*
X94090000Y-127500000D01*
X94140000Y-127550000D01*
X94160000Y-127640000D01*
X94150000Y-127720000D01*
X94070000Y-127720000D01*
X94020000Y-127760000D01*
X94020000Y-127840000D01*
X94050000Y-127910000D01*
X94130000Y-127910000D01*
X94370000Y-127910000D01*
X94410000Y-127870000D01*
X94410000Y-127620000D01*
X94400000Y-127540000D01*
X94380000Y-127470000D01*
X94340000Y-127400000D01*
X94280000Y-127350000D01*
X94210000Y-127310000D01*
X94140000Y-127290000D01*
X94060000Y-127280000D01*
X94050000Y-127280000D01*
X93960000Y-127290000D01*
X93880000Y-127310000D01*
X93820000Y-127340000D01*
X93760000Y-127390000D01*
X93710000Y-127450000D01*
X93680000Y-127520000D01*
X93660000Y-127600000D01*
X93650000Y-127670000D01*
X93403333Y-127670000D01*
X93400000Y-127640000D01*
X93390000Y-127560000D01*
X93380000Y-127510000D01*
X93350000Y-127440000D01*
X93310000Y-127380000D01*
X93250000Y-127330000D01*
X93180000Y-127280000D01*
X93110000Y-127280000D01*
X93030000Y-127280000D01*
X92950000Y-127300000D01*
X92880000Y-127330000D01*
X92820000Y-127380000D01*
X92770000Y-127440000D01*
X92740000Y-127500000D01*
X92470000Y-127440000D01*
X92470000Y-127370000D01*
X92460000Y-127290000D01*
X92420000Y-127280000D01*
X92020000Y-127280000D01*
X91950000Y-127290000D01*
X91930000Y-127360000D01*
X91675050Y-127360000D01*
X91680000Y-127340000D01*
X91670000Y-127280000D01*
X91500000Y-127280000D01*
X91460000Y-127340000D01*
X91390000Y-127370000D01*
X91230000Y-127370000D01*
X91170000Y-127330000D01*
X91060000Y-127280000D01*
X90980000Y-127280000D01*
X90950000Y-127340000D01*
X90700000Y-127340000D01*
X90670000Y-127280000D01*
X90510000Y-127280000D01*
X90440000Y-127300000D01*
X90230000Y-127810000D01*
X90200000Y-127810000D01*
X90200000Y-127330000D01*
X90180000Y-127280000D01*
X90100000Y-127280000D01*
X90020000Y-127290000D01*
X90010000Y-127360000D01*
X89770000Y-127300000D01*
X89700000Y-127280000D01*
X89620000Y-127280000D01*
X89550000Y-127310000D01*
X89500000Y-127370000D01*
X89340000Y-127370000D01*
X89260000Y-127360000D01*
X89220000Y-127300000D01*
X89170000Y-127280000D01*
X89090000Y-127280000D01*
X89020000Y-127290000D01*
X87070000Y-127290000D01*
X87070000Y-127040000D01*
X87110000Y-127000000D01*
X94910000Y-127000000D01*
X94930000Y-127060000D01*
G37*
X89370000Y-127560000D02*
X89450000Y-127560000D01*
X89460000Y-127620000D01*
X89400000Y-128100000D01*
X89380000Y-128060000D01*
X89310000Y-127590000D01*
X89370000Y-127560000D01*
G36*
X89460000Y-127620000D02*
G01*
X89400000Y-128100000D01*
X89380000Y-128060000D01*
X89310000Y-127590000D01*
X89370000Y-127560000D01*
X89450000Y-127560000D01*
X89460000Y-127620000D01*
G37*
X93170000Y-125560000D02*
X93250000Y-125560000D01*
X93240000Y-125640000D01*
X93190000Y-126040000D01*
X93180000Y-126110000D01*
X93160000Y-126040000D01*
X93110000Y-125650000D01*
X93100000Y-125570000D01*
X93170000Y-125560000D01*
G36*
X93240000Y-125640000D02*
G01*
X93190000Y-126040000D01*
X93180000Y-126110000D01*
X93160000Y-126040000D01*
X93110000Y-125650000D01*
X93100000Y-125570000D01*
X93170000Y-125560000D01*
X93250000Y-125560000D01*
X93240000Y-125640000D01*
G37*
X89330000Y-125480000D02*
X89410000Y-125480000D01*
X89500000Y-125480000D01*
X89560000Y-125520000D01*
X89590000Y-125570000D01*
X89600000Y-125630000D01*
X89600000Y-125710000D01*
X89600000Y-125830000D01*
X89600000Y-125940000D01*
X89600000Y-126020000D01*
X89590000Y-126070000D01*
X89550000Y-126120000D01*
X89480000Y-126150000D01*
X89390000Y-126160000D01*
X89310000Y-126160000D01*
X89300000Y-126080000D01*
X89300000Y-125530000D01*
X89330000Y-125480000D01*
G36*
X89560000Y-125520000D02*
G01*
X89590000Y-125570000D01*
X89600000Y-125630000D01*
X89600000Y-125710000D01*
X89600000Y-125830000D01*
X89600000Y-125940000D01*
X89600000Y-126020000D01*
X89590000Y-126070000D01*
X89550000Y-126120000D01*
X89480000Y-126150000D01*
X89390000Y-126160000D01*
X89310000Y-126160000D01*
X89300000Y-126080000D01*
X89300000Y-125530000D01*
X89330000Y-125480000D01*
X89410000Y-125480000D01*
X89500000Y-125480000D01*
X89560000Y-125520000D01*
G37*
X87530000Y-126600000D02*
X87210000Y-126600000D01*
X87150000Y-126570000D01*
X87150000Y-125060000D01*
X87170000Y-125000000D01*
X94820000Y-125000000D01*
X94850000Y-125050000D01*
X94850000Y-126570000D01*
X94800000Y-126600000D01*
X87550000Y-126600000D01*
X89100000Y-126270000D01*
X89120000Y-126350000D01*
X89200000Y-126350000D01*
X89440000Y-126350000D01*
X89520000Y-126340000D01*
X89590000Y-126320000D01*
X89660000Y-126280000D01*
X89720000Y-126230000D01*
X89760000Y-126170000D01*
X90050000Y-126290000D01*
X90080000Y-126350000D01*
X90160000Y-126350000D01*
X90240000Y-126340000D01*
X90250000Y-126270000D01*
X90520000Y-126140000D01*
X90560000Y-126200000D01*
X90610000Y-126260000D01*
X90680000Y-126310000D01*
X90750000Y-126340000D01*
X90830000Y-126350000D01*
X90910000Y-126350000D01*
X90990000Y-126340000D01*
X91070000Y-126320000D01*
X91140000Y-126280000D01*
X91190000Y-126220000D01*
X91230000Y-126160000D01*
X91250000Y-126080000D01*
X91210000Y-126020000D01*
X91050000Y-126020000D01*
X90960000Y-126130000D01*
X90880000Y-126150000D01*
X90790000Y-126140000D01*
X90730000Y-126100000D01*
X90710000Y-126060000D01*
X90690000Y-126000000D01*
X90690000Y-125900000D01*
X90690000Y-125790000D01*
X90690000Y-125680000D01*
X90700000Y-125600000D01*
X90710000Y-125560000D01*
X90750000Y-125510000D01*
X90830000Y-125490000D01*
X90910000Y-125490000D01*
X90970000Y-125530000D01*
X90990000Y-125610000D01*
X91000000Y-125700000D01*
X90930000Y-125720000D01*
X90860000Y-125740000D01*
X90860000Y-125820000D01*
X90870000Y-125900000D01*
X90940000Y-125910000D01*
X91180000Y-125910000D01*
X91250000Y-125890000D01*
X91250000Y-125810000D01*
X91250000Y-125650000D01*
X91240000Y-125560000D01*
X91220000Y-125480000D01*
X91490000Y-125350000D01*
X91490000Y-126310000D01*
X91540000Y-126350000D01*
X91620000Y-126350000D01*
X91690000Y-126330000D01*
X91930000Y-126330000D01*
X92000000Y-126350000D01*
X92480000Y-126350000D01*
X92550000Y-126340000D01*
X92560000Y-126270000D01*
X92560000Y-126190000D01*
X92500000Y-126160000D01*
X92420000Y-126160000D01*
X92340000Y-126150000D01*
X92340000Y-126080000D01*
X92340000Y-125360000D01*
X92800000Y-125310000D01*
X92820000Y-125390000D01*
X93050000Y-126310000D01*
X93110000Y-126350000D01*
X93270000Y-126350000D01*
X93310000Y-126300000D01*
X93540000Y-125370000D01*
X93550000Y-125290000D01*
X93790000Y-125340000D01*
X93790000Y-126290000D01*
X93830000Y-126350000D01*
X93900000Y-126350000D01*
X93980000Y-126340000D01*
X93990000Y-126260000D01*
X93990000Y-125550000D01*
X94010000Y-125480000D01*
X94250000Y-125480000D01*
X94320000Y-125470000D01*
X94330000Y-125390000D01*
X94330000Y-125310000D01*
X94310000Y-125280000D01*
X93830000Y-125280000D01*
X93790000Y-125340000D01*
X93550000Y-125290000D01*
X93470000Y-125280000D01*
X93390000Y-125280000D01*
X93330000Y-125320000D01*
X93270000Y-125370000D01*
X93110000Y-125370000D01*
X93040000Y-125350000D01*
X93000000Y-125290000D01*
X92940000Y-125280000D01*
X92860000Y-125280000D01*
X92800000Y-125300000D01*
X92340000Y-125360000D01*
X92320000Y-125280000D01*
X92260000Y-125280000D01*
X92180000Y-125280000D01*
X92140000Y-125340000D01*
X92140000Y-126130000D01*
X92080000Y-126160000D01*
X92000000Y-126160000D01*
X91930000Y-126170000D01*
X91930000Y-126250000D01*
X91930000Y-126330000D01*
X91690000Y-126330000D01*
X91690000Y-125370000D01*
X91680000Y-125290000D01*
X91590000Y-125280000D01*
X91510000Y-125280000D01*
X91490000Y-125350000D01*
X91220000Y-125480000D01*
X91180000Y-125420000D01*
X91130000Y-125370000D01*
X91070000Y-125320000D01*
X91000000Y-125300000D01*
X90920000Y-125280000D01*
X90820000Y-125290000D01*
X90740000Y-125300000D01*
X90670000Y-125330000D01*
X90610000Y-125370000D01*
X90560000Y-125430000D01*
X90520000Y-125500000D01*
X90500000Y-125580000D01*
X90490000Y-125650000D01*
X90490000Y-125730000D01*
X90490000Y-125820000D01*
X90490000Y-125910000D01*
X90490000Y-125990000D01*
X90500000Y-126060000D01*
X90520000Y-126130000D01*
X90250000Y-126270000D01*
X90250000Y-125310000D01*
X90170000Y-125280000D01*
X90090000Y-125280000D01*
X90050000Y-125330000D01*
X90050000Y-126290000D01*
X89760000Y-126160000D01*
X89780000Y-126110000D01*
X89800000Y-126040000D01*
X89810000Y-125960000D01*
X89810000Y-125860000D01*
X89810000Y-125760000D01*
X89800000Y-125660000D01*
X89800000Y-125580000D01*
X89780000Y-125520000D01*
X89760000Y-125460000D01*
X89710000Y-125400000D01*
X89650000Y-125350000D01*
X89580000Y-125310000D01*
X89510000Y-125290000D01*
X89400000Y-125280000D01*
X89160000Y-125280000D01*
X89100000Y-125320000D01*
X89100000Y-126270000D01*
X87550000Y-126600000D01*
X87530000Y-126600000D01*
G36*
X94850000Y-125050000D02*
G01*
X94850000Y-126570000D01*
X94800000Y-126600000D01*
X87550000Y-126600000D01*
X87530000Y-126600000D01*
X87210000Y-126600000D01*
X87150000Y-126570000D01*
X87150000Y-125320000D01*
X89100000Y-125320000D01*
X89100000Y-126270000D01*
X89120000Y-126350000D01*
X89200000Y-126350000D01*
X89440000Y-126350000D01*
X89520000Y-126340000D01*
X89590000Y-126320000D01*
X89660000Y-126280000D01*
X89720000Y-126230000D01*
X89760000Y-126170000D01*
X90050000Y-126290000D01*
X90080000Y-126350000D01*
X90160000Y-126350000D01*
X90240000Y-126340000D01*
X90250000Y-126270000D01*
X90520000Y-126140000D01*
X90560000Y-126200000D01*
X90610000Y-126260000D01*
X90680000Y-126310000D01*
X90750000Y-126340000D01*
X90830000Y-126350000D01*
X90910000Y-126350000D01*
X90990000Y-126340000D01*
X91070000Y-126320000D01*
X91140000Y-126280000D01*
X91190000Y-126220000D01*
X91230000Y-126160000D01*
X91250000Y-126080000D01*
X91210000Y-126020000D01*
X91050000Y-126020000D01*
X90960000Y-126130000D01*
X90880000Y-126150000D01*
X90790000Y-126140000D01*
X90730000Y-126100000D01*
X90710000Y-126060000D01*
X90690000Y-126000000D01*
X90690000Y-125900000D01*
X90690000Y-125790000D01*
X90690000Y-125680000D01*
X90700000Y-125600000D01*
X90710000Y-125560000D01*
X90750000Y-125510000D01*
X90830000Y-125490000D01*
X90910000Y-125490000D01*
X90970000Y-125530000D01*
X90990000Y-125610000D01*
X91000000Y-125700000D01*
X90930000Y-125720000D01*
X90860000Y-125740000D01*
X90860000Y-125820000D01*
X90870000Y-125900000D01*
X90940000Y-125910000D01*
X91180000Y-125910000D01*
X91250000Y-125890000D01*
X91250000Y-125810000D01*
X91250000Y-125650000D01*
X91240000Y-125560000D01*
X91220000Y-125480000D01*
X91180000Y-125420000D01*
X91130000Y-125370000D01*
X91106000Y-125350000D01*
X91490000Y-125350000D01*
X91490000Y-126310000D01*
X91540000Y-126350000D01*
X91620000Y-126350000D01*
X91690000Y-126330000D01*
X91690000Y-126170000D01*
X91930000Y-126170000D01*
X91930000Y-126250000D01*
X91930000Y-126330000D01*
X92000000Y-126350000D01*
X92480000Y-126350000D01*
X92550000Y-126340000D01*
X92560000Y-126270000D01*
X92560000Y-126190000D01*
X92500000Y-126160000D01*
X92420000Y-126160000D01*
X92340000Y-126150000D01*
X92340000Y-126080000D01*
X92340000Y-125360000D01*
X92800000Y-125310000D01*
X92820000Y-125390000D01*
X93050000Y-126310000D01*
X93110000Y-126350000D01*
X93270000Y-126350000D01*
X93310000Y-126300000D01*
X93540000Y-125370000D01*
X93543750Y-125340000D01*
X93790000Y-125340000D01*
X93790000Y-126290000D01*
X93830000Y-126350000D01*
X93900000Y-126350000D01*
X93980000Y-126340000D01*
X93990000Y-126260000D01*
X93990000Y-125550000D01*
X94010000Y-125480000D01*
X94250000Y-125480000D01*
X94320000Y-125470000D01*
X94330000Y-125390000D01*
X94330000Y-125310000D01*
X94310000Y-125280000D01*
X93830000Y-125280000D01*
X93790000Y-125340000D01*
X93543750Y-125340000D01*
X93550000Y-125290000D01*
X93470000Y-125280000D01*
X93390000Y-125280000D01*
X93330000Y-125320000D01*
X93270000Y-125370000D01*
X93110000Y-125370000D01*
X93040000Y-125350000D01*
X93000000Y-125290000D01*
X92940000Y-125280000D01*
X92860000Y-125280000D01*
X92800000Y-125300000D01*
X92340000Y-125360000D01*
X92320000Y-125280000D01*
X92260000Y-125280000D01*
X92180000Y-125280000D01*
X92140000Y-125340000D01*
X92140000Y-126130000D01*
X92080000Y-126160000D01*
X92000000Y-126160000D01*
X91930000Y-126170000D01*
X91690000Y-126170000D01*
X91690000Y-125370000D01*
X91680000Y-125290000D01*
X91590000Y-125280000D01*
X91510000Y-125280000D01*
X91490000Y-125350000D01*
X91106000Y-125350000D01*
X91070000Y-125320000D01*
X91000000Y-125300000D01*
X90920000Y-125280000D01*
X90820000Y-125290000D01*
X90740000Y-125300000D01*
X90670000Y-125330000D01*
X90610000Y-125370000D01*
X90560000Y-125430000D01*
X90520000Y-125500000D01*
X90500000Y-125580000D01*
X90490000Y-125650000D01*
X90490000Y-125730000D01*
X90490000Y-125820000D01*
X90490000Y-125910000D01*
X90490000Y-125990000D01*
X90500000Y-126060000D01*
X90520000Y-126130000D01*
X90250000Y-126270000D01*
X90250000Y-125310000D01*
X90170000Y-125280000D01*
X90090000Y-125280000D01*
X90050000Y-125330000D01*
X90050000Y-126290000D01*
X89760000Y-126160000D01*
X89780000Y-126110000D01*
X89800000Y-126040000D01*
X89810000Y-125960000D01*
X89810000Y-125860000D01*
X89810000Y-125760000D01*
X89800000Y-125660000D01*
X89800000Y-125580000D01*
X89780000Y-125520000D01*
X89760000Y-125460000D01*
X89710000Y-125400000D01*
X89650000Y-125350000D01*
X89580000Y-125310000D01*
X89510000Y-125290000D01*
X89400000Y-125280000D01*
X89160000Y-125280000D01*
X89100000Y-125320000D01*
X87150000Y-125320000D01*
X87150000Y-125060000D01*
X87170000Y-125000000D01*
X94820000Y-125000000D01*
X94850000Y-125050000D01*
G37*
%TD*%
%LPC*%
D12*
%TO.C,H2*%
X83000000Y-127000000D03*
%TD*%
%TO.C,H1*%
X83000000Y-111000000D03*
%TD*%
D13*
%TO.C,K1*%
X100500000Y-116460000D03*
X100500000Y-119000000D03*
X100500000Y-121540000D03*
%TD*%
%LPD*%
M02*
