M48
; DRILL file KiCad 10.99.0-3671-gbe90a7e200 date 2026-09-09T23:18:24
; FORMAT={-:-/ absolute / metric / decimal}
; #@! TF.CreationDate,2026-09-09T23:18:24+01:00
; #@! TF.GenerationSoftware,Kicad,Pcbnew,10.99.0-3671-gbe90a7e200
; #@! TF.FileFunction,Plated,1,2,PTH
FMAT,2
METRIC
; #@! TA.AperFunction,Plated,PTH,ViaDrill
T1C0.394
; #@! TA.AperFunction,Plated,PTH,ViaDrill
T2C0.500
; #@! TA.AperFunction,Plated,PTH,ComponentDrill
T3C0.600
; #@! TA.AperFunction,Plated,PTH,ComponentDrill
T4C1.000
; #@! TA.AperFunction,Plated,PTH,ComponentDrill
T5C2.500
%
G90
G05
T1
X23.114Y18.288
X24.033Y17.473
X27.305Y15.748
X27.305Y14.732
T2
X1.072Y25.261
X1.453Y12.942
X1.453Y7.481
X1.707Y18.784
X5.009Y32.119
X7.549Y25.261
X7.803Y18.784
X7.803Y6.846
X9.835Y6.465
X10.089Y22.086
X10.216Y16.371
X12.121Y13.831
X13.01Y5.957
X13.137Y9.513
X13.899Y20.435
X16.058Y11.291
X16.566Y13.831
X17.328Y19.419
X17.963Y3.925
X19.106Y13.196
X20.551Y12.823
X20.757Y26.023
X21.646Y15.863
X22.662Y5.195
X22.789Y9.767
X22.916Y7.735
X23.368Y13.589
X24.44Y25.642
X25.71Y12.053
X26.599Y24.753
X27.686Y19.939
X30.79Y24.499
X30.79Y13.196
X33.965Y21.959
X34.092Y11.799
X36.378Y20.689
T3
X1.584Y14.48
X1.584Y5.84
X5.764Y14.48
X5.764Y5.84
T4
X6.35Y2.54
X8.89Y9.398
X8.89Y2.54
X11.43Y9.398
X11.43Y2.54
X13.97Y2.54
X16.51Y2.54
X17.653Y24.384
X19.05Y2.54
X21.59Y2.54
X22.733Y24.384
X24.13Y2.54
X26.67Y2.54
X29.21Y2.54
X31.75Y2.54
T5
X2.54Y30.48
X2.54Y2.54
X35.56Y30.48
X35.56Y2.54
M30
