%TF.GenerationSoftware,KiCad,Pcbnew,10.99.0-3671-gbe90a7e200*%
%TF.CreationDate,2026-09-10T01:23:19+01:00*%
%TF.ProjectId,kicad_file,6b696361-645f-4666-996c-652e6b696361,rev?*%
%TF.SameCoordinates,Original*%
%TF.FileFunction,Legend,Bot*%
%TF.FilePolarity,Positive*%
%FSLAX46Y46*%
G04 Gerber Fmt 4.6, Leading zero omitted, Abs format (unit mm)*
G04 Created by KiCad (PCBNEW 10.99.0-3671-gbe90a7e200) date 2026-09-10 01:23:19*
%MOMM*%
%LPD*%
G01*
G04 APERTURE LIST*
G04 Aperture macros list*
%AMRoundRect*
0 Rectangle with rounded corners*
0 $1 Rounding radius*
0 $2 $3 $4 $5 $6 $7 $8 $9 X,Y pos of 4 corners*
0 Add a 4 corners polygon primitive as box body*
4,1,4,$2,$3,$4,$5,$6,$7,$8,$9,$2,$3,0*
0 Add four circle primitives for the rounded corners*
1,1,$1+$1,$2,$3*
1,1,$1+$1,$4,$5*
1,1,$1+$1,$6,$7*
1,1,$1+$1,$8,$9*
0 Add four rect primitives between the rounded corners*
20,1,$1+$1,$2,$3,$4,$5,0*
20,1,$1+$1,$4,$5,$6,$7,0*
20,1,$1+$1,$6,$7,$8,$9,0*
20,1,$1+$1,$8,$9,$2,$3,0*%
%AMFreePoly0*
4,1,17,0.404157,0.924921,0.924921,0.404157,0.939800,0.368236,0.939800,-0.368236,0.924921,-0.404157,0.404157,-0.924921,0.368236,-0.939800,-0.368236,-0.939800,-0.404157,-0.924921,-0.924921,-0.404157,-0.939800,-0.368236,-0.939800,0.368236,-0.924921,0.404157,-0.404157,0.924921,-0.368236,0.939800,0.368236,0.939800,0.404157,0.924921,0.404157,0.924921,$1*%
G04 Aperture macros list end*
%ADD10C,0.190500*%
%ADD11C,0.152400*%
%ADD12RoundRect,0.050800X0.838200X-0.838200X0.838200X0.838200X-0.838200X0.838200X-0.838200X-0.838200X0*%
%ADD13C,1.778000*%
%ADD14C,3.301600*%
%ADD15FreePoly0,270.000000*%
%ADD16C,1.879600*%
G04 APERTURE END LIST*
D10*
X22884190Y7808975D02*
X22524357Y6729475D01*
X22524357Y6729475D02*
X22164523Y7808975D01*
X21804690Y6729475D02*
X21804690Y7808975D01*
X21290642Y6729475D02*
X21290642Y7808975D01*
X21290642Y7808975D02*
X20673785Y6729475D01*
X20673785Y6729475D02*
X20673785Y7808975D01*
X20159737Y6832284D02*
X20108332Y6780880D01*
X20108332Y6780880D02*
X20159737Y6729475D01*
X20159737Y6729475D02*
X20211141Y6780880D01*
X20211141Y6780880D02*
X20159737Y6832284D01*
X20159737Y6832284D02*
X20159737Y6729475D01*
X20159737Y7397737D02*
X20108332Y7346332D01*
X20108332Y7346332D02*
X20159737Y7294927D01*
X20159737Y7294927D02*
X20211141Y7346332D01*
X20211141Y7346332D02*
X20159737Y7397737D01*
X20159737Y7397737D02*
X20159737Y7294927D01*
X17281070Y7808975D02*
X16612808Y7808975D01*
X16612808Y7808975D02*
X16972642Y7397737D01*
X16972642Y7397737D02*
X16818427Y7397737D01*
X16818427Y7397737D02*
X16715618Y7346332D01*
X16715618Y7346332D02*
X16664213Y7294927D01*
X16664213Y7294927D02*
X16612808Y7192118D01*
X16612808Y7192118D02*
X16612808Y6935094D01*
X16612808Y6935094D02*
X16664213Y6832284D01*
X16664213Y6832284D02*
X16715618Y6780880D01*
X16715618Y6780880D02*
X16818427Y6729475D01*
X16818427Y6729475D02*
X17126856Y6729475D01*
X17126856Y6729475D02*
X17229665Y6780880D01*
X17229665Y6780880D02*
X17281070Y6832284D01*
X16150166Y6832284D02*
X16098761Y6780880D01*
X16098761Y6780880D02*
X16150166Y6729475D01*
X16150166Y6729475D02*
X16201570Y6780880D01*
X16201570Y6780880D02*
X16150166Y6832284D01*
X16150166Y6832284D02*
X16150166Y6729475D01*
X15738927Y7808975D02*
X15070665Y7808975D01*
X15070665Y7808975D02*
X15430499Y7397737D01*
X15430499Y7397737D02*
X15276284Y7397737D01*
X15276284Y7397737D02*
X15173475Y7346332D01*
X15173475Y7346332D02*
X15122070Y7294927D01*
X15122070Y7294927D02*
X15070665Y7192118D01*
X15070665Y7192118D02*
X15070665Y6935094D01*
X15070665Y6935094D02*
X15122070Y6832284D01*
X15122070Y6832284D02*
X15173475Y6780880D01*
X15173475Y6780880D02*
X15276284Y6729475D01*
X15276284Y6729475D02*
X15584713Y6729475D01*
X15584713Y6729475D02*
X15687522Y6780880D01*
X15687522Y6780880D02*
X15738927Y6832284D01*
X14608023Y7140713D02*
X13785547Y7140713D01*
X12757451Y7808975D02*
X13271499Y7808975D01*
X13271499Y7808975D02*
X13322903Y7294927D01*
X13322903Y7294927D02*
X13271499Y7346332D01*
X13271499Y7346332D02*
X13168689Y7397737D01*
X13168689Y7397737D02*
X12911665Y7397737D01*
X12911665Y7397737D02*
X12808856Y7346332D01*
X12808856Y7346332D02*
X12757451Y7294927D01*
X12757451Y7294927D02*
X12706046Y7192118D01*
X12706046Y7192118D02*
X12706046Y6935094D01*
X12706046Y6935094D02*
X12757451Y6832284D01*
X12757451Y6832284D02*
X12808856Y6780880D01*
X12808856Y6780880D02*
X12911665Y6729475D01*
X12911665Y6729475D02*
X13168689Y6729475D01*
X13168689Y6729475D02*
X13271499Y6780880D01*
X13271499Y6780880D02*
X13322903Y6832284D01*
X12243404Y6832284D02*
X12191999Y6780880D01*
X12191999Y6780880D02*
X12243404Y6729475D01*
X12243404Y6729475D02*
X12294808Y6780880D01*
X12294808Y6780880D02*
X12243404Y6832284D01*
X12243404Y6832284D02*
X12243404Y6729475D01*
X11523737Y7808975D02*
X11420927Y7808975D01*
X11420927Y7808975D02*
X11318118Y7757570D01*
X11318118Y7757570D02*
X11266713Y7706165D01*
X11266713Y7706165D02*
X11215308Y7603356D01*
X11215308Y7603356D02*
X11163903Y7397737D01*
X11163903Y7397737D02*
X11163903Y7140713D01*
X11163903Y7140713D02*
X11215308Y6935094D01*
X11215308Y6935094D02*
X11266713Y6832284D01*
X11266713Y6832284D02*
X11318118Y6780880D01*
X11318118Y6780880D02*
X11420927Y6729475D01*
X11420927Y6729475D02*
X11523737Y6729475D01*
X11523737Y6729475D02*
X11626546Y6780880D01*
X11626546Y6780880D02*
X11677951Y6832284D01*
X11677951Y6832284D02*
X11729356Y6935094D01*
X11729356Y6935094D02*
X11780760Y7140713D01*
X11780760Y7140713D02*
X11780760Y7397737D01*
X11780760Y7397737D02*
X11729356Y7603356D01*
X11729356Y7603356D02*
X11677951Y7706165D01*
X11677951Y7706165D02*
X11626546Y7757570D01*
X11626546Y7757570D02*
X11523737Y7808975D01*
X10855475Y7808975D02*
X10495642Y6729475D01*
X10495642Y6729475D02*
X10135808Y7808975D01*
X21701880Y4991540D02*
X22215928Y4991540D01*
X22215928Y4991540D02*
X22215928Y6071040D01*
X21187832Y4991540D02*
X21290642Y5042945D01*
X21290642Y5042945D02*
X21342047Y5094349D01*
X21342047Y5094349D02*
X21393451Y5197159D01*
X21393451Y5197159D02*
X21393451Y5505587D01*
X21393451Y5505587D02*
X21342047Y5608397D01*
X21342047Y5608397D02*
X21290642Y5659802D01*
X21290642Y5659802D02*
X21187832Y5711206D01*
X21187832Y5711206D02*
X21033618Y5711206D01*
X21033618Y5711206D02*
X20930809Y5659802D01*
X20930809Y5659802D02*
X20879404Y5608397D01*
X20879404Y5608397D02*
X20827999Y5505587D01*
X20827999Y5505587D02*
X20827999Y5197159D01*
X20827999Y5197159D02*
X20879404Y5094349D01*
X20879404Y5094349D02*
X20930809Y5042945D01*
X20930809Y5042945D02*
X21033618Y4991540D01*
X21033618Y4991540D02*
X21187832Y4991540D01*
X19902714Y5711206D02*
X19902714Y4837325D01*
X19902714Y4837325D02*
X19954119Y4734516D01*
X19954119Y4734516D02*
X20005523Y4683111D01*
X20005523Y4683111D02*
X20108333Y4631706D01*
X20108333Y4631706D02*
X20262547Y4631706D01*
X20262547Y4631706D02*
X20365357Y4683111D01*
X19902714Y5042945D02*
X20005523Y4991540D01*
X20005523Y4991540D02*
X20211142Y4991540D01*
X20211142Y4991540D02*
X20313952Y5042945D01*
X20313952Y5042945D02*
X20365357Y5094349D01*
X20365357Y5094349D02*
X20416761Y5197159D01*
X20416761Y5197159D02*
X20416761Y5505587D01*
X20416761Y5505587D02*
X20365357Y5608397D01*
X20365357Y5608397D02*
X20313952Y5659802D01*
X20313952Y5659802D02*
X20211142Y5711206D01*
X20211142Y5711206D02*
X20005523Y5711206D01*
X20005523Y5711206D02*
X19902714Y5659802D01*
X19388667Y4991540D02*
X19388667Y5711206D01*
X19388667Y6071040D02*
X19440071Y6019635D01*
X19440071Y6019635D02*
X19388667Y5968230D01*
X19388667Y5968230D02*
X19337262Y6019635D01*
X19337262Y6019635D02*
X19388667Y6071040D01*
X19388667Y6071040D02*
X19388667Y5968230D01*
X18411976Y5042945D02*
X18514785Y4991540D01*
X18514785Y4991540D02*
X18720404Y4991540D01*
X18720404Y4991540D02*
X18823214Y5042945D01*
X18823214Y5042945D02*
X18874619Y5094349D01*
X18874619Y5094349D02*
X18926023Y5197159D01*
X18926023Y5197159D02*
X18926023Y5505587D01*
X18926023Y5505587D02*
X18874619Y5608397D01*
X18874619Y5608397D02*
X18823214Y5659802D01*
X18823214Y5659802D02*
X18720404Y5711206D01*
X18720404Y5711206D02*
X18514785Y5711206D01*
X18514785Y5711206D02*
X18411976Y5659802D01*
X17949333Y5094349D02*
X17897928Y5042945D01*
X17897928Y5042945D02*
X17949333Y4991540D01*
X17949333Y4991540D02*
X18000737Y5042945D01*
X18000737Y5042945D02*
X17949333Y5094349D01*
X17949333Y5094349D02*
X17949333Y4991540D01*
X17949333Y5659802D02*
X17897928Y5608397D01*
X17897928Y5608397D02*
X17949333Y5556992D01*
X17949333Y5556992D02*
X18000737Y5608397D01*
X18000737Y5608397D02*
X17949333Y5659802D01*
X17949333Y5659802D02*
X17949333Y5556992D01*
X16098761Y6071040D02*
X16612809Y6071040D01*
X16612809Y6071040D02*
X16664213Y5556992D01*
X16664213Y5556992D02*
X16612809Y5608397D01*
X16612809Y5608397D02*
X16509999Y5659802D01*
X16509999Y5659802D02*
X16252975Y5659802D01*
X16252975Y5659802D02*
X16150166Y5608397D01*
X16150166Y5608397D02*
X16098761Y5556992D01*
X16098761Y5556992D02*
X16047356Y5454183D01*
X16047356Y5454183D02*
X16047356Y5197159D01*
X16047356Y5197159D02*
X16098761Y5094349D01*
X16098761Y5094349D02*
X16150166Y5042945D01*
X16150166Y5042945D02*
X16252975Y4991540D01*
X16252975Y4991540D02*
X16509999Y4991540D01*
X16509999Y4991540D02*
X16612809Y5042945D01*
X16612809Y5042945D02*
X16664213Y5094349D01*
X15738928Y6071040D02*
X15379095Y4991540D01*
X15379095Y4991540D02*
X15019261Y6071040D01*
X13888356Y5042945D02*
X13734142Y4991540D01*
X13734142Y4991540D02*
X13477118Y4991540D01*
X13477118Y4991540D02*
X13374309Y5042945D01*
X13374309Y5042945D02*
X13322904Y5094349D01*
X13322904Y5094349D02*
X13271499Y5197159D01*
X13271499Y5197159D02*
X13271499Y5299968D01*
X13271499Y5299968D02*
X13322904Y5402778D01*
X13322904Y5402778D02*
X13374309Y5454183D01*
X13374309Y5454183D02*
X13477118Y5505587D01*
X13477118Y5505587D02*
X13682737Y5556992D01*
X13682737Y5556992D02*
X13785547Y5608397D01*
X13785547Y5608397D02*
X13836952Y5659802D01*
X13836952Y5659802D02*
X13888356Y5762611D01*
X13888356Y5762611D02*
X13888356Y5865421D01*
X13888356Y5865421D02*
X13836952Y5968230D01*
X13836952Y5968230D02*
X13785547Y6019635D01*
X13785547Y6019635D02*
X13682737Y6071040D01*
X13682737Y6071040D02*
X13425714Y6071040D01*
X13425714Y6071040D02*
X13271499Y6019635D01*
X12346214Y4991540D02*
X12346214Y5556992D01*
X12346214Y5556992D02*
X12397619Y5659802D01*
X12397619Y5659802D02*
X12500428Y5711206D01*
X12500428Y5711206D02*
X12706047Y5711206D01*
X12706047Y5711206D02*
X12808857Y5659802D01*
X12346214Y5042945D02*
X12449023Y4991540D01*
X12449023Y4991540D02*
X12706047Y4991540D01*
X12706047Y4991540D02*
X12808857Y5042945D01*
X12808857Y5042945D02*
X12860261Y5145754D01*
X12860261Y5145754D02*
X12860261Y5248564D01*
X12860261Y5248564D02*
X12808857Y5351373D01*
X12808857Y5351373D02*
X12706047Y5402778D01*
X12706047Y5402778D02*
X12449023Y5402778D01*
X12449023Y5402778D02*
X12346214Y5454183D01*
X11986381Y5711206D02*
X11575143Y5711206D01*
X11832167Y4991540D02*
X11832167Y5916825D01*
X11832167Y5916825D02*
X11780762Y6019635D01*
X11780762Y6019635D02*
X11677952Y6071040D01*
X11677952Y6071040D02*
X11575143Y6071040D01*
X10804072Y5042945D02*
X10906881Y4991540D01*
X10906881Y4991540D02*
X11112500Y4991540D01*
X11112500Y4991540D02*
X11215310Y5042945D01*
X11215310Y5042945D02*
X11266714Y5145754D01*
X11266714Y5145754D02*
X11266714Y5556992D01*
X11266714Y5556992D02*
X11215310Y5659802D01*
X11215310Y5659802D02*
X11112500Y5711206D01*
X11112500Y5711206D02*
X10906881Y5711206D01*
X10906881Y5711206D02*
X10804072Y5659802D01*
X10804072Y5659802D02*
X10752667Y5556992D01*
X10752667Y5556992D02*
X10752667Y5454183D01*
X10752667Y5454183D02*
X11266714Y5351373D01*
D11*
X19596704Y13990174D02*
X19596704Y15107774D01*
X19596704Y15107774D02*
X19224171Y14309489D01*
X19224171Y14309489D02*
X18851638Y15107774D01*
X18851638Y15107774D02*
X18851638Y13990174D01*
X18319447Y13990174D02*
X18319447Y15107774D01*
X18319447Y15107774D02*
X17893695Y15107774D01*
X17893695Y15107774D02*
X17787257Y15054555D01*
X17787257Y15054555D02*
X17734038Y15001336D01*
X17734038Y15001336D02*
X17680819Y14894898D01*
X17680819Y14894898D02*
X17680819Y14735241D01*
X17680819Y14735241D02*
X17734038Y14628803D01*
X17734038Y14628803D02*
X17787257Y14575584D01*
X17787257Y14575584D02*
X17893695Y14522365D01*
X17893695Y14522365D02*
X18319447Y14522365D01*
X16563219Y13990174D02*
X16935752Y14522365D01*
X17201847Y13990174D02*
X17201847Y15107774D01*
X17201847Y15107774D02*
X16776095Y15107774D01*
X16776095Y15107774D02*
X16669657Y15054555D01*
X16669657Y15054555D02*
X16616438Y15001336D01*
X16616438Y15001336D02*
X16563219Y14894898D01*
X16563219Y14894898D02*
X16563219Y14735241D01*
X16563219Y14735241D02*
X16616438Y14628803D01*
X16616438Y14628803D02*
X16669657Y14575584D01*
X16669657Y14575584D02*
X16776095Y14522365D01*
X16776095Y14522365D02*
X17201847Y14522365D01*
X15498838Y13990174D02*
X16137466Y13990174D01*
X15818152Y13990174D02*
X15818152Y15107774D01*
X15818152Y15107774D02*
X15924590Y14948117D01*
X15924590Y14948117D02*
X16031028Y14841679D01*
X16031028Y14841679D02*
X16137466Y14788460D01*
X15073085Y15001336D02*
X15019866Y15054555D01*
X15019866Y15054555D02*
X14913428Y15107774D01*
X14913428Y15107774D02*
X14647333Y15107774D01*
X14647333Y15107774D02*
X14540895Y15054555D01*
X14540895Y15054555D02*
X14487676Y15001336D01*
X14487676Y15001336D02*
X14434457Y14894898D01*
X14434457Y14894898D02*
X14434457Y14788460D01*
X14434457Y14788460D02*
X14487676Y14628803D01*
X14487676Y14628803D02*
X15126304Y13990174D01*
X15126304Y13990174D02*
X14434457Y13990174D01*
X13370076Y13990174D02*
X14008704Y13990174D01*
X13689390Y13990174D02*
X13689390Y15107774D01*
X13689390Y15107774D02*
X13795828Y14948117D01*
X13795828Y14948117D02*
X13902266Y14841679D01*
X13902266Y14841679D02*
X14008704Y14788460D01*
X22656800Y12190901D02*
X23295428Y12190901D01*
X22976114Y12190901D02*
X22976114Y13308501D01*
X22976114Y13308501D02*
X23082552Y13148844D01*
X23082552Y13148844D02*
X23188990Y13042406D01*
X23188990Y13042406D02*
X23295428Y12989187D01*
X22231047Y13202063D02*
X22177828Y13255282D01*
X22177828Y13255282D02*
X22071390Y13308501D01*
X22071390Y13308501D02*
X21805295Y13308501D01*
X21805295Y13308501D02*
X21698857Y13255282D01*
X21698857Y13255282D02*
X21645638Y13202063D01*
X21645638Y13202063D02*
X21592419Y13095625D01*
X21592419Y13095625D02*
X21592419Y12989187D01*
X21592419Y12989187D02*
X21645638Y12829530D01*
X21645638Y12829530D02*
X22284266Y12190901D01*
X22284266Y12190901D02*
X21592419Y12190901D01*
X20368380Y12190901D02*
X19782971Y12935968D01*
X20368380Y12935968D02*
X19782971Y12190901D01*
X17867085Y12297340D02*
X17920304Y12244121D01*
X17920304Y12244121D02*
X18079961Y12190901D01*
X18079961Y12190901D02*
X18186399Y12190901D01*
X18186399Y12190901D02*
X18346056Y12244121D01*
X18346056Y12244121D02*
X18452494Y12350559D01*
X18452494Y12350559D02*
X18505713Y12456997D01*
X18505713Y12456997D02*
X18558932Y12669873D01*
X18558932Y12669873D02*
X18558932Y12829530D01*
X18558932Y12829530D02*
X18505713Y13042406D01*
X18505713Y13042406D02*
X18452494Y13148844D01*
X18452494Y13148844D02*
X18346056Y13255282D01*
X18346056Y13255282D02*
X18186399Y13308501D01*
X18186399Y13308501D02*
X18079961Y13308501D01*
X18079961Y13308501D02*
X17920304Y13255282D01*
X17920304Y13255282D02*
X17867085Y13202063D01*
X16909142Y12190901D02*
X16909142Y12776311D01*
X16909142Y12776311D02*
X16962361Y12882749D01*
X16962361Y12882749D02*
X17068799Y12935968D01*
X17068799Y12935968D02*
X17281675Y12935968D01*
X17281675Y12935968D02*
X17388113Y12882749D01*
X16909142Y12244121D02*
X17015580Y12190901D01*
X17015580Y12190901D02*
X17281675Y12190901D01*
X17281675Y12190901D02*
X17388113Y12244121D01*
X17388113Y12244121D02*
X17441332Y12350559D01*
X17441332Y12350559D02*
X17441332Y12456997D01*
X17441332Y12456997D02*
X17388113Y12563435D01*
X17388113Y12563435D02*
X17281675Y12616654D01*
X17281675Y12616654D02*
X17015580Y12616654D01*
X17015580Y12616654D02*
X16909142Y12669873D01*
X16376951Y12935968D02*
X16376951Y11818368D01*
X16376951Y12882749D02*
X16270513Y12935968D01*
X16270513Y12935968D02*
X16057637Y12935968D01*
X16057637Y12935968D02*
X15951199Y12882749D01*
X15951199Y12882749D02*
X15897980Y12829530D01*
X15897980Y12829530D02*
X15844761Y12723092D01*
X15844761Y12723092D02*
X15844761Y12403778D01*
X15844761Y12403778D02*
X15897980Y12297340D01*
X15897980Y12297340D02*
X15951199Y12244121D01*
X15951199Y12244121D02*
X16057637Y12190901D01*
X16057637Y12190901D02*
X16270513Y12190901D01*
X16270513Y12190901D02*
X16376951Y12244121D01*
X14886818Y12190901D02*
X14886818Y12776311D01*
X14886818Y12776311D02*
X14940037Y12882749D01*
X14940037Y12882749D02*
X15046475Y12935968D01*
X15046475Y12935968D02*
X15259351Y12935968D01*
X15259351Y12935968D02*
X15365789Y12882749D01*
X14886818Y12244121D02*
X14993256Y12190901D01*
X14993256Y12190901D02*
X15259351Y12190901D01*
X15259351Y12190901D02*
X15365789Y12244121D01*
X15365789Y12244121D02*
X15419008Y12350559D01*
X15419008Y12350559D02*
X15419008Y12456997D01*
X15419008Y12456997D02*
X15365789Y12563435D01*
X15365789Y12563435D02*
X15259351Y12616654D01*
X15259351Y12616654D02*
X14993256Y12616654D01*
X14993256Y12616654D02*
X14886818Y12669873D01*
X13875656Y12244121D02*
X13982094Y12190901D01*
X13982094Y12190901D02*
X14194970Y12190901D01*
X14194970Y12190901D02*
X14301408Y12244121D01*
X14301408Y12244121D02*
X14354627Y12297340D01*
X14354627Y12297340D02*
X14407846Y12403778D01*
X14407846Y12403778D02*
X14407846Y12723092D01*
X14407846Y12723092D02*
X14354627Y12829530D01*
X14354627Y12829530D02*
X14301408Y12882749D01*
X14301408Y12882749D02*
X14194970Y12935968D01*
X14194970Y12935968D02*
X13982094Y12935968D01*
X13982094Y12935968D02*
X13875656Y12882749D01*
X13396684Y12190901D02*
X13396684Y12935968D01*
X13396684Y13308501D02*
X13449903Y13255282D01*
X13449903Y13255282D02*
X13396684Y13202063D01*
X13396684Y13202063D02*
X13343465Y13255282D01*
X13343465Y13255282D02*
X13396684Y13308501D01*
X13396684Y13308501D02*
X13396684Y13202063D01*
X13024151Y12935968D02*
X12598399Y12935968D01*
X12864494Y13308501D02*
X12864494Y12350559D01*
X12864494Y12350559D02*
X12811275Y12244121D01*
X12811275Y12244121D02*
X12704837Y12190901D01*
X12704837Y12190901D02*
X12598399Y12190901D01*
X12225865Y12190901D02*
X12225865Y12935968D01*
X12225865Y13308501D02*
X12279084Y13255282D01*
X12279084Y13255282D02*
X12225865Y13202063D01*
X12225865Y13202063D02*
X12172646Y13255282D01*
X12172646Y13255282D02*
X12225865Y13308501D01*
X12225865Y13308501D02*
X12225865Y13202063D01*
X11853332Y12935968D02*
X11427580Y12935968D01*
X11693675Y13308501D02*
X11693675Y12350559D01*
X11693675Y12350559D02*
X11640456Y12244121D01*
X11640456Y12244121D02*
X11534018Y12190901D01*
X11534018Y12190901D02*
X11427580Y12190901D01*
X11161484Y12935968D02*
X10895389Y12190901D01*
X10895389Y12190901D02*
X10629294Y12935968D01*
X9777789Y12244121D02*
X9884227Y12190901D01*
X9884227Y12190901D02*
X10097103Y12190901D01*
X10097103Y12190901D02*
X10203541Y12244121D01*
X10203541Y12244121D02*
X10256760Y12350559D01*
X10256760Y12350559D02*
X10256760Y12776311D01*
X10256760Y12776311D02*
X10203541Y12882749D01*
X10203541Y12882749D02*
X10097103Y12935968D01*
X10097103Y12935968D02*
X9884227Y12935968D01*
X9884227Y12935968D02*
X9777789Y12882749D01*
X9777789Y12882749D02*
X9724570Y12776311D01*
X9724570Y12776311D02*
X9724570Y12669873D01*
X9724570Y12669873D02*
X10256760Y12563435D01*
X22523752Y11509228D02*
X21885124Y11509228D01*
X22204438Y10391628D02*
X22204438Y11509228D01*
X21352933Y10391628D02*
X21459371Y10444848D01*
X21459371Y10444848D02*
X21512590Y10498067D01*
X21512590Y10498067D02*
X21565809Y10604505D01*
X21565809Y10604505D02*
X21565809Y10923819D01*
X21565809Y10923819D02*
X21512590Y11030257D01*
X21512590Y11030257D02*
X21459371Y11083476D01*
X21459371Y11083476D02*
X21352933Y11136695D01*
X21352933Y11136695D02*
X21193276Y11136695D01*
X21193276Y11136695D02*
X21086838Y11083476D01*
X21086838Y11083476D02*
X21033619Y11030257D01*
X21033619Y11030257D02*
X20980400Y10923819D01*
X20980400Y10923819D02*
X20980400Y10604505D01*
X20980400Y10604505D02*
X21033619Y10498067D01*
X21033619Y10498067D02*
X21086838Y10444848D01*
X21086838Y10444848D02*
X21193276Y10391628D01*
X21193276Y10391628D02*
X21352933Y10391628D01*
X20022457Y11136695D02*
X20022457Y10391628D01*
X20501428Y11136695D02*
X20501428Y10551286D01*
X20501428Y10551286D02*
X20448209Y10444848D01*
X20448209Y10444848D02*
X20341771Y10391628D01*
X20341771Y10391628D02*
X20182114Y10391628D01*
X20182114Y10391628D02*
X20075676Y10444848D01*
X20075676Y10444848D02*
X20022457Y10498067D01*
X19011295Y10444848D02*
X19117733Y10391628D01*
X19117733Y10391628D02*
X19330609Y10391628D01*
X19330609Y10391628D02*
X19437047Y10444848D01*
X19437047Y10444848D02*
X19490266Y10498067D01*
X19490266Y10498067D02*
X19543485Y10604505D01*
X19543485Y10604505D02*
X19543485Y10923819D01*
X19543485Y10923819D02*
X19490266Y11030257D01*
X19490266Y11030257D02*
X19437047Y11083476D01*
X19437047Y11083476D02*
X19330609Y11136695D01*
X19330609Y11136695D02*
X19117733Y11136695D01*
X19117733Y11136695D02*
X19011295Y11083476D01*
X18532323Y10391628D02*
X18532323Y11509228D01*
X18053352Y10391628D02*
X18053352Y10977038D01*
X18053352Y10977038D02*
X18106571Y11083476D01*
X18106571Y11083476D02*
X18213009Y11136695D01*
X18213009Y11136695D02*
X18372666Y11136695D01*
X18372666Y11136695D02*
X18479104Y11083476D01*
X18479104Y11083476D02*
X18532323Y11030257D01*
X16722875Y10444848D02*
X16563218Y10391628D01*
X16563218Y10391628D02*
X16297123Y10391628D01*
X16297123Y10391628D02*
X16190685Y10444848D01*
X16190685Y10444848D02*
X16137466Y10498067D01*
X16137466Y10498067D02*
X16084247Y10604505D01*
X16084247Y10604505D02*
X16084247Y10710943D01*
X16084247Y10710943D02*
X16137466Y10817381D01*
X16137466Y10817381D02*
X16190685Y10870600D01*
X16190685Y10870600D02*
X16297123Y10923819D01*
X16297123Y10923819D02*
X16509999Y10977038D01*
X16509999Y10977038D02*
X16616437Y11030257D01*
X16616437Y11030257D02*
X16669656Y11083476D01*
X16669656Y11083476D02*
X16722875Y11189914D01*
X16722875Y11189914D02*
X16722875Y11296352D01*
X16722875Y11296352D02*
X16669656Y11402790D01*
X16669656Y11402790D02*
X16616437Y11456009D01*
X16616437Y11456009D02*
X16509999Y11509228D01*
X16509999Y11509228D02*
X16243904Y11509228D01*
X16243904Y11509228D02*
X16084247Y11456009D01*
X15179523Y10444848D02*
X15285961Y10391628D01*
X15285961Y10391628D02*
X15498837Y10391628D01*
X15498837Y10391628D02*
X15605275Y10444848D01*
X15605275Y10444848D02*
X15658494Y10551286D01*
X15658494Y10551286D02*
X15658494Y10977038D01*
X15658494Y10977038D02*
X15605275Y11083476D01*
X15605275Y11083476D02*
X15498837Y11136695D01*
X15498837Y11136695D02*
X15285961Y11136695D01*
X15285961Y11136695D02*
X15179523Y11083476D01*
X15179523Y11083476D02*
X15126304Y10977038D01*
X15126304Y10977038D02*
X15126304Y10870600D01*
X15126304Y10870600D02*
X15658494Y10764162D01*
X14647332Y11136695D02*
X14647332Y10391628D01*
X14647332Y11030257D02*
X14594113Y11083476D01*
X14594113Y11083476D02*
X14487675Y11136695D01*
X14487675Y11136695D02*
X14328018Y11136695D01*
X14328018Y11136695D02*
X14221580Y11083476D01*
X14221580Y11083476D02*
X14168361Y10977038D01*
X14168361Y10977038D02*
X14168361Y10391628D01*
X13689389Y10444848D02*
X13582951Y10391628D01*
X13582951Y10391628D02*
X13370075Y10391628D01*
X13370075Y10391628D02*
X13263637Y10444848D01*
X13263637Y10444848D02*
X13210418Y10551286D01*
X13210418Y10551286D02*
X13210418Y10604505D01*
X13210418Y10604505D02*
X13263637Y10710943D01*
X13263637Y10710943D02*
X13370075Y10764162D01*
X13370075Y10764162D02*
X13529732Y10764162D01*
X13529732Y10764162D02*
X13636170Y10817381D01*
X13636170Y10817381D02*
X13689389Y10923819D01*
X13689389Y10923819D02*
X13689389Y10977038D01*
X13689389Y10977038D02*
X13636170Y11083476D01*
X13636170Y11083476D02*
X13529732Y11136695D01*
X13529732Y11136695D02*
X13370075Y11136695D01*
X13370075Y11136695D02*
X13263637Y11083476D01*
X12571789Y10391628D02*
X12678227Y10444848D01*
X12678227Y10444848D02*
X12731446Y10498067D01*
X12731446Y10498067D02*
X12784665Y10604505D01*
X12784665Y10604505D02*
X12784665Y10923819D01*
X12784665Y10923819D02*
X12731446Y11030257D01*
X12731446Y11030257D02*
X12678227Y11083476D01*
X12678227Y11083476D02*
X12571789Y11136695D01*
X12571789Y11136695D02*
X12412132Y11136695D01*
X12412132Y11136695D02*
X12305694Y11083476D01*
X12305694Y11083476D02*
X12252475Y11030257D01*
X12252475Y11030257D02*
X12199256Y10923819D01*
X12199256Y10923819D02*
X12199256Y10604505D01*
X12199256Y10604505D02*
X12252475Y10498067D01*
X12252475Y10498067D02*
X12305694Y10444848D01*
X12305694Y10444848D02*
X12412132Y10391628D01*
X12412132Y10391628D02*
X12571789Y10391628D01*
X11720284Y10391628D02*
X11720284Y11136695D01*
X11720284Y10923819D02*
X11667065Y11030257D01*
X11667065Y11030257D02*
X11613846Y11083476D01*
X11613846Y11083476D02*
X11507408Y11136695D01*
X11507408Y11136695D02*
X11400970Y11136695D01*
X11081655Y10444848D02*
X10975217Y10391628D01*
X10975217Y10391628D02*
X10762341Y10391628D01*
X10762341Y10391628D02*
X10655903Y10444848D01*
X10655903Y10444848D02*
X10602684Y10551286D01*
X10602684Y10551286D02*
X10602684Y10604505D01*
X10602684Y10604505D02*
X10655903Y10710943D01*
X10655903Y10710943D02*
X10762341Y10764162D01*
X10762341Y10764162D02*
X10921998Y10764162D01*
X10921998Y10764162D02*
X11028436Y10817381D01*
X11028436Y10817381D02*
X11081655Y10923819D01*
X11081655Y10923819D02*
X11081655Y10977038D01*
X11081655Y10977038D02*
X11028436Y11083476D01*
X11028436Y11083476D02*
X10921998Y11136695D01*
X10921998Y11136695D02*
X10762341Y11136695D01*
X10762341Y11136695D02*
X10655903Y11083476D01*
%LPC*%
D12*
%TO.C,JP1*%
X1270000Y17780000D03*
D13*
X3810000Y17780000D03*
X6350000Y17780000D03*
X8890000Y17780000D03*
X11430000Y17780000D03*
X13970000Y17780000D03*
X16510000Y17780000D03*
X19050000Y17780000D03*
X21590000Y17780000D03*
X24130000Y17780000D03*
X26670000Y17780000D03*
X29210000Y17780000D03*
X31750000Y17780000D03*
%TD*%
D14*
%TO.C,U$10*%
X2540000Y2540000D03*
%TD*%
D15*
%TO.C,JP2*%
X24130000Y2540000D03*
D16*
X21590000Y2540000D03*
X19050000Y2540000D03*
X16510000Y2540000D03*
X13970000Y2540000D03*
X11430000Y2540000D03*
X8890000Y2540000D03*
%TD*%
D14*
%TO.C,U$11*%
X30480000Y2540000D03*
%TD*%
%LPD*%
M02*
