%TF.GenerationSoftware,KiCad,Pcbnew,10.99.0-3758-g2f18d95be7*%
%TF.CreationDate,2026-09-22T13:00:38+01:00*%
%TF.ProjectId,kicad_file,6b696361-645f-4666-996c-652e6b696361,rev?*%
%TF.SameCoordinates,Original*%
%TF.FileFunction,Paste,Top*%
%TF.FilePolarity,Positive*%
%FSLAX46Y46*%
G04 Gerber Fmt 4.6, Leading zero omitted, Abs format (unit mm)*
G04 Created by KiCad (PCBNEW 10.99.0-3758-g2f18d95be7) date 2026-09-22 13:00:38*
%MOMM*%
%LPD*%
G01*
G04 APERTURE LIST*
%ADD10R,1.240000X1.500000*%
%ADD11R,0.500000X0.500000*%
%ADD12R,0.500000X0.400000*%
%ADD13R,1.550000X0.600000*%
%ADD14R,1.800000X1.200000*%
%ADD15R,1.075000X1.000000*%
%ADD16R,1.000000X1.075000*%
%ADD17R,0.800000X0.800000*%
%ADD18R,0.450000X0.900000*%
%ADD19R,1.200000X0.550000*%
%ADD20R,0.550000X1.200000*%
G04 APERTURE END LIST*
D10*
%TO.C,C3*%
X7178000Y12192000D03*
X9078000Y12192000D03*
%TD*%
D11*
%TO.C,Q2*%
X17219500Y7251000D03*
D12*
X17219500Y8001000D03*
D11*
X17219500Y8751000D03*
X15419500Y8751000D03*
D12*
X15419500Y8001000D03*
D11*
X15419500Y7251000D03*
%TD*%
D13*
%TO.C,CONN4*%
X5054000Y10390000D03*
X5054000Y9390000D03*
X5054000Y8390000D03*
X5054000Y7390000D03*
D14*
X1154000Y11690000D03*
X1154000Y6090000D03*
%TD*%
D15*
%TO.C,C1*%
X13550000Y6223000D03*
X11850000Y6223000D03*
%TD*%
D16*
%TO.C,R1*%
X5588000Y13296000D03*
X5588000Y11596000D03*
%TD*%
D17*
%TO.C,D1*%
X4306000Y12573000D03*
X2806000Y12573000D03*
%TD*%
D18*
%TO.C,R3*%
X18445000Y12280000D03*
X17545000Y12280000D03*
X16745000Y12280000D03*
X15845000Y12280000D03*
X15845000Y10580000D03*
X16745000Y10580000D03*
X17545000Y10580000D03*
X18445000Y10580000D03*
%TD*%
D19*
%TO.C,IC2*%
X11400000Y9840000D03*
X11400000Y8890000D03*
X11400000Y7940000D03*
X14000000Y7940000D03*
X14000000Y8890000D03*
X14000000Y9840000D03*
%TD*%
D10*
%TO.C,C2*%
X6924000Y5715000D03*
X8824000Y5715000D03*
%TD*%
D13*
%TO.C,CONN3*%
X20346000Y7390000D03*
X20346000Y8390000D03*
X20346000Y9390000D03*
X20346000Y10390000D03*
D14*
X24246000Y6090000D03*
X24246000Y11690000D03*
%TD*%
D20*
%TO.C,U2*%
X7178000Y7462900D03*
X8128000Y7462900D03*
X9078000Y7462900D03*
X9078000Y10063100D03*
X7178000Y10063100D03*
%TD*%
M02*
