%TF.GenerationSoftware,KiCad,Pcbnew,10.99.0-3671-gbe90a7e200*%
%TF.CreationDate,2026-09-10T01:11:32+01:00*%
%TF.ProjectId,kicad_file,6b696361-645f-4666-996c-652e6b696361,rev?*%
%TF.SameCoordinates,Original*%
%TF.FileFunction,Soldermask,Top*%
%TF.FilePolarity,Negative*%
%FSLAX46Y46*%
G04 Gerber Fmt 4.6, Leading zero omitted, Abs format (unit mm)*
G04 Created by KiCad (PCBNEW 10.99.0-3671-gbe90a7e200) date 2026-09-10 01:11:32*
%MOMM*%
%LPD*%
G01*
G04 APERTURE LIST*
G04 Aperture macros list*
%AMRoundRect*
0 Rectangle with rounded corners*
0 $1 Rounding radius*
0 $2 $3 $4 $5 $6 $7 $8 $9 X,Y pos of 4 corners*
0 Add a 4 corners polygon primitive as box body*
4,1,4,$2,$3,$4,$5,$6,$7,$8,$9,$2,$3,0*
0 Add four circle primitives for the rounded corners*
1,1,$1+$1,$2,$3*
1,1,$1+$1,$4,$5*
1,1,$1+$1,$6,$7*
1,1,$1+$1,$8,$9*
0 Add four rect primitives between the rounded corners*
20,1,$1+$1,$2,$3,$4,$5,0*
20,1,$1+$1,$4,$5,$6,$7,0*
20,1,$1+$1,$6,$7,$8,$9,0*
20,1,$1+$1,$8,$9,$2,$3,0*%
%AMFreePoly0*
4,1,17,0.435720,1.001121,1.001121,0.435720,1.016000,0.399799,1.016000,-0.399799,1.001121,-0.435720,0.435720,-1.001121,0.399799,-1.016000,-0.399799,-1.016000,-0.435720,-1.001121,-1.001121,-0.435720,-1.016000,-0.399799,-1.016000,0.399799,-1.001121,0.435720,-0.435720,1.001121,-0.399799,1.016000,0.399799,1.016000,0.435720,1.001121,0.435720,1.001121,$1*%
G04 Aperture macros list end*
%ADD10C,0.500000*%
%ADD11C,3.301600*%
%ADD12RoundRect,0.050800X0.750000X-0.650000X0.750000X0.650000X-0.750000X0.650000X-0.750000X-0.650000X0*%
%ADD13RoundRect,0.050800X-0.650000X0.600000X-0.650000X-0.600000X0.650000X-0.600000X0.650000X0.600000X0*%
%ADD14RoundRect,0.050800X-0.750000X0.650000X-0.750000X-0.650000X0.750000X-0.650000X0.750000X0.650000X0*%
%ADD15RoundRect,0.050800X-2.300000X0.500000X-2.300000X-0.500000X2.300000X-0.500000X2.300000X0.500000X0*%
%ADD16RoundRect,0.050800X-1.700000X-0.800000X1.700000X-0.800000X1.700000X0.800000X-1.700000X0.800000X0*%
%ADD17FreePoly0,270.000000*%
%ADD18C,2.032000*%
%ADD19RoundRect,0.550800X-0.000010X-0.000010X0.000010X-0.000010X0.000010X0.000010X-0.000010X0.000010X0*%
%ADD20RoundRect,0.050800X0.600000X-0.275000X0.600000X0.275000X-0.600000X0.275000X-0.600000X-0.275000X0*%
%ADD21C,1.879600*%
%ADD22RoundRect,0.050800X-0.600000X-0.600000X0.600000X-0.600000X0.600000X0.600000X-0.600000X0.600000X0*%
G04 APERTURE END LIST*
%TO.C,FID1*%
D10*
X13474000Y6159500D02*
G75*
G02*
X14224000Y6909500I750000J0D01*
G01*
X14224000Y6909500D02*
G75*
G02*
X14974000Y6159500I0J-750000D01*
G01*
X14224000Y5409500D02*
G75*
G02*
X13474000Y6159500I0J750000D01*
G01*
X14974000Y6159500D02*
G75*
G02*
X14224000Y5409500I-750000J0D01*
G01*
%TD*%
D11*
%TO.C,U$10*%
X13970000Y12700000D03*
%TD*%
D12*
%TO.C,C1*%
X3429000Y8765500D03*
X3429000Y10665500D03*
%TD*%
D13*
%TO.C,R3*%
X3683000Y3111500D03*
X3683000Y1079500D03*
%TD*%
D12*
%TO.C,R2*%
X5461000Y1145500D03*
X5461000Y3045500D03*
%TD*%
D14*
%TO.C,R4*%
X7239000Y10602000D03*
X7239000Y8702000D03*
%TD*%
D15*
%TO.C,CN2*%
X9254000Y7096000D03*
X9254000Y5096000D03*
D16*
X14454000Y9496000D03*
X14454000Y2696000D03*
%TD*%
D12*
%TO.C,R1*%
X7366000Y1145500D03*
X7366000Y3045500D03*
%TD*%
%TO.C,C2*%
X5334000Y8765500D03*
X5334000Y10665500D03*
%TD*%
D17*
%TO.C,JP1*%
X7620000Y13970000D03*
D18*
X5080000Y13970000D03*
X2540000Y13970000D03*
%TD*%
D19*
%TO.C,FID1*%
X14224000Y6159500D03*
%TD*%
D20*
%TO.C,U1*%
X5872100Y4638000D03*
X5872100Y5588000D03*
X5872100Y6538000D03*
X3271900Y6538000D03*
X3271900Y4638000D03*
%TD*%
D21*
%TO.C,JP2*%
X10160000Y11430000D03*
X10160000Y13970000D03*
%TD*%
D22*
%TO.C,DONE0*%
X1397000Y3204500D03*
X1397000Y5304500D03*
%TD*%
%TO.C,CHG0*%
X1397000Y8919500D03*
X1397000Y11019500D03*
%TD*%
G36*
X10702731Y13518987D02*
G01*
X10739276Y13468687D01*
X10744200Y13437600D01*
X10744200Y11835400D01*
X10724987Y11776269D01*
X10674687Y11739724D01*
X10643600Y11734800D01*
X9676400Y11734800D01*
X9617269Y11754013D01*
X9580724Y11804313D01*
X9575800Y11835400D01*
X9575800Y13437600D01*
X9595013Y13496731D01*
X9645313Y13533276D01*
X9676400Y13538200D01*
X10643600Y13538200D01*
X10702731Y13518987D01*
G37*
M02*
